<svg viewBox="-70.5 -122.3 1568 804.3"
   xmlns="http://www.w3.org/2000/svg"
   version="1.0">
  <path
     style="fill:currentColor;stroke:none"
     d="M 2.5424379,623.90335 L 75.198837,623.90335 C 75.198837,528.91785 64.141537,344.89375 90.872237,260.77215 C 156.20704,55.020153 402.15204,34.623253 486.57414,236.83245 C 523.76104,325.69895 510.98624,521.68205 510.98624,623.90335 L 583.55654,623.90335 C 583.55654,502.57325 598.54284,296.54215 555.81664,187.98715 C 456.51534,-64.270047 128.35974,-61.049547 30.260937,187.98715 C -12.422463,296.43475 2.5424379,502.68075 2.5424379,623.90335" />
  <path
     style="fill:currentColor;stroke:none"
     d="M 843.40625,623.90335 L 916.06265,623.90335 C 916.06265,528.91785 905.00535,344.89375 931.73605,260.77215 C 997.07085,55.020153 1243.0158,34.623253 1327.4379,236.83245 C 1364.6248,325.69895 1351.85,521.68205 1351.85,623.90335 L 1424.4203,623.90335 C 1424.4203,502.57325 1439.4066,296.54215 1396.6804,187.98715 C 1297.3791,-64.270047 969.22355,-61.049547 871.12475,187.98715 C 828.44135,296.43475 843.40625,502.68075 843.40625,623.90335" />
</svg>