<svg xmlns="http://www.w3.org/2000/svg" viewBox="0 -2048 2048 2048">
	<path fill="currentColor" d="M2137 0H100V-557Q117 -557 159 -560.5Q201 -564 219 -564Q242 -604 307 -619Q354 -628 401 -637Q448 -654 514 -695Q571 -732 627 -768Q625 -770 614 -770Q608 -770 451 -734Q294 -698 287 -698H255Q255 -700 252 -705.5Q249 -711 249 -718Q249 -724 258.5 -730Q268 -736 270 -740Q230 -747 169 -724Q157 -736 157 -759Q230 -791 278 -791Q284 -791 302 -788.5Q320 -786 327 -786Q333 -786 440 -819Q566 -859 617 -872Q574 -960 483 -1114Q477 -1122 461 -1122Q447 -1122 416.5 -1080.5Q386 -1039 379 -1039Q374 -1039 360.5 -1047Q347 -1055 342 -1055Q335 -1055 304 -1008Q242 -1066 181 -1124Q130 -1177 130 -1233Q130 -1291 183 -1338Q232 -1381 280 -1381Q327 -1381 403.5 -1316Q480 -1251 482 -1251Q483 -1251 523 -1276Q571 -1307 623 -1327Q664 -1343 770 -1349Q896 -1356 924 -1361Q966 -1369 1062 -1411Q1146 -1448 1188 -1448Q1228 -1448 1289 -1407Q1368 -1353 1401 -1340Q1464 -1315 1615 -1293L1835 -1329Q1879 -1318 1923 -1318Q1929 -1318 1986.5 -1326Q2044 -1334 2050 -1334Q2087 -1334 2089 -1334Q2107 -1329 2110 -1301Q2118 -1235 2116 -1197V-1066H2076Q2072 -1099 2045 -1154Q2008 -1230 1964 -1230Q1962 -1230 1823 -1200Q1671 -1167 1598 -1157Q1579 -1112 1579 -1086Q1579 -1068 1618 -1036Q1649 -1011 1665 -1004Q1692 -997 1743 -980Q1784 -965 1882 -892Q1986 -815 2033 -794Q2060 -782 2060 -760Q2060 -755 2037 -707.5Q2014 -660 2012 -637Q2012 -617 2012 -597Q2011 -575 1998 -561Q2002 -557 2137 -562ZM2091 -1307H2011Q2004 -1307 1966.5 -1300Q1929 -1293 1923 -1293Q1916 -1293 1877 -1298Q1838 -1303 1832 -1303Q1829 -1303 1621 -1271Q1615 -1243 1605 -1184H1648Q1654 -1184 1746 -1208Q1851 -1236 1892 -1244Q1927 -1251 1951 -1251Q1994 -1251 2034 -1216Q2079 -1177 2089 -1117Q2089 -1305 2091 -1307ZM2034 -763Q1947 -823 1769 -938Q1722 -954 1639 -988Q1623 -996 1570 -1049L1543 -942Q1643 -902 1839 -815Q1886 -793 1904 -782Q1945 -756 1955 -730Q1964 -678 1985 -589Q1995 -667 2034 -763ZM1599 -1271Q1484 -1275 1386 -1319Q1362 -1333 1319 -1356Q1316 -1357 1263 -1397Q1224 -1427 1191 -1427Q1154 -1427 1089 -1396Q997 -1353 984 -1348Q1032 -1233 1058 -1165Q1178 -1116 1297 -1067Q1441 -1006 1520 -956ZM2111 -26V-536H1910L2019 -411L1889 -281L2039 -152L1920 -26ZM2003 -152L1853 -286L1982 -416Q1875 -538 1855 -537H1662Q1697 -494 1775 -410L1646 -276L1770 -152L1657 -26H1882Q1952 -94 2003 -152ZM1956 -595Q1949 -654 1923 -733Q1879 -780 1810 -811Q1751 -833 1691 -856Q1617 -883 1484 -937Q1037 -1143 1046 -1143Q1042 -1143 1005 -1128Q965 -1111 950 -1108Q757 -1066 695 -1069Q727 -1006 739 -968Q787 -822 787 -786Q787 -735 704 -690Q648 -664 591 -638Q534 -612 420 -560L1924 -564Q1930 -586 1956 -595ZM1739 -152L1615 -276L1739 -410Q1626 -537 1612 -536H1408Q1450 -496 1517 -421L1393 -286L1527 -142L1408 -26H1624ZM1491 -147Q1443 -198 1362 -291L1486 -421Q1435 -471 1384 -520Q1360 -537 1276 -536H1150L1263 -411L1139 -281Q1221 -199 1258 -147L1139 -26H1370Q1412 -69 1491 -147ZM1030 -1159V-1177Q989 -1267 951 -1344Q861 -1338 691 -1316Q653 -1309 566.5 -1267Q480 -1225 482 -1225Q473 -1225 427 -1256Q414 -1230 397 -1230Q396 -1230 303 -1261Q300 -1255 291 -1243Q301 -1232 322 -1217Q291 -1181 234 -1109Q264 -1079 304 -1049Q314 -1065 334 -1086Q350 -1078 376 -1065Q444 -1148 464 -1148Q496 -1148 506 -1128Q511 -1114 520 -1092Q547 -1040 624 -911Q689 -801 689 -796Q689 -773 530 -685Q486 -656 406 -611Q395 -606 353 -608Q380 -599 385 -574Q445 -604 548 -644Q589 -662 672 -696Q761 -728 761 -783Q761 -855 663 -1080Q663 -1087 672 -1096Q861 -1088 1030 -1159ZM409 -1275Q338 -1355 280 -1355Q246 -1355 200 -1318Q151 -1277 151 -1236Q151 -1198 210 -1127L285 -1212L265 -1233Q270 -1247 276 -1262Q285 -1282 306 -1282Q312 -1282 347.5 -1269Q383 -1256 389 -1256Q409 -1256 409 -1275ZM1232 -416Q1110 -538 1100 -537H901Q956 -473 1015 -416L891 -276L1015 -152L896 -26H1106L1227 -152Q1157 -221 1108 -286ZM658 -808Q631 -848 627 -848Q621 -848 481 -804Q341 -760 335 -760Q329 -760 313.5 -761Q298 -762 291 -762Q301 -763 312 -748.5Q323 -734 324 -734Q378 -759 487 -773Q605 -789 658 -808ZM979 -152L860 -281Q930 -350 979 -416Q872 -538 851 -537H653Q712 -466 761 -421L637 -281L761 -147L648 -26H863Q904 -66 979 -152ZM335 -579Q296 -566 291 -566L318 -563Q344 -566 344 -572Q342 -576 335 -579ZM730 -147L601 -281L725 -421Q623 -538 603 -537H394Q430 -497 498 -421L379 -286L508 -147L389 -26H610Q652 -69 730 -147ZM218 -421L127 -516V-315ZM472 -152Q401 -223 348 -291L467 -421Q427 -461 356 -536H146Q184 -495 249 -421Q231 -398 192 -351Q153 -304 135 -281Q176 -237 249 -152L130 -26H351Q421 -94 472 -152ZM218 -157Q185 -189 127 -253V-56Q160 -91 218 -157ZM316 -1130Q312 -1122 288 -1086Q283 -1091 265 -1092Q265 -1094 262.5 -1100.5Q260 -1107 260 -1114Q260 -1143 288 -1143Q290 -1143 316 -1130Z"/>
</svg>