<svg xmlns="http://www.w3.org/2000/svg" viewBox="0 0 1000 1000">
  <g transform="scale(1,-1) translate(0,-1000)">
    <path d="M364 328Q363 332 360.0 339.0Q357 346 346.0 357.0Q335 368 322 368Q322 368 321.0 367.5Q320 367 319 367Q307 366 295.5 356.5Q284 347 274.5 336.5Q265 326 245.0 317.5Q225 309 197 309Q152 309 115.5 349.5Q79 390 79 438Q79 495 112.0 529.0Q145 563 187 563Q224 563 279 520Q290 525 297.5 533.5Q305 542 307.5 548.0Q310 554 313.5 568.0Q317 582 319 587Q321 604 332 611L529 705L620 693Q692 690 709 684Q735 674 735 649Q735 648 734.5 647.0Q734 646 734 645Q730 636 719 636Q715 636 698.5 637.5Q682 639 666 640Q663 640 662 641Q660 642 656.0 643.5Q652 645 650 646Q638 651 621 654L564 659Q535 653 535 653L396 575Q413 568 438 568Q472 568 498 580Q539 598 547 599Q565 602 575 602Q578 602 585.0 601.5Q592 601 597 601Q608 600 640.0 590.0Q672 580 682 575Q682 575 689.5 569.0Q697 563 704.5 558.0Q712 553 726.0 548.5Q740 544 754 544H756Q792 545 832.5 548.0Q873 551 898 554L923 556Q940 554 953 554H961Q977 554 984.5 550.0Q992 546 993.0 541.5Q994 537 994 527Q994 494 993.5 465.5Q993 437 993 436Q993 428 994 427Q992 425 987.5 417.5Q983 410 976 410Q958 410 938 500L785 490L782 359Q836 351 869.0 342.5Q902 334 961 325Q984 322 989.5 316.0Q995 310 995 285Q995 279 994.5 256.5Q994 234 994 217V211Q994 182 976 182Q972 182 968.0 188.0Q964 194 961 196Q949 227 938 272Q892 277 834.5 294.5Q777 312 756 317Q705 327 652.5 348.5Q600 370 573.0 385.5Q546 401 546 403Q535 403 513.0 401.0Q491 399 458.5 388.0Q426 377 426 358V357Q427 351 427 343Q427 329 423 321Q407 286 387.5 267.0Q368 248 266 166L131 151Q83 148 78 148Q56 148 43 152Q17 160 14 184V188Q16 199 38 199H60H82H86Q87 199 89.0 198.0Q91 197 93.5 196.0Q96 195 98 195Q101 194 111.0 193.0Q121 192 127 190L249 226Q250 226 274.5 246.0Q299 266 327.5 291.5Q356 317 364 328ZM124 392Q128 424 146.0 455.0Q164 486 194 486Q196 486 203.0 485.5Q210 485 213 485Q218 485 221.5 486.0Q225 487 228.0 490.0Q231 493 232.5 494.5Q234 496 236.5 500.5Q239 505 240 507Q206 530 187 530Q156 530 133.0 504.0Q110 478 110 438Q110 411 124 392ZM172 389Q172 396 178.0 401.5Q184 407 192 407Q198 407 202.0 401.0Q206 395 206 389Q206 380 200.0 374.0Q194 368 187 368H186Q172 369 172 389ZM590 565 584 426 740 364 744 494Q719 499 694.5 516.0Q670 533 663 535Q658 536 629.0 549.5Q600 563 590 565ZM344 561Q331 526 320.0 512.0Q309 498 288.5 489.0Q268 480 259 474Q258 474 246.0 465.0Q234 456 213 456Q209 456 203.0 456.5Q197 457 194 457Q179 457 168.0 438.5Q157 420 154 402L151 384Q151 377 153 357Q173 343 197 343Q230 343 258.5 371.0Q287 399 316 402Q318 402 321.0 402.5Q324 403 325 403Q352 403 374 379Q405 402 448.5 419.0Q492 436 516.5 441.5Q541 447 546 447L549 565Q539 565 524.0 552.0Q509 539 498 537Q460 530 430 530Q375 530 351 558ZM28 115V30H972V115ZM14 0Q0 0 0 15V130Q0 145 14 145H986Q1000 145 1000 130V15Q1000 0 986 0Z" fill="currentColor"/>
  </g>
</svg>