<svg xmlns="http://www.w3.org/2000/svg" viewBox="26.3 -1616.7 1391.4 1990.4">
	<path fill="currentColor" d="M1344 -747Q1344 -723 1319 -647Q1284 -555 1249 -449V-421Q1263 -418 1280 -418Q1296 -418 1312 -421V-378H1259Q1257 -366 1247 -346Q1215 -314 1200 -314Q1181 -314 1148 -325Q1145 -318 1138 -299Q1103 -299 1103 -299Q1103 -342 1109 -377H1042Q1035 -377 1041 -354Q1100 -131 1125 182Q1126 192 1135.5 216Q1145 240 1145 245Q1145 264 1123.5 282Q1102 300 1090 300Q1084 300 1078.5 295Q1073 290 1066 290Q1065 290 1054 300H836Q836 283 838.5 264.5Q841 246 841 243Q1008 221 1008 169Q1008 150 967 16H739Q671 99 642 204Q645 217 644 246Q641 260 623.5 277.5Q606 295 591 295Q585 295 574 289.5Q563 284 557 284Q550 284 547.5 292Q545 300 538 300H342Q342 277 344.5 262.5Q347 248 347 249Q449 234 457 231Q526 209 555 144Q591 62 676 -270Q682 -298 699 -354L694 -374H583L603 -354V-335Q562 -349 447 -406Q536 -445 602 -461L614 -448Q604 -438 583 -417Q588 -414 615 -414Q619 -414 659.5 -417Q700 -420 715 -420Q729 -469 772 -594Q809 -702 809 -708Q809 -733 722 -965Q658 -893 524 -757Q516 -750 478 -750Q429 -750 341 -819Q331 -827 212 -932Q200 -930 171 -934V289H148V-930Q100 -961 100 -999Q100 -1016 106 -1030.5Q112 -1045 112 -1049Q112 -1057 105 -1068Q108 -1071 114.5 -1079.5Q121 -1088 124 -1091Q127 -1088 134.5 -1086Q142 -1084 145 -1081Q149 -1085 143 -1253H173V-1084Q188 -1080 215 -1062Q265 -1004 337 -956Q398 -916 459 -876Q521 -962 647 -1109Q668 -1129 728 -1141Q806 -1157 820 -1163V-1193Q795 -1198 748 -1228Q737 -1241 744 -1277Q744 -1277 717 -1293Q704 -1301 704 -1319Q704 -1328 734 -1378Q802 -1491 823 -1512Q855 -1543 924 -1543Q999 -1543 1050 -1508Q1113 -1466 1113 -1385Q1113 -1342 1071 -1274Q1035 -1220 998 -1166Q998 -1151 1016 -1150Q1041 -1148 1111 -1131Q1167 -1117 1257 -962Q1344 -811 1344 -747ZM1087 -1380Q1087 -1516 922 -1516Q876 -1516 845 -1492Q830 -1481 788 -1429L953 -1390Q958 -1390 969 -1398Q980 -1406 987 -1406Q1013 -1406 1035 -1377Q1031 -1370 1012 -1341Q998 -1319 998 -1313V-1275H1031Q1058 -1275 1074 -1316Q1087 -1348 1087 -1380ZM1218 -729L1100 -960Q1029 -788 1029 -760Q1029 -752 1050 -693.5Q1071 -635 1071 -600Q1071 -593 1053 -531Q1035 -469 1035 -463V-414H1127Q1175 -459 1192 -559Q1205 -644 1218 -729ZM1318 -750Q1318 -799 1259 -909Q1211 -998 1168 -1053Q1121 -1114 1058 -1121Q1030 -1124 976 -1132V-1194Q994 -1215 1018 -1247Q972 -1247 972 -1298Q972 -1311 1003 -1373L991 -1376Q985 -1370 971 -1359L779 -1406Q747 -1357 730 -1312Q783 -1299 772 -1234Q808 -1225 839 -1208Q840 -1186 846 -1142Q787 -1129 728 -1116Q663 -1097 627 -1053Q614 -1038 545 -935Q499 -867 460 -844Q448 -853 316 -936Q252 -976 227 -1017Q228 -1014 228 -1010Q228 -984 195 -956Q197 -956 202.5 -958Q208 -960 216 -960Q213 -960 331 -865.5Q449 -771 475 -771Q509 -771 610.5 -884.5Q712 -998 737 -1002L831 -724L1007 -756Q1061 -987 1110 -1002L1245 -736Q1231 -648 1217 -560Q1197 -452 1145 -384Q1158 -376 1164 -355Q1169 -340 1189 -340Q1206 -340 1227 -363Q1222 -395 1225 -452Q1238 -480 1258 -526Q1318 -709 1318 -750ZM1045 -600Q1045 -648 1007 -728Q930 -717 832 -695Q771 -524 741 -415H1007Q1012 -448 1030 -526Q1045 -594 1045 -600ZM200 -992V-1017Q172 -1044 150 -1044Q126 -1044 126 -1004Q126 -970 155 -970Q176 -970 200 -992ZM1087 -10V-49L1013 -376H726L631 -10ZM529 -388V-413Q517 -409 499 -400Q523 -388 529 -388ZM1113 262Q1102 176 1091 18H998Q1029 131 1029 166Q1029 212 956 243Q908 263 867 267H1047Q1054 268 1058.5 263Q1063 258 1069 258Q1072 258 1092 262Q1108 265 1113 262ZM703 18H626Q591 133 560 181Q534 221 482 239Q436 253 389 267H535Q535 253 552 253Q559 253 572 261Q585 269 591 269Q618 269 618 219Q617 156 703 18ZM845 -1333Q811 -1338 762 -1350Q769 -1365 795 -1390Q821 -1381 845 -1357Z"/>
</svg>