<svg xmlns="http://www.w3.org/2000/svg" viewBox="0 0 572 1000">
  <g transform="scale(1,-1) translate(0,-1000)">
    <path d="M208 686Q208 683 205.0 675.5Q202 668 202 666Q202 660 209 656Q212 655 239.5 640.0Q267 625 286 615L333 682Q333 684 332.5 686.0Q332 688 332 689Q332 737 367 737H377Q373 744 357.5 751.0Q342 758 331.0 771.5Q320 785 320 812Q320 845 344.0 873.5Q368 902 401 910Q399 922 399 928Q399 956 439 984Q463 1000 464 1000Q474 1000 474 990Q474 983 446.5 964.5Q419 946 419 929Q419 925 421 913H423Q445 913 464 905Q463 909 463 918Q463 936 479.5 954.5Q496 973 511.0 982.0Q526 991 528 991Q538 991 538 981Q538 974 510.5 955.5Q483 937 483 919Q483 915 484.5 906.5Q486 898 486 893Q523 865 523 820Q523 810 519.5 799.0Q516 788 512.5 781.5Q509 775 501.5 763.0Q494 751 492 747Q497 742 507.5 733.5Q518 725 528 714Q545 694 545 652Q545 623 537.5 590.0Q530 557 523 545Q543 500 543 467Q543 452 538.0 428.5Q533 405 533 392V380Q535 358 553.5 326.5Q572 295 572 287Q572 271 556 271L504 270V269Q510 219 510 189V180L509 65Q508 57 508 38V31Q508 10 503.0 5.0Q498 0 485 0H399Q386 5 385 16Q385 34 462 52L450 251H421Q420 238 420 212Q431 184 431 167L430 157Q430 151 425.5 145.5Q421 140 414 140Q393 140 393 161V168Q393 205 406 216L408 251H364Q363 239 360.5 221.0Q358 203 356.0 190.0Q354 177 354 175L355 174L337 66V63Q337 59 336.0 50.5Q335 42 335 39V32Q335 12 328.5 6.0Q322 0 300 0H236Q212 0 212 16Q212 18 214.0 22.0Q216 26 235.5 35.5Q255 45 289 53Q292 88 299.0 160.0Q306 232 309 269L285 268Q269 268 269 284Q269 293 285.0 321.5Q301 350 321.5 386.0Q342 422 350 440Q358 462 367 501Q368 505 369.5 512.5Q371 520 372 524Q365 527 347.0 537.0Q329 547 315 555L301 563L279 540Q277 538 245.5 522.5Q214 507 168.0 490.5Q122 474 95 474Q83 474 77 475Q77 470 75.5 457.0Q74 444 73 436L98 434L71 408Q68 377 65.0 350.0Q62 323 59.0 295.0Q56 267 48.0 190.0Q40 113 30 13Q28 0 15 0Q9 0 4.5 4.5Q0 9 0 15Q0 18 20.0 212.0Q40 406 40 408L16 442L43 439Q44 451 48 482Q28 489 28 500Q28 508 32.0 513.0Q36 518 39.5 519.0Q43 520 52 521Q70 685 70 699Q72 712 85 712Q91 712 95.5 707.5Q100 703 100 697Q100 696 98.0 677.0Q96 658 91.5 612.5Q87 567 82 520H84Q124 512 139 512Q143 512 144 513Q238 571 262 586Q218 613 204 622Q204 622 191 635Q182 644 180 647Q179 639 177.5 614.5Q176 590 174 574Q172 561 160 561Q146 561 146 575Q150 596 155 667Q132 693 132 709Q132 710 132.5 711.5Q133 713 133 714Q136 725 146 725Q146 725 148 724H150Q151 724 152.0 721.0Q153 718 154.5 713.0Q156 708 158 705Q158 706 161.0 732.0Q164 758 165 774Q167 786 178 786Q192 786 192 772Q190 756 187 719Q189 721 191 721Q196 719 202.0 706.5Q208 694 208 686ZM462 591Q421 530 404 517H403Q402 513 400.5 505.5Q399 498 398 494Q388 449 379.0 426.5Q370 404 343 360Q319 320 309 300L531 303L525 312Q501 354 501 392Q501 408 506.0 432.0Q511 456 511 467Q511 475 509.0 485.0Q507 495 503.5 505.0Q500 515 495.5 525.5Q491 536 486.5 545.0Q482 554 477.5 562.5Q473 571 470.0 577.0Q467 583 464 587ZM329 592Q347 582 371 570Q367 584 353 618ZM411 200Q406 194 406 172V162Q406 154 414 154Q418 162 418 172Q418 186 411 200ZM387 874Q412 871 436.5 855.5Q461 840 461 815Q461 813 460.5 807.0Q460 801 460 798Q460 793 462.0 789.0Q464 785 465.0 783.5Q466 782 471.5 778.5Q477 775 478 775Q497 803 497 820Q497 846 476.0 866.0Q455 886 423 886Q404 886 387 874ZM434 632Q392 699 382 706Q378 709 373 709Q369 709 367 705Q364 698 364 689Q364 682 369.5 665.5Q375 649 385.0 623.0Q395 597 399 584Q427 620 434 632ZM370 816Q370 833 384.0 833.0Q398 833 398 816Q398 804 384.0 804.0Q370 804 370 816ZM452 664Q452 666 458.5 669.0Q465 672 472 672Q481 672 486.5 665.0Q492 658 493.5 652.0Q495 646 495 641L481 620Q486 611 489.5 606.0Q493 601 505 581Q517 612 517 646Q517 683 510 690Q499 703 488.0 713.5Q477 724 469.5 733.0Q462 742 451 759V762Q438 771 438 798V815Q438 828 423.5 837.0Q409 846 394 848L380 851Q375 851 359 849Q347 830 347 812Q347 785 373.0 771.5Q399 758 400 731Q417 723 429 701Q441 681 452 664Z" fill="currentColor"/>
  </g>
</svg>