<svg xmlns="http://www.w3.org/2000/svg" viewBox="0 -2048 2048 2048">
	<path fill="#000000" d="M1032 -108Q1032 -92 1002 -55Q971 -53 948 -96Q946 -94 946 -86L1028 356Q1029 368 1013 377.5Q997 387 987 387Q982 387 960.5 379Q939 371 934 371Q929 371 894 379Q859 387 854 387H747Q738 358 738 334Q742 332 788 319Q821 311 855 302Q909 283 909 252Q909 214 900 181Q872 85 818 -109Q814 -116 795 -116Q772 -116 769 -105Q770 -108 770 -84Q770 -60 771 -58Q791 -20 791 15Q791 62 766 113H734Q709 61 709 29Q709 24 721.5 -32.5Q734 -89 734 -94Q734 -120 719 -120Q697 -120 675 -32Q665 12 642 95Q615 154 567 271Q562 302 557 333Q545 379 504 379Q486 379 469 362Q437 378 441 378H276V330Q299 324 347 315Q391 309 438 275Q490 237 503 188Q554 -5 554 -41Q554 -53 547 -67Q523 -51 513 -51Q476 -51 476 -86Q476 -109 527 -175Q554 -209 581 -242Q670 -383 701 -563Q686 -570 626 -620Q588 -543 500 -505Q426 -480 352 -454Q326 -442 270 -420Q257 -419 239 -404Q237 -400 226 -332Q252 -323 263 -315Q242 -291 207 -240Q206 -238 199 -188Q158 106 123 378Q122 378 113.5 376Q105 374 100 374L181 -239Q175 -267 161 -332H198Q202 -357 210 -408Q177 -427 177 -460Q177 -464 184 -485Q191 -506 192 -515Q196 -542 210 -542Q216 -542 219 -539.5Q222 -537 223 -537Q240 -685 293 -1002Q297 -1020 333 -1020Q368 -1020 394 -973Q392 -971 385 -966Q378 -961 376 -959Q335 -992 329 -992Q321 -992 313 -981Q295 -857 251 -532Q258 -525 269 -525Q284 -525 503 -631Q529 -704 529 -718Q529 -730 453 -795Q443 -787 420 -752Q405 -730 380 -730Q368 -730 350.5 -743.5Q333 -757 333 -769Q333 -763 368 -843Q368 -846 361 -863Q356 -876 358 -884Q368 -896 379 -920Q384 -955 404 -955Q408 -955 416 -947Q430 -968 444 -988Q468 -1020 486 -1020Q504 -1020 518.5 -1004Q533 -988 533 -973Q533 -965 488 -875Q506 -857 551 -820Q563 -852 574 -884Q590 -926 624 -949Q633 -955 693 -975V-1013Q666 -1021 611 -1042Q615 -1058 623 -1091Q615 -1098 588 -1108Q574 -1113 574 -1131Q574 -1145 614 -1196Q627 -1225 698 -1301Q720 -1318 747 -1320Q770 -1399 793 -1477Q835 -1589 899 -1589Q938 -1589 938 -1513Q938 -1424 860 -1305Q938 -1264 938 -1186Q938 -1145 899 -1087Q855 -1019 853 -1014Q853 -1002 852 -978Q915 -958 930 -949Q971 -927 971 -892Q971 -872 938 -769.5Q905 -667 905 -630Q905 -600 932 -531.5Q959 -463 959 -431Q959 -427 950.5 -369Q942 -311 942 -306Q942 -276 961 -242Q1032 -115 1032 -108ZM909 -1509Q909 -1542 900 -1560Q874 -1561 854 -1531Q842 -1514 812 -1439Q779 -1358 779 -1337V-1316Q790 -1327 804 -1322Q828 -1315 832 -1315Q849 -1315 877 -1375Q901 -1427 904 -1448Q909 -1483 909 -1509ZM914 -1188Q914 -1239 862 -1272Q817 -1299 768 -1299Q689 -1299 652 -1205L791 -1188Q799 -1188 805.5 -1196Q812 -1204 817 -1204Q852 -1204 852 -1174Q852 -1169 835.5 -1129Q819 -1089 819 -1084Q819 -1061 842 -1061Q862 -1061 890 -1119Q914 -1171 914 -1188ZM941 -891L927 -875Q927 -874 931 -868.5Q935 -863 935 -860Q935 -866 938 -877.5Q941 -889 941 -891ZM844 -945Q828 -957 827 -987Q826 -1029 824 -1036Q791 -1066 791 -1080Q791 -1087 815 -1159L705 -1171Q731 -1144 707 -1127Q688 -1135 652 -1150V-1165Q663 -1175 663 -1179H641Q629 -1162 603 -1128Q621 -1122 656 -1111Q650 -1090 640 -1054Q670 -1047 718 -1034Q718 -942 718 -942Q643 -950 612 -905Q593 -878 574 -796Q594 -782 630 -755Q630 -817 631 -812H657Q664 -786 676 -742Q713 -795 751 -848Q797 -912 844 -945ZM504 -975Q504 -985 486 -996Q477 -992 460.5 -967Q444 -942 443 -931Q455 -922 474 -906Q504 -975 504 -975ZM1004 -112Q1004 -118 980 -156Q950 -205 943 -217Q922 -257 909 -302L934 -435Q930 -473 903 -532Q877 -586 877 -619Q877 -624 901.5 -714.5Q926 -805 926 -810Q926 -815 911.5 -845Q897 -875 897 -879Q897 -885 908.5 -902.5Q920 -920 922 -925Q894 -939 895 -939Q850 -939 768 -828Q729 -767 689 -707L699 -697Q738 -758 818 -873Q826 -868 836 -859Q805 -805 774 -751Q740 -692 703 -660Q639 -712 516 -812Q485 -849 433 -906Q425 -889 421 -889Q407 -897 399 -897Q386 -869 386 -874Q422 -848 489 -796Q570 -710 707 -591Q815 -689 888 -804Q895 -801 905 -793Q850 -674 727 -569Q712 -350 541 -146Q527 -123 507 -80Q522 -83 537.5 -112Q553 -141 563 -146H960Q970 -140 974 -113Q977 -90 994 -88Q1004 -98 1004 -112ZM419 -804Q419 -814 391 -828Q361 -788 361 -781V-768Q370 -759 380 -759Q392 -759 405.5 -776Q419 -793 419 -804ZM603 -640Q603 -646 582 -666Q555 -691 551 -697Q541 -658 524 -615Q480 -582 275 -499Q290 -478 280 -461Q340 -485 401 -503Q432 -514 487 -532Q603 -565 603 -640ZM999 349L917 -116H844V-102Q845 -118 892 38Q908 91 924 189Q934 251 934 252Q934 298 860 325Q811 339 762 353L875 358Q885 356 910 347Q935 338 940 338Q945 338 961.5 346Q978 354 983 354Q989 354 993.5 351.5Q998 349 999 349ZM762 15Q762 -19 752 -39Q738 45 738 33Q738 56 752 84Q762 34 762 15ZM255 -476Q255 -487 250 -492H219Q206 -479 206 -462Q206 -445 215 -436H229Q255 -458 255 -476ZM676 -120H595Q583 -97 583 -90Q583 -17 542 139Q527 196 514 223Q492 271 456 296Q441 306 304 352Q316 352 341 355Q366 358 369 358Q410 358 446 349Q450 348 460 341Q470 334 474 334Q479 334 491 344Q503 354 507 354Q525 354 532 314Q535 291 538 267Q562 216 601 124Q622 35 676 -120Z"/>
</svg>