<svg xmlns="http://www.w3.org/2000/svg" viewBox="0 -2048 2048 2048">
	<path fill="#000000" d="M1392 -268Q1392 -256 1348 -153Q1325 -162 1325 -189Q1325 -199 1329 -221Q1333 -243 1333 -253Q1333 -264 1331 -266Q1321 -246 1322 -234Q1309 -234 1298 -236.5Q1287 -239 1286 -239Q1285 -265 1294 -328Q1296 -342 1296 -359Q1296 -390 1285.5 -461.5Q1275 -533 1275 -568Q1274 -674 1202 -855Q1188 -812 1188 -764Q1188 -757 1225.5 -647.5Q1263 -538 1263 -531Q1263 -529 1241 -418Q1216 -299 1210 -242L1365 241Q1355 297 1224 367Q1154 367 1120.5 363.5Q1087 360 1098 360Q1108 343 1110 325Q1242 299 1242 209Q1242 158 1160 11Q1106 -85 1051 -180H956Q919 -133 879 -9Q818 183 814 194Q809 246 803 299Q794 367 741 367Q735 367 720 361.5Q705 356 698 356Q691 356 687 361.5Q683 367 676 367H460V330Q518 321 627 291Q702 261 733 119Q748 24 763 -71Q759 -95 761 -140Q765 -157 811 -269Q822 -297 868 -454Q920 -630 920 -662Q920 -729 895 -820Q874 -894 858 -920Q663 -796 642 -796Q583 -796 499 -872Q380 -982 343 -1004Q320 -1018 220 -1052Q153 -1076 127 -1121Q138 -1129 159 -1142Q139 -1159 119.5 -1212.5Q100 -1266 100 -1297Q100 -1299 105 -1323Q109 -1344 106 -1357Q132 -1370 146 -1370Q184 -1370 237 -1328Q283 -1290 312 -1245Q323 -1218 343 -1170Q355 -1163 382 -1147Q389 -1091 482 -1022Q552 -973 623 -925Q780 -1084 874 -1100Q907 -1096 969 -1110V-1141Q919 -1151 902 -1163Q877 -1182 877 -1226Q877 -1236 878 -1248Q860 -1258 835 -1258Q835 -1260 832 -1265.5Q829 -1271 829 -1279Q829 -1301 895 -1386Q964 -1475 1002 -1491Q1044 -1509 1070 -1509Q1097 -1509 1155 -1478Q1237 -1434 1237 -1338Q1237 -1304 1224 -1275Q1182 -1210 1140 -1132V-1101Q1167 -1100 1229 -1094Q1285 -1086 1328 -1002Q1365 -929 1365 -864V-686Q1365 -680 1378.5 -625.5Q1392 -571 1392 -564ZM1215 -1338Q1215 -1393 1169 -1437.5Q1123 -1482 1068 -1482Q994 -1482 931 -1393Q1078 -1338 1070 -1338Q1077 -1338 1090.5 -1348.5Q1104 -1359 1111 -1359Q1130 -1359 1146 -1340Q1146 -1325 1135 -1292Q1124 -1259 1124 -1254Q1124 -1243 1142 -1231Q1160 -1219 1166 -1220Q1215 -1296 1215 -1338ZM1371 -525Q1371 -532 1357.5 -605.5Q1344 -679 1344 -686V-826Q1344 -870 1315 -966Q1308 -991 1281 -1025Q1251 -1063 1229 -1067Q1192 -1067 1118 -1074V-1157Q1134 -1173 1145 -1196Q1128 -1211 1112.5 -1224Q1097 -1237 1097 -1254Q1097 -1261 1110.5 -1280.5Q1124 -1300 1124 -1307V-1326H1099Q1077 -1305 1076 -1305Q1069 -1305 1046 -1320Q1019 -1338 1010 -1341Q961 -1360 917 -1369Q909 -1356 889.5 -1324.5Q870 -1293 862 -1280Q879 -1275 904 -1260Q892 -1242 892 -1226Q892 -1195 934 -1177Q966 -1162 1001 -1162Q996 -1131 986 -1074Q911 -1075 875 -1073Q818 -1069 743 -1004Q681 -949 618 -893Q541 -948 464 -1002Q372 -1068 355 -1123Q340 -1057 242 -1067Q268 -1058 328 -1046Q333 -1045 461 -932Q585 -823 636 -823Q667 -823 869 -957Q899 -898 919 -801Q934 -723 948 -646L1172 -706Q1152 -810 1189 -916Q1196 -925 1206 -925Q1270 -764 1283 -691Q1288 -624 1302 -493Q1305 -475 1317 -426Q1328 -381 1328 -375Q1328 -369 1323 -342.5Q1318 -316 1318 -304Q1326 -307 1332 -307Q1351 -307 1355 -277Q1356 -255 1357 -233Q1366 -277 1363 -311Q1355 -403 1356 -413Q1357 -432 1364 -476Q1371 -520 1371 -525ZM1237 -531Q1237 -557 1181 -683Q1151 -676 939 -618Q891 -426 819 -210H1188Q1183 -227 1188 -262Q1196 -319 1218 -429Q1237 -527 1237 -531ZM320 -1166Q320 -1165 313 -1201Q307 -1231 243.5 -1287Q180 -1343 156 -1343H139Q127 -1305 127 -1295Q127 -1243 162 -1182Q205 -1107 269 -1107Q320 -1107 320 -1166ZM1344 242L1198 -179H1076Q1107 -136 1160 -58Q1269 165 1269 206Q1269 248 1233 291Q1195 337 1151 337L1188 340Q1202 340 1208 339Q1255 330 1344 242ZM925 -179H804Q788 -149 788 -145Q788 -85 784 -54Q768 22 750 128Q737 269 649 307Q609 324 508 337Q544 346 572 346Q617 346 683 333Q695 324 706 324Q711 324 720 335Q729 346 741 346Q769 346 774 322Q778 283 788 215Q796 182 834 83Q867 -4 879 -80Q885 -119 925 -179ZM995 -1308Q994 -1307 990 -1296Q987 -1289 979 -1289Q978 -1289 910 -1323Q926 -1348 942 -1348Q955 -1348 995 -1308Z"/>
</svg>