<svg xmlns="http://www.w3.org/2000/svg" viewBox="0 0 707 1000">
  <g transform="scale(1,-1) translate(0,-1000)">
    <path d="M707 607V602Q707 594 703 593Q664 585 588.0 573.5Q512 562 488 556Q469 488 465 398Q465 366 464.0 304.5Q463 243 462.5 201.0Q462 159 462 147Q462 88 428.5 44.5Q395 1 335 1Q310 1 289.0 11.5Q268 22 257.5 32.5Q247 43 230 64Q205 93 205.0 93.0Q205 93 206.5 89.5Q208 86 210.0 80.5Q212 75 214.0 69.0Q216 63 217.5 55.0Q219 47 219 41Q219 22 208.0 11.5Q197 1 178 1Q178 1 171.0 1.0Q164 1 153.5 0.5Q143 0 132.0 0.0Q121 0 110.5 0.0Q100 0 95 0Q78 0 18 2Q0 2 0 23Q0 46 22.0 53.5Q44 61 70.5 61.5Q97 62 103 68Q105 70 105 77Q105 90 93 106Q69 138 58.5 161.0Q48 184 32 232Q11 297 11 334Q11 352 16 380Q19 395 32.5 405.0Q46 415 65 415Q92 415 120.5 399.5Q149 384 183.0 350.0Q217 316 237.5 292.0Q258 268 296 222Q302 222 302 379V398Q293 508 276 563L70 607Q66 616 66 621Q66 623 78.0 661.5Q90 700 104.0 756.0Q118 812 122 852Q123 857 123.0 864.0Q123 871 123.5 875.5Q124 880 125.5 885.5Q127 891 130 895Q126 894 116 894H99Q76 894 66.5 905.0Q57 916 57 926V927Q57 954 100 962Q95 964 80.5 976.0Q66 988 66 991Q66 1000 89 1000Q106 1000 113.5 987.0Q121 974 134 974Q145 974 152.5 986.5Q160 999 173 999Q180 999 187.0 995.5Q194 992 194 989Q180 965 163 958L175 952Q186 947 195 946Q200 946 204.0 945.0Q208 944 211 944Q218 944 246.5 950.0Q275 956 287 956Q295 956 303.0 954.5Q311 953 316 953Q329 953 359.5 956.5Q390 960 410 960H415Q464 959 501.5 945.5Q539 932 599 932H665Q670 932 674 928Q677 928 681.5 924.0Q686 920 686 914Q684 912 683.0 910.0Q682 908 681.5 907.0Q681 906 680.0 905.0Q679 904 677.5 903.5Q676 903 673 902H672Q668 900 665 900H653Q652 896 646.5 885.5Q641 875 641.0 868.0Q641 861 673.0 750.5Q705 640 707 607ZM426 147Q426 386 435.5 474.0Q445 562 477 634Q445 651 435 661Q426 670 421.0 678.0Q416 686 411.0 697.0Q406 708 402 716V719Q385 732 385 762Q385 766 385.5 772.0Q386 778 386 781Q386 797 369.0 808.0Q352 819 334 822L317 825Q313 825 305.0 823.0Q297 821 293 821Q278 799 278 777Q278 756 287.5 742.5Q297 729 308.5 723.0Q320 717 329.5 704.5Q339 692 339 673Q339 658 334.5 649.0Q330 640 314 626L298 613Q329 499 335 434Q337 417 338 399V379Q338 324 337.5 297.5Q337 271 335.5 237.0Q334 203 330.5 189.0Q327 175 321 174H317Q304 174 288.0 183.5Q272 193 262.5 202.5Q253 212 253 213Q242 226 222.5 251.5Q203 277 189.0 293.0Q175 309 156 326Q99 379 66 379Q52 379 51 373Q47 353 47 333Q47 300 66 243Q81 196 89.5 177.5Q98 159 122 128Q141 101 141 77Q141 50 120 37Q180 37 182 38Q182 38 182.5 39.0Q183 40 183 41Q183 62 165.5 89.0Q148 116 126.0 164.0Q104 212 95 278V280Q95 288 100.5 293.0Q106 298 113 298Q124 298 135.0 276.0Q146 254 173.0 204.5Q200 155 240 108Q247 101 260.5 84.0Q274 67 281 60Q304 37 335 37Q370 37 392.0 58.0Q414 79 420.0 101.5Q426 124 426 147ZM322 803Q339 803 339 783Q339 777 333.5 773.0Q328 769 322 769Q300 769 300 783Q300 792 306.5 797.5Q313 803 322 803ZM325 851Q355 847 383.5 829.0Q412 811 412 781Q412 779 411.5 772.0Q411 765 411 762Q411 754 415.0 748.0Q419 742 420.5 741.0Q422 740 432 735Q453 768 453 788Q453 819 429.0 842.0Q405 865 368 865Q344 865 325 851ZM268 899Q256 899 233.0 896.0Q210 893 202 893H194H183Q184 890 184 886Q184 878 182.0 868.5Q180 859 177.0 850.0Q174 841 173 839Q137 651 137 651Q164 646 177.5 643.5Q191 641 213.0 638.0Q235 635 267 629Q308 652 308 673Q308 684 298.5 693.0Q289 702 277.5 708.0Q266 714 256.5 732.0Q247 750 247 777Q247 812 270.5 843.0Q294 874 328 888Q340 890 365 890Q382 890 414 888Q447 875 466.0 847.0Q485 819 485 788Q485 776 481.0 763.0Q477 750 473.0 742.5Q469 735 460.5 720.5Q452 706 449 702Q458 687 469.0 677.5Q480 668 496.5 657.0Q513 646 524 636Q545 635 557 635Q560 635 564.5 635.5Q569 636 588.0 636.5Q607 637 642 637Q614 762 588 857Q586 866 574.5 880.5Q563 895 562 902H537Q507 902 487 903Q484 903 480.0 903.5Q476 904 474 904Q470 904 464.5 903.5Q459 903 456 903Q455 903 434.0 902.0Q413 901 412 901Q397 901 367.0 898.0Q337 895 319 895Q309 895 297.0 897.0Q285 899 268 899ZM193 910Q232 910 245.0 913.5Q258 917 281 917Q288 917 297.0 915.5Q306 914 319 914Q335 914 363.0 917.0Q391 920 411 920Q412 920 415.0 920.5Q418 921 419 921Q430 921 446.5 922.0Q463 923 472 923Q474 923 480.0 922.5Q486 922 489 922Q493 922 507.0 921.5Q521 921 524 921Q519 923 502.5 926.5Q486 930 485 930Q455 939 413 940H410Q392 940 363.0 937.0Q334 934 316 934Q309 934 294.5 936.0Q280 938 274 938Q260 938 234.0 933.5Q208 929 199 929H193Q177 929 160.5 937.5Q144 946 133 946H131Q96 945 82 931V930Q81 929 81 927Q82 914 92 914Q93 914 96 914L99 913H116Q121 913 131.5 915.5Q142 918 149.0 918.0Q156 918 165.0 915.0Q174 912 193 910Z" fill="currentColor"/>
  </g>
</svg>