<svg xmlns="http://www.w3.org/2000/svg" viewBox="27.8 -1584.2 1597.3 1948.3">
	<path fill="currentColor" d="M1553 -1210Q1553 -1196 1534 -1177Q1515 -1158 1435 -1112V-953Q1436 -876 1407 -757Q1394 -704 1360 -699Q1246 -683 1057 -670Q1032 -655 1008 -557Q986 -465 986 -399Q986 -393 1006.5 -290.5Q1027 -188 1027 -182Q1027 -130 1009 -111Q963 -61 856 -7Q769 36 682 78Q715 81 852 81Q858 81 933.5 60.5Q1009 40 1015 40Q1027 40 1041 57Q1045 106 1059 134Q1065 146 1096 199Q1120 239 1120 246Q1120 263 1093 276Q1071 287 1060 287H1039Q1024 256 1036 233Q1030 218 1006 193Q978 163 958 163Q955 163 867 198Q772 236 731 245Q662 260 531 277Q418 292 401 292Q353 292 311 254.5Q269 217 269 169Q269 67 474 -91Q514 -122 718 -257Q715 -345 701 -416Q688 -484 654 -571Q611 -682 586 -682Q580 -682 551.5 -679.5Q523 -677 517 -677Q447 -677 377 -690Q291 -705 276 -730Q242 -787 238 -891Q235 -965 237 -1018Q238 -1054 241 -1080Q244 -1106 244 -1107Q216 -1122 162 -1153Q146 -1163 130 -1192Q116 -1217 100 -1220V-1507Q112 -1506 149 -1512Q174 -1416 257 -1349Q335 -1286 414 -1286Q394 -1286 487 -1299Q580 -1312 621 -1348Q673 -1400 725 -1452Q783 -1508 816 -1508Q851 -1508 894 -1460Q923 -1424 951 -1388Q990 -1344 1060 -1314Q1126 -1286 1180 -1286Q1285 -1286 1366 -1345Q1415 -1381 1469 -1454Q1512 -1512 1526 -1512H1553ZM1514 -1188L1509 -1195L1485 -1178L1490 -1171ZM1491 -1213H1368Q1383 -1167 1409 -1167Q1426 -1167 1454.5 -1183Q1483 -1199 1491 -1213ZM1527 -1235V-1487Q1509 -1478 1499 -1465Q1393 -1265 1182 -1265Q1089 -1265 1004 -1323Q961 -1352 886 -1429Q830 -1487 806 -1487Q787 -1487 739 -1429Q679 -1357 627 -1323Q539 -1265 419 -1265Q332 -1265 249 -1324Q157 -1388 130 -1487V-1235ZM1358 -1121Q1358 -1130 1343.5 -1143Q1329 -1156 1328 -1160Q1324 -1179 1315 -1212H873Q929 -1195 961 -1146Q991 -1102 991 -1049Q991 -1005 943 -929Q919 -891 919 -878Q919 -871 922 -856.5Q925 -842 925 -838Q969 -842 1020 -842Q1026 -842 1119 -826.5Q1212 -811 1218 -811Q1223 -811 1255 -814Q1287 -817 1300 -817Q1305 -880 1323 -1004Q1327 -1022 1343 -1071Q1358 -1115 1358 -1121ZM971 -1051Q971 -1108 928.5 -1150.5Q886 -1193 829 -1193Q755 -1193 703 -1097Q804 -1059 824 -1059Q830 -1059 844.5 -1066.5Q859 -1074 865 -1074Q880 -1074 886 -1061Q892 -1048 892 -1032Q892 -1018 885 -987.5Q878 -957 879 -942Q888 -930 896 -930Q914 -935 944 -990Q971 -1040 971 -1051ZM785 -1212H378Q382 -1181 331 -1114L373 -817Q485 -801 478 -801Q512 -801 601 -821Q686 -841 738 -838V-867Q709 -863 687.5 -881Q666 -899 666 -922Q666 -930 669 -937Q664 -940 625 -964Q625 -979 626 -983Q658 -1051 691 -1119Q731 -1200 785 -1212ZM1427 -1144Q1424 -1144 1419 -1143Q1414 -1142 1407 -1142Q1388 -1142 1353 -1177Q1356 -1172 1375 -1151Q1389 -1135 1389 -1129Q1389 -1124 1374 -1077Q1357 -1027 1354 -1010Q1344 -939 1317 -795Q1245 -786 1200 -786Q1195 -786 1147 -799Q1096 -813 1072 -815Q1000 -813 898 -816Q898 -878 891 -907Q852 -925 852 -948Q852 -953 861 -998Q868 -1034 861 -1048Q856 -1048 844 -1040.5Q832 -1033 826 -1033Q820 -1033 775 -1047Q722 -1063 694 -1069Q677 -1036 651 -978Q653 -977 682 -961Q698 -953 698 -935Q698 -924 692 -906Q718 -898 765 -880Q765 -847 755 -811Q740 -813 724 -813Q681 -813 593 -796.5Q505 -780 470 -780Q382 -780 348 -805Q346 -879 339 -923L310 -1116Q310 -1116 356 -1193Q305 -1142 292 -1142Q238 -1142 166 -1187L264 -1122V-877Q264 -760 331 -728Q370 -710 500 -710Q565 -709 606 -702Q729 -541 740 -270Q747 -273 965 -364Q955 -510 998 -617Q1030 -697 1056 -701Q1149 -705 1335 -720Q1349 -722 1367 -740.5Q1385 -759 1387 -772Q1397 -829 1409 -927Q1407 -997 1410 -1128Q1422 -1144 1427 -1144ZM331 -1212H182Q191 -1197 226 -1181Q258 -1167 277 -1167Q306 -1167 331 -1212ZM1007 -185Q1007 -166 969 -337Q765 -256 654 -191Q475 -86 347 69Q380 77 432 111Q480 143 481 143Q490 143 562 110Q653 69 743 27Q854 -25 933 -76Q953 -89 980 -128Q1007 -167 1007 -185ZM1094 243Q1036 175 1016 71H984Q978 71 941.5 86.5Q905 102 900 102H711Q660 102 478 169Q472 169 414.5 127.5Q357 86 331 86Q315 86 304 120Q295 146 295 166Q295 267 419 267Q520 267 670 229Q732 213 851 173Q956 138 960 138Q979 138 1021 172Q1066 210 1066 240Q1066 251 1059 260Q1078 260 1094 243ZM749 -1032Q749 -1023 746 -1016Q743 -1009 743 -1008Q735 -1011 715.5 -1016Q696 -1021 688 -1024Q688 -1054 713 -1054Q721 -1054 732 -1045Q747 -1033 749 -1032Z"/>
</svg>