<svg xmlns="http://www.w3.org/2000/svg" viewBox="0 -2048 2048 2048">
	<path fill="#000000" d="M1697 -970L1518 -1233Q1503 -1179 1479 -1067Q1476 -1047 1482 -1005Q1488 -957 1488 -958V-815Q1488 -780 1466 -731Q1444 -682 1429 -678Q1365 -661 1317 -661H1145Q1151 -661 1114 -654Q1016 -466 1016 -227Q1016 -154 1030 -99H1035Q1247 -367 1360 -367Q1411 -367 1439 -320Q1462 -282 1462 -227Q1462 -220 1438.5 -56.5Q1415 107 1415 114Q1415 163 1416 165Q1443 221 1522 243Q1586 257 1650 270Q1650 282 1647.5 295.5Q1645 309 1645 310Q1619 316 1564 316Q1557 316 1480 305.5Q1403 295 1396 295Q1390 295 1355.5 303Q1321 311 1315 311Q1303 311 1285.5 294Q1268 277 1268 266Q1268 259 1278.5 209.5Q1289 160 1289 153Q1289 147 1281 77Q1273 -4 1270 -36Q1195 85 1121 205Q1034 316 921 316Q812 316 748.5 256.5Q685 197 685 93L748 -414Q748 -605 660 -659Q634 -661 582 -666Q512 -672 442 -678Q396 -682 355 -709Q339 -719 325 -776Q312 -825 312 -853V-1025Q312 -1029 317.5 -1062.5Q323 -1096 324 -1114Q301 -1165 283 -1233L122 -1018H100V-1526H1697ZM1676 -1049V-1500H125V-1065L306 -1307H1495ZM1467 -1233Q1467 -1229 1450 -1280H350Q344 -1271 344 -1238Q344 -1207 363 -1186Q373 -1222 399 -1222Q407 -1222 412 -1220Q417 -1218 418 -1218V-1168Q411 -1155 403 -1131Q399 -1064 414 -966Q439 -804 439 -803Q472 -792 491 -792Q497 -792 551 -804Q612 -817 636 -821Q710 -832 790 -840V-874Q790 -881 751 -932Q705 -992 691 -1016Q675 -1044 675 -1088Q675 -1157 730.5 -1208Q786 -1259 856 -1259Q946 -1259 1009 -1160Q1020 -1126 1038 -1077Q1045 -1062 1072 -1032Q1095 -1005 1095 -999Q1095 -991 1072 -954Q1042 -905 1038 -897Q1013 -890 969 -874Q976 -845 974 -835Q1010 -839 1060 -839Q1067 -839 1202 -818Q1337 -797 1344 -797Q1366 -797 1378 -804Q1374 -834 1381 -904Q1385 -940 1398 -1022Q1410 -1098 1410 -1102Q1410 -1109 1394 -1130Q1378 -1151 1378 -1157Q1378 -1212 1404 -1212Q1420 -1212 1425 -1201Q1440 -1171 1444 -1165Q1446 -1174 1457 -1202Q1467 -1226 1467 -1233ZM995 -1129Q938 -1233 853 -1233Q799 -1233 752 -1193Q701 -1149 701 -1086Q701 -1056 702 -1051Q706 -1039 713 -1019Q720 -999 751.5 -958.5Q783 -918 795 -918Q802 -918 800.5 -920.5Q799 -923 806 -923Q812 -923 820 -915Q828 -907 837 -907Q864 -907 864 -944Q864 -951 848 -984.5Q832 -1018 832 -1025Q832 -1054 874 -1071Q874 -1073 871 -1078.5Q868 -1084 869 -1087Q913 -1101 995 -1129ZM1609 288Q1540 271 1472 253Q1386 222 1386 150Q1386 139 1388 127L1441 -230Q1424 -340 1354 -340Q1278 -340 1187 -237Q1035 -65 1019 -51Q995 -138 995 -235Q995 -470 1099 -680Q1130 -687 1200 -687Q1207 -687 1253.5 -684.5Q1300 -682 1305 -682Q1438 -682 1455 -762Q1474 -855 1465 -926Q1457 -987 1457 -1036Q1457 -1138 1492 -1217Q1485 -1193 1477 -1170Q1466 -1138 1444 -1138Q1419 -1138 1408 -1167Q1431 -1116 1431 -1099Q1431 -1054 1402 -858Q1402 -828 1402 -798Q1399 -771 1360 -771Q1301 -771 1197 -788Q1159 -801 1087 -816Q1036 -814 947 -817V-893Q994 -912 1018 -920Q1036 -948 1068 -999Q1041 -1024 1004 -1101Q946 -1082 900 -1074Q904 -1067 904 -1062Q904 -1053 885 -1047Q863 -1039 858 -1032Q861 -1015 876 -979Q890 -947 890 -941Q890 -926 874 -905Q855 -881 832 -881Q824 -881 821.5 -883Q819 -885 817 -885Q817 -848 807 -812Q724 -813 682 -805Q510 -771 493 -771Q471 -771 431 -781Q425 -781 418 -790Q375 -1055 375 -1107Q375 -1115 389 -1185Q379 -1160 357 -1159Q323 -1159 314 -1246V-1199Q313 -1192 329 -1163Q345 -1134 347 -1125Q351 -1108 345 -1053Q339 -988 339 -993V-811Q339 -783 356 -746Q371 -714 446 -706Q536 -699 655 -685Q722 -667 749 -578Q764 -530 774 -401L711 88Q721 290 929 290Q992 290 1009 277Q1115 196 1187 66Q1242 -46 1298 -157L1315 -152Q1312 -129 1302 -92Q1294 -59 1294 -53V268Q1300 270 1311 278Q1319 284 1326 284Q1331 284 1371 279Q1411 274 1417 274Q1460 274 1609 288ZM1016 -1040Q1009 -1035 948 -1023Q948 -1031 951 -1045Q954 -1059 954 -1064Q959 -1064 969.5 -1067Q980 -1070 987 -1070Q1001 -1070 1016 -1040Z"/>
</svg>