<svg xmlns="http://www.w3.org/2000/svg" viewBox="0 -2048 2048 2048">
	<path fill="#000000" d="M965 -961Q965 -921 895 -851Q849 -809 803 -766Q773 -738 724 -677Q696 -628 696 -560Q696 -553 720 -450Q744 -347 744 -340Q744 -334 725.5 -266.5Q707 -199 707 -192Q707 -187 723 -101Q742 -4 748 36Q757 139 776 344Q755 367 736 367Q729 367 725.5 359Q722 351 715 351Q728 351 679 353Q630 355 524 355Q532 341 530 314Q570 316 618 297Q680 273 680 227Q680 177 638 63Q595 -55 592 -92Q591 -99 585 -112H516Q490 -84 434 59Q383 190 348 306Q350 317 350 338Q325 367 301 367Q294 367 292.5 361Q291 355 284 355H100Q103 336 113 305Q148 303 219 285Q281 258 310 138Q326 92 350 -7Q347 -26 348 -61Q368 -150 427 -342Q481 -517 481 -520Q481 -523 458 -597Q439 -658 399 -715Q338 -775 277 -835Q164 -949 164 -974Q164 -1003 216 -1100Q278 -1215 280 -1222Q286 -1257 305 -1330Q318 -1369 339 -1369Q342 -1369 368 -1356Q341 -1302 341 -1283Q341 -1262 357 -1262Q366 -1262 371 -1267Q371 -1253 376 -1224Q384 -1241 420 -1252Q446 -1260 472 -1268Q500 -1281 527 -1322Q549 -1355 571 -1389Q594 -1427 617 -1465Q655 -1520 685 -1520Q691 -1520 717 -1507V-1187H398Q386 -1187 370 -1219Q360 -1213 348 -1199Q329 -1130 277 -991Q415 -853 441 -853H478L481 -857V-887Q461 -894 424 -919Q419 -935 425 -963Q421 -970 403 -973Q395 -997 395 -998Q395 -1024 461 -1115Q488 -1153 526 -1163Q552 -1170 567 -1170Q696 -1170 696 -1039Q696 -1004 683 -983Q657 -953 631 -910V-851Q634 -848 650 -848Q688 -848 770 -903Q852 -958 852 -982Q852 -1004 805.5 -1111.5Q759 -1219 734 -1253V-1272Q751 -1274 763 -1267Q766 -1270 766 -1286Q766 -1316 739 -1361Q751 -1380 769 -1380Q780 -1380 801 -1340Q821 -1304 823 -1292Q826 -1266 842 -1212Q965 -958 965 -961ZM805 -1268V-1282H796V-1268ZM691 -1215V-1492Q647 -1471 608 -1405Q552 -1311 535 -1292Q483 -1231 400 -1215ZM669 -1047Q669 -1086 636 -1114.5Q603 -1143 564 -1143Q516 -1143 470 -1075Q572 -1041 567 -1041Q574 -1041 582 -1046.5Q590 -1052 597 -1052Q632 -1052 632 -1022Q632 -1016 615.5 -984Q599 -952 599 -947Q599 -934 619 -934Q669 -1034 669 -1047ZM943 -966Q943 -971 871.5 -1099.5Q800 -1228 797 -1256L782 -1243L879 -969Q755 -826 645 -826Q611 -826 604 -830Q604 -884 602 -909Q572 -934 572 -942Q572 -948 584 -984Q596 -1020 598 -1030Q595 -1024 590.5 -1016.5Q586 -1009 578 -1009Q579 -1009 450 -1052Q439 -1032 422 -994Q442 -994 460 -983Q460 -971 457.5 -951Q455 -931 455 -924Q473 -919 508 -909V-835L504 -831Q495 -831 479 -828.5Q463 -826 457 -826Q428 -826 343 -896Q294 -938 244 -980Q290 -1077 326 -1215Q332 -1223 341 -1232Q326 -1242 311 -1272Q311 -1244 318 -1216Q281 -1159 245 -1102Q196 -1023 196 -982Q196 -946 295 -853Q408 -747 415 -736Q491 -612 504 -515L669 -537Q663 -648 702 -709Q764 -767 825 -824Q943 -937 943 -966ZM718 -340L674 -509H640Q635 -509 499 -485Q469 -392 418 -206Q415 -184 406 -140H690Q682 -156 682 -179Q682 -209 697 -262Q716 -329 718 -340ZM754 328Q743 218 731 108Q717 -22 695 -111H616V-93Q616 -98 658.5 33Q701 164 701 224Q701 275 678 296Q655 317 583 332Q611 332 670.5 330Q730 328 754 328ZM481 -111H396Q381 -89 375 -66Q377 -52 377 -29Q359 41 327 170Q310 242 263 285.5Q216 329 158 329Q145 329 132 327Q292 327 324 329Q334 241 385 114Q433 2 481 -111ZM502 -988Q473 -996 469 -997Q454 -1004 449 -1018Q452 -1021 461 -1027Q470 -1033 473 -1036Q497 -1024 502 -1012Z"/>
</svg>