<svg xmlns="http://www.w3.org/2000/svg" viewBox="0 0 613 1000">
  <g transform="scale(1,-1) translate(0,-1000)">
    <path d="M353 851Q390 840 411.0 810.0Q432 780 432 747Q432 737 430.0 728.0Q428 719 423.5 709.0Q419 699 415.5 693.0Q412 687 405.0 675.5Q398 664 396 661Q411 635 432.0 618.0Q453 601 467 601H469L559 647Q557 676 549.5 726.5Q542 777 541 787Q532 814 524 818Q517 821 507.0 830.5Q497 840 497 847Q497 848 498 850Q500 853 503 853Q510 853 531 848Q538 852 541.0 858.0Q544 864 544.5 874.0Q545 884 547 889ZM40 918Q40 924 44.5 928.5Q49 933 55 933H99V985Q99 990 109.0 995.0Q119 1000 126.0 1000.0Q133 1000 143.0 995.0Q153 990 153 985V933Q156 933 175.5 933.5Q195 934 208 934Q186 942 186 965Q186 980 196.0 990.0Q206 1000 221 1000Q235 1000 245.5 990.0Q256 980 256 966Q256 942 235 934H294V985Q294 990 304.0 995.0Q314 1000 321.0 1000.0Q328 1000 337.5 995.0Q347 990 347 985V934H408Q388 942 388 965Q388 980 398.5 990.0Q409 1000 424 1000Q438 1000 448.0 990.0Q458 980 458 966Q458 944 439 934Q454 934 473.0 934.5Q492 935 495 935V985Q495 990 504.5 995.0Q514 1000 521.0 1000.0Q528 1000 537.0 995.5Q546 991 546 985V935H588Q594 935 598.5 930.5Q603 926 603 920Q603 909 593 906L562 895Q571 894 571 881Q571 874 567.5 858.5Q564 843 564 837Q564 832 565 830Q564 822 566 807Q613 716 613 672Q613 655 608 627Q607 618 602.0 614.0Q597 610 581 601L427 532Q422 496 422 457Q422 449 421.0 434.0Q420 419 420 409Q420 398 418 370L427 244V232Q434 177 434 144V134L433 73Q431 55 431 43V35Q431 12 425.5 6.5Q420 1 406 1Q376 1 349.0 1.5Q322 2 321 2Q313 2 312 1Q309 4 305.0 6.5Q301 9 298.5 11.5Q296 14 296 19Q296 38 381 58L368 213H273Q272 200 269.5 180.0Q267 160 264.5 145.5Q262 131 262 129L263 128L243 73V69Q243 64 242.0 55.0Q241 46 241 43V35Q241 12 234.5 6.0Q228 0 203 0Q197 0 176.0 0.5Q155 1 139 1H133Q122 1 115.5 5.0Q109 9 107.5 12.5Q106 16 106 19Q106 23 112.0 28.0Q118 33 120 35Q149 48 191 58L213 240H214L233 364Q213 384 213 396Q213 403 223.0 408.5Q233 414 240 415Q244 449 244 460Q244 470 243.5 476.5Q243 483 241.0 489.5Q239 496 238.0 499.5Q237 503 232.5 512.5Q228 522 225 528Q185 536 153.0 544.5Q121 553 100.5 559.5Q80 566 65.5 572.0Q51 578 43.0 582.5Q35 587 30.5 590.5Q26 594 24.0 597.0Q22 600 21 600Q0 615 0 644Q0 677 33.5 746.0Q67 815 67 831V836Q70 842 70 854V864Q70 891 83 892L50 904Q40 907 40 918ZM503 905 144 903 290 879H341ZM58 631Q149 597 212 593Q212 593 213.0 593.5Q214 594 215 594Q218 597 224.0 602.0Q230 607 233.0 609.5Q236 612 239.5 616.0Q243 620 244.5 623.5Q246 627 246 631Q246 643 237.5 652.0Q229 661 219.0 667.0Q209 673 200.5 691.0Q192 709 192 737Q192 774 217.5 806.0Q243 838 279 851L95 889Q96 888 98.5 882.0Q101 876 104.0 866.5Q107 857 107 850V845Q104 831 110 830Q120 832 125.0 838.5Q130 845 133 845Q134 845 136 844Q141 842 139 838Q137 831 113 807Q76 768 58 631ZM271 811Q301 807 330.0 789.0Q359 771 359 740Q359 738 358.5 731.0Q358 724 358 721Q358 713 362.0 707.0Q366 701 367.5 700.0Q369 699 379 694Q401 729 401 747Q401 778 376.5 801.5Q352 825 314 825Q290 825 271 811ZM268 763Q275 763 280.0 756.5Q285 750 285 742Q285 736 279.5 732.0Q274 728 268 728Q245 728 245 742Q245 763 268 763ZM387 358 265 372 253 242H391ZM245 576Q284 509 284 466V460Q284 452 279 400L378 389Q378 399 380.0 424.0Q382 449 382 457Q382 494 384.0 517.5Q386 541 391.0 552.5Q396 564 399.5 568.5Q403 573 411.0 576.5Q419 580 422 583L425 590Q391 608 380 619Q368 631 360.0 649.0Q352 667 348 674V678Q331 690 331 721Q331 725 331.5 731.0Q332 737 332 740Q332 756 315.0 767.0Q298 778 280 781L263 784Q259 784 250.5 782.5Q242 781 238 781Q224 759 224 737Q224 705 251.5 683.5Q279 662 279 631Q279 625 278.0 620.0Q277 615 274.5 610.0Q272 605 270.5 602.0Q269 599 264.5 594.5Q260 590 259.0 588.5Q258 587 252.0 582.0Q246 577 245 576ZM423 982Q406 982 406.0 965.0Q406 948 423.0 948.0Q440 948 440 966Q440 973 435.0 977.5Q430 982 423 982ZM203 965Q203 948 221 948Q238 948 238 966Q238 973 233.0 978.0Q228 983 221.0 983.0Q214 983 208.5 977.5Q203 972 203 965Z" fill="currentColor"/>
  </g>
</svg>