<svg xmlns="http://www.w3.org/2000/svg" viewBox="0 0 928 1000">
  <g transform="scale(1,-1) translate(0,-1000)">
    <path d="M701 517Q640 454 619 423Q642 420 689 417Q689 452 701 517ZM727 641 683 563Q694 578 711.5 602.0Q729 626 736 636Q735 636 732.0 638.0Q729 640 727 641ZM590 458 701 657Q697 660 691 664Q681 673 675.0 681.5Q669 690 664.0 702.0Q659 714 654 721Q635 733 635 770Q635 774 635.5 779.5Q636 785 636 788Q636 804 616.5 816.0Q597 828 578 832L558 835Q557 835 532 830Q516 811 516 785Q516 773 519 761Q521 750 552.0 727.0Q583 704 583 676Q583 661 578.0 651.5Q573 642 556.0 628.5Q539 615 538 614Q569 509 590 458ZM519 404Q519 416 527.0 427.0Q535 438 549 438Q531 519 517 545Q497 538 457.0 522.5Q417 507 389.5 498.0Q362 489 346 488Q250 484 239 484Q181 484 158 490Q158 490 134 487L135 264Q135 247 118 247Q100 247 100 264V274Q91 291 69.0 314.0Q47 337 32.5 359.5Q18 382 18 408Q18 436 29.5 459.0Q41 482 61.0 505.5Q81 529 89 544Q81 560 61.5 583.5Q42 607 29.5 630.5Q17 654 17 683Q17 718 55.0 762.5Q93 807 98 817L99 827Q99 844 116.0 844.0Q133 844 133 827L132 553Q158 542 158 542H334L498 602L502 623Q503 633 525.5 649.5Q548 666 548 676Q548 688 537.5 697.0Q527 706 514.5 712.5Q502 719 491.5 737.5Q481 756 481 785Q481 849 551 892Q541 899 537.5 907.5Q534 916 534.0 923.0Q534 930 533 932Q524 927 516 927Q505 927 496.5 936.0Q488 945 488 958Q488 975 501.5 987.5Q515 1000 531 1000Q555 1000 582.5 964.0Q610 928 612 910H615Q630 910 637 909Q639 928 666.5 964.0Q694 1000 718 1000Q734 1000 747.5 987.5Q761 975 761 958Q761 945 752.5 936.0Q744 927 733 927Q725 927 716 932Q715 931 715.0 922.0Q715 913 710.5 904.0Q706 895 694 889Q747 856 747 797Q747 785 742.0 771.0Q737 757 733.5 750.0Q730 743 719.0 726.0Q708 709 707 707Q709 704 722 693L791 816L785 820L828 850L821 798L817 801L746 674Q748 673 750.5 671.0Q753 669 759 667Q785 703 805.5 731.5Q826 760 835.0 772.5Q844 785 846 788L843 791L886 818L873 767L870 770Q853 747 782 648V647Q879 750 890 760L885 765L928 788L920 735L913 741Q888 715 848.5 673.5Q809 632 797 619Q797 618 799 616Q808 600 829.0 566.5Q850 533 866.5 501.5Q883 470 893 435Q894 422 894 408Q894 372 883 372H859Q831 372 786.0 374.5Q741 377 730 377V361Q730 335 732.0 286.0Q734 237 734 200Q734 193 733.5 176.5Q733 160 733 150Q747 130 747 94Q747 41 722 8Q722 2 704 2H690Q675 2 675 23Q675 32 679.0 55.0Q683 78 683 88Q683 117 660.0 117.0Q637 117 599 96Q582 90 531.0 69.5Q480 49 430.5 32.0Q381 15 325 2Q324 2 318.5 3.0Q313 4 309.5 5.5Q306 7 301.0 11.5Q296 16 292.0 25.5Q288 35 285 49V76Q285 88 319.5 121.5Q354 155 408 193Q395 204 367.0 225.0Q339 246 331 252Q318 230 298.0 179.0Q278 128 263.5 88.5Q249 49 249 47Q249 44 249.5 38.0Q250 32 250 29Q250 10 233.5 5.0Q217 0 164 0H22Q0 2 0 25Q0 40 15.5 47.5Q31 55 52.0 56.5Q73 58 100.5 64.5Q128 71 146 83Q159 91 164.5 99.5Q170 108 175 128Q181 148 182 151Q188 170 203.5 252.0Q219 334 251 382Q266 405 296 405Q306 405 318.0 402.5Q330 400 340.0 396.0Q350 392 358.0 388.5Q366 385 371 382L376 380Q538 275 538.0 275.0Q538 275 548 280Q548 306 551.0 328.0Q554 350 554 361Q541 361 530.0 375.0Q519 389 519 404ZM100 334 98 495Q95 491 87.5 481.5Q80 472 76.5 468.0Q73 464 67.5 455.5Q62 447 59.5 440.5Q57 434 55.0 425.5Q53 417 53 408Q53 402 55.0 395.0Q57 388 59.5 383.0Q62 378 68.0 370.5Q74 363 77.5 359.0Q81 355 89.0 346.5Q97 338 100 334ZM591 910Q591 910 585.5 917.0Q580 924 573.0 933.5Q566 943 557.5 952.5Q549 962 542.0 968.5Q535 975 531 975Q526 975 520.5 969.5Q515 964 515 958Q515 954 516 953Q529 959 533 959Q543 959 549.5 952.5Q556 946 558.0 938.0Q560 930 562 922L563 915Q569 909 580 909Q581 909 585.0 909.5Q589 910 591 910ZM716 959Q721 959 733 953Q734 954 734 958Q734 964 729.0 969.5Q724 975 719 975Q715 975 708.0 968.5Q701 962 692.5 952.5Q684 943 677.0 933.5Q670 924 664 917L659 910Q661 910 664.5 909.5Q668 909 669 909Q680 909 684.5 913.5Q689 918 688.5 924.0Q688 930 691.0 938.5Q694 947 701 953Q709 959 716 959ZM594 367Q594 350 592.0 334.0Q590 318 590 298Q605 303 636.5 319.5Q668 336 687 343Q687 352 687.5 362.5Q688 373 688 378Q654 380 643 382Q624 382 620 379Q605 372 594 367ZM731 415Q731 415 739.0 415.0Q747 415 759.5 414.5Q772 414 786.0 414.0Q800 414 814.0 414.0Q828 414 837 414H852Q852 430 846 446Q829 478 796.5 516.0Q764 554 754 567Q735 508 731 415ZM567 863Q601 858 633.5 839.0Q666 820 666 788Q666 785 665.5 778.5Q665 772 665 770Q665 763 666.0 758.5Q667 754 672.0 750.5Q677 747 678.5 746.5Q680 746 688 742Q712 780 712 797Q712 829 684.5 853.5Q657 878 615 878Q590 878 567 863ZM564 812Q583 812 583 791Q583 785 577.0 781.0Q571 777 564 777Q539 777 539 791Q539 800 546.5 806.0Q554 812 564 812ZM579 142Q602 151 622.0 161.0Q642 171 665.0 184.0Q688 197 689 198Q689 208 689.5 220.0Q690 232 690 234Q690 243 689.0 255.0Q688 267 688 292Q429 163 330 70Q326 66 326 59Q326 48 334 48Q352 48 579 142ZM296 367Q288 367 285 362Q263 329 255.5 302.5Q248 276 240.0 226.0Q232 176 214 119Q203 75 170 53Q166 50 110 30Q115 30 135.0 31.0Q155 32 162 32Q170 32 183.0 30.5Q196 29 201 29Q208 29 210 30Q210 34 209.5 38.5Q209 43 209 46Q209 58 240.0 139.5Q271 221 291 260Q297 273 300.5 278.5Q304 284 311.5 290.5Q319 297 327 297Q345 297 405 238Q410 234 419.0 225.0Q428 216 433 211Q436 211 502 255L344 353Q311 367 296 367ZM98 757Q95 753 87.0 744.5Q79 736 75.5 732.0Q72 728 66.0 720.5Q60 713 57.5 708.0Q55 703 53.0 696.0Q51 689 51 683Q51 672 53.0 663.0Q55 654 61.0 644.0Q67 634 70.5 628.5Q74 623 84.0 611.5Q94 600 97 596Z" fill="currentColor"/>
  </g>
</svg>