<svg xmlns="http://www.w3.org/2000/svg" viewBox="24.2 -1604.8 1586.6 2046.6">
	<path fill="currentColor" d="M1535 328Q1535 366 1505 366Q1487 366 1471 350Q1474 350 1457 366H1216Q1216 326 1210 308Q1247 308 1315 292Q1410 268 1410 233Q1410 169 1365 -15Q1349 -45 1320 -107Q1310 -134 1297 -225Q1283 -230 1245 -230Q1224 -230 1198 -228Q1123 -112 1073 36Q1053 93 1005 277Q1003 304 1001 330Q995 366 963 366Q957 366 949 360.5Q941 355 934 355Q934 355 921 365Q910 366 858 366Q809 366 658 355Q658 354 660.5 342Q663 330 663 324Q705 310 779 292Q892 278 932 152Q957 46 981 -60Q979 -55 977 -100L1145 -693Q1139 -755 1071 -961Q863 -831 812 -831Q802 -831 772 -844Q738 -859 730 -870Q680 -940 575 -1086Q557 -1111 498 -1150Q452 -1181 448 -1212Q448 -1238 434 -1287Q421 -1293 399 -1309Q395 -1331 403 -1347Q310 -1378 300 -1378Q292 -1378 285 -1369Q287 -1354 287 -1342Q287 -1309 263 -1300Q235 -1294 206 -1289Q189 -1278 192 -1259Q197 -1233 195 -1228Q187 -1207 154 -1195Q148 -1171 148 -1177Q148 -1172 161.5 -1149Q175 -1126 175 -1118Q175 -1111 132 -1039Q147 -1020 170 -980L137 -904Q138 -900 148.5 -879Q159 -858 159 -850Q159 -843 143 -813.5Q127 -784 127 -777Q127 -771 146 -739.5Q165 -708 165 -701Q165 -694 146 -646.5Q127 -599 127 -592Q127 -585 146 -539Q165 -493 165 -487Q165 -480 148.5 -451.5Q132 -423 132 -416Q132 -411 153.5 -371Q175 -331 175 -324Q175 -318 153.5 -282.5Q132 -247 132 -240Q132 -233 153.5 -194Q175 -155 175 -148Q175 -142 156 -100.5Q137 -59 137 -54Q137 -47 156 3Q175 53 175 60Q175 68 157 93Q131 130 127 136Q170 179 170 298Q170 336 164 360H144Q146 269 141 239Q138 221 121.5 183Q105 145 105 139Q105 132 126.5 98Q148 64 148 57Q148 50 129 4.5Q110 -41 110 -48Q110 -55 132 -99.5Q154 -144 154 -151Q154 -157 129.5 -194Q105 -231 105 -238Q105 -245 124 -281Q143 -317 143 -324Q143 -330 126.5 -369.5Q110 -409 110 -416Q110 -422 123.5 -453.5Q137 -485 137 -490Q137 -497 118.5 -540Q100 -583 100 -590Q100 -596 118.5 -644.5Q137 -693 137 -698Q137 -705 118.5 -736Q100 -767 100 -774Q100 -780 116 -808.5Q132 -837 132 -844Q132 -850 121 -869.5Q110 -889 110 -898Q110 -905 126.5 -937.5Q143 -970 143 -977Q143 -984 124 -1011Q105 -1038 105 -1045Q105 -1052 126.5 -1081.5Q148 -1111 148 -1118Q148 -1123 134.5 -1146Q121 -1169 121 -1177Q121 -1203 145.5 -1218Q170 -1233 171 -1239Q165 -1255 170 -1278Q176 -1305 194 -1311Q219 -1319 248 -1319Q260 -1325 260 -1351Q259 -1399 258 -1385Q283 -1405 295 -1405Q302 -1405 340 -1391.5Q378 -1378 385 -1378H410Q411 -1379 416 -1398Q505 -1459 565 -1459Q628 -1459 655 -1423Q673 -1399 676 -1399Q683 -1399 683 -1402Q683 -1405 690 -1405Q705 -1405 733 -1345Q750 -1309 766 -1274Q788 -1247 958 -1074Q1064 -1146 1147 -1139L1151 -1143V-1180Q1120 -1187 1069 -1222Q1079 -1258 1091 -1277Q1076 -1292 1042 -1303V-1331Q1042 -1345 1080 -1414Q1122 -1489 1146 -1505Q1183 -1529 1256 -1529Q1328 -1529 1373 -1490Q1421 -1448 1421 -1375Q1421 -1325 1388 -1260Q1342 -1167 1334 -1143Q1440 -1112 1440 -988Q1440 -959 1433 -901Q1427 -849 1428 -828Q1430 -800 1452.5 -686Q1475 -572 1475 -568Q1475 -561 1453.5 -458.5Q1432 -356 1432 -349Q1432 -257 1462 -157Q1508 -3 1508 0V212Q1508 218 1521.5 270Q1535 322 1535 328ZM1394 -1380Q1394 -1439 1356 -1473.5Q1318 -1508 1259 -1508Q1149 -1508 1113 -1417L1264 -1378Q1317 -1399 1310 -1399Q1345 -1399 1345 -1372Q1345 -1366 1329 -1322.5Q1313 -1279 1313 -1272Q1313 -1264 1316 -1257Q1319 -1250 1319 -1248H1349Q1394 -1281 1394 -1380ZM1416 -993Q1416 -1064 1361.5 -1101Q1307 -1138 1307 -1142Q1307 -1153 1340 -1219Q1321 -1224 1306 -1242Q1291 -1260 1291 -1272Q1291 -1276 1301 -1314.5Q1311 -1353 1311 -1372Q1307 -1370 1282 -1345L1103 -1399Q1090 -1370 1064 -1320Q1085 -1312 1123 -1288Q1110 -1269 1102 -1222Q1129 -1217 1178 -1201V-1116L1174 -1112Q1169 -1112 1161.5 -1115Q1154 -1118 1148 -1118Q1065 -1118 936.5 -1031Q808 -944 806 -944Q592 -1126 592 -1145Q592 -1160 603 -1182Q558 -1167 546 -1167Q539 -1167 527 -1168.5Q515 -1170 511 -1170Q555 -1157 580 -1119Q684 -959 761 -882Q780 -863 820 -863Q890 -863 1082 -999Q1104 -957 1133 -861Q1163 -760 1168 -701L1415 -767Q1405 -797 1405 -838Q1405 -864 1410.5 -916.5Q1416 -969 1416 -993ZM934 -1066Q872 -1123 811 -1181Q737 -1254 730 -1297Q729 -1253 693 -1228Q717 -1228 723 -1225Q758 -1173 792 -1120Q836 -1058 877 -1020Q917 -1049 934 -1066ZM699 -1307Q685 -1279 669 -1255Q672 -1255 679 -1257Q686 -1259 689 -1259Q699 -1279 699 -1307ZM668 -1337Q668 -1378 636.5 -1405Q605 -1432 555 -1432Q514 -1432 480 -1401Q446 -1370 446 -1329Q446 -1317 464 -1281Q483 -1241 501 -1223Q514 -1210 555 -1210Q601 -1210 634.5 -1247.5Q668 -1285 668 -1337ZM847 -1007Q800 -1073 710 -1197Q663 -1203 638 -1215Q620 -1178 620 -1153Q620 -1132 812 -972Q827 -984 847 -1007ZM1448 -563Q1448 -543 1409 -738Q1325 -718 1169 -673Q1089 -463 1053 -255H1415Q1405 -355 1412 -400Q1418 -436 1435 -489Q1448 -528 1448 -563ZM1507 333Q1506 314 1496 275.5Q1486 237 1486 234V43Q1486 55 1415 -229H1324V-200Q1324 -170 1351 -112Q1386 -37 1397 1Q1432 124 1432 228Q1432 291 1347 312Q1292 322 1237 332L1429 339Q1435 339 1449.5 328.5Q1464 318 1467 317Q1483 333 1489 333ZM1161 -229H1048Q1032 -191 1005 -114Q1009 -91 1008 -54Q979 58 950 169Q902 298 784 314Q759 323 712 338H909Q916 339 921.5 331Q927 323 934 323Q942 323 946 329Q952 339 952 339H976Q976 280 978 272Q1063 -48 1161 -229ZM1215 -1287Q1199 -1295 1164 -1311.5Q1129 -1328 1113 -1336Q1113 -1353 1142 -1367Q1167 -1347 1215 -1287Z"/>
</svg>