<svg xmlns="http://www.w3.org/2000/svg" viewBox="0 -2048 2048 2048">
	<path fill="#000000" d="M1550 -1078Q1550 -1029 1428 -961Q1346 -916 1264 -870Q1260 -866 1223 -787Q1200 -737 1200 -712Q1200 -700 1193 -684Q1186 -668 1186 -666Q1186 -665 1190 -644Q1191 -632 1195 -609Q1199 -593 1221 -549Q1240 -512 1240 -487Q1240 -448 1220.5 -415Q1201 -382 1201 -344Q1201 -320 1215 -277Q1229 -234 1230 -213Q1230 -186 1234 -133Q1236 -119 1250 -81Q1307 74 1307 132Q1307 157 1299 207Q1291 257 1291 282Q1291 296 1301.5 321.5Q1312 347 1312 353Q1312 398 1241 398Q1233 398 1213 380Q1210 381 1202 386.5Q1194 392 1189 392H988V337Q1041 330 1093 324Q1155 312 1181 273Q1186 265 1186 230Q1186 223 1189.5 209.5Q1193 196 1193 189Q1193 118 1113 -65Q1103 -99 1073 -165H1010Q975 -120 930 -33Q928 2 916 70Q909 92 856 201Q818 279 818 338Q818 392 768 392Q762 392 751 384.5Q740 377 736 377Q735 377 725.5 384.5Q716 392 710 392H499Q507 356 507 337Q566 330 624 324Q693 311 723 267Q729 259 748 206Q764 170 791 95Q798 42 814 -64Q833 -121 870 -236Q882 -306 911 -444Q915 -458 967 -590Q956 -673 919 -837Q910 -813 888 -765Q840 -678 830 -663Q792 -607 747 -585Q711 -579 655 -570Q647 -569 618 -560Q595 -553 581 -553H491Q455 -553 425 -534Q390 -511 370 -508Q317 -499 303 -499Q288 -499 263 -501Q234 -503 224 -503Q211 -511 201 -540Q208 -547 271.5 -549Q335 -551 369 -576Q364 -586 334 -592Q314 -595 293 -598V-637Q301 -636 316 -636Q324 -636 340 -637Q355 -637 363 -637Q359 -637 434 -622Q516 -656 690 -682Q716 -752 776 -888Q786 -909 819 -947Q852 -985 869 -993Q902 -1009 990 -1010Q988 -1019 988 -1062Q963 -1067 939 -1072Q907 -1082 907 -1104Q907 -1101 921 -1145Q906 -1149 891.5 -1155Q877 -1161 877 -1179Q877 -1183 897 -1221Q913 -1262 928 -1304Q943 -1340 993 -1371Q925 -1357 926 -1357Q843 -1357 831 -1421Q827 -1423 819 -1423Q791 -1423 787 -1413Q787 -1413 787 -1380Q787 -1357 766 -1357Q732 -1357 735 -1437Q689 -1444 675 -1444Q663 -1444 643 -1423.5Q623 -1403 620 -1391Q616 -1371 610.5 -1351.5Q605 -1332 586.5 -1323.5Q568 -1315 477 -1315Q464 -1315 439 -1288V-1212Q439 -1209 440.5 -1203.5Q442 -1198 442 -1195Q442 -1171 364 -1139.5Q286 -1108 286 -1068Q286 -1058 293.5 -1038.5Q301 -1019 301 -1009Q301 -984 274.5 -944.5Q248 -905 225 -898Q216 -896 200 -890Q186 -881 186 -845Q186 -838 204 -795.5Q222 -753 222 -744Q222 -699 172.5 -640.5Q123 -582 123 -564Q123 -539 142 -491Q171 -418 171 -417L150 -406Q148 -415 121 -483Q100 -539 100 -554Q100 -582 109 -596Q123 -611 137 -627Q199 -707 199 -744Q199 -751 181 -792.5Q163 -834 163 -843Q163 -835 177 -903Q181 -908 193 -912Q223 -923 250.5 -951.5Q278 -980 278 -1009Q278 -1019 270.5 -1038.5Q263 -1058 263 -1068Q263 -1120 360 -1164Q377 -1167 394.5 -1171Q412 -1175 418 -1194Q411 -1246 411 -1262Q411 -1322 462 -1336Q478 -1341 560 -1341Q588 -1341 597 -1396Q599 -1409 618.5 -1432Q638 -1455 651 -1462Q660 -1467 679 -1467Q684 -1467 735 -1459Q735 -1459 735 -1498Q735 -1546 765 -1546Q774 -1546 787 -1529Q788 -1516 789 -1480Q798 -1472 815 -1472Q815 -1472 826 -1473Q847 -1511 862 -1519Q869 -1524 918 -1534L1252 -1482Q1255 -1483 1270 -1500H1292V-1497Q1310 -1512 1341 -1512Q1378 -1512 1395 -1472Q1430 -1486 1468 -1527H1498V-1365Q1491 -1357 1478 -1357Q1470 -1357 1442 -1384.5Q1414 -1412 1398 -1416Q1387 -1399 1387 -1390Q1387 -1357 1418 -1312Q1443 -1276 1469 -1241Q1550 -1113 1550 -1078ZM1472 -1390V-1496Q1444 -1469 1400 -1449V-1440Q1419 -1436 1472 -1390ZM1255 -1431V-1460L915 -1508Q863 -1508 858 -1474Q851 -1427 851 -1439Q851 -1383 920 -1383H924ZM1409 -1089Q1366 -1161 1350 -1201Q1338 -1253 1303 -1351Q1280 -1369 1256 -1413Q1244 -1408 1106 -1388Q1231 -1358 1231 -1259Q1231 -1188 1184 -1141Q1137 -1094 1137 -1045Q1137 -1040 1145 -1017Q1171 -1017 1224 -1022Q1247 -1027 1409 -1089ZM1205 -1265Q1205 -1319 1160 -1341Q1104 -1369 1084 -1369Q991 -1369 942 -1283L1091 -1232Q1098 -1260 1130 -1260Q1155 -1260 1155 -1227Q1155 -1206 1131 -1176Q1107 -1146 1107 -1132Q1107 -1118 1123 -1118Q1131 -1118 1156 -1144Q1191 -1180 1198 -1198Q1205 -1216 1205 -1265ZM830 -1452Q818 -1450 817 -1450H813Q807 -1450 789 -1454V-1443Q806 -1449 811 -1449Q819 -1449 829 -1446ZM1527 -1078Q1527 -1090 1489 -1160Q1455 -1222 1439 -1245Q1415 -1277 1392 -1310Q1361 -1354 1361 -1379Q1361 -1382 1368.5 -1407Q1376 -1432 1376 -1453Q1376 -1487 1348 -1487Q1311 -1487 1302 -1473Q1296 -1464 1296 -1424L1287 -1413L1277 -1428Q1279 -1404 1295 -1392Q1317 -1373 1322 -1365Q1330 -1351 1338 -1319Q1369 -1190 1441 -1080Q1416 -1067 1327 -1033Q1235 -999 1214 -996Q1173 -991 1144 -991Q1131 -991 1126 -996Q1114 -1009 1114 -1045Q1114 -1060 1122 -1095Q1113 -1094 1098.5 -1107Q1084 -1120 1084 -1129Q1084 -1153 1108 -1184Q1132 -1215 1132 -1227Q1132 -1233 1130 -1236Q1120 -1225 1103 -1206L937 -1256Q934 -1248 900 -1180Q899 -1173 916 -1170Q938 -1166 939 -1165Q943 -1161 949 -1153Q930 -1108 930 -1105Q930 -1099 967 -1089Q1013 -1077 1014 -1077V-993Q1000 -982 945.5 -981Q891 -980 879 -972Q812 -927 762.5 -798Q713 -669 704 -663Q678 -647 623 -641Q539 -632 537 -632Q503 -619 434 -598Q359 -614 358 -614Q356 -614 342 -612Q354 -610 377 -604Q394 -582 394 -572Q394 -565 370.5 -550Q347 -535 337.5 -533Q328 -531 285 -525Q337 -522 336 -522Q361 -522 395.5 -546Q430 -570 442 -572Q501 -574 619 -587Q673 -594 744 -610Q779 -628 807 -671Q829 -710 851 -748Q858 -757 870 -777Q883 -810 915 -875L929 -872Q970 -747 987 -606L1166 -665Q1168 -689 1176 -735Q1202 -831 1240 -878Q1256 -898 1400 -973Q1527 -1039 1527 -1078ZM1214 -482Q1214 -512 1193 -560Q1170 -615 1166 -638Q1090 -616 986 -581Q967 -535 933 -440Q920 -355 876 -189H1209Q1207 -199 1189 -268Q1175 -320 1175 -345Q1175 -376 1194.5 -416Q1214 -456 1214 -482ZM1289 353Q1289 340 1278.5 316Q1268 292 1268 279Q1268 257 1274 214Q1280 171 1280 149Q1280 104 1276 80Q1267 61 1254 23Q1240 -23 1226 -69Q1208 -126 1210 -163H1102Q1113 -141 1128 -95Q1132 -73 1156 -23Q1184 33 1190 54Q1216 138 1216 188Q1216 281 1180 313Q1150 339 1054 348Q1041 349 1014 354V366H1192Q1194 366 1200.5 361.5Q1207 357 1212 357Q1218 357 1229.5 364.5Q1241 372 1255 372Q1289 372 1289 353ZM982 -166H865Q847 -120 837 -39Q825 58 817 90Q810 118 780 193Q748 273 735 290Q715 317 692 326Q614 355 529 356L527 366H713Q732 351 736 351Q745 351 769 369Q788 367 792 359Q794 332 799 289Q812 228 835 198Q840 192 849 179Q854 170 876 115Q895 67 902 7Q909 -53 928 -87Q955 -127 982 -166ZM1012 -1183H991Q992 -1183 928 -1209Q952 -1233 965 -1233Q988 -1233 1012 -1183Z"/>
</svg>