<svg xmlns="http://www.w3.org/2000/svg" viewBox="0 -2048 2048 2048">
	<path fill="currentColor" d="M1629 302Q1622 313 1614.5 324Q1607 335 1591 338L1255 284L649 338Q591 338 530 297Q461 250 461 185Q461 105 595 15Q693 -50 846 -111Q974 -161 992 -160Q1028 -258 1028 -423Q1028 -505 1014 -568Q935 -492 920 -480Q894 -460 865 -460Q860 -460 810 -464L447 -492Q440 -493 396 -487Q352 -481 346 -481Q311 -481 261 -498Q203 -518 189 -543Q201 -566 197 -581Q196 -584 188 -602Q182 -617 182 -625Q182 -632 203 -668Q227 -709 232 -726H324Q342 -700 360 -673Q384 -638 384 -612Q384 -600 379 -588Q429 -563 442 -563Q448 -563 482 -572Q516 -581 529 -582Q644 -595 706 -595Q712 -595 742.5 -592.5Q773 -590 780 -590Q810 -590 822 -591Q840 -619 907 -701Q963 -771 963 -778Q963 -788 938 -825Q912 -789 853 -728Q726 -634 690 -634Q651 -634 541 -724Q455 -796 419 -837Q395 -870 347 -921Q323 -930 272 -956L125 -841Q124 -842 115 -853.5Q106 -865 100 -871Q160 -915 257 -1004Q267 -1016 271 -1075Q324 -1103 338 -1103Q344 -1103 357 -1097.5Q370 -1092 376 -1092Q383 -1092 476 -1165Q587 -1252 627 -1278Q630 -1275 636.5 -1265.5Q643 -1256 646 -1253L425 -1064Q425 -1056 432 -1035Q439 -1014 439 -1002Q439 -984 425 -970L682 -776Q683 -777 817 -942Q901 -1047 970 -1074Q996 -1084 1089 -1096V-1112Q1084 -1122 1040 -1129Q992 -1137 971 -1159Q964 -1166 964 -1219Q920 -1230 898 -1246Q898 -1262 905 -1276Q948 -1372 990 -1467Q1050 -1573 1140 -1573Q1245 -1573 1306 -1522.5Q1367 -1472 1367 -1382Q1367 -1337 1343 -1280Q1337 -1266 1305 -1199Q1280 -1149 1280 -1141Q1280 -1113 1286 -1102Q1289 -1096 1333 -1079Q1377 -1062 1404 -1008Q1427 -962 1427 -918Q1427 -881 1412 -821Q1406 -787 1392 -723Q1345 -553 1345 -352Q1345 -279 1365 -162Q1371 -129 1389 -43Q1405 31 1405 38Q1405 75 1386 105Q1368 130 1350 154Q1370 157 1394 182Q1413 203 1432 224Q1474 263 1572 280Q1603 285 1629 302ZM1345 -1382Q1345 -1462 1284 -1506Q1230 -1545 1149 -1545Q1047 -1545 996 -1405L1171 -1371Q1179 -1373 1202 -1384Q1220 -1393 1228 -1393Q1239 -1393 1254 -1377.5Q1269 -1362 1269 -1349Q1269 -1342 1255 -1304Q1241 -1266 1241 -1259Q1241 -1239 1272 -1196Q1345 -1315 1345 -1382ZM1400 -907Q1400 -1062 1262 -1064Q1252 -1134 1256 -1172Q1249 -1181 1237 -1195Q1214 -1237 1214 -1256Q1214 -1263 1230.5 -1301Q1247 -1339 1247 -1346Q1247 -1354 1243.5 -1358.5Q1240 -1363 1240 -1365Q1229 -1362 1208 -1350Q1187 -1338 1181 -1338Q1182 -1338 981 -1381Q967 -1331 925 -1258Q936 -1255 958 -1249.5Q980 -1244 991 -1241Q991 -1181 997 -1170Q1008 -1150 1045 -1150Q1102 -1151 1101 -1151Q1116 -1124 1116 -1094V-1075Q1083 -1069 1020 -1057Q933 -1037 838 -927Q760 -835 682 -743L395 -964Q411 -984 411 -1004Q411 -1035 374 -1059Q390 -1041 390 -1016Q390 -956 338 -956Q329 -956 319 -959Q336 -954 352 -948Q372 -940 383 -924Q430 -854 526 -768Q639 -666 698 -666Q747 -666 822 -742Q942 -862 943 -863Q966 -833 982 -797Q1113 -928 1124 -928Q1140 -928 1138 -911Q987 -797 841 -572Q835 -563 824 -563Q817 -563 772 -565.5Q727 -568 720 -568Q642 -568 567 -561Q547 -559 496.5 -547Q446 -535 442 -535Q428 -535 396 -551Q400 -543 400 -536Q400 -511 372 -511H371H372Q389 -512 414 -515.5Q439 -519 442 -519Q449 -519 615 -502.5Q781 -486 788 -486Q896 -486 954 -541Q1041 -642 1129 -744Q1144 -766 1169 -803Q1175 -803 1183 -801Q1191 -799 1193 -799Q1180 -751 1105 -672Q1034 -598 1034 -587Q1034 -581 1045 -509.5Q1056 -438 1056 -429Q1056 -335 1024 -170H1042Q1109 -186 1176 -203Q1266 -223 1323 -219Q1312 -324 1336 -565Q1341 -613 1372 -735Q1400 -842 1400 -907ZM356 -1068V-1078H341V-1068ZM361 -1027Q339 -1005 313 -990H335Q361 -990 361 -1027ZM1383 46Q1383 17 1322 -197H1267Q1260 -197 1191 -180Q1112 -159 1085 -154Q769 -92 553 84Q633 141 665 185Q769 121 903 125L1255 174Q1297 174 1306 167Q1332 148 1357.5 108.5Q1383 69 1383 46ZM362 -623Q362 -652 334 -669Q310 -683 283 -683Q209 -683 209 -620Q209 -600 228 -575Q251 -546 280 -546Q298 -546 328 -570Q362 -596 362 -623ZM356 -533V-543H336V-533ZM1580 309Q1462 286 1410 239Q1407 236 1382 207Q1363 185 1356 185Q1350 185 1303 190.5Q1256 196 1250 196Q1180 196 1096 174.5Q1012 153 919 153Q822 153 655 218Q642 197 599 157Q553 113 528 104Q488 161 488 191Q488 233 543 274Q593 311 633 311Q640 311 690.5 303Q741 295 748 295H894Q900 295 938.5 288Q977 281 993 280Q1194 262 1228 262Q1319 262 1400 278Q1530 303 1580 309ZM1089 -1297Q1077 -1283 1059 -1283Q1053 -1283 1032 -1286.5Q1011 -1290 1002 -1290Q1002 -1292 999 -1297.5Q996 -1303 996 -1311Q996 -1319 1011 -1328.5Q1026 -1338 1037 -1338Q1063 -1338 1089 -1297Z"/>
</svg>