<svg xmlns="http://www.w3.org/2000/svg" viewBox="0 0 1000 1000">
  <g transform="scale(1,-1) translate(0,-1000)">
    <path d="M505 627V567Q522 576 537 594Q537 595 538 595Q542 601 542 615Q539 630 539 630Q522 630 505 627ZM332 424Q381 488 405.5 511.5Q430 535 467 551V616Q438 603 401 566Q361 525 332 448ZM82 365Q82 348 91.0 335.5Q100 323 112 323Q125 323 133.5 335.0Q142 347 142 364Q142 382 133.0 394.5Q124 407 111.0 407.0Q98 407 90.0 395.0Q82 383 82 365ZM110 438Q132 438 148.0 416.0Q164 394 164 364Q164 335 149.5 314.0Q135 293 113.0 293.0Q91 293 75.5 314.5Q60 336 60 365Q60 395 74.5 416.5Q89 438 110 438ZM112 267Q134 267 149.5 245.0Q165 223 165 192Q165 163 150.0 142.0Q135 121 113.0 121.0Q91 121 76.0 142.5Q61 164 61.0 194.0Q61 224 76.0 245.5Q91 267 112 267ZM481 851Q471 851 463.5 862.5Q456 874 451.0 889.0Q446 904 436.5 919.0Q427 934 414 940Q409 938 409 917Q409 909 410 905Q413 892 418.0 880.5Q423 869 427.0 862.5Q431 856 440.5 843.0Q450 830 455 823Q460 815 483 792H485Q511 818 515 824Q520 832 529.0 844.5Q538 857 542.5 864.0Q547 871 552.0 882.0Q557 893 560 906Q561 911 561 918Q561 937 556 942Q540 934 524.0 900.5Q508 867 501 857Q497 851 481 851ZM485 878Q489 884 511 931V932Q510 939 509.5 949.0Q509 959 507 964Q505 966 503 966Q497 968 491 968Q464 968 461 957Q461 955 460.5 946.0Q460 937 459 931V930Q479 887 485 878ZM30 476V41H196V476ZM318 209H315Q288 210 269.5 230.5Q251 251 251 298Q251 333 261 378L247 382Q237 385 237 399V401Q239 416 250 418H288Q297 433 303 448V851Q302 957 221 959H219Q181 959 156.0 929.5Q131 900 131 853V516H211Q225 516 225 496V21Q225 2 211 2H15Q0 2 0 21V496Q0 516 15 516H102V853Q102 917 135.5 958.0Q169 999 219 999Q235 999 250.5 994.0Q266 989 286.0 975.5Q306 962 318.5 930.0Q331 898 332 851V522Q344 553 385.5 595.5Q427 638 467 653V770Q443 794 437 803Q434 808 419.5 827.5Q405 847 398.5 861.5Q392 876 388 897Q387 903 387 915V917Q387 971 413 971Q424 971 438 957Q438 958 438.5 960.5Q439 963 439 964Q443 998 488 998Q526 998 531 965Q531 964 531.5 962.0Q532 960 532 959Q548 972 557 972Q580 972 583 918V916Q583 904 582 898Q578 878 571.0 863.0Q564 848 550.0 829.5Q536 811 532 805Q525 794 517 786Q536 786 556 702Q563 687 563 687L659 569L720 683L724 694Q730 704 745.0 721.5Q760 739 760 749Q760 762 752.0 772.0Q744 782 734.5 789.0Q725 796 717.0 816.0Q709 836 709 867Q709 918 741.5 959.0Q774 1000 811 1000Q857 1000 884.0 962.5Q911 925 911 879Q911 866 907.5 851.0Q904 836 901.0 828.0Q898 820 890.5 803.5Q883 787 881 783Q891 759 912.5 745.0Q934 731 938 718Q939 716 940.5 712.0Q942 708 944.5 700.5Q947 693 950 685Q963 651 1000 466Q999 454 997.0 446.5Q995 439 988.5 434.0Q982 429 980.0 428.0Q978 427 969 423L900 486Q899 455 894 77L928 44Q931 43 937.5 41.5Q944 40 946.5 39.0Q949 38 952.5 35.5Q956 33 957.5 29.5Q959 26 959 20Q959 0 944 0Q941 0 912.5 7.5Q884 15 842.5 22.5Q801 30 768 30Q751 30 655.0 19.0Q559 8 530 2H528Q513 2 513 22Q513 27 514.5 31.0Q516 35 518.5 37.5Q521 40 526.5 42.0Q532 44 535.5 44.5Q539 45 548.5 47.0Q558 49 563 50Q560 74 560 79Q560 95 566.0 104.5Q572 114 592 136Q592 176 587.5 232.0Q583 288 583 325Q583 347 584 360Q583 363 583 370Q583 388 594.5 400.0Q606 412 619 412Q624 412 636.0 401.0Q648 390 663.0 374.0Q678 358 695.0 338.5Q712 319 725.0 303.0Q738 287 749 274L760 260Q760 289 762.0 333.0Q764 377 764 397Q764 480 736 608L668 514Q665 509 660.0 509.0Q655 509 652 514L566 638Q569 626 569 617V615Q567 587 558 573Q558 572 552.5 565.0Q547 558 533.5 547.5Q520 537 505 530V26Q505 16 499.5 9.0Q494 2 487 2Q479 2 473.0 9.0Q467 16 467 26V514Q441 502 424.5 485.0Q408 468 368 416H393Q404 416 406 401V399Q406 385 396 382L380 377Q391 328 391 298Q391 249 369.0 229.0Q347 209 318 209ZM347 382H321Q320 382 319.0 382.5Q318 383 317 383H288Q288 381 282.5 348.5Q277 316 277 298Q277 244 317 244H318Q319 244 320 243Q364 246 364 298Q364 316 355.5 348.5Q347 381 347 382ZM916 631Q905 585 902 527V523L964 477Q954 502 942.0 552.5Q930 603 916 631ZM774 949Q800 944 824.5 924.0Q849 904 849 870V850Q849 830 866 820Q884 860 884 879Q884 913 863.5 939.0Q843 965 811 965Q792 965 774 949ZM827 547Q827 559 809.5 574.5Q792 590 792 596Q792 613 805 613Q814 613 826 600Q840 587 843.0 580.0Q846 573 849 570Q855 555 870 540L872 539Q879 628 904 706Q878 724 868 737Q860 747 856.0 756.0Q852 765 848.0 777.5Q844 790 840 798Q826 810 826 850Q826 854 826.5 860.5Q827 867 827 870Q827 887 812.0 899.5Q797 912 782 916L767 920Q765 920 762.0 919.0Q759 918 755.0 917.0Q751 916 748 915Q735 892 735 867Q735 832 760.5 806.0Q786 780 786 749Q786 737 782.5 726.5Q779 716 775.0 710.5Q771 705 763.0 696.0Q755 687 752 683Q756 664 765.0 622.5Q774 581 779.5 554.0Q785 527 790.0 483.5Q795 440 795 397Q795 374 793.0 333.5Q791 293 791 274Q796 277 823.0 289.5Q850 302 866 311Q868 446 870 506L857 516Q849 521 843 521Q839 521 834.5 518.5Q830 516 828 516Q828 516 827.0 516.5Q826 517 825 517Q819 517 808.5 522.0Q798 527 798 533Q798 534 798.5 534.0Q799 534 799 535Q802 540 807 540H814Q821 540 827 545ZM772 896Q786 896 786 873Q786 858 772 858Q753 858 753 873Q753 883 758.5 889.5Q764 896 772 896ZM770 82Q821 82 864 67Q865 105 865 173V268Q852 261 823.5 247.5Q795 234 775.5 223.5Q756 213 734 198Q726 192 707.0 179.5Q688 167 680.5 162.5Q673 158 659.0 147.5Q645 137 636.0 129.0Q627 121 615.0 109.0Q603 97 591 83Q590 82 590.0 79.0Q590 76 592 56Q706 82 770 82ZM614 369V325Q614 292 617.0 241.5Q620 191 621 164Q635 176 649.5 186.5Q664 197 686.5 212.0Q709 227 720 234L731 241L620 372H619Q616 372 614 369ZM505 715Q515 710 519 710Q525 710 525.0 718.0Q525 726 521.5 734.5Q518 743 512.0 753.5Q506 764 505 765ZM539 665Q547 663 550 662Q535 683 525 683H521Q516 683 505 694V662Q522 665 539 665Z" fill="currentColor"/>
  </g>
</svg>