<svg xmlns="http://www.w3.org/2000/svg" viewBox="0 -2048 2048 2048">
	<path fill="#000000" d="M1791 323Q1791 330 1779 354H1685Q1683 354 1613 329.5Q1543 305 1495 305Q1510 305 1213 329Q1199 338 1195 346Q1170 360 1140 360Q1103 360 1017 338Q931 316 882 316Q773 316 619 334Q595 337 526 349Q464 360 459 360H301Q296 360 271.5 365.5Q247 371 240 371Q188 371 155 317Q128 273 128 233Q128 148 181 59Q223 -11 311 -117Q369 -170 428 -223Q506 -295 506 -346Q506 -415 458 -526Q375 -718 375 -829Q375 -885 381 -914Q390 -950 398 -986Q310 -917 259 -774Q215 -653 215 -541Q215 -495 229.5 -451Q244 -407 259 -363V-340H100Q141 -398 187 -488Q186 -523 189 -593Q194 -636 239 -797Q279 -940 463 -1071Q460 -1089 450 -1129Q425 -1132 376 -1152Q370 -1172 356 -1206Q348 -1219 299 -1234Q287 -1243 287 -1254Q287 -1259 301.5 -1288.5Q316 -1318 318 -1334Q328 -1441 391 -1501Q449 -1556 534 -1556Q599 -1556 670 -1516Q707 -1495 722 -1422Q731 -1379 731 -1381Q731 -1337 713 -1289Q704 -1265 669 -1211Q638 -1162 638 -1156Q638 -1114 673 -1114Q739 -1116 741 -1115Q850 -1079 985 -1005Q987 -1004 1216 -870Q1217 -888 1207.5 -933.5Q1198 -979 1198 -983Q1198 -1020 1227 -1060Q1260 -1106 1305 -1106Q1379 -1106 1379 -1024Q1379 -921 1297 -846Q1383 -827 1445 -820Q1445 -819 1416 -739L1302 -794Q1337 -718 1399 -566Q1410 -517 1435 -429Q1450 -420 1476 -391Q1482 -362 1499 -306Q1489 -307 1452 -294Q1443 -310 1418 -343Q1407 -314 1407 -269Q1407 -233 1429 -181Q1412 -162 1404 -162Q1377 -162 1364 -191Q1336 -254 1336 -325Q1336 -364 1346 -395L1256 -579Q1242 -495 1242 -376Q1242 -325 1243 -320Q1252 -286 1297 -259Q1297 -212 1293.5 -190Q1290 -168 1290 -174Q1255 -181 1238 -206Q1230 -206 1227 -202Q1214 -137 1214 -130Q1214 -100 1231 -77Q1222 -67 1178 -52Q1167 -79 1155 -105Q1143 -139 1143 -178Q1143 -216 1171 -283Q1113 -454 1113 -685Q1113 -716 1114 -746Q1112 -759 1068 -781Q1006 -812 881 -861Q806 -891 762 -903Q749 -893 737 -836Q726 -787 726 -760Q726 -632 814 -484.5Q902 -337 902 -285Q902 -234 874.5 -197Q847 -160 847 -159Q847 -159 911 -25Q980 120 1001 174Q1009 184 1020 184Q1026 184 1070 178.5Q1114 173 1121 173L1484 211Q1518 211 1541 194.5Q1564 178 1569 178Q1592 178 1613 207Q1622 234 1663 282Q1686 297 1736 301Q1778 304 1791 323ZM1346 -1007Q1346 -1073 1308 -1073Q1280 -1073 1253 -1043.5Q1226 -1014 1226 -988Q1226 -981 1236 -933Q1247 -880 1249 -865Q1306 -914 1316 -926Q1346 -963 1346 -1007ZM1412 -798Q1393 -800 1335 -808Q1373 -789 1405 -772Q1405 -775 1408.5 -785Q1412 -795 1412 -798ZM704 -1381Q704 -1452 653 -1493Q608 -1529 537 -1529Q413 -1529 358 -1404Q562 -1370 553 -1370Q560 -1370 570 -1383Q585 -1402 586 -1403Q627 -1376 627 -1364Q627 -1357 613.5 -1324.5Q600 -1292 600 -1285Q600 -1262 624 -1238Q704 -1269 704 -1381ZM1466 -332Q1463 -349 1453 -375Q1434 -388 1408 -418Q1395 -476 1361 -588Q1357 -597 1262 -804Q1220 -776 1220 -766Q1220 -727 1311 -525Q1332 -484 1372 -405Q1376 -396 1371 -382Q1368 -373 1364 -363Q1351 -265 1388 -211Q1380 -308 1380 -293Q1380 -367 1430 -376Q1445 -359 1466 -332ZM1268 -217V-248Q1252 -259 1221 -287Q1213 -358 1219 -416Q1226 -496 1226 -504V-648Q1226 -662 1197 -749Q1168 -738 1143 -715Q1142 -693 1142 -668Q1142 -487 1193 -282Q1165 -203 1165 -170Q1165 -140 1194 -85Q1188 -97 1188 -137Q1188 -239 1236 -239Q1247 -239 1268 -217ZM1187 -857Q1074 -923 961 -989Q810 -1073 729 -1088Q694 -1089 632 -1096Q605 -1147 605 -1167Q605 -1172 635 -1209Q617 -1209 609 -1211Q572 -1254 572 -1276Q572 -1281 582 -1317.5Q592 -1354 592 -1369Q572 -1349 555 -1342L354 -1375Q342 -1337 320 -1256Q333 -1252 373 -1233Q379 -1215 393 -1169Q424 -1163 477 -1146Q478 -1135 481 -1110.5Q484 -1086 484 -1081Q484 -1077 440.5 -1002.5Q397 -928 397 -821Q397 -743 491 -509Q534 -402 534 -340Q534 -286 434 -187Q274 -28 249 4Q149 129 149 244Q149 274 184 308.5Q219 343 251 343L885 288Q891 288 962 306Q1042 325 1074 331Q1106 330 1165 329Q1088 333 1021 275Q954 217 951 217Q946 217 913.5 228Q881 239 866 239L613 206L363 239Q349 240 336 240Q326 240 320 226Q416 128 511 30Q621 -79 708 -144Q723 -155 761.5 -159Q800 -163 812 -169Q835 -181 857.5 -220Q880 -259 880 -288Q880 -331 844 -387Q771 -498 744 -562Q704 -659 704 -769Q704 -809 719 -867Q737 -936 762 -958Q906 -929 1135 -799Q1156 -819 1187 -857ZM1750 324Q1714 320 1630 287Q1618 279 1602 244Q1588 212 1568 206Q1519 239 1516 239L1129 200Q1122 200 1080 203Q1038 206 1031 206Q1002 206 999 205Q986 200 932 87Q897 9 823 -145Q782 -138 711 -116Q692 -107 670.5 -84Q649 -61 649 -52Q649 -27 712 83Q775 193 794.5 205Q814 217 860 217Q868 217 909.5 203Q951 189 956 189Q968 189 998 219Q1036 257 1070 275Q1127 305 1204 305L1497 277Q1532 277 1614.5 301Q1697 325 1732 325Q1742 325 1750 324ZM226 -366Q216 -396 196 -453Q179 -423 144 -366ZM753 199L625 -36L375 204Q545 184 613 184Q693 184 753 199ZM440 -1299Q428 -1299 428 -1288Q401 -1297 353 -1317Q371 -1348 394 -1348Q423 -1348 440 -1299Z"/>
</svg>