<svg xmlns="http://www.w3.org/2000/svg" viewBox="26.7 -1568.3 1372.6 1978.6">
	<path fill="currentColor" d="M1326 -542Q1326 -503 1240 -291Q1197 -185 1154 -79Q1158 -45 1161 5Q1160 50 1099 138Q1093 138 1062 123Q1052 133 1050 152Q1057 202 1064 266V310Q986 327 998 327H929Q923 306 913 276Q931 276 986 265Q991 268 991 256Q991 234 973 179Q949 107 920 107Q471 337 331 337Q265 337 249 331Q223 321 202 280Q184 244 184 217Q184 140 309 30Q380 -33 545 -144Q677 -233 685 -253Q687 -258 687 -288L656 -587Q656 -592 665 -667Q675 -751 678 -789Q586 -715 421 -549Q404 -499 365 -387Q334 -326 280 -199Q276 -187 284 -155Q294 -118 294 -116Q294 -95 283 -62Q281 -61 237 -61Q237 -89 228 -134Q213 -122 208 -100Q205 -82 201 -63Q201 -38 201 -13Q198 28 176 27H142L149 19Q149 7 145.5 -26.5Q142 -60 142 -66Q142 -108 164 -177Q195 -274 198 -289Q211 -357 224 -426Q241 -512 264 -562Q322 -690 556 -870Q546 -876 361 -956Q248 -1004 238 -1073Q234 -1101 249 -1178Q229 -1198 178 -1248Q127 -1298 100 -1325Q112 -1337 135 -1354L616 -930Q660 -964 741 -1006Q764 -1010 808 -1020Q811 -1031 818 -1052Q793 -1058 751 -1073Q736 -1080 734 -1111Q733 -1134 732 -1156Q713 -1165 695 -1174Q666 -1189 666 -1205Q666 -1216 711 -1300Q732 -1344 753 -1388Q783 -1442 835 -1472Q874 -1495 943 -1495Q1027 -1495 1089 -1431Q1148 -1369 1148 -1288Q1148 -1234 1111 -1170Q1070 -1101 1006 -1063V-1017Q1010 -1015 1020 -1010Q1109 -1026 1223 -815Q1326 -626 1326 -542ZM1122 -1294Q1122 -1370 1063 -1421Q1007 -1469 930 -1469Q821 -1469 760 -1345Q887 -1307 925 -1307Q932 -1307 948.5 -1317.5Q965 -1328 972 -1328Q988 -1328 1007.5 -1308.5Q1027 -1289 1027 -1273Q1027 -1266 1014 -1227Q1001 -1188 1001 -1181Q1001 -1165 1027 -1165Q1069 -1165 1098 -1198Q1122 -1226 1122 -1294ZM650 -863L237 -1227Q253 -1211 275 -1183Q258 -1090 264 -1073Q288 -1004 424 -947Q537 -905 650 -863ZM1163 -516L1061 -757L970 -356Q1022 -171 1022 -184Q1022 -109 882 -39Q786 -1 690 37Q801 17 1014 -31Q1044 -70 1078 -126Q1100 -258 1163 -516ZM1305 -532Q1305 -610 1217.5 -777Q1130 -944 1073 -975Q1042 -981 980 -996V-1073Q1027 -1111 1069 -1153Q1064 -1152 1048.5 -1148.5Q1033 -1145 1027 -1145Q1005 -1145 975 -1163Q978 -1183 990 -1226Q1001 -1264 1001 -1270Q1001 -1292 966 -1307L950 -1275L756 -1317Q731 -1259 692 -1204Q716 -1194 759 -1172Q757 -1144 762 -1098Q795 -1089 844 -1073Q839 -1048 832 -1002Q815 -994 777 -990Q739 -986 725 -980Q689 -965 635 -912Q718 -830 718 -822Q718 -815 709 -792Q700 -769 699 -765Q676 -659 676 -587Q676 -580 694.5 -424.5Q713 -269 713 -262Q713 -239 712 -238Q689 -210 641 -173Q573 -120 505 -77Q210 111 210 219Q210 316 333 316Q443 316 687 198.5Q931 81 925 81Q961 81 992 166Q1017 235 1017 264Q1017 282 995 287.5Q973 293 949 298Q1037 298 1042 299V9Q1042 4 1030 -8Q995 6 744 58Q537 102 423 175Q409 163 409 153Q529 74 680 14Q733 -6 827 -43Q996 -112 996 -192Q996 -199 972.5 -277.5Q949 -356 949 -362Q949 -413 991 -588Q1015 -684 1039 -780Q1042 -797 1061 -804Q1089 -767 1132 -676Q1184 -566 1184 -516Q1184 -539 1128 -289Q1122 -244 1109 -163Q1099 -118 1070 -72Q1122 -81 1122 -3Q1122 26 1097 101Q1109 83 1125 58Q1138 28 1134 -19Q1130 -68 1133 -78Q1169 -186 1243 -371Q1305 -529 1305 -532ZM1095 5Q1095 -25 1082 -45Q1053 -14 1053 -14Q1053 -7 1059.5 8.5Q1066 24 1067 31Q1066 21 1066 102Q1069 92 1087 55Q1095 38 1095 5ZM676 -823Q591 -857 590 -857Q553 -857 375 -672Q337 -630 285 -551Q263 -494 245 -400Q218 -264 214 -247Q194 -193 170 -100Q171 -73 171 -19Q177 -57 183 -94Q197 -155 229 -155Q253 -155 256 -146Q261 -119 267 -92V-122Q257 -151 254 -199Q303 -348 315 -380Q353 -482 395 -549Q428 -601 523 -685Q661 -808 676 -823ZM828 -1237Q828 -1234 825 -1227.5Q822 -1221 822 -1218Q808 -1221 745 -1234V-1253Q767 -1275 786 -1275Q803 -1275 828 -1237Z"/>
</svg>