<svg xmlns="http://www.w3.org/2000/svg" viewBox="0 -2048 2048 2048">
	<path fill="#000000" d="M1221 297Q1221 329 1154 329Q1097 329 986 301.5Q875 274 817 274Q798 274 783 275L297 308Q229 308 174 286Q100 257 100 200Q100 97 345 -23Q504 -101 688 -155Q683 -207 628 -432Q584 -611 549 -712Q502 -846 502 -894Q502 -920 510 -941Q516 -957 528 -974Q361 -870 254 -667Q151 -471 151 -275Q151 -253 154 -194L128 -192Q125 -252 125 -275Q125 -516 267 -742Q417 -981 637 -1054Q643 -1057 672 -1069Q666 -1076 668 -1088Q662 -1090 655 -1090Q650 -1090 640 -1088.5Q630 -1087 625 -1087Q602 -1087 559 -1109Q559 -1141 553 -1164Q514 -1176 494 -1188Q520 -1224 536 -1295Q557 -1378 569 -1405Q589 -1449 636 -1482.5Q683 -1516 730 -1516Q802 -1516 868 -1465Q939 -1411 939 -1341Q939 -1298 902.5 -1215.5Q866 -1133 866 -1105Q866 -1095 876 -1062Q979 -1034 979 -982Q979 -954 964 -859Q922 -594 922 -537Q922 -446 953.5 -267Q985 -88 985 3Q985 123 952 152Q961 168 1000 197Q1055 237 1215 282Q1221 291 1221 297ZM913 -1336Q913 -1397 853 -1445Q796 -1490 733 -1490Q680 -1490 638 -1453.5Q596 -1417 584 -1365Q587 -1364 659 -1335Q718 -1312 727 -1312Q736 -1312 752 -1322.5Q768 -1333 777 -1333Q798 -1333 812 -1314Q813 -1304 813 -1295Q813 -1280 806 -1250Q799 -1220 799 -1205Q799 -1158 849 -1145Q913 -1294 913 -1336ZM950 -975Q950 -1030 853 -1047Q847 -1079 843 -1110Q817 -1130 790 -1151Q772 -1169 772 -1215Q772 -1232 779 -1262Q786 -1292 787 -1306H763Q750 -1281 743 -1281Q732 -1281 665 -1306Q580 -1338 579 -1338Q561 -1253 526 -1198Q567 -1199 577 -1185Q581 -1179 584 -1140Q586 -1113 625 -1113Q648 -1113 675 -1124Q688 -1115 692 -1094Q698 -1060 699 -1058Q597 -1004 591 -1000Q532 -958 532 -902Q532 -853 574 -734Q601 -656 643 -488Q682 -331 717 -164Q844 -199 928 -203Q889 -487 889 -562Q889 -642 933 -868Q950 -955 950 -975ZM952 26Q952 -101 933 -168Q589 -151 211 90Q290 189 302 189Q306 189 391.5 162.5Q477 136 576 136Q620 136 705 160Q790 184 834 184Q952 184 952 26ZM1178 300Q1107 281 1089 275Q1035 257 1005 237Q1002 235 972 208Q946 184 942 184Q923 184 888 197.5Q853 211 834 211Q810 211 740 192Q633 163 571 163Q496 163 444 175Q434 177 369 199Q316 216 299 216Q299 216 181 109Q130 157 130 197Q130 239 196 264Q251 284 299 281L797 249Q828 247 833 247Q878 247 1035 280Q1109 296 1178 300ZM662 -1267Q640 -1254 628 -1254Q596 -1254 583 -1278Q602 -1296 612 -1296Q638 -1296 662 -1267Z"/>
</svg>