<svg xmlns="http://www.w3.org/2000/svg" viewBox="0 0 1000 1000">
  <g transform="scale(1,-1) translate(0,-1000)">
    <path d="M0 47V156L37 120H178L216 156V47ZM187 77V90H28V77ZM357 535Q357 522 402.5 477.0Q448 432 494.0 378.0Q540 324 540 289Q540 266 525 234Q510 200 470.5 152.0Q431 104 419 66Q428 60 438 60Q454 60 549.0 94.0Q644 128 653 128Q666 128 676.0 118.0Q686 108 686 91Q686 85 684 75Q717 112 721 136Q702 141 680 141H676Q660 141 609 133Q592 130 583.5 128.5Q575 127 567.5 126.0Q560 125 550.5 122.0Q541 119 534.0 117.0Q527 115 507.5 108.0Q488 101 472 96L604 237Q638 230 681.5 222.5Q725 215 758.5 208.0Q792 201 833 189Q845 185 862 182Q884 177 895.0 174.0Q906 171 922.0 160.0Q938 149 948 132Q954 122 954 107Q954 90 936 56Q967 78 967 117Q967 150 955 162Q949 170 930.5 176.0Q912 182 887.0 187.5Q862 193 852 197Q784 222 767.0 229.5Q750 237 718 257Q706 265 693.5 277.5Q681 290 673 295Q666 300 642.0 310.5Q618 321 604 336Q582 359 566.0 404.5Q550 450 533 468Q432 573 425 584Q423 586 421 590V594Q408 607 408 629Q408 632 408.5 637.5Q409 643 409 645Q409 657 395.5 666.0Q382 675 369 678L356 681Q326 681 326 642Q326 617 345.0 600.5Q364 584 364 573Q364 564 360.5 551.5Q357 539 357 535ZM360 663Q373 663 373 646Q373 642 369.0 638.0Q365 634 360 634Q342 634 342 646Q342 663 360 663ZM362 702Q386 699 408.0 684.5Q430 670 430 645Q430 643 429.5 637.5Q429 632 429 629Q429 617 445 607Q462 632 462 650Q462 676 443.0 695.0Q424 714 395 714Q377 714 362 702ZM70 157Q54 157 54 168Q54 176 60.0 186.0Q66 196 73.5 203.5Q81 211 88 218L95 225Q106 231 123 253L220 359Q254 423 279.0 461.5Q304 500 314.0 511.5Q324 523 325 525Q340 555 343 568Q302 602 302 642Q302 679 331.0 709.5Q360 740 395 740Q436 740 460.5 712.5Q485 685 485 650Q485 626 477.0 607.0Q469 588 469 582Q469 578 470.0 576.0Q471 574 474.0 571.0Q477 568 483.5 562.0Q490 556 498.5 548.5Q507 541 522.5 526.0Q538 511 556 492Q578 469 594.0 423.5Q610 378 627 360Q637 349 663.0 339.5Q689 330 714 305Q754 265 822 244Q835 241 862 230Q874 225 902.0 219.5Q930 214 948 206Q984 189 991 166Q1000 135 1000 117Q1000 91 990.5 71.0Q981 51 969.0 39.0Q957 27 926 0Q895 7 895 36Q895 49 908.5 74.5Q922 100 922 108Q922 114 912 124Q900 137 856 147Q841 150 804.0 162.0Q767 174 691 186Q613 199 613 199L568 159Q625 176 680 176Q704 176 732 169Q754 164 754 138Q754 106 701 43Q687 27 670 3Q628 9 628 34Q628 44 640.5 64.0Q653 84 653 91V93Q632 86 579.5 67.5Q527 49 489.0 37.0Q451 25 438 25Q418 25 402.0 36.0Q386 47 386 65Q386 70 388 76Q402 120 442.5 170.5Q483 221 496 250Q508 275 508 289Q508 306 492.5 329.0Q477 352 432 397L414 415Q410 402 389.0 377.5Q368 353 343.5 327.5Q319 302 315 297Q213 211 213 211Q198 195 194.5 180.5Q191 166 188 160Q188 159 172.5 149.0Q157 139 156 139Q150 136 137 136Q121 136 121 147Q121 155 127.0 165.0Q133 175 140.5 182.5Q148 190 155 197L162 204Q173 210 190 232L289 336L371 443Q357 454 347 467L248 318Q245 314 219.5 292.5Q194 271 170 252L146 232Q131 216 128.5 201.5Q126 187 122 181Q122 180 106.5 170.0Q91 160 90 160Q84 157 70 157Z" fill="currentColor"/>
  </g>
</svg>