<svg xmlns="http://www.w3.org/2000/svg" viewBox="0 -2048 2048 2048">
	<path fill="#000000" d="M1308 288Q1275 321 1247 321Q1241 321 1233 315.5Q1225 310 1218 310Q1211 310 1208.5 315Q1206 320 1199 320H966V258Q1015 250 1065 241Q1124 229 1166 196Q1168 152 1142 65Q1106 -48 1037 -277Q1029 -281 986 -281Q932 -281 915 -263Q905 -253 860 -161Q850 -122 831 -46Q798 40 739 218Q747 239 752 281Q750 296 733 308.5Q716 321 706 321Q699 321 694 315.5Q689 310 682 310Q685 310 673 319Q534 322 427 310V269Q490 260 602 230Q625 221 655 127Q696 -1 710 -84Q709 -110 708 -162Q708 -170 786.5 -385Q865 -600 865 -645Q865 -675 820 -730L611 -490Q621 -484 647 -486V-372Q587 -373 567 -369Q556 -367 533 -355.5Q510 -344 503 -344Q466 -344 464 -372H100V-481H243Q276 -514 343 -581Q353 -591 412 -676Q435 -697 461 -743Q461 -740 449 -949Q442 -1076 564 -1124Q563 -1158 528 -1160Q473 -1164 464 -1169Q464 -1177 466.5 -1195Q469 -1213 469 -1219V-1233Q445 -1241 400 -1265Q416 -1325 454 -1451Q466 -1486 544 -1519Q563 -1527 598 -1527Q659 -1527 711.5 -1482Q764 -1437 764 -1374Q764 -1328 740.5 -1274Q717 -1220 717 -1221Q717 -1173 762 -1173Q767 -1173 786.5 -1175.5Q806 -1178 814 -1178Q862 -1178 915 -1109Q933 -1086 964 -1020Q998 -950 1024 -913Q1053 -870 1127 -792Q1203 -711 1231.5 -671.5Q1260 -632 1260 -574Q1260 -545 1235 -483Q1197 -388 1197 -339Q1197 -249 1223 -166Q1270 -11 1274 6Q1271 48 1272 133Q1285 184 1308 288ZM738 -1374Q738 -1423 696 -1464.5Q654 -1506 598 -1506Q558 -1506 513 -1472Q464 -1435 459 -1390Q480 -1390 526.5 -1384.5Q573 -1379 577 -1379Q585 -1379 611.5 -1395Q638 -1411 643 -1411Q665 -1411 676 -1355Q690 -1291 704 -1279Q709 -1284 716 -1285Q738 -1359 738 -1374ZM1234 -585Q1234 -640 1184.5 -689.5Q1135 -739 1084 -788L881 -665Q890 -639 884 -617Q853 -497 791 -303H1175Q1174 -319 1174 -334Q1174 -394 1204 -465.5Q1234 -537 1234 -585ZM1070 -811Q1026 -859 992 -918Q957 -983 921 -1049Q857 -1157 825 -1157Q818 -1157 784 -1152Q750 -1147 743 -1147Q696 -1147 696 -1215Q696 -1237 701 -1245Q664 -1262 658 -1295Q645 -1363 636 -1384Q635 -1383 619 -1365Q608 -1353 601 -1353Q609 -1353 459 -1363Q452 -1323 432 -1269L496 -1253Q491 -1213 491 -1184Q552 -1184 565 -1182Q574 -1158 595 -1113Q588 -1108 576 -1100Q474 -1076 474 -941Q474 -917 477.5 -881Q481 -845 481 -838Q481 -824 487 -779Q491 -743 488 -733Q470 -677 398 -600Q339 -542 279 -483H352Q352 -500 353 -504Q384 -527 436 -568Q534 -651 541 -700Q551 -765 563 -962H581Q686 -868 731 -836Q741 -962 753 -1031H770L775 -981Q769 -902 736 -770Q694 -688 564 -514Q563 -513 527 -495Q558 -457 558 -445Q558 -434 519 -377Q568 -393 580 -444Q598 -518 607 -530Q639 -574 701.5 -634Q764 -694 783 -720Q823 -775 850 -938Q852 -953 858 -983Q867 -980 880 -974V-960Q880 -927 852 -812Q850 -806 841.5 -785.5Q833 -765 833 -759Q833 -735 877 -693ZM722 -801Q722 -819 586 -919V-786Q585 -699 537 -635Q498 -582 381 -494Q380 -491 380 -483H479Q475 -504 495 -510Q511 -515 526 -520Q558 -545 641 -667Q722 -786 722 -801ZM1287 277Q1269 224 1246 122Q1250 75 1248 1Q1214 -97 1175 -280H1065V-263Q1065 -257 1101 -154Q1144 -33 1158 13Q1192 129 1192 173Q1192 197 1185 205Q1148 247 1046 272Q1025 273 991 293H1194Q1200 293 1206.5 285.5Q1213 278 1221 278Q1228 278 1236.5 286Q1245 294 1252 294Q1248 294 1287 277ZM615 -393V-461Q608 -438 590 -393ZM532 -442Q532 -450 529 -456.5Q526 -463 526 -464H126V-392H492Q503 -392 518 -415Q532 -435 532 -442ZM901 -280H776Q759 -242 739 -189Q736 -139 725 -47Q711 33 665 164Q651 205 650 206Q637 236 618 246Q589 261 513 275Q498 278 448 293H661Q674 294 688 278L709 299Q714 294 721 293Q717 266 715 229Q721 193 743 134Q771 62 778 39Q796 -36 814 -110Q841 -204 901 -280ZM579 -1296Q471 -1296 464 -1295V-1325Q497 -1342 503 -1342Q502 -1342 579 -1296Z"/>
</svg>