<svg xmlns="http://www.w3.org/2000/svg" viewBox="0 -2048 2048 2048">
	<path fill="currentColor" d="M1426 -508Q1425 -496 1412.5 -486Q1400 -476 1389 -467Q1383 -471 1360 -493Q1316 -534 1233 -534H1215Q1246 -408 1246 -386Q1246 -379 1244 -373Q1221 -302 1077.5 -273Q934 -244 647 -183Q635 -172 630 -133Q623 -77 623 -76Q617 -53 561 94Q519 205 519 264Q519 274 523.5 293.5Q528 313 528 323Q528 336 516 350Q504 364 492 364Q484 364 461 354Q438 344 431 344Q422 344 404 352.5Q386 361 376 361H197V296Q205 299 214 301Q212 301 236 296Q314 279 343 265Q397 239 414 184Q427 144 434 81Q439 28 445 -24Q456 -73 475 -173Q476 -193 480 -232Q491 -307 546 -330Q565 -338 616 -353Q673 -372 788 -409Q838 -424 937 -455Q940 -468 940 -475Q940 -532 887 -673Q854 -760 838 -771Q822 -782 804 -779L506 -726L490 -727Q481 -729 461 -741Q386 -786 265 -996Q254 -1023 228 -1075Q223 -1084 194 -1095Q162 -1107 151 -1118L123 -1102Q102 -1118 100 -1145L125 -1159Q124 -1191 143 -1211Q162 -1231 194 -1227Q194 -1227 202 -1225L198 -1235L215 -1249Q235 -1236 242 -1222L283 -1246L285 -1267Q333 -1300 342 -1300Q350 -1300 358 -1297L351 -1317Q359 -1323 373 -1323Q381 -1323 385 -1320L389 -1304L776 -1517Q793 -1509 798 -1491Q837 -1364 854 -1364Q864 -1364 883 -1365.5Q902 -1367 912 -1367Q1030 -1367 1074 -1260Q1086 -1231 1086 -1155Q1086 -1127 1027 -1051Q1027 -1017 1049 -1017Q1053 -1017 1062 -1018.5Q1071 -1020 1075 -1020Q1160 -1020 1181 -908Q1189 -869 1189 -730Q1189 -675 1195 -632Q1209 -703 1245 -736Q1281 -769 1310 -769Q1365 -769 1365 -708Q1365 -632 1269 -581Q1339 -573 1357 -564Q1369 -558 1426 -508ZM829 -1356Q805 -1398 779 -1469L668 -1408Q737 -1387 790 -1330Q804 -1345 829 -1356ZM1062 -1207Q1062 -1261 1022 -1299Q974 -1344 909 -1344Q868 -1344 850 -1340Q791 -1327 767 -1264Q752 -1225 752 -1219Q752 -1216 755 -1207H758Q789 -1207 839 -1216Q906 -1229 919 -1231Q933 -1253 962 -1257Q988 -1227 988 -1203Q989 -1176 989 -1149L1008 -1133Q1022 -1133 1036 -1147Q1047 -1158 1058 -1170Q1062 -1211 1062 -1207ZM1289 -738Q1249 -718 1227 -663Q1264 -719 1289 -738ZM1342 -708Q1342 -744 1310 -744Q1307 -744 1302 -743Q1320 -741 1336 -729Q1338 -667 1237 -589Q1275 -604 1306 -635Q1342 -672 1342 -708ZM1313 -705V-717Q1309 -719 1304 -720Q1278 -720 1224 -610Q1313 -672 1313 -705ZM1398 -503Q1354 -542 1337 -549Q1320 -556 1259 -559Q1345 -545 1388 -495ZM875 -965Q875 -977 870 -1000Q862 -1000 846.5 -998.5Q831 -997 823 -997Q797 -997 788 -1019Q787 -1021 778 -1063Q755 -1059 740 -1059Q739 -1059 708 -1079Q711 -1088 730 -1137Q730 -1210 734 -1231Q742 -1278 775 -1313Q764 -1330 712 -1360.5Q660 -1391 640 -1392L416 -1267Q408 -1243 408 -1232Q408 -1201 452 -1129Q483 -1078 515 -1026Q534 -985 573 -904Q686 -900 665 -900Q726 -900 834 -945Q844 -948 875 -965ZM1217 -561L1205 -571L960 -509V-503Q1205 -564 1217 -561ZM374 -1261Q374 -1277 342 -1277Q334 -1277 321.5 -1268Q309 -1259 309 -1251Q309 -1227 343 -1227Q374 -1227 374 -1261ZM1180 -590Q1166 -671 1166 -808Q1166 -997 1073 -997Q1067 -997 1054 -995.5Q1041 -994 1035 -994Q1031 -994 1026 -996Q1005 -1034 1004 -1054Q1023 -1080 1053 -1134Q1030 -1108 1014 -1108Q1003 -1108 963 -1143Q963 -1151 964 -1166.5Q965 -1182 965 -1190Q965 -1219 955 -1231L946 -1230Q941 -1221 926 -1208Q897 -1198 842 -1192Q757 -1184 756 -1184Q756 -1145 734 -1087L743 -1081Q761 -1083 798 -1085Q800 -1065 802 -1045Q808 -1020 827 -1020Q833 -1020 844 -1021.5Q855 -1023 861 -1023Q898 -1023 898 -975Q898 -952 887 -943Q873 -932 787 -900.5Q701 -869 684 -869Q676 -869 674 -874Q665 -872 596 -854Q546 -840 519 -840Q503 -840 397 -964Q276 -1106 264 -1117Q252 -1128 251 -1147.5Q250 -1167 245 -1175Q240 -1172 235 -1172Q228 -1172 210.5 -1188Q193 -1204 191 -1204Q164 -1204 149 -1181Q149 -1136 189 -1120Q239 -1099 243 -1093Q292 -1004 340 -915Q402 -808 470 -763Q494 -747 507 -749L804 -801Q809 -802 856 -788Q927 -667 956 -532ZM597 -878Q564 -879 553 -892Q535 -914 515 -961Q488 -1028 484 -1035Q473 -1057 407 -1170Q387 -1204 384 -1224Q370 -1207 346 -1205Q369 -1190 405 -1080Q428 -1008 450 -935Q520 -863 524 -863Q532 -863 597 -878ZM412 -982Q389 -1061 341 -1178Q333 -1190 308 -1205L268 -1184Q279 -1161 278 -1136Q343 -1069 412 -982ZM1221 -385Q1221 -507 1188 -536L963 -479Q962 -458 955 -435Q882 -414 684 -352Q643 -341 562 -314Q519 -296 507 -248Q501 -204 495 -159Q484 -115 467 -25Q458 56 449 136Q430 237 376.5 272.5Q323 308 222 320V336H385Q390 336 407 328.5Q424 321 431 321Q439 321 461 331.5Q483 342 489 342Q502 342 502 320Q502 311 499.5 293Q497 275 497 266Q497 203 540 92Q592 -44 600 -80Q602 -113 614 -176Q622 -198 641 -205Q669 -216 941 -268Q1180 -315 1202 -344Q1221 -369 1221 -385ZM857 -1149Q828 -1144 772 -1132Q780 -1180 811 -1180Q821 -1180 857 -1149Z"/>
</svg>