<svg xmlns="http://www.w3.org/2000/svg" viewBox="0 -2048 2048 2048">
	<path fill="#000000" d="M1637 347H1564Q1467 347 1329 279L711 353Q653 360 592 324Q526 285 526 228Q526 197 549 159Q591 89 762 -2Q922 -87 1016 -102Q1053 -198 1053 -250L1007 -764Q864 -656 861 -654Q742 -574 677 -574Q632 -574 493.5 -626.5Q355 -679 298 -679Q271 -679 226 -670L242 -496H190Q185 -587 167 -671Q154 -684 138 -707Q132 -726 140 -776Q138 -781 116 -803Q124 -815 142.5 -819Q161 -823 163 -824Q159 -834 156 -875Q116 -901 116 -937Q116 -950 137 -971Q133 -975 122 -975Q122 -977 119 -983.5Q116 -990 116 -998Q116 -1005 126.5 -1015Q137 -1025 137 -1032L100 -1348Q100 -1391 153.5 -1440.5Q207 -1490 248 -1490Q266 -1490 289 -1476Q316 -1460 316 -1440Q316 -1419 288 -1412Q254 -1403 217 -1375Q173 -1341 170 -1308Q169 -1296 169 -1248Q169 -1158 185 -1020Q215 -1005 278 -975Q339 -956 467 -909Q508 -893 610 -842Q697 -800 703 -800Q703 -800 790 -859Q882 -922 918 -940Q994 -978 1095 -1004V-1040Q1090 -1046 1058 -1054Q1031 -1060 1029 -1076.5Q1027 -1093 1025 -1128Q1005 -1136 965 -1154Q958 -1182 958 -1171Q958 -1177 973 -1200Q992 -1228 998 -1246Q1003 -1279 1023 -1341Q1084 -1453 1208 -1453Q1301 -1453 1361 -1389.5Q1421 -1326 1421 -1237Q1421 -1182 1385 -1120Q1313 -998 1311 -993Q1313 -991 1320 -986Q1427 -979 1427 -879L1353 -256L1406 47Q1398 130 1363 165Q1383 170 1414 187Q1431 214 1478 262Q1526 295 1564 295Q1571 295 1619 279Q1637 297 1637 302ZM1395 -1242Q1395 -1309 1372 -1341Q1351 -1370 1298 -1401Q1245 -1432 1213 -1432Q1076 -1432 1038 -1307Q1236 -1274 1229 -1274Q1236 -1274 1246 -1284.5Q1256 -1295 1263 -1295Q1280 -1295 1293 -1286Q1294 -1274 1300 -1247Q1306 -1220 1306 -1214Q1306 -1208 1290 -1194Q1274 -1180 1274 -1174Q1274 -1160 1287 -1138Q1300 -1116 1313 -1116Q1395 -1116 1395 -1242ZM284 -1451Q266 -1469 250 -1469Q206 -1469 165 -1420Q126 -1375 126 -1337L145 -1158Q141 -1268 141 -1264Q142 -1325 164 -1365Q178 -1390 227.5 -1414.5Q277 -1439 284 -1451ZM1400 -879Q1400 -923 1373 -942Q1354 -954 1289 -968V-1034Q1330 -1076 1342 -1094Q1334 -1090 1308 -1090Q1287 -1090 1279 -1095Q1253 -1157 1253 -1174Q1253 -1181 1266 -1197.5Q1279 -1214 1279 -1221Q1279 -1227 1276 -1243.5Q1273 -1260 1273 -1268Q1268 -1268 1253.5 -1260.5Q1239 -1253 1232 -1253L1033 -1284Q1036 -1261 1013 -1220.5Q990 -1180 990 -1169Q1031 -1160 1051 -1149Q1055 -1101 1053 -1075Q1079 -1072 1122 -1060Q1122 -1017 1112 -973Q1082 -968 1052 -964Q1012 -956 996 -940Q899 -846 859 -812Q798 -759 733 -719Q730 -717 706 -696Q686 -679 679 -679Q674 -679 605 -700Q529 -724 493 -730Q427 -739 335 -754Q314 -758 272 -775Q234 -790 229 -790Q218 -790 212 -787Q211 -771 190 -763Q175 -758 160 -752Q158 -744 158 -737Q158 -690 205 -690Q211 -690 248.5 -698Q286 -706 292 -706Q345 -706 485.5 -653Q626 -600 674 -600Q741 -600 880 -700Q1019 -800 1029 -800Q1041 -800 1038 -796L1079 -240Q1079 -195 1054 -117Q1167 -153 1266 -153Q1309 -153 1336 -148Q1328 -279 1328 -276Q1340 -423 1372 -664Q1400 -882 1400 -879ZM927 -907L703 -774L232 -973Q251 -934 216 -896Q246 -911 255 -911Q261 -911 439 -808.5Q617 -706 671 -706Q695 -706 812 -806Q870 -857 927 -907ZM474 -765L255 -885Q228 -868 206 -868V-817Q262 -802 371 -775Q409 -772 474 -765ZM211 -939V-962Q199 -974 184 -974Q174 -974 158 -959.5Q142 -945 142 -935Q142 -925 155.5 -913Q169 -901 177 -901Q211 -935 211 -939ZM1379 47Q1379 20 1345 -118Q1342 -120 1335 -126Q1153 -125 967 -63Q772 2 625 117L631 121Q656 133 694 168Q727 200 729 200Q732 200 834 173.5Q936 147 1008 147Q1057 147 1162 170Q1262 192 1325 189Q1345 157 1372 98Q1379 68 1379 47ZM1611 318Q1617 321 1566 321Q1572 321 1541 312Q1487 296 1462 278Q1447 267 1412 226Q1386 195 1371 195Q1364 195 1336.5 205.5Q1309 216 1303 216Q1309 216 1189 195Q1069 174 1008 174Q944 174 871 186Q848 190 787 206Q732 221 727 221Q715 221 684 184Q653 147 608 147Q587 147 570 180Q555 207 555 225Q555 262 601 296.5Q647 331 698 331L1308 258Q1335 258 1434.5 292Q1534 326 1571 326Q1597 326 1611 318ZM1127 -1223Q1115 -1211 1115 -1206Q1090 -1209 1043 -1223Q1060 -1253 1082 -1253Q1116 -1253 1127 -1223Z"/>
</svg>