<svg xmlns="http://www.w3.org/2000/svg" viewBox="0 -2048 2048 2048">
	<path fill="currentColor" d="M1215 193Q1119 190 1062 200Q1061 229 1013 266Q969 300 937 304Q926 293 926 279Q989 278 1031 211Q1031 199 1023 199Q1019 199 997.5 203.5Q976 208 964 208Q903 207 824 241Q756 271 688 301L677 298V279Q755 250 809 216Q805 206 764.5 176Q724 146 711 146Q333 304 213 304H100V273Q254 277 369 243Q324 223 232 171Q232 159 245 146Q262 167 324.5 196Q387 225 417 225Q456 225 671 132Q619 98 494 98Q488 98 454.5 100.5Q421 103 414 103Q410 103 397 84Q391 82 354 82V36Q447 8 454 5Q514 -15 521 -32Q554 -114 588 -265Q618 -398 714 -778V-791Q647 -740 575 -706Q514 -679 453 -651Q430 -634 380 -602Q387 -567 400 -500H375Q370 -534 352 -596Q341 -604 323 -623Q306 -653 306 -682Q306 -689 315 -695Q329 -705 332 -708Q282 -748 297 -821Q301 -823 309 -831Q293 -962 280 -1044Q283 -1044 292.5 -1046.5Q302 -1049 305 -1049Q327 -909 339 -837Q360 -822 380 -822Q396 -822 462 -868Q533 -918 553.5 -949Q574 -980 601 -1077Q622 -1152 667 -1185Q693 -1193 745 -1212V-1237Q721 -1244 678 -1273Q677 -1286 675 -1316Q647 -1335 634 -1354Q657 -1410 725 -1513Q735 -1523 782 -1538Q826 -1552 837 -1552Q884 -1552 936 -1498.5Q988 -1445 988 -1399Q988 -1393 898 -1223Q922 -1217 959 -1191Q991 -1137 979 -931Q976 -881 997 -804Q1029 -687 1031 -679L994 -513Q1018 -416 1055 -233Q1061 -139 1078 60Q1066 71 1046 80Q1085 111 1125 141Q1176 179 1215 173ZM962 -1404Q962 -1439 923 -1481Q881 -1526 837 -1526Q768 -1526 731 -1483Q725 -1468 713 -1443Q791 -1424 843 -1404Q870 -1431 877 -1431Q889 -1431 899 -1412Q909 -1393 909 -1380Q909 -1373 898.5 -1355Q888 -1337 888 -1330Q888 -1315 900 -1304Q918 -1305 941 -1347Q962 -1386 962 -1404ZM967 -1034Q967 -1201 871 -1197Q871 -1197 878 -1239Q883 -1269 898 -1281Q882 -1281 861 -1301Q861 -1316 874 -1394Q874 -1378 856 -1378Q850 -1378 809 -1389Q764 -1400 745 -1403Q756 -1392 771 -1370Q758 -1357 740 -1357Q733 -1357 718 -1370V-1396Q730 -1407 742 -1407Q741 -1407 729 -1410.5Q717 -1414 704 -1414Q682 -1368 666 -1353Q709 -1351 709 -1322Q709 -1315 706 -1299.5Q703 -1284 704 -1278Q724 -1268 772 -1257V-1244Q772 -1188 733 -1180Q675 -1167 641 -1117Q622 -1088 604 -1027Q584 -957 574 -937Q555 -898 492 -858Q440 -824 388 -791Q379 -800 365 -800Q369 -782 380 -748Q385 -759 394 -773Q394 -773 515 -821Q594 -852 621 -887Q637 -908 659 -974Q678 -1032 705 -1055Q721 -1039 720 -1029Q753 -1095 790 -1129Q793 -1126 799 -1122.5Q805 -1119 808 -1116Q757 -1017 640 -837Q620 -813 492 -735Q470 -721 429 -696Q427 -695 385 -688Q378 -681 360.5 -668Q343 -655 338 -650Q361 -627 367 -627Q633 -753 675 -793Q721 -836 790 -951Q792 -955 811 -999Q823 -1029 837 -1034Q840 -1031 844 -1029.5Q848 -1028 851 -1025Q843 -1000 740 -829L966 -887L960 -895Q961 -919 964 -978Q967 -1028 967 -1034ZM1004 -682Q1004 -688 986 -754Q967 -828 961 -859H938L740 -800L656 -442H977Q967 -504 974 -544Q1004 -708 1004 -682ZM549 -805Q518 -791 461 -771Q412 -760 380 -718Q402 -718 409 -711ZM1057 50V26Q1057 20 1049.5 -15.5Q1042 -51 1042 -63Q1042 -191 1039 -207Q1029 -263 982 -414H899Q902 -380 923 -330Q939 -291 955 -253Q957 -249 984 -131Q1004 -45 1004 -45Q1004 8 930 33Q883 43 835 53L975 61Q980 61 994.5 53Q1009 45 1015 45Q1018 45 1032 48Q1046 51 1057 50ZM348 -760Q348 -763 345 -772Q342 -781 342 -784H322Q322 -771 325 -760.5Q328 -750 328 -749Q337 -749 348 -760ZM1120 165Q1043 100 991 95Q958 92 896 84Q866 84 813 78V33Q862 23 911 13Q978 -4 978 -61Q978 -119 933 -249Q918 -278 894 -329Q882 -359 871 -414H767Q733 -353 714 -285Q699 -230 685 -175Q660 -107 625 0Q624 18 621 47Q618 66 607 75Q673 101 773 158Q783 164 811 186Q835 204 840 204Q845 204 884 195.5Q923 187 938 185Q1000 177 1120 165ZM734 -414H645Q624 -312 577 -117Q569 -76 537 -7Q512 22 464 32Q423 40 382 48Q381 51 381 61H535Q542 61 546 53Q550 45 557 45Q560 45 574 52Q584 57 602 49Q602 39 598 12Q595 -8 598 -15Q629 -86 668.5 -220Q708 -354 734 -414Z"/>
</svg>