<svg xmlns="http://www.w3.org/2000/svg" viewBox="0 -2048 2048 2048">
	<path fill="#000000" d="M1434 354H982Q990 299 1003 204L1000 168Q954 292 945 306Q914 354 844 354Q837 354 821.5 351Q806 348 801 348Q804 332 814 302Q858 296 864 280Q877 246 877 163Q877 114 806 5Q758 -67 710 -138Q675 -27 615 194Q621 227 617 282Q599 320 546 322Q503 323 459 324Q331 354 329 354Q314 354 309 337Q315 337 283 354Q239 328 226 277Q221 240 216 204Q186 38 140 -273Q100 -551 100 -568Q100 -602 171 -661Q127 -716 127 -740Q127 -755 156 -784H309Q311 -799 326 -827Q351 -840 394 -876Q459 -960 493 -995Q557 -1059 616 -1078Q716 -1095 816 -1113Q961 -1139 992 -1186Q987 -1189 949 -1191Q932 -1223 932 -1261Q901 -1267 866 -1284V-1306Q866 -1323 928 -1472Q944 -1511 990 -1537Q1032 -1561 1077 -1561Q1124 -1561 1160 -1548Q1200 -1534 1238 -1485Q1276 -1436 1276 -1400Q1276 -1337 1228 -1271Q1160 -1178 1150 -1155Q1193 -1155 1239 -1109Q1285 -1063 1285 -1028Q1285 -1003 1278.5 -934.5Q1272 -866 1272 -831Q1272 -705 1283 -640Q1288 -610 1305 -530Q1320 -463 1320 -456Q1320 -379 1271 -339Q1342 -325 1357 -340ZM1249 -1392Q1249 -1457 1193 -1500Q1141 -1540 1071 -1540Q1034 -1540 996 -1508Q958 -1476 943 -1432Q968 -1427 1018.5 -1414.5Q1069 -1402 1094 -1397Q1121 -1436 1145 -1436Q1152 -1436 1169 -1425Q1189 -1411 1189 -1395Q1189 -1388 1175 -1355Q1161 -1322 1161 -1315Q1161 -1296 1174 -1272H1192Q1249 -1284 1249 -1392ZM1293 -445Q1293 -451 1278 -523Q1261 -605 1256 -640Q1249 -689 1245 -765Q1244 -794 1250 -907Q1254 -943 1259 -978Q1264 -1022 1258 -1045Q1248 -1083 1200 -1105Q1161 -1121 1123 -1138Q1129 -1163 1130 -1202Q1132 -1203 1172 -1241Q1161 -1247 1146 -1259Q1134 -1288 1134 -1315Q1134 -1322 1145 -1350.5Q1156 -1379 1156 -1386Q1156 -1408 1130 -1408Q1125 -1394 1114 -1370Q990 -1397 966 -1397H927Q908 -1339 899 -1294Q926 -1293 957 -1279Q961 -1233 960 -1218Q984 -1215 1025 -1207Q1017 -1185 1010 -1163Q998 -1134 977 -1125Q934 -1107 868 -1100Q808 -1092 699 -1078Q610 -1067 511 -978Q478 -948 438 -898Q385 -831 379 -824Q390 -824 390 -818H401Q438 -859 538 -923Q625 -979 667 -996Q685 -1003 716 -1000Q761 -994 759 -994Q781 -994 826.5 -998.5Q872 -1003 874 -1003Q950 -1003 961 -927Q997 -957 1054 -1014Q1069 -986 1069 -991Q962 -895 906 -833Q866 -789 846 -770Q809 -735 785 -725Q726 -701 529 -656Q514 -652 477.5 -636Q441 -620 436 -620Q428 -620 422 -629Q418 -635 414 -642Q392 -607 362 -600Q432 -614 447 -614Q453 -614 497.5 -611.5Q542 -609 548 -609Q709 -609 787 -632Q835 -646 916 -714Q977 -768 1038 -822Q1052 -808 1052 -805Q987 -756 987 -702Q987 -691 990 -669.5Q993 -648 993 -637Q993 -609 979 -586Q950 -537 886 -514Q833 -500 780 -486Q716 -465 631 -423Q708 -407 747 -388Q761 -381 792 -349Q819 -319 825 -319Q833 -319 842 -324.5Q851 -330 852 -330Q977 -330 1164 -344Q1240 -350 1259 -365Q1287 -388 1292 -407Q1293 -410 1293 -445ZM937 -913Q937 -923 926.5 -947.5Q916 -972 908 -976H689Q668 -976 562 -906Q464 -843 439 -820Q445 -809 451 -793Q439 -749 417 -671Q435 -653 444 -653Q451 -653 485 -666Q524 -681 535 -684Q618 -703 776 -747Q793 -753 861 -815Q937 -884 937 -913ZM1402 322L1336 -310H1097L1009 322ZM1068 -313H940Q937 -313 833 -296V-277Q865 -185 897 -92Q935 10 1012 97ZM970 -634Q970 -640 966.5 -670.5Q963 -701 963 -713Q960 -711 895 -664Q849 -630 825 -627Q819 -626 687 -601Q585 -582 520 -582Q518 -582 488 -581Q463 -581 440 -581L336 299Q374 289 427 252Q486 210 492 177Q512 61 552 -212Q555 -278 566 -376Q580 -434 686 -478Q779 -512 873 -546Q970 -586 970 -634ZM992 119Q992 115 957 73Q919 28 911 11Q905 -2 846 -176Q807 -289 745 -354Q734 -365 693 -379Q663 -344 663 -316Q663 -256 757 -112Q882 80 902 123Q904 127 904 166Q904 249 891 285Q880 316 838 321Q860 320 883 319Q906 318 918 298Q942 256 969 189Q992 129 992 119ZM691 -155Q691 -162 663.5 -235.5Q636 -309 636 -316Q636 -347 663 -383Q655 -386 636.5 -392Q618 -398 610 -401Q603 -389 594 -366Q568 -144 525 171Q508 262 346 325Q486 294 491 294Q498 294 514.5 297Q531 300 537 300Q594 300 594 266Q594 257 590 239.5Q586 222 586 213Q586 167 638.5 22Q691 -123 691 -155ZM412 -732Q412 -744 399 -757H167Q154 -744 154 -735Q154 -728 176 -697Q200 -663 204 -651Q127 -600 127 -554Q127 -508 227 111Q235 161 251 254Q264 322 288 322Q301 322 302 315L405 -581Q387 -578 336 -568Q293 -560 286 -560Q236 -573 236 -595Q236 -611 245 -620Q269 -614 297 -614Q337 -614 379 -639Q364 -647 362 -660Q379 -671 395.5 -695.5Q412 -720 412 -732ZM1002 -1343Q972 -1348 944 -1348Q941 -1354 937 -1362Q952 -1371 977 -1386Q991 -1386 1002 -1362Z"/>
</svg>