<svg xmlns="http://www.w3.org/2000/svg" viewBox="0 -2048 2048 2048">
	<path fill="currentColor" d="M2125 -256Q2125 -243 1991 -5Q1991 -5 1955 -23Q1982 -158 1982 -176Q1982 -214 1975 -221Q1936 -260 1763 -327Q1658 -368 1599 -403Q1551 -357 1551 -345Q1551 -331 1700 -159Q1743 -100 1834 18Q1861 46 1910 102Q1903 118 1878 132Q1877 137 1878 142Q1836 196 1748 315Q1740 315 1725.5 305.5Q1711 296 1711 287Q1711 280 1730.5 203Q1750 126 1750 119Q1750 44 1602 -62Q1553 -96 1465 -172Q1443 -206 1395 -271Q1321 -369 1247 -468Q1157 -585 1111 -610Q1092 -619 1057 -621Q1032 -622 992 -620Q944 -618 938 -618Q933 -618 877 -623Q831 -628 816 -624Q806 -540 804 -483Q802 -412 694 -294Q607 -208 520 -122Q511 -97 490 -44Q487 -44 477 -47Q467 -50 464 -50V-95Q459 -97 449 -105Q423 -95 385 0H349Q349 -2 345.5 -9Q342 -16 342 -24Q342 -72 390 -121Q439 -165 487 -209Q494 -216 587 -352V-359Q526 -309 402 -235Q387 -226 252 -121Q244 -127 239 -127Q242 -140 240 -165Q227 -156 179 -115Q141 -82 133 -82Q126 -82 100 -95Q115 -151 186 -197Q240 -231 294 -265Q350 -309 406 -352Q475 -407 506 -451Q540 -500 566 -589Q587 -663 608 -737V-752Q582 -767 574 -767Q567 -767 544 -750.5Q521 -734 514 -734Q507 -734 480.5 -750.5Q454 -767 450 -767Q445 -767 395 -734Q358 -768 349 -796Q304 -936 304 -982Q304 -992 318.5 -1031.5Q333 -1071 343 -1079Q360 -1089 390 -1108Q398 -1140 398 -1142Q398 -1158 390 -1200Q385 -1228 352 -1321Q350 -1326 331 -1358Q315 -1387 315 -1394V-1425H1832Q1835 -1405 1843 -1369H578Q514 -1277 519 -1124Q579 -1102 606 -1044Q606 -1043 636 -947Q639 -936 672 -906Q700 -899 693 -899Q698 -899 726 -916Q754 -933 764 -936Q770 -938 798 -938Q831 -938 919 -907Q1043 -863 1047 -862Q1172 -826 1383 -781Q1424 -772 1494 -703Q1550 -647 1606 -591Q1664 -542 1772 -486Q1880 -430 2107 -301Q2125 -290 2125 -256ZM1808 -1391V-1400H343Q418 -1298 421 -1115Q480 -1127 490 -1126Q496 -1223 505 -1261Q520 -1331 562 -1391ZM2097 -249V-274L1675 -513Q1635 -463 1612 -421Q1712 -367 1790 -338Q2009 -258 2009 -196Q2009 -149 1984 -49Q2016 -102 2073 -205Q2069 -214 2066 -228Q2072 -243 2097 -249ZM1651 -533Q1565 -578 1502 -650Q1479 -681 1434 -726Q1364 -768 1143 -805V-631L1444 -248ZM1877 98Q1825 58 1785 0Q1753 -49 1720 -98Q1667 -154 1580 -247Q1555 -274 1532 -320Q1463 -217 1463 -220Q1463 -214 1564 -131Q1683 -34 1727 11Q1778 63 1778 116Q1778 108 1741 276Q1747 266 1806 197Q1847 148 1847 124Q1847 119 1845 114Q1861 96 1877 98ZM607 -939V-964Q608 -1014 577 -1053Q536 -1104 478 -1104Q429 -1104 383 -1071Q331 -1033 331 -982Q331 -990 349 -900L464 -951Q455 -972 460 -984Q465 -997 482 -1011.5Q499 -1026 508 -1026Q528 -1026 544.5 -979Q561 -932 594 -932Q607 -932 607 -939ZM1132 -709Q1132 -803 1104 -819.5Q1076 -836 960 -872Q838 -910 801 -910Q771 -910 753 -903Q746 -900 719 -885Q697 -872 690 -872Q662 -872 622 -916Q593 -905 594 -905Q558 -905 537 -941Q512 -986 499 -993Q496 -971 487 -933Q450 -918 354 -870Q360 -853 374 -818.5Q388 -784 394 -767Q435 -794 450 -794Q457 -794 483.5 -777.5Q510 -761 516 -761Q523 -761 546.5 -777.5Q570 -794 577 -794Q605 -794 641 -764Q634 -745 594 -603Q567 -508 533 -455Q499 -402 426 -340Q362 -289 299 -238Q265 -210 239 -199Q157 -165 139 -121Q156 -141 196 -167Q236 -193 254 -193Q266 -193 279 -176Q323 -220 396 -263Q447 -293 499 -323Q564 -365 594 -404Q617 -434 664 -531Q722 -651 861 -651Q867 -651 912 -646Q957 -641 964 -641H1121L1125 -649Q1132 -674 1132 -709ZM790 -568Q790 -586 777 -612Q718 -580 693 -505Q679 -456 666 -407Q655 -384 617 -342Q575 -295 565 -280Q498 -175 425 -129Q427 -129 433 -130.5Q439 -132 447 -132Q472 -132 489 -110Q529 -172 618.5 -254.5Q708 -337 738 -383Q790 -462 790 -568ZM464 -869Q446 -859 412 -839H393Q393 -841 390 -844Q387 -847 387 -855Q387 -865 404.5 -879.5Q422 -894 433 -894Q446 -894 458 -887Q458 -875 464 -869Z"/>
</svg>