<svg xmlns="http://www.w3.org/2000/svg" viewBox="17.2 -735.8 2234.5 1107.5">
	<path fill="currentColor" d="M2169 -475Q2169 -468 2166 -456Q2163 -444 2163 -437V-281H2121Q2113 -322 2104 -363Q2089 -417 2040 -417Q1986 -417 1841 -370Q1737 -336 1703 -321V-251Q1754 -238 1849 -213Q1893 -200 1998 -161Q2089 -127 2095 -127Q2101 -127 2114 -130Q2127 -133 2133 -133Q2149 -133 2163 -114V123Q2161 124 2115 124Q2104 72 2094 21Q2072 -43 2001 -65Q1885 -89 1656 -145Q1513 -186 1371 -226Q1233 -264 1128 -276Q1130 -156 1127 -130Q1124 -97 1041 4Q938 130 922 156Q916 174 902 216Q895 234 880 234Q872 234 865 231Q858 228 856 228Q856 188 857 190Q836 202 829 234Q825 258 822 282Q815 289 803 289Q787 289 776 260Q767 239 767 226Q767 196 791 169Q821 143 870 87Q909 19 992 -114L989 -149Q928 -20 755 93Q726 112 696 159Q652 226 651 228Q639 229 620 210Q620 207 628 189Q632 179 624 168Q607 168 580 199Q557 226 547 250H516Q516 246 513 235.5Q510 225 510 218Q510 185 539 160Q571 140 632 96Q749 -1 821 -93Q848 -128 879 -192Q930 -296 932 -300Q924 -319 904 -319Q897 -319 867 -300Q837 -281 830 -281Q825 -281 771 -308Q763 -300 726 -275Q692 -297 632 -467Q397 -379 362 -379Q305 -379 260 -456H100V-509H621Q626 -538 654 -595Q660 -603 721 -628Q782 -653 800 -653Q856 -653 887 -605Q888 -603 927 -515Q949 -467 981 -467Q976 -467 1020 -491.5Q1064 -516 1101 -516Q1108 -516 1217.5 -491.5Q1327 -467 1334 -467Q1340 -467 1393.5 -478Q1447 -489 1454 -489Q1469 -489 1518 -472.5Q1567 -456 1619 -456Q1660 -456 1886 -497Q1929 -497 2013 -500Q2030 -501 2071 -506Q2107 -510 2114 -510Q2169 -510 2169 -475ZM2140 -346V-482L2111 -489Q2008 -479 1904 -469Q1785 -455 1704 -433Q1708 -400 1708 -382Q1708 -364 1704 -353L2060 -445Q2102 -447 2140 -346ZM2141 -98Q2107 -101 2052 -112Q2001 -136 1915 -169Q1839 -185 1704 -220V-156Q1831 -133 1958 -110Q2116 -66 2133 81Q2133 78 2137 21Q2139 -16 2134 -38Q2133 -44 2126 -53.5Q2119 -63 2119 -69Q2128 -78 2141 -98ZM1677 -161V-427Q1664 -428 1589 -428Q1582 -428 1521.5 -444.5Q1461 -461 1454 -461Q1447 -461 1405 -451Q1356 -440 1343 -438L1370 -254ZM915 -484Q871 -583 869 -586Q844 -625 798 -625Q747 -625 703 -595Q653 -559 653 -505Q653 -508 671 -418Q702 -437 759 -473Q765 -496 758 -508Q762 -524 781 -539Q800 -554 811 -554Q828 -554 838.5 -516Q849 -478 891 -478Q899 -478 906 -481Q913 -484 915 -484ZM1341 -259L1314 -444Q1097 -494 1101 -494Q1082 -494 1037 -475Q1029 -472 1010.5 -455.5Q992 -439 986 -439Q979 -439 959 -453Q939 -467 932 -467Q925 -467 910 -461.5Q895 -456 888 -456Q867 -456 865 -457Q858 -461 798 -521Q784 -507 784 -500Q784 -493 789.5 -481Q795 -469 795 -465Q719 -421 685 -394Q697 -365 720 -308Q727 -310 748 -324Q765 -335 773 -335Q780 -335 802 -321.5Q824 -308 830 -308Q835 -308 866.5 -327Q898 -346 904 -346Q939 -346 965 -305Q936 -236 864 -110Q793 -14 632 124Q607 141 581 158Q549 180 544 201Q610 135 642 135Q649 135 657 143.5Q665 152 667 152Q703 98 800 26Q897 -46 913 -68Q944 -111 976 -181Q1027 -292 1029 -296Q1039 -302 1085 -302Q1186 -302 1341 -259ZM1107 -160Q1107 -165 1103.5 -206.5Q1100 -248 1099 -266L1106 -274H1042Q1030 -230 1015 -147Q1017 -123 1012 -88Q991 -60 961 -16Q925 48 908 71Q875 118 813 180Q809 196 799 223Q807 204 831.5 181.5Q856 159 879 156Q922 110 996 15Q1107 -125 1107 -160ZM592 -481H275Q293 -454 310 -426Q329 -406 368 -406Q410 -406 487 -436Q539 -459 592 -481ZM784 -398Q761 -375 726 -363L713 -376Q729 -418 749 -417H778Q778 -404 784 -398Z"/>
</svg>