<svg xmlns="http://www.w3.org/2000/svg" viewBox="0 0 1000 1000">
  <g transform="scale(1,-1) translate(0,-1000)">
    <path d="M389 556Q389 556 375 556Q364 556 353.0 557.5Q342 559 336.5 561.0Q331 563 330 564Q315 570 302 589H301Q282 595 275 609Q270 617 267 625Q260 638 241 638Q233 638 223.0 635.5Q213 633 207 630L201 628Q198 626 185 613V608Q185 589 193 573Q205 547 224 547H239Q257 547 273 533Q276 530 279.5 527.0Q283 524 285.5 522.0Q288 520 290.0 518.0Q292 516 293.0 515.0Q294 514 294.5 512.5Q295 511 295 510Q295 507 287 494Q249 439 202 385Q200 382 195 380Q171 373 135.0 363.5Q99 354 82 349Q109 354 151.5 365.5Q194 377 221 383L290 442Q294 446 301 446Q314 446 318 430Q336 332 336 330Q336 314 322 310Q311 310 207 284Q218 285 238 285Q301 287 341 295Q345 307 345 363Q345 375 344.5 400.5Q344 426 344 442Q344 467 349.0 473.0Q354 479 362 479L402 474Q437 470 468 461Q513 448 534 424Q543 415 543.0 399.0Q543 383 533 371Q517 353 485.5 327.5Q454 302 432.5 284.0Q411 266 411 259Q411 255 413 253Q442 226 493.0 189.5Q544 153 575 123Q588 113 588 93Q588 58 546 40H556Q578 40 601 44Q608 57 611 73Q592 114 553 164Q536 187 507.5 214.0Q479 241 476 244Q471 251 471 258Q471 271 480 276Q492 282 519 305Q569 346 608 346H689Q795 346 907 333Q925 331 936.0 319.0Q947 307 949.5 297.5Q952 288 956 269Q957 263 963 209Q963 212 963.5 229.0Q964 246 964 261Q964 301 963 329Q937 337 889.5 354.0Q842 371 811 380Q787 387 753.0 395.0Q719 403 693.5 411.0Q668 419 636 433Q608 446 572.5 475.0Q537 504 518 515Q475 539 417 554Q410 556 389 556ZM214 613Q227 620 234 605Q239 594 228 585Q211 575 206 587Q198 602 214 613ZM196 653Q216 663 240 663Q273 663 287 637Q290 631 294 621Q296 617 298.0 614.5Q300 612 303.0 611.0Q306 610 307.5 610.0Q309 610 313.5 610.0Q318 610 319 610Q319 614 319.5 619.5Q320 625 320 628Q320 648 313 662Q295 696 259 696Q240 696 221 684Q205 674 196 653ZM348 599Q357 596 375 596H388Q405 596 424 592Q493 574 534 551Q558 538 591.0 510.0Q624 482 649 471Q680 457 703.0 449.5Q726 442 760.5 433.5Q795 425 819 418Q850 409 906.0 389.5Q962 370 985 363Q998 359 998 344Q1000 268 1000 255Q1000 182 989 172Q986 169 987.0 167.0Q988 165 989.5 164.5Q991 164 989 164Q972 164 951.0 174.5Q930 185 929 199Q921 279 913 289Q910 292 903 293Q783 307 690 307Q682 307 657.0 306.5Q632 306 608 306Q589 306 575.5 298.5Q562 291 540 273Q526 261 518 255Q525 248 529 245Q562 214 580 190Q621 137 644 87Q646 83 646 75Q646 59 636.5 33.5Q627 8 610 5Q584 0 555 0Q547 0 502 2Q485 2 485 29Q485 44 495 56Q503 66 524.5 74.0Q546 82 551 88Q553 90 553 92V93Q523 121 472.0 158.0Q421 195 391 223Q375 237 375 260Q375 276 393 298Q414 321 451.5 349.5Q489 378 507 398Q493 412 459 423Q435 430 399 434Q396 435 389.0 435.5Q382 436 379 436Q379 426 379.5 399.5Q380 373 380 364Q380 336 377 298Q374 261 349 256Q307 247 239 245Q190 243 183 242Q177 241 163 241Q141 241 128 254Q119 263 119 277Q119 307 172 317Q180 319 181 319Q205 325 298 346L289 391L239 348Q236 346 232 344Q176 331 161 327Q83 306 29 301H27Q16 301 8.0 311.0Q0 321 0 337Q0 356 15 364Q53 382 123 401Q124 401 146.0 407.0Q168 413 181 417L258 507V508Q257 509 256 509V510Q248 518 233 518H224Q191 518 171 558Q160 579 160 608Q160 638 173.0 666.5Q186 695 208 709Q233 725 258 725Q310 725 334 676Q341 662 343.5 649.5Q346 637 347.0 618.5Q348 600 348 599Z" fill="currentColor"/>
  </g>
</svg>