<svg xmlns="http://www.w3.org/2000/svg" viewBox="26.9 -1595.1 1269.2 1974.2">
	<path fill="currentColor" d="M1223 262Q1223 306 1179 306Q1172 306 1163.5 301Q1155 296 1148 296Q1142 296 1141.5 301Q1141 306 1135 306H910Q921 278 916 250Q1018 230 1028 226Q1103 203 1103 160Q1103 113 1075 32Q1056 -20 1037 -72Q1016 -137 980 -269H877Q852 -194 798 -35Q793 -20 737 92Q696 174 694 225Q692 268 685 282Q674 306 638 306Q632 306 622 301Q612 296 607 296Q606 296 595 306H404V250Q451 243 541 216Q596 191 624 84Q672 -102 681 -183Q694 -219 720 -303Q744 -420 795 -651Q793 -655 789 -653Q730 -627 639 -608Q562 -594 485 -580Q442 -571 382 -537Q388 -527 396 -507Q408 -464 408 -423Q408 -348 369 -289Q320 -216 236 -216Q100 -216 100 -355Q100 -488 294 -622Q294 -630 283 -641V-701Q297 -704 325 -711Q296 -759 273 -788L285 -801Q307 -791 329 -747Q349 -707 364 -707Q371 -707 404 -739Q448 -783 458 -791L476 -772Q434 -741 398 -694L406 -686Q490 -732 632 -837Q641 -846 650 -884Q665 -942 666 -946Q706 -1069 710 -1076Q752 -1159 832 -1166V-1189Q804 -1196 765 -1221Q765 -1229 767 -1247.5Q769 -1266 769 -1273Q752 -1277 718 -1299Q717 -1303 717 -1313Q717 -1314 752 -1375Q803 -1464 836.5 -1493Q870 -1522 926 -1522Q992 -1522 1040 -1477Q1088 -1432 1088 -1368Q1088 -1326 1063.5 -1271Q1039 -1216 1014 -1159Q1014 -1154 1023 -1147Q1057 -1146 1086 -1128Q1129 -1102 1129 -1018L1103 -793Q1103 -786 1132 -698Q1161 -610 1161 -603Q1161 -597 1155 -571Q1147 -541 1146 -532Q1129 -408 1129 -389Q1129 -322 1146 -246Q1206 23 1206 111Q1206 143 1203 178Q1202 188 1212.5 222.5Q1223 257 1223 262ZM1061 -1360Q1061 -1420 1020.5 -1460.5Q980 -1501 923 -1501Q895 -1501 853 -1472Q811 -1443 801 -1414Q953 -1376 936 -1376Q943 -1376 952.5 -1384Q962 -1392 967 -1392Q1014 -1392 1014 -1339Q1014 -1331 1004 -1304.5Q994 -1278 994 -1273V-1235H1013Q1061 -1269 1061 -1360ZM1103 -992Q1103 -1059 1091.5 -1086Q1080 -1113 1013 -1126Q1005 -1128 994 -1135Q987 -1143 987 -1155Q987 -1166 995.5 -1185Q1004 -1204 1004 -1208Q967 -1223 967 -1256Q967 -1263 977.5 -1296.5Q988 -1330 988 -1337Q988 -1356 970 -1365Q967 -1362 962 -1355Q957 -1348 954 -1345L786 -1391Q781 -1378 764.5 -1350.5Q748 -1323 743 -1310Q779 -1299 795 -1289Q795 -1277 792.5 -1255.5Q790 -1234 790 -1225Q836 -1216 851 -1210Q852 -1184 858 -1139Q823 -1137 770 -1123Q737 -1100 713 -1021Q692 -952 671 -883Q666 -855 648 -816Q605 -780 507 -718Q415 -660 408 -660Q405 -660 377 -673Q349 -686 343 -686Q335 -686 328.5 -682.5Q322 -679 320 -679Q377 -645 408 -645Q420 -645 516 -680Q621 -719 668 -746Q734 -784 760 -875Q782 -956 804 -1037Q813 -1037 819.5 -1034.5Q826 -1032 827 -1032Q827 -1015 825 -988Q823 -961 823 -953Q850 -992 876 -1032Q912 -1081 938 -1094Q952 -1068 952 -1072Q914 -1046 891 -1009Q821 -897 779 -809Q752 -751 744 -745Q667 -687 535 -644Q439 -613 416 -613Q409 -613 393 -621Q373 -631 368 -633Q369 -629 369 -625Q369 -613 345.5 -608.5Q322 -604 320 -589Q343 -556 359 -556Q365 -556 394 -576Q423 -596 432 -598Q523 -612 704 -643Q722 -646 758 -666Q794 -686 803 -698Q830 -735 960 -953Q963 -950 969 -946Q975 -942 978 -939L848 -714L1082 -776ZM1140 -605Q1140 -592 1086 -754L822 -680L743 -296H1108Q1101 -329 1101 -363Q1101 -414 1120.5 -493.5Q1140 -573 1140 -605ZM1197 274V240Q1189 222 1182 189Q1184 161 1184 132Q1184 -18 1113 -268H1010Q1008 -263 1008 -254Q1008 -223 1071.5 -67Q1135 89 1135 152Q1135 221 1043 250Q990 262 936 273L1116 280Q1115 280 1152 264Q1168 280 1176 280Q1183 280 1189 277Q1195 274 1197 274ZM350 -632V-641H336V-632ZM382 -420Q382 -458 360 -535Q356 -534 352 -534Q331 -534 312 -555.5Q293 -577 298 -592Q126 -458 126 -360Q126 -242 241 -242Q311 -242 349 -301Q382 -351 382 -420ZM852 -268H739Q706 -131 631 141Q607 218 562 232Q517 246 431 261Q425 265 425 280H583Q589 280 596 272Q603 264 610 264Q615 264 625 272Q635 280 641 280Q655 280 662 268Q666 240 676 189Q690 143 751 17Q770 -23 798 -129Q823 -223 852 -268ZM846 -1330Q844 -1330 840.5 -1327Q837 -1324 829 -1324Q833 -1324 785 -1340Q785 -1371 811 -1371Q819 -1371 833 -1360Q849 -1346 846 -1330Z"/>
</svg>