<svg xmlns="http://www.w3.org/2000/svg" viewBox="0 0 717 1000">
  <g transform="scale(1,-1) translate(0,-1000)">
    <path d="M244 870Q244 845 258.0 823.5Q272 802 292 802Q295 802 301.5 802.5Q308 803 312 803Q348 803 363 775Q388 734 388 712Q388 704 386 701Q479 623 479 541V535L580 524Q580 538 571.5 581.0Q563 624 558 635Q536 685 504.5 728.5Q473 772 450.0 795.5Q427 819 427 820Q421 832 418 844Q417 844 409.5 845.0Q402 846 396.0 847.5Q390 849 382.0 852.0Q374 855 367.5 860.0Q361 865 357 871Q355 874 352.0 880.0Q349 886 348 888Q340 903 315 903Q304 903 291.5 900.5Q279 898 272 895L264 892Q261 890 254.5 884.5Q248 879 244 876ZM589 492 465 506 417 309 595 308ZM282 840Q275 840 271.5 844.0Q268 848 268 852L267 857Q267 865 273.5 871.0Q280 877 288 877Q295 877 301.0 871.5Q307 866 307 860Q307 852 299.0 846.0Q291 840 282 840ZM414 892Q414 925 395.0 943.5Q376 962 362.5 964.5Q349 967 337 967Q313 967 290.0 954.5Q267 942 258 920Q287 931 313 931Q337 931 352.0 921.5Q367 912 372.0 901.0Q377 890 384.5 880.5Q392 871 403 871Q404 871 408.0 871.5Q412 872 413 872Q414 879 414 892ZM84 672Q84 681 55 681Q48 681 36.0 680.0Q24 679 21 679H17Q9 683 9 694Q9 714 44 714Q54 714 65.5 713.0Q77 712 84 710L92 709Q102 705 116 703Q133 704 133 704L360 709V712Q360 718 351.5 723.0Q343 728 342 734Q341 745 338.5 752.0Q336 759 334 760L333 761Q321 770 305 770Q303 770 299.0 769.5Q295 769 293 769Q255 769 233.5 801.5Q212 834 212 870Q212 923 246.0 961.5Q280 1000 336 1000Q401 1000 432 946Q446 922 448.0 887.5Q450 853 453 846Q480 828 534.0 747.0Q588 666 596 637Q621 555 621 505V504L639 314V302Q647 264 655.0 239.0Q663 214 665 205Q704 110 710.5 89.5Q717 69 717 43V35Q717 19 713.0 11.0Q709 3 704.5 1.5Q700 0 691 0Q660 0 632.5 0.5Q605 1 604 1Q596 1 595 0Q592 3 588.0 5.5Q584 8 581.5 10.5Q579 13 579 18Q579 38 665 58L581 275L437 279Q437 277 436.5 272.5Q436 268 436 264Q436 256 436.5 240.5Q437 225 439.0 176.5Q441 128 443 75V71Q443 66 442.0 57.0Q441 48 441 45V37Q441 14 434.0 7.5Q427 1 402 1Q396 1 374.5 1.5Q353 2 337 2H331Q320 2 313.0 6.0Q306 10 304.5 13.5Q303 17 303 20Q303 24 305.5 26.5Q308 29 311.5 31.5Q315 34 317 37Q347 50 390 60L376 307H377L432 498Q412 518 412 531Q412 545 440 550V552Q440 584 395 635Q337 598 310.0 587.0Q283 576 250.0 572.0Q217 568 126 566Q109 566 103 557Q103 556 101.0 555.5Q99 555 97 554L95 553Q88 543 58 543Q45 543 45.0 550.0Q45 557 56.0 557.5Q67 558 70 564Q74 567 74 567Q67 574 45 574Q38 574 26.0 573.0Q14 572 11 572H8Q0 576 0 587Q0 607 35 607Q45 607 56.5 605.5Q68 604 76 603L83 602Q93 598 106 596Q124 597 124 597L270 623L344 666L135 674H131Q126 674 123.0 672.5Q120 671 117.0 667.0Q114 663 113.0 662.0Q112 661 108.0 658.5Q104 656 103 655Q97 644 65 644Q53 644 53 653V655Q55 657 65.0 659.0Q75 661 78 667Q79 669 82 671Z" fill="currentColor"/>
  </g>
</svg>