<svg xmlns="http://www.w3.org/2000/svg" viewBox="0 0 922 1000">
  <g transform="scale(1,-1) translate(0,-1000)">
    <path d="M279 112H263Q227 110 200.5 85.0Q174 60 167 20H364Q357 58 333.5 83.0Q310 108 279 112ZM634 953Q665 949 695.0 930.0Q725 911 725 880Q725 878 724.5 870.5Q724 863 724 860Q724 855 725.0 851.0Q726 847 729.0 844.0Q732 841 732.5 840.0Q733 839 739 836L745 832Q768 867 768 887Q768 919 742.5 943.0Q717 967 678 967Q653 967 634 953ZM631 903Q638 903 643.0 896.5Q648 890 648 882Q648 876 642.5 871.5Q637 867 631 867Q607 867 607 882Q607 903 631 903ZM753 486 628 501 620 378Q677 374 762 366Q762 384 757.5 424.5Q753 465 753 486ZM629 716Q650 668 650 619Q650 587 642 529L744 518Q744 528 746.0 554.0Q748 580 748 588Q748 675 766 712Q749 737 739.5 765.5Q730 794 713 812V816Q696 828 696 860Q696 864 696.5 870.5Q697 877 697 880Q697 896 679.5 907.0Q662 918 644 922L626 925Q621 925 612.0 923.5Q603 922 600 922Q586 900 586 877Q586 844 614.0 821.5Q642 799 642 767Q642 760 634.5 746.5Q627 733 627 725Q627 722 629 716ZM166 803Q148 816 125 816H121Q85 816 59.0 800.5Q33 785 33 760Q33 732 58.0 714.0Q83 696 118 696H120Q142 696 167 714Q131 738 121 749Q116 754 117.0 761.0Q118 768 124 772ZM795 313V301Q802 244 802 210V200L801 74Q799 56 799 43V35Q799 19 795.0 11.0Q791 3 786.5 1.5Q782 0 773 0H685Q675 0 669.0 4.5Q663 9 661.5 12.5Q660 16 660 19Q660 38 747 59L734 281H636Q635 267 632.5 247.0Q630 227 627.5 212.0Q625 197 625 195Q622 172 614.5 131.0Q607 90 605 75V71Q605 66 604.0 56.5Q603 47 603 44V36Q603 13 596.0 6.5Q589 0 564 0H492Q481 0 474.0 4.0Q467 8 465.5 12.0Q464 16 464 19Q464 39 552 60L574 309H575L578 338Q533 348 391 378Q389 378 386.0 378.5Q383 379 382 379Q373 379 373 389Q373 394 376.0 397.0Q379 400 384 400Q385 399 389 398Q394 398 413.5 396.0Q433 394 479.0 390.0Q525 386 583 381L595 492Q607 616 607 616Q596 597 576.0 555.5Q556 514 543.5 493.5Q531 473 518 468Q487 455 393 455Q351 455 299 457Q292 457 289 456V151L356 189Q359 192 364 192Q373 192 378 184Q380 182 380 176Q380 165 372 162L309 126Q331 119 348.0 104.5Q365 90 373.0 76.0Q381 62 385.5 45.5Q390 29 391.0 22.0Q392 15 392 12Q392 10 388 4Q384 0 379 0H159Q153 0 149 4Q146 8 146.0 12.0Q146 16 146.5 23.0Q147 30 152.0 47.0Q157 64 165.5 79.0Q174 94 191.5 108.0Q209 122 233 128L175 161Q167 166 167 176Q167 182 169 184Q172 192 183 192Q188 192 191 189L257 152V440H256Q238 445 238 479Q238 509 257 512V661Q256 663 256 667Q256 738 244 740Q223 743 205 743Q193 742 181 742Q190 736 197 729Q203 723 205 717Q206 715 206 711Q206 702 199 698Q178 683 171.0 678.5Q164 674 152.0 669.5Q140 665 127 664Q126 664 123.0 663.5Q120 663 119 663Q111 663 95 665Q57 669 28.5 696.0Q0 723 0 759Q0 802 36.5 825.0Q73 848 120 848H124Q161 848 201 815Q208 810 208 802Q206 792 201 789L180 774Q205 775 205 775Q224 775 248 772Q280 768 286 723Q288 705 288 670H289V504H300Q457 510 458 510Q475 511 496.5 548.0Q518 585 542.5 635.5Q567 686 582 705Q592 709 600.0 728.5Q608 748 608 767Q608 780 599.5 789.0Q591 798 580.5 804.5Q570 811 561.5 829.5Q553 848 553 877Q553 925 592.0 962.5Q631 1000 678 1000Q738 1000 769.0 962.5Q800 925 800 894Q800 870 795.0 857.5Q790 845 763 798Q779 749 784 738Q795 716 795 711Q808 707 820.5 693.5Q833 680 838 667L882 536L878 405Q888 361 889 356Q893 356 901.0 355.0Q909 354 913 354Q922 354 922.0 344.0Q922 334 912 334Q909 334 891 336Q891 334 890.5 330.0Q890 326 890 324Q890 319 889.5 316.0Q889 313 886.5 311.5Q884 310 883.0 309.0Q882 308 877.0 307.0Q872 306 869 305H865Q834 308 829 342Q825 343 818.5 343.5Q812 344 808 344Q801 332 795 317ZM697 311Q627 328 616 330L615 311ZM760 318Q762 329 762 344Q762 344 749.5 345.5Q737 347 715.0 349.5Q693 352 667.0 354.5Q641 357 607.0 360.0Q573 363 542 366Q621 347 760 318ZM829 361V365Q829 368 832.5 378.0Q836 388 836 395L837 476Q831 506 831 506L791 599Q790 600 788.0 601.5Q786 603 785 604Q786 585 786 546Q786 517 785 499L792 364Q798 364 810.5 363.0Q823 362 829 361Z" fill="currentColor"/>
  </g>
</svg>