<svg xmlns="http://www.w3.org/2000/svg" viewBox="0 0 928 1000">
  <g transform="scale(1,-1) translate(0,-1000)">
    <path d="M181 742Q206 725 206 711Q206 702 199 698Q178 683 171.0 678.5Q164 674 152.0 669.5Q140 665 127 664Q126 664 123.0 663.5Q120 663 119 663Q66 663 33.0 692.0Q0 721 0 759Q0 802 36.5 825.0Q73 848 120 848H124Q161 848 201 815Q208 810 208 802Q206 792 201 789L180 774Q205 775 205 775Q261 775 274.5 756.5Q288 738 288 670H289V514Q307 514 313 504Q449 509 458 510Q475 511 496.5 548.0Q518 585 542.5 635.5Q567 686 582 705Q592 709 600.0 728.5Q608 748 608 767Q608 780 599.5 789.0Q591 798 580.5 804.5Q570 811 561.5 829.5Q553 848 553 877Q553 925 592.0 962.5Q631 1000 678 1000Q728 1000 759.5 971.5Q791 943 798 904Q812 895 854.0 874.5Q896 854 919 852Q928 852 928.0 842.0Q928 832 918 832Q889 832 800 881Q799 870 794.5 857.0Q790 844 786.5 837.0Q783 830 774.0 815.5Q765 801 763 798Q779 749 784 738Q795 716 795 711Q807 707 819.5 693.5Q832 680 838 667L882 483L881 325Q896 262 896 242V234Q894 207 870 199H866Q861 199 858.0 201.0Q855 203 853.5 208.5Q852 214 851.0 220.0Q850 226 848.0 239.5Q846 253 843 266V270Q843 275 844.0 278.0Q845 281 845 288Q845 301 844 314L837 423Q831 453 831 453L791 599Q789 600 785 604Q786 585 786 546Q786 517 785 499L795 313Q795 294 812.5 219.5Q830 145 846 109Q848 98 855.5 76.5Q863 55 863 49Q863 37 845 30Q826 23 805.5 15.0Q785 7 776.0 3.5Q767 0 762 0H759Q732 0 732 12Q732 32 800 77L734 281H636Q635 265 626 194L605 75V71Q605 66 604.0 56.5Q603 47 603 44V36Q603 13 596.0 6.5Q589 0 564 0H492Q481 0 474.0 4.0Q467 8 465.5 12.0Q464 16 464 19Q464 39 552 60L574 309H575L595 492Q607 616 607 616Q596 597 576.0 555.5Q556 514 543.5 493.5Q531 473 518 468Q489 456 420 456Q399 456 365.5 457.0Q332 458 325 458Q313 458 312 457Q312 457 311.0 455.0Q310 453 308.5 451.5Q307 450 304.5 448.0Q302 446 298.5 444.5Q295 443 291 443H289V279L356 317Q359 320 364 320Q366 320 369.5 319.0Q373 318 376.5 314.0Q380 310 380 304Q380 293 372 290L309 254Q344 243 366.0 214.0Q388 185 391 142Q391 142 392 141V140Q392 137 388.0 132.5Q384 128 379 128H159Q146 128 146 140V142Q156 238 233 256L175 289Q167 294 167 304Q167 320 183 320Q188 320 191 317L257 280V440H256Q238 445 238 479Q238 509 257 512V661Q256 663 256 667Q256 738 244 740Q223 743 205 743Q193 742 181 742ZM166 803Q148 816 125 816H121Q85 816 59.0 800.5Q33 785 33 760Q33 732 58.0 714.0Q83 696 118 696H120Q142 696 167 714Q131 738 121 749Q117 753 117 759Q117 768 124 772ZM627 725Q627 721 632.5 708.0Q638 695 644.0 671.5Q650 648 650 619Q650 587 642 529L744 518Q744 528 746.0 554.0Q748 580 748 588Q748 675 766 712Q749 737 739.5 765.5Q730 794 713 812V816Q696 828 696 860Q696 864 696.5 870.5Q697 877 697 880Q697 896 679.5 907.0Q662 918 644 922L626 925Q621 925 612.0 923.5Q603 922 600 922Q586 900 586 877Q586 844 614.0 821.5Q642 799 642 767Q642 760 634.5 746.5Q627 733 627 725ZM753 486 628 501 615 311H758ZM631 903Q638 903 643.0 896.5Q648 890 648 882Q648 876 642.5 871.5Q637 867 631 867Q607 867 607 882Q607 903 631 903ZM634 953Q665 949 695.0 930.0Q725 911 725 880Q725 878 724.5 870.5Q724 863 724 860Q724 855 725.0 851.0Q726 847 729.0 844.0Q732 841 732.5 840.0Q733 839 739 836L745 832Q768 867 768 887Q768 919 742.5 943.0Q717 967 678 967Q653 967 634 953ZM278 237H262Q225 235 199.5 212.5Q174 190 167 151H364Q357 188 333.5 210.5Q310 233 278 237Z" fill="currentColor"/>
  </g>
</svg>