<svg xmlns="http://www.w3.org/2000/svg" viewBox="0 -2048 2048 2048">
	<path fill="currentColor" d="M1554 303Q1536 320 1522 320Q1517 320 1506 318Q1495 316 1489 317Q1476 325 1471 325H1269V273Q1324 273 1379 250Q1448 222 1448 175Q1448 108 1404 -63Q1392 -85 1371 -131Q1357 -175 1328 -262H1229Q1156 -173 1143 -121Q1137 -80 1118 1Q1091 47 1047 134Q1034 164 1018 292Q1016 305 991 317Q971 326 962 326Q956 326 948.5 320.5Q941 315 935 315Q928 315 923 320Q918 325 911 325H714V273Q747 275 800 264Q907 242 950 121Q973 23 997 -75Q1001 -109 1011 -180Q1030 -228 1066 -334Q1168 -700 1168 -682Q1168 -709 1107 -821Q1048 -927 1030 -943.5Q1012 -960 970 -960Q922 -960 837 -928Q752 -896 710 -896Q703 -896 554 -941Q405 -986 398 -986Q392 -986 373.5 -983.5Q355 -981 348 -981Q257 -981 196 -1048Q175 -1051 100 -1051V-1144H559V-1045Q492 -1053 433 -1046Q435 -1042 442 -1035Q516 -1029 705 -1007L1074 -1139Q1078 -1136 1078 -1148Q1078 -1169 1064 -1180Q1035 -1176 1010 -1195Q985 -1214 985 -1243Q985 -1253 988 -1263Q974 -1267 960 -1271Q946 -1275 946 -1296Q946 -1302 956.5 -1330.5Q967 -1359 970 -1370Q1008 -1531 1163 -1531Q1224 -1531 1261 -1495Q1285 -1472 1300 -1430Q1313 -1394 1316 -1394Q1323 -1394 1326.5 -1396.5Q1330 -1399 1337 -1399Q1351 -1399 1365.5 -1384.5Q1380 -1370 1380 -1359Q1380 -1340 1327 -1311L1390 -1216Q1376 -1205 1345 -1177Q1327 -1211 1287 -1283Q1242 -1227 1242 -1198Q1242 -1193 1257 -1167Q1305 -1157 1315 -1153Q1354 -1138 1367 -1106Q1387 -1057 1399 -986Q1417 -884 1418 -878Q1449 -785 1507 -603L1459 -454Q1466 -377 1487 -222Q1493 -187 1517 -103Q1538 -27 1538 -22V123Q1538 125 1554 303ZM1353 -1348V-1366L1319 -1372Q1316 -1372 1312 -1361.5Q1308 -1351 1306 -1349Q1309 -1346 1315 -1342Q1321 -1338 1324 -1335Q1336 -1339 1353 -1348ZM1290 -1388Q1290 -1435 1244 -1472Q1202 -1505 1155 -1505Q1051 -1505 1020 -1432L1277 -1352Q1290 -1378 1290 -1388ZM1344 -1236L1338 -1251L1330 -1248L1337 -1236ZM1357 -1215L1348 -1235L1341 -1232L1350 -1215ZM1263 -1295V-1314Q1245 -1314 1223 -1325Q1216 -1313 1216 -1290Q1216 -1266 1240 -1251Q1242 -1258 1254 -1274Q1263 -1288 1263 -1295ZM1416 -787Q1384 -906 1376 -968Q1361 -1093 1326 -1121Q1314 -1131 1284.5 -1136Q1255 -1141 1246 -1146Q1225 -1159 1217 -1205Q1226 -1217 1226 -1228Q1217 -1233 1203 -1255Q1189 -1277 1189 -1285Q1189 -1291 1191.5 -1308.5Q1194 -1326 1194 -1334Q1173 -1339 1128.5 -1352.5Q1084 -1366 1063 -1371Q1074 -1348 1074 -1335H1055Q1041 -1341 1018 -1347Q1016 -1353 1009 -1365Q1012 -1368 1019.5 -1373Q1027 -1378 1030 -1381Q1019 -1381 1019 -1388Q1004 -1389 973 -1294Q1005 -1294 1015 -1279Q1007 -1247 1015 -1215Q1040 -1213 1087 -1199Q1096 -1177 1110 -1133L710 -986L438 -1005Q478 -1002 574 -962Q667 -923 713 -923Q722 -923 848.5 -954.5Q975 -986 980 -986Q1049 -986 1116 -867Q1154 -786 1191 -706ZM1480 -595Q1480 -624 1426 -759Q1293 -717 1191 -677Q1149 -540 1079 -289H1453V-318Q1453 -320 1445 -371.5Q1437 -423 1437 -455Q1437 -470 1439 -481Q1442 -498 1461 -544Q1480 -590 1480 -595ZM538 -1118H127V-1077H532Q532 -1078 535 -1091.5Q538 -1105 538 -1118ZM1528 267Q1528 260 1520 226Q1512 192 1512 186V-37Q1512 -44 1491 -126Q1466 -225 1458 -261H1359Q1384 -197 1425 -78Q1439 -29 1458 73Q1475 164 1475 177Q1475 227 1411 262Q1365 288 1306 298H1471Q1477 299 1487.5 291Q1498 283 1504 283Q1519 283 1519 294Q1528 285 1528 267ZM427 -1009Q415 -1033 409 -1039Q363 -1004 306 -1010Q312 -1009 427 -1009ZM358 -1042V-1052H259V-1042ZM1194 -261H1069Q1055 -229 1032 -164Q1030 -135 1023 -85Q1014 -44 968 116Q961 148 939 200Q905 247 851 269Q806 283 761 298H895Q902 299 921 294Q940 289 946 289Q953 289 960 294Q967 299 972 299Q981 299 993 287Q990 230 1019 156Q1050 90 1081 23Q1101 -50 1148 -184Q1165 -223 1194 -261Z"/>
</svg>