<svg xmlns="http://www.w3.org/2000/svg" viewBox="0 -2048 2048 2048">
	<path fill="#000000" d="M2045 195Q2045 230 2011 252Q1985 270 1961 270Q1954 270 1930 259.5Q1906 249 1899 249Q1894 249 1875.5 258.5Q1857 268 1849 269Q1787 275 1754 275Q1721 275 1637 263Q1642 246 1653 214Q1711 205 1768 196Q1873 168 1873 103Q1873 22 1785 -141Q1667 -360 1665 -366Q1654 -414 1621 -510H1479Q1438 -459 1369 -349Q1363 -302 1344 -215Q1287 -95 1186 150Q1182 182 1161 237Q1153 247 1127 261Q1101 275 1091 275Q1080 275 1031 238Q1024 241 995 261Q974 275 966 275H788Q788 258 784 254Q782 261 775 280H213L100 -78Q110 -78 118 -85Q233 76 297 189Q297 189 346 189Q384 189 396 188Q401 179 416 160Q407 151 401 151Q401 149 404 138.5Q407 128 407 122Q407 47 407 47Q398 12 404 -33Q356 -90 338 -90Q331 -90 327.5 -84.5Q324 -79 317 -79Q306 -79 287 -98Q306 -144 402 -195Q427 -195 476 -214Q505 -255 569 -342Q632 -419 748 -573Q749 -574 749 -606Q749 -675 725 -780Q711 -842 697 -904Q692 -939 707 -1021Q675 -1039 640 -1047Q626 -1022 612 -996Q584 -950 564 -950Q561 -950 505 -977Q500 -972 489 -958Q478 -944 473 -939Q457 -944 433 -957Q290 -1089 285 -1094Q244 -1143 244 -1219Q244 -1305 310 -1363Q373 -1417 457 -1417Q539 -1417 604 -1360Q723 -1256 768 -1229Q816 -1294 946 -1294Q994 -1294 1084 -1271Q1193 -1242 1236 -1236Q1364 -1228 1618 -1195Q1676 -1183 1733 -1098Q1785 -1021 1785 -969Q1774 -918 1770 -819Q1788 -685 1842 -491Q1857 -439 1902 -335Q1947 -231 1962 -179Q1985 -98 2016 48Q2045 182 2045 195ZM1802 -537L1744 -843Q1744 -856 1752.5 -898.5Q1761 -941 1761 -963Q1761 -979 1758 -991Q1741 -1052 1714 -1083Q1639 -1170 1596 -1170Q1552 -1170 1450 -1045Q1402 -982 1354 -918Q1349 -923 1342 -923L1234 -537ZM2023 197Q2023 191 2009 154.5Q1995 118 1992 106Q1974 1 1930 -190Q1890 -299 1812 -509H1653Q1657 -439 1777 -219Q1894 -2 1894 93Q1894 173 1807 208Q1775 221 1663 240Q1724 254 1741 254Q1780 254 1865 236Q1869 235 1880.5 228.5Q1892 222 1899 222Q1906 222 1927.5 232.5Q1949 243 1956 243Q1969 243 1994 229Q2023 213 2023 197ZM658 -1281Q596 -1344 564 -1365Q516 -1396 462 -1396Q366 -1396 305 -1325Q291 -1309 278 -1268Q266 -1233 266 -1221Q266 -1190 287 -1146Q311 -1096 344 -1074Q382 -1124 451 -1225Q451 -1245 460 -1279Q480 -1310 500 -1310Q498 -1310 542.5 -1277.5Q587 -1245 610 -1245Q639 -1245 658 -1281ZM1539 -1174L943 -1267Q872 -1273 804 -1227Q801 -1225 790.5 -1213.5Q780 -1202 774 -1202Q766 -1202 732 -1223Q687 -1251 676 -1256Q654 -1224 612 -1224Q575 -1224 544 -1246Q527 -1259 494 -1283Q477 -1272 478 -1252Q479 -1217 479 -1216Q477 -1208 422.5 -1144Q368 -1080 368 -1057Q368 -1044 462 -966Q476 -983 500 -1014Q525 -995 565 -977Q588 -1015 629 -1079Q665 -1066 732 -1037Q731 -1028 722 -978Q716 -943 719 -925Q735 -872 758 -775Q776 -653 776 -609Q776 -574 775 -572Q745 -520 601 -336Q556 -273 487 -193Q469 -181 428 -171.5Q387 -162 363 -145Q383 -155 395 -155Q403 -155 404.5 -151.5Q406 -148 407 -147Q455 -112 439 -53Q485 -111 571 -207Q655 -278 739 -350Q860 -459 871 -522Q871 -563 878 -641L883 -891Q899 -886 931 -875V-894Q904 -968 920 -1009Q937 -1009 943 -1001Q935 -984 939 -963Q961 -859 1003 -630Q1004 -623 1012 -592Q1018 -567 1018 -560Q1018 -542 901 -382Q797 -238 748 -180Q719 -145 637 -88Q642 -85 651 -76Q649 -68 634.5 -48.5Q620 -29 620 -23Q620 -11 635.5 3Q651 17 661 17Q688 17 706 -5Q708 -7 740 -59Q775 -115 934 -272Q1076 -411 1102 -484Q1120 -534 1120 -611L1077 -963Q1077 -987 1093 -987Q1101 -987 1104 -984Q1102 -946 1116 -880Q1170 -897 1225 -913Q1295 -933 1334 -930Q1414 -1051 1539 -1174ZM1319 -901H1290Q1308 -900 1115 -863V-840Q1115 -833 1128.5 -717Q1142 -601 1142 -595Q1142 -513 1124 -464Q1095 -386 999 -293Q840 -141 832 -132Q797 -84 761 -35Q712 30 680 41Q681 42 682 43Q686 48 687 54Q701 86 701 125Q701 150 697 156Q693 157 701 173Q729 128 779 49Q798 14 817 -20Q848 -74 870 -74Q893 -74 889 -53L804 216H823Q890 190 984 143Q1058 106 1064 80Q1100 -104 1181 -463Q1229 -609 1319 -901ZM1442 -514H1229Q1189 -437 1172 -286Q1154 -207 1122 -66Q1111 0 1086 89Q1048 152 961 192Q888 219 814 247H961Q968 248 994 233Q1027 214 1034 211L1098 254Q1132 248 1165 128Q1180 73 1248 -53Q1312 -171 1322 -227Q1327 -276 1342 -350Q1356 -384 1390 -435Q1439 -508 1442 -514ZM991 -571Q991 -590 940 -847Q922 -858 901 -858L905 -630Q904 -625 898 -548Q894 -498 877 -470Q809 -356 600 -200Q557 -168 514 -101Q477 -43 438 -24V166Q452 180 438 188H652Q662 158 661 156Q657 144 659 123Q656 117 651 106Q655 93 652 40Q619 23 597 -9Q565 7 564 7Q551 7 551 -17Q551 -53 623 -109Q720 -185 736 -204Q781 -259 876 -390Q991 -549 991 -571ZM363 -138L360 -146L347 -139V-131ZM416 -93Q402 -122 392 -122Q382 -122 363 -103Q380 -85 409 -63ZM850 -20L708 211H281L144 -9L229 253H759ZM497 -1106Q497 -1094 467 -1063Q437 -1032 429 -1031Q422 -1038 422 -1057Q422 -1092 439 -1102Q465 -1114 490 -1127Q490 -1125 493.5 -1119.5Q497 -1114 497 -1106Z"/>
</svg>