<svg xmlns="http://www.w3.org/2000/svg" viewBox="0 -2048 2048 2048">
	<path fill="#000000" d="M1327 -727Q1327 -678 1273 -558Q1221 -442 1222 -434Q1229 -397 1218 -316Q1206 -230 1189 -230Q1181 -230 1173 -235.5Q1165 -241 1163 -241Q1168 -272 1172 -303Q1178 -344 1169 -368Q1162 -357 1145 -331Q1127 -331 1127 -331Q1127 -336 1121 -351Q1115 -366 1115 -373Q1115 -377 1132 -405.5Q1149 -434 1150 -450Q1161 -596 1205 -719L1118 -976Q1078 -853 1078 -788Q1078 -783 1102 -693Q1126 -603 1126 -595Q1126 -589 1105 -530Q1080 -460 1074 -438Q1073 -434 1073 -381Q1073 -319 1081 -259Q1097 -185 1123 -37Q1125 29 1137 169Q1140 188 1156.5 233Q1173 278 1173 283Q1173 320 1133 320Q1126 320 1114.5 315Q1103 310 1096 310Q1089 310 1088 315Q1087 320 1080 320H867V279Q920 263 973 247Q1051 217 1051 172Q1051 129 1031 46Q1013 -31 1002 -51Q967 -111 958 -159Q952 -201 946 -242Q942 -246 801 -246Q775 -207 757 -133Q744 -82 732 -31Q696 44 633 197Q634 228 632 291Q631 299 617 312.5Q603 326 594 326Q578 326 562 310Q557 315 547 325H333Q338 295 338 268Q410 259 436 251Q501 232 532 189Q550 164 577 68Q597 -1 632 -138Q632 -161 635 -206Q642 -219 655 -242Q626 -249 592 -241L819 -698Q819 -698 773 -928Q741 -859 709 -790Q653 -679 594 -679Q541 -679 293 -844L194 78Q203 83 228 72H247L149 352L100 46Q118 60 159 83L258 -850Q254 -853 236 -853Q225 -853 218 -855Q179 -867 179 -910Q179 -915 181.5 -941.5Q184 -968 184 -980Q201 -990 250 -975H264L296 -1277H325Q332 -1279 332 -1267L300 -947Q300 -927 306 -922Q317 -914 436 -862Q477 -842 561 -806Q561 -807 638 -976Q681 -1073 724 -1099.5Q767 -1126 836 -1129L840 -1133V-1168Q811 -1172 767 -1193Q758 -1203 762 -1228Q767 -1257 764 -1268Q749 -1279 718 -1306Q805 -1448 814 -1459Q869 -1526 946 -1526Q1019 -1526 1061 -1477Q1099 -1433 1099 -1370Q1099 -1322 1069 -1264Q1039 -1211 1009 -1158V-1144Q1021 -1139 1085 -1133Q1137 -1129 1167 -1105Q1222 -1061 1277 -923Q1327 -795 1327 -727ZM1078 -1383Q1078 -1438 1029 -1473Q985 -1505 932 -1505Q898 -1505 859 -1475Q816 -1443 803 -1400Q899 -1379 949 -1362Q963 -1388 983 -1388Q995 -1388 1002 -1374Q1013 -1354 995 -1286Q990 -1266 1000 -1256Q1002 -1256 1009.5 -1253.5Q1017 -1251 1025 -1251Q1047 -1251 1064 -1311Q1078 -1359 1078 -1383ZM1305 -727Q1305 -793 1239 -942Q1168 -1103 1118 -1106Q1078 -1108 1038 -1111Q990 -1116 982 -1127Q981 -1132 981 -1138Q981 -1185 1014 -1228Q967 -1249 967 -1275Q967 -1280 974 -1313.5Q981 -1347 981 -1362Q975 -1351 964 -1335L857 -1361Q857 -1325 852 -1319Q815 -1328 792 -1339V-1359Q804 -1369 813 -1369L788 -1378Q774 -1352 750 -1305Q796 -1293 796 -1257Q796 -1266 787 -1210Q814 -1205 862 -1194Q860 -1150 867 -1117Q822 -1111 746 -1084Q694 -1048 662 -970Q606 -836 567 -769Q470 -832 304 -887Q294 -890 282 -915Q288 -902 274 -877Q278 -875 370 -821Q420 -789 470 -758Q564 -701 589 -701Q658 -701 775 -1002Q785 -999 798 -993Q795 -900 841 -706Q920 -723 1062 -750Q1056 -765 1056 -788Q1056 -824 1074 -897Q1097 -992 1100 -1014Q1108 -1024 1117 -1024Q1134 -1005 1182.5 -872.5Q1231 -740 1231 -714Q1231 -709 1209 -641Q1186 -567 1180 -534Q1179 -527 1178 -473Q1177 -412 1152 -402Q1180 -394 1198 -384Q1197 -436 1211 -479.5Q1225 -523 1268 -629Q1305 -722 1305 -727ZM1099 -595Q1099 -629 1061 -727Q997 -718 934 -710Q858 -699 841 -677Q802 -627 634 -273H1062V-302Q1054 -344 1047 -428Q1048 -456 1073.5 -511Q1099 -566 1099 -595ZM258 -917Q249 -925 212 -944Q200 -920 200 -912Q200 -901 223 -881H251Q259 -897 258 -917ZM1147 287V264Q1147 260 1132.5 229.5Q1118 199 1116 185Q1096 34 1066 -245H967Q996 -132 1039 -25Q1045 -10 1063 112Q1065 124 1072 154Q1078 179 1078 185Q1078 245 898 298H1069Q1076 299 1081.5 291Q1087 283 1094 283Q1106 283 1134 299ZM771 -245H688Q663 -204 658 -169Q650 -104 642 -74Q627 -22 603 74Q588 146 548 201Q493 276 414 280Q407 280 386.5 285.5Q366 291 358 291L525 299Q530 299 542.5 291Q555 283 562 283Q568 283 575.5 291Q583 299 589 299Q595 299 607 287V248Q607 183 636 127Q686 32 695 6Q712 -82 771 -245ZM210 104Q165 119 160 119Q147 119 132 104L155 257Q163 233 182.5 180.5Q202 128 210 104Z"/>
</svg>