<svg xmlns="http://www.w3.org/2000/svg" viewBox="0 0 625 1000">
  <g transform="scale(1,-1) translate(0,-1000)">
    <path d="M114 542Q153 538 161 536H162L275 564L318 602L162 599Q151 599 133.0 594.0Q115 589 114 589H113ZM458 953Q489 949 518.5 930.5Q548 912 548 881Q548 879 547.5 871.5Q547 864 547 861Q547 853 551.0 847.0Q555 841 556.5 840.0Q558 839 568 834Q591 868 591 888Q591 920 566.0 943.5Q541 967 502 967Q477 967 458 953ZM455 904Q462 904 467.0 897.5Q472 891 472 883Q472 877 466.5 872.5Q461 868 455 868Q432 868 432 883Q432 904 455 904ZM576 491 452 505 440 307H581ZM432 713Q471 644 471 601V595Q471 586 466 534L567 523Q567 533 569.0 558.5Q571 584 571 592Q572 624 574.0 652.5Q576 681 577.0 696.5Q578 712 578 720Q578 735 574 747Q545 800 537 813V817Q519 832 519 861Q519 865 519.5 871.5Q520 878 520 881Q520 897 502.5 908.0Q485 919 468 922L450 926Q446 926 424 922Q410 900 410 878Q410 845 438.0 823.0Q466 801 466 769Q466 762 464.5 755.5Q463 749 461.0 745.0Q459 741 454.5 735.5Q450 730 448.0 728.0Q446 726 439.5 720.0Q433 714 432 713ZM77 924Q72 926 66.5 931.5Q61 937 61 941Q61 946 67.0 952.0Q73 958 79 958Q96 954 96 942Q96 936 90 930H91Q93 930 95.0 928.0Q97 926 100.0 923.0Q103 920 105 918L95 914Q96 911 98.5 900.0Q101 889 101 887Q114 883 114 868Q114 858 105 854Q33 823 33 792Q33 770 39.5 761.5Q46 753 66 741Q113 713 113 710V635Q163 627 167 627L306 648L409 739Q433 757 433.0 769.0Q433 781 424.5 790.5Q416 800 405.5 806.5Q395 813 386.5 831.5Q378 850 378 878Q378 925 417.0 962.5Q456 1000 502 1000Q557 1000 589.5 965.5Q622 931 622 888Q622 876 617.5 862.0Q613 848 610.5 842.0Q608 836 597.5 818.5Q587 801 586 800Q593 788 598.0 781.5Q603 775 604.5 773.5Q606 772 608.5 767.0Q611 762 614 750L612 592Q612 584 611.0 568.5Q610 553 610.0 543.0Q610 533 608 503L617 309V297Q625 241 625 207V197L624 73Q622 55 622 43V35Q622 19 618.0 11.0Q614 3 609.5 1.5Q605 0 596 0H509Q498 0 491.0 6.5Q484 13 484 18Q484 38 570 58L557 277H460Q456 223 430 74V70Q430 65 429.0 56.0Q428 47 428 44V36Q428 13 421.0 6.5Q414 0 389 0H318Q307 0 300.0 4.0Q293 8 291.5 11.5Q290 15 290 18Q290 41 377 59L399 305H400L419 497Q399 517 399 530Q399 544 427 549Q431 583 431 595Q431 605 430.5 612.0Q430 619 428.0 625.5Q426 632 424.5 635.5Q423 639 418.5 648.5Q414 658 411 664Q334 558 317 525Q314 519 302 517L167 507Q161 507 114 502V428Q114 422 106.0 417.5Q98 413 91 413Q85 413 80.5 417.5Q76 422 76 428V506Q65 508 57.0 515.0Q49 522 49 529Q49 541 76 544L75 592Q44 604 44 620Q44 633 75 634V695Q23 735 21 737Q0 758 0 794Q0 835 65 872Q65 873 58.5 886.5Q52 900 52 906Q52 906 52.5 907.0Q53 908 53 909Q55 914 65.5 918.5Q76 923 77 924Z" fill="currentColor"/>
  </g>
</svg>