<svg xmlns="http://www.w3.org/2000/svg" viewBox="23.7 -1633.3 1965.6 2059.6">
	<path fill="currentColor" d="M1913 -983Q1911 -983 1901 -979.5Q1891 -976 1884 -976Q1877 -976 1843 -1006Q1809 -1036 1802 -1036Q1764 -1036 1615 -932.5Q1466 -829 1425 -829Q1384 -829 1259 -908Q1134 -987 1104 -987Q1077 -987 1077 -919Q1077 -915 1084 -875Q1091 -835 1091 -816Q1091 -746 1152 -654.5Q1213 -563 1213 -514Q1213 -469 1186 -430Q1159 -391 1159 -371V-212Q1159 -208 1190 -182Q1226 -152 1238 -133Q1264 -84 1312 3Q1317 12 1371 68Q1419 118 1419 130Q1419 156 1341 321Q1338 327 1321.5 338.5Q1305 350 1296 350H1204Q1197 343 1197 328Q1197 321 1200.5 311Q1204 301 1204 298Q1300 259 1300 189Q1300 185 1269 137Q1221 63 1129 -17Q1037 -97 1019 -124Q1016 -129 970 -297Q907 -247 882 -225Q826 -176 801 -140Q795 -132 800 -111Q809 -79 809 -77Q814 -38 792 32Q760 136 758 147Q746 205 746 222Q746 229 756.5 265.5Q767 302 767 309Q767 321 744.5 335.5Q722 350 710 350Q706 350 689 333Q684 338 673 349H431Q431 329 434 308Q437 287 437 285Q585 287 619 205Q662 100 662 -98Q662 -106 655.5 -126Q649 -146 649 -153Q643 -239 661 -263Q700 -314 812 -426Q909 -522 909 -528Q909 -611 743 -959Q712 -923 626 -858Q523 -780 482 -780Q424 -780 330 -896Q276 -966 223 -1036Q197 -1061 143 -1089Q106 -1108 100 -1137Q126 -1150 135 -1150Q138 -1150 172 -1133L181 -1142Q170 -1164 143 -1207Q116 -1250 105 -1272Q118 -1285 135 -1285Q142 -1285 146 -1279Q184 -1225 258 -1132Q277 -1112 482 -921Q556 -1011 644 -1074Q749 -1149 829 -1149L833 -1153V-1211Q814 -1216 775 -1226Q771 -1234 766 -1287Q748 -1295 713 -1314Q763 -1430 787 -1467Q846 -1557 922 -1557Q945 -1557 1000.5 -1529Q1056 -1501 1074.5 -1479.5Q1093 -1458 1093 -1394Q1093 -1346 1080 -1314Q1049 -1262 1017 -1196V-1170Q1132 -1170 1250 -1089Q1334 -1024 1417 -959Q1445 -976 1580 -1039Q1671 -1082 1734 -1148Q1732 -1160 1687 -1213Q1588 -1226 1520 -1299Q1457 -1367 1457 -1440Q1457 -1508 1531 -1508Q1632 -1508 1710 -1349Q1726 -1315 1732 -1278Q1730 -1264 1735 -1235Q1754 -1215 1802 -1159Q1849 -1100 1913 -983ZM1707 -1242V-1300Q1707 -1337 1642 -1408Q1574 -1481 1528 -1481Q1479 -1481 1479 -1440Q1479 -1447 1491 -1385Q1498 -1347 1563.5 -1294.5Q1629 -1242 1667 -1242ZM1815 -1080Q1807 -1095 1793 -1122H1774L1762 -1109Q1780 -1074 1789 -1074Q1797 -1074 1805 -1077Q1813 -1080 1815 -1080ZM1066 -1380Q1066 -1437 1059 -1456.5Q1052 -1476 1005 -1499Q954 -1524 914 -1524Q891 -1524 849 -1492Q803 -1456 795 -1422Q821 -1419 884 -1408Q941 -1399 947 -1399Q954 -1399 969 -1409.5Q984 -1420 987 -1421Q1008 -1401 1008 -1373Q1008 -1360 1001 -1332Q995 -1308 997 -1298Q1001 -1280 1023 -1280Q1066 -1280 1066 -1380ZM1772 -1054Q1753 -1066 1727 -1106Q1700 -1080 1560 -1005Q1426 -932 1414 -932Q1347 -986 1301 -1020Q1178 -1113 1124 -1131Q1109 -1136 1065 -1136.5Q1021 -1137 995 -1148Q995 -1149 995 -1198Q994 -1225 1012 -1245Q968 -1264 968 -1302Q968 -1307 972.5 -1341.5Q977 -1376 977 -1391Q977 -1374 970 -1367L780 -1399Q766 -1372 741 -1325Q807 -1315 795 -1243Q858 -1241 861 -1242V-1138Q817 -1130 773 -1122Q725 -1112 698 -1093Q648 -1059 583 -994Q481 -893 477 -889Q404 -957 268 -1089Q264 -1093 204 -1163Q216 -1111 170 -1106Q205 -1092 236.5 -1055.5Q268 -1019 299 -982Q339 -930 379 -879Q440 -807 488 -807Q531 -807 602 -868Q722 -971 753 -992Q786 -928 849 -778Q936 -572 936 -517Q936 -518 810 -391.5Q684 -265 677 -235Q672 -213 677 -177Q684 -128 684 -120Q684 -112 685 -68Q687 -34 687 -10Q687 211 579 284Q565 294 520 299Q497 303 460 309Q459 312 458 322H666Q673 322 678.5 314Q684 306 691 306Q698 306 702 314Q706 322 713 322Q724 322 740 304Q724 266 724 222Q724 171 750 90Q779 -3 782 -28Q777 -80 774 -147Q777 -167 837 -217Q963 -322 963 -335Q963 -338 957 -361Q953 -380 956 -389H970Q975 -384 978 -381Q992 -315 1021 -201Q1027 -176 1041 -140Q1055 -122 1168 -21Q1259 61 1301 142Q1304 148 1317 165Q1327 177 1327 184Q1327 227 1301 266Q1270 312 1218 321H1304Q1365 230 1392 123Q1318 67 1257 -50Q1204 -150 1143 -176Q1137 -210 1137 -291Q1137 -382 1138 -386Q1145 -414 1169 -463Q1191 -507 1191 -511Q1191 -545 1140 -629Q1112 -674 1084 -719Q1050 -832 1050 -902Q1050 -945 1081 -1019Q1145 -1000 1285 -925Q1414 -856 1419 -856Q1463 -856 1733 -1039Q1758 -1055 1772 -1054ZM860 -1342Q848 -1330 848 -1324Q819 -1335 790 -1335Q783 -1364 813 -1383Q838 -1375 860 -1342Z"/>
</svg>