<svg xmlns="http://www.w3.org/2000/svg" viewBox="0 -2048 2048 2048">
	<path fill="currentColor" d="M1433 -807Q1433 -724 1320 -724Q1313 -724 1269.5 -735Q1226 -746 1220 -746H1196Q1245 -617 1245 -625Q1245 -630 1220.5 -507.5Q1196 -385 1196 -324Q1196 -273 1211 -226Q1236 -148 1248 -88Q1264 -8 1285 144Q1304 279 1304 294Q1304 340 1263 340Q1257 340 1246 332Q1235 324 1229 324Q1227 324 1216 334H993Q993 311 995.5 293Q998 275 998 276Q1089 264 1116 251Q1169 227 1169 165Q1169 122 1149 92H856Q793 191 786 305Q784 340 745 340Q738 340 727.5 332Q717 324 710 324Q530 324 487 323Q493 301 493 271Q561 258 596 244Q658 220 690 174Q706 152 725 63Q735 0 757 -120Q786 -243 850 -528Q850 -528 852 -530Q853 -534 850 -541L544 1Q529 -5 503 -17L901 -741L871 -966Q832 -891 744 -741Q707 -737 623 -809Q503 -911 485 -923Q478 -910 481 -866Q480 -865 479 -864Q474 -859 460 -859Q392 -859 266 -935Q155 -1002 100 -1060Q279 -1174 279 -1318Q279 -1341 273 -1363Q275 -1363 279 -1366Q283 -1369 291 -1369Q310 -1369 418 -1324Q519 -1282 539 -1270Q640 -1210 664 -1145Q586 -1123 530 -1044Q613 -959 698 -917Q767 -1127 860 -1152Q886 -1155 939 -1169V-1188Q920 -1192 886 -1204Q867 -1215 879 -1279Q861 -1287 826 -1306V-1323Q826 -1320 856 -1373Q910 -1467 941 -1498Q988 -1546 1054 -1546Q1094 -1546 1130 -1533Q1162 -1522 1183 -1491Q1234 -1418 1234 -1377Q1234 -1352 1205 -1306Q1126 -1181 1126 -1184Q1126 -1165 1143 -1165Q1151 -1165 1323 -1466Q1352 -1350 1352 -1334Q1352 -1309 1336 -1261Q1316 -1201 1290 -1193.5Q1264 -1186 1202 -1166V-1162Q1267 -1144 1351 -1007Q1433 -875 1433 -807ZM1331 -1337Q1331 -1339 1312 -1396L1197 -1193Q1228 -1202 1259 -1210Q1302 -1225 1312 -1258Q1331 -1319 1331 -1337ZM1207 -1377Q1207 -1413 1167 -1465Q1141 -1499 1109.5 -1512Q1078 -1525 1048 -1525Q975 -1525 912 -1419L1049 -1385Q1052 -1387 1066 -1401Q1078 -1412 1086 -1412Q1132 -1412 1132 -1364Q1132 -1357 1121 -1326Q1110 -1295 1110 -1288Q1110 -1274 1117 -1267H1141Q1153 -1279 1172 -1301Q1207 -1362 1207 -1377ZM1282 -844Q1277 -852 1209 -971Q1198 -934 1175 -865Q1206 -855 1282 -844ZM1406 -807Q1406 -883 1325.5 -1003Q1245 -1123 1187 -1138L1051 -893Q1051 -892 1074 -864H1152Q1169 -998 1209 -1014L1331 -823Q1331 -814 1322 -805Q1211 -842 1124 -842Q1117 -842 1103.5 -839.5Q1090 -837 1083 -837Q1065 -837 1042 -858Q1042 -848 1035 -848Q1028 -848 1008 -853.5Q988 -859 981 -859Q960 -859 960 -821Q960 -789 1014 -789Q1021 -789 1033.5 -794Q1046 -799 1051 -799Q1058 -799 1185.5 -775Q1313 -751 1320 -751Q1406 -751 1406 -807ZM1131 -1137Q1110 -1138 1110 -1181Q1110 -1228 1126 -1238Q1083 -1252 1083 -1280Q1083 -1287 1094 -1320.5Q1105 -1354 1105 -1361Q1105 -1377 1097 -1385Q1086 -1374 1064 -1353Q1037 -1361 983 -1374.5Q929 -1388 902 -1396Q879 -1350 852 -1323Q873 -1314 906 -1296Q904 -1286 901 -1260.5Q898 -1235 896 -1225Q920 -1220 965 -1209V-1163Q965 -1151 956 -1144Q908 -1139 837 -1114Q788 -1070 759 -1005Q704 -880 704 -880L516 -1020Q494 -987 487 -963Q576 -879 609 -851Q684 -787 732 -767Q740 -781 813 -926Q862 -1025 879 -1025Q886 -1025 890 -1021L925 -773Q939 -819 964 -900Q980 -903 1001 -903Q1045 -982 1131 -1137ZM1110 -759Q1082 -773 1059 -773Q1053 -773 1040.5 -767.5Q1028 -762 1022 -762Q998 -762 978 -772Q977 -770 955 -731Q996 -738 996 -738L1039 -745ZM632 -1159Q560 -1227 507 -1259Q489 -1270 410 -1303Q331 -1336 322 -1336H305Q309 -1187 143 -1055Q343 -886 431 -886H454Q452 -958 501 -1039Q554 -1126 632 -1159ZM1244 65V14Q1245 -5 1192 -179Q1180 -218 1169 -308L1218 -625Q1194 -689 1193 -691Q1174 -735 1157 -744Q1133 -745 1097 -742Q1053 -739 1040 -739L998 -730Q971 -719 935 -690Q895 -613 877 -542Q867 -504 840 -351Q805 -202 751 65ZM1277 306V277Q1277 293 1262 208Q1248 129 1249 94H1181Q1202 161 1189 208Q1171 275 1086 290Q1067 293 1048 295Q1022 300 1019 312H1205Q1228 291 1230 291Q1233 293 1246 304Q1256 313 1263 313Q1275 313 1277 306ZM825 94H746Q735 133 711 191Q676 241 616 264Q527 298 514 307H688Q695 308 702 300Q709 292 715 292Q722 292 732.5 302.5Q743 313 748 313Q766 300 763 279Q760 252 762 247Q783 195 825 94ZM975 -1327Q951 -1327 907 -1338Q907 -1341 904 -1350Q901 -1359 901 -1362Q913 -1374 930 -1374Q961 -1374 975 -1327Z"/>
</svg>