<svg xmlns="http://www.w3.org/2000/svg" viewBox="0 0 940 1000">
  <g transform="scale(1,-1) translate(0,-1000)">
    <path d="M156 666V664Q163 661 170.0 656.0Q177 651 180 648L184 644L332 594L463 654Q412 656 156 666ZM296 395Q288 395 285 389Q263 354 255.5 325.5Q248 297 240.0 243.0Q232 189 214 128Q203 81 170 57Q164 53 110 33Q115 33 135.0 34.0Q155 35 162 35Q170 35 183.0 33.5Q196 32 201 32Q208 32 210 33Q210 38 209.5 42.5Q209 47 209 50Q209 63 240.5 151.0Q272 239 291 280Q309 319 327.0 319.0Q345 319 405 256Q410 251 419.0 241.5Q428 232 433 227Q433 227 435 228Q447 237 482 259Q485 262 502 274L344 380Q313 395 296 395ZM579 153Q609 166 689 213Q689 224 689.5 236.5Q690 249 690 252Q690 262 689.0 275.0Q688 288 688 314Q668 304 615.5 274.5Q563 245 470.0 184.0Q377 123 330 76Q326 72 326 64Q326 52 334 52Q351 52 579 153ZM564 896Q583 896 583 873Q583 867 577.0 862.5Q571 858 564 858Q539 858 539 873Q539 883 546.5 889.5Q554 896 564 896ZM567 949Q601 944 633.5 924.0Q666 904 666 870Q666 867 665.5 859.5Q665 852 665 850Q665 841 668.5 834.5Q672 828 675.5 826.0Q679 824 688 820Q712 860 712 879Q712 913 684.5 939.0Q657 965 615 965Q589 965 567 949ZM550 637Q594 484 594 412Q594 393 592.0 360.5Q590 328 590 320Q605 326 636.5 343.5Q668 361 687 369Q687 379 688.0 411.0Q689 443 689 448Q696 598 733 693Q649 658 630 649Q623 646 614.5 634.5Q606 623 598 623H595Q572 626 567 649ZM227 934Q230 938 238 938Q244 938 248.5 933.5Q253 929 253 923Q253 920 252 918Q396 816 529 721Q550 736 550 744Q550 745 548 749Q481 816 481 861V867Q486 919 515 949Q563 1000 615 1000Q675 1000 711.0 962.5Q747 925 747 879Q747 866 742.5 851.0Q738 836 734.0 828.0Q730 820 719.5 803.5Q709 787 707 783Q720 758 750 744Q780 757 816.5 773.0Q853 789 874 798L894 807Q900 810 906 810Q922 810 931.0 793.5Q940 777 940 757Q940 744 934 737Q852 643 749 600Q738 565 735 528Q735 526 734.0 513.5Q733 501 732.0 481.5Q731 462 731 446Q731 441 730.5 416.0Q730 391 730 388Q730 360 732.0 307.0Q734 254 734 215Q734 208 733.5 190.0Q733 172 733 161Q747 139 747 101Q747 45 722 9Q722 3 704 3H690Q675 3 675 25Q675 34 679.0 59.0Q683 84 683 95Q683 126 660 126Q638 126 599 103Q584 97 531.5 74.5Q479 52 430.0 34.5Q381 17 325 3Q324 4 318.5 5.0Q313 6 307.5 9.0Q302 12 295.0 23.0Q288 34 285 53V61V82Q285 95 319.5 131.0Q354 167 408 208Q395 220 367.0 242.0Q339 264 331 271Q318 247 298.0 192.5Q278 138 263.5 95.5Q249 53 249 51Q249 47 249.5 40.5Q250 34 250 31Q250 11 235.0 7.0Q220 3 164 3Q146 3 120.0 1.5Q94 0 80.0 0.0Q66 0 22 4Q0 6 0 30Q0 48 15 54Q41 65 82.0 68.5Q123 72 146 89Q166 103 175 138Q181 160 182 162Q188 182 203.5 270.5Q219 359 251 411Q265 435 296 435Q306 435 318.0 432.0Q330 429 340.0 425.5Q350 422 358.0 418.0Q366 414 371 411L376 408Q538 296 538.0 296.0Q538 296 548 301Q548 330 551.0 355.0Q554 380 554 400Q554 489 517 611Q516 610 514.5 610.0Q513 610 512 609L214 395Q219 390 219.0 384.0Q219 378 214.5 373.5Q210 369 204 369Q192 369 173.0 396.0Q154 423 138.0 473.5Q122 524 122 577Q122 580 122.5 590.5Q123 601 123 618Q113 631 113 641Q113 652 126 665V667Q118 668 101.0 668.5Q84 669 75 669V647L17 684L76 717V693Q85 692 127 692Q130 742 152 805Q154 812 159.0 826.0Q164 840 166.5 847.0Q169 854 173.0 864.0Q177 874 182.0 881.5Q187 889 193 895Q227 931 227 934ZM869 748Q869 748 784 714Q787 687 793 687Q810 687 869 748ZM201 410 437 580Q362 551 340 550H336Q311 550 251.5 574.0Q192 598 184 600H182Q176 600 166.0 598.0Q156 596 152 596V575Q152 565 153.5 547.0Q155 529 167.5 485.5Q180 442 201 410ZM240 902Q208 866 200.0 852.5Q192 839 176 795Q160 753 157 691Q239 688 499 678L502 693Q504 701 513 709Q404 787 240 902ZM560 675Q557 677 551.5 681.0Q546 685 543 687Q541 686 538 683Q538 682 539.0 679.5Q540 677 540 676Q544 676 550.0 675.5Q556 675 560 675ZM576 688Q581 693 591.5 694.0Q602 695 632.0 701.5Q662 708 704 725Q700 728 691 737Q681 747 675.0 756.0Q669 765 663.5 777.5Q658 790 654 798Q635 810 635 850Q635 854 635.5 860.5Q636 867 636 870Q636 887 616.5 899.5Q597 912 578 916L558 920Q557 920 532 915Q516 895 516 867Q516 854 519 841Q521 829 537.5 817.0Q554 805 568.5 788.5Q583 772 583 749Q583 724 558 701Q560 700 566.5 695.0Q573 690 576 688Z" fill="currentColor"/>
  </g>
</svg>