<svg xmlns="http://www.w3.org/2000/svg" viewBox="0 -2048 2048 2048">
	<path fill="currentColor" d="M1123 135Q1123 177 1094 316Q1090 333 1062 341Q1043 345 1024 350L973 344V303Q997 299 1014.5 276.5Q1032 254 1032 234V187Q1028 183 1021 183Q1005 183 799.5 266.5Q594 350 528 350Q484 350 453.5 322Q423 294 423 251Q423 189 492 83Q552 -5 612 -93Q482 -121 416 -162Q416 -154 419 -89Q422 -40 419 -8Q411 51 397 159Q395 180 402 224Q410 275 410 299Q410 307 397 327Q382 350 366 350Q361 350 347 342Q333 334 326 334Q319 334 313.5 342Q308 350 301 350H100V287Q156 282 212 278Q283 261 293 200L229 -232Q248 -361 339 -361Q383 -361 684 -264Q687 -262 692 -267Q676 -288 550 -486Q427 -649 303 -811Q105 -1073 105 -1129Q105 -1137 115 -1144.5Q125 -1152 125 -1152Q186 -1217 358 -1322Q349 -1325 333 -1320Q314 -1314 310 -1314Q293 -1314 285.5 -1328Q278 -1342 272 -1356Q289 -1356 320 -1367V-1371Q332 -1371 208 -1353L202 -1405Q286 -1433 304 -1433Q311 -1433 379.5 -1411.5Q448 -1390 455 -1390Q486 -1390 577.5 -1462.5Q669 -1535 728 -1535H761Q764 -1522 773 -1499Q733 -1489 649 -1457Q659 -1451 707 -1459Q707 -1457 710 -1446Q713 -1435 713 -1428Q694 -1421 654 -1404Q661 -1403 777 -1399Q852 -1397 885 -1371Q930 -1336 935 -1199L865 -660Q869 -588 872 -566Q880 -506 903 -451Q936 -392 970 -334Q1021 -242 1021 -194Q1021 -135 831 7Q737 77 665 142Q697 142 753 125Q819 104 862 99Q907 97 991 90Q1006 88 1041.5 71Q1077 54 1083 54Q1117 54 1123 135ZM639 -1478Q574 -1434 523 -1386Q528 -1387 638 -1424Q624 -1443 624 -1457Q624 -1471 639 -1478ZM692 -1088Q692 -1144 658 -1184Q620 -1228 557 -1228Q523 -1228 500 -1221Q463 -1209 441 -1179Q411 -1137 412 -1112V-1083Q502 -1084 546 -1083Q549 -1097 564.5 -1111.5Q580 -1126 590 -1126Q614 -1126 628 -1071Q642 -1012 657 -1007Q692 -1024 692 -1088ZM767 -1020V-1276L522 -1304Q519 -1304 422 -1221Q317 -1131 250 -1102Q308 -1022 367 -942Q442 -855 524 -852Q521 -878 513 -894L471 -889Q457 -889 439 -918Q430 -934 421 -951Q410 -951 389 -954Q374 -980 374 -991Q374 -999 380.5 -1022Q387 -1045 388 -1053Q392 -1086 396.5 -1121.5Q401 -1157 417 -1180.5Q433 -1204 454 -1216Q518 -1255 557 -1255Q608 -1255 661 -1210Q719 -1161 719 -1102Q719 -1056 712 -1016Q710 -1004 698.5 -972.5Q687 -941 687 -935Q687 -920 703 -900Q717 -914 742 -959.5Q767 -1005 767 -1020ZM1096 127Q1096 96 1078 81Q1048 95 1001 112Q936 117 818 132Q750 145 582 205Q579 202 578 198.5Q577 195 574 192Q675 99 745 45Q808 -3 871 -51Q950 -114 975 -146Q994 -171 994 -199Q994 -239 976 -270Q953 -310 930 -349Q883 -441 866 -494Q848 -553 838 -657L908 -1198Q910 -1217 910 -1234Q910 -1335 837 -1362Q805 -1374 698 -1374Q691 -1374 613 -1368.5Q535 -1363 528 -1363Q490 -1363 426 -1375Q416 -1377 389 -1387Q366 -1395 360 -1395H342Q355 -1367 353 -1359L806 -1294Q789 -1251 789 -1191Q789 -1169 792 -1127Q795 -1085 795 -1065Q795 -1025 787 -995.5Q779 -966 755 -922Q721 -862 692 -862Q684 -862 683 -864.5Q682 -867 680 -867Q665 -942 665 -935Q665 -955 675 -985Q667 -985 657 -982.5Q647 -980 641 -980Q619 -980 611 -1025Q607 -1051 604 -1076Q595 -1093 581 -1093Q577 -1082 569 -1058H407Q411 -1048 411 -1031Q411 -1014 407 -982Q424 -980 448 -966Q477 -916 482 -916Q489 -916 497 -918.5Q505 -921 512 -921Q532 -921 534 -917Q552 -853 552 -838Q552 -828 548 -824H528Q514 -824 471 -835Q423 -846 411 -857Q323 -932 218 -1112Q356 -1196 477 -1307Q420 -1320 415 -1320Q385 -1320 251 -1226Q190 -1183 132 -1124Q170 -1033 277 -887Q352 -789 427 -691Q741 -270 741 -229Q741 -212 592.5 -21Q444 170 444 251Q444 323 525 323Q591 323 791 239.5Q991 156 1021 156Q1035 156 1053 165Q1053 205 1053 245Q1046 298 999 322H1039Q1069 324 1073 283Q1076 253 1087 189Q1096 132 1096 127ZM708 -230Q689 -239 542 -284Q376 -334 339 -334Q268 -334 256 -234L315 195Q318 206 318 217Q318 272 241 295Q181 305 121 316L286 323Q286 323 328 302Q349 323 358 323Q385 323 385 299Q385 271 380 209Q375 153 376 127Q383 88 392 19Q393 7 397 -23Q401 -50 401 -56Q401 -63 387.5 -118Q374 -173 374 -180Q374 -187 388 -199Q454 -163 631 -113Q659 -153 708 -230ZM492 -1003Q423 -1003 423 -1003Q429 -1016 440 -1039H481Q481 -1025 492 -1003Z"/>
</svg>