<svg xmlns="http://www.w3.org/2000/svg" viewBox="0 -2048 2048 2048">
	<path fill="#000000" d="M2076 -417Q2072 -411 2023 -364Q2012 -371 1986 -411Q1960 -451 1943 -458Q1960 -425 1995 -361Q1973 -339 1941 -323Q1929 -355 1905 -419H1901Q1897 -398 1887 -290Q1874 -148 1874 -141Q1874 -129 1881 -110Q1888 -91 1888 -83V-30Q1877 -27 1855 -19Q1849 -38 1835 -75Q1801 -24 1791 43Q1790 55 1787 76Q1785 82 1775 82Q1732 82 1732 1Q1732 -35 1762 -90Q1792 -145 1792 -161Q1792 -177 1786 -203Q1779 -233 1778 -245Q1778 -246 1778 -329Q1775 -330 1770 -339L1696 -136Q1716 -93 1716 -93Q1716 -83 1713.5 -64Q1711 -45 1711 -36Q1705 -33 1695 -33Q1694 -33 1666 -35Q1667 -47 1667 -50Q1667 -67 1662 -85Q1601 -22 1601 30Q1601 42 1605 50Q1596 63 1577 63Q1576 63 1560 62Q1554 46 1554 14Q1554 -25 1584 -73Q1622 -135 1628 -154Q1636 -177 1637.5 -240.5Q1639 -304 1647 -332Q1651 -348 1688 -433Q1721 -512 1721 -521Q1721 -546 1685 -595Q1659 -629 1632 -664Q1594 -725 1516 -845Q1422 -666 1422 -513Q1422 -415 1434 -349Q1458 -217 1458 -204Q1458 -135 1402 -78Q1421 -68 1440 -59Q1458 -46 1458 -22Q1458 -3 1428 106Q1409 177 1389 247Q1353 260 1324 260Q1307 260 1271 248V210Q1317 207 1328 177Q1332 165 1332 105Q1332 57 1306 57Q1282 57 1203 91Q1085 143 966 196Q799 265 731 265Q686 265 659 253Q655 251 639.5 240Q624 229 617 229Q595 229 554.5 244Q514 259 492 259H389Q391 257 391 251Q391 241 390 220Q389 199 389 190Q407 187 457 187Q530 187 562 161Q581 145 602 95Q626 40 657 8Q515 -277 515 -361Q515 -427 549 -472Q586 -521 650 -521Q718 -521 869 -431Q943 -387 1090 -298Q1108 -354 1108 -442Q1108 -452 1095 -541Q1065 -747 1065 -819Q1065 -850 1068 -879H345V259H303V-1242Q235 -1310 100 -1445V-1462Q107 -1469 125 -1469Q139 -1469 144 -1466Q144 -1466 197 -1416Q282 -1336 325 -1291Q379 -1339 452 -1409Q471 -1431 511 -1466Q515 -1469 528 -1469Q550 -1469 561 -1450Q489 -1379 345 -1237V-937H1094Q1097 -942 1135 -990Q1169 -1032 1169 -1038Q1169 -1094 1118 -1094Q1091 -1094 1082 -1078Q1074 -1059 1067 -1040Q1055 -1015 1030 -992Q1012 -1001 976 -1020Q1052 -1095 1052 -1106Q1052 -1115 1047.5 -1131Q1043 -1147 1043 -1155H1032Q973 -1155 973 -1185Q973 -1191 984 -1218Q995 -1245 997 -1254Q1019 -1376 1058 -1434Q1113 -1514 1222 -1514Q1311 -1514 1364 -1476Q1423 -1434 1423 -1326Q1423 -1256 1406 -1197Q1403 -1188 1386 -1150Q1372 -1120 1372 -1101Q1372 -1062 1421 -1050Q1461 -1044 1501 -1039Q1588 -1019 1644 -954Q1690 -901 1737 -816Q1776 -742 1815 -668Q1824 -718 1861 -764Q1902 -815 1949 -815Q1974 -815 2002.5 -789Q2031 -763 2031 -739Q2031 -725 2022 -715Q2019 -659 1894 -579Q1954 -524 2076 -417ZM1975 -741Q1975 -764 1952 -764Q1913 -764 1886 -706Q1864 -658 1864 -613L1865 -607Q1896 -629 1932 -668Q1975 -715 1975 -741ZM1397 -1299Q1397 -1384 1385 -1416Q1357 -1489 1220 -1489Q1155 -1489 1104 -1456Q1084 -1443 1058.5 -1397Q1033 -1351 1032 -1328Q1224 -1312 1212 -1312Q1224 -1312 1240 -1324.5Q1256 -1337 1273 -1337Q1311 -1337 1311 -1271Q1311 -1261 1305 -1242.5Q1299 -1224 1299 -1214Q1299 -1195 1312 -1180H1324Q1372 -1215 1372 -1215Q1372 -1215 1386 -1211Q1397 -1245 1397 -1299ZM2041 -412Q2017 -432 1971 -475Q1999 -428 2028 -399ZM1742 -579Q1696 -649 1650 -719Q1595 -799 1546 -851Q1645 -693 1734 -572ZM1961 -360L1935 -430L1927 -427L1954 -360ZM1818 -609Q1769 -692 1717 -788Q1668 -877 1639 -916Q1585 -986 1524 -1006Q1463 -1015 1403 -1024Q1341 -1039 1341 -1114Q1341 -1129 1366 -1179Q1334 -1153 1329 -1153Q1270 -1153 1270 -1208Q1270 -1219 1280.5 -1239.5Q1291 -1260 1291 -1271Q1291 -1293 1262 -1312Q1239 -1285 1232 -1286L1028 -1306Q1028 -1236 1000 -1183L1072 -1181Q1066 -1172 1066 -1160Q1066 -1152 1069.5 -1137Q1073 -1122 1073 -1115H1109Q1144 -1115 1165 -1112Q1182 -1081 1199 -1026Q1087 -925 1087 -825Q1087 -810 1088 -802L1134 -424Q1134 -401 1119 -294L1412 -355Q1398 -421 1398 -498Q1398 -616 1424 -700Q1429 -715 1471 -806Q1508 -886 1529 -886Q1562 -886 1620 -803Q1656 -746 1693 -689Q1717 -656 1764 -587Q1782 -595 1818 -609ZM1879 -427Q1879 -533 1846 -556Q1834 -548 1808 -535Q1811 -513 1811 -489Q1811 -459 1804 -398.5Q1797 -338 1797 -308Q1797 -281 1807.5 -228Q1818 -175 1818 -148Q1818 -143 1787.5 -87Q1757 -31 1757 6Q1757 13 1760.5 27Q1764 41 1764 47Q1796 -105 1828 -105Q1832 -105 1840.5 -103Q1849 -101 1853 -101Q1846 -118 1846 -128Q1846 -132 1853 -195Q1865 -302 1872 -360.5Q1879 -419 1879 -427ZM1787 -520Q1695 -492 1662 -260Q1661 -224 1649 -154Q1644 -140 1606 -72Q1577 -20 1577 14V19Q1628 -113 1675 -111Q1671 -146 1671 -137Q1671 -142 1699 -210Q1787 -423 1787 -520ZM1081 -914H345V-899H1074ZM1078 -275L771 -450Q721 -375 647 -352Q701 -283 786 -110Q920 -206 1078 -275ZM1433 -202Q1433 -206 1417 -328H1395Q1393 -328 1288 -309Q892 -237 647 66Q660 67 746 133Q861 27 1106 -12Q1201 -22 1343 -56Q1433 -100 1433 -202ZM1433 -17Q1433 -50 1402 -50Q1378 -50 1323 -33Q1259 -13 1242 -10Q1156 3 1069 16Q967 34 902 64Q862 83 736 163Q670 92 628 82Q606 126 606 146Q606 190 646 216Q681 239 728 239Q804 239 1076 119Q1132 94 1248 50Q1298 31 1311 31Q1345 31 1353 71Q1356 83 1356 138Q1356 207 1296 233H1353Q1370 233 1375 222Q1383 170 1398 95Q1399 90 1418 36Q1433 -9 1433 -17ZM769 -97Q685 -264 606 -356Q728 -417 748 -469Q701 -496 647 -496Q541 -496 541 -369Q541 -311 594 -191Q634 -103 674 -14Q727 -67 769 -97ZM606 207L589 173Q561 191 504 200Q421 213 414 215V233Q425 239 444 239Q491 239 606 207ZM1144 -1228Q1137 -1218 1118 -1218Q1108 -1218 1088.5 -1222Q1069 -1226 1059 -1226L1047 -1238Q1081 -1271 1088 -1271Q1098 -1271 1118.5 -1254.5Q1139 -1238 1144 -1228ZM1102 -1239V-1247H1084V-1239Z"/>
</svg>