<svg xmlns="http://www.w3.org/2000/svg" viewBox="0 0 690 1000">
  <g transform="scale(1,-1) translate(0,-1000)">
    <path d="M21 615Q20 616 14.0 618.0Q8 620 4.0 623.5Q0 627 0 633Q0 650 22 655L28 980Q28 986 32.5 990.5Q37 995 43.0 995.0Q49 995 53.5 990.5Q58 986 58 980L52 647Q103 629 126 617L192 595Q211 667 234 708Q239 716 246.0 721.0Q253 726 258 727L263 728Q269 729 277.0 730.5Q285 732 299.0 742.0Q313 752 313 767Q313 780 304.5 789.0Q296 798 285.5 804.5Q275 811 266.5 829.5Q258 848 258 877Q258 925 297.0 962.5Q336 1000 383 1000Q439 1000 472.0 965.0Q505 930 505 887Q505 875 500.5 861.0Q496 847 492.5 840.0Q489 833 479.0 816.5Q469 800 468 798Q481 774 498.5 763.0Q516 752 529.5 747.0Q543 742 547 733L591 549L602 392Q621 332 623 321Q625 323 630 323H632Q648 320 653 320H656Q666 320 678.0 291.5Q690 263 690 234V229Q690 219 689.0 214.5Q688 210 683.0 206.5Q678 203 667 203Q658 203 653.0 205.0Q648 207 643.0 221.0Q638 235 638 263Q638 272 640 286Q635 285 635 285H634Q633 285 631.0 284.5Q629 284 628 284Q624 284 624 287Q622 272 603 265H599Q594 265 591.0 266.5Q588 268 586.0 273.5Q584 279 582.5 285.0Q581 291 577.5 304.0Q574 317 570 330Q570 330 569.5 331.5Q569 333 569.0 334.0Q569 335 569.5 339.5Q570 344 570 347Q570 360 567 378L546 489Q540 519 540 519L500 665Q495 632 495 595Q495 586 495.5 577.5Q496 569 496.0 563.5Q496 558 496.5 553.0Q497 548 498 546V543Q518 500 518 474V471Q518 458 498 395L500 226Q500 214 503.5 180.0Q507 146 507 121Q507 113 506.5 102.0Q506 91 506.0 81.0Q506 71 505.5 63.0Q505 55 504 50V44V36Q504 20 500.0 12.0Q496 4 491.5 2.5Q487 1 478 1Q446 1 418.5 1.5Q391 2 390 2Q382 2 381 1Q379 4 374.5 6.5Q370 9 367.5 12.0Q365 15 365 20Q365 39 452 60L439 194H341Q336 143 310 75V71Q310 66 309.5 57.5Q309 49 309 46L308 36Q308 33 306.0 25.5Q304 18 294.0 9.0Q284 0 269 0Q263 0 241.0 0.5Q219 1 203 1H197Q186 1 179.0 5.0Q172 9 170.5 13.0Q169 17 169 20Q169 24 175.0 29.0Q181 34 183 36Q212 49 257 60L279 222H280Q291 326 299.5 416.5Q308 507 310 544L313 581V587Q313 613 292 662Q287 665 282.0 665.0Q277 665 274 661Q267 650 254.5 619.5Q242 589 232.0 565.5Q222 542 219 542L106 585Q93 589 81.5 594.0Q70 599 65 602L60 604Q60 604 58.5 604.5Q57 605 55.0 606.0Q53 607 51 607L40 24Q40 18 35.5 13.5Q31 9 25.0 9.0Q19 9 14.5 13.5Q10 18 10 24ZM339 953Q370 949 400.0 930.0Q430 911 430 880Q430 878 429.5 870.5Q429 863 429 860Q429 855 430.0 851.0Q431 847 434.0 844.0Q437 841 437.5 840.0Q438 839 444 836L450 832Q473 867 473 887Q473 919 447.5 943.0Q422 967 383 967Q358 967 339 953ZM336 903Q343 903 348.0 896.5Q353 890 353 882Q353 876 347.5 871.5Q342 867 336 867Q312 867 312 882Q312 903 336 903ZM485 464Q485 486 466 543L339 537L320 224H463L465 398Q467 404 476.0 426.0Q485 448 485 464ZM498 725Q466 741 453.0 752.5Q440 764 432.0 783.0Q424 802 418 812V816Q401 828 401 860Q401 864 401.5 870.5Q402 877 402 880Q402 896 384.0 907.0Q366 918 348 922L331 925Q326 925 317.0 923.5Q308 922 305 922Q291 900 291 877Q291 844 319.0 821.5Q347 799 347 767Q347 754 340.5 742.0Q334 730 329.5 726.0Q325 722 312 711Q352 642 352 597V591Q352 582 353.0 579.0Q354 576 354.0 575.0Q354 574 353.5 571.0Q353 568 353 565L457 575Q457 583 456 583Q456 583 455 582L454 581Q453 581 453 588Q453 635 458.0 662.5Q463 690 465.5 696.5Q468 703 480.5 710.0Q493 717 494 718Z" fill="currentColor"/>
  </g>
</svg>