<svg xmlns="http://www.w3.org/2000/svg" viewBox="0 0 740 1000">
  <g transform="scale(1,-1) translate(0,-1000)">
    <path d="M415 253H474Q465 262 465 265Q465 279 530 295L520 461H447Q442 404 424 306V303Q424 299 423.0 292.0Q422 285 422 283V277Q422 256 415 253ZM564 793Q540 805 530.5 814.0Q521 823 515.0 837.0Q509 851 504 859V862Q492 872 492 895V910Q492 922 479.0 930.0Q466 938 452 940L439 943Q436 943 420 941Q409 925 409 907Q409 882 430.0 865.5Q451 849 451 825Q451 803 425 783Q455 729 455 697V693Q455 679 451 647L528 638Q528 646 529.5 665.5Q531 685 531 691Q531 726 534.5 746.5Q538 767 540.5 772.0Q543 777 552.0 782.0Q561 787 562 788ZM534 614 441 625 431 483H538ZM443 927Q456 927 456 911Q456 900 443 900Q425 900 425 911Q425 927 443 927ZM445 965Q468 962 491.0 947.5Q514 933 514 910Q514 908 513.5 902.5Q513 897 513 895Q513 883 528 874Q546 901 546 915Q546 939 526.5 957.0Q507 975 478 975Q458 975 445 965ZM478 208H425V88Q446 81 465 81Q485 81 493.5 98.0Q502 115 502 136Q502 176 478 208ZM380 112V208H301Q357 131 380 112ZM380 86Q359 100 339.0 124.0Q319 148 274 208H25Q2 208 0 230Q0 243 5.0 247.5Q10 252 25 253H326Q318 256 318 265Q318 278 384 295L400 481H401L416 619Q400 640 400 643Q400 654 421 659Q424 678 424 693Q424 702 423.0 709.0Q422 716 421.0 719.0Q420 722 416.0 730.5Q412 739 410 745Q403 732 388.0 699.5Q373 667 361.0 646.0Q349 625 336 616Q320 616 238 686Q233 686 228.5 688.5Q224 691 220 692V271Q220 254 202 254Q186 254 186 269Q186 298 186.0 351.5Q186 405 186.0 461.0Q186 517 186.5 569.5Q187 622 187.0 656.0Q187 690 187 691Q168 691 168.0 710.0Q168 729 187 731Q187 768 187.5 783.0Q188 798 188 835Q191 856 209.5 864.5Q228 873 228 888Q228 900 222.0 905.5Q216 911 210.0 911.0Q204 911 197.5 907.5Q191 904 185.0 899.0Q179 894 174.0 888.5Q169 883 166 880L162 876Q154 876 154 890Q154 901 167.0 913.5Q180 926 191.5 932.5Q203 939 205 939Q223 939 236.0 926.5Q249 914 253.0 903.5Q257 893 257 890Q256 870 238.0 856.0Q220 842 220 835V730Q229 728 242 715L322 659L378 793Q381 797 403.5 804.0Q426 811 426 825Q426 834 419.5 841.0Q413 848 405.0 852.5Q397 857 390.5 871.0Q384 885 384 907Q384 943 413.5 971.5Q443 1000 478 1000Q520 1000 545.0 974.0Q570 948 570 915Q570 906 567.0 896.0Q564 886 560.5 880.0Q557 874 550.5 863.0Q544 852 542 848Q555 824 576.5 814.5Q598 805 601 799L634 661L636 544Q654 493 654 476Q654 455 637 449H634Q624 449 618.5 458.5Q613 468 612 497Q612 515 610 533L600 617Q596 639 596 639L566 749Q562 720 562 691Q562 685 561.0 673.0Q560 661 560 654Q560 644 558 624L566 485V475Q566 445 568.0 382.0Q570 319 570 305Q570 302 569.5 294.0Q569 286 569 283V277Q569 258 562 253H716Q725 253 732.0 246.5Q739 240 739 230Q739 221 732.0 214.5Q725 208 716 208H503Q523 174 523 136Q523 129 521.5 120.0Q520 111 515.0 95.5Q510 80 497.0 70.0Q484 60 465 60Q444 60 425 65V22Q425 13 418.5 6.5Q412 0 403 0Q393 0 386.5 6.5Q380 13 380 22Z" fill="currentColor"/>
  </g>
</svg>