<svg xmlns="http://www.w3.org/2000/svg" viewBox="0 -2048 2048 2048">
	<path fill="#000000" d="M1345 -1419L1171 -1181V317H1127V-868H1050L987 -531Q989 -517 1002 -483Q1014 -453 1014 -448Q1014 -455 1002 -419H983Q975 -435 957 -462Q933 -442 933 -391Q933 -359 944 -334Q937 -334 925 -322Q885 -374 885 -424Q885 -427 907 -486Q929 -545 931 -571Q925 -619 924 -726Q934 -788 950 -934Q846 -992 830 -1000Q763 -1035 712 -1048Q666 -1041 666 -916Q666 -864 741 -731Q816 -598 816 -558Q816 -524 797 -495Q766 -448 689 -398Q599 -340 548 -283Q605 -255 640 -187Q665 -131 690 -75Q722 -19 766 74Q810 167 810 177Q810 201 741 263Q678 319 664 323Q640 330 626 330Q597 330 560 323Q560 318 563 305.5Q566 293 566 288Q671 238 671 169Q671 117 575 3Q502 -77 429 -157Q398 73 398 91V296Q395 297 377.5 310.5Q360 324 353 324H100Q100 319 102.5 306Q105 293 105 288Q152 277 200 265Q258 248 274 219Q292 186 292 140L249 -240Q249 -344 346 -425Q522 -571 522 -576Q522 -587 491 -726Q482 -768 472 -795Q443 -859 415 -923Q361 -1049 361 -1084Q361 -1134 479 -1181Q475 -1193 464 -1219Q440 -1220 389 -1222Q375 -1248 362 -1273Q346 -1296 319 -1296V-1313Q318 -1339 390 -1476Q410 -1514 443 -1528Q487 -1547 522 -1547Q586 -1547 623.5 -1506.5Q661 -1466 661 -1405Q661 -1385 639.5 -1321Q618 -1257 618 -1223Q631 -1200 686 -1200Q756 -1201 766 -1197Q798 -1186 884 -1114Q943 -1075 1002 -1036Q1071 -988 1066 -947H1127V-1181L953 -1419L989 -1445L1149 -1225L1309 -1445ZM1127 -895V-920H1057V-895ZM634 -1397Q634 -1520 522 -1520Q483 -1520 447 -1496Q407 -1468 394 -1420Q520 -1402 514 -1402Q520 -1402 535 -1413Q550 -1424 556 -1424Q600 -1424 600 -1372Q600 -1367 599 -1356Q599 -1345 599 -1340Q599 -1313 610 -1306Q634 -1341 634 -1397ZM1029 -920H977V-895H1023ZM1018 -838V-867H972Q949 -798 949 -774V-615Q949 -548 948 -545Q942 -520 929 -473Q950 -494 957 -494Q965 -494 972 -489Q979 -484 981 -484Q965 -527 967 -539Q1018 -845 1018 -838ZM1034 -948V-979Q967 -1032 900 -1084Q822 -1142 761 -1170Q747 -1176 714 -1177H689Q613 -1177 592 -1219Q587 -1229 591 -1253Q596 -1279 594 -1288Q591 -1303 580.5 -1309Q570 -1315 570 -1341Q570 -1348 572 -1365.5Q574 -1383 574 -1391Q569 -1391 562 -1397Q520 -1376 524 -1376Q517 -1376 465 -1384Q404 -1394 379 -1397Q352 -1352 346 -1312Q380 -1317 405 -1242Q474 -1242 480 -1241Q490 -1216 511 -1170Q476 -1152 441 -1135Q388 -1106 388 -1074Q388 -1031 445 -912Q499 -800 514 -731Q539 -620 549 -555Q454 -479 359 -404Q276 -330 276 -242Q276 -208 294.5 -116.5Q313 -25 313 105Q313 186 298 219Q272 279 185 302H342Q351 303 363 292Q375 281 375 274Q375 103 379 65Q383 34 389 -20Q390 -32 395 -69Q399 -103 399 -109Q399 -151 386 -192Q383 -200 363 -248Q345 -290 345 -296Q345 -352 396 -392Q399 -389 405.5 -385Q412 -381 415 -378Q372 -318 372 -296Q372 -285 388.5 -249.5Q405 -214 417 -200Q494 -119 631 29Q698 103 698 156Q698 197 671 239Q640 285 597 295Q602 295 613.5 299Q625 303 631 303Q652 303 677.5 284Q703 265 743.5 223Q784 181 784 172Q784 149 589 -214Q581 -229 555 -251Q519 -279 516 -282Q579 -345 660 -407Q704 -438 748 -469Q789 -505 789 -555Q789 -592 714 -730.5Q639 -869 639 -919Q639 -967 654 -1012Q674 -1071 711 -1071Q759 -1071 969 -948ZM457 -1342Q457 -1322 436 -1322Q437 -1322 383 -1340Q389 -1376 417 -1376Q434 -1376 457 -1342Z"/>
</svg>