<svg xmlns="http://www.w3.org/2000/svg" viewBox="0 -2048 2048 2048">
	<path fill="#000000" d="M1507 -1198Q1469 -1194 1430 -1142Q1394 -1095 1359 -1049Q1326 -989 1293 -930Q1224 -817 1182 -817Q1161 -817 1069.5 -894Q978 -971 972 -971Q945 -971 885 -933Q878 -918 878 -886Q878 -827 911.5 -734Q945 -641 945 -623Q945 -635 896 -493Q829 -299 828 -235V-219Q944 -193 972 -193Q977 -193 996.5 -204Q1016 -215 1027 -215Q1065 -215 1071 -191Q1070 -170 1073 -130Q1079 -103 1102 -38Q1121 19 1121 25V60H1067Q1044 -29 968 -116Q886 -117 838 -108Q835 -105 830 -101Q826 21 817 133Q810 228 810 245Q810 270 815 289Q822 319 795 346Q787 354 762 354Q755 354 734.5 345.5Q714 337 707 337Q706 337 694 348H476V300Q516 283 586 278Q650 274 669 262Q702 242 702 177Q702 84 658 -98Q639 -107 596 -107Q563 -107 531 -107Q431 -112 431 -201Q431 -257 490 -363Q517 -412 603 -546Q674 -658 674 -665Q674 -670 656 -727Q636 -790 631 -817Q629 -817 626.5 -819.5Q624 -822 616 -822Q616 -822 337 -707Q337 -687 337 -652Q237 -612 246 -612Q235 -612 197 -640Q183 -640 124 -612Q112 -624 100 -660Q137 -671 195 -696Q225 -717 234 -770Q232 -801 234 -858Q250 -976 250 -980Q264 -1056 290 -1086Q311 -1111 400 -1138Q507 -1171 675 -1191V-1226Q635 -1240 625 -1256Q615 -1272 619 -1315Q605 -1318 575 -1326Q575 -1328 572 -1330.5Q569 -1333 569 -1341Q569 -1348 587 -1388Q609 -1437 615 -1455Q633 -1509 689 -1548Q741 -1584 790 -1584Q852 -1584 910 -1540Q972 -1493 972 -1435Q972 -1343 839 -1221V-1196Q979 -1182 1059 -1065Q1164 -1102 1285 -1163Q1285 -1161 1281 -1201Q1278 -1225 1298 -1225Q1307 -1225 1318 -1214Q1324 -1227 1343 -1250Q1354 -1258 1381 -1258Q1428 -1258 1440 -1225Q1455 -1233 1489 -1241Q1507 -1204 1507 -1198ZM1419 -1192Q1419 -1231 1381 -1231Q1347 -1231 1343 -1196Q1345 -1166 1346 -1135Q1343 -1131 1328 -1123Q1235 -993 1174 -921L1072 -1015Q1049 -1005 1005 -985Q1151 -839 1179 -839Q1211 -839 1354 -1088Q1363 -1104 1398 -1140Q1419 -1163 1419 -1192ZM950 -1432Q950 -1482 891 -1521Q839 -1556 790 -1556Q695 -1556 652 -1464Q768 -1435 782 -1435Q792 -1435 800.5 -1448.5Q809 -1462 815 -1462Q862 -1462 862 -1413Q862 -1405 847 -1367Q827 -1318 824 -1308H864Q896 -1308 925 -1358Q950 -1402 950 -1432ZM1281 -1097Q1218 -1072 1099 -1024Q1130 -993 1174 -960ZM933 -1014Q927 -1014 915 -1026Q908 -1026 908 -999Q911 -1002 920.5 -1006.5Q930 -1011 933 -1014ZM1033 -1050Q1013 -1078 969 -1116Q921 -1158 898 -1162Q871 -1162 817 -1169V-1238L856 -1279Q810 -1275 795 -1300Q793 -1306 793 -1313Q793 -1332 813.5 -1366Q834 -1400 834 -1410Q834 -1421 826 -1429Q787 -1407 790 -1407Q792 -1407 643 -1440Q640 -1434 637 -1421Q634 -1408 631 -1402Q647 -1418 663 -1418Q690 -1418 707 -1378L693 -1363Q655 -1373 627 -1391Q624 -1385 603 -1348Q648 -1348 648 -1311Q648 -1306 641 -1271Q664 -1262 702 -1243V-1169Q658 -1166 583 -1157Q521 -1138 422 -1110Q376 -1098 317 -1074Q299 -1067 280 -974Q273 -899 258 -770Q255 -753 238 -717Q221 -681 221 -676Q221 -640 252 -640Q275 -640 285 -658Q283 -645 283 -725Q288 -733 296 -742Q317 -834 350 -1000Q366 -1017 435 -1039Q487 -1054 588 -1087Q613 -1054 623 -986Q634 -908 643 -888Q769 -942 870 -984Q883 -1025 899 -1065Q906 -1061 937 -1041Q960 -1026 967 -1026Q974 -1026 999.5 -1037Q1025 -1048 1033 -1050ZM619 -879L579 -1054H560L373 -987Q357 -884 327 -757ZM1098 36Q1080 -16 1051 -119Q1050 -142 1043 -187Q1041 -187 1037 -190Q1033 -193 1025 -193Q1017 -193 1001 -179Q985 -165 980 -165Q975 -165 926 -177Q873 -189 854 -191Q638 -216 595 -216Q590 -222 580 -234Q629 -290 712 -379Q774 -438 837 -497Q917 -580 917 -623Q917 -630 895 -685Q870 -750 863 -776Q853 -811 855 -921L647 -837Q702 -700 702 -665Q702 -658 639 -555Q565 -434 539.5 -384Q514 -334 488 -285Q459 -226 459 -190Q459 -143 494 -134Q546 -121 680 -121Q687 -121 815 -132Q943 -143 950 -143Q988 -143 1044 -58Q1071 -11 1098 36ZM866 -491Q808 -436 749 -380Q674 -305 674 -273Q674 -249 681 -237Q800 -220 796 -220Q804 -220 828 -322Q847 -407 866 -491ZM651 -244V-264L630 -244ZM800 -104Q746 -95 692 -103L729 199Q714 267 687 281Q654 298 594 306Q546 312 497 318Q516 318 589 321Q645 323 677 321Q683 321 693 315.5Q703 310 710 310Q717 310 735.5 318Q754 326 760 326Q788 326 788 296Q783 264 780 208Q788 132 795 56Q804 -35 800 -104Z"/>
</svg>