<svg xmlns="http://www.w3.org/2000/svg" viewBox="0 0 746 1000">
  <g transform="scale(1,-1) translate(0,-1000)">
    <path d="M523 963Q523 977 489 977Q465 977 465 969V968Q469 952 479.0 944.5Q489 937 509.5 930.0Q530 923 539 918Q554 940 557 954Q561 969 582.5 974.5Q604 980 606 981Q632 1000 645.0 1000.0Q658 1000 661 983Q680 999 689 999Q696 999 707.5 992.0Q719 985 719 976Q719 975 717 971L637 767Q634 764 634 759Q629 734 606 714Q600 709 592.0 706.0Q584 703 579.0 701.5Q574 700 574 697Q574 696 575.5 692.0Q577 688 578 684Q588 674 610 656L619 647Q638 641 664 621Q677 611 685.5 605.0Q694 599 695.5 598.5Q697 598 701.0 594.5Q705 591 711.0 585.5Q717 580 732 565Q745 552 745 527Q745 524 744.5 519.0Q744 514 744 512Q741 472 732.0 448.0Q723 424 718 392Q719 378 732.5 358.5Q746 339 746 325Q746 312 737.0 301.0Q728 290 722 290Q708 290 705.5 317.0Q703 344 696 344Q693 344 686.0 338.5Q679 333 677.0 333.0Q675 333 675 340Q675 352 682.0 369.5Q689 387 689 399V408Q689 419 694.0 455.5Q699 492 699 502V510V528Q699 532 691 539Q681 547 673.0 554.0Q665 561 661.5 564.5Q658 568 651.5 572.5Q645 577 634 583Q619 543 619 489Q619 452 633.5 427.0Q648 402 648 382Q648 364 632.0 349.0Q616 334 616 329Q615 322 615 309Q615 288 622.0 250.5Q629 213 631 192Q648 25 648 14Q648 9 643.5 4.5Q639 0 633 0H465Q459 0 454.5 4.5Q450 9 450 14Q450 18 451.0 20.0Q452 22 455.5 24.0Q459 26 461 28Q486 51 504 55Q540 64 543 74Q548 89 548 106Q548 124 535.5 139.5Q523 155 519 178Q510 224 502 250L496 271L476 251Q448 223 438 201Q432 187 426.0 176.0Q420 165 417.0 160.0Q414 155 411.5 146.0Q409 137 407 122Q407 85 407.0 70.0Q407 55 398.0 37.0Q389 19 382.0 15.0Q375 11 343.5 5.5Q312 0 286.5 0.0Q261 0 197 0Q182 0 182 14Q182 32 199.0 42.0Q216 52 237.5 55.5Q259 59 279.5 65.5Q300 72 306 83Q321 112 324.5 129.5Q328 147 328.0 171.5Q328 196 333 223Q336 238 381 312Q400 344 410.0 363.5Q420 383 432.0 421.5Q444 460 444 495Q444 512 439 566Q439 572 428.0 586.0Q417 600 417 612Q417 616 418 621Q402 620 379.0 617.0Q356 614 337.0 612.0Q318 610 298 610H281Q231 612 168.0 622.0Q105 632 90 632V625Q90 611 75.0 611.0Q60 611 60 625V636Q45 644 45 662Q45 676 61 684V714L68 715Q54 720 42.0 733.0Q30 746 30 759Q30 774 47 786Q45 788 41.0 792.5Q37 797 35 800Q0 839 0 869Q0 896 31 896Q33 896 57 893Q61 901 72 901Q84 901 87 893Q89 893 94.5 893.5Q100 894 104 894Q150 894 150 867Q150 854 144.5 841.5Q139 829 134.0 822.5Q129 816 116.5 803.0Q104 790 101 786Q121 771 121 757Q121 746 107.0 732.5Q93 719 88 719Q88 719 87 718H86L88 682Q90 681 124.5 675.5Q159 670 205.5 664.0Q252 658 275 658H282Q316 658 343.0 661.0Q370 664 412.0 671.0Q454 678 470 680Q470 683 470.5 685.5Q471 688 472.0 690.5Q473 693 473 695Q469 701 459 711Q443 727 436.5 738.5Q430 750 430 770Q430 808 459 837Q461 865 461 873Q461 894 469.5 900.5Q478 907 514 907Q508 910 486.5 918.0Q465 926 456.0 935.0Q447 944 442 962Q441 964 441 968Q441 980 452.5 990.0Q464 1000 489 1000Q547 1000 547 955Q547 937 508 937Q496 937 496 948Q496 958 509.5 959.0Q523 960 523 963ZM609 900Q621 913 629.0 930.0Q637 947 640.0 957.0Q643 967 643 970Q643 974 640 980Q636 978 618 965Q611 960 601.0 957.5Q591 955 584.5 953.5Q578 952 577 948Q571 927 557 908Q559 907 561 905Q569 904 585.0 902.0Q601 900 609 900ZM572 774Q572 782 571.0 788.0Q570 794 565.0 804.0Q560 814 547.0 819.5Q534 825 514 825Q501 825 483 821Q460 798 460 772Q460 761 462.5 754.0Q465 747 468.5 742.5Q472 738 481 729Q504 706 504 699V697Q501 682 499 669Q497 661 474.5 645.0Q452 629 447 615V612Q447 609 457.5 595.5Q468 582 469 569Q474 515 474 496Q474 437 449.0 378.5Q424 320 395.0 275.5Q366 231 363 218Q358 193 358.0 168.0Q358 143 354.0 123.5Q350 104 334 72Q318 41 236 27Q274 27 289.5 27.0Q305 27 324.5 31.5Q344 36 348.5 39.0Q353 42 361.0 56.5Q369 71 370.5 83.0Q372 95 377 125Q379 140 382.0 150.0Q385 160 387.5 165.5Q390 171 397.0 184.0Q404 197 410 211Q412 217 416.0 223.0Q420 229 424.5 235.0Q429 241 434.0 247.5Q439 254 444.5 259.5Q450 265 455.0 270.5Q460 276 465.0 280.5Q470 285 474.0 289.0Q478 293 481.0 295.5Q484 298 486 300L488 302Q480 335 480 350Q480 367 483.0 375.5Q486 384 506 416Q510 424 519 424Q525 424 529.5 419.5Q534 415 534 410Q534 406 522.0 388.0Q510 370 510 350Q510 337 516.5 310.0Q523 283 533.5 246.0Q544 209 549 183Q553 163 565.5 145.5Q578 128 578 106Q578 65 562.0 51.0Q546 37 511 29Q510 28 508.0 28.0Q506 28 505 27H617Q617 28 614.0 56.0Q611 84 607.0 124.5Q603 165 601 190Q599 208 592.0 246.5Q585 285 585.0 309.0Q585 333 589.0 342.0Q593 351 607 364Q618 374 618 382Q618 394 603.5 422.0Q589 450 589 489Q589 499 596 562Q597 572 603.0 586.0Q609 600 609 604Q609 620 579.5 646.5Q550 673 548 678Q544 688 544 697Q544 718 567 726Q567 729 569.5 747.0Q572 765 572 774ZM496.0 490.5Q501 496 505.0 496.0Q509 496 514.0 491.0Q519 486 519.0 482.0Q519 478 514.5 472.0Q510 466 506.0 466.0Q502 466 496.5 471.5Q491 477 491.0 481.0Q491 485 496.0 490.5ZM513 783Q513 764 493 764Q485 765 479.0 770.5Q473 776 473 784Q473 790 477.5 795.5Q482 801 488.0 801.0Q494 801 503.5 797.0Q513 793 513 783ZM653 925Q645 897 626 877Q622 873 610 873Q604 873 572.0 876.5Q540 880 514 880Q497 880 489 879Q488 874 488 862Q488 855 489 852Q497 853 512 853Q597 853 606 792L617 781L684 967Q665 954 659 941Q658 933 653 925ZM52 764Q50 760 50.0 759.0Q50 758 52 754ZM72 734H75L73 765L72 764ZM93 767Q93 763 93.5 756.5Q94 750 94 748Q100 754 101 757Q100 760 93 767ZM130 867Q130 875 105 875Q102 875 96.0 874.5Q90 874 88 874Q89 838 91 808L99 816Q130 845 130 867ZM53 809 54 874Q38 876 31 876Q23 876 21.5 874.5Q20 873 20 869Q20 846 53 809Z" fill="currentColor"/>
  </g>
</svg>