<svg xmlns="http://www.w3.org/2000/svg" viewBox="22 -1648 1285 2106">
	<path fill="currentColor" d="M1229 322Q1229 368 1151 376Q1161 375 1055 375Q1054 375 998 375Q943 374 916 374V338Q919 334 924 327Q983 312 1043 296Q1100 270 1100 199Q1100 109 1054 -23Q1014 -132 974 -240H897Q842 -152 795 7Q758 137 721 267Q717 296 713 325Q700 380 673 380Q667 380 640.5 372Q614 364 608 364Q601 364 578.5 369.5Q556 375 549 375H396Q388 375 385 371.5Q382 368 380 368V331Q447 312 571 262Q608 242 632 164Q649 88 682 -59Q717 -213 757 -323Q789 -437 854 -663L851 -671Q755 -590 582 -477Q569 -466 543 -445Q535 -439 484 -427.5Q433 -416 420 -416Q415 -416 357 -425V-466Q448 -466 483 -489L484 -493Q485 -495 483 -501Q471 -498 451 -487H439L427 -506V-522Q477 -544 481 -544Q486 -544 495.5 -543Q505 -542 510 -542Q517 -542 521 -544Q534 -546 626 -618Q731 -700 766 -761Q734 -740 571 -750Q551 -751 491 -760Q438 -767 414 -767Q406 -767 374 -755L381 -592H293L301 -773Q281 -796 281 -810Q281 -828 292 -841Q288 -843 284 -847Q283 -855 281 -871Q288 -877 306 -878L314 -1051Q245 -1072 214 -1144Q182 -1160 166 -1160Q163 -1160 156.5 -1158.5Q150 -1157 147 -1157Q113 -1157 113 -1204Q113 -1221 130 -1245Q163 -1212 209 -1199Q218 -1239 265 -1259V-1265Q251 -1296 169 -1376Q100 -1444 100 -1488Q100 -1560 177 -1560Q207 -1560 227 -1543L222 -1561H452L447 -1543Q467 -1560 497 -1560Q575 -1560 575 -1488Q575 -1442 506 -1376Q424 -1298 409 -1265V-1259Q456 -1239 465 -1199Q511 -1212 544 -1245Q561 -1221 561 -1204Q561 -1157 528 -1157Q525 -1157 518 -1158.5Q511 -1160 508 -1160Q492 -1160 460 -1144Q429 -1072 360 -1051L368 -886Q376 -885 390 -880Q393 -878 402 -868.5Q411 -859 415 -859Q436 -859 477.5 -861Q519 -863 540 -863Q633 -863 692 -856Q708 -905 733 -994Q758 -1083 793 -1123Q836 -1171 915 -1179L924 -1227Q908 -1226 882 -1235Q849 -1248 849 -1268Q849 -1253 860 -1312Q846 -1317 831.5 -1323.5Q817 -1330 817 -1345Q817 -1349 834.5 -1378.5Q852 -1408 854 -1414Q858 -1441 876 -1492Q890 -1517 930 -1543.5Q970 -1570 997 -1570Q1136 -1570 1193 -1475Q1212 -1443 1212 -1419Q1212 -1347 1170 -1286Q1143 -1246 1094 -1221V-1173Q1120 -1166 1141 -1136.5Q1162 -1107 1165 -1081.5Q1168 -1056 1168 -1024Q1168 -975 1160 -891Q1152 -807 1152 -792Q1207 -541 1207 -545Q1207 -544 1152 -404Q1145 -386 1145 -310Q1145 -249 1147 -241Q1162 -178 1177 -115Q1212 34 1212 36V255Q1212 258 1220.5 284Q1229 310 1229 322ZM1186 -1418Q1186 -1433 1163 -1468Q1140 -1503 1125 -1514Q1085 -1543 1012 -1543Q976 -1543 939 -1518.5Q902 -1494 896 -1460L1045 -1427Q1074 -1438 1076 -1438Q1088 -1438 1100 -1422.5Q1112 -1407 1112 -1395Q1112 -1388 1090.5 -1364.5Q1069 -1341 1069 -1322Q1069 -1284 1106 -1284Q1147 -1284 1169 -1333Q1186 -1371 1186 -1418ZM549 -1488Q549 -1534 497 -1534Q455 -1534 455 -1501Q455 -1476 479 -1476Q508 -1476 508 -1495Q508 -1500 499 -1517L522 -1528Q534 -1505 534 -1495Q534 -1450 479 -1450Q448 -1450 433 -1483Q414 -1393 410 -1314Q417 -1323 499 -1406Q549 -1458 549 -1488ZM418 -1535H256Q291 -1395 291 -1273V-1267Q316 -1273 337 -1273Q358 -1273 383 -1267V-1273Q383 -1395 418 -1535ZM535 -1201Q526 -1194 507 -1186H508Q507 -1186 526 -1183Q532 -1190 535 -1201ZM862 -900Q852 -920 849 -938Q835 -895 802 -814L811 -821Q830 -849 862 -900ZM1141 -1036Q1141 -1136 1066 -1158V-1232Q1076 -1240 1094 -1256Q1092 -1257 1088 -1257Q1084 -1257 1075 -1260Q1066 -1263 1062 -1264Q1041 -1304 1041 -1315Q1041 -1344 1054.5 -1362Q1068 -1380 1083 -1398Q1082 -1404 1077 -1408Q1068 -1404 1049 -1397L888 -1437Q885 -1423 876 -1396Q866 -1379 848 -1345Q870 -1336 890 -1325Q884 -1306 878 -1268Q910 -1252 954 -1249L940 -1156Q823 -1154 776 -1038Q741 -934 706 -830Q656 -837 578 -837Q559 -837 521 -837Q483 -836 464 -836Q456 -836 439.5 -834.5Q423 -833 415 -833Q404 -833 388 -847Q372 -861 361 -861Q355 -861 339 -859Q357 -856 386 -844Q395 -819 395 -809Q395 -797 392 -786Q415 -793 420 -793Q437 -793 574 -776Q631 -769 692 -769Q727 -769 741 -772Q773 -803 802 -881Q846 -1001 847 -1002Q855 -1000 872 -997V-988Q872 -940 879 -925Q900 -959 933 -1012L955 -998Q811 -775 798 -758Q720 -655 589 -556Q536 -516 506 -516Q509 -505 509 -493Q509 -486 508 -475Q465 -447 417 -442Q495 -442 536 -473Q546 -482 568 -499Q634 -544 762 -636Q806 -670 880 -729Q935 -808 981 -901L1000 -882Q972 -817 905 -718L1128 -778Q1128 -823 1134.5 -908Q1141 -993 1141 -1036ZM264 -1314Q260 -1394 241 -1483Q226 -1450 196 -1450Q141 -1450 141 -1495Q141 -1507 152 -1528L175 -1517Q167 -1502 167 -1495Q167 -1476 196 -1476Q219 -1476 219 -1501Q219 -1534 177 -1534Q126 -1534 126 -1488Q126 -1458 176 -1406Q261 -1318 264 -1314ZM442 -1179Q442 -1247 337 -1247Q233 -1247 233 -1179Q233 -1147 269 -1110.5Q305 -1074 337 -1074Q369 -1074 405.5 -1110.5Q442 -1147 442 -1179ZM1181 -545Q1181 -586 1163 -649Q1149 -701 1134 -752L889 -687Q827 -459 765 -266H1119Q1119 -379 1133 -422Q1135 -429 1160 -486Q1181 -533 1181 -545ZM167 -1186Q148 -1194 139 -1201Q142 -1190 148 -1183Q168 -1186 166 -1186ZM341 -887L337 -986L333 -886ZM372 -807Q372 -836 330 -836Q304 -836 304 -811Q304 -803 320 -788Q336 -773 344 -773Q355 -773 366 -781Q372 -813 372 -807ZM353 -618L347 -751L327 -756L321 -618ZM1202 327Q1202 315 1194.5 293.5Q1187 272 1186 263Q1183 243 1183 202Q1183 181 1184.5 139.5Q1186 98 1186 77Q1186 23 1151 -103Q1136 -156 1116 -240H1003Q1004 -235 1081 -25Q1126 99 1126 201Q1126 319 950 351H1148Q1181 351 1201 334Q1202 331 1202 327ZM866 -240H756Q755 -236 675 103Q659 171 648 199Q627 256 593 279Q546 311 407 349H539Q551 349 574 343Q597 337 609 337Q620 337 638.5 345.5Q657 354 668 354Q681 354 688 312Q692 286 696 259Q719 152 768 3Q823 -164 866 -240ZM972 -1361Q966 -1355 959 -1355Q956 -1355 898 -1374V-1392Q929 -1412 928 -1412Q972 -1412 972 -1373ZM424 -1196Q418 -1176 394 -1176Q352 -1176 352 -1197Q352 -1209 370 -1209Q377 -1209 390.5 -1203.5Q404 -1198 411 -1198L416 -1201ZM323 -1197Q323 -1176 280 -1176Q256 -1176 250 -1196L258 -1201L264 -1198Q271 -1198 284.5 -1203.5Q298 -1209 305 -1209Q323 -1209 323 -1197ZM376 -1123Q355 -1106 337 -1106Q319 -1106 298 -1123L301 -1132Q332 -1139 337 -1139Q342 -1139 373 -1132Z"/>
</svg>