<svg xmlns="http://www.w3.org/2000/svg" viewBox="0 0 709 1000">
  <g transform="scale(1,-1) translate(0,-1000)">
    <path d="M163 750Q132 772 132 791Q132 807 149 819Q147 822 143.0 826.0Q139 830 137 832Q102 871 102 902Q102 928 133 928Q143 928 159 926Q162 933 174.0 933.0Q186 933 189 926Q191 926 196.0 926.5Q201 927 204 927Q250 927 250 899Q250 886 245.0 873.5Q240 861 235.0 854.5Q230 848 218.0 835.0Q206 822 203 818Q223 803 223 789Q223 771 192 752Q192 752 190 751L188 750L191 681Q199 679 203 679Q376 663 422 663H443Q452 669 460 677Q461 685 463 695Q459 701 449 711Q433 727 426.5 738.5Q420 750 420 770Q420 808 449 837Q451 865 451 873Q451 894 459.5 900.5Q468 907 504 907Q498 910 476.5 918.0Q455 926 446.0 935.0Q437 944 432 962Q431 964 431 969Q431 982 444.0 991.0Q457 1000 479 1000Q527 1000 532 977Q532 974 534.5 966.5Q537 959 537 955Q537 937 498 937Q486 937 486 948Q486 953 489.5 955.5Q493 958 496.5 958.5Q500 959 505.5 959.5Q511 960 512 960Q510 963 509 970Q497 977 479 977Q455 977 455 969V968Q459 952 469.0 944.5Q479 937 499.5 930.0Q520 923 529 918Q544 940 547 954Q551 969 572.5 974.5Q594 980 596 981Q622 1000 635.0 1000.0Q648 1000 651 983Q670 999 679 999Q686 999 697.5 992.0Q709 985 709 976Q709 975 707 971L627 767Q626 765 624.5 755.0Q623 745 616.5 735.5Q610 726 596 714Q590 709 582.0 706.0Q574 703 569.0 701.5Q564 700 564 697Q564 696 565.5 692.0Q567 688 568 684Q578 674 600 656Q629 631 629 604Q629 594 622.5 580.0Q616 566 616 559L609 489Q609 452 623.5 427.0Q638 402 638 382Q638 364 622.0 349.0Q606 334 606 329Q605 322 605 309Q605 288 612.0 250.5Q619 213 621 192Q638 25 638 14Q638 9 633.5 4.5Q629 0 623 0H455Q449 0 444.5 4.5Q440 9 440 14Q440 22 461.0 37.5Q482 53 494 55Q530 64 533 74Q538 89 538 106Q538 124 525.5 139.5Q513 155 509 178Q500 224 492 250L486 271L466 251Q438 223 428 201Q422 187 416.0 176.0Q410 165 407.0 160.0Q404 155 401.5 146.0Q399 137 397 122Q397 117 392.5 89.5Q388 62 388 54Q388 50 388.5 39.5Q389 29 389 23V15Q389 0 374 0H187Q172 0 172 14Q172 32 189.0 42.0Q206 52 227.5 55.5Q249 59 269.5 65.5Q290 72 296 83Q311 112 314.5 129.5Q318 147 318.0 171.5Q318 196 323 223Q324 229 331 241Q331 245 371 312Q390 344 400.0 363.5Q410 383 422.0 421.5Q434 460 434 495Q434 498 432.0 514.0Q430 530 430 556Q420 534 412.0 501.5Q404 469 397.5 447.0Q391 425 382 418Q374 412 357.0 406.5Q340 401 305.5 392.0Q271 383 247 375Q262 333 262 318Q262 302 246 302Q235 302 229.0 316.5Q223 331 215 370Q199 372 189.0 383.5Q179 395 179 407Q179 418 190 429Q177 451 162 451Q138 451 138 434Q138 421 160.0 388.5Q182 356 182 336Q182 315 164.0 296.5Q146 278 115 278Q68 278 34.0 315.5Q0 353 0 399Q0 444 42.0 477.0Q84 510 129 510Q215 510 236 425Q242 427 288.0 444.5Q334 462 345 465Q353 467 357.5 489.0Q362 511 373.5 546.0Q385 581 408 607Q408 608 407.5 609.5Q407 611 407 612V617Q373 618 338.5 620.0Q304 622 278.5 624.5Q253 627 233.0 628.5Q213 630 202 632L190 633H178Q162 633 153.0 640.0Q144 647 142.5 652.5Q141 658 141 663Q141 681 162 686ZM599 900Q611 913 619.0 930.0Q627 947 630.0 957.0Q633 967 633 970Q633 974 630 980Q626 978 608 965Q601 960 591.0 957.5Q581 955 574.5 953.5Q568 952 567 948Q561 927 547 908Q549 907 551 905Q559 904 575.0 902.0Q591 900 599 900ZM562 774Q562 782 561.0 788.0Q560 794 555.0 804.0Q550 814 537.0 819.5Q524 825 504 825Q491 825 473 821Q450 798 450 772Q450 761 452.5 754.0Q455 747 458.5 742.5Q462 738 471 729Q494 706 494 699V697Q491 682 489 669Q489 668 486 663Q515 663 545 666Q538 673 538 678Q538 681 536.0 686.5Q534 692 534 697Q534 718 557 726Q557 729 559.5 747.0Q562 765 562 774ZM608 382Q608 394 593.5 422.0Q579 450 579 489Q579 499 586 562Q587 572 593.0 586.0Q599 600 599 604Q599 610 594 618Q543 615 496 615Q487 615 467.5 615.5Q448 616 438 616L437 615V612Q437 609 447.5 595.5Q458 582 459 569Q464 515 464 496Q464 437 439.0 378.5Q414 320 385.0 275.5Q356 231 353 218Q348 193 348.0 168.0Q348 143 344.0 123.5Q340 104 324 72Q308 41 226 27H359Q358 49 358 53Q358 68 367 125Q369 140 372.0 150.0Q375 160 377.5 165.5Q380 171 387.0 184.0Q394 197 400 211Q408 229 419.5 243.0Q431 257 447.0 272.0Q463 287 472 298Q474 300 478 302Q470 335 470 350Q470 367 473.5 375.5Q477 384 496 416Q500 424 509 424Q515 424 519.5 419.5Q524 415 524 410Q524 406 512.0 388.0Q500 370 500 350Q500 337 506.5 310.0Q513 283 523.5 246.0Q534 209 539 183Q543 163 555.5 145.5Q568 128 568 106Q568 65 552.0 51.0Q536 37 501 29Q500 28 498.0 28.0Q496 28 495 27H607Q607 28 604.0 56.0Q601 84 597.0 124.5Q593 165 591 190Q589 208 582.0 246.5Q575 285 575.0 309.0Q575 333 579.0 342.0Q583 351 597 364Q608 374 608 382ZM486.0 490.5Q491 496 495.0 496.0Q499 496 504.0 491.0Q509 486 509.0 482.0Q509 478 504.5 472.0Q500 466 496.0 466.0Q492 466 486.5 471.5Q481 477 481.0 481.0Q481 485 486.0 490.5ZM503 783Q503 764 485 764Q476 764 469.5 770.0Q463 776 463 784Q463 790 467.5 795.5Q472 801 478.0 801.0Q484 801 493.5 797.0Q503 793 503 783ZM129 480Q95 480 62.5 455.5Q30 431 30 399Q30 387 32 381Q36 379 57.0 365.5Q78 352 98 348Q100 348 102.0 347.5Q104 347 105 347Q110 347 115.5 349.0Q121 351 129.0 355.0Q137 359 142 361Q139 365 131.5 376.5Q124 388 120.0 395.0Q116 402 112.0 412.5Q108 423 108 433Q108 468 144 479Q139 480 129 480ZM643 925Q635 897 616 877Q612 873 600 873Q594 873 562.0 876.5Q530 880 504 880Q487 880 479 879Q478 872 478.0 864.0Q478 856 479 852Q487 853 502 853Q587 853 596 792L607 781L674 967Q655 954 649 941Q648 933 643 925ZM154 796Q152 792 152.0 791.0Q152 790 154 786ZM174 767Q176 766 176 766L177 767L175 798L174 797ZM195 799Q195 795 195.5 788.5Q196 782 196 780Q202 786 203 790Q202 792 195 799ZM230 899Q230 908 205 908Q202 908 197.0 907.5Q192 907 190 907Q191 869 193 843Q217 867 223.5 876.5Q230 886 230 899ZM155 842 156 907Q140 909 133 909Q125 909 123.5 907.5Q122 906 122 902Q122 879 155 842ZM64 328Q84 308 114 308Q130 308 139.5 315.5Q149 323 151 332Q116 317 104 317Q86 317 64 328Z" fill="currentColor"/>
  </g>
</svg>