<svg xmlns="http://www.w3.org/2000/svg" viewBox="24.7 -1611.3 1746.6 2032.6">
	<path fill="currentColor" d="M1696 -300Q1696 -235 1652 -196Q1592 -211 1592 -260Q1592 -273 1597 -299.5Q1602 -326 1603 -337Q1598 -345 1591 -352Q1586 -353 1579 -343.5Q1572 -334 1566 -331Q1519 -308 1500 -309H1466V-342Q1460 -347 1424 -347V-369Q1424 -391 1441 -396Q1462 -401 1464 -408Q1463 -428 1479 -461Q1486 -464 1496 -473Q1491 -540 1504 -673L1425 -920Q1380 -885 1380 -767Q1380 -711 1407 -650Q1434 -589 1434 -560Q1434 -553 1411 -491Q1383 -417 1375 -389L1461 53V183Q1461 186 1474 227.5Q1487 269 1487 284Q1487 346 1426 346Q1421 346 1397.5 332.5Q1374 319 1367 319Q1360 319 1353 325.5Q1346 332 1341 333Q1289 346 1246 346Q1242 346 1213.5 343Q1185 340 1173 340L1160 327Q1163 312 1172 287Q1226 278 1280 269Q1364 247 1364 185Q1364 117 1269 -155Q1263 -172 1263 -224Q1252 -228 1206 -228Q1180 -228 1154 -226Q1109 -167 1105 -75Q1104 -57 1083 1Q1049 79 990 231Q990 266 989 302Q988 346 946 346Q941 346 918.5 335Q896 324 887 324Q880 324 808 335Q736 346 729 346Q678 346 678 313Q678 293 690 273Q731 267 814 253Q850 247 879 196Q883 189 915 117Q951 35 965 -51Q975 -117 985 -183Q1010 -285 1066 -437Q1159 -690 1160 -692L1097 -931Q1100 -936 1088 -936Q1072 -936 962 -812.5Q852 -689 809 -689Q783 -689 656 -785Q577 -844 498 -904V334Q480 336 446 345V-900Q410 -940 410 -957Q410 -975 417 -1013Q425 -1059 434 -1059Q441 -1059 442 -1054Q442 -1053 444 -1053Q448 -1056 448 -1061L295 -1370L248 -877H223V-900Q220 -903 209 -903Q195 -903 189 -877H169Q176 -909 147 -909Q139 -909 129 -900Q116 -888 113 -887Q105 -894 100 -894L272 -1428H296L459 -1102V-1259Q356 -1344 356 -1405Q356 -1452 389.5 -1486Q423 -1520 464 -1520Q493 -1520 528 -1495Q568 -1466 574 -1426Q578 -1401 578 -1351Q578 -1339 602 -1314V-1295Q600 -1295 590 -1292Q580 -1289 574 -1289Q561 -1289 543 -1312Q529 -1331 526 -1341Q534 -1353 534 -1374Q534 -1407 515.5 -1439.5Q497 -1472 474 -1472Q444 -1472 425 -1440Q410 -1416 410 -1394Q410 -1365 434 -1341Q443 -1332 501 -1288V-1047Q533 -1020 597 -968Q663 -928 799 -839Q813 -851 964 -1026Q1060 -1137 1136 -1141Q1143 -1141 1166 -1149V-1178Q1127 -1186 1098 -1210Q1098 -1274 1100 -1264Q1086 -1272 1072.5 -1281Q1059 -1290 1059 -1305Q1059 -1313 1107 -1377Q1086 -1388 1043 -1414Q1043 -1431 1043 -1448Q1045 -1472 1064 -1490Q1051 -1501 1043 -1518Q1065 -1536 1083 -1536Q1107 -1536 1139 -1524Q1136 -1508 1126 -1473Q1118 -1444 1118 -1437Q1118 -1425 1125 -1418Q1183 -1525 1284 -1525Q1417 -1525 1469 -1395Q1484 -1356 1492 -1253Q1500 -1140 1510 -1105Q1544 -1000 1578 -895Q1616 -768 1616 -662Q1616 -579 1597.5 -529Q1579 -479 1579 -472Q1579 -467 1590 -443.5Q1601 -420 1601 -409Q1622 -400 1663 -381Q1672 -376 1684 -348Q1696 -320 1696 -300ZM1111 -1508H1086Q1090 -1495 1099 -1477Q1111 -1501 1111 -1508ZM1482 -1108V-1164Q1483 -1257 1454 -1349Q1405 -1504 1292 -1504Q1205 -1504 1144 -1404Q1197 -1396 1251 -1388Q1327 -1375 1327 -1319Q1327 -1295 1306 -1277V-1001H1384Q1377 -1059 1385 -1108Q1409 -1112 1434 -1112Q1460 -1112 1482 -1108ZM1095 -1419V-1476Q1064 -1461 1064 -1447V-1430Q1086 -1419 1095 -1419ZM1670 -303Q1670 -324 1660 -346Q1647 -372 1629 -372H1611Q1627 -359 1627 -334Q1627 -322 1622.5 -298.5Q1618 -275 1618 -265Q1618 -234 1652 -228Q1670 -272 1670 -303ZM1595 -665Q1582 -770 1548 -899Q1512 -1036 1481 -1088Q1473 -1091 1455 -1091Q1448 -1091 1431 -1088Q1414 -1085 1407 -1085V-972H1278V-1282Q1289 -1298 1305 -1324Q1279 -1356 1242 -1360Q1179 -1365 1176 -1366Q1198 -1362 1198 -1329Q1198 -1320 1189 -1311Q1167 -1316 1123 -1331V-1350Q1134 -1359 1150 -1373Q1145 -1373 1136 -1380Q1116 -1352 1086 -1302Q1103 -1296 1134 -1280Q1123 -1227 1123 -1221Q1147 -1213 1193 -1195Q1191 -1168 1178 -1117Q1166 -1120 1153 -1120Q1081 -1120 975 -1000Q823 -826 799 -807Q778 -822 649 -903Q559 -960 508 -1010V-932Q785 -716 807 -716Q824 -716 956 -842Q1088 -968 1102 -968Q1109 -968 1113 -964L1178 -711Q1244 -725 1353 -754Q1358 -791 1378.5 -879.5Q1399 -968 1431 -968Q1441 -968 1445 -964Q1464 -880 1505 -764Q1525 -707 1525 -595Q1525 -498 1518 -457Q1487 -437 1487 -418Q1487 -412 1515 -401V-352Q1517 -352 1523.5 -349Q1530 -346 1538 -346Q1553 -346 1564 -375Q1573 -397 1573 -408Q1573 -404 1552 -467ZM1407 -558Q1407 -562 1358 -726H1340Q1285 -710 1184 -681Q1127 -503 1038 -256H1374Q1353 -340 1353 -386Q1353 -411 1355 -417Q1362 -439 1387 -501Q1407 -552 1407 -558ZM490 -958V-988Q484 -991 473 -1000H454Q437 -966 437 -960Q437 -942 450 -930Q472 -941 490 -958ZM263 -1321L142 -944Q142 -939 149 -931Q179 -931 227 -930ZM1466 281Q1466 274 1452.5 237Q1439 200 1439 193V69L1379 -227H1290V-172Q1290 -166 1302 -140Q1317 -109 1319 -101Q1342 -28 1373 92Q1391 161 1391 187Q1391 256 1308 286Q1256 305 1193 305L1308 313Q1316 311 1342 301Q1363 292 1370 292Q1377 292 1400.5 302.5Q1424 313 1431 313Q1466 313 1466 281ZM1117 -227H1022Q1015 -160 1003 -97Q989 -20 931 144Q896 242 862 259Q814 283 707 300Q706 303 706 312Q715 312 731 315.5Q747 319 753 319Q760 319 820 308Q880 297 887 297Q894 297 917.5 308Q941 319 946 319Q954 319 967 306Q964 291 964 274Q964 220 1008 114Q1067 -24 1078 -64Q1088 -117 1117 -227Z"/>
</svg>