<svg xmlns="http://www.w3.org/2000/svg" viewBox="0 -2048 2048 2048">
	<path fill="currentColor" d="M1652 -1426Q1652 -1352 1577 -1310Q1517 -1277 1444 -1277Q1396 -1211 1303 -1086Q1377 -1006 1450 -927Q1549 -813 1549 -748Q1549 -709 1509 -699Q1497 -696 1448 -696Q1320 -696 1155 -751Q1161 -711 1184 -619Q1205 -535 1205 -530Q1205 -524 1186 -449.5Q1167 -375 1167 -369Q1167 -369 1189 -258Q1185 -242 1185 -209Q1205 -144 1231 -24Q1232 39 1238 161Q1240 185 1251 239Q1260 289 1260 295Q1260 349 1216 349Q1209 349 1182 344Q1155 339 1148 339Q1143 339 1109 345Q1072 352 1056 353Q1016 356 956 351V295Q981 304 1054 278Q1140 247 1140 191Q1140 93 1033 -170Q1032 -190 1029 -224Q1028 -229 1023 -239H926Q909 -211 885 -154Q859 -27 826 75Q794 167 762 259Q770 268 770 282Q770 304 753.5 326.5Q737 349 721 349Q715 349 697.5 341Q680 333 674 333Q689 333 648 343Q599 355 546 355Q497 355 449 343Q457 328 454 302Q505 292 556 282Q627 260 654 209Q690 140 735 -62Q732 -89 733 -144Q747 -174 768 -231Q790 -317 852 -521Q906 -698 906 -704Q906 -745 854 -925Q805 -863 755 -800Q688 -723 625 -723L353 -756Q336 -756 308 -736L142 349Q124 346 100 337L263 -734Q260 -743 245.5 -764Q231 -785 231 -792Q231 -800 248.5 -829.5Q266 -859 266 -872Q266 -876 264 -880H281Q299 -957 319 -1109H366L329 -879Q342 -860 370 -839Q500 -827 574 -827Q603 -827 649 -880Q716 -961 782 -1041Q873 -1139 946 -1144Q948 -1145 955 -1152V-1193Q949 -1197 909 -1204Q877 -1209 869 -1227Q872 -1245 872 -1280Q830 -1316 830 -1323Q830 -1331 879 -1396Q876 -1403 840 -1420Q808 -1436 808 -1453Q808 -1469 828 -1506Q830 -1511 821.5 -1519.5Q813 -1528 813 -1535Q813 -1562 849 -1562Q858 -1562 881.5 -1547Q905 -1532 911 -1521Q879 -1475 879 -1472Q879 -1463 892 -1437Q961 -1551 1053 -1551Q1094 -1551 1139 -1527Q1237 -1475 1261 -1359Q1273 -1257 1285 -1154Q1335 -1212 1409 -1339Q1426 -1333 1464 -1333Q1496 -1333 1507 -1335Q1530 -1339 1550 -1356Q1603 -1401 1603 -1429Q1603 -1445 1578 -1465.5Q1553 -1486 1540 -1486Q1500 -1486 1470.5 -1432Q1441 -1378 1382 -1378H1358Q1360 -1386 1347 -1413Q1366 -1419 1402 -1432Q1440 -1535 1554 -1535Q1590 -1535 1623 -1490Q1652 -1451 1652 -1426ZM1627 -1414H1619L1601 -1369L1609 -1366ZM1599 -1357L1593 -1362L1580 -1349L1585 -1343ZM1436 -1429L1428 -1432L1421 -1418L1429 -1415ZM1431 -1303L1423 -1307L1405 -1283L1412 -1278ZM1409 -1277L1401 -1279L1394 -1265L1402 -1262ZM1398 -1260L1390 -1263L1383 -1249L1391 -1246ZM875 -1517L856 -1536L850 -1530L869 -1512ZM1259 -1127V-1157Q1259 -1165 1255 -1187Q1251 -1214 1250 -1222Q1239 -1353 1210 -1417Q1163 -1519 1056 -1519Q958 -1519 917 -1422Q972 -1418 1071 -1392Q1102 -1377 1102 -1336Q1102 -1312 1081 -1294V-1013H1166Q1168 -1029 1168 -1045Q1168 -1059 1166 -1078Q1164 -1097 1164 -1103Q1164 -1132 1227 -1132Q1250 -1132 1259 -1127ZM862 -1438Q855 -1459 855 -1497Q835 -1477 835 -1461Q835 -1438 862 -1438ZM1249 -1098Q1250 -1098 1234.5 -1101Q1219 -1104 1196 -1104V-1018Q1217 -1047 1249 -1098ZM1521 -756Q1521 -805 1435 -904Q1366 -979 1297 -1053Q1292 -1055 1283 -1055Q1269 -1026 1238 -987Q1296 -923 1328 -891Q1392 -828 1434 -802Q1432 -792 1425 -778Q1376 -791 1239 -802Q1124 -812 1088 -832Q1078 -813 1067 -810Q1048 -805 1031 -791Q1060 -772 1077 -772Q1084 -772 1107.5 -780.5Q1131 -789 1137 -789Q1311 -724 1361 -724H1498Q1521 -749 1521 -756ZM1374 -812L1224 -963Q1189 -916 1168 -834ZM1147 -852L1140 -855L1133 -841L1140 -837ZM1118 -749Q1095 -745 1058 -730H1078Q1107 -738 1118 -749ZM1172 -985H1053V-1299Q1053 -1305 1064 -1317.5Q1075 -1330 1075 -1336Q1075 -1362 1009 -1380Q958 -1393 920 -1393Q900 -1393 886 -1368Q864 -1327 857 -1319Q874 -1313 906 -1297Q895 -1254 901 -1231Q928 -1227 982 -1215V-1168Q982 -1129 964 -1122Q936 -1115 908 -1108Q848 -1084 761 -978Q716 -916 672 -855Q629 -805 557 -805Q557 -805 473.5 -810Q390 -815 351 -815Q351 -815 348.5 -805Q346 -795 346 -779L628 -745Q670 -745 756 -850Q844 -959 864 -963Q928 -819 928 -708H947Q965 -710 990 -720Q1000 -733 1018 -757V-765Q1010 -788 1012 -791V-798Q1013 -816 1021 -850Q1038 -860 1050 -865Q1057 -853 1074 -838Q1074 -855 1078 -858Q1102 -875 1128 -915Q1150 -950 1172 -985ZM1184 -530Q1184 -528 1134 -712H1105Q1097 -712 1076 -706Q1051 -700 1044 -699Q1037 -689 1023 -674Q989 -691 982 -691Q958 -691 930 -677Q840 -408 803 -267H1156V-297Q1146 -333 1141 -399Q1145 -421 1165 -475Q1184 -525 1184 -530ZM323 -815Q299 -827 291 -827Q275 -827 258 -810V-779Q272 -767 285 -767Q315 -767 323 -815ZM1233 315V264Q1233 256 1222 206Q1211 156 1211 151V8Q1211 4 1190 -89Q1167 -191 1161 -238H1053V-199Q1053 -191 1068 -159Q1086 -119 1089 -110Q1135 33 1149 97Q1167 181 1167 202Q1167 294 977 320L1083 328Q1096 325 1128 315Q1155 306 1162 306Q1169 306 1187 314Q1205 322 1211 322Q1226 322 1233 315ZM895 -238H798Q782 -205 760 -144Q763 -118 762 -73Q743 4 724 81Q699 174 675 226Q661 256 575 292Q511 319 481 325Q494 325 519 329Q544 333 549 333Q556 333 610.5 319.5Q665 306 672 306Q679 306 690 314Q701 322 708 322H730Q743 296 740 281Q734 252 733 255Q804 71 838 -50Q850 -114 895 -238ZM971 -1325Q958 -1312 949 -1312Q943 -1312 926.5 -1318Q910 -1324 901 -1324Q904 -1332 912 -1345Q920 -1358 923 -1366Q950 -1368 971 -1325Z"/>
</svg>