<svg xmlns="http://www.w3.org/2000/svg" viewBox="23.2 -1632.8 1236.7 2074.7">
	<path fill="currentColor" d="M1183 -1268Q1183 -1240 1111 -1218Q1065 -1204 1019 -1191Q1057 -1134 1057 -1102Q1057 -1080 1049 -1065Q986 -945 986 -948Q986 -940 995 -933Q1014 -936 1035.5 -905.5Q1057 -875 1057 -853Q1057 -846 1043.5 -765Q1030 -684 1030 -677Q1030 -632 1054.5 -562.5Q1079 -493 1079 -469Q1079 -468 1059 -392Q1024 -258 1024 -168Q1024 -109 1035 -35.5Q1046 38 1046 79Q1046 116 1041 160Q1038 186 1052 196L1040 205Q1031 220 1050 291Q1055 312 1050 347Q1047 365 1024 365Q1017 365 988.5 357Q960 349 953 349Q946 349 917.5 354.5Q889 360 882 360Q877 360 848 357Q819 354 807 354L795 341Q801 335 801 311Q832 316 882 297Q948 271 948 220Q948 216 935 143Q921 60 916 24Q908 -41 878 -155H825Q799 -123 769 -59Q761 12 733 86Q698 181 692 205Q680 255 677 306Q676 328 656 349H413Q412 347 412 306Q449 300 485 294Q533 283 558 257Q579 235 599 154Q622 60 654 -87Q664 -135 703 -224Q738 -299 773 -373Q833 -507 833 -538Q833 -544 818 -604Q754 -544 663 -525Q585 -512 508 -498Q497 -495 482 -480Q484 -473 494 -458.5Q504 -444 504 -437Q504 -412 472 -412Q456 -412 435 -424Q435 -451 432 -457Q421 -468 407 -496Q412 -513 410 -545Q392 -566 353 -615Q346 -614 335 -601.5Q324 -589 324 -579Q324 -573 348 -538Q376 -498 382.5 -480Q389 -462 389 -439Q389 -410 370.5 -386.5Q352 -363 324 -363Q310 -363 273 -393Q239 -420 233 -430Q187 -505 187 -568Q187 -622 226.5 -659.5Q266 -697 321 -697Q435 -697 448 -565Q448 -565 480 -565Q482 -565 522 -585Q531 -589 605 -616Q641 -627 708 -659Q733 -676 766.5 -713Q800 -750 800 -760Q800 -774 788.5 -793Q777 -812 764 -812Q756 -812 651 -760Q546 -708 504 -708Q461 -708 385 -748Q369 -757 308 -794Q263 -822 255 -822Q234 -822 230 -785H199Q195 -792 193 -815Q192 -831 182 -831Q177 -830 172 -829Q169 -846 169 -880Q154 -910 154 -907Q154 -915 157 -922Q160 -929 160 -931Q182 -931 182 -931Q185 -943 171 -943Q175 -943 147 -936Q131 -932 100 -943V-980Q100 -980 187 -980Q171 -990 138 -1010Q138 -1018 140 -1022.5Q142 -1027 153 -1028Q163 -1030 165 -1028V-1029Q159 -1041 143 -1051Q127 -1061 121 -1069Q132 -1085 138 -1085Q145 -1085 149.5 -1080Q154 -1075 160 -1078Q149 -1092 132 -1116L146 -1129L157 -1118Q167 -1137 194 -1178Q217 -1176 233 -1145Q256 -1101 269 -1088Q266 -1085 261 -1077Q256 -1069 253 -1066Q263 -1056 274 -1056Q268 -1050 268 -1037Q254 -1037 250 -1041Q247 -1038 246 -1034.5Q245 -1031 242 -1028Q251 -1019 263 -1019Q263 -1016 260 -1006Q257 -996 257 -993Q254 -993 248.5 -995.5Q243 -998 240 -998Q237 -995 235.5 -991.5Q234 -988 231 -985Q250 -989 283 -992H307V-935Q268 -940 230 -936Q242 -902 288.5 -878.5Q335 -855 419 -829Q493 -806 507 -806Q510 -806 594 -857Q693 -917 741 -941Q745 -943 850 -958V-977Q836 -983 807 -999Q809 -1013 809 -1036Q806 -1041 778 -1055Q799 -1089 821 -1124Q850 -1169 899 -1203Q889 -1211 855 -1211Q849 -1211 830 -1208.5Q811 -1206 803 -1206Q776 -1206 752.5 -1224Q729 -1242 729 -1264V-1287H749Q756 -1279 775 -1266Q783 -1277 773 -1308Q792 -1327 813 -1321Q817 -1325 817 -1493Q838 -1556 863 -1556Q869 -1556 878 -1548Q887 -1540 893 -1540Q893 -1540 906 -1548Q927 -1551 983 -1551Q989 -1551 997 -1545.5Q1005 -1540 1011 -1540Q1018 -1540 1023 -1545.5Q1028 -1551 1035 -1551Q1074 -1551 1079 -1526V-1326Q1098 -1332 1123 -1319Q1119 -1290 1123 -1281Q1133 -1271 1134 -1271Q1117 -1271 1183 -1287ZM1051 -1272V-1517Q1048 -1517 1040.5 -1519.5Q1033 -1522 1030 -1522V-1272ZM997 -1279Q997 -1507 984 -1523Q964 -1503 965 -1487V-1272Q990 -1272 997 -1279ZM936 -1266V-1522H913V-1278Q920 -1273 936 -1266ZM887 -1278V-1444Q887 -1451 884 -1475.5Q881 -1500 880 -1510Q872 -1523 856 -1523Q838 -1496 838 -1466Q838 -1479 841.5 -1421Q845 -1363 845 -1266Q861 -1270 887 -1278ZM1096 -1236Q1081 -1236 1048.5 -1242.5Q1016 -1249 1011 -1249Q987 -1249 977 -1241Q975 -1238 971.5 -1227.5Q968 -1217 962 -1217Q948 -1217 933.5 -1233Q919 -1249 896 -1249Q889 -1249 872 -1245Q855 -1241 847 -1241Q919 -1241 922 -1206Q922 -1206 989 -1206Q994 -1206 1005.5 -1215.5Q1017 -1225 1022 -1226Q1105 -1236 1096 -1236ZM1035 -1099Q1035 -1130 1009.5 -1159.5Q984 -1189 951 -1189Q918 -1189 871 -1153Q881 -1149 919 -1129Q948 -1113 956 -1113Q962 -1113 971 -1121Q980 -1129 986 -1129Q992 -1129 1005.5 -1112.5Q1019 -1096 1019 -1085Q1019 -1066 993 -1014Q1035 -1084 1035 -1099ZM1030 -847Q1030 -880 1002 -902Q990 -906 969 -916Q959 -923 959 -946Q959 -966 973 -984Q968 -996 968 -1008Q968 -1022 977 -1041Q986 -1060 986 -1065V-1095Q984 -1095 977 -1090Q970 -1085 962 -1085Q954 -1085 914 -1103Q864 -1125 851 -1129Q839 -1093 817 -1071Q844 -1058 844 -1050Q844 -1043 841.5 -1026Q839 -1009 839 -1004Q852 -1001 864.5 -997Q877 -993 877 -976Q877 -928 852 -926Q814 -925 752 -913Q694 -888 598 -827Q513 -773 510 -773Q503 -773 488 -782.5Q473 -792 470 -793Q406 -812 289 -846Q276 -850 238 -888Q238 -869 237 -845Q239 -845 244.5 -847.5Q250 -850 258 -850Q265 -850 331 -809Q409 -761 440 -747Q466 -735 504 -735Q546 -735 650.5 -787Q755 -839 773 -839Q789 -839 807 -809Q823 -784 824 -773Q878 -827 913 -855Q928 -848 926 -838Q921 -833 803 -713Q730 -637 687 -621Q662 -611 568 -571Q491 -538 485 -538Q478 -538 474 -540.5Q470 -543 463 -543Q446 -543 428 -502Q433 -497 435 -489Q485 -523 544 -531Q592 -535 639 -539Q713 -553 798 -630Q863 -691 928 -751L942 -738Q838 -634 838 -628Q838 -642 856 -560L1008 -632Q1000 -662 1006 -704Q1009 -730 1020 -790Q1030 -842 1030 -847ZM219 -1108Q219 -1123 208 -1145Q186 -1145 187 -1126V-1108ZM1057 -469Q1057 -483 1012 -603Q958 -578 857 -531Q841 -464 718 -183H996Q1005 -233 1033 -356Q1057 -463 1057 -469ZM224 -1067V-1076L182 -1082V-1072ZM219 -1026V-1046H194Q193 -1045 193 -1026ZM410 -604Q401 -632 371 -653.5Q341 -675 316 -675Q274 -675 244 -640.5Q214 -606 214 -568Q214 -513 233 -490Q247 -474 277 -451Q307 -428 316 -428Q322 -428 335 -441V-465Q335 -472 315.5 -523.5Q296 -575 296 -582Q296 -593 315.5 -617.5Q335 -642 354 -642Q362 -642 383 -625Q408 -605 410 -604ZM1030 319Q1012 267 1012 222Q1012 201 1018 153.5Q1024 106 1024 70Q1024 45 1022 18Q1012 -41 996 -154H910L975 235Q976 240 976 244Q976 275 934 305Q896 333 871 330Q888 330 918.5 327Q949 324 962 324Q970 324 993 330Q1012 334 1023 332ZM360 -439Q345 -404 302 -398Q304 -398 311.5 -394Q319 -390 327 -390Q336 -390 348 -406Q360 -422 360 -439ZM794 -154H703Q690 -116 672 -48Q654 77 615 181Q604 212 594 243Q579 278 555 293Q538 303 466 320H646Q650 283 659 226Q664 206 710 84Q725 21 752 -86Q758 -108 794 -154ZM909 -1054L896 -1041Q876 -1053 839 -1076Q839 -1107 868 -1107Q879 -1107 894.5 -1089.5Q910 -1072 909 -1054Z"/>
</svg>