<svg xmlns="http://www.w3.org/2000/svg" viewBox="0 -2048 2048 2048">
	<path fill="currentColor" d="M1641 344Q1631 350 1601 350Q1594 350 1443 323.5Q1292 297 1285 297L682 350Q642 350 610 326Q574 300 574 262Q574 238 599 190Q621 147 636 132Q696 72 796 13Q827 -5 925 -39Q1009 -68 1047 -102Q1075 -127 1075 -250Q1075 -330 1035 -633Q1034 -641 1000.5 -662.5Q967 -684 962 -684Q970 -684 869 -606Q768 -528 709 -528Q649 -528 546 -568Q472 -598 398 -628Q330 -647 199 -691Q167 -704 150 -740Q143 -755 145 -767Q131 -775 100 -800Q123 -828 167 -883Q191 -870 242 -846L757 -1391Q752 -1422 736 -1422Q729 -1422 728 -1419.5Q727 -1417 720 -1417Q696 -1417 680 -1440Q666 -1458 666 -1476Q666 -1497 682.5 -1519Q699 -1541 722 -1541Q734 -1541 759.5 -1520Q785 -1499 793 -1480Q791 -1472 791 -1458Q919 -1269 919 -1126Q919 -1121 910 -1056Q899 -986 897 -962Q940 -921 949 -921Q956 -921 976 -937Q1002 -957 1012 -962Q1016 -964 1138 -1012Q1139 -1027 1145 -1058Q1124 -1064 1087 -1079Q1075 -1085 1068 -1112Q1061 -1139 1070 -1150Q1062 -1158 1034 -1169Q1016 -1177 1016 -1193Q1016 -1200 1035 -1228Q1058 -1265 1063 -1275Q1068 -1306 1093 -1367Q1116 -1404 1175.5 -1437.5Q1235 -1471 1275 -1471Q1281 -1471 1302 -1464Q1323 -1457 1331 -1456Q1398 -1451 1441 -1388Q1479 -1333 1479 -1274Q1479 -1217 1434 -1151Q1387 -1091 1339 -1031V-1012Q1512 -984 1512 -857Q1512 -860 1475 -697Q1415 -432 1415 -366L1458 22Q1458 128 1420 171Q1420 176 1431 186Q1442 196 1445 201Q1458 228 1467 240Q1483 260 1504 268Q1551 280 1641 308ZM1452 -1277Q1452 -1343 1397.5 -1393.5Q1343 -1444 1277 -1444Q1222 -1444 1169 -1410Q1110 -1371 1103 -1316L1291 -1282Q1294 -1282 1307.5 -1293Q1321 -1304 1328 -1304Q1361 -1304 1361 -1261Q1361 -1254 1344.5 -1208Q1328 -1162 1328 -1156Q1328 -1138 1335 -1131H1379Q1406 -1131 1431 -1197Q1452 -1252 1452 -1277ZM730 -1506V-1516H715V-1506ZM741 -1469Q714 -1483 698 -1475Q698 -1469 701 -1458Q704 -1447 704 -1445H735Q735 -1448 738 -1457Q741 -1466 741 -1469ZM892 -1121Q892 -1255 764 -1443Q799 -1361 834 -1280Q854 -1226 854 -1172Q854 -1165 843.5 -1107Q833 -1049 833 -1042Q833 -1029 874 -991Q892 -1096 892 -1121ZM806 -1279Q806 -1287 802.5 -1294Q799 -1301 799 -1303Q771 -1275 714 -1220Q726 -1208 726 -1202Q806 -1255 806 -1279ZM827 -1215Q827 -1223 823.5 -1232.5Q820 -1242 820 -1244Q797 -1221 757 -1177Q760 -1174 766.5 -1165Q773 -1156 776 -1153Q827 -1204 827 -1215ZM825 -1169Q790 -1117 790 -1121Q790 -1115 800 -1098Q812 -1078 814 -1072Q825 -1138 825 -1169ZM1490 -859Q1490 -913 1442 -949Q1396 -982 1337 -982Q1312 -982 1312 -989V-1005Q1312 -1048 1324 -1068Q1337 -1080 1355 -1103Q1302 -1113 1302 -1153Q1302 -1160 1317.5 -1199.5Q1333 -1239 1333 -1246V-1271Q1299 -1255 1307 -1255L1098 -1293Q1086 -1256 1043 -1192Q1075 -1181 1095 -1165Q1094 -1142 1098 -1100Q1124 -1095 1172 -1079Q1162 -1021 1160 -990Q1135 -982 1093 -967Q1011 -938 962 -897Q1032 -827 1067 -776L1325 -943Q1328 -940 1332 -933.5Q1336 -927 1339 -924Q1337 -923 1192 -822Q1104 -761 1057 -749Q975 -829 828 -996Q792 -1058 724 -1171Q773 -1096 773 -1064Q773 -1040 738 -1040Q730 -1040 723 -1041.5Q716 -1043 714 -1043Q742 -1032 783 -1003Q823 -951 880 -842Q974 -663 1064 -663Q1101 -663 1201 -729Q1264 -772 1327 -815Q1368 -840 1363 -840Q1369 -840 1382 -827Q1298 -768 1214 -709Q1114 -639 1060 -635L1102 -240Q1102 -206 1076 -108Q1135 -131 1409 -173Q1406 -214 1399 -260Q1393 -300 1393 -304V-439ZM784 -1338Q784 -1350 771 -1363L278 -831H314ZM773 -978Q764 -993 739 -1004Q698 -1021 692 -1024L504 -836Q690 -870 773 -978ZM730 -1101Q718 -1125 718 -1131L423 -825H443Q524 -878 695 -1088Q702 -1088 700.5 -1085.5Q699 -1083 706 -1083Q712 -1083 730 -1101ZM698 -1161Q689 -1180 673 -1180L348 -825H384ZM865 -819Q865 -823 852 -841Q836 -861 824 -867Q656 -737 456 -714L698 -652Q728 -669 794 -732Q865 -800 865 -819ZM822 -896Q817 -904 804.5 -922Q792 -940 787 -948Q621 -797 375 -797Q268 -797 172 -851Q157 -829 132 -805L293 -749Q293 -763 283 -773Q296 -786 318 -786Q321 -786 348.5 -762Q376 -738 418 -738Q592 -738 822 -896ZM941 -708Q918 -739 879 -792Q861 -769 799 -707Q718 -625 698 -625Q679 -625 389 -702Q372 -706 340 -733Q348 -726 348 -719Q348 -702 302 -687Q420 -654 473 -628Q632 -549 714 -549Q749 -549 825 -606Q894 -656 941 -708ZM1436 38Q1436 -23 1414 -145H1386Q1380 -145 1338 -136Q1292 -126 1277 -125Q950 -93 671 143Q705 156 768 210Q774 210 805 202Q840 193 852 191Q1013 167 1081 167Q1160 167 1239 180Q1249 182 1290 192Q1324 200 1331 200Q1384 200 1413 141Q1436 94 1436 38ZM1543 312Q1504 301 1467 274Q1450 249 1413 207Q1408 205 1396 205Q1390 205 1357 213Q1324 221 1318 221Q1311 221 1191 207.5Q1071 194 1064 194Q994 194 756 237Q742 217 711 192Q675 162 655 162Q635 162 614 206Q596 244 596 259Q596 323 709 323L1293 270Q1298 270 1543 312ZM1166 -1218Q1145 -1221 1103 -1229Q1103 -1233 1097 -1242Q1121 -1271 1143 -1271Q1169 -1271 1166 -1242Z"/>
</svg>