<svg xmlns="http://www.w3.org/2000/svg" viewBox="16.7 -1626.3 2249.6 1985.6">
	<path fill="currentColor" d="M2183 -811Q2175 -796 2161 -766Q2096 -792 2075 -792Q2072 -792 2021 -767Q1982 -748 1902 -702Q1570 -481 1541 -481Q1505 -481 1297 -781L1294 -777Q1240 -526 1240 -356Q1240 -210 1258 -138Q1276 -66 1276 -32Q1276 46 1240 76Q1301 116 1362 156Q1461 219 1507 219Q1548 219 1551 220Q1545 241 1545 271H1414Q1417 271 1382 262Q1335 250 1259 217Q1204 193 1167 193L517 271Q470 271 437.5 250Q405 229 405 229Q399 229 384 240.5Q369 252 362 254Q293 276 262 276H163Q155 242 163 209Q233 208 263 200Q319 184 363 132Q364 114 381 70Q396 46 457 -1Q432 -102 407 -203Q369 -357 369 -416Q369 -458 395.5 -492.5Q422 -527 460 -527Q545 -527 660 -411Q752 -308 843 -206Q857 -251 874 -388Q893 -533 893 -610Q893 -751 865 -814Q854 -839 822 -852Q817 -854 781 -854Q701 -854 565.5 -817.5Q430 -781 408 -781Q349 -781 322 -874Q311 -935 300 -996Q291 -1077 269 -1235Q263 -1270 219 -1369Q219 -1372 205 -1381Q166 -1397 100 -1415Q105 -1428 117 -1465Q192 -1435 203 -1435Q209 -1435 228.5 -1460.5Q248 -1486 273 -1486Q294 -1486 361 -1435Q363 -1438 365 -1452Q367 -1461 374 -1461Q377 -1461 410 -1444Q417 -1403 414 -1357L837 -1232Q837 -1245 842 -1267Q879 -1359 915 -1451Q965 -1543 1072 -1543Q1161 -1543 1228 -1495Q1307 -1439 1307 -1344Q1307 -1285 1278 -1243Q1205 -1135 1198 -1122L1968 -879Q1972 -882 1971 -893Q1971 -903 1966 -907Q1965 -907 1948 -890Q1945 -893 1941.5 -899Q1938 -905 1935 -908Q1979 -952 1989 -952Q2012 -952 2021 -926Q2043 -937 2051 -937Q2075 -937 2098.5 -916.5Q2122 -896 2122 -871Q2122 -852 2106 -836Q2133 -828 2183 -811ZM1282 -1344Q1282 -1424 1218 -1473Q1160 -1518 1077 -1518Q946 -1518 909 -1374Q1079 -1357 1061 -1357Q1067 -1357 1097.5 -1372.5Q1128 -1388 1134 -1388Q1149 -1388 1163.5 -1369Q1178 -1350 1178 -1331Q1178 -1325 1167.5 -1308.5Q1157 -1292 1157 -1286V-1202Q1159 -1202 1166 -1196.5Q1173 -1191 1180 -1191Q1186 -1191 1206.5 -1199.5Q1227 -1208 1233 -1208Q1282 -1279 1282 -1344ZM1888 -847L1200 -1061Q1200 -1044 1216 -1042Q1279 -1035 1304 -1023Q1395 -981 1470 -860Q1522 -761 1574 -662Q1659 -709 1744 -755Q1843 -810 1888 -847ZM1203 -1175Q1193 -1165 1178 -1165Q1169 -1165 1131 -1189Q1131 -1287 1132.5 -1293.5Q1134 -1300 1143 -1316.5Q1152 -1333 1152 -1339Q1152 -1350 1140 -1362Q1129 -1360 1092 -1347Q1059 -1336 1053 -1336Q1039 -1336 904 -1351Q896 -1335 883 -1300.5Q870 -1266 862 -1250Q921 -1232 921 -1215Q921 -1209 919 -1203L1176 -1124Q1186 -1149 1203 -1175ZM2090 -877Q2090 -916 2054 -916Q2042 -916 1984 -876Q1980 -856 1959 -828Q1946 -827 1919 -838L1574 -631Q1506 -744 1439 -857Q1344 -1002 1227 -1016Q1190 -1021 1184 -1020Q1181 -1028 1176 -1068Q1122 -1088 1000 -1129Q996 -1099 993 -1069Q987 -1020 968 -1020Q962 -1020 916 -1025Q870 -1030 864 -1030Q807 -1030 738 -1007Q677 -986 616 -964Q566 -948 471 -927H453Q446 -975 404 -1141Q398 -1163 375 -1223Q354 -1277 354 -1282Q354 -1299 389 -1351Q393 -1390 382 -1424Q377 -1414 369.5 -1390.5Q362 -1367 357 -1357Q355 -1359 331 -1426Q319 -1461 278 -1461Q234 -1461 234 -1409Q234 -1383 255 -1348Q281 -1304 289 -1272Q296 -1196 315 -1044Q325 -977 335 -910Q359 -807 408 -807Q419 -807 572.5 -843.5Q726 -880 797 -880Q858 -880 885 -832Q919 -771 919 -592Q919 -488 880 -276Q867 -205 867 -214V-199Q863 -196 875 -196Q875 -196 1035 -245Q1123 -272 1220 -283Q1216 -324 1216 -370Q1216 -551 1278 -821L1290 -833Q1352 -740 1414 -647Q1511 -507 1541 -507Q1552 -507 1599 -535Q1784 -645 1967 -774Q2003 -791 2039 -808Q2090 -836 2090 -877ZM964 -1046Q968 -1062 968 -1080Q968 -1097 964 -1113Q934 -1113 922 -1119Q914 -1134 896 -1153Q886 -1157 611 -1244Q403 -1310 413 -1310H396Q396 -1305 388 -1293.5Q380 -1282 380 -1276Q380 -1274 401 -1223Q424 -1167 430 -1146Q459 -1047 474 -953Q571 -984 668 -1015Q798 -1056 856 -1056Q894 -1056 964 -1046ZM152 -1430L132 -1436V-1429L149 -1422ZM1256 -38Q1256 -41 1241 -128Q1226 -220 1223 -263Q734 -161 473 19Q554 82 562 125Q713 64 880 64Q941 64 1036 84.5Q1131 105 1147 105Q1195 105 1227 57Q1256 13 1256 -38ZM825 -182Q738 -292 710 -324Q630 -416 569 -460Q543 -438 494 -402Q524 -316 553 -229Q587 -127 583 -77ZM1500 241Q1449 235 1379 197Q1344 178 1322 161Q1257 110 1237 110Q1229 110 1149 126L890 84Q858 86 797 91Q753 95 676 117Q555 152 554 152Q530 119 506 87Q477 49 449 32Q385 71 385 131Q385 178 431 212Q474 245 525 245L1147 172Q1187 172 1243.5 192.5Q1300 213 1356 233Q1379 241 1500 241ZM561 -68Q542 -188 523 -246Q513 -276 486 -342Q462 -398 462 -403Q462 -404 545 -473Q498 -501 468 -501Q395 -501 395 -413Q395 -371 480 -20Q487 -25 561 -68ZM390 206Q386 200 367 162Q310 219 189 235L183 250H288Q301 250 337 237Q379 222 390 206ZM996 -1293Q978 -1264 960 -1264Q935 -1264 909 -1291V-1315Q913 -1315 922.5 -1318Q932 -1321 939 -1321Q954 -1321 996 -1293Z"/>
</svg>