<svg xmlns="http://www.w3.org/2000/svg" viewBox="0 -2048 2048 2048">
	<path fill="#000000" d="M2556 -603Q2556 -605 2553 -580L2555 -576H2540Q2524 -576 2492 -615Q2464 -649 2454 -671.5Q2444 -694 2423 -744Q2402 -794 2347 -891Q2305 -947 2247 -990Q2246 -986 2246 -980Q2246 -936 2290.5 -868Q2335 -800 2335 -777Q2335 -755 2335 -755Q2309 -463 2309 -425Q2309 -395 2311 -368H2205V-418H2260Q2261 -420 2261 -428Q2261 -409 2255 -508Q2256 -596 2237 -752Q2219 -770 2193 -795L2190 -791Q2164 -707 2137 -624Q2105 -518 2105 -455Q2105 -462 2114 -362H1980V-405Q2006 -405 2053 -415Q2064 -495 2085 -654Q2097 -752 2097 -777Q2097 -839 2044 -965Q2041 -973 2035 -982Q2010 -985 1983 -985Q1913 -985 1732 -902Q1682 -879 1622 -861Q1582 -849 1566 -849Q1552 -849 1509 -858Q1477 -738 1477 -681Q1477 -631 1514 -528.5Q1551 -426 1551 -367H1432Q1435 -380 1441 -407Q1457 -406 1488 -408Q1438 -539 1413 -656L1310 -360H1211V-407Q1234 -407 1276 -412Q1371 -656 1371 -922Q1371 -925 1370 -928Q1365 -947 1284 -1044Q1280 -1050 1274 -1055Q1277 -1055 1249 -1044Q1208 -1028 1093 -948Q1035 -904 977 -861Q894 -801 857 -801Q830 -801 815 -813Q814 -813 762 -864Q677 -946 629 -994Q602 -978 583 -892Q568 -824 568 -774Q568 -724 700 -346Q727 -279 769 -142Q792 -29 857 194Q882 260 945 285Q1009 299 1072 314L1074 317V366L1067 373H978Q961 373 926 366.5Q891 360 874 360Q861 360 839 367.5Q817 375 806 375Q796 375 773 362.5Q750 350 750 341Q750 328 752 301.5Q754 275 754 262Q754 230 718.5 165Q683 100 680 64H448Q420 203 420 202Q420 261 488 290Q546 307 604 325V377Q604 377 563 377Q539 377 492.5 368.5Q446 360 423 360Q411 360 386 365.5Q361 371 349 371Q335 371 312.5 354.5Q290 338 290 325Q290 317 303 281Q316 245 316 223Q316 207 313 160Q311 121 312 98L334 -260Q340 -364 294 -497Q275 -551 275 -576Q275 -617 295.5 -696.5Q316 -776 316 -815Q316 -901 278 -972L199 -715L273 -263Q276 -247 253 -191Q241 -191 217 -195Q218 -240 203 -314Q193 -294 190 -271Q185 -271 175.5 -268.5Q166 -266 161 -266Q155 -266 145 -271L162 -393Q100 -616 100 -711Q100 -717 115 -806Q127 -876 152 -1015Q181 -1164 371 -1181L377 -1184Q376 -1197 368 -1220Q353 -1234 326 -1263Q277 -1328 277 -1363Q277 -1410 319 -1465.5Q361 -1521 406 -1521Q467 -1521 493 -1510Q526 -1495 554 -1446Q622 -1325 622 -1332Q622 -1332 610 -1300H588L586 -1298V-1287Q586 -1266 589 -1242Q569 -1234 531 -1216Q531 -1215 537 -1187Q553 -1189 571 -1189Q633 -1189 870 -931Q916 -969 988 -1006Q1078 -1053 1107 -1072Q1123 -1083 1143 -1113.5Q1163 -1144 1176 -1155Q1164 -1162 1149 -1165L952 -1126Q945 -1125 936 -1148Q930 -1163 925 -1178Q974 -1191 1035 -1229Q1086 -1263 1137 -1297Q1137 -1330 1149 -1392Q1162 -1421 1175 -1421Q1183 -1421 1203 -1367Q1209 -1382 1224 -1412H1243Q1253 -1371 1248 -1277Q1313 -1215 1378 -1154Q1480 -1059 1509 -1059Q1512 -1059 1580.5 -1073Q1649 -1087 1688 -1099Q1770 -1130 1851 -1161Q1950 -1198 2021 -1198Q2126 -1198 2293 -1029Q2430 -889 2501 -762Q2556 -664 2556 -603ZM2530 -606V-614Q2527 -624 2520 -646Q2484 -754 2403 -853Q2431 -788 2458 -724Q2493 -644 2530 -606ZM2170 -816L2082 -933Q2121 -775 2121 -771L2098 -563ZM1187 -1333Q1187 -1339 1175 -1369Q1167 -1341 1167 -1324Q1167 -1313 1171 -1304Q1174 -1307 1178 -1307Q1187 -1315 1187 -1333ZM2311 -764Q2313 -782 2285 -822Q2250 -874 2247 -881Q2234 -911 2216 -1027L2234 -1040Q2249 -1028 2278 -1003Q2110 -1170 2007 -1170Q1930 -1170 1766.5 -1101.5Q1603 -1033 1521 -1033Q1463 -1033 1367 -1129Q1246 -1250 1221 -1264V-1338Q1208 -1314 1190 -1300Q1155 -1280 1088 -1238Q1056 -1215 1025 -1193Q985 -1167 955 -1160L960 -1152L1157 -1191Q1191 -1179 1211 -1167Q1219 -1162 1219 -1153Q1220 -1140 1220 -1140Q1236 -1129 1265 -1104Q1284 -1085 1355 -998Q1430 -906 1430 -897Q1430 -886 1426.5 -863.5Q1423 -841 1423 -830V-746Q1423 -724 1442 -633Q1463 -567 1504 -434Q1508 -415 1525 -390L1449 -696Q1472 -863 1496 -886Q1522 -877 1563 -877Q1623 -877 1768.5 -943Q1914 -1009 2016 -1009Q2039 -1009 2050.5 -1002Q2062 -995 2154 -880Q2206 -827 2263 -763Q2281 -713 2282 -629Q2283 -561 2284 -492ZM2083 -408V-414Q2083 -419 2081.5 -428.5Q2080 -438 2080 -442Q2080 -427 2075 -392Q2066 -391 2049 -386H2081Q2083 -405 2083 -408ZM1228 -1099Q1222 -1104 1209 -1113Q1209 -1105 1204 -1097Q1209 -1096 1212 -1096H1214Q1222 -1096 1228 -1099ZM1406 -720Q1401 -752 1401 -884Q1401 -899 1393 -907Q1390 -818 1359 -638Q1357 -628 1342 -568Q1330 -517 1330 -503H1336ZM537 -1421Q517 -1497 413 -1497Q380 -1497 365 -1483Q350 -1469 326.5 -1424Q303 -1379 303 -1362Q303 -1346 347 -1280Q358 -1264 378 -1248Q378 -1251 379.5 -1257.5Q381 -1264 381 -1267Q381 -1281 365 -1320Q349 -1359 349 -1362Q349 -1369 370 -1401Q411 -1398 432 -1393ZM1248 -1076Q1192 -1066 1206 -1066Q1202 -1066 1189 -1073Q1176 -1080 1176 -1084Q1176 -1085 1184 -1124Q1170 -1102 1133 -1062Q1100 -1037 1002 -985Q916 -939 874 -899Q872 -901 865 -901Q868 -901 740.5 -1032Q613 -1163 577 -1163Q566 -1163 545 -1160.5Q524 -1158 513 -1158Q512 -1167 507 -1194Q503 -1217 503 -1231Q503 -1238 504 -1243Q508 -1242 512 -1242Q510 -1242 561 -1252V-1277Q561 -1284 560 -1298Q559 -1312 559 -1319Q570 -1321 593 -1326Q552 -1368 550 -1397L429 -1367Q409 -1376 382 -1375L377 -1363Q409 -1295 409 -1268Q409 -1254 400.5 -1236.5Q392 -1219 392 -1216Q392 -1226 407 -1162Q345 -1149 282 -1135Q211 -1115 190 -1056Q182 -1034 154 -885Q126 -736 126 -716Q126 -618 174 -432Q188 -378 188 -390Q188 -378 183 -357Q177 -332 176 -323Q179 -331 184 -347H189Q203 -342 229 -330Q232 -301 242 -232Q243 -275 245 -262L178 -707Q175 -729 215 -860Q252 -985 270 -1022L282 -1025Q336 -923 340 -804L543 -747Q543 -985 631 -1027Q827 -827 861 -827Q883 -827 935 -863Q1010 -921 1086 -979Q1177 -1049 1248 -1076ZM784 39Q769 -51 725 -182Q689 -291 652 -400Q603 -562 543 -720Q337 -771 336 -771Q299 -667 299 -578Q299 -576 336 -449Q365 -348 360 -266L340 39ZM1050 349V336Q900 297 859 253Q822 213 792 63H706V75Q706 80 742 153Q778 226 778 253V306Q778 312 774 328Q786 349 807 349Q813 349 838 341.5Q863 334 867 334L1010 349Q1023 348 1050 349ZM582 348L578 343Q507 336 456 303Q394 262 394 198Q394 179 422 63H338V146Q338 153 340 166Q342 179 342 186V244Q342 247 330 276Q318 305 318 319Q318 328 330 337.5Q342 347 351 347Q361 347 387 339Q410 332 422 334L552 353Q563 355 582 348ZM544 -1328Q492 -1315 487 -1315Q477 -1315 477 -1325Q477 -1326 492 -1361Q496 -1361 504.5 -1364Q513 -1367 518 -1367Q535 -1367 544 -1328Z"/>
</svg>