<svg xmlns="http://www.w3.org/2000/svg" viewBox="0 -2048 2048 2048">
	<path fill="#000000" d="M1963 227Q1972 242 1958 270L1668 237H1266Q1247 283 1239 325L1074 342Q1050 342 1044 336Q1043 335 1018 289Q1057 248 1079 248Q1085 248 1093.5 251Q1102 254 1114 254Q1119 249 1119 239H718Q715 278 712 318Q708 337 656 337Q650 337 624.5 334Q599 331 592 331Q584 331 550 348Q542 329 528 325Q503 318 494 312Q487 291 487 295Q487 287 490.5 286.5Q494 286 494 284Q493 280 493 273Q493 265 494 261Q516 237 539 237Q544 237 565.5 243.5Q587 250 603 250Q601 246 594 239Q559 234 494 213Q393 162 322 112Q259 75 197 37Q100 -28 100 -78Q100 -74 106 -98Q100 -156 155 -156Q150 -156 253 -118Q283 -107 339 -100Q403 -92 424 -87Q445 -82 506 -45Q510 -43 515 -48Q501 -79 471 -143Q474 -143 484 -146.5Q494 -150 497 -150Q504 -136 521 -111V-655Q476 -684 476 -717Q476 -723 486.5 -746.5Q497 -770 499 -778Q507 -779 526 -785V-1289H547V-780Q549 -780 552.5 -777.5Q556 -775 564 -775Q571 -775 601 -799Q638 -828 649 -834Q717 -872 753 -937Q762 -953 798 -1050Q816 -1100 865 -1189Q901 -1236 1009 -1240L1013 -1244V-1270Q994 -1278 952 -1297Q949 -1320 958 -1347Q950 -1351 920 -1351Q908 -1363 908 -1376Q908 -1383 920 -1398.5Q932 -1414 933 -1416Q947 -1453 976 -1521Q1009 -1589 1109 -1589Q1115 -1589 1133.5 -1585.5Q1152 -1582 1160 -1581Q1195 -1579 1230 -1518Q1262 -1465 1262 -1434Q1262 -1399 1231 -1352Q1168 -1256 1168 -1257Q1168 -1270 1174 -1237Q1231 -1229 1260 -1216Q1313 -1191 1344 -1061Q1367 -964 1367 -886Q1367 -803 1300 -803Q1283 -803 1253.5 -818.5Q1224 -834 1214 -834Q1209 -834 1206 -833Q1245 -742 1245 -720Q1245 -714 1233 -675Q1221 -633 1219 -617Q1206 -509 1206 -457Q1206 -453 1225 -376Q1245 -293 1249 -258Q1244 -194 1241 -70Q1241 -69 1251 -24Q1258 8 1250 28ZM1234 -1420Q1234 -1461 1201 -1510Q1162 -1567 1112 -1567Q1015 -1567 980 -1474Q1052 -1462 1085 -1462Q1092 -1462 1109.5 -1470Q1127 -1478 1134 -1478Q1179 -1478 1179 -1417Q1179 -1410 1176.5 -1388Q1174 -1366 1174 -1357H1204Q1234 -1371 1234 -1420ZM1249 -947Q1249 -955 1246 -977.5Q1243 -1000 1243 -1008Q1228 -993 1228 -975Q1228 -963 1249 -947ZM1339 -894Q1339 -959 1317 -1052Q1291 -1164 1255 -1188Q1226 -1207 1195 -1207Q1189 -1207 1179 -1206Q1169 -1205 1165 -1205Q1145 -1205 1145 -1251Q1145 -1282 1153.5 -1292.5Q1162 -1303 1178 -1327Q1141 -1335 1141 -1364Q1141 -1372 1144.5 -1392Q1148 -1412 1148 -1424Q1148 -1438 1144 -1450Q1107 -1434 1107 -1434Q1085 -1434 975 -1444Q975 -1441 972.5 -1431Q970 -1421 970 -1418L979 -1426Q988 -1434 999 -1434Q1021 -1434 1040 -1409L1026 -1395H1005Q982 -1395 965 -1412Q962 -1406 956 -1393Q950 -1380 947 -1374Q973 -1376 985 -1369V-1308Q1005 -1305 1041 -1292Q1041 -1236 1031 -1212Q1020 -1214 1007 -1214Q955 -1214 911 -1185Q859 -1152 843 -1094Q803 -947 779 -913Q741 -859 587 -752Q587 -746 590 -733Q593 -720 593 -715Q673 -758 717 -786Q803 -841 829 -883.5Q855 -926 878 -990Q913 -1085 914 -1087Q922 -1097 931 -1097Q964 -983 981 -870Q1041 -882 1145 -899Q1117 -942 1045 -997Q977 -1050 968 -1066Q969 -1069 988 -1085Q997 -1076 1023 -1076Q974 -1158 974 -1163Q974 -1174 996 -1174Q1025 -1174 1060 -1117Q1078 -1086 1096 -1054Q1129 -1022 1205 -986Q1210 -1030 1238 -1086Q1241 -1086 1247.5 -1083.5Q1254 -1081 1257 -1081Q1260 -1051 1270 -989Q1278 -934 1278 -928Q1278 -906 1264 -892Q1250 -905 1147 -985Q1078 -1039 1059 -1074Q1059 -1066 1040 -1038Q1107 -973 1174 -908Q1260 -825 1298 -825Q1339 -825 1339 -894ZM1217 -720Q1217 -760 1166 -875Q1055 -854 991 -839Q952 -725 886 -494H1183Q1184 -539 1191 -628Q1194 -645 1206 -682Q1217 -715 1217 -720ZM1892 239V230H1871V239ZM1228 4V-10Q1218 -48 1213 -119Q1227 -221 1221 -269Q1205 -336 1178 -470H1102Q1114 -412 1155 -273Q1184 -173 1184 -117Q1184 -56 1163 -35Q1139 -10 1051 2Q1195 16 1221 16ZM957 -864Q957 -916 921 -1036Q908 -1006 892 -961Q852 -789 549 -664V-117Q565 -145 575 -145Q583 -145 587 -142.5Q591 -140 593 -140Q588 -123 572 -79Q559 -45 559 -37Q559 -24 565.5 -23.5Q572 -23 587.5 -20.5Q603 -18 608 -18Q608 -32 618 -38Q664 -48 709 -58Q770 -79 784 -124Q801 -179 815 -275Q826 -352 837 -429Q868 -527 899 -624Q957 -806 957 -864ZM564 -705V-730L557 -736H510L504 -705Q522 -687 534 -687Q554 -687 564 -705ZM1162 -125Q1162 -172 1127 -285Q1080 -440 1073 -471H1003Q877 -179 858 -13Q1002 5 996 5Q1002 5 1016.5 -7.5Q1031 -20 1038 -21Q1112 -29 1137 -51Q1162 -73 1162 -125ZM968 -470H881Q862 -426 854 -363Q848 -310 843 -258Q830 -159 816 -124Q783 -45 705 -32Q679 -28 642 -13H823Q834 -22 839 -30Q849 -123 889 -244Q929 -357 968 -470ZM1870 229Q1637 158 1176 40Q1141 33 1082 32H1028Q1010 32 999 31Q954 28 851 18Q764 10 758 10Q751 10 710.5 13Q670 16 664 16Q582 16 502 -13Q469 -36 413 -65Q378 -66 319 -74Q297 -80 227 -106Q166 -128 160 -128Q147 -128 133 -103Q157 -82 271 -25Q382 31 421 68Q407 82 402 82Q321 21 290 21Q282 21 276.5 24Q271 27 269 27Q268 26 266 14Q265 5 257 5Q250 5 251.5 7.5Q253 10 246 10Q239 10 233.5 2Q228 -6 221 -6Q214 -6 215.5 -3.5Q217 -1 210 -1Q192 -1 192 -23Q187 -18 177 -12Q269 49 360 111Q474 183 544 200Q559 209 568 209H592Q590 204 590 196Q590 174 607 149Q624 124 644 121Q647 124 651.5 130.5Q656 137 659 140Q621 159 621 191Q621 201 625.5 221.5Q630 242 630 253Q630 273 616 287Q568 271 572 271H543Q554 305 566 308Q594 315 661 315Q668 315 678.5 311.5Q689 308 691 308Q691 297 687 267Q685 244 687 235Q689 225 733 181Q777 137 785 87Q795 87 801 89.5Q807 92 808 92V118Q808 142 781 172Q758 199 742 205H1117Q1116 199 1116 194Q1116 169 1170 127Q1173 130 1177 136.5Q1181 143 1184 146Q1140 188 1140 218Q1140 243 1168 257Q1166 264 1158 276H1069Q1069 281 1071.5 295Q1074 309 1074 314H1142Q1160 315 1220 296Q1246 206 1293 104Q1296 107 1302.5 111.5Q1309 116 1312 119Q1296 159 1273 209H1688ZM424 -6Q403 -10 360 -30V-49Q386 -62 396 -62Q404 -62 415.5 -46Q427 -30 427 -16Q427 -10 424 -6Z"/>
</svg>