<svg xmlns="http://www.w3.org/2000/svg" viewBox="26.1 -1584.9 1487.8 1994.8">
	<path fill="currentColor" d="M1440 -255Q1440 -242 1412 -144Q1396 -144 1386.5 -147Q1377 -150 1377 -150Q1392 -194 1392 -215Q1392 -231 1389 -233H1383Q1376 -224 1375 -209L1371 -203V-197Q1365 -197 1352.5 -200Q1340 -203 1335 -203Q1335 -204 1332 -214.5Q1329 -225 1329 -231Q1329 -238 1339.5 -272Q1350 -306 1350 -313Q1350 -338 1317 -542Q1309 -593 1185 -709Q1156 -593 1144 -521L1171 -318Q1171 -286 1153 -256Q1142 -237 1110 -228Q1084 -221 1058 -214Q1010 -209 963 -203Q875 -187 875 -144L902 96V224Q902 229 912.5 260Q923 291 923 299Q923 336 883 336Q876 336 851.5 331Q827 326 820 326Q814 326 773.5 331Q733 336 727 336Q713 336 680 325V279Q722 270 763 261Q818 243 817 202L728 -197Q713 -201 707 -183Q681 -90 625 97Q608 136 586 218Q585 248 578 303Q576 311 561 323.5Q546 336 537 336Q530 336 512 328.5Q494 321 487 321Q481 321 453 328.5Q425 336 418 336H332V279Q363 274 394 270Q435 262 454 246Q482 222 507 117Q519 48 546 -89Q555 -141 564 -193Q582 -265 623 -284Q690 -308 819 -358Q852 -367 905 -402Q917 -417 917 -461Q917 -507 893 -618Q871 -724 861 -735Q841 -730 708 -687Q615 -656 558 -656L305 -682Q266 -682 266 -659Q266 -651 273 -627.5Q280 -604 278 -593H211Q200 -602 200 -616Q200 -624 205 -642Q210 -660 210 -669Q210 -674 197 -688.5Q184 -703 184 -711Q184 -714 190 -740Q195 -759 190 -776Q205 -776 210 -781V-806L206 -815Q188 -818 111 -804Q108 -824 100 -866Q124 -860 200 -860Q136 -929 136 -988Q136 -1022 171 -1047Q201 -1068 229 -1068Q267 -1068 288 -1034Q305 -1007 305 -973Q305 -947 263 -860Q290 -863 330 -866H352V-804Q319 -812 256 -825Q252 -822 252 -804Q252 -751 321 -751Q316 -751 376 -755Q429 -758 461 -756Q473 -755 509 -750.5Q545 -746 551 -746Q578 -746 664 -783Q781 -833 782 -833Q921 -882 997 -898V-921Q983 -930 923 -942Q926 -978 916 -1000Q914 -1005 898 -1028Q886 -1046 886 -1054Q886 -1059 919 -1092Q957 -1131 969 -1151Q975 -1161 975 -1173Q975 -1192 954 -1234Q955 -1235 956 -1235Q969 -1247 997 -1247L1214 -1236Q1213 -1239 1211 -1248Q1086 -1403 1086 -1453Q1086 -1511 1158 -1511Q1213 -1511 1213 -1458Q1213 -1419 1168 -1406H1150V-1431Q1170 -1431 1187 -1445V-1471Q1169 -1490 1155 -1490Q1138 -1490 1112 -1465Q1107 -1428 1155 -1361Q1198 -1304 1242 -1247Q1266 -1292 1357 -1500L1408 -1483Q1278 -1158 1179 -927Q1174 -915 1144 -900V-882Q1169 -876 1212 -854Q1244 -823 1331.5 -704.5Q1419 -586 1419 -575V-294Q1419 -288 1429.5 -275Q1440 -262 1440 -255ZM1375 -1468Q1332 -1382 1256 -1211Q1230 -1210 1210 -1210L997 -1220Q998 -1184 997 -1148Q1054 -1145 1150 -1127Q1150 -1095 1146 -1107Q1155 -1104 1164 -1090Q1165 -1087 1165 -1073Q1165 -1066 1154.5 -1036Q1144 -1006 1144 -999Q1144 -987 1169 -962ZM1413 -256Q1398 -283 1398 -315V-548Q1398 -583 1296 -714Q1200 -837 1185 -844Q1162 -850 1118 -865V-911Q1132 -923 1150 -944Q1118 -990 1118 -1002Q1118 -1009 1131 -1034Q1144 -1059 1144 -1065Q1144 -1071 1130.5 -1087.5Q1117 -1104 1117 -1114Q1096 -1114 1051 -1120Q1006 -1126 1002 -1126Q987 -1126 963 -1103Q925 -1067 917 -1061Q928 -1028 945 -963Q972 -958 1023 -943Q1023 -906 1013 -866Q923 -867 829 -828Q567 -719 564 -719Q557 -719 486 -727Q415 -735 408 -735Q408 -735 355 -731Q307 -727 285 -729Q285 -726 287.5 -716.5Q290 -707 290 -704L564 -682Q611 -682 735.5 -722Q860 -762 868 -762H882Q944 -568 944 -447Q944 -388 902 -360Q878 -344 804 -325Q727 -306 690 -283Q725 -272 815 -237Q893 -207 899 -207Q929 -207 1026 -231Q1128 -257 1137 -272Q1150 -293 1150 -318L1118 -534Q1132 -616 1140 -645Q1159 -716 1189 -746Q1263 -658 1346 -542Q1343 -526 1343 -507Q1343 -478 1369 -352Q1372 -323 1374 -295Q1381 -261 1413 -256ZM279 -978Q279 -1046 229 -1046Q163 -1046 163 -983Q163 -926 234 -856Q279 -928 279 -978ZM263 -718Q246 -735 234 -735Q219 -735 205 -711Q211 -705 245 -688Q263 -706 263 -718ZM246 -615Q246 -646 233 -666Q233 -640 226 -615ZM896 309V280Q896 273 889.5 244.5Q883 216 882 207Q879 143 868 17Q849 -124 849 -137Q849 -175 859 -200Q820 -234 791 -234Q750 -234 754 -196L843 210Q843 284 701 302L772 310Q832 298 845 301Q859 310 896 309ZM754 -242Q739 -244 696 -255Q658 -265 651 -265Q615 -265 594 -200Q583 -152 572 -105Q567 -76 557 -26Q549 14 535 80Q525 139 488 243Q466 281 421 292Q387 298 353 304Q368 315 382 315Q389 315 436 304.5Q483 294 490 294Q498 294 541 310Q549 269 565 192Q584 141 614 55Q639 -49 688 -192Q695 -203 754 -242ZM1065 -1057Q1039 -1063 992 -1074Q997 -1110 1033 -1110Q1048 -1110 1065 -1092Z"/>
</svg>