<svg xmlns="http://www.w3.org/2000/svg" viewBox="0 -2048 2048 2048">
	<path fill="#000000" d="M2134 -93L2123 -83Q2099 -105 2042 -134Q2023 -124 2026 -88Q2024 -88 2016 -85.5Q2008 -83 2006 -83Q1990 -101 1987 -129Q1987 -145 1986 -161Q1938 -213 1887 -264L1842 -214Q1875 -169 1948 -92Q1964 -87 2000 -68Q2032 -47 2035 2L2024 12Q1976 -27 1955 -27H1939Q1936 -16 1921 7Q1895 -6 1895 -34Q1896 -67 1896 -67Q1877 -97 1805 -178Q1798 -174 1744 -105Q1694 -44 1678 -44Q1657 -44 1645 -76Q1639 -92 1639 -147Q1639 -247 1666 -374Q1677 -423 1744 -504Q1803 -568 1862 -633Q1884 -657 1889 -673Q1899 -672 1756 -672Q1681 -672 1512 -699Q1487 -703 1397 -798Q1369 -830 1310 -892Q1269 -848 1258 -769Q1248 -699 1248 -580Q1248 -576 1263 -506.5Q1278 -437 1278 -429Q1278 -362 1224 -330Q1189 -310 1107 -298Q1022 -285 997 -273Q982 -271 950 -264Q943 -262 934 -238Q925 -214 925 -197Q925 -193 934 -152Q943 -107 945 -90Q954 22 974 246Q975 252 984.5 277.5Q994 303 994 309Q994 324 976 337Q962 347 953 347Q948 347 921 340.5Q894 334 889 334Q885 334 855 339.5Q825 345 811 346Q778 348 715 346V292Q765 282 815 272Q869 257 878 218L772 -268Q762 -264 758 -248Q713 -82 692 -8Q651 129 608 238Q614 263 614 311Q613 315 584 342Q580 343 570 343Q565 343 541 336.5Q517 330 512 330Q507 330 451 341Q395 352 390 352Q386 352 366.5 349.5Q347 347 337 347Q336 344 336 288Q352 283 376 280Q485 268 528 149Q549 90 560 -50Q532 -71 497 -124Q456 -185 433 -208Q377 -140 326 -63Q332 -31 332 -33Q332 -25 322 -1Q320 -1 314.5 1Q309 3 307 3Q288 -40 280 -40Q262 -40 214 -2H199Q199 -7 190 -16Q205 -39 242 -81Q259 -84 285 -96Q287 -98 400 -236Q398 -242 355 -285Q316 -246 242 -162Q261 -116 213 -79Q211 -81 203.5 -86.5Q196 -92 194 -94L207 -107V-135Q200 -133 113 -96Q113 -105 100 -105Q113 -168 165 -184Q180 -189 208 -191Q319 -326 319 -326Q319 -329 295 -365Q269 -405 264 -417Q257 -434 246 -514Q241 -547 246 -765Q260 -781 289 -789Q306 -821 306 -844Q306 -902 213 -919Q143 -931 113 -957V-999H238Q256 -1019 273 -1027Q295 -1038 310 -1038Q329 -1038 365 -1011Q395 -989 402.5 -978Q410 -967 409 -954L370 -765Q372 -763 385 -763Q365 -763 480 -774Q531 -779 557 -784Q608 -795 655 -819Q699 -841 797 -940.5Q895 -1040 948 -1066Q980 -1082 1081 -1089Q1084 -1094 1084 -1111Q1084 -1145 1073 -1154Q1062 -1163 1016 -1168Q1021 -1215 997 -1254Q993 -1261 973 -1283Q955 -1302 955 -1307Q955 -1318 997 -1362Q1043 -1410 1044 -1411Q1051 -1437 1078 -1480Q1144 -1537 1231 -1537Q1301 -1537 1344 -1476Q1381 -1424 1381 -1363Q1381 -1255 1235 -1151V-1088Q1263 -1090 1312 -1075Q1361 -1035 1440 -946Q1523 -852 1565 -815Q1574 -807 1616 -798Q1796 -758 1850 -758Q1867 -758 1885 -769Q1868 -809 1851 -850Q1824 -918 1824 -943Q1824 -968 1859 -998Q1891 -1025 1910 -1025Q1915 -1025 1951 -1014Q1991 -1002 2003 -1000Q2054 -990 2115 -990Q2121 -986 2121 -969Q2121 -917 2003 -912Q1976 -911 1948 -890Q1932 -878 1932 -851Q1932 -817 1945 -788Q1953 -786 1970 -782Q1992 -753 1992 -709Q1992 -667 1966 -660Q1988 -572 1988 -550Q1988 -495 1959 -407Q1949 -377 1931 -341Q1915 -310 1915 -307Q1915 -303 1957 -260Q2001 -214 2030 -191Q2045 -186 2077 -176Q2087 -173 2108 -152Q2134 -128 2134 -111ZM2039 -962Q2027 -965 1981 -965Q1975 -965 1973 -972Q1971 -983 1970 -984Q1926 -999 1910 -999Q1895 -999 1872.5 -979.5Q1850 -960 1850 -945Q1850 -927 1881 -853Q1909 -786 1913 -780Q1913 -780 1905 -844Q1901 -879 1915 -897Q1939 -930 2005 -936Q2004 -939 2004 -942Q2004 -962 2039 -962ZM1966 -694V-727Q1951 -741 1936 -741Q1929 -741 1915.5 -733Q1902 -725 1902 -717Q1902 -706 1916 -695.5Q1930 -685 1941 -685Q1948 -685 1966 -694ZM1355 -1365Q1355 -1419 1327 -1461Q1293 -1511 1231 -1511Q1191 -1511 1146 -1490Q1098 -1467 1085 -1439Q1145 -1423 1221 -1391Q1224 -1377 1222 -1370Q1265 -1368 1265 -1326Q1265 -1321 1252 -1283Q1239 -1245 1239 -1240Q1239 -1242 1267 -1210Q1355 -1281 1355 -1365ZM1962 -543Q1962 -590 1939 -663Q1939 -663 1916 -663Q1908 -631 1881 -607Q1694 -440 1683 -309Q1678 -275 1672 -214Q1671 -195 1666 -152Q1661 -113 1661 -109Q1661 -77 1681 -74Q1870 -287 1890 -317Q1962 -420 1962 -543ZM1893 -745Q1854 -732 1848 -732Q1776 -732 1603 -772Q1573 -779 1531 -815Q1429 -920 1294 -1053Q1265 -1056 1213 -1067V-1168Q1225 -1176 1244 -1195Q1213 -1224 1213 -1236Q1213 -1241 1225 -1279Q1237 -1317 1239 -1334Q1224 -1340 1197 -1355Q1196 -1364 1191 -1380Q1150 -1392 1077 -1416Q1075 -1398 1036 -1362Q991 -1322 985 -1311Q1045 -1246 1038 -1189Q1081 -1183 1100 -1172Q1111 -1107 1115 -1071Q1093 -1062 1053 -1059Q1005 -1056 991 -1053Q937 -1040 846 -949Q729 -833 690 -806Q645 -775 540 -758Q451 -744 362 -731Q365 -721 372 -707L702 -711Q720 -711 831 -814Q898 -879 966 -943Q974 -937 984 -928Q1011 -702 1011 -674Q1011 -523 948 -484Q871 -444 727 -369Q784 -359 840 -349Q912 -334 939 -290H953L1117 -327Q1152 -335 1186 -343Q1228 -356 1242 -381Q1252 -398 1252 -431Q1252 -436 1237 -508.5Q1222 -581 1222 -586L1226 -760Q1228 -789 1253 -854Q1282 -930 1304 -930Q1305 -930 1399 -833Q1496 -732 1537 -716Q1583 -698 1747 -698L1875 -703Q1875 -706 1893 -745ZM383 -945Q383 -966 356.5 -989Q330 -1012 308 -1012Q296 -1012 264 -989Q266 -978 264 -960L238 -964Q232 -947 233 -939Q336 -931 336 -844Q336 -820 319 -786Q340 -776 344 -776Q383 -915 383 -945ZM985 -683Q985 -753 976 -813Q969 -856 962 -900Q927 -862 840 -783Q737 -689 720 -689H455Q457 -689 345 -675Q432 -574 519 -472Q590 -376 590 -281Q590 -285 588 -231Q586 -184 587 -160Q604 -246 616 -291Q635 -365 779 -428Q937 -497 971 -553Q985 -576 985 -683ZM340 -722Q340 -741 308 -741Q298 -741 284.5 -731Q271 -721 271 -709Q271 -703 273.5 -699.5Q276 -696 276 -694H316Q340 -693 340 -722ZM968 321V297Q968 292 957.5 268.5Q947 245 947 238Q946 174 937 57Q899 -201 899 -188Q899 -193 908 -227Q917 -261 917 -266Q917 -285 885 -306Q856 -324 843 -324Q829 -324 812.5 -302Q796 -280 796 -264Q796 -247 850 -47.5Q904 152 904 220Q904 270 827 293Q782 304 736 315Q764 322 788 322Q811 322 863 316Q867 316 877.5 310Q888 304 893 304Q899 304 920 312.5Q941 321 945 321ZM564 -91V-252Q564 -378 486 -477Q403 -573 320 -668H295Q265 -622 265 -534Q265 -498 273 -479Q279 -449 294 -405Q324 -352 426 -257Q454 -231 491 -175Q535 -108 557 -83Q564 -81 564 -91ZM805 -331Q693 -345 702 -345Q648 -345 630 -258Q613 -156 574 44Q564 93 553 143Q539 200 515 236Q476 294 358 309V326H424Q459 327 489 316Q533 300 525 300Q530 300 546.5 308.5Q563 317 568 317Q575 317 584.5 307.5Q594 298 594 291Q594 285 585.5 266.5Q577 248 577 244Q577 238 597 199Q621 152 627 135Q647 80 661 32Q708 -133 724 -227Q733 -280 805 -331ZM1953 -967Q1948 -957 1921 -939Q1919 -941 1913.5 -948.5Q1908 -956 1906 -958Q1924 -976 1943 -982Q1945 -980 1948 -974.5Q1951 -969 1953 -967ZM1144 -1327Q1135 -1318 1130 -1318Q1125 -1318 1105 -1322.5Q1085 -1327 1076 -1327Q1076 -1330 1074 -1339Q1072 -1348 1072 -1354Q1072 -1360 1085 -1369Q1098 -1378 1106 -1378Q1130 -1378 1144 -1342ZM331 -972Q328 -963 321 -948Q311 -953 284 -962Q286 -964 289.5 -973Q293 -982 295 -982Q301 -982 331 -972Z"/>
</svg>