<svg xmlns="http://www.w3.org/2000/svg" viewBox="0 -2048 2048 2048">
	<path fill="currentColor" d="M1293 -245Q1273 -248 1260 -248Q1233 -248 1217 -224Q1201 -200 1157 -200Q1152 -200 1129 -203Q1106 -206 1094 -206Q1095 -229 1088 -251H1014Q1011 -227 1011 -200Q1011 -107 1063 109Q1064 152 1072 238Q1075 256 1087 294.5Q1099 333 1099 339Q1099 348 1082.5 364.5Q1066 381 1057 381Q1050 381 1031.5 369.5Q1013 358 1006 358Q1000 358 989 366.5Q978 375 972 375H803V320Q846 308 888 296Q970 266 970 230Q970 153 860 -167H806Q787 -137 772 -67Q761 -11 750 44Q722 111 676 234Q664 271 656 345Q655 353 633.5 367Q612 381 605 381Q599 381 577 369.5Q555 358 549 358Q542 358 489 369.5Q436 381 429 381Q391 381 363 374V315Q433 301 452 297Q508 282 535 263.5Q562 245 578 186Q588 139 598 93Q651 -106 686 -246Q681 -251 506 -251Q505 -239 505 -216Q505 -161 514 -28.5Q523 104 523 109V207H502Q504 182 497 174H467Q462 184 462 207H435V178Q431 174 421 174Q398 174 398 195Q398 201 400 207Q388 205 373 200L475 -277H692L780 -549L727 -780Q642 -689 626 -674Q565 -618 527 -618Q460 -618 390 -699Q279 -826 259 -842V374H212V-842Q196 -841 183 -864Q172 -883 172 -897Q172 -901 190 -945Q188 -953 191 -967Q211 -973 213 -1004Q213 -1031 213 -1058Q268 -1081 268 -1137Q268 -1143 267 -1150Q244 -1171 228 -1171Q181 -1171 181 -1123Q181 -1109 189 -1095Q169 -1082 125 -1053Q113 -1057 100 -1097Q127 -1105 147 -1168Q165 -1226 211 -1226Q238 -1226 277.5 -1194.5Q317 -1163 317 -1134Q317 -1113 292 -1077.5Q267 -1042 250 -1033V-978Q305 -927 510 -735Q573 -806 715 -939Q726 -948 759 -952Q802 -958 814 -962V-978Q808 -992 792 -995Q773 -998 770 -1000Q757 -1012 754 -1032Q752 -1049 751 -1066Q744 -1072 717 -1080Q702 -1085 702 -1104Q702 -1111 715 -1132Q732 -1158 734 -1163Q762 -1224 776 -1247Q809 -1303 836 -1308L805 -1338Q763 -1305 741 -1305Q658 -1305 658 -1405Q658 -1441 686 -1465Q686 -1473 669 -1473V-1491Q669 -1528 702 -1528Q764 -1528 764 -1475Q764 -1468 752.5 -1436Q741 -1404 741 -1397V-1364Q753 -1357 770 -1365Q758 -1578 898 -1578Q971 -1578 1007 -1527Q1036 -1486 1050 -1391Q1053 -1372 1059 -1359Q1069 -1337 1093 -1313L1073 -1293Q1061 -1304 1023 -1355Q1023 -1355 976 -1308Q1019 -1307 1048 -1247Q1071 -1200 1071 -1162Q1071 -1128 1047 -1078Q1017 -1014 970 -993V-969Q993 -966 1016 -963Q1045 -957 1064 -939Q1121 -885 1182 -768Q1240 -656 1255 -579L1210 -348Q1234 -302 1232 -276Q1248 -268 1293 -271ZM1020 -1422Q1020 -1477 989 -1513.5Q958 -1550 903 -1550Q797 -1550 797 -1430Q797 -1321 895 -1321Q1020 -1321 1020 -1422ZM736 -1489L703 -1502V-1494L733 -1481ZM730 -1435V-1455Q709 -1446 686 -1426Q683 -1346 724 -1333Q716 -1355 716 -1375Q716 -1393 723 -1412.5Q730 -1432 730 -1435ZM1043 -1162Q1043 -1293 914 -1293Q813 -1293 781 -1200Q885 -1187 920 -1187Q927 -1187 941 -1198.5Q955 -1210 962 -1210Q998 -1210 998 -1173Q998 -1166 978.5 -1128.5Q959 -1091 959 -1084Q959 -1053 984 -1053Q1010 -1053 1028 -1099Q1043 -1136 1043 -1162ZM1138 -557Q1138 -592 1045 -758Q1040 -732 1020 -654Q1004 -589 1004 -582Q1004 -574 1017 -558Q1032 -538 1035 -531Q1048 -500 1048 -456Q1048 -435 1046 -426Q1038 -390 1020 -354Q1004 -322 1004 -319V-279H1097Q1109 -301 1124 -342Q1122 -371 1122 -426Q1124 -451 1131 -504Q1138 -553 1138 -557ZM1227 -582Q1227 -630 1158 -756Q1101 -860 1068 -902Q1052 -922 1019 -934Q990 -938 942 -946V-1011Q959 -1027 959 -1030Q931 -1046 931 -1079Q931 -1086 950.5 -1123.5Q970 -1161 970 -1168Q970 -1181 962 -1182Q956 -1165 917 -1165Q891 -1165 770 -1176Q761 -1140 731 -1100Q749 -1100 781 -1088V-1027Q801 -1022 835 -1010Q839 -961 848 -935Q803 -934 743 -923Q694 -889 618 -810Q532 -720 510 -702L297 -891Q297 -876 284 -855Q346 -786 408 -717Q481 -641 527 -641Q542 -641 639 -726Q691 -773 743 -819Q754 -777 773.5 -693.5Q793 -610 804 -568Q928 -591 984 -608Q1004 -710 1036 -808H1050Q1165 -596 1165 -554Q1165 -549 1158 -504Q1151 -456 1150 -437Q1152 -402 1152 -342Q1138 -317 1121 -280Q1124 -277 1135 -274Q1146 -271 1149 -268Q1146 -228 1171 -228Q1184 -228 1197 -242Q1210 -256 1210 -272Q1210 -279 1196 -306Q1182 -333 1182 -339Q1182 -346 1204.5 -460.5Q1227 -575 1227 -582ZM216 -1191V-1201H195V-1191ZM1026 -448Q1026 -479 986 -573H967Q903 -557 809 -543Q769 -438 725 -279H975Q974 -285 974 -292Q974 -316 1000 -370.5Q1026 -425 1026 -448ZM267 -877V-912Q254 -925 236 -925Q210 -925 200 -907V-887Q210 -869 239 -869Q259 -869 267 -877ZM986 -189V-244H709Q709 -237 697 -189ZM1070 340L986 -165H893Q992 120 992 236Q992 278 926 307Q875 326 825 345L963 353Q998 330 1009 330Q1017 330 1032 339Q1050 351 1057 353ZM769 -146V-166H687Q675 -125 640 46Q614 175 583 248Q563 296 493 310Q394 332 391 333Q385 337 385 352H459Q466 352 506.5 341Q547 330 554 330Q560 330 578 341.5Q596 353 602 353Q610 353 618.5 349.5Q627 346 629 346Q629 292 631 284Q652 233 683 150Q769 -142 769 -146ZM495 145L477 -149L413 145ZM864 -1142Q864 -1139 860.5 -1128.5Q857 -1118 857 -1115Q803 -1129 780 -1140Q807 -1165 817 -1165Q825 -1165 839 -1156Q857 -1144 864 -1142Z"/>
</svg>