<svg xmlns="http://www.w3.org/2000/svg" viewBox="25.1 -1605.9 1200.8 2022.8">
	<path fill="currentColor" d="M1151 297Q1151 342 1084 342Q1073 342 1054.5 333Q1036 324 1025 324Q1013 324 991.5 333Q970 342 958 342Q939 342 900 340.5Q861 339 843 339L832 328V289Q891 276 950 263Q1038 240 1038 208Q1038 189 1017 79.5Q996 -30 989 -46Q962 -109 954 -134Q938 -181 937 -228Q925 -227 904 -227Q893 -227 870 -227Q847 -228 837 -228Q809 -178 799 -155Q780 -113 775 -76Q765 -4 740 69Q731 95 683 178Q662 214 662 243Q662 248 662 257Q663 266 663 270Q663 293 648 316Q632 342 610 342Q595 342 567 331.5Q539 321 524 321Q511 321 487.5 330Q464 339 451 339L339 338V332Q322 342 303 342Q280 342 262 306Q261 304 261 281Q261 265 251 266L236 279Q234 315 211 341H149Q163 325 176 308.5Q189 292 189 268Q189 251 192 237Q201 229 219 213V-431Q186 -431 186 -487Q186 -494 186 -506Q187 -519 187 -524L201 -528L198 -530Q193 -540 184 -560Q201 -566 219 -566V-1185Q219 -1230 198 -1228Q196 -1224 193 -1197Q191 -1182 179 -1156Q170 -1110 136 -1024Q127 -1025 108 -1026L100 -1034V-1038Q100 -1054 104.5 -1085Q109 -1116 109 -1132Q109 -1143 106.5 -1163.5Q104 -1184 104 -1195Q104 -1241 156 -1312Q216 -1393 225 -1424Q226 -1427 226 -1480Q226 -1508 236 -1527Q237 -1526 252 -1521Q309 -1500 309 -1428Q309 -1411 295.5 -1366Q282 -1321 273.5 -1307.5Q265 -1294 237 -1268Q280 -1239 280 -1218V-558Q300 -547 308 -547Q316 -547 435 -634Q460 -650 509 -682Q575 -725 600 -804Q608 -831 625 -884Q609 -895 597 -896Q550 -875 535 -875V-728H475V-876Q442 -898 439 -902Q428 -914 428 -945Q428 -967 436 -975Q429 -985 419 -995Q425 -1017 440 -1021Q443 -1021 475 -1021V-1243Q475 -1268 461 -1284Q460 -1280 460 -1275Q460 -1258 447 -1228.5Q434 -1199 432 -1184Q429 -1154 427 -1149Q424 -1140 405 -1122L398 -1128L390 -1122Q382 -1144 382 -1169Q382 -1257 394 -1294Q404 -1322 458 -1408Q472 -1431 472 -1530Q494 -1525 503 -1521Q518 -1514 527 -1500Q544 -1472 544 -1449Q544 -1396 516 -1353Q514 -1350 486 -1320Q519 -1293 535 -1273V-1018Q553 -1018 587 -1008Q594 -1003 609.5 -995.5Q625 -988 658 -975Q669 -1007 698 -1068Q718 -1098 770 -1108Q813 -1112 856 -1117V-1156Q832 -1160 785 -1171Q779 -1194 762 -1237Q760 -1240 740 -1264Q722 -1285 722 -1290Q722 -1300 742 -1325Q757 -1343 765 -1377Q777 -1423 781 -1433Q796 -1468 841 -1504Q875 -1531 955 -1531Q1119 -1531 1119 -1361Q1119 -1296 1092 -1258Q1087 -1247 1076 -1225Q1073 -1219 1041 -1183Q1017 -1155 1017 -1138Q1017 -1139 1020 -1112Q1044 -1113 1090 -1105Q1145 -1085 1145 -1020Q1145 -1016 1137 -984Q1132 -965 1094 -863Q1067 -790 1067 -740Q1067 -705 1091.5 -640Q1116 -575 1116 -540Q1116 -534 1096 -466Q1078 -405 1078 -357Q1078 -360 1083 -327Q1086 -307 1086 -274Q1086 -259 1085 -228.5Q1084 -198 1084 -183Q1084 -184 1097 -136Q1134 0 1134 42V168Q1134 177 1132 194.5Q1130 212 1130 221Q1130 236 1140.5 261Q1151 286 1151 297ZM1094 -1348Q1094 -1465 1027 -1496Q1001 -1508 980 -1508H946Q841 -1508 794 -1400Q835 -1397 875 -1394Q921 -1385 933 -1345Q943 -1392 968 -1392Q1027 -1392 1027 -1327Q1027 -1321 1026 -1315Q983 -1296 983 -1266Q983 -1235 997 -1221Q1012 -1221 1042 -1218Q1094 -1279 1094 -1348ZM1122 -1020Q1122 -1071 1080 -1083Q1038 -1088 997 -1094Q997 -1102 996 -1118Q995 -1134 995 -1142Q995 -1164 1025 -1198Q1013 -1195 1003 -1195Q960 -1195 960 -1266Q960 -1300 1000 -1326V-1335Q1000 -1369 971 -1369Q963 -1369 958 -1302Q950 -1296 924 -1289Q911 -1325 897 -1362Q887 -1375 819 -1375Q799 -1375 788 -1378Q785 -1348 765 -1323Q745 -1298 744 -1292Q775 -1260 804 -1189Q840 -1184 877 -1173Q878 -1160 878 -1142Q878 -1113 875 -1093Q833 -1095 753 -1081Q721 -1067 704 -1031Q692 -998 679 -964Q722 -930 753 -912Q759 -930 764 -938Q773 -952 786 -954Q791 -944 804 -889Q811 -857 845 -831L976 -1033Q985 -1025 985 -1016Q985 -1012 924.5 -914Q864 -816 857 -809.5Q850 -803 841 -803Q731 -918 595 -975Q579 -982 567 -994H536Q537 -992 537 -987Q537 -972 520 -967Q508 -977 498 -977Q451 -977 451 -939Q451 -898 525 -898Q542 -898 565.5 -908Q589 -918 595 -918Q632 -918 729 -818Q826 -718 854 -718Q892 -718 971 -836.5Q1050 -955 1067 -954Q1068 -927 1019 -861Q985 -817 950 -773Q893 -696 853 -696H849L851 -682L1046 -731Q1046 -790 1070 -855Q1108 -961 1112 -975Q1122 -1013 1122 -1020ZM521 -1446Q521 -1485 498 -1499Q497 -1426 478 -1397Q450 -1358 414 -1289Q410 -1274 410 -1221Q410 -1215 407.5 -1202.5Q405 -1190 405 -1184Q405 -1179 407 -1164Q409 -1185 420 -1224Q441 -1270 441 -1304Q447 -1313 456 -1313L469 -1307L455 -1318Q471 -1332 498 -1365Q521 -1404 521 -1446ZM779 -892L776 -907L772 -897ZM511 -997V-1253Q511 -1272 478 -1299Q499 -1272 499 -1232V-997ZM286 -1427Q286 -1477 251 -1497Q251 -1463 243 -1410Q235 -1390 178 -1307Q130 -1239 130 -1204Q130 -1196 131.5 -1179Q133 -1162 133 -1154Q133 -1141 129 -1116Q125 -1091 125 -1078Q125 -1070 127 -1057Q130 -1064 140 -1108Q155 -1141 172 -1210Q171 -1227 185 -1252Q200 -1252 207 -1252L201 -1263Q221 -1280 254 -1319Q286 -1371 286 -1427ZM1093 -540Q1093 -572 1073 -626Q1050 -686 1047 -711L851 -660Q802 -524 696 -254H1062Q1064 -270 1064 -286Q1064 -298 1060 -322Q1056 -346 1056 -358Q1056 -414 1083 -503Q1093 -536 1093 -540ZM511 -753V-875H499V-753ZM720 -792Q695 -818 643 -868Q627 -807 583 -712Q580 -708 516 -666Q461 -624 406 -583Q319 -519 299 -526Q319 -506 317 -486Q348 -511 430 -548Q532 -594 553 -606Q661 -667 675 -686Q681 -694 720 -792ZM256 -563V-1209Q256 -1239 221 -1245Q243 -1230 243 -1196V-563ZM1128 295Q1128 288 1117.5 262.5Q1107 237 1107 222Q1107 214 1109 199.5Q1111 185 1111 177V37Q1111 -7 1083 -95Q1056 -180 1058 -227H960V-210Q960 -167 976 -132Q1005 -71 1007 -63Q1012 -49 1030 50Q1031 55 1049 129Q1061 177 1061 210Q1061 270 858 306V318Q876 317 906 318Q943 319 954 319Q967 319 989.5 310Q1012 301 1025 301Q1032 301 1048.5 310Q1065 319 1070 319H1100Q1128 319 1128 295ZM829 -683Q829 -701 792 -732Q766 -753 739 -774Q727 -739 693 -673Q677 -650 576 -592Q492 -544 442 -521Q411 -508 350 -480Q327 -465 280 -435V212Q309 230 311 269.5Q313 309 339 330V286Q386 272 421 267Q540 250 588 132Q609 80 634 -33Q636 -42 641 -109Q647 -183 668 -247Q678 -271 698 -318Q829 -631 829 -683ZM295 -490Q295 -495 285.5 -506.5Q276 -518 271 -518Q248 -518 222 -511V-463Q222 -448 252 -448Q263 -448 279 -463.5Q295 -479 295 -490ZM809 -227H685Q676 -161 656 -29Q622 175 542 241Q510 267 457 281Q410 290 364 300V316H468Q478 316 495.5 307.5Q513 299 523 299Q537 299 562 307.5Q587 316 601 316Q637 316 637 268Q637 216 686 130Q714 81 732 4Q746 -61 760 -127Q769 -161 809 -227ZM294 304Q291 282 288 260Q284 243 256 226V-427H243V230Q220 245 215 263Q212 284 209 304Q221 284 221 264Q248 240 252 240Q255 240 282 264Q282 285 294 304ZM871 -1316Q836 -1302 812 -1302H793Q802 -1348 840 -1348Q846 -1348 871 -1316Z"/>
</svg>