<svg xmlns="http://www.w3.org/2000/svg" viewBox="0 0 654 1000">
  <g transform="scale(1,-1) translate(0,-1000)">
    <path d="M584 189H416L417 32H585ZM285 293V32H385V205Q385 221 400 221H583L582 381Q582 397 598 397Q607 397 611 390Q613 387 616.0 381.5Q619 376 621 374Q623 384 623 391Q623 418 613.5 447.5Q604 477 597 477Q596 477 587.5 474.0Q579 471 573 471H572V454Q566 348 542.0 319.5Q518 291 426 291Q426 291 423.0 291.0Q420 291 414.5 291.5Q409 292 401.0 292.0Q393 292 381.0 292.0Q369 292 355.5 292.5Q342 293 323.5 293.0Q305 293 285 293ZM541 676Q549 676 573 682Q581 684 581 695V696Q580 696 572.0 699.5Q564 703 562.0 704.0Q560 705 553.5 708.0Q547 711 545.0 714.0Q543 717 539.5 721.5Q536 726 535.0 731.5Q534 737 534 744Q534 750 536.0 759.0Q538 768 538.0 770.0Q538 772 537 772Q527 780 492.0 786.0Q457 792 444 809Q414 769 414 753Q414 741 427.5 722.0Q441 703 461 690Q462 690 467.5 685.5Q473 681 478.5 670.5Q484 660 484 649V643Q478 617 438 467Q433 443 415.5 426.0Q398 409 385.5 404.0Q373 399 370 399Q361 398 340.5 397.0Q320 396 313.0 395.5Q306 395 290.5 393.5Q275 392 265.5 390.0Q256 388 243.0 384.5Q230 381 217 376L208 365Q200 331 187.5 258.5Q175 186 162 137Q159 126 150.5 109.5Q142 93 139 91Q121 79 86.5 63.5Q52 48 36 33Q36 33 40 31Q92 33 100 33Q113 33 167 31Q172 32 175.0 32.5Q178 33 180 33V39Q181 43 184.5 69.0Q188 95 192.0 119.0Q196 143 204.0 176.0Q212 209 224.5 244.5Q237 280 254 311Q265 329 290 329H303Q317 330 342 330Q358 330 385.5 329.0Q413 328 426 328Q467 328 489.0 333.0Q511 338 515.0 343.0Q519 348 522 359Q528 381 532.0 423.0Q536 465 537 496L538 527Q538 544 538.5 571.5Q539 599 539 612Q539 614 540.0 644.0Q541 674 541 676ZM386 752Q386 771 392.0 781.5Q398 792 413.5 813.0Q429 834 443 861Q450 883 489.5 909.5Q529 936 534 941Q538 945 548.5 961.5Q559 978 571.5 989.0Q584 1000 600 1000Q618 1000 631.0 987.0Q644 974 644 953Q644 940 636.5 920.5Q629 901 628 895Q628 892 627.5 869.5Q627 847 626.0 824.0Q625 801 618.5 771.0Q612 741 601 720L604 706Q611 680 611 594Q611 583 607.5 575.0Q604 567 598.5 563.0Q593 559 587.5 557.5Q582 556 578 555L575 554V504Q588 509 597 509Q613 509 625.5 495.0Q638 481 643.5 460.0Q649 439 651.5 421.5Q654 404 654 390Q654 337 624 337Q618 337 614 339L617 16Q617 0 601 0H269Q253 0 253 16V219Q232 150 214 41Q214 39 214.5 37.5Q215 36 215 35Q215 35 215.0 31.0Q215 27 214.0 23.5Q213 20 211.0 15.5Q209 11 204.5 7.5Q200 4 193 1Q190 0 33 0Q33 0 28.5 0.5Q24 1 20.0 2.0Q16 3 11.0 6.0Q6 9 3.0 15.0Q0 21 0 30Q0 44 7 51Q23 69 38.5 78.0Q54 87 74.0 95.5Q94 104 109 113Q130 145 148.5 259.5Q167 374 177 384L192 403Q204 415 249.0 422.5Q294 430 322.5 431.5Q351 433 363 433Q379 433 397.5 471.5Q416 510 426.5 545.5Q437 581 437 585Q439 591 446.0 621.5Q453 652 456 661Q453 662 447 666Q436 645 429.5 633.0Q423 621 409.0 600.5Q395 580 379.5 570.0Q364 560 348 560Q335 560 335 574V575Q335 585 343.0 594.0Q351 603 362.0 611.5Q373 620 386.0 642.5Q399 665 407 696Q406 699 404 704Q386 729 386 752ZM465 779Q473 779 478.5 773.0Q484 767 484 759Q484 743 463 743Q444 743 444 762Q444 779 465 779ZM468 832Q468 824 484.0 819.5Q500 815 518.5 812.5Q537 810 553.0 799.0Q569 788 569 770Q569 765 567.0 756.5Q565 748 565 744Q565 739 571 731Q585 755 590.5 792.5Q596 830 596.5 864.0Q597 898 597 900Q600 915 606.5 929.5Q613 944 613 953Q613 969 600 969Q593 969 586.5 961.0Q580 953 571.5 939.5Q563 926 556 919Q543 906 518.5 894.0Q494 882 481.0 869.5Q468 857 468 832Z" fill="currentColor"/>
  </g>
</svg>