<svg xmlns="http://www.w3.org/2000/svg" viewBox="23.9 -1628.1 1341.2 2054.2">
	<path fill="currentColor" d="M1289 -244Q1236 -244 1180 -243V349H557V-215Q544 -153 505 -27Q468 58 400 245Q400 246 405 293Q393 350 349 350Q342 350 312.5 341.5Q283 333 276 333Q269 333 237.5 338.5Q206 344 199 344H106L100 297Q157 283 214 268Q289 242 310 162Q341 1 411 -316Q427 -378 531 -380Q552 -380 754 -403Q773 -403 813 -412Q824 -416 839.5 -448.5Q855 -481 855 -496V-530H673Q663 -530 528 -515Q528 -515 528 -455H481Q481 -477 482 -498Q481 -530 448 -531Q448 -535 445 -552.5Q442 -570 442 -577Q442 -582 451 -597Q460 -612 460 -619Q467 -620 480 -627Q480 -630 473 -633Q463 -636 460 -640Q442 -664 442 -688Q442 -699 454 -718Q451 -740 459 -763H485V-1020Q461 -1025 421 -1043Q366 -1086 366 -1144Q366 -1204 411 -1237Q448 -1264 502 -1264Q557 -1264 577 -1235Q590 -1215 606 -1137Q621 -1117 642 -1080Q635 -1082 607 -1068Q594 -1082 569 -1113Q565 -1132 554 -1168Q534 -1215 485 -1215Q466 -1215 440.5 -1189Q415 -1163 415 -1147Q415 -1065 534 -1073V-762Q560 -737 565 -737H834Q871 -834 881 -853Q918 -924 980 -969V-1010Q964 -1019 942 -1019Q919 -1019 864 -932Q843 -944 800 -967Q833 -989 866 -1010Q911 -1043 911 -1073Q911 -1080 909 -1086Q902 -1093 880 -1104Q866 -1111 866 -1125Q866 -1142 898 -1185Q890 -1201 873 -1206Q856 -1211 839 -1216Q838 -1261 844 -1287Q836 -1291 822 -1305Q842 -1334 860 -1334Q876 -1334 896 -1322Q920 -1308 920 -1291Q920 -1285 911 -1267Q900 -1246 898 -1240L907 -1231Q921 -1241 930 -1264Q943 -1296 949 -1306Q994 -1356 1081 -1464Q1080 -1478 1084 -1506Q1101 -1552 1153 -1552Q1208 -1552 1208 -1503Q1208 -1492 1189.5 -1464.5Q1171 -1437 1171 -1429Q1171 -1417 1174 -1381Q1178 -1341 1179 -1326Q1182 -1246 1115 -1066Q1147 -1049 1200 -1002Q1256 -920 1256 -854V-813H1182Q1167 -903 1162 -923Q1144 -985 1106 -1025Q1103 -1025 1095 -1015Q1088 -978 1088 -978Q1131 -861 1131 -838V-530Q1151 -552 1172 -552Q1248 -552 1248 -453Q1248 -426 1241.5 -381.5Q1235 -337 1236 -328Q1249 -311 1289 -244ZM1181 -1500Q1181 -1530 1153 -1530Q1128 -1530 1117 -1507Q1110 -1482 1092 -1442Q1051 -1394 1010 -1345Q942 -1263 942 -1239V-1221Q986 -1211 1031 -1202Q1094 -1183 1094 -1155Q1094 -1148 1080.5 -1125Q1067 -1102 1067 -1095Q1067 -1075 1087 -1068Q1100 -1092 1119 -1129Q1147 -1191 1149 -1280Q1149 -1271 1144 -1435Q1144 -1450 1162.5 -1473Q1181 -1496 1181 -1500ZM1229 -835V-860Q1229 -880 1200 -947Q1199 -950 1160 -1008Q1202 -937 1203 -835ZM528 -1229V-1238L502 -1244V-1235ZM865 -623V-639H706Q699 -639 636.5 -647Q574 -655 567 -655Q548 -655 529 -636Q553 -615 618 -617ZM512 -673V-703Q509 -703 499.5 -706Q490 -709 487 -709Q469 -691 469 -685Q469 -678 475 -668Q481 -658 481 -656Q494 -662 512 -673ZM1110 -780Q1111 -841 1091 -898Q1078 -923 1062 -968Q1067 -996 1071 -1045Q1039 -1053 1039 -1084Q1039 -1091 1052 -1121.5Q1065 -1152 1066 -1159Q1020 -1176 933 -1198Q924 -1186 893 -1124Q921 -1116 937 -1107Q937 -1077 926 -1048Q953 -1042 1007 -1031V-979Q1007 -962 977 -931Q932 -884 927 -877Q889 -827 867 -751Q865 -734 856 -709H560Q555 -714 524 -730Q541 -704 540 -678L765 -661Q796 -659 813 -659Q871 -659 901 -695Q928 -728 981 -858Q985 -863 987 -862Q990 -859 994 -857.5Q998 -856 1001 -853Q979 -773 883 -602Q865 -602 830 -595L616 -590Q562 -589 530 -601Q525 -580 470 -567Q470 -564 472.5 -557.5Q475 -551 475 -548Q497 -536 550 -536Q773 -536 901 -553Q948 -559 995 -653Q1030 -728 1065 -802Q1071 -802 1079 -800Q1087 -798 1089 -798Q1027 -658 1017 -640Q962 -547 884 -522Q872 -466 860 -439Q836 -387 797 -380Q719 -374 564 -360Q518 -358 459 -343Q437 -321 407 -202Q390 -115 356 53Q348 105 340 158Q322 230 269 267Q237 289 127 314Q139 322 170 322Q177 322 231 314Q285 306 292 306Q299 306 318 314Q337 322 344 322Q362 322 380 299Q374 282 374 261Q374 211 415 125Q468 13 472 0Q488 -74 530 -217Q535 -230 559.5 -244.5Q584 -259 597 -259H993Q1011 -259 1041.5 -289.5Q1072 -320 1075 -337Q1089 -411 1105 -555ZM1246 -265Q1213 -302 1213 -351Q1213 -366 1217.5 -399Q1222 -432 1222 -449Q1222 -482 1211 -511Q1189 -525 1161 -525Q1129 -492 1101 -371Q1069 -231 971 -231H622V322H786V-65H1159V-379H1179Q1182 -350 1182 -321Q1182 -291 1179 -265ZM1155 322V2H852V322ZM1155 -19V-33H810V322H826V-19ZM600 322V-226H574Q577 -225 585 -218V322ZM1001 -1137Q1001 -1134 998 -1127.5Q995 -1121 995 -1118Q970 -1123 943 -1123L936 -1148Q972 -1166 971 -1166Q987 -1166 1001 -1137Z"/>
</svg>