<svg xmlns="http://www.w3.org/2000/svg" viewBox="0 -2048 2048 2048">
	<path fill="#000000" d="M1580 -813L1563 -806L1530 -852L1491 -838L1507 -792L1489 -787L1472 -833L1428 -821L1439 -775L1416 -768L1331 -1125L1244 -1025Q1323 -972 1328 -849Q1329 -832 1337 -815Q1329 -806 1320 -803Q1375 -661 1375 -624Q1375 -564 1312 -564Q1291 -564 1208 -584V-579Q1208 -587 1211 -510Q1227 -530 1266 -530Q1329 -530 1329 -434Q1329 -426 1325.5 -412Q1322 -398 1322 -392Q1318 -341 1318 -332Q1318 -298 1336.5 -269.5Q1355 -241 1374 -213H1262V370H591V-195Q584 -192 582 -186Q575 -140 550 -49Q543 -38 530 -16Q522 10 501 60Q418 222 418 278Q418 293 419 299Q425 307 425 320Q425 371 360 371Q354 371 334 362Q314 353 310 353Q301 353 281 360.5Q261 368 252 368L114 371Q100 364 100 336Q100 319 106 310Q133 306 186 296Q311 270 331 166Q340 94 364 -48Q384 -104 416 -217Q416 -246 431 -300Q454 -340 495 -354Q498 -355 521 -357L873 -386Q912 -389 913 -441Q914 -480 914 -532Q914 -590 910 -645L871 -600L852 -615L900 -672Q897 -679 897 -694Q897 -734 920 -742L760 -990Q817 -1026 817 -1064Q817 -1066 810 -1076Q780 -1117 741 -1117Q717 -1117 694.5 -1090.5Q672 -1064 672 -1040Q672 -1025 688.5 -1001Q705 -977 705 -971Q705 -952 664 -903L652 -916Q681 -955 682 -969Q649 -1024 649 -1041Q649 -1074 680 -1107Q711 -1140 743 -1140Q795 -1140 822 -1104Q840 -1080 840 -1064Q840 -1014 789 -982L925 -781Q932 -876 988 -932Q989 -933 1022 -955Q1046 -970 1046 -982V-1008Q1009 -1015 994 -1015Q983 -1015 953 -977Q916 -929 914 -927Q903 -932 860 -964Q879 -977 964 -1032Q968 -1050 973 -1092Q957 -1098 941 -1105Q925 -1112 925 -1133Q925 -1137 942.5 -1164Q960 -1191 963 -1200Q929 -1205 892 -1219V-1254Q892 -1281 910 -1294Q886 -1296 874 -1309Q900 -1336 910 -1336Q909 -1336 961 -1331Q975 -1295 975 -1295Q975 -1295 953 -1240Q960 -1237 973 -1230Q983 -1286 1041 -1353Q1092 -1405 1143 -1456Q1154 -1467 1154 -1530Q1170 -1542 1187 -1554.5Q1204 -1567 1222 -1567Q1273 -1567 1273 -1509Q1273 -1480 1246 -1460Q1242 -1444 1242 -1419Q1242 -1400 1248 -1363Q1254 -1326 1254 -1307Q1254 -1261 1238 -1206Q1213 -1117 1211 -1109Q1201 -1090 1182 -1054Q1183 -1054 1221 -1038L1337 -1169ZM1250 -1510Q1250 -1544 1222 -1544Q1209 -1544 1180 -1521Q1179 -1489 1177 -1478Q1172 -1453 1159 -1440Q1071 -1352 1061 -1341Q1002 -1274 994 -1223Q1049 -1218 1144 -1186Q1159 -1176 1159 -1153Q1159 -1132 1137 -1119Q1132 -1105 1132 -1090Q1132 -1062 1152 -1062Q1161 -1062 1163 -1071Q1172 -1087 1187 -1121Q1190 -1133 1197 -1158Q1209 -1185 1225 -1238Q1229 -1266 1229 -1317Q1229 -1334 1223 -1369.5Q1217 -1405 1217 -1422Q1217 -1460 1233.5 -1477.5Q1250 -1495 1250 -1510ZM1517 -870L1361 -1095L1422 -841ZM947 -1307V-1309L941 -1310Q943 -1309 947 -1307ZM945 -1284Q937 -1280 919 -1272Q919 -1262 916 -1235Q921 -1233 930 -1229L924 -1235Q931 -1251 945 -1284ZM1309 -828Q1295 -951 1241 -1000Q1235 -1006 1228 -1008L1223 -1002Q1277 -923 1274 -828ZM1193 -1002Q1185 -1010 1168 -1026Q1165 -1018 1165 -1013Q1165 -1001 1169 -978Q1180 -988 1193 -1002ZM1225 -953Q1216 -974 1207 -985L1191 -967Q1202 -965 1225 -953ZM1152 -959Q1142 -981 1142 -1017Q1142 -1027 1147 -1039Q1137 -1041 1122 -1046Q1109 -1083 1109 -1090Q1109 -1128 1135 -1146Q1135 -1155 1130 -1169Q1122 -1178 988 -1197Q948 -1124 948 -1130Q948 -1127 969.5 -1117.5Q991 -1108 995 -1103Q993 -1081 991 -1037Q1017 -1036 1069 -1025Q1069 -996 1064 -956Q1035 -942 999 -906Q958 -866 955 -840Q948 -783 948 -773Q966 -769 980 -763ZM1231 -678L1220 -726V-680Q1224 -680 1231 -678ZM1352 -627Q1352 -656 1296 -801Q1305 -800 1275 -800Q1263 -800 1250 -810V-889Q1250 -910 1204 -940Q1200 -943 1176 -948L1006 -754Q1015 -743 1029 -729Q1084 -717 1192 -689V-837Q1196 -841 1212 -846Q1223 -810 1262 -661L1252 -651H1241Q1236 -651 1194 -664Q1172 -671 1128 -683Q1091 -688 1022 -706Q1015 -719 991 -736Q989 -726 985 -719Q964 -726 935 -726Q924 -726 924 -691Q924 -665 968 -665Q973 -665 982.5 -666.5Q992 -668 997 -668Q1004 -668 1046 -655Q1266 -587 1312 -587Q1352 -587 1352 -627ZM930 -983L897 -963Q905 -957 909 -954ZM1334 -236Q1321 -256 1295 -294V-381Q1295 -390 1301 -407.5Q1307 -425 1307 -434Q1307 -504 1260 -504Q1220 -504 1210 -472Q1201 -405 1163 -276Q1156 -262 1115.5 -232.5Q1075 -203 1060 -203H654V344H850V-28H1235V-350Q1244 -359 1255 -359Q1261 -354 1261 -332Q1261 -350 1258 -236ZM1234 14V-1H877V344H889V14ZM1234 344V41H916V344ZM1185 -589Q1128 -607 1014 -640Q1032 -617 1032 -609Q1032 -596 1024 -596Q1013 -596 982 -644Q972 -643 936 -644Q938 -523 938 -539Q938 -374 890.5 -366.5Q843 -359 616 -342Q576 -341 499 -332Q473 -327 452 -290Q443 -274 441 -247Q437 -207 436 -202Q417 -150 387 -48Q380 12 364 132Q363 139 353 169Q339 213 331 229Q315 262 291 279Q226 324 128 326V345H263Q268 345 285.5 337.5Q303 330 310 330Q317 330 337 339Q357 348 361 348Q404 348 404 322Q404 316 394 304Q394 299 393 287Q392 275 392 269Q392 225 450 105Q490 20 531 -64Q538 -110 563 -199Q573 -221 621 -221Q625 -221 631.5 -222Q638 -223 641 -223L1023 -226Q1046 -226 1065 -230Q1080 -233 1108 -253.5Q1136 -274 1144 -287Q1168 -327 1184 -462Q1182 -505 1185 -589ZM629 344V-198L618 -197V344ZM1070 -1121Q1031 -1121 982 -1135Q1020 -1161 1028 -1161Q1047 -1161 1070 -1121Z"/>
</svg>