<svg xmlns="http://www.w3.org/2000/svg" viewBox="0 -2048 2048 2048">
	<path fill="#000000" d="M1336 -251H1229V338H602V-228Q595 -196 577 -132Q525 -8 439 244Q444 264 446 298Q443 308 423.5 323.5Q404 339 391 339Q384 339 358.5 330.5Q333 322 326 322Q319 322 287.5 327.5Q256 333 249 333H150L144 285Q194 273 245 262Q313 242 343 187Q361 155 374 63Q388 -43 430 -258Q457 -364 494 -378Q527 -384 596 -400L327 -832L268 -283H248Q256 -344 207 -348Q201 -332 185 -299L175 -305Q176 -320 174 -349Q172 -351 142 -364Q131 -347 120 -315Q110 -322 100 -332L309 -903L635 -396Q707 -401 848 -425Q875 -433 888 -498Q892 -517 911 -685Q925 -811 951 -880Q958 -899 996 -949Q1031 -994 1031 -999V-1024Q1005 -1034 985 -1034Q964 -1034 904 -941Q872 -965 846 -982Q879 -1004 912 -1025Q956 -1055 956 -1088Q956 -1095 955 -1101Q944 -1112 922 -1122Q911 -1126 911 -1146Q911 -1153 944 -1200Q922 -1210 879 -1231Q881 -1241 884.5 -1267Q888 -1293 890 -1303Q882 -1306 868 -1320Q887 -1350 909 -1350Q922 -1350 944 -1335.5Q966 -1321 966 -1303Q966 -1307 945 -1260Q943 -1256 948 -1246Q959 -1249 980 -1290Q1005 -1340 1017 -1354Q1050 -1390 1082 -1426Q1119 -1467 1126.5 -1494Q1134 -1521 1141 -1548Q1152 -1568 1189 -1568Q1216 -1568 1234 -1544Q1249 -1525 1249 -1508Q1249 -1503 1233.5 -1478Q1218 -1453 1218 -1440Q1221 -1370 1214 -1243Q1196 -1187 1162 -1076Q1216 -1062 1262 -984Q1303 -914 1303 -863V-828H1223Q1223 -993 1144 -1039Q1135 -1021 1135 -1004Q1135 -997 1150 -966Q1168 -926 1171 -918Q1188 -872 1188 -791Q1188 -753 1183.5 -682Q1179 -611 1179 -584Q1179 -560 1181 -544Q1191 -566 1205 -566Q1219 -566 1279 -541Q1293 -518 1291 -399Q1291 -394 1284 -367Q1278 -347 1283 -335Q1301 -307 1336 -251ZM1222 -1513Q1222 -1546 1192 -1546Q1158 -1546 1158 -1520Q1158 -1515 1159.5 -1505Q1161 -1495 1161 -1491Q1161 -1487 1160 -1484Q1154 -1472 1088 -1398Q1001 -1301 983 -1237Q1140 -1206 1140 -1165Q1140 -1158 1126.5 -1136Q1113 -1114 1113 -1107Q1113 -1080 1134 -1083Q1156 -1129 1187 -1216Q1203 -1285 1198 -1358Q1192 -1458 1190 -1450Q1192 -1462 1207 -1484.5Q1222 -1507 1222 -1513ZM1276 -849V-874Q1276 -883 1247.5 -943.5Q1219 -1004 1212 -1012Q1238 -965 1250 -849ZM1162 -723Q1162 -854 1154 -885.5Q1146 -917 1129 -943.5Q1112 -970 1109 -983Q1107 -994 1116 -1053Q1114 -1059 1098 -1068Q1086 -1075 1086 -1099Q1086 -1114 1113 -1168Q1097 -1185 1046 -1196Q981 -1210 973 -1213Q968 -1202 956 -1176Q944 -1150 939 -1139Q957 -1133 982 -1118Q971 -1074 978 -1056Q1015 -1056 1059 -1046Q1058 -1019 1046 -973Q1013 -938 973 -879Q968 -858 926 -580Q917 -519 897 -444Q892 -425 875 -403Q828 -390 754 -384Q649 -376 631 -373Q598 -373 564 -372Q519 -371 504 -356Q473 -325 441 -182Q428 -111 401 30Q392 78 383 127Q370 189 354 215Q316 276 171 303L250 311Q330 295 337 295Q345 295 364 303Q383 311 389 311Q421 311 421 283Q421 276 418.5 260Q416 244 416 238Q416 232 417 228Q457 131 533 -66Q544 -124 575 -229Q594 -271 743 -271Q750 -271 815.5 -268.5Q881 -266 887 -266Q1039 -266 1085 -301Q1162 -359 1162 -723ZM1287 -278Q1274 -295 1256 -329Q1253 -341 1257 -361Q1263 -385 1263 -388Q1266 -499 1257 -519Q1247 -525 1207 -538Q1181 -499 1174 -482Q1164 -457 1158 -416Q1141 -293 1062 -258Q1019 -239 895 -239Q681 -239 667 -238V310H837V-76H1207V-392H1225Q1230 -341 1225 -278ZM1205 311V-9H901V311ZM1205 -30V-44H859V311H875V-30ZM294 -778L149 -390Q184 -380 251 -359ZM645 310V-237H620Q622 -236 630 -229V310ZM1047 -1152Q1047 -1149 1044 -1142.5Q1041 -1136 1041 -1133Q1017 -1136 983 -1144V-1163Q1019 -1181 1018 -1181Q1026 -1181 1034 -1171Q1046 -1153 1047 -1152Z"/>
</svg>