<svg xmlns="http://www.w3.org/2000/svg" viewBox="0 -2048 2048 2048">
	<path fill="currentColor" d="M1642 -911L1625 -904L1592 -950L1553 -936L1569 -890L1551 -885L1535 -931L1490 -919L1501 -873L1478 -866L1396 -1220L1246 -1003Q1296 -943 1306 -901Q1306 -873 1316 -818Q1323 -801 1387 -715Q1444 -639 1444 -603Q1444 -585 1424 -571Q1404 -557 1385 -557Q1398 -557 1357 -562Q1298 -569 1197 -600Q1197 -599 1196 -501Q1213 -523 1252 -523Q1312 -523 1312 -439Q1312 -421 1307.5 -386Q1303 -351 1303 -333Q1303 -295 1318 -270Q1338 -245 1357 -219Q1348 -209 1248 -212V367H582V-189Q570 -179 566 -153Q564 -132 562 -111Q555 -77 543 -47Q534 -32 518 -2Q511 18 495 57Q468 111 441 165Q411 233 411 279Q411 295 411 295L419 307V316Q419 369 353 369Q347 369 327.5 360Q308 351 304 351Q297 351 279 358Q261 365 253 365H100V296Q114 304 118 304Q142 304 196 289Q254 274 269 261Q321 216 337 123Q346 45 356 -34Q370 -76 396 -160Q402 -204 422 -288Q429 -307 455 -328Q481 -349 502 -351Q676 -368 828 -379Q863 -381 864 -382Q884 -386 894 -401Q902 -413 902 -435Q902 -446 900 -467.5Q898 -489 898 -500Q898 -513 908 -608Q912 -667 915 -726Q921 -796 937 -842Q950 -878 995 -920Q1034 -955 1034 -979V-997Q1010 -1003 981 -1003Q976 -1003 905 -916Q882 -925 853 -947Q865 -969 907.5 -992Q950 -1015 954 -1022Q956 -1026 962 -1080Q947 -1086 931 -1093Q915 -1100 915 -1120Q915 -1125 931 -1153Q951 -1185 952 -1188Q927 -1191 879 -1210Q881 -1230 887 -1270L901 -1278Q883 -1284 862 -1292Q890 -1321 900 -1321Q962 -1321 962 -1283Q962 -1287 942 -1226Q942 -1226 962 -1216Q971 -1273 1030 -1338Q1080 -1389 1131 -1440Q1138 -1447 1138 -1494Q1138 -1515 1164 -1533Q1187 -1550 1209 -1550Q1259 -1550 1259 -1494Q1259 -1470 1247 -1457Q1240 -1451 1234.5 -1443Q1229 -1435 1229 -1405Q1229 -1387 1234 -1351.5Q1239 -1316 1239 -1298Q1239 -1249 1225 -1196Q1211 -1148 1198 -1099Q1198 -1098 1167 -1043Q1204 -1029 1225 -1017L1400 -1267ZM1579 -968L1423 -1193L1484 -939ZM1234 -1482Q1234 -1527 1208 -1527Q1194 -1527 1168 -1505Q1167 -1475 1164 -1460Q1158 -1435 1144 -1421Q983 -1270 983 -1208Q1010 -1203 1064 -1194Q1146 -1184 1146 -1141Q1146 -1126 1131 -1111.5Q1116 -1097 1116 -1077Q1116 -1070 1129 -1050H1146Q1158 -1067 1176 -1103Q1177 -1115 1181 -1139Q1215 -1251 1215 -1275Q1215 -1297 1209.5 -1340.5Q1204 -1384 1204 -1406Q1204 -1445 1219 -1461.5Q1234 -1478 1234 -1482ZM937 -1290Q932 -1298 915 -1298H911Q924 -1294 937 -1290ZM1213 -997L1199 -1004L1210 -992ZM934 -1268Q925 -1265 908 -1257Q906 -1246 903 -1223L913 -1218Q920 -1235 934 -1268ZM1198 -972Q1198 -978 1155 -1014Q1152 -1005 1152 -1000V-981Q1152 -955 1181 -955Q1198 -955 1198 -972ZM1295 -818Q1283 -935 1231 -982Q1227 -977 1224 -970Q1224 -963 1246 -916Q1261 -884 1260 -818ZM1210 -942L1208 -946L1207 -944ZM1282 -676Q1262 -697 1199 -782Q1209 -732 1209 -695Q1233 -688 1282 -676ZM1418 -606Q1418 -635 1371 -700Q1337 -746 1303 -791Q1303 -791 1267 -791Q1247 -791 1234 -800Q1234 -809 1235 -827Q1236 -845 1236 -853Q1236 -894 1193 -926L1072 -749Q1081 -745 1102 -720Q1129 -715 1182 -702V-756Q1182 -766 1176.5 -788Q1171 -810 1171 -820Q1171 -831 1178 -831H1177L1188 -830Q1217 -792 1277 -715Q1278 -714 1307 -684Q1331 -659 1331 -655Q1331 -642 1322 -642Q1321 -642 1319 -643Q1162 -680 1098 -697Q1088 -700 1079 -714.5Q1070 -729 1059 -729L1070 -719Q1058 -712 1047 -712Q1042 -712 1033.5 -714.5Q1025 -717 1021 -717Q997 -717 997 -683Q997 -657 1042 -657Q1047 -657 1056 -658.5Q1065 -660 1069 -660Q1076 -660 1119 -647Q1339 -580 1385 -580Q1418 -580 1418 -606ZM917 -969L888 -952Q892 -949 899 -944Q910 -959 917 -969ZM1176 -606Q1174 -607 1123 -625Q1089 -637 1071 -637Q1066 -637 1056.5 -635.5Q1047 -634 1042 -634Q1035 -634 1023 -637Q1011 -640 1004 -640Q998 -640 982.5 -616.5Q967 -593 955 -588L942 -600L982 -655Q974 -668 974 -681Q974 -713 1003 -742Q1005 -753 1022 -768Q1033 -761 1049 -757L1169 -934Q1152 -939 1133 -949Q1129 -992 1129 -998Q1129 -1016 1133 -1027Q1127 -1029 1114 -1031Q1093 -1066 1093 -1074Q1093 -1101 1108 -1121Q1123 -1141 1123 -1140Q1123 -1163 1061 -1174Q1019 -1179 977 -1184Q938 -1112 938 -1119Q938 -1116 960 -1104.5Q982 -1093 986 -1088Q980 -1047 980 -1026Q1006 -1025 1057 -1013L1058 -985Q1060 -938 1022 -911Q977 -877 969 -856Q964 -847 956 -829Q945 -786 940 -720Q935 -664 931 -609Q921 -520 921 -482Q921 -473 922.5 -454.5Q924 -436 924 -427Q924 -367 873 -361Q746 -355 493 -327Q468 -323 447 -286Q437 -268 435 -244Q433 -209 431 -201Q411 -146 379 -34Q368 57 357 149Q336 256 258 294Q204 321 126 324V343H259Q264 343 282 335.5Q300 328 306 328Q312 328 331.5 337Q351 346 355 346Q394 346 394 325Q394 317 390.5 301Q387 285 387 276Q387 230 418 160Q446 106 474 51Q481 28 500 -17Q516 -47 539 -111Q543 -146 556 -199Q567 -219 634 -220L1012 -223Q1097 -224 1129 -279Q1172 -354 1176 -606ZM1319 -232Q1281 -284 1281 -291V-378Q1281 -387 1286 -392Q1289 -411 1289 -434Q1289 -497 1246 -497Q1204 -497 1194 -463Q1187 -396 1150 -271Q1143 -257 1102.5 -228Q1062 -199 1048 -199H642V342H840V-27H1221V-345Q1230 -354 1238 -354L1248 -345V-232ZM1221 15V0H867V342H876V15ZM1221 342V42H900V342ZM619 342V-194H611V342ZM1060 -1108Q1014 -1108 969 -1123Q1019 -1148 1017 -1148Q1033 -1148 1060 -1108Z"/>
</svg>