<svg xmlns="http://www.w3.org/2000/svg" viewBox="25 -1632 1174.1 2026.1">
	<path fill="currentColor" d="M1124 -622L1049 -335Q1051 -322 1061 -286Q1070 -255 1070 -249Q1070 -251 1037 -186H1006Q1008 -260 1008 -287Q999 -269 1000 -256Q998 -255 959 -255Q947 -291 947 -308Q947 -315 957 -337Q970 -363 972 -371Q977 -388 1022 -584L934 -743Q893 -643 893 -595Q893 -593 916 -545Q940 -493 945 -462Q947 -452 947 -439Q947 -421 941 -377Q935 -333 935 -308Q935 -290 937 -274Q943 -233 1001 -94Q1054 35 1054 88Q1054 96 1051 101.5Q1048 107 1048 109H996Q977 -46 918 -191Q915 -148 931 -82Q953 5 956 32Q956 91 959 193Q960 206 967 240.5Q974 275 974 281Q974 319 936 319Q928 319 909 313.5Q890 308 883 308Q876 308 857 313Q838 318 831 318H701V260Q740 264 799 244Q872 221 872 182Q872 147 835 26Q817 -32 798 -91Q795 -120 784 -181Q779 -190 751 -190Q691 -190 666 -105Q655 -52 644 1Q556 194 556 242Q556 249 557 262.5Q558 276 558 281Q558 313 515 313Q509 313 495.5 308Q482 303 475 303Q469 303 447.5 310.5Q426 318 418 318H289Q288 315 288 261Q334 253 428 221Q472 199 503 101Q537 -6 577 -187Q549 -197 513 -186L700 -569Q692 -598 677.5 -656Q663 -714 655 -743Q643 -690 596 -578Q575 -542 517 -505Q423 -453 238 -347V318H192V-342Q164 -362 164 -389Q164 -407 169.5 -419Q175 -431 175 -437Q175 -448 165 -474H190V-1047Q214 -1063 238 -1079Q271 -1105 271 -1126Q271 -1141 257 -1156Q243 -1171 234 -1171Q214 -1171 189 -1117.5Q164 -1064 137 -1064Q130 -1064 106 -1076Q106 -1088 100 -1094Q123 -1106 164 -1168Q199 -1220 234 -1220Q266 -1220 291 -1182Q314 -1148 314 -1120Q314 -1067 239 -1023V-468Q240 -468 247.5 -466Q255 -464 261 -464Q260 -464 305 -494Q361 -531 416 -568Q481 -618 511 -677Q526 -706 593 -911Q580 -922 556 -943Q564 -961 617 -991Q663 -1018 663 -1051Q663 -1066 661 -1071Q661 -1071 634 -1086Q615 -1097 615 -1112Q615 -1106 652 -1180Q648 -1191 621 -1194Q584 -1199 583 -1199Q583 -1210 588 -1238Q593 -1266 593 -1271Q593 -1276 572 -1297Q591 -1327 625 -1327Q673 -1327 673 -1287Q673 -1281 648 -1238Q646 -1235 651 -1225H670Q683 -1261 718 -1326Q769 -1376 849 -1476Q846 -1492 852 -1524Q870 -1557 917 -1557Q968 -1557 968 -1501Q968 -1473 932 -1425Q942 -1380 942 -1328Q942 -1183 877 -1046Q913 -1024 948 -1003Q991 -973 998 -939Q1005 -898 1028 -816Q1035 -799 1081 -721Q1118 -659 1124 -622ZM947 -1496Q947 -1536 920 -1536Q885 -1520 872 -1501Q889 -1479 865 -1449Q820 -1401 775 -1353Q719 -1293 709 -1255Q708 -1251 701.5 -1242Q695 -1233 695 -1227V-1210Q856 -1177 856 -1142Q856 -1135 840 -1106Q824 -1077 824 -1070Q824 -1049 849 -1049Q864 -1081 886 -1136Q898 -1174 913 -1243Q910 -1318 911 -1436Q912 -1449 929.5 -1470Q947 -1491 947 -1496ZM636 -1267Q633 -1267 625.5 -1264.5Q618 -1262 616 -1262V-1225Q623 -1241 636 -1267ZM930 -942Q927 -961 899 -981Q881 -993 862 -1005V-941Q886 -949 930 -942ZM732 -953Q732 -966 729 -979.5Q726 -993 726 -994Q693 -994 681 -1000Q667 -976 642 -937Q655 -940 687 -945Q719 -950 732 -953ZM1097 -611Q1097 -648 1022 -777Q954 -894 935 -911Q926 -919 891 -919Q884 -919 870 -916.5Q856 -914 850 -914Q839 -914 838 -957Q838 -984 838 -1010Q838 -1015 837 -1018Q812 -1031 803 -1052Q802 -1056 802 -1064Q802 -1071 814 -1102Q827 -1137 829 -1149Q801 -1165 755 -1173Q694 -1184 686 -1187Q651 -1129 647 -1108Q691 -1111 691 -1057Q691 -1038 685 -1022Q722 -1022 754 -1007Q756 -944 739 -926Q684 -924 654.5 -916Q625 -908 611 -897Q576 -796 540 -695Q476 -558 359 -499Q327 -478 261 -435Q275 -407 273 -400Q361 -443 449 -486Q559 -547 591 -632Q605 -682 620 -732Q642 -802 660 -802Q672 -802 669 -797L717 -587H767Q773 -587 811 -593.5Q849 -600 865 -600Q899 -695 914 -791Q919 -791 924 -793.5Q929 -796 936 -796Q945 -796 997 -696Q1049 -596 1049 -584Q1049 -554 1004 -381Q1000 -367 981 -334Q976 -313 975 -321V-287Q982 -313 1002 -316Q1014 -316 1027 -315Q1025 -319 1025 -326Q1025 -349 1061 -462Q1097 -575 1097 -611ZM1045 -256V-275H1036V-256ZM915 -432Q915 -444 871 -576L723 -560L551 -213H892Q892 -227 897 -236Q896 -247 888 -287Q882 -317 884 -332Q886 -346 900.5 -386.5Q915 -427 915 -432ZM1013 23V3H1004V23ZM1027 87L1018 25H1009L1017 87ZM946 291V267Q946 261 939 226.5Q932 192 932 177Q932 29 934 48Q930 11 887 -190Q828 -183 808 -184Q811 -156 820 -107Q834 -76 854 -21Q899 148 899 185Q899 221 826 257Q757 291 727 284L848 292Q870 281 883 281Q892 281 946 291ZM245 -402Q245 -432 213 -432Q204 -432 195 -417Q186 -402 186 -391Q186 -383 189 -376.5Q192 -370 192 -368H222Q245 -389 245 -402ZM684 -189H605Q578 -74 550 41Q517 170 449 238Q434 253 309 284L425 292Q473 276 481 276Q488 276 496 284Q504 292 510 292Q518 292 522 289Q526 286 528 286Q532 229 560 150Q584 89 607 27Q622 -31 648 -128Q653 -145 684 -189ZM759 -1109Q753 -1102 753 -1097Q738 -1102 690 -1114Q708 -1150 724 -1150Q757 -1150 759 -1109Z"/>
</svg>