<svg xmlns="http://www.w3.org/2000/svg" viewBox="0 0 673 1000">
  <g transform="scale(1,-1) translate(0,-1000)">
    <path d="M612 372Q613 464 613 471Q608 496 608 496L573 598Q567 559 567 529Q567 522 566.5 508.0Q566 494 566 485Q566 475 564 449L569 342H606Q607 345 609.0 349.5Q611 354 612 356Q612 356 611.5 357.5Q611 359 611.0 360.0Q611 361 611.5 365.0Q612 369 612 372ZM387 316 378 284 539 280 538 315ZM515 703Q487 699 467 699Q448 699 440 701Q438 701 434 703Q435 699 435 690Q435 651 410 629Q440 578 440 548V532Q440 526 435 476L527 466Q527 475 528.5 498.5Q530 522 530 529Q530 556 531.5 576.0Q533 596 535.0 606.5Q537 617 541.5 625.0Q546 633 548.0 634.5Q550 636 556.5 639.5Q563 643 564 644Q560 654 542.0 669.0Q524 684 520 689Q519 690 517.5 694.0Q516 698 515 699V702ZM535 437 422 451 394 343 538 342ZM264 102 237 252Q233 227 224.5 177.0Q216 127 212 102ZM404 844Q377 807 377 794Q377 776 404.0 750.0Q431 724 467 724Q501 724 521 729Q528 731 528 741V742Q525 741 521 741Q485 750 485 786Q485 791 487.0 799.0Q489 807 489 809Q488 810 488 810Q480 817 447.5 823.0Q415 829 404 844ZM423 817Q430 817 435.5 811.5Q441 806 441 798Q441 784 421 784Q404 784 404 802Q404 817 423 817ZM425 865Q425 858 439.5 853.5Q454 849 471.0 846.5Q488 844 502.5 834.5Q517 825 517 809Q517 804 515.0 796.5Q513 789 513 786Q513 781 519 773Q529 790 535.0 813.5Q541 837 542.0 854.0Q543 871 543.5 888.5Q544 906 544 909Q546 921 552.0 935.0Q558 949 558 957Q558 972 547 972Q541 972 535.0 964.5Q529 957 521.0 944.5Q513 932 507 926Q495 914 479.5 908.5Q464 903 454.0 902.5Q444 902 436.0 894.0Q428 886 426 867Q425 866 425 865ZM579 170Q579 147 579.0 127.0Q579 107 578.5 94.0Q578 81 578.0 70.5Q578 60 577.5 54.5Q577 49 576.5 45.5Q576 42 576 40V39V31Q576 16 572.5 9.0Q569 2 565.5 1.0Q562 0 553 0H474Q451 0 451 16Q451 34 530 53L518 253H430Q426 200 402 68V64Q402 60 401.0 51.5Q400 43 400 40V32Q400 11 394.0 5.5Q388 0 365 0H300Q275 0 275 17Q275 35 354 54L372 256H331Q338 286 349 317L253 318Q253 317 273.5 204.0Q294 91 294 88Q294 83 289.5 79.0Q285 75 280 75H196Q191 75 186.5 79.0Q182 83 182 88Q182 92 185.0 109.0Q188 126 197.5 179.5Q207 233 218 298Q220 310 220 320Q220 345 250 345L358 344Q385 418 393 443Q394 454 397.0 469.0Q400 484 401.5 498.0Q403 512 403 532Q403 542 402.5 548.0Q402 554 400.5 560.5Q399 567 398.0 569.5Q397 572 392.5 581.5Q388 591 386 596Q315 542 270.5 524.0Q226 506 173 506Q156 506 128.5 508.0Q101 510 92 510Q90 510 86.0 509.5Q82 509 80 509V100L112 27Q113 25 113 21Q113 15 108.5 10.5Q104 6 98 6Q88 6 84 15L65 59L46 15Q42 6 32 6Q26 6 21.5 10.5Q17 15 17 21Q17 24 50 100V511Q36 522 36 536Q36 554 50 557V794Q38 784 34 776Q29 766 25.0 756.0Q21 746 17.0 732.0Q13 718 11 711Q10 721 5.0 743.0Q0 765 0 777Q0 791 5.0 801.0Q10 811 18.0 821.0Q26 831 30 839Q47 878 50.5 890.0Q54 902 58 934Q61 928 68.5 919.5Q76 911 80.0 903.5Q84 896 84 887V881Q84 853 69 820Q80 816 80 806V547Q80 547 82.0 547.0Q84 547 86.5 546.5Q89 546 93.0 545.5Q97 545 103.0 545.0Q109 545 115 545Q170 545 238 562Q241 563 261.0 575.5Q281 588 318.5 612.0Q356 636 391 656Q404 673 404 690Q404 698 399.5 706.0Q395 714 395 717Q395 721 397 723Q395 724 393 726L354 685Q350 681 343 681Q337 681 332.5 685.5Q328 690 328.0 696.0Q328 702 332 706L371 747Q352 769 352 789Q352 815 381 853H378Q376 853 372.5 852.5Q369 852 367 852Q356 852 356 862Q356 866 359.0 872.0Q362 878 362 882Q362 892 349 892H346Q329 892 329 908Q330 920 344 920H346Q370 918 384 911Q385 911 389.0 898.0Q393 885 399 882Q400 884 402 888L403 891Q412 919 445.5 928.5Q479 938 487 946Q490 949 499.5 964.5Q509 980 520.5 990.0Q532 1000 547 1000Q564 1000 575.0 988.0Q586 976 586 957Q586 945 579.5 928.0Q573 911 572 905Q572 903 571.5 885.0Q571 867 569.5 849.5Q568 832 562.0 807.5Q556 783 546 764L549 751Q549 750 582.5 712.0Q616 674 617 653L654 523L649 368Q649 359 648.0 354.0Q647 349 646.5 347.5Q646 346 645.0 344.5Q644 343 644 341H660Q673 341 673 328Q673 323 669.0 318.5Q665 314 660 314H641Q636 301 624 297H620Q603 297 602 315H571L573 282V271Q579 215 579 170Z" fill="currentColor"/>
  </g>
</svg>