<svg xmlns="http://www.w3.org/2000/svg" viewBox="0 -2048 2048 2048">
	<path fill="#000000" d="M1094 -530Q1094 -528 1057 -437Q1017 -340 1008 -294Q1015 -261 1021 -202Q1021 -180 995 -129Q970 -129 958 -141Q957 -154 966 -173.5Q975 -193 975 -206Q975 -222 966 -242Q957 -233 957 -221H922Q915 -228 915 -248Q915 -254 931 -287Q950 -326 956 -344Q985 -437 985 -503Q985 -545 901 -704Q879 -684 871 -632Q866 -603 866 -577Q866 -570 890.5 -490Q915 -410 915 -403Q915 -397 898.5 -327.5Q882 -258 882 -251L947 320Q947 336 931 348.5Q915 361 898 361Q890 361 865 355.5Q840 350 833 350Q826 350 793.5 355.5Q761 361 754 361Q749 361 727 358Q705 355 693 355Q693 355 693 302Q839 292 839 187Q839 102 753 -134H679Q672 -116 630 38Q597 109 536 266Q541 289 537 332Q523 361 477 361Q470 361 451.5 355.5Q433 350 426 350Q419 350 378.5 355.5Q338 361 331 361Q274 361 258 348Q258 343 260.5 328Q263 313 263 307Q302 298 340 289Q392 277 422 255.5Q452 234 476 134Q501 30 540 -115V-130Q518 -136 491 -153L665 -533Q650 -611 624 -704Q601 -651 578 -599Q546 -536 491 -536Q436 -536 344.5 -566Q253 -596 236 -596Q221 -596 210 -581Q194 -305 148 354H100L165 -582Q165 -589 156 -596Q147 -603 145 -608Q138 -622 138 -647Q138 -636 145 -690Q153 -694 169 -703Q171 -726 174 -767Q181 -871 193 -1154L240 -1160L214 -704Q214 -676 266 -662Q350 -639 456 -639Q467 -639 473 -648Q493 -702 514 -756Q541 -824 572 -870Q555 -898 523 -919Q562 -948 605 -974V-1026Q592 -1031 567 -1042V-1059Q567 -1065 590 -1098Q615 -1135 619 -1147Q623 -1159 623 -1170Q623 -1185 614 -1204.5Q605 -1224 605 -1229V-1257H801Q759 -1310 716 -1362Q659 -1438 659 -1470Q659 -1487 678 -1512Q700 -1541 722 -1541Q742 -1541 755 -1520.5Q768 -1500 768 -1484Q768 -1454 738 -1454Q721 -1454 709 -1460V-1486Q724 -1481 737 -1481Q744 -1494 736 -1509Q740 -1514 727 -1514Q703 -1514 686 -1462Q686 -1428 752 -1351Q796 -1302 841 -1253Q877 -1298 906 -1396Q927 -1465 948 -1534H1001L844 -1012Q884 -992 945 -936Q958 -913 978 -849Q990 -806 1014 -730Q1025 -701 1063 -610Q1094 -537 1094 -530ZM944 -1417V-1431H934V-1417ZM938 -1400V-1415H929V-1400ZM929 -1399Q914 -1349 898 -1298Q880 -1241 836 -1220L826 -1231H650Q641 -1226 639 -1218Q650 -1162 649 -1156Q693 -1154 738 -1152Q811 -1144 811 -1106Q811 -1099 800.5 -1073.5Q790 -1048 790 -1041Q790 -1009 821 -1009ZM893 -901Q866 -938 830 -965Q817 -939 817 -924Q817 -910 835 -901ZM686 -906V-948Q678 -948 663.5 -951Q649 -954 643 -954Q628 -954 615 -930Q592 -889 589 -885Q652 -906 686 -906ZM1067 -536Q1067 -580 994.5 -720.5Q922 -861 896 -870Q874 -870 831 -874Q814 -877 801 -897Q790 -914 790 -924Q790 -946 811 -979Q768 -1008 768 -1044Q768 -1056 784 -1104Q768 -1119 718 -1124Q650 -1132 645 -1133Q626 -1105 594 -1059Q627 -1064 632 -1028Q633 -1002 633 -976H709Q713 -947 713 -924Q713 -901 709 -877Q608 -886 580 -839Q560 -806 533 -728.5Q506 -651 481 -611Q310 -617 225 -659Q233 -654 231 -618Q490 -557 499 -557Q539 -557 574 -652Q593 -693 622 -760Q625 -764 633 -764Q653 -695 688 -542Q712 -547 765.5 -558.5Q819 -570 843 -575Q848 -617 854 -660Q865 -711 896 -742H916Q1012 -523 1012 -500Q1012 -441 985 -365Q958 -289 958 -293V-276H984Q984 -305 981 -293Q1067 -517 1067 -536ZM887 -414Q887 -441 872 -476Q847 -533 843 -546Q743 -525 689 -517Q634 -397 524 -162H859Q859 -308 856 -283Q859 -306 873 -359Q887 -409 887 -414ZM208 -626Q185 -649 165 -649V-619Q177 -606 192 -606Q208 -606 208 -626ZM914 333Q909 239 896 59Q883 -13 865 -133H779Q806 -52 833 30Q866 131 866 203Q866 259 829 287Q799 309 714 332H781Q788 333 809 327.5Q830 322 836 322Q823 322 914 333ZM648 -133H568Q542 -34 492 162Q467 260 433 278Q386 302 284 325L380 333Q428 317 437 317Q444 317 458.5 325Q473 333 480 333Q501 333 511 320Q508 309 508 297Q508 260 536 202Q572 127 576 114Q598 31 648 -133ZM691 -1089Q691 -1086 688.5 -1079Q686 -1072 686 -1069H639L632 -1075V-1095Q645 -1106 657 -1106Q657 -1106 691 -1089Z"/>
</svg>