<svg xmlns="http://www.w3.org/2000/svg" viewBox="0 0 659 1000">
  <g transform="scale(1,-1) translate(0,-1000)">
    <path d="M643 490Q643 465 614 465Q578 472 578 472L548 485Q548 472 547.5 458.0Q547 444 546.5 437.0Q546 430 546 429Q546 429 545.5 418.5Q545 408 544.5 390.0Q544 372 543.0 349.0Q542 326 541.5 295.5Q541 265 540 236Q558 195 570.5 178.0Q583 161 601.0 144.0Q619 127 638 100Q641 88 645.0 76.5Q649 65 650.5 59.0Q652 53 652 46Q652 34 637 29Q555 0 552 0Q545 0 540.5 4.0Q536 8 536 12Q536 31 597 71Q584 87 565.0 109.0Q546 131 536.5 143.0Q527 155 515.0 174.0Q503 193 493 215H375Q366 189 338.0 147.0Q310 105 287.5 72.5Q265 40 265 32Q265 11 259.0 5.5Q253 0 230 0H165Q140 0 140 17Q140 28 170.0 39.0Q200 50 219 54Q235 88 269.5 144.5Q304 201 320 240Q320 240 326.5 262.5Q333 285 345.0 323.5Q357 362 368 393L377 423Q379 441 379 452Q380 465 380 484Q380 506 361 562Q360 562 323.5 541.0Q287 520 282 520H281Q242 532 202.0 552.5Q162 573 143 590Q120 609 113 622Q116 599 123.5 567.5Q131 536 137.5 514.0Q144 492 144 489Q144 483 139.5 478.5Q135 474 129 474Q116 474 100.0 473.5Q84 473 78 473Q73 473 53.5 473.5Q34 474 17 474Q11 474 6.5 478.5Q2 483 2 489Q2 492 10.0 520.0Q18 548 26.0 584.5Q34 621 34 644Q34 676 17.0 730.0Q0 784 0 785Q0 791 4.5 795.5Q9 800 15 800Q25 800 44.5 799.5Q64 799 73.0 799.0Q82 799 101.5 799.5Q121 800 131 800Q137 800 141.5 795.5Q146 791 146 785Q146 784 129.0 730.0Q112 676 112 644Q118 661 132 661Q149 661 179 602L271 565Q281 569 290.5 576.0Q300 583 317.0 596.5Q334 610 352 623Q363 627 382 657Q382 666 379.0 671.5Q376 677 365.5 685.0Q355 693 353 695Q319 659 311 659Q306 659 302.0 664.0Q298 669 298 674Q298 678 301 681Q318 693 341 710Q331 728 331 758Q331 798 362 832L365 863Q365 867 366.0 873.0Q367 879 375.0 889.5Q383 900 395 900Q398 900 443 887Q423 915 417 956Q417 961 419.0 968.0Q421 975 432.5 987.0Q444 999 464 999Q472 999 480.5 997.0Q489 995 499.5 984.5Q510 974 510 956Q510 944 501.5 934.0Q493 924 486 924Q471 924 471 938Q471 944 475.5 948.5Q480 953 480 956Q480 969 464 969Q447 968 447 956Q447 910 501 870Q512 865 523 865Q526 866 528.5 868.5Q531 871 532.5 873.0Q534 875 537.5 879.5Q541 884 545 888Q553 898 567.5 929.5Q582 961 596.5 980.5Q611 1000 627 1000Q634 999 637.5 998.0Q641 997 642.0 996.0Q643 995 644 995Q656 983 658 976Q658 974 658.5 972.0Q659 970 659 968Q659 964 655 946Q655 944 654 942L550 729Q549 728 549 727Q544 717 544 717Q579 701 579 645Q579 630 573 628H571Q561 628 533 686Q530 691 529 693Q525 688 525 680Q525 668 537.0 658.0Q549 648 549 635V628Q586 597 614.5 551.5Q643 506 643 490ZM36 770Q64 683 64 644Q64 607 36 504Q55 503 87 503H109Q82 602 82 643Q82 682 110 769H88Q66 769 36 770ZM627 970Q622 970 606.5 936.0Q591 902 568.0 868.0Q545 834 521 834Q518 834 487.0 842.5Q456 851 426 860L397 869Q397 868 395 860L393 836L530 757L626 954Q629 962 629 967Q629 970 627 970ZM403 783Q419 783 419 763Q419 750 403 750Q381 750 381 763Q381 772 387.5 777.5Q394 783 403 783ZM516 408 406 403 359 249 507 246ZM426 556Q426 561 426.5 563.5Q427 566 431.5 569.0Q436 572 444 572Q464 572 474 562Q486 550 512 542L513 621Q513 624 513.5 628.0Q514 632 514 633Q514 641 503.5 653.0Q493 665 493 681Q493 703 509 717Q513 725 518 730L382 808Q382 808 379.5 805.0Q377 802 375.0 799.5Q373 797 370.5 792.5Q368 788 366.0 783.5Q364 779 362.5 772.0Q361 765 361 758Q361 738 369.5 725.0Q378 712 387.5 707.0Q397 702 405.5 689.5Q414 677 414 657Q414 650 412.5 644.0Q411 638 409.5 635.0Q408 632 403.0 626.0Q398 620 397.0 619.0Q396 618 388 612L381 605Q397 580 406.5 537.5Q416 495 418 473Q418 457 415 437L506 439Q506 448 508.5 471.0Q511 494 511 501L484 513Q470 519 464.0 519.5Q458 520 457 521Q426 535 426 556ZM549 528Q561 523 571.5 518.0Q582 513 587.0 511.0Q592 509 593 509Q595 509 595 510Q595 512 550 563Q550 557 549.5 545.5Q549 534 549 528Z" fill="currentColor"/>
  </g>
</svg>