<svg xmlns="http://www.w3.org/2000/svg" viewBox="23.5 -1621.5 1266 2065">
	<path fill="currentColor" d="M1213 367H155Q155 350 161 346Q240 310 400 231Q338 89 275 -53Q170 -299 170 -355Q170 -374 192 -418L149 -516V-535H224V-1034L100 -1145H422L274 -1034V-539Q303 -526 343 -490Q378 -416 466 -299Q543 -199 620 -98Q629 -146 629 -206V-363Q629 -356 632 -392.5Q635 -429 635 -506Q637 -534 647 -588Q674 -678 702 -725Q721 -736 761 -762V-832Q733 -837 677 -847Q672 -831 660.5 -795Q649 -759 644 -743Q629 -751 564 -777Q566 -780 622 -838Q661 -879 661 -912Q661 -924 657 -936Q657 -936 597 -951Q597 -953 594 -958.5Q591 -964 591 -972Q591 -976 617.5 -1024.5Q644 -1073 649 -1101Q660 -1159 646 -1210Q654 -1213 671 -1228Q677 -1241 697 -1271Q724 -1303 760 -1330Q753 -1343 716 -1408Q689 -1456 689 -1464Q689 -1524 752 -1524Q771 -1524 793 -1508.5Q815 -1493 815 -1474Q815 -1451 780 -1420H755V-1446Q777 -1446 787 -1466Q775 -1490 749 -1502Q716 -1502 716 -1464Q716 -1442 751 -1392Q780 -1351 790 -1343Q829 -1363 868 -1383Q912 -1408 933 -1435Q941 -1462 958 -1516Q961 -1525 987 -1535Q1010 -1545 1020 -1545Q1040 -1545 1064 -1523.5Q1088 -1502 1088 -1483Q1088 -1476 1060.5 -1435Q1033 -1394 1033 -1387Q1033 -1377 1047 -1349L1127 -1523Q1145 -1523 1169 -1511L951 -888Q956 -886 966 -880Q1050 -867 1110 -753Q1158 -660 1158 -593V-568Q1176 -569 1056 -569Q1049 -776 938 -852Q913 -836 913 -817Q913 -787 958 -750Q1007 -708 1015 -675Q1031 -609 1044 -379Q1055 -194 1055 -131L1033 229Q1033 242 1111 297Q1162 332 1213 367ZM1060 -1485Q1060 -1518 1020 -1518Q981 -1518 973 -1483Q967 -1457 961 -1430Q950 -1414 898 -1379Q840 -1342 781 -1305Q709 -1255 701 -1218H977Q998 -1232 1011 -1270Q1023 -1305 1020 -1330Q1019 -1337 1010 -1364Q1003 -1383 1007 -1394Q1013 -1413 1038 -1448Q1060 -1480 1060 -1485ZM1102 -1414Q1025 -1196 986 -1195H673Q684 -1184 684 -1163Q684 -1151 679 -1128Q674 -1102 673 -1093Q738 -1088 864 -1072Q861 -1065 861 -1060Q861 -1049 876 -1039.5Q891 -1030 891 -1024Q891 -1017 880 -984.5Q869 -952 869 -945Q869 -922 910 -885Q915 -890 923 -891ZM1131 -585V-610Q1132 -663 1095 -735Q1052 -821 990 -840Q1045 -788 1062 -710Q1070 -651 1078 -591Q1107 -593 1131 -585ZM639 -819Q616 -809 607 -789Q620 -776 634 -776Q634 -781 636.5 -797.5Q639 -814 639 -819ZM345 -1123H165Q197 -1095 250 -1049Q265 -1059 345 -1123ZM1131 342Q1006 249 1006 245L1028 -148Q1028 -367 998 -631Q994 -663 954 -731Q947 -743 924 -750Q908 -754 891 -758Q891 -767 887.5 -794Q884 -821 885 -835Q888 -856 902 -866Q890 -868 866 -897Q842 -926 842 -937Q842 -941 849.5 -972Q857 -1003 856 -1017Q855 -1019 842.5 -1031Q830 -1043 831 -1053Q825 -1054 663 -1064Q649 -1032 624 -973Q645 -971 684 -958Q687 -899 679 -869Q785 -867 787 -844Q788 -786 780 -747Q756 -727 724 -713Q698 -658 663 -549Q663 -511 656 -435L651 -129Q650 -102 648 -73.5Q646 -45 628 -44Q580 -111 488 -229Q440 -297 392 -364Q340 -432 274 -432Q198 -432 198 -363Q198 -300 248 -183Q285 -101 321 -18Q338 31 396 156Q414 189 433 232V247L231 342ZM339 -446Q328 -479 291 -498Q262 -514 238 -513H182Q193 -470 211 -437Q255 -459 271 -459Q311 -459 339 -446ZM760 -1007Q754 -1001 754 -989Q727 -993 712 -993Q697 -993 684 -989V-1020Q701 -1038 727 -1038Q737 -1038 760 -1007Z"/>
</svg>