<svg xmlns="http://www.w3.org/2000/svg" viewBox="0 -2048 2048 2048">
	<path fill="#000000" d="M1233 -220L1220 -207Q1203 -226 1164 -267V-416Q1164 -489 1116 -489Q1075 -489 1066 -416Q1058 -348 1050 -280Q1031 -207 969 -207H569V314H726V-36H1104V-328H1131V340H506V-207Q493 -192 489 -82Q489 -75 476 4Q457 74 426 201Q425 235 423 307Q422 318 402 332Q382 346 374 346Q367 346 341 338Q315 330 308 330Q302 330 267 335.5Q232 341 225 341H123Q123 324 122 289Q147 284 202 262V-634Q175 -649 175 -688Q175 -681 182 -735Q189 -738 201 -747Q200 -750 190 -763Q180 -776 180 -784V-866H203V-1175Q204 -1175 194 -1185Q177 -1142 142 -1026Q140 -1026 129 -1023.5Q118 -1021 112 -1021Q100 -1039 100 -1068Q100 -1154 125 -1233Q159 -1328 194 -1423Q195 -1425 198 -1455Q201 -1459 220 -1478Q260 -1385 260 -1355Q260 -1348 238.5 -1294Q217 -1240 217 -1233Q217 -1228 233 -1206.5Q249 -1185 249 -1178V-876Q301 -850 318 -850L619 -871H750Q749 -875 723 -901Q800 -960 800 -1000Q800 -1009 798 -1017Q779 -1022 744 -1043Q796 -1164 796 -1197Q796 -1224 787 -1253Q796 -1253 804 -1255Q827 -1283 882 -1337Q824 -1439 824 -1449Q824 -1499 871 -1499Q930 -1499 930 -1462Q930 -1425 883 -1414L877 -1440Q889 -1440 903 -1454Q894 -1478 877 -1478Q850 -1478 850 -1454Q850 -1441 907 -1355Q935 -1369 963 -1384Q999 -1404 1024 -1434Q1035 -1460 1045 -1486Q1062 -1526 1087 -1526Q1104 -1526 1126 -1504Q1148 -1482 1148 -1465Q1148 -1453 1110 -1389V-1371Q1108 -1371 1118 -1361Q1133 -1391 1181 -1499L1222 -1492L1041 -976Q1104 -950 1144 -872Q1179 -806 1179 -747V-713H1085Q1081 -770 1078 -826Q1070 -898 1023 -946Q1004 -916 1004 -893Q1004 -898 1023 -859Q1051 -803 1058 -752L1061 -478Q1112 -515 1124 -515Q1177 -515 1184 -406Q1185 -345 1186 -285Q1203 -264 1233 -220ZM1139 -1319V-1333H1130V-1319ZM1127 -1471Q1094 -1493 1080 -1493Q1067 -1464 1053 -1436Q1036 -1404 1011 -1388Q967 -1361 924 -1333Q871 -1296 840 -1255H1072Q1106 -1289 1093 -1359Q1086 -1395 1085 -1390Q1101 -1417 1127 -1471ZM1130 -1318Q1119 -1293 1109 -1268Q1087 -1227 1065 -1227H819V-1154Q867 -1149 963 -1136Q973 -1125 986 -1102Q992 -1073 974 -1013Q975 -1003 991.5 -993.5Q1008 -984 1019 -984ZM1153 -734V-774Q1154 -806 1114 -881Q1109 -890 1075 -924Q1114 -858 1106 -739Q1110 -739 1126 -736.5Q1142 -734 1153 -734ZM881 -888V-945Q840 -936 814 -945Q814 -931 803 -872Q831 -877 881 -888ZM785 -925Q765 -905 765 -900Q770 -895 780 -893Q780 -899 782.5 -911Q785 -923 785 -925ZM233 -1353Q233 -1364 220 -1403L154 -1240Q166 -1240 178 -1228Q233 -1310 233 -1353ZM823 -850H677L293 -828V-792H735Q799 -791 823 -850ZM164 -1195H138Q126 -1141 129 -1063Q141 -1105 164 -1195ZM621 -768H544Q534 -768 501.5 -766.5Q469 -765 464 -765H300Q277 -765 265 -741Q284 -728 316 -728ZM270 -810Q261 -829 239 -829Q232 -829 207 -818V-782Q219 -771 225 -771Q242 -771 270 -810ZM1036 -497Q1036 -722 1029 -789Q1027 -807 1005 -852Q983 -897 983 -901Q983 -916 998 -961Q983 -958 964 -984Q946 -1007 946 -1018Q946 -1023 953 -1049.5Q960 -1076 959 -1088Q950 -1093 939 -1103Q941 -1108 940 -1115Q939 -1115 809 -1126Q795 -1098 779 -1048Q804 -1048 824 -1038Q824 -1026 821.5 -1001Q819 -976 819 -968Q910 -968 904 -967V-907Q903 -883 894 -867Q858 -856 837 -825Q883 -846 942 -856Q946 -848 946 -843Q946 -837 942 -834Q862 -806 730 -766Q445 -701 308 -701Q285 -701 252 -723Q235 -706 202 -695V-660Q210 -660 224 -657Q238 -654 244 -654Q267 -654 285 -675H554Q602 -675 964 -781Q972 -781 974 -779Q976 -777 978 -777V-764Q877 -724 814 -711Q811 -671 803 -616Q797 -569 797 -565V-402Q747 -382 594 -372Q462 -363 395 -316Q382 -307 375 -231Q366 -132 364 -82Q360 -21 354 88Q349 180 327 215Q297 263 241 284Q192 298 143 312Q152 312 168.5 316Q185 320 191 320Q197 320 252 312Q307 304 313 304Q321 304 352 310Q378 316 398 313Q395 297 395 278Q395 226 417 141Q433 77 449 14Q455 -79 474 -209Q483 -234 511 -236Q539 -236 566 -235Q617 -239 688 -239L898 -233Q981 -233 997 -240Q1024 -252 1029 -294Q1036 -351 1036 -497ZM1105 5V-9H750V314H766V5ZM1105 314V33H792V314ZM785 -701Q745 -687 645 -669Q526 -648 449 -648Q456 -648 412 -650.5Q368 -653 293 -653Q287 -633 250 -626V250Q276 238 306 212Q318 177 325.5 78Q333 -21 346 -193Q350 -251 362 -310Q366 -331 386 -344Q444 -382 552 -390Q742 -405 770 -410ZM545 314V-207H535V314ZM887 -1076Q876 -1065 876 -1058Q843 -1069 819 -1069Q822 -1106 850 -1106Q857 -1106 887 -1076Z"/>
</svg>