<svg xmlns="http://www.w3.org/2000/svg" viewBox="23.1 -1632.9 2075.8 2074.8">
	<path fill="currentColor" d="M2022 -1204Q2009 -1185 1985 -1142Q1977 -1112 1959 -1049Q1947 -1009 1913 -982Q1912 -979 1912 -959Q1912 -939 1913 -938Q1914 -937 1945 -920Q1945 -915 1938 -896Q1939 -892 1945 -878.5Q1951 -865 1951 -858Q1951 -844 1924 -807Q1923 -806 1923 -784L2000 105Q2000 175 1986 251Q1965 360 1926 360Q1919 360 1898.5 344Q1878 328 1875 320Q1858 274 1840 187Q1825 113 1825 97L1874 -779Q1874 -806 1836 -806Q1839 -806 1690.5 -759.5Q1542 -713 1502 -713Q1507 -713 1210 -779Q1179 -737 1179 -658Q1179 -601 1203.5 -530Q1228 -459 1228 -417Q1228 -411 1214.5 -353.5Q1201 -296 1201 -289Q1201 -283 1204 -262Q1208 -238 1209 -229Q1209 -182 1218 -87Q1222 -63 1239 -4Q1255 49 1255 55V237Q1255 241 1269 276.5Q1283 312 1283 319Q1283 338 1260 351Q1242 360 1231 360Q1224 360 1200.5 351.5Q1177 343 1170 343Q1158 343 1142.5 354Q1127 365 1121 365H982V301Q1030 291 1078 281Q1162 253 1162 201Q1162 166 1118 56Q1071 -64 1065 -102Q1063 -129 1061 -155Q1061 -155 1025 -155Q999 -155 997 -153Q948 -111 928 -53Q900 23 852 177Q847 224 832 309Q827 327 788 365Q744 343 724 343Q717 343 673.5 354Q630 365 623 365Q539 365 539 365V306Q529 306 606 291Q707 271 753 157Q759 142 799 -27Q802 -42 796 -53L965 -546Q950 -624 909 -770Q904 -784 869 -784Q862 -784 718.5 -740.5Q575 -697 568 -697Q562 -697 419 -740.5Q276 -784 270 -784Q245 -784 254 -746L303 103Q303 360 184 365Q133 279 133 130L199 -765Q199 -775 195 -777Q182 -781 168 -805Q155 -826 155 -836Q155 -847 177 -869Q172 -878 161 -897Q175 -911 206 -910L210 -914V-967Q159 -1000 152 -1035Q150 -1077 147 -1120Q146 -1132 142 -1142Q132 -1168 100 -1220Q113 -1233 117 -1233Q124 -1233 146 -1215Q178 -1188 184 -1184Q209 -1255 240 -1255Q261 -1255 287 -1218Q299 -1198 311 -1178Q348 -1225 399 -1233L412 -1219Q368 -1177 334 -1084Q302 -999 259 -967V-903Q301 -882 409 -852Q529 -817 579 -817Q621 -817 872 -924Q861 -933 839 -951Q844 -960 884 -1000Q913 -1029 913 -1055Q913 -1063 911 -1071Q893 -1081 862 -1081Q862 -1083 859 -1088.5Q856 -1094 856 -1102Q856 -1108 870 -1129Q887 -1156 892 -1166Q916 -1219 901 -1298Q911 -1294 942 -1328Q981 -1371 993 -1379Q932 -1468 932 -1488Q932 -1507 956 -1527Q977 -1545 990 -1545Q1008 -1545 1022 -1529.5Q1036 -1514 1036 -1496Q1036 -1457 1012 -1452H993V-1479Q1000 -1479 1015 -1494Q1021 -1518 993 -1518Q960 -1518 960 -1488Q960 -1467 1018 -1397Q1062 -1418 1128 -1467Q1138 -1494 1148 -1520Q1162 -1556 1195 -1556Q1255 -1556 1255 -1512Q1255 -1505 1240 -1471Q1222 -1430 1217 -1411Q1214 -1408 1219 -1403Q1229 -1422 1251 -1469.5Q1273 -1517 1284 -1539Q1309 -1539 1321 -1527L1146 -1029Q1175 -1013 1225 -975Q1237 -963 1245 -931Q1535 -833 1545 -833Q1588 -833 1788 -884Q1813 -903 1862 -931Q1863 -933 1863 -954Q1863 -970 1843 -997Q1819 -1030 1810 -1054Q1808 -1061 1801 -1104Q1798 -1126 1770 -1153Q1742 -1180 1721 -1185V-1205Q1809 -1239 1888 -1239Q1968 -1239 2022 -1204ZM1983 -1199Q1893 -1217 1893 -1217Q1849 -1217 1764 -1192Q1811 -1164 1827 -1089Q1841 -1018 1888 -998Q1931 -1032 1949 -1091Q1966 -1145 1983 -1199ZM1923 -855Q1923 -863 1919.5 -869Q1916 -875 1916 -877Q1908 -873 1896 -873Q1884 -873 1876 -877Q1863 -864 1863 -858Q1863 -828 1893 -828Q1923 -828 1923 -855ZM1228 -1516Q1210 -1534 1191 -1534Q1180 -1501 1152 -1453Q1131 -1433 1045 -1378Q975 -1333 955 -1300H1172Q1188 -1318 1196 -1383Q1191 -1401 1191 -1432Q1204 -1460 1228 -1516ZM1224 -1337Q1210 -1271 1151 -1271Q928 -1271 928 -1271V-1201Q979 -1198 1080 -1185Q1071 -1170 1077 -1159Q1094 -1149 1094 -1126Q1094 -1117 1091.5 -1099.5Q1089 -1082 1089 -1073Q1089 -1043 1120 -1036ZM1972 108L1898 -762L1852 114Q1852 165 1886 281Q1896 316 1927 332Q1972 250 1972 108ZM1173 -941Q1150 -981 1126 -997L1119 -955Q1132 -946 1173 -941ZM1846 -829Q1820 -859 1840 -882Q1805 -862 1783 -857Q1591 -812 1548 -812Q1509 -812 1431 -844Q1335 -884 1270 -897Q1182 -915 1117 -917Q1091 -938 1091 -968Q1091 -990 1102 -1012Q1058 -1038 1058 -1072Q1058 -1076 1064 -1102Q1069 -1125 1067 -1133Q1060 -1136 1048 -1144Q1047 -1148 1047 -1167Q1027 -1167 928 -1178Q906 -1133 883 -1103Q914 -1103 938 -1092Q939 -1057 939 -1020Q1012 -1018 1015 -1019V-935Q1011 -924 962 -915Q889 -902 874 -897Q809 -870 744 -842Q615 -790 579 -790Q556 -790 312 -851Q293 -858 259 -870Q274 -855 276 -834Q276 -820 276 -807L576 -724Q643 -734 690 -753Q838 -812 864 -812Q921 -812 930 -786Q959 -703 988 -560Q1107 -577 1162 -583Q1155 -617 1155 -661Q1155 -775 1204 -801L1513 -735Q1517 -736 1693 -794Q1809 -833 1846 -829ZM992 -949V-991Q958 -991 928 -997Q928 -982 917 -933Q944 -938 992 -949ZM893 -949V-970L878 -957Q883 -952 893 -949ZM1201 -415Q1201 -423 1167 -559Q1051 -539 989 -530Q947 -414 867 -183H1189V-207Q1181 -238 1175 -294Q1176 -312 1188.5 -361.5Q1201 -411 1201 -415ZM286 -1159Q286 -1175 274 -1199Q259 -1228 240 -1228Q224 -1228 213 -1193Q204 -1167 204 -1151Q204 -1119 234 -1069Q286 -1135 286 -1159ZM318 -1140Q298 -1111 278 -1081Q252 -1046 230 -1041Q220 -1048 197 -1083Q171 -1122 171 -1137Q171 -1058 173 -1049Q177 -1033 200.5 -1010Q224 -987 234 -987Q272 -987 292 -1047Q305 -1093 318 -1140ZM254 -842Q235 -861 218 -861Q201 -861 183 -844V-818Q192 -801 213 -801Q239 -801 254 -842ZM1255 325Q1243 293 1229 247Q1224 216 1228 166Q1232 111 1231 94Q1215 11 1189 -154Q1138 -154 1108.5 -151Q1079 -148 1086 -148Q1096 -83 1115 -31Q1190 169 1190 198Q1190 261 1098 304Q1081 307 1054 315Q1049 317 1039 317H1035Q1013 317 1004 337H1115Q1122 337 1138.5 326.5Q1155 316 1162 316Q1170 316 1197.5 323.5Q1225 331 1237 331Q1250 331 1255 325ZM959 -154H863Q827 -108 823 -74Q824 -53 821 -16Q782 158 778 169Q733 282 628 307Q605 316 560 331H650Q657 332 686.5 324Q716 316 722 316Q731 316 750.5 324.5Q770 333 776 333Q797 333 815 258Q823 217 830 177Q859 67 890 -31Q906 -84 959 -154ZM281 114L229 -740L161 -59Q161 35 158 84Q155 133 155 122Q155 208 173 287Q177 304 201 338Q237 330 257 265Q281 188 281 114ZM998 -1137Q998 -1130 995 -1124Q992 -1118 992 -1113H933V-1138Q950 -1156 963 -1156H986Q998 -1144 998 -1137Z"/>
</svg>