<svg xmlns="http://www.w3.org/2000/svg" viewBox="0 -2048 2048 2048">
	<path fill="currentColor" d="M1103 375H100V311H194Q200 300 198 273Q399 257 432 131Q450 29 495 -174Q450 -182 396 -180Q400 -184 412 -208Q398 -210 372 -217Q371 -214 371 -207Q371 -197 374.5 -174Q378 -151 378 -135Q372 -135 349 -123Q337 -129 322.5 -167Q308 -205 308 -222Q308 -229 331 -294Q358 -368 360 -374Q373 -417 381 -492Q391 -581 397 -610Q413 -644 443 -709Q477 -789 494 -822Q528 -886 566 -922Q545 -931 505 -949Q534 -971 580 -1023Q582 -1039 588 -1070Q570 -1080 539 -1080Q539 -1084 536 -1093.5Q533 -1103 533 -1109Q533 -1116 547.5 -1131Q562 -1146 564 -1149Q571 -1161 573 -1203L580 -1214Q581 -1220 581 -1227Q581 -1251 571 -1280Q601 -1312 664 -1373Q609 -1454 609 -1482Q609 -1500 627.5 -1517Q646 -1534 664 -1534Q677 -1534 695.5 -1517Q714 -1500 714 -1488Q714 -1474 672 -1447L659 -1460Q668 -1470 687 -1489Q687 -1507 667 -1507Q637 -1507 637 -1482Q637 -1456 690 -1392Q720 -1407 775 -1442Q783 -1449 816 -1503Q842 -1545 865 -1545Q881 -1545 901.5 -1528Q922 -1511 922 -1496Q922 -1495 884 -1421V-1406H890Q892 -1409 926 -1474Q954 -1529 964 -1529Q960 -1529 988 -1522L818 -1028Q888 -1009 971 -832Q1049 -668 1049 -582Q1049 -575 1032 -501Q989 -313 989 -297Q989 -285 993.5 -262.5Q998 -240 998 -228Q998 -163 959 -118Q917 -120 917 -140Q917 -154 928 -186.5Q939 -219 939 -239Q925 -235 916 -212H884V-257Q884 -271 895.5 -288.5Q907 -306 909 -313Q939 -444 939 -571Q939 -620 868 -771Q846 -718 846 -675Q846 -645 862 -569.5Q878 -494 878 -464Q878 -439 864.5 -388.5Q851 -338 851 -313Q851 -249 880.5 -131.5Q910 -14 910 40Q910 57 907.5 90.5Q905 124 905 141Q905 173 919 224Q936 284 939 306Q943 310 965 310Q980 310 1103 306ZM895 -1496Q895 -1508 882.5 -1513.5Q870 -1519 859 -1523Q838 -1480 786 -1415Q741 -1390 697 -1365Q644 -1333 626 -1294H838Q864 -1323 864 -1372Q864 -1382 862.5 -1400.5Q861 -1419 861 -1429Q861 -1453 878 -1472Q895 -1491 895 -1496ZM919 -1391Q915 -1387 883 -1320Q857 -1265 837 -1265H605V-1200Q655 -1195 753 -1179Q753 -1157 772 -1125Q771 -1117 764.5 -1097.5Q758 -1078 758 -1066Q758 -1040 788 -1040Q799 -1043 802 -1053ZM840 -954Q816 -990 797 -996V-959ZM664 -959V-990H599Q599 -963 588 -943Q613 -948 664 -959ZM1021 -571Q1021 -619 989 -719Q957 -819 929 -858Q913 -887 877 -923Q840 -926 768 -935V-998L780 -1010Q735 -1036 735 -1087Q735 -1097 741 -1138Q722 -1139 716 -1158Q632 -1177 599 -1177Q592 -1144 566 -1102H572Q612 -1102 612 -1063Q612 -1057 611 -1045.5Q610 -1034 610 -1028Q610 -1022 611 -1019Q699 -1019 693 -1018Q691 -988 682 -930H671Q609 -930 583 -906Q546 -872 514 -803Q490 -745 465 -687Q446 -655 419 -588Q418 -582 393 -433Q378 -339 347 -284Q359 -288 371 -288Q386 -288 400 -283Q399 -290 399 -298Q399 -332 423 -396Q441 -444 459 -493Q462 -519 473 -570Q488 -613 534 -702Q589 -810 607 -810Q628 -810 616 -805L671 -596L829 -624Q822 -651 822 -679Q822 -751 860 -821H874Q966 -624 966 -576Q966 -576 949 -450Q944 -398 931 -297Q925 -287 913 -267Q922 -277 939 -277Q964 -277 964 -231Q964 -219 961 -199Q958 -176 957 -167Q971 -199 971 -233Q971 -243 967.5 -263Q964 -283 964 -293Q964 -341 979 -389Q1021 -524 1021 -571ZM857 -469Q857 -489 847 -531Q835 -583 833 -595Q777 -587 666 -566Q569 -414 445 -201H834Q834 -223 829.5 -268Q825 -313 825 -336Q825 -361 841 -409Q857 -457 857 -469ZM648 -590Q631 -644 602 -755Q565 -695 501 -572Q498 -544 487 -489Q484 -480 447 -394Q421 -333 421 -300Q421 -293 423 -276.5Q425 -260 424 -252Q424 -252 416 -216ZM911 297Q884 176 884 187Q884 33 884 33Q879 12 867 -37L834 -178H758V-127Q841 101 841 182Q841 208 801 242Q767 272 738 282Q710 286 659 304H753Q764 304 787 299Q810 294 821 294Q833 294 856.5 302Q880 310 892 310Q901 310 911 297ZM376 -260H366L360 -234H369ZM818 162Q818 108 776 -1Q733 -116 729 -178H644Q622 -143 594 -83Q584 -33 558 65Q500 231 500 231V309H631Q630 287 646 274Q674 272 728 259Q818 224 818 162ZM609 -178H523Q492 -116 476 25Q461 154 426 204Q372 285 225 296L316 305Q317 305 346 296.5Q375 288 384 288Q395 288 417 299Q439 310 450 310Q471 310 476 291Q472 273 472 257Q472 212 497 149Q519 97 541 45Q551 21 563 -27Q562 -48 567 -87Q582 -117 609 -178ZM1082 348V333H127V348ZM664 -1125Q664 -1113 657 -1106L604 -1124Q617 -1144 645 -1156Q664 -1146 664 -1125Z"/>
</svg>