<svg xmlns="http://www.w3.org/2000/svg" viewBox="0 -2048 2048 2048">
	<path fill="#000000" d="M1210 -544Q1210 -538 1198 -498Q1183 -449 1179 -432Q1147 -293 1147 -259Q1147 -251 1153 -236Q1159 -218 1160 -211Q1163 -189 1153 -144Q1140 -83 1107 -83Q1093 -83 1080 -96Q1088 -124 1097 -163V-203Q1090 -195 1073 -176H1043V-210Q1043 -225 1055.5 -253Q1068 -281 1068 -281Q1097 -502 1097 -517Q1097 -542 1028 -744Q1023 -740 1014 -697.5Q1005 -655 1005 -633Q1005 -585 1021 -525.5Q1037 -466 1037 -452Q1037 -445 1023.5 -369Q1010 -293 1010 -286Q1010 -222 1022 -157Q1040 -87 1067 54Q1064 123 1071 260Q1073 273 1087.5 305Q1102 337 1102 342Q1102 377 1048 377Q1041 377 1012.5 369Q984 361 977 361Q971 361 936 368Q901 375 888 376Q855 374 789 376V318Q838 307 888 296Q972 269 972 215Q972 209 937 78Q896 -74 882 -138H802Q775 -112 762 -80Q754 -36 732 50Q703 122 654 272Q657 298 656 342Q649 377 604 377Q597 377 566 371.5Q535 366 528 366Q523 366 472.5 371.5Q422 377 414 377Q391 377 355 365V318Q381 314 433 303Q538 278 575 202Q596 159 607 41.5Q618 -76 647 -134Q601 -142 550 -133L799 -555L741 -728Q703 -669 666 -611Q615 -536 570 -513Q517 -486 423 -451Q302 -408 268 -393V265Q291 287 291 326Q291 331 298.5 345.5Q306 360 306 365L293 377Q243 361 242 301Q232 307 221 344Q211 377 192 377Q174 377 160 351Q179 349 180 332Q181 315 182 299Q184 270 214 259L209 -372Q176 -422 176 -441Q176 -463 188 -504Q195 -507 212 -515V-1025H204Q176 -964 137 -853Q125 -853 119 -847Q100 -862 100 -877Q100 -888 113 -969Q127 -1061 139 -1100Q164 -1149 207 -1246Q215 -1272 222 -1298Q228 -1318 241 -1318Q265 -1318 284 -1223Q284 -1168 225 -1078Q262 -1053 262 -1024V-515Q262 -515 282 -495Q308 -510 351 -531Q393 -546 435 -560Q489 -581 512 -604Q560 -653 612 -745Q689 -880 701 -898Q679 -907 669 -926Q693 -950 716 -973Q739 -996 739 -1013V-1043Q726 -1046 696 -1054Q696 -1056 693.5 -1065.5Q691 -1075 692 -1078Q739 -1151 739 -1207Q739 -1234 728 -1256Q728 -1256 820 -1348Q818 -1352 788 -1403Q766 -1442 766 -1454Q766 -1475 789 -1493Q809 -1508 823 -1508Q842 -1508 856.5 -1485Q871 -1462 869 -1443Q854 -1435 822 -1421Q818 -1437 842 -1458Q847 -1481 820 -1481Q793 -1481 793 -1454Q793 -1447 841 -1367Q863 -1369 900 -1394Q937 -1419 954 -1442Q959 -1462 979 -1501Q997 -1524 1024 -1524Q1046 -1524 1066 -1506Q1086 -1488 1086 -1470Q1086 -1464 1064 -1435Q1042 -1406 1042 -1399Q1042 -1390 1051 -1372Q1062 -1394 1080 -1437Q1098 -1480 1109 -1502Q1125 -1502 1137.5 -1499Q1150 -1496 1150 -1496L977 -997Q1051 -952 1094 -878Q1127 -823 1143 -775Q1210 -581 1210 -544ZM1059 -1473Q1035 -1497 1018 -1497Q1010 -1497 1001 -1485Q993 -1461 985 -1437Q975 -1409 946 -1390Q905 -1366 864 -1342Q810 -1309 783 -1271H1004Q1004 -1279 1013 -1293Q1012 -1333 1017 -1413Q1019 -1427 1038 -1447.5Q1057 -1468 1059 -1473ZM1061 -1329Q1046 -1278 1029 -1260Q1008 -1237 963 -1237H767Q767 -1193 756 -1173Q780 -1170 832 -1165Q884 -1160 908 -1157Q905 -1126 927 -1109Q927 -1103 922 -1078.5Q917 -1054 917 -1041Q917 -1014 936 -1010H955ZM993 -924Q970 -959 957 -966Q957 -924 957 -924ZM826 -959Q815 -962 791 -965Q767 -968 756 -971Q756 -947 745 -918Q774 -921 820 -929Q820 -954 826 -959ZM257 -1232Q257 -1241 243 -1269Q232 -1239 204 -1178Q176 -1117 165 -1087Q180 -1081 180 -1064Q179 -1055 178 -1045Q257 -1179 257 -1232ZM1183 -527Q1183 -539 1159 -629Q1132 -728 1111 -786Q1077 -880 1035 -894Q998 -897 928 -906Q928 -949 931 -970.5Q934 -992 934 -987Q891 -998 891 -1047Q891 -1070 901 -1100Q888 -1099 882.5 -1110Q877 -1121 880 -1133Q808 -1145 777 -1145Q756 -1145 752 -1134Q741 -1104 718 -1076Q734 -1073 766 -1060Q760 -1028 761 -994Q792 -991 848 -978V-937Q848 -921 838 -901Q829 -902 796 -897Q768 -894 724 -877Q684 -842 648 -779Q624 -734 600 -689Q582 -647 540 -588Q503 -576 437 -547Q350 -498 279 -467Q279 -462 282 -448.5Q285 -435 285 -430Q394 -471 504 -513Q642 -576 692 -697Q698 -712 738 -777H751L827 -560Q883 -572 988 -588Q981 -617 981 -648Q981 -736 1034 -793Q1124 -592 1124 -519Q1124 -352 1075 -236L1104 -240Q1124 -232 1124 -197Q1124 -158 1114 -122Q1143 -156 1125 -244Q1118 -277 1136 -340Q1183 -504 1183 -527ZM1015 -446Q1015 -461 987 -560H959Q966 -560 827 -536Q748 -411 593 -166H993Q993 -181 989 -255Q986 -309 990 -340Q992 -360 1004 -403Q1015 -442 1015 -446ZM174 -1042Q171 -1037 151 -1028Q148 -1001 140 -955Q145 -969 157 -998.5Q169 -1028 174 -1042ZM1074 349Q1042 237 1042 240V54L998 -137H913V-86Q938 -15 964 56Q999 161 999 215Q999 313 815 339Q837 350 861 350Q868 350 919 342Q970 334 977 334Q984 334 1014.5 344.5Q1045 355 1051 355Q1059 355 1065.5 352Q1072 349 1074 349ZM257 -441Q257 -449 254 -454.5Q251 -460 251 -462H215Q209 -456 198 -444Q213 -414 225 -414Q257 -414 257 -441ZM766 -137H675Q647 -85 632.5 44.5Q618 174 580 238Q550 289 477 316Q432 333 387 349H454Q461 350 495.5 342Q530 334 536 334Q519 334 613 349Q649 207 730 -69Q743 -92 766 -137ZM826 -1087Q797 -1077 761 -1086V-1111Q773 -1123 780 -1123H814Q814 -1111 826 -1087Z"/>
</svg>