<svg xmlns="http://www.w3.org/2000/svg" viewBox="24.4 -1632.6 1368.3 2042.3">
	<path fill="currentColor" d="M1317 -663Q1317 -598 1223 -598Q1243 -598 1051 -614Q1048 -611 1048 -603Q1048 -598 1067 -551Q1091 -493 1099 -467Q1102 -458 1102 -439Q1102 -434 1091 -373Q1078 -307 1075 -277L1155 283Q1148 334 1102 334Q1095 334 1080 326Q1065 318 1058 318Q1053 318 1044 326Q1035 334 1028 334H865Q872 302 871 276Q906 274 962 255Q1042 229 1042 191Q1042 134 942 -194H884Q860 -154 836 -74Q817 -11 798 52Q772 108 726 225Q732 247 733 289Q722 334 681 334Q661 334 640 313Q598 334 576 334H446Q433 322 433 307Q433 303 441 283Q501 270 602 226Q661 182 704 -19Q717 -88 747 -219Q762 -275 809 -430Q848 -559 848 -566Q848 -627 802 -776Q752 -724 702 -672Q605 -576 579 -576Q536 -576 333 -744H319L142 333H100L272 -743Q270 -747 252 -775Q239 -795 239 -803Q239 -827 259 -839Q253 -857 262 -883Q264 -883 273.5 -880Q283 -877 289 -877L343 -1147H379L331 -860L571 -700L789 -918Q778 -923 754 -934Q730 -945 719 -950Q744 -976 769 -1001Q795 -1030 795 -1074Q779 -1079 746 -1089V-1112Q746 -1115 767 -1158Q788 -1201 792 -1221Q797 -1244 792 -1263Q784 -1296 784 -1291Q784 -1291 875 -1382Q871 -1391 843 -1441Q821 -1480 821 -1487Q821 -1541 883 -1541Q899 -1541 913 -1518Q924 -1500 924 -1490Q924 -1461 876 -1455V-1481Q887 -1481 897 -1491Q902 -1514 875 -1514Q848 -1514 848 -1490Q848 -1472 895 -1401Q983 -1431 1008 -1464Q1018 -1488 1028 -1513Q1049 -1557 1072 -1557Q1092 -1557 1114 -1536Q1139 -1512 1137 -1481Q1142 -1488 1152 -1518Q1158 -1535 1174 -1535Q1182 -1535 1189 -1532Q1196 -1529 1198 -1529L1031 -1038Q1053 -1016 1098 -980Q1120 -1020 1168 -1104Q1232 -1088 1234 -1088Q1279 -1088 1279 -1134Q1279 -1151 1259 -1164Q1243 -1174 1236 -1174Q1229 -1174 1206 -1157Q1178 -1135 1169 -1131L1135 -1138V-1158Q1143 -1156 1149 -1156Q1168 -1156 1192 -1181.5Q1216 -1207 1234 -1207Q1261 -1207 1282 -1179Q1301 -1155 1301 -1131Q1301 -1067 1234 -1067Q1229 -1067 1213 -1069.5Q1197 -1072 1190 -1072Q1175 -1072 1145 -1019Q1118 -970 1118 -959Q1118 -956 1148 -904Q1163 -878 1189 -839Q1224 -799 1258 -759Q1317 -689 1317 -663ZM1107 -1495Q1107 -1512 1071 -1530Q1048 -1487 1000 -1423Q994 -1418 912 -1367Q856 -1333 838 -1299H1051Q1073 -1322 1073 -1359Q1073 -1369 1071 -1389Q1069 -1409 1069 -1417Q1069 -1424 1070 -1430Q1073 -1442 1090 -1466Q1107 -1490 1107 -1495ZM1116 -1368Q1101 -1328 1096 -1318Q1075 -1276 1055 -1276H817V-1202Q866 -1202 960 -1186Q962 -1182 962 -1176Q962 -1170 960 -1167Q980 -1153 980 -1132Q980 -1123 975.5 -1104.5Q971 -1086 971 -1077Q971 -1058 985 -1045H1009ZM1087 -949L1075 -976L1067 -972L1079 -949ZM1052 -944Q1046 -963 1016 -991V-949ZM1290 -665Q1290 -692 1200 -789Q1120 -876 1087 -900L994 -718Q995 -718 1005.5 -715Q1016 -712 1025 -712Q1035 -749 1062 -824H1082Q1220 -670 1220 -671Q1220 -658 1216 -662H1159Q1152 -662 1072.5 -678.5Q993 -695 986 -695Q980 -695 959 -683.5Q938 -672 931 -671Q918 -663 918 -648L931 -636Q1001 -646 1013 -646Q1020 -646 1108.5 -635.5Q1197 -625 1204 -625Q1290 -625 1290 -665ZM1171 -691Q1122 -731 1077 -786Q1067 -755 1048 -707Q1067 -704 1109.5 -699Q1152 -694 1171 -691ZM875 -954V-996Q873 -996 853.5 -998.5Q834 -1001 812 -1001Q807 -972 795 -922Q829 -942 875 -954ZM1021 -611L974 -619Q956 -613 936 -588Q966 -600 1021 -611ZM1058 -914Q986 -917 986 -975Q986 -993 993 -1017Q940 -1028 940 -1075Q940 -1081 947.5 -1103Q955 -1125 954 -1133Q934 -1147 934 -1168Q915 -1168 873 -1174Q831 -1180 827 -1180Q808 -1180 776 -1106Q802 -1106 822 -1096Q822 -1084 819.5 -1061.5Q817 -1039 817 -1030Q830 -1027 860 -1022Q890 -1017 903 -1014Q897 -952 898 -931Q830 -932 730 -830Q571 -668 571 -668L359 -797Q359 -778 347 -768Q403 -722 458 -675Q549 -603 582 -603Q597 -603 698 -703Q753 -758 808 -813Q815 -809 825 -799Q844 -691 871 -577H895Q913 -596 913 -606Q913 -613 902 -632Q891 -651 891 -657Q891 -679 917 -726Q937 -727 969 -733Q1003 -793 1058 -914ZM1075 -447Q1075 -481 1055 -524Q1032 -576 1031 -581H1008Q999 -581 959 -570Q916 -557 910 -549Q905 -554 871 -554Q865 -490 828 -385Q775 -230 773 -222H1058V-240Q1051 -267 1051 -294Q1051 -322 1063 -370.5Q1075 -419 1075 -447ZM331 -788Q318 -824 293 -824Q276 -824 266 -800Q276 -780 296 -770Q308 -777 331 -788ZM1128 283Q1128 277 1121 253.5Q1114 230 1114 224Q1115 159 1062 -176Q1059 -182 1051 -193H973V-154Q973 -148 1000 -82Q1031 -6 1040 25Q1064 107 1064 178Q1064 219 1062 222Q1043 254 993 269Q948 281 904 293Q899 296 892 312H1012Q1019 312 1039.5 301.5Q1060 291 1067 291Q1074 291 1084.5 299Q1095 307 1102 307Q1128 307 1128 283ZM853 -193H769Q751 -141 735.5 -41Q720 59 704 107Q676 187 617 248Q605 261 574 268Q553 272 532 277Q507 285 460 299L576 307Q660 286 646 286Q653 286 668 298.5Q683 311 690 313Q708 301 708 282Q708 275 705 259.5Q702 244 702 235Q702 207 728 159Q762 95 765 85Q793 -8 853 -193ZM874 -1116L817 -1121V-1141Q843 -1154 868 -1158Q874 -1146 874 -1116Z"/>
</svg>