<svg xmlns="http://www.w3.org/2000/svg" viewBox="0 -2048 2048 2048">
	<path fill="#000000" d="M1105 273Q1105 297 1082 312Q1064 324 1046 324Q1040 324 1026 318.5Q1012 313 1005 313Q998 313 951.5 321Q905 329 898 329Q895 329 863 326Q831 323 816 323Q808 310 821 276Q901 263 931 253Q994 232 997 192L885 -262H759Q704 -177 646 -30Q599 92 552 215Q556 206 556 274Q556 324 519 324Q513 324 502.5 318.5Q492 313 487 313Q480 313 477 321Q474 329 467 329H251V311Q251 308 259.5 294Q268 280 274 277.5Q280 275 367 259Q429 248 442 218Q480 128 558 -190Q600 -316 641 -442Q723 -700 723 -762Q723 -869 676 -1015Q538 -993 471 -993Q411 -993 366 -1015.5Q321 -1038 300 -1075Q259 -1148 232 -1209Q198 -1270 164 -1331Q100 -1450 100 -1475V-1503Q103 -1503 112.5 -1505.5Q122 -1508 125 -1508Q143 -1476 183 -1412Q188 -1420 205 -1426Q218 -1430 218 -1436Q218 -1443 204.5 -1480.5Q191 -1518 191 -1525Q191 -1534 227 -1552Q256 -1483 291 -1428Q296 -1436 294 -1465H318Q332 -1454 334 -1427Q336 -1397 342 -1390Q370 -1359 415 -1298Q442 -1242 496 -1132L715 -1165Q729 -1167 729 -1200Q729 -1230 706 -1235Q645 -1246 643 -1247Q642 -1270 654 -1317Q640 -1323 616 -1339Q683 -1470 712 -1503Q760 -1557 841 -1557Q905 -1557 948 -1508Q987 -1463 987 -1407Q987 -1419 918 -1210Q916 -1204 916 -1179Q967 -1164 1018 -1150Q1078 -1128 1078 -1071Q1078 -1065 1052 -971Q1022 -866 1013 -818L1056 -571Q1024 -427 1024 -429Q1024 -425 1030 -381Q1037 -334 1038 -313L1047 -130Q1054 -103 1065 -50Q1105 296 1105 273ZM960 -1412Q960 -1450 929 -1490Q894 -1536 844 -1536Q804 -1536 766 -1512Q725 -1487 713 -1451L829 -1401Q851 -1423 866 -1423Q901 -1423 901 -1401Q901 -1394 887.5 -1363.5Q874 -1333 874 -1326Q874 -1300 915 -1294Q960 -1399 960 -1412ZM1056 -1079Q1056 -1117 984 -1137Q944 -1143 905 -1150Q889 -1169 889 -1198Q889 -1227 906 -1265Q847 -1295 847 -1321Q847 -1328 860 -1348.5Q873 -1369 873 -1376V-1395Q848 -1386 838 -1369Q789 -1390 698 -1433L643 -1349Q681 -1349 681 -1321Q681 -1311 675 -1289.5Q669 -1268 670 -1262L751 -1246V-1152Q741 -1142 720 -1139Q466 -1100 441 -1100Q419 -1100 316 -1226Q236 -1324 211 -1361Q189 -1364 165 -1382Q214 -1316 263 -1204Q308 -1102 337 -1072Q385 -1020 479 -1020Q486 -1020 554.5 -1028Q623 -1036 630 -1036H708L751 -730L991 -779Q990 -829 1004 -882Q1056 -1077 1056 -1079ZM465 -1128Q419 -1250 377 -1309Q356 -1331 321 -1373Q317 -1379 320 -1400Q318 -1400 311 -1398Q304 -1396 296 -1396Q278 -1396 265 -1417Q242 -1454 241 -1455Q247 -1433 263 -1397Q279 -1381 302 -1354Q306 -1347 360 -1238Q395 -1167 435 -1128ZM313 -1273Q303 -1297 280 -1341Q263 -1358 241 -1385Q244 -1363 271 -1327Q292 -1300 313 -1273ZM166 -1386L159 -1402L152 -1399L158 -1386ZM1035 -582L996 -756Q909 -737 742 -700Q694 -551 622 -284H1013Q998 -448 999 -458Q1015 -503 1035 -582ZM1078 267Q1078 262 1070.5 227.5Q1063 193 1063 181Q1064 119 1039.5 -17.5Q1015 -154 1015 -212Q1015 -239 1018 -261Q974 -254 917 -256Q922 -228 979 -27Q1024 133 1024 195Q1024 243 957 269Q914 285 871 300Q965 300 985 295Q989 294 997.5 287.5Q1006 281 1013 281Q1020 281 1033.5 289Q1047 297 1054 297Q1078 297 1078 267ZM723 -261Q679 -253 606 -256Q577 -147 517 68Q472 224 450 248Q422 279 370 286Q332 290 293 294H381Q483 294 463 296Q468 295 475.5 288Q483 281 489 281Q495 281 502.5 289Q510 297 516 297Q528 297 529 290Q529 282 525 249Q522 225 526 215Q588 43 723 -261ZM755 -1348H732Q724 -1348 712 -1358.5Q700 -1369 697 -1370Q697 -1373 700 -1382.5Q703 -1392 703 -1395H738Q749 -1384 755 -1372Z"/>
</svg>