<svg xmlns="http://www.w3.org/2000/svg" viewBox="0 -2048 2048 2048">
	<path fill="currentColor" d="M1529 -982Q1529 -966 1501 -932Q1503 -906 1513 -868Q1504 -870 1474 -863Q1462 -899 1462 -915Q1466 -919 1454 -919Q1436 -919 1334.5 -799.5Q1233 -680 1194 -680Q1157 -680 1080 -753Q1025 -807 971 -862Q916 -741 916 -693Q916 -687 944.5 -606Q973 -525 973 -519Q973 -513 956 -464Q937 -408 933 -391Q932 -386 932 -324Q932 -251 938 -216Q965 -135 1008 39Q1013 68 1013 93Q1013 113 1008.5 141.5Q1004 170 1004 183Q1004 194 1006 205Q1007 210 1016 234Q1025 258 1025 265Q1025 287 1003 301Q986 312 971 312Q965 312 950 297Q945 302 935 312H719V289Q719 283 722 272Q725 261 725 257Q725 257 741 247Q854 228 872 218Q911 197 911 125Q911 79 865 -42Q813 -182 805 -220Q804 -224 799 -234H696Q680 -207 663 -158Q661 -78 625 12Q587 106 548 201Q546 206 546 215Q546 223 548.5 242Q551 261 551 270Q551 312 506 312Q501 312 487.5 304.5Q474 297 467 297Q461 297 459.5 304.5Q458 312 451 312H241Q241 295 243.5 277Q246 259 246 256Q298 246 350 236Q412 223 450 192Q472 174 486 117Q504 57 525 -60Q530 -183 588 -357Q679 -632 682 -644L638 -878Q478 -691 417 -691Q364 -691 234 -837Q192 -878 100 -969Q123 -992 126 -992Q132 -992 143.5 -986Q155 -980 163 -980Q145 -1009 106 -1084Q123 -1101 129 -1101Q137 -1101 168.5 -1071.5Q200 -1042 218 -1017Q220 -993 236 -955Q291 -911 404 -815Q457 -873 569 -989Q603 -1023 669 -1025Q672 -1025 688 -1027Q701 -1028 710 -1028L714 -1032V-1057Q699 -1061 668 -1072Q646 -1081 644 -1129Q629 -1137 599 -1160Q671 -1317 678 -1329Q724 -1397 807 -1397Q968 -1397 968 -1231Q968 -1139 879 -1066V-1033Q908 -1033 961 -1026Q1009 -1012 1078 -941Q1134 -881 1189 -821Q1259 -867 1348 -946Q1376 -978 1436 -1041Q1378 -1083 1362 -1104Q1337 -1137 1337 -1192Q1337 -1317 1401 -1506H1430L1486 -1049Q1491 -1054 1502 -1054Q1505 -1051 1512 -1043Q1516 -1034 1503 -1021Q1529 -995 1529 -982ZM1455 -1055L1407 -1439Q1358 -1161 1358 -1171Q1358 -1129 1455 -1055ZM1503 -985Q1480 -1008 1472 -1008Q1452 -1008 1436 -974Q1452 -954 1470 -951Q1493 -951 1503 -985ZM942 -1229Q942 -1377 810 -1377Q721 -1377 672 -1269Q794 -1242 810 -1242Q820 -1242 833 -1254.5Q846 -1267 851 -1267Q859 -1267 875 -1256Q895 -1242 895 -1226Q895 -1220 884 -1189Q872 -1155 870 -1143H888Q914 -1141 930 -1174Q942 -1199 942 -1229ZM1431 -943Q1413 -961 1413 -976L1194 -784Q1191 -786 1083 -905Q1007 -988 961 -1000Q926 -1000 858 -1007Q858 -1021 856 -1044.5Q854 -1068 854 -1077Q882 -1095 900 -1126Q898 -1126 890 -1121.5Q882 -1117 875 -1117Q843 -1117 843 -1140Q843 -1146 856 -1181.5Q869 -1217 869 -1223Q869 -1235 863 -1236Q854 -1236 830 -1210Q670 -1242 677 -1242Q662 -1242 652 -1223Q634 -1183 625 -1171Q645 -1161 670 -1134Q674 -1118 683 -1093Q702 -1089 735 -1081Q735 -1047 745 -1006Q739 -1004 676 -1002Q630 -999 600 -979Q560 -951 484 -863Q417 -784 410 -784Q399 -784 328 -840Q253 -898 215 -939Q207 -948 197 -985Q189 -1015 168 -1025Q194 -995 194 -974Q194 -965 191.5 -961Q189 -957 168 -938Q243 -873 286 -816Q303 -793 349 -757Q399 -717 417 -717Q444 -717 546 -818Q594 -868 643 -919Q650 -915 660 -905Q692 -754 704 -650L895 -676Q895 -732 920 -805.5Q945 -879 971 -904Q1161 -701 1192 -701Q1221 -701 1327 -832Q1362 -875 1431 -943ZM947 -519Q947 -546 904 -648Q901 -653 893 -654Q813 -639 709 -626Q583 -301 584 -272V-258H911V-299Q907 -331 907 -386Q911 -406 930 -463Q947 -513 947 -519ZM999 274V252Q999 246 991.5 231Q984 216 984 211Q988 151 977 13Q954 -71 910 -233H829Q831 -199 884 -65.5Q937 68 937 135Q937 216 902 233Q853 257 814 264Q785 268 745 285H929Q936 285 941.5 278Q947 271 953 271Q962 271 968 278.5Q974 286 979 286Q987 286 999 274ZM661 -232Q617 -227 569 -228Q559 -138 548 -47Q536 54 506.5 127.5Q477 201 455 212Q383 235 267 273L441 281Q439 281 476 265Q487 286 506 286Q529 286 529 267Q529 261 525 244Q521 227 521 220Q521 215 522 212Q563 109 628 -79Q632 -92 638 -158Q643 -207 661 -232ZM729 -1180Q713 -1174 667 -1185Q667 -1187 664.5 -1191.5Q662 -1196 662 -1203Q662 -1226 693 -1226Q715 -1226 729 -1203Z"/>
</svg>