<svg xmlns="http://www.w3.org/2000/svg" viewBox="24 -1611 1192.1 2053.1">
	<path fill="currentColor" d="M1140 314Q1140 336 1117 352Q1098 366 1080 366Q1073 366 1047.5 357.5Q1022 349 1015 349Q1009 349 983.5 357.5Q958 366 952 366H831Q827 359 827 347Q827 335 831 328Q872 326 946 315Q960 311 993 276Q1026 241 1026 224Q1026 220 1018.5 190.5Q1011 161 1011 145Q1011 90 951 -50Q935 -107 902 -218H796Q730 47 646 255Q648 251 648 317Q648 366 619 366H309L302 359V345Q310 332 361 319Q445 298 456 294Q537 266 586 90Q604 -11 646 -215Q667 -304 727 -501Q781 -679 781 -683Q781 -752 760 -834Q732 -947 683 -947Q677 -947 545 -899Q475 -874 406 -865Q372 -926 331 -1052Q291 -1172 262 -1220Q215 -1233 124 -1285Q114 -1294 100 -1365Q106 -1368 113 -1372Q131 -1356 164 -1329Q209 -1295 255 -1295Q253 -1295 280 -1305Q274 -1319 253 -1341V-1365Q255 -1365 262 -1368.5Q269 -1372 277 -1372Q312 -1372 322 -1325Q326 -1296 330 -1266Q348 -1223 458 -1017Q694 -1113 804 -1115Q808 -1111 808 -1124Q808 -1129 802 -1149.5Q796 -1170 795 -1182Q766 -1198 733 -1198Q730 -1238 726 -1254Q716 -1295 688 -1319Q728 -1389 769 -1458Q821 -1535 887 -1535Q965 -1535 1014 -1494Q1064 -1450 1064 -1377Q1064 -1333 1038 -1284Q1014 -1239 989 -1193Q988 -1191 988 -1154Q988 -1114 988 -1114Q1043 -1036 1045 -988Q1046 -969 1040 -911Q1033 -848 1033 -817Q1033 -786 1038 -765Q1041 -753 1074 -673Q1102 -606 1102 -568Q1102 -561 1080 -468.5Q1058 -376 1058 -369Q1058 -249 1071 -166Q1081 -133 1100 -68Q1108 -37 1113 14Q1124 124 1124 101V244Q1124 250 1132 278.5Q1140 307 1140 314ZM1042 -1385Q1042 -1441 988 -1479Q941 -1513 887 -1513Q801 -1513 770 -1406Q789 -1400 842 -1376Q888 -1355 895 -1355Q902 -1355 917.5 -1366Q933 -1377 939 -1377Q950 -1377 982 -1357Q982 -1328 980 -1320Q964 -1254 977 -1235Q1022 -1305 1024 -1308Q1042 -1344 1042 -1385ZM1020 -730V-999Q1021 -1030 991 -1076Q979 -1086 967 -1102Q969 -1137 964 -1206Q962 -1214 950.5 -1230Q939 -1246 939 -1254Q939 -1266 946.5 -1298.5Q954 -1331 954 -1343Q951 -1343 944.5 -1346.5Q938 -1350 935 -1350Q908 -1323 903 -1323Q895 -1323 843 -1346Q778 -1376 761 -1382Q721 -1322 721 -1325Q721 -1319 735 -1280Q751 -1237 754 -1220Q777 -1217 817 -1204Q835 -1128 835 -1110Q835 -1098 831 -1094Q706 -1088 452 -985Q356 -1118 300 -1279Q261 -1268 255 -1268Q237 -1268 139 -1310Q162 -1284 206 -1270Q241 -1260 275 -1250Q291 -1200 319 -1112Q350 -1018 417 -893H434Q467 -893 565 -933.5Q663 -974 680 -974Q692 -974 722 -957Q756 -938 762 -921Q785 -853 804 -686ZM1075 -560Q1075 -599 1030 -707Q952 -690 805 -655Q759 -512 678 -245H1041Q1041 -259 1037 -331Q1034 -384 1038 -411Q1042 -438 1059 -499Q1075 -555 1075 -560ZM1113 300Q1113 137 1089 14Q1070 -63 1041 -216H934V-199Q933 -170 962 -88Q985 -40 1018 48Q1053 180 1053 232Q1053 258 991 326Q1000 326 1090 344Q1113 298 1113 300ZM764 -216H673Q673 -194 664 -160Q646 -63 629 34Q605 164 561 232Q501 326 389 342Q487 328 514 328Q525 328 556.5 335.5Q588 343 602 343Q616 343 623 336Q616 315 616 291Q616 245 651 170Q695 74 702 48Q723 -45 764 -216ZM834 -1301Q825 -1300 760 -1312Q753 -1312 753 -1325Q753 -1336 766.5 -1348.5Q780 -1361 792 -1361Q803 -1361 820 -1336.5Q837 -1312 834 -1301Z"/>
</svg>