<svg xmlns="http://www.w3.org/2000/svg" viewBox="0 -2048 2048 2048">
	<path fill="#000000" d="M1064 313Q1064 337 1005 356Q998 356 984 353Q970 350 964 350H743Q746 336 750 319.5Q754 303 766 299Q802 295 873 275Q936 245 936 147Q936 57 893 -52Q856 -140 819 -229Q747 -230 706 -218Q607 78 572 247Q566 274 578 321Q579 356 536 356Q530 356 519.5 353Q509 350 504 350Q266 350 253 355Q245 356 240 356Q233 301 224 193Q220 147 213 59Q209 13 203 -75Q200 -127 178 -413Q177 -421 149 -440Q142 -482 142 -467Q142 -487 164 -520Q158 -524 152 -528Q142 -534 142 -542Q142 -557 153 -562Q169 -569 169 -569Q165 -576 146 -604Q132 -625 132 -633Q132 -640 142.5 -675.5Q153 -711 153 -718L100 -1326H147L197 -709Q218 -694 247 -694Q260 -694 364 -752Q476 -814 495 -843Q535 -926 574 -1010Q641 -1132 732 -1138Q727 -1146 727 -1178Q708 -1182 674 -1194Q651 -1206 657 -1253Q641 -1263 620 -1263Q620 -1265 617 -1273Q614 -1281 614 -1289Q614 -1293 635 -1335Q660 -1382 666 -1400Q708 -1520 818 -1520Q890 -1520 939.5 -1471Q989 -1422 989 -1354Q989 -1312 971 -1285Q882 -1151 882 -1153Q882 -1162 888 -1138Q963 -1109 984 -1061Q995 -1038 995 -976Q995 -969 978.5 -862Q962 -755 962 -748Q962 -699 989 -643.5Q1016 -588 1016 -558Q1016 -553 998 -503Q978 -450 974 -428Q973 -423 973 -324Q973 -227 974 -220Q999 -142 1041 32Q1043 44 1043 236Q1043 247 1053.5 277Q1064 307 1064 313ZM968 -1351Q968 -1410 920.5 -1454Q873 -1498 812 -1498Q774 -1498 738 -1463Q707 -1432 695 -1392Q827 -1359 820 -1359Q827 -1359 844.5 -1369.5Q862 -1380 869 -1380Q909 -1380 909 -1340Q909 -1332 896.5 -1296Q884 -1260 883 -1252H912Q921 -1260 943 -1293Q968 -1333 968 -1351ZM973 -997Q979 -1039 951.5 -1075.5Q924 -1112 892 -1112Q883 -1112 875 -1108Q861 -1129 861 -1150Q861 -1177 898 -1223Q855 -1223 855 -1257Q855 -1264 868.5 -1290Q882 -1316 882 -1323V-1353H857Q835 -1332 834 -1332L680 -1369Q658 -1315 641 -1286Q671 -1277 682 -1269Q684 -1249 696 -1211Q721 -1209 748 -1199Q748 -1171 759 -1116Q757 -1114 729 -1108Q640 -1089 584 -981Q550 -907 516 -833Q499 -809 383 -737Q271 -668 255 -668Q249 -668 238.5 -669.5Q228 -671 223 -671Q248 -663 248 -625Q330 -658 371 -671Q501 -713 538 -745Q580 -781 615 -880Q650 -976 681 -1000L690 -991V-925Q725 -972 794 -1053Q807 -1040 807 -1036Q755 -968 653 -827Q629 -788 604 -749Q571 -698 540 -679Q484 -645 353 -579Q273 -539 266 -539Q260 -539 244 -544Q228 -549 223 -549Q224 -544 224 -540Q224 -529 196.5 -517.5Q169 -506 169 -475Q169 -448 193 -448Q203 -448 250 -477Q303 -510 318 -516Q409 -549 500 -583Q618 -633 676 -701Q737 -794 858 -946L871 -933Q726 -747 727 -728V-700L940 -754ZM989 -542Q989 -545 940 -726H922Q895 -719 723 -670Q682 -555 607 -328Q601 -303 588 -256H951V-339Q946 -370 948 -428Q952 -446 971 -493Q989 -536 989 -542ZM549 -720Q472 -693 326 -639Q288 -617 212 -579Q251 -566 261 -566ZM1037 306Q1017 268 1017 246Q1017 221 1021 174.5Q1025 128 1025 112Q1025 44 999 -54Q975 -140 951 -227H856Q860 -196 873 -149Q962 17 962 169Q962 247 916 281Q877 309 775 322L938 329Q943 329 954.5 321Q966 313 973 313Q980 313 988 321Q996 329 1003 329Q1015 329 1037 306ZM217 -639Q183 -662 170 -662Q159 -640 159 -632Q177 -614 191 -614Q204 -614 217 -639ZM698 -689Q629 -621 543 -579Q459 -545 374 -510Q366 -507 228 -430L282 292H310Q329 292 384 270Q435 249 442 241Q473 207 478 183Q489 134 516 -54Q537 -202 572 -316Q619 -435 698 -689ZM683 -227H577Q563 -160 558 -140Q540 -7 522 126Q484 294 343 310Q316 313 298 322L472 329Q477 329 488.5 321Q500 313 507 313Q514 313 519.5 321Q525 329 531 329Q539 329 543 326Q547 323 549 323Q544 301 544 276Q544 220 573 134Q595 70 617 6Q622 -12 647 -144Q661 -174 683 -227ZM769 -1308Q758 -1297 758 -1290Q755 -1291 695 -1306V-1331Q719 -1343 727 -1343Q746 -1343 769 -1308Z"/>
</svg>