<svg xmlns="http://www.w3.org/2000/svg" viewBox="0 -2048 2048 2048">
	<path fill="currentColor" d="M1357 252Q1357 280 1306 293Q1290 293 1282 278Q1282 288 1270 288H1045Q1050 263 1050 238Q1105 231 1160 223Q1234 206 1234 149Q1234 113 1195 -14Q1174 -79 1153 -145Q1144 -184 1118 -272H1017Q984 -222 932 -124Q886 -15 804 209Q802 215 808 233Q815 254 815 260Q805 293 762 293Q747 293 738 277Q736 277 719 293H532V238Q579 234 626 230Q679 221 709 181Q721 165 753 59Q775 -21 820 -182Q844 -266 914 -496Q972 -685 972 -692Q972 -723 943 -813Q920 -886 908 -913Q824 -714 792 -685Q760 -656 621 -656Q615 -656 565 -658.5Q515 -661 508 -661Q522 -661 408 -626Q375 -441 372 -352V-41H572L458 293H214L100 -40H316Q316 -81 319 -166Q335 -309 360 -643Q356 -648 348 -658Q346 -683 358 -731Q358 -732 355 -742Q352 -752 352 -758Q372 -756 381 -780Q387 -801 393 -822Q356 -842 348 -863Q347 -866 353 -900Q352 -904 341 -915Q347 -924 358 -941Q371 -942 399 -944Q406 -964 411 -993Q431 -1117 475 -1415H520L449 -941Q458 -908 493 -899Q559 -891 692 -856Q722 -930 789 -1055Q814 -1090 906 -1122Q908 -1160 878 -1167Q826 -1181 819 -1186Q819 -1190 821 -1213Q823 -1233 822 -1243Q820 -1245 788 -1256Q767 -1263 767 -1282Q767 -1287 780 -1309.5Q793 -1332 796 -1342Q825 -1432 867 -1468Q906 -1503 975 -1503Q1045 -1503 1089 -1466Q1137 -1425 1137 -1354Q1137 -1326 1098.5 -1248.5Q1060 -1171 1064 -1147Q1099 -1140 1166 -1116Q1204 -1096 1217 -1013Q1224 -969 1220 -915Q1216 -861 1220 -839Q1229 -788 1261 -681Q1291 -582 1291 -579Q1291 -573 1275.5 -467.5Q1260 -362 1260 -356Q1260 -298 1274 -223Q1301 -76 1304 -54Q1311 22 1323 136Q1325 150 1341 198Q1357 246 1357 252ZM1111 -1362Q1111 -1415 1066 -1451Q1026 -1483 975 -1483Q927 -1483 889 -1461Q844 -1435 839 -1391Q860 -1388 916 -1379Q965 -1370 970 -1370Q976 -1370 997 -1382.5Q1018 -1395 1024 -1395Q1054 -1395 1054 -1347Q1054 -1341 1044 -1317Q1034 -1293 1034 -1287Q1034 -1267 1068 -1247Q1111 -1336 1111 -1362ZM1213 -750Q1204 -786 1194 -844Q1195 -900 1194 -1003Q1193 -1030 1177 -1063Q1157 -1102 1134 -1106Q1085 -1114 1058 -1114Q1034 -1165 1034 -1177Q1034 -1184 1045 -1198Q1058 -1217 1059 -1219Q1013 -1244 1013 -1282Q1013 -1301 1020 -1320.5Q1027 -1340 1027 -1348Q1027 -1357 1022 -1369Q985 -1344 977 -1344Q973 -1344 924 -1352Q869 -1361 830 -1364Q819 -1334 793 -1279Q829 -1270 850 -1263Q850 -1255 848 -1234.5Q846 -1214 846 -1202Q867 -1181 922 -1180Q925 -1153 932 -1106Q902 -1100 850 -1080Q811 -1055 769 -972Q739 -906 709 -840Q703 -831 698 -831Q606 -864 488 -873Q476 -881 455 -892Q462 -879 460 -852Q546 -829 714 -790L796 -995Q799 -992 804.5 -991Q810 -990 813 -987Q794 -929 763 -850Q753 -816 744 -782Q725 -723 708 -723Q702 -723 615.5 -720.5Q529 -718 523 -718Q515 -718 440 -733Q440 -718 426 -718Q419 -718 412 -720.5Q405 -723 400 -723Q367 -723 367 -682Q367 -675 370 -672Q373 -669 373 -667Q382 -667 400 -664Q418 -661 423 -661Q430 -661 454 -671.5Q478 -682 483 -682H718Q766 -682 804 -745Q804 -745 850 -842Q857 -857 901 -965Q905 -970 912 -970Q936 -918 960 -833Q977 -773 994 -713ZM1270 -584Q1270 -625 1217 -728L994 -686L886 -298H1239Q1232 -327 1232 -358Q1232 -398 1251 -473.5Q1270 -549 1270 -584ZM704 -739V-768Q659 -776 557 -803Q467 -826 462 -826Q447 -826 429 -809V-760Q475 -738 498 -738Q522 -738 611 -745Q692 -751 704 -739ZM433 -856V-876Q411 -897 395 -897Q379 -897 367 -869Q402 -846 410 -846Q417 -846 424 -851Q431 -856 433 -856ZM1332 242Q1332 238 1318.5 191Q1305 144 1302 126L1243 -271H1147V-254Q1147 -247 1174 -168Q1208 -69 1217 -37Q1260 109 1260 162Q1260 213 1191 238Q1144 250 1096 261H1267Q1273 262 1276 257Q1279 252 1285 252Q1291 252 1308 267Q1332 255 1332 242ZM988 -270H876Q841 -152 768 85Q758 126 735 187Q708 230 648 245Q648 246 552 260L698 267Q715 261 744 242Q754 252 769 268Q772 265 781 259Q790 253 793 250Q780 210 780 209Q802 141 927 -181Q937 -206 988 -270ZM384 -614H375Q331 -307 339 -82H348Q351 -362 384 -614ZM418 -14H265L311 159H355ZM541 -19H445Q420 54 374 181H298Q278 114 237 -19H131L234 267H443ZM900 -1311Q894 -1303 894 -1298Q864 -1308 840 -1308Q840 -1312 834 -1321Q838 -1325 853 -1337Q868 -1349 873 -1354Q878 -1344 900 -1311Z"/>
</svg>