<svg xmlns="http://www.w3.org/2000/svg" viewBox="0 -2048 2048 2048">
	<path fill="currentColor" d="M1346 293Q1346 306 1323 322Q1304 336 1296 336Q1291 336 1282.5 328Q1274 320 1267 320Q1262 320 1249.5 328Q1237 336 1232 336L1013 329Q1018 314 1018 278Q1076 272 1133 266Q1198 248 1198 179Q1198 133 1174 61Q1155 7 1136 -48Q1122 -101 1090 -207Q1089 -211 1083 -219Q1073 -221 1028 -221Q978 -221 974 -219Q931 -200 907 -122Q895 -69 867 37Q865 42 822 149Q794 217 794 262Q794 280 798 297Q777 325 758 325Q752 325 739 320Q726 315 720 315Q719 315 708 325H451V268Q525 265 556 260Q624 248 669 218Q708 191 729 94Q741 13 775 -145Q808 -258 865 -484Q880 -532 906 -632L902 -683L543 -492H358Q354 -488 354 -481Q354 -445 394 -418Q428 -396 458 -396Q500 -396 547 -443Q552 -449 565 -449Q572 -448 572 -436Q572 -411 518 -388Q474 -370 458 -370Q399 -370 357 -426Q323 -473 323 -518Q323 -571 360.5 -619Q398 -667 447 -667Q453 -667 484.5 -653.5Q516 -640 522 -640Q572 -640 559 -643Q593 -635 585 -635Q588 -635 658 -680Q706 -709 801 -768Q812 -775 846 -815Q885 -861 885 -881Q885 -907 876 -932Q876 -932 795 -851Q732 -789 705 -789Q698 -789 634 -848Q585 -894 545 -967Q502 -1046 474 -1075L469 -1071Q476 -993 443 -895Q423 -906 408 -906Q409 -915 417.5 -945Q426 -975 426 -993Q426 -1032 394 -1059Q294 -1011 301 -1011Q286 -1011 254 -1025Q219 -1040 208 -1054Q190 -1037 190 -1022Q190 -1016 199 -974Q208 -927 211 -901Q210 -901 200 -898Q190 -895 181 -895Q148 -983 148 -1022Q148 -1055 158 -1065Q177 -1082 195 -1099Q191 -1127 181 -1186Q155 -1160 113 -1139L100 -1151Q109 -1175 188 -1243Q190 -1256 196 -1283Q199 -1282 140 -1282Q132 -1282 128 -1287.5Q124 -1293 122 -1293V-1342Q122 -1364 171.5 -1436.5Q221 -1509 250 -1526Q257 -1526 275 -1508Q206 -1401 169 -1333Q168 -1333 168 -1332Q168 -1331 169.5 -1330.5Q171 -1330 177 -1330Q218 -1330 236 -1360Q240 -1379 260 -1417Q272 -1420 301 -1420Q351 -1420 366 -1390Q388 -1347 421 -1330Q445 -1328 450 -1333Q435 -1398 344 -1496V-1514Q345 -1520 357 -1520Q405 -1520 454 -1445Q498 -1378 498 -1340Q498 -1311 475 -1277Q467 -1280 451 -1282Q435 -1284 427 -1287L418 -1278Q421 -1262 429 -1233Q446 -1226 485 -1211Q506 -1204 524 -1170Q549 -1121 557 -1111Q614 -1053 713 -937Q737 -978 762 -1020Q794 -1075 833 -1104Q849 -1116 928 -1142V-1162Q905 -1177 854 -1187Q855 -1206 851 -1262Q839 -1267 812 -1279Q812 -1282 806 -1294.5Q800 -1307 800 -1314Q800 -1318 837 -1378Q876 -1443 897 -1467Q948 -1526 1025 -1526Q1095 -1526 1144 -1481.5Q1193 -1437 1193 -1369Q1193 -1325 1154 -1253Q1114 -1178 1112 -1147Q1220 -1117 1220 -999Q1220 -973 1215 -939Q1198 -829 1210 -744Q1213 -726 1246 -665Q1277 -609 1277 -574Q1277 -567 1258.5 -481Q1240 -395 1240 -388Q1240 -382 1245.5 -350.5Q1251 -319 1251 -314V-165Q1251 -162 1268 -111Q1287 -56 1291 -28Q1296 39 1311 174Q1314 194 1330 240.5Q1346 287 1346 293ZM1166 -1369Q1166 -1505 1023 -1505Q986 -1505 943.5 -1473Q901 -1441 891 -1400Q1028 -1361 1012 -1361Q1019 -1361 1032 -1372Q1045 -1383 1052 -1383Q1065 -1383 1083.5 -1369Q1102 -1355 1102 -1337Q1102 -1330 1089 -1306.5Q1076 -1283 1076 -1276Q1076 -1262 1089 -1247Q1102 -1232 1117 -1235Q1166 -1309 1166 -1369ZM425 -1442L418 -1457L411 -1454L417 -1442ZM446 -1410L440 -1425L432 -1423L439 -1410ZM462 -1378L456 -1399L448 -1396L454 -1378ZM1198 -1011Q1198 -1059 1185 -1077Q1164 -1105 1086 -1127Q1086 -1184 1097 -1211Q1044 -1247 1044 -1271Q1044 -1278 1060 -1303Q1076 -1328 1076 -1335Q1076 -1356 1057 -1356Q1052 -1356 1025 -1329L884 -1377Q859 -1356 832 -1317V-1298Q871 -1299 874 -1266Q875 -1237 876 -1208Q902 -1199 949 -1178V-1110L945 -1107Q940 -1107 930 -1109.5Q920 -1112 914 -1112Q863 -1112 807 -1042Q780 -995 718 -900Q660 -961 546 -1085Q528 -1117 489 -1181Q496 -1163 506 -1130Q503 -1112 505 -1082Q539 -1008 608 -917Q685 -815 713 -815Q720 -815 786 -877Q868 -954 892 -974Q898 -953 908 -911Q923 -933 1037 -1075Q1056 -1066 1055 -1058Q1011 -1012 945 -916Q899 -849 854 -782Q831 -750 776 -718Q738 -696 700 -675Q608 -613 588 -613Q574 -613 568 -619Q567 -609 535 -597.5Q503 -586 503 -560Q503 -551 523 -534.5Q543 -518 551 -518Q558 -518 597 -546Q643 -579 655 -585Q743 -626 830 -668Q936 -724 994 -806Q1023 -851 1079 -932Q1082 -929 1085.5 -927.5Q1089 -926 1092 -923Q1045 -822 938 -705L1197 -753Q1178 -772 1178 -816Q1178 -842 1188 -909.5Q1198 -977 1198 -1011ZM349 -1374Q344 -1398 309 -1398Q282 -1398 265 -1381V-1356H319Q340 -1355 349 -1374ZM397 -1275Q385 -1300 374 -1325Q365 -1340 339 -1340Q343 -1340 250 -1333Q229 -1307 222 -1283Q224 -1283 229.5 -1285Q235 -1287 243 -1287Q296 -1287 309 -1245Q351 -1276 368 -1276Q402 -1276 397 -1275ZM487 -1115Q471 -1150 466 -1157Q451 -1181 429 -1186V-1158Q428 -1131 457 -1102H481Q481 -1107 487 -1115ZM1251 -568Q1251 -608 1232 -641Q1192 -712 1186 -725L933 -676Q890 -416 838 -248H1229Q1214 -412 1215 -420Q1218 -451 1235 -510Q1251 -565 1251 -568ZM402 -1168Q402 -1164 388 -1215Q390 -1220 397 -1231Q378 -1250 365 -1250Q346 -1250 331.5 -1229Q317 -1208 318 -1194V-1044Q402 -1084 402 -1168ZM296 -1144Q296 -1261 246 -1261Q211 -1261 211 -1162Q211 -1053 290 -1044Q296 -1080 296 -1144ZM1320 291Q1291 235 1283 134Q1270 -16 1270 -17Q1252 -87 1223 -220Q1124 -215 1119 -215Q1130 -181 1132 -165Q1137 -114 1183 6Q1224 116 1224 182Q1224 249 1157 276Q1098 290 1039 303H1242Q1253 304 1269 288Q1275 294 1284.5 300.5Q1294 307 1296 309Q1299 306 1308 300Q1317 294 1320 291ZM503 -514Q486 -528 482 -541Q479 -549 482 -564Q485 -584 485 -594Q473 -603 461 -626Q466 -629 476 -639H432Q408 -640 377 -600Q350 -565 350 -552V-514ZM932 -220H828Q782 -113 759 62Q747 153 714 194Q663 258 589 278Q530 287 471 296Q489 296 528 297.5Q567 299 583 299Q671 299 703 297Q715 288 723 288Q730 288 731.5 293Q733 298 740 298H773Q768 279 768 260Q768 222 798 158Q838 73 851 26Q863 -36 891 -149Q900 -178 932 -220ZM954 -1300Q947 -1295 938 -1295Q930 -1295 912.5 -1302Q895 -1309 887 -1308L880 -1315V-1329Q902 -1351 917 -1351Q929 -1351 954 -1300Z"/>
</svg>