<svg xmlns="http://www.w3.org/2000/svg" viewBox="0 -2048 2048 2048">
	<path fill="currentColor" d="M1123 -869Q1123 -689 1016 -689Q1019 -689 934 -700Q930 -696 930 -689Q930 -682 949 -623.5Q968 -565 968 -558Q968 -555 954 -470Q938 -381 936 -346L1000 75V199Q1000 205 1005.5 250.5Q1011 296 1011 303Q1011 320 983 337Q960 351 952 351L706 339Q706 336 703 326.5Q700 317 700 314Q721 305 761 289Q903 241 903 212Q903 155 808 -144Q806 -151 810.5 -166.5Q815 -182 815 -189Q815 -206 799 -218H709Q639 -75 508 215Q502 261 495.5 306Q489 351 426 351Q420 351 380.5 345.5Q341 340 335 340Q329 340 302 345.5Q275 351 268 351H186L180 309Q247 294 314 279Q394 257 419 181Q482 -10 584 -358Q679 -679 679 -692V-722Q661 -724 621 -732L614 -739V-752Q615 -754 641 -767Q635 -775 611 -775Q583 -775 580 -755Q571 -706 564 -691Q529 -616 452 -573Q216 -442 161 -442Q138 -442 100 -460V-479Q124 -481 169 -494L159 -503V-522Q292 -531 441 -704Q450 -714 465 -815Q470 -885 475 -955Q481 -1039 514 -1090Q534 -1121 593 -1135Q641 -1144 689 -1154V-1195Q664 -1207 639 -1218Q602 -1236 602 -1257Q602 -1269 612 -1282Q614 -1286 614 -1291Q601 -1296 571 -1312V-1331Q601 -1382 670 -1471Q694 -1495 753 -1515Q800 -1530 818 -1530Q880 -1530 922 -1470Q957 -1420 957 -1370Q957 -1325 918 -1260Q876 -1189 871 -1147Q877 -1135 911 -1132Q974 -1126 976 -1126Q1032 -1116 1063 -1088Q1123 -1035 1123 -869ZM936 -1372Q936 -1415 899 -1459.5Q862 -1504 815 -1504Q789 -1504 740.5 -1482Q692 -1460 684 -1441Q707 -1435 761 -1409Q809 -1386 815 -1386Q821 -1386 832.5 -1391Q844 -1396 850 -1396Q868 -1396 893 -1370Q888 -1355 862 -1314Q839 -1278 839 -1271Q839 -1263 842 -1259Q845 -1255 845 -1253Q867 -1253 874 -1246Q936 -1342 936 -1372ZM1005 -797L982 -946Q924 -865 925 -836V-797ZM1096 -863Q1096 -1003 1065 -1045Q1019 -1106 854 -1112Q854 -1122 852 -1139Q850 -1156 850 -1161Q850 -1167 855 -1192Q860 -1217 860 -1229Q818 -1239 818 -1276Q818 -1283 839 -1313Q860 -1343 860 -1350V-1369H841Q830 -1357 810 -1348Q797 -1367 749.5 -1392.5Q702 -1418 678 -1418Q667 -1418 604 -1323Q610 -1325 615 -1325Q635 -1325 637 -1299Q639 -1278 632 -1259Q660 -1236 716 -1216V-1127L712 -1123Q673 -1120 634 -1117Q587 -1113 555.5 -1093.5Q524 -1074 506 -970Q503 -949 487 -804Q487 -767 473 -704Q461 -683 374 -611Q252 -510 223 -516Q230 -501 221 -486Q394 -569 438 -600Q567 -689 562 -794Q567 -820 571 -857V-991Q580 -1000 589 -1000Q627 -968 662 -912Q700 -852 700 -815Q700 -812 695 -800H897Q898 -831 927 -903Q962 -989 995 -989Q1002 -989 1006 -985L1032 -796Q1039 -764 1011 -764Q1004 -764 938.5 -772Q873 -780 866 -780Q847 -780 800.5 -774.5Q754 -769 730 -769Q693 -769 668 -779L680 -748Q703 -760 707 -759L1030 -710Q1079 -722 1091 -773Q1096 -793 1096 -863ZM672 -807V-832Q672 -849 644 -895.5Q616 -942 599 -951Q599 -901 588 -824Q603 -824 672 -807ZM941 -550Q941 -628 901 -699Q883 -710 866 -710Q861 -710 796 -699Q725 -686 695 -683L566 -245H919Q917 -266 912 -301Q909 -314 909 -331Q909 -363 925 -439.5Q941 -516 941 -550ZM984 276L924 -217H829Q826 -203 874 -35Q925 143 925 206Q925 255 865 283Q815 300 764 317Q786 317 828.5 315Q871 313 874 313Q881 313 915.5 318.5Q950 324 957 324Q984 324 984 276ZM678 -216H556Q554 -207 476 69Q457 137 419 240Q392 287 289 305Q195 321 217 321Q267 318 344 320Q441 324 421 324Q465 324 475 306Q466 269 476 242Q520 127 678 -216ZM737 -1351Q718 -1332 713 -1332Q702 -1332 668 -1355V-1374Q670 -1374 679 -1377Q688 -1380 694 -1380Q708 -1380 737 -1351Z"/>
</svg>