<svg xmlns="http://www.w3.org/2000/svg" viewBox="0 -2048 2048 2048">
	<path fill="currentColor" d="M991 308Q991 359 933 359Q925 359 899 338Q878 347 840 356L653 358Q649 348 649 328Q649 307 656 300Q829 269 845 235Q848 229 848 212Q848 189 825 74Q802 -41 793 -64Q790 -71 769 -108Q751 -137 751 -149Q751 -154 753 -164Q755 -174 755 -179Q755 -223 754 -208H596Q536 -122 530 -7Q528 26 512 65Q483 120 453 176Q423 232 423 299Q423 303 424.5 310.5Q426 318 426 322Q426 362 386 362Q368 362 331 338Q325 340 297.5 351Q270 362 264 362H100V295Q154 289 259 269Q274 265 301.5 246Q329 227 334 215Q350 176 384 54Q420 -74 420 -103Q420 -109 418.5 -119.5Q417 -130 417 -136Q417 -128 443 -226Q456 -284 489 -398Q511 -462 551 -572Q571 -625 590 -679Q590 -670 586 -715Q583 -717 568 -722Q561 -725 500 -775Q499 -738 485 -666Q464 -610 363 -468Q332 -435 282 -361Q279 -313 278 -308Q275 -297 251 -264H225Q217 -269 213 -277Q220 -336 220 -324Q197 -296 197 -249Q197 -228 201 -198H155Q145 -266 145 -263Q145 -317 167 -368Q171 -376 193.5 -388.5Q216 -401 222 -427Q224 -440 230 -467Q241 -505 295 -577.5Q349 -650 361 -687Q362 -727 365 -787Q374 -822 391 -891Q341 -956 309 -970Q296 -970 278 -971Q231 -973 105 -1021Q110 -1046 119 -1063L243 -1032Q258 -1035 277 -1033Q257 -1042 229 -1046V-1088Q272 -1078 302 -1075Q308 -1068 321.5 -1046Q335 -1024 365 -1008Q391 -995 418 -982L417 -985Q422 -1036 456 -1089Q494 -1148 539 -1157Q559 -1159 599 -1163V-1173Q599 -1165 595 -1207Q566 -1215 537 -1222Q504 -1234 504 -1266Q504 -1270 510 -1304Q507 -1306 467 -1330Q487 -1362 526 -1427Q548 -1471 570 -1515Q595 -1556 649 -1571Q677 -1579 693 -1579Q815 -1579 857 -1475Q868 -1448 868 -1390Q868 -1316 807 -1248Q779 -1217 776 -1210Q769 -1198 769 -1164Q807 -1155 845 -1145Q886 -1131 905 -1097Q916 -1078 916 -1052Q916 -1040 902 -982Q886 -918 884 -902Q874 -822 874 -768Q874 -749 899.5 -680.5Q925 -612 925 -576Q925 -546 902.5 -481Q880 -416 880 -402V-281Q880 -272 887.5 -252.5Q895 -233 895 -224V-148Q895 -146 906 -115Q936 -29 939 28Q943 106 947 144Q954 208 971 257Q974 265 984 279Q991 288 991 308ZM845 -1392Q845 -1443 838 -1460Q800 -1553 705 -1553Q630 -1553 600 -1519Q594 -1513 568 -1460L717 -1408Q751 -1423 757 -1423Q787 -1423 787 -1380Q787 -1381 748 -1319Q748 -1319 748 -1307Q748 -1281 768 -1281Q774 -1281 782.5 -1286Q791 -1291 801 -1288Q845 -1350 845 -1392ZM893 -1052Q893 -1089 868.5 -1107.5Q844 -1126 808 -1134Q752 -1146 746 -1148Q746 -1195 750.5 -1210.5Q755 -1226 781 -1261Q773 -1258 769 -1258Q722 -1258 722 -1317Q722 -1320 723 -1324Q764 -1374 764 -1381Q764 -1382 761 -1396H743Q741 -1396 719 -1384L559 -1440Q544 -1415 495 -1341Q509 -1333 534 -1313Q533 -1307 529.5 -1291Q526 -1275 526 -1266Q526 -1248 558 -1240Q582 -1234 606 -1229Q621 -1223 622 -1148Q618 -1147 557 -1137Q470 -1123 436 -968Q460 -950 507 -914Q512 -935 522 -978Q526 -983 538 -983H540Q548 -941 574 -863Q578 -856 589 -851Q652 -956 718 -1029Q727 -1020 727 -1014Q727 -1014 593 -820Q532 -870 406 -964Q402 -967 341 -997Q318 -1009 303 -1033V-1017Q290 -1009 267 -1009Q239 -1009 199 -1020Q134 -1037 132 -1038L130 -1035Q209 -996 301 -996Q334 -996 402 -910Q407 -908 490 -818Q569 -734 600 -734Q628 -734 710 -841Q762 -911 814 -981Q823 -972 823 -967Q823 -955 797 -921Q758 -867 718 -814Q667 -747 629 -719Q620 -712 608 -713Q610 -703 613 -682L853 -742Q853 -742 853 -764Q853 -862 873 -964Q893 -1066 893 -1052ZM544 -887L533 -924Q531 -916 527 -899ZM902 -576Q902 -609 859 -722Q778 -702 616 -666L611 -667Q559 -525 471 -236H869Q858 -265 858 -288Q858 -292 861 -333L857 -337Q856 -344 862 -346Q863 -348 863 -353Q863 -361 860.5 -377Q858 -393 858 -401Q858 -423 880 -485Q902 -547 902 -576ZM480 -795L409 -873Q400 -843 387 -782Q386 -773 386 -746V-723Q386 -686 383 -679Q370 -645 335 -599Q289 -539 278 -521Q267 -503 249 -450Q244 -428 238 -405.5Q232 -383 212 -373Q203 -370 189 -360Q168 -323 168 -264Q168 -258 171.5 -245Q175 -232 173 -224H177Q174 -275 174 -266Q174 -282 190 -317.5Q206 -353 218 -353Q227 -353 243 -344V-340Q243 -332 241 -316.5Q239 -301 239 -294V-290H241Q257 -307 258 -335Q259 -368 263 -377Q274 -401 302 -432Q338 -472 346 -483Q403 -562 456 -658Q469 -682 471 -725Q474 -777 480 -795ZM966 301Q966 284 950 236Q933 182 930 165Q925 103 910 -19Q907 -40 883 -110Q865 -162 868 -209H773Q772 -186 778 -141Q791 -124 810 -87Q822 -51 848 68Q874 192 874 220Q874 286 676 319L675 335L838 333Q847 333 868 324Q889 315 900 315Q906 315 919.5 325.5Q933 336 935 336Q953 336 965 324Q965 320 966 313Q966 305 966 301ZM569 -209H464Q455 -187 445 -155Q440 -76 394 90Q389 122 373 186Q357 233 294 275L288 279Q281 284 266 292Q219 300 126 316V336H270Q275 336 299.5 325.5Q324 315 332 315Q339 315 355 325.5Q371 336 383 336Q404 336 404 315Q404 308 402.5 295Q401 282 401 275Q401 225 471 96Q502 38 515 -73Q522 -131 569 -209ZM615 -1396Q615 -1390 613.5 -1377Q612 -1364 612 -1358Q596 -1358 545 -1375Q545 -1382 550 -1394Q568 -1408 580 -1408Q579 -1408 615 -1396Z"/>
</svg>