<svg xmlns="http://www.w3.org/2000/svg" viewBox="0 -2048 2048 2048">
	<path fill="currentColor" d="M1602 -643Q1598 -642 1438 -578Q1375 -553 1258 -535Q1150 -520 1041 -504Q1020 -465 1015 -432L1123 295Q1125 344 1085 344Q1072 344 1039 322Q1034 328 1024 338H819Q825 326 824 302Q874 288 924 273Q998 242 998 189Q998 117 938 -58Q880 -226 884 -256H790Q699 -105 618 195Q611 241 598 326Q584 344 563 344Q556 344 546.5 338.5Q537 333 530 333Q528 333 517 343H296Q296 342 293.5 328Q291 314 291 301Q349 291 408 282Q465 269 485 230.5Q505 192 569 -68Q584 -127 682 -493Q683 -502 663 -504Q597 -507 467 -523Q142 -594 100 -644Q100 -648 102 -655Q214 -726 412 -759Q454 -766 727 -794Q731 -797 731 -802L656 -1002L445 -979Q381 -979 347 -1018Q313 -1057 275 -1150Q253 -1205 181 -1360Q122 -1488 122 -1495V-1529Q124 -1529 129.5 -1532Q135 -1535 143 -1535Q157 -1535 177 -1493Q186 -1470 196 -1447Q198 -1447 198 -1463Q199 -1463 213 -1466Q227 -1469 240 -1469Q245 -1442 259 -1397Q287 -1343 348 -1254Q419 -1153 441 -1115Q483 -1126 565 -1146Q623 -1147 744 -1166Q753 -1169 753 -1197Q753 -1226 725.5 -1227.5Q698 -1229 672 -1231Q670 -1258 662 -1313Q659 -1325 634 -1329V-1357Q634 -1357 653 -1397Q675 -1445 742 -1505Q813 -1568 854 -1568Q903 -1568 948.5 -1530.5Q994 -1493 1005 -1440Q1005 -1439 1010 -1431Q1015 -1423 1015 -1415Q1015 -1414 1007 -1384Q975 -1318 943 -1239V-1175Q1048 -1163 1127 -1145Q1191 -1130 1256 -1115Q1310 -1184 1432 -1349Q1437 -1356 1432 -1396Q1446 -1438 1462 -1469Q1476 -1469 1496 -1459Q1510 -1467 1522 -1534H1564Q1564 -1529 1567 -1513.5Q1570 -1498 1570 -1491Q1570 -1461 1531 -1390Q1485 -1305 1484 -1303L1426 -1139Q1411 -1096 1401 -1077Q1381 -1039 1351 -1014.5Q1321 -990 1243 -990Q1236 -990 1188.5 -993Q1141 -996 1134 -996Q1081 -996 1072 -994Q1046 -988 1020 -935Q998 -889 998 -868V-799Q1273 -759 1291 -756Q1457 -724 1602 -662ZM1539 -1454V-1469H1530V-1454ZM1534 -1438V-1452H1524V-1438ZM987 -1410Q987 -1461 945.5 -1500.5Q904 -1540 854 -1540Q773 -1540 732 -1455Q751 -1450 801 -1428Q844 -1410 851 -1410Q858 -1410 873 -1418Q888 -1426 895 -1426Q933 -1426 933 -1401Q933 -1394 914 -1362Q895 -1330 895 -1323Q895 -1310 918 -1290Q939 -1293 964 -1342Q987 -1387 987 -1410ZM1503 -1393Q1495 -1378 1477 -1383Q1462 -1386 1458 -1393Q1458 -1346 1459 -1342Q1362 -1219 1267 -1088Q997 -1148 976 -1148Q969 -1148 955.5 -1142.5Q942 -1137 936 -1137Q916 -1137 913 -1188Q910 -1236 922 -1255Q867 -1296 867 -1314Q867 -1322 879 -1351Q894 -1387 897 -1398Q884 -1393 859 -1377Q848 -1382 717 -1431Q692 -1399 661 -1346Q690 -1343 690 -1315Q690 -1308 687.5 -1294Q685 -1280 685 -1274Q685 -1258 695 -1253Q716 -1252 738 -1251Q768 -1248 781 -1232Q783 -1167 760 -1138Q712 -1135 419 -1093Q387 -1157 342 -1223Q311 -1262 279 -1300Q238 -1354 235 -1393Q233 -1393 227.5 -1390.5Q222 -1388 214 -1388Q202 -1388 181 -1426Q163 -1458 158 -1475Q198 -1395 256 -1270Q300 -1162 318 -1126Q364 -1036 411 -1008Q413 -1007 459 -1007Q469 -1007 562.5 -1017.5Q656 -1028 661 -1028Q686 -1028 723 -916Q739 -859 755 -801Q760 -794 778 -794Q993 -794 970 -795Q961 -1023 1123 -1023Q1130 -1023 1177.5 -1020.5Q1225 -1018 1232 -1018Q1317 -1018 1335 -1036Q1379 -1079 1409 -1160Q1430 -1223 1451 -1286Q1457 -1301 1503 -1393ZM1548 -656Q1484 -681 1366 -716Q1100 -768 1060 -766H1004Q1053 -568 1053 -566Q1053 -543 1048 -534H1093Q1107 -533 1209 -549Q1324 -567 1388 -583Q1497 -610 1548 -656ZM960 -771H765V-740ZM1025 -566Q1025 -584 981 -745Q908 -734 766 -710Q744 -604 715 -529Q832 -516 859 -516Q861 -516 925.5 -522Q990 -528 1019 -528Q1019 -533 1022 -546.5Q1025 -560 1025 -566ZM1008 -283V-499H705Q686 -424 650 -283ZM742 -734Q742 -741 739 -751.5Q736 -762 736 -767H664Q555 -767 271 -700Q221 -688 143 -644Q526 -528 648 -528H692Q742 -683 742 -734ZM1102 287L1008 -254H906L1025 205Q1009 265 895 310H959Q1006 314 1018 310Q1028 301 1049 289Q1061 303 1083 322Q1102 303 1102 287ZM758 -254H640Q617 -130 602 -79Q581 9 560 97Q529 216 487 267Q448 314 358 314H431Q515 314 506 315Q511 314 520 307Q529 300 535 300Q542 300 551.5 308.5Q561 317 566 317Q578 305 575 284Q572 257 575 250Q601 175 642 53Q665 -27 688 -107Q718 -202 758 -254ZM774 -1356Q772 -1356 766.5 -1353Q761 -1350 753 -1350Q749 -1350 716 -1367V-1393Q718 -1393 723.5 -1396Q729 -1399 737 -1399Q761 -1399 774 -1356Z"/>
</svg>