<svg xmlns="http://www.w3.org/2000/svg" viewBox="0 -2048 2048 2048">
	<path fill="currentColor" d="M1593 -471Q1593 -379 1574 -300Q1554 -235 1535 -169Q1539 -130 1537 -40Q1532 1 1494 59Q1474 56 1453 52Q1479 -26 1479 -54Q1479 -67 1470 -76Q1459 -78 1446 -49H1416Q1405 -88 1416 -122Q1429 -134 1445 -164Q1446 -173 1440 -197Q1433 -225 1432 -239Q1429 -286 1449 -408Q1469 -534 1469 -531Q1469 -573 1352 -830Q1344 -830 1340 -825Q1295 -742 1260.5 -587.5Q1226 -433 1226 -320L1259 41Q1259 111 1205 174Q1245 182 1322 239Q1393 291 1439 291Q1445 291 1452 288.5Q1459 286 1466 286Q1483 286 1506 309V333Q1474 345 1447 345Q1440 345 1315 318Q1190 291 1183 291L528 356Q448 356 382 327Q378 325 369.5 316Q361 307 353 307Q346 307 289.5 326Q233 345 226 345H150L144 338V297Q187 287 229 277Q286 263 309 233Q317 208 339 163Q347 152 393 110Q427 78 429 60L348 -352Q345 -401 390 -438Q429 -469 467 -469Q528 -469 608 -397Q637 -371 737 -263Q783 -213 862 -124Q880 -274 887 -406L828 -799L819 -808Q614 -592 545 -592Q505 -592 420 -697Q375 -759 330 -820Q256 -917 211 -932Q191 -910 171 -887Q146 -861 123 -852Q123 -858 111 -870Q131 -881 158.5 -908Q186 -935 186 -945Q186 -963 149 -1026V-1049Q166 -1052 197 -1059Q163 -1088 133 -1139Q100 -1194 100 -1228Q100 -1284 136 -1332Q176 -1385 232 -1385Q298 -1385 335 -1324Q364 -1276 364 -1220Q364 -1131 267 -1042Q311 -991 406 -899Q454 -848 550 -749Q555 -754 703 -925Q779 -1012 862 -1038Q902 -1046 979 -1065Q975 -1071 971 -1095Q957 -1111 905 -1111Q886 -1130 879 -1192Q868 -1197 840 -1208Q834 -1217 822 -1231Q878 -1341 934 -1451Q984 -1535 1089 -1535Q1243 -1535 1296 -1363L1210 -1085V-1055Q1244 -1044 1256 -1045Q1272 -1046 1286 -1046Q1469 -1046 1545 -825Q1593 -684 1593 -471ZM1264 -1360Q1264 -1428 1206 -1470Q1155 -1508 1086 -1508Q976 -1508 935 -1408L1084 -1341Q1118 -1358 1121 -1358Q1141 -1358 1159 -1336.5Q1177 -1315 1177 -1294Q1177 -1290 1176 -1286Q1152 -1213 1169 -1197Q1185 -1181 1209 -1180Q1264 -1274 1264 -1360ZM1566 -493Q1566 -982 1326 -1021Q1281 -1025 1193 -1035Q1183 -1051 1183 -1061Q1183 -1112 1199 -1152Q1135 -1158 1135 -1223Q1135 -1224 1142 -1251Q1149 -1278 1149 -1295Q1149 -1331 1121 -1331Q1113 -1331 1104 -1322Q1092 -1311 1089 -1309L932 -1384L855 -1238Q870 -1231 901 -1213Q904 -1177 916 -1143Q956 -1127 995 -1127Q1001 -1085 1001 -1034Q986 -1034 962 -1030Q932 -1026 922 -1025Q898 -1018 862 -1009Q790 -994 700 -879Q592 -744 550 -716Q510 -759 439 -832Q393 -870 347 -907Q289 -956 275 -997Q273 -980 251 -946Q314 -876 384 -782Q505 -619 542 -619Q555 -619 682 -720Q838 -844 841 -846L849 -836L908 -455V-300Q908 -297 900.5 -218.5Q893 -140 893 -108Q1036 -147 1209 -157Q1203 -226 1203 -294Q1203 -637 1348 -878Q1371 -852 1429 -720Q1490 -580 1490 -539Q1490 -533 1479 -475Q1468 -412 1465 -385Q1456 -289 1459 -223Q1464 -202 1472 -159Q1442 -113 1438 -92Q1439 -93 1441 -102Q1442 -108 1450 -108Q1501 -108 1501 -54Q1501 -65 1489 22Q1529 -56 1515 -132Q1509 -167 1508 -164Q1526 -220 1553 -320Q1566 -388 1566 -493ZM337 -1218Q337 -1257 314 -1302Q283 -1363 229 -1363Q182 -1363 151 -1304Q127 -1257 127 -1215Q127 -1143 237 -1056Q337 -1131 337 -1218ZM239 -959Q243 -967 243 -981Q243 -994 239 -1002Q209 -1002 199 -1007L186 -994Q200 -953 221 -953Q229 -953 233 -956Q237 -959 239 -959ZM849 -99Q670 -335 533 -420Q483 -320 483 -312Q483 -305 501 -247Q523 -178 529 -153Q545 -89 554 5Q665 -40 849 -99ZM1232 27Q1232 46 1214 -134Q719 -85 418 116Q429 126 473 177Q507 216 512 216Q519 216 632 191.5Q745 167 752 167Q759 167 900 188.5Q1041 210 1048 210Q1133 210 1160 192Q1232 144 1232 27ZM525 21Q529 -82 481 -240Q479 -247 464 -277Q450 -303 450 -310Q450 -317 473 -360Q502 -413 509 -429Q473 -447 467 -447Q435 -447 404 -418Q369 -387 370 -350L457 54Q480 42 525 21ZM1404 311Q1362 297 1306 263Q1301 260 1265 228Q1240 205 1221 205Q1075 237 1054 237Q1030 237 925.5 215.5Q821 194 757 194Q676 194 614 211Q556 230 497 248Q434 150 393 135Q343 167 343 224Q343 286 438 313Q495 329 564 329L1191 270Q1226 270 1404 311ZM337 277Q334 274 330.5 268Q327 262 324 259Q266 283 165 317H213Q243 320 320 295Q337 282 337 277ZM994 -1289Q994 -1282 981 -1282Q993 -1282 903 -1300Q918 -1336 943 -1336Q952 -1336 994 -1308Z"/>
</svg>