<svg xmlns="http://www.w3.org/2000/svg" viewBox="24.7 -1622.3 1238.6 2032.6">
	<path fill="currentColor" d="M1188 292Q1188 329 1148 329Q1121 329 1128 326Q1127 335 1115 335H894Q894 317 894 282Q1054 276 1054 182Q1054 139 991 -31Q984 -71 966 -150Q963 -162 952 -166Q944 -168 929 -166Q909 -164 907 -164Q855 -164 848 -160Q822 -148 798 -80Q792 -39 773 43Q744 107 696 236Q693 246 699 271Q708 303 709 310Q704 335 671 335Q649 335 633 319Q628 324 618 334H390Q395 316 395 277Q447 271 499 265Q562 253 597 202Q622 166 644 71Q657 8 670 -54Q718 -223 808 -563L804 -587Q738 -534 661 -497Q592 -463 523 -429Q531 -407 528 -377Q561 -369 598 -377L560 -191H358Q341 -249 310 -372H364Q365 -386 366 -413Q367 -423 370 -430Q379 -451 409 -484Q405 -495 402 -520Q407 -544 473 -544Q480 -544 501 -539Q522 -534 529 -534Q535 -534 555.5 -552Q576 -570 584 -574Q651 -606 713 -658Q786 -719 786 -759Q786 -775 778 -791Q744 -754 711 -717Q662 -668 631 -668Q601 -668 556 -730Q531 -769 506 -808Q478 -853 417 -945Q364 -957 339 -968Q295 -987 268 -1025Q191 -1033 160 -1033Q143 -1118 143 -1126V-1264Q143 -1270 151 -1292.5Q159 -1315 159 -1321Q159 -1328 140 -1354Q118 -1386 112 -1398Q100 -1422 100 -1445Q100 -1467 116 -1502Q132 -1537 145 -1546Q157 -1546 175 -1528Q148 -1461 148 -1445Q148 -1424 173 -1391Q184 -1407 203 -1433H239Q223 -1320 223 -1316Q223 -1294 231 -1245Q239 -1196 239 -1165Q239 -1138 234 -1111Q257 -1107 355 -1107Q356 -1107 363.5 -1101.5Q371 -1096 379 -1096Q383 -1096 386 -1104Q404 -1106 503 -1106Q503 -1113 500 -1138Q497 -1163 498 -1180Q500 -1207 507 -1265Q513 -1319 513 -1324Q513 -1330 499.5 -1364.5Q486 -1399 486 -1405Q486 -1413 498 -1450Q511 -1450 521.5 -1447Q532 -1444 533 -1444Q533 -1406 543 -1386Q569 -1396 573 -1413Q572 -1411 572 -1442Q572 -1477 551 -1540Q556 -1540 566 -1543.5Q576 -1547 582 -1547Q616 -1547 625 -1437Q625 -1404 618 -1382Q616 -1374 599 -1354Q582 -1334 582 -1327Q582 -1320 588.5 -1299Q595 -1278 596 -1271Q609 -1184 609 -1123Q609 -1078 592 -1027H512Q505 -1000 491 -966Q513 -951 639 -802Q662 -842 686 -882Q713 -926 744 -949Q769 -959 824 -982V-1007Q822 -1008 781 -1022Q758 -1029 755 -1051Q757 -1060 757 -1068Q757 -1091 736.5 -1107Q716 -1123 716 -1128Q716 -1150 765 -1227.5Q814 -1305 836 -1314Q879 -1332 917 -1332Q943 -1332 955 -1330Q989 -1324 1016 -1303Q1033 -1290 1054.5 -1254.5Q1076 -1219 1076 -1204Q1076 -1186 990 -997V-982Q1015 -978 1058 -962Q1088 -941 1090 -895Q1082 -801 1088 -617Q1112 -561 1140 -474L1102 -308Q1116 -199 1116 -193Q1112 -134 1122 -87Q1132 -44 1143 -1Q1145 64 1157 192Q1160 209 1174 248.5Q1188 288 1188 292ZM1049 -1198Q1049 -1247 1004 -1281Q964 -1311 917 -1311Q829 -1311 792 -1227Q897 -1182 904 -1182Q909 -1182 921 -1195.5Q933 -1209 939 -1209Q957 -1209 975 -1187Q990 -1168 990 -1153Q990 -1146 976.5 -1126Q963 -1106 963 -1099Q963 -1090 993 -1064Q1011 -1095 1029 -1126Q1049 -1163 1049 -1198ZM600 -1462V-1476H591V-1462ZM601 -1439Q604 -1419 584 -1390Q561 -1359 535 -1358Q535 -1357 530 -1219Q528 -1137 535 -1085H402Q379 -1064 377 -1064Q369 -1067 350 -1085H207V-1105Q207 -1110 211.5 -1132.5Q216 -1155 216 -1163Q215 -1188 205.5 -1252Q196 -1316 196 -1319Q196 -1325 201 -1346Q206 -1367 206 -1375Q170 -1363 159 -1363Q186 -1336 186 -1329Q186 -1322 178 -1299.5Q170 -1277 170 -1270V-1100Q170 -1093 173.5 -1079Q177 -1065 177 -1061Q181 -1056 170 -1049H581Q582 -1097 582 -1132Q582 -1143 575 -1239Q574 -1259 565 -1296Q556 -1333 556 -1338Q556 -1338 577.5 -1365.5Q599 -1393 601 -1439ZM1070 -858Q1070 -898 1052 -929Q1047 -937 1036 -944Q997 -947 969 -962Q962 -972 962 -983Q962 -994 970.5 -1015Q979 -1036 977 -1047Q936 -1094 936 -1102Q936 -1109 949.5 -1130Q963 -1151 963 -1158Q963 -1166 954 -1172Q945 -1178 938 -1182Q933 -1171 917 -1150Q896 -1158 849.5 -1176.5Q803 -1195 782 -1203Q777 -1192 765.5 -1166.5Q754 -1141 749 -1130Q768 -1120 797 -1093Q781 -1060 781 -1055Q807 -1044 851 -1023Q851 -987 841 -951Q833 -952 826 -952Q746 -952 648 -769H634Q579 -835 466 -966Q469 -954 469 -983Q445 -970 411 -970Q434 -972 461 -925Q480 -891 499 -856Q528 -812 557 -767Q606 -694 625 -694Q654 -694 715 -760Q758 -806 779 -839Q788 -837 802 -830Q800 -801 810 -775L923 -919Q932 -910 937 -910V-896Q880 -819 824 -742Q750 -645 691 -604Q551 -507 531 -507Q527 -507 487 -517Q487 -498 473 -496Q448 -492 433 -479V-459Q459 -437 467 -437Q474 -437 502 -455Q534 -475 543 -478Q569 -485 613 -497Q750 -544 955 -791Q964 -782 969 -782Q917 -706 900 -684Q855 -626 808 -589L1069 -626L1062 -634Q1057 -660 1057 -691Q1057 -721 1063.5 -777.5Q1070 -834 1070 -858ZM464 -1025H347Q421 -994 427 -994Q448 -994 464 -1025ZM405 -971V-980H390V-971ZM1113 -483Q1113 -488 1064 -603H1041Q1045 -603 831 -563Q799 -436 733 -186H1085Q1086 -212 1084 -226Q1075 -285 1077 -295Q1082 -330 1099 -409Q1113 -478 1113 -483ZM1155 302L1085 -163H996V-146Q995 -110 1007 -64Q1024 -31 1047 27Q1081 157 1081 187Q1081 281 936 307H1104Q1111 308 1115 300Q1119 292 1126 292Q1134 292 1143.5 297Q1153 302 1155 302ZM501 -421Q496 -421 486 -418.5Q476 -416 470 -416Q451 -416 408 -448Q389 -429 389 -408Q389 -394 401 -373H496Q508 -408 501 -421ZM566 -350H342Q355 -293 374 -218H538Q547 -260 566 -350ZM813 -163H728Q702 -116 686 -1Q669 117 645 166Q603 249 504 278Q473 284 416 295L606 303Q611 303 618.5 297.5Q626 292 633 292Q639 292 649 300Q659 308 665 308Q673 308 677.5 305Q682 302 684 302Q668 253 669 247Q692 188 730 81Q747 18 764 -44Q785 -119 813 -163ZM845 -1141Q832 -1128 829 -1128Q821 -1128 804 -1137Q782 -1149 776 -1151Q782 -1182 810 -1182Q839 -1182 845 -1141Z"/>
</svg>