<svg xmlns="http://www.w3.org/2000/svg" viewBox="0 -2048 2048 2048">
	<path fill="currentColor" d="M1141 -957Q1141 -951 1128 -926Q1115 -901 1114 -891Q1107 -802 1087 -630Q1022 -605 1002 -604Q937 -601 872 -597Q817 -519 817 -417Q817 -410 834 -321.5Q851 -233 851 -226Q851 -223 839.5 -173.5Q828 -124 828 -101L879 240V366Q877 368 871 384Q845 402 825 402Q835 402 786 402Q738 401 647 401V352Q788 349 788 274Q788 290 715 -20Q708 -24 686 -24Q643 -24 604 80Q587 135 570 190Q519 334 503 402H473Q466 402 463 396.5Q460 391 453 391Q451 391 439 402H271Q267 360 312 350Q384 335 386 333Q425 308 434 290Q478 199 507 69Q511 51 511 1Q511 -5 522.5 -19.5Q534 -34 536 -39Q629 -343 629 -388Q629 -392 614 -460Q598 -533 595 -566L586 -576Q554 -554 494 -522.5Q434 -491 424 -491Q409 -491 310 -581Q207 -676 204 -677Q183 -680 141 -698Q111 -719 100 -755L107 -781Q141 -761 210 -730Q209 -729 209 -774Q299 -789 346 -919Q399 -1061 466 -1091Q512 -1099 557 -1106Q623 -1121 623 -1168Q623 -1174 614 -1216Q604 -1263 601 -1288Q603 -1288 592 -1299Q577 -1284 521 -1250Q459 -1213 438 -1213Q422 -1213 411 -1239Q401 -1261 401 -1279Q401 -1323 462 -1428Q474 -1450 505 -1489Q519 -1500 562 -1504Q603 -1563 611 -1570Q631 -1589 669 -1589Q691 -1589 723 -1570Q760 -1549 760 -1523Q760 -1520 708 -1416Q738 -1407 793 -1375Q824 -1347 847 -1268Q868 -1198 868 -1151Q868 -1146 860 -1113Q852 -1077 851 -1062Q850 -1053 853 -1033Q857 -1010 857 -999Q857 -967 837 -946Q833 -950 829 -950Q825 -950 819 -946Q816 -960 807 -992Q800 -986 795 -986Q791 -1010 798 -1030.5Q805 -1051 805 -1057V-1193Q805 -1211 769 -1259Q760 -1223 760 -1185Q760 -1160 774.5 -1113.5Q789 -1067 789 -1044Q789 -1035 788 -1026Q739 -986 633 -981Q522 -977 494 -959Q498 -939 507 -743Q430 -701 403 -701H386Q378 -708 373 -708Q381 -721 416 -757Q447 -788 447 -795Q447 -815 421 -906Q386 -836 374 -800Q375 -784 364 -754Q364 -754 309 -733Q293 -727 276 -710Q353 -662 422 -593Q428 -596 526 -656Q594 -697 633 -697Q641 -697 648 -696L652 -699V-720Q589 -746 589 -768Q589 -779 595 -794Q580 -801 555 -817Q609 -914 623 -931Q659 -974 714 -974Q748 -974 793 -946Q845 -913 845 -875Q845 -844 782 -721V-700Q791 -698 1005 -701Q1055 -884 1055 -895Q1055 -902 1043 -923Q1029 -948 1027 -955Q1041 -969 1055 -969Q1068 -969 1082 -940Q1093 -948 1093 -959Q1093 -967 1082.5 -987.5Q1072 -1008 1073 -1019Q1075 -1019 1081 -1022.5Q1087 -1026 1095 -1026Q1125 -1026 1141 -957ZM731 -1515Q731 -1530 707.5 -1548Q684 -1566 666 -1566Q645 -1566 618 -1539Q636 -1543 673 -1516Q710 -1489 711 -1464Q731 -1524 731 -1515ZM1091 -896L1084 -918L1076 -915L1083 -896ZM612 -1397Q608 -1411 586 -1431Q568 -1449 565 -1474Q560 -1474 553 -1468Q566 -1456 559 -1445Q550 -1427 511 -1400Q507 -1389 502.5 -1364Q498 -1339 494 -1328Q552 -1370 612 -1397ZM838 -1191Q831 -1226 824 -1261Q814 -1310 791 -1337Q775 -1356 740 -1373Q694 -1395 687 -1400Q685 -1427 684 -1454Q679 -1485 654 -1497Q643 -1475 627 -1475Q619 -1483 604 -1486Q589 -1489 589 -1486Q589 -1478 595 -1465.5Q601 -1453 602 -1449Q615 -1445 633 -1431Q636 -1420 640 -1397V-1383Q591 -1363 461 -1264L447 -1279Q463 -1315 482 -1406Q424 -1348 424 -1273Q424 -1254 444 -1242Q482 -1259 548 -1297Q600 -1327 606 -1327Q614 -1327 618 -1323Q652 -1170 652 -1168Q652 -1105 552 -1076Q491 -1060 430 -1045Q495 -997 498 -997Q528 -997 643 -1006Q678 -1009 712 -1011Q756 -1021 765 -1057L731 -1193Q736 -1237 753 -1327H767ZM817 -861Q817 -892 786.5 -922Q756 -952 720 -952Q704 -952 676 -937Q642 -918 635 -896Q695 -866 703 -866Q710 -866 717 -874.5Q724 -883 731 -883Q741 -883 756 -866Q771 -849 771 -832Q771 -827 764.5 -802.5Q758 -778 761 -759Q784 -764 802 -801Q817 -833 817 -861ZM481 -878Q481 -885 474.5 -923Q468 -961 467 -978Q460 -990 442 -990Q455 -925 473 -809Q473 -822 477 -847.5Q481 -873 481 -878ZM1081 -895Q1044 -774 1028 -672H764Q757 -681 754 -699Q752 -720 760 -727Q726 -741 726 -772Q726 -777 732.5 -799Q739 -821 739 -832Q739 -843 735 -849Q733 -849 727.5 -840.5Q722 -832 714 -832Q707 -832 691 -840Q675 -848 670 -848Q670 -842 654 -826Q639 -831 603 -855Q589 -826 590 -821Q615 -821 629 -801Q616 -772 624 -759Q641 -754 675 -743V-671L672 -667Q666 -673 646 -673Q605 -673 516 -619Q427 -565 424 -565Q402 -565 239 -713Q231 -705 220 -705Q406 -519 430 -519Q460 -519 528.5 -567.5Q597 -616 595 -616Q603 -616 607 -613.5Q611 -611 613 -611L653 -395Q748 -405 787 -412Q795 -528 861 -628H1012Q1037 -628 1064 -651Q1086 -741 1081 -895ZM418 -969Q418 -976 414.5 -987Q411 -998 411 -1003Q383 -936 355 -868Q318 -788 273 -760Q283 -760 304.5 -763Q326 -766 332 -766Q418 -968 418 -969ZM480 -753Q480 -767 472 -775L447 -748Q453 -748 465.5 -750.5Q478 -753 480 -753ZM822 -232L793 -382H774Q682 -370 648 -359Q573 -57 572 -72V-54H805V-85Q801 -104 801 -140Q809 -172 822 -232ZM850 373V240L810 -24H738Q750 30 786 165Q817 281 817 288Q817 351 703 371Q733 373 792 372Q805 362 807 362Q831 374 850 373ZM628 -23H556Q534 63 483 228Q475 255 467 282Q453 320 431 333Q395 355 344 365Q449 365 439 366Q451 357 458 357Q466 357 475.5 362.5Q485 368 486 368Q542 190 551 165Q591 47 628 -23Z"/>
</svg>