<svg xmlns="http://www.w3.org/2000/svg" viewBox="24 -1611 1741 2052">
	<path fill="currentColor" d="M1689 365H459Q459 350 465 346Q544 311 704 232Q657 62 574 -284Q567 -320 574 -378Q574 -379 580 -397Q585 -411 582 -419Q577 -434 551 -471Q529 -504 529 -511Q529 -537 579 -564L386 -947L300 -326H280Q279 -327 279 -371Q263 -380 238 -380Q216 -380 215 -374Q215 -365 215 -356Q212 -351 207 -344Q198 -343 193 -343Q185 -359 197 -382Q189 -385 171.5 -389.5Q154 -394 146 -397Q136 -387 125 -354Q115 -354 108 -357Q101 -360 100 -360L373 -1006Q387 -1006 391 -1000Q459 -860 586 -598Q589 -616 584 -658Q578 -706 578 -705V-878Q578 -931 611 -1052Q561 -1065 513 -1156Q513 -1162 531 -1173Q628 -1192 644 -1192Q689 -1192 742 -1163V-1145Q742 -1130 700 -1093Q663 -1062 643 -1052Q651 -1010 660 -967Q666 -931 666 -843Q666 -839 657 -733Q646 -617 643 -564Q669 -557 692 -535Q856 -380 1016 -124Q1025 -187 1035 -397Q1044 -583 1065 -683Q1084 -773 1158 -864Q1184 -887 1227 -935Q1232 -942 1232 -979Q1232 -1034 1196 -1045Q1150 -1053 1105 -1061Q1101 -1052 1080 -987Q1066 -941 1058 -941Q1052 -941 1032 -951Q1008 -962 998 -965Q1025 -1004 1072 -1087Q1073 -1110 1080 -1161Q1073 -1167 1029 -1183Q1003 -1193 1003 -1219Q1003 -1225 1024 -1252Q1051 -1285 1056 -1294Q1074 -1339 1119 -1425Q1188 -1535 1338 -1535Q1491 -1535 1556 -1375Q1567 -1348 1571 -1249Q1575 -1175 1580 -1031Q1582 -963 1592 -819Q1602 -685 1602 -683V-626H1523L1514 -621Q1514 -572 1520 -473Q1526 -374 1526 -375L1455 199ZM1575 -653V-721Q1576 -769 1540 -1336Q1537 -1385 1479 -1444Q1413 -1513 1335 -1513Q1277 -1513 1212 -1473Q1137 -1427 1112 -1357Q1286 -1328 1308 -1328Q1315 -1328 1334 -1339Q1353 -1350 1360 -1350Q1380 -1350 1395 -1324Q1406 -1303 1406 -1287Q1406 -1277 1390 -1240Q1374 -1203 1374 -1199V-653ZM709 -1152Q657 -1165 633 -1165Q611 -1165 546 -1152Q561 -1126 576.5 -1101.5Q592 -1077 622 -1077Q674 -1077 709 -1152ZM1608 342L1428 215L1499 -340Q1496 -414 1491 -498Q1485 -562 1491 -616L1498 -626H1346V-1206Q1346 -1213 1362.5 -1248Q1379 -1283 1379 -1290Q1379 -1304 1360 -1323Q1355 -1318 1346 -1306.5Q1337 -1295 1332 -1290L1103 -1328Q1085 -1285 1031 -1210Q1060 -1201 1107 -1182Q1104 -1148 1096 -1090Q1158 -1076 1220 -1061Q1254 -1045 1254 -977Q1254 -927 1252 -924Q1223 -895 1174 -842Q1100 -747 1092 -683Q1071 -470 1031 -75Q1019 -74 917 -232Q776 -451 666 -451Q634 -451 611 -403Q589 -359 595 -331L731 238Q731 247 727 250Q660 285 535 342ZM638 -800Q638 -851 625 -1007Q600 -864 600 -819Q600 -762 625 -606Q638 -715 638 -800ZM714 -471Q656 -538 617 -538Q599 -538 562 -526V-508Q577 -486 603 -446Q608 -473 674 -473Q708 -473 714 -471ZM342 -865L154 -420Q199 -411 283 -397ZM1215 -1256Q1215 -1253 1212 -1246Q1209 -1239 1209 -1236Q1174 -1241 1124 -1241Q1124 -1245 1118 -1254Q1144 -1295 1158 -1295Q1157 -1295 1215 -1256Z"/>
</svg>