<svg xmlns="http://www.w3.org/2000/svg" viewBox="0 -2048 2048 2048">
	<path fill="currentColor" d="M1349 375H106Q107 364 100 356Q185 317 353 235Q304 60 217 -292Q210 -325 210 -354Q210 -381 219 -418L148 -561Q182 -572 234 -569Q239 -579 239 -593Q239 -684 115 -712L122 -741Q152 -728 183 -715Q216 -698 235 -676Q239 -680 239 -688Q239 -742 121 -765L127 -794Q196 -771 234 -746V-1240Q234 -1255 219 -1276Q204 -1297 190 -1297Q163 -1297 141 -1267L120 -1287Q149 -1331 189 -1331Q212 -1331 239.5 -1306Q267 -1281 267 -1258V-752Q331 -785 397 -805L404 -778Q352 -763 327 -751Q283 -731 266 -701V-670Q334 -718 397 -734L404 -706Q329 -698 268 -631V-568Q322 -558 341 -540Q532 -367 669 -130Q678 -179 678 -391Q678 -400 687 -482Q692 -539 707 -651Q725 -759 806 -861Q834 -887 880 -944Q881 -946 881 -986Q881 -990 882 -999Q883 -1008 883 -1012Q883 -1041 830 -1059Q790 -1072 753 -1072Q738 -1022 705 -951Q685 -960 650 -974Q679 -1015 725 -1103Q731 -1120 733 -1178Q709 -1186 686 -1194Q656 -1206 656 -1228Q656 -1234 682 -1271Q712 -1315 714 -1318Q738 -1376 801 -1483Q819 -1506 893 -1532Q962 -1556 997 -1556Q1072 -1556 1141.5 -1495.5Q1211 -1435 1220 -1361Q1232 -1259 1248 -903Q1261 -614 1261 -645V-632H1173Q1173 -314 1112 194V196Q1112 202 1113 207Q1192 263 1349 375ZM1233 -660V-678Q1233 -723 1228 -801Q1222 -897 1221 -924Q1217 -1035 1213 -1146Q1207 -1273 1193 -1366Q1183 -1432 1123.5 -1480Q1064 -1528 997 -1528Q910 -1528 855 -1493Q825 -1474 804 -1437Q785 -1404 766 -1371L964 -1341Q970 -1340 989 -1351.5Q1008 -1363 1016 -1363Q1026 -1363 1047 -1338Q1068 -1313 1068 -1303Q1068 -1294 1046.5 -1254Q1025 -1214 1025 -1211V-660ZM1266 346Q1082 230 1082 204Q1082 209 1090 137Q1096 87 1106 -13Q1147 -439 1147 -613V-632H996V-1218Q996 -1223 1015.5 -1247.5Q1035 -1272 1035 -1300Q1035 -1332 1011 -1332Q1008 -1332 1003 -1330Q992 -1306 978 -1308L774 -1341Q759 -1343 725 -1291Q704 -1256 683 -1222Q719 -1215 761 -1195Q758 -1163 755 -1100Q814 -1087 872 -1073Q910 -1053 910 -965Q910 -945 902 -933Q886 -916 856 -881Q749 -753 734 -652Q719 -551 703 -243Q702 -192 692 -90Q685 -78 676 -75Q663 -89 609 -171Q422 -455 314 -455Q249 -455 237 -337L386 246Q285 301 177 346ZM363 -475Q331 -543 220 -543H186L240 -444Q267 -478 317 -478H340Q352 -478 363 -475ZM866 -1259Q861 -1251 841 -1251Q787 -1251 773 -1281L774 -1290Q790 -1305 809 -1305Q854 -1305 866 -1259ZM835 -1271Q821 -1286 808 -1286Q803 -1286 795 -1282Q802 -1274 835 -1271Z"/>
</svg>