<svg xmlns="http://www.w3.org/2000/svg" viewBox="0 0 664 1000">
  <g transform="scale(1,-1) translate(0,-1000)">
    <path d="M327 701Q345 685 378.5 671.0Q412 657 429 657H443Q458 657 469.5 659.5Q481 662 485.5 665.0Q490 668 498.0 674.0Q506 680 509 682Q500 707 489 713Q488 713 481.5 714.5Q475 716 469.0 718.0Q463 720 456.0 723.5Q449 727 444.5 733.5Q440 740 440 749Q440 765 467.0 780.0Q494 795 494 803Q492 838 331 867Q315 848 308.5 838.5Q302 829 296.5 812.5Q291 796 291 775Q291 763 300.0 744.5Q309 726 318 714ZM526 787Q526 784 521.5 779.5Q517 775 510.5 770.0Q504 765 497.5 761.5Q491 758 486 754L480 751Q482 750 490.0 748.0Q498 746 506.0 742.5Q514 739 518 734Q535 718 544.0 705.0Q553 692 555.5 684.5Q558 677 561 661Q576 548 576 473Q576 438 573 399Q577 398 591.0 396.0Q605 394 612 393Q613 439 618.5 524.5Q624 610 624 655Q624 751 611.5 809.0Q599 867 584.0 889.0Q569 911 540 935Q509 960 474 960Q437 960 407.5 944.5Q378 929 367 914L356 898Q360 897 375.0 894.0Q390 891 394.5 890.0Q399 889 412.0 886.0Q425 883 431.0 881.0Q437 879 448.0 875.0Q459 871 466.0 867.0Q473 863 483.0 857.5Q493 852 501.5 845.0Q510 838 519 830Q530 819 530 804Q529 793 526 787ZM330.5 786.5Q322 792 322.0 801.0Q322 810 330.5 815.5Q339 821 350.0 821.0Q361 821 369.5 815.5Q378 810 378.0 801.0Q378 792 369.5 786.5Q361 781 350.0 781.0Q339 781 330.5 786.5ZM523 643Q523 643 518.0 639.0Q513 635 511.0 634.0Q509 633 503.0 629.5Q497 626 492.0 624.5Q487 623 479.5 621.0Q472 619 463.0 618.0Q454 617 443 617Q433 617 419 619L339 284Q338 278 328.0 271.5Q318 265 306 265Q290 265 279 279Q254 301 220.5 337.0Q187 373 158.5 399.0Q130 425 94 445Q83 440 81 423V404Q81 363 95.5 288.0Q110 213 110 171Q110 135 103.5 111.5Q97 88 90.0 78.0Q83 68 59 40H528Q511 63 506.0 79.0Q501 95 501 131Q501 155 518.5 268.0Q536 381 536 473Q536 545 523 643ZM34 833Q23 833 23 852Q23 869 40.5 883.0Q58 897 73.0 903.0Q88 909 91 909Q117 909 133.5 894.0Q150 879 153.0 868.0Q156 857 156 852Q156 830 131.0 806.5Q106 783 106 781V483Q107 483 108.5 482.0Q110 481 111.5 480.0Q113 479 114 479Q154 457 183.5 431.5Q213 406 246.5 369.5Q280 333 305 310L381 632Q309 650 288 679Q251 730 251 775Q251 805 261.5 831.0Q272 857 280.0 867.5Q288 878 311 906Q311 907 323.0 921.5Q335 936 340.5 942.0Q346 948 362.0 961.5Q378 975 392.0 981.5Q406 988 428.0 994.0Q450 1000 474 1000Q524 1000 565 966Q601 936 620.0 907.0Q639 878 651.5 816.5Q664 755 664 655Q664 609 658.5 522.0Q653 435 652 385Q652 380 650.5 373.5Q649 367 642.0 360.0Q635 353 625 353H617Q602 353 570 359Q564 295 552.5 226.5Q541 158 541 131Q541 102 545.0 89.5Q549 77 561.5 62.0Q574 47 583 29Q585 23 585 20Q585 12 579.5 6.0Q574 0 565 0H20Q10 0 5.0 6.5Q0 13 0 20Q0 26 3 30Q16 52 35.5 73.0Q55 94 62.5 112.5Q70 131 70 171Q70 210 55.5 285.0Q41 360 41 404V425Q41 453 64 473V781Q64 795 93.0 815.0Q122 835 122 849Q122 864 114.0 872.0Q106 880 97 880Q90 880 81.0 875.0Q72 870 64.0 863.0Q56 856 49.5 849.5Q43 843 38 838Z" fill="currentColor"/>
  </g>
</svg>