<svg xmlns="http://www.w3.org/2000/svg" viewBox="0 -2048 2048 2048">
	<path fill="#000000" d="M2195 -630Q2195 -623 2149.5 -500.5Q2104 -378 2104 -371Q2104 -365 2114.5 -328Q2125 -291 2125 -285Q2125 -255 2092 -189Q2060 -193 2060 -214Q2060 -221 2066 -242Q2072 -263 2072 -275Q2072 -296 2056 -312Q2047 -300 2050 -270Q2038 -264 2003 -276Q2017 -318 2038 -395Q2082 -588 2082 -622Q2082 -644 2000 -793Q1959 -701 1959 -638Q1959 -619 1979 -550Q2002 -471 2002 -461Q2002 -455 1986 -408Q1969 -357 1966 -341Q1965 -336 1965 -306Q1965 -207 1998 -53Q2013 17 2013 0V183Q2013 190 2029 231Q2045 272 2045 279Q2045 314 2010 314Q2003 314 1966 303Q1929 292 1922 292Q1915 292 1863 303Q1811 314 1804 314Q1798 314 1779.5 311Q1761 308 1752 308Q1749 300 1746.5 279Q1744 258 1741 250Q1746 255 1764 255Q1811 255 1865 235Q1933 209 1933 169Q1933 99 1827 -211H1759Q1730 -167 1713 -88Q1688 24 1685 34Q1653 95 1602 216Q1608 236 1612 279Q1611 292 1591 305.5Q1571 319 1561 319Q1554 319 1535.5 311Q1517 303 1510 303Q1503 303 1487 308Q1471 313 1464 313H1335Q1331 301 1331 284Q1331 267 1335 255Q1395 260 1457 225Q1528 185 1546 118Q1558 32 1587 -112Q1613 -205 1683 -412Q1746 -596 1746 -600Q1746 -629 1721 -694Q1701 -746 1692 -761Q1677 -696 1631 -570Q1598 -504 1441 -339Q1421 -310 1375 -248Q1352 -257 1352 -271Q1352 -277 1356.5 -289.5Q1361 -302 1361 -308Q1365 -312 1353 -312Q1338 -312 1318 -292Q1334 -244 1334 -246V-216L1298 -211Q1292 -236 1277 -258Q1259 -242 1225 -221H1207Q1191 -236 1193 -273Q1196 -316 1193 -324Q1101 -572 1068 -750H1064Q1063 -741 1057 -719Q1051 -697 1051 -691Q1051 -684 1072 -600.5Q1093 -517 1093 -510Q1093 -504 1072 -435.5Q1051 -367 1051 -360Q1051 -355 1057.5 -327Q1064 -299 1065 -288Q1064 -247 1068 -165Q1071 -134 1088 -67Q1104 -5 1104 0V194Q1104 198 1112 217Q1120 236 1120 250Q1120 269 1102 291.5Q1084 314 1064 314Q1058 314 1041 306Q1024 298 1018 298Q1011 298 963.5 306Q916 314 909 314Q904 314 876.5 310.5Q849 307 837 307Q838 295 832 256Q886 256 938 238Q1008 214 1008 172Q1008 166 976 21Q938 -151 924 -221H845Q805 -170 790 -121Q761 -30 710 141Q708 181 679 280Q664 314 615 314Q609 314 591.5 306Q574 298 567 298Q560 298 509.5 308.5Q459 319 452 319Q374 319 378 318V272Q384 269 464 246Q493 240 549 217Q573 202 591 156Q602 121 614 86Q642 15 664 -80Q661 -99 662 -133Q690 -226 765 -428Q831 -607 831 -611Q831 -598 796 -825Q762 -772 728 -720Q686 -657 644.5 -625Q603 -593 534 -570Q476 -551 418 -532Q348 -507 287 -468Q233 -186 141 313Q128 313 114.5 310Q101 307 100 307L243 -461Q241 -468 228 -491Q217 -511 217 -518Q217 -526 234 -592Q235 -593 237 -593Q248 -593 259.5 -594Q271 -595 273 -609Q284 -674 383 -1198H430L307 -588Q316 -579 332 -579Q340 -579 412 -614Q493 -653 549 -687Q572 -701 630 -802Q668 -868 687 -895Q730 -958 767 -983Q751 -993 719 -1014Q747 -1042 774 -1070Q804 -1102 800 -1131Q767 -1139 767 -1164Q767 -1171 784 -1196Q804 -1226 808 -1235Q816 -1265 844 -1326Q851 -1337 897 -1373Q934 -1396 998 -1441Q1031 -1469 1074 -1523Q1101 -1557 1123 -1557Q1141 -1557 1168 -1537Q1195 -1517 1195 -1496Q1195 -1475 1170 -1453Q1140 -1429 1137 -1420Q1134 -1380 1123 -1298Q1113 -1250 1013 -1069V-1016Q1049 -1010 1085 -1005Q1130 -995 1145 -957Q1172 -886 1196 -577Q1198 -555 1219 -486Q1230 -435 1273 -333Q1307 -342 1356 -371Q1397 -423 1498 -599Q1510 -640 1533 -716Q1549 -775 1565 -833Q1597 -925 1650 -962Q1671 -977 1714 -982Q1775 -988 1783 -990V-1004Q1783 -1017 1759 -1025Q1726 -1036 1721 -1040Q1716 -1065 1722 -1094Q1707 -1102 1681 -1121Q1724 -1203 1724 -1237Q1724 -1253 1716.5 -1274.5Q1709 -1296 1709 -1299V-1326H1949Q1914 -1374 1879 -1421Q1831 -1487 1831 -1507Q1831 -1518 1847.5 -1540.5Q1864 -1563 1879 -1563Q1896 -1563 1917 -1543.5Q1938 -1524 1938 -1509Q1938 -1495 1910 -1467Q1898 -1467 1890 -1474Q1890 -1479 1900.5 -1492Q1911 -1505 1911 -1512Q1911 -1536 1885 -1536Q1875 -1536 1866.5 -1522Q1858 -1508 1858 -1501Q1858 -1491 1973 -1333Q1988 -1355 2058 -1469Q2109 -1552 2117 -1552Q2123 -1552 2138 -1548.5Q2153 -1545 2162 -1545Q2098 -1390 1962 -1073Q1948 -1063 1935 -1052Q1910 -1030 1910 -1009Q1910 -1004 1911 -999Q1918 -985 1948 -981Q1969 -979 1989 -978Q2029 -971 2096 -867Q2111 -844 2149 -759Q2195 -658 2195 -630ZM2102 -1488L1987 -1295H1741Q1741 -1221 1741 -1221H1892Q1899 -1221 1901.5 -1226Q1904 -1231 1911 -1231Q1916 -1231 1944 -1217Q1950 -1209 1950 -1198Q1950 -1183 1933.5 -1149Q1917 -1115 1917 -1100Q1917 -1095 1936 -1076ZM2168 -627Q2168 -679 2102 -804.5Q2036 -930 2001 -951Q1983 -962 1949 -962Q1901 -962 1895 -963V-1040Q1911 -1055 1911 -1064Q1890 -1083 1890 -1098Q1890 -1102 1902 -1143Q1914 -1184 1914 -1202Q1914 -1199 1747 -1199Q1733 -1173 1714 -1126Q1727 -1123 1739 -1120Q1751 -1117 1751 -1100Q1751 -1093 1748.5 -1076Q1746 -1059 1746 -1051Q1767 -1046 1803 -1035Q1804 -1024 1807 -997Q1810 -974 1810 -962Q1751 -959 1672 -940Q1619 -901 1582 -787Q1562 -714 1541 -641Q1473 -457 1345 -335Q1347 -335 1350 -337Q1353 -339 1361 -339Q1366 -339 1390 -312Q1415 -350 1513 -455Q1596 -545 1610 -581Q1628 -628 1649 -719Q1662 -768 1695 -814Q1721 -768 1774 -612Q1831 -621 1932 -639Q1932 -680 1951 -736Q1969 -787 1987 -837Q1993 -839 2004 -846Q2033 -791 2063 -736Q2104 -657 2104 -617Q2104 -641 2059 -379Q2056 -364 2041 -339Q2046 -344 2056 -344Q2079 -344 2091 -309Q2071 -379 2099 -447Q2120 -489 2141 -531Q2168 -588 2168 -627ZM2100 -281V-306H2091V-281ZM1168 -1503Q1139 -1531 1120 -1531Q1103 -1531 1077 -1486Q1047 -1436 1036 -1430Q936 -1374 931 -1371Q858 -1321 842 -1259Q860 -1256 909 -1246Q950 -1237 957 -1237Q963 -1237 975.5 -1239.5Q988 -1242 994 -1242Q1029 -1242 1029 -1215Q1029 -1211 1022 -1174.5Q1015 -1138 1015 -1119Q1083 -1246 1091 -1292Q1095 -1340 1105 -1410Q1109 -1428 1143 -1459Q1172 -1486 1168 -1503ZM1975 -461Q1975 -497 1937 -611Q1869 -600 1773 -589L1650 -238H1953Q1932 -311 1939 -346Q1943 -364 1960 -412Q1975 -455 1975 -461ZM868 -1018Q868 -1023 865.5 -1038.5Q863 -1054 863 -1059Q860 -1059 843 -1062Q826 -1065 811 -1065Q803 -1042 789 -997Q797 -1000 868 -1018ZM2018 280Q1992 231 1990 151Q1990 84 1989 17Q1986 -14 1969 -94Q1953 -164 1953 -209H1858Q1859 -199 1909 -35Q1954 117 1954 164Q1954 229 1884 255Q1828 267 1772 279L1850 287Q1914 271 1919 271Q1920 271 1965 278Q2004 284 2018 280ZM1253 -313Q1236 -331 1234 -347Q1230 -382 1220 -438Q1202 -488 1175 -582Q1168 -616 1165 -705Q1162 -789 1143 -871Q1123 -958 1098.5 -971Q1074 -984 1042 -986Q1016 -988 991 -990Q988 -1018 986 -1046Q984 -1075 1000 -1101Q981 -1124 981 -1138Q981 -1127 1002 -1214Q994 -1214 982.5 -1209.5Q971 -1205 965 -1205Q976 -1205 833 -1231Q821 -1203 800 -1158Q826 -1160 827 -1135Q827 -1132 821 -1093Q845 -1088 889 -1072Q889 -1047 896 -994Q871 -991 828 -983Q757 -964 686 -843Q603 -702 560 -671Q524 -644 331 -555Q325 -516 325 -526Q404 -550 483 -574Q577 -603 626 -639Q675 -675 729 -756Q800 -863 813 -878L821 -869Q841 -716 859 -628Q960 -645 1029 -660Q1029 -717 1039 -779Q1053 -868 1080 -868Q1089 -868 1093 -864Q1089 -840 1089 -811Q1089 -645 1223 -313ZM1724 -209H1640Q1631 -175 1615 -112Q1600 -32 1585 49Q1563 156 1521 209Q1463 281 1355 278Q1380 293 1422 289Q1501 282 1481 282Q1575 282 1585 280Q1572 229 1576 215Q1585 180 1630 95Q1670 20 1679 -41Q1684 -75 1724 -209ZM1067 -504Q1067 -547 1033 -638Q973 -624 859 -598L730 -246H1045Q1041 -283 1032 -342Q1030 -351 1030 -360Q1030 -383 1048.5 -430.5Q1067 -478 1067 -504ZM1099 250Q1099 242 1092 223Q1085 204 1084 198Q1085 132 1081 1Q1065 -75 1039 -220H955Q966 -107 977 -63Q1035 174 1035 183Q1035 230 952 257Q905 268 858 279L957 287Q1041 266 1026 266Q1033 266 1043.5 276.5Q1054 287 1061 287Q1070 287 1084.5 273Q1099 259 1099 250ZM302 -534Q302 -546 296 -547H266Q252 -532 243 -512L262 -494Q302 -521 302 -534ZM810 -220H720Q707 -190 688 -133Q691 -113 690 -80Q670 -13 630 118Q622 148 614 178Q602 213 587 222Q580 226 412 290Q493 290 546 280Q551 279 558.5 272.5Q566 266 572 266Q579 266 596 276.5Q613 287 620 287Q656 287 664 258Q702 107 758 -116Q776 -152 810 -220ZM1842 -1148L1829 -1135Q1791 -1145 1762 -1159Q1790 -1189 1796 -1189Q1815 -1189 1842 -1148ZM890 -1192Q890 -1189 887 -1180Q884 -1171 884 -1168Q864 -1173 827 -1173Q827 -1189 855 -1215Q879 -1203 890 -1192Z"/>
</svg>