<svg xmlns="http://www.w3.org/2000/svg" viewBox="0 -2048 2048 2048">
	<path fill="currentColor" d="M2120 -389Q2120 -332 2086 -288H2056Q2056 -294 2061 -311.5Q2066 -329 2066 -335V-397Q2057 -386 2037 -364Q2015 -361 2013 -383Q2009 -424 2018.5 -447Q2028 -470 2028 -471V-698L1949 -903Q1946 -895 1946 -854Q1946 -811 1947 -809Q1965 -775 1983 -741Q2006 -692 2006 -653Q2006 -649 1994 -598Q1982 -547 1980 -524Q1984 -467 1984 -361Q1981 -332 1971 -262Q1962 -201 1962 -195Q1962 -189 1966 -149Q1970 -103 1971 -84Q1978 35 1977 58Q1968 214 1968 210Q1969 220 1976.5 257Q1984 294 1984 300Q1984 355 1924 355Q1918 355 1893.5 349.5Q1869 344 1862 344Q1871 344 1797 349Q1735 352 1702 349Q1702 349 1702 301Q1743 295 1784 290Q1848 273 1848 224Q1848 219 1845.5 197Q1843 175 1843 163Q1829 159 1777 159Q1751 159 1716 161Q1697 179 1691 226Q1686 268 1693 297Q1696 310 1682 331Q1667 355 1649 355Q1643 355 1624 349.5Q1605 344 1598 344Q1591 344 1566 349.5Q1541 355 1534 355H1408Q1408 337 1408 301Q1448 291 1485 275Q1505 268 1526 260Q1556 247 1569 225Q1587 195 1590 161Q1598 70 1598 52V-116L1712 -855Q1717 -865 1709 -883Q1701 -901 1688 -909Q1673 -880 1653 -824Q1621 -675 1428 -531Q1299 -435 1269 -381Q1256 -381 1251 -384Q1246 -386 1233 -380.5Q1220 -375 1214 -375Q1188 -375 1184 -417Q1198 -423 1227 -444Q1222 -464 1207 -506Q1194 -504 1192 -483Q1189 -459 1186 -457Q1191 -451 1178 -451Q1165 -451 1152 -458Q1151 -488 1152 -546Q1108 -610 1038 -725Q1009 -792 944 -925Q917 -817 917 -764Q917 -717 952.5 -646Q988 -575 988 -536Q988 -529 963.5 -438Q939 -347 939 -340Q939 -336 944 -296Q949 -252 951 -231Q951 -231 951 -143Q951 -111 966.5 -44Q982 23 982 25V228Q982 234 995.5 272.5Q1009 311 1009 317Q1009 355 958 355Q952 355 939 349.5Q926 344 920 344Q913 344 911.5 349Q910 354 903 354H667V296Q717 301 781 281Q868 255 868 200Q868 128 831 7Q789 -126 788 -138Q787 -145 789 -163Q792 -185 792 -191Q787 -196 649 -196Q627 -158 591 -72Q589 -38 577 37Q557 94 521 211Q518 247 506 315Q502 330 483.5 342.5Q465 355 454 355Q447 355 441.5 349.5Q436 344 429 344H166Q166 336 169 320Q172 304 172 296Q313 294 368 251Q406 221 428 107Q438 21 466 -144Q489 -243 538 -402Q602 -609 617 -661L586 -888Q587 -888 577 -898Q482 -768 387 -638Q296 -501 274 -392Q274 -392 221 -392Q222 -413 211 -446Q180 -431 148 -332H107Q100 -344 100 -369Q100 -412 118 -439Q145 -467 191 -521Q212 -560 254 -635Q282 -675 338 -760Q350 -780 412 -929Q437 -989 447 -1007Q474 -1058 509 -1086Q540 -1111 591 -1124Q657 -1141 667 -1146V-1183Q620 -1202 580 -1209Q579 -1228 590 -1275Q571 -1286 536 -1307Q536 -1328 537 -1332Q588 -1457 627 -1497Q674 -1546 762 -1546Q834 -1546 883 -1490Q928 -1438 928 -1374Q928 -1330 891 -1261Q846 -1176 835 -1136Q969 -1144 1052 -985Q1100 -872 1147 -760Q1198 -677 1258 -538Q1274 -554 1321 -561Q1326 -567 1434 -675Q1501 -742 1514 -787Q1515 -790 1565 -996Q1592 -1107 1627 -1158Q1657 -1201 1736 -1197L1740 -1201V-1238Q1725 -1247 1697 -1247Q1693 -1258 1688 -1297Q1681 -1303 1659 -1310Q1647 -1313 1647 -1333Q1647 -1338 1661 -1360Q1678 -1386 1683 -1397Q1752 -1557 1859 -1557Q1981 -1557 2028 -1443Q2051 -1385 2066 -1227Q2077 -1130 2093 -961Q2095 -933 2078 -921Q2115 -733 2115 -694V-529Q2115 -524 2110 -510Q2105 -496 2105 -487Q2105 -468 2112.5 -430.5Q2120 -393 2120 -389ZM2066 -953V-994Q2068 -1053 2046 -1218Q2021 -1399 1998 -1446Q1957 -1529 1859 -1529Q1782 -1529 1729 -1433Q1771 -1432 1812 -1431Q1886 -1422 1886 -1377Q1886 -1352 1859 -1326V-953ZM2093 -606Q2093 -796 2048 -924H1974L2055 -698V-482Q2055 -460 2044 -442Q2046 -442 2050.5 -444Q2055 -446 2063 -446Q2071 -446 2087 -438Q2080 -454 2080 -477Q2080 -494 2086.5 -537.5Q2093 -581 2093 -606ZM2101 -387L2095 -428H2085L2091 -387ZM1984 -655Q1984 -680 1953 -741Q1936 -772 1920 -803Q1916 -824 1918 -925H1831V-1334Q1859 -1339 1859 -1374Q1859 -1386 1852 -1393Q1797 -1404 1766 -1404Q1719 -1404 1714.5 -1400.5Q1710 -1397 1674 -1330Q1690 -1327 1718 -1318V-1269Q1750 -1269 1767 -1259V-1201Q1767 -1173 1712 -1169Q1651 -1164 1643 -1141Q1622 -1084 1588 -944Q1558 -819 1530 -755Q1504 -696 1417 -612Q1328 -525 1293 -531Q1312 -523 1325 -493Q1295 -464 1288 -446Q1382 -525 1476 -605Q1602 -720 1615 -802Q1622 -817 1632 -840Q1635 -852 1650 -885Q1663 -914 1663 -920Q1663 -927 1652 -947.5Q1641 -968 1641 -974Q1641 -981 1662 -1013Q1687 -1050 1693 -1063Q1690 -1078 1698 -1094H1718L1723 -1070Q1717 -1059 1689 -1013Q1668 -979 1668 -971Q1668 -960 1732 -894Q1739 -875 1739 -873Q1739 -897 1704 -612Q1687 -532 1659 -383Q1625 -151 1625 -77V131H1945Q1951 88 1951 27Q1951 -25 1945 -130Q1940 -222 1941 -252Q1942 -280 1952 -342Q1960 -398 1960 -427Q1960 -440 1956 -468Q1952 -493 1953 -503Q1956 -527 1971 -591Q1984 -649 1984 -655ZM900 -1380Q900 -1433 864 -1474Q824 -1519 762 -1519Q725 -1519 680 -1497Q624 -1469 607 -1427Q666 -1416 779 -1388Q782 -1399 790 -1415H804Q809 -1411 835 -1399Q846 -1394 846 -1377Q846 -1370 832.5 -1330.5Q819 -1291 819 -1284Q819 -1257 855 -1246Q900 -1298 900 -1380ZM1962 298Q1962 285 1952 243.5Q1942 202 1942 182Q1942 169 1946 160H1865Q1872 186 1873 232Q1874 306 1739 325Q1765 325 1814.5 321Q1864 317 1867 317Q1874 317 1895.5 322.5Q1917 328 1924 328Q1962 328 1962 298ZM1247 -476Q1241 -536 1125 -749Q1098 -815 1051 -923Q1018 -992 1010 -1005Q977 -1061 943 -1080Q921 -1093 878 -1101Q843 -1107 808 -1114V-1152Q809 -1181 840 -1223Q815 -1225 798 -1249Q786 -1268 786 -1284Q786 -1314 819 -1380Q814 -1385 804 -1388Q791 -1361 781 -1361Q774 -1361 730 -1371Q681 -1383 661 -1386Q672 -1375 675 -1353Q672 -1348 668 -1344Q666 -1345 628 -1350Q604 -1353 601 -1368Q613 -1389 632 -1390Q646 -1390 661 -1391Q639 -1391 597 -1398Q593 -1380 563 -1319Q583 -1310 618 -1297Q606 -1250 607 -1225Q656 -1215 694 -1199Q694 -1180 692 -1142Q689 -1119 644 -1110Q575 -1097 575 -1097Q495 -1064 446 -948Q408 -857 371 -766Q290 -626 229 -532Q185 -490 131 -418Q132 -393 130 -359Q134 -387 152 -422Q178 -473 214 -473Q239 -473 243 -457Q244 -435 244 -413Q347 -619 411 -714Q474 -795 578 -953H591Q640 -753 640 -653L900 -714Q894 -744 894 -779Q894 -864 929 -970Q937 -980 945 -980Q1021 -833 1180 -540Q1196 -537 1223 -531Q1236 -507 1247 -476ZM1684 160H1620Q1622 227 1548 276Q1494 312 1429 325Q1518 331 1662 321Q1663 317 1667 240Q1670 187 1684 160ZM960 -533Q960 -578 904 -685Q769 -650 640 -623Q625 -579 520 -223H927V-248Q920 -287 918 -361Q921 -381 942 -446Q960 -503 960 -533ZM977 320Q976 315 967 295Q960 278 960 271V25Q960 18 944 -52.5Q928 -123 928 -130Q928 -136 930 -159Q932 -182 932 -194H820Q820 -189 816.5 -174Q813 -159 813 -152Q813 -134 815 -126Q839 -43 862 41Q895 164 895 224Q895 266 800 299Q750 313 699 326H894Q897 321 914 306Q936 328 955 328Q969 328 977 320ZM606 -194Q571 -191 536 -189Q495 -184 493 -149Q489 -81 450 117Q425 246 352 283Q263 328 198 320L392 328Q416 320 434 311Q443 328 457 328Q482 328 485 303Q484 275 488 222Q514 151 555 21Q558 -14 564 -72Q582 -119 606 -194ZM1805 -1358Q1798 -1351 1798 -1339Q1787 -1342 1760.5 -1348Q1734 -1354 1723 -1357Q1739 -1393 1753 -1393Q1770 -1393 1805 -1358Z"/>
</svg>