<svg xmlns="http://www.w3.org/2000/svg" viewBox="0 -2048 2048 2048">
	<path fill="currentColor" d="M1216 -496H1110Q1111 -511 1111 -526Q1111 -685 989 -809Q976 -782 975 -734Q1046 -700 1057 -667Q1065 -650 1074 -616Q1098 -401 1098 -217L1093 86Q1090 115 1079 171Q1059 232 1036 287Q1112 331 1118 335Q1166 367 1188 396H185Q185 384 178 377Q254 344 408 270Q334 78 225 -244Q221 -260 227 -298Q233 -341 232 -356Q230 -382 213 -421Q199 -455 184 -488H256V-1035Q203 -1070 100 -1138H476L307 -1035V-494Q329 -488 363 -469Q401 -410 477 -297Q539 -214 663 -46Q667 -69 684 -393Q695 -602 758 -685Q772 -703 814 -720Q816 -724 824 -734V-782Q784 -798 742 -798Q737 -798 636 -663Q609 -681 560 -716Q610 -750 704 -814Q717 -853 717 -901Q694 -911 672 -921Q650 -931 650 -958Q650 -965 675 -999.5Q700 -1034 706 -1052Q673 -1058 605 -1080Q606 -1083 613 -1135Q618 -1174 633 -1182Q619 -1187 588 -1204Q597 -1215 608 -1228Q619 -1241 627 -1241Q717 -1241 717 -1182Q717 -1178 683 -1110Q699 -1095 711 -1095Q716 -1095 751 -1163Q790 -1237 797 -1246Q820 -1272 914 -1362Q975 -1421 978 -1446Q972 -1464 971 -1497Q981 -1523 1008 -1544.5Q1035 -1566 1056 -1566Q1089 -1566 1110.5 -1539Q1132 -1512 1132 -1479Q1132 -1452 1113 -1439Q1090 -1424 1083 -1400Q1074 -1368 1091 -1278Q1108 -1187 1085 -1064Q1069 -981 1008 -852Q1054 -824 1129 -769Q1159 -741 1175 -695Q1218 -573 1216 -521ZM1104 -1482Q1104 -1496 1093 -1515Q1080 -1538 1062 -1538Q1037 -1538 999 -1497Q998 -1490 1003.5 -1479.5Q1009 -1469 1009 -1468Q1011 -1427 958 -1373Q919 -1337 880 -1302Q805 -1226 745 -1085Q781 -1075 843 -1063Q975 -1048 975 -989Q975 -982 955.5 -941Q936 -900 936 -893Q936 -877 948 -856Q961 -855 978 -848Q1070 -1040 1070 -1222Q1070 -1289 1057 -1351Q1049 -1386 1060 -1405Q1104 -1483 1104 -1482ZM677 -1200V-1209H656V-1200ZM688 -1178Q654 -1170 643 -1140Q638 -1118 633 -1097Q638 -1092 661 -1092Q654 -1095 654 -1104Q654 -1116 668 -1142Q687 -1177 688 -1178ZM1188 -524V-549Q1188 -610 1145 -688Q1100 -770 1048 -791Q1134 -676 1134 -548Q1134 -535 1133 -524ZM380 -1116H184Q219 -1091 282 -1050Q317 -1075 380 -1116ZM666 -752Q644 -740 610 -717L624 -702Q640 -712 666 -752ZM1121 367Q1099 356 1003 287Q1032 235 1046 161Q1056 101 1065 41L1076 -284Q1076 -412 1063 -526Q1058 -575 1034 -656Q1013 -689 974 -708Q947 -721 947 -750Q947 -781 969 -825Q963 -825 951 -828.5Q939 -832 934 -832Q908 -881 908 -890Q908 -926 920 -951Q947 -1006 947 -998Q942 -1007 854 -1032Q770 -1056 751 -1056Q748 -1056 678 -951Q689 -945 711.5 -934.5Q734 -924 745 -918Q742 -881 734 -821Q775 -819 852 -805V-756Q852 -706 813 -687Q763 -662 741 -594Q713 -506 708 -412Q706 -328 704 -245Q699 -146 681 1Q678 3 669 10Q556 -155 476 -253Q444 -296 412 -338Q369 -388 324 -388Q251 -388 251 -293Q251 -242 258 -222Q323 -35 442 287Q381 316 263 367ZM374 -406Q373 -422 351.5 -444Q330 -466 315 -466H218Q225 -437 248 -394Q292 -416 316 -416Q338 -416 374 -406ZM846 -952Q834 -940 834 -933Q807 -942 757 -956V-977Q762 -977 778 -985.5Q794 -994 801 -994Q816 -994 828 -978Q837 -965 846 -952Z"/>
</svg>