<svg xmlns="http://www.w3.org/2000/svg" viewBox="0 -2048 2048 2048">
	<path fill="#000000" d="M1135 -513H1036V-523Q1036 -713 915 -822Q908 -810 905 -741Q962 -720 983 -682Q999 -653 1014 -527Q1026 -419 1026 -361Q1026 -331 1017 -65Q1010 139 960 238L1124 339Q1109 355 1100 355L118 351V332L348 230Q287 73 175 -245Q165 -277 165 -346Q165 -354 170 -368Q175 -382 176 -389Q157 -433 121 -523Q148 -523 155 -528Q174 -672 174 -688Q174 -731 144 -743V-774H168Q164 -792 145 -793V-824H168V-825Q168 -842 144 -839V-873Q155 -879 168 -880Q165 -898 145 -892Q144 -907 145 -915Q135 -915 112 -909L103 -918L100 -956L105 -968H114Q125 -968 146.5 -965Q168 -962 179 -962Q179 -962 190 -964Q115 -1092 115 -1126Q115 -1159 145 -1183Q174 -1204 208 -1204Q244 -1204 274.5 -1176.5Q305 -1149 305 -1114Q305 -1076 236 -960Q218 -960 319 -975V-912Q296 -917 281 -920V-892Q265 -893 254 -880Q267 -878 281 -875V-844Q258 -842 250 -825Q258 -824 282 -824L277 -786Q270 -787 268 -787Q254 -787 251 -774Q255 -773 282 -774L278 -738Q246 -732 246 -691Q246 -665 254 -596Q264 -517 271 -510Q271 -510 289 -496Q312 -478 318 -453Q327 -419 334 -408Q354 -390 391 -350Q461 -257 600 -71Q608 -166 617 -342Q619 -412 621 -481Q625 -563 642 -618Q647 -635 674 -671.5Q701 -708 715 -718Q727 -723 752 -735Q754 -754 759 -792Q727 -799 666 -804Q635 -763 573 -679Q545 -692 502 -728Q559 -757 642 -821Q653 -836 653 -894V-906Q632 -915 610 -924Q585 -936 585 -958Q585 -961 595 -973Q634 -1018 643 -1056Q583 -1062 544 -1075V-1104Q544 -1114 547.5 -1133Q551 -1152 551 -1161Q559 -1167 578 -1177Q558 -1181 524 -1186Q543 -1230 567 -1230Q578 -1230 599 -1227Q620 -1224 628 -1223Q649 -1187 649 -1179Q649 -1170 616 -1106Q625 -1100 654 -1086Q656 -1099 663 -1125Q706 -1250 862 -1374Q876 -1383 900 -1406Q912 -1424 912 -1439Q912 -1443 906 -1453Q900 -1463 900 -1469Q900 -1485 904.5 -1496.5Q909 -1508 941 -1526.5Q973 -1545 988 -1545Q1020 -1545 1039 -1517Q1058 -1489 1058 -1456Q1058 -1451 1053 -1431Q1008 -1412 1008 -1366Q1008 -1340 1014 -1289.5Q1020 -1239 1020 -1213Q1020 -1142 1001 -1043Q979 -928 948 -884Q935 -865 930 -849Q942 -843 961 -836Q1106 -783 1127 -581Q1135 -505 1135 -513ZM1036 -1456Q1036 -1519 988 -1519Q969 -1519 946 -1503.5Q923 -1488 923 -1470Q923 -1464 929 -1454.5Q935 -1445 935 -1439Q935 -1417 921 -1395Q913 -1383 854 -1334Q677 -1187 676 -1077Q692 -1074 778 -1057Q817 -1049 856 -1042Q899 -1027 899 -985Q899 -967 881.5 -950.5Q864 -934 864 -898Q864 -890 878 -859L906 -854Q997 -996 997 -1213Q997 -1239 991.5 -1290Q986 -1341 986 -1367Q986 -1407 1011 -1431Q1036 -1455 1036 -1456ZM627 -1179Q627 -1207 566 -1207Q561 -1207 559 -1203Q620 -1195 620 -1177Q605 -1169 574 -1151Q573 -1145 570 -1130Q567 -1115 567 -1107V-1091Q582 -1087 613 -1081L590 -1096Q603 -1123 627 -1179ZM1111 -539Q1098 -633 1094 -648Q1082 -692 1046 -748Q1029 -774 1016 -785Q1003 -796 954 -815Q1059 -703 1059 -539ZM613 -772L538 -727Q552 -717 566 -709ZM262 -1119Q262 -1163 204 -1163Q155 -1163 155 -1123Q155 -1076 210 -993Q262 -1103 262 -1119ZM298 -937V-947Q284 -945 242 -941Q272 -937 278 -937ZM245 -903H183Q185 -898 189 -880H228Q233 -892 245 -903ZM182 -941Q151 -945 146 -945H126V-935Q139 -937 182 -941ZM245 -853H174Q182 -845 191 -825H227Q230 -839 245 -853ZM238 -797H182Q188 -788 190 -775H228Q231 -783 238 -797ZM1061 328Q992 287 930 245Q991 145 994 -54L1000 -428Q1000 -450 985.5 -554.5Q971 -659 965 -669Q952 -690 927 -705Q905 -717 882 -730Q880 -765 896 -832Q841 -840 841 -897Q841 -944 876 -974Q877 -982 877 -985Q877 -1019 815 -1029Q767 -1037 670 -1054Q654 -1018 608 -957Q609 -946 642.5 -935Q676 -924 676 -906Q676 -907 665 -827Q705 -826 783 -808Q783 -774 771 -722Q764 -711 751 -707Q731 -702 727 -699Q717 -693 691.5 -656Q666 -619 662 -606Q652 -568 642 -419Q639 -295 622 -50Q620 -33 612 -23Q531 -121 443 -242Q391 -313 384 -323Q342 -376 317 -392Q289 -410 244 -410Q188 -410 188 -310Q188 -247 341 144Q356 174 376 235Q346 258 188 328ZM247 -524Q224 -615 224 -704Q224 -725 243 -747H182Q199 -716 199 -702Q199 -674 178 -529Q203 -533 213 -533Q221 -533 247 -524ZM306 -422Q303 -436 291 -463Q281 -478 254.5 -494Q228 -510 211 -510Q200 -510 182 -506Q161 -502 153 -501L190 -412Q215 -434 275 -434Q282 -434 306 -422ZM777 -940Q736 -946 677 -963Q718 -995 728 -995Q753 -995 777 -940ZM740 -967Q735 -973 731 -973H729Q725 -973 721 -971Z"/>
</svg>