<svg xmlns="http://www.w3.org/2000/svg" viewBox="0 0 557 1000">
  <g transform="scale(1,-1) translate(0,-1000)">
    <path d="M78 443Q81 443 83.5 442.5Q86 442 88.5 441.0Q91 440 93.0 438.5Q95 437 99.0 434.0Q103 431 105.0 429.0Q107 427 112.5 422.5Q118 418 122 415Q151 390 193.0 345.5Q235 301 260 278L326 568Q324 569 317.5 573.0Q311 577 309 578Q288 550 234 486Q232 484 227 484Q217 484 208.0 492.0Q199 500 199 511V512Q199 519 213.5 536.0Q228 553 249.5 575.0Q271 597 276 603Q247 638 247 670Q247 684 252.5 698.0Q258 712 264.0 720.5Q270 729 283 746Q284 747 288.5 749.5Q293 752 297.0 761.0Q301 770 311 794Q320 822 341.5 847.0Q363 872 396.0 900.5Q429 929 433 933Q438 937 449.5 956.0Q461 975 475.0 987.5Q489 1000 508 1000Q529 1000 543.0 985.5Q557 971 557 947Q557 932 548.5 910.5Q540 889 539 882Q539 880 535.5 846.0Q532 812 527.5 777.5Q523 743 513.0 701.0Q503 659 490 635L493 619Q493 615 493.5 572.0Q494 529 496 464Q494 348 478.0 240.0Q462 132 462 118Q462 92 465.5 80.5Q469 69 479.5 55.5Q490 42 498 26Q500 22 500 18Q500 12 495.0 6.0Q490 0 483 0H17Q0 0 0 18Q0 29 27.5 62.5Q55 96 58 122Q60 146 60 154Q60 188 47.0 255.0Q34 322 34 362Q34 392 48.0 417.5Q62 443 78 443ZM339 761Q339 752 357.0 747.0Q375 742 396.0 739.0Q417 736 435.0 724.0Q453 712 453 691Q453 685 451.0 675.5Q449 666 449 662Q449 655 456 646Q468 667 478.0 707.5Q488 748 492.5 782.5Q497 817 500.5 851.0Q504 885 504 887Q507 903 514.5 920.5Q522 938 522 947Q522 965 508 965Q501 965 493.0 956.0Q485 947 475.5 931.5Q466 916 458 908Q449 899 413.0 869.0Q377 839 361.0 817.0Q345 795 339 764ZM336 701Q345 701 351.5 694.0Q358 687 358 678Q358 660 334 660Q325 660 318.5 666.5Q312 673 312.0 682.0Q312 691 319.0 696.0Q326 701 336 701ZM428 118Q428 137 445.0 253.5Q462 370 462 484Q462 506 460 560Q446 558 442 558Q404 554 391.0 554.0Q378 554 358 558L290 254Q283 237 262 237H261Q248 237 221.0 265.0Q194 293 154.0 334.5Q114 376 80 398Q69 398 69 362Q69 324 81.5 258.0Q94 192 94 154Q94 123 87.5 100.5Q81 78 74.5 68.0Q68 58 51 36H451Q437 57 432.5 72.0Q428 87 428 118ZM312 735Q278 687 278 672Q278 649 312.5 617.0Q347 585 391 585Q428 585 458 591Q467 593 467 607Q464 606 459 606Q436 612 425.0 628.5Q414 645 414 662Q414 669 416.0 679.0Q418 689 418 691Q418 692 417 693Q406 703 366.0 709.5Q326 716 312 735Z" fill="currentColor"/>
  </g>
</svg>