<svg xmlns="http://www.w3.org/2000/svg" viewBox="0 -2048 2048 2048">
	<path fill="currentColor" d="M1503 -1455Q1503 -1451 1482.5 -1408Q1462 -1365 1461 -1346Q1460 -1334 1466 -1295Q1473 -1249 1474 -1232Q1477 -1185 1477 -1155Q1477 -879 1347 -879H1141Q1134 -879 1091 -870Q1006 -852 974 -804Q946 -762 946 -675Q946 -609 970.5 -497Q995 -385 995 -350Q995 -275 833 -252Q746 -246 660 -241Q619 -236 578 -230Q528 -219 505 -182Q496 -167 492 -132Q485 -75 485 -73Q456 30 401 238Q397 254 412 302Q406 355 362 355Q343 355 310 333Q301 341 248 351Q201 360 187 360Q183 360 150 357Q117 354 101 354Q98 346 100 290Q103 288 195 269Q258 256 284 203Q299 173 306 107Q310 55 314 2Q331 -162 374 -288Q379 -304 405 -331Q434 -362 456 -369Q653 -433 674 -449Q717 -481 717 -601Q717 -868 506 -868Q500 -868 454 -865.5Q408 -863 400 -863Q260 -863 222 -913Q205 -935 201 -984Q197 -1023 194 -1062Q192 -1076 196 -1139Q205 -1274 201 -1302Q197 -1333 180 -1399Q165 -1458 165 -1464Q165 -1476 194 -1550H224Q239 -1526 227 -1474Q217 -1430 249 -1403Q258 -1423 276 -1463Q281 -1463 294 -1460Q307 -1457 312 -1457V-1395Q312 -1388 298.5 -1364Q285 -1340 285 -1333Q285 -1372 325 -1014Q326 -1012 333 -1006Q362 -994 392 -994L773 -1032Q777 -1036 777 -1046Q777 -1086 756 -1098Q755 -1099 701 -1115Q701 -1143 702 -1172Q697 -1207 662 -1225Q673 -1250 686 -1266Q794 -1398 804 -1407Q863 -1464 932 -1464Q988 -1464 1035.5 -1418Q1083 -1372 1083 -1313Q1083 -1223 935 -1083V-1031L1252 -1005Q1309 -1005 1334 -1010Q1377 -1268 1377 -1313Q1377 -1366 1366.5 -1389.5Q1356 -1413 1356 -1425Q1356 -1430 1359 -1442Q1362 -1454 1362 -1463H1403Q1408 -1450 1424 -1420Q1463 -1461 1432 -1550Q1434 -1550 1440 -1556Q1446 -1562 1454 -1562Q1477 -1562 1492 -1519Q1503 -1486 1503 -1455ZM1061 -1311Q1061 -1358 1021 -1397Q981 -1436 930 -1436Q893 -1436 850 -1409.5Q807 -1383 799 -1350Q853 -1338 946 -1307Q936 -1286 937 -1274Q968 -1256 968 -1245Q968 -1239 951.5 -1208Q935 -1177 935 -1171Q935 -1153 960 -1141Q1022 -1213 1028 -1223Q1061 -1269 1061 -1311ZM1467 -1507Q1469 -1498 1469 -1487Q1469 -1391 1417 -1391Q1413 -1391 1409 -1392Q1400 -1401 1391 -1412Q1408 -1364 1408 -1312Q1408 -1264 1389 -1171Q1366 -1058 1359 -997Q1357 -993 1317 -985.5Q1277 -978 1257 -978Q1251 -978 1168.5 -988.5Q1086 -999 1079 -999H913V-1099Q931 -1116 935 -1116Q908 -1157 908 -1174Q908 -1189 935 -1243Q924 -1251 904 -1270Q911 -1291 901 -1299L790 -1327Q765 -1307 695 -1237Q727 -1210 723 -1132Q750 -1126 792 -1110Q804 -1066 804 -1024Q804 -1014 800 -1010L384 -972Q309 -972 303 -997Q287 -1061 271 -1200Q258 -1314 258 -1335Q258 -1342 268 -1369Q279 -1401 282 -1414Q278 -1386 270 -1382Q270 -1382 247 -1382Q220 -1382 208 -1410Q202 -1434 195 -1458V-1436Q231 -1277 231 -1286Q231 -1279 225.5 -1223Q220 -1167 220 -1160V-1019Q220 -990 233.5 -951Q247 -912 260 -908Q314 -890 392 -890H539Q607 -890 671.5 -820Q736 -750 736 -680Q736 -664 740 -634.5Q744 -605 744 -601Q744 -565 724 -490Q711 -442 696 -433Q677 -422 500 -356Q418 -325 407 -305Q373 -243 356 -136Q346 -54 336 29Q331 79 327 129Q319 196 300 231Q271 286 134 308Q122 316 122 327Q112 327 141 330Q170 333 234 333Q248 330 279 317Q306 305 313 305Q320 305 337.5 319Q355 333 362 333Q381 333 387 308Q378 284 378 254Q378 211 402 137Q432 43 436 25Q451 -48 467 -145Q479 -218 524 -239Q563 -257 639 -260Q765 -264 818 -271Q880 -279 894 -282Q938 -294 960 -324Q968 -335 968 -364L919 -672Q922 -907 1168 -907H1347Q1393 -907 1420 -961Q1442 -1004 1444 -1057Q1450 -1203 1446 -1275Q1445 -1288 1438 -1320Q1432 -1349 1433 -1357Q1436 -1375 1456 -1418Q1473 -1455 1473 -1478Q1473 -1493 1467 -1507ZM842 -1224Q782 -1246 772 -1277Q776 -1277 790 -1283Q804 -1289 810 -1289Q826 -1289 842 -1254Z"/>
</svg>