<svg xmlns="http://www.w3.org/2000/svg" viewBox="0 -2048 2048 2048">
	<path fill="#000000" d="M1539 -672Q1539 -612 1492 -482Q1479 -419 1467 -356Q1449 -268 1404 -219H1370Q1358 -231 1358 -235Q1358 -239 1379 -267Q1400 -295 1397 -326L1383 -310Q1360 -310 1348 -313Q1336 -316 1337 -316Q1343 -341 1359 -383Q1362 -388 1404 -420Q1404 -481 1412 -595Q1413 -603 1420 -631Q1427 -655 1427 -662Q1427 -676 1363 -769Q1329 -816 1296 -864Q1293 -865 1289 -860Q1230 -687 1230 -648Q1230 -641 1254 -536Q1278 -431 1278 -424Q1278 -316 1133 -272Q1037 -250 940 -228Q931 -224 931 -206L958 -41V131Q958 215 968.5 247Q979 279 979 298Q979 346 931 346Q924 346 905.5 338Q887 330 880 330Q874 330 864 338Q854 346 848 346H708V307Q708 287 725 284Q757 278 790 272Q835 260 855 235Q862 226 862 207Q862 143 832 16Q813 -62 794 -141Q781 -225 771 -225Q766 -225 750.5 -219.5Q735 -214 727 -214Q689 -60 612 237Q616 252 620 285Q619 346 569 346Q563 346 539.5 338Q516 330 510 330Q503 330 456.5 338Q410 346 403 346Q365 346 345 334V288Q421 270 425 269Q474 252 492 219Q533 147 553 14Q565 -77 577 -169Q582 -211 607 -292Q624 -327 741 -380Q800 -404 859 -428Q926 -460 951 -511Q960 -529 973 -588Q984 -641 984 -654Q984 -692 933 -870Q676 -731 633 -731Q606 -731 580 -754Q531 -797 410 -996Q369 -999 317 -1015Q238 -1038 238 -1072Q238 -1080 250 -1104Q264 -1096 293 -1083Q295 -1091 295 -1100Q295 -1115 288 -1149.5Q281 -1184 281 -1202Q281 -1229 292 -1250Q279 -1250 250.5 -1244Q222 -1238 217 -1238Q167 -1238 100 -1276Q94 -1293 111 -1304Q166 -1339 225 -1339Q219 -1339 283 -1323Q297 -1321 302 -1326Q281 -1405 281 -1395Q281 -1415 298 -1463.5Q315 -1512 324 -1520H344Q378 -1473 378 -1404Q378 -1365 367 -1330Q363 -1318 371 -1318Q377 -1318 399 -1328.5Q421 -1339 427 -1339Q459 -1339 563 -1300V-1282Q539 -1243 438 -1243Q400 -1243 359 -1259Q359 -1244 368 -1211.5Q377 -1179 377 -1174Q377 -1173 349 -1061L404 -1066Q402 -1070 386.5 -1083Q371 -1096 371 -1102Q371 -1100 389 -1136Q407 -1131 440 -1109Q452 -1083 484 -1034Q637 -859 651 -859Q654 -859 868 -990Q919 -1021 977 -1036Q1024 -1048 1070 -1060V-1096Q1034 -1118 985 -1127Q985 -1129 987.5 -1137.5Q990 -1146 990 -1152Q990 -1163 947 -1278Q959 -1287 1083 -1414Q1145 -1478 1222 -1478Q1281 -1478 1319 -1459Q1340 -1449 1367.5 -1413.5Q1395 -1378 1395 -1358Q1395 -1208 1229 -1095V-1039Q1263 -1038 1325 -1011Q1375 -964 1452 -852Q1539 -723 1539 -672ZM1368 -1358Q1368 -1403 1310 -1430Q1265 -1451 1214 -1451Q1128 -1451 1091 -1378Q1092 -1378 1175 -1351Q1228 -1334 1226 -1304Q1256 -1291 1256 -1272Q1256 -1265 1240 -1228Q1224 -1191 1224 -1184Q1224 -1152 1251 -1152Q1289 -1152 1331 -1239Q1368 -1317 1368 -1358ZM1391 -371L1384 -374L1377 -361L1385 -357ZM355 -1395Q355 -1398 337 -1488Q307 -1451 307 -1398Q307 -1366 334 -1323Q355 -1357 355 -1395ZM526 -1288Q466 -1312 435 -1312Q453 -1312 361 -1289Q377 -1270 435 -1270Q476 -1270 526 -1288ZM1512 -659Q1512 -722 1424 -850Q1340 -971 1287 -1001Q1287 -1001 1203 -1018V-1092Q1203 -1121 1235 -1134Q1198 -1147 1198 -1179Q1198 -1186 1213.5 -1214.5Q1229 -1243 1229 -1250V-1274Q1216 -1279 1192 -1295Q1192 -1298 1194.5 -1305.5Q1197 -1313 1197 -1316L1077 -1355Q1044 -1327 979 -1274Q981 -1263 999 -1209Q1013 -1168 1012 -1143Q1039 -1138 1092 -1117V-1033L1087 -1029Q1004 -1028 896 -974Q860 -956 714 -867Q710 -865 677 -840Q653 -822 646 -822Q640 -822 633 -831Q594 -881 463 -1023Q463 -1023 444 -1061Q435 -1053 421 -1041Q409 -1040 377 -1040Q371 -1040 286 -1055Q309 -1035 421 -1022Q464 -955 506 -888Q589 -758 633 -758Q665 -758 805.5 -830Q946 -902 944 -902Q956 -902 953 -897Q958 -867 985 -765Q1006 -688 1006 -643Q1006 -599 994 -545Q979 -481 959 -465Q915 -431 750 -355Q803 -357 861 -333Q930 -305 954 -257Q1019 -270 1148 -303Q1238 -332 1249 -376Q1251 -384 1251 -419Q1251 -474 1227 -548.5Q1203 -623 1203 -648Q1203 -690 1240 -793Q1277 -896 1296 -907Q1454 -706 1454 -662Q1454 -655 1447 -639Q1440 -623 1439 -617Q1436 -602 1428 -510Q1428 -474 1429 -438Q1427 -392 1406 -382Q1408 -380 1426 -367Q1438 -359 1438 -352Q1438 -349 1423 -289Q1431 -301 1441 -323Q1438 -346 1439 -386Q1442 -400 1483 -523Q1512 -611 1512 -659ZM302 -1288Q242 -1312 219 -1312Q172 -1312 137 -1285Q207 -1264 217 -1264Q245 -1264 302 -1288ZM350 -1176Q350 -1206 326 -1254Q307 -1233 307 -1190Q307 -1147 329 -1094Q350 -1150 350 -1176ZM952 313V284Q952 277 941.5 252Q931 227 931 221V28Q931 -79 929 -99Q927 -119 915.5 -169Q904 -219 904 -222Q904 -229 915 -240Q926 -251 926 -256Q926 -274 843 -315Q791 -269 803 -234L883 221Q876 297 734 311L849 319Q854 316 867 308.5Q880 301 885 298Q906 319 928 319Q946 319 952 313ZM808 -319Q790 -319 749 -325Q708 -331 704 -331Q645 -331 623 -265Q598 -190 595 -131Q585 87 524 220Q496 281 366 312L433 319Q445 317 476 307Q503 298 510 298Q517 298 538 308.5Q559 319 566 319Q585 319 593 302Q587 276 586 232Q628 78 708 -231Q730 -234 770 -253Q783 -265 808 -319ZM1144 -1271Q1133 -1271 1133 -1259Q1102 -1267 1059 -1299Q1078 -1318 1094 -1318Q1121 -1318 1144 -1271Z"/>
</svg>