<svg xmlns="http://www.w3.org/2000/svg" viewBox="0 -2048 2048 2048">
	<path fill="#000000" d="M1281 -588Q1279 -588 1275 -585Q1271 -582 1263 -582Q1263 -582 1241 -604Q1240 -603 1231 -599.5Q1222 -596 1216 -590L1232 -572Q1225 -572 1213 -560Q1191 -582 1186 -582Q1159 -582 1158 -568Q1156 -548 1141 -538L1043 -981L948 -711Q997 -685 1128 -520Q1265 -346 1265 -289Q1265 -209 1180 -209Q1097 -209 935 -275Q926 -256 926 -215Q926 -208 950.5 -66Q975 76 975 83Q975 145 948 208Q913 289 853 302Q846 304 809 317Q779 327 764 327Q695 327 568 182Q490 85 412 -12Q403 60 402 187Q402 198 407 223Q412 248 412 261Q412 286 398 304Q374 333 340 333Q333 333 319.5 324.5Q306 316 299 316Q293 316 278.5 323Q264 330 256 331Q185 338 179 338Q94 338 100 337V279Q160 262 220 245Q296 219 296 166Q296 128 265 30Q214 -131 214 -231Q214 -341 302 -341Q408 -341 658 -29L661 -32Q644 -275 583 -500Q518 -466 453 -431Q361 -385 313 -385Q289 -385 270 -414Q253 -438 253 -456Q253 -534 355 -680Q464 -834 543 -834Q550 -834 556 -833Q554 -831 554 -850Q554 -856 637 -1045Q650 -1075 713 -1100Q713 -1108 708 -1110.5Q703 -1113 696 -1113Q689 -1113 623.5 -1104.5Q558 -1096 551 -1096Q531 -1096 505 -1107Q476 -1119 470 -1136Q468 -1144 469 -1201Q471 -1247 450 -1268Q456 -1281 511 -1287Q516 -1303 524 -1337.5Q532 -1372 537 -1388Q488 -1412 488 -1447Q488 -1480 522 -1490Q565 -1502 572 -1511H685Q674 -1477 674 -1449Q674 -1404 699 -1337Q712 -1370 712 -1422Q712 -1465 691 -1499Q697 -1506 709 -1516Q733 -1518 805 -1518Q902 -1518 946 -1502Q947 -1502 972 -1501Q1019 -1499 1019 -1447Q1019 -1427 1015 -1423Q1009 -1416 980 -1410Q980 -1410 1012 -1298Q1023 -1302 1039 -1302Q1056 -1302 1068 -1298Q1068 -1296 1071 -1293Q1074 -1290 1074 -1282Q1074 -1275 1067 -1263Q1060 -1251 1059 -1246Q1057 -1234 1061.5 -1212Q1066 -1190 1066 -1181Q1066 -1166 1038 -1139Q1010 -1112 995 -1114Q991 -1113 981 -1113Q978 -1113 958.5 -1115Q939 -1117 929 -1116Q923 -1115 906.5 -1109Q890 -1103 880 -1103Q821 -1103 821 -1103Q821 -1091 842 -1079Q868 -1066 874 -1057Q926 -978 926 -948Q926 -941 893 -840Q860 -739 860 -732Q860 -720 869 -702Q876 -705 916 -708Q985 -886 1049 -1063ZM991 -1466Q978 -1479 964 -1479Q926 -1479 926 -1433Q926 -1426 942.5 -1353.5Q959 -1281 959 -1274Q959 -1283 951 -1219Q947 -1181 960 -1173H974Q986 -1196 986 -1236Q986 -1243 967 -1334.5Q948 -1426 948 -1433Q948 -1439 961 -1452Q964 -1449 972.5 -1444Q981 -1439 984 -1436ZM1032 -1218V-1276H1022V-1218ZM838 -1422Q838 -1455 821 -1483L817 -1487Q808 -1459 808 -1443Q808 -1407 828 -1354Q838 -1379 838 -1422ZM996 -1138V-1147H938V-1138ZM931 -1263Q931 -1270 915 -1361.5Q899 -1453 899 -1460Q899 -1484 904 -1489H850V-1466Q850 -1460 854 -1449Q858 -1438 858 -1433Q858 -1448 845 -1324Q843 -1303 834 -1260H815Q783 -1415 788 -1495Q765 -1487 729 -1489Q740 -1460 740 -1426Q740 -1400 731 -1348Q722 -1296 722 -1267Q722 -1237 729 -1210Q713 -1210 704 -1213Q695 -1216 695 -1216L647 -1446Q653 -1461 651 -1489H587Q598 -1483 601 -1475Q609 -1442 609 -1414Q609 -1388 598 -1344Q587 -1300 587 -1269Q587 -1247 601 -1202Q619 -1145 641 -1145Q648 -1145 679.5 -1156Q711 -1167 718 -1167Q751 -1167 770 -1135Q795 -1173 819 -1173Q826 -1173 845.5 -1164.5Q865 -1156 871 -1156Q931 -1156 931 -1263ZM847 -1137Q845 -1137 839 -1141Q833 -1145 825 -1145Q821 -1145 806 -1130Q834 -1137 847 -1137ZM1232 -627L1087 -926L1152 -598Q1181 -607 1232 -627ZM807 -1127L799 -1129L787 -1104L795 -1101ZM587 -1438Q587 -1444 574 -1457Q559 -1474 543 -1474Q515 -1474 515 -1441Q515 -1433 527 -1425Q542 -1445 556 -1452Q565 -1434 565 -1422Q565 -1415 551 -1349.5Q537 -1284 537 -1277Q537 -1234 550 -1186Q556 -1174 567 -1151Q574 -1158 586 -1158Q565 -1221 565 -1258ZM752 -1108L746 -1129L738 -1127L744 -1108ZM517 -1239L510 -1261L503 -1258L509 -1239ZM899 -951Q899 -1004 852 -1044.5Q805 -1085 756 -1085Q679 -1085 636 -972L801 -955Q801 -953 798 -945Q795 -937 796 -935Q833 -903 833 -877Q833 -869 824 -855Q813 -836 811 -830Q837 -804 853 -801Q899 -939 899 -951ZM509 -1238Q503 -1234 496 -1231Q488 -1225 488 -1217Q488 -1201 503 -1181Q497 -1202 509 -1238ZM1238 -286Q1238 -311 1144 -449Q1067 -562 1038 -597Q978 -669 938 -674L849 -425Q882 -392 914 -385Q923 -448 930 -476Q945 -534 966 -549L1140 -307Q1140 -301 1136 -297Q1054 -317 897 -358Q878 -372 845 -390Q845 -368 833 -368Q826 -368 827.5 -371Q829 -374 822 -374Q808 -374 789 -356V-325Q804 -308 836 -308Q845 -308 863.5 -310.5Q882 -313 888 -313Q895 -313 1038.5 -272Q1182 -231 1189 -231Q1198 -231 1218 -254Q1238 -277 1238 -286ZM1095 -337Q1018 -423 967 -499Q954 -456 937 -375Q994 -361 1095 -337ZM701 -698Q694 -713 695 -734H624Q624 -764 607 -789H581Q590 -777 590 -767Q590 -732 500 -732Q444 -634 404 -549Q517 -625 560 -649Q648 -698 701 -698ZM948 97Q948 116 905 -136Q897 -186 898 -291Q876 -287 853 -282Q820 -277 808 -286Q800 -270 781 -248Q778 -251 774 -252.5Q770 -254 767 -257Q767 -261 784 -295Q762 -317 762 -335Q762 -368 804 -427Q809 -429 826 -429L909 -679Q850 -672 844 -678Q844 -678 837 -730Q833 -761 844 -771Q784 -784 784 -844Q784 -860 811 -880Q809 -882 803 -898Q757 -937 720 -937H626Q620 -907 587 -852Q633 -827 648 -763Q693 -763 711 -758Q729 -706 729 -686Q729 -678 725 -674Q640 -669 541 -608Q527 -600 365 -483Q362 -486 358 -487.5Q354 -489 351 -492Q394 -610 429 -676Q458 -714 492 -789Q431 -751 355.5 -631.5Q280 -512 280 -461Q280 -412 321 -412Q358 -412 441 -454Q585 -527 599 -533Q623 -462 645 -343Q691 -99 691 -7Q691 14 672 26Q588 -73 504 -172Q380 -313 302 -313Q231 -313 236 -234L318 160Q322 213 285 241Q263 258 204.5 276Q146 294 127 310H211Q254 313 304 283Q326 305 343 305Q356 305 384 276V-43Q384 -73 335 -146Q338 -149 344.5 -153Q351 -157 354 -160Q481 37 514 81Q679 305 762 305Q769 305 826 285Q948 242 948 97ZM718 -868Q705 -855 701 -855Q694 -855 673 -858Q652 -861 644 -861Q636 -861 636 -874Q636 -884 648.5 -897Q661 -910 671 -910Q708 -910 718 -868Z"/>
</svg>