<svg xmlns="http://www.w3.org/2000/svg" viewBox="0 -2048 2048 2048">
	<path fill="#000000" d="M1369 -737L1251 -424Q1273 -358 1273 -319Q1273 -276 1245 -228Q1229 -227 1203 -240Q1204 -244 1211 -276Q1217 -301 1217 -319Q1217 -343 1206 -362Q1202 -356 1196 -332Q1192 -314 1184 -314Q1144 -314 1144 -343Q1144 -348 1158.5 -386.5Q1173 -425 1174 -440Q1184 -583 1240 -740L1141 -936Q1090 -858 1090 -767Q1090 -727 1114.5 -663.5Q1139 -600 1139 -582Q1139 -577 1123 -527Q1106 -472 1102 -450Q1101 -444 1101 -322Q1101 -316 1103 -308.5Q1105 -301 1104 -295Q1097 -233 1101 -199Q1114 -155 1137 -71Q1149 -24 1149 47V199Q1149 204 1157 233.5Q1165 263 1165 273Q1165 329 1109 329Q1102 329 1062 321Q1022 313 1015 313Q861 313 861 313L855 266Q906 254 958 241Q1017 226 1058 187Q1050 62 947 -255H858Q836 -225 824 -187Q807 -122 772 -5Q742 56 695 177Q691 217 676 285Q662 324 621 324Q614 324 583.5 313.5Q553 303 546 303Q540 303 526 312.5Q512 322 504 323Q451 329 442 329Q404 329 362 312V266Q420 252 478 237Q552 215 585 149Q613 93 631 13Q644 -56 658 -124Q664 -160 679 -226Q707 -318 782 -521Q849 -700 849 -705Q849 -730 793 -925Q775 -881 765 -841Q760 -828 749 -798Q721 -707 638 -644Q588 -606 472.5 -552.5Q357 -499 312 -465V329H260V-449Q217 -491 217 -507Q217 -512 222.5 -544.5Q228 -577 228 -592Q250 -592 261 -602V-1198Q262 -1199 105 -1199V-1224Q150 -1216 185 -1223Q110 -1261 110 -1356Q110 -1417 179 -1468Q142 -1475 100 -1467V-1495H243V-1473Q136 -1424 136 -1351Q136 -1290 186 -1252Q228 -1220 276 -1220Q344 -1220 387.5 -1257Q431 -1294 431 -1362Q431 -1398 392.5 -1431Q354 -1464 308 -1472Q308 -1475 311 -1485Q314 -1495 314 -1498H484V-1467Q431 -1476 377 -1468Q453 -1423 453 -1359Q453 -1271 388 -1223Q423 -1216 478 -1224V-1199H314V-586Q315 -586 318 -584Q321 -582 329 -582Q340 -582 434 -648Q535 -719 585 -769Q596 -780 636 -902Q663 -975 712 -1115Q743 -1130 795 -1139Q838 -1147 882 -1154V-1195Q869 -1204 823 -1204Q815 -1231 820 -1279Q820 -1279 769 -1313Q801 -1370 867 -1486Q870 -1491 916 -1522Q966 -1557 981 -1557Q1048 -1557 1102 -1513Q1160 -1466 1160 -1402Q1160 -1354 1126 -1292Q1092 -1230 1052 -1205V-1154Q1079 -1156 1132 -1148Q1167 -1135 1209 -1068Q1282 -952 1319 -870Q1334 -836 1369 -737ZM1133 -1402Q1133 -1453 1089 -1491.5Q1045 -1530 989 -1530Q962 -1530 925 -1507Q907 -1496 883.5 -1470Q860 -1444 860 -1436V-1419Q980 -1402 983 -1402Q990 -1402 999 -1412.5Q1008 -1423 1015 -1423Q1033 -1423 1048.5 -1403.5Q1064 -1384 1064 -1367Q1064 -1359 1031 -1281L1044 -1268H1083Q1133 -1317 1133 -1402ZM1337 -729Q1328 -783 1319 -805Q1285 -894 1204 -1031Q1152 -1119 1120 -1126Q1088 -1126 1031 -1133Q1031 -1145 1028.5 -1170Q1026 -1195 1026 -1201Q1026 -1219 1032 -1224Q1042 -1231 1053 -1239Q1010 -1241 1010 -1284Q1010 -1291 1023.5 -1327Q1037 -1363 1037 -1370Q1037 -1387 1017 -1396Q1001 -1375 991 -1375Q940 -1375 856 -1396Q842 -1373 801 -1318Q830 -1310 855 -1291Q845 -1251 845 -1226Q885 -1226 903 -1216Q903 -1118 904 -1122Q860 -1119 816 -1117Q749 -1112 733 -1088Q714 -1059 674 -944Q656 -873 617 -774Q528 -649 324 -553Q337 -528 348 -523Q457 -574 566 -626Q689 -697 724 -798Q733 -831 751 -884Q760 -914 768 -943Q780 -978 802 -984Q822 -916 872 -716L1063 -765Q1073 -903 1137 -979H1151L1267 -742Q1201 -576 1201 -445Q1201 -423 1182 -395Q1188 -397 1194 -397Q1241 -397 1241 -309Q1241 -290 1237 -276Q1251 -318 1251 -324Q1251 -337 1224 -418ZM1178 -347V-372H1169V-347ZM1112 -582Q1112 -605 1068 -737Q1002 -721 877 -692Q785 -464 721 -283H1079Q1079 -298 1077 -350Q1075 -394 1076 -418Q1078 -450 1095 -515Q1112 -580 1112 -582ZM1144 273Q1144 265 1134.5 226.5Q1125 188 1124 176Q1127 117 1126 10Q1122 -42 1103 -126Q1074 -248 1073 -254H984Q984 -214 1005 -158Q1031 -85 1035 -69Q1085 156 1085 190Q1085 216 995 253Q938 275 881 296H969Q976 297 1003.5 292Q1031 287 1037 287Q1044 287 1071.5 295Q1099 303 1106 303Q1144 303 1144 273ZM313 -517Q313 -544 278 -544Q270 -544 244 -533V-497Q253 -480 273 -480Q283 -480 298 -493.5Q313 -507 313 -517ZM827 -254H711Q689 -125 668 3Q634 162 545 238Q530 251 471 262Q443 269 389 282V302H492Q499 302 522.5 289Q546 276 549 276Q556 276 586.5 289.5Q617 303 624 303Q642 303 649 290Q663 211 679 161Q698 121 729 49Q761 -59 827 -254ZM914 -1340Q907 -1332 907 -1327Q875 -1337 844 -1345Q867 -1380 884 -1380Q895 -1380 914 -1340Z"/>
</svg>