<svg xmlns="http://www.w3.org/2000/svg" viewBox="0 -2048 2048 2048">
	<path fill="#000000" d="M1619 -667Q1619 -649 1605 -631Q1478 -608 1387 -608Q1337 -608 1238 -619Q1224 -609 1224 -552Q1224 -512 1232 -464Q1244 -511 1255 -558Q1271 -598 1315 -598Q1386 -598 1386 -507Q1386 -481 1379 -432Q1372 -383 1372 -370Q1372 -357 1375 -351Q1387 -331 1405 -295Q1402 -295 1393 -289Q1357 -306 1348 -344Q1348 -344 1356 -441Q1362 -510 1356 -547Q1351 -576 1318 -576Q1274 -576 1265 -500Q1249 -376 1243 -360Q1215 -284 1125 -284H712V335H888V-84H1297V-432H1325V361H644V-273Q621 -246 606 -175Q586 -84 577 -61Q522 42 431 248Q434 276 433 317Q419 362 369 362Q362 362 330 354Q298 346 291 346Q284 346 227 354Q170 362 163 362Q155 362 100 350Q103 345 107 310Q168 294 282 244Q316 222 343 135Q380 4 460 -255Q472 -298 485 -340Q506 -398 538 -419Q564 -435 618 -442Q658 -446 699 -450Q783 -458 944 -492Q969 -501 976 -536Q980 -565 984 -593L948 -844Q949 -844 939 -854Q904 -799 869 -743Q827 -677 791 -648Q771 -632 726 -628Q694 -623 630 -617Q572 -614 481 -601Q447 -596 365 -580Q292 -566 286 -566Q242 -566 174 -594Q174 -598 177 -613.5Q180 -629 180 -634Q195 -634 224.5 -632Q254 -630 259 -630Q294 -630 328 -639V-643Q322 -646 293 -646L286 -652V-677Q307 -694 329 -694Q336 -694 363.5 -683Q391 -672 398 -672Q454 -672 645 -722Q694 -735 713 -753Q739 -777 827 -918Q901 -1037 944 -1049Q963 -1054 1055 -1056L1059 -1060V-1090Q1050 -1095 986 -1111Q970 -1125 969 -1153Q969 -1177 969 -1201Q950 -1206 915 -1217V-1234Q915 -1241 932 -1272Q954 -1308 958 -1319Q929 -1324 867 -1340V-1389Q867 -1406 888 -1427Q877 -1432 856 -1448Q871 -1478 891 -1478Q897 -1478 917.5 -1475Q938 -1472 946 -1472Q963 -1438 963 -1432Q963 -1433 931 -1369Q959 -1355 966 -1355Q965 -1355 1010.5 -1432.5Q1056 -1510 1115 -1510Q1122 -1510 1187 -1494Q1252 -1478 1259 -1478Q1263 -1478 1297 -1483Q1337 -1490 1373 -1493Q1373 -1497 1379 -1477L1214 -1140Q1239 -1132 1264 -1124Q1299 -1112 1318 -1087Q1337 -1057 1380 -997Q1415 -962 1483 -885Q1619 -714 1619 -667ZM1315 -1460Q1241 -1451 1256 -1451Q1249 -1451 1189.5 -1467Q1130 -1483 1123 -1483Q1052 -1483 1001 -1346Q1035 -1340 1069 -1334Q1108 -1326 1114 -1307Q1136 -1328 1147 -1328Q1159 -1328 1158 -1323ZM1319 -1429Q1267 -1387 1178 -1311Q1180 -1289 1173 -1244Q1166 -1195 1166 -1195Q1166 -1176 1190 -1152Q1223 -1196 1258 -1280Q1289 -1355 1319 -1429ZM1256 -1058Q1211 -1103 1193 -1109V-1068Q1217 -1066 1256 -1058ZM1459 -711L1312 -875Q1240 -751 1236 -684ZM1598 -669Q1392 -1035 1211 -1036Q1202 -1036 1177 -1050Q1176 -1082 1169 -1140Q1159 -1159 1142 -1193Q1158 -1289 1147 -1302Q1125 -1280 1110 -1280Q1094 -1280 1074 -1304Q1055 -1309 986 -1323Q978 -1295 942 -1240Q948 -1236 960 -1228Q991 -1232 996 -1202Q997 -1176 997 -1150Q998 -1139 1001 -1133Q1029 -1128 1081 -1112V-1044Q1034 -1039 954 -1022Q902 -1003 820 -863Q738 -723 666 -700Q613 -692 507 -676Q489 -673 442 -659Q399 -646 393 -646Q381 -646 361 -656Q373 -633 372 -628Q344 -607 294 -606Q253 -606 211 -606Q260 -587 291 -587Q267 -587 465 -622Q508 -630 646 -644Q684 -647 759 -658Q770 -666 781 -669Q848 -759 940 -902Q953 -896 964 -897L1006 -597Q1008 -565 988 -505Q982 -486 927 -464Q882 -445 843 -439Q730 -420 656 -418Q564 -415 539.5 -387Q515 -359 476 -228Q442 -111 380 92Q356 164 349 182Q327 239 308 255Q276 282 224 297Q178 310 133 322Q132 325 132 335H192Q199 335 247.5 327Q296 319 302 319Q309 319 334.5 330Q360 341 366 341Q402 341 404 308Q404 281 404 253Q420 190 505 29Q581 -113 586 -195Q587 -215 605 -255Q627 -304 646 -304H1109Q1124 -304 1161 -342Q1198 -380 1201 -403Q1208 -451 1208 -464Q1208 -471 1204 -496.5Q1200 -522 1199 -531Q1197 -547 1200 -573Q1202 -604 1202 -608Q1132 -592 1126 -592Q1113 -592 1077.5 -600.5Q1042 -609 1038 -612Q1040 -627 1052 -651Q1100 -644 1160 -654Q1123 -652 1123 -675Q1123 -683 1125.5 -688Q1128 -693 1128 -695Q1173 -698 1212 -689Q1239 -822 1312 -912Q1496 -714 1496 -696Q1496 -692 1487 -683L1232 -656Q1226 -656 1213.5 -658.5Q1201 -661 1193 -661V-636Q1179 -635 1419 -635Q1565 -635 1598 -669ZM1298 335V-21H959V335ZM1298 -45V-60H916V335H932V-45ZM688 334V-282H669V334ZM1053 -1243Q1032 -1246 996 -1255Q996 -1266 990 -1272Q1009 -1291 1024 -1291Q1041 -1291 1053 -1273Z"/>
</svg>