<svg xmlns="http://www.w3.org/2000/svg" viewBox="0 -2048 2048 2048">
	<path fill="#000000" d="M1439 -787Q1439 -746 1370 -727Q1331 -717 1292 -717Q1236 -717 1121 -740Q1118 -737 1118 -728Q1118 -721 1146 -641Q1174 -561 1174 -554Q1174 -549 1157 -475.5Q1140 -402 1140 -393Q1140 -387 1147 -361.5Q1154 -336 1155 -326Q1150 -289 1153 -220Q1201 -27 1209 163Q1210 178 1221.5 216.5Q1233 255 1233 272Q1233 288 1225 298Q1229 302 1421 297V393H100V302Q139 302 178 303Q218 301 250 280Q254 272 249 236Q249 236 285 202V-544Q240 -585 240 -604Q240 -618 255 -636Q250 -651 252 -677Q266 -677 286 -687V-1168Q282 -1168 272 -1178L194 -976Q161 -987 161 -1018Q161 -1021 169 -1063Q177 -1105 176 -1125Q175 -1169 201.5 -1226.5Q228 -1284 255 -1340Q267 -1379 310 -1482Q315 -1480 322 -1475Q358 -1399 358 -1381Q358 -1373 351 -1344Q347 -1326 324.5 -1282.5Q302 -1239 302 -1232Q302 -1225 316 -1181.5Q330 -1138 330 -1131V-687Q351 -666 356 -666Q357 -666 399 -686Q469 -716 538 -746Q612 -781 644 -828Q693 -916 743 -1004Q817 -1118 906 -1123Q914 -1125 927 -1132V-1168Q900 -1171 856 -1180Q842 -1191 844 -1227Q846 -1263 841 -1269Q803 -1287 786 -1292Q797 -1323 825 -1383Q811 -1389 780.5 -1396.5Q750 -1404 736 -1410Q736 -1451 752 -1491Q749 -1500 724 -1512Q743 -1550 761 -1550Q783 -1550 806 -1539Q837 -1525 837 -1502Q837 -1489 808 -1445Q817 -1428 833 -1426Q843 -1433 858 -1465Q875 -1503 884 -1515Q933 -1578 994 -1578Q1000 -1578 1065.5 -1564Q1131 -1550 1138 -1550Q1136 -1550 1246 -1561Q1248 -1555 1253 -1547L1084 -1210Q1135 -1193 1183 -1161Q1191 -1166 1228 -1237Q1263 -1302 1281 -1302Q1287 -1302 1306 -1299Q1325 -1296 1332 -1296Q1399 -1296 1399 -1347Q1399 -1370 1373 -1389Q1352 -1403 1343 -1403Q1324 -1403 1305 -1383Q1278 -1356 1273 -1353H1226V-1380Q1261 -1379 1290 -1405Q1319 -1431 1343 -1431Q1381 -1431 1404 -1396Q1422 -1369 1422 -1344Q1422 -1268 1343 -1268Q1337 -1268 1321 -1271Q1305 -1274 1298 -1274Q1285 -1274 1280 -1272Q1208 -1162 1208 -1142Q1208 -1136 1217.5 -1120.5Q1227 -1105 1228 -1097Q1232 -1073 1243 -1053Q1294 -991 1344 -928Q1439 -810 1439 -787ZM1191 -1531Q1164 -1521 1132 -1521Q1125 -1521 1059 -1535.5Q993 -1550 986 -1550Q918 -1550 871 -1416Q969 -1406 985 -1381Q988 -1383 1002 -1394Q1012 -1403 1019 -1403Q1032 -1403 1031 -1398ZM1179 -1482Q1133 -1446 1052 -1379Q1052 -1362 1045.5 -1317.5Q1039 -1273 1039 -1268Q1039 -1232 1065 -1223Q1121 -1319 1179 -1482ZM1168 -1137Q1156 -1149 1141 -1149Q1155 -1122 1161 -1122Q1167 -1128 1168 -1137ZM1118 -1135L1068 -1184V-1135ZM791 -1487Q782 -1487 764 -1469L772 -1426Q791 -1483 791 -1487ZM1404 -768Q1411 -808 1329 -912Q1254 -1008 1171 -1077L1056 -854Q1084 -840 1100 -841Q1108 -882 1117 -922Q1130 -976 1154 -987Q1216 -912 1326 -804L1317 -796H1223Q1216 -796 1134 -812.5Q1052 -829 1045 -829Q1045 -829 972 -795V-769L979 -762H1024Q1030 -762 1044 -767.5Q1058 -773 1064 -773Q1071 -773 1182.5 -759Q1294 -745 1301 -745Q1376 -745 1404 -768ZM1270 -826Q1208 -880 1154 -942Q1144 -903 1124 -842Q1147 -839 1197 -834Q1247 -829 1270 -826ZM1084 -743Q1079 -743 1066 -745Q995 -748 989 -718Q1003 -721 1036.5 -730.5Q1070 -740 1084 -743ZM1140 -1085Q1140 -1098 1134 -1099Q1088 -1108 1044 -1110Q1037 -1155 1042 -1199Q1011 -1237 1011 -1268Q1011 -1273 1016 -1311.5Q1021 -1350 1021 -1369Q984 -1353 980 -1353Q966 -1353 951 -1373Q917 -1380 855 -1392Q839 -1358 821 -1303Q828 -1304 834 -1304Q864 -1304 866 -1266Q868 -1214 877 -1203Q929 -1200 955 -1186Q955 -1114 940 -1101Q893 -1098 861 -1086Q802 -1064 768 -1001Q698 -870 692 -862Q669 -819 613 -757Q537 -711 353 -637Q353 -632 356.5 -618Q360 -604 360 -599Q380 -607 515 -649Q614 -679 655 -708Q709 -746 765 -827Q817 -904 835 -965Q846 -961 857 -950Q890 -804 911 -701Q943 -705 966 -737Q938 -751 938 -770Q938 -783 956 -826Q954 -846 956 -859Q963 -871 989 -870Q1022 -869 1027 -871Q1140 -1085 1140 -1085ZM330 -1378Q330 -1386 310 -1426Q304 -1391 274 -1333Q249 -1285 223 -1236Q235 -1233 252 -1225Q247 -1210 236 -1178H213Q208 -1133 197 -1049Q216 -1109 276 -1248Q330 -1373 330 -1378ZM1146 -545Q1146 -588 1126 -637Q1110 -674 1094 -711H1075Q1038 -703 1002 -695Q961 -685 957 -661Q941 -677 934 -677H917Q888 -621 803 -299H1129Q1127 -314 1121 -338Q1116 -354 1116 -374Q1116 -404 1131 -464Q1146 -524 1146 -545ZM1208 262Q1208 255 1198 217Q1188 179 1187 169Q1184 95 1172 -34Q1153 -114 1117 -272Q1069 -262 1028 -271V-231Q1028 -225 1058 -153Q1091 -74 1099 -44Q1135 97 1135 155Q1135 224 1060 257Q996 275 932 293L1065 301Q1074 299 1102 288Q1124 279 1132 279Q1139 279 1154.5 287.5Q1170 296 1177 296Q1208 296 1208 262ZM887 -689Q887 -715 840 -903Q773 -761 675 -690Q640 -665 518 -625Q479 -614 411 -591Q400 -587 342 -558V202Q342 234 382 301H419Q419 286 421 278Q426 274 492 249Q534 236 576 222Q631 201 648 170Q689 96 711 -10Q724 -90 753 -235Q775 -323 834 -515Q887 -685 887 -689ZM1107 155Q1107 74 1058 -67Q1004 -221 999 -272H928Q882 -190 866 -107Q854 -41 829 22Q741 247 741 237Q741 244 744 269Q747 294 747 301H909Q909 285 911 277Q913 274 1020 241Q1107 214 1107 155ZM330 -588V-615Q310 -633 308 -633Q284 -633 268 -602Q284 -571 305 -571Q310 -571 330 -588ZM892 -272H793Q748 -59 739 -22Q705 114 666 185Q645 224 602 241Q568 250 535 259Q506 270 448 290Q477 301 516 301Q599 301 659 273Q687 301 699 301Q721 301 721 271Q721 276 714 226Q745 162 795 46Q820 -23 841 -121Q858 -200 892 -272ZM1393 368V325H123V368ZM324 300Q311 280 311 245Q305 262 291 300ZM927 -1325Q927 -1316 919 -1308Q898 -1320 871 -1320Q871 -1323 868 -1332.5Q865 -1342 865 -1345Q884 -1364 898 -1364Q910 -1364 920 -1346Q927 -1332 927 -1325Z"/>
</svg>