<svg xmlns="http://www.w3.org/2000/svg" viewBox="24.4 -1632.6 2009.3 2042.3">
	<path fill="currentColor" d="M1958 -1227L1940 -1191Q1780 -1239 1780 -1239Q1762 -1239 1749 -1203Q1746 -1195 1701 -1020Q1694 -984 1686 -948Q1672 -898 1644 -885Q1625 -876 1460 -844Q1295 -812 1295 -641Q1295 -637 1322 -591Q1351 -541 1358 -515Q1354 -477 1356 -402Q1362 -361 1449 -236Q1483 -188 1584 -58Q1636 10 1753 148L1655 334H1571Q1569 320 1560 282Q1635 258 1635 183Q1635 131 1527 24Q1447 -56 1372 -109Q1337 -134 1277 -194Q1271 -182 1257 -92H1167Q1139 -183 1134 -183Q1086 -183 1008 -34Q979 20 924 127Q923 130 928 134Q1145 210 1171 210Q1178 210 1182 207.5Q1186 205 1193 205Q1214 205 1263 250Q1312 295 1343 292V327Q1338 334 1317 334Q1311 334 1222 306Q1115 272 1076 261Q1007 254 868 216Q859 225 859 229Q859 249 898 276Q919 290 940 303Q940 306 933 328Q870 328 841 296Q825 329 813 329Q806 329 790 323.5Q774 318 767 318Q760 318 701 326Q642 334 635 334Q629 334 596 328.5Q563 323 557 323Q552 323 531.5 328.5Q511 334 503 334Q487 334 468 317Q449 300 449 291Q449 275 627 86Q627 62 565 -4Q525 -45 484 -86L353 32L185 16Q180 16 164.5 24.5Q149 33 142 33Q123 33 110 0Q100 -25 100 -42Q139 -59 145 -59Q156 -59 190 -39Q192 -38 220 -38Q298 -38 311 -44Q338 -71 391 -123Q493 -198 493 -213Q493 -214 486 -233Q433 -278 433 -318Q433 -349 446 -370Q456 -386 476 -396Q450 -425 466 -460Q465 -462 439 -475V-494Q447 -497 460 -505Q460 -505 450 -565Q470 -565 480 -544Q488 -552 488 -565H508Q508 -553 512 -549Q511 -549 528 -566Q535 -559 546 -559Q545 -506 568 -506Q594 -506 673 -527Q777 -554 811 -588Q820 -597 853 -687Q896 -803 909 -833Q939 -903 1043 -936Q1043 -949 1044 -963Q1041 -979 1023 -989Q997 -991 969 -1004Q965 -1012 960 -1057Q924 -1084 924 -1096Q924 -1136 995 -1265Q1032 -1318 1100 -1426Q1118 -1466 1136 -1506Q1162 -1557 1196 -1557Q1210 -1557 1228.5 -1534.5Q1247 -1512 1247 -1500Q1247 -1493 1236 -1465Q1225 -1437 1225 -1430Q1225 -1423 1236 -1336Q1247 -1249 1247 -1242Q1247 -1200 1210 -1042Q1210 -1021 1209 -978Q1224 -964 1239 -964Q1246 -964 1301 -969.5Q1356 -975 1363 -975H1545Q1573 -975 1616 -1079Q1652 -1165 1660 -1210Q1662 -1221 1662 -1279Q1452 -1352 1438 -1352Q1432 -1352 1407 -1341.5Q1382 -1331 1376 -1331Q1333 -1331 1314 -1367Q1290 -1413 1279 -1419Q1283 -1431 1291 -1454Q1299 -1454 1307.5 -1451.5Q1316 -1449 1322 -1449Q1329 -1449 1343.5 -1460Q1358 -1471 1365 -1471Q1392 -1471 1429 -1441Q1440 -1433 1451 -1401Q1519 -1379 1658 -1331Q1667 -1347 1686 -1374Q1690 -1372 1700 -1359.5Q1710 -1347 1718 -1347Q1725 -1347 1723.5 -1349.5Q1722 -1352 1729 -1352Q1750 -1352 1772 -1330Q1775 -1314 1786 -1292Q1815 -1272 1868 -1255Q1913 -1241 1958 -1227ZM1759 -1293Q1759 -1316 1741 -1325H1711L1705 -1300Q1727 -1268 1740 -1261Q1759 -1271 1759 -1293ZM1425 -1380Q1419 -1444 1371 -1444Q1356 -1444 1341 -1427Q1324 -1407 1328 -1385Q1356 -1358 1382 -1358Q1403 -1358 1425 -1380ZM1225 -1250L1198 -1428Q1198 -1438 1209 -1463.5Q1220 -1489 1220 -1495Q1220 -1530 1193 -1530Q1180 -1530 1163 -1513Q1161 -1501 1154 -1480Q1133 -1434 1076 -1343Q1026 -1264 994 -1181Q1009 -1181 1040.5 -1177.5Q1072 -1174 1077 -1174Q1102 -1174 1111.5 -1182.5Q1121 -1191 1128 -1191Q1145 -1191 1172 -1181Q1172 -1173 1174.5 -1158Q1177 -1143 1177 -1137Q1177 -1130 1166 -1108.5Q1155 -1087 1155 -1080Q1155 -1073 1158 -1063Q1161 -1053 1161 -1051H1186Q1203 -1091 1212 -1149Q1218 -1199 1225 -1250ZM1742 -1238Q1729 -1240 1690 -1271Q1700 -1242 1651 -1101Q1598 -948 1545 -948H1283Q1277 -948 1244 -943Q1206 -938 1182 -936Q1194 -961 1181 -1028Q1132 -1022 1132 -1068Q1132 -1082 1138 -1112Q1144 -1142 1144 -1152Q1144 -1159 1142 -1164Q1139 -1161 1135.5 -1152.5Q1132 -1144 1130 -1142L984 -1158Q961 -1112 956 -1095Q988 -1073 990 -1053Q990 -1036 989 -1019Q1000 -1016 1022.5 -1013Q1045 -1010 1052 -1008Q1069 -947 1069 -934V-920Q1049 -907 1017 -897Q961 -880 925 -805Q901 -744 877 -682Q859 -629 828 -567Q778 -537 676 -509Q592 -485 573 -485Q568 -485 544.5 -486.5Q521 -488 509 -488Q552 -471 552 -445Q552 -436 547 -426Q633 -457 728 -477Q873 -507 910 -561Q924 -582 952 -659Q975 -722 1007 -749Q1035 -705 1056 -638Q1071 -585 1087 -533L1274 -632Q1269 -690 1288 -744Q1314 -816 1374 -838Q1487 -865 1617 -901Q1666 -928 1689 -1037Q1722 -1193 1742 -1238ZM1430 -205Q1380 -292 1366 -319Q1331 -385 1329 -412Q1335 -446 1336 -504Q1332 -523 1316 -549Q1297 -582 1281 -579L1274 -573Q1284 -404 1215 -255Q1318 -203 1353 -205ZM1246 -565Q1193 -543 1093 -500Q1082 -444 1067 -397Q1058 -367 978 -184H1028Q1161 -184 1215 -333Q1252 -433 1246 -565ZM1721 153L1450 -183Q1394 -174 1328 -181Q1416 -109 1504 -37Q1662 106 1662 178Q1662 205 1642 251Q1618 305 1592 300L1644 307ZM1252 -209Q1245 -211 1225 -224Q1205 -237 1198 -237Q1189 -237 1175 -220.5Q1161 -204 1161 -196Q1161 -180 1189 -114H1235Q1245 -173 1252 -209ZM1063 -489Q1045 -488 1022 -502Q999 -516 999 -533Q999 -559 1047 -567Q1027 -653 996 -700Q983 -671 963 -623Q923 -520 877 -497Q825 -471 727 -451Q622 -430 568 -407Q573 -402 582 -399Q603 -420 619 -420Q640 -420 812 -305Q847 -282 848 -267Q830 -245 736 -194Q654 -151 654 -126Q654 -88 736 -20Q785 20 835 59Q851 19 941 -179Q977 -255 1012 -331Q1051 -419 1063 -489ZM735 -277Q703 -306 642 -348Q619 -351 579 -360Q611 -312 611 -304Q611 -308 604 -252Q585 -242 585 -227ZM519 -415Q519 -455 518 -457H488Q488 -437 490.5 -423Q493 -409 493 -410Q496 -410 506 -412.5Q516 -415 519 -415ZM1279 298Q1252 271 1202 234Q1176 233 1132 225Q1046 198 904 151Q899 166 881 198Q952 209 1087 234Q1134 244 1193 266Q1274 296 1279 298ZM557 -342Q530 -382 509 -382Q490 -382 474 -354Q460 -330 460 -315Q460 -280 513 -248Q493 -294 493 -291Q493 -304 494 -298Q520 -314 557 -342ZM1053 -161H963Q943 -120 864 68Q801 220 683 274Q650 289 592 294Q591 297 590 307H683Q690 307 718.5 299Q747 291 754 291Q770 291 809 302Q847 194 926 55Q990 -53 1053 -161ZM860 271L852 263L847 268L854 276ZM824 91Q627 -68 627 -126Q627 -165 691 -201Q731 -220 771 -239Q788 -250 821 -272Q778 -297 698 -338Q733 -312 778 -267Q603 -194 579 -194Q563 -194 559.5 -213Q556 -232 552 -250Q569 -252 582 -304Q572 -280 557 -280Q551 -280 540.5 -284.5Q530 -289 525 -289Q541 -276 541 -259Q541 -239 516 -212Q518 -189 504 -178Q417 -104 331 -30Q303 -11 202 -11Q212 -11 149 -32Q149 -29 144 -14Q141 -1 144 5Q173 -5 196 -5Q261 -5 351 5Q408 -59 484 -118Q535 -68 585 -18Q649 50 649 89Q649 96 584 172Q502 267 482 294Q508 307 517 307Q535 307 567 295V276Q555 275 546 257Q560 245 681 154Q670 143 654 122Q668 108 672 108Q710 139 775 172Q803 130 824 91ZM756 190Q735 183 703 167Q665 197 589 256Q595 263 612 263Q647 263 693.5 240.5Q740 218 756 190ZM1047 -1105H1017Q1011 -1108 1000 -1116Q1000 -1120 994 -1130Q1011 -1130 1035 -1142Q1047 -1130 1047 -1105Z"/>
</svg>