<svg xmlns="http://www.w3.org/2000/svg" viewBox="-12 -1626 3024 2087">
	<path fill="currentColor" d="M2899 -54Q2899 -37 2875 -12Q2826 -30 2726 -69V335H2496V-35Q2489 -42 2472 -37Q2308 7 2103 43Q1866 76 1388 144L1375 156Q1396 266 1532 317Q1524 325 1524 349H1444Q1436 349 1411.5 345Q1387 341 1378 341Q1372 322 1359 284Q1329 211 1251 81Q1248 84 1248 274Q1265 285 1318 309V335H1171Q1171 321 1177.5 283Q1184 245 1184 237Q1184 159 1163 159L235 244Q196 244 172 228Q168 194 195 190Q248 182 845 124Q845 115 851.5 91Q858 67 858 59Q858 50 837 -17Q816 -84 816 -93Q816 -174 896 -293Q916 -322 994 -357Q982 -366 960 -389Q929 -436 929 -483Q929 -585 1046 -585Q1102 -585 1134 -539Q1159 -489 1184 -439Q1139 -411 1148 -374Q1142 -375 1113 -360Q1113 -351 1119 -346Q1176 -333 1264 -274Q1361 -209 1394 -151Q1426 -81 1494 60Q2183 -32 2552 -136Q2183 -278 1814 -420Q1322 -605 1102 -658Q1014 -685 926 -712Q750 -763 705 -763H686Q681 -758 681 -738Q681 -713 691 -653Q705 -575 725 -541Q733 -528 822 -492Q822 -489 818.5 -475.5Q815 -462 815 -458H750Q702 -456 656 -480Q657 -505 650 -553Q628 -626 577 -769H571Q552 -715 534 -660Q510 -589 510 -549Q510 -541 511 -533Q544 -513 589 -505Q581 -497 581 -466H457Q426 -477 426 -518Q426 -525 438.5 -560.5Q451 -596 452 -610Q460 -670 476 -794Q448 -812 394 -812Q395 -812 382 -810.5Q369 -809 322 -808Q253 -806 117 -805L100 -822V-845Q110 -863 152 -866Q185 -868 185 -915Q185 -924 164 -984Q143 -1044 143 -1053Q143 -1083 176.5 -1151Q210 -1219 231 -1237Q257 -1259 313 -1285Q249 -1413 249 -1422Q249 -1455 294 -1486Q334 -1514 362 -1514Q420 -1514 460 -1464Q495 -1421 504 -1360Q499 -1355 470 -1338Q472 -1302 440 -1289Q447 -1274 486 -1253Q529 -1229 550 -1200Q605 -1123 664 -1002Q680 -962 695 -922Q717 -868 744 -841Q759 -826 797 -819Q826 -814 856 -809Q938 -792 1097 -753Q1346 -680 1860 -484Q2572 -213 2701 -167L2883 -210Q2900 -175 2899 -154Q2874 -145 2821 -121Q2826 -115 2869 -94Q2899 -80 2899 -54ZM2870 -162Q2870 -169 2862 -181Q2829 -167 2743 -150Q2759 -142 2782 -142Q2814 -142 2870 -162ZM2878 -57Q2788 -111 2768 -111Q2759 -111 2745 -106Q2731 -101 2729 -101Q2837 -47 2860 -47Q2876 -47 2878 -57ZM2722 -120Q2703 -139 2690 -139Q2681 -139 2667 -134Q2653 -129 2651 -129ZM2696 313V-89H2656Q2647 -89 2600 -74Q2546 -57 2525 -53V313ZM2644 -156Q2201 -324 1759 -493Q1256 -683 1104 -729Q1040 -748 918 -774Q804 -798 790 -798H767Q767 -791 760 -778Q839 -763 974 -732Q1218 -658 1711 -477L2609 -146Q2618 -146 2630 -151Q2642 -156 2644 -156ZM2637 -108Q2630 -108 2618.5 -113Q2607 -118 2598 -118Q2589 -118 2411 -77Q2210 -30 2158 -20Q1991 12 1506 83Q1499 87 1489 101H1527Q1542 102 1817 59Q2109 12 2280 -20Q2339 -31 2637 -108ZM454 -1438Q402 -1485 366 -1485Q277 -1485 277 -1415Q277 -1382 311 -1344Q311 -1360 308 -1382.5Q305 -1405 305 -1410Q317 -1422 331 -1422Q340 -1422 343 -1414.5Q346 -1407 355 -1407Q365 -1407 401 -1420Q443 -1435 454 -1438ZM659 -845Q633 -909 576 -998Q527 -1071 479 -1145Q455 -1025 455 -1035Q455 -991 486 -962Q510 -939 574 -901.5Q638 -864 659 -845ZM737 -777V-803Q706 -851 651 -976Q598 -1095 559 -1150Q498 -1236 412 -1270V-1304Q415 -1307 437 -1321Q449 -1328 449 -1338Q449 -1345 445 -1354Q457 -1362 476 -1383Q454 -1405 448 -1405Q452 -1401 455 -1394Q458 -1387 462 -1383Q444 -1365 423 -1365Q407 -1365 411 -1370V-1400Q387 -1393 342 -1378Q342 -1349 327 -1319Q344 -1285 339 -1271Q310 -1258 258 -1230Q246 -1223 208 -1159Q164 -1086 164 -1053Q164 -1039 204 -926Q205 -923 205 -918Q205 -912 201 -898Q197 -884 197 -878Q197 -864 210 -855Q228 -873 228 -897Q228 -905 206.5 -967Q185 -1029 185 -1043Q185 -1070 225.5 -1136Q266 -1202 286 -1203Q327 -1095 327 -1031Q327 -1014 324 -1001Q303 -924 308 -893Q312 -867 366 -845Q411 -826 437 -826Q455 -826 489.5 -852.5Q524 -879 554 -879Q561 -879 568 -878Q533 -894 475 -933Q433 -975 433 -1043Q433 -1052 444 -1107Q457 -1172 460 -1195Q485 -1183 495 -1168Q617 -984 697 -829Q696 -821 700 -805.5Q704 -790 704 -785Q728 -785 737 -777ZM1128 -507Q1108 -525 1088 -543Q1069 -557 1039 -557Q1006 -557 981 -539Q951 -517 951 -479Q973 -427 992 -416V-442Q976 -454 979 -470Q985 -497 985 -494H1017Q1026 -494 1028 -486.5Q1030 -479 1039 -479Q1053 -479 1128 -507ZM1410 72Q1410 65 1408 56Q1399 51 1391 40Q1394 33 1394 19Q1370 -30 1316 -116Q1247 -205 1165 -224L1115 -34Q1142 -40 1192 -40Q1248 -40 1287 -9Q1311 10 1336 50Q1356 81 1365 81Q1373 81 1388.5 76.5Q1404 72 1410 72ZM1468 78Q1439 -1 1365 -145Q1329 -199 1248 -255Q1167 -311 1111 -318Q1102 -326 1085 -341V-376Q1100 -383 1125 -397Q1120 -403 1120 -411Q1120 -444 1156 -446Q1152 -450 1143 -462.5Q1134 -475 1130 -479Q1130 -475 1132.5 -467.5Q1135 -460 1135 -456Q1116 -437 1096 -437Q1080 -437 1085 -442Q1085 -446 1088 -456.5Q1091 -467 1091 -471Q1064 -464 1015 -449Q1023 -415 1000 -390Q1018 -372 1019 -367Q1018 -369 1012 -343Q973 -323 911 -272Q886 -238 860 -172Q837 -113 837 -97Q837 -88 862 -11.5Q887 65 887 74Q887 73 879 93Q873 109 881 130Q894 130 908 121Q901 77 882 -9Q866 -81 866 -89Q866 -127 891 -178Q921 -238 967 -274Q1014 -149 1014 -107Q1014 -98 996.5 -40Q979 18 979 27Q979 95 1050 95Q1083 95 1158 55Q1210 27 1262 -2Q1228 -4 1114 -4Q1085 -4 1085 -26Q1085 -47 1150 -247Q1155 -250 1167 -260Q1211 -231 1254 -202Q1304 -169 1324 -141Q1382 -61 1400 -31Q1439 36 1441 87Q1459 87 1468 78ZM745 -496Q681 -544 668 -653Q653 -787 609 -854H554Q660 -670 683 -487Q716 -498 745 -496ZM1431 115Q1431 108 1423 95Q1399 103 1363 103Q1363 110 1371 123Q1395 115 1431 115ZM306 -1035Q306 -1045 293 -1090Q277 -1144 274 -1159Q254 -1128 234 -1096Q214 -1064 214 -1028Q214 -1027 257 -877H283Q283 -906 294.5 -968Q306 -1030 306 -1035ZM1482 318Q1417 302 1398 274Q1376 241 1343 148Q1314 63 1282 27Q1275 25 1256 33L1398 303Q1428 318 1482 318ZM547 -787Q547 -844 514 -847L490 -823Q506 -796 506 -775Q506 -764 493 -714Q478 -659 473 -596Q473 -590 464 -572.5Q455 -555 455 -546V-494Q472 -494 495.5 -491.5Q519 -489 525 -489Q483 -498 483 -550Q483 -559 515 -668.5Q547 -778 547 -787ZM310 -841L244 -847L236 -827H295Q307 -826 312 -834Q317 -841 310 -841ZM1255 312Q1236 302 1221 282Q1229 162 1217 52Q1207 57 1198 63Q1184 70 1184 81Q1184 91 1189.5 103.5Q1195 116 1196 120Q1210 190 1203 268Q1200 299 1186 312ZM993 115Q951 57 951 35Q951 26 968.5 -34.5Q986 -95 986 -104Q986 -137 954 -217Q947 -202 910 -151Q894 -127 894 -86Q894 -58 903 14Q915 36 934 72Q936 77 934 99Q937 107 940 115ZM184 -827Q184 -848 164 -848Q154 -848 142.5 -842.5Q131 -837 129 -837ZM1170 134L1139 123Q1015 134 901 155ZM887 153H798Q365 196 207 219Q378 206 887 153Z"/>
</svg>