<svg xmlns="http://www.w3.org/2000/svg" viewBox="0 -2048 2048 2048">
	<path fill="currentColor" d="M2777 -202Q2777 -187 2765 -178Q2217 341 1516 359Q1502 359 1451 364.5Q1400 370 1394 370Q1407 370 1250 356Q570 295 100 -201L415 -378Q380 -436 272 -534Q271 -535 249 -535Q244 -535 196 -529Q166 -525 133 -534Q140 -576 200 -649Q265 -728 307 -728H347Q343 -700 339 -672Q336 -636 349 -617Q391 -557 471 -479Q595 -357 602 -350L304 -179Q366 -138 490 -61Q517 -46 668 21Q835 94 856 94Q863 94 872.5 87.5Q882 81 886 80Q921 75 955 69Q1002 59 1020 29Q1043 -9 1062 -157Q1071 -233 1080 -308Q1094 -395 1123 -467Q1135 -498 1216 -536Q1286 -563 1426 -619Q1463 -635 1463 -723Q1463 -783 1444.5 -875Q1426 -967 1410 -993Q1362 -950 1315 -907Q1249 -850 1207 -850Q1180 -850 1159 -885Q1143 -912 1143 -930Q1143 -971 1209 -1114Q1261 -1229 1288 -1273Q1302 -1297 1327 -1311Q1344 -1321 1415 -1335Q1415 -1347 1421 -1368Q1465 -1420 1581 -1542Q1602 -1562 1659 -1562Q1719 -1562 1765 -1517Q1811 -1472 1811 -1413Q1811 -1335 1673 -1211V-1162Q1693 -1157 1727 -1145Q1749 -1134 1788 -1103Q1820 -1077 1877 -978Q1938 -872 1938 -825Q1938 -823 1920 -691Q1901 -552 1897 -499Q1896 -483 1870 -443Q1839 -397 1814 -397Q1798 -397 1783 -427Q1784 -434 1810 -458Q1836 -482 1836 -500Q1836 -504 1835 -508L1820 -491H1785Q1782 -496 1782 -503Q1782 -518 1804 -557Q1828 -601 1831 -616Q1833 -626 1833 -720Q1833 -735 1834 -757Q1834 -779 1834 -786Q1834 -826 1814.5 -862Q1795 -898 1720 -988Q1679 -865 1679 -808Q1679 -801 1701 -673Q1723 -545 1723 -538Q1723 -491 1709 -475Q1695 -459 1651 -453Q1616 -450 1582 -447Q1512 -438 1496 -435Q1441 -424 1402 -404Q1398 -372 1415 -313Q1437 -240 1439 -224Q1445 -166 1465 -53Q1466 -48 1483 -14Q1498 14 1498 32Q1498 38 1496 44Q1345 133 1316 132H1249V84Q1369 56 1369 -33Q1369 -70 1346 -132Q1328 -180 1310 -228Q1288 -300 1250 -403Q1220 -370 1202 -262Q1179 -125 1155 -62Q1136 -14 1136 19Q1136 30 1139 48Q1142 66 1142 77Q1142 84 1141 92Q1136 133 1091 133Q1085 133 1066.5 127.5Q1048 122 1041 122Q1021 122 1005 130Q1162 166 1483 166Q1665 166 1709 161Q1813 149 2023 85Q2190 34 2218 24Q2325 -16 2414 -80Q2468 -113 2578 -184L2297 -344Q2343 -408 2430 -518Q2471 -550 2532 -622Q2541 -641 2541 -679Q2540 -731 2541 -739Q2678 -704 2738 -538V-519Q2647 -535 2622 -535Q2599 -535 2531 -462Q2497 -422 2462 -383ZM1783 -1421Q1783 -1460 1743 -1500Q1703 -1540 1662 -1540Q1627 -1540 1602 -1521Q1586 -1508 1546 -1459Q1604 -1444 1673 -1415Q1662 -1404 1662 -1392Q1701 -1374 1701 -1344Q1701 -1336 1692 -1309Q1682 -1279 1681 -1270L1690 -1264Q1783 -1376 1783 -1421ZM1512 -1171V-1219Q1449 -1229 1449 -1275Q1449 -1282 1451 -1290Q1427 -1287 1380 -1272Q1403 -1249 1408 -1234Q1361 -1196 1322 -1174Q1309 -1125 1280 -1032Q1431 -1176 1512 -1171ZM1916 -828Q1916 -865 1820 -1014Q1780 -1077 1738 -1107Q1719 -1121 1645 -1136V-1216Q1649 -1223 1667 -1239Q1655 -1246 1655 -1263Q1655 -1273 1663.5 -1305Q1672 -1337 1673 -1357Q1659 -1365 1635 -1379Q1633 -1391 1627 -1405Q1615 -1408 1577 -1423Q1544 -1435 1538 -1435Q1531 -1435 1498 -1405Q1459 -1369 1447 -1362V-1343Q1481 -1302 1481 -1262Q1481 -1257 1480 -1254Q1504 -1245 1541 -1232V-1146L1537 -1142Q1471 -1136 1455 -1132Q1409 -1120 1370 -1084Q1320 -1032 1229 -949L1220 -958Q1244 -1018 1269 -1078Q1298 -1153 1299 -1193Q1323 -1206 1369 -1234Q1364 -1234 1356.5 -1232.5Q1349 -1231 1342 -1231Q1320 -1231 1320 -1243Q1336 -1263 1366 -1295Q1320 -1284 1299 -1240Q1261 -1170 1222 -1101Q1171 -1003 1171 -941Q1171 -909 1178 -900Q1199 -872 1212 -872Q1248 -872 1333.5 -954.5Q1419 -1037 1422 -1037Q1435 -1037 1431 -1033Q1485 -786 1485 -714Q1485 -645 1473 -628Q1456 -604 1409 -588Q1373 -577 1338 -566Q1313 -554 1209 -510Q1261 -502 1314 -493Q1375 -479 1399 -436Q1494 -453 1682 -487Q1686 -490 1701 -521L1651 -819Q1662 -897 1672 -931Q1688 -992 1716 -1025Q1721 -1027 1724 -1027Q1759 -984 1793 -942Q1861 -854 1861 -830V-621Q1861 -617 1823 -541Q1834 -552 1844 -552Q1866 -552 1866 -524Q1866 -489 1825 -437Q1861 -458 1869 -517.5Q1877 -577 1884 -637Q1916 -775 1916 -828ZM1824 -538L1816 -541L1809 -527L1817 -523ZM2738 -196L2418 -373Q2592 -563 2603 -563Q2618 -563 2705 -547V-566Q2697 -600 2643.5 -652.5Q2590 -705 2557 -705Q2557 -626 2554 -605Q2445 -508 2335 -349Q2424 -300 2602 -197Q2617 -188 2617 -180Q2504 -104 2337 -1Q2291 23 2045 107Q1791 194 1414 194Q1244 194 1199 189Q1135 183 937 141Q913 139 876 132Q721 70 567 7Q383 -74 260 -190L558 -361Q494 -424 429 -487Q339 -576 319 -616Q312 -631 315 -661Q319 -697 317 -706Q275 -695 227 -642Q179 -589 172 -547Q264 -563 274 -563Q290 -563 367 -477Q413 -425 459 -373L138 -190Q184 -152 261 -87Q665 270 1212 328Q1353 343 1386 343Q1770 343 2057 240Q2405 115 2738 -196ZM1469 32Q1427 -89 1420 -146Q1400 -246 1378 -422Q1376 -427 1350 -447Q1320 -469 1305 -469H1288Q1270 -414 1270 -419Q1270 -400 1333.5 -234Q1397 -68 1397 -30Q1397 51 1290 104Q1335 90 1381 76Q1433 58 1469 32ZM1259 -473Q1250 -473 1230.5 -476.5Q1211 -480 1204 -480Q1179 -480 1151 -466Q1123 -405 1106 -298Q1092 -209 1078 -119Q1075 -61 1048 40Q1018 95 906 102Q922 111 939 111Q946 111 988.5 102.5Q1031 94 1038 94Q1046 94 1063 99.5Q1080 105 1085 105Q1111 105 1116 53Q1116 23 1117 -7Q1141 -88 1174 -228Q1199 -380 1259 -473ZM1584 -1348L1571 -1335Q1561 -1340 1525 -1352L1519 -1359V-1384Q1537 -1402 1546 -1402Q1566 -1402 1584 -1366Z"/>
</svg>