<svg xmlns="http://www.w3.org/2000/svg" viewBox="0 -2048 2048 2048">
	<path fill="currentColor" d="M2220 -1394H1647Q1688 -1376 1714 -1327.5Q1740 -1279 1740 -1232Q1740 -1112 1670 -1031Q1658 -1018 1635 -990Q1635 -977 1637 -954Q1708 -932 1732 -914Q1767 -887 1783 -824Q1785 -816 1785 -808Q1785 -753 1780 -722Q1762 -654 1732 -516Q1707 -364 1707 -276Q1707 -289 1721 -148Q1731 -42 1748 11Q1761 53 1761 114Q1761 166 1707 233Q1730 236 1767 281.5Q1804 327 1857 333Q1882 335 1908 337Q1938 341 1955 353V372Q1940 389 1891 389Q1837 389 1747.5 361Q1658 333 1597 333Q1499 333 1309 360Q1119 387 1026 387Q998 387 925 364Q873 310 873 257Q873 230 886 201Q918 131 1278 -20Q1295 -27 1357 -47Q1363 -100 1373 -200Q1380 -271 1380 -274Q1380 -290 1376 -321Q1372 -352 1372 -368Q1372 -491 1325 -719Q1322 -733 1300.5 -749.5Q1279 -766 1266 -765L957 -733Q883 -725 839 -777Q829 -789 794 -888Q741 -1039 719 -1209Q717 -1226 703 -1266Q639 -1293 629 -1349Q622 -1390 622 -1394H406L480 -1281L100 -1401V-1416L480 -1536L406 -1423H2220ZM1714 -1239Q1714 -1352 1620 -1379Q1575 -1392 1567 -1392Q1569 -1392 1496 -1389Q1453 -1387 1415.5 -1354.5Q1378 -1322 1369 -1280Q1367 -1270 1357 -1252Q1376 -1252 1446 -1254Q1501 -1255 1535 -1255Q1554 -1255 1574 -1236Q1594 -1217 1594 -1198Q1594 -1167 1561 -1147.5Q1528 -1128 1528 -1102Q1528 -1039 1600 -1039Q1609 -1039 1627.5 -1043.5Q1646 -1048 1654 -1049Q1714 -1117 1714 -1239ZM1431 -1394H1201Q1192 -1368 1165 -1322Q1155 -1311 1078 -1275V-1267Q1078 -1252 1109 -1148Q1131 -1078 1161 -935H1218Q1223 -935 1424 -955V-999Q1389 -997 1336 -1013Q1332 -1028 1306 -1072Q1281 -1113 1281 -1117Q1281 -1159 1354 -1316Q1378 -1369 1431 -1394ZM1144 -1394H960Q995 -1333 1019 -1333Q1074 -1333 1125 -1364Q1130 -1367 1144 -1394ZM1171 -1389H1167Q1159 -1373 1138 -1346Q1095 -1308 1016 -1308Q1004 -1308 977 -1334Q952 -1357 945 -1372Q947 -1340 967.5 -1322.5Q988 -1305 1009 -1287Q1009 -1081 1058 -897Q1091 -904 1142 -912Q1139 -935 1134 -967Q1126 -1016 1092 -1127Q1061 -1228 1054 -1288Q1091 -1302 1151 -1340Q1160 -1349 1171 -1389ZM837 -1394H670Q681 -1370 692 -1346Q703 -1332 739 -1332Q780 -1332 800 -1346Q815 -1357 837 -1394ZM1035 -895Q989 -1065 982 -1282Q962 -1298 942 -1315Q926 -1332 922 -1362Q921 -1373 917 -1394H881Q882 -1323 805 -1276Q824 -1238 858 -1161Q885 -1096 930 -963Q935 -936 946 -883Q953 -878 957 -878Q957 -878 1035 -895ZM1762 -806Q1762 -816 1761 -820Q1745 -883 1706 -905Q1659 -922 1612 -940V-1004Q1619 -1008 1633 -1022L1630 -1021Q1628 -1018 1623 -1014Q1608 -1013 1600 -1013Q1562 -1013 1532 -1038.5Q1502 -1064 1502 -1101Q1502 -1140 1541 -1163Q1568 -1179 1568 -1196V-1203Q1568 -1210 1544 -1231H1345L1305 -1119Q1325 -1089 1357 -1024Q1424 -1023 1441 -1025L1451 -1015V-937L954 -855Q942 -858 924 -873Q919 -902 907 -960Q884 -1043 836 -1157Q816 -1197 776 -1279Q781 -1284 821 -1317Q838 -1330 843 -1343Q855 -1366 857 -1370V-1383Q849 -1375 834 -1348Q826 -1334 806 -1324Q776 -1308 773 -1306Q727 -1305 719 -1305L700 -1306Q667 -1335 648 -1387V-1377Q648 -1365 658.5 -1337.5Q669 -1310 678 -1304Q693 -1297 708.5 -1289.5Q724 -1282 727 -1265Q735 -1229 747 -1154Q753 -1105 794 -966Q836 -818 856 -792Q889 -749 955 -756L1267 -788Q1291 -790 1317 -766Q1343 -742 1348 -718Q1395 -477 1395 -362Q1395 -350 1401 -317.5Q1407 -285 1406 -275L1383 -58Q1563 -116 1700 -114L1684 -307Q1682 -329 1700 -449Q1716 -563 1724 -596Q1762 -752 1762 -806ZM431 -1318L368 -1408L431 -1499L148 -1410ZM1738 129Q1738 52 1729 23Q1713 -27 1703 -93Q1672 -90 1610 -83Q1340 -53 965 160Q1013 188 1068 260Q1198 193 1297 193Q1366 193 1416 203Q1430 206 1504 228Q1559 244 1594 244Q1657 244 1682 230Q1714 213 1734 158Q1738 147 1738 129ZM1921 363Q1886 360 1817 347Q1796 341 1752 298Q1708 255 1706 255Q1686 255 1647 261Q1608 267 1588 267Q1553 267 1504 254Q1463 242 1422 231Q1358 216 1297 216Q1250 216 1139 253Q1133 255 1101.5 270Q1070 285 1065 285Q1060 285 1008 223Q1000 213 943 173Q895 206 895 255Q895 275 909.5 305.5Q924 336 940 345Q973 363 1048 363Q1111 363 1352 328Q1476 310 1600 310Q1689 310 1739 335Q1801 366 1891 366Q1912 366 1921 363ZM1429 -1163Q1404 -1159 1353 -1153Q1353 -1157 1351.5 -1164Q1350 -1171 1350 -1175Q1350 -1197 1381 -1197Q1417 -1197 1429 -1163Z"/>
</svg>