<svg xmlns="http://www.w3.org/2000/svg" viewBox="0 0 695 1000">
  <g transform="scale(1,-1) translate(0,-1000)">
    <path d="M624 929Q632 929 638.0 923.0Q644 917 644 909Q644 903 642 900Q623 865 596.5 813.5Q570 762 559 741Q580 729 585 718Q587 716 588.5 712.0Q590 708 593.5 700.5Q597 693 601 685Q602 682 622.5 641.5Q643 601 651.0 583.5Q659 566 673.0 531.0Q687 496 695 467Q694 452 687.0 442.5Q680 433 674.5 430.5Q669 428 655 424L535 487Q531 419 530.0 356.0Q529 293 528.5 212.0Q528 131 527 77L572 44Q576 43 584.5 41.5Q593 40 596.0 39.0Q599 38 604.0 35.5Q609 33 610.5 29.5Q612 26 612 20Q612 11 606.0 5.5Q600 0 592 0Q589 0 551.0 7.5Q513 15 459.0 22.5Q405 30 361 30Q339 30 212.0 19.0Q85 8 48 2H45Q37 2 31.0 7.5Q25 13 25 22Q25 27 26.5 30.5Q28 34 31.0 36.0Q34 38 37.5 40.0Q41 42 47.5 43.0Q54 44 59.0 45.0Q64 46 74.0 47.5Q84 49 91 50Q91 50 89.0 61.0Q87 72 87 79Q87 95 94.5 104.5Q102 114 129 136Q129 177 123.5 232.5Q118 288 118 325Q118 347 119 360Q118 363 118 370Q118 388 132.5 400.0Q147 412 165 412Q181 412 188 405L350 261Q351 260 351 260Q351 289 353.5 333.0Q356 377 356 397Q356 484 319 609L230 515Q225 510 219.0 510.0Q213 510 208 515L66 671Q55 684 41 684H36Q28 684 14.0 695.0Q0 706 0 712Q0 717 8 717Q11 717 19.0 714.0Q27 711 33 711Q38 711 39.5 712.5Q41 714 41 719Q41 731 27.0 750.5Q13 770 13 771Q13 778 18.5 782.5Q24 787 31 787Q39 787 47.5 777.5Q56 768 61.0 757.5Q66 747 70 736L75 726Q76 719 82 703Q91 688 91 688L217 570L298 683L303 694Q310 704 322.5 715.0Q335 726 342.5 733.5Q350 741 350 749Q350 762 339.5 772.0Q329 782 316.5 789.0Q304 796 293.5 816.0Q283 836 283 867Q283 914 317 949Q365 1000 417 1000Q477 1000 513.0 962.5Q549 925 549 879Q549 866 544.5 851.0Q540 836 536.0 828.0Q532 820 521.5 803.5Q511 787 509 783Q517 769 525 762Q536 783 561.5 833.0Q587 883 606 918Q612 929 624 929ZM158 369V325Q158 293 162.5 244.0Q167 195 168 164Q186 176 205.0 186.5Q224 197 254.5 212.0Q285 227 298 234L312 241L166 372H165Q160 372 158 369ZM363 82Q430 82 487 67Q489 143 489 268Q470 261 434.0 248.0Q398 235 371.5 224.0Q345 213 316 198Q305 192 280.0 180.0Q255 168 245.5 163.0Q236 158 217.0 147.5Q198 137 186.5 129.0Q175 121 159.5 109.0Q144 97 128 83Q127 82 127.0 79.0Q127 76 128.5 68.5Q130 61 130 56Q280 82 363 82ZM366 896Q385 896 385 873Q385 867 379.0 862.5Q373 858 366 858Q341 858 341 873Q341 883 348.5 889.5Q356 896 366 896ZM490 311Q492 481 498 540Q508 633 540 706Q506 724 493 737Q483 747 477.0 756.0Q471 765 465.5 777.5Q460 790 456 798Q437 810 437 850Q437 854 437.5 860.5Q438 867 438 870Q438 887 418.5 899.5Q399 912 380 916L360 920Q359 920 334 915Q318 895 318 867Q318 854 321 841Q323 829 339.5 817.0Q356 805 370.5 788.5Q385 772 385 749Q385 737 380.0 726.5Q375 716 370.0 710.5Q365 705 354.5 696.0Q344 687 340 683Q345 664 357.0 622.5Q369 581 376.0 554.0Q383 527 389.5 483.5Q396 440 396 397Q396 375 393.5 334.5Q391 294 391 274Q402 278 435.5 290.5Q469 303 490 311ZM369 949Q403 944 435.5 924.0Q468 904 468 870Q468 867 467.5 859.5Q467 852 467 850Q467 841 470.5 834.5Q474 828 477.5 826.0Q481 824 490 820Q514 860 514 879Q514 913 486.5 939.0Q459 965 417 965Q391 965 369 949ZM556 632Q540 579 537 528V524L648 478Q614 545 556 632Z" fill="currentColor"/>
  </g>
</svg>