<svg xmlns="http://www.w3.org/2000/svg" viewBox="0 -2048 2048 2048">
	<path fill="#000000" d="M1817 -541Q1817 -478 1764 -462.5Q1711 -447 1608 -447H1605L1316 -471Q1298 -415 1298 -295Q1298 -281 1300 -258Q1303 -230 1303 -220Q1303 -183 1308 -109Q1310 -88 1325 -26Q1337 26 1337 59Q1337 165 1284 210Q1330 197 1333 197Q1346 197 1354 198Q1377 228 1428 282Q1437 290 1470.5 302Q1504 314 1516 314Q1523 314 1537 313Q1551 312 1558 312Q1567 312 1585 315Q1603 318 1612 318Q1619 332 1621 352Q1575 371 1496 371Q1479 371 1453 362Q1418 349 1411 347Q1308 322 1249 322Q1128 322 571 377Q525 382 473 367Q469 366 403 325Q300 374 290 374Q281 374 262.5 373Q244 372 235 372Q216 372 202 374V322Q232 319 291 305Q366 277 371 237Q371 237 371 215Q371 173 416 119Q456 71 498 48Q459 -31 424 -145Q385 -273 385 -344Q385 -354 399 -389Q423 -449 497 -449Q584 -449 728 -333Q850 -235 915 -142Q936 -223 962 -345Q962 -345 962 -536Q962 -536 954 -602Q948 -653 933 -755Q931 -764 917 -802Q911 -797 905 -788Q725 -531 640 -531Q604 -531 588 -543Q532 -584 428 -711Q336 -824 287 -902Q282 -902 271 -899Q260 -896 254 -896Q248 -896 237 -900.5Q226 -905 221 -905L145 -755L100 -778L178 -934Q168 -968 168 -982Q168 -1009 203 -1040L187 -1048Q201 -1076 213 -1076Q224 -1076 246 -1068L500 -1573L545 -1550L293 -1048Q317 -1035 320 -1012Q324 -983 332 -974Q369 -949 420 -913Q463 -881 635 -697Q697 -784 758 -871Q833 -972 915 -1011Q951 -1028 988 -1028Q987 -1028 1010 -1025V-1076Q985 -1080 959.5 -1085Q934 -1090 914 -1109V-1119Q914 -1146 913 -1173Q894 -1180 857 -1190Q850 -1197 850 -1209Q850 -1221 877.5 -1277.5Q905 -1334 908 -1347Q946 -1519 1128 -1519Q1167 -1519 1227 -1494Q1292 -1466 1308 -1436Q1337 -1380 1337 -1329Q1337 -1228 1265 -1126Q1242 -1103 1217 -1075L1221 -1070Q1222 -1057 1222 -1026Q1276 -1021 1331 -1016Q1387 -1008 1430 -971L1555 -1188L1602 -1161L1477 -936L1482 -933Q1590 -868 1787 -617Q1817 -579 1817 -541ZM1314 -1350Q1314 -1361 1297 -1403Q1294 -1412 1288 -1425Q1226 -1493 1116 -1493Q1035 -1493 996 -1460Q966 -1434 930 -1350L1124 -1321Q1138 -1347 1162 -1347Q1181 -1347 1200.5 -1332Q1220 -1317 1220 -1298Q1220 -1274 1202 -1252.5Q1184 -1231 1184 -1188Q1184 -1160 1199 -1149Q1202 -1146 1239 -1132Q1286 -1205 1298 -1235Q1314 -1278 1314 -1350ZM1573 -1151L1561 -1157L1248 -595L1258 -589ZM1794 -540Q1794 -573 1770 -602Q1595 -816 1466 -917L1406 -812Q1469 -741 1610 -611Q1633 -597 1667 -565V-551L1511 -564Q1481 -566 1360 -551Q1321 -546 1299 -546Q1286 -546 1253.5 -567Q1221 -588 1217 -588H1198Q1213 -586 1213 -572V-568Q1189 -564 1164 -559Q1147 -555 1147 -528Q1147 -487 1168 -475Q1183 -467 1228 -467Q1247 -467 1272 -480.5Q1297 -494 1299 -494Q1282 -494 1413 -481Q1494 -473 1594 -473Q1734 -473 1758 -485Q1794 -504 1794 -540ZM1617 -578Q1518 -652 1394 -791Q1376 -765 1347 -710Q1346 -708 1321 -572Q1337 -569 1336 -569Q1352 -569 1382 -575Q1416 -582 1428 -583Q1485 -588 1508 -588Q1501 -588 1617 -578ZM1311 -645L1273 -581Q1287 -573 1300 -572Q1302 -581 1311 -645ZM517 -1540L509 -1545L265 -1060L274 -1056ZM1183 -448L1169 -449L1138 -396L1148 -393ZM1421 -948Q1399 -965 1369 -986Q1320 -1004 1219 -1005Q1214 -1000 1204 -995Q1194 -1035 1194 -1072Q1194 -1078 1220 -1115Q1161 -1126 1161 -1187Q1161 -1238 1177.5 -1262Q1194 -1286 1194 -1291Q1194 -1324 1163 -1324Q1160 -1324 1147 -1311.5Q1134 -1299 1131 -1297L920 -1326Q911 -1299 889 -1246Q876 -1221 876 -1221V-1210Q890 -1204 940 -1190L939 -1145Q939 -1137 940 -1118Q954 -1104 986 -1102Q1023 -1099 1036 -1092V-1012Q1036 -998 1026 -998Q1020 -998 1007.5 -1001.5Q995 -1005 988 -1005Q1001 -1005 953 -996Q881 -983 779 -855Q707 -759 636 -663Q608 -689 556 -744Q509 -799 406 -896Q365 -921 312 -961Q308 -966 297 -1000Q288 -1026 273 -1028Q297 -1008 297 -980Q297 -938 248 -921Q251 -920 257 -919Q263 -919 274 -922Q285 -925 291 -925Q299 -925 355 -847Q511 -630 603 -560Q611 -554 638 -554Q667 -554 689 -572Q782 -649 888 -802Q904 -826 928 -837Q988 -708 988 -374Q988 -344 966 -256Q941 -159 938 -127Q1029 -160 1281 -186L1278 -356Q1278 -373 1292 -467Q1260 -444 1229 -444Q1226 -444 1221 -445.5Q1216 -447 1214 -447Q1207 -447 1186 -412Q1160 -369 1159 -368Q1136 -373 1110 -390L1149 -460Q1124 -481 1124 -528Q1124 -566 1138 -576Q1138 -577 1138 -579V-578L1136 -582V-606Q1147 -615 1167 -615Q1217 -615 1231 -606ZM271 -982Q271 -1023 228 -1023Q191 -1023 191 -980Q191 -940 219 -940Q271 -940 271 -982ZM203 -917L196 -922L128 -787L136 -783ZM904 -120Q839 -227 659 -359Q630 -381 574 -403L516 -308Q536 -291 569 -253Q608 -190 630 -125Q635 -90 648 -20ZM1314 60Q1314 21 1302 -29Q1287 -91 1285 -111Q1285 -128 1282 -163H1275Q1148 -163 1026 -129Q950 -108 800 -60Q748 -37 644 10Q594 30 543 51Q486 76 454 110Q520 152 549 187Q557 201 574 228Q708 161 824 161Q927 161 1020 183Q1155 215 1184 215Q1223 215 1250 211Q1314 157 1314 60ZM1594 338Q1591 337 1516 337Q1505 337 1464.5 323Q1424 309 1416 302Q1402 290 1346 224Q1338 223 1332 223Q1319 223 1307 228Q1295 233 1290 234Q1228 241 1153 241Q1132 241 1082 225Q1022 206 1008 203Q911 184 825 184Q695 184 569 257Q555 246 547 231Q537 207 533 202Q518 181 438 126Q390 201 390 252Q390 259 404.5 284Q419 309 425 315Q466 352 536 352Q558 352 570 351L1172 302Q1209 299 1238 299Q1289 299 1423 328Q1432 330 1461 341Q1481 348 1503 348Q1572 348 1594 338ZM627 -10V-18Q627 -25 623 -38Q619 -51 618 -57Q603 -203 489 -306L553 -412Q509 -423 497 -423Q465 -423 450.5 -416Q436 -409 422.5 -383.5Q409 -358 409 -341Q409 -209 518 38ZM392 306Q386 295 372 274Q350 295 300 327Q276 331 228 340V349Q236 348 251 349.5Q266 351 272 351Q309 351 392 306ZM1042 -1245Q998 -1250 915 -1265Q958 -1296 978 -1296Q999 -1296 1042 -1245Z"/>
</svg>