<svg xmlns="http://www.w3.org/2000/svg" viewBox="-7.5 -1241.5 2902 1187">
	<path fill="currentColor" d="M2787 -716Q2787 -676 2733 -611Q2667 -531 2658 -510Q2654 -487 2642 -442Q2590 -420 2561 -420Q2568 -420 2428 -483Q2395 -498 2293 -533L2198 -434Q2284 -304 2300 -304Q2315 -304 2411 -336Q2499 -366 2529 -378L2577 -332Q2572 -330 2443 -258Q2423 -248 2384 -227Q2378 -214 2359 -192Q2324 -164 2284 -164Q2261 -164 2231 -199Q2189 -247 2186 -250Q2133 -280 2024 -367Q1981 -423 1885 -522Q1863 -540 1840 -540Q1795 -540 1702 -491Q1634 -454 1566 -418Q1511 -394 1456 -381Q1421 -373 1435 -373H1332Q1294 -400 1220 -429Q1142 -460 1100 -461Q1048 -462 945 -464Q936 -464 917.5 -469Q899 -474 889 -474Q883 -474 839 -468Q856 -455 893 -431Q1131 -304 1134 -304Q1139 -304 1166 -309Q1232 -321 1274 -321Q1288 -321 1495 -311Q1510 -310 1539 -316.5Q1568 -323 1582 -323H1685Q1683 -291 1658 -284.5Q1633 -278 1608 -273V-256Q1622 -247 1631 -247Q1678 -247 1746 -270Q1773 -279 1771 -279Q1776 -279 1808 -249Q1748 -192 1638 -192Q1596 -192 1561 -197Q1493 -207 1507 -208L1248 -185Q1124 -174 1119 -174Q1040 -174 836 -270Q628 -369 592 -431Q583 -446 583 -481Q583 -498 600.5 -543.5Q618 -589 618 -591L607 -596L613 -591Q612 -575 566 -548Q506 -512 482 -486Q436 -439 436 -373Q436 -276 581 -246Q605 -242 629 -238Q648 -233 670 -211V-162H104Q104 -168 102 -179.5Q100 -191 100 -197Q100 -246 218 -258Q353 -272 353 -370Q353 -374 350 -382Q347 -390 347 -393Q339 -460 277 -509Q212 -560 152 -579Q167 -599 198 -638Q232 -614 306 -577Q258 -603 238 -636Q207 -686 207 -732Q207 -758 221 -810Q226 -829 261 -863Q293 -894 314 -903Q365 -917 466 -949Q477 -953 505 -970Q521 -980 551 -980Q553 -964 559 -933Q584 -931 626 -915Q646 -900 651 -826Q668 -819 689 -819H695Q704 -840 729 -877Q773 -919 1044.5 -1026.5Q1316 -1134 1361 -1123L1725 -1035Q1771 -1050 1794 -1050Q1858 -1050 1957 -975Q1949 -945 1922 -945Q1915 -945 1880 -965.5Q1845 -986 1832 -986Q1787 -986 1780 -979Q1796 -976 1823 -969V-953Q1823 -929 1801 -929Q1735 -929 1717 -936Q1704 -948 1678 -962Q1630 -971 1523 -975Q1416 -979 1364 -989L964 -818Q1061 -784 1258 -725Q1274 -721 1336 -721Q1363 -721 1468 -772Q1537 -806 1606 -840Q1805 -933 1891 -933Q1948 -933 1983 -915Q2012 -900 2277 -732Q2517 -579 2535 -579Q2565 -579 2639 -640Q2707 -697 2727 -730Q2727 -737 2741 -737Q2747 -737 2758.5 -734Q2770 -731 2776 -731Q2787 -731 2787 -716ZM2761 -710Q2761 -715 2746 -714H2744L2743 -713Q2638 -608 2592 -577Q2561 -556 2532 -556Q2527 -556 2463 -591Q2388 -631 2385 -633Q2359 -606 2310 -551Q2345 -540 2414 -515Q2415 -514 2564 -443Q2613 -444 2624 -460Q2626 -481 2636 -520Q2651 -550 2690 -596Q2734 -646 2747.5 -668Q2761 -690 2761 -710ZM2541 -335Q2536 -341 2524 -350L2296 -280Q2260 -298 2231 -341Q2206 -378 2181 -416Q2137 -368 2097 -332Q2114 -319 2159.5 -293.5Q2205 -268 2237 -227Q2247 -213 2267 -193Q2271 -190 2280 -190Q2319 -190 2339 -206Q2349 -222 2372 -246Q2424 -277 2541 -335ZM2368 -649Q2255 -723 2141 -796Q1961 -910 1926 -910Q1821 -910 1591 -804.5Q1361 -699 1349 -700L1306 -418Q1330 -399 1388 -399Q1453 -399 1491 -412Q1518 -421 1670 -500Q1793 -564 1842 -564Q1846 -564 1867 -555Q1905 -539 1932 -507Q1959 -475 1984 -443Q2022 -396 2081 -345ZM1925 -969Q1853 -1027 1796 -1027Q1789 -1027 1725 -1011L1360 -1099Q1335 -1105 1240 -1075Q1205 -1064 1081 -1015Q993 -981 819 -906Q792 -894 745 -861Q733 -839 706 -796Q694 -796 671.5 -798Q649 -800 639 -800Q633 -810 624 -865Q619 -900 586 -904Q573 -905 547 -908Q540 -925 534 -954H523Q521 -954 503 -943Q485 -932 480 -930Q459 -922 399 -908L417 -739Q418 -728 394 -721Q370 -714 370 -704Q370 -699 380 -690Q387 -690 401.5 -694.5Q416 -699 423 -699Q536 -699 541 -628Q557 -636 565 -636Q582 -636 647 -598Q607 -505 607 -460Q607 -412 825 -301Q1043 -190 1120 -197L1507 -232Q1490 -230 1563 -220Q1591 -216 1636 -216Q1723 -216 1774 -248L1771 -252H1762Q1774 -252 1665 -222Q1658 -220 1628 -220Q1623 -220 1582 -241V-286L1588 -292Q1596 -293 1611 -295Q1579 -297 1591 -297Q1576 -297 1544 -291.5Q1512 -286 1496 -287Q1291 -294 1291 -294Q1247 -294 1212 -292Q1200 -291 1173 -286Q1146 -281 1132 -281Q1120 -281 880 -412Q814 -448 790 -484L889 -497Q904 -499 950 -492Q1002 -485 1016 -485H1104Q1151 -485 1286 -428L1325 -698L1306 -697Q1280 -696 1254 -702Q1207 -714 1027 -773Q994 -783 931 -804Q918 -809 918 -821Q1004 -860 1176 -937Q1215 -954 1333 -1000Q1364 -1012 1362 -1012Q1376 -1012 1403 -1006.5Q1430 -1001 1442 -1000Q1526 -999 1689 -983Q1699 -974 1722 -959Q1738 -952 1794 -952Q1775 -956 1753 -965V-980Q1758 -991 1771 -1011Q1806 -1013 1830 -1013Q1847 -1013 1883 -990.5Q1919 -968 1922 -968Q1922 -968 1925 -969ZM514 -616V-644Q514 -649 496 -660Q478 -671 472 -672Q435 -676 425 -676Q417 -676 400.5 -671Q384 -666 376 -666Q365 -666 356 -682Q343 -704 341 -706Q362 -731 393 -745L375 -901Q363 -897 356 -896Q334 -892 293.5 -859.5Q253 -827 244 -806Q231 -775 231 -732Q231 -673 273 -628Q315 -583 374 -583Q402 -583 514 -616ZM481 -582L450 -573Q463 -575 481 -582ZM643 -185V-207Q624 -211 584 -219Q413 -260 413 -370Q413 -454 464 -503Q524 -545 583 -587Q581 -591 575 -597Q494 -546 370 -546Q311 -546 279 -560Q273 -563 202 -607Q197 -601 187 -589Q319 -527 356 -450Q376 -408 376 -369Q376 -318 340 -280Q313 -251 225.5 -234.5Q138 -218 127 -208V-185ZM497 -802Q448 -834 448 -858Q448 -881 481 -887Q475 -871 475 -861Q475 -840 497 -802Z"/>
</svg>