<svg xmlns="http://www.w3.org/2000/svg" viewBox="0 -2048 2048 2048">
	<path fill="#000000" d="M1651 -1519L1637 -1503Q1641 -1469 1641 -1469Q1641 -1421 1611 -1367Q1589 -1345 1558 -1291Q1553 -1273 1541 -1236Q1511 -1157 1480 -1079Q1433 -977 1378 -960Q1351 -952 1298 -952Q1267 -952 1205 -955.5Q1143 -959 1112 -959Q1083 -959 1063 -939Q1062 -928 1062 -896Q1052 -888 979 -891Q966 -726 966 -728Q966 -692 974.5 -622Q983 -552 983 -516Q983 -462 966 -384Q952 -318 938 -253Q929 -181 911 -36Q910 -30 893 72Q882 136 882 180Q882 228 893 280Q903 327 903 329Q903 362 870 384H474V323Q685 293 718 223Q739 178 739 87Q739 43 717 -109Q694 -252 670 -394Q644 -563 644 -682Q644 -733 646 -814Q648 -924 648 -945Q610 -953 585 -953Q558 -953 505 -946.5Q452 -940 425 -940Q328 -940 237 -1188Q218 -1248 191 -1319Q189 -1321 177 -1331Q100 -1392 100 -1505Q115 -1514 125 -1514Q145 -1514 163 -1450Q172 -1419 197 -1396Q193 -1413 184 -1436Q195 -1441 218 -1452Q233 -1430 238.5 -1389Q244 -1348 254 -1333Q289 -1298 353 -1223Q379 -1188 431 -1083Q530 -1096 556 -1110Q574 -1120 648 -1197Q639 -1211 638 -1238Q636 -1269 632 -1280Q610 -1286 582 -1286Q574 -1294 574 -1308Q574 -1318 589.5 -1338.5Q605 -1359 607 -1365Q669 -1512 681 -1527Q728 -1588 845 -1588Q907 -1588 950 -1551Q1031 -1481 1049 -1410Q1062 -1357 1062 -1124L1334 -1086Q1344 -1108 1365 -1149Q1392 -1200 1430 -1240Q1502 -1314 1502 -1326Q1502 -1333 1500 -1346Q1498 -1359 1498 -1366Q1498 -1377 1532 -1444Q1543 -1444 1569 -1430Q1568 -1426 1558 -1394Q1586 -1429 1594 -1514Q1616 -1514 1651 -1519ZM1614 -1448L1613 -1471Q1597 -1416 1593 -1406Q1578 -1372 1549 -1354Q1529 -1374 1529 -1377Q1529 -1377 1543 -1416Q1521 -1367 1521 -1357Q1521 -1351 1522.5 -1338Q1524 -1325 1524 -1319Q1524 -1304 1445 -1223Q1420 -1197 1396 -1147Q1368 -1087 1354 -1068Q1350 -1062 1341 -1063L1063 -1098V-967Q1091 -982 1143 -982Q1159 -982 1192 -979Q1225 -976 1241 -976Q1261 -976 1300.5 -977.5Q1340 -979 1360 -979Q1406 -979 1463 -1101Q1477 -1130 1528 -1266Q1531 -1283 1543 -1316Q1547 -1323 1576 -1355Q1591 -1371 1599 -1400Q1607 -1424 1614 -1448ZM1039 -910V-1317Q1039 -1388 1009 -1449Q976 -1519 917 -1545Q874 -1564 864 -1564Q775 -1564 734 -1541Q686 -1513 653 -1432H841L850 -1407Q869 -1397 912 -1375Q914 -1362 914 -1356Q914 -1313 879 -1277V-910ZM757 -1132V-1187Q742 -1186 737 -1186Q735 -1186 675 -1191Q664 -1162 652 -1120H656Q735 -1120 757 -1132ZM638 -1154L583 -1100Q593 -1093 613 -1080ZM703 -1099H653Q643 -1099 637 -1081Q630 -1059 613 -1049Q582 -1074 558 -1087L420 -1055Q341 -1214 246 -1308Q222 -1332 220 -1374Q211 -1366 200 -1366Q180 -1366 153 -1414Q143 -1431 136 -1474L123 -1488Q135 -1413 172 -1368Q188 -1355 213 -1327Q221 -1313 241 -1249Q326 -979 410 -964Q418 -963 428 -963Q455 -963 507.5 -969.5Q560 -976 587 -976Q589 -976 652 -970Q664 -1023 669 -1038Q681 -1073 703 -1099ZM960 -518Q960 -553 951.5 -623Q943 -693 943 -728Q943 -736 956 -886Q918 -886 863 -880L852 -891V-1289Q886 -1308 886 -1366Q867 -1382 837 -1381Q829 -1392 826 -1408H645Q637 -1382 601 -1319V-1308Q620 -1307 654 -1295Q655 -1267 669 -1215Q742 -1208 775 -1208L784 -1199V-1121L775 -1112Q704 -1111 679 -988Q674 -974 668 -945Q665 -920 665 -858Q665 -655 678 -550Q691 -445 727 -184L753 3Q763 75 763 87Q763 104 754 160Q744 219 739 229Q709 285 634 311Q627 313 500 341V358H863Q880 345 880 330Q880 309 867.5 268Q855 227 855 206Q855 157 868 84Q886 -24 888 -38Q889 -46 894 -105Q899 -168 939 -378Q960 -489 960 -518ZM768 -1328Q713 -1314 723 -1314Q704 -1314 680 -1357Q702 -1347 725 -1337Q724 -1337 761 -1350Q768 -1339 768 -1328Z"/>
</svg>