<svg xmlns="http://www.w3.org/2000/svg" viewBox="0 -2048 2048 2048">
	<path fill="currentColor" d="M1624 -1227Q1624 -1134 1557 -1088Q1534 -1072 1470 -1072Q1468 -1072 1440 -1088Q1389 -1117 1363 -1202Q1359 -1215 1359 -1221Q1359 -1296 1438 -1383Q1238 -1270 1145 -1154Q1193 -1131 1213 -1108Q1251 -1066 1306 -963Q1367 -851 1367 -808Q1367 -781 1347 -751Q1325 -717 1300 -717Q1296 -717 1101 -743Q1105 -728 1114 -698Q1144 -605 1144 -601Q1144 -553 1118 -458Q1113 -440 1113 -437Q1113 -427 1116.5 -408Q1120 -389 1121 -381Q1126 -292 1150 -114Q1161 -62 1176 44Q1177 142 1190 270Q1207 313 1207 323Q1207 336 1188 362Q1183 364 1171 364Q1160 364 1141.5 353.5Q1123 343 1123 343Q1118 343 1096.5 353.5Q1075 364 1068 364H858V307Q920 301 1037 269Q1073 253 1073 212Q1073 153 1056 59Q1037 -47 1014 -85Q985 -132 985 -159Q985 -173 960 -237H838Q800 -177 792 -162Q768 -118 759 -80Q730 41 633 269Q633 276 635.5 290.5Q638 305 638 313Q638 349 623 363Q617 364 608 364Q578 364 570 363Q553 340 549 340Q546 340 524.5 352Q503 364 497 364H276Q279 342 283 319Q287 296 311 296Q314 296 320 297.5Q326 299 329 299Q339 299 403 278.5Q467 258 475 252Q512 226 536 157Q565 82 594 7Q635 -104 635 -137Q635 -142 634 -153Q633 -164 633 -170Q633 -178 636 -190Q643 -218 729 -450Q757 -518 786 -586Q817 -667 817 -729Q817 -772 770 -964Q722 -839 717 -827Q673 -720 656 -709Q630 -692 501 -692Q428 -692 388 -699Q363 -706 311 -714Q289 -696 279 -696Q287 -696 255 -699V-613Q241 -596 229 -596Q228 -596 203 -611V-704Q171 -734 171 -771Q171 -776 188 -802Q171 -814 165 -833Q189 -841 204 -842Q203 -849 203 -889Q175 -901 169 -929Q163 -957 146 -967Q109 -961 122 -961Q110 -961 100 -972V-992Q125 -1005 154 -1026Q173 -1061 173 -1247Q173 -1295 169 -1325H280L291 -1318Q286 -1265 286 -1242Q286 -1265 294 -1158Q301 -1069 310 -1024Q336 -1012 362 -991Q354 -961 333 -961Q329 -961 324 -964Q319 -967 318 -967Q304 -967 301.5 -955Q299 -943 297 -931Q292 -912 256 -887V-835Q273 -830 321 -791L452 -809Q477 -803 542 -803H568Q593 -881 618 -960Q649 -1052 681 -1112Q694 -1137 720 -1151Q756 -1171 867 -1171V-1205Q844 -1211 797 -1223Q782 -1284 765 -1311Q746 -1342 746 -1346Q746 -1356 772 -1418Q796 -1476 805 -1493Q854 -1582 963 -1582Q1134 -1582 1175 -1431Q1177 -1424 1177 -1417Q1177 -1364 1141.5 -1300.5Q1106 -1237 1062 -1204V-1167Q1081 -1165 1119 -1160Q1208 -1273 1464 -1425Q1414 -1475 1378 -1517L1396 -1527Q1425 -1495 1488 -1437Q1504 -1453 1575 -1540L1587 -1528Q1568 -1498 1525 -1442Q1548 -1449 1595 -1463L1624 -1455Q1551 -1429 1509 -1416Q1624 -1290 1624 -1227ZM1598 -1216Q1598 -1259 1561 -1318Q1528 -1371 1489 -1403Q1382 -1306 1382 -1222Q1382 -1184 1409 -1143Q1440 -1098 1476 -1098Q1532 -1098 1545 -1107Q1598 -1144 1598 -1216ZM1151 -1414Q1151 -1486 1093 -1525Q1042 -1559 966 -1559Q978 -1559 927 -1551Q915 -1550 893 -1544Q824 -1514 803 -1428Q836 -1427 900 -1421Q951 -1411 965 -1347H969Q971 -1361 973 -1389Q1009 -1419 1023 -1419Q1040 -1419 1058.5 -1400.5Q1077 -1382 1077 -1365Q1077 -1343 1051.5 -1318.5Q1026 -1294 1026 -1269Q1026 -1262 1033.5 -1250Q1041 -1238 1048 -1238Q1051 -1238 1057 -1241Q1063 -1244 1066 -1244Q1083 -1244 1112 -1292Q1139 -1335 1144 -1357Q1151 -1390 1151 -1414ZM1220 -838Q1190 -877 1131 -980L1097 -854Q1138 -850 1220 -838ZM1341 -821Q1341 -874 1261 -1002Q1176 -1137 1126 -1137Q1120 -1137 1061 -1055Q1004 -978 993 -958Q981 -935 958 -890Q989 -864 1010 -860Q1019 -858 1072 -858H1076Q1094 -930 1119 -1015Q1122 -1021 1135 -1021Q1155 -981 1201 -903Q1223 -875 1264 -816Q1265 -804 1253 -804H1246Q1230 -813 1141 -823Q1104 -830 1029 -838Q1014 -837 987 -841Q980 -843 963 -856V-853Q937 -854 887 -851Q872 -833 872 -794Q887 -785 915 -785Q924 -785 942 -789.5Q960 -794 969 -794Q978 -794 1103 -767Q1228 -740 1292 -740Q1341 -740 1341 -821ZM1099 -1140Q1045 -1146 1054 -1146Q1035 -1146 1035 -1164V-1169Q1035 -1201 1040 -1215Q1003 -1237 1003 -1281Q1003 -1300 1028.5 -1325Q1054 -1350 1054 -1364Q1054 -1372 1042.5 -1384Q1031 -1396 1023 -1396Q1016 -1396 996 -1381Q995 -1352 989 -1323H946Q937 -1378 905 -1394Q883 -1405 821 -1405H795Q784 -1381 772 -1347Q791 -1310 817 -1237Q844 -1235 871 -1232Q893 -1228 893 -1189Q893 -1153 884 -1142Q821 -1149 797 -1149Q732 -1149 712 -1115Q669 -1043 590 -796Q585 -780 572 -780Q555 -780 522.5 -783.5Q490 -787 473 -787Q464 -787 314 -768Q306 -773 279 -800Q265 -815 222 -819Q274 -805 274 -752Q274 -742 256 -723V-722Q272 -719 274 -719Q278 -719 293 -726.5Q308 -734 314 -734Q332 -734 361 -728Q395 -720 408 -719Q452 -715 545 -715Q624 -715 639 -727Q660 -744 693 -830Q710 -872 743 -955Q749 -975 763 -1006Q767 -1012 776 -1012H780Q845 -786 842 -700L1051 -755L971 -771Q913 -758 904 -758Q898 -741 880 -713H867V-730Q870 -735 882 -764Q849 -774 849 -810Q849 -845 875 -873Q876 -892 885 -899Q894 -900 909 -900Q927 -900 938 -898Q966 -969 1099 -1140ZM1121 -601Q1121 -619 1103 -668Q1082 -726 1079 -739L837 -675L688 -263H1105V-276Q1105 -303 1097.5 -356.5Q1090 -410 1090 -437Q1090 -449 1106 -501Q1121 -549 1121 -601ZM285 -1031Q263 -1160 263 -1242Q263 -1252 265.5 -1271.5Q268 -1291 268 -1299H194Q196 -1282 196 -1254Q196 -1193 184 -1095Q178 -1045 178 -1028Q232 -1039 231 -1039Q225 -1039 285 -1031ZM322 -990Q284 -1016 231 -1016Q170 -1016 139 -990H142Q175 -990 187.5 -948Q200 -906 234 -906Q262 -906 275.5 -948.5Q289 -991 322 -990ZM248 -748V-762Q248 -790 210 -797Q207 -784 200 -779Q198 -773 198 -765V-748Q198 -739 203 -734Q222 -737 248 -748ZM1187 329Q1187 315 1176.5 296.5Q1166 278 1164 269Q1154 223 1154 151Q1154 47 1153 33Q1150 -10 1129 -101Q1109 -188 1108 -236H987Q1010 -174 1010 -144Q1010 -138 1031 -90Q1055 -37 1058 -29Q1099 98 1099 214Q1099 222 1097 228Q1087 258 1077 269Q1043 305 884 325V338H1078Q1081 338 1099 329Q1117 320 1123 320Q1130 320 1147 329Q1164 338 1168 338Q1187 338 1187 329ZM229 -713V-717L226 -716ZM809 -236H677Q661 -194 661 -139Q661 -118 618 0Q589 76 561 152Q545 199 535 218Q516 253 488 269Q403 317 305 322L303 338H501Q505 338 523.5 327.5Q542 317 549 317Q561 317 579 338H610Q609 332 612.5 322.5Q616 313 616 308Q616 302 613 290Q610 278 610 272Q610 254 660 142Q712 23 718 -13Q739 -137 809 -236ZM902 -1355Q896 -1355 883 -1353Q870 -1351 863 -1351Q841 -1351 818 -1388Q848 -1398 857 -1398Q883 -1398 902 -1355Z"/>
</svg>