<svg xmlns="http://www.w3.org/2000/svg" viewBox="0 -2048 2048 2048">
	<path fill="currentColor" d="M1914 24Q1914 43 1900.5 78.5Q1887 114 1887 132V221Q1887 237 1890 269.5Q1893 302 1893 318Q1893 338 1864 368Q1812 373 1740 373Q1733 365 1733 348Q1733 335 1737 319Q1755 315 1774 311Q1799 305 1799 291Q1799 267 1782 229Q1764 185 1762 167Q1760 149 1758 114Q1746 115 1722 120Q1645 145 1409 239Q1216 316 1093 347Q1042 360 934 360Q930 360 862 337Q826 258 826 248Q826 142 868 87Q935 -1 1059 -90Q1178 -177 1286 -219L1337 -239Q1328 -271 1324 -303Q1310 -427 1259 -523Q1253 -535 1174 -625Q1144 -659 1090 -700Q1007 -764 1001 -769Q1000 -766 990 -609Q986 -539 983 -470Q975 -382 951 -338Q948 -333 920 -311Q851 -257 684 -205Q439 -128 428 -124Q423 -122 378 -94Q295 -42 193 -42Q175 -42 146 -48Q112 -55 100 -56V-119Q138 -111 148 -111Q185 -111 208 -115Q214 -116 261 -134Q338 -163 338 -173V-178Q327 -183 316 -183Q303 -183 279 -173.5Q255 -164 242 -164Q230 -164 221.5 -182Q213 -200 213 -213L318 -243Q337 -242 374 -238Q386 -233 410 -224Q471 -260 595 -329Q624 -344 789 -419Q780 -716 780 -740Q780 -840 828 -959Q862 -978 929 -1019Q921 -1058 911 -1089Q879 -1085 815 -1073Q800 -1103 785 -1132Q772 -1157 741 -1189Q713 -1218 713 -1224Q713 -1217 746 -1311Q756 -1338 761 -1374Q761 -1405 772 -1464Q791 -1511 845 -1553Q899 -1595 1008 -1595Q1211 -1595 1240 -1416Q1249 -1361 1249 -1371Q1249 -1283 1228 -1236Q1212 -1202 1148 -1125Q1150 -1109 1163 -1082Q1287 -1058 1434 -953Q1522 -890 1600 -786Q1627 -750 1730 -590Q1914 -305 1914 -155Q1914 -80 1854 -25Q1856 -26 1860 -26Q1865 -26 1906 -11Q1914 10 1914 24ZM1226 -1369Q1226 -1408 1207 -1459Q1185 -1516 1158 -1535Q1107 -1571 969 -1571Q956 -1571 913 -1557Q870 -1543 860 -1535Q808 -1492 794 -1459Q788 -1444 780 -1358Q877 -1390 888 -1390Q929 -1390 955 -1345.5Q981 -1301 986 -1302Q975 -1338 975 -1351Q975 -1424 1050 -1424Q1076 -1424 1100 -1388Q1112 -1370 1112 -1339Q1112 -1332 1094.5 -1308Q1077 -1284 1077 -1274Q1077 -1241 1078 -1235Q1100 -1202 1119 -1198Q1143 -1196 1168 -1193Q1184 -1209 1207 -1243Q1226 -1285 1226 -1369ZM1821 -391Q1807 -422 1796 -438Q1706 -584 1617 -730Q1508 -891 1375 -967Q1237 -1045 1156 -1060L1141 -1071Q1125 -1141 1125 -1127Q1125 -1137 1150 -1170Q1122 -1171 1088 -1192Q1050 -1215 1050 -1241Q1050 -1281 1058 -1297Q1073 -1319 1088 -1342Q1088 -1365 1082 -1376Q1068 -1401 1048 -1401Q1040 -1401 1013 -1391Q999 -1360 999 -1350Q999 -1338 1003.5 -1315.5Q1008 -1293 1008 -1281Q1002 -1281 989.5 -1279.5Q977 -1278 970 -1278Q960 -1278 945 -1313Q927 -1352 918 -1357Q909 -1362 888 -1367Q784 -1339 777 -1340Q774 -1324 736 -1226Q751 -1210 780 -1180Q805 -1153 826 -1098Q876 -1107 923 -1117Q946 -1060 954 -1006Q947 -1002 892 -973Q849 -951 834 -926Q825 -911 813 -855Q806 -823 806 -727Q806 -717 804.5 -698Q803 -679 803 -669Q803 -628 807.5 -547Q812 -466 812 -425Q812 -416 811 -404Q747 -377 620 -317Q602 -308 497 -247Q417 -201 412 -201Q406 -201 395 -207.5Q384 -214 379 -215Q362 -219 322 -219Q313 -219 239 -197Q243 -188 247 -188Q259 -188 281.5 -197Q304 -206 316 -206Q331 -206 361 -192Q361 -165 352 -144Q256 -106 245 -103Q199 -89 130 -89H126V-74Q184 -66 195 -66Q285 -66 368 -116Q385 -127 420 -146Q498 -168 653 -216Q875 -289 932 -349Q962 -431 968 -569Q978 -786 979 -795L989 -807Q1044 -769 1149 -686Q1240 -604 1275 -542Q1288 -519 1329 -398Q1337 -348 1357 -248Q1492 -307 1821 -391ZM1891 -158Q1891 -255 1831 -368Q1642 -329 1496 -280Q1476 -273 1378 -230Q1314 -205 1190 -142Q1135 -112 1032 -43Q989 -8 890 97Q922 103 982 126Q1006 153 1059 197Q1185 111 1289 74Q1399 35 1545 27Q1712 18 1832 -19Q1871 -71 1877 -82Q1891 -110 1891 -158ZM1891 25Q1891 14 1889 6Q1862 -3 1858 -3Q1854 -3 1831 5Q1805 14 1800 15Q1763 23 1678 36Q1562 49 1445 62Q1305 82 1222 126Q1047 220 1057 220Q1051 220 1021 189Q985 152 956 140Q919 127 881 115Q849 194 849 245Q849 260 878 319Q932 337 937 337Q1038 337 1099 321Q1247 282 1635 125Q1696 100 1734 94Q1748 93 1776 89Q1785 100 1785 155Q1785 179 1804 223.5Q1823 268 1823 292Q1823 317 1800.5 324.5Q1778 332 1756 338L1755 349H1835Q1870 349 1870 314Q1870 294 1865.5 253.5Q1861 213 1861 193Q1861 158 1866 131Q1868 120 1881 78Q1891 45 1891 25ZM867 -1277Q854 -1270 792 -1255Q799 -1272 810 -1308H831Q851 -1308 867 -1277Z"/>
</svg>