<svg xmlns="http://www.w3.org/2000/svg" viewBox="0 -2048 2048 2048">
	<path fill="currentColor" d="M1577 -302Q1577 -274 1529 -178Q1516 -185 1499 -184Q1499 -200 1502 -233.5Q1505 -267 1505 -284Q1505 -297 1495 -323Q1493 -304 1485 -267H1436Q1453 -282 1453 -302Q1453 -310 1450 -326Q1447 -342 1447 -350Q1447 -357 1460.5 -384.5Q1474 -412 1474 -419Q1474 -424 1460 -512Q1439 -644 1439 -675Q1439 -692 1444 -725L1376 -948Q1348 -872 1348 -830Q1348 -780 1378.5 -685.5Q1409 -591 1409 -541Q1409 -496 1400 -472Q1387 -441 1373 -392Q1370 -186 1370 -181Q1370 -131 1389 -29.5Q1408 72 1408 128Q1408 149 1407 191.5Q1406 234 1406 255Q1434 323 1434 348Q1434 363 1415 390Q1409 391 1393 391Q1375 391 1341 370Q1339 370 1322.5 380.5Q1306 391 1300 391H1079V333Q1298 315 1298 250Q1298 218 1279 99Q1259 -24 1248 -45Q1237 -66 1220 -109Q1218 -137 1214 -193H1084Q1063 -158 1029 -83Q1025 -54 1016 4Q1009 39 964 131Q925 212 925 256Q925 267 926 289Q927 311 927 322Q927 349 898 390Q892 391 883 391Q855 391 820 370Q816 370 797 380.5Q778 391 771 391H571V330L589 335Q590 335 600 331Q657 314 770 268Q824 239 838 147Q841 124 849 77Q864 21 892 -91Q893 -119 900 -176Q915 -220 944 -306Q973 -392 1030 -563Q1038 -596 1054 -661L998 -938Q931 -846 834 -734Q820 -725 798 -725Q782 -725 709 -750Q643 -773 618 -785Q493 -844 502 -844Q492 -844 467 -835Q471 -802 482 -736L467 -694Q459 -748 443 -836Q439 -840 416 -845Q399 -849 376 -881Q373 -892 373 -901Q373 -948 399 -961Q388 -963 388 -973Q388 -985 398 -1004L415 -1002L351 -1454L261 -946L240 -952L254 -1013L209 -1028L189 -974L168 -981L187 -1035L146 -1050L119 -997L100 -1009L348 -1546L363 -1536Q366 -1519 377 -1438L436 -1002Q456 -999 492 -983Q506 -972 516.5 -948Q527 -924 534 -919Q589 -908 663 -893Q702 -882 780 -862Q824 -947 930 -1103Q941 -1115 975.5 -1135.5Q1010 -1156 1024 -1156H1108Q1109 -1165 1109 -1179Q1109 -1190 1107 -1207Q1084 -1208 1061 -1209Q1031 -1213 1023 -1227Q1011 -1254 978 -1306Q966 -1321 966 -1330Q966 -1334 997 -1392Q1017 -1435 1037 -1478Q1065 -1530 1099 -1545Q1157 -1570 1200 -1570Q1278 -1570 1330 -1523.5Q1382 -1477 1382 -1400Q1382 -1326 1335 -1264Q1288 -1202 1288 -1192Q1288 -1191 1290 -1158Q1348 -1156 1433 -1135Q1495 -1092 1524 -959Q1532 -926 1553 -753Q1561 -724 1572 -665Q1573 -646 1576 -607Q1577 -605 1577 -601L1549 -417Q1577 -365 1577 -302ZM1359 -1400Q1359 -1458 1321.5 -1501Q1284 -1544 1227 -1544Q1149 -1544 1114 -1527Q1068 -1504 1041 -1435Q1079 -1433 1116 -1431Q1160 -1425 1172 -1390Q1174 -1379 1182 -1359Q1183 -1370 1186 -1403Q1214 -1430 1240 -1430Q1286 -1430 1286 -1365Q1286 -1353 1262.5 -1335.5Q1239 -1318 1239 -1286Q1239 -1276 1254.5 -1266Q1270 -1256 1281 -1256Q1282 -1256 1295 -1264Q1359 -1302 1359 -1400ZM1553 -305Q1553 -379 1526 -411Q1553 -604 1553 -604Q1553 -637 1549 -669Q1541 -697 1530 -754Q1512 -903 1507 -927Q1489 -1025 1450 -1090Q1425 -1133 1349 -1133Q1340 -1133 1322.5 -1131.5Q1305 -1130 1296 -1130Q1264 -1130 1264 -1172Q1264 -1205 1278 -1233Q1259 -1234 1239 -1249Q1216 -1265 1216 -1283Q1216 -1322 1237 -1343.5Q1258 -1365 1258 -1374Q1258 -1407 1238 -1407Q1212 -1407 1207 -1378Q1198 -1332 1196 -1329Q1183 -1332 1159 -1342Q1147 -1392 1134.5 -1402.5Q1122 -1413 1067 -1413H1030Q989 -1328 989 -1331Q989 -1333 1009 -1305Q1017 -1284 1038 -1244Q1045 -1234 1079 -1230Q1119 -1225 1128 -1221Q1129 -1211 1132 -1182Q1135 -1158 1135 -1143Q1135 -1130 1123 -1130Q1106 -1130 1073.5 -1131.5Q1041 -1133 1024 -1133Q1022 -1133 992 -1120Q935 -1096 866 -962Q845 -921 789 -833Q679 -868 615 -879Q577 -884 525 -897Q512 -904 502 -926Q506 -916 506 -904Q506 -888 488 -864Q498 -867 503 -867Q504 -867 629 -807.5Q754 -748 798 -748Q814 -748 822 -754Q859 -781 917 -862Q993 -969 1005 -983L1017 -971L1074 -686L1336 -735Q1325 -832 1325 -834Q1325 -847 1341 -910.5Q1357 -974 1363 -985.5Q1369 -997 1379 -1007L1467 -730Q1464 -709 1464 -674Q1464 -618 1485 -497Q1497 -428 1497 -417Q1497 -409 1483.5 -380.5Q1470 -352 1470 -346Q1470 -341 1473 -321Q1478 -342 1481 -353H1508Q1527 -314 1527 -277Q1527 -267 1520 -211Q1553 -289 1553 -305ZM1386 -545Q1386 -580 1371 -630Q1358 -671 1345 -712L1077 -662Q1058 -569 1014 -439Q976 -330 938 -220H1346V-387Q1346 -391 1362 -431Q1386 -491 1386 -545ZM324 -1442L158 -1074L258 -1038ZM498 -933Q481 -969 439 -976Q482 -962 498 -933ZM480 -907Q480 -922 474 -929Q455 -953 435 -953Q399 -953 399 -904Q399 -864 444 -864Q480 -864 480 -907ZM1407 350Q1407 323 1393 286Q1379 249 1379 232Q1379 212 1383 172.5Q1387 133 1387 113Q1387 69 1375 4Q1364 -49 1354 -103Q1354 -104 1347 -192H1237Q1239 -162 1246 -102Q1254 -88 1268 -60Q1282 -24 1301.5 92Q1321 208 1321 251Q1321 298 1250 325Q1226 334 1138 354Q1128 356 1106 355V368H1300Q1303 368 1318.5 357.5Q1334 347 1341 347Q1348 347 1364.5 357.5Q1381 368 1392 368Q1407 368 1407 350ZM1057 -192H930Q926 -157 915 -88Q903 -50 881 28Q873 101 833 241Q799 314 597 354V368H771Q775 368 794 357.5Q813 347 820 347Q826 347 841.5 357.5Q857 368 874 368Q903 368 903 240Q903 202 943 123Q987 38 993 2Q995 -28 1007 -88Q1024 -123 1057 -192ZM1122 -1370Q1106 -1359 1083 -1359Q1078 -1359 1040 -1363Q1061 -1396 1086 -1396Q1110 -1396 1122 -1370Z"/>
</svg>