<svg xmlns="http://www.w3.org/2000/svg" viewBox="0 -2048 2048 2048">
	<path fill="currentColor" d="M1584 -513Q1584 -448 1521 -394Q1457 -386 1419 -386Q1383 -386 1311 -397Q1239 -408 1203 -408Q1201 -354 1194 -245Q1177 -91 1144 218Q1218 267 1364 368V385H100V365L361 247V243Q361 244 344 184Q322 100 278 -68Q258 -137 238 -206Q215 -292 215 -345Q215 -376 233 -417Q252 -464 277 -474Q289 -479 321 -479Q417 -479 496 -382Q560 -293 688 -115Q694 -234 706 -471Q707 -529 717 -642Q722 -655 730 -681Q708 -661 658 -629Q644 -623 616 -611Q574 -586 532 -560Q474 -526 445 -526Q361 -526 253 -833Q241 -880 209 -972Q161 -1001 146 -1032Q131 -1071 116 -1111Q130 -1124 143 -1131Q145 -1130 178 -1088Q202 -1058 216 -1057L225 -1063Q193 -1156 193 -1157Q174 -1201 135 -1238Q151 -1269 169 -1269Q180 -1269 219 -1230Q273 -1176 282 -1098Q283 -1067 296 -1006Q326 -958 382 -861Q405 -804 463 -695Q566 -765 669 -835Q829 -939 869 -941Q872 -941 877 -941Q882 -940 884 -940Q889 -940 895 -942L908 -954V-1044Q884 -1064 843 -1073Q807 -1080 772 -1087Q756 -1045 723 -961Q719 -963 671 -987Q741 -1115 741 -1110Q741 -1141 707.5 -1182Q674 -1223 674 -1243Q674 -1249 727 -1319Q742 -1339 751 -1377Q756 -1383 758 -1389Q813 -1520 889 -1550Q948 -1573 1033 -1573Q1050 -1573 1123 -1543Q1177 -1521 1214.5 -1467Q1252 -1413 1258 -1353Q1264 -1298 1274 -1103Q1277 -1045 1281 -928Q1288 -914 1333 -864Q1584 -587 1584 -513ZM1272 -662V-672Q1272 -714 1261 -944Q1255 -1080 1235 -1351Q1223 -1460 1135 -1513Q1126 -1519 1081.5 -1534.5Q1037 -1550 1029 -1550Q949 -1550 894 -1528Q858 -1513 823 -1468Q792 -1426 781 -1384L1006 -1350Q1013 -1373 1050 -1373Q1092 -1373 1092 -1322Q1092 -1299 1056 -1230V-662ZM1406 -522Q1365 -560 1293 -645L1286 -635H1200V-540ZM1561 -513Q1561 -557 1444 -702Q1365 -795 1286 -888Q1285 -821 1293 -686Q1323 -636 1369 -590Q1450 -509 1450 -507Q1450 -495 1444 -495Q1398 -495 1316 -503Q1221 -513 1188 -515Q1209 -514 1059 -514Q1015 -514 973 -559Q957 -561 904 -564Q944 -557 965 -541L951 -529Q915 -538 907 -538Q876 -538 876 -486Q876 -434 944 -434Q962 -434 996 -444.5Q1030 -455 1048 -455Q1074 -455 1118 -445Q1170 -434 1187 -432Q1373 -411 1462 -411Q1561 -411 1561 -513ZM733 -1047Q722 -1030 702 -996Q706 -993 714 -990L716 -992Q722 -1011 733 -1047ZM867 -915H856Q845 -915 757 -862Q680 -816 652 -796Q589 -747 452 -667Q431 -697 398 -761Q363 -853 324 -918Q300 -953 271 -1005Q256 -1070 241 -1136Q219 -1207 166 -1244L163 -1241Q207 -1200 251 -1055Q231 -1034 218 -1034Q186 -1034 154 -1077Q170 -1025 193 -1010Q224 -991 230 -981Q244 -958 254 -915Q269 -854 272 -846Q294 -795 337 -692Q394 -549 445 -549Q467 -549 515 -576Q549 -597 583 -617Q626 -639 668 -661Q726 -694 741 -717Q744 -736 757 -772Q793 -842 867 -915ZM1312 361L1117 224Q1136 68 1171 -244Q1174 -299 1180 -409Q1056 -432 1048 -432Q1030 -432 996.5 -421.5Q963 -411 945 -411Q850 -411 850 -483Q850 -522 873 -548L865 -552V-583L872 -589Q909 -587 983 -581Q1020 -536 1063 -536Q1078 -536 1179 -540Q1175 -603 1178 -635H1029V-1232Q1066 -1280 1066 -1319Q1066 -1349 1047 -1349Q1043 -1349 1012 -1325L772 -1363Q766 -1337 759 -1323Q755 -1315 726 -1280.5Q697 -1246 697 -1240Q697 -1237 737 -1183Q746 -1171 766 -1111Q810 -1103 854 -1096Q895 -1087 934 -1054V-946Q904 -919 848 -862Q799 -804 776 -757Q747 -698 740 -644Q738 -628 724 -378Q712 -164 712 -95Q712 -81 697 -67Q692 -73 563 -249Q474 -370 460 -385Q392 -456 313 -456Q238 -456 238 -343Q238 -298 284 -127Q321 2 385 259Q315 293 169 361ZM893 -1268Q848 -1268 788 -1280Q816 -1321 842 -1321Q877 -1321 893 -1268ZM851 -1292L842 -1298Q839 -1297 835 -1294Z"/>
</svg>