<svg xmlns="http://www.w3.org/2000/svg" viewBox="0 -2048 2048 2048">
	<path fill="currentColor" d="M1387 337Q1387 346 1355 382H1270V345L1279 336L1291 344Q1290 340 1290 337H1299Q1304 337 1308 335Q1309 320 1309 318Q1309 295 1292.5 274Q1276 253 1253 253Q1205 253 1123 286Q1058 312 994 338Q855 385 823 385Q792 385 764 378Q743 373 719.5 344Q696 315 696 294Q696 179 981 37Q1015 25 1059 3Q1065 -4 1065 -127Q1065 -248 1048 -301Q942 -225 887 -225Q881 -225 868 -226Q855 -226 849 -226Q838 -226 830 -225Q805 -208 770 -169Q729 -123 713 -109Q691 -94 662 -68Q648 -47 612 -36V397Q602 387 541 388V-20Q516 -44 516 -54Q516 -87 536 -110H532Q532 -137 540 -147V-247Q525 -269 525 -277Q525 -288 533 -301L516 -302Q516 -320 511 -340Q522 -340 538 -342V-531Q355 -365 336 -182Q335 -173 330 -147Q325 -125 325 -112V-33Q337 -24 357 -3Q372 21 381 83Q386 130 391 177Q404 268 409 282Q425 329 474 367Q466 382 456 382Q435 382 377 327V381Q368 383 351 385Q342 365 322 328Q308 364 289 393Q280 370 264 323Q249 351 237 382H212Q209 369 211 324Q155 381 133 381H100Q130 354 173 288Q188 242 194 161Q201 65 207.5 32.5Q214 0 234 -17Q245 -24 255 -31Q258 -39 264 -107Q272 -199 278 -235Q289 -305 313 -359Q334 -407 400 -487.5Q466 -568 509 -595Q540 -615 540 -623L538 -776Q508 -754 469 -754H251Q238 -883 238 -857Q238 -853 248 -963H463Q507 -963 540 -926Q540 -936 539 -956L538 -957Q513 -956 487 -988Q465 -1016 459 -1044Q449 -1088 438 -1217Q429 -1326 408 -1388Q395 -1426 369.5 -1455.5Q344 -1485 318 -1513Q327 -1524 337 -1524Q366 -1524 441 -1452Q443 -1461 443 -1467Q443 -1474 440 -1487Q437 -1500 437 -1507V-1562Q443 -1570 453 -1570Q457 -1570 522 -1463Q543 -1529 543 -1529Q559 -1566 584 -1583L618 -1463Q641 -1498 669 -1564Q676 -1568 686 -1568Q696 -1568 703 -1564Q704 -1562 704 -1558Q704 -1544 700 -1515.5Q696 -1487 696 -1473Q696 -1465 697 -1457Q777 -1524 796 -1524H824L832 -1517V-1498Q752 -1459 724 -1347Q712 -1299 702 -1142Q694 -1022 664 -983Q654 -970 639 -964Q616 -956 612 -953V-889Q620 -889 637 -890Q654 -890 662 -890Q696 -890 729 -876Q754 -865 771.5 -827.5Q789 -790 789 -760Q789 -704 710 -651Q615 -588 612 -583V-343Q625 -339 653 -310Q693 -310 778 -319Q791 -329 846 -413Q878 -463 911 -512Q948 -563 995 -597Q1015 -611 1107 -620Q1108 -625 1108 -629Q1108 -634 1106 -645L1044 -654Q1042 -663 1037 -682Q1034 -689 1013 -712Q992 -735 992 -742Q992 -751 998 -767Q1004 -783 1005 -790Q1025 -957 1166 -957Q1228 -957 1265 -917Q1302 -877 1302 -814Q1302 -726 1238 -658V-629Q1257 -627 1293 -619Q1310 -613 1327.5 -583Q1345 -553 1345 -533Q1345 -529 1340 -504Q1296 -282 1296 -197Q1296 -120 1306 -58Q1329 84 1329 74Q1329 84 1307 137Q1335 145 1341.5 153.5Q1348 162 1352 192Q1354 212 1372 266Q1387 313 1387 337ZM678 -1449V-1478Q678 -1481 677 -1520Q628 -1432 628 -1423Q628 -1433 636 -1363Q638 -1368 664 -1404Q678 -1423 678 -1449ZM1279 -822Q1279 -868 1246.5 -901Q1214 -934 1168 -934Q1117 -934 1079 -912Q1059 -900 1049 -875Q1043 -851 1036 -828L1161 -808Q1169 -833 1181 -833Q1202 -833 1209.5 -830.5Q1217 -828 1230.5 -809Q1244 -790 1244 -783Q1244 -775 1234.5 -759.5Q1225 -744 1225 -726Q1225 -725 1226 -722Q1236 -710 1248 -710Q1279 -763 1279 -822ZM760 -1478Q676 -1420 639 -1309Q618 -1248 598 -1100Q631 -1096 669 -1064Q684 -1186 692 -1275Q705 -1422 760 -1478ZM516 -1432Q516 -1433 462 -1522V-1429Q494 -1392 507 -1368Q516 -1453 516 -1432ZM617 -1328Q617 -1410 572 -1537Q527 -1435 527 -1336Q527 -1331 537.5 -1275.5Q548 -1220 569 -1107H574Q580 -1161 599 -1267Q617 -1344 617 -1328ZM546 -1101V-1107Q546 -1180 512 -1301Q484 -1399 396 -1463Q441 -1400 456 -1268Q479 -1061 479 -1060Q506 -1084 546 -1101ZM665 -1037Q602 -1083 579 -1083Q529 -1083 488 -1038Q493 -1015 513 -997Q535 -976 557 -979L567 -969V-636Q573 -640 586 -649V-968Q657 -987 665 -1037ZM1015 -434L1012 -438L979 -401ZM718 -763Q718 -779 713 -807Q689 -827 680 -827H613V-670Q645 -689 677 -708Q718 -737 718 -763ZM1319 -530Q1319 -551 1315 -561Q1298 -604 1269 -604Q1263 -604 1252 -602.5Q1241 -601 1235 -601Q1215 -601 1215 -624Q1215 -668 1235 -690Q1199 -708 1199 -731Q1199 -738 1208.5 -757Q1218 -776 1218 -780Q1218 -792 1206 -805H1185Q1180 -792 1166 -784L1032 -804Q1025 -785 1015 -746Q1056 -710 1064 -676Q1076 -674 1124 -662Q1131 -631 1131 -608V-605Q1115 -598 1061 -594Q1018 -590 996 -568Q964 -538 909 -470Q877 -418 808 -318Q853 -313 859 -313Q869 -313 939.5 -390.5Q1010 -468 1016 -468Q1025 -468 1031 -452Q1132 -520 1141 -520Q1154 -520 1154 -512Q1154 -509 1103 -472Q1044 -430 1041 -427Q981 -365 888 -287Q871 -287 837 -291.5Q803 -296 785 -296Q762 -296 716.5 -291.5Q671 -287 648 -287Q643 -287 614 -320H612Q607 -295 564 -295Q548 -295 548 -277Q548 -251 606 -251Q611 -251 621.5 -259Q632 -267 639 -267Q621 -267 705 -255Q747 -249 810 -249Q905 -249 920 -252Q921 -252 958 -274Q1051 -329 1135 -395Q1153 -411 1193 -438Q1205 -439 1205 -429Q1205 -421 1068 -313Q1088 -233 1088 -182V-73Q1088 -73 1082 -5Q1174 -35 1285 -50V-57Q1285 -81 1279 -128Q1273 -175 1273 -199Q1273 -262 1283 -329Q1286 -347 1305 -429Q1319 -491 1319 -530ZM516 -918Q492 -939 466 -939H271L270 -930H454Q476 -930 516 -918ZM520 -890Q484 -906 459 -906L267 -903L265 -890ZM540 -856V-866H264V-865V-856ZM540 -829H266Q268 -817 268 -811L476 -807Q493 -807 540 -829ZM528 -797Q489 -784 475 -784H271V-776L469 -777Q507 -777 528 -797ZM585 -322V-564Q574 -557 567 -554V-322ZM1306 73Q1306 63 1289 -27H1275Q1275 -27 1236 -19Q1005 28 811 159Q786 176 759 213Q813 252 834 279Q953 186 1159 171Q1193 169 1255 154Q1280 143 1290 127Q1306 102 1306 73ZM766 -762Q766 -793 741 -829.5Q716 -866 686 -866H613V-853Q674 -853 698 -844Q740 -828 740 -777Q740 -739 728 -724Q708 -698 626 -645Q526 -580 510 -567Q383 -464 335 -354Q300 -273 283 -105Q283 -72 279 -28Q275 -18 254.5 -1Q234 16 234 30Q234 37 252 50Q270 63 277 63Q308 63 316 59Q332 47 347 35Q341 10 299 -23Q299 -30 298 -45Q298 -58 298 -66Q298 -80 300 -95Q314 -202 321 -234Q338 -311 371 -365Q416 -439 475 -503Q514 -545 589 -594Q607 -607 643 -633Q766 -713 766 -762ZM798 -226Q746 -232 740 -232Q735 -232 686.5 -171Q638 -110 627 -110Q619 -110 611 -115Q613 -75 613 -60H615L633 -66Q662 -91 719 -143Q745 -171 798 -226ZM708 -232Q634 -244 642 -244Q639 -244 612 -228V-140Q619 -136 624 -136Q630 -136 708 -232ZM1364 328Q1364 319 1351 280Q1337 235 1335 228Q1334 209 1327 174Q1322 162 1311 162Q1290 162 1254 176Q1215 191 1196 192Q974 207 828 311Q768 229 744 229Q738 229 728.5 256Q719 283 719 292Q719 325 756 345Q787 362 822 362Q852 362 990 315Q1056 289 1123 263Q1215 227 1252 227Q1273 227 1304.5 259Q1336 291 1336 312Q1336 329 1321 357L1301 358H1346Q1364 339 1364 328ZM586 -148V-225Q579 -226 567 -229V-148ZM559 -69Q559 -71 551 -88Q545 -76 539 -55L549 -44H551Q559 -66 559 -69ZM586 362V-103Q580 -105 567 -107Q582 -79 582 -69Q582 -62 574 -47Q566 -32 566 -27V362ZM397 316Q376 270 366 191Q359 127 352 62Q333 77 311 87Q323 148 334 209Q353 273 397 316ZM314 227Q314 201 305 160Q292 102 291 93Q290 102 278 154Q270 192 270 216Q270 261 293 339Q314 287 314 227ZM354 303Q352 298 335 271L333 290L329 295Q329 296 328 299Q328 303 351 333Q352 323 354 303ZM269 84Q247 73 227 58Q222 124 216 191Q209 270 184 319Q248 257 260 141Q264 122 269 84ZM256 289Q256 287 250 268Q234 295 234 301Q234 305 236 313Q238 321 237 326Q256 293 256 289ZM1106 -756Q1106 -744 1092 -744Q1084 -744 1032 -765Q1061 -792 1072 -792Q1083 -792 1106 -758Z"/>
</svg>