<svg xmlns="http://www.w3.org/2000/svg" viewBox="0 -2048 2048 2048">
	<path fill="currentColor" d="M1444 -317H1354V339H683V-293Q647 -292 593 -284Q575 -276 575 -243Q575 -238 576 -228Q576 -219 576 -214Q576 -133 520 2Q446 178 436 217Q434 225 434 227Q434 237 438.5 256.5Q443 276 443 286Q443 288 439 313Q409 338 394 338Q380 338 352.5 330.5Q325 323 311 323Q303 323 288 328.5Q273 334 265 334H103Q100 319 100 302Q100 289 102 276Q247 251 310 193Q329 175 347 78Q353 36 366 -48Q386 -170 443 -410Q453 -441 474 -460Q505 -487 604 -499Q675 -506 747 -513Q738 -520 722 -531Q570 -630 513 -786Q492 -844 492 -933Q492 -1010 523 -1054Q523 -1054 544 -1077Q559 -1093 559 -1100Q559 -1116 548.5 -1146Q538 -1176 538 -1192Q538 -1271 570 -1311Q609 -1307 625 -1186Q688 -1248 742 -1269H763Q740 -1181 681 -1134Q740 -1124 796 -1083Q765 -1053 722 -1053Q656 -1053 622 -1063Q565 -1080 581 -1080Q562 -1080 538 -1036Q514 -992 514 -933Q514 -851 536 -794Q554 -748 607 -673Q641 -626 664 -604Q676 -592 726.5 -554Q777 -516 782 -516L927 -529Q926 -672 926 -651Q926 -645 931 -713Q949 -961 992 -1065Q1010 -1090 1046 -1142Q1044 -1157 1040 -1186Q1037 -1187 982 -1199Q972 -1222 947 -1265Q911 -1311 911 -1320Q911 -1334 926 -1352Q950 -1379 951 -1381Q952 -1383 970 -1421Q970 -1432 990 -1467Q1025 -1528 1121 -1549Q1144 -1554 1151 -1554Q1204 -1554 1251 -1521.5Q1298 -1489 1311 -1440Q1315 -1425 1315 -1389Q1315 -1346 1287 -1290Q1258 -1231 1223.5 -1209Q1189 -1187 1189 -1158Q1189 -1145 1204 -1135Q1260 -1096 1260 -936Q1260 -891 1257 -481Q1261 -552 1267 -573Q1283 -627 1329 -627Q1398 -627 1398 -533Q1398 -521 1396.5 -497Q1395 -473 1395 -461Q1395 -391 1444 -317ZM1293 -1390Q1293 -1449 1253.5 -1490Q1214 -1531 1156 -1531Q1036 -1531 993 -1425Q1002 -1425 1021 -1426Q1040 -1427 1049 -1427Q1121 -1427 1134 -1358Q1134 -1375 1135 -1387Q1160 -1408 1169 -1408Q1221 -1408 1221 -1362Q1221 -1339 1199 -1316Q1177 -1293 1177 -1261Q1177 -1248 1183 -1241Q1188 -1240 1200 -1237Q1212 -1234 1219 -1234Q1229 -1234 1263 -1290Q1293 -1340 1293 -1390ZM1199 -1359Q1199 -1385 1170 -1385Q1161 -1385 1161 -1345Q1161 -1325 1151 -1317H1120Q1114 -1346 1108 -1375Q1098 -1402 1060 -1402Q1051 -1402 1023 -1400Q999 -1398 985 -1399Q982 -1392 958 -1357Q937 -1327 937 -1320Q937 -1310 955 -1291Q977 -1268 995 -1220Q1015 -1215 1056 -1206Q1063 -1182 1068 -1151Q1114 -1164 1122 -1164Q1127 -1164 1168 -1151Q1167 -1166 1167 -1166Q1167 -1196 1185 -1213Q1155 -1219 1155 -1272Q1155 -1300 1177 -1326Q1199 -1352 1199 -1359ZM728 -1237Q692 -1219 641 -1172Q625 -1157 622 -1132H635Q691 -1155 728 -1237ZM755 -1084Q707 -1112 685 -1112Q658 -1112 604 -1106L593 -1116Q601 -1134 601 -1173Q601 -1242 577 -1279Q561 -1239 561 -1195Q561 -1201 582 -1104Q634 -1076 719 -1076Q728 -1076 755 -1084ZM1254 -448Q1251 -438 1246 -417Q1251 -429 1254 -448ZM1403 -340Q1374 -384 1374 -465Q1374 -478 1375.5 -502.5Q1377 -527 1377 -540Q1377 -604 1332 -604Q1314 -604 1302 -594Q1290 -584 1281 -510Q1271 -423 1267 -412Q1251 -364 1193 -322Q1184 -316 1149.5 -304.5Q1115 -293 1104 -293H749V314H921V-105H1330V-460Q1336 -467 1347 -466Q1354 -459 1351 -340ZM1237 -892Q1238 -1028 1221 -1072Q1212 -1095 1184 -1115Q1147 -1141 1119 -1141Q1072 -1141 1026 -1079Q1010 -1058 995 -1005Q940 -815 951 -517Q943 -505 734 -491Q521 -476 484 -439Q470 -425 462 -394Q435 -294 403 -131Q389 -40 357 142Q349 183 333 201Q272 272 125 293V309H274Q281 309 292.5 304.5Q304 300 311 300Q325 300 352 307.5Q379 315 393 315Q401 315 418 302Q420 296 420 289Q420 277 416 254.5Q412 232 412 220Q412 208 447 122Q480 46 535 -110Q543 -187 551 -264Q563 -316 671 -316H1107Q1125 -316 1159.5 -333.5Q1194 -351 1204 -366Q1234 -408 1234 -464ZM1330 314V-38H990V314ZM1330 -64V-79H946V314H968V-64ZM723 314V-293H708V314ZM1063 -1347H1002Q1018 -1387 1034 -1387H1041Q1061 -1387 1063 -1347Z"/>
</svg>