<svg xmlns="http://www.w3.org/2000/svg" viewBox="0 0 738 1000">
  <g transform="scale(1,-1) translate(0,-1000)">
    <path d="M596 329Q615 329 621 316Q625 307 633.5 291.5Q642 276 647.5 264.0Q653 252 658 234Q671 189 671 174Q671 149 661.5 134.5Q652 120 640.0 117.0Q628 114 618.5 109.0Q609 104 609 95Q609 85 620.0 66.0Q631 47 652 31H656Q656 31 662.5 37.0Q669 43 670.5 45.5Q672 48 677.0 55.0Q682 62 683.5 70.0Q685 78 688.0 90.5Q691 103 692.0 120.0Q693 137 693 159Q693 238 685.0 273.5Q677 309 677 324V335Q679 358 693.5 395.5Q708 433 708 475Q708 493 703.0 505.5Q698 518 693.0 522.5Q688 527 685 528Q684 528 682.0 528.5Q680 529 679 529Q675 529 667.0 528.0Q659 527 654 527H653Q648 441 634.5 403.0Q621 365 580 357Q535 350 495 350Q480 350 449.5 351.0Q419 352 403 352Q377 352 363 351H343Q342 348 339.5 343.5Q337 339 335.0 335.5Q333 332 332 329H348Q351 272 351 174Q351 149 345.0 134.5Q339 120 332.0 117.0Q325 114 319.0 109.0Q313 104 313 95Q313 94 311.5 86.0Q310 78 310 72Q310 47 332 31H336Q337 32 342.0 36.5Q347 41 348.5 43.0Q350 45 354.5 51.0Q359 57 360.5 62.0Q362 67 365.0 77.0Q368 87 369.0 97.5Q370 108 371.5 124.0Q373 140 373 159L374 329ZM530 951Q563 951 582.5 935.5Q602 920 602 905Q602 888 583 875L578 870Q580 824 580 773H588Q606 773 632.0 774.5Q658 776 670 776Q668 786 667.0 809.5Q666 833 663.0 857.0Q660 881 652 905Q643 933 613.5 952.5Q584 972 566 972Q539 972 511 949Q523 951 530 951ZM505 901Q520 901 520 882Q520 870 505 870Q485 870 485 882Q485 889 491.0 895.0Q497 901 505 901ZM574 905Q560 923 530 923Q515 923 478 915Q466 898 466 877Q466 864 469 857Q473 849 496.0 826.5Q519 804 524 791Q539 751 539 709Q539 661 516.0 578.5Q493 496 472 480Q452 465 382.0 462.0Q312 459 280 442Q274 439 270 429Q256 391 235.5 293.5Q215 196 197 145Q193 134 182.5 116.5Q172 99 169 97Q147 82 103.5 67.5Q60 53 43 38Q43 38 47 36Q103 38 124 38Q150 38 210 36Q216 37 219.0 37.5Q222 38 224 38V45Q224 47 231.0 93.5Q238 140 245.0 178.5Q252 217 269.0 273.0Q286 329 308 371Q320 391 350 391H361Q376 392 403 392Q421 392 451.0 391.0Q481 390 495 390Q540 390 563.0 395.0Q586 400 591.0 405.5Q596 411 599 423Q606 447 610.5 492.5Q615 538 616 572V605Q616 629 613.5 682.5Q611 736 611 745H566Q552 745 552 759Q552 760 551.0 785.5Q550 811 549.5 839.0Q549 867 549 872V873Q549 881 553.5 886.5Q558 892 565.0 897.5Q572 903 574 905ZM458 519Q460 523 470.0 554.5Q480 586 491.5 634.0Q503 682 503 710Q503 748 489 790Q482 777 468.0 764.5Q454 752 450 752Q445 752 436.5 761.0Q428 770 428 776Q428 778 429 779Q440 791 459 820Q438 839 438 877Q438 919 480.5 959.5Q523 1000 566 1000Q592 1000 629.5 975.5Q667 951 680 910Q691 878 695 817Q696 806 696.5 796.5Q697 787 697.5 781.0Q698 775 698.5 770.5Q699 766 700 764V762Q700 757 695.5 752.5Q691 748 686 748Q679 748 669.5 747.0Q660 746 653.5 745.0Q647 744 646 744Q650 736 650 725Q650 711 653.0 672.0Q656 633 656 605Q656 580 655.0 573.0Q654 566 654 557Q658 557 667.0 558.0Q676 559 679 559Q680 559 684.0 558.5Q688 558 690 558Q699 557 708.5 550.5Q718 544 728.0 524.5Q738 505 738 475Q738 429 723.0 390.0Q708 351 707 333V324Q707 314 715.0 277.0Q723 240 723 159Q723 108 715.5 76.5Q708 45 700.5 34.5Q693 24 676 9Q665 0 655 0Q632 0 605.5 34.5Q579 69 579 95Q579 116 592.0 126.5Q605 137 620.0 141.5Q635 146 636 150Q641 161 641.0 174.0Q641 187 636.5 204.0Q632 221 625.5 236.5Q619 252 612.5 265.0Q606 278 600.5 288.0Q595 298 595 299H403V159Q403 108 395.5 76.5Q388 45 380.5 34.5Q373 24 356 9Q345 0 335 0Q314 0 298.5 33.0Q283 66 283 95Q283 116 290.0 126.5Q297 137 306.0 141.5Q315 146 316 150Q321 161 321 174V208Q321 277 320 299H319Q308 271 299.0 238.0Q290 205 284.0 173.0Q278 141 274.0 117.5Q270 94 267.0 69.0Q264 44 264 42Q264 0 231 0H40Q40 0 37.0 0.5Q34 1 30.5 2.0Q27 3 23.0 5.0Q19 7 15.0 9.5Q11 12 7.5 16.0Q4 20 2.0 25.5Q0 31 0 38Q0 52 8 60Q31 85 79.5 102.0Q128 119 143 128Q150 139 153.5 145.0Q157 151 160.5 161.0Q164 171 166.0 179.0Q168 187 174.5 210.0Q181 233 187 256Q189 264 200.0 315.0Q211 366 221.0 405.0Q231 444 236 451Q245 464 250.0 471.0Q255 478 265.0 484.5Q275 491 287 492L218 614L154 573H153Q149 573 143.0 579.5Q137 586 137 592Q137 595 141 598L205 633Q181 644 163.5 659.0Q146 674 137.0 687.0Q128 700 122.5 713.0Q117 726 116.0 732.0Q115 738 115 740Q115 758 130.5 771.0Q146 784 164 784Q190 784 210.5 748.0Q231 712 231 669Q231 654 230 647L298 689Q299 690 301 690Q306 690 309.5 683.5Q313 677 313 671Q313 666 311 665L243 627L324 496Q452 505 458 519ZM164 756Q154 756 147.0 749.0Q140 742 140 732Q140 709 169.0 683.0Q198 657 208 657Q209 657 209 659Q210 663 210 672Q210 701 197.0 728.5Q184 756 164 756Z" fill="currentColor"/>
  </g>
</svg>