<svg xmlns="http://www.w3.org/2000/svg" viewBox="22 -1639 1597 2106">
	<path fill="currentColor" d="M1541 -235Q1541 -224 1520 -179.5Q1499 -135 1493 -135Q1488 -135 1467 -147V-161Q1467 -172 1473 -193Q1479 -214 1479 -225Q1479 -236 1476 -258.5Q1473 -281 1473 -292H1465Q1459 -266 1448 -232H1412Q1415 -273 1437 -364Q1427 -388 1410 -438Q1407 -496 1387 -610Q1372 -631 1350 -676Q1346 -688 1303 -929Q1281 -874 1281 -787Q1281 -721 1297 -678Q1315 -641 1333 -603Q1351 -565 1351 -517Q1351 -478 1328 -407Q1320 -392 1309 -360Q1305 -339 1305 -284Q1305 -268 1312 -236Q1319 -204 1319 -188Q1319 -175 1316.5 -150Q1314 -125 1314 -112Q1314 -126 1331 -39Q1358 99 1358 182Q1358 197 1353 227.5Q1348 258 1348 273Q1348 300 1360 314.5Q1372 329 1372 342Q1372 361 1354.5 375Q1337 389 1318 389Q1307 389 1291 378Q1275 367 1273 367Q1271 367 1261 374.5Q1251 382 1245 382H1019V359Q1019 342 1042 336Q1088 325 1133 314Q1192 297 1218 278Q1231 268 1231 248Q1231 178 1191 7Q1187 -10 1166 -53Q1149 -87 1149 -119Q1149 -137 1157 -176H1014Q951 -87 951 -3Q951 61 911 156Q871 251 871 280Q871 288 873 302.5Q875 317 875 325Q875 351 853 370Q831 389 805 389Q798 389 785 371L774 382H512V334Q584 323 656 311Q745 289 765 232Q802 127 820 -50Q821 -74 827 -121Q841 -161 867 -242Q905 -365 947 -520Q960 -558 977 -634Q980 -658 980 -721Q980 -774 936 -913Q899 -830 834 -723Q814 -691 784 -679Q781 -678 718 -663Q633 -652 464 -624Q459 -623 407 -609Q373 -600 349 -600Q299 -600 261 -612Q220 -627 179 -642Q179 -662 201 -683Q249 -656 319 -656H340Q323 -660 289 -669Q287 -677 290 -684Q276 -682 273 -682Q100 -682 100 -900Q100 -951 113 -1016H137Q135 -995 135 -970Q135 -962 136 -958Q173 -932 181 -932Q223 -932 240 -956Q249 -969 262 -1019H296Q317 -962 320 -958Q336 -935 379 -935Q398 -935 420 -955Q426 -977 423 -1016H446Q457 -969 457 -908Q457 -721 362 -699Q400 -690 420 -690Q422 -690 502 -717Q586 -745 602 -749Q643 -758 657 -763Q690 -774 704 -790Q710 -797 746 -880Q792 -984 813 -1022Q866 -1115 917.5 -1127Q969 -1139 1038 -1148V-1193Q1035 -1194 990 -1202Q962 -1207 949 -1224Q945 -1246 921 -1292Q895 -1323 895 -1329Q895 -1334 912 -1357.5Q929 -1381 931 -1388Q957 -1457 974 -1485Q1006 -1537 1052 -1553Q1075 -1561 1131 -1561Q1224 -1561 1267.5 -1502Q1311 -1443 1311 -1404Q1311 -1329 1227 -1221Q1218 -1213 1200 -1198Q1199 -1190 1199 -1179Q1199 -1155 1204 -1144Q1299 -1144 1348 -1124Q1406 -1100 1439 -977Q1448 -944 1473 -793Q1487 -708 1487 -697V-599Q1490 -593 1496 -581Q1518 -536 1518 -448Q1518 -433 1514.5 -403.5Q1511 -374 1511 -359Q1511 -345 1519 -328Q1529 -305 1531 -299Q1541 -264 1541 -235ZM1288 -1401Q1288 -1429 1252 -1486Q1219 -1538 1132 -1538Q1063 -1538 1030 -1512Q1006 -1493 969 -1426L1068 -1428Q1108 -1414 1117 -1359H1125V-1366Q1125 -1383 1141 -1404Q1157 -1425 1174 -1425Q1233 -1425 1236 -1347Q1216 -1333 1197 -1319Q1172 -1300 1172 -1282Q1172 -1276 1185.5 -1265.5Q1199 -1255 1205 -1255Q1214 -1255 1228 -1269Q1288 -1328 1288 -1401ZM1518 -237Q1518 -260 1503 -299.5Q1488 -339 1488 -358Q1488 -376 1492 -411Q1496 -446 1496 -464Q1496 -526 1473 -577Q1461 -603 1461 -605V-721Q1461 -728 1447 -811Q1437 -873 1411 -995Q1378 -1120 1245 -1120Q1239 -1120 1227 -1118.5Q1215 -1117 1209 -1117Q1204 -1117 1194 -1119Q1173 -1144 1173 -1170Q1173 -1196 1175 -1207L1202 -1232Q1187 -1234 1168 -1249.5Q1149 -1265 1149 -1279Q1149 -1306 1170 -1326Q1192 -1342 1213 -1358Q1212 -1402 1177 -1402Q1158 -1402 1152 -1381Q1152 -1381 1152 -1361Q1152 -1335 1128 -1335Q1104 -1335 1096 -1344Q1090 -1405 1064 -1405Q1060 -1405 959 -1402Q956 -1390 947 -1368Q921 -1324 921 -1329Q921 -1328 943 -1299Q950 -1289 956 -1271Q969 -1231 1000 -1223.5Q1031 -1216 1064 -1209V-1133Q1019 -1126 929 -1107Q878 -1093 830 -1005Q822 -990 767 -866Q750 -827 720 -775Q687 -745 621 -728Q567 -715 513 -701Q417 -667 421 -667Q409 -667 386.5 -671.5Q364 -676 353 -676Q367 -672 375 -661Q370 -644 358 -634L253 -638L261 -631Q290 -626 355 -626Q388 -626 412 -633Q446 -644 459 -646Q546 -658 633 -670Q774 -691 791 -707Q836 -749 875 -828Q905 -896 935 -964L946 -953L956 -922Q1003 -777 1003 -647L1269 -704Q1258 -759 1258 -790Q1258 -850 1268 -891Q1281 -945 1296 -974Q1301 -984 1311 -983L1320 -974Q1331 -878 1369 -689Q1386 -666 1410 -616Q1414 -571 1425 -483Q1432 -443 1460 -365Q1460 -363 1441 -304Q1446 -318 1475 -318Q1481 -318 1491 -306Q1502 -253 1502 -225Q1502 -206 1493 -167Q1518 -222 1518 -237ZM1328 -518Q1328 -563 1309 -604Q1291 -642 1272 -681Q1212 -668 997 -619Q945 -418 879 -204H1293Q1281 -292 1281 -342Q1281 -364 1304.5 -424Q1328 -484 1328 -518ZM427 -864Q427 -876 425 -897.5Q423 -919 423 -927Q393 -909 361 -909Q301 -909 282 -993H279Q256 -909 195 -909Q163 -909 135 -929Q132 -896 132 -879Q132 -705 293 -705Q356 -705 393 -754Q427 -799 427 -864ZM1349 344Q1349 340 1337.5 321Q1326 302 1326 280Q1326 264 1331 231Q1336 198 1336 182Q1336 144 1311 -25Q1310 -34 1300 -64Q1291 -91 1291 -99Q1291 -110 1294 -131.5Q1297 -153 1297 -164Q1297 -171 1295 -177L1180 -174Q1172 -138 1172 -123Q1172 -96 1182 -78Q1199 -44 1201 -39Q1217 5 1235.5 106Q1254 207 1254 251Q1254 281 1233 296Q1202 319 1105 348Q1084 352 1043 360V362H1208Q1233 362 1252.5 353Q1272 344 1273 344Q1283 344 1295 353Q1307 362 1320 362Q1349 362 1349 344ZM986 -176H869Q846 -110 846 -67Q846 -41 816 97Q811 128 800 190Q784 262 753 290Q719 320 651 335Q594 343 538 352V359H765Q778 344 787 344Q788 344 792 345Q802 362 815 362Q852 362 852 321Q852 314 850.5 300.5Q849 287 849 280Q849 250 877 182Q913 93 916 82Q925 51 925 -17Q925 -81 986 -176ZM1040 -1350L951 -1355Q983 -1392 988 -1392Q1014 -1392 1023 -1383Q1028 -1378 1040 -1350Z"/>
</svg>