<svg xmlns="http://www.w3.org/2000/svg" viewBox="20.4 -1654.6 1780.2 2122.2">
	<path fill="currentColor" d="M1722 -1508Q1722 -1456 1692 -1416Q1642 -1350 1637 -1339Q1617 -1279 1575 -1167Q1506 -1003 1442 -976Q1430 -971 1408 -971Q1366 -971 1282 -979.5Q1198 -988 1156 -988Q1095 -988 1062 -880Q1050 -840 1050 -769Q1050 -721 1073 -685H1484V-577H1104Q1113 -550 1113 -538Q1113 -517 1092 -464.5Q1071 -412 1071 -377Q1071 -367 1084 -284Q1093 -223 1114 -100Q1127 -58 1145 28Q1144 97 1152 234Q1154 251 1170 290Q1183 325 1183 348Q1145 376 1135 376Q1129 376 1117 365.5Q1105 355 1102 355Q1090 355 1068.5 364Q1047 373 1035 373H869V333Q1054 307 1054 247Q1054 241 1039 160Q1029 99 1004 -21Q995 -41 979 -81Q971 -127 939 -214H836Q815 -185 780 -123Q764 -44 709 106Q644 224 645 275Q645 281 646 294.5Q647 308 647 315Q647 373 610 373Q599 373 579 355Q562 376 534 376Q501 376 436.5 373Q372 370 339 370Q332 370 321 389L314 331Q366 322 418 312Q477 300 517 278Q533 269 541 253Q586 162 635 -34Q637 -69 646 -139Q656 -170 674 -232L681 -241Q716 -356 779 -575Q758 -575 722 -575Q681 -574 664 -574Q395 -574 322 -619Q269 -651 235 -723Q203 -790 203 -856Q203 -925 257 -925Q285 -925 296 -878Q300 -843 305 -808Q314 -761 365.5 -723Q417 -685 466 -685H812Q821 -704 821 -716Q821 -814 747 -923Q740 -940 718 -968Q704 -978 660 -978Q594 -978 552 -973Q434 -959 434 -959Q390 -959 367 -966Q335 -976 290 -1062Q255 -1127 237 -1183Q227 -1236 193 -1337Q177 -1355 148 -1392Q99 -1457 100 -1529Q110 -1538 128 -1547Q146 -1529 165 -1483.5Q184 -1438 203 -1420Q200 -1437 193 -1472H220Q242 -1454 247 -1420Q254 -1373 258.5 -1363Q263 -1353 310 -1279Q349 -1217 422 -1089Q463 -1100 546 -1120Q572 -1122 625 -1128Q655 -1137 716 -1150Q748 -1153 812 -1164V-1169Q812 -1191 808 -1211Q792 -1220 751 -1234Q744 -1259 726 -1307Q724 -1310 711 -1327Q699 -1341 699 -1346Q699 -1355 719 -1392Q743 -1435 746 -1443Q774 -1518 809 -1546Q848 -1576 926 -1576Q1099 -1576 1099 -1371Q1099 -1340 1062 -1292Q1007 -1220 1007 -1220Q999 -1206 993 -1163Q1024 -1162 1084 -1157Q1101 -1152 1136 -1143Q1173 -1140 1246 -1129Q1293 -1118 1388 -1098Q1410 -1137 1459 -1212Q1505 -1260 1577 -1368Q1583 -1405 1598 -1478H1631Q1630 -1459 1630 -1459Q1630 -1459 1631 -1428Q1672 -1470 1675 -1517Q1676 -1536 1678 -1541Q1682 -1550 1695 -1559Q1722 -1542 1722 -1508ZM1075 -1391Q1075 -1502 999 -1540Q973 -1553 959 -1553H916Q808 -1553 771 -1443H856Q922 -1443 936 -1373Q941 -1439 974 -1439Q989 -1439 1008.5 -1426Q1028 -1413 1028 -1399Q1028 -1385 1004 -1352.5Q980 -1320 980 -1308Q980 -1276 1009 -1276Q1026 -1276 1036 -1293Q1053 -1315 1073 -1365Q1075 -1381 1075 -1391ZM1696 -1501Q1659 -1404 1630 -1404Q1618 -1404 1606 -1415Q1605 -1391 1596 -1352Q1578 -1316 1535 -1266Q1477 -1199 1467 -1185Q1446 -1148 1402 -1075Q1397 -1074 1394 -1074Q1382 -1074 1283 -1093Q1209 -1108 1060 -1137Q1050 -1134 999 -1134Q979 -1134 969 -1144Q974 -1188 976 -1200Q983 -1231 999 -1250Q984 -1254 970.5 -1273Q957 -1292 957 -1308Q957 -1327 981 -1360.5Q1005 -1394 1005 -1398Q1005 -1413 977 -1413Q964 -1413 960 -1385Q957 -1366 954 -1346H918Q910 -1419 862 -1419H760Q753 -1401 723 -1349Q747 -1320 758 -1277Q760 -1267 769 -1251Q792 -1242 830 -1225Q835 -1150 835 -1162Q835 -1150 830 -1141Q780 -1136 682 -1121Q662 -1114 620 -1105Q595 -1103 546 -1097Q500 -1085 408 -1064Q352 -1170 318 -1225Q291 -1265 263 -1305Q233 -1353 228 -1394Q226 -1393 223 -1393H224Q222 -1392 197 -1392Q175 -1415 157.5 -1456.5Q140 -1498 128 -1511L126 -1501Q149 -1415 187 -1378Q198 -1368 215 -1345Q229 -1296 257 -1199Q272 -1150 305 -1083Q348 -998 374 -989Q386 -985 409 -985Q446 -985 520 -994Q594 -1003 631 -1003Q714 -1003 733 -985Q773 -947 807 -866Q838 -789 844 -729L1028 -743Q1027 -753 1027 -765Q1027 -840 1039.5 -883Q1052 -926 1081 -965Q1116 -1014 1151 -1014Q1192 -1014 1276.5 -1002.5Q1361 -991 1402 -991Q1456 -991 1520 -1111Q1565 -1193 1593 -1283Q1598 -1306 1615 -1349Q1640 -1385 1665 -1421Q1696 -1466 1696 -1501ZM1044 -686Q1028 -720 1023 -720Q1020 -720 842 -705L837 -686ZM1457 -604V-658H515Q374 -658 308 -746Q281 -782 275 -846Q270 -901 254 -901Q226 -901 226 -859Q226 -773 269 -706Q316 -634 397 -618L427 -612Q467 -604 475 -604ZM1087 -536Q1087 -529 1083 -577H803L704 -241H1070Q1048 -392 1048 -402Q1048 -425 1067.5 -470.5Q1087 -516 1087 -536ZM1157 330Q1157 318 1144.5 283Q1132 248 1130 235Q1131 166 1122 29Q1111 -13 1091 -97Q1086 -136 1075 -214H965Q973 -197 985 -163Q987 -140 998 -94Q1010 -71 1027 -24Q1032 -2 1062 163Q1077 246 1077 250Q1077 315 901 350H1050Q1056 350 1075.5 341Q1095 332 1103 332Q1109 332 1121.5 342.5Q1134 353 1136 353Q1157 353 1157 330ZM806 -214H694Q684 -191 669 -143Q667 -106 658 -34Q656 -26 573 233Q558 279 529 296Q462 335 341 349V353H548Q569 329 576 329Q582 329 594 338Q606 347 608 347Q613 347 621 338V261Q621 242 667 139Q682 115 705 63Q720 -5 761 -137Q766 -149 806 -214ZM848 -1393Q827 -1377 812 -1377Q798 -1377 772 -1401Q805 -1412 814 -1412Q823 -1412 848 -1393Z"/>
</svg>