<svg xmlns="http://www.w3.org/2000/svg" viewBox="0 0 825 1000">
  <g transform="scale(1,-1) translate(0,-1000)">
    <path d="M343 704Q343 712 359 712Q374 712 391.5 700.0Q409 688 412 675L580 702V710Q580 748 566 790Q564 773 532.0 747.5Q500 722 490.0 722.0Q480 722 472.0 728.5Q464 735 464 742Q464 746 469 749Q490 759 513.0 781.0Q536 803 536 820Q515 839 515 877Q515 919 557.5 959.5Q600 1000 643 1000Q670 1000 706.5 975.5Q743 951 756 913Q764 892 769.0 845.5Q774 799 775.5 770.0Q777 741 777 733Q777 728 772.5 723.5Q768 719 763 719Q756 719 746.5 718.0Q737 717 730.5 716.0Q724 715 723 715Q726 708 729.5 668.5Q733 629 733 605V577H735Q736 577 745.5 580.5Q755 584 763 584Q796 584 810.5 539.5Q825 495 825 455Q825 397 792 397Q787 397 781 400L784 17Q784 0 767 0H406Q389 0 389 17V278Q377 245 367.5 203.5Q358 162 353.5 135.0Q349 108 345.0 75.5Q341 43 341 42Q341 0 308 0H117Q117 0 114.0 0.5Q111 1 107.5 2.0Q104 3 100.0 5.0Q96 7 92.0 9.5Q88 12 84.5 16.0Q81 20 79.0 25.5Q77 31 77 38Q77 52 85 60Q108 85 156.5 102.0Q205 119 220 128Q227 139 230.5 145.0Q234 151 237.5 161.0Q241 171 243.0 179.0Q245 187 251.5 210.0Q258 233 264 256Q266 265 276.5 316.0Q287 367 297.0 406.0Q307 445 313 451L329 471Q342 484 391.0 493.0Q440 502 472.5 504.5Q505 507 515 507Q518 509 523.0 511.5Q528 514 531.0 515.5Q534 517 535 519Q541 532 547 556H541L399 546Q389 545 380.5 542.5Q372 540 367.0 538.0Q362 536 360 536H346Q313 536 297.5 546.0Q282 556 282 567Q282 568 282.5 569.0Q283 570 283.0 571.0Q283 572 283.5 572.0Q284 572 284 573Q289 586 314 586Q324 586 341.0 583.5Q358 581 359 581H360Q342 590 342.0 601.0Q342 612 353 612Q359 612 367.5 606.0Q376 600 388.5 589.0Q401 578 404 575L533 610Q546 611 559 615Q559 617 570 656L407 647Q396 646 382.5 641.0Q369 636 368 636H338Q314 617 272 617Q235 617 197 635L213 557V555Q213 547 200 547Q188 547 186 553L173 630L11 596H10Q1 596 1 618Q1 630 7 631L169 658L154 732V733Q154 736 159.5 739.0Q165 742 171 742Q180 742 181 735L192 663Q242 713 292 713H294Q295 713 298.5 713.5Q302 714 305 714Q339 714 349 682Q361 679 365 679Q367 679 367 680Q367 680 355.0 689.5Q343 699 343 704ZM607 951Q640 951 659.5 935.5Q679 920 679 905Q679 888 660 875L655 870Q657 824 657 744H665Q683 744 709.0 745.5Q735 747 747 747Q746 756 745.5 785.0Q745 814 741.5 845.5Q738 877 729.0 905.0Q720 933 690.5 952.5Q661 972 643 972Q616 972 588 949Q600 951 607 951ZM582 901Q597 901 597 882Q597 870 582 870Q562 870 562 882Q562 889 568.0 895.0Q574 901 582 901ZM651 905Q637 923 607 923Q592 923 555 915Q543 898 543 877Q543 864 546 857Q550 849 573.0 826.0Q596 803 601 791Q619 753 619 705Q619 688 607 639Q646 694 659.0 694.0Q672 694 672 654Q672 635 668 631Q657 619 648.0 611.5Q639 604 635.0 601.0Q631 598 615.0 589.5Q599 581 592 577Q586 548 583.0 534.5Q580 521 571.0 504.0Q562 487 549 480Q527 467 523 467Q511 466 485.5 464.5Q460 463 449.5 462.0Q439 461 421.5 459.0Q404 457 389.0 452.5Q374 448 357 442L347 429Q333 391 312.5 292.5Q292 194 274 143Q270 132 259.5 115.5Q249 99 246 97Q224 82 180.5 67.5Q137 53 120 38Q120 38 124 36Q180 38 201 38Q227 38 287 36Q293 37 296.0 37.5Q299 38 301 38V45Q301 47 308.0 93.5Q315 140 322.0 178.5Q329 217 346.0 273.0Q363 329 385 371Q397 391 427 391H438Q453 392 480 392Q498 392 528.0 391.0Q558 390 572 390Q617 390 640.0 395.0Q663 400 668.0 405.5Q673 411 676 423Q683 447 687.5 492.5Q692 538 692 572L693 605Q693 628 690.5 665.5Q688 703 688 716H643Q629 716 629 730Q629 731 628.5 764.0Q628 797 627.0 832.0Q626 867 626 872V873Q626 881 630.5 886.5Q635 892 642.0 897.5Q649 903 651 905ZM290 671Q294 685 314 687Q306 692 295 692Q274 692 254.0 682.0Q234 672 223.5 663.0Q213 654 213 652Q213 651 220.0 648.0Q227 645 241.0 641.5Q255 638 268 638Q288 638 309 645Q290 656 290 671ZM747 258 746 445Q746 462 763 462Q773 462 778 454Q784 443 788 438Q790 450 790 456Q790 486 780.0 517.5Q770 549 762 549Q761 549 751.5 546.0Q742 543 736 543H733H731L730 527Q725 441 711.5 403.0Q698 365 657 357Q612 350 572 350Q557 350 526.5 351.0Q496 352 480 352Q454 352 440 351H422Q423 349 423 343V34H532V241Q532 258 549 258ZM748 224H567V34H749Z" fill="currentColor"/>
  </g>
</svg>