<svg xmlns="http://www.w3.org/2000/svg" viewBox="0 0 976 1000">
  <g transform="scale(1,-1) translate(0,-1000)">
    <path d="M54 695Q39 706 33.0 716.0Q27 726 26 749Q13 742 10 742Q0 742 0 752Q0 756 3 759Q11 766 22.0 785.0Q33 804 40 811Q55 826 78 826Q90 826 106 824V899Q73 892 72 892Q62 892 62 902Q62 903 90.0 948.0Q118 993 119 994Q122 997 126.0 997.0Q130 997 134 992L187 907Q189 903 189 902Q189 892 179 892Q179 892 178.5 892.5Q178 893 176.0 894.5Q174 896 171.0 897.0Q168 898 161.5 898.5Q155 899 146 899V810Q214 773 214 683Q214 674 212.5 654.5Q211 635 211 624Q213 595 213 595Q213 585 203 585H146V47H279Q258 58 258 78Q258 92 265 99Q287 122 334.0 139.0Q381 156 395 165Q402 176 405.0 181.0Q408 186 411.5 196.0Q415 206 417.0 212.5Q419 219 425.0 241.5Q431 264 437 285Q440 295 449.5 342.5Q459 390 468.5 428.0Q478 466 484 472L500 491Q513 504 559.5 512.5Q606 521 637.5 523.5Q669 526 678 526Q681 528 689.0 531.5Q697 535 698 537Q704 550 709 572Q708 572 706.0 572.5Q704 573 703 573L579 563Q570 562 561.0 559.5Q552 557 547.5 555.5Q543 554 541 554H537L540 544Q540 544 540.5 542.0Q541 540 541 539Q541 525 527 525Q516 525 513 535L507 555Q490 558 486.0 560.0Q482 562 471 573Q469 575 469 580Q469 598 492 603L477 649Q476 649 476.0 649.5Q476 650 475 650Q449 660 449 678L450 681Q454 688 463 694L419 836Q418 815 416.0 780.0Q414 745 410.5 676.5Q407 608 404 550Q404 539 392 539H391Q386 539 299 552Q289 554 289 564Q289 564 290 566V568L398 898Q398 898 398 899L399 900Q399 915 413 915Q424 915 427 905L490 706Q500 708 505 708Q533 708 566 682L741 713V719Q741 758 727 798Q724 782 684.0 755.0Q644 728 636 728Q627 728 619.0 735.0Q611 742 611 748Q611 752 616 755Q697 793 699 826Q679 844 679 883Q679 923 719.0 961.5Q759 1000 801 1000Q828 1000 863.5 975.5Q899 951 911 916Q917 897 922.0 853.0Q927 809 928.5 779.0Q930 749 930 743Q930 738 926.0 733.5Q922 729 917 729Q911 729 901.5 728.0Q892 727 885.5 726.5Q879 726 878 726Q888 666 888 620V593H889Q891 593 900.0 596.5Q909 600 916 600Q938 600 953.0 574.0Q968 548 972.0 522.5Q976 497 976 476Q976 420 945 420Q940 420 934 423L937 59Q937 52 932 47H964Q971 47 971 39V8Q971 0 964 0H92Q85 0 85 8V39Q85 45 91 45H106V585H38V605Q38 610 37.5 621.0Q37 632 37 638Q37 668 54 695ZM125 924Q126 924 158 917L126 968L93 917Q123 924 125 924ZM957 15V32H100V15ZM381 565 393 806 317 574ZM766 953Q800 953 818.0 938.0Q836 923 836 909Q836 894 818 880Q817 879 815 878L813 876Q815 832 815 754Q832 754 902 756Q901 765 900.5 793.0Q900 821 896.5 851.0Q893 881 884 909Q874 938 846.0 955.5Q818 973 802 973Q773 973 749 952Q754 953 766 953ZM743 905Q757 905 757 887Q757 876 743 876Q723 876 723 887Q723 894 729.0 899.5Q735 905 743 905ZM809 909Q795 926 766 926Q747 926 717 919Q706 903 706 883Q706 867 708 863Q712 855 734.0 832.5Q756 810 761 799Q778 765 778 716Q778 697 767 653Q767 654 776.0 666.5Q785 679 797.5 692.0Q810 705 817 705Q829 705 829 667Q829 649 825 645Q817 636 811.0 630.0Q805 624 797.5 619.0Q790 614 786.5 612.0Q783 610 771.0 603.5Q759 597 752 593Q739 529 726 513Q720 504 711 500Q688 487 686 487Q673 486 649.5 484.5Q626 483 616.0 482.0Q606 481 589.0 479.0Q572 477 558.0 473.0Q544 469 527 463L517 451Q504 415 484.5 321.5Q465 228 447 179Q443 168 433.0 152.5Q423 137 420 135Q399 121 357.0 107.0Q315 93 299 78Q299 78 303 76Q357 78 377 78Q401 78 459 76Q465 77 468.0 77.5Q471 78 473 78V85Q473 87 477.5 118.5Q482 150 487.0 178.0Q492 206 500.5 245.0Q509 284 523.0 323.0Q537 362 554 395Q565 414 594 414H605Q619 415 645 415Q662 415 691.0 414.0Q720 413 733 413Q776 413 798.5 418.0Q821 423 825.5 428.5Q830 434 833 445Q840 468 844.0 512.0Q848 556 848 588L849 620Q849 642 847.0 679.0Q845 716 845 727H802Q788 727 788 740Q788 741 787.0 772.5Q786 804 785.5 838.0Q785 872 785 877V878Q785 888 797.0 898.0Q809 908 809 909ZM66 711Q103 748 109 775V778Q109 782 104.5 786.0Q100 790 91.5 795.5Q83 801 78 806Q59 806 47 788Q53 790 55 790Q70 790 70 772Q70 760 55 760Q51 760 45 762Q45 759 45.5 749.5Q46 740 48.0 732.5Q50 725 56 719Q58 717 66 711ZM902 287 900 466Q900 473 905.0 478.0Q910 483 917 483Q926 483 931 475Q932 473 934.5 469.5Q937 466 938.5 464.0Q940 462 941 460Q942 465 942 476Q942 505 933.0 535.5Q924 566 916 566Q915 566 906.0 563.0Q897 560 891 560Q887 560 885 561V545Q881 464 867.5 427.0Q854 390 815 382Q772 375 733 375Q718 375 689.5 376.0Q661 377 645 377Q619 377 606 376H589Q591 372 591 368V76H695Q694 270 694 270Q694 277 699.0 282.0Q704 287 711 287ZM902 254H728L729 76H904ZM562 47Q557 52 557 59V305Q546 273 536.5 234.0Q527 195 523.0 169.5Q519 144 515.0 113.5Q511 83 511 82Q511 80 511.5 78.0Q512 76 512 75Q512 75 511.5 71.0Q511 67 510.0 63.5Q509 60 505.5 55.0Q502 50 497 47ZM731 669 561 655Q550 654 537.5 649.5Q525 645 524 645H509L521 604Q546 602 583 591Q701 623 721 629Q722 635 726 647Q726 648 727.0 651.0Q728 654 729.0 659.0Q730 664 731 669ZM129 777Q129 751 93.0 711.0Q57 671 57 638Q57 633 57.5 622.0Q58 611 58 605H192Q192 609 191.5 615.0Q191 621 191 624Q191 635 192.5 655.0Q194 675 194 684Q194 696 192.0 708.5Q190 721 183.5 740.0Q177 759 160.5 775.0Q144 791 120 799Q129 790 129 777Z" fill="currentColor"/>
  </g>
</svg>