<svg xmlns="http://www.w3.org/2000/svg" viewBox="0 0 886 1000">
  <g transform="scale(1,-1) translate(0,-1000)">
    <path d="M542 761Q542 765 558.0 772.5Q574 780 591.0 793.5Q608 807 609 827Q589 845 589 883Q589 923 629.0 961.5Q669 1000 711 1000Q738 1000 772.5 976.0Q807 952 819 922Q826 904 831.5 858.5Q837 813 838.5 782.0Q840 751 840 744Q840 739 836.0 734.5Q832 730 827 730Q821 730 811.5 729.0Q802 728 795.5 727.5Q789 727 788 727Q791 721 794.5 682.5Q798 644 798 621V594H799Q801 594 810.0 597.5Q819 601 826 601Q848 601 863.0 575.0Q878 549 882.0 523.5Q886 498 886 477Q886 421 855 421Q850 421 844 424L847 59Q847 52 842 47H874Q881 47 881 39V8Q881 0 874 0H21Q14 0 14 8V39Q14 47 21 47H189Q168 58 168 78Q168 92 175 99Q197 122 244.0 139.0Q291 156 305 165Q312 175 315.0 180.5Q318 186 321.5 196.0Q325 206 327.0 213.0Q329 220 335.0 242.5Q341 265 347 286Q350 296 359.5 343.5Q369 391 378.5 429.0Q388 467 394 473L410 492Q423 505 469.5 513.5Q516 522 547.5 524.5Q579 527 588 527Q591 529 599.0 532.5Q607 536 608 538Q614 552 619 573Q618 573 616.0 573.5Q614 574 613 574L458 559Q445 558 434 554Q431 539 412.5 526.0Q394 513 356 513Q320 513 282 531L298 453V452Q298 443 284 443Q272 443 271 449L258 526L142 502V247L174 173Q175 171 175 167Q175 161 170.5 156.5Q166 152 160 152Q150 152 146 161L127 205L108 161Q104 152 94 152Q88 152 83.5 156.5Q79 161 79 167Q79 171 112 247V496L96 493H95Q85 493 85 514Q85 526 92 527L112 530V672L11 651H10Q6 651 3.0 658.0Q0 665 0 673Q0 684 7 685L112 703V851Q100 841 96 833Q91 823 87.0 813.0Q83 803 79.0 789.0Q75 775 73 768Q72 778 67.0 800.0Q62 822 62 834Q62 848 67.0 858.0Q72 868 80.0 878.0Q88 888 92 896Q108 935 111.5 947.0Q115 959 120 991Q123 985 130.5 976.5Q138 968 142.0 960.5Q146 953 146 944V938Q146 912 131 877Q142 873 142 863V708L169 712L153 786Q153 789 159.5 793.0Q166 797 172 797Q180 797 181 790L192 717Q214 739 240.0 751.5Q266 764 276.5 766.0Q287 768 292 768H305Q332 768 344 747Q360 753 372 753Q403 753 433 728L651 715V721Q651 759 637 799Q634 783 604.5 762.5Q575 742 567 742Q558 742 550.0 748.5Q542 755 542 761ZM867 15V32H28V15ZM676 953Q710 953 728.0 938.0Q746 923 746 909Q746 894 728 880Q727 879 725 878L723 876Q725 832 725 755H733Q748 755 812 757Q810 767 810.0 794.0Q810 821 806.5 851.0Q803 881 794 909Q784 938 756.0 955.5Q728 973 712 973Q683 973 659 952Q664 953 676 953ZM653 905Q667 905 667 887Q667 876 653 876Q633 876 633 887Q633 894 639.0 899.5Q645 905 653 905ZM719 909Q705 926 676 926Q657 926 627 919Q616 903 616 883V875Q616 860 640.5 836.5Q665 813 671 800Q688 766 688 717Q688 698 677 654Q677 655 686.0 667.5Q695 680 707.5 693.0Q720 706 727 706Q739 706 739 668Q739 652 735 646Q727 637 721.0 631.0Q715 625 707.5 620.0Q700 615 696.5 613.0Q693 611 681.0 604.5Q669 598 662 594Q649 530 636 514Q630 505 621 501Q598 488 596 488Q583 487 559.5 485.5Q536 484 526.0 483.0Q516 482 499.0 480.0Q482 478 468.0 474.0Q454 470 437 464L427 452Q414 416 394.5 322.0Q375 228 357 179Q353 168 343.0 152.5Q333 137 330 135Q309 121 267.0 107.0Q225 93 209 78Q209 78 213 76Q267 78 287 78Q311 78 369 76Q375 77 378.0 77.5Q381 78 383 78V85Q383 87 387.5 119.0Q392 151 397.0 178.5Q402 206 410.5 245.5Q419 285 433.0 324.0Q447 363 464 396Q475 415 504 415Q504 415 514.0 415.5Q524 416 536.5 416.0Q549 416 555 416Q572 416 601.0 415.0Q630 414 643 414Q686 414 708.5 419.0Q731 424 735.5 429.5Q740 435 743 446Q750 469 754.0 513.0Q758 557 758 589L759 621Q759 644 757.0 681.0Q755 718 755 728H712Q698 728 698 741Q698 742 697.0 773.5Q696 805 695.5 838.5Q695 872 695 877V878Q695 888 707.0 898.0Q719 908 719 909ZM214 706Q233 693 268 693Q310 693 320 710Q316 715 316 724L317 727Q318 729 321 732Q314 747 296 747Q270 747 245 733Q240 730 230.5 721.5Q221 713 214 709Q213 708 213 708V707Q213 706 214 706ZM403 549Q396 549 385.5 550.5Q375 552 362.0 558.5Q349 565 349 576Q349 581 350 583Q340 580 332.0 575.0Q324 570 314.5 562.5Q305 555 299 551Q298 550 298 550V549Q298 547 299 547Q325 534 349 534Q391 534 403 549ZM812 288 810 467Q810 474 815.0 479.0Q820 484 827 484Q836 484 841 476Q842 474 844.5 470.5Q847 467 848.5 465.0Q850 463 851 461Q852 466 852 478Q852 507 843.0 537.0Q834 567 826 567Q825 567 816.0 564.0Q807 561 801 561Q797 561 795 562V546Q791 465 777.5 428.0Q764 391 725 383Q682 376 643 376Q628 376 599.5 377.0Q571 378 555 378Q553 378 527 378L501 377V76H605Q604 271 604 271Q604 278 609.0 283.0Q614 288 621 288ZM812 255H638L639 76H814ZM472 47Q467 52 467 59V306Q456 274 446.5 235.0Q437 196 433.0 170.0Q429 144 425.0 114.0Q421 84 421.0 82.0Q421 80 421.5 78.0Q422 76 422 75Q422 75 421.5 71.0Q421 67 420.0 63.5Q419 60 415.5 55.0Q412 50 407 47ZM277 559Q299 581 325.0 593.5Q351 606 361.5 608.0Q372 610 377 610H390Q411 610 423 597Q445 593 463 587L606 626Q611 628 619.5 628.5Q628 629 631 630Q632 636 636 648Q636 649 637.0 652.0Q638 655 639.0 660.5Q640 666 641 671L428 701Q417 700 404.5 695.0Q392 690 391 690H377Q372 690 360.0 692.5Q348 695 342 695Q324 672 271 672Q235 672 197 690L213 611V609Q213 601 200 601Q188 601 186 608L173 684L142 678V535L254 554L238 628Q238 631 244.5 634.5Q251 638 257 638Q265 638 266 632Z" fill="currentColor"/>
  </g>
</svg>