<svg xmlns="http://www.w3.org/2000/svg" viewBox="0 0 749 1000">
  <g transform="scale(1,-1) translate(0,-1000)">
    <path d="M588 606 677 569 594 665Q589 631 588 606ZM433 953Q464 949 494.0 930.0Q524 911 524 880Q524 878 523.5 870.5Q523 863 523 860Q523 855 524.0 851.0Q525 847 528.0 844.0Q531 841 531.5 840.0Q532 839 538 836L544 832Q567 867 567 887Q567 919 541.5 943.0Q516 967 477 967Q452 967 433 953ZM430 903Q437 903 442.0 896.5Q447 890 447 882Q447 876 441.5 871.5Q436 867 430 867Q406 867 406 882Q406 903 430 903ZM552 486 427 501 381 314 555 316ZM458 622Q458 634 468.0 642.0Q478 650 492 650Q498 650 517.5 643.0Q537 636 548 629Q549 660 554.0 678.0Q559 696 562.5 701.0Q566 706 576.0 711.0Q586 716 588 718L592 725Q560 741 547.0 752.5Q534 764 526.0 783.0Q518 802 512 812V816Q495 828 495 860Q495 864 495.5 870.5Q496 877 496 880Q496 896 478.0 907.0Q460 918 442 922L425 925Q420 925 411.0 923.5Q402 922 399 922Q385 900 385 877Q385 844 413.0 821.5Q441 799 441 767Q441 754 434.5 742.0Q428 730 423.5 726.0Q419 722 406 711Q446 642 446 597V591Q446 584 441 529L543 518Q543 528 545.0 552.0Q547 576 547 580Q544 579 538 579Q511 579 484.5 591.0Q458 603 458 622ZM117 815Q127 815 135.5 804.0Q144 793 144 784V782L229 638L344 725Q351 726 361.5 728.5Q372 731 389.5 741.5Q407 752 407 767Q407 780 398.5 789.0Q390 798 379.5 804.5Q369 811 360.5 829.5Q352 848 352 877Q352 925 391.0 962.5Q430 1000 477 1000Q533 1000 566.0 965.0Q599 930 599 887Q599 875 594.5 861.0Q590 847 586.5 840.0Q583 833 573.0 816.5Q563 800 562 798Q575 774 592.5 763.0Q610 752 623.5 747.0Q637 742 641 733L742 563Q749 543 749 524V514Q746 505 727 505Q718 505 702 507L587 562Q586 555 586 539Q586 534 585.0 522.5Q584 511 584 505V499L591 324L596 284Q618 222 653 136Q671 79 671 70Q671 58 635.5 29.0Q600 0 581 0H579Q554 0 549 8Q550 17 554.5 24.0Q559 31 565.5 37.5Q572 44 585.5 60.5Q599 77 614 99L537 282L396 281L357 167Q322 86 316.0 69.5Q310 53 310 36Q310 13 303.0 6.5Q296 0 271 0H269Q242 0 201.5 16.0Q161 32 161 41Q167 65 194 65Q201 65 216.5 61.5Q232 58 241 58Q253 58 259 60Q312 216 340 319H341L394 492Q373 518 373 525Q373 539 401 545Q405 579 405 591Q405 601 404.5 608.0Q404 615 402.0 621.5Q400 628 399.0 631.5Q398 635 393.5 644.5Q389 654 386 661L243 582Q241 582 236.0 581.5Q231 581 228 581Q217 581 215 585L108 764Q103 766 89.5 769.5Q76 773 65.0 776.0Q54 779 42.0 784.0Q30 789 23.0 795.5Q16 802 16 810Q16 816 29 816Q32 816 39.0 815.5Q46 815 51 815Q63 815 70 816Q40 821 20.0 845.0Q0 869 0 900Q0 943 38 966V971Q38 980 44.0 986.0Q50 992 59 992H110Q119 992 125.0 986.0Q131 980 131 971Q131 967 130 965Q168 941 168 900Q168 869 148.5 845.0Q129 821 100 816Q104 815 111 815ZM85 845Q107 845 122.0 860.5Q137 876 137 898Q137 902 135.5 907.5Q134 913 129.5 923.0Q125 933 113.0 939.0Q101 945 83 945Q54 945 42.5 929.0Q31 913 31 898Q31 876 46.5 860.5Q62 845 85 845Z" fill="currentColor"/>
  </g>
</svg>