<svg xmlns="http://www.w3.org/2000/svg" viewBox="0 -2048 2048 2048">
	<path fill="currentColor" d="M1232 281Q1198 321 1111 321Q1079 321 969.5 289.5Q860 258 785 258L279 310Q100 310 100 192Q100 72 278 -19Q402 -69 527 -119Q490 -159 417 -220Q398 -223 366 -238Q353 -251 353 -274Q353 -300 376 -320Q395 -337 413 -337Q430 -337 513 -258Q560 -213 607 -168Q627 -288 627 -356V-860Q627 -906 667 -954Q703 -998 737 -1009Q728 -1033 732 -1059Q719 -1062 694 -1064Q669 -1066 656 -1069Q645 -1059 646 -1040Q648 -1014 646 -1008Q638 -993 625 -964Q575 -974 560 -974Q553 -981 553 -990Q553 -995 577 -1023Q607 -1057 620 -1078Q621 -1081 621 -1095Q621 -1102 618 -1124Q616 -1151 615 -1159Q586 -1175 550 -1187Q550 -1190 546 -1201.5Q542 -1213 542 -1219Q542 -1222 568.5 -1256.5Q595 -1291 604 -1309Q629 -1364 692 -1468Q733 -1521 848 -1521Q1047 -1521 1093 -1282Q1094 -1248 1100 -1177L1116 -748Q1116 -748 1051 -748Q1049 -746 1044 -739Q1016 -391 1016 -287Q1016 -186 1024 -154Q1038 -99 1044 -45Q1045 -37 1049 -13.5Q1053 10 1053 16Q1053 39 1034 86Q1013 138 995 146Q995 150 1004 157Q1088 195 1232 281ZM1089 -770L1074 -1229Q1064 -1334 1019 -1407Q961 -1500 864 -1500Q698 -1500 643 -1338L837 -1321Q854 -1321 869 -1334.5Q884 -1348 898 -1348Q923 -1348 940 -1306Q953 -1275 953 -1256Q953 -1229 946 -1215Q937 -1198 917 -1189V-770ZM626 -1031Q613 -1019 595 -997Q600 -992 609 -990Q612 -995 617.5 -1010.5Q623 -1026 626 -1031ZM1021 -743H895V-1202Q927 -1223 927 -1261Q927 -1297 892 -1321Q864 -1295 864 -1295L633 -1316Q623 -1292 599 -1247Q586 -1232 569 -1207Q605 -1198 636 -1181Q643 -1091 643 -1096Q654 -1093 713 -1091Q754 -1089 758 -1077V-998Q648 -933 648 -829V-419Q648 -413 640 -342Q632 -271 632 -265V-148H651Q837 -202 994 -196Q994 -189 992 -235.5Q990 -282 990 -366ZM600 -139Q556 -183 512 -228Q426 -311 408 -311Q394 -311 379 -294V-265Q390 -249 410 -246Q435 -243 438 -241Q460 -226 511 -174Q557 -127 558 -127Q579 -127 600 -139ZM1027 34L1000 -168Q992 -168 974 -171Q956 -174 950 -174Q797 -174 535 -91Q266 -6 190 72Q221 74 266.5 112Q312 150 312 178Q428 110 563 110Q570 110 734.5 139Q899 168 906 168Q948 168 986 123Q1021 81 1027 34ZM1187 281Q1124 281 1077 255Q1050 239 1020 205Q995 179 985 179Q978 179 941 184Q904 189 898 189Q819 189 685 160Q551 131 553 131Q523 131 299 205Q285 168 245 131Q202 92 165 90Q121 150 121 197Q121 284 284 284L792 231Q849 231 974.5 265.5Q1100 300 1103 300Q1146 300 1187 281ZM726 -1222Q700 -1228 653 -1239Q668 -1279 700 -1279Q727 -1279 726 -1256Z"/>
</svg>