<svg xmlns="http://www.w3.org/2000/svg" viewBox="0 -2048 2048 2048">
	<path fill="#000000" d="M1285 314Q1284 338 1264 348Q1226 367 1126 367Q1114 367 1046 334Q978 301 952 301H725Q696 301 650 311Q589 325 576 327Q404 352 294 352Q100 352 100 238Q100 155 143 117Q288 -12 593 -100Q616 -107 630 -108Q633 -117 645.5 -183.5Q658 -250 658 -259V-400L433 -377Q429 -377 422 -378.5Q415 -380 412 -380Q369 -380 305 -364Q229 -345 226 -345Q159 -345 159 -399Q159 -421 166 -456L160 -465H142Q137 -475 137 -489Q137 -500 141 -510Q145 -509 190 -509Q241 -509 282 -493Q330 -474 327 -474Q328 -474 419 -493Q501 -501 661 -536Q610 -536 543 -536Q462 -535 425 -535Q368 -535 243 -551Q203 -539 204 -539Q195 -539 192 -546Q193 -536 176 -536Q114 -536 114 -600Q114 -600 115 -617L129 -628H110L106 -677Q148 -681 224 -666Q230 -663 245 -646Q254 -636 272 -636Q276 -636 284.5 -640.5Q293 -645 298 -645Q340 -645 423.5 -651Q507 -657 549 -657Q560 -657 657 -645V-653Q657 -689 655.5 -760Q654 -831 654 -867Q654 -905 690 -949Q722 -987 761 -1007V-1063Q713 -1070 679 -1070Q678 -1058 678 -1037.5Q678 -1017 669 -999Q660 -981 651 -964Q623 -969 567 -979Q590 -1004 613 -1030Q646 -1066 646 -1083Q646 -1099 607.5 -1149Q569 -1199 569 -1209Q569 -1215 598 -1264.5Q627 -1314 630.5 -1328Q634 -1342 641 -1370Q650 -1404 684.5 -1447Q719 -1490 750 -1507Q809 -1539 884 -1539Q922 -1539 980 -1520Q1042 -1500 1065 -1476Q1083 -1451 1119 -1402Q1125 -1394 1136 -1376Q1161 -1318 1161 -1271V-733H1092Q1061 -364 1061 -176Q1061 -148 1071 -107Q1085 -44 1086 -39Q1093 1 1093 63Q1093 144 1035 191Q1061 197 1084 232Q1110 273 1127 282Q1155 297 1269 301Q1274 309 1285 314ZM1135 -757V-1280Q1135 -1280 1125 -1322Q1123 -1336 1117 -1363Q1092 -1433 1027.5 -1473Q963 -1513 886 -1513Q819 -1513 769 -1491Q746 -1481 703 -1429.5Q660 -1378 660 -1356V-1338H902Q912 -1351 937 -1351Q993 -1351 993 -1257Q993 -1220 955 -1194V-757ZM971 -1248Q971 -1323 921 -1324Q907 -1315 902 -1315L650 -1318Q647 -1301 621 -1257Q595 -1213 595 -1209Q595 -1200 613 -1179Q637 -1150 637 -1150Q648 -1126 667 -1095Q671 -1092 695 -1092Q710 -1092 737.5 -1089Q765 -1086 777 -1086L787 -1078V-996Q674 -933 674 -827Q674 -824 684 -539Q701 -547 713 -565L932 -912V-1206Q971 -1230 971 -1248ZM650 -1044Q631 -1012 609 -993Q614 -992 637 -988Q649 -1009 650 -1044ZM1067 -731H1020L904 -562Q848 -480 846 -479Q808 -431 768 -419Q747 -413 684 -407V-395Q684 -243 655 -114H660Q662 -114 703 -124Q884 -168 1041 -167Q1041 -183 1040 -217Q1040 -251 1040 -268Q1040 -305 1067 -731ZM992 -730Q973 -731 972 -731Q962 -731 933 -727V-873Q880 -782 827 -691Q754 -566 711 -526Q679 -518 627 -504Q588 -491 524 -483Q441 -474 420 -470Q325 -451 327 -451Q315 -451 272 -468.5Q229 -486 200 -486H172Q197 -483 245 -472Q229 -459 210 -459Q199 -459 187 -462Q185 -404 185 -416Q185 -370 226 -370Q248 -370 283 -379Q328 -391 340 -393Q383 -400 555 -410Q688 -419 767 -442Q808 -454 992 -730ZM657 -559V-627Q639 -627 601.5 -630.5Q564 -634 545 -634Q498 -634 404 -623.5Q310 -613 263 -613Q246 -613 224 -633.5Q202 -654 173 -654Q167 -654 153 -653Q140 -653 132 -653V-651Q184 -651 197 -648Q232 -638 232 -602Q232 -588 219 -569Q232 -574 240 -574Q259 -574 295 -566.5Q331 -559 350 -559ZM209 -601Q209 -628 179 -628H157Q155 -623 148 -615Q141 -607 141 -598Q141 -562 170 -562Q183 -562 196 -575Q209 -588 209 -601ZM1074 75Q1074 -9 1039 -141Q981 -144 986 -144Q888 -144 717 -107Q559 -73 453 -34Q242 44 192 107Q303 147 320 219Q489 149 600 149Q606 149 712 169L935 211Q936 211 941 211Q968 211 1008 181Q1045 152 1058 126Q1061 121 1068 92Q1074 69 1074 75ZM1251 326Q1200 322 1115 300Q1102 293 1071 252Q1044 216 1029 216Q1013 216 981.5 225Q950 234 934 234Q880 234 792 212Q685 185 651 180Q592 172 598 172Q595 172 563 177Q412 201 310 250Q299 216 253 157Q205 122 169 122Q160 122 140 155Q123 184 123 235Q123 297 180 317Q212 329 289 329Q410 329 597 302Q609 300 662 288Q702 279 728 279H949Q975 279 1045.5 310Q1116 341 1127 341Q1215 341 1251 326ZM767 -1233H749Q712 -1233 672 -1238Q710 -1285 725 -1285Q744 -1285 767 -1233ZM732 -1255L727 -1259H725L717 -1256Z"/>
</svg>