<svg xmlns="http://www.w3.org/2000/svg" viewBox="0 0 681 1000">
  <g transform="scale(1,-1) translate(0,-1000)">
    <path d="M266 917Q266 925 251 951L236 977Q236 982 241.0 987.5Q246 993 254.0 993.0Q262 993 270.5 982.5Q279 972 284.5 960.0Q290 948 294 936L299 925Q301 912 315 886L367 731L441 734Q462 735 482.5 751.0Q503 767 503 777Q503 788 494.0 797.0Q485 806 473.5 812.0Q462 818 453.0 836.5Q444 855 444 882Q444 923 475 955Q515 1000 563 1000Q616 1000 648.5 966.5Q681 933 681 893Q681 878 672.0 863.5Q663 849 649.5 834.0Q636 819 631 811V810Q631 801 646.0 782.5Q661 764 661 755Q661 748 648.0 698.0Q635 648 635 613Q635 603 636.0 583.0Q637 563 638.5 540.5Q640 518 641.5 497.5Q643 477 644 463L645 449Q645 391 627.5 370.5Q610 350 571 348L244 347Q228 339 220.0 333.5Q212 328 204.0 317.5Q196 307 192 291Q182 258 179.0 183.5Q176 109 162 60Q158 46 158 12V10Q158 0 106 0H26Q17 0 13.5 0.0Q10 0 6.0 1.0Q2 2 1.0 4.0Q0 6 0 10V16Q0 31 20.5 39.0Q41 47 67.0 52.0Q93 57 99 62Q119 115 120.5 211.5Q122 308 147 368Q161 397 216 423Q258 443 315.5 456.0Q373 469 410.0 477.0Q447 485 455 497Q458 503 462.5 510.0Q467 517 468.5 519.0Q470 521 471.5 526.0Q473 531 473.5 536.0Q474 541 474 549Q474 569 466 643Q464 658 442 685L254 692Q243 692 240 702L192 854Q182 867 173 869Q172 869 170.5 870.5Q169 872 167 873L165 874Q159 874 147.0 888.0Q135 902 135 911Q135 917 142 917Q145 917 151.0 909.0Q157 901 163 901Q167 901 167 906Q165 917 151.5 937.0Q138 957 138 959Q138 964 143.5 970.0Q149 976 157.0 976.0Q165 976 173.5 966.0Q182 956 187.0 944.0Q192 932 196 920L201 909Q202 902 208 886L218 871Q227 853 236.5 827.5Q246 802 255.0 782.0Q264 762 279 742Q282 738 290.0 735.0Q298 732 304 731L310 730L326 729L290 869Q289 874 286.5 877.0Q284 880 281.5 880.5Q279 881 274.5 882.0Q270 883 269.0 883.0Q268 883 263.5 885.5Q259 888 258 888Q252 888 239.0 903.0Q226 918 226 924Q226 931 233 931Q236 931 243.0 923.0Q250 915 257 915Q266 915 266 917ZM521 955Q550 951 579.5 933.0Q609 915 609 885Q609 882 608.5 875.5Q608 869 608 867Q608 848 628 841Q650 878 650 893Q650 923 625.0 945.5Q600 968 563 968Q538 968 521 955ZM518 908Q534 908 534 888Q534 882 529.0 878.0Q524 874 518 874Q494 874 494 888Q494 896 501.0 902.0Q508 908 518 908ZM535 784Q535 763 523.0 749.5Q511 736 490.0 725.5Q469 715 466 713Q469 708 476.5 698.5Q484 689 487.5 683.5Q491 678 495.0 668.0Q499 658 500 647Q509 582 509 549V544Q509 501 484.5 476.0Q460 451 423.5 442.5Q387 434 349.5 429.0Q312 424 282.0 413.0Q252 402 245 380L565 382Q592 384 601.0 396.5Q610 409 610 451Q610 451 609.0 464.0Q608 477 606.5 497.0Q605 517 603.5 538.5Q602 560 601.0 580.5Q600 601 600 613Q600 635 615.0 693.0Q630 751 630 754Q630 761 616.5 783.5Q603 806 598 821Q581 833 581 867Q581 871 581.5 877.0Q582 883 582 885Q582 901 564.5 912.0Q547 923 530 926L512 929Q504 929 489 924Q475 907 475 882Q475 867 477 860Q479 849 504.0 829.5Q529 810 533 789Q535 787 535 784Z" fill="currentColor"/>
  </g>
</svg>