<svg xmlns="http://www.w3.org/2000/svg" viewBox="0 0 770 1000">
  <g transform="scale(1,-1) translate(0,-1000)">
    <path d="M511 836Q529 836 529 814Q529 800 511 800Q487 800 487 814Q487 824 494.0 830.0Q501 836 511 836ZM556 748Q556 749 567.0 765.0Q578 781 589.5 803.0Q601 825 601 841Q601 864 587.5 869.0Q574 874 539 874Q514 874 483.5 853.5Q453 833 453 809Q453 801 480.0 784.5Q507 768 509 763Q532 726 532 706Q532 691 526.5 680.0Q521 669 517.5 665.0Q514 661 500.0 652.0Q486 643 484 641Q486 638 495.0 626.5Q504 615 507 608Q526 623 539 623Q548 623 557.0 616.0Q566 609 566 600Q566 593 558.5 583.5Q551 574 521 544Q526 509 526 483Q526 419 499.0 386.5Q472 354 401 320L543 321Q559 322 566.0 325.0Q573 328 579.0 343.5Q585 359 585 391Q585 409 581.0 455.0Q577 501 577 529Q577 558 584.5 597.0Q592 636 603 656Q568 705 562.0 716.5Q556 728 556 748ZM328 213Q311 177 304.0 154.5Q297 132 279 93Q278 90 275.0 82.0Q272 74 269.5 67.5Q267 61 265 59Q257 49 233 47H366Q362 51 362 59V277Q347 253 328 213ZM76 724Q66 724 60.0 717.5Q54 711 54 700Q54 684 69.5 666.5Q85 649 100.0 638.5Q115 628 118 628H120Q121 633 121 644Q121 674 108.0 699.0Q95 724 76 724ZM30 708Q30 725 45.0 737.5Q60 750 77 750Q101 750 121.0 716.5Q141 683 141 639Q141 635 140.5 628.5Q140 622 140 619L206 659Q207 660 210 660Q220 660 220 642Q220 637 218 636L153 599L233 469Q239 469 251.5 466.0Q264 463 273 463Q292 463 335.0 474.0Q378 485 388 492Q403 503 420.0 520.0Q437 537 455.5 557.5Q474 578 481 585Q477 595 467 607L297 553Q292 553 283.0 552.0Q274 551 265 551Q257 551 248.5 557.0Q240 563 240 574V577Q240 586 258 608Q290 646 320.0 689.0Q350 732 350 739Q371 766 395 766Q427 766 427 753V747Q427 731 419.5 724.0Q412 717 393.0 709.0Q374 701 360 690L311 606Q327 613 376.0 630.0Q425 647 455 661Q464 669 477.0 676.5Q490 684 494.5 689.5Q499 695 499 706Q499 714 482 744Q479 746 468.0 752.5Q457 759 450.5 764.0Q444 769 435.5 776.0Q427 783 423.0 791.5Q419 800 419 809Q419 849 468 882Q466 884 464 888Q442 891 437.0 893.0Q432 895 432 901Q432 911 442 911Q449 911 461 908Q462 911 465.0 918.0Q468 925 469 931Q469 933 467.5 939.5Q466 946 466 950Q466 951 467.5 954.0Q469 957 469 959Q464 966 464 973Q464 984 472.0 991.5Q480 999 490 999Q507 999 512 981Q517 1000 537 1000Q555 1000 560 982Q567 999 584 999Q595 999 601.5 990.5Q608 982 608 969Q608 963 604 957Q609 952 609 945Q609 942 608.0 937.5Q607 933 607 931Q607 928 612 910Q613 910 614 910L616 911Q626 911 626 901Q626 890 613 890Q613 890 612.5 889.0Q612 888 612 887Q630 871 630 845Q630 807 591 746Q596 715 615.5 690.0Q635 665 635.0 658.0Q635 651 628 616Q658 621 667 621Q700 621 714.5 576.5Q729 532 729 492Q729 434 696 434Q691 434 685 437L688 59Q688 51 684 47H763Q770 47 770 39V8Q770 0 763 0H7Q0 0 0 8V39Q0 47 7 47H164Q159 50 159 55Q159 62 193.0 72.0Q227 82 234 98Q255 150 266.5 199.0Q278 248 299 306Q306 314 327 327Q446 382 469.0 403.0Q492 424 492 483Q492 504 491 515Q426 461 420 461Q415 459 400 454Q396 453 273 432Q263 430 250.5 425.5Q238 421 227 421H221Q205 422 192.5 432.5Q180 443 180 454Q180 467 196 468L129 586L67 548H66Q62 548 56.5 554.0Q51 560 51 566Q51 569 55 572L117 605Q78 621 56.5 648.5Q35 676 32.5 688.0Q30 700 30 708ZM756 15V32H14V15ZM546 972Q546 985 537 985Q526 985 526 975Q526 969 533 967H538Q542 967 544 966Q546 967 546 972ZM579 965H591Q593 967 593 969Q593 983 584 983Q573 983 573 972Q573 967 579 965ZM499 970Q499 984 490 984Q479 984 479 973Q479 968 484 966H488Q494 966 497 965Q499 966 499 970ZM652 223 650 482Q650 499 667 499Q677 499 682 491Q688 480 692 475Q693 481 693 493Q693 523 683.5 554.5Q674 586 666 586Q665 586 644.5 583.0Q624 580 618 580H617Q610 555 610 529Q610 502 614.5 455.0Q619 408 619 388Q619 288 549 288L396 286V76H492V206Q492 223 509 223ZM652 189H527V76H653ZM580 903Q581 904 597 908Q592 925 592 931Q592 935 594 940L595 946Q594 948 592 949Q592 949 590 948H588Q582 948 579 949Q579 944 580.0 938.0Q581 932 581 930Q581 926 574 905Q576 905 580 903ZM563 917Q566 923 566 930Q566 932 565.0 938.0Q564 944 564 948Q564 948 564.5 951.0Q565 954 565 956Q562 960 560 964Q558 960 557 959Q561 955 561 947Q561 944 560.0 939.5Q559 935 559 933Q559 927 563 917ZM518 959Q514 963 513 965Q511 959 509 956Q512 951 512 947Q512 944 511.0 939.0Q510 934 510 932Q510 924 513 916Q518 928 518 932Q518 934 517.0 940.0Q516 946 516 950Q516 951 517.0 954.0Q518 957 518 959ZM533 952Q532 952 532.0 951.5Q532 951 531 951Q531 946 532.0 940.0Q533 934 533 932Q533 927 526 906Q536 908 539 908H550Q544 929 544.0 933.0Q544 937 546 942L547 948Q546 950 544 951H541Q536 951 533 952ZM500 899Q500 900 500 900L501 902Q501 905 498.0 916.0Q495 927 495 932Q495 936 496 942L497 947L495 949H494Q491 949 483 951Q482 951 482.0 950.5Q482 950 481 950Q481 945 482.5 939.0Q484 933 484.0 931.0Q484 929 476 905Q479 905 500 899Z" fill="currentColor"/>
  </g>
</svg>