<svg xmlns="http://www.w3.org/2000/svg" viewBox="20.4 -1643.6 1368.2 2149.2">
	<path fill="currentColor" d="M1309 369Q1309 426 1246 426Q985 426 985 426Q985 407 985 370Q1047 355 1109 341Q1189 311 1189 244Q1189 207 1156 89Q1133 12 1111 -66Q1103 -111 1077 -202H926Q889 -130 846 33Q801 209 757 305Q756 338 752 394Q751 405 748 413Q743 426 702 426Q695 426 662 420.5Q629 415 622 415Q614 415 586.5 420.5Q559 426 553 426H426Q427 416 420 376Q494 351 567 327Q660 283 680 189Q695 77 752 -182Q782 -286 863 -522Q933 -729 933 -734Q933 -737 917 -817Q859 -783 833 -783Q815 -783 777 -818Q743 -851 730 -874Q694 -849 658 -825Q610 -794 585 -794Q535 -794 433 -932Q340 -1059 338 -1087Q344 -1097 331 -1097Q324 -1097 325.5 -1094Q327 -1091 320 -1091Q304 -1091 227 -1132.5Q150 -1174 147 -1184Q139 -1208 141 -1225Q137 -1241 100 -1252Q107 -1274 130 -1308Q139 -1305 156 -1299.5Q173 -1294 182 -1291L191 -1299Q151 -1334 151 -1345Q151 -1353 161 -1367Q175 -1385 176 -1387Q185 -1384 202 -1378.5Q219 -1373 228 -1370L237 -1379L203 -1414Q224 -1429 263 -1456Q277 -1439 308 -1410Q311 -1413 318 -1414.5Q325 -1416 328 -1419Q319 -1429 306 -1466Q317 -1469 344.5 -1475Q372 -1481 383 -1484Q392 -1464 401 -1443Q408 -1428 428 -1428Q452 -1428 455 -1450.5Q458 -1473 461 -1496Q489 -1487 539 -1472Q536 -1455 528 -1419Q540 -1409 570 -1399Q570 -1399 604 -1450Q626 -1438 670 -1414L636 -1361Q636 -1352 656 -1342Q665 -1350 690 -1388Q696 -1384 756 -1339L705 -1288Q710 -1280 725 -1261Q727 -1254 716 -1243Q726 -1238 749 -1238V-1172Q733 -1173 686 -1169Q659 -1134 659 -1122Q659 -1098 730 -1051Q814 -1121 927 -1158V-1207Q926 -1208 885 -1217Q878 -1203 863 -1143Q839 -1153 767 -1167Q796 -1191 853 -1238V-1292Q807 -1306 807 -1316Q807 -1318 853 -1396Q834 -1403 815 -1410Q779 -1427 779 -1447Q779 -1448 790.5 -1487Q802 -1526 803 -1557Q808 -1564 827 -1564Q861 -1564 898 -1540Q894 -1530 872 -1498Q854 -1472 854 -1455Q854 -1446 857 -1438Q866 -1438 885 -1470Q911 -1514 918 -1523Q951 -1564 1033 -1564Q1110 -1564 1165 -1533Q1183 -1523 1210.5 -1482.5Q1238 -1442 1244 -1414Q1294 -1188 1291 -1117V-1074Q1272 -1080 1263 -1080L1207 -735Q1225 -684 1243 -632Q1264 -571 1264 -529Q1264 -522 1244 -433.5Q1224 -345 1224 -338Q1224 -248 1256 -102Q1272 -45 1296 64Q1299 88 1294 201Q1292 235 1300 301Q1309 370 1309 369ZM1263 -1109V-1134Q1263 -1134 1248 -1220Q1240 -1282 1233 -1344Q1222 -1423 1198 -1466Q1155 -1542 1030 -1542Q996 -1542 954 -1510Q906 -1475 893 -1428H1038Q1092 -1427 1092 -1362Q1092 -1355 1084 -1333Q1076 -1311 1076 -1304V-1012H1166Q1166 -1014 1165 -1059Q1164 -1092 1176 -1101Q1213 -1110 1263 -1109ZM834 -1502Q807 -1448 807 -1450Q807 -1440 816 -1438Q824 -1436 824 -1441Q834 -1481 834 -1502ZM1070 -1359Q1070 -1405 967 -1405Q913 -1405 900 -1398Q876 -1386 842 -1326Q864 -1326 882 -1315V-1239H956V-1197Q956 -1182 948 -1152Q944 -1144 934 -1132Q882 -1120 854 -1106Q758 -1058 750 -1019Q784 -985 805 -971Q839 -1005 850 -1005Q860 -1005 901 -960L1052 -1070V-1317Q1052 -1324 1061 -1336.5Q1070 -1349 1070 -1359ZM1228 -1085Q1212 -1077 1196 -1079Q1196 -1012 1190 -982Q1154 -982 1151 -980Q1083 -929 944 -833V-815Q944 -807 948 -796Q952 -785 953 -780Q960 -714 945 -705L1183 -727Q1184 -736 1212 -914Q1230 -1031 1228 -1085ZM876 -946Q864 -971 843 -971L819 -945Q845 -919 851 -920Q876 -944 876 -946ZM1109 -981Q1075 -978 1052 -987V-1034Q977 -983 833 -886L618 -1130Q617 -1131 582 -1131Q569 -1131 494 -1146Q541 -1123 589 -1114Q616 -1049 766 -870Q820 -806 833 -806Q875 -806 981 -883Q1045 -932 1109 -981ZM710 -1340Q705 -1345 695 -1348Q684 -1331 662 -1302Q640 -1318 596 -1356Q618 -1378 630 -1402L616 -1416Q612 -1412 593 -1387Q580 -1370 573 -1370Q548 -1370 493 -1403Q504 -1436 504 -1455Q489 -1455 477 -1461Q482 -1448 482 -1437Q482 -1399 411 -1399Q390 -1399 385 -1414Q379 -1435 372 -1456Q354 -1447 340 -1449Q357 -1416 352 -1393Q340 -1393 321.5 -1387.5Q303 -1382 297 -1382Q296 -1382 256 -1422Q251 -1403 283 -1379Q240 -1336 225 -1336Q219 -1336 200 -1343Q185 -1348 180 -1345L220 -1304L204 -1256Q181 -1265 141 -1279Q141 -1274 134 -1264Q158 -1240 186 -1239Q214 -1240 242 -1240Q240 -1257 251 -1266Q266 -1279 271 -1288Q268 -1294 259.5 -1307.5Q251 -1321 248 -1327Q311 -1365 334 -1365Q342 -1365 346 -1343Q351 -1310 352 -1308H384Q387 -1332 395 -1371H472Q481 -1349 478 -1326Q472 -1290 472 -1297Q484 -1297 490 -1291Q513 -1311 553 -1342Q569 -1326 613 -1293L568 -1241H704Q693 -1258 670 -1293Q703 -1324 710 -1340ZM619 -1169H522Q566 -1154 579 -1154Q588 -1154 619 -1169ZM573 -1288L554 -1308Q548 -1304 524 -1281Q505 -1262 499 -1262Q476 -1262 442 -1283Q442 -1292 444.5 -1312.5Q447 -1333 447 -1341Q444 -1341 433.5 -1344Q423 -1347 420 -1347Q418 -1324 404 -1286Q385 -1285 338 -1273Q330 -1285 315 -1330Q291 -1318 283 -1318Q292 -1304 305 -1266Q288 -1257 260 -1241H532Q547 -1264 573 -1288ZM726 -1200V-1210H169V-1200ZM642 -986Q616 -1024 570 -1094Q535 -1105 500 -1116Q452 -1134 435 -1170H415Q415 -1164 411.5 -1149.5Q408 -1135 408 -1128Q408 -1121 478 -1051Q563 -967 587 -937Q631 -966 642 -986ZM362 -1169H297Q302 -1169 317 -1161.5Q332 -1154 340 -1154Q345 -1154 362 -1169ZM1241 -523Q1241 -526 1188 -703Q1028 -680 951 -672Q900 -523 796 -225H1206V-267Q1200 -304 1197 -369Q1200 -397 1220.5 -458Q1241 -519 1241 -523ZM710 -901Q679 -934 662 -960Q634 -937 582 -897Q552 -935 374 -1128Q379 -1133 379 -1141Q359 -1131 342 -1131Q363 -1131 237 -1152Q320 -1119 322 -1119Q329 -1119 332 -1122Q335 -1125 342 -1125Q341 -1125 440 -974Q539 -823 582 -823Q609 -823 658 -855Q707 -887 710 -901ZM1281 391Q1268 209 1271 150Q1274 82 1273 75Q1270 59 1205 -200H1110Q1116 -175 1125 -135Q1152 -35 1180 65Q1218 205 1218 252Q1218 325 1125 363Q1061 389 1007 388Q1027 409 1064 409Q1071 409 1121 400.5Q1171 392 1178 392Q1185 392 1211 397.5Q1237 403 1244 403Q1270 403 1281 391ZM892 -200H786Q752 -72 729 58Q709 174 699 202Q668 296 598 340Q565 361 520 377Q459 400 454 402H536Q544 403 585.5 394.5Q627 386 633 386Q640 386 664.5 394.5Q689 403 696 403Q721 403 725 384Q721 360 723 322Q768 205 822 42Q845 -82 892 -200ZM961 -1368Q958 -1365 954.5 -1358Q951 -1351 948 -1348Q920 -1348 905.5 -1351Q891 -1354 893 -1354Q904 -1393 924 -1393Q936 -1393 961 -1368Z"/>
</svg>