<svg xmlns="http://www.w3.org/2000/svg" viewBox="0 -2048 2048 2048">
	<path fill="#000000" d="M1384 281Q1384 329 1341 329Q1333 329 1324 323.5Q1315 318 1309 318Q1309 318 1297 329H1068V287Q1089 278 1161 260Q1212 248 1232 229Q1261 202 1261 146Q1261 84 1200 -95Q1148 -245 1123 -295H1060Q1031 -249 983 -151Q978 -113 958 -38Q847 230 847 232Q847 238 858 257.5Q869 277 869 286Q869 307 847 320Q830 329 818 329Q811 329 800.5 323.5Q790 318 783 318Q776 318 778 324Q775 326 772 329H536V271Q588 263 641 255Q702 244 733 201Q754 172 795 30Q815 -40 838 -195Q842 -226 924 -425Q1003 -617 1003 -657Q1003 -697 942 -768Q874 -843 807 -918Q806 -916 800 -909Q795 -841 789 -772Q781 -679 759 -624Q736 -566 666 -482Q580 -380 558 -344Q558 -321 549 -280Q541 -263 508 -224L599 -11Q589 -11 581 -4Q551 -74 488 -212Q459 -218 428 -238Q390 -261 390 -284Q390 -296 401 -307Q387 -315 363 -329Q412 -378 412 -380Q412 -394 329 -564Q328 -566 328 -567Q328 -568 328 -568Q294 -568 320 -568Q314 -568 313.5 -567Q313 -566 313 -565Q314 -565 313 -565Q312 -563 307 -563Q278 -563 263 -597Q256 -618 249 -639Q218 -663 219 -685Q239 -691 272 -706Q261 -730 241 -779.5Q221 -829 210 -853Q132 -587 132 -305Q132 -125 157 38Q186 228 238 303H427V328H106V298Q156 307 208 298Q111 122 111 -294Q111 -498 191 -893L100 -1125Q104 -1126 114 -1133Q150 -1066 200 -944Q223 -1006 274 -1138Q280 -1132 293 -1132V-1113Q293 -1108 279 -1079Q263 -1046 259 -1032Q218 -895 218 -902Q218 -890 244 -821Q273 -744 294 -712Q307 -692 361 -692Q363 -692 494 -738Q520 -744 547 -751Q581 -761 593 -782Q603 -842 628 -964Q636 -994 661 -1040Q666 -1050 692 -1076Q713 -1099 713 -1106Q713 -1117 682 -1158Q646 -1160 610 -1162Q562 -1170 562 -1211Q562 -1217 563 -1225Q559 -1223 554 -1223Q539 -1223 521 -1234Q503 -1245 503 -1256Q503 -1260 513 -1285.5Q523 -1311 523 -1323Q529 -1552 713 -1552Q760 -1552 776 -1544Q818 -1524 848.5 -1481.5Q879 -1439 879 -1407Q879 -1400 863 -1335.5Q847 -1271 847 -1264Q847 -1254 883 -1209Q926 -1213 973 -1184Q1024 -1154 1049 -1104Q1078 -1037 1138 -916Q1157 -882 1234 -830.5Q1311 -779 1334 -739Q1352 -707 1352 -652Q1352 -611 1337 -570Q1309 -493 1309 -369Q1309 -270 1350 -99Q1363 -45 1363 -18V187Q1363 194 1373.5 234Q1384 274 1384 281ZM852 -1404Q852 -1456 803 -1495Q758 -1530 710 -1530Q638 -1530 602 -1490Q556 -1439 557 -1398V-1370H700Q700 -1371 715 -1402Q726 -1423 742 -1423Q772 -1423 789 -1374Q803 -1334 817 -1294Q820 -1297 826.5 -1300Q833 -1303 836 -1306Q852 -1410 852 -1404ZM1331 -657Q1331 -693 1318 -717Q1309 -734 1271 -773Q1229 -816 1213 -816Q1215 -816 1026 -680Q1020 -615 981 -509Q947 -416 912 -322H1281Q1280 -388 1289 -506Q1294 -533 1314 -595Q1331 -652 1331 -657ZM1186 -835Q1143 -849 1114.5 -909Q1086 -969 1058 -1029Q1030 -1079 1003 -1130Q963 -1185 897 -1185Q880 -1185 862 -1182Q819 -1248 825 -1271Q823 -1271 819 -1269Q815 -1267 807 -1267Q797 -1267 783 -1316Q766 -1372 742 -1390Q734 -1374 719 -1347H552Q543 -1294 536 -1258Q547 -1254 582 -1241Q586 -1208 601 -1188Q636 -1189 698 -1185Q745 -1113 745 -1103Q745 -1102 718.5 -1054Q692 -1006 687 -985Q678 -945 660 -787Q647 -669 620 -610Q583 -528 496 -395Q485 -379 446 -326Q417 -287 417 -281Q417 -267 439 -253.5Q461 -240 476 -240Q488 -240 506 -260.5Q524 -281 528 -296Q534 -318 526 -345Q710 -572 727 -613Q752 -673 763 -783Q781 -961 782 -967Q797 -967 801 -971Q823 -937 864 -881Q876 -868 954 -791Q1009 -737 1021 -708ZM661 -940V-954H652V-940ZM651 -934Q641 -873 614 -765Q608 -747 486 -705Q373 -665 358 -665Q350 -665 344.5 -666.5Q339 -668 337 -668Q348 -661 352 -640Q356 -619 348 -612Q382 -633 483 -653Q592 -674 632 -693ZM1363 289Q1341 223 1341 193V46Q1341 -20 1315 -129Q1286 -251 1282 -293H1154Q1174 -253 1178 -232Q1179 -226 1237 -57Q1288 92 1288 146Q1288 216 1240 249Q1210 269 1100 301H1284Q1291 302 1298 294Q1305 286 1312 286Q1318 286 1326.5 294Q1335 302 1341 302Q1350 302 1363 289ZM604 -654Q569 -643 450 -621Q386 -609 353 -577Q358 -568 402 -463Q431 -394 447 -386Q471 -397 474 -403Q532 -501 604 -654ZM326 -630Q326 -660 301 -659H284L278 -618Q301 -595 308 -595Q326 -613 326 -630ZM1029 -293H902Q870 -228 865 -190Q851 -77 775 159Q753 226 719 248Q645 295 563 281V302H765Q766 301 769 292Q772 286 780 286Q786 286 799 294Q812 302 818 302Q829 302 842 289Q820 220 820 232Q820 229 871 115Q926 -9 942 -71Q973 -192 1029 -293ZM654 -1313Q653 -1312 652 -1311Q647 -1304 647 -1295Q611 -1296 585 -1289Q585 -1295 573 -1307Q584 -1337 608 -1337Q618 -1337 654 -1313Z"/>
</svg>