<svg xmlns="http://www.w3.org/2000/svg" viewBox="0 0 779 1000">
  <g transform="scale(1,-1) translate(0,-1000)">
    <path d="M29 92Q37 92 44.0 86.5Q51 81 51 72Q51 62 44.5 56.0Q38 50 29.0 50.0Q20 50 14.0 56.0Q8 62 8.0 71.0Q8 80 14.0 86.0Q20 92 29 92ZM39 240Q47 240 54.0 234.5Q61 229 61 220Q61 210 54.5 204.0Q48 198 39.0 198.0Q30 198 24.0 204.0Q18 210 18.0 219.0Q18 228 24.0 234.0Q30 240 39 240ZM47 384Q55 384 62.0 378.5Q69 373 69 364Q69 354 62.5 348.0Q56 342 47.0 342.0Q38 342 32.0 348.0Q26 354 26.0 363.0Q26 372 32.0 378.0Q38 384 47 384ZM77 668Q85 668 92.0 662.5Q99 657 99 648Q99 638 92.5 632.0Q86 626 77.0 626.0Q68 626 62.0 632.0Q56 638 56.0 647.0Q56 656 62.0 662.0Q68 668 77 668ZM137 792Q145 792 152.0 786.5Q159 781 159 772Q159 762 152.5 756.0Q146 750 137.0 750.0Q128 750 122.0 756.0Q116 762 116.0 771.0Q116 780 122.0 786.0Q128 792 137 792ZM235 888Q243 888 250.0 882.5Q257 877 257 868Q257 858 250.5 852.0Q244 846 235.0 846.0Q226 846 220.0 852.0Q214 858 214.0 867.0Q214 876 220.0 882.0Q226 888 235 888ZM341 971Q349 971 356.0 965.5Q363 960 363 951Q363 941 356.5 935.0Q350 929 341.0 929.0Q332 929 326.0 935.0Q320 941 320.0 950.0Q320 959 326.0 965.0Q332 971 341 971ZM458 998Q466 998 473.0 992.5Q480 987 480 978Q480 968 473.5 962.0Q467 956 458.0 956.0Q449 956 443.0 962.0Q437 968 437.0 977.0Q437 986 443.0 992.0Q449 998 458 998ZM573 996Q581 996 588.0 990.5Q595 985 595 976Q595 966 588.5 960.0Q582 954 573.0 954.0Q564 954 558.0 960.0Q552 966 552.0 975.0Q552 984 558.0 990.0Q564 996 573 996ZM667 992Q675 992 682.0 986.5Q689 981 689 972Q689 962 682.5 956.0Q676 950 667.0 950.0Q658 950 652.0 956.0Q646 962 646.0 971.0Q646 980 652.0 986.0Q658 992 667 992ZM74 521Q74 526 64.0 536.5Q54 547 54 551Q54 554 57 555Q58 555 60 556Q68 556 81.5 548.5Q95 541 98 535Q104 524 107.0 520.5Q110 517 122 513L279 558L363 666V668Q366 671 372.0 676.0Q378 681 381.0 683.5Q384 686 387.5 690.0Q391 694 392.5 697.5Q394 701 394 705Q394 717 385.5 726.0Q377 735 367.0 741.0Q357 747 348.5 765.0Q340 783 340 811Q340 857 378.0 894.0Q416 931 462 931Q516 931 548.0 897.0Q580 863 580 821Q580 811 578.0 802.0Q576 793 571.5 783.0Q567 773 563.5 767.0Q560 761 553.0 749.5Q546 738 544 735Q559 709 580.0 692.0Q601 675 615 675Q633 683 665.0 699.5Q697 716 707 721Q710 774 715.0 812.5Q720 851 724.0 868.0Q728 885 728.0 888.0Q728 891 729.0 896.0Q730 901 730 903Q730 910 724.5 916.5Q719 923 719 939Q720 964 727.0 964.0Q734 964 734 957Q734 956 733.5 953.5Q733 951 733 950Q733 946 736.5 941.0Q740 936 742 936Q750 936 755 960Q755 1000 761 1000Q779 1000 779 947Q779 934 776 913Q763 903 763 895L762 878Q762 871 762.5 859.0Q763 847 763 841Q763 807 756 701Q755 693 750.5 688.5Q746 684 729 675L575 606Q570 570 570 531Q570 523 569.0 508.0Q568 493 568 483Q568 472 566 444L575 274V262Q582 207 582 174V164L581 73Q579 55 579 43V35Q579 12 573.0 6.0Q567 0 554 0H469Q459 0 452.5 5.0Q446 10 445.0 13.5Q444 17 444 19Q444 38 529 58L516 243H421Q417 180 391 73V69Q391 64 390.0 55.0Q389 46 389 43V35Q389 12 382.5 6.0Q376 0 351 0H281Q270 0 263.5 4.0Q257 8 255.5 11.5Q254 15 254 18Q254 39 339 58Q343 92 350.5 162.5Q358 233 362 270L381 438Q361 458 361 470Q361 477 371.0 482.5Q381 488 388 489Q392 523 392 534Q392 559 379 588Q367 574 345.0 552.5Q323 531 308 517L292 503Q263 494 263 494L117 483Q104 484 100 485Q97 485 88.5 484.5Q80 484 76 483Q76 483 69.5 482.0Q63 481 53.5 480.0Q44 479 36 479Q0 479 0 497Q0 506 10 511Q10 511 11.5 511.5Q13 512 14 512Q16 512 25.0 511.5Q34 511 40 511Q74 511 74 521ZM393 650Q432 583 432 540Q432 526 427 474L526 463Q526 473 528.0 498.0Q530 523 530 531Q530 568 532.0 591.5Q534 615 539.0 626.5Q544 638 547.5 642.5Q551 647 559.0 650.5Q567 654 570 657L573 664Q539 682 528 693Q516 705 508.0 723.0Q500 741 496 748V752Q479 764 479 795Q479 799 479.5 805.0Q480 811 480 814Q480 830 463.0 841.0Q446 852 428 855L411 858Q407 858 398.5 856.5Q390 855 386 855Q372 833 372 811Q372 779 399.5 757.5Q427 736 427 705Q427 699 426.0 694.0Q425 689 422.5 684.0Q420 679 418.5 676.0Q417 673 412.5 668.5Q408 664 407.0 662.5Q406 661 400.0 656.0Q394 651 393 650ZM535 432 413 446 401 272H539ZM416 837Q423 837 428.0 830.5Q433 824 433 816Q433 810 427.5 806.0Q422 802 416 802Q393 802 393 816Q393 837 416 837ZM419 885Q449 881 478.0 863.0Q507 845 507 814Q507 812 506.5 805.0Q506 798 506 795Q506 787 510.0 781.0Q514 775 515.5 774.0Q517 773 527 768Q549 803 549 821Q549 852 524.5 875.5Q500 899 462 899Q438 899 419 885Z" fill="currentColor"/>
  </g>
</svg>