<svg xmlns="http://www.w3.org/2000/svg" viewBox="24.8 -1589.2 1451.5 2031.5">
	<path fill="currentColor" d="M1401 -342H1275V355H540V-142Q503 -29 456 156Q433 246 433 279Q433 282 439 306Q444 326 440 333Q420 367 386 367Q379 367 359 359Q339 351 332 351Q326 351 306.5 355.5Q287 360 279 360Q191 365 100 351V309Q159 292 218 275Q291 245 328 181Q342 156 363 -38Q376 -161 397 -274Q401 -311 404 -347Q412 -403 433 -425Q470 -464 621 -483Q649 -485 702 -489Q743 -492 784 -494Q860 -509 860 -558V-691Q860 -678 856 -781Q853 -870 855 -912Q858 -929 862 -960Q866 -991 878 -1046Q883 -1069 901 -1081Q916 -1089 931 -1097Q938 -1100 946 -1116V-1157Q939 -1161 919 -1161Q884 -1161 884 -1138Q884 -1100 874 -1086Q833 -1104 785 -1114Q814 -1138 843 -1162Q865 -1182 865 -1211.5Q865 -1241 866 -1236Q863 -1249 839 -1249Q830 -1249 818 -1247V-1264Q818 -1268 866 -1330V-1344Q845 -1351 823 -1357Q790 -1371 790 -1396Q790 -1410 817 -1464Q817 -1473 801 -1473Q831 -1514 844 -1514Q847 -1514 908 -1497V-1468Q908 -1466 877 -1435Q873 -1422 865 -1394L874 -1386Q885 -1405 910 -1444Q959 -1514 1050 -1514Q1150 -1514 1201 -1460Q1242 -1417 1262 -1327Q1277 -1242 1292 -1158Q1297 -1136 1302 -1095.5Q1307 -1055 1315 -1022H1208Q1208 -863 1208 -863L1212 -635Q1253 -662 1262 -662Q1302 -662 1329 -621Q1345 -597 1340 -456Q1339 -419 1338 -420Q1359 -395 1401 -342ZM881 -1481Q878 -1481 868 -1483.5Q858 -1486 855 -1486Q872 -1469 872 -1466Q877 -1471 881 -1481ZM1283 -1043V-1068Q1283 -1074 1272 -1124Q1260 -1181 1258 -1201Q1240 -1347 1210 -1402Q1163 -1488 1048 -1488Q946 -1488 903 -1376H1055Q1107 -1375 1107 -1308Q1107 -1301 1099 -1281Q1091 -1261 1091 -1254V-958H1189Q1186 -978 1186 -1002Q1186 -1025 1189 -1043ZM854 -1455Q837 -1448 829 -1427Q823 -1410 817 -1393Q820 -1390 827 -1386.5Q834 -1383 837 -1380Q840 -1391 845.5 -1417.5Q851 -1444 854 -1455ZM1186 -659V-931H1063V-1255Q1063 -1260 1074 -1282.5Q1085 -1305 1085 -1311Q1085 -1354 978 -1354Q923 -1354 905 -1346Q900 -1344 885 -1315Q870 -1297 850 -1269Q887 -1269 893 -1264V-1188Q895 -1188 935 -1189Q962 -1190 973 -1179Q968 -1148 960 -1084Q939 -1076 910 -1052Q898 -1028 885 -933Q875 -856 878 -815Q879 -807 883 -787Q887 -767 887 -761V-580Q887 -546 870 -512.5Q853 -479 794 -470Q748 -466 702 -461Q656 -456 584 -449Q455 -442 438 -381Q431 -334 419 -253Q407 -156 379 37Q376 75 373 114Q370 159 349 197Q290 306 120 327L268 335Q348 319 343 319Q349 319 363 329.5Q377 340 383 340Q413 340 413 312Q413 303 409 283Q405 263 406 258Q463 56 531 -214Q536 -255 541 -296Q550 -324 601 -324H782Q787 -324 859 -330Q939 -337 975 -339Q1015 -341 1078 -355Q1117 -364 1127 -375Q1187 -442 1186 -659ZM1348 -369Q1318 -400 1311 -414Q1309 -419 1312.5 -426.5Q1316 -434 1316 -439V-601Q1316 -610 1297.5 -622.5Q1279 -635 1270 -635Q1241 -635 1226 -613Q1208 -587 1200 -535Q1187 -447 1185 -440Q1169 -372 1118 -336Q1101 -324 954 -312Q876 -305 787 -297H609V334H803V-116H1248V-486H1271V-369ZM1245 334V-50H872V334ZM1245 -72V-92H827V334H850V-72ZM585 334V-290L565 -260V334ZM973 -1319Q972 -1318 970.5 -1306.5Q969 -1295 961 -1295Q930 -1295 903 -1313Q931 -1343 940 -1343Q949 -1343 973 -1319Z"/>
</svg>