<svg xmlns="http://www.w3.org/2000/svg" viewBox="0 -2048 2048 2048">
	<path fill="currentColor" d="M1158 -680Q1143 -526 1113 -408Q1104 -373 1104 -362Q1104 -352 1105 -333Q1106 -314 1106 -304Q1106 -216 999 -163Q980 -181 969 -198Q972 -204 1010 -256Q1033 -287 1038 -322L1010 -275Q985 -282 964 -291Q965 -320 996 -370Q1027 -420 1027 -444Q1027 -466 1024.5 -510.5Q1022 -555 1022 -577Q1022 -594 1027.5 -627.5Q1033 -661 1033 -678Q983 -766 895 -876Q885 -849 868 -774Q851 -696 851 -672Q851 -657 881.5 -586Q912 -515 912 -500Q912 -450 873.5 -371.5Q835 -293 835 -283Q835 -277 849 -216Q879 -85 879 54Q879 88 877 116Q876 128 871 163Q867 193 867 211Q867 235 884 269Q901 303 901 313Q901 335 875 353Q849 371 826 371Q813 371 789 360Q765 349 752 349Q738 349 729 358Q675 371 620 371Q606 371 579 371Q551 370 539 370V306Q599 296 660 285Q720 269 741 198L637 -251L629 -261Q596 -210 545 -103Q543 -97 543 -55Q543 -2 486.5 111.5Q430 225 430 236Q430 247 434 268.5Q438 290 438 301Q438 313 412 339Q386 365 374 365Q364 365 345 357Q326 349 316 349Q291 349 243 360Q195 371 170 371Q160 371 100 369Q102 350 105 311Q223 284 229 282Q299 257 322 202Q343 152 351 39Q362 -117 364 -132Q375 -203 459 -408Q538 -599 538 -653Q538 -716 462 -830Q417 -756 380 -703Q379 -681 370 -637Q348 -575 305 -451Q313 -432 313 -401Q313 -369 304 -327L263 -324L248 -371Q236 -352 236 -336Q236 -321 242 -293Q248 -265 249 -253Q244 -251 234 -251Q222 -251 199 -256Q183 -302 183 -349Q183 -379 193 -425L225 -472Q222 -560 259 -716Q273 -775 355 -906Q440 -1043 486 -1069Q511 -1083 594 -1089V-1139Q581 -1136 562 -1136Q538 -1136 517 -1140Q503 -1208 461 -1274Q490 -1316 547 -1406Q601 -1492 634 -1516Q680 -1551 769 -1551Q851 -1551 905 -1488Q955 -1429 955 -1345Q955 -1267 874 -1194Q832 -1158 791 -1121Q791 -1121 791 -1108V-1083Q863 -1083 903 -1061Q983 -1016 1060 -893Q1123 -789 1158 -680ZM928 -1359Q928 -1433 883.5 -1481Q839 -1529 766 -1529Q630 -1529 566 -1393Q740 -1364 772 -1364Q779 -1364 784 -1375Q789 -1386 796 -1386Q840 -1386 840 -1342Q840 -1333 812.5 -1281.5Q785 -1230 785 -1221Q785 -1187 816 -1172Q892 -1241 899 -1250Q928 -1289 928 -1359ZM1130 -680Q1130 -689 1098 -762Q1056 -857 991 -942Q903 -1057 832 -1057Q825 -1057 812.5 -1054Q800 -1051 793 -1051Q768 -1051 768 -1083Q768 -1130 770 -1141Q776 -1150 785 -1151Q758 -1206 758 -1227Q758 -1238 782 -1288Q806 -1338 805 -1359Q786 -1340 769 -1342Q571 -1364 565 -1364Q555 -1364 550 -1362Q494 -1278 494 -1274Q494 -1267 515 -1222Q536 -1177 539 -1162Q567 -1159 621 -1147V-1060L617 -1057Q599 -1061 577 -1061Q517 -1061 484.5 -1038Q452 -1015 372 -884.5Q292 -754 282 -711Q253 -586 251 -460Q207 -407 207 -343Q207 -306 218 -277L222 -276Q223 -281 223 -285Q223 -295 217 -314Q211 -333 211 -343Q211 -364 240 -400L268 -397L281 -350L283 -356L285 -359Q287 -369 287 -383Q287 -412 280 -452Q306 -515 345 -642Q347 -661 353 -698Q359 -724 397 -783Q426 -824 454 -866L474 -865Q504 -814 534 -764Q566 -701 566 -653Q566 -613 515 -480Q666 -534 834 -636Q824 -658 824 -672Q824 -704 849 -808Q877 -921 892 -924Q961 -838 1059 -680Q1059 -663 1053 -630Q1047 -597 1047 -579Q1047 -556 1051 -510Q1055 -464 1055 -441Q1055 -410 1024.5 -368.5Q994 -327 991 -305H997L1033 -359L1068 -330Q1057 -267 997 -192Q1061 -227 1072 -263Q1076 -276 1076 -369Q1076 -381 1085 -409Q1130 -548 1130 -680ZM884 -497Q884 -536 845 -612Q676 -510 515 -452Q654 -291 821 -203Q807 -265 807 -285Q807 -295 845.5 -375Q884 -455 884 -497ZM597 -327Q555 -366 497 -433Q466 -356 410 -199Q515 -220 597 -327ZM873 307Q873 304 857.5 267.5Q842 231 842 209Q842 177 849 112Q856 47 856 15Q856 -57 829 -170Q728 -222 661 -273Q673 -246 718 -42Q763 162 763 195V205Q763 265 696 294Q670 305 578 323Q571 329 566 342H683Q695 342 716.5 334.5Q738 327 750 327Q763 327 788 335Q813 343 826 343Q841 343 857 332Q873 321 873 307ZM624 -303L617 -309Q528 -194 402 -171Q396 -148 391 -127Q385 -102 372 56Q361 190 344 218Q292 306 126 335L201 343Q295 316 316 316Q326 316 343.5 324Q361 332 371 332Q411 332 411 297Q411 287 408 267Q405 247 405 237Q405 206 450 109Q502 -1 509 -27Q511 -53 518 -104Q526 -141 562 -208Q598 -275 624 -303ZM653 -1302Q650 -1296 647 -1282Q629 -1288 589 -1288L577 -1301Q595 -1337 615 -1337Q635 -1337 653 -1302Z"/>
</svg>