<svg xmlns="http://www.w3.org/2000/svg" viewBox="0 -2048 2048 2048">
	<path fill="currentColor" d="M1444 -802Q1444 -796 1437 -753Q1428 -701 1411 -598Q1400 -532 1400 -527Q1400 -505 1411 -461Q1422 -417 1422 -395Q1422 -369 1382 -268Q1370 -270 1345 -274Q1347 -288 1358 -328Q1367 -364 1367 -381Q1367 -380 1352 -439Q1338 -431 1327 -395Q1315 -398 1290 -401V-441Q1290 -450 1303 -493.5Q1316 -537 1316 -566Q1316 -587 1314 -627.5Q1312 -668 1312 -689Q1312 -708 1323 -744Q1334 -780 1334 -796Q1334 -816 1279 -911Q1231 -993 1205 -1028Q1168 -918 1168 -829Q1168 -774 1180 -736Q1191 -708 1201.5 -679.5Q1212 -651 1212 -618Q1212 -575 1192 -512Q1157 -402 1157 -254Q1157 -215 1168 -136Q1179 -57 1179 -18Q1179 13 1168 75.5Q1157 138 1157 169Q1157 169 1185 315Q1182 329 1166.5 347Q1151 365 1138 365Q1132 365 1118.5 354Q1105 343 1097 343Q1090 343 1087 351Q1084 359 1077 359H877Q880 341 890 305Q915 289 966.5 280Q1018 271 1035 259Q1064 239 1064 186Q1064 131 1029 13Q994 -105 994 -164Q994 -164 998 -258Q990 -263 979 -263H970Q911 -263 896 -256Q874 -245 857 -197Q840 -149 823 -110Q808 -62 775 33Q750 79 713 176Q701 224 700 359Q669 365 673 365Q665 365 643 354Q621 343 613 343Q606 343 594 350Q582 357 577 358Q545 365 489 365Q462 365 371 352Q377 342 377 305Q562 307 600 180Q617 106 653 -40Q681 -149 730 -283Q779 -404 828 -524Q904 -713 904 -744Q904 -862 849 -987Q815 -886 811 -876Q780 -796 759 -779Q735 -760 690 -760Q668 -760 658 -762L454 -804Q436 -804 401 -805L400 -806Q396 -805 396 -797Q396 -795 420 -735Q411 -737 406 -737Q419 -737 364 -730Q358 -750 344 -788Q334 -786 333 -786Q310 -786 293 -817Q279 -843 279 -868Q279 -878 287.5 -899Q296 -920 297 -932Q288 -939 201 -983Q143 -1013 125 -1056Q100 -1117 100 -1255Q100 -1283 125 -1520Q136 -1526 156 -1539L361 -926Q375 -925 401 -918Q411 -907 435 -887Q448 -879 652 -879Q699 -1010 706 -1026Q746 -1120 787 -1152Q839 -1192 927 -1202V-1233Q905 -1242 862 -1265Q859 -1272 859 -1283Q859 -1297 864 -1316Q860 -1322 827 -1337V-1354Q827 -1359 839 -1381Q851 -1403 853 -1411Q868 -1472 914 -1517Q965 -1567 1025 -1567Q1090 -1567 1148 -1525Q1212 -1479 1212 -1416Q1212 -1360 1179 -1306.5Q1146 -1253 1096 -1228V-1196Q1136 -1190 1214 -1174Q1275 -1158 1361 -1011Q1444 -869 1444 -802ZM1185 -1407Q1185 -1462 1129 -1505Q1077 -1545 1020 -1545Q997 -1545 950 -1514.5Q903 -1484 905 -1463Q1041 -1429 1045 -1429Q1052 -1429 1063 -1434.5Q1074 -1440 1080 -1440Q1113 -1440 1113 -1399Q1113 -1392 1091 -1359Q1069 -1326 1069 -1319Q1069 -1303 1082 -1292H1100Q1138 -1292 1163 -1332Q1185 -1367 1185 -1407ZM1422 -796Q1404 -882 1342 -987Q1277 -1099 1211 -1146Q1164 -1156 1069 -1170V-1238Q1078 -1246 1097 -1262Q1042 -1267 1042 -1322Q1042 -1316 1080 -1412Q1049 -1402 1053 -1402Q1035 -1402 976 -1416Q902 -1434 895 -1435Q884 -1406 861 -1348Q875 -1347 899 -1332Q894 -1311 894 -1271Q917 -1266 960 -1249Q957 -1225 948 -1177Q865 -1170 813.5 -1138.5Q762 -1107 675 -854Q588 -852 414 -866Q413 -846 404 -831Q441 -827 552 -805Q648 -785 698 -785Q718 -785 735 -793Q757 -804 795 -908Q841 -1037 846 -1046Q902 -978 928 -736Q936 -738 1138 -808Q1156 -1057 1214 -1072Q1356 -832 1356 -796Q1356 -778 1347 -742Q1338 -706 1338 -687Q1338 -668 1340.5 -629.5Q1343 -591 1343 -572Q1343 -511 1328 -472Q1375 -472 1392 -403Q1387 -450 1367 -505ZM1190 -612Q1190 -630 1145 -780Q1140 -779 929 -706Q767 -332 767 -303V-283H1130V-307Q1130 -381 1141 -422Q1158 -478 1174 -535Q1190 -592 1190 -612ZM321 -951L145 -1488Q145 -1464 138 -1421Q131 -1373 130 -1354Q128 -1326 128 -1291Q128 -1158 139 -1092Q149 -1034 211 -1003Q266 -977 321 -951ZM387 -866Q387 -869 384.5 -873Q382 -877 382 -880L323 -886Q302 -871 302 -864Q302 -853 314.5 -834.5Q327 -816 337 -816Q350 -816 368.5 -834.5Q387 -853 387 -866ZM1163 307Q1163 284 1149 237Q1135 190 1135 167Q1135 137 1146 76Q1157 15 1157 -15Q1157 -42 1149 -85Q1138 -141 1136 -155Q1131 -203 1130 -262H1026Q1026 -256 1022.5 -228.5Q1019 -201 1020 -196L1092 206Q1094 217 1094 213Q1094 253 1049 281Q1031 293 978 306Q931 318 910 336H1068Q1086 320 1105 310Q1115 321 1138 337Q1163 324 1163 307ZM865 -262H757Q714 -167 647 103Q639 145 611 223Q575 289 520 310Q509 315 398 335Q419 335 462.5 336Q506 337 527 337Q549 337 578 326Q607 315 613 315Q601 315 672 337Q674 323 674 310Q674 300 673 280.5Q672 261 672 251Q672 210 701 141Q725 87 748 33Q773 -41 828 -187Q840 -212 865 -262ZM970 -1358Q947 -1365 904 -1387Q928 -1418 946 -1418Q962 -1418 970 -1400Z"/>
</svg>