<svg xmlns="http://www.w3.org/2000/svg" viewBox="23 -1641 1732.9 2077.9">
	<path fill="currentColor" d="M1679 -798Q1676 -798 1665.5 -795Q1655 -792 1652 -792Q1652 -787 1645 -841Q1636 -841 1621.5 -856Q1607 -871 1607 -886Q1607 -899 1619 -909Q1596 -924 1562.5 -993.5Q1529 -1063 1494 -1090Q1494 -1107 1490 -1128Q1475 -1134 1450 -1155Q1447 -1167 1436 -1188Q1412 -1207 1372 -1252Q1367 -1253 1348 -1253Q1338 -1253 1334 -1255Q1326 -1258 1304 -1275Q1282 -1292 1275 -1292Q1257 -1292 1217 -1272Q1247 -1242 1250 -1242Q1257 -1242 1259.5 -1245Q1262 -1248 1269 -1248Q1283 -1248 1290 -1226Q1293 -1215 1295 -1203Q1330 -1169 1390 -1109Q1394 -1094 1405 -1070Q1417 -1058 1435 -1037Q1439 -1030 1449 -998Q1456 -974 1479 -955Q1477 -941 1477 -910Q1484 -905 1495 -894Q1500 -868 1524 -823Q1544 -787 1540 -767Q1561 -732 1569 -694Q1563 -687 1563 -682H1542Q1541 -699 1512 -761Q1513 -769 1516 -782Q1493 -820 1461 -886Q1460 -906 1452 -941Q1408 -1032 1369 -1089Q1367 -1093 1306 -1150Q1262 -1192 1267 -1217Q1264 -1220 1250 -1220Q1217 -1220 1217 -1190Q1217 -1189 1258 -1137Q1274 -1116 1268 -1092Q1284 -1073 1319 -1032Q1322 -1016 1308 -986Q1327 -966 1347 -926Q1349 -901 1332 -876Q1366 -842 1366 -818Q1366 -811 1354.5 -795Q1343 -779 1343 -772Q1343 -765 1360 -734.5Q1377 -704 1377 -695Q1377 -697 1354 -641Q1382 -629 1382 -604Q1382 -597 1373 -576Q1363 -552 1361 -545Q1363 -542 1365 -525V-506Q1359 -500 1345 -500Q1341 -515 1341 -531Q1341 -549 1347.5 -573Q1354 -597 1354 -601Q1354 -607 1340.5 -620.5Q1327 -634 1327 -640Q1327 -647 1340.5 -670Q1354 -693 1354 -700Q1354 -707 1335 -734.5Q1316 -762 1316 -769Q1316 -775 1327 -794.5Q1338 -814 1338 -821Q1338 -836 1307 -870Q1307 -867 1319 -919Q1305 -938 1284 -980Q1289 -996 1292 -1029Q1274 -1044 1255.5 -1060.5Q1237 -1077 1237 -1095Q1237 -1106 1242 -1118Q1224 -1130 1197 -1161Q1196 -1181 1193 -1216Q1190 -1220 1170 -1237Q1157 -1248 1157 -1258Q1157 -1264 1162 -1272Q1146 -1280 1138 -1280Q1132 -1280 1129.5 -1272Q1127 -1264 1121 -1264Q1117 -1264 1061 -1278Q997 -1294 952 -1301Q884 -1217 750 -1171Q639 -1134 528 -1096Q526 -1067 530 -1059Q554 -1023 598 -949Q625 -898 681 -774Q846 -827 938 -835L942 -839V-870Q935 -877 896 -887Q864 -895 863 -915Q869 -953 868 -963Q867 -964 849 -982Q837 -995 837 -1003Q837 -1013 883.5 -1097.5Q930 -1182 942 -1195Q975 -1231 1044 -1231Q1157 -1231 1196 -1119Q1222 -1043 1222 -1050Q1222 -1022 1170 -939.5Q1118 -857 1118 -860Q1118 -830 1137 -829Q1172 -827 1188 -816Q1211 -801 1224 -739Q1236 -659 1262 -502Q1283 -428 1304 -354Q1338 -235 1338 -163Q1338 -26 1187 -26Q1134 -26 1030 -66Q962 -93 895 -119Q892 -122 887 -117Q897 -107 948 -41Q948 -41 1038 45Q1112 116 1112 137Q1112 143 1082 210Q1045 292 1032.5 326Q1020 360 999 359H876V311Q895 311 937 298Q980 201 980 183Q980 145 883 73Q724 -46 703 -65Q606 -153 606 -229Q606 -334 799 -334Q869 -334 1028 -280Q1037 -278 1041 -282Q1006 -382 971 -482Q896 -670 840 -670Q834 -670 710 -615Q586 -560 543 -560Q498 -560 462 -615Q440 -657 417 -699Q404 -729 373 -792Q352 -832 332 -872Q302 -925 273 -951Q246 -918 185 -846L100 -982Q165 -983 167 -983Q208 -988 232 -1009Q221 -1031 221 -1039Q221 -1058 245 -1069Q275 -1083 277 -1086Q276 -1089 279 -1098Q282 -1107 283 -1108Q284 -1109 289.5 -1112.5Q295 -1116 303 -1116Q309 -1116 322.5 -1096.5Q336 -1077 345 -1077Q364 -1077 393 -1119Q390 -1125 393 -1147Q403 -1153 433 -1179Q455 -1198 463 -1198Q472 -1198 488 -1182Q639 -1334 678 -1366Q781 -1451 859 -1451Q865 -1451 897.5 -1440Q930 -1429 936 -1429Q956 -1429 982 -1470Q1002 -1502 1006 -1515Q1009 -1525 1005 -1545Q1003 -1557 1017 -1564Q1072 -1500 1134 -1370Q1122 -1370 1093.5 -1380.5Q1065 -1391 1059 -1391H973L969 -1387V-1350Q995 -1338 1075 -1328Q1142 -1320 1165 -1297Q1167 -1298 1179 -1313Q1189 -1325 1198 -1325Q1205 -1325 1217 -1314Q1229 -1303 1236 -1303Q1241 -1303 1257.5 -1311Q1274 -1319 1283 -1319Q1290 -1319 1302 -1308Q1317 -1294 1320 -1293Q1338 -1283 1380 -1279Q1386 -1277 1396 -1272Q1425 -1235 1471 -1175Q1476 -1167 1525 -1135Q1518 -1125 1518 -1117Q1518 -1106 1534 -1094Q1554 -1080 1556 -1076Q1562 -1053 1581 -1010Q1604 -977 1644 -910Q1642 -900 1641 -878Q1667 -874 1671 -848.5Q1675 -823 1679 -798ZM1090 -1408Q1082 -1422 1061.5 -1454.5Q1041 -1487 1033 -1501Q1006 -1456 964 -1414Q982 -1418 1024 -1418Q1050 -1418 1090 -1408ZM1195 -1047Q1195 -1104 1149 -1154Q1103 -1204 1044 -1204Q955 -1204 920 -1111Q968 -1094 1061 -1061Q1079 -1094 1107 -1094Q1134 -1094 1134 -1061Q1134 -1039 1107 -958Q1133 -945 1149 -945Q1195 -1014 1195 -1047ZM947 -1366Q947 -1393 917 -1410Q892 -1424 862 -1424Q828 -1424 784.5 -1405Q741 -1386 706 -1355Q485 -1158 485 -1135Q485 -1123 492 -1116Q568 -1138 714 -1185Q739 -1192 780 -1205Q891 -1245 928 -1326Q947 -1368 947 -1366ZM457 -1122V-1142L432 -1149Q421 -1143 425 -1116Q431 -1116 443 -1119Q455 -1122 457 -1122ZM661 -755Q636 -804 581.5 -906.5Q527 -1009 502 -1059Q500 -1063 503 -1077Q505 -1088 499 -1088H481Q459 -1076 452 -1063Q479 -1036 483 -1024Q535 -873 602 -720Q650 -743 661 -755ZM572 -703Q537 -800 502 -898Q460 -1009 428 -1055Q392 -1032 375 -1015V-964Q429 -861 572 -703ZM1310 -163Q1310 -211 1283 -301Q1248 -417 1240 -458Q1222 -555 1218 -612Q1214 -678 1211 -697Q1206 -743 1193 -773Q1182 -799 1135 -805Q1096 -811 1096 -849Q1096 -880 1126 -921Q1108 -930 1079 -943Q1082 -961 1095 -996Q1106 -1028 1106 -1035V-1060Q1105 -1060 1071 -1028Q1022 -1050 904 -1082Q897 -1046 865 -996Q881 -991 909 -975Q893 -943 893 -913Q904 -910 928.5 -905Q953 -900 964 -897Q964 -850 970 -812Q883 -815 748 -758Q741 -755 565 -670Q419 -848 354 -955Q349 -963 352 -978Q357 -999 357 -999Q333 -999 334 -1000Q328 -1020 323 -1041Q316 -1055 281 -1055Q267 -1055 248 -1036Q252 -1022 261 -1001Q291 -974 335 -924Q368 -857 434 -726Q509 -582 543 -582Q577 -582 707.5 -639.5Q838 -697 834 -697Q911 -697 991 -503Q1027 -395 1064 -286Q1075 -258 1101 -238Q1098 -235 1097 -231Q1096 -227 1093 -224Q926 -307 799 -307Q628 -307 628 -229Q628 -163 815 -17Q1002 129 1002 192Q1002 227 954 320Q933 322 909 336H960Q997 339 1011 308Q1085 145 1085 137Q1085 129 993 35Q851 -110 847 -114Q821 -134 782 -172Q785 -175 786.5 -179Q788 -183 791 -186Q890 -148 990 -111Q1159 -48 1198 -48Q1310 -48 1310 -163ZM248 -974Q183 -960 139 -960Q156 -926 185 -890Q209 -930 248 -974ZM985 -1025Q981 -1018 963 -1018Q915 -1018 902 -1045L903 -1053Q917 -1066 934 -1066Q975 -1066 985 -1025ZM957 -1036Q945 -1049 933 -1049Q928 -1049 922 -1046Q928 -1039 957 -1036Z"/>
</svg>