<svg xmlns="http://www.w3.org/2000/svg" viewBox="0 -2048 2048 2048">
	<path fill="currentColor" d="M1692 291Q1692 301 1670 330Q1648 359 1640 359H1528V300Q1535 300 1555 297Q1575 294 1584 294Q1588 291 1588 272Q1588 233 1552.5 200Q1517 167 1484 167Q1440 167 1193.5 266Q947 365 888 365Q837 365 779 324Q715 278 715 222Q715 165 761 114Q849 16 992 -61Q1108 -119 1224 -177Q1237 -227 1237 -392Q1237 -562 1215 -613L1206 -623Q1083 -513 921 -513Q914 -513 784 -529.5Q654 -546 647 -546Q636 -546 622 -532Q633 -510 660.5 -463Q688 -416 699 -394Q601 -359 585 -360H557Q558 -454 549 -509Q508 -523 492 -568Q471 -623 457 -635Q455 -650 466 -656Q489 -669 490 -670Q463 -725 406 -822Q358 -890 310 -959Q270 -1025 270 -1087Q270 -1156 353 -1214Q340 -1260 331 -1260Q324 -1260 302 -1249Q280 -1238 273 -1238Q266 -1238 266.5 -1246Q267 -1254 260 -1254Q228 -1254 181 -1222Q128 -1186 128 -1150Q128 -1144 161 -1112.5Q194 -1081 194 -1073Q194 -1065 179 -1044Q159 -1017 155 -1009V-995Q171 -988 199 -967Q196 -956 184 -930.5Q172 -905 172 -898Q172 -891 186 -877Q204 -860 206 -857Q203 -838 197 -797Q236 -767 236 -740Q236 -730 230.5 -714Q225 -698 225 -690Q225 -669 259 -649V-553H238Q240 -581 236 -630Q223 -641 201 -663Q202 -658 208 -740Q175 -766 175 -808Q175 -829 183 -850Q144 -866 144 -889Q144 -899 172 -955Q169 -958 133 -976V-1009Q133 -1016 145.5 -1040.5Q158 -1065 161 -1076Q100 -1117 100 -1142Q100 -1181 151 -1228Q206 -1278 260 -1276Q260 -1279 257.5 -1286.5Q255 -1294 255 -1297Q303 -1312 417 -1347Q423 -1329 440 -1294Q429 -1293 395 -1282Q391 -1278 391 -1271Q391 -1237 412 -1227Q426 -1227 450 -1225Q465 -1222 494 -1208Q564 -1157 579 -1061Q614 -1028 692 -964Q750 -930 807 -896Q877 -852 927 -788Q999 -875 1071 -962Q1159 -1068 1223 -1064Q1233 -1063 1261.5 -1068Q1290 -1073 1304 -1073L1308 -1077V-1103Q1297 -1113 1237 -1128Q1187 -1141 1187 -1166Q1187 -1182 1204 -1207Q1184 -1214 1163 -1221Q1132 -1233 1132 -1252Q1132 -1257 1141.5 -1278Q1151 -1299 1152 -1312Q1170 -1562 1379 -1562Q1452 -1562 1509 -1506Q1566 -1450 1566 -1381Q1566 -1342 1529 -1245.5Q1492 -1149 1492 -1111Q1492 -1101 1494 -1093Q1534 -1070 1574 -1048Q1625 -1015 1627 -958L1555 -431Q1555 -368 1562 -319Q1568 -279 1587 -191Q1605 -112 1605 -107Q1605 -70 1572 5Q1592 16 1619 49Q1692 247 1692 291ZM1539 -1378Q1539 -1443 1489 -1488.5Q1439 -1534 1374 -1534Q1316 -1534 1266 -1505Q1248 -1494 1220.5 -1451.5Q1193 -1409 1193 -1394V-1376L1373 -1348Q1378 -1360 1388 -1373Q1447 -1381 1432 -1381Q1450 -1381 1467 -1356.5Q1484 -1332 1484 -1318Q1484 -1311 1470 -1280.5Q1456 -1250 1456 -1243Q1456 -1221 1493 -1205Q1539 -1343 1539 -1378ZM1599 -958Q1601 -1004 1567 -1031Q1538 -1054 1501 -1054Q1490 -1054 1482 -1052Q1467 -1074 1467 -1106Q1467 -1122 1471 -1146Q1476 -1174 1476 -1181Q1462 -1194 1448 -1207Q1434 -1220 1434 -1241Q1434 -1248 1445 -1279.5Q1456 -1311 1456 -1318Q1456 -1341 1432 -1353H1403Q1398 -1342 1386 -1321Q1382 -1320 1371 -1320L1188 -1347Q1180 -1305 1160 -1256Q1190 -1244 1237 -1223Q1232 -1201 1220 -1163Q1259 -1152 1328 -1124Q1336 -1044 1336 -1060Q1317 -1054 1238 -1043Q1175 -1034 1155 -1016Q1098 -963 1027 -876Q940 -770 921 -749Q893 -801 814 -854Q764 -885 714 -915Q667 -957 591 -1024Q584 -983 585 -925Q607 -936 619 -936Q613 -936 748 -801.5Q883 -667 929 -667Q958 -667 1049 -753Q1151 -849 1173 -859Q1184 -837 1196 -832L1344 -936Q1347 -933 1351 -926.5Q1355 -920 1358 -917Q1258 -851 1199 -796Q996 -607 954 -607Q947 -607 894.5 -612.5Q842 -618 833 -618Q826 -618 763 -612.5Q700 -607 693 -607Q656 -607 625 -623.5Q594 -640 594 -640Q595 -640 507 -605Q514 -584 521 -562Q532 -541 561 -541Q579 -541 603 -554.5Q627 -568 658 -568Q665 -568 708 -560Q758 -550 778 -548Q836 -541 913 -541Q1049 -541 1147 -607Q1281 -711 1415 -815L1429 -802Q1351 -729 1231 -643Q1264 -540 1264 -398Q1264 -286 1254 -190Q1350 -224 1549 -256Q1541 -301 1528 -436ZM397 -1309L394 -1317L293 -1283V-1275ZM1164 -806V-826Q980 -640 927 -640Q869 -640 740.5 -774.5Q612 -909 611 -909Q589 -909 578 -891Q578 -824 590 -668Q611 -654 656 -630Q658 -629 688 -629L839 -645Q847 -645 899 -637Q951 -629 957 -629Q986 -629 1064 -704Q1114 -755 1164 -806ZM566 -646V-681Q566 -686 559 -725.5Q552 -765 552 -780Q552 -885 561 -1006Q534 -1006 501 -1017Q501 -1023 503.5 -1035Q506 -1047 506 -1052Q519 -1052 535 -1055Q551 -1058 555 -1058Q525 -1200 427 -1200Q343 -1200 316 -1154Q292 -1114 292 -1081Q292 -1019 365 -915Q416 -847 466 -778Q487 -731 531 -640Q540 -648 566 -646ZM1577 -104Q1577 -146 1554 -227H1520Q1536 -227 1459 -213Q1154 -159 848 66Q819 87 798 121Q825 140 869 182Q905 217 910 217Q916 217 965 186Q1020 151 1043 142Q1121 111 1158 104Q1248 86 1377 65Q1411 61 1445 57Q1492 48 1516 28Q1577 -23 1577 -104ZM666 -411Q633 -451 599 -518H582V-388Q614 -397 666 -411ZM1659 288Q1659 230 1602 65Q1594 41 1558 41Q1551 41 1498 60Q1442 81 1420 84Q1312 101 1146 131Q1016 162 905 255Q880 226 854 196Q815 153 772 140Q743 192 743 222Q743 272 796 308Q841 338 888 338Q934 338 1198 239Q1462 140 1508 140Q1539 140 1579 193Q1616 242 1616 272Q1616 331 1550 329L1598 332Q1612 332 1636 330Q1659 294 1659 288ZM1292 -1279Q1278 -1265 1270 -1265Q1276 -1265 1204 -1283Q1218 -1326 1242 -1326Q1261 -1326 1292 -1279Z"/>
</svg>