<svg xmlns="http://www.w3.org/2000/svg" viewBox="23 -1647 1921.1 2080.1">
	<path fill="currentColor" d="M1867 -124Q1867 -49 1818 -7Q1845 24 1845 46Q1845 66 1833.5 103.5Q1822 141 1822 161Q1822 178 1829 212Q1836 246 1836 263Q1836 325 1785 325Q1772 325 1748 322.5Q1724 320 1713 320Q1709 303 1698 272Q1731 264 1753 254Q1744 207 1722 115Q1686 121 1646 135Q1501 190 1357 245Q1160 316 1070 316Q1024 316 994 283Q964 250 964 204Q964 68 1162 -61Q1320 -147 1478 -233Q1478 -240 1461 -277Q1406 -401 1286 -468L1168 -203Q1162 -189 1129 -177Q1127 -176 1048 -153Q964 -130 800 -77Q770 -65 729 -36Q672 4 661 11L630 -3Q639 -22 657 -59Q575 -39 551 2Q528 -9 520 -19Q555 -78 795.5 -176.5Q1036 -275 1067 -321Q1076 -343 1094 -384Q1125 -457 1156 -526Q1124 -538 1045 -563Q1034 -487 997 -342Q948 -309 703 -175Q684 -165 649 -143Q575 -88 556 -88Q539 -88 529 -118Q549 -133 551 -152Q533 -154 498 -123Q473 -101 449 -79L419 -98Q451 -173 493 -199Q529 -208 596 -233Q762 -316 868 -407L957 -709Q969 -750 1047 -783Q1038 -803 1021 -844Q985 -830 978 -830Q951 -830 941 -862Q928 -903 926 -905Q924 -907 888 -916Q859 -924 859 -940Q859 -944 873.5 -972Q888 -1000 890 -1007Q896 -1055 911 -1149Q920 -1191 970 -1231Q1017 -1268 1062 -1277Q1098 -1284 1122 -1284Q1197 -1284 1254 -1219Q1308 -1156 1308 -1080Q1308 -981 1226 -892Q1227 -877 1248 -849Q1344 -841 1408 -805Q1518 -743 1595 -632Q1645 -554 1745 -398Q1813 -292 1826 -268Q1867 -189 1867 -124ZM1398 -1443Q1398 -1399 1383 -1375Q1364 -1344 1299 -1323Q1244 -1304 1199 -1304Q1151 -1304 1091 -1321Q1024 -1341 994 -1369Q986 -1378 966 -1388L939 -1338L916 -1340V-1426Q903 -1424 867 -1411Q835 -1400 820 -1400Q806 -1400 671 -1445Q645 -1433 633 -1402Q616 -1362 607.5 -1352Q599 -1342 526 -1330Q462 -1319 462 -1295Q484 -1248 484 -1214Q484 -1170 442 -1158Q404 -1151 366 -1144Q351 -1139 338 -1122Q323 -1102 323 -1089Q323 -1075 329 -1049Q335 -1023 335 -1009Q335 -990 288 -936Q241 -882 241 -864Q241 -847 265.5 -801Q290 -755 290 -739Q290 -731 286 -721Q246 -681 230 -663Q197 -624 187 -596Q210 -551 251 -458Q245 -444 194 -379Q151 -323 151 -303Q151 -273 178 -229Q216 -166 219 -158Q218 -136 133 -52Q137 -28 196 90Q196 124 127 192Q127 204 155.5 251Q184 298 184 337Q184 334 182 356L157 352Q159 340 159 323Q159 318 100 188Q104 181 141 141Q170 111 170 90Q106 -29 106 -60Q106 -65 149 -101.5Q192 -138 192 -158Q192 -164 158 -215Q124 -266 124 -303Q124 -335 173.5 -393Q223 -451 224 -458L163 -594Q162 -634 261 -733V-743Q261 -758 238.5 -800Q216 -842 216 -864Q216 -891 263 -945Q310 -999 310 -1013Q310 -1025 304 -1048Q298 -1071 298 -1083Q298 -1141 340 -1160Q347 -1164 418 -1177Q460 -1184 460 -1214Q448 -1251 433 -1297Q438 -1316 468 -1338.5Q498 -1361 517 -1361Q523 -1361 534.5 -1360Q546 -1359 552 -1359Q583 -1359 599 -1394Q621 -1442 641 -1457Q661 -1472 671 -1472Q699 -1472 749.5 -1450.5Q800 -1429 827 -1429Q835 -1433 916 -1453V-1529L945 -1533L970 -1486H976Q1007 -1570 1170 -1570Q1345 -1570 1398 -1443ZM921 350H248V153H921ZM1371 -1441Q1322 -1543 1179 -1543Q1031 -1543 988 -1461H953L941 -1486V-1396L949 -1412L969 -1414Q979 -1402 1036 -1372Q1116 -1330 1197 -1330Q1262 -1330 1310 -1354Q1371 -1384 1371 -1441ZM1282 -1064Q1282 -1134 1236 -1194Q1186 -1259 1118 -1259Q1047 -1259 991 -1216Q931 -1170 929 -1101L1116 -1077Q1122 -1076 1133 -1090.5Q1144 -1105 1150 -1105Q1163 -1105 1180.5 -1087.5Q1198 -1070 1198 -1057Q1198 -1044 1189 -1020Q1180 -996 1180 -983Q1180 -949 1203 -949Q1237 -949 1261 -991Q1282 -1027 1282 -1064ZM1767 -318Q1678 -456 1590 -595Q1477 -749 1346 -807Q1308 -824 1232 -825Q1198 -895 1198 -896Q1198 -907 1226 -929Q1210 -926 1203 -926Q1185 -926 1171 -948Q1157 -970 1157 -989Q1157 -998 1161 -1016.5Q1165 -1035 1165 -1044Q1165 -1067 1144 -1072Q1137 -1053 1122 -1055L924 -1077Q926 -1001 882 -942Q903 -940 938 -929Q947 -924 958 -888Q968 -856 983 -856Q983 -856 1037 -873Q1054 -839 1081 -768Q993 -738 977 -685L888 -390Q809 -332 645 -227Q597 -209 549 -190Q485 -166 472 -136Q512 -184 565 -180Q581 -161 586 -143L574 -124Q625 -161 741 -222Q819 -270 976 -365Q986 -438 1026 -596Q1065 -584 1167 -549L1222 -677L1243 -667Q1170 -495 1130 -406Q1114 -368 1079 -295Q1056 -254 934 -204Q849 -171 763 -138Q715 -117 622 -70L672 -86L689 -64Q683 -52 670 -27Q722 -75 787 -99Q882 -128 978 -157Q1138 -205 1144 -217Q1203 -351 1321 -619L1344 -602L1295 -490Q1395 -434 1448 -359Q1467 -318 1507 -238ZM1842 -132Q1842 -195 1782 -294H1761Q1527 -223 1483 -208Q1473 -204 1404 -168Q1258 -91 1197 -52Q1068 29 1024 99Q1068 109 1159 174Q1253 119 1327 88Q1394 60 1523 44Q1671 27 1728 10Q1842 -23 1842 -132ZM1822 41Q1822 14 1799 14Q1776 14 1738 27Q1694 42 1677 44Q1586 54 1416 81Q1320 101 1155 202Q1059 127 1012 115Q988 156 988 202Q988 234 1012 263.5Q1036 293 1067 293Q1145 293 1331 228Q1464 177 1597 127Q1692 92 1718 92Q1736 92 1747 99Q1749 121 1764 187Q1776 242 1776 276Q1757 286 1726 285L1730 302H1802Q1810 286 1810 260Q1810 242 1803.5 207Q1797 172 1797 154Q1797 134 1809.5 97.5Q1822 61 1822 41ZM895 324V179H274V324ZM1001 -1009Q971 -1014 941 -1024Q957 -1050 976 -1050Q987 -1050 1001 -1035Z"/>
</svg>