<svg xmlns="http://www.w3.org/2000/svg" viewBox="0 0 695 1000">
  <g transform="scale(1,-1) translate(0,-1000)">
    <path d="M537 524Q537 524 537 507Q537 465 535.5 322.5Q534 180 534 163Q534 98 497.0 49.5Q460 1 392 1Q364 1 340.5 12.5Q317 24 305.5 36.0Q294 48 275 71Q248 104 248.0 104.0Q248 104 249.5 100.0Q251 96 253.5 90.0Q256 84 258.0 76.5Q260 69 261.5 60.5Q263 52 263 45Q263 1 218 1Q218 1 210.5 1.0Q203 1 191.5 0.5Q180 0 167.5 0.0Q155 0 143.5 0.0Q132 0 126 0Q106 0 40 2Q20 2 20 25Q20 56 56 63Q65 65 84.0 66.0Q103 67 116.5 69.0Q130 71 135 76Q137 78 137 85Q137 99 123 118Q104 143 92.5 164.5Q81 186 75.0 202.5Q69 219 56 258Q33 325 33 371Q33 398 38 422Q41 439 56.0 450.0Q71 461 92 461Q98 461 112 458Q171 442 232 381Q268 345 349 247Q356 247 356 398Q356 484 319 609L230 515Q225 510 219.0 510.0Q213 510 208 515L66 671Q55 684 41 684H36Q28 684 14.0 695.0Q0 706 0 712Q0 717 8 717Q11 717 19.0 714.0Q27 711 33 711Q38 711 39.5 712.5Q41 714 41 719Q41 731 27.0 750.5Q13 770 13 771Q13 778 18.5 782.5Q24 787 31 787Q39 787 47.5 777.5Q56 768 61.0 757.5Q66 747 70 736L75 726Q76 719 82 703Q91 688 91 688L217 570L298 683L303 694Q310 704 322.5 715.0Q335 726 342.5 733.5Q350 741 350 749Q350 762 339.5 772.0Q329 782 316.5 789.0Q304 796 293.5 816.0Q283 836 283 867Q283 914 317 949Q365 1000 417 1000Q477 1000 513.0 962.5Q549 925 549 879Q549 866 544.5 851.0Q540 836 536.0 828.0Q532 820 521.5 803.5Q511 787 509 783Q522 759 550.5 745.0Q579 731 585 718Q587 716 588.5 712.0Q590 708 593.5 700.5Q597 693 601 685Q674 537 695 459Q695 457 691.0 430.0Q687 403 679.0 366.0Q671 329 664 310L663 304Q663 286 663 286Q665 282 669.0 276.5Q673 271 674 267Q679 257 679 241Q679 230 674 228H672Q667 228 663 237Q661 241 660 243Q654 254 647 258L646 257Q641 255 637.0 247.5Q633 240 632.0 233.0Q631 226 629.0 214.0Q627 202 626 198Q625 196 621 194Q606 187 598 203Q593 214 598 233Q602 254 612.0 271.0Q622 288 626 303Q654 405 654 435Q654 452 648 470Q597 571 556 632Q537 571 537 528ZM369 949Q403 944 435.5 924.0Q468 904 468 870Q468 867 467.5 859.5Q467 852 467 850Q467 841 470.5 834.5Q474 828 477.5 826.0Q481 824 490 820Q514 860 514 879Q514 913 486.5 939.0Q459 965 417 965Q391 965 369 949ZM366 896Q385 896 385 873Q385 867 379.0 862.5Q373 858 366 858Q341 858 341 873Q341 883 348.5 889.5Q356 896 366 896ZM490 312Q491 426 498 540Q508 633 540 706Q506 724 493 737Q483 747 477.0 756.0Q471 765 465.5 777.5Q460 790 456 798Q437 810 437 850Q437 854 437.5 860.5Q438 867 438 870Q438 887 418.5 899.5Q399 912 380 916L360 920Q359 920 334 915Q318 895 318 867Q318 854 321 841Q323 829 339.5 817.0Q356 805 370.5 788.5Q385 772 385 749Q385 737 380.0 726.5Q375 716 370.0 710.5Q365 705 354.5 696.0Q344 687 340 683Q345 664 357.0 622.5Q369 581 376.0 554.5Q383 528 389.5 484.5Q396 441 396 398Q396 338 395.5 311.0Q395 284 393.5 251.5Q392 219 388.0 206.5Q384 194 377 193H373Q345 193 301 237Q289 251 273.0 271.5Q257 292 248.0 303.5Q239 315 224.5 331.0Q210 347 194 362Q173 381 163.5 389.0Q154 397 138.0 406.0Q122 415 102 420Q102 420 94 420Q78 420 77 414Q73 391 73 369Q73 335 94 270Q111 217 120.0 197.0Q129 177 155 142Q177 112 177 85Q177 54 154 40Q219 40 223 42V45Q223 54 216 77Q211 92 187.5 129.0Q164 166 157 185Q134 251 126 308V311Q126 319 132.0 325.0Q138 331 146 331Q158 331 163 320Q165 315 170.0 306.0Q175 297 176 295Q230 186 287 120Q295 111 309.5 93.0Q324 75 332 67Q358 41 392 41Q447 41 470.5 81.0Q494 121 494 163Q494 185 492.0 237.0Q490 289 490 312Z" fill="currentColor"/>
  </g>
</svg>