<svg xmlns="http://www.w3.org/2000/svg" viewBox="0 -2048 2048 2048">
	<path fill="currentColor" d="M1419 -959Q1419 -892 1292 -826Q1280 -822 1255 -812Q1219 -790 1146 -749Q1091 -719 1060 -686Q1051 -678 1036 -661Q1027 -628 1011 -573Q936 -311 936 -131Q936 -131 980 77Q974 113 968 148Q959 182 934 213Q937 212 942 211Q964 211 1008 259Q1034 287 1073 302.5Q1112 318 1134 320Q1171 324 1177 326Q1200 333 1205 355Q1186 375 1132 375Q1087 375 946 338Q874 319 793 319Q805 319 575 339Q532 341 445 347Q383 353 296 364Q234 372 223 372Q100 372 100 237Q100 221 122.5 190Q145 159 161 148Q280 69 347 39Q401 19 455 -2Q526 -29 554.5 -56.5Q583 -84 583 -272Q583 -467 497 -661Q480 -700 434 -726Q340 -774 247 -821Q115 -897 115 -957Q115 -1005 197 -1072Q257 -1121 316 -1170Q383 -1227 427 -1277Q433 -1284 467 -1321Q461 -1354 461 -1374Q461 -1431 494 -1476Q527 -1521 547 -1521Q551 -1521 580 -1504Q563 -1482 546 -1461Q529 -1436 529 -1410Q529 -1357 550 -1356Q563 -1368 589 -1390Q600 -1382 600 -1367Q600 -1338 583 -1314Q568 -1303 540 -1278Q536 -1274 502 -1212Q472 -1158 447 -1125Q386 -1044 301 -969Q474 -864 598 -864Q642 -864 660 -877V-919Q640 -931 610 -932Q567 -934 559 -935Q515 -1059 515 -1049Q515 -1061 552.5 -1155.5Q590 -1250 600 -1264Q642 -1324 739 -1324Q901 -1324 937 -1170Q939 -1161 939 -1153Q939 -1084 917 -1035Q888 -984 859 -932Q859 -919 865 -880Q933 -864 969 -864Q971 -864 1009 -872Q1060 -883 1125 -913Q1180 -940 1235 -967Q1134 -1063 1089 -1125Q1064 -1178 999 -1275Q977 -1292 954 -1310Q937 -1324 937 -1367Q937 -1382 947 -1391Q952 -1387 986 -1356Q1007 -1356 1007 -1408Q1007 -1452 959 -1496Q969 -1521 983 -1521Q1008 -1521 1042 -1477.5Q1076 -1434 1076 -1369Q1076 -1365 1066 -1322Q1096 -1287 1160 -1222Q1237 -1162 1313 -1102Q1419 -1013 1419 -959ZM913 -1118V-1154Q913 -1170 901 -1206Q889 -1242 879 -1252Q834 -1299 736 -1299Q668 -1299 635 -1269Q606 -1242 588 -1174H747Q765 -1160 783 -1147Q803 -1130 803 -1108Q803 -1092 775 -1071Q747 -1050 747 -1013Q747 -1013 748 -988Q786 -961 825 -961Q861 -961 889 -1023Q913 -1076 913 -1118ZM1396 -959Q1396 -993 1348 -1037Q1310 -1068 1272 -1099Q1106 -1235 1041 -1320Q1050 -1346 1050 -1375Q1050 -1446 1003 -1484Q1030 -1451 1030 -1410Q1030 -1333 983 -1333Q972 -1333 963 -1346Q964 -1328 984 -1313Q1014 -1291 1016 -1289Q1038 -1264 1065 -1214Q1099 -1152 1110 -1136Q1146 -1083 1218 -1014Q1235 -999 1266 -965Q1263 -957 1194 -920Q1134 -888 1109 -878Q1020 -841 969 -841Q946 -841 910 -848Q865 -856 852 -857L843 -866Q840 -890 837 -938Q829 -935 821 -935Q774 -935 722 -982Q721 -989 721 -997Q721 -1042 749.5 -1076.5Q778 -1111 778 -1111Q778 -1119 773 -1127Q749 -1148 745 -1148H578L539 -1049Q564 -996 573 -955Q598 -954 622 -954Q651 -951 668 -938Q683 -939 683 -929V-863Q631 -838 607 -838Q550 -838 520 -845Q483 -853 383 -898Q271 -947 271 -964V-970Q374 -1062 430 -1139Q457 -1191 520 -1289Q539 -1304 569 -1342Q560 -1333 553 -1333Q507 -1333 507 -1411Q507 -1443 529 -1479Q485 -1432 490 -1313Q442 -1260 339 -1163Q138 -1004 138 -957Q138 -907 285 -830Q345 -801 462 -736Q510 -706 534 -633Q594 -453 604 -320Q609 -255 609 -267Q609 -168 579 -63Q630 -85 770 -119Q792 -127 836 -138Q863 -139 916 -142V-153Q916 -259 961 -477Q968 -500 980 -545Q991 -596 1018 -673Q1051 -727 1128 -764Q1145 -772 1226 -822Q1277 -850 1327 -879Q1396 -923 1396 -959ZM957 77Q957 56 914 -119H892Q862 -119 758 -94Q417 -12 187 160Q215 178 232 195Q286 249 284 249Q287 249 313 241Q470 193 621 193Q659 193 732 215.5Q805 238 837 238Q876 238 890 229Q910 208 939 167Q957 128 957 77ZM1174 347V346Q1084 343 1031 309Q1025 305 987 267Q958 237 941 237Q924 237 893 248.5Q862 260 845 260Q817 260 743 240Q665 219 590 219Q474 219 353 253Q286 272 282 272Q275 272 245 241Q227 221 208 201Q195 190 165 173Q123 208 123 240Q123 283 145 315Q170 350 212 350Q226 350 226 350L795 297Q816 295 820 295Q872 295 971.5 324Q1071 353 1123 353Q1157 353 1174 347ZM668 -1081H584Q584 -1085 592 -1105Q618 -1118 624 -1118Q633 -1118 668 -1081Z"/>
</svg>