<svg xmlns="http://www.w3.org/2000/svg" viewBox="0 0 826 1000">
  <g transform="scale(1,-1) translate(0,-1000)">
    <path d="M409 776Q409 763 383.5 724.5Q358 686 327 676Q332 661 344 607Q345 601 349.5 582.0Q354 563 355.0 559.0Q356 555 359.0 540.0Q362 525 362.5 520.0Q363 515 365.0 501.5Q367 488 367.5 480.0Q368 472 369.0 457.5Q370 443 370.0 429.0Q370 415 370 397Q370 374 368.0 333.5Q366 293 366 275L464 311Q467 549 494 652Q487 662 466.5 686.5Q446 711 436 720Q418 738 418 764Q418 779 426.0 786.5Q434 794 446 794Q451 794 471 784Q472 784 502.0 776.0Q532 768 533 767Q530 770 513.0 778.5Q496 787 481.0 796.0Q466 805 466 810Q466 825 476.0 838.0Q486 851 495.5 858.5Q505 866 505 867V868Q505 895 480 916Q475 913 466.5 908.0Q458 903 456 902Q401 866 368 866Q362 866 353.5 867.5Q345 869 341 869Q348 854 353.5 847.5Q359 841 363.0 838.0Q367 835 378.5 822.0Q390 809 406 786Q409 782 409 776ZM336 30Q317 30 278.0 27.0Q239 24 196.0 20.0Q153 16 113.5 12.0Q74 8 47.5 5.0Q21 2 20 2Q12 2 6.0 7.5Q0 13 0 22Q0 27 1.5 30.5Q3 34 6.0 36.0Q9 38 12.5 40.0Q16 42 22.5 43.0Q29 44 34.0 45.0Q39 46 48.5 47.5Q58 49 65 50Q65 52 63.0 62.5Q61 73 61 79Q61 95 69.0 105.5Q77 116 104 136Q104 177 98.5 233.0Q93 289 93 326V360Q93 362 92.5 365.0Q92 368 92 370Q92 388 107.0 400.0Q122 412 139 412Q155 412 163 405L325 261H326Q326 290 328.0 334.0Q330 378 330 397Q330 485 296 600Q296 602 279 679Q252 691 236.5 726.5Q221 762 218.5 786.5Q216 811 216 833Q216 867 228.0 889.0Q240 911 271 946Q320 1000 381 1000Q453 1000 513 940Q545 908 545 868Q545 854 537.0 843.0Q529 832 518.5 824.5Q508 817 507 815Q508 812 547.5 795.5Q587 779 587 777Q587 771 571.0 758.5Q555 746 547.0 744.0Q539 742 522 742H491Q481 742 467 746Q477 737 504.5 707.5Q532 678 535 673Q535 673 542.0 674.5Q549 676 560.0 678.0Q571 680 577 681L628 692L652 854Q662 879 662 895Q662 895 663.5 903.0Q665 911 667.5 921.0Q670 931 673.5 941.5Q677 952 682.5 959.5Q688 967 694 968Q711 971 715 955Q715 954 705.5 931.5Q696 909 696 898V894Q697 890 699 890Q699 890 701.0 891.5Q703 893 705 893Q712 894 717.0 903.5Q722 913 725 913Q733 913 733 907V905Q733 897 724.0 882.0Q715 867 708 866Q707 866 703.0 862.5Q699 859 698 859Q697 858 693.0 857.0Q689 856 687.0 854.5Q685 853 682.5 850.0Q680 847 680 842L678 817L717 816Q715 809 711.5 786.5Q708 764 704.0 742.5Q700 721 695 705Q709 711 713 719Q724 741 730.0 762.5Q736 784 741.0 810.5Q746 837 751 856Q761 881 761 897Q761 897 762.5 905.0Q764 913 766.5 923.0Q769 933 772.5 943.5Q776 954 781.5 961.5Q787 969 793 970Q810 973 814 957Q814 956 804.5 933.5Q795 911 795 900V896L796 893Q796 895 800 895Q806 896 810.0 905.5Q814 915 817 915Q825 915 826 911V910Q826 902 817.5 885.5Q809 869 802 868Q802 868 799.0 865.0Q796 862 795 862Q790 861 788.0 858.5Q786 856 779 844L777 827L810 826Q804 811 790.5 764.5Q777 718 765.0 685.5Q753 653 743 650L524 594Q514 558 509.5 499.5Q505 441 504.5 390.5Q504 340 503.5 239.5Q503 139 502 77L547 44Q550 44 556.0 42.5Q562 41 564.5 40.5Q567 40 571.5 39.0Q576 38 578.0 36.5Q580 35 582.5 33.0Q585 31 586.0 27.5Q587 24 587 20Q587 11 581.0 5.5Q575 0 567 0Q564 0 526.0 7.5Q488 15 434.0 22.5Q380 30 336 30ZM338 82Q404 82 462 67Q462 103 462.5 169.5Q463 236 464 268Q448 262 409.5 248.0Q371 234 345.5 223.5Q320 213 291 198Q281 193 254.5 180.0Q228 167 219.5 162.5Q211 158 191.5 147.0Q172 136 161.0 128.5Q150 121 134.0 109.0Q118 97 103 83Q101 81 101 79Q101 75 105 57Q258 82 338 82ZM466 893Q477 893 484.0 886.5Q491 880 491 870Q491 855 466 855Q459 855 453.0 859.5Q447 864 447 870Q447 879 452.5 886.0Q458 893 466 893ZM446 943Q418 960 380 960Q337 960 301 919Q274 888 265.0 872.0Q256 856 256 833Q256 826 257.0 809.5Q258 793 265.0 764.0Q272 735 283.0 724.0Q294 713 309.0 713.0Q324 713 344.0 732.5Q364 752 364 772Q364 787 339.0 810.0Q314 833 306 851Q299 865 299 873Q299 886 310.0 897.5Q321 909 340 909Q346 909 356.0 907.5Q366 906 370 906H371Q414 919 446 943ZM130 369Q130 368 130.0 366.5Q130 365 130.5 362.5Q131 360 131.0 350.5Q131 341 131 326Q131 292 135.5 241.0Q140 190 141 165Q174 186 271 234L285 241L138 372H137Q132 372 130 369Z" fill="currentColor"/>
  </g>
</svg>