<svg xmlns="http://www.w3.org/2000/svg" viewBox="0 0 465 1000">
  <g transform="scale(1,-1) translate(0,-1000)">
    <path d="M165 904Q172 904 177.0 897.5Q182 891 182 883Q182 877 176.5 872.5Q171 868 165 868Q142 868 142 883Q142 904 165 904ZM168 953Q199 949 228.5 930.5Q258 912 258 881Q258 879 257.5 871.5Q257 864 257 861Q257 853 261.0 847.0Q265 841 266.5 840.0Q268 839 278 834Q301 868 301 888Q301 920 276.0 943.5Q251 967 212 967Q187 967 168 953ZM288 452Q260 454 243 454Q202 454 157 447L150 328H291ZM332 888Q332 861 312.5 828.0Q293 795 293 785Q293 780 297 749Q311 743 335.5 736.5Q360 730 377.5 722.0Q395 714 410 699Q465 644 465 526Q465 523 464.5 502.0Q464 481 464 461L463 441Q463 424 446 424Q442 424 423.5 427.5Q405 431 388 434L370 438Q362 440 354.0 441.5Q346 443 336.5 444.5Q327 446 322 447L327 330Q332 232 334 74Q332 56 332 44V36Q332 13 326.0 6.5Q320 0 306 0H219Q209 0 202.5 4.5Q196 9 195.0 12.0Q194 15 194 17Q194 39 280 59L267 298H170Q168 264 140 74V70Q140 65 139.0 56.0Q138 47 138 44V36Q138 13 131.0 6.5Q124 0 99 0H28Q17 0 10.0 4.0Q3 8 1.5 11.5Q0 15 0 18Q0 41 87 59L109 326H110L121 441Q51 427 24 423H22Q14 423 9.0 428.5Q4 434 4 441L6 469Q7 489 7.5 523.5Q8 558 8.5 578.0Q9 598 16.5 627.0Q24 656 38 683Q46 699 60.0 710.0Q74 721 84.0 725.0Q94 729 113 735Q120 737 127.0 738.0Q134 739 136.5 738.0Q139 737 141.0 740.5Q143 744 143.0 749.0Q143 754 143 769Q143 781 134.5 790.5Q126 800 115.5 806.5Q105 813 96.5 831.5Q88 850 88 878Q88 925 127.0 962.5Q166 1000 212 1000Q267 1000 299.5 965.5Q332 931 332 888ZM171 720Q157 714 130.5 706.0Q104 698 91.0 690.0Q78 682 69 666Q42 616 42 534V516Q42 501 40 461Q64 464 98 472Q181 489 243 489Q298 489 377 472Q382 471 400.0 467.5Q418 464 428 462L430 529Q430 602 396 660Q384 680 367.5 688.5Q351 697 322.5 704.5Q294 712 273 722Q263 727 263 736Q262 776 258.5 795.0Q255 814 254.0 814.5Q253 815 247 817Q229 832 229 861Q229 865 229.5 871.5Q230 878 230 881Q230 897 212.5 908.0Q195 919 178 922L160 926Q156 926 134 922Q120 900 120 878Q120 844 146.5 822.0Q173 800 176 769Q178 754 178 736Q178 722 171 720Z" fill="currentColor"/>
  </g>
</svg>