<svg xmlns="http://www.w3.org/2000/svg" viewBox="0 -2048 2048 2048">
	<path fill="currentColor" d="M1102 298Q1102 323 1079 341Q1060 355 1042 355Q1036 355 1023.5 347Q1011 339 1004 339Q997 339 947.5 347Q898 355 891 355Q887 355 855.5 352Q824 349 810 349Q810 347 807 344.5Q804 342 804 334Q804 306 828 303Q937 288 994 244Q998 154 914 -96Q906 -141 882 -235H764Q674 -87 556 240Q560 228 560 310Q560 355 531 355Q525 355 512.5 347Q500 339 493 339Q485 339 482 345Q477 355 477 355H252Q255 339 265 313Q323 301 432 262Q454 250 477 162L567 -179Q612 -308 656 -436Q734 -669 734 -752Q734 -777 707 -777Q636 -777 433 -753Q421 -752 380 -741Q345 -733 322 -733Q260 -733 214 -761Q214 -765 208 -774Q223 -789 271.5 -783.5Q320 -778 327 -785Q318 -794 306 -794V-819Q330 -831 352 -831Q360 -831 386.5 -828Q413 -825 420 -825Q511 -825 680 -899Q652 -972 601 -972Q594 -972 529 -966.5Q464 -961 457 -961Q367 -961 350 -973Q337 -982 304 -1038Q244 -1138 134 -1341Q123 -1373 100 -1440L106 -1469H131Q149 -1437 184 -1372L199 -1388H229Q232 -1363 247 -1322Q311 -1239 429 -1074Q530 -1101 734 -1144V-1211Q707 -1216 653 -1227Q654 -1264 651 -1298Q650 -1300 632 -1314Q620 -1324 620 -1332Q620 -1336 667 -1409Q687 -1441 707 -1474Q742 -1521 780.5 -1533.5Q819 -1546 850 -1546Q907 -1546 950.5 -1501Q994 -1456 994 -1399Q994 -1414 923 -1163Q926 -1152 955 -1145Q978 -1141 1002 -1137Q1069 -1121 1069 -1045Q1069 -1038 1039.5 -917.5Q1010 -797 1010 -790Q1010 -784 1031.5 -674.5Q1053 -565 1053 -557Q1053 -551 1037 -484.5Q1021 -418 1021 -411Q1021 -407 1027.5 -358Q1034 -309 1035 -287Q1036 -227 1044 -103Q1052 -27 1078 141Q1102 295 1102 298ZM967 -1397Q967 -1441 938 -1480Q905 -1524 853 -1524Q822 -1524 783 -1504Q734 -1478 718 -1439Q835 -1389 834 -1389Q841 -1389 853 -1399.5Q865 -1410 872 -1410Q907 -1410 907 -1383Q907 -1376 893.5 -1344Q880 -1312 880 -1305Q880 -1275 910 -1275Q931 -1275 950 -1330Q967 -1376 967 -1397ZM1048 -1047Q1048 -1070 1029 -1094Q1010 -1118 980 -1121Q957 -1122 916 -1130Q894 -1139 897 -1196Q897 -1203 901.5 -1223Q906 -1243 906 -1252Q891 -1254 872 -1275Q853 -1296 853 -1305Q853 -1312 866 -1334.5Q879 -1357 879 -1364V-1383Q867 -1379 844 -1356L709 -1416Q672 -1379 653 -1331Q677 -1324 677 -1297Q676 -1273 675 -1249Q709 -1243 761 -1228Q766 -1159 746 -1113Q717 -1114 665 -1110Q610 -1100 412 -1047Q318 -1192 218 -1323Q212 -1323 197.5 -1325.5Q183 -1328 182 -1328Q224 -1242 313 -1076Q339 -1032 345 -1023Q363 -995 379.5 -988.5Q396 -982 501 -982Q508 -982 556.5 -990.5Q605 -999 612 -999Q634 -999 670 -959Q690 -936 709 -912L856 -1058Q865 -1049 870 -1049Q858 -1033 838 -1008Q759 -906 662 -863Q649 -857 492 -810Q452 -798 414 -798Q407 -798 398 -800.5Q389 -803 388 -803V-772Q448 -787 450 -787H649Q656 -787 667.5 -791.5Q679 -796 683 -796Q734 -802 806 -863Q868 -918 931 -972Q945 -958 945 -954L756 -791V-729L988 -756Q988 -799 992 -817Q1048 -1068 1048 -1047ZM1032 -563Q1032 -570 1016 -633Q997 -707 992 -733L751 -695Q738 -608 697 -483Q631 -279 626 -263H1009Q994 -428 995 -438Q998 -464 1015 -513Q1032 -559 1032 -563ZM386 -764V-773H372V-764ZM1075 293Q1075 282 1051 65Q1037 0 1017 -119Q1014 -154 1015 -234H918V-195Q918 -188 940 -122Q967 -43 975 -15Q1021 153 1021 220Q1021 269 960 295Q913 310 866 326Q947 328 987 321Q1006 307 1007 307Q1014 307 1028.5 315Q1043 323 1050 323Q1075 323 1075 293ZM733 -234H616Q595 -187 581 -126Q558 -24 548 11Q542 33 510 135Q494 193 458 274Q433 302 317 322H470Q477 323 482.5 315Q488 307 495 307Q504 307 532 323Q529 297 529 250Q533 225 585 99Q671 -109 733 -234ZM760 -1335H737Q729 -1335 718 -1344Q704 -1357 701 -1358Q716 -1383 728 -1383Q737 -1383 760 -1371Z"/>
</svg>