<svg xmlns="http://www.w3.org/2000/svg" viewBox="0 -2048 2048 2048">
	<path fill="#000000" d="M999 110Q999 146 953 197Q912 243 876 258Q766 305 664 305Q658 305 584.5 297.5Q511 290 506 290Q501 290 464 292.5Q427 295 420 295Q176 295 113 79Q100 33 100 22V-594H129V-432Q134 -446 147 -471Q181 -506 246 -578Q270 -612 320 -675Q361 -710 429 -781Q434 -811 447 -862Q471 -942 496 -1023Q532 -1113 609 -1129Q611 -1130 619 -1136V-1164Q562 -1167 562 -1209Q562 -1224 572 -1241Q532 -1265 532 -1280Q532 -1300 571 -1373Q615 -1455 646.5 -1466.5Q678 -1478 702 -1478Q757 -1478 804.5 -1432Q852 -1386 852 -1336Q852 -1299 822 -1247Q779 -1171 775 -1160V-1142Q805 -1140 835 -1118Q869 -1093 870 -1059Q872 -985 868 -952Q857 -854 863 -811Q867 -780 883 -709Q898 -645 898 -640Q898 -635 885 -576.5Q872 -518 872 -508Q872 -506 885 -419Q883 -390 884 -328Q897 -254 916 -104Q918 -51 924 48Q924 53 933.5 72.5Q943 92 943 99Q943 110 926 119Q913 127 905 127Q857 127 871 124Q871 132 859 132H695Q695 119 697.5 102Q700 85 700 82Q842 56 842 20Q842 2 777 -246Q771 -268 747 -371H652Q618 -329 609 -301Q588 -229 545 -98Q525 -51 492 34Q490 65 485 121Q413 107 428 107Q422 107 409.5 111.5Q397 116 392 116Q319 121 238 107Q238 100 240.5 86Q243 72 243 67Q370 65 408 11Q423 -10 437 -74Q457 -158 487 -313Q488 -322 555 -512Q618 -690 618 -754Q618 -758 604 -895Q605 -895 596 -904Q578 -803 574 -785Q557 -707 535 -657Q485 -574 390 -408Q389 -391 387 -362Q386 -346 378 -336H355Q353 -348 345 -376Q320 -372 292 -295H274Q268 -301 268 -317Q268 -344 296 -392Q317 -427 337 -461Q380 -549 376 -579Q303 -535 268 -484Q267 -466 260 -428Q254 -411 242 -411Q214 -411 208 -452Q203 -447 173 -409Q150 -381 143 -381Q139 -381 129 -391L120 -33Q120 -27 126 -3Q133 25 134 33Q139 64 144 95Q152 133 172 169Q216 249 326 261Q346 263 382 269L646 279Q872 279 957 154Q978 123 979 93V-1381H999ZM821 -1328Q821 -1382 788.5 -1417.5Q756 -1453 697 -1453Q618 -1453 598 -1373Q613 -1369 663 -1351Q703 -1336 710 -1336Q715 -1336 728.5 -1343.5Q742 -1351 750 -1351Q781 -1351 781 -1311Q781 -1304 768 -1278Q755 -1252 755 -1247Q755 -1240 758 -1236Q761 -1232 761 -1230Q821 -1237 821 -1328ZM852 -1006Q852 -1085 820 -1100Q795 -1111 764 -1114Q750 -1126 750 -1146Q750 -1172 770 -1202Q730 -1214 730 -1245Q730 -1251 742.5 -1273.5Q755 -1296 755 -1302V-1325Q735 -1320 722 -1305Q707 -1310 677.5 -1319Q648 -1328 633 -1333Q638 -1333 649 -1323V-1303Q649 -1303 636 -1290Q619 -1298 593 -1318Q615 -1340 623 -1339Q613 -1339 589 -1351Q577 -1325 557 -1282Q578 -1268 603 -1261Q599 -1244 595 -1227Q590 -1203 599 -1194Q630 -1194 649 -1181Q647 -1159 642 -1117Q624 -1111 594 -1100Q550 -1081 523 -1016Q501 -962 501 -906V-755Q501 -749 478 -720Q453 -686 447 -674Q403 -580 381.5 -523Q360 -466 324 -397Q343 -403 363 -402Q376 -442 454 -560Q529 -671 540 -723Q549 -809 589 -982Q596 -991 604 -991Q605 -986 628 -863Q642 -787 639 -752L851 -805Q846 -813 838 -826Q840 -856 846 -933Q852 -1001 852 -1006ZM872 -650Q872 -669 845 -777L634 -726Q620 -644 542 -392H862V-420Q854 -457 848 -521Q849 -543 860.5 -595Q872 -647 872 -650ZM474 -759Q476 -785 474 -869Q473 -835 454 -776Q439 -754 401 -721Q357 -683 346 -670Q289 -594 174 -458Q204 -483 227 -483Q233 -483 238 -479V-455Q241 -491 248 -499Q267 -521 355 -597Q418 -652 441 -703Q457 -723 474 -759ZM917 101Q903 44 903 38Q904 -17 882 -144Q859 -275 859 -330Q859 -352 861 -370H782L776 -364L867 23Q862 65 810 84Q770 95 730 106H798Q822 108 855 105Q874 91 875 91Q882 91 890 99Q898 107 903 107Q910 107 912.5 104Q915 101 917 101ZM618 -370H538Q517 -339 513 -318Q501 -247 467 -95Q456 -49 429 21Q390 77 288 89Q315 89 371.5 85Q428 81 430 81Q439 81 459 91Q459 73 462 44Q486 -7 525 -103Q549 -173 560 -220Q575 -284 580 -300Q595 -347 618 -370Z"/>
</svg>