<svg xmlns="http://www.w3.org/2000/svg" viewBox="0 -2048 2048 2048">
	<path fill="currentColor" d="M1598 -1123Q1598 -998 1564 -944Q1535 -897 1450 -892Q1405 -887 1316 -879Q1290 -883 1242 -871Q1216 -853 1208 -801Q1204 -762 1201 -724Q1146 -287 1146 -210L1167 43Q1167 126 1143 155Q1119 184 1119 194Q1119 213 1150 231Q1201 262 1284 285Q1310 285 1361 309Q1361 324 1343 338Q1333 339 1304 342Q1279 345 1272 345Q1241 345 1127.5 315.5Q1014 286 890 286Q741 286 642 297Q609 301 530 315Q458 329 453 329Q421 329 371 310Q321 291 324 291Q317 291 239 318Q161 345 154 345Q139 345 119.5 328Q100 311 100 302Q100 294 103.5 288.5Q107 283 107 281Q182 280 271 223Q268 170 322 120Q357 88 391 56L311 -342Q306 -383 334.5 -415Q363 -447 399 -447Q476 -447 591 -341Q689 -240 787 -140L834 -442H578Q573 -442 554 -453Q529 -468 516 -474Q514 -595 527 -650Q550 -751 593 -854Q649 -991 700 -1011Q754 -1025 866 -1055Q866 -1073 856 -1083Q852 -1083 840.5 -1080Q829 -1077 822 -1077Q811 -1077 803 -1079Q787 -1088 779 -1112Q773 -1133 767 -1154Q728 -1169 716 -1169Q715 -1170 714 -1171Q709 -1176 709 -1188Q709 -1193 727 -1231Q749 -1279 756 -1297Q799 -1411 833 -1447Q874 -1492 954 -1492Q1028 -1492 1091 -1446Q1162 -1393 1162 -1312Q1162 -1297 1143 -1246Q1135 -1223 1103 -1157Q1076 -1101 1076 -1094Q1076 -1070 1096 -1035Q1273 -1018 1307 -1018Q1325 -1018 1454 -1030Q1456 -1031 1462 -1038Q1468 -1080 1489 -1190Q1507 -1288 1507 -1293Q1507 -1299 1490.5 -1348Q1474 -1397 1474 -1403Q1474 -1420 1493 -1428Q1512 -1436 1512 -1438Q1512 -1445 1488 -1480Q1464 -1515 1464 -1522Q1464 -1541 1477 -1541Q1534 -1538 1574 -1453Q1590 -1418 1590 -1368Q1590 -1351 1588 -1317Q1586 -1283 1586 -1266Q1586 -1250 1587 -1237Q1598 -1138 1598 -1123ZM1135 -1314Q1135 -1381 1075 -1428Q1019 -1471 952 -1471Q845 -1471 807 -1359Q831 -1351 894 -1322Q947 -1298 954 -1298Q961 -1298 972 -1309Q983 -1320 989 -1320Q1003 -1320 1020.5 -1298.5Q1038 -1277 1038 -1263Q1038 -1256 1024.5 -1220Q1011 -1184 1011 -1177Q1011 -1132 1053 -1115Q1074 -1156 1094 -1197Q1135 -1284 1135 -1314ZM1571 -1129Q1571 -1129 1566 -1209Q1561 -1289 1561 -1328Q1561 -1331 1563 -1366Q1565 -1394 1563 -1411Q1561 -1436 1553 -1448Q1527 -1486 1497 -1508Q1555 -1415 1555 -1382Q1555 -1358 1534 -1358Q1521 -1358 1508 -1376Q1528 -1310 1528 -1277Q1528 -1221 1483 -1027Q1480 -1020 1471 -1009Q1384 -997 1302 -997Q1130 -997 1071 -1017Q1065 -1041 1051 -1087Q1000 -1115 990 -1143Q984 -1159 984 -1177Q984 -1184 997.5 -1219Q1011 -1254 1011 -1261Q1011 -1281 986 -1293Q961 -1271 954 -1271Q947 -1271 884 -1300.5Q821 -1330 814 -1330H797Q774 -1267 736 -1192Q761 -1186 794 -1170Q796 -1151 798 -1132Q802 -1099 820 -1099Q822 -1099 848 -1104Q869 -1108 882 -1105Q893 -1048 893 -1033Q821 -1023 705 -983Q652 -947 593 -781Q537 -621 537 -528Q537 -520 540.5 -507.5Q544 -495 544 -491Q583 -469 583 -469H827Q827 -481 824.5 -503.5Q822 -526 822 -532Q774 -544 758 -544Q751 -544 706.5 -538.5Q662 -533 655 -533Q643 -533 634 -542V-564Q634 -585 710 -842Q721 -878 744 -878Q757 -878 753 -874Q846 -613 855 -458L807 -119H826Q923 -163 1123 -178Q1132 -375 1179 -773Q1182 -805 1185 -838Q1192 -875 1220 -893Q1236 -903 1299 -906Q1338 -908 1456 -917Q1523 -922 1542 -966Q1571 -1033 1571 -1129ZM816 -564Q803 -645 739 -840Q726 -794 700 -700.5Q674 -607 661 -561Q754 -571 816 -564ZM779 -104Q650 -278 469 -398Q424 -323 424 -315Q424 -309 448 -259Q475 -204 481 -180Q502 -99 495 5ZM1146 46L1129 -150H1057Q956 -150 687 -46Q415 58 381 111Q470 200 480 200Q509 200 602.5 175.5Q696 151 742 151Q749 151 861.5 170Q974 189 981 189Q993 189 1096 171Q1146 119 1146 46ZM472 -75Q472 -151 438 -230Q397 -325 397 -315Q397 -322 418.5 -360.5Q440 -399 440 -404Q440 -420 402 -420Q373 -420 353.5 -391.5Q334 -363 338 -336L414 48Q434 41 464 20Q472 -84 472 -75ZM1297 310Q1171 302 1084 194Q1016 221 992 221Q1000 221 906.5 199.5Q813 178 742 178Q645 178 560 202Q475 226 475 226Q457 226 407 175Q357 124 356 124Q335 124 315 163Q300 195 300 208Q300 249 359 279Q406 303 442 303Q447 303 449 302L658 270H803Q810 270 871.5 264.5Q933 259 938 259Q1007 259 1120 280Q1260 306 1297 310ZM300 267Q286 253 272 253L127 304Q150 318 165 318Q195 318 240 301Q285 284 300 267ZM871 -1269Q852 -1250 841 -1250Q825 -1250 802 -1262V-1287Q807 -1287 816.5 -1290Q826 -1293 833 -1293Q847 -1293 871 -1269Z"/>
</svg>