<svg xmlns="http://www.w3.org/2000/svg" viewBox="0 0 703 1000">
  <g transform="scale(1,-1) translate(0,-1000)">
    <path d="M630 954Q634 954 639.5 944.5Q645 935 658 930Q669 941 669 967V987Q669 1000 682 1000Q690 1000 696.5 992.5Q703 985 703 971Q703 970 702.5 967.0Q702 964 702 963Q701 942 694.0 922.5Q687 903 686 887Q682 816 682 755Q682 740 682.5 717.0Q683 694 683 686Q683 650 679.0 635.0Q675 620 662 616Q661 616 619.0 617.0Q577 618 531.0 621.0Q485 624 472 631Q454 573 450 527Q446 503 446 325Q446 239 449 212V201Q449 195 448.5 180.5Q448 166 448 158Q462 136 462 98Q462 42 437 6Q437 0 419 0H405Q390 0 390 22Q390 31 394.0 56.0Q398 81 398 92Q398 123 375 123Q353 123 314 100Q296 93 239.5 66.0Q183 39 133.0 21.5Q83 4 40 0Q20 4 10.0 28.5Q0 53 0 79Q0 109 42 143Q170 251 263 293Q263 319 266.5 352.0Q270 385 270 403V417Q269 459 255 524Q202 496 180.0 484.5Q158 473 131.5 463.5Q105 454 86.0 454.0Q67 454 53.5 462.0Q40 470 36.0 477.5Q32 485 32 489Q32 504 63.5 540.0Q95 576 147.5 625.5Q200 675 202 677L217 692Q219 694 234.0 706.5Q249 719 256.0 729.0Q263 739 263 748Q263 761 252.5 771.0Q242 781 229.5 788.0Q217 795 206.5 815.0Q196 835 196 866Q196 913 230 948Q279 1000 330 1000Q390 1000 426.0 962.0Q462 924 462 878Q462 865 457.5 850.0Q453 835 449.0 827.0Q445 819 434.5 802.5Q424 786 422 782Q433 762 445.5 750.5Q458 739 481.5 724.5Q505 710 517 701Q528 692 560.0 681.5Q592 671 614 671Q625 671 631 674Q631 674 634.5 714.0Q638 754 642.5 804.0Q647 854 651 873L650 879Q648 895 647 897Q645 900 639.5 906.0Q634 912 633 916Q624 928 624 946Q624 954 627 954ZM294 150Q324 163 404 210Q404 221 404.5 233.5Q405 246 405 249Q405 259 404.0 272.0Q403 285 403 311Q140 179 46 70Q45 69 45 66Q45 50 65 50Q74 50 86.0 53.0Q98 56 111.5 60.5Q125 65 140.0 71.5Q155 78 170.5 85.0Q186 92 201.0 99.5Q216 107 229.5 114.0Q243 121 255.0 127.5Q267 134 275.0 139.0Q283 144 288 147ZM324 568Q332 560 344.0 556.5Q356 553 357 548Q357 548 358 547V546Q357 542 342 542Q336 542 326.0 542.5Q316 543 314 543H311Q301 539 291 536Q293 521 296.5 499.0Q300 477 302.0 459.5Q304 442 304 422Q304 405 304.5 380.5Q305 356 305 342V317Q320 323 351.5 340.5Q383 358 402 366Q403 458 403.0 473.0Q403 488 405.5 498.5Q408 509 411 539Q421 632 453 705Q419 723 406 736Q396 746 390.0 755.0Q384 764 378.5 776.5Q373 789 369 797Q350 809 350 849Q350 853 350.5 859.5Q351 866 351 869Q351 886 331.5 898.5Q312 911 292 915L273 919Q231 919 231 866Q231 854 234 840Q236 828 252.5 816.0Q269 804 283.5 787.5Q298 771 298 748Q298 740 296.0 731.5Q294 723 291.5 718.0Q289 713 283.0 705.5Q277 698 274.0 695.0Q271 692 263.5 684.5Q256 677 254 675Q259 656 270.0 621.0Q281 586 282 581Q291 587 299.0 594.5Q307 602 315.5 608.0Q324 614 340.0 620.0Q356 626 366 626Q383 626 383 613Q383 609 379 599Q343 586 336.0 582.0Q329 578 324 568ZM282 948Q316 943 348.5 923.0Q381 903 381 869Q381 866 380.5 858.5Q380 851 380 849Q380 840 383.5 833.5Q387 827 390.5 825.0Q394 823 403 819Q427 859 427 878Q427 912 399.5 938.0Q372 964 330 964Q304 964 282 948ZM279 895Q298 895 298 872Q298 866 292.0 861.5Q286 857 279 857Q254 857 254 872Q254 882 261.5 888.5Q269 895 279 895ZM246 559Q241 577 229 617Q100 526 100 504Q100 499 108 499Q125 499 169.5 519.5Q214 540 246 559Z" fill="currentColor"/>
  </g>
</svg>