<svg xmlns="http://www.w3.org/2000/svg" viewBox="0 0 877 1000">
  <g transform="scale(1,-1) translate(0,-1000)">
    <path d="M851 883Q851 883 851.5 874.5Q852 866 852.0 853.0Q852 840 852.5 824.5Q853 809 853.5 791.5Q854 774 854.0 760.0Q854 746 853.5 714.5Q853 683 853 656Q853 641 845 641Q819 641 793.0 643.5Q767 646 748.5 649.0Q730 652 715.5 655.0Q701 658 693 660L685 663Q673 663 668 630Q660 601 655.0 562.0Q650 523 647.0 454.5Q644 386 643.0 350.5Q642 315 640.5 210.5Q639 106 639 77L684 44Q687 44 693.0 42.5Q699 41 701.5 40.5Q704 40 708.5 39.0Q713 38 715.0 36.5Q717 35 719.5 33.0Q722 31 723.0 27.5Q724 24 724 20Q724 11 718.0 5.5Q712 0 704 0Q701 0 663.0 7.5Q625 15 571.0 22.5Q517 30 473 30Q454 30 415.0 27.0Q376 24 333.0 20.0Q290 16 250.5 12.0Q211 8 184.5 5.0Q158 2 157 2Q149 2 143.0 7.5Q137 13 137 22Q137 27 138.5 30.5Q140 34 143.0 36.0Q146 38 149.5 40.0Q153 42 159.5 43.0Q166 44 171.0 45.0Q176 46 185.5 47.5Q195 49 202 50Q202 52 200.0 62.5Q198 73 198 79Q198 95 206.0 105.5Q214 116 241 136Q241 177 235.5 233.0Q230 289 230 326V360Q230 362 229.5 365.0Q229 368 229 370Q229 388 244.0 400.0Q259 412 276 412Q292 412 300 405L462 261H463Q463 290 465.0 334.0Q467 378 467 397Q467 484 433 599V600L429 613Q404 606 365.0 593.0Q326 580 299.5 571.5Q273 563 264 563Q253 563 204.0 566.5Q155 570 119 572Q106 573 102 574Q80 572 78 571Q78 571 66.5 571.5Q55 572 43.0 573.0Q31 574 19.0 578.5Q7 583 4 590Q0 598 0 609Q0 639 35 639H41Q64 639 88.5 626.0Q113 613 123 613H124L260 618L395 679L415 692Q422 702 434.5 713.0Q447 724 454.5 732.0Q462 740 462 748Q462 758 455.0 766.0Q448 774 438.0 780.5Q428 787 418.0 796.0Q408 805 401.0 822.5Q394 840 394 865Q394 916 436.5 957.0Q479 998 529 998Q588 998 624.0 960.5Q660 923 660 877Q660 864 655.5 849.0Q651 834 647.0 826.0Q643 818 632.5 801.5Q622 785 620 781Q630 763 640.0 754.5Q650 746 672 738L693 729Q775 703 782 703Q807 703 807 729V738L817 869Q817 870 816.5 879.5Q816 889 814.5 899.5Q813 910 809 916Q809 1000 839 1000Q877 1000 877 947Q877 921 865 909Q864 908 860.0 905.5Q856 903 853.5 897.5Q851 892 851 883ZM269 369Q269 368 269.0 366.5Q269 365 269.5 362.5Q270 360 270.0 350.5Q270 341 270 326Q270 292 274.5 241.0Q279 190 280 165Q313 186 410 234L424 241L277 372H276Q270 372 269 369ZM475 82Q541 82 599 67Q599 103 599.5 169.5Q600 236 601 268Q585 262 546.5 248.0Q508 234 482.5 223.5Q457 213 428 198Q418 193 391.5 180.0Q365 167 356.5 162.5Q348 158 328.5 147.0Q309 136 298.0 128.5Q287 121 271.0 109.0Q255 97 240 83Q238 81 238 79Q238 75 242 57Q395 82 475 82ZM478 894Q486 894 491.5 887.0Q497 880 497 871Q497 865 491.0 860.5Q485 856 478 856Q453 856 453 871Q453 881 460.0 887.5Q467 894 478 894ZM567 800Q548 814 548 848Q548 852 548.5 859.0Q549 866 549 869Q549 886 529.5 898.5Q510 911 491 914L472 918Q429 918 429 865Q429 854 432 839Q435 827 451.5 815.0Q468 803 482.5 787.0Q497 771 497 748Q497 735 492.0 724.5Q487 714 481.5 708.5Q476 703 465.5 694.0Q455 685 451 681Q455 664 468.0 621.0Q481 578 487.5 553.0Q494 528 500.5 484.0Q507 440 507 397Q507 374 505.0 333.5Q503 293 503 275L601 311Q604 480 612.0 556.5Q620 633 651 705Q617 722 604 735Q594 745 588.5 754.0Q583 763 577.5 775.0Q572 787 567 796ZM481 947Q514 943 546.5 923.0Q579 903 579 869Q579 866 578.5 858.5Q578 851 578 848Q578 839 582.0 832.5Q586 826 589.0 824.0Q592 822 601 818Q625 857 625 877Q625 911 598.0 937.0Q571 963 529 963Q503 963 481 947Z" fill="currentColor"/>
  </g>
</svg>