<svg xmlns="http://www.w3.org/2000/svg" viewBox="0 0 851 1000">
  <g transform="scale(1,-1) translate(0,-1000)">
    <path d="M778 954Q782 954 787.5 945.0Q793 936 806 930Q817 941 817 967V987Q817 1000 830 1000Q851 1000 851 972Q851 970 850.5 967.0Q850 964 850 963Q849 942 842.0 922.5Q835 903 834 887Q825 740 813.5 690.0Q802 640 776 635Q768 633 726 633Q599 633 580 651Q560 587 557 527L555 490Q552 427 552 385V182Q552 174 552.5 159.5Q553 145 553 138Q553 113 546 97Q548 95 550.5 92.0Q553 89 554 88Q577 64 612.5 58.5Q648 53 670.5 50.5Q693 48 693 28Q693 16 687.5 8.0Q682 0 673 0H671Q656 0 631.0 0.5Q606 1 592 1Q557 1 486.0 8.5Q415 16 374 16Q330 16 254.0 8.0Q178 0 145 0Q91 0 91 39Q91 42 91.5 46.0Q92 50 92 51Q93 62 99.5 73.5Q106 85 106 88Q106 89 105.5 91.5Q105 94 105 96Q105 132 227 206Q362 290 369 294Q370 293 370 293Q370 322 373.0 349.5Q376 377 376 397Q376 429 372.0 458.0Q368 487 364.5 501.0Q361 515 350.5 547.5Q340 580 337 590L233 435Q230 431 196.5 397.5Q163 364 130 332L98 301Q92 295 92 290Q92 284 96 269Q96 269 96.5 267.0Q97 265 97 264Q97 256 92.0 240.5Q87 225 81 225Q74 225 74 239V243Q74 262 68 262Q55 262 39.5 239.0Q24 216 19 216Q12 216 6.0 221.5Q0 227 0 234Q0 242 6.5 252.0Q13 262 21.0 269.5Q29 277 36 284L44 291Q57 298 74 319L206 474L318 682L323 693Q330 703 342.5 714.0Q355 725 362.5 732.5Q370 740 370 748Q370 761 359.5 771.0Q349 781 336.5 788.5Q324 796 313.5 816.0Q303 836 303 867Q303 914 337 949Q385 1000 437 1000Q497 1000 533.0 962.5Q569 925 569 879Q569 866 564.5 851.0Q560 836 556.0 828.0Q552 820 541.5 803.5Q531 787 529 783Q543 758 570.5 742.0Q598 726 605 717Q606 716 628.0 710.5Q650 705 681.0 699.5Q712 694 729 694Q742 694 745 696Q746 697 757.0 731.0Q768 765 781.5 809.0Q795 853 799 873L798 879Q796 895 795 897Q793 900 787.5 906.0Q782 912 781 916Q772 928 772 946Q772 954 775 954ZM126 42Q126 37 145 37H168Q196 37 260.5 46.0Q325 55 372 55Q420 55 494.0 48.0Q568 41 577 40Q568 43 556.0 45.5Q544 48 538.0 51.0Q532 54 525 61L522 64Q512 56 501 56Q493 56 427 64Q399 68 368.0 77.0Q337 86 311 86Q293 86 281.0 83.5Q269 81 261.0 77.0Q253 73 228.5 66.5Q204 60 167 53H160Q142 53 129 59Q129 57 128.0 53.0Q127 49 126.5 46.5Q126 44 126 42ZM386 896Q405 896 405 873Q405 867 399.0 862.5Q393 858 386 858Q361 858 361 873Q361 883 368.5 889.5Q376 896 386 896ZM514 492Q530 636 560 705Q526 723 513 736Q503 746 497.0 755.0Q491 764 486.0 777.0Q481 790 476 798Q457 810 457 850Q457 854 457.5 860.5Q458 867 458 870Q458 887 438.5 899.5Q419 912 400 916L380 920Q379 920 354 915Q338 895 338 867Q338 854 341 841Q343 829 359.5 816.5Q376 804 390.5 787.5Q405 771 405 748Q405 736 400.0 725.5Q395 715 390.0 709.5Q385 704 374.5 695.0Q364 686 360 682Q365 663 377.0 621.5Q389 580 396.0 553.5Q403 527 409.5 483.5Q416 440 416 397Q416 376 414.0 357.5Q412 339 412 317Q427 323 458.5 340.5Q490 358 509 366Q510 416 514 492ZM389 949Q423 944 455.5 924.0Q488 904 488 870Q488 867 487.5 859.5Q487 852 487 850Q487 841 490.5 834.5Q494 828 497.5 826.0Q501 824 510 820Q534 860 534 879Q534 913 506.5 939.0Q479 965 437 965Q411 965 389 949ZM512 320Q409 262 349 232Q327 218 286.0 197.5Q245 177 216.0 157.0Q187 137 161 107Q153 98 153 93Q153 90 156 90Q160 91 160 91Q175 92 218.5 110.5Q262 129 299 129Q331 129 396.5 112.5Q462 96 481 96Q505 96 509.5 99.0Q514 102 515 119Q516 139 516 174Q516 201 514.0 248.0Q512 295 512 320Z" fill="currentColor"/>
  </g>
</svg>