<svg xmlns="http://www.w3.org/2000/svg" viewBox="0 -2048 2048 2048">
	<path fill="#000000" d="M1194 288Q1194 355 1132 355Q1126 355 1121.5 350Q1117 345 1108 345Q1101 345 1095 350Q1089 355 1082 355H886Q889 337 897 302Q1005 285 1014 282Q1080 259 1080 193Q1080 80 952 -252H846Q826 -218 795 -145Q788 -121 775 -21Q771 12 734 92Q687 196 681 213Q662 265 656 326Q655 333 640.5 344Q626 355 617 355Q611 355 605.5 350Q600 345 593 345Q592 345 581 355H339Q343 337 345 302Q400 293 455 285Q517 273 548 232Q575 196 600 103Q626 25 656 -130Q660 -203 685 -290Q705 -359 726 -428Q749 -512 793 -682Q796 -685 791 -690Q737 -628 580 -596Q462 -577 343 -558Q331 -539 300 -519Q349 -440 349 -427Q349 -397 306 -348Q276 -315 246 -281Q276 -245 333 -172L319 -159Q293 -184 227 -262L119 -154L100 -173L208 -281Q180 -316 153 -351Q116 -398 116 -419Q116 -439 135.5 -473.5Q155 -508 171 -520Q156 -529 129 -556Q111 -582 111 -620Q111 -682 176 -715Q131 -748 113 -784Q111 -788 111 -812Q111 -858 145.5 -898.5Q180 -939 227 -939Q247 -939 272 -926Q288 -917 305 -892Q322 -867 332 -859Q363 -836 409 -836Q395 -836 465 -845Q512 -850 603 -868Q620 -939 638 -1009Q665 -1091 729 -1142Q743 -1153 833 -1166Q835 -1178 842 -1206Q814 -1213 774 -1233Q774 -1255 770 -1287Q739 -1299 718 -1319Q717 -1332 719 -1354Q774 -1540 929 -1540Q1003 -1540 1055.5 -1495Q1108 -1450 1108 -1378Q1108 -1337 1074 -1276Q1042 -1223 1010 -1170Q1022 -1158 1038 -1155Q1047 -1154 1057 -1153Q1074 -1146 1088 -1119Q1100 -1096 1100 -1083Q1100 -1050 1091 -940Q1084 -845 1087 -790Q1088 -774 1122 -698Q1156 -622 1156 -587Q1156 -580 1126.5 -449Q1097 -318 1097 -311Q1097 -258 1133 -171Q1174 -73 1181 -21Q1183 -4 1179 109Q1176 178 1185 222Q1194 269 1194 288ZM1080 -1375Q1080 -1436 1036.5 -1474.5Q993 -1513 929 -1513Q845 -1513 788 -1439Q827 -1422 943 -1383Q970 -1410 978 -1410Q1026 -1410 1026 -1372Q1026 -1365 1007.5 -1330Q989 -1295 989 -1288V-1271Q1013 -1259 1024 -1259Q1049 -1259 1066 -1310Q1080 -1350 1080 -1375ZM1080 -1056Q1080 -1124 982 -1144Q980 -1150 980 -1157Q980 -1174 995 -1200Q1014 -1234 1015 -1236Q1006 -1233 989 -1240Q969 -1248 961 -1261Q974 -1303 993 -1382Q988 -1382 971.5 -1369Q955 -1356 950 -1356Q957 -1356 827 -1393Q836 -1365 828 -1340Q823 -1343 771 -1360V-1380Q787 -1399 820 -1397Q815 -1397 802.5 -1403.5Q790 -1410 783 -1410Q751 -1410 745 -1330Q761 -1322 792 -1303Q793 -1278 800 -1244Q824 -1239 870 -1227Q862 -1179 854 -1139Q826 -1141 785 -1130Q728 -1115 695 -1060Q676 -1028 653 -948.5Q630 -869 611 -837Q400 -815 414 -815Q388 -815 361 -824Q382 -792 388 -772Q454 -775 520 -779Q596 -784 644.5 -799.5Q693 -815 724 -885Q746 -939 767 -994Q771 -999 780 -999Q790 -999 794 -995Q794 -974 802 -966Q818 -996 856 -1053Q876 -1043 875 -1035Q868 -1024 705 -737Q694 -717 665 -707Q481 -641 428 -641Q417 -641 395 -652Q390 -642 360 -631Q330 -620 322 -600Q340 -582 363 -582Q357 -582 477 -607Q648 -643 679 -655Q789 -699 851 -810Q876 -859 922 -945Q931 -945 940 -936L832 -734L1058 -788Q1061 -836 1071 -949Q1080 -1051 1080 -1056ZM1129 -584Q1129 -629 1103 -677Q1073 -732 1068 -765Q915 -725 827 -698Q789 -556 713 -274H1074Q1071 -291 1071 -309Q1071 -355 1100 -446.5Q1129 -538 1129 -584ZM783 -937Q778 -942 769 -939Q747 -894 726 -849Q697 -797 665 -778Q645 -766 610 -765Q584 -765 558 -764Q450 -753 421 -748Q342 -736 290 -714Q294 -712 308 -695.5Q322 -679 330 -679Q336 -679 346.5 -682Q357 -685 363 -685Q370 -685 398.5 -676.5Q427 -668 433 -668Q457 -668 553 -692Q659 -718 674 -735Q702 -765 733 -830Q758 -883 783 -937ZM354 -756V-791Q331 -815 325 -815Q325 -815 295 -792V-767Q304 -750 325 -750Q333 -750 342.5 -753Q352 -756 354 -756ZM300 -859Q291 -912 227 -912Q191 -912 162 -879Q133 -846 133 -812Q133 -780 172 -752Q207 -728 233 -728Q258 -728 279 -740Q268 -768 268 -848Q294 -861 300 -859ZM1167 280Q1167 275 1160 226Q1153 177 1152 158Q1159 93 1154 -27Q1127 -103 1079 -250H978Q1014 -143 1051 -37Q1108 138 1108 204Q1108 263 1036 295Q983 310 929 326Q1051 326 1040 327Q1052 326 1074.5 319Q1097 312 1102 312Q1109 312 1118.5 320Q1128 328 1135 328Q1167 328 1167 280ZM317 -569Q309 -577 296 -591Q304 -611 309 -645Q293 -706 244 -706Q206 -706 171 -679Q133 -651 133 -617Q133 -576 176 -552Q211 -533 249 -533Q307 -533 317 -569ZM322 -430Q322 -462 294 -484Q266 -506 230 -506Q201 -506 194 -504Q178 -499 158 -467Q138 -435 138 -419Q138 -404 227 -300Q322 -395 322 -430ZM815 -250H702Q692 -189 672 -70Q663 -18 622 114Q592 210 572 242Q525 314 439 314Q410 314 371 327H568Q575 328 580.5 320Q586 312 593 312Q600 312 609 317Q618 322 619 322Q639 261 681 142Q705 89 729 35Q758 -36 762 -113Q764 -144 815 -250Z"/>
</svg>