<svg xmlns="http://www.w3.org/2000/svg" viewBox="25.6 -1595.4 1698.7 2007.7">
	<path fill="currentColor" d="M1650 266Q1650 326 1598 326Q1591 326 1583.5 318Q1576 310 1569 310Q1562 310 1560.5 315.5Q1559 321 1552 321H1330Q1330 295 1332.5 278.5Q1335 262 1335 264Q1426 258 1464 242Q1529 215 1529 147Q1529 90 1480 -70Q1475 -85 1436 -154Q1435 -168 1433 -192Q1428 -232 1405 -280H1322Q1259 -158 1236 -71Q1198 39 1130 245Q1133 261 1132 293Q1123 326 1085 326Q1079 326 1062.5 318Q1046 310 1040 310Q1033 310 1030.5 315Q1028 320 1021 320H819Q822 299 831 266Q836 264 914 250Q972 240 1004 215Q1042 186 1058 124Q1068 71 1078 18Q1092 -64 1125 -230Q1156 -325 1187 -421Q1245 -604 1245 -637Q1245 -672 1199 -718Q1160 -756 1120 -795Q1112 -795 1109 -791Q1067 -698 1054 -675Q1019 -610 981 -586Q955 -569 882 -569L606 -600Q580 -600 536 -580Q543 -556 543 -536Q543 -467 510 -419Q499 -403 448 -366Q441 -361 423 -343Q480 -320 521 -252Q554 -197 554 -169Q554 -117 474 -25Q453 -1 409 46Q390 66 356 108Q413 176 521 314L505 329Q464 289 331 132L125 338L100 313L304 109Q253 44 202 -22Q127 -119 127 -154Q127 -190 164.5 -255Q202 -320 236 -345Q226 -356 213 -366Q190 -381 151 -419Q118 -467 118 -536Q118 -649 249 -715Q154 -784 121 -851Q118 -857 118 -901Q118 -986 180 -1058Q245 -1134 330 -1134Q415 -1134 481 -1058Q543 -986 543 -901V-890Q644 -840 825 -795Q850 -881 904 -1036Q909 -1047 929.5 -1068Q950 -1089 950 -1095Q950 -1116 931 -1141Q893 -1143 883 -1146Q855 -1152 836 -1171Q842 -1186 842 -1198Q842 -1231 794 -1227Q787 -1234 787 -1245Q787 -1250 800.5 -1282.5Q814 -1315 817 -1330Q856 -1521 966 -1521Q1156 -1521 1156 -1348Q1156 -1240 1103 -1187Q1110 -1173 1118 -1159Q1164 -1148 1201 -1130Q1247 -1108 1290 -1031Q1357 -911 1414 -836Q1418 -831 1522 -730Q1588 -666 1587 -618L1556 -450L1589 -187Q1592 -164 1609 -105Q1624 -52 1624 -46V124Q1624 131 1637 195Q1650 259 1650 266ZM1129 -1342Q1129 -1495 982 -1495Q876 -1495 851 -1369Q880 -1366 938 -1357Q990 -1348 995 -1348Q1001 -1348 1018.5 -1363.5Q1036 -1379 1042 -1379Q1084 -1379 1084 -1345Q1084 -1334 1078.5 -1309Q1073 -1284 1073 -1273Q1073 -1248 1095 -1242Q1129 -1258 1129 -1342ZM1408 -797Q1376 -841 1304 -962Q1257 -1040 1243 -1060Q1200 -1118 1159 -1130Q1142 -1135 1107 -1138Q1077 -1175 1077 -1192Q1077 -1207 1092 -1220Q1088 -1219 1084 -1219Q1066 -1219 1052 -1238Q1040 -1253 1040 -1266Q1040 -1273 1050.5 -1300.5Q1061 -1328 1061 -1335Q1061 -1346 1054 -1353H1036Q1036 -1353 1015 -1316Q957 -1326 846 -1347Q841 -1331 830 -1298Q819 -1265 814 -1249Q834 -1249 867 -1238Q866 -1226 863.5 -1205.5Q861 -1185 861 -1175Q890 -1172 946 -1167Q977 -1098 977 -1087Q977 -1081 955 -1058.5Q933 -1036 930.5 -1029Q928 -1022 891 -897Q868 -816 836 -769Q674 -799 542 -864Q537 -835 512 -808Q526 -815 551 -815Q834 -690 877 -690Q884 -690 895.5 -693.5Q907 -697 910 -697Q936 -775 983 -907Q995 -939 1006 -970Q1022 -1006 1047 -1021L1056 -1013Q1012 -925 979 -822Q940 -705 925 -670Q870 -670 749 -661.5Q628 -653 632 -653Q609 -653 607 -654Q510 -700 475 -694Q475 -694 504 -665Q498 -655 482 -635Q500 -600 519 -600Q525 -600 558.5 -613.5Q592 -627 598 -627Q605 -627 642.5 -618Q680 -609 695 -607Q788 -595 853 -595Q954 -595 985.5 -624Q1017 -653 1090 -812Q1116 -868 1130 -907Q1133 -911 1141 -911L1150 -902Q1129 -850 1124 -822Q1186 -767 1205 -748Q1256 -698 1263 -674ZM1561 -611Q1561 -657 1516.5 -698Q1472 -739 1427 -779Q1385 -747 1342 -716Q1292 -677 1268 -641Q1259 -628 1258 -595Q1257 -556 1254 -546Q1215 -408 1172 -301H1550L1529 -448Q1561 -600 1561 -611ZM1624 271Q1624 258 1596 -35Q1581 -117 1555 -278H1440Q1443 -239 1457 -170Q1476 -142 1501 -92Q1556 95 1556 150Q1556 229 1481 265Q1424 293 1361 287L1542 295Q1547 295 1555.5 289.5Q1564 284 1571 284Q1578 284 1585.5 289.5Q1593 295 1600 295Q1624 295 1624 271ZM791 -681Q665 -726 549 -789Q534 -784 487 -779Q456 -747 412 -715Q430 -706 442 -698Q457 -714 504 -717Q522 -713 578 -695Q626 -679 632 -679Q807 -679 791 -681ZM514 -879Q461 -896 442 -892Q428 -889 428 -844Q428 -820 463 -802Q494 -823 501 -846ZM517 -904Q516 -972 461 -1034Q402 -1099 330 -1099Q257 -1099 199 -1032Q144 -969 144 -901Q144 -836 210 -782Q269 -733 319 -733Q376 -733 447 -787Q411 -810 403 -833Q398 -847 405 -869Q391 -876 391 -894Q391 -923 469 -921Q480 -919 500 -913ZM1287 -278H1167Q1149 -239 1120 -56Q1098 85 1094 99Q1063 213 999 246Q940 277 845 287L1001 300Q1030 290 1047 279Q1068 300 1079 300Q1097 300 1106 282Q1104 267 1104 245Q1124 199 1154 119Q1180 25 1220 -113Q1243 -169 1287 -278ZM517 -530Q517 -553 510 -576Q483 -582 468 -607Q463 -615 459 -649Q447 -656 434 -675Q385 -708 332 -708Q261 -708 202.5 -654Q144 -600 144 -530Q144 -395 334 -367Q517 -399 517 -530ZM519 -175Q519 -239 462 -285Q408 -328 336 -328Q281 -328 265 -323Q231 -313 191 -248Q153 -187 153 -154Q153 -122 330 84Q519 -105 519 -175ZM913 -1272Q882 -1273 846 -1272V-1294Q865 -1316 885 -1316Q900 -1316 913 -1288Z"/>
</svg>