<!-- Created with Inkscape (http://www.inkscape.org/) -->

<svg viewBox="-89.6 -89.6 1043.9 1043.9"
   version="1.0"
   xmlns="http://www.w3.org/2000/svg">
  <title>Aa1B</title>
  <g
     style="display:inline"
     transform="translate(-1.34375,-940)">
    <path
       style="color:#000000;display:inline;overflow:visible;visibility:visible;fill:currentColor;fill-opacity:1;fill-rule:nonzero;stroke:none;stroke-width:60;stroke-linecap:butt;stroke-linejoin:round;stroke-miterlimit:4;stroke-dasharray:none;stroke-dashoffset:0;stroke-opacity:1;marker:none"
       d="m 152.06958,1044.3088 c -180.842111,155.2428 -201.659369,428.8425 -46.41705,609.6841 155.24225,180.8415 428.81828,201.6801 609.66043,46.4375 C 896.1603,1545.1831 917.01638,1271.5911 761.77404,1090.7496 606.53166,909.90789 332.91692,889.06155 152.06958,1044.3088 Z m 39.08161,45.5261 c 89.21263,-76.584 204.05298,-103.61652 311.12759,-83.6056 L 61.410463,1384.6899 C 57.84233,1275.8245 101.94202,1166.416 191.15119,1089.8349 Z M 70.662979,1455.8226 571.18949,1026.1488 c 44.8138,17.7806 86.73251,44.5095 122.90702,79.9892 l -562.98266,483.2889 c -29.59183,-41.1306 -49.660856,-86.6161 -60.450871,-133.6043 z m 99.247941,179.3747 563.55174,-483.7775 c 30.02242,40.6191 50.64676,85.6173 62.06325,132.2201 l -504.32035,432.9306 c -44.33407,-18.3449 -85.69173,-45.5447 -121.29464,-81.3732 z m 189.25688,102.107 446.55909,-383.3458 c 5.43121,110.8572 -38.62227,222.9361 -129.49554,300.9457 -90.8674,78.0044 -208.31585,104.5607 -317.06355,82.4001 z" />
  </g>
</svg>