<svg xmlns="http://www.w3.org/2000/svg" viewBox="0 -1000 1000 1000">
	<path fill="currentColor" d="M281 0Q266 0 244.5 -2.5Q223 -5 202 -16.5Q181 -28 166.5 -55Q152 -82 150 -131H68V-11H49V-271H68V-151H150Q152 -198 167 -224.5Q182 -251 203 -262.5Q224 -274 245 -276.5Q266 -279 281 -279H972Q987 -279 1008 -276.5Q1029 -274 1050 -262.5Q1071 -251 1085.5 -224.5Q1100 -198 1102 -151H1185V-271H1204V-11H1185V-131H1102Q1101 -82 1086.5 -55Q1072 -28 1050.5 -16.5Q1029 -5 1008 -2.5Q987 0 972 0ZM281 -20H972Q985 -20 1003.5 -22Q1022 -24 1040.5 -34.5Q1059 -45 1071 -69.5Q1083 -94 1083 -139Q1083 -184 1071 -208.5Q1059 -233 1040.5 -244Q1022 -255 1003.5 -257Q985 -259 972 -259H281Q268 -259 249.5 -257Q231 -255 213 -244Q195 -233 182.5 -208.5Q170 -184 170 -139Q170 -94 182.5 -69.5Q195 -45 213 -34.5Q231 -24 249.5 -22Q268 -20 281 -20Z"/>
</svg>