<svg xmlns="http://www.w3.org/2000/svg" viewBox="0 -2048 2048 2048">
	<path fill="currentColor" d="M1616 -395H1508V352H100V273Q108 276 118 278Q178 278 245 260Q288 248 362 204Q446 153 454 122Q463 87 463 31Q463 46 452 -59Q443 -143 391 -367Q351 -539 351 -579Q351 -605 367 -634Q371 -642 397.5 -662.5Q424 -683 431 -683H1066Q1125 -737 1187 -850Q1203 -870 1229 -915Q1238 -938 1238 -1025Q1238 -1073 1188 -1084Q1144 -1087 1100 -1090Q1088 -1106 1059.5 -1162.5Q1031 -1219 1028 -1235Q1036 -1257 1065 -1293.5Q1094 -1330 1102 -1352Q1113 -1388 1146 -1457Q1212 -1553 1334 -1553Q1376 -1553 1444 -1534Q1538 -1508 1587 -1361Q1597 -1332 1601 -1315ZM1590 -420V-732Q1590 -857 1583 -1120Q1583 -1185 1578 -1313Q1577 -1321 1562 -1359Q1501 -1510 1391 -1523Q1333 -1530 1336 -1530Q1324 -1530 1301.5 -1524Q1279 -1518 1267 -1518Q1227 -1518 1183 -1464Q1149 -1421 1131 -1373L1324 -1369Q1377 -1368 1415 -1344Q1415 -1309 1404 -1278Q1350 -1238 1350 -1219V-420ZM1483 331V-394H1324V-1213Q1324 -1250 1383 -1288Q1389 -1303 1389 -1318V-1333Q1372 -1340 1347 -1347L1124 -1349Q1112 -1315 1070 -1259Q1054 -1238 1054 -1235Q1054 -1216 1111 -1112Q1168 -1103 1225 -1094Q1261 -1076 1261 -985Q1261 -934 1251 -906Q1234 -882 1202 -832Q1191 -807 1164 -760Q1132 -712 1075 -657H431Q427 -657 408 -641.5Q389 -626 386 -622Q377 -608 377 -580Q377 -525 419 -341Q442 -246 475 -54Q486 50 486 29Q486 101 476 129Q462 167 417 197Q415 198 335 242Q307 258 248 282Q241 284 126 298V331ZM1272 -1245Q1249 -1250 1204 -1263Q1187 -1270 1185 -1270Q1183 -1270 1160 -1255H1131Q1166 -1292 1185 -1292Q1195 -1292 1272 -1245Z"/>
</svg>