<svg xmlns="http://www.w3.org/2000/svg" viewBox="0 0 603 1000">
  <g transform="scale(1,-1) translate(0,-1000)">
    <path d="M127 949Q128 949 137.0 942.0Q146 935 148 935H149V938Q149 946 143.0 960.0Q137 974 137 980Q137 987 142.0 993.0Q147 999 151 999Q158 999 166.5 982.5Q175 966 186.0 940.0Q197 914 206 901Q218 884 234.0 863.5Q250 843 261.0 825.5Q272 808 286 780Q308 782 338.0 789.0Q368 796 378 797Q378 813 370.0 818.5Q362 824 347.0 828.0Q332 832 322 842Q302 862 302 888Q302 933 341.0 966.5Q380 1000 431 1000Q503 1000 512 955Q531 868 531 681Q531 667 517 667L486 668Q493 630 498 568V401Q498 386 493 373Q494 372 496.0 369.5Q498 367 499 366Q515 349 540.0 345.5Q565 342 580.5 340.0Q596 338 596 324V318H603V121H547V0H223V121H167V318H179Q175 325 175 332Q175 334 176 337V340Q177 351 181.0 356.0Q185 361 185 372Q185 386 212.5 406.5Q240 427 282.0 451.5Q324 476 337 486Q337 507 337.0 525.5Q337 544 337.5 557.5Q338 571 338.0 581.5Q338 592 338.0 599.0Q338 606 338.5 611.0Q339 616 339 618V620Q339 645 326 659Q313 674 313 685Q313 699 334.0 718.0Q355 737 356 739Q314 726 286 726Q261 726 250 737Q228 733 213.5 729.0Q199 725 194.0 723.0Q189 721 178.0 719.0Q167 717 148 717Q113 717 104 732Q0 914 0 942Q0 953 13.0 953.0Q26 953 37.0 931.5Q48 910 53 910Q55 910 55 917V925Q55 936 59 936Q64 936 68.5 922.0Q73 908 73 904Q68 894 68.0 884.0Q68 874 74 864Q91 835 107.5 817.5Q124 800 144 770Q166 772 191.0 778.5Q216 785 225 786Q212 807 173 882Q166 895 154.5 903.0Q143 911 142 912Q123 931 123 944Q127 949 127 949ZM573 288H197V151H223V234H547V151H573ZM253 204V30H517V204ZM372 910Q392 910 392.0 896.0Q392 882 372 882Q353 882 353.0 896.0Q353 910 372 910ZM501 797Q501 824 500.5 842.5Q500 861 498.0 877.5Q496 894 495.0 900.5Q494 907 490.0 925.0Q486 943 485 950Q480 972 431 972Q397 972 363 947Q385 949 394 949Q431 949 461 936Q476 930 476 912Q476 897 470.0 880.5Q464 864 456.5 851.0Q449 838 448 834L446 697L502 696Q501 725 501 797ZM470 523Q431 501 395.0 481.0Q359 461 337.5 449.5Q316 438 297.0 427.5Q278 417 268.0 411.5Q258 406 250.0 401.0Q242 396 238.0 393.0Q234 390 231.0 387.0Q228 384 224 380Q218 374 218 370Q218 368 221 368H223Q234 369 264.5 382.0Q295 395 321 395Q344 395 389.0 383.5Q434 372 448 372Q465 372 468.0 374.0Q471 376 472 388V421Q472 441 470 523ZM367 588V502Q378 506 416.5 528.0Q455 550 468 555Q468 605 457 669H431Q418 669 418 683L419 750Q416 749 392 746Q379 721 363.5 708.5Q348 696 341 685Q342 683 351.5 672.5Q361 662 366 652Q369 646 369 636Q369 633 368.5 627.0Q368 621 367.5 609.5Q367 598 367 588ZM329 365Q313 365 305.0 362.5Q297 360 278.5 354.0Q260 348 228 342H223Q210 342 202 346Q200 336 200 335Q200 331 213 331H229Q248 331 293.5 337.0Q339 343 372 343Q397 343 422.0 341.5Q447 340 474.0 337.0Q501 334 515 333Q509 335 500.5 336.5Q492 338 488.0 340.0Q484 342 479 347Q478 348 478 348Q478 350 477 350Q471 344 462 344Q454 344 410 350Q392 353 370.0 359.0Q348 365 329 365ZM448 911Q448 912 442.5 914.0Q437 916 424.0 918.5Q411 921 394 921Q388 921 380.5 920.5Q373 920 366.5 919.5Q360 919 355.0 918.5Q350 918 346 918L343 917Q340 917 338 918Q330 901 330 887Q330 874 344 860Q347 857 367.0 850.5Q387 844 396 831Q406 817 406 798Q414 798 419 797L420 837Q420 841 434.0 867.5Q448 894 448 911Z" fill="currentColor"/>
  </g>
</svg>