<svg xmlns="http://www.w3.org/2000/svg" viewBox="0 0 689 1000">
  <g transform="scale(1,-1) translate(0,-1000)">
    <path d="M174 924Q174 902 152.5 890.0Q131 878 129 875Q126 871 121.0 841.5Q116 812 106 802V446Q117 442 125 446Q150 458 169.5 473.0Q189 488 211.5 509.5Q234 531 251 544L301 700V702Q301 713 313 723L363 765Q371 771 377.0 774.0Q383 777 388.0 778.5Q393 780 395 781Q394 786 393.5 791.5Q393 797 393.0 800.5Q393 804 391.5 808.0Q390 812 387 816Q381 824 357.0 832.5Q333 841 322 859Q315 873 315 883Q315 904 332.0 941.0Q349 978 383 988Q421 1000 450 1000Q487 1000 513 979Q552 952 565.5 923.5Q579 895 588 842L619 659V655Q619 653 606 650L663 571V565Q671 526 674.0 508.5Q677 491 677.5 472.5Q678 454 679 443Q679 442 681.0 435.5Q683 429 684.5 422.5Q686 416 687.5 406.0Q689 396 689 387Q689 348 660 343Q639 343 639 405V417Q644 431 644 461L624 557L559 642Q546 640 543 638Q545 615 546.5 577.0Q548 539 550.5 511.0Q553 483 557 450Q584 245 584 169Q584 161 576 97Q578 91 578 67Q578 64 577.0 59.0Q576 54 576 41V33Q576 11 570.0 5.5Q564 0 551 0H463H459Q457 3 453.0 5.5Q449 8 446.5 10.5Q444 13 444.0 18.0Q444 23 471.5 35.0Q499 47 535 58Q535 62 534.5 68.5Q534 75 534 77Q534 84 541 135L409 108Q408 109 407 109Q405 109 401.5 108.5Q398 108 386.5 106.0Q375 104 359 102Q358 92 356.5 81.0Q355 70 353.0 57.5Q351 45 350 37V34Q350 12 343.5 6.0Q337 0 312 0Q306 0 285.5 0.5Q265 1 250 1H244Q217 1 217 19Q217 22 220.5 25.5Q224 29 229.5 32.0Q235 35 242.0 38.5Q249 42 257.5 45.0Q266 48 273.5 51.0Q281 54 289.0 56.5Q297 59 302.5 61.0Q308 63 312 64L316 65Q315 67 315.0 71.0Q315 75 316.0 83.5Q317 92 320.5 115.0Q324 138 327 162Q333 209 334.5 307.0Q336 405 350 472Q353 486 357.0 502.0Q361 518 362.5 526.0Q364 534 365.5 544.5Q367 555 367 567Q367 602 339 648L293 531Q280 505 273 500Q251 484 232.5 472.0Q214 460 184.0 443.0Q154 426 141 418Q134 413 122.5 404.5Q111 396 106 393V25Q106 17 100.0 11.0Q94 5 86.0 5.0Q78 5 72.0 11.0Q66 17 66 25V382Q56 387 56 400Q56 410 66 417V800Q55 808 52.5 844.0Q50 880 31 885Q0 894 0 924Q0 945 16.5 955.5Q33 966 87.0 966.0Q141 966 157.5 955.5Q174 945 174 924ZM350 702Q354 694 372.5 665.5Q391 637 399.0 615.0Q407 593 407 567Q407 550 405.5 534.5Q404 519 402.0 510.5Q400 502 396.0 487.0Q392 472 390 464Q376 400 375.0 303.5Q374 207 367 156L364 133L544 166V169Q544 237 517 444Q513 477 510.5 506.5Q508 536 506.5 573.0Q505 610 503 633L480 629H474Q461 629 460 641L468 790Q468 843 465.0 872.0Q462 901 459.5 907.5Q457 914 450 923Q440 928 430.0 931.0Q420 934 404.5 937.0Q389 940 380 942Q369 937 361.5 917.5Q354 898 354 886Q355 883 355 883Q355 882 356 881Q362 870 384.0 863.5Q406 857 419 840Q427 830 429.5 820.5Q432 811 433.0 799.0Q434 787 436 779Q436 778 436.5 776.5Q437 775 437 774Q437 764 428.0 756.0Q419 748 404.0 741.0Q389 734 387 733ZM474 941Q488 922 493.0 895.5Q498 869 498 790Q498 760 494 672L577 684L550 832Q548 840 543.0 856.0Q538 872 536.5 876.5Q535 881 531.0 892.0Q527 903 524.5 907.5Q522 912 517.0 920.0Q512 928 506.5 934.5Q501 941 494 948Q489 967 440 967Q424 967 412 962Q413 961 441.5 953.5Q470 946 474 941ZM397 917Q419 917 419 903Q419 887 399 887Q391 887 385.0 892.0Q379 897 379 904Q379 917 397 917ZM21 923Q27 917 38.5 913.5Q50 910 60 896Q69 883 72.0 859.5Q75 836 78 830Q79 828 79 825H86Q93 827 96 830Q99 836 101.5 859.5Q104 883 113 896Q123 910 134.5 913.0Q146 916 152 923Q152 928 127.5 933.5Q103 939 87 939Q74 939 58.0 936.0Q42 933 31.5 929.0Q21 925 21 923Z" fill="currentColor"/>
  </g>
</svg>