<svg xmlns="http://www.w3.org/2000/svg" viewBox="0 -2048 2048 2048">
	<path fill="currentColor" d="M1472 321Q1414 339 1393 339Q1386 339 1272 302Q1209 282 1145 273L562 355Q501 347 441 339Q345 315 345 246Q345 187 417 117Q485 60 552 3L391 -685L278 27H253Q251 13 258 -1Q237 -15 214 -15Q207 -15 196.5 -0.5Q186 14 178 17Q168 7 176 -23Q162 -32 143 -32Q129 -32 119 -5Q113 -11 100 -11V-30L378 -777Q391 -777 397 -783L577 -4Q640 -34 859 -123Q879 -188 900 -326Q922 -470 922 -546Q922 -568 920 -572Q910 -590 872 -640Q840 -681 840 -688Q840 -701 888 -782Q998 -968 998 -1047Q998 -1078 986 -1122Q982 -1123 931 -1129Q892 -1134 874.5 -1150Q857 -1166 839 -1207Q824 -1244 824 -1257Q824 -1263 843 -1297Q867 -1339 871 -1348Q890 -1396 909 -1445Q943 -1513 994 -1538Q1033 -1557 1085 -1557Q1250 -1557 1304 -1408Q1322 -1372 1345 -1304Q1346 -1258 1352 -1162L1373 -534Q1329 -537 1312 -537Q1277 -537 1271 -522Q1270 -518 1270 -462L1309 12Q1309 140 1265 178Q1280 180 1301 193Q1345 264 1383 272Q1406 273 1430 275Q1459 277 1472 297ZM1346 -555L1325 -1211Q1318 -1529 1091 -1529Q982 -1529 917 -1400Q1024 -1400 1131 -1386Q1167 -1381 1167 -1331Q1167 -1294 1124 -1267V-555ZM1270 -179L1243 -470Q1243 -476 1245.5 -500Q1248 -524 1248 -533H1096V-1270Q1145 -1318 1145 -1328Q1145 -1372 1009 -1372Q948 -1372 912 -1369Q857 -1293 857 -1263Q857 -1256 864 -1235Q872 -1211 874 -1200Q878 -1172 908 -1166Q949 -1160 1013 -1144Q1020 -1067 1020 -1056Q1020 -969 964 -864Q913 -776 862 -688Q890 -656 917 -624Q949 -584 949 -557Q949 -444 916.5 -291.5Q884 -139 884 -148V-125H903Q964 -141 1024 -157Q1106 -179 1167 -179Q1172 -179 1204.5 -176Q1237 -173 1252 -173ZM1281 12Q1281 -41 1270 -140Q1198 -152 1167 -152Q1122 -152 1011 -126Q829 -83 735 -50Q562 12 464 102Q474 109 533 167Q574 208 609 208Q604 208 700 170Q796 132 895 132Q942 132 1042.5 161.5Q1143 191 1178 191Q1281 191 1281 12ZM1418 309Q1383 312 1333 273Q1287 237 1274 203Q1242 219 1202 219Q1195 219 1052.5 186Q910 153 903 153Q785 153 646 221Q607 240 606 240Q608 240 547 190Q482 138 439 126Q372 197 372 246Q372 287 447 311Q503 328 557 328Q653 328 806 304Q925 285 1045 266Q1160 251 1148 251Q1199 251 1293 282Q1382 312 1418 309ZM353 -631L143 -61Q181 -52 262 -32ZM1014 -1288Q1008 -1279 1008 -1274Q981 -1274 959 -1277Q946 -1278 934 -1280Q934 -1282 930.5 -1287.5Q927 -1293 927 -1301Q927 -1323 960 -1323Q979 -1323 1014 -1288Z"/>
</svg>