<svg xmlns="http://www.w3.org/2000/svg" viewBox="0 -2048 2048 2048">
	<path fill="#000000" d="M1640 323Q1628 330 1601 330Q1554 330 1468 283.5Q1382 237 1333 237Q1322 237 1311 239L647 330Q565 332 508 261Q508 261 510 329H101V257Q134 266 169 257Q100 177 100 109Q100 34 165 -30Q193 -44 240 -71Q248 -76 313 -158L309 -161H266Q266 -163 263 -174Q260 -185 260 -191Q304 -213 329 -235Q333 -240 321 -240Q314 -240 253 -192.5Q192 -145 185 -145Q178 -145 166 -154Q150 -166 148 -167Q168 -235 331 -311Q353 -321 495 -446Q521 -467 546 -488Q579 -515 589 -538Q591 -565 597 -617Q613 -728 628 -839Q654 -965 724 -1001Q714 -1021 694 -1051Q608 -1008 596 -1008Q576 -1008 475 -1111Q480 -1138 482 -1187Q480 -1212 466 -1261Q452 -1310 452 -1315Q452 -1316 471 -1391Q490 -1466 528 -1486Q611 -1531 679 -1531Q773 -1531 845 -1486Q900 -1452 938 -1380Q1033 -1211 1219 -871Q1181 -862 1124 -824Q1236 -549 1263 -489Q1345 -311 1457 -143Q1466 -129 1479 -84Q1492 -39 1492 -27Q1492 4 1469 60Q1445 120 1422 136Q1436 145 1462 166Q1477 195 1522 244Q1554 265 1640 288ZM1188 -888Q1094 -1048 917 -1369Q883 -1435 834 -1464Q766 -1504 676 -1504Q543 -1504 517 -1439Q479 -1344 479 -1318Q479 -1297 491 -1254Q491 -1254 599 -1310Q694 -1360 708 -1360Q745 -1360 770 -1298Q765 -1268 763 -1229Q799 -1140 870 -1010Q983 -802 987 -795Q1099 -842 1188 -888ZM1406 -178Q1243 -414 1105 -810Q1102 -815 1094 -816Q1062 -802 1024 -772Q1014 -744 978 -548Q965 -479 946 -431Q932 -409 932 -408Q1017 -196 1017 -163Q1017 -139 1012 -130ZM995 -744V-762Q990 -762 983 -758L734 -1234Q745 -1244 745 -1274Q745 -1334 705 -1334Q696 -1334 608 -1285Q520 -1236 500 -1220V-1111Q512 -1103 558 -1065Q593 -1035 601 -1035Q608 -1035 704 -1083Q743 -1025 756 -985Q723 -969 683 -932Q659 -857 634 -681Q611 -522 600 -500Q569 -440 488 -384Q417 -340 346 -295Q313 -283 256 -254Q210 -223 181 -172Q192 -186 237 -221Q294 -267 324 -267Q338 -267 361 -232Q354 -220 344 -204Q393 -261 459 -306Q514 -342 568 -378Q624 -418 711 -497Q735 -528 735 -579Q735 -586 721.5 -605.5Q708 -625 708 -632Q708 -640 718.5 -689Q729 -738 729 -744Q729 -741 722 -775Q717 -799 727 -811H741Q756 -752 756 -747Q756 -740 745.5 -699Q735 -658 735 -651Q735 -629 768 -600Q798 -574 824 -566Q847 -741 883 -886H900Q893 -843 845 -537Q835 -472 760 -409Q702 -366 645 -323Q542 -237 480 -204Q436 -187 392 -170Q338 -148 311 -108Q386 -166 417 -166Q435 -166 450 -141Q453 -123 445 -97Q488 -152 569 -199Q633 -235 696 -271Q748 -301 800 -331Q867 -370 897 -407Q927 -444 941 -496Q950 -540 960 -584Q996 -725 995 -744ZM1592 305V296H1578V305ZM1465 -25Q1465 -91 1421 -150Q922 -128 607 61Q732 154 732 154Q723 154 834 130Q945 106 1001 106Q1075 106 1213.5 135.5Q1352 165 1348 165Q1371 165 1413 109Q1454 56 1458 29Q1465 -22 1465 -25ZM819 -543Q787 -551 757 -571Q753 -533 739 -485Q684 -429 565 -341Q411 -227 383 -204H406Q442 -203 614 -331Q772 -448 785 -465Q807 -493 819 -543ZM1577 296Q1542 285 1477 226Q1416 170 1412 170Q1406 170 1383 178Q1360 186 1348 186L1012 127Q913 146 712 181Q708 171 650 125Q592 79 583 79Q560 79 534 134Q511 181 511 197Q511 238 552 271Q590 303 639 309L1297 213Q1347 212 1437 245Q1573 295 1577 296ZM996 -158Q996 -204 919 -384Q843 -328 697 -243Q524 -143 522 -142Q507 -132 478 -98Q453 -68 429 -59Q409 -105 409 -97Q409 -103 414 -115.5Q419 -128 419 -133H395Q361 -118 324 -82Q390 -72 444 -8Q495 52 495 106Q495 157 461 219Q455 231 425 259H505Q487 232 487 200Q487 140 552 75Q609 20 680 -9Q796 -56 866 -79Q904 -94 977 -120Q996 -144 996 -158ZM468 101Q468 47 419 -4Q367 -59 305 -59Q300 -59 288 -50Q274 -53 251 -52Q127 2 127 111Q127 215 222 251Q137 211 137 106Q137 49 184.5 3Q232 -43 297 -43Q345 -43 397 1Q457 50 457 114Q457 160 429 198Q414 216 394 244Q423 227 445.5 183.5Q468 140 468 101ZM431 114Q431 84 428 76Q416 43 377 14Q335 -17 295 -17Q164 -17 164 111Q164 156 198 195Q235 239 292 239Q344 239 384 208Q431 173 431 114ZM483 308V288H389V308ZM222 308V288H127V308ZM638 -1196Q623 -1186 577 -1163Q572 -1167 565.5 -1171.5Q559 -1176 559 -1184Q559 -1232 601 -1232Q621 -1232 638 -1215Z"/>
</svg>