<svg xmlns="http://www.w3.org/2000/svg" viewBox="0 0 863 1000">
  <g transform="scale(1,-1) translate(0,-1000)">
    <path d="M164 462Q239 573 248 600Q252 611 252 619Q252 634 241.0 643.5Q230 653 217 653Q208 653 203 649Q180 634 165.5 616.0Q151 598 132.5 569.0Q114 540 93 516ZM660 564Q660 542 661.5 513.5Q663 485 664 464L666 444Q666 436 662.5 433.0Q659 430 644 425Q582 403 491 403H481Q416 403 381.5 397.5Q347 392 340.0 386.5Q333 381 329 369Q314 328 300.5 240.0Q287 152 259 97Q248 77 227.5 66.0Q207 55 184.5 48.0Q162 41 154 34H273L375 316L371 344H720Q758 357 765 364Q780 379 780 420Q780 422 776.5 467.0Q773 512 769.0 562.0Q765 612 763 622L734 623Q719 623 719 639L721 814Q721 819 737.0 849.5Q753 880 753 899Q753 900 747.0 902.5Q741 905 725.5 907.5Q710 910 691 910Q684 910 675.5 909.5Q667 909 660.0 908.5Q653 908 647.0 907.5Q641 907 637 906H633Q629 906 627 907Q619 886 619 871Q619 854 634 840Q637 837 660.5 829.5Q684 822 694 808Q706 790 706 768Q706 744 687 706Q673 679 656.0 665.5Q639 652 631 640Q632 638 640.5 628.5Q649 619 655.0 610.0Q661 601 661 595Q661 594 660.5 584.5Q660 575 660 564ZM814 769Q814 807 812.0 835.0Q810 863 809.0 873.0Q808 883 802.5 908.5Q797 934 795 943Q790 969 734 969Q695 969 656 940Q680 942 691 942Q734 942 768 928Q785 920 785 899Q785 867 763 831Q757 821 753 811L751 654L815 653Q814 669 814 769ZM651.5 869.5Q644 874 644.0 881.0Q644 888 651.5 892.5Q659 897 667.0 897.0Q675 897 682.0 892.5Q689 888 689.0 881.0Q689 874 682.0 869.5Q675 865 667.0 865.0Q659 865 651.5 869.5ZM758 30Q747 32 729.5 42.0Q712 52 706 52Q693 52 693 35V30ZM798 46Q794 34 776 30H797Q798 32 798.0 38.0Q798 44 798 46ZM369 52Q354 52 354 35V29H419Q411 32 393.5 42.0Q376 52 369 52ZM800 62Q804 101 808.0 130.5Q812 160 814.0 174.5Q816 189 817.5 198.0Q819 207 820 210V212Q820 220 810.5 228.0Q801 236 789.0 242.0Q777 248 767.5 259.0Q758 270 758 283Q758 295 765.0 306.0Q772 317 786 317H788Q799 317 833 293V339L771 314H405L449 29H463Q463 29 463.5 45.5Q464 62 464.5 80.0Q465 98 465 102Q465 146 438 302H736Q741 283 743 264Q744 248 747.5 239.5Q751 231 754.5 227.5Q758 224 768 217Q797 197 797 175Q797 82 800 62ZM850 212Q850 212 836.5 109.0Q823 6 823 0H667Q663 27 663 35Q663 58 676.5 70.0Q690 82 706 82Q720 82 741.0 70.5Q762 59 768 59H770Q767 65 767 174Q767 181 750.5 192.5Q734 204 728 213Q720 224 718.0 231.5Q716 239 712 272H474Q495 146 495 102Q495 102 494.5 81.5Q494 61 493.5 39.0Q493 17 493 14V0H326Q324 36 324 36Q324 49 329.0 58.5Q334 68 339.5 72.0Q345 76 353.0 78.5Q361 81 364.0 81.5Q367 82 369 82Q383 82 413 65L386 245L297 0H107L110 19Q113 44 129.0 59.0Q145 74 163.5 78.5Q182 83 201.0 91.5Q220 100 227 113Q253 164 267.0 250.0Q281 336 297 381Q306 412 341.0 424.5Q376 437 417.5 436.5Q459 436 517.5 439.0Q576 442 617 454Q604 476 586.0 513.0Q568 550 551.5 576.0Q535 602 510 627Q468 670 441.5 687.0Q415 704 375 704Q345 704 325.0 693.0Q305 682 276 656Q288 642 288 618Q288 578 231 506Q214 486 199 462L202 390L0 541L75 549Q87 564 110.0 599.0Q133 634 150 651Q187 688 215 688Q233 688 248 678Q271 698 285.0 708.5Q299 719 323.5 728.5Q348 738 375 738Q410 738 441.0 724.5Q472 711 489.5 695.5Q507 680 536 651Q578 608 616 530Q620 521 630 503Q627 572 625.0 586.5Q623 601 614 610Q599 627 599 640Q599 650 606 660Q619 677 633.0 687.0Q647 697 659 721Q659 722 662.0 727.5Q665 733 667.5 738.5Q670 744 672.0 752.0Q674 760 674 768Q674 786 665.0 792.5Q656 799 638.5 803.5Q621 808 609 820Q587 842 587 872Q587 923 631.5 961.5Q676 1000 734 1000Q816 1000 826 949Q834 907 837.5 882.0Q841 857 844.5 795.0Q848 733 848 636Q848 620 832 620L796 621Q813 527 813 426Q813 387 802 359L863 383V246Q831 257 808 274Q791 286 788 287Q787 285 787 284Q787 279 802.5 270.5Q818 262 834.0 247.0Q850 232 850 212Z" fill="currentColor"/>
  </g>
</svg>