<svg xmlns="http://www.w3.org/2000/svg" viewBox="0 -2048 2048 2048">
	<path fill="#000000" d="M1361 -358L1347 -345Q1306 -380 1292 -411Q1288 -420 1288 -435Q1288 -450 1293.5 -489Q1299 -528 1299 -547Q1299 -614 1245 -614Q1183 -614 1182 -520V350H548V-275Q533 -260 527 -239Q529 -231 529 -212Q496 -74 430 208Q435 240 437 305Q436 323 414.5 336.5Q393 350 375 350Q369 350 353.5 345Q338 340 331 340Q324 340 273.5 345Q223 350 216 350Q151 350 107 345L100 338V297Q115 287 223 254Q300 230 313 180Q321 104 338 -46Q358 -228 392 -391Q401 -434 435 -450Q492 -477 732 -515Q766 -519 834 -540Q845 -545 860 -574V-588L598 -603Q559 -603 541 -581Q525 -555 509 -528H472Q467 -549 454 -583Q451 -588 433 -606Q418 -620 418 -628Q418 -641 435 -709Q442 -712 453 -720Q463 -887 472 -1085Q446 -1095 405 -1165Q390 -1185 364 -1221Q466 -1250 480 -1250Q486 -1250 543 -1238Q606 -1225 633 -1222V-1203Q598 -1163 520 -1085Q520 -1073 525.5 -1037Q531 -1001 531 -995V-710Q570 -689 609 -689Q576 -689 872 -712Q886 -729 886 -768Q886 -785 885 -788Q882 -795 856 -845Q833 -889 833 -897Q833 -921 892 -991Q961 -1072 966 -1081Q967 -1096 973 -1128Q954 -1143 915 -1144Q910 -1156 878 -1215Q854 -1261 854 -1269Q854 -1276 890 -1356Q904 -1389 937 -1453Q954 -1481 979 -1495Q1058 -1541 1099 -1541Q1095 -1541 1148 -1526Q1302 -1482 1301 -1296V-868H1181V-603Q1208 -641 1250 -641Q1317 -641 1317 -545Q1317 -524 1314 -489Q1311 -454 1311 -445Q1311 -434 1313 -429Q1324 -407 1361 -358ZM1279 -895V-1215Q1283 -1292 1267 -1372Q1255 -1432 1194 -1476Q1141 -1514 1097 -1514Q1054 -1514 999 -1474.5Q944 -1435 936 -1390H1093Q1106 -1389 1125 -1378Q1150 -1364 1150 -1344Q1150 -1326 1134.5 -1303Q1119 -1280 1103 -1276V-895ZM1123 -1336Q1123 -1364 1032 -1369Q1051 -1368 925 -1368Q876 -1270 876 -1274Q876 -1267 899 -1226Q926 -1180 931 -1164Q972 -1164 1000 -1149Q995 -1126 987 -1064Q986 -1059 922.5 -989Q859 -919 859 -900Q859 -895 881 -857.5Q903 -820 906 -805Q916 -759 904 -711L1003 -905Q1014 -899 1027 -901Q994 -823 931 -690L587 -663Q578 -663 559 -671Q540 -679 534 -679Q507 -679 468 -660Q457 -655 445 -627Q462 -609 498 -609Q505 -609 544.5 -619.5Q584 -630 590 -630L787 -614Q863 -614 977 -627Q1072 -759 1107 -866Q1085 -866 1080 -871V-1289Q1093 -1300 1106 -1310Q1123 -1324 1123 -1336ZM595 -1205Q515 -1228 482 -1228Q484 -1228 412 -1210Q417 -1203 444 -1138Q458 -1104 490 -1104Q516 -1104 545 -1138Q570 -1172 595 -1205ZM499 -696V-1040Q479 -766 487 -696ZM503 -581H483Q486 -569 493 -555Q503 -562 503 -581ZM1160 -103V-366Q1147 -344 1135 -328Q1110 -296 1093 -296H634V323H813V-103ZM1161 -479Q1161 -486 1155.5 -513Q1150 -540 1150 -546V-866H1126Q1131 -865 1134 -858Q1101 -792 1028 -661Q1014 -635 990 -604Q974 -596 935 -594Q882 -591 881 -591Q884 -580 878 -555Q872 -527 861 -524Q791 -502 627.5 -469Q464 -436 457 -434Q425 -424 415 -381Q410 -348 405 -316Q370 -158 356 51Q348 168 335 201Q313 255 244 279Q189 292 134 304Q128 308 128 323Q143 323 172 326Q201 329 205 329Q212 329 269.5 321Q327 313 334 313Q340 313 354 321Q368 329 375 329Q388 329 410 299Q409 291 403 254Q399 229 403 219Q427 150 462 -24Q505 -235 511 -260Q516 -281 561 -323H1095Q1161 -379 1161 -479ZM1160 323V-26H887V323ZM1160 -54V-74H833V323H861V-54ZM611 323V-295H580V323ZM1016 -1307L1009 -1282H953L946 -1289V-1314Q968 -1336 983 -1336Q1000 -1336 1016 -1307Z"/>
</svg>