<svg xmlns="http://www.w3.org/2000/svg" viewBox="0 -2048 2048 2048">
	<path fill="currentColor" d="M1408 -347Q1404 -346 1398 -344Q1380 -344 1356 -384Q1333 -421 1333 -441Q1333 -460 1338.5 -496.5Q1344 -533 1344 -552Q1344 -607 1291 -607Q1264 -607 1245 -565Q1229 -530 1229 -498V364H572V-276Q548 -259 548 -222Q548 -63 466 178Q440 254 440 247Q440 257 446 276Q452 295 452 305Q452 366 381 366Q372 366 359 358.5Q346 351 343 351Q337 351 320.5 358Q304 365 297 365H100Q104 345 112 304Q233 276 236 275Q310 249 328 199Q331 163 336 103Q354 -104 395 -359Q411 -460 496 -466Q399 -543 336 -642Q263 -758 263 -865Q263 -940 284 -992Q288 -1002 305 -1022Q377 -1108 460 -1131Q529 -1150 551 -1150Q602 -1150 661 -1114Q720 -1078 737 -1032Q744 -1013 744 -971Q744 -820 597 -820Q465 -820 465 -951Q465 -977 484 -998Q503 -1019 529 -1019Q573 -1019 589 -995V-962Q558 -978 542 -978Q512 -978 512 -941Q512 -858 608 -858Q698 -858 698 -980Q698 -1036 644 -1071Q597 -1101 538 -1101Q470 -1101 414 -1070Q405 -1061 386 -1043Q305 -976 305 -916Q305 -785 364 -681Q400 -617 473 -546Q534 -488 535 -472L534 -471H548Q578 -471 730.5 -502.5Q883 -534 896 -545Q900 -549 910 -649Q919 -744 919 -767Q919 -807 892 -843Q865 -879 865 -899Q865 -944 927 -1004Q995 -1071 1001 -1088Q1008 -1109 1008 -1145Q983 -1153 941 -1158Q932 -1208 914 -1233Q882 -1276 882 -1283Q882 -1298 898 -1318Q918 -1343 921 -1350Q930 -1384 952 -1449Q970 -1493 1026 -1525Q1079 -1556 1128 -1556Q1186 -1556 1241.5 -1522.5Q1297 -1489 1321 -1438Q1337 -1404 1337 -1333V-876H1229V-597Q1259 -638 1303 -638Q1327 -638 1348.5 -619Q1370 -600 1370 -576Q1370 -558 1364.5 -521Q1359 -484 1359 -466Q1359 -418 1408 -347ZM1314 -899V-1339Q1314 -1402 1299 -1431Q1248 -1530 1129 -1530Q997 -1530 964 -1407L1133 -1404Q1188 -1403 1188 -1355Q1188 -1313 1140 -1290V-899ZM1208 -576Q1208 -720 1201 -876H1115L1118 -1292Q1118 -1301 1142 -1319Q1166 -1337 1166 -1355Q1166 -1381 1132 -1381L955 -1383Q952 -1366 939 -1335Q908 -1286 908 -1285Q908 -1285 909 -1275Q935 -1243 942 -1230Q955 -1208 959 -1177Q990 -1173 1031 -1162Q1031 -1129 1020 -1074Q1018 -1069 987 -1040Q905 -963 893 -933Q890 -925 890 -913Q890 -882 906.5 -859Q923 -836 941 -813V-740Q941 -640 922 -551Q918 -530 905 -524Q853 -498 709 -473Q605 -458 501 -442Q489 -441 467 -435Q426 -418 417 -358Q403 -248 374 -27Q368 14 359 95Q358 143 347 213Q314 290 130 320L128 342H298Q306 342 321.5 335Q337 328 346 328Q351 328 365.5 335.5Q380 343 393 343Q429 343 429 303Q429 294 423.5 275.5Q418 257 418 248Q418 253 443 174Q488 31 518 -174Q518 -198 523 -246Q527 -266 547.5 -286.5Q568 -307 587 -307L1057 -313Q1103 -314 1120 -316Q1159 -323 1171 -345Q1208 -416 1208 -576ZM517 -467L516 -468L515 -467ZM1203 -93V-362Q1189 -311 1138 -297Q1112 -290 1040 -290H658V342H842V-93ZM1204 342V-15H918V342ZM1204 -42V-66H864V342H891V-42ZM632 342V-284H599V342ZM1061 -1302L989 -1298Q978 -1297 978 -1312Q978 -1345 1028 -1345Q1041 -1345 1061 -1302Z"/>
</svg>