<svg xmlns="http://www.w3.org/2000/svg" viewBox="0 -2048 2048 2048">
	<path fill="#000000" d="M1126 -797L1040 -509Q1072 -405 1072 -410Q1072 -382 1050 -316Q1042 -316 1028 -319Q1014 -322 1009 -322Q1009 -323 1010 -380Q1011 -417 999 -434Q992 -423 978 -402Q962 -399 933 -392V-452Q933 -457 944.5 -474Q956 -491 957 -501Q955 -539 961 -615Q1002 -803 1002 -791Q1002 -820 940 -918Q937 -915 937 -891H802Q798 -880 798 -842Q798 -773 827.5 -689Q857 -605 857 -595Q857 -595 820 -496V-367L804 -189V263Q804 268 817 291Q830 314 830 324Q830 345 807 360Q789 372 777 372Q769 372 755.5 364Q742 356 736 356Q729 356 677 364Q625 372 618 372Q581 372 557 366Q557 338 558 340Q510 372 500 372Q488 372 475.5 364Q463 356 457 356Q450 356 435 364Q420 372 413 372H278V314Q314 310 350 307Q391 299 421 266Q433 252 448 177Q460 111 460 89V-50L551 -699Q549 -701 542 -706Q459 -711 306 -736Q292 -740 281 -764Q271 -784 271 -799Q271 -853 476 -1093L334 -1342L254 -773Q251 -773 244.5 -775.5Q238 -778 235 -778Q232 -792 239 -807Q238 -809 200 -821Q193 -806 190 -784H164Q167 -796 175 -818Q174 -820 150 -832H136Q130 -821 119 -799Q118 -800 117 -801Q110 -806 100 -806L322 -1417L495 -1111Q510 -1133 545 -1149Q577 -1163 596 -1161Q603 -1162 614 -1169Q615 -1181 621 -1204Q609 -1213 575 -1225Q540 -1303 540 -1318Q540 -1318 612 -1448Q636 -1492 698 -1507Q727 -1514 739 -1514Q878 -1514 913 -1347Q923 -1239 934 -1131Q954 -1110 1011 -1024Q1072 -919 1079 -906Q1114 -841 1126 -797ZM911 -913V-1179Q911 -1266 877 -1394Q865 -1439 835 -1463Q805 -1487 739 -1487Q669 -1487 621 -1408Q693 -1408 700 -1407Q771 -1396 771 -1348Q771 -1323 740 -1298V-913ZM1099 -802Q1099 -848 934 -1084Q933 -1038 945 -957Q957 -926 995 -865Q1029 -810 1029 -805Q1029 -799 1014 -740Q997 -675 993 -652Q989 -626 982 -501Q982 -493 972 -466Q962 -439 962 -429Q968 -440 980 -461Q992 -461 1014 -454Q1028 -440 1031 -416Q1037 -378 1038 -375Q1038 -380 1041.5 -393Q1045 -406 1045 -412Q1045 -420 1031.5 -460.5Q1018 -501 1018 -507Q1018 -514 1058.5 -654.5Q1099 -795 1099 -802ZM636 -795Q604 -868 553 -944Q519 -876 519 -883Q519 -869 549.5 -846Q580 -823 578 -795ZM739 -714V-740Q696 -767 696 -767Q689 -767 680 -761.5Q671 -756 664 -756Q658 -756 653 -764.5Q648 -773 642 -773Q635 -773 618 -770Q601 -767 594 -767Q562 -767 560 -768Q497 -796 393 -801Q391 -804 384 -813Q540 -969 540 -974Q540 -988 484 -1063Q460 -1038 384 -938Q293 -820 293 -799Q298 -781 333 -758Q433 -746 629 -722Q644 -720 675.5 -708.5Q707 -697 712 -697Q722 -697 739 -714ZM551 -806Q488 -877 491 -885L427 -823Q446 -820 489 -814.5Q532 -809 551 -806ZM830 -587Q830 -621 808 -677Q783 -742 783 -743Q769 -813 770 -890Q727 -890 712 -895V-1311Q744 -1333 744 -1350Q744 -1380 664 -1380Q620 -1380 606 -1377Q567 -1331 567 -1315Q567 -1275 600 -1242Q616 -1237 648 -1220Q642 -1194 635 -1147Q629 -1145 617 -1139Q540 -1129 508 -1087L665 -805Q710 -816 723 -811Q723 -786 744.5 -763.5Q766 -741 766 -721Q766 -686 734 -680Q749 -651 761 -641Q751 -631 751 -627Q733 -646 700 -673Q642 -703 617 -702H579L486 -66V148H782V-249Q782 -255 787.5 -285.5Q793 -316 793 -323V-502Q793 -501 811.5 -532Q830 -563 830 -587ZM291 -1261L143 -860Q166 -853 238 -838ZM803 327Q777 266 781 180H713Q732 269 687 296Q673 305 624 322Q590 335 589 345H693Q699 345 716 337Q733 329 739 329Q746 329 760 337Q774 345 779 345Q785 345 803 327ZM696 227Q696 215 684 179H579Q556 236 556 267Q556 294 563 307H585Q630 308 682 264Q696 252 696 227ZM550 180H476Q475 252 421 298Q375 338 318 338Q308 338 298 336Q328 351 352 351Q363 351 409 344Q417 343 436 333.5Q455 324 460 324Q467 324 480 334.5Q493 345 500 345Q521 345 527 327Q528 305 531.5 261.5Q535 218 550 180ZM664 -1346Q664 -1337 660.5 -1329.5Q657 -1322 657 -1321Q636 -1325 599 -1339Q611 -1364 634 -1364Q646 -1364 664 -1346Z"/>
</svg>