<svg xmlns="http://www.w3.org/2000/svg" viewBox="0 -2048 2048 2048">
	<path fill="#000000" d="M1366 -870Q1343 -872 1311 -868Q1284 -752 1284 -715Q1284 -709 1295 -640.5Q1306 -572 1306 -565Q1306 -562 1286 -493Q1265 -421 1263 -391Q1266 -336 1265 -225Q1264 -210 1260 -167Q1256 -128 1256 -120Q1256 -125 1259.5 3.5Q1263 132 1263 196Q1263 213 1271 272.5Q1279 332 1279 337Q1279 387 1237 387Q1230 387 1216.5 378.5Q1203 370 1196 370Q1189 370 1186 378Q1183 386 1176 386H997Q997 373 994 370Q979 387 952 387Q927 387 904 364Q902 364 893.5 372.5Q885 381 877 381H698V316Q754 305 809 294Q874 271 889 212Q908 137 908 -37Q908 -45 900 -74Q892 -103 893 -118Q904 -170 921 -278Q897 -248 778.5 -202Q660 -156 606 -156H565Q565 -159 562 -165.5Q559 -172 559 -173L1002 -831Q997 -864 971 -864Q966 -864 925 -851Q879 -836 856 -832Q583 -787 473 -787Q369 -787 268 -809Q139 -838 100 -890L1058 -1178V-1203Q1051 -1207 993 -1226Q990 -1239 970 -1278Q952 -1314 952 -1321Q952 -1327 967 -1352Q985 -1382 989 -1393Q1048 -1550 1157 -1550Q1277 -1550 1321 -1471Q1356 -1409 1362 -1243ZM1334 -895V-1332Q1334 -1407 1292 -1462Q1242 -1528 1151 -1528Q1115 -1528 1073 -1492Q1031 -1456 1030 -1424Q1034 -1423 1042 -1423Q1049 -1423 1069.5 -1424Q1090 -1425 1102 -1425Q1201 -1425 1201 -1357Q1201 -1306 1163 -1306V-895ZM1173 -1348V-1377Q1134 -1401 1063 -1401Q1037 -1401 1025 -1398Q980 -1344 980 -1323Q980 -1320 997 -1291.5Q1014 -1263 1014 -1241Q1062 -1233 1085 -1220V-1161L144 -884Q263 -814 435 -814Q537 -814 719 -838Q912 -864 958 -888Q947 -911 924 -950Q971 -1016 984 -1058H998L1008 -1049Q1003 -1033 979 -989Q958 -951 958 -944Q958 -945 1027 -853L1121 -991Q1127 -988 1139 -980V-1319Q1166 -1332 1173 -1348ZM1278 -838V-872H1139V-964L604 -185Q625 -190 656 -192Q809 -201 1026 -402Q1249 -610 1263 -778Q1264 -789 1271 -811Q1278 -833 1278 -838ZM1279 -560Q1279 -581 1265 -665Q1256 -629 1227 -592Q1180 -532 1059 -406Q956 -297 948 -281Q916 -211 919 -113L933 -33L919 159H1239V-21Q1232 -67 1230 -158Q1245 -291 1243 -319Q1238 -395 1241 -413Q1245 -436 1263 -490Q1279 -536 1279 -560ZM1256 352Q1245 240 1239 188H1169Q1184 248 1182 262Q1176 306 1116 324Q1070 338 1024 351L1154 359Q1154 359 1198 337Q1220 359 1240 359Q1249 359 1256 352ZM1157 251Q1157 242 1139 188H1014Q991 257 991 295Q991 302 994.5 317Q998 332 998 337Q1015 324 1061.5 313.5Q1108 303 1128 291Q1157 274 1157 251ZM980 195L973 188H920Q891 322 720 344Q728 359 856 359Q885 352 916 331Q944 359 952 359Q966 359 974 351Q963 314 980 195ZM1096 -1355Q1096 -1345 1092.5 -1337.5Q1089 -1330 1089 -1329Q1066 -1337 1036 -1335Q1036 -1353 1024 -1353Q1040 -1367 1048 -1384Q1064 -1378 1096 -1355Z"/>
</svg>