<svg xmlns="http://www.w3.org/2000/svg" viewBox="22.8 -1628.2 1476.3 2083.3">
	<path fill="currentColor" d="M450 -813V-775Q474 -787 488 -803Q475 -804 450 -813ZM392 -734V-641H319V-772H242V-641H169V-772H100V-845H169V-966H242V-845H319V-966H392V-845H446L453 -852Q484 -852 568 -829L801 -861Q808 -862 815 -862Q825 -862 845 -860.5Q865 -859 875 -859Q947 -1009 950 -1015Q1008 -1125 1046 -1147Q1084 -1169 1151 -1175Q1149 -1205 1149 -1224Q1134 -1226 1103 -1231Q1101 -1250 1089 -1283Q1087 -1286 1068 -1300Q1053 -1310 1053 -1319Q1053 -1324 1074 -1354Q1086 -1371 1100 -1429Q1112 -1479 1136 -1498Q1203 -1551 1273 -1551Q1321 -1551 1355 -1524Q1396 -1491 1406 -1450Q1410 -1434 1412 -1360L1422 -926H1349Q1343 -899 1343 -869Q1343 -806 1356 -763Q1359 -752 1384 -699Q1402 -662 1402 -632Q1402 -599 1389 -574Q1372 -541 1368 -523Q1364 -505 1364 -463Q1364 -439 1365.5 -391.5Q1367 -344 1367 -320Q1367 -299 1361 -257Q1355 -215 1355 -194Q1355 -146 1365.5 -51Q1376 44 1376 92Q1376 100 1374 115Q1372 130 1372 138V202Q1372 210 1370 226Q1368 242 1368 250Q1368 266 1374.5 298.5Q1381 331 1381 347Q1381 358 1367 371Q1361 371 1346 373.5Q1331 376 1323 376Q1317 376 1304.5 365.5Q1292 355 1287 355Q1281 355 1269 363.5Q1257 372 1251 372H1115Q1108 368 1108 362Q1108 348 1117 322Q1189 305 1210 295Q1262 271 1262 223Q1262 215 1246 163H1114Q1112 175 1099 223Q1089 259 1089 283Q1089 290 1093.5 301.5Q1098 313 1098 320Q1098 350 1082 369Q1069 372 1046 376L1000 355Q943 378 904 378Q889 378 859 377Q829 376 816 376L809 371Q809 350 805 319Q845 317 919 300Q950 286 974.5 253Q999 220 999 187Q999 180 997.5 165Q996 150 996 143Q996 114 1004.5 56.5Q1013 -1 1013 -30Q1013 -48 1010 -82.5Q1007 -117 1007 -135Q1007 -174 1024 -249Q1041 -324 1041 -363Q1041 -376 1048 -423Q1079 -632 1079 -670Q1079 -697 1089.5 -751Q1100 -805 1100 -832Q1100 -859 1088 -874Q1072 -890 1057 -905Q1029 -854 971 -754Q890 -741 874 -741Q861 -741 835.5 -743.5Q810 -746 797 -746Q783 -746 755 -744Q727 -742 713 -742Q693 -742 652 -745.5Q611 -749 591 -749Q583 -749 525 -739Q452 -726 392 -734ZM442 -772H392V-766H400Q424 -766 442 -772ZM1395 -952Q1395 -1105 1385 -1409Q1378 -1525 1273 -1525Q1205 -1525 1152 -1478Q1138 -1465 1125 -1425L1256 -1429Q1274 -1430 1294 -1406Q1297 -1392 1297 -1380Q1297 -1341 1259 -1322V-952ZM1376 -632Q1376 -659 1358 -695Q1334 -746 1331 -756Q1317 -801 1317 -869Q1317 -893 1323 -926H1233V-1338Q1271 -1355 1271 -1380Q1271 -1388 1270 -1394Q1263 -1403 1257 -1403L1117 -1399Q1100 -1345 1082 -1322Q1119 -1297 1126 -1254Q1144 -1251 1175 -1246Q1175 -1212 1179 -1151Q1084 -1143 1049 -1116Q1021 -1094 974 -1004Q967 -990 891 -833Q879 -833 853.5 -834.5Q828 -836 815 -836Q764 -836 690 -824Q628 -813 566 -803L522 -815Q501 -769 471 -761Q583 -775 591 -775Q611 -775 652 -771.5Q693 -768 713 -768Q727 -768 755 -770Q783 -772 797 -772Q810 -772 835.5 -769.5Q861 -767 874 -767Q894 -767 955 -778Q983 -827 1040 -926Q1032 -939 1032 -954Q1047 -981 1062.5 -1009.5Q1078 -1038 1081 -1067L1108 -1066Q1104 -1029 1058 -948Q1061 -939 1096 -904Q1126 -874 1126 -832Q1126 -805 1115.5 -751Q1105 -697 1105 -670Q1105 -616 1074 -419Q1067 -374 1067 -363Q1067 -324 1050 -249Q1033 -174 1033 -135Q1033 -117 1036 -82.5Q1039 -48 1039 -30Q1039 -1 1031 54.5Q1023 110 1022 137H1346Q1346 130 1348 115Q1350 100 1350 92Q1350 44 1339.5 -51Q1329 -146 1329 -194Q1329 -215 1335 -257Q1341 -299 1341 -320Q1341 -344 1339.5 -391.5Q1338 -439 1338 -463Q1338 -510 1370 -594Q1376 -610 1376 -632ZM366 -845V-940H345V-845ZM216 -845V-940H195V-845ZM424 -798V-819H126V-798ZM366 -667V-740Q354 -745 345 -754V-667ZM1355 346Q1355 330 1348.5 298.5Q1342 267 1342 250Q1342 242 1344 226Q1346 210 1346 202V163H1277Q1288 201 1288 223Q1288 312 1137 344V346H1248Q1277 329 1287 329Q1298 329 1327 350ZM216 -667V-772H195V-667ZM1084 163H1023Q1025 181 1025 187Q1025 228 996.5 267.5Q968 307 930 324Q905 335 834 342V350Q916 352 904 352Q939 352 1001 327L1050 349L1066 346Q1072 333 1072 317Q1072 311 1067.5 300Q1063 289 1063 283Q1063 249 1084 163ZM1184 -1351Q1184 -1330 1153 -1330Q1121 -1330 1121 -1351Q1121 -1372 1153 -1372Q1184 -1372 1184 -1351Z"/>
</svg>