<svg xmlns="http://www.w3.org/2000/svg" viewBox="0 -2048 2048 2048">
	<path fill="#000000" d="M1804 -675Q1804 -669 1784 -598.5Q1764 -528 1764 -522V-370Q1764 -366 1753 -319Q1742 -268 1739 -247L1769 -36L1744 173Q1744 178 1754 227.5Q1764 277 1764 284Q1764 331 1716 331Q1684 331 1671 311Q1668 312 1657.5 321.5Q1647 331 1640 331H1458V282Q1511 269 1565 257Q1644 232 1644 173Q1644 147 1625 100H1476Q1430 194 1440 293Q1444 331 1405 331Q1399 331 1377 321Q1355 311 1349 311Q1346 311 1325 331H1136Q1139 310 1148 278Q1193 271 1238 264Q1294 250 1315 207Q1326 185 1340 37Q1345 -69 1358 -265Q1364 -338 1396 -485Q1427 -625 1427 -624Q1427 -656 1367 -703Q1311 -745 1291 -745Q1285 -745 1282.5 -742.5Q1280 -740 1274 -740Q1193 -740 1177 -810H1173Q1148 -743 1122 -677Q1092 -601 1038 -576Q975 -548 872 -524Q785 -505 698 -485Q726 -445 734 -372Q742 -370 756 -351Q778 -279 950 246Q992 249 1074 257V331H100V247Q113 245 127 245Q139 245 158 247Q177 249 184 249Q210 249 218 227Q287 33 428 -357Q440 -359 467 -368Q477 -397 505 -457Q507 -461 497 -481Q504 -495 515.5 -497Q527 -499 530 -502Q547 -550 568 -567Q582 -578 625 -578Q687 -578 689 -578Q695 -579 700 -580Q868 -617 945 -670Q961 -681 991 -774Q1008 -828 1026 -883Q1049 -949 1080 -1004Q1055 -1032 1050 -1032Q1044 -1032 1026 -1022Q1008 -1012 1002 -1012Q1010 -1012 956 -1035Q941 -1041 885 -1054Q881 -1067 846 -1162Q819 -1233 819 -1268Q819 -1345 880 -1392Q935 -1434 1007 -1434Q1080 -1434 1119 -1402Q1191 -1343 1297 -1237Q1465 -1070 1472 -1063Q1468 -1064 1447 -1044Q1535 -935 1617 -882Q1720 -816 1752 -784Q1804 -734 1804 -675ZM1437 -1069Q1330 -1175 1222 -1281Q1090 -1409 1005 -1409Q938 -1409 893 -1374Q844 -1336 844 -1271Q844 -1247 866 -1188Q902 -1216 939 -1244.5Q976 -1273 1010 -1273Q1064 -1273 1064 -1239Q1064 -1228 1055 -1215L1329 -981ZM1779 -675Q1779 -716 1757 -749Q1739 -775 1673 -818Q1589 -871 1582 -877Q1524 -932 1420 -1027Q1387 -999 1324 -951L1030 -1211Q1041 -1233 1034 -1248H983Q972 -1248 925.5 -1207Q879 -1166 879 -1155Q879 -1178 900 -1073Q930 -1073 961 -1060Q1004 -1042 1007 -1042Q1014 -1042 1031 -1049.5Q1048 -1057 1053 -1057Q1075 -1057 1110 -1004Q1087 -970 1067 -920Q1046 -859 1001 -738Q993 -714 984 -690Q970 -654 951 -645Q896 -618 794 -584Q702 -554 690 -554Q684 -554 667.5 -556.5Q651 -559 645 -559Q594 -559 568 -525Q586 -534 602 -534Q619 -534 621 -479Q747 -515 993 -585Q1023 -594 1034 -599Q1057 -611 1068 -631Q1091 -675 1134 -775Q1176 -872 1176 -878Q1176 -878 1161 -908L1169 -916H1182Q1198 -876 1204 -853Q1204 -851 1204 -814Q1204 -788 1217 -782Q1245 -769 1309 -763Q1326 -762 1385 -719Q1452 -670 1452 -637Q1452 -643 1398 -386Q1383 -313 1375 -84Q1374 -61 1368 -11Q1362 39 1362 43V74H1743L1738 66Q1738 49 1741 11Q1744 -27 1744 -31Q1744 -37 1731.5 -131.5Q1719 -226 1719 -232Q1719 -238 1728 -300Q1739 -371 1742 -400Q1739 -441 1740 -511Q1745 -543 1763 -610Q1779 -671 1779 -675ZM1739 273Q1739 260 1730.5 228Q1722 196 1722 176Q1722 159 1726 143Q1730 127 1738 101H1654Q1679 164 1657 202Q1630 249 1573 272Q1528 285 1483 299L1621 306Q1639 302 1680 281Q1693 306 1711 306Q1739 306 1739 273ZM1447 101H1358Q1363 187 1307 245Q1284 269 1238 282Q1202 290 1166 299L1304 306Q1311 304 1325.5 292.5Q1340 281 1347 281Q1351 281 1373.5 293.5Q1396 306 1402 306Q1410 306 1417 299Q1412 276 1412 249Q1412 169 1447 101ZM677 -369V-411Q677 -423 651 -463Q601 -443 563 -448Q553 -421 532 -369ZM541 -458Q496 -413 498 -390V-368Q526 -421 541 -458ZM1049 311V277Q1052 277 985 279Q942 280 934 262Q885 145 829 -38Q783 -190 737 -342H442Q427 -301 233 248Q225 270 186 269Q121 268 125 267V311ZM980 -1160Q972 -1152 956 -1138.5Q940 -1125 932 -1117Q914 -1135 914 -1150Q914 -1163 920 -1177H968Q971 -1171 980 -1160Z"/>
</svg>