<svg xmlns="http://www.w3.org/2000/svg" viewBox="23.2 -1632.8 1093.7 2074.7">
	<path fill="currentColor" d="M1040 -199Q1001 -203 986.5 -179Q972 -155 948 -155Q941 -155 938.5 -157.5Q936 -160 929 -160Q922 -160 920.5 -155Q919 -150 912 -150H889Q886 -166 873 -199H784Q789 -184 789 -164Q789 -142 782 -103Q775 -61 774 -48Q773 -22 778 31Q784 87 784 88V237Q784 244 786.5 272.5Q789 301 789 308Q789 322 778 342Q767 365 754 365Q745 365 729 357Q713 349 707 349Q700 349 668.5 354.5Q637 360 630 360Q590 360 570 354Q571 353 572 353Q573 351 572 350Q571 349 565 349Q560 349 552.5 357Q545 365 535 365Q529 365 523 357Q517 349 510 349Q503 349 497.5 357Q492 365 485 365H357V317Q389 308 451 282Q487 262 496 148Q498 72 500 -4Q510 -61 521 -131V-183Q526 -188 513 -188Q484 -188 473 -146Q471 -139 475 -81Q476 -64 483 -1Q488 48 488 76Q488 123 476 157Q474 157 465 160Q456 163 450 163Q423 163 411 83Q411 32 429 -103Q431 -121 457 -180Q464 -196 491 -207Q508 -213 525 -219Q581 -475 581 -543Q581 -563 579 -565Q568 -523 529 -451Q478 -397 392 -337Q320 -288 247 -238V365H204V-244Q204 -249 195.5 -260Q187 -271 187 -278Q187 -283 190.5 -306Q194 -329 194 -339Q202 -345 215 -356V-731Q184 -746 156 -793.5Q128 -841 100 -857V-882Q123 -887 150 -900Q161 -905 231 -905Q359 -905 379 -857Q340 -816 252 -736V-350Q248 -346 261 -346Q278 -346 354 -419Q433 -496 448 -536Q463 -593 492 -705Q510 -773 538 -798Q543 -803 609 -816V-829Q591 -839 566 -839Q564 -849 549 -882Q537 -911 537 -918Q537 -928 559 -961Q546 -969 523 -982Q524 -1005 510 -1049V-1068Q534 -1080 543 -1080Q566 -1080 595 -1041Q622 -1068 652 -1083Q618 -1125 584 -1168Q540 -1223 499 -1246Q505 -1252 505 -1265H528Q542 -1265 583 -1238Q601 -1292 636 -1432Q592 -1467 592 -1493Q592 -1503 607 -1527Q624 -1556 641 -1556Q669 -1556 710 -1512Q737 -1556 765 -1556Q787 -1556 806 -1527Q822 -1502 822 -1488Q822 -1463 778 -1437Q792 -1407 818 -1346Q844 -1285 858 -1255Q869 -1262 913 -1277Q916 -1274 919.5 -1264.5Q923 -1255 926 -1252Q894 -1240 861 -1171Q828 -1102 789 -1082Q849 -1014 854 -920Q862 -784 867 -766Q884 -741 918 -684Q964 -599 974 -577Q994 -534 1003 -494L964 -295Q975 -271 996 -227Q1033 -220 1040 -220ZM832 -1228V-1247L745 -1454Q746 -1455 782 -1469Q795 -1475 795 -1493Q795 -1529 765 -1529Q749 -1529 736.5 -1507.5Q724 -1486 724 -1477Q724 -1488 726.5 -1435Q729 -1382 729 -1294Q813 -1266 832 -1228ZM701 -1289V-1477Q701 -1492 675 -1510Q660 -1519 644 -1529Q614 -1499 614 -1493Q614 -1478 634 -1466Q663 -1449 663 -1449L616 -1228Q623 -1247 656 -1268Q684 -1286 701 -1289ZM806 -1192Q806 -1221 777 -1243.5Q748 -1266 721 -1266Q691 -1266 663.5 -1241.5Q636 -1217 636 -1192Q636 -1179 667 -1146Q698 -1113 718 -1113Q742 -1113 771 -1134Q806 -1159 806 -1192ZM844 -729Q844 -799 831 -924Q824 -987 803 -1024Q777 -1069 721 -1069Q623 -1069 604 -993Q640 -991 676 -989Q723 -984 740 -967Q742 -947 702 -908V-615H843Q844 -607 844 -729ZM550 -1004V-1024H541V-1004ZM975 -497Q975 -527 927 -614Q883 -695 867 -707V-612Q867 -605 896.5 -559.5Q926 -514 926 -507V-284Q926 -276 917 -251Q905 -222 904 -216Q910 -214 933 -182H951Q970 -191 970 -207Q970 -213 956 -253.5Q942 -294 942 -300Q942 -307 958.5 -398.5Q975 -490 975 -497ZM899 -396Q899 -479 897 -490Q888 -554 842 -591H779Q791 -585 786 -554Q778 -506 778 -510Q778 -503 794.5 -443Q811 -383 811 -376Q811 -368 800.5 -333.5Q790 -299 790 -294V-221Q790 -221 875 -221Q899 -252 899 -396ZM784 -374Q784 -393 769 -447.5Q754 -502 754 -538Q754 -566 761 -592H679V-922Q692 -929 707 -958Q686 -965 647 -965Q605 -965 593 -962Q565 -925 565 -918Q565 -910 577 -888Q591 -862 593 -856Q619 -858 631 -851V-799Q622 -785 585.5 -781.5Q549 -778 544 -766Q525 -724 503 -625Q482 -535 458.5 -492Q435 -449 372 -396Q321 -353 269 -311Q274 -306 277 -297Q390 -370 400 -376Q482 -433 513 -473Q554 -526 554 -584Q554 -588 543 -595.5Q532 -603 532 -625Q532 -638 547 -676Q565 -724 584 -724Q594 -724 598 -720V-706Q559 -641 559 -628Q559 -619 596 -582Q612 -567 609 -544L554 -223H767V-246Q767 -252 775.5 -309.5Q784 -367 784 -374ZM335 -864Q269 -883 223 -883Q196 -883 144 -870Q151 -850 176 -810Q210 -757 231 -757Q259 -757 288 -799Q332 -861 335 -864ZM767 -186Q610 -193 549 -192Q539 -151 516 189H766L760 181Q761 168 752 50Q745 -51 767 -186ZM252 -270V-290L240 -302H221Q217 -294 217 -283Q217 -273 221 -265Q227 -265 238.5 -267.5Q250 -270 252 -270ZM762 325Q754 249 761 219H702Q707 286 705 290Q694 311 666 322Q649 330 631 337H660Q667 338 685 330Q703 322 710 322Q716 322 727.5 330Q739 338 745 338Q749 338 762 325ZM453 135Q457 90 457 40Q457 -11 453 -56L439 75Q439 98 453 135ZM685 277Q685 254 673 218H588Q586 227 574 257Q565 283 565 289Q565 297 568 302.5Q571 308 571 310H611Q638 311 685 277ZM554 226L547 218H516Q520 273 464 302Q457 305 379 330L480 338Q512 322 513 322Q520 322 530.5 329.5Q541 337 542 337Q541 266 554 226ZM641 -916Q613 -916 593 -911Q593 -929 587 -935Q590 -938 596 -941.5Q602 -945 605 -948L641 -942Z"/>
</svg>