<svg xmlns="http://www.w3.org/2000/svg" viewBox="24.2 -1621.8 1537.5 2045.5">
	<path fill="currentColor" d="M1486 348H387Q443 319 498 291Q568 255 603 222L468 -379Q473 -402 486 -444Q486 -445 496 -454Q506 -463 506 -471Q506 -473 474 -540V-559Q492 -559 500 -568L421 -728Q355 -706 362 -706Q336 -706 276 -782Q232 -836 214 -867Q228 -875 258 -886Q284 -922 284 -936Q284 -936 257 -963Q257 -963 264 -980Q279 -985 311 -1002Q255 -1069 240 -1069Q233 -1069 228 -1063.5Q223 -1058 216 -1058Q194 -1058 170 -1082Q173 -1088 177 -1096Q184 -1096 195 -1085H221L230 -1094Q216 -1129 205 -1129Q198 -1129 193 -1126Q188 -1123 181 -1123Q143 -1123 138 -1155Q139 -1155 151 -1167L169 -1150H187Q175 -1199 162 -1199Q155 -1199 155 -1196.5Q155 -1194 148 -1194Q135 -1194 100 -1217Q100 -1220 106 -1229.5Q112 -1239 112 -1242Q119 -1236 150 -1220Q152 -1362 251 -1362Q307 -1362 352 -1307Q359 -1307 362.5 -1310Q366 -1313 373 -1313Q380 -1313 400 -1303Q424 -1291 430 -1289Q424 -1283 424 -1270Q416 -1273 396 -1278Q376 -1283 368 -1286Q360 -1278 360 -1275Q360 -1232 376 -1232Q383 -1232 388 -1237Q393 -1242 400 -1242Q430 -1242 444 -1211Q440 -1204 440 -1199Q412 -1215 398 -1215Q376 -1215 376 -1199Q376 -1177 384 -1161Q395 -1172 406 -1172Q416 -1172 433 -1162Q450 -1152 452 -1142Q449 -1136 445 -1129Q437 -1129 426 -1140H396Q387 -1131 387 -1129Q387 -1120 396 -1078.5Q405 -1037 408 -1037Q406 -1037 456 -1047Q456 -1012 451 -997Q478 -988 498 -988Q512 -988 541 -999Q558 -991 563 -964Q565 -955 557 -936.5Q549 -918 549 -912Q549 -905 562.5 -866Q576 -827 576 -820Q576 -775 511 -752Q527 -691 572 -575Q592 -563 624 -537Q712 -421 892 -192L955 -549Q947 -564 905 -629Q874 -677 874 -685Q874 -699 900 -743Q949 -814 999 -885Q1069 -992 1069 -1050Q1069 -1107 1037 -1121Q1034 -1122 946 -1136Q885 -1251 885 -1267Q885 -1278 905 -1306Q935 -1366 965 -1425Q1008 -1506 1076 -1533Q1108 -1546 1159 -1546Q1258 -1546 1300 -1507Q1337 -1473 1386 -1349Q1387 -1313 1394 -1245L1415 -523H1328L1302 193Q1302 210 1303 227Q1365 269 1486 348ZM1388 -550L1367 -1305Q1357 -1386 1309 -1446Q1250 -1519 1159 -1519Q1035 -1519 983 -1395H1179Q1194 -1395 1210 -1370.5Q1226 -1346 1226 -1334Q1226 -1328 1201.5 -1295Q1177 -1262 1173 -1246Q1174 -1213 1167 -1153L1146 -550ZM321 -1293Q310 -1340 254 -1340Q225 -1340 200.5 -1312Q176 -1284 176 -1256Q176 -1248 179 -1241Q182 -1234 182 -1232Q253 -1268 321 -1293ZM349 -1217Q337 -1253 337 -1269Q282 -1251 186 -1208Q198 -1190 215 -1161Q261 -1184 349 -1217ZM1394 321Q1393 321 1318 271Q1275 243 1275 212L1296 -146V-522H1129Q1116 -522 1118 -531L1145 -1239Q1147 -1261 1173 -1296Q1199 -1331 1199 -1334Q1199 -1344 1186 -1355.5Q1173 -1367 1163 -1367H973L912 -1261Q929 -1228 958 -1163Q988 -1156 1054 -1149Q1091 -1105 1091 -1047Q1091 -981 1032 -893Q979 -818 927 -743Q901 -699 901 -690Q901 -677 941.5 -622Q982 -567 982 -563Q982 -557 963 -460Q942 -349 935 -303Q928 -254 929 -137Q915 -137 910 -132Q825 -246 651 -460Q634 -479 582 -479Q552 -479 527 -454Q499 -427 495 -384L630 233Q615 257 490 321ZM359 -1146Q353 -1176 353 -1193Q334 -1185 291.5 -1168Q249 -1151 230 -1143Q248 -1107 259 -1107Q267 -1107 302 -1122Q346 -1142 359 -1146ZM482 -963Q474 -963 456.5 -967.5Q439 -972 433 -972Q404 -972 393 -951Q477 -963 482 -963ZM376 -1042Q376 -1063 364 -1123Q350 -1118 318.5 -1103Q287 -1088 273 -1083Q291 -1059 340 -1010Q376 -1031 376 -1042ZM548 -799Q548 -831 540 -847Q540 -821 529 -788Q540 -799 548 -799ZM430 -1000Q430 -1015 421 -1015L300 -963Q308 -963 318.5 -964.5Q329 -966 335 -966Q353 -966 369 -945Q364 -952 364 -959Q364 -974 392 -987Q411 -993 430 -1000ZM349 -925Q335 -939 323 -939Q307 -923 307 -912Q333 -925 349 -925ZM538 -947L531 -966Q514 -955 486 -928Q476 -934 454 -934Q454 -934 381 -915Q379 -911 372 -902Q351 -902 334 -893Q324 -881 302 -864Q282 -863 246 -856Q253 -842 270 -827Q310 -821 339 -802Q410 -755 435 -755Q488 -755 509 -816Q513 -827 506.5 -853Q500 -879 502 -887Q503 -892 538 -947ZM543 -567Q525 -634 477 -744Q452 -733 452 -724Q474 -684 524 -572Q528 -567 543 -567ZM387 -741Q376 -746 349.5 -763.5Q323 -781 312 -786Q352 -733 368 -733Q376 -733 380.5 -737Q385 -741 387 -741ZM619 -496Q602 -544 557 -544Q551 -544 530 -540.5Q509 -537 501 -537Q513 -519 524 -490Q596 -512 619 -496ZM1074 -1295Q1074 -1275 1053 -1275Q1047 -1275 1021 -1278Q995 -1281 983 -1281Q983 -1287 990 -1304Q1015 -1324 1029 -1324Q1045 -1324 1074 -1295ZM490 -876Q478 -864 465 -864H431V-883Q449 -901 463 -901Q478 -901 490 -876ZM462 -808Q454 -792 428 -777Q419 -776 409 -796Q433 -808 462 -808ZM391 -832Q375 -832 339 -820Q339 -821 336 -832.5Q333 -844 333 -857Q334 -857 344 -863Q354 -869 362 -869Q371 -869 381 -855Q391 -841 391 -832Z"/>
</svg>