<svg xmlns="http://www.w3.org/2000/svg" viewBox="0 -2048 2048 2048">
	<path fill="currentColor" d="M1113 -560Q1113 -554 1100 -510Q1086 -462 1083 -446Q1065 -339 1065 -288V185Q1065 190 1078.5 237Q1092 284 1092 291Q1092 352 1039 352Q1034 352 1018.5 344Q1003 336 996 336Q989 336 986.5 341Q984 346 977 346H817V311Q820 305 828 296Q911 275 912 274Q965 253 965 211Q965 182 945 155H809Q790 183 791 236Q793 299 787 318Q775 357 742 357Q735 357 714 346.5Q693 336 686 336Q680 336 666 342.5Q652 349 644 350Q588 357 567 357Q528 357 504 351Q504 351 504 299Q547 304 598 275Q656 242 671.5 187.5Q687 133 697 52Q698 -14 701 -128Q701 -139 740 -332Q779 -525 779 -574Q779 -640 779 -640H750Q737 -637 708 -631Q617 -620 448 -580Q339 -539 341 -539Q333 -539 329.5 -541Q326 -543 324 -543Q193 -385 137 -385Q100 -385 100 -423Q100 -442 127 -469V-1334Q100 -1354 100 -1369Q100 -1389 123 -1402Q141 -1414 158 -1414Q172 -1414 310 -1379Q432 -1348 507.5 -1263Q583 -1178 583 -1072Q583 -989 565 -926Q627 -988 690 -1050Q765 -1117 827 -1122V-1145Q805 -1155 775 -1155Q767 -1173 737 -1222Q710 -1264 710 -1271Q710 -1272 751 -1349Q766 -1382 781 -1415Q806 -1461 844 -1481Q890 -1505 927 -1505Q978 -1505 1028 -1467Q1083 -1424 1098 -1359Q1098 -1359 1103 -1350Q1108 -1341 1108 -1333V-869Q1099 -863 1064 -863Q1060 -855 1060 -823Q1060 -750 1086.5 -674.5Q1113 -599 1113 -560ZM1086 -890V-1184Q1089 -1478 927 -1478Q836 -1478 784 -1368Q835 -1368 887 -1367Q970 -1359 970 -1300Q970 -1272 944 -1254V-890ZM943 -1303Q943 -1340 780 -1340Q742 -1264 742 -1266Q742 -1263 763.5 -1233Q785 -1203 790 -1176Q822 -1176 849 -1166V-1101Q807 -1103 724.5 -1043.5Q642 -984 578 -906Q542 -863 504 -784Q515 -778 533 -778Q605 -813 674 -869Q763 -942 775 -1002Q779 -1007 781 -1006Q784 -1003 788 -1002Q792 -1001 795 -998Q783 -968 760 -926Q742 -893 742 -889Q742 -882 766 -843Q792 -799 797 -783Q917 -903 917 -918V-1262Q943 -1288 943 -1303ZM524 -1051Q524 -1110 498 -1167Q470 -1229 427 -1250V-928Q451 -916 491 -900Q492 -904 511 -968Q524 -1012 524 -1051ZM401 -948V-1265Q385 -1274 360 -1283V-970Q375 -962 401 -948ZM338 -991V-1291Q320 -1294 292 -1298L286 -1041Q283 -1028 304 -1010Q322 -995 338 -991ZM996 -861Q968 -857 914 -873Q882 -830 851 -788Q812 -739 775 -721Q722 -696 595 -674Q494 -656 469 -656Q466 -656 440 -669Q445 -656 436 -630.5Q427 -605 416 -594Q456 -609 522 -627Q597 -636 740 -659Q824 -675 852 -695Q927 -748 996 -861ZM263 -1065Q263 -1297 257 -1303Q248 -1304 217 -1310V-1092Q249 -1081 263 -1065ZM773 -752Q772 -773 756 -816Q735 -873 713 -873Q713 -873 630.5 -812Q548 -751 530 -751Q521 -751 493 -765Q463 -721 449 -696Q477 -682 477 -682Q509 -682 740 -732Q757 -736 773 -752ZM192 -1059V-1315Q175 -1316 154 -1326V-1115Q154 -1107 192 -1059ZM478 -876Q459 -885 424 -899V-833Q432 -827 450 -816Q461 -838 478 -876ZM402 -853V-920Q387 -928 361 -942V-880Q377 -863 402 -853ZM1092 -558Q1092 -563 1077 -614Q1060 -672 1056 -691Q1043 -754 1032 -863Q960 -768 928 -733Q859 -660 801 -644Q809 -594 803 -553Q790 -470 756 -279Q726 -112 726 -107Q726 -101 730 -75Q734 -49 734 -43Q732 -8 715 129L727 134H1044V-166Q1043 -256 1056 -435Q1060 -460 1076 -507Q1092 -554 1092 -558ZM338 -905V-957Q297 -986 289 -986Q286 -985 286 -982Q286 -958 304 -939.5Q322 -921 338 -905ZM263 -975Q263 -1001 260 -1018Q257 -1035 257 -1033Q252 -1002 222 -993Q227 -990 242.5 -984Q258 -978 263 -975ZM557 -1072Q557 -1289 226 -1374Q172 -1388 158 -1388Q135 -1388 127 -1368Q149 -1347 229 -1334Q287 -1325 344 -1316Q440 -1291 495 -1220.5Q550 -1150 550 -1051Q550 -916 437 -740Q330 -575 208 -496Q126 -443 126 -423Q126 -411 137 -411Q156 -411 205 -457Q478 -711 540 -933Q557 -994 557 -1072ZM187 -1020L158 -1060L151 -1055L179 -1015ZM402 -775Q402 -805 399 -812Q393 -828 361 -846L367 -687Q402 -729 402 -775ZM338 -652V-866Q308 -896 287 -910V-594Q306 -613 338 -652ZM264 -571V-941Q231 -963 218 -963V-536Q243 -548 264 -571ZM195 -519V-978Q181 -992 154 -1006V-492Q169 -507 195 -519ZM1065 293Q1065 286 1056 235Q1046 177 1043 156Q995 163 981 162Q992 227 979 253Q964 283 916 298Q879 308 843 318L963 325Q966 323 1004 304Q1025 325 1036 325Q1065 325 1065 293ZM779 156H745Q714 154 705 173Q694 198 671 242Q645 282 600 305Q560 327 530 323L623 331Q632 329 659 318Q682 309 689 309Q695 309 712.5 320Q730 331 736 331Q745 331 752 324Q752 324 759 241Q764 188 779 156ZM858 -1285Q852 -1277 852 -1272H797L790 -1278V-1292Q816 -1314 819 -1314Q829 -1314 858 -1285Z"/>
</svg>