<svg xmlns="http://www.w3.org/2000/svg" viewBox="0 -2048 2048 2048">
	<path fill="currentColor" d="M1116 -762L1064 -452Q1090 -386 1090 -373Q1090 -316 1046 -272Q1026 -283 1013 -283Q1033 -353 1033 -371Q1033 -389 1030 -391H1024Q1018 -383 1016 -367L1012 -362V-355Q1002 -355 966 -367Q978 -403 994 -473Q996 -488 993 -550Q991 -588 996 -661Q1002 -740 1002 -735Q1002 -754 925 -871H854Q840 -832 840 -785Q840 -778 858.5 -697.5Q877 -617 877 -610Q877 -607 862.5 -558.5Q848 -510 847 -488Q847 -470 851 -418Q856 -363 856 -342Q856 -323 847 -281Q837 -234 836 -217Q833 -184 839 -137Q847 -67 849 -14Q850 8 845 49Q840 93 840 95V252Q840 300 829 332Q829 338 817 338Q812 338 784 325Q756 312 749 312Q742 312 691.5 325Q641 338 634 338Q629 338 614 335Q599 332 591 332Q591 334 588.5 317.5Q586 301 586 276Q725 263 725 202Q725 173 712 145H599Q591 156 581 179Q581 222 578 309Q577 317 562 327.5Q547 338 538 338Q521 338 498 317Q495 319 484.5 328.5Q474 338 467 338H315Q309 332 309 317Q309 310 312.5 297.5Q316 285 316 281Q365 263 414 245Q480 212 484 163Q485 53 498 -165Q512 -294 558 -562Q600 -809 600 -808Q600 -832 587 -850Q586 -848 581 -841Q565 -738 530 -695Q491 -647 391 -578Q316 -527 168 -419V337H121V-430Q121 -435 110.5 -446.5Q100 -458 100 -465Q100 -465 105 -499Q109 -529 107 -546Q112 -549 122 -557V-1136H168V-562Q183 -548 191 -548Q203 -548 293 -628.5Q383 -709 396 -734Q426 -790 464 -942Q499 -1083 519 -1108Q534 -1127 573 -1132Q620 -1139 632 -1146V-1169Q607 -1178 586 -1180Q581 -1195 558 -1232Q538 -1265 538 -1272Q538 -1278 557 -1310Q578 -1346 583 -1359Q630 -1491 762 -1491Q863 -1491 910 -1406Q944 -1345 944 -1255V-1086Q944 -1078 951 -1073Q958 -1068 958 -1068Q1001 -994 1045 -920Q1102 -821 1116 -762ZM923 -898V-1260Q924 -1327 887 -1391Q843 -1470 770 -1470Q727 -1470 682 -1446Q625 -1416 611 -1367Q617 -1365 629 -1365Q637 -1365 660.5 -1366.5Q684 -1368 697 -1368Q778 -1368 778 -1316Q778 -1271 742 -1266V-898ZM1090 -756Q1090 -784 1024 -900Q973 -992 945 -1032V-895Q945 -891 986.5 -825Q1028 -759 1028 -733Q1028 -730 1020.5 -677.5Q1013 -625 1013 -603Q1013 -586 1017.5 -549Q1022 -512 1022 -493Q1022 -455 1008 -424Q1008 -424 1048 -424Q1046 -465 1045 -461Q1090 -717 1090 -756ZM1066 -356L1061 -412H1052L1057 -356ZM1009 -408V-422H1000V-408ZM1003 -392V-406H994V-392ZM851 -618Q851 -625 832.5 -701.5Q814 -778 814 -785Q814 -791 817 -817.5Q820 -844 820 -852Q828 -863 814 -871H720V-1284Q757 -1308 757 -1319Q757 -1328 745 -1340H596Q586 -1317 564 -1274Q576 -1259 607 -1201Q628 -1199 653 -1190V-1120Q616 -1113 577 -1106.5Q538 -1100 529 -1078Q507 -1027 481.5 -912Q456 -797 432 -744Q397 -668 192 -517Q178 -531 168 -531Q197 -502 212 -485Q290 -537 367 -590Q458 -654 514 -710Q535 -731 555 -831Q564 -875 564 -863Q564 -869 548.5 -885Q533 -901 533 -907Q533 -918 556.5 -971Q580 -1024 592 -1032Q595 -1029 599 -1028Q603 -1027 606 -1024Q601 -1005 579 -958Q559 -916 559 -910Q559 -904 585 -878Q615 -849 620 -841Q627 -822 627 -824Q627 -818 603 -688Q577 -543 571 -504Q532 -243 520 -77L507 118H819Q819 101 823 30Q827 -24 823 -51Q801 -211 822 -295Q833 -341 828 -420Q827 -429 824 -459Q820 -483 821 -493Q822 -518 836.5 -566.5Q851 -615 851 -618ZM184 -478Q156 -506 147 -506Q145 -506 127 -490V-460Q140 -449 152 -449Q170 -449 184 -478ZM819 300Q819 136 818 146H742Q755 212 750 225Q726 286 606 299L681 307Q745 291 746 291Q755 291 780 297Q801 303 819 300ZM569 146Q517 152 508 151Q508 206 447 251Q394 290 347 293Q342 296 335 311H451Q458 311 479.5 301Q501 291 507 291Q514 291 520 298.5Q526 306 531 306H553V267Q553 247 549.5 231.5Q546 216 546 212Q546 196 569 146ZM668 -1278H613L606 -1284V-1297Q623 -1314 640 -1314Q655 -1314 668 -1296Z"/>
</svg>