<svg xmlns="http://www.w3.org/2000/svg" viewBox="0 -2048 2048 2048">
	<path fill="#000000" d="M1349 -394H1245Q1244 -375 1224 -337Q1206 -319 1189 -319Q1158 -319 1147 -337Q1141 -350 1135 -363Q1129 -364 1115 -364Q1110 -378 1110 -392H980Q978 -351 971 -270Q970 -261 961 -222Q954 -192 954 -173Q954 -145 961 -96Q968 -40 969 -18Q970 4 970 41Q970 61 970 101Q969 141 969 161Q969 177 964.5 208Q960 239 960 255Q960 264 966 281.5Q972 299 972 308Q972 369 929 369Q914 369 894.5 358.5Q875 348 875 348Q876 348 835 375Q814 375 772.5 374Q731 373 710 373Q700 373 691 383V314Q842 295 842 257Q842 217 829 172H709Q677 227 677 269Q677 279 681.5 297.5Q686 316 686 326Q686 339 665 366Q659 369 651 369Q627 369 603 348Q571 369 567 369H402V308Q513 301 563 244Q589 214 589 30Q589 9 593.5 -31.5Q598 -72 598 -93V-166Q598 -155 612 -216Q636 -320 636 -393H469Q469 -388 480 -321Q494 -236 514 -99Q519 -93 534 -88Q519 -79 519 -53Q519 -43 510 -20L496 -72H463V-37H440V-72H392Q388 -59 380 -40L367 -45L445 -418H638Q637 -423 674 -609Q676 -619 676 -677Q676 -700 690.5 -736.5Q705 -773 705 -777V-862L690 -872Q677 -814 633 -713Q596 -660 362 -504Q332 -487 302 -470Q263 -446 260 -422L148 363Q137 367 100 368L213 -428Q178 -450 178 -472Q178 -460 182 -517L190 -521L181 -525V-564Q189 -562 199 -559Q199 -559 225 -562Q229 -579 242 -665Q275 -887 339 -1331L350 -1342H384L391 -1328L273 -553Q325 -594 425 -681Q449 -705 499 -751Q522 -772 529 -812Q537 -857 570 -973Q580 -1021 589 -1069Q603 -1126 637 -1151Q658 -1167 739 -1174Q744 -1196 744 -1211Q725 -1216 684 -1222Q685 -1258 665 -1284.5Q645 -1311 645 -1315Q645 -1319 661.5 -1354.5Q678 -1390 712 -1462Q723 -1485 756 -1509Q789 -1533 814 -1537Q864 -1544 890 -1544Q907 -1544 950 -1528.5Q993 -1513 1005 -1502Q1066 -1447 1067 -1343L1070 -1125Q1092 -1094 1133 -1031Q1254 -824 1254 -781Q1254 -772 1252 -758Q1249 -741 1249 -735Q1248 -701 1241 -632Q1229 -580 1216 -475Q1243 -455 1245 -419H1251Q1260 -419 1279.5 -420Q1299 -421 1308 -421Q1349 -421 1349 -394ZM1052 -920L1044 -1345Q1041 -1490 936 -1510Q878 -1521 889 -1521Q820 -1521 784 -1500Q744 -1477 719 -1416H865Q875 -1416 887.5 -1395Q900 -1374 900 -1363Q900 -1335 862 -1315V-920ZM1231 -778Q1231 -793 1181 -892Q1138 -978 1118 -1012Q1103 -1037 1071 -1083L1072 -940Q1072 -918 1115.5 -856.5Q1159 -795 1159 -756Q1159 -746 1156 -727.5Q1153 -709 1153 -699Q1153 -661 1154 -585.5Q1155 -510 1155 -473Q1155 -467 1145.5 -449Q1136 -431 1136 -419Q1138 -420 1143 -420Q1155 -420 1161 -410Q1162 -404 1162 -376Q1162 -342 1186 -342Q1223 -342 1223 -408Q1223 -435 1208 -450.5Q1193 -466 1193 -470Q1193 -465 1199 -506Q1211 -580 1226 -729Q1226 -736 1228.5 -752.5Q1231 -769 1231 -778ZM1139 -765Q1139 -794 1062 -893H974Q963 -819 963 -790Q963 -759 982 -701Q1001 -643 1001 -612Q1001 -589 988 -544Q975 -499 975 -476Q975 -405 976 -420H1111Q1120 -438 1133 -475Q1127 -485 1127 -488V-667Q1127 -684 1133 -716Q1139 -748 1139 -765ZM979 -612Q979 -642 959.5 -701Q940 -760 940 -785Q940 -791 951 -893H848L836 -905V-1321Q877 -1359 877 -1363Q877 -1373 863 -1390H704V-1383Q704 -1376 687.5 -1349Q671 -1322 671 -1317Q671 -1318 688 -1291.5Q705 -1265 706 -1240Q747 -1234 767 -1228Q767 -1202 755 -1153Q702 -1151 692 -1149Q655 -1143 638 -1121Q616 -1093 587 -960Q552 -799 545 -778Q531 -738 375 -608Q281 -530 274 -530Q268 -530 255 -536Q242 -542 237 -542Q231 -542 224 -541Q288 -521 287 -481Q373 -541 459 -602Q592 -696 612 -723Q629 -746 649 -820.5Q669 -895 669 -882Q669 -883 652.5 -908Q636 -933 636 -952Q636 -958 657 -988Q669 -1004 689 -1038Q693 -1049 703 -1069L716 -1055Q708 -1003 659 -949Q659 -904 731 -873V-783Q731 -779 719.5 -750.5Q708 -722 705 -680Q700 -623 697 -609Q684 -546 661 -420H951Q952 -437 952 -437Q952 -443 950.5 -453.5Q949 -464 949 -470Q949 -495 964 -541Q979 -587 979 -612ZM365 -1314H362L251 -564L254 -562ZM955 -351Q955 -357 954 -371Q953 -385 953 -393H659Q656 -327 632 -201Q623 -174 623 -145Q623 -136 620.5 -118.5Q618 -101 618 -92V-12Q618 -5 615 9Q612 23 612 30Q612 39 613 56.5Q614 74 614 83Q614 94 610 116Q606 138 606 149H943V-24Q943 -48 938.5 -96Q934 -144 934 -168Q934 -199 944.5 -259.5Q955 -320 955 -351ZM264 -484Q264 -515 225 -515Q220 -515 207 -505Q201 -459 201 -473Q201 -464 215 -454Q225 -447 236 -440V-445Q246 -458 264 -484ZM492 -98L453 -343L396 -98ZM949 307Q949 298 943 281Q937 264 937 255Q937 214 944 171H854L868 258Q850 322 716 333V348H838Q866 325 875 325Q882 325 901.5 334Q921 343 926 343Q949 343 949 307ZM680 174H609Q608 276 498 314Q474 319 425 329V348Q527 349 527 349Q553 349 579.5 337Q606 325 606 325Q611 325 620.5 334Q630 343 643 343Q661 343 661 318Q661 307 658 284Q655 261 655 250Q655 229 680 174ZM239 -421H236L125 343L128 344ZM781 -1319H727Q717 -1319 717 -1333Q717 -1360 746 -1360Q781 -1360 781 -1319Z"/>
</svg>