<svg xmlns="http://www.w3.org/2000/svg" viewBox="0 -2048 2048 2048">
	<path fill="currentColor" d="M1285 344H256Q331 299 470 197L310 -372Q307 -379 307 -388Q307 -422 351 -458Q391 -491 422 -491Q464 -491 491 -467Q541 -422 610 -343Q704 -233 724 -212L782 -529Q772 -529 746 -521.5Q720 -514 709 -513Q568 -501 449 -501Q443 -501 378.5 -504Q314 -507 307 -507Q307 -507 202 -492V-411H154Q152 -419 154 -493Q134 -501 115 -510Q100 -519 100 -547Q100 -550 117 -635Q136 -635 149 -644Q133 -653 107 -680Q100 -692 100 -716Q100 -739 120 -762Q117 -768 117 -828Q122 -828 136 -825.5Q150 -823 158 -822V-1213Q194 -1213 212 -1219V-821Q225 -811 254 -785H584Q646 -860 708 -935Q784 -1013 862 -1015V-1081Q833 -1090 750 -1102Q701 -1233 701 -1233Q701 -1239 723 -1277Q751 -1326 758 -1341Q774 -1382 791 -1423Q819 -1482 863 -1507Q914 -1536 990 -1536Q1093 -1536 1166 -1447Q1234 -1364 1242 -1249L1268 -529H1127Q1126 -527 1120 -519Q1130 -450 1130 -424V-273Q1130 -267 1132.5 -259Q1135 -251 1135 -244Q1135 -169 1111 75Q1106 130 1076 219ZM1242 -550V-655Q1244 -716 1238 -902Q1229 -1165 1208 -1298Q1175 -1509 990 -1509Q835 -1509 798 -1371Q847 -1363 896 -1361Q945 -1359 1035 -1346Q1060 -1339 1060 -1311Q1060 -1274 1001 -1229V-550ZM1033 -1305Q1033 -1320 1026 -1327L816 -1343Q793 -1343 787 -1340Q728 -1229 728 -1236Q728 -1222 771 -1125Q809 -1120 884 -1103V-999Q780 -977 755 -949Q705 -886 595 -758H249Q222 -793 196 -793Q150 -794 143 -796Q164 -795 198 -784Q217 -768 220 -737Q223 -710 214 -695Q259 -710 264 -710Q271 -710 404.5 -697Q538 -684 545 -684Q664 -684 683 -696Q716 -717 753 -768Q782 -809 811 -850Q814 -847 820 -843Q826 -839 829 -836Q791 -805 793 -753L912 -866L931 -847Q851 -769 771 -690Q687 -609 618 -609Q610 -609 581.5 -611.5Q553 -614 548 -614L315 -598Q231 -598 203 -613Q205 -590 181 -588Q142 -584 128 -575V-529Q196 -512 197 -512Q210 -512 231 -523Q252 -534 301 -534Q308 -534 391.5 -531Q475 -528 481 -528Q677 -528 731 -540Q775 -550 845 -614Q903 -670 961 -726Q964 -721 973 -711V-1232Q1033 -1290 1033 -1305ZM769 -753Q705 -657 551 -657Q544 -657 410 -670.5Q276 -684 269 -684Q229 -684 197 -654Q202 -649 203 -641Q269 -619 296 -619Q303 -619 335 -624.5Q367 -630 372 -630H628Q646 -630 686 -654.5Q726 -679 746 -701Q755 -711 769 -753ZM1188 317L1049 235Q1068 151 1086 67Q1108 -36 1108 -107L1105 -529H973V-699Q908 -640 797 -553Q802 -513 779 -392Q754 -261 754 -220Q754 -195 765 -162Q750 -147 742 -147Q652 -254 562 -350Q528 -389 495 -428Q459 -464 422 -464Q395 -464 364.5 -437Q334 -410 331 -375L497 208Q484 230 436 259.5Q388 289 342 317ZM191 -706Q196 -764 167 -764Q158 -764 140 -745.5Q122 -727 122 -718Q122 -709 132 -693.5Q142 -678 146 -678Q173 -687 191 -706ZM888 -1248Q882 -1241 882 -1236Q859 -1242 814 -1253V-1272Q831 -1289 848 -1289Q889 -1289 889 -1255Q889 -1251 888 -1248Z"/>
</svg>