<svg xmlns="http://www.w3.org/2000/svg" viewBox="0 -2048 2048 2048">
	<path fill="currentColor" d="M1152 325H100Q203 271 213 266Q282 227 304 203L178 -375Q180 -389 195 -424Q210 -459 210 -464Q210 -468 196 -506Q180 -551 174 -573Q193 -573 205 -570.5Q217 -568 216 -568L220 -1100Q216 -1118 170 -1170Q103 -1244 100 -1248H361Q247 -1118 247 -1116V-571Q247 -565 256 -566Q268 -567 271 -566Q300 -555 317 -534Q323 -519 337 -489Q345 -487 361 -477Q436 -382 589 -192Q594 -201 618 -339Q644 -485 644 -529Q644 -557 643 -559Q618 -587 578 -643Q571 -655 571 -673Q571 -692 612 -756Q655 -817 699 -877Q754 -959 754 -1003Q754 -1014 747.5 -1040.5Q741 -1067 736 -1069Q692 -1072 636 -1084Q576 -1227 576 -1220Q576 -1220 639 -1319Q587 -1337 580 -1341Q550 -1358 550 -1388Q550 -1410 576 -1445Q561 -1454 559.5 -1465.5Q558 -1477 556 -1488Q583 -1506 610 -1506Q630 -1506 647.5 -1489.5Q665 -1473 665 -1456Q665 -1449 647 -1420.5Q629 -1392 629 -1385Q629 -1380 647 -1359Q707 -1506 859 -1506Q959 -1506 1012 -1466Q1073 -1419 1093 -1305Q1140 -1041 1126 -577V-512H990V-5Q984 65 979 208Q1037 248 1152 325ZM639 -1461Q627 -1485 608 -1485Q600 -1485 594.5 -1481.5Q589 -1478 587 -1478Q588 -1477 619 -1460V-1442Q597 -1437 584.5 -1413Q572 -1389 577 -1370Q592 -1364 618 -1350Q603 -1366 603 -1387Q603 -1420 639 -1461ZM1100 -533V-608Q1113 -1042 1067 -1310Q1037 -1485 857 -1485Q798 -1485 749 -1451Q695 -1414 676 -1350Q794 -1348 818 -1346Q897 -1338 927 -1309Q927 -1290 925 -1284Q901 -1253 871 -1200Q871 -1167 864 -1111L849 -533ZM304 -1222H158Q186 -1187 234 -1139Q259 -1167 304 -1222ZM1068 299Q1032 275 996 252Q953 224 953 199L968 -513H822L843 -1194Q848 -1209 875 -1249Q901 -1286 901 -1291Q901 -1328 726 -1328Q719 -1328 696 -1324Q673 -1320 668 -1320Q603 -1208 603 -1218Q603 -1223 656 -1104Q689 -1104 751 -1090Q775 -1079 775 -1006Q775 -935 638 -751Q597 -696 597 -673Q597 -654 620 -627.5Q643 -601 666 -575Q671 -570 671 -553Q671 -446 641 -294Q627 -245 611 -148Q605 -139 596 -139Q516 -248 345 -453Q330 -469 278 -469Q250 -469 226.5 -436.5Q203 -404 205 -374L330 216Q315 234 199 299ZM309 -493Q312 -514 273 -532Q240 -548 222 -547H200Q204 -540 233 -474Q265 -495 278 -495Q282 -495 291 -493Q297 -491 309 -493ZM760 -1247Q754 -1241 754 -1229H732Q732 -1229 681 -1246Q706 -1281 728 -1281Q736 -1281 745 -1268Q759 -1248 760 -1247Z"/>
</svg>