<svg xmlns="http://www.w3.org/2000/svg" viewBox="0 -2048 2048 2048">
	<path fill="currentColor" d="M1218 391H125L333 274L198 -332Q198 -335 200 -349Q204 -383 208 -397Q215 -421 233 -437L180 -560Q196 -551 203 -551Q209 -551 212 -593Q219 -708 234 -854Q173 -850 100 -835V-917Q202 -895 228 -895Q221 -910 167 -1008Q154 -1031 119 -1132Q114 -1146 114 -1149Q114 -1160 131 -1196Q143 -1221 186 -1238Q224 -1252 257 -1252Q262 -1252 301 -1244Q390 -1226 390 -1142Q390 -1098 348 -1017Q314 -957 280 -897Q314 -897 407 -917L411 -839Q269 -851 276 -851Q276 -849 275 -845Q275 -844 282 -740Q286 -674 297 -543Q337 -520 345 -509Q346 -508 369 -457Q383 -456 393 -446Q397 -442 473 -347L642 -134Q642 -134 642 -198Q642 -215 697 -508Q697 -522 693 -550Q672 -570 651 -590Q613 -626 613 -661Q613 -670 627.5 -700.5Q642 -731 649 -739Q677 -767 727 -828Q740 -853 768 -903Q814 -981 814 -1003Q814 -1073 800 -1081Q796 -1083 687 -1092Q669 -1148 657 -1174Q655 -1177 639 -1205Q625 -1227 625 -1233Q625 -1239 648 -1268Q674 -1302 676 -1305Q682 -1315 692 -1347Q669 -1349 602 -1374Q602 -1379 600 -1392.5Q598 -1406 598 -1413Q598 -1459 625 -1479L609 -1482Q606 -1494 599 -1519Q644 -1537 660 -1537Q652 -1537 696 -1529Q714 -1497 714 -1485Q714 -1478 693 -1449.5Q672 -1421 672 -1409Q672 -1396 700 -1378Q752 -1472 753 -1474Q782 -1512 847 -1530Q872 -1537 920 -1537Q1079 -1537 1150 -1391Q1170 -1350 1175 -1320Q1178 -1302 1179 -1244L1191 -492Q1155 -488 1071 -491Q1072 -459 1072 -404Q1072 -291 1059.5 -66.5Q1047 158 1047 271L1210 372ZM691 -1487Q690 -1495 682 -1509Q671 -1514 659 -1514Q651 -1514 625 -1507Q643 -1503 676 -1479Q621 -1452 621 -1413Q621 -1415 624 -1386Q639 -1381 670 -1373Q649 -1396 649 -1409Q649 -1433 691 -1487ZM1168 -513L1156 -1267Q1155 -1304 1149 -1326Q1095 -1514 921 -1514Q836 -1514 796 -1484Q761 -1457 724 -1376H944Q998 -1334 998 -1324Q998 -1294 979.5 -1271Q961 -1248 943 -1227Q933 -1211 933 -1168V-513ZM367 -1140Q367 -1221 278 -1225Q359 -1207 359 -1138Q359 -1087 292 -965Q367 -1074 367 -1140ZM343 -1124Q343 -1167 321 -1184Q294 -1205 254 -1205Q235 -1205 208 -1195Q176 -1184 171.5 -1171.5Q167 -1159 167 -1134Q167 -1096 200 -1035Q228 -989 255 -942Q343 -1103 343 -1124ZM229 -1225Q140 -1221 140 -1140Q140 -1074 215 -965Q147 -1089 147 -1138Q147 -1207 229 -1225ZM384 -860V-890H378Q379 -890 272 -874ZM1161 368Q1122 345 1083 322Q1023 284 1024 269L1042 -48Q1051 -207 1051 -201V-490H934Q922 -490 907 -503L913 -1212Q925 -1241 932 -1252Q945 -1274 961 -1283Q970 -1301 970 -1328Q941 -1349 936 -1349H727Q718 -1349 709 -1326Q703 -1311 697 -1295Q678 -1276 648 -1235Q663 -1211 688 -1161Q692 -1145 703 -1115Q739 -1113 775 -1111Q821 -1105 827 -1076Q837 -1028 837 -1000Q837 -947 748 -817Q715 -779 681 -741Q636 -688 636 -658Q636 -626 718 -559Q720 -549 720 -536V-533L666 -222Q666 -222 666 -154Q666 -136 659 -94Q648 -93 638 -103L636 -105Q577 -180 458 -330Q432 -366 374 -431Q357 -446 327 -446Q329 -446 294 -443Q279 -442 253.5 -421.5Q228 -401 225 -387Q225 -369 222 -334L358 282Q309 318 205 371ZM219 -874Q190 -877 126 -888V-862H135Q123 -862 219 -874ZM273 -549L252 -821L232 -549Q249 -550 273 -549ZM340 -466Q337 -477 328 -496Q302 -529 232 -529H216L252 -448Q283 -469 311 -469Q321 -469 340 -466ZM826 -1248Q788 -1248 732 -1255Q739 -1293 791 -1297Q805 -1276 826 -1248ZM782 -1272L780 -1274L776 -1273Z"/>
</svg>