<svg xmlns="http://www.w3.org/2000/svg" viewBox="0 -2048 2048 2048">
	<path fill="currentColor" d="M1790 338Q1769 350 1745 350Q1726 350 1608 303Q1537 275 1496 269L864 350Q856 351 848 351Q787 351 730 314Q667 272 667 215Q667 140 755 85Q783 68 901 19Q991 -18 1181 -77Q1235 -186 1246 -401Q1233 -391 1210 -380Q1102 -363 1045 -363L837 -379Q818 -379 784.5 -368Q751 -357 694 -357Q572 -357 524 -401Q510 -389 510 -379Q510 -385 530 -318Q540 -266 560 -166Q563 -152 578 -116Q591 -84 591 -79Q591 -54 574 -46Q473 5 453 4H392Q392 -4 394.5 -18.5Q397 -33 397 -38Q489 -42 489 -117Q489 -147 445 -263Q419 -326 394 -390Q393 -388 387 -381Q365 -295 342 -210Q314 -102 314 -38Q314 -25 315 -13Q211 10 146 10Q118 10 100 -2V-21Q110 -37 156.5 -41.5Q203 -46 217 -70Q220 -76 247 -204Q255 -269 264 -335Q276 -417 312 -475Q337 -515 468 -551Q466 -562 469 -583Q479 -597 495 -620Q505 -622 555 -622Q559 -630 559 -660Q559 -723 523 -855Q411 -741 370 -741Q356 -741 333 -764Q310 -787 310 -803Q310 -825 353 -928Q391 -1019 399 -1031Q429 -1078 452 -1095Q476 -1104 520 -1124Q523 -1132 528 -1145Q542 -1154 592 -1217Q637 -1273 669 -1284Q693 -1292 713 -1292Q759 -1292 794 -1254Q829 -1216 829 -1176Q829 -1148 791 -1097Q762 -1060 733 -1023Q721 -1004 721 -998Q721 -988 725 -985Q771 -974 843 -892Q915 -810 924 -760Q929 -729 921 -674Q924 -671 932 -671Q967 -671 981 -687Q1032 -755 1144 -891Q1181 -931 1231 -966Q1290 -1007 1321 -1005Q1320 -1026 1331 -1072Q1321 -1080 1285 -1085Q1228 -1092 1224 -1093Q1218 -1116 1192 -1173Q1169 -1224 1169 -1230Q1169 -1236 1182 -1256Q1198 -1281 1200 -1285Q1218 -1340 1237 -1395Q1264 -1470 1311 -1500Q1384 -1546 1456 -1546Q1496 -1546 1559.5 -1519Q1623 -1492 1647 -1462Q1674 -1428 1705 -1370Q1736 -1312 1736 -1301V-676H1636Q1583 -497 1583 -420Q1583 -413 1587 -391Q1591 -366 1591 -361Q1599 -305 1606 -182Q1606 -178 1617 -67Q1628 40 1628 48Q1628 87 1619 108Q1605 136 1591 164Q1625 220 1683 254Q1699 263 1790 303ZM1709 -704V-1301Q1710 -1325 1648 -1420Q1614 -1472 1529 -1506Q1484 -1524 1466 -1524Q1453 -1524 1406 -1510Q1354 -1495 1327 -1479Q1273 -1447 1251 -1358Q1361 -1358 1421 -1360Q1468 -1362 1453 -1362Q1473 -1362 1500 -1340Q1531 -1315 1531 -1287Q1531 -1272 1512.5 -1249Q1494 -1226 1478 -1221V-704ZM1499 -1289Q1499 -1309 1469 -1323Q1444 -1335 1425 -1335H1246Q1240 -1315 1220 -1272Q1202 -1234 1202 -1227Q1202 -1227 1221.5 -1183.5Q1241 -1140 1240 -1115Q1277 -1111 1315 -1107Q1353 -1103 1364 -1089Q1355 -1071 1350.5 -1033.5Q1346 -996 1338 -985Q1299 -976 1252 -949Q1183 -909 1074 -778Q1047 -732 997 -666Q995 -665 927 -641Q914 -610 905 -564Q1056 -573 1162 -700Q1160 -714 1165 -737Q1211 -792 1308 -930Q1325 -930 1331 -922L1185 -717Q1196 -701 1221.5 -667Q1247 -633 1258 -617L1455 -813V-1229Q1499 -1275 1499 -1289ZM802 -1179Q802 -1205 772 -1235Q742 -1265 713 -1265Q646 -1265 629 -1213Q686 -1194 721 -1180Q717 -1169 717 -1163Q717 -1153 732.5 -1148.5Q748 -1144 748 -1125Q748 -1120 741.5 -1100Q735 -1080 736 -1071Q802 -1130 802 -1179ZM1606 -675L1594 -682Q1552 -671 1488 -614Q1391 -527 1381 -520Q1285 -450 1273 -404Q1264 -367 1251 -247Q1240 -142 1219 -88Q1368 -132 1579 -142V-172Q1579 -179 1568.5 -299Q1558 -419 1558 -425Q1558 -540 1606 -675ZM1520 -676H1454V-773Q1330 -665 1191 -498Q1177 -481 1133 -477Q1104 -475 1074 -474Q1011 -470 889 -459Q879 -410 840 -403L1064 -390Q1153 -390 1227 -418Q1240 -433 1260 -453Q1372 -542 1520 -676ZM1239 -592Q1214 -635 1172 -676Q1069 -554 894 -540Q901 -497 900 -488H966Q1099 -483 1157 -505Q1181 -514 1204 -544Q1222 -568 1239 -592ZM840 -703Q840 -737 809 -778Q783 -811 756 -844Q732 -760 732 -719Q732 -714 734.5 -682.5Q737 -651 737 -637L733 -629Q800 -637 834 -645Q834 -654 837 -675.5Q840 -697 840 -703ZM596 -990V-1021Q580 -1026 548 -1042Q548 -1077 546 -1081Q531 -1075 505 -1063Q508 -1060 513 -1052Q518 -1044 521 -1041Q489 -1009 458 -998Q448 -962 425 -893Q454 -936 506 -964.5Q558 -993 596 -990ZM899 -703Q899 -788 841 -861Q788 -928 705 -962Q698 -972 698 -994Q698 -1016 705.5 -1058.5Q713 -1101 713 -1123V-1127Q683 -1150 686 -1164Q621 -1189 616 -1189Q610 -1189 548 -1127Q584 -1104 575 -1056Q592 -1051 619 -1035V-966L615 -962Q608 -962 601 -965Q594 -968 589 -968Q552 -968 482 -906Q432 -862 383 -817L370 -825Q393 -887 435 -1012Q453 -1023 461 -1023Q450 -1043 449 -1054Q416 -993 382 -932Q337 -845 337 -809Q337 -795 349 -779Q361 -763 375 -763Q401 -763 524 -892Q533 -885 546 -867Q554 -840 570 -759Q586 -673 586 -647Q586 -573 512 -536Q445 -510 378 -484Q417 -479 457 -473Q503 -462 517 -428Q551 -451 607 -455Q655 -458 702 -462Q737 -468 737 -506Q737 -535 721 -610Q705 -685 705 -714Q705 -853 756 -887Q852 -786 867 -727Q868 -723 868 -635Q868 -553 834 -505Q836 -506 840 -507Q855 -507 855 -479Q855 -456 838 -438L847 -429Q862 -447 873 -471Q872 -486 872 -516Q872 -544 885.5 -608Q899 -672 899 -703ZM839 -622Q825 -619 793.5 -610.5Q762 -602 748 -599Q751 -591 754 -573Q757 -555 760 -547Q808 -553 834 -553Q834 -550 836.5 -569.5Q839 -589 839 -622ZM812 -524H765L759 -477H801Q796 -496 812 -524ZM1601 42Q1601 -37 1584 -114H1535Q1551 -114 1436 -100Q1046 -54 807 93Q838 129 890 193Q1049 134 1183 134Q1253 134 1357 153Q1461 172 1496 172Q1601 172 1601 42ZM553 -600H512Q493 -582 495 -569Q500 -568 505 -568Q537 -568 553 -600ZM736 -436V-446Q675 -429 611 -433L626 -422Q687 -422 736 -436ZM818 -442Q819 -442 803.5 -445Q788 -448 765 -448Q766 -427 760 -416Q640 -401 651 -401Q632 -401 548 -415Q601 -385 683 -385Q688 -385 807 -402Q797 -424 818 -442ZM1758 322Q1725 307 1660 268Q1640 253 1606 215Q1578 183 1572 183Q1567 183 1546 191Q1525 199 1515 199L1180 156Q1119 156 1025 180Q951 200 876 221Q852 187 828 152Q792 102 775 102Q747 102 719 147Q694 187 694 210Q694 318 872 318L1483 242Q1529 242 1625 282Q1721 322 1724 322ZM564 -67Q491 -277 491 -399Q491 -411 492 -420Q471 -444 445 -444Q418 -444 418 -406Q418 -399 467 -263Q516 -127 516 -120Q516 -93 489 -45Q510 -55 564 -67ZM402 -453Q405 -453 385.5 -456.5Q366 -460 333 -460Q306 -417 286 -285Q263 -129 238 -59Q227 -29 170 -20Q182 -20 209.5 -24Q237 -28 243 -28Q252 -28 288 -18Q289 -117 323 -250.5Q357 -384 402 -453ZM1374 -1244H1283V-1263Q1306 -1287 1323 -1287Q1351 -1287 1374 -1263ZM656 -1126Q654 -1126 648 -1122.5Q642 -1119 634 -1119Q621 -1119 597 -1143Q597 -1150 598 -1155Q608 -1168 626 -1168Q637 -1168 656 -1126Z"/>
</svg>