<svg xmlns="http://www.w3.org/2000/svg" viewBox="0 -2048 2048 2048">
	<path fill="#000000" d="M1272 355L1265 348Q1254 348 1226 351.5Q1198 355 1193 355Q1188 355 1092 329Q985 299 938 290L335 372Q164 351 164 258Q164 143 362 38L444 -310L100 -549L115 -570L450 -337L504 -565L529 -559L473 -321L686 -173Q697 -222 714 -319Q733 -472 733 -582Q733 -618 731 -621Q725 -632 678 -701Q646 -750 646 -758Q646 -792 693 -857Q803 -1010 803 -1072Q803 -1102 760 -1107Q730 -1110 701 -1113Q691 -1138 681 -1162Q664 -1196 635 -1211Q648 -1232 666 -1278Q691 -1385 756 -1455Q826 -1529 914 -1529Q952 -1529 1006 -1506Q1066 -1480 1088 -1447Q1096 -1435 1101 -1426Q1110 -1465 1143.5 -1495Q1177 -1525 1216 -1525Q1267 -1525 1267 -1463Q1267 -1435 1218 -1408Q1180 -1387 1141 -1380Q1183 -1329 1255 -1301L1246 -1277Q1187 -1297 1133 -1349Q1156 -1273 1161 -1024Q1161 -1008 1162 -996Q1169 -892 1181 -620Q1140 -621 1100 -618Q1072 -557 1079 -457L1112 3Q1116 53 1104 96.5Q1092 140 1079 184Q1117 231 1202 300Q1224 301 1268 302Q1268 301 1270 318Q1272 335 1272 355ZM1240 -1463Q1240 -1496 1218 -1496Q1139 -1496 1122 -1403Q1240 -1420 1240 -1463ZM1154 -647Q1145 -778 1133 -1039Q1130 -1187 1130 -1198Q1125 -1296 1110 -1349Q1066 -1502 911 -1502Q850 -1502 796 -1458Q742 -1414 722 -1351H919Q976 -1351 976 -1310Q976 -1276 934 -1235V-647ZM1073 -143L1058 -406V-553Q1058 -562 1064 -594Q1075 -609 1056 -620H905V-1239Q955 -1284 955 -1305Q955 -1312 952 -1317.5Q949 -1323 949 -1326H712Q707 -1312 683 -1270Q662 -1233 662 -1226Q662 -1225 688.5 -1194.5Q715 -1164 717 -1135Q757 -1130 798 -1125Q825 -1120 825 -1074Q825 -1025 787 -956Q776 -937 709 -835Q673 -780 673 -760Q673 -754 716.5 -688.5Q760 -623 760 -617Q760 -522 714 -200Q713 -190 706 -163Q701 -141 701 -134V-95Q975 -154 1017 -154Q1044 -154 1073 -143ZM680 -145L467 -294L392 22Q471 -17 580 -55Q671 -86 671 -87Q675 -119 680 -145ZM1090 39L1078 -121Q1066 -121 1044.5 -124Q1023 -127 1017 -127Q905 -127 731 -77Q582 -35 458 22Q363 66 295 109Q284 116 284 127Q359 161 421 231Q485 209 549 187Q619 164 665 160L1001 209Q1049 198 1073 136Q1093 85 1090 39ZM1209 326Q1190 321 1165 311Q1151 301 1113 255Q1080 215 1074 215Q1067 215 1042 224Q1013 234 1003 236L671 187Q639 182 529 220Q416 258 419 258Q358 209 259 139Q186 196 186 263Q186 303 255 327Q308 345 359 345Q454 345 601 322Q720 303 839 284Q949 269 947 269Q995 269 1087 300Q1174 330 1209 326ZM819 -1243Q802 -1239 781 -1239Q759 -1239 739 -1243Q739 -1255 733 -1261Q758 -1286 776 -1286Q814 -1286 819 -1262Z"/>
</svg>