<svg xmlns="http://www.w3.org/2000/svg" viewBox="25.6 -1578.4 1940.8 2008.8">
	<path fill="currentColor" d="M1892 -552Q1892 -497 1843 -464Q1746 -407 1561 -287Q1559 -264 1552 -215L1589 57Q1588 87 1557 163Q1569 169 1588 182Q1594 188 1601.5 208Q1609 228 1616 235Q1683 302 1780 305Q1780 347 1779 351H1763Q1695 351 1613 319.5Q1531 288 1496 288L876 352Q653 352 653 240Q653 166 776 73Q772 74 675 106Q675 110 664 66Q827 -5 1183 -169Q1217 -369 1217 -481Q1217 -546 1212 -554Q1173 -615 1134 -675Q1081 -631 1050 -618Q996 -592 941 -565Q867 -531 826 -531Q754 -531 754 -616Q754 -662 828 -830Q872 -927 917 -1024Q939 -1089 961 -1153Q1000 -1248 1070 -1307Q1082 -1307 1100 -1289Q1065 -1227 1041 -1172Q1039 -1169 1044 -1164Q1049 -1175 1059 -1196H1075Q1083 -1196 1091 -1189Q1102 -1179 1105 -1178L935 -742H941Q1022 -813 1186 -956Q1194 -963 1295 -1025Q1296 -1027 1297.5 -1035Q1299 -1043 1302 -1049Q1268 -1054 1202 -1065Q1148 -1205 1148 -1196Q1148 -1202 1160 -1232Q1175 -1267 1178 -1279Q1241 -1504 1419 -1504Q1506 -1504 1578 -1448Q1654 -1389 1672 -1295Q1683 -1238 1686 -1128Q1689 -1012 1697 -960Q1715 -932 1752 -870Q1892 -617 1892 -552ZM631 356H112Q100 337 100 317Q100 206 192 129Q277 59 382 59Q561 59 612 231Q631 295 631 295ZM1684 -660V-710Q1684 -711 1675 -840Q1664 -977 1663 -1044Q1661 -1152 1659 -1189Q1653 -1282 1640 -1317Q1613 -1390 1551 -1436.5Q1489 -1483 1419 -1483Q1272 -1483 1223 -1324H1410Q1472 -1290 1472 -1270Q1472 -1247 1460.5 -1227.5Q1449 -1208 1430 -1200V-660ZM1738 -570Q1733 -591 1705 -632H1569Q1564 -560 1548 -425ZM1866 -555Q1866 -602 1816 -707Q1777 -789 1741 -844Q1695 -913 1695 -901Q1695 -720 1707 -671Q1713 -645 1740 -610.5Q1767 -576 1770 -566Q1675 -489 1484 -335Q1434 -301 1350 -241Q1364 -231 1364 -219Q1364 -218 1344 -177L1357 -164H1378Q1399 -164 1428 -187Q1432 -190 1443 -208Q1447 -221 1457 -240Q1487 -276 1629 -357Q1787 -447 1852 -505Q1866 -517 1866 -555ZM1541 -581V-634H1408V-1213Q1440 -1233 1440 -1252Q1440 -1262 1422 -1279.5Q1404 -1297 1394 -1297H1213Q1169 -1208 1169 -1199Q1169 -1191 1190 -1151Q1218 -1097 1223 -1086Q1282 -1084 1324 -1075V-1003Q1245 -974 1063 -808Q928 -685 900 -685Q892 -685 890.5 -687.5Q889 -690 887 -690Q926 -800 995 -985Q1031 -1051 1074 -1164Q1041 -1111 1033 -1111Q1027 -1111 999 -1125V-1140Q1020 -1198 1040 -1238Q1004 -1193 976 -1119Q952 -1053 928 -987Q889 -907 849 -827Q781 -680 781 -619Q802 -552 823 -552Q886 -552 1026 -634Q1180 -724 1207 -804Q1217 -820 1234 -852Q1245 -866 1245 -866Q1248 -863 1252 -862Q1256 -861 1259 -858Q1164 -684 1164 -683Q1164 -677 1195 -631Q1231 -579 1242 -554Q1249 -539 1247 -510Q1243 -460 1243 -475Q1243 -412 1231 -300Q1229 -282 1220 -243Q1212 -208 1212 -203V-181Q1243 -191 1299 -214Q1334 -266 1359 -280Q1437 -325 1487 -365Q1501 -374 1518 -395Q1543 -517 1541 -581ZM1529 -171V-265Q1506 -261 1483 -224Q1467 -197 1451 -171Q1469 -174 1518 -176Q1523 -180 1529 -171ZM1318 -141Q1313 -141 1299 -147.5Q1285 -154 1278 -154Q1272 -154 1241 -137.5Q1210 -121 1201 -119Q1226 -119 1318 -141ZM1185 -105L1183 -113L1165 -107V-99ZM1562 54L1535 -153H1491Q1429 -153 1225 -89Q1075 -43 1011 -18Q862 40 781 105Q813 122 837 156Q868 199 873 203Q900 192 981 175Q1030 165 1113 165Q1220 165 1379 178Q1400 180 1442 186Q1481 192 1485 192Q1521 192 1545 138Q1565 92 1562 54ZM1717 322Q1678 317 1631 278Q1584 239 1561 192Q1497 219 1499 219L1124 187Q1012 187 854 230Q816 155 756 118Q674 198 674 235Q674 282 741 309Q793 330 850 330L1509 261Q1519 261 1717 322ZM605 335V295Q605 299 585 231Q543 86 382 86Q352 86 294 98Q250 107 188.5 166Q127 225 127 265V335ZM1312 -1213H1239V-1232Q1282 -1254 1283 -1254Q1291 -1254 1312 -1232Z"/>
</svg>