<svg xmlns="http://www.w3.org/2000/svg" viewBox="0 -2048 2048 2048">
	<path fill="#000000" d="M1537 -301Q1534 -298 1527.5 -294.5Q1521 -291 1518 -288Q1472 -357 1472 -357V-513Q1472 -529 1451 -540Q1436 -549 1428 -549Q1419 -549 1396 -525.5Q1373 -502 1373 -493V370H765V-217Q749 -186 729 -88Q699 28 651 249Q658 279 652 337Q636 371 603 371Q596 371 581 365.5Q566 360 559 360Q552 360 503.5 365.5Q455 371 448 371Q400 371 339 359V307Q396 292 454 276Q527 251 544 193Q554 157 560 69Q564 35 571 -29Q579 -116 598 -247Q602 -288 607 -330Q619 -387 656 -400Q726 -425 842 -441Q1003 -464 1036 -471Q1034 -473 1017 -473Q1033 -473 908 -453Q900 -452 761 -438Q733 -435 671 -418Q613 -402 608 -402Q583 -402 553 -415Q544 -419 518 -442Q495 -462 489 -462Q459 -462 448 -435L513 -176Q510 -158 463 -130.5Q416 -103 390 -103H351Q347 -110 347 -124Q347 -138 351 -146Q360 -143 368 -143Q392 -143 408 -172Q420 -194 420 -212Q420 -254 390 -325Q368 -377 346 -429H341Q309 -319 273 -104Q262 -101 237 -104Q206 -108 205 -108Q199 -108 174 -102.5Q149 -97 143 -97Q137 -97 123 -100Q109 -103 100 -103V-140Q124 -143 149 -146Q183 -152 195 -183Q217 -239 230 -333Q243 -432 259 -477Q274 -519 327 -545Q373 -565 420 -585Q399 -606 399 -625Q399 -649 432 -669Q454 -679 475 -689Q469 -734 449 -816Q418 -790 388 -765Q344 -729 320 -729Q301 -729 287 -746Q273 -763 273 -783Q273 -834 324 -931Q372 -1021 395 -1032Q434 -1051 450 -1051Q449 -1058 450 -1071Q463 -1080 502 -1119Q502 -1122 493 -1134Q487 -1166 500 -1189Q491 -1218 491 -1217Q509 -1235 516 -1235Q529 -1235 566 -1186Q599 -1197 617 -1197Q655 -1197 687 -1157Q715 -1122 715 -1094Q715 -1074 672 -1019Q625 -960 622 -949Q622 -944 631 -937Q675 -924 732 -847Q780 -779 800 -723Q835 -725 890 -741Q905 -753 961 -842Q1064 -1006 1157 -1024Q1159 -1025 1167 -1032Q1163 -1047 1142.5 -1048.5Q1122 -1050 1102 -1051Q1102 -1085 1077 -1123Q1052 -1161 1052 -1162Q1052 -1166 1096 -1254Q1085 -1268 1063.5 -1272.5Q1042 -1277 1020 -1281Q1009 -1308 1009 -1328Q1009 -1351 1031 -1384Q1026 -1386 1014 -1412V-1430Q1051 -1442 1069 -1442Q1118 -1442 1118 -1396Q1118 -1390 1098.5 -1362.5Q1079 -1335 1079 -1328Q1079 -1303 1103 -1295Q1113 -1319 1136 -1360Q1138 -1362 1199 -1410L1145 -1530H1417Q1392 -1491 1357 -1413Q1483 -1340 1482 -1184V-790H1367Q1361 -707 1372 -538Q1416 -571 1433 -571Q1496 -571 1496 -461Q1496 -444 1494 -416.5Q1492 -389 1492 -382Q1492 -371 1494 -368Q1511 -344 1537 -301ZM1379 -1509H1178Q1204 -1472 1223 -1415Q1273 -1431 1334 -1421Q1355 -1472 1379 -1509ZM1090 -1403Q1078 -1415 1047 -1407Q1071 -1395 1083 -1383Q1083 -1386 1086.5 -1393Q1090 -1400 1090 -1403ZM1455 -813V-1206Q1455 -1279 1409 -1338Q1357 -1404 1273 -1404Q1232 -1404 1187 -1365.5Q1142 -1327 1135 -1285Q1171 -1290 1216 -1290Q1335 -1290 1335 -1241Q1335 -1197 1292 -1174V-813ZM1068 -1371Q1036 -1355 1036 -1341V-1302Q1039 -1302 1049.5 -1299Q1060 -1296 1063 -1296Q1048 -1333 1068 -1371ZM1308 -1227V-1245Q1282 -1262 1256 -1262H1124Q1079 -1171 1079 -1165Q1079 -1166 1102.5 -1134.5Q1126 -1103 1124 -1073Q1165 -1073 1194 -1058Q1196 -1021 1181 -962Q1161 -934 1104 -871Q1058 -818 1058 -813Q1058 -806 1079 -763Q1104 -710 1109 -696Q1129 -720 1208 -804Q1270 -870 1270 -878V-1188Q1308 -1214 1308 -1227ZM1161 -976V-995H1137Q1106 -995 1007 -858Q906 -717 896 -714Q855 -708 791 -689V-637H820Q868 -635 930 -654Q955 -662 1005 -709Q1052 -754 1052 -762Q1052 -768 1041 -786.5Q1030 -805 1030 -811Q1030 -836 1047 -855Q1061 -870 1118 -927Q1161 -969 1161 -976ZM687 -1099Q687 -1122 663 -1146Q639 -1170 614 -1170Q573 -1170 546 -1128Q573 -1123 627 -1101Q621 -1095 624 -1084Q628 -1079 636 -1068Q641 -1030 634 -1012Q687 -1080 687 -1099ZM1319 -787Q1288 -787 1269 -793V-838Q1255 -822 1146 -679Q1073 -583 1015 -545Q974 -518 895 -512Q830 -507 766 -503Q760 -489 748 -463H782Q833 -460 919 -473Q1012 -487 1056 -507Q1156 -552 1319 -787ZM1085 -685Q1085 -712 1066 -740Q1006 -656 926 -630Q912 -626 781 -608Q781 -614 776 -569Q772 -541 781 -533H798Q820 -533 885 -543Q969 -556 1007 -573Q1041 -588 1064 -624Q1085 -656 1085 -685ZM714 -703Q684 -763 652 -811Q627 -762 628 -736V-702Q664 -695 686 -698Q714 -703 714 -703ZM512 -948V-968Q471 -972 471 -1006Q471 -1012 474 -1017Q460 -1013 442 -1004Q453 -997 453 -988Q453 -960 401 -944Q396 -921 384 -876Q414 -903 512 -948ZM769 -704Q769 -735 723 -812Q678 -886 653 -901Q650 -903 610 -918Q595 -923 595 -947Q595 -986 616 -1059Q607 -1064 581 -1089Q564 -1105 538 -1105Q526 -1105 480 -1059Q490 -1035 501 -1009Q512 -983 535 -981V-929Q504 -922 449 -895Q412 -861 336 -794Q333 -797 329 -798.5Q325 -800 322 -803Q360 -888 375 -957Q301 -863 301 -794Q301 -774 319 -756Q359 -776 456 -854Q463 -850 473 -840Q508 -668 508 -647Q508 -590 454 -563Q399 -541 344 -519Q376 -514 417 -495Q454 -478 456 -478Q464 -478 603 -502Q624 -506 633 -524Q630 -558 617 -635Q606 -705 606 -710Q606 -778 634 -839Q643 -844 657 -854Q692 -806 740 -720Q747 -699 747 -671Q747 -647 741 -609Q733 -561 732 -550Q737 -550 746 -544Q749 -571 759 -638Q769 -699 769 -704ZM714 -631V-663Q676 -672 633 -662Q636 -649 645 -631ZM744 -508L737 -526H729L736 -505ZM722 -530L714 -533L707 -519L715 -516ZM714 -603H653Q659 -530 652 -506H681Q695 -541 714 -603ZM692 -483Q671 -483 672 -464V-446Q682 -452 692 -483ZM480 -622V-658H460Q447 -648 426 -630V-610Q433 -607 445 -598Q467 -609 480 -622ZM1345 -60V-304Q1338 -286 1317 -266Q1292 -244 1272 -244H851V343H1016V-60ZM1346 -497L1333 -756Q1298 -710 1206 -618Q1102 -515 1098 -510Q1087 -487 1065 -458Q991 -423 912 -410Q830 -399 749 -387Q710 -380 674 -378Q645 -376 629 -291Q614 -213 587 47Q582 93 571 177Q557 259 509 283Q506 285 373 324Q370 330 361 342Q378 349 420 349Q427 349 489.5 341Q552 333 559 333Q571 333 603 349Q631 321 631 313Q631 232 629 239Q632 230 696 -45Q705 -92 713 -138Q725 -195 743 -229Q766 -271 800 -271H1278Q1346 -271 1346 -497ZM605 -460V-469L568 -475V-466ZM1345 -16V-36H1039V343H1057V-16ZM1345 343V13H1086V343ZM823 343V-243H792V343ZM486 -179Q486 -183 460 -290Q432 -407 424 -461Q423 -462 379 -484Q366 -471 366 -454Q366 -447 407 -333Q448 -219 448 -212Q448 -179 421 -142H440Q486 -170 486 -179ZM349 -494H296Q277 -452 254 -312Q234 -189 192 -131Q207 -140 225 -134Q235 -130 245 -125Q274 -281 329 -469Q341 -485 349 -494ZM1210 -1187H1146Q1146 -1198 1139 -1205Q1164 -1230 1170 -1230H1198Q1201 -1214 1210 -1187ZM567 -1058Q561 -1050 561 -1045Q545 -1051 513 -1068Q513 -1094 538 -1094Q563 -1094 567 -1058Z"/>
</svg>