<svg xmlns="http://www.w3.org/2000/svg" viewBox="0 0 593 1000">
  <g transform="scale(1,-1) translate(0,-1000)">
    <path d="M236 864Q251 864 251 851Q251 844 244.0 838.5Q237 833 229 833Q211 833 211 848Q211 854 219.0 859.0Q227 864 236 864ZM276 913Q298 913 316.5 883.0Q335 853 363 775Q371 753 382.0 716.0Q393 679 399 662L473 702L397 835Q393 840 382.0 854.5Q371 869 369.0 872.0Q367 875 359.0 884.5Q351 894 347.5 897.0Q344 900 336.5 906.0Q329 912 322.0 915.5Q315 919 305 924Q301 931 286 931Q270 931 249.5 923.5Q229 916 223 909H225Q229 909 248.0 911.0Q267 913 276 913ZM190 845Q190 823 196.5 814.0Q203 805 220 805Q222 805 228.0 805.5Q234 806 237 806Q263 806 287.5 776.0Q312 746 312 732Q312 724 305.5 714.5Q299 705 289.5 696.0Q280 687 278 684L254 641Q261 634 287.0 614.0Q313 594 329.0 575.5Q345 557 354 533Q385 448 394.0 416.5Q403 385 403 356V349Q401 305 390.5 248.0Q380 191 376 156L373 133L553 166V169Q553 271 543 352Q542 360 535.5 378.0Q529 396 518.5 422.0Q508 448 504 460Q490 500 461.0 551.5Q432 603 421 628L401 617Q384 609 378 621L335 765Q317 815 304.5 841.5Q292 868 286.5 874.0Q281 880 272 886Q267 887 259 887Q249 887 229.0 884.0Q209 881 200 880Q190 870 190 845ZM44 313Q68 329 68 329Q69 330 76.5 333.0Q84 336 91.0 339.0Q98 342 98 343Q99 345 99 353Q99 377 86 391Q85 390 82.5 386.0Q80 382 79.0 381.0Q78 380 66 345Q55 331 44 313ZM91 487Q65 483 65 476Q65 462 75 452ZM65 897Q65 898 67.0 904.5Q69 911 76.0 922.0Q83 933 92.5 943.0Q102 953 120.5 960.5Q139 968 161 968Q190 968 232 952Q235 953 236.0 954.0Q237 955 237.5 955.5Q238 956 239 956Q300 1000 346 1000Q382 1000 434 960Q440 956 440 948Q440 942 435.5 937.5Q431 933 425 933Q421 933 395.0 951.5Q369 970 346 970Q325 970 306 962Q312 960 312 960Q331 955 345.0 949.0Q359 943 373.0 929.0Q387 915 391.0 911.0Q395 907 411.5 883.5Q428 860 430 857L518 705Q524 692 517 683L456 647Q468 620 498.0 565.0Q528 510 542 472Q580 374 582 358Q593 269 593 169Q593 161 585 97Q587 91 587 67Q587 64 586.0 59.0Q585 54 585 41V33Q585 11 579.0 5.5Q573 0 560 0H472Q468 0 461.0 5.5Q454 11 453 18Q453 23 480.5 35.0Q508 47 544 58Q544 62 543.5 68.5Q543 75 543 77Q543 84 550 135Q426 110 368 102Q367 92 365.5 81.0Q364 70 362.0 57.5Q360 45 359 37V34Q359 12 352.5 6.0Q346 0 321 0H253Q226 0 226 18Q226 32 325 65Q324 67 324.0 71.0Q324 75 325.0 83.5Q326 92 329.5 115.0Q333 138 336 162Q341 200 352.5 251.0Q364 302 366 343Q366 346 366.5 351.0Q367 356 367 358Q367 362 366.5 365.0Q366 368 365.5 371.5Q365 375 364.0 380.5Q363 386 361.5 390.0Q360 394 357.5 402.0Q355 410 352.5 417.0Q350 424 346.0 436.0Q342 448 338.0 458.0Q334 468 327.5 486.0Q321 504 316 519Q313 527 303 543Q298 541 249.5 518.5Q201 496 175 496Q161 496 150 500Q150 500 103 420Q133 384 133 354Q133 342 129 332Q128 329 117.5 321.0Q107 313 102 307Q92 295 83.5 287.5Q75 280 71.0 277.5Q67 275 63.0 273.5Q59 272 58 271Q38 258 31 258Q4 261 4 279Q4 287 13 293V294Q0 307 0 319Q0 333 12.5 353.5Q25 374 41.0 393.5Q57 413 59 418Q28 445 28 477Q28 527 96 540Q98 540 106.5 541.5Q115 543 120 544Q158 598 207 633Q208 640 212 648L244 705Q250 713 269 732Q255 758 249.5 762.5Q244 767 228 767H210Q154 767 154 842Q154 901 186 924Q187 925 189.5 926.5Q192 928 194.0 929.5Q196 931 198 932Q176 938 162 938Q138 938 123.0 929.0Q108 920 103.5 910.0Q99 900 93.5 891.0Q88 882 80 882Q74 882 69.5 886.5Q65 891 65 897ZM267 582Q255 592 244 599Q239 594 229.5 588.0Q220 582 197 553Q216 558 239.5 569.0Q263 580 267 582Z" fill="currentColor"/>
  </g>
</svg>