<svg xmlns="http://www.w3.org/2000/svg" viewBox="0 -2048 2048 2048">
	<path fill="#000000" d="M1284 322H100Q100 268 101 188Q274 188 305 181Q314 179 429 114Q443 106 443 97L334 -355Q336 -389 361 -426Q389 -467 419 -467Q451 -467 556 -361Q617 -297 678 -233L713 -566Q713 -569 684.5 -595.5Q656 -622 656 -641Q656 -663 737.5 -784.5Q819 -906 817 -943Q808 -956 769 -961Q736 -964 703 -967Q705 -974 705 -982Q705 -1011 656 -1099Q680 -1162 741 -1277Q749 -1288 801 -1329Q848 -1365 848 -1374Q848 -1391 786 -1484Q789 -1487 798 -1494Q822 -1496 939 -1496Q1037 -1496 1097 -1490Q1095 -1485 1060 -1434Q1035 -1398 1035 -1366Q1035 -1335 1046 -1324Q1077 -1292 1109 -1219Q1124 -1185 1144 -1125L1159 -489H1024V-168Q1026 -85 983 112Q1033 147 1090 183H1284ZM1056 -1474H828Q869 -1415 870 -1362Q979 -1364 1008 -1341Q1004 -1393 1056 -1474ZM1124 -515V-1011Q1122 -1106 1116 -1136Q1075 -1340 908 -1340Q888 -1340 860 -1333Q843 -1329 801 -1300Q750 -1263 750 -1238V-1221Q750 -1221 834 -1221Q978 -1221 978 -1166Q978 -1159 949.5 -1115.5Q921 -1072 921 -1067V-515ZM1040 180Q988 144 952 122Q965 80 984 -38Q1004 -173 1004 -246V-490Q955 -484 900 -490V-1084Q900 -1100 950 -1165Q946 -1154 946 -1186H730Q725 -1173 705 -1137Q687 -1106 687 -1099Q687 -1093 698.5 -1076Q710 -1059 711 -1056Q726 -1009 729 -988Q812 -980 815 -978Q843 -968 843 -919Q843 -896 785 -813Q753 -769 722 -726Q682 -658 682 -644Q682 -616 734 -584Q726 -444 711 -299Q710 -268 709 -237Q706 -200 685 -192Q642 -235 564.5 -316.5Q487 -398 452 -433Q444 -441 425 -441Q395 -441 376 -409Q360 -383 360 -353L474 116L360 180ZM1263 296V209H121V296ZM843 -1120Q843 -1117 840 -1111Q837 -1105 837 -1102Q806 -1107 761 -1107L755 -1113V-1127Q779 -1148 799 -1148Q838 -1148 843 -1120Z"/>
</svg>