<svg xmlns="http://www.w3.org/2000/svg" viewBox="0 0 632 1000">
  <g transform="scale(1,-1) translate(0,-1000)">
    <path d="M370 839Q361 836 360.0 835.5Q359 835 372 839ZM341 902Q351 893 369.0 885.5Q387 878 393 874V962Q392 971 388 975Q379 984 361 984Q350 984 346 976Q347 975 351 973Q369 963 369 953Q369 944 356.0 927.0Q343 910 341 902ZM415 874Q419 877 437.0 885.0Q455 893 467 902Q465 910 452.5 927.0Q440 944 440 953Q440 963 458 973Q462 975 463 976Q459 984 448 984Q418 984 415 962ZM317 587Q322 578 333.5 560.0Q345 542 351.5 530.0Q358 518 364.0 499.0Q370 480 370 461Q370 440 368.0 425.5Q366 411 361.0 392.0Q356 373 354 365Q341 303 338.5 240.0Q336 177 332 145L330 124L497 155V157Q497 184 493.5 210.5Q490 237 483.0 275.5Q476 314 472 346Q468 377 466.0 405.0Q464 433 462.5 466.0Q461 499 459 522L438 519H432Q420 519 419 530L426 668Q426 717 423.5 744.0Q421 771 418.5 777.5Q416 784 410 792Q401 796 391.5 799.0Q382 802 368.0 805.0Q354 808 345 810Q334 805 327.0 786.5Q320 768 320 758Q322 753 322 753Q328 743 348.5 737.0Q369 731 381 715Q388 706 390.5 697.0Q393 688 394.0 676.5Q395 665 397 658Q397 657 397.5 656.0Q398 655 398 654Q398 645 390.0 637.5Q382 630 366 622L351 615ZM432 809Q445 792 449.5 767.0Q454 742 454 668Q454 620 451 559L528 570L503 708Q500 716 495.0 733.0Q490 750 488.5 755.0Q487 760 483.0 771.0Q479 782 475.0 787.0Q471 792 465.0 800.0Q459 808 451 816Q446 833 400 833Q383 833 374 829Q376 828 402.0 821.0Q428 814 432 809ZM360 787Q381 787 381 774Q381 768 375.0 763.5Q369 759 362.0 759.0Q355 759 349.5 763.5Q344 768 344 775Q344 787 360 787ZM52 737Q55 754 63.0 763.0Q71 772 79.0 774.5Q87 777 93.0 784.0Q99 791 99 804Q99 819 91.0 827.0Q83 835 74 835Q67 835 58.0 830.0Q49 825 41.0 818.5Q33 812 26.5 805.0Q20 798 16 793L11 788Q0 788 0 807Q0 822 17.5 836.0Q35 850 50.5 857.0Q66 864 68 864Q92 864 108.0 849.0Q124 834 128.5 822.5Q133 811 133 807Q133 789 123.5 776.5Q114 764 102.5 754.5Q91 745 88 739Q89 711 89 348Q99 345 107 348Q130 359 148.0 373.5Q166 388 186.5 407.0Q207 426 224 439L271 585V587Q271 597 282 606L329 645Q340 652 349.0 656.0Q358 660 359 660Q358 665 357.5 670.5Q357 676 357.0 678.5Q357 681 355.5 685.0Q354 689 351 693Q345 701 323.0 708.5Q301 716 291 733Q284 747 284 755Q284 772 296.5 802.5Q309 833 334 847Q310 855 285.0 869.0Q260 883 246.0 893.5Q232 904 232 907Q232 909 235 909Q246 908 287.0 890.0Q328 872 367 868Q325 887 325 901Q325 910 338.5 929.5Q352 949 352 953Q351 954 339.5 960.0Q328 966 328 975Q328 982 336.5 991.0Q345 1000 361 1000Q396 1000 404 983Q416 999 448 1000Q464 1000 472.5 991.0Q481 982 481 975Q481 966 469.5 960.0Q458 954 457 953Q457 949 471.0 929.5Q485 910 485 901Q485 896 482.5 892.0Q480 888 472.0 883.0Q464 878 459.5 876.0Q455 874 442 868Q466 871 520.5 895.5Q575 920 588 921Q591 921 591 919Q591 912 543.5 883.0Q496 854 468 845Q504 816 516.0 795.5Q528 775 538 717L567 547V543Q567 541 555 538L608 465V459Q616 423 618.5 406.0Q621 389 621.5 373.0Q622 357 623 345Q632 300 632 293Q632 257 605 252Q586 252 586 310V321Q590 331 590 362L572 452L511 531Q498 529 496 527Q498 503 499.5 469.5Q501 436 503.0 409.0Q505 382 509.0 352.0Q513 322 520.0 282.0Q527 242 530.5 214.0Q534 186 534 157Q534 141 527 90Q529 84 529 62Q529 60 528.0 55.0Q527 50 527 38V31Q527 11 521.5 5.5Q516 0 504 0H418Q405 3 404 17Q404 29 489 54Q489 58 488.5 64.0Q488 70 488 72Q488 85 494 126L372 101H370Q367 101 325 95Q323 74 317 34V32Q317 12 310.5 6.0Q304 0 281 0H218Q193 0 193 17Q193 30 285 61Q284 63 284 66Q284 89 295 151Q301 188 302.5 249.0Q304 310 317 372Q332 447 332 461Q332 491 306 536L264 427Q252 403 245 398Q225 383 206.5 371.5Q188 360 162.5 345.5Q137 331 122 322Q121 321 89 299V23Q89 16 83.5 10.5Q78 5 71 5Q63 5 57.5 10.5Q52 16 52 23V289Q43 294 43 305Q43 315 52 321Z" fill="currentColor"/>
  </g>
</svg>