<svg xmlns="http://www.w3.org/2000/svg" viewBox="0 -2048 2048 2048">
	<path fill="currentColor" d="M1821 378Q1774 386 1756 386Q1713 386 1635 348.5Q1557 311 1500 311Q1462 311 1304 338Q971 395 853 395Q658 395 658 283Q658 140 984 -13Q1000 -18 1033 -28Q1060 -37 1109 -64Q1072 -120 969 -174Q875 -223 798 -236Q734 -247 739 -247Q618 -247 551 -228Q504 -215 433 -165.5Q362 -116 335 -77Q330 -69 309 -21.5Q288 26 288 32Q288 37 290 64Q304 65 311 65Q347 65 362 105Q373 138 384 172Q391 184 456 216V231Q456 241 413 262Q375 280 359 283Q320 290 281 290Q174 290 100 253V234Q109 221 140 206Q167 194 177 170Q181 150 191 111Q200 97 217 70Q232 68 263 66Q275 -103 473 -220Q558 -270 745 -270Q827 -270 958 -206Q1095 -139 1129 -72Q1136 -73 1183 -88Q1188 -134 1220 -276Q1247 -399 1247 -457V-628Q1163 -714 1163 -742Q1163 -785 1217 -864Q1289 -970 1296 -985Q1308 -1012 1316 -1052Q1322 -1084 1322 -1074Q1322 -1077 1318 -1095Q1280 -1105 1215 -1121Q1201 -1172 1169 -1208Q1151 -1228 1151 -1238Q1151 -1246 1153 -1250Q1193 -1290 1210 -1353Q1221 -1374 1244 -1419Q1247 -1431 1255 -1453Q1267 -1475 1307 -1502.5Q1347 -1530 1373 -1536Q1390 -1540 1423 -1540Q1605 -1540 1657 -1384Q1679 -1321 1688 -1076Q1693 -926 1708 -625Q1697 -616 1621 -617L1619 -616Q1606 -466 1606 -462V-450L1639 47Q1639 47 1639 64Q1639 150 1594 208Q1600 207 1608 207Q1631 207 1643 229Q1644 235 1648 247.5Q1652 260 1685 291.5Q1718 323 1731 326Q1759 333 1807 333Q1814 355 1821 378ZM1682 -639V-710Q1682 -718 1667 -1012Q1664 -1116 1662 -1220Q1653 -1355 1612 -1425Q1557 -1517 1440 -1517H1423Q1326 -1517 1275 -1441Q1270 -1425 1257 -1394Q1251 -1383 1238 -1361Q1420 -1366 1436 -1366Q1501 -1366 1501 -1311Q1501 -1281 1450 -1232V-639ZM1600 -148Q1584 -455 1584 -444Q1584 -440 1597 -611H1426V-1212Q1426 -1250 1450.5 -1266.5Q1475 -1283 1475 -1304Q1475 -1308 1474 -1318Q1474 -1327 1474 -1332Q1459 -1343 1426 -1343Q1407 -1343 1235 -1340Q1177 -1231 1177 -1238Q1177 -1237 1197 -1214Q1211 -1198 1235 -1138Q1270 -1134 1337 -1112Q1342 -1085 1342 -1077Q1342 -993 1268 -895Q1191 -793 1188 -737Q1237 -670 1270 -637V-460Q1270 -438 1241.5 -277Q1213 -116 1207 -103V-93Q1410 -156 1554 -156Q1573 -156 1600 -148ZM1575 229L1574 228L1573 229ZM1614 84Q1614 55 1604 -123Q1582 -130 1539 -130Q1424 -130 1239 -77Q1204 -71 1137 -52Q1108 -36 1047 -8Q1031 -5 1000 5Q863 67 773 143Q843 188 895 243Q926 230 989 208Q1125 167 1239 167Q1294 167 1395 194Q1496 221 1549 222Q1614 180 1614 84ZM1791 360V358Q1766 357 1718 346Q1695 335 1664 303.5Q1633 272 1626 249Q1620 230 1605 230Q1598 230 1582.5 239Q1567 248 1548 248Q1490 248 1389 219.5Q1288 191 1239 191Q1138 191 1010 225Q1001 227 948 246.5Q895 266 893 266Q893 266 831.5 212Q770 158 754 158Q749 158 726.5 181Q704 204 699 212Q681 242 681 266Q681 372 862 372Q972 372 1126 347Q1256 324 1387 301Q1469 288 1501 288Q1562 288 1640.5 325.5Q1719 363 1758 363Q1764 363 1791 360ZM432 230L431 227Q384 224 365 185Q355 152 344 120Q333 88 289 88Q251 88 230 92Q223 99 213 115Q204 148 194 181.5Q184 215 146 229Q133 234 126 239V241Q196 264 281 264H311Q359 264 432 230ZM1345 -1248H1253V-1271Q1275 -1295 1284 -1295Q1310 -1295 1322 -1282Q1334 -1265 1345 -1248Z"/>
</svg>