<svg xmlns="http://www.w3.org/2000/svg" viewBox="0 -2048 2048 2048">
	<path fill="currentColor" d="M1266 -1415L1127 -1382L1262 -1364L1244 -1284L1068 -1353Q1091 -1281 1094 -1175Q1096 -1086 1098 -996Q1105 -892 1117 -620Q1076 -621 1036 -618Q1008 -557 1015 -457L1048 3Q1052 53 1040 96.5Q1028 140 1015 184Q1053 231 1138 300Q1160 301 1204 302Q1204 301 1206 318Q1208 335 1208 355L1201 348Q1190 348 1162 351.5Q1134 355 1129 355Q1124 355 1028 329Q921 299 874 290L271 372Q100 351 100 258Q100 128 351 11Q479 -38 607 -87Q624 -165 650 -319Q669 -472 669 -582Q669 -618 667 -621Q661 -632 614 -701Q582 -750 582 -758Q582 -792 629 -857Q739 -1010 739 -1072Q739 -1102 696 -1107Q666 -1110 637 -1113Q627 -1138 617 -1162Q600 -1196 571 -1211Q584 -1232 602 -1278Q627 -1385 692 -1455Q762 -1529 850 -1529Q888 -1529 942 -1506Q1002 -1480 1024 -1447Q1039 -1424 1053 -1392L1219 -1493ZM1227 -1431L1211 -1460L1125 -1407ZM1231 -1343L1125 -1358L1225 -1317ZM1090 -647Q1081 -778 1069 -1039Q1066 -1187 1066 -1198Q1061 -1296 1046 -1349Q1002 -1502 847 -1502Q786 -1502 732 -1458Q678 -1414 658 -1351H855Q912 -1351 912 -1310Q912 -1276 870 -1235V-647ZM1009 -143L994 -406V-553Q994 -562 1000 -594Q1011 -609 992 -620H841V-1239Q891 -1284 891 -1305Q891 -1312 888 -1317.5Q885 -1323 885 -1326H648Q643 -1312 619 -1270Q598 -1233 598 -1226Q598 -1225 624.5 -1194.5Q651 -1164 653 -1135Q693 -1130 734 -1125Q761 -1120 761 -1074Q761 -1025 723 -956Q712 -937 645 -835Q609 -780 609 -760Q609 -754 652.5 -688.5Q696 -623 696 -617Q696 -522 650 -200Q649 -190 642 -163Q637 -141 637 -134V-95Q911 -154 953 -154Q980 -154 1009 -143ZM1026 39L1014 -121Q1002 -121 980.5 -124Q959 -127 953 -127Q841 -127 667 -77Q518 -35 394 22Q299 66 231 109Q220 116 220 127Q295 161 357 231Q421 209 485 187Q555 164 601 160L937 209Q985 198 1009 136Q1029 86 1026 39ZM1145 326Q1126 321 1101 311Q1087 301 1049 255Q1016 215 1010 215Q1003 215 978 224Q949 234 939 236L607 187Q575 182 465 220Q352 258 355 258Q294 209 195 139Q122 196 122 263Q122 303 191 327Q244 345 295 345Q390 345 537 322Q656 303 775 284Q885 269 883 269Q931 269 1023 300Q1110 330 1145 326ZM755 -1243Q738 -1239 717 -1239Q695 -1239 675 -1243Q675 -1255 669 -1261Q694 -1286 712 -1286Q750 -1286 755 -1262Z"/>
</svg>