<svg xmlns="http://www.w3.org/2000/svg" viewBox="0 -2048 2048 2048">
	<path fill="currentColor" d="M1389 358Q1387 366 1380 372Q1301 386 1302 386Q1268 386 1196.5 346.5Q1125 307 1066 307Q1012 307 891 324Q788 340 581 371Q435 392 380 392Q325 392 282 366Q231 336 231 284Q231 256 256 201Q287 134 400 72Q491 29 582 -15L288 -542L100 -661L110 -678L266 -581L186 -726L208 -739L286 -597V-786H306V-561L606 -22Q641 -35 759 -78Q783 -192 817 -425Q817 -431 820 -448Q823 -465 823 -474V-636Q735 -732 735 -760Q735 -812 843 -949Q852 -960 867 -983Q895 -1044 895 -1097Q895 -1104 893 -1111L785 -1130Q778 -1157 753 -1205Q720 -1244 720 -1248Q745 -1286 776 -1344Q787 -1384 808 -1419Q815 -1442 844 -1486Q914 -1553 997 -1553Q1190 -1553 1235 -1371Q1247 -1334 1262 -1213L1286 -617H1197Q1182 -460 1182 -454Q1182 -439 1193 -285L1217 51Q1217 51 1217 61Q1217 143 1177 206Q1179 206 1184 205Q1188 205 1191 205Q1213 205 1221 228Q1226 247 1231 267Q1263 335 1335 335Q1339 335 1347 332Q1355 329 1359 329Q1373 329 1389 358ZM1259 -639L1245 -1070Q1245 -1143 1235 -1287Q1228 -1307 1218 -1347Q1203 -1425 1154 -1475Q1100 -1529 1024 -1529Q981 -1529 966 -1528Q939 -1526 897.5 -1499Q856 -1472 843 -1448Q841 -1444 835 -1423Q826 -1406 809 -1372Q1025 -1378 1006 -1378Q1072 -1378 1072 -1324Q1072 -1274 1024 -1248V-639ZM1177 -131L1165 -347Q1159 -455 1159 -455Q1159 -464 1171 -615H997V-1257Q1032 -1281 1032 -1282Q1046 -1295 1046 -1321Q1046 -1355 1004 -1355Q1027 -1355 801 -1351Q799 -1329 746 -1248Q747 -1245 768 -1223Q783 -1208 805 -1149Q844 -1146 914 -1125Q918 -1089 918 -1087Q918 -1008 838 -902Q758 -796 758 -761Q758 -742 846 -644V-477Q846 -407 815 -252Q786 -107 786 -84H788Q781 -84 879 -108Q993 -136 1075 -136Q1083 -136 1098 -140Q1113 -144 1121 -144Q1127 -144 1177 -131ZM1191 44Q1191 34 1180 -104Q1126 -121 1119 -121Q1110 -121 1096 -118Q1079 -114 1073 -113Q1044 -113 986 -108Q624 -47 344 137Q438 170 497 248Q673 176 750 176Q839 176 896 189Q912 194 944 205Q952 208 1025.5 220.5Q1099 233 1106 233Q1124 233 1149 203Q1171 176 1178 155Q1191 115 1191 44ZM1362 355Q1357 355 1349 355Q1340 356 1336 356Q1254 356 1213 284Q1211 281 1202 238Q1197 232 1188 232Q1173 232 1145.5 242.5Q1118 253 1103 253Q1044 253 928.5 226Q813 199 753 199Q700 199 619 226Q554 249 489 272Q440 218 415 200Q395 185 325 152Q255 210 255 282Q255 300 256 305Q262 334 309 356Q336 369 388 369Q393 369 472 361Q499 358 719 329Q806 315 893 301Q998 284 1069 284Q1125 284 1154 298Q1190 318 1226 338Q1268 360 1305 360Q1316 360 1335.5 357.5Q1355 355 1362 355ZM917 -1273L908 -1260Q899 -1259 889 -1259H877Q853 -1259 821 -1263Q846 -1305 858 -1305Q890 -1305 917 -1273Z"/>
</svg>