<svg xmlns="http://www.w3.org/2000/svg" viewBox="0 -2048 2048 2048">
	<path fill="currentColor" d="M1437 371Q1352 382 1348 382Q1302 382 1235 342.5Q1168 303 1120 303Q1013 303 860 329Q732 352 603 375Q520 388 479 388H403Q356 388 315 358Q270 326 270 281Q270 149 488 43Q369 -91 250 -225Q100 -408 100 -529Q100 -637 119 -680Q149 -749 253 -805Q319 -841 396 -841Q481 -841 536 -785Q591 -729 591 -644Q591 -587 547.5 -546Q504 -505 446 -505Q307 -505 307 -636Q307 -710 391 -710Q403 -710 436 -691L431 -650Q416 -659 396 -669H385Q351 -669 351 -608Q351 -597 368 -577Q394 -546 455 -546Q496 -546 522 -572Q529 -579 539 -615Q547 -648 547 -662Q547 -755 443 -787Q420 -794 379 -794Q287 -794 214 -728Q141 -662 141 -571Q141 -436 251 -293Q354 -178 456 -63Q481 -36 530 20Q621 -14 804 -82Q829 -200 861 -438Q866 -533 866 -592Q866 -629 862 -645Q860 -654 818.5 -699Q777 -744 777 -763Q777 -812 831 -885Q904 -985 911 -1000Q942 -1064 942 -1100Q942 -1103 938 -1124Q918 -1129 832 -1145Q829 -1160 791 -1219Q765 -1251 765 -1264Q765 -1270 778 -1288Q794 -1311 795 -1313Q808 -1347 837 -1413Q846 -1426 860 -1454Q868 -1478 872 -1484.5Q876 -1491 893 -1506Q968 -1570 1040 -1570Q1149 -1570 1208 -1520Q1263 -1471 1287 -1363Q1294 -1337 1302 -1283L1323 -631H1243Q1224 -458 1224 -460Q1224 -467 1237 -290L1262 50Q1263 64 1263 67Q1263 143 1219 204Q1229 201 1236 201Q1248 201 1265 222Q1268 226 1275 245Q1285 273 1319 302.5Q1353 332 1381 332Q1385 332 1393.5 329Q1402 326 1406 326Q1428 326 1437 371ZM1299 -656L1279 -1291Q1279 -1292 1267 -1348Q1264 -1361 1258 -1388Q1245 -1456 1190.5 -1501.5Q1136 -1547 1067 -1547Q1079 -1547 1014 -1545Q988 -1544 944.5 -1517Q901 -1490 888 -1467Q886 -1464 881 -1443Q871 -1425 853 -1389L1056 -1394Q1117 -1396 1117 -1340Q1117 -1309 1071 -1265V-656ZM1226 -138L1209 -355Q1201 -457 1201 -463Q1201 -461 1220 -629H1045V-1276Q1093 -1312 1093 -1340Q1093 -1371 1054 -1371Q1040 -1371 842 -1365Q820 -1301 801 -1276Q797 -1272 791 -1262Q813 -1238 848 -1162Q891 -1160 957 -1139Q965 -1116 965 -1098Q965 -1086 946.5 -1033.5Q928 -981 920 -969Q884 -922 848 -875Q804 -813 804 -770Q804 -745 839 -710Q878 -669 884 -652Q890 -635 890 -596Q890 -419 863 -275Q862 -268 843 -190Q828 -130 828 -109Q828 -104 831 -87Q1068 -145 1158 -145Q1171 -145 1226 -138ZM1237 61Q1237 -54 1225 -113Q1164 -122 1157 -122Q1063 -122 848 -70Q826 -65 682 -14Q654 -7 600 12Q498 59 487 65Q423 97 381 131Q455 172 466 178Q508 207 536 245Q610 217 764 176Q793 171 791 171Q870 171 933 184Q954 191 996 203Q1127 228 1152 228Q1167 228 1190 202Q1213 176 1220 159Q1237 115 1237 61ZM1411 354L1410 352Q1409 352 1406 351Q1402 351 1393 353Q1384 355 1380 355Q1296 355 1246 236L1233 224Q1222 226 1191.5 239Q1161 252 1152 252Q1090 252 985 223Q880 194 792 194Q730 194 532 274Q507 247 481 219Q459 197 417 177Q398 168 364 146Q296 208 296 276Q296 311 331 342Q334 345 366.5 355Q399 365 405 365H479Q503 365 727 330L970 292Q1066 277 1090 277Q1164 277 1235.5 316.5Q1307 356 1359 356Q1393 356 1411 354ZM960 -1279Q939 -1276 923 -1276H902Q889 -1276 865 -1279Q873 -1295 882 -1311Q890 -1321 915 -1321Q933 -1321 960 -1279Z"/>
</svg>