<svg xmlns="http://www.w3.org/2000/svg" viewBox="0 -2048 2048 2048">
	<path fill="currentColor" d="M1422 304H436Q499 273 630 203Q593 59 555 -85Q483 -367 483 -416Q483 -454 526 -485Q537 -493 588 -493Q641 -493 650 -485Q676 -462 910 -198L940 -537Q940 -576 941 -573Q936 -594 900 -634Q849 -584 799 -533Q758 -498 706 -498Q652 -498 510 -550.5Q368 -603 344 -603Q338 -603 331.5 -600.5Q325 -598 318 -598Q297 -598 219.5 -630Q142 -662 131 -673Q140 -688 154 -713Q158 -713 180 -702Q168 -798 168 -834Q168 -986 210 -1176Q176 -1190 165 -1224Q149 -1272 146 -1276Q129 -1295 100 -1336Q232 -1369 239 -1369Q295 -1369 367 -1331Q342 -1287 302 -1213Q296 -1201 267 -1187Q319 -919 319 -830Q319 -775 309 -733Q341 -711 413 -677Q493 -651 695 -629Q757 -723 884 -911Q909 -946 967 -999Q984 -1015 1017 -1027Q1017 -1033 1021 -1054Q1024 -1071 1024 -1082Q987 -1087 914 -1097Q908 -1135 856 -1225Q897 -1288 948 -1396Q985 -1474 1014 -1498Q1054 -1532 1139 -1532Q1219 -1532 1291 -1476Q1370 -1414 1379 -1325Q1394 -1176 1407 -888Q1418 -646 1417 -617V-540H1284L1279 -536Q1277 -493 1281 -397Q1286 -292 1286 -302V-158Q1286 -122 1272 8Q1257 153 1244 202Q1279 218 1422 280ZM1391 -567V-648Q1401 -971 1353 -1330Q1342 -1415 1266 -1465Q1203 -1506 1134 -1506Q1019 -1506 956 -1365H1157Q1175 -1365 1191.5 -1348.5Q1208 -1332 1208 -1314Q1208 -1271 1161 -1226V-567ZM331 -1320Q262 -1343 236 -1343Q206 -1343 137 -1320Q162 -1303 172 -1282Q180 -1258 187 -1234Q202 -1201 231 -1201Q245 -1201 256 -1208Q276 -1221 286 -1239Q301 -1266 331 -1320ZM1344 277Q1302 256 1213 213Q1233 178 1248 -28Q1260 -190 1260 -269Q1260 -350 1253 -469Q1249 -531 1259 -540H1134V-1231Q1134 -1237 1160.5 -1272Q1187 -1307 1187 -1314Q1187 -1324 1164 -1334Q1145 -1343 1137 -1343Q961 -1343 940 -1331Q940 -1302 887 -1225Q887 -1218 908 -1178Q931 -1133 936 -1118Q975 -1118 1045 -1108Q1045 -1103 1047.5 -1093.5Q1050 -1084 1050 -1078Q1050 -1029 1038 -1011Q1020 -1000 988 -978Q933 -933 813 -761Q703 -603 696 -603Q688 -603 434 -646Q419 -649 332 -692Q338 -650 276 -650Q276 -650 168 -677Q304 -624 320 -624Q326 -624 336 -626.5Q346 -629 352 -629Q339 -629 648 -538Q696 -524 714 -524Q766 -524 882 -653Q856 -679 856 -692Q856 -703 875 -746Q896 -794 911 -802Q914 -799 917.5 -798Q921 -797 924 -794Q882 -710 882 -703Q882 -699 915 -655Q955 -602 964 -588Q966 -583 966 -569Q966 -566 954 -404Q942 -227 938 -155Q932 -146 922 -146Q833 -253 645 -458Q631 -472 588 -472Q502 -472 509 -395L662 213Q621 236 546 277ZM294 -847L245 -1175Q238 -1169 227 -1158Q213 -1125 200 -1004Q189 -898 189 -836Q189 -682 239 -682Q294 -682 294 -847ZM1050 -1268Q1050 -1265 1047 -1258.5Q1044 -1252 1044 -1249Q972 -1249 972 -1249V-1273Q1002 -1301 1003 -1301Q1017 -1301 1050 -1268Z"/>
</svg>