<svg xmlns="http://www.w3.org/2000/svg" viewBox="21.9 -1632.1 1477.2 2108.2">
	<path fill="currentColor" d="M1421 363Q1371 391 1331 391Q1311 391 1241 355Q1166 316 1038 316Q997 316 923 332Q866 344 808 357Q578 398 441 398Q249 398 249 289Q249 199 406 75L329 -216L200 -128Q172 -149 150 -204L300 -241Q272 -256 219 -293Q100 -395 100 -487V-511Q100 -536 144 -570Q188 -604 215 -604Q310 -604 342.5 -542Q375 -480 375 -345Q375 -294 366 -269Q400 -292 469 -338Q480 -332 491 -307Q498 -288 506 -269Q471 -259 357 -231L355 -227L499 24Q661 -58 770 -76Q846 -258 846 -504Q846 -546 842 -564Q839 -579 798.5 -603.5Q758 -628 758 -665Q758 -691 841.5 -816Q925 -941 925 -1037Q925 -1083 915 -1119Q870 -1120 791 -1141Q784 -1167 766 -1217Q765 -1220 754 -1234Q746 -1245 746 -1252Q746 -1260 774.5 -1308Q803 -1356 807 -1372Q831 -1469 869 -1508Q915 -1554 1010 -1554Q1125 -1554 1175 -1512Q1187 -1502 1217 -1454Q1274 -1361 1286 -1279Q1286 -1274 1293 -1092L1314 -512H1213L1212 -510Q1212 -503 1208.5 -485.5Q1205 -468 1205 -458V-454L1244 51Q1245 64 1245 70Q1245 172 1192 227Q1211 220 1218 220Q1235 220 1246 239Q1254 256 1262 272Q1291 311 1332 323Q1351 328 1410 326Q1412 330 1421 363ZM1290 -533L1276 -949Q1274 -1066 1260 -1297Q1256 -1332 1220.5 -1402Q1185 -1472 1159 -1496Q1122 -1531 1053 -1531Q1039 -1531 1010 -1530Q981 -1529 966 -1529Q924 -1529 882 -1480Q845 -1437 834 -1391H1045Q1061 -1391 1080 -1365Q1099 -1339 1099 -1322Q1099 -1291 1050 -1255V-533ZM1208 -138L1182 -459Q1182 -468 1184.5 -484.5Q1187 -501 1187 -509H1027V-1222Q1027 -1231 1029 -1247Q1031 -1263 1031 -1270Q1045 -1281 1060.5 -1293.5Q1076 -1306 1076 -1322Q1076 -1335 1065 -1351.5Q1054 -1368 1042 -1368H832Q802 -1317 769 -1251Q779 -1240 797 -1187Q810 -1148 839 -1148Q842 -1148 849 -1149Q856 -1149 859 -1149Q872 -1149 895 -1145Q918 -1141 929 -1141Q948 -1129 948 -1036Q948 -1002 927 -938Q922 -917 907 -877Q901 -865 835 -766Q781 -684 781 -665Q781 -643 825 -611Q869 -579 869 -564V-480Q869 -379 847 -267Q830 -206 798 -83H799Q801 -83 878 -101Q1070 -146 1122 -146Q1102 -146 1208 -138ZM475 -282L466 -307L406 -267ZM1221 50Q1221 1 1209 -114Q1145 -120 1122 -120Q1050 -120 892 -86Q750 -55 662 -26Q570 5 431 88Q428 96 422 100Q401 103 362 145Q423 174 446 189Q488 216 512 255Q635 205 649 200Q719 177 796 177Q805 177 823.5 174.5Q842 172 851 172Q864 172 936 197Q1016 225 1031 228Q1076 238 1136 238Q1138 238 1150 235Q1165 223 1191 195Q1221 151 1221 50ZM352 -392Q352 -469 324.5 -525Q297 -581 215 -581Q193 -581 159.5 -555Q126 -529 126 -508Q126 -440 175 -374Q219 -314 284 -277Q227 -331 211 -348Q169 -394 155 -430Q137 -477 137 -486Q137 -515 159.5 -542.5Q182 -570 211 -570Q242 -570 261 -559Q309 -531 323 -485Q337 -439 349 -330Q352 -370 352 -392ZM331 -286Q331 -304 318 -385.5Q305 -467 300 -478Q270 -544 215 -544Q194 -544 177 -525.5Q160 -507 160 -486Q160 -410 329 -268Q331 -279 331 -286ZM1392 353Q1348 352 1326 345Q1304 338 1267 304.5Q1230 271 1226 252L1219 244Q1145 261 1136 261Q1053 261 919 217Q852 195 848 195Q732 195 669 214Q647 221 507 284Q472 235 448 216Q438 208 396 185Q351 161 344 161Q333 161 305 201Q275 245 275 289Q275 319 293 340Q301 349 348 362Q391 374 408 374H471Q474 374 524 370Q585 366 705 353Q765 344 903 317Q1026 293 1033 293Q1139 293 1180 306Q1191 310 1253 339Q1310 366 1316 366Q1362 366 1392 353ZM477 33L370 -152L425 65Q454 48 477 33ZM279 -211L183 -188Q195 -168 202 -158ZM944 -1269H924Q913 -1269 895 -1270Q873 -1272 866 -1272L852 -1261V-1295Q875 -1318 885 -1318Q912 -1318 944 -1269ZM893 -1293L888 -1295L884 -1294Z"/>
</svg>