<svg xmlns="http://www.w3.org/2000/svg" viewBox="0 -2048 2048 2048">
	<path fill="#000000" d="M1330 -423Q1307 -425 1188 -424V-685Q1207 -688 1244 -696V-713Q1244 -786 1208 -815Q1183 -836 1102 -853Q1108 -846 1117 -829Q1120 -819 1148 -706L1145 -102Q1145 -63 1126 48Q1108 162 1095 194Q1089 207 1078 235L1254 335V352H112L121 333Q217 286 320 229Q278 82 236 -66Q169 -301 169 -335Q169 -344 173 -361.5Q177 -379 177 -384Q177 -366 157 -537Q162 -542 169 -543Q172 -558 174 -613Q175 -628 178 -679Q181 -719 181 -744Q181 -821 143 -815V-847Q158 -853 175 -853Q174 -860 143 -885V-910Q156 -915 175 -915Q171 -929 164 -935L163 -934Q145 -934 143 -945Q143 -944 143 -973Q154 -976 178 -979Q168 -1005 143 -1006V-1039H203L237 -1262H229Q214 -1262 185 -1255.5Q156 -1249 142 -1249H100Q118 -1263 118 -1271Q118 -1276 111 -1301Q165 -1301 211 -1292L213 -1293Q182 -1352 175 -1368Q158 -1406 150 -1449Q143 -1486 143 -1474Q143 -1487 162 -1514.5Q181 -1542 193 -1546Q218 -1554 248 -1554Q303 -1554 321 -1496Q326 -1477 326 -1446Q326 -1404 269 -1288V-1287Q291 -1294 376 -1308V-1251Q337 -1255 260 -1266Q260 -1252 274 -1148.5Q288 -1045 290 -1040Q325 -1039 346 -1035V-1009Q335 -1004 324.5 -999Q314 -994 314 -978Q322 -977 338 -978L346 -970V-945Q316 -938 309 -916Q320 -914 338 -915L346 -908V-883Q309 -867 314 -854Q325 -852 346 -848V-814L340 -815Q302 -815 302 -757Q302 -773 316 -629Q321 -574 326 -518Q336 -465 372 -416Q392 -397 430 -357Q501 -273 641 -98Q649 -282 678 -650Q685 -709 720 -797Q753 -880 806 -889Q821 -889 843 -899Q847 -905 860 -1008Q834 -1014 752 -1026Q720 -979 658 -883L604 -926Q622 -960 707 -1044V-1134Q690 -1145 673 -1155Q650 -1171 650 -1184Q650 -1195 692 -1248Q703 -1291 741 -1377Q854 -1557 1039 -1557Q1083 -1557 1141 -1543Q1150 -1537 1169 -1527Q1296 -1467 1296 -1330Q1296 -1248 1232 -1146Q1225 -1135 1141 -1046L1139 -1038Q1118 -1025 1077 -998V-886Q1083 -877 1127 -869Q1179 -860 1206 -845Q1250 -820 1262 -769Q1263 -743 1268 -692Q1268 -692 1330 -692ZM1273 -1354Q1273 -1400 1227 -1454Q1181 -1508 1135 -1521Q1117 -1521 1080 -1527Q1070 -1531 1058 -1534Q924 -1534 828 -1448Q809 -1431 774 -1383Q736 -1329 736 -1313V-1307Q811 -1302 834 -1294Q868 -1284 920 -1245Q942 -1245 964.5 -1261.5Q987 -1278 994 -1278Q1006 -1278 1051 -1262Q1065 -1213 1065 -1213Q1065 -1196 1046.5 -1180Q1028 -1164 1010 -1164Q1005 -1164 1002 -1165Q997 -1111 997 -1084Q997 -1076 1024.5 -1062.5Q1052 -1049 1064 -1049Q1090 -1049 1119 -1055Q1154 -1086 1211 -1156Q1273 -1264 1273 -1354ZM1079 -1027Q1066 -1026 1062 -1026Q1025 -1026 976 -1074V-1183Q980 -1186 1016 -1193Q1042 -1198 1042 -1214Q1042 -1226 1032 -1246Q1004 -1255 995 -1255Q995 -1255 971 -1238.5Q947 -1222 917 -1222Q914 -1222 875.5 -1247Q837 -1272 815 -1275Q758 -1284 729 -1284Q727 -1271 719 -1246Q717 -1242 695 -1215Q676 -1192 676 -1186Q676 -1180 699 -1166Q715 -1156 730 -1147V-1054Q797 -1048 884 -1022L868 -899Q852 -898 924 -898Q1050 -898 1051 -1008ZM1305 -445V-671Q1301 -670 1295 -670Q1289 -670 1277 -673Q1265 -676 1260 -676Q1252 -676 1236.5 -672Q1221 -668 1214 -667V-445ZM1075 -851L1070 -858Q1049 -886 1049 -921Q1015 -875 929 -875Q920 -875 901.5 -876.5Q883 -878 874 -878Q821 -878 802 -863Q792 -855 765.5 -821Q739 -787 737 -777Q837 -746 890 -746Q950 -746 1005 -770Q1074 -800 1075 -851ZM300 -1449Q300 -1497 282.5 -1512.5Q265 -1528 218 -1528Q202 -1528 185 -1509.5Q168 -1491 168 -1475Q169 -1472 170 -1466Q176 -1524 237 -1524Q263 -1524 281 -1501.5Q299 -1479 299 -1453Q299 -1437 296 -1414Q300 -1430 300 -1449ZM719 -1024Q672 -977 634 -931Q642 -923 651 -916ZM276 -1450Q276 -1498 236 -1498Q192 -1498 192 -1460Q192 -1444 245 -1304Q276 -1408 276 -1450ZM350 -1276V-1283L328 -1279ZM198 -1368Q187 -1396 174 -1441Q178 -1409 198 -1368ZM170 -1276Q161 -1277 139 -1280V-1273Q149 -1274 170 -1276ZM266 -1041L249 -1183L229 -1041ZM303 -1013H180Q197 -999 200 -978H287Q288 -997 303 -1013ZM300 -948L179 -951Q189 -941 197 -916H221Q278 -916 288 -917Q290 -934 300 -948ZM310 -889H176Q186 -878 198 -854H292Q298 -879 310 -889ZM1193 327Q1143 301 1049 240Q1082 177 1111 -22Q1116 -44 1122 -85L1125 -705Q1125 -713 1111 -765.5Q1097 -818 1092 -826V-823Q1084 -775 1011 -746Q952 -723 893 -723Q814 -723 731 -756Q717 -716 700 -651Q685 -535 676 -360Q668 -214 660 -68L650 -55Q594 -123 480 -259Q439 -316 344 -412Q310 -437 293 -437Q234 -437 216 -416.5Q198 -396 192 -333L348 239L183 327ZM307 -826H180Q204 -801 204 -750Q204 -745 193 -541Q230 -542 304 -520L279 -760Q278 -769 288.5 -794Q299 -819 307 -826ZM332 -445Q307 -499 272 -510Q227 -515 182 -520L197 -428Q230 -462 289 -462Q297 -462 332 -445ZM852 -1211Q848 -1195 835 -1195H762L748 -1210Q787 -1245 816 -1245Q827 -1245 852 -1211Z"/>
</svg>