<svg xmlns="http://www.w3.org/2000/svg" viewBox="0 -2048 2048 2048">
	<path fill="#000000" d="M1721 -403H1579V-672Q1583 -672 1599 -675Q1615 -678 1624 -678Q1628 -685 1628 -720Q1628 -776 1595 -803Q1569 -825 1506 -839Q1509 -819 1524.5 -774.5Q1540 -730 1540 -726V-18Q1540 28 1473 257Q1520 284 1672 374H519Q519 372 516 362Q513 352 513 349Q622 304 712 251L508 -517Q564 -515 568 -517L316 -1048V-359H287V-415Q280 -419 259 -419Q234 -419 231 -415Q228 -411 219 -370H194Q194 -369 196.5 -382Q199 -395 199 -415Q192 -419 164 -419Q136 -419 139 -420Q127 -415 120 -370Q117 -370 110 -373Q103 -376 100 -376L300 -1142L575 -563V-896Q567 -898 553 -903Q507 -911 471.5 -952.5Q436 -994 436 -1040Q436 -1087 475 -1119Q510 -1148 552 -1148Q602 -1148 633 -1098Q654 -1056 674 -1014Q679 -1006 703.5 -993Q728 -980 733 -967Q723 -966 714 -966Q663 -966 637.5 -1043Q612 -1120 552 -1120Q511 -1120 487 -1091.5Q463 -1063 463 -1029Q463 -985 508 -953.5Q553 -922 601 -926V-512Q658 -505 664 -503Q706 -495 722 -477Q784 -408 875 -289Q1014 -106 1028 -88Q1043 -181 1050 -376Q1057 -571 1072 -665Q1080 -712 1107 -774Q1141 -853 1177 -869Q1196 -878 1235 -898Q1239 -930 1248 -995Q1184 -1015 1148 -1015Q1147 -1015 1052 -872Q1029 -882 993 -918Q1021 -959 1073 -1008Q1098 -1030 1098 -1079Q1098 -1096 1096 -1122Q1090 -1132 1064 -1146Q1043 -1157 1043 -1173Q1043 -1179 1067 -1222Q1094 -1272 1102 -1295Q1142 -1411 1221 -1476Q1255 -1504 1321.5 -1530Q1388 -1556 1424 -1556Q1522 -1556 1605.5 -1485.5Q1689 -1415 1689 -1327Q1689 -1252 1622 -1146Q1553 -1037 1468 -984V-881Q1525 -863 1619 -819Q1661 -788 1655 -689Q1662 -689 1676 -683.5Q1690 -678 1697 -678Q1709 -678 1721 -689ZM1656 -1330Q1656 -1419 1583 -1476Q1516 -1529 1427 -1529Q1345 -1529 1254 -1467Q1152 -1397 1132 -1303Q1171 -1303 1252 -1269.5Q1333 -1236 1327 -1236Q1334 -1236 1354.5 -1255.5Q1375 -1275 1380 -1275Q1457 -1275 1457 -1211Q1457 -1163 1397 -1158V-1067Q1427 -1037 1451 -1037Q1530 -1037 1597 -1152Q1656 -1252 1656 -1330ZM1457 -1013Q1393 -1027 1378 -1054Q1369 -1069 1369 -1126Q1369 -1171 1373 -1187Q1375 -1187 1380 -1184Q1385 -1181 1393 -1181Q1413 -1181 1435 -1211Q1408 -1247 1393 -1247Q1389 -1247 1370 -1230.5Q1351 -1214 1324 -1214Q1317 -1214 1245 -1244Q1173 -1274 1166 -1274H1121Q1102 -1216 1071 -1172Q1129 -1154 1129 -1106Q1129 -1099 1128 -1086Q1127 -1073 1127 -1067Q1127 -1050 1132 -1038Q1181 -1033 1275 -1016Q1275 -991 1266 -931Q1263 -904 1276 -888H1332Q1351 -888 1380 -899Q1420 -914 1432 -940Q1435 -972 1457 -1013ZM1693 -431V-656H1604V-431ZM1462 -830Q1462 -838 1450 -861Q1435 -888 1433 -894Q1396 -872 1344 -868Q1230 -860 1227 -859Q1163 -842 1131 -769Q1213 -734 1278 -734Q1335 -734 1391 -756Q1462 -784 1462 -830ZM1092 -987Q1053 -952 1027 -917Q1032 -917 1044 -911Q1062 -938 1092 -987ZM1578 352Q1529 321 1435 262Q1445 245 1478 142Q1512 32 1512 4V-737Q1512 -728 1488 -800Q1458 -756 1386 -729Q1326 -706 1278 -706Q1272 -706 1210 -717Q1143 -730 1116 -733Q1106 -699 1094 -643Q1082 -440 1057 -63Q1056 -52 1040 -38Q960 -132 873 -247Q840 -290 780 -347Q698 -425 662 -425Q637 -425 612.5 -397Q588 -369 588 -344Q588 -338 590 -333L745 262Q709 283 585 352ZM717 -440Q701 -460 682 -467Q614 -492 581 -490H536Q548 -452 574 -380Q595 -447 665 -447Q675 -447 717 -440ZM285 -442V-1004L144 -442ZM1236 -1193Q1209 -1193 1154 -1187Q1154 -1189 1151 -1200.5Q1148 -1212 1148 -1218Q1175 -1236 1200 -1236Q1224 -1236 1236 -1193Z"/>
</svg>