<svg xmlns="http://www.w3.org/2000/svg" viewBox="21.4 -1658.6 1339.2 2122.2">
	<path fill="currentColor" d="M1282 -118Q1271 -83 1262 -83Q1274 -83 1169 -89Q1169 -88 1168 -86Q1168 -56 1172 -48Q1184 -25 1184 -20Q1184 -7 1177 20Q1168 50 1167 60H1126Q1121 32 1121 -1Q1109 3 1103 65Q1100 104 1097 144H1058Q1048 42 1048 28Q1048 -12 1069.5 -38Q1091 -64 1091 -87Q1075 -82 1047 -66Q1015 -41 885 182Q847 248 774 348Q735 385 667 385Q590 385 556 294Q545 265 535 233Q519 182 519 37Q519 15 522 -30Q525 -75 525 -97Q525 -125 517 -167Q506 -219 504 -235Q473 -505 473 -583Q473 -667 496 -723Q513 -763 571 -845Q579 -856 590 -895H586L500 -893Q475 -892 436.5 -874Q398 -856 390 -856Q385 -856 351 -868Q313 -880 306 -882Q306 -882 306 -923Q306 -964 324 -985Q334 -991 354 -1005Q358 -1008 401 -1060L139 -1404Q154 -1418 164 -1430L100 -1547L134 -1580L420 -1078L540 -1187Q481 -1250 454 -1288Q444 -1302 421 -1346Q397 -1394 397 -1404Q397 -1430 418 -1430Q434 -1430 493 -1394Q546 -1361 564 -1344Q595 -1314 609 -1292Q621 -1263 654 -1219Q678 -1202 719 -1202Q710 -1202 795.5 -1264Q881 -1326 961 -1326Q974 -1326 999 -1324.5Q1024 -1323 1036 -1323L1047 -1312V-1293Q983 -1224 909 -1197.5Q835 -1171 759 -1146Q826 -1091 831 -1042Q831 -1032 834 -1013Q838 -999 857 -954Q866 -932 866 -883Q866 -861 875 -849Q881 -841 917 -805L995 -727Q1053 -672 1162 -557Q1181 -535 1181 -407Q1181 -400 1166 -153Q1200 -146 1267 -132Q1274 -128 1282 -118ZM1020 -1296V-1300Q994 -1304 968 -1304Q923 -1304 876 -1270Q834 -1236 751 -1169Q823 -1192 895 -1214Q979 -1246 1020 -1296ZM819 -1251Q789 -1231 766 -1211ZM624 -1222Q611 -1246 581 -1293Q560 -1322 518 -1349Q453 -1390 448 -1394Q443 -1398 433 -1404H420V-1403Q420 -1381 475 -1300Q499 -1264 559 -1203Q605 -1225 624 -1222ZM308 -1222L193 -1426Q187 -1417 170 -1402ZM1256 -112Q1229 -118 1175 -128Q1149 -128 1098 -133Q1087 -135 1048.5 -148.5Q1010 -162 1008 -162Q988 -162 972 -121Q951 -65 950 -64Q923 -27 856 38Q789 103 761 140Q754 168 716 228L710 -97Q739 -132 766 -167.5Q793 -203 793 -256Q793 -289 767 -333.5Q741 -378 741 -450Q741 -495 816 -723Q857 -681 942 -599Q987 -565 1075 -492Q1086 -482 1086 -467Q1086 -461 1083 -450.5Q1080 -440 1080 -435V-360Q1080 -360 1110 -155H1145L1158 -401Q1158 -409 1152.5 -474.5Q1147 -540 1146 -541Q1141 -547 896 -796Q881 -810 855 -840Q842 -858 842 -915Q842 -941 826 -975Q812 -1004 808 -1037Q806 -1050 743 -1135Q722 -1113 702 -1101V-1107Q702 -1125 718 -1144Q694 -1127 688 -1127Q677 -1127 677 -1137V-1141Q691 -1153 709 -1167Q694 -1158 664 -1137Q656 -1145 656 -1151Q656 -1159 690 -1187Q639 -1200 617 -1200Q591 -1200 571 -1185Q494 -1128 410 -1037Q401 -1022 379 -995Q365 -985 352 -975Q332 -961 332 -952V-901H347L342 -944L394 -937Q377 -918 367 -916Q365 -912 355 -901H363Q366 -901 385 -913Q404 -925 410 -925Q422 -925 422 -916Q421 -914 421 -911Q406 -902 376 -882Q380 -879 389 -879Q401 -879 428 -894Q455 -909 466 -911Q523 -910 632 -925Q639 -927 653.5 -942.5Q668 -958 673 -958Q686 -958 686 -949Q686 -936 658 -918Q630 -900 614 -898Q608 -875 591 -834Q525 -735 519 -721Q496 -673 496 -588Q496 -498 499 -476L548 -111Q548 -111 548 -41Q548 -22 545 17Q542 56 542 75Q542 173 558 232Q593 362 640 362H696Q699 362 720 355Q764 340 821 240Q850 193 907 97Q939 41 1014 -65Q1057 -116 1114 -116Q1118 -116 1255 -107Q1256 -111 1256 -112ZM1086 -162Q1057 -364 1057 -385Q1057 -399 1058 -426Q1059 -453 1059 -466V-474Q976 -541 939 -574Q873 -631 828 -684Q764 -472 764 -454Q764 -405 774 -373Q778 -362 801 -322Q820 -289 820 -274Q820 -210 797 -174Q766 -135 734 -96V-87Q734 -61 737.5 -9Q741 43 741 69Q741 78 739.5 99.5Q738 121 738 132L740 130Q793 61 915 -58Q935 -78 945 -107Q957 -146 964 -158Q981 -186 1006 -186Q1015 -186 1086 -162ZM1161 -20Q1161 -20 1150 -40.5Q1139 -61 1141 -90Q1129 -92 1114 -92Q1113 -55 1089 -27Q1071 -6 1071 53Q1071 37 1075 98V82Q1075 35 1101 -12Q1109 -27 1134 -27Q1147 -27 1147 -15V33Q1161 -16 1161 -20ZM584 -1071Q544 -1051 536 -1051Q533 -1051 527 -1053Q521 -1055 518 -1055Q516 -1055 501 -1050Q513 -1095 539 -1095Q555 -1095 584 -1071Z"/>
</svg>