<svg xmlns="http://www.w3.org/2000/svg" viewBox="22.4 -1655.6 1317.2 2095.2">
	<path fill="currentColor" d="M1262 -128Q1262 -100 1246 -100Q1259 -100 1154 -106Q1154 -106 1154 -78Q1154 -72 1161.5 -58.5Q1169 -45 1169 -40Q1169 -22 1143 47Q1127 39 1110 31Q1106 26 1104 -13Q1087 34 1087 124H1046Q1034 70 1034 2Q1034 -31 1055 -56.5Q1076 -82 1077 -103Q1061 -99 1034 -84Q993 -46 936 50Q893 125 850 199Q832 236 783 305Q729 362 636 362Q599 362 570.5 318.5Q542 275 528 217Q510 144 512 87Q518 -114 518 -114Q518 -114 502 -233L470 -471Q467 -493 467 -618Q467 -689 495 -747Q512 -785 567 -859Q587 -886 587 -1016Q581 -1025 560 -1025Q540 -1025 540 -1025Q524 -1020 448 -976Q377 -935 366 -935Q363 -935 357 -936.5Q351 -938 348 -938Q344 -938 337.5 -935Q331 -932 326 -932Q311 -932 300 -946Q289 -960 279 -973L372 -1094L139 -1402Q145 -1412 162 -1428L100 -1543Q106 -1557 129 -1578L390 -1119Q402 -1137 432 -1168Q467 -1195 523 -1217Q533 -1221 569 -1223Q468 -1347 460 -1465Q453 -1563 453 -1540Q532 -1487 570 -1418Q603 -1342 636 -1266Q659 -1433 785 -1555Q796 -1547 796 -1535Q796 -1449 753 -1307Q739 -1261 695 -1198Q706 -1194 713 -1188Q810 -1099 843 -951Q841 -915 858 -853Q862 -848 902 -809Q991 -728 1147 -568Q1163 -549 1163 -416Q1163 -410 1151 -169Q1188 -164 1250 -149Q1262 -144 1262 -128ZM766 -1503Q673 -1399 653 -1212Q665 -1207 674 -1205Q697 -1240 731 -1311Q740 -1337 766 -1503ZM626 -1223Q598 -1295 571 -1367Q538 -1439 479 -1492Q495 -1381 511 -1347Q520 -1327 596 -1222Q601 -1223 606 -1225Q619 -1225 626 -1223ZM305 -1222L188 -1426Q180 -1418 167 -1400ZM1239 -128Q1212 -134 1157 -144Q1132 -145 1084 -149Q1072 -151 1035 -164.5Q998 -178 995 -178Q981 -178 971 -163Q963 -134 938 -84Q936 -82 782 83Q752 115 738 148Q707 216 707 217L701 -117Q725 -140 764 -192Q783 -231 783 -245Q783 -281 782 -299Q731 -416 731 -465Q731 -503 805 -733Q826 -722 864 -679Q914 -622 918 -618Q939 -598 1006 -546Q1034 -525 1068 -493Q1076 -477 1076 -457Q1076 -444 1070.5 -419Q1065 -394 1065 -382Q1065 -344 1076 -277Q1092 -183 1093 -171Q1109 -170 1112 -170Q1117 -170 1128 -171Q1140 -411 1140 -415Q1140 -541 1127.5 -554.5Q1115 -568 993 -690Q949 -736 858 -822Q853 -821 849 -821Q838 -821 837 -835Q834 -869 823 -936Q803 -1029 779 -1073Q743 -1139 701 -1169Q653 -1203 574 -1203Q465 -1203 403 -1097Q410 -1086 420 -1069L408 -1056Q400 -1061 386 -1075Q307 -972 307 -972Q307 -958 326 -958Q337 -958 346.5 -970Q356 -982 369 -986Q376 -979 376 -974Q376 -968 367 -958H373Q537 -1053 558 -1053Q563 -1053 572.5 -1052Q582 -1051 586 -1051Q611 -1029 611 -1004Q611 -881 584 -844Q531 -772 515 -737Q490 -683 490 -614Q490 -479 493 -458L525 -233Q541 -120 541 -120Q541 -120 535 92Q534 143 551 214Q566 274 591 306.5Q616 339 641 339Q690 339 711 330Q770 305 839 183Q898 78 956 -26Q1028 -132 1102 -132Q1125 -132 1170.5 -129Q1216 -126 1238 -126ZM1070 -177V-184Q1070 -188 1058 -261Q1042 -359 1042 -415Q1042 -428 1044 -450Q1046 -476 1046 -484Q1026 -515 976 -549Q911 -594 898 -606Q893 -611 817 -697Q754 -508 754 -463Q754 -423 761 -392Q765 -378 788 -338Q809 -302 809 -291Q809 -202 747 -140Q737 -130 725 -117Q721 -106 721 -81Q721 -61 726.5 -23Q732 15 732 35Q732 82 730 110Q753 78 823 2Q858 -29 921 -97Q925 -103 943 -157Q955 -191 994 -202ZM1146 -38Q1125 -75 1127 -107Q1116 -109 1099 -109Q1095 -75 1094 -73Q1091 -62 1074 -43Q1069 -38 1061 -26Q1055 -10 1055 41Q1055 60 1060 75Q1063 40 1090 -38Q1105 -40 1119 -47L1130 -36V17H1132Q1139 -6 1146 -38ZM558 -1153Q547 -1139 536 -1124.5Q525 -1110 527 -1096Q517 -1098 505 -1098Q507 -1098 462 -1093Q480 -1116 489 -1141Q525 -1141 558 -1153Z"/>
</svg>