<svg xmlns="http://www.w3.org/2000/svg" viewBox="4.3 -1581.7 2583.4 2027.4">
	<path fill="currentColor" d="M2492 350H100L288 -369Q348 -163 465 250Q480 263 503 263Q507 263 521 262L875 237Q806 161 738 84Q649 -15 623 -77Q611 -105 563 -281Q558 -303 545 -343Q524 -354 494 -373Q479 -385 445 -454Q418 -508 380 -508Q360 -508 312 -454L307 -460Q304 -454 300 -454Q279 -454 279 -506Q279 -580 341 -637Q357 -652 402 -669Q422 -704 457 -759Q487 -798 583 -802Q553 -844 528 -844Q509 -844 471 -837Q433 -830 414 -830Q378 -830 344 -855Q307 -882 307 -917Q307 -947 330 -959Q334 -956 389 -901Q400 -902 411 -912V-1445Q450 -1486 476 -1486Q485 -1486 502 -1473Q519 -1460 528 -1460Q537 -1460 555.5 -1473Q574 -1486 583 -1486Q616 -1486 648 -1454Q680 -1486 707 -1486Q714 -1486 732 -1470Q750 -1454 759 -1454Q767 -1454 785.5 -1470Q804 -1486 814 -1486Q839 -1486 865.5 -1449Q892 -1412 892 -1386V-906Q891 -906 891 -905Q891 -901 902 -901Q920 -901 980 -946Q1003 -927 1003 -921Q1003 -898 970.5 -863.5Q938 -829 914 -829Q889 -829 841 -836Q793 -843 769 -843Q738 -843 716 -799Q743 -796 796 -785Q863 -766 956 -613Q967 -592 993 -558Q1018 -535 1213 -437L1413 -876L1793 -303Q1789 -301 1783 -301Q1777 -301 1766.5 -304Q1756 -307 1750 -307Q1740 -307 1718 -295Q1718 -291 1719 -282.5Q1720 -274 1720 -269Q1720 -259 1717 -253Q1710 -254 1697.5 -266.5Q1685 -279 1677 -279Q1669 -279 1643 -257Q1617 -235 1604 -232L1413 -794L1245 -428Q1329 -359 1459 -236Q1616 -87 1669 -40Q1745 28 1887 100.5Q2029 173 2128 196Q2219 214 2309 231Q2407 251 2492 284ZM1739 -337L1480 -726L1617 -294Q1658 -307 1739 -337ZM865 -895V-1360Q865 -1417 818 -1453Q803 -1445 782 -1426V-902Q810 -901 865 -895ZM748 -902V-1419Q728 -1439 701 -1453Q658 -1445 658 -1357Q658 -1353 666 -882Q690 -901 748 -902ZM639 -1044Q639 -1050 629 -1280Q629 -1329 623 -1424Q620 -1447 587 -1447Q562 -1447 551 -1432V-909Q578 -904 631 -889Q631 -914 635 -966Q639 -1018 639 -1044ZM514 -908V-1425Q493 -1447 476 -1447Q451 -1447 438 -1419V-908ZM909 -868Q811 -876 769 -876Q727 -876 709 -872Q697 -869 683.5 -844Q670 -819 671 -805Q705 -844 713 -849Q730 -861 772 -861Q788 -861 820 -858.5Q852 -856 868 -856Q903 -856 909 -868ZM2458 324V299Q2397 281 2230 255Q2085 232 2004 199Q1808 118 1717 42Q1704 31 1439 -213Q1265 -373 1147 -441Q1115 -460 1051 -490Q1018 -495 969 -514Q956 -525 947 -548Q933 -586 933 -586Q855 -742 782 -757Q706 -773 617 -773Q517 -773 486 -743Q472 -730 455.5 -695Q439 -660 425 -647Q406 -640 376 -626Q333 -601 313 -530L316 -508Q322 -534 357 -559.5Q392 -585 419 -585Q428 -585 457 -572Q483 -560 494 -562Q491 -590 472 -595.5Q453 -601 453 -626Q453 -686 531 -686Q715 -686 715 -545Q715 -518 661.5 -461Q608 -404 582 -404H569Q566 -404 556 -416Q544 -403 525 -394Q525 -394 524 -394Q523 -394 521 -393Q538 -384 573 -369Q588 -300 604 -230Q623 -149 650 -96Q687 -22 786 88Q894 209 929 266Q921 268 904 275Q762 283 478 297L484 324ZM623 -810Q624 -824 609.5 -847Q595 -870 582 -873Q559 -878 501 -878Q446 -878 385 -873Q423 -872 499 -870Q543 -869 569 -860Q584 -855 623 -810ZM519 -639Q507 -651 504 -651Q485 -651 485 -631L486 -628Q492 -623 499 -623Q510 -623 519 -639ZM682 -547Q682 -619 624 -641Q606 -648 599 -648H549Q552 -642 552 -638Q552 -623 521 -598Q521 -592 523.5 -579.5Q526 -567 526 -561Q526 -551 515 -537Q504 -523 494 -523Q490 -523 488 -524Q514 -472 528 -437Q534 -455 534 -462Q534 -470 532 -487Q530 -504 530 -512Q530 -580 592 -580Q643 -580 643 -505Q643 -493 641 -487Q682 -505 682 -547ZM613 -511Q613 -517 605.5 -532Q598 -547 592 -547Q560 -547 560 -504Q560 -506 569 -452Q613 -487 613 -511ZM502 -415Q499 -444 474 -487Q446 -535 421 -535H412Q449 -525 468 -484Q498 -420 502 -415ZM449 317L288 -245L141 317Z"/>
</svg>