<svg xmlns="http://www.w3.org/2000/svg" viewBox="0 0 597 1000">
  <g transform="scale(1,-1) translate(0,-1000)">
    <path d="M439 813Q439 816 447.0 823.5Q455 831 463.0 843.5Q471 856 471 873Q471 882 468 891Q462 891 448.0 885.5Q434 880 431 880Q421 880 421 890Q421 898 428 900Q430 901 442.0 905.0Q454 909 461 910Q462 910 464.0 910.5Q466 911 468 911Q491 911 491 873Q491 846 475.0 824.5Q459 803 449.0 803.0Q439 803 439 813ZM347 941Q373 941 373.0 923.0Q373 905 347 905Q322 905 322.0 923.0Q322 941 347 941ZM305 997Q325 997 346.0 998.5Q367 1000 389 1000Q444 1000 495 966Q525 947 542.5 920.0Q560 893 565.0 873.5Q570 854 578 812Q597 707 597 601V506Q597 498 591.0 492.0Q585 486 577 486L503 485Q508 422 508 336Q508 215 489 69Q490 69 492.5 68.5Q495 68 499.0 67.5Q503 67 506 67Q530 65 547.5 59.5Q565 54 573.5 48.0Q582 42 587.0 35.0Q592 28 593.0 24.5Q594 21 594 20Q594 12 588.0 6.0Q582 0 574 0H20Q0 0 0 11Q0 33 20.5 44.5Q41 56 66.5 61.0Q92 66 96 70Q103 77 103 114Q103 152 83.5 189.5Q64 227 44.5 268.5Q25 310 25 358Q25 396 64 417V725Q53 717 49.0 708.0Q45 699 30 654Q29 662 25.0 681.0Q21 700 21 711Q21 726 37.5 749.5Q54 773 66 813Q67 819 68.0 824.0Q69 829 69.5 835.0Q70 841 71 846Q74 840 80.0 833.0Q86 826 89.5 820.0Q93 814 93 806V801Q93 776 80 748Q90 744 90 736V425H95Q112 425 125 415Q154 393 177.5 367.0Q201 341 213.5 322.5Q226 304 246 271Q270 232 270 232Q271 255 271 296Q271 400 288 478Q234 477 234 477Q226 477 220.0 483.0Q214 489 214 497V499Q220 565 257.0 625.5Q294 686 302 713Q310 742 310 748Q310 766 272 766Q264 766 246.5 764.0Q229 762 220 762Q177 762 153.5 785.0Q130 808 130 839Q130 868 157 895Q177 915 216.0 929.0Q255 943 273 959Q274 961 275.0 967.0Q276 973 278 977Q286 997 305 997ZM143 113Q143 59 121 40H460Q449 49 449 67Q449 67 453.5 101.5Q458 136 463.0 200.0Q468 264 468 335Q468 412 462 492Q457 499 457 505Q457 510 460 515Q455 534 439.5 549.5Q424 565 407 565Q402 565 394.5 563.5Q387 562 374.5 556.5Q362 551 351.0 537.0Q340 523 334 502Q319 446 315.0 396.5Q311 347 311.0 282.5Q311 218 307 171Q305 153 287 153Q277 153 271 161Q247 193 218.5 240.0Q190 287 164.5 320.5Q139 354 101 383Q97 385 95 385Q86 385 75.5 376.0Q65 367 65 358V357Q66 303 104.5 235.5Q143 168 143 113ZM272 806Q279 806 287.5 804.5Q296 803 312.5 798.5Q329 794 339.5 780.5Q350 767 350 747Q350 737 340 701Q329 664 297.0 614.0Q265 564 257 518L298 519Q329 605 407 605Q438 605 464.5 581.0Q491 557 499 525L557 526V602Q557 704 539 805Q532 844 527.0 860.5Q522 877 509.0 897.0Q496 917 473 932Q430 960 389 960Q379 960 355.5 958.5Q332 957 314 957Q308 936 301 930Q277 908 234.0 893.0Q191 878 175 855Q170 847 170 839Q170 826 177 818Q254 831 284 851Q288 853 289 853Q299 853 299 843Q299 835 272.5 823.5Q246 812 206 803Q210 802 220 802Q228 802 245.5 804.0Q263 806 272 806Z" fill="currentColor"/>
  </g>
</svg>