<svg xmlns="http://www.w3.org/2000/svg" viewBox="0 -2048 2048 2048">
	<path fill="#000000" d="M1099 365H100V340L317 259Q321 255 321 248L175 -260Q178 -300 202.5 -331.5Q227 -363 264 -363Q274 -363 304 -352.5Q334 -342 342 -333Q388 -282 593 -22Q604 -99 609 -215Q617 -386 619 -407Q601 -411 574 -411Q548 -411 527 -407V-549Q527 -555 533 -588Q541 -627 543 -645Q511 -648 488 -681Q467 -710 467 -738Q467 -745 564 -987Q534 -1033 445 -1033Q383 -1033 322 -990Q270 -947 217 -903Q211 -902 186 -927Q265 -1037 382 -1085Q420 -1093 485 -1110Q517 -1125 580 -1150V-1154Q533 -1177 499 -1234Q467 -1286 467 -1330Q467 -1410 538 -1469Q604 -1524 680 -1524Q762 -1524 828 -1463Q894 -1402 894 -1322Q894 -1197 748 -1138Q898 -1103 978 -988Q1045 -891 1045 -766V-408Q1019 -408 963 -408L959 202Q950 230 937 260Q1005 307 1099 365ZM867 -1324Q867 -1393 812 -1445Q757 -1497 686 -1497Q615 -1497 558 -1454Q494 -1406 494 -1333Q494 -1263 552 -1207.5Q610 -1152 686 -1152Q753 -1152 806 -1196Q867 -1246 867 -1324ZM1018 -434V-798Q1018 -906 935 -996Q847 -1093 711 -1118Q729 -1091 729 -1061Q729 -1010 657.5 -918.5Q586 -827 586 -787Q586 -773 599.5 -756.5Q613 -740 613 -736Q613 -730 592 -678Q569 -619 562 -593Q554 -561 554 -554V-434H612Q616 -452 622 -542Q627 -607 645 -644Q670 -696 730 -726Q770 -746 788 -746Q834 -746 883.5 -695.5Q933 -645 940 -587Q947 -535 959 -434ZM705 -1054Q705 -1078 691 -1101Q672 -1130 640 -1130Q614 -1130 485 -1086Q378 -1049 343 -1034Q418 -1060 443 -1060Q482 -1060 524 -1048Q591 -1029 591 -987Q591 -981 563 -922Q529 -851 519 -826Q494 -763 494 -738Q494 -683 552 -671Q580 -732 580 -733Q580 -737 569.5 -759Q559 -781 559 -787Q559 -824 608 -896Q647 -952 686 -1007Q705 -1038 705 -1054ZM1007 337Q970 314 904 271Q907 260 919.5 240Q932 220 932 213V-491Q932 -499 927 -507Q922 -515 922 -517Q917 -586 889 -644Q852 -719 794 -719Q755 -719 715 -692Q671 -662 663 -620Q640 -498 629 -278Q623 -143 616 -9Q616 4 605 26Q515 -88 326 -311Q303 -336 267 -336Q208 -336 208 -241Q208 -197 278 29Q316 147 354 265Q309 286 181 337ZM640 -1079Q631 -1060 613 -1060Q605 -1060 596.5 -1063Q588 -1066 586 -1066Q593 -1082 610 -1114Q622 -1102 640 -1079Z"/>
</svg>