<svg xmlns="http://www.w3.org/2000/svg" viewBox="0 -2048 2048 2048">
	<path fill="currentColor" d="M1104 -119H1062Q1060 -142 1046 -194H1040Q1039 -187 1036 -169L1031 -162H1001Q989 -198 989 -225Q989 -231 1000 -256Q1011 -281 1011 -288Q1011 -294 1007 -320.5Q1003 -347 1002 -357Q1010 -415 1004 -526Q994 -566 921 -700Q907 -649 907 -590Q907 -586 932 -520Q959 -449 965 -418Q964 -423 958 -324Q952 -227 1009 -50Q1045 61 1065 150H1012L931 -173Q928 -167 929 -143L1028 313Q1023 332 999 347Q981 360 973 360Q967 360 958 354.5Q949 349 943 349Q936 349 931.5 354Q927 359 920 359H754Q754 340 756.5 320.5Q759 301 759 295Q907 286 907 217Q907 174 861 67Q839 16 815 -11Q821 -66 803 -168H752Q722 -113 703 -46Q641 161 612 253Q610 259 615 278Q621 301 621 313Q621 324 603.5 342Q586 360 577 360Q570 360 555.5 351.5Q541 343 534 343Q529 343 505 350Q481 357 471 358Q439 360 326 357V300Q339 296 427 282Q469 276 482 246Q518 160 568 -67Q615 -282 663 -380Q681 -421 715 -497L673 -662Q660 -607 619 -509Q606 -489 526 -476Q493 -470 333 -462Q316 -461 291.5 -446Q267 -431 262 -431L253 -437V258Q262 263 279 279Q280 303 292 346Q285 354 285 359Q254 354 234 316Q191 359 190 359H161Q161 357 158 354Q155 351 155 343Q155 336 167 320.5Q179 305 180 301Q180 301 184 275Q192 271 210 257L204 -428Q204 -437 195 -449Q195 -450 193 -466Q191 -480 193 -488Q195 -500 204 -505Q202 -507 183 -551H201L206 -556Q210 -654 214 -752Q216 -871 201 -947Q175 -895 119 -799Q100 -814 100 -851Q100 -857 104 -881Q108 -905 109 -917Q111 -958 157 -1055Q200 -1145 194 -1188Q200 -1188 212 -1200Q223 -1195 240 -1182Q254 -1163 254 -1134Q254 -1091 220 -1000Q246 -987 253 -972V-556Q315 -535 308 -535Q334 -535 437 -566Q460 -571 483 -576Q513 -584 527 -600Q536 -635 558.5 -698Q581 -761 606 -823Q638 -890 677 -891Q649 -931 649 -944Q649 -951 676 -995Q707 -1047 715 -1065Q700 -1084 654 -1084Q542 -1084 488 -1030H469Q466 -1036 457 -1048Q513 -1135 668 -1157Q692 -1167 743 -1187Q743 -1197 733 -1203Q679 -1209 625 -1215Q562 -1232 556 -1297Q559 -1300 565.5 -1303Q572 -1306 575 -1309Q617 -1265 660 -1265Q680 -1265 688 -1266Q705 -1329 732 -1459Q704 -1465 704 -1501Q704 -1513 720 -1538Q738 -1567 756 -1567Q778 -1567 811 -1534Q869 -1562 874 -1562Q896 -1562 912.5 -1540Q929 -1518 929 -1499Q929 -1492 917.5 -1475Q906 -1458 895 -1454Q905 -1386 925 -1274Q929 -1254 956 -1254Q964 -1254 998 -1269Q1041 -1288 1054 -1292Q1054 -1290 1057.5 -1284.5Q1061 -1279 1061 -1271Q1061 -1262 1040.5 -1240.5Q1020 -1219 1004 -1212Q997 -1209 937 -1205Q886 -1201 868 -1181Q911 -1161 954 -1142Q1010 -1111 1031 -1066Q1084 -954 1082 -901V-795H1015Q1011 -790 1011 -785L1104 -516Q1104 -517 1089 -313Q1087 -281 1095 -218Q1104 -148 1104 -119ZM901 -1491V-1517Q883 -1534 868 -1534Q847 -1534 825 -1511V-1360Q849 -1358 864 -1328Q877 -1302 875 -1277H895Q868 -1466 868 -1458Q868 -1463 901 -1491ZM802 -1360V-1499Q803 -1519 761 -1540Q738 -1529 726 -1504Q740 -1493 764 -1468L720 -1289Q735 -1274 748 -1281Q743 -1290 743 -1301Q743 -1322 762.5 -1340Q782 -1358 802 -1360ZM852 -1287Q852 -1337 814 -1337Q803 -1337 788 -1326Q770 -1313 770 -1298Q770 -1254 819 -1254Q852 -1254 852 -1287ZM945 -1230Q936 -1230 915.5 -1234Q895 -1238 888 -1238Q841 -1238 825 -1190H846Q845 -1226 903 -1226H910Q935 -1226 945 -1230ZM791 -1193Q771 -1230 762.5 -1236.5Q754 -1243 726 -1243Q719 -1243 701 -1239Q683 -1235 674 -1235Q724 -1235 750 -1231Q759 -1227 768 -1208Q775 -1193 791 -1193ZM1061 -856Q1061 -908 1032 -994Q998 -1094 955 -1115Q873 -1155 865 -1155H847Q860 -1138 860 -1121Q860 -1099 834 -1070Q808 -1041 808 -1031V-821H851Q850 -843 849 -864Q849 -892 874 -892Q963 -892 996 -821H1054Q1061 -833 1061 -856ZM653 -1236V-1245H633V-1236ZM779 -943V-991Q770 -979 753 -943ZM830 -1123Q830 -1133 811.5 -1150Q793 -1167 775 -1167Q768 -1167 758.5 -1163.5Q749 -1160 748 -1160Q756 -1133 754 -1122H718Q713 -1131 702 -1145Q645 -1125 556 -1103Q628 -1112 695 -1112Q708 -1112 725 -1091.5Q742 -1071 742 -1057Q742 -1050 712 -999Q682 -948 682 -941Q682 -934 696 -915Q713 -892 729 -892H780V-913Q720 -913 720 -947Q720 -949 811 -1074Q830 -1100 830 -1123ZM232 -1131Q232 -1139 228 -1149Q224 -1159 224 -1161Q189 -1056 138 -954Q161 -943 156 -931Q232 -1083 232 -1131ZM1083 -519Q1083 -543 1024 -684Q970 -811 948 -851Q943 -852 919 -858Q899 -864 892 -864H872Q878 -831 872 -793H785Q781 -809 781 -828Q781 -847 785 -864H685Q659 -865 645 -841Q608 -776 570 -649Q555 -600 540 -569Q471 -549 402 -530Q330 -511 276 -512Q283 -497 282 -475Q334 -487 504 -500Q584 -506 602.5 -537.5Q621 -569 664 -728H683L738 -508Q763 -513 817 -522.5Q871 -532 896 -537Q879 -568 879 -617Q879 -685 908 -756Q912 -761 919 -761Q964 -684 1031 -526Q1037 -503 1031 -466Q1026 -442 1022 -417Q1020 -388 1029 -335Q1039 -279 1039 -280Q1039 -292 1017 -223Q1029 -223 1037.5 -225.5Q1046 -228 1052 -228Q1069 -228 1069 -211L1071 -231Q1057 -259 1060 -331Q1063 -385 1067 -439Q1067 -455 1075 -485.5Q1083 -516 1083 -519ZM929 -425Q929 -437 916.5 -469Q904 -501 894 -508Q886 -506 739 -483Q695 -375 622 -199H906Q909 -240 920 -335Q929 -419 929 -425ZM144 -907L135 -911L137 -878V-884Q144 -912 144 -907ZM1000 314Q991 292 980 258Q975 200 960 98Q940 28 920.5 -43Q901 -114 901 -167H831Q831 -115 842 -27Q859 2 883 50Q934 207 934 228Q934 291 781 326Q805 338 833 338Q840 338 890.5 329.5Q941 321 948 321Q955 321 960.5 326.5Q966 332 973 332Q984 332 1000 314ZM241 -459Q253 -471 252 -487Q252 -502 239 -508Q238 -505 226.5 -492Q215 -479 215 -472Q215 -467 229 -453Q234 -458 241 -459ZM720 -167H611Q608 -156 597 -105Q578 -22 546 137Q534 211 510 257Q494 288 439 303Q393 312 347 321Q375 332 413 332Q504 332 541 310Q563 332 577 332Q587 332 594 325V285Q587 274 584 253Z"/>
</svg>