<svg xmlns="http://www.w3.org/2000/svg" viewBox="24.9 -1600.1 1957.2 2027.2">
	<path fill="currentColor" d="M1907 -56L1801 35Q1817 45 1847 44Q1848 47 1854 56Q1760 191 1485 278Q1253 352 1054 352Q835 352 599 281Q321 197 168 51Q169 50 206 29Q174 -3 147 -39Q161 -53 163 -53Q170 -53 186 -43Q202 -33 208 -31Q211 -34 211 -53Q211 -69 180 -104Q143 -145 136 -162L149 -175Q167 -167 208 -148Q211 -151 211 -170Q211 -185 116 -296Q121 -294 208 -265Q211 -268 211 -289Q211 -310 169 -357Q139 -387 110 -418Q126 -413 159 -403Q192 -393 208 -388Q211 -391 211 -412Q211 -434 172 -472Q139 -504 105 -535Q167 -510 188 -510H207Q211 -513 211 -534Q211 -557 191 -575Q159 -606 142 -633Q161 -637 181 -627Q195 -669 195 -677Q195 -689 154 -724Q129 -744 105 -764Q140 -759 213 -744Q216 -747 216 -765Q216 -788 174 -834Q142 -868 110 -902Q146 -889 213 -866Q216 -869 216 -888Q216 -908 174 -954Q145 -984 116 -1014Q170 -996 213 -988Q216 -991 216 -1010Q216 -1041 105 -1152Q139 -1140 213 -1111L217 -1114V-1150Q177 -1186 100 -1253Q134 -1246 213 -1228Q216 -1231 216 -1244Q216 -1262 137 -1341Q137 -1344 140 -1350.5Q143 -1357 143 -1360Q170 -1353 218 -1334Q237 -1352 237 -1363Q237 -1370 228 -1406Q220 -1439 223 -1467Q230 -1460 251 -1440Q272 -1420 283 -1409Q293 -1415 304 -1453.5Q315 -1492 326 -1504Q337 -1477 363 -1425Q378 -1445 416 -1494Q420 -1478 424 -1424Q427 -1382 434 -1382L487 -1386Q485 -1379 492 -1346Q450 -1348 450 -1340Q450 -1328 467.5 -1304Q485 -1280 497 -1275V-1234H318V-1270Q339 -1273 346 -1298Q350 -1320 355 -1341Q344 -1349 323 -1346Q326 -1355 333 -1374Q330 -1377 323 -1377Q310 -1377 284.5 -1357Q259 -1337 259 -1327V-689Q301 -664 344 -664Q351 -664 443.5 -661.5Q536 -659 543 -659Q559 -659 563 -660Q618 -717 674 -774Q741 -842 787 -864Q824 -870 903 -886V-925Q907 -926 834 -926Q837 -948 814 -982Q791 -1016 791 -1018Q791 -1043 867 -1173Q884 -1203 972 -1237V-1325Q934 -1338 934 -1358Q934 -1367 946 -1386Q947 -1388 970 -1402Q982 -1515 1027 -1515Q1021 -1515 1067 -1492Q1067 -1486 1063.5 -1480.5Q1060 -1475 1060 -1473Q1033 -1488 1025 -1488Q999 -1488 998 -1460V-1243Q1126 -1215 1126 -1106Q1126 -1048 1103 -994Q1077 -943 1051 -891Q1106 -886 1209 -869Q1307 -844 1378 -737Q1417 -678 1454 -660Q1456 -659 1487 -659Q1573 -659 1738 -690L1742 -1305Q1745 -1320 1722 -1347.5Q1699 -1375 1677 -1377Q1673 -1369 1672 -1350Q1671 -1340 1657 -1336Q1657 -1290 1678 -1269V-1223H1509V-1256Q1509 -1263 1517 -1291Q1526 -1323 1528 -1336Q1526 -1340 1515 -1340V-1376Q1521 -1376 1540.5 -1378.5Q1560 -1381 1568 -1381Q1573 -1411 1573 -1488Q1576 -1488 1585.5 -1490.5Q1595 -1493 1598 -1493Q1608 -1470 1628 -1425Q1645 -1469 1653 -1514H1672Q1678 -1481 1693 -1419Q1729 -1455 1789 -1525Q1758 -1401 1758 -1390Q1758 -1382 1766 -1382Q1780 -1382 1864 -1424Q1785 -1313 1785 -1308Q1785 -1302 1787.5 -1293.5Q1790 -1285 1790 -1280Q1822 -1276 1902 -1296Q1865 -1263 1790 -1198V-1156L1794 -1153Q1829 -1160 1891 -1168L1790 -1070V-1036Q1817 -1044 1891 -1056L1790 -953V-924Q1797 -922 1806 -922Q1810 -922 1902 -950L1790 -836V-807Q1797 -805 1805 -805Q1819 -805 1849 -814Q1886 -826 1899 -828Q1790 -727 1790 -715Q1790 -709 1804.5 -696Q1819 -683 1821 -675Q1828 -679 1870 -679Q1843 -646 1790 -581V-567Q1799 -558 1801 -558Q1806 -558 1896 -588L1795 -485L1800 -430Q1832 -441 1896 -461L1795 -357L1800 -313Q1818 -321 1852 -334L1865 -321L1795 -230V-179Q1792 -175 1804 -175Q1803 -175 1896 -206Q1861 -168 1826 -130Q1796 -95 1796 -63Q1796 -37 1799 -31Q1834 -38 1907 -56ZM1641 -1271Q1632 -1315 1624 -1339H1551Q1548 -1321 1558 -1270Q1572 -1281 1579 -1303Q1584 -1319 1600 -1319Q1612 -1301 1621 -1271ZM1796 -636Q1788 -653 1771 -653Q1749 -642 1749 -622Q1752 -622 1760.5 -616.5Q1769 -611 1772 -611Q1796 -623 1796 -636ZM1104 -1106Q1104 -1143 1070 -1180Q1036 -1217 995 -1217Q901 -1217 865 -1128Q882 -1126 935 -1115Q980 -1106 987 -1106Q994 -1106 999.5 -1113.5Q1005 -1121 1011 -1121Q1020 -1121 1038 -1108.5Q1056 -1096 1056 -1084Q1056 -1082 1040.5 -1050.5Q1025 -1019 1025 -995Q1042 -987 1070 -973Q1104 -1035 1104 -1106ZM1742 37V-583Q1730 -595 1719 -595Q1714 -595 1642 -580Q1565 -565 1532 -561Q1453 -552 1437 -552Q1386 -552 1317 -610Q1307 -618 1197 -728Q1163 -639 1163 -521Q1163 -478 1181.5 -396Q1200 -314 1200 -271Q1200 -253 1198 -236.5Q1196 -220 1184 -209Q1243 -188 1243 -159Q1243 -131 1201 37ZM1742 -663Q1592 -638 1580 -638H1437Q1419 -638 1376 -697Q1321 -773 1276 -807Q1198 -866 1096 -866Q1094 -866 1077.5 -863Q1061 -860 1029 -860Q1029 -868 1027 -876Q1025 -884 1025 -890Q1025 -903 1056 -949Q998 -971 998 -1015Q998 -1022 1011.5 -1048.5Q1025 -1075 1025 -1082Q1025 -1094 1017 -1095Q1001 -1079 993 -1079Q987 -1079 940 -1088Q887 -1097 861 -1100Q854 -1082 837 -1051Q822 -1026 822 -1020Q822 -1013 840 -985.5Q858 -958 861 -947Q935 -947 930 -946Q928 -905 920 -855Q863 -858 792 -832Q757 -819 664 -723Q576 -632 565 -632Q567 -632 521 -633Q455 -635 320 -638Q311 -638 295.5 -642.5Q280 -647 275 -647Q282 -632 281 -612L551 -579Q633 -579 719 -667Q805 -755 812 -755Q843 -755 873 -687Q896 -637 900 -608Q929 -397 925 -335Q1025 -401 1152 -426Q1142 -450 1142 -453V-588Q1142 -602 1155 -665Q1168 -734 1177 -749H1188L1197 -760Q1264 -694 1331 -629Q1389 -579 1447 -579Q1453 -579 1555 -594Q1672 -611 1720 -617Q1720 -641 1742 -663ZM449 -1276Q441 -1299 422 -1344H382Q374 -1320 364 -1276Q394 -1312 405 -1334Q419 -1313 449 -1276ZM1211 -146Q1211 -180 1179 -180Q1172 -180 1160.5 -172.5Q1149 -165 1144 -164Q1119 -164 1075 -162Q1054 -160 963 -141Q864 -120 719 -21Q716 -24 712 -30Q708 -36 705 -39Q904 -181 1123 -187Q1147 -188 1164 -219Q1179 -246 1179 -273Q1179 -340 1151 -398Q1034 -371 934 -313Q859 -269 685 -138Q665 -123 634.5 -83.5Q604 -44 604 -31Q604 -21 628 5Q652 31 673 38L1154 -117Q1168 -98 1168 -63Q1168 13 1112 36Q1138 30 1182 15Q1184 -20 1197.5 -82Q1211 -144 1211 -146ZM1147 -63Q1147 -71 1143.5 -79Q1140 -87 1140 -89L791 37H1080Q1088 38 1089 25.5Q1090 13 1092 13Q1121 4 1128 -6Q1147 -34 1147 -63ZM896 -335V-481Q899 -536 858 -662Q847 -696 815 -728Q738 -659 662 -590Q613 -552 549 -552Q461 -552 342 -575Q297 -584 309 -584H265V37H380Q378 23 391 2Q427 -5 463 -11Q510 -25 528 -59Q533 -68 530 -93L477 -391Q475 -395 475 -402Q475 -432 500 -466Q527 -505 562 -505Q600 -505 746 -424Q876 -353 896 -335ZM764 -231L616 -323Q634 -234 632 -133ZM881 -316Q811 -357 741 -399Q602 -478 565 -478Q534 -478 515 -441Q500 -411 503 -387L557 -86Q560 -77 560 -68Q560 -26 499 6Q446 34 408 29Q422 43 437 43Q444 43 485 30Q526 17 533 17Q541 17 558 27.5Q575 38 580 38Q586 38 599 25Q578 -5 578 -23Q578 -30 589 -51.5Q600 -73 602 -81.5Q604 -90 604 -167Q604 -253 597 -295Q596 -301 589.5 -318Q583 -335 583 -342Q583 -359 601 -366Q763 -249 791 -249Q800 -249 881 -316ZM259 -630Q254 -635 252 -642H211L217 -601Q254 -609 259 -630ZM1811 66H227Q591 325 1056 325Q1249 325 1447 266Q1682 195 1811 66ZM911 -1021Q884 -1031 856 -1031Q855 -1035 849 -1044Q859 -1068 884 -1068Q913 -1068 913 -1034Q913 -1028 911 -1021Z"/>
</svg>