<svg xmlns="http://www.w3.org/2000/svg" viewBox="0 -2048 2048 2048">
	<path fill="#000000" d="M1211 -1504Q1211 -1454 1138 -1372Q1094 -1323 1013 -1296Q997 -1291 868 -1260Q999 -1251 1053 -1223Q1135 -1179 1135 -1067Q1135 -966 1075 -880Q1015 -794 1015 -770Q1015 -757 1034 -681Q1054 -597 1057 -580Q1075 -463 1075 -252Q1075 103 1010 254Q1069 288 1184 359H178L166 341Q225 312 340 248Q303 115 266 -18Q209 -227 209 -257Q209 -277 215 -293L160 -434Q161 -435 216 -435H242V-965Q233 -979 222 -985H208Q185 -916 136 -778L108 -791Q100 -829 100 -895Q100 -973 123 -1033Q152 -1098 180 -1163Q185 -1176 185 -1187Q185 -1196 182 -1205L189 -1273Q253 -1252 253 -1173Q253 -1128 226 -1038Q280 -1011 280 -994V-434Q295 -431 323 -415Q338 -400 417 -302Q482 -218 614 -53Q626 -124 643 -410Q645 -457 652 -552Q658 -600 692 -666Q693 -667 693 -669Q692 -672 690 -675Q660 -689 629 -720Q699 -818 699 -838Q699 -872 634 -944Q660 -980 692.5 -1064.5Q725 -1149 750 -1183Q792 -1239 863 -1254Q859 -1255 850 -1255Q837 -1255 812.5 -1250.5Q788 -1246 776 -1246Q689 -1246 558 -1429L577 -1442Q712 -1268 776 -1268Q753 -1268 854 -1282Q1087 -1314 1160 -1439Q1181 -1474 1184 -1494Q1184 -1494 1184 -1509Q1165 -1519 1124 -1519Q1020 -1519 932 -1474Q877 -1446 768 -1361Q710 -1407 645 -1472L658 -1486Q723 -1447 763 -1393H764Q768 -1393 772 -1394Q899 -1540 1128 -1540Q1181 -1540 1203 -1534L1211 -1539ZM1108 -1067Q1108 -1230 917 -1230Q834 -1230 789 -1186Q756 -1154 716 -1062H932Q959 -1088 966 -1088Q974 -1088 996 -1072Q1021 -1053 1021 -1037Q1021 -1030 996.5 -974Q972 -918 972 -911Q972 -897 984 -878Q1000 -854 1021 -854Q1053 -854 1083 -949Q1108 -1029 1108 -1067ZM797 -757V-810H744Q722 -758 701 -686Q728 -732 797 -757ZM703 -783Q689 -763 661 -726L675 -713Q696 -755 703 -783ZM226 -1170Q226 -1205 211 -1235Q211 -1179 207 -1168Q201 -1152 145 -1026Q122 -974 122 -911Q122 -905 126 -868.5Q130 -832 130 -821Q145 -911 189 -1017Q226 -1104 226 -1170ZM1092 336Q1051 311 972 264Q1048 131 1048 -252Q1048 -422 1043 -479Q1034 -571 995 -711Q971 -796 1004 -836Q984 -844 964.5 -870.5Q945 -897 945 -920Q945 -927 969.5 -979.5Q994 -1032 994 -1039Q994 -1049 969 -1061Q960 -1049 946 -1033H706Q697 -990 667 -944Q689 -918 733 -834Q764 -834 820 -828V-738Q812 -731 776 -718Q746 -708 723 -679Q680 -624 670 -443Q657 -215 643 -29Q642 -17 621 -5Q517 -129 466 -194Q395 -283 392 -287Q341 -342 302 -342Q249 -342 231 -260L373 259Q301 304 237 336ZM334 -362Q331 -382 292 -398Q259 -413 244 -412H199Q211 -382 228 -331Q257 -364 297 -364Q328 -364 334 -362ZM808 -950Q791 -952 772 -952Q752 -952 727 -950V-971Q727 -977 768 -1018L808 -978ZM176 -1016Q173 -1008 167 -987Q161 -966 158 -958Q155 -961 145.5 -964.5Q136 -968 133 -971Q137 -979 151 -1022Q154 -1022 163.5 -1019Q173 -1016 176 -1016Z"/>
</svg>