<svg xmlns="http://www.w3.org/2000/svg" viewBox="0 0 683 1000">
  <g transform="scale(1,-1) translate(0,-1000)">
    <path d="M300 674Q303 658 343.5 628.0Q384 598 384 574Q384 559 347 497Q339 484 334.0 466.0Q329 448 323.5 420.5Q318 393 317 389L290 253Q283 236 262 236H261Q248 236 222.5 264.0Q197 292 157.5 333.0Q118 374 80 397Q79 397 76.5 394.5Q74 392 71.5 387.5Q69 383 69 378V372V361Q69 324 81.5 257.5Q94 191 94 154Q94 123 87.5 100.5Q81 78 74.5 68.0Q68 58 51 36H451Q437 57 432.5 72.0Q428 87 428 118Q428 137 441.0 235.0Q454 333 454 447Q454 499 450.5 534.5Q447 570 441.5 595.5Q436 621 435 635Q435 636 425.5 651.0Q416 666 416 683Q416 687 416.5 694.0Q417 701 417 704Q417 721 397.5 733.5Q378 746 359 750L340 753Q336 753 327.0 751.0Q318 749 313 749Q297 725 297 700Q297 689 300 674ZM349 782Q382 778 414.5 758.0Q447 738 447 704Q447 701 446.5 693.5Q446 686 446 683Q446 674 450.0 667.5Q454 661 457.0 659.0Q460 657 469 653Q493 692 493 712Q493 746 466.0 772.0Q439 798 397 798Q371 798 349 782ZM346 729Q354 729 359.5 722.0Q365 715 365 706Q365 700 359.0 695.5Q353 691 346 691Q321 691 321 706Q321 716 328.0 722.5Q335 729 346 729ZM338 972V863H655V972ZM669 1000Q683 1000 683 986V849Q683 835 669 835H155Q141 835 141.0 847.0Q141 859 155 859H310V883H183Q169 883 169 895Q169 906 183 906H310V930H212Q198 930 198 941Q198 953 212 953H310V976H257Q241 976 241.0 988.0Q241 1000 257 1000ZM484 588Q484 581 486.0 553.5Q488 526 488 469V427Q486 311 474.0 222.0Q462 133 462 118Q462 92 465.5 80.5Q469 69 479.5 55.5Q490 42 498 26Q500 22 500 18Q500 12 495.0 6.0Q490 0 483 0H17Q0 0 0 18Q0 29 27.5 62.5Q55 96 58 122Q60 146 60 154Q60 188 47.0 254.0Q34 320 34 361V364Q34 375 35 380Q35 396 45.5 412.0Q56 428 72 432V728Q60 718 56 710Q51 700 47.0 690.0Q43 680 39.0 666.0Q35 652 33 645Q32 655 27.0 677.0Q22 699 22 711Q22 725 27.0 735.0Q32 745 40.0 755.0Q48 765 52 773Q69 812 72.5 824.0Q76 836 80 868Q83 862 90.5 853.5Q98 845 102.0 837.5Q106 830 106 821V815Q106 787 91 754Q102 750 102 740V426Q134 406 158.5 383.0Q183 360 210.5 329.0Q238 298 260 277L287 397Q288 402 293.5 425.0Q299 448 302.5 462.0Q306 476 312.5 494.0Q319 512 325 521Q346 552 346 563Q345 587 333 596Q324 571 290.0 549.0Q256 527 231 527Q211 527 211 544V545Q211 552 220.5 557.0Q230 562 244.0 568.5Q258 575 266 583Q288 605 296 621Q262 647 262 700Q262 751 304.5 792.0Q347 833 397 833Q456 833 492.0 795.5Q528 758 528 712Q528 699 523.5 684.0Q519 669 515.0 661.0Q511 653 500.5 636.5Q490 620 488 616Q484 604 484 588Z" fill="currentColor"/>
  </g>
</svg>