<svg xmlns="http://www.w3.org/2000/svg" viewBox="0 -2048 2048 2048">
	<path fill="#000000" d="M985 315H164Q164 310 152 298L294 224Q262 103 229 -17Q194 -155 187 -220Q173 -255 148 -322H210V-753Q206 -755 197 -762Q179 -740 165 -688Q144 -604 141 -596Q138 -596 129 -590Q100 -607 100 -692Q100 -750 101 -755Q124 -804 166 -902Q168 -907 168 -974Q168 -993 178 -993Q231 -993 231 -912Q231 -881 210 -807Q220 -802 234 -790Q252 -757 252 -729V-326Q270 -315 298 -290Q424 -130 511 -24Q516 -28 517 -48Q531 -286 531 -289Q548 -442 599 -531Q613 -556 660 -578V-612Q657 -616 639 -616Q617 -616 595 -567Q582 -537 569 -506Q552 -525 524 -544Q582 -631 582 -637Q582 -643 555.5 -682.5Q529 -722 529 -726Q529 -715 609 -907Q619 -932 662 -953Q713 -978 721 -986Q722 -1008 726 -1079Q729 -1137 729 -1173Q671 -1218 665 -1218Q657 -1218 650 -1213Q643 -1208 641 -1208Q636 -1214 636 -1220Q636 -1227 649 -1238Q662 -1249 664 -1253Q703 -1333 700 -1456Q700 -1463 686 -1504L698 -1516H817Q802 -1440 802 -1427Q802 -1387 821 -1321Q845 -1234 880 -1221Q880 -1221 876 -1211.5Q872 -1202 864 -1202Q859 -1202 849 -1210Q839 -1218 833 -1218Q825 -1218 807 -1201Q780 -1177 775 -1173Q783 -1105 797 -976Q878 -945 905 -914Q932 -883 932 -828Q932 -763 882.5 -685Q833 -607 833 -576Q833 -574 857 -462Q880 -355 880 -152Q880 109 828 229ZM811 -1258Q775 -1384 775 -1422Q775 -1427 782 -1483L774 -1490H718Q723 -1465 723 -1434Q723 -1357 692 -1260Q722 -1270 739 -1270Q724 -1270 811 -1258ZM807 -1231Q755 -1244 744 -1244Q736 -1244 697 -1231Q718 -1213 752 -1186Q777 -1212 807 -1231ZM769 -978Q763 -1054 752 -1118Q752 -1101 751 -1060Q749 -1014 749 -978ZM911 -825Q911 -887 852 -925Q803 -956 741 -956Q646 -956 603 -826H767Q774 -826 782 -833.5Q790 -841 796 -841Q838 -841 838 -799Q838 -782 831 -772Q820 -761 808 -745Q802 -723 802 -705Q802 -668 842 -658Q911 -731 911 -825ZM568 -561L560 -564L554 -550L561 -547ZM210 -909Q210 -926 190 -956Q195 -944 195 -929Q195 -904 174 -862Q146 -808 142 -795Q158 -789 161.5 -782.5Q165 -776 163 -767Q160 -758 160 -757Q210 -881 210 -909ZM147 -728Q147 -736 136 -740Q122 -746 122 -746Q129 -714 128 -668Q147 -744 147 -728ZM880 288Q840 268 796 235Q828 191 846 43Q859 -68 859 -160Q859 -204 854 -315Q851 -372 829 -489Q807 -606 807 -605Q807 -611 812 -624Q817 -637 817 -641Q801 -647 787 -673Q775 -695 775 -705Q775 -742 810 -785Q812 -790 812 -796Q812 -814 792 -814Q792 -809 782 -799H593Q561 -735 561 -728Q561 -721 579 -690Q600 -653 604 -642Q687 -642 687 -642V-562Q661 -549 620 -515Q559 -425 551 -251Q539 7 538 14Q532 23 522 23Q484 -24 415 -102Q381 -145 348 -188Q301 -244 257 -244Q236 -244 227 -223.5Q218 -203 210 -184L325 234Q299 251 226 288ZM293 -261Q282 -273 261 -296H184Q193 -275 207 -239Q238 -270 254 -270Q275 -270 293 -261ZM670 -726Q662 -730 646 -730Q630 -730 603 -726Q603 -728 600 -732Q597 -736 597 -744Q597 -746 637 -788Q649 -774 670 -750Z"/>
</svg>