<svg xmlns="http://www.w3.org/2000/svg" viewBox="0 -2048 2048 2048">
	<path fill="#000000" d="M954 338H111Q111 332 100 321Q143 298 245 245L137 -179Q168 -262 207 -262Q263 -262 350 -161Q411 -88 472 -15Q481 -160 490 -304Q503 -454 569 -546Q587 -557 621 -578V-613Q618 -617 599 -617Q577 -617 533 -504Q515 -524 487 -543Q493 -555 520 -598Q540 -630 540 -638Q540 -653 487 -732Q501 -752 572 -901Q609 -978 686 -992V-1188Q668 -1206 633 -1240Q624 -1241 607 -1224Q594 -1237 594 -1250Q610 -1255 630 -1271Q662 -1356 667 -1447Q668 -1468 656 -1538Q705 -1536 787 -1529Q766 -1477 766 -1436Q766 -1397 786 -1334Q812 -1255 847 -1238Q844 -1235 840 -1228.5Q836 -1222 833 -1219Q805 -1235 804 -1235Q808 -1235 744 -1189Q752 -1119 767 -986Q842 -960 871 -928Q900 -896 900 -832Q900 -768 852 -683.5Q804 -599 804 -576Q804 -571 828 -459Q852 -347 852 -144Q852 161 798 251ZM776 -1278Q739 -1414 739 -1455Q739 -1465 755 -1513H680Q691 -1488 691 -1453Q691 -1419 678 -1362Q660 -1287 659 -1278Q688 -1288 710 -1288Q740 -1288 776 -1278ZM771 -1249Q732 -1262 715 -1262Q700 -1262 658 -1248Q688 -1228 713 -1199V-988H738L718 -1192Q718 -1196 771 -1249ZM879 -834Q879 -896 824 -934Q777 -966 718 -966Q616 -966 568 -832H738Q746 -848 758 -848Q771 -848 790 -834.5Q809 -821 809 -805Q809 -791 790 -769Q771 -747 771 -713Q771 -660 806 -660Q827 -660 855 -741Q879 -812 879 -834ZM537 -571L529 -574L517 -550L524 -546ZM852 311Q814 292 766 256Q825 146 825 -155Q825 -316 818 -378Q813 -422 794 -510Q777 -592 777 -595Q777 -612 787 -642Q744 -659 744 -711Q744 -738 758 -764Q780 -803 782 -808Q770 -820 756 -820Q756 -814 746 -804H558Q558 -804 519 -726Q559 -683 563 -644Q593 -644 643 -634Q643 -623 645.5 -597.5Q648 -572 648 -561Q622 -549 585 -524Q535 -457 521 -370Q517 -344 511 -206Q506 -101 490 30Q484 39 480 39Q439 -12 364 -100Q330 -143 297 -186Q254 -235 212 -235Q184 -235 164 -168L277 256Q242 280 180 311ZM636 -730Q623 -734 608 -734Q592 -734 568 -730Q568 -732 565 -736Q562 -740 562 -748Q562 -752 602 -794Q631 -765 636 -754Z"/>
</svg>