<svg xmlns="http://www.w3.org/2000/svg" viewBox="0 -2048 2048 2048">
	<path fill="currentColor" d="M1109 -1191H956Q1056 -1149 1056 -1045Q1056 -953 1009 -866Q984 -837 936 -776Q943 -688 962 -617Q997 -485 997 -318Q997 -338 990 -46Q989 -9 986 8Q975 70 965 132Q950 206 927 250L1082 338Q1082 360 1065 360L100 356Q100 339 110 333Q128 324 164.5 305Q201 286 277 246L144 -231Q162 -350 222 -350Q268 -350 303 -323Q342 -294 427 -190Q488 -116 548 -42Q563 -195 574 -398Q574 -436 582 -510Q615 -654 676 -707Q677 -708 724 -727V-781Q725 -781 675 -781Q639 -710 619 -654H601Q578 -676 561 -698Q629 -791 629 -799Q629 -819 599 -861.5Q569 -904 569 -912Q569 -916 585 -939Q605 -968 632 -1056Q654 -1126 706 -1172Q718 -1182 739 -1191H614V-1408Q614 -1470 665 -1470Q680 -1470 697 -1454Q743 -1556 848 -1556Q975 -1556 1009 -1453Q1052 -1476 1061 -1476Q1074 -1476 1091.5 -1459Q1109 -1442 1109 -1429ZM994 -1410Q994 -1469 949 -1503Q909 -1533 848 -1533Q795 -1533 754.5 -1498Q714 -1463 714 -1411Q714 -1383 717 -1374Q723 -1356 750.5 -1329.5Q778 -1303 797 -1295Q812 -1289 844 -1289Q904 -1289 935 -1307Q954 -1318 974 -1353Q994 -1388 994 -1410ZM1083 -1218V-1435Q1083 -1450 1048 -1450Q1043 -1450 1040 -1448Q1026 -1431 1017 -1403Q1004 -1363 1001 -1355Q960 -1266 842 -1266Q805 -1266 783 -1276Q728 -1301 698 -1361Q698 -1362 691 -1411Q686 -1444 664 -1444Q640 -1444 640 -1426V-1218ZM1033 -1043Q1033 -1140 912 -1185Q901 -1189 879 -1189Q795 -1189 781 -1185Q710 -1164 666 -1087Q661 -1078 648 -1028L856 -1024Q866 -1028 878 -1044Q895 -1045 904 -1045Q915 -1045 927.5 -1029Q940 -1013 940 -1002Q940 -983 919 -957Q898 -931 898 -891Q898 -864 916 -841Q920 -835 948 -824Q1033 -917 1033 -1043ZM645 -779L591 -698Q596 -691 605 -684ZM1022 333Q972 305 900 262Q933 179 946 106Q966 -5 967 -33L973 -292Q974 -327 966 -472Q966 -472 950 -560Q948 -579 940 -615Q914 -698 914 -779Q914 -787 932 -808Q919 -812 898 -828Q875 -860 875 -888Q875 -934 896 -965.5Q917 -997 917 -1001Q917 -1019 896 -1019Q887 -1019 871 -1003H638Q621 -952 592 -910Q601 -898 619 -873Q630 -850 652 -805Q707 -803 750 -798V-713L741 -704Q724 -701 693 -692Q691 -691 683 -679Q665 -654 647 -628Q633 -606 623 -569Q615 -548 605 -507Q593 -345 570 -20Q569 -5 559 3Q469 -113 289 -306Q264 -327 225 -327Q176 -327 167 -233L302 254Q246 293 162 333ZM747 -929Q714 -918 703 -918Q702 -918 657 -921L658 -935L655 -934Q655 -941 693 -979Q709 -967 747 -929ZM699 -945L694 -949L689 -945Z"/>
</svg>