<svg xmlns="http://www.w3.org/2000/svg" viewBox="0 -2048 2048 2048">
	<path fill="currentColor" d="M1140 -1212Q1140 -1174 1088 -1149Q1044 -1129 1002 -1129Q996 -1129 974.5 -1131.5Q953 -1134 948 -1134Q912 -1134 907 -1111Q1037 -1079 1037 -934Q1037 -875 980 -791Q923 -707 923 -679Q923 -674 938 -607Q954 -531 959 -498Q977 -373 977 -230Q977 108 918 233Q950 255 1080 332L160 327Q160 313 167 309Q295 257 311 222L166 -386L225 -381V-860L205 -880Q181 -864 167 -801Q158 -748 148 -696Q148 -696 106 -696Q100 -732 100 -798Q100 -863 116 -909Q145 -982 174 -1056Q181 -1076 171 -1127Q171 -1134 184 -1134Q208 -1134 227 -1095Q241 -1064 241 -1045Q241 -1008 208 -931Q207 -928 212 -924Q268 -898 268 -839Q268 -826 265 -800.5Q262 -775 262 -764V-380Q282 -373 314 -351L561 -45L564 -50Q573 -205 581 -361Q599 -537 660 -624Q668 -635 729 -667V-714Q727 -717 704 -717Q676 -717 655 -664Q642 -628 629 -593Q614 -601 577 -638Q636 -727 636 -739Q636 -746 609 -789Q582 -832 582 -839Q582 -851 620 -937Q661 -1030 687 -1068Q702 -1089 766 -1115Q768 -1123 755 -1123H623Q607 -1123 567.5 -1152Q528 -1181 528 -1194Q528 -1203 538.5 -1214.5Q549 -1226 558 -1226Q565 -1226 593 -1206Q625 -1182 638 -1177Q641 -1180 645.5 -1181.5Q650 -1183 653 -1186Q645 -1199 631 -1223V-1289Q660 -1318 682 -1318Q682 -1318 730 -1302Q740 -1349 761 -1445Q701 -1472 701 -1502Q701 -1523 736 -1544Q766 -1562 780 -1562Q792 -1562 849 -1519Q858 -1539 876 -1549Q899 -1562 926 -1562Q951 -1562 969.5 -1544Q988 -1526 988 -1502Q988 -1483 963 -1464Q948 -1454 934 -1445Q944 -1398 970 -1302Q1002 -1324 1021 -1324Q1037 -1324 1058 -1300Q1061 -1287 1042 -1272Q1058 -1259 1058 -1245Q1058 -1239 1053.5 -1225.5Q1049 -1212 1049 -1203Q1049 -1196 1052 -1188Q1061 -1192 1121 -1237Q1127 -1231 1140 -1231ZM961 -1498V-1518Q943 -1535 923 -1535Q904 -1535 881.5 -1510.5Q859 -1486 859 -1466V-1194Q930 -1233 955 -1227V-1256L907 -1461Q926 -1471 961 -1498ZM1031 -1252Q1009 -1263 999 -1263Q1003 -1257 1024 -1215ZM990 -1204Q965 -1204 950 -1195H987Q993 -1200 990 -1218ZM836 -1188V-1484Q837 -1497 809.5 -1516Q782 -1535 774 -1535Q740 -1535 728 -1499Q749 -1487 794 -1461L740 -1238Q796 -1236 836 -1188ZM1042 -1159Q1023 -1159 984.5 -1165.5Q946 -1172 942 -1172Q917 -1172 890 -1161Q858 -1147 858 -1126Q858 -1113 865 -1113Q870 -1113 877 -1114Q919 -1161 948 -1161Q1051 -1161 1042 -1159ZM701 -1289H677Q686 -1285 696 -1281ZM804 -1179Q785 -1197 757 -1205Q715 -1218 712 -1219Q712 -1225 713.5 -1234Q715 -1243 715 -1245Q715 -1243 711 -1237Q707 -1231 707 -1223Q707 -1179 804 -1179ZM689 -1258Q658 -1243 658 -1229Q658 -1203 684 -1194Q677 -1222 689 -1258ZM831 -1125Q800 -1158 722 -1159Q660 -1159 598 -1159Q608 -1154 742 -1150Q761 -1149 790.5 -1137Q820 -1125 831 -1125ZM1010 -947Q1010 -1096 823 -1096Q698 -1096 658 -945H846Q866 -966 883 -966Q911 -966 918 -952Q923 -942 923 -920Q923 -903 922 -900Q910 -887 892 -862Q885 -848 885 -820Q885 -760 926 -760Q953 -760 983 -844Q1010 -917 1010 -947ZM638 -684H630L610 -638L618 -635ZM214 -1042Q214 -1050 210 -1058.5Q206 -1067 206 -1069Q189 -1020 146 -924Q122 -869 122 -831Q122 -826 125.5 -792Q129 -758 129 -744Q214 -1050 214 -1042ZM977 305Q965 297 885 249Q950 73 950 -221Q950 -449 927 -536Q896 -654 896 -685Q896 -694 912 -742Q899 -747 881 -759Q858 -796 858 -815Q858 -839 870 -876Q872 -883 887 -897Q902 -911 902 -917Q902 -925 899 -931Q896 -937 896 -939H876Q871 -933 860 -922H648Q643 -895 609 -839Q651 -798 659 -744H751V-651Q731 -642 711 -633Q688 -621 671 -597Q622 -528 608 -335Q597 -167 586 0Q580 9 570 9Q502 -80 365 -245Q320 -295 273 -295Q256 -295 235 -269Q214 -243 219 -226L344 238Q332 251 236 305ZM310 -314Q309 -321 276.5 -340Q244 -359 237 -359H193Q204 -312 216 -295Q243 -322 268 -322Q284 -322 310 -314ZM739 -867L733 -842H665Q664 -843 661 -845.5Q658 -848 658 -858Q658 -866 699 -907ZM164 -906Q153 -862 153 -853Q147 -859 133 -859Q144 -903 144 -911Q147 -911 154 -908.5Q161 -906 164 -906Z"/>
</svg>