<svg xmlns="http://www.w3.org/2000/svg" viewBox="0 -2048 2048 2048">
	<path fill="currentColor" d="M1118 -1165Q1077 -1080 962 -1080Q956 -1080 927.5 -1085.5Q899 -1091 893 -1091Q890 -1091 871 -1072Q897 -1054 925 -1000Q953 -946 953 -916Q953 -874 901 -788Q849 -702 849 -672Q849 -639 874 -627Q905 -613 918 -563Q932 -510 938 -300Q939 -278 943 -205Q948 -136 948 -130L926 220Q926 235 927 252Q978 289 1057 367H106Q106 362 100 351L341 241Q240 -25 189 -206Q182 -231 193 -269L138 -397Q177 -402 215 -398L220 -836Q220 -847 212 -855Q193 -809 153 -719Q148 -718 122 -731V-748Q121 -787 139 -875Q152 -906 174 -968Q175 -987 178 -1023Q180 -1034 194 -1063H217Q253 -1063 253 -998Q253 -976 225 -892Q260 -886 269 -765L264 -434Q264 -417 265 -400Q289 -387 327 -356Q360 -313 545 -56Q548 -80 555 -259Q560 -395 583 -476Q592 -510 640 -585Q662 -620 685 -656V-687Q659 -697 639 -697Q632 -697 600 -667Q561 -630 546 -620H528Q516 -630 516 -652Q533 -650 565.5 -685Q598 -720 598 -740Q598 -765 584 -779Q567 -793 550 -807Q543 -835 543 -825Q543 -831 563 -865Q594 -922 624 -978Q668 -1049 724 -1072Q707 -1091 696 -1091Q689 -1091 667.5 -1085.5Q646 -1080 639 -1080Q604 -1080 561 -1102Q507 -1130 505 -1171Q511 -1178 511 -1183H529Q535 -1183 559 -1161.5Q583 -1140 590 -1140H631V-1492Q631 -1508 647 -1529.5Q663 -1551 683 -1551Q689 -1551 704.5 -1542.5Q720 -1534 726 -1534Q730 -1534 742 -1542.5Q754 -1551 762 -1551Q769 -1551 784 -1540Q799 -1529 806 -1529Q811 -1529 824 -1534.5Q837 -1540 844 -1540Q852 -1540 865 -1534.5Q878 -1529 885 -1529Q890 -1529 902 -1540Q914 -1551 921 -1551Q927 -1551 970 -1522V-1150Q990 -1140 997 -1140Q1027 -1140 1093 -1189ZM947 -1152V-1500Q914 -1517 911 -1517Q893 -1499 894 -1481V-1157Q893 -1157 908.5 -1154.5Q924 -1152 947 -1152ZM869 -1158V-1512H829Q825 -1506 817 -1494V-1135Q831 -1144 869 -1158ZM787 -1135V-1517Q772 -1517 759 -1514Q746 -1511 746 -1511V-1152Q771 -1152 787 -1135ZM717 -1146V-1505Q682 -1523 683 -1523Q673 -1523 658 -1505V-1146ZM1014 -1110Q881 -1129 899 -1129Q855 -1129 817 -1096V-1081L824 -1075H848Q877 -1118 896 -1118Q903 -1118 933 -1110Q963 -1102 970 -1102Q977 -1102 993 -1106Q1009 -1110 1014 -1110ZM783 -1080V-1105Q773 -1124 726 -1124Q696 -1124 609 -1110Q624 -1110 656 -1111.5Q688 -1113 693 -1113Q726 -1113 753 -1074Q768 -1082 783 -1080ZM926 -916Q926 -971 890 -1013Q851 -1058 795 -1058Q788 -1058 771 -1054Q754 -1050 748 -1050Q737 -1049 691 -1020Q637 -985 637 -961V-933L645 -940Q661 -940 712 -936Q763 -932 767 -932Q773 -932 781 -940Q789 -948 795 -948Q844 -948 844 -907Q844 -900 827.5 -862Q811 -824 811 -817Q811 -805 827 -784Q843 -763 859 -763Q860 -765 901 -839Q926 -883 926 -916ZM231 -998Q231 -1023 205 -1036Q197 -962 174 -889Q193 -896 213 -940Q231 -979 231 -998ZM172 -849H164L158 -831L166 -828ZM1003 341Q963 310 898 264Q921 -13 921 -133Q921 -397 897 -546Q894 -564 829 -629Q827 -696 831 -738Q818 -751 805 -765Q784 -788 784 -814Q784 -821 800.5 -856.5Q817 -892 817 -899Q817 -921 797 -921Q782 -910 748 -910Q741 -910 706.5 -913Q672 -916 666 -916Q622 -916 609 -890Q593 -854 576 -819Q609 -809 617 -780Q622 -752 626 -725Q657 -722 713 -709V-635Q634 -578 606 -470Q587 -399 584 -250Q579 -81 568 -11Q562 -1 552 -1Q512 -56 451 -143Q340 -308 275 -308Q209 -308 209 -229Q209 -179 290 41Q332 149 374 258Q281 296 182 341ZM312 -328Q307 -339 272.5 -356Q238 -373 227 -373H182Q191 -349 205 -308Q241 -335 275 -335Q290 -335 312 -328ZM685 -851H650Q643 -851 620 -862Q626 -875 645 -888H673Q676 -875 685 -851Z"/>
</svg>