<svg xmlns="http://www.w3.org/2000/svg" viewBox="0 -2048 2048 2048">
	<path fill="currentColor" d="M1301 -1512Q1301 -1507 1119 -929Q1159 -923 1182 -911Q1201 -902 1221.5 -873.5Q1242 -845 1242 -825V329H1219V-822Q1219 -857 1185.5 -882Q1152 -907 1115 -906Q1085 -809 1027 -734Q1000 -699 1000 -688Q1000 -666 1002 -653Q1081 -647 1092 -544Q1093 -534 1108 -269Q1115 -145 1115 -158Q1115 -153 1114 -137L1090 256Q1090 257 1089 260Q1089 263 1090 274Q1144 311 1251 386H236V368L436 283L305 -230Q310 -245 320 -275L283 -405Q292 -417 305 -417Q313 -417 327 -414Q341 -411 348 -411V-843H105L100 -882Q164 -905 292 -951Q314 -1005 323 -1047Q326 -1068 330 -1088Q336 -1112 354 -1120Q358 -1090 366 -1051Q370 -1071 381 -1109L402 -1121Q449 -887 449 -885Q449 -855 402 -843V-405Q418 -400 445 -383Q456 -358 478 -313Q480 -310 699 12Q701 -151 725 -474Q731 -491 741 -524Q760 -592 801 -622Q812 -630 858 -647Q855 -669 849 -688H775Q774 -672 767 -642Q763 -631 732.5 -604.5Q702 -578 691 -578Q695 -578 644 -595Q673 -612 725 -656Q752 -688 752 -701Q752 -725 720 -761.5Q688 -798 688 -806Q688 -802 714.5 -845.5Q741 -889 741 -927Q741 -938 736.5 -958Q732 -978 732 -989Q732 -996 734 -1004Q736 -1012 800 -1146Q844 -1244 935 -1439Q953 -1481 995 -1556Q1014 -1582 1072 -1582Q1089 -1582 1110.5 -1564Q1132 -1546 1139 -1529Q1175 -1570 1228 -1570Q1248 -1570 1274.5 -1551Q1301 -1532 1301 -1512ZM1274 -1503Q1274 -1544 1206 -1544Q1165 -1544 1133 -1483Q1121 -1460 1076 -1339Q1037 -1229 956 -1011H1117Q1274 -1482 1274 -1503ZM1118 -1520Q1118 -1535 1097 -1547Q1076 -1559 1060 -1559Q1037 -1559 1013 -1543Q1002 -1536 764 -1011H930Q1118 -1503 1118 -1520ZM1110 -987H760Q764 -918 764 -917H931Q931 -907 932 -887Q945 -910 963 -910Q974 -910 990.5 -897.5Q1007 -885 1007 -874Q1007 -870 985.5 -841.5Q964 -813 964 -791Q964 -745 989 -745Q1058 -745 1110 -987ZM351 -1014Q351 -1019 345 -1042Q337 -1008 321 -963L339 -970Q351 -1010 351 -1014ZM426 -886Q426 -887 392 -1056Q384 -1023 361 -961Q353 -945 260 -913Q146 -874 139 -871H370V-411L380 -408V-871Q392 -870 398 -870Q426 -870 426 -886ZM1175 360Q1139 336 1067 288Q1066 276 1066 267Q1066 196 1079 53.5Q1092 -89 1092 -160Q1092 -146 1085 -272Q1081 -363 1068 -543Q1065 -574 1051 -596Q1039 -615 1017 -624Q981 -638 976 -641Q974 -665 974 -686Q974 -706 999 -719L991 -718Q941 -712 941 -793Q941 -823 982 -874Q975 -884 969 -884Q958 -884 949 -868.5Q940 -853 930 -853Q902 -853 904 -889H758Q744 -845 714 -806Q723 -795 741 -775Q755 -759 770 -714H865Q866 -712 883 -632Q859 -625 815 -605Q759 -567 748 -473Q748 -470 728 -67Q725 -29 722 48Q717 59 705 58Q578 -120 484 -262Q445 -321 424 -321Q352 -321 337 -253Q334 -239 329 -230L460 278Q460 282 460 298L313 360ZM442 -341Q430 -371 386 -382Q350 -387 313 -392L336 -306Q375 -344 426 -344Q434 -344 442 -341ZM864 -819Q832 -820 769 -829Q790 -864 815 -864Q826 -864 864 -819Z"/>
</svg>