<svg xmlns="http://www.w3.org/2000/svg" viewBox="0 -2048 2048 2048">
	<path fill="#000000" d="M1132 -701Q1107 -694 1089 -694Q1073 -710 1073 -740Q1073 -741 1054 -798Q1033 -859 1030 -871Q1013 -854 1013 -840V-379L1040 -371L1011 -277Q1024 -257 1030 -236L909 248L1093 330L1085 350H171L167 336L298 241Q276 7 276 -152Q276 -487 305 -563Q329 -625 382 -641L384 -651Q373 -677 325 -760Q286 -825 276 -875Q248 -873 215 -847Q182 -821 182 -795V307H157V-799Q157 -837 194 -867Q231 -897 270 -897L100 -1448Q122 -1505 169 -1505Q215 -1505 251 -1465Q257 -1478 282 -1499Q307 -1520 319 -1520Q380 -1520 401 -1475L632 -971Q624 -931 624 -905Q624 -852 675 -785Q671 -771 644 -737Q620 -709 620 -686Q620 -657 648 -630.5Q676 -604 706 -598V-584L667 -561Q589 -620 589 -670H524L518 -629Q636 -603 645 -406L663 -12L825 -256Q838 -276 915 -373L966 -391Q966 -733 972 -858Q974 -896 1007 -910Q929 -1006 929 -1075Q929 -1098 955 -1133Q981 -1168 1003 -1168Q1013 -1168 1019 -1166V-1157H1026Q1021 -1123 1021 -1116Q1021 -1050 1114 -903Q1132 -729 1132 -723ZM1105 -733Q1105 -870 1073 -920Q997 -1039 997 -1122V-1135L991 -1137Q956 -1108 956 -1075Q956 -997 1048 -897L1044 -910L1066 -918L1095 -844L1073 -836L1050 -893Q1063 -841 1099 -750Q1095 -728 1103 -719Q1105 -727 1105 -733ZM602 -977L378 -1462Q364 -1493 321 -1493Q312 -1493 295 -1479Q278 -1465 278 -1456Q278 -1418 450 -977ZM423 -977Q373 -1113 272 -1385Q235 -1481 169 -1481Q126 -1461 126 -1446Q126 -1397 276 -977ZM1009 -355Q991 -367 970 -367Q929 -367 925 -346Q981 -338 995 -307ZM606 -950L282 -953Q335 -744 389 -725Q415 -741 415 -764Q415 -791 372 -844Q384 -881 425 -881Q443 -869 448 -860V-887H600Q596 -904 606 -950ZM1021 325L878 264L1003 -236Q972 -322 923 -322Q895 -322 788 -164Q724 -62 659 39L645 33Q632 -38 624 -256Q620 -352 618 -386Q611 -483 600 -512Q581 -560 560.5 -578.5Q540 -597 491 -613L501 -694H593Q593 -720 645 -778Q632 -806 604 -862H473V-836L440 -826L419 -854L401 -848Q440 -780 440 -762Q440 -725 393 -699Q401 -679 409 -656Q409 -637 365 -602.5Q321 -568 317 -492Q313 -404 305 -229Q298 -78 309 86Q315 171 325 254L219 325ZM595 -813L589 -801L524 -793Q524 -800 516 -807Q535 -840 559 -840Q576 -840 595 -813Z"/>
</svg>