<svg xmlns="http://www.w3.org/2000/svg" viewBox="23.8 -1632.2 1277.3 2056.3">
	<path fill="currentColor" d="M1225 348H178Q175 342 171 335Q231 302 351 231Q303 60 216 -259Q219 -285 218 -330Q200 -378 166 -469H247V-1023Q239 -1029 222 -1043Q191 -1033 172 -951Q160 -891 148 -831H118Q107 -842 108 -867Q111 -904 111 -904Q100 -992 100 -986Q100 -1030 126 -1089Q156 -1158 186 -1227Q192 -1244 190 -1279Q187 -1321 189 -1337Q218 -1331 240 -1295Q258 -1264 258 -1237Q258 -1245 225 -1096Q256 -1086 278 -1069Q282 -1025 291 -937L286 -503Q286 -482 287 -474Q301 -470 323 -456Q425 -329 637 -77Q643 -118 648 -243Q649 -269 658 -371Q666 -460 666 -505Q664 -751 821 -802V-853Q814 -857 794 -857Q774 -857 771 -856Q729 -777 710 -716Q680 -734 652 -762Q659 -775 696 -829Q723 -869 723 -877Q723 -883 690 -939.5Q657 -996 657 -1002Q657 -1008 671.5 -1029.5Q686 -1051 688 -1058Q703 -1101 734 -1187Q713 -1196 706 -1209Q711 -1229 743 -1265Q742 -1276 742 -1288Q742 -1319 751 -1372Q764 -1445 766 -1460Q722 -1496 698 -1496Q675 -1496 659 -1480Q659 -1486 646 -1499Q681 -1556 780 -1556Q851 -1556 854 -1510L815 -1319L820 -1309Q838 -1309 884.5 -1315.5Q931 -1322 936 -1322Q1170 -1322 1170 -1139Q1170 -1062 1117 -962Q1052 -839 1045 -814L1099 -544V-24Q1099 95 1039 236Q1143 302 1225 348ZM1098 -1249V-1258H1084V-1249ZM1129 -1215Q1124 -1215 1125 -1229Q1112 -1222 1102 -1222Q1096 -1222 1075 -1228Q1050 -1235 1023 -1238Q1101 -1207 1113 -1207Q1121 -1207 1124 -1211Q1127 -1215 1129 -1215ZM968 -1281Q935 -1292 881 -1292Q891 -1290 918 -1277Q942 -1267 949 -1267Q954 -1267 968 -1281ZM826 -1502Q826 -1518 805 -1528Q809 -1525 810 -1521Q810 -1514 795 -1501Q790 -1501 779 -1505Q768 -1509 766 -1508Q794 -1459 794 -1453Q794 -1446 780.5 -1390.5Q767 -1335 767 -1329V-1284Q770 -1284 777 -1286.5Q784 -1289 787 -1289Q793 -1326 811 -1417Q826 -1495 826 -1502ZM1050 -1275L1025 -1283Q922 -1229 895 -1229Q895 -1229 849 -1237Q817 -1243 804 -1234Q839 -1212 875 -1212Q914 -1212 957 -1233Q1028 -1267 1050 -1275ZM896 -1254V-1263H865V-1254ZM1148 -1141Q1148 -1148 1145 -1163.5Q1142 -1179 1142 -1184Q1096 -1184 1086 -1186Q1068 -1189 1031 -1204Q998 -1218 993 -1218Q987 -1218 937 -1201.5Q887 -1185 881 -1185Q851 -1185 785 -1218Q770 -1195 740 -1121Q776 -1125 960 -1125Q965 -1125 978.5 -1130.5Q992 -1136 998 -1136Q1019 -1136 1034.5 -1116Q1050 -1096 1050 -1079Q1050 -1067 1025.5 -1038.5Q1001 -1010 1001 -975Q1001 -952 1025 -920Q1037 -914 1059 -901Q1087 -927 1117.5 -1009Q1148 -1091 1148 -1141ZM727 -830Q711 -806 684 -767Q689 -762 699 -759Q704 -770 713 -794.5Q722 -819 727 -830ZM231 -1234Q231 -1265 210 -1294V-1254Q212 -1243 213 -1227Q180 -1142 149 -1083Q162 -1081 177 -1068Q173 -1064 173 -1049Q191 -1094 210 -1140Q231 -1195 231 -1234ZM165 -1014Q144 -1022 144 -1038Q144 -1045 145.5 -1055Q147 -1065 147 -1070Q122 -1008 122 -986Q122 -980 128.5 -943.5Q135 -907 135 -896Q139 -922 165 -1014ZM1132 325Q1086 298 1006 242Q1024 212 1049 116Q1072 28 1072 9V-572Q1072 -579 1044.5 -694.5Q1017 -810 1017 -817Q1017 -839 1039 -883Q1022 -890 1002 -905Q974 -961 974 -969Q974 -1009 991 -1039Q1005 -1057 1023 -1090Q1004 -1109 996 -1109Q989 -1109 986 -1103Q983 -1097 976 -1097H729Q724 -1082 705 -1042Q690 -1009 690 -1002Q690 -995 714 -953Q741 -906 747 -887Q781 -883 843 -875V-785Q815 -770 786 -755Q754 -734 724 -687Q705 -657 691 -478Q681 -336 671 -194Q667 -143 661 -42Q655 -38 644 -28Q593 -91 494 -207Q448 -262 402 -317Q350 -372 305 -372Q254 -372 237 -279L379 240Q367 260 321 284Q253 318 242 325ZM340 -395Q324 -419 300 -442H204Q216 -412 234 -361Q256 -399 305 -399Q312 -399 324 -397Q336 -395 340 -395ZM831 -1010Q774 -1011 745 -1011Q743 -1023 790 -1070Q796 -1067 831 -1031Z"/>
</svg>