<svg xmlns="http://www.w3.org/2000/svg" viewBox="26.3 -1616.7 1604.4 1989.4">
	<path fill="currentColor" d="M1557 299H459Q456 293 447 281L642 180Q585 -25 495 -360Q492 -370 500 -396.5Q508 -423 508 -429Q510 -478 489 -561Q499 -573 517 -563Q520 -566 520 -571L349 -1027L277 -454H258Q258 -459 258 -470Q257 -481 257 -486Q235 -495 215 -495Q201 -495 195 -485Q188 -472 181 -469Q173 -476 168 -476Q171 -479 173 -486.5Q175 -494 178 -497Q162 -506 141 -506Q139 -506 100 -480L332 -1084Q335 -1084 344 -1086.5Q353 -1089 356 -1089L547 -568Q567 -565 604 -545Q646 -503 947 -153L950 -157Q959 -347 985 -698Q995 -731 1010 -797Q957 -818 957 -913Q957 -951 978 -1018Q999 -1085 1019.5 -1115Q1040 -1145 1097 -1243Q1168 -1365 1168 -1385Q1168 -1397 1128 -1437Q1097 -1390 991 -1390Q931 -1390 863 -1407Q863 -1411 860 -1423.5Q857 -1436 857 -1443Q857 -1543 1128 -1543Q1141 -1543 1228 -1535Q1255 -1527 1308 -1514Q1385 -1497 1463 -1367Q1536 -1245 1536 -1162V-669H1425V-92Q1425 -66 1400 50Q1376 161 1368 181ZM1520 -696V-998Q1522 -1037 1492 -1235Q1489 -1256 1470.5 -1305.5Q1452 -1355 1388 -1429Q1363 -1458 1307 -1484.5Q1251 -1511 1217 -1510H1120Q1178 -1490 1213 -1432Q1241 -1385 1241 -1348Q1241 -1289 1140 -1115Q1089 -1027 1089 -987Q1089 -955 1106 -921Q1140 -942 1194 -942Q1342 -942 1405 -782Q1419 -744 1416 -696ZM1215 -1345Q1215 -1427 1137 -1476Q1073 -1516 999 -1516Q934 -1516 890 -1462Q890 -1461 884 -1454.5Q878 -1448 878 -1440Q878 -1428 884 -1427Q950 -1416 989 -1416Q1047 -1416 1066 -1423Q1074 -1426 1093.5 -1445Q1113 -1464 1118 -1464Q1148 -1464 1168.5 -1436.5Q1189 -1409 1189 -1379Q1189 -1345 1136 -1259Q1098 -1200 1059 -1141Q1026 -1088 1011 -1046Q983 -968 983 -913Q983 -843 1024 -822Q1029 -835 1057 -870Q1083 -901 1083 -908Q1083 -913 1072.5 -944.5Q1062 -976 1062 -982Q1062 -1033 1138.5 -1161.5Q1215 -1290 1215 -1345ZM1462 272Q1415 244 1341 197Q1399 -51 1399 -65V-683Q1399 -733 1376 -793.5Q1353 -854 1304 -893Q1269 -921 1197 -921Q1008 -921 997 -535Q994 -422 971 -182Q972 -160 973 -138Q973 -111 955 -105Q865 -217 677 -432Q637 -474 591 -474Q551 -474 535 -434Q530 -423 520 -371L668 186Q629 219 520 272ZM620 -502Q611 -516 582.5 -529Q554 -542 533 -542H515Q522 -519 533 -474Q554 -501 583 -502Q601 -502 620 -502ZM313 -963L136 -533Q175 -523 261 -511ZM1026 -1482L1012 -1469Q1002 -1479 997 -1479Q989 -1479 983 -1474Q977 -1469 975 -1469L962 -1482Q986 -1506 999 -1506Q1014 -1506 1026 -1482Z"/>
</svg>