<svg xmlns="http://www.w3.org/2000/svg" viewBox="0 -2048 2048 2048">
	<path fill="currentColor" d="M1093 380H167Q167 378 164 368Q161 358 161 355Q235 323 242 320Q292 295 321 267L161 -341H226V-829L213 -844Q175 -818 165 -757Q150 -665 149 -663Q142 -656 133 -656Q137 -656 113 -664Q100 -731 100 -794Q100 -834 134 -914Q179 -1022 181 -1030Q180 -1056 184 -1109Q243 -1086 243 -1013Q243 -993 216 -913V-898Q233 -887 250 -876Q271 -860 271 -837V-346Q286 -339 309 -322Q393 -216 571 1Q574 -100 587 -306Q590 -342 608 -429Q624 -512 624 -513Q624 -510 604 -542Q580 -580 580 -615Q580 -670 623 -760Q640 -795 699 -904Q746 -992 746 -999Q746 -1043 713 -1043Q708 -1043 693 -1030.5Q678 -1018 672 -1017Q620 -1010 594 -1010Q497 -1010 497 -1051Q497 -1102 592 -1135Q582 -1198 575 -1257H592Q608 -1303 613 -1315Q631 -1355 657 -1382Q575 -1474 575 -1507Q575 -1551 627 -1551Q663 -1551 663 -1507Q663 -1472 626 -1468Q623 -1474 619 -1481Q619 -1483 641 -1505V-1519Q639 -1519 637 -1521Q635 -1523 627 -1523Q602 -1523 602 -1498Q602 -1480 677 -1402Q735 -1435 761 -1467Q762 -1481 769 -1510Q770 -1512 809 -1551Q844 -1539 867 -1517Q867 -1504 856 -1476.5Q845 -1449 845 -1443Q845 -1421 866 -1380H870Q891 -1429 935 -1528Q939 -1528 956.5 -1525Q974 -1522 983 -1522L839 -1118Q871 -1101 927 -1068Q1066 -970 1066 -643Q1066 -611 1058 -479Q1055 -421 1065 -415H977V-18Q980 68 933 279Q1011 330 1093 380ZM856 -1333Q856 -1340 837 -1388Q818 -1436 818 -1443Q818 -1450 829 -1468Q840 -1486 840 -1493Q840 -1505 814 -1518Q811 -1514 783 -1455Q742 -1419 702 -1382Q625 -1313 625 -1288V-1259H822Q856 -1326 856 -1333ZM948 -1495L841 -1230Q609 -1236 602 -1229Q609 -1197 620 -1137Q667 -1132 713 -1127Q773 -1122 817 -1137ZM1038 -619Q1038 -883 981 -970Q963 -997 892 -1051Q816 -1109 792 -1108H729Q818 -1059 818 -977Q818 -930 793 -878Q763 -825 733 -771Q696 -702 696 -676Q696 -659 709 -624Q759 -645 801 -645Q867 -645 913 -591Q961 -534 967 -442H1037Q1038 -522 1038 -619ZM795 -974Q795 -997 787.5 -1020Q780 -1043 732.5 -1076Q685 -1109 660 -1109H636Q636 -1100 652 -1084Q642 -1074 642 -1070Q633 -1070 616 -1087L602 -1076Q585 -1087 585 -1094Q600 -1109 593 -1109Q557 -1095 525 -1044Q515 -1044 547 -1040.5Q579 -1037 644 -1037Q658 -1041 681.5 -1055.5Q705 -1070 710 -1070Q740 -1070 758 -1042Q773 -1020 773 -996Q773 -974 714 -874Q647 -760 639 -738Q608 -657 608 -618Q608 -592 621 -564Q621 -564 639 -546Q641 -551 665 -583Q683 -607 683 -621Q683 -638 675 -665Q667 -688 670 -697Q684 -744 745 -843Q795 -924 795 -974ZM221 -1010Q221 -1020 207 -1048Q207 -1028 203 -1019Q177 -962 152.5 -906Q128 -850 128 -786Q128 -736 136 -701Q136 -712 155 -826Q152 -829 144 -831Q136 -833 133 -836Q137 -852 141 -867.5Q145 -883 162 -883L172 -874Q162 -853 163 -833Q164 -836 196 -918Q221 -981 221 -1010ZM989 352Q960 331 900 295Q956 78 956 -168L950 -372Q936 -479 917 -527Q878 -623 798 -623Q748 -623 692 -570Q634 -514 631 -455Q616 -290 589 41Q583 50 579 50Q533 -9 443 -115Q407 -162 369 -208Q331 -254 282 -254Q224 -254 227 -187L354 289Q315 312 238 352ZM315 -277L280 -313H194Q203 -299 218 -254Q241 -281 274 -281Q281 -281 295.5 -279Q310 -277 315 -277Z"/>
</svg>