<svg xmlns="http://www.w3.org/2000/svg" viewBox="0 -2048 2048 2048">
	<path fill="currentColor" d="M1411 -1509Q1412 -1498 1412 -1488Q1412 -1391 1327 -1391Q1321 -1391 1271 -1402Q1221 -1413 1215 -1413Q1209 -1413 1157.5 -1394Q1106 -1375 1099 -1375Q1092 -1375 1052.5 -1380.5Q1013 -1386 1006 -1386Q980 -1386 958 -1366.5Q936 -1347 936 -1325V-1294H1240Q1274 -1251 1274 -1222Q1274 -1214 1271 -1210.5Q1268 -1207 1268 -1205Q1178 -1187 1179 -1187H935V-1097H1240Q1268 -1068 1268 -1040Q1268 -1018 1245 -995H934L930 -991V-933Q966 -924 1026 -890Q1043 -872 1068 -838Q1123 -728 1123 -687V-16Q1123 32 1070 246Q1138 289 1263 366H106Q106 364 103 354Q100 344 100 341Q170 309 309 235L148 -330Q164 -399 176 -423Q200 -469 244 -469Q324 -469 456 -313Q539 -209 622 -105Q623 -145 632 -231Q643 -291 649 -500Q653 -680 684 -768Q730 -897 851 -934V-994H509Q491 -1016 491 -1019V-1079Q526 -1096 532 -1096H851V-1188H532Q510 -1188 494 -1210Q480 -1229 480 -1246Q480 -1255 514 -1289H846Q855 -1316 855 -1335Q855 -1391 799 -1391Q792 -1391 757.5 -1385.5Q723 -1380 716 -1380Q709 -1380 676 -1393.5Q643 -1407 636 -1407Q629 -1407 569 -1396.5Q509 -1386 502 -1386Q474 -1386 439 -1407Q400 -1430 400 -1455Q400 -1460 403 -1480Q406 -1500 406 -1509H423Q430 -1509 449 -1495Q475 -1475 478 -1473.5Q481 -1472 515 -1472Q549 -1472 578 -1485Q607 -1498 612 -1498Q619 -1498 672 -1485Q725 -1472 732 -1472Q738 -1472 776.5 -1477Q815 -1482 821 -1482Q851 -1482 906 -1450Q941 -1482 965 -1482Q972 -1482 1029.5 -1471.5Q1087 -1461 1094 -1461Q1096 -1461 1148.5 -1477Q1201 -1493 1225 -1493Q1231 -1493 1276 -1482.5Q1321 -1472 1327 -1472Q1352 -1472 1411 -1509ZM1386 -1446V-1466Q1327 -1450 1327 -1450Q1321 -1450 1271 -1461Q1221 -1472 1215 -1472Q1208 -1472 1149 -1455.5Q1090 -1439 1083 -1439Q1076 -1439 1032 -1447Q988 -1455 981 -1455Q942 -1455 901 -1402Q886 -1411 880 -1436Q851 -1455 818 -1455Q809 -1455 774.5 -1450Q740 -1445 735 -1445Q728 -1445 672 -1458.5Q616 -1472 609 -1472Q600 -1472 582 -1458.5Q564 -1445 515 -1445Q476 -1445 473 -1446Q454 -1459 422 -1476V-1459Q422 -1446 460 -1425Q495 -1407 507 -1407Q514 -1407 575.5 -1420.5Q637 -1434 644 -1434Q651 -1434 677 -1418Q703 -1402 708 -1402Q715 -1402 756.5 -1410Q798 -1418 805 -1418Q803 -1418 883 -1372Q883 -1358 880.5 -1329Q878 -1300 878 -1290H908Q917 -1413 995 -1413Q1002 -1413 1045.5 -1407.5Q1089 -1402 1094 -1402Q1102 -1402 1159.5 -1420.5Q1217 -1439 1223 -1439Q1230 -1439 1273.5 -1428.5Q1317 -1418 1324 -1418Q1367 -1418 1386 -1446ZM1246 -1226Q1232 -1268 1217 -1268L519 -1262Q507 -1250 507 -1241Q507 -1221 525 -1214H1217Q1225 -1214 1234.5 -1220Q1244 -1226 1246 -1226ZM908 -1097V-1187H872V-1097ZM1241 -1043Q1241 -1057 1229 -1069H543Q512 -1069 512 -1043Q512 -1028 525 -1016H1229Q1241 -1028 1241 -1043ZM909 -994H878L872 -936H903Q903 -970 909 -994ZM1166 338Q1123 310 1038 256Q1102 26 1102 -37V-655Q1102 -688 1071 -767Q1041 -842 1024 -860Q993 -892 956 -900.5Q919 -909 890 -909Q764 -909 725 -789Q706 -745 685 -670Q672 -469 644 -70Q643 -56 629 -56Q534 -175 340 -407Q304 -448 247 -448Q213 -448 195 -404Q185 -368 175 -333L336 243Q300 284 175 338Z"/>
</svg>