<svg xmlns="http://www.w3.org/2000/svg" viewBox="0 -2048 2048 2048">
	<path fill="currentColor" d="M1195 -571Q1195 -479 1152 -314Q1158 -336 1158 -216Q1158 -130 1121 -130Q1113 -130 1106 -133.5Q1099 -137 1097 -137Q1097 -142 1099 -154Q1101 -166 1101 -171Q1100 -173 1075 -176Q1063 -197 1063 -221Q1063 -225 1073 -267Q1083 -309 1083 -326Q1083 -435 1081 -420Q1101 -573 1101 -560Q1101 -586 1059 -724H1054Q1030 -624 1030 -601Q1030 -594 1046.5 -509Q1063 -424 1063 -417Q1063 -410 1049 -317.5Q1035 -225 1035 -218L1096 321Q1096 354 1055 354Q1048 354 1037 348.5Q1026 343 1019 343Q1012 343 1006 348.5Q1000 354 993 354H833Q832 351 832 300Q896 286 922 274Q977 250 991 208L920 -159Q913 -163 878 -163Q850 -163 841 -162Q732 32 675 319Q668 354 628 354Q621 354 604 351Q587 348 580 348H392V294Q529 284 577 228Q606 194 635 75Q646 32 664 -46Q662 -61 663 -85Q700 -177 764 -361Q832 -557 832 -576Q832 -619 807 -676Q787 -717 768 -758Q621 -560 551 -560Q516 -560 370 -690Q333 -723 306 -736V353H254V-749Q248 -763 239 -788Q237 -798 246 -826Q235 -833 236 -851Q236 -871 254 -873V-1059H100V-1222Q100 -1234 117.5 -1249Q135 -1264 144 -1264Q159 -1264 208 -1217.5Q257 -1171 278 -1171Q313 -1171 358 -1220.5Q403 -1270 408 -1270Q416 -1270 473 -1230V-1061H304V-855L531 -681Q607 -769 683 -856Q743 -923 823 -923Q834 -923 840 -917L843 -921V-959Q829 -975 812 -976.5Q795 -978 778 -979Q775 -999 764 -1035Q761 -1041 748 -1061Q738 -1075 738 -1083Q738 -1093 787 -1176Q840 -1266 862 -1268Q880 -1268 920 -1274Q919 -1292 900.5 -1296Q882 -1300 865 -1304V-1327Q865 -1334 895 -1404.5Q925 -1475 925 -1482Q925 -1486 914 -1495.5Q903 -1505 903 -1520Q903 -1538 918.5 -1555Q934 -1572 953 -1572Q989 -1572 1008 -1518L964 -1278Q964 -1265 978 -1260Q1020 -1244 1033 -1219Q1057 -1174 1057 -1129Q1057 -1096 1027 -1033Q992 -958 986 -932Q995 -924 1044 -921Q1100 -919 1121.5 -910.5Q1143 -902 1149 -871Q1195 -637 1195 -571ZM980 -1514Q980 -1533 968 -1545H937L931 -1513Q942 -1508 958 -1490L892 -1326Q921 -1317 940 -1297ZM1030 -1138Q1030 -1248 909 -1248Q831 -1248 810 -1161Q830 -1163 873 -1159Q920 -1154 920 -1154Q927 -1154 946 -1162.5Q965 -1171 972 -1171Q1002 -1170 1002 -1149Q1002 -1142 985.5 -1098Q969 -1054 969 -1047Q969 -1025 989 -1017Q1030 -1096 1030 -1138ZM446 -1083V-1219Q424 -1242 416 -1242Q407 -1242 365 -1192.5Q323 -1143 278 -1143Q246 -1143 198 -1190Q150 -1237 141 -1237Q128 -1237 128 -1230V-1083ZM1167 -571Q1167 -657 1147 -745Q1141 -787 1135 -828Q1122 -881 1078 -899Q1071 -902 1004 -898Q958 -896 958 -931Q958 -921 973 -993Q947 -1022 947 -1050Q947 -1032 968 -1137Q950 -1127 931 -1127Q874 -1127 794 -1137Q771 -1068 771 -1080Q771 -1073 783 -1044Q798 -1011 800 -1001Q839 -1001 871 -986V-899L866 -895Q804 -897 790 -893Q730 -878 659 -791Q545 -650 537 -642Q525 -651 423 -721Q355 -768 327 -802L320 -760Q380 -708 502 -606Q526 -587 548 -587Q582 -587 660 -674Q755 -780 779 -796Q834 -700 860 -566Q911 -578 1007 -594Q1018 -665 1045 -802Q1055 -802 1061.5 -799.5Q1068 -797 1069 -797Q1079 -746 1106 -650Q1129 -567 1129 -562L1096 -258H1122Q1123 -286 1146 -394Q1167 -497 1167 -571ZM1035 -422Q1035 -452 1007 -565H984Q978 -565 855 -541Q817 -424 739 -192H1013Q1009 -209 1009 -230Q1009 -265 1022 -333Q1035 -401 1035 -422ZM298 -781V-802Q295 -807 291 -812H271Q261 -792 272 -769Q282 -772 298 -781ZM1073 320Q1053 251 1053 263Q1053 84 1055 109Q1042 13 1018 -163H948V-101Q948 -90 980.5 36Q1013 162 1013 200Q1013 282 854 324Q890 324 963.5 322Q1037 320 1073 320ZM804 -163H728Q704 -123 674 23Q644 169 604 229Q540 324 413 318Q453 326 493 326Q500 326 549.5 318Q599 310 606 310Q613 310 619 318Q625 326 631 326Q644 326 644 320Q656 248 709 90Q760 -65 804 -163ZM859 -1092Q837 -1094 804 -1101Q819 -1127 834 -1127Q845 -1127 859 -1092Z"/>
</svg>