<svg xmlns="http://www.w3.org/2000/svg" viewBox="0 -2048 2048 2048">
	<path fill="currentColor" d="M1160 -668H1050L1041 -663Q1041 -622 1045 -520Q1051 -394 1053 -311L1059 -67Q1061 -5 1046 118Q1037 194 986 260Q929 335 858 335Q871 335 771 315Q648 290 551 158Q503 92 435 -51Q431 -26 431 61Q431 156 433 171Q436 192 450 237Q464 278 464 284Q464 335 421 335Q414 335 397 324Q380 313 373 313Q366 313 360.5 321Q355 329 348 329H100V255Q158 249 216 243Q297 227 297 179Q297 176 272 70Q242 -48 211 -166Q180 -299 180 -408Q180 -480 185 -490Q194 -511 255 -542Q169 -668 169 -724Q169 -767 212 -788Q158 -817 158 -839Q158 -868 233 -887Q269 -887 307.5 -860Q346 -833 346 -802Q346 -795 321.5 -713.5Q297 -632 297 -625Q297 -584 320 -559Q347 -539 398 -499Q464 -445 509 -382Q549 -323 632 -206L646 -504Q647 -534 644 -539.5Q641 -545 595 -602Q560 -645 560 -670Q560 -692 614 -773Q648 -823 683 -873Q659 -890 640 -943Q624 -989 624 -1016Q624 -1077 690 -1164Q799 -1307 800 -1309Q823 -1348 823 -1375Q823 -1418 788 -1418Q781 -1418 718.5 -1396.5Q656 -1375 649 -1375Q595 -1375 523 -1418Q521 -1425 521 -1432Q521 -1477 579 -1511Q630 -1541 675 -1541Q681 -1541 727 -1535.5Q773 -1530 780 -1530Q786 -1530 816.5 -1533Q847 -1536 855 -1536Q963 -1536 1030 -1507Q1073 -1488 1116.5 -1425Q1160 -1362 1160 -1325ZM1133 -690V-1341Q1133 -1361 1107 -1402Q1085 -1438 1068 -1453Q1031 -1487 981 -1496Q912 -1508 905 -1508H796Q909 -1432 909 -1354Q909 -1308 861 -1237Q783 -1124 776 -1111Q753 -1068 753 -1024Q753 -1003 760 -989Q826 -1011 836 -1011Q941 -1011 996 -917Q1040 -840 1040 -732Q1040 -710 1038 -690ZM882 -1356Q882 -1413 817 -1462Q761 -1503 700 -1513Q706 -1510 726 -1490Q723 -1487 719.5 -1481Q716 -1475 713 -1472Q699 -1488 686 -1488Q679 -1488 670.5 -1485Q662 -1482 660 -1482Q651 -1491 651 -1500Q672 -1511 672 -1519Q550 -1478 550 -1452V-1430Q607 -1402 643 -1402Q650 -1402 718 -1423.5Q786 -1445 793 -1445Q811 -1445 830.5 -1424Q850 -1403 850 -1380Q850 -1331 788 -1249Q740 -1188 693 -1127Q646 -1053 646 -1016Q646 -995 660 -955Q677 -907 698 -904Q716 -942 742 -976Q727 -1002 727 -1032Q727 -1088 804.5 -1197Q882 -1306 882 -1356ZM319 -782V-793Q319 -823 290 -843Q265 -860 236 -860Q198 -860 191 -835Q252 -805 291 -792Q297 -776 297 -769Q297 -756 279 -748Q255 -764 236 -764Q218 -764 196 -747Q193 -739 193 -728Q193 -674 284 -546Q288 -545 297 -545Q276 -579 276 -627Q276 -665 289 -696Q310 -746 319 -782ZM1037 -67L1032 -290Q1024 -642 1003 -837Q996 -898 946 -941Q896 -984 842 -984Q791 -984 765 -960Q746 -942 726 -904Q695 -847 693 -843Q664 -800 635 -757Q587 -685 587 -670Q587 -663 630 -600.5Q673 -538 673 -531Q673 -524 665 -455.5Q657 -387 657 -380V-231Q657 -221 664 -198Q671 -175 671 -165Q671 -144 649 -137Q592 -214 507 -334Q471 -390 421 -445Q349 -523 306 -523Q265 -523 240 -510Q201 -490 201 -402Q201 -317 231 -185Q257 -81 283 22Q324 189 324 179Q324 245 230 265Q176 271 121 277V308H337Q348 308 375 281Q402 308 418 308Q426 308 430 305Q434 302 436 302V256Q436 251 422 211.5Q408 172 406 155Q405 141 405 128Q405 109 409 79Q413 49 413 27Q413 -1 408 -38Q401 -88 377 -170Q356 -246 356 -247Q356 -259 360 -255H374Q440 -104 506 46Q601 220 749 283Q807 308 858 308Q961 308 1008 151Q1040 46 1037 -67Z"/>
</svg>