<svg xmlns="http://www.w3.org/2000/svg" viewBox="0 0 543 1000">
  <g transform="scale(1,-1) translate(0,-1000)">
    <path d="M133 246Q133 237 127.5 230.5Q122 224 117 224Q114 224 110 227Q110 227 109.0 228.0Q108 229 107 230Q88 244 80.0 261.0Q72 278 70.5 293.5Q69 309 68 311L32 395Q27 410 27 419Q27 431 33.0 443.5Q39 456 45.5 465.0Q52 474 66.5 486.5Q81 499 88.0 504.0Q95 509 113.0 521.0Q131 533 133 535L174 559Q190 570 215.5 571.5Q241 573 257.0 574.0Q273 575 273 585Q273 602 248 620Q243 624 224.0 631.0Q205 638 195.5 652.0Q186 666 186 696Q186 708 188.5 717.5Q191 727 196.0 739.5Q201 752 204 761V763Q236 822 268 841L255 870V873Q255 880 264 880H287Q266 897 246.5 922.0Q227 947 217.5 964.5Q208 982 208 986Q208 999 218 999Q222 999 227.0 992.5Q232 986 242.0 971.5Q252 957 263 945Q268 969 287.0 984.5Q306 1000 332 1000Q359 1000 379.5 984.5Q400 969 405 944Q415 956 425.5 970.5Q436 985 441.0 992.0Q446 999 450 999Q460 999 460 986Q460 983 451.5 966.5Q443 950 423.5 924.5Q404 899 382 880H400Q410 880 410 871Q410 870 410 870L409 868Q402 850 397 839Q417 829 430.5 809.5Q444 790 449.0 773.5Q454 757 461.0 730.5Q468 704 472 692Q472 691 472 690L473 689Q478 659 480 558Q511 534 527.0 467.5Q543 401 543 370Q543 360 535.0 350.5Q527 341 511.5 332.5Q496 324 483.0 318.5Q470 313 451.0 306.0Q432 299 426 296Q428 241 436.0 181.0Q444 121 444 104Q444 101 444.5 94.0Q445 87 445 83Q446 70 461.0 46.5Q476 23 476 16Q476 0 462 0H50Q47 0 46 1Q5 1 0 59V62Q1 67 1.5 77.0Q2 87 2.5 92.0Q3 97 5.0 104.0Q7 111 11.5 116.0Q16 121 23 126Q44 141 84.0 167.5Q124 194 142 206L138 307V310Q138 319 141.0 344.0Q144 369 145 371Q146 392 169 408L167 433Q146 441 139 457Q136 457 136 474V477Q125 469 109.5 459.0Q94 449 89.0 445.5Q84 442 78.0 435.5Q72 429 70.5 423.0Q69 417 69 407Q69 398 71.5 388.0Q74 378 76.0 372.5Q78 367 85.5 351.0Q93 335 95 330Q107 315 120.0 289.5Q133 264 133 246ZM390 579Q386 579 384.5 577.0Q383 575 382.0 564.0Q381 553 381 528Q381 515 382.5 488.5Q384 462 384 447Q384 408 378.0 391.0Q372 374 351 374H350Q340 374 333.0 381.5Q326 389 322.5 404.0Q319 419 318.0 430.5Q317 442 316.5 460.0Q316 478 316 482V655Q316 677 319.5 691.0Q323 705 327.5 709.0Q332 713 337.5 718.5Q343 724 346 731Q348 735 348 736Q339 741 327.0 741.0Q315 741 298.0 748.5Q281 756 253 780Q221 724 221 696Q221 676 232.5 667.0Q244 658 261.5 651.0Q279 644 287 632Q291 629 297.5 614.0Q304 599 304 585Q304 537 229 537H225Q199 537 189 527V526H190Q210 526 225.0 512.5Q240 499 240 479Q240 468 233 454L245 406Q246 406 246.0 405.0Q246 404 247 403L278 367L261 460V462Q261 472 271 475H274Q284 475 286 465L311 324Q311 323 312 322V321Q312 317 308.5 313.0Q305 309 298 309Q293 309 289 313L259 349L263 331Q266 318 268.5 299.0Q271 280 274.5 266.5Q278 253 287 240Q291 233 310.0 228.5Q329 224 343.5 211.5Q358 199 358 172Q358 165 354.5 147.5Q351 130 351 122Q351 109 356.0 104.0Q361 99 373.5 94.0Q386 89 393 84Q397 81 402 68Q397 51 389 49Q378 47 346.5 46.0Q315 45 304 41H302H298Q277 41 277 100Q277 104 277.5 112.0Q278 120 278 125Q278 133 276 151Q270 152 256.5 152.5Q243 153 232.5 154.0Q222 155 210.5 156.5Q199 158 192.5 162.0Q186 166 186 172Q185 181 185 196Q167 180 129.0 156.5Q91 133 64.5 115.5Q38 98 37 90Q36 87 35.5 82.0Q35 77 34.5 70.0Q34 63 34 60Q34 34 60 31H435Q423 48 419.0 62.0Q415 76 415 104Q415 121 408.5 180.0Q402 239 400 281Q357 257 339 257Q327 257 318 270Q317 270 317 271Q317 278 329.0 290.0Q341 302 351 308Q360 313 369.5 315.5Q379 318 387.5 319.0Q396 320 398 320V352Q398 358 398.5 371.0Q399 384 399 390V393Q399 396 400 398V428Q400 447 399.5 459.5Q399 472 399.0 475.0Q399 478 398.5 480.5Q398 483 398 484V493V510V534Q398 561 390 579ZM361 72Q342 80 334.0 90.5Q326 101 326 122Q326 133 329.5 149.0Q333 165 333 172Q333 190 321.5 196.0Q310 202 292.5 207.0Q275 212 266 225Q256 241 251.5 258.0Q247 275 244.5 294.5Q242 314 239 325L212 432Q207 429 195 429H193L195 415Q198 412 198 407Q198 404 196 402Q200 363 203.0 338.5Q206 314 207.0 292.5Q208 271 208.5 261.5Q209 252 209.5 225.5Q210 199 210 183Q224 179 247.0 179.0Q270 179 284.0 176.5Q298 174 299 165Q304 140 304 125Q304 120 303.5 112.0Q303 104 303 100Q303 81 307 69Q307 69 361 72ZM195 454Q203 454 209.0 461.0Q215 468 215 479Q215 487 207.5 494.0Q200 501 190 501Q178 501 169.5 493.0Q161 485 161 474Q161 454 195 454ZM257 735Q285 735 285.0 718.0Q285 701 261.0 701.0Q237 701 237 714Q237 722 243.0 728.5Q249 735 257 735ZM375 741Q375 725 359.5 713.0Q344 701 344 684V673Q344 665 344.0 660.0Q344 655 343.5 649.0Q343 643 343.0 612.0Q343 581 343 528V512Q344 502 344.0 488.0Q344 474 344.0 466.5Q344 459 346.0 448.5Q348 438 352 428Q353 428 354 428L356 429Q359 446 359 475Q359 488 357.5 514.5Q356 541 356 556Q356 583 360 611Q370 634 392 634Q424 634 424 562V526Q427 483 427 444V439H430Q436 439 444 441Q447 462 447 494V515Q447 518 447.5 525.5Q448 533 448 538V545Q447 566 447 597V618Q447 657 441 695Q436 709 429.0 734.5Q422 760 417.5 771.0Q413 782 402.5 796.5Q392 811 375.0 817.0Q358 823 331 824H316Q289 823 270 804Q297 783 309 776Q314 773 332.5 770.5Q351 768 363.0 761.5Q375 755 375 741ZM168 224 184 237Q184 305 174 370L163 317ZM425 333 472 358Q500 377 500 377Q497 396 481 445Q481 434 479.5 426.5Q478 419 477.5 415.0Q477 411 473.5 408.5Q470 406 469.5 405.5Q469 405 463.0 404.0Q457 403 456 403Q448 401 431 401H427Q427 394 426.0 367.0Q425 340 425 333ZM332 888Q351 888 364.5 900.5Q378 913 378.0 931.0Q378 949 364.5 960.5Q351 972 331 972Q313 972 300.5 960.5Q288 949 288.0 931.0Q288 913 301.0 900.5Q314 888 332 888ZM378 847 387 863H276L284 848Q303 855 322 855Q354 855 378 847Z" fill="currentColor"/>
  </g>
</svg>