<svg xmlns="http://www.w3.org/2000/svg" viewBox="21.9 -1639.1 1307.2 2108.2">
	<path fill="currentColor" d="M1251 391Q1216 390 1148 379Q1125 372 1065 345Q1011 320 1004 320L408 386Q358 386 318 359Q272 328 272 278Q272 236 291 220Q344 176 429 124Q501 81 573 38Q554 -28 523 -172Q519 -176 506 -176Q427 -176 343 -140Q329 -134 325 -117Q308 -115 276 -107Q259 -96 226 -77Q160 -48 128 -48Q120 -48 111 -51Q102 -54 100 -54V-85Q132 -97 194 -129Q191 -132 167 -132V-169Q175 -173 211 -185Q105 -296 105 -351Q105 -398 137 -507Q144 -535 163 -581Q182 -592 217 -618V-651Q128 -713 128 -779Q128 -797 154 -831.5Q180 -866 203 -866Q232 -866 300.5 -826.5Q369 -787 376 -769Q378 -764 378 -743Q378 -763 370 -678Q354 -666 322 -655Q324 -641 349 -633Q386 -622 399 -613Q425 -595 449 -558Q468 -525 488 -492Q506 -492 550 -495.5Q594 -499 613 -499Q630 -560 680 -670Q693 -690 732 -709Q776 -731 794 -748.5Q812 -766 812 -801Q801 -812 775 -812Q734 -811 735 -811Q736 -833 710 -868Q684 -903 684 -907Q684 -923 704 -959Q722 -1010 741 -1061Q770 -1130 824 -1142Q824 -1147 808 -1196Q818 -1201 818 -1206Q761 -1235 708 -1350Q665 -1447 623 -1543Q625 -1543 629.5 -1546.5Q634 -1550 642 -1550Q666 -1550 759 -1394Q775 -1447 819 -1478Q858 -1505 901 -1505Q979 -1505 1043 -1411Q1068 -1450 1093 -1489Q1130 -1540 1171 -1561Q1179 -1554 1184 -1554Q1153 -1505 1108 -1413Q1090 -1356 1072 -1298Q1040 -1228 979 -1212Q982 -1207 991.5 -1203.5Q1001 -1200 1001 -1194Q1001 -1187 992 -1169Q981 -1146 979 -1141Q978 -1138 983 -1134Q1076 -1101 1098 -989Q1108 -896 1118 -802L1123 -518Q1179 -331 1179 -340Q1179 -304 1152.5 -279Q1126 -254 1101 -254Q1091 -254 1039 -260Q1040 -256 1040 -195L1073 72Q1073 121 1051 209Q1074 209 1128.5 271Q1183 333 1228 333Q1236 333 1245 331Q1246 323 1251 391ZM1087 -1437Q1068 -1383 1049 -1329Q1019 -1265 964 -1257Q952 -1252 931 -1242L935 -1221Q967 -1232 1021 -1261Q1042 -1278 1087 -1437ZM1023 -1377Q1023 -1415 985 -1446.5Q947 -1478 901 -1478Q861 -1478 825 -1449Q784 -1417 784 -1375Q784 -1340 828 -1303Q872 -1266 909 -1266Q945 -1266 981 -1295Q1023 -1329 1023 -1377ZM894 -1211V-1232Q882 -1239 860 -1247Q804 -1255 764 -1319Q736 -1373 708 -1427Q729 -1379 750 -1331Q780 -1268 802 -1251Q838 -1239 894 -1211ZM967 -1182H846Q846 -1176 849 -1164Q852 -1152 852 -1150Q914 -1150 956 -1144Q956 -1159 967 -1182ZM1096 -499V-786Q1096 -859 1077 -963Q1070 -1003 1043 -1070Q1006 -1121 901 -1121Q782 -1121 757 -1028Q756 -1028 779 -1030Q802 -1032 822 -1032Q962 -1032 962 -949Q962 -942 951 -921.5Q940 -901 940 -895V-499ZM1028 -382Q1003 -443 983 -474Q960 -474 917 -480V-914Q917 -915 926 -922Q935 -929 935 -946Q935 -956 932 -970Q898 -999 875 -999H746Q743 -984 727.5 -950.5Q712 -917 712 -910Q712 -902 731 -877Q756 -844 759 -840Q811 -837 834 -828V-763Q834 -733 777 -704Q711 -670 702 -658Q686 -634 668.5 -589.5Q651 -545 651 -534V-510H694Q712 -543 753 -598Q756 -595 760 -594Q764 -593 767 -590Q755 -561 723 -507Q742 -488 728 -467Q795 -422 886 -406Q957 -394 1028 -382ZM1151 -340Q1151 -356 1106 -475H1018Q1023 -460 1044 -412Q1062 -371 1062 -365Q1062 -363 1053 -354Q883 -383 878 -385Q797 -401 741 -426Q741 -403 743 -408Q719 -381 695 -381Q674 -381 606 -408Q635 -392 775 -363Q793 -359 924 -315Q1024 -281 1093 -281Q1151 -281 1151 -340ZM705 -429L701 -447L635 -439L637 -428Q666 -423 705 -429ZM1034 -48V-67Q1017 -143 1017 -264Q914 -286 774 -336Q777 -248 759 -177Q734 -77 727 -4Q730 -4 862 -32Q942 -49 1000 -49Q1017 -49 1034 -48ZM267 -819Q210 -838 205 -838Q192 -838 171 -814Q150 -790 150 -771Q150 -750 215 -688Q216 -698 200 -729Q208 -737 218 -751Q217 -755 217 -762Q217 -768 218 -772Q235 -788 267 -819ZM689 -346Q655 -353 597 -376Q553 -332 517 -311Q650 -292 634 -292Q655 -292 689 -346ZM751 -290Q751 -312 739 -348H719Q708 -329 698 -309Q683 -283 662 -275Q682 -195 703 -73Q751 -235 751 -290ZM578 -389Q578 -394 572 -407Q566 -420 566 -425Q496 -415 475 -415Q425 -415 408 -443Q419 -313 418 -299Q499 -325 578 -389ZM667 90Q624 48 616 -59Q609 -177 581 -217Q572 -230 537.5 -242Q503 -254 478 -254Q471 -254 434 -250Q393 -246 377 -245L372 -251V-266Q378 -269 387 -278Q385 -323 376 -422Q367 -514 367 -518Q367 -539 385 -538Q418 -480 430 -467Q451 -443 481 -443Q489 -443 551 -456Q617 -471 639 -473Q548 -473 476 -465Q454 -503 405 -570Q399 -576 299 -626Q294 -631 294 -646Q294 -664 305 -675Q306 -676 342 -694Q345 -720 345 -732Q345 -761 338 -770Q331 -779 291 -804Q272 -788 246 -764Q248 -756 248 -742Q233 -718 233 -723Q243 -706 243 -608Q214 -590 179 -558Q159 -514 142 -436Q128 -373 128 -356Q128 -325 205 -228Q274 -140 288 -132Q286 -145 281 -168Q262 -185 234 -219Q161 -358 161 -359Q161 -352 201 -494Q205 -499 213 -499Q221 -491 226 -483Q255 -410 255 -384V-234Q262 -211 307 -197Q340 -187 364 -187Q368 -187 426 -191Q494 -196 546 -198Q568 -110 602 61Q630 78 667 90ZM744 80Q743 77 680 10Q683 -53 668 -140Q644 -280 580 -280H467Q517 -273 585 -252Q628 -215 639 -150Q650 -85 660 -22Q660 -8 663 12Q677 43 744 80ZM1051 89Q1051 53 1039 -19Q1005 -19 987 -25L734 21Q751 35 779 61Q780 88 766 97.5Q752 107 724 105Q719 115 708 131Q696 131 688 129Q669 122 621 96Q581 75 575 75Q552 75 406 172Q455 212 457 247Q676 197 701 197Q708 197 840 216.5Q972 236 979 236Q1011 236 1033 175Q1051 126 1051 89ZM226 -301Q226 -400 214 -448Q189 -386 189 -368Q189 -362 226 -301ZM1173 351Q1171 350 1114 292Q1065 242 1051 242Q1044 242 1035 250Q1026 258 1021 258Q916 258 844 241.5Q772 225 715 225Q666 225 458 275H443Q430 252 417 229Q391 186 375 186Q349 186 320 227Q294 262 294 278Q294 359 422 359L973 297Q1020 297 1062 311Q1117 331 1173 351ZM250 -120L247 -128L197 -98L200 -90ZM812 -917Q799 -913 785 -913Q770 -913 757 -917V-942Q764 -949 793 -960Q796 -954 802.5 -938.5Q809 -923 812 -917ZM311 -746Q311 -740 281 -710L261 -729Q272 -751 292 -771Q311 -752 311 -746Z"/>
</svg>