<svg xmlns="http://www.w3.org/2000/svg" viewBox="0 -2048 2048 2048">
	<path fill="currentColor" d="M1002 -513Q1002 -506 982.5 -403Q963 -300 963 -293Q963 -288 974 -261.5Q985 -235 985 -229Q985 -210 972 -177Q956 -140 938 -136Q932 -142 920 -142Q918 -163 931 -200V-214Q918 -214 918 -203Q905 -203 891 -205.5Q877 -208 876 -208V-232Q876 -238 887.5 -262.5Q899 -287 901 -294Q902 -297 899 -337Q896 -371 902 -439Q908 -515 908 -510Q908 -554 838 -624Q834 -626 815 -626Q784 -626 777 -604Q776 -599 776 -557Q776 -550 790 -485.5Q804 -421 804 -414Q804 -410 794.5 -368Q785 -326 783 -304Q785 -265 783 -188Q770 -53 772 15Q780 266 780 335Q780 343 769.5 356.5Q759 370 749 370Q742 370 720 362Q698 354 691 354Q684 354 647 362Q610 370 603 370Q564 370 558 354Q526 370 523 370Q515 370 505.5 364.5Q496 359 490 359Q483 359 480 364.5Q477 370 470 370H337V322Q377 308 416 294Q470 267 479 224Q476 199 475 153Q478 78 491 -73Q509 -177 552 -480Q562 -513 573 -558V-594Q575 -594 565 -604Q549 -563 533 -521Q512 -470 487 -445Q448 -407 231 -258V370H188V-258Q160 -270 160 -296Q160 -301 166.5 -330Q173 -359 173 -369Q177 -370 187 -376V-881Q159 -913 100 -974V-999Q168 -1022 209 -1022Q255 -1022 319 -981Q292 -945 231 -875V-371Q227 -367 240 -367Q250 -367 315.5 -425.5Q381 -484 411 -520Q414 -524 442 -607Q443 -611 469 -722Q485 -792 514 -828Q526 -843 600 -856V-870Q591 -880 557 -880Q554 -891 535 -923Q517 -952 517 -959Q517 -965 541 -1012Q571 -1070 580 -1092Q585 -1103 639 -1130Q628 -1162 633 -1178Q594 -1186 545 -1285Q512 -1359 479 -1433Q486 -1440 495 -1440Q512 -1440 551 -1389Q587 -1343 587 -1336Q598 -1352 623 -1377Q635 -1385 694 -1411Q692 -1414 682 -1425Q672 -1436 672 -1443Q672 -1439 692 -1488Q690 -1499 690 -1521Q696 -1561 729 -1561Q725 -1561 760 -1548Q753 -1541 753 -1529Q751 -1529 745.5 -1531.5Q740 -1534 732 -1534Q707 -1534 716 -1504Q716 -1500 719 -1463.5Q722 -1427 722 -1411Q735 -1406 764 -1394Q788 -1383 794.5 -1369Q801 -1355 807 -1341Q822 -1351 849 -1391.5Q876 -1432 899 -1451H918Q921 -1445 925 -1438Q880 -1385 835 -1250Q824 -1218 806 -1204Q783 -1186 781 -1183Q781 -1167 765 -1135Q783 -1123 820 -1087Q864 -1032 864 -981V-804Q864 -809 933 -691.5Q1002 -574 1002 -513ZM843 -1330Q804 -1224 731 -1201Q725 -1198 714 -1186Q748 -1184 793.5 -1236.5Q839 -1289 843 -1330ZM793 -1303Q793 -1330 768 -1356Q740 -1385 705 -1385Q677 -1385 647 -1364Q611 -1339 611 -1306Q611 -1280 645 -1253Q679 -1226 710 -1226Q732 -1226 759 -1246Q793 -1270 793 -1303ZM693 -1186Q688 -1194 676 -1201Q603 -1224 564 -1330Q568 -1289 613.5 -1236.5Q659 -1184 693 -1186ZM841 -649V-959Q842 -979 812 -1053Q807 -1066 763.5 -1093.5Q720 -1121 707 -1121Q627 -1121 589 -1040Q595 -1039 604 -1039Q611 -1039 630.5 -1040Q650 -1041 660 -1041Q727 -1041 727 -995Q727 -968 700 -955V-649ZM980 -513Q980 -547 926 -645Q885 -720 865 -747V-646Q865 -639 893 -594Q923 -544 928 -529Q930 -522 930 -414Q930 -406 924.5 -402.5Q919 -399 919 -397Q928 -340 928 -298Q928 -285 923 -265L931 -258H946Q934 -278 937 -292Q980 -497 980 -513ZM965 -230L958 -246L950 -243L957 -230ZM275 -976Q237 -995 204 -995Q182 -995 143 -982Q194 -919 223 -901Q252 -929 275 -976ZM782 -417Q782 -424 765.5 -484Q749 -544 749 -551Q749 -541 754 -589Q757 -619 748 -626H671V-963Q699 -990 699 -992Q699 -1000 696 -1004Q693 -1008 693 -1010H579Q572 -988 551 -959Q568 -933 579 -901Q610 -902 616 -898Q622 -894 622 -868Q622 -843 614 -834.5Q606 -826 564 -822Q529 -818 519 -795Q499 -751 480 -663Q461 -571 444 -530Q423 -479 349 -417Q295 -374 242 -331Q255 -318 255 -312Q317 -351 379 -390Q452 -439 493 -484Q513 -507 528 -558Q540 -598 540 -615Q540 -621 528.5 -639.5Q517 -658 517 -664Q554 -758 573 -758Q580 -758 584 -754Q581 -740 563 -706.5Q545 -673 545 -667Q545 -678 552 -650Q558 -637 582 -619Q600 -605 600 -579Q600 -572 590 -530Q579 -482 576 -464Q553 -326 530 -187Q501 9 501 156Q501 177 508 188H748V-123Q754 -158 763 -226Q764 -238 760 -265Q756 -292 756 -298Q756 -303 761 -342Q762 -353 772 -382Q782 -411 782 -417ZM225 -311Q203 -322 194 -322Q194 -320 190.5 -313Q187 -306 187 -298Q187 -293 201 -279Q225 -291 225 -311ZM759 330Q759 318 753.5 289.5Q748 261 748 248Q748 225 759 212H694Q706 236 706 257Q706 330 611 340Q681 326 694 326Q701 326 719 334.5Q737 343 743 343Q746 343 759 330ZM677 249Q677 220 663 214Q657 211 622 211Q586 211 574 221Q556 235 556 282Q556 309 563 321Q597 312 630 304Q677 287 677 249ZM544 212H507Q498 272 445 310Q402 339 363 340Q368 340 383.5 344Q399 348 405 348Q437 348 503 326Q513 345 528 342Q527 311 530 252Q531 247 537.5 232.5Q544 218 544 212ZM639 -970Q632 -962 632 -957H584Q584 -960 581 -969.5Q578 -979 578 -982Q614 -1000 614 -1000Q624 -1000 639 -970Z"/>
</svg>