<svg xmlns="http://www.w3.org/2000/svg" viewBox="21.2 -1660.8 1208.7 2128.7">
	<path fill="currentColor" d="M430 -956H329Q321 -940 324 -899H283V-911Q283 -927 279 -935Q247 -919 211 -919Q140 -919 140 -967Q140 -1035 195 -1035Q214 -1035 279 -1009Q285 -1025 300 -1056H324V-995Q373 -991 430 -995ZM1151 -1446Q1123 -1408 1083 -1333Q1067 -1288 1051 -1242Q1034 -1193 987 -1170L998 -1160Q989 -1142 982 -1118Q1045 -1065 1054 -1044Q1077 -986 1077 -837Q1077 -829 1075.5 -813.5Q1074 -798 1074 -791Q1073 -744 1072 -645Q1065 -633 1044 -632Q1028 -632 1011 -632Q999 -631 994 -624Q982 -536 982 -447Q982 -408 990 -384Q1006 -400 1030 -400Q1076 -400 1082 -341Q1086 -295 1089 -250Q1104 -221 1130 -163L1117 -156Q1060 -221 1060 -274Q1060 -283 1061.5 -299.5Q1063 -316 1063 -325Q1063 -362 1032 -379Q1010 -369 1004.5 -355Q999 -341 993 -248Q988 -177 949 -142Q925 -120 899 -120H532V362H673V35H1017V-298H1045V389H469V-98Q459 -86 459 -69Q459 -63 460.5 -51Q462 -39 462 -33Q462 10 415.5 132.5Q369 255 369 318Q369 324 373 336.5Q377 349 377 356Q377 358 376 361Q351 389 328 389Q319 389 302.5 381Q286 373 277 373Q267 373 249 381Q231 389 221 389H104Q100 377 100 360Q100 344 104 332Q161 325 169 324Q204 317 230 302Q221 297 193 299V-343Q166 -369 166 -377V-446Q177 -454 198 -472V-740Q168 -770 108 -831Q111 -837 120 -848Q212 -866 256 -866Q282 -866 319 -844Q319 -837 325 -831Q296 -799 235 -740V-467Q263 -453 275 -453Q281 -453 308.5 -464Q336 -475 343 -477Q411 -487 544 -518Q554 -521 572 -543Q590 -565 590 -575Q590 -596 488 -788Q470 -810 438 -857Q429 -883 410 -934Q414 -934 423.5 -937Q433 -940 439 -940Q455 -940 476 -908Q478 -909 479 -913Q479 -946 453 -1024Q465 -1027 488 -1030Q536 -934 536 -917Q536 -912 533 -901Q530 -890 530 -885Q530 -876 590 -785Q626 -730 662 -675Q690 -715 728 -741Q759 -757 789 -774Q823 -795 823 -828V-836Q806 -840 772 -852Q766 -871 752 -910Q750 -915 739 -928.5Q728 -942 728 -948Q728 -970 786 -1048Q844 -1126 844 -1131Q844 -1137 839 -1150Q834 -1163 835 -1170Q813 -1188 777 -1233Q746 -1301 680 -1435V-1453H700Q767 -1393 794 -1337Q825 -1403 894 -1415V-1438Q894 -1445 882.5 -1459Q871 -1473 871 -1481Q871 -1476 892 -1513Q902 -1534 911 -1556Q925 -1580 948 -1582L961 -1574Q917 -1520 916 -1514Q916 -1515 916 -1417Q983 -1416 1027 -1343Q1082 -1420 1126 -1464Q1142 -1463 1151 -1446ZM1058 -1318Q1025 -1229 950 -1193Q940 -1188 933 -1178Q968 -1176 1013 -1230Q1054 -1280 1058 -1318ZM1014 -1308Q1014 -1341 980.5 -1368.5Q947 -1396 913 -1396Q881 -1396 849.5 -1368Q818 -1340 818 -1308Q818 -1271 852 -1246Q886 -1221 924 -1221Q951 -1221 982.5 -1251Q1014 -1281 1014 -1308ZM894 -1178Q887 -1188 876 -1193Q801 -1228 768 -1318Q772 -1280 814 -1230Q858 -1176 894 -1178ZM966 -1145H866Q869 -1139 872 -1126Q892 -1130 912 -1130Q932 -1130 960 -1126Q960 -1138 966 -1145ZM1050 -660V-959Q1050 -1021 1010.5 -1062.5Q971 -1104 910 -1104Q844 -1104 797 -1026Q797 -1026 849 -1026Q961 -1026 961 -969Q961 -958 935 -933V-660ZM934 -967V-981L928 -987Q900 -998 820 -998Q797 -998 787 -996Q759 -960 759 -953Q759 -951 792 -873Q806 -871 835 -864Q849 -853 849 -831Q849 -777 787 -745Q706 -704 675 -651Q679 -645 688 -633Q689 -634 733 -666Q768 -691 775 -691Q780 -691 788 -681L907 -735V-947Q909 -948 934 -967ZM512 -899V-918H503V-899ZM907 -629V-707Q830 -671 673 -606L504 -881Q477 -876 481 -876Q470 -876 459 -892Q484 -840 535 -735Q561 -680 587 -625Q627 -554 667 -543ZM267 -974Q229 -993 206 -993Q196 -993 177 -974Q195 -956 214 -956Q213 -956 267 -974ZM288 -832Q236 -845 230 -845Q210 -845 151 -833Q167 -776 217 -760ZM664 -514Q631 -525 608 -548Q595 -528 570 -501Q560 -495 454 -472Q403 -459 353 -445Q290 -429 251 -430Q265 -404 262 -395Q369 -410 475 -425Q604 -446 664 -514ZM971 -285Q971 -324 965 -400.5Q959 -477 959 -516Q959 -580 970 -632Q826 -570 744 -541Q754 -533 764.5 -494.5Q775 -456 775 -439V-308L756 -295Q664 -284 572 -274Q432 -256 406 -239Q371 -216 361 -175Q355 -135 350 -96Q340 -41 316 159Q313 190 311 221Q306 259 292 279Q261 324 214 339Q167 350 119 360Q125 360 138 364Q151 368 158 368Q177 368 215 357.5Q253 347 272 347Q281 347 298.5 355Q316 363 325 363Q341 363 352 350Q348 330 348 308Q348 252 380 164Q423 47 429 22Q442 -33 442 -58Q442 -63 439 -72.5Q436 -82 436 -87Q436 -99 455.5 -122.5Q475 -146 487 -146H889Q917 -146 942 -179Q966 -209 969 -238Q971 -260 971 -285ZM1018 362V93H734V362ZM1018 71V58H698V362H711V71ZM754 -352Q754 -373 746.5 -414.5Q739 -456 739 -477Q739 -513 714 -527Q651 -438 519 -408Q402 -389 285 -371Q266 -349 241 -341V293Q268 283 281 222Q288 177 295 133Q306 76 323 -53Q328 -117 347 -205Q379 -262 456 -284Q504 -298 606.5 -304Q709 -310 748 -321Q748 -326 751 -336Q754 -346 754 -352ZM240 -392Q240 -404 228 -415H199Q199 -413 196 -405.5Q193 -398 193 -392Q193 -363 222 -363Q240 -363 240 -392ZM507 362V-118H498V362ZM860 -959Q854 -952 854 -946H803Q803 -948 799.5 -954Q796 -960 796 -967Q796 -988 823 -988Q831 -988 860 -959Z"/>
</svg>