<svg xmlns="http://www.w3.org/2000/svg" viewBox="0 0 791 1000">
  <g transform="scale(1,-1) translate(0,-1000)">
    <path d="M612 753Q612 754 607.0 755.5Q602 757 589.5 759.0Q577 761 562 761Q556 761 549.5 761.0Q543 761 537.0 760.5Q531 760 526.0 759.5Q521 759 518 759H515H512H511Q504 743 504.0 730.0Q504 717 517 705Q520 702 538.5 696.5Q557 691 565 679Q574 667 574.0 647.0Q574 627 559 597Q548 575 534.5 564.5Q521 554 514 544Q522 531 537 504Q544 510 562.5 524.0Q581 538 586 543V684Q586 688 599.0 713.0Q612 738 612 753ZM168 415Q191 437 202.0 442.5Q213 448 247 457Q260 455 266.5 453.5Q273 452 279.5 447.5Q286 443 289 435H293Q304 435 313 429Q333 429 361.5 428.5Q390 428 400 428Q428 428 440 430Q484 458 511 482Q404 466 364 466Q348 466 273 586Q272 594 254.5 606.0Q237 618 237 620Q237 621 239.0 621.0Q241 621 251.0 619.0Q261 617 264 617Q266 617 266 618Q266 623 261 631Q255 624 242 622L146 623L148 566Q148 560 132 560Q123 560 123 567L124 625Q84 597 50 597H39Q18 604 9.5 611.0Q1 618 0 636Q2 648 4.0 654.0Q6 660 15.0 666.5Q24 673 41 676L44 675Q64 675 84.0 667.5Q104 660 112.5 654.5Q121 649 123 647L122 710Q122 716 130 716Q147 716 147 709V650L246 653Q246 653 247.0 652.5Q248 652 249 652Q248 654 248 656Q248 660 254 660Q265 660 281 654Q284 653 288.0 639.5Q292 626 295.5 610.0Q299 594 302 590Q340 534 356.5 516.5Q373 499 389 499Q406 499 449.5 509.5Q493 520 501 520Q488 535 488 543Q488 553 494 561Q505 576 516.0 583.0Q527 590 537 609Q549 633 549 647Q549 658 544.0 664.0Q539 670 532.0 671.5Q525 673 514.5 677.0Q504 681 496 689Q478 707 478 731Q478 759 496.5 784.0Q515 809 544 823Q544 828 544.5 843.0Q545 858 545 859Q545 862 546.5 864.0Q548 866 550 866L551 867Q544 873 532.5 885.5Q521 898 518 901Q507 913 499.0 925.5Q491 938 483.5 953.5Q476 969 470 978Q468 980 468.0 986.0Q468 992 472.0 996.0Q476 1000 479 1000Q483 1000 488.0 991.0Q493 982 503.5 965.0Q514 948 526 935Q531 960 551.0 976.5Q571 993 598 993Q626 993 648.0 977.0Q670 961 675 935Q686 948 696.0 965.0Q706 982 712.0 991.0Q718 1000 722 1000Q725 1000 729.0 996.0Q733 992 733 986Q733 982 723.5 963.0Q714 944 693.5 915.5Q673 887 650 867Q656 867 656 861V856Q656 855 655.5 839.0Q655 823 655 820Q668 810 671 793Q687 715 687 647V629Q687 602 687.5 581.5Q688 561 688 551L689 541Q689 530 678 528Q677 528 675.0 528.0Q673 528 669.0 528.5Q665 529 659 529V491Q662 491 669.0 493.5Q676 496 683 496Q710 496 721.5 460.0Q733 424 733 392Q733 345 706 345Q702 345 698 348L700 68H779Q791 68 791 55V13Q791 0 779 0H63Q51 0 51 13V55Q51 68 63 68H149Q153 92 169.0 103.0Q185 114 204.0 121.0Q223 128 229 140Q244 170 244 200Q244 215 239.0 244.5Q234 274 234 291Q234 318 244 347Q255 380 296.0 386.5Q337 393 403.5 393.5Q470 394 514 410Q514 411 514 424L513 436Q511 434 502.5 428.0Q494 422 479.5 414.0Q465 406 454 403Q442 401 423 401Q402 401 361.0 402.5Q320 404 312 404Q310 399 297 399Q291 399 288 400Q276 378 237 378Q200 378 173 393L185 332V331Q185 324 173 324Q160 324 160 328L150 386L53 366Q33 367 33.0 379.0Q33 391 52 397L146 413L135 469Q135 471 141.5 474.0Q148 477 153 477Q159 477 160 472ZM76 43V25H766V43ZM310 289Q315 307 332.5 318.5Q350 330 359 330Q359 330 396.0 330.5Q433 331 475.0 331.5Q517 332 529 332Q564 332 583.5 338.5Q603 345 606.5 350.5Q610 356 613 367Q614 368 617.5 391.0Q621 414 624.5 448.0Q628 482 628 505Q628 523 627 530H610V525Q610 516 606 513Q592 503 569.0 481.5Q546 460 538 454Q538 450 540.5 428.0Q543 406 543 398Q543 392 540.0 389.5Q537 387 525 383Q477 366 404.5 365.0Q332 364 294 357Q276 354 271 338Q262 314 262 284Q262 268 266.0 238.5Q270 209 270 194Q270 159 254 128Q242 106 214.0 92.5Q186 79 184 77H279Q289 209 310 289ZM340 284Q334 274 331.5 267.0Q329 260 322.5 213.0Q316 166 307 68H337ZM670 233V384Q670 398 683 398H685Q691 398 695 392Q699 384 704 379Q706 389 706 393Q706 417 697.0 442.5Q688 468 682 468Q682 468 678.0 467.0Q674 466 669.0 465.0Q664 464 661 464H658L657 451Q653 389 637.5 348.5Q622 308 598 304Q567 300 482 300H364V298V293V76H497V219Q497 233 511 233ZM671 206H526V76H672ZM543.0 725.0Q525 725 525.0 738.0Q525 751 543.0 751.0Q561 751 561.0 738.0Q561 725 543.0 725.0ZM661 629V648Q661 673 660.5 690.5Q660 708 658.0 722.0Q656 736 655.0 743.0Q654 750 651.0 765.0Q648 780 646 788Q641 809 597 809Q565 809 534 786Q554 788 562 788Q600 788 625 776Q638 768 638.0 753.0Q638 738 632.0 722.0Q626 706 619.0 695.0Q612 684 612 682L610 555L663 554Q661 608 661 629ZM598 876Q618 876 632.5 889.0Q647 902 647.0 921.0Q647 940 632.5 952.0Q618 964 597 964Q578 964 565.0 952.0Q552 940 552.0 921.0Q552 902 565.5 889.0Q579 876 598 876ZM269 411Q269 412 268 414Q268 418 271 424Q268 438 250 438Q235 438 218.5 430.5Q202 423 193.5 416.0Q185 409 184 407Q218 395 228 395Q261 395 269 411ZM110 636Q86 650 77.5 653.0Q69 656 52 656H49Q36 656 29.0 649.5Q22 643 22 636V635Q22 616 48 616Q65 616 85.0 623.0Q105 630 110 636Z" fill="currentColor"/>
  </g>
</svg>