<svg xmlns="http://www.w3.org/2000/svg" viewBox="0 -2048 2048 2048">
	<path fill="#000000" d="M1161 -197Q1155 -194 1148 -190Q1107 -237 1092 -284Q1092 -321 1092 -359Q1091 -418 1061 -418Q1029 -418 1027 -377Q1021 -276 1015 -249Q996 -176 937 -161Q937 -152 924 -152H547V343H691V7H1045V-336H1073V370H482V-130Q481 -128 476 -121Q473 -49 462 -1Q458 16 413 145Q378 244 378 298Q378 302 382.5 316Q387 330 386 336Q367 371 336 371Q330 371 310.5 363Q291 355 282 355Q275 355 251.5 363Q228 371 221 371H100V318Q150 311 201 304Q263 295 277 248Q300 87 351 -236Q363 -306 510 -322Q594 -335 760 -354Q762 -356 769 -362Q770 -409 760 -430H626Q619 -430 580.5 -424Q542 -418 535 -418Q529 -418 499 -421Q469 -424 462 -424Q407 -424 394 -419Q363 -407 365 -359Q352 -359 341 -362Q330 -365 329 -365Q331 -379 327 -409Q314 -414 292 -426Q279 -444 279 -467Q279 -478 297 -521Q306 -528 330 -527L334 -531V-568Q315 -580 297 -592Q274 -606 274 -628Q274 -635 289.5 -659.5Q305 -684 308 -693Q315 -696 326 -705Q327 -733 331 -806Q334 -869 334 -876Q334 -970 319 -996Q303 -988 297 -959Q292 -935 287 -910.5Q282 -886 267 -844Q251 -844 238 -846.5Q225 -849 225 -849V-976Q224 -1011 237 -1033Q264 -1072 310 -1157Q313 -1164 329 -1278Q331 -1278 336.5 -1281Q342 -1284 350 -1284Q375 -1284 394 -1248Q410 -1218 410 -1192Q410 -1164 389.5 -1117Q369 -1070 344 -1047Q348 -1039 371 -1016V-689Q401 -674 440 -674Q667 -674 667 -674Q705 -716 767 -804Q813 -892 813 -928Q813 -947 777 -947Q770 -947 740.5 -941.5Q711 -936 704 -936Q674 -936 651 -959Q628 -982 628 -1004Q628 -1038 639 -1049Q670 -1062 732 -1095Q840 -1161 840 -1181Q840 -1186 832 -1204.5Q824 -1223 825 -1232Q772 -1274 729 -1373Q690 -1463 660 -1517Q661 -1524 674 -1524Q696 -1524 738 -1468Q760 -1436 782 -1404Q792 -1443 835 -1466Q871 -1486 908 -1486Q978 -1486 1023 -1410Q1052 -1451 1119 -1535H1138Q1141 -1528 1150 -1516Q1094 -1456 1062 -1348Q1036 -1263 987 -1242Q987 -1234 984 -1212Q981 -1190 981 -1175Q991 -1175 999 -1191H1089Q1096 -1184 1096 -1170Q1096 -1146 1063 -1113Q1074 -1102 1088 -1081Q1107 -1023 1106 -1005V-751Q1078 -753 1029 -749Q1027 -745 1021 -736Q1021 -704 1017.5 -635Q1014 -566 1014 -563Q1014 -509 1024 -429Q1046 -440 1058 -440Q1106 -440 1115 -376Q1116 -336 1116 -296Q1125 -274 1161 -197ZM1034 -1361Q1024 -1340 1014 -1320Q1001 -1295 983 -1285Q957 -1274 922 -1242Q964 -1249 1001 -1287.5Q1038 -1326 1034 -1361ZM1003 -1377Q1003 -1409 973.5 -1436.5Q944 -1464 905 -1464Q874 -1464 842 -1439Q807 -1410 807 -1374Q807 -1335 840 -1309.5Q873 -1284 911 -1284Q944 -1284 973.5 -1309.5Q1003 -1335 1003 -1377ZM899 -1236Q899 -1251 893 -1255Q857 -1261 819 -1290Q776 -1322 772 -1355Q767 -1323 819 -1282Q861 -1249 899 -1236ZM953 -1187V-1213H857Q860 -1200 864 -1186Q904 -1194 953 -1187ZM1085 -895Q1080 -1094 1039 -1094Q1032 -1094 1005 -1091Q978 -1088 971 -1088Q954 -1088 954 -1106L968 -1121Q977 -1116 1001 -1116Q1038 -1116 1068 -1164H1010Q1004 -1149 984 -1141Q971 -1136 958 -1132Q951 -1146 954 -1158Q933 -1165 908 -1165Q865 -1165 781 -1106Q734 -1078 655 -1028V-1002Q672 -986 687 -986Q687 -1012 696 -1012Q742 -1012 742 -993Q742 -986 737 -975.5Q732 -965 732 -964Q762 -974 788 -974Q817 -974 842 -938Q864 -906 864 -877Q864 -871 862 -866Q867 -866 872 -863Q877 -860 884 -860Q869 -860 928 -876Q936 -828 928 -773H962Q960 -802 960 -830Q960 -858 962 -882H1000Q1042 -846 1031 -779H1084Q1085 -772 1085 -895ZM726 -969L705 -976V-968L723 -961ZM833 -773Q827 -795 833 -903Q824 -896 810 -854Q796 -812 796 -797Q796 -780 804 -773ZM910 -747V-842Q908 -842 902.5 -837Q897 -832 889 -832Q892 -832 857 -848V-744Q842 -744 832.5 -747.5Q823 -751 818 -751Q809 -751 781 -718.5Q753 -686 753 -677Q753 -671 769 -639Q785 -607 788 -593ZM383 -1192Q383 -1239 351 -1257Q352 -1249 352 -1240Q352 -1152 279 -1053Q293 -1039 305 -1039Q383 -1109 383 -1192ZM1003 -797Q1003 -815 990 -854Q987 -821 980 -760Q929 -739 874 -668Q835 -614 795 -559Q763 -521 737 -507Q686 -507 538.5 -495.5Q391 -484 396 -484Q389 -484 385 -489.5Q381 -495 374 -495Q353 -495 307 -472Q307 -462 310 -452Q313 -442 313 -441Q318 -441 333 -438Q348 -435 355 -435Q362 -435 389.5 -443Q417 -451 423 -451Q430 -451 477 -448.5Q524 -446 530 -446Q514 -446 582 -444Q636 -442 679 -444Q738 -447 772.5 -458Q807 -469 840 -508Q868 -542 895 -577Q938 -622 996 -709Q1003 -728 1003 -797ZM771 -750Q714 -698 684 -652H389V-621Q447 -604 611 -604Q691 -604 730 -611Q742 -621 742 -633Q742 -642 734 -659.5Q726 -677 726 -685Q726 -689 727 -692Q742 -713 771 -750ZM279 -974Q279 -982 267 -985.5Q255 -989 254 -990V-898Q256 -906 269 -939Q279 -966 279 -974ZM756 -551Q759 -572 756 -604Q745 -580 728 -578Q711 -576 639 -576Q576 -576 549 -578Q486 -583 436 -582L378 -576V-523Q380 -523 388 -517Q396 -511 404 -511Q413 -511 440.5 -516.5Q468 -522 473 -522H608Q674 -522 735 -534Q744 -540 756 -551ZM366 -622Q366 -628 363 -639Q360 -650 360 -652H319Q301 -635 301 -625Q301 -617 304 -611.5Q307 -606 307 -604H336Q348 -604 366 -622ZM998 -345Q998 -324 992 -464Q988 -586 991 -647Q922 -561 793 -433Q793 -398 786 -331Q689 -325 505 -300Q385 -284 373 -215Q347 -19 304 243Q282 330 121 335Q149 349 165 349Q172 349 222 338.5Q272 328 279 328Q287 328 308.5 336Q330 344 336 344Q348 344 361 331Q355 310 355 286Q355 224 400 112Q446 -4 449 -61Q447 -92 454 -142Q470 -179 495 -179H913Q998 -179 998 -345ZM1046 343V67H754V343ZM1046 44V30H716V343H730V44ZM521 343V-151H511V343ZM877 -1088Q877 -1078 866 -1056H825Q822 -1062 818 -1069Q832 -1099 851 -1099Q859 -1099 867 -1093.5Q875 -1088 877 -1088Z"/>
</svg>