<svg xmlns="http://www.w3.org/2000/svg" viewBox="0 -2048 2048 2048">
	<path fill="#000000" d="M907 -1279Q873 -1233 815 -1135Q805 -1114 793 -1053Q784 -1006 755 -972Q737 -951 706 -934Q690 -934 661 -925Q661 -925 699 -925Q710 -925 710 -910Q710 -907 699.5 -890Q689 -873 689 -852Q715 -837 739.5 -800.5Q764 -764 766 -734Q775 -630 782 -434Q788 -273 788 -232V-198Q775 -199 764 -199Q758 -199 744 -198Q732 -198 725 -198Q728 -111 719 41Q710 211 710 279V289Q743 311 818 355Q818 377 801 377L100 373Q148 348 239 290L153 -114Q151 -123 151 -124Q151 -144 176.5 -168Q202 -192 221 -192Q261 -192 278 -177Q316 -143 361 -83Q399 -32 437 18Q439 -20 448 -95Q453 -110 461 -141Q473 -195 475 -233Q420 -303 420 -301Q420 -335 451 -371Q494 -420 500 -431Q516 -458 531 -485Q549 -518 549 -543Q549 -582 526 -591Q497 -595 468 -600Q460 -607 444.5 -640.5Q429 -674 429 -685Q429 -690 442 -707Q457 -728 459 -731Q473 -765 488 -798.5Q503 -832 536 -853Q536 -855 533 -870Q531 -879 522.5 -892.5Q514 -906 514 -920Q530 -922 562 -925Q547 -926 518 -934Q461 -960 436 -1016Q418 -1071 399 -1126Q386 -1157 322 -1249Q322 -1250 322 -1254Q322 -1270 339 -1270Q349 -1270 393 -1220Q437 -1170 444 -1154Q449 -1142 460 -1111Q470 -1171 525 -1205H504V-1231H570V-1432H676V-1574H702V-1205H688Q749 -1170 754 -1121Q761 -1151 807 -1206Q841 -1246 876 -1286ZM676 -1231V-1406H596V-1231ZM806 -1169Q791 -1150 757 -1060Q731 -991 689 -976Q668 -972 630 -953V-925H633Q636 -945 659 -949Q678 -952 697 -955Q748 -978 767 -1038Q775 -1084 806 -1169ZM735 -1097Q735 -1144 693 -1173Q656 -1199 607 -1199Q560 -1199 523 -1173Q482 -1145 482 -1100Q482 -1010 595 -987Q620 -982 613 -982Q607 -982 650 -993Q684 -1002 709.5 -1032Q735 -1062 735 -1097ZM603 -925V-953Q594 -963 576 -966Q551 -970 546 -972Q517 -984 500 -997Q469 -1020 442 -1084Q409 -1162 394 -1182Q422 -1135 430 -1107Q438 -1072 467 -1007Q496 -964 543 -953Q584 -943 589 -925ZM678 -898H545Q551 -886 558 -861Q612 -874 621 -874Q620 -874 667 -863Q670 -877 678 -898ZM765 -220V-241Q765 -272 756 -489Q754 -571 743 -733Q731 -848 621 -848Q582 -848 548 -832Q538 -827 517.5 -805.5Q497 -784 497 -775V-772Q539 -770 581 -769Q637 -765 659 -748Q659 -713 648 -702.5Q637 -692 627 -683Q622 -672 612 -220ZM762 350L689 300Q687 290 687 284Q702 -55 702 -46V-193Q702 -193 612 -193Q598 -193 588 -203L597 -599Q597 -603 598.5 -611.5Q600 -620 600 -625V-658Q600 -695 633 -721V-737Q542 -748 492 -751Q474 -713 452 -684Q453 -664 483 -619Q532 -617 549 -604Q572 -587 572 -541Q572 -488 509 -409.5Q446 -331 446 -305Q446 -293 501 -244Q494 -171 475 -104Q469 -48 454 63Q431 51 294 -126Q263 -166 223 -166Q209 -166 193.5 -155Q178 -144 178 -131Q178 -89 221 107L250 239Q256 262 263 306Q236 321 181 350ZM555 -699L552 -685Q531 -687 489 -694Q503 -727 519 -727Q549 -727 555 -699Z"/>
</svg>