<svg xmlns="http://www.w3.org/2000/svg" viewBox="0 -2048 2048 2048">
	<path fill="#000000" d="M1436 363H352Q421 319 561 231Q558 217 492 -54Q446 -239 449 -289Q448 -280 413 -422L474 -417Q478 -420 478 -425L251 -932Q246 -927 235 -927Q188 -927 142 -985Q100 -1036 100 -1072Q100 -1108 150 -1143Q147 -1146 144.5 -1151Q142 -1156 139 -1159Q145 -1175 166.5 -1180Q188 -1185 191 -1189Q191 -1189 198 -1176Q203 -1167 210 -1167Q217 -1167 223.5 -1170Q230 -1173 237 -1173Q336 -1173 336 -1041Q336 -1008 323 -972Q323 -971 313 -963Q303 -955 303 -948Q303 -943 392 -737Q489 -514 539 -410Q557 -401 587 -372Q621 -313 709 -230Q778 -165 848 -100Q850 -102 850 -240L883 -527Q883 -533 854 -553Q820 -577 809 -588Q791 -608 791 -656Q791 -700 807 -710Q780 -720 741 -708V-764Q740 -782 775 -848Q775 -848 854 -941Q927 -1026 927 -1044Q927 -1065 914 -1080.5Q901 -1096 889 -1096Q882 -1096 826 -1079.5Q770 -1063 763 -1063Q705 -1063 690 -1157Q653 -1174 617.5 -1229Q582 -1284 582 -1318Q582 -1343 603 -1362Q606 -1364 655 -1398Q737 -1455 839 -1501Q963 -1556 1039 -1556Q1147 -1556 1238.5 -1468Q1330 -1380 1346 -1258Q1365 -1113 1365 -916L1359 -725Q1268 -725 1257 -715Q1264 -651 1264 -590Q1264 -565 1269 -445Q1275 -329 1275 -250Q1275 60 1201 236ZM1141 -1405Q1141 -1441 1105 -1484Q1066 -1529 1028 -1529Q988 -1529 912 -1499Q610 -1380 610 -1315Q610 -1294 641 -1245Q676 -1189 708 -1189Q727 -1189 792 -1228Q802 -1207 802 -1204Q753 -1174 719 -1161V-1120Q739 -1091 774 -1091Q819 -1091 931 -1145Q1064 -1209 1064 -1269Q1064 -1279 1053 -1297.5Q1042 -1316 1042 -1321Q1042 -1329 1051 -1335Q1099 -1332 1127 -1367Q1141 -1385 1141 -1405ZM1337 -747V-1111Q1337 -1224 1287 -1345Q1223 -1499 1119 -1511Q1168 -1425 1168 -1400Q1168 -1373 1134.5 -1344.5Q1101 -1316 1075 -1314Q1088 -1295 1088 -1274Q1088 -1226 1028 -1174Q977 -1128 922 -1110Q944 -1100 947 -1077Q954 -1024 954 -1022Q954 -1015 892 -944Q817 -858 794 -827Q768 -792 769 -770V-741H832Q879 -806 926 -872Q991 -959 1053 -959Q1075 -959 1164 -925Q1188 -916 1210 -889Q1235 -859 1246 -797Q1249 -779 1257 -747ZM314 -1050Q314 -1145 232 -1145Q225 -1145 215.5 -1142.5Q206 -1140 199 -1140Q191 -1140 186.5 -1147.5Q182 -1155 178 -1161Q181 -1154 181 -1148Q181 -1132 154.5 -1112.5Q128 -1093 128 -1072Q128 -1036 168 -995Q208 -954 248 -954Q314 -954 314 -1050ZM1327 336Q1214 278 1168 247Q1250 85 1250 -234L1239 -579Q1231 -688 1219 -804Q1217 -821 1202 -851.5Q1187 -882 1172 -891Q1100 -932 1047 -932Q1010 -932 993 -913Q925 -837 819 -690Q818 -689 818 -656Q818 -614 839 -596Q875 -571 911 -546Q872 -284 872 -212Q872 -195 875 -136Q878 -88 876 -60Q870 -50 860 -50Q774 -137 598 -305Q577 -324 527 -324Q492 -324 481 -302Q473 -287 473 -242Q473 -179 522 -4Q557 118 593 241L445 336ZM571 -347Q571 -352 537 -373.5Q503 -395 497 -395H440Q450 -373 464 -335Q490 -352 514 -352Q521 -352 542 -349.5Q563 -347 571 -347ZM922 -1367Q922 -1352 886 -1315Q845 -1356 845 -1362V-1391Q870 -1403 878 -1403Q895 -1403 910 -1388Q922 -1376 922 -1367ZM894 -1360Q894 -1365 887 -1375Q879 -1375 879 -1354Q884 -1354 894 -1360Z"/>
</svg>