<svg xmlns="http://www.w3.org/2000/svg" viewBox="23.8 -1617.2 1250.5 2058.5">
	<path fill="currentColor" d="M1198 365H173Q169 356 160 341Q179 330 334 233Q293 88 252 -57Q213 -207 218 -294Q203 -339 188 -398V-421L231 -416V-972Q231 -972 205 -998Q204 -998 197 -996Q178 -934 137 -813Q112 -813 100 -825V-967Q100 -973 125 -1033Q152 -1099 158 -1120Q166 -1150 178 -1252Q258 -1235 258 -1166Q258 -1098 214 -1044Q279 -983 279 -968V-415Q299 -409 338 -386Q364 -351 422 -280Q460 -237 614 -96Q616 -98 616 -267L649 -515Q652 -524 628 -543Q594 -571 586 -580Q558 -612 558 -661Q558 -686 568 -701Q551 -708 514 -705V-777Q513 -796 542 -844Q544 -847 622 -935Q692 -1015 692 -1030Q692 -1044 678.5 -1064Q665 -1084 657 -1084Q650 -1084 594.5 -1068Q539 -1052 532 -1052Q512 -1052 472 -1096Q467 -1111 457 -1135Q440 -1147 412 -1174Q393 -1201 371.5 -1250Q350 -1299 350 -1310Q350 -1341 449 -1400Q616 -1499 722 -1528Q770 -1541 804 -1541Q858 -1541 935 -1504Q972 -1486 1001 -1460Q1081 -1388 1098 -1299Q1127 -1147 1126 -1012V-710H1032L1023 -705Q1023 -706 1027 -571L1035 -270Q1035 74 964 237ZM904 -1399Q904 -1441 874 -1476Q841 -1514 796 -1514Q734 -1514 611 -1461Q503 -1414 438 -1368Q377 -1325 377 -1307Q377 -1282 408 -1233Q442 -1177 472 -1177Q499 -1177 559 -1215Q573 -1201 573 -1196Q573 -1183 486 -1148V-1113Q517 -1079 543 -1079Q572 -1079 669 -1118Q762 -1154 778 -1168Q828 -1211 828 -1258Q828 -1265 817.5 -1281Q807 -1297 807 -1304Q807 -1316 815 -1324Q820 -1323 825 -1323Q852 -1323 878 -1346.5Q904 -1370 904 -1399ZM1105 -936Q1105 -1117 1071 -1283Q1059 -1344 1008 -1407Q953 -1476 894 -1490Q931 -1464 931 -1394Q931 -1328 846 -1298Q858 -1271 853 -1245Q844 -1192 782 -1146Q731 -1107 687 -1099Q720 -1054 720 -1033Q720 -999 654 -931Q574 -847 558 -817Q540 -784 541 -771V-732H598Q624 -755 709 -875Q757 -943 828 -943Q1004 -943 1019 -738H1104ZM231 -1169Q231 -1206 199 -1220Q202 -1187 185 -1128Q170 -1080 156 -1032Q168 -1016 169 -1018Q163 -1002 147 -981Q142 -986 134 -986Q135 -951 135 -889Q152 -965 178 -1037Q181 -1045 211 -1101Q231 -1139 231 -1169ZM1089 337Q1002 294 931 254Q968 189 992 30Q1013 -111 1013 -234Q1013 -236 1006 -364Q999 -501 997 -566Q993 -703 989 -783Q987 -817 978 -833Q954 -877 898 -902Q855 -921 820 -921Q790 -921 780 -913Q777 -911 707 -823Q670 -779 632 -735Q584 -675 584 -650Q584 -617 601 -597Q612 -585 665 -545L675 -537Q677 -532 676 -528L644 -311V-52H620Q546 -126 471 -200Q340 -324 304 -324Q242 -324 242 -232Q242 -176 325 125Q340 178 367 243Q305 287 215 337ZM344 -341Q297 -386 215 -394Q223 -346 232 -319Q237 -319 246 -324Q267 -346 301 -346Q335 -346 344 -341ZM692 -1348Q692 -1342 652 -1302Q616 -1336 616 -1353Q616 -1367 634 -1379Q649 -1389 660 -1389Q673 -1389 684 -1371Q692 -1357 692 -1348Z"/>
</svg>