<svg xmlns="http://www.w3.org/2000/svg" viewBox="0 -2048 2048 2048">
	<path fill="currentColor" d="M1006 369H105Q129 356 285 259Q241 104 192 -121Q193 -144 190 -188Q183 -219 171 -278H199Q214 -473 214 -489Q214 -498 140 -557Q124 -550 106 -541Q106 -544 103 -554Q100 -564 100 -567Q115 -571 136 -588Q146 -608 161 -697Q166 -720 174 -773Q176 -795 174 -834Q171 -882 171 -895Q273 -891 312 -883Q285 -829 285 -811Q285 -816 341 -582Q344 -571 378 -550Q378 -538 364 -524Q345 -546 326 -546Q315 -546 289 -525Q263 -504 263 -494Q263 -456 287 -271Q300 -260 321 -234Q354 -168 415 -108Q465 -63 516 -17Q515 -51 516 -118Q518 -143 548 -368Q469 -398 469 -477Q469 -495 476 -510Q471 -514 433 -514V-559Q432 -578 464 -622Q475 -638 540 -720Q586 -779 586 -787Q586 -797 572.5 -813.5Q559 -830 550 -830Q543 -830 506.5 -813.5Q470 -797 463 -797Q427 -797 402 -831Q397 -846 387 -876Q373 -889 347 -919Q302 -989 302 -1013Q302 -1054 431 -1122Q513 -1160 596 -1199Q584 -1208 555 -1234Q543 -1224 524 -1209Q501 -1191 468 -1191Q439 -1191 428 -1198Q411 -1209 389 -1260.5Q367 -1312 367 -1338Q367 -1370 411 -1401Q409 -1404 384 -1416V-1433Q384 -1459 441 -1474Q465 -1474 484.5 -1456.5Q504 -1439 504 -1417Q504 -1410 487.5 -1360Q471 -1310 471 -1303V-1265Q480 -1256 482 -1256Q510 -1256 518 -1281Q524 -1298 511 -1351Q498 -1407 544 -1473Q567 -1506 598 -1521Q637 -1540 689 -1540Q733 -1540 744 -1537Q759 -1533 797 -1510Q860 -1471 867 -1379Q863 -1348 865 -1292Q876 -1251 924 -1193L910 -1180Q886 -1196 850 -1256Q814 -1218 775 -1200Q770 -1199 760 -1193Q759 -1190 764 -1186Q850 -1166 903 -1047Q946 -950 945 -855V-519H867L861 -515Q859 -488 864 -425Q869 -356 869 -359V-204Q869 -199 872 -175Q875 -151 875 -142Q875 100 815 264Q878 300 1006 369ZM842 -1354Q842 -1518 681 -1518Q610 -1518 570 -1468Q536 -1424 536 -1360Q536 -1332 538 -1324Q546 -1290 571 -1254Q599 -1213 626 -1208Q631 -1207 681 -1207Q842 -1207 842 -1354ZM469 -1409Q469 -1418 458.5 -1432.5Q448 -1447 438 -1447Q417 -1447 417 -1426Q457 -1426 469 -1409ZM509 -1233Q507 -1233 500 -1231Q493 -1229 485 -1229Q444 -1229 444 -1278Q444 -1300 470 -1392H451Q394 -1364 394 -1335Q394 -1314 409 -1272.5Q424 -1231 434.5 -1224.5Q445 -1218 471 -1218Q495 -1218 509 -1233ZM755 -1087Q755 -1106 733 -1140Q707 -1180 681 -1180Q632 -1180 621 -1178Q568 -1168 455 -1110Q329 -1044 329 -1008Q375 -907 405 -907Q409 -907 473 -939Q489 -923 488 -916Q464 -903 417 -884V-859Q440 -825 465 -825Q501 -825 592 -874Q695 -930 695 -978Q695 -999 673 -1008Q679 -1016 722 -1039Q755 -1056 755 -1087ZM924 -705Q924 -1108 750 -1162Q782 -1109 782 -1079Q782 -1053 760 -1035Q712 -997 712 -997Q713 -996 713 -995Q721 -987 715 -953Q710 -923 664 -883Q618 -843 586 -839Q613 -799 613 -781Q613 -773 573 -723Q514 -648 506 -638Q475 -596 455 -542L485 -535Q519 -550 582 -640Q635 -716 695 -716Q834 -716 854 -542H923Q924 -532 924 -705ZM312 -585Q263 -744 263 -806Q263 -834 274 -867H193Q208 -823 199 -779Q194 -741 185 -675Q184 -667 174 -639Q166 -615 166 -608V-591Q227 -606 231 -606Q238 -606 270.5 -596Q303 -586 312 -585ZM296 -560Q248 -584 231 -584Q200 -584 176 -560Q231 -519 239 -519Q246 -519 266 -536Q292 -557 296 -560ZM897 342Q859 319 782 275Q848 131 848 -161Q848 -345 824 -577Q822 -600 801 -632Q765 -688 697 -688Q656 -688 636 -669Q619 -641 584 -595Q498 -502 498 -467Q498 -428 575 -379Q563 -303 545 -151Q545 -151 545 8Q545 27 524 27Q460 -37 396 -100Q295 -197 255 -197Q214 -197 214 -139Q214 -55 318 269Q269 305 203 342ZM263 -274L239 -481Q239 -456 235 -388Q230 -317 230 -288L237 -274ZM295 -219Q295 -233 278 -244Q223 -251 227 -251H198Q202 -235 211 -208Q227 -224 252 -224Q258 -224 274 -221.5Q290 -219 295 -219ZM586 -1049Q586 -1029 550 -1005Q515 -1036 515 -1049Q515 -1081 547 -1081Q586 -1081 586 -1049Z"/>
</svg>