<svg xmlns="http://www.w3.org/2000/svg" viewBox="0 0 693 1000">
  <g transform="scale(1,-1) translate(0,-1000)">
    <path d="M542 587Q542 548 495 495Q496 490 506 464Q537 486 551 491L553 621Q553 625 565.0 647.5Q577 670 577 685Q577 686 572.5 687.5Q568 689 556.0 691.0Q544 693 530 693Q525 693 518.5 693.0Q512 693 506.5 692.5Q501 692 496.5 691.5Q492 691 489 691H486H483H482Q476 676 476 664Q476 650 486.5 642.5Q497 635 509.0 632.5Q521 630 531.5 618.5Q542 607 542 587ZM507 417Q507 407 509.5 383.5Q512 360 512 355Q512 349 509.0 346.5Q506 344 495 340Q450 324 382.5 323.5Q315 323 280 316Q263 313 258 298Q247 266 236.5 190.0Q226 114 205 73Q194 53 162.0 41.0Q130 29 126 26L215 25Q261 178 295 252Q313 291 341 291Q341 291 375.5 291.5Q410 292 449.0 292.5Q488 293 499 293Q532 293 550.0 299.0Q568 305 571.5 310.0Q575 315 578 325Q579 326 582.0 347.5Q585 369 588.5 400.5Q592 432 592 454Q592 465 590 477H574Q574 476 574.5 474.0Q575 472 575 471Q575 463 571 462Q518 424 507 417ZM643 354Q650 354 662 336Q664 346 664 350Q664 373 656.0 396.0Q648 419 642 419Q642 419 638.0 418.0Q634 417 629.0 416.0Q624 415 621 415H619L618 403Q610 276 563 267Q534 263 455 263H345Q346 261 346 256V33H470V187Q470 200 482 200H631L630 341Q630 354 643 354ZM632 175H496V33H633ZM512.0 659.0Q495 659 495.0 671.0Q495 683 512.0 683.0Q529 683 529.0 671.0Q529 659 512.0 659.0ZM622 570V587Q622 651 612 703H594Q601 698 601 686Q601 671 595.5 656.5Q590 642 583.5 631.0Q577 620 577 619L575 501L624 499Q622 549 622 570ZM340 639Q340 681 316 681Q316 681 315.0 680.5Q314 680 313 680Q298 677 298.0 661.0Q298 645 309.0 623.0Q320 601 328 597Q340 630 340 639ZM365 378Q355 378 343.0 384.5Q331 391 331 398Q331 402 347 410L336 475Q326 475 248.0 479.5Q170 484 166 485Q165 485 163.5 484.5Q162 484 161 484L160 94Q160 88 156.0 84.5Q152 81 148 81Q142 81 135.0 85.0Q128 89 128 94Q129 338 129 486Q118 495 118 507Q118 518 129 522V603H39Q24 603 14.5 612.0Q5 621 2.5 627.5Q0 634 0 637V640Q0 667 71 672Q74 672 83.5 672.5Q93 673 98 674Q107 691 113.5 713.0Q120 735 122.5 748.5Q125 762 130.5 772.0Q136 782 146 782H147Q157 782 161.0 773.0Q165 764 166 737Q175 782 192 782Q193 782 200 781H201Q206 781 210.0 777.0Q214 773 214 768V668Q214 650 204.5 633.5Q195 617 186.5 610.0Q178 603 176 603H161V519Q169 515 169 515H171Q217 515 262.5 511.0Q308 507 320 507H331L322 560L269 549Q267 549 263.5 555.0Q260 561 260.0 566.0Q260 571 265 573L320 581Q298 603 292.5 613.5Q287 624 279 657Q282 672 283.5 678.5Q285 685 291.5 691.5Q298 698 310 701H317Q356 701 356 646Q356 611 341 585L400 597H401Q408 597 408.0 585.0Q408 573 404 573L348 564L358 510Q371 512 422.5 521.5Q474 531 496 533Q518 573 518.0 587.0Q518 601 511.0 605.5Q504 610 491.0 613.5Q478 617 469 626Q452 643 452 665Q452 698 477.5 724.5Q503 751 540 759Q543 878 545 896Q551 961 596 961Q608 961 617.5 953.5Q627 946 627 935Q627 910 602 902Q604 888 607.0 873.0Q610 858 612.5 847.0Q615 836 617.0 826.5Q619 817 620 812L622 807Q622 775 595 773Q584 772 573 762Q625 759 632 723Q637 723 642.5 721.5Q648 720 649 720Q649 720 651 722Q632 734 632 747Q632 765 656 765Q683 765 683 739Q683 738 681.5 735.0Q680 732 680 730Q680 730 681.5 728.0Q683 726 684.5 721.5Q686 717 688.0 710.0Q690 703 691.5 690.0Q693 677 693 661Q693 650 692.0 634.5Q691 619 691 618Q691 604 682 604Q674 604 672 611Q667 652 667 682Q669 712 669.0 712.0Q669 712 666.5 709.0Q664 706 659.0 703.0Q654 700 648 700Q644 700 636 702Q646 648 646 587V570Q646 545 647.0 525.5Q648 506 648 496L649 487Q649 477 638 475Q637 475 635.5 475.5Q634 476 630.0 476.0Q626 476 621 476V441Q623 441 630.0 443.5Q637 446 643 446Q668 446 679.0 412.0Q690 378 690 349Q690 305 665 305Q660 305 657 307L659 26V12Q659 8 655.5 4.0Q652 0 647 0H332Q328 0 324.0 4.0Q320 8 320 12V26L323 247Q314 232 281.5 124.5Q249 17 242 6Q240 2 230 0H92L94 18Q99 47 137.5 60.0Q176 73 182 85Q201 123 209.5 188.0Q218 253 229.5 294.0Q241 335 275 342Q310 349 377.0 349.5Q444 350 486 365Q486 366 485 386L484 405Q469 398 459 395Q416 386 376 386Q373 386 370.0 382.0Q367 378 365 378ZM165 626Q178 637 182.0 644.0Q186 651 189 669V722Q185 704 177.5 691.5Q170 679 158.5 671.5Q147 664 142.0 661.5Q137 659 126 655Q106 649 74.5 647.0Q43 645 26 638Q26 637 27.0 634.5Q28 632 29 630Q33 628 165 626ZM143 730Q134 691 130 683Q142 689 145 692Q145 698 144.5 711.0Q144 724 143 730ZM580 908Q580 915 593.0 920.5Q606 926 606 935Q606 940 596 940Q576 940 571.0 917.0Q566 894 564 814V813Q564 808 563.5 797.0Q563 786 563 780Q573 788 581.5 791.0Q590 794 593.5 794.0Q597 794 599.0 796.5Q601 799 601 807Q601 807 590.5 854.0Q580 901 580 907ZM364 479 375 417Q379 415 379 413Q396 413 421.0 419.0Q446 425 463 431L480 437L465 493H462Q442 493 364 479ZM607 723Q598 737 568 738V723ZM514 723H539V735Q527 732 514 723Z" fill="currentColor"/>
  </g>
</svg>