<svg xmlns="http://www.w3.org/2000/svg" viewBox="0 -2048 2048 2048">
	<path fill="currentColor" d="M1419 -1091Q1417 -1091 1410 -1087.5Q1403 -1084 1395 -1084Q1388 -1084 1374 -1098Q1355 -1118 1350 -1121Q1310 -1151 1269 -1170Q1214 -1196 1058 -1220L849 -1217Q963 -1161 958 -973L979 -368H903L882 236Q882 256 883 264Q937 300 1045 369H100Q162 336 284 264L176 -253Q176 -302 211 -332Q239 -357 271 -357Q317 -357 332 -343Q375 -303 436 -224Q515 -120 536 -96L588 -408Q585 -414 545 -458Q518 -489 518 -514Q518 -534 571 -611Q607 -660 642 -710Q681 -769 681 -813Q681 -868 652 -879Q615 -885 579 -891Q523 -998 523 -1000Q523 -1001 565 -1072Q584 -1107 602 -1142Q632 -1193 670 -1217L368 -1220Q279 -1241 279 -1304Q279 -1330 323 -1369Q380 -1420 393 -1440Q386 -1448 358 -1448Q351 -1448 287 -1432Q223 -1416 216 -1416Q203 -1416 170 -1439Q132 -1464 127 -1485Q185 -1530 254 -1530Q261 -1530 314 -1519Q367 -1508 374 -1508Q380 -1508 388.5 -1511Q397 -1514 404 -1514Q420 -1514 444.5 -1491Q469 -1468 469 -1454Q469 -1418 425.5 -1381.5Q382 -1345 339 -1310Q369 -1280 380 -1280H1134Q1206 -1280 1297 -1225Q1397 -1166 1419 -1091ZM1343 -1161Q1316 -1188 1256 -1220Q1190 -1254 1155 -1254H396Q380 -1254 353 -1266Q317 -1282 317 -1307Q317 -1309 332 -1339Q306 -1315 306 -1299Q306 -1287 327 -1266Q348 -1245 358 -1245H1117Q1153 -1245 1244 -1207Q1318 -1177 1343 -1161ZM442 -1457Q428 -1486 404 -1486Q397 -1486 388.5 -1483.5Q380 -1481 374 -1481Q367 -1481 310 -1494.5Q253 -1508 246 -1508Q180 -1508 159 -1472Q203 -1443 214 -1443Q221 -1443 284.5 -1459Q348 -1475 355 -1475Q412 -1475 425 -1446Q399 -1412 345 -1351Q436 -1421 442 -1457ZM952 -395L931 -1033Q929 -1107 879 -1161Q829 -1215 770 -1215Q665 -1215 611 -1112H775Q791 -1099 817 -1081Q818 -1076 818 -1072Q818 -1052 793.5 -1018Q769 -984 768 -973L752 -395ZM952 342Q855 274 855 271L871 5V-368H740V-957Q740 -983 758 -1016Q774 -1044 789 -1072Q783 -1072 771 -1084H601Q556 -1009 556 -1000Q556 -1006 595 -913Q625 -910 671 -898Q708 -876 708 -813Q708 -755 576 -573Q545 -530 545 -511Q545 -501 608 -423Q610 -418 610 -405Q610 -400 592 -263Q571 -110 565 -50Q559 -41 553 -41Q544 -41 539 -46Q364 -275 321 -316Q307 -329 260 -329Q225 -329 197 -253L312 275Q295 290 203 342ZM686 -1022Q682 -1012 666 -1010Q656 -1009 635 -1011.5Q614 -1014 611 -1014Q611 -1018 605 -1028Q608 -1029 622 -1042Q633 -1052 640 -1052Q656 -1052 686 -1022Z"/>
</svg>