<svg xmlns="http://www.w3.org/2000/svg" viewBox="23.1 -1634.9 1140.8 2076.8">
	<path fill="currentColor" d="M1087 365H1011V137Q1011 118 975 118Q958 118 942.5 133.5Q927 149 913 164Q930 177 948 189Q968 206 968 224Q968 261 933 261Q919 261 910 251Q912 259 912 260Q912 294 881 294Q852 294 842 264Q837 237 832 210Q825 213 810 217Q846 275 846 296V302Q816 321 809 321Q769 321 775 230L769 229Q767 229 748 230Q762 300 762 291Q762 333 729 333Q721 333 691 314Q691 312 709 229Q699 228 680 226Q681 211 681 267Q681 321 643 321Q611 321 611 282Q611 274 642 217Q634 213 625 211Q619 237 613 263Q603 294 576 294Q563 294 542 274Q544 252 591 193Q587 189 575 182Q574 183 557 227Q545 258 527 258Q492 258 492 221Q492 193 544 161Q499 112 485 112Q446 112 446 133V365H370V101Q370 41 482 38Q486 26 486 13Q503 9 537 1Q551 0 579 -4Q637 -17 651 -119Q662 -200 662 -181V-308Q662 -316 660.5 -332Q659 -348 659 -356Q659 -374 666 -402Q675 -437 676 -447Q682 -508 699 -629Q707 -659 720 -721Q722 -757 728 -829Q729 -836 734 -854Q739 -872 739 -881Q739 -918 706.5 -954Q674 -990 674 -1020Q674 -1052 694 -1076Q714 -1100 715 -1105Q529 -1025 485 -1025Q465 -1025 455 -1030Q418 -1048 363 -1120Q298 -1203 279 -1220Q273 -1225 259 -1225Q250 -1225 232 -1222Q214 -1219 205 -1219Q164 -1219 147 -1227Q123 -1240 100 -1253Q107 -1278 107 -1291Q171 -1275 190 -1275Q200 -1275 244 -1280V-1283Q218 -1299 199 -1306Q206 -1346 215 -1346Q216 -1346 243 -1335Q372 -1283 488 -1126Q518 -1142 559 -1163Q704 -1228 745 -1227L746 -1231Q748 -1239 748 -1245Q748 -1262 724 -1265Q680 -1271 677 -1273.5Q674 -1276 655 -1317Q638 -1351 638 -1356Q638 -1349 679 -1419Q670 -1419 651 -1420Q623 -1453 623 -1466Q623 -1473 629 -1479Q600 -1479 575 -1473Q583 -1490 592 -1507Q600 -1520 625 -1523Q636 -1540 669 -1540Q673 -1540 706 -1519V-1491Q691 -1482 680 -1469Q687 -1466 694 -1466H697Q744 -1558 830 -1558Q954 -1558 987 -1491L1028 -1524Q1037 -1517 1037 -1461Q1037 -1451 1035 -1379Q1025 -1389 1005 -1409Q1000 -1358 1000 -1333Q1000 -1319 1005 -1294.5Q1010 -1270 1010 -1258V-1028H964Q953 -898 953 -890Q953 -844 999 -726Q1010 -698 1010 -643Q1010 -618 997 -594Q981 -563 978 -551Q965 -499 965 -411Q965 -381 972 -321Q979 -261 979 -231Q979 -222 976.5 -203Q974 -184 974 -175V-57Q974 -15 985 6Q992 19 992 25Q992 31 989 37Q1011 36 1052 43Q1062 47 1074.5 67Q1087 87 1087 97ZM1013 -1430V-1482Q1008 -1477 996 -1469Q998 -1443 1013 -1430ZM981 -1395Q981 -1532 887 -1532L980 -1373Q981 -1399 981 -1395ZM974 -1329L861 -1532Q824 -1535 833 -1535Q794 -1535 773 -1516Q794 -1476 837 -1424Q871 -1404 871 -1383Q871 -1379 870 -1364Q872 -1359 937 -1263Q955 -1277 974 -1329ZM777 -1466Q769 -1481 752 -1504Q741 -1492 722 -1466ZM797 -1440L787 -1451Q766 -1446 740 -1446H723Q667 -1446 649 -1461Q652 -1454 661 -1445Q709 -1440 714 -1440ZM680 -1500V-1509Q672 -1517 666 -1517H664L669 -1510L658 -1499L644 -1500Q642 -1502 639 -1506L629 -1501Q632 -1501 666 -1495L663 -1485Q671 -1496 680 -1500ZM984 -1051V-1255Q984 -1261 982 -1281Q957 -1237 933 -1237Q927 -1237 891.5 -1290.5Q856 -1344 852 -1344Q847 -1344 846 -1343V-1051ZM740 -1205Q704 -1199 611 -1159Q524 -1122 484 -1098Q438 -1154 365 -1222Q273 -1306 228 -1317Q242 -1310 270 -1294V-1264Q212 -1252 188 -1252Q168 -1252 130 -1267H126L125 -1264Q169 -1242 205 -1242Q214 -1242 232.5 -1245Q251 -1248 260 -1248Q282 -1248 292 -1239Q296 -1236 384 -1131Q453 -1048 478 -1048Q510 -1048 598 -1080Q660 -1104 722 -1128Q728 -1154 740 -1205ZM987 -643Q987 -684 977 -722Q968 -739 952 -775Q930 -828 930 -899Q930 -918 944 -1028Q925 -1028 887 -1028Q844 -1029 831 -1029L832 -1030L819 -1035V-1356Q829 -1362 844 -1366V-1394Q815 -1412 802 -1424Q776 -1419 704 -1419Q695 -1402 662 -1356Q680 -1326 693 -1289Q720 -1286 748 -1282Q768 -1275 768 -1237Q768 -1218 754 -1159.5Q740 -1101 731 -1085Q728 -1079 709 -1061Q700 -1052 700 -1019Q700 -997 731 -960Q762 -923 762 -883Q762 -873 757 -851.5Q752 -830 752 -819Q752 -796 740 -705Q732 -680 721 -630Q714 -569 699 -448Q698 -438 688 -396Q681 -364 681 -343Q681 -324 684 -285.5Q687 -247 687 -228Q687 -211 683 -179Q679 -147 679 -130H953V-140Q953 -151 956 -185Q958 -213 957 -229Q942 -412 942 -415Q942 -493 955 -554Q958 -568 974 -598Q987 -624 987 -643ZM969 26Q969 24 962.5 13Q956 2 955 -3Q951 -28 951 -103H894V-88Q894 -81 898 -68Q902 -55 902 -48Q902 9 766 34V38H876Q878 38 889 32Q900 26 906 26Q915 26 933 32Q951 38 960 38Q969 31 969 26ZM880 -47Q880 -61 869 -103H761Q744 -57 744 -57V16L749 12Q786 10 826 -3Q880 -21 880 -47ZM942 226Q942 212 909 189Q922 235 933 235Q942 235 942 226ZM898 229Q894 213 885 183Q884 183 867 195Q878 206 898 229ZM736 -103H672Q653 -27 635 -9Q614 12 536 25Q519 28 509 31L508 35Q641 39 632 39Q641 39 654 31Q667 23 672 23Q678 23 690 30.5Q702 38 703 38Q711 38 719 30Q719 -51 718 -44Q720 -60 736 -103ZM886 267V249Q886 248 855 215Q855 271 879 268ZM822 280L799 243V286Q799 295 809 295Q814 295 819 291Q820 287 822 280ZM1064 339V97Q1064 87 1052.5 74Q1041 61 1031 61H438Q396 61 396 86V339H420V139Q420 118 444 103Q465 89 487 89Q492 89 569 148.5Q646 208 723 208H757Q833 208 944 101Q953 92 973 92Q990 92 1013.5 106Q1037 120 1037 136V339ZM739 291Q739 279 727 244Q717 295 717 302Q717 307 726 307H730Q739 307 739 291ZM659 267V259Q659 262 656 236Q637 264 637 281Q637 291 638 295H653Q659 287 659 267ZM598 220Q582 237 565 266Q565 266 565 267Q565 268 567 269Q569 270 575 271Q579 271 589 263Q594 249 598 220ZM549 185Q515 206 515 223Q515 235 526 235Q533 235 549 185ZM771 -1357H717L704 -1371Q713 -1380 722 -1397H756Q762 -1386 771 -1357Z"/>
</svg>