<svg xmlns="http://www.w3.org/2000/svg" viewBox="0 -2048 2048 2048">
	<path fill="currentColor" d="M986 344H127Q127 337 116 326Q167 294 261 230Q178 -67 149 -194Q147 -202 152 -218.5Q157 -235 157 -243Q157 -258 127 -363L191 -358V-940Q191 -942 183 -950Q164 -931 154 -881Q145 -835 124 -821Q117 -824 106 -833Q106 -837 103 -850.5Q100 -864 100 -872Q100 -900 125.5 -989Q151 -1078 151 -1115Q151 -1130 148 -1141Q156 -1149 164 -1149Q190 -1149 208 -1123Q223 -1101 223 -1073Q223 -1031 191 -980Q218 -953 218 -948V-358Q245 -354 287 -334Q298 -308 321 -266Q378 -205 494 -79Q505 -110 507 -169Q508 -220 509 -270Q510 -289 522.5 -339Q535 -389 535 -394Q535 -401 502.5 -451.5Q470 -502 470 -509Q470 -523 512 -594Q513 -596 563 -658Q599 -703 599 -727Q599 -746 585 -751Q564 -753 525 -769Q503 -785 481 -825Q460 -860 460 -872Q460 -869 513 -957Q499 -960 471 -973Q462 -980 445 -1024Q428 -1025 395 -1032Q401 -1052 436.5 -1079Q472 -1106 495 -1106Q512 -1106 529 -1089Q546 -1072 546 -1060Q546 -1054 538 -1041Q527 -1025 523 -1015V-1008H536Q573 -1084 611 -1098Q605 -1163 589 -1228Q605 -1234 620 -1270Q638 -1314 669 -1340Q662 -1352 619 -1415Q589 -1460 589 -1468Q589 -1492 612 -1508Q629 -1520 642 -1520Q658 -1520 673 -1502Q685 -1487 685 -1477Q685 -1459 655 -1444L642 -1458Q645 -1461 650.5 -1468.5Q656 -1476 659 -1479Q648 -1493 637 -1493Q616 -1493 616 -1468Q616 -1456 642.5 -1416.5Q669 -1377 682 -1369Q742 -1416 753 -1448Q760 -1478 767 -1507Q778 -1536 814 -1536Q825 -1536 844.5 -1522Q864 -1508 866 -1496Q869 -1470 852 -1436Q852 -1424 859 -1417Q879 -1487 885 -1535H932L852 -1096Q870 -1076 893 -1041Q919 -1053 956 -1084V-924Q955 -923 922 -930L918 -934V-461H844L839 -457Q840 -426 844 -359Q847 -297 847 -292Q847 -95 803 229Q865 267 986 344ZM872 -1318H862L856 -1293H866ZM852 -1372Q826 -1424 826 -1442Q826 -1451 833 -1467.5Q840 -1484 839 -1491Q824 -1509 809 -1509Q791 -1509 787 -1485Q780 -1448 780 -1448Q758 -1406 705 -1335Q645 -1257 632 -1235H819ZM855 -1272Q851 -1247 837 -1207H622Q630 -1143 638 -1111Q685 -1127 736 -1127Q797 -1127 829 -1106Q848 -1200 855 -1272ZM931 -961V-1036Q906 -1009 906 -1009Q906 -986 931 -961ZM889 -885V-929Q891 -994 864 -1040Q833 -1095 772 -1099ZM879 -834Q879 -853 815 -967Q758 -1068 736 -1098Q722 -1100 707 -1100Q660 -1100 626 -1077Q649 -1036 693 -968Q712 -957 743 -930Q742 -908 746 -876Q762 -840 828 -751Q879 -809 879 -834ZM637 -1010Q613 -1046 602 -1057Q578 -1033 568 -1010ZM518 -1067Q496 -1078 487 -1078Q487 -1049 478 -1049Q481 -1049 489.5 -1042.5Q498 -1036 501 -1036Q518 -1070 518 -1067ZM470 -1050V-1059H450V-1050ZM488 -994V-1019H479V-994ZM891 -486V-794Q858 -748 823 -713L722 -864V-486ZM202 -1084Q202 -1103 176 -1116Q161 -1020 134 -902ZM895 316Q777 245 777 238L820 -146V-292Q820 -297 818 -461H690V-876Q712 -887 717 -886V-916Q675 -952 659 -957Q649 -961 607 -961Q554 -961 547 -954Q517 -913 487 -872Q504 -841 522 -811Q546 -775 587 -775Q596 -775 606 -776Q621 -756 621 -727Q621 -711 614 -696Q599 -665 571 -632Q492 -537 492 -515Q492 -508 527 -458.5Q562 -409 562 -404Q562 -400 548 -333Q534 -262 531 -227Q528 -160 522 -40Q516 -31 506 -31Q445 -96 385 -162Q268 -283 239 -283Q218 -283 196 -250Q177 -223 175 -205L293 240Q227 288 180 316ZM272 -307Q196 -338 182 -337H159Q168 -315 182 -278Q220 -316 242 -316Q249 -316 260 -311.5Q271 -307 272 -307ZM621 -888Q621 -883 613 -875Q593 -883 558 -880Q551 -881 551 -893Q551 -906 566 -917Q581 -928 589 -928Q602 -928 613 -911Q621 -897 621 -888Z"/>
</svg>