<svg xmlns="http://www.w3.org/2000/svg" viewBox="23.2 -1621.8 1136.7 2074.7">
	<path fill="currentColor" d="M1083 -576Q1083 -581 1067 -483Q1051 -385 1051 -324Q1060 -296 1064 -241Q1063 -236 1032 -168H1013Q1002 -177 1002 -193Q1002 -202 1007 -219.5Q1012 -237 1012 -242V-257L1003 -266Q998 -261 982 -233Q951 -252 951 -272Q951 -288 979 -330V-570Q979 -590 943 -641Q917 -677 892 -712H841Q841 -712 841 -618Q841 -611 855 -538Q869 -465 869 -458Q869 -454 856 -408.5Q843 -363 843 -346Q848 -292 850 -197Q849 -185 840.5 -147.5Q832 -110 832 -88Q832 -59 839.5 2Q847 63 847 65V336Q847 342 838.5 356Q830 370 830 376H795Q790 376 774.5 368Q759 360 751 360Q744 360 704 368Q664 376 657 376Q614 376 607 360Q584 376 567 376Q560 376 552 370.5Q544 365 537 365Q530 365 525.5 370.5Q521 376 514 376H370V334Q380 326 436 310Q482 296 505 262Q523 235 523 186V16L622 -637Q622 -652 618 -656Q604 -652 600 -633.5Q596 -615 592 -597Q580 -562 564 -542Q505 -469 254 -295V275Q254 281 264 286Q274 291 277 296Q277 301 292 370Q290 370 285.5 373Q281 376 273 376Q253 376 244 354Q237 335 229 316Q229 316 206 353Q191 376 183 376Q169 376 150 357Q166 326 205 263V-300Q183 -309 183 -327Q183 -318 194 -363Q190 -377 190 -405Q194 -409 198 -413Q205 -421 205 -428L195 -925Q147 -862 149 -762Q139 -758 119 -749Q100 -768 100 -785Q100 -791 104.5 -808.5Q109 -826 109 -834Q110 -893 144 -985Q183 -1087 222 -1188Q237 -1188 241 -1182Q270 -1121 270 -1092Q270 -1047 221 -967Q249 -951 249 -871V-862Q249 -821 254 -802L248 -418Q257 -409 262 -409Q272 -409 342 -470Q417 -536 461 -589Q462 -590 481 -659Q500 -739 552 -885Q562 -904 666 -935V-948Q601 -966 572 -1049Q578 -1054 605 -1093Q605 -1095 574 -1113Q571 -1124 565 -1146Q564 -1148 564 -1149Q564 -1150 564 -1150Q554 -1150 556 -1150Q547 -1150 542 -1145Q528 -1159 528 -1161Q528 -1166 536 -1186Q601 -1210 605 -1210Q650 -1210 638 -1176Q640 -1172 645 -1173Q667 -1197 667 -1223Q667 -1235 660.5 -1261Q654 -1287 655 -1302Q671 -1332 715 -1394Q655 -1475 655 -1496Q655 -1523 701 -1534Q737 -1534 737 -1493Q737 -1481 712 -1469Q709 -1482 700 -1507H687Q687 -1505 684.5 -1500.5Q682 -1496 682 -1488Q682 -1466 729 -1419Q763 -1435 788 -1494Q809 -1545 839 -1545Q858 -1545 877 -1518Q879 -1526 887 -1545H929L863 -1189Q878 -1167 880 -1167Q874 -1167 922 -1183Q929 -1121 929 -1087Q929 -1076 921 -1068Q918 -1071 913 -1073.5Q908 -1076 905 -1079Q896 -1043 896 -1005Q896 -958 903 -934Q904 -930 996 -764Q1083 -607 1083 -576ZM870 -1362H863L858 -1344H866ZM858 -1414Q858 -1421 851 -1437.5Q844 -1454 843 -1461Q841 -1470 846.5 -1485.5Q852 -1501 852 -1504Q852 -1510 839 -1523Q819 -1513 813 -1491Q804 -1458 796 -1445Q753 -1400 699 -1310H835Q838 -1325 849 -1369Q858 -1407 858 -1414ZM858 -1329Q855 -1311 845 -1282H690Q695 -1240 702 -1213Q734 -1224 772 -1224Q816 -1224 839 -1209Q853 -1279 858 -1329ZM912 -1105V-1159Q894 -1140 894 -1139Q894 -1123 912 -1105ZM882 -1050V-1082Q885 -1198 798 -1204ZM869 -1016Q869 -1027 823 -1110Q772 -1200 748 -1200Q726 -1200 699 -1181Q729 -1136 774 -1085Q777 -1067 788 -1036Q811 -995 839 -969Q869 -999 869 -1016ZM701 -1140Q692 -1153 676 -1174Q658 -1156 651 -1140ZM615 -1181Q599 -1189 593 -1189Q593 -1168 586 -1168Q588 -1168 594.5 -1163.5Q601 -1159 603 -1159Q615 -1183 615 -1181ZM581 -1169V-1175H566V-1169ZM594 -1129V-1147H587V-1129ZM879 -742V-969Q878 -969 833 -925Q803 -961 760 -1024V-742Q825 -744 848 -744Q871 -744 879 -742ZM1055 -584Q1059 -617 1003 -710Q956 -788 909 -865Q909 -850 905.5 -817.5Q902 -785 902 -780Q902 -752 909 -740Q1001 -584 1001 -581V-330Q1001 -322 996 -311.5Q991 -301 991 -300Q996 -302 1001 -302Q1019 -302 1030.5 -283Q1042 -264 1038 -248Q1045 -260 1045 -266Q1045 -274 1036 -301Q1025 -334 1023 -343ZM243 -1087Q243 -1097 229 -1139Q223 -1110 155 -976Q168 -972 185 -963Q243 -1035 243 -1087ZM156 -912L146 -919V-873L150 -878Q152 -883 156 -912ZM847 -453L814 -604Q822 -642 819 -703L813 -711H736V-1052Q752 -1052 759 -1059Q742 -1096 711 -1096Q706 -1096 694 -1095Q682 -1094 675 -1094Q654 -1094 634 -1100Q632 -1094 617 -1069Q605 -1048 605 -1040Q605 -1010 634 -987Q652 -983 683 -973Q693 -959 693 -944Q693 -900 667 -900Q663 -900 652 -901Q641 -902 634 -902Q599 -902 574 -875Q544 -843 525 -750Q500 -622 494 -605Q474 -547 394 -478Q331 -427 268 -376Q263 -381 254 -380Q266 -367 290 -349Q302 -359 446 -466Q529 -526 559 -574.5Q589 -623 589 -678Q589 -684 578 -701.5Q567 -719 567 -725Q567 -738 614 -832Q617 -829 623.5 -827.5Q630 -826 633 -823Q628 -807 609 -768Q594 -736 594 -730Q594 -723 621.5 -681.5Q649 -640 649 -634Q649 -632 614 -427Q576 -203 563 -99Q558 0 546 183H813Q804 80 810 -120Q814 -225 821 -362Q831 -392 847 -453ZM254 -340Q235 -359 222 -359Q206 -331 217 -316H236Q242 -325 254 -340ZM813 348Q813 348 813 212H754V230Q754 241 755.5 256Q757 271 757 276Q757 309 652 346Q673 346 710 339Q747 332 751 332Q757 332 770.5 340Q784 348 790 348ZM737 264Q737 248 725 212H623Q600 269 600 291Q600 311 612 332Q635 323 674 312Q737 302 737 264ZM590 219L582 212H546Q546 241 532 262Q512 293 465 318Q431 336 397 353H498Q505 353 522 345.5Q539 338 545 338Q550 338 565 342Q577 345 583 342Q583 335 580 306Q577 283 579 269Q584 252 590 219ZM693 -1046Q666 -1046 651.5 -1049Q637 -1052 639 -1052Q639 -1084 666 -1084Q685 -1084 693 -1066Z"/>
</svg>