<svg xmlns="http://www.w3.org/2000/svg" viewBox="0 -2048 2048 2048">
	<path fill="#000000" d="M1237 373L297 371V356Q300 347 305 344Q365 311 485 245Q454 165 387 6Q336 -107 336 -196Q336 -202 337.5 -214Q339 -226 339 -232Q339 -256 322 -295Q309 -325 295 -356Q303 -356 320.5 -354.5Q338 -353 347 -353V-501Q283 -390 170 -390Q176 -390 111 -403L319 -606Q298 -631 254 -669Q229 -672 190 -680Q213 -692 230 -695Q225 -698 197 -698Q185 -698 166 -704Q183 -721 197 -721Q194 -722 167 -722Q158 -722 136 -735Q158 -743 177 -746Q173 -749 149 -749Q135 -749 106 -771Q138 -769 138 -769L149 -770Q134 -785 100 -828Q138 -809 163 -786Q165 -803 174 -826Q187 -809 187 -771Q187 -762 193 -757Q194 -764 195 -812Q195 -811 196 -809Q213 -776 213 -748Q213 -736 219 -730Q220 -753 227 -782Q233 -768 239 -739Q239 -729 244 -709Q246 -725 250 -742L266 -737Q267 -732 267 -701Q267 -682 336 -623Q342 -627 347 -633V-959Q347 -996 316 -996Q313 -987 307 -966Q297 -951 282 -918Q279 -891 268 -838Q263 -822 245 -822Q236 -822 226 -833V-971Q226 -993 250 -1038Q283 -1102 285 -1107Q292 -1126 292 -1231Q306 -1228 331 -1218Q341 -1212 356.5 -1185.5Q372 -1159 372 -1148Q372 -1081 326 -1036Q336 -1032 356 -1023Q366 -1017 379 -994.5Q392 -972 392 -960V-677L551 -819Q564 -741 564 -751Q564 -681 510 -635Q496 -623 397 -565L505 -462L512 -521L558 -385L423 -448L490 -443L392 -534V-350Q413 -346 456 -320Q465 -301 487 -267Q524 -223 724 -25Q719 -141 718 -122L739 -398Q740 -407 700.5 -450Q661 -493 661 -546Q661 -569 747.5 -643Q834 -717 834 -762Q834 -746 832 -803Q805 -806 752 -811Q748 -839 732 -893Q729 -899 706 -927Q685 -951 685 -958Q685 -967 704.5 -1004Q724 -1041 727 -1057Q730 -1065 734 -1083Q739 -1125 739 -1151Q739 -1160 715 -1217Q732 -1221 764 -1226L1050 -1231Q976 -1296 843 -1437Q834 -1449 834 -1487Q834 -1513 860 -1533Q886 -1553 913 -1553Q937 -1553 955.5 -1535Q974 -1517 974 -1493Q974 -1480 956 -1458.5Q938 -1437 925 -1437Q925 -1437 903 -1437Q907 -1447 931 -1466Q951 -1482 951 -1495Q951 -1527 912 -1527Q857 -1527 857 -1469Q857 -1456 879 -1433Q987 -1322 1082 -1235L1176 -1555H1228Q1227 -1553 1125 -1096Q1107 -1014 1057 -857Q1040 -836 1010 -793Q1010 -792 1005 -754Q1040 -735 1042 -733Q1063 -719 1071 -702Q1089 -663 1105 -547Q1118 -445 1118 -388Q1118 -369 1112 -234Q1105 -87 1097 78Q1096 101 1086 155Q1078 204 1078 233Q1078 241 1079 254Q1132 294 1237 373ZM1198 -1529H1192Q1181 -1493 1128 -1313Q1120 -1280 1099 -1215Q1099 -1215 1088 -1203H747Q762 -1169 762 -1145Q762 -1112 754 -1064H942Q1007 -1064 1007 -1014Q1007 -992 997.5 -980.5Q988 -969 978 -958Q971 -928 971 -909Q971 -898 987 -885Q1003 -872 1014 -872Q1023 -872 1038 -877Q1072 -980 1109 -1137Q1139 -1268 1169 -1399Q1183 -1455 1198 -1529ZM346 -1144Q346 -1181 316 -1199V-1189Q316 -1131 308 -1099Q304 -1083 275 -1032Q249 -985 249 -974V-856Q251 -887 272 -950Q279 -961 289 -990Q292 -1012 305 -1017Q298 -1019 287 -1023Q346 -1097 346 -1144ZM541 -751Q541 -749 538 -773L369 -621L399 -590Q426 -594 500 -656Q541 -690 541 -751ZM1169 350Q1111 305 1053 264Q1053 264 1053 247Q1053 217 1062 165Q1073 107 1074 83Q1078 9 1088 -217Q1095 -382 1095 -387Q1095 -440 1083 -541Q1069 -657 1053 -687Q1043 -705 1020 -719Q987 -739 981 -744Q982 -750 982 -773Q982 -796 1025 -851Q1009 -849 1011 -849Q993 -849 970.5 -868.5Q948 -888 948 -906Q948 -936 955 -964Q957 -974 969 -982Q981 -990 981 -1009Q981 -1042 945 -1041L746 -1038Q744 -1031 726 -997Q708 -963 708 -960Q708 -961 740 -921Q758 -899 770 -833Q831 -830 836 -827Q857 -817 857 -764Q857 -715 792 -654Q696 -562 693 -558Q684 -546 684 -543Q684 -499 723 -459Q762 -419 762 -402Q762 -410 754 -326Q741 -189 741 -144V-135Q741 -111 744 -62Q747 -13 747 12V23Q655 -70 467 -253Q442 -277 420 -277Q414 -277 393 -264.5Q372 -252 369 -247Q357 -225 357 -203Q357 -140 372 -89Q390 -47 424 37Q456 110 511 258Q439 299 342 350ZM529 -420L526 -427L524 -422ZM347 -551Q330 -568 319 -575L160 -420Q164 -420 174 -416.5Q184 -413 189 -413Q282 -413 347 -551ZM448 -291Q431 -316 393 -324Q361 -328 328 -333L354 -261Q393 -300 417 -300Q425 -300 448 -291ZM848 -966L839 -967Q820 -967 782 -971Q787 -990 812 -1015Q839 -998 839 -998Q848 -989 848 -966Z"/>
</svg>