<svg xmlns="http://www.w3.org/2000/svg" viewBox="0 -2048 2048 2048">
	<path fill="currentColor" d="M965 374H105L281 279L177 -193Q186 -208 196 -234Q189 -266 183 -311V-340L225 -335V-764L100 -875H368Q306 -821 248 -753L253 -334Q318 -289 386 -202Q503 -50 507 -45Q513 -98 535 -213Q554 -318 554 -322Q554 -329 521.5 -364Q489 -399 489 -420Q489 -439 536 -504Q636 -643 636 -697Q636 -740 615 -749Q607 -752 544 -757Q527 -794 494 -864Q507 -881 556 -976Q590 -1041 625 -1061Q620 -1064 609 -1077Q612 -1081 617 -1088Q621 -1089 636 -1081.5Q651 -1074 658 -1074Q697 -1074 697 -1158Q678 -1169 642 -1191V-1417Q652 -1427 697 -1455Q681 -1486 639 -1518Q636 -1515 628.5 -1509.5Q621 -1504 618 -1501Q606 -1501 598 -1509Q598 -1513 600 -1520Q625 -1540 636 -1540Q655 -1540 710 -1485Q763 -1540 776 -1540Q776 -1540 817 -1522Q817 -1516 813.5 -1510Q810 -1504 810 -1502Q782 -1518 773 -1518Q754 -1518 739 -1488Q727 -1463 729 -1456Q743 -1451 765 -1440Q779 -1359 779 -1310Q779 -1240 765 -1175Q752 -1169 729 -1158Q734 -1136 738 -1114Q752 -1074 776 -1074Q787 -1074 797 -1096Q809 -1084 816 -1084Q816 -1077 795 -1056Q859 -1022 875 -952Q881 -925 888 -754L894 -606Q896 -553 903 -437Q910 -333 910 -328V-287H838L822 226Q822 285 854 304Q958 368 965 374ZM751 -1196V-1412Q715 -1430 710 -1430Q687 -1430 664 -1407V-1207Q687 -1184 708 -1184Q730 -1184 751 -1196ZM720 -1088L712 -1091L706 -1077L713 -1074ZM882 -314V-404Q882 -410 876 -508Q870 -619 868.5 -666.5Q867 -714 861 -804Q861 -806 861 -882Q861 -931 847 -958Q796 -1052 713 -1052Q612 -1052 582 -960Q719 -960 763 -934Q759 -917 741 -889.5Q723 -862 720 -848Q713 -818 713 -715V-552Q713 -474 707 -354L713 -314ZM297 -848H171Q196 -823 240 -790ZM877 347Q848 326 795 286Q794 220 807 -53Q812 -77 817 -101Q826 -147 826 -182Q826 -250 794 -287H690V-820Q691 -831 735 -920Q635 -930 572 -937Q527 -862 527 -858Q527 -850 561 -786Q585 -783 622 -777Q638 -773 652 -738Q664 -709 664 -694Q664 -645 616 -571Q576 -512 536 -454Q516 -421 516 -417Q516 -410 549 -369Q582 -328 582 -322Q582 -315 567 -256Q549 -188 545 -163Q542 -146 536 -32Q536 -20 519 10Q455 -81 318 -245Q310 -253 272 -253Q229 -253 209 -177L308 286Q299 303 209 347ZM280 -282Q253 -302 210 -313Q214 -291 223 -259Q230 -271 250.5 -278Q271 -285 280 -282ZM647 -887Q647 -884 644 -877Q641 -870 641 -867L571 -873Q587 -910 606 -910Q601 -910 647 -887Z"/>
</svg>