<svg xmlns="http://www.w3.org/2000/svg" viewBox="0 -2048 2048 2048">
	<path fill="currentColor" d="M1120 -315Q1101 -317 1065 -312Q1061 -302 1044 -284Q1020 -278 973 -255H943Q944 -277 933 -310H861Q863 -299 863 -287Q863 -264 854 -218.5Q845 -173 845 -150Q845 -111 853 -30.5Q861 50 861 50V294Q861 312 846.5 325.5Q832 339 824 339Q818 339 792.5 331Q767 323 761 323Q754 323 714 331Q674 339 667 339Q640 339 626 337Q625 333 615 323Q583 339 575 339Q561 339 545 323Q529 339 523 339H370V292Q487 240 498 231Q532 205 532 136V-4L570 -305Q558 -314 526 -314Q476 -314 476 -289Q476 -282 482 -264Q488 -246 488 -237V79H462Q462 62 458 58Q440 60 445 79H419V62Q415 58 402 58Q389 58 379 79H354L452 -340Q444 -341 571 -341Q624 -730 624 -692Q624 -705 613 -719Q577 -576 450 -496Q392 -459 240 -343V333Q231 332 192 339V-349Q192 -356 185 -366Q178 -376 177 -381Q174 -395 179 -415Q177 -429 177 -453Q180 -457 192 -469V-1051Q129 -1125 100 -1165Q110 -1179 145 -1192.5Q180 -1206 197 -1206Q230 -1206 268 -1191Q314 -1174 326 -1148Q293 -1118 234 -1056V-465Q235 -465 240.5 -462.5Q246 -460 254 -460Q267 -460 358 -549Q453 -642 476 -686Q492 -717 507 -814Q520 -905 545 -942Q584 -1000 673 -1000V-1018Q654 -1020 620 -1029Q614 -1049 600 -1083Q599 -1085 582 -1104Q570 -1119 570 -1127Q570 -1134 591.5 -1192Q613 -1250 613 -1257Q613 -1274 591 -1306Q604 -1319 616 -1319L818 -1323Q804 -1343 727 -1418Q672 -1471 672 -1503Q672 -1518 701 -1536Q726 -1551 740 -1551Q780 -1551 780 -1511Q780 -1485 752 -1465Q753 -1461 753 -1515Q744 -1524 734 -1524Q725 -1524 712 -1513.5Q699 -1503 699 -1495Q699 -1483 847 -1335Q858 -1370 879.5 -1443Q901 -1516 912 -1551Q924 -1548 936 -1545Q953 -1541 953 -1532Q953 -1529 908 -1305Q883 -1182 835 -1051Q802 -1025 802 -1000Q802 -987 805 -984Q811 -990 821 -990Q846 -990 871 -971Q947 -914 1048 -723Q1072 -678 1072 -641L1040 -393Q1044 -333 1097 -333Q1108 -333 1120 -335ZM897 -1411Q885 -1373 862 -1297H630V-1206H766Q807 -1206 807 -1170Q807 -1163 793.5 -1135Q780 -1107 780 -1100Q780 -1084 811 -1071Q845 -1153 897 -1411ZM959 -653L869 -800Q845 -763 845 -679Q845 -672 861.5 -595Q878 -518 878 -511Q878 -498 868.5 -456Q859 -414 859 -391Q859 -355 879 -336H930Q957 -383 957 -431Q957 -415 948 -549Q947 -558 955 -588.5Q963 -619 963 -634Q963 -646 959 -653ZM1045 -622Q1045 -694 981 -799Q920 -901 849 -955Q838 -963 816 -965Q788 -968 784 -969Q773 -978 773 -993Q773 -1006 781 -1026.5Q789 -1047 789 -1051Q765 -1059 755 -1085Q753 -1093 753 -1100Q753 -1113 763 -1139Q772 -1162 769 -1178Q739 -1184 688 -1184Q636 -1184 630 -1183Q602 -1175 602 -1135Q602 -1129 619 -1098Q638 -1064 641 -1050Q664 -1055 700 -1041V-972L695 -968Q666 -968 635 -966.5Q604 -965 583 -943Q555 -914 530 -815Q497 -683 492 -669Q468 -607 387 -534Q322 -480 256 -425L275 -406Q379 -480 482.5 -556Q586 -632 586 -730Q586 -736 575 -761Q564 -786 564 -792Q564 -801 612 -891Q616 -892 635 -898V-869Q635 -864 613 -832.5Q591 -801 591 -795Q591 -788 615 -754Q643 -714 651 -697L597 -337H839V-404Q839 -457 836 -446Q840 -460 846 -484Q847 -487 851.5 -495.5Q856 -504 856 -511Q856 -518 837 -601.5Q818 -685 818 -692Q818 -731 832 -773Q849 -829 879 -833Q991 -679 991 -649Q991 -643 984 -610.5Q977 -578 976 -566Q981 -515 984 -425Q982 -364 959 -338Q979 -329 975 -318Q965 -308 965 -304Q970 -304 982.5 -298.5Q995 -293 1002 -293Q1011 -293 1022.5 -302.5Q1034 -312 1034 -320Q1034 -327 1023.5 -357.5Q1013 -388 1013 -393Q1013 -400 1029 -507.5Q1045 -615 1045 -622ZM294 -1155Q251 -1179 205 -1179Q190 -1179 138 -1166Q141 -1155 168 -1118Q199 -1076 210 -1076Q215 -1076 294 -1155ZM839 144L832 137Q835 75 832 7Q824 -177 825 -187Q826 -199 832.5 -225.5Q839 -252 839 -257V-314H598L564 -117V1Q564 -10 557 34Q552 61 564 144ZM245 -404Q227 -422 215 -422Q197 -404 197 -393Q197 -383 207 -376Q214 -372 221 -368Q245 -392 245 -404ZM460 31V-239L392 31ZM828 312Q828 312 828 173H765Q778 231 773 244Q759 281 717 295Q686 303 656 310Q678 310 723 303Q768 296 772 296Q762 296 828 312ZM748 226Q748 208 736 172H636Q613 241 613 256Q613 279 620 291Q653 284 687 277Q748 259 748 226ZM607 173H554Q556 225 497 266Q447 301 397 304L519 312Q551 296 551 296Q558 296 562 304Q566 312 573 312H591V271Q591 218 607 173ZM693 -1137Q678 -1124 640 -1143Q667 -1168 670 -1168Q678 -1168 684.5 -1165Q691 -1162 693 -1162Z"/>
</svg>