<svg xmlns="http://www.w3.org/2000/svg" viewBox="0 -2048 2048 2048">
	<path fill="currentColor" d="M1062 364H106Q106 361 103 351.5Q100 342 100 339Q164 316 293 262L150 -366Q180 -366 197 -363.5Q214 -361 211 -361Q221 -372 221 -417Q221 -467 205 -484Q183 -509 106 -522V-543H146Q151 -543 217 -510Q221 -558 221 -708Q221 -886 219 -903Q218 -915 197.5 -930Q177 -945 168 -945Q161 -945 129 -929L116 -942Q147 -973 174 -973Q186 -973 212 -955Q238 -937 246 -916Q243 -923 243 -887L247 -526Q282 -537 350 -554H369V-527Q323 -529 286 -510Q243 -489 243 -450Q243 -445 246 -412Q249 -379 249 -366Q274 -360 314 -337Q386 -245 536 -59L562 -370Q562 -391 547 -418Q501 -500 501 -518Q501 -531 568 -586Q643 -647 670 -718Q670 -719 672 -782Q636 -789 575 -821Q553 -843 524.5 -890Q496 -937 496 -948Q496 -957 556 -1071.5Q616 -1186 641 -1224Q675 -1275 739 -1322Q776 -1341 836 -1395Q839 -1419 850 -1471Q862 -1511 894.5 -1539Q927 -1567 958 -1567Q991 -1567 1010 -1533Q1024 -1506 1024 -1479Q1024 -1480 975 -1333L1002 -1124Q985 -1030 923 -870Q906 -842 889 -813Q859 -764 859 -747Q859 -725 870 -716Q891 -698 906 -674Q964 -579 964 -342L925 244Q925 251 987 297Q1053 345 1062 364ZM997 -1471Q997 -1534 950 -1534Q887 -1534 872 -1455Q870 -1431 863 -1395Q851 -1369 804 -1334Q769 -1309 734 -1284Q630 -1201 601 -1094H789Q802 -1080 799 -1056Q843 -1048 843 -1008Q843 -1001 829 -963Q815 -925 815 -917Q815 -857 876 -857Q888 -857 919 -928Q946 -989 956 -1024Q963 -1049 975 -1127L947 -1344Q997 -1477 997 -1471ZM1002 335Q966 310 897 263Q936 -77 936 -312Q936 -553 906 -619Q886 -664 855 -691Q837 -707 837 -747Q837 -782 838 -787Q860 -803 870 -834Q839 -832 813.5 -862Q788 -892 788 -917Q788 -914 821 -1015Q816 -1019 812 -1025Q802 -1025 786 -1028Q781 -1044 770 -1071H591L529 -948Q542 -911 581 -848Q601 -828 684 -811Q700 -782 700 -741Q700 -674 596 -577Q529 -514 529 -513Q529 -507 559 -445.5Q589 -384 589 -378L568 -144V-14Q553 -14 548 -9Q482 -90 417 -170Q322 -279 281 -279Q255 -279 236 -256Q217 -233 221 -199L320 273Q299 297 188 335ZM319 -297Q296 -324 249 -333Q213 -339 177 -344Q183 -315 204 -263Q211 -273 243.5 -290Q276 -307 284 -307Q301 -307 319 -297ZM738 -953Q659 -951 623 -957Q632 -973 646 -1000Q687 -984 738 -953Z"/>
</svg>