<svg xmlns="http://www.w3.org/2000/svg" viewBox="0 -2048 2048 2048">
	<path fill="currentColor" d="M1298 -1137Q1298 -1127 1282.5 -1106.5Q1267 -1086 1253 -1081Q1217 -1067 1153 -1059Q1071 -1049 1046 -1043Q1046 -1031 1061 -1027Q1083 -1022 1089 -1017Q1161 -961 1161 -877Q1161 -809 1106.5 -715.5Q1052 -622 1052 -609Q1052 -606 1083 -476Q1107 -375 1107 -149Q1107 9 1103 61Q1092 179 1052 285L1216 381H315Q303 371 303 361Q390 322 461 279Q416 136 342 -151Q347 -169 349 -201Q337 -247 308 -305Q308 -313 330 -323L282 -544Q249 -522 172 -467Q164 -493 149 -542Q182 -549 241 -569V-576Q193 -620 145 -663Q100 -711 100 -754Q100 -855 201 -855Q249 -855 282 -812Q310 -775 316 -727Q319 -703 309 -611Q306 -598 311 -587Q352 -620 404 -647Q416 -632 444 -600Q358 -579 313 -556Q345 -474 429 -318Q477 -248 562 -151Q692 -2 702 10L705 5Q713 -140 720 -286Q739 -460 808 -564Q819 -580 866 -602V-638Q851 -640 820 -648Q807 -626 765 -527Q731 -555 713 -567Q773 -657 773 -669Q773 -675 748.5 -718.5Q724 -762 724 -768Q724 -778 756 -852Q793 -936 824 -985Q842 -1013 888 -1035Q889 -1052 868 -1052H716Q695 -1052 667 -1071Q636 -1093 636 -1116V-1155Q637 -1162 650 -1162Q657 -1162 698.5 -1134.5Q740 -1107 748 -1107Q753 -1107 783 -1114Q813 -1121 830 -1122Q830 -1122 932 -1122Q890 -1163 823 -1169L883 -1404Q859 -1414 836 -1424Q817 -1433 817 -1460Q817 -1488 851 -1510Q880 -1529 901 -1529Q925 -1529 941 -1512Q960 -1488 978 -1463Q1014 -1529 1052 -1529Q1069 -1529 1094 -1511Q1123 -1491 1123 -1471Q1123 -1459 1074 -1402L1128 -1152Q1082 -1158 1030 -1131V-1126Q1042 -1127 1073 -1131Q1100 -1135 1107 -1135Q1113 -1135 1135 -1129.5Q1157 -1124 1164 -1124Q1171 -1124 1219 -1142.5Q1267 -1161 1274 -1161H1298ZM1101 -1179L1041 -1421Q1060 -1429 1096 -1453V-1478Q1065 -1507 1052 -1507Q1041 -1507 1013.5 -1472.5Q986 -1438 987 -1427V-1135Q1031 -1171 1101 -1179ZM958 -1129V-1439Q959 -1449 934.5 -1478Q910 -1507 896 -1507Q875 -1507 844 -1472V-1448Q871 -1439 915 -1421L855 -1191Q881 -1180 908 -1170Q940 -1154 958 -1129ZM1260 -1122Q1182 -1096 1159 -1096Q1153 -1096 1123.5 -1101.5Q1094 -1107 1088 -1107Q1057 -1107 1023 -1085Q998 -1069 973 -1052Q914 -1102 855 -1102Q848 -1102 802 -1093.5Q756 -1085 751 -1085Q712 -1085 664 -1109Q693 -1084 793 -1082Q889 -1080 923 -1042Q919 -1041 997 -1041Q1013 -1041 1017 -1048Q1023 -1059 1030 -1062.5Q1037 -1066 1100 -1076Q1163 -1086 1182 -1091Q1231 -1102 1260 -1122ZM1140 -877Q1140 -1020 970 -1020Q940 -1020 924 -1017Q908 -1014 873 -995Q859 -987 831 -951Q801 -912 801 -896V-883Q801 -883 1003 -883Q1057 -883 1057 -847Q1057 -840 1038 -796.5Q1019 -753 1019 -746Q1019 -713 1066 -697Q1140 -777 1140 -877ZM775 -608H767L749 -573L757 -570ZM1118 358Q1081 334 1014 291Q1085 220 1085 -155Q1085 -374 1061 -470Q1030 -594 1030 -617Q1030 -663 1047 -672Q992 -711 992 -746Q992 -753 1011 -794Q1030 -835 1030 -842Q1030 -855 1023 -858H790Q785 -845 766 -807Q751 -776 751 -768Q751 -760 773 -726Q801 -682 807 -671Q836 -670 888 -660V-585Q867 -573 846 -561Q817 -543 802 -515Q790 -493 768 -413Q745 -329 745 -299V-164Q745 -144 722 55Q719 57 710 64Q636 -29 488 -206Q461 -237 422 -237Q400 -237 387 -204Q377 -179 368 -155L494 296L384 358ZM274 -604V-705Q275 -725 257 -761Q235 -806 204 -806Q149 -806 149 -746Q149 -720 197 -674Q236 -639 274 -604ZM395 -320L331 -456Q339 -407 352 -320ZM214 -531H194Q183 -522 183 -511Q207 -523 214 -531ZM444 -260Q441 -266 415 -291H341Q351 -267 365 -226Q390 -264 417 -264Q423 -264 432.5 -262Q442 -260 444 -260ZM877 -793Q877 -790 874 -783.5Q871 -777 871 -774Q801 -774 801 -774V-804Q825 -828 836 -828Q842 -828 877 -793Z"/>
</svg>