<svg xmlns="http://www.w3.org/2000/svg" viewBox="23.3 -1618.7 745.4 2071.4">
	<path fill="currentColor" d="M692 -1542Q684 -1500 621 -1437V-1209Q636 -1196 658 -1165Q671 -1133 671 -1088V-734Q658 -734 650 -724Q644 -676 644 -664Q644 -657 663 -562.5Q682 -468 682 -461Q682 -471 661 -389Q656 -371 650 -269Q637 -61 647 5Q653 43 645 175Q644 184 639 199Q639 205 646 277Q651 327 641 358Q635 376 616 376Q609 376 595.5 370.5Q582 365 575 365Q568 365 566.5 370Q565 375 558 375H408Q414 362 414 328Q459 324 496 304Q545 279 545 241V210Q534 206 487 206Q459 206 433 208Q415 224 411 279Q407 343 400 358Q392 376 372 376Q366 376 348.5 370.5Q331 365 325 365Q318 365 312.5 370.5Q307 376 300 376H145V328Q219 304 227 301Q276 280 307 245Q316 235 326 169Q336 106 336 71V-83L413 -555L409 -563Q401 -563 378.5 -557.5Q356 -552 350 -552Q326 -552 320 -555Q303 -563 289 -601Q282 -597 244 -565Q222 -546 199 -546Q170 -546 150 -589Q136 -620 134 -648Q136 -744 131 -939Q131 -945 115.5 -968Q100 -991 100 -999Q100 -1005 103.5 -1020.5Q107 -1036 107 -1045L145 -1040Q145 -1040 145 -1133H181Q190 -1107 202 -1060Q199 -1028 199 -966Q209 -888 230 -722Q245 -740 276 -775V-949Q276 -935 243 -1050Q262 -1059 286 -1062Q286 -1036 301 -1013Q309 -1011 312 -1016Q311 -1052 303 -1126Q309 -1130 321 -1139H351Q369 -1024 367 -1010Q353 -929 353 -947Q353 -918 366 -898Q379 -922 452 -935V-965Q435 -970 403 -982Q400 -995 387 -1027Q375 -1055 375 -1062Q375 -1077 415 -1139Q452 -1198 468 -1214V-1443Q402 -1489 402 -1526Q402 -1529 408 -1542ZM660 -1517L436 -1523Q435 -1503 481.5 -1475Q528 -1447 559 -1447Q578 -1447 613.5 -1469.5Q649 -1492 660 -1517ZM593 -1338V-1430Q560 -1419 545 -1419Q545 -1419 497 -1435V-1222Q513 -1226 539 -1234V-1338ZM593 -1228V-1314H562V-1233ZM648 -761V-1071Q648 -1117 627 -1154Q599 -1205 545 -1205Q455 -1205 441 -1135Q594 -1135 594 -1073Q594 -1051 551 -1022V-761ZM344 -1008V-1067H334V-1008ZM567 -1082Q531 -1106 514 -1106H431Q429 -1099 418.5 -1083Q408 -1067 408 -1060Q408 -1061 431 -998Q461 -996 472 -987Q473 -976 476 -951.5Q479 -927 479 -922Q479 -912 476 -909Q472 -912 464 -912Q437 -912 405 -891Q369 -869 369 -845Q369 -823 382 -777Q396 -806 428 -859Q437 -859 446 -850Q440 -830 414 -779Q391 -733 391 -727Q391 -719 394.5 -716Q398 -713 398 -711L523 -822V-1036Q559 -1059 567 -1082ZM561 -731Q535 -729 522 -737V-788Q449 -715 372 -656Q369 -659 365 -660.5Q361 -662 358 -665Q354 -727 350 -789Q345 -866 325 -934Q321 -948 335 -990Q334 -990 307 -988Q287 -988 287 -980Q287 -967 290 -971Q294 -965 301 -954Q302 -948 300 -940Q298 -932 298 -927V-758Q298 -574 350 -574Q390 -574 467 -643Q514 -687 561 -731ZM280 -636V-733Q256 -708 208 -667L199 -676V-824Q199 -855 170 -985Q144 -985 134 -990Q155 -948 155 -949V-709Q155 -683 166 -636Q181 -574 202 -574Q280 -612 280 -636ZM655 -461Q655 -463 637.5 -540Q620 -617 618 -653Q617 -674 623 -732Q544 -680 519 -661Q458 -616 448 -594Q441 -577 413 -426Q385 -268 373 -170Q369 -136 362 -72Q363 -32 362 44Q359 95 348 180H615Q628 95 625 49Q618 6 611 -71Q610 -192 629 -345Q632 -366 644 -413Q655 -456 655 -461ZM621 342Q621 198 620 207H573Q568 250 562 266Q551 303 523.5 314Q496 325 446 348H547Q554 348 561.5 340Q569 332 575 332Q580 332 600 339Q617 345 621 342ZM401 207H348Q340 256 279 299Q225 337 171 346L284 354Q290 352 310 341Q325 332 333 332Q339 332 351 340.5Q363 349 369 349Q377 349 386 295Q399 214 401 207ZM484 -1047H436V-1078Q442 -1078 454 -1090Q464 -1083 484 -1066Z"/>
</svg>