<svg xmlns="http://www.w3.org/2000/svg" viewBox="0 0 514 1000">
  <g transform="scale(1,-1) translate(0,-1000)">
    <path d="M351 1000Q356 992 356 992Q356 992 356 988Q356 986 356 983L355 980Q360 976 389.0 960.0Q418 944 425 937Q434 928 438.5 914.0Q443 900 445.0 883.0Q447 866 450 858Q454 844 459.0 830.5Q464 817 467 810L470 803Q470 798 466 798Q455 798 433 856Q429 867 425.5 885.5Q422 904 416 916Q413 923 398 932Q397 932 393.0 934.5Q389 937 387.0 939.0Q385 941 364.5 951.5Q344 962 339 969Q333 961 300.5 944.0Q268 927 262 916Q260 912 252.0 880.5Q244 849 234.0 824.0Q224 799 213 799H211Q208 799 208 803Q208 806 210.0 810.0Q212 814 216.5 823.0Q221 832 224 843Q224 845 226.0 849.5Q228 854 229 858Q232 867 234.5 889.0Q237 911 244.0 925.0Q251 939 270 950Q276 954 280 956Q287 961 301.5 967.0Q316 973 323 980Q323 980 322.5 983.0Q322 986 322 988V992Q322 1000 330 1000ZM337 874Q329 874 323.5 867.5Q318 861 318 853Q318 844 324.0 838.0Q330 832 339.0 832.0Q348 832 354.0 838.0Q360 844 360.0 853.0Q360 862 353.0 868.0Q346 874 337 874ZM375 832Q403 797 403 793Q403 786 397 786H396Q393 786 356 816Q355 816 353.5 815.0Q352 814 351 814L353 786Q409 786 430 754Q432 777 453 777Q468 777 486.0 763.5Q504 750 504 728Q504 709 489 703Q514 672 514 635Q514 632 513.5 626.0Q513 620 513 617Q514 604 514 604Q514 588 498.0 588.0Q482 588 482 617V636Q482 664 460 689Q454 695 448 704H444Q457 629 457 522Q457 522 456.5 494.5Q456 467 456 466Q456 432 457.0 406.5Q458 381 459.0 369.5Q460 358 460 357Q460 341 444 341L407 342Q419 268 419 243Q419 203 408.0 158.0Q397 113 397 98Q397 78 435.5 52.5Q474 27 474 17Q474 10 469.5 5.0Q465 0 458 0H16Q0 0 0 16Q0 26 13.5 33.0Q27 40 48.0 50.0Q69 60 82 73Q86 77 86 81Q86 82 85.5 83.0Q85 84 84.0 87.5Q83 91 82 97Q76 130 49.0 203.0Q22 276 22 330Q22 349 37.5 363.5Q53 378 74 378Q87 378 100 371Q147 340 193 270Q195 267 202.5 255.5Q210 244 215 238Q215 238 222.5 265.5Q230 293 237.5 321.5Q245 350 245 354Q245 371 227.0 391.0Q209 411 209 424Q209 434 216 444Q229 461 243.0 471.0Q257 481 269 505Q269 506 272.0 511.5Q275 517 277.5 522.0Q280 527 282.0 535.5Q284 544 284 552Q284 567 278.0 574.0Q272 581 263.5 582.0Q255 583 242.0 588.5Q229 594 219 604Q197 626 197 657Q197 703 235.0 740.0Q273 777 325 784L327 814Q321 816 319 817Q284 789 281 789Q274 789 274 796Q275 799 275 799V800L302 835Q302 836 301.0 838.0Q300 840 300 841Q262 845 255.5 846.5Q249 848 249 853Q249 856 251.5 858.0Q254 860 255 860L300 866L303 872L274 907Q273 909 273 912Q273 918 280 918Q285 918 285 918L320 890Q321 890 323.0 891.0Q325 892 326 892Q330 930 331.5 936.5Q333 943 338 943Q341 943 343.0 940.5Q345 938 345 937L350 892Q356 890 358 889L391 916H393Q394 916 394 916L396 917Q402 917 402 910V907V906L376 871Q376 870 377.0 867.5Q378 865 379 863Q386 862 398 861Q419 859 423.0 858.0Q427 857 427 853V852Q427 849 424.5 846.5Q422 844 421 844L378 839Q377 837 376.0 835.0Q375 833 375 832ZM471 733Q469 737 464 741Q466 734 471 733ZM424 466Q424 467 424 495L425 523Q425 627 410 704H391Q396 697 396 684Q396 665 389.0 646.0Q382 627 373.5 612.5Q365 598 364 596L362 375L427 374Q424 425 424 466ZM332 598Q332 604 348.0 634.5Q364 665 364 684Q364 685 358.0 687.5Q352 690 336.5 692.5Q321 695 302 695Q295 695 286.5 694.5Q278 694 270.5 693.5Q263 693 257.0 692.5Q251 692 247 692L243 691Q240 691 238 692Q229 671 229 656Q229 640 244 625Q247 622 270.5 614.0Q294 606 304 592Q316 574 316 552Q316 526 298 490Q284 463 267.0 449.5Q250 436 241 424Q242 422 253.0 409.5Q264 397 270 386Q277 373 277 354Q277 342 256.0 262.0Q235 182 227 182Q215 182 196.0 210.0Q177 238 146.5 279.5Q116 321 82 344Q80 346 76 346Q68 346 61.0 341.0Q54 336 54 330Q54 278 85.5 196.0Q117 114 117 82Q117 55 83 32L407 33Q365 62 365 99Q365 117 375.5 162.0Q386 207 386 244Q386 273 374 342L345 343Q329 343 329 359ZM262.0 654.5Q255 659 255.0 666.0Q255 673 262.0 677.5Q269 682 277.0 682.0Q285 682 292.5 677.5Q300 673 300.0 666.0Q300 659 292.5 654.5Q285 650 277.0 650.0Q269 650 262.0 654.5ZM356 735H403Q393 752 355 753ZM322 735 323 752Q303 749 281 735Z" fill="currentColor"/>
  </g>
</svg>