<svg xmlns="http://www.w3.org/2000/svg" viewBox="0 0 628 1000">
  <g transform="scale(1,-1) translate(0,-1000)">
    <path d="M246 728Q282 790 282 791Q264 812 264 839Q264 854 269.0 867.0Q274 880 278.5 886.0Q283 892 294 905Q327 948 376 949H377Q408 949 439.5 923.5Q471 898 471 862Q471 861 470.5 858.5Q470 856 470 854Q468 837 456.0 824.0Q444 811 430.5 802.0Q417 793 415 790Q416 789 417.5 786.0Q419 783 420 782Q422 765 427.0 744.5Q432 724 436 712L439 699Q463 590 463 492Q463 446 438.5 372.5Q414 299 410 211Q407 151 407 85V84Q407 84 406 82V80H541V834Q540 845 530.0 860.0Q520 875 515 889Q506 907 504 908Q503 908 499.0 909.0Q495 910 491.5 911.0Q488 912 486 914Q483 917 483 921V922Q483 927 486.0 929.0Q489 931 508 936Q388 970 269 970Q254 970 220 968Q206 967 197.0 952.0Q188 937 177.5 917.5Q167 898 152 889Q148 887 144 887L69 889Q63 889 58.5 893.5Q54 898 54.0 904.0Q54 910 58.5 914.5Q63 919 69 919L139 917Q146 923 156.0 943.5Q166 964 180.5 980.0Q195 996 218 998Q235 1000 269 1000Q412 1000 557 952Q566 949 568 941Q576 939 594.5 934.0Q613 929 619 927Q628 925 628.0 917.0Q628 909 616 906L603 903Q598 899 596.0 895.0Q594 891 590.0 882.0Q586 873 579 861Q569 845 569 832V80H610Q616 80 620.5 75.5Q625 71 625 65V15Q625 9 620.5 4.5Q616 0 610 0H15Q9 0 4.5 4.5Q0 9 0 15V65Q0 71 4.5 75.5Q9 80 15 80H67Q63 84 63 89Q63 93 89 152V507Q74 511 74 527Q74 540 89 544V596Q79 608 79 622Q79 635 89 647V742Q79 734 76 728Q73 723 58 675Q57 683 53.0 700.5Q49 718 49 728Q49 742 64.5 766.0Q80 790 91 824Q92 829 93.0 834.0Q94 839 94.5 845.0Q95 851 96 855Q97 852 107.0 839.5Q117 827 117 817V812Q117 790 105 763Q121 757 121 752V644Q123 643 125.5 641.0Q128 639 130.5 637.5Q133 636 136 635L302 647Q309 682 313 694L329 767Q324 770 319.5 778.0Q315 786 313 787Q310 782 300.5 766.0Q291 750 283.0 739.0Q275 728 264 717Q260 715 259 715Q254 715 250.0 719.5Q246 724 246 728ZM30 50V30H595V50ZM291 525Q267 523 225.5 520.5Q184 518 155.5 516.0Q127 514 121 513V152L145 93Q146 91 146 89Q146 86 142 80H213Q213 80 212 82V84Q212 109 231.5 122.5Q251 136 274.5 140.0Q298 144 317.5 158.5Q337 173 337 199Q337 211 327.5 276.0Q318 341 306.0 418.0Q294 495 291 525ZM324 497Q324 496 328.5 471.5Q333 447 339.0 409.5Q345 372 351.0 332.0Q357 292 361.5 255.0Q366 218 366 200Q366 165 343 142Q326 125 290.5 114.0Q255 103 249 99H378Q378 195 382.0 236.0Q386 277 399 342Q399 343 416.5 393.5Q434 444 434 491Q434 501 432.5 532.0Q431 563 425.5 616.0Q420 669 411 696Q409 711 407 730Q387 718 364 718Q354 718 342 721L337 692Q320 591 320 589Q318 575 318 571Q320 571 323.0 571.5Q326 572 327 572Q338 586 354.5 611.0Q371 636 382.0 651.0Q393 666 400 666Q415 666 415 645Q415 633 410.5 619.5Q406 606 401 599L396 592Q383 576 376.5 569.0Q370 562 358.0 552.0Q346 542 334 531Q331 529 320 528Q320 523 321.5 513.0Q323 503 324 497ZM313 807Q324 807 333.0 793.5Q342 780 360 780Q368 780 373.5 781.5Q379 783 381.5 784.0Q384 785 388.0 788.5Q392 792 394 793Q389 805 384 808Q384 808 380.5 808.5Q377 809 374.0 810.5Q371 812 367.0 813.5Q363 815 361.0 818.5Q359 822 359 826Q359 834 372.5 842.0Q386 850 386 854Q385 871 304 886Q284 863 284 839Q284 833 287.0 824.0Q290 815 294 810L297 804Q306 807 313 807ZM299 853Q299 863 314 863Q328 863 328 853Q328 842 314 842Q299 842 299 853ZM549 922Q541 922 523 918Q529 910 533.0 898.0Q537 886 547 872Q553 864 555 860Q555 861 569.0 886.5Q583 912 585 915Q564 921 553 922ZM83 80H126Q126 80 125.0 82.0Q124 84 123 84L103 119L86 84Q86 84 85.0 82.0Q84 80 83 80ZM121 597V542Q122 542 125.0 542.5Q128 543 130 543Q168 549 220.5 556.5Q273 564 289 566Q291 584 295 608L134 601Q124 598 121 597ZM405 809Q447 835 449 857V862Q449 892 424.5 912.5Q400 933 377 933Q358 933 343.0 925.0Q328 917 322 909L317 901Q319 901 326.5 899.5Q334 898 336.5 897.5Q339 897 345.5 895.5Q352 894 355.0 892.5Q358 891 363.5 889.5Q369 888 372.5 886.0Q376 884 381.0 881.0Q386 878 390.5 874.5Q395 871 399 867Q404 862 404 854Q402 845 402 845Q402 842 396.5 838.0Q391 834 385 830L379 827Q380 826 387.5 824.0Q395 822 398 819Q399 818 405 809ZM405 746Q404 750 403.0 759.0Q402 768 401 773Q385 760 360 760Q352 760 348 761L344 736Q352 733 363 733Q384 733 405 746Z" fill="currentColor"/>
  </g>
</svg>