<svg xmlns="http://www.w3.org/2000/svg" viewBox="25 -1595 1239.9 2023.9">
	<path fill="currentColor" d="M1190 -1405Q1190 -1399 1182 -1341Q1181 -1333 1172 -1316.5Q1163 -1300 1163 -1293Q1163 -1286 1173.5 -1191.5Q1184 -1097 1184 -1090Q1184 -1086 1178.5 -1048.5Q1173 -1011 1173 -992Q1169 -988 1019 -982Q1092 -930 1102 -790Q1127 -442 1125 -385V-352Q1078 -359 1034 -353V262L1184 354H345L496 270Q500 267 500 258L383 -290H416Q420 -295 420 -301L324 -752L316 -761L232 -264Q221 -277 192 -296Q179 -298 179 -275Q161 -271 155 -288.5Q149 -306 139 -306Q126 -306 119 -286Q116 -286 109.5 -289Q103 -292 100 -292L316 -878L446 -295Q467 -297 505 -282Q573 -201 716 -34L741 -280Q741 -318 719.5 -351Q698 -384 698 -413Q698 -437 770 -510Q842 -583 842 -622Q842 -667 812 -673Q789 -675 747 -683Q698 -777 698 -785Q698 -816 743 -892Q780 -953 805 -983Q802 -986 618 -986Q606 -1159 607 -1181Q608 -1195 632 -1309Q632 -1311 626 -1320.5Q620 -1330 619 -1336Q618 -1342 618 -1408Q618 -1500 647 -1520Q652 -1517 667 -1511.5Q682 -1506 687 -1503Q681 -1465 670 -1385Q670 -1385 679 -1376Q688 -1389 698 -1433Q705 -1437 719 -1437Q734 -1437 746 -1433V-1394Q746 -1387 727 -1354.5Q708 -1322 708 -1315V-1070Q743 -1072 808 -1071Q825 -1070 866 -1062Q903 -1055 909 -1055Q910 -1055 973 -1062.5Q1036 -1070 1068 -1070Q1067 -1107 1068 -1181Q1069 -1196 1076 -1235Q1083 -1270 1083 -1277Q1083 -1284 1072 -1329Q1061 -1374 1061 -1381Q1061 -1397 1073 -1445H1103Q1108 -1421 1123 -1370Q1133 -1381 1133 -1406Q1133 -1422 1127 -1459.5Q1121 -1497 1121 -1514Q1146 -1512 1161 -1520Q1190 -1428 1190 -1405ZM1152 -1019Q1156 -1067 1150 -1197Q1150 -1205 1143 -1257Q1139 -1293 1143 -1302Q1158 -1338 1159 -1395Q1161 -1450 1149 -1480Q1149 -1463 1154 -1433Q1159 -1403 1159 -1389Q1159 -1365 1148 -1348H1098Q1098 -1374 1084 -1397V-1368Q1083 -1361 1096.5 -1322Q1110 -1283 1110 -1277Q1110 -1270 1102 -1232.5Q1094 -1195 1093 -1186Q1097 -1128 1095 -1038Q1047 -1050 1032 -1050Q1025 -1050 964 -1039Q903 -1028 896 -1028Q890 -1028 839.5 -1039Q789 -1050 783 -1050Q794 -1050 692 -1033L687 -1314Q704 -1347 712 -1381Q703 -1353 697 -1349Q696 -1349 679 -1349Q655 -1349 651 -1370Q650 -1373 650 -1408Q650 -1413 651.5 -1443Q653 -1473 653 -1488Q639 -1460 639 -1408Q639 -1408 648 -1359Q656 -1315 653 -1293Q633 -1161 640 -1008H923Q918 -993 914 -992Q811 -982 779 -901H956Q992 -852 992 -838Q992 -823 944 -792V-382H1098V-438Q1101 -523 1070 -849Q1066 -892 1024 -935.5Q982 -979 933 -994V-1009L937 -1012Q1145 -1012 1152 -1019ZM1093 328Q1062 311 1030 294Q1008 280 1008 242L1027 -138L1007 -355H917V-795Q935 -810 965 -838Q959 -850 948 -873H774Q725 -810 725 -782Q725 -777 742 -748Q761 -716 763 -703Q816 -704 836 -692Q864 -676 864 -625Q864 -557 763 -467Q749 -456 734 -444Q719 -432 719 -416Q719 -401 743 -361.5Q767 -322 767 -285Q767 -224 749 -96Q749 -64 750 -32Q749 11 728 20Q532 -216 495 -216Q479 -216 436 -152L532 278Q502 296 447 328ZM279 -707L137 -335Q166 -326 216 -312ZM505 -244Q494 -255 494 -263H415Q422 -242 432 -205Q483 -240 505 -244ZM853 -807Q847 -798 847 -793H785L773 -806Q801 -836 813 -836Q832 -836 853 -807Z"/>
</svg>