<svg xmlns="http://www.w3.org/2000/svg" viewBox="0 -2048 2048 2048">
	<path fill="#000000" d="M1202 -698Q1199 -698 1189.5 -695Q1180 -692 1177 -692Q1131 -788 1111 -899Q1097 -976 1078 -1051Q1071 -1090 1063 -1128Q1049 -1174 1010 -1189Q978 -1201 910 -1201H497Q465 -1201 419 -1225Q369 -1252 364 -1282Q363 -1288 367.5 -1305.5Q372 -1323 372 -1330Q372 -1343 360 -1343Q353 -1343 319.5 -1335Q286 -1327 279 -1327Q257 -1327 223 -1340Q179 -1357 179 -1382Q179 -1411 218 -1429Q249 -1443 276 -1443Q282 -1443 324 -1431Q372 -1418 392 -1414Q439 -1405 439 -1361Q439 -1351 435 -1328Q431 -1305 432 -1294Q445 -1276 469 -1274Q493 -1274 516 -1274Q528 -1318 558 -1394Q566 -1413 606 -1450Q651 -1490 676 -1490H1081L1034 -1263Q1050 -1256 1079 -1235Q1112 -1198 1126 -1140Q1134 -1094 1141 -1047Q1141 -1045 1165 -869Q1178 -767 1202 -698ZM1024 340H100L273 244L174 -217Q187 -319 276 -319Q307 -319 325 -301Q387 -226 511 -78L541 -374Q541 -386 522 -431Q517 -442 496 -481Q478 -512 478 -519Q478 -533 548 -602Q623 -678 639 -717Q651 -747 651 -760Q651 -802 610 -804Q548 -807 547 -808Q541 -823 513 -872Q489 -914 489 -920Q489 -926 505 -956Q525 -994 529 -1005Q542 -1038 556 -1071Q577 -1113 616 -1141Q630 -1151 716 -1180H752Q906 -1150 933 -1005Q940 -969 949 -695Q950 -656 954 -574Q954 -534 960 -451H880L871 -446Q871 -395 876.5 -288Q882 -181 882 -185L861 229Q861 251 1024 340ZM1050 -1469H691Q646 -1469 594 -1398Q547 -1335 547 -1303V-1275H635Q646 -1390 830 -1390L1033 -1380Q1043 -1421 1050 -1469ZM1023 -1352L814 -1364Q678 -1364 657 -1275H952Q979 -1274 1007 -1265Q1010 -1278 1015 -1308.5Q1020 -1339 1023 -1352ZM1147 -877V-896H1137V-877ZM1137 -897V-918Q1120 -1005 1109 -1089Q1103 -1136 1095 -1161Q1081 -1205 1055 -1224Q1029 -1243 1021 -1243H502Q472 -1243 434 -1255Q422 -1259 411 -1273Q413 -1312 408 -1373Q406 -1378 349.5 -1397.5Q293 -1417 276 -1417Q255 -1417 211 -1395Q205 -1389 205 -1376Q241 -1354 281 -1354Q288 -1354 324 -1359Q360 -1364 365 -1364Q399 -1364 399 -1339Q399 -1330 394 -1311.5Q389 -1293 390 -1287Q400 -1222 539 -1222H863Q989 -1222 1027 -1206Q1070 -1188 1090 -1119Q1114 -1008 1137 -897ZM935 -503Q935 -634 907 -1004Q899 -1019 884 -1051Q851 -1141 752 -1155H735Q690 -1151 644 -1127Q587 -1096 572 -1052Q575 -1049 786 -1049Q819 -1018 819 -991Q819 -977 761 -930V-472H931Q935 -479 935 -503ZM935 314Q923 306 841 249Q841 188 848.5 51.5Q856 -85 856 -80V-233L839 -451H735V-940Q756 -958 793 -987Q793 -1005 770 -1028H574Q552 -977 515 -920Q542 -886 564 -836Q591 -833 643 -821Q672 -811 672 -745Q672 -705 603 -623Q596 -615 545 -564Q504 -523 504 -516Q504 -510 528 -468Q555 -420 560 -405Q562 -400 562 -382Q562 -376 554 -288Q545 -185 542 -144Q542 -111 542 -77Q540 -38 523 -25Q461 -100 398 -175Q296 -293 265 -293Q204 -293 200 -219L300 250Q258 285 200 314ZM662 -952Q651 -941 656 -935H584Q584 -936 581 -941.5Q578 -947 578 -955Q578 -956 606 -986Q616 -983 662 -952Z"/>
</svg>