<svg xmlns="http://www.w3.org/2000/svg" viewBox="0 -2048 2048 2048">
	<path fill="currentColor" d="M1000 320H111V296Q184 266 269 222L143 -378Q143 -378 180 -378Q163 -616 163 -598Q163 -720 190 -840Q186 -843 100 -929Q109 -969 211 -969Q272 -969 321 -940Q301 -910 280 -880Q249 -839 226 -839Q248 -756 248 -621Q248 -481 221 -378Q254 -382 345 -277Q494 -103 502 -95L527 -382Q527 -388 495 -452Q463 -516 463 -521Q463 -535 518 -584Q548 -610 578 -636Q632 -688 632 -742Q632 -786 601 -793Q565 -801 529 -808Q523 -823 497 -864Q474 -900 474 -906Q474 -903 521 -997Q519 -1000 482 -1028Q458 -1046 458 -1067V-1136Q491 -1158 508 -1158Q548 -1158 548 -1129Q548 -1123 539 -1099Q528 -1071 526 -1062Q529 -1059 530.5 -1055Q532 -1051 535 -1048Q563 -1078 591 -1107Q627 -1144 658 -1156Q606 -1219 606 -1324Q606 -1374 648 -1434L606 -1476Q627 -1527 679 -1527Q770 -1527 762 -1400Q767 -1409 793 -1431Q819 -1453 829 -1453Q858 -1453 886 -1438Q921 -1418 921 -1385Q921 -1378 903 -1292.5Q885 -1207 885 -1200Q885 -1173 926 -1152V-1128Q919 -1121 906 -1121Q876 -1121 855 -1156Q837 -1187 837 -1219Q837 -1226 847.5 -1286Q858 -1346 858 -1353Q858 -1373 844 -1390H825Q812 -1368 812 -1340Q812 -1323 819 -1286.5Q826 -1250 826 -1231Q826 -1182 790 -1146Q833 -1129 867 -1086Q901 -1043 904 -1008Q936 -675 931 -519V-448H843V217Q911 266 1000 320ZM736 -1457Q708 -1500 682 -1500Q660 -1500 637 -1477Q660 -1458 679 -1458Q686 -1458 696.5 -1461Q707 -1464 713 -1464Q722 -1464 736 -1457ZM895 -1377Q895 -1398 873.5 -1412.5Q852 -1427 829 -1427Q811 -1427 796 -1414Q781 -1401 781 -1387Q788 -1334 788 -1230Q785 -1205 766.5 -1184.5Q748 -1164 729 -1164Q710 -1164 688 -1195Q669 -1223 669 -1240Q669 -1246 697 -1316Q729 -1394 737 -1425Q723 -1432 708 -1432Q671 -1432 650 -1392Q632 -1359 632 -1319Q632 -1266 651 -1222Q680 -1153 748 -1153Q761 -1153 777.5 -1170.5Q794 -1188 798 -1208Q806 -1246 793 -1319Q788 -1349 794 -1378Q802 -1416 829 -1416Q852 -1416 870.5 -1397Q889 -1378 889 -1355Q889 -1348 887 -1342Q887 -1347 891 -1359Q895 -1371 895 -1377ZM769 -1264Q769 -1253 751 -1379Q745 -1364 717 -1300Q695 -1249 695 -1242Q695 -1222 729 -1190Q769 -1207 769 -1264ZM520 -1119V-1128L496 -1134V-1125ZM515 -1100Q489 -1089 479 -1071Q490 -1049 504 -1043Q504 -1079 515 -1100ZM905 -475V-546Q905 -534 890 -793Q890 -853 889 -912Q886 -998 861 -1057Q849 -1085 792 -1112Q739 -1137 703 -1137Q652 -1137 617 -1107Q597 -1090 558 -1033H760Q771 -1032 783 -1012.5Q795 -993 795 -979Q795 -952 743 -920V-475ZM284 -936Q236 -948 211 -948Q177 -948 132 -930Q173 -863 213 -863Q248 -863 284 -936ZM911 293Q898 282 838 250Q816 238 816 200L832 -61V-235L815 -450Q759 -445 716 -449V-928Q769 -980 769 -985Q769 -993 766 -998Q763 -1003 763 -1005H549Q500 -908 500 -911Q500 -904 521 -871Q544 -834 549 -822Q658 -829 658 -735Q658 -695 591 -621Q541 -570 490 -519Q510 -484 529 -447.5Q548 -411 548 -371Q548 -368 541 -300Q534 -232 533 -198Q532 -160 525 -51Q519 -42 509 -42Q458 -105 289 -293Q284 -295 263 -295Q216 -295 190 -248L295 238Q258 258 184 293ZM221 -624Q221 -657 208 -800Q190 -692 190 -606Q190 -564 203 -421Q221 -498 221 -624ZM274 -323Q259 -343 222 -349Q172 -356 170 -357Q179 -334 192 -295Q224 -327 248 -327Q254 -327 263 -325Q272 -323 274 -323ZM694 -1464Q682 -1470 659 -1470L665 -1489H694ZM642 -935Q621 -911 558 -933Q574 -969 592 -969Q601 -969 642 -935Z"/>
</svg>