<svg xmlns="http://www.w3.org/2000/svg" viewBox="24.5 -1626.5 1102 2039">
	<path fill="currentColor" d="M1051 337H165Q222 309 333 249Q299 104 237 -187Q235 -198 244 -241Q226 -276 187 -349V-368H226Q231 -393 241 -446Q236 -449 150 -535Q138 -538 117 -549Q100 -568 100 -632Q117 -637 142 -650Q152 -666 177 -695Q215 -730 281 -730Q336 -730 353 -712Q413 -645 413 -645Q421 -643 439 -635Q457 -627 457 -603Q457 -591 442 -570Q423 -545 401 -540Q376 -508 311 -446Q314 -419 323 -356Q338 -349 357 -335Q374 -299 414 -232Q460 -171 561 -60Q586 -202 586 -330Q586 -381 559 -418.5Q532 -456 532 -482Q532 -501 596 -567Q631 -602 666 -637Q694 -679 694 -701Q694 -741 662 -752Q628 -758 593 -763Q587 -780 561 -820Q538 -857 538 -863Q538 -868 560 -906Q583 -948 588 -966Q616 -1067 684 -1094Q574 -1104 495 -1104Q495 -1105 489.5 -1115.5Q484 -1126 484 -1133Q484 -1151 512 -1169Q536 -1184 546 -1184Q552 -1184 576.5 -1168Q601 -1152 608 -1152Q629 -1152 727 -1166Q693 -1200 692 -1249Q690 -1326 687 -1337Q687 -1338 659 -1390Q635 -1434 635 -1462Q635 -1496 657 -1523.5Q679 -1551 711 -1551Q751 -1551 790 -1507Q801 -1495 847 -1426Q878 -1384 930 -1307Q959 -1257 959 -1216Q959 -1196 947 -1169Q933 -1139 916 -1132Q930 -1119 943 -1119Q1002 -1119 1002 -1230Q1002 -1264 995 -1283Q986 -1308 950 -1386Q921 -1450 921 -1457Q921 -1462 934 -1503Q941 -1496 953 -1496Q943 -1468 950 -1447Q973 -1398 996 -1348Q1029 -1275 1029 -1225Q1029 -1186 1005 -1143Q976 -1092 938 -1092Q932 -1092 917.5 -1103Q903 -1114 897 -1114Q885 -1114 856 -1095Q893 -1085 928 -1039Q960 -996 963 -965Q994 -612 991 -518V-409Q943 -416 899 -410Q916 -316 916 -139Q916 56 899 244Q978 297 1051 337ZM932 -1214Q932 -1255 897 -1312Q894 -1318 809 -1426Q790 -1457 771 -1487Q745 -1524 713 -1524Q662 -1524 662 -1462Q662 -1429 682 -1397Q709 -1352 714 -1337Q720 -1321 714 -1284Q708 -1246 712 -1235Q719 -1214 749 -1183Q789 -1143 792 -1139L783 -1130Q750 -1141 732 -1141Q725 -1141 674 -1135.5Q623 -1130 616 -1130Q587 -1130 585 -1131Q541 -1157 541 -1157Q526 -1157 511 -1131L860 -1125Q894 -1134 914 -1164Q932 -1190 932 -1214ZM964 -439Q960 -572 957 -705Q951 -857 936 -966Q930 -1008 888 -1046Q868 -1064 830 -1082Q796 -1098 786 -1098Q743 -1098 696 -1073Q639 -1042 625 -990H821Q833 -990 845 -971Q857 -952 857 -944Q857 -919 803 -880V-439ZM964 316Q947 301 897 277Q873 265 873 229L889 -25V-296Q889 -290 872 -411H775V-888Q830 -929 830 -944Q830 -952 826.5 -956Q823 -960 823 -962H615L565 -862Q583 -844 614 -786Q641 -783 690 -772Q716 -731 716 -698Q716 -670 709 -659Q688 -625 620 -548Q559 -479 559 -474Q559 -455 586 -424.5Q613 -394 613 -336L587 -16Q577 -16 573 -12Q509 -95 370 -252Q356 -266 316 -266Q298 -266 278.5 -242.5Q259 -219 262 -200L360 265Q316 287 268 316ZM430 -598Q430 -608 416 -622Q400 -606 397 -606Q375 -606 350 -640Q332 -666 314 -692Q294 -688 271 -688Q248 -688 220 -692Q219 -682 198 -647Q173 -606 157 -606Q150 -606 138.5 -611Q127 -616 122 -616Q125 -594 134 -568Q136 -568 140 -571Q144 -574 152 -574Q151 -574 193.5 -520Q236 -466 276 -466Q310 -466 351.5 -520Q393 -574 400 -574Q407 -574 405.5 -571Q404 -568 411 -568Q430 -568 430 -598ZM294 -375Q291 -398 283 -438H263Q260 -415 252 -375ZM348 -288Q343 -303 316 -322.5Q289 -342 281 -341H219Q234 -313 259 -266Q276 -284 348 -288ZM705 -895Q699 -889 699 -877H630Q630 -879 627 -884.5Q624 -890 624 -898Q624 -898 654 -930Q662 -925 679.5 -912.5Q697 -900 705 -895ZM365 -603Q342 -579 330 -579Q324 -579 290 -596Q290 -609 284 -615Q320 -633 322 -633Q345 -633 365 -603ZM262 -609Q262 -591 219 -584Q206 -584 182 -596Q182 -599 184.5 -608.5Q187 -618 187 -621Q205 -627 256 -627Q256 -625 259 -621Q262 -617 262 -609ZM327 -523Q311 -493 273 -493Q258 -493 225 -504V-529Q259 -552 281 -552Q298 -552 327 -523ZM288 -512V-521H263V-512Z"/>
</svg>