<svg xmlns="http://www.w3.org/2000/svg" viewBox="0 -2048 2048 2048">
	<path fill="#000000" d="M1283 -1392Q1283 -1387 1276 -1367.5Q1269 -1348 1269 -1340Q1267 -1269 1203 -1208Q1147 -1156 1068 -1129Q1131 -1103 1155 -1056Q1167 -1033 1177 -972Q1214 -752 1205 -425V-364Q1179 -365 1152 -367Q1126 -366 1126 -334L1158 63Q1158 120 1131 160Q1163 192 1195 225Q1238 263 1278 264V300H1224Q1220 300 1167 282Q1107 260 1081 254Q1073 252 1034 252L565 310Q517 310 475 292Q421 270 421 229Q421 185 449 153Q517 75 627 23Q720 -17 814 -57Q818 -82 858 -301H476Q463 -293 467 -275Q473 -246 472 -238H453Q455 -255 441 -285Q384 -304 384 -363Q384 -369 387 -384.5Q390 -400 390 -405H412Q416 -409 415 -416L334 -769L246 -222Q243 -222 233.5 -224.5Q224 -227 221 -227Q221 -240 226 -245Q219 -258 197 -258Q187 -258 184.5 -254.5Q182 -251 183 -238H158Q158 -255 163 -265Q145 -274 134 -274Q128 -274 122 -265Q116 -256 110 -254Q105 -259 100 -259L328 -853Q335 -850 345 -841Q357 -792 397 -614L442 -415Q489 -390 507 -390Q511 -390 608 -401Q716 -413 764 -417Q781 -454 798.5 -547Q816 -640 833 -678Q861 -741 916 -756V-797Q905 -810 871.5 -813.5Q838 -817 827 -829Q784 -875 784 -911Q784 -928 832 -1016Q880 -1104 905 -1129Q863 -1140 790 -1176Q689 -1252 689 -1393Q689 -1419 696 -1431H730Q735 -1364 760 -1315Q790 -1255 837 -1252Q784 -1350 784 -1374Q784 -1455 876 -1502Q944 -1537 1007 -1537Q1071 -1537 1130 -1470Q1184 -1408 1184 -1353Q1184 -1364 1167 -1279Q1182 -1297 1254 -1426Q1263 -1426 1272 -1423.5Q1281 -1421 1283 -1421ZM1250 -1363Q1213 -1280 1148.5 -1232.5Q1084 -1185 1015 -1185Q1002 -1185 999 -1188V-1202Q1011 -1212 1044.5 -1215.5Q1078 -1219 1094 -1234Q1163 -1298 1163 -1348Q1163 -1384 1124 -1447Q1110 -1470 1088 -1482Q1037 -1511 984 -1511Q928 -1511 875 -1478Q810 -1438 810 -1374Q810 -1305 863 -1256Q916 -1207 995 -1201V-1184L950 -1179Q782 -1218 728 -1319Q740 -1243 835 -1188Q916 -1142 984 -1142Q1196 -1142 1250 -1363ZM1178 -385L1163 -845Q1152 -981 1149 -991Q1128 -1077 1051 -1109Q1022 -1121 989 -1121Q903 -1121 863 -1022H1012Q1022 -1022 1037 -1002Q1052 -982 1052 -971Q1052 -950 1016 -915V-385ZM1125 -90Q1123 -112 1111 -206Q1102 -279 1102 -321Q1102 -344 1104 -364H989V-928Q1026 -952 1026 -969Q1026 -978 1009 -995H853Q849 -985 830 -949Q815 -920 815 -913Q815 -928 838 -850Q878 -845 917 -839Q936 -835 936 -779Q936 -745 935 -741Q903 -726 864 -697Q851 -673 828 -548Q884 -631 903 -685Q906 -682 912 -680.5Q918 -679 921 -676Q908 -644 866 -565Q831 -499 831 -492Q831 -485 857.5 -439Q884 -393 884 -355Q884 -302 837 -81V-59Q1057 -100 1055 -100Q1089 -100 1125 -90ZM857 -387Q857 -391 807 -474Q798 -444 780 -391Q722 -388 484 -362Q485 -352 482 -339.5Q479 -327 479 -327Q510 -327 584.5 -321.5Q659 -316 660 -316Q677 -316 835 -334Q857 -395 857 -387ZM463 -350L451 -363H428Q410 -354 410 -340Q410 -328 422 -316H440Q452 -328 463 -350ZM1131 37Q1131 33 1128 -8.5Q1125 -50 1125 -68Q1113 -68 1088 -71Q1063 -74 1057 -74Q993 -74 854 -35Q738 -3 664 28Q569 67 526 113Q550 129 574 145Q603 165 611 189Q807 137 839 137Q877 137 963 160Q1044 181 1088 178Q1131 124 1131 37ZM298 -716L142 -296Q222 -280 230 -280ZM1189 256Q1128 195 1126 195Q1120 195 1095.5 200Q1071 205 1065 205Q1057 205 953 184Q849 163 844 163Q863 163 598 216Q586 191 553 162Q520 133 501 132Q447 208 447 229Q447 284 571 284L1036 226Q1054 226 1189 256ZM931 -928Q919 -924 902 -924Q885 -924 869 -928Q869 -931 866 -940Q863 -949 863 -952Q897 -969 897 -969Q909 -969 920 -951.5Q931 -934 931 -928Z"/>
</svg>