<svg xmlns="http://www.w3.org/2000/svg" viewBox="0 0 628 1000">
  <g transform="scale(1,-1) translate(0,-1000)">
    <path d="M346 787Q367 787 367 774Q367 768 361.0 763.5Q355 759 348.0 759.0Q341 759 335.5 763.5Q330 768 330 775Q330 787 346 787ZM418 809Q431 792 435.5 767.0Q440 742 440 668Q440 620 437 559L514 570L489 708Q486 716 481.0 733.0Q476 750 474.5 755.0Q473 760 469.0 771.0Q465 782 461.0 787.0Q457 792 451.0 800.0Q445 808 437 816Q432 833 386 833Q369 833 360 829Q362 828 388.0 821.0Q414 814 418 809ZM303 587Q308 578 319.5 560.0Q331 542 337.5 530.0Q344 518 350.0 499.0Q356 480 356 461Q356 440 354.0 425.5Q352 411 347.0 392.0Q342 373 340 365Q327 303 324.5 240.0Q322 177 318 145L316 124L483 155V157Q483 184 479.5 210.5Q476 237 469.0 275.5Q462 314 458 346Q454 377 452.0 405.0Q450 433 448.5 466.0Q447 499 445 522L424 519H418Q406 519 405 530L412 668Q412 717 409.5 744.0Q407 771 404.5 777.5Q402 784 396 792Q387 796 377.5 799.0Q368 802 354.0 805.0Q340 808 331 810Q320 805 313.0 786.5Q306 768 306 758Q308 753 308 753Q314 743 334.5 737.0Q355 731 367 715Q374 706 376.5 697.0Q379 688 380.0 676.5Q381 665 383 658Q383 657 383.5 656.0Q384 655 384 654Q384 645 376.0 637.5Q368 630 352 622L337 615ZM392 888Q411 888 424.5 900.5Q438 913 438.0 931.0Q438 949 424.5 960.5Q411 972 391 972Q373 972 360.5 961.0Q348 950 348.0 932.0Q348 914 361.0 901.0Q374 888 392 888ZM11 835Q0 835 0 854Q0 869 17.5 883.0Q35 897 50.5 904.0Q66 911 68 911Q92 911 108.0 896.0Q124 881 128.5 869.5Q133 858 133 854Q133 834 120.5 821.0Q108 808 95.5 798.5Q83 789 83 780Q83 779 83.0 772.5Q83 766 83.0 752.0Q83 738 82.5 717.0Q82 696 82.0 661.5Q82 627 82.0 584.5Q82 542 82.0 480.0Q82 418 82 347Q91 347 93 348Q116 359 134.0 373.5Q152 388 172.5 407.0Q193 426 210 439L257 585V587Q257 597 268 606L315 645Q326 652 335.0 656.0Q344 660 345 660Q344 665 343.5 670.5Q343 676 343.0 678.5Q343 681 341.5 685.0Q340 689 337 693Q331 701 309.0 708.5Q287 716 277 733Q270 747 270 755Q270 757 271.0 764.0Q272 771 276.0 785.0Q280 799 287.0 812.0Q294 825 308.0 837.5Q322 850 340 855Q340 858 340.5 865.0Q341 872 341 873Q341 876 342.5 878.0Q344 880 346 880H347Q338 888 315 913Q303 926 291.5 943.5Q280 961 274.0 972.5Q268 984 268 986Q268 999 278 999Q282 999 287.0 992.5Q292 986 302.0 971.5Q312 957 323 945Q328 969 347.0 984.5Q366 1000 392 1000Q419 1000 439.5 985.0Q460 970 465 945Q475 957 485.5 971.5Q496 986 501.0 992.5Q506 999 510 999Q520 999 520 986Q520 983 511.0 967.0Q502 951 482.5 925.5Q463 900 441 881Q447 881 447 870Q446 851 446 851Q468 837 483.0 821.5Q498 806 506.0 785.5Q514 765 517.0 753.5Q520 742 524 717L553 547V543Q553 541 541 538L594 467Q594 466 595.0 464.5Q596 463 597.5 461.0Q599 459 599 458Q613 414 615.5 379.5Q618 345 619 338Q628 293 628 286Q628 250 601 245Q581 245 581 303V314Q586 327 586 355L558 452L497 531Q484 529 482 527Q484 503 485.5 469.5Q487 436 489.0 409.0Q491 382 495.0 352.0Q499 322 506.0 282.0Q513 242 516.5 214.0Q520 186 520 157Q520 141 513 90Q515 84 515 62Q515 60 514.0 55.0Q513 50 513 38V31Q513 11 507.5 5.5Q502 0 490 0H404Q391 0 390 14Q390 16 390 17Q390 29 475 54Q475 58 474.5 64.0Q474 70 474 72Q474 85 480 126Q370 103 311 95Q309 74 303 34V32Q303 12 296.5 6.0Q290 0 267 0H203Q179 0 179 18Q179 21 182.0 24.0Q185 27 190.5 30.0Q196 33 202.5 36.5Q209 40 216.5 43.0Q224 46 231.5 48.5Q239 51 246.0 53.5Q253 56 258.0 57.5Q263 59 267 60L271 61V63Q271 90 281 151Q287 188 288.5 249.0Q290 310 303 372Q318 447 318 461Q318 491 292 536L250 427Q238 403 231 398Q195 371 158.0 351.0Q121 331 82 303V28Q82 5 65 5Q49 5 49 26V290Q38 289 38 289Q29 294 29 305Q29 315 38 321Q40 324 43.0 329.5Q46 335 49 338Q49 448 49.5 557.5Q50 667 50.5 723.0Q51 779 51 780Q54 798 62.0 808.5Q70 819 78.0 821.0Q86 823 92.5 830.0Q99 837 99 851Q99 866 91.0 874.0Q83 882 74 882Q67 882 58.0 877.0Q49 872 41.0 865.0Q33 858 26.5 851.5Q20 845 16 840Z" fill="currentColor"/>
  </g>
</svg>