<svg xmlns="http://www.w3.org/2000/svg" viewBox="0 -2048 2048 2048">
	<path fill="#000000" d="M1383 359H360Q360 358 357.5 349Q355 340 355 330Q386 311 522 233Q422 -101 406 -270Q405 -279 349 -394V-413Q376 -411 387 -417L218 -869Q195 -861 150 -842L100 -1246L114 -1259L322 -920Q309 -907 257 -881Q372 -579 440 -415Q459 -416 498 -412Q518 -406 543 -368Q580 -313 582 -310Q613 -275 801 -100Q804 -103 804 -270L836 -520Q836 -525 827 -531Q805 -545 768 -583Q758 -599 753 -649Q749 -687 760 -697Q744 -701 686 -701Q679 -713 679 -736Q679 -786 721 -862Q767 -934 814 -1007Q880 -1113 880 -1150Q880 -1204 828 -1204Q818 -1204 674 -1166.5Q530 -1129 465 -1129Q436 -1129 432 -1130Q401 -1138 372 -1185Q351 -1219 331 -1254Q329 -1257 303 -1279Q289 -1292 289 -1315Q289 -1362 391 -1395Q444 -1408 496 -1421Q513 -1462 546 -1540Q577 -1524 590 -1525H595Q612 -1540 628 -1540Q684 -1540 759.5 -1491.5Q835 -1443 869 -1443Q875 -1443 959 -1462Q1043 -1481 1050 -1481Q1120 -1481 1190 -1402.5Q1260 -1324 1267 -1251Q1277 -1156 1287 -1060.5Q1297 -965 1297 -845Q1297 -841 1295 -696H1217L1209 -691Q1206 -653 1213 -443Q1221 -215 1221 -232Q1221 75 1150 233ZM582 -1505Q577 -1510 568 -1513Q533 -1478 534 -1445V-1427Q551 -1434 560 -1460Q571 -1492 582 -1505ZM1275 -828Q1275 -835 1271 -890Q1266 -952 1265 -974Q1255 -1171 1244 -1222Q1193 -1454 1042 -1454Q1035 -1454 952.5 -1435Q870 -1416 863 -1416Q831 -1416 745.5 -1467Q660 -1518 616 -1513Q594 -1486 583 -1448Q575 -1415 567 -1383H548Q536 -1399 528 -1399Q316 -1356 316 -1310Q316 -1297 323 -1297Q331 -1297 341 -1307L354 -1293Q349 -1267 377 -1216Q489 -1232 490 -1232Q500 -1232 500 -1210Q500 -1193 403 -1193Q415 -1155 468 -1156L826 -1232Q857 -1230 882 -1206.5Q907 -1183 907 -1156Q907 -1106 846 -1012Q799 -943 753 -873Q706 -789 707 -768V-728H786Q839 -802 891 -876Q939 -939 1020 -939Q1105 -939 1148 -886Q1188 -835 1205 -718H1274Q1275 -710 1275 -828ZM289 -925L134 -1177L171 -880ZM1269 332Q1213 300 1118 244Q1194 82 1194 -213Q1194 -351 1175 -736Q1174 -750 1154 -829Q1144 -868 1097 -895Q1058 -917 1023 -917Q976 -917 946 -899Q932 -891 853 -784Q771 -674 771 -655Q771 -626 778 -615Q790 -595 829 -563Q863 -534 863 -530L831 -243V-70Q829 -66 812 -51Q724 -141 537 -314Q528 -322 492 -322Q430 -322 430 -246Q430 -154 555 239Q507 272 408 332ZM532 -344Q500 -392 486 -391H382Q400 -346 416 -311Q439 -349 490 -349Q514 -349 532 -344ZM663 -1345Q663 -1337 628 -1302Q582 -1333 582 -1353Q582 -1383 617 -1383Q663 -1383 663 -1345ZM630 -1361Q622 -1361 609 -1348Q612 -1345 618.5 -1341Q625 -1337 628 -1334Q630 -1338 630 -1361Z"/>
</svg>