<svg xmlns="http://www.w3.org/2000/svg" viewBox="0 0 996 1000">
  <g transform="scale(1,-1) translate(0,-1000)">
    <path d="M482 295Q486 262 486 262Q486 258 503 258Q503 258 506 258Q525 258 525 262Q525 262 525.5 264.0Q526 266 526.5 269.0Q527 272 527.5 276.0Q528 280 528.5 285.0Q529 290 529 295Q529 314 525.0 330.5Q521 347 516.0 355.0Q511 363 507 363Q500 363 491.0 336.0Q482 309 482 295ZM581 239Q590 239 590 253Q590 264 579.0 264.0Q568 264 568 252Q568 239 581 239ZM518 140Q524 139 526.0 140.5Q528 142 528 150Q528 167 518 190ZM460 295Q460 321 474.0 351.5Q488 382 507 382Q522 382 536.5 360.0Q551 338 551 295Q551 282 549 268Q559 287 579 287Q593 287 602.5 277.0Q612 267 612 253Q612 242 608 235Q617 233 617 224Q617 213 606 213H532Q551 175 551 150Q551 146 550.0 140.0Q549 134 542.5 125.0Q536 116 525 116Q523 116 518 117V38Q518 25 505 25Q493 25 493 38V117Q488 116 486 116Q473 116 466.5 127.0Q460 138 460 150Q460 177 479 213H405Q394 213 394 224Q394 233 402 235Q398 242 398 253Q398 267 407.5 276.5Q417 286 431 286Q452 286 462 267Q460 281 460 295ZM546 255Q539 238 519 236V235H549Q545 242 545 252Q545 252 545.5 253.0Q546 254 546 255ZM492 236Q471 238 465 254V252Q465 242 461 235H491ZM430 239Q443 239 443 252Q443 263 431 263Q421 263 421 253Q421 239 430 239ZM483 150Q483 143 485 139H486Q487 138 493 139V189Q483 167 483 150ZM97 909V859H128V909ZM213 578 191 609Q189 612 167.0 623.5Q145 635 145 647Q145 648 145.5 649.5Q146 651 146 652Q148 659 149.0 670.5Q150 682 152.5 691.0Q155 700 162 709Q174 725 194.0 731.0Q214 737 220 747Q222 749 222 751Q222 762 215.5 780.5Q209 799 198 804Q189 802 175.0 799.0Q161 796 151.5 793.0Q142 790 133 786Q127 778 124.5 772.0Q122 766 119.0 738.5Q116 711 116 662L122 542Q128 535 140.0 520.0Q152 505 157 499L177 496Q182 518 213 578ZM110 803Q114 808 140.0 814.5Q166 821 168 822Q156 827 142 827Q111 827 92 809Q67 784 57.0 764.0Q47 744 40 701V563L92 552Q88 634 88 662Q88 736 92.5 761.0Q97 786 110 803ZM182 780Q199 780 199 768Q199 761 193.0 756.5Q187 752 180 752Q162 752 162 767Q162 780 182 780ZM846 889Q846 895 850.5 899.5Q855 904 861 904H893V931Q869 927 855 927H851Q843 927 827 929V814Q834 816 846 818ZM566 812Q566 819 573.0 824.5Q580 830 589 830Q609 830 624 813Q633 803 636.0 791.5Q639 780 640.0 764.5Q641 749 644 739L694 581L761 585L796 613Q806 619 814.5 622.5Q823 626 824 627Q823 632 823.0 638.5Q823 645 822.0 649.0Q821 653 817 658Q812 665 790.5 672.5Q769 680 760 696Q754 708 754 717Q754 732 765.0 760.5Q776 789 797 803V934Q771 941 752.0 955.0Q733 969 727.5 978.5Q722 988 722 990Q722 1000 732 1000H969Q979 1000 979 990Q979 984 961.5 967.0Q944 950 922 940Q922 939 922 938L923 936V807Q964 780 977.5 753.5Q991 727 995 681L996 519V509H967Q959 509 957.5 508.5Q956 508 956 504Q956 427 968 334Q972 308 978.5 268.5Q985 229 988.0 203.0Q991 177 991 149Q991 135 984 86Q986 80 986 59Q986 56 985.0 51.5Q984 47 984 36V29Q984 10 978.5 5.0Q973 0 962 0H881Q870 0 868 16Q868 20 892.0 31.0Q916 42 948 51Q948 54 947.5 60.0Q947 66 947 68Q947 80 953 119Q840 96 792 90Q789 55 785 33V30Q785 11 779.0 5.5Q773 0 751 0H691Q667 0 667 16Q667 28 754 57Q754 57 754 63Q754 83 764 143Q770 177 771.0 236.0Q772 295 785 354Q800 424 800 438Q800 438 800 440L799 442L687 445Q649 436 636 436Q625 436 619 437Q612 438 612.5 447.0Q613 456 619 462Q623 467 635.5 468.0Q648 469 653 475Q656 478 652.0 484.0Q648 490 645.0 493.0Q642 496 646 497H650Q657 497 663.5 494.0Q670 491 678.0 486.5Q686 482 692 479L785 484Q774 506 764 521L658 525L608 727Q604 732 596.0 737.0Q588 742 583.0 747.5Q578 753 576 761Q575 764 578.5 765.5Q582 767 586.5 767.0Q591 767 594.5 768.5Q598 770 598 773Q596 782 581.0 794.0Q566 806 566 812ZM753 980Q784 949 851 947H855Q913 947 947 980ZM894 769Q906 752 910.5 728.5Q915 705 915 635Q915 590 912 531L959 541L961 672Q955 713 945.5 731.5Q936 750 912 775Q895 792 864 792Q849 792 839 787Q841 786 866.0 780.0Q891 774 894 769ZM826 747Q846 747 846 735Q846 721 828.0 721.0Q810 721 810 736Q810 747 826 747ZM597 443Q597 430 584 430Q576 430 572 437L533 574Q531 573 528.5 572.5Q526 572 523.0 571.5Q520 571 518 571L519 432Q519 419 506.0 419.0Q493 419 493 432Q492 555 492 571Q482 573 477 575L438 438Q434 430 426 430Q421 430 417.0 434.0Q413 438 413 443Q414 449 414 449L454 587Q418 614 418 661Q418 697 443.5 722.5Q469 748 505 748Q542 748 567.0 721.0Q592 694 592 657Q592 612 556 586Q556 586 566.0 551.5Q576 517 586.5 481.5Q597 446 597 443ZM568 657Q567 686 549.5 705.0Q532 724 505 724Q479 724 460.5 705.5Q442 687 442 661Q442 636 463.5 615.0Q485 594 506 594Q527 595 547.5 612.0Q568 629 568 657ZM893 874H876V821Q883 821 893 819ZM883 532 889 635Q889 682 886.5 707.5Q884 733 881.5 739.5Q879 746 873 753Q864 757 855.0 759.5Q846 762 832.5 764.5Q819 767 811 769Q801 764 794.5 747.0Q788 730 788 720Q790 715 790 715Q796 706 815.5 700.0Q835 694 846 679Q853 671 855.5 662.5Q858 654 858.5 643.0Q859 632 861 625V621Q861 612 853.5 605.5Q846 599 832.0 592.5Q818 586 817 585L785 557Q789 549 804.0 525.5Q819 502 825 487L848 488Q859 502 883 532ZM835 440V438Q835 423 833.5 409.5Q832 396 830.5 388.5Q829 381 825.5 367.5Q822 354 820 347Q807 288 805.5 228.0Q804 168 800 138L797 118L956 147V149Q956 175 952.5 200.0Q949 225 942.5 262.5Q936 300 932.0 329.0Q928 358 926.0 383.5Q924 409 922.5 443.0Q921 477 920 496L899 493H897L851 440ZM99 513 83 516Q81 493 79.5 460.0Q78 427 76.0 399.0Q74 371 70 340Q66 307 59.0 271.5Q52 236 48.5 211.0Q45 186 45 159V156L213 125L210 147Q206 180 204.0 238.0Q202 296 189 358Q187 366 183.5 379.5Q180 393 178.5 401.0Q177 409 175.0 422.0Q173 435 173 450L154 451ZM210 448Q210 437 226 366Q239 304 240.0 246.5Q241 189 247 152Q258 90 258 66Q258 60 258.0 60.0Q258 60 262.0 59.0Q266 58 271.0 56.5Q276 55 283.0 52.5Q290 50 297.5 47.5Q305 45 312.5 42.0Q320 39 326.5 35.5Q333 32 338.5 29.0Q344 26 347.0 23.0Q350 20 350 17Q350 0 325 0H261Q238 0 232.0 5.5Q226 11 226 31V34Q218 89 217 97Q145 107 48 127Q55 80 55 71Q55 69 54.5 63.5Q54 58 54 54Q88 44 113.0 32.5Q138 21 138 16Q136 0 124 0H39Q31 0 27.0 1.0Q23 2 19.0 9.0Q15 16 15 30V38Q15 50 14.5 55.0Q14 60 14 62Q14 87 15 90Q8 141 8 159Q8 188 11.5 214.0Q15 240 22.0 276.5Q29 313 33 345Q46 441 46 521Q46 522 23.0 527.5Q0 533 0 536V540L4 710Q12 757 24.0 783.5Q36 810 70 835Q67 838 67 844V985Q67 991 71.5 995.5Q76 1000 82.0 1000.0Q88 1000 92.5 995.5Q97 991 97 985V939H143Q149 939 153.5 934.5Q158 930 158 924V859H200Q206 859 210.5 854.5Q215 850 215 844Q215 839 214 837Q235 821 246.5 792.5Q258 764 258 749Q258 738 252 726Q242 709 219.5 701.5Q197 694 191 686Q187 681 186.0 677.0Q185 673 185.0 666.5Q185 660 184 654Q186 653 188.5 648.5Q191 644 201 637L247 598Q248 597 256 597Q265 597 281.5 601.0Q298 605 310 609L322 613L394 735V741Q394 757 416 815Q418 821 428 821Q449 821 458 810Q460 808 460 806Q460 800 445.0 783.0Q430 766 430 759Q430 756 435.5 758.5Q441 761 446.0 763.5Q451 766 452 762Q452 757 437.5 743.5Q423 730 423 726L343 566L223 528Q216 516 213 491L313 487Q319 489 332.5 497.0Q346 505 355 505H359Q363 504 360.0 501.0Q357 498 353.0 492.0Q349 486 352 483Q357 477 369.5 476.0Q382 475 386 470Q392 464 392.5 455.0Q393 446 386 445Q380 444 369 444Q356 444 318 453Z" fill="currentColor"/>
  </g>
</svg>