<svg xmlns="http://www.w3.org/2000/svg" viewBox="0 -2048 2048 2048">
	<path fill="#000000" d="M1240 -1019Q1240 -971 1233 -925Q1217 -927 1203 -920Q1196 -988 1192 -1068Q1193 -1102 1184 -1164Q1125 -1317 983 -1362Q915 -1384 748 -1384Q761 -1384 612 -1377Q588 -1328 503.5 -1311.5Q419 -1295 384 -1227Q378 -1233 366 -1233Q321 -1366 321 -1395Q321 -1425 372 -1540Q396 -1523 439 -1498Q481 -1483 557 -1457Q579 -1442 622 -1416L810 -1422Q1240 -1422 1240 -1019ZM1072 349H106Q106 337 100 331L273 244L165 -257Q165 -297 201 -327Q233 -352 265 -352Q312 -352 326 -339Q371 -296 430 -222Q512 -118 529 -98L559 -417Q559 -441 557 -446Q549 -464 519 -517Q494 -561 494 -568Q494 -598 576 -661Q599 -679 611 -697Q678 -798 678 -817Q678 -824 669.5 -845Q661 -866 653 -869Q623 -873 565 -883Q562 -889 529 -944Q505 -984 505 -992Q505 -998 520 -1024Q537 -1054 541 -1069Q602 -1276 756 -1276Q818 -1276 876 -1241Q958 -1192 974 -1100Q980 -1022 986 -944L1001 -488Q983 -492 952 -492Q921 -492 899 -488Q916 -413 916 -204V29Q916 39 899 234Q977 288 1072 349ZM586 -1403Q586 -1422 519 -1444Q481 -1455 444 -1467.5Q407 -1480 383 -1503Q372 -1476 360 -1449Q348 -1416 348 -1384Q348 -1322 383 -1270Q418 -1306 449 -1317Q487 -1330 524 -1343Q586 -1370 586 -1403ZM974 -520L959 -992Q957 -1003 951 -1100Q946 -1175 868 -1217Q810 -1249 748 -1249Q695 -1249 670 -1233Q636 -1212 592 -1136H820Q856 -1087 856 -1076Q856 -1061 834.5 -1037Q813 -1013 792 -1010V-520ZM980 321Q945 296 877 250Q877 207 883 119.5Q889 32 889 35V-134Q889 -129 888 -223Q887 -312 887 -355Q887 -366 882 -399Q877 -432 877 -449Q877 -477 888 -492H764V-1018Q829 -1067 829 -1079Q829 -1090 806 -1113H593L532 -995Q573 -947 582 -904Q629 -904 664 -896Q676 -893 690.5 -860Q705 -827 705 -811Q705 -787 682 -756Q655 -719 581 -640Q516 -571 516 -568Q516 -563 551 -497Q586 -431 586 -425Q586 -422 570 -253Q555 -92 557 -58Q554 -53 550 -49H536Q470 -130 403 -210Q299 -330 265 -330Q240 -330 215.5 -303Q191 -276 192 -252L300 252Q252 283 176 321ZM689 -1030Q682 -1023 682 -1012H603Q603 -1015 600 -1024Q597 -1033 597 -1036Q626 -1065 637 -1065Q654 -1065 689 -1030Z"/>
</svg>