<svg xmlns="http://www.w3.org/2000/svg" viewBox="24.4 -1599.6 1486.2 2041.2">
	<path fill="currentColor" d="M1435 -1370Q1435 -1355 1416.5 -1330.5Q1398 -1306 1389 -1304Q1341 -1291 1294 -1283L1402 -1170L1329 -1114L1267 -1233V-785H1195L1186 -775Q1213 -681 1213 -663V-19Q1213 4 1183 117Q1155 219 1148 237Q1198 272 1348 359L252 366Q193 366 176 344Q300 277 381 234Q325 33 226 -338Q231 -354 233 -385Q213 -441 176 -551H257V-1186L248 -1195H233Q198 -1195 174 -1067Q165 -1016 148 -958Q135 -958 121 -960.5Q107 -963 106 -963Q106 -981 102 -986Q110 -1032 106 -1057Q100 -1093 100 -1084Q100 -1169 127 -1243Q136 -1269 196 -1393Q196 -1430 198 -1519H216Q273 -1519 273 -1414Q273 -1393 240 -1253Q305 -1223 305 -1198V-551Q332 -541 375 -517Q396 -484 441 -421Q528 -316 696 -109Q707 -193 721 -451Q733 -668 755 -761Q776 -851 847 -895Q867 -904 909 -923Q911 -950 922 -1029Q886 -1044 827 -1044Q808 -1044 766 -979Q743 -938 719 -898Q699 -915 657 -949Q662 -955 754 -1048Q770 -1065 770 -1114Q770 -1156 768 -1159Q768 -1159 718 -1192Q711 -1213 711 -1206Q711 -1213 731 -1251Q755 -1294 760 -1310Q739 -1316 718 -1322Q688 -1333 685 -1354Q690 -1385 692 -1446Q685 -1460 673 -1491Q695 -1514 727 -1514Q757 -1514 780 -1498Q803 -1482 803 -1460Q803 -1454 770 -1371L778 -1362Q831 -1451 882 -1485Q939 -1524 1032 -1524Q1185 -1524 1248 -1351Q1301 -1449 1372 -1449Q1435 -1449 1435 -1370ZM1408 -1376Q1403 -1396 1384 -1426H1364Q1397 -1416 1397 -1387Q1397 -1362 1376 -1330Q1408 -1362 1408 -1376ZM1370 -1375L1363 -1394Q1354 -1394 1326.5 -1374Q1299 -1354 1295 -1341H1314Q1329 -1344 1345 -1347Q1358 -1350 1370 -1375ZM1336 -1312V-1321H1295V-1312ZM1364 -1176L1301 -1238Q1312 -1209 1340 -1152ZM1223 -1336V-1355Q1201 -1421 1140 -1465Q1086 -1503 1035 -1503Q876 -1503 808 -1358ZM1245 -809V-1166Q1246 -1202 1234 -1286Q1241 -1286 1210.5 -1288.5Q1180 -1291 1127 -1291Q1132 -1283 1132 -1269Q1132 -1242 1115 -1216Q1098 -1190 1073 -1189V-809ZM775 -1469Q738 -1492 727 -1492Q709 -1492 700 -1472Q699 -1472 730 -1474Q746 -1475 754 -1458Q705 -1431 705 -1387Q705 -1335 746 -1336H765Q743 -1361 743 -1362Q743 -1368 757.5 -1409.5Q772 -1451 775 -1469ZM764 -1021Q738 -995 695 -948Q702 -948 714 -936Q722 -950 739 -978.5Q756 -1007 764 -1021ZM246 -1422Q246 -1467 220 -1486Q233 -1410 223 -1388Q188 -1317 154 -1245Q122 -1178 122 -1135Q122 -1133 128.5 -1073Q135 -1013 135 -990Q140 -1075 195 -1208Q246 -1334 246 -1422ZM1256 337L1110 250Q1122 229 1155 120Q1191 0 1191 -41V-631L1164 -785H1050V-1207Q1067 -1216 1083 -1225Q1105 -1240 1105 -1260Q1105 -1308 788 -1308Q774 -1274 738 -1208Q776 -1189 795 -1175Q799 -1113 798 -1071Q854 -1066 949 -1050Q948 -1045 941 -967Q937 -918 923 -899Q892 -889 858 -868Q807 -836 782 -766Q768 -728 766 -701Q751 -480 720 -69Q714 -60 704 -60Q624 -161 544 -263Q447 -384 385 -431Q368 -444 296 -444Q248 -397 252 -349L408 240Q408 249 404 252Q369 272 252 337ZM375 -467Q363 -495 324.5 -512.5Q286 -530 248 -530H209Q223 -495 248 -428Q276 -471 322 -471Q329 -471 349.5 -469Q370 -467 375 -467ZM916 -1242Q916 -1239 913 -1232.5Q910 -1226 910 -1223H820Q820 -1225 816.5 -1227.5Q813 -1230 813 -1238Q813 -1251 836 -1261Q855 -1270 865 -1270Q892 -1270 916 -1242ZM181 -1232Q170 -1176 170 -1169H144Q149 -1183 161 -1232Z"/>
</svg>