<svg xmlns="http://www.w3.org/2000/svg" viewBox="0 -2048 2048 2048">
	<path fill="currentColor" d="M1035 377H101Q101 360 107 356Q156 334 266 283L139 -359Q178 -359 178 -366Q178 -373 166.5 -467Q155 -561 155 -568Q155 -614 183 -838Q100 -884 100 -933Q100 -955 141 -969Q173 -980 202 -980Q249 -980 321 -951V-926Q314 -921 269 -865Q267 -862 222 -833Q244 -777 244 -609Q244 -527 240 -468Q231 -425 222 -369V-353Q237 -351 260 -341Q313 -291 387 -197Q473 -91 511 -50L537 -352Q537 -358 506.5 -427Q476 -496 476 -502Q476 -493 484 -525Q542 -582 641 -697Q648 -707 648 -734Q648 -777 626 -786Q625 -787 544 -800Q539 -810 508 -861Q482 -902 482 -908Q482 -913 503.5 -946Q525 -979 530 -995Q566 -1111 642 -1160Q567 -1191 525 -1249Q487 -1301 487 -1354Q487 -1446 564 -1505Q631 -1556 709 -1556Q799 -1556 862 -1505Q930 -1450 930 -1362Q930 -1289 899 -1244Q873 -1206 803 -1160Q850 -1137 862 -1130Q896 -1108 911 -1078Q922 -1059 934 -1022Q967 -658 963 -535V-427H883L873 -422Q873 -421 878 -319Q886 -164 886 -131L863 272Q956 335 1035 377ZM903 -1357Q903 -1431 852 -1481Q798 -1534 709 -1534Q641 -1534 581 -1483Q515 -1427 515 -1351Q515 -1280 583 -1225Q647 -1174 720 -1174Q795 -1174 846 -1220Q903 -1271 903 -1357ZM935 -455V-569Q942 -817 906 -1022Q895 -1081 834 -1119Q782 -1152 728 -1152Q620 -1152 576 -1042H788Q820 -1010 820 -986Q820 -965 802 -949.5Q784 -934 765 -918V-455ZM276 -941Q228 -953 205 -953Q133 -953 133 -925Q133 -914 159.5 -886Q186 -858 202 -858Q223 -858 250 -894Q277 -930 276 -941ZM936 351Q905 332 873.5 312Q842 292 842 257L858 -20V-236L841 -427H736V-932Q756 -943 792 -970Q792 -1001 774 -1019H566L510 -905Q546 -869 566 -822Q587 -821 644 -812Q676 -782 676 -728Q676 -706 663.5 -681Q651 -656 577 -580Q510 -510 510 -496Q510 -491 537.5 -423Q565 -355 565 -349Q565 -343 553 -211Q539 -65 535 -10Q529 0 519 0Q448 -82 378 -163Q282 -272 255 -272Q242 -272 214 -245Q186 -218 189 -199L294 289Q280 312 178 351ZM222 -621Q222 -698 202 -798Q183 -684 183 -598Q183 -533 197 -399Q222 -529 222 -621ZM271 -295Q251 -317 219 -323Q193 -327 167 -332Q172 -305 185 -261Q252 -298 258 -298Q265 -298 271 -295ZM659 -939Q640 -920 577 -932Q578 -941 590 -958Q602 -975 612 -975Q623 -975 659 -939Z"/>
</svg>