<svg xmlns="http://www.w3.org/2000/svg" viewBox="0 -2048 2048 2048">
	<path fill="#000000" d="M996 317Q996 326 977 346Q958 366 950 366Q943 366 933.5 358Q924 350 917 350Q910 350 856 358Q802 366 795 366Q770 366 698 354Q698 354 701 341Q704 328 703 318Q876 310 882 230L774 -227H652Q631 -193 595 -119Q577 -59 538 60Q510 124 454 261Q450 291 439 347Q422 361 398 361Q373 361 382 357Q381 366 368 365H149Q152 350 162 320Q227 308 346 267Q365 257 371 222Q375 197 378 172Q410 63 454 -142Q469 -177 494 -241Q535 -352 576 -462Q627 -608 627 -704Q627 -772 612 -842Q606 -872 592 -929Q587 -944 537 -950Q485 -952 379 -961Q354 -964 319 -985Q274 -1011 259 -1043Q259 -1044 199 -1212Q162 -1313 105 -1381Q118 -1394 130 -1394Q137 -1394 140.5 -1388.5Q144 -1383 149 -1386Q99 -1443 100 -1468V-1491Q102 -1491 105 -1494Q108 -1497 116 -1497Q135 -1497 163 -1456Q186 -1423 193 -1403Q202 -1376 231 -1328Q267 -1274 336 -1166Q339 -1169 339 -1177Q339 -1215 299 -1331Q275 -1361 230 -1424Q234 -1434 263 -1446Q248 -1469 209 -1521Q209 -1529 221 -1541Q280 -1516 332 -1421Q363 -1355 394 -1289Q423 -1230 484 -1111Q560 -1123 563.5 -1126.5Q567 -1130 567 -1182Q567 -1229 565 -1232Q495 -1330 421 -1357V-1377Q483 -1412 544 -1447Q614 -1486 659 -1486Q679 -1486 742 -1474Q805 -1462 815 -1457Q886 -1424 921 -1304Q947 -1215 947 -1114Q947 -1091 945 -1065Q938 -1059 927 -1048Q923 -987 907 -856Q893 -734 893 -731Q893 -725 914.5 -631Q936 -537 936 -530Q936 -524 925.5 -461Q915 -398 915 -392Q915 -320 938 -89Q960 131 976 232Q978 244 987 277.5Q996 311 996 317ZM919 -1079V-1202Q920 -1277 876 -1350Q827 -1434 752 -1452Q773 -1436 795 -1396.5Q817 -1357 817 -1337Q817 -1308 777 -1252Q766 -1241 753 -1218Q746 -1190 746 -1114Q746 -1107 749 -1090Q752 -1073 752 -1069H792Q785 -1124 791 -1166H809Q817 -1166 819.5 -1156.5Q822 -1147 824 -1146Q849 -1141 872 -1126Q877 -1123 919 -1079ZM790 -1340Q790 -1386 745.5 -1422.5Q701 -1459 651 -1459Q643 -1459 618 -1449Q587 -1437 578 -1435Q604 -1426 616 -1403Q607 -1393 586 -1378Q576 -1386 556 -1398Q566 -1420 572 -1425Q567 -1423 491 -1385Q519 -1385 534 -1370Q531 -1367 527 -1360Q523 -1353 520 -1350Q493 -1360 475 -1360Q548 -1294 655 -1166H729Q728 -1177 728 -1187Q728 -1226 759 -1265.5Q790 -1305 790 -1340ZM626 -1069V-1158Q626 -1163 590 -1198V-1069ZM898 -1019Q898 -1044 884 -1077Q865 -1122 835 -1122H809Q814 -1072 810 -1040H724V-1143Q689 -1136 655 -1144Q657 -1091 649 -1046Q561 -1046 566 -1045V-1100Q501 -1084 491 -1084Q475 -1084 469 -1094Q455 -1118 391 -1246Q362 -1311 308 -1394H296Q323 -1343 350 -1231Q375 -1126 400 -1086Q477 -1083 519 -1075V-1051H407Q375 -1051 352 -1088Q336 -1118 319 -1147.5Q302 -1177 271 -1224Q241 -1268 190 -1351Q177 -1338 171 -1338Q203 -1295 222 -1231Q251 -1130 255 -1119Q300 -1005 352 -993Q388 -985 449 -984Q523 -982 548 -979Q600 -973 614 -950Q647 -896 647 -781V-771Q647 -728 649 -705H668Q739 -726 874 -770Q898 -1032 898 -1019ZM915 -544Q915 -550 897 -624Q876 -706 870 -742Q789 -717 650 -670Q644 -572 552 -328Q536 -285 529 -254H898V-289Q891 -334 889 -419Q892 -444 904 -494Q915 -539 915 -544ZM969 315Q932 114 903 -225H796L909 230Q903 274 854 304Q814 329 773 331Q802 331 862.5 326.5Q923 322 925 322Q932 322 941 327.5Q950 333 951 333ZM621 -225H514Q488 -132 443 20Q428 95 413 169Q388 271 329 300Q287 311 214 332H363Q370 333 371 327.5Q372 322 379 322Q384 322 400 327Q413 330 419 327Q417 309 421 277Q447 220 494 114Q507 84 547 -48Q578 -149 621 -225Z"/>
</svg>