<svg xmlns="http://www.w3.org/2000/svg" viewBox="0 -2048 2048 2048">
	<path fill="currentColor" d="M1550 -775Q1549 -775 1543.5 -772Q1538 -769 1531 -769Q1507 -769 1456 -853Q1432 -896 1432 -967Q1432 -990 1435 -1036.5Q1438 -1083 1438 -1104Q1438 -1215 1363 -1255Q1331 -1272 1223 -1272Q1217 -1272 1124.5 -1264.5Q1032 -1257 1026 -1257Q999 -1257 982 -1287Q967 -1312 967 -1343Q967 -1367 977 -1377Q981 -1375 946 -1375Q934 -1375 907 -1387Q874 -1401 874 -1418Q874 -1445 912 -1466Q944 -1483 967 -1483Q985 -1483 1012 -1471Q1043 -1457 1047 -1439Q1050 -1426 1041.5 -1395Q1033 -1364 1033 -1363V-1343Q1052 -1335 1082 -1339Q1299 -1364 1306 -1364Q1329 -1364 1395 -1345.5Q1461 -1327 1488 -1292Q1526 -1243 1526 -1180Q1526 -1174 1513.5 -1094Q1501 -1014 1501 -1008Q1501 -912 1550 -803ZM1423 318H465Q462 312 454 301L633 202Q543 -110 501 -273Q502 -269 508 -325Q493 -358 459 -460Q491 -459 526 -460L349 -928L268 -344H249Q249 -349 254 -381Q241 -389 220 -389Q199 -389 197 -378Q193 -358 191 -355Q183 -354 178 -354Q170 -362 177 -391Q166 -393 134 -400Q129 -390 119 -369Q107 -369 100 -380L338 -1015L528 -523Q536 -538 536 -562V-863Q413 -907 413 -982Q413 -1010 441 -1049Q472 -1092 505 -1092Q527 -1092 560 -1080Q601 -1065 611 -1045Q616 -1015 634 -963Q653 -946 690 -910L677 -897Q666 -902 609 -952Q606 -1067 513 -1067Q481 -1067 457 -1033Q438 -1004 438 -980Q438 -895 556 -886V-460Q577 -457 612 -438Q706 -322 897 -87Q907 -140 924 -433Q932 -571 948 -625Q981 -737 1075 -773V-817Q1059 -826 1039 -826Q1019 -826 1014 -812Q997 -773 965 -692Q950 -708 910 -735Q977 -829 977 -849Q977 -855 949 -905.5Q921 -956 921 -962Q921 -967 932 -986Q946 -1009 950.5 -1020Q955 -1031 994 -1147Q1009 -1192 1071 -1231Q1128 -1267 1172 -1267Q1307 -1267 1354 -1210Q1371 -1190 1388 -1137Q1403 -1089 1403 -1064Q1403 -997 1341.5 -897.5Q1280 -798 1280 -787Q1280 -781 1308 -674.5Q1336 -568 1336 -562V-17Q1336 45 1280 213Q1343 251 1423 318ZM1515 -813Q1475 -940 1475 -987Q1475 -993 1488 -1084.5Q1501 -1176 1501 -1182Q1501 -1260 1438 -1303Q1385 -1339 1306 -1339L1057 -1313Q1004 -1313 1004 -1347Q1004 -1357 1009.5 -1380Q1015 -1403 1015 -1414Q1015 -1448 972 -1455Q975 -1452 977 -1444.5Q979 -1437 982 -1434Q956 -1421 955 -1421Q952 -1424 948 -1430Q944 -1436 941 -1439Q951 -1449 947 -1457Q914 -1448 905 -1429V-1412Q929 -1400 946 -1400Q952 -1400 972 -1403Q992 -1406 999 -1406Q1001 -1400 1001 -1391Q1001 -1381 997.5 -1358Q994 -1335 994 -1324Q994 -1282 1034 -1282L1229 -1298Q1437 -1298 1458 -1166Q1463 -1135 1463 -1107Q1463 -1084 1458.5 -1041.5Q1454 -999 1454 -972Q1454 -949 1456 -925Q1462 -861 1515 -813ZM1383 -1069Q1383 -1102 1362 -1147Q1341 -1192 1325 -1203Q1296 -1224 1268 -1229Q1204 -1241 1172 -1241Q1041 -1241 998 -1078L1201 -1072Q1244 -1087 1244 -1087Q1285 -1087 1285 -1041Q1285 -1023 1264.5 -991.5Q1244 -960 1244 -931Q1244 -913 1261 -888Q1272 -872 1293 -872Q1302 -872 1325.5 -906Q1349 -940 1360.5 -966.5Q1372 -993 1375 -1018Q1383 -1077 1383 -1069ZM1362 291Q1321 265 1244 218Q1256 195 1283.5 107Q1311 19 1311 4V-572Q1311 -578 1285 -682Q1259 -786 1259 -792Q1259 -823 1275 -855Q1262 -860 1245 -871Q1223 -907 1223 -936Q1223 -966 1241 -1003Q1259 -1040 1259 -1036Q1259 -1049 1236 -1062Q1216 -1041 1205 -1041Q1206 -1041 1118.5 -1046Q1031 -1051 988 -1051Q975 -1012 946 -956Q973 -928 1004 -852Q1058 -852 1101 -838V-757Q1047 -740 1005 -684Q965 -632 958 -577Q948 -501 942 -359Q936 -206 929 -141Q928 -130 930 -104Q933 -81 930 -70Q925 -52 908 -40Q863 -89 782.5 -188Q702 -287 694 -296Q626 -369 584 -369Q560 -369 541 -337.5Q522 -306 526 -284L659 210Q626 243 520 291ZM622 -388Q600 -422 557 -430Q523 -435 490 -440Q495 -427 506.5 -396.5Q518 -366 523 -353Q549 -389 590 -389Q619 -389 622 -388ZM313 -877L141 -421Q134 -421 199 -416Q240 -413 258 -421ZM1085 -983Q1085 -980 1082 -974Q1079 -968 1079 -965Q1043 -968 982 -976Q1002 -991 1047 -1026Q1061 -1012 1085 -983Z"/>
</svg>