<svg xmlns="http://www.w3.org/2000/svg" viewBox="23.8 -1623.2 1528.3 2056.3">
	<path fill="currentColor" d="M1476 -1394Q1476 -1377 1414 -1322Q1362 -1276 1284 -1248Q1229 -1236 1124 -1199Q1159 -1167 1202 -1082Q1203 -1068 1207 -1039Q1226 -1006 1251 -925Q1272 -769 1272 -762Q1272 -672 1268 -637Q1260 -602 1246 -533Q1222 -404 1222 -357Q1222 -344 1235 -276Q1236 -273 1262 -165Q1278 -100 1278 -53Q1278 -16 1241 28Q1268 16 1272 16Q1299 16 1322 48Q1328 56 1328 73Q1328 78 1320 102Q1310 129 1309 135Q1299 199 1268 322Q1260 344 1203 347Q1241 345 1133 345Q1134 319 1134 296Q1143 292 1177 292Q1195 292 1204 281Q1211 212 1211 162Q1202 157 1197 157Q1197 157 1171 164Q1113 180 1019 222Q912 270 870 285Q684 349 583 349Q565 349 556 348Q538 329 521 310Q504 291 504 256Q504 271 518 220Q540 139 692 32Q672 23 633 4Q630 2 542 -55Q532 -4 505 95Q502 103 433 256Q434 261 439.5 277.5Q445 294 445 302Q445 323 429 340Q413 357 392 357Q370 357 349 337Q343 338 326.5 347.5Q310 357 303 357H100V329Q100 316 108 295Q186 283 200 280Q248 269 287.5 246Q327 223 335 191Q338 179 345 101Q352 15 358 -71Q369 -187 385 -233Q389 -245 410.5 -261Q432 -277 444 -277Q516 -277 650 -201Q748 -142 846 -83Q859 -190 859 -188Q859 -267 835 -420.5Q811 -574 811 -653Q811 -662 820 -683Q835 -718 846 -741Q851 -752 903 -800Q948 -842 948 -867Q948 -854 943 -889Q903 -883 909 -883Q898 -883 876.5 -886Q855 -889 844 -889Q771 -889 720 -868Q714 -866 689 -849Q671 -836 656 -836Q642 -836 614 -852Q586 -868 569 -868Q563 -868 558 -867V-947Q558 -973 580 -991Q601 -1005 622 -1020Q638 -1043 673 -1087Q733 -1141 853 -1250Q835 -1267 799 -1302Q789 -1312 749 -1365Q736 -1382 704 -1442Q670 -1507 670 -1519Q670 -1547 693 -1547Q732 -1547 817 -1484Q892 -1429 926 -1388Q947 -1353 990 -1285Q1035 -1282 1053 -1271Q1065 -1264 1067 -1264Q1079 -1264 1139 -1320Q1244 -1418 1348 -1418Q1464 -1418 1470 -1412Q1476 -1406 1476 -1394ZM958 -1290Q941 -1321 903 -1377Q872 -1415 806 -1464Q731 -1522 696 -1524Q694 -1523 693 -1518Q697 -1492 758 -1391Q790 -1338 874 -1265Q925 -1293 938 -1293Q943 -1293 958 -1290ZM1450 -1387V-1392Q1444 -1394 1434 -1394H1335Q1329 -1389 1315 -1379Q1224 -1309 1035 -1179H1001L1277 -1381Q1239 -1370 1115 -1267Q1099 -1254 1056 -1229Q1026 -1212 993 -1173Q1002 -1223 1045 -1250Q1022 -1261 997 -1261Q995 -1261 990.5 -1259.5Q986 -1258 984 -1258Q977 -1258 962.5 -1264Q948 -1270 941 -1270Q896 -1254 889 -1249Q887 -1247 882 -1242Q822 -1186 731 -1111Q704 -1078 648 -1011Q645 -1008 612 -987Q583 -968 583 -960V-886Q570 -885 613 -885Q617 -885 673 -917H707Q669 -889 631 -869Q651 -859 656 -859Q658 -859 677 -870Q722 -896 754 -902Q808 -912 842 -912Q852 -912 873 -909Q894 -906 904 -906Q942 -906 960 -917Q988 -940 1035 -977Q997 -912 965 -895Q970 -870 970 -868Q970 -838 929 -795Q897 -763 866 -730Q838 -691 838 -537Q838 -533 840 -523Q862 -419 872 -341Q882 -263 882 -187Q882 -187 868 -81Q898 -96 959 -124Q1087 -180 1222 -213Q1220 -226 1209 -288Q1199 -339 1199 -357Q1199 -386 1238 -596Q1241 -609 1245 -635Q1249 -693 1249 -776Q1249 -825 1224 -943Q1221 -959 1202 -993Q1186 -1021 1186 -1050Q1186 -1073 1102 -1189Q1082 -1175 1057 -1143Q1056 -1148 1056 -1152Q1056 -1196 1116 -1222Q1135 -1231 1214 -1252Q1327 -1282 1374 -1319L1397 -1337Q1420 -1353 1450 -1387ZM1305 71Q1305 63 1292 52Q1279 41 1271 41Q1259 41 1237 51Q1215 61 1204 62Q1178 70 1125 82Q1045 92 965 101Q885 114 810 145Q799 149 738 183Q682 213 677 213Q673 213 675 206Q672 208 670 208Q668 208 668 207Q756 129 887 98Q900 93 926 85Q930 84 1073 67Q1179 54 1209 36Q1212 34 1218 21Q1220 17 1241 -11Q1255 -30 1255 -56Q1255 -129 1230 -194Q1057 -150 894 -66Q858 -51 791 -15Q721 34 690 59Q637 102 600 146Q582 161 554 195Q527 240 527 256Q527 281 540 296Q553 311 567 325Q584 326 594 326Q687 326 871 260Q965 216 1159 145Q1199 134 1197 134Q1215 134 1234 148Q1234 194 1226 284Q1220 321 1156 317V320H1233L1248 311Q1262 239 1297 97Q1305 71 1305 71ZM833 -63Q737 -121 641 -178Q508 -252 444 -252Q417 -252 407 -225Q391 -180 385 -110Q380 -52 376 7Q369 69 365 118Q364 147 355 203Q340 254 257 286Q192 311 126 313Q126 321 124 334H303Q306 334 324 324Q342 314 349 314Q353 314 365 323Q377 332 392 332Q422 332 422 300Q422 292 416 276.5Q410 261 410 253Q410 248 440 184Q456 150 486 81Q489 73 520 -66Q522 -77 533 -87Q561 -69 616 -33Q643 -19 697 9Q710 16 712 16Q714 16 738 -3Q792 -45 833 -63ZM898 -1113Q894 -1099 885 -1090Q882 -1093 877 -1098L875 -1099Q874 -1095 873 -1093Q857 -1084 842 -1084Q817 -1084 801 -1088Q815 -1128 850 -1128Q838 -1128 898 -1113ZM675 -927Q623 -916 625 -896Q608 -900 600 -908Q603 -917 620 -939Z"/>
</svg>