<svg xmlns="http://www.w3.org/2000/svg" viewBox="0 -2048 2048 2048">
	<path fill="#000000" d="M1190 378H100L371 257Q319 104 227 -204Q227 -241 222 -315Q209 -361 183 -453Q197 -462 229 -459L150 -1033Q150 -1058 174.5 -1080Q199 -1102 224 -1102Q319 -1102 319 -1021Q319 -1011 307.5 -988Q296 -965 288.5 -963Q281 -961 269 -957L410 -630Q359 -613 348 -608Q310 -592 293 -574Q268 -546 268 -521Q268 -510 269 -489Q270 -468 270 -459Q290 -454 310 -450Q333 -443 344 -429Q352 -405 376 -363Q387 -355 408 -337Q492 -234 660 -29L682 -440H667Q633 -440 593 -435L585 -443L584 -472Q579 -613 647 -745Q660 -761 673 -779Q673 -786 646 -817.5Q619 -849 610 -854Q596 -860 570 -875Q550 -889 528 -918Q511 -943 494 -968Q486 -972 470.5 -982Q455 -992 440 -1004Q422 -1018 406 -1018Q402 -1018 394 -1017Q386 -1016 381 -1016Q387 -1060 438 -1091Q524 -1141 524 -1141Q568 -1180 660 -1201Q599 -1220 557 -1258Q523 -1220 512 -1215Q496 -1206 450 -1206Q418 -1206 400 -1218Q354 -1249 354 -1355Q354 -1392 407 -1430Q381 -1438 352 -1455Q355 -1469 367 -1495Q415 -1506 426 -1506Q453 -1506 476 -1490Q499 -1474 496 -1449L495 -1439Q494 -1430 475 -1379Q456 -1328 456 -1299Q456 -1266 482 -1266Q527 -1266 527 -1302Q527 -1316 519.5 -1345Q512 -1374 512 -1388Q512 -1447 550 -1497Q588 -1547 645 -1568Q675 -1579 724 -1579Q792 -1579 840 -1559Q906 -1531 925 -1479Q931 -1462 960 -1347Q978 -1276 1017 -1213Q1004 -1204 997 -1205Q936 -1249 924 -1286Q901 -1233 806 -1197Q857 -1198 932 -1152Q1002 -1109 1036 -1065Q1081 -1005 1120 -853Q1130 -814 1130 -808V-441H1039V213Q1039 227 1015 265ZM966 -1258Q961 -1276 946 -1318V-1308Q946 -1277 966 -1258ZM925 -1373Q925 -1419 903 -1471Q888 -1506 846 -1527Q837 -1533 826 -1540Q811 -1543 780 -1550Q757 -1556 757 -1556Q714 -1556 691 -1554Q630 -1549 582.5 -1499Q535 -1449 535 -1388Q535 -1336 544 -1315Q589 -1209 747 -1209Q816 -1209 870.5 -1257Q925 -1305 925 -1373ZM540 -1278L539 -1279Q513 -1240 481 -1240Q463 -1240 448 -1259Q433 -1278 433 -1297Q433 -1319 452 -1381Q454 -1387 465 -1408Q472 -1422 472 -1437Q472 -1483 426 -1483Q419 -1483 380 -1475L379 -1467Q403 -1451 455 -1444Q464 -1438 462 -1430L461 -1426Q377 -1403 377 -1352Q377 -1295 414 -1236Q447 -1230 466 -1230Q507 -1230 540 -1278ZM1107 -464V-824Q1107 -863 1070 -961Q1030 -1068 931 -1123Q842 -1173 807 -1173Q848 -1123 848 -1054Q848 -980 816 -925Q801 -899 734 -822Q710 -795 669 -736Q630 -664 613 -537Q613 -534 610.5 -527Q608 -520 608 -516Q608 -448 609 -463H682Q687 -528 693 -592Q703 -683 723 -711Q758 -760 813 -782Q831 -789 858 -789Q914 -789 946 -759Q1004 -705 1020 -646Q1039 -577 1040 -465Q1057 -465 1107 -464ZM825 -1054Q825 -1086 811 -1121Q795 -1163 770 -1173Q753 -1180 668 -1180Q649 -1180 598 -1163Q573 -1145 527 -1111Q488 -1095 419 -1046Q454 -1054 458 -1054Q511 -1054 511 -1034Q510 -1032 509 -1029L501 -1021Q463 -1031 458 -1031Q454 -1031 444 -1028Q454 -1023 512 -981Q527 -956 564 -910Q589 -887 613 -879Q641 -869 688 -800Q735 -857 781 -914Q825 -976 825 -1054ZM381 -645L241 -962Q241 -969 249 -976Q296 -981 296 -1022Q296 -1045 278.5 -1062Q261 -1079 238 -1079Q191 -1079 177 -1040Q175 -1035 173 -1027L245 -530Q248 -605 381 -645ZM1116 355Q989 279 989 267Q989 261 1001 241Q1013 221 1013 219V-529Q1013 -593 997 -642Q994 -653 948 -722Q920 -764 870 -764Q828 -764 815 -757Q760 -727 741 -699Q727 -678 718 -619Q705 -529 697 -340Q693 -225 683 5L672 19Q578 -102 380 -332Q348 -365 318 -365Q243 -365 243 -284Q243 -225 272 -130Q296 -53 321 23Q347 105 397 268L197 355ZM346 -380Q323 -438 227 -438H212L237 -345Q264 -388 318 -388Q328 -388 346 -380ZM656 -1100Q629 -1073 622 -1073Q616 -1073 585 -1094Q607 -1130 621 -1130Q626 -1130 656 -1100ZM624 -1099L621 -1104L618 -1101L619 -1099Z"/>
</svg>