<svg xmlns="http://www.w3.org/2000/svg" viewBox="0 -2048 2048 2048">
	<path fill="#000000" d="M1274 385H211Q214 377 225 363Q327 320 456 264Q406 113 316 -192Q308 -223 308 -275Q308 -300 310 -315Q308 -324 248 -435Q267 -441 293 -441Q309 -441 319 -439Q310 -486 299 -536Q226 -543 195 -553Q133 -572 114 -615Q100 -647 100 -723Q100 -757 111 -867Q131 -1066 146 -1270Q150 -1278 170 -1287L181 -1278Q266 -864 360 -434Q380 -434 404 -415Q481 -353 583 -227Q665 -124 746 -21L768 -429L751 -430Q724 -432 680 -425L672 -432Q670 -452 670 -465Q670 -519 691 -611Q715 -712 741 -744Q759 -766 759 -768Q759 -777 733 -806.5Q707 -836 697 -842Q632 -877 610 -909Q600 -926 577 -959Q577 -959 568 -962.5Q559 -966 533 -988Q512 -1006 494 -1006Q490 -1006 481 -1004.5Q472 -1003 467 -1003Q481 -1049 531 -1080Q616 -1130 619 -1133Q663 -1170 710 -1180Q722 -1182 746 -1187Q688 -1205 644 -1245Q612 -1209 605 -1205Q587 -1193 549 -1193Q508 -1193 488.5 -1203.5Q469 -1214 455 -1266Q442 -1310 442 -1339Q442 -1377 496 -1414Q469 -1423 440 -1440Q443 -1454 454 -1480Q502 -1491 514 -1491Q583 -1491 583 -1434Q583 -1411 563 -1362.5Q543 -1314 543 -1285Q543 -1252 570 -1252Q614 -1252 614 -1288Q614 -1302 606.5 -1331Q599 -1360 599 -1374Q599 -1459 663 -1513Q724 -1564 810 -1564Q873 -1564 925 -1544Q994 -1518 1014 -1455Q1026 -1395 1060 -1278Q1071 -1248 1110 -1182Q1029 -1219 1010 -1274Q987 -1220 892 -1184Q905 -1184 918 -1181Q1046 -1148 1127 -1043Q1164 -995 1194 -883Q1215 -804 1215 -788V-431H1124V220Q1124 232 1099 272ZM1052 -1243Q1050 -1253 1031 -1303V-1293Q1031 -1263 1052 -1243ZM1010 -1359Q1010 -1398 991 -1451Q978 -1487 929 -1515Q884 -1541 843 -1541Q800 -1541 777 -1539Q717 -1534 669.5 -1484Q622 -1434 622 -1374Q622 -1309 640 -1283Q700 -1195 833 -1195Q900 -1195 955 -1244Q1010 -1293 1010 -1359ZM618 -1252Q597 -1229 568 -1229Q520 -1229 520 -1283Q520 -1346 558 -1403L560 -1404Q560 -1468 511 -1468Q505 -1468 468 -1460L466 -1452Q489 -1436 543 -1429Q549 -1425 549 -1415V-1411Q465 -1387 465 -1338Q465 -1317 476 -1276Q488 -1229 500 -1222.5Q512 -1216 553 -1216Q592 -1216 618 -1252ZM1192 -454V-806Q1192 -846 1152 -955Q1109 -1073 986 -1129Q920 -1159 893 -1159Q934 -1108 934 -1041Q934 -966 901 -910Q888 -889 817 -805Q763 -741 744 -700Q730 -669 709 -578Q695 -518 695 -506Q695 -438 696 -453H768Q779 -660 809 -700Q814 -707 870 -750Q906 -778 943 -778Q1000 -778 1032 -748Q1091 -693 1105 -631Q1109 -615 1116 -540Q1125 -448 1125 -454Q1192 -454 1192 -454ZM910 -1040Q910 -1070 896 -1108Q880 -1152 856.5 -1159Q833 -1166 784 -1166Q708 -1166 662 -1138Q645 -1123 607 -1095Q570 -1080 507 -1033Q543 -1041 545 -1041Q598 -1041 598 -1021Q597 -1019 596 -1016L588 -1008Q550 -1018 545 -1018Q544 -1018 533 -1015Q541 -1010 599 -969Q599 -969 612 -944Q633 -903 680 -874Q681 -873 700 -867Q727 -858 774 -789Q822 -845 870 -901Q910 -956 910 -1040ZM305 -556L168 -1220L123 -746Q122 -735 122 -713Q122 -652 135 -623Q156 -577 232 -566Q257 -565 305 -556ZM1198 361Q1132 319 1072 280Q1098 228 1098 226V-515Q1098 -580 1082 -631Q1079 -639 1033 -710Q1005 -752 955 -752Q913 -752 901 -745Q844 -712 827 -687Q813 -666 804 -608Q791 -522 783 -309Q779 -202 769 13L759 26Q697 -46 580 -188Q535 -246 468 -322Q427 -355 406 -355Q331 -355 331 -292Q331 -218 362 -113Q390 -26 418 61Q441 132 485 274L286 361ZM409 -378Q367 -420 282 -419L324 -336Q360 -382 409 -378ZM737 -1075Q707 -1060 709 -1060Q718 -1060 676 -1074V-1078Q676 -1089 685.5 -1102.5Q695 -1116 706 -1116Q714 -1116 737 -1093ZM712 -1087L710 -1090H703L702 -1088Q705 -1086 709 -1086Q709 -1086 712 -1087Z"/>
</svg>