<svg xmlns="http://www.w3.org/2000/svg" viewBox="0 -2048 2048 2048">
	<path fill="#000000" d="M1184 368L119 364Q167 346 390 247Q340 96 251 -208Q246 -227 246 -317Q246 -326 223 -377Q195 -437 193 -443H240V-893Q220 -896 181 -904Q148 -914 124 -948.5Q100 -983 100 -1018Q100 -1071 136.5 -1103.5Q173 -1136 226 -1136Q270 -1136 301.5 -1106.5Q333 -1077 333 -1033Q333 -1048 318 -966Q340 -943 379 -896L367 -884Q295 -952 295 -964Q295 -975 302.5 -998Q310 -1021 310 -1032Q310 -1113 227 -1113Q184 -1113 154 -1089Q123 -1062 123 -1020Q123 -917 253 -917L264 -906L259 -443Q309 -443 326 -439Q352 -433 377 -407Q385 -391 404 -362Q414 -353 433 -335Q514 -235 678 -35L699 -440H683Q646 -440 613 -435L604 -443Q603 -461 603 -475Q603 -531 623 -620Q645 -719 672 -752Q691 -776 691 -775Q691 -782 669.5 -808.5Q648 -835 640 -841Q626 -848 598 -863Q566 -885 514 -961Q513 -963 498 -970Q493 -972 465 -994Q444 -1011 429 -1011Q424 -1011 414.5 -1010Q405 -1009 400 -1009Q416 -1059 460 -1083Q535 -1124 540 -1129Q573 -1157 586 -1165Q607 -1177 642 -1184Q655 -1186 680 -1191Q621 -1208 576 -1249Q560 -1232 544 -1215Q525 -1197 503 -1197Q437 -1197 421 -1208Q376 -1239 376 -1343Q376 -1378 430 -1417Q398 -1428 375 -1441Q377 -1455 384 -1483Q442 -1493 449 -1493Q516 -1493 516 -1436Q516 -1414 496.5 -1365.5Q477 -1317 477 -1288Q477 -1256 503 -1256Q547 -1256 547 -1291Q547 -1305 539.5 -1333.5Q532 -1362 532 -1376Q532 -1460 596 -1514Q656 -1565 741 -1565Q853 -1565 908 -1510Q938 -1480 951 -1431Q960 -1381 989 -1282Q1000 -1253 1031 -1203Q1018 -1194 1010 -1195Q951 -1240 939 -1276Q922 -1237 891 -1218Q876 -1208 820 -1187L826 -1188Q873 -1196 950 -1146Q1017 -1102 1053 -1055Q1103 -990 1119 -901Q1121 -891 1132 -855Q1142 -826 1142 -810V-444Q1077 -441 1055 -443L1052 199Q1052 213 1030 255L1184 349ZM981 -1243Q976 -1261 961 -1303V-1293Q961 -1262 981 -1243ZM939 -1363Q939 -1410 918 -1458Q893 -1516 818 -1531Q765 -1542 774 -1542Q749 -1542 708 -1541Q667 -1540 618 -1501Q569 -1462 561 -1423Q555 -1395 555 -1376Q555 -1319 570 -1292Q588 -1259 646 -1229Q704 -1199 744 -1199H792Q805 -1199 852 -1224Q939 -1270 939 -1363ZM558 -1264Q535 -1233 503 -1233Q454 -1233 454 -1286Q454 -1320 473.5 -1373.5Q493 -1427 493 -1426Q493 -1470 446 -1470Q444 -1470 402 -1461L401 -1454Q426 -1438 476 -1431Q482 -1427 482 -1417V-1413Q455 -1408 429 -1388Q399 -1365 399 -1340Q399 -1220 462 -1220Q507 -1220 519 -1225Q537 -1232 558 -1264ZM1119 -465V-819Q1119 -854 1083 -955Q1043 -1066 937 -1120Q899 -1141 822 -1166Q864 -1118 864 -1047Q864 -959 831 -914Q763 -822 696 -731Q627 -620 627 -516Q627 -448 628 -463H699Q711 -673 741 -708Q809 -785 873 -785Q929 -785 958 -759Q1021 -701 1033 -643Q1051 -554 1053 -465Q1105 -465 1119 -465ZM841 -1047Q841 -1173 741 -1173Q638 -1173 594 -1143Q577 -1128 540 -1100Q506 -1088 443 -1040Q471 -1046 479 -1046Q521 -1046 535 -1019Q526 -1019 507.5 -1021Q489 -1023 480 -1023Q476 -1023 466 -1021Q470 -1018 532 -974Q550 -944 597 -893Q611 -886 638.5 -869.5Q666 -853 705 -797Q750 -853 795 -908Q841 -968 841 -1047ZM1122 341Q1071 310 1000 263Q1026 211 1026 210V-528Q1026 -594 1011 -640Q1009 -647 963 -718Q936 -760 888 -760Q843 -760 834 -756Q783 -733 758 -696Q744 -675 735 -617Q724 -547 717 -365Q713 -241 699 6Q686 6 682 2Q622 -71 501 -215Q465 -260 428 -305Q374 -366 341 -366Q266 -366 266 -303Q266 -228 299 -122Q328 -33 356 55Q374 122 419 258L228 341ZM364 -384Q337 -420 277 -420H226L257 -344Q285 -389 341 -389Q349 -389 364 -384ZM670 -1092Q658 -1068 641 -1068Q631 -1068 604 -1086Q627 -1121 638 -1121Q651 -1121 670 -1092ZM643 -1091L637 -1097L634 -1093Q637 -1091 641 -1091Z"/>
</svg>