<svg xmlns="http://www.w3.org/2000/svg" viewBox="20 -1661 1437 2160">
	<path fill="currentColor" d="M1377 -630Q1377 -581 1319 -387Q1290 -290 1290 -306Q1290 -294 1297.5 -270Q1305 -246 1305 -234Q1305 -210 1288 -158Q1269 -99 1252 -99Q1260 -99 1225 -102Q1242 -178 1242 -251H1239Q1238 -251 1221 -211H1171Q1178 -241 1185.5 -271.5Q1193 -302 1218 -324Q1214 -343 1214 -374Q1214 -438 1230 -539Q1240 -569 1257 -630Q1247 -651 1230 -694Q1215 -751 1170 -858Q1128 -774 1128 -712Q1128 -673 1157.5 -603.5Q1187 -534 1187 -495Q1187 -465 1167 -408Q1147 -351 1147 -321Q1147 -299 1152.5 -255.5Q1158 -212 1158 -190Q1158 -183 1156.5 -169.5Q1155 -156 1155 -149Q1155 -122 1176 -72.5Q1197 -23 1197 -7Q1197 2 1203 20Q1209 38 1209 47V154Q1209 159 1212 169Q1215 179 1215 184V331Q1215 337 1223 353.5Q1231 370 1231 378Q1231 419 1188 419Q1174 419 1152 410Q1130 401 1131 401Q1128 401 1119 408.5Q1110 416 1106 416L906 412Q916 389 917 367Q926 357 1025 341Q1109 327 1109 271Q1109 72 1047 -47Q1036 -91 1003 -176H928Q932 -176 888 -172Q836 -106 825 -47Q823 -16 813 44Q798 93 763 160Q733 216 703 272Q685 308 685 328Q685 333 689.5 341Q694 349 694 354Q694 416 642 416Q629 416 614 408.5Q599 401 600 401Q593 401 581 408.5Q569 416 562 416L368 413Q366 403 366 391Q366 404 367 360Q453 355 484 347Q555 332 581 289Q589 276 608 213Q620 175 644 98Q660 62 685 -13Q688 -25 689 -51Q691 -91 708 -131Q734 -191 738 -203Q740 -219 746 -252Q752 -264 763 -290Q773 -332 796 -414Q826 -488 884 -636L809 -863Q746 -801 682 -738Q600 -659 547 -631Q515 -627 506 -627Q469 -627 253 -899L248 -878H211Q208 -893 202 -924Q147 -951 147 -997Q147 -1033 189 -1055L182 -1062Q192 -1073 205 -1095Q171 -1114 136 -1133Q100 -1157 100 -1198Q100 -1235 151 -1377Q185 -1472 220 -1567L243 -1581L247 -1084Q257 -1073 277 -1052Q288 -1030 314 -988Q344 -950 414 -882Q484 -814 515 -775Q525 -778 533 -786Q552 -809 590 -853Q696 -972 773 -1031Q807 -1057 873 -1059Q891 -1090 891 -1100Q891 -1136 865 -1159Q839 -1182 773 -1182Q743 -1182 682.5 -1180Q622 -1178 592 -1178Q573 -1178 547 -1224Q546 -1247 632 -1256Q732 -1266 744 -1273Q748 -1275 786 -1319Q812 -1349 881 -1359Q895 -1393 895 -1443Q895 -1477 888 -1496L892 -1572Q926 -1554 946 -1513Q948 -1510 976 -1437Q1004 -1511 996 -1579H1015Q1046 -1534 1060 -1439L1039 -1341Q1095 -1319 1142 -1262.5Q1189 -1206 1198 -1147Q1204 -1106 1206 -1047H1207Q1254 -1034 1287 -951Q1288 -948 1327 -823Q1343 -776 1359 -728Q1377 -672 1377 -630ZM971 -1423Q958 -1423 939 -1468Q916 -1521 911 -1527Q911 -1525 910 -1520Q910 -1507 915.5 -1483Q921 -1459 921 -1446Q921 -1432 914 -1405Q907 -1378 907 -1364Q918 -1364 937 -1370Q953 -1381 971 -1423ZM1182 -1054V-1085Q1182 -1225 1075 -1297Q1056 -1305 1038 -1314Q1012 -1326 1012 -1337Q1012 -1355 1024.5 -1388.5Q1037 -1422 1037 -1440Q1037 -1487 1021 -1519Q1009 -1449 976 -1386Q956 -1348 916 -1343Q848 -1334 842 -1332Q814 -1323 783 -1285Q773 -1270 746 -1248Q725 -1238 578 -1227L574 -1224Q589 -1201 596 -1201Q626 -1201 684.5 -1203Q743 -1205 773 -1205Q819 -1205 849 -1193.5Q879 -1182 890 -1161Q899 -1136 909 -1111Q914 -1101 914 -1097Q914 -1090 902 -1068Q889 -1043 887 -1038Q865 -974 865 -886Q876 -887 884 -887Q890 -887 910 -886Q918 -938 936 -1043L944 -1053Q971 -1046 982 -1046Q994 -1046 1016 -1054Q1038 -1062 1050 -1062Q1060 -1062 1062 -1055V-1054Q1063 -1051 1063 -886H1108V-1053Q1115 -1062 1125 -1062L1131 -1057L1155 -1059Q1163 -1056 1182 -1054ZM222 -1498Q123 -1222 123 -1199Q123 -1170 160 -1145Q190 -1129 221 -1112ZM1161 -492Q1161 -527 1143 -575Q1128 -614 1113 -654H1108Q1090 -654 901 -616Q872 -548 819 -409Q810 -364 783 -276Q779 -269 771 -254Q767 -246 761 -200H1135Q1124 -284 1124 -331Q1124 -376 1131 -391Q1140 -402 1154 -425Q1161 -442 1161 -492ZM1353 -630Q1353 -662 1301 -828Q1288 -882 1246 -983Q1221 -1024 1195 -1029Q1143 -1038 1135 -1042V-869L1124 -864L1125 -863Q1017 -862 1036 -862V-1034Q977 -1023 982 -1023Q971 -1023 957 -1027Q939 -921 926 -861Q901 -863 851 -866Q840 -874 841 -883L862 -1032H841Q788 -1032 619 -851Q594 -822 570 -794Q542 -763 511 -745Q508 -748 455 -809Q397 -861 294 -975Q286 -995 264 -1032Q282 -1004 282 -990Q282 -966 248 -941Q323 -845 363 -799Q399 -755 435 -712Q490 -652 521 -652H537Q598 -688 678 -766Q786 -870 811 -891Q835 -885 907 -641L1107 -677Q1105 -690 1105 -704Q1105 -746 1124 -807Q1144 -873 1170 -898Q1200 -855 1250 -708Q1280 -620 1280 -631Q1280 -622 1268 -586Q1255 -546 1253 -537Q1242 -483 1242 -316Q1226 -300 1210 -283Q1205 -277 1201 -237H1209Q1221 -274 1236 -274Q1252 -274 1268 -263V-238Q1268 -243 1249 -122H1250Q1282 -174 1282 -233Q1282 -246 1274 -270Q1266 -294 1266 -307Q1266 -294 1296 -391Q1303 -425 1318 -493Q1319 -498 1338 -564Q1353 -617 1353 -630ZM242 -1052L224 -1065L216 -1064Q225 -1060 242 -1052ZM255 -990Q255 -1005 241.5 -1023.5Q228 -1042 214 -1042Q204 -1042 188 -1028.5Q172 -1015 172 -1005Q172 -953 205 -953Q255 -953 255 -990ZM1207 375Q1207 370 1198 350.5Q1189 331 1189 324V147Q1189 130 1186 96Q1183 62 1183 45Q1183 14 1166 -30Q1143 -93 1140 -103Q1131 -136 1130 -176H1030Q1038 -146 1054 -87Q1066 -64 1084 -15Q1135 174 1135 254Q1135 330 1068 353Q1003 365 939 378L937 390H1108Q1121 374 1131 374Q1135 374 1151 385Q1167 396 1185 396Q1207 396 1207 375ZM860 -173H748Q736 -149 720 -100Q717 -66 705 0Q639 236 599 302Q551 381 389 380L388 390H574Q577 390 587 382Q597 374 603 374Q602 374 616.5 382.5Q631 391 654 390Q670 369 670 360Q670 356 666 348Q662 340 662 336Q662 299 685 256Q718 195 751 133Q788 62 799 3Q798 8 798 -36Q798 -72 860 -173ZM939 -1250H847Q888 -1291 904 -1291Q922 -1291 939 -1250Z"/>
</svg>