<svg xmlns="http://www.w3.org/2000/svg" viewBox="0 -2048 2048 2048">
	<path fill="#000000" d="M1843 -1167Q1843 -1124 1793 -1096Q1767 -1081 1740 -1067Q1747 -1058 1761 -1039L1756 -1029Q1798 -1012 1798 -973Q1798 -905 1740 -903Q1739 -887 1735 -856H1698L1694 -879Q1489 -613 1444 -613H1427Q1403 -613 1386 -626Q1340 -661 1149 -845Q1104 -760 1104 -693Q1104 -650 1133 -585Q1162 -520 1162 -484Q1162 -430 1148 -404Q1141 -396 1130 -376Q1119 -356 1119 -319Q1119 -331 1129 -208Q1130 -196 1130 -140Q1130 -122 1148 -79Q1169 -27 1172 -15Q1186 41 1186 317Q1186 323 1195 342.5Q1204 362 1204 370Q1204 410 1159 410Q1134 410 1106 392Q1094 400 1079 407L898 404Q896 394 896 382Q896 386 897 353Q931 345 978 337Q1036 328 1054 316Q1084 297 1084 246Q1084 171 1058 76Q1033 -7 1007 -89Q1002 -116 982 -171H908Q910 -171 870 -167Q807 -72 807 -9Q807 49 739.5 170Q672 291 672 322Q672 327 675.5 336.5Q679 346 679 351Q679 371 664 389Q649 407 629 407Q616 407 601.5 399.5Q587 392 588 392Q585 392 573.5 399.5Q562 407 556 407H353Q355 389 362 352Q463 346 475 344Q535 332 567 285Q580 266 623 140Q665 18 672 -16Q674 -27 678 -78Q681 -108 700 -147Q711 -166 725 -206Q726 -221 731 -250Q745 -299 776 -397Q806 -471 866 -619L792 -841Q725 -776 658 -712Q553 -613 524 -613H506Q491 -613 486 -615Q446 -630 249 -874L245 -856H209Q201 -878 199 -902Q145 -922 145 -973Q145 -1005 180 -1026Q183 -1036 203 -1067Q176 -1081 149 -1095Q100 -1122 100 -1168Q100 -1197 221 -1538Q235 -1539 244 -1531V-1050Q276 -1026 293 -988Q301 -971 390 -876Q504 -756 504 -756Q517 -764 532 -779Q603 -859 757 -1005Q790 -1031 855 -1033Q869 -1059 869 -1073Q869 -1152 751 -1152Q732 -1152 579 -1149Q556 -1158 536 -1192V-1209Q562 -1217 631 -1221Q694 -1225 723 -1239Q742 -1248 763.5 -1277.5Q785 -1307 800 -1315Q807 -1319 860 -1326Q874 -1352 874 -1414Q874 -1442 869 -1456L874 -1537Q909 -1507 924 -1477Q940 -1441 955 -1406Q980 -1474 974 -1560Q1038 -1464 1038 -1404Q1038 -1397 1017 -1308Q1071 -1289 1118 -1232Q1165 -1175 1173 -1119.5Q1181 -1064 1177 -1010L1437 -757Q1437 -757 1544 -862Q1616 -932 1639 -972Q1642 -985 1653 -1011Q1661 -1025 1699 -1050V-1538H1722Q1757 -1442 1791 -1346Q1843 -1200 1843 -1167ZM1820 -1167Q1820 -1200 1721 -1468V-1084Q1752 -1100 1782 -1116Q1820 -1140 1820 -1167ZM1730 -1039H1719Q1714 -1035 1703 -1027Q1712 -1032 1730 -1039ZM1771 -967Q1771 -1013 1728 -1013Q1715 -1013 1703.5 -996Q1692 -979 1692 -965Q1692 -930 1741 -930Q1771 -930 1771 -967ZM947 -1387L939 -1386Q927 -1421 894 -1485Q893 -1478 893 -1471Q893 -1460 895.5 -1439.5Q898 -1419 898 -1408Q898 -1397 888 -1331Q915 -1336 917 -1337.5Q919 -1339 932 -1359Q940 -1373 947 -1387ZM1157 -1021Q1154 -1060 1151 -1098Q1146 -1144 1132 -1173Q1114 -1209 1077 -1244Q1036 -1282 1000 -1289L989 -1298Q1014 -1389 1014 -1404Q1014 -1450 998 -1483Q991 -1420 966 -1370Q944 -1325 923 -1316Q912 -1310 861 -1308Q834 -1306 810 -1294Q794 -1285 767.5 -1253.5Q741 -1222 731 -1217Q709 -1207 564 -1197L562 -1195Q573 -1179 585 -1172Q746 -1175 753 -1175Q892 -1175 892 -1067Q892 -1058 881 -1039Q867 -1015 865 -1011Q847 -965 847 -865Q863 -867 891 -864Q896 -907 901 -951Q911 -1014 925 -1028Q945 -1021 958 -1021Q971 -1021 1027 -1037L1038 -1027V-864H1084V-1026Q1084 -1039 1091 -1039Q1094 -1039 1099 -1035Q1119 -1033 1157 -1021ZM1699 -916Q1668 -932 1668 -975Q1668 -986 1689 -1015Q1672 -1001 1667 -985Q1662 -962 1656 -954Q1622 -903 1552 -836Q1454 -744 1438 -726Q1427 -733 1407 -749Q1407 -749 1269 -893Q1159 -1007 1135 -1007H1106V-841H1014V-1008Q962 -998 961 -998Q950 -998 936 -1002Q930 -947 903 -840Q880 -842 833 -844Q822 -852 824 -864L844 -1007H823Q757 -1007 590 -812Q570 -788 550 -764Q526 -738 501 -727Q439 -791 376 -855Q282 -954 273 -981Q275 -971 275 -956Q275 -941 244 -916Q314 -826 464 -656Q485 -635 501 -635Q491 -635 527 -636Q582 -671 652 -738Q710 -794 768 -850Q783 -863 793 -869Q800 -870 807 -863Q820 -850 888 -625L1084 -660Q1084 -668 1083 -685Q1083 -700 1083 -709Q1083 -737 1104 -799Q1127 -869 1147 -869Q1158 -869 1246 -783Q1346 -685 1414 -636H1447Q1494 -665 1578 -766Q1638 -841 1699 -916ZM217 -1460Q123 -1196 123 -1170Q123 -1142 157 -1118Q186 -1101 215 -1085ZM1136 -479Q1136 -513 1118 -560Q1103 -598 1088 -637H1084Q1054 -637 879 -599Q850 -531 799 -393Q791 -352 767 -272Q762 -263 753 -245Q750 -227 743 -192H1107Q1096 -318 1096 -327Q1096 -361 1108 -378Q1125 -405 1129 -417Q1136 -440 1136 -479ZM248 -967Q248 -983 237 -999.5Q226 -1016 211 -1016Q204 -1016 189 -1004.5Q174 -993 172 -987Q169 -978 169 -961Q169 -930 202 -930Q248 -930 248 -967ZM224 -882V-896H223V-882ZM1178 381Q1178 369 1170.5 347Q1163 325 1163 317V156Q1163 148 1160 132Q1157 116 1157 108V26Q1157 -2 1131.5 -69Q1106 -136 1105 -171H1008Q1016 -133 1041 -60Q1066 -11 1087 90Q1107 186 1107 247Q1107 322 1045 346Q982 358 919 370L917 381H1083Q1098 366 1105 366Q1110 366 1126 376.5Q1142 387 1159 387Q1169 387 1178 381ZM841 -168H733Q718 -138 700 -73Q700 -53 694 -14Q683 26 623 205Q597 282 577 310Q544 354 480 367Q447 369 381 374V381H559Q579 366 588 366Q589 366 605 374Q621 382 639 381Q656 368 656 349Q656 345 652.5 339Q649 333 649 329Q649 299 676 246Q698 206 720 166Q763 81 777 27Q780 16 780 -24Q780 -78 841 -168ZM923 -1220H831Q865 -1260 885 -1260Q896 -1260 923 -1220Z"/>
</svg>