<svg xmlns="http://www.w3.org/2000/svg" viewBox="21.7 -1648.3 1358.6 2114.6">
	<path fill="currentColor" d="M1302 -663L1241 -373Q1256 -324 1256 -314Q1256 -274 1203 -195L1160 -200Q1197 -280 1197 -295Q1197 -301 1189 -316Q1181 -298 1164 -268H1133V-287Q1133 -350 1153 -375Q1160 -417 1160 -425Q1160 -430 1158.5 -440Q1157 -450 1157 -455Q1157 -485 1169.5 -554Q1182 -623 1182 -649Q1182 -674 1092 -825Q1035 -745 1035 -682Q1035 -684 1045 -652Q1048 -643 1074 -586Q1092 -546 1092 -518Q1092 -487 1080 -437Q1064 -368 1062 -357Q1057 -326 1057 -207Q1057 -175 1112 43Q1120 75 1120 76Q1120 242 1120 242Q1121 256 1132.5 292.5Q1144 329 1144 344Q1144 363 1118 377Q1096 388 1075 388Q1069 388 1052.5 380.5Q1036 373 1031 373Q1027 373 1009.5 380.5Q992 388 986 388H796Q805 375 805 362Q805 353 800 340Q800 340 925 305Q1002 284 1002 232Q1002 193 981 87Q961 -12 947 -58Q932 -80 912 -132Q914 -149 901 -186H815Q794 -155 761 -91Q760 -89 758 -65Q749 30 729 79Q697 142 640 271Q636 309 631 346Q625 388 578 388Q568 388 548.5 380.5Q529 373 520 373Q512 373 494 380.5Q476 388 467 388H333L325 380V330Q335 320 350 320Q353 320 357.5 321.5Q362 323 365 323Q370 323 381 319Q392 315 397 315Q488 309 545 246Q560 204 587 117Q594 91 609 19Q610 1 614 -35Q622 -75 642 -148Q650 -162 665 -192Q702 -277 746 -401Q770 -477 820 -629L750 -838Q709 -779 668 -720Q602 -626 586 -621Q582 -620 577 -620Q550 -620 504 -652Q471 -678 438 -703Q411 -720 359 -757Q336 -777 291 -818H263V-806Q263 -793 265 -773H211Q206 -798 205 -837Q204 -837 176 -855V-873Q176 -914 193 -925L199 -924Q191 -928 191 -936Q191 -939 193 -945Q195 -951 195 -954Q200 -960 206 -962V-986Q188 -990 155 -1005Q132 -1020 115 -1067Q100 -1108 100 -1141Q100 -1194 125 -1281Q161 -1377 230 -1570H252L263 -1559V-949Q281 -944 295 -927Q309 -910 319 -905Q378 -873 438 -841Q505 -803 549 -765Q583 -820 653 -928Q674 -961 694 -994Q722 -1033 753 -1043Q763 -1046 791 -1047Q793 -1060 793 -1089Q793 -1099 771 -1126Q744 -1159 740 -1167Q719 -1204 694 -1218Q664 -1232 634 -1247Q650 -1266 688 -1298Q760 -1338 813 -1359Q833 -1367 884 -1367Q892 -1367 907.5 -1368.5Q923 -1370 931 -1370Q994 -1370 1053.5 -1334.5Q1113 -1299 1139 -1243Q1144 -1233 1157.5 -1160Q1171 -1087 1171 -1073V-944Q1171 -944 1187 -920Q1246 -832 1288 -711Q1292 -695 1302 -663ZM1148 -1072Q1148 -1154 1120 -1228Q1100 -1281 1041 -1316Q996 -1343 966 -1343Q1038 -1292 1038 -1224Q1038 -1165 974 -1106V-945H1011Q1011 -983 1006 -1041L1015 -1051H1059Q1068 -1051 1074 -1045Q1115 -1041 1144 -999Q1144 -1011 1146 -1035.5Q1148 -1060 1148 -1072ZM1011 -1221Q1011 -1248 1010 -1254Q1007 -1276 974.5 -1306.5Q942 -1337 919 -1342Q900 -1346 865 -1346Q837 -1346 749 -1299Q726 -1290 691 -1272H695Q716 -1272 760 -1250L745 -1236Q680 -1249 693 -1249Q690 -1249 686 -1248Q694 -1245 710 -1237Q731 -1225 762 -1174Q790 -1145 844 -1083Q854 -1069 876 -1044Q892 -1029 911 -1029Q922 -1029 956 -1048Q954 -1070 951 -1114Q973 -1137 995 -1161Q1011 -1183 1011 -1221ZM850 -945V-1042Q850 -1049 816 -1082V-945ZM236 -955V-1509Q205 -1429 174 -1349Q140 -1254 131 -1184Q130 -1179 126 -1162Q123 -1149 123 -1141Q123 -1114 136 -1077Q150 -1035 169 -1023Q191 -1018 231 -1000Q233 -972 233 -956ZM1279 -662Q1265 -716 1159 -924Q1108 -1024 1071 -1024H1032Q1032 -1010 1033.5 -978Q1035 -946 1035 -929Q1035 -924 1028 -918H950V-1021Q916 -1006 911 -1006Q902 -1006 877 -1017V-923Q856 -919 833 -919Q811 -919 791 -923V-1026Q731 -1016 705 -971Q699 -959 686 -936Q660 -898 610 -822Q593 -795 559 -740Q555 -739 548 -739H546Q479 -793 307 -886Q292 -903 266 -924Q278 -894 278 -878Q278 -868 267 -844Q292 -843 303 -836Q326 -814 373 -774Q374 -773 461 -714Q487 -694 513 -673Q548 -647 570 -647Q588 -647 632 -708Q673 -768 757 -885L839 -639L1013 -673Q1011 -682 1011 -682Q1011 -684 1016 -699Q1031 -743 1046 -786Q1065 -832 1097 -863Q1205 -676 1205 -652Q1205 -650 1184 -516Q1182 -503 1182 -413Q1182 -386 1179 -373Q1178 -368 1164 -348Q1153 -332 1153 -297Q1160 -321 1182 -340H1210Q1220 -290 1220 -298Q1220 -281 1199 -230Q1230 -271 1230 -314Q1230 -333 1218 -372ZM1069 -518Q1072 -535 1059 -566Q1050 -580 1034 -609Q1027 -625 1019 -651Q958 -639 837 -614Q792 -478 698 -207H1032Q1032 -316 1032 -316Q1045 -384 1069 -518ZM255 -880Q255 -891 249 -907Q228 -918 221 -918Q202 -904 202 -891Q202 -878 203 -867Q211 -861 227 -850Q255 -850 255 -880ZM236 -796V-830H233V-796ZM1121 343Q1121 329 1107 291.5Q1093 254 1093 240Q1093 64 1093 64Q1087 39 1073 -19L1034 -186H928Q934 -175 938 -132Q950 -110 969 -62Q976 -28 993 38Q1004 76 1022 204Q1025 225 1025 234Q1025 290 969 313Q918 328 867 342Q854 345 827 353L828 365H989Q993 365 1009 357.5Q1025 350 1032 350Q1039 350 1056 357.5Q1073 365 1076 365Q1121 365 1121 343ZM785 -184H686Q657 -131 632 19Q625 42 613 89Q607 124 585 197Q577 224 561 262Q515 324 443 333Q412 338 351 346V365H470Q478 365 495 357.5Q512 350 520 350Q529 350 548 357.5Q567 365 576 365Q605 365 609 348Q613 265 641 206Q673 143 704 80Q727 24 737 -80Q738 -90 742 -109Q757 -134 785 -184ZM837 -1298Q837 -1267 810 -1267Q798 -1267 779 -1294Q791 -1318 809 -1318Q817 -1318 837 -1298ZM810 -1292V-1293H809Z"/>
</svg>