<svg xmlns="http://www.w3.org/2000/svg" viewBox="22.4 -1639.6 1554.3 2096.3">
	<path fill="currentColor" d="M1499 355H617L614 332Q664 302 765 242Q751 219 706.5 44Q662 -131 662 -161Q662 -217 681.5 -241.5Q701 -266 756 -266Q786 -266 886 -170Q949 -105 1013 -41Q1015 -53 1015 -222Q1015 -261 1042 -415Q994 -445 993 -447Q977 -461 964 -498Q958 -515 958 -540Q958 -549 972 -564Q953 -565 916 -569Q921 -601 926 -633Q930 -652 958 -696Q969 -713 1006 -757Q1007 -758 1047 -794Q1078 -822 1078 -832Q1078 -864 1074 -878Q1069 -897 1040 -897Q1026 -897 995.5 -884Q965 -871 950 -871Q916 -871 894.5 -894.5Q873 -918 877 -951Q860 -956 833 -979Q784 -1067 784 -1087Q784 -1119 853 -1160Q1017 -1258 1105 -1281Q1136 -1289 1174 -1289Q1278 -1289 1370 -1204Q1376 -1195 1388 -1178Q1427 -1123 1446 -1000Q1450 -984 1454 -954L1457 -572Q1430 -574 1403 -574Q1384 -574 1368 -573L1386 -115Q1386 -105 1377 -19Q1371 42 1352 163Q1340 191 1317 244L1499 337ZM1416 -1430Q1416 -1393 1401 -1368Q1379 -1333 1307 -1311Q1249 -1293 1196 -1293Q1165 -1293 1064 -1314Q1049 -1317 1017 -1346.5Q985 -1376 973 -1376Q966 -1376 951 -1352Q942 -1336 932 -1320Q918 -1329 915 -1419Q818 -1391 819 -1391Q806 -1391 747.5 -1413Q689 -1435 661 -1435Q647 -1435 624 -1408Q622 -1406 613 -1368Q605 -1339 578 -1329Q564 -1324 499 -1324Q472 -1324 444 -1298L443 -1285Q443 -1281 445 -1264Q462 -1241 462 -1231Q462 -1167 394 -1159Q315 -1148 298 -1105V-1089Q298 -1076 304 -1050Q310 -1024 310 -1011Q310 -978 261 -939.5Q212 -901 212 -872Q212 -852 236 -808.5Q260 -765 260 -733Q260 -720 208 -673.5Q156 -627 156 -597Q156 -577 188.5 -528.5Q221 -480 221 -460Q221 -427 181 -391Q141 -355 141 -326Q141 -277 147 -265Q159 -253 177 -233Q206 -196 206 -163Q206 -135 168.5 -105.5Q131 -76 131 -69Q131 -32 162.5 11Q194 54 194 76Q194 119 158.5 149.5Q123 180 123 186Q123 194 145 219Q169 247 172 256Q175 265 182 281L176 379Q159 341 159 299Q159 269 129.5 236.5Q100 204 100 183Q100 171 135.5 140Q171 109 171 78Q171 68 138 18Q105 -32 105 -71Q105 -77 107 -85Q183 -147 183 -167Q183 -193 160 -216Q129 -246 125 -254Q115 -274 115 -325Q115 -357 156.5 -398Q198 -439 198 -457Q198 -472 165.5 -519.5Q133 -567 133 -598Q133 -635 183.5 -681Q234 -727 234 -747Q234 -765 211.5 -807Q189 -849 189 -873Q189 -904 238 -947.5Q287 -991 287 -1013Q287 -1025 281 -1050.5Q275 -1076 275 -1089Q275 -1129 318 -1164Q328 -1172 393 -1177Q439 -1180 439 -1228Q439 -1234 428.5 -1245.5Q418 -1257 418 -1271Q418 -1293 419 -1307Q465 -1348 510 -1348Q515 -1348 524 -1346.5Q533 -1345 538 -1345Q582 -1345 593 -1386Q608 -1438 649 -1456Q653 -1458 666 -1458Q692 -1458 751 -1436Q810 -1414 820 -1414Q823 -1414 863 -1426Q903 -1438 917 -1440Q918 -1529 930 -1529Q947 -1529 972 -1479H980Q1002 -1530 1068 -1544Q1084 -1546 1116 -1554Q1140 -1562 1173 -1562Q1255 -1562 1324 -1535Q1416 -1498 1416 -1430ZM1393 -1430Q1393 -1491 1287 -1527Q1261 -1536 1186 -1536Q1030 -1536 992 -1453H958L944 -1477V-1386Q951 -1402 982 -1402Q990 -1402 1022 -1371.5Q1054 -1341 1067 -1337Q1136 -1316 1198 -1316Q1244 -1316 1297 -1330Q1364 -1349 1381 -1378Q1393 -1398 1393 -1430ZM1265 -1160Q1265 -1212 1226 -1242Q1199 -1263 1187 -1263H1128Q1092 -1263 890 -1158Q856 -1140 807 -1097Q807 -1088 810 -1072Q852 -974 879 -974Q893 -974 923 -989Q953 -1004 966 -1004Q967 -1003 968 -1001.5Q969 -1000 974 -1000Q953 -979 902 -953Q899 -935 899 -931Q899 -916 917 -904.5Q935 -893 950 -893Q966 -893 1052 -925Q1138 -957 1151 -967Q1197 -1005 1197 -1061Q1188 -1073 1177 -1088Q1179 -1090 1231 -1105Q1265 -1115 1265 -1160ZM1434 -595L1431 -956Q1431 -958 1424 -1003Q1403 -1136 1355 -1187Q1303 -1242 1243 -1255Q1288 -1210 1288 -1160Q1288 -1091 1216 -1076Q1220 -1067 1220 -1057Q1220 -965 1075 -908Q1104 -889 1104 -833Q1104 -820 1086 -801Q1051 -766 1016 -731Q977 -689 959 -651Q943 -617 943 -614V-591H995Q1021 -617 1069 -674Q1072 -678 1093 -721Q1119 -775 1207 -775Q1302 -775 1346 -688Q1353 -674 1365 -594Q1413 -597 1434 -595ZM1430 330Q1384 305 1290 257Q1305 224 1329 157Q1363 31 1363 -121Q1363 -209 1353 -400Q1341 -634 1327 -675Q1320 -694 1284 -723Q1248 -752 1229 -752Q1177 -752 1154 -745.5Q1131 -739 1118 -721Q1110 -702 1090 -665Q1051 -626 987 -549Q985 -546 985 -532Q985 -477 1017 -457Q1060 -429 1065 -419Q1054 -359 1038 -240Q1039 -252 1039 -61Q1039 -14 1023 -1Q938 -90 780 -229Q767 -238 734 -238Q685 -238 685 -161Q685 -121 730 43Q772 198 794 250L661 330ZM1077 -1124Q1077 -1111 1053 -1087Q1009 -1095 1009 -1129Q1009 -1158 1043 -1158Q1077 -1158 1077 -1124ZM1050 -1127Q1050 -1132 1050 -1132H1036L1033 -1130L1032 -1127Q1032 -1123 1042 -1114H1047Q1050 -1121 1050 -1127Z"/>
</svg>