<svg xmlns="http://www.w3.org/2000/svg" viewBox="0 -2048 2048 2048">
	<path fill="#000000" d="M1530 378H412L417 355Q468 326 611 248Q491 -159 491 -225Q491 -256 495 -280Q471 -356 454 -406H495Q419 -581 338 -763Q313 -820 261 -933Q259 -937 252 -937Q249 -937 244 -935.5Q239 -934 236 -934Q214 -934 197 -942Q172 -954 136 -995.5Q100 -1037 100 -1061Q100 -1115 149 -1149Q147 -1153 141 -1179Q157 -1185 189 -1195L205 -1174Q224 -1179 234 -1179Q289 -1179 309 -1142Q313 -1133 323 -1115Q342 -1090 342 -1059Q342 -993 304 -958Q394 -749 551 -401Q596 -400 626 -370Q634 -351 657 -317Q706 -265 907 -77Q917 -435 938 -703H802Q795 -710 795 -734Q795 -787 839 -857Q858 -888 911 -936.5Q964 -985 982 -1014Q978 -1021 978 -1055Q978 -1066 965.5 -1081Q953 -1096 944 -1093L834 -1060Q816 -1063 797.5 -1066Q779 -1069 765 -1084Q744 -1106 744 -1128Q744 -1132 745.5 -1141Q747 -1150 747 -1155Q736 -1157 716 -1163Q706 -1167 662 -1248Q654 -1260 638 -1285Q633 -1293 633 -1312Q633 -1339 705 -1393Q843 -1498 1014 -1540Q1054 -1550 1094 -1550Q1230 -1550 1323 -1448Q1379 -1387 1394 -1316Q1397 -1301 1411 -1211Q1422 -1139 1422 -1096V-713H1317V151Q1317 159 1306.5 204.5Q1296 250 1297 256Q1359 286 1530 378ZM1205 -1404Q1205 -1448 1166.5 -1487.5Q1128 -1527 1084 -1527Q1017 -1527 886 -1468Q765 -1414 708 -1367Q656 -1324 656 -1311Q655 -1302 656 -1301Q660 -1296 668 -1287Q685 -1243 726 -1184Q729 -1182 764 -1182Q775 -1182 806 -1200Q837 -1218 846 -1218Q849 -1217 849 -1213L855 -1214Q842 -1192 770 -1158Q767 -1130 767 -1136Q767 -1083 835 -1083Q859 -1083 949 -1119Q1039 -1155 1063 -1172Q1121 -1214 1121 -1262Q1121 -1282 1098 -1318Q1109 -1329 1137 -1334Q1165 -1339 1176 -1346Q1205 -1366 1205 -1404ZM1399 -739V-1135Q1399 -1190 1371 -1313Q1359 -1366 1316 -1419Q1273 -1472 1223 -1492Q1205 -1501 1167 -1516Q1228 -1462 1228 -1407Q1228 -1368 1199 -1338Q1170 -1308 1132 -1307Q1144 -1283 1144 -1260Q1144 -1204 1082 -1161Q1060 -1146 972 -1104Q1006 -1081 1006 -1030Q1006 -1016 1006 -1016Q1005 -1006 911.5 -908Q818 -810 818 -730H941Q941 -753 945 -797Q956 -852 1003 -898Q1053 -948 1107 -948Q1202 -948 1256 -895Q1290 -861 1301 -822Q1309 -781 1317 -739ZM1438 353Q1383 325 1273 267Q1292 144 1292 150L1295 -732Q1295 -723 1282 -794Q1280 -809 1273 -836Q1232 -925 1110 -925Q1061 -925 1019 -882Q981 -843 968 -792Q966 -766 963 -715Q947 -479 939 -294Q937 -217 930 -62Q929 -47 917 -37Q787 -158 721 -222Q688 -257 632 -309Q622 -316 604 -316Q537 -316 523 -289Q517 -277 517 -200Q517 -126 612 178Q635 252 635 261L467 353ZM523 -404Q282 -953 282 -955Q282 -961 299 -984.5Q316 -1008 316 -1055Q316 -1087 299 -1110Q290 -1125 281 -1139Q272 -1153 249 -1153Q241 -1153 225 -1151.5Q209 -1150 201 -1150Q191 -1150 181 -1169L169 -1164Q173 -1158 178 -1145Q160 -1130 143 -1114.5Q126 -1099 126 -1073Q126 -1041 155 -1005Q185 -966 215 -966Q220 -966 227 -961.5Q234 -957 237 -957Q240 -957 244.5 -958.5Q249 -960 252 -960Q273 -960 280 -945L516 -404ZM624 -333Q599 -386 486 -386H482L509 -310Q534 -340 570 -340Q570 -340 624 -333ZM973 -1360Q973 -1349 964 -1338Q955 -1327 953 -1318H935Q902 -1342 902 -1365Q902 -1394 938 -1394Q973 -1394 973 -1360ZM947 -1360Q947 -1367 947 -1368H931L927 -1363Q930 -1355 941 -1344Q947 -1355 947 -1360Z"/>
</svg>