<svg xmlns="http://www.w3.org/2000/svg" viewBox="21.1 -1672.9 1939.8 2129.8">
	<path fill="currentColor" d="M1882 137Q1807 143 1744 184Q1707 208 1632 279V378H1607L1606 279Q1531 208 1495 184Q1431 143 1357 137L1396 120Q1410 120 1450 135Q1510 157 1606 247V186Q1531 115 1495 91Q1431 50 1357 44L1396 27Q1410 27 1450 42Q1510 64 1606 154L1607 -332Q1592 -337 1566 -355Q1559 -365 1526 -383Q1312 -448 1249 -504Q1237 -525 1215 -564Q1188 -611 1153 -714Q1123 -616 1128 -586L1156 -409Q1155 -393 1152 -362Q1150 -350 1137 -326Q1128 -307 1128 -277Q1128 -260 1134.5 -231.5Q1141 -203 1141 -200Q1141 -184 1139.5 -151.5Q1138 -119 1138 -103Q1138 -100 1152 -37Q1182 98 1182 148Q1182 161 1180 186.5Q1178 212 1178 225Q1178 251 1189 290Q1205 350 1206 353Q1175 373 1169 373Q1161 373 1143 365Q1125 357 1118 357Q1115 357 1100.5 364.5Q1086 372 1080 372H944V320L1012 309Q1023 307 1056.5 285.5Q1090 264 1090 256Q1090 231 1075.5 148.5Q1061 66 1053 40Q1038 7 1012 -61Q1010 -88 1003 -142Q1000 -156 989 -190H965Q956 -173 936 -139Q906 -104 866 -31Q863 -20 861 8Q857 66 833.5 114Q810 162 787 209Q753 277 753 300Q753 307 756.5 321.5Q760 336 760 344Q759 345 741 363Q731 373 718 373Q709 373 691 365Q673 357 665 357Q662 357 648 362.5Q634 368 629 369Q591 375 533 375H504V314Q583 304 603 296Q646 280 676 229Q684 222 695 206Q708 168 718 103Q732 19 736 -1Q746 -43 764 -100Q781 -134 811 -204Q825 -258 853 -366Q876 -450 903 -531L853 -704Q845 -680 827 -632Q819 -619 805 -592Q749 -461 576 -399Q526 -388 433 -354Q428 -351 407.5 -328.5Q387 -306 377 -306Q370 -306 367 -310L366 -309V375H342V-305Q304 -320 304 -360Q304 -372 309 -381L299 -380V-396Q299 -415 341 -430V-1209Q341 -1242 315.5 -1266Q290 -1290 257 -1290Q191 -1290 162 -1269Q153 -1263 138 -1239.5Q123 -1216 123 -1207V-688H100V-1203Q100 -1217 119 -1250.5Q138 -1284 151 -1290Q199 -1314 209 -1314Q273 -1314 299 -1304Q340 -1290 360 -1241Q367 -1224 367 -1180L369 -434L376 -435Q383 -436 396 -433Q409 -430 414 -430Q418 -430 458 -454Q514 -484 570 -513Q636 -550 669 -589Q676 -597 699 -669Q711 -708 737 -785Q748 -800 769 -829Q805 -878 839 -892Q867 -904 930 -903Q928 -913 928 -938Q916 -943 885 -957Q882 -965 872 -981Q868 -988 868 -1014Q868 -1054 834 -1062V-1096Q889 -1126 904 -1169Q906 -1180 915 -1200Q952 -1253 1002 -1263Q955 -1274 905 -1332Q855 -1390 855 -1437Q855 -1468 884 -1472Q888 -1461 898 -1439Q904 -1594 1077 -1594Q1123 -1594 1170.5 -1563.5Q1218 -1533 1234 -1491Q1239 -1478 1242 -1443L1255 -1462L1268 -1454Q1272 -1446 1272 -1427Q1272 -1365 1221.5 -1314.5Q1171 -1264 1108 -1253Q1186 -1221 1186 -1124Q1186 -1081 1151 -1024Q1120 -972 1082 -943V-896Q1115 -894 1148 -892Q1182 -887 1205 -857Q1231 -822 1272 -714Q1310 -611 1319 -602Q1333 -589 1444.5 -517Q1556 -445 1563 -445Q1572 -445 1607 -458V-1223Q1607 -1271 1641.5 -1310.5Q1676 -1350 1724 -1350Q1810 -1350 1827 -1225H1801Q1780 -1323 1724 -1323Q1687 -1323 1659.5 -1289.5Q1632 -1256 1632 -1218V-452Q1646 -447 1675 -440V-409Q1670 -404 1665 -403Q1672 -394 1672 -382Q1672 -344 1632 -330V154Q1679 109 1705 90Q1748 57 1788.5 42Q1829 27 1843 27L1882 44Q1807 50 1744 91Q1707 115 1632 186V247Q1679 202 1705 183Q1748 150 1788.5 135Q1829 120 1843 120ZM1221 -1437Q1221 -1530 1111 -1567Q1106 -1569 1098 -1571Q937 -1571 923 -1463Q923 -1460 920.5 -1453.5Q918 -1447 918 -1444Q918 -1409 927 -1393Q942 -1366 977 -1339Q1016 -1309 1044 -1309Q1094 -1309 1103 -1311Q1149 -1322 1183 -1355Q1221 -1392 1221 -1437ZM1243 -1397Q1192 -1314 1124 -1294Q1087 -1283 1084 -1283Q957 -1283 881 -1423V-1418Q881 -1401 912 -1360.5Q943 -1320 961 -1307Q1012 -1270 1080 -1270Q1107 -1270 1157 -1292Q1223 -1321 1243 -1397ZM1163 -1126Q1163 -1188 1122 -1219Q1087 -1147 1086 -1133Q1076 -1073 1059 -952Q1064 -960 1090 -980Q1116 -1000 1139.5 -1046Q1163 -1092 1163 -1126ZM1102 -1225V-1230Q1053 -1247 1036 -1247Q1034 -1247 1006 -1239Q1023 -1199 1043 -1106L1046 -1057L1019 -905Q1023 -885 1028 -864.5Q1033 -844 1051 -830H1071Q1032 -844 1032 -887Q1032 -917 1036 -960Q1048 -996 1061 -1069Q1064 -1136 1068 -1150Q1071 -1160 1102 -1225ZM1646 -362V-369Q1646 -393 1634 -406H1596V-372Q1618 -350 1623 -350Q1632 -350 1646 -362ZM1583 -426Q1568 -422 1560 -422Q1557 -422 1426 -504Q1373 -535 1303 -586Q1289 -603 1250 -716Q1219 -807 1185 -846Q1175 -852 1157 -866L1153 -868H1059Q1067 -854 1084 -852Q1101 -850 1117 -848V-804H1048Q1013 -831 995 -904L1023 -1060Q1029 -1091 1013 -1153Q1007 -1177 982 -1233Q946 -1216 921 -1153Q890 -1119 859 -1080Q865 -1073 876 -1058Q882 -1019 905 -971Q921 -966 950 -956Q955 -938 955 -898Q955 -893 954 -877H866Q850 -877 827 -862Q780 -831 747 -745Q724 -676 702 -606Q698 -595 689 -577Q657 -537 590 -499Q534 -469 478 -439Q426 -407 419 -407Q419 -407 396 -409Q415 -395 410 -365Q416 -371 421 -373Q474 -390 578 -428Q668 -464 715.5 -508Q763 -552 805 -638Q820 -680 855 -763L925 -538L1108 -582Q1108 -636 1143 -757Q1147 -763 1153 -763Q1156 -763 1159 -761Q1169 -727 1193 -659Q1197 -650 1228 -588Q1259 -526 1261 -524Q1313 -481 1440 -438Q1563 -395 1570 -389Q1570 -411 1583 -426ZM1133 -407L1109 -558Q1046 -543 922 -513Q838 -282 838 -213H1114V-217Q1114 -229 1108 -252.5Q1102 -276 1102 -288Q1102 -306 1118.5 -349Q1135 -392 1133 -407ZM1179 334Q1179 323 1167 284Q1155 245 1155 224Q1155 212 1158.5 188Q1162 164 1162 152Q1162 142 1137 -2Q1136 -9 1124 -56Q1114 -98 1114 -106V-188H1014Q1018 -172 1026 -141Q1027 -120 1031 -77Q1040 -59 1057 -23Q1074 16 1092 111Q1110 202 1110 245Q1110 285 1058 313Q1015 337 970 339V346H1086Q1089 346 1100.5 340Q1112 334 1118 334Q1127 334 1145 340.5Q1163 347 1173 347Q1179 347 1179 334ZM384 -368V-376Q384 -394 368 -394Q331 -394 331 -360Q331 -329 350 -329Q384 -329 384 -368ZM938 -189H839Q823 -171 815 -153Q781 -77 759 20Q749 77 738 134Q722 211 700 235Q682 259 665.5 280.5Q649 302 614 316Q588 326 530 335V352H542Q600 352 618 349Q624 348 642.5 341Q661 334 666 334Q674 334 689.5 340Q705 346 713 346Q735 346 735 331Q735 326 732.5 315.5Q730 305 730 300Q730 278 812 107Q835 58 839 4Q839 -11 844 -38Q855 -71 887 -116Q912 -152 938 -189ZM996 -1087Q984 -1081 971 -1081Q960 -1081 915 -1092Q939 -1130 955 -1130Q976 -1130 996 -1087ZM958 -1106L956 -1107L955 -1106Z"/>
</svg>