<svg xmlns="http://www.w3.org/2000/svg" viewBox="21.8 -1650.2 1710.3 2110.3">
	<path fill="currentColor" d="M1654 -1342L1633 -1299L1547 -1333Q1539 -1320 1526 -1292Q1518 -1229 1506 -1128Q1502 -1095 1472 -939Q1437 -932 1366 -921Q1307 -916 1249 -911Q1173 -901 1141 -877Q1120 -861 1097 -792Q1075 -728 1075 -696Q1075 -654 1102.5 -587.5Q1130 -521 1130 -489Q1130 -457 1102 -385Q1093 -362 1093 -245Q1093 -177 1097 -154Q1099 -145 1114 -105Q1144 -26 1150 26Q1154 63 1154 292Q1154 301 1160.5 317Q1167 333 1167 342Q1167 349 1165 361Q1163 373 1163 379Q1158 379 1146 380.5Q1134 382 1128 382Q1101 382 1073 364Q1061 379 1051 379H867V325Q923 315 978 305Q1056 285 1056 245Q1056 189 1039 92Q1021 -9 1000 -55Q989 -74 976 -117Q971 -154 953 -184H846Q814 -136 798 -100Q788 -78 785.5 -33.5Q783 11 775 30Q766 43 753 71Q751 83 745 106Q736 133 712 171Q677 225 673 232Q667 242 656 324Q648 379 609 379Q599 379 584 373Q569 367 568 367Q565 367 555.5 373Q546 379 540 379H347V324Q408 317 509 289Q544 270 564 219Q585 164 594 134Q615 81 650 -27Q651 -55 658 -109Q674 -141 702 -207Q787 -447 839 -613Q822 -729 776 -825Q754 -768 732 -711Q705 -644 665 -610Q653 -600 556 -575Q469 -552 435 -547Q389 -545 305 -527Q298 -524 281 -508Q270 -498 245 -500V-499L237 113Q228 72 200 -6Q182 -35 150 -95Q105 -193 105 -236Q105 -322 139 -443Q155 -500 155 -501Q155 -508 129 -525Q127 -537 127 -551Q127 -586 150 -604Q151 -599 151 -641Q151 -656 141 -683Q126 -722 125 -726Q100 -816 100 -906Q100 -986 132 -1050Q140 -1067 210 -1174Q210 -1190 243 -1235V-646Q304 -627 305 -627Q343 -627 418 -654Q513 -688 531 -692Q550 -692 582 -703Q586 -706 618 -785Q641 -842 692 -953Q731 -1029 849 -1029Q861 -1051 861 -1059Q861 -1101 840 -1118Q813 -1140 778 -1140Q746 -1140 683.5 -1138Q621 -1136 589 -1136Q562 -1136 534 -1183Q548 -1213 624 -1213Q667 -1213 683 -1215Q709 -1218 736 -1245Q759 -1268 781 -1290Q795 -1300 851 -1310Q864 -1351 864 -1509Q876 -1509 883 -1506Q903 -1498 945 -1386Q958 -1414 963 -1457Q967 -1494 971 -1531Q1007 -1472 1010 -1463Q1024 -1432 1024 -1385Q1024 -1366 1006 -1292Q1089 -1257 1134 -1176Q1152 -1143 1158 -1095Q1162 -1052 1166 -1010H1171Q1210 -1010 1270 -1019Q1356 -1033 1368 -1034Q1435 -1227 1435 -1293Q1435 -1301 1424 -1329.5Q1413 -1358 1415 -1385L1050 -1529L1071 -1572L1430 -1430Q1433 -1431 1438 -1431Q1451 -1431 1465 -1426L1461 -1418L1463 -1417Q1479 -1433 1500 -1433Q1521 -1433 1552 -1410Q1553 -1381 1566 -1376ZM1627 -1331L1557 -1359L1555 -1351L1623 -1324ZM1536 -1379Q1536 -1407 1500 -1407Q1465 -1407 1465 -1377Q1465 -1345 1488 -1345Q1536 -1345 1536 -1379ZM1427 -1410L1081 -1547L1078 -1540L1424 -1403ZM1518 -1329Q1494 -1321 1485 -1321Q1477 -1321 1446 -1348Q1441 -1378 1439 -1396Q1439 -1391 1438 -1380Q1437 -1369 1437 -1363Q1437 -1351 1448 -1329Q1459 -1307 1459 -1295Q1459 -1210 1384 -1012Q1186 -983 1095 -983V-845Q1105 -866 1125 -895Q1161 -923 1279 -937Q1434 -956 1450 -960Q1477 -1062 1497 -1249Q1497 -1269 1518 -1329ZM934 -1354Q933 -1369 887 -1454Q887 -1352 877 -1315H881Q890 -1315 913 -1323ZM1143 -1010V-1023Q1143 -1030 1140.5 -1043.5Q1138 -1057 1138 -1062Q1128 -1185 1036 -1248Q1020 -1256 1004 -1264Q979 -1277 979 -1283Q979 -1301 989.5 -1334Q1000 -1367 1000 -1385Q1000 -1437 988 -1461Q979 -1411 960 -1364Q950 -1338 923 -1301Q905 -1290 860 -1286.5Q815 -1283 796 -1272Q789 -1268 745 -1222Q713 -1188 566 -1183L562 -1181Q572 -1159 600 -1159Q624 -1159 673 -1161Q722 -1163 746 -1163Q884 -1163 884 -1056Q884 -1050 874 -1030Q861 -1007 860 -1003Q841 -948 841 -860Q856 -862 882 -859Q891 -908 907 -1007Q914 -1016 924 -1016Q929 -1016 937.5 -1014.5Q946 -1013 951 -1013Q961 -1013 979 -1019Q997 -1025 1007 -1025Q1016 -1025 1025 -1016V-858H1070Q1070 -876 1069 -914Q1069 -951 1069 -970Q1069 -993 1083 -1021L1094 -1010ZM1093 -839Q1073 -836 1047 -836Q1025 -836 1002 -840V-1000Q954 -990 929 -992Q920 -943 904 -844L895 -834Q874 -835 852 -836Q825 -837 814 -850L835 -1002H796Q724 -1002 672 -860Q651 -802 599 -684Q581 -681 545 -673Q484 -653 423 -632Q336 -604 305 -604Q295 -604 277 -611.5Q259 -619 249 -619L250 -612L247 -606Q269 -594 269 -550Q269 -532 262 -524Q275 -534 305 -549Q349 -556 436 -570Q620 -602 651 -629Q687 -661 722 -745Q773 -872 775 -875Q843 -751 859 -625L1056 -654Q1052 -670 1052 -689Q1052 -752 1093 -839ZM1104 -486Q1104 -518 1089 -561Q1076 -597 1063 -633Q934 -611 859 -600L728 -210H1076V-217Q1076 -231 1071.5 -258Q1067 -285 1067 -299Q1067 -352 1077 -385Q1086 -398 1100 -434Q1104 -456 1104 -486ZM218 -645V-1146Q123 -1041 123 -906Q123 -782 173 -645ZM1144 353V346Q1144 324 1134 298Q1128 295 1128 286V154Q1128 144 1126.5 124Q1125 104 1125 94V11Q1125 -16 1097 -82Q1070 -145 1072 -183H980Q991 -166 998 -131Q1007 -92 1013 -78Q1033 -33 1057 73Q1081 179 1081 226Q1081 296 1016 319Q954 330 893 342V356H1048Q1068 341 1073 341Q1079 341 1096.5 350Q1114 359 1128 359Q1137 359 1144 353ZM246 -554Q246 -580 236 -585Q217 -594 213 -600Q154 -596 154 -553Q154 -511 195 -511Q246 -511 246 -554ZM819 -183H714Q701 -160 683 -112Q682 -82 672 -23Q606 215 565 270Q532 314 478.5 323.5Q425 333 373 341V356H540Q544 356 553.5 350Q563 344 569 344Q576 344 588.5 350Q601 356 607 356Q631 356 631 331Q631 325 629.5 314.5Q628 304 628 298Q628 268 658 213Q686 167 731 68Q741 52 756 17Q762 -3 766 -56Q768 -96 789 -134Q799 -150 819 -183ZM218 -21V-491Q187 -489 174 -490Q132 -308 132 -265Q132 -196 178 -88Q178 -87 218 -21ZM908 -1208Q884 -1204 866 -1204H827Q854 -1244 884 -1244Q905 -1244 908 -1208Z"/>
</svg>