<svg xmlns="http://www.w3.org/2000/svg" viewBox="0 -2048 2048 2048">
	<path fill="#000000" d="M1157 -1001Q1157 -976 1110.5 -872Q1064 -768 1064 -710Q1064 -702 1086 -625Q1108 -548 1108 -541Q1108 -514 1089 -465Q1070 -416 1070 -369Q1070 -369 1073.5 -305.5Q1077 -242 1077 -209Q1077 -200 1106 -117Q1130 -49 1130 14V233Q1130 239 1140.5 262Q1151 285 1151 292Q1151 333 1102 333Q1094 333 1076.5 325Q1059 317 1053 317Q1052 317 1041 327H847Q855 305 852 274Q913 261 975 249Q1032 228 1032 156Q1032 89 930 -239H833Q804 -192 794 -173Q774 -132 772 -105Q768 -34 723 53Q658 178 641 228Q641 256 640 284Q635 333 599 333Q593 333 577.5 325Q562 317 555 317Q548 317 544 322Q540 327 533 327H335V274Q378 267 422 260Q478 249 510 223Q533 204 565 122Q590 58 632 -73Q638 -118 657 -204Q682 -285 753 -479Q814 -647 814 -653Q814 -681 756 -800Q628 -734 582 -734Q575 -734 551 -756Q527 -778 520 -778Q513 -778 453 -750.5Q393 -723 386 -723Q359 -723 321 -778Q292 -821 282 -851Q264 -926 218 -1068Q196 -1094 157 -1150Q100 -1250 100 -1298Q100 -1354 156 -1403Q207 -1448 253 -1448Q332 -1448 394 -1399Q460 -1346 460 -1268Q460 -1226 452 -1204Q449 -1194 435.5 -1180Q422 -1166 422 -1159Q422 -1146 556 -952Q665 -1017 688 -1030Q769 -1071 821 -1073Q841 -1098 841 -1124Q841 -1197 686 -1197Q680 -1197 640 -1194.5Q600 -1192 593 -1192Q541 -1192 520 -1239Q548 -1267 642 -1275Q685 -1279 741.5 -1321.5Q798 -1364 831 -1367Q850 -1399 850 -1442Q850 -1461 845.5 -1492Q841 -1523 841 -1533V-1556Q854 -1556 860 -1562Q882 -1527 925 -1459Q930 -1478 941 -1516Q952 -1554 957 -1573Q973 -1564 991.5 -1518Q1010 -1472 1010 -1445Q1010 -1434 988 -1353Q995 -1349 1008 -1340Q1039 -1328 1072 -1291Q1105 -1254 1117 -1223Q1121 -1213 1138 -1121Q1157 -1023 1157 -1001ZM912 -1418Q912 -1432 870 -1502Q879 -1439 866 -1378Q912 -1390 912 -1418ZM1119 -1078V-1114Q1119 -1140 1091 -1206.5Q1063 -1273 1041 -1287Q990 -1321 965 -1329Q963 -1333 955 -1342Q983 -1426 983 -1445Q983 -1479 963 -1508Q965 -1414 902 -1372Q863 -1358 799 -1331Q770 -1306 717 -1269Q706 -1264 553 -1233Q564 -1222 564 -1219H745Q781 -1219 821 -1195Q868 -1165 868 -1121Q868 -1114 841 -1045Q814 -976 814 -969Q814 -941 832 -915H862Q868 -977 889 -1072H914Q968 -1072 1005 -1083V-915H1053Q1049 -956 1049 -997Q1049 -1037 1053 -1078Q1119 -1078 1119 -1078ZM1130 -993Q1130 -1043 1076 -1055V-891Q1053 -887 1029 -887Q1004 -887 982 -891Q982 -1059 981 -1049Q935 -1041 908 -1049L886 -887Q898 -892 915 -903Q930 -888 929 -880Q843 -842 781 -803Q812 -740 831 -675L1042 -714Q1040 -792 1076 -867Q1130 -979 1130 -993ZM813 -1044Q676 -1010 574 -928Q586 -910 609 -881Q678 -910 785 -965Q795 -992 813 -1044ZM879 -884Q865 -887 838 -890.5Q811 -894 797 -897Q795 -923 802 -935L602 -854Q531 -936 463 -1038Q428 -1086 385 -1157Q381 -1189 376 -1221Q370 -1260 347 -1273Q347 -1235 347 -1235Q314 -1246 313 -1246Q275 -1238 275 -1216Q275 -1193 310 -1164Q329 -1149 349 -1133Q386 -1062 458 -926Q548 -762 593 -762Q616 -762 733 -816Q806 -850 879 -884ZM433 -1271Q433 -1332 380.5 -1376.5Q328 -1421 266 -1421Q230 -1421 222 -1418Q182 -1403 150 -1355Q122 -1313 122 -1287Q122 -1259 147.5 -1207.5Q173 -1156 194 -1144Q235 -1121 291 -1121Q299 -1121 302.5 -1126.5Q306 -1132 307 -1132Q247 -1167 247 -1219Q247 -1252 310 -1276Q314 -1294 322 -1299Q343 -1313 352 -1312Q373 -1289 404 -1242Q406 -1224 414 -1197Q433 -1235 433 -1271ZM1081 -544Q1081 -551 1065 -604Q1046 -666 1041 -690Q1027 -687 842 -650Q794 -541 755 -422Q726 -334 711 -261H1053Q1045 -399 1044 -394Q1049 -421 1066 -483Q1081 -539 1081 -544ZM443 -895Q345 -1105 324 -1105Q307 -1105 296 -1080Q323 -1047 355 -969Q385 -898 414 -870Q420 -876 431 -885Q442 -894 443 -895ZM503 -796Q477 -848 458 -865Q452 -863 431.5 -850.5Q411 -838 405 -838Q390 -838 343 -929Q313 -989 283 -1049Q267 -1078 268 -1098Q244 -1098 232 -1104Q253 -1026 298 -878Q308 -849 336 -805Q371 -751 389 -751Q398 -751 503 -796ZM1124 299V270Q1124 263 1116.5 250Q1109 237 1109 232Q1102 154 1102 113V-19L1047 -236Q1030 -233 1007 -233Q984 -233 967 -236V-214Q996 -124 1026 -33Q1059 81 1059 159Q1059 230 1015 260Q978 285 874 298L1013 306Q1030 307 1051 284Q1084 306 1100 306Q1117 306 1124 299ZM797 -238H701Q686 -202 668 -155Q645 -34 597 106Q576 168 567 185Q543 236 510 256Q489 268 356 298L501 306Q565 290 563 290Q569 290 578 298Q587 306 593 306Q601 306 605.5 303Q610 300 612 300Q610 232 676 97.5Q742 -37 744 -105Q745 -131 797 -238ZM884 -1257H839Q827 -1257 814 -1270Q835 -1301 860 -1301Q875 -1301 884 -1282Z"/>
</svg>