<svg xmlns="http://www.w3.org/2000/svg" viewBox="0 -2048 2048 2048">
	<path fill="#000000" d="M1465 -172Q1465 -153 1400 -153Q1397 -153 1390 -152Q1403 -135 1419 -90.5Q1435 -46 1435 -26Q1435 14 1413 14Q1404 14 1399 8Q1394 14 1386 14Q1366 14 1366 -32Q1366 -72 1325 -134Q1290 -118 1228 -118Q1182 -118 1146 -128Q1095 -142 1102 -142Q1098 -142 1089.5 -139Q1081 -136 1077 -136Q1069 -136 1060 -141L1054 -118H1028L1021 -140Q1016 -139 1008 -139Q968 -139 968 -189Q968 -214 1019 -221Q1020 -228 1030 -250.5Q1040 -273 1040 -278Q1040 -283 1037 -299Q1015 -419 1015 -480Q1015 -500 1019 -520L964 -690Q946 -631 946 -606Q946 -587 963 -515Q994 -383 994 -340Q994 -324 979 -293Q964 -262 964 -252V-24Q964 -17 977 27Q991 74 991 243Q991 261 1003 289Q1015 317 1015 322Q1015 339 1000 377H968Q962 377 953 369.5Q944 362 939 362Q936 362 924.5 369.5Q913 377 907 377H724Q729 356 728 331Q779 320 830 309Q902 294 902 255Q902 172 865 44Q851 17 835 -40Q835 -56 830 -88H733Q715 -62 688 -6Q686 -1 681 49Q675 105 653 146Q608 230 608 252Q608 260 609 276Q610 292 610 300Q610 377 564 377Q543 377 521 362Q515 363 502 370Q489 377 481 377H318V332Q399 311 419 304Q482 281 507 252Q529 226 537 171Q543 126 549 82Q559 52 574 -8Q576 -37 585 -93Q590 -110 653 -290Q704 -433 704 -473Q704 -472 681 -637Q660 -521 609 -473Q530 -464 466 -464Q440 -464 400 -475Q346 -490 336 -492Q315 -480 303 -478V181Q370 114 468 99L475 121Q382 127 303 216V267Q389 183 478 167L475 189Q409 209 303 298V377H275V298Q208 242 196 234Q155 205 103 189L100 167Q188 183 275 267V216Q196 127 103 121L110 99Q208 114 275 181V-477Q234 -492 234 -546Q234 -556 243 -565Q233 -574 219 -596H279Q279 -619 280 -674Q281 -725 281 -751Q281 -1032 254.5 -1069.5Q228 -1107 203 -1107Q160 -1107 135 -1058L117 -1070Q135 -1130 206 -1130Q217 -1130 243.5 -1110.5Q270 -1091 276 -1080Q301 -1036 301 -921V-594Q316 -594 334.5 -575.5Q353 -557 383 -557Q396 -557 420.5 -561.5Q445 -566 458 -566Q467 -566 542 -558Q544 -600 559 -684Q573 -733 587 -782Q609 -843 648 -853Q681 -856 746 -864V-900Q731 -900 701 -904Q685 -909 671 -937Q652 -976 649 -979Q632 -1000 632 -1006Q632 -1033 697 -1135Q716 -1164 735 -1176Q742 -1180 763 -1188Q720 -1197 698 -1197Q692 -1197 680 -1195.5Q668 -1194 662 -1194Q631 -1194 581 -1224Q578 -1232 569 -1271Q575 -1280 587 -1280Q596 -1280 613.5 -1260.5Q631 -1241 662 -1241Q678 -1241 708.5 -1248.5Q739 -1256 755 -1256Q767 -1256 811 -1239Q799 -1260 768 -1270Q741 -1277 715 -1284L763 -1460Q746 -1466 728 -1474Q710 -1482 710 -1502Q710 -1523 731 -1539.5Q752 -1556 774 -1556Q804 -1556 830 -1511Q841 -1556 891 -1556Q946 -1556 946 -1502Q946 -1483 934 -1474Q914 -1460 911 -1456L953 -1275Q922 -1269 864 -1247Q890 -1259 911 -1259Q922 -1259 944 -1254.5Q966 -1250 977 -1250Q1007 -1250 1080 -1292Q1080 -1273 1070 -1237Q1056 -1215 1001 -1208Q962 -1202 884 -1192L883 -1188Q918 -1184 948 -1139Q976 -1098 976 -1060Q976 -998 901 -909V-865Q909 -865 928 -866Q946 -866 956 -866Q1017 -866 1042.5 -826Q1068 -786 1100 -629Q1129 -482 1129 -421Q1129 -397 1118.5 -350.5Q1108 -304 1108 -281Q1108 -293 1122 -231Q1177 -249 1215 -249Q1243 -249 1296.5 -232.5Q1350 -216 1378 -216Q1385 -216 1398.5 -219Q1412 -222 1419 -222Q1465 -222 1465 -172ZM924 -1289L883 -1468Q894 -1476 906 -1483Q923 -1495 923 -1501Q923 -1533 891 -1533Q873 -1533 858.5 -1513.5Q844 -1494 844 -1475V-1262Q870 -1274 924 -1289ZM818 -1265V-1482Q818 -1496 802.5 -1514.5Q787 -1533 773 -1533Q736 -1533 736 -1502Q736 -1494 758 -1484Q773 -1478 788 -1472L744 -1298Q785 -1293 818 -1265ZM1037 -1240Q1012 -1231 956 -1231Q949 -1231 934 -1233.5Q919 -1236 912 -1236Q887 -1236 872 -1226Q856 -1212 841 -1199L861 -1193Q870 -1217 944 -1221Q1024 -1225 1037 -1240ZM831 -1198Q790 -1230 749 -1230Q714 -1230 689 -1226Q658 -1221 662 -1221Q631 -1221 610 -1230Q637 -1214 663 -1214Q669 -1214 680.5 -1217Q692 -1220 698 -1220Q769 -1220 791 -1200L793 -1194Q813 -1196 831 -1198ZM953 -1058Q953 -1141 868 -1168Q843 -1176 839 -1176Q745 -1176 702 -1092Q726 -1093 733 -1093Q791 -1093 808 -1042Q818 -1085 858 -1085Q897 -1085 897 -1032Q897 -1024 894 -1018Q862 -996 862 -989Q862 -944 891 -944Q902 -944 921 -970Q938 -992 943 -1006Q953 -1033 953 -1058ZM1442 -189Q1442 -190 1440 -195Q1418 -199 1419 -199Q1411 -199 1394 -196Q1377 -193 1369 -193Q1343 -193 1293 -209.5Q1243 -226 1216 -226Q1171 -226 1126 -209Q1129 -166 1126 -156Q1160 -144 1230 -144Q1271 -144 1311 -154Q1303 -165 1297 -183H1307Q1380 -110 1386 -10Q1389 -19 1389 -27Q1389 -90 1313 -189H1327Q1376 -152 1412 -12Q1411 -78 1346 -183Q1347 -189 1355 -189Q1364 -189 1373 -177Q1432 -174 1425 -174Q1442 -174 1442 -189ZM1106 -198Q1106 -213 1085 -280Q1106 -416 1106 -424Q1106 -476 1077 -624Q1046 -782 1025 -809Q1000 -841 933 -841H927Q887 -841 875 -852V-859Q875 -901 880 -925Q836 -939 836 -989Q836 -995 837 -1001Q872 -1030 872 -1038Q872 -1062 855 -1062Q839 -1062 832 -1037Q828 -1019 824 -1000Q818 -1002 804.5 -1005.5Q791 -1009 784 -1040Q778 -1067 732 -1067Q725 -1067 711 -1066Q697 -1065 690 -1065Q679 -1046 658 -1006Q668 -988 687 -952Q700 -929 714 -924Q717 -923 752 -920Q764 -919 772 -916V-849L762 -841Q712 -841 641 -825Q598 -793 581.5 -668.5Q565 -544 553 -534Q488 -543 459 -543Q446 -543 421.5 -538.5Q397 -534 384 -534Q345 -534 327 -551Q317 -561 307 -570Q325 -558 325 -531Q325 -515 314 -504Q325 -515 333 -515Q353 -515 384 -505Q422 -494 435 -492Q442 -491 510 -491Q519 -491 535.5 -489.5Q552 -488 561 -488Q611 -488 623 -521Q625 -531 630 -551Q647 -595 669 -688Q672 -719 694 -724L724 -490L934 -533Q923 -616 923 -606Q923 -620 937 -675.5Q951 -731 958 -736Q965 -741 972 -741L1042 -524Q1037 -497 1037 -475Q1037 -412 1059 -299Q1063 -278 1063 -275Q1063 -271 1044 -226L1052 -234L1063 -221V-199Q1055 -190 1047 -190Q1041 -190 1031 -194.5Q1021 -199 1016 -199Q1005 -199 992 -188Q994 -179 994 -166Q999 -165 1011 -165Q1016 -165 1026.5 -168Q1037 -171 1042 -171Q1049 -171 1061 -165Q1073 -159 1078 -159Q1106 -159 1106 -198ZM971 -344Q971 -447 938 -509Q868 -495 727 -465Q700 -369 616 -114H941V-249Q941 -266 956 -296.5Q971 -327 971 -344ZM303 -524Q304 -541 292 -552Q289 -553 266 -557Q260 -547 257 -541V-532Q257 -509 265 -509Q281 -509 303 -524ZM992 325Q992 323 982.5 300Q973 277 972 270.5Q971 264 971 151Q971 98 952 16Q948 3 942 -24Q940 -39 941 -87H854Q856 -65 863 -22Q870 -10 882 16Q894 50 909.5 135Q925 220 925 255Q925 303 858 325Q841 331 751 346V351H910Q913 351 923 343.5Q933 336 939 336Q946 336 959 343.5Q972 351 977 351Q992 351 992 325ZM706 -87H660Q627 -87 610 -89Q607 -61 597 -5Q586 29 569 97Q567 144 549 230Q525 285 462 312Q403 331 344 349V351H488Q492 351 503 343.5Q514 336 521 336Q523 336 537.5 343.5Q552 351 563 351Q587 351 587 294Q587 286 586 269Q585 252 585 244Q585 222 618 153Q654 78 658 50Q659 29 666 -11Q679 -36 706 -87ZM762 -1034Q740 -1023 729 -1023Q720 -1023 700 -1033Q707 -1061 734 -1061Q751 -1061 762 -1034Z"/>
</svg>