<svg xmlns="http://www.w3.org/2000/svg" viewBox="0 -2048 2048 2048">
	<path fill="currentColor" d="M1339 -270Q1339 -261 1337 -256Q1300 -257 1292 -344Q1290 -361 1293 -391Q1296 -427 1296 -438Q1296 -520 1252 -520Q1228 -520 1222 -460Q1219 -414 1216 -368Q1211 -314 1193 -279Q1184 -261 1153 -237Q1143 -229 1126 -229H694V347H847V-57H1245V-348Q1253 -353 1269 -364V372H627V-222Q615 -213 606 -160Q601 -125 595 -89Q541 65 484 279Q481 373 452 373Q441 373 396 355Q391 356 374.5 363Q358 370 351 370H188V319Q242 307 344 265Q379 244 391 189Q405 104 432 -65Q442 -99 460 -166Q468 -207 476 -249Q486 -301 504 -326L487 -321L477 -400L330 -337Q320 -343 301 -374V-393Q386 -407 467 -428Q458 -445 439 -481Q445 -487 470 -503H498Q493 -483 493 -474Q493 -466 494 -462Q548 -519 629 -519Q638 -519 655.5 -514.5Q673 -510 681 -510Q677 -510 932 -601Q932 -637 921 -689Q904 -769 903 -775Q687 -639 594 -639Q587 -639 573 -640.5Q559 -642 552 -642Q521 -642 457 -634Q393 -626 362 -626Q353 -626 335.5 -629.5Q318 -633 309 -633Q294 -633 263 -610V148Q271 155 288 168Q289 171 289 210Q289 227 308 246Q298 258 281 258Q256 258 250 244Q248 238 248 208Q248 193 238 189Q236 191 223 199Q223 212 222 239Q210 247 197 256Q194 257 162 257Q163 252 176 220Q180 209 180 176V162Q191 156 214 144V-619Q176 -629 176 -690Q176 -695 185 -702L173 -703Q173 -710 171.5 -722.5Q170 -735 170 -741Q186 -738 201 -738Q204 -738 214 -739V-1142Q214 -1151 195 -1169Q156 -1067 135 -997L124 -991H100V-1172Q100 -1184 116 -1222Q123 -1238 160 -1286Q185 -1317 185 -1366Q185 -1365 171 -1421Q189 -1418 217 -1406Q224 -1400 239 -1374Q254 -1348 254 -1340Q254 -1314 208 -1216V-1214Q218 -1211 235 -1202Q263 -1180 263 -1158V-741Q274 -738 303 -719Q482 -744 594 -744Q595 -744 603 -748Q615 -752 638 -762Q670 -777 724 -813Q826 -881 884 -914Q838 -929 838 -975Q838 -1009 876 -1085Q914 -1161 914 -1168Q914 -1201 828 -1201Q747 -1201 646 -1104H630Q619 -1115 619 -1121Q619 -1122 646 -1154Q733 -1258 854 -1267Q873 -1268 892 -1282.5Q911 -1297 926 -1297Q838 -1297 838 -1435Q838 -1494 890 -1539.5Q942 -1585 1001 -1585Q1007 -1585 1017.5 -1582.5Q1028 -1580 1032 -1580Q1092 -1574 1134.5 -1531Q1177 -1488 1177 -1428Q1177 -1382 1144.5 -1340.5Q1112 -1299 1067 -1286Q1168 -1264 1226 -1190Q1280 -1121 1290 -1046Q1291 -1042 1294.5 -1031.5Q1298 -1021 1298 -1015V-792H1221V-532Q1235 -543 1252 -543Q1267 -543 1284 -536Q1290 -533 1305 -507.5Q1320 -482 1320 -474V-385Q1320 -379 1316.5 -367.5Q1313 -356 1313 -350Q1313 -342 1326 -315Q1339 -288 1339 -270ZM1154 -1428Q1154 -1487 1106 -1526Q1061 -1562 1001 -1562Q950 -1562 905.5 -1523Q861 -1484 861 -1434Q861 -1391 895 -1350.5Q929 -1310 971 -1304Q983 -1304 1005 -1300Q1014 -1297 1015 -1297Q1037 -1297 1074.5 -1314.5Q1112 -1332 1123 -1349Q1154 -1396 1154 -1428ZM1272 -817V-1027Q1272 -1064 1233 -1134.5Q1194 -1205 1163 -1221Q1148 -1230 1116 -1248Q1195 -1187 1195 -1113Q1195 -1043 1152.5 -1004.5Q1110 -966 1110 -949Q1110 -931 1111 -883Q1111 -841 1111 -817H1151V-919Q1151 -933 1157 -933Q1159 -933 1167 -927Q1181 -922 1205 -906Q1222 -887 1222 -827V-817ZM1172 -1113Q1172 -1162 1126 -1210Q1083 -1255 1033 -1266Q1046 -1240 1046 -1217Q1046 -1185 1014 -1147Q987 -1116 961 -1085Q934 -1043 934 -1002V-997Q945 -993 949 -986L950 -814H987V-917L1000 -930Q1040 -914 1049 -914Q1047 -914 1090 -925V-930Q1090 -936 1088 -946.5Q1086 -957 1086 -963Q1086 -983 1116 -1008Q1155 -1041 1160 -1048Q1172 -1066 1172 -1113ZM1023 -1218Q1023 -1267 998 -1272Q988 -1274 978 -1274Q916 -1274 905 -1265Q880 -1245 878 -1244Q872 -1242 843 -1242Q794 -1242 732 -1200Q776 -1224 828 -1224Q856 -1224 884 -1220Q898 -1218 912 -1205Q932 -1188 937 -1185Q938 -1171 933 -1143Q930 -1135 890 -1061Q861 -1006 861 -975Q861 -939 923 -930V-976Q911 -991 911 -995Q911 -1006 924 -1047.5Q937 -1089 943 -1097Q968 -1125 993 -1153Q1023 -1190 1023 -1218ZM1087 -819V-898Q1055 -891 1049 -891Q1041 -891 1013 -900V-788H923Q937 -732 955 -617ZM1200 -833Q1200 -887 1174 -897V-799Q1160 -790 1113 -790Q1099 -790 1099 -790Q1036 -693 956 -583Q905 -544 720 -496Q685 -487 681 -487Q676 -487 667 -491.5Q658 -496 655 -496Q653 -496 628 -493Q628 -480 612.5 -470.5Q597 -461 597 -454Q597 -448 607 -435Q623 -434 625 -434Q644 -434 663 -445Q691 -460 699 -463Q832 -486 995 -528Q1034 -552 1147 -726Q1168 -753 1196 -801Q1200 -813 1200 -833ZM236 -1159V-1161Q236 -1165 220 -1185Q209 -1190 202 -1192V-1191Q223 -1177 236 -1159ZM230 -1337Q230 -1345 209 -1376Q211 -1367 211 -1363Q211 -1315 172 -1261.5Q133 -1208 131 -1189Q127 -1183 127 -1112Q127 -1097 123.5 -1068.5Q120 -1040 120 -1030Q120 -1026 121 -1022Q126 -1042 137 -1083Q151 -1118 174 -1188Q170 -1176 161 -1151L148 -1183Q158 -1199 184 -1232L181 -1217Q184 -1225 211 -1275Q230 -1310 230 -1337ZM923 -791V-906H920Q908 -906 867 -880Q840 -863 813 -845Q806 -841 714 -779Q654 -739 608 -726Q580 -718 588 -718Q491 -718 491 -718Q468 -716 398 -707Q340 -699 306 -699Q301 -699 290 -701Q279 -718 240 -718Q284 -691 284 -674Q284 -666 278 -647Q298 -656 303 -656H491Q501 -656 521.5 -660.5Q542 -665 552 -665Q559 -665 572.5 -663.5Q586 -662 593 -662Q633 -662 650 -668Q742 -700 860 -774Q903 -801 909 -801Q918 -801 920 -796H919L922 -793ZM945 -451Q945 -481 942 -491Q889 -473 808 -460Q766 -455 689 -435Q673 -425 641 -407Q622 -377 569 -377Q565 -377 511 -389Q522 -366 530 -352V-351Q558 -371 587 -375Q679 -385 864 -407Q945 -417 945 -451ZM599 -494Q594 -496 590 -496Q585 -496 574 -492Q577 -492 582.5 -490.5Q588 -489 591 -489Q596 -491 599 -494ZM588 -422Q574 -443 574 -456Q574 -462 577 -468H568Q539 -454 507 -424Q552 -416 555 -416Q569 -416 588 -422ZM471 -470L470 -476L468 -475ZM1200 -488L1196 -757Q1152 -692 1108 -627Q1048 -541 1011 -510Q1000 -501 965 -496V-489Q965 -482 967.5 -468.5Q970 -455 970 -448Q970 -399 862 -384Q775 -376 601 -355Q523 -343 504 -272Q501 -248 492 -202Q479 -157 455 -66Q452 -33 444 34Q435 88 413 193Q393 273 323 305Q286 314 214 335V344H360Q364 344 378 338Q392 332 398 332Q403 332 419.5 340.5Q436 349 449 350Q458 340 458 282Q458 250 511 104Q559 -27 576 -105Q579 -132 588 -185Q605 -255 642 -255L1128 -252Q1155 -252 1175 -291Q1202 -344 1200 -488ZM1245 -9V-31H874V346H895V-9ZM1245 346V18H922V346ZM261 -671Q261 -677 245 -686.5Q229 -696 222 -696Q209 -696 199 -685Q205 -640 236 -640Q239 -640 255 -651Q261 -665 261 -671ZM381 -385L327 -375V-372Q330 -366 334 -362Q350 -370 381 -385ZM667 346V-228H655V346ZM976 -1247Q976 -1222 956 -1222Q949 -1222 927 -1233Q940 -1260 954 -1260Q962 -1260 970 -1254H969Z"/>
</svg>