<svg xmlns="http://www.w3.org/2000/svg" viewBox="22.2 -1650.8 1131.7 2101.7">
	<path fill="currentColor" d="M1076 373H158Q158 353 168 347Q221 319 325 262Q268 89 227 -104Q227 -123 224 -160Q225 -164 228 -171Q216 -206 195 -274L202 -287L227 -285Q236 -515 236 -512L235 -525Q160 -587 158 -587Q169 -587 111 -558L100 -567Q108 -572 154 -612Q196 -676 196 -832Q196 -861 183 -926H336Q313 -834 313 -825Q313 -738 368 -598Q380 -589 405 -567L403 -548L355 -579Q285 -532 286 -525L312 -273Q339 -263 349 -242Q363 -209 366 -205Q389 -178 572 -12Q576 -30 576 -84Q576 -98 579.5 -125.5Q583 -153 583 -167Q583 -319 601 -527H483Q477 -541 477 -562Q477 -618 555.5 -704.5Q634 -791 634 -790Q634 -839 600 -852Q512 -822 508 -822Q486 -822 459 -842.5Q432 -863 432 -884Q432 -882 435 -905Q419 -912 392 -935Q385 -946 363 -988.5Q341 -1031 341 -1038Q341 -1077 477 -1147Q566 -1193 652 -1225Q630 -1236 590 -1265Q562 -1212 516 -1212Q438 -1212 438 -1315Q438 -1324 439 -1342.5Q440 -1361 440 -1370Q440 -1382 433 -1405.5Q426 -1429 426 -1441Q426 -1465 440 -1485Q434 -1486 423 -1486Q405 -1486 405 -1507Q405 -1550 475 -1550Q493 -1550 521 -1519.5Q549 -1489 553 -1470Q566 -1497 606 -1529Q646 -1561 677 -1569Q692 -1573 730 -1573Q754 -1573 833 -1542Q847 -1537 887 -1476Q908 -1444 908 -1423V-1332Q908 -1330 910.5 -1325Q913 -1320 913 -1318Q916 -1299 959 -1235V-1215H939Q897 -1245 879 -1292Q839 -1240 798 -1223Q856 -1214 913.5 -1154Q971 -1094 982 -1035Q1004 -917 1004 -886V-534H917V179Q917 177 899 265Q907 269 1076 356ZM885 -1394Q885 -1405 883 -1422Q881 -1444 856.5 -1481.5Q832 -1519 814 -1523Q805 -1525 782 -1537Q764 -1547 748 -1547Q690 -1547 678 -1543Q561 -1505 561 -1385Q561 -1320 609 -1277.5Q657 -1235 723 -1235Q764 -1235 786 -1242Q831 -1256 859 -1302Q885 -1344 885 -1394ZM498 -1510Q483 -1524 474 -1524Q445 -1524 431 -1514Q489 -1514 498 -1510ZM532 -1458Q532 -1471 509 -1498L514 -1490Q452 -1486 452 -1442Q452 -1429 458 -1403Q464 -1377 464 -1363Q464 -1352 462.5 -1331.5Q461 -1311 461 -1300Q461 -1235 514 -1235Q517 -1235 522 -1236Q477 -1236 477 -1299Q477 -1326 506 -1392Q514 -1406 523 -1421.5Q532 -1437 532 -1458ZM562 -1304Q530 -1350 536 -1393Q500 -1350 500 -1285Q500 -1262 517 -1262Q530 -1262 530 -1262Q546 -1280 562 -1304ZM573 -1281Q566 -1269 550 -1246Q565 -1258 573 -1281ZM984 -557L982 -897Q982 -929 959 -1032Q933 -1150 804 -1195Q838 -1151 838 -1112Q838 -1083 817.5 -1058.5Q797 -1034 769 -1030Q775 -1023 775 -1013Q775 -952 728 -915Q704 -896 629 -863Q658 -844 658 -792Q658 -779 643 -761Q598 -719 523 -620Q503 -583 503 -586V-553H601Q604 -587 620 -652Q657 -734 745 -734Q853 -734 897 -646Q902 -635 916 -556Q966 -559 984 -557ZM815 -1110Q815 -1143 788.5 -1176.5Q762 -1210 730 -1210Q674 -1210 660 -1205Q602 -1185 496 -1131Q364 -1064 364 -1038Q364 -1023 413 -945Q424 -927 448 -927Q462 -927 488.5 -943.5Q515 -960 520 -960Q532 -960 532 -952Q532 -948 531 -946Q486 -910 458 -904Q455 -889 455 -887Q455 -873 475 -859Q495 -845 510 -845Q524 -845 610 -880.5Q696 -916 709 -926Q749 -959 749 -1009Q749 -1015 741.5 -1024Q734 -1033 734 -1039Q734 -1055 745 -1051Q815 -1052 815 -1110ZM341 -614Q290 -772 290 -826Q290 -867 304 -903H211Q222 -875 222 -846Q222 -729 182 -621Q222 -634 250 -634Q293 -634 341 -614ZM1012 349Q950 318 882 282Q875 275 876 269Q884 233 891 195V-569Q891 -598 875 -639Q870 -652 846.5 -674Q823 -696 810 -701Q783 -711 745 -711Q716 -711 683.5 -688.5Q651 -666 640 -639Q632 -617 626 -538Q606 -252 606 -260V-178Q606 -176 591 30Q510 -38 419 -123Q393 -150 340 -198Q330 -206 305 -206Q247 -206 247 -148Q247 -113 285 45Q323 203 340 241Q349 261 349 275L210 349ZM333 -592Q308 -608 280 -608Q208 -608 184 -598Q187 -595 230 -561Q259 -538 259 -516Q259 -510 247 -283Q262 -283 292 -279L263 -530Q262 -541 333 -592ZM331 -225Q315 -247 282 -254Q252 -257 223 -261Q227 -247 243 -207Q265 -229 306 -229Q315 -229 331 -225ZM633 -1070Q633 -1071 610 -1036Q568 -1044 568 -1077Q568 -1108 600 -1108Q633 -1108 633 -1070ZM610 -1071Q610 -1082 599 -1082Q598 -1082 596 -1081Q594 -1080 592 -1077Q596 -1069 603 -1064Z"/>
</svg>