<svg xmlns="http://www.w3.org/2000/svg" viewBox="0 -2048 2048 2048">
	<path fill="currentColor" d="M1809 125Q1809 188 1791 245Q1789 245 1785 248Q1781 251 1773 251Q1740 251 1720 156Q1707 64 1665 -111Q1655 -139 1612 -207Q1564 -283 1539 -301Q1510 -278 1474 -189.5Q1438 -101 1438 -60Q1438 -53 1454 1.5Q1470 56 1470 63Q1470 113 1436 231Q1397 366 1361 366Q1340 366 1301 353Q1328 326 1365 269Q1394 181 1394 65Q1394 62 1348 0Q1317 72 1286 143Q1250 228 1238 293Q1196 315 1196 347Q1196 353 1197 359Q1189 359 1100 360V318Q1124 304 1163 274Q1172 264 1203 174Q1236 80 1236 52Q1236 46 1216 -9Q1194 -74 1188 -95Q1181 -121 1181 -183Q1181 -319 1230 -407Q1207 -430 1038 -556Q919 -645 878 -732Q857 -702 836 -672Q805 -628 788 -628L392 -655Q378 -650 378 -638Q378 -631 385.5 -611Q393 -591 394 -580Q381 -577 358 -568Q348 -603 322 -679Q320 -682 299 -685Q293 -703 269 -763Q274 -766 285.5 -771.5Q297 -777 302 -780Q302 -820 276 -824Q249 -825 222 -826Q202 -832 170.5 -864.5Q139 -897 134 -920Q127 -939 118 -980Q100 -1112 100 -1147Q100 -1209 120 -1390Q129 -1476 145 -1538Q155 -1542 175 -1551L357 -742Q394 -710 537 -710Q538 -710 623.5 -713Q709 -716 751 -716Q815 -920 815 -934Q815 -931 795 -1040Q794 -1093 793 -1146Q789 -1212 740 -1232Q628 -1278 510 -1312Q517 -1325 516 -1348Q525 -1349 676 -1349Q676 -1349 753 -1360.5Q830 -1372 866 -1372Q914 -1430 908 -1466Q908 -1469 911 -1475.5Q914 -1482 914 -1485Q923 -1484 939.5 -1463.5Q956 -1443 960 -1431Q971 -1447 992 -1480Q1006 -1471 1020 -1435.5Q1034 -1400 1034 -1382Q1034 -1375 1017.5 -1337Q1001 -1299 1001 -1292Q1001 -1286 1015.5 -1265Q1030 -1244 1031 -1238L1062 -1090Q1075 -1027 1133 -960Q1258 -816 1384 -638Q1440 -573 1539 -447Q1575 -396 1575 -332Q1669 -280 1742 -128Q1809 12 1809 125ZM941 -1406Q941 -1414 937 -1421.5Q933 -1429 933 -1431Q927 -1408 892 -1361Q895 -1361 904.5 -1358Q914 -1355 917 -1355Q941 -1391 941 -1406ZM1787 125Q1787 59 1708 -140Q1673 -228 1580 -294Q1653 -207 1687 -116Q1708 -61 1727 45Q1747 156 1768 218Q1787 161 1787 125ZM1551 -328V-347Q1544 -380 1500 -458Q1447 -513 1351 -627Q1315 -687 1249 -785Q1189 -851 1100 -955Q1068 -997 1040 -1096Q1029 -1146 999 -1243Q997 -1249 984 -1267Q974 -1282 974 -1289Q974 -1296 990 -1335.5Q1006 -1375 1006 -1382Q1006 -1389 992 -1431Q991 -1414 964.5 -1368Q938 -1322 924 -1322Q917 -1322 860 -1335.5Q803 -1349 796 -1349Q786 -1349 759 -1335.5Q732 -1322 690 -1322Q693 -1322 629 -1324Q572 -1326 542 -1325Q599 -1310 655 -1294Q732 -1272 778 -1233Q811 -1205 813 -1182Q818 -1112 834 -983Q865 -1020 889 -1043Q903 -1029 903 -1025Q846 -961 815 -859Q794 -777 773 -695Q761 -695 733.5 -691.5Q706 -688 698 -688L526 -683Q433 -683 404 -690Q382 -695 303 -748Q306 -734 315 -712Q417 -672 409 -672H610Q617 -672 684 -663.5Q751 -655 758 -655Q789 -655 792 -657Q807 -666 832 -706Q889 -797 905.5 -831Q922 -865 928 -881Q934 -909 950 -956H963L968 -921Q947 -865 917 -807Q892 -759 892 -759Q892 -714 993 -628Q1057 -578 1122 -528Q1242 -430 1321 -344Q1326 -372 1327 -378Q1333 -397 1347 -404Q1350 -401 1354 -399.5Q1358 -398 1361 -395Q1339 -307 1339 -232Q1339 -47 1421 61L1396 278L1448 46Q1410 -3 1410 -60Q1410 -105 1456 -208Q1504 -315 1538 -333Q1543 -328 1551 -328ZM1330 -61V-76H1321V-61ZM307 -847L163 -1491L127 -1136Q127 -952 184 -876Q207 -845 251 -847ZM1323 5Q1323 0 1312 -22Q1301 -44 1301 -52Q1301 -101 1307 -183Q1314 -279 1315 -310Q1315 -310 1243 -382Q1241 -365 1222 -287Q1208 -225 1208 -189Q1208 -149 1210 -139Q1217 -105 1244 -32Q1268 34 1268 38Q1268 76 1190 289Q1202 283 1217 271Q1233 213 1286 80Q1289 73 1307 39Q1323 11 1323 5ZM1393 284L1339 337H1358Q1375 338 1393 284ZM1175 337V306Q1148 315 1127 337ZM874 -1315Q874 -1302 868.5 -1288Q863 -1274 863 -1273Q855 -1276 834 -1281.5Q813 -1287 805 -1290Q805 -1293 802 -1302.5Q799 -1312 799 -1315Q807 -1317 874 -1315Z"/>
</svg>