<svg xmlns="http://www.w3.org/2000/svg" viewBox="0 0 709 1000">
  <g transform="scale(1,-1) translate(0,-1000)">
    <path d="M19 741Q24 735 35.0 732.0Q46 729 55 716Q62 705 65.0 688.5Q68 672 69.5 661.5Q71 651 78.0 651.0Q85 651 88.0 657.5Q91 664 91.0 673.0Q91 682 94.0 694.5Q97 707 103 716Q112 729 123.0 732.0Q134 735 139 741Q139 745 116.5 750.0Q94 755 79 755Q67 755 52.5 752.5Q38 750 28.5 746.5Q19 743 19 741ZM362 727Q382 727 382 715Q382 700 364.0 700.0Q346 700 346 715Q346 727 362 727ZM432 749Q445 732 449.5 708.0Q454 684 454 611Q454 572 451 512L526 523L502 650Q500 656 496.5 669.0Q493 682 491.5 686.5Q490 691 487.0 700.0Q484 709 482.0 712.5Q480 716 476.5 723.0Q473 730 470.0 734.5Q467 739 462.0 744.5Q457 750 451 756Q446 773 401 773Q386 773 376 768Q378 767 403.5 760.5Q429 754 432 749ZM319 539Q322 532 339.0 506.0Q356 480 363.5 460.0Q371 440 371 416Q371 400 369.5 386.0Q368 372 366.5 364.5Q365 357 361.5 343.5Q358 330 356 322Q343 261 341.0 217.5Q339 174 335 143L332 122L496 152V155Q496 188 486.5 228.0Q477 268 472 304Q468 334 466.0 361.5Q464 389 462.5 421.0Q461 453 459 476L438 472H432Q421 472 420 483L427 611Q427 659 424.5 685.5Q422 712 419.5 718.5Q417 725 411 733Q403 737 347 750Q336 745 329.5 727.5Q323 710 323 699Q325 694 325 694Q331 684 350.5 678.0Q370 672 382 657Q389 648 392.0 639.5Q395 631 395.5 619.5Q396 608 398 601Q398 592 392.5 587.0Q387 582 353 559ZM363 808Q338 829 311.5 866.5Q285 904 285 912Q285 925 295 925Q299 925 303.5 918.5Q308 912 318.0 898.0Q328 884 339 872Q345 904 376 919V969Q376 979 386 979H418V990Q418 1000 428.0 1000.0Q438 1000 438 990V920Q472 907 478 872Q488 884 498.0 898.0Q508 912 513.0 918.5Q518 925 522.0 925.0Q526 925 529.5 921.5Q533 918 533 912Q533 909 524.0 893.0Q515 877 496.0 852.0Q477 827 455 808Q461 808 461 801V798Q461 797 460.5 794.5Q460 792 460 790Q489 772 505.5 748.0Q522 724 526.5 707.5Q531 691 536 659L565 500V496Q565 495 553 492L605 419Q615 402 630.0 340.0Q645 278 647 264Q664 258 670 228L669 225Q669 206 662.0 186.5Q655 167 649.5 158.5Q644 150 642 148L703 150Q709 150 709 142Q709 125 702 125L645 126L648 31Q644 13 634 13Q622 13 619 35V126L565 125Q560 125 560 140Q560 149 566 149L621 148Q594 187 594 220V229Q602 249 602 250V257V268V279Q606 289 606 319L569 407L510 484Q496 482 495 481Q497 458 498.5 425.0Q500 392 502.0 365.5Q504 339 508 309Q513 275 523.0 233.0Q533 191 533 155Q533 140 526 89Q527 86 527 62Q527 60 526.5 55.0Q526 50 526 38V31Q526 11 520.5 5.5Q515 0 503 0H419Q418 1 412.0 6.0Q406 11 405 17Q405 21 430.0 32.0Q455 43 488 53Q488 56 487.5 62.5Q487 69 487 71Q487 78 494 124L373 99Q372 100 371.0 100.0Q370 100 328 94Q327 85 325.5 75.0Q324 65 322.0 53.0Q320 41 319 34V31Q319 11 313.0 5.5Q307 0 285 0H223Q198 0 198 17Q198 30 288 60Q287 62 287 65Q287 81 298 148Q304 184 305.0 226.5Q306 269 319 329Q322 344 326.5 362.5Q331 381 333.0 391.5Q335 402 335 416Q335 445 309 490L267 383Q255 360 249 355Q226 338 129 280Q122 276 112.0 268.0Q102 260 97 257V23Q97 16 91.5 10.5Q86 5 78.0 5.0Q70 5 65.0 10.5Q60 16 60 23V247Q51 252 51 263Q51 272 60 279V628Q50 636 47.5 669.0Q45 702 28 706Q0 715 0 742Q0 761 15.0 770.5Q30 780 79.0 780.0Q128 780 143.5 770.5Q159 761 159 742Q159 721 139.5 710.5Q120 700 118.0 697.0Q116 694 111.0 666.5Q106 639 97 630V305Q103 303 106 303Q108 303 114 305Q137 316 154.5 330.0Q172 344 192.5 363.5Q213 383 229 395L275 537V539Q275 551 286 558Q320 578 360 603Q359 609 359.0 615.5Q359 622 358.0 626.0Q357 630 353 635Q347 642 325.0 649.5Q303 657 294 674Q287 688 287 696Q287 716 303.0 749.5Q319 783 349 792Q350 793 353.0 793.5Q356 794 357 794V801Q357 804 358.5 806.0Q360 808 362 808ZM407 816Q426 816 439.0 828.5Q452 841 452 858Q452 876 438.5 887.5Q425 899 406 899Q389 899 376.5 887.5Q364 876 364.0 859.0Q364 842 376.5 829.0Q389 816 407 816ZM612 215Q612 202 617.0 189.0Q622 176 627 169L632 162Q645 186 648.0 193.5Q651 201 651 217V221Q651 231 646 238Q641 215 621 211Q616 211 612 215ZM396 925Q400 926 407 926Q409 926 412.5 925.5Q416 925 418 925V959H396Z" fill="currentColor"/>
  </g>
</svg>