<svg xmlns="http://www.w3.org/2000/svg" viewBox="23.6 -1621.4 1168.8 2062.8">
	<path fill="currentColor" d="M1116 351Q1110 360 1110 365H129Q126 358 117 346Q264 283 346 242Q291 77 205 -232Q207 -267 207 -341Q207 -346 177 -435Q198 -447 217 -437Q220 -440 220 -459Q220 -465 214 -506Q206 -552 205 -565Q194 -700 164 -936Q161 -953 100 -979Q106 -992 118 -1016Q126 -1013 143 -1007.5Q160 -1002 168 -999Q175 -1013 200 -1041Q213 -1040 226 -1051V-1067Q203 -1083 172 -1093V-1113H329Q329 -1110 332 -1103.5Q335 -1097 335 -1094Q317 -1088 298 -1082Q271 -1072 269 -1058Q288 -1047 316 -1020Q341 -972 341 -909L291 -448Q291 -432 312 -418Q344 -397 360 -376Q444 -264 621 -38L642 -426H554Q554 -431 551 -445Q548 -459 548 -467Q548 -564 591.5 -663.5Q635 -763 635 -762Q635 -779 570 -835Q535 -863 500 -892Q473 -922 418 -971Q396 -981 357 -1002Q433 -1091 608 -1166Q539 -1203 517 -1241Q477 -1310 477 -1354Q477 -1432 550 -1490Q617 -1545 693 -1545Q777 -1545 842.5 -1486.5Q908 -1428 908 -1346Q908 -1242 788 -1169Q800 -1160 830 -1154Q949 -1130 1026 -976Q1089 -848 1088 -730V-427H990V222Q990 221 974 253ZM881 -1346Q881 -1416 825 -1467Q769 -1518 695 -1518Q626 -1518 568 -1473Q504 -1424 504 -1352Q504 -1271 571 -1219Q631 -1174 704 -1174Q768 -1174 822 -1221Q881 -1273 881 -1346ZM1067 -634Q1067 -1071 772 -1140Q810 -1093 810 -1029Q810 -972 763 -895Q709 -813 656 -731Q575 -598 576 -510V-454H645Q643 -729 797 -761Q800 -762 808.5 -766Q817 -770 824 -770Q924 -770 968 -633Q1000 -534 991 -454H1065Q1067 -431 1067 -634ZM788 -1027Q788 -1152 674 -1152Q622 -1152 541 -1112Q466 -1075 414 -1029Q437 -1033 483 -1018V-1003L479 -999Q436 -1006 428 -997L655 -787Q699 -846 742 -905Q788 -974 788 -1027ZM313 -923Q313 -1027 256 -1027Q188 -1027 188 -958Q188 -869 250 -439Q254 -438 262 -432ZM1050 336Q1000 301 936 264Q968 219 968 211V-495Q968 -480 953 -550Q930 -657 924 -672Q894 -743 824 -743Q725 -743 689 -609Q674 -548 666 -385Q654 -130 639 2Q633 11 628 11Q534 -109 440 -223Q378 -299 368 -309Q323 -355 289 -355Q231 -355 231 -271Q231 -217 303 18Q341 138 379 258Q319 286 199 336ZM324 -379Q316 -389 284.5 -402Q253 -415 239 -415H210Q216 -393 228 -355Q264 -382 289 -382Q295 -382 307.5 -380.5Q320 -379 324 -379ZM624 -1067Q621 -1065 609 -1054Q597 -1043 589 -1043Q590 -1043 554 -1061Q566 -1087 589 -1103Q601 -1090 624 -1067Z"/>
</svg>