<svg xmlns="http://www.w3.org/2000/svg" viewBox="22.8 -1639.2 1158.5 2085.5">
	<path fill="currentColor" d="M1104 349Q1104 363 1097 369H100L243 257Q222 225 222 214V-431H123V-688Q122 -809 168 -935Q224 -1094 322 -1132Q357 -1149 425 -1178Q304 -1240 304 -1358Q304 -1435 381 -1500Q454 -1562 528 -1562Q608 -1562 674 -1504Q740 -1446 740 -1366Q740 -1243 613 -1178Q790 -1106 867 -1012Q841 -1000 794 -970Q743 -928 673 -863Q586 -782 586 -767Q586 -767 630 -675.5Q674 -584 674 -483Q674 -476 671 -456Q668 -436 668 -430H574V-345Q579 -305 586 -234Q584 -159 600 -38Q651 -105 739 -214Q784 -271 828 -327Q876 -380 931 -380Q1022 -380 1022 -281Q1022 -233 955 -5Q916 123 878 251Q982 302 1104 349ZM718 -1366Q718 -1439 653 -1489Q594 -1534 522 -1534Q456 -1534 394 -1479Q332 -1424 332 -1358Q332 -1283 394 -1232Q450 -1186 517 -1186Q598 -1186 656 -1235Q718 -1287 718 -1366ZM803 -1039Q677 -1159 552 -1159Q436 -1159 436 -1035Q436 -978 467 -927Q469 -925 566 -794Q683 -911 795 -1007Q789 -1010 778 -1008Q763 -1004 759 -1004Q750 -1004 740 -1014V-1028Q752 -1039 803 -1039ZM646 -459V-510Q646 -523 635 -578Q621 -641 606 -671Q594 -695 485 -855Q409 -968 409 -1037Q409 -1082 447 -1153H423Q386 -1153 309 -1090.5Q232 -1028 218 -991Q196 -941 163 -836Q150 -764 150 -759V-459H220Q223 -772 395 -772Q510 -772 549 -651Q560 -617 575 -459ZM1022 341Q964 318 845 262Q892 116 939 -30Q988 -190 988 -270Q988 -353 925 -353Q880 -353 832 -293Q794 -242 756 -192Q702 -123 593 12Q582 12 576 2Q560 -226 534 -599Q531 -646 492 -695Q448 -750 395 -750Q335 -750 288 -665Q249 -596 249 -550V219Q249 222 276 262Q269 268 166 341ZM663 -1076Q663 -1054 632 -1054Q627 -1054 597 -1084Q609 -1097 632 -1115Q663 -1100 663 -1076Z"/>
</svg>