<svg xmlns="http://www.w3.org/2000/svg" viewBox="0 0 775 1000">
  <g transform="scale(1,-1) translate(0,-1000)">
    <path d="M77 640H76Q76 640 70 640Q67 640 67 639Q55 620 47 611L25 596Q23 594 23 593Q23 590 28.0 586.0Q33 582 34 580Q44 563 54.0 538.5Q64 514 68 508Q68 507 70.0 506.5Q72 506 74.0 505.5Q76 505 78 504ZM353 688Q359 707 359 707Q359 710 356 713Q341 725 258 757Q253 759 194 773Q178 776 162 776H139Q99 769 92 767Q59 756 59 746Q59 739 73 730Q107 747 119.0 749.0Q131 751 150 751Q165 751 193 746Q214 742 267 721Q314 705 353 688ZM111 731Q91 722 87 719Q84 717 67 700L49 684Q40 676 27 665L55 663Q92 661 98 660Q102 660 104.5 659.0Q107 658 110.5 657.0Q114 656 117 655Q116 656 111.0 662.0Q106 668 104 673Q97 687 97 696V698Q97 708 101 717Q102 720 106.0 724.5Q110 729 111 731ZM160 657Q166 657 172.5 658.5Q179 660 189.0 670.5Q199 681 199 700Q199 708 196 717Q191 734 154 734Q136 734 125.5 724.5Q115 715 114.0 709.0Q113 703 113 698Q113 679 129 665Q138 657 160 657ZM346 672Q310 684 245 713Q244 713 215 724Q215 721 216.5 714.0Q218 707 218 702V698Q217 687 211 672Q208 666 194 652Q236 657 246.5 658.5Q257 660 266 661Q271 662 281.5 664.0Q292 666 307.5 668.5Q323 671 346 672ZM373 487Q379 487 379 480Q379 477 377 475Q371 469 356.5 454.0Q342 439 334.5 432.0Q327 425 315.5 415.0Q304 405 293 398Q301 396 307 391Q333 372 354.5 347.5Q376 323 386.5 307.5Q397 292 416 260Q425 244 438 225Q455 312 503 464H487H480Q467 464 467 478V480Q477 539 515 615Q475 635 465 645Q460 650 448.0 666.0Q436 682 429 689Q418 700 404.0 706.5Q390 713 389 714Q385 718 385 724Q385 734 393 737Q418 749 449 769Q499 802 534 810Q498 815 486 827Q474 810 454.5 798.0Q435 786 421 786Q406 786 385 811Q375 822 375 841Q375 850 378.5 870.0Q382 890 382 901Q382 922 371.0 930.0Q360 938 360 945Q360 959 387 959Q406 959 418.0 945.5Q430 932 430 910Q430 898 425.0 875.0Q420 852 420 844Q420 830 435 830Q442 830 447.0 833.5Q452 837 457.5 843.0Q463 849 468 852Q445 885 445 908Q445 954 484.0 977.0Q523 1000 573 1000Q628 1000 668.0 970.0Q708 940 708 890Q708 878 706 872Q730 856 752.5 823.5Q775 791 775 771Q775 750 765 745H764Q761 745 751.5 760.0Q742 775 724.0 797.5Q706 820 685 835Q671 817 621 810Q654 802 674 782Q690 766 696 742Q701 724 708.5 696.0Q716 668 720.5 652.0Q725 636 729.0 614.5Q733 593 733 574Q734 554 734.5 536.5Q735 519 735.5 509.0Q736 499 736.5 491.5Q737 484 738 481V478Q738 464 724 464H693Q698 404 698 320Q698 190 681 62Q682 62 684.5 61.5Q687 61 690.0 60.5Q693 60 696 60Q749 55 771 30Q775 25 775 18Q775 10 769.5 5.0Q764 0 757 0H213Q195 0 195 10Q195 25 201 30Q218 45 247.5 52.0Q277 59 281 63Q284 66 286 75Q287 80 287 89V102Q287 142 252.0 214.0Q217 286 217 340Q217 359 229 374Q222 373 209 373Q174 373 140.5 389.5Q107 406 86.0 424.5Q65 443 34 475Q32 477 32 480Q32 487 39 487H87Q61 491 58 494Q50 501 47.0 508.0Q44 515 41.5 524.0Q39 533 36 539Q34 544 31.0 551.5Q28 559 25.0 565.0Q22 571 18 578Q16 581 8.0 586.5Q0 592 0 595Q0 597 6.5 601.5Q13 606 20.5 611.0Q28 616 30 618Q37 625 40.5 629.5Q44 634 46.0 639.0Q48 644 49 646H43Q26 646 7 650Q4 652 4 655Q4 660 5 662Q8 667 29 686Q34 691 40.5 698.0Q47 705 52.5 710.5Q58 716 63 720V721Q63 723 54.0 734.0Q45 745 45 751Q45 754 48 757Q60 768 87.0 780.0Q114 792 154 792Q164 792 196 788Q230 783 262 770Q356 731 369 719Q373 716 373 710Q373 708 372.0 703.5Q371 699 371 696Q371 691 368 682Q369 681 380.5 677.5Q392 674 392 666Q392 664 391 663V528Q391 521 387 518Q388 516 388 514V512Q388 510 386.5 506.5Q385 503 375.5 496.0Q366 489 350 487ZM73 468Q109 431 139.5 411.5Q170 392 209 392Q218 392 226.0 393.0Q234 394 240.5 395.5Q247 397 254.5 400.5Q262 404 266.5 406.0Q271 408 279.0 414.5Q287 421 290.0 423.0Q293 425 301.5 433.0Q310 441 312.5 443.5Q315 446 324.5 456.0Q334 466 336 468ZM573 964Q480 964 480 904Q480 872 508.5 855.0Q537 838 576 838Q613 838 641.0 852.0Q669 866 672 890V897Q672 928 642.0 946.0Q612 964 573 964ZM515.0 738.5Q509 742 509.0 748.0Q509 754 515.0 757.5Q521 761 528.0 761.0Q535 761 541.0 757.5Q547 754 547.0 748.0Q547 742 541.0 738.5Q535 735 528.0 735.0Q521 735 515.0 738.5ZM655 36Q645 46 645 60Q645 60 649.5 95.5Q654 131 658.0 193.0Q662 255 662 319Q662 396 656 474Q654 492 639.0 509.0Q624 526 607 526Q599 526 589.5 524.0Q580 522 564.0 508.0Q548 494 541 469Q537 454 524.0 409.0Q511 364 507.0 348.5Q503 333 495.0 299.0Q487 265 481.5 235.5Q476 206 471 170Q469 154 453 154Q444 154 439 161Q417 190 391.5 232.5Q366 275 343.0 305.5Q320 336 286 362Q282 364 280 364Q272 364 262.5 356.0Q253 348 253 340V339Q254 290 288.5 221.0Q323 152 323 102V86Q323 76 322 70Q319 48 304 36ZM466 735Q476 735 476 724Q476 714 466 714Q462 714 455.0 713.5Q448 713 445 713Q453 706 472 681Q483 666 490.0 660.0Q497 654 517 645Q519 644 522.0 642.5Q525 641 528 640Q532 646 542 656Q548 662 559.0 671.0Q570 680 574 684Q585 695 588 706Q597 733 597 754Q597 762 589 786H575Q542 786 519.5 777.0Q497 768 464 746L446 734ZM619 781Q625 763 625 754Q625 733 614 697Q606 673 577 650Q557 634 548 618Q545 612 537.0 596.5Q529 581 526.0 574.5Q523 568 517.0 555.0Q511 542 508.0 533.5Q505 525 502.0 514.0Q499 503 497 492Q500 492 505.0 492.5Q510 493 512 493Q541 562 607 562Q635 562 658.0 541.5Q681 521 689 492H709Q707 519 705 573Q705 597 700.0 620.5Q695 644 684.5 679.5Q674 715 669 735Q664 752 654 762Q641 775 619 781ZM373 530V659Q364 658 344.5 657.0Q325 656 312 654Q290 650 273.0 645.0Q256 640 238.0 637.0Q220 634 181 632Q172 631 158 631Q138 631 112 638Q124 627 148.0 606.5Q172 586 175 584Q232 536 256.0 522.0Q280 508 317 502Q322 501 331 501Q375 501 375 513Q375 521 360 521H353Q348 521 343.0 517.0Q338 513 338 511V510Q338 510 341.0 508.5Q344 507 344 506Q344 504 339 503Q323 506 323 513V514Q327 531 355 532H356Q365 532 373 530ZM317 487Q291 489 268 498Q236 513 222.5 522.0Q209 531 162 572Q162 572 158.0 575.5Q154 579 147.0 584.5Q140 590 131.5 597.0Q123 604 113.0 614.0Q103 624 93 634V487Z" fill="currentColor"/>
  </g>
</svg>