<svg xmlns="http://www.w3.org/2000/svg" viewBox="0 -2048 2048 2048">
	<path fill="#000000" d="M1123 -85Q1113 -79 1102 -79Q1092 -79 1072.5 -84Q1053 -89 1042 -89Q1045 -30 1062 37L1017 42L1004 35Q1011 -47 1011 -87Q990 -82 944 -76V-131Q972 -125 990 -124Q946 -198 946 -223Q946 -228 958 -247Q958 -268 974 -317Q980 -327 980 -329V-504Q980 -516 984.5 -540Q989 -564 989 -576Q989 -592 923 -681H853L852 -678Q852 -666 848.5 -640Q845 -614 845 -600Q845 -579 860 -520.5Q875 -462 875 -441Q875 -428 863 -393.5Q851 -359 851 -332Q851 -311 852.5 -267.5Q854 -224 854 -203Q854 -182 853 -167Q853 -160 843 -122Q834 -89 836 -72Q851 52 851 54V344Q851 344 826 380Q819 382 812 382Q806 382 787 373Q768 364 764 364Q762 364 750.5 369Q739 374 734 375Q696 377 621 382Q610 371 609 359Q575 379 566 379Q558 379 539 364Q537 364 524 373Q511 382 505 382H371Q368 367 368 354Q368 337 373 312L383 323H385Q425 323 465 301Q510 276 517 241Q524 206 524 88Q524 82 525.5 71Q527 60 527 54Q527 -28 527 -28L625 -627Q625 -627 625 -637Q625 -660 612 -665Q601 -618 566 -528Q555 -508 343 -355Q319 -343 274 -313Q265 -305 247 -290V376H192V-304Q178 -319 178 -328Q178 -334 180 -345Q182 -356 182 -362L192 -370L181 -375V-396Q185 -405 192 -406V-885Q162 -897 152 -927Q139 -968 131 -978Q120 -986 100 -1004Q149 -1038 226 -1038Q236 -1038 353 -1006Q343 -999 322 -984.5Q301 -970 289 -931Q278 -897 247 -885V-404Q254 -397 259 -397Q280 -417 308 -443Q387 -510 469 -589Q471 -606 477 -640Q480 -654 508 -753Q517 -794 525 -834Q537 -879 567 -905Q586 -921 651 -923Q655 -935 655 -949Q640 -953 609 -960Q607 -965 602 -987Q600 -996 586.5 -1014.5Q573 -1033 573 -1039Q573 -1046 626 -1158Q648 -1204 697 -1220Q672 -1258 627 -1258Q619 -1258 569 -1249Q566 -1254 559 -1264Q553 -1329 532 -1458H528Q463 -1458 463 -1519Q463 -1515 465 -1543Q501 -1576 517 -1576Q528 -1576 551.5 -1565.5Q575 -1555 579 -1547Q625 -1458 729 -1230Q798 -1230 798 -1230Q821 -1293 867 -1419Q876 -1448 898 -1504Q903 -1521 909.5 -1539Q916 -1557 930 -1565Q950 -1576 981 -1576Q1006 -1576 1040 -1547Q1042 -1540 1042 -1524Q1042 -1468 991 -1468Q988 -1468 982.5 -1469.5Q977 -1471 974 -1471V-1260Q931 -1262 851 -1247Q845 -1238 832 -1220Q877 -1207 894 -1180Q924 -1130 930 -1053Q930 -1050 930 -920Q930 -878 933 -869Q945 -859 964 -837Q981 -809 1034 -710Q1092 -601 1091 -592L1061 -347Q1060 -339 1060 -335Q1060 -331 1070.5 -313.5Q1081 -296 1081 -283Q1081 -280 1079.5 -274.5Q1078 -269 1078 -266Q1078 -266 1079 -261Q1088 -250 1097 -239Q1103 -232 1103 -205Q1103 -162 1057 -116Q1075 -116 1106 -121Q1113 -115 1123 -85ZM1016 -1521Q1016 -1553 979 -1553Q956 -1553 949 -1548Q930 -1534 913 -1485Q901 -1449 889 -1413Q884 -1401 833 -1261L838 -1267Q917 -1283 947 -1282L957 -1499Q981 -1491 991 -1491Q1016 -1491 1016 -1521ZM689 -1265Q651 -1356 561 -1529Q548 -1550 517 -1550Q487 -1550 487 -1518Q487 -1502 498 -1488L501 -1486Q501 -1486 530 -1486Q546 -1486 555 -1476Q565 -1409 581 -1274Q619 -1281 627 -1281Q667 -1281 689 -1265ZM907 -708V-1061Q907 -1119 876 -1167Q863 -1188 817 -1201L816 -1200V-1201Q785 -1210 780 -1210Q716 -1210 678 -1188Q668 -1182 639 -1124H757Q787 -1124 787 -1079Q787 -1052 760 -1038V-708ZM1068 -591Q1069 -597 1006 -712.5Q943 -828 934 -836L936 -709Q1012 -577 1012 -580Q1012 -568 1007.5 -545Q1003 -522 1003 -510V-325Q1003 -319 994 -304Q985 -289 985 -286Q985 -258 983 -265Q992 -281 995 -285Q1013 -272 1013 -249Q1013 -237 1018 -225Q1020 -225 1025 -224Q1059 -224 1059 -281Q1059 -287 1048 -306.5Q1037 -326 1037 -332Q1037 -336 1038 -344ZM1062 -199Q1062 -206 1059 -216Q1041 -198 1023 -198Q1006 -198 997 -212Q998 -181 1029 -135Q1062 -182 1062 -199ZM1033 15L1029 -11L1025 15ZM852 -441Q852 -469 837 -520.5Q822 -572 822 -599Q822 -599 830 -681Q851 -681 744 -682L745 -683L733 -688V-1049Q764 -1063 764 -1079Q764 -1088 758 -1097H624Q610 -1072 596 -1041Q609 -1024 625 -977Q643 -975 678 -967V-939Q678 -905 666 -900Q664 -899 626 -899Q602 -899 582 -887.5Q562 -876 551 -840Q524 -749 499 -640Q497 -613 487 -574Q466 -544 324 -426Q261 -374 259 -374Q254 -374 241 -381Q270 -362 273 -341Q345 -389 416 -437Q505 -499 549 -542Q557 -549 574 -606.5Q591 -664 591 -678Q591 -677 577.5 -696.5Q564 -716 564 -735Q564 -742 585.5 -769Q607 -796 606 -803Q606 -805 605 -808.5Q604 -812 604 -814Q604 -825 622 -833L632 -823V-797L588 -731Q588 -726 590.5 -714Q593 -702 622 -684Q648 -668 648 -636Q648 -608 629 -517Q603 -386 603 -385Q592 -291 564 -105Q553 -42 553 -57V54Q553 59 550 69.5Q547 80 547 85Q547 94 548.5 113.5Q550 133 550 142Q550 150 547 165Q544 180 544 189H825V28Q825 28 813 -70Q811 -86 820 -121Q830 -160 830 -164Q831 -179 831 -219Q831 -275 829 -307Q829 -312 827 -322.5Q825 -333 825 -339Q825 -357 838.5 -390Q852 -423 852 -441ZM294 -997Q247 -1012 226 -1012Q183 -1012 147 -999Q153 -993 174 -943Q190 -906 215 -904V-402H222V-904Q251 -907 265 -942Q284 -988 294 -997ZM248 -340Q248 -362 227 -362Q220 -362 219 -362Q216 -359 208 -354Q201 -324 201 -330Q201 -320 227 -308Q248 -333 248 -340ZM825 324Q825 316 820.5 298Q816 280 816 271Q816 265 823 213H750Q763 269 763 281Q763 298 738 319Q713 340 694 342Q675 344 636 351V356H695Q715 356 739 348.5Q763 341 764 341Q770 341 787.5 348.5Q805 356 809 356Q825 356 825 324ZM740 269Q740 279 729 213Q710 213 679 214Q641 215 628 215Q599 255 599 296Q599 303 604 319Q609 338 610 344L611 337Q651 328 690 318Q740 305 740 269ZM599 216H545Q545 273 496 309Q454 340 393 346V356H508Q511 356 522.5 348.5Q534 341 540 341Q546 341 556 348.5Q566 356 568 356Q585 356 585 342Q585 334 581.5 317.5Q578 301 578 292Q578 263 599 216ZM222 354V-291H215V354ZM694 -1042Q679 -1039 661 -1039Q644 -1039 624 -1043Q644 -1078 660 -1078Q686 -1078 694 -1042Z"/>
</svg>