<svg xmlns="http://www.w3.org/2000/svg" viewBox="0 -2048 2048 2048">
	<path fill="#000000" d="M1171 -160Q1145 -198 1101 -271V-375Q1101 -403 1070 -403Q1034 -403 1034 -376Q1034 -202 977 -154Q960 -140 935 -140H556V354H702V17H1058V-325L1083 -332V379H494V-139Q481 -131 481 -81Q481 -22 450 93Q433 130 404 204Q399 230 387 281Q384 293 384 307Q384 314 386.5 326.5Q389 339 389 345Q389 351 373 373Q328 377 338 377Q329 377 311 369.5Q293 362 284 362Q280 362 259.5 371Q239 380 233 380H100V327Q138 319 213 302Q266 288 294 231Q304 211 326 20Q349 -186 361 -231Q373 -280 435 -293Q481 -303 779 -341V-362Q779 -371 779 -387Q778 -404 778 -412H446Q445 -412 381 -398V-268L333 -269V-399Q288 -405 288 -445Q288 -465 313 -485Q305 -499 301 -512Q308 -514 333 -519V-564H328Q282 -564 282 -613Q282 -630 296.5 -648Q311 -666 313 -679H333V-966Q333 -973 321 -987Q318 -969 306 -936Q297 -924 284 -899Q283 -886 281 -858Q280 -841 264 -824Q256 -830 236 -830L228 -837Q227 -865 227 -882Q227 -959 241 -1014Q252 -1031 273 -1064Q308 -1119 315 -1136Q327 -1167 327 -1218Q327 -1245 337 -1264Q344 -1262 373 -1255Q412 -1246 412 -1167Q412 -1115 344 -1025Q381 -1003 381 -933V-676Q389 -669 407 -662Q438 -659 497 -659Q508 -659 535 -664Q562 -669 575 -668L694 -659Q695 -659 786 -737Q758 -739 735 -742Q737 -760 743 -795Q751 -834 804 -888Q853 -937 853 -964Q853 -972 840 -973Q825 -941 760 -907Q749 -894 722 -873Q698 -860 680 -860Q671 -860 639.5 -885Q608 -910 608 -919Q608 -948 626 -964Q661 -995 662 -996Q668 -1004 706 -1085Q733 -1143 775 -1165Q766 -1174 750 -1193Q724 -1236 724 -1266Q724 -1291 730 -1341.5Q736 -1392 736 -1417Q736 -1476 704 -1522Q702 -1546 724 -1546Q734 -1546 754.5 -1527Q775 -1508 781 -1497Q795 -1471 795 -1440Q795 -1415 789 -1364Q783 -1313 783 -1287Q783 -1234 854 -1190Q876 -1191 886 -1191Q894 -1191 908 -1186.5Q922 -1182 928 -1182Q937 -1182 966 -1199.5Q995 -1217 999 -1225Q1018 -1260 1024 -1324Q1032 -1402 1039 -1426Q1043 -1438 1068 -1467Q1098 -1501 1115 -1501Q1119 -1501 1125.5 -1499.5Q1132 -1498 1136 -1498L1144 -1491V-1467Q1102 -1442 1087 -1391Q1080 -1365 1075 -1294Q1074 -1285 1070 -1260Q1067 -1239 1067 -1227Q1067 -1209 1045 -1183Q1081 -1175 1122 -1149Q1109 -1121 1094 -1113Q1091 -1111 1052 -1102Q1078 -1076 1078 -1039V-723Q1060 -728 1043 -728Q1033 -728 1023 -727Q1030 -687 1030 -672Q1030 -643 1021.5 -586Q1013 -529 1013 -501Q1013 -491 1026 -404Q1043 -426 1070 -426Q1075 -426 1086 -422.5Q1097 -419 1102 -418Q1127 -373 1127 -370V-273Q1127 -276 1171 -195ZM1092 -1142Q1061 -1162 1036 -1162Q1023 -1162 995 -1138Q1025 -1155 1049 -1155Q1062 -1155 1089 -1138ZM824 -1184Q756 -1241 756 -1283Q756 -1309 764 -1361Q772 -1413 772 -1439Q772 -1477 741 -1505Q759 -1470 759 -1417Q759 -1395 753 -1351Q747 -1307 747 -1285Q747 -1242 765 -1212Q786 -1176 795 -1176Q798 -1176 824 -1184ZM1118 -1475V-1477Q1069 -1445 1061.5 -1420.5Q1054 -1396 1045 -1313Q1038 -1246 1017 -1212Q1005 -1192 976 -1178.5Q947 -1165 938.5 -1155.5Q930 -1146 920 -1139L906 -1152Q909 -1155 914 -1161Q896 -1165 875 -1165Q798 -1165 759 -1125Q738 -1104 711 -1039Q685 -978 654 -953Q631 -934 631 -922Q631 -918 650 -909.5Q669 -901 674 -901Q689 -901 714 -920Q698 -921 672 -916Q668 -914 658 -914Q660 -942 677 -942Q691 -942 717 -923Q725 -928 727 -928Q740 -928 739 -918Q763 -930 805 -967Q826 -996 839 -996Q853 -996 871 -982Q876 -957 876 -961Q876 -943 859 -916Q857 -913 797 -845Q762 -806 762 -761Q748 -760 813 -760Q845 -818 850 -824Q873 -850 919 -850Q993 -850 1018 -749Q1041 -751 1052 -750L1056 -1039Q1056 -1053 1042 -1076Q1028 -1099 1015 -1099Q1011 -1099 995 -1091L981 -1104Q1005 -1126 1050 -1126Q1069 -1126 1078 -1130Q1074 -1130 1064 -1131Q1054 -1132 1049 -1132Q1034 -1132 944 -1103Q955 -1111 967 -1120Q956 -1121 956 -1129Q956 -1131 957 -1132Q960 -1152 999.5 -1177Q1039 -1202 1043 -1219Q1051 -1288 1058 -1357Q1069 -1440 1118 -1475ZM389 -1169Q389 -1225 354 -1234V-1226Q354 -1163 331 -1114Q323 -1097 271 -1018Q267 -1013 260 -1001Q254 -986 254 -956V-854L261 -850Q257 -860 257 -877Q257 -904 287 -950Q292 -976 304 -1012Q331 -1049 357 -1087Q389 -1135 389 -1169ZM1008 -679Q1008 -729 988 -772Q962 -827 918 -827Q877 -827 862 -806Q848 -781 835 -755Q823 -737 762 -687Q762 -647 778.5 -629Q795 -611 794 -572Q882 -701 960 -769Q968 -761 968 -755L967 -751Q938 -717 888 -658Q843 -605 805 -546Q778 -504 759 -496Q734 -486 659 -486Q651 -486 635.5 -487.5Q620 -489 612 -489Q609 -489 401 -471Q394 -470 379 -482Q372 -474 339 -468Q311 -463 311 -445Q311 -420 366 -420Q361 -420 412 -430Q438 -435 480 -435Q490 -435 512 -433.5Q534 -432 546 -432L788 -440Q796 -440 810 -452Q829 -468 918.5 -569.5Q1008 -671 1008 -679ZM755 -623Q739 -643 738 -665Q706 -635 698 -636L577 -645Q563 -646 536 -641Q509 -636 497 -636H404Q398 -636 391 -643Q384 -650 381 -650Q397 -625 397 -613Q397 -605 393 -597Q402 -599 402 -599Q408 -599 421 -596Q434 -593 440 -593H553Q571 -593 606 -588.5Q641 -584 659 -584Q700 -584 714.5 -589.5Q729 -595 755 -623ZM359 -681V-967L355 -957V-681ZM766 -537V-551Q766 -587 765 -602Q725 -561 644 -561Q635 -561 616.5 -564Q598 -567 589 -567H461Q452 -567 433 -571.5Q414 -576 405 -576Q408 -576 381 -568V-509Q397 -493 404 -494Q476 -501 619 -512Q619 -512 705 -512Q766 -512 766 -537ZM372 -613Q372 -639 340 -639H333Q305 -639 305 -613Q305 -604 312 -593Q345 -587 337 -587Q352 -587 371 -602Q372 -611 372 -613ZM359 -522V-560H355V-522ZM1010 -298Q1010 -334 998 -446Q991 -511 990 -498L1002 -634Q954 -577 907 -520Q848 -453 799 -420Q799 -413 801.5 -399Q804 -385 804 -378Q804 -345 793 -319Q692 -308 591 -297Q431 -276 407 -255.5Q383 -235 380 -219Q362 -138 325 196Q317 271 272 301Q245 319 201 329Q164 336 126 343V354H239Q243 354 260.5 346.5Q278 339 284 339Q293 339 312.5 346.5Q332 354 340 354Q366 354 366 342Q366 336 363 324.5Q360 313 360 307Q360 258 387 190Q427 88 430 77Q457 -18 457 -100Q457 -166 521 -166H944Q972 -166 993 -220Q1010 -264 1010 -298ZM359 -291V-397H355V-291ZM1058 52V43H727V354H736V52ZM1058 354V79H762V354ZM529 354V-139L523 -140V354ZM845 -1067Q837 -1051 826 -1048Q824 -1045 822 -1035Q806 -1033 778 -1014Q784 -1032 784 -1074Q789 -1074 797 -1077Q805 -1080 809 -1080Q806 -1080 845 -1067Z"/>
</svg>