<svg xmlns="http://www.w3.org/2000/svg" viewBox="0 -2048 2048 2048">
	<path fill="#000000" d="M1216 365H177Q177 361 171 352Q174 347 178 341Q214 329 443 248Q387 83 292 -252Q287 -276 307 -307L247 -433Q271 -443 303 -440Q308 -464 297 -528Q183 -538 137 -593Q100 -637 100 -726L150 -1262Q164 -1260 180 -1268Q241 -979 351 -439Q380 -427 426 -394Q434 -384 723 1Q732 -39 732 -84V-421Q732 -452 743 -507Q725 -514 689 -511Q677 -547 677 -566Q677 -604 708 -684Q720 -715 769 -816Q802 -885 802 -911Q802 -941 781 -941Q779 -941 696 -876Q613 -811 593 -811Q561 -811 529 -833Q497 -855 497 -884Q497 -912 571.5 -1033Q646 -1154 672 -1173Q575 -1229 547 -1267Q519 -1305 519 -1377Q519 -1490 576 -1524H594Q615 -1491 597 -1439Q592 -1424 592 -1407Q592 -1341 661 -1279Q727 -1219 789 -1219Q795 -1219 812 -1224.5Q829 -1230 838 -1230Q846 -1230 857.5 -1224.5Q869 -1219 876 -1219Q883 -1219 890 -1228Q897 -1237 902 -1239Q940 -1257 983 -1303Q1029 -1354 1035 -1391Q1047 -1462 1033 -1511Q1039 -1520 1055 -1540Q1102 -1525 1102 -1423Q1102 -1274 982 -1188Q993 -1182 1019 -1164Q1056 -1136 1078 -1081Q1100 -1026 1105 -977L1145 -523H1079Q1076 -505 1084 -400Q1102 -170 1102 -128V200Q1102 202 1096 223Q1092 239 1097 247Q1115 272 1153 308Q1210 359 1216 365ZM737 -1209Q568 -1260 568 -1423Q568 -1429 572.5 -1453Q577 -1477 577 -1486Q566 -1475 554 -1439Q541 -1400 541 -1372Q541 -1297 580 -1265Q605 -1244 650 -1218Q695 -1192 704 -1192Q712 -1192 737 -1209ZM1118 -544V-591Q1119 -610 1101 -774Q1081 -963 1062 -1064Q1057 -1091 1039 -1109Q1004 -1137 939 -1189Q1086 -1256 1086 -1421Q1086 -1452 1066 -1502Q1068 -1483 1068 -1465Q1068 -1291 913 -1211Q896 -1202 865 -1170Q862 -1173 855.5 -1177Q849 -1181 846 -1184Q849 -1187 851.5 -1192.5Q854 -1198 857 -1201Q856 -1201 845 -1204.5Q834 -1208 821 -1208Q758 -1188 726 -1172Q666 -1142 641 -1098Q525 -897 525 -884Q525 -854 557 -854Q583 -854 620 -887L642 -865Q776 -969 783 -969Q824 -969 824 -909Q824 -875 787 -795Q761 -742 735 -689Q704 -614 705 -595V-539H747Q780 -657 817 -698.5Q854 -740 930 -740Q989 -740 1034 -663Q1067 -605 1076 -544ZM301 -555L168 -1197L122 -715Q122 -668 142 -627Q167 -578 211 -567Q259 -555 261 -555ZM1156 342Q1129 314 1075 259V-128Q1076 -228 1045 -536Q1042 -563 1034 -591Q1020 -638 985.5 -675.5Q951 -713 920 -713Q833 -713 797 -620Q779 -576 759 -432L753 20Q748 42 735 55Q668 -32 536 -205Q503 -250 470 -296Q427 -348 389 -348Q323 -348 318 -260L476 264L263 342ZM399 -377Q338 -414 309 -412H280Q306 -376 314 -348Q333 -365 399 -377ZM742 -1067Q725 -1059 691 -1034L672 -1053Q678 -1059 688 -1083Q694 -1099 708 -1099H735L742 -1092Z"/>
</svg>