<svg xmlns="http://www.w3.org/2000/svg" viewBox="0 0 538 1000">
  <g transform="scale(1,-1) translate(0,-1000)">
    <path d="M72 339Q72 287 102.5 197.5Q133 108 133 80Q133 53 100 31L461 32Q419 65 419 96Q419 113 429.5 166.0Q440 219 440 256Q440 290 429 351L430 353Q426 379 424.0 414.5Q422 450 418.0 477.0Q414 504 405 534Q394 534 381.5 524.5Q369 515 361.5 506.0Q354 497 354 496Q340 469 323.5 455.5Q307 442 299 431Q300 430 311.0 417.5Q322 405 327 394Q334 379 334 362Q334 349 328.0 331.5Q322 314 321 307Q318 288 309.5 259.5Q301 231 298 211Q296 198 282 198Q275 198 188.0 276.5Q101 355 93 355Q86 355 79.0 350.0Q72 345 72 339ZM319 747Q319 763 339 763Q347 763 354.0 758.5Q361 754 361 747Q361 733 339 733Q319 733 319 747ZM387 734Q387 748 409.0 751.0Q431 754 431 758Q431 795 396 795Q366 795 315 776Q291 768 259 741Q249 733 243 728Q251 717 259.5 706.0Q268 695 272.5 689.5Q277 684 279 680Q307 690 309 690Q317 690 317 683Q317 679 313.0 677.0Q309 675 285 666Q290 650 292.0 647.5Q294 645 303.0 645.0Q312 645 334 655Q346 661 357.5 665.5Q369 670 375.0 672.0Q381 674 386.0 677.0Q391 680 395 684Q403 692 403 698Q403 700 395.0 713.5Q387 727 387 734ZM326 509Q328 514 336.5 525.0Q345 536 365.5 551.0Q386 566 406 566Q428 566 434 547Q449 498 455 423Q455 415 456.0 406.5Q457 398 458.0 390.0Q459 382 459 379H466Q466 379 505 382Q503 415 503 472Q503 472 504.0 489.0Q505 506 506.0 530.0Q507 554 507 568V570Q507 570 507.5 578.0Q508 586 508.0 597.5Q508 609 508 619Q508 686 483 754Q478 770 459 781Q461 773 461 758Q461 730 425 722Q433 710 433 698Q433 663 375 641Q379 629 379 622Q379 599 342.5 562.5Q306 526 298 511Q306 509 311 509Q322 510 322 510Q323 510 324 510ZM50 644Q58 638 65.5 633.0Q73 628 79.0 624.5Q85 621 86 620Q110 636 124 646Q107 646 92.5 645.5Q78 645 71.0 644.5Q64 644 61 644ZM385 847Q413 847 432.0 865.0Q451 883 451.0 909.0Q451 935 432.0 951.5Q413 968 384 968Q358 968 340.0 951.5Q322 935 322.0 909.0Q322 883 340.5 865.0Q359 847 385 847ZM348 629Q320 615 303 615Q282 615 270 627Q263 634 259.0 647.5Q255 661 253 664Q242 680 229.5 696.0Q217 712 212.5 719.0Q208 726 208 731Q208 739 214 743Q224 750 240 764Q290 806 357 820Q327 829 308.0 853.5Q289 878 289 910Q289 948 316.0 973.5Q343 999 382 999Q425 999 454.5 974.0Q484 949 484 910Q484 881 467.0 857.5Q450 834 422 823Q491 814 511 764Q538 694 538 616V598V592Q538 578 536.0 526.0Q534 474 534 472Q534 439 535.0 414.0Q536 389 537 378L538 366Q538 350 522 350Q518 350 503.0 350.5Q488 351 480 351Q461 351 461 350Q472 286 472 255Q472 216 461.5 163.0Q451 110 451 95Q451 75 488.5 50.5Q526 26 526 16Q526 0 510 0H35Q19 0 19 16Q19 26 31.5 32.5Q44 39 64.5 48.5Q85 58 98 71Q102 75 102 79Q102 80 101.5 81.0Q101 82 100.5 85.5Q100 89 99 95Q93 125 66.5 205.5Q40 286 40 339Q40 371 76 384L75 599Q7 646 4 649Q0 653 0 657Q0 662 4.0 665.5Q8 669 12 669Q123 669 163 670Q174 670 174 659Q174 653 171 650Q171 650 100 601L99 384Q111 382 116 379Q119 378 148.5 356.0Q178 334 217.5 302.0Q257 270 274 250Q275 253 278.0 264.0Q281 275 284.5 288.0Q288 301 290 313Q292 323 297.5 338.0Q303 353 303 362Q303 378 285.0 398.5Q267 419 267 431Q267 450 304 480Q265 484 265 507Q265 528 299 562Q304 567 313.0 574.5Q322 582 326 586Q350 610 350 622Q350 625 348 629Z" fill="currentColor"/>
  </g>
</svg>