<svg xmlns="http://www.w3.org/2000/svg" viewBox="0 -2048 2048 2048">
	<path fill="#000000" d="M1274 396H196Q196 394 193 386.5Q190 379 190 376L447 254Q441 237 296 -95Q207 -298 215 -378Q217 -394 162 -506V-525Q180 -524 224 -527Q226 -528 232 -535Q233 -576 239 -679Q245 -776 245 -780Q245 -789 203.5 -831Q162 -873 153 -873Q155 -873 106 -856Q106 -859 103 -869Q100 -879 100 -882Q115 -888 137 -905Q146 -939 163 -999Q178 -1050 178 -1115Q178 -1144 174 -1196.5Q170 -1249 170 -1272Q170 -1295 173 -1314H334V-1138Q335 -1120 349 -1045Q368 -954 386 -904Q389 -896 430 -882Q423 -875 423 -862Q419 -862 407.5 -867.5Q396 -873 388 -873Q384 -873 290 -797Q298 -703 313 -514Q334 -508 350 -482Q372 -448 380 -441Q463 -367 538 -261Q664 -82 667 -78Q676 -134 676 -205V-371Q676 -460 699 -573Q723 -692 751 -726Q760 -737 795 -751Q800 -755 811 -765V-845Q811 -845 746 -845Q730 -845 725 -843Q706 -804 639 -727Q626 -737 603 -757Q604 -759 658 -816Q709 -870 710 -926V-951Q708 -950 643 -952Q643 -954 640 -961Q637 -968 637 -976Q637 -983 650 -1002Q665 -1027 668 -1033Q703 -1114 703 -1159Q703 -1193 687 -1217Q726 -1259 816 -1340Q737 -1461 737 -1474Q737 -1499 762 -1521.5Q787 -1544 805 -1544Q818 -1544 842 -1515.5Q866 -1487 866 -1480Q866 -1467 836 -1438H805Q807 -1443 838 -1485L801 -1522Q765 -1496 765 -1482Q765 -1462 836 -1354Q871 -1372 906 -1389Q951 -1415 976 -1448Q989 -1480 1019 -1537Q1035 -1561 1076 -1561Q1146 -1561 1146 -1499Q1146 -1493 1118 -1453.5Q1090 -1414 1090 -1404Q1090 -1393 1104 -1365L1186 -1538Q1206 -1538 1218 -1534.5Q1230 -1531 1229 -1531Q1224 -1517 1171 -1361Q1119 -1201 1004 -880Q1000 -871 983.5 -850Q967 -829 967 -822Q967 -794 992 -771Q1038 -729 1054 -709Q1078 -678 1082 -629Q1112 -253 1112 -106L1090 252Q1090 265 1178 329Q1226 362 1274 396ZM1118 -1502Q1118 -1538 1076 -1538Q1041 -1538 1030 -1498Q1014 -1442 1010 -1437Q985 -1407 872 -1339Q772 -1278 749 -1231H1038Q1086 -1291 1077 -1351Q1076 -1360 1067 -1384Q1060 -1403 1063 -1411Q1068 -1425 1094 -1462Q1118 -1496 1118 -1502ZM1161 -1426Q1136 -1358 1077 -1235Q1062 -1203 1036 -1202H727Q728 -1147 727 -1097Q741 -1097 917 -1081Q913 -1071 913 -1064Q913 -1054 928.5 -1046.5Q944 -1039 944 -1026Q944 -1019 933 -987Q922 -955 922 -948Q922 -933 941 -912.5Q960 -892 970 -889Q976 -895 983 -896ZM356 -907Q307 -1046 307 -1194Q307 -1286 306 -1291H196Q196 -1272 200 -1203Q204 -1142 204 -1103Q204 -981 173 -907Q217 -917 265 -917Q320 -917 356 -907ZM351 -882Q309 -886 265 -886Q222 -886 184 -882Q234 -842 265 -811ZM1185 367Q1143 335 1062 276Q1084 44 1084 -129Q1084 -522 1043 -669Q1038 -687 1016 -716Q987 -755 961 -755Q954 -755 948 -749Q948 -761 943.5 -786Q939 -811 939 -823Q939 -848 956 -865Q945 -870 921 -897Q894 -927 894 -940Q894 -945 902 -968.5Q910 -992 910 -1009Q910 -1018 908 -1026Q901 -1030 893 -1034Q882 -1040 882 -1048Q882 -1056 893 -1067H711Q679 -1016 671 -974Q703 -974 732 -963Q732 -915 729.5 -891.5Q727 -868 727 -874Q804 -863 839 -852Q839 -763 831.5 -749.5Q824 -736 797 -722.5Q770 -709 767 -703Q728 -637 716 -529Q710 -448 704 -367L698 -76Q697 -57 694 -49Q688 -35 674 -28Q615 -108 509 -245Q466 -305 422 -364Q371 -425 312 -425Q286 -425 260 -404Q234 -383 234 -352Q234 -291 283 -178Q322 -90 361 -2Q402 89 480 271Q349 335 273 367ZM277 -562Q278 -597 274 -652Q270 -713 270 -727Q261 -647 264 -520ZM351 -449Q340 -462 303.5 -479.5Q267 -497 253 -497H195Q207 -466 231 -408Q264 -449 351 -449ZM804 -996H750Q744 -1000 732 -1009V-1028Q769 -1046 777 -1046Q792 -1046 804 -1021Z"/>
</svg>