<svg xmlns="http://www.w3.org/2000/svg" viewBox="0 0 508 1000">
  <g transform="scale(1,-1) translate(0,-1000)">
    <path d="M198 730Q268 773 319 773Q360 773 384.0 764.0Q408 755 424 726Q430 715 433 704Q437 687 448.0 649.5Q459 612 463.5 590.0Q468 568 468 545Q469 526 469.5 509.5Q470 493 470.5 483.0Q471 473 471.5 466.0Q472 459 472 456L473 453Q473 440 459 440H430Q435 382 435 303Q435 191 418 58Q419 58 421.5 57.5Q424 57 427.0 56.5Q430 56 433 56Q485 51 504 29Q508 24 508 17Q508 0 491 0H17Q0 0 0 10Q0 24 6 29Q22 44 50.5 50.0Q79 56 82.0 59.0Q85 62 87 71Q88 76 88 84V96Q88 134 54.5 202.5Q21 271 21 322Q21 352 51 370V674Q39 664 35 656Q30 646 26.0 636.0Q22 626 18.0 612.0Q14 598 12 591Q11 601 6.0 623.0Q1 645 1 657Q1 664 2 668Q4 680 16.0 696.0Q28 712 31 719Q48 759 53 775Q55 781 59 814Q62 808 69.5 799.5Q77 791 81.0 783.5Q85 776 85 767V761Q85 733 70 700Q81 696 81 686V379Q97 379 107 371Q131 353 152.0 329.0Q173 305 181.5 292.0Q190 279 210 246Q212 242 216.0 235.5Q220 229 223.5 223.5Q227 218 231 213Q232 233 232 267Q232 370 249 440H234H227Q215 440 215 453V455Q225 512 261 584Q218 606 213 612Q208 617 197.0 632.0Q186 647 179 654Q168 665 155.0 671.0Q142 677 141 678Q137 682 137 687Q137 697 145 700Q170 713 198 730ZM273.0 698.0Q255 698 255.0 710.0Q255 722 273.0 722.0Q291 722 291.0 710.0Q291 698 273.0 698.0ZM394 34Q384 44 384 56Q384 57 388.0 90.5Q392 124 396.0 182.5Q400 241 400 302Q400 389 395 450Q393 468 378.5 483.5Q364 499 348 499Q341 499 331.5 497.0Q322 495 306.5 481.5Q291 468 285 445Q272 398 269.0 355.0Q266 312 266.5 257.5Q267 203 263 161Q261 146 245 146Q236 146 232 152Q211 179 187.0 220.0Q163 261 141.0 290.0Q119 319 87 343Q83 345 81 345Q73 345 64.0 337.0Q55 329 55 322V321Q56 275 89.0 209.0Q122 143 122 96V81Q122 72 121 66Q118 47 104 34ZM214 698Q224 698 224 687Q224 678 214 678Q210 678 203.5 677.5Q197 677 194 677Q195 676 220 646Q230 632 237.0 626.5Q244 621 263 612Q264 612 267.0 610.0Q270 608 273 607Q279 616 286 623Q291 628 302.0 636.5Q313 645 317 649Q327 659 330 670Q339 696 339 716Q339 722 331 746H318Q286 746 264.5 737.5Q243 729 212 708Q209 706 203.5 702.5Q198 699 195 697ZM359 741Q365 723 365 716Q365 693 355 662Q346 637 320 617Q302 603 292 586Q250 502 244 467Q247 467 251.5 467.5Q256 468 258 468Q286 533 348 533Q374 533 396.0 514.0Q418 495 426 467H445Q443 493 441 544Q441 567 436.0 589.5Q431 612 421.5 645.5Q412 679 407 698Q402 714 393 723Q382 734 359 741ZM266 793Q261 788 257 793Q256 797 259 800L298 875L221 910Q212 916 212 918V919Q212 919 215 919Q217 919 220.5 918.5Q224 918 225 918L307 905L317 988Q320 1000 322 1000Q326 1000 326 989V988L338 903L422 919Q423 919 425.5 919.5Q428 920 429 920Q434 920 435 919V918Q435 917 424 910L349 875L390 800Q390 799 391.5 797.0Q393 795 393.5 794.0Q394 793 393 791Q390 787 386 791L382 795L324 857L266 794Z" fill="currentColor"/>
  </g>
</svg>