<svg xmlns="http://www.w3.org/2000/svg" viewBox="24.2 -1610.8 1058.7 2047.7">
	<path fill="currentColor" d="M1007 355H843Q836 355 832 350Q828 345 821 345Q814 345 782 353Q750 361 743 361Q723 361 700.5 345Q678 329 678 312Q678 306 691.5 276.5Q705 247 708 233Q715 203 715 174V13Q715 -56 786 -165Q752 -181 683 -229Q584 -298 571 -307Q568 -309 543 -309Q531 -309 514 -307Q471 -244 316 -165Q354 -91 381 45Q417 229 420 239Q423 249 437 272.5Q451 296 451 302Q451 319 432 337.5Q413 356 399 356Q393 356 380.5 350.5Q368 345 362 345Q354 345 345 353Q336 361 329 361H117Q113 345 113 325Q113 305 117 297Q278 263 278 215Q278 189 242 116Q201 39 161 -39Q105 -153 105 -206Q105 -276 229 -441Q100 -565 100 -649Q100 -724 185 -865Q276 -1013 354 -1042Q324 -1120 317 -1170Q315 -1183 320 -1214Q325 -1249 325 -1262Q325 -1265 317.5 -1282Q310 -1299 310 -1306Q310 -1327 346 -1392Q376 -1447 393 -1469Q426 -1513 491 -1528Q521 -1535 551 -1535Q587 -1535 648 -1512Q719 -1486 740 -1453Q765 -1414 770 -1385Q773 -1362 776 -1339Q776 -1339 781 -1330.5Q786 -1322 786 -1314Q786 -1309 779 -1283Q772 -1257 771 -1246Q769 -1202 766 -1159Q760 -1105 737 -1047Q759 -1039 780 -1030Q810 -1018 828 -994Q875 -932 923 -847Q991 -727 991 -674Q991 -644 937 -543.5Q883 -443 883 -441Q883 -445 913 -394Q996 -254 996 -198Q996 -144 916 14Q836 172 836 215Q836 226 839 233Q891 269 957 290Q969 290 990 299Q996 312 1007 336ZM747 -1363V-1393Q747 -1432 674 -1472Q617 -1502 589 -1506Q574 -1508 553 -1508Q435 -1508 365 -1374Q401 -1378 505 -1378Q690 -1378 747 -1363ZM748 -1203L741 -1227Q724 -1226 689.5 -1169.5Q655 -1113 622 -1107V-920Q676 -960 707 -1046Q720 -1080 748 -1203ZM759 -1300Q759 -1322 751 -1332Q737 -1351 545 -1351Q424 -1351 436 -1352Q337 -1345 337 -1308Q337 -1283 363 -1264Q385 -1252 406 -1239Q409 -1213 425 -1185Q436 -1166 461 -1153Q500 -1133 503 -1131Q507 -1092 505 -1072Q518 -1064 590 -1066Q590 -1103 592 -1115Q615 -1128 648 -1154Q664 -1185 689 -1228Q699 -1241 735 -1257Q759 -1268 759 -1300ZM483 -987Q483 -1067 470 -1116Q439 -1130 383 -1225Q341 -1237 343 -1237V-1177Q343 -1129 390 -1036Q439 -938 477 -925Q477 -935 480 -958.5Q483 -982 483 -987ZM856 -663L766 -757Q739 -685 705 -619L795 -547Q817 -587 856 -663ZM391 -619Q391 -618 324 -752Q298 -718 256 -655L312 -541Q391 -604 391 -619ZM975 326Q813 271 813 234Q813 205 870 67Q902 -5 933 -78Q969 -174 969 -198Q969 -242 911 -345Q863 -430 832 -465Q810 -490 672 -614Q695 -651 713 -689Q722 -720 731 -750Q743 -791 766 -801Q778 -786 837 -718Q883 -666 883 -660Q883 -653 850.5 -596.5Q818 -540 818 -533Q818 -523 864 -466Q872 -474 917 -562Q964 -656 964 -674Q964 -717 904 -831Q852 -930 820.5 -967.5Q789 -1005 728 -1022Q661 -887 616 -887Q608 -887 605.5 -889.5Q603 -892 601 -892Q601 -944 590 -1043Q563 -1033 548 -1033Q526 -1033 506 -1043Q504 -996 499 -906Q497 -887 487 -887Q388 -946 363 -1011H345Q287 -988 207 -851Q127 -714 127 -647Q127 -608 165.5 -558Q204 -508 243 -460Q294 -509 294 -522Q294 -529 261.5 -589.5Q229 -650 229 -657Q229 -672 319 -790H333L424 -614Q330 -510 235 -407Q132 -281 132 -204Q132 -158 195 -30Q232 43 269 116Q305 198 305 221Q305 267 230 293Q181 306 132 320Q137 325 139 334Q125 334 163.5 336.5Q202 339 286 339Q315 338 367 312Q378 323 400 334Q410 321 424 305Q391 263 373 144Q348 -19 341 -42Q320 -92 288 -181Q370 -219 407 -243Q474 -286 498 -336Q543 -328 588 -334Q614 -303 652 -273Q672 -257 803 -188Q826 -176 824 -167Q753 -89 744 42Q729 237 705 316Q728 339 743 339Q750 339 780.5 331Q811 323 818 323Q838 323 858 334ZM661 -1269Q661 -1261 653 -1245Q650 -1245 634 -1239Q618 -1233 610 -1233Q605 -1233 581 -1245Q581 -1257 575 -1263Q629 -1281 624 -1281Q637 -1281 661 -1269ZM516 -1257Q516 -1227 489 -1227Q483 -1227 460.5 -1238.5Q438 -1250 430 -1250V-1275Q438 -1275 454.5 -1281Q471 -1287 478 -1287Q516 -1287 516 -1257Z"/>
</svg>