<svg xmlns="http://www.w3.org/2000/svg" viewBox="0 0 757 1000">
  <g transform="scale(1,-1) translate(0,-1000)">
    <path d="M639 263Q639 246 645.0 229.5Q651 213 656.5 204.0Q662 195 663 195Q664 196 666.0 198.5Q668 201 673 209Q688 233 688 261Q688 286 674 295Q674 269 652 262H648Q642 262 639 263ZM668 878 322 879Q317 879 301.5 885.5Q286 892 276.0 901.0Q266 910 255.5 929.0Q245 948 238.0 962.0Q231 976 228 976H227Q227 976 226.5 975.0Q226 974 226 973V972Q226 920 265 881Q285 860 318 853L667 850ZM318 829Q284 829 246.0 871.0Q208 913 208 972V973Q208 1000 228 1000Q243 999 261.5 963.5Q280 928 288 920Q299 909 323 903L676 902Q686 902 686 891L687 839V838Q687 826 677 826L512 827Q545 806 559.5 776.0Q574 746 579 673Q580 650 583 627Q593 621 597 609L640 493L651 382Q671 322 671 322Q687 319 696.0 310.5Q705 302 710 276L709 272Q709 249 700.5 225.5Q692 202 685.5 192.0Q679 182 676 179L750 180Q757 180 757 170Q757 164 754.0 157.5Q751 151 749 151H680L683 49Q677 28 666 28Q660 28 654.0 35.5Q648 43 647 55L648 152L581 150Q574 150 574 169Q574 180 582 180L650 178Q617 225 617 266V278Q618 280 619.5 285.0Q621 290 622 292Q621 303 619 324Q619 352 616 369L595 436Q589 464 589 464L550 544Q544 502 544 468Q544 461 543.0 450.5Q542 440 542 431Q542 419 540 393L550 262V251Q557 183 557 151V142L556 70Q554 52 554 41V33Q554 11 548.0 5.5Q542 0 528 0H440Q429 0 422.0 6.5Q415 13 415 18Q415 36 502 56V232H391Q386 151 360 71V67Q360 62 359.0 53.5Q358 45 358 42V34Q358 12 351.0 6.0Q344 0 319 0H247Q219 0 219 18Q219 35 307 57Q310 95 321.5 134.5Q333 174 337 212Q337 213 342.0 266.0Q347 319 353.0 387.0Q359 455 361 486Q360 503 359.5 506.0Q359 509 350 528Q308 451 271 417Q268 416 242.0 408.5Q216 401 185.5 396.5Q155 392 109 390Q104 390 80 386V111L112 38Q113 36 113 32Q113 26 108.5 21.5Q104 17 98 17Q88 17 84 26L65 70L46 26Q42 17 32 17Q26 17 21.5 21.5Q17 26 17 32Q17 35 50 111V384Q28 385 28.0 407.0Q28 429 50 434V779Q38 769 34 761Q29 751 25.0 741.0Q21 731 17.0 717.0Q13 703 11 696Q10 706 5.0 728.0Q0 750 0 762Q0 776 5.0 786.0Q10 796 18.0 806.0Q26 816 30 824Q47 863 50.5 875.0Q54 887 58 919Q61 913 68.5 904.5Q76 896 80.0 888.5Q84 881 84 872V866Q84 838 69 805Q80 801 80 791V437Q105 437 115 427L233 453L308 574Q316 586 332.0 602.0Q348 618 358.5 629.0Q369 640 369 646Q369 653 362 658Q302 591 276 591Q269 591 263.0 597.0Q257 603 257 612V613Q257 620 263.5 624.0Q270 628 281.5 632.0Q293 636 300 642Q309 650 330 688Q322 703 322 731Q322 735 324.0 745.0Q326 755 333.5 772.5Q341 790 353 799Q354 799 359.0 803.5Q364 808 372.5 815.0Q381 822 389 828ZM457 757Q445 775 413 775Q399 775 362 767Q350 750 350 731Q350 714 359.0 701.0Q368 688 378.5 681.5Q389 675 398.0 665.5Q407 656 407 646Q407 639 395.5 624.5Q384 610 373 599L362 588Q396 531 400 503Q400 498 399.0 465.0Q398 432 397 422L499 411Q499 421 501.0 440.5Q503 460 503 468Q503 504 505.0 527.5Q507 551 512.5 563.0Q518 575 521.0 579.5Q524 584 532.5 588.0Q541 592 544 594Q552 602 552 604Q552 605 549 608Q507 606 495 606H450Q436 606 436 619Q436 620 435.0 644.5Q434 669 433.0 695.0Q432 721 432 726Q432 733 436.5 739.0Q441 745 448.0 749.5Q455 754 457 757ZM388 753Q404 753 404 736Q404 725 388 725Q368 725 368 736Q368 743 374.0 748.0Q380 753 388 753ZM413 802Q446 802 466.0 787.0Q486 772 486.0 757.0Q486 742 467 729Q466 728 464 726L461 725Q464 659 464 632Q486 632 514.0 633.5Q542 635 554 635Q552 645 551.0 667.0Q550 689 547.0 711.5Q544 734 536 757Q526 785 496 805Q473 821 450 821Q422 821 395 800Q407 802 413 802ZM508 381 392 392 387 263 513 260Z" fill="currentColor"/>
  </g>
</svg>