<svg xmlns="http://www.w3.org/2000/svg" viewBox="0 0 757 1000">
  <g transform="scale(1,-1) translate(0,-1000)">
    <path d="M347 972V863H664V972ZM639 263Q639 246 645.0 229.5Q651 213 656.5 204.0Q662 195 663 195Q664 196 666.0 198.5Q668 201 673 209Q688 233 688 261Q688 286 674 295Q674 269 652 262H648Q642 262 639 263ZM457 757Q445 775 413 775Q399 775 362 767Q350 750 350 731Q350 714 359.0 701.0Q368 688 378.5 681.5Q389 675 398.0 665.5Q407 656 407 646Q407 639 395.5 624.5Q384 610 373 599L362 588Q396 531 400 503Q400 498 399.0 465.0Q398 432 397 422L499 411Q499 421 501.0 440.5Q503 460 503 468Q503 504 505.0 527.5Q507 551 512.5 563.0Q518 575 521.0 579.5Q524 584 532.5 588.0Q541 592 544 594Q552 602 552 604Q552 605 549 608Q507 606 495 606H450Q436 606 436 619Q436 620 435.0 644.5Q434 669 433.0 695.0Q432 721 432 726Q432 733 436.5 739.0Q441 745 448.0 749.5Q455 754 457 757ZM388 753Q404 753 404 736Q404 725 388 725Q368 725 368 736Q368 743 374.0 748.0Q380 753 388 753ZM413 802Q446 802 466.0 787.0Q486 772 486.0 757.0Q486 742 467 729Q466 728 464 726L461 725Q464 659 464 632Q486 632 514.0 633.5Q542 635 554 635Q552 645 551.0 667.0Q550 689 547.0 711.5Q544 734 536 757Q526 785 496 805Q473 821 450 821Q422 821 395 800Q407 802 413 802ZM508 381 392 392 387 263 513 260ZM615 294Q615 305 618.0 318.5Q621 332 621.0 339.0Q621 346 618.5 356.5Q616 367 616 369L595 436Q589 464 589 464L550 544Q544 502 544 468Q544 461 543.0 450.5Q542 440 542 431Q542 419 540 393L550 262V251Q557 183 557 151V142L556 71Q554 53 554 41V33Q554 11 548.0 5.5Q542 0 528 0H440Q430 0 423.5 4.5Q417 9 416.0 12.0Q415 15 415 17Q415 36 502 56V232H391Q386 151 360 71V67Q360 62 359.0 53.5Q358 45 358 42V34Q358 12 351.0 6.0Q344 0 319 0H247Q219 0 219 18Q219 35 307 57Q310 95 321.5 134.5Q333 174 337 212Q337 213 342.0 266.0Q347 319 353.0 387.0Q359 455 361 486Q360 503 359.5 506.0Q359 509 350 528Q308 451 271 417Q268 416 242.0 408.5Q216 401 185.5 396.5Q155 392 109 390Q104 390 80 386V111L112 38Q113 36 113 32Q113 26 108.5 21.5Q104 17 98 17Q88 17 84 26L65 70L46 26Q42 17 32 17Q26 17 21.5 21.5Q17 26 17 32Q17 35 50 111V384Q28 385 28.0 407.0Q28 429 50 434V779Q38 769 34 761Q29 751 25.0 741.0Q21 731 17.0 717.0Q13 703 11 696Q10 706 5.0 728.0Q0 750 0 762Q0 776 5.0 786.0Q10 796 18.0 806.0Q26 816 30 824Q47 863 50.5 875.0Q54 887 58 919Q61 913 68.5 904.5Q76 896 80.0 888.5Q84 881 84 872V866Q84 838 69 805Q80 801 80 791V437Q105 437 115 427L233 453L308 574Q316 586 332.0 602.0Q348 618 358.5 629.0Q369 640 369.0 646.0Q369 652 354 663Q345 651 339.5 645.0Q334 639 323.5 631.5Q313 624 298 618Q263 605 241 605Q227 605 227 618Q227 624 233.5 627.0Q240 630 286 644Q292 646 297.0 648.5Q302 651 306.0 653.5Q310 656 314.5 659.5Q319 663 321.5 665.5Q324 668 328.5 673.0Q333 678 335 680Q322 696 322 731Q322 735 324.0 745.0Q326 755 333.5 772.5Q341 790 353 799Q378 824 401 835H164Q151 835 151.0 847.0Q151 859 164 859H319V882H193Q179 882 179.0 894.0Q179 906 193 906H319V930H221Q207 930 207 941Q207 953 221 953H319V976H266Q251 976 251 987Q251 1000 266 1000H678Q692 1000 692 986V849Q692 835 678 835H499Q541 812 557.5 778.5Q574 745 579 673Q580 650 583 627Q593 621 597 609L640 493L651 382Q671 322 671 322Q709 307 709 272Q709 249 700.5 225.5Q692 202 685.5 192.0Q679 182 676 179L750 180Q757 180 757 170Q757 164 754.0 157.5Q751 151 749 151H680L683 49Q677 28 666 28Q660 28 654.0 35.5Q648 43 647 55L648 152L581 150Q574 150 574 169Q574 180 582 180L650 178Q617 225 617 266V278Q615 284 615 294Z" fill="currentColor"/>
  </g>
</svg>