<svg xmlns="http://www.w3.org/2000/svg" viewBox="0 0 462 1000">
  <g transform="scale(1,-1) translate(0,-1000)">
    <path d="M255 586Q255 581 198.0 514.5Q141 448 141 432Q141 417 165 396Q180 417 186 428Q174 444 174 456Q174 476 202.0 504.5Q230 533 258.0 560.0Q286 587 286 604Q286 609 284 629Q261 638 231 638H221Q228 633 228.0 626.0Q228 619 220.5 614.5Q213 610 205.0 610.0Q197 610 190.0 614.5Q183 619 183 626Q183 632 187 636Q138 633 102 606Q101 605 101 604Q101 602 102 599Q135 602 145 602Q151 602 154.0 601.5Q157 601 158 600H159Q164 600 174.5 594.0Q185 588 191 588Q203 588 220.0 594.0Q237 600 241 600Q255 600 255 586ZM267 488Q292 488 310.0 477.0Q328 466 338.5 445.0Q349 424 353.5 409.5Q358 395 362 374Q364 374 372.0 373.5Q380 373 386 373Q387 387 390.5 416.0Q394 445 394 460Q394 466 393.5 474.5Q393 483 387.5 504.5Q382 526 373.0 545.0Q364 564 344.5 586.0Q325 608 299 622Q300 616 300 604V603Q300 579 267 546Q259 538 242.5 524.0Q226 510 219 503Q188 472 188 455Q188 448 193 441Q222 488 267 488ZM385 1000Q390 1000 399.5 998.0Q409 996 419.5 988.5Q430 981 430 970Q422 928 422 928Q419 919 411.5 911.5Q404 904 403 900Q403 900 402.5 899.0Q402 898 402 897Q420 908 431 908Q443 908 452.5 896.5Q462 885 462 869Q462 858 459.0 852.5Q456 847 436 824Q435 816 435 804Q435 802 435.5 798.0Q436 794 436 792V783Q436 774 433.0 754.0Q430 734 411.5 690.0Q393 646 361 614Q361 612 360 612Q390 582 405.5 537.5Q421 493 421 460Q421 443 417.0 410.0Q413 377 413 359Q413 345 399 345L368 346Q374 307 374 286Q374 264 370 204Q368 167 344.5 128.0Q321 89 321 57V56Q321 48 347.0 36.5Q373 25 373 14Q373 0 359 0H14Q0 0 0 14Q0 24 24.0 39.5Q48 55 48 66V68Q48 102 25.0 145.5Q2 189 2 227Q2 245 14.0 256.0Q26 267 34.5 268.5Q43 270 50 270H51Q94 269 160 188Q162 186 164.5 182.5Q167 179 169.5 176.0Q172 173 175 170Q173 208 173 214Q173 227 173.0 231.0Q173 235 174.0 242.0Q175 249 176.5 252.5Q178 256 182.5 270.5Q187 285 191 301Q188 303 182 306Q148 324 148 354Q148 363 151 372Q113 404 113 432Q113 450 132.5 477.5Q152 505 201 561Q197 560 191 560Q183 560 176.0 562.5Q169 565 163.5 568.5Q158 572 157 572Q151 574 128 574H99Q95 574 89.5 571.5Q84 569 80 566L76 564Q76 567 75.0 584.0Q74 601 74 606Q74 620 84 628Q125 661 192 665Q189 674 189 675V682V696Q189 733 204.0 781.0Q219 829 247 860Q259 872 267 884Q267 885 266.5 890.5Q266 896 266 899Q266 922 277.0 935.0Q288 948 295.5 949.5Q303 951 308 951Q331 951 340 918Q343 924 343 929Q343 930 342.5 934.5Q342 939 342 941Q342 953 353.5 973.5Q365 994 371.0 997.0Q377 1000 385 1000ZM49 242Q30 242 30 227Q30 195 53.0 151.0Q76 107 76 68Q76 43 57 28H306Q293 41 293 57Q293 95 316.5 134.5Q340 174 342 205Q346 267 346 288Q346 349 318 423Q304 460 267 460Q252 460 240.5 452.5Q229 445 224.5 438.5Q220 432 210 415Q200 397 191.5 384.0Q183 371 180.5 368.0Q178 365 177.0 362.0Q176 359 176 354Q176 340 198.5 328.0Q221 316 221 306Q221 304 211.0 279.0Q201 254 201 214Q201 202 203.0 172.5Q205 143 205 133Q205 119 191 119Q182 119 165.0 140.0Q148 161 119.5 191.5Q91 222 62 239Q56 242 49 242ZM321 890Q321 891 318.5 900.5Q316 910 313.0 917.0Q310 924 306 924Q298 924 293 917V916Q291 910 291 902Q291 899 291.5 893.0Q292 887 292.0 883.0Q292 879 291 877Q291 870 264 841Q240 814 226.5 772.0Q213 730 213 699Q213 687 214 680Q216 679 221.5 678.5Q227 678 230 678Q232 688 234 704Q242 760 259.0 794.0Q276 828 321 890ZM252 665Q284 662 308 649Q309 651 326.0 678.5Q343 706 350 725Q367 773 370.5 833.5Q374 894 380 908Q383 918 390.5 926.0Q398 934 399 937Q400 939 400.5 944.0Q401 949 404 958Q406 962 406 963Q397 972 381 972Q368 948 368 948Q367 946 367 942Q367 941 367.5 937.0Q368 933 368 931Q368 914 353.5 891.5Q339 869 320.5 848.0Q302 827 283.0 787.5Q264 748 258 702Q258 701 257.0 694.5Q256 688 254.5 678.5Q253 669 252 665ZM413 834Q415 838 425.0 848.5Q435 859 437 864V865Q437 878 431 880H430Q425 880 419.0 877.0Q413 874 407.0 869.0Q401 864 398 863Q397 859 396.5 851.0Q396 843 396 839Q389 733 345 663Q340 656 332 641Q334 640 336.5 638.0Q339 636 341.0 634.5Q343 633 345 633Q371 659 387.5 696.0Q404 733 407.5 752.0Q411 771 411 778V802Q413 834 413 834Z" fill="currentColor"/>
  </g>
</svg>