<svg xmlns="http://www.w3.org/2000/svg" viewBox="0 0 691 1000">
  <g transform="scale(1,-1) translate(0,-1000)">
    <path d="M489 625Q489 586 442 533Q443 528 453 502Q484 524 498 529L500 659Q500 663 512.0 685.5Q524 708 524 723Q524 724 519.5 725.5Q515 727 503.0 729.0Q491 731 477 731Q472 731 465.5 731.0Q459 731 453.5 730.5Q448 730 443.5 729.5Q439 729 436 729H433H430H429Q423 714 423 702Q423 688 433.5 680.5Q444 673 456.0 670.5Q468 668 478.5 656.5Q489 645 489 625ZM24 40V24H667V40ZM454 455Q454 445 456.5 421.5Q459 398 459 393Q459 387 456.0 384.5Q453 382 442 378Q397 362 329.5 361.5Q262 361 227 354Q210 351 205 336Q194 305 183.5 232.5Q173 160 152 119Q141 99 109.0 87.0Q77 75 73 72H162Q208 216 242 290Q260 329 288 329Q288 329 322.5 329.5Q357 330 396.0 330.5Q435 331 446 331Q479 331 497.0 337.0Q515 343 518.5 348.0Q522 353 525 363Q526 364 529.0 385.5Q532 407 535.5 438.5Q539 470 539 492Q539 503 537 515H521Q521 514 521.5 512.0Q522 510 522 509Q522 501 518 500Q465 462 454 455ZM270 285Q263 275 188 64H267ZM590 392Q597 392 609 374Q611 384 611 388Q611 411 603.0 434.0Q595 457 589 457Q589 457 585.0 456.0Q581 455 576.0 454.0Q571 453 568 453H566L565 441Q557 314 510 305Q481 301 402 301H292Q293 299 293 294V71H417V225Q417 238 429 238H578L577 379Q577 392 590 392ZM579 213H443V71H580ZM459.0 697.0Q442 697 442.0 709.0Q442 721 459.0 721.0Q476 721 476.0 709.0Q476 697 459.0 697.0ZM569 608V634L546 611Q543 608 539 608Q534 608 531 613L523 624L522 539L571 537Q569 587 569 608ZM443 786Q424 786 424 790V792Q425 793 424 793L423 792V800Q423 814 424.5 820.0Q426 826 435.0 834.0Q444 842 463 849Q393 859 382 891Q380 897 380 899Q380 914 399.5 925.0Q419 936 439 936Q456 936 460 927Q471 911 471 910V907Q471 898 461.5 891.0Q452 884 442 884Q431 884 431 894Q431 900 449 907Q446 910 444 914Q443 914 441.0 914.5Q439 915 437 915Q426 915 413.5 909.5Q401 904 401 899V898L402 897Q406 891 411.5 886.5Q417 882 421.0 879.5Q425 877 432.5 875.0Q440 873 444.0 872.5Q448 872 458.0 870.5Q468 869 472 868Q483 922 488.5 933.0Q494 944 519 953Q538 962 542.0 971.0Q546 980 554 983Q566 987 570 987Q582 987 582 976Q582 972 579 964Q598 999 612 999Q620 999 628.5 994.5Q637 990 637 984V983L603 775Q601 759 593 759Q592 759 590.0 759.5Q588 760 585.0 761.0Q582 762 579 763Q583 743 583 743Q622 747 639 761L642 673Q618 684 598 684H591Q593 665 593 625V608Q593 583 593.5 563.5Q594 544 595 534L596 525Q596 515 585 513Q584 513 582.5 513.5Q581 514 577.0 514.0Q573 514 568 514V479Q570 479 577.0 481.5Q584 484 590 484Q615 484 626.0 450.0Q637 416 637 387Q637 343 612 343Q607 343 604 345L606 64H679Q684 64 687.5 60.0Q691 56 691 52V12Q691 8 687.5 4.0Q684 0 679 0H12Q8 0 4.0 4.0Q0 8 0 12V52Q0 56 4.0 60.0Q8 64 12 64H41Q46 93 84.5 106.0Q123 119 129 131Q147 166 155.5 222.0Q164 278 172.5 319.0Q181 360 203 373L193 401L126 374H122Q109 374 109.0 382.0Q109 390 121 396L187 419L171 458Q171 460 176.5 463.5Q182 467 185.0 467.0Q188 467 189 464L202 424Q216 444 223.0 449.0Q230 454 253 464H261Q280 464 287 454Q296 457 302 457Q309 457 310 453Q327 453 356.0 458.5Q385 464 406 470L427 475L412 531H409Q386 531 339.5 522.0Q293 513 284 513Q279 513 198.0 517.5Q117 522 113 523Q108 523 100 521V161Q100 155 95.5 150.0Q91 145 85.0 145.0Q79 145 74.5 150.0Q70 155 70 161V531Q66 536 66 545Q66 552 70 556V629Q62 635 60.0 662.5Q58 690 43 694Q19 704 19 724Q19 740 32.0 748.0Q45 756 86.0 756.0Q127 756 139.5 748.0Q152 740 152 724Q152 707 135.5 697.5Q119 688 117 686Q115 683 111.5 661.0Q108 639 100 631V560Q116 553 116 553H118Q164 553 208.5 549.0Q253 545 268 545H275Q293 546 356.5 557.5Q420 569 443 571Q465 611 465.0 625.0Q465 639 458.0 643.5Q451 648 438.0 651.5Q425 655 416 664Q399 681 399 703Q399 720 407 738Q405 737 405 737Q403 737 399.5 736.5Q396 736 394 736Q383 736 383 746Q363 776 353 776H350Q343 776 335.0 777.5Q327 779 322.5 781.0Q318 783 318 784Q319 789 331.0 796.5Q343 804 348 804H350Q352 805 353 805Q374 805 388 795Q389 794 391.0 786.0Q393 778 397.5 771.5Q402 765 409 765Q410 765 410.0 764.5Q410 764 411 764H412Q419 764 425 763Q438 778 457 787ZM562 931Q562 935 560.0 942.0Q558 949 558 954Q558 955 558.5 957.5Q559 960 559 961Q549 944 537 939Q534 938 527.0 936.5Q520 935 517 934Q504 930 491 864Q492 864 495.5 862.0Q499 860 501 860Q507 862 521.0 865.0Q535 868 541 870Q560 921 562 927ZM452 806Q472 811 495 811Q552 811 583 785L611 970Q593 943 581.5 912.5Q570 882 564.5 866.5Q559 851 550 848Q550 848 514.0 839.5Q478 831 452 818V816Q452 815 451.5 812.0Q451 809 451 807Q452 807 452 806ZM271 426Q262 432 262 437Q262 443 273 447Q270 451 263 451Q253 451 241.0 443.5Q229 436 222.0 428.5Q215 421 215 420Q239 417 242 417Q262 417 271 426ZM35 723Q39 719 48.0 716.0Q57 713 65 702Q69 696 72.5 682.5Q76 669 77.5 659.5Q79 650 79 648H85Q95 651 96.0 671.0Q97 691 105 702Q113 712 121.5 715.0Q130 718 135 723Q135 727 116.5 731.0Q98 735 86 735Q76 735 63.5 732.5Q51 730 43.0 727.5Q35 725 35 723ZM431 443Q394 426 307 426Q303 418 296 418Q293 418 285 420Q269 404 241 404Q208 409 208 409L220 379Q251 386 321.0 387.0Q391 388 433 403Q433 403 432.0 422.5Q431 442 431 443ZM569 662Q567 699 556 756Q552 776 509 776Q483 776 451 754Q471 756 477 756Q511 756 536 745Q548 740 548 724Q548 699 532 672Q526 664 524 659L541 634Z" fill="currentColor"/>
  </g>
</svg>