<svg xmlns="http://www.w3.org/2000/svg" viewBox="0 0 986 1000">
  <g transform="scale(1,-1) translate(0,-1000)">
    <path d="M12 649Q18 649 20.5 643.0Q23 637 29 634L4 786V787Q4 792 10.5 795.5Q17 799 24 799Q36 799 51 771Q48 777 48 781Q48 789 58 789Q65 789 71 786Q77 784 80.0 776.0Q83 768 99 762Q118 755 127.0 739.0Q136 723 144 679Q148 678 152.0 676.5Q156 675 158.0 674.0Q160 673 162.5 672.0Q165 671 166.5 670.5Q168 670 169.5 669.0Q171 668 171.5 667.0Q172 666 172.5 665.5Q173 665 173.5 663.5Q174 662 174.0 660.5Q174 659 174 657V651V647Q176 649 176 651Q178 659 186 659Q196 659 196 649Q196 646 194.5 642.0Q193 638 184.5 631.0Q176 624 163 620Q171 614 174 611Q184 611 184 611H185Q186 611 186.0 611.5Q186 612 187 612Q193 612 196.5 617.5Q200 623 201.5 629.0Q203 635 204 636Q217 644 232 644Q234 643 234 643H236Q240 643 249.0 637.0Q258 631 259 627Q259 621 234 621H232Q228 621 222.0 615.0Q216 609 212 603L208 597Q208 589 199 589Q198 589 195.0 589.5Q192 590 190 590H188Q195 574 195 562Q195 545 181 531Q175 525 167.5 522.0Q160 519 154.5 518.0Q149 517 145.5 513.0Q142 509 142 500Q142 489 160 457Q178 455 228.5 446.0Q279 437 294 436H299Q312 436 348.0 439.0Q384 442 420 442H421Q427 446 434 448V505Q428 511 425.0 529.0Q422 547 420 549Q419 550 406.0 557.5Q393 565 393 579Q393 591 403.0 597.5Q413 604 446.0 604.0Q479 604 488.5 598.0Q498 592 498 579Q498 560 480 555Q469 552 467.0 530.0Q465 508 458 503V445Q466 437 458 425V128Q458 116 446.0 116.0Q434 116 434 128V416Q428 418 424 418Q421 417 356.0 413.5Q291 410 287 410Q280 410 243.0 417.5Q206 425 187 425H184L172 380Q236 362 266 362Q267 369 285 363Q292 372 305 372Q328 372 352 339L363 371Q364 374 367.5 373.0Q371 372 374.5 369.5Q378 367 377 366L365 335L417 317Q427 311 426 305Q424 299 413 299L360 320L352 298Q370 288 376.5 255.5Q383 223 389.5 178.0Q396 133 411 105Q416 96 446.5 85.0Q477 74 481 51H528Q515 57 515 72Q515 85 532.0 96.0Q549 107 575.0 116.0Q601 125 608 130Q615 140 631.5 237.0Q648 334 653 340L663 353Q671 361 703.0 367.0Q735 373 757.0 375.0Q779 377 785 377Q787 378 790.0 379.5Q793 381 795.5 382.0Q798 383 798 384Q800 388 805 409H801L746 396Q712 390 701 390Q690 380 670 380Q660 380 648 384L660 353Q661 350 658.0 349.0Q655 348 651.5 348.0Q648 348 647 349L637 378L588 359Q581 359 578.0 361.5Q575 364 577.0 368.0Q579 372 585 375L632 392L621 419Q620 420 623.0 422.5Q626 425 629.5 426.0Q633 427 634 424L644 395Q665 424 686 424Q701 420 701 420Q716 423 721 425Q737 423 749 414Q761 418 767.5 421.0Q774 424 782.0 427.0Q790 430 812 436Q818 468 820 474L727 449Q722 449 693.5 452.0Q665 455 638 458L612 461Q606 461 598 457L590 453H573V211L593 163Q594 162 594 160Q594 150 585 150Q577 150 575 156L563 184L551 156Q549 150 541 150Q532 150 532 160Q532 162 554 211V458Q539 466 539 476Q545 491 554 493V579Q545 572 541.5 565.5Q538 559 528 525Q528 532 524.5 546.5Q521 561 521 568Q521 579 525.5 586.5Q530 594 535.5 599.5Q541 605 548.0 623.0Q555 641 559 670Q560 668 567.5 657.5Q575 647 575 639V636Q575 616 566 596Q573 594 573 587V492Q612 490 617 483Q618 481 618 479L692 473L723 471L817 500Q817 500 816 501V502V504Q817 511 817.5 516.5Q818 522 818.0 523.0Q818 524 819.0 528.0Q820 532 821.5 535.0Q823 538 828 547Q804 559 799 564Q796 567 789.0 576.5Q782 586 778 590Q773 595 768.0 598.0Q763 601 760.0 602.0Q757 603 755.0 605.0Q753 607 753 610Q753 616 757 617Q770 623 789 636L808 648Q801 649 801 659Q801 670 802.0 675.0Q803 680 810.0 686.0Q817 692 833 698Q767 708 767 738Q767 751 782.5 759.0Q798 767 814 767Q822 767 828.5 762.0Q835 757 837.5 752.5Q840 748 840 747V744Q840 737 832.5 731.5Q825 726 817 726Q808 726 808 734Q808 737 822 744Q821 745 820.0 747.0Q819 749 818 750Q817 750 815.5 750.5Q814 751 813 751Q804 751 794.0 746.5Q784 742 784 738V737L785 736Q789 731 793.5 727.0Q798 723 805.0 720.5Q812 718 815.0 717.5Q818 717 828.5 715.0Q839 713 841 713Q849 757 853.5 765.5Q858 774 878 781Q893 788 896.0 795.5Q899 803 906 805Q912 808 919 808Q929 808 929 799Q929 796 926 790Q941 818 953 818Q960 818 966.5 814.5Q973 811 973 806V805L945 639Q944 633 943.5 630.5Q943 628 939.5 626.0Q936 624 930 627Q936 613 946.0 566.0Q956 519 957 502Q957 494 949 494H923Q926 472 926 440V422H928Q929 422 932.0 423.5Q935 425 938.5 426.0Q942 427 946 427Q967 427 976.5 398.0Q986 369 986 343Q986 305 965 305Q963 305 957 307L960 59Q960 55 956 51H965Q975 51 975 41V9Q975 0 965 0H16Q7 0 7 9V41Q7 51 16 51H29L31 276Q25 274 25 274Q5 274 5 309Q5 333 13.5 360.0Q22 387 42 387Q47 387 52.5 385.0Q58 383 60 383V411H46Q37 413 37 420Q37 420 37.5 427.5Q38 435 38.5 450.5Q39 466 39 486V500Q39 517 41 547H35Q18 547 0 538L3 609Q20 596 48 594Q51 609 51 610Q46 608 45 608Q29 608 15.5 618.5Q2 629 2.0 639.0Q2 649 12 649ZM689 394Q688 395 686.0 397.0Q684 399 682.0 403.0Q680 407 681 410Q681 410 682 411V412Q682 412 684 414Q675 412 667.5 407.0Q660 402 656 398L653 393Q653 389 668 389Q677 389 689 394ZM936 193H818V70H936ZM935 215V336Q935 347 946 347Q952 347 955 342Q958 338 962 332Q963 336 963 344Q963 363 956.5 383.5Q950 404 945 404Q944 404 938.0 402.0Q932 400 928 400Q925 400 925 400L924 390Q921 334 911.5 309.5Q902 285 876 279Q841 274 822 274Q812 274 792.5 275.0Q773 276 762 276Q745 276 736 275H724Q725 274 725 270V70H796V204Q796 215 806 215ZM892 627Q892 605 884.5 591.0Q877 577 867.0 571.0Q857 565 847.0 549.5Q837 534 833 510H888H940Q940 528 928.0 576.0Q916 624 908.0 632.0Q900 640 888 643Q888 641 890.0 635.0Q892 629 892 627ZM800 616Q806 616 806.0 610.0Q806 604 800 604H788Q792 601 801.5 586.5Q811 572 829 564Q830 562 835 561Q839 568 853.5 579.5Q868 591 870 599Q875 614 875 627Q875 630 873.0 637.0Q871 644 871 645H863Q835 645 799 622Q797 621 793.5 619.0Q790 617 788 616Q800 616 800 616ZM824 624Q824 631 835.0 631.0Q846 631 846 624Q846 616 835.0 616.0Q824 616 824 624ZM852 495Q851 477 845 453Q856 463 869.0 476.0Q882 489 885 489Q893 489 893 473Q893 466 884 457Q878 451 874.0 447.0Q870 443 865.5 439.5Q861 436 858.0 434.5Q855 433 847.5 429.0Q840 425 835 422Q825 369 806 359Q794 351 790 351Q715 346 682 334L675 326Q665 297 653.5 211.0Q642 125 625 110Q611 97 582.0 89.0Q553 81 543 72Q544 72 544 72Q546 72 546 71Q564 72 596 72Q632 72 651 71Q654 72 657.0 72.0Q660 72 661 72Q661 72 671.5 155.0Q682 238 702 288Q708 301 727 301H734Q744 302 762 302Q773 302 793.0 301.0Q813 300 822 300Q851 300 866.0 303.5Q881 307 884.0 310.5Q887 314 889 322Q893 338 896.0 367.5Q899 397 900 418V440Q900 460 898 494Q890 494 874.5 494.5Q859 495 852 495ZM486 578Q486 579 479.5 581.5Q473 584 463.5 586.0Q454 588 446 588Q436 588 421.0 584.5Q406 581 406 578Q410 574 417.0 572.0Q424 570 430 562Q435 554 437.5 538.0Q440 522 443 519H450Q452 522 455.5 540.0Q459 558 462 562Q468 570 475.0 572.0Q482 574 486 578ZM347 327Q338 323 323 323Q298 323 286 336Q280 334 277.0 334.0Q274 334 269 341H261Q197 341 169 354Q169 354 168 338V322Q202 310 262.0 309.0Q322 308 338 303ZM296 358Q309 350 297 341Q307 333 325 333Q341 336 341 336Q341 337 338.5 340.5Q336 344 329.5 349.5Q323 355 314 358Q299 362 296 358ZM68 763Q68 759 66.0 753.5Q64 748 64 745V741Q73 720 81 696Q86 695 97.0 692.0Q108 689 113 688Q114 688 117.0 689.0Q120 690 121 691Q111 743 100 747Q98 748 92.5 749.0Q87 750 84 751Q76 754 67 769Q67 768 67.5 766.0Q68 764 68 763ZM58 486Q58 450 57 430L96 431L95 499L89 490Q87 486 82 486Q80 486 77 489L58 507V500ZM160 567Q160 558 147 558Q133 558 133 567Q133 577 147 577Q160 577 160 567ZM51 170 50 57H160V170ZM51 190H170Q181 190 181 180V57H280V235Q280 239 281 240H192Q129 240 106 244Q69 251 61 363Q60 363 55.5 363.5Q51 364 46 365L42 366Q37 366 31.0 347.5Q25 329 25 310Q25 303 26 299Q30 305 33 309Q35 313 42 313Q52 313 52 303ZM298 228 300 51H364Q303 219 298 228ZM147 314Q147 318 149.0 337.0Q151 356 151 364Q139 371 99 400Q95 403 97 412H84Q83 407 83 393Q83 376 85.5 350.5Q88 325 90.5 308.0Q93 291 94 290Q96 282 99.0 278.0Q102 274 116.5 269.5Q131 265 157 265Q163 265 178.0 265.0Q193 265 210.5 264.5Q228 264 244.5 263.5Q261 263 272 263H284Q306 263 320 232Q332 205 348.0 161.5Q364 118 374 88L384 57H455Q452 60 427.0 69.5Q402 79 393 95Q377 126 369.5 174.0Q362 222 355.5 251.0Q349 280 332 283Q304 288 250.0 288.5Q196 289 160 302Q151 305 149.0 307.0Q147 309 147 314ZM956 32H26V19H956ZM123 500Q123 516 131.5 525.0Q140 534 149.5 536.5Q159 539 167.5 545.0Q176 551 176 562Q170 583 170.0 583.0Q170 583 167 583Q167 583 161.5 583.5Q156 584 147.5 584.5Q139 585 132 585Q120 585 111.0 583.5Q102 582 98.5 580.5Q95 579 95 578Q95 567 104.5 548.5Q114 530 114 527L115 423Q128 418 152 402Q152 402 160 426Q123 467 123 500ZM828 663Q848 667 859 667Q905 667 929 647L952 795Q937 773 928.5 748.5Q920 724 915.5 712.0Q911 700 903 697Q896 694 863.5 685.0Q831 676 825 673Q819 667 819 665Q828 663 828 663ZM909 782Q909 783 909.5 784.5Q910 786 910 787Q901 773 893 770Q891 769 885.5 768.0Q880 767 877 766Q866 762 856 710Q857 710 860.0 709.0Q863 708 864 707Q869 708 880.0 711.0Q891 714 896 715Q904 739 913 760V763Q913 766 911.0 772.0Q909 778 909 782ZM706 51Q702 55 702 59V228Q696 190 692.0 133.5Q688 77 687 74V70Q683 55 678 51ZM76 579Q76 605 132 605Q137 605 153 603Q129 621 106 621Q73 621 69 605Q60 552 59 529L81 507L94 527Q76 558 76 579ZM152 638Q152 638 154.0 638.5Q156 639 157 639Q157 642 154.5 646.5Q152 651 152 654Q131 664 103.5 670.5Q76 677 74 678Q66 681 61.5 693.0Q57 705 48.5 729.5Q40 754 25 776L48 628Q73 649 118 649Q129 649 149 645Q150 641 152 638Z" fill="currentColor"/>
  </g>
</svg>