<svg xmlns="http://www.w3.org/2000/svg" viewBox="25.6 -1578.4 1488.9 2009.9">
	<path fill="currentColor" d="M1440 -1480Q1440 -1452 1406 -1429Q1376 -1409 1352 -1409Q1345 -1409 1305.5 -1417Q1266 -1425 1259 -1425Q1247 -1425 1191 -1414Q1135 -1403 1129 -1403Q1123 -1403 1093.5 -1411.5Q1064 -1420 1059 -1420H1024Q1024 -1422 1014 -1412Q1029 -1404 1055 -1399Q1129 -1383 1166 -1339Q1194 -1305 1204 -1258Q1228 -1142 1227 -1109V-1048Q1190 -1050 1190 -1042Q1190 -1036 1196.5 -1021Q1203 -1006 1204 -1002Q1206 -993 1200.5 -971Q1195 -949 1195 -944V-602Q1195 -595 1211 -514.5Q1227 -434 1227 -427Q1227 -342 1087 -306Q1050 -294 975 -277Q818 -253 818 -209Q818 -202 831 -105.5Q844 -9 844 -2Q844 3 833.5 94Q823 185 823 192Q823 198 833.5 249Q844 300 844 306Q844 315 833 351Q822 353 797 347Q769 341 767 341Q760 341 699 349Q638 357 631 357Q574 357 560 341Q545 357 528 357Q521 357 505.5 349Q490 341 483 341Q476 341 470.5 349Q465 357 458 357H271Q271 331 273.5 311.5Q276 292 276 294Q338 290 370 281Q429 263 454 220Q468 195 475 145Q480 109 484 72Q500 -59 537 -316Q543 -351 601 -380Q628 -394 757 -447Q852 -486 913 -529Q905 -563 896.5 -598.5Q888 -634 872 -652Q833 -653 752 -659Q744 -637 721 -606Q503 -465 284 -363Q234 -340 163 -340Q148 -340 100 -352Q111 -370 111 -392Q146 -394 181 -396Q224 -402 254 -428Q249 -438 236 -438Q228 -438 212.5 -433.5Q197 -429 192 -429Q187 -430 185 -431V-472Q271 -489 264 -489Q270 -489 278.5 -486Q287 -483 294 -483Q308 -483 416 -557Q529 -634 573 -678Q574 -681 569 -684Q545 -696 517 -696Q510 -696 490.5 -690.5Q471 -685 464 -685Q445 -685 375 -708Q312 -729 302 -735Q306 -748 314 -770Q334 -768 376 -760Q412 -753 430 -753Q448 -753 461 -758Q458 -763 436 -782Q419 -797 419 -813Q419 -821 422 -826.5Q425 -832 425 -834Q451 -830 502 -816Q514 -802 539 -782Q553 -776 617 -776Q673 -872 728 -969Q810 -1089 909 -1089Q913 -1096 917 -1142Q921 -1179 945 -1193Q800 -1193 710 -1181Q709 -1180 699 -1149H653Q653 -1172 658 -1197Q605 -1210 605 -1249Q605 -1280 892 -1417Q873 -1425 849 -1425Q842 -1425 816 -1419.5Q790 -1414 783 -1414Q776 -1414 731 -1430Q686 -1446 679 -1446Q672 -1446 615.5 -1430Q559 -1414 552 -1414Q536 -1414 502 -1435Q464 -1457 462 -1475V-1498Q464 -1498 469.5 -1501Q475 -1504 483 -1504Q492 -1504 519 -1485.5Q546 -1467 565 -1467Q579 -1467 611 -1480.5Q643 -1494 671 -1494Q702 -1494 727 -1480.5Q752 -1467 780 -1467Q786 -1467 822.5 -1472.5Q859 -1478 865 -1478Q890 -1478 920 -1466Q954 -1453 959 -1435Q962 -1446 986.5 -1462Q1011 -1478 1022 -1478Q1029 -1478 1079.5 -1470Q1130 -1462 1137 -1462Q1165 -1462 1201 -1478Q1237 -1494 1248 -1494Q1253 -1494 1295 -1478Q1337 -1462 1344 -1462Q1367 -1462 1416 -1504Q1440 -1480 1440 -1480ZM1392 -1446L1389 -1453L1377 -1447V-1439ZM1327 -1433V-1442H1313V-1433ZM1312 -1442Q1307 -1444 1282 -1456Q1262 -1467 1254 -1467Q1252 -1467 1195 -1448Q1203 -1448 1222 -1449.5Q1241 -1451 1246 -1451Q1276 -1451 1312 -1442ZM1178 -1433V-1442H1164V-1433ZM1157 -1428V-1437L1079 -1443V-1433ZM1072 -1439V-1448H1047V-1439ZM933 -1417Q917 -1451 905 -1450H871Q890 -1456 933 -1417ZM1200 -1074V-1141Q1200 -1149 1193.5 -1178Q1187 -1207 1186 -1215Q1167 -1393 935 -1393Q899 -1393 873 -1385Q825 -1370 728 -1314.5Q631 -1259 631 -1246Q631 -1241 644 -1228Q728 -1234 738 -1229Q738 -1219 733 -1207Q737 -1208 799 -1213Q786 -1212 887 -1212Q894 -1212 926.5 -1220Q959 -1228 966 -1228Q974 -1228 982 -1215Q935 -1141 935 -1065V-1048H960Q960 -1164 993 -1164Q996 -1164 1030 -1157Q1054 -1151 1082 -1159Q1094 -1103 1081 -1043H1105V-1154H1132V-1074ZM657 -1460V-1469H643V-1460ZM860 -761Q851 -779 836 -824Q824 -800 807 -761ZM1206 -422Q1206 -427 1188.5 -507.5Q1171 -588 1170 -608Q1164 -695 1175 -927Q1179 -1014 1180 -995Q1178 -1035 1151 -1052H1132Q1134 -1026 1127 -1015H1092Q1080 -1015 1062 -1024V-1126Q1018 -1126 1000 -1132Q987 -1085 978 -1025H907Q907 -1041 910 -1052Q913 -1063 913 -1063H879Q817 -1063 744 -945Q696 -858 648 -772Q720 -760 754 -760Q775 -760 778 -767Q795 -804 827 -872H845Q866 -822 884 -765Q954 -856 1028 -967Q1031 -964 1037 -960.5Q1043 -957 1046 -954Q1009 -896 971 -838Q921 -761 877 -734Q875 -733 823 -733Q644 -733 539 -756Q522 -760 496 -779.5Q470 -799 462 -801Q473 -792 488 -778V-747Q458 -728 435 -728Q395 -728 360 -735Q375 -732 417 -722Q454 -712 461 -712Q467 -712 491.5 -717.5Q516 -723 522 -723Q530 -723 560.5 -713.5Q591 -704 602 -703Q817 -675 889 -675Q958 -675 1042 -799Q1087 -873 1132 -947Q1136 -952 1143 -952L1153 -943Q1049 -716 908 -647Q940 -535 940 -531Q940 -488 674 -385Q749 -371 780 -355Q837 -326 840 -266Q898 -291 980 -311Q1032 -322 1083 -334Q1151 -352 1182 -379Q1206 -400 1206 -422ZM721 -663Q602 -680 613 -680Q304 -457 296 -457Q290 -457 280 -459Q270 -461 265 -461Q273 -449 286 -428Q261 -396 222 -383Q213 -380 147 -369L193 -361Q268 -377 419 -458Q546 -530 673 -602Q715 -625 721 -663ZM823 -2Q820 -38 808 -119Q796 -194 796 -199Q796 -206 807 -232Q818 -258 818 -263Q818 -286 799 -311Q777 -340 751 -340Q741 -340 713.5 -307.5Q686 -275 685 -260L749 217Q751 220 751 224Q751 262 691 297Q658 300 594 328Q618 336 639 336Q646 336 703 325Q760 314 767 314Q774 314 790 322Q806 330 811 330Q811 325 814.5 316Q818 307 818 301Q818 295 808 253Q798 206 796 192ZM727 213L677 -170Q655 -45 614 109Q608 133 586 193Q568 245 568 251Q568 275 580 304Q623 291 666 278Q717 262 727 213ZM711 -348Q659 -361 639 -361Q620 -361 593.5 -344.5Q567 -328 564 -311Q546 -216 523 -13Q516 29 505 104Q501 140 497 175Q490 216 470 241Q436 284 388 300Q367 307 299 317Q298 320 297 330H453Q448 330 490 309Q511 330 525 330Q549 330 549 297Q549 284 545.5 266.5Q542 249 542 249Q580 146 640 -76Q650 -166 665 -294Q667 -308 711 -348ZM903 -1316Q897 -1310 897 -1298H829Q829 -1301 823 -1310Q853 -1340 863 -1340Q879 -1340 903 -1316Z"/>
</svg>