<svg xmlns="http://www.w3.org/2000/svg" viewBox="23.1 -1641.9 1508.8 2075.8">
	<path fill="currentColor" d="M1455 335Q1455 357 1438 357L113 352L432 213Q408 133 320 -151Q297 -219 259 -356Q253 -383 253 -447Q253 -473 260 -499L179 -655H193Q100 -696 100 -829Q100 -868 126.5 -912.5Q153 -957 187 -976Q175 -992 175 -1002Q175 -1040 204 -1040H420Q442 -1012 442 -1000Q442 -989 428 -973Q452 -957 490 -917Q516 -873 516 -823Q516 -815 511 -794Q494 -722 469 -691Q439 -654 372 -638L381 -634Q417 -618 429 -585Q448 -535 456 -524Q523 -435 638 -305Q805 -116 826 -91L857 -635H775Q766 -645 766 -653Q766 -676 768.5 -720.5Q771 -765 771 -788Q771 -800 771 -824Q770 -848 770 -860Q770 -904 776 -933Q654 -955 654 -1029Q654 -1072 699 -1132Q735 -1178 771 -1224Q821 -1302 821 -1330Q821 -1377 783 -1402Q758 -1419 634 -1419Q565 -1419 495 -1370Q436 -1324 377 -1277Q363 -1267 353 -1262Q339 -1264 325 -1280Q407 -1431 615 -1497Q654 -1499 729 -1514Q743 -1526 773 -1545Q815 -1565 895 -1565Q1181 -1565 1312 -1394Q1379 -1307 1412 -1195Q1428 -1141 1428 -1112V-631H1306V158Q1306 171 1279 220ZM1405 -656V-1116Q1405 -1113 1400 -1132Q1369 -1254 1320 -1336Q1313 -1351 1295 -1380Q1237 -1457 1155 -1492Q1096 -1518 980 -1535Q1017 -1490 1017 -1443Q1017 -1393 966 -1326Q926 -1273 886 -1220Q862 -1180 831 -1086Q799 -988 799 -948Q799 -941 796 -927Q793 -913 793 -906V-659Q840 -661 856 -660Q857 -793 883 -883Q915 -996 1010 -1032Q1063 -1052 1090 -1052Q1156 -1052 1198 -1013Q1222 -990 1263.5 -918Q1305 -846 1306 -656ZM994 -1444Q994 -1467 979 -1498Q964 -1529 947.5 -1537Q931 -1545 891 -1545Q831 -1545 787 -1526Q770 -1512 733 -1492Q699 -1489 631 -1478Q464 -1438 352 -1286Q444 -1365 492 -1395Q576 -1445 660 -1445Q758 -1445 797 -1420Q844 -1390 844 -1328Q844 -1300 797 -1222Q761 -1175 725 -1129Q677 -1066 677 -1030Q677 -999 713 -976Q745 -957 779 -957Q782 -1010 813 -1102Q844 -1194 873 -1240Q910 -1289 947 -1338Q994 -1402 994 -1444ZM419 -1002Q419 -1006 410 -1014H203Q197 -1008 197 -1003Q197 -989 211 -989Q219 -989 246 -998Q273 -1007 316 -1007Q332 -1007 360.5 -998Q389 -989 404 -989Q419 -989 419 -1002ZM1401 330L1253 232V218Q1280 182 1280 163L1283 -719Q1283 -792 1259 -869Q1231 -960 1184 -996Q1141 -1029 1110 -1029Q997 -1029 930 -945Q894 -900 881 -709Q868 -492 858 -227Q854 -125 849 -61Q845 -51 833 -52Q709 -207 447 -502Q410 -540 341 -540Q324 -540 304 -521.5Q284 -503 279.5 -487Q275 -471 275 -445Q275 -380 284 -342Q303 -263 461 223L213 330ZM490 -822Q490 -895 437.5 -938Q385 -981 311 -981Q231 -981 182 -944Q126 -903 126 -826Q126 -656 320 -656Q444 -656 479 -762Q490 -795 490 -822ZM421 -549Q414 -567 395 -598Q364 -632 243 -632H214L270 -522Q303 -563 381 -563Q397 -563 421 -549ZM906 -1484Q889 -1452 873 -1452Q860 -1452 833 -1479Q852 -1497 862 -1512Q866 -1510 906 -1484ZM876 -1479L870 -1484L866 -1479L871 -1476Z"/>
</svg>