<svg xmlns="http://www.w3.org/2000/svg" viewBox="23.2 -1626.8 1088.5 2072.5">
	<path fill="currentColor" d="M1035 369H105Q105 367 102.5 360Q100 353 100 350Q168 323 303 263Q267 152 189 -105Q171 -170 176 -216Q176 -219 182 -236Q186 -250 185 -259Q182 -284 155 -366H209V-672Q209 -736 190 -763Q177 -722 142 -637H123Q110 -648 110 -667Q110 -720 128 -800Q144 -830 163 -888Q165 -905 155 -949Q157 -949 161 -952.5Q165 -956 173 -956Q197 -956 216 -921Q231 -895 231 -884Q231 -878 220 -848Q207 -814 204 -800Q217 -792 229.5 -766.5Q242 -741 242 -728V-366Q256 -363 279 -354Q292 -334 320 -294Q432 -140 558 2Q579 -153 573 -351L496 -346Q496 -351 493 -361.5Q490 -372 490 -378Q490 -385 494 -400.5Q498 -416 499 -420Q505 -463 519 -514Q525 -536 548 -591Q567 -638 567 -645Q567 -670 495 -738Q444 -785 409 -811Q361 -846 314 -865Q370 -928 448 -974Q537 -1028 596 -1022Q600 -1026 600 -1216Q560 -1259 545 -1259Q537 -1259 532 -1256Q527 -1253 525 -1253Q522 -1256 518.5 -1263Q515 -1270 512 -1273Q540 -1286 549 -1307Q565 -1347 581 -1471Q582 -1482 577.5 -1509.5Q573 -1537 573 -1550H681L689 -1543Q689 -1532 686 -1497Q683 -1462 683 -1457Q683 -1305 754 -1262Q751 -1259 747.5 -1252Q744 -1245 741 -1242Q711 -1259 710 -1259Q699 -1259 677 -1240.5Q655 -1222 655 -1212Q655 -1228 678 -1026Q682 -1024 692 -1018Q874 -977 941 -818Q985 -713 985 -516L979 -352Q941 -342 896 -351L892 220Q889 228 883.5 244Q878 260 875 268Q933 307 1035 369ZM693 -1298Q655 -1412 655 -1454Q655 -1524 654 -1528H601Q607 -1505 607 -1476Q607 -1434 579 -1303Q601 -1314 622 -1314Q646 -1314 693 -1298ZM677 -1267Q620 -1286 622 -1286Q615 -1286 599 -1282.5Q583 -1279 578 -1279Q610 -1231 628 -1231Q636 -1231 651 -1245Q672 -1264 677 -1267ZM649 -1023L629 -1226V-1023ZM958 -502Q958 -658 923 -789Q911 -833 852 -903Q779 -988 718 -988H699Q727 -947 727 -884Q727 -822 634 -687Q538 -547 530 -469Q523 -399 518 -373Q583 -373 583 -373Q583 -513 601 -562Q615 -600 660 -630Q702 -659 738 -659Q822 -659 864 -563Q895 -493 895 -406Q895 -385 893 -373Q923 -378 951 -367Q958 -413 958 -502ZM705 -879Q705 -1000 603 -1000Q548 -1000 498 -973Q468 -957 380 -892Q402 -892 435 -881Q433 -872 426 -857Q415 -863 391 -861Q476 -790 586 -675Q626 -725 665 -776Q705 -834 705 -879ZM209 -890Q209 -897 189 -917Q191 -889 175 -847Q155 -795 153 -780Q209 -876 209 -890ZM151 -720V-735H141V-720ZM941 341Q905 319 842 274Q864 230 864 236V-475Q864 -516 828 -569Q786 -631 735 -631Q702 -631 684 -618Q628 -578 623 -541Q607 -344 574 51Q536 23 479 -50Q438 -103 397 -157Q300 -279 259 -279Q204 -279 204 -191Q204 -148 226 -79Q244 -23 262 33Q289 118 336 273Q286 298 182 341ZM286 -306Q257 -340 239 -339H188Q193 -320 205 -290Q256 -307 262 -307Q288 -307 286 -306ZM550 -925Q547 -922 538 -915.5Q529 -909 526 -906Q516 -913 495 -931Q497 -933 508.5 -941.5Q520 -950 526 -956Q543 -939 550 -925Z"/>
</svg>