<svg xmlns="http://www.w3.org/2000/svg" viewBox="0 -2048 2048 2048">
	<path fill="currentColor" d="M1267 384H252L504 274Q464 155 423 35Q366 -139 366 -192Q366 -204 368.5 -226.5Q371 -249 371 -261Q371 -288 333 -380V-399H376Q347 -501 290 -706Q157 -712 145 -799Q165 -807 193 -813Q189 -818 172 -869Q161 -904 134 -903Q130 -894 131 -879Q100 -884 100 -919Q100 -936 113 -947.5Q126 -959 129 -968Q129 -976 137 -993Q143 -1001 171 -1015Q121 -1042 121 -1082Q121 -1120 149.5 -1147Q178 -1174 216 -1174Q295 -1174 295 -1087Q295 -1051 271 -1033Q355 -1016 380 -949Q393 -908 405 -868Q412 -868 426 -874Q440 -880 448 -880Q459 -880 459 -866Q459 -850 445 -811Q431 -772 421 -762.5Q411 -753 360 -726Q407 -548 446 -389Q460 -386 469 -382Q492 -371 523 -306Q542 -266 640 -151Q708 -73 776 6L795 -372H781Q753 -372 714 -367L705 -375V-385Q705 -453 721 -536Q742 -639 774 -673L789 -689Q782 -713 747 -743Q714 -759 655 -812Q643 -832 614 -868Q569 -909 539 -909Q534 -909 525 -907.5Q516 -906 512 -906Q523 -947 564 -972Q602 -993 640 -1013Q650 -1023 670 -1041Q716 -1076 750 -1077Q749 -1084 707 -1231Q715 -1239 727 -1240Q736 -1335 817 -1386Q750 -1491 750 -1508Q750 -1518 781 -1559Q790 -1561 804 -1561Q852 -1561 852 -1522Q852 -1500 829 -1478H796Q829 -1524 829 -1521Q829 -1535 806 -1535Q801 -1535 793 -1534Q773 -1512 773 -1507Q773 -1499 838 -1396Q910 -1422 931 -1471Q934 -1495 948 -1537Q961 -1561 1001 -1561Q1015 -1561 1042 -1546Q1054 -1520 1054 -1508Q1054 -1493 1031.5 -1469.5Q1009 -1446 1009 -1421Q1009 -1421 1022 -1370Q1024 -1402 1076 -1555Q1089 -1553 1114 -1551L989 -1060Q1027 -1037 1064 -1013Q1106 -985 1130 -955Q1161 -916 1178 -865Q1191 -817 1204 -768Q1209 -755 1215 -728L1224 -375H1133V232Q1133 245 1109 278ZM1028 -1512Q1028 -1538 1010 -1538Q966 -1538 961 -1510Q961 -1497 956 -1472Q938 -1422 871 -1389Q798 -1351 782 -1326Q751 -1277 749 -1241Q771 -1240 839 -1236Q896 -1233 930 -1233Q936 -1233 949 -1234Q962 -1234 969 -1234Q985 -1275 1008 -1350Q983 -1377 983 -1419Q983 -1449 1005.5 -1476.5Q1028 -1504 1028 -1512ZM1072 -1472L1043 -1384Q986 -1211 973 -1211L735 -1216Q759 -1162 773 -1081Q802 -1087 810 -1086L969 -1069ZM1199 -397L1192 -726Q1186 -749 1174 -792Q1170 -816 1157 -861Q1152 -871 1141 -891Q1117 -937 1063.5 -984Q1010 -1031 962 -1047Q944 -1053 915 -1053Q955 -1008 955 -928Q955 -902 932.5 -849Q910 -796 891 -777Q874 -762 842 -730Q801 -680 782 -645Q769 -621 750 -552Q731 -483 731 -457V-397H795Q798 -573 834 -624Q887 -699 960 -699Q986 -699 1018 -681Q1081 -645 1104 -575Q1108 -565 1132 -438Q1135 -421 1134 -397ZM929 -932Q929 -1063 818 -1063Q721 -1063 675 -1016Q667 -1007 649 -992Q609 -978 550 -937Q574 -944 586 -944Q642 -944 640 -924L631 -915H605Q601 -915 595.5 -918Q590 -921 588 -921Q583 -921 574 -918Q632 -888 655 -852Q661 -841 676 -821Q689 -807 753 -767Q773 -755 804 -710Q828 -736 874 -791Q929 -859 929 -932ZM270 -1074Q270 -1148 216 -1148Q147 -1148 147 -1087Q147 -1032 202 -1032Q270 -1032 270 -1074ZM385 -864Q376 -896 350 -957Q321 -1008 284 -1008H235Q259 -980 259 -949Q259 -934 229 -823ZM236 -949Q236 -964 224 -983.5Q212 -1003 198 -1003Q184 -1003 155 -980L153 -976Q158 -980 164 -980Q187 -980 187 -946Q187 -924 177 -914L170 -916Q185 -904 193 -878Q200 -857 207 -835Q236 -933 236 -949ZM156 -946V-949L151 -954H148L143 -949V-946Q143 -941 150 -941Q156 -942 156 -946ZM432 -851L172 -783Q200 -732 295 -732Q338 -732 378.5 -760.5Q419 -789 427 -830Q430 -844 432 -851ZM1204 363L1083 290V275Q1107 245 1107 238V-446Q1107 -435 1098 -473Q1097 -492 1092 -530Q1067 -673 960 -673Q892 -673 855 -615Q828 -572 820 -464Q817 -384 814 -303Q802 -43 802 -25Q802 -18 803 -5Q804 8 804 15Q804 37 785 53Q653 -112 496 -289Q472 -301 447 -301Q389 -301 389 -211Q389 -143 446 35Q488 161 530 287Q461 319 352 363ZM422 -392L337 -717L315 -711L397 -392Q411 -391 411 -391Q411 -391 422 -392ZM498 -313Q477 -359 448 -364Q444 -361 440 -361Q426 -361 399.5 -368.5Q373 -376 359 -376L386 -297Q414 -324 447 -324Q470 -324 498 -313ZM767 -990Q766 -960 741 -960Q734 -960 723 -967Q712 -974 708 -975V-993L733 -1018Q745 -1012 767 -990ZM743 -987V-990L738 -995H735L730 -990V-987Q730 -982 737 -982Q743 -983 743 -987Z"/>
</svg>