<svg xmlns="http://www.w3.org/2000/svg" viewBox="0 -2048 2048 2048">
	<path fill="currentColor" d="M982 287Q982 290 979.5 299Q977 308 977 311H106Q106 299 100 293L304 203L173 -266Q188 -347 257 -347Q297 -347 329 -312.5Q361 -278 546 -54Q551 -62 552 -83L565 -389H487Q487 -394 484 -408.5Q481 -423 481 -430Q481 -482 508 -564Q533 -640 560 -683Q500 -744 441 -804Q365 -879 309 -892Q369 -970 518 -1039Q502 -1046 471 -1063Q473 -1228 518 -1357Q471 -1398 471 -1415Q471 -1460 523 -1460Q548 -1460 577 -1433Q580 -1429 580 -1441Q580 -1447 567.5 -1469.5Q555 -1492 555 -1499V-1516Q619 -1501 604 -1501Q609 -1501 619 -1509Q629 -1517 635 -1517Q642 -1517 653.5 -1509Q665 -1501 672 -1501Q673 -1501 705 -1517Q705 -1509 700 -1489Q695 -1469 695 -1463V-1438Q741 -1454 740 -1454Q795 -1454 795 -1405Q795 -1374 742 -1356V-1341Q752 -1314 767 -1264Q777 -1217 789 -1058Q771 -1049 737 -1029Q852 -979 912 -850Q962 -744 961 -622V-391H873V174Q873 167 852 209ZM674 -1469Q669 -1472 657.5 -1480Q646 -1488 641 -1491Q638 -1490 627.5 -1480Q617 -1470 609 -1470Q601 -1470 597 -1472Q593 -1474 591 -1474Q603 -1451 602 -1445Q638 -1454 668 -1444Q668 -1445 671 -1452.5Q674 -1460 674 -1469ZM664 -1403Q652 -1428 641 -1428Q625 -1428 607 -1410Q620 -1409 664 -1403ZM768 -1403V-1422L762 -1428H730Q722 -1428 706 -1409Q690 -1390 690 -1381Q690 -1373 706 -1307.5Q722 -1242 722 -1133Q722 -1072 717 -1047Q726 -1050 742.5 -1058.5Q759 -1067 763 -1068Q758 -1135 740 -1264Q716 -1375 716 -1363Q716 -1384 730 -1386Q755 -1391 768 -1403ZM695 -1143Q695 -1279 662 -1370Q644 -1381 630 -1381Q615 -1381 598 -1368Q560 -1206 560 -1151Q560 -1095 576 -1047Q653 -1048 689 -1037Q695 -1083 695 -1143ZM570 -1371Q570 -1433 531 -1433Q517 -1433 502 -1416V-1398Q518 -1390 544 -1377V-1363Q496 -1220 497 -1179V-1074Q528 -1064 543 -1061Q534 -1144 540 -1206Q543 -1236 557 -1304Q570 -1367 570 -1371ZM936 -551Q936 -958 680 -1014Q711 -963 711 -921Q711 -853 648 -760Q558 -627 537 -580Q506 -510 508 -453V-410Q541 -416 564 -415Q574 -523 592 -589Q603 -630 650 -662Q692 -692 727 -692Q801 -692 843 -591Q875 -515 875 -435Q875 -424 874 -416Q907 -419 929 -410Q936 -467 936 -551ZM685 -919Q685 -1026 583 -1026Q533 -1026 476.5 -990.5Q420 -955 364 -918Q412 -918 422 -907Q424 -902 424 -899Q413 -889 387 -889Q470 -806 578 -707Q650 -808 656 -819Q685 -868 685 -919ZM925 283Q858 245 821 214Q847 175 847 174V-470Q847 -476 840.5 -493.5Q834 -511 833 -517Q809 -665 727 -665Q695 -665 658.5 -640Q622 -615 608 -580Q601 -564 594 -480Q586 -389 586 -396V-246Q586 -191 568 -11Q565 -9 557 -2Q502 -70 409 -184Q370 -232 330 -281Q293 -321 257 -321Q206 -321 199 -263L335 214Q304 230 184 283ZM549 -955Q527 -932 518 -932Q509 -932 486 -955Q487 -956 495 -967Q503 -978 509 -984Q520 -984 549 -955Z"/>
</svg>