<svg xmlns="http://www.w3.org/2000/svg" viewBox="23.8 -1633.2 1358.5 2058.5">
	<path fill="currentColor" d="M1306 -1239Q1306 -1206 1261 -1178Q1224 -1155 1202 -1155Q1195 -1155 1140 -1168.5Q1085 -1182 1078 -1182Q1071 -1182 1008.5 -1168.5Q946 -1155 939 -1155Q933 -1155 898 -1163.5Q863 -1172 857 -1172H805Q805 -1168 795 -1158Q800 -1157 810 -1151Q871 -1144 933 -1074Q989 -1010 1005 -947Q1050 -768 1050 -615Q1050 -502 1049 -509H963V136Q963 150 936 232L1137 329Q1137 342 1130 349H149V329Q214 299 344 238Q274 76 161 -212Q155 -229 163 -262Q169 -288 176 -315L122 -448H208V-902Q208 -908 194 -922Q185 -922 182 -918Q166 -866 142 -759Q140 -759 129 -756Q118 -753 112 -753Q100 -756 100 -769V-934Q100 -956 142 -1034Q155 -1059 155 -1106Q155 -1139 155 -1171Q157 -1171 161 -1174Q165 -1177 173 -1177Q203 -1177 225 -1132Q241 -1099 241 -1082Q241 -1012 203 -978Q215 -966 233 -942Q242 -924 252 -881L246 -484Q243 -467 267 -445Q296 -418 298 -415Q332 -345 430 -223Q519 -113 607 -3L638 -509H574Q567 -522 567 -549Q567 -619 620 -712Q672 -800 725 -887V-905Q725 -905 570 -905Q489 -905 436 -882Q433 -872 424 -851H378Q378 -877 383 -912Q317 -927 317 -973Q317 -1000 462 -1072Q561 -1117 659 -1163Q641 -1177 608 -1177Q602 -1177 565 -1171.5Q528 -1166 521 -1166Q514 -1166 462.5 -1182Q411 -1198 404 -1198Q398 -1198 335 -1182Q272 -1166 265 -1166Q233 -1166 195 -1188Q148 -1215 143 -1256Q156 -1269 173 -1269Q182 -1269 216.5 -1247.5Q251 -1226 271 -1226Q278 -1226 341.5 -1242Q405 -1258 412 -1258Q419 -1258 472 -1242Q525 -1226 532 -1226Q538 -1226 581.5 -1234Q625 -1242 632 -1242Q643 -1242 677 -1231Q681 -1226 681 -1239Q681 -1246 662 -1301.5Q643 -1357 643 -1364Q643 -1432 714 -1479Q695 -1500 654 -1531V-1556Q625 -1557 822 -1557Q860 -1557 890 -1523.5Q920 -1490 920 -1462Q920 -1455 872 -1371Q812 -1268 795 -1233Q795 -1223 798 -1220Q809 -1226 836 -1226Q843 -1226 889 -1217.5Q935 -1209 942 -1209Q949 -1209 1008.5 -1231Q1068 -1253 1075 -1253Q1081 -1253 1136 -1236.5Q1191 -1220 1197 -1220Q1199 -1220 1281 -1269Q1306 -1258 1306 -1239ZM893 -1465Q893 -1477 876 -1502Q856 -1530 839 -1530Q828 -1530 806.5 -1511.5Q785 -1493 779 -1477Q801 -1475 823.5 -1437.5Q846 -1400 843 -1383Q893 -1454 893 -1465ZM779 -1523H708Q737 -1494 743 -1470Q760 -1504 779 -1523ZM1278 -1239Q1226 -1193 1206 -1193Q1200 -1193 1141.5 -1211.5Q1083 -1230 1077 -1230Q1071 -1230 1004.5 -1211.5Q938 -1193 932 -1193Q925 -1193 881.5 -1200Q838 -1207 833 -1207Q814 -1207 784 -1191.5Q754 -1176 750 -1161H772Q773 -1193 828 -1193Q834 -1193 890 -1184Q946 -1175 952 -1175Q958 -1175 1020 -1191Q1082 -1207 1088 -1207Q1094 -1207 1142 -1195.5Q1190 -1184 1196 -1184Q1270 -1184 1278 -1239ZM817 -1364Q817 -1409 787 -1440Q763 -1465 749 -1465Q715 -1465 683 -1420Q665 -1395 665 -1367Q665 -1335 732 -1188Q761 -1221 789 -1277.5Q817 -1334 817 -1364ZM712 -1161V-1178Q683 -1216 628 -1216Q622 -1216 579 -1209Q536 -1202 531 -1202Q525 -1202 467.5 -1218Q410 -1234 404 -1234Q398 -1234 335 -1218Q272 -1202 266 -1202Q243 -1202 175 -1243Q187 -1225 216.5 -1206.5Q246 -1188 259 -1188Q266 -1188 335 -1206.5Q404 -1225 409 -1225Q415 -1225 458.5 -1206.5Q502 -1188 508 -1188Q514 -1188 564 -1195Q614 -1202 620 -1202Q680 -1202 691 -1161ZM1029 -620Q1029 -681 1011 -800Q991 -927 972 -963Q958 -993 944 -1023Q923 -1061 881 -1093Q815 -1144 700 -1144Q638 -1144 519 -1076Q432 -1025 346 -973Q345 -970 344 -961Q367 -938 393 -938Q400 -938 425.5 -943.5Q451 -949 458 -949Q469 -949 475 -930Q458 -924 431 -912Q467 -921 494 -921H650Q657 -921 692.5 -932Q728 -943 735 -943Q743 -943 752 -934V-898Q752 -876 744 -860Q724 -836 694 -795Q636 -699 619 -654Q594 -587 594 -576V-531H647Q687 -632 704 -656Q741 -710 806 -710Q941 -710 959 -531H1027Q1029 -521 1029 -620ZM219 -1090Q219 -1112 182 -1144Q186 -1130 186 -1114Q186 -1078 165 -1025Q149 -987 133 -949Q133 -949 158 -949Q162 -958 197 -1028Q219 -1070 219 -1090ZM134 -928V-942H125V-928ZM142 -893Q137 -893 129 -899V-840Q142 -876 142 -893ZM1056 320Q1007 295 909 243Q942 111 942 119V-512Q942 -563 909 -616Q869 -682 806 -682Q746 -682 709.5 -620Q673 -558 666 -506Q654 -420 647 -287Q637 -98 635 -72Q634 -39 633 -7Q631 31 613 45Q604 34 447 -167Q347 -295 300 -337Q287 -349 226 -345Q204 -329 197 -292Q192 -261 187 -229L377 246Q339 269 225 320ZM295 -368Q284 -387 256 -421H160Q172 -394 195 -351Q218 -373 252 -373Q286 -373 295 -368ZM665 -1038Q652 -1025 645 -1025H584V-1045Q611 -1074 632 -1074Q647 -1074 665 -1038Z"/>
</svg>