<svg xmlns="http://www.w3.org/2000/svg" viewBox="0 0 500 1000">
  <g transform="scale(1,-1) translate(0,-1000)">
    <path d="M232 745Q232 760 254.0 760.0Q276 760 276 745Q276 738 269.0 733.5Q262 729 254.0 729.0Q246 729 239.0 733.5Q232 738 232 745ZM101 661Q82 662 74.5 663.5Q67 665 62.0 671.0Q57 677 57 689Q57 716 74 726Q82 730 117 750Q213 808 282 813Q250 820 228.5 846.0Q207 872 207 906Q207 945 235.0 972.5Q263 1000 302.0 1000.0Q341 1000 368.5 972.5Q396 945 396 906Q396 872 375.5 846.0Q355 820 323 813Q343 812 363.0 806.0Q383 800 409.0 779.5Q435 759 445 726Q476 628 476 525Q476 516 475.5 497.5Q475 479 475 468Q475 454 461 454H424Q430 385 430 308Q430 164 415 56Q416 56 418.0 56.0Q420 56 423.0 55.5Q426 55 429 55Q448 53 462.5 48.5Q477 44 483.5 39.0Q490 34 494.5 28.5Q499 23 499.5 20.0Q500 17 500 16Q500 0 484 0H34Q17 0 17 9Q17 27 33.5 36.0Q50 45 70.5 49.0Q91 53 95 57Q101 63 101 93Q101 129 65.0 200.0Q29 271 29 320Q29 338 43 354V513Q32 504 29 497Q27 494 10 442Q9 451 4.5 469.5Q0 488 0 498Q0 513 16.5 537.0Q33 561 45 599Q46 605 47.0 610.0Q48 615 48.5 621.0Q49 627 50 632Q53 627 59.5 619.5Q66 612 69.0 606.0Q72 600 72 592V587Q72 563 59 535Q69 531 69 523V372Q78 375 86 375Q105 375 130.5 349.5Q156 324 172.5 299.0Q189 274 217 229Q220 224 226.5 213.5Q233 203 237 197Q238 216 238 249Q238 380 257 452Q235 455 217.5 468.0Q200 481 200 508Q200 558 264 648L273 660H259H234Q221 660 196.5 659.5Q172 659 159 659H144Q146 647 146 641Q146 631 139.5 621.0Q133 611 121 611Q98 611 98 638Q98 642 99.5 651.0Q101 660 101 661ZM391 33Q382 40 382 55Q382 56 383.5 70.0Q385 84 387.5 108.0Q390 132 392.5 162.0Q395 192 396.5 232.0Q398 272 398 311Q398 379 392 451Q390 468 376.5 483.5Q363 499 348 499Q304 499 289 447Q277 402 273.5 353.5Q270 305 270.0 245.5Q270 186 267 147Q265 133 251 133Q242 133 238 139Q228 151 194.0 206.5Q160 262 130.5 302.0Q101 342 86 342Q78 342 69.5 334.5Q61 327 61 320Q62 276 97.5 206.5Q133 137 133 92Q133 48 116 33ZM252.5 856.0Q273 835 302.0 835.0Q331 835 351.5 856.0Q372 877 372.0 906.0Q372 935 351.5 955.5Q331 976 302.0 976.0Q273 976 252.5 955.5Q232 935 232.0 906.0Q232 877 252.5 856.0ZM268 479Q296 531 348 531Q369 531 387.5 517.5Q406 504 416 483H447Q447 491 447.5 506.0Q448 521 448 528Q448 623 418 717Q394 785 306 785Q272 785 240.0 776.0Q208 767 187.5 757.0Q167 747 132 726Q107 710 89 701Q86 697 86 691Q126 688 159 688Q171 688 196.0 688.5Q221 689 234 689Q275 689 299 687Q304 687 308.5 682.5Q313 678 313 672Q313 667 301.5 651.0Q290 635 274.0 612.0Q258 589 251 574Q228 526 228 507Q228 502 248.0 491.0Q268 480 268 479Z" fill="currentColor"/>
  </g>
</svg>