<svg xmlns="http://www.w3.org/2000/svg" viewBox="0 -2048 2048 2048">
	<path fill="currentColor" d="M1003 339Q1003 352 996 359H106Q106 346 100 340Q167 312 308 247Q177 -98 177 -207Q177 -313 253 -313Q289 -313 318 -289Q353 -260 428 -167Q528 -43 556 -12Q574 -157 577 -279V-355Q541 -360 495 -355V-458Q495 -495 527 -572Q556 -640 571 -656Q469 -773 452 -789Q376 -864 314 -874Q433 -1017 604 -1035L609 -1482Q611 -1511 630.5 -1533.5Q650 -1556 678 -1556Q697 -1556 729.5 -1530.5Q762 -1505 762 -1482Q762 -1447 702 -1421L762 -1136Q733 -1124 704 -1113Q665 -1093 647 -1055V-1035Q987 -990 987 -541Q987 -498 977 -372Q976 -365 986 -359H893V216Q893 209 877 258Q909 280 1003 339ZM735 -1152L675 -1429Q678 -1432 707 -1457Q730 -1477 730 -1485Q730 -1494 711.5 -1511.5Q693 -1529 678 -1529Q660 -1529 645.5 -1506.5Q631 -1484 632 -1470V-1096Q687 -1141 735 -1152ZM959 -544Q959 -705 922 -799Q860 -956 692 -1002Q730 -951 730 -896Q730 -834 663 -735Q572 -601 546.5 -541Q521 -481 522 -452V-380H575Q587 -461 599 -542Q630 -669 727 -669Q815 -669 862 -566Q897 -491 897 -407Q897 -388 894 -380H958Q959 -460 959 -544ZM702 -891Q702 -934 677 -969Q648 -1009 604 -1009Q550 -1009 474 -968Q406 -932 374 -895Q394 -908 434 -890Q432 -884 425 -871H396L590 -680Q702 -836 702 -891ZM937 330Q904 307 839 263Q841 259 855 245Q866 233 866 226V-443Q866 -474 842 -552Q832 -584 809 -606Q771 -642 732 -642Q652 -642 624 -514Q622 -506 607 -344Q603 -240 585 -32Q585 -11 586 10Q584 32 563 42Q481 -59 355 -225Q304 -292 256 -292Q232 -292 216 -265Q202 -242 202 -219Q202 -212 204 -208L336 263Q284 285 182 330ZM554 -927Q552 -927 542 -921.5Q532 -916 524 -916Q518 -916 494 -928Q505 -970 527 -970Q532 -970 554 -947Z"/>
</svg>