<svg xmlns="http://www.w3.org/2000/svg" viewBox="0 -2048 2048 2048">
	<path fill="#000000" d="M1177 -236Q1174 -236 1164.5 -233Q1155 -230 1152 -230Q1124 -258 1124 -307Q1124 -318 1126 -342Q1128 -366 1128 -378Q1128 -434 1092 -466Q1056 -437 1056 -370Q1056 -362 1056 -347Q1057 -332 1057 -324Q1057 -264 1032 -231Q1019 -213 959 -198Q906 -186 872 -186H573V348H719V-25H1077V-300H1106V375H508V-174Q498 -119 477 -17Q437 78 381 253Q381 289 381 326Q378 370 338 370Q333 370 312.5 364.5Q292 359 283 359Q275 359 249 364.5Q223 370 217 370H100Q96 361 100 311Q193 305 259 262Q249 255 223 233Q213 253 196 260H171Q171 258 168 255Q165 252 165 244Q165 237 184.5 201Q204 165 204 158V-407Q168 -440 171 -503Q171 -504 202 -525Q204 -537 204 -571L193 -742Q195 -742 185 -752Q157 -697 137 -615H117Q98 -623 99 -643Q104 -661 108 -679Q116 -720 116 -788Q116 -776 171 -941Q127 -964 127 -1008Q127 -1077 187 -1077Q204 -1077 282 -1038Q282 -1038 282 -1087H335Q335 -1065 324 -1026Q363 -1026 484 -1037Q479 -1041 468 -1063Q477 -1083 495 -1083Q529 -1083 549 -1012Q559 -970 568 -927Q594 -870 642 -752Q734 -858 782 -851V-903Q782 -919 720 -969Q685 -996 650 -1023V-1043Q755 -1133 805 -1132Q806 -1138 806 -1144Q806 -1158 796.5 -1193Q787 -1228 787 -1245Q787 -1262 789 -1267Q797 -1271 802 -1279Q808 -1328 881 -1394Q879 -1398 846 -1443Q820 -1478 820 -1506Q820 -1550 859 -1550Q884 -1550 908 -1527Q904 -1503 899 -1492Q889 -1470 871 -1469Q871 -1494 879 -1505Q881 -1508 881 -1518Q879 -1518 875.5 -1520.5Q872 -1523 864 -1523Q848 -1523 848 -1504Q848 -1481 906 -1413Q923 -1428 950 -1461Q958 -1489 966 -1517Q978 -1550 1013 -1550Q1043 -1550 1068 -1517Q1071 -1528 1080 -1550H1122L1018 -1120Q1079 -1095 1098 -1059Q1124 -1011 1132 -976Q1151 -896 1150 -860V-714Q1109 -724 1062 -715L1066 -477Q1083 -494 1095 -494Q1142 -494 1150 -401Q1150 -350 1150 -299Q1153 -284 1177 -236ZM1046 -1498Q1046 -1508 1033.5 -1518Q1021 -1528 1010 -1528Q989 -1528 984 -1497Q981 -1476 978 -1455Q964 -1427 890 -1356Q826 -1294 826 -1270H1006Q1008 -1278 1020 -1315Q1029 -1345 1029 -1361Q1029 -1371 1023 -1395Q1018 -1416 1020 -1426Q1023 -1437 1035 -1466Q1046 -1492 1046 -1498ZM1023 -1241H815Q832 -1140 832 -1144Q854 -1144 871 -1146.5Q888 -1149 892 -1149Q923 -1149 989 -1127Q1000 -1167 1023 -1241ZM1122 -748V-855Q1122 -867 1110 -937Q1102 -985 1069 -1033Q1032 -1088 986 -1104Q1024 -1049 1024 -1011Q1024 -958 964 -894V-748H996Q995 -754 995 -852H1015Q1052 -837 1059 -798Q1059 -794 1058 -742Q1085 -742 1104.5 -745Q1124 -748 1122 -748ZM1002 -1006Q1002 -1052 962 -1086.5Q922 -1121 870 -1121Q820 -1121 705 -1057Q737 -1049 754 -1030Q751 -1027 749.5 -1023Q748 -1019 745 -1016Q715 -1026 699 -1026Q746 -996 794 -936Q866 -846 871 -841H935Q932 -855 932 -867Q932 -901 967 -936.5Q1002 -972 1002 -1006ZM842 -742V-833Q842 -843 805 -879V-742ZM781 -737L775 -829Q749 -824 702 -782Q655 -740 655 -717Q655 -705 663 -697Q682 -703 722 -717Q762 -731 781 -737ZM264 -1008Q257 -1010 233 -1026Q212 -1039 204 -1039Q195 -1039 183 -1028Q171 -1017 171 -1008Q171 -1000 174 -996Q177 -992 177 -990Q182 -990 188 -987Q194 -984 201 -984Q192 -984 264 -1008ZM578 -639Q555 -718 504 -866Q479 -907 439 -983Q380 -983 325 -988Q340 -933 327 -922H285Q287 -955 296 -983Q282 -977 250 -962.5Q218 -948 204 -942Q231 -930 231 -884Q231 -857 204 -793Q215 -787 229 -765.5Q243 -744 243 -738V-528Q245 -528 253.5 -522Q262 -516 270 -516Q282 -516 380 -549Q485 -584 549 -611Q561 -623 578 -639ZM209 -890Q209 -898 195 -912Q190 -900 160 -841Q138 -796 138 -788Q138 -781 141.5 -762.5Q145 -744 145 -736Q209 -880 209 -890ZM647 -574Q613 -584 592 -615Q581 -600 558 -583Q545 -582 525 -580Q505 -575 420 -541Q289 -488 272 -488Q264 -488 257 -490Q250 -492 248 -492Q267 -475 265 -450Q290 -460 400 -492Q470 -508 541 -524Q629 -545 647 -574ZM1040 -565Q1040 -744 1019 -818V-719H935V-818Q918 -814 901 -814Q883 -814 871 -818Q873 -759 865 -713Q829 -707 759 -691.5Q689 -676 653 -670Q603 -770 546 -899Q538 -916 536 -956Q534 -996 518 -1028V-1009Q518 -993 524.5 -976.5Q531 -960 531 -956Q531 -941 501 -921Q520 -887 548 -804Q565 -751 582 -699Q620 -604 658 -604Q686 -604 830 -653Q958 -696 998 -714Q1008 -693 1008 -691L798 -613Q831 -533 831 -439Q831 -386 805 -368Q788 -356 718 -343Q611 -328 465 -304Q418 -294 389 -172Q351 -14 317 180Q303 259 265 287Q217 323 121 334Q141 348 176 348Q183 348 236.5 340Q290 332 297 332Q308 332 351 348Q345 279 383 166Q410 86 438 5Q450 -62 486 -187Q499 -218 526 -218H971Q987 -218 1006 -243Q1020 -262 1022 -270Q1040 -347 1040 -565ZM1078 348V36H785V348ZM1078 16V1H744V348H760V16ZM804 -441Q804 -464 775 -609Q741 -603 684 -579Q658 -552 613 -517Q562 -497 426 -467Q307 -441 248 -410V174Q248 182 258 205Q271 233 272 236Q292 176 314 57Q329 -24 343 -105Q357 -174 371 -217Q399 -297 433 -316Q472 -338 518 -343Q558 -346 598 -349Q642 -354 724 -365Q775 -374 795 -390Q804 -397 804 -441ZM236 -440V-471Q236 -471 199 -471Q199 -461 201.5 -451Q204 -441 204 -440Q212 -436 222 -436Q232 -436 236 -440ZM547 348V-190H537V348ZM831 -1075Q831 -1063 818 -1050Q801 -1050 791.5 -1053Q782 -1056 782 -1056Q782 -1051 806 -1099Z"/>
</svg>