<svg xmlns="http://www.w3.org/2000/svg" viewBox="0 -2048 2048 2048">
	<path fill="currentColor" d="M1097 -541L1017 -293Q1017 -288 1019.5 -273Q1022 -258 1022 -250Q1054 -242 1091 -250V-220Q1055 -221 1021 -218Q1007 -194 988 -189Q944 -177 910 -177Q909 -177 893 -193L958 279Q959 283 959 287Q959 304 940.5 317Q922 330 908 330Q901 330 882.5 324.5Q864 319 857 319Q850 319 826 324.5Q802 330 795 330H682Q682 313 682 278Q728 270 774 261Q841 241 841 183Q841 134 806 25Q768 -94 762 -145H691Q638 -20 565 190Q561 202 540 301Q534 330 492 330Q485 330 458.5 324.5Q432 319 425 319Q431 319 367 323Q314 327 288 324Q287 322 287 272Q300 273 312 273Q415 273 462 194Q490 146 512 23Q534 -100 559 -141Q540 -146 506 -156Q513 -170 519 -183Q529 -203 527 -220H440Q438 -191 438 -159Q438 -97 448 3Q460 129 462 164L437 169Q439 154 427 143Q408 143 408 164H388V147Q384 143 377 143Q370 143 360.5 155.5Q351 168 347 170Q338 161 341 140Q362 14 405 -245H544L681 -510Q658 -591 635 -667Q609 -614 582 -562Q548 -494 515 -472Q422 -418 233 -295V329Q225 329 210.5 326.5Q196 324 191 324V-301Q159 -321 159 -350Q159 -354 163 -371Q167 -385 165 -393Q173 -396 186 -404V-981Q238 -998 239 -999Q260 -1010 260 -1038Q260 -1072 228 -1072Q215 -1072 211 -1068Q172 -1018 142 -988Q136 -982 123 -982Q116 -985 100 -1017Q115 -1023 136 -1039Q139 -1054 150 -1077Q187 -1120 225 -1120Q260 -1120 283 -1092Q303 -1068 303 -1040Q303 -994 233 -951V-410Q234 -410 241.5 -408Q249 -406 255 -406Q271 -406 369 -483Q467 -560 477 -580Q481 -588 523 -717Q553 -809 592 -840Q620 -851 676 -873Q681 -916 640 -960Q604 -999 559 -1015V-1033Q606 -1086 708 -1123Q692 -1137 590 -1142Q505 -1146 495 -1203V-1221Q507 -1221 518 -1232Q521 -1230 549 -1208Q570 -1190 577 -1190Q579 -1190 643.5 -1194.5Q708 -1199 740 -1199Q714 -1224 650 -1233L692 -1431Q644 -1461 644 -1483Q644 -1502 678 -1520Q707 -1536 726 -1536Q754 -1536 775 -1493Q782 -1507 800 -1528Q811 -1536 833 -1536Q854 -1536 877 -1522Q905 -1505 905 -1480Q905 -1471 894 -1454Q880 -1431 862 -1431Q875 -1366 904 -1222Q877 -1225 846 -1209Q900 -1200 950 -1200Q979 -1200 1041 -1238Q1049 -1231 1054 -1231Q1045 -1147 861 -1134Q854 -1131 841 -1121Q914 -1100 951 -1038Q979 -990 989 -909Q996 -846 1002 -782Q1005 -761 1050.5 -667.5Q1096 -574 1097 -541ZM878 -1244L830 -1442Q849 -1453 878 -1473V-1493Q855 -1515 836 -1515Q826 -1515 807 -1494Q788 -1473 789 -1464V-1206Q820 -1238 878 -1244ZM766 -1384Q760 -1420 754 -1456Q741 -1515 716 -1515Q693 -1515 671 -1474Q695 -1459 724 -1452L681 -1265Q682 -1255 688 -1249Q732 -1239 760 -1216ZM937 -1178H884Q852 -1181 839.5 -1177.5Q827 -1174 804.5 -1158Q782 -1142 777 -1142Q777 -1142 743.5 -1160.5Q710 -1179 679 -1179Q653 -1179 591 -1165Q633 -1164 674 -1163Q721 -1159 736 -1126H813Q833 -1152 872 -1162Q904 -1170 937 -1178ZM974 -811V-926Q976 -958 924 -1039Q894 -1086 847 -1086Q889 -1066 889 -1003Q889 -949 836 -906V-774H856Q861 -806 872 -865Q902 -865 974 -811ZM862 -1000Q862 -1034 831 -1066.5Q800 -1099 758 -1099Q748 -1099 692 -1085Q706 -1085 729 -1059Q705 -1035 697 -1035Q689 -1035 670 -1054Q673 -1065 684 -1079Q641 -1060 617 -1042Q633 -1042 655 -1031Q649 -1018 650 -1007Q644 -1007 634.5 -1009.5Q625 -1012 623 -1012L752 -860H809Q805 -873 805 -884Q805 -906 833.5 -938Q862 -970 862 -1000ZM729 -774V-846Q729 -850 698 -880V-774ZM990 -520Q990 -539 918 -683Q868 -550 868 -558Q868 -545 892 -486.5Q916 -428 916 -395Q916 -420 894 -246Q990 -460 990 -520ZM1076 -539Q1076 -551 1040 -634Q1002 -724 972 -772Q929 -842 884 -837V-752H809V-837Q777 -829 751 -832V-746H670Q678 -791 669 -842Q616 -838 585 -786Q567 -756 545 -680Q525 -609 509 -586Q471 -532 386 -469Q323 -423 260 -377Q267 -370 267 -358Q310 -383 386 -425Q444 -454 471 -471Q527 -506 546 -540Q568 -589 590 -637Q628 -720 641 -720Q653 -720 650 -716L704 -529L846 -556Q870 -653 908 -721H914Q919 -725 923 -726Q1017 -564 1017 -531Q1017 -535 967 -361Q952 -328 927 -263Q941 -263 943 -228Q943 -215 949 -209H978Q999 -226 999 -250Q999 -260 995 -277.5Q991 -295 991 -302Q991 -308 992 -312Q1005 -352 1043 -450Q1076 -534 1076 -539ZM889 -392Q889 -429 850 -533Q802 -521 709 -505Q666 -419 580 -247H862Q865 -273 877 -332Q889 -386 889 -392ZM867 -172V-219H565Q557 -201 543 -172ZM937 279Q937 273 927 246Q917 219 917 210Q914 132 867 -144H783Q868 154 868 197Q868 248 802 278Q751 301 702 301Q707 301 720.5 305Q734 309 740 309Q747 309 800 301Q853 293 860 293Q867 293 884 298Q901 303 908 303Q937 303 937 279ZM244 -333V-356Q232 -368 217 -368Q210 -368 186 -356Q191 -320 220 -320Q231 -320 244 -333ZM430 121L412 -129L373 121ZM659 -144H592Q568 -106 538 48Q511 188 458 244Q437 267 387 281Q347 291 308 302H374Q380 303 405.5 298Q431 293 436 293Q436 293 472 297Q501 300 515 297Q557 90 659 -144Z"/>
</svg>