<svg xmlns="http://www.w3.org/2000/svg" viewBox="24.6 -1616.4 1257.9 2036.9">
	<path fill="currentColor" d="M1207 -603Q1207 -596 1180 -479.5Q1153 -363 1153 -356Q1153 -300 1169 -285.5Q1185 -271 1185 -249Q1185 -238 1167 -207Q1149 -176 1151 -165Q1157 -171 1164 -171Q1191 -171 1191 -155Q1191 -138 1178 -112Q1164 -114 1134 -122L1127 -118Q1132 -81 1137 -34V12H1089Q1076 -4 1079 -19Q1087 -75 1089 -118Q1078 -122 1061 -122Q1043 -122 1019 -118Q1025 -134 1037 -170Q1049 -164 1078 -164Q1024 -239 1024 -259Q1024 -264 1044 -302Q1066 -344 1071 -367Q1094 -465 1094 -598Q1094 -654 1021 -762Q1012 -751 993 -708Q970 -657 970 -635Q970 -613 994.5 -564Q1019 -515 1019 -477Q1019 -462 999 -382Q987 -334 987 -283Q987 -197 1027 -29Q1033 44 1047 192Q1048 204 1057.5 242.5Q1067 281 1067 289Q1067 304 1045 322Q1023 340 1005 340Q999 340 980 332Q961 324 952 324Q945 324 894 334.5Q843 345 836 345Q831 345 806.5 342.5Q782 340 770 340L762 345V287Q811 274 859 260Q933 235 933 181Q933 136 897 1Q852 -163 850 -172Q848 -176 844 -182H770Q737 -127 707 -22Q666 121 644 177Q630 229 597 322Q589 340 554 340Q547 340 521.5 332Q496 324 489 324Q484 324 436.5 332Q389 340 382 340Q376 340 358.5 337Q341 334 332 334Q332 334 332 282Q367 273 430 256Q481 243 482 242Q516 229 528 202Q541 171 569 41Q582 -18 627 -177Q607 -181 573 -194L761 -585Q746 -641 714 -750H709Q693 -698 651 -612Q600 -548 474 -469Q370 -407 266 -344V234Q291 251 291 274Q291 278 290 285.5Q289 293 289 296Q289 312 309 321Q303 327 303 339H269Q261 336 247 308Q244 310 225 330Q212 343 198 340Q191 334 186 334V316Q186 309 207.5 275Q229 241 229 234V-350Q191 -383 191 -410Q191 -416 194 -431.5Q197 -447 197 -455Q204 -455 224 -465V-1027Q224 -1033 205 -1052L125 -875Q119 -881 100 -881V-930Q100 -935 104.5 -957Q109 -979 109 -990Q109 -1050 159 -1155Q207 -1255 203 -1298Q205 -1298 207.5 -1301.5Q210 -1305 218 -1305Q239 -1305 254 -1273Q266 -1247 266 -1224Q266 -1198 229 -1099Q266 -1075 266 -1055V-475Q275 -466 288 -466Q319 -466 424 -554Q524 -639 550 -680Q566 -706 590 -796Q613 -879 645 -922Q683 -972 752 -966Q755 -971 755 -998Q755 -1035 707 -1078Q635 -1141 627 -1152Q699 -1209 809 -1248Q707 -1312 707 -1393Q707 -1455 762 -1500Q813 -1541 871 -1541Q941 -1541 990.5 -1491.5Q1040 -1442 1040 -1374Q1040 -1295 944 -1248Q1015 -1228 1061 -1164Q1103 -1105 1103 -1044Q1103 -1030 1105 -958Q1107 -895 1106 -861Q1106 -865 1156.5 -749.5Q1207 -634 1207 -603ZM1013 -1377Q1013 -1434 974 -1475Q932 -1520 868 -1520Q821 -1520 777.5 -1480Q734 -1440 734 -1391Q734 -1341 781.5 -1298.5Q829 -1256 882 -1256Q920 -1256 964 -1291Q1013 -1330 1013 -1377ZM1082 -907V-1007Q1083 -1061 1048 -1128Q1006 -1208 944 -1217Q987 -1171 987 -1119Q987 -1098 985 -1093Q977 -1074 951 -1036Q928 -1003 928 -1000V-875Q946 -875 952 -869Q953 -872 958 -937Q960 -966 989 -966Q1037 -966 1082 -907ZM965 -1119Q965 -1154 930.5 -1191.5Q896 -1229 855 -1229Q779 -1229 691 -1167Q705 -1161 729 -1150V-1132Q717 -1132 699 -1134Q681 -1136 675 -1136Q723 -1107 843 -962Q847 -961 868 -961Q896 -961 906 -967Q904 -982 904 -994Q904 -1031 934.5 -1054Q965 -1077 965 -1119ZM814 -870V-953Q814 -961 801 -977Q785 -997 784 -998V-870ZM240 -1219Q240 -1226 236 -1241.5Q232 -1257 232 -1262Q228 -1251 148 -1075Q161 -1069 178 -1057Q240 -1156 240 -1219ZM1180 -595Q1180 -644 1092 -830Q1038 -944 999 -944H979Q986 -887 980 -842Q926 -849 905 -843V-939Q866 -931 832 -938Q836 -914 836 -888Q836 -861 832 -837Q796 -844 755 -836V-944Q718 -937 671 -916Q645 -878 621 -812Q604 -762 587 -712Q548 -616 337 -456Q320 -449 293 -437Q299 -431 307.5 -419.5Q316 -408 317 -407Q374 -443 485 -508Q589 -566 619 -613Q634 -637 668 -723Q696 -792 720 -810Q741 -741 783 -601H800Q817 -601 941 -633Q956 -679 971 -725Q991 -779 1027 -810Q1035 -800 1075 -719Q1121 -627 1121 -603Q1121 -572 1097 -410Q1095 -396 1084 -355Q1073 -318 1073 -313Q1073 -287 1084 -257H1119Q1136 -272 1136 -299Q1136 -311 1131 -335Q1126 -356 1128 -361Q1180 -543 1180 -595ZM1137 -234Q1117 -230 1101 -230Q1085 -230 1073 -234Q1081 -203 1108 -176Q1121 -210 1137 -234ZM992 -480Q992 -517 953 -600Q909 -599 866 -599Q811 -596 788 -571Q737 -515 688 -398Q650 -301 611 -204H964Q964 -219 962 -263Q961 -303 961 -318Q962 -344 977 -410.5Q992 -477 992 -480ZM163 -1035Q163 -1035 139 -1035V-977Q148 -998 163 -1035ZM1040 289Q1040 283 1030.5 241.5Q1021 200 1020 186Q1016 107 1001 -34Q988 -86 970 -181H874Q887 -119 931 15Q960 104 960 184Q960 252 898 276Q840 293 782 310Q794 318 825 318Q832 318 889.5 307.5Q947 297 954 297Q961 297 981 305Q1001 313 1008 313Q1040 313 1040 289ZM283 -399Q283 -429 253 -429Q218 -429 218 -402Q218 -369 250 -369Q283 -369 283 -399ZM739 -180H660Q617 -62 606 -2Q594 63 569 159Q553 221 525 242Q489 269 435 283Q395 291 355 300Q354 303 353 313H424Q431 313 462.5 305Q494 297 500 297Q507 297 527.5 305Q548 313 554 313Q576 313 582.5 287.5Q589 262 595 236Q623 171 662 69Q677 8 692 -54Q710 -127 739 -180ZM809 -1184Q784 -1159 782 -1159Q774 -1159 766 -1162.5Q758 -1166 756 -1166V-1190Q765 -1196 779 -1208Q785 -1208 809 -1184Z"/>
</svg>