<svg xmlns="http://www.w3.org/2000/svg" viewBox="24.8 -1605.2 1408.5 2031.5">
	<path fill="currentColor" d="M1347 -256Q1312 -257 1261 -253Q1243 -223 1203 -223Q1196 -223 1180 -236Q1164 -249 1157 -249Q1132 -249 1112 -213Q1096 -184 1096 -166Q1096 -159 1122.5 -54Q1149 51 1149 58V215Q1149 221 1160 256Q1171 291 1171 297Q1171 346 1125 346Q1119 346 1091.5 337.5Q1064 329 1058 329Q1051 329 1000.5 340Q950 351 943 351Q938 351 911 348Q884 345 872 345Q868 334 868 320Q868 305 872 293Q968 273 988 262Q1037 236 1037 169Q1037 108 1005 -1Q979 -88 953 -175H879Q850 -132 834 -73Q822 -23 810 27Q787 78 743 183Q734 229 708 322Q700 346 664 346Q657 346 643.5 342Q630 338 626 337Q593 339 546 340H432V288Q463 279 519 267Q609 257 647 166Q651 155 679 26Q693 -40 737 -171Q719 -172 680 -176Q665 -179 652 -199Q640 -216 640 -231Q640 -236 652.5 -261.5Q665 -287 674 -290Q692 -291 727 -293Q871 -561 871 -574Q871 -608 820 -748Q809 -728 792 -686Q769 -606 693 -541Q645 -501 537 -440Q425 -377 382 -342V339H335V-348Q303 -379 303 -410Q303 -447 335 -457V-1084H100V-1127Q209 -1160 267 -1183Q276 -1187 288 -1223Q306 -1277 315 -1320Q320 -1326 334 -1326Q334 -1311 343 -1295Q352 -1302 352 -1321H371Q377 -1290 397 -1212Q415 -1143 415 -1137Q415 -1131 399 -1112Q383 -1093 383 -1089V-462Q387 -458 399 -458Q433 -458 540 -554Q630 -634 649 -661Q674 -695 698 -780Q724 -873 744 -907Q766 -945 818 -952Q860 -958 860 -992Q860 -1016 859 -1017Q823 -1062 731 -1142Q766 -1167 908 -1244Q866 -1264 837 -1310Q812 -1351 812 -1383Q812 -1449 872 -1493Q924 -1530 983 -1530Q1055 -1530 1099.5 -1486Q1144 -1442 1144 -1372Q1144 -1327 1131 -1307Q1113 -1278 1048 -1239Q1106 -1213 1113 -1209Q1151 -1186 1174 -1143Q1192 -1110 1196 -1089Q1214 -1004 1214 -992V-852Q1214 -841 1264 -727Q1290 -668 1316 -609L1257 -345Q1251 -300 1296 -300Q1358 -300 1347 -302ZM1123 -1375Q1123 -1427 1078.5 -1468Q1034 -1509 978 -1509Q931 -1509 888 -1475Q839 -1437 839 -1380Q839 -1328 887.5 -1287Q936 -1246 989 -1246Q1027 -1246 1075 -1289Q1123 -1332 1123 -1375ZM1186 -887V-958Q1189 -1166 1048 -1208Q1096 -1165 1096 -1104Q1096 -1069 1070 -1039Q1035 -998 1033 -993.5Q1031 -989 1031 -949Q1031 -858 1032 -862H1068Q1068 -862 1068 -963H1092Q1157 -962 1186 -887ZM1074 -1104Q1074 -1155 1030 -1189Q990 -1220 940 -1220Q892 -1220 801 -1158Q817 -1153 839 -1137Q836 -1134 834.5 -1127.5Q833 -1121 830 -1118Q822 -1121 805 -1125.5Q788 -1130 780 -1133Q790 -1124 936 -963Q946 -952 975 -952Q998 -952 1010 -958Q1008 -980 1011 -1012Q1018 -1025 1050 -1062Q1074 -1090 1074 -1104ZM918 -861V-950Q909 -962 888 -984V-861ZM1203 -558Q1203 -606 1182 -649Q1156 -701 1131 -753Q1109 -726 1074 -630L1128 -466L1096 -293H1143Q1203 -381 1203 -558ZM388 -1137Q388 -1156 359 -1257Q354 -1231 330 -1177L131 -1108H358Q368 -1107 378 -1117.5Q388 -1128 388 -1137ZM1289 -606Q1289 -627 1222 -773Q1147 -935 1109 -935H1088Q1095 -880 1089 -838H1012Q1010 -862 1010 -885Q1010 -909 1012 -929Q973 -922 941 -929Q950 -876 942 -828Q920 -829 880 -833Q868 -836 861 -843Q858 -907 859 -935H837Q808 -935 772 -895Q740 -859 733 -832Q715 -755 682 -656Q633 -583 539.5 -509.5Q446 -436 399 -430Q418 -411 416 -400Q506 -450 597 -500Q704 -565 750 -653Q769 -700 789 -746Q813 -805 829 -807L893 -593L1052 -625Q1072 -700 1077 -715Q1097 -769 1130 -802Q1143 -784 1184 -705Q1230 -614 1230 -592Q1230 -539 1201 -354Q1199 -344 1187.5 -326.5Q1176 -309 1176 -303Q1176 -249 1208 -249Q1238 -249 1238 -288Q1238 -302 1234 -325Q1230 -345 1231 -348Q1289 -595 1289 -606ZM1101 -469L1057 -597Q1002 -586 894 -563Q847 -471 764 -293H1068ZM1128 -270H685Q667 -253 667 -231Q667 -196 707 -196Q727 -196 740 -208Q766 -232 767 -233L1073 -185Q1091 -231 1128 -270ZM1144 300Q1144 230 1126 69Q1118 -6 1074 -156Q1071 -157 984 -174V-146Q984 -138 996 -110Q1011 -76 1013 -69Q1069 129 1069 201Q1069 251 986 286Q939 301 892 317Q897 317 911.5 320.5Q926 324 932 324Q939 324 998 313.5Q1057 303 1064 303Q1071 303 1087.5 310.5Q1104 318 1110 318H1138Q1138 316 1141 312Q1144 308 1144 300ZM393 -398Q370 -421 359 -421Q329 -421 329 -398Q329 -376 364 -362Q393 -377 393 -398ZM849 -174H770Q740 -126 721 -52Q692 62 690 69Q680 122 670 176Q648 250 578 275Q541 289 460 305Q459 308 459 318H524Q531 318 565 310.5Q599 303 605 303Q612 303 633.5 311Q655 319 662 319Q674 318 692 295Q704 245 727 161Q761 75 808 -75Q813 -102 849 -174ZM913 -1175Q913 -1150 889 -1150Q884 -1150 860 -1162Q870 -1185 883 -1198Q890 -1198 913 -1175Z"/>
</svg>