<svg xmlns="http://www.w3.org/2000/svg" viewBox="0 -2048 2048 2048">
	<path fill="currentColor" d="M1146 -557Q1146 -557 1093 -320Q1091 -311 1100 -284Q1114 -243 1079 -179Q1067 -156 1051 -157H1022Q1043 -210 1040 -242L1015 -216Q1012 -216 1005 -219Q998 -222 995 -222L1032 -525Q1027 -571 964 -690Q962 -690 958 -685Q919 -597 919 -574Q919 -567 943.5 -498.5Q968 -430 968 -423Q968 -416 952 -305.5Q936 -195 936 -188Q936 -205 966 -46Q988 72 989 208Q989 220 1000 258.5Q1011 297 1011 302Q1011 328 954 345Q949 345 932.5 337Q916 329 909 329Q902 329 852 339.5Q802 350 795 350Q798 350 756 344Q730 341 721 350V292Q887 275 887 194Q887 121 855 22Q826 -62 797 -146H734Q712 -110 705 -88Q691 -44 664 47Q657 69 614 167Q581 242 581 284Q581 295 583 305Q564 345 531 345Q524 345 505.5 337Q487 329 480 329Q473 329 429 337Q385 345 378 345Q373 345 351 342Q329 339 317 339Q317 325 317 287Q388 276 413 269Q476 250 503 211Q519 188 533 117Q544 65 554 13Q582 -90 658 -314Q725 -513 725 -517Q725 -528 679 -679Q660 -634 641 -588Q617 -532 588 -507Q531 -458 430 -398Q274 -306 262 -298V251Q262 263 300 326Q294 332 294 345H258Q249 338 237 313Q232 321 217 339H182V316Q182 309 200.5 280.5Q219 252 219 245V-308Q187 -322 187 -364Q187 -405 214 -414V-944Q210 -951 200 -964Q191 -946 157 -860Q133 -797 125 -797Q98 -797 100 -843Q100 -921 113 -973Q135 -1019 179 -1114Q193 -1145 193 -1190Q199 -1190 210 -1201Q257 -1181 257 -1115Q257 -1084 231 -1031Q224 -1003 224 -1013Q224 -1007 237.5 -995.5Q251 -984 251 -978V-424Q260 -415 275 -415Q305 -415 394 -489Q472 -554 492 -581Q529 -631 540 -661Q558 -722 609 -839Q621 -859 657 -872Q708 -890 713 -893Q720 -912 720 -910Q720 -979 596 -1047Q598 -1064 654 -1097Q697 -1122 740 -1146Q746 -1181 745 -1204Q743 -1264 809 -1358Q885 -1465 894 -1496Q897 -1507 923.5 -1526.5Q950 -1546 960 -1546Q975 -1546 993 -1527Q1011 -1508 1011 -1498Q1011 -1494 995.5 -1460.5Q980 -1427 980 -1414Q987 -1365 989 -1268Q988 -1257 946 -1123Q1019 -1063 1035 -948Q1042 -864 1050 -779Q1060 -736 1104 -645Q1146 -560 1146 -557ZM984 -1495Q984 -1519 957 -1519Q935 -1519 924 -1486Q909 -1440 907 -1437Q830 -1338 810 -1305Q763 -1229 763 -1171V-1154Q881 -1156 923 -1137Q953 -1217 960 -1268Q956 -1326 953 -1409Q954 -1427 969 -1459Q984 -1491 984 -1495ZM1021 -835V-925Q1022 -943 1004 -997Q988 -1044 982 -1055Q970 -1075 899 -1120L920 -1083Q936 -1053 936 -1024Q936 -975 882 -925V-793H902Q904 -797 904 -834Q905 -883 930 -883Q950 -883 975 -871Q997 -860 1021 -835ZM914 -1026Q914 -1062 876 -1096.5Q838 -1131 804 -1131Q783 -1131 747 -1119Q750 -1114 758 -1102.5Q766 -1091 769 -1086Q751 -1067 739 -1067Q749 -1067 714 -1071V-1090L730 -1109Q701 -1097 655 -1075Q669 -1068 699 -1058Q697 -1049 690 -1034Q682 -1038 661 -1038Q693 -1007 719 -976Q801 -878 830 -878Q848 -878 855 -885Q854 -895 854 -904Q854 -937 884 -965.5Q914 -994 914 -1026ZM768 -793V-876Q768 -882 743 -905V-793ZM230 -1118Q230 -1140 221 -1158Q210 -1131 185 -1073Q160 -1015 149 -988Q152 -985 161.5 -979Q171 -973 174 -970Q194 -1009 214 -1048Q230 -1080 230 -1118ZM1119 -549Q1119 -569 1058 -699Q997 -829 983 -843Q981 -845 930 -861V-770H854V-856Q841 -852 824 -852Q808 -852 796 -856V-765H734Q713 -765 711 -809Q714 -734 714 -861H690Q628 -836 600 -771Q582 -718 565 -666Q560 -639 541 -597Q362 -391 273 -386Q283 -376 303 -361Q381 -401 530 -492Q589 -535 623 -612Q645 -670 667 -728Q675 -738 680 -733Q680 -733 694 -733Q713 -666 748 -539Q798 -550 889 -573Q905 -619 921 -666Q942 -723 970 -733Q1059 -569 1059 -520Q1059 -470 1041 -326Q1040 -314 1023 -270Q1043 -280 1051 -280Q1071 -280 1073 -259Q1073 -246 1073 -232Q1073 -293 1074 -289Q1071 -302 1071 -317Q1071 -353 1095 -435Q1119 -517 1119 -549ZM941 -420Q941 -476 891 -544Q818 -525 748 -516Q731 -456 682 -313Q640 -191 640 -185V-168H908Q908 -204 910 -272Q911 -298 926 -357.5Q941 -417 941 -420ZM159 -947Q148 -940 140 -948V-900Q151 -931 159 -947ZM984 306V288Q984 281 977 254Q970 227 969 218Q966 153 955 35Q943 -33 913 -144H828Q829 -140 882 31Q914 136 914 197Q914 286 742 316Q751 316 767.5 319.5Q784 323 790 323Q797 323 850.5 312.5Q904 302 911 302Q919 302 937 310Q955 318 960 318Q972 318 984 306ZM273 -354Q237 -372 240 -372Q222 -372 208 -347Q218 -328 243 -328Q253 -330 273 -354ZM698 -144H624Q599 -65 565 72Q550 163 533 201Q499 277 426 288Q395 296 337 310L437 318Q485 302 480 302Q488 302 506.5 310Q525 318 531 318Q546 318 553 311Q553 271 581 198Q620 93 621 90Q668 -73 698 -144Z"/>
</svg>