<svg xmlns="http://www.w3.org/2000/svg" viewBox="0 -2048 2048 2048">
	<path fill="#000000" d="M1222 -617Q1222 -612 1197.5 -485Q1173 -358 1173 -349Q1173 -295 1189.5 -278Q1206 -261 1206 -248Q1206 -228 1162 -158Q1176 -150 1194 -160L1200 -112L1154 -116L1144 -112Q1144 -96 1150 -55.5Q1156 -15 1156 -10V25Q1133 20 1092 20Q1095 -2 1100 -46Q1105 -90 1108 -112Q1101 -116 1083 -116Q1064 -116 1031 -112Q1039 -126 1037 -153Q1055 -159 1086 -159Q1082 -167 1055 -202Q1036 -227 1036 -250Q1036 -255 1055.5 -293.5Q1075 -332 1078 -349Q1107 -510 1107 -579Q1107 -635 1033 -762Q987 -690 987 -634Q987 -627 1011.5 -557Q1036 -487 1036 -480Q1036 -508 1005 -332Q998 -292 998 -193Q998 -196 1018 -125Q1058 17 1058 72V210Q1058 216 1069 255.5Q1080 295 1080 302Q1080 326 1056 341Q1037 354 1017 354Q1010 354 991 346Q972 338 965 338Q958 338 928 346Q898 354 891 354H775L768 348V306Q828 288 888 270Q943 245 943 179Q943 130 913 25Q865 -140 857 -172H777Q716 -16 616 281Q620 295 618 320Q601 354 566 354Q559 354 530 346Q501 338 494 338Q488 338 465 343.5Q442 349 436 349H337Q337 331 336 295Q371 286 404 280Q531 256 576 107Q600 -9 624 -125Q628 -146 638 -186Q774 -570 774 -579Q774 -611 721 -757Q704 -723 693 -682Q670 -595 596 -536Q554 -504 440.5 -446.5Q327 -389 270 -342V246Q293 255 293 275Q293 279 292 286Q292 294 292 298Q292 319 308 334Q308 337 305 344Q302 351 302 354H277Q272 352 245 311Q240 324 224 348H188Q207 304 226 247V-353Q199 -377 199 -415Q199 -457 226 -466V-1032Q222 -1039 212 -1052Q191 -1034 164 -965Q133 -887 126 -877Q100 -881 100 -921Q100 -927 104.5 -949.5Q109 -972 109 -979Q112 -1058 170 -1177Q196 -1230 217 -1315Q270 -1289 270 -1233Q270 -1226 251 -1171.5Q232 -1117 232 -1110Q232 -1104 248 -1086Q264 -1068 264 -1061V-476Q280 -461 295 -461Q317 -461 431 -556Q545 -651 558 -679Q562 -687 595 -800Q621 -892 655 -931Q681 -961 733 -967Q768 -971 768 -1014Q768 -1030 736 -1070.5Q704 -1111 682 -1122Q655 -1135 637 -1141V-1161Q662 -1178 785 -1246Q738 -1254 675 -1245V-1372Q674 -1385 686 -1423Q701 -1468 716 -1468Q726 -1468 748 -1457Q780 -1561 880 -1561Q987 -1561 1023 -1452Q1028 -1457 1044 -1457Q1072 -1457 1080 -1439V-1245Q1027 -1254 981 -1246Q1082 -1185 1104 -1059Q1112 -959 1120 -859Q1128 -809 1175 -713.5Q1222 -618 1222 -617ZM998 -1433Q998 -1477 962 -1508.5Q926 -1540 880 -1540Q830 -1540 800 -1504Q774 -1472 774 -1433Q774 -1393 812 -1364Q847 -1337 886 -1337Q923 -1337 960.5 -1365Q998 -1393 998 -1433ZM1046 -1278Q1052 -1428 1044 -1436Q997 -1369 972 -1347Q930 -1310 872 -1310Q826 -1310 787 -1354Q718 -1434 715 -1436Q702 -1411 703 -1394V-1278ZM1095 -905V-1018Q1096 -1069 1054 -1144Q1006 -1229 954 -1226Q1003 -1161 1003 -1126Q1003 -1102 984 -1065Q965 -1028 944 -1018V-878H975Q973 -889 975 -976H1000Q1057 -975 1095 -905ZM976 -1124Q976 -1154 947 -1193Q913 -1239 869 -1239Q808 -1239 708 -1175Q735 -1162 741 -1149Q738 -1146 736.5 -1141.5Q735 -1137 732 -1134Q712 -1144 697 -1144Q751 -1105 846 -972Q850 -972 863 -968.5Q876 -965 883 -965Q904 -965 916 -972Q912 -988 912 -1001Q912 -1031 944 -1060Q976 -1089 976 -1124ZM822 -873V-963Q822 -967 791 -997V-873ZM243 -1225Q243 -1243 229 -1271Q203 -1207 155 -1082Q158 -1079 167.5 -1072.5Q177 -1066 180 -1063Q183 -1071 222 -1150Q243 -1194 243 -1225ZM1195 -598Q1195 -645 1132 -778Q1077 -893 1052 -925Q1046 -933 998 -948V-849H918Q913 -888 918 -942Q895 -938 879 -938Q862 -938 850 -942V-844H764Q760 -890 765 -948H728Q670 -948 630 -824Q605 -744 580 -663Q546 -611 442 -527Q333 -438 292 -438Q318 -412 319 -412Q353 -412 592 -573Q642 -607 662 -666Q711 -812 724 -812Q731 -812 736 -807L797 -598Q853 -609 959 -632Q976 -740 1034 -806H1044Q1135 -625 1135 -587Q1135 -610 1109 -408Q1111 -392 1111 -360Q1110 -352 1101.5 -335Q1093 -318 1092 -311Q1087 -284 1098 -254Q1151 -260 1151 -306Q1151 -381 1147 -365Q1195 -563 1195 -598ZM1150 -242Q1112 -224 1086 -224Q1098 -206 1121 -171Q1138 -194 1150 -242ZM1009 -483Q1009 -498 964 -603Q939 -599 798 -570Q724 -346 670 -199H976V-339Q976 -346 992.5 -411Q1009 -476 1009 -483ZM165 -1041Q159 -1037 154 -1037Q150 -1037 146 -1041Q146 -1032 143.5 -1009.5Q141 -987 141 -981Q144 -989 153 -1011Q162 -1033 165 -1041ZM1052 310V285Q1052 279 1042.5 242Q1033 205 1032 187Q1031 124 1023 12Q1012 -71 975 -170H889Q898 -117 938 19Q971 128 971 193Q971 257 916 286Q857 305 798 325Q930 325 919 326Q927 325 947 318Q967 311 973 311Q980 311 995 319Q1010 327 1017 327Q1024 327 1036 319Q1048 311 1052 310ZM292 -399Q268 -423 256 -423Q237 -423 221 -399Q232 -368 262 -368Q277 -368 292 -399ZM746 -170H665Q628 -95 614 27Q590 224 485 288Q466 299 424 306Q391 311 358 316Q374 327 393 327Q400 327 449 319Q498 311 505 311Q512 311 535.5 319Q559 327 566 327Q584 327 591 314Q586 274 614 206Q638 150 662 95Q691 -2 746 -170ZM817 -1193Q817 -1186 793 -1162Q781 -1174 763 -1174Q767 -1187 772 -1199.5Q777 -1212 793 -1217Z"/>
</svg>