<svg xmlns="http://www.w3.org/2000/svg" viewBox="0 -2048 2048 2048">
	<path fill="#000000" d="M1497 324Q1491 332 1491 337H379V312Q519 262 613 220L476 -295Q478 -309 489 -354Q498 -395 498 -402Q498 -420 444 -516V-535Q464 -535 477 -532Q490 -529 489 -529Q493 -525 493 -538Q493 -546 248 -1063Q194 -1061 147 -1109Q100 -1157 100 -1207Q100 -1255 144 -1277Q144 -1278 141.5 -1289Q139 -1300 139 -1310Q144 -1310 159.5 -1316Q175 -1322 181 -1322Q186 -1322 207 -1306Q227 -1308 267 -1303Q334 -1276 334 -1180Q334 -1149 327 -1127Q325 -1119 313.5 -1103.5Q302 -1088 302 -1081Q302 -1088 552 -525Q596 -523 616 -500Q624 -478 646 -436Q769 -261 910 -49L958 -585H881Q888 -652 915 -725Q916 -727 966 -819Q1006 -893 1006 -926Q1006 -943 992 -980Q974 -1027 953 -1027H671Q649 -1027 619.5 -1052Q590 -1077 586 -1095Q600 -1117 667 -1129Q720 -1136 774 -1143Q807 -1148 861 -1190Q929 -1242 952.5 -1253.5Q976 -1265 1025 -1269Q1068 -1272 1086 -1287Q1090 -1315 1105 -1572H1124Q1151 -1548 1167 -1503Q1180 -1467 1192 -1431Q1202 -1458 1214 -1544Q1226 -1556 1234 -1556Q1279 -1391 1279 -1365Q1279 -1359 1262.5 -1284.5Q1246 -1210 1246 -1204Q1246 -1199 1268 -1161Q1293 -1118 1299 -1101Q1382 -854 1382 -757V-580H1306V161Q1306 174 1279 215Q1279 215 1497 324ZM1170 -1373Q1170 -1474 1127 -1518V-1483Q1128 -1445 1122 -1368Q1120 -1340 1111 -1284Q1170 -1306 1170 -1373ZM1361 -607V-703Q1361 -822 1282 -1052Q1224 -1221 1224 -1207Q1224 -1214 1238 -1282Q1252 -1350 1252 -1357Q1252 -1408 1233 -1474Q1216 -1417 1199 -1359Q1176 -1291 1133 -1268Q1107 -1254 1059 -1248Q992 -1240 981 -1238Q957 -1232 912 -1195Q860 -1151 854 -1148Q804 -1120 736 -1111Q680 -1103 624 -1096Q680 -1054 687 -1054H948Q981 -1054 1009 -1005Q1033 -961 1033 -928Q1033 -890 992 -808Q965 -755 939 -703Q914 -636 914 -636V-612H972Q1000 -714 1023 -748Q1060 -803 1132 -803Q1211 -803 1252 -751Q1286 -708 1307 -607Q1326 -604 1361 -607ZM307 -1185Q307 -1283 231 -1283Q213 -1283 191 -1272Q181 -1293 166 -1293Q166 -1259 169 -1266Q167 -1264 136 -1238Q121 -1226 121 -1204Q121 -1175 164 -1133.5Q207 -1092 239 -1092Q307 -1092 307 -1185ZM1410 309Q1404 306 1313 267Q1271 249 1246 226Q1284 163 1284 151V-593Q1284 -619 1259 -684Q1230 -757 1206 -768Q1177 -781 1142 -781Q1033 -781 993 -609Q987 -586 971 -413Q963 -298 944 -74Q945 -51 945 -28Q944 2 922 5Q858 -88 734 -267Q702 -317 670 -366Q625 -426 577 -426Q534 -426 517 -371Q510 -330 504 -290L640 231Q618 248 465 309ZM611 -443Q613 -474 568 -492Q532 -508 495 -507H477Q489 -479 511 -432Q575 -448 575 -448Q602 -448 611 -443ZM1055 -1153H985V-1178Q997 -1201 1014 -1201Q1033 -1201 1055 -1178Z"/>
</svg>