<svg xmlns="http://www.w3.org/2000/svg" viewBox="0 -2048 2048 2048">
	<path fill="currentColor" d="M1218 324Q1212 332 1212 337H100V312Q240 262 334 220L197 -295Q199 -309 210 -354Q219 -395 219 -402Q219 -420 165 -516V-535Q175 -535 196.5 -532Q218 -529 220 -529V-1131Q181 -1146 155 -1195Q131 -1240 131 -1285Q131 -1374 209 -1378Q211 -1389 218 -1410L223 -1411Q259 -1418 279 -1379Q298 -1373 332 -1351Q357 -1326 357 -1280Q357 -1212 315 -1166Q297 -1156 273 -1135V-525Q317 -523 337 -500Q345 -478 367 -436Q490 -261 631 -49L679 -585H602Q609 -652 636 -725Q637 -727 687 -819Q727 -893 727 -926Q727 -943 713 -980Q695 -1027 674 -1027H392Q370 -1027 340.5 -1052Q311 -1077 307 -1095Q321 -1117 388 -1129Q441 -1136 495 -1143Q528 -1148 582 -1190Q650 -1242 673.5 -1253.5Q697 -1265 746 -1269Q789 -1272 807 -1287Q811 -1315 826 -1572H845Q872 -1548 888 -1503Q901 -1467 913 -1431Q923 -1458 935 -1544Q947 -1556 955 -1556Q1000 -1391 1000 -1365Q1000 -1359 983.5 -1284.5Q967 -1210 967 -1204Q967 -1199 989 -1161Q1014 -1118 1020 -1101Q1103 -854 1103 -757V-580H1027V161Q1027 174 1000 215Q1000 215 1218 324ZM891 -1373Q891 -1474 848 -1518V-1483Q849 -1445 843 -1368Q841 -1340 832 -1284Q891 -1306 891 -1373ZM1082 -607V-703Q1082 -822 1003 -1052Q945 -1221 945 -1207Q945 -1214 959 -1282Q973 -1350 973 -1357Q973 -1408 954 -1474Q937 -1417 920 -1359Q897 -1291 854 -1268Q828 -1254 780 -1248Q713 -1240 702 -1238Q678 -1232 633 -1195Q581 -1151 575 -1148Q525 -1120 457 -1111Q401 -1103 345 -1096Q401 -1054 408 -1054H669Q702 -1054 730 -1005Q754 -961 754 -928Q754 -890 713 -808Q686 -755 660 -703Q635 -636 635 -636V-612H693Q721 -714 744 -748Q781 -803 853 -803Q932 -803 973 -751Q1007 -708 1028 -607Q1047 -604 1082 -607ZM335 -1284Q335 -1357 250 -1354Q249 -1378 236 -1384Q233 -1372 228 -1358Q205 -1351 180 -1343Q155 -1335 155 -1300Q155 -1256 180 -1213Q209 -1163 250 -1163Q284 -1163 311 -1208Q335 -1248 335 -1284ZM1131 309Q1125 306 1034 267Q992 249 967 226Q1005 163 1005 151V-593Q1005 -619 980 -684Q951 -757 927 -768Q898 -781 863 -781Q754 -781 714 -609Q708 -586 692 -413Q684 -298 665 -74Q666 -51 666 -28Q665 2 643 5Q579 -88 455 -267Q423 -317 391 -366Q346 -426 298 -426Q255 -426 238 -371Q231 -330 225 -290L361 231Q339 248 186 309ZM332 -443Q334 -474 289 -492Q253 -508 216 -507H198Q210 -479 232 -432Q296 -448 296 -448Q323 -448 332 -443ZM776 -1153H706V-1178Q718 -1201 735 -1201Q754 -1201 776 -1178Z"/>
</svg>