<svg xmlns="http://www.w3.org/2000/svg" viewBox="21.2 -1654.8 1849.6 2127.6">
	<path fill="currentColor" d="M1792 -118Q1792 -45 1785 -7Q1768 85 1768 123Q1768 130 1769.5 143.5Q1771 157 1771 164Q1771 238 1711 339Q1686 274 1686 248Q1686 208 1696 175Q1710 151 1730 100Q1744 29 1744 -67Q1744 -96 1732 -145Q1718 -202 1702 -211Q1686 -220 1653 -220Q1643 -220 1537 -138Q1583 -59 1583 -12Q1583 -26 1544 162Q1590 282 1590 308Q1590 334 1574 361Q1556 392 1532 391Q1246 381 1250 381Q1241 381 1225.5 386Q1210 391 1202 391Q1193 391 1170 373Q1167 373 1151 383.5Q1135 394 1129 394Q1123 394 1104 386.5Q1085 379 1079 378Q1072 371 1076 360Q1067 353 1049 336Q1113 304 1130 304Q1136 304 1151 307.5Q1166 311 1173 310L1427 273L1399 245Q1346 264 1218 282Q1138 293 1140 293Q1147 288 1157 281Q1068 287 1080 287Q964 284 959 284Q917 279 854 255Q836 284 793 293Q756 299 720 306Q737 307 739 307Q752 307 779.5 300.5Q807 294 820 294Q826 294 837.5 302Q849 310 852 310Q855 310 861.5 308.5Q868 307 871 307Q884 307 901 322L910 324Q926 339 963 385Q909 394 895 394Q889 394 875 389Q861 384 856 383Q844 381 818 381Q802 381 486 391Q468 392 454 361Q442 335 442 314Q442 278 471 263Q547 223 651 195Q637 180 612 179Q591 178 569 178Q468 168 386 168Q378 168 329 252Q299 303 269 354Q260 355 251 346L250 348Q219 394 150 394H121Q122 380 128 369Q123 369 100 374Q108 346 133 304Q157 293 200 263Q219 242 272 162Q314 97 353 69H541Q535 59 528 38Q527 13 508 -37Q508 -37 418 -37Q401 -37 372.5 -29.5Q344 -22 331 -22Q285 -22 244 -61Q234 -70 234 -94Q234 -138 249 -151Q272 -166 295 -181Q299 -184 316 -210Q325 -224 349 -236.5Q373 -249 381 -258Q365 -267 335 -287Q280 -326 280 -411Q280 -466 332 -530L345 -520Q343 -490 335 -430Q331 -407 331 -403Q331 -383 348 -359Q353 -352 388.5 -330Q424 -308 432 -308Q436 -308 444 -309.5Q452 -311 456 -311Q465 -311 483 -306Q501 -301 510 -301Q551 -301 582 -367Q588 -379 621 -522Q645 -465 645 -438Q645 -339 601 -286Q614 -285 640 -283L632 -297V-321Q636 -319 659 -306V-773L657 -772Q642 -780 620 -797V-799Q619 -802 619 -808Q619 -817 629 -833L611 -851Q638 -864 655 -866V-1505Q662 -1505 675 -1503.5Q688 -1502 695 -1502V-872Q720 -870 719 -870Q736 -870 831.5 -944Q927 -1018 940 -1040Q964 -1079 983 -1151Q1007 -1239 1018 -1265Q1040 -1318 1135 -1319Q1137 -1331 1137 -1357Q1137 -1360 1136 -1364Q1110 -1409 1077 -1438Q1052 -1451 1009 -1474Q1039 -1505 1041 -1507Q1054 -1517 1084 -1524Q1086 -1524 1131 -1552Q1170 -1576 1211 -1576Q1308 -1576 1347 -1553Q1390 -1528 1433 -1439Q1455 -1393 1455 -1332Q1455 -1217 1451 -1215Q1469 -1194 1533 -1045Q1534 -1042 1544 -1005L1495 -770Q1510 -708 1510 -724Q1510 -705 1490 -666Q1468 -624 1452 -624H1429V-641Q1429 -646 1441 -670.5Q1453 -695 1453 -709Q1453 -716 1451 -721Q1444 -717 1442 -682Q1406 -685 1398 -691Q1400 -707 1405 -740Q1410 -749 1418 -769.5Q1426 -790 1426 -860Q1426 -885 1435 -933Q1444 -981 1444 -999Q1444 -1004 1373 -1138Q1333 -1059 1333 -1019Q1333 -987 1354.5 -950Q1376 -913 1376 -887Q1376 -865 1358 -801Q1345 -755 1345 -648Q1345 -639 1383 -469Q1398 -402 1398 -278Q1398 -265 1407 -239Q1416 -213 1416 -199Q1416 -192 1413 -183Q1460 -178 1494 -178Q1500 -178 1560 -226Q1620 -274 1644 -274Q1712 -274 1745 -241Q1774 -212 1790 -142Q1792 -133 1792 -118ZM1432 -1332Q1432 -1332 1429 -1347Q1427 -1355 1427 -1366Q1425 -1435 1377 -1500Q1352 -1535 1298 -1543Q1345 -1503 1345 -1453Q1345 -1419 1331 -1399Q1330 -1397 1293 -1357V-1234H1321Q1319 -1260 1316 -1312L1325 -1322H1352Q1364 -1322 1365 -1315Q1404 -1303 1428 -1263Q1428 -1274 1430 -1297Q1432 -1320 1432 -1332ZM1319 -1428V-1468Q1319 -1495 1285.5 -1524Q1252 -1553 1225 -1553Q1174 -1553 1142 -1532Q1103 -1505 1084 -1501Q1077 -1500 1065 -1496Q1089 -1492 1107 -1482Q1113 -1479 1113 -1464Q1103 -1464 1086.5 -1468Q1070 -1472 1062 -1473Q1091 -1461 1122 -1414Q1147 -1376 1207 -1318Q1215 -1310 1239 -1310Q1244 -1310 1267 -1318Q1267 -1352 1268 -1365Q1319 -1422 1319 -1428ZM1187 -1231V-1287Q1187 -1311 1162 -1338V-1231ZM1520 -1002Q1485 -1138 1395 -1274Q1381 -1296 1340 -1296Q1341 -1269 1344 -1216Q1333 -1207 1306 -1207Q1277 -1207 1267 -1217V-1294Q1248 -1287 1236 -1287Q1229 -1287 1209 -1293Q1210 -1267 1213 -1214L1204 -1204Q1195 -1204 1177 -1204Q1159 -1205 1150 -1205Q1146 -1205 1135 -1193V-1296H1117Q1096 -1296 1071 -1283Q1043 -1269 1037 -1251Q1011 -1160 961 -1030Q945 -1004 836 -926Q806 -903 775 -879Q731 -847 712 -847Q724 -838 728 -818Q754 -830 805 -858Q900 -910 1010 -989Q1028 -1018 1054 -1087Q1067 -1123 1096 -1194L1160 -987L1306 -1016Q1306 -1048 1325 -1092Q1341 -1128 1358 -1164Q1361 -1173 1376 -1177L1468 -1001L1446 -842Q1445 -836 1447 -824Q1449 -809 1449 -805Q1449 -779 1439 -757Q1427 -731 1425 -720Q1439 -745 1460 -745Q1469 -745 1474 -738Q1474 -733 1475.5 -723.5Q1477 -714 1477 -709Q1477 -694 1470 -674Q1484 -698 1484 -722Q1484 -732 1471 -768ZM1353 -887Q1353 -902 1335 -939Q1322 -966 1309 -992Q1261 -984 1165 -964Q1138 -874 1073 -697Q1067 -678 1053 -640H1319Q1320 -672 1323 -736Q1324 -760 1339 -813Q1353 -863 1353 -887ZM1392 -217Q1392 -226 1383 -248Q1374 -270 1374 -280V-367Q1374 -412 1357 -481Q1333 -576 1330 -595Q1328 -605 1321 -617H1237Q1241 -592 1263 -539Q1268 -532 1274 -517Q1315 -348 1315 -293Q1315 -287 1318 -276Q1321 -265 1321 -259Q1321 -229 1266 -197Q1254 -194 1232 -186Q1212 -175 1170 -155L1171 -149H1177Q1220 -149 1277 -168Q1283 -170 1301 -182.5Q1319 -195 1324 -195Q1331 -195 1346 -188.5Q1361 -182 1367 -182Q1392 -182 1392 -217ZM1144 -970L1094 -1132Q1079 -1083 1038 -990Q1003 -933 762 -812Q744 -798 707 -773V-311Q720 -320 725 -320Q738 -320 738 -312Q727 -286 704 -233Q727 -229 742 -225Q740 -252 765 -252Q774 -252 791 -249Q808 -246 816 -246Q878 -246 922 -291Q927 -296 932 -315Q941 -328 954 -355Q974 -426 991 -517Q992 -538 999 -579Q1032 -653 1092 -802Q1109 -858 1144 -970ZM1295 -261Q1295 -303 1287 -375Q1280 -397 1268 -441Q1265 -466 1251 -514Q1233 -553 1213 -617H1209Q1198 -617 1177 -615Q1156 -613 1147 -613Q1142 -606 1125 -580Q1104 -549 1101 -521Q1094 -465 1093 -460Q1085 -428 1040 -324Q1003 -241 1003 -188Q1003 -169 989 -155Q1012 -146 1016 -146H1147V-151Q1147 -157 1144 -164Q1207 -204 1234 -212Q1295 -229 1295 -261ZM1744 131Q1709 204 1709 248Q1709 247 1716 279Q1739 230 1743 186Q1743 168 1744 131ZM705 -814Q705 -835 689 -835Q645 -835 645 -811Q645 -787 672 -787H689Q705 -787 705 -814ZM1118 -614H1043Q1025 -585 1014 -515Q999 -417 974 -343Q965 -331 951 -304Q949 -295 942 -280Q893 -220 768 -223V-218Q873 -191 871 -191Q876 -191 885.5 -193Q895 -195 900 -195Q913 -195 928 -181Q943 -167 956 -167Q977 -167 977 -200.5Q977 -234 1008 -307Q1032 -358 1070 -462Q1083 -512 1083 -541Q1083 -561 1118 -614ZM1766 -118Q1766 -251 1648 -251Q1629 -251 1570.5 -203.5Q1512 -156 1496 -156Q1484 -156 1459 -157.5Q1434 -159 1422 -159Q1358 -159 1237.5 -138.5Q1117 -118 1053 -118Q1035 -118 1008 -126Q974 -136 963 -138Q917 -145 842 -169Q747 -200 721 -206Q665 -220 667 -220Q659 -220 641 -219Q623 -218 613 -218Q573 -199 563 -199Q549 -199 549 -205Q549 -212 589 -230Q601 -235 619 -261Q630 -263 603 -263Q594 -263 570 -241Q543 -216 536 -212V-229L541 -240L526 -254Q618 -318 622 -416Q603 -338 563 -305Q542 -289 520 -273Q518 -265 505 -248L493 -261Q498 -275 498 -282Q473 -287 445 -287Q430 -287 419 -272Q408 -254 367 -220Q353 -214 324 -183Q316 -169 274 -139Q257 -127 257 -119Q257 -102 291 -77L285 -127L336 -110Q322 -96 311 -97Q310 -90 294 -74Q310 -63 328 -63Q335 -63 347 -68Q359 -73 363 -73Q368 -73 376 -61L362 -51Q369 -52 387 -56Q405 -60 414 -60Q425 -60 447.5 -58.5Q470 -57 481 -57Q529 -57 547 -71Q569 -91 592 -111Q599 -104 599 -98Q595 -83 572 -64Q549 -45 533 -41Q537 -33 551 33Q568 112 655 169V168Q655 163 651.5 152.5Q648 142 647 138Q644 111 644 83Q644 71 645.5 48Q647 25 647 14Q652 8 663 8H667Q666 -2 666 92Q666 115 673 153Q682 197 683 213Q465 257 465 314Q465 369 490 368L840 356Q845 356 859 360Q845 344 837 329Q818 318 817 318Q696 335 607 330Q597 321 597 312Q614 303 720 286Q816 270 827 254Q832 247 849 178H856Q863 178 869 185Q867 202 861 235Q901 248 952 261L1126 264Q1137 264 1160 258Q1183 252 1194 252Q1206 252 1214 261Q1255 261 1380 229Q1366 216 1342 187Q1291 108 1291 81Q1291 69 1300 69Q1301 69 1304 70Q1325 112 1363 177Q1408 220 1461 282Q1462 290 1454 294L1173 333Q1187 333 1149 330Q1189 365 1207 365Q1210 365 1225 361Q1232 359 1264 359Q1307 359 1393.5 363.5Q1480 368 1523 368Q1566 368 1566 309Q1566 282 1548 236Q1534 199 1520 163L1560 -9Q1560 -32 1540 -77Q1512 -140 1510 -146Q1635 -243 1651 -243Q1692 -243 1712 -232Q1746 -213 1765 -82Q1766 -114 1766 -118ZM695 -276L690 -275L684 -281Q682 -275 676 -269Q681 -258 685 -253Q688 -261 695 -276ZM663 -243L650 -264Q648 -259 634 -243ZM1148 360L1134 346Q1124 357 1112 364Q1118 367 1129 371Q1136 367 1148 360ZM1122 335Q1118 332 1115 330Q1114 330 1088 342Q1097 346 1097 346Q1088 346 1122 335ZM406 -294Q340 -327 327 -348Q307 -380 307 -400Q307 -401 314 -458Q306 -441 306 -424Q306 -357 319 -335.5Q332 -314 391 -279ZM920 369Q913 361 906 352H883Q900 371 904 371Q906 371 911.5 370Q917 369 920 369ZM597 155Q568 126 551 92H365Q349 92 294 169Q261 218 227 267Q207 293 170 311Q189 324 223 344Q229 330 254 315L260 322Q293 262 363 157Q371 147 391 147Q381 147 597 155ZM207 362Q197 356 176 344Q169 351 154 370H157Q193 370 207 362ZM156 330L147 326Q139 338 135 346H145Q153 337 156 330ZM1180 -1513Q1180 -1489 1158 -1489Q1147 -1489 1133 -1503Q1133 -1530 1156 -1530Q1163 -1530 1180 -1513ZM499 -163Q477 -163 472 -165H468Q465 -159 456 -159Q447 -159 425 -170Q429 -180 452 -203Q473 -189 499 -163Z"/>
</svg>