<svg xmlns="http://www.w3.org/2000/svg" viewBox="24.6 -1594.4 1960.9 2036.9">
	<path fill="currentColor" d="M1910 -1126Q1910 -1095 1856 -1063V360H1798V-1018Q1753 -953 1709 -888Q1647 -803 1587 -752Q1595 -746 1616 -759Q1619 -759 1635 -742V-723Q1608 -714 1587 -708Q1614 -653 1630 -605Q1613 -601 1583 -593Q1581 -598 1571 -653Q1564 -695 1555 -695Q1549 -695 1530 -684Q1509 -670 1502 -668Q1498 -676 1485 -715Q1498 -715 1528 -725Q1526 -727 1511 -727Q1501 -727 1396 -702Q1366 -697 1311 -677Q1188 -606 1188 -334L1226 76Q1226 103 1214 146Q1198 199 1177 213Q1214 240 1289 290Q1313 304 1356 312Q1390 318 1425 324V349Q1409 367 1374 367Q1367 367 1238 340Q1109 313 1102 313L617 367Q547 367 517 360Q508 358 482.5 346Q457 334 450 334Q443 334 392 350.5Q341 367 334 367Q328 367 313.5 364Q299 361 290 361Q289 359 289 308Q328 299 367 289Q410 277 416 255Q421 227 441 174Q468 133 536 94Q524 69 487 -53Q445 -192 445 -232Q445 -339 536 -339Q612 -339 702 -250Q781 -162 861 -75Q886 -191 886 -302Q886 -677 566 -718Q536 -728 470 -749Q460 -739 460 -737Q474 -734 498 -726Q486 -678 486 -674Q457 -698 432 -706Q422 -672 411 -593Q394 -598 348 -621Q364 -651 402 -713Q384 -718 337 -717Q346 -738 360 -775Q384 -763 402 -763Q351 -813 289 -901Q234 -981 178 -1061V366H133V-1079Q100 -1107 100 -1118Q100 -1123 166 -1313Q172 -1332 205 -1355Q226 -1370 246 -1385Q257 -1404 279 -1437Q318 -1494 409 -1512Q444 -1519 477 -1519Q507 -1519 551 -1508Q554 -1502 558 -1495Q538 -1452 457 -1391.5Q376 -1331 334 -1331Q328 -1331 317 -1336Q306 -1341 299 -1341Q216 -1341 175 -1210Q193 -1201 221 -1179Q223 -1161 235 -1130Q316 -1047 451 -888Q477 -851 501 -851Q564 -851 619 -845.5Q674 -840 716 -840Q784 -840 914 -849L919 -879Q884 -888 840 -890Q822 -901 824 -925Q826 -962 825 -966Q819 -978 791 -985Q768 -991 768 -1010Q768 -1016 809 -1092Q825 -1130 840 -1167Q860 -1212 897 -1236.5Q934 -1261 983 -1261Q1064 -1261 1112 -1220Q1173 -1168 1187 -1040Q1188 -1031 1193 -843H1487Q1492 -850 1507 -865Q1515 -866 1529 -868Q1592 -934 1709 -1066Q1732 -1094 1772 -1162Q1782 -1167 1803 -1183Q1806 -1210 1790 -1263Q1785 -1280 1749.5 -1316Q1714 -1352 1700 -1352Q1701 -1352 1682 -1338Q1678 -1338 1664.5 -1334.5Q1651 -1331 1643 -1331Q1588 -1331 1514 -1384Q1432 -1442 1420 -1507Q1438 -1519 1474 -1519Q1580 -1519 1672 -1463Q1689 -1453 1708 -1427Q1710 -1417 1717 -1399Q1723 -1390 1774 -1361Q1833 -1328 1849 -1269Q1851 -1250 1858 -1216Q1868 -1200 1881 -1167Q1888 -1165 1902 -1152Q1910 -1139 1910 -1126ZM1831 -1224L1826 -1270H1816L1822 -1224ZM1689 -1395Q1689 -1424 1670 -1433Q1647 -1410 1647 -1397V-1358H1666Q1689 -1374 1689 -1395ZM1646 -1447Q1565 -1493 1530 -1492H1453Q1469 -1447 1531 -1404Q1589 -1364 1624 -1364Q1604 -1400 1646 -1447ZM1883 -1123Q1883 -1147 1851 -1147Q1813 -1147 1813 -1115Q1813 -1088 1843 -1088Q1852 -1088 1867.5 -1098Q1883 -1108 1883 -1123ZM1808 -1075Q1808 -1072 1784 -1120L1522 -819Q1550 -770 1557 -770Q1593 -770 1682 -887Q1740 -965 1776 -1025Q1808 -1079 1808 -1075ZM1166 -803V-1011Q1166 -1085 1129 -1149Q1080 -1234 989 -1234Q889 -1234 849 -1122Q993 -1104 983 -1104Q990 -1104 1002 -1112.5Q1014 -1121 1021 -1121Q1075 -1121 1075 -1064Q1075 -1042 1043 -1022V-803ZM520 -1491Q512 -1491 493.5 -1494.5Q475 -1498 469 -1498Q436 -1498 391 -1486Q333 -1470 326 -1446Q354 -1410 354 -1363Q431 -1389 520 -1491ZM326 -1364V-1404Q327 -1427 300 -1427Q291 -1405 278 -1369Q287 -1369 304 -1366.5Q321 -1364 326 -1364ZM1506 -750Q1491 -770 1478 -815H1189Q1189 -785 1184 -776H1015V-1025Q1036 -1045 1048 -1070Q1025 -1093 1017 -1093Q1006 -1074 992 -1077L862 -1094Q847 -1094 839 -1091Q833 -1076 815 -1045Q800 -1021 800 -1015Q800 -1005 847 -987Q850 -954 849 -917Q882 -912 941 -901L937 -813L934 -820Q891 -822 805 -818Q709 -813 719 -813Q662 -813 510 -829Q510 -817 493 -766Q548 -748 587 -739Q611 -733 652 -723Q778 -698 852 -557Q913 -443 913 -326Q913 -220 882 -55Q981 -68 1177 -98V-138Q1177 -144 1171 -209Q1165 -282 1163 -315Q1163 -325 1170 -433Q1173 -477 1179 -514Q1198 -631 1268 -677Q1295 -695 1359 -712Q1408 -726 1506 -750ZM197 -1126Q197 -1135 181 -1144Q165 -1153 154 -1153Q139 -1153 135 -1143Q131 -1133 127 -1122Q169 -1094 175 -1094Q183 -1094 186 -1097Q189 -1100 191 -1100Q191 -1105 194 -1112Q197 -1119 197 -1126ZM471 -828Q447 -838 424 -877Q390 -936 385 -942Q342 -996 215 -1110Q215 -1105 208.5 -1095.5Q202 -1086 202 -1080Q202 -1067 274 -965Q336 -878 366 -841Q413 -784 449 -781Q457 -799 471 -828ZM849 -45Q796 -110 743 -174Q672 -256 624 -280Q597 -231 564 -230L656 27Q726 -2 849 -45ZM1199 70Q1199 68 1182 -69H1154Q1147 -69 1127 -65Q1104 -59 1099 -59Q725 -26 499 160Q521 168 587 237Q593 237 621 228Q649 219 658 218Q798 194 865 194Q872 194 990 210Q1108 226 1115 226Q1154 226 1179 159Q1199 108 1199 70ZM633 42L536 -237Q538 -241 574 -268Q604 -291 600 -301Q532 -318 539 -318Q506 -318 486 -293Q466 -268 466 -237Q466 -198 510 -61Q549 61 560 81Q587 66 633 42ZM1393 344Q1388 342 1340 335Q1306 331 1268 306Q1258 300 1218 268Q1187 243 1180 243Q1174 243 1161 248Q1148 253 1142 253Q1135 253 1010 234.5Q885 216 878 216Q709 216 572 270Q554 244 536 218Q506 178 477 178Q461 178 449 207Q439 230 439 245Q439 296 499 323Q546 345 604 345L1083 291Q1153 291 1210.5 306Q1268 321 1325 336Q1364 344 1364 344ZM434 311Q414 291 409 291Q376 308 310 331L351 340Q364 335 392.5 325.5Q421 316 434 311ZM913 -1014Q903 -1014 882.5 -1016.5Q862 -1019 850 -1019V-1055Q908 -1055 908 -1055Q908 -1024 913 -1014Z"/>
</svg>