<svg xmlns="http://www.w3.org/2000/svg" viewBox="0 0 1000 1000">
  <g transform="scale(1,-1) translate(0,-1000)">
    <path d="M308 40Q292 45 286 79Q286 79 286 102Q286 113 311.0 142.5Q336 172 374 205Q365 214 345.0 232.0Q325 250 319 256Q310 236 300.5 191.5Q291 147 285.5 113.5Q280 80 280 77V61Q280 44 264 40ZM569 40Q564 45 564 56Q564 63 567.0 83.5Q570 104 570 113Q570 138 554 138Q545 138 514.0 122.0Q483 106 429.5 81.0Q376 56 322 40ZM93 671Q91 533 89 331Q87 187 86 59Q86 45 74 40H114Q102 44 102 60Q102 70 113 75Q129 82 153.5 88.0Q178 94 195 108Q210 121 216 148Q217 156 221 167Q228 191 234.0 259.5Q240 328 262 369Q272 388 294 388Q318 388 340 373Q341 372 344.5 370.5Q348 369 351 367Q467 276 467.0 276.0Q467 276 474 280Q474 297 475.0 314.5Q476 332 476 338Q476 353 474 365Q469 396 462.5 418.5Q456 441 451.5 450.5Q447 460 435.5 478.5Q424 497 418 507L226 530Q225 530 224.0 529.5Q223 529 222 529Q219 529 217.0 530.5Q215 532 212.5 535.5Q210 539 209 540L98 659Q97 661 95.5 665.0Q94 669 93 671ZM496 160Q513 168 527.5 177.5Q542 187 556.5 197.0Q571 207 574 209Q574 218 574.5 228.0Q575 238 575 240Q575 248 574.5 258.5Q574 269 574 290Q574 290 571 288Q389 178 319 98Q316 95 316 88Q316 78 321 78Q332 78 496 160ZM294 356Q288 356 286 351Q273 316 265.0 254.5Q257 193 248 158Q248 155 246.0 149.0Q244 143 244 140Q243 134 241.5 124.0Q240 114 239.5 108.5Q239 103 234.5 95.5Q230 88 223 82Q215 76 181 63Q185 63 199.0 63.5Q213 64 218.0 64.0Q223 64 232.5 63.0Q242 62 245 62Q251 62 252 63Q252 67 251.5 71.0Q251 75 251 77Q251 80 253 88Q263 120 272.5 180.5Q282 241 291 263Q303 294 316 294Q325 294 327 290Q342 278 372 243Q375 239 381.5 231.5Q388 224 392 220Q394 221 396.5 223.0Q399 225 400 226Q405 229 414.0 236.0Q423 243 427 246L428 247L441 258L328 344Q306 356 294 356ZM633 535Q606 415 606 253V210Q606 209 606.5 207.5Q607 206 607 205Q607 199 606.5 186.0Q606 173 606 166Q616 148 616 118Q616 74 598 43Q598 42 596 40H929Q918 45 918 58Q917 200 915 333Q913 629 911 701Q908 698 907 696L829 581Q823 572 817 570Q813 569 809.5 568.0Q806 567 795.5 565.5Q785 564 769.0 561.0Q753 558 717.0 551.5Q681 545 633 535ZM453.5 848.5Q475 827 506.0 827.0Q537 827 558.0 848.5Q579 870 579.0 901.0Q579 932 558.0 953.0Q537 974 506.0 974.0Q475 974 453.5 953.0Q432 932 432.0 901.0Q432 870 453.5 848.5ZM471 730Q484 730 484 712Q484 701 471 701Q454 701 454 712Q454 730 471 730ZM473 771Q495 768 517.0 752.0Q539 736 539 710V694Q539 679 554 671Q571 701 571 717Q571 743 552.5 763.0Q534 783 506 783Q488 783 473 771ZM532 654V658Q518 670 518 694Q518 697 518.5 702.0Q519 707 519 710Q519 723 506.0 732.5Q493 742 480 745L467 748Q464 748 458.5 746.5Q453 745 449 745Q438 728 438 707Q438 703 440 687Q442 678 463.0 659.5Q484 641 484 617Q484 607 482.0 600.5Q480 594 471.0 582.5Q462 571 443 555Q450 539 462.0 513.5Q474 488 478.5 476.5Q483 465 490.0 437.0Q497 409 503 366Q506 346 506 339Q506 335 505.0 321.5Q504 308 504 295Q515 300 537.5 314.5Q560 329 573 335Q576 381 583.5 438.0Q591 495 596.5 529.5Q602 564 604 572Q603 573 594.5 577.5Q586 582 579.0 587.5Q572 593 562.5 601.5Q553 610 545.0 623.5Q537 637 532 654ZM628 588 796 621 881 709Q882 710 883.0 712.5Q884 715 885.0 721.5Q886 728 885 734Q888 797 906 797H909Q908 808 907.5 829.0Q907 850 907 861Q906 897 880 923Q842 961 789 961Q771 961 754.0 958.0Q737 955 711.5 949.5Q686 944 666 941Q643 937 635 936H632Q624 936 618.0 942.0Q612 948 612 956Q612 972 629 975Q633 976 660 980Q681 983 710.0 989.0Q739 995 757.0 997.5Q775 1000 794 1000Q860 1000 909 951Q946 914 947 862Q953 641 955 333Q956 271 956.5 220.5Q957 170 957.0 141.5Q957 113 957.5 93.5Q958 74 958 66V58Q958 45 947 40H980Q988 40 994.0 34.0Q1000 28 1000.0 20.0Q1000 12 994.0 6.0Q988 0 980 0H20Q12 0 6.0 6.0Q0 12 0.0 20.0Q0 28 6.0 34.0Q12 40 20 40H58Q46 45 46 59Q46 59 46.0 66.5Q46 74 46.5 93.0Q47 112 47.0 140.0Q47 168 47.5 218.5Q48 269 49 331Q51 639 57 860Q58 912 95 949Q144 998 220 998Q262 998 353 983Q384 978 384 978Q400 975 400 959Q400 951 394.0 945.0Q388 939 380 939H377Q369 940 346 944Q248 960 224 960Q162 960 123 921Q98 896 97 858Q97 846 96.5 821.5Q96 797 95 785Q113 773 122 734Q126 715 141 665L242 580L390 564Q407 566 422 572Q437 579 448.5 595.0Q460 611 460 617Q460 627 453.0 634.5Q446 642 437.0 647.5Q428 653 421.0 668.5Q414 684 414 707Q414 738 433.5 766.0Q453 794 480 805Q447 813 426.5 839.5Q406 866 406 901Q406 942 435.5 971.0Q465 1000 506.0 1000.0Q547 1000 576.0 971.0Q605 942 605 901Q605 867 585.0 840.5Q565 814 534 805Q562 796 578.0 770.5Q594 745 594 717Q594 704 590.0 692.0Q586 680 577.0 663.0Q568 646 567 643Q575 627 590.0 613.5Q605 600 615.5 594.0Q626 588 628 588Z" fill="currentColor"/>
  </g>
</svg>