<svg xmlns="http://www.w3.org/2000/svg" viewBox="0 -2048 2048 2048">
	<path fill="currentColor" d="M1320 362H103L343 249L193 -207Q195 -229 197 -250Q199 -271 218 -289Q208 -309 184 -365V-384L221 -381Q226 -392 226 -533Q226 -545 227.5 -568Q229 -591 229 -603Q165 -664 157 -664Q154 -664 109 -633L100 -644Q123 -661 154 -691Q171 -717 184 -797Q196 -867 196 -910Q196 -942 180 -995H324Q308 -923 308 -901Q308 -864 324 -786Q342 -702 358 -679Q389 -657 429 -628L421 -618L345 -659Q323 -642 281 -607Q284 -529 303 -374Q337 -347 344 -328Q353 -304 360 -296Q423 -226 527 -136Q616 -62 704 13Q706 -1 706 -81Q706 -91 715 -508Q715 -509 720 -530Q695 -534 630 -534Q623 -547 623 -572Q623 -692 671 -772Q696 -813 805 -928Q784 -938 740 -938H709Q673 -938 578 -890Q483 -842 452 -842Q444 -842 419 -859L390 -844Q373 -850 339 -865Q409 -981 527 -1067Q653 -1159 779 -1174L821 -1548L932 -1531L858 -1180Q875 -1176 904 -1171L901 -1172L1040 -1528L1145 -1493L963 -1157L965 -1156Q1069 -1104 1116 -1027Q1195 -897 1195 -526H1106L1120 -339Q1127 -245 1127 -245V135Q1127 151 1122.5 182Q1118 213 1118 229V239Q1144 255 1320 362ZM1117 -1479Q1105 -1485 1058 -1502L915 -1169Q925 -1167 945 -1163ZM910 -1510Q887 -1517 841 -1525L794 -1175Q812 -1176 836 -1177ZM1172 -551V-557Q1172 -579 1169 -615Q1165 -657 1164 -672Q1153 -924 1095 -1017Q1023 -1133 901 -1149Q841 -1157 848 -1157Q714 -1157 578 -1072Q451 -993 371 -874Q385 -868 390 -868Q396 -868 405 -876Q439 -906 511 -962Q519 -955 519 -949Q519 -943 482 -914Q442 -882 437 -875L454 -865Q476 -865 514 -884Q544 -899 573 -914Q610 -926 680 -954Q698 -963 697 -963H771Q785 -963 807.5 -953Q830 -943 830 -931Q830 -926 775 -868Q647 -734 647 -589V-555Q657 -556 673 -556Q693 -556 721 -554Q723 -580 734 -630Q766 -712 816 -740Q858 -762 948 -762Q957 -762 963 -760Q1028 -739 1045 -717Q1081 -670 1100 -551ZM330 -692Q285 -823 285 -903Q285 -914 298 -969H210Q219 -944 219 -913Q219 -812 182 -698Q217 -711 246 -711Q277 -711 330 -692ZM1240 339L1096 251Q1101 177 1101 137V-257Q1101 -355 1085 -506Q1075 -596 1024 -706Q962 -736 920 -736Q843 -736 807 -709Q741 -659 741 -509V-320Q741 -311 738 -293.5Q735 -276 735 -268Q733 -166 725 39Q721 49 710 48Q316 -296 314 -296Q264 -296 222 -260Q219 -241 213 -204L369 260L196 339ZM320 -671Q288 -685 258 -685H223Q213 -685 180 -673Q203 -656 226 -638Q252 -616 252 -589Q252 -600 243 -381Q258 -382 278 -381L258 -613Q257 -621 320 -671ZM330 -313Q306 -361 228 -361Q222 -361 210 -360Q219 -335 230 -299Q258 -319 316 -319Q321 -319 330 -313ZM698 -1068Q682 -1055 666.5 -1042.5Q651 -1030 627 -1030Q621 -1030 606 -1031Q592 -1031 585 -1031Q618 -1056 643 -1088Q673 -1081 698 -1068Z"/>
</svg>