<svg xmlns="http://www.w3.org/2000/svg" viewBox="0 -2048 2048 2048">
	<path fill="currentColor" d="M880 -498Q880 -494 860 -406Q837 -305 828 -247Q832 -230 834 -197Q828 -150 795 -94Q779 -100 752 -112Q767 -166 765 -189Q760 -180 744 -166H726Q718 -174 718 -189Q718 -190 759 -281Q761 -316 768 -400Q774 -472 774 -479Q774 -501 714 -679H710Q691 -588 691 -537Q691 -530 702 -469Q713 -408 713 -401Q713 -394 702 -324Q691 -254 691 -247Q691 -190 714 -17Q736 159 737 233Q737 244 747 269Q757 294 757 299V346Q735 358 716 358Q709 358 686.5 352.5Q664 347 657 347Q651 347 618 352.5Q585 358 579 358Q573 358 550.5 355.5Q528 353 519 353L512 346V308Q577 287 591 280Q644 253 646 213L552 -178H533Q497 -131 441 -34Q436 3 420 72Q392 136 340 267Q337 290 333 314Q323 358 303 358Q297 358 279 350Q261 342 253 342Q246 342 230 350Q214 358 207 358H100Q100 358 100 298Q156 292 178 284Q219 269 248 231Q280 189 296 93Q308 21 329 -47Q348 -91 382 -181Q405 -252 437 -378Q467 -494 467 -507Q467 -550 441 -680Q388 -623 336 -565Q265 -490 222 -490Q160 -490 160 -565Q160 -642 248 -812Q262 -854 302 -935Q327 -972 417 -1012Q405 -1030 408 -1052Q412 -1057 489 -1158Q537 -1222 562 -1219Q537 -1226 495 -1226Q489 -1226 470 -1223.5Q451 -1221 442 -1221Q404 -1221 394 -1245Q389 -1257 389 -1299Q389 -1337 396 -1365L435 -1360Q444 -1380 456 -1440Q452 -1444 430 -1453Q417 -1459 417 -1478Q417 -1485 475 -1547Q481 -1550 498 -1550Q505 -1550 537 -1544.5Q569 -1539 576 -1539Q578 -1539 581 -1547Q599 -1550 646 -1550Q748 -1550 772 -1531Q824 -1531 824 -1486Q824 -1445 790 -1446Q796 -1419 807 -1365Q828 -1361 863 -1347Q848 -1316 848 -1274Q848 -1272 852.5 -1261.5Q857 -1251 856 -1245Q854 -1238 837 -1226.5Q820 -1215 811 -1215Q804 -1215 770.5 -1220.5Q737 -1226 730 -1226Q724 -1226 702.5 -1223.5Q681 -1221 672 -1221L663 -1212Q683 -1197 716 -1164Q746 -1123 746 -1079Q746 -1040 692.5 -974Q639 -908 640 -873Q670 -870 728 -856Q769 -839 826 -697Q880 -561 880 -498ZM796 -1499L769 -1504Q787 -1486 787 -1478Q796 -1487 796 -1499ZM765 -1434V-1449H755V-1434ZM691 -1461Q691 -1479 664 -1516V-1448Q663 -1441 669.5 -1422.5Q676 -1404 676 -1399Q691 -1444 691 -1461ZM791 -1332Q791 -1342 777 -1388.5Q763 -1435 763 -1425Q763 -1416 770 -1383Q777 -1350 778 -1341Q777 -1352 777 -1266Q791 -1322 791 -1332ZM826 -1315H818L806 -1272H814ZM582 -1378V-1523H561L568 -1378ZM752 -1324Q752 -1331 738 -1403.5Q724 -1476 724 -1483Q724 -1499 735 -1521H696Q714 -1496 714 -1464Q714 -1442 702.5 -1399Q691 -1356 691 -1337Q691 -1321 696 -1308Q666 -1293 668 -1293Q655 -1293 657 -1298Q658 -1335 647.5 -1400Q637 -1465 637 -1490Q637 -1507 640 -1521H613Q614 -1451 586 -1293Q560 -1302 558 -1313Q534 -1476 534 -1491Q534 -1499 536.5 -1509Q539 -1519 539 -1521L515 -1517Q521 -1517 519 -1492Q514 -1422 491 -1304H477Q472 -1314 472 -1335Q472 -1338 480.5 -1380Q489 -1422 489 -1444Q489 -1454 487 -1461Q456 -1403 456 -1305Q456 -1278 463 -1266Q478 -1269 498 -1266Q526 -1261 532 -1261Q540 -1261 565 -1264Q586 -1267 598 -1265Q615 -1262 626 -1249Q648 -1271 668 -1271Q675 -1271 692 -1265.5Q709 -1260 716 -1260Q752 -1260 752 -1324ZM494 -1464Q489 -1494 470 -1505L445 -1479Q479 -1479 494 -1464ZM430 -1283V-1315H421V-1283ZM724 -1079Q724 -1110 690 -1152Q651 -1199 607 -1199Q555 -1199 507 -1139Q549 -1133 630 -1116Q630 -1108 627 -1100Q637 -1092 657 -1073Q654 -1059 641 -1024Q629 -993 629 -986Q629 -975 649 -959Q724 -1062 724 -1079ZM500 -859V-895Q500 -903 476 -911Q441 -921 435 -924Q432 -951 426 -964Q403 -945 356 -910Q375 -910 388 -912Q401 -914 406 -914Q413 -914 423 -905V-878Q422 -877 352 -840Q339 -779 324 -736Q352 -786 402 -823Q456 -864 500 -859ZM852 -495Q852 -557 806 -681Q757 -812 717 -833Q700 -842 668 -840Q629 -838 618 -840V-927L629 -939Q601 -967 601 -984Q601 -992 613 -1020Q627 -1053 629 -1063Q597 -1080 593 -1095Q584 -1098 497 -1115Q489 -1102 459 -1072Q434 -1046 434 -1039Q434 -1034 445.5 -996.5Q457 -959 457 -943Q479 -938 522 -921Q522 -894 529 -839Q486 -835 418 -811Q364 -768 256 -591Q251 -590 248 -590L239 -599Q270 -688 335 -860Q338 -867 367 -878Q322 -874 322 -903Q322 -911 324 -914Q326 -917 326 -919Q278 -821 195 -628Q187 -606 189 -535Q207 -518 219 -518Q269 -518 354.5 -619.5Q440 -721 458 -725Q482 -631 491 -518Q549 -532 660 -559Q666 -571 677 -645Q687 -712 706 -736H720Q734 -709 765 -620Q802 -514 802 -481Q802 -431 791 -344Q779 -252 769 -235Q807 -224 794 -152Q797 -198 804 -275Q810 -317 832 -408Q852 -491 852 -495ZM691 -395Q691 -408 661 -528Q601 -516 492 -489Q460 -386 418 -206H668Q658 -255 664 -291Q667 -309 680 -351Q691 -389 691 -395ZM729 329L667 -177H585Q591 -108 634 24Q674 146 674 210Q674 262 638 287Q630 293 546 328Q670 318 682 321Q720 330 729 329ZM500 -177H413Q387 -143 372 -98Q362 -64 352 -30Q332 60 312 150Q280 261 190 307Q186 309 150 318Q124 324 122 335H163Q170 335 206.5 324.5Q243 314 250 314Q261 314 304 330Q307 321 307 304Q306 287 307 284Q343 200 404 38Q406 8 418 -45Q449 -93 500 -177ZM557 -1043H490V-1069Q516 -1093 520 -1093Q544 -1093 557 -1054Z"/>
</svg>