<svg xmlns="http://www.w3.org/2000/svg" viewBox="22.3 -1649.7 1157.4 2097.4">
	<path fill="currentColor" d="M1102 -871Q1053 -851 960 -815L893 -1103Q894 -1103 884 -1113Q866 -1086 860 -1054Q855 -970 849 -885Q834 -737 794 -737H607Q542 -737 504 -695Q466 -653 466 -590Q466 -584 477 -523Q488 -462 488 -455Q488 -452 475 -356Q461 -249 456 -197Q450 -134 458 68Q452 104 449 212Q449 217 456 269Q461 309 458 329Q452 370 399 370Q392 370 374 361.5Q356 353 349 353Q342 353 285.5 361.5Q229 370 222 370Q169 370 140 359Q138 333 146 310Q219 310 274 279Q338 243 338 182Q338 179 310 67Q280 -53 273 -103Q266 -153 248 -379Q230 -397 182 -415Q148 -428 114 -440Q100 -458 100 -471Q100 -478 103.5 -485.5Q107 -493 107 -498H147Q154 -498 186 -482Q218 -466 225 -466H252L256 -469Q255 -512 254 -555Q252 -607 237 -639Q172 -775 172 -773Q172 -803 210 -828Q270 -870 272 -872Q266 -874 186 -894Q183 -908 176 -932Q171 -941 150 -971Q133 -994 133 -1002Q133 -1022 193 -1060Q224 -1078 256 -1097Q275 -1117 283 -1143Q239 -1172 239 -1177Q239 -1185 305 -1321Q375 -1467 417 -1538Q423 -1548 444.5 -1560Q466 -1572 477 -1572Q483 -1572 504.5 -1558.5Q526 -1545 532 -1545Q539 -1545 555.5 -1553Q572 -1561 579 -1561Q597 -1561 620 -1543Q643 -1525 643 -1509Q643 -1506 502 -1137Q495 -1119 482 -1119Q475 -1119 474 -1121.5Q473 -1124 466 -1124Q444 -1124 427 -1099Q426 -1096 431 -1092Q529 -1050 542 -846Q571 -836 602 -836H733Q735 -838 740 -846Q781 -1059 781 -1069Q781 -1076 772 -1085.5Q763 -1095 761 -1098Q758 -1114 750 -1152L646 -881Q643 -884 636 -887.5Q629 -891 626 -894L821 -1411Q835 -1411 839 -1405Q918 -1246 1102 -871ZM858 -1225L822 -1351Q821 -1349 765 -1186Q776 -1189 800 -1209Q824 -1229 831 -1229Q838 -1229 847.5 -1227Q857 -1225 858 -1225ZM1068 -882L877 -1268L976 -853Q1011 -865 1068 -882ZM570 -1527Q540 -1528 528 -1499Q432 -1270 432 -1265Q432 -1257 443 -1249Q450 -1245 458 -1240ZM615 -1505Q615 -1522 594 -1522L449 -1147H481ZM510 -1519Q510 -1524 495 -1539L372 -1274H409ZM464 -1539Q434 -1513 406 -1459Q382 -1412 359 -1366Q272 -1206 272 -1185Q272 -1177 280 -1173Q292 -1168 292 -1168ZM443 -1210Q443 -1220 422.5 -1235.5Q402 -1251 391 -1251Q379 -1251 361.5 -1233Q344 -1215 344 -1202Q344 -1188 362 -1175.5Q380 -1163 394 -1163Q401 -1163 420 -1177Q443 -1193 443 -1210ZM410 -1122Q353 -1141 360 -1141Q335 -1141 307 -1127Q306 -1124 300 -1115Q305 -1115 314.5 -1117Q324 -1119 330 -1119Q324 -1119 404 -1103Q404 -1116 410 -1122ZM515 -848V-895Q473 -1063 434 -1063L418 -1058Q431 -1058 419 -1034Q404 -1018 379 -990Q372 -973 359 -946Q333 -909 289 -896Q298 -869 328 -827Q353 -823 386 -810Q392 -792 399 -759Q404 -787 420 -840Q455 -841 515 -848ZM394 -1047Q394 -1065 371 -1078Q348 -1091 327 -1091Q290 -1091 227.5 -1053.5Q165 -1016 161 -994Q171 -974 192 -968Q207 -964 222 -960V-946Q210 -940 200 -927Q203 -920 212 -908H231Q266 -918 301 -928Q340 -945 347 -977Q342 -987 338 -997Q333 -1008 347 -1019Q349 -1019 352 -1016Q355 -1013 363 -1013Q368 -1013 381 -1023Q394 -1033 394 -1047ZM281 -842Q261 -815 250 -766Q256 -760 271 -760Q281 -810 281 -842ZM858 -1163Q858 -1189 852 -1201Q840 -1201 834 -1207Q819 -1196 813 -1163Q804 -1119 804 -1118H787Q789 -1114 799 -1103Q809 -1092 809 -1085Q809 -1080 790 -980Q768 -867 762 -823Q759 -818 755 -815Q741 -815 704 -812Q667 -809 662 -809L488 -820Q456 -820 440 -811Q436 -784 428 -736H370Q362 -759 365 -791Q345 -790 306 -803Q301 -751 296.5 -744Q292 -737 264 -737Q240 -737 222 -746Q232 -786 232 -813Q200 -814 200 -781Q200 -774 229 -715Q266 -643 276 -617Q283 -600 283 -529Q283 -448 263 -427Q221 -443 172 -453Q204 -439 235 -425Q274 -405 277 -379Q280 -283 295 -119Q304 -65 337 66Q366 186 366 190Q366 318 167 334L280 342Q368 320 355 320Q362 320 378.5 331Q395 342 402 342Q431 342 430 317Q421 42 423 -92Q424 -152 440.5 -278Q457 -404 457 -465Q457 -522 447 -569Q445 -579 445 -592Q445 -648 473 -698Q506 -759 558 -759H744Q767 -759 796 -772Q810 -778 821 -832Q831 -878 831 -905V-1045Q831 -1052 844.5 -1104Q858 -1156 858 -1163ZM160 -458V-467H145V-458ZM321 -1062Q321 -1048 303 -1030Q296 -1030 272 -1042Q271 -1054 291 -1074Q294 -1071 306 -1068Q318 -1065 321 -1062Z"/>
</svg>