<svg xmlns="http://www.w3.org/2000/svg" viewBox="25.3 -1621.7 1814.4 2016.4">
	<path fill="currentColor" d="M1765 -1252Q1735 -1235 1674 -1203Q1688 -1152 1723 -1130Q1743 -1122 1743 -1108Q1743 -1075 1669 -1041Q1629 -1024 1588 -1008Q1504 -929 1333 -773Q1313 -755 1294 -755Q1272 -755 1162 -847Q1109 -894 1055 -941Q1025 -913 1020 -829L1063 -630Q1036 -522 1036 -491Q1036 -414 1080 -285Q1103 -247 1145 -174Q1175 -103 1229 23Q1260 69 1318 160L1183 319H1095Q1101 292 1101 257Q1130 262 1157.5 236Q1185 210 1185 176Q1185 146 1066 -54Q1037 -87 980 -155Q967 -170 942 -234Q931 -230 926 -209Q922 -192 918 -175H819Q804 -215 788 -255Q751 -228 740 -187Q702 -49 596 222Q591 249 586 276Q574 320 544 320Q538 320 524.5 309Q511 298 504 298Q497 298 439 309Q381 320 374 320Q337 320 281 302Q287 295 287 257Q351 240 376 232Q432 214 467.5 191Q503 168 521 121Q532 83 543 45Q560 -27 596 -168Q634 -304 765 -698Q706 -728 706 -760Q706 -790 721 -797Q746 -801 771 -806Q764 -841 741 -914Q719 -870 713 -847Q681 -725 527 -625Q396 -547 265 -469V132Q278 157 308 221Q301 229 301 234H266Q268 226 257 203Q247 216 221 239H197Q197 237 194 234.5Q191 232 191 224Q191 221 205 199Q206 190 208 142Q215 139 228 130V-469Q175 -493 175 -531Q175 -552 187 -571Q186 -575 186 -616Q213 -616 228 -626V-1193Q228 -1200 213 -1227H209Q183 -1172 130 -1063Q100 -1082 100 -1095Q100 -1098 109.5 -1139Q119 -1180 119 -1199Q119 -1201 115 -1209.5Q111 -1218 111 -1225Q111 -1257 161 -1353Q209 -1444 202 -1503Q203 -1510 215 -1510Q238 -1510 261 -1476Q281 -1447 281 -1430Q281 -1397 233 -1289Q240 -1281 259 -1269V-620Q261 -619 275 -608Q284 -600 292 -600Q290 -600 357 -646Q391 -669 458 -718Q505 -755 529 -791Q537 -803 607 -960Q618 -985 660 -1050Q696 -1108 696 -1114V-1294Q696 -1331 713 -1404.5Q730 -1478 741 -1488Q804 -1547 903 -1547Q991 -1547 1032 -1488Q1076 -1407 1121 -1327V-1303Q1102 -1295 1069 -1282Q1068 -1274 1062.5 -1257Q1057 -1240 1057 -1233Q1057 -1208 1100 -1163Q1143 -1118 1143 -1099Q1143 -1086 1132 -1076L1305 -909Q1473 -1026 1522 -1115Q1532 -1141 1552 -1193Q1498 -1231 1456 -1252Q1480 -1256 1564 -1271Q1579 -1310 1597 -1369Q1617 -1335 1652 -1271Q1690 -1264 1765 -1252ZM1685 -1239Q1636 -1235 1602 -1302Q1596 -1283 1580 -1250Q1563 -1245 1531 -1236Q1544 -1232 1579 -1209Q1574 -1189 1558 -1154Q1566 -1157 1585 -1168.5Q1604 -1180 1608 -1180Q1600 -1180 1663 -1159Q1655 -1176 1642 -1209Q1659 -1221 1685 -1239ZM1679 -1125Q1670 -1127 1643.5 -1137.5Q1617 -1148 1610 -1148Q1602 -1148 1594 -1140Q1582 -1129 1579 -1128Q1584 -1130 1588 -1130Q1616 -1130 1616 -1108Q1616 -1102 1613.5 -1092Q1611 -1082 1611 -1078Q1603 -1079 1587 -1073Q1587 -1070 1587 -1068Q1645 -1068 1679 -1125ZM1035 -1430Q1033 -1473 981 -1502Q939 -1526 903 -1526Q887 -1526 831.5 -1508.5Q776 -1491 766 -1482Q733 -1453 731 -1348Q730 -1325 726 -1230Q722 -1156 723 -1117Q791 -1136 844 -1144V-1338Q818 -1349 818 -1379Q839 -1441 866 -1441Q873 -1441 887.5 -1435.5Q902 -1430 907 -1430ZM1062 -1128Q1057 -1139 1045.5 -1162Q1034 -1185 1029 -1196Q996 -1185 984 -1185V-1144Q1028 -1144 1062 -1128ZM1708 -1099Q1611 -1042 1576 -1042Q1547 -1044 1547 -1063Q1547 -1071 1549 -1082.5Q1551 -1094 1551 -1095Q1529 -1071 1489 -1032Q1383 -939 1299 -877Q1297 -878 1161 -1017Q1078 -1101 1029 -1114Q1003 -1114 956 -1120V-1202Q1008 -1203 1040 -1260.5Q1072 -1318 1094 -1320Q1075 -1351 1040 -1406Q1011 -1407 945 -1411Q887 -1414 882 -1414Q845 -1414 845 -1390Q845 -1382 856 -1363Q869 -1341 871 -1336Q871 -1120 867 -1116Q835 -1111 778 -1102Q747 -1097 703 -1076Q661 -1026 622 -934Q567 -802 566 -801Q538 -748 470 -696Q416 -658 362 -619Q305 -574 294 -574Q286 -574 276 -579Q263 -584 260 -585Q288 -570 288 -545Q288 -538 285.5 -526Q283 -514 283 -510Q290 -514 454 -607Q556 -665 613 -713Q665 -757 688 -834Q727 -965 729 -969Q736 -978 745 -978Q798 -825 803 -745L1004 -766Q998 -793 998 -821Q998 -893 1037 -974Q1040 -978 1049 -978Q1103 -928 1158 -877Q1266 -781 1291 -781Q1310 -781 1429 -898Q1555 -1021 1572 -1029Q1607 -1043 1642 -1056Q1691 -1076 1708 -1099ZM775 -733V-741Q778 -759 755 -759Q755 -750 775 -733ZM254 -1435Q254 -1454 230 -1478Q223 -1431 182 -1347Q143 -1268 139 -1223Q147 -1253 177 -1292Q180 -1289 184 -1287.5Q188 -1286 191 -1283Q181 -1258 161 -1217Q156 -1222 143 -1222Q148 -1203 143 -1173Q138 -1147 134 -1122Q164 -1194 195 -1266Q254 -1411 254 -1435ZM1057 -276L1010 -497Q1036 -601 1036 -630Q1036 -662 1014 -717H989Q969 -574 923 -439Q919 -427 902 -395Q887 -367 887 -361Q887 -332 954 -302Q1010 -275 1029 -276ZM961 -693V-712H943Q892 -704 794 -688Q767 -628 712 -466Q659 -308 659 -294V-277Q877 -313 906 -464Q915 -510 940 -605Q961 -688 961 -693ZM924 -281Q924 -285 869 -340Q846 -323 802 -284Q816 -252 840 -197H897Q924 -264 924 -281ZM1291 150Q1291 143 1266 115Q1236 82 1229 71Q1210 39 1181 -40Q1169 -74 1140 -136Q1103 -196 1061 -252Q1009 -253 957 -270Q986 -203 1022 -149Q1071 -79 1119 -8Q1206 126 1206 171Q1206 210 1183 243Q1159 279 1121 287H1155Q1167 288 1178 286Q1291 158 1291 150ZM260 -542Q258 -568 233 -568Q196 -568 196 -529Q196 -499 228 -499Q237 -499 248.5 -512Q260 -525 260 -542ZM764 -275Q725 -267 655 -252Q646 -246 639 -237Q622 -184 618 -155Q616 -135 614 -114Q603 -58 554 93Q523 188 474 218Q448 234 395 250Q353 262 310 275Q309 278 308 287Q332 293 382 293Q434 293 465 286Q472 284 488 275.5Q504 267 510 267Q516 267 524.5 277.5Q533 288 539 288Q547 288 553.5 285Q560 282 562 282Q564 229 603 146Q659 25 662 15Q679 -55 713 -177Q726 -218 764 -275ZM977 -1335H920V-1352Q920 -1361 933.5 -1371.5Q947 -1382 956 -1382Q981 -1382 977 -1335Z"/>
</svg>