<svg xmlns="http://www.w3.org/2000/svg" viewBox="22.5 -1647.5 1343 2092">
	<path fill="currentColor" d="M1288 -1287Q1288 -1259 1264 -1235Q1240 -1211 1212 -1211Q1202 -1211 1192 -1216Q1177 -1139 1163 -1061Q1144 -972 1116 -912Q1023 -913 972 -878Q969 -876 936 -809Q906 -749 843 -722Q844 -708 846 -680Q906 -670 923 -600Q954 -475 951 -329L942 157Q940 165 937 179Q931 218 930 220Q924 241 910 257Q957 297 1041 346Q1042 360 1033 367H100L312 253Q271 115 194 -164Q187 -192 187 -232Q187 -238 196 -266L154 -382L170 -381Q124 -436 124 -532Q124 -627 199 -683V-1073H121V-1128H199V-1192H263V-1130H342V-1074H264V-683Q290 -662 325 -619Q342 -577 342 -520Q342 -501 328 -454.5Q314 -408 303 -394.5Q292 -381 273 -370Q318 -359 346 -289Q348 -284 346 -279L345 -278Q398 -212 548 -31Q550 -48 550 -160Q550 -387 578 -537Q588 -591 622 -631Q633 -644 686 -672V-713Q662 -719 628 -719H626Q611 -668 571 -573Q563 -559 539 -550Q520 -543 501 -536H482Q482 -538 474 -576Q498 -584 532 -611Q583 -707 583 -739Q583 -756 574 -810Q561 -818 548 -826Q532 -838 532 -849Q532 -854 546 -877Q563 -904 565 -908Q571 -941 594 -1003Q586 -1023 566 -1059Q549 -1071 518 -1098Q536 -1131 573 -1197Q653 -1328 793 -1395Q772 -1407 772 -1443Q772 -1449 774 -1459.5Q776 -1470 776 -1475Q809 -1513 866 -1513Q901 -1513 923 -1502Q937 -1495 950.5 -1468Q964 -1441 964 -1424Q964 -1378 913 -1326Q974 -1377 997 -1419Q1005 -1452 1029 -1515Q1039 -1533 1069 -1551.5Q1099 -1570 1120 -1570H1132Q1153 -1570 1180 -1541Q1207 -1512 1207 -1491Q1207 -1436 1167 -1409Q1134 -1386 1118 -1335Q1148 -1369 1191 -1369Q1225 -1369 1256.5 -1344.5Q1288 -1320 1288 -1287ZM1265 -1287Q1265 -1301 1245 -1323.5Q1225 -1346 1210 -1346Q1167 -1346 1153 -1337Q1094 -1299 1083 -1180Q1076 -1104 986 -909Q1039 -932 1104 -934Q1156 -1093 1170 -1237L1177 -1243Q1179 -1244 1182 -1248Q1203 -1234 1215 -1234Q1234 -1234 1249.5 -1251Q1265 -1268 1265 -1287ZM1184 -1490Q1184 -1503 1163 -1528Q1150 -1544 1120 -1544Q1105 -1544 1101 -1543Q1064 -1533 1048 -1502Q1041 -1470 1019 -1409Q998 -1368 961 -1342Q796 -1229 776 -1212Q675 -1129 638 -1037Q623 -1012 602 -960H775Q782 -970 812 -970Q820 -970 850 -947V-940Q850 -913 836 -869.5Q822 -826 822 -822Q822 -793 880 -793Q889 -793 896 -790Q986 -934 1032 -1077Q1041 -1098 1054 -1139Q1077 -1276 1101 -1350Q1112 -1385 1152 -1426Q1184 -1459 1184 -1490ZM941 -1409Q941 -1490 866 -1490Q828 -1490 799 -1466Q795 -1443 795 -1443Q795 -1430 822 -1385Q643 -1300 549 -1102Q578 -1086 606 -1030Q642 -1098 658 -1122Q687 -1166 726 -1203Q774 -1249 820 -1280Q941 -1362 941 -1409ZM316 -1099V-1103H264V-1099ZM199 -1099V-1103H147V-1099ZM603 -723L601 -724Q587 -679 550 -596Q540 -580 499 -562L500 -560Q548 -569 569 -626Q586 -675 603 -723ZM316 -528Q316 -584 300 -614Q285 -641 238 -673V-1166H225V-673Q147 -619 147 -532Q147 -495 164 -443Q198 -514 232 -514Q279 -514 299 -442Q316 -488 316 -528ZM988 341L882 267Q881 262 881 256V254Q906 231 913 181Q916 172 919 157L928 -322Q931 -478 901 -597Q889 -644 854 -655Q844 -657 824 -663Q824 -674 822 -698Q820 -722 820 -734Q840 -745 868 -766Q844 -766 823 -780Q799 -796 799 -819Q799 -837 812.5 -873Q826 -909 826 -930V-937Q812 -944 803 -944Q806 -944 776 -935L597 -938Q590 -899 569 -869Q558 -853 558 -852Q558 -849 576 -837Q594 -825 596 -815Q597 -787 609 -745Q643 -742 709 -732V-658Q682 -647 639 -616Q609 -578 601 -534Q573 -382 573 -172Q573 -35 566 15Q517 -30 472 -85Q301 -295 275 -295Q243 -295 222 -280Q210 -235 210 -233Q210 -192 217 -164Q258 -22 337 263Q271 303 196 341ZM288 -412Q277 -436 267 -459Q251 -491 233 -491Q216 -491 196.5 -460.5Q177 -430 177 -412Q177 -379 233 -379Q264 -379 288 -412ZM317 -299Q300 -358 195 -358H186L208 -298Q245 -319 278 -319Q284 -319 317 -299ZM697 -865Q667 -866 663 -866H646Q629 -866 614 -861V-887Q639 -910 656 -910Q677 -910 697 -865ZM303 -510Q262 -572 229 -572Q205 -572 188 -552Q175 -532 161 -512V-543Q161 -552 174 -569Q187 -586 196 -590.5Q205 -595 230 -595Q252 -595 265 -590Q273 -587 287.5 -569.5Q302 -552 302 -544Z"/>
</svg>