<svg xmlns="http://www.w3.org/2000/svg" viewBox="0 -2048 2048 2048">
	<path fill="#000000" d="M1265 -1279Q1265 -1259 1233 -1228Q1201 -1197 1189 -1197Q1181 -1197 1177 -1200Q1173 -1203 1171 -1203Q1171 -1203 1140 -1048Q1143 -1045 1151 -1045Q1157 -1045 1214 -1072Q1238 -1048 1238 -1047Q1238 -1016 1190 -1000Q1129 -979 1128 -978Q1115 -966 1101 -909Q1070 -906 1040 -903Q999 -897 981 -885Q957 -869 915 -802Q877 -741 834 -720V-683Q855 -674 892 -641Q914 -609 923 -503Q938 -321 938 -340V97Q938 152 900 243Q948 285 1042 347H111L312 242Q277 115 242 -11Q206 -145 196 -252Q194 -271 182 -315Q170 -359 170 -364Q170 -372 177.5 -378Q185 -384 185 -384Q191 -442 214 -606Q208 -612 197 -612Q187 -612 164.5 -605.5Q142 -599 134 -599H100V-652Q108 -652 138 -652Q169 -651 193 -651Q121 -792 121 -832Q121 -865 156 -883Q181 -895 207 -907Q214 -943 214 -1023Q214 -1126 200 -1154Q176 -1130 161 -1070Q144 -1001 131 -980H112Q100 -1002 100 -1045Q100 -1137 125 -1215Q154 -1304 160 -1393Q161 -1393 170.5 -1398.5Q180 -1404 187 -1404Q212 -1404 252 -1295Q252 -1288 230.5 -1238Q209 -1188 209 -1181Q209 -1176 224 -1150Q239 -1124 239 -1113Q240 -1073 238 -1007Q235 -929 235 -902Q269 -905 292 -870Q312 -840 312 -808Q312 -737 252 -651Q270 -647 349 -663Q353 -652 353 -633Q353 -613 349 -599Q309 -607 245 -615Q241 -619 241 -606Q241 -617 270 -379Q337 -303 537 -53Q546 -117 546 -188V-377Q546 -466 582 -556Q621 -654 677 -678V-704Q660 -708 626 -718Q604 -663 582 -608Q551 -541 494 -533Q476 -540 476 -576Q517 -602 546 -653Q573 -700 573 -737Q573 -732 566 -807Q550 -815 524 -840Q584 -936 584 -974Q584 -1007 527 -1007Q520 -1007 490.5 -1001.5Q461 -996 454 -996Q436 -996 396 -1011Q345 -1031 345 -1054V-1081Q358 -1094 366 -1094Q372 -1094 417.5 -1072Q463 -1050 470 -1050Q495 -1050 535 -1070Q532 -1073 524.5 -1077.5Q517 -1082 514 -1085Q588 -1266 775 -1386Q774 -1391 765 -1409Q759 -1422 759 -1431Q759 -1465 793 -1486Q819 -1502 843 -1502Q961 -1502 948 -1371Q960 -1386 1011 -1493Q1041 -1557 1094 -1557Q1120 -1557 1150 -1530Q1183 -1500 1183 -1467Q1183 -1461 1151 -1411Q1112 -1352 1102 -1331Q1100 -1327 1105 -1322Q1159 -1361 1170 -1361Q1197 -1361 1229 -1337Q1265 -1311 1265 -1279ZM1238 -1284Q1238 -1297 1213.5 -1315Q1189 -1333 1175 -1333Q1110 -1333 1071 -1222Q1051 -1142 1031 -1062Q1060 -1057 1111 -1045Q1123 -1103 1135 -1161Q1150 -1229 1169 -1235Q1180 -1224 1189 -1224Q1196 -1224 1217 -1247.5Q1238 -1271 1238 -1284ZM1151 -1464Q1151 -1483 1131 -1506Q1111 -1529 1088 -1529Q1060 -1529 1028 -1469Q1012 -1433 996 -1398Q980 -1363 956 -1345Q790 -1221 789 -1221Q665 -1119 635.5 -1050.5Q606 -982 606 -976V-958H763Q760 -991 781.5 -1031.5Q803 -1072 832 -1072Q839 -1072 881 -1058.5Q923 -1045 930 -1045Q935 -1045 966 -1050.5Q997 -1056 1008 -1056Q1023 -1222 1092 -1373Q1100 -1390 1128 -1423Q1151 -1449 1151 -1464ZM922 -1407Q922 -1475 843 -1475Q786 -1475 786 -1426Q786 -1418 795 -1401Q806 -1381 808 -1375Q731 -1330 651.5 -1245Q572 -1160 546 -1096Q586 -1056 599 -1056H616Q633 -1089 661 -1133Q746 -1212 908 -1367Q922 -1381 922 -1407ZM1096 -978Q1024 -996 1023 -996Q997 -996 978 -909Q1042 -930 1079 -932Q1085 -950 1096 -978ZM1183 -1021Q1172 -1018 1137 -1018Q1130 -1018 1081 -1026Q1032 -1034 1025 -1034Q1018 -1034 984.5 -1026Q951 -1018 944 -1018Q937 -1018 888 -1031.5Q839 -1045 832 -1045Q815 -1045 800 -1016Q786 -991 786 -974Q786 -961 797 -963Q815 -1023 848 -1023Q855 -1023 897 -1012Q939 -1001 946 -1001Q972 -1001 993.5 -1014.5Q1015 -1028 1017 -1028Q1024 -1028 1067.5 -1014.5Q1111 -1001 1118 -1001Q1143 -1001 1183 -1021ZM971 -978Q926 -978 915.5 -980.5Q905 -983 882.5 -992Q860 -1001 854 -1001Q842 -1001 824 -960Q829 -955 838 -944Q828 -900 813 -817Q842 -789 865 -789Q890 -789 928 -872Q949 -925 971 -978ZM600 -1032Q570 -1032 535 -1037Q553 -1030 587 -1012Q590 -1015 593.5 -1022Q597 -1029 600 -1032ZM225 -1295Q225 -1323 189 -1371Q190 -1331 170 -1266Q145 -1186 141 -1161Q150 -1162 165 -1153Q168 -1149 167 -1143Q225 -1274 225 -1295ZM140 -1138V-1153H130V-1138ZM148 -1094H137Q128 -1064 129 -1039Q136 -1058 148 -1094ZM286 -793H278L261 -719H269ZM258 -800Q258 -810 238.5 -829.5Q219 -849 209 -849Q176 -849 176 -800Q176 -766 222 -669Q258 -813 258 -800ZM965 326L857 249Q911 216 911 102V-297Q911 -301 905 -387Q899 -478 898 -519Q897 -539 882 -596Q874 -624 847 -643Q827 -655 807 -667V-736Q824 -745 851 -759Q786 -787 786 -821Q786 -841 813 -935Q811 -935 804 -938Q797 -941 789 -941Q782 -941 777.5 -935.5Q773 -930 766 -930H596Q585 -900 557 -845Q593 -831 596 -809Q599 -777 602 -746Q634 -744 699 -731V-656Q672 -645 640 -614Q605 -580 602 -558Q593 -503 585 -448Q573 -372 573 -312V-46Q570 -26 555 1Q475 -94 395 -189Q303 -299 277 -299Q229 -299 219 -211L339 246Q327 266 281 290Q245 308 209 326ZM228 -380Q238 -410 234 -443Q228 -491 228 -489Q218 -445 219 -395ZM290 -327Q247 -359 225 -359Q218 -359 208.5 -355.5Q199 -352 198 -352Q203 -329 210 -293Q251 -335 290 -327ZM682 -861H612Q612 -864 609 -873Q606 -882 606 -885Q630 -909 652 -909Q669 -909 682 -861Z"/>
</svg>