<svg xmlns="http://www.w3.org/2000/svg" viewBox="0 -2048 2048 2048">
	<path fill="#000000" d="M1310 -1298Q1310 -1271 1286.5 -1245.5Q1263 -1220 1236 -1220Q1228 -1220 1216 -1226L1177 -1053Q1206 -1059 1263 -1084Q1268 -1080 1276 -1080V-1053Q1276 -1019 1170 -995L1169 -996Q1160 -983 1140 -923Q1075 -915 1062 -912Q1007 -902 993 -886Q989 -882 970 -841Q946 -789 927 -771Q914 -758 860 -726Q859 -711 865 -683Q882 -680 911 -662Q936 -631 943 -601Q945 -572 950 -516Q968 -347 968 -314Q968 -302 962 99Q961 110 959 133Q956 186 954 200Q947 235 926 261L1076 370H143Q135 364 135 344Q143 345 149 345Q166 345 324 255Q291 140 257 25Q203 -163 203 -184Q203 -201 207 -235Q183 -319 173 -372H185L188 -374Q219 -603 219 -616Q164 -616 104 -599Q100 -614 100 -629Q100 -644 104 -664Q157 -652 196 -648Q193 -657 152 -734Q126 -785 126 -828Q126 -861 140 -880Q147 -890 180 -902Q210 -914 225 -914Q229 -914 266 -903Q318 -888 318 -821Q318 -750 249 -641Q281 -651 363 -664V-606Q324 -611 245 -621V-619Q245 -620 255 -541Q265 -466 276 -369Q285 -367 302 -357Q345 -318 336 -299Q367 -272 565 -33Q569 -263 570 -279Q576 -454 592 -538Q603 -595 639 -638Q659 -651 700 -676V-718Q673 -725 645 -725Q644 -725 642 -724Q622 -665 588 -581Q583 -572 555 -556.5Q527 -541 516 -540Q516 -540 501 -540Q497 -547 487 -576Q511 -584 545 -612Q600 -717 600 -745Q600 -794 588 -817Q586 -820 566 -832Q549 -841 549 -857Q549 -862 563 -886Q580 -914 582 -918Q593 -944 605 -1002Q597 -1002 584.5 -1011.5Q572 -1021 557 -1021Q544 -1021 518.5 -1015Q493 -1009 480 -1009Q439 -1009 415 -1019Q355 -1044 355 -1079Q355 -1107 383 -1107Q395 -1107 425.5 -1084.5Q456 -1062 479 -1062Q493 -1062 522 -1070.5Q551 -1079 567 -1078Q556 -1086 535 -1102Q576 -1201 658 -1291Q681 -1316 808 -1405Q788 -1426 788 -1453Q788 -1500 842 -1520Q856 -1525 885 -1525Q980 -1525 980 -1430Q980 -1396 967 -1375Q998 -1401 1018 -1436Q1026 -1466 1046 -1525Q1053 -1543 1087 -1562.5Q1121 -1582 1141 -1582Q1171 -1582 1198 -1555.5Q1225 -1529 1225 -1499Q1225 -1453 1206 -1434Q1194 -1427 1174.5 -1407Q1155 -1387 1140 -1350Q1165 -1380 1200 -1380Q1233 -1380 1262 -1369Q1273 -1365 1291.5 -1337.5Q1310 -1310 1310 -1298ZM1284 -1297Q1284 -1314 1266.5 -1335Q1249 -1356 1232 -1356Q1193 -1356 1186 -1353Q1133 -1329 1116 -1261Q1105 -1202 1094 -1143Q1092 -1138 1082 -1121Q1078 -1104 1071 -1077Q1085 -1076 1158 -1058Q1171 -1120 1194 -1246Q1200 -1256 1209 -1255Q1227 -1243 1239 -1243Q1255 -1243 1269.5 -1262Q1284 -1281 1284 -1297ZM1202 -1499Q1202 -1556 1139 -1556Q1096 -1556 1068 -1516Q1066 -1513 1051 -1460Q1032 -1392 981 -1358Q882 -1292 833 -1254Q745 -1187 702 -1132Q687 -1103 655 -1047Q634 -1012 620 -967H789Q793 -979 798 -1023Q800 -1042 823.5 -1064Q847 -1086 866 -1086Q889 -1086 924 -1072Q967 -1056 981 -1053Q1003 -1063 1048 -1077Q1051 -1098 1068 -1142Q1073 -1151 1102 -1295Q1126 -1412 1180 -1443Q1202 -1455 1202 -1499ZM1253 -1052V-1055Q1200 -1030 1179 -1030Q1162 -1030 1124.5 -1040.5Q1087 -1051 1065 -1051Q1057 -1051 1006 -1041Q991 -1030 982 -1030Q968 -1030 931.5 -1045Q895 -1060 870 -1060Q826 -1060 815 -978Q826 -979 832 -977Q838 -1038 878 -1038Q891 -1038 917.5 -1027.5Q944 -1017 957 -1017H994Q999 -1017 1021 -1027.5Q1043 -1038 1049 -1038Q1057 -1038 1090 -1027Q1120 -1017 1167 -1017Q1183 -1017 1213.5 -1029Q1244 -1041 1253 -1052ZM957 -1430Q957 -1501 884 -1501Q811 -1501 811 -1453Q811 -1440 822 -1425Q837 -1403 839 -1400Q828 -1388 811 -1379Q738 -1339 665.5 -1261.5Q593 -1184 561 -1109Q605 -1071 639 -1068Q652 -1093 681 -1141Q714 -1185 829 -1283Q863 -1310 897 -1337Q944 -1375 953 -1397Q957 -1407 957 -1430ZM1139 -994Q1124 -996 1095 -1000Q1090 -1001 1071.5 -1008Q1053 -1015 1050 -1015Q1043 -1015 1006 -917Q1067 -941 1122 -942Q1128 -957 1139 -994ZM1013 -997Q1003 -993 997 -993H957Q945 -993 919 -1004Q893 -1015 881 -1015Q856 -1015 856 -972Q856 -966 857 -962Q868 -952 868 -943Q868 -916 853 -873.5Q838 -831 838 -827Q838 -811 865 -799Q867 -798 908 -798H913L916 -796Q935 -826 969 -887Q984 -924 1013 -997ZM627 -1046Q580 -1057 566 -1057Q552 -1057 522.5 -1048Q493 -1039 479 -1039Q451 -1039 421.5 -1060Q392 -1081 384 -1081L382 -1073Q424 -1032 465 -1032Q480 -1032 509.5 -1038Q539 -1044 554 -1044Q569 -1044 589 -1036.5Q609 -1029 616 -1029Q619 -1029 627 -1046ZM619 -728L617 -729H615Q600 -685 586 -641Q567 -591 530 -570Q547 -576 570 -593Q582 -613 619 -728ZM295 -819Q295 -891 222 -891Q180 -891 160 -867Q149 -854 149 -828Q149 -797 165 -765Q153 -804 153 -817Q153 -839 171 -861Q189 -883 211 -883Q288 -883 288 -801Q288 -800 266 -714Q295 -768 295 -819ZM265 -804Q265 -860 214 -860Q176 -860 176 -817Q176 -783 227 -666Q265 -822 265 -804ZM337 -631V-638L314 -634ZM1006 343L893 263Q930 225 935 152Q937 141 939 119L945 -330Q945 -359 931 -487Q930 -525 920 -595Q904 -654 871 -660Q860 -660 843 -670Q840 -695 835 -739Q859 -753 887 -772Q885 -772 882 -771Q866 -771 860 -774Q849 -779 832 -797Q815 -815 815 -825Q815 -832 830 -874.5Q845 -917 845 -942Q836 -951 820 -951Q810 -951 802 -943H613Q612 -940 572 -858Q582 -850 598.5 -837Q615 -824 616 -804Q617 -784 618.5 -766Q620 -748 659 -744Q714 -739 726 -734V-666Q698 -653 656 -624Q625 -587 615 -535Q593 -421 590 -2Q580 8 573 8Q493 -87 424 -167Q397 -202 339 -268Q309 -298 291 -298Q256 -298 234 -280Q227 -224 227 -210Q227 -162 251 -76Q272 -9 292 58Q325 177 349 268Q261 316 207 343ZM152 -632L125 -635V-628Q134 -629 152 -632ZM248 -377L231 -518L213 -376Q236 -378 248 -377ZM306 -318Q300 -325 286 -339Q265 -355 225 -355Q207 -355 198 -351Q204 -327 212 -278L215 -296Q246 -321 294 -321Q300 -321 306 -318ZM713 -870H664Q653 -870 626 -879Q629 -891 654 -917H696Q702 -901 713 -870Z"/>
</svg>