<svg xmlns="http://www.w3.org/2000/svg" viewBox="0 -2048 2048 2048">
	<path fill="#000000" d="M1002 -1402Q953 -1335 925 -1279Q899 -1212 874 -1144Q837 -1065 762 -1035Q776 -1029 801 -1019Q779 -984 779 -966Q779 -963 816 -912Q853 -861 855 -841Q884 -543 879 -363V-238H801V288Q832 311 940 384H123Q217 337 290 294Q264 175 239 56Q204 -105 204 -206Q204 -214 197 -235Q190 -256 190 -263V-292H238V-773L100 -892H395Q324 -830 261 -767V-291Q277 -286 300 -273Q371 -187 504 -9Q505 -11 510 -18Q545 -228 545 -270Q545 -276 521 -301Q497 -326 491 -339Q484 -367 484 -359Q484 -367 516 -419Q552 -469 587.5 -519.5Q623 -570 623 -615Q623 -658 601 -669Q594 -672 541 -678Q490 -762 490 -774Q490 -775 510 -803Q528 -839 547 -875Q572 -924 612 -952Q610 -960 599 -987Q590 -1010 590 -1016Q590 -1024 612 -1035Q538 -1054 488 -1173Q450 -1249 378 -1397Q381 -1400 388 -1404Q395 -1408 398 -1411Q485 -1340 532 -1233Q542 -1255 552 -1277Q567 -1309 591 -1325Q612 -1339 659 -1355Q673 -1360 673 -1377Q673 -1391 640 -1407Q651 -1428 666 -1459Q668 -1490 671 -1521Q677 -1567 718 -1567Q725 -1567 751 -1554Q751 -1542 737 -1528Q727 -1539 712 -1539Q688 -1539 690 -1511Q690 -1514 694 -1452Q698 -1395 697 -1365Q729 -1357 784 -1330Q802 -1303 843 -1244Q875 -1320 975 -1422Q992 -1422 1002 -1402ZM900 -1288Q888 -1268 848 -1180Q820 -1119 797 -1100Q796 -1099 740 -1071Q706 -1054 712 -1032Q718 -1046 766 -1067Q814 -1088 827 -1112Q838 -1132 900 -1288ZM824 -1208Q824 -1216 788 -1287Q775 -1312 716 -1331Q710 -1333 684 -1333Q636 -1333 596 -1295.5Q556 -1258 556 -1213Q556 -1170 601 -1134.5Q646 -1099 693 -1099Q727 -1099 773 -1132Q824 -1169 824 -1208ZM683 -1033V-1065Q647 -1078 589 -1106Q540 -1140 511 -1201Q464 -1297 463 -1299Q491 -1237 536 -1129Q544 -1109 598 -1080Q673 -1040 683 -1033ZM762 -1003H624Q636 -979 635 -961Q683 -977 696 -977Q715 -977 749 -966Q753 -979 762 -1003ZM840 -260V-685Q839 -742 827 -847Q817 -893 761 -930Q733 -949 701 -949Q618 -949 573 -873Q622 -868 671 -862.5Q720 -857 746 -834Q727 -803 703 -746Q687 -667 690 -578V-260ZM328 -869H173Q199 -842 253 -799Q273 -814 328 -869ZM851 356Q815 337 775 305L784 139V-237H672V-713Q674 -777 718 -825Q713 -825 705 -832Q659 -843 636 -843H563Q558 -832 539 -796Q523 -768 523 -760Q523 -732 558 -700Q607 -698 624 -689Q651 -675 651 -615Q651 -582 638 -558Q612 -510 557 -432Q512 -366 512 -362Q512 -349 540 -326Q568 -303 568 -248Q568 -161 527 26Q517 42 510 42Q448 -40 322 -195Q315 -203 284 -203Q248 -203 236 -185Q228 -172 228 -134Q228 -77 271 105Q305 248 323 305Q292 322 234 356ZM300 -233Q268 -265 253 -264H212Q224 -227 230 -215Q268 -234 300 -233ZM634 -797Q634 -794 631 -787Q628 -780 628 -777H574Q574 -796 568 -802Q587 -821 598 -821Q610 -821 634 -797Z"/>
</svg>