<svg xmlns="http://www.w3.org/2000/svg" viewBox="0 -2048 2048 2048">
	<path fill="currentColor" d="M1060 -1523Q1024 -1474 966 -1378Q955 -1335 929 -1249Q900 -1171 846 -1147Q819 -1145 783 -1131Q807 -1129 856 -1124Q835 -1104 819 -1051Q902 -997 909 -909Q917 -707 936 -302Q926 -293 859 -296Q860 -258 860 -230Q860 -148 852.5 17Q845 182 845 264Q896 300 963 341Q968 349 968 363H166Q165 348 172 340Q174 338 303 271Q302 267 247 32Q206 -146 206 -191Q206 -197 207 -225L214 -235Q199 -300 185 -337L186 -338Q100 -365 100 -484Q100 -554 167 -596Q156 -607 156 -615Q156 -623 167 -637Q178 -651 186 -651H342Q346 -651 366 -636Q369 -628 369 -610Q369 -600 359 -592Q380 -579 411 -544Q428 -503 428 -469Q428 -358 299 -329Q311 -323 344 -272L353 -269L534 -47Q534 -47 534 -77Q534 -118 554.5 -197.5Q575 -277 575 -318Q575 -329 574 -338Q557 -349 535.5 -377.5Q514 -406 514 -423Q514 -453 538 -480Q559 -502 597 -549Q660 -643 660 -666Q660 -727 647 -739.5Q634 -752 568 -756Q520 -848 520 -855Q520 -860 538 -880Q560 -904 574.5 -948.5Q589 -993 602 -1011Q611 -1023 649 -1048Q636 -1096 615 -1124Q636 -1126 679 -1131Q660 -1135 628 -1144Q568 -1168 545 -1209Q528 -1258 493 -1355Q480 -1391 448 -1438Q394 -1515 394 -1516Q403 -1526 419 -1526Q434 -1526 483 -1467Q529 -1413 538 -1391Q551 -1360 560 -1334L559 -1337L562 -1324Q562 -1428 653 -1460Q698 -1476 734 -1476Q772 -1476 819 -1453Q880 -1423 897 -1351Q910 -1392 961 -1453Q1002 -1500 1043 -1547Q1049 -1540 1060 -1541ZM969 -1429Q940 -1394 927 -1370Q921 -1360 899 -1280Q885 -1230 842 -1203Q808 -1194 747 -1163Q748 -1152 750 -1130H758Q763 -1144 774 -1158Q795 -1159 831 -1166Q884 -1188 910 -1259Q919 -1306 950 -1396Q957 -1409 969 -1429ZM878 -1328Q878 -1370 850 -1404Q822 -1438 771 -1445Q766 -1446 754.5 -1449.5Q743 -1453 736 -1453Q674 -1453 632 -1423Q618 -1413 601 -1386Q584 -1359 584 -1343Q584 -1274 625 -1243Q646 -1227 727 -1201Q736 -1198 740 -1198Q792 -1198 835 -1237.5Q878 -1277 878 -1328ZM727 -1130V-1151Q727 -1171 693 -1182Q668 -1188 643 -1194Q599 -1206 566 -1267Q544 -1318 522 -1368.5Q500 -1419 459 -1459Q473 -1438 500 -1396Q502 -1393 544 -1270Q571 -1191 634 -1165Q654 -1161 674.5 -1157Q695 -1153 704 -1130ZM809 -1103H655Q666 -1083 670 -1055Q725 -1071 730 -1071Q744 -1071 799 -1058Q800 -1074 809 -1103ZM910 -320V-407Q910 -736 886 -911Q867 -1048 731 -1048Q698 -1048 658 -1027Q612 -1003 601 -953L664 -954Q717 -955 748 -948Q760 -943 785 -934Q787 -926 787 -919Q787 -899 764 -871.5Q741 -844 741 -831L727 -320ZM342 -609V-625H192Q187 -625 182 -622V-615Q189 -609 194 -609Q202 -609 215.5 -615Q229 -621 237 -621Q287 -621 336 -606L341 -607ZM911 336Q821 280 822 263L833 26Q839 -103 839 -92V-293H713Q700 -293 700 -305Q700 -318 703 -342Q706 -366 706 -377L718 -829Q719 -853 735 -872Q758 -900 762 -908V-919Q724 -929 663 -929Q594 -929 594 -929Q574 -885 544 -851Q560 -822 580 -778Q606 -777 654 -768Q685 -756 685 -689Q685 -652 677 -636Q643 -565 557 -467Q537 -444 537 -426Q537 -409 559.5 -383.5Q582 -358 599 -351Q599 -291 571 -169Q561 -125 561 -118V-10Q553 0 544 0Q542 -3 447 -130Q387 -212 341 -250Q328 -261 290 -261Q232 -261 232 -194Q232 -173 260 -40Q304 167 331 278Q301 297 229 336ZM405 -469Q405 -492 395 -525Q387 -550 342 -575.5Q297 -601 268 -601Q206 -601 166 -567Q126 -533 126 -472Q126 -352 273 -352Q387 -352 398 -439Q398 -446 401.5 -458.5Q405 -471 405 -469ZM313 -279Q309 -288 299 -306Q234 -323 214 -323L233 -260Q261 -284 292 -284Q296 -284 313 -279ZM674 -876Q672 -866 664 -858Q641 -861 594 -867Q610 -902 625 -902Q640 -902 674 -876Z"/>
</svg>