<svg xmlns="http://www.w3.org/2000/svg" viewBox="0 0 510 1000">
  <g transform="scale(1,-1) translate(0,-1000)">
    <path d="M314 865Q281 895 259.0 925.0Q237 955 230.5 968.0Q224 981 224 984Q224 990 228.0 994.5Q232 999 236.0 999.0Q240 999 246.0 991.5Q252 984 263.0 968.0Q274 952 287 938Q292 965 314.0 982.5Q336 1000 365 1000Q396 1000 419.0 983.0Q442 966 448 938Q460 951 471.0 967.5Q482 984 487.5 991.5Q493 999 498 999Q502 999 506.0 994.5Q510 990 510 984Q510 980 500.0 962.0Q490 944 468.0 915.5Q446 887 421 865Q427 865 427 853Q427 827 426 818Q458 803 463 774Q483 680 483 549Q483 549 482.5 520.0Q482 491 482 490Q482 455 483.0 427.5Q484 400 485 387L486 374Q486 367 481.0 362.0Q476 357 469 357L430 358Q442 291 442 254Q442 212 430.5 166.0Q419 120 419 104Q419 87 439.5 71.0Q460 55 480.5 41.5Q501 28 501 18Q501 11 496.0 6.0Q491 1 484 1L17 0Q10 0 5.0 5.0Q0 10 0 17Q0 28 14.0 35.0Q28 42 50.5 52.5Q73 63 86 77Q90 81 90 86Q90 89 87 103Q80 140 51.5 215.0Q23 290 23 346Q23 363 34.0 376.0Q45 389 62 394V599Q19 631 19 676V678Q21 724 63 734V880Q63 895 78 895Q94 895 94 880V735Q100 734 109.0 730.0Q118 726 129.0 712.0Q140 698 140 678V677Q140 635 96 600V394Q141 378 204 283Q208 278 215.0 266.5Q222 255 227 249Q227 249 235.0 278.0Q243 307 251.0 337.0Q259 367 259 371Q259 389 239.5 410.5Q220 432 220 445Q220 454 228 466Q242 485 256.5 495.0Q271 505 284 531Q300 558 300 581Q300 600 290.5 606.5Q281 613 262.0 618.5Q243 624 231 636Q207 660 207 692Q207 727 232.0 762.5Q257 798 306 817Q306 822 306.5 838.5Q307 855 307 856Q307 860 308.5 862.0Q310 864 312 864ZM79 707Q47 707 46 675V673Q46 645 79 622Q113 650 113 675Q113 689 104.0 698.0Q95 707 79 707ZM293 718Q316 718 316.0 701.0Q316 684 293 684Q284 684 276.5 688.5Q269 693 269.0 701.0Q269 709 276.5 713.5Q284 718 293 718ZM57 346Q57 291 90.0 207.5Q123 124 123 87Q123 58 87 34L430 35Q385 71 385 104Q385 123 396.5 169.5Q408 216 408 255Q408 295 396 359L365 360Q358 360 353.0 365.0Q348 370 348 377L350 630Q350 636 367.0 668.0Q384 700 384 720Q384 721 377.5 723.5Q371 726 355.0 729.0Q339 732 319 732Q312 732 303.0 731.5Q294 731 286.0 730.5Q278 730 271.5 729.5Q265 729 261 728H257Q253 728 251 729Q241 707 241 691Q241 673 258 658Q262 654 287.0 646.0Q312 638 322 623Q334 606 334 581Q334 554 315 516Q300 487 281.5 472.5Q263 458 254 445Q256 442 267.5 429.5Q279 417 285 405Q293 389 293 371Q293 358 271.0 273.5Q249 189 240 189Q227 189 207.5 219.0Q188 249 155.5 292.5Q123 336 87 361Q85 363 80 363Q72 363 64.5 357.5Q57 352 57 346ZM448 490Q448 491 448 520L449 550Q449 667 429 767Q424 794 364 794Q323 794 281 764Q309 766 319 766Q366 766 401 751Q419 743 419 721Q419 701 411.5 681.0Q404 661 394.5 645.0Q385 629 384 627L382 394L451 392Q448 446 448 490ZM365 874Q387 874 402.0 888.0Q417 902 417 922Q417 943 401.5 956.0Q386 969 364 969Q344 969 329.5 956.0Q315 943 315.0 923.0Q315 903 330.0 888.5Q345 874 365 874Z" fill="currentColor"/>
  </g>
</svg>