<svg xmlns="http://www.w3.org/2000/svg" viewBox="0 -2048 2048 2048">
	<path fill="currentColor" d="M1516 -902Q1425 -745 1393 -700Q1298 -568 1202 -531Q1094 -498 894 -429Q879 -411 840 -378Q792 -349 739 -349Q738 -349 684 -363Q650 -364 574 -378Q516 -396 503 -497Q500 -494 500 -481Q498 -481 492.5 -478Q487 -475 479 -475Q469 -475 452 -493V-529Q458 -529 482 -541Q498 -525 504 -513Q511 -531 526 -571Q525 -572 518.5 -575.5Q512 -579 512 -587Q512 -611 578 -660Q614 -686 649 -711Q697 -810 816 -1001Q877 -1080 1097 -1188Q1100 -1185 1103.5 -1178.5Q1107 -1172 1110 -1169Q1038 -1132 967 -1094Q872 -1041 836 -992.5Q800 -944 751 -842Q699 -734 670 -692Q653 -686 620 -671Q535 -627 548 -590Q631 -645 646 -645Q651 -645 663.5 -639Q676 -633 681 -633Q681 -601 684 -596Q758 -778 926 -952Q967 -995 1055 -1034Q1128 -1067 1202 -1100Q1202 -1097 1205 -1087.5Q1208 -1078 1208 -1075Q1124 -1034 960 -945Q949 -939 842 -800Q731 -655 731 -634Q731 -627 753 -599Q779 -567 784 -556Q786 -552 802 -509Q809 -508 830 -505Q847 -502 855 -502Q862 -502 874 -514Q892 -530 897 -533Q1032 -616 1123 -659Q1145 -662 1177 -678Q1201 -708 1360 -969Q1363 -966 1369.5 -962.5Q1376 -959 1379 -956Q1320 -847 1197 -658Q1190 -649 1165 -641Q1132 -631 1130 -630Q1048 -580 878 -487Q867 -482 810 -480Q774 -479 753 -466Q754 -465 788 -460Q814 -455 830 -428Q818 -409 784 -395Q742 -377 737 -373Q739 -371 750 -371Q774 -371 816 -405Q867 -447 876 -451Q933 -477 1025 -504Q1101 -525 1178 -547Q1282 -579 1381 -737Q1425 -809 1502 -909Q1511 -902 1516 -902ZM2257 -351Q2128 -206 1967 -123Q1852 -64 1665 -15H2185V161H479V-18H1039Q803 -77 707 -122Q524 -208 407 -379L421 -392Q609 -134 974 -57Q981 -102 988 -146Q998 -198 1024 -238Q1039 -261 1081 -275Q1115 -285 1150 -295Q1193 -305 1236 -314Q1295 -330 1325 -365Q1355 -400 1386 -490Q1420 -587 1442 -619Q1482 -678 1552 -678Q1686 -678 1708 -439L1703 -56Q1698 -52 1711 -52Q1709 -52 1765 -66Q2032 -132 2238 -371ZM413 -502Q413 -483 388 -458Q388 -458 372 -458Q347 -458 347 -491Q347 -505 377 -535Q413 -517 413 -502ZM335 -426Q335 -426 322.5 -423Q310 -420 294 -420L287 -427V-458Q300 -469 309 -469Q324 -469 335 -457ZM286 -377Q277 -371 262 -360Q252 -366 237 -377V-403Q250 -414 265 -414Q273 -414 286 -403ZM248 -327Q248 -320 242 -307Q236 -294 236 -289H217Q199 -299 199 -318Q199 -332 229 -349Q248 -330 248 -327ZM220 -229Q213 -222 201 -222Q192 -222 178 -233Q164 -244 161 -245V-265Q181 -283 190 -283Q208 -283 220 -259ZM198 -211Q210 -176 192 -157H162Q145 -173 167 -211ZM188 -88Q188 -63 160 -63Q127 -63 127 -88Q127 -92 140 -118H170Q188 -100 188 -88ZM166 -4Q154 8 136 8Q111 8 111 -22Q111 -45 142 -58L166 -34ZM155 44Q155 61 136 80Q100 68 100 44Q100 36 103 29Q106 22 107 21Q108 20 112.5 17Q117 14 125 14Q155 14 155 44ZM1681 -48V-473Q1681 -502 1653 -566Q1624 -634 1603.5 -642.5Q1583 -651 1555 -651Q1492 -651 1453 -591Q1428 -554 1397 -456Q1363 -351 1326 -333Q1226 -300 1057 -231Q1030 -216 1013 -160Q1001 -116 1001 -87V-53Q1228 -14 1374 -14Q1526 -14 1681 -48ZM2163 139V13H507V139ZM786 -435Q753 -443 720 -436V-467Q721 -498 769 -498V-544Q770 -566 716 -606Q719 -582 682 -556Q704 -443 704 -464Q704 -429 677 -393H700Q698 -393 779 -416Q784 -420 786 -435ZM654 -580L648 -617Q648 -617 610 -598Q646 -580 654 -580ZM682 -472Q682 -501 653 -538Q620 -579 583 -579Q561 -579 546 -541Q534 -510 534 -483Q534 -392 613 -392Q637 -392 646 -400Q682 -457 682 -472Z"/>
</svg>