<svg xmlns="http://www.w3.org/2000/svg" viewBox="0 -2048 2048 2048">
	<path fill="#000000" d="M1896 -1010Q1896 -985 1870 -942Q1839 -891 1833 -872Q1812 -754 1768 -540Q1756 -488 1752 -480Q1739 -446 1707 -421Q1688 -406 1600 -389Q1522 -374 1491 -374H877Q838 -303 755 -166Q705 -78 654 11Q575 138 521 138Q448 138 365 -18Q347 -51 311 -118Q241 -253 172 -355Q155 -368 130 -396Q120 -427 100 -487Q104 -487 116 -492.5Q128 -498 134 -498Q140 -498 157 -480Q175 -459 185 -454L193 -462Q182 -533 129 -634Q129 -635 151 -657Q223 -614 247 -518Q256 -465 264 -412Q296 -336 374 -237Q499 -79 504 -71Q512 -84 637 -322Q719 -478 770 -535Q781 -547 820.5 -553.5Q860 -560 939 -576V-619Q900 -636 820 -649Q815 -686 803 -762Q794 -769 768 -778Q754 -782 754 -801Q754 -807 775 -834Q801 -867 808 -879Q837 -942 905 -1068Q940 -1124 1060 -1124Q1170 -1124 1233 -1053Q1291 -989 1291 -893Q1291 -876 1284 -841Q1277 -806 1244 -748Q1156 -591 1156 -590Q1156 -572 1165 -558Q1177 -557 1205 -555Q1229 -553 1236 -553Q1242 -553 1279.5 -557.5Q1317 -562 1323 -562Q1329 -562 1358 -557.5Q1387 -553 1393 -553H1604L1742 -930Q1742 -924 1736 -986Q1678 -1026 1678 -1111Q1678 -1175 1723 -1216.5Q1768 -1258 1834 -1258Q1855 -1258 1881 -1242Q1876 -1213 1856 -1152Q1866 -1149 1886 -1142Q1886 -1116 1891 -1064Q1896 -1012 1896 -1010ZM1856 -1226L1829 -1233Q1703 -1207 1703 -1109Q1703 -1043 1740 -1020Q1753 -1064 1787 -1064Q1803 -1064 1799 -1050Q1818 -1111 1856 -1226ZM1848 -1088H1833Q1811 -1007 1808 -977H1822Q1846 -1037 1848 -1088ZM1266 -890Q1266 -979 1215 -1038Q1159 -1104 1062 -1104Q1001 -1104 944 -1061Q881 -1013 864 -941L1076 -916Q1071 -940 1109 -940Q1156 -940 1156 -895Q1156 -889 1134 -816Q1112 -743 1112 -737Q1112 -697 1160 -662Q1198 -718 1236 -775Q1266 -829 1266 -890ZM1872 -1039Q1872 -1083 1858 -1118Q1863 -1099 1863 -1077Q1863 -1013 1828 -950Q1820 -951 1803.5 -953.5Q1787 -956 1780 -956Q1770 -964 1770 -1034Q1756 -1006 1761 -966Q1767 -922 1765 -914Q1729 -790 1619 -534Q1585 -528 1516 -528Q1510 -528 1453 -532Q1389 -537 1363 -538Q1339 -539 1286 -536Q1229 -533 1231 -533Q1168 -533 1158 -537Q1132 -548 1132 -600Q1132 -604 1146 -646Q1087 -677 1087 -731Q1087 -737 1109.5 -813Q1132 -889 1132 -895Q1132 -920 1109 -920Q1102 -920 1098 -906Q1093 -886 1093 -885L855 -920Q853 -896 780 -798Q797 -793 828 -778Q829 -740 835 -668Q880 -663 959 -638V-552Q900 -548 791 -521Q763 -509 742 -468Q727 -438 713 -407Q650 -287 520 -55Q509 -36 500 -36Q406 -155 239 -407Q231 -421 236 -444Q241 -473 241 -476Q234 -575 169 -611Q216 -551 213 -446Q186 -429 173 -429Q165 -429 151 -443Q134 -461 130 -463Q133 -446 145 -415Q160 -400 182 -375Q233 -298 272 -231Q327 -134 382 -37Q478 118 524 118Q564 118 706 -122Q803 -284 857 -394H1441Q1523 -393 1666 -430Q1702 -439 1720 -470Q1746 -515 1772 -662Q1802 -837 1813 -872Q1820 -893 1838.5 -918.5Q1857 -944 1860 -952Q1872 -988 1872 -1039ZM963 -834Q963 -825 960 -818.5Q957 -812 957 -811Q942 -813 910.5 -822Q879 -831 864 -833Q882 -844 920 -870Q934 -863 963 -834Z"/>
</svg>