<svg xmlns="http://www.w3.org/2000/svg" viewBox="0 -2048 2048 2048">
	<path fill="currentColor" d="M1735 -344Q1735 -308 1700 -197Q1615 71 1615 63Q1615 69 1628 120.5Q1641 172 1641 178Q1641 205 1615 267Q1585 338 1560 338Q1554 338 1543 334.5Q1532 331 1527 331Q1573 207 1573 186Q1573 169 1564 144Q1546 151 1530 211H1479V168Q1478 139 1486 110Q1499 93 1519 52Q1519 12 1527 -63Q1537 -114 1589 -333L1392 -718H992Q911 -624 814 -528Q667 -383 622 -383Q561 -383 474 -474Q419 -539 365 -604Q338 -641 271 -718L214 -202Q211 -201 202 -195Q162 -238 135 -322Q110 -397 110 -454Q110 -494 140 -585Q151 -618 180 -682Q204 -735 204 -741Q204 -730 180 -798Q179 -800 184 -809.5Q189 -819 189 -825Q189 -816 178 -866Q176 -875 194 -883Q134 -1002 123 -1030Q100 -1092 100 -1162Q100 -1295 196 -1375H214Q240 -1167 279 -873Q387 -772 604 -561Q612 -569 743 -729Q834 -839 895 -888Q910 -900 966 -911Q1043 -927 1056 -931Q1049 -960 1036 -983Q1008 -985 981 -987Q948 -992 927 -1008Q921 -1038 905 -1098Q887 -1107 842 -1116Q884 -1214 926 -1312Q969 -1405 1017 -1443Q1076 -1491 1179 -1491Q1281 -1491 1346 -1423Q1411 -1355 1411 -1258Q1411 -1208 1361.5 -1107Q1312 -1006 1312 -974Q1312 -920 1375 -915Q1421 -912 1467 -909Q1500 -894 1503 -892Q1528 -877 1539 -857Q1562 -816 1644 -611Q1735 -385 1735 -344ZM1385 -1261Q1385 -1345 1325 -1407.5Q1265 -1470 1171 -1470Q1004 -1470 947 -1294Q1151 -1277 1142 -1277Q1149 -1277 1159 -1292Q1173 -1312 1174 -1313Q1225 -1301 1238 -1292Q1260 -1279 1260 -1248Q1260 -1241 1241.5 -1192Q1223 -1143 1223 -1138Q1223 -1124 1243 -1085Q1266 -1042 1284 -1042H1306Q1332 -1096 1358 -1150Q1385 -1210 1385 -1261ZM1714 -355Q1629 -582 1513 -856Q1484 -875 1420 -885Q1371 -890 1321 -896Q1285 -933 1285 -986Q1285 -1004 1291 -1020Q1289 -1020 1285 -1017.5Q1281 -1015 1273 -1015Q1246 -1015 1222 -1072Q1202 -1119 1202 -1143Q1202 -1149 1216 -1192Q1230 -1240 1233 -1260Q1216 -1276 1183 -1287Q1167 -1263 1159.5 -1259.5Q1152 -1256 1126 -1256L937 -1266Q929 -1245 905 -1199Q881 -1153 873 -1132Q896 -1130 929 -1111Q936 -1079 947 -1016Q986 -1014 1057 -1004Q1077 -977 1077 -904Q1035 -901 993 -898Q941 -893 916 -872Q836 -804 747 -696Q613 -534 604 -524Q551 -588 460 -669Q388 -732 316 -796Q313 -778 310 -760Q307 -746 283 -737Q357 -649 430 -561Q566 -410 617 -410Q662 -410 809 -559Q897 -651 986 -744H1407L1615 -339Q1572 -169 1559 -83Q1554 -18 1545 63Q1542 76 1522 106Q1506 134 1506 147V186Q1510 181 1528 145Q1542 118 1552 118Q1594 118 1594 168Q1594 221 1564 311Q1615 209 1615 178Q1615 172 1603 125.5Q1591 79 1589 63ZM257 -869L192 -1339Q121 -1271 121 -1157Q121 -1108 165 -1006Q230 -853 232 -849H251Q251 -860 257 -869ZM288 -780Q288 -797 256 -813Q239 -820 222 -827Q204 -809 204 -801Q204 -810 222 -756Q227 -753 238 -744Q253 -751 270.5 -759.5Q288 -768 288 -780ZM246 -713Q246 -725 240 -723H221Q193 -656 165 -588Q136 -510 136 -454Q136 -353 197 -248ZM1034 -1183Q968 -1183 968 -1183Q971 -1198 979 -1224H1023Q1034 -1202 1034 -1183Z"/>
</svg>