<svg viewBox="0 0 8.162231 8.16"
   xmlns="http://www.w3.org/2000/svg">
  <path
     style="fill:currentColor; stroke:none"
     d=" M 0 4.127626  Q 0 3.27035 0.31751 2.508327  Q 0.63502 1.746304 1.206537 1.190662  Q 1.778054 0.63502 2.524203 0.31751  Q 3.27035 0 4.127626 0  Q 4.953151 0 5.699299 0.333385  Q 6.445446 0.66677 6.985214 1.222412  Q 7.52498 1.778054 7.858363 2.540079  Q 8.191749 3.302101 8.16 4.159377  Q 8.16 4.921401 7.890115 5.651675  Q 7.620233 6.381947 7.096341 6.937587  Q 6.57245 7.493229 5.87393 7.826614  Q 5.175408 8.16 4.286381 8.16  Q 3.683112 8.16 2.95284 7.985367  Q 2.222568 7.810738 1.603424 7.350349  Q 0.98428 6.88996 0.523891 6.112061  Q 0.063502 5.334163 0 4.127626  Z  M 1.143035 4.095874  Q 1.143035 5.143657 1.952685 6.064435  Q 2.762335 6.985214 4.254631 6.985214  Q 5.52467 6.985214 6.286691 6.112061  Q 7.048714 5.238911 7.048714 4.095874  Q 7.080466 2.984591 6.302569 2.095564  Q 5.52467 1.206537 4.127626 1.111284  Q 2.921089 1.143035 2.032062 2.000311  Q 1.143035 2.857587 1.143035 4.095874  Z " />
</svg>