<svg xmlns="http://www.w3.org/2000/svg" viewBox="0 -2048 2048 2048">
	<path fill="currentColor" d="M2581 -548Q2375 -586 2196 -658Q2059 -712 1837 -832Q1627 -945 1494 -995Q1294 -1070 1125 -1070Q869 -1070 641 -888Q609 -860 545 -804Q523 -790 478 -762Q267 -630 122 -601L100 -618Q308 -664 531 -824Q560 -851 618 -902Q850 -1098 1131 -1098Q1337 -1098 1613 -971Q1838 -855 2064 -739Q2162 -690 2225 -669Q2254 -657 2312 -637Q2402 -616 2581 -570ZM2581 -403L2358 -418Q2239 -426 2247 -426H1961Q1968 -426 1923 -421.5Q1878 -417 1787 -407Q1745 -399 1660 -385Q1516 -367 1329 -346Q1166 -328 1132 -328Q928 -328 694 -406Q661 -421 593 -446Q573 -452 506 -466Q408 -486 333 -486Q266 -486 243 -482Q200 -475 115 -461Q108 -473 107 -484Q256 -500 389 -559Q453 -587 563 -678Q703 -794 734 -815Q801 -860 848 -876Q1001 -927 1090 -927Q1304 -927 1575 -814Q1724 -752 2024 -587Q2198 -491 2357 -460Q2393 -452 2465 -439Q2504 -435 2581 -424ZM2314 -445Q2159 -494 1899 -631Q1627 -775 1489 -823Q1452 -838 1378 -862Q1200 -902 1096 -902Q1012 -902 863 -855Q778 -828 607.5 -687Q437 -546 329 -513L347 -514Q428 -519 597 -470Q627 -457 688 -434Q936 -353 1132 -353Q1176 -353 1284 -365Q1411 -377 1665 -409Q1937 -454 2070 -454Q2096 -454 2314 -445Z"/>
</svg>