<svg xmlns="http://www.w3.org/2000/svg" viewBox="0 -2048 2048 2048">
	<path fill="#000000" d="M2147 -367Q2147 -293 2134 -234Q2124 -187 2102 -147Q2095 -135 2055 -99Q2009 -59 1993 -59H276Q270 -59 256 -68Q239 -81 231 -84Q163 -114 127 -197Q100 -262 100 -332Q100 -324 117 -473Q124 -537 191 -608.5Q258 -680 319 -680H1922Q1934 -680 1994 -662Q2147 -616 2147 -367ZM2120 -359Q2120 -536 2063 -588Q1992 -653 1939 -653H308Q270 -653 198.5 -587.5Q127 -522 127 -335Q127 -279 134 -245Q142 -208 161 -179Q171 -164 219 -124Q271 -81 287 -81H1982Q2017 -81 2066 -150Q2110 -212 2113 -245Q2120 -314 2120 -359ZM1898 -225Q1898 -212 1887 -205L1801 -248Q1792 -248 1777.5 -251Q1763 -254 1756 -254Q1705 -254 1459 -191.5Q1213 -129 1059 -129Q859 -129 702 -178Q545 -227 478 -227Q395 -227 362 -189L343 -208Q480 -357 695 -470Q910 -583 1061 -583Q1277 -583 1517 -453Q1708 -339 1898 -225ZM1747 -277Q1546 -419 1435 -472Q1258 -556 1072 -556Q917 -556 753 -474Q612 -404 424 -250Q436 -250 460 -252Q484 -254 489 -254Q540 -254 709.5 -202.5Q879 -151 1067 -151Q1191 -151 1385 -201Q1618 -262 1747 -277Z"/>
</svg>