<svg xmlns="http://www.w3.org/2000/svg" viewBox="14 -1665 2323.1 2110.1">
	<path fill="currentColor" d="M2251 -560Q2251 -547 2246 -523Q2241 -496 2240 -486Q2233 -395 2180 -249Q2166 -226 2140 -179Q2081 -63 1977 52Q1930 104 1808 191Q1773 209 1705 247Q1675 268 1607 300Q1516 326 1398 340Q1236 359 1141 359Q1098 359 965 341Q829 323 792 312Q719 290 649 253Q608 235 531 191Q462 144 404 89Q384 63 342 13Q181 -172 156 -292Q136 -364 108 -534Q107 -542 103 -565Q100 -585 100 -596Q100 -628 121 -747Q141 -862 152 -898Q180 -988 219 -1059Q237 -1081 269 -1126Q379 -1304 559 -1410Q600 -1437 686 -1484Q724 -1501 832 -1531Q859 -1540 914 -1553Q1062 -1579 1148 -1579Q1393 -1579 1610 -1505Q1664 -1487 1763 -1425Q1797 -1407 1860 -1365Q2016 -1233 2082 -1120Q2099 -1099 2129 -1053Q2227 -850 2243 -629Q2244 -620 2248 -594Q2251 -572 2251 -560ZM2228 -560Q2228 -772 2139 -966Q2129 -995 2104 -1050Q2088 -1072 2058 -1116Q1980 -1239 1845 -1348Q1837 -1354 1743 -1410Q1634 -1474 1597 -1486Q1374 -1556 1150 -1556Q1048 -1556 913 -1531Q890 -1524 844 -1511Q644 -1456 512 -1354Q367 -1243 296 -1125Q276 -1101 241 -1050Q176 -930 143 -732Q123 -610 123 -595Q123 -606 131 -532Q149 -370 184 -278Q214 -201 267 -119Q284 -98 317 -56Q557 278 985 319Q1165 336 1142 336Q1236 336 1374 320Q1533 302 1600 278Q1756 221 1890 95Q1915 77 1960 37Q2048 -58 2124 -197Q2138 -217 2161 -260Q2191 -331 2206 -406Q2228 -513 2228 -560ZM1968 -953Q1968 -948 1937 -899Q1832 -731 1728 -453Q1713 -413 1675 -268Q1613 -33 1591 149H800Q725 -352 574 -673Q558 -713 524 -790Q504 -830 422 -964Q467 -975 554 -1004Q569 -1011 617 -1041Q814 -1166 995 -1166Q1093 -1166 1353 -1088Q1446 -1056 1634 -998Q1728 -972 1911 -972Q1944 -972 1968 -970ZM1588 -736Q1508 -753 1373 -815Q1205 -892 1161 -898Q1228 -850 1228 -782Q1228 -753 1202 -701Q1189 -674 1159 -656Q1199 -659 1278 -670Q1381 -694 1588 -736ZM1939 -949Q1913 -948 1866 -948Q1712 -948 1488 -1019Q1196 -1112 1119 -1127Q1035 -1143 992 -1143Q868 -1143 763 -1095Q662 -1039 560 -982Q538 -970 458 -952Q507 -871 590 -702Q788 -890 978 -920Q1073 -935 1057 -935Q1168 -935 1372 -840Q1580 -743 1820 -727Q1852 -802 1939 -949ZM1202 -785Q1202 -833 1175 -858Q1123 -906 1058 -906Q1025 -906 990 -890Q924 -860 924 -774Q924 -706 981 -670Q996 -660 1025.5 -659.5Q1055 -659 1067 -655Q1075 -652 1076 -652Q1127 -652 1164.5 -692.5Q1202 -733 1202 -785ZM956 -660Q901 -708 901 -776Q901 -854 952 -892Q806 -857 663 -733Q650 -722 637 -712Q692 -718 702 -718Q709 -718 715 -716Q854 -673 956 -660ZM1811 -707Q1659 -713 1639 -713Q1582 -713 1452 -683Q1205 -626 1058 -626Q957 -626 763 -675Q696 -692 678 -692Q621 -692 600 -678Q751 -353 818 128H1569Q1640 -357 1811 -707Z"/>
</svg>