<svg xmlns="http://www.w3.org/2000/svg" viewBox="26 -1589 1150.1 1999.1">
	<path fill="currentColor" d="M1102 329Q1098 330 1089 336Q1072 320 1045 265Q1033 247 1013 207Q969 84 829 -21Q701 -116 601 -124Q375 -143 371 -266Q377 -298 379 -361Q377 -379 361.5 -409Q346 -439 346 -453Q346 -470 360 -484Q359 -486 347 -503Q338 -515 338 -523Q338 -534 353 -559Q365 -579 365 -616Q365 -659 358 -679.5Q351 -700 308 -739Q303 -741 291 -741Q268 -741 257 -720Q246 -696 235 -673Q167 -567 143 -421Q132 -352 125 -179H100V-212Q100 -217 104 -255.5Q108 -294 108 -309Q108 -530 243 -738Q231 -739 213 -753Q195 -790 195 -796Q195 -792 289 -962Q328 -1032 390 -1216Q405 -1273 446 -1386Q456 -1407 491 -1449Q531 -1497 559 -1515L572 -1502Q537 -1460 503 -1418Q461 -1365 451 -1331Q424 -1233 363 -1055Q343 -1009 281 -897Q227 -800 227 -794Q227 -785 236 -767H409Q432 -767 446 -809Q456 -809 471 -803Q474 -758 424 -747Q384 -742 344 -738Q366 -728 380 -679Q391 -640 391 -608Q391 -588 365 -521Q383 -502 460 -496V-477Q451 -472 416 -471Q385 -469 370 -456V-440Q370 -436 388.5 -396Q407 -356 407 -339Q407 -328 401 -306Q395 -284 395 -273Q395 -264 398 -256Q429 -180 504 -161Q569 -150 634 -139Q841 -69 926 24Q978 80 1102 329Z"/>
</svg>