<svg xmlns="http://www.w3.org/2000/svg" viewBox="-39 573 1051.9 465.9">
  <g transform="scale(1,-1) translate(0,-1000)">
    <path d="M974 242Q932 228 873.5 204.5Q815 181 767.5 165.0Q720 149 664 137Q604 126 564 126Q519 126 468 137Q415 149 370.5 165.0Q326 181 271.0 205.5Q216 230 177 244Q218 260 272.0 285.0Q326 310 371.0 327.5Q416 345 468 358Q521 370 561.0 370.0Q601 370 655 358Q712 345 761.5 327.0Q811 309 871.0 283.5Q931 258 974 242ZM892 244Q859 255 814.5 273.0Q770 291 733.5 303.5Q697 316 654 324Q603 333 564 333Q530 333 468 323Q428 315 393.5 303.0Q359 291 317.0 274.0Q275 257 245 246Q275 236 318.5 219.0Q362 202 396.5 190.5Q431 179 472 171Q542 160 568 160Q607 160 658 169Q700 177 736.0 188.5Q772 200 815.5 217.0Q859 234 892 244ZM250 388Q258 388 264.0 382.0Q270 376 270 368Q270 352 254 348Q203 338 170.0 322.0Q137 306 107.0 271.5Q77 237 61.0 175.0Q45 113 40 19Q38 0 20 0Q12 0 6.0 6.0Q0 12 0 20V21Q5 120 23.0 187.5Q41 255 74.5 295.5Q108 336 148.0 356.5Q188 377 246 388Z" fill="currentColor"/>
  </g>
</svg>