<svg xmlns="http://www.w3.org/2000/svg" viewBox="0 -2048 2048 2048">
	<path fill="#000000" d="M1865 -1241Q1865 -1227 1854 -1219Q1766 -1157 1528 -1077V-1073Q1618 -1026 1668 -988Q1724 -945 1792 -833Q1822 -784 1850 -706V-688Q1837 -688 1832 -683Q1807 -791 1713 -906Q1685 -940 1624 -984Q1509 -1066 1472 -1066Q1469 -1066 1403 -1051Q1332 -1035 1303 -1032Q1089 -1006 988 -1006Q843 -1006 596 -1042Q514 -1054 381 -1092Q377 -1085 377 -1064L407 -807Q411 -803 417 -804L699 -909Q699 -906 702 -897.5Q705 -889 705 -886L412 -775L453 -581L461 -572L749 -683Q760 -672 760 -659Q662 -624 463 -549Q477 -487 512 -365L815 -476Q815 -473 818 -464Q821 -455 821 -452L518 -336Q538 -275 583 -148L875 -249Q879 -241 879 -235Q879 -228 875 -225Q807 -203 589 -125Q625 -16 658 64L966 -37Q966 -25 972 -19L665 92L760 283V305H317V-1113Q305 -1121 233 -1150Q100 -1204 100 -1240Q100 -1266 255 -1322Q395 -1372 470 -1385Q583 -1407 696 -1430Q859 -1460 970 -1460Q1161 -1460 1447 -1401Q1783 -1331 1865 -1241ZM1835 -1241Q1718 -1321 1459 -1378Q1204 -1434 970 -1434Q624 -1434 187 -1271Q152 -1258 130 -1235Q247 -1137 549 -1079Q798 -1031 1033 -1031Q1252 -1031 1476.5 -1093.5Q1701 -1156 1824 -1224Q1835 -1232 1835 -1241ZM730 280Q702 232 661 146Q527 -229 490 -347Q397 -648 375 -867Q369 -940 355 -1084Q355 -1088 348.5 -1095.5Q342 -1103 342 -1109L338 280Z"/>
</svg>