<svg xmlns="http://www.w3.org/2000/svg" viewBox="0 -2048 2048 2048">
	<path fill="#000000" d="M1016 -1067H957V-1420H1016ZM1873 -1139Q1873 -1067 1830.5 -956.5Q1788 -846 1788 -849L1828 -500V-290L1848 -87Q1848 -39 1836 40Q1828 92 1786 170Q1731 272 1675 272H328Q318 272 261 239Q177 190 161 136Q135 47 135 -170Q135 -363 171 -704Q173 -726 185 -785Q195 -838 195 -844Q195 -842 171 -898Q124 -1009 106 -1088Q100 -1115 100 -1154Q100 -1260 198 -1405Q243 -1471 260 -1471Q263 -1471 289 -1460V-1418Q289 -1416 261 -1342Q230 -1261 221 -1223Q215 -1196 215 -1154Q215 -1026 287 -976Q335 -996 348 -1039Q354 -1088 359 -1137Q375 -1226 408 -1226H439Q439 -1222 444 -1209.5Q449 -1197 449 -1191Q449 -1185 439 -1165Q429 -1145 429 -1139Q429 -1133 439 -1094Q449 -1055 449 -1049Q449 -998 427 -962Q399 -920 372 -879Q350 -840 350 -787L377 -357L360 -25Q360 -5 408 43H916Q922 43 947.5 60Q973 77 979 77Q985 77 1010.5 59.5Q1036 42 1042 42H1575Q1609 42 1609 -30Q1609 -52 1604 -95Q1603 -130 1598 -204Q1593 -278 1593 -280V-460L1618 -789Q1618 -844 1570.5 -925.5Q1523 -1007 1523 -1061Q1523 -1067 1533 -1098.5Q1543 -1130 1543 -1136Q1543 -1144 1518 -1194Q1540 -1226 1561 -1226Q1610 -1226 1619 -1139Q1619 -1095 1619 -1050Q1638 -1014 1639 -1013Q1658 -984 1676 -977Q1680 -976 1690 -976Q1710 -976 1716 -990Q1763 -1096 1763 -1154Q1763 -1199 1726 -1304Q1697 -1385 1668 -1465Q1672 -1465 1686.5 -1470.5Q1701 -1476 1708 -1476Q1714 -1476 1768 -1415Q1873 -1296 1873 -1139ZM991 -1092V-1395H981V-1092ZM1853 -1134Q1853 -1208 1806.5 -1306Q1760 -1404 1704 -1446H1693Q1783 -1266 1783 -1154Q1783 -1113 1759 -1040Q1752 -1013 1736 -970Q1724 -951 1690 -951Q1658 -951 1647 -962Q1614 -994 1594 -1045Q1592 -1049 1592 -1058Q1592 -1066 1594.5 -1093Q1597 -1120 1597 -1135Q1597 -1196 1565 -1196H1549Q1551 -1188 1560 -1163Q1568 -1142 1568 -1136Q1568 -1131 1558 -1098Q1548 -1065 1548 -1059Q1548 -1004 1593 -943.5Q1638 -883 1638 -779L1618 -370L1633 -30Q1633 67 1570 67H1047Q1042 67 1013.5 87Q985 107 979 107Q973 107 945 87Q917 67 911 67H408Q392 67 365 31Q343 0 341 -10Q340 -16 340 -55L357 -357L325 -779Q325 -843 353 -891Q385 -944 417 -998Q429 -1024 429 -1044Q429 -1050 416.5 -1092.5Q404 -1135 404 -1141Q404 -1150 414 -1168Q424 -1186 424 -1191Q424 -1198 421 -1201Q418 -1204 418 -1206Q384 -1189 371 -1114Q374 -1084 373 -1034Q372 -1026 339 -990Q303 -951 285 -951Q241 -951 212 -1041Q190 -1109 190 -1154Q190 -1210 220 -1293Q265 -1420 270 -1439Q265 -1444 257 -1446Q125 -1291 125 -1146Q125 -1102 131 -1078Q144 -1027 181 -931Q215 -844 215 -841Q215 -837 202 -756Q188 -670 185 -634Q155 -256 155 -135Q155 -22 166 50Q177 122 196 151Q206 167 255 205Q308 247 328 247H1670Q1694 247 1739.5 199.5Q1785 152 1796 116Q1823 27 1823 -67L1803 -320V-455Q1803 -552 1794 -606Q1779 -694 1776 -724Q1763 -864 1763 -844Q1763 -850 1791 -924Q1824 -1011 1834 -1043Q1853 -1105 1853 -1134Z"/>
</svg>