<svg xmlns="http://www.w3.org/2000/svg" viewBox="0 -2048 2048 2048">
	<path fill="#000000" d="M1380 0H515Q571 -32 684 -94Q652 -238 586 -579Q594 -597 600 -630Q598 -644 589.5 -673Q581 -702 581 -708V-724Q595 -732 627 -725V-1162Q586 -1199 504 -1272H770Q732 -1235 653 -1162V-723Q653 -717 663.5 -716.5Q674 -716 678 -712Q756 -619 916 -428Q965 -649 965 -713Q965 -717 932 -760.5Q899 -804 899 -812Q899 -813 918 -842Q1052 -1045 1052 -1081Q1052 -1132 1024 -1148Q1004 -1159 951 -1156Q947 -1169 924 -1213Q904 -1252 904 -1258Q904 -1263 920 -1284Q939 -1310 943 -1318Q961 -1358 997 -1431Q1011 -1456 1038 -1466Q1085 -1483 1116 -1483Q1225 -1483 1270 -1404Q1306 -1340 1308 -1204L1323 -680H1256L1236 -139Q1236 -111 1237 -99Q1285 -65 1380 0ZM1917 -1166Q1917 -1092 1873.5 -977Q1830 -862 1830 -866L1871 -508V-293L1892 -88Q1892 20 1850 134Q1795 283 1704 283H333Q308 283 242 230Q182 181 173 164Q151 121 147 81Q136 -42 136 -170Q136 -367 173 -718Q175 -740 187 -800Q197 -855 197 -861Q197 -851 172 -915.5Q147 -980 106 -1111Q100 -1138 100 -1178Q100 -1218 106 -1246Q116 -1292 174 -1394Q237 -1504 264 -1504Q270 -1504 294 -1492V-1449Q294 -1447 263 -1362Q229 -1269 219 -1224Q218 -1219 218 -1178Q218 -1177 224 -1102Q225 -1088 245 -1050Q270 -1002 294 -1002Q304 -1002 327 -1023.5Q350 -1045 354 -1061Q358 -1107 363 -1152Q372 -1218 409 -1252H447Q458 -1230 458 -1217Q458 -1211 448 -1190Q438 -1169 438 -1163Q438 -1157 448 -1117Q458 -1077 458 -1071Q458 -1034 441 -998Q429 -972 380 -900Q356 -866 356 -805L384 -362L366 -24Q366 -11 416 48H936Q942 48 969 66Q996 84 1003 84Q1009 84 1034.5 66Q1060 48 1066 48H1612Q1647 48 1647 -27Q1647 -47 1645 -71Q1643 -82 1642 -93Q1641 -129 1636 -205Q1631 -281 1631 -283V-467L1656 -805Q1656 -865 1607.5 -946Q1559 -1027 1559 -1084Q1559 -1090 1569 -1122.5Q1579 -1155 1579 -1161Q1579 -1165 1569 -1188Q1559 -1211 1559 -1219Q1559 -1253 1597 -1253Q1626 -1253 1639 -1231Q1658 -1199 1656 -1149Q1652 -1090 1657 -1072Q1672 -1017 1716 -998Q1720 -997 1731 -997Q1751 -997 1757 -1011Q1805 -1119 1805 -1181Q1805 -1224 1766 -1335Q1737 -1416 1708 -1497Q1713 -1497 1727.5 -1503Q1742 -1509 1748 -1509Q1764 -1509 1814 -1444Q1860 -1385 1869 -1364Q1917 -1256 1917 -1166ZM1297 -701L1283 -1255Q1272 -1458 1126 -1458Q1021 -1458 991 -1361H1141Q1153 -1354 1175 -1342Q1169 -1306 1147 -1270Q1129 -1240 1129 -1203V-701ZM709 -1251H566Q604 -1213 640 -1186Q656 -1198 709 -1251ZM1303 -21Q1275 -44 1223 -74Q1211 -81 1211 -119L1226 -400V-681H1102V-1143Q1101 -1182 1110 -1255Q1127 -1279 1154 -1322Q1137 -1340 1055 -1340Q1006 -1340 982 -1337Q934 -1263 934 -1260Q934 -1269 966 -1183Q993 -1182 1043 -1169Q1073 -1153 1073 -1086Q1073 -1039 1009 -937Q966 -873 924 -810Q948 -782 991 -727L941 -377H928Q859 -466 719 -630Q707 -643 663 -643Q637 -643 622 -611Q609 -585 612 -564L714 -84Q678 -63 607 -21ZM1897 -1161Q1897 -1221 1859 -1323Q1839 -1375 1795 -1426Q1777 -1448 1739 -1483V-1466Q1740 -1471 1782 -1355Q1825 -1236 1825 -1181Q1825 -1100 1777 -990Q1769 -971 1731 -971Q1697 -971 1681 -987Q1643 -1024 1632 -1066Q1630 -1074 1630 -1086Q1630 -1095 1631.5 -1116.5Q1633 -1138 1633 -1149Q1633 -1209 1591 -1227Q1587 -1219 1587 -1211Q1587 -1200 1596 -1183Q1605 -1166 1605 -1161Q1605 -1155 1595 -1121Q1585 -1087 1585 -1081Q1585 -1041 1624 -971Q1669 -891 1675 -866Q1677 -857 1677 -794L1656 -375L1672 -32Q1672 17 1665 29Q1643 68 1622 68H1076Q1070 68 1038.5 88.5Q1007 109 1001 109Q995 109 963.5 88.5Q932 68 926 68H405Q357 20 349 -2Q346 -8 346 -52L363 -362L330 -797Q330 -859 360 -908Q423 -1014 425 -1019Q438 -1047 438 -1068Q438 -1074 425 -1118Q412 -1162 412 -1168Q412 -1175 421.5 -1196.5Q431 -1218 432 -1222H417Q389 -1207 383 -1174Q379 -1153 379 -1056Q379 -1047 348 -1014Q312 -976 287 -976Q244 -976 215 -1065Q192 -1133 192 -1178Q192 -1207 198 -1239Q205 -1277 238 -1365Q268 -1447 268 -1449V-1478Q201 -1416 162 -1326Q125 -1243 125 -1171Q125 -1129 132 -1101Q146 -1043 184 -947Q218 -861 218 -858Q218 -855 203 -753Q187 -645 183 -600Q156 -265 156 -134Q156 40 183 128Q191 153 250.5 205.5Q310 258 333 258H1704Q1734 258 1785 204.5Q1836 151 1844 107Q1866 -10 1866 -67L1846 -324V-462Q1846 -552 1839 -600Q1830 -653 1818 -744Q1805 -871 1805 -861Q1805 -867 1836 -952Q1872 -1051 1883 -1086Q1897 -1132 1897 -1161ZM683 -673Q647 -705 624 -704H607Q619 -667 618 -649Q647 -670 683 -673ZM1062 -1287Q1049 -1268 1024 -1268Q996 -1268 986 -1274V-1293Q1018 -1309 1019 -1309Q1029 -1309 1062 -1287Z"/>
</svg>