<svg xmlns="http://www.w3.org/2000/svg" viewBox="0 -2048 2048 2048">
	<path fill="currentColor" d="M1361 -1488Q1303 -1390 1279 -1321Q1237 -1198 1168 -1170Q1176 -1162 1188 -1162Q1173 -1117 1173 -1113Q1173 -1108 1174 -1104Q1199 -1089 1224 -1037Q1246 -991 1246 -968V-486H1199V-190Q1199 -74 1189 -48Q1228 -18 1309 39H616Q661 16 757 -40Q722 -163 679 -382Q682 -432 668 -531Q681 -538 705 -537L710 -935Q702 -948 616 -1034V-1053H817Q820 -1047 829 -1035Q798 -1003 735 -945V-536Q747 -532 766 -519Q769 -515 936 -303L970 -499Q971 -521 947 -548Q923 -575 923 -595Q923 -620 980.5 -689Q1038 -758 1038 -811Q1038 -845 1024 -853Q1004 -854 966 -862Q934 -913 934 -941Q934 -956 970.5 -1019.5Q1007 -1083 1028 -1104V-1169Q955 -1192 916 -1305Q889 -1363 835 -1478Q843 -1486 850 -1486Q894 -1486 962 -1340Q972 -1372 1008 -1421Q1049 -1449 1100 -1449Q1137 -1449 1177.5 -1418.5Q1218 -1388 1229 -1356H1234Q1256 -1392 1278 -1428Q1309 -1476 1348 -1501ZM1950 -1168Q1950 -1087 1905.5 -974.5Q1861 -862 1861 -863L1903 -499V-280L1924 -71Q1924 -26 1911 65Q1903 120 1859 201Q1801 307 1738 307H338Q328 307 281 280Q230 250 206 226Q164 183 154 127Q137 28 137 -155Q137 -361 174 -712Q176 -735 188 -796Q199 -852 199 -858Q199 -850 138 -1003Q100 -1098 100 -1181Q100 -1291 192 -1427Q250 -1512 269 -1512Q265 -1512 298 -1500V-1456Q298 -1454 266 -1367Q231 -1273 221 -1227Q220 -1222 220 -1181Q220 -1178 226 -1103Q227 -1089 248 -1050Q274 -1001 298 -1001Q307 -1001 328.5 -1023Q350 -1045 359 -1062Q364 -1112 369 -1163Q384 -1256 421 -1256H453Q465 -1231 465 -1220Q465 -1213 454.5 -1192.5Q444 -1172 444 -1165Q444 -1158 454.5 -1118.5Q465 -1079 465 -1072Q465 -1035 447 -997Q435 -972 382 -894Q357 -858 361 -801L389 -350L371 -6Q370 8 422 67H951Q957 67 985 85Q1013 103 1020 103Q1026 103 1051 85Q1076 67 1083 67H1639Q1675 67 1675 -10Q1675 -30 1673 -54Q1671 -65 1670 -76Q1669 -113 1664 -192Q1658 -268 1658 -270V-457L1684 -801Q1689 -866 1638 -945Q1585 -1028 1585 -1085Q1585 -1091 1595.5 -1124Q1606 -1157 1606 -1163Q1606 -1168 1595.5 -1191.5Q1585 -1215 1585 -1223Q1585 -1256 1624 -1256Q1651 -1256 1666 -1234Q1686 -1204 1684 -1152Q1681 -1088 1685 -1072Q1700 -1016 1745 -997Q1749 -996 1759 -996Q1780 -996 1786 -1010Q1835 -1120 1835 -1181Q1835 -1227 1797 -1338Q1767 -1421 1737 -1505Q1742 -1505 1757 -1511Q1772 -1517 1778 -1517Q1794 -1517 1846 -1451Q1891 -1391 1901 -1370Q1950 -1259 1950 -1168ZM1267 -1351Q1210 -1212 1103 -1193Q1103 -1190 1106 -1180.5Q1109 -1171 1109 -1168Q1117 -1178 1163 -1197Q1206 -1215 1225 -1247Q1239 -1270 1267 -1351ZM1210 -1324Q1210 -1365 1167 -1396Q1129 -1423 1093 -1423Q991 -1423 991 -1329Q991 -1287 1018 -1258Q1048 -1225 1100 -1225Q1132 -1225 1167 -1249Q1210 -1278 1210 -1324ZM1089 -1193Q982 -1212 925 -1351Q938 -1312 967 -1247Q986 -1215 1030.5 -1196.5Q1075 -1178 1083 -1168Q1083 -1171 1086 -1180.5Q1089 -1190 1089 -1193ZM1158 -1141H1044Q1044 -1135 1046.5 -1124Q1049 -1113 1049 -1111Q1089 -1116 1151 -1116Q1152 -1126 1158 -1141ZM1221 -512V-994Q1221 -1010 1186 -1052Q1159 -1085 1135 -1088Q1084 -1095 1093 -1095Q1022 -1095 1002 -1028Q1142 -1028 1142 -991Q1142 -984 1130.5 -969.5Q1119 -955 1117 -947Q1101 -872 1101 -732V-512ZM782 -1026H658Q687 -997 723 -970Q735 -979 782 -1026ZM1929 -1163Q1929 -1224 1890 -1328Q1870 -1382 1825 -1433Q1805 -1456 1768 -1491V-1473Q1769 -1476 1812 -1358Q1856 -1234 1856 -1184Q1856 -1102 1807 -989Q1799 -970 1759 -970Q1726 -970 1714 -981Q1671 -1021 1659 -1067Q1657 -1075 1657 -1087Q1657 -1096 1659 -1118.5Q1661 -1141 1661 -1153Q1661 -1212 1618 -1230Q1614 -1222 1614 -1214Q1614 -1202 1623 -1185.5Q1632 -1169 1632 -1163Q1632 -1156 1621.5 -1122.5Q1611 -1089 1611 -1082Q1611 -1042 1651 -970Q1697 -889 1703 -863Q1708 -843 1705 -790L1684 -363L1700 -14Q1702 26 1693 48Q1677 88 1649 88H1093Q1086 88 1055 111.5Q1024 135 1017 135Q1011 135 979 111.5Q947 88 941 88H411Q367 44 361 33Q347 11 350 -35L368 -350L335 -793Q330 -856 365 -913Q398 -966 431 -1018Q444 -1046 444 -1069Q444 -1076 431 -1119.5Q418 -1163 418 -1170Q418 -1177 427.5 -1199Q437 -1221 438 -1225H423Q394 -1209 388 -1176Q385 -1160 385 -1056Q385 -1047 353 -1013Q316 -975 290 -975Q244 -975 215 -1070Q194 -1138 194 -1181Q194 -1240 225 -1327Q272 -1461 277 -1479Q272 -1484 264 -1486Q171 -1366 159 -1338Q126 -1259 126 -1173Q126 -1129 133 -1102Q149 -1038 187 -942Q220 -858 220 -855Q220 -851 205 -748Q189 -638 185 -592Q157 -244 157 -118Q157 -6 174 106Q181 152 201 180Q214 198 265 237Q321 280 338 280H1733Q1766 280 1816 225Q1866 170 1875 127Q1901 -5 1898 -48L1877 -311V-452Q1877 -545 1870 -593Q1861 -646 1849 -738Q1835 -875 1835 -858Q1835 -865 1866 -950Q1903 -1050 1914 -1086Q1929 -1135 1929 -1163ZM1231 18Q1206 0 1163 -31L1178 -290V-487Q1129 -481 1074 -487L1080 -779Q1083 -789 1085 -881Q1087 -947 1116 -989Q1044 -1001 1022 -1001Q998 -1001 992 -999Q955 -954 955 -941Q955 -933 967 -912Q980 -887 982 -883Q1004 -883 1039 -875Q1064 -858 1064 -811Q1064 -761 1006.5 -684.5Q949 -608 949 -600Q949 -593 972.5 -559Q996 -525 996 -519Q996 -517 983 -415Q969 -307 966 -255Q951 -255 947 -251Q896 -321 792 -448Q776 -465 749 -465Q725 -465 699 -408L783 -32Q783 -19 759 -8Q717 13 710 18ZM761 -484Q739 -511 727 -511H694Q700 -496 711 -470Q741 -485 744 -485Q759 -485 761 -484ZM1053 -963Q1053 -960 1050 -953.5Q1047 -947 1047 -944Q1027 -947 991 -955Q991 -986 1014 -986Q1022 -986 1034 -976Q1051 -964 1053 -963Z"/>
</svg>