<svg xmlns="http://www.w3.org/2000/svg" viewBox="27.1 -1570.9 1967.8 1941.8">
	<path fill="currentColor" d="M1577 31H1519Q1500 31 1438 -19Q1384 -63 1374 -77Q1357 -100 1348 -119Q1313 -194 1321 -267L1393 -772Q1398 -785 1398 -798Q1398 -844 1343 -879Q1298 -908 1262 -908Q1211 -908 1184 -852Q1162 -808 1162 -751L1208 -330Q1208 57 857 57Q725 57 617 -72Q548 -154 532 -212Q479 -402 479 -659Q479 -1008 721 -1064Q675 -1064 600 -1090Q500 -1125 500 -1175Q500 -1221 522 -1246Q534 -1260 604 -1290Q615 -1295 676 -1311Q684 -1313 728 -1313Q844 -1313 915.5 -1240Q987 -1167 987 -1049Q987 -927 864 -666.5Q741 -406 741 -315Q741 -244 774 -188Q815 -117 890 -117Q987 -117 1033 -226Q1064 -301 1064 -392L1018 -779Q1018 -895 1077 -968Q1141 -1046 1257 -1046Q1375 -1046 1448 -973Q1521 -900 1521 -782Q1521 -715 1497 -592Q1477 -502 1457 -411Q1429 -280 1429 -217Q1429 -146 1461 -105Q1477 -84 1554 -23Q1568 -12 1577 8ZM1922 -1157Q1922 -1110 1914 -1079Q1904 -1039 1867 -944Q1834 -859 1834 -854L1875 -495V-279L1896 -74Q1896 45 1852 157Q1796 298 1703 298H339Q333 298 305 283Q270 263 260 259Q205 235 173 179Q136 113 136 -156Q136 -289 168 -664Q170 -692 184 -772Q197 -846 197 -851Q197 -844 173 -904Q147 -968 106 -1100Q100 -1127 100 -1169Q100 -1205 106 -1234Q115 -1278 172 -1381Q235 -1493 264 -1493Q300 -1493 300 -1459Q300 -1455 269 -1365Q233 -1263 219 -1212Q218 -1208 218 -1167Q218 -1082 249 -1030Q273 -990 292 -990Q314 -990 355 -1050Q359 -1099 363 -1149Q380 -1246 431 -1246Q442 -1246 451 -1229Q459 -1216 459 -1208Q459 -1202 448.5 -1179.5Q438 -1157 438 -1151Q438 -1145 448.5 -1107.5Q459 -1070 459 -1064Q459 -1023 441 -986Q435 -974 381 -889Q356 -849 356 -795L384 -348L367 -10Q367 3 390 32.5Q413 62 421 62H943Q949 62 973 80Q997 98 1003 98Q1009 98 1035 80Q1061 62 1068 62H1610Q1621 62 1634.5 47Q1648 32 1648 24Q1650 -36 1642 -154Q1634 -280 1634 -269V-454L1660 -792Q1660 -852 1611 -935.5Q1562 -1019 1562 -1075Q1562 -1081 1572.5 -1113.5Q1583 -1146 1583 -1151Q1583 -1156 1572.5 -1178.5Q1562 -1201 1562 -1208Q1562 -1241 1601 -1241Q1650 -1241 1663 -1142Q1658 -1113 1661 -1060Q1676 -1010 1720 -986Q1724 -985 1734 -985Q1755 -985 1761 -999Q1809 -1107 1809 -1169Q1809 -1216 1770 -1326Q1740 -1406 1711 -1486Q1735 -1498 1750 -1498Q1762 -1498 1793 -1461Q1822 -1429 1868 -1363Q1922 -1249 1922 -1157ZM1547 4Q1391 -108 1403 -212L1501 -810Q1503 -830 1493 -855Q1428 -1021 1262 -1021Q1044 -1021 1044 -761Q1044 -687 1067 -539.5Q1090 -392 1090 -397Q1090 -312 1052 -221Q998 -92 898 -92Q812 -92 760 -163Q715 -224 715 -305Q715 -422 838.5 -669Q962 -916 962 -1046Q962 -1140 924 -1199Q898 -1239 829 -1270Q769 -1298 731 -1298Q677 -1298 610 -1269Q526 -1233 526 -1180Q526 -1140 600 -1113Q656 -1092 693 -1092H846Q872 -1092 916 -1059Q913 -1056 909.5 -1050Q906 -1044 903 -1041Q888 -1067 823 -1067Q505 -1067 505 -643Q505 -156 722 -6Q775 31 859 31Q1182 31 1182 -330L1136 -754Q1136 -793 1153 -840Q1172 -896 1202 -917Q1218 -928 1259 -928Q1419 -928 1419 -777L1342 -264Q1342 -248 1345 -243Q1339 -174 1379 -113Q1429 -36 1512 4Q1524 4 1547 4ZM1901 -1151Q1901 -1221 1853 -1327Q1800 -1443 1743 -1472Q1771 -1397 1798 -1322Q1829 -1230 1829 -1169Q1829 -1088 1781 -978Q1773 -959 1734 -959Q1706 -959 1695 -970Q1645 -1018 1635 -1055Q1633 -1063 1633 -1074Q1633 -1083 1635 -1105.5Q1637 -1128 1637 -1140Q1637 -1197 1595 -1215Q1591 -1207 1591 -1199Q1591 -1188 1599.5 -1171Q1608 -1154 1608 -1149Q1608 -1143 1598 -1110.5Q1588 -1078 1588 -1072Q1588 -1029 1625 -962Q1673 -876 1679 -858Q1680 -855 1680 -785L1660 -361L1675 -17Q1675 31 1668 43Q1645 83 1626 83H1078Q1072 83 1038 103.5Q1004 124 998 124Q991 124 962 103.5Q933 83 928 83H406Q360 37 353 21.5Q346 6 346 -40L364 -351L331 -785Q331 -847 364 -903Q395 -955 426 -1007Q438 -1033 438 -1057Q438 -1063 425.5 -1107Q413 -1151 413 -1157Q413 -1164 422.5 -1185Q432 -1206 433 -1210H418Q389 -1194 383 -1162Q384 -1122 380 -1044Q377 -1021 343 -992.5Q309 -964 290 -964Q245 -964 215 -1054Q192 -1122 192 -1169Q192 -1198 198 -1228Q206 -1266 238 -1354Q268 -1435 268 -1438V-1467Q201 -1405 162 -1315Q125 -1232 125 -1159Q125 -1097 147 -1033Q157 -1005 191 -920Q218 -852 218 -846Q218 -842 203 -741Q187 -632 183 -587Q156 -252 156 -120Q156 -13 173 101Q180 146 204 179Q216 195 267 233Q322 273 339 273H1708Q1722 273 1761 245Q1779 232 1811 194.5Q1843 157 1858 81Q1870 18 1870 -53L1850 -310V-454Q1850 -549 1839 -621Q1823 -725 1822 -731Q1809 -876 1809 -851Q1809 -856 1844 -950Q1882 -1054 1894 -1100Q1901 -1127 1901 -1151ZM755 -1181Q750 -1175 750 -1170Q729 -1182 707 -1191Q695 -1186 659 -1197L665 -1206Q692 -1216 708 -1216Q733 -1216 755 -1181Z"/>
</svg>