<svg xmlns="http://www.w3.org/2000/svg" viewBox="27.6 -1545.4 1953.7 1927.7">
	<path fill="currentColor" d="M1481 16Q1478 19 1472 28Q1466 37 1463 40Q1438 28 1386 11Q1277 -12 1211 -148Q1155 -262 1155 -376V-507Q1155 -534 1141 -568Q1122 -612 1096 -612Q1073 -612 1054 -568Q1042 -541 1046 -416Q1047 -397 1053 -307Q1058 -238 1056 -197Q1052 -92 994.5 -34Q937 24 842 24Q733 24 658 -64Q589 -145 589 -248Q589 -290 654 -483Q683 -565 738 -728Q774 -828 811 -928Q859 -1065 859 -1140Q859 -1255 815 -1273Q742 -1281 669 -1289Q544 -1310 544 -1369Q544 -1391 561 -1395Q733 -1438 727 -1438Q753 -1438 792 -1418Q895 -1365 936 -1298Q971 -1241 971 -1150Q971 -1100 969 -1093Q927 -971 842 -726Q798 -604 754 -483Q707 -344 707 -284Q707 -176 753 -123Q763 -111 792.5 -97Q822 -83 831 -83Q878 -83 911.5 -114.5Q945 -146 946 -192L941 -475Q941 -640 994 -686Q1004 -694 1052 -707Q1097 -719 1109 -719Q1147 -719 1184 -685Q1221 -651 1234 -605Q1239 -587 1248 -457Q1255 -350 1288 -198Q1308 -105 1481 16ZM1909 -1135Q1909 -1055 1865.5 -944Q1822 -833 1822 -834L1863 -478V-264L1883 -60Q1883 -6 1871 73Q1863 128 1821 205Q1764 310 1697 310H338Q308 310 229 252Q190 223 173 191Q150 147 147 109Q136 -20 136 -141Q136 -336 173 -687Q175 -709 187 -769Q197 -823 197 -829Q197 -819 172 -883.5Q147 -948 107 -1078Q100 -1110 100 -1147Q100 -1178 107 -1212Q116 -1255 173 -1357Q234 -1468 263 -1468Q299 -1468 299 -1435Q299 -1431 268 -1342Q232 -1241 219 -1190Q218 -1186 218 -1145Q218 -1131 224 -1069Q225 -1054 246 -1016Q271 -969 294 -969Q302 -969 323.5 -990.5Q345 -1012 353 -1029Q358 -1080 364 -1131Q381 -1224 431 -1224Q439 -1224 448 -1208.5Q457 -1193 457 -1186Q457 -1180 447 -1157.5Q437 -1135 437 -1129Q437 -1123 447 -1083.5Q457 -1044 457 -1038Q457 -1003 439 -965Q434 -955 382 -871Q355 -829 355 -775L383 -332L365 4Q365 16 387 45.5Q409 75 419 75H938Q944 75 968.5 93Q993 111 999 111Q1004 111 1029 93Q1054 75 1061 75H1605Q1642 75 1635 -65Q1633 -98 1628 -178Q1623 -248 1623 -254V-437L1649 -773Q1649 -837 1600.5 -918.5Q1552 -1000 1552 -1051Q1552 -1057 1562.5 -1089Q1573 -1121 1573 -1127Q1573 -1132 1562.5 -1155.5Q1552 -1179 1552 -1186Q1552 -1219 1590 -1219Q1626 -1219 1639 -1186Q1643 -1175 1652 -1120Q1647 -1092 1650 -1039Q1670 -981 1708 -965Q1712 -964 1723 -964Q1743 -964 1749 -978Q1797 -1086 1797 -1147Q1797 -1189 1758 -1300Q1729 -1381 1700 -1462Q1722 -1473 1741 -1473Q1748 -1473 1760 -1459Q1779 -1438 1780 -1437Q1839 -1386 1876 -1294Q1909 -1210 1909 -1135ZM1404 -13Q1378 -33 1325 -92Q1306 -112 1283 -147Q1252 -237 1239 -325Q1230 -394 1222 -463Q1222 -509 1214 -590Q1205 -631 1159 -671Q1127 -699 1109 -699Q1066 -699 1014 -671Q988 -657 980.5 -617.5Q973 -578 966 -539L971 -238Q974 -201 960 -132Q940 -91 891 -63Q889 -62 849 -62Q686 -62 686 -284Q686 -374 818.5 -730.5Q951 -1087 951 -1155Q951 -1240 889 -1319Q820 -1407 729 -1407Q737 -1407 576 -1378L569 -1369Q579 -1364 596 -1348Q589 -1333 611 -1322Q642 -1306 691 -1305Q732 -1305 773 -1305Q807 -1302 830 -1288Q885 -1255 885 -1142Q885 -1073 786 -786Q733 -637 679 -488Q659 -431 638 -375Q615 -303 615 -251Q615 -161 673 -84Q739 4 842 4Q1000 4 1026 -156Q1035 -210 1028 -300Q1020 -423 1020 -432Q1020 -517 1023 -536Q1038 -633 1099 -633Q1124 -633 1152 -598.5Q1180 -564 1180 -533V-361Q1180 -265 1248 -125Q1282 -54 1355 -30Q1372 -23 1404 -13ZM1888 -1127Q1888 -1191 1844 -1293Q1793 -1409 1731 -1447Q1817 -1204 1817 -1147Q1817 -1068 1769 -957Q1761 -938 1723 -938Q1695 -938 1684 -949Q1634 -996 1625 -1033Q1623 -1041 1623 -1053Q1623 -1062 1624.5 -1083Q1626 -1104 1626 -1115Q1626 -1175 1584 -1193Q1580 -1185 1580 -1177Q1580 -1166 1589 -1149.5Q1598 -1133 1598 -1127Q1598 -1129 1588 -1100.5Q1578 -1072 1578 -1048Q1578 -1004 1618 -935Q1662 -859 1667 -834Q1669 -824 1669 -763L1649 -345L1664 -4Q1664 46 1658 56Q1635 96 1615 96H1071Q1065 96 1034 116Q1003 136 997 136Q990 136 959 116Q928 96 922 96H404Q356 48 348 26Q345 19 345 -24L363 -332L330 -765Q330 -827 359 -876Q422 -983 424 -986Q437 -1014 437 -1035Q437 -1041 424 -1085Q411 -1129 411 -1135Q411 -1142 420.5 -1163Q430 -1184 431 -1188H416Q388 -1173 382 -1140Q383 -1101 379 -1023Q376 -1000 342 -972Q308 -944 289 -944Q244 -944 214 -1033Q192 -1100 192 -1147Q192 -1175 198 -1205Q206 -1243 238 -1331Q268 -1411 268 -1414V-1443Q202 -1382 162 -1292Q126 -1209 126 -1137Q126 -1085 137 -1046Q148 -1007 185 -914Q218 -831 218 -826Q218 -823 203 -722Q187 -614 183 -569Q156 -234 156 -106Q156 0 173 114Q180 158 204 191Q216 207 267 244Q321 284 338 284H1697Q1720 284 1765 241Q1801 206 1810 191Q1836 147 1846 94Q1858 33 1858 -39L1837 -294V-432Q1837 -522 1830 -570Q1822 -622 1810 -712Q1797 -839 1797 -829Q1797 -835 1827 -919Q1863 -1017 1874 -1052Q1888 -1098 1888 -1127ZM722 -1374Q722 -1367 719 -1359.5Q716 -1352 716 -1347Q714 -1347 711 -1344Q708 -1341 701 -1341Q676 -1341 676 -1374Q676 -1397 701 -1397Q722 -1397 722 -1374Z"/>
</svg>