<svg viewBox="0 0 21.120935 8.4"
   xmlns="http://www.w3.org/2000/svg">
  <path
     style="fill:currentColor; stroke:none"
     d=" M 0.9 0  L 0.9 1.41  Q 0.69 2.13 0 2.28  L 0 3  Q 0.69 3.15 0.9 3.930002  L 1.89 8.4  L 3.120001 8.4  L 3.120001 0.78  Q 11.550001 7.920002 18.27 8.339997  Q 20.189999 8.249998 20.759996 7.440002  Q 21.330002 6.630001 20.999996 5.820001  Q 20.669994 5.009999 19.874994 4.784999  Q 19.080002 4.559999 18.494997 5.174999  Q 17.909998 5.790001 18.299999 6.45  Q 18.689999 7.110001 19.289999 6.795001  Q 19.889997 6.48 19.559994 5.730001  Q 20.159996 5.64 20.009996 6.495  Q 19.859997 7.350002 18.27 7.440002  Q 12.000001 6.510001 4.59 0.75  L 4.59 0  L 0.9 0  Z  M 2.43 0.78  L 2.43 7.800001  L 1.53 3.840001  Q 1.26 2.88 0.72 2.7  L 0.72 2.609999  Q 1.26 2.43 1.5 1.59  L 1.59 0.78  L 2.43 0.78  Z " />
</svg>