<svg xmlns="http://www.w3.org/2000/svg" viewBox="0 -2048 2048 2048">
	<path fill="#000000" d="M2172 -233Q2172 -106 2089 -31Q2078 -21 2038 -4.5Q1998 12 1984 12Q1947 12 1911 -12Q1871 -39 1838 -121Q1812 -50 1785 -22Q1778 -15 1740.5 0Q1703 15 1693 15Q1636 15 1593.5 -22Q1551 -59 1539 -115Q1538 -140 1534 -190Q1533 -196 1528 -216Q1523 -233 1523 -243Q1523 -234 1562 -382H1507V-364Q1507 -335 1509.5 -278Q1512 -221 1512 -193Q1512 25 1440 72Q1380 111 1367 111H386Q371 111 337.5 91Q304 71 296 56.5Q288 42 274 10Q249 -45 245 -106Q244 -115 244 -228Q244 -240 248.5 -264Q253 -288 253 -300V-379Q227 -381 180 -395Q158 -407 129 -444Q100 -481 100 -504Q100 -561 105 -589Q106 -593 117 -609Q126 -629 170 -672Q209 -696 243 -703Q252 -704 271 -709Q284 -790 284 -833Q284 -837 251.5 -926Q219 -1015 219 -1047Q219 -1081 245 -1155Q250 -1169 294.5 -1231.5Q339 -1294 345 -1294Q349 -1294 387 -1281Q380 -1261 364 -1220Q348 -1184 331 -1149Q313 -1106 313 -1074Q313 -1037 327 -1000Q330 -982 339 -946Q345 -928 367 -928Q375 -928 394.5 -951.5Q414 -975 414 -984Q414 -990 412 -1003Q410 -1016 410 -1022Q410 -1057 415 -1074Q418 -1085 434 -1099.5Q450 -1114 460 -1114Q468 -1114 479 -1103Q490 -1092 490 -1084Q490 -1078 482 -1061Q474 -1044 474 -1040Q474 -1032 480.5 -1016Q487 -1000 487 -992Q487 -938 454.5 -890.5Q422 -843 422 -833Q419 -734 419 -745Q419 -680 428 -656Q429 -654 452 -635Q455 -637 1329 -637Q1346 -751 1346 -805Q1346 -828 1302 -893Q1272 -937 1272 -978Q1272 -989 1280 -1013Q1288 -1037 1288 -1048Q1288 -1050 1278.5 -1064.5Q1269 -1079 1269 -1085Q1269 -1111 1293 -1111Q1335 -1111 1345 -1061Q1348 -1047 1348 -978Q1348 -969 1368 -950Q1388 -931 1397 -931Q1407 -931 1421.5 -954Q1436 -977 1438 -989Q1446 -1043 1446 -1078Q1446 -1118 1416.5 -1181Q1387 -1244 1387 -1245V-1284Q1392 -1284 1401 -1285.5Q1410 -1287 1415 -1287Q1432 -1287 1456 -1253Q1476 -1230 1507 -1177Q1537 -1099 1537 -1054Q1537 -936 1481 -864Q1466 -845 1466 -831Q1466 -819 1474 -793Q1482 -764 1483 -753Q1483 -753 1483 -678Q1483 -659 1491 -637H1890Q1895 -637 1955 -620Q2022 -601 2089 -506Q2172 -388 2172 -233ZM1514 -1036Q1514 -1169 1417 -1264H1413V-1239Q1413 -1241 1445 -1179Q1448 -1170 1454 -1151Q1469 -1105 1469 -1041Q1469 -986 1447 -956Q1421 -921 1420 -913Q1419 -905 1393 -905Q1390 -905 1387 -906Q1324 -949 1324 -977Q1324 -982 1326.5 -991.5Q1329 -1001 1329 -1006Q1329 -1087 1296 -1087V-1079Q1311 -1057 1311 -1048Q1311 -1037 1303 -1014Q1295 -991 1295 -980Q1295 -942 1332.5 -891.5Q1370 -841 1370 -815Q1370 -815 1355 -637H1465Q1458 -670 1458 -765Q1458 -776 1450 -798Q1442 -820 1442 -831Q1442 -853 1455 -870Q1474 -895 1476 -900Q1514 -985 1514 -1036ZM2146 -238Q2146 -471 1975 -585Q1938 -610 1903 -610H472Q481 -589 481 -582Q481 -568 474 -568Q466 -568 460 -582Q455 -593 451 -603Q429 -635 398 -650Q330 -682 300 -682Q246 -682 187 -654Q124 -624 124 -508Q124 -477 160 -442.5Q196 -408 228 -408H1612Q1664 -408 1684 -354Q1677 -347 1671 -347L1666 -349Q1656 -361 1645 -372.5Q1634 -384 1614 -384Q1615 -384 1588 -381Q1546 -268 1546 -243Q1546 -235 1552 -217.5Q1558 -200 1558 -192Q1567 -8 1693 -8Q1704 -8 1732.5 -19Q1761 -30 1768 -38Q1811 -86 1822 -143Q1824 -173 1831 -234Q1836 -240 1846 -240H1847Q1853 -234 1853 -196Q1853 -173 1853 -149Q1855 -124 1882 -81.5Q1909 -39 1932 -26.5Q1955 -14 1996 -14Q2002 -14 2004 -15Q2146 -62 2146 -238ZM465 -1083Q461 -1088 458 -1088Q432 -1088 432 -1024Q432 -1017 434.5 -1003.5Q437 -990 437 -983Q437 -963 412 -934Q387 -905 367 -905Q325 -905 316 -940Q290 -1041 290 -1078Q290 -1113 315 -1174Q335 -1221 355 -1268L351 -1269Q321 -1227 291 -1185Q260 -1138 253 -1089Q245 -1031 245 -1045Q245 -1005 276 -923Q307 -841 307 -836L296 -708Q307 -706 354 -688.5Q401 -671 403 -671Q395 -741 395 -743V-836Q395 -840 429 -890.5Q463 -941 463 -991Q463 -999 457 -1016Q451 -1033 451 -1042Q451 -1054 465 -1083ZM1334 -130Q1334 -157 1329 -210Q1324 -263 1324 -290V-381H435Q436 -353 436 -333Q436 -313 435 -273.5Q434 -234 434 -214.5Q434 -195 429.5 -156.5Q425 -118 425 -99Q425 -64 445 -64H833Q850 -52 881 -26Q886 -31 929 -64H1314Q1334 -73 1334 -130ZM1489 -195Q1489 -199 1485 -293Q1482 -368 1485 -381H1349Q1350 -364 1349 -336Q1348 -302 1348 -292Q1348 -276 1352.5 -244.5Q1357 -213 1357 -197V-87Q1357 -78 1338.5 -57.5Q1320 -37 1311 -37H931Q897 -10 887 -10Q884 -10 880 -11Q877 -10 871 -11Q830 -37 831 -37H451Q434 -37 417.5 -57.5Q401 -78 402 -96Q411 -207 411 -208V-381H276V-313Q276 -290 271.5 -242Q267 -194 267 -171Q267 -53 302 17Q305 26 313 44Q315 48 346.5 68Q378 88 383 88H1364Q1370 88 1405 66Q1440 44 1445 38Q1489 -18 1489 -195Z"/>
</svg>