<svg xmlns="http://www.w3.org/2000/svg" viewBox="0 -2048 2048 2048">
	<path fill="currentColor" d="M1526 -1252Q1526 -1198 1453 -1124Q1392 -1063 1344 -1041Q1357 -968 1353 -933Q1322 -670 1213 -573Q1118 -490 906 -490Q873 -490 813 -494Q801 -495 698 -513Q690 -519 678 -523Q671 -539 654 -569Q638 -579 610 -605Q582 -644 582 -669Q582 -720 616 -788Q658 -864 700 -940Q729 -1000 758 -1061Q797 -1139 833 -1184Q856 -1213 962 -1261Q966 -1263 1015 -1263Q1150 -1263 1202 -1195Q1300 -1294 1427 -1294Q1526 -1294 1526 -1252ZM1931 -1160Q1931 -1079 1891 -983Q1843 -868 1843 -858L1885 -494V-283L1905 -71Q1905 26 1869 137Q1815 303 1711 303H340Q310 303 230 244Q186 211 169 172Q151 128 148 99Q136 -35 136 -154Q136 -347 174 -706Q176 -724 187 -789Q198 -849 198 -855Q198 -851 163 -932Q119 -1034 106 -1102Q100 -1133 100 -1172Q100 -1267 207 -1439Q243 -1497 265 -1497Q301 -1497 301 -1464Q301 -1460 270 -1370Q234 -1267 220 -1216Q219 -1212 219 -1170Q219 -1086 251 -1032Q275 -992 293 -992Q322 -992 356 -1053Q361 -1104 367 -1155Q384 -1250 435 -1250Q443 -1250 452 -1234Q461 -1218 461 -1211Q461 -1205 450.5 -1182.5Q440 -1160 440 -1154Q440 -1148 450.5 -1110.5Q461 -1073 461 -1067Q461 -1025 443 -988Q438 -977 383 -890Q358 -850 358 -796L386 -347L368 -7Q368 5 390.5 35Q413 65 423 65H948Q954 65 979 83.5Q1004 102 1010 102Q1015 102 1040.5 83.5Q1066 65 1073 65H1618Q1630 65 1643 50.5Q1656 36 1656 27Q1658 -33 1650 -152Q1642 -279 1642 -268V-453L1668 -793Q1668 -855 1619 -939.5Q1570 -1024 1570 -1077Q1570 -1083 1580.5 -1116Q1591 -1149 1591 -1154Q1591 -1159 1580.5 -1181.5Q1570 -1204 1570 -1211Q1570 -1245 1609 -1245Q1657 -1245 1671 -1144Q1666 -1115 1669 -1062Q1684 -1012 1728 -988Q1732 -987 1743 -987Q1763 -987 1769 -1001Q1818 -1111 1818 -1172Q1818 -1215 1779 -1327Q1749 -1409 1720 -1491Q1734 -1498 1764 -1508Q1931 -1352 1931 -1160ZM1500 -1239V-1256Q1466 -1273 1430 -1273Q1348 -1273 1299 -1234Q1247 -1194 1198 -1090Q1190 -1072 1145 -1029Q1142 -1032 1136 -1036Q1130 -1040 1127 -1043Q1172 -1093 1209 -1159L1103 -1045Q1094 -1054 1090 -1054V-1067Q1143 -1120 1184 -1177Q1143 -1242 1018 -1242Q992 -1242 895 -1196Q859 -1179 854 -1171Q825 -1124 752 -987Q703 -905 615 -738Q608 -723 608 -680Q608 -627 677 -592Q732 -563 777 -563Q813 -563 838 -574Q867 -590 895 -605Q905 -586 904 -582Q894 -570 853 -553.5Q812 -537 790 -537Q784 -537 746 -545Q708 -553 691 -554Q722 -527 750 -523Q827 -511 904 -511Q1234 -511 1294 -767Q1329 -915 1329 -949Q1329 -955 1326 -989Q1323 -1023 1323 -1034Q1208 -983 1179 -983Q1177 -983 1172 -1001Q1237 -1021 1302 -1058L1163 -1016Q1161 -1023 1158 -1027Q1166 -1053 1218 -1064Q1268 -1071 1363 -1093Q1433 -1116 1482 -1207Q1500 -1240 1500 -1239ZM1910 -1154Q1910 -1225 1861 -1331Q1807 -1447 1746 -1476Q1777 -1417 1806 -1328Q1838 -1228 1838 -1172Q1838 -1091 1790 -980Q1782 -961 1743 -961Q1714 -961 1703 -972Q1653 -1020 1643 -1057Q1641 -1065 1641 -1076Q1641 -1086 1643 -1108.5Q1645 -1131 1645 -1143Q1645 -1201 1603 -1219Q1599 -1211 1599 -1203Q1599 -1191 1607.5 -1174.5Q1616 -1158 1616 -1152Q1616 -1146 1606 -1113Q1596 -1080 1596 -1074Q1596 -1031 1633 -966Q1680 -883 1687 -860Q1689 -854 1689 -786L1668 -360L1684 -14Q1684 34 1677 46Q1654 86 1634 86H1083Q1076 86 1045 106.5Q1014 127 1008 127Q1002 127 970 106.5Q938 86 932 86H408Q362 40 355 23Q348 9 348 -38L366 -350L332 -786Q332 -863 412 -978Q440 -1018 440 -1059Q440 -1065 427.5 -1109.5Q415 -1154 415 -1160Q415 -1167 424.5 -1188.5Q434 -1210 435 -1214H420Q391 -1198 385 -1165Q386 -1125 382 -1046Q379 -1023 344.5 -994.5Q310 -966 291 -966Q246 -966 216 -1059Q193 -1128 193 -1172Q193 -1201 199 -1231Q207 -1269 239 -1358Q269 -1440 269 -1443V-1471Q126 -1339 126 -1162Q126 -1112 138 -1071.5Q150 -1031 186 -937Q219 -853 219 -848Q219 -844 204 -742Q188 -633 184 -587Q157 -252 157 -118Q157 -7 174 105Q181 152 205 183Q222 205 273.5 241Q325 277 340 277H1716Q1732 277 1776 240Q1809 212 1820 199Q1853 159 1867 84Q1880 16 1880 -51L1859 -309V-454Q1859 -541 1848 -616Q1832 -725 1831 -732Q1818 -877 1818 -853Q1818 -859 1845 -928Q1876 -1009 1886 -1040Q1910 -1117 1910 -1154ZM986 -961Q986 -961 979 -942Q972 -939 945 -918Q927 -905 904 -905Q898 -905 890.5 -907.5Q883 -910 878 -910Q872 -910 872 -896H847V-912Q847 -940 868.5 -959Q890 -978 917 -978Q918 -978 986 -961ZM836 -633Q835 -632 832 -623.5Q829 -615 821 -615Q816 -615 794 -628Q772 -641 764 -641Q749 -641 736 -615Q733 -618 726.5 -621Q720 -624 717 -627Q718 -640 737.5 -653.5Q757 -667 769 -667Q791 -667 836 -633ZM940 -945L900 -952Q887 -939 883 -939L928 -931Z"/>
</svg>