<svg xmlns="http://www.w3.org/2000/svg" viewBox="0 -2048 2048 2048">
	<path fill="#000000" d="M1596 -1281Q1575 -1245 1508.5 -1183Q1442 -1121 1423 -1086Q1350 -951 1316 -724Q1293 -568 1241 -255Q1227 -177 1163 -103Q1094 -23 1024 -23Q952 -23 888 -69Q818 -119 785 -208Q774 -237 741 -408Q723 -509 690 -673Q661 -804 632 -935Q580 -1101 458 -1213Q435 -1234 411 -1282Q418 -1289 434 -1289Q482 -1289 573 -1209Q633 -1152 694 -1095Q707 -1114 707 -1144V-1270Q707 -1269 692 -1389Q698 -1396 698 -1401H726Q732 -1398 741 -1390Q786 -1291 803 -1258Q845 -1178 888 -1126Q891 -1135 933 -1273Q961 -1366 994 -1426Q1008 -1426 1011 -1421Q1056 -1352 1091 -1185Q1094 -1168 1108 -1131Q1145 -1174 1203 -1279Q1254 -1371 1292 -1406Q1310 -1394 1310 -1368Q1310 -1362 1299.5 -1291.5Q1289 -1221 1289 -1215Q1289 -1140 1302 -1085Q1308 -1097 1421 -1194Q1542 -1299 1570 -1299Q1589 -1299 1596 -1281ZM1912 -1131Q1912 -1060 1868.5 -944.5Q1825 -829 1825 -829L1866 -470V-244Q1866 -238 1874 -145Q1882 -52 1882 -46Q1882 35 1875 77Q1866 132 1824 210Q1768 314 1710 314H333Q313 314 251 271Q195 231 188 221Q157 175 152 144Q135 43 135 -138Q135 -332 163.5 -583.5Q192 -835 192 -814Q192 -824 132 -979Q126 -995 111 -1046Q100 -1084 100 -1141Q100 -1258 190 -1385Q249 -1468 263 -1468Q294 -1468 294 -1432Q294 -1428 263 -1334Q228 -1229 218 -1189Q217 -1185 217 -1141Q217 -1004 291 -962Q333 -991 353 -1027Q357 -1076 361 -1125Q376 -1217 426 -1217Q438 -1217 447.5 -1202.5Q457 -1188 457 -1182Q457 -1176 447 -1154Q437 -1132 437 -1126Q437 -1120 447 -1082.5Q457 -1045 457 -1039Q457 -998 440 -964Q426 -935 374 -856Q355 -827 355 -768L383 -324L365 8Q365 32 415 80H934Q940 80 966 97.5Q992 115 998 115Q1004 115 1030.5 97Q1057 79 1063 79H1608Q1617 79 1628.5 68Q1640 57 1640 46Q1642 -10 1634 -127Q1626 -249 1626 -240V-444L1652 -773Q1652 -823 1603.5 -908.5Q1555 -994 1555 -1049Q1555 -1055 1565 -1087.5Q1575 -1120 1575 -1126Q1575 -1132 1562.5 -1154.5Q1550 -1177 1550 -1184Q1550 -1192 1566 -1204.5Q1582 -1217 1591 -1217Q1643 -1217 1650 -1132Q1652 -1082 1653 -1032Q1674 -995 1707 -963Q1711 -962 1723 -962Q1747 -962 1752 -976Q1800 -1105 1800 -1141Q1800 -1192 1761 -1300Q1706 -1453 1703 -1462Q1707 -1462 1722 -1467.5Q1737 -1473 1744 -1473Q1749 -1473 1801 -1416Q1912 -1294 1912 -1131ZM1284 -1074Q1250 -1207 1283 -1365Q1243 -1297 1165 -1170Q1160 -1162 1132 -1128Q1111 -1101 1111 -1095Q1111 -1094 1130 -999Q1149 -899 1153 -865ZM1554 -1262Q1413 -1185 1279 -1014Q1143 -839 1129 -710Q1122 -680 1109 -628Q1100 -590 1083 -521Q1072 -469 1050 -371Q1106 -365 1221 -278Q1223 -296 1245 -433Q1252 -477 1265 -556Q1294 -723 1323 -890Q1378 -1108 1503 -1208Q1521 -1228 1554 -1262ZM886 -1075Q827 -1169 718 -1376V-1348Q726 -1279 731 -1144Q730 -1120 721 -1102Q712 -1084 712 -1082Q712 -1076 736 -1045Q766 -1008 772 -999Q815 -929 853 -860ZM1131 -819Q1104 -1158 1001 -1386Q910 -1139 876 -829L984 -376H1028ZM1892 -1126Q1892 -1186 1844 -1308Q1837 -1326 1780 -1400Q1762 -1423 1738 -1443L1729 -1441Q1820 -1265 1820 -1143Q1820 -1126 1796 -1027Q1782 -971 1773 -956Q1761 -937 1726 -937Q1692 -937 1682 -947Q1639 -991 1628 -1032Q1629 -1076 1629 -1120Q1629 -1186 1598 -1186H1581Q1584 -1173 1592.5 -1151Q1601 -1129 1601 -1123Q1601 -1126 1590.5 -1104.5Q1580 -1083 1580 -1049Q1580 -1001 1614 -943Q1660 -863 1671 -831Q1672 -828 1672 -766L1649 -360L1667 8Q1667 105 1603 105H1068Q1063 105 1033.5 125.5Q1004 146 998 146Q991 146 962.5 125.5Q934 105 929 105H409Q396 105 372 71Q350 41 346 25Q345 21 345 -23Q345 -29 352.5 -103Q360 -177 360 -183V-429L329 -758Q329 -822 353 -864Q388 -924 424 -984Q437 -1009 437 -1031Q437 -1039 424 -1082.5Q411 -1126 411 -1131Q411 -1136 418.5 -1158Q426 -1180 426 -1191Q397 -1188 387 -1154Q372 -1101 377 -1046Q379 -1022 379 -1022Q366 -999 332.5 -968Q299 -937 286 -937Q241 -937 212 -1033Q192 -1102 192 -1143Q192 -1195 256 -1377Q268 -1411 268 -1424Q268 -1434 260 -1442Q125 -1275 125 -1133Q125 -1084 142 -1025Q153 -988 187 -904Q217 -829 217 -824Q217 -818 204 -740Q191 -656 188 -623Q156 -235 156 -99Q156 161 214 212Q302 289 333 289H1705Q1715 289 1746 267.5Q1777 246 1792 227Q1820 191 1829 165Q1847 115 1849 98Q1861 15 1861 -33L1841 -281V-505L1800 -822Q1806 -856 1852 -973Q1892 -1076 1892 -1126ZM957 -366V-383Q957 -389 947 -431Q935 -479 933 -495Q872 -921 568 -1177Q502 -1233 458 -1257Q476 -1235 509 -1198Q628 -1083 688 -808Q730 -590 772 -372Q784 -329 791 -278Q858 -340 957 -366ZM1213 -251Q1110 -349 1009 -349Q933 -349 846 -296Q799 -267 799 -237Q799 -213 842 -154Q882 -100 913 -76Q949 -48 1024 -48Q1057 -48 1063 -50Q1110 -67 1160 -135.5Q1210 -204 1213 -251Z"/>
</svg>