<svg xmlns="http://www.w3.org/2000/svg" viewBox="26.2 -1569.8 1991.5 1965.5">
	<path fill="currentColor" d="M1362 -84H693V-107H832Q682 -197 682 -263V-1290Q682 -1302 721 -1352Q756 -1396 766 -1405Q785 -1421 813 -1432Q848 -1446 933 -1453Q956 -1455 1006 -1455Q1097 -1455 1163 -1442Q1193 -1436 1252 -1411Q1262 -1407 1307 -1364Q1357 -1317 1357 -1302V-277Q1357 -263 1322 -209.5Q1287 -156 1273 -147Q1246 -128 1191 -106Q1195 -102 1362 -107ZM1944 -1148Q1944 -1071 1904 -973Q1856 -855 1856 -844L1898 -475V-246Q1898 -240 1905.5 -146Q1913 -52 1913 -46Q1913 24 1911 45Q1906 96 1865 189Q1806 322 1733 322H337Q331 322 269.5 285Q208 248 199 239Q161 199 153 149Q136 48 136 -137Q136 -335 164.5 -590.5Q193 -846 193 -831Q193 -834 160 -923Q122 -1025 106 -1088Q100 -1111 100 -1161Q100 -1201 106 -1229Q116 -1276 174 -1379Q236 -1491 263 -1491Q273 -1491 297 -1479V-1436Q297 -1435 263 -1344Q227 -1247 220 -1212Q219 -1207 219 -1161Q219 -1109 237 -1053Q260 -982 297 -982Q323 -982 358 -1043Q362 -1093 367 -1142Q382 -1236 430 -1236Q463 -1236 463 -1203Q463 -1197 453 -1174Q443 -1151 443 -1145Q443 -1139 453 -1099.5Q463 -1060 463 -1054Q463 -1012 446 -978Q417 -931 389 -885Q360 -836 360 -779L388 -332L370 8Q370 31 420 84H949Q956 84 983.5 102Q1011 120 1017 120Q1023 120 1048 101.5Q1073 83 1080 83H1634Q1643 83 1654.5 70Q1666 57 1667 44Q1669 -13 1661 -129Q1653 -252 1653 -242V-449L1679 -789Q1679 -835 1630 -925Q1581 -1015 1581 -1065Q1581 -1071 1591 -1105.5Q1601 -1140 1601 -1145Q1601 -1150 1588 -1173Q1575 -1196 1575 -1203Q1575 -1223 1620 -1236Q1667 -1236 1677 -1147Q1679 -1100 1680 -1053Q1713 -983 1740 -978Q1744 -977 1755 -977Q1775 -977 1781 -991Q1830 -1101 1830 -1158Q1830 -1210 1790 -1323Q1733 -1481 1732 -1485Q1736 -1485 1749.5 -1490.5Q1763 -1496 1770 -1496Q1776 -1496 1836 -1433Q1888 -1378 1918 -1289Q1944 -1213 1944 -1148ZM1336 -287V-1292Q1336 -1301 1304.5 -1334Q1273 -1367 1252 -1379Q1200 -1410 1142 -1421Q1101 -1429 1012 -1429Q881 -1429 808 -1400Q796 -1395 752 -1351Q702 -1301 702 -1280V-289Q702 -253 739.5 -207.5Q777 -162 818 -142Q834 -134 918 -117Q925 -116 938 -110Q951 -104 957 -104Q1027 -104 1132 -121Q1196 -131 1257 -162Q1284 -175 1300 -206Q1309 -226 1317 -245Q1336 -282 1336 -287ZM1924 -1145Q1924 -1212 1877 -1316Q1826 -1427 1769 -1466L1758 -1464Q1851 -1281 1851 -1161Q1851 -1123 1826 -1047Q1819 -1019 1802 -970Q1792 -951 1755 -951Q1720 -951 1710 -961Q1666 -1005 1655 -1047Q1655 -1046 1656 -1137Q1656 -1192 1613 -1210L1610 -1192Q1627 -1143 1627 -1143Q1627 -1137 1617 -1104Q1607 -1071 1607 -1065Q1607 -1017 1642 -956Q1688 -873 1698 -843Q1700 -837 1700 -776L1677 -366L1695 11Q1695 53 1688 64Q1661 104 1645 104H1090Q1084 104 1051.5 127.5Q1019 151 1012 151Q1006 151 975 127.5Q944 104 938 104H410Q398 104 373 69Q351 37 350 29.5Q349 22 349 -20Q349 -26 357 -101.5Q365 -177 365 -183V-434L334 -771Q334 -813 335 -818Q341 -850 381 -915Q443 -1017 443 -1047Q443 -1053 430 -1097.5Q417 -1142 417 -1148Q417 -1166 437 -1201L422 -1206Q397 -1194 382 -1130Q378 -1112 380 -1082Q384 -1040 384 -1036Q384 -1026 350 -993Q312 -956 289 -956Q242 -956 214 -1048Q193 -1114 193 -1161Q193 -1206 205 -1249Q215 -1283 244 -1363Q270 -1433 270 -1436V-1465Q187 -1373 164 -1328Q126 -1252 126 -1153Q126 -1061 158 -994Q219 -866 219 -839Q219 -836 204 -733Q187 -623 184 -579Q157 -240 157 -98Q157 -57 174 123Q178 166 200 197Q214 216 264 255Q318 297 337 297H1728Q1766 297 1818 234Q1867 173 1875 123Q1892 14 1892 -33L1872 -283V-512L1830 -836Q1833 -856 1880 -978Q1924 -1090 1924 -1145Z"/>
</svg>