<svg xmlns="http://www.w3.org/2000/svg" viewBox="25.8 -1581.2 2003.4 1977.4">
	<path fill="currentColor" d="M1955 -1157Q1955 -1082 1914 -981Q1866 -863 1866 -851L1908 -480V-250Q1908 -243 1916 -149.5Q1924 -56 1924 -49Q1924 24 1922 43Q1916 100 1876 189Q1817 322 1737 322H339Q311 322 211 247Q165 212 154 147Q137 46 137 -143Q137 -339 165.5 -596Q194 -853 194 -838Q194 -841 159 -937Q120 -1043 107 -1096Q100 -1125 100 -1170Q100 -1289 209 -1443Q250 -1501 268 -1501Q277 -1501 299 -1490V-1446Q299 -1446 267 -1359Q232 -1265 222 -1221Q221 -1216 221 -1170Q221 -1117 239 -1061Q262 -989 299 -989Q323 -989 360 -1051Q364 -1101 368 -1152Q385 -1251 437 -1251Q445 -1251 449 -1248Q453 -1245 455 -1245Q455 -1241 460.5 -1229.5Q466 -1218 466 -1211Q466 -1204 455.5 -1182.5Q445 -1161 445 -1154Q445 -1147 455.5 -1108.5Q466 -1070 466 -1063Q466 -1022 448 -986Q446 -981 385 -885Q362 -848 362 -786L390 -336L372 6Q372 28 423 82H954Q961 82 988 100Q1015 118 1022 118Q1029 118 1054 100Q1079 82 1086 82H1643Q1652 82 1663.5 69Q1675 56 1676 42Q1678 -16 1670 -132Q1662 -257 1662 -246V-454L1688 -796Q1688 -842 1638.5 -932.5Q1589 -1023 1589 -1073Q1589 -1079 1599.5 -1114Q1610 -1149 1610 -1154Q1610 -1159 1597 -1181.5Q1584 -1204 1584 -1211Q1584 -1232 1626 -1245Q1676 -1245 1687 -1156Q1688 -1109 1690 -1061Q1722 -990 1749 -985Q1753 -984 1764 -984Q1786 -984 1791 -998Q1840 -1133 1840 -1170Q1840 -1219 1801 -1326Q1745 -1480 1741 -1495Q1746 -1495 1761.5 -1501Q1777 -1507 1783 -1507Q1785 -1507 1846 -1443Q1898 -1388 1929 -1299Q1955 -1222 1955 -1157ZM1302 -421Q1290 -410 1283 -410H775V-448Q775 -488 819 -558Q861 -624 896 -647Q936 -673 975 -684Q1021 -697 1062 -697Q1109 -697 1167 -663.5Q1225 -630 1252 -591Q1284 -546 1293 -475Q1293 -471 1297.5 -458.5Q1302 -446 1302 -439ZM1934 -1154Q1934 -1226 1887 -1328Q1837 -1436 1779 -1476L1767 -1474Q1861 -1289 1861 -1170Q1861 -1131 1836 -1055Q1829 -1027 1812 -978Q1802 -958 1764 -958Q1730 -958 1719 -969Q1675 -1013 1664 -1055Q1664 -1054 1665 -1145Q1665 -1201 1622 -1219Q1620 -1197 1628 -1176.5Q1636 -1156 1636 -1154Q1636 -1152 1625.5 -1124Q1615 -1096 1615 -1073Q1615 -1025 1650 -963Q1698 -881 1708 -850Q1709 -847 1709 -783L1686 -373L1704 8Q1704 51 1697 62Q1670 102 1654 102H1096Q1089 102 1058 123Q1027 144 1020 144Q1009 144 977.5 123.5Q946 103 943 103H412Q363 53 354 31Q351 23 351 -23Q351 -30 359 -105Q367 -180 367 -187V-438L335 -778Q335 -837 364 -893Q366 -897 427 -996Q445 -1025 445 -1055Q445 -1062 432 -1106Q419 -1150 419 -1157Q419 -1173 440 -1210L425 -1215Q396 -1199 389 -1165Q390 -1124 386 -1050Q381 -1022 348.5 -992.5Q316 -963 291 -963Q244 -963 215 -1056Q194 -1123 194 -1172Q194 -1216 206 -1258Q216 -1292 246 -1373Q272 -1443 272 -1446V-1475Q230 -1429 165 -1338Q126 -1261 126 -1162Q126 -1070 159 -1001Q221 -871 221 -846Q221 -843 205 -739Q189 -629 185 -585Q158 -246 158 -101Q158 14 170 90Q182 169 201 195Q216 216 269.5 256Q323 296 339 296H1737Q1764 296 1816 247Q1903 166 1903 -36L1882 -287V-517L1840 -843Q1843 -863 1890 -986Q1934 -1099 1934 -1154ZM1275 -437Q1268 -461 1261 -501Q1259 -559 1190.5 -615Q1122 -671 1056 -671Q997 -671 901 -621Q876 -608 838.5 -548.5Q801 -489 801 -464V-437Z"/>
</svg>