<svg xmlns="http://www.w3.org/2000/svg" viewBox="27.1 -1549.9 1967.8 1946.8">
	<path fill="currentColor" d="M1213 -375H1127V-1289Q1127 -1313 1082 -1333Q1045 -1349 1026 -1349Q996 -1349 966 -1325Q936 -1301 936 -1270V0H850V-1310Q849 -1354 917 -1408Q958 -1441 1026 -1441Q1086 -1441 1145 -1402Q1213 -1358 1213 -1296ZM1922 -1128Q1922 -1067 1887 -971Q1835 -829 1835 -828L1876 -464V-237Q1876 -231 1883.5 -138.5Q1891 -46 1891 -40Q1891 -36 1890 -1Q1889 34 1889 49Q1889 102 1843 198Q1783 324 1698 324H339Q311 324 229 266Q202 247 184 220Q153 173 147 127Q136 39 136 -133Q136 -333 164 -582Q192 -831 192 -815Q192 -818 157 -912Q118 -1016 106 -1069Q100 -1095 100 -1144Q100 -1250 196 -1394Q245 -1467 264 -1467Q295 -1467 295 -1436Q295 -1449 224 -1217Q218 -1197 218 -1141Q218 -1081 218 -1080Q221 -1066 250 -1004Q269 -964 292 -964Q308 -964 332 -994Q354 -1020 355 -1029Q361 -1084 367 -1140Q381 -1209 426 -1221H443Q459 -1188 459 -1182Q459 -1176 449 -1155Q439 -1134 439 -1128Q439 -1122 449 -1082.5Q459 -1043 459 -1036Q459 -992 442 -960Q410 -910 379 -860Q357 -825 357 -767L385 -323L367 13Q367 40 411 83H933Q939 83 968 103.5Q997 124 1003 124Q1008 124 1039.5 103.5Q1071 83 1078 83H1621Q1648 60 1648 49Q1648 -7 1641 -122Q1634 -237 1634 -233V-438L1660 -774Q1660 -825 1611.5 -907Q1563 -989 1563 -1049Q1563 -1055 1573 -1088Q1583 -1121 1583 -1126Q1583 -1131 1570 -1154.5Q1557 -1178 1557 -1185Q1557 -1207 1601 -1216Q1652 -1216 1661 -1128Q1661 -1081 1661 -1034Q1692 -959 1732 -959Q1743 -959 1757 -969Q1761 -972 1785 -1046.5Q1809 -1121 1809 -1141Q1809 -1187 1771 -1295Q1742 -1378 1712 -1460Q1726 -1467 1756 -1477Q1834 -1411 1880 -1308Q1922 -1214 1922 -1128ZM1188 -400V-1311Q1188 -1325 1165 -1353Q1111 -1416 1024 -1416Q946 -1416 897 -1358Q869 -1325 870 -1295V-21H915V-1280Q916 -1315 950.5 -1345Q985 -1375 1024 -1375Q1057 -1375 1098 -1354Q1152 -1325 1152 -1279V-400ZM1901 -1126Q1901 -1176 1863 -1286Q1830 -1381 1738 -1446Q1829 -1258 1829 -1144Q1829 -1087 1782 -958Q1777 -950 1764 -940Q1760 -940 1749 -936.5Q1738 -933 1732 -933Q1706 -933 1695 -944Q1646 -991 1636 -1029Q1636 -1029 1637 -1118Q1637 -1172 1595 -1190Q1593 -1169 1601 -1148.5Q1609 -1128 1609 -1126Q1609 -1120 1598.5 -1086Q1588 -1052 1588 -1046Q1588 -1003 1624 -939Q1670 -855 1679 -827Q1681 -821 1681 -761L1658 -359L1675 16Q1675 108 1621 108H1078Q1071 108 1040 128.5Q1009 149 1003 149Q996 149 965 129Q934 109 928 109H406Q357 60 349 39Q346 30 346 -15Q346 -21 354 -95.5Q362 -170 362 -176V-423L331 -756Q331 -798 332 -802Q340 -840 363 -878Q439 -1007 439 -1033Q439 -1039 426 -1080.5Q413 -1122 413 -1128Q413 -1137 423.5 -1157Q434 -1177 434 -1182Q434 -1194 427 -1195Q387 -1170 382 -1117Q381 -1070 380 -1023Q377 -1000 342 -969.5Q307 -939 287 -939Q243 -939 214 -1025Q192 -1091 192 -1146Q192 -1185 204 -1228Q214 -1262 243 -1341Q269 -1410 269 -1413V-1440H258Q126 -1292 126 -1134Q126 -1076 142 -1022Q153 -985 187 -902Q218 -828 218 -823Q218 -820 203 -719Q186 -610 183 -567Q156 -228 156 -92Q156 -86 163 50Q164 72 183 168Q186 181 204 205Q217 221 268 258Q322 298 339 298H1703Q1735 298 1786 245.5Q1837 193 1843 158Q1871 -1 1871 -28L1850 -274V-500L1809 -820Q1813 -844 1859 -966Q1901 -1078 1901 -1126Z"/>
</svg>