<svg xmlns="http://www.w3.org/2000/svg" viewBox="0 -2048 2048 2048">
	<path fill="currentColor" d="M1751 -702Q1751 -668 1676 -462Q1614 -289 1593 -242Q1542 -154 1461 18Q1461 59 1458 122Q1450 204 1348 280Q1256 348 1189 348Q1183 348 1170 340.5Q1157 333 1152 333Q1145 333 1131 340.5Q1117 348 1110 348Q1073 348 984 227Q945 173 862 67V348H830Q818 330 806 279Q791 218 786 206Q771 176 746 120Q768 121 792 97Q816 73 814 45Q750 35 623 4L558 8Q594 31 622 77Q644 117 667 157V175Q661 181 644 181Q616 181 581 148Q520 91 509 83Q496 96 496 101Q496 125 512 152Q541 202 606 243Q655 273 704 302Q714 348 652 348Q594 348 512 289Q430 230 409 169Q403 127 390 44Q383 9 341 -68Q282 -176 273 -195Q247 -252 182 -431Q100 -657 100 -715Q100 -771 166 -907Q207 -987 249 -1067Q296 -1160 388 -1354Q407 -1396 457 -1435.5Q507 -1475 545 -1475Q551 -1475 608 -1457Q675 -1436 702 -1430Q754 -1418 915 -1418Q1061 -1418 1061 -1418Q1107 -1424 1204 -1450Q1295 -1475 1298 -1475Q1364 -1475 1405 -1422Q1438 -1379 1473 -1317.5Q1508 -1256 1618 -1026Q1751 -748 1751 -702ZM1730 -712Q1730 -710 1716 -749Q1662 -900 1562 -1094Q1478 -1248 1395 -1401Q1366 -1454 1301 -1454Q1313 -1454 1173.5 -1423Q1034 -1392 866 -1392Q767 -1392 656.5 -1420.5Q546 -1449 548 -1449Q461 -1449 390 -1297Q362 -1243 312 -1146Q255 -1032 171 -854Q126 -759 126 -712Q126 -612 299 -200Q343 -119 405 8Q415 34 420 85Q427 152 429 164Q434 189 508 254Q586 322 624 321H673Q657 304 588 260Q528 221 507 188Q470 131 470 93Q470 86 485.5 71Q501 56 509 56Q516 56 561 96Q615 142 635 155Q612 109 606 98Q586 64 562 43Q526 19 481 -20Q467 -45 456 -99Q449 -138 441 -176Q417 -284 340 -536Q331 -559 294 -642Q261 -714 261 -720Q261 -724 288 -773Q359 -898 493 -1143Q517 -1191 541 -1239Q578 -1309 592 -1309Q598 -1309 631 -1292Q664 -1275 675 -1273Q744 -1258 800 -1255Q820 -1254 884 -1250Q940 -1246 946 -1246Q1043 -1246 1155 -1268Q1176 -1272 1219 -1286Q1257 -1298 1262 -1298Q1282 -1298 1301 -1258Q1311 -1235 1320 -1211Q1357 -1142 1488 -903Q1590 -718 1590 -712Q1590 -706 1566 -654Q1536 -592 1529 -573.5Q1522 -555 1435 -265Q1424 -218 1406 -145Q1395 -100 1364 -26Q1360 -20 1291 51Q1240 104 1229 145Q1285 99 1352 51Q1371 80 1371 103Q1371 170 1318 221Q1279 257 1173 315L1223 322Q1340 286 1400 201Q1410 187 1437 81Q1433 58 1435 18Q1471 -50 1530 -169Q1634 -406 1681 -539Q1730 -679 1730 -712ZM1564 -709Q1564 -716 1450 -927Q1307 -1190 1265 -1272Q1215 -1258 1133 -1237Q1076 -1225 959 -1225Q732 -1225 596 -1277Q541 -1170 452 -1005Q428 -962 347 -832Q282 -728 282 -722Q282 -716 309 -664Q339 -605 348 -581Q391 -463 442 -263Q452 -217 473 -143Q481 -105 490 -68Q501 -24 535 -11Q580 -59 669 -108Q765 -162 821 -162Q934 -162 1178 -13Q1178 -7 1176 0.5Q1174 8 1174 10Q1136 -6 1103 -6Q1061 -6 992 9Q932 23 871 37Q1075 322 1110 322Q1120 322 1136 310Q1152 298 1152 286Q1152 276 1136 260Q1120 244 1110 244Q1099 244 1081 281Q1075 279 1063 272V258Q1089 218 1118 218Q1138 218 1180 280Q1214 269 1224 263Q1246 250 1290 211Q1344 162 1344 143V88Q1309 117 1273 146Q1234 176 1196 176Q1191 176 1178 163Q1197 128 1236 66Q1287 22 1343 -34Q1381 -121 1416 -266Q1465 -461 1476.5 -499.5Q1488 -538 1528 -627Q1564 -708 1564 -709ZM1084 -32Q986 -102 923 -114Q944 -83 944 -61Q944 -33 923 3Q1028 -18 1084 -32ZM918 -58Q918 -131 837 -131Q756 -131 756 -58Q756 -27 780 -6Q804 15 839 15Q918 15 918 -58ZM761 8Q730 -23 730 -56Q730 -75 758 -120Q670 -90 595 -23Q617 -21 761 8ZM832 280V93Q809 121 777 131Q820 228 832 280ZM1178 -67Q1178 -64 1175 -55Q1172 -46 1172 -43Q1095 -87 1018 -132Q892 -199 837 -199Q780 -199 682.5 -148.5Q585 -98 540 -43Q537 -46 533.5 -52Q530 -58 527 -61Q563 -96 632 -150Q766 -225 834 -225Q902 -225 1013 -164Q1096 -115 1178 -67Z"/>
</svg>