<svg xmlns="http://www.w3.org/2000/svg" viewBox="0 -2048 2048 2048">
	<path fill="#000000" d="M1552 -729Q1552 -694 1470 -472Q1399 -279 1378 -235Q1333 -158 1253 11Q1253 50 1250 113Q1242 198 1137 278Q1042 351 973 351Q955 351 939 333Q925 318 925 308Q925 292 948 283Q1086 227 1127 149Q1134 136 1134 110Q1134 88 1131 83Q1118 89 1066 136Q1024 174 991 174H969Q969 172 966 169Q963 166 963 158Q963 160 977 138Q996 100 1034 41Q1072 14 1132 -50Q1139 -62 1178 -199Q1181 -210 1216 -339Q1235 -416 1275 -553Q1286 -586 1325 -664Q1359 -734 1359 -740Q1359 -732 1211 -1007Q1124 -1168 1068 -1296Q1059 -1316 1043 -1316Q1045 -1316 979.5 -1294.5Q914 -1273 842 -1273Q739 -1273 615 -1322L287 -751Q355 -632 415 -411Q462 -238 508 -65Q516 -41 560 -9Q609 26 622 47Q626 54 683 155V173Q681 173 672.5 176Q664 179 657 179Q627 179 591 144Q526 82 521 78Q507 92 507 96Q507 120 524 149Q554 200 618 241Q669 272 721 304Q726 322 706 336.5Q686 351 665 351Q625 351 554 308.5Q483 266 445 216Q424 189 413 123Q400 38 398 33Q385 -5 342 -86Q288 -187 273 -219Q244 -281 181 -458Q100 -685 100 -748Q100 -798 166 -936Q207 -1015 248 -1095Q308 -1209 423 -1438Q465 -1525 553 -1525L794 -1466Q855 -1471 992 -1500Q1109 -1525 1091 -1525Q1112 -1525 1147 -1506Q1179 -1489 1192 -1474Q1217 -1444 1255 -1379Q1277 -1333 1323 -1240Q1366 -1165 1443 -1014Q1552 -770 1552 -729ZM871 318H812V-2Q835 -2 871 -8ZM1525 -735Q1525 -794 1378 -1089Q1244 -1358 1180 -1454Q1168 -1472 1138.5 -1488Q1109 -1504 1091 -1504Q1073 -1504 985 -1474.5Q897 -1445 799 -1445Q728 -1445 637 -1474.5Q546 -1504 553 -1504Q516 -1504 481.5 -1469.5Q447 -1435 413 -1368Q387 -1315 361 -1261Q292 -1129 173 -886Q121 -770 121 -751Q121 -680 208 -448Q268 -289 305 -208Q346 -137 409 -5Q421 27 425 78Q430 138 433 150Q438 171 481 221Q494 236 550 275Q618 324 644 323H689Q629 279 570 235Q503 183 494 128Q492 119 480 80Q486 76 502 62Q514 51 520 51Q527 51 574 91Q630 139 651 152Q634 119 617 86Q596 46 565 26Q495 -19 487 -39Q466 -90 416 -299.5Q366 -509 328 -607Q317 -634 287 -695Q260 -750 260 -751Q260 -764 446 -1055Q493 -1128 521 -1194Q535 -1238 572 -1323Q586 -1348 614 -1348Q620 -1348 697 -1321.5Q774 -1295 837 -1295Q904 -1295 982 -1318Q988 -1320 1014 -1332Q1037 -1343 1043 -1343Q1073 -1343 1084 -1318Q1122 -1231 1315 -873Q1386 -741 1386 -740Q1386 -733 1362 -688Q1334 -638 1329 -624Q1324 -610 1221 -258Q1195 -161 1143 -23Q1128 -1 1068 62Q1021 111 1012 141Q1033 125 1077 93Q1121 61 1142 45Q1161 83 1161 104Q1161 153 1115 206Q1073 255 1018 278Q1008 282 957 317L1008 324Q1061 306 1120 264Q1191 214 1207 167Q1213 150 1229 75Q1225 47 1226 6Q1277 -92 1368 -272Q1381 -299 1449 -491Q1525 -704 1525 -735ZM844 291L833 19V291Z"/>
</svg>