<svg xmlns="http://www.w3.org/2000/svg" viewBox="28.3 -1549.7 1684.4 1935.4">
	<path fill="currentColor" d="M1641 -718Q1641 -687 1575 -501Q1516 -333 1490 -276Q1439 -189 1356 -5Q1354 0 1353 71Q1353 86 1352 97Q1345 171 1245 246Q1152 314 1091 314Q1078 314 1058 297.5Q1038 281 1043 264Q1091 237 1139 211Q1204 171 1242 111L1238 53Q1135 145 1105 145H1083V121Q1099 90 1136 33Q1149 16 1193 -14Q1230 -40 1240 -63Q1258 -105 1302 -273Q1359 -489 1376 -544Q1386 -576 1423 -653Q1457 -724 1457 -728Q1457 -734 1346 -939Q1213 -1185 1166 -1279Q1132 -1273 1049 -1252Q993 -1237 947 -1237Q791 -1237 660 -1254Q660 -1254 585 -1284L279 -736Q342 -628 397 -409Q462 -153 500 -63Q500 -63 570 -6Q594 14 615.5 53.5Q637 93 658 132Q650 150 632 150Q601 150 569 119Q506 56 502 53Q489 64 489 73Q489 117 545 170Q595 217 657 244Q689 258 689 278Q689 314 638 314Q595 314 520 266Q449 219 424 180Q408 154 398 95Q385 19 380 5Q338 -79 255 -251Q228 -308 172 -467Q100 -670 100 -733Q100 -793 137 -867Q164 -920 288 -1164Q328 -1249 367 -1333Q402 -1404 449 -1450Q478 -1478 530 -1478Q530 -1478 633 -1450Q736 -1422 807 -1422Q930 -1422 1072.5 -1450Q1215 -1478 1203 -1478Q1260 -1478 1311 -1416Q1336 -1386 1481 -1100Q1641 -783 1641 -718ZM1324 -508Q1324 -518 1286 -257Q1284 -243 1261 -217Q1236 -188 1219 -188Q1213 -188 1196 -205Q1199 -217 1226 -257Q1223 -261 1205 -268Q1191 -274 1191 -280Q1191 -285 1209 -309Q1227 -333 1230 -345Q1234 -361 1228 -441Q1227 -456 1232 -489.5Q1237 -523 1237 -526Q1237 -571 1147 -659Q1119 -634 1119 -528Q1119 -522 1134.5 -414Q1150 -306 1150 -300Q1150 -258 1128 -246Q1092 -227 1010 -224Q934 -221 883 -185Q907 -94 931 45Q934 63 949.5 106.5Q965 150 965 153Q965 156 958 175Q925 195 856 231Q831 242 791 242Q669 242 669 242Q669 220 671.5 205.5Q674 191 674 192Q695 192 737 171Q791 145 791 112Q791 106 722 -37Q653 -180 653 -224Q653 -262 706 -293Q719 -301 793 -332Q833 -346 873 -360Q913 -374 928 -397Q940 -415 940 -459Q940 -574 895 -664Q860 -632 824 -599Q772 -551 740 -551Q710 -551 690 -574Q673 -594 673 -620Q673 -658 701 -714Q736 -785 770 -857Q830 -955 890 -947Q896 -960 911 -981Q919 -988 1002 -1083Q1047 -1135 1096 -1135Q1139 -1135 1177.5 -1097.5Q1216 -1060 1216 -1015Q1216 -981 1162.5 -910.5Q1109 -840 1109 -825Q1109 -812 1109 -812Q1137 -801 1190 -769Q1265 -708 1322 -560Q1324 -555 1324 -508ZM1196 -1017Q1196 -1050 1159 -1081Q1124 -1109 1091 -1109Q1064 -1109 1038 -1086.5Q1012 -1064 1007 -1044Q1043 -1034 1109 -1014Q1099 -1004 1099 -993Q1131 -979 1131 -950Q1131 -940 1125.5 -920.5Q1120 -901 1121 -894Q1196 -982 1196 -1017ZM975 -813V-847Q955 -850 937 -871Q919 -892 924 -909Q906 -903 878 -892Q895 -875 894 -867Q823 -815 792 -710Q899 -820 975 -813ZM1298 -451V-565Q1298 -590 1229 -682Q1153 -782 1109 -782Q1090 -782 1086 -777Q1083 -786 1083 -818Q1083 -824 1096 -883Q1109 -942 1109 -948Q1109 -955 1091 -972.5Q1073 -990 1070 -999Q1043 -1009 993 -1027Q924 -958 924 -956Q924 -950 937.5 -923Q951 -896 952 -885Q970 -877 1002 -860V-790L998 -787Q987 -787 978.5 -789.5Q970 -792 965 -792Q921 -792 838 -712.5Q755 -633 748 -633Q736 -633 740 -637V-651Q740 -652 780 -755Q804 -818 852 -862Q850 -862 846 -860Q842 -858 835 -858Q822 -858 822 -875L847 -904Q793 -858 716 -693Q699 -657 699 -618Q699 -577 737 -577Q767 -577 827 -637Q894 -704 910 -710Q925 -652 940 -594Q960 -512 960 -462Q960 -386 931 -357Q912 -338 852 -323Q775 -305 730 -282Q861 -275 885 -219Q920 -241 1011 -248Q1098 -254 1124 -275Q1126 -289 1126 -304Q1126 -340 1109.5 -413.5Q1093 -487 1093 -526Q1093 -664 1142 -695Q1160 -684 1211 -615Q1262 -546 1262 -531Q1262 -529 1257 -482.5Q1252 -436 1253 -415Q1255 -390 1258 -364Q1259 -333 1242 -318Q1245 -315 1254 -309.5Q1263 -304 1266 -301ZM1264 -274H1255L1250 -245H1259ZM1616 -725Q1616 -804 1296 -1400Q1265 -1458 1196 -1458Q1192 -1458 1124 -1437Q1050 -1414 1014 -1408Q969 -1401 809 -1401Q738 -1401 733 -1402Q696 -1410 609 -1435Q532 -1458 528 -1458Q510 -1458 477 -1434Q444 -1410 439 -1400Q354 -1238 269 -1076Q120 -785 120 -736Q120 -622 301 -205Q335 -147 390 -36Q401 -8 410 50Q420 121 424 138Q432 168 512.5 228.5Q593 289 620 288H663Q642 268 569 220Q516 184 495 151Q464 102 464 63Q464 53 477 40Q490 27 499 27Q506 27 549 63Q602 107 621 119Q607 91 593 62Q576 29 555 14Q517 -11 470 -53Q453 -84 442 -142Q434 -185 426 -227Q379 -425 326 -570Q309 -618 279 -682Q254 -736 254 -736Q254 -743 332 -877Q433 -1050 461 -1100Q490 -1160 519 -1221Q563 -1309 586 -1309Q592 -1309 632 -1292.5Q672 -1276 686 -1274Q816 -1258 960 -1258Q966 -1258 1058.5 -1278.5Q1151 -1299 1157 -1299Q1187 -1299 1199 -1274Q1208 -1249 1218 -1223Q1259 -1143 1382 -919Q1482 -735 1482 -730Q1482 -724 1459 -680Q1433 -631 1427 -611Q1383 -459 1296 -160Q1285 -115 1251 -38Q1239 -20 1208.5 -0.5Q1178 19 1167 33Q1154 61 1127 114Q1170 81 1249 22Q1267 47 1267 76Q1267 138 1212 189Q1175 222 1073 281L1121 288Q1160 282 1229 231Q1298 180 1311 143Q1335 74 1335 30Q1335 8 1330 -11Q1452 -223 1567 -558Q1616 -701 1616 -725ZM939 165V142Q939 136 920 59Q898 -28 892 -63Q888 -84 873 -127Q861 -163 861 -178Q861 -192 868 -201Q825 -244 801 -244Q793 -244 782 -232.5Q771 -221 771 -213Q771 -209 827 -69.5Q883 70 883 112Q883 193 796 216H819Q836 218 867 200Q874 191 892 178Q908 175 939 165ZM863 111L745 -216Q750 -230 760 -254H707Q683 -255 673 -224L817 120Q817 143 783.5 172.5Q750 202 722 208Q765 196 808 185Q864 165 864 124Q864 118 863 111ZM1042 -963Q1030 -951 1022 -951Q1017 -951 1001.5 -956.5Q986 -962 981 -962V-990Q992 -1002 1004 -1002Q1016 -1002 1042 -963Z"/>
</svg>