<svg xmlns="http://www.w3.org/2000/svg" viewBox="27.4 -1553.6 1556.1 1959.1">
	<path fill="currentColor" d="M1511 -757Q1511 -700 1434 -491Q1376 -335 1344 -263Q1297 -179 1218 -9Q1220 21 1220 78Q1212 163 1113 249Q1018 333 940 333Q896 333 896 295Q896 272 912 264Q936 254 960 244Q1093 181 1093 96Q1093 76 1079 59Q1066 67 1005 116Q960 152 940 152Q916 152 907 134Q926 99 965 35Q968 31 1057 -45Q1101 -83 1112 -135Q1149 -316 1192 -466Q1212 -535 1259 -641Q1300 -735 1300 -737Q1300 -741 1218 -883Q989 -1279 989 -1375Q989 -1400 1016 -1437Q1047 -1481 1082 -1481Q1147 -1481 1182.5 -1429Q1218 -1377 1353 -1116Q1511 -812 1511 -757ZM870 -526H799V-839H870ZM715 292Q715 309 693 322Q676 333 669 333Q657 333 515 259Q431 215 396 68Q399 43 393 -9Q349 -94 267 -263Q239 -325 179 -486Q100 -698 100 -750Q100 -779 150 -890Q241 -1094 303 -1206Q337 -1271 370 -1336Q417 -1422 458 -1458Q478 -1476 524 -1476Q560 -1476 593 -1434Q622 -1397 622 -1373Q622 -1323 579 -1228.5Q536 -1134 419 -921Q317 -734 317 -729Q317 -724 345 -661Q378 -588 388 -559Q426 -453 453 -337Q474 -256 510 -99Q516 -67 600 -11Q613 -2 659 71Q674 91 705 134Q696 152 677 152Q658 152 609 114Q537 59 537 59Q514 67 514 93Q514 148 580 196Q640 239 707 269Q715 282 715 292ZM1486 -765Q1486 -845 1173 -1402Q1164 -1418 1136.5 -1436.5Q1109 -1455 1093 -1455Q1073 -1455 1043 -1429Q1010 -1401 1010 -1378Q1010 -1282 1249 -867Q1325 -735 1325 -737Q1325 -731 1289 -653Q1248 -562 1234 -523Q1206 -445 1187 -357Q1177 -318 1161 -249Q1146 -185 1122 -83Q1117 -60 1062 -19Q1000 27 991 40Q981 68 957 121Q989 96 1020 71Q1068 34 1088 34Q1119 34 1119 96Q1119 207 929 284Q924 287 922 295Q927 300 928 307H946Q1024 290 1098 232Q1183 165 1189 93Q1187 48 1192 -14Q1314 -269 1334 -314Q1411 -486 1445 -609Q1486 -756 1486 -765ZM844 -551V-819Q841 -819 831.5 -816.5Q822 -814 819 -814V-551ZM689 289Q622 267 561 211Q493 149 493 93Q496 34 527 34Q524 34 663 121Q644 81 596 16Q553 -12 504 -53Q473 -126 445 -245Q403 -422 398 -440Q379 -494 344 -595Q332 -629 307 -686Q286 -734 286 -737Q286 -744 387 -925Q515 -1158 553 -1229Q569 -1259 586 -1317Q602 -1369 602 -1380Q602 -1390 568 -1422.5Q534 -1455 521 -1455Q489 -1455 473 -1443Q457 -1431 414 -1356Q381 -1298 293 -1133Q253 -1057 176 -890Q126 -781 126 -745Q126 -712 192 -526Q248 -371 262 -340Q326 -211 419 -9Q417 16 417 57Q428 132 464 177Q539 269 677 307Q680 304 683 298Q686 292 689 289Z"/>
</svg>