<svg xmlns="http://www.w3.org/2000/svg" viewBox="0 -2048 2048 2048">
	<path fill="#000000" d="M1995 -248H1027Q899 -203 835 -203Q768 -203 691 -243Q603 -289 588 -351Q606 -369 626 -369Q636 -369 708.5 -331.5Q781 -294 857 -294Q893 -294 922 -304Q922 -316 908 -316Q902 -316 879 -313Q856 -310 849 -310Q799 -310 755 -338Q755 -357 778 -391Q826 -375 830 -375Q837 -375 881 -383Q925 -391 932 -391Q939 -391 988.5 -369.5Q1038 -348 1045 -348Q1050 -348 1092 -356Q1138 -365 1160 -367Q1427 -396 1469 -396Q1476 -396 1616.5 -382.5Q1757 -369 1763 -369H1777L1814 -783H1968ZM706 -410L693 -396Q683 -400 647 -436Q647 -441 661 -455ZM749 -344Q746 -344 736.5 -341Q727 -338 724 -338Q708 -367 702 -384Q708 -384 716.5 -387.5Q725 -391 727 -391Q733 -376 749 -344ZM641 -465Q641 -456 638 -448.5Q635 -441 635 -440Q615 -446 578 -457Q578 -460 581 -469.5Q584 -479 584 -482Q592 -479 612.5 -473.5Q633 -468 641 -465ZM544 -451Q536 -461 518 -458Q495 -454 472 -450Q465 -457 465 -471Q491 -476 544 -487ZM432 -436Q414 -427 354 -391Q341 -404 341 -417Q367 -431 419 -455Q422 -452 425.5 -445.5Q429 -439 432 -436ZM303 -361Q276 -325 231 -289L217 -302Q244 -339 290 -375ZM201 -227Q201 -222 157 -149Q137 -149 137 -160Q137 -167 181 -240Q201 -240 201 -227ZM147 -94Q139 -57 125 6H105Q113 -34 127 -100Q130 -100 137 -97Q144 -94 147 -94ZM123 167H100V56L123 62ZM1974 -273L1942 -756H1836L1804 -347L1486 -372L1056 -326Q1049 -326 994 -345Q939 -364 932 -364Q925 -364 881 -356Q837 -348 830 -348Q830 -348 782 -354Q809 -332 838 -332Q845 -332 869.5 -334.5Q894 -337 900 -337Q941 -337 934 -338Q954 -335 954 -307V-292Q951 -287 908 -277Q865 -267 846 -267Q800 -267 735 -295Q678 -319 621 -344Q638 -301 713 -261Q784 -224 835 -224Q842 -224 937 -248.5Q1032 -273 1038 -273Z"/>
</svg>