<svg xmlns="http://www.w3.org/2000/svg" viewBox="0 -2048 2048 2048">
	<path fill="#000000" d="M2080 -186H1383V354H1322V-186H731Q716 -179 685 -166Q571 -124 455 -124Q369 -124 245 -178Q100 -242 100 -317Q100 -323 101 -329Q125 -344 149 -348Q158 -346 178 -348Q152 -428 152 -443Q152 -546 270 -625Q239 -635 239 -684Q239 -690 240 -694Q274 -726 389 -726Q463 -726 486 -722Q543 -710 543 -669Q543 -650 522 -630Q522 -630 560.5 -591.5Q599 -553 619 -492Q628 -466 625 -431Q621 -383 621 -380Q718 -330 738 -330Q740 -330 824 -344Q916 -359 962 -364Q1072 -376 1318 -391V-1046Q1219 -1076 1053 -1103Q877 -1131 755 -1133V-1358Q764 -1358 900 -1367Q923 -1369 972 -1372Q1133 -1378 1265 -1416Q1274 -1419 1302 -1436Q1327 -1451 1333 -1451H1381V-390L1783 -350L1819 -926H2034ZM1319 -1071V-1409Q1177 -1354 780 -1332V-1159Q1090 -1131 1319 -1071ZM1357 -387V-1424H1348V-387ZM2054 -207L2008 -905H1845L1804 -319L1248 -371L731 -304Q624 -350 620 -350Q606 -350 589 -316Q610 -296 610 -278Q610 -216 453 -216Q357 -216 325 -233Q152 -324 149 -324Q142 -324 135.5 -321.5Q129 -319 127 -319V-295Q166 -230 271 -187Q364 -150 450 -150Q524 -150 582 -164Q633 -178 685 -192Q695 -199 716 -207ZM1355 328V-185H1346V328ZM517 -669Q517 -683 500 -700H282Q265 -683 265 -674Q265 -664 276.5 -651Q288 -638 296 -638Q300 -638 325.5 -648.5Q351 -659 401 -659Q467 -659 499 -638Q517 -657 517 -669ZM605 -432Q605 -516 542.5 -574.5Q480 -633 396 -633Q328 -633 256 -585Q172 -530 172 -456Q172 -466 191 -388Q208 -317 291 -275Q356 -242 419 -242Q482 -242 543.5 -301Q605 -360 605 -432ZM584 -269Q584 -275 580.5 -286Q577 -297 577 -299Q541 -261 517 -244Q540 -249 584 -269Z"/>
</svg>