<svg xmlns="http://www.w3.org/2000/svg" viewBox="0 -2048 2048 2048">
	<path fill="currentColor" d="M2239 -615H1533Q1512 -556 1375 -339Q1398 -335 1485 -351Q1627 -377 1631 -378V-259L1352 -298L1413 304H1255L1310 -292Q1222 -281 1020 -254V-368L1241 -335L1277 -339L1086 -615H765Q758 -615 747 -608Q736 -601 733 -600Q589 -549 475 -549Q370 -549 260 -602Q123 -668 100 -777Q146 -794 173 -791Q177 -788 182 -793Q154 -851 154 -891Q154 -1006 280 -1093Q272 -1094 259.5 -1120.5Q247 -1147 247 -1156Q247 -1200 414 -1200Q506 -1200 511 -1199Q576 -1190 576 -1143Q576 -1132 554 -1099Q669 -1003 669 -879Q669 -848 658 -826Q768 -773 789 -773Q794 -773 893 -791Q1004 -812 1048 -818Q1050 -819 1056 -826Q1055 -839 1055 -852Q1055 -957 1147 -1016Q1222 -1063 1315 -1063Q1536 -1063 1562 -837Q1563 -835 1570 -829Q1690 -817 1913 -789L1962 -1418H2184ZM2212 -643L2162 -1397H1984L1934 -762L1568 -805Q1561 -740 1540 -643ZM1506 -845Q1480 -992 1309 -992Q1300 -992 1280 -991Q1257 -990 1252 -990Q1214 -989 1167 -946Q1118 -900 1118 -857V-823ZM1539 -793Q1539 -895 1499 -949Q1435 -1036 1309 -1036Q1162 -1036 1103 -936Q1076 -890 1081 -852V-822Q1083 -917 1157 -973Q1221 -1020 1307 -1020Q1405 -1020 1491 -943Q1529 -889 1529 -794Q1529 -760 1526 -730H1536Q1539 -760 1539 -793ZM1604 -287V-346L1419 -316Q1481 -307 1604 -287ZM1462 -613H1151L1329 -341ZM548 -1145Q548 -1153 542.5 -1161.5Q537 -1170 537 -1172H306Q287 -1172 275 -1160V-1142Q282 -1127 305 -1107Q337 -1129 398 -1129Q405 -1129 458 -1118Q511 -1107 518 -1107Q528 -1107 538 -1120.5Q548 -1134 548 -1145ZM1506 -748V-817H1335Q1210 -817 934 -777Q908 -773 842 -759Q783 -746 778 -746Q771 -746 724.5 -770.5Q678 -795 671 -795H643Q625 -758 625 -760Q625 -758 636 -735.5Q647 -713 647 -689Q585 -647 488 -647Q458 -647 396 -656Q329 -667 312 -676Q145 -768 149 -768Q134 -768 127 -761V-742Q166 -670 288 -620Q394 -576 480 -576Q600 -576 722 -621Q779 -642 776 -642H1478Q1506 -727 1506 -748ZM1233 -311Q1182 -316 1048 -340V-281ZM642 -883Q642 -980 579.5 -1041Q517 -1102 414 -1102Q327 -1102 260 -1051Q182 -993 182 -896Q182 -806 262 -742Q338 -680 431 -680Q515 -680 578.5 -740Q642 -800 642 -883ZM619 -703V-728L612 -735Q588 -714 549 -682Q573 -687 619 -703ZM1386 276L1328 -198L1283 282H1378Z"/>
</svg>