<svg xmlns="http://www.w3.org/2000/svg" viewBox="17.7 -667.3 2222.6 1055.6">
	<path fill="currentColor" d="M2158 241H750Q535 306 458 306Q363 306 235 238Q104 168 100 108V90Q134 67 160 67Q162 67 225 105Q293 147 326 158Q392 181 475 181Q534 181 590 165L595 161V151Q586 138 575 138Q568 138 527.5 143.5Q487 149 480 149Q396 149 334 97Q344 83 368 35Q416 62 450 62Q457 62 530.5 53.5Q604 45 611 45Q666 45 713.5 72.5Q761 100 763 100L1314 37L1839 68L1893 -530H2109ZM833 -327Q833 18 448 18Q317 18 216 -55Q100 -140 100 -278Q100 -353 107 -382Q123 -447 188 -514Q258 -585 320 -585Q406 -585 447 -412Q423 -412 423 -411Q428 -437 400 -471Q328 -457 328 -337Q328 -204 491 -204Q555 -204 589 -268Q616 -318 616 -381Q616 -419 600 -450Q580 -487 545 -487Q527 -487 512 -452Q500 -424 500 -411Q497 -414 487.5 -417.5Q478 -421 475 -424Q495 -485 540 -532Q590 -585 643 -585Q658 -585 685 -571Q719 -553 736 -541Q769 -516 787 -486Q821 -427 831 -376Q833 -366 833 -327ZM2131 213L2087 -508H1915Q1890 -213 1869 81Q1868 94 1852 94L1385 62Q1266 62 757 127Q763 127 711.5 97Q660 67 608 67Q601 67 530.5 78Q460 89 453 89Q425 89 379 67Q367 79 367 93Q435 127 472 127Q479 127 519.5 121.5Q560 116 567 116Q606 116 606 116Q610 119 622 173Q543 208 472 208Q381 208 299 175Q273 164 211 128Q156 94 154 94Q148 94 139 97Q130 100 128 100V119Q155 181 273 233Q381 279 461 279Q576 279 701 234Q723 224 755 213ZM724 -512Q681 -552 632 -552Q597 -552 556 -511Q579 -495 602 -479Q633 -454 633 -439Q652 -434 685.5 -462.5Q719 -491 724 -512ZM393 -500Q370 -557 317 -557Q279 -557 241 -523Q272 -460 325 -460Q350 -460 393 -500ZM812 -337Q812 -407 749 -492Q686 -419 644 -415Q648 -177 480 -177Q301 -177 301 -335Q301 -346 317 -426Q271 -449 217 -503Q127 -424 127 -278Q127 -204 140 -179Q230 -9 461 -9Q812 -9 812 -337Z"/>
</svg>