<svg xmlns="http://www.w3.org/2000/svg" viewBox="0 -2048 2048 2048">
	<path fill="currentColor" d="M2362 -298Q2362 -273 2277 -223Q2158 -153 1900 -93Q1524 -6 1264 -6Q969 -6 639 -75Q241 -158 100 -294Q100 -299 102 -309Q191 -397 591 -493Q971 -585 1186 -585Q1336 -585 1542 -559Q1698 -539 1979 -468Q2362 -370 2362 -298ZM2326 -308Q2228 -374 2032 -426Q1860 -467 1689 -507V-72Q2094 -153 2283 -258Q2316 -276 2326 -308ZM1657 -66V-518Q1567 -530 1476 -542Q1375 -555 1252 -555Q1102 -555 805 -506V-72Q1070 -30 1216 -30ZM775 -78V-507Q284 -401 135 -295Q202 -235 311 -193Q350 -178 531 -129Q724 -78 754 -78Z"/>
</svg>