<svg xmlns="http://www.w3.org/2000/svg" viewBox="0 -2048 2048 2048">
	<path fill="#000000" d="M2038 -452Q2038 -425 2043 -345Q2046 -305 2037 -267H1239Q1233 -262 1239 -68Q1284 -140 1360 -172Q1382 -182 1493 -209Q1538 -209 1558.5 -206Q1579 -203 1573 -203Q1573 -200 1570.5 -193.5Q1568 -187 1568 -184Q1511 -187 1421 -171Q1378 -163 1315 -111Q1249 -57 1236 -14L1239 150Q1308 51 1552 -32Q1552 -29 1555 -19.5Q1558 -10 1558 -7Q1445 25 1389 53Q1280 108 1237 196Q1235 200 1235 306H1210Q1212 191 1207.5 178.5Q1203 166 1148 117Q1041 22 925 1Q881 -7 861 -7V-27H904Q965 -27 1072.5 30Q1180 87 1207 140Q1210 130 1210 56Q1210 55 1212 36.5Q1214 18 1214 5Q1213 -13 1208 -23Q1158 -117 1031 -153Q969 -171 840 -179Q840 -182 837.5 -191.5Q835 -201 835 -204H920Q945 -204 1034 -175Q1112 -149 1120 -144Q1167 -116 1207 -69Q1210 -72 1205 -267H624Q619 -267 567 -254Q511 -240 488 -237Q366 -220 319 -220Q183 -220 183 -376Q183 -448 215 -458Q213 -461 171 -483Q134 -502 126 -529V-552Q127 -558 139 -558Q146 -558 181.5 -545Q217 -532 223 -532H287V-982Q225 -1055 100 -1201V-1220H515Q527 -1208 527 -1202Q527 -1195 452 -1112Q360 -1010 334 -977L339 -536Q344 -531 352 -533Q365 -537 380 -537Q423 -537 498 -495Q598 -439 613 -433L1056 -511H1210V-1347Q1210 -1350 1197 -1383Q1157 -1486 1019 -1486Q948 -1486 896 -1443Q837 -1394 837 -1310Q837 -1297 839 -1283H814V-1321Q814 -1393 877 -1452.5Q940 -1512 1014 -1512Q1071 -1512 1134 -1478Q1213 -1435 1226 -1364Q1226 -1363 1230.5 -1354Q1235 -1345 1235 -1338V-516Q1510 -508 1737 -438L1794 -995H2016ZM2022 -288L1995 -974H1820L1752 -412Q1370 -490 1290 -490H1236V-288ZM485 -1192H137L311 -996ZM1209 -288V-490H1161Q1087 -492 873 -463Q821 -456 709 -430Q605 -407 603 -407Q595 -407 514 -459Q433 -511 409 -511H335V-465Q376 -473 387 -466L382 -448L265 -449Q204 -449 204 -366Q204 -246 347 -246Q397 -246 603 -288ZM287 -470V-505Q243 -510 163 -520Q170 -513 209 -493Q253 -470 270 -470Z"/>
</svg>