<svg xmlns="http://www.w3.org/2000/svg" viewBox="0 -2048 2048 2048">
	<path fill="#000000" d="M2208 -412Q2208 -388 2123 -346Q1910 -241 1655 -205Q1579 -194 1344 -182V129L1313 135V-177Q1301 -183 1276 -185Q955 -210 810 -242Q577 -293 441 -409Q170 -245 126 129H100Q116 52 179 -157Q201 -218 289 -314Q385 -419 452 -440Q563 -483 786 -557Q1071 -637 1323 -637Q1720 -637 2062 -500Q2208 -442 2208 -412ZM2174 -419Q2023 -499 1807 -552Q1567 -610 1337 -610Q1161 -610 858 -546Q525 -475 478 -406Q599 -316 834 -262Q1060 -209 1298 -209Q1858 -209 2157 -394Q2174 -407 2174 -419Z"/>
</svg>