<svg xmlns="http://www.w3.org/2000/svg" viewBox="0 -2048 2048 2048">
	<path fill="currentColor" d="M1992 95H903Q883 101 840 111Q836 107 836 119Q836 139 871 197Q903 181 913 181Q922 181 937 211Q922 216 889 238Q896 266 916 306Q913 309 906.5 312.5Q900 316 897 319L843 255Q829 260 805 271Q805 269 801.5 262Q798 255 798 247Q798 242 825 215Q763 122 758 122Q751 122 747.5 124.5Q744 127 737 127Q684 127 648 97Q607 64 607 7Q607 -9 628 -51Q617 -56 598.5 -67Q580 -78 569 -111Q588 -128 598 -126H601L100 -825Q112 -831 141 -835.5Q170 -840 199 -844Q239 -850 256 -865Q268 -875 370 -992Q497 -684 739 -113Q793 -110 818 -100Q837 -92 883 -63Q922 -38 929 -38Q913 -38 1069 -67.5Q1225 -97 1369 -97Q1534 -97 1745 -43H1759L1802 -453H1971ZM1965 68L1949 -432H1823L1775 -16H1756Q1686 -31 1617 -46Q1466 -75 1374 -75Q1291 -75 926 -11Q919 -11 861.5 -48Q804 -85 768 -85H746Q748 -78 767 -62V-41L763 -38Q758 -38 746.5 -35.5Q735 -33 729 -33Q722 -33 702.5 -38Q683 -43 676 -43Q633 -43 633 7Q633 101 734 101Q741 101 824.5 84.5Q908 68 914 68ZM723 -60L364 -950Q266 -809 138 -810Q239 -671 520 -279Q570 -205 677 -67Q684 -59 706 -60ZM829 175Q824 157 813 123H793Q807 140 829 175Z"/>
</svg>