<svg xmlns="http://www.w3.org/2000/svg" viewBox="0 -2048 2048 2048">
	<path fill="#000000" d="M2243 -279Q2160 -171 1821 -101Q1548 -44 1333 -44Q1256 -44 1035 -74Q1004 -78 914 -99Q831 -118 826 -118Q803 -118 769 -56Q743 -8 734 21Q710 102 710 181H683V134Q683 89 719 -4Q758 -102 790 -121Q719 -158 691 -158Q672 -158 632 -102Q568 -13 557 164H530V129Q530 77 571 -26Q615 -133 654 -166Q487 -259 484 -259Q476 -259 457 -239Q430 -212 427 -210Q213 -44 121 181Q115 181 108.5 178Q102 175 100 175Q137 72 217 -32Q420 -294 605 -359Q773 -418 979 -460Q1193 -503 1330 -503Q1530 -503 1782 -454Q2046 -402 2185 -330Q2224 -310 2243 -279ZM2209 -286Q2178 -305 2128 -331Q1730 -474 1364 -474Q1163 -474 913 -420Q633 -360 513 -273Q677 -173 923 -119Q1139 -73 1361 -73Q1540 -73 1798 -125Q2085 -183 2186 -256Q2209 -273 2209 -286Z"/>
</svg>