<svg xmlns="http://www.w3.org/2000/svg" viewBox="26.8 -1606.2 1547.3 1975.3">
	<path fill="currentColor" d="M1501 -274L943 50Q980 215 980 199V227Q977 228 973 228Q955 228 930 208Q905 188 899 171Q868 208 806 208Q781 208 756 194Q737 183 717 171L497 296Q489 276 475 235L699 110V-39Q511 -208 128 -596Q120 -605 105 -722L100 -1329Q100 -1424 106 -1453Q124 -1533 188 -1533Q201 -1533 249 -1518Q381 -1477 381 -1217L355 -700L936 -16L1478 -319Q1484 -304 1501 -274ZM1470 -282L1467 -289L943 14L946 22ZM948 192V173Q941 104 905 -20Q884 -60 830 -117Q790 -157 751 -198Q707 -260 408 -599Q380 -626 351 -653Q334 -672 334 -709L355 -1215Q355 -1374 327 -1427Q309 -1460 239 -1492Q194 -1512 186 -1512Q179 -1512 153.5 -1485.5Q128 -1459 127 -1452Q120 -1418 120 -1337L126 -733Q131 -679 143 -617Q289 -453 509 -249Q719 -54 723 -49Q730 -41 730 -16Q730 -5 727.5 27Q725 59 725 76Q725 181 808 181Q886 181 886 132Q886 120 876 91Q866 62 866 50Q866 35 879 30Q885 30 890 32.5Q895 35 897 35Q887 139 948 192ZM703 141L501 253Q571 222 635 188Q682 163 703 141Z"/>
</svg>