<svg xmlns="http://www.w3.org/2000/svg" viewBox="0 -2048 2048 2048">
	<path fill="currentColor" d="M2066 -899Q2066 -834 2007 -763Q1927 -667 1793 -478Q1617 -230 1586 -189Q1536 -123 1495 -103Q1469 -91 1332 -72Q1090 -44 606 22Q574 27 484 70Q437 92 332 91Q327 96 332 243H268V90Q209 72 191 36Q181 16 181 -30Q181 -72 201 -104Q188 -110 162 -124Q158 -126 130 -169Q130 -178 133 -187Q136 -196 136 -197Q189 -188 268 -182V-535Q268 -640 217 -640Q207 -640 132 -610Q125 -616 100 -653Q146 -716 224 -716Q250 -716 287 -688Q328 -657 328 -628V-182Q361 -182 423 -171Q436 -166 473 -142Q505 -122 511 -122Q515 -122 701 -177Q914 -240 996 -262Q1103 -280 1301 -316Q1328 -321 1382 -400Q1408 -440 1463 -522Q1542 -641 1621 -760Q1719 -898 1823 -988Q1835 -998 1865 -1004Q1876 -1006 1901 -1006Q1950 -1006 2002 -981Q2066 -949 2066 -899ZM2040 -892Q2040 -934 1987 -962Q1944 -985 1906 -985Q1855 -985 1828 -963Q1746 -897 1631 -731Q1534 -586 1438 -441Q1400 -379 1351 -311Q1299 -285 1204 -273Q1079 -258 1067 -255Q992 -237 739 -166Q511 -102 506 -102Q498 -102 459 -127Q420 -152 369 -152Q341 -152 329 -146V-117L360 -122Q364 -115 364 -109Q364 -103 360 -96Q295 -96 267.5 -99Q240 -102 245 -102Q226 -102 212 -74Q201 -52 201 -33Q201 71 339 71Q401 71 474 49Q498 35 540 17Q652 -8 905 -42Q1103 -67 1302 -93Q1388 -105 1491 -129Q1565 -182 1625 -270Q1797 -524 1926 -697Q2040 -850 2040 -892ZM308 -179V-608Q308 -638 277 -664.5Q246 -691 212 -691Q161 -691 130 -653Q135 -648 137 -640Q169 -660 212 -660Q287 -660 288 -566V-179ZM308 -118Q304 -130 289 -152V-118ZM267 -122V-167Q251 -159 236 -160Q199 -163 161 -166Q168 -156 195.5 -139Q223 -122 230 -122ZM305 223V92H296V223Z"/>
</svg>