<svg xmlns="http://www.w3.org/2000/svg" viewBox="22.6 -1626.4 2088.7 1955.7">
	<path fill="currentColor" d="M2034 -915Q2034 -863 1970 -775Q1918 -708 1866 -642Q1772 -502 1678 -362Q1570 -202 1469 -124Q1453 -112 1314 -93Q1065 -62 570 3Q550 6 509 27Q454 54 437 61Q410 71 366 73Q329 75 293 77Q290 80 290 90Q290 123 351 240L338 252Q321 237 271 114Q269 118 247 176Q232 213 206 237Q195 237 182 224Q223 191 254 90V76Q228 71 182 45Q151 10 151 -48Q151 -89 177 -125Q156 -137 135 -148Q110 -165 100 -191V-208L112 -220Q163 -195 185 -194H213Q213 -215 201 -268Q186 -334 183 -351Q130 -707 130 -813Q130 -900 161 -966Q200 -1051 277 -1051Q343 -1051 374 -1015Q390 -997 409 -924Q428 -855 428 -823Q428 -836 414 -689Q398 -525 375 -402Q353 -316 330 -218V-198Q365 -192 400 -186Q448 -176 475 -143L1080 -306Q1078 -312 948 -383Q814 -456 787 -456Q781 -456 719 -440Q648 -422 618 -417Q631 -376 643 -336Q662 -283 685 -258Q682 -255 676 -252Q670 -249 667 -246Q642 -270 605 -379Q596 -369 576 -321Q558 -278 533 -256L515 -274Q577 -328 588 -426Q514 -450 495 -473Q479 -491 479 -543Q479 -584 510 -628Q509 -629 464 -657Q464 -664 467 -684Q470 -704 470 -712Q498 -704 558 -692Q563 -697 560 -704Q464 -1108 464 -1331Q464 -1369 477 -1422Q492 -1481 512 -1502Q521 -1512 555 -1530.5Q589 -1549 603 -1549Q684 -1549 725 -1472Q757 -1411 757 -1323Q757 -1248 714 -951Q706 -896 659 -696Q801 -669 1020 -563Q1176 -481 1333 -400Q1382 -475 1484 -624Q1562 -738 1641 -851Q1778 -1026 1873 -1026Q1918 -1026 1972 -995Q2034 -959 2034 -915ZM736 -1321Q736 -1399 709 -1454Q675 -1524 605 -1524Q537 -1524 508 -1434Q490 -1379 490 -1313Q490 -1187 527 -962Q563 -749 588 -693H632Q662 -783 678 -879Q736 -1227 736 -1321ZM2014 -918Q2014 -949 1952 -976Q1899 -1000 1868 -1000Q1828 -1000 1810 -987Q1705 -909 1590 -737Q1497 -596 1405 -455Q1370 -394 1302 -313Q1273 -296 1208 -294Q1120 -291 1113 -290Q1029 -276 861 -228Q469 -117 462 -117Q463 -117 448 -134.5Q433 -152 396 -167Q379 -174 349 -174Q325 -174 316 -157V-139Q332 -139 336 -135L332 -121Q286 -121 259 -122Q236 -123 236 -123Q172 -123 172 -56Q172 52 318 52Q392 52 452 25Q484 8 539 -13Q594 -22 1293 -114Q1368 -123 1459 -145Q1537 -204 1605 -306Q1666 -399 1727 -493Q1822 -623 1940 -775Q2014 -870 2014 -918ZM1321 -383Q1161 -463 1001 -543Q810 -636 719 -664Q699 -670 662 -669Q609 -668 605 -668Q588 -669 554.5 -675Q521 -681 517 -681H490Q494 -672 515.5 -656.5Q537 -641 541 -641Q548 -641 563.5 -643.5Q579 -646 585 -646Q685 -646 685 -518Q685 -486 683 -475Q679 -451 672 -451L688 -446Q700 -450 740 -467Q774 -482 780 -482Q813 -482 970.5 -397Q1128 -312 1131 -312Q1215 -312 1289 -340Q1305 -346 1321 -383ZM664 -495Q664 -625 587 -625Q500 -625 500 -543Q500 -533 510 -504.5Q520 -476 527 -473Q600 -446 626 -446Q664 -472 664 -495ZM402 -792Q402 -1026 282 -1026Q218 -1026 184 -960Q156 -907 156 -836Q156 -763 187 -527Q214 -324 219 -304Q231 -247 260 -138H289Q402 -641 402 -792ZM233 -144Q222 -167 222 -173Q201 -168 136 -177Q193 -143 216 -144Z"/>
</svg>