<svg xmlns="http://www.w3.org/2000/svg" viewBox="0 -2048 2048 2048">
	<path fill="currentColor" d="M1910 -695Q1910 -633 1846 -557Q1785 -485 1600 -192Q1474 9 1379 44Q1343 57 1038 95Q647 144 535 161Q524 163 443 198Q369 231 323 231Q315 231 274 225V313Q249 311 229 318Q230 272 227 225Q207 217 174 189Q146 150 146 110Q146 95 172 43Q171 40 135.5 14Q100 -12 100 -34Q106 -41 106 -46H122Q127 -46 150.5 -36Q174 -26 180 -26H218V-193Q218 -338 216 -282Q218 -333 235 -369Q251 -402 316 -402Q403 -402 403 -306Q403 -250 365 -227Q345 -235 331 -249Q357 -301 357 -309Q357 -355 316 -355Q276 -355 268 -305Q269 -309 269 -247L274 21Q293 29 325 26V51H273Q266 51 249 46Q232 41 226 41Q212 41 192 68.5Q172 96 172 102Q172 119 192.5 155.5Q213 192 226 194Q284 205 311 205Q355 205 416 177Q487 145 513 140Q651 115 933 84.5Q1215 54 1352 29Q1384 23 1446 -56Q1471 -88 1655 -344Q1721 -431 1788 -519Q1885 -653 1885 -695Q1885 -721 1879 -726Q1851 -747 1773 -775Q1767 -777 1748 -777Q1682 -777 1587 -655Q1534 -578 1481 -500Q1470 -485 1325 -269Q1302 -226 1241 -151Q1220 -133 1162 -125Q1116 -120 1070 -115Q980 -101 926 -86Q456 46 462 46Q452 46 402.5 20Q353 -6 326 -6Q319 -6 313.5 -3.5Q308 -1 306 -1V-26H364Q361 -26 468 20L1015 -132Q794 -268 748 -268Q746 -268 704 -256Q654 -243 602 -235Q591 -224 592 -195Q593 -153 593 -150H548Q546 -160 541 -243Q455 -262 455 -345Q455 -369 491 -429Q477 -436 445 -454V-509Q473 -499 514 -489H547V-851Q547 -952 637 -952Q679 -952 707 -918Q732 -888 732 -854Q732 -833 722 -809Q709 -777 689 -777Q683 -777 660 -800Q686 -839 686 -852Q686 -864 671.5 -882.5Q657 -901 642 -901Q630 -901 613 -887Q593 -872 593 -858V-498Q626 -500 690 -492Q895 -424 1254 -216Q1294 -280 1384 -406Q1461 -519 1538 -631Q1668 -803 1756 -803Q1807 -803 1856 -772Q1910 -738 1910 -695ZM1242 -199Q1103 -271 964 -342Q702 -474 663 -474Q657 -474 606.5 -468.5Q556 -463 550 -463Q535 -463 465 -477Q485 -459 562 -452Q624 -446 648 -388Q650 -383 650 -334Q650 -263 650 -263H667Q673 -263 743 -294L1069 -139Q1118 -146 1167 -154Q1226 -164 1242 -199ZM630 -322Q630 -422 558 -422Q480 -422 480 -345Q480 -258 581 -258Q630 -258 630 -322ZM251 24V-241H242V24ZM217 20V0Q172 0 142 -15Q157 7 217 20Z"/>
</svg>