<svg viewBox="-0.7 -0.8 20.2 16.6"
   xmlns="http://www.w3.org/2000/svg"
   version="1.0">
  <path
     style="fill:currentColor;stroke:none"
     d="M 13.205216,1.255382 L 13.205216,1.255382 C 13.497855,1.405434 13.841874,1.896837 14.229618,2.020812 C 15.50637,1.971439 17.733828,1.750017 17.780531,3.15021 C 17.842452,4.972546 14.617905,4.142057 14.202707,4.333041 C 13.716879,4.556514 13.421364,5.047504 13.23192,4.916331 C 13.020495,4.769937 12.905261,3.830136 13.179075,3.662894 C 13.458123,3.330048 14.695961,3.520282 15.021726,3.41993 C 15.336382,3.475726 15.319595,2.807022 14.973802,2.807022 C 14.936817,2.807022 13.348148,2.833121 13.146501,2.700293 C 12.957949,2.304347 12.908125,1.549385 13.205216,1.255382 z M 13.162842,-0.031540936 C 12.676139,-0.031540936 12.061002,0.81536104 12.21541,2.579833 L 11.155268,2.287393 L 10.345599,3.283322 L 9.0682011,3.026763 L 8.206604,3.974268 L 6.853978,3.973188 L 6.402981,5.33791 L 4.670537,5.465277 L 4.353625,6.8909683 L 2.533546,7.2553254 L 2.482818,8.934859 L 1.110446,9.562304 L 1.214818,11.012646 L 0,12.503073 L 0.81486098,13.946528 L 0.73451198,15.070604 L 1.698614,15.044878 L 1.757064,13.767217 L 1.114084,12.596812 L 2.124267,11.543081 L 2.040158,10.212545 L 3.350457,9.793408 L 3.375628,8.1488444 L 5.218615,7.7612493 L 5.436084,6.302593 L 7.153905,6.19127 L 7.487563,4.982552 L 8.601179,5.043906 L 9.408971,4.138067 L 10.669134,4.426541 L 11.489522,3.433404 L 12.238948,3.696385 C 12.074279,5.55156 12.584692,5.814353 13.064854,6.247913 C 13.435119,5.871812 13.918179,5.624907 14.497322,5.27053 C 16.751217,4.888915 18.68728,5.780223 18.674286,3.127096 C 18.66255,0.76181004 16.16521,1.274663 14.470136,1.114282 C 13.902304,0.79454304 13.291765,-0.031540936 13.162842,-0.031540936 z " />
</svg>