<svg xmlns="http://www.w3.org/2000/svg" viewBox="0 -2048 2048 2048">
	<path fill="currentColor" d="M1973 58L1728 27Q1617 67 1410 126Q1335 141 1178 162Q999 185 927 185Q771 185 559 95Q556 94 551 99L614 230Q611 233 605 236Q599 239 596 242Q572 187 518 84Q514 78 455 48L329 242L315 230L431 46Q138 -104 114 -253Q113 -257 106 -283Q100 -304 100 -312V-329Q234 -367 223 -367Q239 -367 427 -251Q431 -252 429 -256Q380 -371 331 -486Q273 -636 273 -731Q273 -719 287 -816Q321 -1049 520 -1049Q631 -1049 703 -964Q767 -887 767 -787Q767 -662 691 -482Q621 -334 551 -186Q580 -159 613 -147Q715 -111 770 -105Q960 -83 1014 -83Q1235 -83 1344 -149Q1330 -179 1316 -208Q1304 -230 1268 -230Q1261 -230 1130.5 -217Q1000 -204 993 -204Q834 -204 688 -305Q694 -323 753 -440Q867 -378 963 -382L1339 -435Q1560 -422 1705 -287H1973ZM1953 32V-260Q1920 -271 1846 -274Q1764 -277 1724 -263Q1720 -262 1714 -262Q1708 -262 1642 -306Q1569 -356 1537 -370Q1512 -381 1432 -401Q1400 -409 1336 -409Q1251 -409 1127.5 -382.5Q1004 -356 961 -356Q898 -356 763 -408Q746 -375 720 -316Q851 -230 985 -230L1276 -251Q1321 -251 1329 -237Q1353 -188 1376 -139Q1256 -57 993 -57Q869 -57 618 -116Q571 -127 395 -238Q224 -346 223 -346Q204 -346 126 -307Q134 -292 135 -269Q141 -174 285 -75Q344 -35 516 52Q593 91 719 126Q858 164 945 164Q1106 164 1354 109Q1581 59 1720 1ZM741 -784Q741 -880 687 -947Q626 -1023 520 -1023Q450 -1023 411 -994Q363 -958 330 -876Q300 -800 300 -734Q300 -680 317 -610Q329 -559 413 -358Q432 -306 469 -226Q480 -209 529 -193Q741 -605 741 -784Z"/>
</svg>