<svg xmlns="http://www.w3.org/2000/svg" viewBox="0 -2048 2048 2048">
	<path fill="currentColor" d="M2135 91L1859 53Q1740 99 1498 172Q1421 189 1246 209Q1066 229 986 229Q837 229 598 130Q365 33 237 -77Q100 -195 100 -273V-329Q117 -334 149 -350V-1128H793V-428Q801 -436 801 -450Q946 -381 1040 -390L1451 -445Q1495 -445 1564 -432Q1650 -416 1729 -371Q1760 -354 1850 -287Q1851 -286 1876 -286Q1896 -286 1908.5 -289Q1921 -292 2006 -292Q2101 -293 2135 -285ZM2113 64V-258Q2063 -266 1971 -264Q1873 -263 1880 -262Q1875 -259 1859 -259Q1842 -259 1788 -300Q1721 -351 1662 -376Q1565 -417 1443 -417Q1365 -417 1228 -390Q1091 -363 1038 -363Q945 -363 813 -417Q789 -370 787 -345Q772 -335 767 -321Q879 -253 937 -235Q988 -220 1085 -220Q1140 -220 1420 -248Q1459 -185 1484 -125Q1335 -34 1065 -34Q987 -34 836 -54Q746 -66 705 -85Q602 -133 403 -246Q228 -346 225 -346Q196 -346 127 -313Q125 -305 125 -295Q125 -215 167 -172Q334 -2 582 102Q817 201 1024 201Q1434 201 1838 33Q1851 28 1864 31ZM761 -363V-1101H175V-363Q184 -363 199 -368.5Q214 -374 220 -374Q227 -374 238 -368.5Q249 -363 256 -363ZM1451 -135Q1437 -165 1423 -195Q1409 -220 1372 -220L1063 -193Q904 -193 734 -312Q734 -328 745 -339H302Q625 -150 680 -127Q836 -62 1085 -62Q1330 -62 1451 -135Z"/>
</svg>