<svg xmlns="http://www.w3.org/2000/svg" viewBox="29.8 -1570.2 1857.5 1896.5">
	<path fill="currentColor" d="M1817 -223L1593 -247Q1562 -247 1362 -169Q1314 -150 1242 -129Q1183 -112 1101 -104Q861 -82 768 -82Q782 -82 741 -83Q705 -83 624 -83L719 256H490L565 -89Q565 -89 517 -95Q425 -106 391 -114Q314 -131 261 -164Q215 -193 187 -276Q165 -344 165 -402Q165 -590 241 -725Q248 -735 261 -738Q291 -760 345 -779Q317 -785 218 -853Q100 -935 100 -986Q100 -1004 117 -1021Q284 -950 365 -960L170 -1324L408 -1500L494 -951H531Q534 -954 534 -969L455 -1490H739L654 -960Q658 -956 677 -956Q692 -956 698 -960Q737 -1136 811 -1486L1069 -1289L864 -969Q870 -965 901 -969Q982 -978 1077 -954Q1144 -937 1173 -914Q1246 -843 1397 -707Q1451 -662 1598 -662Q1670 -662 1720.5 -679Q1771 -696 1776 -696H1817ZM1039 -1284L826 -1441L685 -777H708ZM714 -1470H480L590 -777H608ZM1795 -248V-671H1775Q1689 -642 1573 -642Q1567 -642 1466 -650Q1425 -653 1407 -667Q1375 -692 1239 -825Q1141 -920 1092 -929Q971 -950 850 -946Q813 -895 739 -777H815V-751H328Q321 -751 293 -733.5Q265 -716 261 -710Q190 -593 190 -414Q190 -284 244 -217Q310 -136 467 -125Q484 -124 523 -118Q559 -112 564.5 -112Q570 -112 687 -109.5Q804 -107 809 -107Q1101 -107 1272 -159Q1352 -191 1431 -223Q1542 -267 1613 -267Q1667 -267 1795 -248ZM694 -931H655Q647 -879 630 -777H658Q679 -879 694 -931ZM499 -777L393 -1461L205 -1319L485 -777ZM564 -777Q556 -829 538 -931H500Q508 -879 525 -777ZM459 -783Q430 -837 374 -934Q214 -968 125 -990Q167 -903 275 -839Q379 -777 459 -783ZM684 231L592 -92L520 231Z"/>
</svg>