<svg xmlns="http://www.w3.org/2000/svg" viewBox="0 -2048 2048 2048">
	<path fill="#000000" d="M1655 -211Q1653 -211 1648.5 -208Q1644 -205 1637 -205Q1633 -205 1574 -239Q1489 -288 1357 -393Q1245 -483 1133 -573Q1111 -590 1088 -590L766 -518L757 -510Q920 -306 991 -194Q1111 -2 1111 124Q1111 193 1036 244Q973 288 919 288Q910 288 872 274Q821 255 794 230Q645 91 601 -340Q590 -445 578 -511Q548 -514 487 -521Q420 -525 353 -529Q265 -542 215 -601Q157 -670 157 -828Q157 -875 180 -948.5Q203 -1022 229 -1050Q255 -1078 311 -1095Q259 -1108 183 -1170Q100 -1237 100 -1280V-1307Q101 -1313 113 -1313Q118 -1313 179 -1285Q246 -1255 277 -1246L300 -1250L146 -1367Q149 -1370 152.5 -1376Q156 -1382 159 -1385Q254 -1313 355 -1241H491Q493 -1271 497 -1326Q503 -1397 558 -1508Q571 -1508 583 -1496Q519 -1388 516 -1255Q518 -1250 525 -1242Q527 -1241 549 -1241L808 -1257Q924 -1257 987 -1224Q1026 -1203 1096 -1129Q1187 -1032 1223 -1001Q1291 -943 1443 -861Q1549 -804 1655 -747ZM1634 -236V-732L1295 -919Q1228 -955 1118 -1076Q1016 -1188 961 -1208Q882 -1236 819 -1236L527 -1215V-1178Q526 -1149 548 -1092H712V-1072H304Q297 -1072 274.5 -1055.5Q252 -1039 246 -1030Q198 -953 189 -911Q182 -879 182 -820Q182 -749 194 -699Q203 -663 225 -632Q252 -595 317 -570Q350 -557 471 -545Q585 -533 654 -533Q763 -533 929.5 -574Q1096 -615 1086 -615Q1120 -615 1291 -479Q1376 -410 1461 -340Q1562 -272 1634 -236ZM521 -1093Q513 -1125 500 -1215H372Q452 -1133 460 -1093ZM433 -1093Q424 -1117 382.5 -1165Q341 -1213 324 -1219Q253 -1234 132 -1271Q160 -1208 257 -1149Q349 -1093 411 -1093ZM1086 111Q1086 -15 961 -201Q846 -356 730 -512H609V-485Q609 -469 624 -340Q641 -193 656 -114.5Q671 -36 723 91Q747 150 809.5 206Q872 262 919 262Q978 262 1028 224Q1086 179 1086 111Z"/>
</svg>