<svg xmlns="http://www.w3.org/2000/svg" viewBox="-25.5 432.5 689 593">
  <g transform="scale(1,-1) translate(0,-1000)">
    <path d="M46 425Q39 390 39 356V352Q39 312 45.0 275.0Q51 238 66.0 197.5Q81 157 111.0 123.0Q141 89 183 69L304 193Q310 199 318.0 199.0Q326 199 332 193L453 68Q532 109 565.0 196.0Q598 283 598 382Q598 403 596 425ZM50 463H593Q587 505 585 518Q584 520 584 522Q584 538 600 542H604Q621 542 624 526Q638 453 638 382Q638 307 620.5 241.0Q603 175 567.5 119.5Q532 64 469.5 32.0Q407 0 324 0H319Q237 1 174.0 29.5Q111 58 74.0 107.0Q37 156 18.5 217.5Q0 279 0 352Q0 431 20 519Q25 534 40 534H44Q60 529 60 514Q60 511 59 510ZM413 52 318 150 224 53Q270 40 319 40H325Q374 40 413 52Z" fill="currentColor"/>
  </g>
</svg>