<svg xmlns="http://www.w3.org/2000/svg" viewBox="0 -2048 2048 2048">
	<path fill="#000000" d="M1638 281Q1630 290 1593 301.5Q1556 313 1535 313Q1406 313 1294 115Q1209 -33 1197 -126Q1169 -339 1096 -836Q1087 -898 1060 -964Q1037 -1020 973 -1102Q913 -1178 821 -1265Q771 -1308 722 -1351Q635 -1431 635 -1461Q635 -1468 638 -1475Q641 -1482 641 -1487H696Q787 -1487 937 -1405Q1071 -1333 1164 -1248Q1277 -1145 1332 -1007Q1401 -833 1432 -546Q1454 -300 1475 -55Q1478 -28 1517 47Q1567 129 1638 281ZM1103 281Q1096 290 1058 301.5Q1020 313 1000 313Q870 313 756 110Q669 -45 657 -142Q577 -814 525 -959Q496 -1039 397 -1148Q322 -1230 255 -1292Q209 -1331 163 -1370Q100 -1429 100 -1464Q100 -1471 103 -1478Q106 -1485 106 -1487H210Q236 -1487 348 -1432Q430 -1392 464 -1372Q659 -1256 746 -1105Q815 -984 857 -796Q891 -642 904 -393Q917 -148 940 -45Q956 23 1012 121Q1093 261 1103 281ZM1617 265Q1503 89 1470 6Q1432 -90 1432 -224V-359Q1432 -374 1410 -537Q1386 -721 1368 -821Q1349 -928 1286 -1053Q1169 -1285 834 -1431Q754 -1466 720 -1466Q675 -1466 661 -1459Q663 -1457 887 -1234Q1049 -1073 1081 -985Q1130 -851 1165 -568Q1191 -358 1217 -147Q1235 -38 1308 95Q1414 288 1548 288Q1596 288 1617 265ZM1077 262Q1077 255 1044 208Q1005 152 996 135Q963 73 919 -29Q897 -108 897 -167V-323Q897 -427 834 -811Q826 -860 782 -976Q755 -1047 725 -1095Q604 -1288 284 -1439Q227 -1466 185 -1466Q141 -1466 126 -1460Q135 -1432 152 -1416Q324 -1258 382 -1198Q507 -1070 541 -990Q579 -901 603 -720Q639 -439 643 -419Q657 -315 671 -210Q698 -41 744 50Q864 288 1010 288Q1077 288 1077 262Z"/>
</svg>