<svg xmlns="http://www.w3.org/2000/svg" viewBox="0 -2048 2048 2048">
	<path fill="#000000" d="M1825 276Q1825 296 1803 297Q1772 299 1718 299Q1639 299 1592 292Q1586 291 1556 282Q1530 273 1521 273Q1515 273 1457 291Q1399 309 1393 309Q1379 309 1350.5 284.5Q1322 260 1320 245Q1329 209 1332 138Q1326 106 1288 18Q1235 -111 1228 -128Q1205 -189 1190 -306Q1177 -417 1148 -481Q1126 -530 1070 -593Q1022 -647 973 -700Q967 -693 866 -589Q798 -518 782 -472Q766 -426 755 -341Q743 -248 733 -210Q687 -110 608 112Q616 154 615 235Q600 299 533 299Q527 299 476.5 281Q426 263 420 263Q415 263 392 276Q366 289 354 292Q299 304 215 304Q100 304 100 263Q100 232 126 223Q148 220 169 216Q312 170 336 157Q440 104 462 9Q473 -48 491 -145Q505 -204 532 -319Q557 -398 603 -555Q619 -614 769 -794Q909 -962 909 -1017Q909 -1051 829 -1146Q641 -1368 454 -1469Q454 -1476 466 -1488Q638 -1438 855 -1268Q869 -1335 884 -1402Q907 -1478 986 -1478Q1074 -1478 1097 -1388Q1104 -1312 1112 -1237Q1205 -1310 1298 -1382Q1410 -1464 1490 -1488L1524 -1481Q1292 -1305 1285 -1299Q1148 -1186 1076 -1075Q1037 -1015 1037 -1015Q1037 -978 1123 -855Q1185 -766 1229 -714Q1332 -594 1368 -514Q1368 -514 1402 -380Q1424 -293 1440 -216Q1450 -138 1461 -60Q1474 38 1509 100Q1519 119 1563 142Q1674 201 1737 216Q1766 219 1825 233ZM1088 -1271Q1088 -1452 989 -1452Q946 -1452 916 -1421Q912 -1417 896 -1345Q879 -1270 879 -1253Q879 -1231 989 -1140Q1071 -1208 1077 -1215Q1088 -1229 1088 -1271ZM1804 273V248Q1756 249 1688 223Q1633 201 1578 178Q1546 165 1510.5 131Q1475 97 1469 70Q1418 -188 1348 -503Q1331 -554 1294 -599Q1257 -644 1219 -689Q1161 -762 1104 -835Q1017 -956 1017 -1012Q1017 -1076 1181 -1235Q1313 -1362 1391 -1413L986 -1114Q937 -1161 847 -1245Q752 -1332 603 -1405Q691 -1323 778 -1241Q935 -1082 935 -1012Q935 -969 792 -785Q638 -587 629 -565Q594 -479 511 -129Q500 -56 467 65Q424 158 306 197Q217 223 127 249V283Q127 283 208 283Q290 283 365 261Q430 242 418 242Q424 242 478 257.5Q532 273 538 273Q546 273 565.5 258.5Q585 244 588 230Q588 227 582 171Q579 135 583 118Q592 84 670 -110Q731 -261 736 -364Q738 -405 762 -466Q788 -533 855.5 -612.5Q923 -692 983 -725Q1044 -665 1148 -527Q1184 -463 1204 -351Q1228 -216 1228 -215Q1277 -93 1353 118Q1357 132 1357 147Q1357 166 1349.5 196.5Q1342 227 1342 237Q1342 273 1411 273Q1418 273 1468.5 263Q1519 253 1524 253Q1530 253 1584.5 263Q1639 273 1645 273Z"/>
</svg>