<svg xmlns="http://www.w3.org/2000/svg" viewBox="0 -2048 2048 2048">
	<path fill="#000000" d="M2126 -481H1789L1743 -19L1780 193Q1775 246 1738.5 279Q1702 312 1663 312Q1634 312 1572.5 281Q1511 250 1500 250Q1495 250 1439 281Q1383 312 1377 312H928Q922 312 839.5 281Q757 250 751 250Q746 250 692 281Q638 312 631 312H122Q120 301 109 268Q100 239 100 232Q100 219 122 190Q151 185 206 176Q285 165 454 92Q531 65 677 5Q708 -9 726 -49Q738 -75 738 -157Q738 -266 718 -466Q555 -419 481 -419Q406 -419 285 -464Q126 -524 126 -608V-636Q132 -636 150 -641.5Q168 -647 175 -647Q181 -647 248 -612Q334 -567 363 -554Q397 -538 486 -538Q578 -538 608 -562Q598 -579 580 -579Q574 -579 537 -574Q500 -569 494 -569Q433 -569 354 -612Q358 -630 382 -678Q434 -657 460 -652L629 -678Q659 -673 713 -651L681 -1497H1069L1038 -667Q1074 -667 1151 -675Q1225 -682 1228 -682H1469V-812L1428 -1499H1820L1795 -965V-651H1822L1869 -1232H2080ZM1795 -1481H1460L1456 -1471L1495 -929V-673L1769 -653V-939ZM2100 -507L2059 -1206H1889L1843 -626H1731L1303 -657Q1196 -657 1015 -634Q957 -627 857 -607Q769 -590 766 -590Q770 -590 710.5 -621Q651 -652 618 -652Q612 -652 544.5 -641.5Q477 -631 471 -631Q429 -631 391 -646Q391 -645 388.5 -638Q386 -631 386 -622Q453 -595 499 -595Q505 -595 549.5 -600Q594 -605 600 -605Q627 -605 634 -546Q576 -512 489 -512Q392 -512 321 -544Q299 -554 234 -591Q179 -621 173 -621Q166 -621 160 -618Q154 -615 152 -615V-592Q192 -526 297 -483Q391 -444 478 -444Q592 -444 731 -493Q741 -500 762 -507ZM1048 -1477H707V-1412Q709 -1461 744 -633Q757 -616 769 -616Q777 -616 818 -627Q863 -638 875 -640Q953 -652 1017 -658ZM1758 -480H1500V-292Q1508 -218 1508 -84Q1495 20 1310 71Q1271 82 1123 151Q1088 163 1039 185Q1029 192 1016.5 232.5Q1004 273 987 286H1377Q1380 286 1437 257.5Q1494 229 1500 229Q1506 229 1581.5 257.5Q1657 286 1663 286Q1703 286 1730 252Q1754 221 1754 185Q1754 179 1738.5 83Q1723 -13 1723 -19ZM1484 -128Q1484 -135 1478.5 -192Q1473 -249 1473 -255V-480H1034L997 -27Q997 34 1029 162Q1108 127 1260 65Q1332 43 1416 15Q1471 -18 1482 -57Q1484 -64 1484 -128ZM1007 188L971 -19L1007 -477H753V-199Q753 -216 762 -131Q763 -123 756 -69Q753 -42 725 -7Q695 32 662 42Q525 97 252 192Q213 198 139 211Q126 228 126 240Q126 227 143 286H626Q633 286 689 257.5Q745 229 751 229Q757 229 834 257.5Q911 286 917 286Q998 286 1007 188Z"/>
</svg>