<svg xmlns="http://www.w3.org/2000/svg" viewBox="48.7 -1101.3 1384.6 1266.6">
	<path fill="currentColor" d="M1382 114H106Q106 111 103 105.5Q100 100 100 92Q100 58 259 20Q439 -22 469 -49Q523 -97 523 -210Q523 -265 478 -323Q416 -404 390 -468Q379 -475 359 -490Q296 -553 239 -632Q232 -642 232 -675Q232 -763 284 -763Q291 -763 323 -747Q331 -747 334 -767Q342 -817 354 -844Q448 -1050 711 -1050Q835 -1050 940 -1002Q1072 -941 1097 -827Q1103 -804 1116 -758Q1148 -774 1148 -774Q1175 -774 1195 -734Q1211 -703 1211 -684Q1211 -627 1162 -552Q1111 -474 1062 -465Q1019 -390 975 -314Q942 -248 942 -185Q942 -21 1132 17Q1204 28 1347 53Q1363 56 1382 114ZM1090 -750Q1090 -730 1075 -805Q1052 -918 925 -979Q824 -1028 708 -1028Q580 -1028 481 -957Q366 -875 360 -731Q477 -846 479 -846Q484 -846 545 -831Q611 -815 641.5 -811Q672 -807 722 -807Q843 -807 950 -851L1083 -731Q1083 -733 1086.5 -737.5Q1090 -742 1090 -750ZM1189 -684Q1189 -718 1143 -747Q1123 -725 1088 -692Q1072 -706 1004 -775Q955 -824 947 -824Q939 -824 918 -815Q894 -804 889 -803Q790 -780 716 -780Q632 -780 487 -818L353 -692Q327 -708 284 -736Q254 -706 254 -675Q254 -640 319 -570Q366 -519 400 -494Q403 -498 418 -544Q428 -544 434 -541.5Q440 -539 441 -539V-508Q441 -501 430 -484.5Q419 -468 419 -461Q419 -457 426 -429.5Q433 -402 497 -339Q557 -278 580 -270Q662 -240 763 -240Q840 -240 922 -312Q999 -380 1033 -468Q1034 -471 1034 -476Q1034 -483 1030 -500Q1026 -517 1026 -526Q1026 -545 1043 -554Q1046 -551 1050 -549.5Q1054 -548 1057 -545Q1050 -523 1053 -494H1072Q1189 -577 1189 -684ZM853 -5L797 -218Q776 -214 743 -214Q709 -214 679 -218Q662 -147 629 -5ZM1343 88Q1309 66 1280 64Q914 34 914 -191Q914 -229 924 -279Q874 -245 821 -228Q863 -71 882 23H594L655 -228Q617 -239 546 -262V-233Q548 -216 549 -188Q541 -65 492 -32Q436 6 343 28Q206 60 133 88ZM991 -627Q868 -609 878 -609Q891 -609 777 -628Q827 -692 854 -692Q864 -692 967 -648Q976 -652 991 -652ZM831 -724Q826 -711 794.5 -690.5Q763 -670 760 -640L804 -500Q804 -493 796 -472Q741 -461 686 -461Q674 -461 656.5 -474Q639 -487 639 -502Q639 -509 648.5 -523.5Q658 -538 659 -541Q683 -607 683 -640Q683 -697 612 -705Q618 -711 618 -724H641Q668 -724 691 -690Q711 -661 711 -637Q711 -561 667 -497Q677 -486 695 -486Q704 -486 723 -490Q742 -494 750 -494Q762 -494 768 -488Q771 -491 771 -499L733 -642Q738 -661 762 -690Q786 -719 807 -724ZM650 -627Q593 -604 562 -604Q556 -604 509 -613Q455 -624 436 -627Q436 -637 439.5 -644.5Q443 -652 443 -653Q448 -648 457 -648Q466 -648 512.5 -670Q559 -692 565 -692Q573 -692 611 -662Q649 -632 650 -627ZM853 -362Q795 -358 731 -358Q667 -358 601 -362V-394Q679 -417 722 -417Q776 -417 853 -388ZM881 -643Q881 -658 856 -670Q837 -651 837 -650L850 -637ZM584 -644Q584 -645 565 -664Q546 -645 546 -644L558 -631Q571 -631 584 -644ZM759 -381V-391H695V-381Z"/>
</svg>