<svg xmlns="http://www.w3.org/2000/svg" viewBox="0 -2048 2048 2048">
	<path fill="currentColor" d="M1938 186Q1899 182 1857 182Q1815 182 1776 186Q1764 237 1728 274.5Q1692 312 1657 312Q1650 312 1580.5 283Q1511 254 1504 254Q1500 254 1474 268Q1445 285 1432 289Q1326 327 1165 327Q1162 327 1009 322Q936 320 873 300Q857 295 808 273Q766 254 759 254Q753 254 699 282.5Q645 311 638 311H121Q120 302 109 270Q100 241 100 234Q100 201 123 193.5Q146 186 216.5 175Q287 164 471 85Q541 62 674 9Q709 -8 728 -51Q740 -78 740 -139Q740 -213 734 -226Q720 -257 586 -450Q517 -550 474 -605Q393 -710 330 -765Q205 -874 126 -882V-906Q138 -913 167 -913Q288 -913 464 -809Q647 -702 713 -579V-1018L701 -1027Q646 -985 556 -958Q475 -933 410 -933Q357 -933 237 -969Q100 -1009 100 -1045Q100 -1043 135 -1123Q175 -1213 192 -1275Q199 -1300 199 -1332Q199 -1363 190 -1376Q192 -1371 180 -1371Q136 -1371 136 -1415Q136 -1426 144 -1443Q155 -1465 171 -1465H638Q646 -1465 662 -1446.5Q678 -1428 678 -1418Q678 -1404 660.5 -1389Q643 -1374 628 -1374Q623 -1374 619 -1376Q610 -1349 610 -1335Q610 -1276 701 -1064Q706 -1081 704 -1134Q702 -1195 693 -1325Q684 -1444 684 -1447V-1508H1073L1058 -1207V-795L1017 -243Q1017 -188 1218 -121Q1388 -64 1431 -63H1466Q1480 -96 1480 -142L1465 -535L1459 -978L1424 -1503H1818L1788 -931V-556L1751 -52Q1767 -48 1800 -48Q1833 -48 1938 -52ZM1792 -1485H1450L1485 -946V-446L1506 -136Q1506 -124 1496 -59Q1559 -51 1655 -52L1724 -58L1762 -550V-858ZM646 -1403V-1433H163V-1403ZM1047 -1485H710L740 -858L746 -555Q767 -513 807 -455Q916 -297 994 -251L1032 -733V-1150ZM683 -1039Q655 -1114 628 -1189Q589 -1299 589 -1337Q589 -1365 594 -1375H220Q225 -1358 225 -1338Q225 -1288 191 -1199Q161 -1122 131 -1045Q270 -954 397 -954Q455 -954 544.5 -980Q634 -1006 683 -1039ZM1916 160V-27H1562Q1492 -27 1361 -57Q1247 -83 1187 -106Q1149 -121 1067 -170Q932 -251 769 -469Q602 -695 479 -775Q452 -793 367 -832Q263 -881 232 -880H209Q295 -839 410 -720Q503 -623 572 -523Q646 -411 720 -300Q811 -168 892 -102Q1094 62 1242 107Q1419 160 1489 160ZM1746 206V187H1494Q1416 185 1322 159Q1304 154 1255 135Q1213 119 1207 119Q1208 119 1034 190Q1032 208 1025 230Q1015 260 980 294Q1050 301 1134 301Q1173 301 1301 293Q1364 289 1390 279Q1409 272 1454 248Q1492 228 1498 228Q1505 228 1577.5 257Q1650 286 1657 286Q1663 286 1672.5 284Q1682 282 1714 253Q1746 224 1746 206ZM1168 106Q1100 72 1007 10L1028 160ZM1006 187Q1006 186 983 -8Q828 -106 763 -204Q765 -161 765 -141Q765 -3 674 35Q571 74 362 154Q323 169 258 183Q157 203 154 204Q126 211 126 236Q126 229 142 285H628Q634 285 690.5 256.5Q747 228 753 228Q760 228 839 257Q918 286 925 286Q959 286 984 252Q1006 221 1006 187ZM500 -1065Q481 -1062 437 -1052Q397 -1043 391 -1043Q317 -1043 313 -1077L404 -1324ZM469 -1081Q459 -1110 436.5 -1168.5Q414 -1227 404 -1256L339 -1084Q369 -1069 397 -1069Q426 -1069 469 -1081Z"/>
</svg>