<svg xmlns="http://www.w3.org/2000/svg" viewBox="0 -2048 2048 2048">
	<path fill="#000000" d="M1914 -494Q1914 -459 1888 -411Q1857 -354 1818 -354H1204Q1202 -350 1197 -340Q1170 -88 1170 -13Q1170 35 1183 87Q1206 179 1206 191Q1206 234 1169.5 276Q1133 318 1090 318Q1084 318 1008.5 287Q933 256 927 256Q922 256 866.5 287Q811 318 805 318H302Q275 254 275 238Q275 245 298 196Q327 190 381 182Q440 176 582 119Q778 41 820 27Q847 18 879 -15Q911 -48 911 -73V-353H362Q316 -256 208 -256Q100 -256 100 -380Q100 -468 224 -468Q326 -468 362 -374H897V-633H367Q324 -535 216 -535Q165 -535 132.5 -565.5Q100 -596 100 -644Q100 -752 239 -752Q275 -752 311 -728Q354 -700 367 -653H891V-993L855 -1488H1241L1221 -654H1808Q1815 -654 1848 -631Q1881 -608 1886 -601Q1914 -561 1914 -494ZM1221 -1470H881L912 -1034V-657H1200V-1034ZM1888 -491Q1888 -539 1865 -585Q1859 -596 1828 -614Q1794 -633 1771 -633H1222L1201 -375H1792Q1828 -375 1859 -417Q1888 -456 1888 -491ZM1200 -633H922V-376H1179ZM343 -639Q343 -679 300 -705Q265 -726 224 -726Q125 -726 125 -644Q125 -611 147 -585Q172 -556 211 -556Q235 -556 284 -579Q343 -608 343 -639ZM1180 196Q1180 170 1164.5 119Q1149 68 1149 -36L1169 -353H927V-202Q927 -186 932 -150Q937 -114 937 -95Q937 -45 910 -12Q872 35 846 43Q693 108 427 198Q388 204 314 217Q301 234 301 243Q301 233 318 292H805Q812 292 866.5 263.5Q921 235 927 235Q947 235 1004 263.5Q1061 292 1092 292Q1180 292 1180 196ZM337 -367Q337 -370 330 -389Q302 -447 218 -447Q156 -447 127 -405Q125 -402 125 -372Q125 -277 211 -277Q242 -277 284 -300Q337 -328 337 -367Z"/>
</svg>