<svg xmlns="http://www.w3.org/2000/svg" viewBox="0 -2048 2048 2048">
	<path fill="#000000" d="M1883 -1204Q1883 -1166 1857 -1119Q1827 -1067 1794 -1067H1187Q1187 -1067 1187 -1003Q1187 -951 1188 -949Q1322 -729 1367 -651Q1457 -493 1495 -395Q1516 -340 1531 -293Q1544 -252 1586 -151Q1624 -62 1624 -56Q1624 -17 1592 6Q1567 25 1538 25Q1533 25 1490.5 10Q1448 -5 1441 -5Q1425 -5 1405 25H1140Q1137 29 1137 42Q1137 62 1149.5 126Q1162 190 1162 208Q1162 250 1126.5 282.5Q1091 315 1053 315Q1019 315 961.5 287Q904 259 890 259Q885 259 832.5 289.5Q780 320 773 320H274Q272 311 262 279Q253 250 253 244Q253 228 274 200Q311 194 382 182Q448 170 518 141Q623 101 833 9Q884 -16 878 -109L864 -340Q815 -280 805 -266Q772 -221 762 -185Q761 -180 761 -172Q761 -160 766 -124Q771 -88 771 -71Q771 -57 769 -48Q762 -18 731 5Q705 25 687 25Q681 25 637.5 7.5Q594 -10 588 -10Q582 -10 551 7.5Q520 25 514 25H223Q223 18 217.5 -2Q212 -22 212 -28Q212 -66 387 -98Q465 -112 541 -196Q606 -267 630 -339Q665 -443 766 -664Q857 -863 857 -866L843 -1065H358Q310 -970 210 -970Q100 -970 100 -1097Q100 -1136 143 -1159Q179 -1179 222 -1179Q322 -1179 358 -1087L839 -1091Q839 -1122 836 -1206.5Q833 -1291 833 -1337H363Q318 -1245 215 -1245Q105 -1245 105 -1349Q105 -1458 243 -1458Q277 -1458 315 -1431Q357 -1401 364 -1361H823Q822 -1394 822 -1457H1202V-1361H1763Q1780 -1361 1819.5 -1336Q1859 -1311 1866 -1294Q1883 -1251 1883 -1204ZM1858 -1199Q1858 -1294 1816 -1314Q1769 -1336 1753 -1336H1198Q1198 -1262 1191 -1094L1199 -1087H1779Q1808 -1087 1835 -1135Q1858 -1176 1858 -1199ZM1179 -1362Q1177 -1373 1177 -1392Q1177 -1410 1179 -1437H848V-1362ZM1169 -1090Q1170 -1159 1169 -1335H853L868 -1090ZM1161 -1001V-1066H1106Q1144 -1018 1161 -1001ZM994 -1066H871V-894ZM344 -1346Q344 -1362 317 -1391.5Q290 -1421 271 -1425Q232 -1433 225 -1433Q126 -1433 126 -1349Q126 -1317 153.5 -1291Q181 -1265 212 -1265Q231 -1265 281 -1288Q344 -1316 344 -1346ZM1375 -203L1169 -543L1138 -72Q1206 -93 1275 -114Q1359 -147 1375 -203ZM1599 -58Q1599 -50 1544 -171Q1534 -203 1516 -257Q1508 -282 1495 -323Q1412 -569 1173 -923Q1150 -962 1126 -1001Q1084 -1062 1050 -1062Q989 -1062 871 -828Q855 -797 759 -583L691 -430Q665 -370 660 -343Q643 -254 550 -167Q462 -84 372 -62Q321 -56 238 -30Q238 -24 240.5 -13Q243 -2 243 0H509Q515 0 547.5 -15Q580 -30 586 -30Q592 -30 635.5 -15Q679 0 685 0Q707 0 728 -25Q746 -47 749 -69Q751 -83 743 -107.5Q735 -132 735 -140Q735 -193 757 -225Q879 -405 967 -560Q995 -610 1028 -703Q1033 -731 1046 -774Q1054 -781 1068 -792Q1099 -726 1153 -616Q1154 -613 1291 -407Q1401 -239 1401 -203Q1401 -122 1245 -79Q1183 -63 1071 -24V0H1394Q1414 -30 1431 -30Q1437 -30 1491 -15Q1545 0 1551 0Q1569 0 1584 -20Q1599 -40 1599 -58ZM334 -1077Q334 -1117 290 -1140Q256 -1158 220 -1158Q186 -1158 158 -1140Q126 -1119 126 -1087Q126 -1050 148 -1023Q173 -991 215 -991Q243 -991 283 -1012Q334 -1039 334 -1077ZM1142 -533Q1145 -583 1123 -629Q1093 -688 1063 -747Q1041 -666 986 -559Q940 -469 893 -379L898 -63Q898 -37 870.5 1Q843 39 813 50Q694 98 458 187Q401 207 290 221Q287 226 278 235Q278 264 289 294H768Q774 294 830.5 266.5Q887 239 893 239Q900 239 974.5 267Q1049 295 1055 295Q1087 295 1113 259Q1137 226 1137 193Q1137 175 1110 26Q1074 29 1064 25Q1045 19 1045 -13Q1045 -48 1111 -67Z"/>
</svg>