<svg xmlns="http://www.w3.org/2000/svg" viewBox="0 -2048 2048 2048">
	<path fill="#000000" d="M1347 301Q1344 301 1334.5 303.5Q1325 306 1322 306Q1274 169 1013 -31Q1010 0 1019 72Q1030 152 1030 185Q1030 238 1000 276Q969 317 921 317Q889 317 830.5 286Q772 255 757 255Q751 255 694.5 286Q638 317 632 317H127Q100 253 100 234Q100 227 123 195Q189 184 315 155Q331 150 486 80Q544 60 601 40Q675 13 712 -25Q744 -58 744 -106Q744 -193 737 -209Q727 -232 636 -298Q460 -425 351 -577Q273 -685 189 -928Q100 -1183 100 -1325Q100 -1376 112 -1458Q115 -1464 123 -1475L132 -1469Q292 -965 598 -690Q636 -654 715 -581L718 -995L683 -1499H1076L1025 -413Q1025 -393 1026 -367Q1093 -321 1222 -242Q1167 -166 1061 -18Q1307 178 1347 301ZM1050 -1480H709L744 -1010L750 -557Q798 -513 871 -466Q989 -389 997 -384ZM1186 -231Q1048 -322 911 -413Q750 -521 676 -582Q569 -671 454 -799Q420 -837 375 -907Q314 -1003 311 -1007Q228 -1124 171 -1292Q158 -1326 134 -1392Q126 -1360 126 -1319Q126 -1176 216 -922Q302 -677 382 -572Q488 -432 693 -280Q868 -158 1043 -36Q1120 -132 1186 -231ZM1009 198Q1009 169 993.5 95.5Q978 22 978 -13Q978 -30 981 -45Q909 -101 761 -207Q767 -175 767 -137Q767 -12 704 20Q525 110 310 181Q252 192 139 216Q126 233 126 242Q126 232 143 291H632Q637 291 694 262.5Q751 234 757 234Q763 234 837.5 262.5Q912 291 918 291Q947 291 978 262.5Q1009 234 1009 198Z"/>
</svg>