<svg xmlns="http://www.w3.org/2000/svg" viewBox="0 -2048 2048 2048">
	<path fill="currentColor" d="M1021 -884H769V-358L725 121Q725 128 738.5 196.5Q752 265 752 272Q752 304 723.5 332.5Q695 361 663 361Q658 361 610.5 339.5Q563 318 556 318Q550 318 518 339.5Q486 361 480 361H123Q100 327 100 302Q100 292 112 272Q158 265 242 247Q336 220 501 139Q542 119 542 65Q542 58 536.5 17.5Q531 -23 531 -30V-504L505 -882H241V-1230Q241 -1245 274 -1265Q302 -1282 310 -1282Q307 -1282 344 -1266Q361 -1387 450 -1461Q532 -1530 634 -1530Q821 -1530 918 -1266Q950 -1282 954 -1282Q967 -1282 992 -1267Q1021 -1251 1021 -1237ZM887 -1247Q887 -1332 810 -1416Q730 -1503 636 -1503Q535 -1503 457 -1432Q375 -1357 375 -1250Q375 -1135 451.5 -1063Q528 -991 645 -991Q672 -991 734 -1016Q887 -1078 887 -1247ZM1000 -906V-1237Q982 -1255 962 -1255Q936 -1255 927 -1243Q910 -1220 907 -1188Q901 -1124 830 -1052Q759 -980 696 -976Q610 -970 623 -970Q501 -970 432 -1044Q391 -1087 356 -1181Q329 -1255 308 -1255Q289 -1255 268 -1232V-906ZM741 -315V-883H532L553 -525L564 41Q564 101 546 131Q520 175 242 274Q204 280 128 297V322Q131 328 140 340H469Q476 340 513.5 318.5Q551 297 558 297Q565 297 613.5 318.5Q662 340 669 340Q690 340 708 312Q725 287 725 267Q725 260 714.5 186Q704 112 704 105Z"/>
</svg>