<svg xmlns="http://www.w3.org/2000/svg" viewBox="0 -2048 2048 2048">
	<path fill="currentColor" d="M1920 -283Q1917 -283 1907 -280Q1897 -277 1894 -277Q1873 -354 1780 -434Q1698 -504 1614 -536V35H1778V366Q1689 291 1593 215H111V35H402L186 -286H412V-543Q411 -545 404 -550Q313 -558 223 -607Q100 -674 100 -776Q100 -852 150 -902Q200 -952 278 -952Q366 -952 412 -860V-1177H149V-1205H412V-1393H154V-1416H411Q417 -1473 411 -1523H439V-713Q468 -708 524 -698L1436 -871Q1485 -871 1585 -854V-1182H1316V-1210H1585V-1393H1316V-1421H1583Q1586 -1443 1586 -1471Q1586 -1499 1583 -1523H1612V-848Q1677 -828 1705 -817Q1765 -794 1807 -766L1698 -523Q1887 -417 1920 -283ZM1774 -761Q1687 -805 1613 -821V-564Q1644 -554 1670 -536ZM1584 -574V-827Q1535 -835 1442 -849L521 -676Q484 -674 441 -675V-569H529L1218 -622Q1318 -622 1584 -574ZM1584 -6V-259H1407ZM1584 -279V-546Q1493 -564 1403 -582Q1298 -601 1218 -601L441 -546V36H1579L1358 -279ZM411 -714V-768Q399 -745 381 -727Q393 -723 411 -714ZM412 -574V-692Q376 -696 370 -698Q346 -704 343 -721Q397 -775 397 -817Q397 -858 369 -889Q337 -925 283 -925Q127 -925 127 -779Q127 -631 412 -574ZM1757 312V65H138V193H1598Q1603 193 1757 312ZM412 -1V-265H235Z"/>
</svg>