<svg xmlns="http://www.w3.org/2000/svg" viewBox="0 -2048 2048 2048">
	<path fill="#000000" d="M1881 364Q1878 367 1871.5 370.5Q1865 374 1862 377Q1819 301 1725.5 232.5Q1632 164 1557 155Q1185 110 1127 110L449 170Q321 170 227 123Q100 61 100 -67Q100 -134 145.5 -183.5Q191 -233 258 -233Q301 -233 342 -193.5Q383 -154 383 -111Q383 -64 340 -18Q379 17 474 17Q476 17 501 18Q523 18 536 18L285 -318Q292 -325 292 -336L542 -341Q471 -433 399 -524Q274 -691 274 -737Q274 -752 288 -786Q304 -825 320 -832Q363 -837 396 -822Q438 -803 438 -759Q438 -727 420 -702Q407 -702 394 -715Q416 -748 416 -762Q416 -789 353 -811Q302 -811 302 -740Q302 -702 335.5 -657.5Q369 -613 403 -570Q474 -467 551 -369V-1201H264V-1224H552V-1397H264V-1420H552V-1523H579V2Q582 6 587 6L966 -84L776 -340H1043Q994 -401 899 -529Q858 -582 817 -635Q781 -684 781 -737Q781 -827 868 -827Q904 -827 927 -793Q944 -767 944 -743Q944 -722 917 -691Q912 -695 902 -704Q918 -732 915 -748Q912 -765 895 -785Q878 -805 865 -805Q808 -805 808 -740Q808 -684 920 -535Q988 -450 1057 -364V-1201H765V-1224H1058V-1391H765V-1420H1058V-1523H1080V-111Q1080 -102 1110 -108Q1123 -110 1435 -155L1288 -340H1549Q1475 -439 1400 -538Q1287 -692 1287 -737Q1287 -778 1332 -832Q1342 -833 1352 -833Q1451 -833 1451 -756Q1451 -729 1433 -702Q1420 -702 1407 -715Q1426 -731 1426 -751Q1426 -774 1406.5 -792.5Q1387 -811 1366 -811Q1315 -811 1315 -745Q1315 -664 1569 -364V-1203H1272V-1224H1571V-1397H1272V-1420H1571V-1523H1592V-145Q1627 -137 1694 -117Q1757 -92 1848 -52L1707 188Q1756 230 1805 272Q1867 328 1881 364ZM1570 -141V-314H1337Q1381 -258 1469 -148Q1504 -148 1570 -141ZM1058 -98V-308H830Q988 -86 1001 -86Q1007 -86 1028 -92Q1049 -98 1058 -98ZM1810 -40Q1760 -82 1632 -105Q1532 -124 1443 -124Q1294 -124 898 -40Q502 44 487 44Q390 44 312 -2Q362 -121 362 -113Q362 -150 324 -179Q290 -206 255 -206Q197 -206 157 -159Q122 -116 122 -67Q122 46 243 102Q331 142 443 142L1127 83Q1151 83 1291 96Q1460 112 1546 128Q1593 137 1677 180ZM551 -16V-314H324Z"/>
</svg>