<svg xmlns="http://www.w3.org/2000/svg" viewBox="0 -2048 2048 2048">
	<path fill="currentColor" d="M1388 -574Q1388 -520 1330 -520Q1321 -520 1303.5 -528Q1286 -536 1276 -536Q1267 -536 1266 -521H1057Q1048 -538 1048 -549Q1048 -566 1143 -593Q1238 -620 1238 -651Q1238 -652 1159 -789Q1077 -932 1068 -951Q1062 -927 1045 -881Q1026 -843 948 -718Q933 -699 918 -680Q898 -654 898 -640Q898 -632 899.5 -617Q901 -602 901 -594Q901 -523 847 -523Q839 -523 822 -531Q805 -539 797 -539Q795 -539 771.5 -529Q748 -519 732 -520L583 -527Q574 -543 574 -558Q574 -580 639 -586Q681 -590 730 -619.5Q779 -649 797 -684Q851 -817 906 -949Q995 -1151 1058 -1151Q1102 -1151 1215 -954Q1319 -774 1338 -703Q1347 -670 1379 -602Q1388 -589 1388 -574ZM2122 152Q2122 274 2024 274Q1939 274 1888 159Q1853 80 1841 -30Q1838 -53 1828 -85Q1703 124 1474 248Q1249 370 1002 370Q762 370 516 261Q249 143 132 -44Q120 -85 100 -147H423L167 -553H406Q106 -768 106 -828Q106 -869 125 -900Q148 -936 187 -936Q289 -936 289 -870Q289 -844 273 -821Q256 -795 231 -795Q213 -795 189 -811Q165 -827 165 -844Q167 -855 173 -877Q190 -818 228 -818Q266 -818 266 -869Q266 -913 190 -913Q164 -913 146.5 -884.5Q129 -856 129 -829Q129 -793 258 -692Q343 -629 428 -566V-1244H104V-1334H429V-1404H104V-1488H428V-1579H520V-150H1689L1432 -553H1671Q1568 -620 1405 -750Q1398 -757 1384.5 -788.5Q1371 -820 1371 -829Q1371 -863 1395.5 -899.5Q1420 -936 1452 -936Q1554 -936 1554 -861Q1554 -839 1534.5 -817Q1515 -795 1494 -795Q1470 -795 1449.5 -813Q1429 -831 1429 -855Q1429 -866 1431 -873Q1442 -854 1455 -836Q1468 -818 1491 -818Q1504 -818 1517.5 -833Q1531 -848 1531 -861Q1531 -913 1455 -913Q1430 -913 1412 -885.5Q1394 -858 1394 -831Q1394 -798 1416 -774Q1449 -737 1548 -667Q1620 -616 1693 -565V-1244H1369V-1334H1694V-1404H1369V-1488H1693V-1578H1786V-147Q1797 -147 1822 -148Q1845 -148 1858 -148Q1948 -148 2037 -42Q2122 60 2122 152ZM1694 -1429V-1462H1395V-1429ZM1694 -1272V-1308H1395V-1272ZM1760 -148V-1553H1721V-148ZM1694 -183V-526H1476ZM2099 154Q2099 103 2056 17Q2022 -52 1951 -94Q1904 -122 1887 -122H1843L1841 -115Q1851 -86 1864 -25Q1894 251 2027 251Q2099 251 2099 154ZM1365 -576Q1365 -582 1353 -599.5Q1341 -617 1339 -621Q1331 -643 1316 -687Q1276 -801 1241 -865Q1220 -903 1143 -1021Q1124 -1052 1105 -1083Q1076 -1127 1056 -1127Q991 -1127 821 -681Q803 -633 725 -597Q704 -587 599 -551L600 -547L724 -543Q739 -543 765 -552.5Q791 -562 803 -562Q810 -562 825 -556Q840 -550 845 -550Q877 -550 877 -588Q877 -596 875 -612Q873 -628 873 -636Q873 -650 923 -729Q955 -779 987 -828Q1008 -888 1070 -993Q1089 -948 1132 -864Q1169 -810 1207 -755Q1261 -672 1261 -648Q1261 -602 1198 -585Q1161 -576 1089 -550L1249 -547Q1282 -562 1280 -562Q1286 -562 1306.5 -552.5Q1327 -543 1330 -543Q1365 -543 1365 -576ZM428 -1429V-1462H129V-1429ZM428 -1272V-1308H129V-1272ZM495 -148V-1553H455V-148ZM1815 -118L132 -121Q138 -96 153 -55Q179 -9 238 50Q371 184 584 266Q789 344 986 344Q1140 344 1249 313Q1350 285 1495 207Q1579 161 1681 65Q1798 -46 1815 -118ZM428 -183V-526H210Z"/>
</svg>