<svg xmlns="http://www.w3.org/2000/svg" viewBox="24.6 -1598.4 1646.7 2034.7">
	<path fill="currentColor" d="M1261 -522Q1261 -471 1207 -471Q1201 -471 1184.5 -479Q1168 -487 1161 -487Q1153 -487 1144 -479Q1135 -471 1128 -471H932Q934 -480 926 -513Q979 -531 1031 -548Q1091 -570 1110 -603L945 -898Q934 -840 880 -760Q810 -656 781 -591Q781 -568 778 -517Q775 -476 732 -476Q725 -476 706 -484.5Q687 -493 680 -493Q673 -493 660 -483Q599 -471 537 -471Q484 -471 480 -472Q461 -477 461 -503Q461 -520 521 -543Q554 -553 587 -564Q647 -592 665 -626Q666 -628 749 -822Q817 -981 866.5 -1044.5Q916 -1108 931 -1108Q948 -1108 992 -1053Q1054 -975 1113 -869Q1137 -826 1198 -684Q1261 -538 1261 -522ZM1596 -68Q1596 -60 1586 -46Q1575 20 1482 110Q1403 186 1324 230Q1278 259 1129 322Q1011 361 867 361Q777 361 685 343Q522 311 393 235Q306 184 213 99Q100 -4 100 -58V-100H370L127 -437H370Q218 -624 139 -742Q126 -761 126 -800Q126 -892 202 -892Q218 -892 248 -855Q278 -818 278 -806Q278 -789 266 -768Q248 -768 243 -782Q254 -797 249 -813Q205 -865 191 -865Q154 -865 154 -809Q154 -763 261 -617Q320 -541 379 -465V-1225H117V-1253H380V-1398H117V-1426H379Q385 -1469 378 -1523H407V-102H1456L1207 -437H1456Q1386 -524 1317 -611Q1207 -751 1207 -819Q1207 -892 1291 -892Q1312 -892 1340 -847Q1364 -809 1364 -800Q1364 -781 1342 -763Q1337 -766 1327 -775Q1324 -785 1342 -803Q1296 -865 1283 -865Q1260 -865 1245 -839Q1234 -821 1234 -811Q1234 -751 1465 -465V-1225H1202V-1253H1466V-1398H1202V-1426H1464Q1467 -1448 1467 -1473Q1467 -1499 1464 -1523H1493V-102Q1505 -91 1539 -89Q1592 -87 1596 -86ZM1234 -522Q1234 -557 1140 -756Q1053 -941 992 -1021Q950 -1076 934 -1076Q892 -1076 795 -867Q722 -709 703.5 -648.5Q685 -588 641 -564Q571 -526 497 -500Q637 -500 621 -499Q631 -500 654.5 -507Q678 -514 683 -514Q690 -514 708 -506Q726 -498 732 -498Q756 -498 756 -532Q756 -530 749 -581Q753 -590 880 -807Q885 -816 907 -876Q923 -919 950 -941L1137 -598Q1118 -555 1060 -531Q1015 -515 969 -499H1122Q1129 -498 1140 -506Q1151 -514 1158 -514Q1165 -514 1182.5 -506Q1200 -498 1207 -498Q1234 -498 1234 -522ZM1465 -136V-405H1261ZM1568 -70H127Q154 11 249 99Q334 180 425 222Q664 334 896 334Q1215 334 1501 52Q1519 34 1539 -2Q1561 -42 1568 -70ZM379 -136V-405H175Z"/>
</svg>