<svg xmlns="http://www.w3.org/2000/svg" viewBox="0 -2048 2048 2048">
	<path fill="#000000" d="M1917 183Q1917 296 1827 296Q1745 296 1698 171Q1676 114 1651 -24Q1553 153 1332 271Q1120 383 909 383Q718 383 536 313Q350 242 215 113Q181 80 128 14Q117 -6 100 -83H450L174 -529H458V-1188H104V-1279H458V-1361H104V-1453H457V-1552H561V-86H1457L1178 -529H1465V-1188H1105V-1279H1465V-1361H1105V-1453H1465V-1551H1563V-83H1705Q1771 -83 1846 18Q1917 114 1917 183ZM1465 -1388V-1430H1129V-1388ZM1465 -1214V-1256H1129V-1214ZM1537 -84V-1526H1489V-84ZM458 -1388V-1430H128V-1388ZM1894 186Q1894 181 1879 130Q1864 79 1861 71Q1846 37 1793 -10Q1737 -61 1705 -61Q1706 -61 1668 -57Q1689 42 1710 141Q1750 273 1828 273Q1894 273 1894 186ZM1465 -113V-504H1219ZM458 -1214V-1256H128V-1214ZM536 -84V-1526H485V-84ZM1639 -57H130Q134 -35 145 -1Q161 28 234 96Q511 357 896 357Q1228 357 1495 142Q1539 106 1583 51Q1638 -17 1639 -57ZM458 -116V-504H214Z"/>
</svg>