<svg xmlns="http://www.w3.org/2000/svg" viewBox="15 -658 2296.1 1017.1">
	<path fill="currentColor" d="M2226 -133Q2226 19 2081 112Q1961 189 1783 206L1556 167Q1475 173 1287 197Q1224 216 1085 250Q964 274 858 274Q813 274 745 251Q649 217 635 214Q612 205 527 190L291 223Q283 224 274 224Q214 224 157 167Q100 110 100 55Q100 10 139.5 -31.5Q179 -73 230 -84Q201 -139 201 -155Q201 -189 243 -205Q279 -217 314 -229Q302 -248 302 -273Q302 -313 333 -330Q339 -333 409 -353Q381 -390 381 -419Q381 -448 417 -468Q446 -484 471 -484Q503 -484 512 -478Q508 -495 512 -527Q536 -573 597 -573Q579 -573 710 -541Q808 -517 903 -517L1208 -540Q1288 -540 1473 -516Q1646 -493 1714 -476Q1789 -457 1919 -410Q2085 -349 2141 -307Q2226 -242 2226 -133ZM2198 -133Q2198 -236 2113 -290Q1827 -472 1315 -502Q1299 -503 1247 -510Q1195 -517 1189 -517L877 -489Q824 -489 718.5 -520Q613 -551 597 -551Q538 -551 538 -506Q538 -462 691 -426Q738 -414 740 -414Q770 -404 779 -391L759 -371Q718 -374 645 -400Q533 -439 529 -440Q457 -461 468 -461Q409 -448 409 -419Q409 -368 433.5 -356.5Q458 -345 499 -344Q559 -342 568 -341Q603 -327 658 -306Q678 -305 712 -295V-280L708 -276H614Q607 -276 515.5 -301.5Q424 -327 417 -327Q388 -327 360 -313Q325 -296 325 -270Q325 -209 400 -209Q407 -209 417.5 -211.5Q428 -214 434 -214Q440 -214 464 -208.5Q488 -203 496 -203Q554 -202 652 -184Q676 -174 678 -162L669 -152Q664 -152 650.5 -155Q637 -158 630 -158Q624 -158 584 -149.5Q544 -141 538 -141Q505 -141 432 -169.5Q359 -198 308 -198Q224 -198 224 -155Q224 -63 356 -63Q363 -63 407.5 -66Q452 -69 457 -69Q518 -69 634 -36L630 -7Q619 -18 597 -18Q586 -18 548 -12.5Q510 -7 485 -7Q478 -7 361.5 -32Q245 -57 238 -57Q207 -57 170 -28Q128 6 128 49Q128 102 180 148.5Q232 195 288 195Q294 195 403 181Q512 167 518 167Q583 167 688.5 206.5Q794 246 869 246Q952 246 1063 221Q1161 198 1259 175Q1273 172 1444 154Q1528 145 1553 145Q1560 145 1672.5 161.5Q1785 178 1792 178Q1865 178 1974 131Q2089 82 2151 20Q2198 -28 2198 -133ZM559 -173V-183H472V-173ZM503 -27V-37L438 -43V-33Z"/>
</svg>