<svg xmlns="http://www.w3.org/2000/svg" viewBox="0 -2048 2048 2048">
	<path fill="#000000" d="M1281 -754Q1281 -729 1251 -622Q1236 -569 1222 -530Q1150 -331 1094 -201Q1085 -179 1047 -118Q1014 -63 1014 -58Q1014 -52 1029.5 -8.5Q1045 35 1045 42Q1045 47 1035.5 77Q1026 107 1025 121Q1024 132 1026 152Q1029 176 1029 184Q1026 187 1020.5 190Q1015 193 1012 196Q998 192 979.5 171Q961 150 959 137Q957 120 963 92Q969 60 969 51Q969 31 955 21H935Q906 58 906 124Q906 158 907 162Q913 184 942 238Q968 287 968 293Q968 299 965 309Q962 319 962 324H940Q905 324 860 244Q822 177 820 152Q814 86 814 90Q814 39 848 -15Q893 -85 899 -105Q912 -172 943 -305Q972 -416 1002 -528Q1039 -653 1091 -741L779 -1313Q680 -1282 683 -1282Q677 -1282 642.5 -1295Q608 -1308 603 -1308Q583 -1308 579 -1299Q513 -1149 473 -1073Q445 -1020 358 -872Q285 -750 285 -743Q285 -739 310 -693Q339 -639 350 -608Q379 -529 466 -182Q477 -137 527 -27Q567 62 567 106Q567 149 528 232Q484 324 446 324H419Q419 323 416 313Q413 303 413 296Q413 281 444 227.5Q475 174 475 144Q475 170 455 30Q452 27 448 25.5Q444 24 441 21Q418 35 418 63Q418 73 421.5 94.5Q425 116 425 127Q425 167 386 190H363Q363 188 355 167Q358 158 358 149Q358 132 347 105Q336 78 336 70Q336 64 354 8.5Q372 -47 372 -53Q372 -48 319 -155Q250 -292 179 -473Q171 -492 135.5 -616Q100 -740 100 -749Q100 -770 148 -896Q222 -1092 415 -1389Q432 -1415 482 -1446Q532 -1477 552 -1477Q558 -1477 617.5 -1456.5Q677 -1436 683 -1436Q689 -1436 761.5 -1456.5Q834 -1477 839 -1477Q854 -1477 894.5 -1457.5Q935 -1438 941 -1430Q1024 -1311 1119 -1129Q1191 -984 1263 -840Q1281 -805 1281 -754ZM1255 -754Q1255 -798 1243 -824Q1195 -928 1107 -1088Q960 -1359 955 -1368Q939 -1399 900 -1425Q865 -1448 837 -1452L683 -1411Q659 -1416 602 -1435Q553 -1452 547 -1452Q522 -1452 486 -1426Q450 -1400 430 -1368Q219 -1023 155 -829Q151 -816 134 -781Q121 -752 121 -746Q121 -740 129 -715Q138 -687 139 -679Q161 -558 242 -380Q300 -259 358 -139Q398 -48 398 -58Q398 -52 380 7Q362 66 362 72Q362 78 372.5 101Q383 124 383 130Q383 170 382 165Q400 148 400 119Q400 107 396 85Q393 66 394 60Q401 29 427 -5Q467 -9 478 25Q501 94 501 139Q501 146 478 202Q449 272 442 293Q516 256 528 157Q529 149 535.5 130.5Q542 112 542 106Q542 58 503 -26Q455 -127 450 -146Q424 -272 339 -562Q321 -612 287 -682Q259 -740 259 -743Q259 -750 363 -937Q489 -1165 532 -1248Q546 -1274 558 -1314Q586 -1334 601 -1334Q608 -1334 642.5 -1318.5Q677 -1303 683 -1303Q702 -1303 790 -1344Q820 -1315 840 -1271Q854 -1239 867 -1207Q934 -1087 1001 -968Q1116 -762 1116 -738Q1116 -734 1093 -692Q1067 -647 1061 -629Q1009 -473 974 -321Q957 -237 925 -111Q911 -72 868 -6Q839 39 839 90Q839 145 867 208Q897 277 941 298Q880 161 880 124Q880 86 893 47Q910 -4 939 -4Q982 -4 991 45Q994 61 988 84Q981 113 981 121Q989 135 1002 160Q1000 154 1000 145Q1000 124 1012 84.5Q1024 45 1024 44Q1024 38 1006 -6.5Q988 -51 988 -58Q988 -64 1025 -128Q1067 -201 1078 -227Q1136 -360 1161 -437Q1173 -467 1191 -519Q1255 -721 1255 -754Z"/>
</svg>