<svg xmlns="http://www.w3.org/2000/svg" viewBox="10.7 -1272.3 2329.6 1422.6">
	<path fill="currentColor" d="M2254 -889Q2254 -856 2238 -828Q2215 -796 2193 -763Q2091 -614 1988 -465Q1859 -285 1758 -192Q1724 -160 1549 -138Q1346 -118 912 -58Q865 -40 767 -3Q776 19 790 57Q785 57 771 60.5Q757 64 749 64Q745 64 698 7Q658 5 644 3Q612 -1 591 -14Q544 -43 544 -115Q544 -150 560 -174Q514 -209 495 -240Q507 -262 526 -258Q550 -252 561 -258Q547 -282 511 -293Q480 -301 450 -309Q305 -365 232 -462Q155 -565 125 -765Q97 -953 100 -1049V-1186H128L659 -244Q689 -245 747 -240Q763 -237 800 -216Q837 -195 844 -195Q833 -195 1123 -276Q1260 -306 1531 -368Q1584 -381 1654 -483Q1695 -547 1778 -666Q1851 -766 1924 -867Q2030 -998 2101 -998Q2155 -998 2202 -969Q2254 -936 2254 -889ZM2231 -895Q2231 -925 2177 -949Q2133 -969 2104 -969Q2030 -969 1840 -705Q1747 -564 1653 -424Q1588 -342 1524.5 -339Q1461 -336 1151 -254Q845 -172 844 -172Q837 -172 789 -195.5Q741 -219 734 -219H668Q668 -216 670.5 -207.5Q673 -199 673 -196Q709 -196 720 -186V-170L716 -166Q638 -172 619 -172Q572 -172 572 -110Q572 -24 687 -24Q752 -24 810 -49Q882 -79 930 -87Q1142 -120 1685 -185Q1707 -188 1748.5 -218Q1790 -248 1809 -279Q1810 -281 2040 -598Q2231 -861 2231 -895ZM642 -196L126 -1128Q136 -991 147 -854Q162 -664 209 -555Q274 -404 415 -351Q466 -344 556 -312Q580 -297 605 -256Q637 -202 642 -196Z"/>
</svg>