<svg xmlns="http://www.w3.org/2000/svg" viewBox="0 0 917 1000">
  <g transform="scale(1,-1) translate(0,-1000)">
    <path d="M234 774Q202 774 192.0 770.0Q182 766 182 755V747Q231 662 231 609V602Q231 574 218 398L329 371Q329 383 341.0 485.5Q353 588 353 598Q353 640 356.0 670.0Q359 700 363.0 714.5Q367 729 372.5 737.0Q378 745 383.5 746.5Q389 748 393.0 748.0Q397 748 400.0 749.0Q403 750 403 756Q403 758 396.0 763.5Q389 769 374.5 775.0Q360 781 345 782H343Q333 782 314.5 770.5Q296 759 286 759H284Q275 759 262.5 766.5Q250 774 234 774ZM172 407Q172 407 172.5 420.5Q173 434 174.5 455.0Q176 476 177.0 500.5Q178 525 179.0 553.0Q180 581 181 602V611Q181 623 179.0 633.0Q177 643 176.0 647.5Q175 652 168.0 666.5Q161 681 158 688Q149 692 143.0 692.0Q137 692 136 687Q125 628 116.5 589.5Q108 551 97.0 508.5Q86 466 78 428Q96 423 128.5 416.5Q161 410 172 407ZM665 549Q623 530 593.0 513.0Q563 496 554.0 490.5Q545 485 538 485Q524 485 505 499Q505 499 410 692Q409 685 403 598Q398 536 392.5 479.0Q387 422 384.0 394.5Q381 367 381 362V361Q381 360 392 360Q405 360 429.5 363.0Q454 366 464 366Q476 366 481 364ZM178 49Q178 40 190 40Q211 40 258.5 58.5Q306 77 317 88Q353 124 361 211Q280 203 241 164Q228 151 203.0 108.5Q178 66 178 49ZM507 315Q507 307 504.5 298.0Q502 289 487.5 278.0Q473 267 447 267L407 227Q405 219 403 183Q402 156 386.5 118.0Q371 80 348 57Q328 37 278.0 18.5Q228 0 190 0Q161 0 150.0 10.5Q139 21 139 42Q139 76 163.5 124.5Q188 173 210 195Q234 219 270.5 236.0Q307 253 332 254Q368 256 376 258L402 284Q372 301 353 304Q281 315 189.5 333.0Q98 351 32 360Q17 362 8.5 374.0Q0 386 0 401Q0 402 0.5 403.5Q1 405 1 406Q9 476 30.5 560.5Q52 645 68.5 692.5Q85 740 88 744Q98 755 110.5 767.0Q123 779 157.0 798.0Q191 817 222 817Q241 817 258.5 810.0Q276 803 282 803H285Q294 804 321.0 811.5Q348 819 362 819Q404 814 419.5 799.5Q435 785 462 731L550 563Q645 612 742 651Q749 654 773.5 685.0Q798 716 807 717Q831 719 834 719L884 769Q890 772 896 772Q898 772 902.0 771.0Q906 770 911.5 764.0Q917 758 917.0 749.0Q917 740 911 734L869 692Q880 676 880 669Q880 657 870.5 646.0Q861 635 848 630Q796 613 785 608L506 326Q507 322 507 315Z" fill="currentColor"/>
  </g>
</svg>