<svg xmlns="http://www.w3.org/2000/svg" viewBox="0 -2048 2048 2048">
	<path fill="currentColor" d="M1991 -22H722Q695 -13 644 2Q594 12 513 12Q511 62 529 113L522 135Q506 124 497 84Q485 30 483 26Q476 11 460 11Q449 11 438 12Q344 -5 344 -131Q344 -167 373 -194Q351 -209 329 -223Q297 -248 296 -274Q339 -265 395 -255H412L300 -795Q397 -832 397 -911Q397 -959 359 -999.5Q321 -1040 275 -1040Q217 -1040 168 -989Q119 -938 119 -887Q119 -870 124.5 -854Q130 -838 158 -800Q183 -766 183 -760Q183 -744 138 -675Q133 -675 127.5 -678Q122 -681 120 -681Q153 -760 153 -757Q153 -757 129 -794Q105 -831 101 -857Q100 -864 100 -889Q100 -955 160 -1011Q217 -1065 273 -1065Q337 -1065 382 -1010Q422 -962 422 -909Q422 -838 324 -778L447 -255Q462 -260 502 -260Q565 -260 596 -248Q621 -238 672 -203Q719 -172 724 -172Q706 -172 789 -185Q883 -202 977 -220Q1097 -241 1182 -241Q1304 -241 1474 -220Q1637 -200 1720 -177L1768 -669H1967ZM1967 -41L1947 -645H1793L1734 -153H1721Q1490 -216 1185 -216Q1093 -216 979 -196Q865 -176 750 -156Q747 -156 735 -152Q723 -148 717 -148Q701 -148 647 -191.5Q593 -235 560 -235H447Q447 -217 457 -197Q477 -197 491.5 -199.5Q506 -202 509 -202Q521 -202 529 -194V-180L526 -177Q515 -177 495 -174.5Q475 -172 470 -172Q465 -172 442 -177Q419 -182 414 -182Q368 -182 368 -119Q368 -7 514 -7Q520 -7 610.5 -24Q701 -41 707 -41ZM431 -209Q426 -209 426 -230Q400 -232 344 -239Q383 -208 421 -208Q427 -208 431 -209Z"/>
</svg>