<svg xmlns="http://www.w3.org/2000/svg" viewBox="23 -658 2079 907">
	<path fill="currentColor" d="M2025 110H771Q769 110 756 120Q601 172 508 172Q427 172 342 137Q248 99 194 34Q167 1 183 -29Q157 -46 100 -84Q131 -157 162 -230Q202 -329 202 -378Q202 -406 193 -417Q136 -436 136 -465Q136 -482 154 -498Q169 -511 180 -511H642Q657 -511 668 -489Q676 -473 676 -465Q676 -441 661 -433Q641 -425 620 -416Q619 -355 631 -311Q643 -267 682 -173Q717 -88 717 -83Q717 -83 691 -55Q779 -11 778 -11Q784 -11 817 -19Q856 -28 872 -30Q1141 -72 1310 -72L1728 -42Q1742 -42 1744 -45Q1773 -334 1787 -581H1984ZM2005 90L1964 -556H1808L1767 -16L1338 -52Q1188 -52 953 -20Q924 -16 852 -3Q788 9 783 9Q777 9 706.5 -16.5Q636 -42 630 -42Q624 -42 566.5 -32Q509 -22 503 -22Q494 -22 466 -29.5Q438 -37 434 -37Q434 -37 416 -19Q454 9 518 9Q525 9 558 6.5Q591 4 597 4Q633 4 629 2Q636 5 651 52Q617 85 515 85Q431 85 321 34.5Q211 -16 217 -16Q210 -16 207.5 -13.5Q205 -11 203 -11V7Q216 28 244 58Q392 152 505 152Q568 152 735 104Q745 97 766 90ZM650 -484H167Q167 -482 164 -478Q161 -474 161 -467Q161 -458 178 -445H644Q653 -461 650 -484ZM691 -90Q589 -313 594 -418H223Q227 -406 227 -390Q227 -332 179 -216Q131 -100 131 -105V-89Q308 1 396 -3Q389 -9 389 -17Q389 -24 419 -73Q470 -42 493 -42Q497 -42 559 -52Q626 -62 658 -64Q680 -65 691 -90ZM625 42Q619 36 619 25Q529 34 508 34Q502 34 477.5 26.5Q453 19 443 19Q329 19 345 21Q423 60 515 60Q592 60 625 42ZM508 -110Q442 -88 403 -88Q347 -88 314 -115L408 -368ZM477 -118L409 -302L340 -118Q374 -115 410 -115Q446 -115 477 -118Z"/>
</svg>