<svg xmlns="http://www.w3.org/2000/svg" viewBox="0 -2048 2048 2048">
	<path fill="currentColor" d="M1561 -20Q1556 -15 1555 2Q1548 2 1533 4.5Q1518 7 1512 7Q1366 7 1230 -151Q1102 -299 1102 -435Q1102 -501 1147 -560Q1199 -628 1273 -628Q1367 -628 1417 -536Q1454 -468 1454 -389Q1454 -384 1441.5 -310Q1429 -236 1429 -227Q1429 -119 1561 -20ZM1825 -1107Q1825 -1060 1802 -991Q1742 -812 1742 -806L1796 -59Q1796 202 1643 253Q1640 254 1626 262.5Q1612 271 1607 271H318Q274 271 253 255Q174 194 151 93Q150 88 134 -73L130 -288Q130 -349 133 -377Q142 -460 169 -640Q193 -803 193 -806Q193 -809 136 -947Q100 -1034 100 -1117Q100 -1165 111 -1208Q120 -1242 168 -1322Q227 -1420 264 -1420Q286 -1420 286 -1390Q286 -1369 269 -1323Q213 -1171 213 -1129Q213 -1013 274 -941Q300 -953 343 -993Q346 -1044 349 -1094Q361 -1185 415 -1185Q436 -1185 436 -1159Q436 -1145 429.5 -1122.5Q423 -1100 423 -1100Q423 -1095 432.5 -1059.5Q442 -1024 442 -1019Q442 -980 416 -932Q383 -875 350 -818Q345 -806 345 -738L374 -381V-234Q374 -228 366.5 -139Q359 -50 359 -44Q359 5 360 9Q370 46 396 46H884Q890 46 918.5 65.5Q947 85 953 85Q958 85 987 65.5Q1016 46 1022 46H1534Q1585 46 1561 -83L1554 -398L1576 -758Q1576 -802 1529.5 -898Q1483 -994 1483 -1029Q1483 -1035 1492.5 -1065Q1502 -1095 1502 -1100Q1502 -1104 1490 -1125.5Q1478 -1147 1478 -1153Q1478 -1161 1492.5 -1173Q1507 -1185 1515 -1185Q1524 -1185 1550 -1163.5Q1576 -1142 1576 -1134V-1006Q1576 -1006 1624 -946Q1644 -941 1639 -941Q1675 -941 1699 -1027Q1717 -1092 1717 -1141Q1717 -1193 1671 -1285.5Q1625 -1378 1625 -1398V-1419Q1637 -1419 1667 -1429Q1727 -1365 1773 -1275Q1825 -1176 1825 -1107ZM1072 -3H980V-1039Q803 -1102 647 -1102Q562 -1102 460 -1088V-1395H689L1031 -1444Q1035 -1444 1049.5 -1441Q1064 -1438 1072 -1438ZM979 -1068V-1414Q812 -1371 588 -1371Q590 -1371 544 -1370Q503 -1370 482 -1370V-1112Q619 -1126 630 -1126Q691 -1126 832 -1100Q959 -1077 979 -1068ZM1047 -23V-1419H1005V-23ZM1532 -19Q1485 -47 1445 -111.5Q1405 -176 1405 -220Q1405 -225 1417 -305.5Q1429 -386 1429 -391Q1429 -608 1268 -608Q1203 -608 1162 -546Q1126 -493 1126 -433Q1126 -303 1226 -184Q1329 -62 1485 -19Q1501 -19 1532 -19ZM1801 -1112Q1801 -1183 1772 -1240Q1752 -1280 1676 -1384Q1665 -1399 1650 -1399Q1681 -1325 1712 -1252Q1737 -1191 1737 -1139Q1737 -1076 1716 -1007Q1688 -916 1642 -916Q1617 -916 1583 -957Q1554 -993 1553 -1007Q1556 -1052 1549 -1134Q1543 -1156 1517 -1156Q1510 -1156 1503 -1149Q1524 -1116 1520 -1090Q1508 -1013 1509 -1011Q1532 -914 1589 -834Q1600 -819 1600 -780L1573 -376L1590 -17Q1590 9 1577 37Q1561 71 1539 71H1022Q1016 71 988.5 90.5Q961 110 955 110Q950 110 919.5 90.5Q889 71 884 71H392Q365 71 349 33Q335 1 335 -34L352 -310L320 -762Q320 -806 346 -864Q361 -884 382 -918Q423 -1000 423 -1019Q423 -1025 408 -1061.5Q393 -1098 393 -1104Q393 -1109 403 -1127Q413 -1145 413 -1151Q413 -1158 406 -1165Q375 -1148 370 -1100Q370 -1060 370 -1020Q369 -1007 367 -997Q364 -982 329 -949Q294 -916 274 -916Q237 -916 210 -1009Q188 -1082 188 -1124Q188 -1153 225 -1270Q260 -1382 261 -1373V-1395Q209 -1353 170 -1280Q125 -1197 125 -1124Q125 -1048 170 -918Q184 -882 198.5 -846Q213 -810 213 -789Q213 -787 183.5 -588Q154 -389 154 -254Q154 -79 175 108Q178 136 222 189Q270 247 304 247H1602Q1604 247 1618 238Q1719 212 1755 93Q1767 54 1769 29Q1776 -51 1776 -61L1722 -782Q1722 -831 1723 -835Q1729 -855 1775 -980Q1801 -1051 1801 -1112Z"/>
</svg>