<svg xmlns="http://www.w3.org/2000/svg" viewBox="0 -2048 2048 2048">
	<path fill="#000000" d="M2167 -429Q2167 -368 2050 -291Q2020 -271 1916 -216Q1786 -144 1520 -15Q1481 -6 1410 24Q1393 35 1361 72Q1333 104 1307 116L1354 232L1282 262L1234 146Q1197 146 1161.5 117Q1126 88 1126 52Q1126 15 1154 -15Q1134 -12 1093 -6L1087 -57Q1108 -64 1141 -82L1077 -238Q995 -193 826 -115Q782 -105 707 -72Q703 -69 691 -55Q628 20 587 38L639 181L644 183L640 184L651 215L630 188Q604 197 580 201Q556 130 524 48Q509 51 513 51Q470 51 443 19Q416 -13 416 -57Q416 -76 441 -108L390 -94Q385 -108 374 -137Q393 -147 432 -169Q417 -208 386 -240Q349 -277 313 -277H168L100 -987Q100 -1007 125 -1038Q137 -1012 466 -248Q490 -192 493 -192Q503 -192 520.5 -199Q538 -206 548 -206Q561 -206 586.5 -200.5Q612 -195 625 -195Q625 -195 799 -293Q979 -393 1009 -406L909 -650Q890 -646 873 -646Q802 -646 751.5 -695Q701 -744 701 -814Q701 -908 781 -962L761 -1011L833 -1040L853 -991Q870 -994 885 -994Q956 -994 1006.5 -945Q1057 -896 1057 -826Q1057 -736 980 -681L1080 -437Q1109 -450 1152 -481Q1165 -497 1176 -620Q1188 -772 1201 -924Q1217 -1101 1240 -1227Q1283 -1459 1477 -1459Q1580 -1459 1687 -1305Q1727 -1234 1814 -1096Q2033 -781 2135 -561Q2167 -492 2167 -429ZM2144 -428Q2144 -552 1900 -922Q1833 -1027 1697 -1235Q1666 -1284 1597 -1375Q1540 -1437 1476 -1437Q1391 -1437 1330 -1372Q1274 -1312 1263.5 -1226.5Q1253 -1141 1234 -972Q1220 -855 1198 -621Q1196 -580 1195 -539Q1190 -488 1169 -463Q1155 -446 1089 -416L1141 -288Q1278 -355 1321.5 -395.5Q1365 -436 1378 -508Q1389 -609 1401 -711Q1413 -798 1437 -1048Q1452 -1208 1483 -1208Q1500 -1208 1517 -1192Q1534 -1176 1615 -1033Q1665 -942 1716 -851Q1852 -616 1965 -471L1333 -75L1253 -90L1223 -83L1236 -54L1274 -56V-41Q1156 -37 1156 44Q1156 71 1180.5 98Q1205 125 1231 125Q1281 125 1349 51Q1358 39 1378 18Q1390 8 1421 -5Q1615 -84 1826 -193Q2144 -357 2144 -428ZM1933 -473Q1893 -527 1815 -638Q1806 -652 1756 -738L1568 -1063Q1537 -1119 1485 -1185Q1470 -1174 1459 -1046Q1447 -901 1435 -756Q1419 -588 1392 -469Q1376 -399 1295 -344Q1259 -320 1149 -269L1218 -100Q1243 -113 1255 -113Q1272 -113 1328 -98ZM1210 -50L948 -691Q1031 -736 1031 -826Q1031 -886 988 -927Q945 -968 885 -968Q860 -968 838 -961L819 -1007L795 -997L814 -951Q727 -907 727 -814Q727 -754 770 -713Q813 -672 873 -672Q898 -672 924 -681L1183 -46ZM1157 -41L1150 -59Q1139 -55 1116 -45V-35Q1130 -37 1157 -41ZM1320 218L1283 128L1259 138L1296 228ZM1069 -258L1017 -386Q973 -370 848 -297Q776 -254 629 -171L549 -183Q457 -160 400 -125L405 -119Q508 -154 524 -154Q549 -154 583 -108Q617 -62 617 -36Q617 -31 597 4Q626 -30 691 -90Q712 -105 751 -115Q805 -129 815 -133Q876 -157 1069 -258ZM472 -184L124 -989Q123 -985 123 -980L187 -303Q322 -303 348 -294Q400 -275 454 -179L453 -177ZM595 -37Q595 -59 569 -91.5Q543 -124 522 -131L462 -114Q439 -68 439 -53Q439 -21 460 3.5Q481 28 513 28Q537 28 566 7Q595 -14 595 -37ZM623 177Q621 174 590 101Q563 39 556 39Q552 39 541 44L596 176Q607 174 623 177Z"/>
</svg>