<svg xmlns="http://www.w3.org/2000/svg" viewBox="22.7 -1645.3 2052.6 2087.6">
	<path fill="currentColor" d="M1998 322L1753 302Q1630 292 1630 292Q1409 292 1150 332Q936 365 875 365Q727 365 551 308Q375 251 293 251Q226 251 162 264Q152 266 147 266H100Q144 247 172 240Q226 230 329 193Q349 182 408 137Q519 53 586 12Q705 -59 783 -64V-1074L456 -1413L621 -1568L1015 -1165V-56Q1136 -35 1308 54Q1448 130 1588 205Q1665 243 1790 272Q1988 319 1998 322ZM992 -61V-1159L620 -1536L488 -1413L812 -1080V-74Q907 -74 992 -61ZM1719 274Q1645 250 1504 187Q1147 -23 1020 -32Q1072 27 1072 117Q1072 217 999 275Q932 329 829 329Q737 329 668 272Q594 212 594 122Q594 70 623 12Q571 39 467 121Q371 198 308 225Q363 226 549.5 284Q736 342 875 342Q963 342 1318 293Q1463 273 1495 273Q1675 273 1719 274ZM1049 117Q1049 53 1017 5Q981 -51 920 -51Q713 -51 662 -9Q617 28 617 120Q617 200 684 256Q748 309 829 309Q918 309 981 258Q1049 204 1049 117Z"/>
</svg>