<svg xmlns="http://www.w3.org/2000/svg" viewBox="21.1 -1658.9 1567.8 2130.8">
	<path fill="currentColor" d="M1510 -1428Q1510 -1299 1341 -1276H1435Q1446 -1268 1446 -1257Q1446 -1251 1437 -1106Q1430 -1000 1419 -788Q1418 -667 1410 -424Q1407 -367 1389 -177Q1375 -23 1375 70Q1375 138 1391 199Q1407 260 1407 260Q1407 304 1371.5 337Q1336 370 1292 370Q1262 370 1211.5 344.5Q1161 319 1145 319Q1108 338 1071 358Q1031 376 989 376Q978 376 957 374.5Q936 373 926 373L574 370Q546 319 546 302Q546 254 723 229Q770 222 813 198Q879 161 894 155Q938 142 1026 115Q1135 81 1135 -27Q1135 -29 1129 -81Q1121 -154 1120 -206Q1120 -388 1113 -752Q1112 -767 1080 -1276H1191Q1071 -1292 1007 -1374Q994 -1373 974 -1344Q960 -1324 946 -1303Q931 -1314 932 -1423Q924 -1426 916 -1426Q904 -1426 874 -1412.5Q844 -1399 831 -1399Q804 -1399 746 -1423Q688 -1447 674 -1447Q645 -1447 625.5 -1389.5Q606 -1332 536 -1332Q530 -1332 517 -1333.5Q504 -1335 498 -1335Q476 -1335 460.5 -1316Q445 -1297 445 -1275Q469 -1248 469 -1234Q469 -1188 444 -1173Q429 -1164 390.5 -1162.5Q352 -1161 338 -1151Q302 -1125 302 -1095Q302 -1082 308 -1056Q314 -1030 314 -1017Q314 -980 264 -939Q214 -898 214 -873Q214 -851 238.5 -808.5Q263 -766 263 -749Q263 -716 210 -669Q157 -622 157 -594Q157 -571 190 -523Q223 -475 223 -453Q223 -418 185 -384Q144 -348 142 -335Q141 -329 141 -303Q141 -265 151 -254Q208 -192 208 -150Q208 -114 132 -59Q131 -50 131 -46Q131 -15 165 29.5Q199 74 199 95Q199 149 121 200Q148 241 184 299L178 393Q159 360 159 330Q159 291 129.5 254.5Q100 218 100 197Q100 191 102 186Q173 130 173 95Q173 84 139.5 33Q106 -18 106 -58Q106 -70 145.5 -99.5Q185 -129 185 -154Q185 -182 150 -215.5Q115 -249 115 -303Q115 -355 157.5 -393.5Q200 -432 200 -452Q200 -469 166.5 -517Q133 -565 133 -594Q133 -632 185 -676.5Q237 -721 237 -744Q237 -764 214 -806.5Q191 -849 191 -875Q191 -906 241 -949Q291 -992 291 -1019Q291 -1032 285 -1056Q279 -1080 279 -1093Q279 -1141 325 -1170Q331 -1174 400 -1180Q444 -1184 444 -1234Q444 -1240 433 -1252Q422 -1264 422 -1272Q422 -1301 444 -1329.5Q466 -1358 494 -1358Q501 -1358 514.5 -1356.5Q528 -1355 535 -1355Q591 -1355 612.5 -1412.5Q634 -1470 670 -1470Q691 -1470 747 -1446Q803 -1422 831 -1422Q842 -1422 873 -1435.5Q904 -1449 916 -1449Q923 -1449 931 -1446Q930 -1543 944 -1543Q962 -1543 990 -1482H1001Q1040 -1580 1269 -1580Q1360 -1580 1425 -1549Q1510 -1509 1510 -1428ZM776 -668L611 -446Q754 -271 754 -101Q754 -21 720 36Q680 103 605 103Q434 103 434 -125Q434 -182 484 -293Q534 -404 577 -447L409 -669H436L594 -465L749 -668ZM1487 -1425Q1487 -1488 1415 -1527Q1355 -1560 1286 -1560Q1053 -1560 1017 -1459H975L959 -1494V-1364Q976 -1398 1010 -1398Q1017 -1398 1037 -1374Q1105 -1294 1272 -1294Q1487 -1294 1487 -1425ZM1422 -1253H1104Q1117 -1081 1137 -737Q1139 -557 1143 -197Q1143 -160 1148 -87Q1158 -12 1158 -28Q1158 89 1072 123Q1036 134 966 158Q900 187 769 244Q741 256 669.5 265Q598 274 586 280Q569 289 569 304Q569 311 586 347H1024L1141 295Q1155 299 1219 325Q1272 347 1292 347Q1328 347 1355.5 320.5Q1383 294 1383 258Q1383 240 1370 206Q1357 172 1356 156Q1352 104 1352 25Q1352 13 1363 -121L1387 -413Q1404 -620 1404 -937Q1404 -998 1411 -1095Q1421 -1219 1422 -1253ZM731 -103Q731 -264 594 -427Q541 -367 500 -272Q457 -172 457 -97Q457 -25 493 25Q534 80 603 80Q731 80 731 -103Z"/>
</svg>