<svg xmlns="http://www.w3.org/2000/svg" viewBox="0 -2048 2048 2048">
	<path fill="#000000" d="M1608 -760Q1608 -658 1417 -222Q1373 -143 1291 18Q1299 45 1299 68Q1299 185 1199 278Q1174 302 1104 336Q1031 372 1002 372Q955 372 955 331Q955 309 984 298Q1007 290 1030 282Q1165 209 1165 121Q1165 85 1153 85Q1117 85 1076 135.5Q1035 186 991 186Q977 186 965 173Q981 155 1008 116Q1013 96 1028 57Q1042 31 1093 4Q1148 -25 1163 -45Q1184 -126 1210 -230Q1242 -360 1323 -613Q1350 -663 1387 -753Q1368 -782 1332 -842Q1292 -919 1132 -1211Q1052 -1357 1052 -1432Q1052 -1461 1089.5 -1496.5Q1127 -1532 1156 -1532Q1195 -1532 1223 -1516.5Q1251 -1501 1319 -1379Q1608 -857 1608 -760ZM1017 -418H691V-848H1017ZM753 331Q753 372 706 372Q693 372 635.5 349.5Q578 327 560 317Q438 248 411 90V87Q411 77 414.5 58.5Q418 40 418 30Q418 15 358 -100Q320 -171 282 -242Q242 -324 176 -502Q100 -707 100 -757Q100 -811 166 -943Q214 -1037 262 -1131Q381 -1403 463 -1496Q495 -1532 552 -1532Q586 -1532 620.5 -1499Q655 -1466 655 -1432Q655 -1365 627 -1304Q604 -1255 455 -991Q394 -889 324 -753Q362 -670 426 -500Q484 -310 515 -174Q520 -139 526 -104Q533 -60 550 -41Q564 -25 619 4Q666 29 680 58Q684 79 699 117Q702 122 726 144Q742 159 741 177Q725 186 716 186Q676 186 632 135.5Q588 85 555 85Q543 85 543 121Q543 171 595 224Q643 271 695 288Q753 307 753 331ZM1585 -762Q1585 -838 1300 -1363Q1283 -1401 1240 -1470Q1207 -1509 1156 -1509Q1135 -1509 1105 -1478.5Q1075 -1448 1075 -1427Q1075 -1352 1242.5 -1050.5Q1410 -749 1410 -755Q1410 -750 1359 -629Q1304 -502 1298 -481Q1246 -264 1179 -29Q1162 -9 1123 11Q1080 35 1065 48Q1047 64 1035 101.5Q1023 139 999 161Q1023 161 1057 122Q1095 79 1123 70Q1135 68 1160 61Q1191 102 1191 127Q1191 185 1112 251Q1042 310 978 327Q978 329 977 334Q977 349 1000 349Q1080 349 1176.5 264.5Q1273 180 1273 101Q1273 89 1270.5 64.5Q1268 40 1268 28Q1268 0 1319 -91Q1354 -153 1389 -215Q1433 -306 1503 -492Q1585 -711 1585 -762ZM993 -441V-823H715V-441ZM730 325Q710 319 671 303Q610 273 563.5 221.5Q517 170 517 127Q517 85 547 62Q593 62 643.5 112.5Q694 163 711 163Q701 153 681 130Q673 119 665 88Q658 61 638 44Q597 22 534 -26Q513 -50 504 -95Q498 -132 492 -170Q460 -310 410 -481Q395 -531 357 -618Q315 -712 301 -755Q327 -806 379 -908Q454 -1038 529 -1169Q632 -1352 632 -1429Q632 -1454 604.5 -1481.5Q577 -1509 552 -1509Q501 -1509 469 -1467Q386 -1359 278 -1113Q232 -1024 186 -935Q123 -810 123 -757Q123 -710 201 -500Q272 -311 309 -236Q347 -166 384 -96Q442 13 442 36Q442 45 439 62.5Q436 80 436 89Q436 146 480 209Q521 269 573 299Q661 349 707 349Q730 349 730 325Z"/>
</svg>