<svg xmlns="http://www.w3.org/2000/svg" viewBox="0 -2048 2048 2048">
	<path fill="#000000" d="M2242 -1118Q2242 -1042 2160 -931Q2091 -847 2023 -764Q1902 -606 1791 -454Q1717 -353 1690 -322Q1624 -248 1561 -224Q1549 -220 1390 -192L1437 130Q1428 141 1415 141Q1396 141 1295 1Q1235 -84 1176 -169Q992 -145 788 -125Q721 -121 589 -106Q567 -102 536 -82Q498 -58 486 -53Q440 -34 366 -34Q200 -34 176 -80Q157 -117 157 -166Q157 -166 170 -240L189 -255Q117 -265 100 -352H120Q136 -352 164 -343Q196 -334 208 -332Q260 -325 419 -325Q424 -325 464 -304.5Q504 -284 515 -281Q526 -278 556 -278Q580 -278 660 -306Q715 -326 770 -345Q873 -376 1029 -410Q975 -505 975 -632Q975 -744 1004 -843Q1008 -858 1057 -983Q1098 -1087 1098 -1112Q1098 -1165 1013 -1208Q998 -1215 882 -1258Q868 -1263 861 -1268V-1301Q861 -1321 890 -1373Q933 -1387 939 -1387Q947 -1387 983 -1366Q1219 -1230 1240 -1120Q1274 -903 1343 -471Q1375 -473 1425 -485Q1437 -491 1656 -822Q1875 -1153 1980 -1210Q2011 -1227 2054 -1227Q2191 -1227 2239 -1137Q2242 -1131 2242 -1118ZM2216 -1105Q2216 -1205 2056 -1205Q2024 -1205 1991 -1189Q1984 -1186 1954 -1159Q1905 -1116 1780 -953Q1719 -874 1634 -745Q1513 -562 1494 -534Q1476 -512 1441 -467Q1401 -457 1346 -450Q1349 -424 1383 -213Q1388 -213 1400 -215Q1504 -232 1504 -232Q1563 -245 1601 -271Q1650 -305 1704 -375Q1789 -491 1962 -721Q2003 -775 2130 -947Q2158 -981 2207 -1052Q2216 -1068 2216 -1105ZM1413 110L1282 -721Q1264 -853 1218 -1114Q1197 -1208 964 -1351Q943 -1364 939 -1364Q932 -1364 904 -1352Q884 -1313 884 -1282Q1029 -1225 1034 -1222Q1123 -1174 1123 -1103Q1123 -1092 1051 -903Q1002 -774 1002 -641Q1002 -535 1049 -430Q1074 -373 1157 -241Q1237 -113 1276 -57Q1355 57 1413 110ZM1164 -189L1041 -388Q951 -367 773 -322Q765 -320 661 -284Q578 -255 557 -255Q514 -255 487 -267Q456 -283 425 -299Q240 -299 131 -326Q146 -293 180 -282Q185 -280 247 -272Q284 -267 327 -267Q358 -267 366 -260Q366 -248 357 -240H290Q279 -240 256.5 -246Q234 -252 223 -252Q203 -252 189 -226Q183 -215 183 -186Q183 -106 199 -88Q222 -62 350 -62Q429 -62 445 -65Q471 -70 529 -104Q545 -114 576 -126Q624 -134 765 -149Q898 -161 1164 -189Z"/>
</svg>