<svg xmlns="http://www.w3.org/2000/svg" viewBox="-40 628 1080 412">
  <g transform="scale(1,-1) translate(0,-1000)">
    <path d="M161 44Q144 102 108 216L95 217L44 57Q49 56 67 49Q78 85 100 159Q133 62 138 41Q139 41 148.0 42.0Q157 43 161 44ZM968 263H878V65H967ZM750 263H660V65H749ZM0 48Q0 59 12 59L96 332H107L180 106Q253 83 256 82Q273 78 289 78H301Q312 79 328.5 83.5Q345 88 356 89Q408 95 545 95H618H628V292H782V95Q782 95 810 95Q810 95 846 95V292H1000V18Q1000 18 961.5 18.0Q923 18 862.0 18.5Q801 19 732.0 19.5Q663 20 587.0 20.0Q511 20 456 20Q420 20 376.0 19.5Q332 19 328 19Q283 19 213.5 9.5Q144 0 117 0Q113 0 104.0 0.5Q95 1 75.5 3.5Q56 6 40.5 10.5Q25 15 12.5 25.0Q0 35 0 48Z" fill="currentColor"/>
  </g>
</svg>