<svg xmlns="http://www.w3.org/2000/svg" viewBox="0 -2048 2048 2048">
	<path fill="#000000" d="M2195 -1Q2195 14 2178 40Q2161 66 2147.5 70Q2134 74 2113 74Q2090 74 2067.5 62Q2045 50 2035 50Q2038 50 2014 63Q1990 76 1962 76Q1909 76 1825 74Q1716 71 1688 71Q1679 57 1679 41Q1679 27 1695 8Q1721 2 1773 -10Q1830 -23 1890 -46Q1975 -78 1975 -116Q1975 -136 1963 -156Q1942 -186 1903 -247Q1886 -278 1848 -338Q1826 -367 1783 -426Q1755 -468 1698 -603Q1664 -483 1596 -372Q1591 -363 1447 -150Q1427 -120 1427 -99Q1427 -85 1431 -58.5Q1435 -32 1435 -18Q1435 18 1413 44.5Q1391 71 1356 71Q1342 71 1316.5 60.5Q1291 50 1277 50Q1260 50 1232 63Q1204 76 1184 76Q1138 76 1065 74Q970 71 947 71Q937 47 937 24Q937 11 964 -1Q988 -4 1035 -13Q1122 -33 1174 -66Q1270 -127 1303 -213Q1336 -305 1405 -488Q1431 -545 1480 -660Q1406 -711 1406 -848Q1406 -905 1437 -994L232 -996Q227 -996 218 -1002Q176 -1006 138 -1044.5Q100 -1083 100 -1124Q100 -1174 107 -1195Q122 -1238 177 -1269Q227 -1298 276 -1298Q361 -1298 425 -1232Q430 -1234 434 -1234H1738Q1733 -1234 1769 -1226Q1812 -1216 1836 -1202Q1909 -1158 1954 -1053Q1995 -958 1995 -863Q1995 -811 1976 -756Q1970 -738 1937 -700.5Q1904 -663 1886 -651Q1929 -589 2008 -459Q2015 -445 2089 -258Q2117 -186 2180 -44Q2195 -14 2195 -1ZM1970 -840Q1970 -1068 1829 -1177Q1789 -1208 1750 -1208H446Q456 -1191 456 -1183Q456 -1170 449 -1170Q456 -1170 403 -1221Q350 -1272 281 -1272Q228 -1272 196 -1256Q139 -1227 130 -1188Q126 -1171 126 -1135V-1115Q126 -1087 159.5 -1055Q193 -1023 221 -1023H1487Q1524 -1023 1559 -974Q1552 -967 1545 -967Q1539 -967 1518 -983Q1497 -999 1487 -999Q1484 -999 1461 -996Q1429 -899 1429 -848Q1429 -775 1455 -724Q1489 -660 1555 -660Q1601 -660 1635 -696Q1669 -732 1674 -779Q1677 -807 1683 -862Q1689 -873 1701 -872Q1703 -840 1711 -776Q1735 -663 1826 -663Q1860 -663 1878 -672Q1915 -690 1943 -745Q1970 -796 1970 -840ZM2171 -3Q2171 -11 2143 -67Q2111 -134 2109 -138Q2084 -207 2032 -345Q1999 -427 1863 -645Q1839 -640 1825 -640Q1804 -640 1770 -656Q1736 -672 1725 -688Q1706 -714 1693 -757Q1658 -637 1555 -637Q1537 -637 1503 -647Q1449 -529 1351 -289Q1340 -245 1303 -164Q1195 -5 977 18L961 28V48Q1182 52 1176 52Q1196 52 1230.5 38Q1265 24 1286 24Q1294 24 1312.5 35Q1331 46 1343 46Q1412 46 1412 -24Q1412 -35 1406 -57Q1400 -79 1400 -90Q1400 -122 1431 -166Q1456 -200 1482 -234Q1552 -338 1567 -361Q1614 -436 1638 -496Q1652 -545 1692 -639H1706Q1735 -566 1810 -427Q1833 -399 1875 -340Q1894 -305 1934 -237Q1954 -208 1975 -179Q1998 -142 1998 -113Q1998 -94 1963 -64Q1934 -40 1910 -30Q1853 -6 1773 13Q1745 18 1710 27Q1702 32 1702 41Q1702 42 1703 48L1985 51Q2027 24 2035 24Q2040 24 2067 37.5Q2094 51 2113 51Q2135 51 2145 47Q2150 45 2160.5 24Q2171 3 2171 -3Z"/>
</svg>