<svg xmlns="http://www.w3.org/2000/svg" viewBox="10 -1589 2428.9 1919.9">
	<path fill="currentColor" d="M2349 113H2235Q2225 213 2157 213Q2161 213 2089 199L2074 174Q2072 187 2061 241H2001Q2010 169 2010 143Q2010 124 2003 114H1304Q1271 166 1223 185Q1167 207 1116 207Q1038 207 1008 161Q1007 160 993 110L995 108Q975 109 944 122L932 109V41Q952 41 991 38Q998 0 1000 -6Q1008 -22 1032 -37Q1065 -57 1136 -57Q1177 -57 1233 -28Q1271 -8 1302 48H2003Q2010 10 2034 -68Q2049 -103 2049 -114Q2049 -117 2041 -234Q2030 -395 2030 -486Q2030 -506 2035 -546.5Q2040 -587 2040 -607Q2040 -656 1983 -722Q1849 -888 1579 -1217Q1559 -1241 1551 -1241Q1545 -1241 1537 -1237Q1474 -1096 1411 -955Q1334 -790 1259 -687Q1238 -658 1200 -632Q1157 -603 1127 -603H814Q761 -603 657 -613.5Q553 -624 500 -624Q493 -624 465 -608Q459 -604 364 -581L408 -470Q388 -462 353 -456Q337 -502 308 -582Q303 -582 292 -581Q281 -580 275 -580Q262 -580 252 -583Q200 -598 183 -629Q169 -654 169 -710Q169 -747 192 -762Q170 -773 148.5 -784.5Q127 -796 127 -825V-832Q217 -820 196 -820Q214 -820 235 -821L107 -1205Q100 -1226 100 -1248Q100 -1289 137 -1319.5Q174 -1350 216 -1350Q276 -1350 317 -1303Q355 -1258 355 -1197Q355 -1175 341 -1144Q325 -1107 307 -1107Q298 -1107 275 -1120Q285 -1144 285 -1174Q285 -1285 216 -1285Q197 -1285 178 -1265Q159 -1245 159 -1226Q159 -1220 293 -816Q357 -816 377 -811Q390 -808 454 -779Q459 -777 467 -773Q492 -772 504 -769Q685 -799 775 -799Q788 -799 813 -796Q838 -793 851 -793Q883 -793 946.5 -790Q1010 -787 1042 -787H1078Q1107 -843 1122 -877Q1147 -945 1204 -1080Q1293 -1269 1380 -1408Q1397 -1435 1441.5 -1467Q1486 -1499 1514 -1499Q1588 -1499 1639 -1463Q1717 -1408 1801 -1298Q1870 -1204 1940 -1111Q2015 -1020 2091 -930Q2177 -822 2222 -735Q2245 -691 2245 -601Q2245 -584 2239 -555Q2232 -523 2231 -510Q2226 -412 2211 -217Q2209 -201 2205 -169Q2204 -163 2196 -137.5Q2188 -112 2188 -105Q2188 -97 2203 -66Q2220 -31 2222 -24Q2223 -22 2237 48H2349ZM2323 88V74H2238L2237 88ZM2222 -601Q2222 -687 2201 -725Q2140 -835 2023 -980Q1925 -1101 1827 -1222Q1727 -1352 1726 -1354Q1656 -1437 1605 -1461Q1574 -1476 1517 -1476Q1482 -1476 1441 -1441Q1407 -1412 1376 -1351Q1323 -1260 1226 -1074Q1196 -997 1131 -844Q1124 -822 1106 -781Q1096 -764 1070 -764Q1016 -764 908.5 -770Q801 -776 747 -776Q671 -776 557 -757Q491 -746 485 -746Q462 -746 420.5 -769.5Q379 -793 355 -794Q355 -794 277 -794Q194 -794 159 -805Q186 -777 239 -772Q242 -772 328 -772Q338 -763 338 -752Q332 -746 316 -746H234Q230 -746 224.5 -749Q219 -752 217 -752Q191 -752 191 -708Q191 -658 201 -641Q214 -618 259 -606Q270 -603 278 -603Q396 -603 437 -620Q502 -647 494 -647Q557 -647 662 -639Q787 -630 830 -629Q918 -626 1128 -626Q1127 -626 1147 -634Q1235 -669 1323 -828Q1345 -868 1440 -1079Q1469 -1152 1517 -1249Q1529 -1264 1554 -1264Q1569 -1264 1596 -1232Q1730 -1065 2003 -734Q2024 -712 2045 -689Q2063 -666 2063 -632V-621Q2063 -595 2057 -545.5Q2051 -496 2051 -473Q2051 -469 2052.5 -461.5Q2054 -454 2054 -450Q2054 -362 2064 -222Q2072 -110 2072 -113Q2072 -93 2058 -64Q2040 -29 2037 -17Q2021 47 2021 91Q2023 93 2025 97Q2036 126 2036 156Q2036 166 2030 185.5Q2024 205 2024 215H2044Q2048 184 2059 121Q2064 111 2076 112Q2078 118 2078 138Q2078 145 2089 163Q2106 190 2154 190Q2160 190 2198 173Q2213 120 2213 65Q2213 19 2189 -35Q2165 -89 2165 -103Q2165 -119 2173 -145Q2183 -175 2185 -186Q2195 -254 2201 -326Q2202 -384 2208 -501Q2209 -515 2216 -551Q2222 -583 2222 -601ZM1999 88V74H1300Q1295 74 1266 37Q1237 0 1224 -6Q1166 -34 1104 -34Q1026 -34 1017 25Q1013 50 1012 53Q1006 62 985 62Q972 62 958 60V93L1003 85Q1017 119 1031 154Q1049 184 1114 184Q1167 184 1221 160Q1264 141 1281 108Q1291 88 1300 88ZM332 -1198Q332 -1250 299.5 -1288.5Q267 -1327 216 -1327Q181 -1327 153 -1306Q123 -1282 123 -1248Q123 -1231 129 -1212L256 -820L267 -818Q139 -1221 139 -1228Q139 -1259 162 -1283.5Q185 -1308 216 -1308Q311 -1308 311 -1190Q311 -1169 300 -1132L304 -1130Q332 -1157 332 -1198ZM378 -484L340 -582H335L369 -481Q371 -481 378 -484Z"/>
</svg>