<svg xmlns="http://www.w3.org/2000/svg" viewBox="23.1 -1638.9 2076.8 2037.8">
	<path fill="currentColor" d="M1591 -399Q1572 -383 1555 -383Q1537 -383 1512 -425Q1508 -431 1499 -461Q1499 -461 1483 -429Q1462 -481 1441 -534Q1414 -593 1377 -626L1375 -452Q1372 -447 1369 -435Q1386 -417 1414 -378Q1456 -304 1456 -219V-197Q1446 -199 1435 -206Q1450 -164 1450 -127Q1433 -136 1419 -149Q1420 -136 1426 -109Q1430 -88 1430 -62Q1424 -62 1395 -70Q1429 -36 1493 36Q1464 47 1456 47Q1434 47 1341 -54Q1333 -50 1299 -30Q1292 -42 1292 -49Q1316 -99 1346 -169Q1358 -211 1358 -276Q1358 -293 1340 -336Q1319 -276 1260 -239Q1205 -208 1149 -178Q1134 -156 1120 -135Q1094 -99 1056 -99Q1029 -99 1004 -123.5Q979 -148 972 -175Q968 -191 942 -198Q834 -225 776 -342Q749 -285 749 -272Q749 -189 765 -149Q794 -95 822 -41Q794 -45 754 -62Q702 47 648 47Q644 47 616 39Q651 4 704 -69Q696 -66 686 -62Q688 -93 688 -154Q679 -149 665 -149Q671 -193 672 -215Q664 -209 657 -209Q649 -209 641 -212Q645 -234 656 -277Q668 -312 739 -451L737 -630Q697 -596 647 -453L633 -444Q629 -452 620 -467Q597 -419 597 -418Q587 -404 551 -387Q535 -397 535 -411Q535 -413 557 -444Q580 -479 584 -489Q574 -488 554 -488Q581 -524 613 -561H595Q597 -574 634 -605L626 -612Q651 -648 691 -670Q738 -697 754 -713Q756 -726 768 -749Q797 -782 843 -777Q815 -795 815 -812Q815 -851 827 -903L696 -905Q651 -927 651 -959Q651 -963 674 -1017Q700 -1078 753 -1258Q763 -1244 769 -1231L804 -1339Q811 -1326 826 -1299Q839 -1334 865 -1405Q881 -1400 894 -1384Q908 -1421 908 -1442Q908 -1477 893.5 -1505.5Q879 -1534 879 -1536Q879 -1539 891 -1562Q909 -1553 937 -1529Q967 -1489 967 -1444Q967 -1419 960 -1394Q974 -1400 1003 -1410Q936 -1324 811 -1146Q800 -1128 736 -977Q759 -979 824 -978Q852 -978 869 -1025Q875 -1042 884 -1052Q890 -1053 902 -1058Q902 -1064 902 -1074Q901 -1087 901 -1091Q901 -1133 904 -1144Q920 -1201 994 -1284H1033Q1043 -1268 1045 -1251Q1049 -1249 1071 -1249Q1078 -1250 1078 -1249L1082 -1284H1115Q1217 -1207 1217 -1060Q1235 -1055 1248 -1050Q1266 -1000 1278 -971H1391Q1382 -991 1365 -1030Q1314 -1158 1244 -1241Q1235 -1252 1126 -1397Q1147 -1397 1160 -1392Q1160 -1464 1168 -1490Q1182 -1537 1232 -1559Q1249 -1551 1249 -1533Q1249 -1526 1235.5 -1498Q1222 -1470 1222 -1458Q1222 -1399 1230 -1383Q1233 -1388 1238 -1404Q1254 -1404 1259 -1397Q1274 -1359 1302 -1294Q1305 -1305 1323 -1336L1357 -1225Q1363 -1236 1372 -1250Q1384 -1206 1408 -1120Q1412 -1106 1449 -1035Q1480 -975 1480 -946Q1480 -930 1458 -903H1296Q1297 -877 1297 -863Q1297 -784 1270 -769Q1337 -758 1361 -707Q1433 -668 1503 -604L1484 -600Q1511 -575 1525 -558L1520 -538Q1540 -523 1564 -493Q1556 -484 1530 -483Q1547 -447 1591 -399ZM2023 -1196Q2023 -1060 1922 -871Q1988 -553 1988 -81Q1988 183 1904 253Q1889 266 1841 293Q1789 322 1777 322H346Q301 322 250 281Q135 188 135 -96Q135 -293 165 -574Q193 -837 193 -872Q193 -891 165 -948Q131 -1018 127 -1029Q100 -1109 100 -1185Q100 -1254 130 -1338Q140 -1367 200 -1452Q263 -1543 281 -1543Q293 -1543 327 -1524Q296 -1453 264 -1382Q221 -1283 221 -1243Q221 -1181 238 -1109Q263 -1008 305 -1008Q335 -1008 358 -1050Q378 -1087 378 -1119V-1190Q378 -1219 398 -1246.5Q418 -1274 445 -1274Q463 -1274 482 -1242L461 -1180Q478 -1112 478 -1107Q478 -1043 465 -1011Q459 -997 412 -935Q372 -883 374 -857L395 -548Q405 -401 405 -394Q405 -306 386 29Q385 41 398.5 57Q412 73 424 73H990L1067 129L1138 74H1702Q1714 74 1729 45Q1743 19 1743 5Q1743 -2 1740 -14.5Q1737 -27 1737 -34V-123Q1737 -113 1729 -181Q1722 -241 1722 -358Q1722 -439 1738 -600Q1754 -761 1754 -842Q1754 -876 1701 -947Q1670 -988 1647 -1088L1670 -1190Q1650 -1227 1650 -1244Q1650 -1277 1672 -1277Q1732 -1277 1743 -1209Q1747 -1146 1751 -1082Q1763 -1014 1825 -1014Q1864 -1014 1887 -1097Q1905 -1160 1905 -1214Q1905 -1304 1863 -1387Q1821 -1470 1821 -1477V-1528Q1826 -1529 1836 -1533Q1846 -1537 1852 -1537Q1873 -1537 1935 -1448Q1994 -1362 2001 -1333Q2023 -1236 2023 -1196ZM1455 -946Q1455 -979 1426 -1033Q1390 -1099 1385 -1117Q1379 -1139 1367 -1193Q1363 -1186 1349 -1174L1319 -1276Q1313 -1256 1296 -1255L1247 -1365Q1241 -1352 1227 -1342Q1197 -1399 1197 -1433Q1197 -1467 1226 -1526V-1531Q1209 -1523 1194 -1491.5Q1179 -1460 1179 -1439Q1179 -1427 1182.5 -1404Q1186 -1381 1186 -1370L1179 -1364Q1234 -1300 1332 -1165Q1355 -1128 1380 -1063Q1414 -978 1423 -959L1413 -949H1284Q1286 -942 1290 -928H1450Q1455 -932 1455 -946ZM1176 -1174Q1160 -1202 1111 -1258H1100Q1097 -1230 1082 -1224Q1076 -1222 1041 -1222Q1029 -1222 1020 -1258H1004Q959 -1211 945 -1177Q964 -1169 1069 -1144ZM1162 -1091V-1112H1142Q1139 -1107 1139 -1102V-1099Q1139 -1095 1140 -1091Q1155 -1090 1156 -1090ZM1195 -1114Q1195 -1107 1184 -1156Q1100 -1124 1066 -1124Q1025 -1124 934 -1158Q922 -1138 922 -1087Q922 -1090 925 -1061L963 -1070Q935 -1078 935 -1108Q935 -1113 949 -1135Q955 -1138 969 -1138Q1007 -1138 1007 -1105Q1007 -1086 996 -1077L1061 -1092L1119 -1080Q1113 -1087 1113 -1098Q1113 -1138 1145 -1138Q1188 -1138 1188 -1114Q1188 -1078 1171 -1069L1193 -1064Q1193 -1073 1194 -1090Q1195 -1107 1195 -1114ZM1194 -1041L1063 -1069L934 -1040Q998 -1021 1069 -1021Q1129 -1021 1194 -1041ZM981 -1097V-1110L960 -1112L959 -1111Q958 -1109 957 -1106Q957 -1101 966 -1094Q967 -1094 981 -1097ZM1513 -543Q1512 -545 1509 -546H1507Q1511 -544 1513 -543ZM947 -1367Q934 -1365 934 -1378Q934 -1388 937.5 -1410Q941 -1432 941 -1443Q941 -1496 914 -1519Q931 -1483 931 -1431Q931 -1404 901 -1344Q893 -1353 876 -1370Q863 -1330 827 -1253Q817 -1266 809 -1281Q802 -1251 784 -1198Q779 -1188 768 -1188Q761 -1199 758 -1204Q749 -1167 728 -1093Q709 -1048 674 -958Q675 -931 692 -931H836L842 -957Q785 -956 717 -950L706 -962Q729 -1026 787 -1150Q820 -1206 947 -1367ZM1520 -508Q1493 -533 1469 -561L1481 -572Q1464 -588 1439 -618L1447 -622L1375 -674Q1376 -669 1376 -657Q1442 -606 1484 -483Q1490 -497 1502 -509L1504 -505ZM1273 -857Q1273 -904 1264 -942Q1261 -953 1231 -1029Q1208 -1020 1162 -1006Q1123 -999 1070 -999Q1007 -999 960 -1008Q939 -1015 896 -1029Q838 -916 838 -816Q838 -793 901 -773Q954 -756 984 -756H1105Q1145 -756 1195 -765Q1263 -777 1269 -798Q1273 -813 1273 -857ZM1135 -736Q1043 -732 993 -734Q1036 -703 1055 -670Q1080 -705 1135 -736ZM1349 -440V-680Q1349 -685 1333 -707Q1317 -729 1312 -732Q1288 -745 1268 -745Q1163 -745 1063 -651V-195H1096Q1157 -195 1220.5 -236Q1284 -277 1313 -332Q1319 -341 1328 -358Q1349 -422 1349 -440ZM2000 -1192Q2000 -1297 1963 -1365Q1951 -1387 1909 -1446Q1863 -1512 1854 -1512Q1849 -1512 1843 -1509Q1842 -1500 1842 -1488Q1842 -1483 1843 -1481Q1871 -1416 1898 -1352Q1927 -1279 1927 -1214Q1927 -1153 1903 -1081Q1872 -988 1825 -988Q1792 -988 1760 -1013.5Q1728 -1039 1728 -1072Q1728 -1083 1729 -1104Q1730 -1125 1730 -1136Q1730 -1248 1675 -1254Q1673 -1248 1673 -1244Q1673 -1240 1693 -1193L1670 -1089Q1685 -1006 1732.5 -946.5Q1780 -887 1777 -848L1756 -586Q1745 -449 1745 -456V-253Q1745 -242 1756 -148Q1765 -71 1765 10Q1765 30 1740 64.5Q1715 99 1696 99H1140L1067 157L988 99H427Q409 99 385.5 75Q362 51 363 33L375 -178Q381 -284 381 -283V-485Q381 -488 372 -578Q352 -779 352 -864Q352 -887 392 -941Q438 -1002 444 -1020Q456 -1055 456 -1105Q456 -1108 438 -1181L458 -1238Q447 -1251 442 -1251Q428 -1251 414 -1231.5Q400 -1212 400 -1197V-1112Q400 -1073 372 -1031Q341 -985 304 -985Q250 -985 220 -1092Q198 -1170 198 -1244Q198 -1281 239 -1378Q268 -1446 298 -1515Q291 -1520 285 -1520Q272 -1520 216 -1440Q162 -1364 155 -1342Q126 -1252 126 -1182Q126 -1088 173 -992Q215 -907 215 -875Q215 -848 199 -688Q178 -478 169 -371Q157 -229 157 -179V-10Q157 84 201 179Q255 296 337 296H1780Q1787 296 1837 266.5Q1887 237 1896 229Q1946 183 1960 66Q1966 16 1966 -118Q1966 -475 1926 -728Q1899 -899 1899 -874Q1899 -877 1915 -906Q2000 -1061 2000 -1192ZM1449 18Q1425 -7 1400 -33Q1364 -71 1364 -87Q1364 -100 1372 -100Q1387 -94 1407 -89V-94Q1407 -110 1402.5 -142Q1398 -174 1398 -191Q1410 -185 1419 -179L1402 -241Q1400 -249 1410 -259Q1419 -252 1430 -243Q1419 -344 1363 -405Q1355 -378 1355 -368Q1355 -355 1368 -324Q1381 -293 1381 -279Q1381 -183 1329 -73Q1338 -78 1343 -78Q1346 -78 1392 -33Q1438 12 1449 18ZM1042 -197L1040 -649Q1040 -660 1015 -686Q992 -709 978 -718Q919 -754 819 -754Q787 -754 771 -686Q759 -639 759 -591Q759 -468 762 -447Q768 -431 778 -398Q802 -307 879 -254Q890 -245 913 -230Q945 -216 1042 -197ZM744 -681Q715 -665 664 -624Q672 -619 675 -607Q659 -598 641 -582Q647 -579 653 -572L600 -513Q615 -512 610 -502V-499Q616 -505 620 -508L634 -486Q674 -618 741 -660ZM1118 -174Q1085 -172 1079 -172H1066Q1039 -172 991 -183Q1018 -122 1058 -122Q1093 -122 1118 -174ZM778 -77Q727 -163 727 -249Q727 -282 765 -367L749 -416Q692 -319 673 -242Q682 -248 686 -248Q695 -248 698 -241Q696 -222 692 -183L702 -188L712 -177Q712 -161 711 -135Q710 -103 710 -93Q728 -101 735 -94Q734 -69 669 15Q681 9 717 -38Q753 -85 756 -85Q764 -85 778 -77Z"/>
</svg>