<svg xmlns="http://www.w3.org/2000/svg" viewBox="0 -2048 2048 2048">
	<path fill="#000000" d="M2299 -945Q2299 -913 2288 -809Q2206 -37 2093 170Q2065 222 1934 241Q1903 246 1746 256Q1683 260 1688 260Q1592 260 1400.5 246.5Q1209 233 1113 233Q1110 233 1104.5 231.5Q1099 230 1096 230Q1059 230 1012 246Q997 255 964 268Q946 273 886 272Q887 286 889 379H802V277Q799 278 794 278Q743 278 700 255Q650 228 650 166Q650 124 671 63Q694 49 735 31Q648 11 623 -50Q643 -49 691 -44Q735 -39 760 -39Q766 -39 799 -40V-387Q730 -428 661 -469Q578 -517 517 -539Q476 -554 414 -559Q361 -563 308 -567V-415H230V-588Q100 -641 100 -707Q100 -852 180 -862Q130 -901 130 -938Q130 -956 144 -971Q172 -953 216 -924V-1418Q216 -1475 277 -1518Q332 -1558 391 -1558Q592 -1558 592 -1347Q592 -1303 575 -1258Q563 -1226 536 -1194Q504 -1156 477 -1156Q469 -1156 456 -1168.5Q443 -1181 443 -1189Q443 -1192 468 -1232.5Q493 -1273 496 -1282Q506 -1310 506 -1348Q506 -1379 498.5 -1400.5Q491 -1422 464.5 -1444Q438 -1466 415 -1466Q380 -1466 345 -1443Q306 -1418 306 -1385V-890Q348 -878 390 -865Q436 -849 463 -818Q480 -782 523 -727Q534 -718 571 -709Q592 -704 799 -629V-789Q782 -793 748 -803Q713 -818 678.5 -875Q644 -932 644 -972V-991Q644 -1122 794 -1152Q800 -1170 805 -1210H893Q904 -1182 905 -1153Q924 -1149 960 -1138Q1014 -1118 1034.5 -1063.5Q1055 -1009 1055 -984Q1055 -946 1044 -910Q1030 -863 983 -826.5Q936 -790 887 -788L886 -593Q938 -572 1040 -529Q1120 -494 1134 -494Q1150 -494 1237 -596Q1332 -708 1426 -821Q1538 -950 1630 -1032Q1647 -1047 1722 -1086Q1780 -1116 1783 -1116H2191Q2249 -1075 2270 -1046Q2299 -1005 2299 -945ZM2273 -932Q2273 -1022 2230 -1060Q2196 -1090 2182 -1090H1783Q1779 -1090 1734 -1067Q1702 -1051 1642 -1012Q1566 -946 1427 -784Q1354 -697 1281 -611Q1160 -471 1137 -471Q1109 -471 1065 -491Q1031 -507 996 -524Q965 -537 887 -567V-369Q953 -337 1019 -305Q1104 -265 1155 -265Q1187 -265 1207 -272Q1345 -322 1736 -763Q1759 -794 1807 -855Q1895 -849 1923 -849Q1938 -849 1968 -851.5Q1998 -854 2013 -854H2041V-834Q2041 -820 2021 -733Q2004 -660 1972 -514Q1950 -375 1928 -236Q1892 -18 1868 11Q1841 44 1809 44Q1735 44 1586.5 35Q1438 26 1364 26Q1312 26 1269 28Q1246 29 1182 36Q1127 41 1094 41Q1084 41 1063 41Q1042 40 1032 40Q1031 40 974.5 15Q918 -10 887 -11V21Q898 26 896 40Q871 43 822 43Q817 43 807 40Q797 37 792 37Q777 37 736 53Q695 69 688 79Q673 102 673 162Q673 224 736 244Q770 255 851 255Q931 255 962 245Q974 238 1000 226Q1046 207 1092 207Q1098 207 1101 210Q1109 210 1128 209Q1145 209 1155 209Q1245 209 1424 223Q1603 237 1693 237Q2023 237 2071 162Q2101 116 2174 -222Q2206 -369 2222 -489Q2238 -599 2255 -710Q2273 -840 2273 -932ZM2016 -831Q1891 -825 1895 -825Q1877 -825 1819 -831Q1689 -664 1510 -486Q1262 -239 1162 -239Q1099 -239 887 -343V-34Q947 -28 992 -6Q1041 18 1078 18Q1102 18 1134 17Q1160 13 1210 9Q1260 5 1420 5Q1484 5 1612.5 12.5Q1741 20 1805 20Q1824 20 1849 -4Q1869 -23 1906 -243Q1928 -380 1950 -516Q1972 -621 2016 -831ZM569 -1347Q569 -1406 556 -1439Q518 -1535 393 -1535Q340 -1535 293 -1503Q241 -1467 241 -1417V-913L280 -900V-1367Q280 -1422 321 -1455.5Q362 -1489 418 -1489Q447 -1489 480 -1462Q510 -1436 521 -1407Q529 -1386 529 -1348Q529 -1301 512 -1265Q509 -1257 469 -1192L479 -1180Q521 -1196 547 -1249Q569 -1296 569 -1347ZM1032 -981Q1032 -999 1016 -1049Q993 -1120 893 -1130Q888 -1136 877 -1189Q836 -1186 823 -1186Q820 -1171 816 -1141Q812 -1137 760 -1119Q729 -1108 700 -1076Q669 -1041 669 -1010Q669 -914 721 -853Q738 -834 754.5 -825Q771 -816 817 -808L827 -800V18L843 17L860 18V-800Q869 -809 887 -811Q927 -815 967.5 -845.5Q1008 -876 1022 -914Q1032 -942 1032 -981ZM800 -415V-605Q728 -634 582 -683Q532 -696 523 -701Q503 -711 479 -745Q461 -772 441 -799.5Q421 -827 392 -840Q371 -849 271 -880Q201 -901 153 -938Q155 -910 200 -874Q241 -840 272 -834Q295 -832 339 -820Q359 -809 375 -762Q388 -722 388 -693Q388 -633 329 -587Q377 -584 408 -584Q488 -584 610 -522Q705 -469 800 -415ZM365 -694Q365 -753 328 -801Q308 -803 269 -811Q263 -813 228 -828Q199 -841 190 -841Q157 -841 138 -794Q123 -757 123 -718Q123 -639 298 -591Q322 -612 345 -634Q365 -657 365 -694ZM280 -440V-572Q270 -576 256 -580V-440ZM800 14V-16Q731 -16 659 -27Q670 -11 706 2Q738 14 761 14ZM860 353V275H827V353Z"/>
</svg>