<svg xmlns="http://www.w3.org/2000/svg" viewBox="16 -1579 2269.1 1968.1">
	<path fill="currentColor" d="M2158 -847L1929 -866Q1821 -875 1814 -875Q1665 -875 1463 -851Q1289 -828 1115 -805Q996 -790 954 -790Q791 -790 605 -850Q465 -895 438 -902Q356 -922 262 -922Q268 -922 107 -898Q101 -908 100 -920Q130 -924 190 -935Q306 -963 434 -1054L301 -1222Q517 -1370 618 -1417Q787 -1495 980 -1495Q1009 -1495 1076 -1487Q1331 -1456 1559 -1339Q1775 -1211 1991 -1083Q1947 -1014 1880 -926Q1961 -894 2158 -868ZM2201 -538H1418Q1471 -485 1488 -454Q1505 -423 1523 -348Q1530 -319 1530 -306Q1530 -273 1515 -250Q1504 -243 1485 -224Q1482 -214 1474 -194.5Q1466 -175 1446 -158Q1433 -146 1384 -130.5Q1335 -115 1315 -115Q1325 -115 1245 -124V305H1108V-193Q912 -324 736 -538H365Q272 -538 186 -626Q100 -714 100 -807H208Q230 -760 278 -714Q333 -661 375 -661H2201ZM1961 -1073Q1549 -1318 1499 -1342Q1236 -1469 984 -1469Q792 -1469 637 -1399Q565 -1366 334 -1219L453 -1067Q593 -1179 646 -1209Q737 -1260 876 -1282Q908 -1287 911 -1287Q1096 -1287 1264 -1223Q1352 -1189 1548 -1081Q1731 -980 1860 -936Q1893 -982 1961 -1073ZM1906 -892Q1860 -907 1728 -963Q1688 -980 1427 -1120Q1244 -1218 1112 -1242Q1179 -1167 1179 -1071Q1179 -1063 1171 -1027Q1166 -1000 1143 -947Q1061 -830 900 -830Q818 -830 749 -871Q675 -916 652 -990Q636 -1043 636 -1070Q636 -1127 662 -1190Q608 -1162 482 -1062Q373 -974 295 -947Q355 -948 481 -911Q576 -882 670 -854Q824 -813 954 -813Q995 -813 1102 -826Q1281 -850 1459 -873Q1668 -899 1819 -899Q1823 -899 1906 -892ZM1156 -1071Q1156 -1120 1133 -1173Q1106 -1233 1067 -1251Q1038 -1264 924 -1264Q786 -1264 703 -1208Q685 -1196 671 -1145Q659 -1100 659 -1071Q659 -991 714 -932Q769 -873 849 -862Q906 -854 900 -854Q964 -854 1014 -873Q1088 -901 1125 -960Q1137 -979 1148 -1026Q1156 -1060 1156 -1071ZM2175 -564V-635H375Q326 -635 269 -687Q223 -728 192 -781H128Q142 -704 215 -634Q288 -564 365 -564ZM1504 -306Q1504 -316 1498 -342Q1479 -421 1455 -459Q1439 -483 1382 -538H1296Q1364 -475 1378 -461Q1424 -415 1450 -374Q1483 -322 1486 -259Q1504 -277 1504 -306ZM1466 -244Q1466 -297 1431 -362Q1421 -381 1262 -538H1245V-227Q1308 -212 1340 -212Q1421 -212 1462 -234Q1466 -239 1466 -244ZM1452 -208Q1349 -186 1340 -186Q1315 -186 1245 -202V-149Q1296 -141 1315 -141Q1346 -141 1391 -159Q1444 -181 1452 -208ZM1106 -311V-538H844Q907 -478 970 -419Q1045 -350 1106 -311ZM1106 -226V-281Q1014 -342 809 -538H770Q929 -350 1106 -226ZM1219 279V-538H1134V279Z"/>
</svg>