<svg xmlns="http://www.w3.org/2000/svg" viewBox="0 -2048 2048 2048">
	<path fill="currentColor" d="M1453 23H542Q564 9 715 -77L606 -575Q606 -590 611 -620Q617 -640 644 -662Q671 -684 692 -684Q741 -684 762 -666Q811 -624 869 -547Q918 -483 966 -419Q965 -473 965 -458Q965 -472 966 -477L1013 -729Q1013 -730 1013 -734Q1013 -740 1012 -745Q945 -806 945 -835Q945 -871 975 -903Q1107 -1045 1107 -1117Q1107 -1183 1084 -1194Q1042 -1199 1001 -1204Q991 -1228 971 -1277Q970 -1280 959 -1294Q951 -1305 951 -1310Q951 -1312 976 -1346Q1001 -1380 1007 -1396Q1034 -1470 1035 -1471Q1054 -1508 1092 -1524Q1143 -1546 1181 -1546Q1224 -1546 1262 -1533Q1306 -1518 1341 -1463Q1373 -1413 1377 -1363Q1379 -1335 1380 -1309L1403 -695H1324Q1326 -635 1326 -589Q1326 -462 1313 -246Q1303 -80 1303 -83Q1303 -76 1351 -48Q1413 -12 1453 23ZM2023 -1196Q2023 -1060 1922 -871Q1988 -553 1988 -81Q1988 183 1904 253Q1889 266 1841 293Q1789 322 1777 322H346Q301 322 250 281Q135 188 135 -96Q135 -293 165 -574Q193 -837 193 -872Q193 -891 165 -948Q131 -1018 127 -1029Q100 -1109 100 -1185Q100 -1254 130 -1338Q140 -1367 200 -1452Q263 -1543 281 -1543Q293 -1543 327 -1524Q296 -1453 264 -1382Q221 -1283 221 -1243Q221 -1181 238 -1109Q263 -1008 305 -1008Q335 -1008 358 -1050Q378 -1087 378 -1119V-1190Q378 -1219 398 -1246.5Q418 -1274 445 -1274Q463 -1274 482 -1242L461 -1180Q478 -1112 478 -1107Q478 -1043 465 -1011Q459 -997 412 -935Q372 -883 374 -857L395 -548Q405 -401 405 -394Q405 -306 386 29Q385 41 398.5 57Q412 73 424 73H990L1067 129L1138 74H1702Q1714 74 1729 45Q1743 19 1743 5Q1743 -2 1740 -14.5Q1737 -27 1737 -34V-123Q1737 -113 1729 -181Q1722 -241 1722 -358Q1722 -439 1738 -600Q1754 -761 1754 -842Q1754 -876 1701 -947Q1670 -988 1647 -1088L1670 -1190Q1650 -1227 1650 -1244Q1650 -1277 1672 -1277Q1732 -1277 1743 -1209Q1747 -1146 1751 -1082Q1763 -1014 1825 -1014Q1864 -1014 1887 -1097Q1905 -1160 1905 -1214Q1905 -1304 1863 -1387Q1821 -1470 1821 -1477V-1528Q1826 -1529 1836 -1533Q1846 -1537 1852 -1537Q1873 -1537 1935 -1448Q1994 -1362 2001 -1333Q2023 -1236 2023 -1196ZM1377 -720L1357 -1317Q1357 -1335 1353 -1372Q1336 -1462 1274 -1503Q1242 -1524 1181 -1524Q1152 -1524 1100 -1502Q1066 -1488 1037 -1418L1189 -1414Q1194 -1414 1241 -1396Q1242 -1390 1242 -1383Q1242 -1356 1217 -1330.5Q1192 -1305 1191 -1264L1177 -720ZM1384 0Q1279 -66 1280 -76L1294 -345Q1301 -480 1301 -472V-694H1155L1169 -1250Q1169 -1267 1172 -1300Q1174 -1316 1195 -1335.5Q1216 -1355 1216 -1382Q1193 -1391 1185 -1391L1029 -1394Q1026 -1380 976 -1312Q986 -1282 1015 -1226Q1043 -1223 1098 -1216Q1107 -1207 1120 -1186Q1130 -1158 1130 -1117Q1130 -1088 1085 -1014Q1066 -980 1021 -916Q968 -858 968 -838Q968 -799 1037 -756Q1039 -747 1039 -742Q1039 -709 1018 -620Q994 -517 991 -490Q991 -490 991 -382Q984 -372 974 -373Q920 -444 867 -515Q802 -599 749 -647Q732 -662 690 -662Q678 -662 657.5 -644.5Q637 -627 633.5 -616.5Q630 -606 630 -583Q630 -577 738 -73Q741 -61 688 -33Q654 -16 621 0ZM2000 -1192Q2000 -1297 1963 -1365Q1951 -1387 1909 -1446Q1863 -1512 1854 -1512Q1849 -1512 1843 -1509Q1842 -1500 1842 -1488Q1842 -1483 1843 -1481Q1871 -1416 1898 -1352Q1927 -1279 1927 -1214Q1927 -1153 1903 -1081Q1872 -988 1825 -988Q1792 -988 1760 -1013.5Q1728 -1039 1728 -1072Q1728 -1083 1729 -1104Q1730 -1125 1730 -1136Q1730 -1248 1675 -1254Q1673 -1248 1673 -1244Q1673 -1240 1693 -1193L1670 -1089Q1685 -1006 1732.5 -946.5Q1780 -887 1777 -848L1756 -586Q1745 -449 1745 -456V-253Q1745 -242 1756 -148Q1765 -71 1765 10Q1765 30 1740 64.5Q1715 99 1696 99H1140L1067 157L988 99H427Q409 99 385.5 75Q362 51 363 33L375 -178Q381 -284 381 -283V-485Q381 -488 372 -578Q352 -779 352 -864Q352 -887 392 -941Q438 -1002 444 -1020Q456 -1055 456 -1105Q456 -1108 438 -1181L458 -1238Q447 -1251 442 -1251Q428 -1251 414 -1231.5Q400 -1212 400 -1197V-1112Q400 -1073 372 -1031Q341 -985 304 -985Q250 -985 220 -1092Q198 -1170 198 -1244Q198 -1281 239 -1378Q268 -1446 298 -1515Q291 -1520 285 -1520Q272 -1520 216 -1440Q162 -1364 155 -1342Q126 -1252 126 -1182Q126 -1088 173 -992Q215 -907 215 -875Q215 -848 199 -688Q178 -478 169 -371Q157 -229 157 -179V-10Q157 84 201 179Q255 296 337 296H1780Q1787 296 1837 266.5Q1887 237 1896 229Q1946 183 1960 66Q1966 16 1966 -118Q1966 -475 1926 -728Q1899 -899 1899 -874Q1899 -877 1915 -906Q2000 -1061 2000 -1192ZM1126 -1320Q1072 -1324 1036 -1324Q1036 -1336 1038 -1342Q1055 -1358 1070 -1358Q1096 -1358 1126 -1320Z"/>
</svg>