<svg xmlns="http://www.w3.org/2000/svg" viewBox="0 -2048 2048 2048">
	<path fill="currentColor" d="M1697 -292Q1601 -322 1406 -365Q1348 -373 1347 -373Q1346 -354 1346 -340Q1346 -278 1384 -66H1366Q1318 -132 1278 -239Q1245 -330 1212 -422Q1196 -461 994 -653Q987 -638 974 -600L788 -776L800 -838Q778 -868 732 -919Q738 -804 738 -787Q657 -886 625 -996Q605 -1064 605 -1076Q605 -1082 609 -1086L601 -1100Q594 -1085 578 -1069Q553 -1103 553 -1120Q553 -1130 559 -1149Q565 -1168 565 -1178Q565 -1179 549 -1242Q505 -1281 505 -1357Q505 -1379 507 -1391Q522 -1400 544 -1400Q591 -1400 630 -1378Q711 -1333 801 -1246Q964 -1187 1072 -1074L1062 -1062Q1011 -1072 955 -1080Q991 -1040 1119 -827Q1163 -749 1206 -671Q1261 -579 1317 -533Q1350 -517 1411 -486Q1577 -398 1697 -292ZM2023 -1196Q2023 -1060 1922 -871Q1988 -553 1988 -81Q1988 183 1904 253Q1889 266 1841 293Q1789 322 1777 322H346Q301 322 250 281Q135 188 135 -96Q135 -293 165 -574Q193 -837 193 -872Q193 -891 165 -948Q131 -1018 127 -1029Q100 -1109 100 -1185Q100 -1254 130 -1338Q140 -1367 200 -1452Q263 -1543 281 -1543Q293 -1543 327 -1524Q296 -1453 264 -1382Q221 -1283 221 -1243Q221 -1181 238 -1109Q263 -1008 305 -1008Q335 -1008 358 -1050Q378 -1087 378 -1119V-1190Q378 -1219 398 -1246.5Q418 -1274 445 -1274Q463 -1274 482 -1242L461 -1180Q478 -1112 478 -1107Q478 -1043 465 -1011Q459 -997 412 -935Q372 -883 374 -857L395 -548Q405 -401 405 -394Q405 -306 386 29Q385 41 398.5 57Q412 73 424 73H990L1067 129L1138 74H1702Q1714 74 1729 45Q1743 19 1743 5Q1743 -2 1740 -14.5Q1737 -27 1737 -34V-123Q1737 -113 1729 -181Q1722 -241 1722 -358Q1722 -439 1738 -600Q1754 -761 1754 -842Q1754 -876 1701 -947Q1670 -988 1647 -1088L1670 -1190Q1650 -1227 1650 -1244Q1650 -1277 1672 -1277Q1732 -1277 1743 -1209Q1747 -1146 1751 -1082Q1763 -1014 1825 -1014Q1864 -1014 1887 -1097Q1905 -1160 1905 -1214Q1905 -1304 1863 -1387Q1821 -1470 1821 -1477V-1528Q1826 -1529 1836 -1533Q1846 -1537 1852 -1537Q1873 -1537 1935 -1448Q1994 -1362 2001 -1333Q2023 -1236 2023 -1196ZM1022 -1091Q975 -1134 859 -1192Q907 -1145 934 -1107Q959 -1100 1022 -1091ZM1313 -510Q1229 -575 1120 -774Q1076 -857 977 -1017Q811 -1248 610 -1359Q577 -1377 543 -1377Q547 -1365 547 -1351Q538 -1351 531 -1356Q529 -1346 529 -1341Q529 -1308 549.5 -1280Q570 -1252 602 -1252Q611 -1252 635 -1262L648 -1250Q629 -1230 602 -1230Q589 -1230 572 -1234Q576 -1229 594 -1229Q602 -1229 618.5 -1232Q635 -1235 643 -1235Q650 -1235 656 -1222Q626 -1203 581 -1206L587 -1184Q660 -1157 660 -1113Q660 -1094 650 -1086L632 -1093Q710 -962 860 -811Q867 -804 1125 -562Q1161 -528 1235 -431Q1254 -437 1280 -463.5Q1306 -490 1313 -510ZM634 -1115V-1128Q634 -1138 598 -1154Q611 -1124 634 -1115ZM1598 -343Q1462 -442 1332 -498Q1310 -441 1239 -408Q1314 -172 1352 -124Q1323 -291 1323 -386Q1323 -395 1335 -398Q1479 -380 1598 -343ZM588 -1123Q588 -1126 579 -1140Q576 -1126 576 -1123Q576 -1117 581 -1107Q588 -1118 588 -1123ZM2000 -1192Q2000 -1297 1963 -1365Q1951 -1387 1909 -1446Q1863 -1512 1854 -1512Q1849 -1512 1843 -1509Q1842 -1500 1842 -1488Q1842 -1483 1843 -1481Q1871 -1416 1898 -1352Q1927 -1279 1927 -1214Q1927 -1153 1903 -1081Q1872 -988 1825 -988Q1792 -988 1760 -1013.5Q1728 -1039 1728 -1072Q1728 -1083 1729 -1104Q1730 -1125 1730 -1136Q1730 -1248 1675 -1254Q1673 -1248 1673 -1244Q1673 -1240 1693 -1193L1670 -1089Q1685 -1006 1732.5 -946.5Q1780 -887 1777 -848L1756 -586Q1745 -449 1745 -456V-253Q1745 -242 1756 -148Q1765 -71 1765 10Q1765 30 1740 64.5Q1715 99 1696 99H1140L1067 157L988 99H427Q409 99 385.5 75Q362 51 363 33L375 -178Q381 -284 381 -283V-485Q381 -488 372 -578Q352 -779 352 -864Q352 -887 392 -941Q438 -1002 444 -1020Q456 -1055 456 -1105Q456 -1108 438 -1181L458 -1238Q447 -1251 442 -1251Q428 -1251 414 -1231.5Q400 -1212 400 -1197V-1112Q400 -1073 372 -1031Q341 -985 304 -985Q250 -985 220 -1092Q198 -1170 198 -1244Q198 -1281 239 -1378Q268 -1446 298 -1515Q291 -1520 285 -1520Q272 -1520 216 -1440Q162 -1364 155 -1342Q126 -1252 126 -1182Q126 -1088 173 -992Q215 -907 215 -875Q215 -848 199 -688Q178 -478 169 -371Q157 -229 157 -179V-10Q157 84 201 179Q255 296 337 296H1780Q1787 296 1837 266.5Q1887 237 1896 229Q1946 183 1960 66Q1966 16 1966 -118Q1966 -475 1926 -728Q1899 -899 1899 -874Q1899 -877 1915 -906Q2000 -1061 2000 -1192ZM713 -861Q712 -889 709 -945Q689 -969 638 -1039Q665 -943 713 -861ZM973 -668L818 -821L812 -786L965 -640Q968 -649 973 -668ZM628 -1320Q614 -1313 603 -1313Q598 -1313 592 -1315L580 -1327Q597 -1354 607 -1354Q617 -1354 628 -1343Z"/>
</svg>