<svg xmlns="http://www.w3.org/2000/svg" viewBox="0 0 998 1000">
  <g transform="scale(1,-1) translate(0,-1000)">
    <path d="M169 265 140 156H197ZM317 118H194Q217 108 238 108Q238 108 246 108Q308 105 373 105Q541 105 654 146Q710 189 763 272L850 416Q888 480 938 480Q965 480 981.5 456.0Q998 432 998 411Q998 362 935.5 272.0Q873 182 829 135Q791 94 772.5 77.0Q754 60 724.0 40.0Q694 20 659.0 14.5Q624 9 572.5 4.5Q521 0 438 0Q423 0 337.5 10.5Q252 21 236 21Q204 21 182.5 14.5Q161 8 151 8Q140 8 133 9Q117 11 80.0 38.0Q43 65 43 88Q43 98 59 98Q68 98 94.0 83.5Q120 69 133 68H135Q144 68 152.5 74.0Q161 80 166 86L170 92Q170 93 155.0 99.0Q140 105 124.0 111.0Q108 117 106 118H20Q11 118 5.5 124.0Q0 130 0 137Q0 138 73.5 418.5Q147 699 149 704Q159 732 170 732Q182 732 188 703L336 143Q337 141 337 137Q337 131 331.5 124.5Q326 118 317 118ZM170 370Q181 370 188 343L237 156H292L169 625L45 156H100Q149 344 149 344Q158 370 170 370ZM699 69Q714 78 725.0 85.5Q736 93 743.0 98.0Q750 103 759.0 111.5Q768 120 772.5 125.0Q777 130 788.5 143.5Q800 157 808 165Q825 184 838.5 201.0Q852 218 869.5 242.5Q887 267 898 281Q901 284 914.5 303.5Q928 323 944.0 355.0Q960 387 960 407Q960 443 938 443Q906 443 877 398L789 256Q786 252 774.0 233.5Q762 215 756.5 207.5Q751 200 738.5 183.5Q726 167 716.5 157.5Q707 148 693.0 136.0Q679 124 665 116Q573 69 351 69H320Q257 69 253 63Q258 53 330.5 43.0Q403 33 485 33Q638 33 699 69Z" fill="currentColor"/>
  </g>
</svg>