<svg xmlns="http://www.w3.org/2000/svg" viewBox="0 -2048 2048 2048">
	<path fill="#000000" d="M1046 -1139Q1046 -1077 1029 -931L995 -640H977Q887 -640 872 -650Q881 -706 889 -793Q895 -863 905 -990Q914 -1110 914 -1142Q914 -1194 889 -1293Q864 -1392 864 -1438Q864 -1456 874 -1501Q891 -1576 965 -1576Q970 -1576 980.5 -1581Q991 -1586 998 -1586Q1005 -1586 1014 -1577Q994 -1517 994 -1458Q994 -1452 1001 -1420Q1046 -1212 1046 -1139ZM664 -1139Q664 -1077 647 -931L613 -640H595Q505 -640 490 -650Q499 -706 507 -793Q513 -863 523 -990Q532 -1110 532 -1142Q532 -1194 507 -1293Q482 -1392 482 -1438Q482 -1456 492 -1501Q509 -1576 583 -1576Q588 -1576 598.5 -1581Q609 -1586 616 -1586Q623 -1586 632 -1577Q612 -1517 612 -1458Q612 -1452 619 -1420Q664 -1212 664 -1139ZM282 -1139Q282 -1077 265 -931L231 -640H213Q123 -640 108 -650Q117 -706 125 -793Q131 -863 141 -990Q150 -1110 150 -1142Q150 -1194 125 -1293Q100 -1392 100 -1438Q100 -1456 110 -1501Q127 -1576 201 -1576Q206 -1576 216.5 -1581Q227 -1586 234 -1586Q241 -1586 250 -1577Q230 -1517 230 -1458Q230 -1452 237 -1420Q282 -1212 282 -1139ZM855 -79Q855 -17 838 129L804 420H786Q696 420 681 410Q690 354 698 267Q704 197 714 70Q723 -50 723 -82Q723 -134 698 -233Q673 -332 673 -378Q673 -396 683 -441Q700 -516 774 -516Q779 -516 789.5 -521Q800 -526 807 -526Q814 -526 823 -517Q803 -457 803 -398Q803 -392 810 -360Q855 -152 855 -79ZM473 -79Q473 -17 456 129L422 420H404Q314 420 299 410Q308 354 316 267Q322 197 332 70Q341 -50 341 -82Q341 -134 316 -233Q291 -332 291 -378Q291 -396 301 -441Q318 -516 392 -516Q397 -516 407.5 -521Q418 -526 425 -526Q432 -526 441 -517Q421 -457 421 -398Q421 -392 428 -360Q473 -152 473 -79ZM982 -1556Q961 -1545 955 -1518Q947 -1483 947 -1471Q947 -1437 969 -1437H971Q968 -1450 968 -1458Q968 -1495 982 -1556ZM600 -1556Q579 -1545 573 -1518Q565 -1483 565 -1471Q565 -1437 587 -1437H589Q586 -1450 586 -1458Q586 -1495 600 -1556ZM1020 -1118Q1020 -1293 975 -1413Q971 -1412 969 -1412Q940 -1412 928 -1436Q922 -1448 922 -1471Q922 -1508 936 -1545Q890 -1516 890 -1431Q890 -1423 914 -1331Q939 -1236 939 -1142Q939 -1141 934 -1067L926 -949Q919 -846 899 -665H973L1014 -1012Q1020 -1063 1020 -1118ZM218 -1556Q197 -1545 191 -1518Q183 -1483 183 -1471Q183 -1437 205 -1437H207Q204 -1450 204 -1458Q204 -1495 218 -1556ZM638 -1118Q638 -1293 593 -1413Q589 -1412 587 -1412Q558 -1412 546 -1436Q540 -1448 540 -1471Q540 -1508 554 -1545Q508 -1516 508 -1431Q508 -1423 532 -1331Q557 -1236 557 -1142Q557 -1141 552 -1067L544 -949Q537 -846 517 -665H591L632 -1012Q638 -1063 638 -1118ZM256 -1118Q256 -1293 211 -1413Q207 -1412 205 -1412Q176 -1412 164 -1436Q158 -1448 158 -1471Q158 -1508 172 -1545Q126 -1516 126 -1431Q126 -1423 150 -1331Q175 -1236 175 -1142Q175 -1141 170 -1067L162 -949Q155 -846 135 -665H209L250 -1012Q256 -1063 256 -1118ZM791 -496Q770 -485 764 -458Q756 -423 756 -411Q756 -377 778 -377H780Q777 -390 777 -398Q777 -435 791 -496ZM409 -496Q388 -485 382 -458Q374 -423 374 -411Q374 -377 396 -377H398Q395 -390 395 -398Q395 -435 409 -496ZM829 -58Q829 -233 784 -353Q780 -352 778 -352Q749 -352 737 -376Q731 -388 731 -411Q731 -448 745 -485Q699 -456 699 -371Q699 -363 723 -271Q748 -176 748 -82Q748 -81 743 -7L735 111Q728 214 708 395H782L823 48Q829 -3 829 -58ZM447 -58Q447 -233 402 -353Q398 -352 396 -352Q367 -352 355 -376Q349 -388 349 -411Q349 -448 363 -485Q317 -456 317 -371Q317 -363 341 -271Q366 -176 366 -82Q366 -81 361 -7L353 111Q346 214 326 395H400L441 48Q447 -3 447 -58Z"/>
</svg>