<svg xmlns="http://www.w3.org/2000/svg" viewBox="0.2 -1615.8 2694.6 2065.6">
	<path fill="currentColor" d="M2595 -635Q2595 -502 2562 -221L2495 350H2470Q2291 350 2273 338Q2288 245 2305 59Q2318 -77 2337 -336Q2355 -576 2355 -641Q2355 -744 2305.5 -942Q2256 -1140 2256 -1232Q2256 -1271 2275 -1356Q2288 -1415 2336.5 -1456Q2385 -1497 2445 -1497Q2456 -1497 2478 -1506.5Q2500 -1516 2511 -1516Q2521 -1516 2529 -1508Q2490 -1391 2490 -1272Q2490 -1263 2505 -1194Q2564 -921 2565 -916Q2595 -756 2595 -635ZM2056 -635Q2056 -502 2023 -221L1956 350H1931Q1752 350 1734 338Q1749 245 1766 59Q1779 -77 1798 -336Q1816 -576 1816 -641Q1816 -744 1766.5 -942Q1717 -1140 1717 -1232Q1717 -1271 1736 -1356Q1749 -1415 1797.5 -1456Q1846 -1497 1906 -1497Q1917 -1497 1939 -1506.5Q1961 -1516 1972 -1516Q1982 -1516 1990 -1508Q1951 -1391 1951 -1272Q1951 -1263 1966 -1194Q2025 -921 2026 -916Q2056 -756 2056 -635ZM1517 -635Q1517 -502 1484 -221L1417 350H1392Q1213 350 1195 338Q1210 245 1227 59Q1240 -77 1259 -336Q1277 -576 1277 -641Q1277 -744 1227.5 -942Q1178 -1140 1178 -1232Q1178 -1271 1197 -1356Q1210 -1415 1258.5 -1456Q1307 -1497 1367 -1497Q1378 -1497 1400 -1506.5Q1422 -1516 1433 -1516Q1443 -1516 1451 -1508Q1412 -1391 1412 -1272Q1412 -1263 1427 -1194Q1486 -921 1487 -916Q1517 -756 1517 -635ZM978 -635Q978 -502 945 -221L878 350H853Q674 350 656 338Q671 246 688 59Q701 -76 720 -336Q738 -576 738 -641Q738 -744 688.5 -942Q639 -1140 639 -1232Q639 -1271 658 -1356Q671 -1415 719.5 -1456Q768 -1497 828 -1497Q839 -1497 861 -1506.5Q883 -1516 894 -1516Q904 -1516 912 -1508Q873 -1391 873 -1272Q873 -1263 888 -1194Q947 -921 948 -916Q978 -756 978 -635ZM439 -635Q439 -502 406 -221L339 350H314Q135 350 117 338Q132 246 149 59Q162 -76 181 -336Q199 -576 199 -641Q199 -744 149.5 -942Q100 -1140 100 -1232Q100 -1271 119 -1356Q132 -1415 180.5 -1456Q229 -1497 289 -1497Q300 -1497 322 -1506.5Q344 -1516 355 -1516Q365 -1516 373 -1508Q334 -1391 334 -1272Q334 -1263 349 -1194Q408 -921 409 -916Q439 -756 439 -635ZM2497 -1489Q2430 -1469 2413 -1395Q2396 -1321 2396 -1299Q2396 -1219 2454 -1219Q2460 -1219 2472 -1223Q2464 -1255 2464 -1272Q2464 -1349 2497 -1489ZM1958 -1489Q1891 -1469 1874 -1395Q1857 -1321 1857 -1299Q1857 -1219 1915 -1219Q1921 -1219 1933 -1223Q1925 -1255 1925 -1272Q1925 -1349 1958 -1489ZM2568 -592Q2568 -807 2488 -1155Q2483 -1176 2474 -1198Q2465 -1196 2454 -1194Q2403 -1194 2382 -1235Q2372 -1255 2372 -1299Q2372 -1333 2384 -1389Q2398 -1453 2415 -1471Q2282 -1436 2282 -1219Q2282 -1176 2300 -1116Q2315 -1066 2331 -1016Q2380 -829 2380 -641Q2380 -602 2372 -491L2355 -256Q2337 -10 2300 325H2472L2556 -379Q2568 -480 2568 -592ZM1419 -1489Q1352 -1469 1335 -1395Q1318 -1321 1318 -1299Q1318 -1219 1376 -1219Q1382 -1219 1394 -1223Q1386 -1255 1386 -1272Q1386 -1349 1419 -1489ZM2029 -592Q2029 -807 1949 -1155Q1944 -1176 1935 -1198Q1926 -1196 1915 -1194Q1864 -1194 1843 -1235Q1833 -1255 1833 -1299Q1833 -1333 1845 -1389Q1859 -1453 1876 -1471Q1743 -1436 1743 -1219Q1743 -1176 1761 -1116Q1776 -1066 1792 -1016Q1841 -829 1841 -641Q1841 -602 1833 -491L1816 -256Q1798 -10 1761 325H1933L2017 -379Q2029 -480 2029 -592ZM880 -1489Q813 -1469 796 -1395Q779 -1321 779 -1299Q779 -1219 837 -1219Q843 -1219 855 -1223Q847 -1255 847 -1272Q847 -1349 880 -1489ZM1490 -592Q1490 -807 1410 -1155Q1405 -1176 1396 -1198Q1387 -1196 1376 -1194Q1325 -1194 1304 -1235Q1294 -1255 1294 -1299Q1294 -1333 1306 -1389Q1320 -1453 1337 -1471Q1204 -1436 1204 -1219Q1204 -1176 1222 -1116Q1237 -1066 1253 -1016Q1302 -829 1302 -641Q1302 -602 1294 -491L1277 -256Q1259 -10 1222 325H1394L1478 -379Q1490 -480 1490 -592ZM341 -1489Q274 -1469 257 -1395Q240 -1321 240 -1299Q240 -1219 298 -1219Q304 -1219 316 -1223Q308 -1255 308 -1272Q308 -1349 341 -1489ZM951 -592Q951 -807 871 -1155Q866 -1176 857 -1198Q848 -1196 837 -1194Q786 -1194 765 -1235Q755 -1255 755 -1299Q755 -1333 767 -1389Q781 -1453 798 -1471Q665 -1436 665 -1219Q665 -1176 683 -1116Q698 -1066 714 -1016Q763 -829 763 -641Q763 -602 755 -491L738 -256Q720 -10 683 325H855L939 -379Q951 -480 951 -592ZM412 -592Q412 -807 332 -1155Q327 -1176 318 -1198Q309 -1196 298 -1194Q247 -1194 226 -1235Q216 -1255 216 -1299Q216 -1333 228 -1389Q242 -1453 259 -1471Q126 -1436 126 -1219Q126 -1176 144 -1116Q159 -1066 175 -1016Q224 -829 224 -641Q224 -602 216 -491L199 -256Q181 -10 144 325H316L400 -379Q412 -480 412 -592Z"/>
</svg>