<svg xmlns="http://www.w3.org/2000/svg" viewBox="0 0 694 1000">
  <g transform="scale(1,-1) translate(0,-1000)">
    <path d="M323 197Q323 163 284.0 137.5Q245 112 196.5 99.5Q148 87 101.0 71.5Q54 56 43 40H220Q276 54 326 54Q343 54 373.5 47.0Q404 40 428 40Q437 41 437 41Q440 42 443.0 55.0Q446 68 446 77Q446 81 435.5 101.0Q425 121 420 146Q411 193 399.0 250.5Q387 308 379.5 341.5Q372 375 372 376Q365 410 342.0 482.5Q319 555 312 603Q312 604 311.5 608.0Q311 612 311 614Q311 638 324.5 656.0Q338 674 360 678Q449 694 528 694Q572 694 650 689L627 813Q487 823 474 823Q388 823 303 789Q273 777 240.0 727.0Q207 677 207 621Q207 580 256.0 440.0Q305 300 322 208Q322 207 322.5 203.5Q323 200 323 197ZM484 68Q479 46 476.5 36.5Q474 27 468.0 16.5Q462 6 453.0 3.0Q444 0 428 0Q400 0 369.0 7.0Q338 14 326 14Q280 14 227 1Q226 1 224.5 0.5Q223 0 222 0H20Q2 0 0 18V26Q0 59 29.5 81.0Q59 103 96.5 113.0Q134 123 184.0 138.0Q234 153 261 171Q283 186 283 196Q283 196 282.5 197.5Q282 199 282 200Q266 287 216.0 434.5Q166 582 166 622Q166 690 206.5 750.0Q247 810 289 827Q377 862 475 862Q497 862 534.5 860.0Q572 858 607.0 855.0Q642 852 645 852Q661 850 664 836Q694 670 694 668Q694 660 688.0 654.0Q682 648 674 648Q674 648 663.5 648.5Q653 649 636.5 650.0Q620 651 601.0 652.0Q582 653 561.5 653.5Q541 654 527 654Q456 654 367 638Q352 635 352 613V609Q359 564 381.5 492.0Q404 420 412 384Q439 262 460 154Q462 145 473.5 122.0Q485 99 485 82Q485 73 484 68Z" fill="currentColor"/>
  </g>
</svg>