<svg xmlns="http://www.w3.org/2000/svg" viewBox="25.3 -1592.7 1937.4 2017.4">
	<path fill="currentColor" d="M1888 213Q1888 258 1872 298Q1850 350 1812 350Q1748 350 1712 289Q1681 238 1681 170Q1681 159 1685 138Q1689 117 1689 106Q1689 94 1674 72Q1659 50 1648 43H338V-15H616V-1149Q510 -1184 361 -1203Q230 -1215 100 -1227V-1432Q275 -1440 353 -1449Q492 -1465 600 -1501Q624 -1509 673 -1518V-15H1489V-1149Q1362 -1190 972 -1227V-1432Q1145 -1440 1208 -1446Q1341 -1459 1441 -1489Q1538 -1518 1546 -1518V-15Q1614 -19 1648 -19Q1747 -19 1817.5 48Q1888 115 1888 213ZM1489 -1176V-1479Q1423 -1447 1251 -1428Q1124 -1418 997 -1407V-1252Q1252 -1228 1489 -1176ZM616 -1176V-1479Q393 -1417 125 -1407V-1252Q302 -1235 372 -1225Q511 -1206 616 -1176ZM1863 213Q1863 125 1799 67.5Q1735 10 1646 10H362V18H1656Q1672 29 1693 58.5Q1714 88 1714 104Q1714 115 1710 138Q1706 161 1706 172Q1706 229 1730 272Q1759 325 1812 325Q1836 325 1851 280Q1863 244 1863 213Z"/>
</svg>