<svg xmlns="http://www.w3.org/2000/svg" viewBox="0 -2048 2048 2048">
	<path fill="currentColor" d="M1954 -222Q1903 -220 1804 -220Q1790 -220 1514 -145Q1238 -70 1139 -70Q1093 -70 889 -128Q793 -157 600 -199Q600 -245 637 -285Q674 -325 720 -325Q794 -325 942 -290Q1090 -255 1155 -255Q1217 -255 1294 -296Q1085 -452 877 -452Q753 -452 711 -437Q552 -380 413 -277Q321 -209 309 -209Q263 -209 100 -435Q218 -580 469 -686Q710 -788 906 -788Q1045 -788 1307 -678L1575 -566Q1610 -551 1649 -536Q1649 -536 1924 -493Q1954 -457 1954 -401ZM1925 -250V-401Q1925 -439 1908 -466Q1836 -475 1765 -483Q1675 -495 1626 -514Q1447 -589 1267 -665Q1029 -759 906 -759Q720 -759 492 -664Q257 -567 137 -434Q262 -269 309 -240Q332 -253 396 -300Q622 -468 791 -479Q821 -481 877 -481Q1107 -481 1311 -319Q1327 -306 1327 -296Q1327 -270 1253 -246Q1190 -226 1155 -226Q1081 -226 937.5 -261Q794 -296 720 -296Q657 -296 633 -224Q703 -212 809 -181Q971 -132 983 -129Q1096 -99 1139 -99Q1266 -99 1461 -156Q1748 -239 1780 -246Q1782 -246 1925 -250Z"/>
</svg>