<svg xmlns="http://www.w3.org/2000/svg" viewBox="55 -1189 566 1215">
	<path fill="currentColor" d="M576 -906Q576 -808 506.5 -738.5Q437 -669 338 -669Q240 -669 170 -739Q100 -809 100 -907Q100 -1005 169.5 -1074.5Q239 -1144 338 -1144Q436 -1144 506 -1074Q576 -1004 576 -906ZM576 -256Q576 -158 506.5 -88.5Q437 -19 338 -19Q240 -19 170 -89Q100 -159 100 -257Q100 -355 169.5 -424.5Q239 -494 338 -494Q436 -494 506 -424Q576 -354 576 -256ZM526 -906Q526 -984 471 -1039Q416 -1094 338 -1094Q260 -1094 205 -1039.5Q150 -985 150 -907Q150 -829 205 -774Q260 -719 338 -719Q416 -719 471 -773.5Q526 -828 526 -906ZM526 -256Q526 -334 471 -389Q416 -444 338 -444Q260 -444 205 -389.5Q150 -335 150 -257Q150 -179 205 -124Q260 -69 338 -69Q416 -69 471 -123.5Q526 -178 526 -256Z"/>
</svg>