<svg xmlns="http://www.w3.org/2000/svg" viewBox="0 -2048 2048 2048">
	<path fill="currentColor" d="M1876 -1231Q1876 -1133 1806.5 -1063.5Q1737 -994 1638 -994Q1540 -994 1470 -1064Q1400 -1134 1400 -1232Q1400 -1330 1469.5 -1399.5Q1539 -1469 1638 -1469Q1736 -1469 1806 -1399Q1876 -1329 1876 -1231ZM1226 -1231Q1226 -1133 1156.5 -1063.5Q1087 -994 988 -994Q890 -994 820 -1064Q750 -1134 750 -1232Q750 -1330 819.5 -1399.5Q889 -1469 988 -1469Q1086 -1469 1156 -1399Q1226 -1329 1226 -1231ZM1876 -581Q1876 -483 1806.5 -413.5Q1737 -344 1638 -344Q1540 -344 1470 -414Q1400 -484 1400 -582Q1400 -680 1469.5 -749.5Q1539 -819 1638 -819Q1736 -819 1806 -749Q1876 -679 1876 -581ZM576 -1231Q576 -1133 506.5 -1063.5Q437 -994 338 -994Q240 -994 170 -1064Q100 -1134 100 -1232Q100 -1330 169.5 -1399.5Q239 -1469 338 -1469Q436 -1469 506 -1399Q576 -1329 576 -1231ZM1226 -581Q1226 -483 1156.5 -413.5Q1087 -344 988 -344Q890 -344 820 -414Q750 -484 750 -582Q750 -680 819.5 -749.5Q889 -819 988 -819Q1086 -819 1156 -749Q1226 -679 1226 -581ZM1876 69Q1876 167 1806.5 236.5Q1737 306 1638 306Q1540 306 1470 236Q1400 166 1400 68Q1400 -30 1469.5 -99.5Q1539 -169 1638 -169Q1736 -169 1806 -99Q1876 -29 1876 69ZM576 -581Q576 -483 506.5 -413.5Q437 -344 338 -344Q240 -344 170 -414Q100 -484 100 -582Q100 -680 169.5 -749.5Q239 -819 338 -819Q436 -819 506 -749Q576 -679 576 -581ZM1226 69Q1226 167 1156.5 236.5Q1087 306 988 306Q890 306 820 236Q750 166 750 68Q750 -30 819.5 -99.5Q889 -169 988 -169Q1086 -169 1156 -99Q1226 -29 1226 69ZM576 69Q576 167 506.5 236.5Q437 306 338 306Q240 306 170 236Q100 166 100 68Q100 -30 169.5 -99.5Q239 -169 338 -169Q436 -169 506 -99Q576 -29 576 69ZM1826 -1231Q1826 -1309 1771 -1364Q1716 -1419 1638 -1419Q1560 -1419 1505 -1364.5Q1450 -1310 1450 -1232Q1450 -1154 1505 -1099Q1560 -1044 1638 -1044Q1716 -1044 1771 -1098.5Q1826 -1153 1826 -1231ZM1176 -1231Q1176 -1309 1121 -1364Q1066 -1419 988 -1419Q910 -1419 855 -1364.5Q800 -1310 800 -1232Q800 -1154 855 -1099Q910 -1044 988 -1044Q1066 -1044 1121 -1098.5Q1176 -1153 1176 -1231ZM1826 -581Q1826 -659 1771 -714Q1716 -769 1638 -769Q1560 -769 1505 -714.5Q1450 -660 1450 -582Q1450 -504 1505 -449Q1560 -394 1638 -394Q1716 -394 1771 -448.5Q1826 -503 1826 -581ZM526 -1231Q526 -1309 471 -1364Q416 -1419 338 -1419Q260 -1419 205 -1364.5Q150 -1310 150 -1232Q150 -1154 205 -1099Q260 -1044 338 -1044Q416 -1044 471 -1098.5Q526 -1153 526 -1231ZM1176 -581Q1176 -659 1121 -714Q1066 -769 988 -769Q910 -769 855 -714.5Q800 -660 800 -582Q800 -504 855 -449Q910 -394 988 -394Q1066 -394 1121 -448.5Q1176 -503 1176 -581ZM1826 69Q1826 -9 1771 -64Q1716 -119 1638 -119Q1560 -119 1505 -64.5Q1450 -10 1450 68Q1450 146 1505 201Q1560 256 1638 256Q1716 256 1771 201.5Q1826 147 1826 69ZM526 -581Q526 -659 471 -714Q416 -769 338 -769Q260 -769 205 -714.5Q150 -660 150 -582Q150 -504 205 -449Q260 -394 338 -394Q416 -394 471 -448.5Q526 -503 526 -581ZM1176 69Q1176 -9 1121 -64Q1066 -119 988 -119Q910 -119 855 -64.5Q800 -10 800 68Q800 146 855 201Q910 256 988 256Q1066 256 1121 201.5Q1176 147 1176 69ZM526 69Q526 -9 471 -64Q416 -119 338 -119Q260 -119 205 -64.5Q150 -10 150 68Q150 146 205 201Q260 256 338 256Q416 256 471 201.5Q526 147 526 69Z"/>
</svg>