<svg xmlns="http://www.w3.org/2000/svg" viewBox="0 -2048 2048 2048">
	<path fill="currentColor" d="M1937 293L455 298Q455 297 450 290.5Q445 284 445 277Q445 231 547 201Q621 179 663 179H829Q1028 179 1028 47Q1028 -33 881 -153Q796 -222 757 -281Q732 -318 705.5 -418Q679 -518 679 -577Q679 -641 737 -762Q800 -891 862 -934Q947 -993 1035 -1009Q1101 -1021 1135 -1021Q1138 -1029 1138 -1060Q1138 -1184 1048 -1272Q961 -1357 846 -1357Q808 -1357 701 -1329Q641 -1313 616 -1304Q561 -1283 520 -1250Q303 -1073 223 -703Q199 -606 164 -407Q146 -252 135 14Q133 74 124 220Q124 225 113 246Q100 240 100 220Q100 220 108 122Q117 20 118 -24Q129 -511 259 -920Q284 -998 357 -1097Q408 -1166 427 -1189Q473 -1247 503 -1268Q560 -1308 665.5 -1342Q771 -1376 842 -1376Q1078 -1376 1156 -1135Q1162 -1117 1162 -1034Q1162 -1022 1169 -1022Q1174 -1022 1180.5 -1024.5Q1187 -1027 1193 -1027Q1195 -1027 1342 -990Q1463 -960 1563 -831Q1652 -717 1663 -618Q1665 -601 1665 -548Q1665 -442 1650 -383Q1629 -301 1565 -214Q1515 -146 1435 -72Q1392 -32 1392 11Q1392 59 1422 128Q1428 141 1473 158Q1514 174 1529 174H1757Q1783 174 1844 197Q1916 224 1926 252Q1929 265 1937 293ZM1908 273Q1899 250 1837 223Q1781 198 1757 198H1529Q1493 198 1448 176Q1397 151 1388 118Q1373 64 1373 33Q1373 2 1374 -5Q1379 -42 1392 -56Q1508 -184 1529 -210Q1602 -300 1624 -368Q1635 -401 1635 -447Q1635 -511 1637 -526Q1645 -594 1645 -591Q1645 -589 1618 -685Q1602 -719 1575 -781Q1535 -876 1396 -944Q1276 -1003 1181 -1003Q1082 -1003 963 -963Q891 -939 817 -854Q745 -774 730 -709Q703 -595 703 -575Q703 -411 791 -277Q817 -238 953 -118Q1052 -32 1052 50Q1052 80 1041.5 107.5Q1031 135 990 166.5Q949 198 920 198H653Q616 198 550 224Q484 250 469 273Z"/>
</svg>