<svg xmlns="http://www.w3.org/2000/svg" viewBox="0 -2048 2048 2048">
	<path fill="#000000" d="M2153 21Q2146 28 2146 40Q2096 20 2045 0Q1980 -25 1947 -25Q1887 -25 1760 6Q1573 54 1386 101Q1225 138 1069 138Q855 138 575.5 72.5Q296 7 274 7Q234 7 184 20Q125 35 114 56L100 43Q567 -429 1030 -454Q1034 -458 1034 -465Q1034 -537 928 -626Q831 -708 763 -716L769 -742Q847 -733 944 -648Q1047 -558 1057 -474Q1061 -467 1070 -454H1123Q1125 -456 1130 -463Q1134 -533 1219 -626.5Q1304 -720 1385 -742Q1397 -730 1397 -716Q1397 -716 1369 -706Q1301 -682 1241 -623Q1232 -614 1198 -556Q1159 -492 1159 -474V-453Q1178 -448 1233 -439Q1549 -386 1913 -118Q1981 -68 2153 21ZM1957 -49Q1939 -61 1832 -146Q1750 -211 1690 -240Q1450 -358 1325 -392Q1238 -416 1232 -415H1213Q1295 -381 1347 -296Q1393 -220 1393 -147Q1393 -14 1246 99H1275Q1281 99 1457 53Q1661 0 1744 -18Q1887 -49 1957 -49ZM1365 -147Q1365 -257 1282.5 -336.5Q1200 -416 1086 -416Q961 -416 878 -353Q784 -281 784 -150Q784 60 987 96Q999 98 1030 108Q1058 116 1064 116Q1070 116 1083.5 110.5Q1097 105 1102 105Q1213 100 1289 27.5Q1365 -45 1365 -147ZM920 103Q840 81 795 -1Q757 -69 757 -142Q757 -219 794 -291Q839 -376 917 -409Q568 -358 192 -10Q272 -20 295 -20Q340 -20 444 11Q589 53 651 66Q752 87 920 103Z"/>
</svg>