<svg xmlns="http://www.w3.org/2000/svg" viewBox="25.1 -1599.9 716.8 2021.8">
	<path fill="currentColor" d="M667 -213H487V347H277V-210H100V-814Q100 -858 283 -1001Q308 -1020 308 -1043Q308 -1053 267 -1116Q262 -1118 249 -1118Q229 -1118 216 -1094Q203 -1070 188 -1070Q177 -1070 153 -1082Q174 -1124 174 -1155Q174 -1159 168 -1174Q162 -1189 162 -1198Q162 -1209 169 -1217Q156 -1225 139 -1225Q138 -1226 137 -1227Q132 -1231 132 -1241Q132 -1247 145 -1277Q159 -1311 162 -1325Q190 -1448 228.5 -1486.5Q267 -1525 359 -1525Q551 -1525 572 -1335Q573 -1328 580 -1303Q587 -1278 587 -1271V-1114Q580 -1098 560 -1097Q529 -1096 527 -1095Q517 -1082 517 -1053Q517 -1015 532 -1006Q539 -1003 556 -998Q586 -978 625 -921Q667 -859 667 -826ZM565 -1124V-1228Q566 -1253 531 -1405Q525 -1431 496 -1460.5Q467 -1490 445 -1491Q434 -1492 401 -1495Q368 -1498 362 -1498Q212 -1498 212 -1425V-1403Q261 -1402 310 -1400Q372 -1389 375 -1332Q372 -1375 426 -1375Q475 -1375 475 -1335Q475 -1313 450.5 -1268.5Q426 -1224 426 -1222Q426 -1184 472 -1150Q514 -1118 547 -1118Q555 -1118 559 -1121Q563 -1124 565 -1124ZM640 -234V-832Q640 -846 603 -905Q566 -964 554 -971Q532 -978 497 -1005Q485 -1024 489 -1054Q495 -1100 495 -1101Q441 -1104 402 -1206Q387 -1209 377 -1215Q362 -1223 362 -1246Q362 -1264 380 -1273Q383 -1270 387 -1269Q391 -1268 394 -1265Q385 -1248 394 -1236Q448 -1308 448 -1329Q448 -1354 429 -1354Q408 -1346 405.5 -1333.5Q403 -1321 403 -1308Q400 -1295 375 -1295Q349 -1295 344 -1335Q339 -1375 310 -1375H202Q188 -1333 164 -1253H190Q190 -1268 204 -1268Q217 -1268 217 -1246Q217 -1229 196 -1219Q197 -1180 192 -1102Q208 -1133 218 -1138Q221 -1139 247 -1139Q273 -1139 277 -1138Q295 -1116 314 -1094Q335 -1067 335 -1045Q335 -1002 281 -965Q199 -909 193 -903Q120 -824 121 -798V-240H276V-623Q276 -650 313 -685.5Q350 -721 381 -721Q406 -721 443 -702Q491 -678 491 -643V-234ZM463 323V-644Q463 -660 430.5 -677Q398 -694 383 -694Q355 -694 326.5 -665.5Q298 -637 298 -611V323ZM324 -1301Q196 -1301 203 -1300L190 -1314Q228 -1354 244 -1354Q255 -1354 324 -1326Z"/>
</svg>