<svg xmlns="http://www.w3.org/2000/svg" viewBox="0 -2048 2048 2048">
	<path fill="currentColor" d="M1109 -1524Q1079 -1405 1064 -1321Q1060 -1298 1032 -1181Q1012 -1096 1005 -1062Q995 -1023 978 -943Q972 -917 962 -873Q945 -771 902 -662Q895 -644 863 -594Q834 -550 834 -544Q834 -538 842 -510Q852 -478 855 -465Q866 -462 899 -472Q932 -482 937 -482Q989 -482 1039 -421V371H100V346L721 -323Q695 -379 647 -489Q631 -527 609 -561Q590 -562 511 -574Q499 -640 487 -667Q481 -680 451 -717Q424 -750 424 -757Q424 -764 446 -811Q473 -871 481 -891Q494 -925 494 -968Q494 -975 486 -1021Q476 -1075 473 -1097L894 -1101Q804 -1189 631 -1374Q613 -1395 613 -1441Q613 -1467 646 -1495.5Q679 -1524 704 -1524Q733 -1524 761 -1491Q786 -1462 786 -1441Q786 -1405 729 -1374H711Q711 -1386 705 -1392Q764 -1429 764 -1449Q764 -1466 733 -1481Q709 -1492 699 -1492Q675 -1492 656 -1466Q640 -1444 640 -1427Q640 -1398 707 -1329Q762 -1275 817 -1221Q857 -1177 928 -1108L1046 -1524ZM1075 -1497L943 -1075H505Q505 -1072 514 -1024Q520 -985 520 -959Q520 -918 505 -893H761Q829 -891 829 -833Q829 -826 804.5 -764Q780 -702 780 -695Q780 -688 804 -666Q828 -644 845 -644Q858 -644 875 -656Q887 -683 902 -727Q925 -824 984.5 -1094Q1044 -1364 1075 -1497ZM855 -621Q826 -621 822 -623Q803 -632 778 -656.5Q753 -681 753 -690Q753 -721 760 -743Q779 -778 802 -843Q774 -862 751 -863Q617 -871 626 -871Q619 -871 575 -868Q524 -864 506 -863Q490 -830 451 -765Q518 -694 532 -596Q566 -593 630 -583Q669 -503 739 -341Q834 -436 834 -452Q834 -459 820.5 -499.5Q807 -540 807 -547Q807 -555 827 -581Q851 -612 855 -621ZM1012 344V-416Q950 -455 931 -455Q887 -455 862 -430Q664 -228 143 344ZM628 -774L548 -775Q560 -793 582 -827Q604 -816 623 -816Q623 -795 628 -774Z"/>
</svg>