<svg xmlns="http://www.w3.org/2000/svg" viewBox="-36.9 388.1 996.8 648.8">
  <g transform="scale(1,-1) translate(0,-1000)">
    <path d="M847 53Q628 53 532 59L216 0Q216 0 212 0Q201 0 193.0 6.0Q185 12 182 18L180 23L149 312Q149 313 118.5 323.5Q88 334 51.0 350.5Q14 367 2 381Q0 383 0 387Q0 394 7.5 400.0Q15 406 25 406Q30 406 33 405Q39 403 69.0 387.5Q99 372 114 372Q121 372 124 373L125 374Q125 376 118.5 382.0Q112 388 103.0 395.5Q94 403 92 405Q86 411 91.0 416.0Q96 421 101 418Q102 418 111.0 414.0Q120 410 124.0 408.0Q128 406 137.0 402.0Q146 398 151.5 394.0Q157 390 164.5 384.0Q172 378 177.5 371.5Q183 365 188 357L281 83L504 156Q516 183 544.5 206.0Q573 229 573 244Q573 261 559.0 274.0Q545 287 528.5 296.5Q512 306 498.0 332.5Q484 359 484 399Q484 460 529 508Q591 575 661 575Q740 575 788.0 525.5Q836 476 836 415Q836 397 830.0 378.0Q824 359 818.5 348.0Q813 337 799.5 315.0Q786 293 783 288Q797 263 818.5 250.0Q840 237 858.0 227.5Q876 218 883 203Q885 200 890.5 186.5Q896 173 904 159Q923 125 923 103Q923 53 847 53ZM594 438Q605 438 612.0 429.0Q619 420 619 407Q619 398 611.5 392.5Q604 387 594 387Q561 387 561 407Q561 420 571.0 429.0Q581 438 594 438ZM787 96Q789 96 791.0 95.5Q793 95 794 95Q843 95 843 132Q843 153 824 187Q820 189 809.0 194.5Q798 200 793.0 203.0Q788 206 779.0 213.0Q770 220 762 228Q748 241 741.0 252.5Q734 264 726.0 281.0Q718 298 713 308Q688 324 688 377Q688 383 688.5 391.0Q689 399 689 403Q689 426 663.5 442.5Q638 459 612 464L586 469Q578 469 552 463Q531 438 531 399Q531 381 535 365Q538 352 551.5 339.0Q565 326 580.0 316.0Q595 306 607.0 287.0Q619 268 619 244Q619 228 612.5 214.0Q606 200 599.5 193.0Q593 186 579.0 173.5Q565 161 560 156Q561 153 562.5 137.0Q564 121 569 100Q628 96 666 96Q682 96 706.0 96.5Q730 97 742 97Q769 97 787 96ZM598 508Q644 500 686.5 474.0Q729 448 729 403Q729 399 728.0 389.5Q727 380 727 377Q727 365 732.0 356.5Q737 348 742.0 345.0Q747 342 758 337Q789 387 789 415Q789 460 753.0 494.5Q717 529 661 529Q627 529 598 508Z" fill="currentColor"/>
  </g>
</svg>