<svg xmlns="http://www.w3.org/2000/svg" viewBox="0 -2048 2048 2048">
	<path fill="#000000" d="M2484 -411Q2465 -413 2401 -427Q2348 -439 2317 -439H2204Q2192 -439 2170 -444Q2148 -449 2136 -449H1888Q1900 -449 1851 -443Q1778 -435 1632 -415Q1239 -355 1095 -355Q943 -355 725 -414Q629 -445 436 -498Q400 -506 329 -506Q262 -506 207 -498Q172 -489 100 -475V-496Q236 -524 361 -575Q338 -591 295 -627Q260 -663 243 -698Q228 -739 213 -780Q223 -787 236 -788Q241 -775 250 -748Q273 -661 384 -588Q403 -603 444 -632Q479 -651 541 -699Q518 -714 479 -752Q429 -823 429 -901Q429 -901 443 -970Q455 -871 471 -827Q497 -753 559 -716Q613 -758 725 -836Q676 -889 658 -941Q644 -1000 630 -1060Q640 -1066 654 -1067Q666 -989 666 -987Q676 -940 692 -912Q696 -906 746 -847Q769 -859 815 -881Q829 -887 939 -919Q880 -995 880 -1131H900Q910 -1076 919 -1021Q932 -963 966 -920Q1039 -930 1042 -930Q1060 -930 1128 -927Q1146 -998 1146 -1070Q1146 -1112 1142 -1166Q1170 -1138 1170 -1076Q1170 -1010 1151 -924L1318 -894Q1366 -979 1366 -1081Q1366 -1101 1364 -1121L1378 -1123Q1388 -1081 1388 -1054Q1388 -987 1343 -895Q1397 -870 1514 -827Q1560 -894 1571 -957Q1575 -990 1578 -1022Q1585 -1061 1606 -1079V-1049Q1606 -925 1539 -820L1704 -733Q1742 -778 1765 -848Q1781 -911 1798 -974L1818 -985V-958Q1818 -946 1796 -872Q1774 -802 1766.5 -785Q1759 -768 1728 -726L1912 -626Q1996 -726 2022 -871Q2035 -869 2045 -860Q2040 -847 2031 -820Q2012 -731 1933 -615L2081 -540Q2101 -567 2137 -623Q2145 -638 2215 -795V-750Q2215 -714 2159 -611Q2154 -601 2104 -534Q2170 -494 2256 -480Q2309 -554 2326 -584Q2361 -646 2367 -700L2390 -720V-686Q2390 -614 2281 -475Q2344 -460 2484 -433ZM2467 -275L2217 -301Q2092 -314 2092 -314Q1925 -314 1653 -278Q1317 -233 1215 -226Q1200 -225 1152 -218Q1113 -213 1089 -213Q950 -213 766 -258Q654 -296 424 -355Q370 -365 370 -365H210Q190 -365 155 -355Q112 -342 100 -340V-362Q203 -389 262 -389Q444 -389 663 -312Q835 -252 987 -241Q1045 -237 1084 -237Q1065 -237 1258 -253Q1338 -260 1676 -304Q1933 -338 2096 -338Q2092 -338 2220 -324L2467 -297ZM2198 -470Q2069 -508 1857 -625Q1710 -706 1648 -737Q1530 -797 1431 -834Q1377 -848 1270 -880Q1283 -857 1311 -810Q1319 -799 1333 -775Q1344 -745 1344 -684Q1344 -511 1200 -438Q1191 -432 1172 -423Q1106 -402 1023 -402Q959 -402 911 -416Q835 -438 777 -516Q719 -594 719 -674Q719 -693 735 -752Q751 -811 761 -828Q698 -796 545 -671Q412 -561 324 -533Q417 -533 541 -497Q647 -464 752 -431Q928 -379 1095 -379Q1242 -379 1532 -428Q1822 -477 1969 -477Q1996 -477 2198 -470ZM1320 -684Q1320 -733 1313 -758Q1304 -789 1276 -832Q1244 -880 1220 -888Q1165 -906 1043 -906Q1004 -906 919 -887Q825 -867 803.5 -848.5Q782 -830 770 -795Q743 -713 743 -676Q743 -529 887 -454Q895 -449 913 -440Q956 -426 1023 -426Q1285 -426 1311 -623Q1320 -691 1320 -684Z"/>
</svg>