<svg xmlns="http://www.w3.org/2000/svg" viewBox="0 -2048 2048 2048">
	<path fill="#000000" d="M2349 -620Q2349 -557 2335 -481Q2324 -420 2276 -373Q2265 -361 2179 -294Q2165 -283 2159 -283H296Q287 -283 238.5 -316Q190 -349 179 -360Q134 -406 121 -437Q117 -460 109 -505Q100 -547 100 -583Q100 -616 111 -694Q123 -781 134 -797Q192 -882 228 -912Q285 -960 366 -960H2105Q2150 -960 2199 -932Q2230 -914 2273 -865.5Q2316 -817 2325 -785Q2349 -704 2349 -620ZM2325 -618Q2325 -726 2301.5 -782.5Q2278 -839 2224 -885Q2166 -936 2108 -936H363Q242 -936 173 -813Q164 -800 150 -773Q126 -695 126 -626Q126 -488 147 -441Q174 -383 282 -318Q285 -315 293 -310H2162Q2175 -310 2219 -348Q2259 -383 2271 -400Q2325 -474 2325 -618ZM2168 -397Q2147 -398 2100.5 -404Q2054 -410 2029 -410H1948Q1936 -410 1917 -413Q1893 -417 1886 -418Q1864 -420 1820 -420Q1652 -420 1457 -389Q1149 -340 1045 -340Q907 -340 620 -428Q506 -463 424 -463Q405 -463 389 -467L249 -448Q237 -446 237 -470Q263 -471 315 -478Q500 -523 600 -637L507 -831L530 -833L622 -650Q688 -706 728 -732Q774 -762 862.5 -788Q951 -814 1006 -814Q1031 -814 1118 -802Q1323 -774 1566 -639L1666 -841L1685 -833Q1652 -765 1584 -631Q1752 -540 1763 -534Q1867 -481 1950 -453Q1996 -437 2168 -418ZM1921 -441Q1883 -454 1809 -484Q1784 -495 1508 -642Q1327 -738 1192 -765Q1249 -704 1249 -609Q1249 -566 1238.5 -529Q1228 -492 1181.5 -448.5Q1135 -405 1095.5 -391.5Q1056 -378 987 -378Q816 -378 754 -531Q737 -573 737 -606Q737 -657 766 -723Q710 -695 598 -603Q495 -519 424 -491H433Q489 -491 563 -469Q627 -448 690 -428Q906 -364 1045 -364Q1170 -364 1414.5 -405Q1659 -446 1784 -446Q1813 -446 1921 -441ZM1225 -609Q1225 -677 1181 -742Q1149 -790 1009 -790Q973 -790 904 -775Q829 -760 808.5 -744.5Q788 -729 774 -680Q761 -637 761 -607Q761 -565 794 -510L800 -500Q859 -402 987 -402Q1059 -402 1092 -415Q1213 -463 1220 -571Q1220 -576 1222.5 -589Q1225 -602 1225 -609Z"/>
</svg>