<svg xmlns="http://www.w3.org/2000/svg" viewBox="0 -2048 2048 2048">
	<path fill="currentColor" d="M1964 -1322L1780 -1156Q1801 -1110 1803 -1088Q1798 -1072 1796 -1042Q1810 -1015 1829 -965Q1855 -855 1893 -662Q1928 -484 1928 -472Q1928 -424 1890 -397Q1859 -375 1821 -375Q1775 -375 1620.5 -459Q1466 -543 1453 -543Q1451 -543 1173 -371Q1186 -267 1186 -270Q1186 -66 1165 82Q1160 115 1121.5 138Q1083 161 1021 161L531 33Q527 33 516 36Q505 39 498 39Q491 39 466 30Q437 20 427 18L128 258Q119 244 100 214Q254 87 384 -26Q382 -36 382 -55Q385 -68 403 -98Q407 -105 443 -120Q448 -135 459 -165Q477 -158 513 -145L1096 -644Q1084 -686 1043 -688Q969 -693 969 -693Q969 -767 918 -802Q906 -806 877 -816Q872 -818 861 -826Q921 -961 980 -1095Q1043 -1197 1177 -1197Q1264 -1197 1324 -1130Q1384 -1063 1384 -974Q1384 -935 1371 -898L1375 -880L1611 -1088Q1610 -1090 1597 -1107Q1586 -1121 1586 -1128Q1586 -1137 1599 -1149Q1612 -1161 1622 -1161Q1629 -1161 1628 -1157Q1627 -1153 1629 -1151Q1636 -1171 1659 -1210Q1734 -1217 1731 -1217Q1737 -1217 1752 -1202L1930 -1360Q1943 -1354 1964 -1322ZM1769 -579V-597Q1748 -669 1715 -812Q1702 -899 1681 -1011Q1670 -1044 1639 -1044Q1633 -1044 1535 -955Q1418 -848 1372 -812Q1336 -784 1336 -734Q1336 -693 1341 -679L1337 -672H1378Q1385 -672 1422.5 -697Q1460 -722 1484 -722Q1517 -722 1642 -652Q1706 -616 1769 -579ZM1366 -972Q1366 -1032 1319 -1099Q1264 -1177 1188 -1177Q1143 -1177 1087 -1159Q1066 -1152 1041 -1133Q1029 -1123 996 -1079Q958 -1028 958 -1010V-994L1154 -977Q1178 -977 1204 -995Q1230 -1013 1239 -1013Q1280 -1013 1280 -965Q1280 -959 1269.5 -931.5Q1259 -904 1259 -898Q1259 -870 1266 -850.5Q1273 -831 1303 -819Q1366 -888 1366 -972ZM1279 -802Q1239 -826 1239 -888Q1239 -920 1259 -970Q1241 -988 1234 -988Q1228 -988 1209 -970Q1190 -952 1167 -952L949 -967Q922 -895 887 -841Q967 -820 994 -714Q1027 -712 1059 -709Q1101 -703 1118 -661ZM1908 -480Q1908 -544 1809 -950Q1805 -966 1771 -1042Q1781 -1087 1778 -1098Q1769 -1130 1727 -1192Q1706 -1192 1665 -1181Q1660 -1171 1661 -1146Q1662 -1129 1647 -1124Q1657 -1108 1678 -1082Q1675 -1079 1670 -1071.5Q1665 -1064 1662 -1061Q1704 -1037 1714.5 -966.5Q1725 -896 1735 -826Q1800 -569 1800 -559Q1800 -543 1788 -538Q1530 -697 1481 -697Q1475 -697 1420 -671.5Q1365 -646 1359 -646Q1309 -646 1309 -758Q1251 -706 1140 -603Q1141 -588 1145 -562Q1100 -536 1056 -483Q1012 -430 1010 -393Q1009 -376 1009 -334L1029 -10Q1037 28 1014 28Q1015 28 828 -10Q766 -20 650 -46Q622 -51 594 -56Q561 -64 553 -89Q523 -74 526 -74Q520 -74 490.5 -86.5Q461 -99 455 -99Q439 -99 422.5 -82.5Q406 -66 406 -46Q406 -38 408.5 -31.5Q411 -25 413 -20Q429 -10 459 2Q490 4 546 10Q574 18 618 30Q713 60 808 89Q962 136 1024 136Q1091 136 1113 115Q1145 84 1146.5 49.5Q1148 15 1148 -20Q1168 -195 1160 -291Q1156 -321 1148 -382Q1458 -569 1458 -569Q1755 -406 1821 -406Q1908 -406 1908 -480ZM1115 -584L570 -102Q587 -90 618 -75Q747 -50 1003 2L983 -352Q983 -439 1030 -493Q1060 -523 1115 -584ZM403 3L397 -4L354 33L359 41ZM357 43L352 37L324 59L328 66ZM321 74L316 67L298 79L302 86ZM1055 -884Q1055 -865 1040 -865Q1046 -865 978 -882Q978 -882 995 -916Q1026 -906 1055 -884Z"/>
</svg>