<svg xmlns="http://www.w3.org/2000/svg" viewBox="0 -2048 2048 2048">
	<path fill="#000000" d="M2418 -401Q2418 -317 2383 -223Q2359 -159 2301 -101.5Q2243 -44 2180 -23Q1984 43 1681 43Q1599 43 1532 32Q1518 14 1518 3Q1518 -37 1573 -47Q1592 -51 1658 -51Q1666 -51 1682 -52Q1698 -52 1706 -52Q1723 -52 1786.5 -40.5Q1850 -29 1856 -23Q1939 -26 2005 -36Q2023 -42 2060 -50Q2181 -69 2242 -126Q2313 -192 2339 -277Q2349 -310 2349 -382Q2349 -478 2324 -550Q2304 -578 2269 -638Q2246 -687 2116 -744Q2122 -725 2122 -699Q2122 -679 2102 -636Q2082 -593 2082 -585Q2082 -503 2161 -428Q2163 -426 2307 -316Q2311 -257 2311 -269Q2311 -254 2286 -192Q2222 -170 2215 -171L2046 -186Q1967 -193 1961 -193Q1965 -193 1809 -168Q1795 -166 1787 -178.5Q1779 -191 1782 -205Q1761 -204 1756 -192Q1747 -168 1741 -162L1558 -166Q1573 -191 1606 -240Q1613 -250 1643.5 -268Q1674 -286 1685 -286Q1689 -286 1703 -284Q1717 -282 1723 -283L1910 -313Q1897 -326 1891 -344Q1881 -372 1879 -376L1689 -358Q1679 -357 1657 -360Q1635 -363 1627 -363Q1496 -363 1173 -409Q1174 -380 1174 -389Q1174 -360 1144 -341Q1102 -315 924 -266Q961 -266 1033 -272Q1048 -274 1100 -291Q1152 -308 1157 -308Q1166 -308 1185 -284Q1186 -278 1185 -268Q1197 -270 1228.5 -290.5Q1260 -311 1268 -311Q1289 -311 1405 -180Q1295 -168 1311 -168Q1296 -168 1242.5 -181.5Q1189 -195 1163 -193L674 -153Q667 -152 602 -164Q591 -176 581 -188Q567 -204 567 -215V-226Q567 -298 754 -360Q847 -391 916 -416Q889 -461 872 -464Q839 -469 828 -476Q816 -492 792 -519Q757 -554 746 -564Q719 -588 693 -598Q688 -580 673 -548Q670 -544 632 -512Q586 -474 549 -402Q537 -379 519 -369Q472 -343 445 -343Q439 -343 431 -350Q423 -357 419 -358Q416 -355 409 -355Q394 -355 377 -396Q363 -432 363 -451Q363 -471 369 -511.5Q375 -552 375 -572Q375 -570 341 -769Q334 -813 404 -871Q307 -907 268 -991Q234 -1075 201 -1160Q167 -1214 100 -1323Q110 -1328 130 -1334Q178 -1286 261 -1184Q270 -1161 288 -1115Q301 -1081 336 -1019Q379 -962 450 -939Q484 -928 489 -928Q501 -928 533 -939Q565 -950 583 -949L603 -948Q654 -945 687 -1003Q688 -1005 704 -1050Q725 -1109 754 -1175Q779 -1231 895 -1357Q909 -1350 926 -1333Q890 -1282 854 -1231Q823 -1181 802 -1116Q787 -1061 744 -955Q744 -955 800 -955Q900 -955 1039 -927Q1078 -915 1158 -895Q1214 -884 1332 -870Q1409 -861 1416 -861L1824 -885Q1819 -885 1879 -874Q1908 -871 1966 -859Q2105 -817 2131 -807Q2227 -770 2278 -720Q2418 -582 2418 -401ZM2395 -401Q2395 -523 2334 -617Q2322 -631 2299 -659Q2252 -720 2196 -752Q2166 -769 2066 -802Q2079 -790 2106 -772Q2195 -730 2213 -719Q2279 -679 2293 -637Q2312 -614 2343 -564Q2375 -490 2375 -375Q2375 -355 2367 -304Q2358 -246 2289 -148Q2279 -132 2254 -106Q2143 -25 1933 -7Q1853 0 1848 0Q1833 0 1794 -14Q1755 -28 1740 -28H1577Q1541 -4 1541 3Q1541 8 1548 13Q1594 19 1600 19H1766Q2060 19 2230 -72Q2316 -118 2377 -274Q2395 -320 2395 -401ZM2288 -265Q2288 -301 2284 -305Q2266 -324 2208 -364Q2152 -401 2126 -433Q2059 -514 2059 -589Q2059 -597 2079 -640Q2099 -683 2099 -701Q2099 -748 2059 -781Q2040 -797 1979 -828Q1966 -835 1904 -848.5Q1842 -862 1826 -862Q1759 -862 1623.5 -851Q1488 -840 1421 -840Q1351 -840 1144 -875Q1103 -888 1021 -907Q862 -932 726 -932Q719 -925 712 -914Q734 -911 780 -890Q713 -813 611 -794L598 -806Q611 -819 660 -830Q706 -840 742 -882Q690 -896 686 -896Q678 -896 658 -892V-886Q658 -874 654 -871Q650 -868 642.5 -864.5Q635 -861 617 -843Q611 -837 586 -817Q592 -843 606 -861Q575 -828 570 -828Q557 -828 557 -837Q558 -839 561 -843Q605 -894 609 -897Q623 -907 678 -917Q728 -926 759 -1036Q766 -1074 786 -1148Q813 -1221 863 -1287Q842 -1267 808 -1225Q789 -1194 744 -1091Q734 -1055 705 -990Q677 -946 633 -930Q616 -930 583 -926Q572 -906 558 -898Q553 -911 554 -919Q525 -913 467 -900Q465 -912 449 -916Q404 -928 341 -982Q298 -1019 259 -1134Q246 -1172 165 -1264Q204 -1206 222 -1169Q245 -1106 268 -1044Q296 -970 338 -933Q390 -888 428 -888Q431 -888 437 -890.5Q443 -893 446 -893Q453 -893 465 -888Q460 -883 451 -872Q438 -867 412 -850Q358 -801 364 -769Q398 -571 398 -573Q398 -570 386 -453Q382 -409 412 -379Q452 -389 527 -421Q553 -437 556 -468Q560 -505 577 -523Q581 -506 581 -493Q593 -507 640 -547Q670 -572 674 -614Q674 -610 674 -693Q682 -702 692 -702Q701 -688 701 -631V-621Q765 -589 825 -515Q833 -503 861 -489L868 -488L821 -610V-768Q821 -782 827 -782Q833 -782 839 -774Q841 -720 847 -612L859 -580Q886 -509 895 -489Q916 -447 950 -406Q847 -367 720.5 -324.5Q594 -282 594 -227V-210Q613 -176 673 -176H675L1162 -216Q1166 -216 1225 -209Q1214 -228 1200 -250Q1177 -244 1160 -244Q1160 -249 1161.5 -258Q1163 -267 1163 -272Q1163 -284 1155 -284Q1152 -284 1107.5 -269Q1063 -254 1051 -252Q974 -247 819 -235L806 -247Q820 -260 886 -278Q1151 -349 1151 -392Q1151 -413 1140.5 -457Q1130 -501 1130 -522Q1130 -579 1136 -610Q1146 -661 1168 -738Q1172 -751 1183 -751L1194 -741Q1153 -594 1153 -527Q1153 -504 1168 -430Q1280 -416 1393 -402Q1526 -386 1618 -386Q1627 -386 1652 -383Q1674 -380 1685 -381L1878 -399Q1895 -401 1912 -358Q1929 -315 1944 -317L2028 -330Q1972 -363 1865 -433Q1780 -495 1737 -546Q1726 -559 1706 -600Q1686 -641 1686 -654Q1686 -667 1692 -667Q1699 -667 1721 -622Q1747 -570 1751 -565Q1797 -507 1893 -442Q1952 -407 2067 -333Q2073 -329 2073 -315Q1722 -259 1718 -260Q1756 -228 1756 -228Q1762 -228 1774 -230Q1786 -232 1792 -232Q1805 -232 1811 -215Q1804 -209 1804 -201Q1805 -191 1810 -192Q1956 -216 1959 -216Q1959 -216 2044 -209L2214 -195Q2248 -192 2268 -208Q2288 -224 2288 -265ZM1743 -212L1709 -237Q1686 -223 1676 -189H1731Q1739 -201 1743 -212ZM1689 -252L1678 -262Q1628 -236 1601 -189H1653Q1663 -238 1689 -252ZM1360 -197Q1304 -254 1302 -254Q1306 -254 1244 -223Q1248 -215 1255 -204Q1276 -191 1312 -191Q1316 -191 1360 -197ZM1285 -270Q1271 -287 1268 -287Q1260 -287 1223 -258Q1227 -252 1234 -239Q1242 -247 1285 -270ZM643 -888Q630 -884 623 -878Q631 -884 643 -888ZM478 -378L444 -367L448 -366Q464 -371 478 -378ZM526 -727Q526 -701 502 -691Q500 -675 487 -650Q477 -677 463 -732Q488 -744 513 -770V-759Q513 -753 519.5 -743Q526 -733 526 -727ZM502 -463Q502 -454 499 -440Q496 -438 471 -409H451Q464 -444 465 -445Q470 -452 502 -463ZM503 -725V-726Q498 -723 488 -717Q489 -715 490 -712L501 -714Q502 -717 503 -725Z"/>
</svg>