<svg xmlns="http://www.w3.org/2000/svg" viewBox="0 -2048 2048 2048">
	<path fill="currentColor" d="M2169 26Q2169 126 2146 196Q2146 196 2077 267H1758L1286 238L615 275L256 267Q211 262 167 257Q100 246 100 187Q100 142 134 121Q179 93 258 83Q321 76 384 69Q463 60 626 36Q616 29 606 10Q595 -149 532 -248Q526 -246 411 -230Q388 -218 337 -201Q273 -189 252 -189Q242 -189 211 -203Q177 -219 166 -233Q148 -255 148 -306Q148 -342 191 -390Q230 -432 269 -475Q306 -529 377 -616Q386 -624 467 -665Q429 -722 429 -781Q429 -786 449 -869Q473 -963 480 -1004Q485 -1077 495 -1218Q501 -1212 524 -1212Q541 -1163 539 -937Q562 -998 627 -1031Q681 -1059 742 -1059Q840 -1059 910.5 -989.5Q981 -920 981 -826Q981 -777 937 -688V-682Q1100 -778 1165 -778H1214Q1214 -777 1216.5 -766Q1219 -755 1219 -742Q1117 -704 1070 -676Q1057 -668 943 -585Q857 -522 811 -509Q852 -440 979 -389Q1094 -343 1188 -343L1705 -407Q1800 -407 1907 -365Q1974 -339 2008 -318Q2076 -277 2108 -220Q2128 -183 2148 -104Q2169 -22 2169 26ZM960 -834Q960 -920 890 -979Q824 -1033 737 -1033Q689 -1033 670 -1025Q611 -1000 571 -949Q530 -895 530 -836Q530 -827 544 -785Q572 -702 641 -657Q698 -619 758 -619Q765 -619 783.5 -622Q802 -625 809 -625Q863 -627 914 -708Q960 -781 960 -834ZM2143 26Q2143 -96 2109 -170Q2057 -281 1918 -334Q1796 -380 1716 -380L1204 -322Q1036 -322 927 -392Q905 -406 823 -464Q762 -507 756 -507Q745 -507 737 -499Q753 -489 771.5 -461Q790 -433 790 -417Q790 -410 786 -406Q772 -401 734 -401Q678 -401 610 -457L628 -476Q687 -423 740 -423Q756 -423 763 -430Q742 -467 697 -485Q640 -507 631 -515Q634 -518 635.5 -524.5Q637 -531 640 -534Q660 -529 708 -529Q835 -529 899 -585Q1011 -683 1153 -744Q1047 -730 922 -639Q807 -555 713 -555Q635 -555 635 -555Q635 -570 638 -579Q641 -588 641 -588L694 -583Q672 -611 630 -631Q588 -651 559 -651Q448 -651 388 -589Q352 -552 266 -444Q169 -321 169 -301Q169 -293 173 -285Q175 -281 177 -276Q291 -221 315 -221Q322 -221 347 -232.5Q372 -244 380 -246Q430 -253 481 -259Q536 -271 581 -327Q584 -324 590 -320.5Q596 -317 599 -314Q557 -269 557 -261Q557 -255 572 -218Q589 -177 592 -165Q607 -103 627 -6Q629 3 646 23Q663 43 663 47Q663 51 654 60Q506 83 209 120Q180 123 154 142Q121 167 122 202Q141 223 181 231Q211 236 241 240L825 246L1286 211L1922 246Q2053 246 2072 239Q2123 220 2137 146Q2143 116 2143 26ZM540 -673Q493 -760 493 -842Q493 -849 503 -898Q514 -955 517 -976Q517 -1010 517 -1070Q456 -796 456 -789Q456 -746 489 -667Q531 -674 540 -673ZM811 -601Q786 -596 721 -596Q731 -576 745 -576Q761 -576 811 -601ZM503 -506Q500 -457 430 -455Q430 -457 427 -462.5Q424 -468 424 -476Q424 -474 446 -510Q467 -518 469 -518Q491 -518 503 -506ZM290 -275Q272 -275 239 -264Q239 -267 236.5 -276.5Q234 -286 234 -289Q239 -289 249 -295Q259 -301 265 -301Q273 -301 282 -290.5Q291 -280 290 -275Z"/>
</svg>