<svg xmlns="http://www.w3.org/2000/svg" viewBox="0 -2048 2048 2048">
	<path fill="#000000" d="M2171 -24Q2164 -16 2139 -16Q2069 -16 2024 -86Q1986 -145 1883 -388Q1809 -559 1720 -618Q1670 -651 1658 -651H1637Q1633 -647 1633 -633Q1633 -461 1685 -398Q1724 -351 1808 -322Q1835 -313 1879 -277V-34Q1773 19 1739 19Q1733 19 1711 16Q1689 13 1682 13Q1664 13 1648 -9.5Q1632 -32 1632 -57Q1632 -66 1634 -73Q1651 -80 1669 -105Q1671 -105 1716 -104Q1745 -103 1759 -117Q1756 -144 1740 -188Q1730 -201 1669 -223Q1627 -243 1542 -275H1535Q1547 -263 1547 -253Q1547 -246 1521 -160Q1492 -60 1483 -22Q1455 -24 1404.5 -5.5Q1354 13 1356 13Q1334 13 1293 -9Q1244 -35 1244 -64Q1244 -89 1267 -104Q1290 -119 1316 -119Q1322 -119 1339.5 -116Q1357 -113 1364 -113Q1373 -113 1379 -122Q1380 -142 1387 -193Q1393 -241 1393 -247Q1393 -248 1309 -382Q1106 -353 1070 -353L791 -382Q794 -329 805 -225Q809 -197 828 -131Q844 -70 844 -64Q844 -35 819 -23Q725 24 672 24Q657 24 618.5 -2Q580 -28 580 -36Q580 -42 583.5 -58Q587 -74 587 -83Q602 -89 628 -110Q653 -110 701 -116Q658 -226 628 -285Q603 -283 552 -240Q501 -197 479 -160Q455 -111 406 -18Q373 -10 315 4Q311 5 299 14.5Q287 24 280 24H217Q210 24 188 7Q161 -13 152 -17V-46Q152 -82 208 -101Q209 -103 215 -120Q219 -130 226 -130Q233 -130 249 -127Q265 -124 272 -124Q290 -124 307 -125Q381 -270 461 -441Q439 -450 413 -494Q383 -544 366 -559Q353 -548 334 -533.5Q315 -519 292 -519Q247 -519 216 -569Q203 -571 153 -616Q100 -663 100 -682Q100 -683 138 -735Q326 -994 380 -994Q387 -994 397.5 -985.5Q408 -977 415 -977Q422 -977 426 -979.5Q430 -982 437 -982Q444 -982 463 -971Q486 -958 493 -955Q526 -948 590 -923Q643 -893 702 -775Q710 -759 727 -759H754Q758 -755 758 -768Q758 -797 715 -874Q676 -944 649 -974Q656 -981 656 -990H1530Q1522 -970 1478 -898Q1445 -845 1444 -815Q1501 -800 1608 -768Q1689 -739 1724 -720Q1790 -684 1830 -626Q1846 -603 2000 -289Q2014 -260 2063 -214Q2112 -168 2122 -151Q2139 -105 2171 -24ZM1495 -971H686Q762 -861 783 -757Q796 -757 828 -754Q860 -751 865 -751L1422 -817Q1422 -877 1495 -971ZM2135 -39Q2121 -85 2099 -140Q2052 -183 1983 -271Q1938 -374 1836 -569Q1765 -682 1585 -745Q1478 -782 1387 -782L878 -719Q808 -719 724 -733Q736 -692 731 -684Q720 -684 715 -679Q684 -741 654 -803Q582 -924 525 -924H507Q512 -910 512 -895Q512 -859 479 -822Q469 -822 460 -831Q483 -877 483 -894Q483 -911 469.5 -932.5Q456 -954 437 -954Q414 -954 400 -935Q386 -916 372 -896Q361 -907 351 -907Q351 -918 356 -924Q294 -896 233 -818Q187 -752 141 -686Q157 -702 165 -702Q171 -696 172 -693Q171 -676 167 -647Q183 -630 204 -600Q222 -600 252 -625Q293 -660 297 -662L312 -648Q249 -585 249 -570Q249 -542 283 -542Q299 -542 379 -604Q466 -672 466 -705Q466 -686 443 -801Q448 -806 468 -805Q495 -724 495 -702Q495 -674 464 -646Q393 -582 386 -574Q418 -526 476 -468Q476 -485 486 -485Q508 -485 506 -465Q444 -340 319 -97Q261 -93 244 -95Q238 -84 224 -55.5Q210 -27 204 -16Q221 -36 246 -61Q249 -58 254.5 -49.5Q260 -41 263 -38Q266 -41 274.5 -47Q283 -53 286 -56Q289 -53 293 -46Q297 -39 300 -36Q285 -21 285 -10Q302 -27 347 -35Q387 -41 395 -57Q420 -112 473 -206Q503 -247 581 -292.5Q659 -338 681 -366Q711 -404 742 -486Q752 -512 761 -530Q764 -527 771 -525.5Q778 -524 781 -521Q766 -482 741 -412Q798 -409 921 -395Q1035 -382 1038 -382L1335 -411Q1319 -481 1295 -624Q1304 -633 1316 -633Q1328 -633 1335 -551Q1343 -457 1354 -435Q1393 -357 1519 -309Q1736 -226 1763 -211Q1774 -155 1794 -89Q1788 -89 1766 -83.5Q1744 -78 1732 -78Q1713 -78 1703 -89V-56Q1704 -56 1710 -47Q1716 -38 1724 -38Q1731 -38 1730 -41Q1729 -44 1736 -44Q1751 -44 1749 -22Q1750 -23 1856 -51Q1845 -82 1842 -123Q1840 -150 1842 -198Q1845 -251 1844 -272Q1812 -283 1757 -308Q1659 -363 1628 -476Q1615 -568 1602 -661Q1575 -678 1564 -699L1579 -713Q1636 -686 1743 -632Q1795 -604 1854 -503Q1888 -446 1926 -357Q1987 -215 1989 -212Q2021 -144 2029 -128Q2055 -79 2080 -58Q2099 -52 2135 -39ZM1519 -253Q1519 -287 1471 -308Q1440 -319 1409 -331Q1397 -339 1363 -386H1342L1421 -252Q1413 -196 1399 -88H1307Q1316 -84 1341 -59L1330 -46Q1343 -50 1356 -50Q1368 -50 1365 -28Q1398 -35 1460 -45Q1467 -84 1494 -169Q1519 -248 1519 -253ZM385 -957V-967H370V-957ZM815 -73Q815 -71 776 -236Q771 -258 774 -296.5Q777 -335 773 -351Q766 -381 749 -381H724Q721 -364 693.5 -335.5Q666 -307 650 -306L741 -98Q741 -93 736 -89H644Q641 -76 659 -64.5Q677 -53 678 -42Q675 -39 669.5 -35Q664 -31 661 -28Q665 -30 697 -44Q709 -32 701 -16H721Q747 -25 774 -33Q815 -51 815 -73ZM357 -803L350 -777Q342 -777 323.5 -771Q305 -765 293 -765L280 -753Q266 -767 266 -771Q266 -788 278.5 -802Q291 -816 300 -816Q318 -816 357 -803Z"/>
</svg>