<svg xmlns="http://www.w3.org/2000/svg" viewBox="12.7 -1096.3 2356.6 1322.6">
	<path fill="currentColor" d="M2282 -392Q2282 -372 2271 -339Q2271 -339 2229 -339Q2206 -498 2156 -571Q2156 -549 2162.5 -503.5Q2169 -458 2169 -454Q2169 -421 2147 -356Q2128 -302 2110 -248Q2099 -211 2087 -132L2120 92Q2120 112 2102 139Q2100 138 2070 113Q2049 95 2041 95Q2034 95 1972 117Q1910 139 1903 139Q1854 139 1835 130Q1836 130 1836 129Q1837 129 1836 129Q1834 128 1828 128Q1829 128 1769 138Q1763 138 1763 125Q1763 112 1813 73Q1843 50 1874 27Q1875 13 1881 -39Q1887 -87 1887 -94Q1887 -118 1855 -156Q1829 -184 1804 -213Q1801 -187 1805 -136Q1811 -77 1811 -81Q1811 -74 1790 -42Q1763 -2 1758 7Q1744 39 1711 110Q1686 119 1640 133Q1640 133 1635 121Q1632 112 1624 112Q1617 112 1577 122.5Q1537 133 1530 133Q1524 133 1519 127.5Q1514 122 1508 122Q1501 122 1495.5 127.5Q1490 133 1483 133H1455L1443 120Q1453 92 1501 64Q1556 33 1571 10Q1584 -10 1584 -67Q1584 -74 1569 -209L1408 -197Q1256 -197 1142 -235H1128Q1118 -205 1118 -181Q1118 -174 1131.5 -108Q1145 -42 1145 -35Q1145 -28 1121 36Q1092 112 1084 138Q1060 132 1034 106Q998 133 966 133Q931 133 847 121Q939 21 939 -29Q939 -68 888 -208Q887 -205 847 -79Q823 0 767 62Q757 84 732 115Q720 123 659 138Q658 136 659 122Q660 112 652 112Q647 112 624 125.5Q601 139 593 139Q594 139 584.5 135.5Q575 132 563 133L512 126Q523 111 597 36Q651 -19 661 -54Q672 -94 677 -167Q680 -214 697 -309Q700 -318 715 -349Q728 -376 728 -381Q728 -390 691 -426Q654 -462 644 -462Q637 -462 626.5 -457.5Q616 -453 612 -453Q555 -447 474 -362.5Q393 -278 354 -278Q327 -278 297 -316Q169 -202 148 122H122V99Q122 6 168 -131Q216 -278 273 -335Q100 -405 100 -473Q100 -507 145 -539Q177 -560 209 -582Q230 -597 261 -629Q285 -667 318 -764Q342 -834 448 -883Q476 -893 527 -922Q532 -926 540 -968Q546 -1004 568 -1004Q573 -1004 605 -982.5Q637 -961 644 -961Q645 -961 701.5 -977Q758 -993 817 -993Q824 -993 952.5 -982.5Q1081 -972 1088 -972L1505 -1009Q1511 -1009 1569 -1000Q1633 -991 1657 -989Q1830 -973 1987 -881Q2181 -767 2230 -590Q2282 -402 2282 -392ZM1784 -86Q1784 -91 1778 -154Q1772 -222 1771 -249Q1768 -255 1760 -267Q1733 -259 1675 -239.5Q1617 -220 1590 -212Q1611 -107 1611 -43Q1611 16 1579 40Q1550 60 1509 94Q1520 86 1542 73Q1564 60 1575 52Q1585 62 1590 62Q1585 78 1562 100H1586Q1618 102 1662 47Q1672 57 1677 57Q1677 63 1674 69.5Q1671 76 1671 78H1702Q1712 46 1736 -9Q1784 -90 1784 -86ZM2254 -370V-414Q2258 -420 2253 -439Q2251 -447 2202 -591Q2143 -765 1956 -868Q1813 -947 1636 -967L1500 -982L1086 -942L815 -966Q665 -966 518 -891Q478 -871 438 -851Q391 -826 373 -803Q352 -775 338 -734Q329 -706 320 -677Q301 -632 244 -582Q200 -546 155 -511Q127 -488 127 -473Q127 -474 138 -452Q151 -500 200 -500Q216 -500 219 -497Q219 -488 217 -478.5Q215 -469 215 -468Q226 -473 243 -484Q257 -470 257 -446Q260 -403 224 -403Q199 -403 196 -440Q175 -428 165 -428Q177 -412 224 -386Q271 -360 289 -360Q343 -360 361 -491Q383 -506 422 -539Q433 -555 460 -587Q463 -584 469.5 -580Q476 -576 479 -573Q435 -512 383 -477Q377 -423 371 -404Q355 -355 317 -337Q317 -334 319.5 -324.5Q322 -315 322 -312Q334 -305 354 -305Q386 -305 441 -361Q518 -438 538 -452Q539 -457 539 -461Q539 -476 518 -494Q497 -512 495 -519Q498 -522 499.5 -526Q501 -530 504 -533Q563 -510 563 -481Q563 -475 561 -469H581Q578 -486 568 -510Q550 -523 528 -551L541 -565Q575 -539 584 -528Q604 -506 604 -479Q607 -479 614.5 -482Q622 -485 625 -485Q621 -501 612 -524Q608 -529 587 -547Q571 -561 571 -568Q571 -573 585 -587Q611 -566 631 -534Q651 -502 647 -485Q677 -485 673 -483Q675 -499 655 -530Q640 -554 625 -578Q640 -593 643 -593Q695 -537 695 -475Q695 -467 697 -464Q742 -394 794 -356Q824 -342 868 -312Q892 -285 916 -215Q961 -83 961 -29Q961 -17 934 51Q959 51 956 71Q956 81 980 57L999 76Q988 87 996 95Q1028 79 1031 79Q1037 79 1046 87Q1055 95 1061 95Q1070 95 1095 34Q1118 -24 1118 -37Q1118 -44 1104.5 -109Q1091 -174 1091 -181Q1091 -228 1114 -303Q1146 -406 1160 -485L1183 -480V-460Q1182 -424 1129 -264Q1281 -219 1416 -219Q1496 -219 1601 -242Q1716 -267 1741 -297Q1702 -350 1687 -376Q1662 -420 1654 -459Q1663 -468 1672 -468Q1700 -414 1759 -317Q1799 -264 1839 -211Q1914 -109 1914 -91Q1914 -86 1908 -34Q1902 21 1901 43Q1894 48 1882 59V100Q1901 90 1938 74Q1949 95 1963 95Q1971 95 2000 82Q2038 66 2046 63L2067 84H2092L2066 -132Q2067 -194 2107 -307.5Q2147 -421 2147 -465Q2147 -472 2131 -549Q2115 -626 2115 -633Q2115 -634 2128 -647Q2214 -559 2254 -370ZM604 -953Q599 -956 585.5 -962Q572 -968 567 -971Q556 -949 556 -929Q556 -929 604 -953ZM874 -254Q874 -278 812 -320Q761 -355 746 -359Q702 -272 694 -75Q693 -44 655 2Q623 40 591 78Q615 68 660 47Q661 48 663.5 55.5Q666 63 674 63Q681 63 688.5 57.5Q696 52 697 52Q712 67 712 70Q696 86 696 89Q709 89 715 95Q759 33 823 -74Q874 -194 874 -254ZM236 -440L233 -448L220 -442V-434ZM706 -882Q706 -882 671 -847Q658 -860 640 -869Q633 -847 641 -821Q630 -817 615 -817Q600 -817 588 -821V-838Q587 -928 625 -928Q649 -928 706 -882ZM526 -814Q532 -802 520 -766Q516 -771 492 -771Q427 -771 435 -696H415Q402 -727 382 -723Q384 -747 415.5 -786Q447 -825 471 -825Q477 -825 497.5 -819.5Q518 -814 526 -814ZM506 -731Q499 -715 482 -685Q470 -694 447 -707V-732Q455 -750 474 -750Q482 -750 491 -743Q504 -732 506 -731Z"/>
</svg>