<svg xmlns="http://www.w3.org/2000/svg" viewBox="12.1 -1662.9 2373.8 2089.8">
	<path fill="currentColor" d="M2298 -178Q2298 -170 2288 -150Q2278 -130 2272 -130Q2253 -130 2246 -148Q2240 -182 2224 -249Q2202 -327 2166 -375Q2186 -267 2186 -261Q2186 -215 2161 -153Q2139 -101 2118 -49Q2106 -13 2106 70Q2106 97 2125 219Q2135 283 2135 286Q2135 327 2118 327Q2108 327 2061 284L1911 336V319L1854 335Q1854 326 1856 312Q1833 330 1807 330Q1793 330 1782 326Q1787 298 1828 270Q1860 249 1893 229Q1893 142 1907 88L1817 -30Q1817 -6 1820.5 43Q1824 92 1824 118Q1824 123 1801 153Q1784 174 1758 229Q1752 257 1725 301Q1710 313 1664 328Q1657 326 1648 317Q1655 306 1658 294Q1642 306 1608 313Q1569 320 1556 327H1537Q1536 319 1537 310Q1517 324 1468 324Q1474 278 1511 258Q1578 222 1582 219Q1602 200 1602 141Q1602 104 1578 -9Q1539 4 1450 4Q1326 4 1141 -42Q1135 -12 1135 16Q1135 48 1149 109Q1162 166 1162 167Q1162 154 1132 236Q1125 267 1108 330Q1088 319 1049 298Q1004 324 976 324Q972 316 972 312Q967 315 941 327H918Q921 321 926 309Q914 314 876 325Q869 314 870 306Q917 258 926 244Q940 224 960 166L908 -19Q895 11 874 118Q865 167 831 204Q788 251 775.5 278.5Q763 306 734 316.5Q705 327 676 337Q676 339 679 300Q679 300 605 337Q605 322 608 311Q579 327 531 327Q544 288 631 211Q643 201 672 160Q683 150 696 128Q697 60 709 -71Q709 -72 753 -186Q742 -196 721 -216Q705 -235 690 -254Q666 -281 652 -281Q651 -281 638 -277Q619 -276 580 -269Q535 -246 440 -208Q262 -156 170 -156Q149 -156 133 -179.5Q117 -203 117 -225Q117 -236 122 -248Q100 -261 100 -272Q100 -283 109 -310Q143 -307 173 -307Q176 -313 209 -313Q209 -315 206 -283Q226 -277 241 -277Q264 -277 296 -286Q254 -296 220 -333.5Q186 -371 186 -413Q186 -451 219 -489Q252 -527 290 -527Q347 -527 443 -465Q302 -504 304 -504Q265 -504 237 -478.5Q209 -453 209 -413Q209 -373 251 -338.5Q293 -304 335 -303L340 -295V-298Q344 -298 391 -314Q474 -342 506 -371Q549 -411 549 -488Q549 -510 522.5 -535Q496 -560 474 -560Q471 -546 465 -517Q445 -522 418 -522L415 -528L413 -523Q393 -528 376 -528Q376 -550 381 -574Q358 -596 352 -596Q324 -596 280 -581Q228 -564 210 -561Q205 -537 206 -517Q197 -516 182 -516Q169 -516 143.5 -517.5Q118 -519 106 -519Q106 -527 107.5 -542.5Q109 -558 109 -566Q109 -571 108 -580Q100 -588 100 -597Q100 -701 136 -768Q142 -769 160 -773Q175 -776 184 -776Q194 -776 249.5 -753Q305 -730 325 -730Q392 -730 423 -739Q437 -743 515 -777Q537 -782 580 -794L725 -761V-766Q785 -832 802 -832Q817 -832 821 -825Q835 -801 848 -739Q938 -731 1035 -731L1036 -915L1081 -860L1342 -1575L1366 -1566L1296 -1373L1370 -1346L1361 -1322L1287 -1349L1105 -851L1175 -865L1064 -732Q1140 -734 1311 -753Q1470 -771 1558 -771Q1687 -771 1945 -694Q1975 -685 2042 -643Q2061 -626 2100 -595Q2249 -485 2287 -231Q2288 -225 2293 -206.5Q2298 -188 2298 -178ZM1108 -825L1080 -819L1062 -842V-769ZM828 -742Q808 -809 800 -809Q790 -809 744 -757L815 -740Q815 -740 828 -742ZM1801 114Q1801 86 1797.5 30.5Q1794 -25 1794 -52Q1789 -58 1781 -74Q1722 -49 1601 -15V-11Q1601 14 1613 65Q1625 116 1625 142Q1625 161 1608 226Q1578 245 1519 281L1526 290Q1573 260 1610 242Q1604 267 1573 286Q1583 293 1590 296Q1619 295 1649 273Q1675 253 1701 233Q1691 254 1679 271Q1684 271 1694.5 274.5Q1705 278 1711 278Q1720 278 1733 238Q1741 213 1749 188Q1752 182 1778 150Q1801 121 1801 114ZM1825 302L1823 300L1818 305ZM2276 -180Q2276 -189 2270.5 -207Q2265 -225 2264 -232Q2253 -314 2215 -403Q2171 -505 2118 -549Q2026 -625 2022 -628Q1968 -667 1910 -681Q1795 -709 1647 -736Q1586 -747 1598 -747H1446Q1443 -747 1341 -734Q1136 -708 1079 -708Q910 -708 818 -718Q833 -692 857 -621Q846 -614 835 -614Q832 -632 826 -653V-645Q826 -623 815 -607Q804 -617 801 -643Q800 -664 791 -664Q788 -664 729 -600Q743 -662 792 -691Q805 -682 823 -663Q811 -700 799 -700Q802 -700 712 -623Q719 -653 741 -678Q761 -700 782 -723Q750 -732 685 -749Q589 -771 579 -771Q561 -771 509 -746Q448 -717 434 -713Q412 -707 324 -707Q304 -707 248 -730Q192 -753 183 -753Q160 -753 153 -748Q123 -725 123 -600Q123 -580 183 -580Q213 -580 268.5 -599.5Q324 -619 356 -619Q362 -619 382 -603Q402 -587 414 -586Q419 -589 425 -589Q433 -589 438 -584Q462 -584 503 -579Q547 -565 572 -504Q575 -497 575 -489Q575 -378 487 -328Q457 -311 364 -282.5Q271 -254 241 -254Q233 -254 217 -257Q201 -260 193 -260Q140 -260 140 -217Q140 -207 151.5 -194.5Q163 -182 173 -182Q300 -182 471 -244Q503 -277 549 -330Q558 -342 578 -402Q581 -391 581 -377Q581 -325 520 -266Q533 -271 556 -284Q562 -289 580 -318Q598 -342 624 -409Q633 -394 633 -377Q633 -359 616 -333Q603 -312 589 -292Q602 -294 628 -298Q649 -341 687 -433V-412Q687 -368 654 -302Q663 -299 679 -291Q700 -316 713 -352Q728 -393 743 -415V-381Q743 -323 698 -280Q765 -191 849 -131Q874 -126 880 -124Q899 -118 905 -106Q920 -75 952 29Q984 138 984 166Q984 190 949 254Q944 263 928 278Q934 277 974 235Q974 256 966 271L983 275Q994 267 1016 251Q1016 273 1007 284L1018 290Q1042 272 1051 272Q1057 272 1068 279.5Q1079 287 1081 287Q1088 287 1097 281Q1101 261 1113 221Q1139 152 1139 166Q1139 164 1131 136Q1112 69 1112 15Q1112 -41 1129 -78Q1157 -138 1162 -155Q1169 -197 1185 -281L1199 -279Q1192 -187 1188 -168Q1181 -130 1147 -64Q1344 -19 1456 -19Q1609 -19 1746 -82Q1774 -95 1790 -96L1931 80Q1930 87 1924 108.5Q1918 130 1918 140V240Q1907 247 1845 288L1848 290Q1880 271 1924 247Q1906 273 1892 286Q1896 290 1904 297Q1915 290 1965 265Q1965 283 1965 283Q1971 285 1983 289L2065 259Q2075 264 2086 275H2111Q2083 139 2083 70Q2083 -16 2096 -55Q2099 -64 2140 -151Q2163 -199 2163 -261Q2163 -292 2146.5 -353.5Q2130 -415 2131 -447Q2239 -339 2265 -157L2267 -156Q2276 -177 2276 -180ZM1501 297L1499 294L1498 297ZM451 -560Q447 -560 438 -561V-545H448Q449 -549 451 -560ZM407 -567L399 -568V-549H401ZM185 -559Q180 -559 169 -558Q171 -546 171 -539H183Q183 -546 185 -559ZM141 -545V-559L131 -563Q129 -552 129 -545ZM898 -54Q898 -55 886 -93Q869 -99 836 -114Q818 -125 770 -169Q754 -135 732 -69Q726 24 719 117Q708 191 601 268Q606 271 616 278Q645 256 682 238L696 251Q676 268 661 278Q670 281 672 281Q674 281 695.5 263Q717 245 723 245Q735 245 735 254Q735 257 712 280Q736 290 736 290L740 289L793 212Q817 187 844 146Q849 109 864 35Q866 29 895 -44Q898 -52 898 -54ZM959 292H958V293ZM184 -286Q155 -283 125 -286Q123 -279 123 -275Q123 -271 134 -267Q155 -283 183 -284ZM596 290L583 284L573 299Q581 296 596 290ZM681 -644Q590 -732 570 -732Q546 -732 471 -689Q479 -713 511.5 -734Q544 -755 570 -755Q628 -755 681 -644ZM653 -645Q643 -649 609 -677Q583 -697 561 -697Q549 -697 470 -641Q507 -720 561 -720Q590 -720 617 -702Q628 -695 653 -645ZM580 -641Q580 -617 552 -617Q521 -617 521 -646Q521 -675 554 -675Q580 -675 580 -641ZM241 -679Q189 -658 181 -658Q178 -658 145 -679Q145 -685 146.5 -698.5Q148 -712 148 -719Q154 -719 167 -721Q180 -723 186 -723Q197 -723 241 -679ZM556 -645L555 -649H547L544 -646V-642L547 -640H551ZM201 -687Q187 -700 181 -700Q177 -700 168 -696V-691Q173 -687 184 -681Q188 -682 201 -687Z"/>
</svg>