<svg xmlns="http://www.w3.org/2000/svg" viewBox="0 -2048 2048 2048">
	<path fill="#000000" d="M2208 -168Q2208 -161 2205 -145.5Q2202 -130 2202 -125Q2200 -125 2195.5 -122Q2191 -119 2183 -119Q2169 -119 2160 -131Q2144 -224 2139 -243Q2122 -307 2092 -342Q2092 -325 2098 -288Q2104 -251 2104 -247Q2104 -198 2073 -126Q2050 -72 2050 -48Q2050 -41 2061 6.5Q2072 54 2072 61Q2072 109 2042 157Q2008 213 1960 213Q1953 213 1848.5 199.5Q1744 186 1737 186Q1709 186 1573 213Q1568 213 1536 207Q1504 201 1491 201Q1453 169 1444 141Q1442 127 1430 97V78Q1454 79 1462 74Q1446 42 1446 46Q1533 17 1557 17Q1563 17 1586 25.5Q1609 34 1617 34Q1624 34 1673 20Q1722 6 1729 6Q1733 6 1754 9.5Q1775 13 1794 13L1698 -81Q1512 -37 1366 -37Q1307 -37 1170 -55Q1166 -56 1147.5 -60Q1129 -64 1121 -64Q1115 -64 1092 -45Q1066 -22 1057 -17Q1028 -6 972 15Q981 23 1004 23Q1011 23 1043.5 14.5Q1076 6 1083 6Q1109 6 1176 37Q1251 72 1251 99Q1250 103 1249 106Q1261 113 1287 111Q1287 113 1290 117Q1293 121 1293 129Q1293 135 1271 161Q1279 164 1293 178Q1280 213 1214 213Q1207 213 1098.5 199.5Q990 186 983 186L718 213Q687 213 646 179Q596 137 596 102Q596 48 668 -33Q774 -152 786 -171Q769 -195 712.5 -219.5Q656 -244 620 -244Q558 -244 471.5 -157Q385 -70 351 -70Q323 -70 293 -99Q293 -106 290 -119Q263 -119 188 -163Q100 -216 100 -263Q100 -283 172 -332Q204 -353 257 -406Q274 -432 295 -491.5Q316 -551 332 -576Q348 -601 402 -631Q443 -652 485 -673Q487 -681 487 -707L460 -1316H530Q519 -1300 523 -1233Q524 -1187 530 -1098Q544 -1094 561 -1094Q579 -1094 595 -1098L552 -786Q552 -775 553 -771Q634 -729 626 -729Q633 -729 652 -737Q676 -747 685 -749Q736 -762 797 -762L1064 -737L1456 -778Q1576 -778 1707 -744Q1867 -703 1962 -626Q2005 -596 2080 -526Q2183 -401 2193 -263Q2194 -247 2201 -210.5Q2208 -174 2208 -168ZM568 -1065Q568 -1065 535 -1064Q515 -1064 504 -1076Q503 -1111 499 -1189Q495 -1260 495 -1284L511 -729ZM2183 -165Q2177 -232 2151 -346Q1984 -751 1448 -751L1067 -710L797 -734Q743 -734 690 -720Q620 -700 612 -699Q657 -681 688 -650Q676 -638 653 -620Q632 -641 624 -641Q621 -634 624 -603Q625 -587 599 -587Q583 -587 574 -596Q579 -626 578 -685Q483 -649 460 -638Q386 -602 358 -559Q325 -484 253 -369Q250 -365 183 -316Q127 -275 127 -261Q127 -254 142 -239Q140 -260 166 -278Q188 -293 205 -293Q208 -290 212.5 -283.5Q217 -277 220 -274Q216 -270 216 -256Q229 -261 254 -261Q254 -256 256 -246.5Q258 -237 258 -231Q258 -190 226 -190Q209 -190 191 -222Q188 -222 178.5 -218.5Q169 -215 166 -215Q197 -191 228 -167Q252 -152 277 -152Q320 -152 338 -199Q347 -238 357 -278Q396 -301 457 -364L471 -350Q444 -297 380 -263Q372 -180 318 -128V-104Q342 -92 351 -92Q372 -92 430 -152Q503 -227 530 -246Q532 -277 486 -297Q486 -311 496 -321Q528 -310 545 -289Q551 -282 554 -263Q558 -262 568 -262Q568 -262 514 -334L528 -348Q560 -328 578 -305Q584 -290 599 -266Q602 -272 602 -278Q602 -294 580.5 -320Q559 -346 558 -350Q572 -364 576 -364Q593 -350 655 -266V-291Q656 -302 612 -361L626 -375Q655 -353 668 -313Q677 -285 685 -257Q725 -239 795 -201Q820 -250 818 -327Q828 -327 832 -331Q841 -318 841 -280Q841 -219 803 -159Q776 -117 685 -15Q668 4 645.5 43.5Q623 83 623 93Q623 111 652 147Q684 186 724 186L985 159L1238 190Q1225 183 1200 171V152Q1206 148 1232 153Q1232 150 1229.5 143Q1227 136 1227 133Q1194 122 1129 95V81L1138 72Q1149 83 1160 82H1189Q1130 34 1086 34Q1078 34 1047 42Q1016 50 1010 50Q1003 50 951.5 42Q900 34 893 34Q885 34 851 39Q817 44 811 44Q806 44 797 35Q797 32 799.5 25.5Q802 19 802 16Q893 1 983 -15Q1113 -50 1113 -154Q1113 -180 1091 -235Q1094 -238 1100.5 -242.5Q1107 -247 1110 -250Q1140 -190 1140 -149Q1140 -128 1124 -93Q1305 -59 1358 -59Q1388 -59 1679 -105Q1649 -132 1618 -192.5Q1587 -253 1587 -280Q1587 -290 1591 -294H1604Q1633 -206 1665.5 -163Q1698 -120 1782 -32Q1854 43 1854 47Q1854 60 1850 56Q1743 34 1731 34Q1724 34 1672.5 47.5Q1621 61 1614 61Q1607 61 1585.5 52.5Q1564 44 1557 44Q1566 44 1522 55Q1551 59 1555 84Q1515 94 1495 94V119Q1506 123 1522 134V150Q1517 152 1507 156Q1506 159 1506 174Q1554 186 1571 186Q1579 186 1651 172.5Q1723 159 1729 159L1957 186Q2044 186 2044 61Q2044 54 2030.5 8Q2017 -38 2017 -45Q2017 -51 2040 -98Q2064 -151 2070 -175Q2077 -204 2077 -250Q2077 -284 2064 -351Q2063 -356 2053 -380Q2044 -401 2044 -408Q2044 -426 2062 -424Q2160 -322 2183 -165ZM590 -721L554 -739Q554 -738 551 -725Q548 -712 548 -702Q553 -705 569 -711.5Q585 -718 590 -721ZM1234 99L1215 86L1210 94L1229 106ZM189 -258L181 -261L175 -247L182 -244ZM525 -580Q515 -561 513 -539Q512 -539 502 -541.5Q492 -544 484 -544Q458 -544 440.5 -523Q423 -502 426 -469H406Q411 -487 378 -502Q381 -537 408 -567.5Q435 -598 465 -598Q471 -598 525 -580ZM492 -485Q487 -480 462 -468Q445 -485 438 -485V-504Q449 -527 465 -527Q473 -527 492 -510ZM470 -563V-573H455V-563Z"/>
</svg>