<svg xmlns="http://www.w3.org/2000/svg" viewBox="0 -2048 2048 2048">
	<path fill="#000000" d="M1098 379L1084 392Q1033 352 1010 279Q992 212 973 146Q968 164 968 190Q968 209 972 253Q976 297 976 318Q976 360 964 385Q963 392 950 392Q933 392 894 353Q843 392 786 392Q778 392 766 383.5Q754 375 747 375Q739 375 730 380Q721 385 715 385Q705 385 691 376Q689 352 722 332Q765 305 772.5 293.5Q780 282 780 236Q780 138 712 79Q709 108 681 233Q683 257 683 300Q679 327 630.5 359.5Q582 392 557 392Q539 392 530 369H516Q509 369 492 380.5Q475 392 468 392Q461 392 459.5 383.5Q458 375 451 375Q442 375 408 392Q401 391 401 378Q401 364 457 311.5Q513 259 516 227Q535 30 535 -77Q535 -71 514 -123Q476 -209 437 -296Q390 -408 390 -476Q390 -513 412 -581Q391 -585 339 -563Q284 -539 261 -539Q254 -539 248 -540Q244 -536 244 -293Q255 -283 281 -283Q308 -283 333 -288Q292 -227 250 -153V391H188V-536Q182 -540 167 -561Q157 -575 141 -575Q135 -575 129 -574Q116 -587 127 -598Q109 -605 100 -622Q173 -674 330 -722Q380 -721 469 -742Q487 -752 503 -785Q518 -813 518 -827Q518 -833 511 -848.5Q504 -864 503 -872Q501 -886 513 -933Q508 -937 468 -937Q494 -1092 635 -1224Q613 -1262 555 -1262Q542 -1262 517 -1260Q492 -1258 480 -1258Q464 -1258 453 -1261Q446 -1263 428 -1272.5Q410 -1282 404 -1282Q388 -1282 336 -1243Q324 -1255 312 -1255Q330 -1328 462 -1347Q443 -1349 401 -1361Q398 -1379 403 -1408Q408 -1443 420 -1447Q421 -1447 532 -1457Q556 -1459 602 -1487Q666 -1524 681 -1531Q762 -1567 819 -1567Q907 -1567 967.5 -1506Q1028 -1445 1031 -1352L1023 -1084ZM897 -1451V-1471Q823 -1455 833 -1455Q831 -1455 797 -1483Q763 -1511 732 -1510H697Q714 -1503 731 -1496Q752 -1486 753 -1470L743 -1461Q733 -1464 711.5 -1473.5Q690 -1483 683 -1483Q675 -1483 658 -1473Q641 -1463 636.5 -1462Q632 -1461 562 -1439Q515 -1425 481 -1425Q459 -1398 438 -1398Q433 -1398 430 -1399V-1378Q501 -1377 637 -1358Q658 -1352 658 -1321Q658 -1304 618 -1279Q651 -1257 659 -1238Q727 -1284 772 -1345Q788 -1374 818 -1426Q849 -1434 897 -1451ZM1070 341V238Q1070 240 1040 -257Q1007 -804 998 -1067Q1004 -1137 1007 -1268Q1001 -1360 999 -1376Q990 -1444 967 -1476Q921 -1539 819 -1539Q791 -1539 769 -1531Q792 -1522 814 -1513Q840 -1501 843 -1484Q889 -1500 895 -1500Q931 -1500 931 -1464Q931 -1427 888 -1413Q859 -1409 831 -1404Q832 -1360 753 -1283Q684 -1219 615 -1156Q527 -1069 511 -1007Q502 -992 502 -983V-965H522Q555 -1058 648 -1135Q738 -1210 808 -1210Q872 -1210 915 -1180Q930 -1170 947 -1145Q964 -1120 964 -1111V-973L945 -719L964 -415Q964 -336 957 -298Q931 -158 931 -158Q931 -142 966 17Q1004 195 1033 289Q1041 315 1070 341ZM953 329V226Q953 181 928 109Q904 47 881 -16L942 -417L911 -705L942 -1048Q942 -1098 940 -1102Q916 -1149 892 -1165Q865 -1182 811 -1182Q780 -1182 738 -1168Q674 -1147 600 -1044Q529 -947 529 -894Q529 -876 542 -864H561Q588 -892 638 -942L646 -933Q634 -885 608 -864Q585 -854 552 -833Q538 -818 524 -789Q506 -749 502 -742H521Q584 -751 621 -760Q646 -820 670 -880Q707 -959 761 -1014L780 -995Q736 -954 697 -870Q667 -801 636 -731Q525 -718 414 -706Q278 -684 167 -633Q176 -624 185 -624Q201 -624 219 -635Q228 -617 223 -606Q201 -595 201 -591Q265 -607 253 -607Q267 -607 267 -589Q247 -579 239 -570Q274 -566 329.5 -589.5Q385 -613 415 -613H682Q725 -613 826 -854Q844 -897 857 -909Q866 -909 875 -900Q842 -834 810 -762Q790 -715 769 -667Q726 -584 687 -584H435Q418 -464 418 -476Q418 -392 481 -256Q540 -131 617 -33Q596 -83 596 -122Q596 -135 600 -139H614Q643 -46 732 65Q803 155 803 236Q803 313 761 339Q782 340 806 302Q826 312 825 321Q810 336 821 347Q826 347 833 353Q892 325 897 325Q894 325 920 329Q942 332 953 329ZM951 90Q945 65 934 9.5Q923 -46 917 -71Q917 -62 913 -39Q909 -16 909 -10Q909 9 951 90ZM685 47Q685 47 611 -7Q569 -38 559 -60Q555 27 550 113Q545 217 527 271Q518 299 473 327Q478 332 487 336Q486 336 520 319L538 336Q549 322 570 308L585 322Q574 345 581 352H600Q625 334 655 300Q651 272 653 228Q692 125 685 47ZM289 -261H216Q222 -509 213 -518L206 363H222V-153Q222 -158 289 -261ZM735 -1406Q710 -1410 681 -1410Q652 -1410 614 -1406Q614 -1413 602 -1425Q658 -1466 671 -1466Q678 -1466 735 -1437Z"/>
</svg>