<svg xmlns="http://www.w3.org/2000/svg" viewBox="22.6 -1639.4 996.9 2090.9">
	<path fill="currentColor" d="M942 96Q928 153 881 211.5Q834 270 780 300Q649 374 544 374Q428 374 356 349Q284 324 206 246.5Q128 169 100 96H147Q196 0 240 -93H192V-152H246L186 -289Q176 -285 147 -270Q126 -375 126 -375Q126 -403 141 -471Q153 -465 186 -451Q205 -474 212 -478.5Q219 -483 249 -488L257 -499Q221 -502 200 -506Q202 -507 227 -521Q220 -522 201 -527Q212 -540 237 -559Q248 -563 317 -592Q342 -602 381 -606Q414 -608 447 -611Q480 -661 480 -667Q480 -669 475.5 -677Q471 -685 471 -690Q471 -705 476 -732Q467 -735 449 -741Q465 -851 556 -920Q556 -940 471 -940Q433 -940 414 -958Q411 -957 391.5 -944.5Q372 -932 366 -932Q359 -932 342 -942Q368 -982 374 -986Q388 -998 428 -1000Q416 -1002 404 -1013Q408 -1050 408 -1053Q415 -1074 437 -1074Q448 -1074 473 -1074Q498 -1073 509 -1073Q564 -1112 569 -1115Q596 -1132 637 -1141Q628 -1153 624 -1160Q610 -1161 587 -1166Q598 -1280 627 -1506Q630 -1525 649 -1543.5Q668 -1562 686 -1562Q699 -1562 730 -1543Q745 -1562 752 -1562Q771 -1562 797 -1551Q804 -1548 813.5 -1531.5Q823 -1515 823 -1507Q823 -1493 820 -1470Q816 -1441 815 -1433Q807 -1344 792 -1166Q785 -1170 756 -1128Q775 -1117 801 -1089Q825 -1034 825 -927Q825 -906 821.5 -863Q818 -820 818 -799V-786Q818 -623 837 -371Q864 -15 867 44Q869 75 866 96ZM800 -1504Q803 -1533 755 -1535Q754 -1534 740 -1521Q733 -1453 719 -1318Q767 -1312 779 -1269ZM716 -1527Q697 -1539 686 -1539Q653 -1539 645 -1466L623 -1276Q641 -1311 695 -1322Q703 -1380 716 -1527ZM772 -1179L771 -1193Q765 -1185 759 -1179ZM764 -1231Q764 -1237 754.5 -1262Q745 -1287 741 -1289Q721 -1299 696 -1299Q675 -1299 656.5 -1279.5Q638 -1260 638 -1238Q638 -1184 707 -1184Q726 -1184 745 -1198Q764 -1212 764 -1231ZM745 -1157H654Q661 -1142 666 -1142Q672 -1142 684 -1143.5Q696 -1145 702 -1145Q707 -1145 734 -1137ZM638 -1182Q622 -1195 617 -1218L612 -1184Q629 -1182 638 -1182ZM594 -1056Q594 -1062 585 -1062Q575 -1062 575 -1056Q575 -1051 585 -1051Q594 -1051 594 -1056ZM728 -1079H727Q693 -1068 695 -1068Q694 -1068 671.5 -1085Q649 -1102 621 -1101Q625 -1098 644 -1083L630 -1069Q606 -1083 592 -1083Q588 -1083 584 -1082Q592 -1083 639 -1053Q625 -1048 599 -1035Q588 -1035 566 -1037Q544 -1039 533 -1039Q545 -1068 572 -1079Q549 -1072 527 -1057Q518 -1050 453 -1050Q458 -1045 467 -1036Q442 -1036 427 -1034L426 -1030Q426 -1028 427 -1022Q543 -1019 544 -1019Q578 -1019 578 -988Q578 -965 554 -960Q562 -952 575 -934Q627 -972 639 -991Q658 -1025 676 -1059Q693 -1060 710.5 -1062Q728 -1064 728 -1079ZM539 -995L527 -996L531 -988ZM516 -997L505 -998L509 -988ZM536 -966L518 -968L523 -960L530 -959ZM496 -998L484 -999L489 -989ZM436 -1054H429Q426 -1049 426 -1039Q431 -1050 436 -1054ZM510 -969L492 -970L497 -960H503ZM473 -1000H466L468 -989ZM482 -971H466L472 -961H477ZM457 -972H446L448 -962L452 -961ZM463 -981Q452 -984 438 -984Q401 -984 376 -961Q403 -975 463 -981ZM844 83L794 -800Q793 -816 798.5 -847.5Q804 -879 804 -893Q804 -1033 779 -1080Q757 -1122 698 -1122Q691 -1122 657 -1118Q689 -1111 698 -1093Q719 -1103 725 -1103Q743 -1103 754 -1091Q755 -1086 755 -1082Q755 -1058 733 -1044.5Q711 -1031 687 -1034Q668 -985 649 -964Q636 -950 587 -915Q500 -854 474 -757L484 -756Q550 -917 689 -917Q718 -917 743 -900Q784 -872 784 -845V-774Q784 -777 779 -746Q766 -665 766 -597Q766 -570 772 -515Q778 -460 778 -433Q778 -368 766 -297Q754 -226 754 -234Q754 -231 760.5 -216Q767 -201 768 -196Q783 -121 798 -47Q825 72 844 83ZM770 66Q770 -15 755 -58Q751 -69 731 -97Q716 -119 716 -140Q716 -147 747 -331Q758 -397 755 -432L740 -596Q738 -614 749 -680Q760 -754 761 -772L762 -801Q765 -894 687 -894Q660 -894 637 -887Q589 -873 541.5 -810.5Q494 -748 494 -699Q496 -692 502 -692Q515 -692 554 -741Q560 -743 566 -743H568L569 -738Q569 -710 544 -693Q505 -665 505 -665Q494 -652 477 -615H491Q535 -615 548 -623Q564 -658 580 -693Q614 -766 644 -791Q652 -783 652 -776Q652 -771 626 -733Q606 -688 560 -601Q483 -596 331 -572Q306 -560 255 -541Q256 -539 257 -535Q280 -545 288 -545Q292 -545 290 -539Q293 -541 295 -541Q296 -541 297 -539Q293 -530 289 -526L301 -527Q311 -528 324 -518Q313 -509 307 -503Q329 -500 326 -500Q344 -500 365.5 -515Q387 -530 396 -530H587Q595 -530 607.5 -539.5Q620 -549 661 -641Q686 -697 706 -733L720 -718Q685 -636 674 -613Q637 -533 620 -521Q596 -504 576 -504L430 -501Q422 -441 422 -438Q422 -366 483 -258Q502 -220 548 -160Q533 -212 533 -216Q533 -223 546 -231Q555 -208 563 -182Q574 -147 601 -119Q643 -75 650 -66Q676 -30 676 -9Q676 38 666 67L677 58L692 72Q688 76 680 85Q687 90 690 90Q693 90 709.5 81Q726 72 732 72Q736 72 747 81Q753 80 766 78Q770 70 770 66ZM767 -82L747 -181Q739 -139 739 -140Q739 -120 767 -82ZM410 -504Q390 -504 368.5 -490.5Q347 -477 333 -477Q342 -473 350 -463Q352 -461 355 -458Q341 -458 397 -472L401 -462Q404 -476 410 -504ZM823 96Q804 78 779 -25Q779 -9 786 21.5Q793 52 793 66Q793 76 785 96ZM399 -375Q399 -353 384 -443L367 -439Q383 -394 383 -390Q383 -376 369 -316L385 -313Q399 -355 399 -375ZM653 -5Q653 -38 613 -77Q611 -56 606 -15Q605 -7 597 5Q589 17 589 28Q589 33 590.5 43.5Q592 54 592 59Q592 81 568 96H600Q601 92 644 60Q653 0 653 -5ZM360 -388Q360 -397 348 -422.5Q336 -448 329 -453Q309 -468 277 -468Q188 -468 188 -376Q188 -337 268 -152H283Q307 -210 331 -268Q360 -341 360 -388ZM591 -87Q591 -100 561 -122Q523 -149 514 -161Q502 -55 502 -54Q502 -46 504 -30Q506 -14 506 -6Q506 36 480 66H482Q497 66 493 80L494 81Q502 75 521 64Q526 74 526 79Q525 84 523 88Q526 90 530 90Q533 90 548.5 81Q564 72 566.5 68Q569 64 569 53Q569 47 568 36Q567 25 567 19Q567 9 574.5 -2Q582 -13 583 -16Q591 -55 591 -87ZM649 86H648V87ZM180 -310V-314Q180 -318 171 -339.5Q162 -361 162 -376Q162 -402 174 -431Q166 -434 155 -438Q149 -370 149 -376Q149 -367 163 -302ZM492 -186Q492 -193 459 -259Q420 -334 417 -342Q410 -302 390 -285Q385 -287 367 -293L306 -152H356V-93H309L404 96H413Q418 85 456 56Q483 36 483 -14Q483 -22 481.5 -37.5Q480 -53 480 -61Q480 -82 486 -123.5Q492 -165 492 -186ZM332 -119V-126H218V-119ZM905 122H141Q176 183 238 241Q306 305 365 324Q438 348 544 348Q647 348 767 278Q861 223 905 122ZM379 96L284 -93H264L174 96Z"/>
</svg>