<svg xmlns="http://www.w3.org/2000/svg" viewBox="0 -2048 2048 2048">
	<path fill="#000000" d="M2174 278L2167 361Q2045 304 1991 171Q1951 49 1910 -74Q1880 -164 1850 -253Q1799 -401 1748 -485Q1745 -482 1745 -461Q1745 -406 1757 -376Q1826 -201 1826 -209Q1826 -174 1737 -158L1082 -148Q1070 -167 1070 -185Q1070 -255 1158 -255Q1165 -255 1217 -244Q1269 -233 1276 -233Q1362 -233 1526 -274Q1479 -305 1433 -337Q1378 -376 1361 -410Q1241 -367 1120 -324Q974 -275 919 -282Q919 -281 922 -223Q924 -189 901 -170Q862 -137 676 -137L483 -148Q477 -148 397.5 -140Q318 -132 311 -132Q305 -132 283.5 -137Q262 -142 255 -142Q249 -142 239 -134Q229 -126 223 -126Q216 -126 209.5 -134Q203 -142 196 -142Q189 -142 181.5 -137Q174 -132 167 -132Q161 -132 146.5 -137Q132 -142 124.5 -142.5Q117 -143 112 -143Q100 -164 100 -177Q100 -255 204 -255Q239 -255 259 -247Q293 -233 292 -233L659 -287Q663 -291 663 -311Q663 -345 638 -365Q594 -401 579 -422Q547 -466 520 -528Q489 -503 466 -462Q432 -398 425 -389Q419 -389 413.5 -392Q408 -395 406 -395Q502 -571 502 -576Q502 -596 488 -603L283 -528L277 -548Q392 -584 486 -633Q466 -737 452 -782Q441 -818 403 -832Q395 -835 338 -846Q272 -856 144 -894Q134 -899 122 -919.5Q110 -940 100 -947Q99 -968 113 -987Q164 -990 262 -1006Q293 -1032 353 -1078Q379 -1088 428 -1113Q444 -1123 451 -1174Q465 -1273 465 -1331Q472 -1331 485 -1329Q517 -1259 542 -1182Q564 -1279 561 -1325L573 -1332Q577 -1332 585 -1330Q630 -1276 630 -1190Q630 -1123 598 -1072Q636 -1033 659 -978Q678 -930 697 -882Q716 -922 765 -952Q807 -978 834 -978Q898 -978 898 -922Q898 -881 869 -845Q849 -821 792 -778Q743 -741 743 -735Q743 -695 794 -676Q830 -666 865 -657L1265 -1155L1649 -847Q1636 -834 1630 -834Q1623 -834 1602 -855Q1598 -855 1584 -841Q1584 -831 1611 -804L1592 -785Q1584 -797 1565 -818Q1562 -818 1542 -799Q1544 -797 1550.5 -787.5Q1557 -778 1563 -772Q1560 -769 1553.5 -765.5Q1547 -762 1544 -759L1266 -1118L903 -650Q907 -651 976 -651Q983 -651 1179 -686Q1375 -721 1450 -721Q1562 -721 1647 -687Q1845 -608 1988 -280Q2128 40 2174 278ZM1579 -874L1349 -1053L1528 -823ZM528 -1120Q523 -1141 511 -1186Q499 -1231 494 -1252Q486 -1180 459 -1108Q468 -1108 486 -1105Q504 -1102 510 -1102Q518 -1102 521.5 -1108Q525 -1114 528 -1120ZM877 -925Q877 -952 837 -952Q813 -952 760 -916Q700 -875 700 -839Q700 -834 716 -803Q732 -772 734 -764Q779 -799 824 -834Q877 -877 877 -925ZM716 -750Q690 -823 665 -896Q631 -985 585 -1048L563 -1027L545 -1045Q609 -1092 609 -1190Q609 -1213 585 -1273Q571 -1209 558 -1145Q538 -1071 504 -1032Q485 -1042 485 -1050Q494 -1062 507 -1078Q483 -1086 453 -1086Q422 -1086 417 -1083Q362 -1038 273 -980Q247 -970 201 -969Q137 -967 127 -966Q137 -949 184 -944Q252 -936 266 -932Q264 -926 257 -913H159Q231 -900 303 -887Q391 -872 439 -843Q482 -818 491 -762Q507 -660 514 -641ZM2152 329V299Q2153 150 1979 -242Q1873 -481 1734 -606Q1636 -694 1464 -694Q1375 -694 1222.5 -662Q1070 -630 960 -630Q858 -630 826 -638Q758 -655 725 -721L518 -618Q561 -452 655 -384Q655 -387 662 -475Q667 -534 682 -566Q688 -564 700 -557V-537Q693 -514 685 -472Q676 -355 700 -275L285 -207Q253 -228 207 -228Q154 -228 127 -194V-169Q133 -180 150 -196Q155 -191 165 -191Q165 -163 175 -158Q180 -170 189 -185H203Q229 -159 232 -159Q247 -174 255 -174Q262 -174 270.5 -167.5Q279 -161 284 -160Q295 -158 338 -158Q345 -158 405.5 -163.5Q466 -169 473 -169H836Q862 -169 880 -190.5Q898 -212 898 -239Q898 -233 893 -317Q888 -394 890 -433L896 -437H905Q914 -367 921 -303H965Q1005 -303 1178 -368Q1263 -400 1348 -433Q1332 -504 1316 -551L1325 -561H1339Q1341 -551 1347 -535Q1359 -392 1574 -273Q1574 -270 1571.5 -263.5Q1569 -257 1569 -254Q1358 -207 1292 -207Q1285 -207 1226.5 -220Q1168 -233 1161 -233Q1143 -233 1120 -215Q1097 -197 1097 -178Q1097 -173 1099 -169Q1103 -180 1111 -196H1130Q1132 -185 1141 -169Q1146 -196 1164 -196Q1168 -196 1179 -169Q1201 -180 1207 -180Q1214 -180 1263 -174.5Q1312 -169 1319 -169L1721 -180Q1778 -191 1799 -208Q1775 -270 1751 -332Q1718 -420 1718 -460V-540Q1733 -540 1737 -544Q1792 -465 1835 -353Q1842 -337 1904 -155Q1942 -43 1980 69Q2028 198 2079 275Q2104 312 2152 329ZM442 -990Q418 -978 408 -978Q384 -978 384 -1005Q384 -1013 389.5 -1021Q395 -1029 395 -1031H437Q437 -1030 439.5 -1016.5Q442 -1003 442 -990Z"/>
</svg>