<svg xmlns="http://www.w3.org/2000/svg" viewBox="0 -2048 2048 2048">
	<path fill="currentColor" d="M2270 237H2251Q2240 237 2207 213Q2171 186 2150 160Q2119 121 2109 89Q2101 63 2038 -107H2034Q2035 -87 2042 -15Q2049 51 2049 59Q2049 124 1994 183.5Q1939 243 1875 243H274Q267 243 208 224Q160 208 128 134Q100 71 100 12Q100 -204 270 -258Q258 -270 258 -280Q258 -313 294 -338Q324 -359 352 -359Q359 -359 452 -342L804 -388Q808 -392 808 -406Q808 -426 772 -467Q747 -493 723 -519Q684 -574 670 -613Q654 -658 617 -812Q607 -853 605 -861Q594 -892 577 -901.5Q560 -911 410 -939Q298 -961 265 -1029V-1060Q323 -1065 430 -1086Q446 -1091 501 -1138Q553 -1182 581 -1185Q619 -1272 617 -1391Q635 -1400 635 -1401Q667 -1338 689 -1278Q699 -1295 707 -1340Q713 -1379 730 -1395Q779 -1330 779 -1257Q779 -1224 757 -1163Q750 -1135 750 -1146Q750 -1140 776 -1108Q805 -1072 812 -1054Q823 -1025 874 -855Q907 -746 1045 -746L1595 -810Q1816 -810 1984 -578Q2108 -407 2190 -129Q2211 -70 2232 -12Q2270 102 2270 134ZM2017 -167L1862 -564V-527Q1861 -520 1892 -437Q1925 -346 1932 -315V-298Q1932 -273 1920 -244Q1941 -241 1976 -212Q2011 -183 2017 -167ZM668 -1186V-1258Q668 -1256 647 -1319Q642 -1275 616 -1186Q629 -1182 644 -1182Q659 -1182 668 -1186ZM2247 202V175Q2247 100 2161 -137Q2102 -301 2064 -387Q2006 -518 1929.5 -609.5Q1853 -701 1745 -748Q1657 -787 1578 -787Q1568 -787 1364.5 -751.5Q1161 -716 1051 -716Q941 -716 891 -777Q863 -810 824 -927Q783 -1049 730 -1120L712 -1102Q701 -1113 697 -1113Q756 -1205 756 -1263Q756 -1268 735 -1331Q718 -1197 658 -1114Q642 -1114 633 -1123Q644 -1145 644 -1154Q638 -1154 627 -1157.5Q616 -1161 609 -1161Q573 -1161 529 -1131Q493 -1099 430 -1057Q381 -1052 294 -1039Q307 -1025 354 -1024Q408 -1022 422 -1016L417 -996Q403 -995 335 -995Q353 -980 407 -968Q451 -960 495 -952Q523 -947 551 -943Q590 -934 602 -911Q623 -872 684 -670Q726 -533 801 -486Q801 -545 825 -653Q841 -653 849 -643Q841 -616 832 -567Q835 -474 833 -365L452 -313Q376 -330 364 -330Q313 -330 289 -278Q306 -295 317 -295Q325 -295 329 -291V-267Q335 -267 342.5 -275Q350 -283 358 -283Q374 -283 370 -267Q376 -267 390.5 -272.5Q405 -278 411 -278Q418 -278 443.5 -269Q469 -260 475 -260Q482 -260 581.5 -266Q681 -272 688 -272L960 -260Q1028 -260 1028 -348Q1028 -374 1020.5 -426.5Q1013 -479 1013 -496Q1013 -535 1036 -535Q1045 -535 1049 -531V-407H1121Q1173 -407 1313 -465Q1435 -516 1475 -543Q1446 -607 1446 -634Q1446 -648 1450 -652H1465Q1467 -648 1486 -579Q1499 -534 1518 -513Q1546 -482 1625 -417Q1692 -363 1692 -357Q1692 -343 1687 -347L1399 -301Q1300 -319 1291 -319Q1237 -319 1237 -284Q1237 -279 1239 -272Q1239 -284 1250 -295Q1255 -293 1266 -285V-266Q1281 -292 1295 -290Q1306 -279 1306 -267L1645 -278Q1652 -278 1747.5 -269Q1843 -260 1850 -260Q1882 -260 1889 -263Q1908 -271 1908 -304Q1908 -318 1865 -422Q1832 -502 1832 -573Q1832 -619 1852 -634Q1930 -516 2025 -242Q2140 91 2161 136Q2185 188 2247 202ZM1639 -368Q1525 -440 1491 -505Q1378 -464 1265 -423Q1130 -375 1055 -376V-356Q1079 -317 1037 -261H1205Q1201 -300 1233 -325Q1260 -348 1294 -348Q1301 -348 1355.5 -339Q1410 -330 1417 -330Q1474 -330 1639 -368ZM2019 24Q2019 -71 2005 -129Q1996 -164 1954.5 -197Q1913 -230 1881 -230H1300L1476 214H1863Q1894 214 1949.5 183.5Q2005 153 2011 130Q2019 100 2019 24ZM1445 213L1269 -230H1031L1202 213ZM1170 213L1000 -230H762L932 213ZM901 213L731 -230H280Q262 -230 219 -208Q173 -183 166 -164Q130 -67 130 0Q130 78 155 136Q165 158 203.5 185.5Q242 213 262 213ZM597 -1069Q584 -1056 574 -1056Q566 -1056 555.5 -1059Q545 -1062 540 -1062Q540 -1065 537 -1075.5Q534 -1086 534 -1089Q553 -1108 560 -1108H591Q591 -1102 594 -1088.5Q597 -1075 597 -1069Z"/>
</svg>