<svg xmlns="http://www.w3.org/2000/svg" viewBox="0 -2048 2048 2048">
	<path fill="#000000" d="M1944 -78L1936 -63Q1913 -70 1871 -92Q1829 -122 1807 -171Q1785 -220 1717 -422V-394H1393V353H1315V-44L600 -394H290Q222 -394 167 -439Q100 -494 100 -585Q100 -609 112 -630Q125 -656 146 -656Q183 -656 183 -582Q183 -497 289 -475Q291 -496 299 -515Q327 -552 375 -552Q406 -552 445 -531L739 -574Q739 -581 734 -613Q707 -637 660 -691Q621 -745 595 -841Q587 -881 579 -921Q567 -976 545 -989Q537 -994 489 -997Q487 -997 408 -1020Q380 -1026 352 -1032Q312 -1043 312 -1062Q312 -1063 313 -1068Q301 -1076 287 -1091Q296 -1105 296 -1118Q342 -1120 431 -1135Q443 -1139 477 -1176Q506 -1210 553 -1213Q578 -1268 578 -1323Q578 -1383 603 -1391L645 -1288Q648 -1297 663 -1402Q720 -1311 720 -1262Q720 -1246 707.5 -1220.5Q695 -1195 693 -1182Q735 -1140 764 -1044Q797 -932 818 -898Q842 -859 978 -859Q1048 -859 1192 -885.5Q1336 -912 1407 -912Q1660 -912 1835 -477Q1891 -337 1908 -283Q1936 -188 1944 -78ZM1698 -477Q1679 -539 1659 -601Q1635 -672 1604 -717Q1606 -627 1630 -586Q1665 -526 1665 -497Q1665 -485 1657 -475H1669Q1677 -475 1698 -477ZM629 -1222L624 -1227Q621 -1279 608 -1312Q604 -1265 583 -1213Q607 -1211 621 -1209Q624 -1213 629 -1222ZM1916 -100V-109Q1916 -112 1909 -157Q1890 -281 1802 -495Q1720 -695 1598 -808Q1514 -886 1394 -886Q1335 -886 1181 -859.5Q1027 -833 948 -833Q828 -833 790 -900Q770 -936 747 -1012.5Q724 -1089 707 -1122Q700 -1135 678 -1159Q669 -1149 655 -1142Q647 -1149 646 -1156Q662 -1187 678 -1219Q691 -1244 691 -1291Q691 -1299 681 -1318Q673 -1299 661 -1260Q642 -1180 606 -1145L591 -1161Q596 -1168 606 -1186Q581 -1190 566 -1190Q526 -1190 494 -1155Q457 -1113 433 -1106Q395 -1102 320 -1095Q335 -1085 374 -1085Q400 -1085 432 -1078Q434 -1064 421 -1055Q390 -1058 350 -1060Q371 -1056 413 -1045Q428 -1038 461 -1026Q496 -1022 531 -1019Q571 -1012 585.5 -981.5Q600 -951 604 -930Q644 -742 730 -652Q739 -695 749 -781Q755 -789 767 -789H777Q754 -640 754 -644Q754 -631 760 -605Q766 -579 766 -566Q766 -555 753 -549.5Q740 -544 601 -524.5Q462 -505 441 -505Q436 -505 414 -515.5Q392 -526 375 -526Q316 -526 315 -483L318 -478H319Q322 -497 338 -511Q350 -500 352 -479Q352 -475 353 -475L356 -476Q358 -490 373 -504Q384 -489 387 -475H401Q411 -484 418 -484Q425 -484 437.5 -479Q450 -474 457 -474Q503 -474 594 -479Q685 -484 730 -484Q751 -484 793.5 -481Q836 -478 857 -478Q922 -478 922 -533Q922 -541 917.5 -555Q913 -569 913 -577V-688Q920 -699 931 -698L942 -688V-590H981Q1007 -590 1128 -633Q1206 -662 1284 -691Q1258 -738 1258 -781Q1258 -788 1269 -796L1283 -779Q1300 -684 1349 -639Q1411 -593 1473 -547L1458 -535L1219 -502Q1212 -501 1187 -509Q1162 -517 1154 -517Q1141 -517 1091 -504L1088 -481Q1093 -490 1104 -507L1117 -492V-480H1121Q1124 -492 1136 -503L1150 -489V-475H1156Q1161 -481 1169 -481Q1241 -481 1383.5 -478Q1526 -475 1598 -475Q1639 -475 1639 -499Q1639 -520 1624 -546Q1600 -586 1599 -589Q1577 -641 1577 -743Q1577 -764 1590 -775Q1652 -715 1687 -606Q1720 -509 1784 -316Q1820 -206 1827 -191Q1861 -120 1916 -100ZM1420 -555Q1365 -594 1351 -605Q1313 -636 1294 -668Q1208 -636 1122 -603Q1019 -566 944 -560Q948 -544 948 -534Q948 -500 926 -476H1064V-489Q1064 -516 1077 -526Q1100 -543 1153 -543Q1162 -543 1187.5 -535Q1213 -527 1219 -528ZM1691 -420V-446H322Q259 -446 210 -482Q157 -521 157 -582Q157 -585 158 -592Q158 -599 158 -602Q158 -630 146 -630Q126 -630 126 -585Q126 -516 173.5 -468Q221 -420 290 -420ZM1367 322V-394H1341V322ZM1315 -130V-394H776ZM1315 -73V-101L717 -394H660ZM576 -1115Q568 -1115 557 -1110Q546 -1105 540 -1105Q534 -1105 525 -1112.5Q516 -1120 513 -1121Q518 -1139 528 -1146Q548 -1158 551 -1161Q566 -1146 576 -1115Z"/>
</svg>