<svg xmlns="http://www.w3.org/2000/svg" viewBox="0 -2048 2048 2048">
	<path fill="currentColor" d="M2354 -1235Q2354 -1240 2345 -1194Q2336 -1148 2261 -938Q2228 -835 2153 -633Q2149 -623 2128 -591Q2098 -544 2069 -496Q2026 -435 1991 -427V-424Q1991 -440 2006 -388Q2013 -364 2037 -235Q2054 -143 2084 -86Q2087 -80 2126 -28Q2155 12 2155 31V43Q2155 137 2042 137Q2032 137 2000 135L1646 113Q1630 112 1587 122Q1544 132 1528 132Q1522 132 1502.5 122.5Q1483 113 1480 113Q1477 113 1453 122Q1426 131 1419 132L1414 123Q1410 125 1403 125Q1398 125 1389.5 122Q1381 119 1376 119V108Q1373 109 1368 109Q1346 109 1346 88Q1346 59 1376 27Q1406 -5 1435 -5Q1465 -5 1528 6Q1591 17 1619 17Q1620 17 1710 7L1890 -13Q1823 -43 1757 -72Q1688 -108 1646 -169Q1593 -164 1489 -143Q1419 -112 1277 -51L1136 -48Q1053 -46 953 -61Q943 -62 916.5 -71Q890 -80 878 -80Q841 -80 726 -44Q715 -41 676 -16L935 15Q942 16 960.5 1Q979 -14 991 -14Q996 -14 1018.5 -5Q1041 4 1046 5Q1072 9 1123 17Q1138 37 1159 41L1149 53Q1161 70 1185 104Q1129 132 1108 132Q1090 132 1044 122Q998 112 980 113L591 135Q591 135 578 135Q525 135 485.5 99.5Q446 64 446 11Q446 -34 548.5 -154.5Q651 -275 651 -290Q608 -348 599 -405Q595 -428 592 -442Q581 -503 570 -563Q554 -638 519 -670Q513 -676 478.5 -685.5Q444 -695 433 -695Q387 -695 368 -687Q341 -674 314 -661Q208 -618 190 -618Q184 -618 168 -629Q153 -615 135 -604Q100 -623 100 -639Q100 -645 145 -702Q326 -932 452 -973Q469 -977 503 -988Q468 -1029 398 -1112Q353 -1166 353 -1178Q353 -1196 354 -1204Q410 -1254 427 -1254Q436 -1254 444 -1251Q500 -1173 609 -1014Q633 -1021 802 -1244Q810 -1247 820 -1247Q832 -1247 837 -1245Q889 -1197 889 -1182Q889 -1160 887 -1157Q883 -1151 787 -1050Q767 -1031 747 -1012Q722 -986 722 -965Q722 -927 752 -873Q778 -830 804 -788Q846 -713 889 -638Q950 -537 991 -509Q1027 -484 1081 -476Q1127 -469 1239 -469Q1306 -469 1336 -474V-1239H1407V-988H1531L1370 -478Q1602 -542 1779 -542Q1800 -542 1862.5 -526Q1925 -510 1946 -510Q1969 -510 2003 -538Q2008 -542 2024 -573Q2073 -668 2094 -776Q2116 -888 2138 -1000Q2160 -1128 2167 -1226Q2168 -1244 2187 -1270.5Q2206 -1297 2223 -1297Q2225 -1297 2243.5 -1312Q2262 -1327 2286 -1327Q2310 -1327 2322 -1289Q2330 -1285 2344 -1275Q2354 -1255 2354 -1235ZM1495 -962H1381V-1213H1362V-542ZM2330 -1235Q2330 -1232 2326 -1259L2322 -1261Q2294 -1170 2247 -1056H2231L2301 -1279Q2294 -1304 2283 -1304Q2258 -1304 2252 -1289Q2240 -1200 2224 -1080Q2219 -1071 2214 -1071Q2209 -1071 2201 -1075L2226 -1271H2219Q2193 -1251 2191 -1222Q2180 -1085 2124 -805Q2106 -714 2094 -674Q2073 -602 2039 -553Q2033 -539 2015 -517Q1970 -487 1946 -487Q1926 -487 1861 -503Q1796 -519 1776 -519Q1654 -519 1393 -461Q1321 -445 1248 -445Q1100 -445 1050 -459Q959 -484 899 -579Q767 -787 710 -900Q698 -924 698 -981Q698 -996 782 -1081Q866 -1166 866 -1178Q866 -1186 848 -1203Q830 -1220 821 -1220Q815 -1220 814 -1220Q768 -1159 723 -1098Q652 -1006 627 -994Q618 -990 588 -987Q523 -981 450 -947Q305 -880 126 -640L134 -632Q139 -634 199 -682Q255 -728 275 -728Q291 -728 287 -714Q252 -693 187 -645H192Q213 -645 302 -680Q329 -694 357 -707Q379 -718 423 -718Q435 -718 511 -698Q541 -690 556 -660Q579 -614 594 -545Q607 -485 619 -426Q621 -407 630 -372Q639 -348 665 -314Q679 -346 709 -410L723 -394Q705 -317 644 -232Q615 -192 537 -101Q518 -81 485 -40Q470 -17 470 11Q470 57 506 86Q539 112 586 112Q652 112 785 100.5Q918 89 984 89Q984 89 1084 108Q1107 109 1151 96Q1148 92 1143 87Q1140 90 1134 90Q1122 90 1122 80V76L1128 69Q1117 62 1112 52L1116 46L1112 40Q1093 38 1056 32Q1051 31 1022 21Q997 13 993 13Q987 13 954 38Q946 40 940 39L614 -4Q688 -56 722 -67Q806 -86 909 -116Q927 -128 945 -166Q965 -208 980 -221Q989 -212 989 -208Q989 -180 920 -95Q1017 -69 1209 -69Q1282 -69 1449 -150Q1461 -156 1485 -166Q1534 -173 1633 -189Q1625 -200 1613 -225Q1596 -295 1596 -324Q1596 -335 1602 -338Q1619 -321 1630 -254Q1636 -216 1677 -162Q1688 -153 1711 -133Q1748 -99 1821 -68Q1921 -25 1938 -15Q1948 -9 1947 3L1620 39Q1602 41 1544 33Q1476 24 1462 23L1440 22Q1398 20 1375 78Q1390 75 1396 75Q1403 75 1415 78L1404 99Q1426 83 1432 83Q1445 83 1445 91Q1442 98 1440 105Q1473 89 1478 89Q1484 89 1505 98.5Q1526 108 1530 108Q1547 108 1588 98Q1629 88 1647 89L2001 111Q2033 113 2036 113Q2129 113 2129 55Q2129 53 2129 48Q2128 43 2128 41Q2128 17 2128 17Q2127 15 2081 -48Q2048 -93 2033 -148Q2013 -247 1963 -444Q1979 -448 2008 -459Q2023 -469 2075 -549Q2125 -624 2134.5 -648Q2144 -672 2235 -933Q2269 -1018 2321 -1195Q2330 -1242 2330 -1235ZM582 -1009Q546 -1062 473 -1168Q433 -1227 426 -1227Q415 -1227 377 -1193V-1184Q377 -1174 386 -1162Q450 -1073 520 -1000Q523 -997 527 -994Q516 -994 582 -1009ZM505 -864Q483 -846 433 -826Q422 -825 400 -821V-838Q410 -851 424 -854V-855Q438 -884 482 -884Q491 -884 497 -886Q505 -873 505 -864Z"/>
</svg>