<svg xmlns="http://www.w3.org/2000/svg" viewBox="0 -2048 2048 2048">
	<path fill="#000000" d="M2393 -1350Q2393 -1290 2349 -1172Q2316 -1083 2282 -994Q2209 -774 2159 -666Q2151 -649 2110 -600.5Q2069 -552 2053 -540Q2044 -536 2027 -528V-523Q2027 -506 2033.5 -472Q2040 -438 2040 -421Q2040 -382 2035 -368Q2024 -356 2005 -329Q1971 -268 1910 -94Q1900 -42 1868 35Q1846 60 1775 67Q1675 75 1477 94Q1490 118 1490 124Q1490 137 1465 177Q1454 187 1434 208Q1413 217 1398 217Q1384 217 1369 195Q1354 173 1354 158Q1354 152 1355 141Q1356 130 1356 125V118H1350Q1349 125 1348 138Q1335 153 1317 153Q1307 153 1295 146Q1290 153 1258 153L1252 144Q1238 158 1218 160Q1202 198 1160 218Q1151 214 1144 202Q1128 217 1114 217Q1105 217 1101 208Q1098 210 1093 210Q1082 210 1050 194V135Q1064 118 1082 94Q970 85 746 63Q733 62 668 44Q598 25 598 -64Q598 -111 606 -135Q617 -167 693 -305Q643 -361 628 -419Q615 -503 602 -587Q585 -693 537 -738Q531 -744 492 -751.5Q453 -759 440 -759Q400 -759 377 -749Q351 -736 324 -723Q226 -683 195 -683Q190 -683 181.5 -686Q173 -689 169 -689Q159 -679 138 -662Q125 -674 100 -697Q174 -816 280 -915Q407 -1032 519 -1057Q525 -1058 528 -1060Q369 -1261 369 -1267Q369 -1282 374 -1293Q378 -1301 405.5 -1317Q433 -1333 443 -1333Q452 -1333 459 -1330Q521 -1251 646 -1094Q676 -1117 731 -1193Q758 -1233 785 -1274Q829 -1337 843 -1337Q857 -1337 885 -1316.5Q913 -1296 921 -1282Q924 -1277 924 -1262Q924 -1245 906 -1225Q851 -1169 748 -1052Q749 -1030 758 -988Q791 -905 869 -777Q962 -624 1011.5 -602Q1061 -580 1232 -580Q1267 -580 1290 -581V-1354H1361V-1103H1485L1321 -583Q1372 -588 1566 -618Q1722 -643 1808 -643Q1805 -643 1984 -611Q2068 -644 2104 -764Q2113 -793 2151 -973Q2183 -1123 2205 -1341Q2209 -1385 2252 -1410Q2257 -1413 2274 -1413Q2281 -1421 2294 -1436Q2330 -1441 2325 -1441Q2356 -1441 2364 -1403Q2373 -1398 2388 -1386Q2393 -1339 2393 -1350ZM1449 -1077H1335V-1328H1316V-657ZM2369 -1354Q2369 -1369 2365 -1375L2288 -1153L2273 -1171L2343 -1388Q2333 -1418 2322 -1418Q2300 -1418 2296 -1396.5Q2292 -1375 2286 -1331Q2277 -1283 2261 -1186Q2256 -1175 2243 -1176Q2241 -1188 2239 -1201L2269 -1386H2259Q2231 -1366 2228 -1337Q2223 -1280 2209 -1167Q2167 -880 2105 -703Q2089 -656 2063 -631Q2019 -588 1987 -588Q1966 -588 1896 -603.5Q1826 -619 1804 -619Q1724 -619 1424 -574Q1304 -556 1278 -556Q1139 -556 1118 -559Q1068 -566 1019 -573Q977 -586 940 -634Q868 -729 806 -838Q721 -985 721 -1052Q721 -1062 796 -1141Q841 -1190 887 -1238Q897 -1250 897 -1262Q897 -1275 879.5 -1292.5Q862 -1310 848 -1312Q799 -1246 750 -1179Q670 -1075 649 -1069Q589 -1054 472 -1019Q386 -988 279 -885Q181 -790 131 -700L142 -693Q163 -716 209 -758Q262 -796 285 -796Q300 -796 300 -789Q300 -779 244 -751Q217 -737 189 -708Q194 -707 199 -707Q219 -707 319 -745Q347 -759 375 -773Q396 -783 443 -783Q516 -783 550 -758Q604 -718 628 -554Q653 -380 704 -326Q759 -413 839 -490Q847 -482 847 -476Q847 -473 846 -471Q799 -421 720 -311Q688 -252 655 -193Q622 -123 622 -64Q622 -9 644 6Q679 30 725 37Q795 47 972 61Q1075 69 1090 69Q1100 69 1113 57Q1121 50 1221 5L821 -58L808 -68Q862 -116 961 -221Q985 -262 1039 -341L1053 -327Q1028 -286 977 -205Q1062 -176 1162 -176Q1240 -176 1308 -190Q1350 -195 1432 -211Q1443 -214 1543 -252Q1611 -278 1657 -278V-295Q1657 -304 1654 -320Q1651 -336 1651 -345Q1651 -384 1673 -450L1687 -433Q1674 -350 1674 -343Q1674 -253 1716 -134Q1738 -72 1738 -66Q1738 -63 1736 -61L1731 -65L1733 -58V-59Q1731 -57 1382 -4Q1411 3 1411 3Q1415 3 1422 1Q1429 -1 1433 -1Q1480 -1 1480 38Q1480 50 1476 69H1490Q1506 69 1625 58Q1692 53 1824 37Q1856 32 1875 -51Q1882 -79 1927 -200.5Q1972 -322 1983 -339Q2016 -390 2016 -421Q2016 -465 2003 -540Q2050 -560 2102 -627Q2148 -687 2168 -744Q2208 -852 2285 -1069Q2311 -1139 2338 -1210Q2369 -1299 2369 -1354ZM618 -1087Q561 -1161 448 -1309Q434 -1307 415 -1295Q393 -1282 393 -1270Q393 -1263 551 -1067Q590 -1082 618 -1087ZM1712 -80Q1690 -138 1660 -255Q1628 -252 1566 -240Q1523 -220 1435 -188Q1287 -149 1163 -149Q1057 -149 961 -186L849 -76L1236 -18V-23Q1236 -64 1271 -64Q1286 -64 1294 -56Q1301 -64 1316 -64Q1342 -64 1350 -21ZM1466 124Q1466 122 1458.5 108Q1451 94 1451 84Q1451 76 1453.5 61.5Q1456 47 1456 39V35Q1455 33 1447 27Q1411 26 1350 15V91H1359Q1370 91 1377 102Q1377 102 1377 157Q1377 164 1386.5 178.5Q1396 193 1402 193Q1403 193 1408 192Q1402 183 1398 176L1410 163Q1419 169 1435 177Q1437 177 1447 165V158Q1427 151 1417 134Q1438 131 1459 133Q1466 130 1466 124ZM1323 126V-31Q1322 -34 1319 -37H1311L1310 -35Q1310 -33 1309 -30V126ZM1282 125V-31Q1281 -35 1278 -37H1264V123Q1268 126 1272 126H1274Q1279 126 1282 125ZM1237 123V26Q1156 54 1143 62Q1118 78 1076 139V183L1086 187Q1091 173 1107 163L1118 174V190H1119Q1119 190 1143 154Q1149 160 1158 171Q1158 190 1166 190Q1182 190 1203 143Q1204 142 1224 137Q1237 133 1237 123ZM526 -944Q474 -892 449 -892Q443 -892 440 -895Q426 -887 403 -877Q403 -894 404 -898Q419 -908 438 -926Q453 -951 477 -951Q485 -951 501 -947.5Q517 -944 526 -944Z"/>
</svg>