<svg xmlns="http://www.w3.org/2000/svg" viewBox="14 -1576 2320.9 1873.9">
	<path fill="currentColor" d="M2249 -672Q2249 -650 2240 -563Q2238 -521 2230 -437Q2217 -386 2190 -284Q2170 -196 2150 -108Q2126 -4 2096.5 64Q2067 132 1968 175Q1960 179 1895 192.5Q1830 206 1824 206Q1725 206 1613 181Q1511 154 1409 128Q1357 115 1248 115Q1212 115 1158 141Q1087 176 1071 181Q970 212 819 212Q816 212 783 205Q722 193 660 181Q581 163 546 140Q508 119 437 69Q375 17 339 -38Q335 -44 316 -92Q298 -125 271 -196Q249 -292 249 -355Q249 -377 269.5 -451Q290 -525 290 -548Q290 -573 278 -601Q268 -624 102 -743Q100 -750 100 -756Q100 -765 129.5 -796Q159 -827 166 -827Q179 -827 223 -792L192 -833Q196 -842 207 -857Q247 -886 274 -886Q284 -886 348 -785Q386 -723 424 -662Q427 -657 432 -657Q437 -657 447 -658Q458 -658 463 -658Q487 -658 513 -657L842 -1490L906 -1465L810 -1192L900 -1156L543 -657Q569 -652 616 -629Q627 -617 651 -598Q657 -595 747 -554Q803 -528 837 -492Q842 -486 868 -426Q849 -415 840 -415Q849 -415 823 -424Q815 -424 796.5 -418Q778 -412 769 -412Q743 -412 690.5 -419Q638 -426 612 -426Q521 -426 521 -363Q521 -318 579 -241Q626 -179 673 -139Q675 -142 699 -192Q717 -229 771 -276Q814 -313 925 -379Q979 -410 1084 -478Q1219 -575 1286 -652Q1206 -664 1176 -664Q1173 -664 1166.5 -662.5Q1160 -661 1157 -661Q1144 -661 1140 -662Q1081 -735 1081 -763Q1081 -801 1108 -801Q1117 -801 1133.5 -794Q1150 -787 1158 -786Q1171 -798 1180 -798Q1200 -798 1210 -780Q1220 -762 1221 -762H1310Q1320 -750 1330 -733Q1334 -739 1341 -739Q1347 -739 1350 -736Q1355 -740 1364 -747Q1359 -763 1328 -804Q1303 -838 1303 -862Q1303 -884 1333 -909Q1339 -914 1373 -925Q1375 -920 1377 -907Q1383 -912 1393 -912Q1434 -912 1430 -878L1450 -888L1441 -880Q1444 -880 1473 -869Q1475 -858 1475 -827Q1475 -811 1491.5 -785.5Q1508 -760 1508 -745Q1508 -731 1497 -718Q1481 -700 1478 -695Q1573 -676 1762 -634Q1773 -633 1795 -631Q1821 -628 1841 -605Q1852 -592 1855 -527Q1858 -462 1881 -438Q1905 -422 1949 -391Q2063 -307 2080 -253Q2085 -236 2098 -174Q2127 -265 2127 -294Q2127 -306 2126 -318L2091 -735Q2091 -747 2092 -759Q2107 -767 2136 -783Q2141 -796 2149 -802Q2169 -806 2176 -806Q2194 -806 2207 -787Q2224 -774 2244 -741Q2249 -715 2249 -672ZM1441 -880Q1435 -880 1430 -878L1429 -873L1427 -869Q1432 -872 1441 -880ZM1485 -745Q1470 -771 1456 -796Q1446 -819 1449 -854Q1449 -854 1405 -854Q1405 -858 1406 -867Q1407 -876 1407 -881V-886H1390Q1382 -877 1362 -863Q1355 -876 1352 -892Q1326 -882 1326 -861Q1326 -848 1329 -842Q1343 -825 1368 -789Q1383 -765 1429 -669Q1457 -702 1485 -745ZM1421 -625Q1421 -636 1376 -728H1373L1370 -721L1412 -611Q1421 -618 1421 -625ZM1391 -605Q1390 -612 1347 -714L1345 -715Q1344 -710 1344 -703Q1344 -666 1387 -601Q1390 -603 1391 -605ZM1318 -701Q1318 -714 1300 -737H1224Q1216 -737 1200.5 -756Q1185 -775 1183 -775Q1173 -775 1172 -763Q1171 -747 1159 -738Q1144 -753 1145 -768Q1141 -771 1132 -775Q1135 -773 1135 -770Q1135 -754 1129 -738Q1109 -753 1108 -775Q1104 -766 1104 -761Q1104 -746 1123 -723Q1137 -705 1151 -687Q1314 -675 1291 -675Q1318 -675 1318 -701ZM1713 -490L1434 -600Q1423 -587 1411 -591Q1405 -576 1391 -576Q1387 -576 1377 -578L1239 -335Q1245 -333 1249 -333Q1250 -333 1255.5 -335.5Q1261 -338 1266 -338Q1322 -338 1431 -278Q1540 -218 1546 -218H1693Q1687 -237 1687 -248Q1687 -267 1708 -450Q1713 -494 1713 -490ZM873 -1450L856 -1457L577 -748L859 -1144L777 -1177ZM2229 -663Q2229 -730 2215 -745V-540Q2211 -536 2193 -531V-769Q2193 -784 2174 -784Q2168 -784 2158 -780Q2159 -756 2163 -672Q2166 -604 2166 -564L2165 -559Q2160 -548 2147 -549L2135 -755L2117 -747Q2115 -695 2114 -705L2149 -320Q2152 -283 2140 -240Q2127 -193 2106 -125Q2102 -115 2090 -116Q2076 -173 2062 -230Q2048 -279 1993 -327Q1931 -372 1862 -426Q1838 -454 1835 -506Q1830 -572 1824 -589Q1821 -598 1747 -615Q1491 -675 1466 -675Q1464 -675 1450.5 -661Q1437 -647 1437 -644Q1437 -656 1444 -621L1642 -540Q1737 -502 1736 -493L1710 -249Q1706 -209 1734 -132Q1746 -100 1762 -78Q1780 -64 1808 -30Q1800 -22 1795 -22Q1793 -22 1791 -23Q1727 -56 1697 -195H1544Q1530 -195 1449 -240Q1356 -293 1346 -297Q1304 -315 1266 -315Q1236 -315 1221 -305Q1203 -293 1186 -281Q1173 -276 1147 -265Q1119 -251 1061 -170L1045 -168Q1044 -194 1083 -242Q1101 -264 1152.5 -291Q1204 -318 1212.5 -331Q1221 -344 1361 -595L1328 -668Q1264 -579 1107 -466Q1003 -403 898 -339Q771 -260 720 -180Q711 -166 689 -116Q684 -111 677 -105Q498 -255 498 -365Q498 -404 534 -428Q565 -449 606 -449Q633 -449 687.5 -442Q742 -435 769 -435Q780 -435 798 -440Q772 -450 722 -475L737 -489Q754 -485 787 -474Q803 -467 840 -438Q826 -488 754 -525Q697 -553 639 -580Q620 -598 592 -619Q551 -637 527 -637Q504 -637 458 -635.5Q412 -634 389 -634Q376 -634 286 -711Q189 -794 166 -803Q126 -758 126 -757Q126 -752 202 -700Q282 -644 297 -616Q320 -572 313 -540L272 -353Q272 -289 293 -199Q305 -172 329 -118Q334 -105 345 -78Q391 25 507 94Q610 157 733 173Q849 188 826 189Q928 187 961 182Q1022 175 1088 148Q1132 129 1176.5 110.5Q1221 92 1271 92Q1372 92 1467 120Q1684 184 1769 184Q1824 184 1842 182Q1850 181 1896 170Q1946 158 1969 149Q2006 135 2034.5 110.5Q2063 86 2079 49Q2109 -20 2134 -133Q2171 -298 2177 -319Q2210 -436 2221 -593Q2222 -602 2226 -628Q2229 -650 2229 -663ZM399 -658L270 -859Q219 -847 219 -833Q219 -817 291 -737Q305 -722 386 -658ZM599 -535H544Q516 -535 496 -568L509 -581H550Q556 -581 567 -577.5Q578 -574 582 -573Q592 -557 599 -535Z"/>
</svg>