<svg xmlns="http://www.w3.org/2000/svg" viewBox="0 -2048 2048 2048">
	<path fill="currentColor" d="M2246 -683Q2246 -559 2220 -409Q2201 -335 2165 -186Q2134 -44 2124 -12Q2092 98 2049 143Q2027 165 1967 192Q1947 196 1906 206Q1844 224 1802 224Q1681 224 1576 198Q1503 174 1352 139Q1289 130 1299 130Q1214 130 1129 173Q1016 230 841 230Q820 230 787 223Q746 214 733 213Q578 195 440 89Q421 69 384 28Q366 12 336 -24Q327 -45 310 -88Q295 -117 272 -177Q250 -262 250 -335Q250 -334 254 -359Q255 -365 258 -390Q261 -411 275 -471Q287 -520 287 -553Q287 -596 193.5 -658.5Q100 -721 100 -733Q100 -742 160 -807Q180 -802 229 -763L195 -813Q198 -824 210 -840Q248 -867 274 -867Q288 -867 351 -766Q388 -703 426 -641Q542 -641 569 -630Q580 -625 649 -580Q685 -568 756 -537Q804 -512 841 -464Q851 -452 868 -409Q834 -396 839 -396Q834 -396 827 -400.5Q820 -405 819 -405Q810 -405 793.5 -399Q777 -393 768 -393Q772 -393 721 -400Q685 -405 639 -405H619Q525 -405 525 -363Q525 -252 673 -124Q675 -126 676 -130Q721 -246 856 -320Q933 -362 1080 -454Q1249 -575 1290 -636Q1290 -636 1186 -636Q1158 -636 1137 -647Q1127 -652 1102 -692Q1077 -732 1077 -744Q1077 -773 1106 -773Q1116 -773 1121 -768Q1123 -773 1132 -773Q1137 -773 1146.5 -768.5Q1156 -764 1161 -764Q1186 -773 1179 -773Q1192 -773 1224 -740H1259L1129 -1262H1211V-1518H1285V-741Q1292 -740 1306 -739Q1313 -731 1326 -714Q1332 -719 1348 -719L1357 -729Q1340 -756 1324 -782Q1302 -818 1302 -837Q1302 -861 1322.5 -881.5Q1343 -902 1368 -906Q1369 -901 1372 -886Q1376 -888 1383 -888Q1426 -888 1429 -856Q1432 -857 1437 -858Q1459 -858 1466 -839Q1466 -825 1470 -798Q1473 -789 1492.5 -759Q1512 -729 1512 -724Q1512 -711 1477 -676Q1499 -671 1544 -661Q1636 -644 1815 -601Q1841 -593 1847 -544Q1850 -508 1852 -472Q1859 -438 1867 -427.5Q1875 -417 1906 -397Q1991 -344 2046 -286Q2065 -266 2091 -156Q2127 -262 2120 -329L2084 -685Q2084 -685 2084 -699Q2084 -725 2092.5 -736Q2101 -747 2129 -766Q2157 -785 2168 -785Q2179 -785 2196 -776Q2214 -756 2232 -736Q2246 -719 2246 -683ZM1259 -847V-1492H1237V-1236H1163ZM1486 -726Q1486 -734 1458 -773Q1451 -783 1446 -827L1437 -835Q1432 -835 1411 -824Q1403 -835 1403 -843Q1403 -846 1405 -852.5Q1407 -859 1407 -862Q1407 -865 1386 -865Q1384 -865 1372.5 -855.5Q1361 -846 1358 -845L1347 -856V-876Q1345 -875 1337 -870Q1325 -850 1325 -836Q1325 -823 1353 -780Q1371 -751 1390 -722Q1403 -699 1424 -650Q1486 -718 1486 -726ZM1417 -606Q1417 -617 1369 -708L1368 -706Q1382 -669 1408 -593Q1417 -602 1417 -606ZM1386 -578V-594Q1368 -628 1347 -693H1339L1338 -687Q1372 -578 1386 -578ZM1317 -679Q1317 -688 1307.5 -701Q1298 -714 1290 -714Q1284 -714 1271 -712Q1258 -710 1251 -710Q1209 -710 1179 -750Q1170 -750 1167 -735Q1164 -720 1144 -720Q1140 -732 1140 -748H1137Q1138 -745 1138 -740Q1138 -731 1128 -721Q1115 -734 1109 -747H1103L1101 -746Q1101 -744 1100 -742Q1100 -732 1121 -702.5Q1142 -673 1152 -665Q1162 -657 1228.5 -659.5Q1295 -662 1304 -657Q1317 -675 1317 -679ZM1711 -472L1433 -581Q1425 -575 1406 -566H1405Q1397 -551 1375 -556L1235 -314Q1320 -314 1355 -300Q1370 -294 1455 -245Q1534 -200 1540 -200H1686Q1683 -223 1683 -238Q1683 -314 1703 -416Q1711 -458 1711 -472ZM2222 -669Q2222 -706 2213 -720L2209 -554Q2208 -530 2188 -501L2186 -672Q2186 -680 2189 -696.5Q2192 -713 2192 -721Q2192 -762 2169 -762Q2152 -762 2152 -739Q2152 -706 2158 -640.5Q2164 -575 2164 -542Q2164 -533 2147 -517L2129 -736Q2104 -721 2107 -684L2143 -298Q2150 -222 2099 -110Q2097 -106 2084 -93Q2077 -110 2064 -182Q2054 -239 2033 -265Q1995 -313 1897 -377Q1880 -387 1852 -409Q1831 -432 1827 -506Q1823 -573 1808 -578Q1779 -588 1632 -622Q1479 -657 1460 -657Q1458 -657 1446 -643.5Q1434 -630 1434 -627Q1434 -633 1440 -605Q1512 -576 1656 -518Q1680 -511 1725 -492Q1734 -487 1734 -480Q1734 -473 1734 -473L1704 -228Q1701 -200 1726 -120Q1735 -92 1758 -59Q1774 -44 1802 -10Q1794 -2 1789 -2Q1725 -29 1691 -173H1543Q1529 -173 1529 -181Q1504 -193 1453 -217Q1418 -241 1348 -278Q1313 -291 1243 -291Q1214 -291 1136 -242Q1111 -226 1088 -195Q1057 -154 1046 -143Q1038 -151 1038 -157Q1038 -161 1038 -161Q1049 -197 1094 -235Q1134 -269 1174 -284Q1195 -292 1206 -308Q1238 -357 1356 -574L1327 -647Q1253 -548 1101 -440Q1038 -402 913 -327Q754 -231 716 -160Q705 -134 673 -93Q499 -238 499 -362Q499 -389 534 -411Q565 -431 593 -431H676Q691 -431 722 -423.5Q753 -416 768 -416Q771 -416 798 -423Q772 -431 722 -448Q722 -458 732 -467Q779 -459 787.5 -455.5Q796 -452 836 -422Q834 -431 825 -448Q783 -496 740 -518Q708 -527 647 -554Q620 -578 539 -615Q531 -617 470 -617Q433 -617 386 -618L166 -781Q126 -737 126 -735Q127 -734 128 -733Q178 -698 271 -630Q312 -598 312 -538Q312 -532 300 -479Q273 -360 273 -335Q273 -267 292 -189Q303 -162 326 -109Q334 -83 357 -35Q491 162 731 190Q741 191 779 200Q812 207 824 207Q920 205 940 203Q1012 197 1056 179Q1115 154 1174 128Q1233 107 1302 107Q1287 107 1351 116Q1396 122 1466 143Q1555 170 1580 176Q1687 201 1796 201Q1882 201 1952 173Q2017 147 2031 130Q2083 66 2108 -28Q2127 -115 2145 -201Q2165 -270 2197 -411Q2222 -558 2222 -669ZM398 -641L273 -842Q222 -828 222 -816Q222 -794 282 -727Q296 -712 335 -678Q379 -640 389 -640Q392 -640 398 -641ZM598 -525Q577 -513 540 -513Q512 -513 501 -547Q527 -560 547 -560Q574 -560 598 -525Z"/>
</svg>