<svg xmlns="http://www.w3.org/2000/svg" viewBox="0 -2048 2048 2048">
	<path fill="#000000" d="M2061 -403Q2061 -237 1912 -103.5Q1763 30 1559 50Q1437 62 1263 62Q903 62 634 -24Q193 -166 193 -503Q193 -585 218 -670Q252 -785 252 -791Q252 -828 197 -886Q148 -932 100 -978Q109 -1007 171 -1046Q179 -1046 183 -1043.5Q187 -1041 189 -1041Q194 -1051 206 -1066Q249 -1090 271 -1090Q290 -1090 353 -947Q362 -917 393 -868Q417 -864 468 -854Q508 -846 544 -827Q573 -812 657 -743Q763 -656 763 -621V-596Q663 -594 624 -602Q490 -628 510 -628Q443 -628 443 -563Q443 -526 478 -464Q552 -333 701 -294Q829 -272 957 -249Q984 -242 1032 -238Q1045 -237 1123 -237Q1125 -244 1131 -257Q1151 -464 1209 -986Q1271 -980 1278 -986L1257 -742Q1257 -718 1285.5 -714.5Q1314 -711 1344 -708L1165 -226H1488Q1510 -230 1553 -235Q1671 -243 1758 -295Q1866 -360 1866 -465Q1866 -556 1758 -596Q1679 -618 1600 -640V-657Q1600 -692 1666 -717Q1719 -737 1760 -737Q1889 -737 1979 -627Q2061 -526 2061 -403ZM1306 -692Q1314 -690 1255 -690Q1230 -690 1230 -718L1251 -959H1231L1167 -308ZM2040 -400Q2040 -504 1968 -600Q1885 -710 1765 -710Q1728 -710 1686 -695Q1636 -677 1627 -651Q1685 -640 1797 -610Q1819 -602 1855 -554Q1893 -503 1893 -473Q1893 -451 1873 -393Q1842 -303 1786 -276Q1655 -212 1478 -201Q1323 -200 1169 -199L1162 -204Q1149 -177 1135 -177Q1125 -177 1121 -181Q1121 -187 1123.5 -197Q1126 -207 1126 -209Q1091 -209 1000 -217Q948 -222 929 -227Q802 -253 675 -278Q527 -322 457 -458Q415 -539 415 -568Q415 -600 446 -627.5Q477 -655 510 -655Q515 -655 587 -642Q664 -627 698 -624Q683 -636 643 -649V-667Q649 -668 655 -668Q673 -668 694 -657Q712 -647 730 -637Q717 -674 655 -710Q572 -759 572 -759Q499 -825 451 -832Q404 -832 344 -841Q308 -864 254 -924Q169 -1018 168 -1019Q139 -992 133 -978Q179 -944 224 -892Q280 -826 280 -786Q280 -779 264 -725Q245 -660 240 -637Q220 -548 220 -495Q220 -176 656 -41Q919 40 1263 40Q1431 40 1532 28Q1596 20 1668 1Q1818 -39 1942 -173Q2040 -279 2040 -400ZM360 -868L273 -1062Q242 -1053 226 -1045Q238 -1006 282.5 -945.5Q327 -885 360 -868ZM529 -733Q529 -726 516 -726Q482 -726 443 -755Q443 -780 467 -780Q517 -780 527 -746Q529 -738 529 -733Z"/>
</svg>