<svg xmlns="http://www.w3.org/2000/svg" viewBox="0 -2048 2048 2048">
	<path fill="#000000" d="M1956 -116Q1956 -1 1908 42Q1865 80 1756 80L1408 64Q1402 64 1376.5 75Q1351 86 1344 86Q1339 86 1325 78Q1311 70 1304 70Q1297 70 1285.5 80.5Q1274 91 1267 91Q1273 91 1174 58Q1179 32 1201 -12Q1198 -16 1194 -14Q1131 11 1068 36Q994 64 937 64Q931 64 889 56Q847 48 841 48Q836 48 810.5 67Q785 86 778 86L312 64Q308 64 285.5 77.5Q263 91 256 91Q250 91 238 80.5Q226 70 219 70Q212 70 191 75Q170 80 163 80Q157 80 140 69Q117 54 100 47Q102 13 130.5 -17Q159 -47 190 -47Q195 -47 247.5 -31Q300 -15 310 -15L628 -42Q637 -51 637 -53Q637 -59 627.5 -74Q618 -89 617 -97Q610 -153 610 -162Q610 -207 626 -243Q642 -279 642 -313Q642 -370 618 -399H550Q510 -316 491 -260Q471 -277 429 -310Q458 -350 509 -427L451 -529Q471 -558 504 -623Q438 -642 447 -678Q452 -694 460 -735Q440 -743 440 -763Q440 -792 482 -792Q510 -792 544 -739Q576 -781 605 -795Q600 -833 584 -923H786Q745 -978 704 -1032Q626 -1140 626 -1172Q626 -1223 682 -1223Q697 -1223 714.5 -1208Q732 -1193 732 -1177Q732 -1159 708 -1137Q705 -1140 699 -1143.5Q693 -1147 690 -1150Q703 -1170 703 -1184Q703 -1201 682 -1201Q653 -1201 653 -1169Q653 -1143 727 -1041Q789 -955 814 -930L877 -1222H923L844 -774Q891 -677 918 -533Q940 -415 970 -382Q1017 -329 1153 -329Q1217 -329 1250 -336Q1357 -359 1412 -376Q1422 -431 1452 -492Q1463 -513 1550 -564.5Q1637 -616 1668 -616Q1714 -616 1769 -577Q1763 -544 1723 -523Q1691 -505 1666 -505Q1660 -505 1635.5 -510Q1611 -515 1605 -515Q1548 -515 1492 -408Q1635 -435 1652 -435Q1805 -435 1885 -338Q1956 -253 1956 -116ZM1934 -119Q1934 -246 1858 -328Q1778 -414 1644 -414Q1575 -414 1483 -371Q1489 -279 1517 -217Q1525 -248 1562 -275.5Q1599 -303 1623 -303Q1648 -303 1663 -289V-274L1660 -271Q1638 -276 1620 -276Q1590 -276 1562.5 -242.5Q1535 -209 1535 -170Q1535 -116 1632 -61Q1721 -10 1785 -10Q1792 -10 1809 -12.5Q1826 -15 1833 -15Q1843 -15 1849 2Q1819 17 1788 17Q1699 17 1614 -42Q1519 -107 1491 -210Q1456 -336 1456 -364Q1456 -408 1497 -471Q1544 -542 1597 -542Q1603 -542 1631.5 -536.5Q1660 -531 1666 -531Q1716 -531 1737 -572Q1701 -590 1671 -590Q1642 -590 1577 -556Q1518 -524 1494 -502Q1455 -466 1446 -423Q1434 -369 1434 -297Q1434 -167 1548 -54Q1662 59 1801 59Q1868 59 1904 -1Q1934 -50 1934 -119ZM862 -989V-1009H853V-989ZM857 -958V-982H847V-958ZM847 -957Q843 -934 829 -892H616Q622 -856 622 -803Q710 -813 714 -813Q774 -813 821 -787ZM1524 -38Q1511 -84 1453 -84Q1375 -84 1227 -28Q1278 -31 1270 -31Q1276 -31 1321.5 -23Q1367 -15 1373 -15Q1380 -15 1438 -25Q1504 -36 1524 -38ZM1663 52Q1649 44 1597 8Q1556 -21 1549 -21Q1542 -21 1454.5 -5Q1367 11 1360 11Q1353 11 1312 0.5Q1271 -10 1264 -10Q1253 -10 1232.5 2.5Q1212 15 1212 26Q1228 26 1229 54Q1238 33 1245 32Q1250 34 1260 41V59Q1264 57 1275.5 47.5Q1287 38 1293 38Q1299 38 1319 48.5Q1339 59 1347 59Q1356 59 1368 51Q1380 43 1384 43ZM918 -409Q895 -527 872 -644Q828 -786 703 -786Q636 -786 602 -760Q564 -732 536 -649H702Q714 -649 734.5 -636.5Q755 -624 756.5 -614Q758 -604 758 -593Q758 -574 751 -537.5Q744 -501 744 -484Q744 -439 782 -409ZM494 -760L473 -767V-759L491 -753ZM1222 -20L1219 -28L1207 -21V-14ZM518 -743Q472 -697 472 -685Q472 -666 492 -659Q500 -697 518 -743ZM1476 -109Q1408 -228 1408 -313Q1408 -335 1413 -344H1390Q1391 -343 1291 -324Q1184 -303 1147 -303Q982 -303 938 -382H778Q762 -382 740 -421Q718 -460 716 -481Q714 -506 721 -545Q729 -596 730 -603Q728 -622 621 -622Q551 -622 531 -619Q482 -527 482 -529Q482 -520 542 -427Q578 -427 633 -418Q652 -408 662.5 -373.5Q673 -339 669 -319Q675 -321 713 -340Q723 -321 722 -317Q637 -270 637 -164Q637 -108 674 -25L336 6Q280 6 240.5 -7.5Q201 -21 193 -21Q171 -21 137 15Q159 14 163 19Q159 23 159 42Q161 42 167.5 37.5Q174 33 182 33Q199 33 197 54Q213 38 230 38Q237 38 247 48.5Q257 59 264 59Q271 59 283 52.5Q295 46 299 45Q315 43 376 43L756 59Q801 59 815 37Q826 5 847 -53Q850 -50 856 -48.5Q862 -47 865 -44Q856 10 850 26Q903 38 937 38Q1006 38 1179 -36.5Q1352 -111 1438 -111Q1470 -111 1476 -109ZM513 -382Q484 -343 461 -316L475 -303Q489 -321 513 -382ZM610 -544Q604 -537 604 -532Q580 -538 536 -560Q550 -584 568 -584Q581 -584 595 -574Q612 -561 610 -544Z"/>
</svg>