<svg xmlns="http://www.w3.org/2000/svg" viewBox="0 -2048 2048 2048">
	<path fill="#000000" d="M2002 -665Q2002 -369 1724 -262Q1737 -241 1759 -200Q1863 55 1863 174Q1863 340 1740 340L1091 313Q1085 313 1057.5 326.5Q1030 340 1024 340Q1007 340 970 303Q927 335 906 335Q899 335 870 326Q837 315 824 312V295Q823 263 846 224Q875 174 957 174Q996 174 1020.5 193Q1045 212 1070 212L1526 176Q1462 137 1399 97Q1323 48 1291 -21Q1289 -57 1267 -116Q1263 -120 1168 -144Q950 -199 935 -203Q797 -242 709 -292Q681 -251 670 -167Q652 -39 650 -32Q614 117 614 166Q614 183 616 198Q629 280 628 284Q626 293 597.5 316.5Q569 340 558 340Q551 340 534 329.5Q517 319 510 319Q504 319 483 340Q472 329 456 329Q450 329 445 332Q440 335 432 335Q413 335 392 303Q388 308 388 313Q346 304 346 281Q346 300 353 226Q398 190 408 190Q415 190 440 198Q465 206 472 206Q502 206 502 193Q502 188 494 175Q486 162 486 155V-412Q486 -408 436 -502Q383 -602 369 -680Q366 -698 370 -758Q374 -807 368 -807Q361 -807 360 -804.5Q359 -802 352 -802Q326 -802 325 -858Q325 -925 350 -998Q354 -1010 373 -1044Q389 -1074 389 -1080Q389 -1102 333 -1143Q302 -1164 272 -1184Q245 -1215 189 -1279Q188 -1281 100 -1339Q105 -1352 122 -1374Q145 -1384 186 -1408Q213 -1438 267 -1485Q350 -1536 451 -1536Q543 -1536 581 -1517Q714 -1450 780 -1308Q817 -1226 848 -1062Q849 -994 862 -869Q863 -867 941 -763Q1023 -655 1140 -599Q1210 -565 1348 -532Q1480 -501 1535 -472Q1540 -470 1618 -405Q1675 -357 1721 -357Q1762 -357 1812 -393Q1859 -428 1883 -473Q1922 -546 1922 -649Q1922 -719 1890 -794Q1854 -879 1795 -923Q1772 -940 1709 -952Q1628 -968 1608 -975Q1593 -980 1562 -1009Q1531 -1038 1526 -1056V-1074Q1586 -1091 1641 -1091Q1784 -1091 1899 -934Q2002 -794 2002 -665ZM838 -909V-971Q836 -949 819 -1078Q799 -1229 718 -1354Q618 -1509 482 -1508H459Q499 -1487 521 -1435Q539 -1394 539 -1359Q539 -1326 516 -1267Q502 -1234 489 -1201Q454 -1137 419 -1072Q352 -947 352 -900V-840Q355 -840 364.5 -837Q374 -834 377 -834Q402 -951 472 -1018Q538 -1080 622 -1080Q758 -1080 838 -909ZM512 -1370Q512 -1430 483 -1458Q429 -1509 384 -1509Q367 -1509 332 -1496Q310 -1488 270 -1449Q217 -1399 208 -1392Q192 -1384 159 -1366Q177 -1369 191 -1346Q179 -1335 153 -1335Q186 -1324 218 -1282Q261 -1225 267 -1220Q301 -1201 363 -1159Q389 -1138 408 -1107Q441 -1168 475 -1229Q512 -1303 512 -1370ZM1976 -665Q1976 -787 1883 -919Q1777 -1070 1635 -1070Q1610 -1070 1558 -1057Q1595 -1003 1671 -987Q1774 -965 1800 -950Q1870 -910 1915 -793Q1949 -705 1949 -649Q1949 -551 1893 -454Q1825 -335 1718 -335Q1668 -335 1603 -388Q1524 -453 1486 -467Q1436 -485 1357 -502Q1247 -524 1229 -529Q1159 -547 1069 -604Q968 -668 876 -809Q756 -993 721 -1031Q716 -1036 680 -1047.5Q644 -1059 630 -1059Q576 -1059 510 -1014Q438 -964 423 -901Q394 -776 394 -729Q394 -626 483 -467Q486 -504 492 -568Q498 -626 535 -755Q538 -759 546 -759L555 -750Q512 -564 512 -546V155Q512 147 534 213Q504 228 478 228Q471 228 448 222.5Q425 217 419 217Q373 217 373 265Q373 277 382 286Q382 255 388 243Q396 243 405 252Q395 286 431 313Q431 274 436 259H449Q460 286 459 302H479Q485 292 505 281H519Q533 308 547 308Q556 308 580 294Q609 276 609 260Q609 253 598 206Q587 159 587 153Q587 147 604 80Q623 4 628 -27Q638 -110 653 -219Q662 -258 693 -316Q733 -393 741 -412Q745 -422 774 -523L797 -519V-505Q797 -482 765.5 -405.5Q734 -329 721 -316Q823 -255 982 -213Q1127 -181 1272 -148Q1312 -240 1351 -260L1365 -247Q1341 -213 1317 -179Q1295 -142 1295 -107Q1295 -15 1386 57Q1483 119 1580 181Q1585 184 1585 192L1575 201L1051 238Q1049 238 1022 219.5Q995 201 963 201Q923 201 892 221Q853 246 857 292Q861 284 870 270H884L893 279Q889 283 889 302Q905 286 913 270Q922 274 936 284Q931 289 931 296Q971 276 968 276Q975 276 996.5 294.5Q1018 313 1024 313Q1029 313 1064 297Q1099 281 1105 281L1764 308Q1796 300 1820 256Q1842 215 1842 174Q1842 90 1776 -77Q1734 -180 1691 -284Q1976 -341 1976 -665ZM351 -1415Q351 -1386 317 -1386Q287 -1386 287 -1415Q287 -1424 300 -1450Q317 -1447 351 -1433Z"/>
</svg>