<svg xmlns="http://www.w3.org/2000/svg" viewBox="18.6 -1629.4 2196.7 1960.7">
	<path fill="currentColor" d="M2134 -138Q2134 -127 2120 -127Q2097 -127 2056 -163Q2031 -185 1997 -238Q1981 -262 1896 -497Q1851 -479 1837 -420L1848 -419Q1858 -400 1858 -388Q1858 -352 1833 -353L1888 182Q1900 184 1922 183V250H370V183H401L467 -355H446Q437 -372 437 -386Q437 -389 441 -411L457 -419Q449 -454 430 -472Q422 -479 380 -506Q379 -514 379 -521Q379 -536 382 -546Q375 -569 375 -569Q375 -608 401 -622Q344 -729 287 -833Q265 -833 251.5 -850.5Q238 -868 230 -868Q224 -868 215.5 -859Q207 -850 201 -850Q181 -850 181 -871Q181 -880 205 -909Q192 -942 165 -1009Q151 -1043 100 -1113Q114 -1135 178 -1164Q235 -1072 313 -972Q318 -970 367 -971Q367 -934 335 -932Q331 -929 331 -923Q331 -916 335 -903Q339 -890 339 -883Q339 -878 332 -869Q325 -860 325 -858Q325 -851 453 -640Q490 -630 538 -621L852 -669Q852 -713 822 -740.5Q792 -768 763 -794Q758 -805 748 -826Q716 -884 690 -989Q686 -1026 665 -1094Q652 -1115 608 -1123Q573 -1127 539 -1131Q517 -1138 471 -1151Q453 -1153 418 -1162Q405 -1183 373 -1217V-1247Q422 -1250 518 -1265Q534 -1269 573 -1311Q600 -1340 617 -1344Q646 -1350 650 -1352Q682 -1369 681 -1548Q726 -1502 745 -1414Q761 -1473 770 -1544Q824 -1465 824 -1399Q824 -1381 813 -1355Q798 -1319 796 -1312Q836 -1288 871 -1182Q920 -1037 924 -1029Q941 -996 978 -984Q1010 -974 1103 -971L1741 -1477L1762 -1470L1866 -1027H1839L1826 -1080H1792L1795 -1027H1769L1766 -1080H1725L1719 -1027H1693L1736 -1439L1146 -972Q1158 -972 1244 -986Q1494 -1027 1544 -1027Q1821 -1027 2003 -609Q2134 -308 2134 -138ZM1820 -1106L1756 -1381L1727 -1106ZM1881 -551Q1843 -667 1834 -691Q1805 -769 1772 -824V-813Q1772 -747 1790 -694Q1793 -684 1817 -643Q1836 -610 1836 -592Q1836 -590 1829 -551ZM735 -1362Q735 -1416 705 -1476Q705 -1398 680 -1352Q695 -1351 723 -1339Q735 -1358 735 -1362ZM2108 -159V-167Q2108 -237 2054 -389Q2033 -459 1984 -595Q1868 -863 1705 -967Q1647 -1004 1541 -1004Q1468 -1004 1325.5 -976Q1183 -948 1110 -948Q942 -948 915 -1001Q908 -1014 858 -1158Q822 -1260 781 -1294Q771 -1284 761 -1279Q754 -1285 754 -1292Q800 -1350 800 -1403Q800 -1450 784 -1478Q784 -1476 770 -1432Q761 -1396 752 -1360Q743 -1324 716 -1288L701 -1286V-1299Q707 -1312 715 -1326Q707 -1326 690 -1328Q673 -1330 664 -1330Q622 -1330 576 -1284Q530 -1238 505 -1238Q502 -1238 496 -1239.5Q490 -1241 487 -1241Q504 -1241 399 -1229V-1224Q414 -1210 473 -1210Q498 -1210 529 -1192Q485 -1185 434 -1185Q473 -1168 545 -1154Q583 -1148 620 -1142Q672 -1131 683 -1110Q694 -1089 710 -1022Q735 -918 753 -874Q785 -796 841 -750Q847 -802 871 -904L885 -888Q863 -778 863 -745Q863 -727 868 -699Q875 -664 876 -653Q787 -638 609 -609Q542 -598 535 -598Q523 -598 499 -607Q475 -616 461 -616Q399 -616 399 -569Q399 -562 401 -559H403Q401 -580 401 -575Q401 -592 424 -594Q440 -559 436 -559Q437 -559 439 -560Q439 -578 451 -589Q461 -573 479 -556Q498 -575 507 -575Q511 -575 524 -567Q537 -559 553 -559Q600 -559 694 -567.5Q788 -576 835 -576Q862 -576 915 -567.5Q968 -559 994 -559Q1046 -559 1046 -655Q1046 -664 1041.5 -681Q1037 -698 1037 -707V-827Q1045 -837 1057 -836Q1063 -830 1063 -816Q1063 -789 1061 -719H1107Q1103 -719 1137 -727Q1154 -731 1420 -819Q1403 -880 1403 -889Q1403 -894 1412 -901Q1428 -886 1441 -837Q1455 -785 1469 -767Q1492 -737 1545 -703Q1609 -663 1627 -646L1614 -635L1361 -591Q1321 -607 1272 -607Q1256 -607 1224 -590L1221 -563Q1227 -575 1250 -587Q1254 -574 1250 -556L1257 -563Q1255 -578 1268 -588Q1277 -575 1283 -559H1290L1307 -574Q1324 -556 1330 -556L1547 -566Q1677 -572 1655 -572Q1677 -572 1721 -562.5Q1765 -553 1783 -553Q1813 -553 1813 -591Q1813 -603 1780.5 -664Q1748 -725 1748 -861Q1748 -875 1761 -881Q1820 -806 1857 -699Q1889 -601 1920 -503Q1948 -424 1975 -346Q2010 -257 2055 -200Q2070 -182 2108 -159ZM1579 -653Q1447 -734 1429 -797H1425Q1433 -797 1254 -736Q1139 -697 1066 -695Q1070 -678 1070 -654Q1070 -591 1037 -551H1197Q1196 -556 1196 -564Q1196 -591 1211 -608Q1217 -614 1243.5 -623.5Q1270 -633 1280 -633Q1300 -633 1363 -615ZM1888 -532H411L422 -519ZM1853 -498H437Q470 -472 481 -421H1814Q1814 -459 1853 -498ZM1834 -381V-394H462V-381ZM284 -968Q253 -1003 170 -1137Q155 -1130 129 -1111Q157 -1076 219 -928Q240 -950 284 -968ZM1864 182L1810 -354H488L427 182H967V-67H1267V182ZM318 -946H315Q312 -946 304.5 -947Q297 -948 294 -948Q263 -948 223 -895Q245 -895 257.5 -878Q270 -861 282 -861Q316 -861 316 -892Q316 -898 312 -908.5Q308 -919 308 -925Q308 -937 318 -946ZM428 -636L311 -839L420 -633ZM1243 182V-41H990V182ZM1895 225V206H396V225ZM666 -1266Q666 -1241 639 -1241Q617 -1241 612 -1274L623 -1285H658Q666 -1277 666 -1266Z"/>
</svg>