<svg xmlns="http://www.w3.org/2000/svg" viewBox="0 -2048 2048 2048">
	<path fill="currentColor" d="M1910 -72Q1910 -45 1900 -41Q1800 -76 1755 -203L1663 -463Q1612 -432 1581 -387L1587 -322H1550L1687 346L100 350L219 -322H198V-328H188Q190 -343 190 -350Q190 -391 168 -423Q156 -440 106 -469Q112 -475 112 -484Q112 -488 109 -495.5Q106 -503 106 -506Q106 -535 134 -557.5Q162 -580 192 -580Q234 -580 268 -559L596 -611Q589 -635 589 -654Q520 -718 493 -763Q466 -808 446 -897Q433 -961 403 -1053Q392 -1071 262.5 -1099Q133 -1127 125 -1155L129 -1159Q106 -1171 106 -1198Q106 -1216 127 -1221Q166 -1231 239 -1231Q251 -1231 304.5 -1274Q358 -1317 393 -1323Q426 -1402 422 -1512Q434 -1512 442 -1518Q472 -1463 489 -1397Q510 -1468 508 -1508L528 -1514Q567 -1448 567 -1395Q567 -1344 540 -1286Q585 -1245 671 -989Q683 -954 763 -934L1194 -1439L1586 -1151L1570 -1130L1521 -1166L1487 -1137L1527 -1095L1509 -1077L1468 -1119L1433 -1090L1466 -1041L1445 -1026L1193 -1397L793 -929Q802 -929 821.5 -927.5Q841 -926 851 -926Q887 -926 923 -932Q1017 -949 1112 -966Q1222 -985 1302 -985Q1663 -985 1869 -271Q1910 -129 1910 -72ZM1500 -1182L1243 -1371L1418 -1112ZM1654 -490Q1606 -639 1542 -772Q1547 -710 1552 -690Q1558 -660 1580 -612Q1609 -547 1609 -524Q1609 -506 1597 -490ZM471 -1340Q471 -1394 448 -1448Q444 -1387 419 -1325Q433 -1323 462 -1317Q471 -1328 471 -1340ZM1886 -76Q1886 -111 1859 -215Q1793 -471 1699 -651Q1557 -921 1380 -955Q1348 -961 1306 -961Q1233 -961 1090 -931Q947 -901 874 -901Q677 -901 643 -993Q629 -1040 598 -1133Q559 -1237 526 -1264L508 -1247L491 -1264Q542 -1303 542 -1393Q542 -1435 528 -1450Q496 -1309 458 -1252L436 -1264L454 -1292Q423 -1301 405 -1301Q371 -1301 323.5 -1254.5Q276 -1208 210 -1203Q178 -1202 131 -1190Q139 -1177 247 -1178V-1153H161Q177 -1140 294 -1118Q404 -1097 418 -1077Q432 -1057 446 -991Q493 -768 585 -694Q591 -761 608 -846L632 -842Q610 -736 610 -682Q610 -662 624 -590L264 -535Q236 -555 192 -555Q173 -555 152 -540.5Q131 -526 131 -508Q131 -510 135 -496H139V-524H163V-500L170 -496L176 -498V-516H200V-500L213 -492L241 -512Q261 -492 286 -492Q318 -492 380.5 -498Q443 -504 475 -504Q519 -504 606 -499Q693 -494 737 -494Q758 -494 771 -499Q777 -501 788 -544Q798 -584 798 -596Q798 -622 796 -637H790Q790 -640 792 -648Q794 -656 794 -660Q794 -670 791 -688.5Q788 -707 788 -717Q788 -726 789 -746.5Q790 -767 790 -778H815Q814 -750 814 -738Q814 -712 819 -660Q879 -660 1001 -701Q1092 -735 1183 -768Q1167 -793 1163 -842L1187 -846Q1201 -749 1254 -690Q1289 -650 1390 -588L1388 -574Q1222 -531 1116 -531Q1102 -531 1075 -540Q1048 -549 1034 -549Q1013 -549 992.5 -533Q972 -517 972 -496Q983 -506 991 -527Q1004 -515 1020 -515Q1027 -515 1036 -518L1044 -494L1063 -508L1067 -502L1071 -506L1083 -492Q1106 -500 1243 -500Q1293 -500 1393.5 -495Q1494 -490 1544 -490Q1585 -490 1585 -524Q1585 -538 1551 -627Q1517 -716 1517 -766Q1517 -805 1519 -826L1530 -824L1540 -830Q1586 -754 1683 -479L1777 -211Q1819 -91 1886 -76ZM1343 -588Q1235 -647 1192 -746Q1100 -711 1009 -677Q893 -637 821 -635Q823 -623 823 -604V-578Q823 -527 794 -490H946Q956 -574 1036 -574Q1044 -574 1118 -555Q1212 -571 1343 -588ZM1624 -465H159Q209 -428 215 -346H1560Q1554 -362 1554 -377Q1554 -410 1624 -465ZM1656 321L1525 -322H245L131 321H786V22H1048V321ZM1024 321V47H811V321ZM407 -1217L374 -1204Q353 -1221 346 -1233L362 -1256L397 -1254Q407 -1238 407 -1217Z"/>
</svg>