<svg xmlns="http://www.w3.org/2000/svg" viewBox="0 -2048 2048 2048">
	<path fill="currentColor" d="M2184 -391Q2184 -345 2138 -314Q2102 -289 2069 -289Q2064 -289 2021 -302Q1978 -315 1970 -315Q1972 -315 1922 -310Q1877 -306 1853 -308Q1832 -301 1827 -198Q1825 -164 1777 -112Q1700 -29 1698 -26Q1751 -13 1820 18Q1939 70 1939 118Q1939 207 1855 207Q1849 207 1800.5 201.5Q1752 196 1747 196H1613Q1606 196 1571 193.5Q1536 191 1529 191Q1467 191 1451 193Q1444 194 1421.5 200.5Q1399 207 1392 207H1334Q1334 195 1328 189Q1349 166 1369 143Q1409 102 1429 102Q1436 102 1437 105Q1438 108 1445 108Q1451 108 1463 97.5Q1475 87 1482 87Q1486 87 1519 93Q1552 99 1573 99Q1555 92 1500 66Q1455 45 1448 45Q1443 45 1414 56Q1381 68 1367 70Q1267 87 1176 87Q1170 87 1163.5 79Q1157 71 1150 71Q1143 71 1100.5 73.5Q1058 76 1051 76Q974 76 896 65Q889 64 866.5 54.5Q844 45 839 45Q833 45 821 55Q806 66 798 70Q783 77 701 100Q720 103 756 98Q797 92 797 92Q803 92 817 100Q831 108 837 108Q844 108 846 105Q848 102 855 102Q883 102 957 194Q951 202 951 207H892Q886 207 866 201Q843 194 834 193Q813 191 758 191L416 207Q351 207 351 118Q351 45 499 2Q529 -7 591 -31Q515 -75 482 -164Q431 -300 425 -309Q405 -307 362 -311Q313 -315 314 -315Q308 -315 267 -302Q226 -289 220 -289Q212 -289 166 -308Q117 -329 112 -338Q100 -361 100 -407Q100 -421 272 -579Q157 -657 157 -739Q157 -761 182 -822Q204 -878 216 -895H235Q220 -774 220 -765Q220 -733 245.5 -696.5Q271 -660 302 -651Q329 -643 401 -637Q405 -637 419 -630.5Q433 -624 439 -624Q446 -624 461 -639Q522 -691 547 -820Q548 -837 568 -869Q591 -825 591 -775Q591 -681 533 -606Q554 -600 596 -601Q590 -595 601 -584Q586 -571 580 -559L1095 -430Q1115 -434 1134 -434Q1153 -434 1173 -430L1709 -559Q1704 -566 1694 -578V-602Q1725 -599 1751 -606Q1698 -692 1698 -780Q1698 -821 1715 -868H1735Q1727 -834 1762 -736Q1801 -624 1853 -624Q1902 -624 1982 -646Q1999 -651 2032.5 -682.5Q2066 -714 2067 -731Q2069 -760 2065 -814Q2060 -876 2060 -900Q2082 -896 2105 -841Q2127 -791 2127 -762Q2127 -639 2012 -579Q2069 -530 2126.5 -479.5Q2184 -429 2184 -391ZM2101 -754Q2101 -766 2087 -822Q2087 -809 2090.5 -777Q2094 -745 2094 -736Q2095 -706 2052 -667Q2013 -630 1981 -623Q1981 -616 1999 -598Q2101 -661 2101 -754ZM2158 -407Q2106 -463 1954 -605Q1945 -613 1918 -613Q1911 -613 1892 -610Q1873 -607 1866 -607Q1866 -574 1867 -576H1854Q1821 -604 1772 -654Q1749 -686 1722 -778Q1722 -633 1829 -578V-544Q1823 -540 1811 -530Q1803 -548 1779 -566Q1755 -584 1737 -584Q1730 -584 1725 -580Q1741 -557 1762 -546.5Q1783 -536 1803 -526Q1803 -520 1801 -512.5Q1799 -505 1799 -503Q1786 -507 1751 -523Q1724 -535 1717 -535Q1705 -535 1633 -516.5Q1561 -498 1434 -465Q1370 -445 1307 -426Q1231 -404 1184 -404Q1100 -404 1100 -404L578 -535Q565 -532 531.5 -518Q498 -504 492 -504Q481 -504 481 -524Q481 -531 502 -537Q529 -544 535 -547Q547 -554 559 -581H520Q496 -562 477 -536Q472 -535 469 -535L460 -544V-578Q515 -607 543 -670Q565 -723 562 -775Q568 -705 432 -571Q429 -574 422.5 -575.5Q416 -577 413 -580Q424 -601 417 -608Q409 -609 394 -611Q379 -613 372 -613Q339 -613 325 -600Q237 -518 126 -407Q132 -400 168 -371Q211 -336 225 -336Q221 -336 253 -352Q264 -331 272 -331H395Q446 -331 525 -394L539 -380Q531 -363 502 -341.5Q473 -320 461 -320Q480 -252 499 -184Q526 -103 600 -57Q600 -79 594.5 -124Q589 -169 589 -191Q589 -227 600 -253H613L622 -244Q612 -215 612 -179Q612 -148 621 -98Q632 -39 633 -21Q552 8 394 73Q377 81 377 121Q377 165 406 176Q418 181 463 181Q511 181 619 173Q727 165 776 165Q817 165 847 169Q843 165 821 135Q805 113 797 113Q790 113 768 119Q743 126 734 127Q648 137 544 133V111Q545 110 551 104Q632 94 720 73Q794 55 808 39Q814 32 830 -49H843L852 -41Q849 -19 842 17Q907 55 1061 55Q1068 55 1102 52.5Q1136 50 1142 50Q1148 50 1173.5 55.5Q1199 61 1205 61Q1284 61 1447 18Q1437 -22 1437 -45Q1439 -45 1440.5 -47Q1442 -49 1450 -49Q1459 -49 1464 -15Q1470 23 1470 23Q1484 43 1523 57Q1587 79 1746 112V124Q1702 134 1675 134Q1668 134 1591.5 126Q1515 118 1508 118Q1483 118 1476 131Q1461 156 1443 169H1737Q1741 169 1790 175Q1835 181 1842 181Q1913 181 1913 121Q1913 73 1759 18Q1721 5 1651 -22Q1679 -142 1670 -204Q1665 -237 1671 -253H1684Q1698 -204 1698 -154Q1698 -135 1684 -60Q1765 -103 1793 -190Q1809 -254 1824 -319Q1781 -331 1751 -380Q1765 -394 1768 -394Q1823 -331 1889 -331H2009Q2016 -331 2024 -341Q2032 -351 2035 -352Q2051 -336 2062 -336Q2072 -336 2121 -371Q2122 -371 2074 -387V-405L2108 -410Q2122 -407 2124 -392Q2123 -382 2123 -373Q2149 -385 2158 -407ZM1416 155H1386Q1386 162 1370 180H1394Q1416 160 1416 155ZM308 -609L303 -619Q264 -634 229.5 -679.5Q195 -725 195 -764Q195 -773 197 -780Q184 -741 184 -733Q184 -722 190 -699Q194 -684 226 -647Q264 -603 288 -603Q296 -603 301 -606Q306 -609 308 -609ZM914 180Q914 170 898 155H874Q874 165 890 180ZM1948 -487Q1948 -484 1945.5 -475Q1943 -466 1943 -463Q1938 -463 1927.5 -465Q1917 -467 1910 -467Q1902 -467 1898.5 -462Q1895 -457 1893 -457Q1893 -463 1881 -475Q1886 -477 1926 -504Q1943 -487 1948 -487ZM403 -481Q403 -472 399.5 -465Q396 -458 396 -457Q381 -459 350 -467Q337 -467 342 -486Q350 -497 357 -501Q354 -504 366 -504Q374 -504 385 -494Q401 -482 403 -481ZM214 -404Q214 -398 204.5 -388Q195 -378 193 -374H169V-404Z"/>
</svg>