<svg xmlns="http://www.w3.org/2000/svg" viewBox="0 -2048 2048 2048">
	<path fill="currentColor" d="M1950 -1163Q1950 -1058 1880 -862Q1814 -681 1761 -608Q1723 -563 1687 -519Q1651 -475 1651 -432Q1651 -370 1693 -267Q1719 -211 1746 -155Q1780 -81 1780 -40Q1780 -40 1771 70Q1762 183 1761 237Q1693 301 1639 301Q1555 301 1555 262Q1555 230 1600 206Q1630 192 1661 178Q1668 170 1668 135Q1668 45 1654 -23Q1643 -74 1625 -105Q1622 -99 1627 -87Q1634 -72 1634 -66Q1634 -62 1490 260Q1458 265 1380 301L1366 290Q1355 301 1349 301Q1343 301 1335.5 295.5Q1328 290 1321 290Q1303 290 1298 295Q1278 249 1278 253Q1278 198 1415 159Q1422 150 1451 48Q1481 -58 1481 -85Q1481 -144 1376 -258Q1370 -265 1286 -382Q1265 -381 1102 -321Q1040 -298 973 -293Q849 -283 844 -282Q863 -250 887 -193Q891 -169 885 -124Q872 -32 879 44Q882 74 899.5 134.5Q917 195 917 199Q917 212 866 256.5Q815 301 810 301Q805 301 786 295.5Q767 290 760 290Q753 290 738.5 295.5Q724 301 717 301Q686 301 686 262Q686 214 728 196Q782 174 786 167Q793 148 793 146Q793 118 769 33.5Q745 -51 732 -89Q707 -164 683 -207Q632 -126 580 79Q573 115 566 151Q556 199 537 226Q511 264 436 288Q430 290 401 290Q390 290 337 277V259Q337 245 355 210Q376 170 395 162Q413 158 431 153Q454 147 459 134Q473 98 502 -103Q551 -442 551 -421Q551 -426 523 -471Q493 -522 485 -541Q471 -601 442 -722Q426 -784 372 -808Q368 -810 198 -865Q100 -897 100 -929Q100 -941 112 -960Q199 -964 259 -986Q289 -1013 349 -1056Q371 -1062 416 -1076Q420 -1085 453 -1208Q454 -1228 455 -1248Q457 -1276 469 -1278Q478 -1282 481 -1277Q507 -1219 526 -1132Q538 -1152 547.5 -1198Q557 -1244 552 -1272Q565 -1272 571 -1278Q607 -1221 607 -1151Q607 -1144 593 -1092Q579 -1040 579 -1033Q579 -1029 600 -991Q623 -948 628 -932Q629 -929 663 -808Q682 -744 715 -685Q731 -657 775 -642Q795 -635 858 -635L1391 -675Q1426 -675 1525 -647Q1592 -627 1658 -607Q1709 -757 1760 -908Q1821 -1086 1889 -1209Q1899 -1228 1924 -1244Q1950 -1228 1950 -1163ZM494 -1070V-1169Q495 -1184 480 -1199Q479 -1192 465 -1142Q454 -1101 454 -1083Q454 -1075 456 -1070ZM1919 -1199Q1845 -1068 1783 -892Q1738 -754 1694 -616Q1690 -603 1669 -573Q1661 -575 1547 -620Q1477 -647 1403 -647L870 -607Q744 -607 695 -663Q665 -698 638 -809Q608 -934 565 -1007Q548 -990 544 -990L528 -1005Q551 -1025 569 -1074Q585 -1118 585 -1151Q585 -1159 581 -1173.5Q577 -1188 577 -1191Q554 -1088 475 -1013Q472 -1016 465 -1020Q458 -1024 455 -1027Q460 -1032 460 -1047H413Q389 -1047 332 -1006Q271 -960 265 -958Q219 -943 128 -932Q173 -923 264 -902V-887L255 -878Q249 -883 218 -881Q276 -867 334 -853Q405 -834 442 -783Q467 -748 481 -658Q497 -561 507 -541Q536 -486 600.5 -391.5Q665 -297 679 -270Q816 -1 816 143Q816 188 790 200Q757 215 723 230Q718 233 716 247.5Q714 262 712 262L736 267Q746 243 750 244Q753 247 760.5 248.5Q768 250 771 253Q766 258 766 266H787Q787 250 805 250Q818 250 818 261Q829 250 855.5 230Q882 210 889 203Q840 95 851 -51Q856 -88 860 -124Q865 -169 859 -193Q851 -225 807 -294Q765 -359 765 -362Q765 -378 784 -376Q801 -353 818 -330.5Q835 -308 853 -308Q947 -308 1080 -348Q1176 -380 1273 -411Q1259 -439 1250 -484H1274Q1285 -450 1296 -417Q1310 -376 1330.5 -353.5Q1351 -331 1387 -299Q1480 -242 1573 -184Q1642 -136 1665 -78Q1690 -17 1690 115Q1690 177 1684 187Q1671 209 1594 237Q1617 236 1623 243V266Q1635 266 1648 250Q1665 267 1673 267Q1681 267 1702 247Q1731 221 1733 220Q1734 166 1743 58Q1752 -46 1752 -46Q1752 -81 1671 -256Q1628 -349 1628 -429Q1628 -485 1646 -507Q1820 -715 1908 -1043Q1922 -1097 1919 -1199ZM1606 -60Q1606 -110 1574 -144Q1558 -161 1513 -187Q1456 -219 1443 -228Q1510 -120 1510 -83Q1510 -60 1491 22Q1468 124 1440 173Q1428 194 1386 214Q1329 240 1318 248Q1349 245 1354 273Q1360 259 1376 244Q1393 261 1393 261Q1418 246 1473 231Q1606 -31 1606 -60ZM1597 240H1587L1580 266H1590ZM658 -240Q658 -261 570 -393Q551 -244 513 -7Q504 56 481 150Q476 160 431 180.5Q386 201 376 237Q403 246 402 262Q402 242 417 244Q420 247 429 253Q438 259 441 262Q467 247 493 232Q516 218 520 203Q547 111 608 -79Q658 -234 658 -240ZM427 -982L420 -957H378Q374 -964 365 -976Q389 -1002 399 -1002Q417 -1002 427 -982Z"/>
</svg>