<svg xmlns="http://www.w3.org/2000/svg" viewBox="0 -2048 2048 2048">
	<path fill="currentColor" d="M2148 105Q2141 113 2141 118Q2027 111 1991 35Q1919 -134 1846 -304Q1750 -493 1624 -515Q1620 -504 1620 -462Q1620 -224 1817 -172Q1839 -166 1860 -143V87Q1860 88 1839 117Q1789 119 1765 127Q1750 138 1716 154L1705 143L1694 154Q1671 151 1644 131Q1614 109 1614 84Q1614 61 1625 54Q1645 41 1658 22Q1668 20 1733 20Q1737 16 1737 8Q1737 -46 1703 -72Q1683 -87 1622 -105Q1561 -123 1530 -145Q1521 -103 1470 101Q1453 105 1392 125Q1339 143 1332 143Q1314 143 1310.5 136.5Q1307 130 1299 127Q1286 127 1263 117Q1238 92 1238 72Q1238 48 1258 28Q1278 8 1291 8Q1297 8 1373 15Q1373 15 1373 -86Q1373 -125 1351 -165Q1322 -208 1293 -251Q1125 -215 1039 -215Q1031 -215 937 -230Q843 -245 836 -245H786Q798 -197 794 -172Q790 -147 800 -78Q804 -52 822 11Q839 69 839 75Q839 108 672 154Q664 154 665 151Q667 146 665 145Q656 145 636 141Q575 118 575 93Q575 78 590 46Q621 39 617 15H693Q671 -44 624 -151Q608 -141 574 -123Q515 -95 470 -9Q421 86 386 111Q326 154 279 154Q272 154 271.5 148.5Q271 143 264 143Q249 143 238 154L226 143L215 154Q196 136 154 107Q151 95 157 74Q164 49 177.5 40Q191 31 208 30Q218 23 218 3Q248 8 279 8Q297 8 301 7Q334 -52 458 -300Q430 -340 367 -421Q318 -380 291 -380Q263 -380 192 -447Q134 -502 100 -547Q161 -626 222 -705Q338 -849 373 -849Q403 -849 450 -835Q537 -809 609 -764Q649 -739 678 -683Q683 -667 699 -637Q706 -628 720.5 -625Q735 -622 748 -620Q752 -624 746 -848H1104V-1062Q1104 -1140 1141 -1205Q1193 -1295 1306 -1295Q1397 -1295 1454 -1250Q1520 -1200 1520 -1105V-660Q1595 -629 1670 -599Q1764 -555 1817 -484Q1842 -451 1942 -263Q2028 -99 2098 -30Q2108 -20 2123 26Q2146 101 2148 105ZM1496 -673V-993Q1496 -1128 1475 -1177Q1435 -1271 1300 -1271Q1223 -1271 1178 -1209Q1136 -1152 1133 -1063Q1136 -953 1134 -825H787Q781 -621 788 -614Q803 -614 835 -611Q867 -608 878 -608L1380 -673Q1413 -666 1496 -673ZM2112 83Q2098 39 2074 -13Q2005 -71 1939 -196Q1886 -296 1834 -396Q1804 -443 1791 -461Q1758 -505 1730 -524Q1671 -563 1600 -594Q1486 -644 1341 -644L883 -579Q857 -582 800 -587.5Q743 -593 717 -596Q730 -556 729 -543Q713 -543 708 -538Q671 -640 641 -686Q584 -774 499 -783Q510 -769 510 -753Q510 -738 497 -714Q484 -690 483 -684Q476 -684 467.5 -686.5Q459 -689 457 -689Q460 -700 471 -725Q481 -747 481 -755Q481 -768 469 -789Q454 -814 437 -814Q394 -814 372 -755Q351 -766 351 -778Q292 -752 242 -686Q200 -627 159 -569Q166 -569 182 -553Q167 -545 167 -530Q167 -511 186 -489.5Q205 -468 221 -462Q247 -485 296 -526L311 -512L247 -441Q279 -409 294 -409Q284 -409 316 -417Q470 -550 470 -567Q470 -589 440 -664Q445 -669 465 -667Q493 -586 493 -567Q493 -538 458 -505.5Q423 -473 388 -441Q398 -430 433 -374Q457 -337 474 -333Q474 -339 485 -350Q506 -339 505 -330L327 27Q322 37 302 37Q295 37 276 34.5Q257 32 248 32Q248 57 235 63Q254 82 261 96Q295 78 290 78Q300 88 300 98Q283 115 283 119Q297 111 335 104Q369 98 381 88Q401 70 416 31Q437 -22 441 -29Q473 -84 527 -126Q575 -156 624 -186Q687 -226 702 -264Q722 -314 762 -392Q771 -392 781 -382Q766 -345 740 -275H760Q810 -276 901 -262Q1000 -246 1042 -245L1326 -281Q1314 -303 1299 -385Q1285 -460 1285 -482Q1285 -491 1294.5 -493.5Q1304 -496 1305 -497Q1320 -467 1326 -399Q1333 -328 1340 -311Q1367 -247 1410 -223Q1472 -187 1581 -146Q1737 -85 1747 -81Q1754 -42 1773 39Q1729 47 1685 35V64Q1689 71 1711 82Q1729 92 1729 102Q1729 107 1726 112Q1742 107 1831 89V-138Q1775 -160 1695 -199Q1626 -245 1606 -346Q1597 -433 1588 -519Q1572 -530 1544 -553Q1554 -563 1554 -574Q1624 -547 1738 -489Q1806 -441 1864 -333Q1899 -267 1951 -129Q2001 2 2027 47Q2039 68 2069 78Q2095 86 2112 83ZM1502 -118Q1502 -152 1471 -166Q1421 -188 1409 -195Q1373 -217 1347 -253Q1344 -255 1327 -248Q1403 -149 1403 -104Q1403 -92 1386 44L1292 38Q1292 41 1295.5 49Q1299 57 1299 60L1312 49Q1315 52 1319 59Q1323 66 1326 69L1304 95Q1317 89 1341 78Q1351 88 1351 101Q1387 95 1447 77Q1455 40 1480 -42Q1502 -116 1502 -118ZM382 -819L379 -828L365 -820V-812ZM804 52Q804 46 787 -19Q769 -90 765 -119Q766 -156 767 -192Q766 -237 736 -250Q676 -190 646 -166L740 38H641Q640 42 640 47Q640 64 663 80Q698 104 699 105Q704 109 714 112Q742 103 770 94Q804 82 804 52ZM358 -659Q353 -641 322 -629Q301 -622 279 -614Q264 -629 264 -632Q264 -627 283 -684Q333 -672 358 -659Z"/>
</svg>