<svg xmlns="http://www.w3.org/2000/svg" viewBox="0 -2048 2048 2048">
	<path fill="#000000" d="M1600 -603Q1600 -598 1573 -549Q1543 -492 1533 -465Q1520 -428 1521 -358L1584 79Q1575 183 1501 254Q1431 321 1345 321Q1234 321 1129 230Q1049 161 956 21Q883 -95 809 -211V272Q811 294 783 309Q770 316 731 316Q724 316 701 310.5Q678 305 671 305Q666 305 613 311Q555 317 529 318Q456 322 413 315L406 318V254Q478 236 551 218Q640 185 647 113L558 -384Q556 -391 556 -400Q556 -446 587 -494Q623 -551 674 -551Q559 -579 547 -579Q541 -579 523 -570.5Q505 -562 498 -560Q441 -548 400 -548Q353 -548 283 -578Q207 -610 191 -644Q190 -649 203 -665Q191 -695 164 -746Q147 -749 111 -754Q100 -798 100 -816Q100 -842 112 -877Q135 -880 179 -893Q157 -926 126 -988Q245 -1021 295 -1021Q357 -1021 458 -983L394 -893Q417 -888 462 -878Q473 -834 473 -811Q473 -792 462 -748Q397 -757 384 -703Q384 -693 387 -690Q391 -695 413 -695Q420 -695 475 -676.5Q530 -658 537 -658Q540 -658 597 -667Q654 -676 676 -677Q755 -681 912 -691Q914 -692 919 -698Q913 -763 928 -830Q937 -872 973 -968Q1005 -1056 1005 -1061Q1005 -1080 994 -1104Q980 -1133 960 -1135Q930 -1137 876 -1144Q845 -1150 742 -1227Q740 -1234 740 -1241Q740 -1282 806 -1336Q859 -1374 911 -1412Q931 -1437 970 -1487Q983 -1504 1013 -1509Q1116 -1527 1150 -1527Q1168 -1527 1203 -1519Q1220 -1515 1283 -1482Q1307 -1469 1336 -1418Q1363 -1371 1363 -1353Q1363 -1347 1359 -1330Q1355 -1310 1354 -1303Q1337 -1167 1337 -1087Q1337 -999 1343 -972Q1353 -928 1386 -826Q1416 -735 1416 -730V-429Q1416 -367 1439 -264Q1460 -168 1482 -116Q1485 -119 1482 -128Q1481 -134 1453 -247Q1432 -332 1432 -379Q1432 -436 1466 -524Q1510 -637 1571 -637Q1600 -637 1600 -603ZM1573 -586V-610Q1522 -597 1487 -512Q1458 -440 1458 -379Q1458 -316 1481 -229Q1511 -115 1514 -97Q1521 -54 1521 -16Q1521 38 1506 90Q1493 90 1484 81Q1494 61 1494 34Q1494 -6 1467 -78Q1433 -172 1428 -193Q1401 -309 1393 -456Q1399 -562 1387 -756Q1380 -789 1338 -930Q1310 -1026 1310 -1085L1337 -1353Q1337 -1401 1275 -1452Q1216 -1500 1170 -1500H1100Q1121 -1446 1121 -1424Q1121 -1403 1118 -1400H1104Q1094 -1490 1034 -1490Q1007 -1490 995 -1476Q971 -1444 922 -1391Q882 -1364 842 -1337Q774 -1288 774 -1266V-1234Q857 -1231 882 -1233Q897 -1234 925.5 -1241Q954 -1248 958 -1248Q968 -1248 974 -1230Q924 -1208 800 -1209Q816 -1188 861 -1172Q901 -1158 931 -1158Q938 -1158 945.5 -1161Q953 -1164 958 -1164Q989 -1164 1012 -1121Q1031 -1086 1031 -1058Q1031 -1053 986.5 -934.5Q942 -816 942 -745Q942 -707 948 -690H967L1208 -932Q1217 -923 1221 -923Q1087 -771 974 -664Q973 -663 947 -663Q940 -663 906 -666Q872 -669 866 -669Q789 -669 650 -656Q630 -654 582 -645Q539 -637 534 -637Q528 -637 494 -650Q456 -664 440 -667Q417 -666 379 -666Q390 -663 410.5 -657.5Q431 -652 442 -649Q441 -636 428 -607Q420 -607 399.5 -603.5Q379 -600 373 -600Q344 -600 221 -641Q249 -611 310 -591Q361 -574 395 -574Q403 -574 472.5 -587Q542 -600 547 -600Q540 -600 686 -579Q832 -558 916 -558Q1021 -558 1082 -597Q1106 -613 1292 -774L1305 -761Q1191 -650 1147 -614Q1051 -538 979 -531L1089 -288Q1075 -274 1072 -274Q978 -354 885 -434Q763 -527 687 -527Q608 -527 579 -398L674 121Q654 246 432 269V294Q440 294 457 297Q474 300 479 300L655 284Q662 284 694.5 289.5Q727 295 734 295Q789 295 789 256V-167Q789 -182 779.5 -217Q770 -252 770 -267Q770 -289 786 -300Q803 -270 972 9Q1037 116 1143 202Q1258 295 1342 295Q1435 295 1499 220Q1558 150 1558 60Q1558 54 1519 -161Q1495 -293 1495 -363Q1495 -486 1548 -549Q1573 -579 1573 -586ZM1030 -348Q1004 -411 951 -529Q757 -548 749 -547H731Q817 -515 1030 -348ZM447 -808Q447 -814 444 -831.5Q441 -849 441 -857H411V-769H435Q447 -780 447 -808ZM421 -972Q356 -1000 287 -1000Q233 -1000 153 -972Q185 -929 196 -911Q270 -932 308 -932Q318 -932 342 -922Q366 -912 371 -906Q405 -951 421 -972ZM389 -819Q389 -906 292 -906Q179 -906 179 -806Q179 -776 205 -727Q212 -751 247 -769Q277 -785 297 -785Q324 -785 366 -716Q389 -785 389 -819ZM404 -630V-639H338V-630ZM347 -687Q347 -696 323.5 -727Q300 -758 287 -758Q263 -758 244.5 -736.5Q226 -715 226 -698Q226 -681 248 -664.5Q270 -648 292 -648Q307 -648 325 -658Q347 -670 347 -687ZM162 -775V-863Q150 -857 127 -857Q127 -776 126 -775ZM1279 -1385Q1279 -1354 1240 -1291Q1221 -1280 1187 -1258Q1174 -1271 1174 -1284Q1211 -1296 1225 -1315Q1253 -1354 1253 -1385Q1253 -1428 1209 -1437Q1187 -1403 1160 -1390Q1157 -1393 1153.5 -1399.5Q1150 -1406 1147 -1409Q1172 -1419 1182 -1444Q1190 -1464 1210 -1464Q1239 -1464 1259 -1437.5Q1279 -1411 1279 -1385ZM1089 -1387Q1076 -1374 1071 -1374Q1064 -1374 1067 -1379.5Q1070 -1385 1063 -1385H974V-1410Q982 -1412 1015 -1425Q1044 -1437 1050 -1437Q1056 -1437 1089 -1387Z"/>
</svg>