<svg xmlns="http://www.w3.org/2000/svg" viewBox="0 0 998 1000">
  <g transform="scale(1,-1) translate(0,-1000)">
    <path d="M786 408Q786 398 776.0 394.5Q766 391 733 391Q721 391 694.5 392.0Q668 393 655 393Q611 393 596 382H849Q850 389 850 405Q850 501 801 550Q771 580 716 580Q691 580 643.5 566.0Q596 552 517 552Q451 552 428.0 576.0Q405 600 387 693Q379 731 308 731Q296 731 270.0 708.5Q244 686 215 686Q194 687 194 687Q190 687 182 685Q187 684 197 684H208Q229 684 263.5 673.5Q298 663 316 645Q333 628 336.5 594.5Q340 561 348.5 528.0Q357 495 388 475L392 518Q394 531 407 531Q413 531 417.5 526.5Q422 522 422 516Q422 515 412 415Q411 409 408.0 406.0Q405 403 386.0 400.5Q367 398 329 398H282Q266 398 229.0 394.0Q192 390 191 381L480 382L483 473Q483 487 498 487Q504 487 508.5 482.5Q513 478 513 472Q511 472 511 434Q611 443 666 482Q659 508 659 523Q659 529 663.5 533.5Q668 538 674 538Q687 538 689 524Q691 494 700.0 473.5Q709 453 723.5 443.5Q738 434 748.5 429.5Q759 425 774 423Q786 421 786 408ZM211 632Q247 632 247 584Q247 578 241 540V539Q241 536 231.5 508.0Q222 480 222 468Q222 468 222 465Q223 457 224 445Q228 438 236 426Q268 428 280 428H324Q367 428 383 430L384 443Q356 459 340.5 479.0Q325 499 321.5 514.0Q318 529 313 559Q305 613 294.0 624.0Q283 635 254.0 644.5Q225 654 208 654H198Q148 654 148 684Q148 717 194 717Q198 717 205.5 716.5Q213 716 216 716Q235 716 260.0 738.5Q285 761 308 761H318Q322 776 322 798Q322 817 316 859Q330 857 340.0 835.0Q350 813 350 786Q350 781 348 757Q353 778 353 816Q353 851 351 861Q385 845 385 785Q385 762 379 747Q410 731 417 699Q426 653 432.5 631.0Q439 609 452.0 597.0Q465 585 477.0 583.5Q489 582 519 582Q594 582 640.0 596.0Q686 610 718 610Q794 610 836 556Q897 519 947.5 444.5Q998 370 998 339V335H996Q974 335 941.0 369.5Q908 404 876 456Q880 434 880 406Q880 358 867 353H924Q932 353 938.0 347.0Q944 341 944.0 333.0Q944 325 938.0 319.0Q932 313 924 313H554V171H771Q787 170 787 153Q787 145 782.0 137.5Q777 130 771 130H554V20Q554 12 548.0 6.0Q542 0 534.0 0.0Q526 0 520.0 6.0Q514 12 514 20V130H389Q384 123 375.5 114.0Q367 105 343.5 92.0Q320 79 297 79H294Q237 81 226 131H208Q200 131 194.5 136.5Q189 142 189 149Q189 155 194.0 161.5Q199 168 208 168H226Q240 224 294 224H295Q345 223 388 171H514V313H142Q120 313 107.0 314.0Q94 315 71.0 321.5Q48 328 34.5 340.0Q21 352 10.5 377.0Q0 402 0 437Q0 462 5.0 490.0Q10 518 29.5 547.0Q49 576 80 576Q109 576 130.0 557.5Q151 539 151 503Q151 479 141.5 450.5Q132 422 132 408Q132 353 169 353H172Q167 356 164.5 363.0Q162 370 162 375L161 380Q161 405 191 417Q184 428 182.5 442.0Q181 456 181 508V516Q181 532 183.5 545.5Q186 559 188.0 567.0Q190 575 190 577Q190 587 174.5 589.5Q159 592 155 600Q151 604 151 608Q151 627 196 630Q196 630 198.5 630.5Q201 631 204.5 631.5Q208 632 211 632ZM289 701Q289 707 295.0 710.5Q301 714 308 714Q316 714 318 708Q318 708 318 706L319 704Q319 691 301 691Q289 691 289 701ZM204 487Q204 489 210.5 506.5Q217 524 221.5 543.5Q226 563 226 579Q226 587 224.0 594.5Q222 602 220 606L219 610Q218 611 207 613Q209 609 209 606Q209 601 202 600Q210 594 210 577Q210 575 206.0 554.5Q202 534 202 516V509Q202 501 204 487ZM193 605V608Q193 611 194 612Q185 612 177 608Q188 606 192 605ZM91 409Q91 430 101.0 457.0Q111 484 111 502Q111 536 80 536Q63 536 51.5 504.5Q40 473 40 439Q40 391 57.5 374.0Q75 357 104 354Q91 380 91 409ZM297 192Q280 192 269.5 181.0Q259 170 259 151Q259 113 298 111H299Q334 111 361 151Q330 192 297 192ZM556 367Q556 423 655 423Q665 423 703 422Q685 438 677 453Q619 413 510 404Q510 399 509.5 386.0Q509 373 509 366Q509 358 501 353H566Q556 356 556 367Z" fill="currentColor"/>
  </g>
</svg>