<svg xmlns="http://www.w3.org/2000/svg" viewBox="16.3 -1228.7 2260.4 1664.4">
	<path fill="currentColor" d="M2193 -35Q2193 -9 2185 39L2175 37L2166 43Q2113 -30 2089 -99L2068 67Q2068 66 2068 66V68L2069 73L2072 103Q2082 203 2082 223Q2082 266 2031 272L2017 348Q1984 345 1974 346Q1945 349 1927 349Q1900 349 1894 342Q1900 313 1960 198V16Q1960 -58 1924 -96Q1908 -112 1824 -162Q1765 -160 1740 -115Q1725 -84 1693 -23Q1693 -22 1630 57Q1606 87 1572.5 155Q1539 223 1517.5 251.5Q1496 280 1478 282L1474 340L1376 350Q1375 348 1343 348Q1331 348 1331 340Q1331 311 1419 231Q1439 213 1498 82Q1550 -35 1568 -88Q1564 -107 1554 -111Q1507 -93 1466 -74L1454 -96L1466 -103Q1440 -111 1248 -111Q1172 -111 1112 -131Q1072 -127 1054 -119Q1033 -110 1004 -32Q982 27 974 67Q973 81 970 109Q965 161 948 256Q942 278 903 284L897 336L807 352Q801 347 781 349Q761 351 757 344Q765 315 788 277Q823 217 825 213Q851 161 866 -66Q841 -66 811 -76L798 -12Q773 9 699 164Q635 297 600 291L583 340L497 350L489 342Q481 348 467 348L452 340Q462 300 522 234.5Q582 169 592 135L673 -133Q609 -170 553 -307Q526 -381 473 -490H462Q367 -490 231 -463Q221 -461 211 -461Q185 -461 157 -473L106 -537Q110 -561 110 -574Q101 -576 102 -594L100 -592V-594Q100 -607 104.5 -614Q109 -621 135 -637Q230 -694 293 -791Q226 -805 182 -881Q145 -945 145 -975Q145 -1006 170 -1062.5Q195 -1119 219 -1133L233 -1127Q221 -1051 221 -1010Q221 -909 346 -854Q358 -854 382.5 -859Q407 -864 419 -864Q427 -864 442 -860Q457 -856 465 -856Q495 -856 549 -922Q587 -969 587 -1137L604 -1145Q647 -1088 647 -996Q647 -908 571 -832Q589 -844 608 -844Q625 -844 649 -836L647 -828L653 -824L635 -791Q717 -781 938 -720Q1127 -668 1243 -668Q1376 -668 1579 -705Q1722 -731 1761 -731Q2123 -731 2123 -572Q2123 -549 2121 -503.5Q2119 -458 2119 -435Q2119 -272 2158 -176Q2193 -90 2193 -35ZM2068 -199L2062 -345Q2060 -394 2060 -390Q2057 -391 2057 -390Q2042 -298 2042 -272Q2042 -253 2068 -199ZM2005 276H1986L1970 323H1996ZM1960 276H1947Q1940 285 1925 319L1947 313ZM2168 -35Q2168 -82 2143 -155Q2114 -240 2109 -273Q2099 -343 2099 -570Q2099 -650 1964 -685Q1878 -707 1761 -707Q1731 -707 1583 -680Q1380 -643 1245 -643Q1127 -643 932 -695Q706 -756 622 -766L604 -737Q558 -737 520 -723L512 -746Q564 -762 596 -762H589L620 -817L614 -819H608Q588 -819 548 -788.5Q508 -758 489 -756L483 -780Q497 -780 512 -791L499 -809Q620 -881 620 -998Q620 -1041 612 -1065Q612 -892 458 -824L462 -799L440 -793L430 -840H415Q352 -840 321 -791Q274 -715 139 -613Q129 -605 129 -596Q129 -563 182 -522H270V-498H174L163 -506L178 -492Q208 -486 211 -486Q213 -486 264 -496Q366 -516 467 -516Q484 -516 523 -548Q557 -576 573 -596L592 -578Q541 -519 499 -500Q529 -420 560 -341Q602 -238 638.5 -197.5Q675 -157 744 -124.5Q813 -92 862 -92Q861 -94 802 -172Q716 -286 716 -438H741Q741 -313 790 -240Q830 -185 895 -70Q892 -63 888 -17Q878 97 871 129Q858 198 821 268L880 274V262Q929 262 929 225Q929 105 1009 -119Q1024 -161 1024 -176Q1024 -192 999 -250L1024 -258Q1050 -192 1046 -144Q1082 -156 1112 -156Q1138 -156 1188 -145.5Q1238 -135 1263 -135Q1277 -135 1305.5 -136Q1334 -137 1348 -137Q1392 -137 1495 -117Q1496 -118 1498 -119L1514 -125Q1626 -167 1798 -187Q1726 -249 1691 -365L1714 -373Q1731 -320 1767 -262Q1813 -187 1849 -185V-178Q1896 -146 1942 -114Q1984 -75 1984 -12V200Q1984 218 1962 252H1990Q2056 252 2056 221Q2056 194 2050 140Q2044 86 2044 59Q2044 37 2066 -123Q2017 -254 2017 -275V-277L2058 -541Q2061 -561 2003 -635L2021 -651L2076 -582Q2084 -539 2080 -516H2089Q2085 -424 2085 -373Q2085 -130 2166 -2Q2166 -7 2167 -18Q2168 -29 2168 -35ZM1734 -156Q1686 -150 1655 -144Q1598 -132 1583 -117Q1593 -101 1593 -82L1482 172Q1453 239 1405 272Q1481 266 1511 219Q1515 213 1575 100Q1592 68 1633 17Q1670 -30 1689 -73Q1702 -103 1734 -156ZM321 -838Q196 -900 196 -1023Q196 -1041 198 -1063Q170 -1001 170 -975Q170 -950 202 -893Q239 -827 305 -813Q311 -824 321 -838ZM1452 291L1409 297L1398 325L1450 317ZM1380 301Q1374 307 1366 319L1376 317ZM788 -82Q727 -100 696 -121Q678 -48 637 96Q621 147 534 258L579 272L581 262Q593 266 602 266Q618 266 681 137Q749 -3 776 -25ZM876 299L833 295L827 325L874 315ZM807 293L794 319L805 315ZM571 297L526 280L542 289L524 325L565 317ZM520 291Q520 286 516 278Q506 290 491 315Q520 315 520 291ZM440 -672L419 -660L413 -670Q405 -662 393 -662Q378 -662 370 -670L354 -664L344 -686Q368 -692 374 -717L411 -719ZM219 -557L198 -555L204 -549L186 -533L166 -572L215 -582Z"/>
</svg>