<svg xmlns="http://www.w3.org/2000/svg" viewBox="0 -2048 2048 2048">
	<path fill="#000000" d="M2115 -778Q2115 -614 2050.5 -519Q1986 -424 1836 -373Q1866 -310 1922 -162Q1940 -104 1963 2Q1984 99 1984 112Q1984 156 1945.5 200.5Q1907 245 1869 245L1217 207Q1211 207 1185.5 226Q1160 245 1154 245Q1147 245 1130 230Q1106 209 1102 207Q1068 240 1047 240Q1033 240 958 212Q957 149 998 111Q1037 76 1097 76Q1128 76 1154.5 95Q1181 114 1206 114L1651 78Q1583 38 1515 -3Q1438 -55 1412 -117Q1406 -141 1393 -192Q1247 -217 1102 -242Q949 -275 835 -344Q808 -317 764 -133Q734 -10 729 46Q734 92 737 188Q737 200 716.5 222.5Q696 245 682 245Q686 245 622 213Q599 240 589 240H548Q529 240 507 207L496 218Q475 206 461 206V189Q461 203 468 134Q512 98 521 98Q528 98 552 103.5Q576 109 583 109Q594 109 614 99L635 -374Q635 -432 628 -444Q547 -579 528 -621Q498 -686 493 -754L521 -943Q527 -973 501 -1005Q347 -885 346 -885Q319 -885 292 -903Q280 -924 254 -954Q228 -962 183 -985Q100 -1050 100 -1079Q100 -1086 182 -1201Q287 -1349 315 -1391Q328 -1411 365.5 -1445.5Q403 -1480 411 -1480Q436 -1480 469 -1447Q474 -1452 484 -1461Q492 -1462 508 -1465.5Q524 -1469 531 -1469Q536 -1469 688 -1401Q805 -1349 874 -1218Q904 -1162 958 -993Q965 -984 971 -980Q1016 -799 1220 -718Q1334 -672 1561 -648Q1590 -645 1632.5 -626.5Q1675 -608 1722 -561Q1762 -521 1803 -481Q1816 -470 1839 -470Q1907 -470 1970 -546Q2028 -614 2031 -669Q2032 -679 2035 -712Q2038 -739 2038 -748Q2038 -828 1996 -918Q1949 -1019 1887 -1041Q1824 -1055 1760 -1069Q1675 -1095 1646 -1173Q1724 -1196 1768 -1196Q1855 -1196 1947 -1117Q2032 -1044 2085 -938Q2115 -877 2115 -778ZM432 -1443Q432 -1440 414 -1458Q411 -1455 407.5 -1448Q404 -1441 401 -1438Q411 -1438 421 -1440.5Q431 -1443 432 -1443ZM2093 -781Q2093 -899 1999 -1025Q1893 -1169 1755 -1169Q1730 -1169 1678 -1156Q1699 -1116 1756 -1094Q1777 -1086 1882 -1068Q1953 -1056 2012 -947Q2066 -848 2066 -765Q2066 -720 2042 -610Q2031 -561 1964 -503Q1894 -443 1842 -443Q1800 -443 1710.5 -534Q1621 -625 1550 -626Q1363 -628 1185 -706Q1038 -771 953 -954Q902 -1083 851 -1211Q768 -1363 609 -1400Q618 -1380 618 -1354Q618 -1286 578 -1245Q575 -1248 568.5 -1252Q562 -1256 559 -1259Q568 -1269 581 -1307Q592 -1342 592 -1354Q592 -1442 529 -1442Q495 -1442 480 -1425Q444 -1382 436 -1376Q426 -1386 421 -1386Q421 -1393 438 -1413H409Q400 -1414 376.5 -1403.5Q353 -1393 347 -1386Q315 -1340 257 -1260Q127 -1094 127 -1076Q127 -1070 153 -1044Q144 -1070 150 -1093Q179 -1114 193 -1114Q195 -1114 204 -1105Q204 -1100 202 -1096Q191 -1084 178 -1078Q179 -1066 173 -1042H155Q232 -983 253 -983Q261 -983 300 -1016Q352 -1060 365 -1070L379 -1057Q286 -964 286 -961Q286 -947 303.5 -929.5Q321 -912 338 -912Q349 -912 456 -996Q560 -1078 562 -1083Q575 -1111 575 -1133Q575 -1139 572 -1164.5Q569 -1190 569 -1202Q592 -1202 592 -1202Q602 -1152 602 -1128Q602 -1086 582 -1063Q571 -1051 526 -1025Q544 -991 544 -943Q544 -908 532.5 -843.5Q521 -779 521 -756Q521 -695 557 -613Q588 -540 628 -494Q667 -719 737 -847Q756 -837 755 -828Q723 -771 689 -662Q652 -544 652 -483Q652 -476 654.5 -472Q657 -468 657 -461V-320L635 35Q635 47 638.5 68.5Q642 90 642 99Q642 136 581 136Q574 136 553.5 130.5Q533 125 526 125Q516 125 499 139Q482 153 482 169Q482 177 486 183Q490 189 490 191Q494 177 503 147Q513 147 519.5 149.5Q526 152 527 152Q527 188 540 207Q540 172 546 163H565Q569 180 577 207Q583 205 601 194Q616 185 624 185Q631 185 650 199Q669 213 676 213Q697 213 713 183Q713 165 705 108Q699 63 702 41Q737 -192 789 -313Q836 -416 907 -607Q917 -607 923.5 -604.5Q930 -602 931 -602Q899 -517 846 -368Q1008 -266 1393 -219Q1412 -316 1473 -350L1487 -336Q1421 -252 1421 -202Q1421 -112 1513 -39Q1610 26 1706 90V100L1702 104L1198 142Q1185 142 1152 122.5Q1119 103 1088 103Q1053 103 1022 120Q985 140 985 172V196Q989 194 998 184Q1007 174 1015 174Q1025 174 1029 178Q1029 184 1027 194.5Q1025 205 1025 207Q1034 193 1053 174Q1070 182 1067 195Q1069 195 1081.5 187.5Q1094 180 1102 180Q1116 180 1151 218Q1192 189 1197.5 187Q1203 185 1241 185L1839 213Q1886 213 1890 211Q1957 177 1957 87Q1957 16 1897 -153Q1853 -275 1809 -396Q1812 -398 1816 -403Q2093 -461 2093 -781ZM411 -1232Q377 -1196 357 -1196Q348 -1196 343 -1201L332 -1191L313 -1210Q317 -1213 336 -1244Q347 -1262 365 -1262Q366 -1262 411 -1232Z"/>
</svg>