<svg xmlns="http://www.w3.org/2000/svg" viewBox="23.7 -1646.3 1928.6 2059.6">
	<path fill="currentColor" d="M1876 -949Q1876 -912 1872 -864Q1866 -796 1829 -468Q1800 -213 1758 137Q1750 206 1728 244Q1718 261 1624 337H1098Q1094 337 1071 318Q1069 320 1062 331Q1053 337 1037 337Q989 337 943 328Q933 326 933 314Q933 311 953 237Q1024 205 1040 205Q1053 205 1102 213Q1146 221 1160 219L1435 176Q1366 102 1251 -48Q1250 -67 1241 -101Q1232 -115 1176.5 -161Q1121 -207 1105 -216Q1094 -218 1075 -223Q1027 -234 979 -246Q923 -261 888 -281Q873 -240 839 -161Q819 -126 782 -55Q770 -28 739 94Q732 146 715 250Q711 271 696 295Q692 297 656 306Q637 311 625 336H441Q443 329 443 291Q443 267 471 232L481 233Q551 240 588 181Q597 167 615 26Q632 -110 632 -145Q632 -216 632 -216L670 -519Q647 -568 609 -668Q592 -754 545 -919Q540 -931 508 -958Q469 -990 405 -990Q373 -990 330 -971Q295 -954 260 -938Q242 -931 200 -931Q194 -931 183.5 -937.5Q173 -944 169 -945V-944Q150 -925 142 -925Q145 -925 100 -940Q139 -1012 198 -1074Q270 -1150 333 -1164Q355 -1169 385.5 -1214Q416 -1259 449 -1268Q471 -1274 572 -1290Q602 -1378 663 -1554Q681 -1568 692 -1568Q699 -1568 767 -1539Q773 -1511 773 -1512Q773 -1507 738 -1431Q764 -1468 809 -1520Q814 -1524 828 -1524Q842 -1524 874 -1497.5Q906 -1471 906 -1458Q906 -1441 903 -1433Q837 -1376 738 -1273Q728 -1259 728 -1243Q728 -1219 745 -1195Q776 -1168 832 -1107Q841 -1095 869 -1043Q908 -969 996 -832Q1018 -804 1095 -761L1556 -1570L1617 -1530L1466 -1258L1572 -1195L1124 -747Q1220 -702 1317 -657Q1432 -598 1494 -544Q1499 -540 1528 -518Q1562 -492 1578 -469Q1596 -441 1614 -412Q1630 -390 1657 -343Q1703 -239 1713 -181Q1719 -244 1719 -251V-561Q1719 -623 1711 -748Q1703 -873 1703 -935Q1703 -1004 1743 -1015Q1749 -1030 1760 -1060H1795Q1812 -1060 1824 -1030Q1837 -1027 1859 -1016Q1876 -1000 1876 -949ZM1583 -1522L1565 -1533L1156 -815L1530 -1190L1431 -1248ZM750 -1513V-1521Q700 -1545 692 -1545Q686 -1545 681 -1540Q654 -1460 601 -1300Q673 -1320 721 -1437Q750 -1508 750 -1513ZM1852 -950Q1852 -1004 1830 -1004L1816 -753Q1804 -753 1795 -762Q1808 -997 1808 -993Q1808 -1034 1785 -1034Q1761 -1034 1762 -1000L1769 -774Q1757 -774 1748 -783L1739 -989L1736 -986Q1724 -944 1724 -945L1738 -654Q1745 -508 1745 -508V-278Q1745 -275 1739 -210Q1734 -158 1726 -54Q1718 -41 1708 -41Q1704 -52 1694 -158Q1692 -184 1678 -221Q1656 -280 1655 -282Q1644 -319 1579 -429Q1521 -528 1327 -628Q1234 -670 1142 -712Q1017 -771 982 -811Q943 -856 844 -1041Q835 -1059 815 -1092Q781 -1126 747 -1161Q706 -1203 706 -1245Q706 -1271 719 -1288Q727 -1298 810 -1373Q883 -1439 883 -1450Q883 -1453 838 -1497Q831 -1498 829 -1498Q829 -1498 821 -1497Q748 -1405 643 -1292Q606 -1269 489 -1253Q431 -1245 410 -1213Q376 -1162 366.5 -1154.5Q357 -1147 307 -1125Q285 -1115 248 -1093Q167 -1022 131 -950Q135 -948 141 -947Q156 -964 188 -993Q257 -1045 274 -1045Q288 -1045 288 -1039Q288 -1031 243 -1000Q189 -963 187 -961Q196 -956 203 -953Q240 -953 303.5 -982.5Q367 -1012 405 -1012Q435 -1012 470 -1002Q482 -996 506 -983Q554 -959 565 -929Q592 -811 677 -565Q680 -588 701.5 -653.5Q723 -719 735 -732Q741 -739 755 -738V-722Q736 -686 708 -613Q692 -543 674 -354Q672 -336 661 -255Q652 -195 652 -156V-80Q652 -70 648 -54Q644 -35 643 -29Q619 177 605 196Q579 230 539 247Q520 249 481 255Q465 276 465 285Q465 302 467 311H492Q507 281 524 281Q525 288 525 291Q525 302 520 311H540Q549 300 570 282Q578 289 578 296V301L570 310H613Q624 294 660 284Q690 275 693 251Q717 27 766 -76Q785 -109 820 -176Q831 -209 857 -274Q902 -369 927 -397Q932 -402 941 -401Q947 -396 947 -389V-385L899 -300Q908 -294 1055 -251Q1082 -246 1125 -231Q1131 -227 1232 -143L1231 -159Q1224 -268 1302 -336Q1310 -328 1310 -322Q1310 -320 1309 -318Q1302 -308 1290 -288Q1254 -226 1254 -155Q1254 -92 1269 -64Q1290 -25 1334 26Q1371 67 1408 109Q1457 169 1464 169Q1470 169 1481 167Q1492 165 1498 165Q1509 165 1524 168L1512 180L1506 187L1274 224Q1161 242 1159 242Q1160 242 1042 227Q1038 227 1032 228Q985 235 970 255Q967 273 958 308H973Q978 298 992 285L1005 298L999 309L1009 310Q1016 296 1030 291Q1036 303 1034 310H1048Q1060 293 1070 293Q1078 293 1098 311H1620Q1624 311 1665.5 274.5Q1707 238 1709 232Q1729 183 1735 138Q1764 -118 1823 -629Q1852 -879 1852 -950ZM519 -1176Q483 -1129 440 -1129H421Q423 -1146 466 -1181Z"/>
</svg>