<svg xmlns="http://www.w3.org/2000/svg" viewBox="21.8 -1667.2 1917.3 2110.3">
	<path fill="currentColor" d="M1861 -867Q1861 -821 1844 -656Q1817 -377 1752 180Q1745 228 1721 281Q1717 291 1673 328Q1629 365 1621 365H1119Q1112 359 1099 348L1089 362Q1083 365 1075 365Q1025 365 980 356Q970 354 970 341Q970 334 990 272Q1053 240 1074 240Q1086 240 1128 247Q1166 254 1178 252L1445 209Q1380 145 1272 3Q1270 -14 1261 -46Q1257 -54 1207.5 -98Q1158 -142 1145 -150Q1071 -167 958 -198Q948 -205 928 -217Q911 -175 882 -109Q847 -50 798 76Q786 160 752 326Q732 331 713 337Q694 343 683 363Q661 365 643 365H512Q506 348 506 317Q506 310 509 304Q526 270 546 267Q588 262 590 261Q624 246 645 213Q654 199 669 77Q684 -39 684 -71Q684 -149 684 -149Q684 -152 723 -445Q724 -453 700 -505Q672 -565 670 -573Q650 -654 602 -816Q592 -845 571 -859Q526 -889 473 -889Q441 -889 387 -860Q333 -831 321 -831Q267 -831 251 -844Q235 -826 225 -826Q217 -826 201 -834Q185 -842 185 -849Q185 -851 216 -893Q309 -1018 383 -1048Q397 -1052 423 -1062L100 -1557L147 -1589L250 -1431L340 -1480L444 -1087Q451 -1098 467 -1119Q492 -1148 543 -1160Q588 -1166 632 -1172Q656 -1252 719 -1421Q733 -1432 745 -1432Q751 -1432 808 -1408H813Q821 -1403 821 -1386Q821 -1375 792 -1310Q804 -1325 856 -1390Q864 -1393 873 -1393Q896 -1393 945 -1337Q948 -1329 948 -1321Q948 -1312 945 -1304Q908 -1268 834 -1198Q816 -1185 787 -1154Q779 -1142 779 -1126Q779 -1109 845 -1036Q888 -989 941 -888Q999 -778 1031 -737Q1052 -710 1114 -677Q1181 -647 1313 -585Q1468 -508 1569 -409Q1579 -393 1602 -362Q1645 -310 1672 -238Q1684 -201 1707 -128Q1717 -229 1717 -443Q1717 -434 1710 -572L1697 -829Q1696 -846 1707 -879Q1720 -917 1734 -915Q1742 -941 1748.5 -947.5Q1755 -954 1779 -954Q1797 -954 1818 -921Q1861 -919 1861 -867ZM796 -1378L795 -1390Q754 -1409 747 -1409Q742 -1409 735 -1403Q709 -1328 657 -1179Q710 -1188 747 -1255Q765 -1285 795 -1371Q796 -1374 796 -1378ZM403 -1140L323 -1441L241 -1396L140 -1553L136 -1550ZM1838 -874Q1838 -895 1819 -899Q1815 -824 1806 -673Q1801 -664 1796 -664Q1791 -664 1784 -668Q1796 -884 1796 -899Q1796 -928 1773 -928Q1753 -928 1753 -893Q1753 -852 1759 -741Q1759 -736 1761 -726Q1763 -716 1763 -710Q1763 -692 1742 -684Q1733 -778 1732 -883Q1720 -860 1720 -837Q1720 -770 1729 -635.5Q1738 -501 1738 -434V-217Q1738 -183 1719 0Q1714 8 1705 7L1700 6Q1697 -37 1684 -123Q1670 -188 1633 -273Q1621 -289 1599 -324Q1556 -404 1426 -495Q1364 -538 1252 -590Q1191 -614 1077 -675Q1052 -690 1014 -723Q981 -768 933 -854Q879 -950 855 -987Q852 -991 794 -1050Q756 -1089 756 -1126Q756 -1147 770 -1168Q778 -1179 854 -1248Q923 -1311 922 -1323L921 -1330Q909 -1341 897 -1353Q881 -1367 871 -1367L865 -1366Q797 -1275 701 -1170Q663 -1150 610 -1144Q544 -1137 523 -1131Q494 -1122 456 -1062Q444 -1042 405 -1032Q322 -1010 214 -851Q218 -849 224 -849Q225 -849 253 -877Q262 -886 302 -912.5Q342 -939 350 -939Q364 -939 364 -932Q364 -926 322 -897Q297 -879 271 -861Q290 -857 322 -857Q333 -857 382 -884.5Q431 -912 473 -912Q544 -912 591 -873Q623 -847 650 -743Q669 -669 687 -595Q689 -589 729 -498Q744 -584 791 -658L805 -643Q755 -533 746 -458L707 -151Q707 -151 707 -83Q707 -39 692 79Q676 210 663 230Q635 272 593 282Q571 286 548 290Q540 295 533 308V338H557Q569 319 582 310Q590 318 590 323Q590 326 584 338H602Q610 329 630 313Q638 321 638 326Q638 329 633 338H671Q681 323 702 318Q728 312 735 308Q742 262 758 169Q761 153 767 121Q779 40 861 -115Q874 -153 905 -226Q930 -274 977 -338L991 -324L938 -237Q963 -218 1037 -204Q1121 -187 1149 -174Q1162 -168 1252 -90Q1252 -90 1252 -107Q1252 -215 1321 -274Q1329 -266 1329 -260L1328 -256Q1321 -246 1309 -227Q1275 -170 1275 -104Q1275 -49 1291.5 -12Q1308 25 1357 78Q1396 121 1434 164Q1472 207 1474 207Q1479 207 1488.5 204.5Q1498 202 1503 202Q1511 202 1519 204Q1519 214 1510 223L1288 258Q1180 275 1177 275Q1176 275 1075 263Q1067 262 1064 263Q1015 280 1007 291Q1003 306 995 336H1009Q1012 324 1030 308Q1035 329 1033 339H1042Q1048 331 1067 323Q1069 330 1068 338H1078Q1090 324 1098 324Q1109 324 1123 339H1624Q1632 339 1664 310Q1693 283 1700 272Q1723 237 1732 166Q1754 0 1821 -654Q1838 -819 1838 -874ZM580 -1062Q569 -1048 526 -1018L478 -1024Q493 -1040 528 -1068Z"/>
</svg>