<svg xmlns="http://www.w3.org/2000/svg" viewBox="0 -2048 2048 2048">
	<path fill="#000000" d="M1948 -83Q1948 -51 1940 -44Q1873 -62 1831 -124Q1783 -195 1670 -544Q1626 -679 1567 -794Q1589 -701 1612 -639Q1625 -609 1641 -550Q1623 -503 1557 -501Q1557 -501 1452 -501Q1399 -501 1293.5 -495.5Q1188 -490 1135 -490Q1140 -490 1090 -499Q1060 -490 1045 -490Q1041 -490 1030 -494.5Q1019 -499 1012 -499Q1002 -499 990 -490L988 -495L983 -492Q967 -507 967 -525Q967 -593 1057 -593Q1057 -593 1139 -572L1371 -607Q1264 -656 1231 -728Q1036 -650 1036 -649Q905 -603 836 -609Q836 -603 837 -589Q838 -575 838 -568Q838 -484 657 -484Q626 -484 564 -486Q502 -488 471 -488Q441 -488 380 -483Q319 -478 289 -478Q267 -478 248 -490L220 -472H1668V-32L1442 -250H330L100 -39V-472H220L197 -488L166 -478Q166 -490 148 -490Q138 -490 123 -486Q109 -513 109 -521Q109 -547 137.5 -570Q166 -593 193 -593Q245 -593 275 -572L611 -624Q609 -633 609 -647Q609 -661 568 -699Q502 -760 478 -839Q473 -861 463 -905Q437 -1011 418 -1062Q407 -1092 288 -1118Q159 -1146 132 -1172L136 -1183L109 -1203L117 -1240Q154 -1242 225 -1249Q256 -1253 276 -1267Q306 -1292 336 -1316Q376 -1347 404 -1349Q427 -1394 431 -1539L451 -1545Q492 -1484 500 -1410Q520 -1522 519 -1535L539 -1541Q584 -1480 584 -1420Q584 -1356 553 -1310Q578 -1288 620 -1184Q647 -1113 674 -1041Q707 -957 812 -947L1553 -1546L1670 -1048L1643 -1046L1631 -1100H1606L1607 -1045H1581L1580 -1100H1548L1547 -1045H1521L1537 -1499L850 -945H877Q950 -945 1092 -973.5Q1234 -1002 1307 -1002Q1352 -1002 1401 -998Q1439 -995 1502 -961Q1561 -929 1590 -902Q1729 -773 1858 -423Q1948 -180 1948 -83ZM1625 -1126L1559 -1406L1550 -1126ZM488 -1359H480Q480 -1426 457 -1476Q457 -1402 431 -1346L482 -1340ZM1924 -77Q1924 -191 1795 -523Q1731 -688 1617 -833Q1503 -978 1319 -978Q1244 -978 1098 -948Q952 -918 877 -918Q738 -918 691 -969Q664 -998 611 -1148Q573 -1257 539 -1289L521 -1271L502 -1289Q560 -1337 560 -1420Q560 -1448 539 -1490Q520 -1391 517 -1379Q501 -1321 469 -1275L449 -1289L469 -1318Q443 -1324 412 -1324Q384 -1324 329 -1276Q274 -1228 242 -1228Q163 -1228 136 -1213L154 -1201L256 -1195V-1170L168 -1174Q191 -1161 311 -1138Q417 -1118 433 -1093Q443 -1078 461 -992Q507 -777 605 -701Q603 -736 603 -751Q603 -801 623 -863L648 -857Q629 -786 629 -738Q629 -689 637 -601L271 -546Q245 -566 207 -566Q136 -566 136 -523Q136 -518 140 -511H146Q146 -531 148 -538L172 -533L168 -519L175 -505L185 -511V-527H209V-511L222 -503L252 -521Q273 -503 289 -503Q307 -503 342 -508Q377 -513 395 -513Q430 -513 510 -511Q585 -510 626 -510Q789 -510 805 -533Q816 -549 816 -568Q816 -578 813 -595Q810 -612 809 -619Q807 -643 807 -700V-753H834Q834 -742 833 -720.5Q832 -699 832 -689Q832 -681 833 -662.5Q834 -644 834 -634H852Q983 -634 1219 -755Q1198 -797 1186 -859L1211 -863Q1231 -762 1280 -707Q1313 -669 1416 -605V-591Q1212 -548 1137 -548Q1128 -548 1094 -558.5Q1060 -569 1045 -569Q998 -569 994 -525L1000 -521L1002 -542L1027 -538L1024 -521L1035 -519L1033 -535L1057 -538L1063 -517Q1079 -523 1088 -523Q1096 -523 1111.5 -519Q1127 -515 1135 -515Q1186 -515 1289 -520Q1392 -525 1443 -525Q1457 -525 1484.5 -524Q1512 -523 1526 -523Q1585 -523 1614 -554Q1613 -562 1577 -658Q1543 -749 1543 -841L1561 -847Q1631 -749 1707 -536Q1762 -369 1817 -202Q1850 -106 1924 -77ZM1642 -93V-446H126V-98L320 -276H1452ZM421 -1255Q421 -1230 392 -1230Q363 -1230 363 -1255Q363 -1279 392 -1279Q421 -1279 421 -1255Z"/>
</svg>