<svg xmlns="http://www.w3.org/2000/svg" viewBox="0 -2048 2048 2048">
	<path fill="currentColor" d="M2262 -1068Q2262 -1062 2249 -973Q2230 -846 2213 -770Q2192 -677 2153 -583Q2131 -529 2069 -487Q2081 -475 2097 -446Q2106 -402 2107 -315Q2108 -225 2115 -183Q2122 -141 2158 -79Q2177 -50 2196 -21Q2211 5 2211 51Q2211 78 2185 109Q2158 143 2132 141L1653 113Q1642 112 1610.5 123.5Q1579 135 1567 135Q1557 135 1535.5 127Q1514 119 1504 119Q1488 119 1464.5 130Q1441 141 1440 141Q1424 141 1417 116H1400L1392 99Q1385 103 1372 103Q1372 98 1370 89Q1368 80 1368 75Q1368 66 1390.5 39Q1413 12 1422 9Q1445 2 1455 2Q1469 2 1497.5 9Q1526 16 1538 17Q1538 17 1575 17Q1648 17 1755 0Q1844 -14 1933 -29L1938 -32Q1857 -42 1759 -102Q1752 -106 1715 -141Q1680 -173 1677 -173Q1674 -173 1639 -159Q1525 -113 1448 -98Q1416 -94 1353 -84Q1230 -61 1095 -61Q1108 -61 1034 -71Q992 -75 910 -89Q882 -103 845 -119Q836 -106 827 -102Q757 -75 618 -14L865 8Q873 9 890.5 4Q908 -1 915 -1Q921 -1 943 7.5Q965 16 973 17Q1001 18 1056 23Q1061 30 1062 44L1066 47Q1077 55 1079 68Q1080 75 1088 83.5Q1096 92 1096 98V130Q1029 141 1030 141Q1009 141 953 127Q897 113 890 113L514 132Q474 134 463 134Q354 134 354 13Q354 -26 375 -60Q379 -66 458 -165Q526 -250 556 -299Q494 -362 464 -490Q460 -505 455 -532Q451 -659 451 -700Q451 -795 471 -883Q491 -919 519 -993Q525 -1020 529 -1030Q536 -1045 553 -1059Q515 -1079 451 -1096Q357 -1122 347 -1125Q283 -1146 212 -1193Q134 -1244 100 -1293V-1321Q170 -1337 257 -1337Q313 -1337 401 -1293Q420 -1283 513 -1209Q599 -1141 609 -1141Q610 -1141 621 -1147Q638 -1156 700 -1166Q726 -1210 784 -1295Q836 -1362 919 -1423Q1018 -1496 1084 -1496Q1097 -1471 1097 -1466Q1097 -1436 1019 -1292Q1003 -1262 867 -1127Q942 -1061 1088 -925Q1106 -898 1146 -846Q1153 -838 1196 -814Q1227 -796 1233 -767Q1238 -745 1238 -712Q1238 -702 1236 -681Q1234 -660 1234 -650Q1226 -647 1204 -644Q1191 -642 1157 -622.5Q1123 -603 1116 -603Q1124 -603 1015 -653Q967 -675 875 -675Q872 -675 856 -674Q867 -653 892 -613Q925 -564 966 -545Q1061 -501 1114 -501H1265Q1276 -501 1296.5 -504.5Q1317 -508 1326 -509Q1435 -516 1547 -556Q1575 -561 1630 -570Q1757 -592 1780 -592Q1843 -592 1947 -562Q1964 -557 1969 -557Q2018 -557 2050 -604Q2054 -609 2067 -655Q2072 -668 2080 -695Q2091 -746 2091 -789Q2091 -848 2050 -953Q2009 -1058 2009 -1089Q2009 -1104 2025 -1133Q2074 -1138 2061 -1138Q2099 -1138 2115 -1034Q2134 -915 2151 -898Q2154 -905 2163 -927L2166 -1100Q2185 -1144 2212 -1144Q2233 -1144 2249 -1116Q2262 -1091 2262 -1068ZM1073 -1466Q1073 -1470 1072 -1472H1060Q1051 -1472 996.5 -1442.5Q942 -1413 931 -1404Q838 -1327 801 -1280Q779 -1244 734 -1172Q745 -1173 748 -1173Q808 -1173 852 -1143Q980 -1271 997 -1302Q1073 -1439 1073 -1466ZM2238 -1067Q2238 -1118 2214 -1118Q2189 -1118 2189 -1094L2186 -924Q2177 -902 2158 -858Q2140 -871 2117 -901Q2107 -978 2077 -1102Q2071 -1115 2058 -1115Q2040 -1115 2036 -1109Q2032 -1103 2032 -1089Q2032 -1074 2056 -1007Q2114 -845 2114 -789Q2114 -672 2071 -592Q2061 -573 2024 -551Q1987 -529 1968 -534L1828 -568Q1822 -568 1814 -568Q1799 -567 1797 -567Q1745 -567 1732 -566Q1630 -558 1530 -523Q1507 -514 1460 -500Q1459 -500 1378 -492Q1342 -488 1270 -479Q1244 -476 1141 -476Q1122 -476 1111 -478Q993 -500 942 -533Q883 -572 832 -672L834 -673Q817 -672 818 -672Q753 -672 730 -683Q714 -691 661 -745Q676 -754 684 -753Q727 -712 734 -708Q756 -695 803 -695Q816 -695 841 -697Q866 -699 878 -699Q912 -699 992 -685Q1011 -682 1063 -655.5Q1115 -629 1116 -629Q1120 -629 1157 -648Q1128 -660 1074 -689V-712L1162 -670H1215V-678L1214 -712Q1213 -758 1192 -780Q1163 -802 1133 -825Q1115 -853 1081 -898Q1063 -917 878 -1087Q853 -1110 794 -1143Q772 -1149 754 -1149Q692 -1149 635 -1127Q671 -1096 693 -1067Q686 -1056 676 -1057Q666 -1067 656 -1078Q639 -1098 619 -1107Q585 -1123 529 -1167Q487 -1201 444 -1234Q393 -1272 351 -1288Q403 -1251 516 -1159Q564 -1124 660 -1052Q657 -1044 647 -1037L642 -1038Q545 -1114 348 -1262Q323 -1284 271 -1309Q236 -1314 206 -1314Q162 -1314 126 -1303V-1296Q126 -1288 179 -1246Q227 -1207 244 -1198Q305 -1165 453 -1116Q482 -1109 539 -1090Q596 -1066 639 -989L626 -984Q586 -1033 567 -1046Q558 -1035 543 -996Q524 -960 494 -883Q475 -811 475 -695Q475 -627 478 -531Q478 -530 487 -492Q514 -378 569 -319Q590 -350 615 -409Q643 -479 656 -502V-463Q656 -473 642 -421Q622 -348 544 -236Q493 -177 399 -54Q378 -22 378 15Q378 56 387 76Q391 86 412 97Q433 108 444 108H581Q581 108 686 102L895 90Q891 90 943 105Q989 118 1030 118Q1044 118 1073 108V104Q1065 106 1035 117Q1040 103 1061 79Q1062 65 1039 64Q1046 64 1006 66L1026 50L1027 45Q1016 46 1011 46Q987 46 958 35.5Q929 25 915 25Q908 25 891 28.5Q874 32 865 31L561 4Q566 -6 575 -18Q581 -22 818 -124Q827 -128 937 -257L945 -239Q917 -193 865 -136Q896 -117 914 -112Q947 -107 1011 -98Q1025 -94 1054.5 -91Q1084 -88 1214 -88Q1236 -88 1250 -90Q1519 -127 1660 -191Q1644 -217 1609 -292L1623 -302Q1639 -269 1676 -209Q1731 -141 1821 -96Q1904 -57 1988 -19Q1889 0 1791 19Q1662 44 1598 44Q1551 44 1508 34Q1469 25 1454 25Q1437 25 1392 73Q1402 65 1415 65Q1418 77 1415 91L1435 81Q1441 100 1442 115Q1450 114 1474 104Q1495 96 1504 96Q1514 96 1535.5 104Q1557 112 1567 112Q1579 112 1608 100.5Q1637 89 1650 90L2129 118Q2150 119 2169 94.5Q2188 70 2188 49Q2188 19 2145 -56Q2098 -139 2091 -180Q2084 -221 2083.5 -308Q2083 -395 2077 -435Q2076 -440 2040 -484Q2042 -493 2081.5 -527Q2121 -561 2134 -598Q2156 -656 2190 -773Q2203 -833 2224 -971Q2238 -1062 2238 -1067ZM1181 -676Q1172 -684 1155 -710Q1137 -714 1137 -714Q1132 -717 1128 -733H1157Q1181 -733 1181 -709ZM939 -921Q932 -921 923 -923.5Q914 -926 911 -926Q908 -926 897.5 -921.5Q887 -917 882 -917Q876 -917 862.5 -926.5Q849 -936 846 -936Q841 -936 831 -934.5Q821 -933 816 -933Q839 -969 887 -969Q910 -969 939 -921Z"/>
</svg>