<svg xmlns="http://www.w3.org/2000/svg" viewBox="11.3 -1503.7 2394.4 1627.4">
	<path fill="currentColor" d="M2317 -1088Q2317 -989 2271 -814Q2239 -692 2200 -610Q2188 -586 2139 -554Q2151 -542 2166 -513Q2173 -472 2173 -405V-359Q2174 -291 2181 -250Q2186 -224 2234 -155.5Q2282 -87 2282 -75Q2282 34 2150 34Q2142 34 2128 33L1776 8Q1761 7 1716 18Q1668 30 1652 30Q1645 30 1624.5 20.5Q1604 11 1599 11Q1596 11 1571 20.5Q1546 30 1539 31L1533 14Q1525 21 1518 21Q1514 21 1507.5 19Q1501 17 1497 17L1493 7L1490 9Q1461 -3 1461 -20Q1461 -49 1494.5 -77Q1528 -105 1557 -105Q1586 -105 1648 -94.5Q1710 -84 1737 -84Q1737 -84 1830 -95L2016 -117Q1948 -147 1879 -177Q1809 -213 1768 -277Q1741 -272 1688 -258Q1635 -235 1526 -196Q1488 -190 1414 -178Q1310 -159 1185 -159Q1147 -159 1095 -171Q1051 -182 1007 -192Q1003 -188 996 -182Q947 -143 876 -25Q840 35 765 30L438 8Q410 6 354 18Q284 33 299 33Q289 33 268 27Q247 21 237 21Q255 21 163 30Q160 22 157 7Q154 8 151 8Q145 8 124 -16L122 -26Q119 -28 100 -40V-77Q100 -77 148 -102Q165 -111 210 -111Q213 -111 354 -98Q356 -98 379 -105Q402 -112 409 -113Q509 -118 697 -143Q730 -150 745 -265Q751 -293 760 -350Q719 -426 704 -458Q677 -518 666 -574Q663 -611 654 -684Q646 -684 625.5 -681Q605 -678 594 -678Q585 -678 567 -679.5Q549 -681 540 -681Q483 -681 431 -670Q416 -667 381 -646Q350 -627 334 -627Q321 -627 287.5 -643Q254 -659 244 -659Q237 -659 234 -657Q224 -667 224 -770Q224 -786 283 -824Q299 -834 316 -859Q336 -891 344 -899Q397 -955 547 -1084Q505 -1127 429 -1221Q414 -1243 381 -1305Q344 -1376 344 -1388Q344 -1415 372 -1415Q400 -1415 484.5 -1361.5Q569 -1308 609 -1258Q619 -1245 694 -1124Q752 -1122 769 -1108Q781 -1098 781 -1098Q793 -1098 831 -1134Q879 -1179 881 -1181Q948 -1230 1004 -1248Q1081 -1273 1087 -1273Q1123 -1273 1223 -1263Q1231 -1256 1231 -1243Q1231 -1223 1171 -1174Q1093 -1110 1022 -1085Q1013 -1082 925 -1062Q860 -1046 835 -1027Q858 -1006 864 -961Q872 -900 876 -889Q884 -869 910 -838Q955 -781 1000 -723Q1056 -653 1101 -621Q1135 -596 1271 -592Q1390 -588 1381 -587L1842 -654Q1866 -657 1946 -643Q2033 -628 2054 -628Q2156 -628 2156 -829Q2156 -879 2121.5 -975Q2087 -1071 2087 -1080V-1159Q2115 -1168 2129 -1168Q2168 -1168 2184 -1066Q2201 -952 2215 -940Q2226 -955 2226 -960V-1076Q2226 -1174 2273 -1174Q2317 -1174 2317 -1088ZM2293 -1088Q2293 -1084 2289 -1140Q2277 -1148 2273 -1148Q2249 -1148 2249 -1086Q2249 -1074 2250 -1048Q2251 -1022 2251 -1008Q2251 -920 2214 -909Q2201 -920 2183 -945Q2174 -990 2154 -1079Q2151 -1098 2148 -1118Q2142 -1144 2127 -1144Q2122 -1144 2114 -1142V-1074Q2114 -1072 2138 -1006Q2163 -936 2166 -926Q2180 -877 2180 -831Q2180 -762 2155 -697Q2152 -682 2139 -654Q2126 -639 2098 -613Q2086 -605 2057 -605Q2037 -605 1990 -614Q1932 -625 1920 -626Q1893 -628 1839 -632Q1825 -633 1824 -633L1385 -563Q1335 -555 1190 -574Q1114 -584 1076 -609Q1042 -631 996 -697Q983 -715 970 -730Q928 -776 857 -874Q849 -887 843 -943Q837 -992 816 -1012Q784 -979 778 -979Q765 -979 765 -988Q765 -990 768 -993Q809 -1045 843 -1058Q898 -1075 1007 -1110Q1102 -1143 1168 -1200Q1185 -1211 1205 -1243Q1199 -1243 1186.5 -1246Q1174 -1249 1168 -1249Q1153 -1249 1123 -1247.5Q1093 -1246 1078 -1246Q1023 -1218 905 -1121Q815 -1047 739 -1006L724 -1020Q770 -1050 860 -1114Q897 -1147 974 -1211Q909 -1179 847 -1116Q832 -1100 760 -1059Q747 -1043 714 -1015Q706 -1023 706 -1031Q706 -1054 755 -1086Q721 -1100 702 -1100Q700 -1100 695.5 -1098.5Q691 -1097 688 -1097Q682 -1097 669.5 -1101.5Q657 -1106 651 -1106Q610 -1106 582 -1084Q460 -986 364 -886Q350 -862 315 -820Q293 -805 251 -773V-686H292Q294 -686 323 -701.5Q352 -717 360 -717Q364 -717 362 -710Q364 -712 367 -713Q368 -713 369 -711Q342 -679 299 -663Q329 -651 334 -651Q346 -651 369.5 -666Q393 -681 402 -684Q463 -704 538 -704Q547 -704 565 -702.5Q583 -701 592 -701Q649 -701 683.5 -731.5Q718 -762 718 -762Q731 -762 731 -753Q731 -748 701.5 -722Q672 -696 672 -694Q672 -688 676.5 -677Q681 -666 681 -661Q691 -520 769 -384Q790 -442 828 -537Q833 -547 845 -546Q849 -538 849 -532Q849 -525 818 -448Q785 -364 781 -349Q775 -300 760 -203Q745 -128 703 -120Q604 -110 407 -89Q401 -88 382.5 -81.5Q364 -75 359 -75Q213 -88 200 -88Q161 -88 127 -62V-51L131 -49Q133 -49 143 -57L155 -44Q155 -34 147 -23L154 -16Q163 -16 183 -23L195 -12Q194 -9 183 4Q186 6 191 7Q199 7 214.5 2Q230 -3 238 -3Q250 -3 269 2Q293 9 300 10Q403 -16 432 -16Q488 -16 599.5 -4.5Q711 7 767 7Q831 7 865 -48Q896 -99 927 -150Q949 -174 1012 -230Q1086 -295 1099 -295Q1112 -295 1112 -286Q1112 -281 1030 -210Q1071 -199 1145 -184Q1145 -184 1317 -184Q1312 -184 1396 -199Q1438 -203 1519 -219Q1596 -250 1755 -297Q1747 -308 1735 -333Q1718 -406 1718 -431Q1718 -444 1731 -444Q1734 -444 1738 -443Q1742 -406 1758 -336Q1781 -270 1847 -226Q1857 -216 1878 -200Q1945 -174 2063 -119Q2069 -116 2069 -100L1737 -62Q1723 -60 1655 -69Q1582 -78 1560 -78Q1546 -78 1541 -77Q1528 -75 1508.5 -54.5Q1489 -34 1488 -21Q1499 -27 1521 -37Q1526 -23 1523 -11Q1539 -23 1554 -28Q1558 -6 1557 2Q1559 3 1562 3Q1565 3 1579 -5Q1593 -13 1599 -13Q1606 -13 1626.5 -3Q1647 7 1652 7Q1668 7 1715 -5Q1759 -17 1775 -16L2129 10Q2143 11 2159 11Q2255 11 2255 -76Q2255 -84 2207.5 -154Q2160 -224 2157 -245Q2157 -332 2144 -505Q2143 -514 2127.5 -532Q2112 -550 2112 -556Q2112 -562 2142.5 -586Q2173 -610 2178 -619Q2205 -670 2248 -818Q2259 -855 2276 -955.5Q2293 -1056 2293 -1088ZM661 -1129Q638 -1169 615 -1210Q589 -1254 556 -1281Q422 -1392 376 -1392H370L368 -1389V-1386Q368 -1356 447 -1235Q483 -1180 566 -1100Q621 -1134 661 -1129ZM619 -917Q573 -917 556 -911Q533 -903 530 -903Q526 -903 519 -905Q512 -907 508 -907Q500 -907 488 -904Q503 -946 534 -946Q546 -946 619 -917ZM320 -723Q315 -723 272 -690V-714Q272 -729 312 -748Q320 -735 320 -723Z"/>
</svg>