<svg xmlns="http://www.w3.org/2000/svg" viewBox="0 -2048 2048 2048">
	<path fill="currentColor" d="M2462 -952Q2462 -943 2449 -853Q2441 -791 2418 -670Q2398 -588 2357 -489Q2338 -444 2311 -422Q2279 -401 2247 -379Q2267 -306 2300 -145Q2318 -54 2349 0Q2370 31 2391 63Q2419 105 2419 129Q2419 231 2261 220L2247 219L1893 193Q1878 192 1829 204Q1780 216 1764 216Q1757 216 1738.5 207.5Q1720 199 1713 199Q1707 199 1680 207Q1649 216 1642 217L1643 204Q1638 209 1629 209Q1629 209 1603 196V191L1600 194Q1589 190 1568 169Q1612 79 1688 79Q1707 79 1773 90Q1835 101 1851 99L2145 69Q2075 39 2005 8Q1934 -28 1890 -93Q1840 -85 1763 -57Q1670 -23 1637 -15Q1487 23 1312 23Q1281 23 1202 4Q1128 -14 1123 -14Q1107 -14 1018 23Q1000 31 954 59L1235 92Q1251 94 1272 65Q1278 62 1293 62Q1276 62 1357 81Q1382 85 1433 94Q1466 136 1500 187Q1449 216 1418 216Q1400 216 1346.5 204Q1293 192 1276 193L865 219Q826 221 786 203Q742 184 725 151Q713 128 713 89Q713 42 768 -47Q811 -112 853 -177Q766 -308 748 -407Q750 -445 728 -523Q680 -513 576 -513Q531 -513 468.5 -486.5Q406 -460 397 -460Q382 -460 353.5 -476Q325 -492 313 -492Q303 -492 295 -487Q284 -513 284 -557Q284 -601 296 -623Q303 -636 326 -649Q354 -667 360 -672Q395 -716 474 -796L100 -1189L209 -1261L112 -1467L170 -1501L498 -818L623 -929Q536 -1014 499 -1067Q484 -1089 452 -1153Q417 -1223 417 -1238Q417 -1245 424.5 -1257.5Q432 -1270 439 -1270Q463 -1270 545 -1219Q618 -1174 648 -1147Q674 -1124 723 -1059Q738 -1026 778 -968L807 -965Q827 -956 867 -944Q963 -1024 1006 -1052Q1084 -1104 1166 -1122Q1175 -1124 1189 -1124Q1271 -1124 1332 -1107Q1315 -1061 1307 -1051Q1305 -1049 1260 -1014Q1185 -956 1102 -929Q1018 -906 934 -882Q923 -878 912 -870Q938 -847 947 -803Q961 -736 964 -728Q978 -694 1073 -581Q1164 -474 1201 -443Q1224 -424 1292 -424H1522L1360 -916H1485V-1155H1552V-431L1873 -470Q2029 -489 2034 -489Q2062 -489 2118.5 -481Q2175 -473 2203 -473Q2243 -473 2271 -561Q2292 -630 2292 -685Q2292 -739 2266 -823Q2243 -891 2220 -959Q2212 -984 2212 -988Q2212 -1037 2261 -1037Q2306 -1037 2318 -935Q2333 -815 2353 -794Q2365 -811 2365 -819V-1017Q2371 -1019 2390 -1031Q2404 -1040 2415 -1040Q2462 -1040 2462 -952ZM1526 -494V-1129H1511V-890H1396ZM1304 -1091Q1283 -1099 1270 -1099Q1255 -1099 1223.5 -1097.5Q1192 -1096 1177 -1096Q1113 -1066 1028 -997Q911 -904 886 -887L892 -884Q908 -899 926 -905Q989 -920 1113 -954Q1127 -961 1155 -975Q1274 -1032 1304 -1091ZM2439 -972Q2439 -1013 2415 -1013Q2409 -1013 2389 -1000V-815Q2389 -805 2377.5 -785.5Q2366 -766 2357 -766Q2327 -766 2316 -799Q2305 -885 2281 -999Q2274 -1013 2257 -1013Q2236 -1013 2236 -988Q2236 -987 2260 -917Q2316 -754 2316 -687Q2316 -588 2270 -495Q2257 -469 2218 -449Q2212 -446 2205 -446Q2176 -446 2118.5 -456.5Q2061 -467 2032 -467Q1989 -467 1925 -458Q1851 -446 1704 -424Q1658 -419 1566 -406Q1562 -405 1553 -401Q1544 -397 1538 -397Q1457 -397 1375 -398Q1226 -402 1188 -422Q1181 -426 1031 -596Q958 -679 945 -712Q939 -760 902 -861Q866 -827 835 -806Q859 -851 889 -881L885 -887Q850 -863 779 -825Q802 -848 849 -890Q928 -955 1093 -1075Q1061 -1064 1003 -1018Q960 -984 917 -949Q894 -932 856 -912Q830 -898 791 -855Q790 -896 842 -930Q822 -937 783 -946Q781 -940 772 -940Q762 -940 755 -949Q733 -953 724 -953Q695 -953 664 -930Q521 -823 379 -657Q375 -653 340 -631Q311 -614 311 -602V-518Q317 -517 322 -517Q357 -517 484 -577Q417 -525 368 -496Q378 -490 397 -484Q522 -541 642 -541Q649 -541 663.5 -539Q678 -537 685 -537Q723 -537 741 -547Q750 -552 783 -583Q796 -595 833 -622Q785 -556 752 -527Q762 -505 764 -468Q766 -424 771 -408Q803 -297 866 -202Q889 -231 912 -286Q930 -330 949 -375Q944 -275 840.5 -112.5Q737 50 737 89Q737 140 773 170.5Q809 201 859 196L869 195L1280 169Q1296 168 1351.5 180.5Q1407 193 1428 193Q1435 193 1467 180L1460 169Q1456 170 1409 179Q1431 157 1446 150L1436 136Q1429 136 1384 148Q1395 136 1421 117Q1402 115 1366 108Q1287 89 1298 89Q1280 89 1265 103.5Q1250 118 1238 116L891 72Q926 47 1001 4Q1051 -14 1101 -33Q1151 -52 1184 -103Q1198 -125 1232 -168Q1223 -95 1149 -33Q1272 -1 1287 -1Q1468 -1 1633 -38Q1681 -58 1778 -93Q1811 -100 1876 -117Q1836 -188 1836 -299Q1851 -267 1868 -213Q1873 -156 1911.5 -101.5Q1950 -47 2002 -18Q2012 -13 2222 82L1850 123Q1838 124 1776 114Q1711 103 1691 103Q1626 103 1598 165Q1604 163 1628 145Q1633 155 1633 162Q1633 165 1631.5 172Q1630 179 1630 183Q1648 171 1665 163Q1667 171 1667 189Q1703 172 1711 172Q1714 172 1767 192Q1890 169 1890 169Q1904 169 2009 177L2246 195Q2272 197 2277 197Q2392 197 2392 117Q2392 110 2366 71Q2334 23 2334 22Q2301 -37 2293 -70Q2275 -142 2244 -304Q2242 -312 2232 -346Q2222 -376 2222 -384Q2222 -390 2253 -410Q2290 -435 2291 -436Q2349 -489 2398 -695Q2439 -872 2439 -972ZM744 -975Q727 -1010 687 -1075Q628 -1150 483 -1227Q476 -1233 459 -1242H443Q441 -1238 441 -1235Q441 -1204 508 -1094Q522 -1071 573 -1011Q630 -944 642 -944Q647 -944 679.5 -960.5Q712 -977 720 -977Q721 -977 744 -975ZM450 -859L159 -1464L146 -1457L242 -1251L141 -1185ZM669 -770Q665 -757 655 -747L647 -756H644Q641 -756 627 -748Q613 -740 607 -740Q603 -740 595 -742Q587 -744 583 -744Q577 -744 566 -740Q574 -790 612 -790Q619 -790 669 -770ZM404 -560Q372 -553 366 -548Q354 -535 341 -522V-552Q341 -565 362 -575Z"/>
</svg>