<svg xmlns="http://www.w3.org/2000/svg" viewBox="0 -2048 2048 2048">
	<path fill="currentColor" d="M2335 -241Q2335 -92 2320 -38Q2289 78 2181 78Q2083 78 2029 -18Q2019 -36 2008 -77Q2010 -44 2020 18Q2024 33 2055 80Q2081 120 2081 145Q2081 182 2045 212.5Q2009 243 1971 241L1532 222Q1483 222 1473 228Q1452 241 1450 241Q1444 241 1436 234Q1428 227 1424 226Q1411 222 1383 222Q1362 222 1333 231.5Q1304 241 1302 241Q1300 241 1285 231Q1282 231 1276.5 233Q1271 235 1268 235Q1259 235 1247 224L1228 233Q1218 223 1218 215Q1218 176 1228.5 157.5Q1239 139 1272.5 123Q1306 107 1328 107Q1344 107 1383 113.5Q1422 120 1444 120Q1549 120 1758 86Q1693 46 1574 -43Q1574 -43 1549 -88Q1372 15 1160 44Q1109 51 1011 51Q953 51 851 31Q842 29 806.5 17Q771 5 767 5Q744 5 558 90L804 116Q809 116 825 111.5Q841 107 848 107Q858 107 877 116.5Q896 126 905 126Q911 126 922 124Q933 122 939 122Q947 122 973 124Q985 137 987 150Q988 151 989 151Q997 154 1008 154Q1007 166 1007 174Q1007 184 1013.5 190Q1020 196 1020 204V245Q1015 244 963 244Q943 244 884 231Q825 218 807 219L449 238Q430 239 417 239Q305 239 305 128Q305 76 326 43.5Q347 11 420 -72Q482 -142 506 -194Q514 -205 523 -224L495 -260Q448 -320 435 -421Q431 -456 428 -594Q426 -683 438 -744Q441 -759 482 -850Q490 -879 523 -936Q511 -947 428 -970Q374 -984 320 -998Q208 -1033 122 -1119Q100 -1141 100 -1184Q185 -1198 170 -1198H267Q260 -1198 310 -1180Q334 -1174 379 -1156Q418 -1135 573 -1011Q614 -1036 665 -1039Q690 -1080 742 -1161Q778 -1212 874 -1278.5Q970 -1345 1011 -1345Q1036 -1345 1036 -1318Q1036 -1307 1003.5 -1238Q971 -1169 960 -1154Q926 -1105 825 -1000L979 -857L1299 -1552L1374 -1516L1258 -1271L1340 -1219L999 -840Q1025 -806 1080 -742Q1110 -719 1168 -672V-553Q1153 -547 1132 -546Q1085 -513 1054 -513Q1040 -513 991 -542Q950 -566 892 -570Q902 -569 786 -569Q801 -514 887 -451Q994 -373 1065 -373Q1233 -373 1521 -426Q1624 -445 1778 -445Q1809 -445 1891 -412Q1900 -405 1918 -392Q1998 -335 2035 -231Q2083 -94 2111 -55Q2148 -3 2163 -3Q2171 -3 2200 -26.5Q2229 -50 2229 -59V-175Q2229 -252 2128 -397Q2078 -469 2069 -540Q2116 -552 2117 -552Q2138 -552 2147 -540Q2167 -512 2194 -451Q2230 -370 2237 -357L2250 -353Q2252 -361 2256 -377L2210 -551Q2238 -591 2258 -591Q2260 -591 2283 -586Q2299 -558 2319 -498Q2335 -384 2335 -241ZM1339 -1504L1312 -1517L1038 -923L1300 -1214L1225 -1261ZM1013 -1312V-1319L1011 -1321Q1010 -1322 1008 -1322Q974 -1322 887 -1261Q811 -1208 774 -1161Q774 -1161 694 -1041Q705 -1042 709 -1042Q755 -1042 806 -1013Q940 -1146 983 -1253Q994 -1272 1013 -1312ZM2312 -240Q2312 -339 2296 -497Q2294 -514 2284 -538Q2272 -568 2259 -568Q2240 -568 2237 -545L2280 -374Q2276 -361 2273 -347Q2267 -329 2256 -329Q2227 -329 2215 -347Q2197 -373 2172.5 -435Q2148 -497 2134 -519Q2128 -528 2115 -528Q2108 -528 2095 -524Q2100 -501 2115 -460Q2160 -394 2206 -328Q2250 -258 2250 -172Q2256 -157 2256 -157V-57Q2190 20 2163 20Q2140 20 2093 -40Q2077 -60 2056 -109Q2019 -199 1981 -290Q1934 -373 1830 -411Q1797 -423 1747 -423Q1621 -423 1510 -402Q1465 -392 1374 -376Q1335 -371 1257 -361Q1241 -358 1209 -354Q1073 -350 1061 -350Q1054 -350 1047 -352Q895 -396 813 -475Q802 -485 762 -568Q736 -570 688 -585Q633 -615 633 -641Q633 -654 641 -654Q639 -654 677 -622.5Q715 -591 761 -591Q771 -591 792 -593Q813 -595 824 -595Q906 -595 941 -585Q970 -577 1054 -536Q1060 -536 1093 -550Q1064 -559 1010 -598L1023 -611L1096 -573H1141V-666Q1110 -686 1064 -727Q1006 -804 892 -901Q859 -936 788 -997Q757 -1019 717 -1019Q646 -1019 603 -1000Q611 -995 665 -938Q657 -930 651 -930Q647 -930 629 -947Q606 -968 605 -969Q576 -985 522 -1021Q480 -1055 438 -1090Q386 -1130 347 -1144Q361 -1134 507 -1017Q550 -990 631 -926Q623 -918 617 -918Q615 -918 613 -919Q561 -943 488 -1002Q425 -1056 289 -1152Q255 -1172 255 -1172H161Q156 -1172 144.5 -1169.5Q133 -1167 127 -1167V-1153Q127 -1143 175 -1105Q220 -1068 236 -1061Q310 -1027 355 -1012Q418 -998 518 -967Q534 -959 563 -934Q595 -905 595 -892Q595 -880 586 -880Q571 -887 539 -919Q532 -910 522 -891Q500 -843 479 -794Q453 -735 455 -694L456 -675Q453 -647 451 -592Q457 -440 456 -435Q477 -309 535 -248Q549 -286 578 -361L593 -345Q551 -205 498 -129Q443 -69 343 58Q325 85 325 125Q325 191 359 205Q374 211 452 211Q513 211 634.5 203.5Q756 196 817 196Q837 196 886.5 208.5Q936 221 965 221Q977 221 994 218L995 212Q982 215 981 215Q975 215 963 210Q982 185 982 180Q982 174 966 174Q956 174 947 163Q953 154 960 151V149Q953 149 942 149Q930 150 924 150Q908 150 879 140Q850 130 835 130Q832 130 820.5 135.5Q809 141 805 140L485 101Q498 94 750 -13Q771 -22 801 -62Q834 -107 853 -120V-101Q818 -43 786 -13Q922 27 1014 27Q1171 27 1357 -28Q1418 -55 1539 -107Q1529 -121 1513 -152Q1497 -205 1497 -235Q1497 -248 1509 -248Q1516 -248 1516 -248Q1521 -215 1539 -150Q1563 -89 1587 -66Q1625 -30 1694 17Q1784 77 1806 94L1793 106Q1781 107 1625 131Q1524 146 1456 146Q1433 146 1390 138Q1347 130 1329 130Q1304 130 1248 171Q1247 180 1246 191Q1250 182 1257 174Q1266 184 1266 207Q1266 211 1273 211Q1278 211 1279 210Q1279 193 1291 181Q1294 184 1300 189Q1305 201 1307 215Q1352 199 1384 199Q1400 199 1423 203Q1427 204 1438.5 209Q1450 214 1452 214Q1452 214 1466.5 206Q1481 198 1495 198Q1488 198 1513 199L1967 217Q1998 218 2028 196.5Q2058 175 2058 145Q2058 125 2034 89Q2005 46 2001 35Q1981 -21 1981 -155Q1981 -172 1995 -172Q1997 -172 2000 -171Q2020 -109 2040 -46Q2064 10 2134 46Q2152 55 2167 55Q2192 55 2204 54Q2248 50 2275 12Q2307 -34 2307 -129Q2307 -148 2309.5 -185Q2312 -222 2312 -240ZM1115 -577Q1108 -584 1095 -599Q1092 -604 1045 -627Q1052 -627 1067 -627Q1081 -628 1088 -628Q1115 -628 1115 -608ZM884 -810Q880 -806 873 -806Q866 -806 858 -812Q841 -801 831 -801Q829 -801 801 -813L799 -819Q783 -817 763 -817Q814 -855 828 -855Q871 -855 884 -810ZM839 -827Q835 -829 828 -832Q826 -831 823 -829Q825 -827 831 -824Q836 -825 839 -827Z"/>
</svg>