<svg xmlns="http://www.w3.org/2000/svg" viewBox="0 -2048 2048 2048">
	<path fill="#000000" d="M1803 -681Q1803 -648 1790 -583Q1779 -533 1769 -483Q1748 -361 1728 -165Q1702 93 1694 155Q1685 225 1660 264Q1650 279 1564 349H1050Q1039 337 1032 331Q1014 350 1008 350Q998 350 976 346.5Q954 343 941 343Q918 343 898 330Q903 304 916 254Q982 221 1000 221Q1018 221 1055 227Q1092 233 1110 233Q1187 233 1377 190Q1331 141 1285 91Q1229 30 1206 -15Q1203 -33 1192 -68Q1186 -80 1131 -126.5Q1076 -173 1060 -180Q1029 -193 971 -205Q907 -217 882 -226Q879 -227 854 -243Q841 -224 829 -186Q814 -138 809.5 -127.5Q805 -117 789 -91Q739 -7 723 56Q709 140 676 306Q655 312 634 319Q617 327 602 348Q593 349 565 349H423Q425 341 425 301Q425 277 451 252Q483 246 515 238.5Q547 231 566 199Q570 193 588 77.5Q606 -38 606 -52V-124Q606 -139 615 -222Q625 -318 640 -425Q609 -496 579 -567Q546 -650 534 -715Q536 -752 519 -830Q455 -822 461 -822Q452 -822 434.5 -823.5Q417 -825 408 -825Q317 -825 279 -807Q277 -806 245 -785Q225 -772 206 -772Q183 -772 135 -803Q114 -805 100 -814V-891Q100 -920 134 -948Q183 -989 191 -1000Q229 -1052 300 -1114Q359 -1165 419 -1217Q373 -1260 292 -1359Q220 -1475 220 -1511Q220 -1538 249 -1538Q270 -1538 342 -1493Q405 -1454 433 -1430Q481 -1388 509 -1337Q523 -1307 562 -1256Q588 -1253 636 -1238Q640 -1235 650 -1231Q706 -1279 824 -1363Q834 -1369 884.5 -1384Q935 -1399 948 -1400Q999 -1404 1020 -1404Q1005 -1404 1082 -1391Q1089 -1384 1089 -1372Q1089 -1352 1068 -1331Q987 -1251 808 -1198Q770 -1192 696 -1160Q704 -1152 716 -1134Q724 -1081 755 -980Q777 -953 811 -911Q905 -789 1083 -692L1541 -1479L1598 -1449L1454 -1187L1580 -1119L1109 -680Q1159 -658 1257 -611Q1464 -507 1521 -417Q1556 -366 1613 -257Q1622 -229 1641 -172L1646 -312Q1648 -372 1622 -507Q1618 -529 1583 -615Q1552 -691 1552 -720Q1552 -768 1609 -768Q1642 -768 1659 -662Q1678 -542 1695 -526Q1707 -542 1707 -740Q1746 -774 1747 -774Q1803 -774 1803 -681ZM1563 -1438L1551 -1444L1149 -752L1536 -1113L1419 -1177ZM529 -1262Q475 -1357 418 -1413Q402 -1429 336 -1471Q266 -1516 252 -1516Q243 -1516 243 -1510Q243 -1480 313 -1369Q338 -1330 437 -1233Q488 -1269 529 -1262ZM1781 -681Q1781 -751 1748 -751Q1742 -751 1730 -726L1727 -547L1705 -490Q1685 -504 1661 -536Q1651 -588 1630 -690Q1627 -706 1624 -721Q1621 -736 1606 -746Q1575 -746 1575 -719Q1575 -701 1604 -624Q1637 -539 1641 -519Q1672 -379 1669 -316L1653 46Q1646 -21 1625 -152Q1617 -187 1572 -294Q1564 -306 1548 -331Q1532 -360 1494 -415Q1491 -419 1429 -470Q1345 -539 1255 -585Q1161 -630 1068 -675Q963 -729 893 -789Q783 -883 734 -969Q725 -984 715 -1048Q705 -1109 694 -1126Q688 -1132 680 -1147Q658 -1128 635 -1099Q635 -1123 657.5 -1153Q680 -1183 703 -1191Q720 -1197 837 -1231Q918 -1255 968 -1283Q989 -1295 1022 -1322Q1063 -1356 1063 -1368Q1063 -1382 987 -1382Q959 -1382 942 -1377Q919 -1362 883 -1339Q842 -1314 732 -1220Q679 -1187 577 -1120Q607 -1161 644 -1187Q718 -1239 718 -1239Q761 -1280 867 -1357Q833 -1346 699 -1237Q680 -1221 635 -1199Q607 -1185 573 -1133Q578 -1194 624 -1219Q605 -1228 567 -1234Q565 -1229 558 -1229Q557 -1229 540 -1234.5Q523 -1240 512 -1240Q501 -1240 454 -1220Q450 -1216 450 -1203L438 -1204Q379 -1154 321 -1104Q248 -1040 216 -994Q200 -971 173 -950Q136 -921 127 -912Q122 -901 122 -825Q109 -824 149 -824Q161 -824 188 -838Q221 -855 229 -857L253 -850Q227 -835 173 -806Q194 -795 208 -795Q220 -795 246 -813Q295 -847 408 -847Q417 -847 434 -846Q451 -845 460 -845Q515 -845 549 -867Q585 -897 622 -927Q579 -868 542 -836Q551 -804 552 -771Q553 -733 557 -715Q567 -668 646 -465Q662 -573 712 -682L725 -678Q710 -640 685 -564Q670 -509 661 -417Q648 -281 646 -267Q629 -146 629 -140V-54Q629 -71 615 38Q611 73 602 143Q599 165 586 207Q558 261 512 266Q494 266 466 271Q463 272 448 298V304Q448 307 450 323L456 324L476 323Q486 308 505 278Q505 306 499 324Q499 324 517 324Q527 324 553 293Q555 300 555 308Q555 317 552 324H555Q560 324 590 323Q602 307 628 302Q654 297 659 288Q676 190 701 55Q711 9 737 -46Q756 -75 788 -134Q798 -170 825 -240Q836 -264 898 -358L910 -351Q885 -295 865 -262Q877 -247 952 -234Q971 -231 989 -225Q1021 -218 1082 -195Q1101 -183 1185 -109Q1183 -125 1183 -125Q1183 -230 1261 -307V-291Q1261 -283 1233.5 -231.5Q1206 -180 1206 -126Q1206 -75 1221 -34Q1229 -14 1404 186Q1410 186 1421.5 184.5Q1433 183 1439 183L1472 198L1110 256Q1097 258 1058 251Q1013 244 1001 244Q995 244 965 256Q935 268 933 272Q925 286 925 319L936 318Q937 317 954 294Q964 313 959 323L960 324H963Q969 324 976 316Q983 308 988 305Q996 311 994 324Q1000 323 1007 324Q1013 319 1026 301Q1037 308 1058 324H1560Q1566 324 1602.5 291Q1639 258 1642 250Q1659 210 1671 149Q1678 112 1689 -11Q1710 -252 1749 -501Q1751 -514 1768 -591Q1781 -646 1781 -681ZM473 -1060Q457 -1053 441 -1053Q438 -1053 424 -1045.5Q410 -1038 404 -1038Q399 -1038 392.5 -1042.5Q386 -1047 385 -1047Q385 -1047 378.5 -1043Q372 -1039 361 -1039Q376 -1085 404 -1085Q413 -1085 473 -1060ZM193 -865Q167 -859 169 -842Q160 -840 147 -840Q146 -876 186 -886Q193 -875 193 -865Z"/>
</svg>