<svg xmlns="http://www.w3.org/2000/svg" viewBox="0 -2048 2048 2048">
	<path fill="currentColor" d="M2184 -246Q2184 -177 2165 -92Q2140 23 2097 23Q2061 23 2028 -40Q2012 34 1893 34L1560 7Q1554 7 1504 18Q1454 29 1449 29Q1443 29 1423 18Q1403 7 1396 7Q1390 7 1372.5 15Q1355 23 1348 23Q1317 23 1269 -15Q1271 -42 1310.5 -73Q1350 -104 1383 -104Q1390 -104 1447.5 -93Q1505 -82 1512 -82L1766 -107Q1762 -110 1656 -168Q1585 -207 1551 -252Q1477 -254 1468 -250Q1420 -222 1293 -174Q1178 -146 1065 -146Q1058 -146 970 -156.5Q882 -167 875 -167Q837 -167 724 -116Q726 -115 733 -110Q944 -88 933 -88Q939 -88 955.5 -98.5Q972 -109 978 -109Q984 -109 1002.5 -97.5Q1021 -86 1029 -84Q1054 -83 1096 -80Q1109 -62 1122.5 -43.5Q1136 -25 1152 -23Q1152 -21 1155 -17.5Q1158 -14 1158 -6Q1158 11 1130 24Q1108 34 1092 34Q1089 34 1034.5 18Q980 2 941 2L594 34Q533 34 499 -3Q465 -40 465 -96Q465 -127 539 -227.5Q613 -328 613 -328Q613 -332 597 -360.5Q581 -389 577 -402Q555 -507 489 -714Q483 -729 424 -747Q417 -749 383 -749Q334 -749 270 -722.5Q206 -696 179 -696Q107 -696 107 -696Q100 -703 100 -712Q100 -739 128 -790Q146 -823 204 -864Q247 -894 291 -924Q312 -951 360 -1000Q383 -1008 433 -1027Q395 -1068 357 -1110Q290 -1185 290 -1207Q290 -1221 318 -1247Q346 -1273 367 -1273Q383 -1273 451 -1181Q499 -1116 547 -1050Q558 -1061 606 -1124Q635 -1165 664 -1205Q715 -1273 732 -1273Q749 -1273 819 -1219Q819 -1187 811 -1178Q792 -1156 715 -1079Q655 -1018 655 -1011Q655 -973 780 -779.5Q905 -586 928 -581Q1066 -548 1123 -548L1650 -611Q1698 -611 1774 -599Q1786 -597 1832 -574Q1906 -675 1983 -675Q2064 -675 2113 -610Q2139 -575 2150 -525Q2184 -365 2184 -246ZM2110 -428Q2116 -474 2083 -535Q2045 -606 1988 -606Q1974 -606 1969 -604Q1957 -603 1918 -569Q1872 -529 1872 -500Q1872 -487 1897 -389Q1925 -281 1947 -222Q1977 -165 2028 -56ZM2158 -270Q2158 -398 2118 -546Q2115 -558 2086 -605Q2074 -625 2033 -641Q1999 -654 1978 -654Q1964 -654 1937 -641Q1906 -627 1895 -610Q1864 -563 1837 -537Q1822 -551 1796 -567Q1717 -585 1629 -585L1126 -527Q1049 -527 981 -541Q922 -553 908 -565Q860 -607 817 -672Q783 -729 748 -785Q629 -964 629 -1008Q629 -1030 704 -1108Q787 -1196 793 -1207Q773 -1227 737 -1251Q696 -1191 654 -1131Q604 -1057 556 -1020Q534 -1003 471 -1000Q405 -996 387 -985Q356 -952 286 -893Q152 -803 133 -728Q246 -791 274 -791Q282 -791 285 -788V-774Q257 -761 185 -724Q338 -775 372 -775Q397 -775 445 -760Q502 -743 511 -724Q536 -670 563 -547Q590 -430 626 -358L722 -532Q725 -529 731 -525Q737 -521 740 -518Q658 -315 509 -150Q491 -130 491 -98Q491 -56 514 -15Q517 -10 548 -1.5Q579 7 594 7L949 -24Q977 -24 1027.5 -11.5Q1078 1 1104 1Q1115 1 1126 0Q1088 -19 1078 -50Q1058 -51 1018 -57Q1014 -58 1000.5 -70Q987 -82 981 -82Q975 -82 955.5 -74.5Q936 -67 930 -67Q906 -67 664 -99Q662 -102 655 -111Q707 -134 812 -181Q839 -192 887 -216Q911 -231 925 -268Q944 -315 944 -315Q947 -312 953 -308Q959 -304 962 -301Q941 -217 893 -190Q1011 -167 1055 -167Q1105 -167 1240 -190Q1284 -198 1330 -211Q1377 -235 1463 -276Q1475 -281 1533 -279Q1502 -349 1502 -392Q1502 -408 1505 -411H1519Q1529 -372 1551 -306Q1583 -237 1674 -189Q1812 -116 1825 -106V-91L1821 -88L1528 -56Q1521 -56 1458 -66.5Q1395 -77 1388 -77Q1354 -77 1335 -62Q1318 -43 1301 -25Q1306 -30 1316 -30Q1323 -30 1341.5 -19Q1360 -8 1367 -8Q1373 -8 1381.5 -13.5Q1390 -19 1396 -19Q1403 -19 1421.5 -8.5Q1440 2 1446 2Q1453 2 1508 -6Q1563 -14 1570 -14L1861 7Q2004 7 2004 -56Q2004 -53 1959 -142Q1910 -238 1894 -297Q1851 -459 1851 -503Q1851 -541 1897.5 -587Q1944 -633 1983 -633Q2002 -633 2051 -602.5Q2100 -572 2108 -550Q2129 -493 2136 -421L2052 -48Q2052 -45 2055.5 -39Q2059 -33 2059 -30Q2079 -132 2098 -194Q2108 -191 2121 -185Q2098 -101 2084 -4H2104Q2112 -70 2130 -199H2151Q2151 -211 2154.5 -238Q2158 -265 2158 -270ZM523 -1041Q469 -1115 362 -1252Q317 -1207 317 -1204Q317 -1194 334 -1173Q447 -1035 478 -1035Q485 -1035 502 -1038Q519 -1041 523 -1041ZM448 -903Q425 -895 376 -887Q376 -891 370 -900Q411 -939 414 -939Q416 -939 423 -931.5Q430 -924 448 -928Z"/>
</svg>