<svg xmlns="http://www.w3.org/2000/svg" viewBox="0 -2048 2048 2048">
	<path fill="#000000" d="M1892 -455Q1892 -399 1878.5 -286.5Q1865 -174 1865 -118Q1865 -102 1873 -78Q1882 -51 1883 -40Q1890 10 1890 51V97L1875 101Q1853 89 1818 56Q1800 29 1788 -77Q1769 33 1776 113Q1788 244 1788 244Q1788 272 1765 288Q1742 304 1738 327Q1743 334 1743 341Q1735 349 1615 349L1614 336Q1611 298 1647 259Q1666 239 1675 206Q1698 125 1698 80Q1698 42 1679 -11Q1662 -56 1646 -100Q1640 -118 1577 -177Q1575 -130 1557 -40Q1542 -25 1519 2Q1466 78 1420 173Q1409 209 1379 276Q1372 287 1347 290Q1339 302 1317 346H1200L1187 333Q1194 319 1210 293Q1252 255 1321 168Q1341 132 1373 46Q1409 -49 1409 -77Q1409 -86 1406.5 -103.5Q1404 -121 1404 -129Q1401 -225 1401 -211Q1401 -250 1411 -302Q1358 -293 1252 -279Q1168 -272 1108 -272Q1063 -272 976 -283Q961 -256 935 -189Q907 -114 907 -95Q907 -66 909 53Q911 144 911 201Q911 237 883 265Q867 281 865.5 312Q864 343 851 355Q811 355 727 348Q733 335 740 315Q749 291 769.5 271.5Q790 252 794 243Q795 234 798 218Q818 149 818 155Q818 87 816 79Q807 42 785 -101Q768 -212 743 -277Q625 -126 580 -27Q578 -24 560 -7Q535 15 516 58Q492 106 460 204Q458 217 440 275Q419 279 387 289Q384 310 378 342Q334 352 333 352Q322 352 299 350.5Q276 349 265 349Q254 349 254 335Q254 304 292 269Q349 218 351 215Q370 190 407 91Q432 23 457 -45Q471 -71 498 -124Q508 -146 539 -255.5Q570 -365 570 -381Q570 -384 538.5 -435Q507 -486 507 -492V-573Q507 -629 481 -717Q448 -831 443 -859Q413 -863 389 -863Q334 -863 303 -856Q290 -853 246.5 -832.5Q203 -812 199 -812Q174 -812 131 -842L111 -843Q100 -855 100 -891Q100 -955 124 -970.5Q148 -986 171 -1014Q210 -1059 212 -1061Q333 -1186 420 -1248Q445 -1266 482 -1266Q480 -1266 554 -1256Q576 -1293 624 -1365Q631 -1374 672 -1416Q690 -1434 761.5 -1478Q833 -1522 851 -1522H868Q872 -1513 881 -1495L825 -1381Q865 -1396 890 -1396Q995 -1396 1006 -1385Q1013 -1377 1013 -1366Q1013 -1347 973 -1311Q939 -1279 915 -1266Q869 -1241 794 -1219Q674 -1184 669 -1182Q664 -1180 656 -1172Q675 -1143 685 -1085Q694 -1031 721 -998Q789 -914 812 -891Q873 -830 927 -818Q945 -811 981 -802Q1082 -786 1174 -786H1228L1100 -1308Q1175 -1322 1216 -1355V-1564Q1216 -1582 1250 -1582Q1285 -1582 1285 -1564V-784Q1293 -783 1307 -783Q1356 -783 1453.5 -792.5Q1551 -802 1600 -802Q1723 -802 1811 -690Q1858 -629 1889 -484Q1892 -470 1892 -455ZM1259 -786V-1555Q1254 -1556 1242 -1556V-1342Q1194 -1303 1132 -1288L1254 -786ZM1834 -389Q1834 -512 1812 -579Q1816 -525 1816 -515Q1816 -477 1793 -386Q1770 -295 1770 -247Q1770 -189 1791 -143Q1834 -346 1834 -389ZM857 -1494L856 -1498L855 -1499H848Q676 -1424 582 -1250Q612 -1239 608 -1239Q616 -1239 693 -1305Q749 -1353 776 -1361Q782 -1362 792 -1367Q807 -1383 857 -1494ZM1866 -458Q1866 -640 1725 -741Q1702 -758 1684 -763Q1654 -772 1490 -772Q1489 -772 1264 -760Q1259 -760 1182 -764Q1116 -768 983 -779Q878 -791 825 -844Q752 -916 693 -995Q674 -1020 664 -1079Q655 -1135 636 -1156Q606 -1125 600 -1125Q587 -1125 587 -1134Q587 -1135 591 -1139Q613 -1166 655 -1201Q704 -1215 799 -1245Q927 -1286 986 -1356V-1366Q946 -1371 890 -1371Q855 -1371 721.5 -1263.5Q588 -1156 570 -1156Q557 -1156 557 -1164Q558 -1167 561 -1170Q600 -1195 675 -1250Q711 -1280 783 -1338Q746 -1318 649 -1239Q624 -1226 576 -1195Q567 -1183 545 -1163Q537 -1171 537 -1175Q537 -1197 578 -1224Q514 -1243 482 -1243Q452 -1243 432 -1228Q358 -1173 228 -1045Q220 -1037 194 -998Q189 -990 153 -962Q123 -937 123 -926Q123 -854 124 -868H165L167 -869Q145 -877 145 -897Q145 -913 158 -921L164 -917Q198 -918 212 -918Q197 -909 168 -897V-870L223 -895Q235 -894 235 -877Q215 -865 172 -846Q198 -835 202 -835Q211 -835 228 -846Q252 -862 254 -863Q302 -886 387 -886Q396 -886 414.5 -884.5Q433 -883 442 -883Q489 -883 506 -896Q529 -918 552 -940Q560 -932 560 -926Q560 -923 559 -921Q528 -883 521 -878Q501 -862 466 -862Q486 -788 505 -715Q533 -610 533 -576V-489Q533 -482 571 -423Q609 -364 614 -362Q642 -349 708 -336Q682 -370 682 -461Q682 -493 701 -565Q703 -574 721 -590L735 -576Q727 -565 716 -521Q705 -477 705 -460Q705 -383 720 -355Q746 -316 779 -245Q792 -158 823 14Q841 103 841 144Q841 165 832 189Q820 219 818 231Q814 252 812 256Q810 260 795 276Q792 280 785 287Q804 294 842 317Q844 273 865.5 248.5Q887 224 887 221V129Q887 118 884 95Q881 72 881 61V-97Q881 -84 892 -125Q909 -187 928 -234Q974 -347 974 -376Q974 -394 971 -424Q967 -460 966 -472Q971 -478 981 -478H985Q998 -400 998 -363Q998 -373 984 -304Q1114 -295 1110 -295Q1166 -295 1493 -340Q1460 -413 1460 -502Q1460 -518 1474 -518Q1476 -518 1479 -517Q1484 -501 1485 -489Q1489 -395 1558 -249Q1566 -233 1583 -202Q1620 -174 1666 -113Q1671 -94 1701 -20Q1722 32 1722 77Q1722 123 1709 180Q1692 249 1668 271L1719 310Q1727 292 1749 272Q1766 256 1765 241L1753 114Q1752 98 1763 -48Q1764 -58 1769 -85Q1774 -109 1774 -122Q1774 -126 1766 -143Q1758 -160 1757 -165Q1747 -207 1747 -247Q1747 -283 1772 -402Q1789 -483 1789 -467V-552Q1789 -569 1787 -598Q1784 -632 1784 -645L1795 -654Q1857 -584 1857 -386Q1857 -314 1823 -174Q1809 -116 1809 -99Q1809 6 1839 45Q1845 52 1864 64V6Q1864 -15 1853 -55.5Q1842 -96 1842 -116Q1842 -173 1854 -287Q1866 -401 1866 -458ZM1556 -200L1502 -319Q1476 -313 1435 -308Q1423 -226 1423 -215Q1423 -189 1427 -121Q1427 -115 1429.5 -99Q1432 -83 1432 -75Q1432 -2 1372 116Q1314 230 1255 281Q1279 301 1306 317Q1328 263 1348 263Q1354 263 1357 266Q1357 266 1376 219Q1423 102 1498 -9Q1511 -21 1535 -47Q1541 -98 1556 -200ZM1697 323L1654 289Q1637 313 1637 323ZM1267 320Q1257 312 1237 297Q1230 305 1222 320ZM731 -300Q714 -311 658 -322Q608 -332 588 -355Q565 -254 553 -214Q531 -135 501 -78Q492 -63 476 -31Q451 38 397 176Q372 235 322 276L326 288Q337 294 360 305Q364 268 389 265Q421 260 422 258Q431 220 445 167Q478 69 518 6Q535 -10 558 -36Q574 -76 614 -151Q654 -200 731 -300ZM824 332Q824 332 769 307Q768 310 760 330Q786 332 815 332ZM348 327Q332 317 300 299V295Q286 311 282 326Q288 326 306 328Q321 329 330 329Q339 329 348 327ZM451 -1072Q434 -1072 409.5 -1065.5Q385 -1059 380 -1059Q374 -1059 361.5 -1062.5Q349 -1066 342 -1066Q356 -1103 392 -1103Q410 -1103 451 -1072Z"/>
</svg>