<svg xmlns="http://www.w3.org/2000/svg" viewBox="0 -2048 2048 2048">
	<path fill="currentColor" d="M2009 -149L2004 -75Q1902 -176 1875 -207Q1821 -269 1772 -362Q1763 -387 1744 -435Q1740 -443 1674 -614Q1631 -722 1589 -786Q1591 -741 1596 -708Q1613 -601 1674 -520Q1717 -463 1717 -440Q1717 -452 1709 -377Q1692 -217 1692 -185Q1692 -179 1696.5 -168Q1701 -157 1701 -151Q1701 -133 1678 -121Q1659 -113 1640 -105H1816V306L1592 108H100V-105H332Q329 -111 329 -120Q329 -169 382 -206Q404 -213 445 -232Q449 -234 452 -246Q462 -282 468 -324Q483 -423 512 -622Q533 -764 533 -764Q533 -766 515 -789Q463 -857 449 -918Q444 -974 427 -1084Q420 -1114 392 -1129Q372 -1140 330 -1146Q275 -1154 265 -1157Q217 -1169 130 -1201Q125 -1204 104 -1229H105Q102 -1234 102 -1240Q102 -1245 103.5 -1255Q105 -1265 105 -1270Q151 -1273 197 -1276Q251 -1281 284 -1300Q316 -1349 331 -1357Q343 -1364 405 -1376Q437 -1440 447 -1585L464 -1574Q506 -1460 504 -1421Q533 -1466 537 -1567L552 -1579Q588 -1484 588 -1458Q588 -1412 560 -1339Q604 -1310 640 -1147Q674 -994 723 -978.5Q772 -963 860 -963Q844 -963 978 -970Q1034 -973 1187 -984Q1207 -985 1269 -995Q1325 -1004 1346 -1004Q1380 -1004 1435 -987Q1551 -951 1630 -883Q1697 -825 1773 -712Q1796 -665 1840 -574Q1873 -512 1931 -384Q1957 -306 2009 -149ZM483 -1449Q483 -1457 464 -1511Q456 -1433 431 -1376Q469 -1373 464 -1373Q470 -1373 479 -1384Q483 -1464 483 -1449ZM1982 -129V-157Q1982 -160 1948.5 -262.5Q1915 -365 1909.5 -378.5Q1904 -392 1842 -518Q1814 -584 1753 -701Q1688 -800 1618 -865Q1563 -917 1498 -942Q1458 -957 1360 -978Q1346 -981 1343 -981Q1322 -981 1281 -974Q1232 -965 1217 -964Q1117 -955 972 -948Q958 -947 915 -943Q880 -940 859 -940Q773 -940 717 -955Q701 -959 678.5 -983.5Q656 -1008 650 -1025Q640 -1053 614 -1165Q593 -1258 570 -1298Q564 -1308 548 -1317Q537 -1304 530 -1304Q517 -1304 517 -1313Q518 -1315 521 -1318Q565 -1364 565 -1458Q565 -1462 554 -1503Q529 -1383 459 -1322Q451 -1330 451 -1335Q451 -1337 459 -1351Q435 -1354 428 -1354Q363 -1354 335 -1333Q323 -1313 297 -1282Q270 -1263 215 -1257Q171 -1253 127 -1249L125 -1239L130 -1234Q171 -1228 252 -1221Q258 -1217 258 -1206V-1202Q223 -1201 200 -1202Q219 -1197 256 -1184Q274 -1175 325 -1168Q376 -1161 401 -1151Q445 -1132 457 -1049Q465 -985 472 -921Q486 -867 538 -792Q581 -732 625 -672Q639 -656 662 -622Q749 -444 780 -274Q791 -213 791 -225Q791 -192 739 -167.5Q687 -143 687 -124Q687 -112 701 -112Q708 -112 717 -117Q720 -125 735 -136L747 -125L742 -114Q752 -115 761 -114Q763 -126 774 -136L786 -124Q786 -119 784 -110H787Q796 -120 817 -139Q832 -148 862 -168Q862 -177 852 -200Q841 -228 839 -234Q816 -323 821 -374Q836 -535 836 -530Q836 -555 797 -620Q769 -665 741 -710L754 -725Q769 -707 798 -661Q808 -661 837 -659Q861 -657 876 -657Q958 -657 1035 -681Q1095 -711 1232 -750Q1208 -814 1208 -816Q1208 -828 1216 -828L1215 -827H1214L1226 -825Q1236 -793 1263 -733Q1296 -679 1327 -654.5Q1358 -630 1395 -609Q1483 -559 1502 -547Q1571 -503 1593 -468Q1610 -441 1617 -384Q1630 -277 1630 -218Q1630 -191 1610 -176Q1608 -174 1562 -158Q1525 -145 1525 -133V-115L1536 -114Q1536 -114 1536 -123Q1536 -141 1558 -142Q1564 -131 1564 -111Q1565 -110 1572 -110Q1571 -110 1584 -111Q1585 -123 1601 -139Q1607 -122 1607 -110H1610Q1625 -127 1647 -134.5Q1669 -142 1675 -147Q1671 -171 1671 -205Q1671 -202 1687 -372Q1695 -457 1695 -439Q1695 -459 1673 -488Q1640 -528 1638 -532Q1616 -572 1600 -612Q1566 -699 1566 -809Q1566 -828 1577 -843Q1608 -800 1658 -712Q1701 -595 1796 -365Q1808 -346 1832 -308Q1843 -287 1868 -247Q1876 -237 1982 -129ZM1607 -220Q1607 -399 1575 -457Q1571 -465 1555 -478Q1572 -431 1572 -427Q1572 -405 1535 -337Q1487 -250 1485 -245Q1470 -203 1436 -120Q1413 -120 1368 -105H1498V-110Q1498 -160 1552.5 -179Q1607 -198 1607 -220ZM1549 -424Q1549 -428 1520 -510Q1506 -519 1373 -598Q1452 -482 1452 -443Q1452 -422 1392 -202Q1353 -190 1315 -178Q1266 -160 1266 -126Q1266 -119 1267 -116H1275Q1275 -120 1277.5 -126Q1280 -132 1292 -132H1294Q1298 -124 1298 -112Q1304 -112 1315 -111Q1321 -127 1333 -139L1346 -125L1340 -110Q1370 -143 1422 -142Q1445 -208 1477 -278Q1497 -316 1517 -354Q1549 -414 1549 -424ZM1430 -443Q1430 -470 1390 -532Q1334 -621 1333 -623Q1290 -652 1240 -729Q1217 -726 1172 -715Q1129 -694 1041 -659Q945 -629 814 -636Q831 -610 853 -547L854 -546Q858 -537 858 -532L844 -375Q840 -333 862 -236Q864 -228 875.5 -202Q887 -176 887 -172Q887 -156 859 -136Q819 -107 817 -105H1245Q1240 -115 1240 -126Q1240 -166 1291 -190Q1332 -205 1374 -219Q1430 -439 1430 -443ZM769 -225Q769 -211 758 -275Q738 -391 657 -575Q649 -529 618 -470Q584 -406 576 -376Q571 -358 541 -189Q531 -130 501 -125Q462 -117 453 -105H671Q664 -117 664 -127Q664 -150 689 -169Q691 -171 738 -192Q769 -206 769 -225ZM640 -608Q640 -619 551 -737Q524 -546 490 -324Q485 -288 466 -219Q396 -187 393 -185Q355 -161 355 -119L361 -117Q363 -134 387 -150Q387 -128 386 -121L396 -120Q398 -131 411 -137L423 -126L419 -113L422 -112Q424 -112 454 -143Q480 -146 512 -164Q527 -203 537 -281Q548 -365 560 -400Q566 -417 609 -502Q640 -564 640 -608ZM1790 248V-79H126V82H1602ZM415 -1274Q403 -1271 394 -1271Q388 -1271 376 -1271Q364 -1272 358 -1272V-1293Q358 -1312 385 -1312Q415 -1312 415 -1276Z"/>
</svg>