<svg xmlns="http://www.w3.org/2000/svg" viewBox="11.4 -1419.6 2393.3 1754.3">
	<path fill="currentColor" d="M2316 -158Q2316 -156 2311 -128Q2294 -34 2290 -21Q2275 28 2233 72Q2178 130 2110 164Q2083 167 2037 181Q2036 182 2015 204Q1979 242 1886 242Q1860 242 1471 227Q1457 226 1432.5 232.5Q1408 239 1401 239Q1395 239 1381.5 230Q1368 221 1351 221Q1330 221 1316 231.5Q1302 242 1295 242Q1291 242 1285 239Q1279 236 1278 236Q1276 236 1273 237.5Q1270 239 1266 239Q1221 239 1197 212Q1197 208 1198 201.5Q1199 195 1199 192Q1199 187 1193 176Q1187 165 1187 159Q1187 149 1199 120Q1259 97 1281 97Q1263 97 1349 108Q1459 122 1500 118L1756 93Q1724 69 1671 13Q1644 -28 1644 -74Q1644 -74 1657 -125Q1664 -154 1706 -173Q1742 -189 1776 -189Q1808 -189 1886 -161Q1872 -161 1843 -163.5Q1814 -166 1800 -166Q1741 -166 1705 -148Q1693 -142 1680 -115Q1667 -88 1667 -73Q1667 -10 1808 108L1501 141Q1459 145 1350 131Q1267 120 1281 120Q1277 120 1217 138Q1210 153 1210 157L1211 161Q1217 151 1289 113Q1265 142 1246 156.5Q1227 171 1220 202L1227 207Q1228 177 1241 167Q1260 158 1280 148Q1280 166 1253 187Q1250 201 1250 213Q1250 213 1263 215Q1263 214 1265 182Q1276 178 1297 168H1326Q1308 188 1289 196V218L1293 219Q1320 194 1353 194Q1375 194 1403 216Q1412 215 1434 209.5Q1456 204 1467 204L1881 222Q1937 224 1965.5 211Q1994 198 2026 156Q2077 153 2096 144Q2125 124 2154 105Q2240 49 2265 -19Q2293 -95 2293 -160Q2293 -308 2184 -434Q2157 -457 2107 -507Q2104 -516 2096 -532Q2067 -574 1979 -574Q1932 -574 1932 -549Q1932 -519 1981 -501Q2018 -488 2056 -488Q2062 -488 2073 -489.5Q2084 -491 2090 -491Q2107 -491 2164 -429Q2214 -374 2231 -347Q2245 -325 2261 -267Q2277 -209 2277 -182Q2277 -76 2244 -15Q2218 33 2167 80Q2107 135 2063 135H2040V118Q2040 113 2057 61.5Q2074 10 2074 -12Q2074 -143 2028 -191Q2019 -200 2015 -207Q1957 -298 1873 -315Q1864 -316 1846 -319Q1762 -334 1767 -334Q1690 -334 1621 -321Q1588 -315 1449 -262Q1315 -212 1311 -212H1155Q1064 -212 965 -313Q930 -360 854 -446Q848 -449 837 -455Q806 -476 749 -490Q753 -467 753 -440Q753 -416 693 -310Q731 -435 731 -435Q731 -523 681 -523Q656 -523 634 -501Q617 -480 600 -458Q600 -482 610 -501Q561 -492 542.5 -478Q524 -464 495 -419Q464 -368 448 -353.5Q432 -339 402 -307Q351 -239 351 -224Q351 -213 435 -154Q445 -153 452 -153Q469 -153 511 -189Q531 -206 561 -226Q553 -199 517.5 -167.5Q482 -136 482 -128Q482 -95 530 -95Q557 -95 595 -141Q619 -171 663 -194Q707 -217 716 -229Q721 -235 721 -262Q721 -263 717 -287Q713 -311 713 -366Q744 -273 744 -263Q744 -249 733 -209Q732 -208 660 -165Q674 -122 674 -123V-26Q686 -16 708 6Q735 -76 777 -136Q771 -112 754 -64Q746 -48 734 -3Q728 42 683 112Q660 120 612 131Q544 139 424 149Q333 157 332 157Q316 157 265 140Q214 123 200 123Q166 123 137 141Q135 142 126 158H130Q132 158 145 151Q164 141 203 125Q182 144 161 162Q135 187 135 207L143 209Q144 199 151 181Q160 167 201 155Q197 168 179 186Q165 200 165 219Q165 219 175 219Q184 219 188 217Q191 201 209 174Q211 208 210 216Q226 216 239 199Q252 182 261 182Q305 182 320 213Q324 213 334 210.5Q344 208 349 208Q429 208 588 212Q747 216 826 216Q870 216 895 203Q904 167 924 96L938 99Q936 120 929 160Q964 164 995 164Q1049 164 1106 137Q1157 113 1208 89Q1306 52 1366 51Q1423 50 1487 50Q1486 50 1570 60L1737 80L1736 94L1567 78Q1482 70 1483 70Q1334 70 1223 109Q1169 134 1115 158Q1052 187 998 187Q977 187 924 181Q921 188 913 225Q828 240 840 240Q765 240 614 235Q463 230 387 230Q376 230 352.5 233Q329 236 318 236Q314 236 297 220.5Q280 205 264 205L262 208Q235 246 192 246Q184 246 168 246Q151 245 144 245Q143 231 133.5 228.5Q124 226 113 224Q112 220 112 215Q112 209 115.5 198Q119 187 119 181Q119 174 100 175V158Q100 135 139 116Q172 100 198 100Q214 100 267 116.5Q320 133 335 133Q312 133 522 116Q558 115 596.5 113Q635 111 665 94Q672 90 704 31Q687 15 651 -16V-126Q651 -136 640 -154Q616 -129 591 -103Q558 -72 532 -72Q461 -72 456 -126Q449 -126 434.5 -129Q420 -132 374 -172Q328 -212 328 -224Q328 -230 347 -254Q357 -277 382 -320Q402 -339 439 -378Q455 -404 489 -454Q567 -555 585 -555Q607 -555 630 -530Q636 -537 641 -541Q693 -546 682 -546Q719 -546 738 -515Q832 -498 870 -463Q886 -448 918 -407Q1006 -293 1078 -256Q1089 -250 1140 -240V-753Q1145 -755 1173 -758Q1249 -767 1249 -868Q1249 -898 1211.5 -919.5Q1174 -941 1144 -936V-1331H1343V-1005Q1358 -999 1386 -985Q1396 -978 1422 -943.5Q1448 -909 1448 -900V-814Q1448 -805 1441 -801Q1444 -756 1344 -700V-250Q1448 -287 1552 -324Q1661 -357 1770 -357Q1836 -357 1902 -331Q1998 -293 2061 -185Q2066 -170 2076 -141Q2097 -82 2097 -27Q2097 0 2068 112Q2110 109 2152 60Q2169 43 2202 8Q2253 -52 2253 -198Q2253 -249 2210 -336Q2185 -387 2097 -460Q2087 -468 2085 -468Q2080 -468 2070 -466.5Q2060 -465 2055 -465Q2011 -465 1964 -487Q1906 -513 1906 -551Q1906 -564 1907 -572Q1934 -598 1989 -598Q2013 -598 2057 -582Q2106 -564 2113 -546Q2114 -539 2119 -528Q2147 -504 2198 -454Q2316 -316 2316 -158ZM596 -338Q583 -338 563.5 -330Q544 -322 532 -322Q524 -322 485 -297Q499 -314 517 -341Q528 -372 547 -372Q562 -372 596 -338ZM442 -248Q425 -241 394 -225Q392 -204 381 -182Q368 -208 368 -238Q384 -248 420 -248ZM1422 -879Q1422 -930 1372 -967Q1365 -972 1318 -990V-1305H1275V-990Q1313 -979 1350 -947Q1391 -910 1391 -875Q1391 -749 1275 -716V-236Q1314 -238 1318 -238V-714Q1392 -757 1407 -779.5Q1422 -802 1422 -879ZM1367 -875Q1367 -932 1248 -978V-1305H1220V-976Q1249 -975 1288 -941.5Q1327 -908 1327 -880Q1327 -752 1220 -725V-235Q1233 -236 1248 -235V-730Q1248 -730 1284 -741Q1367 -766 1367 -875ZM1300 -876Q1300 -918 1248 -946Q1237 -952 1206 -952L1193 -964V-1305H1168V-959Q1177 -959 1195 -956Q1220 -947 1246 -922Q1275 -894 1275 -871Q1275 -775 1183 -734Q1179 -732 1168 -734V-234H1193V-738Q1202 -746 1216.5 -747Q1231 -748 1238 -753Q1300 -793 1300 -876ZM605 -522Q600 -527 590 -532Q581 -524 572 -514Q583 -517 605 -522ZM555 -345L553 -357Q544 -347 535 -348L540 -341Q541 -344 545 -348Z"/>
</svg>