<svg xmlns="http://www.w3.org/2000/svg" viewBox="0 -2048 2048 2048">
	<path fill="#000000" d="M921 -1070Q905 -1043 884 -1043Q896 -1037 901 -1023Q869 -986 812 -986Q793 -986 753.5 -996.5Q714 -1007 695 -1007Q681 -1007 652 -1004Q623 -1001 609 -1001Q615 -966 615 -968Q615 -960 610.5 -945.5Q606 -931 606 -924Q603 -801 603 -799L604 -783Q630 -761 630 -747Q630 -738 616 -725H600L596 -730Q591 -725 583 -725Q575 -725 559.5 -728Q544 -731 536 -731Q528 -731 513 -729.5Q498 -728 490 -728Q485 -728 475.5 -731Q466 -734 461 -734L453 -726Q443 -726 432 -734L433 -736Q432 -735 432 -725H402L397 -731L393 -722H379Q372 -722 359.5 -726.5Q347 -731 340 -731Q333 -731 318 -729.5Q303 -728 296 -728Q282 -728 268 -730L267 -733Q249 -725 248 -725Q244 -725 233 -736Q242 -751 269 -770Q290 -775 367 -784Q430 -917 430 -933Q430 -946 414.5 -995Q399 -1044 391 -1057Q357 -1079 324 -1101Q257 -1145 231 -1192Q211 -1229 211 -1251Q211 -1282 226 -1299Q237 -1309 256 -1332Q281 -1368 315 -1430Q315 -1430 307 -1430Q265 -1430 219 -1402.5Q173 -1375 158 -1338Q141 -1295 123 -1295H108Q107 -1296 107 -1296Q100 -1304 100 -1316Q100 -1365 143.5 -1418.5Q187 -1472 236 -1487Q245 -1489 261 -1495Q274 -1501 279 -1534Q316 -1561 349 -1561Q423 -1561 423 -1490Q423 -1459 391 -1406Q367 -1365 342 -1325V-1312Q353 -1312 373.5 -1318Q394 -1324 404 -1324Q425 -1324 495 -1305Q554 -1289 635 -1235Q701 -1191 767 -1147Q808 -1123 921 -1070ZM1798 128Q1798 171 1788 206Q1776 248 1720.5 297Q1665 346 1620 355Q1558 368 1463 368Q1407 368 1293 355.5Q1179 343 1123 343Q1090 343 1025 355.5Q960 368 927 368Q984 260 1166 260Q1180 260 1336 273Q1286 254 1255 220Q1248 212 921 -183Q945 -88 940 -46L913 170Q914 162 914 195Q914 234 928 279Q937 307 937 311Q937 371 883 371Q868 371 846.5 360.5Q825 350 818 350Q808 350 783 362Q758 374 747 374H522Q524 347 534 294Q579 282 667 256Q703 246 740 237Q781 220 781 182Q781 187 761 109Q733 12 705 -85Q672 -201 666 -282Q665 -291 661 -315Q658 -336 658 -348Q658 -431 712 -480Q746 -511 794 -511Q841 -511 918 -465Q975 -428 1032 -390Q1094 -350 1158 -306Q1145 -336 1125 -398Q1113 -447 1095 -569Q1004 -572 822 -581Q803 -582 751 -590Q706 -596 680 -596Q685 -596 616 -583Q568 -574 506 -574Q455 -574 367 -609Q349 -616 285 -680Q339 -694 340 -694Q345 -694 399.5 -673Q454 -652 497 -652Q481 -652 538 -654L539 -658Q538 -658 467 -666V-707Q535 -724 545 -724Q561 -724 609 -711.5Q657 -699 671 -700L843 -713Q922 -719 929 -719Q944 -719 1053 -715Q1066 -715 1090 -735Q1092 -776 1104 -858Q1107 -869 1130 -944Q1151 -1014 1151 -1018Q1151 -993 1140 -1134Q1056 -1145 1018 -1145H811Q787 -1145 762 -1166Q737 -1187 737 -1211Q737 -1216 738 -1220Q724 -1226 706 -1280Q695 -1301 674 -1342Q768 -1368 861 -1394Q991 -1434 1028 -1473Q1083 -1531 1108 -1531Q1136 -1531 1171 -1513Q1163 -1513 1226 -1533Q1277 -1549 1335 -1549Q1449 -1549 1515 -1517Q1593 -1480 1637 -1385Q1648 -1361 1648 -1305Q1648 -1189 1595 -1078Q1582 -1051 1582 -1051Q1582 -1049 1590 -1025Q1598 -1001 1599 -996Q1606 -967 1617 -908Q1632 -780 1630 -757L1582 -242Q1578 -202 1606 -121Q1611 -107 1657 -18Q1798 13 1798 128ZM1625 -1283Q1625 -1349 1615 -1377Q1603 -1395 1581 -1430Q1555 -1473 1489 -1501Q1430 -1526 1374 -1526Q1257 -1526 1188 -1494Q1231 -1457 1231 -1419Q1231 -1414 1208.5 -1380.5Q1186 -1347 1186 -1320Q1186 -1290 1231 -1265V-1249Q1211 -1239 1185 -1197.5Q1159 -1156 1159 -1134Q1159 -1048 1242 -1021Q1287 -1006 1395 -1006Q1443 -1006 1495 -1027Q1553 -1050 1573 -1087Q1625 -1185 1625 -1283ZM1135 -1415Q1135 -1421 1120 -1421H1116Q1101 -1421 1101 -1415Q1101 -1408 1116 -1408H1120Q1135 -1408 1135 -1415ZM1203 -1256Q1171 -1284 1164 -1311Q1143 -1281 1106 -1265Q1131 -1257 1180 -1232Q1192 -1247 1203 -1256ZM1205 -1419Q1205 -1446 1202 -1450Q1157 -1508 1113 -1508Q1095 -1508 1070 -1484Q1052 -1466 1034 -1447Q1006 -1422 966 -1407Q940 -1397 775 -1345Q777 -1340 777 -1333Q777 -1295 726 -1289Q729 -1270 743 -1243Q849 -1258 870 -1258Q935 -1258 934 -1232H928Q918 -1232 898 -1233.5Q878 -1235 868 -1235Q892 -1235 762 -1223Q759 -1212 759 -1211Q759 -1199 776 -1185Q793 -1171 805 -1171Q1015 -1171 1015 -1171Q1058 -1166 1142 -1157Q1147 -1185 1173 -1222L1044 -1263Q1085 -1279 1164 -1324Q1168 -1344 1173 -1360Q1143 -1343 1105 -1343Q1030 -1343 975 -1395Q1095 -1366 1107 -1366Q1147 -1366 1179 -1390L1182 -1385Q1184 -1390 1191 -1398Q1184 -1398 1171 -1400.5Q1158 -1403 1152 -1403Q1149 -1403 1134.5 -1395.5Q1120 -1388 1114 -1388Q1109 -1388 1103 -1391.5Q1097 -1395 1095 -1396Q1074 -1398 1033 -1403Q1049 -1421 1077 -1421Q1091 -1421 1096 -1440L1101 -1441Q1140 -1449 1192 -1399Q1205 -1415 1205 -1419ZM751 -1324V-1338Q736 -1334 706 -1326Q712 -1312 719 -1312Q751 -1312 751 -1324ZM866 -1071Q826 -1090 748 -1132Q666 -1186 585 -1240Q488 -1297 400 -1298L401 -1292Q401 -1272 370 -1262Q346 -1257 322 -1252Q326 -1233 337 -1225Q353 -1213 403 -1186Q606 -1078 866 -1071ZM273 -1452L271 -1457L252 -1447ZM868 -1027Q852 -1036 822 -1048Q765 -1053 653 -1071Q477 -1116 382 -1172Q295 -1223 295 -1251Q295 -1282 346 -1282Q347 -1282 387 -1298Q380 -1297 365 -1291.5Q350 -1286 344 -1286Q316 -1286 316 -1313Q316 -1320 358 -1396Q400 -1472 400 -1475Q400 -1538 350 -1538Q343 -1538 305 -1525Q285 -1490 285 -1479Q285 -1460 313.5 -1454Q342 -1448 342 -1434Q342 -1414 277 -1322Q264 -1308 240 -1279Q234 -1270 234 -1251Q234 -1231 249 -1204Q280 -1149 359 -1103Q424 -1065 490 -1028Q508 -1015 564 -963Q576 -952 576 -870V-782Q576 -763 503 -752Q516 -752 538 -752Q562 -751 572 -751Q583 -751 583 -751Q585 -755 592 -761Q580 -772 580 -786Q580 -798 583 -926Q583 -933 587.5 -947.5Q592 -962 592 -969Q592 -979 584.5 -1000Q577 -1021 577 -1032Q577 -1036 583 -1042Q591 -1042 600 -1033L601 -1024Q633 -1021 623 -1021Q635 -1021 659 -1025.5Q683 -1030 695 -1030Q714 -1030 753 -1019.5Q792 -1009 811 -1009Q836 -1009 868 -1027ZM268 -1468L266 -1478Q157 -1434 130 -1346Q137 -1356 143 -1368Q179 -1442 268 -1468ZM1706 119Q1706 113 1697.5 99.5Q1689 86 1684 85Q1685 90 1685 103Q1685 194 1588 262Q1638 248 1672 208.5Q1706 169 1706 119ZM1658 117Q1658 43 1642 5H1610Q1597 5 1557.5 15Q1518 25 1508 32Q1469 59 1450 86Q1426 121 1426 193Q1426 216 1457 273Q1468 275 1473 275Q1533 275 1595.5 225.5Q1658 176 1658 117ZM555 -800L554 -880Q553 -928 547.5 -941Q542 -954 507 -982Q493 -957 493 -930Q493 -918 485 -907Q472 -888 471 -886Q423 -786 423 -775Q423 -774 429.5 -762Q436 -750 435 -743Q445 -771 485 -774Q543 -778 549 -780.5Q555 -783 555 -800ZM1630 -19Q1614 -47 1587 -107Q1556 -202 1559 -238L1607 -756Q1611 -801 1594 -910Q1585 -966 1561 -1038Q1483 -980 1362 -980Q1222 -980 1171 -1035Q1171 -1016 1153 -954Q1114 -820 1114 -755L1412 -972Q1420 -964 1420 -959L1417 -953Q1357 -910 1238 -821Q1071 -692 1062 -692Q949 -696 934 -696Q926 -696 845 -690L669 -677Q653 -676 608 -688Q560 -701 544 -701Q532 -701 493 -690V-685Q549 -685 566 -673Q564 -667 562 -653Q558 -629 497 -629Q440 -629 391 -650Q342 -671 338 -671Q335 -671 327 -668Q407 -598 523 -598Q587 -598 659 -615Q676 -619 679 -619Q703 -619 745 -613Q793 -605 811 -604Q994 -592 1084 -592Q1119 -592 1182 -625Q1229 -651 1276 -677Q1294 -686 1330 -706Q1398 -755 1538 -849Q1546 -842 1546 -834V-829Q1233 -597 1117 -575V-568Q1117 -556 1131 -481.5Q1145 -407 1150 -393Q1189 -275 1189 -279Q1187 -276 1183 -276L1184 -270L1176 -269Q1080 -333 983 -397Q843 -488 794 -488Q745 -488 711 -441Q681 -399 681 -348Q681 -335 684 -313Q688 -286 689 -277Q695 -194 728 -78Q758 20 787 118Q804 182 804 184Q804 239 765 253Q753 257 552 311Q551 323 548 348H757Q762 348 786 337.5Q810 327 818 327Q831 327 847.5 336Q864 345 882 345Q914 345 914 314Q914 300 901.5 266Q889 232 889 216Q889 209 890 200L917 -47Q920 -76 901 -168Q887 -235 887 -226Q887 -236 892 -238Q981 -148 1120 23Q1209 132 1224 149Q1295 229 1342 252Q1376 269 1431 272Q1403 212 1403 197Q1403 94 1465 37Q1527 -20 1630 -19ZM490 -999Q490 -1005 422 -1039Q453 -939 453 -933Q453 -917 383 -762Q378 -761 301 -751H304Q311 -751 324 -752.5Q337 -754 344 -754Q351 -754 382 -749Q389 -761 401 -767L402 -766Q401 -769 400 -774Q400 -785 433 -850Q466 -915 466 -940Q466 -951 478 -974.5Q490 -998 490 -999ZM1775 128Q1775 56 1724 29Q1679 5 1665 5Q1671 23 1679 59Q1686 61 1699 67Q1707 71 1718 89.5Q1729 108 1729 116Q1729 179 1687 227.5Q1645 276 1583 285Q1572 287 1531 297Q1499 305 1479 305H1471L1192 284Q1159 282 1076 294Q1004 305 970 341Q1081 320 1129 320Q1185 320 1298 332.5Q1411 345 1467 345Q1574 345 1617 332Q1775 284 1775 128ZM351 -1503Q351 -1497 335 -1478H318Q307 -1489 307 -1500Q307 -1525 331 -1525Q351 -1525 351 -1503Z"/>
</svg>