<svg xmlns="http://www.w3.org/2000/svg" viewBox="0 -2048 2048 2048">
	<path fill="#000000" d="M2688 -163Q2688 -132 2685 -118L2676 -106H2641Q2624 -106 2615 -110Q2558 -134 2196 -429Q2102 -505 1883 -674Q1853 -657 1853 -586Q1853 -553 1873 -522.5Q1893 -492 1937 -464Q1974 -442 2011 -420V-293Q2011 -231 1998 -161Q1993 -135 1972 -117Q1947 -96 1933 -96H1821V-147Q1838 -170 1867 -177Q1896 -184 1909 -209V-217Q1909 -371 1893 -379Q1885 -383 1834 -401Q1783 -419 1776 -419Q1736 -379 1729 -326Q1728 -317 1728 -216Q1685 -212 1642 -175Q1599 -138 1582 -96H1442L1434 -104V-140Q1437 -142 1452 -153Q1467 -164 1502 -174Q1529 -182 1545 -207Q1602 -297 1610 -315Q1632 -364 1632 -441Q1632 -464 1617 -513Q1551 -507 1526 -507Q1527 -507 1458 -517Q1272 -544 1176 -544Q1161 -544 1114 -542Q1075 -540 1052 -541V-540Q1052 -524 1073 -458.5Q1094 -393 1104 -373Q1106 -370 1144 -313Q1169 -277 1169 -247V-239L1158 -244Q1172 -211 1172 -187Q1172 -179 1172 -162Q1171 -144 1171 -136Q1161 -126 1139 -110Q1111 -96 1005 -96Q1005 -102 1001.5 -112.5Q998 -123 998 -129Q998 -157 1022 -169Q1045 -178 1069 -187Q1033 -244 970 -363Q962 -396 943 -445Q941 -449 902 -460Q892 -425 864 -357Q838 -323 790 -253Q773 -225 757 -184Q752 -164 735 -127Q710 -96 678 -96H563Q554 -120 554 -132Q554 -172 591 -179Q610 -181 629 -184.5Q648 -188 660 -206Q737 -322 737 -447Q737 -506 692 -576Q650 -641 597 -675Q574 -690 530 -690Q475 -690 372 -652Q269 -614 214 -614Q202 -614 183 -631Q167 -636 151 -642Q126 -650 100 -692Q121 -704 173 -727Q240 -757 285 -810Q305 -835 353 -870Q370 -874 399 -893Q401 -896 415 -967Q426 -1021 463 -1021Q473 -1021 501 -999Q527 -1030 535 -1030Q578 -1030 604 -973Q635 -904 652 -893Q716 -853 987 -853H1043Q1079 -853 1340 -859Q1354 -859 1408 -861Q1450 -863 1476 -863Q1596 -863 1714 -852Q1726 -848 1751 -842Q1844 -825 2003 -710Q2120 -620 2237 -530Q2264 -513 2318 -479Q2409 -420 2499 -360Q2597 -290 2659 -214Q2688 -178 2688 -163ZM2661 -129V-175Q2628 -220 2560 -291Q2501 -336 2387 -410Q2331 -442 2222 -512Q2163 -561 2042 -654Q1972 -706 1827 -796Q1747 -837 1600 -836L836 -833Q713 -833 645 -868Q621 -880 591 -947Q563 -1007 538 -1007Q526 -1007 512 -955Q497 -900 479 -892Q434 -880 349 -842Q327 -827 297 -791Q267 -755 252 -744Q229 -727 170 -703Q177 -680 174 -659Q202 -660 257 -680Q299 -695 341 -711L354 -700L346 -690Q299 -671 204 -640Q211 -637 226 -637Q270 -637 375.5 -675Q481 -713 532 -713Q612 -713 691 -629Q801 -513 923 -477Q937 -473 962 -461Q973 -401 1021 -315Q1061 -245 1100 -175L1086 -169L1091 -157L1088 -151L1082 -147Q1092 -150 1105 -150Q1121 -150 1119 -131Q1105 -129 1080 -120Q1082 -120 1086 -119Q1118 -119 1145 -147V-218Q1145 -222 1132.5 -245Q1120 -268 1120 -275Q1120 -291 1131 -288Q1114 -310 1085 -358Q1065 -397 1042 -481Q1038 -507 1029 -540Q1007 -559 968 -595L982 -609Q1057 -558 1059 -558Q1074 -558 1119 -564Q1159 -569 1178 -567L1410 -544Q1531 -532 1527 -532Q1522 -532 1646 -537L1637 -554Q1643 -561 1651 -561H1656Q1673 -533 1718.5 -491Q1764 -449 1792 -436Q1831 -424 1909 -398Q1922 -376 1924 -340Q1932 -208 1932 -213Q1932 -195 1917 -177Q1902 -159 1885 -157Q1872 -157 1847 -142V-123H1854Q1876 -153 1893 -153Q1906 -153 1906 -144Q1906 -139 1886 -123H1894Q1903 -133 1921 -153Q1929 -145 1929 -138Q1929 -132 1923 -123H1936Q1943 -123 1958 -139Q1973 -155 1975 -163Q1988 -221 1988 -294Q1988 -313 1986.5 -351.5Q1985 -390 1985 -409Q1927 -443 1913 -453Q1871 -481 1853 -510Q1830 -546 1830 -585Q1830 -626 1862 -688Q1836 -704 1794 -747Q1803 -752 1807 -752Q1818 -752 2466 -239Q2585 -145 2624 -132Q2633 -129 2661 -129ZM1756 -432Q1711 -458 1661 -516Q1655 -512 1642 -513Q1655 -456 1655 -441Q1655 -351 1623 -288Q1581 -206 1544 -169L1540 -165H1544Q1546 -161 1553 -161Q1543 -146 1506 -123H1518Q1537 -150 1567 -150Q1580 -150 1580 -141Q1632 -223 1702 -235Q1702 -314 1707 -341Q1717 -388 1756 -432ZM1574 -131Q1572 -129 1554 -123H1570ZM1503 -150Q1476 -144 1461 -130V-123H1470Q1478 -136 1503 -150ZM494 -977Q466 -998 462 -998Q445 -998 425 -898Q443 -904 477 -919Q484 -950 494 -977ZM1061 -161Q1022 -150 1022 -129V-126Q1025 -143 1061 -161ZM1056 -131Q1052 -128 1048 -123H1051Q1052 -126 1056 -131ZM880 -469Q803 -494 729 -557Q760 -490 760 -446Q760 -381 728 -291Q691 -187 644 -164Q647 -165 652 -165Q656 -165 654 -158Q657 -160 659 -160Q661 -160 661 -159Q653 -143 638 -137Q619 -130 613 -123H630Q666 -153 681 -153Q693 -153 693 -145V-139Q684 -130 670 -123H681Q703 -123 718 -144Q731 -176 756 -237Q767 -264 813 -327Q853 -381 862 -420Q863 -425 873 -446Q881 -464 880 -469ZM170 -659Q157 -684 143 -683V-691L133 -687Q153 -662 170 -659ZM625 -158Q610 -156 594 -154Q577 -149 577 -131Q577 -128 579 -123H586Q596 -146 625 -158ZM614 -875Q586 -892 552 -925L540 -922Q528 -900 503 -856V-890Q503 -906 527 -943Q553 -948 555 -948Q570 -948 614 -875ZM463 -790Q456 -789 428.5 -779Q401 -769 395 -769Q390 -769 386 -772Q368 -764 350 -764Q394 -814 407 -814Q415 -814 463 -790Z"/>
</svg>