<svg xmlns="http://www.w3.org/2000/svg" viewBox="0 -2048 2048 2048">
	<path fill="#000000" d="M2305 -239Q2305 -247 2292 -185H2277Q2256 -185 2249 -206Q2249 -207 2241 -262Q2224 -386 2158 -464Q2159 -460 2174 -399Q2184 -358 2184 -333Q2184 -270 2156 -206Q2115 -114 2109 -90Q2094 -35 2094 31Q2094 35 2132 276L2119 323Q2095 306 2049 268L1888 326Q1882 318 1884 308Q1868 318 1846 318H1823L1825 296Q1786 320 1748 320Q1747 291 1794 256Q1830 232 1866 208Q1865 197 1865 175Q1865 114 1880 58L1775 -73V-66Q1775 -38 1781 14.5Q1787 67 1787 93Q1780 110 1755 138Q1730 166 1723 183Q1722 185 1719 201Q1706 269 1686 286Q1678 293 1602 321V302Q1602 297 1607 286Q1548 318 1467 318L1475 300Q1455 312 1415 312H1393Q1400 292 1420 261Q1462 244 1531 189Q1536 182 1550 116L1521 -57Q1406 -38 1377 -38Q1319 -38 1040 -86Q1028 -36 1028 -26Q1028 21 1049 97Q1063 148 1063 148Q1063 152 1046.5 179.5Q1030 207 1021 244Q1009 298 1005.5 308.5Q1002 319 991 319Q987 319 972 310Q954 299 950 298Q949 290 939 286Q903 316 858 316L855 302Q838 306 804 313L800 307Q792 307 766 310Q744 312 731 312Q758 285 806 225Q840 171 840 144Q840 136 815.5 42.5Q791 -51 785 -65Q756 -1 748 54Q746 85 728 144Q695 178 640 259Q622 299 581 312Q564 317 531 327Q531 319 536 286Q498 307 453 329Q453 318 455 303Q431 318 369 318Q383 293 417 247Q456 214 496 180Q545 136 553 100Q560 67 559 0Q558 -67 566 -100Q568 -108 599 -162Q432 -214 311 -339Q300 -358 274 -394Q195 -486 157 -585Q130 -656 103 -803Q100 -819 100 -859Q100 -871 101 -895Q101 -918 101 -930Q101 -1044 202 -1197Q209 -1207 244 -1241Q241 -1248 236 -1263Q224 -1298 224 -1360V-1367Q247 -1378 254 -1378Q275 -1378 306 -1356Q337 -1334 342 -1334Q389 -1364 437 -1393Q486 -1418 546 -1418Q563 -1418 596 -1412.5Q629 -1407 646 -1407Q714 -1407 801 -1475Q888 -1543 926 -1543Q944 -1543 977 -1492Q1024 -1418 1024 -1377Q1024 -1374 1022 -1368.5Q1020 -1363 1020 -1360Q1020 -1354 1048 -1309Q1010 -1283 996 -1287V-1286Q985 -1282 964 -1271H948Q940 -1288 930 -1312Q909 -1306 855 -1307Q807 -1308 786.5 -1298Q766 -1288 753 -1265Q760 -1250 772 -1220Q749 -1210 737 -1202L732 -1208L733 -1198Q719 -1194 701 -1182H684Q677 -1197 663 -1215Q614 -1200 614 -1125Q614 -1104 630.5 -1074Q647 -1044 665 -1033Q689 -1022 738 -1001H892Q946 -1042 957 -1055Q985 -1086 985 -1133Q985 -1170 953.5 -1199Q922 -1228 885 -1228Q853 -1228 771 -1156Q760 -1163 761 -1174Q832 -1250 885 -1250Q919 -1250 957.5 -1225Q996 -1200 1004 -1169Q1008 -1153 1008 -1135Q1008 -1063 932 -1004Q994 -1005 1034 -1029L1023 -1042Q1025 -1071 1049 -1071Q1052 -1071 1055 -1069.5Q1058 -1068 1060 -1068Q1068 -1068 1118 -1093Q1141 -1061 1141 -1055Q1141 -1050 1136 -1041.5Q1131 -1033 1130 -1029Q1144 -1019 1144 -981Q1144 -923 1076 -910Q1031 -905 940 -894Q823 -880 798 -880Q776 -880 732 -886Q688 -892 666 -892Q655 -892 593 -865L591 -860Q600 -860 620.5 -857Q641 -854 652 -854Q663 -854 685 -857Q707 -860 718 -860Q766 -860 861.5 -849Q957 -838 1005 -838Q1006 -838 1130 -849Q1412 -874 1470 -874Q1734 -874 1930 -791Q1983 -768 2079 -699Q2160 -641 2192 -577Q2211 -545 2245 -478Q2259 -450 2281 -393Q2305 -304 2305 -239ZM1016 -1316Q1013 -1323 1005 -1337Q1004 -1336 996 -1330L1005 -1313ZM975 -1301Q972 -1314 971 -1321L953 -1316Q956 -1309 963 -1296Q964 -1297 975 -1301ZM1118 -1055Q1118 -1061 1110 -1066Q1104 -1066 1085.5 -1055.5Q1067 -1045 1051 -1046Q1052 -1043 1056 -1037Q1075 -1045 1086 -1045H1098Q1104 -1045 1112 -1042Q1115 -1047 1118 -1055ZM746 -1231Q741 -1240 736 -1251Q732 -1249 726 -1245Q731 -1240 742 -1230ZM709 -1213L703 -1232Q696 -1229 686 -1223L697 -1206ZM2283 -240Q2283 -292 2259 -386Q2257 -393 2229 -458Q2210 -491 2177 -560Q2154 -614 2065 -682Q1843 -851 1463 -851Q1406 -851 1129 -826Q1007 -815 1007 -815Q959 -815 862 -826Q765 -837 717 -837Q706 -837 684 -834Q662 -831 651 -831Q637 -831 574 -841Q563 -848 566 -857Q529 -862 493 -907Q462 -946 449 -988Q472 -959 520 -903Q536 -889 567 -862Q573 -884 599 -894Q623 -901 646 -907Q562 -964 562 -990Q562 -1003 571 -1003Q570 -1003 617 -957Q664 -911 713 -909Q688 -921 656 -947Q617 -978 617 -996Q617 -1007 626 -1008Q629 -1007 663 -968Q684 -944 731 -923Q778 -902 811 -902Q908 -902 1074 -933Q1121 -942 1121 -980Q1121 -1007 1113 -1013Q1105 -1019 1078 -1019Q1070 -1019 1020 -996Q976 -976 846 -976Q750 -976 710 -986Q636 -1006 607 -1069Q591 -1104 591 -1123Q591 -1145 605 -1179.5Q619 -1214 635 -1225Q669 -1238 730 -1273Q739 -1288 763 -1313Q791 -1330 874 -1330Q1003 -1330 1003 -1378Q1003 -1396 970 -1458Q937 -1520 923 -1520Q893 -1520 848 -1484Q784 -1432 779 -1429Q701 -1384 646 -1384Q629 -1384 597 -1390Q565 -1396 548 -1396Q482 -1396 423 -1360Q375 -1332 307 -1279L287 -1270Q289 -1271 294 -1271Q307 -1271 334 -1255Q366 -1235 374 -1233Q393 -1227 393 -1219Q393 -1211 389 -1202L348 -1222Q361 -1213 401 -1177Q372 -1192 312 -1212Q309 -1205 309 -1199Q309 -1194 312 -1186Q315 -1178 315 -1173V-1134Q287 -1181 287 -1199Q287 -1211 296 -1238Q307 -1236 328 -1231L296 -1247L287 -1243Q282 -1215 282 -1195Q282 -1188 285 -1174.5Q288 -1161 288 -1154Q288 -1141 278 -1130Q258 -1143 258 -1201Q258 -1209 262 -1231Q174 -1136 141 -1009Q126 -951 126 -934Q126 -923 126 -900Q125 -877 125 -866Q125 -743 199 -552Q206 -530 226 -489Q249 -463 291 -408Q385 -266 558 -197Q618 -173 741 -164Q715 -194 666 -257Q612 -337 612 -363Q612 -375 620 -375L625 -373Q683 -252 782 -155Q782 -153 781 -148Q781 -136 788 -117Q863 91 863 144Q863 160 839.5 205.5Q816 251 802 265L810 267Q823 252 851 225Q856 235 856 242Q856 250 850 257Q862 261 866 261Q867 261 876.5 251Q886 241 892 241Q904 241 905 249L890 273Q903 282 907 282Q909 282 921 271.5Q933 261 939 261Q945 261 955.5 270Q966 279 968 279Q976 279 991 271Q995 249 1007 207Q1018 186 1040 145Q1036 130 1027 100Q1006 22 1006 -26Q1006 -70 1030 -123Q1060 -190 1065 -212Q1066 -215 1084 -353H1092Q1099 -353 1104 -347V-333Q1104 -237 1047 -106Q1129 -92 1211 -77Q1309 -60 1377 -60Q1443 -60 1609 -96Q1620 -98 1723 -136Q1704 -158 1670 -205Q1622 -287 1622 -321Q1622 -335 1629 -335Q1641 -335 1663 -282Q1690 -216 1691 -214Q1702 -197 1806 -71Q1903 48 1903 52Q1903 63 1897 83Q1891 103 1891 114V218Q1863 237 1809 276L1813 279Q1835 263 1875 247L1878 252L1884 251Q1880 265 1863 276L1875 288Q1894 276 1933 251L1941 259V268L1962 275L2053 243Q2062 249 2079 264H2107Q2071 86 2071 34Q2071 -40 2093 -111Q2096 -121 2137 -216Q2161 -270 2161 -331Q2161 -361 2143.5 -420Q2126 -479 2126 -508Q2126 -514 2134 -520Q2240 -428 2264 -266Q2266 -248 2271 -212L2275 -210Q2283 -237 2283 -240ZM1928 287L1923 285L1920 290ZM320 -1322Q261 -1355 255 -1355Q254 -1355 250 -1354Q250 -1348 248 -1334Q246 -1320 246 -1312Q246 -1311 261 -1261Q294 -1298 320 -1322ZM1764 90Q1764 10 1752 -103L1738 -120Q1676 -94 1546 -61Q1573 52 1573 116Q1573 118 1568 146Q1558 203 1531 224Q1493 246 1455 268L1465 279L1590 205Q1566 229 1514 273Q1528 284 1534 284Q1569 284 1592.5 263.5Q1616 243 1639 221Q1640 242 1632 258Q1644 262 1668 267Q1681 250 1689 219Q1699 180 1705 168Q1708 161 1737 125Q1764 92 1764 90ZM1791 288L1787 287Q1784 290 1782 292ZM1641 284L1632 282L1631 288ZM1441 286Q1439 283 1435 280Q1433 283 1430 288ZM849 281L837 277L833 286Q839 285 849 281ZM774 -95Q774 -103 757 -138Q710 -139 620 -155Q605 -131 589 -97Q584 -72 578 71Q576 119 552 151Q524 188 451 253Q460 257 466 267Q477 258 479 249Q489 249 492 255Q508 244 540 222L554 235Q541 245 514 265Q521 267 526 267Q528 267 550.5 248Q573 229 580 229Q592 229 592 238Q592 240 565 267Q582 273 598 280Q609 259 634 220Q669 181 712 126Q722 103 727 62Q732 13 737 -4Q739 -11 756.5 -52Q774 -93 774 -95ZM566 291L558 288L556 294ZM493 284L487 282L484 288ZM452 277Q448 277 429 269Q421 279 412 293Q426 293 452 277ZM950 -1453Q950 -1460 926 -1413H868Q858 -1413 858 -1427Q858 -1435 888 -1481Q935 -1485 924 -1485Q950 -1485 950 -1453ZM624 -1363Q608 -1353 593 -1353Q585 -1353 571 -1357Q557 -1361 549 -1361Q502 -1361 481 -1335Q471 -1322 450 -1267H430Q446 -1328 467 -1352Q495 -1384 551 -1384Q561 -1384 624 -1363ZM591 -1271Q591 -1264 581 -1254.5Q571 -1245 564 -1245Q560 -1245 528 -1256V-1294Q560 -1305 561 -1305Q591 -1305 591 -1271ZM622 -1323L617 -1310Q561 -1326 554 -1326Q505 -1326 462 -1232Q462 -1349 556 -1349Q569 -1349 622 -1323ZM927 -1455Q926 -1458 924 -1462H911Q902 -1462 890 -1439H916Q924 -1449 927 -1455ZM568 -1271V-1275Q565 -1280 559 -1283Q557 -1283 551 -1279V-1273L562 -1268Z"/>
</svg>