<svg xmlns="http://www.w3.org/2000/svg" viewBox="0 -2048 2048 2048">
	<path fill="#000000" d="M1550 -652Q1550 -649 1470 -528Q1419 -438 1306 -265Q1295 -263 1284 -263Q1266 -263 1229 -283Q1180 -311 1174 -313Q1154 -321 1115 -336Q1111 -329 1099 -298Q1071 -229 990 -205Q864 -167 858 -163Q802 -129 802 -98Q802 -54 829 -39Q872 -16 880 -4Q894 16 894 61Q894 76 877 89Q869 99 854 118Q849 118 838 120.5Q827 123 821 123Q810 123 782.5 118Q755 113 742 114L594 131Q564 134 492 104Q485 134 452 194Q421 230 359 253Q306 273 254 292Q212 318 128 368L109 349Q194 259 268 223Q310 205 352 187Q398 164 421 127Q438 99 438 64Q438 62 431.5 46.5Q425 31 424 27Q417 -2 417 -26Q417 -38 419 -46Q408 -90 295 -123Q228 -143 168 -192Q130 -224 100 -246Q99 -257 111 -280Q153 -252 240 -200Q275 -181 318 -171Q340 -169 382 -160Q430 -142 453 -113Q459 -138 473 -188Q486 -188 495 -183Q572 -325 598 -390Q646 -509 646 -613Q646 -640 639 -702.5Q632 -765 632 -794Q631 -873 597 -1030Q563 -1184 563 -1265Q563 -1406 629 -1459Q657 -1481 753 -1488Q764 -1489 784 -1491Q792 -1491 992 -1494Q1022 -1494 1098 -1525Q1145 -1544 1232 -1544Q1191 -1508 1154 -1488H1242Q1291 -1488 1352 -1512Q1357 -1514 1381 -1529Q1402 -1542 1407 -1542Q1413 -1542 1424 -1537.5Q1435 -1533 1441 -1533Q1456 -1533 1484 -1540Q1494 -1519 1518 -1479Q1518 -1471 1507 -1464Q1511 -1451 1516 -1426Q1484 -1430 1434 -1443Q1419 -1451 1417 -1451Q1408 -1451 1292 -1408Q1315 -1408 1364 -1412.5Q1413 -1417 1438 -1417Q1445 -1417 1450 -1409Q1456 -1398 1459 -1396Q1476 -1391 1509 -1378Q1517 -1359 1531 -1317Q1524 -1310 1518 -1312Q1523 -1300 1532 -1277Q1501 -1282 1419 -1323Q1407 -1329 1333 -1329Q1293 -1329 1265 -1324Q1243 -1324 1205 -1314Q1203 -1313 1106 -1217Q1094 -1205 1086 -1201L1077 -1204L1076 -1196Q1067 -1185 1067 -1179Q1067 -1165 1073 -1165Q1076 -1165 1080.5 -1167Q1085 -1169 1088 -1169Q1096 -1169 1119 -1157Q1109 -1131 1080 -1128L1079 -1126Q1082 -1125 1095.5 -1125Q1109 -1125 1117 -1111Q1117 -1093 1096.5 -1088.5Q1076 -1084 1075 -1079Q1089 -1075 1112 -1075L1111 -1068Q1110 -1062 1116 -1051Q1099 -1033 1078 -1037Q1089 -1031 1094 -1016Q1086 -999 1067 -999Q1062 -999 1052 -1005Q1042 -1011 1039 -1011Q1032 -1011 1018 -991Q998 -963 998 -897Q998 -874 1025 -808Q1059 -725 1062 -716Q1087 -633 1098 -588Q1102 -560 1113 -503Q1129 -499 1158 -485Q1189 -459 1251 -407Q1275 -434 1275 -523Q1275 -540 1248 -601Q1253 -612 1269 -624V-628Q1269 -636 1266.5 -651Q1264 -666 1264 -672Q1288 -692 1337 -732Q1342 -722 1344 -713L1365 -724Q1366 -710 1366 -680Q1366 -664 1355 -510Q1359 -515 1381 -571Q1401 -619 1407 -619Q1411 -619 1414 -617.5Q1417 -616 1419 -616Q1424 -616 1427 -635Q1431 -660 1432 -662Q1492 -672 1491 -672Q1501 -672 1505 -666H1540Q1550 -666 1550 -652ZM1485 -1489Q1477 -1505 1471 -1515Q1459 -1512 1452 -1512Q1456 -1504 1463 -1489ZM1485 -1455L1483 -1462H1463L1462 -1460ZM1499 -1340Q1489 -1365 1471 -1369V-1350Q1489 -1343 1499 -1340ZM1498 -1308Q1494 -1318 1462 -1329L1460 -1322Q1472 -1316 1498 -1308ZM1449 -1376Q1441 -1381 1432 -1394Q1350 -1382 1231 -1382Q1195 -1382 1130 -1276Q1148 -1296 1188 -1332Q1195 -1337 1247 -1344Q1305 -1352 1334 -1352Q1423 -1352 1441 -1336Q1444 -1347 1449 -1376ZM1144 -1483Q1076 -1449 870 -1442Q987 -1411 1028 -1411Q1064 -1411 1144 -1483ZM1516 -640H1499Q1494 -630 1486 -610Q1491 -607 1494 -607Q1501 -615 1516 -640ZM1475 -646L1450 -641Q1449 -633 1445 -617L1464 -616ZM1074 -1023Q1067 -1023 1048 -1032L1050 -1020L1054 -1026Q1060 -1023 1067 -1014ZM1349 -699L1334 -690Q1335 -679 1338 -658H1341Q1349 -658 1349 -699ZM1319 -649V-689Q1286 -661 1286 -658Q1286 -653 1291 -631Q1300 -637 1319 -649ZM1483 -586Q1457 -594 1442 -596Q1439 -590 1432 -590Q1423 -590 1415 -593Q1405 -566 1382 -513Q1369 -497 1355 -473Q1350 -452 1348 -369ZM1444 -1475Q1444 -1475 1425 -1515L1410 -1519Q1393 -1507 1357 -1490Q1267 -1462 1153 -1462Q1067 -1388 1031 -1388Q992 -1388 919 -1409Q846 -1430 809 -1430Q809 -1430 700 -1386Q741 -1422 770 -1442Q757 -1443 650 -1442Q742 -1465 750 -1465Q870 -1465 936 -1467Q1090 -1472 1168 -1521Q1140 -1518 1078 -1493Q1021 -1471 986 -1471Q784 -1471 688 -1461Q635 -1455 605 -1382Q583 -1326 583 -1262Q583 -1257 585.5 -1247.5Q588 -1238 588 -1234Q608 -1130 644 -920Q669 -759 669 -612Q669 -447 513 -169Q531 -151 545 -102Q550 -84 573 -47Q530 -67 521 -106Q512 -145 490 -159Q485 -144 483 -132L500 -138Q507 -115 513 -91Q519 -74 546 -51H541Q526 -51 514 -57Q523 -48 542 -16Q521 -28 483 -56L488 -45Q469 -44 446.5 -85Q424 -126 351 -143Q251 -167 235 -176Q212 -191 167 -221Q233 -163 300 -145Q372 -125 399 -107Q436 -80 457 -19L451 -18Q446 -17 438 -22L437 -17Q437 19 461 47Q514 109 595 109Q593 109 742 91Q755 89 782.5 94.5Q810 100 821 100Q825 100 843 97Q857 79 857 75Q857 70 853 48L844 69H798L806 43L853 48Q844 0 830 -10Q799 -32 794 -38Q796 -60 778 -94Q723 -111 642 -137H695Q710 -137 785 -115Q796 -133 808 -151.5Q820 -170 838 -178Q896 -197 1011 -236Q1063 -255 1095 -342Q1077 -347 1059 -347Q1033 -347 982.5 -343.5Q932 -340 906 -340Q847 -340 773 -389Q793 -387 832 -378Q884 -357 921 -360L1056 -372Q1090 -375 1180 -335Q1181 -335 1232 -307Q1270 -286 1282 -286Q1316 -286 1322 -341Q1328 -389 1337 -521Q1343 -604 1343 -625V-632Q1336 -632 1306.5 -617.5Q1277 -603 1274 -598L1298 -525Q1292 -486 1285.5 -446.5Q1279 -407 1259 -372Q1223 -408 1143 -468Q1134 -473 1094 -483Q1025 -500 926 -559L932 -571Q977 -547 1091 -507Q1083 -582 1037 -717Q1019 -762 1001 -806Q975 -870 975 -894Q975 -988 1027 -1034Q1042 -1047 1046 -1056Q1061 -1087 1061 -1107Q1061 -1116 1048 -1161Q1003 -1125 969 -1114Q925 -1103 882 -1093Q876 -1103 875 -1115Q911 -1121 981 -1141Q1032 -1161 1088 -1248Q1131 -1314 1174 -1381Q1179 -1387 1202 -1396Q1207 -1407 1224 -1407Q1241 -1407 1321.5 -1440Q1402 -1473 1417 -1473Q1425 -1473 1441 -1466Q1443 -1469 1444 -1475ZM880 69Q874 44 862 -5L853 4Q872 12 872 59Q872 63 869 66ZM496 -76Q492 -90 483 -118Q488 -88 496 -76ZM470 89L459 81Q455 100 441 137Q415 185 369 204Q263 249 197 299Q211 290 239 273Q304 248 368 222Q443 188 460 127Q464 112 470 89ZM678 37Q621 54 614 54Q591 54 578 10Q586 12 591 12Q594 12 600 10Q606 8 610 8Q618 8 631 22Q652 24 678 37Z"/>
</svg>