<svg xmlns="http://www.w3.org/2000/svg" viewBox="0 -2048 2048 2048">
	<path fill="currentColor" d="M2161 -737Q2042 -713 2023 -713Q2019 -713 1744 -874Q1627 -943 1390 -1074Q1366 -1086 1207 -1157V-898Q1265 -882 1287 -839Q1307 -800 1307 -762Q1307 -716 1284 -681Q1269 -658 1206 -624V-191Q1210 -191 1337 -237Q1505 -298 1614 -298Q1687 -298 1765 -276Q1778 -268 1803 -253Q1891 -209 1919 -131Q1929 -112 1943 -71Q1951 -36 1951 7Q1951 23 1922 135Q1954 127 1978 108Q2065 36 2082 -32Q2089 -61 2089 -99Q2089 -109 2092 -127.5Q2095 -146 2095 -155Q2095 -170 2077.5 -215.5Q2060 -261 2050 -276Q2028 -310 1973 -373Q1940 -403 1930 -403Q1925 -403 1916.5 -401.5Q1908 -400 1903 -400Q1861 -400 1826 -413Q1809 -419 1789.5 -441Q1770 -463 1770 -479Q1770 -500 1802 -514Q1828 -525 1853 -525Q1872 -525 1924 -505Q1924 -505 1960 -481Q1965 -459 1984 -443Q2115 -336 2146 -190Q2150 -171 2150 -118Q2150 1 2103 64Q2032 159 1954 186Q1925 196 1892 199Q1832 258 1783 258H1775L1367 240Q1358 240 1338 246Q1318 252 1309 252Q1301 252 1285 241.5Q1269 231 1251 231Q1218 255 1209 255Q1182 255 1153 241Q1151 246 1144 246Q1135 246 1118 233V228Q1120 201 1120 210Q1120 206 1114 196.5Q1108 187 1108 181Q1108 175 1120 140Q1187 116 1191 116Q1201 116 1224.5 124Q1248 132 1258 133Q1333 141 1373 137L1574 118Q1523 110 1420 98Q1408 97 1285 97Q1198 97 1100 147Q986 205 928 205Q886 205 864 202Q862 212 854 234Q824 253 769 253Q699 253 559.5 249.5Q420 246 350 246Q342 246 326.5 247.5Q311 249 303 249Q297 249 283 237Q269 225 254 225Q249 225 233.5 241.5Q218 258 198 258H143V247Q133 243 114 233V227Q114 223 115 215.5Q116 208 116 204Q116 192 100 191Q106 168 122 139Q193 125 193 125Q208 125 253 140Q298 155 312 155Q342 155 395 148Q464 139 478 138Q516 136 555.5 134Q595 132 627 113Q656 96 658 61L614 15V-81Q614 -83 602 -104Q524 -34 504 -34Q444 -34 433 -88Q416 -86 421 -86Q409 -86 369 -113Q333 -139 322 -152Q316 -159 316 -176Q316 -200 357 -259Q384 -284 430 -342Q439 -360 461 -394Q536 -483 549 -483Q574 -483 596 -460Q606 -474 647 -474Q661 -474 673 -463Q688 -449 693 -447Q713 -443 751 -433Q803 -418 839 -375Q871 -332 903 -289Q960 -223 1012 -206Q1028 -204 1059 -198Q1119 -182 1102 -182Q1103 -182 1119 -184V-670Q1213 -678 1213 -762Q1213 -805 1186 -822Q1172 -831 1120 -840V-1196Q936 -1276 833 -1308Q775 -1184 639 -1091Q592 -1059 501 -1059Q342 -1059 284 -1171Q252 -1233 233 -1325Q231 -1341 228 -1374Q147 -1357 147 -1357Q131 -1357 116 -1374Q101 -1391 101 -1407Q101 -1430 119 -1445Q151 -1472 352 -1472Q345 -1472 462 -1464Q510 -1461 605 -1453Q625 -1451 752 -1422Q809 -1410 922 -1381Q958 -1367 1030 -1341Q1504 -1178 2161 -737ZM2107 -749Q1462 -1164 1058 -1307Q1009 -1328 910 -1362Q636 -1435 467 -1441Q450 -1442 409 -1445Q372 -1449 351 -1449Q233 -1449 137 -1430Q124 -1414 124 -1409Q124 -1403 132 -1391.5Q140 -1380 145 -1380Q160 -1380 192 -1390.5Q224 -1401 239 -1401Q369 -1401 444 -1394Q457 -1393 599 -1372Q668 -1364 802 -1340Q892 -1317 1125 -1220Q1376 -1116 1683 -937Q2028 -736 2027 -736Q2039 -736 2107 -749ZM1284 -763Q1284 -805 1258 -838Q1229 -875 1189 -874L1180 -883V-1171L1143 -1186V-859Q1172 -856 1204 -834Q1239 -809 1239 -783Q1239 -662 1144 -648V-187Q1169 -189 1179 -188V-636Q1238 -668 1253 -683Q1284 -713 1284 -763ZM818 -1313Q791 -1321 600 -1349Q404 -1378 306 -1378Q271 -1378 252 -1376V-1374Q252 -1297 306 -1181Q314 -1173 327 -1159Q388 -1082 504 -1082Q566 -1082 628 -1112Q645 -1126 673 -1150Q749 -1213 818 -1313ZM2127 -132Q2127 -257 2027 -370Q2001 -392 1954 -439Q1951 -447 1943 -463Q1934 -476 1901.5 -489Q1869 -502 1851 -502Q1796 -502 1796 -479Q1796 -423 1903 -423Q1908 -423 1919 -424.5Q1930 -426 1935 -426Q1975 -426 2032 -345Q2076 -282 2098 -227Q2118 -176 2118 -138Q2118 -102 2113 -59Q2105 6 2035 82Q1962 161 1899 160Q1893 150 1893 143Q1893 151 1911 92Q1928 36 1928 -20Q1928 -89 1876 -159Q1826 -226 1760 -254Q1711 -275 1570 -275Q1566 -275 1558 -272.5Q1550 -270 1547 -270Q1480 -263 1382 -226Q1252 -178 1220 -169Q1183 -159 1099 -159Q1103 -159 1063 -173Q1041 -175 997 -187Q942 -212 902 -255Q899 -258 887 -275Q860 -313 798 -384Q784 -398 708 -420Q711 -414 711 -410Q711 -367 676 -294Q696 -226 696 -215Q696 -175 675 -156Q647 -138 620 -120Q639 -82 640 -64Q639 -82 639 8Q648 17 665 35Q666 20 672 -10Q685 -46 742 -84Q703 -27 680 67Q669 110 639 133Q638 134 607 143Q592 148 474 161Q325 178 311 178Q296 178 251.5 163Q207 148 193 148H191Q179 162 153 187Q136 200 136 218Q136 223 145 223Q145 204 183 171Q187 183 187 191Q187 196 187 196Q171 207 167 233Q185 232 185 227Q185 215 200 195Q209 218 207 229H208Q216 229 229 214.5Q242 200 250 200Q267 200 308 226Q351 226 545 228Q690 230 782 230Q798 230 809 229Q836 226 846 179Q857 126 882 115Q876 153 868 178Q878 179 893 179Q979 179 1101 121Q1129 108 1174 98Q1234 85 1249 80Q1277 71 1269 71H1401Q1395 71 1617 107L1616 114L1630 113Q1598 91 1551 46Q1528 10 1528 -36Q1528 -49 1546.5 -84.5Q1565 -120 1576 -124Q1634 -146 1653 -146Q1684 -146 1744 -112H1707Q1701 -112 1688 -116Q1675 -120 1668 -120Q1622 -120 1585 -102Q1578 -98 1564.5 -71Q1551 -44 1551 -35Q1551 16 1597 61Q1640 96 1683 131L1480 149Q1378 158 1379 158Q1244 158 1208 143Q1140 190 1140 217L1142 222Q1150 192 1159.5 184.5Q1169 177 1204 171Q1194 185 1167 206Q1166 219 1165 225Q1170 227 1180 233V230Q1180 186 1221 185Q1223 190 1223 199Q1223 203 1222 207Q1214 207 1207 212L1203 227Q1205 232 1209 232Q1211 232 1226.5 220.5Q1242 209 1249 209Q1265 209 1287 219Q1309 229 1309 229Q1317 229 1335.5 223Q1354 217 1363 217L1761 236Q1831 239 1880 175Q1885 173 1897 173Q1900 173 1904.5 174.5Q1909 176 1912 176Q1907 176 1931 168Q2020 139 2083 51Q2127 -10 2127 -132ZM1204 142L1194 139Q1175 144 1156 150Q1132 158 1131 174Q1151 159 1204 142ZM562 -454L553 -458L546 -450ZM688 -406Q688 -419 672 -435Q656 -451 643 -451Q621 -451 561 -396Q563 -418 571 -432Q537 -425 516 -412Q491 -397 458 -340Q451 -328 388 -259Q341 -207 338 -168Q344 -164 355 -156Q355 -157 348 -191Q351 -194 370 -203L416 -194Q389 -181 373 -180Q372 -169 368 -146Q410 -113 428 -113Q441 -113 497 -159Q513 -172 545 -188Q531 -172 502 -141Q452 -94 452 -93Q452 -79 469 -68Q486 -57 501 -57Q515 -57 592 -128Q619 -144 669 -182Q672 -200 672 -224Q672 -250 657 -295Q688 -340 688 -406ZM179 151Q177 151 135 160Q132 166 126 177V178Q127 179 129 179Q130 179 154 163Q157 161 179 151ZM559 -292Q544 -284 538 -285Q525 -266 515 -266Q518 -266 501 -272Q462 -264 473 -264Q482 -280 490 -296Q501 -316 515 -316Q530 -316 559 -292ZM516 -292H514L513 -290Q511 -291 505 -293L512 -286L513 -290L515 -289Z"/>
</svg>