<svg xmlns="http://www.w3.org/2000/svg" viewBox="0 -2048 2048 2048">
	<path fill="currentColor" d="M2159 -212Q2159 -175 2141 -62L2035 -323V-465Q2035 -469 2046 -574L2069 -793Q2069 -793 2069 -905Q2069 -927 2033 -956Q2030 -956 2025 -957Q2043 -925 2043 -874Q2043 -837 2021 -767Q1983 -646 1983 -569Q1983 -513 1999 -469Q2021 -408 2021 -405Q2021 -361 1905 -330Q1768 -283 1491 -193Q1487 -192 1480 -190Q1490 -184 1550 -162Q1588 -148 1612 -109Q1602 -103 1582 -91L1598 -70H1461Q1444 -119 1430 -119Q1429 -119 1419.5 -109.5Q1410 -100 1404 -100Q1392 -100 1388 -109Q1385 -108 1378 -104Q1371 -100 1366 -100Q1342 -100 1340 -130Q1336 -114 1324 -83Q1230 -66 1229 -66L1231 -79Q1225 -78 1197 -71Q1188 -80 1188 -88Q1188 -100 1216 -166Q1226 -172 1246 -182Q1116 -215 864 -299Q819 -318 763 -393Q753 -407 733 -412Q713 -417 695 -421Q649 -437 608 -492Q576 -541 545 -590V-161H455V-710Q455 -721 465 -727Q412 -774 385 -774Q373 -774 346 -761.5Q319 -749 306 -749H228Q200 -749 171 -766Q164 -777 151 -799Q137 -810 123 -820Q100 -841 100 -872Q100 -910 130 -964Q155 -1007 181 -1050Q208 -1105 272 -1208Q314 -1262 392 -1262Q483 -1262 517 -1222Q578 -1284 678 -1284Q738 -1284 738 -1245Q738 -1234 705 -1192Q675 -1154 660 -1141Q650 -1133 630 -1118Q677 -1082 777 -1020Q813 -1003 1065 -977Q1085 -975 1202 -975Q1219 -975 1233 -977Q1328 -994 1519 -1025Q1722 -1055 1909 -1055Q2048 -1055 2106 -956Q2130 -914 2127 -878L2096 -544Q2090 -479 2120 -368Q2159 -223 2159 -212ZM2135 -209Q2135 -225 2100 -352Q2066 -474 2073 -546L2104 -875Q2107 -907 2085 -946Q2035 -1035 1901 -1032L1854 -1031Q1657 -1027 1407 -985Q1198 -950 1154 -950Q1000 -950 764 -999Q544 -657 544 -643Q544 -628 621 -512Q650 -468 696 -449Q705 -445 740 -433L735 -447Q699 -541 699 -637Q699 -783 730 -802L742 -790Q722 -730 722 -637Q722 -530 769 -425Q775 -421 777 -418Q787 -399 850 -337Q856 -331 869 -321Q895 -311 1081.5 -253Q1268 -195 1277 -195Q1277 -195 1329 -221L1048 -349Q1035 -393 1010 -480Q1007 -508 1002 -563Q997 -611 997 -599Q997 -607 1009 -619L1020 -606Q1028 -488 1056 -415L1378 -427Q1424 -438 1496 -456Q1607 -481 1733 -497Q1704 -524 1654 -585Q1643 -604 1612 -672Q1580 -745 1580 -758Q1580 -772 1587 -772Q1600 -772 1632 -693Q1668 -604 1672 -598Q1719 -554 1797 -451L1438 -252V-192Q1468 -211 1518 -226Q1596 -250 1602 -252Q1675 -280 1822 -332Q1864 -344 1947 -373Q1995 -392 1995 -404Q1995 -400 1973 -474Q1960 -517 1960 -571Q1960 -628 1992 -746Q2016 -835 2016 -896Q2016 -929 2004 -948Q1992 -967 1992 -970Q1992 -976 1997 -983H2018Q2056 -983 2079 -944Q2098 -912 2098 -871Q2098 -860 2096 -840L2071 -585Q2058 -452 2058 -458V-326L2128 -148Q2135 -202 2135 -209ZM1764 -464Q1759 -470 1755 -474L1750 -476Q1707 -475 1568 -450Q1498 -430 1376 -404Q1325 -399 1285 -399Q1280 -399 1269.5 -400Q1259 -401 1254 -401L1061 -391V-388Q1061 -368 1070.5 -362Q1080 -356 1133 -332Q1202 -303 1338 -243L1340 -259Q1365 -277 1374 -277Q1383 -277 1388 -271Q1401 -277 1402 -277Q1409 -277 1421 -271ZM1579 -115Q1561 -138 1546 -140L1538 -136Q1548 -127 1568 -109Q1572 -111 1579 -115ZM561 -1116Q528 -1109 503 -1094Q519 -1101 561 -1116ZM1518 -149Q1457 -175 1455 -175Q1451 -175 1438 -163V-140Q1449 -133 1466 -126Q1483 -134 1518 -149ZM1549 -93Q1524 -120 1529 -131Q1509 -121 1476 -108Q1477 -101 1478 -93ZM1411 -133V-250Q1408 -253 1404 -253Q1401 -253 1397 -248V-125L1402 -124ZM1375 -127V-249L1363 -247V-126ZM1338 -164V-200Q1306 -189 1247 -160Q1247 -160 1264 -160Q1273 -160 1290.5 -155Q1308 -150 1317 -151L1325 -152Q1328 -154 1338 -164ZM711 -1234V-1249Q683 -1263 686 -1263Q611 -1263 579 -1237Q562 -1224 537 -1175Q512 -1126 475 -1098Q467 -1106 467 -1112Q486 -1138 510 -1173Q457 -1113 450 -1113Q438 -1113 438 -1121Q438 -1119 503 -1203Q470 -1238 399 -1238Q323 -1238 289 -1193Q263 -1158 206 -1047Q188 -1016 152 -955Q123 -905 123 -874Q123 -804 251 -804Q263 -804 283 -815Q303 -826 314 -826Q318 -826 316 -819Q319 -821 321 -821Q323 -821 323 -820Q285 -777 240 -777Q233 -777 186 -790Q203 -775 288 -775Q309 -775 342 -786Q375 -797 383 -797Q425 -797 475 -742L681 -1054L603 -1106L506 -1072Q495 -1068 495 -1089L488 -1084V-1105Q497 -1116 515 -1129Q574 -1140 648 -1161Q675 -1177 711 -1234ZM1317 -128Q1300 -129 1275 -133Q1266 -115 1259 -92Q1276 -95 1310 -104Q1312 -110 1317 -128ZM1250 -137Q1241 -138 1231 -147Q1230 -146 1215 -99Q1240 -102 1250 -137ZM743 -1013Q729 -1022 700 -1041L481 -706V-186H517V-648Q517 -656 743 -1013ZM379 -1054Q374 -1048 361 -1042Q360 -1038 359 -1035Q340 -1019 330 -1019Q321 -1019 304 -1026Q298 -1016 288 -997Q286 -1004 286 -1017Q286 -1077 331 -1077Q333 -1077 379 -1054ZM288 -832Q216 -844 225 -844Q220 -844 191 -814Q198 -870 231 -870Q249 -870 288 -832ZM335 -1045V-1052L334 -1053H331Q326 -1053 318 -1046Q327 -1044 331 -1044H334Z"/>
</svg>