<svg xmlns="http://www.w3.org/2000/svg" viewBox="0 -2048 2048 2048">
	<path fill="#000000" d="M978 336Q978 357 966 387Q914 344 887 252Q887 252 887 288Q887 340 867 387Q847 370 823 353Q799 363 717 383Q711 377 711 371Q700 374 678 381L667 375L666 369Q663 351 686 336Q706 324 725 313Q732 269 732 239Q732 199 683 150Q681 176 676 228Q675 235 667 250Q659 265 659 272Q659 278 660.5 288.5Q662 299 662 305Q662 334 621 357Q587 371 553 385Q550 375 548 362Q527 370 485 386Q486 377 489 368Q476 372 446 387V363Q461 342 481 320Q534 305 534 248Q534 205 539 128Q544 45 545 9Q519 -29 475 -107Q440 -188 440 -268Q440 -369 509 -513Q341 -475 355 -475Q306 -475 282 -515Q255 -579 190 -702Q173 -710 144 -732Q135 -743 100 -827Q114 -831 122 -828Q112 -848 102 -878Q118 -873 132 -863Q126 -877 124 -896Q148 -894 171 -872Q191 -853 210 -834Q221 -828 240 -813Q259 -798 311 -711Q305 -737 279 -779Q272 -784 259.5 -794.5Q247 -805 233.5 -851.5Q220 -898 221 -916Q231 -916 239 -912Q239 -914 231 -961Q244 -957 251 -952Q251 -952 251 -978Q280 -973 309 -924Q328 -910 359 -876Q377 -847 463 -642H469Q474 -642 484 -645Q494 -648 497 -649Q541 -768 622 -826Q622 -847 579 -850Q592 -849 520 -849Q480 -849 459 -869Q457 -868 431 -852Q411 -839 404 -839Q397 -839 377 -851Q407 -895 414 -902Q431 -915 475 -917Q462 -919 448 -932Q452 -973 453 -977Q461 -1002 486 -1002Q500 -1002 527 -1002Q554 -1001 568 -1001Q627 -1043 636 -1049Q669 -1069 715 -1079Q708 -1087 700 -1098Q671 -1100 656 -1103Q669 -1215 695 -1439Q710 -1558 765 -1558Q787 -1558 801 -1548Q807 -1542 814 -1537Q835 -1558 844 -1558Q871 -1558 894 -1547Q904 -1542 914.5 -1522.5Q925 -1503 924 -1492L887 -1102Q878 -1097 865 -1095Q863 -1092 848 -1065Q877 -1057 900.5 -1015Q924 -973 924 -941Q924 -646 924 -646Q928 -541 956 -157Q978 145 978 332ZM901 -1492Q903 -1516 885.5 -1525.5Q868 -1535 846 -1535Q840 -1529 828 -1518Q827 -1502 813 -1398Q803 -1325 803 -1278Q831 -1276 852.5 -1254Q874 -1232 873 -1205ZM804 -1511Q806 -1535 765 -1535Q730 -1535 718 -1443Q715 -1419 693 -1226Q713 -1269 780 -1280ZM867 -1145Q859 -1129 848 -1119H865ZM855 -1180Q855 -1258 790 -1258Q707 -1258 707 -1183Q707 -1124 792 -1124Q855 -1124 855 -1180ZM839 -1096H729Q732 -1091 736 -1083Q766 -1084 826 -1072Q831 -1080 839 -1096ZM711 -1122Q693 -1140 686 -1168Q680 -1126 680 -1122ZM819 -1008H818Q816 -1008 802 -1001.5Q788 -995 781 -995Q780 -995 754 -1014.5Q728 -1034 697 -1033Q699 -1031 723 -1012L714 -1005Q706 -1006 689.5 -1012.5Q673 -1019 664 -1019Q668 -1019 628 -1005L629 -1011Q594 -983 571 -978Q559 -975 504 -975Q507 -972 520 -959Q497 -959 474 -956L473 -949L474 -943Q627 -939 608 -939Q647 -939 647 -904Q647 -877 620 -871Q629 -862 644 -842Q699 -882 715 -905Q738 -945 760 -985Q778 -986 796 -987Q819 -991 819 -1008ZM603 -912L589 -913L593 -904ZM576 -914L564 -915L568 -904ZM599 -878L579 -881L584 -871L592 -870ZM553 -915L540 -916L545 -905ZM485 -979H477Q473 -973 473 -968V-962Q478 -974 485 -979ZM569 -882L549 -883L554 -871H561ZM527 -917H519L521 -905ZM537 -884H519L526 -873H532ZM509 -885H496L498 -874L503 -873ZM516 -896Q505 -899 487 -899Q444 -899 416 -873Q448 -890 516 -896ZM954 344Q954 293 954 293L901 -655Q899 -696 901 -767Q904 -859 904 -880Q904 -1056 772 -1056Q743 -1056 728 -1055Q761 -1049 784 -1023V-1022Q789 -1023 805 -1027Q818 -1031 825 -1031Q848 -1031 848 -1003Q848 -990 830 -974.5Q812 -959 798 -957Q789 -957 772 -956Q767 -939 753 -908Q730 -871 635 -804Q557 -749 525 -653Q537 -654 556 -660Q565 -667 589 -712Q628 -785 706 -810Q728 -817 789 -817Q812 -817 842.5 -790Q873 -763 877 -740Q884 -697 884 -664Q884 -664 871 -573Q863 -517 863 -444Q863 -415 869 -356Q875 -297 875 -268Q875 -225 861.5 -142.5Q848 -60 848 -29Q848 -26 867 57Q884 133 902 209Q931 323 954 344ZM423 -514Q359 -522 338 -612Q337 -616 334 -625Q274 -752 225 -797Q202 -814 161 -852L160 -851L159 -849Q159 -840 169 -828.5Q179 -817 181 -810Q174 -803 169 -803Q165 -803 156 -811Q161 -803 177 -788L163 -773Q154 -782 144 -788L142 -786Q156 -749 179.5 -736Q203 -723 208 -715Q216 -702 288 -555Q316 -498 343 -498Q360 -498 423 -514ZM864 330Q863 277 848 174Q844 161 825 139Q810 122 810 84Q810 61 838 -111Q852 -197 852 -267Q852 -297 844 -358Q836 -419 836 -449Q836 -455 861 -665Q862 -674 862 -684Q862 -794 772 -794Q663 -794 586 -664H626Q641 -664 671 -670Q701 -676 716 -676Q730 -676 729 -666L728 -657Q676 -652 570 -640Q530 -633 451 -619Q419 -702 343 -860Q329 -870 304 -892Q297 -903 282 -925Q283 -913 299 -889L286 -875Q273 -887 264 -901V-900Q264 -887 273 -879Q282 -871 282 -866Q282 -853 274 -853Q265 -856 255 -867L254 -866Q268 -814 288.5 -800Q309 -786 314 -774Q317 -768 353 -639Q369 -584 377 -570Q398 -536 438 -540L709 -566Q705 -558 695 -547Q638 -540 537 -521Q463 -361 463 -268Q463 -133 616 67Q593 1 593 -11Q593 -19 606 -26Q615 9 641 73Q647 83 710 148Q754 194 754 236Q754 214 748 321Q753 317 767 312Q768 324 768 324Q768 337 758 344Q765 351 769 351Q773 351 795.5 340.5Q818 330 825 330Q835 330 840 339Q854 338 864 330ZM867 154L840 27Q833 71 833 85Q833 99 846 120Q865 151 867 154ZM660 134Q660 129 659 127Q653 114 637 107Q615 99 610 95Q593 80 566 40L559 239Q557 302 505 337Q536 324 536 324Q551 324 546 338L547 339Q558 330 579 316Q586 323 586 329Q584 336 580 345Q582 347 585 348Q599 348 619 332Q639 316 639 303Q639 298 637.5 287Q636 276 636 271Q636 261 650 230Q660 208 660 134ZM492 346L489 344Q480 345 468 351L476 362Q481 356 492 346ZM717 -978Q701 -972 671 -957Q659 -957 633.5 -959.5Q608 -962 596 -962Q616 -1010 659 -1010Q667 -1010 717 -978ZM666 -981Q666 -988 655 -988Q644 -988 644 -981Q644 -976 652 -976H658Q666 -976 666 -981Z"/>
</svg>