<svg xmlns="http://www.w3.org/2000/svg" viewBox="0 -2048 2048 2048">
	<path fill="#000000" d="M2662 299Q2615 292 2568 282.5Q2521 273 2491 233Q2474 210 2408 40Q2343 -127 2239 -308Q2205 -367 2142 -414Q2073 -466 2011 -470Q2021 -301 2026 -274Q2047 -170 2122 -105Q2127 -101 2224 -63Q2307 -31 2305 -9L2291 157Q2290 170 2300.5 207.5Q2311 245 2311 259Q2311 304 2185 309Q2180 319 2141 333H2140L2133 337L2130 331Q2114 327 2083 321Q2019 314 2019 263Q2019 257 2020.5 244.5Q2022 232 2022 226H2044Q2049 208 2059 189L2174 187Q2171 148 2148 82Q2145 77 2026.5 29.5Q1908 -18 1886 -25Q1907 8 1907 15Q1907 18 1883 71Q1853 137 1825 287Q1786 290 1714 304Q1711 305 1697.5 317Q1684 329 1672 329Q1650 329 1598 299Q1546 269 1546 249Q1546 242 1550.5 225.5Q1555 209 1556 203Q1569 203 1576.5 195Q1584 187 1583 174Q1587 174 1706 186Q1724 106 1724 25Q1724 15 1679 -60Q1656 -88 1614 -147Q1389 -112 1285 -112Q1261 -112 1196 -123Q1122 -136 1102 -138Q1102 -138 983 -138Q1013 -75 1013 -69Q1013 -53 1003 -20.5Q993 12 993 27Q993 67 1000 101Q1003 118 1026 171Q1045 217 1045 242Q1045 276 1016 290Q987 304 927 318Q847 335 834 339V332L795 327L798 317Q739 284 739 267Q739 258 743 242Q748 222 749 217L777 218Q786 177 807 177Q822 177 849.5 180Q877 183 889 183L779 -46Q731 -10 683 25Q630 68 600 110Q577 143 554 200Q520 283 515 293Q463 300 392 321Q370 337 366 337Q353 337 346 322Q331 337 322 337Q312 337 301 324Q293 332 285 332Q244 332 246 292Q232 288 213 283Q218 262 231 222Q253 202 284 202Q289 190 302 168L402 177Q476 55 622 -190Q607 -198 547 -216Q512 -225 443 -248Q334 -292 334 -426Q334 -445 339 -469Q273 -512 273 -595Q273 -607 274.5 -631.5Q276 -656 276 -668Q276 -794 176 -794Q155 -794 145.5 -772.5Q136 -751 129 -731Q100 -761 100 -800Q100 -824 121 -863.5Q142 -903 162 -915Q163 -916 187.5 -924.5Q212 -933 232 -970Q255 -1011 273 -1023Q337 -1065 536 -1065Q780 -1065 852 -759Q854 -709 871 -618Q873 -611 892.5 -600.5Q912 -590 920 -590Q928 -590 965 -639Q1013 -702 1033 -760Q1037 -773 1060 -876Q1090 -1014 1216 -1078Q1384 -1160 1551 -1242Q1720 -1342 1813 -1511Q1918 -1416 1911 -1275L2113 -1486Q2134 -1439 2155 -1391Q2170 -1347 2170 -1289Q2170 -1131 1954 -932Q1780 -786 1607 -640H1617Q1641 -640 1689.5 -642.5Q1738 -645 1762 -645Q1891 -645 2061 -560Q2239 -471 2297 -365Q2338 -273 2423 -91Q2476 15 2599 126Q2610 136 2635 208Q2659 276 2662 299ZM2151 -1266Q2151 -1340 2108 -1447L1904 -1238Q1861 -1034 1273 -592Q1327 -605 1437 -624Q1481 -627 1570 -636Q1682 -730 1904 -923Q1963 -976 2071 -1087Q2081 -1099 2116 -1176Q2151 -1253 2151 -1266ZM2638 272Q2623 225 2586 147Q2582 141 2546 112Q2485 62 2451 7Q2399 -77 2367 -160Q2313 -299 2278 -355Q2219 -451 2126 -505Q2069 -528 1960 -578Q1873 -622 1774 -622Q1523 -622 1365 -590Q1186 -553 982 -448Q1032 -492 1127 -533Q1151 -541 1193 -561Q1201 -566 1304 -645Q1492 -789 1614 -903Q1862 -1136 1882 -1244Q1890 -1288 1890 -1314Q1890 -1383 1818 -1477Q1769 -1384 1671 -1295.5Q1573 -1207 1475 -1168Q1317 -1106 1273 -1083Q1159 -1022 1110 -944Q1099 -926 1082 -858Q1075 -825 1058 -760Q1040 -703 983 -630Q929 -562 877 -524Q893 -556 906 -571Q893 -576 869 -589Q868 -573 866 -521H852L845 -658Q844 -683 816.5 -783Q789 -883 779 -898Q741 -954 681 -994Q613 -1040 553 -1040Q552 -1040 509 -1039Q558 -999 558 -883Q558 -820 456.5 -659Q355 -498 355 -403Q355 -318 462 -270Q551 -241 640 -212Q618 -258 618 -338Q618 -353 668 -427L680 -420Q639 -339 639 -320Q639 -301 644 -265Q654 -195 795 -71Q835 24 923 205Q905 205 868 202.5Q831 200 812 200Q811 200 793 219H806V230L818 229Q806 241 794 254Q787 262 787 290L799 303Q800 260 838 253Q838 266 829.5 276Q821 286 820 297Q820 300 820 306Q825 307 828 307H834V290Q862 272 880 264Q874 290 858 302V309Q860 308 979 278Q1022 267 1022 239Q1020 230 1015 216Q971 86 971 24Q971 28 991 -69Q987 -72 961.5 -127.5Q936 -183 936 -190Q936 -220 948 -300Q963 -270 963 -246Q963 -237 961 -220Q959 -203 959 -194Q959 -183 972 -163Q1097 -163 1097 -163Q1116 -161 1195 -147Q1264 -135 1287 -135Q1404 -135 1665 -178Q1646 -197 1641 -214Q1612 -322 1609 -430L1625 -425Q1639 -331 1663 -219Q1710 -131 1754 -106Q1832 -61 1956 -15Q2061 24 2165 63Q2176 99 2203 205Q2194 214 2072 214L2067 223Q2087 226 2120 237L2098 240Q2098 246 2080 266Q2085 266 2133 257L2115 275Q2132 272 2164 265Q2155 274 2137 291L2142 307Q2144 309 2149 309Q2151 309 2172 288Q2205 286 2238 284Q2288 277 2288 257Q2288 243 2277.5 208Q2267 173 2268 158L2282 -6Q2283 -18 2204 -47Q2115 -81 2108 -86Q2060 -121 2027 -198Q1998 -268 1995 -334Q1994 -348 1995 -370Q1996 -398 1996 -406Q1996 -449 1989 -468Q1951 -503 1907 -543Q1938 -527 2001 -494Q2167 -478 2257 -323Q2311 -230 2384 -56Q2465 137 2505 213Q2516 233 2565 253Q2611 272 2638 272ZM2125 319Q2117 298 2113 277Q2107 282 2101 285V303Q2109 308 2125 319ZM2072 243Q2039 245 2039 264V272Q2039 275 2046 284Q2055 254 2072 243ZM2079 301V267Q2068 279 2065 293ZM1884 17Q1884 -26 1821 -53Q1780 -70 1740 -87Q1733 -94 1683 -158L1638 -151Q1746 -13 1746 22Q1746 139 1723 209Q1682 205 1602 196Q1601 201 1600 204Q1610 207 1623 220Q1617 222 1604 226L1631 224Q1622 231 1595 245Q1592 246 1592 263Q1592 272 1598 278V248Q1622 240 1671 223Q1651 243 1620 264Q1622 283 1636 290Q1638 284 1638 274Q1650 270 1679 270H1706Q1693 279 1671 289Q1658 291 1658 300Q1658 306 1665 306Q1673 306 1684.5 296.5Q1696 287 1701 285Q1722 277 1802 269Q1812 249 1817 210Q1824 163 1828 149Q1830 142 1884 17ZM1598 226H1584Q1576 226 1574 231Q1582 227 1598 226ZM318 -908Q318 -926 302 -926Q283 -926 283 -901Q301 -885 306 -885Q318 -885 318 -908ZM469 -835Q469 -874 443.5 -899.5Q418 -925 380 -925H340Q343 -920 343 -912Q343 -884 313 -866Q321 -843 321 -832Q321 -808 300 -808Q305 -808 260 -830Q280 -815 328 -724Q331 -733 331 -741Q331 -748 329 -762Q327 -776 327 -783Q327 -816 358 -848Q367 -849 375 -849Q432 -849 432 -800Q432 -786 416 -755Q469 -786 469 -835ZM409 -801Q409 -825 381 -825Q350 -825 350 -786Q350 -780 353.5 -757.5Q357 -735 356 -731Q409 -761 409 -801ZM538 -868Q538 -1040 442 -1040Q417 -1040 364 -1030Q307 -1019 292 -1009Q274 -997 258 -968Q237 -931 231.5 -924.5Q226 -918 189 -902Q157 -888 140 -856.5Q123 -825 123 -798Q123 -789 124 -784Q162 -860 230 -860Q246 -860 295 -839Q292 -849 276 -873Q260 -897 260 -898Q260 -951 332 -951Q496 -951 496 -815Q496 -790 446.5 -747.5Q397 -705 372 -705Q368 -705 353 -721Q346 -704 329 -688Q327 -690 278 -772Q249 -820 201 -820Q190 -820 182 -816Q240 -812 273 -758Q300 -714 301 -651Q302 -578 304 -566Q312 -519 346 -494Q420 -660 501 -777Q538 -831 538 -868ZM785 235Q761 239 761 264Q763 266 766 269Q766 256 785 235ZM766 -64Q720 -115 645 -182Q577 -72 414 200Q326 191 315 191Q313 191 306 205Q323 205 332 222Q302 225 271 229Q240 233 240 269L249 271Q267 261 300 237Q287 256 267 298Q279 309 283 309Q288 309 295 288Q305 256 346 250Q342 257 313 292L312 293Q313 304 323 315Q329 313 341 310V307Q341 269 393 257Q363 300 363 303Q364 312 368 312Q376 305 392 296Q402 292 448 290Q486 289 500 274Q529 203 583 95Q598 73 766 -64Z"/>
</svg>