<svg xmlns="http://www.w3.org/2000/svg" viewBox="21.5 -1636.5 2119 2096">
	<path fill="currentColor" d="M875 -1139Q875 -1119 853 -1098.5Q831 -1078 810 -1078Q785 -1078 767 -1097.5Q749 -1117 749 -1142Q749 -1166 769 -1184.5Q789 -1203 813 -1203Q837 -1203 856 -1183Q875 -1163 875 -1139ZM2062 271Q2062 295 2052 330Q2039 374 2022 374Q1997 374 1978 343Q1973 327 1963 296Q1932 202 1932 1Q1932 -10 1933.5 -32.5Q1935 -55 1935 -66Q1935 -110 1923 -144Q1914 -128 1894 -96Q1877 -73 1859 -49Q1833 -13 1833 -3Q1833 35 1860.5 69Q1888 103 1888 119Q1888 125 1886.5 137Q1885 149 1885 155Q1885 179 1894 228Q1903 277 1903 299Q1903 304 1884 380Q1858 362 1820 341Q1737 377 1704 377Q1700 376 1688 374L1690 361L1687 362V358L1621 376V357Q1621 339 1699 288Q1705 245 1705 203Q1705 116 1615 49Q1601 39 1565 29Q1541 85 1526 180Q1524 189 1512 209.5Q1500 230 1500 237Q1500 242 1501.5 252Q1503 262 1503 267Q1503 282 1495 316Q1416 369 1370 381Q1364 372 1363 353Q1334 362 1276 380Q1281 368 1289 357Q1252 372 1225 380Q1246 335 1274 304Q1350 266 1350 197Q1350 186 1347 163.5Q1344 141 1344 129Q1344 113 1346 81.5Q1348 50 1348 34Q1348 37 1323 -115Q1103 -338 1064 -583Q1056 -633 1056 -624V-693Q1056 -693 1046 -693Q936 -693 894 -686Q875 -683 848 -667Q814 -646 804 -642L653 -647Q665 -655 688 -670Q662 -673 608 -682Q629 -692 648 -701Q629 -703 608 -703Q621 -735 652 -747Q683 -756 713 -765Q733 -781 780 -802Q827 -812 1057 -841Q1077 -1031 1103 -1068Q1164 -1154 1164 -1160Q1164 -1180 1112 -1180Q1088 -1180 1040.5 -1152.5Q993 -1125 949 -1125Q936 -1125 919.5 -1143Q903 -1161 903 -1174Q903 -1183 911 -1193Q861 -1225 861 -1301Q861 -1318 877.5 -1334.5Q894 -1351 911 -1351Q920 -1351 938 -1346.5Q956 -1342 965 -1342Q1013 -1342 1057 -1365Q1074 -1374 1101 -1405.5Q1128 -1437 1144 -1447Q1182 -1471 1262 -1489Q1324 -1558 1341 -1558Q1365 -1558 1376 -1529Q1392 -1487 1393.5 -1485.5Q1395 -1484 1420 -1475Q1440 -1468 1478 -1433Q1513 -1401 1527 -1380Q1549 -1347 1567 -1256Q1579 -1188 1591 -1121Q1606 -1049 1643 -945Q1684 -831 1717 -782Q1742 -745 1801 -646Q1897 -485 1904 -471Q1949 -377 1949 -277Q1949 -274 1991 -158Q1992 -156 2017 -55Q2033 -4 2055 100Q2062 165 2062 271ZM730 -1059Q730 -1036 710.5 -1016.5Q691 -997 668 -997Q644 -997 627.5 -1018Q611 -1039 611 -1063Q611 -1122 668 -1122Q730 -1122 730 -1059ZM601 -960Q601 -898 543 -898Q522 -898 505 -915Q488 -932 488 -953Q488 -1020 546 -1020Q601 -1020 601 -960ZM463 -834Q463 -771 403 -771Q346 -771 346 -828Q346 -901 421 -894L431 -893Q463 -857 463 -834ZM351 -703Q351 -642 284 -642Q268 -642 251.5 -661.5Q235 -681 235 -697Q235 -761 299 -761Q351 -761 351 -703ZM343 -544L336 -507Q321 -519 305 -519Q283 -519 239 -495Q195 -471 181 -471Q157 -471 128.5 -497Q100 -523 100 -547Q100 -553 120 -592.5Q140 -632 140 -652Q140 -678 128 -694Q144 -710 157 -710Q222 -710 222 -624Q222 -622 213 -587Q232 -599 260 -599Q314 -599 343 -544ZM915 -1301V-1303Q914 -1309 911 -1309H910Q905 -1307 905 -1303V-1301Q906 -1295 910 -1295H911Q915 -1296 915 -1301ZM933 -1269Q929 -1274 926 -1274Q921 -1274 918 -1269Q921 -1265 926 -1265Q930 -1265 933 -1269ZM852 -1141Q852 -1177 815 -1177Q772 -1177 772 -1142Q772 -1101 810 -1101Q823 -1101 837.5 -1115Q852 -1129 852 -1141ZM2042 295Q2042 282 2040 260Q2037 232 2037 224Q2035 200 2033 152Q2032 87 2002 -32Q1974 -146 1946 -211Q1939 -184 1939 -174Q1939 -167 1949 -126.5Q1959 -86 1959 -63Q1959 -51 1956.5 -26Q1954 -1 1954 11Q1954 331 2023 347Q2042 306 2042 295ZM1930 -236Q1930 -359 1903 -420Q1880 -472 1768 -657Q1729 -720 1690 -783Q1648 -857 1628 -917Q1584 -1050 1568 -1121Q1557 -1184 1546 -1247Q1532 -1328 1509 -1366Q1497 -1385 1456 -1421Q1412 -1460 1395 -1460H1394L1393 -1459Q1391 -1457 1383 -1457Q1375 -1480 1366 -1502Q1353 -1535 1342 -1535Q1336 -1535 1312 -1509Q1328 -1521 1345 -1525Q1374 -1502 1374 -1467Q1374 -1454 1362 -1454H1356Q1354 -1457 1348 -1480Q1343 -1499 1338 -1499Q1319 -1478 1293 -1451L1278 -1465L1283 -1470Q1198 -1452 1154 -1426Q1122 -1389 1060 -1341Q994 -1319 968 -1319Q959 -1319 941 -1323.5Q923 -1328 914 -1328Q896 -1328 886 -1310Q899 -1324 911 -1324Q918 -1324 937 -1314V-1292L934 -1290L941 -1291Q953 -1279 953 -1273Q953 -1255 915 -1242L900 -1258V-1280Q894 -1284 884 -1297Q899 -1206 941 -1206Q958 -1206 981 -1227Q1004 -1248 1016 -1248L1044 -1249Q1061 -1250 1109 -1247Q1099 -1232 1064 -1226Q1042 -1222 1043 -1222Q1039 -1222 1031 -1223.5Q1023 -1225 1019 -1225Q1015 -1225 987.5 -1204Q960 -1183 941 -1183Q937 -1183 933 -1186Q929 -1183 929 -1174Q929 -1152 967 -1152Q990 -1152 1041 -1178Q1092 -1204 1146 -1204Q1158 -1204 1169 -1193Q1186 -1175 1188 -1174Q1190 -1170 1190 -1162Q1190 -1148 1159 -1108Q1124 -1063 1121 -1055Q1087 -971 1087 -906Q1087 -896 1083 -876Q1079 -856 1079 -846H1088Q1095 -846 1106 -849Q1121 -852 1125 -852Q1158 -895 1229 -1008Q1243 -1035 1275 -1083Q1280 -1087 1289 -1086Q1295 -1081 1295 -1073V-1070Q1254 -1005 1169 -876Q1157 -854 1128 -829Q1013 -818 786 -779Q749 -759 670 -730L672 -722Q698 -716 692 -716Q695 -716 707 -722Q719 -728 726 -728Q729 -727 728 -723L734 -724Q723 -703 696 -696Q715 -689 726 -689Q734 -689 758 -706L773 -693Q755 -677 741 -671V-668H815Q841 -687 896 -709Q1006 -710 1208 -726Q1242 -732 1289 -767Q1325 -796 1362 -825Q1533 -945 1542 -945Q1555 -945 1555 -936Q1554 -933 1551 -930Q1472 -876 1317 -768Q1298 -751 1257 -722Q1224 -703 1170 -699Q1125 -696 1079 -694V-621Q1079 -632 1087 -582Q1115 -409 1240 -243Q1368 -73 1526 -11Q1545 -4 1583 10Q1534 -60 1531 -233Q1540 -241 1551 -241Q1552 -240 1557 -156.5Q1562 -73 1584 -28Q1598 1 1638 40Q1682 83 1696 104Q1728 152 1728 231Q1728 278 1722 293Q1713 317 1677 332Q1688 336 1703 336Q1715 321 1741 294Q1749 302 1749 308Q1749 311 1731 337Q1736 341 1748 348Q1757 347 1784 332.5Q1811 318 1820 318Q1830 318 1843 330Q1855 328 1877 322Q1880 298 1880 299Q1880 173 1861 112Q1855 94 1830 55Q1810 24 1810 -7Q1810 -8 1870 -99Q1930 -190 1930 -236ZM707 -1059Q707 -1096 671 -1096Q634 -1096 634 -1061Q634 -1020 668 -1020Q707 -1020 707 -1059ZM578 -960Q578 -994 544 -994Q511 -994 511 -969Q511 -921 544 -921Q578 -921 578 -960ZM1543 26V20Q1449 -24 1442 -28Q1387 -57 1349 -90Q1370 -1 1370 31Q1370 43 1368 68Q1366 93 1366 105Q1366 121 1370 151.5Q1374 182 1374 197Q1374 279 1298 320Q1299 323 1303 329L1316 326Q1331 306 1344 306Q1356 306 1356 314Q1355 320 1352 324Q1357 327 1365 330Q1366 330 1398 297Q1407 306 1407 312Q1407 316 1396 333Q1405 339 1412 342Q1423 341 1446.5 325Q1470 309 1475.5 300Q1481 291 1481 280Q1481 272 1479 257Q1477 242 1477 234Q1477 217 1499 183Q1507 171 1508 148Q1510 117 1511 112Q1516 89 1543 26ZM440 -834Q440 -868 408 -868Q373 -868 373 -830Q373 -794 403 -794Q440 -794 440 -834ZM325 -705Q325 -735 296 -735Q261 -735 261 -705Q261 -668 292 -668Q325 -668 325 -705ZM316 -545Q305 -576 241 -576Q239 -576 192 -547L180 -559Q196 -636 196 -625Q196 -684 161 -684Q164 -665 164 -649Q164 -626 145 -595Q126 -564 126 -547Q126 -528 143.5 -512.5Q161 -497 181 -497Q196 -497 243.5 -522.5Q291 -548 316 -545ZM1278 -1387Q1186 -1400 1173 -1400Q1158 -1400 1140 -1381.5Q1122 -1363 1100 -1359Q1134 -1423 1171 -1423Q1188 -1423 1278 -1387ZM1243 -1365Q1217 -1351 1174 -1339Q1120 -1326 1103 -1319Q1141 -1393 1182 -1393Q1188 -1393 1243 -1365ZM1184 -1368Q1184 -1376 1173 -1376Q1163 -1376 1163 -1368Q1163 -1360 1173 -1360Q1184 -1360 1184 -1368Z"/>
</svg>