<svg xmlns="http://www.w3.org/2000/svg" viewBox="0 -2048 2048 2048">
	<path fill="#000000" d="M1574 299Q1574 311 1559.5 342Q1545 373 1536 382Q1517 371 1489 344Q1444 268 1444 -59Q1444 -111 1431 -144Q1423 -128 1405 -98Q1347 -17 1347 16Q1347 36 1359 49Q1381 73 1394 113Q1416 179 1416 305Q1416 307 1395 385Q1365 366 1332 346Q1251 382 1188 382V378Q1188 371 1190 366Q1138 374 1148 374Q1135 374 1125 371Q1132 362 1135 350Q1140 330 1169 318.5Q1198 307 1205 294Q1217 271 1217 198Q1217 154 1167 95.5Q1117 37 1073 30H1070Q1053 69 1030 184Q1028 192 1016.5 209.5Q1005 227 1005 235Q1005 244 1008.5 263Q1012 282 1012 292Q1012 307 1001 321Q974 355 878 387Q870 361 875 355Q839 367 787 385Q787 375 792 365Q781 369 741 385V380Q741 337 778 311Q802 296 826 281Q858 233 858 193Q858 162 855.5 101.5Q853 41 853 10Q853 -68 829 -110Q793 -151 728 -228Q559 -439 559 -652Q559 -682 561 -697Q555 -698 553 -698Q441 -698 399 -691Q366 -674 302 -646L155 -651L191 -674Q146 -679 104 -686Q127 -698 148 -706L100 -713Q142 -757 173 -762Q213 -768 231 -780Q245 -792 278 -808Q304 -814 555 -848Q559 -885 569 -957Q579 -1009 606 -1071Q636 -1110 668 -1169L669 -1177Q670 -1189 610 -1189Q591 -1189 544 -1162.5Q497 -1136 482 -1135L453 -1134Q440 -1134 420.5 -1153.5Q401 -1173 401 -1186Q401 -1199 410 -1207Q394 -1217 388 -1227Q359 -1280 359 -1312Q359 -1318 370 -1343Q403 -1361 411 -1361Q420 -1361 439 -1358Q458 -1355 467 -1355Q497 -1355 553 -1374Q585 -1407 642 -1456Q687 -1487 769 -1501Q829 -1570 847 -1570Q869 -1570 901 -1501Q904 -1495 918 -1489Q1007 -1452 1037 -1380Q1059 -1329 1098 -1139Q1124 -1015 1156 -931Q1179 -872 1210 -813Q1284 -693 1358 -573Q1447 -424 1457 -316Q1462 -265 1477 -229Q1501 -172 1506 -153Q1520 -95 1551 22Q1574 102 1574 299ZM875 -1506Q861 -1547 850 -1547Q844 -1547 821 -1522Q840 -1537 847 -1537Q862 -1537 875 -1506ZM420 -1310L413 -1317L411 -1312Q408 -1313 405 -1313H403L410 -1306L411 -1310ZM438 -1281L428 -1287Q423 -1278 418 -1275L427 -1274L425 -1276Q431 -1278 438 -1281ZM1551 295Q1551 239 1541 101Q1539 70 1532 44Q1512 -44 1457 -217Q1447 -182 1447 -172Q1447 -168 1455 -142.5Q1463 -117 1464 -110Q1468 -86 1468 -59Q1468 -46 1466.5 -20Q1465 6 1465 19Q1465 83 1477 182Q1491 302 1511 335Q1513 339 1533 350Q1551 307 1551 295ZM1436 -274Q1436 -409 1341 -558Q1231 -731 1190 -809Q1110 -960 1089 -1082Q1082 -1116 1067 -1185Q1055 -1247 1042 -1309Q1023 -1378 981 -1419.5Q939 -1461 907 -1471Q901 -1468 897 -1468Q888 -1468 878 -1496Q879 -1492 879 -1489Q879 -1473 865 -1459Q853 -1472 852.5 -1488.5Q852 -1505 846 -1512Q831 -1494 793 -1462Q787 -1474 788 -1481Q739 -1472 688 -1451Q673 -1447 632 -1416Q612 -1393 567 -1355Q522 -1329 467 -1329Q458 -1329 440 -1333.5Q422 -1338 413 -1338Q394 -1338 387 -1324Q406 -1334 414 -1334Q425 -1334 441 -1318Q438 -1312 432 -1300L446 -1304Q455 -1296 455 -1286Q455 -1275 440.5 -1264Q426 -1253 414 -1254L408 -1261V-1259Q400 -1268 397 -1274L408 -1287Q397 -1289 387 -1297Q405 -1215 442 -1215Q445 -1215 480 -1236.5Q515 -1258 522 -1258Q527 -1258 538.5 -1256.5Q550 -1255 555 -1255Q561 -1255 571.5 -1257.5Q582 -1260 588 -1260Q595 -1260 603 -1258V-1245Q571 -1232 548 -1232Q544 -1232 536.5 -1233.5Q529 -1235 525 -1235Q518 -1235 488 -1213.5Q458 -1192 442 -1192Q438 -1192 433 -1195Q427 -1188 427 -1183Q427 -1161 469 -1161Q493 -1161 524 -1178Q569 -1203 575 -1205Q596 -1213 650 -1213Q694 -1213 694 -1169Q694 -1157 637 -1077Q593 -1015 580 -852H588Q599 -852 624 -856Q660 -899 710 -975Q773 -1073 791 -1098Q800 -1089 800 -1082Q800 -1068 727 -960Q657 -856 635 -833Q533 -822 431 -810Q289 -794 248 -764Q231 -751 169 -736Q182 -721 190 -721Q193 -721 206 -727Q219 -733 226 -733Q230 -733 228 -726Q232 -729 233 -729Q234 -729 235 -727Q226 -712 195 -700L197 -697Q235 -694 225 -694Q228 -694 239.5 -701.5Q251 -709 257 -709Q268 -709 268 -701Q268 -697 267 -695Q260 -688 239 -675L241 -673H312Q313 -673 345 -692.5Q377 -712 397 -714Q464 -720 712 -731Q729 -742 896 -853Q1045 -952 1047 -952Q1060 -952 1060 -943Q1059 -940 1055 -937Q1026 -912 885 -815Q735 -713 714 -708Q685 -702 587 -700L584 -698Q584 -688 581.5 -668Q579 -648 579 -638Q579 -638 584 -609Q588 -586 590 -571Q599 -502 646 -404Q690 -312 737 -255Q776 -202 865 -108Q949 -40 1089 12Q1081 2 1070 -16Q1035 -108 1035 -209Q1035 -233 1035 -233Q1045 -242 1055 -242Q1061 -237 1062 -221Q1061 -200 1061 -158Q1065 -91 1089 -29Q1102 3 1145 44Q1196 92 1208 110Q1240 158 1240 195Q1240 279 1224 309Q1216 325 1184 338Q1189 342 1194 344Q1195 344 1247 299Q1255 307 1255 313Q1255 321 1238 340Q1244 345 1256 353Q1266 352 1295 337.5Q1324 323 1334 323Q1338 323 1355 335Q1366 333 1387 329Q1387 326 1390 317Q1393 308 1393 304Q1393 189 1371 121Q1366 104 1339 63Q1320 32 1320 0Q1320 -18 1378 -102Q1436 -186 1436 -274ZM1388 352L1381 345L1379 351Q1375 348 1367 343L1364 356Q1395 352 1388 352ZM156 -727Q152 -727 144 -729Q136 -731 132 -731L138 -719Q141 -722 147 -726L149 -720ZM1239 355H1236Q1219 355 1207 359L1214 370Q1219 365 1222 359Q1226 362 1236 368ZM1173 359V346Q1164 348 1147 353L1156 358Q1156 356 1159 351ZM1049 22Q985 -7 867 -79L857 -87Q877 21 877 35Q877 43 876 58Q875 73 875 81Q875 94 876 120Q877 146 877 159Q877 253 844 295Q830 306 802 327L806 334Q814 332 820 333Q839 311 853 311Q865 311 865 319Q862 327 858 331Q863 335 868 335Q872 335 901 301Q910 310 910 317V316Q910 323 903 336Q908 340 919 347Q946 345 984 306Q990 300 990 290Q990 281 985.5 264Q981 247 981 238Q981 229 1003 190Q1011 176 1013 150Q1016 116 1018 108Q1024 84 1049 22ZM912 352Q909 352 902 354Q895 356 891 356L898 363V360L909 365ZM852 340Q841 343 819 350L826 361L839 348Q843 350 851 353ZM785 343L782 339L777 346Q771 348 758 353L766 364Q770 358 777 346ZM780 -1398Q688 -1411 678 -1411Q672 -1411 607 -1362Q611 -1382 634.5 -1408Q658 -1434 677 -1434Q690 -1434 780 -1398ZM743 -1376Q718 -1359 687 -1351.5Q656 -1344 627 -1337L610 -1343Q654 -1404 689 -1404Q699 -1404 743 -1376ZM682 -1371V-1372Q681 -1373 679 -1376L671 -1374Q674 -1371 678 -1370Z"/>
</svg>