<svg xmlns="http://www.w3.org/2000/svg" viewBox="0 -2048 2048 2048">
	<path fill="currentColor" d="M2119 -1Q2119 23 2115.5 71Q2112 119 2112 143Q2053 76 2039 -12Q2011 -193 2017 -256L2029 -376Q2029 -378 2025 -402Q1987 -258 1987 -174Q1987 -166 2010.5 -118.5Q2034 -71 2034 -36Q2034 -18 2026.5 19.5Q2019 57 2019 75Q2019 94 2035.5 155Q2052 216 2052 236Q2052 242 2042.5 253Q2033 264 2031 269Q2032 266 2032 297Q2032 331 1998 353Q1968 373 1933 373Q1924 373 1922 367Q1908 374 1877 384Q1884 346 1911 275Q1953 207 1953 185Q1953 115 1928 41Q1920 18 1872 -69Q1860 -47 1849 -47Q1833 -47 1824 -66Q1819 -48 1798 -41Q1788 -5 1761 64Q1748 79 1723 110Q1696 149 1681 182Q1670 224 1634 298Q1621 301 1602 310Q1598 332 1570 368Q1546 382 1492 382H1472L1473 368Q1461 366 1436 361Q1447 327 1483 278.5Q1519 230 1548 213Q1559 207 1575 193Q1609 137 1656 -7Q1689 -88 1755 -249Q1713 -248 1628 -222.5Q1543 -197 1490 -197L1500 -207Q1442 -200 1441 -200Q1228 -227 1206 -224Q1206 -208 1209 -177Q1226 -137 1256 -55Q1330 190 1330 221Q1330 215 1309 253Q1307 266 1302 290Q1293 334 1263 351Q1228 365 1193 379Q1182 378 1178 367Q1167 366 1144 362Q1161 302 1198 259Q1225 227 1225 195Q1225 125 1174 22Q1131 -59 1088 -141Q1077 -95 1048 -7Q1030 17 998 64Q956 132 923 275Q903 283 874 311Q871 325 858 349Q842 367 810 372Q783 376 756 380L748 367Q721 363 707 360Q723 328 739 297Q755 266 785 242Q849 190 868 136Q909 7 992 -250Q977 -254 949 -266Q856 -324 797 -461Q787 -515 748 -617Q745 -595 740 -572Q735 -549 716 -539Q703 -560 703 -584Q703 -594 705 -615Q707 -636 707 -647Q704 -648 702 -648Q688 -648 630 -624V-531Q630 -525 621.5 -513Q613 -501 612 -496H580Q576 -561 567 -608Q497 -647 497 -664Q497 -708 568 -781Q631 -845 681 -870Q725 -892 725 -895Q725 -910 705 -910Q695 -910 640 -893Q585 -876 553 -876Q517 -876 458 -892Q443 -898 413 -909Q343 -891 272 -873Q189 -873 135 -909Q130 -912 100 -953Q103 -963 123 -983Q207 -933 247 -933Q257 -933 317.5 -955.5Q378 -978 420 -978Q439 -978 466 -967Q505 -950 509 -949Q485 -972 485 -988Q485 -995 487.5 -1010Q490 -1025 490 -1032Q490 -1045 483 -1070.5Q476 -1096 476 -1108Q476 -1125 488 -1149Q488 -1149 473 -1149Q460 -1149 460 -1171Q460 -1182 484 -1201Q472 -1211 472 -1223Q472 -1242 487 -1258Q502 -1274 521 -1274Q563 -1274 563 -1227Q563 -1239 558 -1202Q555 -1197 548 -1194Q590 -1149 590 -1136Q590 -1100 568 -1058.5Q546 -1017 546 -991Q546 -987 547 -978Q547 -978 565 -962Q576 -951 585 -951Q589 -951 643 -967V-976Q643 -1004 585 -1025V-1052Q585 -1066 592 -1096Q601 -1133 602 -1141Q610 -1195 642 -1270Q690 -1385 694 -1396Q668 -1413 668 -1440Q668 -1463 688.5 -1477.5Q709 -1492 732 -1489Q710 -1500 678 -1535Q716 -1548 722 -1548Q735 -1548 774 -1521Q783 -1541 811 -1579Q834 -1572 848 -1522Q885 -1548 912 -1548Q928 -1548 949 -1541Q939 -1521 920 -1509Q888 -1489 885 -1487Q953 -1487 953 -1434Q953 -1418 931 -1390L925 -1388Q993 -1224 1010 -1137Q1013 -1155 1060 -1200L1052 -1208Q1052 -1212 1050 -1218.5Q1048 -1225 1048 -1229Q1048 -1242 1065.5 -1258Q1083 -1274 1096 -1274Q1139 -1274 1139 -1218Q1139 -1209 1126 -1193Q1138 -1183 1138 -1171Q1138 -1151 1111 -1147Q1123 -1121 1123 -1110Q1123 -1107 1116 -1087Q1115 -1084 1115 -1061Q1115 -1055 1112 -1044.5Q1109 -1034 1109 -1028Q1109 -1021 1111.5 -1008.5Q1114 -996 1114 -989Q1114 -968 1087 -943Q1094 -942 1102 -942Q1107 -942 1155 -961.5Q1203 -981 1211 -981Q1211 -981 1239 -973Q1357 -939 1381 -939Q1423 -939 1484 -975H1504Q1504 -970 1505.5 -962Q1507 -954 1507 -950Q1507 -924 1464 -896Q1433 -876 1396 -876Q1335 -876 1287 -893Q1239 -910 1221 -910Q1209 -910 1163.5 -891.5Q1118 -873 1096 -873Q1066 -873 1004 -894.5Q942 -916 932 -916Q893 -916 876 -880V-877Q951 -825 1026 -772Q1116 -711 1185 -683Q1189 -682 1274 -669Q1410 -649 1470 -649Q1494 -649 1539 -656Q1594 -665 1610 -666Q1706 -674 1779 -674Q1867 -674 1943 -645Q1997 -624 2040 -567Q2050 -554 2068 -510Q2086 -466 2086 -453Q2085 -423 2081 -291Q2078 -192 2078 -130Q2078 -108 2098.5 -58Q2119 -8 2119 -1ZM1115 -1227Q1115 -1239 1113 -1243Q1100 -1251 1095 -1251Q1090 -1251 1082 -1243Q1074 -1235 1074 -1230Q1074 -1207 1096 -1207Q1115 -1207 1115 -1227ZM895 -1522Q885 -1522 867 -1507Q842 -1487 840 -1486Q827 -1499 823.5 -1521.5Q820 -1544 814 -1550Q805 -1528 785 -1485Q736 -1521 726 -1521Q782 -1484 783 -1448H838Q841 -1490 895 -1522ZM1110 -1173Q1103 -1181 1077 -1181Q1075 -1181 1072 -1180L1062 -1173Q1070 -1176 1078 -1176Q1083 -1176 1089 -1173Q1095 -1170 1096 -1170Q1099 -1170 1110 -1173ZM840 -1415Q838 -1421 837 -1424H781L778 -1415ZM999 -1042V-1049Q999 -1109 962 -1227Q928 -1337 894 -1398Q929 -1421 929 -1436Q929 -1461 888 -1461Q886 -1461 881 -1460Q858 -1435 858 -1430Q858 -1429 885 -1357Q920 -1264 932 -1226Q955 -1151 961 -1090Q963 -1061 963 -1022Q973 -1031 999 -1042ZM1097 -1110Q1097 -1150 1077 -1150Q1074 -1150 1069 -1148.5Q1064 -1147 1061 -1147Q1051 -1147 1043 -1155Q1034 -1145 1034 -1137Q1034 -1100 1056 -1059.5Q1078 -1019 1078 -993Q1078 -963 1050 -946Q1083 -958 1088 -990Q1088 -988 1088 -1053Q1088 -1063 1092.5 -1082Q1097 -1101 1097 -1110ZM1479 -945Q1412 -916 1378 -916Q1362 -916 1293.5 -937Q1225 -958 1211 -958Q1205 -958 1155 -938Q1105 -918 1092 -918Q1056 -918 987.5 -938Q919 -958 883 -958Q855 -958 832 -941Q809 -924 809 -897L806 -896Q796 -895 855 -885Q874 -939 933 -939Q946 -939 1005 -917.5Q1064 -896 1096 -896Q1118 -896 1165.5 -916Q1213 -936 1220 -936Q1227 -936 1284 -917Q1338 -899 1393 -899Q1446 -899 1479 -945ZM1054 -976Q1054 -1009 1042 -1033.5Q1030 -1058 1017 -1083Q1017 -1077 1019.5 -1065Q1022 -1053 1022 -1046V-1022H1019Q1001 -1022 979.5 -1005.5Q958 -989 958 -972Q1003 -954 1014 -954Q1021 -954 1054 -976ZM939 -1042Q939 -1119 908 -1220Q879 -1305 849 -1391H768Q674 -1161 668 -1031Q668 -1024 665.5 -1008.5Q663 -993 663 -985Q663 -981 665 -972Q689 -981 732 -979Q683 -1012 683 -1061Q683 -1103 715.5 -1135Q748 -1167 790 -1167Q849 -1167 877 -1124Q898 -1091 898 -1067Q898 -1007 838 -972Q866 -981 880 -981Q910 -981 938 -977Q939 -1051 939 -1042ZM1858 -94L1796 -213Q1796 -195 1788.5 -160.5Q1781 -126 1781 -108Q1781 -65 1799 -65Q1802 -81 1806 -97.5Q1810 -114 1827 -118Q1831 -101 1845 -74H1851ZM759 -1437Q759 -1464 714 -1464Q711 -1464 706 -1463Q691 -1448 691 -1439Q691 -1431 723 -1404Q662 -1254 652 -1226Q616 -1124 609 -1040Q627 -1030 643 -1016Q650 -1150 702 -1286Q759 -1437 759 -1437ZM872 -1066Q872 -1141 790 -1141Q709 -1141 709 -1060Q709 -1027 733 -1006Q757 -985 790 -987L796 -982Q797 -982 799 -981Q827 -981 849.5 -1009Q872 -1037 872 -1066ZM819 -963Q800 -956 781 -959Q792 -951 797 -935Q807 -953 819 -963ZM540 -1227Q540 -1233 531 -1244Q516 -1251 519 -1251Q512 -1251 499 -1239V-1219Q517 -1207 519 -1207Q540 -1207 540 -1227ZM535 -1175Q524 -1181 513 -1181H507Q493 -1181 487 -1173Q500 -1170 502 -1170Q505 -1170 517 -1175Q526 -1178 535 -1175ZM2004 310V308Q1986 312 1951 321Q1949 328 1946 347Q1977 339 1980 338Q1992 332 2004 310ZM888 -844Q877 -852 861 -859Q844 -830 805 -771Q791 -750 792 -727Q794 -700 790 -692Q804 -693 829.5 -712.5Q855 -732 867 -773Q878 -809 888 -844ZM1776 -48Q1776 -49 1765 -62.5Q1754 -76 1754 -86Q1754 -107 1763.5 -149.5Q1773 -192 1773 -213Q1773 -218 1772 -223Q1737 -147 1675 7Q1649 86 1593 209Q1587 217 1561 231Q1543 240 1508 284Q1546 307 1552 307Q1546 307 1580 303Q1587 295 1618 280Q1632 239 1665 161Q1694 121 1748 39Q1776 -11 1776 -48ZM2096 6Q2096 -3 2076 -56Q2056 -109 2056 -116L2063 -428Q2063 -431 2064 -437.5Q2065 -444 2065 -447Q2065 -450 2045.5 -499Q2026 -548 2023 -552Q1980 -607 1938 -622Q1857 -651 1776 -651Q1706 -651 1609 -643Q1593 -642 1540 -633Q1496 -626 1473 -626Q1415 -626 1275 -646Q1239 -649 1177 -661Q1114 -684 894 -839V-799Q894 -702 777 -664Q768 -704 768 -722Q768 -748 773 -760Q783 -784 853 -863Q813 -879 761 -879Q716 -879 603 -785Q587 -764 554 -725Q522 -691 520 -668Q528 -659 534 -659Q546 -659 570.5 -668Q595 -677 607 -677Q614 -677 621 -664Q597 -652 558 -641Q566 -634 577 -634Q589 -634 638 -652.5Q687 -671 700 -671Q757 -671 783 -596Q800 -536 816 -475Q845 -398 870 -367Q937 -282 997 -273Q933 -389 933 -415Q933 -429 939 -429Q952 -429 981 -358Q988 -337 1007 -296Q1039 -258 1097 -178Q1174 -49 1216 61Q1248 145 1248 197Q1248 236 1208 285Q1265 285 1280 284Q1282 232 1307 220Q1306 212 1286 135Q1257 27 1236 -42Q1218 -87 1201 -132Q1185 -172 1185 -230Q1185 -253 1114 -404L1128 -421L1207 -247L1362 -232Q1445 -224 1439 -224Q1436 -224 1567 -238Q1576 -239 1581 -232Q1638 -250 1761 -274L1657 -423Q1658 -434 1668 -438Q1718 -385 1794 -269Q1799 -262 1876 -110Q1907 -56 1950 37Q1976 120 1976 186Q1976 210 1927 294Q1938 298 1942 298Q1956 298 2004 284Q2004 279 2029 233Q1995 72 1995 75Q1995 55 2003.5 13.5Q2012 -28 2012 -48Q2012 -73 1987 -117Q1962 -161 1962 -187Q1962 -226 1990 -362Q1991 -369 2003 -411Q2014 -449 2014 -452Q2014 -456 1992.5 -494.5Q1971 -533 1971 -540Q1971 -550 1977 -553L1986 -552L1994 -549Q2012 -521 2039 -463Q2056 -411 2052 -375L2040 -257Q2034 -199 2059 -29Q2065 12 2092 70Q2092 60 2094 38.5Q2096 17 2096 6ZM564 -1111V-1136Q564 -1144 558 -1153Q502 -1150 502 -1111Q502 -1100 507.5 -1076Q513 -1052 513 -1040Q513 -1032 512 -1015Q511 -998 511 -990Q511 -976 530 -959Q521 -969 521 -993Q521 -1021 542.5 -1058.5Q564 -1096 564 -1111ZM1929 319Q1927 319 1917 317Q1914 334 1910 349L1922 344Q1925 335 1929 319ZM553 -942L538 -952Q546 -946 553 -942ZM783 -902Q779 -914 771 -939Q747 -952 722 -952Q674 -952 576 -924Q558 -919 551 -919Q528 -919 483.5 -935.5Q439 -952 414 -952Q367 -952 343 -944Q240 -910 250 -910Q202 -910 128 -952Q149 -913 269 -896L414 -933Q518 -899 554 -899Q586 -899 640 -916Q694 -933 705 -933Q738 -933 747 -902ZM731 -635L726 -638Q723 -623 723 -602V-581Q731 -611 731 -635ZM1568 329Q1560 330 1558 330H1550Q1539 330 1522 321L1506 355Q1524 353 1542 349Q1560 345 1568 329ZM603 -534V-615L591 -610Q593 -583 602 -529Q603 -531 603 -534ZM1503 309Q1497 305 1494 301Q1480 321 1471 340Q1476 340 1483 342Q1490 331 1503 309ZM1268 312H1216Q1212 324 1206 348Q1224 342 1242 335Q1265 325 1268 312ZM1073 -169Q1073 -178 1047 -210Q1021 -242 1012 -244Q973 -111 887 150Q871 193 783 272Q829 295 857 295Q860 282 876 275Q889 270 902 264Q909 226 931 152Q964 68 990 34Q1005 18 1029 -19Q1073 -116 1073 -169ZM1192 312L1188 311Q1184 321 1176 340H1183ZM847 318Q822 315 804 308Q791 337 780 354Q832 348 847 318ZM788 300Q780 296 771 285Q771 285 744 340Q749 340 759 342Q768 328 788 300ZM767 -815Q737 -785 727 -785H705L698 -792L699 -790Q696 -794 695 -802Q695 -829 723 -829Q725 -829 767 -815Z"/>
</svg>