<svg xmlns="http://www.w3.org/2000/svg" viewBox="15.3 -1645.7 2287.4 2110.4">
	<path fill="currentColor" d="M2218 33Q2218 65 2208 145Q2185 106 2162 68Q2137 20 2130 -15Q2099 -180 2108 -254L2126 -401Q2123 -416 2119 -433Q2075 -259 2075 -209Q2075 -194 2093.5 -163Q2112 -132 2115 -116Q2122 -76 2122 -43Q2122 -37 2120.5 -25.5Q2119 -14 2119 -8V67Q2138 139 2159 223Q2147 237 2131 261Q2131 267 2130 279Q2126 327 2092 349Q2083 355 2016 380L2020 358Q2000 371 1980 370Q1983 350 1992 312Q1995 302 2023 260Q2048 222 2048 208Q2048 194 2045.5 166.5Q2043 139 2043 125Q2043 96 1965 -75V-73L1963 -71V-62H1943Q1917 -62 1905 -92Q1900 -82 1888 -63L1878 -62Q1872 -24 1850 47Q1834 62 1808 91Q1781 125 1722 287Q1707 291 1683 301Q1675 307 1641 373Q1635 373 1622 375Q1609 377 1602 377H1552V359L1513 378V354Q1513 324 1536 283Q1543 270 1571 257Q1606 240 1612 235Q1656 200 1675 163Q1691 105 1728 -5Q1788 -149 1829 -278Q1753 -269 1679 -253Q1668 -251 1589 -224L1584 -235Q1609 -248 1636 -259Q1504 -230 1505 -230Q1505 -230 1259 -245V-178Q1259 -188 1276 -127Q1325 50 1421 214Q1407 226 1368 253Q1364 325 1334 351Q1308 374 1258 377Q1258 377 1239 377L1242 360Q1227 366 1209 370Q1212 360 1220 320Q1227 286 1265 240Q1299 198 1299 164Q1299 156 1267 80Q1236 7 1227 -9Q1222 -19 1203 -39Q1181 -63 1169 -92Q1152 -134 1145 -147Q1126 -90 1083 23Q1052 67 1001 161Q996 199 984 268Q962 280 928 308Q925 323 907 353Q886 374 795 374V362Q787 360 764 362Q788 303 806 282Q827 268 861 235Q903 171 958 -7Q986 -90 1040 -257Q1034 -261 1025 -264Q1023 -235 981 -231Q982 -222 982 -219L981 -211Q965 -193 941 -188Q936 -149 899 -143Q898 -135 897 -119Q887 -114 859 -105Q853 -80 847 -73.5Q841 -67 817 -62Q810 -46 803 -29Q793 -15 770 -14L771 -4Q739 35 720 31V36Q720 57 698.5 73.5Q677 90 656 88Q657 97 657 102Q657 110 626 146Q620 148 615 148Q595 148 582 142Q574 236 510 236Q490 236 477 211Q470 240 463 268Q454 302 436 319Q413 341 388 341Q355 341 340 303Q334 315 322 337Q297 377 257 377Q224 377 208 348Q185 377 160 377Q100 377 100 310Q100 302 209 168L346 -1Q369 -30 390 -52Q462 -128 839 -497Q837 -527 815 -584Q791 -647 771 -661Q759 -669 717 -669Q611 -621 591 -621Q587 -621 570 -640Q565 -639 562 -639Q556 -639 541.5 -647Q527 -655 521 -656V-698Q521 -714 563 -771Q600 -823 620 -842Q657 -877 756 -922Q750 -935 739 -935Q707 -935 652.5 -916.5Q598 -898 570 -898Q545 -898 497.5 -914.5Q450 -931 424 -931Q372 -931 273 -894Q260 -889 257 -889Q163 -889 121 -937Q115 -953 103 -986V-1007Q107 -1006 166 -980Q203 -963 232 -963Q262 -963 318.5 -987Q375 -1011 411 -1011Q437 -1011 481 -996Q515 -984 550 -972L697 -1020Q752 -1012 764 -1009Q801 -999 823 -975Q828 -969 830 -962Q831 -970 836 -986Q864 -1000 892 -1014Q914 -1023 956 -1023Q984 -1023 1036 -1003.5Q1088 -984 1116 -984Q1108 -984 1179 -1009Q1201 -1017 1245 -1023L1363 -993Q1463 -1084 1667 -1263Q1675 -1270 1757 -1332Q2059 -1561 2061 -1561Q2075 -1561 2095 -1554Q2104 -1551 2117.5 -1532Q2131 -1513 2131 -1504Q2131 -1492 2120 -1464Q2115 -1460 2103 -1452L2108 -1451Q2131 -1430 2131 -1402Q2131 -1388 2110 -1358Q2100 -1343 2049 -1321Q2089 -1307 2089 -1267Q2089 -1241 2062 -1219Q2054 -1213 1961 -1182Q1968 -1172 1975 -1167Q1978 -1161 1978 -1148Q1978 -1085 1879 -1079Q1885 -1071 1885 -1062Q1885 -1002 1832 -1002Q1826 -1002 1820 -1004Q1822 -998 1822 -993Q1822 -989 1821 -982.5Q1820 -976 1820 -972Q1780 -937 1769 -937Q1762 -937 1756 -940Q1758 -937 1758 -934Q1758 -918 1744.5 -901.5Q1731 -885 1715 -889Q1705 -847 1666 -843Q1667 -826 1650.5 -812.5Q1634 -799 1617 -798Q1616 -790 1599 -761Q1587 -760 1579 -759Q1563 -719 1527 -720Q1525 -691 1513 -683H1581Q1591 -683 1648 -696Q1711 -710 1728 -712Q1814 -722 1885 -722Q1897 -722 1959 -702Q2021 -682 2036 -675Q2048 -664 2073 -644Q2126 -609 2156 -543Q2169 -513 2170 -481L2173 -294Q2174 -217 2186 -135Q2189 -117 2205 -54Q2218 -5 2218 33ZM2108 -1501Q2108 -1535 2058 -1535H2057Q1936 -1440 1691 -1253L1701 -1236Q1814 -1305 1969 -1398Q2021 -1426 2096 -1474Q2108 -1484 2108 -1501ZM2105 -1399Q2105 -1433 2086 -1433Q2074 -1433 2060 -1426.5Q2046 -1420 1944 -1358Q1875 -1316 1707 -1213L1712 -1188Q1801 -1229 1979 -1312Q2023 -1331 2087 -1366Q2105 -1380 2105 -1399ZM2066 -1270Q2066 -1297 2034 -1297Q1999 -1297 1942 -1272Q1898 -1251 1854 -1230Q1801 -1207 1714 -1164V-1143Q1803 -1165 1892 -1186Q2030 -1222 2048 -1238Q2066 -1254 2066 -1270ZM1952 -1147Q1952 -1165 1927 -1165Q1885 -1165 1817 -1147Q1762 -1133 1707 -1118L1705 -1104H1915Q1925 -1104 1938.5 -1120Q1952 -1136 1952 -1147ZM1862 -1055Q1862 -1081 1840 -1081H1700Q1697 -1073 1685 -1057Q1808 -1029 1826 -1029Q1862 -1029 1862 -1055ZM1795 -997Q1795 -1006 1789 -1011Q1726 -1026 1668 -1038L1656 -1020L1768 -961Q1795 -975 1795 -997ZM1741 -939Q1741 -944 1738 -948Q1692 -975 1639 -1003L1620 -985Q1702 -915 1718 -915Q1741 -915 1741 -939ZM1690 -890Q1690 -898 1650 -934Q1610 -970 1602 -970Q1601 -970 1578 -945Q1652 -867 1663 -867Q1690 -867 1690 -890ZM1639 -842Q1639 -852 1560 -928Q1551 -919 1533 -902Q1607 -825 1621 -825Q1639 -825 1639 -842ZM1687 -1133Q1687 -1213 1676 -1236L1393 -990Q1411 -984 1415 -984Q1451 -984 1547 -1030L1557 -1020V-994Q1557 -975 1528 -951Q1515 -940 1466.5 -928Q1418 -916 1397 -916Q1393 -916 1332 -933L1135 -765Q1149 -754 1181 -735Q1254 -704 1290 -704H1295Q1371 -777 1523 -924Q1572 -967 1659 -1063Q1665 -1069 1676 -1080Q1687 -1108 1687 -1133ZM1591 -812Q1559 -847 1516 -886L1494 -864Q1573 -785 1585 -785Q1590 -785 1591 -812ZM1555 -763Q1555 -781 1477 -847Q1467 -838 1448 -819Q1522 -743 1530 -743Q1555 -743 1555 -763ZM1507 -718Q1507 -731 1431 -805L1407 -780Q1483 -704 1491 -704Q1507 -704 1507 -718ZM1531 -990L1530 -996Q1492 -985 1415 -961L1243 -1000Q1206 -995 1183 -987Q1107 -961 1120 -961Q1091 -961 1039.5 -980.5Q988 -1000 962 -1000Q911 -1000 853 -968Q845 -943 845 -932Q858 -928 883 -924L884 -923Q890 -953 935 -972L1116 -930Q1150 -936 1168 -942Q1173 -944 1210 -962Q1236 -975 1254 -975Q1281 -975 1331 -957Q1381 -939 1397 -939Q1505 -939 1531 -990ZM1457 -687Q1439 -717 1389 -765Q1380 -756 1361 -738Q1376 -724 1404 -693Q1422 -690 1457 -687ZM1951 -103L1879 -232L1880 -216Q1881 -197 1872 -163.5Q1863 -130 1863 -125Q1863 -128 1872 -85H1876Q1886 -102 1910 -134Q1912 -132 1924 -104Q1932 -85 1944 -85Q1947 -94 1951 -103ZM1370 -697Q1355 -711 1344 -721Q1337 -715 1323 -701Q1350 -698 1370 -697ZM1304 -942Q1264 -952 1255 -952Q1238 -952 1212 -940Q1175 -921 1171 -920Q1151 -913 1117 -907L939 -948Q923 -942 905 -918L1115 -778ZM2097 302L2052 323L2047 322Q2046 336 2044 347Q2072 338 2079 334Q2090 326 2097 302ZM1858 -200Q1857 -223 1852 -268Q1832 -210 1790 -93Q1774 -57 1744 16Q1731 72 1696 172Q1662 243 1587 273Q1660 291 1658 291Q1656 291 1705 271Q1717 230 1745 150Q1768 97 1801 65Q1813 56 1828 39Q1856 -19 1856 -65Q1856 -70 1848.5 -94Q1841 -118 1840 -125ZM2026 314Q2024 313 2019 311Q2008 335 2008 344V345L2022 343ZM2195 70Q2195 -8 2195 -8Q2183 -45 2166 -120Q2150 -223 2150 -293Q2150 -315 2151 -353.5Q2152 -392 2152 -408Q2152 -496 2130 -545Q2102 -609 2022 -657Q2003 -669 1953 -684Q1903 -699 1882 -699Q1873 -699 1854.5 -696.5Q1836 -694 1826 -694Q1821 -694 1811 -695Q1801 -695 1796 -695Q1751 -695 1662.5 -676Q1574 -657 1529 -657Q1533 -657 1391 -671Q1346 -674 1258 -685Q1202 -696 1162 -719Q1155 -723 1078 -777Q1036 -814 994 -851Q944 -895 901 -895H899Q871 -855 844.5 -815.5Q818 -776 818 -714Q818 -709 819 -707Q822 -708 825 -710Q874 -744 888 -783Q901 -829 914 -875Q930 -875 930 -860Q930 -832 912.5 -783.5Q895 -735 877 -715Q867 -704 806 -678Q797 -732 797 -745Q797 -826 892 -899Q861 -910 828 -910Q737 -910 646 -832Q583 -779 549 -715Q545 -707 544 -694Q549 -707 555 -714Q560 -715 569 -720L611 -711Q597 -703 575 -697Q563 -688 544 -674V-673Q550 -668 564 -662Q619 -692 639 -692Q649 -692 659 -689Q654 -686 588 -650L592 -644Q605 -646 654 -669Q703 -692 714 -692Q708 -692 784 -681Q801 -661 828 -618Q846 -541 882 -437Q894 -422 915 -390Q956 -306 1050 -279L964 -450Q978 -443 996 -432Q1003 -416 1018 -386Q1037 -348 1078 -273Q1111 -234 1170 -153Q1171 -151 1179 -125.5Q1187 -100 1211 -71Q1240 -34 1248 -20Q1260 3 1290 72Q1322 149 1322 162Q1322 200 1308 222Q1288 247 1268 271Q1280 282 1285 282Q1274 282 1341 272Q1345 269 1345 254Q1345 242 1351.5 235Q1358 228 1391 209Q1369 169 1328 86Q1269 -47 1244 -156Q1233 -204 1233 -188V-261Q1233 -261 1176 -425Q1192 -424 1199 -421Q1222 -356 1259 -266Q1278 -265 1380 -258Q1453 -253 1500 -253Q1522 -253 1568 -265Q1614 -277 1636 -277H1691Q1728 -277 1832 -301L1712 -459Q1757 -427 1823 -350Q1953 -199 2060 89Q2071 119 2071 211Q2071 218 2031 291Q2044 300 2049 300Q2065 300 2107 268Q2107 265 2108 257Q2109 249 2120.5 234Q2132 219 2132 217Q2131 211 2127 197Q2096 83 2096 50Q2096 32 2099 -2.5Q2102 -37 2102 -55Q2102 -101 2076.5 -149Q2051 -197 2051 -228Q2051 -262 2090 -414Q2108 -484 2108 -485Q2108 -491 2090 -528.5Q2072 -566 2072 -592V-603Q2094 -568 2129 -497Q2153 -432 2149 -402L2131 -254Q2122 -183 2153 -18Q2158 7 2194 76Q2195 74 2195 70ZM817 -932Q800 -989 700 -997L549 -948Q510 -961 472.5 -973Q435 -985 390 -985Q362 -985 313.5 -962.5Q265 -940 232 -940Q193 -940 134 -968L140 -950Q191 -912 254 -912Q267 -912 327 -933Q387 -954 424 -954Q451 -954 497.5 -939Q544 -924 571 -924Q604 -924 651 -942.5Q698 -961 724 -961Q710 -961 755 -960Q780 -927 783 -927Q793 -927 817 -932ZM1647 312Q1602 299 1596 299Q1593 299 1584 315.5Q1575 332 1575 336V351Q1582 351 1602 350Q1618 350 1628 350Q1633 336 1647 312ZM999 -264Q999 -278 967 -298Q929 -321 921 -336L904 -320Q970 -253 982 -253Q999 -253 999 -264ZM1569 291Q1567 291 1563 290Q1555 290 1542 341Q1543 341 1569 291ZM957 -228Q957 -242 928 -268Q907 -285 886 -303Q881 -299 860 -278Q935 -211 943 -211Q957 -211 957 -228ZM918 -185Q918 -200 842 -261L818 -236Q891 -169 898 -169Q918 -169 918 -185ZM876 -140Q876 -146 800 -221L778 -200Q850 -127 855 -127Q876 -127 876 -140ZM1337 295Q1335 295 1285 305Q1282 312 1270 350Q1285 345 1315 336Q1324 323 1337 295ZM1131 -168Q1129 -180 1072 -244Q1069 -245 1062 -247L983 -12Q945 106 939 122Q909 205 879 248Q872 257 846 278Q867 284 908 295Q915 283 938 271.5Q961 260 962 258Q971 241 973 206Q974 167 979 153Q991 120 1034 52Q1074 -11 1085 -51Q1095 -88 1131 -168ZM1263 298Q1261 295 1255 291L1242 337L1249 335Q1263 306 1263 298ZM910 -357Q882 -393 844 -472L428 -57Q458 -40 510 -40Q505 -40 525 -45Q598 -63 628 -90Q681 -143 790 -248Q832 -282 910 -357ZM836 -104Q836 -120 761 -183Q745 -170 736 -161Q810 -85 813 -85Q836 -85 836 -104ZM791 -62Q791 -71 719 -143Q711 -135 696 -119Q712 -95 729 -70Q753 -37 770 -37Q791 -37 791 -62ZM748 -13Q724 -43 676 -104L661 -89Q661 -86 707 2Q719 5 725 5H735Q738 3 748 -13ZM697 34L644 -74L626 -62Q632 -21 650 57Q659 65 663 65Q678 65 697 34ZM633 97Q633 98 606 -49Q598 -44 580 -36V116Q595 125 604 125Q633 125 633 97ZM900 315Q882 311 845 303Q839 319 825 350H827Q880 350 891 337Q894 334 900 315ZM824 297L802 335H805Q812 320 824 297ZM559 -29Q547 -26 541 -23Q539 -14 512 79Q493 143 493 182Q493 212 514 210L527 209Q557 194 557 167ZM518 -18L497 -20Q495 -15 419 137Q357 261 357 280Q357 315 387 315Q423 315 436 280Q440 269 479 127Q518 -15 518 -18ZM471 -20L447 -24Q228 301 228 331Q228 354 259 354Q283 354 304 323Q320 290 351 225Q420 82 471 -20ZM425 -32L408 -40Q312 74 126 306Q125 354 161 354Q178 347 184 341Q187 338 257 229ZM800 -830Q761 -814 744 -814H720Q724 -830 744 -860H757Q764 -860 800 -830ZM764 -840L744 -837L747 -825L763 -828Z"/>
</svg>