<svg xmlns="http://www.w3.org/2000/svg" viewBox="0 -2048 2048 2048">
	<path fill="currentColor" d="M1597 -1260Q1571 -1251 1542 -1251Q1540 -1237 1537 -1210H1372Q1359 -1247 1352 -1255Q1339 -1271 1306 -1271Q1290 -1230 1271 -1230Q1245 -1230 1245 -1246Q1245 -1251 1249.5 -1258Q1254 -1265 1255 -1269Q1257 -1278 1257 -1318Q1257 -1341 1253 -1355Q1245 -1353 1243 -1353Q1222 -1353 1222 -1374Q1222 -1374 1249 -1438Q1255 -1466 1272 -1519Q1303 -1596 1418 -1596Q1514 -1596 1558 -1532Q1565 -1522 1575 -1481Q1590 -1422 1597 -1260ZM1948 432H100V406H241V259H100V233H241V87H100V61H985V-194Q904 -270 755 -394H100V-472H530L532 -482Q535 -499 584 -553.5Q633 -608 644 -639Q701 -802 704 -841Q699 -848 691 -861Q669 -901 647 -941Q611 -1003 594 -1003Q560 -1003 549 -984Q537 -962 526 -940Q504 -936 456 -929Q453 -933 433 -953Q420 -964 420 -985Q420 -993 425 -1018.5Q430 -1044 429 -1047L411 -1163Q417 -1188 430 -1238Q421 -1240 404 -1244Q360 -1256 331 -1315Q311 -1364 291 -1414Q290 -1415 225 -1518L241 -1534Q293 -1491 324 -1440Q351 -1391 377 -1342Q414 -1286 466 -1286Q467 -1286 490 -1294.5Q513 -1303 528 -1303Q531 -1303 538 -1301.5Q545 -1300 548 -1300Q561 -1300 577.5 -1317.5Q594 -1335 598 -1349Q620 -1426 640 -1456Q650 -1472 714 -1543Q735 -1543 735 -1529Q735 -1523 698 -1461Q679 -1430 654 -1372Q648 -1346 642 -1320Q636 -1303 612 -1274Q616 -1270 668 -1260Q668 -1251 663 -1240Q711 -1210 829 -1169Q953 -1125 1002 -1125Q1092 -1125 1249 -1146Q1312 -1154 1415 -1173Q1518 -1192 1519 -1192Q1524 -1192 1533.5 -1189.5Q1543 -1187 1548 -1187Q1652 -1181 1681 -1126Q1700 -1091 1700 -979V-867Q1700 -850 1731 -750Q1737 -731 1737 -660Q1697 -709 1680 -754Q1660 -648 1660 -647Q1660 -627 1662.5 -587.5Q1665 -548 1665 -528Q1659 -522 1650 -517Q1649 -511 1647 -499L1662 -472H1948V-394H1230Q1289 -319 1289 -265Q1289 -209 1242.5 -167.5Q1196 -126 1139 -126Q1103 -126 1063 -145V61H1948V87H1807V233H1948V259H1807V406H1948ZM1570 -1280Q1568 -1357 1565 -1391Q1559 -1454 1544 -1500Q1521 -1570 1418 -1570Q1313 -1570 1291 -1494Q1301 -1493 1347 -1493Q1412 -1493 1422 -1457Q1435 -1480 1459 -1480Q1477 -1480 1491 -1463.5Q1505 -1447 1505 -1429Q1505 -1412 1484.5 -1386.5Q1464 -1361 1464 -1360Q1464 -1344 1481 -1312Q1500 -1277 1539 -1277Q1551 -1277 1570 -1280ZM1515 -1236V-1254Q1466 -1279 1446 -1342Q1443 -1341 1437 -1341Q1409 -1341 1409 -1373Q1409 -1388 1431 -1401Q1434 -1395 1434 -1369L1437 -1367L1441 -1368Q1481 -1429 1481 -1429Q1481 -1454 1459 -1454Q1443 -1454 1443 -1427Q1443 -1416 1434 -1408H1405Q1402 -1412 1396 -1453Q1393 -1471 1355 -1471H1286Q1272 -1419 1251 -1378Q1259 -1378 1270 -1377Q1271 -1390 1280 -1399L1295 -1385V-1371Q1293 -1362 1281 -1352V-1343Q1288 -1344 1289 -1344Q1304 -1344 1308 -1326L1298 -1316H1281Q1283 -1306 1283 -1302Q1283 -1298 1273 -1262Q1290 -1297 1300 -1297Q1367 -1297 1390 -1236ZM1664 -839L1657 -996Q1647 -941 1647 -900Q1647 -898 1664 -839ZM1711 -735Q1702 -760 1687 -811Q1692 -770 1711 -735ZM1636 -475Q1634 -480 1626 -493Q1622 -482 1620 -473Q1622 -473 1636 -475ZM1598 -505Q1586 -488 1586 -484V-475L1595 -478Q1601 -489 1607 -505ZM1595 -606Q1595 -665 1583 -735Q1580 -752 1528 -803H1523Q1525 -794 1525 -787Q1525 -771 1507 -761Q1497 -770 1491 -778Q1487 -771 1472 -761Q1451 -775 1451 -790Q1444 -769 1431 -769Q1426 -769 1422 -772Q1423 -769 1423 -766Q1423 -762 1409.5 -729Q1396 -696 1393 -692Q1359 -652 1325 -594Q1310 -566 1277 -514Q1275 -512 1262.5 -504Q1250 -496 1250 -493V-472H1563Q1563 -491 1588 -532Q1589 -541 1592 -569Q1595 -592 1595 -606ZM1660 -768Q1625 -900 1625 -897Q1625 -941 1634 -994Q1635 -1002 1645 -1037Q1654 -1068 1654 -1075Q1654 -1094 1636.5 -1112.5Q1619 -1131 1619 -1137Q1619 -1142 1622 -1146Q1575 -1169 1521 -1169Q1516 -1169 1416 -1151Q1360 -1141 1248 -1123Q1089 -1102 1002 -1102Q938 -1102 823 -1149Q763 -1170 652 -1222Q644 -1214 626 -1202Q610 -1201 563 -1180V-1201Q576 -1221 602 -1223Q628 -1225 638 -1243L625 -1246Q625 -1244 625 -1241Q624 -1237 624 -1235Q614 -1232 593 -1227Q583 -1218 559 -1203L553 -1211L548 -1207L535 -1221Q547 -1238 557 -1248L549 -1254Q556 -1265 562 -1267Q606 -1285 626 -1346Q656 -1438 664 -1452Q646 -1431 628 -1369Q611 -1312 587 -1294Q554 -1269 541 -1269Q528 -1269 530 -1280H516Q505 -1280 486 -1269Q483 -1264 478 -1261Q434 -1231 434 -1163Q434 -1144 442 -1105.5Q450 -1067 450 -1047Q450 -1037 446.5 -1019Q443 -1001 443 -992Q443 -964 461 -964Q466 -964 476 -965H463V-1007H482V-966Q518 -971 527 -988Q538 -1011 546 -1015Q561 -1019 592 -1027Q597 -1051 601 -1075Q606 -1096 628 -1118Q627 -1092 613 -1016Q655 -983 695 -904Q750 -799 763.5 -780.5Q777 -762 803 -762V-765Q803 -788 783 -816Q756 -854 752 -863Q730 -915 730 -1048Q736 -1054 743 -1054H747Q747 -1054 753 -962Q756 -909 773 -870Q778 -858 807 -817Q828 -789 831 -751Q837 -685 837 -591Q837 -554 798 -511Q806 -511 823 -509Q832 -524 845 -529L854 -519L855 -520L859 -681Q860 -736 886 -775Q897 -792 897 -808Q897 -820 893.5 -843.5Q890 -867 890 -879Q890 -896 893.5 -930Q897 -964 897 -981Q904 -991 917 -991L919 -809Q919 -807 915 -786Q963 -806 1065 -817Q1160 -827 1203 -848Q1228 -863 1252 -877Q1282 -894 1306 -894Q1326 -894 1365 -884Q1385 -879 1411 -845Q1434 -815 1468 -815Q1480 -815 1510 -824Q1490 -864 1443 -940Q1427 -953 1397 -979Q1405 -987 1412 -987Q1417 -987 1437 -972.5Q1457 -958 1461 -953Q1484 -910 1536 -827Q1568 -795 1605 -740Q1618 -673 1618 -608Q1618 -564 1611 -527L1625 -525Q1629 -537 1642 -540L1639 -637Q1638 -662 1647 -703Q1659 -761 1660 -768ZM1405 -783H1402Q1385 -783 1385 -808Q1385 -811 1397 -828Q1397 -834 1379.5 -848.5Q1362 -863 1355 -864Q1309 -871 1313 -871L1329 -746Q1315 -701 1278 -621Q1235 -531 1212 -511Q1252 -515 1262 -531Q1285 -575 1337 -660Q1352 -674 1376 -704Q1406 -754 1405 -783ZM1306 -747L1289 -868H1280Q1228 -842 1176 -817Q1134 -799 1063 -793Q961 -784 901 -756Q897 -754 889 -731Q881 -708 881 -701V-576Q881 -582 877 -508Q855 -494 852 -494Q847 -494 843 -497Q844 -490 844 -472H1150Q1162 -493 1184 -513.5Q1206 -534 1212 -543Q1264 -628 1306 -747ZM448 -1267Q432 -1270 408 -1279Q361 -1311 318 -1404Q342 -1339 353 -1319Q379 -1274 421 -1264Q442 -1259 439 -1259Q443 -1259 448 -1267ZM1228 -493H1222Q1206 -493 1200 -474Q1209 -475 1227 -476Q1227 -482 1228 -493ZM1263 -265Q1263 -312 1197 -394H1160Q1243 -327 1262 -250Q1263 -256 1263 -265ZM1781 233V87H1587V233ZM1922 -420V-446H126V-420ZM1241 -221Q1234 -309 1116 -394H1063V-227Q1122 -194 1166 -194Q1202 -194 1241 -221ZM1781 406V259H1587V406ZM1037 -243V-394H1011V-261Q1027 -249 1037 -243ZM750 -760Q750 -758 716 -814Q695 -736 674 -659Q649 -581 587 -520Q594 -517 608 -514Q616 -524 634 -539L640 -533Q644 -543 667 -595Q670 -601 715 -677Q750 -735 750 -760ZM815 -589Q815 -593 806 -739Q793 -740 772 -748Q766 -715 738 -671Q699 -608 694 -599Q681 -564 642 -499L634 -507Q624 -493 624 -472H745Q753 -503 786 -534Q815 -561 815 -589ZM1561 233V87H1367V233ZM817 -473V-488H810L805 -473ZM1213 -177Q1189 -168 1166 -168Q1046 -168 822 -394H798Q883 -317 969 -241Q1074 -152 1139 -152Q1178 -152 1213 -177ZM784 -490L777 -491Q773 -483 770 -476Q777 -478 784 -490ZM985 -280V-394H859Q930 -323 985 -280ZM1561 406V259H1367V406ZM1341 233V87H1147V233ZM1037 61V-159Q1029 -164 1011 -176V61ZM603 -493L595 -495Q591 -486 586 -473H601Q601 -484 603 -493ZM572 -496V-500L569 -501Q559 -493 556 -477L564 -479Q572 -494 572 -496ZM1341 406V259H1147V406ZM1121 233V87H927V233ZM1121 406V259H927V406ZM901 233V87H707V233ZM901 406V259H707V406ZM681 233V87H487V233ZM681 406V259H487V406ZM461 233V87H267V233ZM461 406V259H267V406ZM1389 -1433Q1361 -1409 1316 -1409Q1311 -1409 1273 -1417Q1274 -1430 1288.5 -1446.5Q1303 -1463 1315 -1463Q1322 -1463 1336.5 -1454Q1351 -1445 1389 -1433ZM516 -1157Q516 -1144 501 -1132Q499 -1117 487 -1093Q483 -1108 472 -1162Q482 -1168 504 -1177L512 -1170Q516 -1161 516 -1157ZM1323 -1435Q1323 -1440 1316 -1440Q1310 -1439 1310 -1435Q1313 -1431 1316 -1431Q1320 -1432 1323 -1435Z"/>
</svg>