<svg xmlns="http://www.w3.org/2000/svg" viewBox="0 0 812 1000">
  <g transform="scale(1,-1) translate(0,-1000)">
    <path d="M713 28Q782 32 782 42Q782 45 773.0 46.5Q764 48 755 48H746Q734 48 712 31Q712 30 712 30ZM747 79Q812 79 812 43Q812 29 801.0 16.5Q790 4 771 3Q753 2 720 2H710Q708 0 704 0H572Q568 0 544.5 2.0Q521 4 506 4Q449 5 331 5H294Q290 5 289 6Q245 2 218 2H172Q158 2 149 3Q141 3 135.0 11.5Q129 20 129 29V30Q132 63 146 63H147Q150 63 158.0 62.5Q166 62 169 62H214Q254 62 280 66Q288 66 292.0 68.5Q296 71 297.0 73.5Q298 76 298 81Q298 83 299.0 84.5Q300 86 300 91Q300 99 298.0 114.5Q296 130 296 139V145Q296 153 293.5 164.5Q291 176 291 180V189Q289 215 289 263V267Q289 283 287.0 304.5Q285 326 285 337V441Q284 452 280 452Q278 452 268.5 447.0Q259 442 249 440V439Q249 434 243.5 428.5Q238 423 229 425Q224 425 219.0 429.5Q214 434 215 443Q206 446 206 455Q206 467 221 482Q231 546 231 569Q231 637 194.0 682.5Q157 728 107 728Q79 728 57.0 712.0Q35 696 35.0 667.0Q35 638 56.0 616.5Q77 595 99 595Q124 595 124 614Q124 622 116.0 636.0Q108 650 108 656Q108 663 114 667Q119 671 125 671Q138 671 148.5 651.5Q159 632 159 614V612Q159 590 142 575H141Q123 560 99 560Q61 560 30.5 592.0Q0 624 0.0 668.0Q0 712 32.5 737.5Q65 763 106 763Q170 763 218.0 708.0Q266 653 266 568Q266 542 261 509Q288 521 313 521Q333 518 350 518H352Q354 522 354 524Q359 541 363.5 563.5Q368 586 373.5 605.0Q379 624 391 644Q402 664 414.5 676.5Q427 689 442.5 701.5Q458 714 468 724Q465 732 465 739Q465 742 465.5 746.5Q466 751 466 753Q459 753 454 754Q444 754 427.5 756.5Q411 759 399 759H398Q393 759 382.5 758.0Q372 757 366 757Q340 757 311.0 768.5Q282 780 279 808Q279 809 278.5 809.5Q278 810 278.0 811.0Q278 812 278.0 815.0Q278 818 277 823Q276 829 272.0 843.5Q268 858 268 868Q268 909 298 909Q303 909 311 907L319 905H328Q337 905 351.0 904.5Q365 904 371 904Q391 904 404 908Q406 909 406.5 911.0Q407 913 410.0 918.0Q413 923 418 930L456 980Q461 988 472 988Q478 988 483 985Q489 985 504.5 985.5Q520 986 530 987Q536 988 555.0 993.5Q574 999 586 999Q625 999 664 964Q684 944 695.0 931.0Q706 918 718.5 893.0Q731 868 731 844Q731 840 729.5 826.5Q728 813 720.5 787.5Q713 762 702 746Q720 740 728 726Q760 668 767 641Q769 636 774.5 618.0Q780 600 782.0 592.5Q784 585 786.0 570.5Q788 556 788 542V540Q788 515 784.5 493.0Q781 471 775.0 444.0Q769 417 766 397Q752 323 737.0 237.5Q722 152 714.0 108.5Q706 65 706 64Q725 79 747 79ZM490 899Q500 899 506.5 891.5Q513 884 513 874Q513 865 505.5 858.5Q498 852 488 852Q454 852 454 875Q454 899 490 899ZM483 792Q485 801 518.5 830.0Q552 859 554 874V877Q554 878 554 880L553 882Q550 888 540 898Q528 910 507.0 924.0Q486 938 478 944L450 905Q448 903 442 893Q426 864 371 864Q364 864 350.0 864.5Q336 865 328 865H319Q315 865 306.5 866.5Q298 868 296 868Q292 868 292 866Q292 860 303.0 854.5Q314 849 324.5 838.5Q335 828 335 810Q336 808 336 807V806Q345 799 351 798Q355 798 359 797Q360 797 362.0 796.5Q364 796 366 796Q370 796 379.5 797.5Q389 799 398 799H399Q405 799 414.5 798.0Q424 797 436.5 795.5Q449 794 457 793Q472 793 483 792ZM676 715Q657 700 626.0 687.5Q595 675 570 675Q568 675 564.5 675.5Q561 676 559 676Q519 679 496 696Q484 684 469.5 673.0Q455 662 445.5 652.0Q436 642 426 625Q410 598 404.0 560.5Q398 523 384 490Q390 481 405.0 456.5Q420 432 431 417Q496 334 533.0 296.5Q570 259 636 218Q652 209 689 199L700 264Q703 282 712.0 327.5Q721 373 726 404Q729 422 735.5 449.5Q742 477 745.0 497.0Q748 517 748 540V542Q748 554 746.0 565.5Q744 577 742.5 583.0Q741 589 736.0 606.0Q731 623 729 630Q721 657 694 706Q693 707 688.0 709.0Q683 711 678 714Q678 714 677 714ZM527 947Q583 910 583 877V871Q581 845 545.5 814.0Q510 783 504 768Q505 766 505 764Q506 761 506 754Q506 750 505.5 745.5Q505 741 505 739V738Q531 715 570 715Q573 715 580.5 716.0Q588 717 604.5 722.0Q621 727 635.5 735.5Q650 744 663.5 761.0Q677 778 682 800Q691 836 691 844Q691 883 636 935Q615 956 592 959H586Q578 959 557.5 953.0Q537 947 527 947ZM380 251Q380 242 365.5 195.5Q351 149 351 120Q351 112 353 98Q366 88 415.0 73.0Q464 58 472 54Q497 40 572 40Q644 40 660 62Q666 69 668.0 75.5Q670 82 671.5 94.5Q673 107 675 116Q683 158 683 159Q678 161 663.0 165.0Q648 169 637.0 173.5Q626 178 615 184Q550 223 504.0 269.5Q458 316 399 393Q388 407 380.0 420.5Q372 434 362.0 450.0Q352 466 345 478H338Q337 478 335 478L333 477H331Q324 464 324 441Q324 438 324.5 430.5Q325 423 325 419V410Q325 403 324.5 388.5Q324 374 324 366Q324 351 325 343V337Q325 322 327.0 300.0Q329 278 329 267V263Q329 232 330 214Q331 217 337.0 230.5Q343 244 346.0 251.5Q349 259 353.5 271.5Q358 284 360.0 295.5Q362 307 362 318V327Q362 328 361.5 330.5Q361 333 361 335Q361 356 370 356Q381 355 381 329V285Q381 269 380 251ZM333 35Q362 35 416 33Q349 56 341 60Q338 45 333 35Z" fill="currentColor"/>
  </g>
</svg>