<svg xmlns="http://www.w3.org/2000/svg" viewBox="0 -2048 2048 2048">
	<path fill="#000000" d="M1772 -656Q1772 -626 1754 -575Q1748 -558 1716 -519Q1687 -484 1687 -478Q1687 -475 1701 -425.5Q1715 -376 1717 -354Q1720 -316 1711.5 -239Q1703 -162 1705 -127Q1706 -114 1726 -64Q1746 -14 1746 -8Q1746 -3 1737 35Q1728 73 1726 91Q1725 147 1712 260Q1701 267 1681 280Q1672 293 1649 318Q1627 336 1595 336Q1605 336 1550 319Q1555 300 1568 269Q1587 254 1622 216Q1645 181 1645 109Q1645 58 1625 -9Q1602 -83 1575 -98Q1564 -69 1537 -14Q1509 17 1455 81Q1416 130 1363 236Q1357 230 1349 230Q1336 230 1322 246Q1308 262 1311 277H1218Q1212 274 1201 265Q1214 239 1260 192Q1313 136 1332 110Q1363 66 1404 -21Q1455 -127 1455 -174Q1455 -194 1446 -203Q1436 -201 1423.5 -194.5Q1411 -188 1404 -188H1271Q1263 -209 1251 -209Q1244 -209 1231 -206Q1218 -203 1211 -203Q1100 -203 970 -231Q949 -236 891 -257Q837 -277 833 -277Q832 -277 793 -256Q754 -235 735 -235L487 -267Q452 -262 429 -219Q415 -186 400 -152Q377 -105 325 -14Q319 -5 295 9.5Q271 24 262 24Q258 24 207 7Q211 -16 229 -59Q254 -78 295 -123Q300 -132 346 -258Q381 -358 413 -373Q410 -378 399 -378Q365 -378 312 -286Q287 -237 261 -189Q232 -170 204 -131Q188 -108 153 -108Q147 -108 131.5 -111Q116 -114 107 -114Q100 -121 100 -132Q100 -178 118 -200Q147 -220 194 -266Q231 -336 314 -470Q322 -482 378 -494L553 -463Q568 -463 582 -476Q564 -623 557 -738Q553 -734 542 -719.5Q531 -705 522 -696Q509 -696 497 -708V-724Q497 -731 512 -759Q530 -793 534 -803Q497 -817 483 -817H443Q433 -792 423 -767Q405 -730 373 -722H355Q349 -723 349 -735Q349 -742 358 -769Q368 -801 370 -814Q346 -831 321 -847Q307 -857 307 -878Q307 -904 314 -910Q378 -971 514 -1090Q530 -1098 559 -1117Q609 -1300 626 -1337Q691 -1472 817 -1501Q905 -1521 897 -1521Q971 -1521 1074 -1451Q1182 -1378 1201 -1305Q1200 -1298 1188 -1298Q1186 -1298 1139 -1336Q1089 -1377 1058 -1385H1052Q1099 -1353 1143 -1293Q1187 -1233 1201 -1184L1187 -1171Q1102 -1253 1067 -1279Q999 -1330 942 -1330Q872 -1330 817 -1269Q771 -1218 749 -1142Q735 -1094 735 -1092Q735 -1071 754 -1071Q761 -1071 777.5 -1073.5Q794 -1076 801 -1076Q859 -1076 873 -1058Q857 -997 798 -977V-951Q798 -945 805 -917Q812 -889 813 -878Q815 -854 826 -815Q844 -750 925 -700Q990 -659 1056 -646Q1067 -644 1143 -621Q1195 -605 1240 -605Q1246 -605 1292.5 -610.5Q1339 -616 1346 -616Q1353 -616 1474.5 -595Q1596 -574 1603 -574Q1666 -574 1687 -614Q1703 -665 1720 -716H1749Q1772 -696 1772 -656ZM951 -1418V-1428L863 -1422V-1413ZM1084 -1411Q959 -1494 899 -1494Q685 -1494 606 -1212Q587 -1144 587 -1142V-1119H606Q618 -1122 633 -1131Q737 -1452 915 -1452Q1002 -1452 1084 -1411ZM1746 -653Q1746 -674 1737 -690Q1699 -590 1685 -573Q1664 -547 1605 -547Q1598 -547 1475.5 -568.5Q1353 -590 1346 -590Q1339 -590 1290 -584.5Q1241 -579 1235 -579Q1181 -579 956 -654Q878 -680 837 -742Q792 -810 786 -878Q785 -891 771 -975H733Q721 -975 706 -960Q693 -973 693 -978Q693 -990 697 -987Q727 -1002 748.5 -1002.5Q770 -1003 808 -1009Q824 -1021 824 -1028Q791 -1027 727 -1016Q719 -1013 705 -1002Q691 -991 686 -991Q671 -1006 661 -1026Q685 -1050 708 -1056Q706 -1140 767 -1240Q839 -1357 936 -1357Q1023 -1357 1136 -1257Q1077 -1340 1030 -1368Q987 -1394 918 -1394Q813 -1394 748 -1317Q697 -1258 652 -1127Q652 -1106 651 -1070Q636 -1070 632 -1066Q623 -1076 623 -1097H590Q558 -1097 476 -1020Q350 -903 344 -898Q349 -893 354 -888Q352 -882 350 -876Q382 -876 397 -871V-858Q385 -852 360 -852Q388 -838 399 -838Q406 -838 423.5 -840.5Q441 -843 447 -843Q520 -843 562 -821Q582 -811 582 -782V-625Q582 -581 606 -518Q631 -451 659 -439Q690 -509 728 -563Q737 -554 741 -554Q684 -440 652 -346H419Q385 -300 360 -226Q326 -128 316 -107Q306 -97 291 -77H316Q352 -106 393 -203Q427 -283 476 -293L743 -256Q812 -282 875 -357L894 -338L852 -295Q1009 -230 1217 -230Q1313 -230 1307 -231V-214H1398Q1406 -214 1413 -219.5Q1420 -225 1422 -225V-244Q1391 -329 1391 -378Q1383 -415 1407 -415Q1414 -415 1418 -411Q1412 -346 1440 -258Q1454 -213 1539.5 -152.5Q1625 -92 1638 -41Q1672 87 1672 109Q1672 220 1619 266H1642Q1648 266 1667.5 256Q1687 246 1692 245Q1692 168 1705 59Q1706 50 1713 20Q1719 -7 1719 -13Q1719 -20 1703 -65Q1683 -119 1678 -138Q1677 -142 1677 -169Q1677 -175 1687.5 -252.5Q1698 -330 1698 -336Q1698 -359 1679.5 -423Q1661 -487 1661 -489Q1697 -537 1744 -623Q1746 -630 1746 -653ZM1544 -118Q1499 -151 1472 -161Q1422 48 1291 202Q1317 215 1325 215Q1311 215 1351 207Q1363 163 1431 80Q1517 -26 1532 -51Q1544 -71 1544 -118ZM1641 293L1636 287L1623 300L1628 306ZM1599 287L1592 282L1580 301L1587 306ZM417 -816H398Q395 -793 388 -759Q408 -790 417 -816ZM1310 234L1304 229L1281 252L1286 258ZM1269 237L1262 232L1250 251L1257 256ZM651 -407Q620 -438 600 -468Q594 -450 555 -436L375 -473Q324 -455 277 -357Q221 -242 159 -194H208Q232 -194 283 -276Q347 -376 364 -393Q370 -399 397 -399Q404 -399 456.5 -386Q509 -373 516 -373H639Q639 -383 651 -407ZM317 -36V-55H297Q287 -35 287 -13Q302 -21 317 -36ZM195 -152V-171H170Q170 -156 159 -136Q179 -136 195 -152ZM272 -46H263L257 -21H266ZM145 -171H136L130 -146H139ZM608 -985Q608 -982 605 -972.5Q602 -963 602 -960H585Q564 -960 529 -983Q529 -983 574 -1013Q579 -1008 591 -999Q603 -990 608 -985Z"/>
</svg>