<svg xmlns="http://www.w3.org/2000/svg" viewBox="0 0 966 1000">
  <g transform="scale(1,-1) translate(0,-1000)">
    <path d="M613 0H357Q349 0 343.0 6.0Q337 12 337.0 20.0Q337 28 343.0 34.0Q349 40 357 40H465L463 312Q397 311 327.5 306.0Q258 301 205.5 295.0Q153 289 111.0 283.0Q69 277 44 273L20 269Q12 269 6.0 275.0Q0 281 0 289Q0 306 17 309Q86 320 111 323Q106 324 106 335Q106 347 124.5 364.5Q143 382 144 383Q177 431 177 506Q177 536 171.0 561.0Q165 586 157.5 598.0Q150 610 145 610Q125 603 115 603Q79 603 52.5 633.0Q26 663 23 694V700Q23 735 76.5 805.0Q130 875 165 878H168Q180 878 196.5 871.0Q213 864 225.5 856.0Q238 848 249 840L260 833Q283 816 299.5 792.5Q316 769 330.0 755.0Q344 741 369 737Q369 737 404.0 735.5Q439 734 478.5 732.0Q518 730 528 730Q536 730 550.5 731.0Q565 732 575 732Q708 732 773 616Q788 588 808.0 525.5Q828 463 842 440Q849 428 881.0 407.0Q913 386 913.0 374.0Q913 362 902.5 354.5Q892 347 876 347Q850 347 836 366Q813 397 793.0 437.5Q773 478 762.5 500.0Q752 522 745.0 522.0Q738 522 734.0 514.5Q730 507 730.0 501.0Q730 495 740.0 450.5Q750 406 750 379Q750 356 740 340Q848 329 950 309Q966 305 966 289Q966 281 960.0 275.0Q954 269 946 269Q944 269 921.5 273.5Q899 278 859.5 284.0Q820 290 769.5 296.5Q719 303 648.0 307.5Q577 312 504 312H503L505 40H613Q621 40 627.0 34.0Q633 28 633.0 20.0Q633 12 627.0 6.0Q621 0 613 0ZM486 549Q503 549 518.5 548.0Q534 547 545.5 545.5Q557 544 567.5 542.5Q578 541 585.0 539.5Q592 538 597.0 536.5Q602 535 604 534L607 533Q613 533 617.0 537.5Q621 542 622 547V549Q622 555 617.0 566.0Q612 577 611 581Q608 592 594.5 607.5Q581 623 581 627V628Q581 635 587 635H588Q618 605 621 601Q629 591 637.5 576.0Q646 561 651 555Q657 546 667.0 533.5Q677 521 682 515H686Q691 515 695.5 518.5Q700 522 705.0 528.5Q710 535 713 537Q746 564 746 581Q746 605 704.0 647.5Q662 690 606 696H599Q594 696 576.0 695.5Q558 695 546 695Q532 695 512.0 696.0Q492 697 472.0 698.5Q452 700 431.0 702.0Q410 704 392.0 706.0Q374 708 359.5 709.5Q345 711 336 712L328 713Q305 713 281.0 628.5Q257 544 257 517V514Q322 470 326 453V452Q331 452 332.0 465.0Q333 478 335.5 494.0Q338 510 346 516Q405 549 486 549ZM199 819Q199 827 191.5 835.5Q184 844 170 844Q158 844 149.0 837.5Q140 831 121 812Q58 745 58 703Q58 670 89 645Q90 653 95.5 659.0Q101 665 105 665Q107 665 111.0 662.0Q115 659 116 654Q116 645 108 636Q118 634 121 634Q131 635 135.5 638.5Q140 642 148.0 655.0Q156 668 166 679Q168 682 176.5 689.0Q185 696 187 702Q194 716 194 724Q194 739 181.5 742.0Q169 745 167 748Q159 759 159 770Q159 783 172.0 788.5Q185 794 186 795Q199 812 199 819ZM122 769Q133 769 138.0 759.0Q143 749 143.0 739.0Q143 729 136.0 722.0Q129 715 117 715Q106 715 99.5 723.5Q93 732 93 742Q93 753 102.5 761.0Q112 769 122 769ZM207 535Q207 529 207.5 513.5Q208 498 209 492Q209 485 211 485Q218 485 222.0 503.5Q226 522 228.5 549.0Q231 576 234 586Q239 606 245.0 623.5Q251 641 260.0 663.0Q269 685 274 700Q276 706 284.0 719.0Q292 732 292 740V742Q292 745 291.0 747.5Q290 750 288.5 753.0Q287 756 285.5 758.5Q284 761 281.0 764.5Q278 768 275.5 770.5Q273 773 267.5 778.0Q262 783 258.0 786.0Q254 789 246.0 796.0Q238 803 233 808Q232 797 226.0 789.5Q220 782 210 776L200 769Q224 757 224 715Q224 706 221.5 699.0Q219 692 210.5 679.0Q202 666 201 665Q198 659 193.0 653.5Q188 648 185.5 644.0Q183 640 183 632Q183 622 194.0 590.5Q205 559 207 535ZM573 499Q586 484 586 468V466L602 497ZM658 347Q659 350 678 364Q697 376 699.5 379.0Q702 382 702 391Q702 401 676.0 442.5Q650 484 633 484Q624 484 611.5 459.0Q599 434 584.0 399.0Q569 364 559 351Q625 349 658 347ZM473 352Q471 355 471 360Q471 367 480.5 371.0Q490 375 504.0 378.5Q518 382 523 386Q530 393 539.5 421.0Q549 449 549 464Q549 519 479 519Q458 519 432.5 513.5Q407 508 392.0 503.0Q377 498 374 496Q361 486 361 458Q361 409 352 379Q346 351 340 347Q385 350 473 352ZM277 342Q277 342 276.5 344.0Q276 346 276 347Q276 352 288.0 366.5Q300 381 302 414V427Q301 442 282.5 458.0Q264 474 253 474H252Q243 473 234.5 452.0Q226 431 209.5 394.5Q193 358 171 331Q246 339 277 342Z" fill="currentColor"/>
  </g>
</svg>