<svg xmlns="http://www.w3.org/2000/svg" viewBox="0 -2048 2048 2048">
	<path fill="#000000" d="M1583 -584Q1583 -578 1561 -534Q1535 -483 1528 -464Q1514 -424 1506 -341L1568 88Q1565 182 1493 252.5Q1421 323 1333 323Q1222 323 1117 230Q1038 160 947 22Q879 -86 811 -194Q806 -53 799 134Q797 172 804 210Q811 248 811 255Q811 277 795.5 300Q780 323 741 323Q735 323 697 318Q659 313 653 313Q648 313 600.5 317.5Q553 322 546 322H415Q416 321 416 252Q626 242 653 127L560 -372Q579 -530 689 -530Q756 -530 844 -470Q853 -464 1011 -338Q985 -406 933 -546H661Q657 -546 586 -553.5Q515 -561 508 -561Q484 -561 425 -552Q425 -547 440 -365Q432 -363 390 -349L374 -536Q312 -539 312 -624Q312 -649 322 -662Q319 -665 302 -665V-710H354Q358 -707 358 -719Q358 -736 336 -923Q312 -1127 299 -1194Q296 -1209 276 -1223.5Q256 -1238 237 -1238Q185 -1238 158 -1168Q137 -1116 140 -1074H100V-1178Q99 -1197 132 -1237Q147 -1256 187 -1274Q224 -1290 244 -1290Q341 -1290 361 -1184Q378 -1095 387 -950Q401 -750 405 -710Q490 -675 482 -675Q488 -675 502 -680Q516 -685 522 -685H903Q903 -685 915 -704Q917 -776 939 -849Q948 -878 978 -955Q1004 -1023 1004 -1029Q1004 -1076 969 -1097Q953 -1107 915 -1111Q870 -1116 856 -1121Q833 -1128 790 -1157Q741 -1190 741 -1207Q741 -1252 823 -1316Q879 -1359 936 -1403Q944 -1422 974 -1458Q991 -1472 1017 -1474Q1168 -1486 1141 -1486Q1213 -1486 1277 -1443Q1351 -1394 1351 -1321Q1351 -1315 1345 -1283Q1338 -1246 1336 -1230Q1325 -1130 1325 -1055Q1325 -965 1357 -874Q1397 -763 1406 -693Q1404 -619 1406 -460Q1409 -366 1420 -308Q1419 -352 1430 -440Q1442 -486 1468 -537Q1511 -618 1555 -618Q1583 -618 1583 -584ZM1430 -272V-302H1421V-272ZM1471 -107L1435 -271H1427L1463 -107ZM1563 -574Q1563 -581 1559.5 -585.5Q1556 -590 1556 -592Q1503 -573 1470 -487Q1444 -420 1444 -365Q1444 -312 1462 -238Q1478 -176 1494 -113Q1506 -60 1506 -8Q1506 43 1491 96H1479L1475 62Q1485 29 1473 -6Q1382 -274 1380 -460Q1383 -566 1375 -740Q1369 -772 1331 -895Q1299 -1000 1299 -1044L1325 -1295Q1325 -1372 1262 -1421Q1205 -1466 1131 -1466Q1101 -1466 1087 -1458Q1104 -1440 1110 -1412Q1114 -1392 1118 -1371Q1113 -1366 1096 -1367Q1081 -1455 1030 -1455Q1006 -1455 995 -1444Q969 -1411 922 -1358Q879 -1328 836 -1298Q779 -1257 767 -1214Q797 -1202 841 -1202Q847 -1202 898 -1210Q949 -1218 955 -1218Q959 -1218 968 -1209Q968 -1206 966 -1200Q964 -1194 964 -1191Q843 -1180 798 -1180Q824 -1149 878 -1138Q880 -1137 970 -1128Q994 -1126 1011 -1087Q1025 -1055 1025 -1029Q1025 -1024 992 -916Q956 -794 944 -742L1146 -938L1159 -926Q1073 -844 1030 -800Q952 -719 913 -659Q848 -664 717 -664Q578 -664 541 -662Q534 -662 515 -658Q496 -654 490 -654Q484 -654 455 -667Q426 -680 420 -680Q413 -680 406 -673Q399 -666 396 -665Q378 -668 332 -643Q332 -561 376 -561Q382 -561 437 -574Q492 -587 498 -587Q538 -587 598 -577L888 -571Q936 -571 941 -573Q1003 -600 1097 -697Q1166 -771 1234 -845Q1237 -842 1243 -838.5Q1249 -835 1252 -832L963 -544Q982 -472 1006 -423Q1077 -281 1077 -277Q1077 -261 1065 -261Q930 -380 883 -415Q757 -509 686 -509Q605 -509 580 -383L673 106Q678 180 600 232Q532 278 457 278Q446 278 436 277V302H531Q538 302 597.5 294.5Q657 287 663 287Q670 287 698.5 292Q727 297 733 297Q787 297 787 264V-161Q787 -171 778 -204.5Q769 -238 769 -253Q769 -275 784 -282Q864 -151 943 -19Q1076 183 1197 254Q1270 297 1330 297Q1520 297 1542 70L1480 -362Q1469 -419 1507 -490Q1514 -503 1541 -538Q1563 -568 1563 -574ZM301 -1245Q263 -1264 242 -1264Q228 -1264 198 -1250Q225 -1259 244 -1259Q259 -1259 301 -1245ZM138 -1172V-1186H129V-1172ZM132 -1151V-1170H123V-1151ZM1268 -1349Q1268 -1317 1243 -1281Q1216 -1241 1177 -1228Q1174 -1231 1171 -1237Q1168 -1243 1165 -1246Q1185 -1256 1215 -1279Q1242 -1317 1242 -1352Q1242 -1399 1206 -1399Q1199 -1399 1181 -1382Q1161 -1362 1151 -1357Q1148 -1360 1145 -1366Q1142 -1372 1139 -1375Q1156 -1387 1173 -1411Q1183 -1424 1203 -1424Q1268 -1424 1268 -1349ZM1082 -1354Q1070 -1342 1066 -1342Q1035 -1342 969 -1353Q969 -1356 971.5 -1365Q974 -1374 974 -1377Q1006 -1385 1044 -1404Q1058 -1390 1082 -1354Z"/>
</svg>