<svg xmlns="http://www.w3.org/2000/svg" viewBox="0 -2048 2048 2048">
	<path fill="currentColor" d="M1279 279Q1259 302 1245 302Q1228 302 1203 240Q1182 188 1177 159Q1165 85 1165 6L1196 -348Q1196 -389 1157 -410Q1108 -356 977 -277Q947 -259 895 -219Q895 -219 895 -197L973 281Q969 338 915 338Q908 338 899 330Q890 322 884 322Q878 322 872.5 330Q867 338 860 338H620Q621 315 615 277Q837 245 837 187Q837 155 751 -69Q728 -129 708 -229Q712 -233 700 -233Q682 -233 663 -165Q653 -122 643 -79Q602 25 534 237Q534 238 530 284Q527 315 512 331Q495 338 492 338Q486 338 468 327.5Q450 317 445 317Q439 317 432.5 324.5Q426 332 419 332H183V277Q246 261 308 245Q373 225 415 178Q437 153 460 23Q472 -58 498 -216Q499 -250 517 -310Q531 -333 610 -377Q700 -424 879 -517Q839 -578 825 -674Q822 -694 808 -878Q778 -834 714 -749Q689 -714 664 -680Q626 -634 588 -634Q567 -634 415 -759Q334 -828 252 -897Q247 -899 235 -899Q218 -899 215 -895Q187 -810 134 -655Q122 -660 100 -671Q129 -765 171 -928Q162 -942 158 -973Q168 -998 184 -1049Q186 -1049 195 -1046.5Q204 -1044 210 -1044Q256 -1183 283 -1283Q318 -1271 328 -1260L255 -1029Q282 -998 332 -951Q424 -901 571 -795Q574 -795 579 -796Q581 -799 705 -1006Q774 -1121 838 -1141V-1217Q837 -1217 726 -1240Q656 -1254 638 -1290Q631 -1295 619 -1305Q619 -1359 685 -1386Q736 -1403 787 -1419Q792 -1422 813 -1467Q843 -1486 874 -1486Q931 -1486 990 -1460Q1064 -1426 1075 -1369Q1081 -1338 1075 -1254Q1069 -1158 1073 -1099Q1081 -1071 1095 -1016Q1105 -939 1125 -798Q1133 -745 1173 -580Q1175 -545 1187 -476Q1201 -460 1225 -430Q1248 -396 1252 -376Q1253 -368 1253 -319Q1253 -313 1237.5 -180Q1222 -47 1222 -41Q1222 100 1234 158Q1245 211 1279 279ZM1236 244Q1218 201 1213 159Q1201 54 1201 -28L1232 -332Q1232 -425 1169 -442Q1161 -448 1154 -455Q1162 -475 1162 -501Q1162 -539 1139 -618Q1114 -708 1109 -746Q1098 -852 1075 -1016Q1069 -1047 1053 -1102Q1040 -1148 1040 -1153Q1040 -1158 1050.5 -1234.5Q1061 -1311 1061 -1317Q1061 -1424 906 -1459Q907 -1442 897 -1429Q866 -1460 856 -1460Q839 -1460 825.5 -1431Q812 -1402 803 -1398Q761 -1384 718 -1370Q662 -1350 646 -1325H745Q745 -1313 742.5 -1306Q740 -1299 740 -1298H661Q686 -1270 754 -1257Q806 -1247 859 -1237V-1162Q858 -1133 844 -1113Q809 -1110 791 -1088Q760 -1051 668 -894Q592 -763 575 -763Q575 -763 312 -936Q290 -959 248 -997Q245 -994 242.5 -989.5Q240 -985 237 -982Q227 -992 211 -992Q183 -992 183 -966Q183 -937 225 -926Q249 -922 272 -918Q351 -850 430 -781Q571 -660 593 -660Q624 -660 638 -677Q644 -684 738 -816Q815 -925 825 -925Q834 -925 838 -921Q834 -869 834 -824Q834 -653 897 -535Q905 -549 923 -566Q932 -557 942 -557Q900 -491 792 -350Q734 -274 734 -231L858 172Q847 242 774 267Q709 283 645 299Q674 317 762 317Q856 317 883 301L889 297Q895 297 903 302Q911 307 918 307Q941 307 947 273L869 -197Q871 -232 885 -244Q906 -261 1020 -336Q1110 -394 1147 -441Q1222 -412 1222 -358L1186 6Q1186 187 1236 244ZM842 -466Q765 -430 688 -394Q596 -350 544 -306Q529 -294 527 -257Q525 -231 524 -205Q493 -57 475 54Q464 121 463 124Q454 167 436 194Q399 249 310 267Q284 272 204 299L409 307Q414 307 427.5 299Q441 291 448 291Q455 291 463 299Q471 307 477 307H504Q505 272 511 222Q554 107 597 -7Q653 -156 657 -235Q680 -244 716 -271Q758 -339 842 -466ZM1009 -1361Q1009 -1338 991.5 -1312.5Q974 -1287 954 -1287Q948 -1287 942 -1290Q960 -1312 986 -1354Q988 -1359 988 -1366Q988 -1398 960 -1408Q940 -1399 929 -1377Q926 -1380 919.5 -1383Q913 -1386 910 -1389Q930 -1434 960 -1434Q1009 -1434 1009 -1361ZM895 -1395Q886 -1377 861 -1377Q832 -1377 828 -1417Q827 -1417 844 -1420Q861 -1423 883 -1423Q883 -1419 895 -1395Z"/>
</svg>