<svg xmlns="http://www.w3.org/2000/svg" viewBox="0 -2048 2048 2048">
	<path fill="currentColor" d="M2379 -36Q2374 -35 2364 -28Q2319 -69 2287 -171Q2280 -50 2264 190Q2256 196 2244 208Q2244 222 2260 304Q2119 304 2118 305V273Q2118 268 2138 208Q2162 139 2169 111Q2171 103 2171 52Q2171 -125 2061 -231Q2060 -231 2038 -218L2042 -179Q2033 -174 2011 -165Q1995 -177 1993 -192L1991 -186L1960 -171Q1944 -183 1940 -222Q1928 -183 1907 -175L1903 -183L1894 -181L1890 -202Q1815 -32 1700 134Q1700 161 1729.5 213.5Q1759 266 1759 294L1753 296V302H1688L1677 261Q1655 257 1655 204L1645 216L1632 214Q1642 241 1657 292L1651 294V302L1583 308V298L1499 302L1509 226L1557 179Q1534 64 1536 50Q1435 64 1352 58Q1346 76 1346 136Q1346 163 1366.5 219Q1387 275 1387 292Q1387 297 1382 302L1329 298Q1320 282 1299 267Q1302 258 1309 232L1278 87Q1254 115 1241 128L1231 222L1262 298Q1220 298 1184 292V277Q1184 264 1167 247Q1184 200 1184 156Q1184 145 1180 123.5Q1176 102 1176 91Q1176 81 1189.5 45Q1203 9 1203 -3Q1203 -16 1196 -38Q1153 132 1120 132H1112V126L1110 122Q1110 104 1153 -34Q1194 -165 1270 -165Q1298 -165 1354 -156Q1410 -147 1438 -147Q1523 -147 1559 -157Q1622 -174 1651 -229Q1651 -262 1650 -271Q1671 -281 1688 -281Q1699 -281 1708 -278L1706 -317Q1655 -296 1552 -259Q1470 -234 1393 -229Q1241 -220 1122 -169Q1098 -159 1089 -114Q1085 -78 1076 -7L1081 226Q1054 241 1032 234Q1006 267 1033 304Q928 296 893 305Q885 304 885 290Q885 271 905 241Q977 135 985 114Q992 96 992 28Q992 -43 981 -131Q966 -134 935 -147Q930 -147 922 -137Q882 -7 728 228L716 216Q684 250 694 310Q641 307 558 298Q567 256 618 192Q689 103 699 86Q719 53 770 -104Q820 -257 820 -278Q820 -321 758 -420Q690 -528 641 -528Q599 -528 582 -503Q565 -472 548 -441Q496 -427 463 -427Q453 -427 427 -454Q401 -481 393 -500Q389 -509 394 -530Q401 -562 401 -567Q404 -593 404 -616Q404 -660 391.5 -711.5Q379 -763 379 -793Q379 -804 409 -894Q381 -905 327 -935Q286 -965 255 -1027Q233 -1079 211 -1131Q183 -1193 100 -1323L120 -1343Q158 -1336 222 -1241Q268 -1159 313 -1076Q382 -969 463 -969Q532 -969 608 -994Q645 -1006 691 -1133Q744 -1278 840 -1361H861Q861 -1359 864 -1353Q867 -1347 867 -1338Q867 -1330 840 -1284Q805 -1224 797 -1208Q774 -1148 751 -1089Q717 -1004 677 -959Q687 -936 711 -933Q748 -928 757 -924Q759 -912 771 -892Q889 -840 1127 -744Q1169 -729 1204 -726Q1217 -725 1296 -725Q1445 -725 1737 -772.5Q2029 -820 2055 -820Q2157 -820 2241 -770Q2265 -756 2286 -717Q2306 -682 2309 -657Q2310 -645 2318 -619Q2326 -593 2326 -585V-305L2379 -91ZM2298 -476V-622H2288V-476ZM2266 -266V-481Q2242 -385 2242 -373Q2242 -362 2266 -266ZM2335 -118Q2335 -121 2309 -225V-193Q2308 -185 2320 -157Q2333 -126 2335 -118ZM1856 -274Q1799 -331 1757 -331Q1741 -331 1731 -325L1733 -280Q1791 -276 1843 -212Q1843 -239 1856 -274ZM2230 274Q2216 246 2216 240Q2203 266 2203 281Q2210 274 2230 274ZM2179 228Q2166 230 2156 249.5Q2146 269 2148 275H2169Q2184 246 2179 228ZM2260 -156Q2260 -182 2213 -362L2260 -641Q2242 -679 2208 -753Q2170 -791 2076 -796Q1901 -764 1651 -732Q1371 -695 1269 -695Q1172 -695 1121 -714Q1050 -740 888 -811Q746 -873 742 -873Q745 -873 621 -820Q605 -836 605 -839Q635 -851 700 -890Q679 -886 643 -877Q637 -875 627.5 -862.5Q618 -850 611 -850Q589 -850 576 -876Q581 -881 591 -894Q601 -907 606 -912Q593 -925 593 -934Q627 -948 646 -964Q691 -1015 721 -1088Q747 -1153 774 -1219Q792 -1250 827 -1313Q777 -1261 743 -1184Q713 -1114 683 -1044Q652 -982 616 -969Q585 -957 489 -945Q409 -892 409 -787Q409 -754 421 -699.5Q433 -645 433 -617Q433 -586 423 -556Q416 -535 422 -510Q428 -480 448 -475Q481 -481 542 -494Q555 -514 586 -544Q612 -552 656 -571Q663 -607 678 -673Q690 -689 691 -689Q694 -686 699 -684Q704 -682 707 -679Q704 -656 693 -607Q683 -564 683 -558Q683 -551 718 -507Q759 -456 770 -435Q804 -366 863 -256Q922 -161 974 -167Q911 -314 895 -363Q859 -469 859 -557Q859 -579 861 -602Q872 -612 881 -612L891 -601Q887 -496 898.5 -430.5Q910 -365 929 -333Q1016 -184 1016 28Q1016 109 1013 122Q1004 164 957 221H1003Q1014 196 1026 198Q1029 195 1051 206Q1048 -24 1059 -96Q1066 -138 1090 -198Q1114 -255 1115 -263Q1116 -273 1111 -294Q1105 -320 1105 -323Q1104 -338 1113 -465Q1115 -498 1122 -511L1147 -506V-484Q1147 -482 1139 -425.5Q1131 -369 1131 -341Q1131 -326 1136 -288Q1141 -256 1139 -240Q1132 -184 1131 -201Q1206 -231 1430 -257Q1511 -266 1632 -315Q1734 -356 1757 -356Q1791 -356 1869 -296.5Q1947 -237 1991 -237Q2021 -237 2046 -256Q2011 -322 1942 -441Q1919 -457 1873 -490Q1884 -512 1893 -511Q1923 -494 1967 -452Q2001 -384 2078 -261Q2119 -209 2169 -126Q2201 -9 2201 64Q2201 113 2177 197Q2178 197 2193 200Q2208 203 2218 203Q2218 196 2227 185Q2236 174 2236 171Q2239 107 2250 -28Q2260 -155 2260 -156ZM1823 -106L1784 -112Q1756 -106 1746.5 -98Q1737 -90 1681 32Q1681 56 1694 99Q1755 14 1765 -2Q1813 -73 1823 -106ZM1716 240Q1677 187 1659 48Q1650 48 1636 62Q1677 156 1681 236Q1685 240 1696 240ZM1831 -190Q1778 -255 1735 -255L1743 -241L1722 -226Q1711 -247 1690 -257L1667 -253Q1669 -222 1724 -222L1722 -198Q1691 -198 1673 -208Q1625 -148 1569 -132Q1534 -122 1438 -122Q1426 -122 1270 -140Q1215 -120 1215 -83Q1215 -68 1221 -38Q1227 -8 1227 7Q1227 17 1213.5 50Q1200 83 1200 93Q1200 104 1204 126Q1208 148 1208 159Q1208 190 1193 240L1210 238L1207 226L1219 116Q1303 32 1342 -52L1362 -42L1323 30Q1371 36 1419 36Q1497 36 1544 19Q1554 -22 1552 -44H1579Q1579 -34 1579 -34L1559 64Q1559 64 1565 89Q1572 117 1591 238L1602 240L1604 260L1621 256Q1593 164 1593 138Q1593 110 1612.5 54.5Q1632 -1 1632 -29Q1632 -41 1630 -52H1655Q1659 -36 1659 -28Q1659 -20 1656 -3.5Q1653 13 1653 21Q1665 11 1704 -73Q1733 -136 1782 -136Q1788 -136 1800.5 -134Q1813 -132 1819 -132L1825 -138L1813 -145Q1821 -153 1821 -161Q1821 -175 1815 -183ZM1647 171Q1645 163 1634 130Q1624 138 1620 154Q1626 172 1626 189H1634Q1639 189 1647 171ZM1731 283L1723 267L1700 269L1704 283ZM442 -944Q378 -952 323 -1019Q291 -1058 237 -1156Q185 -1250 156 -1282Q184 -1236 235 -1142Q261 -1082 287 -1023Q320 -963 382 -937Q396 -932 423 -916ZM1630 289L1625 275L1606 277L1608 290ZM1579 271L1575 263L1567 265V259L1561 275ZM1565 236L1563 226L1546 224Q1528 232 1528 277L1536 275L1548 230ZM1346 245Q1319 179 1319 109Q1319 106 1327 56L1303 54Q1296 53 1296 62Q1296 61 1333 234L1331 245ZM1358 280L1352 268L1333 266L1341 280ZM1225 273L1219 261L1206 263L1208 273ZM897 -156Q897 -166 840 -242Q807 -132 775 -23Q726 115 636 208Q642 208 654.5 212Q667 216 674 216Q683 216 705.5 199.5Q728 183 734 173Q777 103 839 -25Q897 -144 897 -156ZM992 280Q992 252 982 252Q969 265 969 280ZM947 249L939 244L925 265L933 271ZM670 274L663 240Q654 245 636 280ZM1808 -202L1800 -194L1804 -190Q1799 -182 1788 -175Q1779 -175 1766 -187Q1753 -199 1753 -208Q1753 -218 1765 -218Q1769 -222 1776 -222Q1804 -222 1808 -202ZM534 -763Q534 -755 524 -736Q511 -714 509 -707Q513 -707 489 -715Q489 -719 482 -734.5Q475 -750 475 -757Q475 -787 520 -802Q534 -774 534 -763ZM486 -487H458V-533H486Z"/>
</svg>