<svg xmlns="http://www.w3.org/2000/svg" viewBox="24.4 -1626.6 1399.2 2041.2">
	<path fill="currentColor" d="M1348 283Q1331 302 1318 302Q1277 302 1249 143Q1229 24 1229 -55Q1229 -149 1241 -231Q1267 -409 1267 -385Q1267 -433 1226 -433Q1231 -433 1147 -370Q1147 -370 1030 -296Q962 -253 948 -219L1035 283Q1025 339 981 339Q956 339 940 323Q924 339 918 339H663V281Q717 271 772 260Q833 247 874 214Q894 198 894 175Q894 149 849 33Q824 -31 798 -95Q769 -175 755 -255Q743 -251 728 -235Q721 -198 703 -122Q685 -58 577 230Q574 258 571 286Q561 339 532 339Q526 339 507.5 331Q489 323 484 323Q477 323 474 328.5Q471 334 464 334H214V276Q275 260 336 244Q413 220 450 173Q477 138 501 7Q516 -105 561 -328Q567 -353 598 -371Q645 -394 734 -440Q805 -479 927 -550Q893 -631 880 -736Q826 -690 779 -680Q763 -676 692 -676L327 -698Q313 -698 235 -672V-64Q261 -46 288.5 8.5Q316 63 316 88Q316 135 291 186Q259 253 208 253Q157 253 124 175Q100 118 100 80Q100 -7 184 -64V-677Q170 -677 154 -707Q138 -737 138 -755Q138 -764 160 -797Q155 -802 139 -801Q137 -828 144 -848H186V-1085Q171 -1087 152 -1087Q133 -1087 117 -1085V-1140H185Q191 -1165 185 -1216H234V-1143Q273 -1138 305 -1143V-1088H236V-848Q287 -824 352 -800H571Q470 -997 379 -1153Q359 -1170 322 -1207Q295 -1238 295 -1279Q295 -1297 330 -1314Q339 -1296 349 -1278Q363 -1252 383 -1243L392 -1253Q388 -1303 346 -1354Q315 -1389 284 -1424Q286 -1432 313 -1459Q345 -1448 385 -1407.5Q425 -1367 433 -1333Q439 -1290 458 -1215Q465 -1198 573 -1048Q613 -989 697 -871Q699 -875 786 -1062Q831 -1161 895 -1182V-1283Q893 -1285 885 -1290Q844 -1291 767 -1304Q740 -1308 712 -1329Q689 -1347 667 -1364V-1386Q667 -1418 717 -1446Q759 -1459 842 -1493Q850 -1507 864 -1529Q882 -1551 916 -1551Q994 -1551 1063 -1516Q1154 -1469 1154 -1384Q1154 -1378 1140.5 -1297.5Q1127 -1217 1127 -1211Q1127 -1205 1144 -1140Q1163 -1067 1168 -1041Q1177 -934 1198 -760Q1200 -746 1232 -629Q1254 -544 1252 -491Q1303 -464 1318 -427Q1326 -405 1326 -355Q1326 -253 1307.5 -167.5Q1289 -82 1289 -66Q1289 5 1311 163Q1324 204 1348 283ZM355 -1405L320 -1429L315 -1422L350 -1398ZM1305 -382Q1305 -437 1260 -458Q1244 -464 1218 -480Q1226 -497 1226 -522Q1226 -555 1210 -616Q1189 -704 1187 -712Q1174 -823 1141 -1041Q1137 -1063 1117 -1142Q1099 -1213 1099 -1219Q1099 -1226 1113 -1300Q1127 -1374 1127 -1381Q1127 -1453 1057 -1488Q1068 -1473 1068 -1432Q1068 -1346 1010 -1346Q1002 -1346 1000 -1354.5Q998 -1363 997 -1364Q1045 -1370 1045 -1427Q1045 -1462 1015 -1476Q1005 -1465 983 -1443Q980 -1446 973.5 -1450Q967 -1454 964 -1457Q993 -1501 1026 -1501Q1033 -1501 1040 -1499Q1010 -1510 959 -1523Q966 -1516 963 -1507Q960 -1505 951 -1497Q918 -1530 905 -1530Q897 -1530 883 -1506Q861 -1470 858 -1466Q846 -1466 826 -1463Q785 -1447 744.5 -1430.5Q704 -1414 700 -1390H798V-1362H716Q751 -1334 812 -1325Q864 -1317 916 -1309V-1214Q915 -1181 904 -1156Q893 -1154 879 -1149Q845 -1120 817 -1064.5Q789 -1009 762 -955Q732 -893 720 -843Q711 -838 697 -827Q650 -900 551 -1042Q501 -1102 431 -1199Q425 -1210 426 -1229Q428 -1257 428 -1257Q421 -1336 371 -1381Q412 -1314 414 -1236Q393 -1216 381 -1216Q361 -1216 333 -1243Q365 -1213 417 -1148Q437 -1102 474 -1018Q524 -911 604 -801H758Q831 -895 999 -1071L1013 -1057Q933 -965 781 -790Q771 -779 751 -779Q744 -779 631 -776Q518 -773 511 -773Q396 -773 335 -780Q301 -793 237 -816Q234 -803 199.5 -789Q165 -775 165 -752Q165 -703 227 -703Q238 -703 281.5 -714Q325 -725 330 -725Q337 -725 496 -714Q655 -703 662 -703Q798 -703 845 -738Q966 -853 1086 -968Q1089 -965 1095.5 -961Q1102 -957 1105 -954Q905 -754 905 -738Q905 -667 953 -563Q981 -597 987 -596L1002 -581Q935 -497 869 -413Q788 -308 781 -252L916 169Q900 232 821 263Q787 276 690 292V312H918Q925 312 930.5 304Q936 296 943 296Q949 296 959 304Q969 312 975 312Q1001 312 1008 272L921 -220Q930 -265 1014 -317Q1142 -397 1142 -397Q1154 -407 1184 -440Q1206 -466 1213 -466Q1226 -466 1260 -438.5Q1294 -411 1294 -393L1251 -23Q1251 75 1292 212Q1267 94 1267 -55ZM1301 230V216H1292V230ZM899 -502Q815 -461 658 -377Q583 -334 577 -307Q552 -155 493 142Q483 184 429 226Q381 263 346 268Q243 282 236 312H453Q460 312 473.5 301.5Q487 291 494 291Q480 291 542 306Q536 220 617 35Q701 -156 701 -251Q719 -266 762 -288Q776 -332 820 -395Q860 -449 899 -502ZM289 127V70Q287 70 282.5 75Q278 80 270 80Q263 80 244.5 61Q226 42 219 42Q211 42 184 61Q149 85 147 86L133 72Q186 15 219 15Q228 15 283 52Q242 -44 208 -44Q173 -44 145 12Q122 56 122 80Q122 74 140 156Q166 91 205 91Q246 91 276 166Q276 161 282.5 147Q289 133 289 127ZM257 203Q255 181 238 152Q219 118 199 118Q160 147 160 183Q160 226 211 226Q232 226 257 203ZM948 -1449Q946 -1449 939 -1446Q932 -1443 924 -1443Q932 -1443 878 -1461Q902 -1497 919 -1497Q935 -1497 948 -1468Z"/>
</svg>