<svg xmlns="http://www.w3.org/2000/svg" viewBox="0 -2048 2048 2048">
	<path fill="#000000" d="M1424 305Q1424 329 1395 329Q1362 329 1331 190Q1306 78 1306 35L1349 -343Q1349 -359 1303 -405Q1197 -316 1112 -262Q1058 -227 1028 -202Q1027 -198 1027 -183L1113 308Q1113 367 1062 367Q1055 367 1040.5 359Q1026 351 1019 351Q1012 351 1008 359Q1004 367 997 367H749V304Q814 291 880 278Q959 252 974 193L836 -223Q821 -216 809 -203Q796 -127 784 -85Q741 27 659 253Q659 275 656 317Q646 367 615 367Q601 367 569 346Q554 361 547 361H299V309Q347 288 413 273Q473 260 519 222Q546 200 568 106Q587 26 599 -153Q606 -256 660 -318Q711 -377 824 -428Q993 -505 1012 -516Q990 -569 959 -684Q945 -677 909 -647Q889 -630 853 -630L491 -668Q484 -668 427 -657Q370 -646 363 -646Q333 -646 282 -668Q248 -684 213 -700Q214 -716 225 -748Q310 -716 363 -716Q384 -716 389 -719V-724Q382 -729 301 -740Q246 -747 246 -799Q246 -804 253.5 -818Q261 -832 261 -837V-858Q261 -864 252 -865Q240 -865 236 -868Q236 -875 230 -886Q210 -893 159 -893Q121 -893 107 -888Q107 -890 103.5 -892.5Q100 -895 100 -903Q100 -933 182 -1022Q226 -1069 270 -1116Q284 -1147 298 -1179Q318 -1214 352 -1214Q366 -1214 386 -1203Q390 -1208 390 -1214Q390 -1219 386.5 -1229Q383 -1239 383 -1244Q383 -1258 403 -1268Q421 -1244 472 -1198Q472 -1197 473 -1197Q474 -1196 474.5 -1198Q475 -1200 475 -1206Q475 -1239 436 -1311Q410 -1355 384 -1400L403 -1418Q474 -1380 503 -1292Q522 -1225 541 -1159Q579 -1084 656 -986Q777 -833 784 -823Q799 -847 871 -1008Q918 -1110 974 -1143V-1243Q963 -1247 855 -1265Q793 -1276 769 -1317Q768 -1318 758.5 -1325Q749 -1332 749 -1340Q749 -1379 798 -1405Q822 -1411 868 -1424Q871 -1429 879 -1437Q896 -1445 927 -1446Q956 -1514 1009 -1514Q1095 -1514 1160 -1465Q1231 -1411 1231 -1327Q1231 -1322 1220.5 -1255Q1210 -1188 1210 -1179Q1210 -1171 1240 -1035Q1251 -936 1275 -751Q1281 -712 1309 -612Q1333 -526 1333 -491Q1333 -470 1327 -457Q1374 -434 1390 -403Q1403 -377 1403 -324L1371 8Q1371 110 1383 187Q1385 202 1404.5 250.5Q1424 299 1424 305ZM455 -1175L442 -1189L437 -1183L449 -1170ZM657 -760Q610 -832 549 -955Q479 -1097 464 -1122Q449 -1147 407 -1160Q392 -1131 375 -1089Q370 -1059 378 -1011Q389 -953 389 -933Q389 -855 347 -781Q378 -783 429 -778Q450 -771 483 -756Q499 -748 521 -748Q526 -748 581.5 -754Q637 -760 657 -760ZM1381 -349Q1381 -364 1367 -393Q1348 -432 1324 -431H1306Q1328 -420 1349.5 -392Q1371 -364 1371 -346Q1371 -339 1352 -169Q1333 1 1333 8Q1333 100 1345 166Q1353 211 1374 257Q1360 204 1356 144Q1349 35 1349 -11ZM1306 -433V-520L1178 -1174Q1204 -1296 1204 -1329Q1204 -1455 1050 -1476Q1050 -1465 1031 -1455Q1009 -1488 993 -1488Q975 -1488 963 -1460Q950 -1429 938 -1424Q894 -1412 809 -1384Q793 -1378 781 -1349H884V-1321H797Q837 -1291 898 -1282Q947 -1276 996 -1269V-1143Q996 -1129 986 -1112Q969 -1112 964 -1110Q897 -991 778 -785Q752 -825 642 -967Q553 -1081 514 -1159Q510 -1166 492 -1248Q477 -1315 444 -1350Q502 -1259 502 -1193Q502 -1166 473 -1166Q465 -1166 460.5 -1168Q456 -1170 454 -1170Q495 -1121 564 -976.5Q633 -832 697 -754H833L1073 -1011Q1087 -997 1087 -993L842 -732H607Q600 -732 554.5 -726.5Q509 -721 502 -721Q493 -721 475 -731Q451 -744 447 -746Q416 -757 363 -757Q384 -753 405 -749Q431 -743 433 -724Q411 -694 352 -694Q311 -694 266 -703Q339 -673 374 -673Q381 -673 446 -683.5Q511 -694 518 -694L826 -657Q869 -657 871 -658Q926 -686 1018 -771Q1156 -900 1159 -903Q1172 -890 1172 -886L985 -703Q993 -661 1002 -618Q1013 -562 1035 -534Q1063 -562 1066 -561L1076 -552Q1053 -512 951 -369Q876 -264 867 -220L995 193Q978 268 901 295Q835 311 770 326Q777 340 977 340Q1025 324 1022 324Q1029 324 1039 332Q1049 340 1057 340Q1086 340 1086 300Q1086 291 1077 263Q1067 231 1066 225Q1056 130 1036 -43Q1033 -71 1016 -129Q1001 -184 1001 -188Q1001 -225 1061 -264Q1116 -298 1171 -332Q1221 -370 1306 -433ZM373 -1181L362 -1187H338Q325 -1183 302 -1121Q288 -1083 218.5 -1019.5Q149 -956 133 -915Q131 -915 197 -915Q240 -916 257 -902Q259 -901 286 -862Q288 -848 280 -827Q272 -806 272 -798Q272 -781 289 -764H313Q364 -860 364 -937Q364 -955 361 -971Q344 -1070 348 -1088Q350 -1099 365 -1129Q377 -1155 377 -1167Q377 -1175 373 -1181ZM989 -468Q864 -409 817 -384Q733 -340 670 -297Q641 -169 611 10Q598 86 573 171Q570 188 560 213Q525 259 454 286Q434 293 332 321Q326 325 326 340H536Q543 340 554.5 329.5Q566 319 572 319Q579 319 593.5 329.5Q608 340 615 340Q629 340 634 306Q630 282 632 242Q633 239 722 3Q777 -140 787 -224Q812 -234 843 -252Q892 -329 989 -468ZM1151 -1383Q1151 -1361 1128 -1318Q1080 -1312 1081 -1312Q1092 -1327 1108 -1337.5Q1124 -1348 1124 -1383Q1124 -1434 1100 -1434Q1089 -1434 1068 -1402Q1065 -1405 1058.5 -1408.5Q1052 -1412 1049 -1415Q1059 -1455 1100 -1455Q1151 -1455 1151 -1383ZM1033 -1421Q1024 -1402 1001 -1402Q998 -1402 964 -1419V-1438Q998 -1455 998 -1455Q1010 -1455 1033 -1421Z"/>
</svg>