<svg xmlns="http://www.w3.org/2000/svg" viewBox="0 -2048 2048 2048">
	<path fill="currentColor" d="M1720 -1100Q1720 -1096 1717.5 -1082.5Q1715 -1069 1714 -1064Q1669 -1083 1603 -1121Q1573 -1095 1556 -1054Q1533 -994 1529 -987Q1502 -915 1475 -843Q1432 -741 1363 -741Q1357 -741 1239.5 -767Q1122 -793 1116 -793Q1074 -793 1074 -728Q1074 -703 1106 -597Q1128 -524 1150 -452Q1151 -448 1145 -385Q1193 -350 1204 -236Q1205 -220 1205 -87V107Q1205 113 1215 168.5Q1225 224 1225 231Q1225 251 1207 260Q1181 246 1170 211Q1152 153 1152 -35V-289Q1152 -304 1138.5 -319Q1125 -334 1116 -334Q1110 -334 1013 -265Q921 -200 904 -185Q897 -178 897 -165Q897 -161 912 -114Q928 -63 932 -35Q936 22 945 142Q947 161 958.5 215.5Q970 270 970 275Q970 294 948 309Q931 322 921 322Q914 322 900 314.5Q886 307 879 307Q872 307 823 314.5Q774 322 767 322Q761 322 715.5 317Q670 312 663 312Q658 312 639 317Q620 322 613 322Q607 322 592.5 317Q578 312 572 312Q566 312 556.5 319.5Q547 327 540 327H356Q356 311 358.5 291.5Q361 272 361 266Q438 256 456 251Q518 235 552 193Q561 181 563 162Q565 148 562 125Q560 98 560 90Q560 57 554.5 -5Q549 -67 549 -97Q549 -165 570 -223Q582 -255 685 -330Q746 -374 877 -442Q856 -504 845 -577Q826 -699 821 -725Q779 -674 736 -622Q683 -564 637 -564L374 -595Q368 -595 350 -586Q350 -497 347.5 -449Q345 -401 345 -409Q338 -402 100 -407V-691Q99 -913 228 -913Q362 -913 349 -688H617Q664 -757 711 -827Q772 -914 830 -957V-1035Q828 -1036 821 -1041Q770 -1053 719 -1065Q637 -1089 637 -1121Q637 -1151 664 -1166Q687 -1179 769 -1231Q833 -1272 840 -1272Q852 -1272 978 -1254Q994 -1252 1017 -1224Q1040 -1196 1041 -1181Q1039 -1111 1043 -973Q1045 -949 1072 -949Q1079 -949 1085 -951.5Q1091 -954 1093 -954L1352 -866Q1460 -1076 1491 -1180L949 -1462Q958 -1477 972 -1501L1499 -1220Q1515 -1228 1524 -1246Q1532 -1243 1540 -1240Q1554 -1233 1554 -1226Q1553 -1221 1550 -1218Q1567 -1217 1599 -1207Q1628 -1187 1619 -1161Q1646 -1141 1720 -1100ZM1590 -1164V-1182Q1576 -1189 1561 -1189Q1528 -1189 1528 -1165Q1528 -1137 1556 -1137Q1563 -1137 1590 -1164ZM1563 -1110Q1556 -1108 1536.5 -1119Q1517 -1130 1509 -1142L1373 -839H1354Q1281 -866 1140 -916Q1092 -919 1023 -943Q1011 -973 1011 -1021Q1011 -1049 1016 -1103Q1021 -1150 1020 -1165Q1014 -1246 897 -1246Q889 -1246 879 -1237Q865 -1226 863 -1225Q858 -1228 847 -1235.5Q836 -1243 831 -1246Q819 -1224 763 -1192Q756 -1181 738 -1169Q693 -1163 680 -1155Q663 -1145 663 -1122Q707 -1111 723 -1111Q744 -1111 774 -1121L783 -1112V-1099Q761 -1087 730 -1087Q772 -1078 851 -1055V-942Q813 -922 777 -875Q751 -836 724 -797Q690 -748 628 -662Q611 -663 351 -661V-616L608 -595Q659 -595 661 -596Q707 -615 756 -677Q814 -752 842 -772L850 -763V-749Q850 -588 893 -456Q899 -445 910 -423Q925 -438 931 -438Q937 -438 949 -426Q769 -266 767 -204L866 189Q812 261 678 288L811 296Q891 280 887 280Q895 280 903 288Q911 296 916 296H938Q938 294 941 287Q944 280 944 273Q944 269 935 217.5Q926 166 925 142Q925 87 916 -14Q911 -41 888 -103Q866 -161 866 -165Q866 -184 891 -203Q971 -254 1113 -366Q1132 -385 1132 -441Q1132 -475 1092.5 -579.5Q1053 -684 1053 -746Q1053 -766 1055 -774Q1057 -782 1078.5 -800.5Q1100 -819 1108 -819Q1115 -819 1237 -790.5Q1359 -762 1366 -762Q1412 -762 1461 -868Q1482 -925 1503 -982Q1521 -1027 1563 -1110ZM1186 -148V-214H1176V-148ZM1187 181Q1183 122 1177 49V-102L1173 95Q1173 101 1187 181ZM1196 196V182H1187V196ZM324 -429V-806Q324 -829 286.5 -858Q249 -887 222 -887Q125 -887 126 -784V-429ZM840 179L739 -199Q700 -178 700 -113Q700 -131 705 -38Q707 9 697 59Q658 244 658 226Q658 233 661 246.5Q664 260 664 264Q808 241 840 179ZM886 -412H868Q789 -370 669 -288Q641 -271 602 -234Q568 -176 579 -86Q580 -21 586 96Q597 195 554 228Q520 254 469 268Q427 278 384 288Q383 291 382 301H534Q541 301 548 293.5Q555 286 561 286Q569 286 578.5 291Q588 296 593 296H636Q636 267 638 216Q644 171 665 76Q683 -10 683 -13V-174Q748 -247 879 -388Q886 -407 886 -412ZM975 -1170Q975 -1139 948 -1106H924V-1125Q949 -1142 949 -1170Q949 -1185 935 -1199Q933 -1199 911 -1179H892V-1198Q914 -1220 934 -1220Q975 -1220 975 -1170ZM876 -1181Q870 -1173 870 -1168Q840 -1176 809 -1196Q820 -1220 845 -1220Q870 -1220 876 -1181Z"/>
</svg>