<svg xmlns="http://www.w3.org/2000/svg" viewBox="0 -2048 2048 2048">
	<path fill="#000000" d="M1957 -663Q1957 -602 1926 -514Q1884 -396 1878 -369Q1863 -299 1863 -208V-95Q1863 -84 1865.5 -62.5Q1868 -41 1868 -30H1848Q1803 -166 1803 -312Q1803 -382 1857 -507.5Q1911 -633 1911 -703Q1911 -783 1876 -820Q1845 -853 1826 -853Q1783 -853 1750 -814Q1786 -769 1786 -684Q1786 -613 1772 -569Q1759 -544 1738 -492Q1735 -476 1724 -445Q1717 -431 1668 -368Q1641 -334 1641 -268Q1641 -217 1678 -177.5Q1715 -138 1715 -135Q1715 -119 1588 110Q1563 147 1522 226Q1519 243 1509 275Q1505 286 1470 316.5Q1435 347 1424 351H1400L1395 347Q1387 327 1387 313Q1387 300 1394 288Q1413 274 1447 243Q1485 200 1555 66Q1630 -77 1630 -120Q1630 -143 1613 -157Q1583 -169 1539 -189Q1414 -256 1369 -327Q1366 -322 1366 -320Q1366 -281 1411.5 -199Q1457 -117 1457 -116Q1457 -85 1429 -57Q1403 -34 1378 -12Q1351 16 1299 97Q1242 185 1240 212Q1209 230 1196 297L1193 301L1085 364L1078 361Q1068 329 1068 313Q1068 293 1091 266Q1114 239 1135 230Q1142 228 1156 221Q1176 179 1206 120Q1246 50 1390 -93V-107Q1390 -122 1358 -160Q1318 -210 1315 -214.5Q1312 -219 1276 -295Q1238 -286 1192 -269L1182 -283Q1196 -293 1220 -304Q1209 -322 1188 -322Q1177 -322 1152 -325Q1060 -328 879 -357Q863 -362 775 -408Q771 -353 691 -299Q585 -227 572 -211Q494 -117 476 -2Q476 41 460 124Q446 158 446 163Q446 169 460 198L459 204L337 360L331 359V351Q331 238 379 184Q386 177 398 156Q399 153 399 140Q399 132 415 52Q424 -9 447 -129Q456 -167 494 -235Q507 -258 549 -345Q504 -328 463 -297Q391 -242 356 -190Q336 -160 290 -56Q248 39 248 42Q248 50 253 57Q250 75 225 115Q203 150 203 171Q203 189 215 226L214 231L123 355H116Q100 325 100 309Q100 270 131 215Q162 160 162 115Q162 112 160.5 106Q159 100 159 97Q159 86 185 46Q216 -5 218 -9Q233 -40 265 -139Q271 -170 288 -230Q303 -270 369 -324Q395 -340 444 -377Q498 -425 503 -479Q461 -557 456 -574Q443 -610 443 -682Q443 -840 472 -929Q495 -999 542 -1139Q525 -1142 507 -1142Q477 -1142 463 -1104Q412 -1083 377 -1083Q313 -1083 313 -1123Q313 -1198 352 -1242Q388 -1263 450 -1301Q466 -1314 497 -1339Q502 -1359 513 -1377Q426 -1512 426 -1521Q426 -1548 448 -1548Q455 -1548 546 -1411Q561 -1422 573 -1434Q560 -1463 538 -1523Q542 -1554 560 -1554Q581 -1554 616 -1448Q635 -1454 669 -1455L687 -1497L712 -1489L697 -1454Q711 -1451 725 -1444L742 -1474L763 -1458L747 -1430Q757 -1422 770 -1407L791 -1433L809 -1414L787 -1387L797 -1371L826 -1394L841 -1373L811 -1348Q819 -1334 824 -1323L860 -1344L871 -1321L835 -1298Q843 -1279 848 -1265L885 -1278L889 -1252L856 -1240L864 -1213L896 -1224L903 -1198L870 -1188Q873 -1173 877 -1149L913 -1157L917 -1131L881 -1124Q883 -1108 884 -1089L919 -1092L918 -1065L885 -1062V-1026L915 -1025L912 -999L883 -1000Q881 -977 877 -958L904 -951L899 -925L871 -933Q870 -928 853 -885Q841 -855 841 -837Q841 -820 900 -786Q953 -755 978 -749Q1061 -728 1105 -728Q1130 -728 1230 -767L1376 -824Q1530 -884 1564 -884Q1686 -884 1738 -835Q1766 -875 1827 -875Q1832 -875 1839 -871Q1957 -799 1957 -663ZM1931 -652Q1921 -596 1868 -477Q1824 -377 1824 -283Q1824 -221 1839 -145V-217Q1839 -303 1852 -359Q1858 -386 1898 -504Q1928 -592 1931 -652ZM598 -1444Q589 -1473 563 -1528L560 -1524Q568 -1496 592 -1442ZM529 -1399Q506 -1440 454 -1518L450 -1516Q466 -1486 525 -1396ZM1763 -681Q1763 -753 1732 -809Q1703 -861 1570 -861Q1507 -861 1353 -796Q1163 -716 1128 -706Q1121 -704 1112 -704Q1042 -704 971 -726Q938 -736 883 -771Q816 -812 816 -836Q816 -868 833 -903Q859 -957 859 -1052Q859 -1211 785 -1341Q734 -1430 680 -1430Q678 -1430 674 -1430Q671 -1429 669 -1429Q671 -1429 638 -1432Q591 -1414 576 -1406Q542 -1387 528 -1361Q524 -1349 515 -1325Q511 -1318 371 -1230Q337 -1178 336 -1114Q346 -1106 372 -1106Q436 -1106 453 -1136Q470 -1166 558 -1166Q605 -1166 644.5 -1197Q684 -1228 684 -1273Q684 -1272 677 -1323H699Q707 -1287 707 -1274Q707 -1177 598 -1149Q587 -1147 566 -1142Q507 -976 480 -871Q466 -816 466 -699Q466 -609 473 -588Q482 -571 500 -538Q507 -520 525 -486Q555 -457 614 -400Q599 -384 527 -249Q508 -220 479 -156Q475 -140 442 29Q424 123 424 151Q424 167 410 184Q387 211 387 212Q363 253 358 301L436 198Q423 181 423 168Q423 155 431 136Q442 111 443 105Q445 68 453 -4Q464 -63 502 -141Q544 -225 585 -258Q645 -297 706 -335Q758 -375 755 -467H774Q777 -447 777 -430Q810 -410 882 -379Q962 -358 1209 -345Q1241 -327 1249 -313Q1268 -314 1309.5 -326.5Q1351 -339 1358 -348Q1350 -369 1350 -432Q1350 -522 1386 -670L1411 -664Q1376 -520 1376 -419Q1376 -372 1383 -355Q1400 -315 1471 -262Q1530 -219 1585 -195Q1601 -191 1630 -175Q1653 -154 1653 -120Q1653 -69 1561 91Q1537 139 1482 233Q1454 275 1413 299Q1410 307 1410 313Q1410 318 1412 325H1420Q1428 318 1487 272Q1492 226 1534 149Q1568 91 1602 32L1692 -135Q1618 -202 1618 -266Q1618 -341 1650 -379Q1698 -436 1709 -464Q1712 -481 1720 -514Q1731 -532 1750 -570Q1763 -606 1763 -681ZM1434 -113Q1434 -116 1416 -143Q1364 -221 1344 -311Q1333 -301 1299 -298Q1322 -249 1380 -161Q1416 -121 1416 -112Q1416 -97 1415 -87Q1364 -35 1313 16Q1255 77 1224 133Q1206 179 1168 240Q1144 255 1120 271Q1091 292 1091 316Q1091 323 1093 332Q1121 316 1176 283Q1184 222 1218 200Q1242 120 1353 -18Q1377 -41 1401 -63Q1434 -95 1434 -113ZM554 -356L551 -353L553 -352ZM584 -401L521 -459Q519 -450 515 -441Q489 -382 403 -317Q321 -255 307 -217Q301 -189 288 -135Q275 -90 245 -21Q216 29 183 96Q181 106 181 148Q181 184 152 225.5Q123 267 123 295Q123 304 124 317L191 225Q180 190 180 170Q180 158 228 61L221 56Q223 44 229 21Q320 -204 410 -284Q451 -320 499 -347Q523 -357 547 -367.5Q571 -378 584 -401ZM576 -1285Q576 -1252 542 -1252Q509 -1252 509 -1285Q509 -1319 542 -1319Q576 -1319 576 -1285ZM553 -1280V-1294Q547 -1299 542 -1299Q531 -1299 531 -1285Q531 -1275 542 -1275Q548 -1275 553 -1280Z"/>
</svg>