<svg xmlns="http://www.w3.org/2000/svg" viewBox="24.2 -1599.8 1706.6 2046.6">
	<path fill="currentColor" d="M1655 -50H1553V366Q1532 364 1500 371Q1501 351 1497 295Q1474 282 1435 262Q836 -50 820 -50H238Q235 -50 161 -78Q141 -86 120.5 -115.5Q100 -145 100 -163Q100 -171 103 -176.5Q106 -182 106 -184H147Q175 -137 222 -109Q241 -107 246 -112Q233 -164 214 -259Q230 -258 285 -261Q291 -268 323 -346Q342 -392 385 -389Q385 -377 381 -363Q378 -356 376 -349Q376 -349 378 -306Q379 -278 364 -264Q402 -256 455 -264L429 -110H566Q609 -164 624 -239Q630 -297 636 -355Q638 -378 667 -535L458 -833Q344 -784 337 -784Q331 -784 309.5 -790Q288 -796 279 -796Q279 -800 273 -814.5Q267 -829 267 -836Q267 -844 319 -915.5Q371 -987 410 -1032Q435 -1047 471 -1080Q473 -1083 479 -1160Q486 -1248 573 -1367Q666 -1495 762 -1524L790 -1504Q727 -1468 681 -1419L690 -1412Q762 -1479 812 -1491V-1472Q664 -1356 570 -1095Q567 -1092 572 -1087Q589 -1105 626 -1130Q672 -1162 692 -1162H737Q723 -1106 675 -1069Q636 -1044 597 -1019Q619 -967 641 -916Q671 -846 724 -829Q875 -779 1113 -779Q1118 -779 1221.5 -789.5Q1325 -800 1334 -800Q1406 -800 1432 -787Q1601 -702 1601 -584Q1601 -563 1589 -542H1559Q1553 -571 1546 -601Q1537 -641 1513 -660Q1493 -520 1493 -541Q1493 -521 1518 -475Q1527 -459 1562 -406Q1591 -364 1591 -357Q1591 -331 1576 -276Q1561 -221 1561 -196Q1561 -176 1567 -160Q1566 -158 1536 -113Q1591 -105 1655 -113ZM1576 -596L1565 -648H1557L1568 -596ZM1564 -355L1475 -509Q1445 -479 1445 -466Q1445 -463 1477.5 -419Q1510 -375 1518 -334Q1526 -293 1526 -263Q1526 -227 1508 -131Q1514 -135 1540 -165Q1536 -185 1536 -204Q1536 -202 1564 -355ZM643 -1337Q576 -1234 542 -1119Q545 -1113 552 -1109ZM599 -1350Q525 -1244 498 -1108Q503 -1103 513 -1100Q536 -1211 599 -1350ZM694 -1131H675Q619 -1105 595 -1057Q652 -1071 694 -1131ZM1499 -279Q1499 -324 1490 -345Q1479 -371 1426 -444Q1330 -320 1286 -129Q1279 -122 1267 -110H1465Q1499 -235 1499 -279ZM1546 -669Q1519 -708 1444 -745Q1374 -779 1334 -779L1107 -752Q1086 -752 908 -782Q851 -787 795 -792Q723 -800 693 -823Q647 -859 604 -944Q565 -1021 533 -1037Q531 -1046 524 -1057Q511 -1065 508 -1065Q448 -1065 311 -850Q322 -850 334 -838Q340 -841 362 -860Q371 -851 371 -833Q452 -860 472 -860Q482 -860 543 -761Q579 -700 615 -640Q644 -598 684 -565Q718 -537 785 -513Q721 -598 721 -655Q721 -657 730 -666H744Q765 -595 787 -559Q813 -525 843 -473Q910 -205 910 -177Q910 -155 899 -133Q904 -128 914 -125Q926 -161 926 -155Q926 -161 919 -184.5Q912 -208 911 -215Q894 -364 894 -436Q894 -492 920 -687H933L942 -678Q939 -670 935 -625Q929 -560 935 -510L944 -503L1288 -542Q1280 -602 1324 -660Q1330 -660 1338 -658Q1346 -656 1348 -656Q1325 -598 1302 -412Q1283 -248 1223 -144Q1236 -131 1249 -131Q1271 -200 1322 -321Q1366 -393 1411 -464Q1467 -556 1475 -597Q1483 -635 1484 -689Q1491 -698 1501 -698Q1513 -698 1546 -669ZM1282 -403V-508H1183L927 -476Q921 -461 921 -417Q921 -358 939 -254Q956 -155 954 -110H1173Q1211 -166 1244 -248Q1282 -343 1282 -403ZM1531 338V-46H1522V331ZM1498 231V-48H953ZM888 -171Q888 -177 861 -286Q831 -410 821 -462Q798 -472 760 -492Q738 -418 715 -344Q690 -252 681 -171Q681 -155 680 -138Q676 -117 651 -110H866Q868 -119 879 -144Q888 -164 888 -171ZM737 -502Q704 -524 689 -524Q673 -407 638 -177Q635 -159 613 -138Q618 -138 627 -131Q640 -140 654 -160Q657 -201 674 -273Q684 -316 737 -502ZM1633 -72V-75L234 -81Q183 -88 157 -124Q160 -112 186 -91Q212 -70 224 -70ZM354 -306Q354 -314 350 -324Q346 -334 346 -336Q343 -325 337 -298Q331 -271 328 -260Q354 -299 354 -306ZM423 -232H241Q260 -165 268 -110H401Q409 -147 423 -232ZM505 -993Q502 -987 453 -957Q450 -960 446.5 -966.5Q443 -973 440 -976Q457 -1006 475 -1006Q479 -1006 505 -993Z"/>
</svg>