<svg xmlns="http://www.w3.org/2000/svg" viewBox="0 -2048 2048 2048">
	<path fill="#000000" d="M2179 252Q2179 275 2151 309Q2121 347 2095 344L1675 290L1521 312Q1528 312 1494 296Q1482 311 1451 332Q1415 345 1367 345Q1348 345 1330 334Q1309 320 1309 301Q1260 345 1218 345Q1212 345 1119.5 334Q1027 323 1020 323L684 339Q538 346 538 261Q538 232 695 -31Q637 -73 530 -127L254 263Q249 257 239 257Q239 255 228 322Q216 324 180 336Q150 345 143 345Q135 345 135 340.5Q135 336 134 335Q126 337 112 338Q105 333 100 333V294Q100 272 136 232Q163 202 190 172Q223 126 314 -28Q351 -99 388 -170Q429 -246 469 -263Q472 -264 494 -278Q511 -289 519 -289Q550 -289 658 -229Q617 -352 593 -430Q530 -419 482 -378Q439 -343 394 -343Q345 -343 327 -366Q324 -388 328 -423Q370 -510 411 -598Q462 -696 534 -786Q634 -1163 908 -1545Q928 -1545 928 -1532Q928 -1532 873 -1427Q812 -1311 790 -1255Q777 -1226 765 -1198Q748 -1157 752 -1134Q795 -1224 875 -1346Q958 -1472 1006 -1519Q1020 -1505 1020 -1500Q1020 -1507 890 -1258Q750 -990 706 -823Q703 -820 708 -815Q741 -862 806 -909Q877 -961 922 -961Q930 -961 938.5 -958Q947 -955 948 -954Q949 -953 952 -943.5Q955 -934 955 -928Q955 -870 876 -811Q815 -773 754 -735Q763 -642 839 -534Q915 -426 1024 -350Q1044 -336 1180 -309Q1362 -273 1415 -273Q1490 -273 1614.5 -313.5Q1739 -354 1786 -354Q1829 -354 1884 -322Q1979 -268 1981 -267Q2000 -287 2000 -316Q2000 -323 1986.5 -365Q1973 -407 1973 -414Q1973 -426 2003 -441Q2071 -405 2071 -308Q2071 -301 2057.5 -254Q2044 -207 2044 -200Q2044 -193 2057 -171Q2071 -145 2074 -136Q2094 -72 2110 5Q2119 51 2151 154Q2179 247 2179 252ZM796 -1329Q698 -1157 566 -810Q594 -821 628 -849Q682 -1010 796 -1329ZM2152 250Q2152 241 2139 212Q2124 179 2121 168Q2103 78 2058 -98Q2052 -117 2031 -156Q2011 -192 2011 -194Q2011 -201 2023 -226Q2038 -255 2041 -264Q2044 -273 2044 -305Q2044 -387 2001 -408Q2027 -330 2027 -308Q1992 -235 1989 -235Q1995 -235 1911.5 -281Q1828 -327 1786 -327Q1739 -327 1608 -286.5Q1477 -246 1421 -246Q1338 -246 1148 -285Q1101 -294 1029 -317Q948 -363 866 -464Q797 -547 761 -623Q756 -655 736 -710Q732 -716 708 -728.5Q684 -741 684 -747Q684 -760 691 -756Q673 -776 673 -787Q673 -858 867 -1285Q734 -1071 634 -791Q625 -776 623 -776Q620 -779 613 -780.5Q606 -782 603 -785Q608 -790 608 -797Q550 -786 439 -586Q354 -433 354 -397Q354 -378 361 -371H384Q464 -419 462 -419Q469 -419 467.5 -413.5Q466 -408 473 -408Q488 -408 612 -464Q629 -472 632 -496Q634 -516 653 -517L663 -508V-488Q663 -472 642 -453Q631 -443 619 -433Q671 -250 747 -154Q789 -285 849 -338L868 -319Q791 -222 704 -17Q687 23 621 143Q565 245 565 258Q565 325 668 317L987 293L1188 310Q1140 291 1107 271Q1111 267 1111 253H1093Q1056 265 987 263L779 258Q776 257 723 253Q689 250 679 229Q778 148 963 -14Q989 -53 1034 -116Q1037 -113 1040.5 -111.5Q1044 -110 1047 -107Q1021 -46 975 10Q951 33 917 72Q1046 139 1177 139Q1238 139 1431 75Q1559 33 1686 -9Q1654 -73 1654 -78Q1654 -91 1671 -89Q1686 -55 1715 -8Q1754 32 1808 47Q1851 58 1894 70Q1929 86 1986 153Q2038 216 2038 231Q2038 238 2029 247L1678 220Q1685 221 1456 233Q1443 234 1402 250Q1446 269 1478 269Q1485 269 1499.5 266Q1514 263 1521 263Q1542 263 1541 284L1689 266L2090 317Q2109 317 2130.5 294Q2152 271 2152 250ZM921 -924Q880 -914 822 -887Q793 -846 746 -777Q765 -793 838 -831Q897 -862 905 -882ZM2000 213Q1971 174 1923 120Q1891 94 1837 75Q1799 63 1760 51Q1749 47 1724 30.5Q1699 14 1694 14Q1677 14 1471.5 87Q1266 160 1163 160Q1066 160 959 121Q951 118 920 100Q893 85 887 85Q875 85 722 224L1023 242Q1030 242 1075 231Q1120 220 1126 220Q1144 220 1155 244L1140 262Q1200 242 1191 242Q1231 242 1282 265Q1316 280 1315 296Q1323 270 1359 244Q1391 220 1413 217Q1621 189 1678 193ZM1458 286Q1414 286 1380 269L1367 281V317H1396Q1420 317 1446 305Q1458 296 1458 286ZM1253 282Q1234 279 1188 270Q1204 301 1223 301Q1236 301 1253 282ZM733 -124Q733 -152 642 -208Q555 -262 524 -262Q515 -262 482.5 -243Q450 -224 442 -212Q402 -153 357 -69Q296 47 293 53Q219 182 159 240Q164 240 172 247Q184 244 213 229Q239 215 245 215Q254 215 259 220Q489 -154 524 -154Q550 -154 704 -56Q733 -114 733 -124ZM212 289V264Q181 264 159 286V311Q196 304 212 289ZM139 275H130L124 306H133ZM629 -653Q599 -636 587 -636Q545 -636 545 -636Q545 -638 541.5 -642.5Q538 -647 538 -655Q538 -665 553.5 -680Q569 -695 579 -695Q585 -695 602.5 -684Q620 -673 629 -673ZM402 -429Q398 -412 385 -388Q361 -382 365 -382Q365 -394 359 -400Q373 -409 376 -429Z"/>
</svg>