<svg xmlns="http://www.w3.org/2000/svg" viewBox="0 -2048 2048 2048">
	<path fill="#000000" d="M1817 221Q1817 254 1786 277Q1759 298 1732 298Q1731 298 1636 280Q1535 261 1483 257Q1400 250 1353 250Q1274 250 1220.5 260.5Q1167 271 1158 271Q1153 271 1142 263Q1131 255 1124 255Q1117 255 1089 271Q1061 287 1054 287Q1050 287 1021.5 284Q993 281 981 281Q981 270 969 270Q978 250 987.5 227.5Q997 205 1017 194Q1013 190 1007 191L514 303Q482 307 455 269Q431 237 431 210Q431 186 481.5 58.5Q532 -69 532 -113Q532 -120 495 -180Q448 -256 438 -274Q420 -308 363 -481Q335 -472 280 -447Q192 -395 191 -395Q100 -395 100 -448Q100 -482 171 -614Q227 -718 246 -746Q269 -774 306 -831Q389 -1006 472 -1182Q589 -1413 716 -1568L734 -1550Q649 -1421 580 -1256Q577 -1253 582 -1248Q647 -1346 680 -1391Q733 -1464 796 -1536L814 -1518Q713 -1373 632 -1202Q599 -1133 501 -898Q496 -879 498 -875Q566 -937 596 -955Q640 -982 692 -982Q723 -982 734 -975V-957Q734 -936 684 -876Q661 -849 608 -822Q528 -782 526 -781Q571 -624 652 -538Q679 -503 706 -468Q743 -422 776 -407Q840 -379 943 -353Q1031 -331 1118 -310L1542 -395Q1593 -399 1723 -299Q1739 -325 1739 -356Q1739 -340 1721 -457Q1734 -470 1745 -470Q1786 -470 1806 -360Q1806 -328 1781 -264Q1764 -220 1764 -86Q1764 33 1765 39Q1770 73 1795 147Q1817 216 1817 221ZM600 -1360Q417 -1062 354 -860Q376 -865 402 -882Q426 -937 600 -1360ZM698 -954Q657 -944 599 -917Q570 -876 523 -807Q541 -823 615 -861Q675 -892 682 -912ZM1790 215Q1790 208 1763.5 109.5Q1737 11 1737 5Q1737 -167 1744 -227Q1746 -245 1764 -295Q1780 -340 1780 -360Q1780 -391 1754 -427Q1763 -394 1763 -357Q1763 -279 1724 -262Q1620 -377 1537 -368L1123 -288Q1088 -284 1038 -303Q961 -332 924 -340Q864 -351 765 -385Q706 -419 637 -505Q580 -576 554 -628Q537 -676 520 -723Q494 -786 446 -820L674 -1339Q554 -1167 405 -827Q397 -830 388.5 -836.5Q380 -843 374 -843Q344 -820 299 -778Q284 -759 209 -622Q127 -473 127 -451Q127 -434 133 -428H153Q153 -430 150.5 -438.5Q148 -447 149 -450Q155 -453 168 -481Q177 -479 191 -471Q191 -467 189 -455Q187 -443 187 -438Q244 -491 247 -491Q252 -491 260 -483Q254 -474 241.5 -458.5Q229 -443 226 -439Q264 -464 390 -520Q391 -522 398 -556Q401 -571 415 -571Q422 -571 425 -568V-553Q425 -505 388 -490Q411 -359 530 -171Q540 -251 576 -397Q583 -406 587 -406Q590 -403 594 -401.5Q598 -400 601 -397Q579 -339 567 -241Q559 -163 551 -84Q547 -50 502 81.5Q457 213 457 215Q457 235 476 254.5Q495 274 513 277L1022 163Q1014 145 1000 117H982Q976 118 797 162Q657 197 585 197Q572 197 554 187Q553 182 553 179Q630 78 707 -24Q796 -144 813 -230H831Q832 -224 832 -217Q832 -178 787 -103Q748 -39 708 24Q776 85 894 85Q979 85 1156 26Q1342 -35 1433 -40Q1412 -57 1393 -94Q1374 -131 1374 -155Q1374 -180 1386 -216Q1399 -256 1413 -257L1422 -248Q1401 -185 1401 -158Q1401 -127 1429 -86.5Q1457 -46 1525 -2Q1580 34 1629 85Q1678 136 1678 162Q1678 170 1676 172Q1674 174 1674 176Q1632 176 1552 176Q1472 175 1472 175H1340Q1333 175 1266.5 167Q1200 159 1193 159Q1176 159 1124 172Q1146 199 1173 244H1195Q1202 244 1290.5 233.5Q1379 223 1385 223Q1546 223 1707 268Q1739 277 1740 277Q1759 277 1775 253Q1790 232 1790 215ZM533 -866L527 -871L483 -826L488 -820ZM1646 153Q1625 96 1551 38Q1480 -17 1436 -17Q1383 -17 1297 6Q1238 22 1179 39Q1153 46 1094 72Q1193 90 1193 111Q1193 120 1183 131Q1316 155 1367 153ZM1134 108Q1135 108 1119.5 105Q1104 102 1081 102Q1092 123 1111 133ZM1070 259Q1046 234 1029 234Q1018 245 1018 259ZM926 108Q788 114 689 42L596 164H636ZM404 -719Q397 -703 367 -694Q337 -685 309 -678Q309 -690 303 -696Q352 -742 353 -742Q361 -742 379.5 -731.5Q398 -721 404 -719Z"/>
</svg>