<svg xmlns="http://www.w3.org/2000/svg" viewBox="23.6 -1643.4 1882.9 2063.9">
	<path fill="currentColor" d="M1830 -713Q1830 -620 1719 -559Q1697 -550 1656 -526Q1639 -404 1639 -369Q1639 -364 1640 -346Q1640 -329 1640 -320Q1640 -273 1762 -147Q1775 -134 1775 -115Q1775 -135 1722 96Q1721 102 1708 232Q1701 240 1689 260Q1686 269 1680 315Q1678 321 1670 331Q1632 344 1601 344Q1593 344 1585 341Q1577 338 1575 338Q1568 331 1568 322Q1568 317 1595 252Q1627 177 1637 144Q1650 103 1650 5Q1650 -79 1635 -100Q1628 -110 1488 -235Q1483 -235 1476 -226Q1425 -75 1320 249Q1309 262 1290 288Q1287 294 1272 338Q1164 338 1159 337V303Q1159 291 1194 248Q1237 196 1239 192Q1258 159 1291 2Q1322 -146 1322 -180Q1322 -223 1311 -276Q1295 -351 1268 -350L857 -328Q849 -306 853 -282L940 229Q939 241 927 258Q915 275 914 281Q907 328 907 332Q891 335 856.5 338Q822 341 806 344Q793 332 793 316Q793 309 820 253.5Q847 198 847 191Q847 162 818 63Q803 34 778 -24Q759 -91 719 -224Q594 43 583 254Q567 279 546 332Q543 332 434 344Q421 331 421 327Q421 324 464 257Q509 186 518 149Q540 55 565 -106Q595 -302 607 -363Q527 -415 500 -519Q468 -499 440 -470Q429 -495 407 -546.5Q385 -598 374 -623Q295 -566 134 -459Q134 -459 100 -561Q194 -590 361 -653L247 -773Q265 -790 316 -814L375 -688Q384 -707 401 -741Q415 -766 466 -831Q509 -886 509 -893Q509 -967 460 -967Q453 -967 405 -942.5Q357 -918 350 -918Q279 -918 279 -975Q279 -1007 377 -1101Q453 -1173 491 -1200Q497 -1239 516 -1314Q524 -1336 555 -1404Q580 -1459 580 -1466Q580 -1483 552 -1554Q565 -1567 580 -1567Q597 -1567 613 -1535Q625 -1513 627 -1499Q627 -1499 627 -1354Q667 -1418 667 -1453Q667 -1488 645 -1554Q658 -1567 664 -1567Q695 -1567 713 -1520Q727 -1483 727 -1444Q727 -1387 694 -1324Q643 -1226 634 -1200Q636 -1196 641 -1197Q724 -1245 757 -1245Q784 -1245 820 -1221Q802 -1188 753 -1165Q718 -1149 683 -1133Q701 -1078 723 -976Q724 -974 731 -968Q776 -963 803.5 -927Q831 -891 831 -844Q831 -788 776 -729Q794 -717 829 -700Q899 -682 1020 -668Q1220 -645 1221 -645L1423 -672Q1486 -664 1555 -642Q1562 -640 1592 -625Q1617 -612 1625 -612Q1671 -612 1715 -645Q1759 -678 1762 -713Q1762 -718 1757 -746Q1761 -769 1778 -786Q1790 -783 1811 -775Q1830 -734 1830 -713ZM604 -1492L598 -1523H588L594 -1492ZM609 -1475V-1490H599V-1475ZM787 -1210Q771 -1218 757 -1218Q712 -1218 640 -1159H664Q666 -1159 747 -1181Q764 -1186 787 -1210ZM605 -1458Q521 -1240 521 -1247V-1202Q549 -1244 594 -1329Q609 -1365 605 -1458ZM760 -934L728 -947V-939L757 -927ZM727 -776Q727 -781 715 -823Q703 -865 701 -882Q696 -957 676 -1090Q665 -1130 648 -1130Q641 -1130 642.5 -1127.5Q644 -1125 637 -1125Q629 -1125 628 -1132Q627 -1139 626 -1144Q602 -1150 602 -1155V-1171Q602 -1174 610 -1198Q627 -1250 674 -1331Q705 -1386 705 -1439Q705 -1442 686 -1518Q692 -1488 692 -1464Q692 -1384 604 -1293Q574 -1262 559 -1205Q560 -1192 554 -1169Q545 -1174 522 -1174Q499 -1174 483 -1166Q407 -1127 314 -993Q306 -982 309 -961Q320 -983 334 -983Q346 -983 351 -979V-961Q370 -978 372 -978Q379 -978 381.5 -972.5Q384 -967 391 -967Q397 -967 429.5 -980.5Q462 -994 468 -994Q531 -994 531 -887V-678H554Q727 -738 727 -776ZM809 -847Q809 -862 795 -890Q800 -853 761 -771Q809 -813 809 -847ZM771 -866Q771 -898 728 -911Q735 -844 749 -808Q771 -849 771 -866ZM1803 -713Q1803 -724 1788 -754Q1795 -676 1733 -628Q1682 -590 1625 -590Q1601 -590 1541 -617.5Q1481 -645 1418 -645Q1411 -645 1315 -634Q1219 -623 1213 -623Q1149 -623 916 -651Q880 -655 823 -673Q813 -676 786 -693Q759 -710 754 -710Q748 -710 718 -693Q684 -672 674 -668Q655 -660 520 -617Q518 -599 518 -582Q518 -455 639 -375Q591 -439 591 -519Q591 -538 594 -541H613Q618 -474 666 -389Q727 -281 736 -253Q753 -183 794 -51Q817 4 840 58Q875 148 875 191Q875 200 842 266Q877 278 890 277Q890 268 901.5 253Q913 238 913 232Q913 269 872 -47Q854 -121 827 -260Q830 -296 829 -353Q826 -375 806 -431Q789 -481 789 -497Q789 -505 791 -509H810Q824 -446 854 -356L1295 -377Q1330 -379 1382 -367Q1344 -481 1344 -519Q1344 -546 1363 -546Q1374 -546 1377 -543Q1371 -528 1371 -505Q1371 -456 1400 -379Q1425 -313 1538 -222.5Q1651 -132 1670 -89Q1676 -75 1677 -51Q1677 -35 1674.5 -12Q1672 11 1672 11Q1672 105 1669 127Q1660 182 1617 266H1660Q1672 248 1686 216Q1748 -142 1748 -104Q1748 -126 1740 -136Q1716 -157 1678 -196Q1620 -268 1614 -331Q1612 -352 1612 -369Q1612 -392 1619 -441Q1626 -490 1626 -510Q1626 -529 1622 -542Q1711 -580 1748 -609Q1803 -653 1803 -713ZM1459 -257Q1459 -269 1409 -309Q1359 -349 1346 -349H1312Q1350 -245 1350 -180Q1350 -163 1329 -51Q1304 79 1282 149Q1258 225 1208 270Q1219 281 1219 283H1266Q1282 259 1304 216ZM1654 310V290Q1641 294 1623 310ZM502 -672Q501 -664 501 -803L422 -673Q470 -673 502 -672ZM327 -727Q324 -735 319 -754Q314 -773 311 -781Q309 -781 300 -777.5Q291 -774 285 -774Q301 -750 327 -727ZM491 -552Q490 -589 491 -622Q475 -618 457 -618Q439 -618 427 -622Q474 -563 491 -552ZM470 -533L422 -579Q423 -577 444 -514Q451 -514 470 -533ZM295 -599L132 -545Q144 -509 150 -497ZM700 -271Q700 -290 675 -315Q650 -340 630 -344Q594 -122 529 204Q523 227 487 271L546 278Q552 237 565 167Q585 93 646 -97Q700 -266 700 -271ZM885 309Q880 306 867 302Q854 298 849 295Q849 298 846 305.5Q843 313 843 316Q856 316 870 312.5Q884 309 885 309ZM522 308Q517 308 512 300Q499 300 499 316Q507 308 522 308ZM551 -1108Q555 -1086 531 -1077Q507 -1068 484 -1060Q481 -1063 477 -1072Q473 -1081 470 -1084Q513 -1114 520 -1114Q527 -1114 536.5 -1111Q546 -1108 551 -1108Z"/>
</svg>