<svg xmlns="http://www.w3.org/2000/svg" viewBox="0 -2048 2048 2048">
	<path fill="currentColor" d="M2289 30Q2289 75 2243 75Q2179 75 2158 45Q2140 4 2088 -83Q2024 -160 1895 -313L1957 42Q1960 59 1960 56Q1960 71 1941.5 89.5Q1923 108 1921 116Q1921 129 1916 157Q1893 153 1811 153H1775L1764 141Q1772 88 1822 70Q1869 54 1869 19Q1869 -26 1844 -123Q1819 -220 1796.5 -258.5Q1774 -297 1702 -335Q1625 -377 1601 -407Q1599 -399 1599 -393Q1599 -379 1606.5 -350.5Q1614 -322 1614 -308Q1614 -293 1601 -269Q1591 -251 1581 -232Q1528 -109 1510 0Q1508 25 1505 49Q1501 82 1487 91Q1476 94 1453 124Q1447 137 1440 146Q1435 147 1411 147Q1406 147 1397.5 145.5Q1389 144 1384 144Q1378 144 1366 148.5Q1354 153 1348 153H1303Q1292 153 1292 139Q1292 99 1329 75Q1364 56 1398 38Q1414 28 1430 -3Q1442 -25 1456 -130Q1470 -227 1470 -264Q1470 -277 1447 -332Q1418 -398 1416 -405Q1397 -463 1392 -496Q1391 -513 1389 -547Q1339 -555 1298 -555Q1234 -555 1125 -512Q967 -450 953 -446Q932 -448 916 -448Q906 -416 906 -414L909 -275Q927 -244 943 -215.5Q959 -187 959 -138Q959 -97 999.5 -18.5Q1040 60 1040 63Q1040 72 1030 96.5Q1020 121 1014 125Q973 150 959 150Q956 150 949 149Q942 148 939 148Q934 148 921 151Q908 154 902 154Q890 154 868 151Q846 148 837 147Q829 139 829 127Q829 94 877 74.5Q925 55 925 36Q925 -2 891 -59Q864 -103 837 -147Q832 -166 820 -204Q789 -277 730 -350Q696 -307 653 -235Q650 -219 638 -189Q594 -127 514 2Q509 11 473 108Q453 116 433 124Q418 132 400 155Q395 156 374 156Q364 156 345 151.5Q326 147 316 147Q311 147 308 156H259V139Q259 135 272 95Q292 78 339 66Q386 54 403 41Q410 36 449 -55Q485 -137 494 -163Q494 -164 504 -203Q508 -220 557 -316Q581 -362 595 -408Q623 -496 623 -511Q623 -497 603 -552Q582 -632 524 -786Q500 -832 500 -896V-969Q500 -979 504.5 -1001Q509 -1023 509 -1033Q509 -1159 422 -1191Q419 -1192 287 -1201Q211 -1206 169 -1219Q153 -1224 126.5 -1251Q100 -1278 100 -1293Q100 -1284 104 -1320Q164 -1373 315 -1373Q362 -1373 417 -1350Q458 -1333 513 -1284Q570 -1232 585 -1194Q612 -1127 618 -1040Q618 -1001 628 -927Q632 -913 667.5 -883.5Q703 -854 825 -824Q838 -842 847 -877Q862 -934 862 -934Q884 -998 922 -1040Q937 -1056 1001 -1094L1512 -1394Q1530 -1322 1530 -1306Q1530 -1268 1508 -1220L1625 -1272Q1635 -1263 1635 -1252Q1635 -1080 1481 -988Q1427 -956 1320 -910Q1206 -862 1158 -835Q1078 -790 1033 -762Q1101 -730 1189 -730Q1231 -730 1313.5 -743.5Q1396 -757 1438 -757Q1475 -757 1533 -738Q1635 -705 1712 -622Q1833 -492 1928 -378Q1949 -353 2057 -201Q2136 -90 2200 -36Q2216 -28 2246 -13Q2289 9 2289 30ZM1612 -1235V-1242Q1567 -1228 1488 -1191Q1481 -1179 1466 -1158Q1426 -1114 1319 -1035Q1290 -1012 1229 -972Q1190 -957 1119 -919Q1077 -890 968 -784Q981 -777 1006 -769Q1119 -847 1256 -908Q1448 -994 1476 -1012Q1602 -1090 1611 -1199Q1612 -1215 1612 -1235ZM1830 -392Q1775 -459 1726 -509Q1749 -457 1830 -392ZM1935 58Q1935 27 1894 -180Q1890 -244 1869 -327Q1857 -341 1776 -410Q1718 -458 1701 -508Q1697 -519 1682 -542Q1608 -468 1608 -439Q1608 -417 1699 -363Q1799 -302 1818 -267Q1840 -226 1866 -124Q1892 -22 1892 21Q1892 76 1841 88.5Q1790 101 1790 127H1811Q1819 105 1839 97Q1839 117 1835 130H1853Q1863 111 1881 101Q1881 120 1879 130H1895Q1896 99 1915.5 83Q1935 67 1935 58ZM2266 31Q2266 21 2230 4Q2187 -17 2184 -19Q2123 -72 2034 -194Q1998 -248 1920 -351Q1661 -663 1583 -695Q1553 -707 1489 -723Q1481 -724 1462 -729Q1443 -734 1434 -734Q1393 -734 1311.5 -720.5Q1230 -707 1189 -707Q1095 -707 948 -767Q939 -764 902 -739Q869 -716 857 -716Q845 -716 845 -724Q845 -727 847 -730Q876 -744 930 -778Q939 -785 1081 -916Q1090 -925 1110 -941Q1142 -958 1207 -993Q1507 -1155 1507 -1304Q1507 -1310 1499 -1360L990 -1063Q921 -1023 885 -935Q879 -910 866 -860Q855 -822 811 -776Q799 -764 793 -764Q780 -764 780 -773Q780 -776 808 -805Q762 -816 670 -856Q618 -888 609 -915Q597 -951 594 -1023Q591 -1099 582 -1133Q568 -1185 557 -1200Q448 -1350 313 -1350Q189 -1350 126 -1309Q123 -1300 123 -1296Q123 -1290 140 -1283Q162 -1274 168 -1269L156 -1257Q188 -1228 286 -1224Q406 -1219 424 -1213Q532 -1180 532 -1033Q532 -1023 527.5 -1002.5Q523 -982 523 -972V-887Q523 -845 527 -835Q547 -785 583 -682Q597 -634 631 -542Q632 -540 739 -378Q776 -327 838 -219Q840 -216 852 -172Q857 -155 906 -82Q948 -20 948 34Q948 65 901.5 89Q855 113 855 115V125Q858 126 867 127Q880 110 898 97Q898 118 896 127H921Q930 113 946 106Q948 115 947 125Q953 127 957 127Q982 127 1006 102Q1017 90 1017 64Q1017 61 983 4Q933 -80 933 -168Q933 -201 883 -266V-414Q883 -418 887.5 -430Q892 -442 892 -449Q892 -455 889 -462Q892 -469 898 -474Q901 -479 901 -484Q901 -542 861 -576Q851 -583 834 -599Q811 -630 811 -650Q811 -664 818 -664Q826 -664 840 -638Q856 -608 862 -603Q872 -596 889 -578Q924 -527 924 -489Q924 -479 922 -470Q943 -467 944 -467Q956 -467 1095.5 -524Q1235 -581 1293 -581Q1322 -581 1389 -572Q1393 -600 1399 -627Q1405 -654 1429 -676L1444 -662Q1411 -629 1411 -559Q1411 -503 1441 -401Q1445 -389 1472 -330Q1495 -279 1495 -265Q1495 -229 1477 -122Q1459 -11 1448 13Q1430 51 1375 73Q1325 94 1317 127H1329Q1335 111 1353 104L1358 126L1355 128Q1370 125 1381 126Q1385 115 1392 108Q1404 114 1405 121H1429Q1444 94 1448 90Q1462 80 1477 70Q1501 -85 1559 -237Q1561 -241 1576 -270Q1588 -291 1588 -303Q1588 -318 1582 -349Q1576 -380 1576 -395Q1576 -407 1588.5 -446Q1601 -485 1608 -495Q1628 -523 1689 -577Q1778 -492 1845 -410Q1876 -370 1939 -292Q1995 -229 2050 -165Q2121 -82 2145.5 -31.5Q2170 19 2179 30Q2200 53 2242 53Q2266 53 2266 31ZM714 -371L640 -487Q636 -468 627 -431Q601 -336 572 -294Q549 -261 516 -158Q516 -158 464 -38Q450 0 425 50Q404 75 344 89Q294 101 286 130H295Q299 117 316 108Q324 115 323 124Q343 127 345 127H354Q371 109 377 109Q390 109 390 118Q387 125 383 130H389Q402 112 425.5 104.5Q449 97 455 91Q480 7 556 -103Q612 -183 619 -204Q625 -220 714 -371ZM311 -1278Q307 -1278 299.5 -1276.5Q292 -1275 288 -1275Q292 -1275 262 -1290V-1322Q279 -1328 289 -1328H297Q304 -1328 311 -1326Z"/>
</svg>