<svg xmlns="http://www.w3.org/2000/svg" viewBox="0 -2048 2048 2048">
	<path fill="#000000" d="M1303 -766Q1299 -737 1295 -676Q1294 -650 1290 -594Q1278 -429 1282 -337Q1284 -299 1266 -287Q1239 -269 1162.5 -245.5Q1086 -222 934 -173Q910 -46 910 -14Q910 19 933 60Q968 123 975.5 142Q983 161 983 173Q983 208 970 238Q952 277 922 277Q916 277 838.5 269.5Q761 262 755 262Q750 262 732.5 267Q715 272 709 272Q703 272 653 252.5Q603 233 597 233Q591 233 580 242Q566 253 560 256Q528 272 488 272Q459 272 406 251Q414 233 425 221Q419 210 396 198Q423 147 461 138Q487 133 535 118Q551 16 551 0Q551 -4 531 -50Q508 -102 499 -132Q476 -227 423 -414Q392 -511 228 -684Q100 -819 100 -1006Q100 -1050 125 -1075Q150 -1100 227 -1138Q317 -1182 353 -1208Q383 -1243 441 -1309Q515 -1394 602 -1421L624 -1415Q595 -1371 532 -1283Q535 -1280 547 -1282Q839 -1339 833 -1339Q839 -1339 841.5 -1334Q844 -1329 850 -1329Q855 -1329 870 -1336.5Q885 -1344 891 -1344Q911 -1344 937 -1314Q953 -1294 968 -1274Q968 -1262 962 -1258Q916 -1237 888 -1237Q882 -1237 843.5 -1241.5Q805 -1246 799 -1246Q769 -1246 725 -1237L716 -1230Q783 -1226 914 -1210Q926 -1198 947 -1168Q950 -1152 958 -1122Q925 -1111 913 -1111Q910 -1111 837 -1130Q764 -1149 704 -1149Q628 -1149 605 -1131Q585 -875 585 -900Q585 -877 727 -697Q839 -556 856 -530Q910 -451 924 -382Q936 -382 968 -385Q1000 -388 1005 -388H1154Q1158 -392 1158 -400Q1158 -429 1114 -496Q1064 -571 1059 -588Q1056 -598 1027 -627Q1039 -655 1051 -683Q1066 -718 1073 -718Q1079 -718 1077.5 -715.5Q1076 -713 1082 -713Q1089 -713 1090 -719.5Q1091 -726 1092 -727Q1116 -697 1151 -626Q1197 -533 1208 -514Q1208 -518 1198 -653Q1200 -656 1205 -663Q1206 -665 1201 -668.5Q1196 -672 1196 -679Q1196 -720 1198 -716Q1261 -766 1282 -766ZM915 -1303Q899 -1319 893 -1319H877Q872 -1310 877 -1302Q881 -1302 889 -1296Q897 -1290 903 -1290Q915 -1290 915 -1303ZM939 -1279L906 -1285L901 -1262Q915 -1266 939 -1279ZM920 -1170L899 -1193H877Q877 -1187 882 -1177Q887 -1167 887 -1165Q895 -1165 907 -1167.5Q919 -1170 920 -1170ZM929 -1135Q929 -1140 923 -1149Q909 -1142 896 -1142ZM1281 -736H1272L1267 -699H1276ZM1249 -684V-727Q1221 -713 1221 -703Q1221 -697 1223.5 -688.5Q1226 -680 1226 -675Q1228 -675 1237.5 -679.5Q1247 -684 1249 -684ZM871 -1146Q852 -1182 839 -1196Q677 -1217 672 -1217Q663 -1217 638 -1196Q613 -1175 610 -1160Q651 -1174 694 -1174Q759 -1174 871 -1146ZM1273 -674Q1255 -664 1221 -644Q1225 -620 1234 -515Q1238 -456 1258 -417ZM1095 -640Q1095 -635 1073 -679Q1056 -628 1056 -635Q1056 -623 1078 -606Q1095 -640 1095 -640ZM575 -1382Q497 -1339 466 -1299Q366 -1173 243 -1122Q308 -1144 414 -1190Q459 -1216 508 -1282Q541 -1332 575 -1382ZM474 -1195L471 -1202Q354 -1152 188 -1060Q168 -1043 161 -1026L168 -1023Q195 -1050 223 -1059Q420 -1124 474 -1195ZM1260 -332Q1260 -385 1121 -635Q1100 -606 1085 -574Q1185 -465 1182 -376Q1171 -373 1000 -362Q974 -360 914 -354Q862 -349 857 -349Q837 -349 832 -352V-365Q833 -365 900 -379V-400Q900 -438 816 -550Q766 -611 717 -673Q690 -706 644 -775Q624 -811 572 -873Q555 -841 471 -766Q462 -775 459 -775V-787Q549 -845 567 -934Q572 -1012 577 -1091Q585 -1182 647 -1236Q688 -1271 782 -1271Q778 -1271 826 -1267Q865 -1264 886 -1267Q883 -1278 859 -1296Q835 -1314 828 -1314Q823 -1314 785 -1302Q743 -1289 728 -1287Q647 -1279 538 -1254Q516 -1241 478.5 -1181Q441 -1121 407 -1107Q321 -1080 213 -1041Q196 -1031 177.5 -1001Q159 -971 151 -965Q139 -975 143 -1023Q145 -1043 160 -1064L153 -1068Q137 -1058 128 -1023Q125 -980 125 -977L130 -938Q137 -884 155 -840Q188 -761 248.5 -693Q309 -625 409 -496Q436 -453 491 -268Q502 -223 523 -147Q575 13 575 -7Q575 -3 567.5 49Q560 101 559 126Q577 122 620 126V142Q565 147 510 153Q452 161 430 188Q458 199 491 199Q529 199 564 188Q622 170 617 170Q624 170 626 178Q628 186 629 187Q608 201 590 201Q667 248 709 248Q707 248 754 246Q794 244 815 245Q829 246 864 250Q896 253 901 253Q949 256 949 229Q949 180 937 162Q906 139 871 91L879 83H892Q921 122 948 138Q928 100 908 61Q886 18 886 -12Q886 11 904 -169Q893 -165 864 -165Q800 -165 710 -185Q697 -195 697 -195Q699 -199 705 -208H723Q729 -208 793.5 -198.5Q858 -189 864 -189Q916 -189 933 -195Q999 -216 1127 -260Q1172 -273 1252 -306Q1260 -311 1260 -332ZM570 215Q553 215 521.5 219.5Q490 224 486 224Q465 224 456 219Q445 230 445 242Q481 253 491 253Q508 253 535 240.5Q562 228 570 215ZM930 202Q924 208 924 213Q907 210 901.5 195.5Q896 181 891 166H914Q914 170 930 202ZM774 188L762 199Q746 190 723 188Q715 171 697 134L709 122Q758 161 774 188Z"/>
</svg>