<svg xmlns="http://www.w3.org/2000/svg" viewBox="0 -2048 2048 2048">
	<path fill="currentColor" d="M1630 -420Q1630 -401 1614 -386.5Q1598 -372 1587 -372Q1580 -372 1556 -377Q1532 -382 1525 -382Q1429 -382 1350 -331Q1485 -104 1485 240Q1485 269 1472 311Q1465 335 1440 345H1421V325Q1451 312 1457 278Q1458 275 1458 229Q1458 103 1426 -54Q1387 -244 1326 -312Q1281 -283 1232 -224Q1252 -214 1296 -181Q1296 -169 1283 -156Q1234 -199 1218 -199Q1195 -199 1168 -120Q1151 -71 1151 -19Q1151 82 1214 171Q1282 266 1403 319V334H847Q841 334 807 339.5Q773 345 766 345Q732 345 704 338Q724 274 725 272Q740 243 776 243Q783 243 834 253.5Q885 264 892 264Q944 264 1119 239Q1108 225 1025 130Q976 73 964 36Q958 18 942 -14Q837 -32 708 -49Q676 22 635 133Q606 212 597 246Q570 350 545 350Q539 350 532 345Q525 340 518 340Q511 340 474.5 345Q438 350 431 350Q426 350 405 347Q384 344 375 344V321Q375 280 419 265Q454 254 489 242Q518 222 527 148L553 -62Q553 -89 532 -113.5Q511 -138 490 -163Q486 -169 481 -207Q476 -248 483 -277Q480 -280 265 -280Q210 -271 152 -473Q100 -651 100 -751Q100 -846 141 -846Q174 -846 196 -807Q213 -776 213 -749Q213 -742 199.5 -699Q186 -656 186 -649Q186 -636 224 -545Q266 -444 299 -393Q302 -388 367 -388Q436 -388 495 -399Q507 -422 523 -507Q537 -581 537 -592Q537 -630 504 -680.5Q471 -731 442 -736Q414 -738 386 -740Q348 -744 328 -766Q317 -778 324 -809Q294 -859 294 -908Q294 -924 312 -935Q373 -972 493 -1059Q343 -1167 343 -1290Q343 -1391 419 -1463Q495 -1535 596 -1535Q706 -1535 777.5 -1464.5Q849 -1394 849 -1290Q849 -1223 806 -1155Q767 -1093 710 -1057Q704 -1025 704 -1018Q704 -1012 723 -973Q744 -928 750 -909Q753 -899 782 -817Q790 -779 798 -742Q808 -694 837 -674Q852 -663 928 -639Q1195 -553 1299 -415Q1392 -479 1528 -479Q1630 -479 1630 -420ZM822 -1290Q822 -1386 757 -1447Q692 -1508 596 -1508Q502 -1508 436 -1446.5Q370 -1385 370 -1290Q370 -1209 433.5 -1141.5Q497 -1074 584 -1067Q597 -1099 609 -1132Q627 -1170 662 -1185Q706 -1119 710 -1094Q822 -1153 822 -1290ZM1603 -405V-435Q1579 -458 1520 -458Q1362 -458 1221.5 -321Q1081 -184 1081 -24Q1081 64 1132 162Q1185 265 1265 316Q1275 322 1300 320Q1337 316 1339 316Q1129 189 1129 -16Q1129 -137 1211 -242Q1299 -354 1440 -391Q1497 -396 1603 -405ZM1275 -401Q1216 -497 1004 -585Q931 -609 826 -653Q808 -664 782 -736Q756 -812 701 -958Q691 -961 676 -968Q674 -985 677 -1018Q681 -1057 681 -1071Q681 -1122 652 -1147Q615 -1073 587 -980Q577 -982 563 -989Q566 -997 568.5 -1014Q571 -1031 574 -1039Q569 -1039 557 -1042Q545 -1045 539 -1045Q508 -1045 430 -981Q419 -972 321 -910Q321 -868 338 -837Q361 -834 402 -826Q400 -817 393 -803Q367 -812 348 -801V-778Q348 -768 377 -766Q425 -763 441 -760Q479 -752 500 -731Q558 -671 558 -571Q558 -510 543 -439Q530 -383 518 -326Q504 -244 504 -237Q504 -178 552 -138Q540 -173 540 -213Q540 -313 610 -420Q629 -411 628 -402Q574 -323 565 -245Q562 -217 570 -164Q580 -103 580 -94Q584 96 535 234Q527 257 496 267Q471 275 445 283Q448 286 451 292Q454 298 456 300Q465 301 474 312Q483 323 488 323Q540 323 550 300Q631 113 675 -45Q679 -59 674 -95Q670 -125 680 -140Q683 -137 689 -135.5Q695 -134 698 -131Q698 -79 699 -76L945 -38Q947 -115 968 -147Q1002 -198 1046 -208Q1105 -221 1123 -239Q1174 -298 1275 -401ZM1112 186Q1059 60 1059 -29Q1059 -110 1096 -204Q973 -162 973 -54Q973 72 1112 186ZM495 -363Q499 -368 486 -377Q433 -366 409 -366H282L159 -646Q192 -737 192 -746Q192 -759 181 -785Q168 -819 151 -818H132Q161 -806 176 -784Q166 -774 166 -770H152Q138 -785 133 -785Q144 -762 141 -753Q135 -743 129 -740Q128 -735 131 -721Q134 -707 134 -703Q134 -698 128 -686Q122 -674 122 -668Q122 -669 163 -519Q175 -471 206 -379Q238 -309 264 -303Q269 -302 372 -302Q445 -302 487 -308Q487 -316 491 -336Q495 -356 495 -363ZM1221 317Q1181 259 1153 259Q1146 259 1030.5 272.5Q915 286 908 286Q817 286 791 270V290Q828 290 828 290V312Q830 312 837 307Q844 302 852 302Q859 302 863 309.5Q867 317 874 317ZM774 275L771 268L758 274V282ZM754 287H746L734 315L742 319ZM452 310L444 307L438 321L445 324ZM414 310L407 307L400 321L407 324ZM569 -918Q515 -900 518 -900Q513 -900 480 -927Q472 -927 471 -924Q470 -921 468 -921L456 -934Q476 -970 507 -970Q535 -970 569 -918ZM385 -904Q382 -898 351 -867Q348 -870 344 -876.5Q340 -883 337 -886Q347 -910 373 -910Q380 -904 385 -904ZM522 -930L508 -944L503 -938L516 -925Z"/>
</svg>