<svg xmlns="http://www.w3.org/2000/svg" viewBox="0 -2048 2048 2048">
	<path fill="#000000" d="M2219 -84Q2219 -63 2212 -56Q2169 -69 2134 -183Q2120 -52 2112 135Q2104 144 2093 163Q2088 179 2095 208Q2102 233 2108 258Q1996 253 1976 259V224Q1976 218 1996 161Q2019 95 2024 73Q2026 65 2026 21Q2026 -56 2011 -100Q1991 -160 1923 -244Q1922 -243 1916 -236Q1920 -227 1920 -195Q1918 -195 1912 -192Q1906 -189 1898 -189Q1896 -189 1874 -211Q1862 -189 1848 -189Q1846 -189 1818 -217Q1803 -193 1777 -184Q1770 -150 1731 -93Q1699 -48 1667 -2Q1636 54 1569 164Q1556 176 1534 197Q1532 209 1532 253Q1462 253 1408 259L1395 246Q1403 227 1446 176Q1496 119 1504 106Q1519 82 1566 -19Q1622 -139 1622 -172Q1622 -177 1613 -234Q1603 -300 1600 -333Q1598 -333 1597 -335.5Q1596 -338 1588 -338Q1584 -338 1521 -302Q1454 -264 1426 -257Q1386 -247 1211 -227Q1086 -212 1045 -182Q1031 -172 1018 -135Q1007 -103 1007 -82V186Q996 193 962 193Q950 211 962 258Q940 258 897 259Q853 259 831 259V235Q831 231 871 169Q913 103 922 73Q924 66 924 -23Q924 -110 917 -146Q905 -151 882 -161H867L687 182Q688 176 675 176Q659 176 654 212Q648 261 646 265Q606 259 527 248Q525 217 583 149Q653 66 668 34Q699 -31 736 -158Q769 -270 769 -286Q769 -293 703 -410Q670 -265 670 -228Q670 -223 686.5 -199Q703 -175 703 -161Q703 -95 639 -95Q615 -95 587 -113.5Q559 -132 559 -153Q559 -167 578.5 -193Q598 -219 598 -241L576 -426Q616 -426 629 -436Q630 -445 634 -471Q637 -491 637 -499Q637 -526 606 -526Q564 -526 513 -434Q505 -434 480 -430.5Q455 -427 448 -427Q401 -427 373 -489Q364 -509 380 -563Q383 -574 383 -590Q383 -615 371.5 -676.5Q360 -738 360 -762Q360 -800 388 -856Q389 -867 374 -870.5Q359 -874 345 -877Q291 -898 253 -965Q228 -1020 203 -1076Q171 -1144 100 -1255Q121 -1274 122 -1274Q134 -1274 167 -1234Q185 -1215 214 -1178Q257 -1099 301 -1020Q362 -930 435 -930Q440 -930 493.5 -938.5Q547 -947 568.5 -948Q590 -949 622 -1017Q643 -1077 699 -1195Q708 -1210 794 -1296Q806 -1284 813 -1284V-1265Q813 -1258 790 -1223Q760 -1176 753 -1163Q746 -1150 705 -1041Q676 -965 631 -916Q641 -898 666 -895Q705 -890 707 -889Q710 -879 719 -860Q743 -842 758 -842Q763 -842 775 -847.5Q787 -853 794 -853Q814 -853 824 -836Q840 -811 857 -799Q863 -795 956 -757Q1101 -698 1198 -698Q1263 -698 1342 -707Q1453 -720 1695 -758Q1916 -792 1918 -792Q1965 -792 2031 -765Q2085 -744 2111 -723Q2126 -711 2147.5 -651.5Q2169 -592 2169 -563V-390Q2169 -305 2171 -292Q2177 -255 2199 -168Q2219 -90 2219 -84ZM2144 -461V-603H2134V-461ZM2114 -272V-471Q2092 -397 2092 -377Q2092 -360 2114 -272ZM2184 -128Q2177 -171 2154 -233V-203Q2153 -187 2184 -128ZM1795 -242H1787L1781 -224L1788 -221ZM1763 -238V-253H1753V-238ZM2075 231Q2075 225 2071.5 213Q2068 201 2068 199Q2054 228 2054 231ZM2037 202L2029 182Q2005 206 2005 231Q2028 219 2037 202ZM1757 -213L1750 -216Q1730 -220 1730 -244Q1730 -268 1743 -280Q1732 -294 1703 -315Q1671 -338 1657 -338H1622Q1649 -202 1649 -164Q1649 -126 1573 26Q1501 168 1492 175Q1540 162 1606 48Q1606 48 1696 -85Q1750 -165 1757 -213ZM2109 -175Q2109 -181 2091 -252Q2070 -331 2064 -366L2109 -626Q2099 -673 2060 -713Q2058 -723 2064 -729Q1966 -769 1928 -764L1181 -670Q1088 -669 848 -775Q836 -684 740 -531Q703 -472 703 -471Q703 -447 826 -235Q862 -173 913 -185Q804 -422 804 -542Q804 -566 807 -589L812 -593H831Q831 -480 837 -451Q844 -415 865 -351Q917 -240 933 -178Q952 -106 952 2Q952 93 939 117Q923 138 897 175Q898 175 912.5 178Q927 181 940 181Q940 170 956 154Q962 154 972.5 159Q983 164 985 164Q976 102 980 -26Q981 -64 992 -119Q1013 -170 1044 -269Q1046 -280 1041 -301Q1035 -326 1035 -330Q1035 -408 1047 -495Q1055 -505 1059 -505Q1064 -503 1074 -495V-480Q1074 -477 1065.5 -422Q1057 -367 1057 -341Q1057 -329 1064 -298Q1070 -271 1068 -258Q1065 -235 1052 -212Q1119 -240 1237 -255Q1312 -264 1387 -273Q1413 -278 1507 -324Q1593 -366 1627 -366Q1693 -366 1756.5 -308Q1820 -250 1846 -250Q1874 -250 1909 -263Q1879 -324 1813 -437Q1789 -454 1749 -485Q1763 -499 1767 -499Q1792 -487 1830 -456Q1863 -391 1928 -284Q2032 -154 2040 -81Q2053 32 2053 38Q2053 86 2032 159Q2056 157 2062 165Q2074 153 2086 129Q2089 69 2099 -56Q2109 -174 2109 -175ZM651 -849Q627 -849 627 -861Q606 -861 595 -821Q623 -821 651 -849ZM824 -785Q778 -805 694 -842Q694 -842 584 -787Q578 -793 577 -796Q572 -816 571 -812Q559 -821 537 -839Q560 -852 562 -889Q562 -895 564 -898Q585 -910 617 -933Q645 -961 666 -1021Q679 -1062 693 -1104Q712 -1140 740 -1201Q696 -1110 653 -1020Q604 -921 535 -902Q528 -919 509 -919Q455 -919 418 -861Q388 -812 388 -762Q388 -761 398 -685Q408 -609 408 -573Q408 -569 400 -547Q380 -490 417 -471Q456 -471 508 -484Q523 -506 552 -536Q576 -544 617 -561Q622 -589 626 -617Q637 -665 653 -665Q660 -665 664 -661Q661 -637 651 -592Q642 -552 642 -546Q642 -539 662 -522Q688 -500 689 -499Q754 -610 771 -642Q813 -724 824 -785ZM413 -905Q346 -927 289 -994Q241 -1051 223 -1107Q284 -900 405 -886Q413 -896 413 -905ZM1505 231V205H1467Q1467 208 1454.5 218Q1442 228 1442 231ZM666 -461V-481H657V-461ZM686 -436L682 -445L673 -440L677 -431ZM675 -140V-182Q642 -214 642 -219L675 -404H604L625 -225Q622 -214 604.5 -188.5Q587 -163 587 -156Q587 -122 637 -122Q657 -122 675 -140ZM841 -172Q841 -179 788 -250Q756 -148 724 -47Q680 78 605 156Q604 161 604 170Q606 170 618 173Q630 176 637 176Q643 176 660 158.5Q677 141 683 142Q841 -148 841 -172ZM929 231Q929 204 920 204Q908 216 908 231ZM888 211L883 197Q866 214 866 232Q881 224 888 211ZM630 199H610Q607 212 598 236H625Q625 235 627.5 222Q630 209 630 199ZM575 228Q575 207 568 207Q558 217 558 228ZM504 -737Q504 -729 493 -712Q482 -695 480 -688H455Q455 -696 452 -717Q449 -738 449 -747Q461 -755 485 -775Q504 -737 504 -737ZM459 -483H433V-520H459Z"/>
</svg>