<svg xmlns="http://www.w3.org/2000/svg" viewBox="0 0 891 1000">
  <g transform="scale(1,-1) translate(0,-1000)">
    <path d="M290 666Q307 684 312.0 687.5Q317 691 324 691Q333 691 333 684Q333 672 325.5 661.0Q318 650 301.5 625.5Q285 601 270 565Q270 539 289 534H293Q300 534 311.5 541.5Q323 549 329 549Q340 549 340 539Q340 536 338.0 528.0Q336 520 336 517Q336 512 341 507Q381 485 446 470Q450 468 458.0 468.0Q466 468 469 467L804 466Q841 465 874 430Q891 411 891 373V122Q882 105 875.0 105.0Q868 105 861 122V139Q861 164 861.5 203.0Q862 242 862 260Q862 304 858 349Q856 354 850 354Q840 354 837 348Q825 319 823 263V258Q823 237 834.0 195.0Q845 153 845 137Q845 94 830 50Q808 8 797 0H791Q775 0 775 14Q775 17 787.0 43.5Q799 70 799 116Q799 133 790.5 147.0Q782 161 767 161Q761 161 756.0 159.5Q751 158 746.5 153.0Q742 148 739.5 145.0Q737 142 732.5 134.0Q728 126 726 123Q717 108 709.0 82.0Q701 56 693 41Q691 37 686.0 27.0Q681 17 678.0 13.0Q675 9 669.0 4.5Q663 0 655 0Q635 0 635 16V20L655 48Q661 62 671.0 106.0Q681 150 681.0 173.0Q681 196 666 199H653Q646 199 628.0 198.0Q610 197 600 197Q599 196 575 196Q507 196 416 197Q418 190 426.5 172.0Q435 154 438 141Q451 83 451 62Q451 0 423 0Q392 0 392 16V17Q392 21 397.0 34.0Q402 47 402 50V55Q402 91 386.5 132.0Q371 173 338 182H335Q331 182 329.0 176.5Q327 171 326.0 162.5Q325 154 323 150Q318 139 305.0 106.5Q292 74 279 54Q275 49 267.0 35.5Q259 22 255.0 16.5Q251 11 242.0 5.5Q233 0 222 0Q188 0 188 14Q188 25 203.0 36.0Q218 47 222 54Q257 110 263 140Q273 183 273 207Q273 223 268 250Q266 259 263.0 277.5Q260 296 258.0 304.5Q256 313 251.0 326.5Q246 340 238.0 349.5Q230 359 218 368L177 370L95 369Q89 369 83.0 372.0Q77 375 73.5 377.5Q70 380 64.0 385.5Q58 391 56 392Q55 393 54 394Q46 399 46 409Q46 426 67 460Q74 470 106.5 495.0Q139 520 139 541Q139 544 137 552Q121 532 77 532Q68 532 54 539Q50 541 45.0 554.5Q40 568 40 575V603Q40 615 24 615H20Q11 615 6.5 619.5Q2 624 1.0 627.5Q0 631 0 634Q2 649 18 649H30Q57 649 66 638Q67 636 74.0 614.0Q81 592 90.0 572.0Q99 552 108 552Q108 552 112.5 554.5Q117 557 123.5 560.0Q130 563 133 565Q126 580 82 642Q80 644 70.0 656.0Q60 668 58 678V679Q58 683 61.5 686.5Q65 690 69 690Q70 690 72 690L73 689Q86 683 101 666Q100 670 100 679Q100 721 127.5 749.5Q155 778 197 778Q238 778 264.5 749.5Q291 721 291 679Q291 670 290 666ZM777 206Q793 206 793 232Q793 238 791.0 251.0Q789 264 789 271Q789 310 814 373Q817 381 828.5 394.0Q840 407 840 411Q840 423 828.0 431.0Q816 439 800 439H466L436 442Q410 445 378.5 460.5Q347 476 332 480Q329 477 324.5 471.0Q320 465 315.5 461.5Q311 458 305 457Q303 456 299 456Q283 456 283 467Q283 476 296.0 488.0Q309 500 313 508V510Q313 518 304 518Q302 518 302 517Q293 514 286.0 510.5Q279 507 270.5 500.0Q262 493 257 490Q253 491 253 495Q253 496 256.0 502.5Q259 509 259 514Q259 525 246 535H245Q238 535 225.0 536.5Q212 538 206 538Q196 538 185 534Q177 531 172.0 518.0Q167 505 163 501Q154 492 133.5 478.0Q113 464 102 452Q85 433 85 423Q85 416 97.5 410.5Q110 405 127 405Q132 405 144.0 406.0Q156 407 162 407Q164 407 169.0 406.5Q174 406 176 406Q179 405 187 405Q191 405 197.5 405.5Q204 406 207 406Q231 406 250.0 389.0Q269 372 277 351Q290 313 294 297Q295 293 296.5 276.5Q298 260 300.5 250.5Q303 241 307 241Q310 241 313 243Q324 254 326.5 264.5Q329 275 332.0 297.5Q335 320 346 348Q357 372 364 378Q366 380 371.0 384.5Q376 389 378.0 390.5Q380 392 384.5 394.5Q389 397 392.5 398.0Q396 399 401 399H403Q408 399 408 396Q408 391 399.5 379.5Q391 368 380.5 346.0Q370 324 367 296Q366 291 363.0 278.0Q360 265 360 259Q360 232 386 232Q390 232 398.5 232.5Q407 233 411 233H444Q459 233 486.0 234.0Q513 235 529 235H586H595Q617 236 636.0 236.5Q655 237 661.0 237.0Q667 237 675.0 238.5Q683 240 697 245Q685 280 669.5 310.5Q654 341 646.0 356.0Q638 371 638 376Q638 382 646 382Q650 382 659.0 371.0Q668 360 679.0 344.5Q690 329 699.5 313.5Q709 298 716 286L723 275Q726 270 738.5 246.5Q751 223 763 211Q768 206 777 206ZM205 462Q205 444 179 444Q158 444 158 463Q158 472 164.5 478.5Q171 485 181.0 485.0Q191 485 198.0 478.5Q205 472 205 462ZM125 679Q125 650 147.0 630.0Q169 610 199 610Q228 610 247.0 629.5Q266 649 266 679Q266 711 246.5 732.0Q227 753 196.0 753.0Q165 753 145.0 732.0Q125 711 125 679ZM156 595Q182 569 197 569Q214 569 234 591Q219 585 200 585Q179 585 156 595Z" fill="currentColor"/>
  </g>
</svg>