<svg xmlns="http://www.w3.org/2000/svg" viewBox="0 -2048 2048 2048">
	<path fill="currentColor" d="M1975 -49Q1968 -42 1960 -42Q1945 -42 1901 -129Q1899 -127 1894 -120Q1890 -69 1879 37Q1879 71 1879 106Q1878 156 1857 161Q1864 188 1872 243Q1795 237 1762 237Q1762 207 1782 149Q1802 91 1802 65Q1802 -126 1722 -200H1709Q1709 -176 1698 -159H1681L1667 -174Q1662 -166 1652 -154H1635Q1627 -174 1616 -185Q1614 -180 1611 -170Q1600 -167 1584 -155Q1573 -124 1545 -64Q1473 37 1370 186Q1363 197 1363 237Q1303 237 1270.5 235Q1238 233 1247 233Q1241 215 1284 166Q1310 137 1336 107Q1440 -88 1440 -141Q1440 -148 1425 -283Q1422 -286 1415 -286Q1413 -286 1327 -251Q1233 -212 1183 -201Q1133 -196 1010 -171Q989 -166 968 -162Q939 -154 932 -140Q918 -112 913 -70Q903 18 905 171Q900 172 860 187Q850 211 859 237Q779 231 749 238Q742 231 742 223Q742 195 775 160Q812 120 817 107Q823 89 824 68L829 -62Q829 -84 817 -119Q809 -125 781 -134L618 177L607 167Q585 182 586 203Q586 235 583 243Q569 243 535.5 240.5Q502 238 486 238L478 243V211Q478 199 535 128Q564 92 593 56Q610 20 648 -89Q691 -215 691 -243Q691 -264 627 -356.5Q563 -449 541 -449Q507 -449 484 -406Q461 -363 398 -363Q384 -363 363 -384Q342 -405 341 -421Q335 -518 335 -646Q335 -721 355 -747Q331 -754 285 -777Q259 -796 206 -899Q168 -968 100 -1104Q113 -1117 118 -1117Q128 -1117 195 -1015Q240 -948 284 -881Q299 -860 315 -856Q268 -938 268 -959Q268 -1010 312 -1054Q348 -1091 391 -1105Q362 -1128 259 -1138L340 -1409Q304 -1425 296.5 -1434.5Q289 -1444 289 -1468Q289 -1500 315 -1522.5Q341 -1545 368 -1545Q378 -1545 423 -1494Q439 -1534 492 -1534Q564 -1534 564 -1476Q564 -1431 508 -1406L604 -1138Q518 -1140 462 -1104Q572 -1060 582 -949Q636 -1061 703 -1132H720Q727 -1125 727 -1117Q727 -1119 672 -1006Q652 -954 613 -859Q601 -831 569 -799Q587 -787 637 -773Q638 -766 641 -754Q746 -707 850 -661Q972 -607 1058 -607Q1225 -607 1432 -648Q1639 -689 1700 -689Q1750 -689 1811 -667Q1883 -642 1901 -606Q1924 -559 1924 -478V-283Q1924 -277 1949.5 -182Q1975 -87 1975 -81ZM1943 -98L1904 -264L1895 -505V-300Q1892 -267 1915 -161Q1917 -152 1943 -98ZM1876 -251Q1876 -275 1873.5 -321.5Q1871 -368 1871 -388Q1858 -349 1858 -327Q1858 -319 1865 -293Q1874 -262 1876 -251ZM568 -1158L482 -1429Q502 -1436 523 -1442Q538 -1450 538 -1476Q538 -1509 495 -1509Q450 -1509 443 -1477Q436 -1445 436 -1298Q436 -1199 443 -1122Q544 -1160 568 -1158ZM1595 -185V-199H1586V-185ZM415 -1122V-1446Q390 -1519 360 -1519Q344 -1519 326.5 -1500Q309 -1481 309 -1466Q309 -1449 330 -1438Q348 -1429 357 -1431Q360 -1429 370 -1419L289 -1159Q371 -1151 415 -1122ZM1847 217Q1843 205 1834 182Q1834 196 1822 217ZM1873 -159Q1873 -192 1871 -198Q1837 -293 1837 -345Q1837 -398 1859 -497Q1873 -560 1873 -549Q1873 -555 1852.5 -584.5Q1832 -614 1832 -620Q1832 -632 1837 -631Q1768 -665 1705 -663L1053 -582Q1008 -576 975 -588Q908 -611 761 -675Q631 -730 627 -730Q621 -730 575 -707Q529 -684 523 -684Q511 -684 519 -688Q514 -708 514 -708Q503 -715 487 -732Q497 -742 511 -757Q510 -767 509 -782Q547 -810 567 -833Q587 -856 600 -898Q616 -956 618 -959Q600 -920 582 -882Q557 -837 524 -814Q491 -791 490 -791Q484 -791 480 -798.5Q476 -806 470 -806Q423 -806 387 -754Q355 -707 355 -658Q355 -652 361 -608Q367 -561 368 -544Q366 -567 360 -437Q358 -404 393 -404Q431 -404 450 -415Q469 -438 501 -468Q506 -471 532 -471Q552 -490 561 -523Q572 -567 577 -577L595 -573Q569 -456 569 -472Q569 -466 586 -450Q607 -432 608 -430Q649 -350 744 -201Q776 -160 813 -150Q722 -307 722 -457Q722 -480 731 -516Q738 -516 747 -507Q747 -408 754 -350Q758 -313 774 -283Q826 -180 840 -124Q849 -85 849 -4Q849 77 849 80Q841 138 798 165Q803 165 812.5 168.5Q822 172 829 172Q836 172 846 159.5Q856 147 862 147Q864 147 878 154Q878 154 878 37Q878 -21 891 -90Q907 -129 930 -209Q925 -285 939 -434Q948 -432 961 -426Q947 -282 947 -274Q952 -188 954 -203Q953 -194 949 -180Q1036 -195 1204 -227Q1223 -231 1320 -273Q1408 -312 1437 -312Q1496 -312 1558.5 -263.5Q1621 -215 1654 -215Q1660 -215 1676 -218.5Q1692 -222 1699 -222Q1669 -274 1639 -326Q1601 -387 1557 -417Q1560 -420 1563.5 -425.5Q1567 -431 1570 -434Q1609 -403 1650 -346Q1678 -304 1707 -262Q1749 -209 1800 -130Q1822 -65 1822 55Q1822 106 1807 151Q1824 151 1830 157Q1841 146 1853 124Q1873 -105 1873 -159ZM1562 -184Q1537 -185 1537 -207Q1537 -220 1552 -233Q1546 -242 1512 -264Q1478 -286 1467 -286H1446Q1465 -197 1465 -139Q1465 -98 1406 23Q1347 144 1318 165Q1357 165 1366 155Q1388 121 1426 64Q1505 -51 1509 -57Q1552 -127 1562 -184ZM554 -959Q554 -1005 516 -1043Q478 -1081 424 -1081Q371 -1081 334 -1049Q294 -1015 294 -961Q294 -924 327 -878Q366 -826 414 -826Q476 -826 515 -868Q554 -910 554 -959ZM609 -759H590Q590 -754 594 -748Q584 -739 563.5 -734.5Q543 -730 536 -720Q557 -727 580 -735.5Q603 -744 609 -759ZM380 -787Q283 -794 205 -960Q244 -870 261 -844Q305 -775 360 -775Q372 -775 380 -787ZM1343 193H1313Q1313 195 1310.5 204.5Q1308 214 1308 217H1337ZM752 -139Q752 -143 709 -215Q681 -123 652 -30Q613 78 543 155Q567 167 577 167Q591 167 612 139Q637 93 677 18Q752 -116 752 -139ZM833 217Q833 199 827 194H814V217ZM793 201Q793 196 786 187Q774 199 774 213Q777 210 783.5 207Q790 204 793 201ZM563 217Q563 188 562 187Q554 190 544 217ZM534 193Q534 188 527 179Q515 191 515 205Q518 202 524.5 199Q531 196 534 193ZM452 -646Q452 -640 444 -623Q436 -606 436 -598H412Q412 -602 409 -614Q406 -626 406 -633Q406 -652 439 -674Q452 -661 452 -646ZM415 -449Q415 -440 412.5 -428Q410 -416 410 -415Q397 -415 391 -421L397 -454Q402 -449 415 -449Z"/>
</svg>