<svg xmlns="http://www.w3.org/2000/svg" viewBox="0 -2048 2048 2048">
	<path fill="currentColor" d="M2203 335L2177 336Q2173 219 2161 40Q2157 -26 2144 -158Q2103 -157 2049 -146Q2038 -138 2026 -112Q1848 -87 1517 -87Q1473 -87 1436 -71L1298 -106Q1320 -149 1403 -175H1400Q1304 -175 1256 -167Q1222 -88 1203 -34L1187 -38Q1189 -74 1204 -176Q1142 -207 943 -207Q904 -207 874 -197Q941 -192 1029 -192Q1045 -156 1075 -83H996Q968 -83 915 -95.5Q862 -108 834 -108Q754 -108 595.5 -101.5Q437 -95 357 -95Q243 -95 243 -140Q243 -193 267 -219Q285 -239 339 -261Q400 -286 716 -324Q637 -393 557 -462Q441 -565 424 -604Q414 -627 413 -648Q364 -598 328 -526Q290 -451 277 -434Q240 -385 190 -385Q154 -385 127 -412Q100 -439 100 -476Q100 -484 121 -554Q174 -732 190 -825Q195 -859 201 -893.5Q207 -928 225 -956Q243 -981 260 -1005Q279 -1034 279 -1062Q279 -1080 201 -1178L222 -1194Q249 -1162 295 -1093H473L539 -1193L561 -1179L496 -1080L554 -994Q643 -1038 732 -1082Q870 -1151 896 -1151Q945 -1151 945 -1094Q945 -1068 881 -1009Q835 -967 759 -920Q695 -880 630 -841Q731 -707 853 -659Q866 -654 872 -654Q884 -654 918 -665Q959 -678 966 -680Q1006 -689 1094 -689Q1104 -689 1409 -675Q1505 -671 1601 -666Q1713 -657 1789 -628Q2088 -515 2168 -170Q2170 -160 2181 -18Q2191 99 2203 335ZM2141 -181Q2080 -454 1835 -580Q1735 -632 1576 -645Q1441 -650 1306 -655Q1180 -662 1098 -662Q1018 -662 980 -655Q968 -653 924 -639Q890 -628 868 -628Q864 -628 843 -638Q829 -643 800 -655Q707 -697 608 -832Q593 -821 573 -809L561 -827Q663 -891 765 -955Q919 -1055 919 -1102Q919 -1127 891 -1127Q884 -1127 545 -961Q522 -996 476 -1067H305Q305 -1031 252 -946Q227 -905 220 -853Q210 -771 136 -515Q126 -480 126 -468Q126 -445 147 -428Q168 -411 192 -411Q235 -411 274 -476Q301 -527 328 -578Q418 -713 459 -713Q472 -713 472 -705Q472 -704 454 -686.5Q436 -669 436 -647Q436 -608 565 -489Q650 -414 735 -340L858 -567Q867 -560 870 -551Q846 -500 744 -302Q603 -289 544 -280Q433 -264 349 -236Q269 -209 269 -150Q269 -120 350 -120Q433 -120 599.5 -127Q766 -134 849 -134Q873 -134 920 -121Q967 -108 991 -108Q1018 -108 1037 -109L1009 -170H403Q389 -170 355 -132Q346 -138 346 -146Q346 -158 370.5 -177Q395 -196 407 -196H780Q771 -196 876 -223Q911 -232 977 -232Q1165 -232 1216 -199Q1232 -188 1231 -174Q1251 -201 1347 -201Q1412 -201 1543 -191Q1674 -181 1739 -181Q1812 -181 1845 -198V-213Q1797 -247 1700 -313Q1567 -402 1567 -472Q1567 -499 1591.5 -524.5Q1616 -550 1643 -557Q1663 -562 1693 -562Q1756 -562 1885 -507L1868 -492Q1825 -507 1782 -522Q1729 -540 1695 -540Q1663 -540 1629 -523Q1589 -502 1589 -474Q1589 -415 1707 -333Q1791 -276 1875 -218V-193Q1843 -158 1738 -158Q1651 -158 1574 -167Q1505 -175 1502 -175Q1479 -175 1419 -154Q1359 -133 1343 -119Q1413 -100 1436 -100Q1437 -100 1475 -109Q1492 -113 1559 -113Q1850 -113 2007 -137L2027 -159L1831 -419Q1837 -428 1849 -427Q1897 -371 2047 -173Q2088 -174 2141 -181ZM316 -808Q316 -771 282 -771Q247 -771 247 -808Q247 -845 282 -845Q316 -845 316 -808ZM294 -806Q294 -819 284 -819Q273 -819 273 -806Q273 -799 278 -793H285Q294 -801 294 -806Z"/>
</svg>