<svg xmlns="http://www.w3.org/2000/svg" viewBox="0 -2048 2048 2048">
	<path fill="currentColor" d="M1697 -1405Q1697 -1343 1668 -1306Q1627 -1279 1532 -1183Q1514 -1160 1502 -1095Q1494 -1043 1486 -991Q1454 -838 1384 -642Q1356 -562 1309 -465Q1270 -383 1155 -180Q1033 35 1022 35H1006Q967 35 943 -23Q925 -68 925 -115Q925 -175 954.5 -274Q984 -373 984 -389Q984 -402 982 -407Q976 -431 959 -441Q918 -464 906 -464Q888 -464 876 -452Q857 -421 816 -357Q816 -357 754 -385Q757 -401 767 -434Q775 -462 775 -469Q775 -483 744.5 -522.5Q714 -562 701 -569Q676 -582 612 -594Q647 -715 733 -845Q833 -996 964 -1094Q1088 -1188 1249 -1226Q1349 -1250 1397 -1325Q1426 -1386 1455 -1448Q1488 -1509 1560 -1509Q1608 -1509 1649 -1483Q1697 -1452 1697 -1405ZM1788 -949Q1753 -892 1718 -836Q1679 -770 1655 -707Q1644 -678 1609 -471Q1591 -326 1534 -48Q1511 33 1393 109Q1226 217 1194 248Q1182 260 1138 366H738Q737 284 674 232Q606 189 476 103Q432 73 389.5 12.5Q347 -48 337 -96Q311 -281 285 -466Q243 -717 139 -878Q123 -903 100 -949L124 -973Q148 -959 224 -887Q304 -812 331 -714Q344 -639 358 -564Q371 -508 425 -258Q431 -215 449 -141Q505 6 784 66Q825 70 897 85Q912 103 944 137Q960 116 1002 85Q1111 61 1220 37Q1376 -11 1433 -135Q1443 -192 1468 -306Q1514 -497 1560 -688Q1633 -910 1770 -968ZM1676 -1407Q1676 -1436 1637.5 -1462Q1599 -1488 1568 -1488Q1504 -1488 1470.5 -1424.5Q1437 -1361 1406 -1299Q1373 -1252 1323 -1230Q1277 -1213 1232 -1196Q1149 -1160 1012 -1094Q806 -978 636 -610Q661 -607 701 -596Q744 -571 763 -545Q802 -492 802 -475Q802 -488 781 -401Q793 -389 806 -389Q821 -421 860 -473Q881 -491 906 -491Q934 -491 975 -462Q1011 -437 1011 -400Q1011 -390 979 -269.5Q947 -149 947 -110Q947 -72 963 -37Q982 6 1015 8Q1344 -487 1448 -932Q1470 -1050 1500 -1189Q1513 -1218 1601 -1282Q1676 -1336 1676 -1407ZM1755 -935Q1635 -848 1582 -671Q1547 -516 1511 -360Q1488 -258 1464 -156Q1425 -35 1329 18Q1273 49 1160 75Q1089 90 1018 106Q985 116 975 149Q961 199 963 274V345H1128Q1146 238 1291 151Q1457 52 1494 -20Q1507 -42 1523 -85Q1556 -303 1639 -734Q1645 -760 1716 -867Q1727 -891 1755 -935ZM935 345V315Q937 248 923 155Q918 122 891 112Q838 101 746 82Q462 18 423 -146Q414 -189 398 -269Q389 -309 376 -371Q354 -490 301 -724Q289 -771 237.5 -836.5Q186 -902 138 -929Q259 -748 275 -632Q294 -495 313 -358Q336 -203 364 -91Q390 14 486 85Q571 138 655 190Q745 254 760 345Z"/>
</svg>