<svg xmlns="http://www.w3.org/2000/svg" viewBox="0 -2048 2048 2048">
	<path fill="currentColor" d="M1892 -1212Q1892 -1216 1819 -1096Q1742 -971 1729 -881Q1706 -701 1649 -343Q1646 -328 1601 -240Q1576 -191 1563 -172Q1536 -130 1502 -108Q1430 -63 1359 -19Q1242 59 1242 89Q1242 71 1287 298H705L750 94Q730 40 636 -20Q563 -64 490 -108Q385 -183 347 -323Q322 -519 247 -937Q235 -989 100 -1209Q100 -1219 123 -1242Q184 -1207 252.5 -1124.5Q321 -1042 333 -984L470 -355Q473 -341 490 -315Q546 -227 651 -191Q699 -174 798 -147Q800 -151 805 -160Q837 -423 837 -562Q837 -627 820 -722Q809 -781 730 -798V-863H823Q827 -867 827 -876Q827 -903 795 -937.5Q763 -972 730 -982V-1049Q776 -1038 828 -1046Q825 -1132 730 -1162V-1227H823Q827 -1231 827 -1237Q827 -1253 815 -1290Q807 -1316 777 -1331Q734 -1353 730 -1357V-1411H897Q900 -1428 900 -1451Q900 -1474 897 -1493H1108V-1412H1261L1267 -1405V-1356Q1236 -1334 1205 -1312Q1163 -1277 1159 -1245V-1227H1261Q1264 -1211 1272 -1178Q1242 -1160 1212 -1142Q1159 -1107 1159 -1072V-1043H1261Q1267 -1032 1267 -1012Q1267 -988 1223 -961Q1174 -930 1159 -881V-863H1267V-793Q1155 -781 1155 -600Q1155 -499 1197 -161Q1198 -157 1204 -147Q1269 -165 1335 -183Q1419 -215 1481 -289Q1513 -327 1527 -380Q1536 -426 1545 -472L1619 -805Q1632 -878 1668 -1021Q1682 -1063 1752 -1140.5Q1822 -1218 1869 -1237Q1892 -1226 1892 -1212ZM1082 -1412V-1472H925V-1412ZM1247 -1367Q1241 -1373 1241 -1390H751V-1371Q844 -1337 853 -1228H1133Q1129 -1257 1172 -1311Q1215 -1365 1247 -1367ZM1247 -1194Q1242 -1199 1240 -1206H751V-1177Q830 -1158 853 -1043H1133Q1135 -1083 1169.5 -1129.5Q1204 -1176 1240 -1183Q1245 -1187 1247 -1194ZM1861 -1206Q1817 -1186 1751 -1098Q1689 -1016 1678 -974Q1677 -970 1581 -524Q1568 -456 1537 -334Q1520 -283 1459.5 -231.5Q1399 -180 1346 -165Q1287 -146 1182 -117Q1142 -112 1069 -94Q1030 -78 1023 -47Q1009 17 1012 102V155H1190Q1193 86 1253 30Q1286 0 1390 -65Q1489 -126 1536 -173Q1549 -186 1596 -281Q1610 -308 1629 -359Q1647 -438 1670 -640Q1691 -821 1721 -925Q1767 -1082 1861 -1206ZM1247 -1004Q1242 -1009 1240 -1017H751V-998Q796 -988 826 -943Q850 -905 853 -864H1133Q1129 -893 1169.5 -944Q1210 -995 1247 -1004ZM1246 -813Q1246 -816 1243.5 -825Q1241 -834 1241 -837H751V-813Q863 -785 863 -572L833 -138Q870 -136 941 -119Q962 -99 1004 -65Q1045 -118 1092 -128Q1133 -136 1175 -143V-165Q1175 -172 1169 -200Q1162 -232 1161 -242Q1134 -496 1134 -590Q1134 -691 1141 -716Q1161 -789 1246 -813ZM985 155V111Q988 12 973 -53Q966 -82 933 -94Q892 -109 789 -124Q690 -138 596 -188Q475 -252 449 -340Q421 -436 391 -584Q345 -813 342 -826Q332 -876 322 -927Q307 -997 287 -1031Q215 -1154 131 -1206Q261 -1023 282 -891Q314 -661 362 -354Q388 -228 480 -142Q530 -95 597 -58Q699 -3 700 -2Q786 53 802 155ZM1262 272L1224 119Q1213 161 1202 175Q1177 174 1127 177Q1101 179 1075 181H785Q779 166 768 135L735 272Z"/>
</svg>