<svg xmlns="http://www.w3.org/2000/svg" viewBox="0 -2048 2048 2048">
	<path fill="currentColor" d="M2311 -188Q2311 -155 2211 -77Q2119 -5 2076 9Q2055 16 2031 16Q2010 16 1981 9Q1952 2 1882 -27Q1818 -54 1812 -54Q1814 -54 1750.5 -13Q1687 28 1640 28Q1633 28 1513 -4Q1393 -36 1386 -36Q1335 -36 1309 7Q1295 29 1277 97H1134Q1131 69 1113 15Q1101 -8 1042 -36L809 34Q767 22 663 -16Q574 -48 567 -48Q554 -48 478.5 -22Q403 4 354 4Q288 4 237 -14.5Q186 -33 143 -79.5Q100 -126 100 -162Q100 -169 103.5 -184.5Q107 -200 107 -205Q135 -191 237 -123Q296 -83 354 -83Q391 -83 466.5 -115Q542 -147 573 -147Q580 -147 691 -115Q802 -83 809 -83Q867 -83 1028 -145Q905 -236 905 -369Q905 -485 994 -566Q1080 -643 1194 -643Q1260 -643 1344 -600Q1441 -550 1474 -478Q1494 -435 1494 -372Q1494 -309 1470 -262Q1448 -219 1378 -139Q1539 -77 1602 -77Q1621 -77 1705 -112Q1789 -147 1818 -147Q1825 -147 1934.5 -115Q2044 -83 2051 -83Q2087 -83 2171 -137Q2225 -171 2278 -205H2305Q2305 -203 2308 -199.5Q2311 -196 2311 -188ZM2252 -152Q2209 -125 2126 -78Q2100 -65 2034 -58Q2029 -57 1990 -21Q2018 -7 2031 -7Q2066 -7 2155 -73Q2218 -119 2252 -152ZM1996 -69Q1833 -118 1815 -118Q1771 -118 1624 -51Q1602 -41 1588 -9Q1597 -9 1618.5 -2.5Q1640 4 1646 4Q1664 4 1727 -33Q1768 -58 1810 -83L1952 -31Q1968 -39 1996 -69ZM1471 -360Q1471 -457 1387 -535.5Q1303 -614 1191 -614Q1094 -614 1017 -548Q934 -477 934 -369Q934 -279 1002 -202Q1074 -120 1174 -120Q1190 -120 1205 -122Q1207 -121 1205 -116Q1203 -112 1211 -112Q1306 -112 1388.5 -188Q1471 -264 1471 -360ZM1582 -52Q1387 -112 1363 -112Q1220 -112 1221 43V68H1260Q1260 55 1264 49Q1270 2 1279 -8Q1331 -66 1378 -66Q1385 -66 1461 -45.5Q1537 -25 1544 -25Q1557 -25 1582 -52ZM1218 -83Q1205 -85 1162 -93L1207 -48Q1207 -54 1215 -70Q1221 -83 1218 -83ZM1185 67V12Q1185 -45 1140 -80Q1097 -112 1036 -112Q1003 -112 841 -64Q852 -42 878 -19Q1019 -66 1033 -66Q1062 -66 1105 -31Q1151 7 1151 43Q1151 56 1145 67ZM847 -9Q826 -47 810 -52Q619 -118 593 -118Q555 -118 496 -97Q459 -83 421 -69Q448 -42 453 -42Q457 -42 508.5 -56.5Q560 -71 567 -71Q607 -71 693.5 -33.5Q780 4 806 4Q821 4 847 -9ZM420 -26Q420 -36 417 -47Q414 -58 414 -59Q390 -59 372.5 -56.5Q355 -54 351 -54Q276 -54 157 -150Q156 -151 146 -159Q136 -167 132 -167Q129 -166 129 -162Q129 -97 228 -53Q306 -19 368 -19Q375 -19 393 -22.5Q411 -26 420 -26Z"/>
</svg>