<svg xmlns="http://www.w3.org/2000/svg" viewBox="0 -2048 2048 2048">
	<path fill="currentColor" d="M2012 107Q2012 121 1979 173Q1947 185 1911 185Q1839 185 1771 158Q1714 136 1450 -11Q1223 -137 1086 -172Q1006 -194 823 -240Q720 -265 511 -313Q403 -335 218 -376Q170 -388 135 -423.5Q100 -459 100 -499Q100 -517 120 -556Q143 -602 169 -602H1842Q1872 -602 1935 -581Q2012 -555 2012 -525ZM1987 107V-530Q1975 -555 1912 -570Q1865 -582 1827 -582H167Q125 -530 125 -501Q125 -449 153 -432Q190 -410 253 -395Q304 -384 354 -373Q439 -354 576 -323Q701 -291 904 -240Q1180 -174 1322 -106Q1484 -16 1736 118Q1833 165 1914 165Q1946 165 1961 153Q1987 132 1987 107Z"/>
</svg>