<svg xmlns="http://www.w3.org/2000/svg" viewBox="0 -2048 2048 2048">
	<path fill="currentColor" d="M2031 -585Q2031 -560 2002 -544Q1980 -532 1964 -532Q1929 -532 1543 -691L532 -1110Q523 -1101 523 -1096Q523 -1096 601 -996Q573 -969 523 -907Q580 -851 612 -813Q588 -783 528 -723Q546 -696 606 -624L528 -523L612 -423Q588 -394 534 -329Q562 -294 612 -234L523 -139Q560 -93 606 -45L523 50Q555 98 584 156L569 169Q495 58 495 50Q495 49 573 -45L489 -134Q503 -151 531 -184Q559 -217 573 -234Q547 -267 500 -329Q518 -351 578 -423L495 -523Q520 -557 573 -624Q495 -718 495 -724Q495 -730 578 -813L489 -901Q497 -913 534 -957Q562 -991 562 -999Q562 -995 491 -1090Q488 -1101 501 -1114Q501 -1119 491 -1125Q421 -1160 400 -1160Q398 -1160 361 -1124Q406 -1079 456 -1019L361 -902Q439 -808 439 -804Q439 -796 361 -702L445 -624L361 -507Q434 -399 434 -395Q434 -387 372 -323Q387 -303 450 -240Q416 -188 361 -134Q393 -104 450 -45Q449 -44 395 15Q361 53 361 61Q361 66 417 156Q404 169 390 169Q368 125 328 55L411 -39Q399 -57 328 -128Q342 -145 372.5 -181Q403 -217 417 -234Q374 -279 333 -312Q377 -367 406 -396Q333 -506 333 -507Q333 -505 411 -618Q368 -664 328 -695Q353 -732 411 -802Q383 -835 333 -902L423 -1018L328 -1124Q332 -1128 345 -1144Q358 -1160 367 -1169Q319 -1205 289 -1205Q280 -1205 245.5 -1169Q211 -1133 211 -1124Q211 -1118 250 -1069Q289 -1020 289 -1013Q289 -1005 258 -970Q220 -927 211 -913Q225 -896 255.5 -860Q286 -824 300 -807Q246 -755 217 -718L289 -629Q287 -627 242 -576Q211 -542 211 -534Q211 -529 289 -429Q253 -385 200 -340L283 -245Q271 -226 238 -187Q211 -155 211 -151Q211 -144 243 -109Q288 -58 295 -50Q287 -41 240 7Q206 42 206 50Q206 45 256 145Q253 148 246 151.5Q239 155 236 158Q172 46 172 41Q172 35 206 2Q247 -39 256 -50Q222 -95 172 -145L250 -240L167 -340Q220 -393 256 -424Q220 -478 172 -534Q200 -565 256 -629Q233 -663 178 -718Q207 -755 261 -807Q230 -843 172 -913Q174 -915 224 -970Q256 -1005 256 -1013Q256 -1015 178 -1124L256 -1213Q250 -1218 159 -1263Q100 -1292 100 -1330Q100 -1353 119.5 -1376.5Q139 -1400 161 -1400Q172 -1400 543 -1247Q1027 -1056 1990 -652Q2002 -647 2016.5 -621.5Q2031 -596 2031 -585ZM2003 -593Q2003 -618 1973 -630Q1411 -862 488 -1240Q161 -1372 164 -1372Q149 -1372 135.5 -1355Q122 -1338 122 -1327Q122 -1301 218 -1262L1593 -702Q1945 -560 1958 -560Q2003 -560 2003 -593Z"/>
</svg>