<svg xmlns="http://www.w3.org/2000/svg" viewBox="0 -2048 2048 2048">
	<path fill="#000000" d="M1702 -526H945L917 -132Q991 -159 1019 -159Q1141 -159 1141 -37Q1141 11 1101 77Q1067 129 1033 181Q1018 205 1008.5 263Q999 321 983 346Q953 395 905 395Q874 395 840 368Q810 343 796 312Q786 290 782 254Q776 200 775 195Q772 182 718 102Q668 29 668 -34Q668 -165 800 -165Q812 -165 890 -132L870 -521L100 -529Q107 -542 109 -556Q125 -665 236 -779Q352 -898 458 -898H842L822 -1322H335L106 -1112V-1543H1697V-1132L1682 -1118L1466 -1322H993L964 -898H1686L1702 -874H966L943 -549H1686ZM1670 -1162V-1517H130V-1168L329 -1348H1471ZM970 -1322H842L905 -303ZM865 -550L845 -872H455Q361 -872 245.5 -760.5Q130 -649 130 -556V-550ZM1115 -37Q1115 -136 1019 -136Q995 -136 917 -108V366H918Q969 339 984 277Q1006 184 1015 168Q1047 119 1078 71Q1115 10 1115 -37ZM890 369V-108L824 -142L790 -143Q691 -146 691 -32Q691 25 785 161Q799 181 804 233Q809 288 820 309Q827 322 852.5 345.5Q878 369 890 369Z"/>
</svg>