<svg xmlns="http://www.w3.org/2000/svg" viewBox="0 -2048 2048 2048">
	<path fill="#000000" d="M1956 -547Q1956 -514 1815 -490Q1709 -473 1642 -473L1030 -516L1004 -203Q1029 -204 1065 -214.5Q1101 -225 1115 -225Q1166 -225 1201 -179Q1232 -139 1232 -95Q1232 -61 1219 -30Q1187 19 1122 134Q1106 185 1071 287Q1066 300 1035 323Q1001 347 980 347Q964 347 934 326.5Q904 306 895 287Q882 258 844 123Q829 99 800 49Q750 -39 750 -92Q750 -152 788.5 -191Q827 -230 883 -230Q910 -230 974 -198Q974 -291 963 -500Q912 -494 789 -478Q682 -463 676 -463Q671 -463 625 -468Q579 -473 562 -474Q508 -476 435 -567Q362 -658 325 -658Q320 -658 287.5 -653Q255 -648 248 -648Q206 -648 161 -666Q100 -691 100 -732Q100 -768 152 -804Q194 -833 222 -837Q216 -846 157 -898Q105 -943 105 -960Q105 -982 129 -992L293 -859Q294 -860 372 -944Q422 -997 430 -997Q438 -997 457 -985Q458 -976 465 -960L364 -847Q434 -808 508 -714Q565 -642 608 -642Q590 -642 942 -728Q946 -731 946 -746L910 -1408H767V-1507H1231V-1410H1083L1041 -726Q1137 -705 1188 -683Q1265 -650 1342 -617Q1446 -577 1509 -579L1939 -574Q1956 -566 1956 -547ZM1205 -1437V-1483H793V-1437ZM1056 -1409H931L968 -728H1014ZM1925 -545L1536 -553Q1420 -561 1242 -633Q1073 -701 975 -701Q905 -701 770.5 -658.5Q636 -616 602 -616Q552 -616 468.5 -719Q385 -822 322 -822Q254 -822 240 -819Q195 -811 149 -769Q126 -748 126 -730Q126 -701 175 -683Q213 -669 245 -669Q251 -669 288.5 -677Q326 -685 332 -685Q366 -685 429 -608Q499 -521 535 -506Q576 -489 671 -489Q726 -489 1007 -533Q1065 -542 1057 -542L1634 -494Q1704 -494 1802.5 -511Q1901 -528 1925 -545ZM999 -503L990 -510Q990 -491 991 -450Q991 -408 991 -389Q1000 -441 999 -503ZM438 -963L427 -966Q402 -942 333 -855Q370 -890 438 -963ZM265 -848L193 -909L188 -902L260 -841ZM191 -912L161 -935L157 -928L186 -905ZM1205 -95Q1205 -137 1180.5 -167.5Q1156 -198 1115 -198Q1099 -198 1005 -171V315Q1046 294 1061 246Q1070 205 1080 165Q1091 132 1153 32Q1205 -52 1205 -95ZM977 319V-165Q953 -179 929 -193Q911 -203 877 -203Q777 -203 777 -92Q777 -42 798 -1Q827 46 855 92Q869 115 895 234Q899 253 927 285Q958 322 977 319ZM300 -776Q288 -764 274 -764Q266 -764 258 -770Q250 -776 248 -776Q257 -789 271 -812Q276 -807 300 -795Z"/>
</svg>