<svg xmlns="http://www.w3.org/2000/svg" viewBox="23 -1643 2075.1 2080.1">
	<path fill="currentColor" d="M2021 -530Q2021 -514 1986 -492Q1959 -476 1943 -471Q1825 -435 1751 -424Q1686 -417 1620 -409Q1615 -406 1615 -401L1654 -299Q1643 -260 1625 -246Q1621 -243 1576 -230Q1610 -48 1610 11Q1610 70 1587 191Q1554 360 1505 360Q1473 360 1441 284Q1417 227 1413 198Q1401 99 1401 19Q1401 -73 1402 -88Q1412 -142 1423 -209V-230Q1425 -228 1404 -228Q1383 -228 1369 -253Q1357 -274 1357 -296Q1357 -317 1401 -405L1152 -437L1148 -433L1225 -280Q1219 -262 1198.5 -245Q1178 -228 1168 -228Q1158 -228 1147 -239Q1146 -228 1146 -214Q1146 -180 1158 -94.5Q1170 -9 1170 30Q1170 87 1147 196Q1122 310 1102 331Q1082 352 1057 359Q984 245 962 16L1001 -240Q993 -240 981 -236.5Q969 -233 962 -233Q921 -233 918 -275L990 -475Q990 -475 910 -475Q871 -475 808 -454Q808 -446 812.5 -427.5Q817 -409 817 -401Q817 -389 802 -368.5Q787 -348 769 -344Q775 -327 775 -307Q775 -218 703 -229Q709 -207 718 -165Q731 -58 731 11Q731 95 715 193Q688 360 630 360Q584 360 546 195Q517 67 517 11Q517 -68 556 -229Q491 -244 467 -300Q445 -349 402 -349Q392 -349 365 -318.5Q338 -288 303 -288Q281 -288 257 -303Q230 -319 228 -340Q227 -350 235 -398Q218 -410 184 -451Q100 -458 100 -524Q100 -562 134 -587Q162 -607 188 -607Q196 -607 199.5 -604Q203 -601 205 -601Q209 -611 237 -637Q221 -685 221 -686Q221 -708 244 -731.5Q267 -755 289 -755Q313 -755 339 -737Q370 -716 378 -683H432Q441 -702 469 -741Q483 -755 498 -755Q506 -755 506 -763Q506 -769 496.5 -782.5Q487 -796 485.5 -802Q484 -808 484 -829Q484 -940 589 -1057Q694 -1174 816 -1192Q855 -1194 894 -1196Q942 -1199 946 -1212L726 -1394L833 -1496L1013 -1276Q1015 -1308 984 -1566H1131L1110 -1280Q1112 -1276 1117 -1276L1310 -1490L1412 -1394L1192 -1203Q1323 -1206 1444 -1134Q1586 -1049 1627 -901Q1648 -825 1648 -821Q1648 -796 1625 -770Q1602 -744 1579 -744Q1573 -744 1567 -746.5Q1561 -749 1555 -748Q1568 -713 1598 -646Q1707 -635 1915 -591Q2021 -556 2021 -530ZM1374 -1394Q1328 -1440 1310 -1452L1143 -1263Q1153 -1250 1173 -1227ZM1104 -1539H1012L1045 -1283Q1074 -1283 1075 -1282ZM1621 -832Q1621 -939 1499 -1056Q1371 -1178 1239 -1178Q1203 -1178 1198 -1172Q1187 -1143 1176 -1113Q1251 -1104 1329 -1028Q1407 -952 1407 -881Q1407 -874 1393 -837Q1379 -800 1379 -793Q1379 -786 1391.5 -773Q1404 -760 1418 -760Q1419 -760 1502 -843Q1560 -771 1585 -771Q1621 -771 1621 -832ZM1565 -649Q1550 -693 1534 -738Q1514 -791 1496 -804Q1466 -736 1440 -649ZM984 -1268L827 -1458L764 -1394L960 -1238Q963 -1243 972 -1253Q981 -1263 984 -1268ZM1165 -1158Q1165 -1191 1133 -1225.5Q1101 -1260 1061 -1260Q1016 -1260 986 -1229.5Q956 -1199 956 -1158Q956 -1106 993 -1074Q1027 -1046 1077 -1046Q1104 -1046 1134.5 -1084.5Q1165 -1123 1165 -1158ZM1436 -737Q1414 -733 1383 -752Q1352 -771 1352 -796Q1352 -801 1365.5 -839.5Q1379 -878 1379 -884Q1379 -937 1310.5 -1006.5Q1242 -1076 1172 -1089Q1155 -1054 1121 -1033Q1137 -982 1178 -883Q1180 -879 1200 -850Q1214 -828 1214 -821Q1214 -815 1192 -784Q1168 -749 1154 -749Q1148 -749 1137 -753Q1130 -756 1127 -753Q1137 -723 1147 -693Q1162 -652 1183 -629Q1258 -635 1405 -647Q1413 -659 1436 -737ZM1988 -533Q1852 -623 1470 -623Q1320 -623 1162 -594Q1087 -577 940 -550Q948 -546 962 -537V-517Q951 -510 937 -498Q1001 -490 1189 -454Q1310 -431 1492 -431Q1888 -431 1988 -533ZM1187 -824Q1121 -918 1098 -1023H1034Q1043 -974 988 -885Q940 -807 940 -807Q940 -777 967 -777Q976 -777 1068 -854Q1071 -845 1103 -813.5Q1135 -782 1149 -782Q1160 -782 1187 -824ZM1626 -300L1587 -404H1430Q1379 -312 1379 -288Q1379 -257 1405 -255Q1490 -354 1508 -354Q1512 -354 1532.5 -307.5Q1553 -261 1588 -261Q1631 -261 1626 -300ZM1154 -619Q1132 -675 1111 -732Q1084 -798 1063 -815Q1026 -713 968 -586ZM939 -1113Q936 -1137 928 -1177H877Q839 -1177 758.5 -1142.5Q678 -1108 650 -1081Q559 -995 532 -912Q506 -833 506 -818Q506 -771 539 -771Q564 -771 590 -799Q608 -821 625 -843H639Q681 -760 715 -760Q748 -760 748 -796Q748 -803 737 -837.5Q726 -872 726 -878Q726 -957 782.5 -1021Q839 -1085 939 -1113ZM1010 -765Q978 -749 967 -749Q951 -749 933 -764Q912 -782 912 -807Q912 -808 959.5 -898Q1007 -988 1005 -1034Q965 -1053 955 -1084H932Q932 -1084 898 -1069Q836 -1042 794.5 -991Q753 -940 753 -887Q753 -880 764 -842.5Q775 -805 775 -799Q775 -780 760 -760Q741 -733 709 -733Q701 -733 695.5 -735Q690 -737 688 -737Q695 -721 706 -694Q712 -700 731 -700Q803 -700 803 -622Q803 -606 798 -591Q909 -574 901 -574Q934 -574 975 -665Q1007 -738 1010 -765ZM1582 0Q1582 -232 1502 -321Q1423 -208 1423 8Q1423 91 1437 179Q1456 294 1490 326H1510Q1582 203 1582 0ZM1198 -283Q1198 -302 1109 -445Q1098 -448 1018 -464L945 -275Q945 -270 952 -261H982Q1009 -300 1069 -371Q1131 -286 1173 -255Q1198 -280 1198 -283ZM775 -602V-632Q775 -646 760.5 -659Q746 -672 729 -672Q702 -672 671 -630Q709 -620 775 -602ZM676 -689Q676 -707 630 -799Q583 -705 583 -694Q583 -663 642 -640Q676 -691 676 -689ZM560 -667V-687Q558 -698 553 -715Q538 -733 514 -733Q481 -733 462 -691Q497 -679 560 -667ZM792 -406Q792 -433 773 -442L687 -407Q718 -360 740 -360Q750 -360 769 -374Q792 -390 792 -406ZM910 -527Q842 -547 691 -597Q497 -661 438 -661Q347 -661 284 -633Q199 -595 199 -516Q199 -439 293 -400Q362 -371 454 -371Q526 -371 693 -438Q802 -483 910 -527ZM1143 14Q1143 -127 1108 -275Q1106 -284 1063 -327Q1034 -294 1011 -180Q989 -73 989 11Q989 86 1014 190Q1040 299 1069 327Q1103 293 1125 179Q1143 86 1143 14ZM747 -279V-337Q745 -337 742 -334.5Q739 -332 731 -332Q711 -332 658 -398Q637 -389 600 -375Q600 -373 604 -356Q606 -343 603 -337Q614 -362 628 -360Q648 -334 667 -308Q704 -261 718 -261H735Q738 -267 747 -279ZM346 -679Q345 -696 323.5 -714.5Q302 -733 289 -733Q271 -733 258 -709Q248 -691 248 -681Q248 -674 251.5 -663.5Q255 -653 255 -651Q280 -666 346 -679ZM577 -345V-365Q550 -356 479 -342Q493 -299 520 -299Q578 -323 577 -345ZM572 -287Q564 -284 544.5 -278Q525 -272 517 -269Q519 -269 525 -265Q531 -261 539 -261Q546 -261 572 -287ZM193 -578H169Q127 -579 127 -521Q127 -470 176 -476Q172 -526 193 -578ZM358 -352Q304 -361 261 -387Q253 -362 254 -338Q299 -310 309 -310Q331 -310 358 -352ZM704 25Q704 -164 680 -242Q678 -249 624 -321Q594 -260 567 -166Q539 -67 539 -11Q539 1 562 182Q569 206 579 242Q583 262 623 326H642Q704 244 704 25ZM851 -514Q552 -398 427 -398Q237 -398 237 -521Q237 -566 260 -582Q276 -593 426 -621Q437 -623 462 -623Q512 -623 641 -586Q704 -568 851 -534ZM789 -522Q481 -601 462 -601Q413 -601 345 -581Q259 -555 259 -519Q259 -425 427 -425Q497 -425 620 -464Q704 -493 789 -522Z"/>
</svg>