<svg xmlns="http://www.w3.org/2000/svg" viewBox="27.1 -1562.9 1968.8 1968.8">
	<path fill="currentColor" d="M1923 -649Q1923 -600 1910 -575Q1901 -558 1865 -532.5Q1829 -507 1810 -507H1047Q1039 -405 1021 -208Q1026 -207 1032 -207Q1048 -207 1084 -218.5Q1120 -230 1131 -230Q1177 -230 1216 -184Q1251 -142 1251 -105Q1251 -61 1158 87Q1134 125 1113 186Q1095 238 1077 289Q1072 303 1042 318Q1012 333 998 333Q977 333 948 309.5Q919 286 909 263Q893 208 858 102Q857 98 820 40Q772 -36 772 -100Q772 -155 810 -195Q848 -235 902 -235Q913 -235 992 -204Q994 -243 989 -342Q984 -456 984 -500V-503L232 -506Q100 -539 100 -652Q100 -701 139 -744Q178 -787 217 -787H955L929 -1395H788V-1490H1245V-1398H1104L1058 -787H1805Q1823 -787 1866 -754.5Q1909 -722 1916 -702.5Q1923 -683 1923 -649ZM1219 -1424V-1469H814V-1424ZM1897 -644Q1897 -694 1863 -730Q1829 -766 1774 -766H1059L1043 -533H1800Q1839 -533 1868 -566.5Q1897 -600 1897 -644ZM1073 -1396H955L1009 -412ZM969 -533Q969 -600 963 -681Q958 -743 961 -766H249Q204 -766 163 -734Q120 -699 120 -652Q120 -635 127 -612Q131 -597 159 -567Q189 -533 207 -533ZM1225 -105Q1225 -141 1197 -172.5Q1169 -204 1129 -204Q1103 -204 1023 -177V301Q1058 294 1076 241Q1086 200 1096 159Q1107 121 1170 27Q1225 -55 1225 -105ZM995 306V-172Q925 -209 899 -209Q798 -209 798 -100Q798 -50 825 -3.5Q852 43 879 91Q888 111 919 232Q924 250 952.5 277Q981 304 995 306Z"/>
</svg>