<svg xmlns="http://www.w3.org/2000/svg" viewBox="0 -2048 2048 2048">
	<path fill="currentColor" d="M1352 -967H937V-1154H1352ZM515 -966H100V-1154H515ZM1286 -1466H837L736 -190Q760 -201 784 -213Q815 -227 834 -227Q924 -227 950 -181Q980 -129 980 -85Q980 -39 948 29Q924 64 877 135Q866 152 856 233Q848 301 799 341Q759 374 724 374Q717 374 713 368H710Q696 368 671.5 350Q647 332 639 318Q623 290 613.5 230.5Q604 171 592 146Q591 144 567 119Q529 80 498.5 11.5Q468 -57 468 -109Q468 -152 508.5 -186.5Q549 -221 593 -221Q602 -221 710 -190L623 -1464H167V-1566H1286ZM1263 -1492V-1540H192V-1492ZM1326 -992V-1128H962V-992ZM811 -1465H646L725 -340ZM490 -992V-1128H125V-992ZM957 -85Q957 -128 929 -169Q907 -201 839 -201Q823 -201 736 -164V348L740 350Q809 314 823 273Q830 235 844 160Q850 130 900 67Q914 50 935.5 -7.5Q957 -65 957 -85ZM709 341V-167Q624 -198 595 -198Q598 -198 566 -190Q492 -172 492 -62Q492 -34 555 64Q570 82 600 119Q619 143 628 190Q641 259 648 278Q666 322 709 341Z"/>
</svg>