<svg xmlns="http://www.w3.org/2000/svg" viewBox="0 -2048 2048 2048">
	<path fill="#000000" d="M958 -758Q944 -740 921 -700Q903 -660 843.5 -603Q784 -546 741 -525Q670 -490 605 -487Q628 -425 647 -204Q664 -13 664 93Q664 105 659 126Q653 151 652 160Q645 236 616 302Q577 392 519 392Q443 392 404 224Q378 109 378 -9Q378 -26 384 -55Q391 -90 392 -101Q416 -327 443 -484Q393 -495 298 -531Q256 -554 196 -613Q136 -672 115 -713Q110 -724 100 -738Q99 -750 108 -758H480Q476 -773 462 -808Q443 -816 421 -816Q393 -816 340 -798Q287 -780 259 -780Q201 -780 164 -820.5Q127 -861 128 -919Q121 -931 121 -940Q121 -960 143 -976Q158 -983 187 -1001Q247 -1047 300 -1092Q303 -1095 341 -1153Q255 -1201 221 -1242Q175 -1297 175 -1382Q175 -1466 250 -1559Q274 -1537 274 -1523Q274 -1502 262 -1461.5Q250 -1421 250 -1400Q250 -1333 296 -1290Q321 -1267 401 -1226Q420 -1237 463 -1247L554 -1229Q587 -1247 625 -1287Q667 -1330 676 -1362Q685 -1394 693 -1552Q754 -1526 754 -1399Q754 -1270 675 -1205L755 -1201Q743 -1176 731 -1135Q737 -1129 813 -1090L824 -1066L726 -758ZM383 -1209Q227 -1279 227 -1400Q227 -1400 251 -1521L250 -1526Q232 -1505 215 -1457Q198 -1409 198 -1381Q198 -1240 354 -1173ZM800 -1063L797 -1071L798 -1072Q773 -1087 722 -1115Q691 -1098 621 -1079L619 -1086L612 -1085Q626 -1105 672 -1114Q707 -1121 722 -1178H667Q640 -1157 582 -1120L567 -1133L602 -1158H601Q588 -1158 588 -1168Q588 -1178 629 -1200Q731 -1255 731 -1397Q731 -1457 711 -1503Q702 -1368 680 -1323Q654 -1271 549 -1197Q539 -1181 515 -1150L510 -1176Q517 -1200 528 -1211Q465 -1224 463 -1224Q421 -1224 382 -1172Q354 -1130 326 -1087Q304 -1072 260 -1040Q229 -1012 163 -961Q147 -951 147 -938Q147 -908 185.5 -877Q224 -846 255 -845Q263 -845 277 -846Q291 -847 298 -847Q316 -847 332 -845Q332 -833 322 -825L309 -826Q298 -827 280 -825Q258 -822 250 -822Q206 -822 161 -868Q200 -803 259 -803Q288 -803 342 -822.5Q396 -842 424 -842Q463 -842 480 -819Q488 -807 502 -760H702ZM911 -731H131Q164 -669 217 -626Q249 -597 317 -546Q345 -529 418 -513Q486 -498 524 -498Q645 -498 752 -560Q864 -625 911 -731ZM641 90Q641 79 637.5 58.5Q634 38 634 27Q634 -64 583 -483Q522 -475 524 -475Q515 -475 467 -483L401 -5Q400 2 400 11Q400 104 423 212Q456 366 516 366Q576 366 605 279Q618 241 632 141Q641 76 641 90ZM511 -1011L479 -1027Q462 -1019 451 -1019Q432 -1019 422 -1033L396 -1021Q419 -1078 453 -1078Q472 -1078 511 -1011ZM245 -925Q240 -906 226 -894Q230 -885 238 -868Q216 -868 199 -893Q202 -907 245 -925ZM463 -1046Q458 -1051 451 -1052L440 -1048Q446 -1043 451 -1042Z"/>
</svg>