<svg xmlns="http://www.w3.org/2000/svg" viewBox="0 -2048 2048 2048">
	<path fill="#000000" d="M2032 -209H1248V359Q1238 351 1158 351V-209H709Q651 -189 568 -163Q503 -149 406 -149Q395 -149 387 -151Q166 -203 112 -292Q110 -295 100 -350Q152 -370 154 -370Q158 -370 212 -337Q275 -298 279 -296Q344 -261 472 -261Q522 -261 568 -283L559 -300Q538 -303 531 -303Q514 -303 481 -298.5Q448 -294 431 -294Q391 -294 371 -304Q346 -321 321 -338Q328 -361 351 -399Q401 -376 419 -376Q447 -376 505 -386.5Q563 -397 590 -397Q617 -397 668 -367.5Q719 -338 717 -338Q735 -338 790 -348Q858 -361 869 -363Q965 -377 1156 -399V-985Q1028 -985 940 -1003Q925 -1013 892 -1028Q848 -1031 804 -1035Q757 -1040 735 -1082Q702 -1091 693 -1139Q759 -1144 825 -1148Q911 -1155 949 -1178Q969 -1200 1004 -1235Q1060 -1281 1129 -1294L1130 -1295Q1147 -1347 1158 -1429Q1167 -1498 1176 -1566Q1215 -1503 1250 -1353Q1278 -1379 1285 -1554Q1306 -1538 1332 -1506Q1348 -1454 1348 -1355Q1348 -1343 1334.5 -1301Q1321 -1259 1314 -1248Q1334 -1237 1355.5 -1201.5Q1377 -1166 1377 -1144Q1377 -1088 1339.5 -1045Q1302 -1002 1247 -995V-402L1739 -368L1783 -922H1987ZM1234 -1331Q1223 -1387 1189 -1495L1156 -1301Q1163 -1303 1167 -1303Q1166 -1303 1209 -1295Q1219 -1314 1234 -1331ZM2012 -235L1968 -899H1805L1763 -354Q1754 -342 1742 -344L1736 -345L1248 -376V-235ZM1355 -1141Q1355 -1164 1331 -1207Q1323 -1217 1307 -1237Q1290 -1214 1256 -1169Q1270 -1216 1284 -1240Q1325 -1312 1325 -1356Q1325 -1400 1312 -1494Q1311 -1497 1306 -1502Q1306 -1431 1307 -1440Q1303 -1405 1281 -1358Q1266 -1340 1238 -1301Q1225 -1281 1212 -1234Q1200 -1237 1191 -1245Q1195 -1254 1203 -1271Q1190 -1280 1165 -1280Q1074 -1280 1006 -1204Q994 -1188 964 -1161Q964 -1161 908 -1143Q871 -1131 815 -1128Q726 -1122 720 -1121Q725 -1109 736 -1106Q751 -1102 879 -1102Q881 -1102 933 -1094Q936 -1108 940 -1121Q959 -1107 959 -1079Q959 -1061 946 -1035Q941 -1048 931 -1073Q837 -1082 811 -1082H759Q768 -1067 778 -1064Q818 -1062 896 -1051Q911 -1041 943 -1026Q1010 -1010 1181 -1010V326H1221V-1009Q1226 -1013 1238 -1013Q1271 -1013 1308 -1042Q1355 -1079 1355 -1141ZM1156 -235V-376L712 -315Q679 -339 604 -369L598 -370Q597 -370 594 -372Q591 -374 589 -374Q565 -374 504.5 -362Q444 -350 417 -350Q407 -350 363 -371H358Q350 -356 347 -347Q399 -317 438 -317Q458 -317 498 -321.5Q538 -326 558 -326Q564 -326 570 -324Q593 -297 593 -270Q532 -238 440 -238Q330 -238 266 -278Q154 -348 152 -348Q141 -343 124 -337V-330Q124 -308 184 -259Q220 -229 290.5 -201.5Q361 -174 406 -174Q506 -174 554 -182Q609 -191 685 -224Q710 -235 714 -235ZM1140 -1168Q1113 -1159 1105 -1159Q1085 -1159 1064 -1180Q1080 -1211 1095 -1211Q1126 -1211 1140 -1168Z"/>
</svg>