<svg xmlns="http://www.w3.org/2000/svg" viewBox="0 -2048 2048 2048">
	<path fill="#000000" d="M2018 -790Q2018 -709 2006 -681Q1978 -639 1928 -555Q1918 -527 1896 -471Q1870 -405 1870 -390Q1870 -333 1877 -305Q1882 -286 1912 -203Q1941 -125 1941 -122Q1941 -120 1902 -80H1069V201Q1078 204 1095 210Q1118 218 1144 246.5Q1170 275 1170 297Q1170 356 1122 413H1098Q1091 401 1091 388Q1091 385 1093 380Q1104 353 1104 307Q1104 265 1004 265Q990 265 969.5 280Q949 295 949 308Q949 321 956.5 344.5Q964 368 964 380Q964 405 945 417Q919 407 902 369Q886 335 886 304Q886 268 919 235Q949 206 987 196V-86H670Q511 -86 511 -86Q460 -102 389 -122Q389 -122 320 -122Q282 -83 248 -83Q239 -83 237 -89Q193 -83 205 -83Q199 -83 188 -89Q177 -95 174 -95Q166 -95 151 -93.5Q136 -92 128 -92V-99Q128 -106 130 -128Q124 -129 100 -129V-146Q100 -210 144 -247L135 -264Q149 -280 181 -306Q239 -335 270 -335Q275 -335 285 -332.5Q295 -330 299 -330Q341 -325 434 -298Q516 -273 566 -273Q573 -273 595 -274L987 -292V-892Q987 -892 976 -892Q970 -892 868 -895Q901 -942 901 -992Q901 -1090 831 -1090Q823 -1090 638 -1074Q602 -1071 566 -1095Q553 -1104 524 -1152Q639 -1174 731 -1193Q747 -1196 771 -1227Q802 -1267 806 -1271Q831 -1293 897 -1303Q899 -1304 918 -1528Q935 -1528 941 -1519Q966 -1482 995 -1387L1036 -1570Q1077 -1488 1082.5 -1464.5Q1088 -1441 1088 -1344Q1088 -1327 1084.5 -1293.5Q1081 -1260 1081 -1243Q1081 -1236 1094.5 -1217Q1108 -1198 1110 -1192Q1128 -1137 1138 -1067Q1153 -956 1156 -942Q1160 -921 1160 -891H1069V-302L1518 -331Q1504 -389 1504 -399Q1504 -461 1551 -620Q1555 -633 1599 -724Q1557 -683 1515 -643Q1464 -602 1410 -602Q1404 -602 1393 -602Q1382 -603 1377 -603Q1362 -619 1346 -636Q1335 -649 1336 -684Q1330 -684 1318 -681.5Q1306 -679 1300 -679Q1289 -679 1250 -708.5Q1211 -738 1201 -750Q1186 -768 1186 -790Q1186 -805 1264 -926Q1333 -1035 1357 -1066Q1359 -1068 1367 -1081Q1386 -1098 1409 -1122Q1418 -1145 1437 -1189Q1485 -1207 1485 -1207Q1527 -1207 1555 -1175Q1580 -1186 1585 -1186Q1605 -1186 1631 -1172Q1675 -1149 1676 -1148.5Q1677 -1148 1701 -1143Q1892 -1102 1976 -906Q2018 -808 2018 -790ZM1534 -1163Q1522 -1184 1487 -1184Q1461 -1184 1443 -1150Q1460 -1159 1488 -1161Q1531 -1163 1534 -1163ZM1994 -760Q1994 -847 1930.5 -951Q1867 -1055 1791 -1088Q1736 -1111 1695 -1121Q1696 -1118 1696 -1111Q1696 -1096 1685 -1051Q1672 -1002 1664 -999Q1690 -952 1690 -893Q1690 -847 1679 -818Q1666 -802 1644 -768Q1593 -676 1571 -604Q1527 -463 1527 -399Q1527 -395 1536 -337Q1562 -329 1565 -329Q1580 -329 1595 -357Q1598 -362 1628 -475Q1658 -588 1665 -606Q1686 -659 1739 -719Q1773 -758 1823 -758Q1880 -758 1915 -648H1956Q1994 -707 1994 -760ZM984 -1341Q984 -1390 936 -1475L923 -1309H931Q984 -1309 984 -1341ZM1670 -1099Q1670 -1126 1640 -1145Q1614 -1163 1586 -1163Q1562 -1163 1539 -1134Q1533 -1112 1502 -1082Q1495 -1089 1495 -1095Q1495 -1095 1513 -1135Q1490 -1138 1490 -1138Q1408 -1138 1247 -853Q1209 -786 1209 -789Q1209 -771 1229 -754V-804Q1247 -812 1283 -826Q1273 -807 1255 -788L1256 -784Q1262 -762 1233 -752Q1262 -728 1303 -703Q1337 -703 1379.5 -736.5Q1422 -770 1430 -770Q1443 -770 1443 -761Q1443 -758 1360 -695Q1364 -628 1397 -628Q1459 -628 1475.5 -640.5Q1492 -653 1555 -715Q1584 -742 1614 -769Q1652 -806 1659.5 -831Q1667 -856 1667 -923Q1667 -937 1656 -963Q1645 -989 1645 -999Q1646 -1003 1649 -1006L1647 -1008Q1670 -1071 1670 -1099ZM1939 -620Q1921 -620 1905 -622Q1902 -625 1875 -692Q1857 -734 1822 -734Q1771 -734 1734 -673Q1715 -649 1687 -600Q1681 -582 1644 -451Q1639 -415 1618 -349Q1613 -340 1593.5 -323Q1574 -306 1566 -306Q1560 -306 1557 -309L1069 -278V-106H1896L1917 -125Q1896 -178 1875 -230Q1845 -306 1845 -337Q1845 -469 1939 -620ZM1143 300Q1143 273 1111 247Q1079 221 1052 223L1042 214V-904L1055 -917H1136Q1129 -984 1121 -1050Q1111 -1121 1090 -1182Q1086 -1194 1068 -1213Q1056 -1227 1056 -1258Q1056 -1277 1061 -1316Q1066 -1355 1066 -1374Q1066 -1462 1042 -1505Q1027 -1419 1014 -1369Q1003 -1328 1003 -1326Q994 -1304 973 -1296Q916 -1289 825 -1255Q813 -1238 788 -1204Q767 -1180 746 -1173Q721 -1165 563 -1136Q569 -1126 585 -1110Q613 -1095 640 -1097Q826 -1113 822 -1113Q925 -1113 925 -992Q925 -977 906 -917Q917 -917 1000 -916L999 -915L1011 -910V213Q974 221 945 244Q909 272 909 305Q909 354 938 384V364Q938 362 931 350.5Q924 339 923 328L922 307Q921 295 944 273Q964 254 977 248.5Q990 243 1008 243Q1130 243 1130 317Q1130 328 1124 351Q1118 374 1118 386Q1143 354 1143 300ZM987 -109V-272L595 -251Q576 -250 568 -250Q532 -250 364 -299Q343 -301 300 -307Q274 -312 274 -312Q251 -312 214.5 -296Q178 -280 165 -263Q207 -286 261 -286Q272 -286 278 -273Q262 -263 221 -261Q180 -259 147 -219Q138 -208 125 -155H135Q164 -238 264 -238Q267 -238 276 -225Q235 -217 175 -182Q151 -147 151 -115H170L175 -121Q188 -207 266 -207Q277 -207 286 -198Q271 -186 225 -174Q196 -131 196 -113Q196 -106 204 -106Q219 -106 222 -107Q230 -176 296 -176Q300 -176 298 -170Q301 -172 303 -172Q304 -172 305 -170Q298 -159 269 -146Q249 -137 249 -105Q274 -110 296 -131Q315 -150 331 -150Q384 -150 492 -113Q504 -109 506 -109ZM1525 -935Q1492 -945 1477 -945Q1457 -945 1462 -924L1414 -927Q1411 -927 1399 -920Q1392 -916 1362 -906Q1399 -942 1425 -972Q1433 -975 1438 -975Q1462 -975 1525 -935ZM960 -1177Q926 -1180 865 -1192Q877 -1204 903 -1227Q917 -1220 960 -1177Z"/>
</svg>