<svg xmlns="http://www.w3.org/2000/svg" viewBox="0 -2048 2048 2048">
	<path fill="currentColor" d="M1873 -866H1847V-1221Q1847 -1302 1778 -1358Q1714 -1410 1631 -1410Q1547 -1410 1489 -1357.5Q1431 -1305 1431 -1222V-866H1405V-1234Q1405 -1312 1476 -1376Q1544 -1437 1624 -1437Q1739 -1437 1806 -1374.5Q1873 -1312 1873 -1198ZM1153 -866H1127V-1221Q1127 -1302 1058 -1358Q994 -1410 911 -1410Q827 -1410 769 -1357.5Q711 -1305 711 -1222V-866H685V-1234Q685 -1312 756 -1376Q824 -1437 904 -1437Q1019 -1437 1086 -1374.5Q1153 -1312 1153 -1198ZM1600 -231H1477V-713H1600ZM2436 -1466Q2436 -1461 2389 -1395Q2256 -1209 2221 -1035Q2210 -979 2153 -558Q2145 -492 2122 -363Q2112 -338 2093 -287Q2038 -136 1939 -55Q1904 -27 1801 27Q1695 83 1650 118Q1575 175 1561 240Q1558 269 1537 324H994Q985 285 966 208Q899 129 789 65Q622 -33 598 -51Q445 -163 396 -488Q372 -670 312 -1032Q278 -1205 201 -1312Q100 -1452 100 -1466Q100 -1477 126 -1498Q348 -1353 401 -1161Q405 -1146 447 -942Q481 -760 565 -400Q583 -337 623 -281Q696 -180 823 -140Q847 -132 1066 -92Q1116 -83 1207 -55Q1257 -31 1266 66Q1275 -20 1331 -54Q1357 -70 1443 -89Q1569 -115 1695 -141Q1835 -182 1906 -278Q1958 -349 1997 -508Q2022 -632 2048 -757Q2071 -894 2136 -1161Q2155 -1222 2213 -1305Q2267 -1383 2319 -1431Q2322 -1434 2405 -1497Q2436 -1480 2436 -1466ZM1080 -231H957V-713H1080ZM2411 -1465L2407 -1469Q2336 -1422 2263 -1333Q2186 -1240 2162 -1164Q2130 -1064 2099 -911Q2074 -782 2049 -654Q2009 -467 2006 -453Q1973 -330 1927 -267Q1846 -156 1725 -119Q1686 -107 1529 -82Q1397 -61 1347 -35Q1307 -14 1295 28Q1279 86 1279 297H1528Q1532 281 1539 249Q1552 173 1626 110Q1671 72 1779 14Q1887 -44 1925 -75Q2019 -153 2070 -290Q2081 -315 2099 -368Q2109 -410 2126 -530.5Q2143 -651 2177 -894Q2201 -1058 2231 -1148Q2271 -1268 2354 -1378Q2359 -1385 2411 -1465ZM1574 -257V-687H1503V-257ZM1054 -257V-687H983V-257ZM1255 297V290Q1255 86 1235 22Q1227 -3 1199 -32Q1134 -52 1001.5 -76Q869 -100 805 -119Q652 -166 578 -322Q566 -342 545 -384Q524 -442 507 -541Q481 -688 478 -701Q451 -855 378 -1157Q352 -1241 277 -1331Q207 -1416 128 -1468L124 -1463Q167 -1408 244 -1293Q268 -1250 290 -1181Q308 -1123 326 -1065Q356 -978 385 -749Q425 -433 428 -414Q436 -366 471 -277.5Q506 -189 533 -151Q588 -74 740 12Q905 104 965 171Q974 180 989 201Q997 219 1009 297Z"/>
</svg>