<svg xmlns="http://www.w3.org/2000/svg" viewBox="0 -2048 2048 2048">
	<path fill="currentColor" d="M2586 -1096Q2567 -1063 2524 -1033Q2385 -951 2246 -868Q2043 -747 1950 -651Q1806 -480 1507 -146Q1459 -95 1283 24Q1251 45 1115 104Q969 167 938 167H100V-163H963Q975 -163 1054.5 -185Q1134 -207 1166 -218Q1241 -244 1279 -274Q1365 -341 1579 -546Q1803 -761 1922 -857Q2119 -1018 2263 -1070.5Q2407 -1123 2504 -1123Q2553 -1123 2579 -1110Q2579 -1106 2586 -1096ZM2543 -1097H2480Q2432 -1098 2258 -1038Q2071 -974 1778 -700Q1559 -490 1340 -280Q1308 -260 1255 -225Q1245 -218 1123 -178Q984 -132 938 -132H124V136H951Q960 136 979.5 128Q999 120 1001 120Q1090 101 1249 9Q1404 -81 1477 -152Q1539 -213 1766 -485Q1934 -686 2078 -782Q2137 -829 2236 -901Q2323 -951 2410 -1000Q2515 -1060 2543 -1097Z"/>
</svg>