<svg xmlns="http://www.w3.org/2000/svg" viewBox="0 -2048 2048 2048">
	<path fill="currentColor" d="M1708 -871Q1708 -757 1624 -644.5Q1540 -532 1431 -494Q1365 -471 1231 -471Q1115 -471 1039 -503Q978 -529 903 -602Q825 -678 806 -737Q783 -808 783 -880Q783 -1066 918 -1187Q1048 -1304 1237 -1304Q1433 -1304 1567 -1187Q1708 -1064 1708 -871ZM2387 -1460Q2345 -1402 2267 -1282Q2201 -1169 2176 -1043Q2169 -1007 2111 -585Q2103 -519 2080 -389Q2079 -386 2054 -318Q2008 -193 1947 -128Q1891 -68 1770 -4Q1720 21 1627 81Q1574 122 1548 162Q1535 181 1527.5 224.5Q1520 268 1509 287H975Q970 247 948 172Q921 115 747 15Q561 -92 511 -160Q439 -257 412 -380Q387 -491 361 -705Q334 -928 312 -1031Q311 -1035 283 -1125Q253 -1222 222 -1275Q180 -1336 100 -1462L131 -1492Q221 -1435 294 -1348Q373 -1253 399 -1160Q432 -1040 479 -787Q525 -538 560 -414Q581 -339 652 -265Q723 -191 798 -168Q873 -145 992 -121Q1178 -84 1188 -82Q1228 -32 1234 -12Q1236 -6 1241 68Q1245 -48 1307 -82Q1312 -85 1432 -110Q1663 -159 1725 -187Q1866 -252 1923 -406Q1937 -444 1982 -658Q2013 -828 2092 -1163Q2115 -1244 2200 -1345Q2278 -1439 2356 -1491Q2380 -1478 2387 -1460ZM2362 -1460L2358 -1464Q2286 -1419 2212 -1325Q2134 -1228 2112 -1150Q2091 -1077 2011 -686Q1972 -494 1968 -479Q1936 -355 1886 -287Q1806 -177 1683 -142Q1520 -114 1325 -65Q1313 -58 1272 -5Q1256 186 1256 260H1499Q1503 226 1518 166Q1547 100 1650 37Q1745 -19 1841 -75Q1953 -150 2002 -246Q2065 -371 2100 -636Q2153 -1044 2153 -1046Q2178 -1173 2246 -1292Q2285 -1348 2362 -1460ZM1685 -871Q1685 -892 1674 -946Q1641 -1107 1522 -1196Q1407 -1281 1240 -1281Q1020 -1281 884 -1112Q833 -1049 807 -903Q804 -886 804 -881Q804 -881 812 -828Q815 -799 828 -741Q871 -627 991 -558Q1102 -494 1231 -494Q1374 -494 1455 -531Q1548 -572 1619 -684Q1633 -702 1657 -741Q1662 -753 1673.5 -806Q1685 -859 1685 -871ZM1229 260V220Q1229 48 1213 -5Q1200 -48 1173.5 -63Q1147 -78 1028 -99Q853 -130 821 -140Q727 -169 638 -248Q611 -271 599 -287Q559 -337 540 -402Q526 -451 489 -634Q463 -766 405 -1028Q385 -1108 374 -1146Q352 -1218 328 -1259Q248 -1395 132 -1463L128 -1459Q132 -1440 178 -1381Q232 -1312 240 -1298Q265 -1252 289 -1187Q333 -1067 361 -884Q383 -730 405 -575Q411 -510 434 -383Q467 -259 524 -181.5Q581 -104 734 -17Q894 74 956 147Q962 152 970 164Q979 188 992 260Z"/>
</svg>