<svg xmlns="http://www.w3.org/2000/svg" viewBox="16.6 -1610.4 1714.9 2063.9">
	<path fill="currentColor" d="M1655 -235H945V131Q1022 177 1022 247Q1022 290 997 330Q968 377 928 374V358Q928 349 941.5 316Q955 283 955 262Q955 189 914 189Q865 218 865 290Q865 304 872.5 329Q880 354 880 368V377Q798 350 798 287Q798 187 875 126V-234H591Q489 -190 370 -190Q298 -190 203 -234Q93 -286 100 -347L101 -356Q140 -367 142 -367Q148 -367 162 -360L309 -857Q359 -691 457 -391H480Q504 -391 539 -378Q567 -366 595 -355Q649 -367 758 -389Q798 -389 875 -402V-858H743L820 -1157Q788 -1148 787 -1148Q775 -1148 752.5 -1151Q730 -1154 718 -1154Q688 -1154 554 -1126Q552 -1087 541 -1084Q519 -1083 496 -1083V-1100Q496 -1089 508 -1148Q488 -1151 471.5 -1173Q455 -1195 455 -1216Q455 -1244 485 -1269Q510 -1289 630 -1349Q754 -1410 777 -1411Q766 -1462 741 -1462Q716 -1462 672.5 -1444Q629 -1426 607 -1426Q591 -1426 552 -1442.5Q513 -1459 486 -1459Q464 -1459 423.5 -1442.5Q383 -1426 363 -1426Q266 -1426 266 -1528Q343 -1482 354 -1482Q379 -1482 421 -1504Q463 -1526 488 -1526Q499 -1526 545 -1505.5Q591 -1485 608 -1485Q626 -1485 680.5 -1507.5Q735 -1530 767 -1530Q802 -1530 839 -1445Q863 -1523 945 -1523Q957 -1523 998.5 -1507Q1040 -1491 1067 -1491Q1087 -1491 1123 -1507Q1159 -1523 1170 -1523Q1195 -1523 1243 -1507Q1291 -1491 1316 -1491Q1332 -1491 1373 -1534Q1395 -1523 1395 -1504Q1395 -1477 1363 -1454.5Q1331 -1432 1303 -1432Q1284 -1432 1241.5 -1447Q1199 -1462 1176 -1462Q1151 -1462 1106 -1445.5Q1061 -1429 1036 -1429Q1021 -1429 993 -1441Q965 -1453 950 -1453Q928 -1453 894 -1411Q910 -1407 940 -1397Q1001 -1372 1029 -1315Q1043 -1287 1067 -1101Q1082 -980 1097 -860H945V-404L1414 -370L1450 -815H1616ZM1371 -1501Q1358 -1489 1345.5 -1477Q1333 -1465 1312 -1465Q1313 -1465 1172 -1500Q1078 -1468 1068 -1468Q1041 -1468 997 -1484Q953 -1500 944 -1500Q883 -1500 853 -1417H871Q914 -1479 947 -1479Q963 -1479 993 -1465.5Q1023 -1452 1039 -1452Q1063 -1452 1107 -1470Q1151 -1488 1175 -1488Q1199 -1488 1242 -1471.5Q1285 -1455 1306 -1455Q1349 -1455 1371 -1501ZM825 -1417Q799 -1505 766 -1505Q731 -1505 681 -1489Q640 -1476 599 -1462Q575 -1470 487 -1503Q466 -1503 424.5 -1481Q383 -1459 352 -1459Q328 -1459 295 -1480Q309 -1449 361 -1449Q384 -1449 427 -1465.5Q470 -1482 494 -1482Q515 -1482 551.5 -1467Q588 -1452 608 -1452Q632 -1452 676 -1468.5Q720 -1485 744 -1485Q794 -1485 799 -1413ZM1070 -885V-891Q1070 -949 1053 -1051Q1028 -1194 1026 -1212Q1013 -1320 965 -1357Q922 -1391 810 -1391Q785 -1391 769 -1387Q723 -1376 606 -1312Q478 -1242 478 -1214Q478 -1177 516 -1177Q547 -1177 601 -1190L615 -1177Q597 -1164 573 -1161Q531 -1155 530 -1155L531 -1154Q547 -1150 550 -1150Q581 -1150 642 -1162Q703 -1174 734 -1174Q742 -1174 758.5 -1172.5Q775 -1171 783 -1171Q797 -1171 843 -1190L853 -1180Q853 -1170 845 -1166Q812 -1032 770 -885ZM528 -1106V-1131L525 -1132Q524 -1128 522 -1106ZM919 -403V-858H901V-403ZM1631 -260L1597 -790H1471L1436 -346Q1106 -379 872 -379Q810 -379 681 -350Q601 -332 592 -332Q582 -332 538.5 -348Q495 -364 463 -364Q469 -341 481 -329Q496 -313 501 -302Q499 -283 436 -271Q388 -261 355 -261Q299 -261 221 -302.5Q143 -344 142 -344Q135 -344 125 -340Q128 -325 144 -298Q168 -276 234.5 -244.5Q301 -213 330 -213H410Q468 -213 533 -234Q614 -260 597 -260ZM460 -304L307 -788L183 -349L247 -311Q266 -371 299 -491Q304 -499 315 -509L385 -287H392Q440 -287 460 -304ZM999 247Q999 189 919 142V-234H901V136Q821 190 821 284Q821 298 830 318Q839 342 851 343Q839 320 839 293V274Q839 245 862 206Q887 163 913 163Q945 163 963 199Q978 228 978 263Q978 294 962 337Q999 305 999 247ZM362 -284L312 -447L269 -300Q328 -284 349 -284Q362 -284 362 -284ZM777 -1297Q774 -1285 766 -1277Q761 -1281 749 -1287Q739 -1276 728 -1276Q724 -1276 716 -1278.5Q708 -1281 704 -1281Q687 -1273 667 -1273Q716 -1322 729 -1322Q728 -1322 777 -1297Z"/>
</svg>