<svg xmlns="http://www.w3.org/2000/svg" viewBox="0 -2048 2048 2048">
	<path fill="currentColor" d="M1357 -555H1201V-1167H1357ZM2463 -1463Q2343 -1287 2324 -1251Q2265 -1144 2239 -1010Q2219 -904 2191 -681Q2163 -465 2141 -353Q2127 -285 2086 -200Q2076 -184 2056 -151Q2001 -53 1840 39Q1656 146 1601 207Q1578 233 1562 342H1002Q996 302 974 227Q974 226 951 201Q892 135 731 45Q579 -40 521 -115Q448 -210 420 -350Q409 -404 360 -769Q326 -1023 268 -1180Q238 -1261 198 -1317Q100 -1454 100 -1460Q100 -1471 128 -1495Q311 -1357 370 -1231Q382 -1208 403 -1159Q413 -1130 468 -860Q498 -698 573 -379Q591 -313 626 -265Q654 -226 729 -171Q795 -123 913 -98Q1012 -81 1111 -64Q1176 -51 1210 -36Q1276 -7 1283 99Q1287 46 1297 25Q1298 24 1339 -36Q1467 -61 1595 -85Q1757 -120 1832 -171Q1892 -212 1929 -263Q1987 -342 2058 -685Q2106 -919 2154 -1153Q2168 -1204 2232 -1297Q2293 -1385 2338 -1425Q2355 -1440 2433 -1495ZM2435 -1460L2430 -1467Q2276 -1347 2185 -1168Q2180 -1158 2177 -1147Q2155 -1062 2068 -646Q2029 -457 2024 -439Q1990 -309 1946 -248Q1868 -140 1700 -89Q1672 -80 1405 -28Q1385 -25 1350 -14Q1293 13 1293 290V318H1542Q1547 284 1565 220Q1568 212 1589 187Q1647 116 1838 11Q2001 -80 2062 -203Q2104 -288 2118 -352Q2144 -473 2171 -691Q2201 -931 2220 -1030Q2246 -1169 2317 -1291Q2327 -1308 2435 -1460ZM1333 -579V-1143H1222V-579ZM1268 247Q1270 93 1253 46Q1238 5 1203 -14Q1156 -40 1016 -61Q862 -84 813 -102Q738 -129 645 -215Q633 -224 611 -246Q573 -294 551 -373Q522 -477 435 -904Q421 -986 384 -1147Q328 -1343 129 -1466L125 -1459Q167 -1405 243 -1291Q308 -1180 335 -1033Q366 -805 442 -352Q453 -297 496 -205Q555 -80 717 11Q912 122 968 187Q978 198 995 222Q998 229 1019 318H1267Z"/>
</svg>