<svg xmlns="http://www.w3.org/2000/svg" viewBox="0 0 995 1000">
  <g transform="scale(1,-1) translate(0,-1000)">
    <path d="M81 698Q81 693 68.5 664.0Q56 635 56 622Q80 612 116 612H141Q229 613 464 624Q491 626 551.0 632.5Q611 639 650 639Q655 639 666.5 639.5Q678 640 684 640Q752 640 799 587Q836 546 857 472Q873 417 889.5 335.5Q906 254 913 225Q954 50 995 0Q991 3 979.5 8.5Q968 14 958.5 21.0Q949 28 940 41Q938 41 924 81Q900 148 873.0 265.0Q846 382 815 461Q793 520 767.5 549.0Q742 578 717.5 584.5Q693 591 646 591Q611 591 553.0 584.5Q495 578 463 576Q419 574 354.0 569.5Q289 565 234.5 562.0Q180 559 125 559H100Q56 559 22 573Q0 582 0 609Q0 616 2 626Q5 640 11.0 652.5Q17 665 24.5 678.5Q32 692 35 699Q40 711 53 711Q81 707 81 698Z" fill="currentColor"/>
  </g>
</svg>