<svg xmlns="http://www.w3.org/2000/svg" viewBox="0 -2048 2048 2048">
	<path fill="#000000" d="M1926 -349H1753Q1777 -321 1822 -266L1808 -253Q1779 -284 1713 -353H1632L1711 -266Q1708 -263 1702 -259.5Q1696 -256 1693 -253L1592 -348H1526Q1535 -337 1606 -266Q1603 -263 1596.5 -259.5Q1590 -256 1587 -253L1486 -348H1411Q1437 -320 1485 -266Q1482 -263 1475.5 -259.5Q1469 -256 1466 -253Q1438 -284 1370 -353H1184Q1190 -44 1112 214Q1080 321 1042 321Q1015 321 983 246Q944 156 923 19Q905 -98 906 -130V-349H311L416 -261Q416 -261 412 -251.5Q408 -242 400 -242Q399 -242 339 -267Q245 -299 100 -366Q270 -451 403 -500L416 -487L305 -374H906L980 -854Q976 -853 967 -851Q663 -600 613 -601H580Q684 -946 684 -1061Q684 -1142 650 -1245Q617 -1335 585 -1425Q661 -1469 799 -1496Q926 -1521 1042 -1521Q1279 -1521 1495 -1425Q1400 -1200 1400 -1071Q1400 -905 1500 -614V-595H1483Q1479 -595 1412 -630Q1349 -663 1261 -738Q1135 -844 1115 -859L1184 -374H1371Q1430 -426 1482 -463L1495 -450Q1484 -439 1454.5 -412.5Q1425 -386 1416 -377Q1421 -374 1450 -374Q1486 -374 1514 -397Q1598 -468 1599 -468Q1599 -462 1611 -450Q1610 -449 1527 -377Q1532 -374 1561 -374Q1601 -374 1628 -399Q1681 -449 1702 -463Q1714 -463 1721 -456Q1715 -441 1685 -417Q1639 -379 1637 -377Q1642 -374 1677 -374Q1720 -374 1744 -397Q1801 -451 1825 -468Q1825 -462 1837 -450Q1830 -443 1801 -417Q1772 -391 1758 -377Q1762 -373 1926 -378ZM1468 -635Q1379 -948 1379 -1066Q1379 -1184 1463 -1414Q1428 -1435 1272.5 -1467.5Q1117 -1500 1050 -1500Q942 -1500 811 -1476Q661 -1448 616 -1409Q711 -1192 711 -1056Q711 -994 680 -874Q649 -751 617 -627L1055 -948Q1134 -863 1254 -770Q1388 -665 1468 -635ZM1153 -375V-398Q1154 -423 1093 -803Q1084 -862 1083 -864Q1072 -903 1045 -921Q1012 -888 1007 -867Q985 -776 960 -607Q937 -460 938 -444V-375ZM1158 -342Q1153 -346 1157 -349H927Q927 -349 927 -219Q927 -133 951 15Q972 143 991 208Q1001 244 1009 258Q1024 287 1046 295Q1079 253 1083 235Q1160 -116 1160 -285Q1160 -315 1158 -342ZM337 -446L153 -366Q273 -322 331 -296Q306 -320 258 -366Q276 -384 303.5 -412Q331 -440 337 -446Z"/>
</svg>