<svg xmlns="http://www.w3.org/2000/svg" viewBox="0 -2048 2048 2048">
	<path fill="currentColor" d="M1944 -335H1199Q1201 -270 1197 -144Q1188 -35 1149 159Q1114 333 1064 333Q1025 333 994 237Q947 91 935 -29Q929 -91 929 -275V-330H381Q383 -327 449 -242L100 -347L449 -464Q425 -430 381 -362H924L1002 -835Q1004 -835 985 -828Q686 -574 634 -574H612Q606 -580 606 -590Q606 -596 618 -629Q632 -666 635 -681Q657 -763 679 -844Q710 -966 710 -1038Q710 -1161 606 -1395Q682 -1438 818 -1466Q945 -1491 1059 -1491Q1317 -1491 1512 -1395Q1418 -1184 1418 -1043Q1418 -884 1498 -645Q1511 -606 1511 -603V-574Q1439 -593 1331 -675Q1233 -754 1134 -833Q1131 -836 1126 -831L1193 -361H1484V-521H1506V-362H1944ZM1481 -1385Q1443 -1404 1411 -1411Q1146 -1470 1064 -1470Q946 -1470 817.5 -1444Q689 -1418 637 -1385Q731 -1170 731 -1035Q731 -962 677 -749Q643 -613 642 -628V-611Q680 -621 875 -774Q1066 -923 1072 -923Q1079 -923 1151 -854Q1239 -771 1268 -748Q1303 -720 1399 -654Q1427 -640 1480 -611V-629Q1392 -886 1392 -1043Q1392 -1185 1481 -1385ZM1168 -361V-395Q1168 -410 1145 -573Q1119 -755 1098 -853Q1093 -877 1061 -897Q1046 -883 1029 -858Q1004 -741 977 -571Q955 -424 955 -409V-361ZM1179 -204Q1179 -348 1177 -331H950Q950 -311 950 -277Q949 -242 949 -239Q949 -84 1008 216Q1024 298 1067 306Q1095 278 1098 263Q1179 -115 1179 -204ZM386 -417L184 -347L381 -283Q353 -320 340 -350Z"/>
</svg>