<svg xmlns="http://www.w3.org/2000/svg" viewBox="0 0 574 1000">
  <g transform="scale(1,-1) translate(0,-1000)">
    <path d="M306 385Q317 394 324.5 398.5Q332 403 347.5 406.5Q363 410 387 410Q397 410 408.0 408.0Q419 406 434.5 400.0Q450 394 459.5 380.0Q469 366 469 345Q469 290 443.0 209.0Q417 128 377 72Q373 67 362.5 52.0Q352 37 347.0 31.5Q342 26 332.0 17.0Q322 8 310.5 4.0Q299 0 285 0H284Q272 0 261.0 4.0Q250 8 242.5 13.0Q235 18 227.0 27.5Q219 37 215.5 42.0Q212 47 205.0 58.0Q198 69 197 71Q185 88 176.0 106.5Q167 125 163.0 136.5Q159 148 151.0 171.5Q143 195 139 205Q106 295 106 341V342Q106 364 115.0 379.0Q124 394 138.5 399.5Q153 405 161.0 406.5Q169 408 176 408Q225 408 259 388L215 944H19Q11 944 5.5 950.0Q0 956 0.0 964.0Q0 972 5.5 978.0Q11 984 19 984H555Q563 984 568.5 978.0Q574 972 574.0 964.0Q574 956 568.5 950.0Q563 944 555 944H358ZM303 45Q311 50 345 96Q375 137 398.5 201.5Q422 266 429 331V345Q429 358 424 360Q407 371 387 371Q383 371 371.5 369.5Q360 368 355 368Q348 367 332.0 355.0Q316 343 303 340ZM146 350V341Q146 314 150.0 297.0Q154 280 176 219Q179 210 187.5 184.5Q196 159 199.5 150.5Q203 142 211.5 125.0Q220 108 230 93Q254 56 263 48V341Q254 344 239.0 353.0Q224 362 215 364Q183 368 176 368Q150 368 146 350ZM255 944 284 493 320 944Z" fill="currentColor"/>
  </g>
</svg>