<svg xmlns="http://www.w3.org/2000/svg" viewBox="24.4 -1611.6 1598.2 2041.2">
	<path fill="currentColor" d="M1547 -62L1343 112L1502 339L1481 354L1323 129L1119 302L100 -1153L304 -1326L168 -1521L189 -1536L324 -1343L528 -1517ZM709 -1214L524 -1479L339 -1322L525 -1057ZM910 -927L724 -1193L540 -1035L726 -770ZM1110 -641L925 -906L741 -749L926 -483ZM1311 -354L1125 -619L941 -462L1127 -197ZM1512 -66L1326 -333L1142 -175L1328 90ZM505 -1040L319 -1305L135 -1148L321 -882ZM706 -753L520 -1018L336 -861L522 -596ZM906 -466L721 -732L537 -574L723 -309ZM1107 -180L921 -445L738 -287L923 -22ZM1308 107L1122 -158L938 -1L1123 264Z"/>
</svg>