<svg xmlns="http://www.w3.org/2000/svg" viewBox="0 -2048 2048 2048">
	<path fill="currentColor" d="M1403 350L1382 365L1108 -42L898 124L100 -1058L310 -1224L103 -1532L124 -1547L331 -1240L541 -1406L1339 -224L1128 -58ZM716 -1100L535 -1368L346 -1218L527 -950ZM912 -810L731 -1079L541 -928L722 -660ZM1107 -520L926 -788L737 -638L918 -369ZM1304 -229L1122 -498L933 -348L1114 -79ZM506 -934L325 -1202L135 -1052L317 -783ZM702 -643L521 -912L331 -762L513 -493ZM898 -353L717 -622L527 -472L708 -203ZM1093 -63L912 -332L723 -181L904 87Z"/>
</svg>