<svg xmlns="http://www.w3.org/2000/svg" viewBox="12.5 -988.5 2363 675">
	<path fill="currentColor" d="M2288 -638H2046L2107 -407L2081 -401L2019 -638H1706L1767 -407L1741 -401L1679 -638H1366L1427 -407L1401 -401L1339 -638H1026L1087 -407L1061 -401L999 -638H686L747 -407L721 -401L659 -638H346L407 -407L381 -401L319 -638H100V-664H312L251 -895L277 -901L339 -664H652L591 -895L617 -901L679 -664H992L931 -895L957 -901L1019 -664H1332L1271 -895L1297 -901L1359 -664H1672L1611 -895L1637 -901L1699 -664H2012L1951 -895L1977 -901L2039 -664H2288Z"/>
</svg>