<svg xmlns="http://www.w3.org/2000/svg" viewBox="0 -2048 2048 2048">
	<path fill="#000000" d="M2069 -1211L1820 -321Q1878 -161 1875 -101Q1890 -97 1910 -97Q1930 -97 1947 -101V-25Q1919 -27 1869 -23Q1801 137 1684 137Q1627 137 1586 100Q1539 57 1532 -25H1419Q1400 42 1348.5 89.5Q1297 137 1240 137Q1169 137 1130 92Q1102 58 1077 -25H970Q952 46 900 91.5Q848 137 790 137Q710 137 677 89Q674 84 629 -25H525Q455 137 341 137Q202 137 189 -25H100V-96Q135 -94 190 -97Q190 -97 212 -150Q245 -230 311 -282Q315 -285 359 -308Q390 -325 397 -344Q460 -515 535 -783Q651 -1193 661 -1228Q689 -1223 726 -1210L477 -321Q535 -180 532 -101Q546 -96 588 -96Q633 -96 647 -106Q665 -207 772 -293Q805 -308 847 -350Q908 -524 981 -784Q1043 -1003 1104 -1222Q1109 -1227 1118 -1227Q1125 -1227 1140.5 -1222Q1156 -1217 1162 -1217Q1170 -1217 1175 -1222L921 -319Q967 -234 981 -96H1089Q1113 -162 1127 -188Q1154 -239 1199 -277Q1200 -278 1248 -304Q1283 -323 1291 -344Q1360 -523 1433 -783Q1494 -1006 1555 -1228Q1575 -1222 1620 -1216L1370 -319Q1429 -194 1425 -101Q1439 -96 1481 -96Q1534 -96 1538 -101Q1544 -117 1555 -150Q1585 -236 1682 -305Q1707 -312 1740 -344Q1797 -514 1876 -787Q1986 -1172 2005 -1234Q2026 -1225 2069 -1211ZM2042 -1200H2021Q1960 -978 1899 -756Q1826 -498 1757 -322Q1749 -301 1714 -284Q1666 -260 1660 -255Q1596 -204 1566 -122Q1554 -89 1554 -41Q1554 18 1588 63Q1627 115 1692 115Q1763 115 1809 33Q1848 -37 1848 -110Q1848 -178 1823 -244Q1810 -269 1792 -316ZM1919 -53V-68H1871V-53ZM1598 -1189Q1598 -1200 1571 -1200Q1510 -980 1449 -760Q1376 -506 1313 -328Q1306 -310 1279 -295Q1237 -274 1233 -271Q1151 -208 1128 -144Q1110 -93 1110 -44Q1110 14 1137 58Q1173 115 1243 115Q1321 115 1365 30Q1398 -35 1398 -105Q1398 -191 1343 -316ZM1531 -53V-73H1427V-53ZM1148 -1200H1127Q1066 -981 1005 -762Q931 -503 864 -328Q857 -309 823 -290Q775 -263 772 -260Q660 -169 660 -41Q660 18 693 63Q731 115 796 115Q871 115 917 25Q954 -46 954 -110Q954 -215 893 -310ZM1087 -73H977V-53H1081Q1081 -56 1084 -63Q1087 -70 1087 -73ZM704 -1194L678 -1200Q617 -978 557 -756Q484 -497 414 -322Q405 -300 368 -281Q320 -257 311 -249Q237 -183 218 -100Q211 -68 211 -41Q211 12 241 58Q280 115 349 115Q423 115 468 30Q505 -39 505 -113Q505 -191 449 -313ZM637 -53V-73H534L527 -53ZM187 -53V-73H128V-53Z"/>
</svg>