<svg xmlns="http://www.w3.org/2000/svg" viewBox="0 -2048 2048 2048">
	<path fill="currentColor" d="M2356 149H2325V-42Q2325 -203 2231 -398Q2124 -620 1972 -688Q1913 -716 1839 -744H1794V92H658V-739Q653 -744 642 -744Q642 -744 547 -714Q363 -656 238 -424Q131 -223 131 -44V130H100V-36Q100 -206 202 -412Q317 -645 475 -713Q497 -725 545 -745Q579 -756 658 -774V-971H1790V-780Q1834 -772 1878 -763Q1929 -752 1962 -734Q2178 -614 2280 -367Q2356 -182 2356 39ZM1760 67V-939H1574V67ZM1544 64V-939H1349V64ZM1316 67V-939H1134V67ZM1100 67V-939H906V67ZM872 67V-939H690V67Z"/>
</svg>