<svg viewBox="0 0 11.977046 11.76"
   xmlns="http://www.w3.org/2000/svg">
  <path
     style="fill:currentColor; stroke:none"
     d=" M 11.957316 6.097047  L 11.957316 6.846846  L 9.550067 6.846846  L 8.997585 8.622684  L 11.937584 8.622684  L 11.937584 9.313287  L 9.313287 9.313287  Q 8.267515 11.76 5.978658 11.76  Q 3.70953 11.76 2.407248 9.313287  L 0 9.313287  L 0 8.622684  L 2.979463 8.622684  L 2.42698 6.846846  L 0 6.846846  L 0 6.097047  L 2.979463 6.097047  L 2.42698 4.340939  L 0 4.340939  L 0 3.650335  L 2.979463 3.650335  L 2.42698 1.874497  L 0 1.874497  L 0 1.144429  L 4.755301 1.144429  Q 4.873691 0 5.978658 0  Q 7.083624 0 7.202013 1.144429  L 11.977046 1.144429  L 11.977046 1.874497  L 9.550067 1.874497  L 8.997585 3.650335  L 11.957316 3.650335  L 11.957316 4.340939  L 9.550067 4.340939  L 8.997585 6.097047  L 11.957316 6.097047  Z  M 6.708724 1.144429  Q 6.610067 0.414362 5.978658 0.414362  Q 5.347249 0.414362 5.24859 1.144429  L 6.708724 1.144429  Z  M 8.662148 1.874497  L 3.295167 1.874497  L 3.867383 3.650335  L 8.109664 3.650335  L 8.662148 1.874497  Z  M 8.662148 4.340939  L 3.295167 4.340939  L 3.867383 6.097047  L 8.109664 6.097047  L 8.662148 4.340939  Z  M 8.662148 6.846846  L 3.295167 6.846846  L 3.867383 8.622684  L 8.109664 8.622684  L 8.662148 6.846846  Z  M 8.4451 9.313287  L 3.295167 9.313287  Q 4.360671 11.069396 5.978658 11.069396  Q 7.596643 11.069396 8.4451 9.313287  Z " />
</svg>