<svg xmlns="http://www.w3.org/2000/svg" viewBox="-26.6 621.4 718.2 405.2">
  <g transform="scale(1,-1) translate(0,-1000)">
    <path d="M0 332Q0 340 6.0 346.0Q12 352 20 352Q26 352 30 349L164 271Q225 322 333 322Q440 322 502 270L635 349Q640 352 645 352Q653 352 659.0 346.0Q665 340 665 332Q665 321 655 315L529 240Q549 211 549.0 176.0Q549 141 529 112L655 37Q665 32 665 20Q665 12 659.0 6.0Q653 0 645 0Q640 0 635 3L502 81Q441 30 333.0 30.0Q225 30 164 81L30 3Q26 0 20 0Q12 0 6.0 6.0Q0 12 0 20Q0 32 10 37L136 111Q116 140 116.0 176.0Q116 212 136 241L10 315Q0 320 0 332ZM177 229Q156 206 156.0 176.0Q156 146 177 123Q182 120 185 115Q234 70 332 70Q435 70 484 119Q484 119 486 121Q509 144 509 176Q509 205 489 228Q485 231 482 235Q432 282 332 282Q234 282 185 237Q182 232 177 229Z" fill="currentColor"/>
  </g>
</svg>