<svg xmlns="http://www.w3.org/2000/svg" viewBox="0 -2048 2048 2048">
	<path fill="#000000" d="M626 -357Q626 -221 557 -118Q479 0 349 0Q250 0 175 -76Q100 -152 100 -251Q100 -335 173.5 -493.5Q247 -652 247 -723Q247 -809 139 -959V-973L152 -993L166 -998Q292 -977 431 -837Q519 -748 572.5 -615.5Q626 -483 626 -357ZM600 -356Q600 -477 548.5 -605.5Q497 -734 413 -819Q285 -948 169 -971L166 -967Q272 -818 272 -723Q272 -641 199.5 -488.5Q127 -336 127 -253Q127 -164 193.5 -95Q260 -26 349 -26Q468 -26 539 -136Q600 -231 600 -356Z"/>
</svg>