<svg xmlns="http://www.w3.org/2000/svg" viewBox="50.3 -992.7 1342.4 722.4">
	<path fill="currentColor" d="M1343 -340L1311 -325Q1263 -338 1179 -412Q1112 -473 999 -473Q903 -473 724.5 -396.5Q546 -320 445 -320Q291 -320 195.5 -410.5Q100 -501 100 -654Q100 -687 125 -733Q238 -943 555 -943Q726 -943 925 -840Q1118 -739 1226 -600Q1343 -449 1343 -369ZM1317 -356V-369Q1317 -438 1205 -584Q1103 -717 913 -816Q719 -917 555 -917Q252 -917 149 -721Q126 -677 126 -654Q126 -512 214 -429Q302 -346 445 -346Q544 -346 722 -422.5Q900 -499 999 -499Q1087 -499 1146 -467Q1176 -451 1229 -402Q1272 -362 1308 -352Z"/>
</svg>