<svg xmlns="http://www.w3.org/2000/svg" viewBox="0 -2048 2048 2048">
	<path fill="currentColor" d="M673 -1055Q673 -902 618 -818L607 -812H603L590 -823Q569 -948 527 -1004Q494 -1049 418 -1079Q334 -1113 249 -1147Q100 -1217 100 -1352Q100 -1433 154.5 -1487Q209 -1541 290 -1541Q448 -1541 566 -1373Q673 -1220 673 -1055ZM673 -435Q673 -282 618 -198L607 -192H603L590 -203Q569 -328 527 -384Q494 -429 418 -459Q334 -493 249 -527Q100 -597 100 -732Q100 -813 154.5 -867Q209 -921 290 -921Q448 -921 566 -753Q673 -600 673 -435ZM673 185Q673 338 618 422L607 428H603L590 417Q569 292 527 236Q494 191 418 161Q334 127 249 93Q100 23 100 -112Q100 -193 154.5 -247Q209 -301 290 -301Q448 -301 566 -133Q673 20 673 185ZM647 -1055Q647 -1209 547 -1354Q437 -1515 290 -1515Q220 -1515 173 -1468.5Q126 -1422 126 -1352Q126 -1262 194 -1209Q233 -1179 342 -1137Q484 -1083 526 -1044Q585 -989 610 -857Q647 -931 647 -1055ZM647 -435Q647 -589 547 -734Q437 -895 290 -895Q220 -895 173 -848.5Q126 -802 126 -732Q126 -642 194 -589Q233 -559 342 -517Q484 -463 526 -424Q585 -369 610 -237Q647 -311 647 -435ZM647 185Q647 31 547 -114Q437 -275 290 -275Q220 -275 173 -228.5Q126 -182 126 -112Q126 -22 194 31Q233 61 342 103Q484 157 526 196Q585 251 610 383Q647 309 647 185Z"/>
</svg>