<svg xmlns="http://www.w3.org/2000/svg" viewBox="0 -2048 2048 2048">
	<path fill="#000000" d="M2843 -1137Q2843 -1122 2824.5 -1099.5Q2806 -1077 2792 -1077Q2788 -1077 2784 -1080Q2757 -1070 2742 -1016Q2733 -976 2724 -935Q2677 -977 2677 -1011Q2677 -1022 2680 -1043Q2683 -1064 2683 -1074Q2651 -1088 2586 -1114Q2598 -1046 2598 -1061Q2598 -1057 2574 -1010Q2551 -1027 2533 -1039Q2533 -1127 2534 -1133Q2428 -1180 2318 -1180Q2321 -1180 2221 -1166Q2125 -1153 2047 -1128Q2030 -1120 1995 -1108Q1885 -1080 1760 -928Q1743 -907 1582 -677Q1639 -607 1758 -471Q1763 -466 1875 -358Q1912 -318 1992 -245Q2104 -162 2229 -162Q2257 -162 2306 -198Q2367 -244 2380 -250Q2418 -267 2486 -267Q2518 -267 2614 -226Q2760 -164 2802 -31Q2822 32 2822 41Q2822 43 2807 74Q2792 81 2772 84Q2760 98 2751 98Q2755 98 2730 95Q2719 175 2715 226Q2679 219 2671 208Q2648 179 2648 145Q2648 151 2659 71Q2610 31 2558 31Q2558 123 2559 135L2543 149Q2533 138 2512 116L2519 25Q2420 24 2224 -1Q2186 -8 2112 -27Q2088 -38 2041 -59Q1854 -131 1684 -326Q1624 -406 1500 -564Q1325 -327 1174 -211Q1170 -208 1016 -120Q813 -4 680 23Q673 24 645 33.5Q617 43 612 43H436Q424 69 423 97Q422 134 420 145Q415 167 391 167Q382 167 371.5 157.5Q361 148 361 139Q361 127 372 102Q383 77 383 65Q383 43 374 43Q333 43 265 76Q282 132 282 136Q282 121 264 209Q252 216 227 229L215 221Q210 165 204 109Q196 93 103 59Q100 44 100 9Q100 1 103 -4Q145 -69 218 -139Q297 -216 360 -244Q397 -261 461 -261Q519 -261 561 -241Q570 -237 603 -209Q671 -152 727 -152Q749 -152 866 -201Q869 -202 971 -261Q1172 -377 1406 -695Q1396 -725 1245 -915Q1152 -1032 1076 -1090Q1062 -1097 1034 -1113Q887 -1210 609 -1210Q571 -1210 453 -1182Q444 -1135 424 -1041L410 -1032H390Q380 -1083 380 -1081Q380 -1099 400 -1163Q356 -1139 295 -1122Q297 -1102 297 -1084Q297 -1026 267 -990Q261 -983 226 -972Q226 -990 230 -1025Q234 -1060 234 -1078Q234 -1105 204 -1117Q177 -1126 151 -1135Q131 -1183 131 -1184Q131 -1246 225 -1336Q289 -1397 372 -1434Q417 -1454 462 -1454Q469 -1454 483.5 -1451.5Q498 -1449 506 -1449Q544 -1449 592 -1416Q650 -1377 672 -1370Q715 -1364 799 -1350Q928 -1322 1006 -1295Q1104 -1261 1258 -1108Q1395 -972 1459 -866Q1481 -830 1494 -811Q1543 -887 1645 -1036Q1670 -1063 1720 -1116Q1737 -1136 1776 -1173Q1783 -1178 1808 -1192Q1858 -1220 1907 -1246Q1956 -1272 2015 -1287Q2115 -1296 2293 -1334Q2297 -1335 2323 -1358Q2396 -1421 2494 -1421Q2576 -1421 2600 -1406Q2673 -1360 2732 -1295Q2742 -1284 2841 -1164Q2843 -1157 2843 -1137ZM2471 -1257Q2471 -1294 2447 -1329Q2446 -1330 2423 -1388Q2411 -1385 2400 -1381Q2404 -1342 2418 -1281Q2419 -1280 2464 -1235Q2471 -1244 2471 -1257ZM2731 -1055Q2723 -1059 2706 -1066Q2701 -1028 2701 -1014V-1001Q2707 -991 2714 -980ZM2575 -1063Q2575 -1073 2569 -1093.5Q2563 -1114 2562 -1123L2559 -1124V-1049Q2561 -1047 2566 -1043Q2575 -1059 2575 -1063ZM2459 -79V-87Q2459 -163 2396 -232Q2386 -229 2379 -225Q2387 -183 2395 -140Q2407 -97 2439 -68Q2441 -68 2459 -79ZM2705 112V94Q2689 90 2679 86Q2671 137 2671 144Q2671 184 2696 197Q2697 184 2701 154Q2705 127 2705 112ZM2545 28L2537 21Q2536 54 2532 119L2543 114Q2540 112 2540 98Q2540 94 2539 85.5Q2538 77 2538 73Q2538 29 2545 28ZM2799 41Q2799 28 2776 -31.5Q2753 -91 2745 -101Q2676 -181 2560 -221Q2493 -244 2485 -244Q2453 -244 2416 -237Q2448 -202 2467 -167Q2486 -132 2485 -66Q2441 -45 2439 -45Q2428 -45 2407 -67Q2386 -89 2381 -102Q2379 -107 2359 -211Q2341 -193 2302 -161Q2265 -138 2234 -138Q2146 -138 2042 -189Q1944 -237 1738 -458Q1682 -525 1569 -658Q1514 -588 1514 -584Q1514 -566 1701 -341Q1824 -194 1990 -105Q2164 -13 2349 -5Q2589 5 2619 18Q2632 23 2675 54Q2703 74 2738 75Q2716 64 2674 39L2688 25Q2758 60 2780 60L2786 56Q2758 32 2736 -7H2759Q2780 19 2788 55Q2799 47 2799 41ZM2820 -1143Q2820 -1157 2770 -1220Q2723 -1279 2704 -1295Q2599 -1384 2581 -1391Q2560 -1399 2531 -1399Q2476 -1399 2431 -1390Q2447 -1375 2486 -1314Q2497 -1297 2497 -1260Q2497 -1240 2469 -1203Q2408 -1247 2396 -1272Q2393 -1280 2378 -1371Q2357 -1354 2313 -1322Q2277 -1296 2177 -1286Q2044 -1271 2028 -1267Q1929 -1242 1845 -1188Q1826 -1178 1791 -1156Q1727 -1105 1665 -1025Q1633 -973 1566 -871Q1515 -806 1417 -674Q1380 -623 1244 -467Q1071 -270 881 -182Q872 -178 730 -129Q662 -129 590 -193Q575 -70 511 -27Q498 -21 472 -9H454Q443 -75 443 -71Q443 -96 469 -134Q489 -162 510 -191Q518 -203 534 -227Q495 -238 459 -238Q374 -238 305 -186Q268 -158 189 -68Q168 -46 147 -23Q124 4 124 32Q124 35 125 44Q137 53 143 53Q189 53 206 43Q230 29 235 29Q238 30 237 34L243 33Q222 67 190 71L206 78Q243 59 314 28Q349 17 621 17Q601 17 681 0Q832 -32 1018 -147Q1067 -172 1160 -228Q1268 -307 1380 -445Q1473 -568 1567 -692Q1634 -788 1700 -884Q1776 -991 1862 -1057Q1882 -1076 1927 -1108Q2015 -1151 2140 -1178Q2258 -1203 2318 -1203Q2329 -1203 2349.5 -1199.5Q2370 -1196 2378 -1195Q2446 -1190 2535 -1159Q2611 -1130 2687 -1101Q2713 -1089 2741 -1076Q2745 -1076 2762 -1090Q2736 -1101 2731 -1104Q2716 -1114 2711 -1132Q2737 -1130 2792 -1101Q2820 -1122 2820 -1143ZM1477 -792Q1387 -945 1217 -1115Q1082 -1249 945 -1292Q925 -1298 799 -1327Q748 -1334 697 -1341Q652 -1348 601 -1386Q592 -1300 561 -1257Q541 -1229 521 -1229Q513 -1229 492 -1252V-1334Q515 -1361 560 -1414Q529 -1431 462 -1431Q437 -1431 378 -1412Q326 -1395 243 -1317Q154 -1233 154 -1186Q155 -1183 157 -1178Q171 -1192 183 -1199Q191 -1191 191 -1186Q191 -1176 166 -1159L167 -1158H208L265 -1183L280 -1170Q249 -1147 214 -1136Q232 -1130 234 -1130Q262 -1130 347 -1161Q371 -1176 423 -1199Q551 -1233 603 -1233Q792 -1233 879 -1201Q987 -1161 988 -1161Q1050 -1136 1091 -1107Q1161 -1058 1232 -969Q1246 -952 1350 -810Q1374 -779 1421 -715ZM590 -1395Q588 -1396 567 -1409Q561 -1382 518 -1331V-1259L522 -1254Q553 -1278 565 -1322Q581 -1380 590 -1395ZM430 -1176L421 -1173Q403 -1096 403 -1081Q403 -1069 406 -1059Q415 -1098 430 -1176ZM274 -1078Q274 -1085 272 -1098.5Q270 -1112 270 -1117L248 -1110Q257 -1099 257 -1086Q257 -1059 251 -1014Q274 -1043 274 -1078ZM572 -208Q557 -219 541 -225Q535 -184 498 -138Q465 -97 465 -47Q465 -39 468 -32Q481 -33 495 -43Q538 -75 552 -116Q562 -162 572 -208ZM410 44H401Q404 53 405 60Q406 54 410 44ZM400 93Q394 107 385 136L392 144L397 139Q398 135 400 93ZM258 138Q258 133 242 86Q231 92 221 96V104Q221 121 227 151Q235 189 236 199Q240 197 246 193Q258 159 258 138ZM2634 -1291Q2626 -1283 2597 -1283Q2567 -1283 2525 -1304Q2590 -1330 2588 -1330Q2605 -1330 2634 -1291ZM2609 -134Q2591 -120 2576 -120H2563Q2549 -120 2516 -157Q2544 -171 2553 -171Q2556 -171 2609 -134ZM449 -1338Q414 -1313 408 -1313Q404 -1313 396.5 -1316Q389 -1319 385 -1319Q378 -1319 342 -1301Q387 -1361 400 -1361Q403 -1361 449 -1338ZM417 -129Q383 -105 373 -105Q345 -105 315 -130Q343 -158 368 -158Q379 -158 417 -129ZM2602 -1309Q2602 -1316 2594 -1316H2592Q2584 -1316 2584 -1309Q2584 -1303 2592 -1303H2594Q2602 -1303 2602 -1309ZM2564 -154Q2564 -161 2555 -161H2553Q2544 -161 2544 -154Q2544 -147 2553 -147H2555Q2564 -147 2564 -154ZM414 -1339Q414 -1344 406 -1344H404Q396 -1344 396 -1339Q396 -1333 404 -1333H406Q414 -1333 414 -1339ZM376 -139Q376 -143 367 -144H365Q356 -143 356 -139Q356 -135 365 -134H367Q376 -135 376 -139Z"/>
</svg>