<svg xmlns="http://www.w3.org/2000/svg" viewBox="0 0 523 1000">
  <g transform="scale(1,-1) translate(0,-1000)">
    <path d="M90 531Q97 531 105.5 524.0Q114 517 114 511Q114 507 104.5 499.0Q95 491 90 491Q84 491 76.0 499.0Q68 507 68.0 513.0Q68 519 76.0 525.0Q84 531 90 531ZM312 683Q303 683 298.0 687.5Q293 692 292 697L291 702Q291 712 333 742Q305 755 285 755Q267 755 258.0 747.0Q249 739 241.5 723.5Q234 708 203.5 672.5Q173 637 124 595Q181 529 188 458H193Q291 458 367.5 509.5Q444 561 444 619Q444 645 429 670Q392 650 383 645Q379 643 375 643Q369 643 364.5 647.5Q360 652 360 658Q360 667 367 671Q379 678 406.0 691.5Q433 705 452.5 716.5Q472 728 482 738Q445 737 418.5 727.5Q392 718 382.0 707.0Q372 696 363.5 687.5Q355 679 348.0 679.0Q341 679 335 687Q323 683 312 683ZM261 645Q270 645 281.5 635.5Q293 626 293 618Q293 612 280.0 602.0Q267 592 261 592Q253 592 242.5 602.0Q232 612 232 620Q232 627 242.5 636.0Q253 645 261 645ZM101 576Q83 560 75.0 553.0Q67 546 57.0 536.0Q47 526 43.5 519.5Q40 513 40 508Q40 496 48.5 488.0Q57 480 65.5 477.0Q74 474 91 470Q101 480 108 480Q114 480 121.5 474.5Q129 469 131 463L158 460Q150 519 101 576ZM284 795Q327 795 368 768Q415 813 415 913Q415 942 410 984Q415 988 419 988Q433 988 444.5 947.5Q456 907 456 866Q456 807 429 761Q464 769 508 769Q514 769 518.5 764.5Q523 760 523 754Q523 722 464 688Q484 653 484 618Q484 541 396.0 479.5Q308 418 193 418H189Q188 325 171.5 241.0Q155 157 117 11Q114 0 102 0Q96 0 91.5 4.5Q87 9 87 15Q87 15 94.0 41.0Q101 67 111.5 109.5Q122 152 132.5 202.0Q143 252 150.5 311.5Q158 371 159 420Q109 424 56 438Q30 445 15.0 465.0Q0 485 0 509Q0 534 22.0 558.0Q44 582 89.5 619.5Q135 657 165 690Q50 778 50 872Q50 907 63.0 950.5Q76 994 90 994Q94 994 99 990Q94 948 94 919Q94 761 207 743Q227 773 229 775Q249 795 284 795Z" fill="currentColor"/>
  </g>
</svg>