<svg xmlns="http://www.w3.org/2000/svg" viewBox="0 -2048 2048 2048">
	<path fill="#000000" d="M2157 -331H1397Q1397 -338 1415 -232Q1239 -118 1085 202Q1013 109 971 -56Q942 -194 913 -331H100V-353H908Q912 -360 912 -383Q912 -447 902 -475Q887 -517 837 -557Q829 -563 756 -580Q709 -585 616 -601Q533 -632 376 -671Q372 -681 361 -700Q336 -718 294 -758Q287 -767 287 -803Q353 -816 482 -837Q508 -831 562 -840Q596 -870 667 -930Q707 -963 769.5 -992.5Q832 -1022 867 -1022Q898 -1084 916 -1211Q935 -1342 943 -1428Q953 -1441 963 -1441Q1003 -1328 1056 -1126Q1082 -1157 1097 -1247Q1107 -1323 1117 -1400Q1122 -1401 1132 -1407Q1158 -1375 1178.5 -1292.5Q1199 -1210 1199 -1149Q1199 -1099 1173 -1005Q1172 -1003 1162 -985.5Q1152 -968 1152 -959Q1152 -955 1184 -893Q1223 -820 1243 -767Q1277 -677 1385 -353H2157ZM1035 -1096L967 -1354Q954 -1274 942 -1194Q925 -1094 901 -1027H992Q1006 -1045 1035 -1096ZM1350 -355Q1309 -489 1267 -623Q1213 -789 1161 -896Q1150 -918 1130 -927Q1115 -891 1085 -874L1070 -889Q1169 -990 1169 -1161Q1169 -1255 1137 -1325Q1129 -1152 996 -984Q992 -960 978 -915Q962 -915 958 -920Q956 -934 961.5 -952Q967 -970 967 -976Q967 -987 958 -997H875Q835 -997 767 -958Q705 -923 679 -894Q619 -825 580 -815Q548 -816 493 -814Q397 -803 315 -778Q320 -773 322 -764Q361 -741 442 -730Q553 -715 580 -708Q585 -705 585 -701Q585 -691 575 -681Q503 -712 446 -710H393V-697Q502 -660 657 -613Q671 -610 756 -602Q820 -597 849 -580Q906 -546 928 -490Q937 -466 939 -419Q941 -387 942 -355ZM1386 -244Q1376 -275 1361 -329H948V-299Q948 -285 972 -175Q998 -53 1019 13Q1035 65 1082 149Q1113 53 1197 -58Q1286 -176 1386 -244ZM876 -829Q871 -829 857.5 -825.5Q844 -822 836 -822Q810 -822 772 -847Q773 -864 796 -877Q831 -896 833 -898Q849 -875 876 -829ZM841 -849V-859H819V-849Z"/>
</svg>