<svg xmlns="http://www.w3.org/2000/svg" viewBox="0 -2048 2048 2048">
	<path fill="#000000" d="M2003 218H1255Q1249 218 1223 215Q1193 210 1179 209Q1144 206 1073 199Q969 187 758 161Q708 159 613 136Q582 121 525 3Q456 -140 421 -232Q382 -362 280 -615Q252 -628 202 -658Q183 -673 163 -707Q148 -734 132 -761Q154 -782 183 -795Q197 -778 227 -748Q240 -742 263 -731Q276 -731 276 -747Q276 -785 191 -835Q146 -858 100 -882Q104 -898 112 -928Q136 -920 167 -919Q250 -916 316 -805Q353 -728 389 -650Q442 -541 540 -391Q622 -265 705 -139Q708 -142 708 -150Q708 -150 662 -313Q611 -494 589 -589Q582 -632 562 -706Q537 -723 491 -769Q477 -788 463 -827Q442 -886 441 -889Q467 -902 487 -902Q494 -902 520 -869Q552 -829 567 -816Q580 -816 580 -832Q580 -876 532 -931Q489 -980 436 -1010Q457 -1039 464 -1061Q535 -1031 590 -973Q651 -909 658 -846Q664 -793 672 -756Q684 -702 742 -580Q808 -441 827.5 -388Q847 -335 887 -228Q893 -204 899 -180Q908 -150 924 -146Q1033 -117 1239 -78Q1421 -43 1438 -43Q1476 -43 1476 -110Q1476 -155 1437 -215Q1428 -228 1371 -237Q1328 -240 1243 -253Q1152 -290 970 -338Q966 -352 949 -378Q928 -393 906 -408.5Q884 -424 884 -441V-469Q977 -475 1158 -503Q1189 -529 1253 -579Q1334 -637 1392 -665Q1412 -668 1450 -684Q1459 -690 1472 -734Q1486 -783 1500 -857Q1509 -925 1518 -993Q1530 -1079 1548 -1094Q1582 -1012 1601 -933Q1637 -790 1639 -784Q1677 -833 1689 -916Q1698 -986 1706 -1056Q1710 -1056 1718 -1054Q1780 -954 1780 -814Q1780 -755 1767 -701Q1764 -687 1747 -653Q1732 -623 1732 -616Q1765 -570 1809 -484Q2003 165 2003 177ZM1620 -749L1547 -1019Q1530 -893 1511 -793Q1508 -779 1497 -741Q1487 -707 1487 -701V-684Q1482 -683 1564 -683Q1581 -683 1594.5 -705Q1608 -727 1620 -749ZM1976 190Q1938 44 1871 -185Q1842 -288 1814 -392Q1775 -513 1718 -587Q1705 -568 1676 -534Q1673 -537 1666.5 -540.5Q1660 -544 1657 -547Q1719 -632 1738 -693Q1753 -740 1753 -816Q1753 -892 1723 -982Q1710 -855 1650 -746Q1619 -704 1579 -644Q1577 -621 1567 -576H1549Q1549 -620 1550 -661H1474Q1443 -661 1387 -640Q1325 -617 1300 -590Q1207 -492 1170 -474Q1141 -475 1089 -473Q971 -458 911 -441Q924 -424 950 -402Q975 -401 1019 -398Q1074 -394 1172 -370V-356L1163 -347Q1065 -374 1035 -373H980L986 -362Q1084 -327 1227 -279Q1284 -275 1392 -260Q1417 -256 1453 -236Q1488 -186 1495 -158Q1497 -150 1497 -110Q1497 -72 1495 -69Q1437 18 1327 190ZM1406 -24Q1238 -52 908 -124Q887 -130 880 -159Q873 -188 866 -217Q838 -294 786 -431Q739 -534 692 -636Q641 -749 636 -825Q632 -845 626 -878Q619 -920 562 -972Q509 -1019 469 -1029Q469 -1019 474 -1011Q529 -984 569.5 -922Q610 -860 607 -814Q581 -790 569 -790Q550 -790 515 -832Q487 -865 480 -880Q487 -844 512 -785Q549 -757 589 -712Q661 -358 762 -60ZM1414 6Q1178 -9 744 -39Q615 -233 373 -623Q364 -639 353.5 -684Q343 -729 316 -778Q294 -818 237 -860Q180 -902 150 -901H127Q303 -807 303 -744Q293 -699 271 -699Q252 -699 211 -727Q208 -729 182 -760Q179 -762 169 -756Q185 -724 224 -674Q257 -664 301 -631Q321 -588 413 -333Q466 -184 544 -7Q565 41 584 68Q596 88 624 115Q650 125 779 140Q866 151 1025 167Q1064 171 1137 177Q1227 182 1293 191Q1354 109 1414 6ZM1464 -491H1399Q1392 -491 1381 -501Q1367 -513 1364 -515Q1404 -555 1425 -555Q1426 -555 1464 -516ZM1428 -518L1407 -525V-517L1425 -511Z"/>
</svg>