<svg xmlns="http://www.w3.org/2000/svg" viewBox="0 -2048 2048 2048">
	<path fill="currentColor" d="M1918 -84Q1909 -57 1892 -46Q1726 60 1394 124Q1295 143 1040 155Q1041 162 1041 203Q1053 206 1077 214Q1096 223 1119.5 252Q1143 281 1143 299Q1143 364 1095 417H1072Q1064 408 1064 394Q1064 385 1072 367.5Q1080 350 1080 341Q1080 266 1002 266Q921 266 921 322Q921 332 929 353Q937 374 937 384Q937 409 912 421Q858 381 858 305Q858 232 957 199V158Q474 126 181 -11Q125 -37 101 -74Q110 -88 131 -109Q371 -229 765 -277Q829 -282 956 -298L957 -412Q825 -421 564 -451Q553 -453 477 -474Q333 -514 280 -535Q173 -575 100 -635Q116 -670 140 -682Q168 -691 197 -701Q287 -736 471 -795Q498 -800 552 -809Q623 -823 767 -847Q826 -855 957 -866V-894H947Q968 -894 844 -897Q874 -999 874 -995Q874 -1068 851 -1080Q816 -1098 795 -1096L606 -1077Q577 -1074 540 -1098Q527 -1114 502 -1141V-1160Q572 -1170 708 -1199Q722 -1203 744 -1233Q773 -1270 778 -1275Q792 -1288 869 -1308Q879 -1349 883 -1419Q888 -1507 891 -1531L909 -1534Q930 -1495 969 -1389Q979 -1451 1010 -1574Q1031 -1527 1052 -1480Q1060 -1455 1060 -1368Q1060 -1348 1057 -1308.5Q1054 -1269 1054 -1249Q1054 -1243 1073 -1214Q1080 -1203 1101 -1128Q1108 -1104 1134 -901Q1127 -893 1041 -896V-866Q1111 -863 1252 -850Q1326 -840 1480 -813Q1512 -808 1696 -750Q1753 -734 1863 -692Q1917 -666 1917 -645Q1917 -624 1802 -570Q1645 -497 1545 -473Q1290 -413 1041 -410V-298Q1176 -287 1366 -269Q1408 -259 1490 -240Q1624 -209 1687 -191Q1800 -158 1876 -118Q1876 -118 1918 -84ZM957 -1346Q957 -1400 908 -1483L895 -1313H900Q915 -1313 934 -1322Q957 -1333 957 -1346ZM1891 -645Q1891 -670 1723 -719Q1710 -723 1664 -738Q1355 -840 1042 -840V-431Q1528 -462 1719 -554L1843 -614Q1891 -637 1891 -645ZM1109 -920Q1105 -976 1087 -1088Q1081 -1121 1063 -1185Q1058 -1199 1040 -1219Q1029 -1231 1029 -1273Q1029 -1291 1032.5 -1326.5Q1036 -1362 1036 -1380V-1461Q1036 -1465 1016 -1508Q1006 -1442 972 -1323Q961 -1299 889 -1287Q810 -1274 793 -1259Q785 -1252 762 -1214Q745 -1187 715 -1177Q678 -1165 533 -1143Q540 -1132 553 -1116Q579 -1098 608 -1100Q794 -1116 797 -1116Q808 -1116 840 -1107Q897 -1091 897 -995Q897 -980 878 -920H979Q984 -889 981 -864H1017Q1015 -880 1015 -884Q1015 -898 1019 -920ZM1015 -433V-840H983V-433Q997 -434 1015 -433ZM1889 -77Q1860 -108 1778 -136Q1451 -249 1217 -260Q1129 -264 1042 -274V132Q1435 125 1722 11Q1766 -7 1811 -24Q1862 -48 1889 -77ZM1014 -299V-407Q1008 -407 983 -408V-299ZM956 -434V-840H907Q897 -840 843 -833Q736 -819 672.5 -809Q609 -799 487 -775Q374 -748 234 -695Q203 -685 146 -661Q139 -657 130 -641Q195 -580 389 -521Q448 -502 566 -474Q660 -459 956 -434ZM1015 135V-274H983V135ZM1117 302Q1117 264 1068 239Q1042 227 1016 215Q1014 159 1014 159H983V221Q949 220 915 247Q881 274 881 307Q881 354 910 386V365Q895 327 895 331Q895 276 947 251Q963 243 1005 243Q1037 243 1068 260Q1103 280 1103 310Q1103 323 1097 346.5Q1091 370 1091 382Q1117 358 1117 302ZM956 132V-275H950Q935 -275 772 -254Q354 -200 144 -90Q137 -87 130 -75Q135 -67 147 -55Q296 40 567 92Q590 96 756 117Q877 132 907 132ZM931 -1186Q887 -1186 839 -1194Q872 -1230 879 -1230Q887 -1230 931 -1186Z"/>
</svg>