<svg xmlns="http://www.w3.org/2000/svg" viewBox="0 -2048 2048 2048">
	<path fill="#000000" d="M1563 156H886Q887 167 887 208Q899 211 923 219Q937 226 963 257.5Q989 289 989 303Q989 367 941 421H917Q910 409 910 397Q910 391 912 385Q923 354 923 317Q923 271 850 271Q768 271 768 328Q768 340 774.5 358.5Q781 377 781 388Q781 402 780 411Q773 416 761 426Q738 417 721 376Q705 340 705 312Q705 235 803 204V154H476Q488 154 359 182Q367 202 391 279L346 290Q321 221 306 188H229Q205 188 168 158Q142 137 142 100Q142 24 165 11Q118 -4 100 -43V-63Q109 -62 135 -56Q158 -50 170 -50H223L109 -390Q110 -407 120 -439Q130 -457 163 -473Q196 -489 218 -489Q253 -489 288 -455.5Q323 -422 323 -387Q323 -285 285 -285Q281 -285 272.5 -286.5Q264 -288 259 -288Q260 -296 266 -319Q272 -342 272 -352Q272 -380 253.5 -406Q235 -432 208 -432Q166 -432 166 -378Q166 -338 283 -47L296 -48Q361 -53 409 -8Q421 4 444 21Q455 22 473 24L803 -36V-432Q801 -433 797 -434Q751 -436 660 -442Q356 -465 151 -573Q100 -600 100 -622Q100 -640 127 -653Q216 -694 367 -732Q420 -747 528 -770Q592 -780 721 -798Q749 -799 804 -802Q805 -806 805 -812L804 -888H793Q773 -888 690 -890Q720 -965 720 -989Q720 -1054 699 -1071Q695 -1074 666.5 -1080Q638 -1086 632 -1086L454 -1071Q420 -1068 389 -1088Q387 -1089 340 -1148Q412 -1162 555 -1193Q568 -1196 591 -1227Q619 -1264 625 -1269Q638 -1280 715 -1301Q725 -1384 738 -1536Q792 -1475 814 -1385Q825 -1446 856 -1567Q896 -1480 898 -1469Q906 -1442 906 -1355Q906 -1337 903 -1300Q900 -1263 900 -1245Q900 -1234 919 -1209Q953 -1164 980 -895Q972 -886 888 -889V-801Q1269 -764 1475 -679Q1563 -643 1563 -623Q1563 -606 1513 -576Q1472 -552 1444 -542Q1384 -518 1262 -479Q1084 -438 891 -434L887 -433V-37Q1091 -20 1108 -18Q1233 -4 1326 22L1369 -396H1538ZM803 -1340Q803 -1388 755 -1473L741 -1306H747Q762 -1306 782.5 -1316.5Q803 -1327 803 -1340ZM1536 -622Q1531 -630 1524 -634Q1418 -692 1213 -735Q1022 -776 888 -776V-455H897Q1028 -455 1256 -502Q1305 -519 1405 -552Q1514 -588 1536 -622ZM954 -913Q945 -1078 910 -1176Q906 -1189 887 -1209Q875 -1224 875 -1254Q875 -1277 880 -1323Q885 -1369 885 -1393Q885 -1454 862 -1501Q853 -1438 819 -1317Q809 -1294 738 -1281Q657 -1266 640 -1252Q627 -1226 578 -1180Q573 -1176 561 -1170Q556 -1168 379 -1133Q408 -1090 455 -1094Q629 -1109 635 -1109Q674 -1109 708.5 -1092.5Q743 -1076 743 -987Q743 -983 724 -913Q722 -913 819 -912L818 -911L830 -906V-802Q845 -803 861 -802V-906L873 -911L872 -912Q883 -912 913 -913Q941 -913 954 -913ZM861 -456V-777H830V-456ZM803 -455V-779H781Q698 -779 527 -747Q292 -703 135 -631Q132 -630 125 -621Q132 -611 139 -606Q189 -572 306 -532Q414 -495 484 -484Q583 -469 729 -460Q815 -455 803 -455ZM861 -35V-432H830V-35ZM1539 131L1518 -371H1388Q1376 -236 1350 34L1341 44Q1299 34 1213 17Q1096 -3 983 -6Q973 -6 953.5 -8.5Q934 -11 923 -11Q802 -11 784 -8L456 47Q439 50 411 25Q374 -9 370 -11Q341 -27 170 -27Q166 -27 135 -33Q141 -25 156 -14Q195 2 248 2Q255 2 270.5 -1Q286 -4 293 -4Q305 -4 305 6V15Q275 25 247 25Q239 25 224 22Q209 19 201 19Q165 19 165 58Q165 126 191 146Q213 162 285 162Q378 162 445 140Q472 131 477 131ZM963 307Q963 281 930.5 255Q898 229 871 231Q865 226 862 221Q860 178 861 158H830V225Q794 227 761 252.5Q728 278 728 313Q728 357 755 391L757 374Q742 341 742 327Q742 282 794 256Q810 248 851 248Q881 248 913 266Q950 287 950 314Q950 335 942 360.5Q934 386 934 388V390Q963 362 963 307ZM303 -374Q303 -388 296 -407Q295 -425 265 -445.5Q235 -466 216 -466Q169 -466 141 -428Q132 -416 132 -390Q132 -378 246 -51L252 -47H257Q143 -378 143 -384Q143 -410 163 -432.5Q183 -455 208 -455Q218 -455 241 -445.5Q264 -436 269 -428Q290 -397 290 -357Q290 -331 285 -309Q303 -331 303 -374ZM367 264L338 186L332 187L359 266ZM773 -1177Q735 -1178 686 -1188Q718 -1223 726 -1223Q734 -1223 773 -1177Z"/>
</svg>