<svg xmlns="http://www.w3.org/2000/svg" viewBox="0 -2048 2048 2048">
	<path fill="currentColor" d="M2008 -201Q1980 -173 1861 -152Q1750 -133 1682 -138L1076 -183Q1064 -184 1042 -173V369H954V-161Q901 -158 792 -142Q688 -127 686 -127Q564 -127 493 -179Q462 -202 409 -276Q372 -328 331 -328Q326 -328 293.5 -322.5Q261 -317 253 -317Q210 -317 163 -336Q100 -362 100 -406Q100 -436 148 -474Q196 -512 223 -511Q203 -537 105 -619V-656Q115 -662 130 -674L298 -534Q310 -546 379 -624Q429 -680 437 -680Q451 -680 462 -666Q473 -652 473 -641Q473 -638 373 -521Q439 -485 517 -388Q578 -311 621 -311Q656 -311 957 -399V-965Q959 -964 903 -964Q844 -964 791 -977Q745 -989 699 -1001Q652 -1008 564 -1033Q525 -1049 496 -1112Q499 -1116 504 -1123Q543 -1125 649 -1139Q737 -1151 831 -1240Q864 -1256 924 -1287Q939 -1368 971 -1533H991Q1010 -1480 1046 -1349Q1084 -1408 1076 -1520L1090 -1533Q1114 -1524 1130 -1459Q1143 -1408 1143 -1372Q1143 -1336 1141 -1329Q1115 -1234 1115 -1246Q1115 -1236 1120 -1237Q1171 -1196 1171 -1126Q1171 -1021 1042 -971V-400Q1138 -379 1327 -303Q1472 -244 1576 -244H1982Q1995 -244 2008 -231ZM1026 -1327Q1026 -1354 984 -1466Q979 -1412 954 -1289Q959 -1289 971.5 -1285.5Q984 -1282 990 -1282Q1026 -1282 1026 -1327ZM1143 -1118Q1143 -1156 1101 -1215Q1093 -1204 1078 -1182Q1059 -1192 1059 -1200Q1086 -1223 1105 -1279Q1121 -1327 1121 -1360Q1121 -1382 1107 -1466Q1104 -1416 1067 -1339Q1039 -1280 1010 -1220H991Q986 -1228 992 -1259H929Q904 -1259 833 -1204Q752 -1140 737 -1133Q701 -1117 633 -1110Q581 -1106 529 -1102Q550 -1081 560 -1081H699Q706 -1081 727 -1087Q748 -1093 755 -1093Q759 -1093 769 -1083Q766 -1075 761.5 -1057Q757 -1039 754 -1031Q738 -1031 734 -1038Q736 -1045 733 -1050Q675 -1060 574 -1056Q635 -1047 699 -1029Q734 -1015 794 -999Q854 -997 976 -987V-401H1014V-993Q1143 -1014 1143 -1118ZM1974 -209L1609 -216Q1546 -225 1482 -233Q1404 -246 1337 -273Q1184 -335 1169 -340Q1073 -373 998 -373Q931 -373 792 -328Q653 -283 616 -283Q566 -283 478 -392Q390 -501 323 -501Q315 -501 298.5 -500Q282 -499 275 -499Q249 -498 195 -472Q128 -438 128 -401Q128 -372 175 -353Q212 -339 247 -339Q254 -339 291 -344.5Q328 -350 334 -350Q384 -350 421 -299Q476 -223 499 -206Q565 -155 686 -155L1096 -208L1676 -161Q1689 -160 1704 -160Q1770 -160 1858 -177Q1942 -193 1974 -209ZM445 -642L437 -647L337 -533L345 -528ZM1014 346V-177Q1002 -171 978 -171V346ZM268 -523L182 -598L176 -590L263 -516ZM937 -1156Q922 -1137 911 -1137Q889 -1137 864 -1162Q880 -1193 898 -1193Q923 -1193 937 -1156ZM312 -460Q307 -450 275 -434Q272 -437 262.5 -444Q253 -451 250 -454Q251 -455 260 -466.5Q269 -478 275 -484Q288 -478 312 -460Z"/>
</svg>