<svg xmlns="http://www.w3.org/2000/svg" viewBox="0 -2048 2048 2048">
	<path fill="#000000" d="M2215 -785Q2215 -781 2131 -656Q2034 -512 2004 -462Q1895 -280 1888 -145L1939 151Q1939 168 1920 199H622Q615 199 601 191Q584 180 581 179Q543 163 506 147Q454 126 424 126Q394 126 379 143Q371 152 347 199H239Q234 199 196.5 193Q159 187 140 187Q142 143 134 143L100 148V62Q100 57 124 33Q152 4 160 -8Q158 -28 176 -68Q223 -111 309 -111Q362 -111 488.5 -74Q615 -37 633 -37Q637 -37 696 -44Q759 -51 785 -52Q839 -58 948 -69Q1141 -84 1501 -123Q1532 -127 1542 -165Q1544 -203 1556 -283Q1597 -442 1635 -525Q1711 -687 1827 -734Q1865 -749 1907 -757Q2135 -800 2173 -799H2208Q2215 -798 2215 -785ZM2170 -770H2150Q2119 -764 2065 -755Q2024 -750 1952 -740Q1931 -737 1850 -710Q1776 -686 1716 -613Q1662 -546 1641 -470Q1618 -402 1585 -289Q1582 -243 1570 -159Q1566 -142 1547 -122.5Q1528 -103 1518 -101Q1348 -76 975 -40Q649 -9 622 -9Q398 -83 306 -83Q227 -83 191 -47V-27Q231 -41 305 -66Q316 -45 315 -41Q263 -21 211 -2Q122 37 122 92Q122 112 130 120Q143 119 162 82Q183 41 200 32Q261 2 300 2Q308 2 310.5 14Q313 26 314 27Q279 33 214 55Q178 74 163 159H195Q199 133 213 97Q243 66 356 41Q365 50 365 60Q357 67 279 93Q224 111 224 152V170H269Q266 160 266 152Q266 129 301 114Q350 92 362 81Q367 93 379 109Q412 98 424 98Q449 98 553 134Q562 137 594 155Q621 171 628 171H1910V94Q1910 88 1887.5 -26.5Q1865 -141 1865 -147Q1865 -349 2170 -770ZM376 110Q348 124 298 150V170Q305 170 316.5 173Q328 176 330 176Q350 136 376 110Z"/>
</svg>