<svg xmlns="http://www.w3.org/2000/svg" viewBox="0 -2048 2048 2048">
	<path fill="currentColor" d="M801 -955H644V357H498V-954H400Q409 -1013 409 -1014Q409 -1059 375 -1095Q331 -1058 321 -1053Q317 -1052 288 -1052Q251 -1052 232 -1069Q227 -1082 211 -1104Q190 -1107 148 -1136Q100 -1168 100 -1190Q100 -1229 235 -1409Q262 -1451 320 -1532Q331 -1546 358 -1546Q365 -1546 385.5 -1535Q406 -1524 413 -1524Q420 -1524 429 -1529.5Q438 -1535 445 -1535Q467 -1535 495 -1515Q517 -1499 539 -1482Q597 -1450 701 -1371Q735 -1336 768 -1251Q801 -1166 801 -1115ZM388 -1511Q383 -1511 374 -1515Q365 -1519 358 -1519Q338 -1519 318 -1487Q344 -1500 388 -1511ZM774 -984V-1158Q774 -1220 696 -1324Q611 -1437 525 -1459Q522 -1446 509 -1409Q497 -1377 497 -1370Q497 -1363 508 -1325.5Q519 -1288 519 -1280Q519 -1236 479 -1187Q458 -1161 399 -1104Q432 -1066 432 -1006Q432 -989 426 -984ZM497 -1280Q497 -1287 486 -1327.5Q475 -1368 475 -1375Q475 -1382 486 -1415Q497 -1448 497 -1454Q497 -1470 484 -1490Q468 -1514 448 -1514Q421 -1514 374 -1448Q371 -1451 365 -1455Q359 -1459 356 -1462Q361 -1467 361 -1474Q328 -1474 226 -1347Q128 -1224 128 -1198Q128 -1191 137 -1182Q139 -1216 163 -1231Q167 -1229 177 -1222V-1164Q166 -1153 166 -1151Q201 -1128 212 -1128Q219 -1128 247 -1149.5Q275 -1171 282 -1171Q296 -1171 296 -1153Q280 -1140 247 -1110V-1091Q273 -1074 293 -1074Q333 -1074 415 -1152.5Q497 -1231 497 -1280ZM616 333V-953H519V333ZM355 -1339L348 -1313Q326 -1313 271 -1291Q268 -1294 264.5 -1300.5Q261 -1307 258 -1310Q289 -1328 286 -1350H331Q339 -1350 346 -1344.5Q353 -1339 355 -1339Z"/>
</svg>