<svg xmlns="http://www.w3.org/2000/svg" viewBox="17.3 -1103.7 2232.4 1186.4">
	<path fill="currentColor" d="M2167 0H561Q531 0 478 -54Q456 -76 453 -108Q451 -131 451 -154Q451 -186 456.5 -232Q462 -278 462 -297Q462 -314 460 -330Q453 -378 395 -534Q360 -545 322 -545Q261 -545 209 -492Q194 -495 149 -532Q100 -573 100 -593Q100 -610 154 -664Q182 -692 245.5 -752.5Q309 -813 341 -845Q315 -854 260 -888Q168 -967 168 -1005V-1021H222Q221 -1021 267 -1010Q333 -994 450 -916Q482 -911 546 -877Q682 -1007 818 -1007Q872 -1007 905 -986Q879 -894 725 -851Q682 -843 596 -806Q642 -723 662 -673Q679 -631 704 -577Q711 -562 748 -518Q795 -462 817 -462H2167V-391H2120V-80Q2135 -73 2167 -76ZM876 -977Q852 -983 814 -983Q692 -983 515 -820L768 -964Q772 -958 780 -947L597 -835Q673 -859 748 -883Q849 -918 876 -977ZM2147 -24V-57Q2110 -57 2095 -62V-406Q2101 -413 2147 -415V-443H802Q762 -443 696 -556Q648 -640 628 -697Q613 -739 570 -799Q540 -785 546 -785Q518 -802 496 -831Q519 -852 525 -866Q506 -882 472 -882Q425 -882 391 -855Q364 -833 221 -699Q119 -603 119 -593Q119 -576 156 -554Q175 -569 213 -598Q225 -586 225 -582Q188 -554 182 -537L198 -520Q225 -533 252 -547Q298 -569 320 -569Q326 -569 366.5 -561.5Q407 -554 413 -554Q433 -554 459 -576Q500 -611 502 -612Q514 -600 514 -596Q457 -533 423 -534Q433 -487 458 -397Q471 -372 484 -329Q485 -301 480 -245Q474 -185 474 -160Q474 -112 487 -83Q493 -69 524 -46.5Q555 -24 561 -24ZM428 -903Q414 -928 343 -962.5Q272 -997 237 -997H197Q207 -964 266 -915.5Q325 -867 358 -867Q365 -867 390 -882Q422 -900 428 -903ZM2078 -58H1800V-412H2078ZM1767 -58H1481V-412H1767ZM1444 -58H1156V-412H1444ZM1121 -58H826V-412H1121ZM399 -749Q378 -718 360 -718Q340 -718 322 -744Q331 -766 360 -766Q365 -766 399 -749ZM182 -584Q172 -584 172 -574H149Q154 -584 154 -606H182ZM2056 -78V-390H1816V-78ZM1748 -78V-390H1498V-78ZM1425 -78V-390H1176V-78ZM1097 -78V-390H843V-78Z"/>
</svg>