<svg xmlns="http://www.w3.org/2000/svg" viewBox="0 -2048 2048 2048">
	<path fill="currentColor" d="M1676 -387H1386V-80H1675V0H100L270 -462H835Q867 -506 867 -663Q867 -700 852 -790Q838 -874 833 -881Q809 -918 785 -918Q749 -918 631 -815Q602 -790 588 -763Q585 -763 575 -760Q565 -757 559 -757Q556 -757 493 -780Q482 -784 455 -806Q455 -809 452.5 -820.5Q450 -832 450 -838Q450 -866 490 -919Q518 -953 546 -988Q634 -1122 724 -1200Q768 -1238 792 -1239Q803 -1268 826 -1327Q837 -1322 845 -1297Q854 -1310 875 -1327Q881 -1293 895 -1243Q901 -1253 915 -1276Q935 -1265 976 -1246Q978 -1242 974 -1228Q971 -1217 977 -1217Q989 -1217 1010 -1225Q1011 -1208 1002 -1190Q1006 -1188 1030 -1200Q1033 -1193 1053 -1166Q1067 -1145 1067 -1133Q1067 -1122 1057 -1114Q1055 -1115 1085 -1115Q1097 -1084 1108 -1052.5Q1119 -1021 1116 -1000Q1119 -997 1136 -997Q1136 -992 1142 -974Q1148 -956 1148 -946Q1148 -933 1141 -924Q1148 -922 1157 -912Q1160 -897 1167 -866Q1173 -862 1182 -853Q1186 -839 1221 -733Q1209 -735 1188 -721L1292 -462H1676ZM1049 -1135Q1040 -1149 1022 -1175Q1003 -1165 998 -1160Q1010 -1142 1034 -1112Q1049 -1140 1049 -1135ZM955 -1233Q944 -1237 924 -1250Q924 -1249 919 -1242.5Q914 -1236 914 -1230Q914 -1213 946 -1213Q955 -1222 955 -1233ZM876 -1243Q866 -1273 866 -1284Q862 -1272 850 -1248Q863 -1241 876 -1243ZM1099 -1012Q1087 -1060 1073 -1095Q1061 -1089 1044 -1090V-1075L1084 -997ZM1129 -940Q1124 -960 1124 -976H1095Q1102 -959 1114 -930Q1116 -932 1121.5 -935Q1127 -938 1129 -940ZM1141 -900H1125Q1132 -880 1139 -858Q1141 -868 1141 -900ZM1170 -809L1165 -829Q1150 -814 1150 -814Q1154 -810 1155 -804Q1157 -804 1162.5 -806.5Q1168 -809 1170 -809ZM1196 -745V-760Q1183 -774 1180 -774Q1180 -773 1175.5 -771.5Q1171 -770 1171 -764Q1171 -758 1176 -749.5Q1181 -741 1181 -740Q1186 -745 1196 -745ZM1268 -463Q1233 -548 1167 -714Q1136 -805 1083 -950Q1033 -1078 997 -1130Q930 -1226 838 -1226Q784 -1226 718 -1160Q659 -1093 600 -1026Q497 -910 472 -853Q472 -842 471 -822Q499 -795 511 -795Q516 -795 530 -806Q544 -817 549 -817Q562 -817 560 -802Q552 -793 539 -779H575Q581 -805 667 -871Q757 -939 794 -939Q802 -939 821 -923Q840 -907 845 -898Q884 -827 884 -669Q884 -578 859 -463ZM1656 -20V-59H1369V-408H1656V-445H286L130 -20ZM833 -1096Q825 -1094 805 -1086Q785 -1078 781 -1078Q777 -1078 762.5 -1082.5Q748 -1087 741 -1087V-1102Q765 -1128 783 -1128Q797 -1128 833 -1110ZM1326 -58H1013V-405H1326ZM538 -849Q538 -847 536 -841.5Q534 -836 534 -834Q533 -834 529.5 -836Q526 -838 520 -838Q524 -838 498 -825L488 -835Q499 -858 513 -858Q520 -858 538 -849ZM974 -58H655V-405H974ZM620 -64H184L307 -407H620ZM795 -1107H776L770 -1100H790ZM1309 -79V-386H1032V-79ZM955 -79V-386H674V-79ZM601 -79V-386H315L201 -79Z"/>
</svg>