<!-- Created with Inkscape (http://www.inkscape.org/) -->
<svg viewBox="0 0 18 18"
   xmlns="http://www.w3.org/2000/svg">
  <g>
    <path
       d="M 2.7738927,12.586082 C 3.5898766,12.325863 4.4512956,12.673329 5.1086289,13.165789 C 5.9355525,13.785399 6.8104128,14.389765 7.4243914,15.229780 C 7.6819554,15.582267 7.4872311,16.029713 7.2395127,16.345795 C 6.8288397,16.869639 6.5317767,17.529240 5.9388702,17.876258 C 5.5187371,18.122219 5.0483269,17.869802 4.6137930,17.806406 C 4.0301583,17.721221 3.4936801,17.473018 2.9713608,17.209393 C 2.1365195,16.788040 1.1864721,16.532664 0.50486548,15.852259 C -0.11910219,15.229511 -0.066538480,14.162006 0.45220314,13.504019 C 0.73715192,13.142565 1.1150511,12.819130 1.5545078,12.677634 C 1.9470050,12.551290 2.3778714,12.712335 2.7738927,12.586082 z "
       style="fill:currentColor;fill-opacity:1.0000000;fill-rule:evenodd;stroke:none;stroke-width:1.0000000px;stroke-linecap:butt;stroke-linejoin:miter;stroke-opacity:1.0000000" />
  </g>
</svg>