<svg viewBox="0 0 9.027341 8.88"
   xmlns="http://www.w3.org/2000/svg">
  <path
     style="fill:currentColor;stroke:none"
     d="M 3.6655029,1.987726 C 3.1042419,1.987726 2.8254239,2.085588 2.3227559,2.413525 C 1.2364719,3.122197 0.52751793,4.712052 1.0064359,5.863419 C 1.5509749,7.172553 1.8561669,7.297768 2.4371269,7.588043 C 2.9871329,7.86285 3.5147559,7.999792 4.0121089,7.999792 C 4.7171119,7.999792 5.3612899,7.724628 5.9221519,7.176964 C 6.9521259,6.171221 7.2398499,4.79108 6.6699289,3.590061 C 6.1519669,2.498541 5.3836889,2.050733 3.9309249,1.993571 C 3.8353839,1.989811 3.7474349,1.987726 3.6655029,1.987726 z M 7.6914959,0 C 7.8383769,0 7.9453739,0.080563 8.0078199,0.243293 C 8.0702869,0.406073 7.8904619,0.680566 7.5064869,1.008545 C 6.9127449,1.515706 6.7233509,1.974018 7.1075079,1.974018 C 7.2173709,1.974018 7.5861589,1.70168 7.9270379,1.368824 C 8.2796459,1.024511 8.4565199,0.884412 8.6003739,0.884412 C 8.6700099,0.884412 8.7319059,0.91724 8.8022539,0.975623 C 9.1815799,1.290437 9.1293969,1.426791 8.3050719,2.274769 C 7.7499999,2.845769 7.5783969,3.135804 7.6512859,3.379746 C 7.9323119,4.320271 7.9364099,5.634783 7.6605679,6.357067 C 7.2120509,7.531505 6.0697959,8.545882 4.9503089,8.763912 C 4.5541909,8.841063 4.1811479,8.88 3.8286809,8.88 C 2.6762359,8.88 1.7437559,8.463755 0.94382793,7.606012 C -0.11021607,6.475788 -0.31153507,4.485002 0.49212293,3.139312 C 0.93557993,2.396754 1.6836909,1.608949 2.3958469,1.380309 C 2.9502019,1.202331 3.5341899,1.139373 4.0255679,1.139373 C 4.5960699,1.139373 5.0417449,1.22424 5.1712709,1.3125 C 5.2742449,1.382665 5.3811239,1.422802 5.5010209,1.422802 C 5.7645739,1.422802 6.0910029,1.228868 6.5769979,0.733671 C 7.0542069,0.247431 7.4340939,0 7.6914959,0 z " />
</svg>