<svg xmlns="http://www.w3.org/2000/svg" viewBox="0 -2048 2048 2048">
	<path fill="#000000" d="M2525 6Q2525 14 2521.5 22Q2518 30 2518 32Q2504 30 2492 38L2231 -124L2228 -120L2422 154L2112 350L1950 32Q1947 35 1942 38L1698 -124Q1694 -120 1695 -114L1883 154L1732 262Q1763 303 1770 339Q1768 339 1765 342Q1762 345 1754 345Q1749 345 1735 337Q1721 329 1714 329Q1707 329 1691 334.5Q1675 340 1668 340Q1661 340 1595 334.5Q1529 329 1522 329Q1515 329 1395.5 339.5Q1276 350 1269 350Q1264 350 1243.5 342Q1223 334 1213 334Q1206 334 1176.5 342Q1147 350 1140 350Q1133 350 1132 345Q1131 340 1124 340Q1118 340 1107 345Q1096 350 1091 350Q1084 350 1084.5 342Q1085 334 1078 334Q1071 334 1044.5 339.5Q1018 345 1011 345Q1004 345 1002.5 339.5Q1001 334 994 334Q988 334 972 342Q956 350 949 350Q942 350 940.5 345Q939 340 932 340Q925 340 870 345Q815 350 808 350Q735 350 727 349Q719 348 704 341Q689 334 682 334Q675 334 640 342Q605 350 598 350Q593 350 591 343Q590 340 585 340Q579 340 568.5 345Q558 350 553 350Q546 350 546 342Q546 334 539 334Q532 334 506.5 339.5Q481 345 474 345Q468 345 465.5 339.5Q463 334 456 334Q449 334 433 342Q417 350 410 350Q403 350 384.5 345Q366 340 359 340Q321 346 310 341Q317 315 344 282Q428 257 505 247Q569 239 634 231Q682 115 682 16Q682 -55 661 -139Q643 -211 624 -282Q608 -330 583 -417Q568 -489 446.5 -645Q325 -801 303 -891Q294 -929 294 -925V-1074Q294 -1126 274 -1176Q247 -1239 202 -1239Q148 -1239 137 -1180H117Q100 -1205 100 -1242Q100 -1330 209 -1396Q219 -1402 258.5 -1459.5Q298 -1517 382 -1528Q436 -1535 483 -1535Q572 -1535 617 -1517Q690 -1488 749 -1395Q826 -1515 921 -1528Q970 -1535 1021 -1535Q1134 -1535 1088 -1538Q1125 -1536 1187 -1506Q1246 -1478 1337 -1308Q1342 -1295 1359 -1267Q1410 -1264 1511 -1172Q1592 -1098 1660 -1012Q1705 -955 1800 -828Q1845 -767 1919 -672Q1955 -625 2021 -538Q2048 -499 2105 -424Q2156 -360 2233 -285Q2315 -216 2397 -147Q2525 -36 2525 6ZM881 -1354V-1384H851Q838 -1372 838 -1365Q844 -1359 855 -1351Q866 -1343 868 -1341ZM1048 -1301Q1048 -1334 1018.5 -1359Q989 -1384 953 -1384H909Q917 -1352 878 -1318Q878 -1317 881 -1288Q883 -1268 872 -1256Q850 -1253 839 -1254Q856 -1222 890 -1169Q887 -1198 893 -1252Q913 -1304 957 -1304Q1005 -1304 1005 -1246Q1005 -1197 1004 -1202Q1048 -1227 1048 -1301ZM984 -1247Q984 -1277 957 -1277Q919 -1277 919 -1220Q919 -1212 922 -1196.5Q925 -1181 925 -1180Q942 -1181 963 -1208Q984 -1235 984 -1247ZM2496 5Q2490 -28 2464 -51Q2344 -150 2143 -338Q2091 -395 1852 -715Q1778 -816 1649 -985Q1502 -1162 1392 -1231Q1372 -1233 1344 -1245Q1332 -1258 1272 -1378Q1247 -1427 1190 -1465Q1137 -1501 1089 -1506Q1070 -1508 1013 -1508Q942 -1508 929 -1506Q891 -1501 850 -1474Q832 -1462 811 -1432Q785 -1395 780 -1390Q745 -1365 689 -1319Q650 -1279 663 -1223Q725 -1314 771 -1314Q776 -1314 853 -1283Q817 -1373 817 -1368Q817 -1417 884 -1417Q1075 -1417 1075 -1293Q1075 -1193 944 -1137Q938 -1143 927 -1150Q916 -1157 915 -1158Q914 -1126 889 -1126Q871 -1126 866 -1140Q852 -1180 842 -1198Q821 -1240 794 -1258Q778 -1269 736 -1269Q741 -1272 747 -1272Q797 -1272 826 -1208Q851 -1154 855 -1048Q860 -912 866 -880Q869 -863 928 -766Q1003 -642 1156 -465Q1315 -281 1362 -207Q1452 -66 1452 68Q1452 139 1432 249Q1372 259 1331 263Q1253 271 1253 295V306Q1258 315 1265 322L1520 307Q1526 307 1589.5 312.5Q1653 318 1660 318H1678Q1678 298 1675.5 283.5Q1673 269 1673 270Q1612 264 1506 244Q1511 178 1527 48H1551Q1607 49 1667 97V-197Q1669 -229 1677 -253Q1715 -236 1777 -211Q1862 -181 1960 1Q2042 157 2123 313L2384 143Q2335 61 2286 -21Q2226 -117 2168 -159Q2040 -251 1817 -358Q1491 -514 1451 -536Q1359 -586 1176 -682Q1130 -705 1084 -728Q1032 -757 999 -787Q887 -891 887 -991Q887 -1080 1028 -1145Q1140 -1196 1218 -1196Q1228 -1196 1232 -1192V-1179Q1141 -1154 1050 -1129Q914 -1081 914 -989Q914 -824 1228 -682Q1369 -607 1615 -478Q1906 -326 2149 -195Q2271 -130 2496 5ZM1926 -6Q1897 -82 1827 -146Q1757 -210 1695 -220V-152ZM342 -1384H312L305 -1378V-1358Q318 -1347 330 -1347Q330 -1347 342 -1384ZM509 -1293Q509 -1323 476.5 -1356.5Q444 -1390 409 -1390H371Q368 -1365 339 -1318Q341 -1299 343 -1279Q342 -1255 318 -1255Q310 -1255 303 -1257Q296 -1259 294 -1259Q311 -1233 350 -1164Q362 -1178 357 -1204Q352 -1235 354 -1241Q373 -1309 407 -1309Q415 -1309 441 -1291Q472 -1270 472 -1253Q472 -1226 459 -1202Q509 -1233 509 -1293ZM445 -1242Q445 -1259 409 -1277Q380 -1234 380 -1223Q380 -1216 383 -1199.5Q386 -1183 386 -1175Q406 -1179 427 -1205Q445 -1229 445 -1242ZM1845 142L1690 -59V121Q1689 140 1676 146Q1606 76 1560 76Q1550 76 1544 83Q1544 124 1534 231Q1704 248 1698 248Q1712 248 1779 200Q1846 152 1845 142ZM1096 -453Q1074 -524 978 -656Q875 -798 850 -860Q834 -900 832 -1055Q831 -1101 825 -1129Q802 -1239 741 -1239Q691 -1239 682 -1197Q688 -1190 698 -1178Q597 -1151 496 -1123Q369 -1080 369 -972Q369 -884 511 -784Q605 -728 699 -672Q789 -618 1096 -453ZM1732 301Q1720 291 1702 275Q1702 278 1704 288.5Q1706 299 1706 301ZM1430 59V35Q1430 -59 1321 -214Q1313 -225 1130 -457Q1248 -138 1248 14Q1248 81 1194 252Q1259 241 1273 242Q1289 170 1327 27Q1388 36 1430 59ZM1187 -199Q1175 -252 1163 -304Q1146 -368 1121 -403Q1104 -427 1060 -448Q1029 -461 998 -475Q983 -483 670 -660Q608 -694 503 -755Q455 -786 401 -854Q342 -928 342 -970Q342 -1073 439 -1124Q457 -1133 644 -1192Q637 -1213 637 -1236Q637 -1333 725 -1387Q638 -1508 474 -1508Q331 -1508 285 -1459Q268 -1428 230 -1380Q206 -1367 167 -1338Q142 -1309 126 -1239Q134 -1259 178 -1287Q219 -1314 235 -1314Q236 -1314 315 -1283V-1302Q311 -1310 292 -1338Q278 -1359 278 -1366Q278 -1380 291.5 -1398.5Q305 -1417 324 -1417Q397 -1417 452 -1404Q476 -1398 506 -1364.5Q536 -1331 536 -1306Q536 -1265 529 -1248Q512 -1206 489 -1191Q415 -1142 396 -1142Q393 -1142 377 -1158Q374 -1148 370 -1137Q366 -1126 356 -1126Q333 -1126 327 -1146Q312 -1194 300 -1215Q274 -1260 233 -1269Q223 -1271 197 -1268Q244 -1273 283 -1206Q315 -1150 315 -1112V-962Q315 -853 464 -657Q574 -520 684 -384Q729 -332 804 -238Q867 -149 888 -92Q914 -25 914 70Q914 184 893 249Q709 267 709 307Q709 311 721 323H853Q864 284 909 273Q947 265 984 257Q979 254 969 245Q973 179 983 48H1002Q1045 49 1077 67Q1094 79 1130 102V-269Q1152 -246 1187 -199ZM1431 119Q1431 83 1405 70Q1402 68 1346 54Q1343 63 1302 242Q1385 230 1414 220Q1431 118 1431 119ZM1221 8Q1221 -76 1202 -133Q1201 -137 1152 -199V131Q1135 146 1133 146Q1076 81 1017 81Q1011 81 1006 82Q1006 108 995 232Q1010 231 1042 237Q1074 243 1083 243Q1116 237 1176 231Q1221 104 1221 8ZM891 65V24Q892 -62 776 -224Q746 -267 592 -457Q709 -166 709 8Q709 87 656 258Q685 253 735 242Q751 170 788 27Q838 36 841 36Q877 46 891 65ZM1172 261Q1167 261 1153 259Q1061 259 1022 287V312Q1079 312 1085 311Q1090 301 1101 282Q1126 273 1172 261ZM1130 306L1125 301L1112 314L1117 319ZM892 124Q892 96 864 79Q835 67 807 54Q774 173 763 242Q803 237 875 226Q892 124 892 124ZM953 295L947 290L928 308L934 314ZM904 306L898 301L885 314L891 319ZM644 312L638 286Q623 286 612 298V317Q618 317 630 314.5Q642 312 644 312ZM587 304L579 302L572 315L580 319ZM639 261Q587 261 587 261Q544 266 477 292Q477 295 480.5 305Q484 315 484 318Q495 315 546 311Q551 301 562 282Q590 273 639 261ZM365 306L360 301L347 314L352 319Z"/>
</svg>