<svg xmlns="http://www.w3.org/2000/svg" viewBox="0 -2048 2048 2048">
	<path fill="#000000" d="M1741 39Q1741 29 1734 68Q1720 74 1719 74Q1715 74 1496 -52L1648 169L1385 344Q1352 300 1286.5 160.5Q1221 21 1178 -40Q1107 -138 1024 -154Q1015 -113 1015 -65V154Q1015 160 1001 160Q993 160 956 133Q919 106 900 106H895Q885 165 879 232Q937 242 995 251Q1064 265 1085 315L1078 339Q1045 317 1037 317Q1030 317 1019.5 328Q1009 339 1001 339Q977 339 929.5 333.5Q882 328 858 328Q829 328 771 333.5Q713 339 684 339Q671 339 645 333.5Q619 328 606 328Q592 328 564 333.5Q536 339 522 339Q513 339 497.5 333.5Q482 328 473 328Q438 328 382 334Q308 343 291 344Q284 340 284 328Q284 335 297 288Q405 265 572 237Q573 230 594 138Q609 74 609 39Q609 -13 571.5 -159Q534 -305 509 -350Q435 -453 361 -557Q265 -693 265 -779Q265 -797 266.5 -834.5Q268 -872 268 -890Q268 -1037 186 -1037Q169 -1037 146 -1018Q129 -1003 112 -988Q111 -993 105 -1008Q100 -1020 100 -1028Q100 -1064 118 -1095Q138 -1131 207 -1201Q284 -1281 309 -1276L316 -1283Q313 -1292 274 -1398Q240 -1491 240 -1500Q240 -1540 278 -1540Q311 -1540 346 -1432Q350 -1422 385 -1291Q403 -1296 403 -1343Q403 -1343 397 -1382Q380 -1494 380 -1519Q380 -1557 411 -1557Q467 -1557 467 -1397Q467 -1373 462 -1295L467 -1291Q507 -1291 507 -1375Q507 -1395 504 -1433.5Q501 -1472 501 -1492Q501 -1504 511 -1519.5Q521 -1535 533 -1535Q576 -1535 576 -1435Q576 -1380 544 -1284Q564 -1274 601 -1250.5Q638 -1227 676.5 -1155Q715 -1083 748 -1059Q898 -950 1024 -795Q1139 -645 1254 -494Q1288 -445 1362 -353Q1406 -305 1482 -233Q1555 -165 1627 -98Q1741 12 1741 39ZM549 -1437Q549 -1487 529 -1502Q529 -1487 530 -1449Q531 -1415 531 -1396Q531 -1326 521 -1297Q549 -1374 549 -1437ZM446 -1397Q446 -1473 409 -1524V-1459Q409 -1446 415 -1425Q421 -1401 422 -1391Q431 -1309 429 -1297Q446 -1365 446 -1397ZM353 -1286V-1311Q353 -1327 335 -1389Q318 -1448 308.5 -1469Q299 -1490 275 -1513L267 -1500Q270 -1466 342 -1292ZM312 -1145V-1151Q312 -1153 311 -1158.5Q310 -1164 310 -1166H285L279 -1135H309Q312 -1141 312 -1145ZM457 -1093Q457 -1125 427 -1147Q400 -1166 367 -1166H338Q339 -1159 339 -1152Q339 -1109 313 -1104Q312 -1099 313.5 -1090Q315 -1081 315 -1078L314 -1073Q300 -1055 282 -1047Q272 -1067 257 -1068Q289 -1015 320 -980Q320 -991 319 -1014.5Q318 -1038 318 -1050Q318 -1066 339 -1081Q360 -1096 376 -1096Q421 -1096 421 -1036Q421 -1020 414 -1011Q430 -1018 444 -1047Q457 -1073 457 -1093ZM1713 34Q1596 -73 1373 -299Q1331 -346 1140 -602Q1066 -702 1012 -770Q903 -909 814 -985Q770 -1012 691 -1079Q669 -1117 623 -1192Q601 -1225 535 -1251Q475 -1275 430 -1275Q341 -1275 290 -1245Q254 -1224 196 -1160Q131 -1089 133 -1060L134 -1047Q170 -1102 227 -1102Q258 -1102 282 -1088Q281 -1090 264 -1116Q251 -1136 251 -1142Q251 -1163 271 -1178.5Q291 -1194 313 -1194Q484 -1194 484 -1096Q484 -1067 461 -1030Q451 -1014 416 -983Q378 -950 365 -950Q354 -950 346 -966Q336 -939 322 -939Q303 -939 280 -985Q295 -941 295 -891Q295 -873 291.5 -837Q288 -801 288 -783Q288 -766 291 -757Q331 -630 451 -477Q565 -340 680 -203Q809 -28 809 117V153Q809 229 789 257Q735 263 636 291V311L643 317L852 301Q862 300 879.5 304.5Q897 309 905 309Q938 309 1003 301V287Q978 264 930 261Q863 257 852 254V211Q852 164 873 79H898Q935 79 991 122L999 -167Q999 -178 1007 -186Q1027 -176 1071 -161Q1176 -125 1266 72Q1307 161 1324 194Q1359 261 1396 307L1616 164Q1534 40 1431 -97Q1389 -123 1183 -229Q998 -322 813 -416Q596 -527 450 -615Q406 -641 360 -704Q311 -772 311 -817Q311 -929 536 -989Q592 -1004 603 -1004Q619 -1004 620 -986Q543 -964 467 -942Q338 -900 338 -820Q338 -780 388 -713Q435 -650 475 -627Q488 -620 730 -492Q978 -364 1471 -101Q1532 -63 1593 -25Q1680 28 1713 34ZM397 -1050Q397 -1072 372 -1074Q343 -1053 343 -1034Q343 -1026 346.5 -1011Q350 -996 350 -988Q364 -993 380.5 -1014.5Q397 -1036 397 -1050ZM229 -1051V-1060H214V-1051ZM787 84V65Q787 57 777 22Q752 -68 672 -177Q646 -214 529 -354Q630 -68 630 47Q630 96 593 257Q624 246 651 246Q665 168 694 63H719Q744 63 787 84ZM787 123Q753 90 735 90H707Q703 127 679 236Q701 243 720 243Q729 243 747.5 239.5Q766 236 776 236Q787 159 787 123ZM610 293L603 290L596 304L603 307ZM527 271Q476 271 436 286V306H482Q493 289 527 271ZM410 301L404 294L385 306L390 314ZM367 298L359 295L352 309L360 313Z"/>
</svg>