<svg xmlns="http://www.w3.org/2000/svg" viewBox="0 0 787 1000">
  <g transform="scale(1,-1) translate(0,-1000)">
    <path d="M239 653Q232 633 215.0 618.5Q198 604 186.5 599.0Q175 594 172 594Q164 594 158.0 600.0Q152 606 152 614Q152 626 171.5 638.0Q191 650 194 654Q203 666 206 696Q206 705 191.5 714.5Q177 724 161 724Q96 724 55 674Q86 670 93.0 667.5Q100 665 102 655Q108 618 114 576Q141 572 145 572H151Q161 573 177.5 579.0Q194 585 195 585H198Q206 585 210.0 579.0Q214 573 214 568Q214 561 211.0 558.5Q208 556 189 549Q162 540 153 540H145Q134 540 119 543Q125 504 140 467Q161 414 201.5 384.0Q242 354 342 315Q347 313 367.0 305.0Q387 297 399 292Q435 276 503.5 254.0Q572 232 636 197L564 282Q523 333 511 349Q461 413 430.5 448.0Q400 483 389.0 493.5Q378 504 344 535Q267 604 239 653ZM138 692Q138 675 122 675Q116 675 112.0 680.5Q108 686 108 692Q108 705 125 705Q138 705 138 692ZM395 245Q443 245 520 149Q578 68 589 56Q590 54 593.5 50.5Q597 47 598 45Q606 40 615 40Q641 40 692 57Q689 67 678 83Q670 93 667 99Q655 118 616 162Q578 185 492.0 215.0Q406 245 383 255Q383 255 356.5 266.0Q330 277 299.5 289.5Q269 302 259 307L318 178L365 159L364 227Q364 229 367.5 233.0Q371 237 378.5 241.0Q386 245 395 245ZM277 172 225 293 262 176ZM248 39Q270 36 272 36Q289 36 300 40V124L263 134ZM126 756Q145 756 170.5 749.0Q196 742 211.5 735.0Q227 728 228 727L301 893L263 824Q260 819 253 819H105L113 755Q123 756 126 756ZM126 971Q106 971 106 957V953Q106 954 107.5 958.0Q109 962 113.0 966.0Q117 970 123 970Q128 970 130 969Q128 971 126 971ZM366 980Q366 974 314.0 857.0Q262 740 248 715Q259 702 271.0 678.5Q283 655 298 638Q324 608 365.5 571.0Q407 534 426 513Q637 737 637 737Q641 741 648 741Q658 741 661 733L785 479Q787 475 787 472Q787 460 776 457Q690 435 688 435Q675 435 673 448L638 693Q576 628 528.0 577.5Q480 527 465.0 511.0Q450 495 446 491Q462 472 499.0 426.5Q536 381 565.0 344.5Q594 308 595 307Q754 121 754 121Q759 116 759 109Q759 101 753.0 94.5Q747 88 738 88Q733 88 716 99Q733 74 733 51Q731 36 724.0 29.0Q717 22 679.0 11.0Q641 0 615 0Q578 0 564 24Q562 27 559.0 31.0Q556 35 552.5 39.5Q549 44 548 45L489 125Q470 148 461.0 158.5Q452 169 440.5 181.5Q429 194 421.5 198.5Q414 203 409 203Q408 203 405.0 203.5Q402 204 401 204H399Q398 134 397 125Q390 112 379 112H377Q373 112 340 126V46Q376 41 376 41Q377 41 378 40H379Q384 40 403.0 43.0Q422 46 425 46H432Q459 46 459 6Q459 1 454 1H439Q437 1 431.5 4.5Q426 8 423 8Q419 8 412.5 4.5Q406 1 404 1H128Q126 1 119.0 5.0Q112 9 107 9Q104 9 98.0 5.0Q92 1 88 1Q85 2 85 2Q85 1 84 1H78Q59 1 59 19Q59 31 74.5 38.5Q90 46 110 46Q114 46 138.0 42.0Q162 38 175 38Q187 38 207 40L225 152L166 361Q123 401 103.0 447.0Q83 493 73 577Q69 613 65 632L34 637Q34 636 32.0 634.0Q30 632 30 631Q26 614 17 614H14Q11 614 7.5 621.5Q4 629 2 636L0 644Q0 671 23.5 699.0Q47 727 88 748Q79 828 79 828V829Q79 835 83.5 839.5Q88 844 95 844H128Q131 850 143 867Q102 890 89.5 909.5Q77 929 77 953V957Q77 980 94.0 990.0Q111 1000 126 1000Q144 1000 153.5 985.5Q163 971 163 955V954Q163 941 154.5 932.5Q146 924 138 922L130 921Q120 921 112 929Q123 912 161 890Q174 904 199.0 920.0Q224 936 233 945Q235 947 251.5 967.5Q268 988 283 997Q286 999 293 999Q313 999 313 972Q313 970 312.5 967.0Q312 964 312 963Q327 990 331.5 995.0Q336 1000 342.0 1000.0Q348 1000 357.0 994.5Q366 989 366 980ZM239 844Q252 911 272 943Q276 951 278 954Q253 924 245.5 916.5Q238 909 215 895Q185 877 162 844ZM700 469 750 482 677 633Z" fill="currentColor"/>
  </g>
</svg>