<svg xmlns="http://www.w3.org/2000/svg" viewBox="0 -2048 2048 2048">
	<path fill="currentColor" d="M1658 78Q1658 83 1656.5 92Q1655 101 1655 106Q1649 106 1638.5 109Q1628 112 1623 112Q1617 112 1572 75Q1533 43 1421 -16L1572 201L1325 359Q1258 226 1108 -29Q1102 -38 979 -98V190H965Q960 190 941 176Q918 158 916 157Q911 154 865 139L854 259Q910 265 967 272Q1035 283 1045 337L1038 360Q1009 342 996 342Q986 342 982 350Q978 358 970 357Q803 343 811 343Q819 343 629 357Q623 357 615 351Q607 345 605 345Q597 345 581 347Q565 349 557 349Q546 357 537 357Q527 357 525 348Q511 353 483 361V349Q474 348 460 350Q442 351 436 351Q424 351 417 344Q403 351 375 365Q374 363 365 351Q340 357 348 357Q337 357 337 349Q318 356 308 356Q299 356 288 351Q298 336 306 309Q336 299 561 260Q592 153 592 61Q592 82 584 -6Q573 -125 461 -361Q460 -362 432 -397Q359 -487 343 -509Q296 -577 283 -636Q281 -645 281 -683Q281 -825 255 -879Q240 -910 190 -910Q174 -910 166.5 -892.5Q159 -875 152 -859Q122 -859 122 -912Q122 -945 144 -982Q158 -1006 190.5 -1022.5Q223 -1039 236 -1060Q261 -1101 270 -1110Q286 -1125 325 -1137Q262 -1151 212 -1180Q191 -1192 162 -1230.5Q133 -1269 126 -1292Q118 -1344 100 -1447L140 -1452Q155 -1367 172 -1335Q197 -1288 260 -1253Q218 -1294 213 -1336L209 -1341Q208 -1347 208 -1358Q208 -1474 293 -1526Q352 -1562 410 -1562Q462 -1562 482 -1554Q615 -1501 615 -1368Q615 -1297 576 -1260Q651 -1313 694 -1443L736 -1438Q729 -1400 711 -1324Q671 -1181 510 -1140Q604 -1127 667 -1012Q678 -981 711 -931Q733 -925 773 -906Q814 -875 866 -818Q910 -771 953 -724L1406 -1150L1432 -1154L1644 -525L1620 -517L1592 -596L1521 -590L1534 -509L1508 -505L1495 -586L1423 -579V-497H1397L1406 -1114L970 -704Q1039 -619 1173 -447Q1264 -326 1300 -283Q1376 -193 1445 -136Q1658 39 1658 78ZM1585 -621L1431 -1073L1424 -605ZM592 -1370Q592 -1490 462 -1535Q456 -1537 447 -1537Q294 -1537 250 -1438Q234 -1402 234 -1390V-1370Q234 -1297 291 -1252Q343 -1211 418 -1211Q477 -1211 503 -1229Q536 -1252 550 -1266Q574 -1289 581 -1314Q592 -1355 592 -1370ZM704 -1403Q646 -1260 551 -1221Q468 -1187 411 -1187Q319 -1187 240 -1236Q155 -1289 133 -1373Q136 -1349 145 -1304Q151 -1292 164 -1269Q192 -1216 265 -1182Q332 -1150 397 -1150Q581 -1150 670 -1279Q687 -1303 704 -1403ZM315 -1016Q315 -1026 307 -1026Q291 -1026 291 -1011Q291 -1008 308 -993H312Q315 -999 315 -1016ZM455 -963Q455 -986 430.5 -1006Q406 -1026 383 -1026H339Q341 -1020 341 -1012Q341 -986 318 -972Q321 -935 321 -943Q321 -919 304 -919Q297 -919 285 -929.5Q273 -940 265 -942Q304 -912 323 -844H325Q335 -854 335 -861Q335 -869 332 -884.5Q329 -900 329 -908Q329 -966 385 -966Q399 -966 410.5 -948Q422 -930 422 -915Q422 -901 410 -880Q455 -911 455 -963ZM1635 86V74Q1635 59 1525 -37Q1458 -94 1390 -152Q1326 -210 1250 -310Q1225 -342 1175 -405Q974 -664 974 -664Q836 -833 753 -892Q726 -899 686 -925Q639 -999 592 -1074Q545 -1124 425 -1124Q295 -1124 264 -1068Q255 -1048 235 -1019Q220 -1013 190 -999Q174 -989 159.5 -959.5Q145 -930 145 -911Q145 -904 145 -904Q177 -969 234 -969Q265 -969 300 -949V-952Q300 -970 284 -986Q268 -1002 268 -1008Q268 -1052 330 -1052Q338 -1052 405 -1045Q427 -1043 452.5 -1016.5Q478 -990 478 -968Q478 -904 444 -873Q395 -829 370 -829Q368 -829 351 -838Q342 -820 324 -820Q308 -820 287 -877Q266 -934 215 -934Q206 -934 202 -933Q281 -930 296 -816Q301 -729 306 -642Q314 -595 341 -555Q405 -459 618 -201Q652 -166 709 -93Q788 37 788 157Q788 168 775 272Q750 283 707 288Q650 295 637 298Q624 317 624 323Q624 335 635 334Q818 320 811 320Q808 320 968 333Q970 332 971 327Q971 326 960 294Q916 289 830 276Q833 207 844 122L853 112Q890 123 958 156Q956 115 956 -78Q956 -83 953.5 -92.5Q951 -102 951 -107Q951 -121 964 -126Q1091 -89 1129 -40Q1178 24 1236 141Q1310 290 1333 328L1540 195Q1518 165 1369 -46Q1066 -197 467 -512Q365 -569 335 -663Q321 -707 321 -713Q321 -792 411 -829Q420 -833 568 -870Q592 -876 596 -876Q610 -876 610 -864Q610 -861 609 -857Q459 -826 446 -821Q344 -785 344 -713Q344 -689 368 -641Q383 -612 467 -541Q484 -527 786 -371L1348 -81Q1462 -22 1495 -4Q1591 51 1626 89ZM399 -915Q399 -943 382 -943Q353 -943 353 -899Q353 -877 358 -857Q399 -895 399 -915ZM1016 322Q1010 314 988 297H985L990 315Q1001 315 1016 322ZM762 126V112Q762 77 756 58Q727 -34 654 -129Q585 -211 516 -293Q559 -191 573 -152Q601 -70 607 -4Q608 4 611.5 25.5Q615 47 615 58Q615 89 581 276L578 280Q607 274 638 271Q653 200 680 98H694Q733 98 762 126ZM765 163Q768 138 695 123L662 269Q693 266 754 257ZM603 310Q596 312 586 319V325L601 322Q601 315 603 310ZM565 307Q541 312 541 324Q541 326 542 330H546Q552 328 563 323Q563 317 565 307ZM518 318H515Q511 318 509 331Q514 328 518 318ZM541 288Q431 292 431 326H430Q430 327 433 328H469Q474 328 485 325Q492 300 541 288ZM411 316Q393 322 390 333Q401 329 410 326ZM370 318Q359 326 359 328V329Q364 326 370 318ZM339 322Q328 325 324 330Q332 327 338 324Z"/>
</svg>