<svg xmlns="http://www.w3.org/2000/svg" viewBox="35.8 -1304.2 1393.4 1733.4">
	<path fill="currentColor" d="M1365 128Q1365 150 1338 150Q1335 150 1264 107Q1188 61 1179 57H1178L1296 225L1089 365Q1084 356 993 179Q929 53 886 12Q865 -9 812 -19V193Q812 208 798 220Q763 186 720 177Q717 207 711 267Q755 272 799 278Q848 285 864 334L851 340Q846 340 836 337Q826 334 821 334Q814 334 798.5 342Q783 350 775 350Q731 350 643 345.5Q555 341 511 341Q498 341 472 345.5Q446 350 433 350Q426 350 414 344.5Q402 339 395 339Q388 339 377 344.5Q366 350 360 350L352 339Q347 339 337.5 343Q328 347 323 347Q307 347 256 340L251 334Q261 294 334 294Q360 294 464 268Q493 196 493 113Q493 49 484 16Q433 -170 384 -249Q363 -273 324 -320Q270 -388 255 -438Q243 -480 243 -575Q243 -692 183 -692Q163 -692 124 -651Q113 -684 113 -702Q113 -745 170 -805Q218 -856 265 -880Q198 -910 153 -955Q139 -969 120.5 -1013.5Q102 -1058 101 -1079Q100 -1095 100 -1121Q100 -1134 101 -1144H127Q140 -1103 153 -1062Q172 -1016 206 -998Q183 -1033 183 -1071Q183 -1142 231 -1191Q279 -1240 349 -1240Q418 -1240 467 -1191.5Q516 -1143 516 -1074Q516 -1055 496 -998Q534 -1023 580 -1140Q585 -1140 611 -1134V-1114Q611 -1039 553 -969Q520 -929 442 -888Q512 -871 581 -741Q587 -729 620 -708Q718 -644 796 -546Q885 -423 1069 -183Q1081 -169 1255 -3Q1365 102 1365 128ZM497 -1076Q497 -1133 453.5 -1175Q410 -1217 352 -1217Q297 -1217 251 -1174Q205 -1131 205 -1076Q205 -1019 257 -981Q304 -946 363 -946Q411 -946 454 -987Q497 -1028 497 -1076ZM577 -1081Q552 -1019 500 -976Q444 -930 381 -930Q364 -930 363 -939Q357 -925 345 -925Q298 -925 241 -951Q180 -978 157 -1015Q149 -1028 134 -1055Q166 -898 338 -898Q537 -898 577 -1081ZM270 -782L254 -786V-774Q258 -771 266 -766ZM385 -734Q385 -762 298 -791Q295 -772 272 -703L243 -711Q269 -678 280 -651Q285 -662 285 -673Q280 -687 280 -698Q280 -743 324 -743Q367 -743 362 -686Q385 -722 385 -734ZM337 -697Q337 -693 328 -717H315L306 -708V-657Q315 -659 326 -673.5Q337 -688 337 -697ZM1318 107Q1226 20 1052 -164Q961 -287 775 -530Q716 -604 646 -659Q606 -682 549 -738Q481 -871 394 -871Q344 -871 296 -861Q267 -855 250 -836Q233 -817 216 -797Q192 -782 154 -749Q142 -734 138 -706Q165 -748 206 -748Q207 -748 255 -733Q231 -770 231 -777Q231 -818 290 -818Q322 -818 364 -793Q410 -766 410 -737Q410 -706 377 -668Q346 -634 315 -621Q313 -624 302 -637Q295 -619 283 -613Q269 -624 252 -660Q236 -693 218 -704Q257 -664 260 -594Q262 -530 281 -429Q305 -377 361 -309Q408 -254 455 -198Q513 -126 570 -54Q632 32 647 111Q648 116 653 130Q658 144 658 150Q658 204 642 285Q595 294 537 308Q526 314 524 328Q643 321 721 321Q770 321 801 323L793 303Q739 299 685 286Q689 241 697 150H720Q738 150 789 179V-38Q796 -46 807 -46Q815 -46 844 -34Q851 -31 855 -30Q917 -13 992 123Q1043 223 1095 323Q1151 289 1260 215Q1197 122 1121 21Q1006 -46 743 -180Q495 -305 367 -383Q276 -438 276 -519Q276 -584 353 -629Q421 -669 491 -669Q509 -669 511 -652Q445 -634 379 -617Q301 -588 301 -521Q301 -462 398 -395Q438 -367 563 -301L1155 12Q1237 55 1318 107ZM832 313L821 301L817 306L827 317ZM633 141Q624 40 449 -161Q472 -93 495 -26Q520 56 520 113Q520 160 504.5 216.5Q489 273 489 284Q503 282 531 275Q542 229 567 137Q588 139 628 149ZM628 180Q611 163 606 163H581Q575 200 560 275Q582 272 624 263Q626 235 628 180ZM486 318L484 312L473 317V323ZM442 297Q419 302 372 311V324H397Q404 324 442 297ZM320 322L318 316L307 321V327Z"/>
</svg>