<svg xmlns="http://www.w3.org/2000/svg" viewBox="0 0 801 1000">
  <g transform="scale(1,-1) translate(0,-1000)">
    <path d="M431 240Q439 239 443.0 235.0Q447 231 447.5 227.5Q448 224 449 216H559Q550 221 541.5 233.0Q533 245 531 247L482 313Q481 315 471.0 327.0Q461 339 455.0 345.5Q449 352 440.0 361.5Q431 371 424.0 375.5Q417 380 412 380Q411 380 409.0 380.5Q407 381 405 381Q401 381 399 379L398 312Q395 304 386 304Q382 304 381 305L350 317V241Q385 236 387 236Q392 236 407.5 238.5Q423 241 425 241Q426 241 428.0 240.5Q430 240 431 240ZM265 768Q261 750 247.0 736.0Q233 722 222.5 717.0Q212 712 210 712Q198 712 198 725Q198 733 213.0 742.5Q228 752 232 756Q236 761 239.0 770.5Q242 780 242 787L243 794Q243 803 230.0 812.0Q217 821 202 821H185Q165 819 141.0 804.5Q117 790 105 772L137 768Q146 766 149.0 754.0Q152 742 158 690Q161 690 171.5 688.0Q182 686 188 686H193Q199 686 230 696H232Q239 696 241 689Q241 688 241.5 688.0Q242 688 242 687Q242 679 222.5 673.0Q203 667 195 667H188Q183 667 178.5 667.5Q174 668 169.0 669.0Q164 670 161 670Q167 618 189.5 580.5Q212 543 228.0 531.0Q244 519 267 506Q286 495 306.5 486.0Q327 477 355.0 466.0Q383 455 402 447Q430 435 484.0 416.5Q538 398 572 382L619 356L544 444Q440 576 419 601Q396 627 345.5 672.5Q295 718 265 768ZM171 805Q177 805 181.5 800.5Q186 796 186 790Q186 782 181.0 777.0Q176 772 168 772Q153 772 153 790Q153 805 171 805ZM652 252Q647 278 588 345Q556 365 482.5 390.0Q409 415 391 423Q375 430 351.5 439.0Q328 448 310.5 456.0Q293 464 277 472L333 352L379 333L378 396Q388 407 400 407Q439 407 502 328L552 258Q568 236 584 236Q592 236 601.5 237.5Q611 239 619.5 241.5Q628 244 635.5 246.5Q643 249 648 250ZM246 489 240 493 286 350 309 343ZM297 233Q313 233 324 237V313L286 323L272 235Q288 233 297 233ZM195 861Q219 861 236.0 877.0Q253 893 253 915Q253 938 236.0 952.0Q219 966 194 966Q172 966 156.5 951.5Q141 937 141 915Q141 892 156.5 876.5Q172 861 195 861ZM652 303Q655 298 660.5 290.0Q666 282 667.5 279.5Q669 277 672.5 271.5Q676 266 676.5 263.5Q677 261 678.0 257.0Q679 253 679 249Q674 235 667.0 231.0Q660 227 622 216Q652 216 712.0 215.5Q772 215 801 215V24Q801 14 793.0 7.0Q785 0 774 0Q764 0 757.0 7.0Q750 14 750 24V66L648 172H24Q13 172 6.5 179.0Q0 186 0 194Q0 214 24 214H126Q123 220 123 222Q123 230 134.5 235.0Q146 240 161 240Q166 240 174.5 238.0Q183 236 188 236Q196 236 202 235Q205 235 209.5 234.5Q214 234 216 234Q227 234 247 236L262 333L212 510Q174 545 156 591Q145 619 140.0 642.0Q135 665 131.0 695.5Q127 726 124 744L93 749Q93 748 91.0 745.0Q89 742 88 740Q86 729 81 729H79Q77 731 74.5 739.5Q72 748 71 750Q75 779 89.0 794.5Q103 810 132 828Q132 832 132 837L133 842Q133 846 134.5 848.5Q136 851 138 852H139Q103 885 78.5 918.0Q54 951 47.0 966.0Q40 981 40 984Q40 999 53 999Q58 999 64.0 991.0Q70 983 82.5 965.0Q95 947 109 932Q115 962 139.0 981.0Q163 1000 195 1000Q229 1000 254.5 981.5Q280 963 287 932Q300 946 312.0 964.0Q324 982 330.5 990.5Q337 999 342 999Q355 999 355 983Q355 978 344.0 958.5Q333 939 309.0 907.5Q285 876 257 852Q265 852 265 841V838Q265 835 263 815Q275 803 288.5 778.5Q302 754 312 742Q327 725 340.5 711.5Q354 698 373.0 681.0Q392 664 399 658Q611 881 611 881Q616 886 621 886Q631 886 635 877L759 623Q760 621 760 617Q760 605 749 602Q663 580 661 580Q649 580 647 593L611 838Q551 774 504.5 725.5Q458 677 441.0 659.0Q424 641 420 637Q435 622 564 460L696 305Q700 299 700 297Q700 284 687 284Q684 284 680 286ZM752 122V172H702ZM674 614 724 627 650 778ZM430 216Q428 217 423 217Q420 217 416 215Q418 215 423.0 215.5Q428 216 430 216ZM170 215Q165 218 159 218Q154 218 151 215Z" fill="currentColor"/>
  </g>
</svg>