<svg xmlns="http://www.w3.org/2000/svg" viewBox="0 -2048 2048 2048">
	<path fill="#000000" d="M2701 356Q2601 269 2526 194H276Q218 252 101 356V19H418L202 -110L343 -313Q142 -205 135 -205Q100 -205 100 -232Q100 -257 274 -424Q480 -622 535 -694Q633 -823 834 -1071Q905 -1133 1052 -1281Q1085 -1329 1162 -1425Q1209 -1476 1352 -1476Q1440 -1476 1483 -1447Q1499 -1436 1520 -1405Q1543 -1369 1554 -1358Q1567 -1352 1591 -1339Q1607 -1328 1626.5 -1295.5Q1646 -1263 1646 -1253V-1198Q1639 -1191 1625 -1191Q1617 -1191 1594 -1210Q1586 -1212 1563 -1212Q1469 -1212 1469 -1072Q1469 -1050 1471.5 -1011.5Q1474 -973 1474 -961Q1474 -947 1472 -939Q1450 -830 1280 -610Q1241 -559 1201 -440Q1161 -318 1161 -245Q1161 -191 1181 -125Q1204 -47 1235 -39Q1271 -29 1335 -25Q1416 -19 1440 -15Q1446 -1 1461 22H1987Q1992 -1 1992 -46V-62Q1992 -183 2064 -218Q2091 -226 2143 -249Q2169 -264 2197 -354Q2212 -399 2231 -488Q2226 -507 2224 -542Q2251 -627 2278 -712Q2330 -874 2330 -902Q2330 -949 2311 -1002Q2290 -1060 2261 -1081Q2236 -1099 2150 -1099Q2099 -1099 2074 -1094L1842 -1137H1806Q1802 -1133 1802 -1111Q1800 -1110 1755 -1110Q1742 -1145 1739 -1166Q1736 -1186 1741 -1208Q1727 -1216 1727 -1234Q1727 -1249 1754 -1259V-1274L1750 -1277Q1723 -1269 1669 -1256V-1336Q1688 -1331 1729 -1320Q1729 -1319 1730 -1319Q1731 -1318 1731.5 -1320Q1732 -1322 1732 -1328Q1732 -1349 1712 -1372Q1660 -1372 1630 -1414L1649 -1433L1688 -1395H1701Q1701 -1397 1703 -1399Q1705 -1401 1705 -1409Q1705 -1433 1657 -1517Q1661 -1518 1670 -1525Q1684 -1519 1703 -1487Q1707 -1498 1718 -1518Q1740 -1546 1767 -1546Q1805 -1546 1821 -1518Q1833 -1497 1835 -1480Q1853 -1474 1870 -1469Q1897 -1458 1910 -1435L1896 -1422Q1885 -1431 1864 -1449L1840 -1445V-1399Q1847 -1397 1860 -1393Q1870 -1385 1894 -1349L1880 -1336Q1867 -1349 1838 -1368Q1826 -1356 1807 -1318Q1831 -1321 1882 -1319V-1250Q1864 -1259 1806 -1271L1802 -1268V-1248Q1848 -1216 1870 -1213Q2019 -1191 2112 -1191Q2117 -1191 2178.5 -1199Q2240 -1207 2250 -1207Q2281 -1207 2343 -1196L2347 -1200V-1220Q2344 -1223 2305 -1241Q2282 -1328 2282 -1320Q2282 -1327 2294 -1343Q2310 -1362 2312 -1367Q2363 -1465 2419 -1465Q2462 -1465 2505 -1432Q2551 -1396 2551 -1350Q2551 -1322 2522 -1275Q2476 -1200 2476 -1199Q2485 -1191 2510.5 -1187.5Q2536 -1184 2539 -1183Q2594 -1152 2628 -1036Q2654 -946 2654 -878Q2654 -871 2643 -789Q2632 -707 2632 -700Q2632 -694 2643 -654Q2654 -614 2654 -609Q2654 -587 2614 -550H2595Q2595 -548 2598 -565.5Q2601 -583 2601 -609Q2602 -609 2592 -619Q2582 -598 2563 -598Q2557 -612 2557 -629Q2557 -645 2565 -677Q2573 -709 2573 -725Q2573 -777 2531 -991H2526Q2514 -960 2514 -924Q2514 -917 2530 -866Q2546 -815 2546 -808Q2546 -801 2530 -700Q2514 -599 2514 -592Q2514 -549 2530 -503Q2559 -419 2560 -413Q2579 -341 2584 -272Q2584 -266 2593.5 -248Q2603 -230 2603 -220Q2603 -214 2600 -208Q2677 -188 2677 -78Q2677 -67 2675 -30Q2674 0 2675 18Q2680 23 2701 23ZM740 -1462Q726 -1409 631 -1357Q543 -1309 484 -1309H303Q285 -1292 268 -1274Q256 -1260 256 -1236Q256 -1225 366 -1115Q368 -1124 360.5 -1148Q353 -1172 353 -1174Q353 -1191 377 -1211Q398 -1228 410 -1228Q445 -1228 453 -1199Q455 -1195 448 -1177Q450 -1171 458 -1166Q461 -1156 461 -1137Q461 -1109 445 -1080Q427 -1045 399 -1045Q402 -1045 265 -1164Q246 -955 130 -851Q127 -851 120.5 -854Q114 -857 111 -857V-1419Q111 -1453 188 -1468Q237 -1477 272 -1476ZM2524 -1352Q2524 -1388 2485 -1417Q2450 -1444 2414 -1444Q2398 -1444 2376 -1419Q2354 -1394 2352 -1380Q2364 -1378 2399 -1367Q2428 -1358 2435 -1358Q2449 -1358 2463 -1374Q2503 -1359 2503 -1320Q2503 -1333 2483 -1261Q2524 -1329 2524 -1352ZM1807 -1477Q1807 -1516 1773 -1519Q1741 -1519 1727 -1477ZM2629 -615V-629H2619V-615ZM2627 -870Q2627 -987 2576 -1108Q2559 -1147 2539 -1156Q2506 -1160 2448 -1173Q2449 -1198 2458 -1248Q2449 -1263 2450 -1268Q2476 -1313 2476 -1317Q2476 -1327 2462 -1341Q2452 -1331 2443 -1331Q2439 -1331 2379 -1346Q2387 -1334 2400 -1312Q2397 -1309 2393.5 -1302.5Q2390 -1296 2387 -1293Q2372 -1302 2346 -1328L2368 -1351Q2356 -1351 2356 -1357Q2348 -1352 2332.5 -1337.5Q2317 -1323 2309 -1318Q2328 -1281 2325 -1256Q2341 -1251 2374 -1236V-1167L2370 -1164Q2281 -1185 2247 -1185Q2242 -1185 2174.5 -1177Q2107 -1169 2101 -1169Q2096 -1169 2012 -1177Q1921 -1185 1881 -1187Q1847 -1189 1809 -1206V-1159Q1811 -1159 1819 -1161.5Q1827 -1164 1835 -1164Q1858 -1164 1945.5 -1142.5Q2033 -1121 2091 -1121H2235Q2320 -1121 2358 -884Q2403 -895 2492 -917Q2487 -950 2498 -993Q2511 -1044 2537 -1056Q2596 -878 2596 -743Q2596 -700 2590 -664Q2608 -664 2614 -638L2620 -633Q2611 -673 2611 -681Q2611 -724 2619 -797.5Q2627 -871 2627 -870ZM1818 -1448H1728Q1733 -1418 1733 -1396H1812Q1812 -1395 1815 -1410Q1818 -1425 1818 -1448ZM2514 -797Q2514 -798 2496 -888Q2446 -877 2353 -859Q2311 -781 2272 -604H2486Q2514 -772 2514 -797ZM1802 -1373H1743V-1356Q1743 -1331 1766 -1311Q1771 -1310 1779 -1309Q1785 -1320 1802 -1373ZM2578 -206V-230Q2570 -238 2558 -251Q2565 -309 2549 -370Q2519 -447 2486 -581H2428Q2432 -557 2440 -514Q2466 -453 2492 -392Q2541 -277 2541 -255V-230Q2527 -224 2465 -206ZM2513 -243V-262Q2494 -319 2476 -377Q2454 -439 2417 -494Q2405 -512 2405 -581H2364Q2340 -548 2325 -483Q2316 -439 2307 -396Q2301 -371 2276 -295Q2255 -227 2255 -223V-205H2415Q2425 -225 2461 -234Q2487 -238 2513 -243ZM2330 -581H2262Q2254 -565 2251 -547Q2254 -521 2253 -477Q2237 -405 2222 -332Q2192 -243 2120 -206H2227ZM2486 -138H2196Q2267 -70 2338 -70Q2429 -70 2486 -138ZM2655 21V-127Q2655 -177 2606 -177H2053Q2044 -177 2031 -161Q2016 -142 2016 -123V21H2025V-122Q2025 -135 2036.5 -151.5Q2048 -168 2064 -168H2604Q2646 -168 2646 -127V21ZM2621 21V-122Q2607 -145 2559 -145Q2522 -145 2520 -141Q2510 -116 2465 -79Q2467 -72 2477 -57Q2487 -42 2487 -35Q2487 -21 2469 -21Q2449 -51 2436 -64Q2414 -53 2406 -53Q2407 -44 2414.5 -31.5Q2422 -19 2422 -12Q2422 -4 2413 6H2399Q2394 -13 2383 -48H2347Q2347 -4 2342 11H2324Q2317 -18 2319 -47Q2306 -54 2293 -54Q2287 -54 2282 -31Q2276 -4 2258 6L2249 -4Q2249 -24 2260 -57Q2242 -75 2230 -75Q2226 -71 2214 -42Q2205 -22 2189 -21L2179 -30Q2198 -68 2212 -89Q2152 -140 2142 -145Q2141 -145 2107 -145Q2060 -145 2051 -133V21ZM703 -1448H267Q322 -1379 322 -1356Q322 -1346 316 -1338Q328 -1338 357.5 -1334.5Q387 -1331 391 -1331Q638 -1331 703 -1448ZM417 -1194V-1203H402V-1194ZM1613 -1253Q1604 -1295 1581 -1317Q1559 -1325 1527 -1342Q1517 -1365 1493 -1405Q1459 -1449 1352 -1449Q1303 -1449 1282 -1445Q1209 -1431 1189 -1414Q1163 -1392 1138 -1355Q1122 -1332 1106 -1308Q1067 -1259 981 -1182Q890 -1100 861 -1066Q733 -902 546 -672Q391 -512 127 -232H146Q350 -359 725 -548Q1148 -761 1251 -820Q1315 -857 1362 -914Q1414 -977 1414 -1032Q1414 -1096 1311 -1137Q1235 -1159 1160 -1181Q1155 -1185 1155 -1192L1165 -1201H1185Q1176 -1201 1217 -1192Q1441 -1143 1441 -1032Q1441 -942 1320 -844Q1233 -773 1075 -694Q978 -647 882 -601Q664 -494 408 -358Q360 -322 315 -245Q277 -180 240 -115Q333 -58 453 5Q503 -112 553 -228Q630 -373 755 -422Q790 -436 808 -436Q818 -436 828 -427V-140Q886 -178 921 -178Q931 -178 935 -174Q935 -25 931 -21Q836 -19 806 15Q857 12 932 6Q999 0 1002 0Q1006 0 1055 1.5Q1104 3 1123 3Q1099 -9 1061.5 -11Q1024 -13 1009 -22Q994 -31 980.5 -78Q967 -125 967 -159Q967 -282 1059 -406Q1063 -410 1256 -626Q1382 -768 1434 -896Q1448 -932 1448 -978Q1448 -995 1445 -1043Q1441 -1084 1443 -1107Q1447 -1157 1477 -1198Q1511 -1243 1556 -1243Q1566 -1243 1576 -1241Q1526 -1266 1511 -1266Q1494 -1266 1450 -1244Q1441 -1260 1441 -1267Q1483 -1288 1511 -1288Q1542 -1288 1613 -1253ZM294 -1360Q294 -1389 253 -1421Q217 -1449 197 -1449Q170 -1449 150 -1420Q132 -1395 132 -1374Q132 -1350 150 -1321Q173 -1282 213 -1282Q231 -1282 260 -1305Q294 -1332 294 -1360ZM433 -1152Q417 -1162 381 -1174Q382 -1165 391 -1142Q400 -1119 400 -1108Q400 -1090 381 -1079H410Q436 -1091 433 -1152ZM1225 -565Q988 -349 996 -151Q1023 -167 1077 -199Q1108 -121 1135 -34Q1156 -27 1204 -29Q1181 -40 1157 -125Q1134 -203 1134 -248Q1134 -347 1225 -565ZM234 -1156Q234 -1199 226 -1208Q183 -1250 139 -1293V-900Q234 -997 234 -1156ZM1311 21Q1311 18 1308.5 8.5Q1306 -1 1306 -4Q1279 -6 1231 -14Q1258 -5 1281 21ZM2679 296V49H128V296Q180 248 270 167H2531Q2581 210 2679 296ZM1216 13L1191 -2L1188 6L1212 21ZM1107 -33Q1096 -62 1068 -161Q1044 -150 1000 -123Q990 -33 1089 -33ZM913 -50Q905 -92 907 -150Q823 -108 808 -108Q795 -108 800 -112L794 -409Q663 -371 583 -225Q528 -102 472 21H723Q749 -20 796 -27Q890 -42 913 -50ZM1490 -1321Q1465 -1298 1449 -1298Q1414 -1298 1414 -1328Q1414 -1368 1460 -1368Q1472 -1368 1490 -1351Z"/>
</svg>