<svg xmlns="http://www.w3.org/2000/svg" viewBox="0 -2048 2048 2048">
	<path fill="#000000" d="M1062 -737Q1062 -719 1039 -719Q1036 -719 982 -751L923 -786L1010 -662L846 -552Q833 -575 766 -709Q722 -797 692 -826Q677 -840 638 -848V-688Q638 -672 627 -663Q597 -693 569 -699Q567 -689 561 -632Q594 -628 629.5 -623.5Q665 -619 677 -582H727V-529H503L481 -118Q533 -140 557 -157Q668 -235 668 -349V-361Q649 -365 630 -406Q606 -455 596 -465V-484Q604 -490 616 -490Q634 -490 648 -480Q658 -490 680 -507Q686 -504 701.5 -489Q717 -474 722 -474Q735 -474 763 -485L776 -472Q755 -430 695 -361V-354Q695 -226 566 -138Q534 -116 480 -90V-87Q522 -63 547 -44Q714 85 714 281V349H690Q674 95 530 -24Q508 -42 478 -61L472 59Q474 60 477 60Q483 60 494.5 56Q506 52 512 52Q537 52 556 75Q575 98 575 123Q575 130 550 181Q521 240 519 245Q510 275 486 333Q472 360 448 360Q424 360 411.5 331.5Q399 303 377 245Q375 240 346 181Q321 130 321 123Q321 98 340 75Q359 52 384 52Q390 52 401.5 56Q413 60 419 60Q421 60 424 59L418 -58Q390 -42 377 -32Q223 85 213 344H187V315Q187 77 366 -59Q387 -75 416 -89L415 -98Q384 -116 363 -129Q306 -165 262 -223Q211 -290 211 -347Q211 -361 214 -372Q192 -370 180 -406Q165 -449 138 -459Q140 -482 169 -499Q194 -513 219 -513Q231 -513 267 -499.5Q303 -486 312 -478Q300 -463 280 -432Q261 -396 235 -373V-367Q235 -312 283 -244Q324 -185 377 -148Q394 -136 414 -124L392 -529H154V-582H204Q211 -603 242 -611Q256 -612 283 -614Q298 -616 370 -634Q391 -686 391 -749Q391 -792 383 -821Q343 -968 307 -1025Q291 -1043 261 -1079Q220 -1131 209 -1170Q199 -1203 199 -1276Q199 -1364 156 -1364Q142 -1364 109 -1329Q100 -1356 100 -1369Q100 -1400 113 -1415Q166 -1475 213 -1509Q237 -1526 296 -1526Q364 -1526 400 -1495Q426 -1472 462 -1404Q467 -1395 491 -1379Q567 -1330 627 -1254Q695 -1160 836 -976Q845 -965 977 -839Q1062 -758 1062 -737ZM223 -1432L210 -1436V-1427Q213 -1426 219 -1422ZM308 -1397Q308 -1417 246 -1437Q246 -1437 224 -1371Q218 -1372 207 -1375Q222 -1355 229 -1339Q231 -1345 231 -1351Q227 -1362 227 -1369Q227 -1381 238.5 -1393.5Q250 -1406 263 -1406Q292 -1406 295 -1368Q308 -1392 308 -1397ZM271 -1369Q271 -1374 269 -1376L266 -1379Q266 -1380 265 -1382H257L252 -1376V-1342Q271 -1352 271 -1369ZM1008 -768Q942 -829 819 -960Q749 -1054 606 -1241Q564 -1294 509 -1337Q478 -1355 433 -1399Q427 -1412 413 -1438Q375 -1500 317 -1500Q242 -1500 217 -1482Q203 -1464 170 -1431Q159 -1422 152 -1419L144 -1415Q129 -1407 124 -1384Q146 -1411 173 -1411Q179 -1411 192 -1406L205 -1401Q190 -1423 190 -1430Q190 -1464 238 -1464Q262 -1464 296.5 -1443Q331 -1422 331 -1399Q331 -1375 305.5 -1347Q280 -1319 255 -1309L247 -1318Q242 -1308 232 -1302Q221 -1310 207 -1340Q195 -1367 181 -1373Q215 -1335 217 -1267Q219 -1187 230 -1162Q244 -1132 293 -1073Q319 -1045 366 -988Q475 -849 514 -744L517 -736Q521 -725 521 -721Q521 -676 509 -615Q475 -609 427 -597Q421 -594 419 -586Q521 -592 570 -592Q592 -592 625 -590L621 -602Q577 -606 537 -615Q540 -651 547 -723H565Q577 -723 617 -701V-866Q624 -873 632 -873Q624 -873 670.5 -860Q717 -847 776 -743Q815 -667 855 -591Q933 -639 976 -671Q928 -741 872 -817Q784 -868 583 -970Q393 -1066 295 -1125Q224 -1168 224 -1233Q224 -1284 285 -1319Q337 -1349 392 -1349Q407 -1349 408 -1333Q358 -1319 308 -1306Q248 -1284 248 -1234Q248 -1191 321 -1140Q346 -1123 447 -1069L900 -829Q962 -797 1008 -768ZM650 -594L642 -603L639 -600L647 -591ZM498 -728Q491 -803 364 -949Q414 -801 414 -749Q414 -708 403 -667Q398 -652 392 -621Q401 -622 419 -627Q428 -662 448 -733Q464 -731 495 -723ZM694 -454Q691 -460 688 -474Q686 -474 679 -442ZM493 -697L490 -701Q484 -709 479 -709H462Q458 -682 448 -627Q462 -629 490 -635Q491 -656 493 -697ZM723 -441Q709 -428 678 -409Q666 -419 647 -441Q647 -429 659.5 -408Q672 -387 683 -387Q704 -387 711 -405Q718 -423 723 -441ZM386 -590L384 -595L376 -591V-586ZM354 -606Q336 -602 299 -595V-586H319Q326 -586 354 -606ZM259 -588L257 -592L249 -588V-583ZM709 -550V-562H172V-550H419L443 -108L449 -104L453 -106L476 -550ZM274 -473Q238 -485 219 -485Q195 -485 176 -466Q189 -442 221 -398Q241 -407 253 -431Q264 -452 274 -473ZM451 -76L445 -73L448 -12ZM547 128Q547 111 534 95Q521 79 504 79Q490 79 448 91Q406 79 392 79Q375 79 362 95Q349 111 349 128Q349 132 360 157Q377 195 410 272Q416 294 433 333Q438 341 448 341Q458 341 463 333Q471 312 486 272Q489 266 536 157Q547 132 547 128Z"/>
</svg>