<svg xmlns="http://www.w3.org/2000/svg" viewBox="18.5 -1687.5 2011 2201">
	<path fill="currentColor" d="M1676 -331H370Q348 -364 348 -393Q348 -490 445 -568Q537 -642 637 -642H764Q774 -673 832 -673Q849 -673 932 -694Q953 -746 953 -812Q953 -867 925.5 -956.5Q898 -1046 867 -1094Q852 -1113 821 -1150Q779 -1203 767 -1243Q757 -1277 757 -1350Q757 -1441 713 -1441Q697 -1441 665 -1406Q656 -1432 656 -1445Q656 -1477 669 -1493Q714 -1549 771 -1588Q798 -1606 856 -1606Q927 -1606 962 -1574Q978 -1559 1025 -1481Q1031 -1471 1055 -1455Q1135 -1402 1194 -1328Q1263 -1232 1406 -1044Q1408 -1042 1552 -905Q1638 -823 1638 -800Q1638 -782 1615 -782Q1616 -782 1498 -850L1585 -725L1460 -642H1676V-568H637Q572 -568 505 -519Q435 -467 424 -405H1676ZM1948 432H100V406H241V259H100V233H241V87H100V61H985V-27Q904 -103 755 -227H100V-305H1948V-227H1230Q1289 -152 1289 -98Q1289 -42 1242.5 -0.5Q1196 41 1139 41Q1103 41 1063 22V61H1948V87H1807V233H1948V259H1807V406H1948ZM794 -1512L780 -1516V-1506L790 -1502ZM881 -1475Q881 -1495 816 -1516Q814 -1505 795 -1448L777 -1453Q791 -1434 800 -1415Q801 -1419 801 -1427Q798 -1435 798 -1446Q798 -1483 834 -1483Q863 -1483 866 -1445Q881 -1472 881 -1475ZM842 -1446Q842 -1449 836 -1459H829L823 -1453V-1418Q842 -1429 842 -1446ZM1591 -825Q1560 -865 1490 -927Q1415 -993 1386 -1027Q1315 -1124 1169 -1315Q1126 -1368 1066 -1414Q1040 -1431 996 -1477Q960 -1534 944 -1549Q911 -1580 862 -1580Q814 -1580 787 -1564Q707 -1516 685 -1464Q711 -1488 742 -1488Q753 -1488 775 -1479Q760 -1499 760 -1508Q760 -1543 808 -1543Q834 -1543 867 -1523Q904 -1501 904 -1477Q904 -1451 878.5 -1423Q853 -1395 827 -1384L818 -1394Q813 -1383 802 -1377Q790 -1401 760 -1444Q784 -1408 785 -1299Q786 -1249 801 -1221Q804 -1215 846 -1167Q1088 -888 1088 -784Q1088 -746 1074 -676Q1049 -672 1023 -667Q986 -659 982 -646Q1121 -654 1193 -650L1188 -663Q1141 -667 1102 -676Q1105 -713 1112 -786H1131Q1143 -786 1184 -763V-932Q1190 -940 1200 -940Q1283 -940 1427 -651L1547 -731L1442 -882Q1362 -929 1147 -1037Q958 -1131 855 -1197Q794 -1236 794 -1306Q794 -1358 850 -1394Q899 -1425 954 -1425Q970 -1425 971 -1408Q922 -1394 874 -1381Q819 -1359 819 -1308Q819 -1257 882 -1212Q916 -1188 1010 -1138L1473 -894Q1527 -865 1591 -825ZM1402 -642Q1369 -704 1337 -767Q1296 -845 1260 -882Q1238 -905 1205 -913V-750Q1205 -734 1194 -725Q1166 -753 1134 -760Q1132 -738 1127 -694Q1162 -690 1197.5 -685Q1233 -680 1246 -642ZM1218 -654L1209 -664L1206 -660L1214 -651ZM1062 -792Q1046 -883 934 -1017Q981 -875 981 -812Q981 -750 959 -682L982 -687Q991 -723 1011 -796Q1027 -794 1059 -787ZM1057 -759Q1046 -772 1043 -772H1025Q1021 -744 1011 -688Q1026 -690 1055 -696Q1056 -717 1057 -759ZM950 -648L948 -653L940 -649V-643ZM921 -664Q901 -660 860 -652V-642H882Q890 -642 921 -664ZM1781 233V87H1587V233ZM1650 -357V-379H398Q395 -386 395 -393Q395 -470 479 -534Q557 -594 637 -594H1650V-616H637Q548 -616 464 -550Q374 -479 374 -393Q374 -375 385 -357ZM818 -648L817 -652L807 -648V-642ZM1263 -98Q1263 -145 1197 -227H1160Q1243 -160 1262 -83Q1263 -89 1263 -98ZM1781 406V259H1587V406ZM1561 233V87H1367V233ZM1922 -253V-279H126V-253ZM1241 -54Q1234 -142 1116 -227H1063V-60Q1122 -27 1166 -27Q1202 -27 1241 -54ZM1037 -76V-227H1011V-94Q1027 -82 1037 -76ZM1561 406V259H1367V406ZM1213 -10Q1189 -1 1166 -1Q1046 -1 822 -227H798Q883 -150 969 -74Q1074 15 1139 15Q1178 15 1213 -10ZM985 -113V-227H859Q930 -156 985 -113ZM1341 233V87H1147V233ZM1037 61V8Q1029 3 1011 -9V61ZM1341 406V259H1147V406ZM1121 233V87H927V233ZM1121 406V259H927V406ZM901 233V87H707V233ZM901 406V259H707V406ZM681 233V87H487V233ZM681 406V259H487V406ZM461 233V87H267V233ZM461 406V259H267V406Z"/>
</svg>