<svg xmlns="http://www.w3.org/2000/svg" viewBox="0 -2048 2048 2048">
	<path fill="#000000" d="M1071 -790Q1071 -786 1069 -777.5Q1067 -769 1067 -765H1038Q1015 -791 933 -833L1015 -723Q1016 -707 968 -676Q935 -657 902 -638H1069V348H100V-636H227Q232 -642 233 -652Q267 -661 336 -674Q354 -676 389 -681Q410 -763 410 -804Q410 -838 382 -928Q354 -1015 334 -1047Q296 -1093 259 -1139Q216 -1193 216 -1248Q216 -1257 217 -1274.5Q218 -1292 218 -1301Q218 -1390 175 -1390Q155 -1390 145 -1360Q119 -1366 119 -1391Q119 -1417 133 -1441Q140 -1454 154 -1461Q175 -1471 179 -1474Q189 -1494 217 -1528Q239 -1545 313 -1545Q374 -1545 402 -1531Q436 -1514 474 -1434Q483 -1414 513 -1404Q526 -1399 642 -1281L924 -1539L1063 -1163L1042 -1155L1030 -1185L995 -1176L1000 -1142L980 -1138L973 -1173L935 -1166V-1134L912 -1136V-1496L656 -1263Q718 -1180 780 -1097Q854 -1000 915 -940Q942 -917 997 -870Q1071 -805 1071 -790ZM1022 -1206L935 -1453V-1189ZM325 -1418Q325 -1463 266 -1463H262Q263 -1457 263 -1453Q263 -1433 249 -1426L252 -1417Q261 -1434 285 -1434Q314 -1434 312 -1393Q325 -1403 325 -1418ZM239 -1461H238L237 -1456ZM1045 -790Q1020 -827 960 -876Q889 -933 868 -957Q855 -972 639 -1248Q543 -1371 500 -1386Q487 -1389 465 -1402Q448 -1438 398 -1501Q373 -1522 314 -1522Q244 -1522 229 -1508Q221 -1491 200 -1460Q195 -1454 168 -1444Q150 -1437 147 -1413Q166 -1437 194 -1437Q203 -1437 223 -1428Q210 -1455 210 -1460Q210 -1486 245 -1486Q250 -1486 261 -1487.5Q272 -1489 277 -1489Q348 -1489 348 -1422Q348 -1390 324 -1370Q299 -1354 274 -1338L266 -1345Q256 -1325 237 -1336Q238 -1332 242 -1252Q244 -1197 262 -1173Q331 -1077 424 -970Q448 -948 490 -899Q539 -824 539 -742Q539 -723 529 -670Q517 -661 479 -657Q445 -652 439 -641H639V-647Q631 -658 600 -660Q577 -661 554 -662V-694Q554 -722 567 -774Q590 -768 632 -748L631 -902Q631 -912 641 -921Q668 -911 696 -900Q729 -886 743 -867Q776 -824 865 -641Q906 -667 986 -721Q954 -769 885 -861L531 -1046Q464 -1078 334 -1148Q303 -1167 280 -1192Q242 -1234 242 -1288Q242 -1328 312 -1355Q368 -1378 415 -1378Q424 -1378 429 -1367Q421 -1359 333 -1337Q269 -1321 269 -1261Q269 -1208 351 -1163Q530 -1070 888 -884Q927 -864 1003 -821Q1016 -810 1045 -790ZM290 -1396V-1402Q290 -1411 282 -1411Q269 -1411 269 -1396V-1391Q269 -1398 270 -1372Q290 -1389 290 -1396ZM247 -1402Q244 -1399 237 -1396Q240 -1392 245 -1380Q245 -1392 247 -1402ZM840 -638Q822 -670 790 -734Q757 -807 740 -831Q705 -880 653 -892V-710Q631 -723 586 -746H581Q579 -724 577 -681Q610 -678 643 -676Q682 -669 691 -638ZM513 -770V-794Q513 -829 469 -890Q462 -900 386 -983Q406 -925 428 -826Q433 -803 433 -807Q433 -765 412 -671Q425 -674 437 -675Q444 -716 470 -783Q485 -780 513 -770ZM516 -738Q516 -745 482 -756Q475 -730 460 -677Q484 -680 508 -684Q516 -736 516 -738ZM1044 -556V-611H125V-556ZM1044 -479V-529H125V-479ZM1044 323V-453H992V323ZM390 -640V-643Q387 -641 386 -639ZM965 323V-453H904V323ZM351 -654Q331 -652 323 -641H332Q337 -641 345 -643Q347 -650 351 -654ZM798 -338V-453H378V-338ZM877 323V-453H821V323ZM798 -200V-312H378V-200ZM798 -65V-173H378V-65ZM798 323V-38H378V323H466V50H704V323ZM354 323V-453H295V323ZM677 323V73H492V323ZM269 323V-453H210V323ZM184 323V-453H125V323Z"/>
</svg>