<svg xmlns="http://www.w3.org/2000/svg" viewBox="0 -2048 2048 2048">
	<path fill="#000000" d="M2026 -759Q2026 -735 2003 -735Q1996 -735 1893 -792L1975 -674L1811 -569Q1769 -651 1726 -734Q1671 -838 1606 -863Q1606 -860 1589 -680Q1576 -684 1537 -710Q1531 -710 1522 -699V-643Q1563 -639 1637 -606V-579Q1632 -579 1622.5 -580.5Q1613 -582 1608 -582Q1602 -582 1597 -577.5Q1592 -573 1587 -573Q1567 -573 1528.5 -577.5Q1490 -582 1470 -582Q1457 -582 1432 -577.5Q1407 -573 1394 -573Q1387 -573 1373.5 -577Q1360 -581 1353 -581Q1343 -581 1322.5 -577.5Q1302 -574 1291 -574Q1292 -582 1279 -582Q1257 -582 1215 -570Q1173 -558 1152 -558H1147L1133 -568V-584Q1168 -611 1225 -623Q1275 -631 1325 -639Q1346 -679 1346 -724Q1346 -835 1314 -913Q1297 -957 1241 -1041Q1185 -1125 1158 -1194Q1154 -1248 1149 -1302Q1143 -1383 1107 -1383Q1092 -1383 1079 -1358H1057Q1051 -1383 1051 -1382Q1051 -1421 1074 -1446Q1168 -1547 1255 -1547Q1313 -1547 1337 -1529Q1348 -1521 1392 -1464Q1418 -1431 1470 -1384Q1533 -1327 1552 -1307Q1559 -1299 1630 -1213Q1832 -966 1947 -849Q1972 -822 2025 -771Q2026 -765 2026 -759ZM1224 -759Q1224 -735 1201 -735Q1194 -735 1091 -792L1173 -674L1009 -569Q967 -651 924 -734Q869 -838 804 -863Q804 -860 787 -680Q774 -684 735 -710Q729 -710 720 -699V-643Q761 -639 835 -606V-579Q830 -579 820.5 -580.5Q811 -582 806 -582Q800 -582 795 -577.5Q790 -573 785 -573Q765 -573 726.5 -577.5Q688 -582 668 -582Q655 -582 630 -577.5Q605 -573 592 -573Q585 -573 571.5 -577Q558 -581 551 -581Q541 -581 520.5 -577.5Q500 -574 489 -574Q490 -582 477 -582Q455 -582 413 -570Q371 -558 350 -558H345L331 -568V-584Q366 -611 423 -623Q473 -631 523 -639Q544 -679 544 -724Q544 -835 512 -913Q495 -957 439 -1041Q383 -1125 356 -1194Q352 -1248 347 -1302Q341 -1383 305 -1383Q290 -1383 277 -1358H255Q249 -1383 249 -1382Q249 -1421 272 -1446Q366 -1547 453 -1547Q512 -1547 536 -1529Q545 -1522 590 -1464Q616 -1431 668 -1384Q731 -1327 750 -1307Q757 -1299 828 -1213Q1030 -967 1145 -849Q1170 -822 1223 -771Q1224 -765 1224 -759ZM2134 34Q2134 142 2057.5 218.5Q1981 295 1873 295H361Q253 295 176.5 218.5Q100 142 100 34V-277Q100 -385 176.5 -461.5Q253 -538 361 -538H1873Q1981 -538 2057.5 -461.5Q2134 -385 2134 -277ZM1993 -769Q1886 -865 1754 -1023Q1643 -1158 1532 -1293Q1499 -1321 1434 -1378Q1396 -1414 1372 -1445Q1359 -1467 1327 -1504Q1307 -1521 1255 -1521Q1199 -1521 1160 -1492Q1124 -1457 1088 -1423Q1115 -1432 1151 -1430Q1143 -1443 1143 -1455Q1143 -1481 1183 -1481Q1285 -1481 1285 -1419Q1285 -1402 1273 -1383Q1265 -1371 1231.5 -1348Q1198 -1325 1186 -1325Q1179 -1325 1170 -1341Q1177 -1296 1177 -1283H1180Q1183 -1314 1250 -1344Q1310 -1371 1347 -1371Q1368 -1371 1365 -1355Q1317 -1339 1268 -1324Q1202 -1300 1202 -1263Q1202 -1201 1290 -1145Q1360 -1106 1430 -1068Q1509 -1027 1667 -943Q1777 -887 1991 -767ZM1261 -1419Q1261 -1430 1246.5 -1443.5Q1232 -1457 1221 -1457H1202Q1197 -1443 1181 -1423L1182 -1420Q1209 -1429 1215 -1429Q1240 -1429 1254 -1392Q1254 -1398 1257.5 -1406Q1261 -1414 1261 -1419ZM1224 -1403Q1202 -1403 1202 -1384Q1202 -1386 1213 -1364Q1224 -1379 1224 -1403ZM1184 -1371V-1393H1172V-1371ZM1941 -684Q1913 -726 1838 -823Q1681 -904 1468 -1018Q1393 -1056 1249 -1141Q1186 -1184 1179 -1235H1176V-1206Q1176 -1185 1275 -1060Q1338 -982 1400 -904Q1480 -789 1480 -705Q1480 -639 1461 -621Q1432 -614 1375 -601L1376 -599Q1458 -603 1490 -603Q1532 -603 1586 -598Q1581 -602 1498 -624V-686Q1498 -710 1507 -738Q1545 -729 1576 -712Q1576 -742 1580 -799.5Q1584 -857 1584 -883L1591 -891Q1679 -868 1732 -772Q1776 -686 1820 -601Q1862 -627 1941 -684ZM2069 -406Q2037 -455 1986 -483L1930 -427L2010 -347ZM2108 -249V-277Q2108 -334 2083 -383L2029 -328ZM1961 -495Q1919 -512 1873 -512H1845L1911 -446ZM1893 -427L1812 -508L1732 -427L1812 -347ZM1992 -328L1911 -409L1831 -328L1911 -248ZM2091 -229L2010 -310L1930 -229L2010 -149ZM2108 -51V-210L2029 -130ZM1780 -512H1647L1713 -446ZM1457 -739Q1425 -826 1325 -959Q1370 -853 1370 -751Q1370 -731 1356 -633Q1358 -635 1361 -636Q1365 -636 1375 -634Q1383 -672 1407 -745Q1424 -742 1457 -739ZM1456 -682Q1456 -720 1423 -720H1419Q1407 -666 1402 -634Q1456 -639 1456 -682ZM1695 -427L1614 -508L1534 -427L1614 -347ZM1794 -328L1713 -409L1633 -328L1713 -248ZM1893 -229L1812 -310L1732 -229L1812 -149ZM1992 -130L1911 -211L1831 -130L1911 -50ZM2091 -31L2010 -112L1930 -31L2010 49ZM2108 34V-12L2029 68L2088 128Q2108 82 2108 34ZM1582 -512H1449L1515 -446ZM1338 -617L1328 -621L1320 -605L1330 -600ZM1191 -769Q1084 -865 952 -1023Q841 -1158 730 -1293Q697 -1321 632 -1378Q594 -1414 570 -1445Q557 -1467 525 -1504Q505 -1521 453 -1521Q397 -1521 358 -1492Q322 -1457 286 -1423Q313 -1432 350 -1430Q341 -1444 341 -1455Q341 -1481 381 -1481Q483 -1481 483 -1419Q483 -1402 471 -1383Q463 -1371 430 -1348Q397 -1325 385 -1325Q377 -1325 368 -1341Q376 -1290 376 -1283H378Q381 -1314 448 -1344Q508 -1371 545 -1371Q566 -1371 563 -1355Q515 -1339 466 -1324Q400 -1300 400 -1263Q400 -1201 488 -1145Q558 -1106 628 -1068Q707 -1027 865 -943Q975 -887 1189 -767ZM1282 -606L1279 -615L1259 -609V-597ZM460 -1419Q460 -1430 445 -1443.5Q430 -1457 419 -1457H400Q396 -1443 380 -1423L381 -1420Q408 -1429 413 -1429Q438 -1429 452 -1392Q452 -1398 456 -1406Q460 -1414 460 -1419ZM1497 -427L1416 -508L1336 -427L1416 -347ZM1596 -328L1515 -409L1435 -328L1515 -248ZM1695 -229L1614 -310L1534 -229L1614 -149ZM1794 -130L1713 -211L1633 -130L1713 -50ZM1893 -31L1812 -112L1732 -31L1812 49ZM1992 68L1911 -13L1831 68L1911 148ZM2076 152L2010 86L1930 167L1997 234Q2046 204 2076 152ZM1384 -512H1251L1317 -446ZM422 -1403Q400 -1403 400 -1384Q400 -1386 411 -1364Q422 -1379 422 -1403ZM383 -1371V-1393H370V-1371ZM1973 247L1911 185L1831 266L1834 269H1873Q1926 269 1973 247ZM1139 -684Q1104 -736 1037 -823Q856 -916 666 -1018Q591 -1056 447 -1141Q384 -1184 377 -1235H374V-1206Q374 -1185 473 -1060Q536 -982 598 -904Q678 -789 678 -705Q678 -639 659 -621Q630 -614 573 -601L574 -599Q656 -603 688 -603Q730 -603 784 -598Q779 -602 696 -624V-686Q696 -707 706 -738Q743 -730 774 -712Q774 -742 778 -799.5Q782 -857 782 -883L789 -891Q877 -868 930 -772Q974 -686 1018 -601Q1060 -627 1139 -684ZM1299 -427L1218 -508L1138 -427L1218 -347ZM1398 -328L1317 -409L1237 -328L1317 -248ZM1497 -229L1416 -310L1336 -229L1416 -149ZM1596 -130L1515 -211L1435 -130L1515 -50ZM1695 -31L1614 -112L1534 -31L1614 49ZM1794 68L1713 -13L1633 68L1713 148ZM1893 167L1812 86L1732 167L1812 247ZM1186 -512H1053L1119 -446ZM1794 266L1713 185L1633 266L1636 269H1791ZM1101 -427L1020 -508L940 -427L1020 -347ZM1200 -328L1119 -409L1039 -328L1119 -248ZM1299 -229L1218 -310L1138 -229L1218 -149ZM1398 -130L1317 -211L1237 -130L1317 -50ZM1497 -31L1416 -112L1336 -31L1416 49ZM1596 68L1515 -13L1435 68L1515 148ZM1695 167L1614 86L1534 167L1614 247ZM988 -512H855L921 -446ZM655 -739Q623 -826 523 -959Q568 -853 568 -751Q568 -731 554 -633Q556 -635 559 -636Q564 -636 574 -634Q582 -672 605 -745Q622 -742 655 -739ZM654 -682Q654 -720 621 -720H617Q605 -666 600 -634Q654 -639 654 -682ZM1596 266L1515 185L1435 266L1438 269H1593ZM903 -427L822 -508L742 -427L822 -347ZM1002 -328L921 -409L841 -328L921 -248ZM1101 -229L1020 -310L940 -229L1020 -149ZM1200 -130L1119 -211L1039 -130L1119 -50ZM1299 -31L1218 -112L1138 -31L1218 49ZM1398 68L1317 -13L1237 68L1317 148ZM1497 167L1416 86L1336 167L1416 247ZM790 -512H657L723 -446ZM536 -617L526 -621L518 -605L528 -600ZM1398 266L1317 185L1237 266L1240 269H1395ZM480 -606L477 -615L457 -609V-597ZM705 -427L624 -508L544 -427L624 -347ZM804 -328L723 -409L643 -328L723 -248ZM903 -229L822 -310L742 -229L822 -149ZM1002 -130L921 -211L841 -130L921 -50ZM1101 -31L1020 -112L940 -31L1020 49ZM1200 68L1119 -13L1039 68L1119 148ZM1299 167L1218 86L1138 167L1218 247ZM592 -512H459L525 -446ZM1200 266L1119 185L1039 266L1042 269H1197ZM507 -427L426 -508L346 -427L426 -347ZM606 -328L525 -409L445 -328L525 -248ZM705 -229L624 -310L544 -229L624 -149ZM804 -130L723 -211L643 -130L723 -50ZM903 -31L822 -112L742 -31L822 49ZM1002 68L921 -13L841 68L921 148ZM1101 167L1020 86L940 167L1020 247ZM394 -512H361Q318 -512 277 -496L327 -446ZM1002 266L921 185L841 266L844 269H999ZM408 -328L327 -409L247 -328L327 -248ZM507 -229L426 -310L346 -229L426 -149ZM606 -130L525 -211L445 -130L525 -50ZM705 -31L624 -112L544 -31L624 49ZM804 68L723 -13L643 68L723 148ZM903 167L822 86L742 167L822 247ZM309 -427L251 -485Q200 -458 166 -408L228 -347ZM804 266L723 185L643 266L646 269H801ZM210 -328L153 -385Q126 -333 126 -277V-251L129 -248ZM309 -229L228 -310L148 -229L228 -149ZM408 -130L327 -211L247 -130L327 -50ZM507 -31L426 -112L346 -31L426 49ZM606 68L525 -13L445 68L525 148ZM705 167L624 86L544 167L624 247ZM210 -130L129 -211L126 -208V-53L129 -50ZM606 266L525 185L445 266L448 269H603ZM309 -31L228 -112L148 -31L228 49ZM408 68L327 -13L247 68L327 148ZM507 167L426 86L346 167L426 247ZM210 68L129 -13L126 -10V34Q126 85 147 131ZM408 266L327 185L264 248Q310 269 361 269H405ZM309 167L228 86L160 155Q190 205 240 235Z"/>
</svg>