<svg xmlns="http://www.w3.org/2000/svg" viewBox="0 -2048 2048 2048">
	<path fill="currentColor" d="M2051 -57L1843 194Q1723 74 1603 -46Q1451 -194 1385 -215L1361 -212L1577 -29Q1549 -20 1480 9Q1543 117 1677 153Q1717 164 1797 236Q1723 212 1695 224Q1719 235 1759 261Q1781 285 1824 325V345H1763Q1696 345 1556 213Q1461 121 1367 29Q1315 -13 1271 -36Q1183 -82 1044 -144Q909 -205 898 -205Q890 -205 819.5 -116.5Q749 -28 705 37Q530 297 270 297Q189 297 100 235L591 -412Q447 -527 436 -616Q431 -673 425 -729Q418 -797 400 -837Q372 -900 321 -900Q295 -900 271 -868H252V-945Q252 -958 279 -988Q314 -1028 314 -1028Q319 -1045 334 -1076Q356 -1105 426 -1132Q493 -1158 539 -1158Q623 -1158 707 -1079Q845 -948 905 -910L1396 -1546Q1534 -1422 1534 -1263Q1534 -1152 1457 -1021Q1446 -1002 1272 -750Q1248 -715 1248 -714Q1248 -707 1275 -684Q1310 -653 1312 -651Q1456 -494 1679 -330Q1865 -194 2051 -57ZM1512 -1263Q1512 -1435 1396 -1508L1323 -1414Q1383 -1353 1383 -1255Q1383 -1205 1329 -1126Q1284 -1063 1239 -1001Q1176 -901 1108 -810Q1147 -782 1224 -733Q1322 -871 1420 -1009Q1512 -1155 1512 -1263ZM1356 -1261Q1356 -1287 1342 -1329Q1327 -1375 1310 -1390L936 -902Q986 -880 1084 -824Q1356 -1196 1356 -1261ZM2013 -57Q1854 -169 1543 -409Q1372 -564 1139 -762Q1083 -801 963 -859.5Q843 -918 837 -922Q779 -964 672 -1076Q614 -1137 542 -1137Q472 -1137 387 -1086Q367 -1074 348 -1042Q336 -1022 325 -1001Q320 -993 296 -973Q279 -959 279 -945Q279 -941 280 -937Q312 -964 345 -964Q370 -964 401 -954V-974Q370 -985 370 -1018Q370 -1061 456 -1061Q569 -1061 569 -959Q569 -891 491 -840Q477 -852 477 -865Q477 -872 493.5 -894.5Q510 -917 510 -924Q510 -938 480 -953Q464 -937 464 -909Q464 -903 465 -893Q465 -882 465 -877Q465 -847 438 -840Q429 -854 403 -886Q427 -839 445 -752Q467 -642 470 -632Q478 -602 495 -556Q577 -423 877 -244Q917 -220 1126 -125Q1178 -104 1231 -83Q1305 -51 1351 -15Q1364 -5 1542 168Q1658 281 1748 307V287Q1703 258 1614 202V182L1618 178Q1638 181 1684 186Q1624 170 1581 145Q1554 129 1507 85Q1447 27 1447 -5Q1447 -12 1451 -16Q1507 -30 1523 -40Q1435 -111 1318 -228Q1339 -242 1369 -242Q1456 -242 1838 162ZM548 -956Q548 -982 527.5 -1008Q507 -1034 479 -1034H445Q451 -1024 451 -1015Q451 -1012 427 -973Q428 -964 423 -945Q418 -926 418 -921Q418 -913 425 -907.5Q432 -902 432 -900Q439 -980 477 -980Q503 -980 539 -921Q548 -937 548 -956ZM423 -1003V-1028H398Q392 -1015 410 -997Q415 -1002 423 -1003ZM385 -906Q366 -925 361 -925H319Q351 -923 385 -906ZM720 -315Q704 -328 667.5 -357Q631 -386 615 -399L230 107Q227 108 297 108Q394 108 521 -47Q620 -181 720 -315ZM871 -218Q796 -265 744 -302Q639 -161 533 -21Q411 129 289 129Q281 129 255.5 126.5Q230 124 224 124Q207 124 175 169Q154 200 133 230Q214 275 275 275Q397 275 497 208Q577 155 675.5 31Q774 -93 871 -218Z"/>
</svg>