<svg xmlns="http://www.w3.org/2000/svg" viewBox="0 -2048 2048 2048">
	<path fill="currentColor" d="M1948 432H100V406H289V259H100V233H289V87H100V61H985V-140Q887 -153 807 -226Q730 -296 699 -394H100V-472H764Q793 -499 931 -515Q955 -596 955 -646Q955 -682 936.5 -747.5Q918 -813 900 -845Q725 -723 604 -723Q478 -723 385 -812L763 -1092Q756 -1119 756 -1178Q756 -1266 715 -1266Q699 -1266 683 -1236H663Q653 -1255 653 -1268Q653 -1299 677 -1327Q746 -1407 785 -1423Q810 -1433 859 -1433Q929 -1433 974 -1385Q1016 -1336 1059 -1288L1450 -1578Q1500 -1531 1500 -1446Q1500 -1414 1480 -1347Q1465 -1296 1391 -1213Q1322 -1136 1271 -1103Q1255 -1093 1255 -1087Q1255 -1086 1318 -980Q1439 -776 1449 -761Q1525 -637 1592 -549Q1562 -524 1482 -472H1948V-394H1350Q1319 -296 1241 -226Q1161 -153 1063 -140V61H1948V87H1759V233H1948V259H1759V406H1948ZM1474 -1444Q1474 -1506 1440 -1538Q1381 -1485 1381 -1482Q1381 -1467 1385 -1436.5Q1389 -1406 1389 -1391Q1389 -1345 1312 -1267Q1245 -1199 1193 -1172Q1206 -1150 1238 -1112Q1350 -1206 1392 -1256Q1474 -1353 1474 -1444ZM1364 -1413Q1364 -1421 1361 -1437.5Q1358 -1454 1358 -1462V-1467Q1359 -1469 1363 -1472L1092 -1272Q1139 -1239 1177 -1191Q1269 -1263 1294 -1288Q1364 -1357 1364 -1413ZM864 -1304Q840 -1340 826 -1340H807Q807 -1325 795 -1301Q808 -1314 829 -1314Q855 -1314 857 -1280ZM783 -1335V-1337Q783 -1344 776 -1344Q770 -1344 770 -1337V-1335Q770 -1328 775 -1328H777Q783 -1328 783 -1335ZM1557 -553Q1534 -587 1345 -891Q1218 -1097 1113 -1215Q1073 -1259 1025 -1267Q996 -1308 966 -1349Q925 -1401 888 -1405Q879 -1406 857 -1406Q788 -1406 755 -1364Q779 -1372 791 -1372Q823 -1372 842 -1365.5Q861 -1359 880 -1333Q899 -1307 899 -1288Q899 -1258 866 -1240Q838 -1228 810.5 -1216Q783 -1204 791 -1204Q779 -1205 780 -1209V-1124Q780 -1079 855 -981Q909 -914 963 -846Q1001 -799 1065 -701Q1092 -647 1092 -595Q1092 -541 1080 -499Q1051 -494 993 -483L991 -472H1193Q1183 -477 1104 -501Q1106 -538 1117 -612H1137Q1160 -612 1183 -595Q1183 -623 1186.5 -680Q1190 -737 1190 -764L1195 -770Q1285 -741 1342 -648Q1387 -562 1432 -476ZM828 -1283Q823 -1281 812 -1279Q812 -1267 819 -1253Q828 -1265 828 -1283ZM753 -1315Q744 -1324 744 -1345Q713 -1325 707 -1310Q726 -1321 753 -1315ZM786 -1258V-1274H778V-1258ZM1398 -472Q1361 -547 1325 -621Q1277 -709 1210 -734Q1210 -608 1205 -558L1195 -547Q1172 -574 1141 -581Q1138 -561 1131 -522Q1166 -516 1201 -509Q1245 -497 1256 -472ZM1060 -612V-633Q1060 -660 1012 -735Q964 -810 939 -823Q953 -777 966 -731Q982 -675 982 -636Q982 -617 971.5 -574Q961 -531 961 -508Q973 -513 986 -512Q1001 -587 1012 -631Q1015 -629 1060 -612ZM833 -966Q796 -1017 765 -1055L517 -878Q552 -854 591 -854Q640 -854 723.5 -891Q807 -928 833 -966ZM1066 -559Q1066 -577 1032 -595Q1023 -573 1014 -516H1041Q1066 -516 1066 -559ZM890 -878Q878 -899 849 -937Q804 -896 728 -863Q647 -827 591 -827Q518 -827 493 -863Q469 -844 434 -808Q497 -748 602 -748Q662 -748 754 -793Q834 -832 890 -878ZM1323 -394H1295Q1266 -317 1203 -261Q1140 -205 1063 -192V-166Q1151 -179 1222 -243Q1293 -307 1323 -394ZM1267 -394H1063V-219Q1205 -245 1267 -394ZM1922 -420V-446H126V-420ZM1733 233V87H1398V233ZM891 -481L888 -487L873 -482V-475ZM1733 406V259H1398V406ZM1037 61V-394H1011V61ZM985 -219V-394H782Q843 -245 985 -219ZM985 -166V-192Q908 -205 845.5 -261Q783 -317 754 -394H726Q756 -307 827 -243Q898 -179 985 -166ZM1372 233V87H1037V233ZM1372 406V259H1037V406ZM1011 233V87H676V233ZM1011 406V259H676V406ZM650 233V87H315V233ZM650 406V259H315V406Z"/>
</svg>