<svg xmlns="http://www.w3.org/2000/svg" viewBox="12.6 -1560.4 2359.8 1907.8">
	<path fill="currentColor" d="M2284 -1129Q2285 -1113 2263 -1041Q2233 -942 2205 -892Q2154 -804 2073 -778Q2029 -764 2028 -764H1464L1978 -53L2126 -647Q2147 -644 2185 -635L2047 -31Q2047 -27 2055.5 -20Q2064 -13 2067 -8Q2086 25 2086 46Q2086 66 2063.5 91.5Q2041 117 2023 117Q2017 117 2012 112Q2000 149 1975 260Q1948 257 1905 248Q1916 215 1927 148Q1866 111 1866 59Q1866 32 1893 -6L1748 -163Q1715 -119 1660 -20L1468 -224Q1443 -119 1321 -12L1458 259H953L1079 -22Q947 -134 932 -219L740 -9Q717 -43 652 -152Q640 -139 519 -1Q533 25 533 59Q533 132 480 160Q484 188 495 242Q492 244 430 254Q423 206 404 139Q393 150 385 150Q356 150 327 105Q314 85 314 57Q314 10 375 -30L249 -679Q257 -676 273 -676Q289 -676 318 -679L433 -53L925 -764H361Q343 -763 260 -811Q194 -849 150 -924Q140 -941 120 -1013Q100 -1089 100 -1114V-1153H959Q961 -1157 961 -1163Q961 -1190 927 -1227Q893 -1264 875 -1264Q856 -1264 823 -1231Q816 -1238 804 -1238V-1283Q804 -1313 881 -1384Q951 -1449 971 -1455Q1033 -1473 1117 -1473Q1250 -1473 1301 -1382Q1333 -1325 1353 -1158H2284ZM2256 -1126H2098Q2099 -1077 2052 -1024.5Q2005 -972 1956 -972H1399L1443 -786H2000Q2096 -786 2172 -895Q2242 -996 2256 -1126ZM2069 -1101V-1126H1366Q1375 -1078 1394 -1000H1973Q1994 -1000 2031.5 -1040.5Q2069 -1081 2069 -1101ZM2157 -613Q2152 -618 2144 -618Q2112 -491 2054 -260Q2003 -47 2003 -53Q2003 -43 2024 -43ZM1013 -1356L992 -1363Q987 -1353 999 -1341ZM1134 -1292Q1134 -1313 1117 -1333Q1097 -1358 1062 -1358Q1049 -1358 1041 -1355Q1030 -1339 1009 -1316Q1006 -1292 1000 -1279Q998 -1274 989 -1265.5Q980 -1257 980 -1255Q990 -1241 1005 -1218Q1005 -1240 1022 -1271Q1042 -1308 1068 -1308Q1075 -1308 1093 -1295Q1114 -1278 1120 -1259Q1134 -1301 1134 -1292ZM965 -1235L952 -1255L945 -1249L957 -1230ZM2057 48Q2053 25 2034.5 2.5Q2016 -20 1998 -20Q1984 -20 1976 -15L1455 -719Q1486 -543 1486 -416Q1486 -326 1471 -259Q1529 -192 1649 -59Q1666 -84 1695.5 -133Q1725 -182 1742 -207L1926 -7Q1893 26 1893 59Q1893 68 1908 95Q1908 60 1931.5 31Q1955 2 1987 2Q2010 2 2057 48ZM1945 100V58H1936V100ZM1998 48L1990 29Q1975 84 1938 232Q1941 232 1948 229.5Q1955 227 1958 227Q1979 111 1998 48ZM1459 -411Q1459 -583 1377 -965Q1354 -1071 1332 -1176Q1300 -1315 1275 -1373Q1252 -1426 1192 -1440Q1166 -1446 1082 -1446Q1001 -1446 981 -1433Q917 -1374 854 -1315Q899 -1330 908 -1330Q934 -1330 979 -1297V-1323Q958 -1337 958 -1358Q958 -1391 1029 -1391Q1161 -1391 1161 -1292Q1161 -1267 1127 -1222Q1088 -1171 1051 -1171Q1043 -1171 1040 -1184Q1035 -1205 1035 -1206Q1090 -1249 1090 -1261Q1090 -1267 1077 -1280H1058Q1046 -1259 1031 -1207Q1021 -1173 1000 -1165Q983 -1182 983 -1184Q986 -1135 992 -1041Q996 -989 994 -976Q941 -651 941 -436Q941 -289 961 -224Q996 -113 1112 -28L991 237H1420L1282 -22Q1459 -150 1459 -411ZM968 -1000V-1120H392Q394 -1063 439 -1028Q477 -1000 515 -1000ZM963 -972H559Q385 -973 362 -1120H127V-1081Q127 -1020 171 -944Q218 -865 287 -820Q332 -790 350 -791H940ZM928 -719L475 -69Q465 -50 437 -16Q408 -18 377 0Q341 22 341 57Q341 71 353 90Q344 79 344 67Q344 44 375 24Q403 7 424 7Q486 7 505 79V37Q506 30 495 17Q480 1 479 -1L657 -191L740 -53Q816 -128 922 -248Q922 -259 918 -295Q914 -331 914 -336V-563Q914 -593 928 -719ZM400 -37L296 -652H276ZM473 72L460 48Q451 64 462 94Q466 86 473 72ZM395 95Q395 63 381 51V77Q385 83 395 95Z"/>
</svg>