<svg xmlns="http://www.w3.org/2000/svg" viewBox="0 -2048 2048 2048">
	<path fill="#000000" d="M1602 -1105Q1604 -1046 1536 -955Q1463 -857 1389 -849Q1385 -845 1387 -835Q1417 -721 1417 -661Q1417 -619 1406 -572Q1396 -531 1386 -490Q1392 -490 1410 -495Q1428 -500 1433 -500Q1450 -500 1477.5 -483.5Q1505 -467 1505 -450V109Q1534 113 1571 109V393Q1557 382 1481 314Q1425 265 1419 265H266Q262 265 210 309Q143 365 105 393V106Q150 113 188 107V-440Q188 -462 220 -483Q247 -500 263 -500Q267 -500 279 -495Q291 -490 299 -490Q267 -581 267 -650Q267 -788 307 -856Q308 -858 304 -861Q247 -875 173.5 -961Q100 -1047 100 -1091V-1110H304Q307 -1107 307 -1117Q307 -1136 290 -1175Q255 -1183 184 -1195L201 -1402Q201 -1417 200 -1425Q185 -1435 170 -1445Q152 -1457 152 -1475Q152 -1501 181 -1523Q207 -1543 228 -1543Q260 -1543 283 -1516Q287 -1511 299 -1453Q314 -1377 322 -1329Q335 -1248 360 -1113Q363 -1110 468 -1110Q531 -1150 581 -1175Q574 -1185 574 -1196Q574 -1219 608 -1252Q639 -1280 670 -1307L662 -1312Q626 -1317 619 -1352Q614 -1382 608 -1413V-1428Q634 -1440 654 -1433Q655 -1437 659 -1445Q680 -1557 776 -1557Q829 -1557 864 -1502Q896 -1451 892 -1400Q891 -1387 898 -1363Q905 -1339 905 -1330Q905 -1316 895 -1307Q915 -1283 943 -1226Q1082 -1215 1203 -1110H1334Q1387 -1348 1409 -1489Q1412 -1510 1442 -1526Q1466 -1539 1483 -1539Q1507 -1539 1526 -1523Q1545 -1507 1545 -1488Q1545 -1468 1531 -1448Q1517 -1428 1496 -1429L1523 -1195Q1477 -1191 1403 -1171Q1394 -1154 1386 -1114Q1426 -1106 1460 -1105ZM1519 -1488Q1519 -1513 1481 -1513Q1442 -1513 1436 -1489Q1422 -1435 1401 -1323Q1382 -1221 1382 -1213V-1195Q1424 -1204 1496 -1217L1466 -1448Q1479 -1458 1506 -1462Q1519 -1463 1519 -1488ZM1430 -1083H1383Q1381 -1067 1374 -1031Q1406 -1050 1430 -1083ZM1576 -1083H1458Q1454 -1057 1416 -1023Q1385 -997 1361 -985Q1352 -921 1338 -867H1353Q1422 -874 1495 -945.5Q1568 -1017 1576 -1083ZM864 -1435Q864 -1469 839 -1498Q811 -1530 772 -1530Q739 -1530 711 -1498.5Q683 -1467 683 -1433Q683 -1400 713 -1376.5Q743 -1353 785 -1353Q818 -1353 841 -1376.5Q864 -1400 864 -1435ZM1161 -1111Q1139 -1129 1088 -1157Q1019 -1194 981 -1194H949Q956 -1151 962 -1111ZM1328 -1083H967Q971 -1053 980 -1000L1132 -997L1315 -1005Q1322 -1038 1328 -1083ZM859 -1327Q859 -1329 857 -1337.5Q855 -1346 855 -1348Q845 -1348 834 -1337Q849 -1337 859 -1327ZM1311 -971H989Q1004 -903 1016 -863H1288ZM665 -1341Q656 -1355 656 -1388Q639 -1388 639 -1373Q639 -1348 665 -1341ZM798 -1228Q774 -1252 764 -1251H745Q747 -1249 747 -1245Q747 -1239 736 -1226Q722 -1210 719 -1204Q745 -1221 758 -1221Q769 -1221 781.5 -1206Q794 -1191 792 -1185ZM721 -1252Q721 -1260 714 -1260Q707 -1260 707 -1252Q707 -1244 714 -1244Q721 -1244 721 -1252ZM1391 -659Q1391 -727 1359 -844H1343L1254 -442Q1276 -393 1276 -376Q1276 -340 1248 -321.5Q1220 -303 1219 -257Q1296 -311 1346 -439Q1391 -553 1391 -659ZM1284 -835H1020Q1021 -783 1043 -687Q1068 -634 1123 -562Q1166 -506 1208 -451ZM683 -1111Q668 -1172 641 -1172Q620 -1172 524 -1111ZM1192 -431L1047 -628Q1048 -626 1046 -595Q1043 -550 1033.5 -516.5Q1024 -483 1024 -484Q1024 -465 1101 -407Q1118 -441 1128 -451Q1145 -438 1176 -416ZM315 -1199Q302 -1298 266 -1493Q260 -1517 225 -1517Q217 -1517 200.5 -1501.5Q184 -1486 184 -1479V-1465Q202 -1460 232 -1452L210 -1217Q246 -1210 315 -1199ZM691 -991V-1083H369V-1060Q369 -1054 374 -1034.5Q379 -1015 379 -1009Q415 -990 438 -991ZM1019 -630Q1019 -712 1000 -806Q986 -871 972 -936Q940 -1140 916 -1215Q889 -1298 825 -1313Q804 -1318 776 -1318Q737 -1318 715 -1305.5Q693 -1293 641 -1240Q662 -1240 682 -1230Q682 -1242 674 -1258Q683 -1267 691 -1272Q715 -1283 736 -1283Q762 -1283 791 -1267Q829 -1247 829 -1212Q829 -1137 752 -1114Q745 -1124 736 -1151Q747 -1156 767 -1169Q767 -1174 762 -1183.5Q757 -1193 757 -1194Q753 -1190 746 -1189Q739 -1172 728 -1127Q715 -1127 710 -1122Q718 -1062 718 -1030Q718 -999 707 -925Q689 -804 677 -698Q665 -592 665 -579Q665 -432 798 -325L688 -134Q792 -106 840 -102L1006 -125L900 -321Q1019 -463 1019 -630ZM687 -964H443Q438 -964 423 -968.5Q408 -973 402 -973H387L405 -863H669Q676 -896 687 -964ZM320 -1035Q318 -1055 311 -1083H277Q305 -1045 320 -1035ZM1187 -321Q1187 -327 1177 -336Q1167 -345 1166 -348Q1162 -359 1159 -397Q1149 -403 1136 -416Q1125 -398 1101 -372L1012 -456Q999 -417 974 -375Q967 -363 931 -317L1030 -137Q1088 -167 1178 -228Q1168 -233 1168 -247Q1168 -259 1177.5 -286Q1187 -313 1187 -321ZM351 -872V-896Q353 -941 332 -989Q317 -999 293 -1018Q273 -1035 244 -1083H126Q139 -1017 215 -952Q282 -893 351 -872ZM665 -835H414L486 -447Q529 -503 572 -560Q624 -628 646 -678Q659 -706 660 -756Q663 -822 665 -835ZM661 -480Q661 -485 653 -505.5Q645 -526 644 -533Q636 -577 637 -615L506 -430Q521 -427 538 -439Q562 -455 565 -456Q581 -432 587 -412Q661 -474 661 -480ZM1479 110V-441Q1479 -451 1461.5 -462Q1444 -473 1433 -473Q1403 -473 1379 -432Q1355 -386 1305 -304Q1278 -268 1222 -228Q1183 -201 1144 -175Q1015 -80 853 -80Q642 -80 474 -217Q444 -241 410 -287Q385 -325 343 -384Q327 -411 311 -437Q286 -473 261 -473Q248 -473 229 -454.5Q210 -436 210 -422V110ZM470 -257V-272Q467 -315 440 -333.5Q413 -352 413 -389Q413 -405 435 -449L359 -844Q354 -844 345.5 -846.5Q337 -849 335 -849Q294 -768 294 -652Q294 -554 338 -450Q386 -337 470 -257ZM763 -321Q696 -364 673 -447Q642 -420 584 -367Q565 -395 558 -415Q559 -415 543 -409Q537 -391 527 -366Q525 -361 515.5 -348Q506 -335 506 -330Q506 -327 513.5 -287.5Q521 -248 520 -234H502Q516 -220 577 -183Q638 -146 650 -146H664ZM1544 336V133H131V340Q169 306 257 238H1427Q1503 305 1544 336Z"/>
</svg>