<svg xmlns="http://www.w3.org/2000/svg" viewBox="0 -2048 2048 2048">
	<path fill="currentColor" d="M1217 -1307Q1217 -1176 1150 -1090Q1077 -997 906 -932Q1024 -808 1024 -643Q1024 -539 956 -440Q881 -330 765 -301L1025 -299Q1079 -344 1194 -457V-177H100V-461Q172 -383 264 -299L515 -301Q460 -319 424 -349Q266 -479 266 -650Q266 -790 423 -949Q265 -1013 192 -1089Q112 -1172 112 -1292Q112 -1313 118 -1358Q121 -1383 146 -1433Q179 -1500 211 -1500H230Q239 -1481 242 -1463Q255 -1378 350 -1291Q441 -1207 526 -1193Q529 -1196 529 -1202Q529 -1217 520 -1240Q508 -1270 492 -1272Q486 -1268 475 -1255H454V-1287Q454 -1317 490 -1343Q491 -1344 559 -1384Q546 -1400 521 -1435Q520 -1437 520 -1458Q520 -1493 548.5 -1525Q577 -1557 618 -1557Q659 -1557 687 -1522Q713 -1491 713 -1454Q713 -1391 669 -1375Q708 -1344 725 -1288Q738 -1238 751 -1188Q894 -1195 988 -1306Q1025 -1364 1118 -1509Q1217 -1447 1217 -1307ZM1059 -68Q1054 -68 1044 -58L982 -119L925 -62L910 -77Q930 -102 982 -154Q1037 -100 1059 -68ZM1059 28L1044 43Q1024 25 982 -10Q959 10 915 43Q915 37 906 28Q932 -4 982 -45ZM1063 142L1053 153Q1040 145 991 96Q985 100 916 157Q916 152 906 142Q906 142 987 61Q1037 102 1063 142ZM1059 244Q1053 244 1044 253L987 196L925 258L910 243Q935 215 982 161Q1033 190 1059 244ZM739 -73L728 -62Q718 -68 667 -119Q642 -99 591 -58Q591 -63 581 -73Q581 -73 662 -154Q690 -127 739 -73ZM743 37Q733 47 728 47Q724 47 662 -14L601 47L586 32Q611 2 662 -49Q713 2 743 37ZM1059 343L1044 359L987 302Q962 322 911 363Q911 358 901 348Q901 348 982 267ZM748 142L737 153Q726 144 671 91Q659 99 610 148L594 133Q610 113 667 56Q715 96 748 142ZM748 234Q746 236 740.5 243.5Q735 251 733 253Q702 232 666 196Q642 216 596 253L581 238Q607 207 662 161Q675 172 705 197.5Q735 223 748 234ZM428 -73L412 -58Q392 -74 347 -119Q311 -89 276 -53L261 -69Q281 -93 342 -154Q372 -129 428 -73ZM743 348L733 359Q711 346 667 302L610 359L594 343Q606 328 667 267Q695 290 743 348ZM423 32L408 47L342 -14L281 47L266 32Q308 -17 342 -49Q342 -49 423 32ZM428 142L417 153Q406 144 351 91Q337 102 285 153L270 137Q290 113 347 56Q395 96 428 142ZM428 247L417 258Q406 249 351 196Q340 205 316 224.5Q292 244 281 253Q279 251 275.5 245.5Q272 240 270 238Q270 238 347 161Q395 201 428 247ZM428 343Q417 354 412 354Q409 354 351 297L290 359L274 343Q294 319 351 262Q382 288 428 343ZM1195 -1318Q1195 -1350 1171.5 -1405.5Q1148 -1461 1126 -1474Q1086 -1362 977 -1267Q863 -1167 753 -1162L792 -939H811Q817 -939 854 -949Q895 -962 908 -964Q995 -981 1084 -1061Q1182 -1148 1183 -1230Q1184 -1241 1187 -1261Q1195 -1325 1195 -1318ZM686 -1454Q686 -1531 621 -1531Q598 -1531 574 -1512Q546 -1491 546 -1461Q546 -1439 570.5 -1412.5Q595 -1386 618 -1386Q642 -1386 662 -1403Q686 -1423 686 -1454ZM532 -1312V-1333Q524 -1329 511 -1318ZM993 -689V-723Q993 -751 946 -834Q894 -926 857 -926Q838 -926 806 -915Q800 -911 800 -901Q843 -830 941 -700Q948 -692 967 -691Q993 -689 993 -689ZM954 -670Q932 -670 927 -676Q882 -740 802 -851Q802 -836 794.5 -802Q787 -768 787 -764Q787 -756 847 -694Q853 -716 872 -724Q879 -715 893 -697Q907 -679 914 -670Q896 -653 889 -637Q894 -640 954 -670ZM778 -860Q778 -890 740 -1096Q700 -1308 689 -1324Q661 -1364 588 -1364Q575 -1364 537 -1339Q538 -1339 543.5 -1340.5Q549 -1342 555 -1342Q581 -1342 581 -1316Q581 -1305 560 -1290Q564 -1286 564 -1282Q564 -1280 544 -1268Q536 -1276 520 -1284Q555 -1254 555 -1198L520 -891Q520 -834 530 -783Q544 -711 578 -672Q607 -639 607 -634Q607 -632 542 -489Q598 -479 634 -479Q612 -479 756 -493L686 -627Q724 -656 753 -737Q778 -809 778 -860ZM524 -1141Q524 -1164 509 -1171Q489 -1176 470 -1181Q400 -1206 328 -1275Q251 -1348 238 -1411Q236 -1418 211 -1469Q138 -1419 138 -1303Q138 -1091 390 -990Q485 -952 487 -952H501ZM498 -910V-925Q455 -939 454 -939Q427 -939 364 -845Q301 -751 301 -717V-694Q320 -699 360 -703Q365 -704 431.5 -799.5Q498 -895 498 -910ZM515 -751Q504 -789 496 -847Q460 -794 424 -742Q377 -673 344 -674Q368 -668 401 -650Q390 -664 390 -676Q390 -696 434 -729Q441 -718 451 -698Q476 -719 515 -751ZM997 -594V-649H970Q951 -649 910.5 -622.5Q870 -596 859 -579Q854 -584 848 -584Q840 -600 840 -606Q840 -611 859.5 -640Q879 -669 879 -674Q879 -684 873 -685Q863 -666 847 -658Q830 -671 776 -724Q755 -647 717 -622L796 -482Q728 -452 649 -452Q538 -452 498 -481L581 -630Q525 -692 523 -724L444 -658Q442 -662 435 -673.5Q428 -685 426 -689Q422 -685 419 -678Q458 -613 458 -610Q458 -599 435 -584Q421 -606 382 -630Q343 -654 324 -654H292V-638Q320 -487 418.5 -393Q517 -299 643 -299Q711 -299 808 -350Q922 -411 955 -493Q997 -599 997 -594ZM1168 -203V-395Q1125 -351 1047 -272H247Q188 -331 126 -400V-203Z"/>
</svg>