<svg xmlns="http://www.w3.org/2000/svg" viewBox="0 0 1000 1000">
  <g transform="scale(1,-1) translate(0,-1000)">
    <path d="M265 102Q224 148 208 172Q188 170 182 170Q131 170 131 204Q131 228 166 261Q166 262 165.5 264.5Q165 267 165 269Q165 280 166 287Q166 288 166.5 289.5Q167 291 167 292Q175 310 188 321Q187 324 185.5 328.0Q184 332 183.0 334.5Q182 337 180.5 340.0Q179 343 177.5 345.0Q176 347 174.0 349.5Q172 352 169 353Q168 353 166 354Q163 354 162 353Q162 353 157.0 351.0Q152 349 146.5 346.5Q141 344 138 343L135 333Q132 319 116 319H114Q98 321 96 338Q96 342 94.5 350.5Q93 359 93 365Q93 368 94.5 377.0Q96 386 101.5 404.0Q107 422 116.0 440.0Q125 458 142.5 477.0Q160 496 183 507Q185 513 191.0 527.5Q197 542 197 543Q211 582 255.0 637.0Q299 692 307 713Q310 719 313.5 733.0Q317 747 319 754Q331 790 363 790Q370 790 382 786Q415 775 415 743Q415 732 411 721Q409 714 402.5 700.5Q396 687 393 681Q386 661 384.5 587.0Q383 513 363 468Q407 424 427 400Q461 408 489 408Q516 408 534 401L553 434Q560 446 573 439Q574 439 684 361L800 483Q805 488 810 488Q820 488 824 479L948 225Q949 223 949 219Q949 207 938 204Q852 182 850 182Q838 182 836 195L800 440Q746 383 709 343Q711 341 745 318Q751 320 761 320Q783 320 797.0 303.0Q811 286 811 264Q811 250 803 236Q785 207 751 207Q712 207 703 246Q677 259 642 274Q638 270 630.5 261.5Q623 253 620 250Q646 236 690 211L855 119Q872 110 909.0 109.5Q946 109 971.5 104.5Q997 100 999 83V21Q999 19 999.5 16.5Q1000 14 1000 13Q1000 0 983 0H17H9Q0 0 0 8Q0 14 1 17V83Q1 91 7.0 96.5Q13 102 21 102ZM330 82Q330 80 329.0 76.5Q328 73 323.0 67.5Q318 62 309 62H39V40H960V66Q948 69 903.5 71.0Q859 73 837 84L671 176Q650 188 608.0 210.0Q566 232 537.5 249.5Q509 267 477 291Q444 316 405 363Q297 328 208 257Q233 204 246 187Q264 163 287.0 138.0Q310 113 320.0 100.5Q330 88 330 82ZM244 460Q256 460 264.5 450.5Q273 441 273 428Q273 416 264.0 407.5Q255 399 243 399Q230 399 220.5 407.0Q211 415 211 427Q211 441 220.5 450.5Q230 460 244 460ZM777 251Q781 259 781 266Q781 290 761 290Q756 290 749 287Q743 284 735 288L688 321L664 297Q724 269 724 269Q730 266 732.5 254.5Q735 243 742 239Q746 236 751 236Q767 236 777 251ZM863 216 913 229 839 380ZM236 315Q306 359 384 387L367 404Q358 413 346.0 426.0Q334 439 327.5 445.5Q321 452 310.5 460.5Q300 469 288 475Q272 484 253 484Q169 484 139 387Q143 389 146.0 390.0Q149 391 150 391Q159 394 166 394Q170 394 171 393Q178 393 187 388Q202 381 210.0 369.5Q218 358 223.5 343.0Q229 328 233 322Q233 321 234.5 318.5Q236 316 236 315ZM448 374Q496 317 592 264Q599 272 614 287Q512 334 512 334Q500 341 507 354L519 375Q508 378 489 378Q467 378 448 374ZM177 229Q162 214 161 203Q167 200 181 200H191Q179 223 179 223Q178 224 178.0 226.0Q178 228 177 229ZM556 380Q554 372 551 370L541 353Q564 342 598.0 327.0Q632 312 635 310Q640 315 649.5 325.0Q659 335 663 339Q640 355 570 404ZM253 524Q294 524 335 493Q347 527 348.5 597.0Q350 667 360 694Q363 701 369.5 714.5Q376 728 378 733Q383 747 370 753Q357 757 352 743Q350 738 346.5 723.0Q343 708 340 701Q330 673 284.5 617.5Q239 562 227 522Q243 524 253 524Z" fill="currentColor"/>
  </g>
</svg>