<svg xmlns="http://www.w3.org/2000/svg" viewBox="0 -2048 2048 2048">
	<path fill="#000000" d="M2384 381H100V220H493Q544 183 629 163Q702 147 775 131Q779 130 790 123Q650 70 498 -59Q325 -206 306 -325Q297 -380 298 -388Q299 -400 309 -442Q317 -479 317 -502Q317 -513 315 -524Q289 -671 211 -671Q174 -671 130 -615Q105 -661 105 -678Q105 -715 119 -738Q151 -769 218 -834Q245 -873 312 -943Q330 -949 365 -968Q363 -1081 424 -1190Q480 -1289 621 -1437Q623 -1439 661 -1522Q689 -1581 735 -1581Q759 -1581 790.5 -1553.5Q822 -1526 822 -1503Q822 -1499 798.5 -1444Q775 -1389 773 -1366Q783 -1304 790 -1167Q786 -1023 703 -912Q757 -878 778 -801Q807 -698 817 -682Q825 -670 906 -644Q980 -620 1045 -603L1392 -1251L1831 -430Q1828 -430 1816 -426.5Q1804 -423 1801 -423Q1795 -443 1771 -479Q1759 -473 1735.5 -464Q1712 -455 1700 -449Q1706 -430 1719 -393Q1712 -390 1703 -385Q1686 -402 1675 -436Q1670 -441 1662 -441Q1639 -441 1581 -412Q1581 -407 1584 -390Q1587 -373 1587 -367Q1560 -367 1560 -360L1396 -1164Q1397 -1164 1385 -1176L1083 -595Q1136 -562 1244 -488Q1395 -362 1698 -118Q1796 -41 2053 43Q2139 69 2225 95Q2332 138 2384 222ZM1756 -512L1434 -1113L1577 -448Q1651 -469 1756 -512ZM790 -1490Q790 -1510 772 -1530Q754 -1550 732 -1550Q720 -1550 700 -1540Q694 -1530 682 -1490Q673 -1456 639 -1418Q392 -1143 392 -1010V-977Q392 -977 494 -977Q555 -977 575 -970Q629 -952 683 -933Q760 -1018 760 -1197Q760 -1224 757 -1242Q739 -1356 742 -1366Q750 -1392 771 -1442Q790 -1485 790 -1490ZM2335 218Q2293 152 2193 116Q2175 110 1972 56Q1936 43 1878 23Q1794 -4 1742 -43Q1696 -78 1369 -345Q1174 -505 1056 -563Q1036 -573 888 -613Q812 -634 798 -658Q786 -678 751 -800Q741 -833 685.5 -881Q630 -929 595 -937Q536 -951 500 -951Q365 -951 325 -917Q288 -874 212 -797Q186 -780 151 -751Q132 -729 132 -671Q141 -690 177 -724Q220 -765 245 -765Q265 -765 328 -734V-758Q292 -763 292 -806Q292 -845 323 -852Q324 -852 376 -852Q541 -852 541 -749Q541 -717 514 -666Q480 -603 435 -603Q423 -603 423 -623Q454 -649 454 -694Q454 -713 432 -734Q399 -723 388 -701Q385 -695 385 -686Q385 -675 392 -652Q399 -629 399 -619Q399 -605 390 -596Q383 -584 373 -584Q359 -584 315.5 -649.5Q272 -715 254 -715Q246 -715 234 -710Q222 -705 217 -705Q271 -706 308 -641Q335 -593 340 -544Q344 -508 336 -432Q328 -356 331 -332Q356 -134 805 96Q833 111 847 128Q787 165 669 178Q652 180 560 218ZM510 -743Q510 -765 496 -792.5Q482 -820 462 -820H386Q386 -805 385 -791Q382 -770 363 -761Q365 -743 359 -709Q363 -732 393 -750Q417 -765 432 -765Q456 -765 472 -728Q480 -703 488 -678Q510 -709 510 -743ZM353 -819H330Q335 -805 342 -790Q353 -797 353 -819ZM365 -628Q353 -676 353 -701Q346 -701 332.5 -704.5Q319 -708 317 -708Q341 -676 365 -628ZM2360 352V246H131V352Z"/>
</svg>