<svg xmlns="http://www.w3.org/2000/svg" viewBox="8.4 -1677.6 2472.1 2201.1">
	<path fill="currentColor" d="M2389 432H100V260H479L777 161Q347 -74 306 -287Q300 -316 307 -374Q317 -454 317 -467Q318 -498 296 -554Q266 -630 217 -630Q193 -630 134 -571Q106 -598 106 -630Q106 -675 132 -706Q176 -751 219 -795Q241 -833 306 -895Q343 -915 406 -926Q454 -934 503 -942Q504 -962 480 -962Q472 -962 457.5 -959Q443 -956 435 -956Q414 -956 384 -971Q337 -994 325 -999Q296 -997 236 -1002Q201 -1009 172.5 -1039.5Q144 -1070 144 -1097Q144 -1113 159 -1128H181Q245 -1064 262 -1064Q269 -1064 282.5 -1071Q296 -1078 304 -1078Q312 -1078 339 -1064Q370 -1048 382 -1045Q384 -1126 439 -1229Q493 -1318 547 -1406Q496 -1457 496 -1471Q496 -1497 523 -1524Q550 -1551 576 -1551Q613 -1551 658 -1487Q658 -1505 650.5 -1537.5Q643 -1570 643 -1576Q643 -1586 653 -1586Q663 -1586 701 -1564Q706 -1564 720 -1570Q734 -1576 742 -1576Q757 -1576 782 -1538L840 -1543Q834 -1530 818 -1504.5Q802 -1479 796 -1466Q811 -1468 845 -1466Q867 -1462 889.5 -1440Q912 -1418 912 -1397Q912 -1385 897 -1361.5Q882 -1338 865 -1329Q861 -1327 827 -1327Q822 -1322 822 -1177Q813 -1103 783 -973Q813 -971 865 -960Q948 -924 960 -924Q961 -924 1018 -943Q1034 -927 1034 -918Q1034 -878 956 -859Q948 -859 891 -881.5Q834 -904 826 -904Q819 -904 784 -898Q749 -892 742 -892Q703 -892 684 -907Q662 -926 641 -930L630 -920Q628 -916 634 -912Q679 -908 726 -846Q764 -795 781 -742Q788 -712 796 -681Q807 -644 834 -631Q845 -625 955 -595Q1055 -567 1102 -537Q1181 -487 1368 -337Q1572 -173 1674 -102Q1850 20 1978 60Q2083 90 2189 120Q2311 164 2371 249Q2380 261 2389 261ZM771 -1506Q753 -1513 737 -1545Q713 -1524 683 -1538Q688 -1523 688 -1482Q690 -1482 695.5 -1484.5Q701 -1487 710 -1487Q717 -1487 763 -1461Q764 -1463 773.5 -1480.5Q783 -1498 783 -1504Q782 -1508 779 -1508Q775 -1508 771 -1506ZM744 -1414Q736 -1455 704 -1455Q692 -1455 675 -1438Q717 -1428 744 -1414ZM880 -1397Q880 -1408 864 -1421.5Q848 -1435 831 -1435Q793 -1435 762 -1310Q743 -1234 737 -1171Q727 -1072 694 -983Q713 -976 744 -963Q782 -1026 790 -1158Q792 -1259 795 -1360Q792 -1359 838 -1359Q850 -1359 865 -1373Q880 -1387 880 -1397ZM732 -1384Q711 -1404 685 -1404Q672 -1404 652 -1394Q612 -1332 569 -1234Q522 -1125 522 -1080V-1020Q541 -1022 588 -975Q626 -987 673 -1015Q739 -1139 732 -1384ZM637 -1449Q637 -1458 620 -1485Q599 -1519 579 -1519Q567 -1519 549 -1504Q528 -1487 528 -1468Q528 -1459 550 -1445Q579 -1426 585 -1420Q585 -1420 467 -1223Q413 -1133 413 -1048Q413 -1020 451 -1020Q475 -1020 489 -1028Q489 -1117 497 -1144Q514 -1200 578 -1328Q637 -1446 637 -1449ZM831 -934Q817 -934 789.5 -932Q762 -930 755 -930Q747 -930 699 -949.5Q651 -969 643 -969Q635 -969 625.5 -964.5Q616 -960 614 -960Q616 -960 625 -961Q634 -962 643 -962Q650 -962 683.5 -943Q717 -924 751 -924Q759 -924 790.5 -929Q822 -934 831 -934ZM2339 258Q2298 192 2123 133Q1990 90 1857 47Q1714 -13 1434 -244Q1151 -479 1019 -538Q1011 -541 897 -576Q870 -584 843 -592Q805 -607 798 -628Q749 -780 692 -838Q629 -904 512 -904Q361 -904 298 -850Q273 -818 228 -765Q207 -751 179 -729Q163 -711 152 -680Q141 -649 146 -636Q207 -719 253 -719Q277 -719 328 -694V-718Q297 -724 297 -764Q297 -799 320 -806Q329 -809 380 -809Q547 -809 547 -706Q547 -677 518 -621Q482 -552 441 -552Q437 -552 425 -564V-580Q458 -613 458 -639Q458 -681 425 -681Q390 -681 390 -650Q390 -638 396.5 -609.5Q403 -581 403 -570Q403 -540 371 -540Q361 -540 333 -578Q293 -631 292 -632Q343 -558 343 -465Q343 -437 337.5 -387Q332 -337 332 -315Q332 -275 344 -247Q446 -14 825 146Q849 156 848 165Q752 198 566 258ZM613 -951L606 -957L584 -936L591 -929ZM546 -981Q543 -981 530.5 -983Q518 -985 515 -985Q530 -971 544 -937Q544 -939 545 -956.5Q546 -974 546 -981ZM495 -985V-997H459V-985ZM328 -1030V-1042H273V-1030ZM522 -706Q522 -735 481 -760Q444 -784 408 -783H388Q396 -748 363 -718Q362 -698 353 -660Q349 -654 345 -655Q340 -660 324 -660Q356 -612 366 -592Q356 -612 356 -634Q356 -713 429 -713Q451 -713 469.5 -693Q488 -673 488 -648Q488 -639 485 -630Q522 -677 522 -706ZM361 -775H331V-751Q349 -751 361 -775ZM283 -643Q277 -649 270 -666H215Q252 -664 283 -643ZM2357 399V287H129V399Z"/>
</svg>