<svg xmlns="http://www.w3.org/2000/svg" viewBox="0 -2048 2048 2048">
	<path fill="currentColor" d="M1808 -70Q1808 -29 1659 -23Q1628 -23 1596 -30Q1572 -35 1513 -54Q1461 -70 1455 -70Q1449 -70 1414 -58Q1374 -44 1356 -40Q1261 -27 1071 1Q1072 6 1082 24Q1092 42 1092 50Q1092 57 1071 123Q1050 189 1050 196Q1050 192 1082 304L1069 316H1051Q1052 306 1037 291Q1005 317 933 317Q926 317 904 311.5Q882 306 875 306Q868 306 866 311.5Q864 317 857 317Q850 317 817.5 309Q785 301 779 301Q773 301 756 309Q739 317 732 317Q725 317 712 311.5Q699 306 692 306Q687 306 651.5 311.5Q616 317 609 317Q600 317 594.5 311.5Q589 306 583 306Q576 306 567 311.5Q558 317 551 317Q545 317 538.5 311.5Q532 306 525 306Q461 306 447 308Q439 312 420 322L408 309Q438 256 542 246Q654 235 688 197Q690 195 712 135Q713 133 745 68Q768 23 768 -5Q768 -48 726 -66Q690 -77 655 -87Q524 -137 402 -256Q267 -389 267 -501Q267 -549 323 -643Q418 -802 418 -835Q418 -846 399.5 -868.5Q381 -891 363 -893Q335 -896 266 -906Q205 -916 199 -916Q193 -916 174.5 -911Q156 -906 149 -906Q136 -906 100 -918Q111 -956 159 -970Q192 -977 226 -985Q262 -1002 361 -1055Q282 -1133 282 -1277Q282 -1321 286 -1331Q292 -1349 335 -1399Q288 -1430 288 -1444Q288 -1470 322 -1490Q350 -1507 374 -1507Q415 -1507 440 -1477Q465 -1447 465 -1407Q465 -1380 438 -1313Q418 -1264 398 -1216Q392 -1200 392 -1175Q392 -1120 429 -1120Q454 -1120 469 -1165Q474 -1181 467 -1226Q456 -1287 456 -1295Q454 -1335 475 -1375Q501 -1423 544 -1423Q579 -1423 613.5 -1390.5Q648 -1358 648 -1326Q648 -1319 624.5 -1236Q601 -1153 601 -1146Q601 -1120 620 -1097Q649 -1062 658 -1043Q656 -1043 651 -1039.5Q646 -1036 638 -1036Q599 -1036 572 -1081Q549 -1118 549 -1149Q549 -1156 567 -1235Q585 -1314 585 -1321Q585 -1350 551 -1350Q534 -1350 529 -1331Q526 -1318 526 -1300Q526 -1281 531.5 -1236.5Q537 -1192 537 -1170Q537 -1158 536 -1148Q531 -1106 470 -1054Q470 -1051 480 -1043Q525 -1019 549 -958Q553 -946 575 -861L517 -590Q517 -586 518 -581Q552 -556 567 -556Q573 -556 583.5 -560Q594 -564 598 -564Q620 -566 711 -566Q991 -566 1137 -507Q1232 -469 1383 -390Q1508 -325 1613 -291Q1655 -280 1698 -268Q1752 -250 1771 -219Q1762 -203 1717 -196Q1633 -183 1630 -182Q1680 -157 1730 -132Q1808 -92 1808 -70ZM438 -1426Q440 -1448 414 -1468Q392 -1486 376 -1486Q344 -1486 314 -1440Q345 -1431 438 -1426ZM622 -1326Q622 -1348 594.5 -1372.5Q567 -1397 544 -1397Q516 -1397 493 -1370Q478 -1352 478 -1323Q478 -1305 487.5 -1260Q497 -1215 497 -1192Q497 -1151 474 -1124Q449 -1094 423 -1094Q399 -1094 382 -1120Q366 -1143 366 -1167Q366 -1173 395 -1260Q428 -1360 439 -1401Q308 -1409 308 -1277Q308 -1073 431 -1073Q508 -1073 508 -1189Q508 -1212 504.5 -1254.5Q501 -1297 501 -1313Q501 -1376 551 -1376Q611 -1376 611 -1321Q611 -1290 593 -1231Q575 -1172 575 -1149H578Q581 -1168 603 -1238Q622 -1297 622 -1326ZM1776 -78Q1762 -89 1682 -131Q1590 -180 1570 -180Q1160 -117 1079 -117Q939 -117 763 -200Q602 -276 470 -391L489 -410Q835 -148 1066 -138L1729 -224Q1537 -286 1347 -381Q1161 -475 1085 -499Q937 -545 711 -545Q704 -545 644 -540Q584 -535 577 -535Q491 -535 491 -582Q491 -587 505 -635Q522 -691 526 -709Q549 -809 549 -859Q549 -914 518 -969Q477 -1042 408 -1042Q384 -1042 350 -1028Q310 -1012 298 -992Q315 -959 314 -928Q439 -921 439 -838Q439 -802 385 -710Q317 -593 310 -575Q293 -533 293 -501Q293 -398 419 -272Q529 -161 639 -118Q705 -100 833 -61Q875 -47 918 -33Q970 -10 991 28Q1014 70 1014 89Q1014 167 996 208Q983 238 953 247Q929 251 905 255Q906 276 899 290H948Q957 291 998.5 275.5Q1040 260 1045 251Q1024 220 1024 196Q1024 189 1042.5 129.5Q1061 70 1061 63Q1061 56 1051.5 25.5Q1042 -5 1040 -15Q1071 -29 1151 -34Q1253 -41 1278 -45Q1297 -48 1365 -72Q1419 -91 1458 -91Q1498 -91 1561.5 -70Q1625 -49 1675 -49Q1755 -49 1776 -78ZM287 -927Q287 -946 284 -960Q281 -974 281 -973Q266 -971 204 -955Q244 -955 262 -949V-927ZM988 131Q988 18 874 -17Q868 24 845 62Q763 199 763 228Q763 235 766 243.5Q769 252 769 253Q802 243 881 235Q917 231 932 227Q967 219 980 201Q988 190 988 131ZM851 -32Q831 -35 784 -43Q795 -11 792 0Q772 51 738 146Q700 260 623 260Q620 278 601 283L646 291Q675 286 742 263Q737 253 737 240Q737 204 790 110Q846 12 851 -32ZM899 261Q878 264 833.5 269.5Q789 275 768 278Q777 278 792 281.5Q807 285 813 285Q820 285 851 275Q887 263 899 261ZM559 266Q546 269 517.5 274.5Q489 280 476 283Q478 283 483.5 287Q489 291 497 291Q509 291 559 266ZM386 -1464L380 -1439Q368 -1445 346 -1445L352 -1470Q364 -1464 386 -1464ZM413 -959Q401 -959 390 -948Q389 -948 361 -976Q374 -987 389 -995Q397 -991 413 -959Z"/>
</svg>