<svg xmlns="http://www.w3.org/2000/svg" viewBox="24.2 -1637.8 1982.7 2047.7">
	<path fill="currentColor" d="M1931 182Q1931 274 1912 307Q1896 307 1867 299Q1844 278 1794 236Q1794 251 1794 279Q1795 314 1795 327Q1776 334 1739 334Q1706 334 1648 327Q1574 317 1569 305Q1567 283 1542 104Q1539 53 1512 -41Q1499 -65 1419 -132Q1396 -96 1377 -38Q1346 62 1339 79Q1308 63 1245 30Q1236 29 1232 50Q1217 128 1216 184V221Q1262 222 1356 230Q1384 234 1420 249Q1439 257 1454 296Q1454 315 1436 333Q1434 333 1418 317Q1416 317 1413.5 322.5Q1411 328 1403 328Q1396 328 1340.5 322.5Q1285 317 1278 317L1021 328Q933 328 926 301Q905 334 864 334Q795 334 784 306Q782 306 754 334H602Q586 334 553 312Q531 334 482 334Q436 334 417 307Q402 324 377 322Q384 278 425 249L100 -606Q106 -666 153 -704Q196 -739 249 -739Q366 -739 366 -611Q366 -559 301 -530L669 -81Q614 -35 559 12Q458 105 458 147Q458 168 489 219Q493 220 504 220Q619 220 736 215Q794 213 817 131Q831 68 844 5Q865 -54 884 -203Q902 -345 902 -441Q902 -555 857 -659Q784 -827 708 -900Q664 -928 578 -984Q530 -1016 510 -1093Q479 -1213 479 -1207Q479 -1236 501 -1293Q489 -1292 463 -1291L151 -1345Q149 -1346 108 -1318Q100 -1332 100 -1362Q100 -1427 134 -1456Q168 -1485 253 -1501Q381 -1524 384 -1525Q510 -1562 515 -1562Q571 -1562 618 -1535Q679 -1500 681 -1435Q681 -1425 689 -1410Q720 -1433 751 -1454Q782 -1475 810 -1475Q863 -1475 960 -1413Q1038 -1354 1236 -1211Q1345 -1147 1454 -1084Q1599 -994 1679.5 -883Q1760 -772 1788 -699Q1920 -353 1920 -319Q1920 -303 1908 -277Q1893 -244 1871 -237Q1931 -77 1931 182ZM1893 -322Q1893 -345 1835 -504Q1686 -913 1496 -1034Q1398 -1088 1231 -1184Q1132 -1256 1033 -1328Q863 -1448 812 -1448Q727 -1448 681 -1363Q647 -1301 647 -1232Q647 -1152 684 -1134V-1153Q680 -1166 680 -1184Q680 -1248 718 -1308Q762 -1378 826 -1378Q867 -1378 982 -1281Q1139 -1148 1141 -1147Q1242 -1080 1417 -959Q1571 -845 1631 -708Q1664 -637 1718 -508Q1737 -457 1772 -356Q1803 -257 1852 -257Q1870 -257 1883 -286Q1893 -308 1893 -322ZM1904 168Q1904 -48 1847 -232Q1797 -244 1769 -293Q1753 -322 1731 -404Q1707 -491 1685 -537Q1631 -649 1615 -680Q1574 -760 1538 -808Q1476 -891 1376 -960Q1130 -1128 1085 -1162Q1026 -1211 967 -1261Q854 -1351 826 -1351Q778 -1351 737 -1292Q700 -1238 703 -1196Q704 -1189 710 -1157Q717 -1129 717 -1115Q717 -1099 709 -1096Q675 -1104 651 -1119Q620 -1139 620 -1229Q620 -1236 636.5 -1321.5Q653 -1407 653 -1413Q653 -1540 501 -1540Q480 -1540 319 -1480Q313 -1454 301 -1407Q331 -1395 382 -1369Q379 -1366 375 -1360Q371 -1354 368 -1351Q274 -1378 246 -1378Q232 -1378 176 -1364L471 -1318Q518 -1317 563 -1356Q566 -1353 570 -1346.5Q574 -1340 577 -1337Q506 -1276 506 -1213Q506 -1177 535 -1097Q564 -1017 686 -943Q756 -900 819 -794Q842 -752 882 -680Q895 -657 936.5 -620Q978 -583 981 -578Q1023 -507 1091 -292Q1167 -51 1167 60Q1167 219 1077 261Q1077 265 1072 273Q996 276 962 275Q962 278 959.5 287.5Q957 297 957 298H1372Q1383 268 1383 264Q1323 260 1208 252Q1198 251 1183 222L1220 -13Q1230 -8 1276 19Q1312 41 1319 41Q1327 41 1357 -42Q1400 -160 1409 -181L1901 279Q1901 259 1903 214Q1904 174 1904 168ZM295 -1480H272Q237 -1481 188 -1457Q126 -1427 126 -1385Q126 -1376 129 -1367Q172 -1400 278 -1400Q272 -1451 295 -1480ZM1768 296V217Q1768 211 1553 -2V16Q1553 22 1561 55Q1570 92 1571 104Q1590 286 1590 295Q1605 302 1768 296ZM1118 -100Q1118 -141 1017 -412Q999 -462 981 -513Q952 -577 903 -614Q923 -521 923 -446Q923 -327 894 -135Q878 -29 846 88Q806 236 779 236H553Q532 236 448 264V306H516Q519 275 591 242H713V264Q691 270 656 270H643Q602 270 582 282Q588 288 588 306Q618 312 666 312Q723 312 727 310Q750 285 792 249Q826 229 863 230Q913 60 941 -52Q945 -57 947 -56L1024 30Q1118 -101 1118 -100ZM1146 60Q1146 77 1127 -56Q1092 -13 1024 68Q1009 53 985 27Q961 1 953 -7L892 230Q931 230 974 231Q1018 231 1018 231Q1086 231 1096 223Q1146 184 1146 60ZM636 -80L268 -541Q293 -557 318 -573Q339 -590 339 -620Q339 -712 249 -712Q210 -712 171 -683Q129 -651 127 -608L443 236Q448 236 457 229Q454 214 442 182Q431 153 431 147Q431 106 510 25Q580 -48 636 -80ZM934 255Q875 255 821 264Q821 282 810 300L884 306Q905 265 934 255ZM534 -1456Q534 -1437 506.5 -1418Q479 -1399 466 -1399Q452 -1399 421.5 -1420.5Q391 -1442 361 -1438V-1458Q470 -1513 471 -1513Q487 -1513 510.5 -1494Q534 -1475 534 -1456ZM478 -1455Q478 -1472 460 -1472Q440 -1472 440 -1455Q440 -1442 459 -1442Q478 -1442 478 -1455Z"/>
</svg>