<svg xmlns="http://www.w3.org/2000/svg" viewBox="0 -2048 2048 2048">
	<path fill="#000000" d="M1732 -218Q1732 -232 1722 -134Q1718 -130 1715 -128H1730V377H1603L1241 -48H329V-125H379Q368 -187 346 -210Q320 -237 260 -237Q252 -237 235 -234Q218 -231 210 -231Q192 -231 180 -241V-636Q177 -636 171.5 -635Q166 -634 163 -634Q138 -634 119 -658Q100 -682 100 -708Q100 -789 204 -789Q223 -789 256 -749Q263 -740 272 -710Q326 -515 435 -126H537Q540 -145 569.5 -168Q599 -191 619 -191Q726 -190 844 -201Q855 -215 884 -301Q910 -383 915 -410Q937 -544 937 -716Q937 -772 911 -857Q883 -904 842 -971Q823 -1003 800 -1024Q796 -1027 753 -1053Q664 -1106 641.5 -1167Q619 -1228 619 -1253Q619 -1285 637 -1334Q605 -1325 602 -1326Q487 -1341 362 -1368Q351 -1358 326 -1338V-1399Q326 -1409 338.5 -1433Q351 -1457 360 -1462Q389 -1479 437 -1487Q478 -1493 518 -1499Q532 -1502 576 -1520Q616 -1536 625 -1536Q742 -1536 768 -1477Q775 -1461 775 -1414Q823 -1467 871 -1467Q922 -1467 1025 -1394Q1098 -1340 1172 -1286Q1220 -1261 1315 -1211Q1487 -1119 1581 -968Q1601 -935 1661 -782Q1723 -626 1723 -600Q1723 -575 1687 -539Q1687 -535 1692 -515Q1703 -469 1719 -377Q1732 -248 1732 -218ZM1700 -600Q1700 -623 1642 -772Q1585 -916 1566 -949Q1559 -961 1524 -1004L1485 -1052Q1439 -1109 1332 -1171Q1246 -1219 1159 -1268Q1089 -1321 1020 -1374Q923 -1445 873 -1445Q838 -1445 808 -1418Q807 -1416 761 -1363Q746 -1303 746 -1282Q746 -1229 778 -1211Q771 -1227 771 -1241Q771 -1283 775 -1292Q818 -1393 877 -1393Q920 -1393 961 -1361Q1021 -1303 1153 -1200Q1225 -1159 1361 -1068Q1523 -941 1606 -632Q1627 -553 1667 -553Q1676 -553 1688 -571.5Q1700 -590 1700 -600ZM1709 -220Q1709 -304 1668 -530Q1651 -531 1627 -549.5Q1603 -568 1597 -585Q1557 -703 1538 -751Q1502 -841 1461 -910Q1452 -929 1430 -966Q1366 -1050 1191 -1151Q1169 -1163 1126 -1191Q1063 -1252 927 -1358Q911 -1368 893 -1368Q856 -1368 849 -1362Q794 -1313 794 -1253Q794 -1243 800 -1223Q806 -1203 806 -1193Q806 -1184 799 -1182L791 -1181Q773 -1187 746 -1203Q723 -1227 723 -1282Q723 -1298 738 -1356.5Q753 -1415 753 -1446Q753 -1513 625 -1513Q613 -1513 604 -1509Q576 -1495 499 -1473Q485 -1457 485 -1416Q485 -1406 509 -1403Q537 -1398 547 -1384L535 -1373Q467 -1389 455 -1391Q432 -1391 387 -1381Q608 -1351 606 -1351Q618 -1351 666 -1370Q671 -1378 681 -1378Q694 -1378 694 -1370Q694 -1356 663 -1342Q642 -1286 642 -1254Q642 -1241 661.5 -1188.5Q681 -1136 689 -1128Q708 -1109 760 -1078Q809 -1049 830 -1026Q857 -996 890 -940Q929 -873 945 -851Q967 -834 1000 -800Q1046 -722 1096 -552Q1147 -378 1147 -295Q1147 -284 1135 -238Q1123 -192 1118 -183Q1105 -162 1080 -162Q1081 -159 1081 -155V-150Q1051 -148 991 -142L986 -132Q1005 -132 1061 -136Q1109 -139 1136 -138L1308 -130Q1306 -137 1306 -139Q1306 -146 1310 -154L1317 -152Q1299 -162 1286 -162Q1157 -162 1157 -189Q1157 -261 1178 -347Q1182 -364 1194 -363L1266 -322Q1275 -347 1300 -424Q1304 -440 1315 -470Q1319 -479 1326 -478Q1328 -486 1334 -486Q1337 -485 1340 -483Q1417 -408 1573 -258Q1609 -222 1685 -155Q1690 -151 1700 -150Q1709 -215 1709 -220ZM467 -1467Q351 -1457 351 -1401V-1391Q361 -1399 368 -1401Q441 -1422 464 -1413Q463 -1438 463 -1439Q463 -1457 467 -1467ZM1699 -127Q1671 -132 1623 -180Q1623 -162 1627 -126Q1651 -126 1699 -127ZM1605 -133V-163Q1605 -191 1599 -200Q1582 -226 1439 -358L1476 -135Q1492 -135 1523.5 -132.5Q1555 -130 1571 -130Q1590 -130 1605 -133ZM1455 -126Q1441 -213 1410 -385Q1383 -409 1334 -461L1279 -296H1264Q1228 -319 1200 -334Q1193 -286 1183 -190Q1199 -185 1233 -184H1258Q1354 -184 1366 -126ZM1705 351V-46H1625V351ZM1105 -426Q1080 -515 1018 -691Q1013 -703 998 -746Q987 -778 984 -783Q977 -794 956 -811L941 -823Q960 -721 960 -720Q960 -542 938 -411.5Q916 -281 862 -187Q852 -169 794 -171L800 -169Q801 -158 791 -150Q761 -150 702 -143L701 -131Q724 -129 817 -129Q836 -170 910 -190Q930 -256 968 -387Q972 -393 977 -393Q979 -393 982 -392Q999 -374 1034 -337ZM1598 268V-46H1336ZM1125 -297Q1125 -355 1112 -398Q1072 -349 1032 -305Q1010 -326 984 -357L933 -189H1088Q1100 -189 1113 -237Q1125 -279 1125 -297ZM1600 309Q1600 308 1599 304Q1566 262 1305 -46H1271L1598 337Q1598 332 1599 323Q1600 314 1600 309ZM1705 -70V-100H355V-70ZM956 -162H892Q884 -162 874 -154L877 -127H922Q925 -148 956 -162ZM720 -170L619 -168Q609 -168 590 -153H592Q596 -153 593 -146L599 -148Q600 -146 601 -144Q601 -142 600 -137Q600 -131 600 -129H646Q653 -160 720 -170ZM409 -126L303 -514Q288 -564 263 -664Q244 -765 190 -765Q123 -765 123 -707Q123 -691 135.5 -674Q148 -657 163 -657Q167 -657 175.5 -660Q184 -663 189 -663Q199 -663 205 -653V-256Q207 -255 215 -255Q223 -255 238 -257.5Q253 -260 260 -260Q282 -260 332 -246Q363 -237 380 -196Q381 -194 401 -126ZM656 -1454Q656 -1406 608 -1406Q591 -1406 573 -1422Q555 -1438 543 -1438Q541 -1438 537 -1437Q533 -1436 531 -1436Q524 -1436 513 -1443Q522 -1447 542 -1453Q553 -1457 575 -1478Q594 -1496 611 -1496Q624 -1496 640 -1481.5Q656 -1467 656 -1454ZM639 -1450V-1453Q639 -1458 631 -1467Q635 -1461 634 -1437V-1434Q639 -1440 639 -1450ZM616 -1442V-1457L612 -1462L610 -1463Q600 -1454 600 -1448V-1445L605 -1442ZM598 -1426Q580 -1436 580 -1451Q580 -1452 591 -1469Q582 -1461 571 -1447Q573 -1428 598 -1426Z"/>
</svg>