<svg xmlns="http://www.w3.org/2000/svg" viewBox="30.9 -1556.1 1575.2 1865.2">
	<path fill="currentColor" d="M1537 186Q1537 230 1518 230Q1481 230 1374 106Q1337 63 1310 47Q1379 151 1424 234Q1418 234 1399.5 237Q1381 240 1375 240Q1302 240 1228 220Q1136 195 1106 151Q1067 75 980 -71Q972 -83 895 -134Q889 -128 889 -111Q889 -94 898 -52.5Q907 -11 907 1V38L895 40Q824 -22 768 -41Q765 -36 765 -8Q765 31 772 85Q771 108 788 151Q886 160 923 170Q992 189 1006 234Q1001 237 987 234Q967 230 963 230H428Q422 230 393 235Q364 240 358 240Q353 240 299.5 235Q246 230 240 230Q235 230 210 235Q185 240 179 240Q180 240 100 224Q102 215 116.5 198Q131 181 139 181Q145 181 143 186Q141 191 147 191Q152 191 170.5 182.5Q189 174 196 173Q263 167 397 146Q445 135 445 -141Q445 -297 394 -475Q388 -495 269 -637Q174 -750 174 -880Q174 -886 186 -948.5Q198 -1011 198 -1017Q198 -1023 193 -1032Q188 -1041 187 -1045Q154 -1056 135 -1107Q120 -1146 120 -1182Q120 -1241 159 -1241Q165 -1241 166.5 -1238.5Q168 -1236 174 -1236Q173 -1236 199 -1266Q225 -1296 254 -1308Q293 -1316 371 -1333Q374 -1370 337 -1417Q297 -1468 251 -1468Q237 -1468 224 -1463V-1481Q234 -1487 258 -1487Q335 -1487 383 -1374Q400 -1418 445 -1454Q487 -1487 521 -1487H553Q547 -1480 547 -1468Q499 -1469 451 -1431Q398 -1389 395 -1334Q446 -1323 497 -1311Q560 -1291 581 -1236Q582 -1236 590 -1241Q598 -1246 605 -1246Q637 -1246 637 -1197Q637 -1172 625 -1140Q616 -1117 585 -1063Q558 -1016 558 -1010Q558 -1016 573 -950Q594 -940 635 -919Q662 -901 719 -868Q841 -804 956 -643Q1038 -518 1120 -394Q1236 -239 1352 -85Q1537 163 1537 186ZM617 -1199Q617 -1210 605 -1222Q583 -1207 564 -1187Q547 -1189 550 -1201Q556 -1230 556 -1224Q555 -1267 484 -1289Q433 -1305 373 -1305Q232 -1305 197 -1214Q203 -1198 202 -1196Q199 -1191 195 -1187H183Q176 -1208 156 -1217L144 -1205V-1151Q144 -1136 164 -1106Q184 -1076 193 -1074Q193 -1089 205 -1089Q209 -1085 214 -1077Q201 -1052 215 -1026Q258 -945 284 -919Q321 -882 378 -882Q458 -882 506 -958Q549 -1024 547 -1104H564Q572 -1088 581 -1089Q617 -1173 617 -1199ZM1512 201V178Q1481 124 1322 -86Q1133 -336 1100 -384Q1027 -498 895 -689Q825 -780 782 -802Q749 -818 666 -818Q597 -818 544 -795Q474 -764 474 -705Q474 -653 490 -627Q525 -570 695 -449Q834 -351 972 -254Q1060 -198 1199 -98Q1313 14 1512 201ZM1394 215Q1349 149 1257 20Q1235 -11 1212 -42Q1184 -79 1152 -102Q946 -246 542 -538Q491 -577 470 -615.5Q449 -654 449 -707Q449 -734 475 -775Q515 -838 664 -838Q669 -838 692 -836.5Q715 -835 725 -835Q663 -870 553 -941Q550 -943 543 -971Q477 -857 376 -857Q324 -857 287 -885Q254 -910 210 -980Q198 -846 198 -872Q198 -753 305 -628Q412 -515 518 -402Q644 -252 674 -87Q691 6 691 75Q691 144 673 163Q660 176 612 177Q545 179 499 192V206H942Q891 178 778 170Q744 141 744 71V-65H766Q776 -65 819 -43Q866 -19 886 -1Q863 -116 863 -154Q863 -170 879 -168Q922 -147 990 -95Q1019 -57 1068 34Q1122 134 1129 144Q1147 170 1224 194Q1291 215 1329 215ZM660 4V-43Q660 -49 656.5 -59.5Q653 -70 653 -73Q624 -274 421 -468Q469 -311 469 -136Q469 -26 458 45Q442 149 412 164.5Q382 180 248 192V210H345Q375 178 417 173Q455 170 493 166Q507 50 524 -66Q531 -75 535 -75Q573 -58 596 -45Q637 -21 660 4ZM671 105Q671 8 539 -45L514 161H545Q550 161 590.5 156Q631 151 650 150Q671 133 671 105ZM457 191Q447 193 426 197Q405 201 395 203L453 211Q457 207 459 199Q461 191 457 191ZM193 207V199L165 204V213ZM518 -1145Q495 -1123 459 -1123Q438 -1123 414 -1138Q414 -1121 417 -1087Q420 -1053 420 -1049Q420 -1025 381 -1025Q380 -1025 332 -1041Q346 -1139 346 -1153Q346 -1192 294 -1192Q278 -1192 249 -1182Q248 -1186 243 -1194Q253 -1217 290 -1217Q320 -1217 345.5 -1197.5Q371 -1178 371 -1153Q371 -1178 351 -1058L360 -1049H387Q396 -1056 396 -1073Q396 -1084 391 -1107.5Q386 -1131 386 -1140Q386 -1212 457 -1212Q484 -1212 518 -1195Q513 -1190 513 -1178Q480 -1178 484 -1180Q505 -1170 518 -1145ZM336 -1144Q316 -1133 294 -1133Q289 -1133 267 -1138.5Q245 -1144 234 -1144Q234 -1155 228 -1161Q270 -1182 290 -1182Q305 -1182 336 -1161ZM459 -998Q433 -946 376 -946Q360 -946 330 -959Q294 -975 292 -993L309 -1010Q354 -995 363 -995Q368 -995 396 -1001Q429 -1007 453 -1010Q454 -1006 459 -998ZM479 -1149L456 -1158L450 -1149ZM469 -1186H445Q435 -1186 417 -1176Q416 -1171 411 -1163Q433 -1171 469 -1186ZM309 -1149L286 -1158L280 -1149ZM410 -980L408 -987L377 -976V-969Z"/>
</svg>