<svg xmlns="http://www.w3.org/2000/svg" viewBox="21.7 -1568.3 2114.6 1993.6">
	<path fill="currentColor" d="M2058 -767Q2046 -767 2039 -760Q2026 -818 2014 -818Q1982 -818 1954 -803Q1956 -793 1958 -769V-745H1933Q1937 -775 1923 -803Q1846 -792 1842 -792Q1835 -763 1842 -730H1814V-1417L1580 -986Q1787 -806 1844 -606Q1873 -532 1902 -458Q1953 -327 1953 -283Q1953 -223 1911 -210Q1924 -163 1941 -55Q1958 60 1958 113V309L1946 321Q1873 290 1836 253Q1830 269 1837 342H1699Q1698 342 1618 326Q1609 243 1599 160Q1585 57 1563 -11Q1556 -34 1468 -109L1390 101Q1358 85 1295 48Q1293 50 1288 57Q1287 65 1270 234Q1292 243 1360.5 246Q1429 249 1457 260Q1502 277 1502 324Q1502 330 1490 342Q1476 345 1467 326Q1436 347 1418 347L1179 332Q1172 332 1105.5 339.5Q1039 347 1032 347Q1015 347 989 321Q988 321 969 340Q962 347 943 347Q938 347 907 343.5Q876 340 864 340Q860 328 853 321Q824 347 733 347Q711 347 659 341Q654 340 645 333Q636 326 630 326Q622 326 619 332Q613 341 613 341Q608 342 567 342Q534 342 522 341Q522 341 502 321Q481 342 469 342Q459 322 468 303L333 -10Q306 8 229 74Q219 71 184 24Q226 3 289 -24Q290 -31 285 -34Q100 -99 100 -230Q100 -249 136 -290Q172 -331 192.5 -338.5Q213 -346 229 -346Q288 -346 327 -305Q366 -264 369 -196Q370 -174 366 -133Q361 -89 361 -67Q387 -88 439 -130L494 -75Q414 -45 368 -22Q529 242 549 242Q555 242 580.5 237Q606 232 613 232H763Q769 232 796.5 229.5Q824 227 837 226Q843 221 849 212Q943 -29 936 -117Q935 -134 935 -156Q935 -224 948 -336.5Q961 -449 961 -443Q961 -591 893 -693Q833 -783 632 -955Q615 -970 597 -1019Q583 -1059 563 -1135Q559 -1162 578 -1229Q494 -1228 433 -1239Q211 -1280 242 -1280Q234 -1280 208 -1254Q204 -1257 196 -1261Q196 -1264 192.5 -1277.5Q189 -1291 189 -1298Q189 -1315 203 -1350Q218 -1390 233 -1398Q253 -1409 409 -1449.5Q565 -1490 588 -1490Q757 -1490 757 -1361Q757 -1349 755 -1337Q826 -1406 872 -1406Q939 -1406 1029 -1343Q1107 -1286 1186 -1228Q1308 -1154 1551 -1002L1818 -1479Q1834 -1479 1841 -1467Q1853 -1423 1878 -1341ZM2011 -840L1839 -1369V-819Q1896 -827 2011 -840ZM1927 -293Q1927 -319 1855 -512Q1794 -675 1751 -751Q1673 -887 1553 -973Q1450 -1036 1249 -1160Q1194 -1199 1091 -1270Q1040 -1306 989 -1342Q924 -1385 877 -1385Q838 -1385 782 -1330Q722 -1271 721 -1220Q721 -1210 717.5 -1188.5Q714 -1167 714 -1162Q714 -1129 737 -1087Q745 -1076 761 -1076V-1095Q749 -1109 749 -1135Q749 -1191 792 -1249Q838 -1312 890 -1312Q934 -1312 1015 -1244Q1073 -1194 1130 -1145Q1243 -1068 1450 -922Q1533 -860 1595 -787Q1676 -692 1726 -557Q1772 -433 1799 -353Q1840 -230 1882 -230Q1927 -230 1927 -293ZM1937 289V239Q1942 133 1915 -65Q1903 -152 1884 -208Q1832 -209 1805 -276Q1774 -363 1744 -449Q1706 -542 1688 -582Q1649 -667 1613 -722Q1559 -805 1527 -831Q1463 -883 1354 -957Q1216 -1049 1180 -1076Q1152 -1096 1060 -1176Q934 -1285 895 -1285Q850 -1285 813 -1239.5Q776 -1194 776 -1147Q776 -1129 782 -1099Q788 -1069 788 -1060Q788 -1045 780 -1038Q755 -1047 720 -1069Q693 -1105 693 -1170Q693 -1177 711.5 -1265.5Q730 -1354 730 -1361Q730 -1410 681 -1441Q639 -1469 588 -1469Q584 -1469 427 -1420Q408 -1414 396 -1399Q389 -1345 389 -1361V-1339Q415 -1329 462 -1303Q458 -1299 458 -1285Q386 -1312 336 -1312Q329 -1312 273 -1298Q508 -1254 531 -1254Q573 -1254 600 -1266Q621 -1279 643 -1291Q646 -1288 650 -1281.5Q654 -1275 657 -1272Q588 -1230 588 -1154Q588 -1099 621 -1024Q647 -965 704 -922Q794 -854 823 -824Q963 -679 1033 -557Q1119 -409 1204 -43Q1229 64 1229 95Q1229 137 1195 234Q1191 245 1173 255.5Q1155 266 1147 266Q1144 273 1136 283Q1119 283 1078.5 287Q1038 291 1025 291Q1025 309 1019 315Q1109 305 1153 305L1433 320Q1396 285 1336 272Q1256 256 1244 250Q1253 171 1267 26Q1278 11 1278 11Q1314 30 1379 64L1458 -157Q1463 -152 1709 98Q1847 239 1937 289ZM370 -1333Q363 -1356 370 -1411H340Q306 -1411 264 -1388Q216 -1361 216 -1324V-1301Q316 -1338 339 -1338ZM1811 310V271Q1811 231 1804 222Q1768 179 1679 97Q1596 21 1596 25Q1596 29 1616 139Q1638 259 1644 310Q1690 314 1737 318Q1798 322 1811 310ZM1176 -67Q1176 -94 1118 -268Q1066 -423 1048 -465Q1024 -522 968 -587Q987 -498 987 -419Q987 -414 977 -322Q965 -219 962 -175Q965 -124 959 -34Q942 39 899 155Q890 181 882 207Q870 236 852 247Q842 253 777 253Q770 253 723.5 250.5Q677 248 672 248Q564 248 525 288Q535 289 534 299Q532 315 532 316H592Q604 288 665 258H783V275Q742 278 671 285L663 280V315Q698 319 738 319Q778 319 813 315Q821 242 928 242L1011 -36L1084 48Q1176 -59 1176 -67ZM1203 82Q1203 96 1185 -30Q1150 9 1089 85L1021 17L956 242Q956 242 1074 242Q1155 242 1166.5 235Q1178 228 1188 177Q1203 102 1203 82ZM1008 266Q927 264 891 270L883 264V315H950Q954 294 977 278Q996 265 1008 266ZM452 -85L439 -99Q434 -94 422 -83.5Q410 -73 405 -68Q423 -74 452 -85ZM325 -52V-139Q326 -173 300 -227Q267 -293 221 -293Q190 -293 171.5 -265.5Q153 -238 153 -206Q153 -160 220 -115Q273 -84 325 -52ZM520 256L411 96Q438 161 491 279Q497 273 507.5 265.5Q518 258 520 256ZM609 -1393Q609 -1373 582 -1351Q558 -1333 546 -1333Q539 -1333 519 -1346Q493 -1364 485 -1368Q481 -1370 447 -1370V-1389Q554 -1443 552 -1443Q567 -1443 588 -1425Q609 -1407 609 -1393ZM561 -1386Q561 -1398 542 -1398Q523 -1398 523 -1386Q523 -1373 542 -1373Q561 -1373 561 -1386Z"/>
</svg>