<svg xmlns="http://www.w3.org/2000/svg" viewBox="0 -2048 2048 2048">
	<path fill="currentColor" d="M1999 -665L1975 -657L1947 -736L1876 -730L1889 -649L1863 -645L1850 -726L1778 -719V-637H1752L1761 -1250L1410 -845Q1471 -777 1577 -628Q1648 -503 1693 -215Q1731 28 1731 220V272L1517 298Q1493 171 1440 -139Q1389 -157 1338 -174Q1268 -202 1252 -228Q1250 -233 1243 -243Q1216 -273 1166 -336Q1174 -171 1174 -186Q1174 -190 1157 -41L1124 249Q1125 255 1127 256Q1170 258 1255 275Q1262 278 1276 283Q1284 293 1297 320L1291 362Q1282 352 1262 332L1261 348L1050 339Q1023 338 973 343Q919 348 896 348Q880 348 862 328Q850 342 837 354H758Q744 339 743 328L738 333Q744 338 744 346Q736 354 607 354Q600 354 586.5 344.5Q573 335 571 329Q563 335 554 352Q535 355 499 355Q472 355 461 331Q452 340 434 358Q426 346 426 334Q426 329 429 320.5Q432 312 432 307Q432 290 311 31L209 109Q188 89 175 56L282 14Q220 -14 158 -43Q100 -79 100 -167Q100 -211 139 -241Q174 -269 220 -269Q225 -269 237 -265Q253 -263 283 -252Q354 -205 343 -116L330 -12L405 -75Q409 -72 452 -30Q408 -8 338 19Q428 151 503 260H510L732 254Q740 254 752 215Q783 136 830 -28Q852 -139 852 -274Q852 -398 807 -529Q806 -533 784 -562Q752 -605 708 -751Q642 -727 643 -727Q576 -727 555 -742Q483 -792 483 -906Q483 -954 500 -1001Q453 -992 461 -992Q445 -992 414 -1000Q375 -1011 366 -1012Q307 -1019 191 -1032L185 -1041L156 -1008Q145 -1030 145 -1050Q145 -1125 185 -1147Q218 -1165 279 -1175Q329 -1181 378 -1188Q383 -1189 451 -1219Q406 -1238 393 -1248Q373 -1264 354 -1301Q331 -1347 329 -1386L328 -1410Q327 -1424 340 -1448Q373 -1512 407 -1536Q448 -1565 508 -1565Q529 -1565 581 -1546Q659 -1517 683 -1434Q688 -1417 688 -1375Q688 -1326 654 -1278Q618 -1227 572 -1217Q658 -1187 658 -1103Q658 -1078 638.5 -1016.5Q619 -955 619 -925Q619 -885 648 -885Q692 -885 731 -980Q741 -1008 768 -1062Q811 -1128 936 -1128Q995 -1128 1058 -1099Q1113 -1069 1167.5 -1039.5Q1222 -1010 1390 -862L1761 -1290L1787 -1294ZM1940 -761L1786 -1213L1779 -745ZM665 -1375Q665 -1414 658 -1436Q625 -1539 507 -1539Q498 -1539 461 -1530Q424 -1521 419 -1516Q354 -1452 354 -1410Q354 -1284 426 -1255Q491 -1229 516 -1229Q575 -1229 620 -1272.5Q665 -1316 665 -1375ZM1708 254V211Q1708 193 1703.5 159Q1699 125 1699 108Q1694 -178 1609 -485Q1597 -506 1578 -551Q1544 -676 1377 -844Q1248 -974 1047 -1080Q1003 -1103 954 -1103Q887 -1103 866 -1098Q825 -1089 791 -1053Q786 -1043 775 -1022Q756 -986 756 -934Q756 -901 759 -893Q799 -788 1003 -599Q1069 -538 1255 -451Q1326 -426 1463 -369Q1544 -329 1569 -251Q1603 -144 1603 -86Q1603 -73 1591 -63Q1584 -70 1583 -74Q1580 -100 1573 -153Q1560 -237 1521 -290Q1488 -335 1433 -360Q1402 -371 1340 -394Q1227 -437 1128 -496Q1087 -518 1009 -566Q910 -637 836 -733Q781 -805 771 -821Q737 -874 730 -921Q697 -862 646 -862Q593 -862 593 -922Q593 -951 614 -1018.5Q635 -1086 635 -1124Q635 -1203 495 -1203Q465 -1203 452 -1196Q433 -1186 414 -1175Q383 -1170 340 -1158Q328 -1152 328 -1099Q328 -1078 360 -1073Q392 -1068 392 -1057Q392 -1053 388 -1045L293 -1067Q264 -1066 209 -1054L465 -1018Q490 -1018 554 -1045Q568 -1045 568 -1039Q568 -1022 527 -1008Q506 -953 506 -907Q506 -866 522.5 -820.5Q539 -775 571 -760Q586 -753 646 -753Q646 -753 718 -780Q732 -730 768 -632Q794 -575 854 -499Q880 -478 915 -439Q938 -396 965 -318Q998 -221 1009 -195Q1035 -147 1078 -49Q1086 -26 1086 28Q1086 37 1074 121Q1067 172 1055 259Q1015 289 996 289Q943 300 918 300Q910 300 891 304V305L892 313L888 322Q894 325 899 325Q922 325 975 320Q1025 315 1051 316L1235 321L1228 309L1240 297Q1248 300 1265 307L1263 303Q1240 291 1191 286Q1154 283 1116 279Q1100 265 1102 251L1152 -188Q1152 -187 1148 -251Q1143 -335 1143 -392Q1156 -392 1164 -380Q1223 -288 1280 -233Q1309 -205 1369 -186Q1441 -164 1462 -151Q1499 62 1534 274ZM313 -1156H305Q294 -1156 250 -1145Q206 -1134 198 -1129Q168 -1110 170 -1074L171 -1059Q209 -1090 293 -1090Q296 -1090 307 -1087Q306 -1093 306 -1102Q306 -1126 313 -1156ZM1063 32Q1063 -31 1034 -93Q1006 -152 978 -210Q969 -149 939 -30Q902 67 830 262H1003Q1007 262 1032 247Q1045 169 1056 89Q1063 37 1063 32ZM962 -250Q962 -266 932 -341Q905 -411 893 -431Q884 -447 844 -480Q875 -333 875 -273Q875 -127 846 -3Q825 83 763 255Q755 276 697 277L703 279Q704 289 693 297Q660 296 586 310Q592 316 604 328H707Q713 303 744 288Q750 282 763 270Q778 269 808 263Q848 145 887 27Q931 -108 954 -213Q962 -249 962 -250ZM871 289H784Q778 289 771 295Q777 299 777 305Q773 311 765 323L766 326L767 327L822 328Q826 303 871 289ZM417 -35Q414 -38 406 -47Q396 -38 375 -21ZM323 -115Q323 -166 298 -203Q269 -246 220 -246Q190 -246 163 -230Q194 -243 221 -243Q264 -243 294 -195Q320 -152 320 -107V-100Q323 -113 323 -115ZM305 -3V-6Q305 -220 220 -220Q171 -220 155 -197Q147 -185 147 -155Q147 -133 150 -127Q169 -90 220 -56Q262 -30 305 -3ZM131 -199Q123 -184 123 -168V-161Q123 -158 124 -148Q124 -174 131 -199ZM614 278Q580 278 546 278Q508 280 482 296Q489 298 489 304Q489 307 489 307V314Q486 319 486 328H537Q545 289 614 278ZM186 -57Q156 -83 133 -111Q147 -80 186 -57ZM480 269L374 113L450 290Q464 277 480 269ZM243 54L206 66Q208 71 213 79ZM524 -1139Q524 -1085 468 -1085Q447 -1085 429 -1102.5Q411 -1120 401 -1120Q405 -1120 354 -1117Q385 -1134 417 -1152Q445 -1185 474 -1185Q524 -1185 524 -1139ZM503 -1138Q503 -1142 493 -1157L497 -1119Q503 -1133 503 -1138ZM474 -1129V-1144H464L460 -1141L459 -1138Q459 -1134 464 -1129ZM445 -1153Q442 -1151 429 -1135L442 -1122Q439 -1130 439 -1136Q439 -1143 445 -1153Z"/>
</svg>