<svg xmlns="http://www.w3.org/2000/svg" viewBox="0 -2048 2048 2048">
	<path fill="#000000" d="M1935 -1296Q1829 -1229 1641 -1162Q1482 -1108 1322 -1054Q1253 -1030 1039 -805Q1044 -800 1089 -772Q1129 -747 1151 -736Q1297 -662 1394 -422Q1479 -212 1479 -170Q1479 -161 1448 -99L1484 175Q1484 301 1484 301H1457Q1445 302 1389 260Q1382 273 1385 317Q1361 323 1311 323Q1277 323 1217 310Q1201 222 1171 61Q1168 47 1104 -19Q1089 0 1069 53Q1040 130 1037 136Q1003 115 965 100Q956 156 950 236Q1002 242 1054 248Q1113 260 1126 317L826 323Q746 323 724 307Q725 307 709 326Q703 328 673 328Q666 328 636 326Q617 312 619 312Q613 312 584 322.5Q555 333 549 333Q543 333 498.5 325.5Q454 318 448 318Q442 318 422.5 323Q403 328 396 328Q361 328 346 312Q332 312 332 328Q331 327 319.5 322Q308 317 308 310Q308 282 366 254Q415 230 441 230H600Q616 215 627 190Q702 16 702 -253Q702 -326 700 -340Q693 -387 657 -445Q618 -418 557 -352Q541 -325 527 -273Q509 -208 503 -192Q454 -63 406 66Q342 221 280 302Q276 302 269 300Q100 71 100 -198Q100 -266 119 -372Q140 -491 164 -521Q195 -560 253 -596Q302 -624 350 -653Q378 -671 432 -712Q391 -780 391 -852Q391 -880 401 -897Q347 -900 237 -912Q222 -915 185.5 -926Q149 -937 144 -937Q141 -937 101 -927V-980Q101 -993 119.5 -1019Q138 -1045 154 -1049Q370 -1108 406 -1108Q489 -1108 523 -1071Q527 -1067 549 -994Q580 -1041 639 -1041Q684 -1041 717.5 -1020Q751 -999 756 -999Q758 -999 780 -1017Q825 -1054 845 -1081Q934 -1206 1024 -1332Q1094 -1424 1156.5 -1455Q1219 -1486 1342 -1486Q1658 -1486 1913 -1329Q1929 -1319 1935 -1296ZM1899 -1302Q1896 -1304 1884 -1315Q1872 -1326 1865 -1326Q1861 -1326 1809 -1299Q1748 -1267 1709 -1254Q1568 -1206 1419 -1163Q1386 -1152 1326 -1132Q1188 -1090 987 -830Q990 -830 999 -824Q1008 -818 1011 -818Q1043 -842 1072 -876Q1191 -1016 1340 -1081Q1450 -1118 1561 -1156Q1738 -1223 1899 -1302ZM1837 -1339Q1766 -1378 1604 -1420Q1429 -1466 1321 -1466Q1195 -1466 1113 -1396Q1066 -1356 972 -1218Q870 -1070 779 -981L964 -844Q990 -874 1036 -928Q1153 -1071 1234 -1117Q1277 -1141 1477 -1203Q1720 -1278 1837 -1339ZM1453 -172Q1453 -190 1363 -432Q1352 -454 1335 -490Q1287 -598 1169 -689Q1118 -729 965 -819Q936 -836 856 -891Q804 -929 751 -967Q673 -1020 639 -1020Q587 -1020 549 -962Q515 -911 515 -862Q515 -853 523 -831Q532 -805 534 -797Q532 -840 564 -899Q601 -968 647 -968Q681 -968 728 -931Q762 -901 796 -871Q876 -806 915 -778Q1002 -723 1122 -640Q1217 -559 1255 -472Q1285 -390 1348 -233Q1362 -201 1376 -168Q1398 -128 1425 -128Q1453 -128 1453 -172ZM686 -930Q635 -947 639 -947Q593 -947 563 -818Q606 -856 686 -930ZM1458 276V133Q1459 107 1425 -96Q1412 -102 1398 -109Q1376 -120 1366 -142Q1310 -279 1253 -416Q1168 -589 1032 -673Q1005 -691 953 -724L676 -468Q719 -419 773 -352Q809 -295 860 -133Q914 40 914 118Q914 232 848 268Q846 272 838 280Q812 280 761 284Q760 287 759 296H1064Q1064 293 1066.5 286.5Q1069 280 1069 277Q1017 276 924 252Q927 202 930 152Q934 93 949 58Q1019 100 1023 100Q1030 100 1054 41Q1084 -32 1098 -56Q1336 199 1458 276ZM525 -1012Q525 -1046 483 -1066Q450 -1082 411 -1082Q380 -1082 329 -1067Q261 -1047 261 -1017V-990Q291 -982 313 -965V-951L310 -947Q230 -963 225 -963Q197 -963 183 -955Q387 -921 370 -921Q421 -921 450 -958L468 -940Q417 -900 417 -851Q417 -810 449 -725Q473 -742 515 -772Q489 -839 489 -867Q489 -873 507 -939.5Q525 -1006 525 -1012ZM240 -1040H212Q181 -1040 154 -1019Q123 -996 127 -963Q165 -971 235 -990Q235 -1014 240 -1040ZM1365 296V236L1206 85Q1225 229 1242 296ZM883 -774L709 -916Q644 -854 526 -751Q522 -748 298 -596Q247 -561 180 -500Q126 -409 126 -201Q126 -98 156 20Q188 148 233 193Q254 146 339 -94Q401 -268 464 -363Q529 -462 677 -593Q780 -684 883 -774ZM930 -744Q927 -744 917.5 -749.5Q908 -755 905 -755Q795 -662 685 -569Q555 -458 491 -366Q431 -279 332 -23Q245 203 245 219Q245 235 280 266Q363 130 482 -203Q505 -281 536 -368Q643 -486 753 -585Q842 -665 930 -744ZM868 -4Q868 -16 842 -105Q815 -201 793 -256Q756 -351 713 -382Q726 -347 726 -295Q726 -265 713 -157Q711 -102 705 -12Q690 45 662 154Q653 192 625 250Q617 258 568 256Q567 277 533 279Q508 279 483 279Q473 280 468 284Q474 290 474 301Q483 301 498.5 304Q514 307 520 307Q526 307 549 303.5Q572 300 582 300Q586 276 620 260Q649 247 669 248Q711 128 741 22Q761 46 803 84Q868 3 868 -4ZM893 123Q893 118 876 33Q863 49 839.5 79.5Q816 110 803 126Q784 105 750 74L707 244H845Q865 235 880 190Q893 152 893 123ZM706 266Q688 271 669 275Q646 282 640 296L690 301Q690 295 698 281.5Q706 268 706 266ZM463 256H425Q401 254 365 278Q371 284 371 301H415Q428 281 463 256ZM432 -1028Q432 -984 383 -984Q377 -984 349 -997Q321 -1010 315 -1010Q309 -1010 304 -1005Q304 -1008 301 -1017Q298 -1026 298 -1029Q316 -1037 348 -1059Q367 -1072 388 -1072Q432 -1072 432 -1028ZM396 -1031Q396 -1040 378 -1040Q359 -1040 359 -1031Q359 -1021 378 -1021Q396 -1021 396 -1031Z"/>
</svg>