<svg xmlns="http://www.w3.org/2000/svg" viewBox="0 -2048 2048 2048">
	<path fill="currentColor" d="M2704 -1010Q2704 -925 2686 -826Q2669 -740 2651 -654L2355 -757Q2312 -734 2244 -700V-681Q2287 -585 2423 -204Q2432 -177 2432 -80Q2432 72 2361 173Q2281 286 2084 383L1826 -355Q1782 -301 1756 -258Q1735 -276 1698 -303Q1690 -260 1680 -185Q1734 -178 1789 -172Q1854 -158 1861 -97Q1847 -97 1839 -89L1825 -103Q1691 -100 1579 -94Q1501 -90 1488 -91Q1474 -102 1463 -102Q1456 -102 1438 -95.5Q1420 -89 1411 -89Q1403 -89 1379 -99Q1355 -109 1347 -109Q1346 -109 1322 -91Q1318 -89 1288 -89Q1280 -89 1236.5 -95.5Q1193 -102 1185 -102Q1179 -102 1154 -95.5Q1129 -89 1120 -89Q1113 -89 1101 -95.5Q1089 -102 1081 -102Q1073 -102 1074.5 -95.5Q1076 -89 1068 -89Q1059 -89 1050.5 -93Q1042 -97 1039 -97V-118Q1039 -174 1332 -194Q1360 -218 1367 -249Q1434 -532 1434 -669Q1434 -674 1431.5 -695.5Q1429 -717 1429 -731H544Q538 -731 504 -741Q467 -752 452 -754Q311 -772 198 -932Q94 -1081 100 -1213H1202V-1225Q1151 -1228 1048 -1238Q1036 -1240 995 -1252Q958 -1262 948 -1262Q938 -1262 925 -1249Q917 -1257 903 -1257V-1310Q902 -1337 943 -1369Q962 -1383 983 -1389Q1193 -1444 1233 -1444Q1281 -1444 1315 -1408Q1349 -1372 1349 -1325Q1349 -1314 1347 -1304Q1339 -1280 1330 -1240V-1202L1341 -1191Q1505 -1308 1842 -1308Q2190 -1308 2368 -1171L2644 -1262Q2704 -1085 2704 -1010ZM2672 -997Q2672 -1147 2624 -1230L2380 -1143Q2415 -1086 2419 -1076Q2426 -1059 2426 -1019Q2426 -935 2404 -852Q2394 -813 2374 -785L2616 -692Q2622 -692 2632 -700Q2672 -908 2672 -997ZM2393 -1003Q2393 -1134 2275 -1197Q2236 -1218 2031 -1274L2240 -731Q2393 -786 2393 -1003ZM2400 -83Q2400 -184 2384 -230Q2290 -501 1995 -1268Q1971 -1282 1948 -1281H1778L2173 -124Q2173 -66 2131 -4Q2086 62 2018 94Q2078 298 2111 338Q2278 253 2344 147Q2400 57 2400 -83ZM1203 -1363Q1203 -1380 1182 -1380Q1161 -1380 1161 -1363Q1161 -1345 1182 -1345Q1203 -1345 1203 -1363ZM2147 -129L1750 -1275Q1677 -1265 1551 -1248Q1630 -1016 1931 -150Q1956 -82 2000 51Q2007 60 2021 60Q2076 30 2112 -28Q2145 -80 2147 -129ZM1045 -1365H1004Q991 -1366 968 -1345Q942 -1323 936 -1302Q993 -1321 1003 -1321Q1011 -1321 1019.5 -1318Q1028 -1315 1038 -1315Q1038 -1350 1045 -1365ZM1816 -393L1524 -1236H1496Q1487 -1236 1425 -1204Q1344 -1162 1322 -1152Q1298 -1195 1298 -1220Q1298 -1228 1311 -1273.5Q1324 -1319 1324 -1327Q1324 -1340 1294 -1376Q1260 -1418 1233 -1418Q1224 -1418 1215 -1413Q1206 -1408 1204 -1408Q1226 -1408 1231 -1388Q1240 -1350 1240 -1353Q1240 -1308 1185 -1308Q1163 -1313 1146 -1319Q1106 -1334 1097 -1355Q1130 -1366 1155 -1397Q1105 -1375 1101 -1373Q1066 -1351 1065 -1322Q1088 -1313 1123 -1291Q1120 -1288 1118 -1280Q1116 -1272 1113 -1269Q1065 -1285 993 -1285Q1124 -1256 1172 -1256Q1214 -1256 1256 -1288Q1268 -1276 1273 -1276V-1260Q1260 -1254 1235 -1239Q1220 -1196 1220 -1165Q1220 -1082 1385 -900Q1437 -860 1503 -791Q1551 -697 1598 -541Q1648 -373 1648 -290Q1648 -171 1579 -151Q1573 -135 1565 -135Q1557 -135 1534.5 -133Q1512 -131 1502 -131Q1502 -131 1568 -130Q1693 -129 1790 -129Q1790 -135 1796 -146Q1716 -137 1654 -165Q1646 -309 1690 -362L1749 -303ZM1259 -997Q1179 -1115 1187 -1177H404V-1143Q404 -1103 477 -1048Q545 -996 576 -997ZM1596 -433Q1596 -465 1503 -709Q1492 -738 1449 -795Q1468 -739 1468 -658Q1468 -567 1419 -320Q1393 -188 1332 -162Q1314 -158 1293 -142Q1237 -140 1207 -131L1296 -122Q1347 -145 1405 -182Q1429 -223 1447 -291Q1471 -383 1477 -400Q1498 -377 1535 -336Q1540 -343 1574 -390Q1596 -419 1596 -433ZM1622 -297Q1622 -317 1606 -381Q1576 -331 1535 -290Q1518 -310 1488 -342Q1467 -286 1441 -181H1574Q1591 -186 1607 -230Q1622 -270 1622 -297ZM1421 -764V-786Q1411 -828 1371 -878Q1331 -924 1290 -970H550Q506 -970 438 -1041.5Q370 -1113 370 -1164Q370 -1171 371 -1177H139V-1137Q139 -1128 154 -1091Q172 -1049 175 -1038Q198 -951 297.5 -862.5Q397 -774 472 -774Q477 -774 490.5 -769Q504 -764 512 -764ZM1440 -153Q1424 -150 1407 -146Q1384 -141 1383 -123Q1384 -123 1394.5 -119.5Q1405 -116 1420 -116Q1426 -128 1440 -153ZM1167 -160Q1145 -156 1111 -146V-122H1141Q1167 -147 1167 -160Z"/>
</svg>