<svg xmlns="http://www.w3.org/2000/svg" viewBox="0 -2048 2048 2048">
	<path fill="currentColor" d="M1397 -365Q1397 -318 1385 -260Q1344 -276 1293 -319Q1287 -287 1289 -240Q1229 -228 1201 -228Q1196 -228 1176 -232Q1149 -237 1124 -240Q1122 -300 1120 -360Q1117 -431 1105 -466Q1104 -468 1019 -539Q1002 -505 967 -400Q951 -404 907 -437Q882 -325 882 -292Q917 -260 929 -247Q977 -199 982 -177Q970 -137 969 -145Q971 -120 983 -69.5Q995 -19 995 -14Q995 137 866 243Q917 255 988 245V334H417V240H555Q424 139 412 38Q410 21 413 -9Q416 -50 416 -86Q416 -91 408 -105Q400 -119 400 -126Q400 -132 404 -144Q408 -156 408 -161Q404 -216 488 -280Q583 -354 596 -392Q657 -569 657 -713Q657 -715 651 -798Q645 -886 644 -927Q635 -941 628 -941Q616 -941 577 -911Q534 -877 519 -846Q488 -781 449 -652Q407 -513 381 -455Q330 -339 264 -244Q198 -293 148 -435Q100 -569 100 -684Q100 -897 166 -1020Q181 -1047 227 -1073Q266 -1093 305 -1113Q339 -1133 411 -1180Q388 -1264 388 -1279Q388 -1308 400 -1339Q369 -1339 268.5 -1357Q168 -1375 169 -1375Q162 -1375 154 -1367Q144 -1356 140 -1354Q121 -1365 121 -1386Q121 -1430 170.5 -1458Q220 -1486 317 -1515Q400 -1541 416 -1541Q506 -1541 537 -1439Q577 -1472 609 -1472Q670 -1472 913 -1306Q1097 -1180 1155 -1131Q1173 -1116 1239 -1047Q1275 -1009 1328 -876.5Q1381 -744 1381 -689Q1381 -683 1367.5 -659Q1354 -635 1354 -630Q1354 -624 1362 -597Q1372 -566 1373 -558Q1397 -424 1397 -365ZM1354 -694Q1354 -760 1299 -882Q1247 -997 1196 -1058Q1153 -1109 1039 -1185Q957 -1238 876 -1290Q811 -1338 746 -1387Q656 -1450 609 -1450Q566 -1450 533 -1385Q507 -1332 507 -1295Q507 -1288 510.5 -1277.5Q514 -1267 514 -1263Q524 -1273 525 -1295Q526 -1327 530.5 -1340.5Q535 -1354 561.5 -1380.5Q588 -1407 609 -1407Q646 -1407 708 -1363Q756 -1327 803 -1291Q894 -1232 1049 -1127Q1120 -1076 1159 -1007Q1195 -942 1239 -825Q1304 -651 1335 -651Q1347 -651 1348 -658Q1354 -673 1354 -694ZM635 -1373Q634 -1373 624.5 -1376.5Q615 -1380 606 -1380Q585 -1373 567.5 -1345Q550 -1317 551 -1300Q564 -1311 593 -1336.5Q622 -1362 635 -1373ZM402 -1465Q402 -1482 381 -1482Q360 -1482 360 -1465Q360 -1447 381 -1447Q402 -1447 402 -1465ZM507 -1426Q507 -1459 490 -1485Q470 -1514 439 -1513H389Q397 -1513 411 -1500Q427 -1484 427 -1466Q427 -1455 416 -1438Q403 -1418 386 -1418Q380 -1418 351 -1429.5Q322 -1441 314 -1443Q319 -1459 334.5 -1474Q350 -1489 356 -1503Q331 -1490 305 -1476Q271 -1456 271 -1437Q271 -1423 283 -1416.5Q295 -1410 309 -1404Q301 -1388 304 -1376Q357 -1364 365 -1364Q374 -1364 393.5 -1372Q413 -1380 419 -1380Q423 -1380 437 -1366Q410 -1285 410 -1276Q410 -1246 434 -1198Q455 -1216 489 -1243Q482 -1307 481 -1302Q484 -1325 496 -1376Q507 -1421 507 -1426ZM1369 -293V-403Q1372 -463 1330 -622Q1297 -631 1274 -672Q1227 -790 1181 -908Q1115 -1058 983 -1135Q955 -1153 901 -1187L646 -959Q695 -942 725 -873Q757 -801 795 -685Q850 -517 850 -440Q850 -402 838 -359Q823 -304 798 -293Q769 -280 695 -268Q770 -270 806 -262Q873 -247 927 -191H946Q934 -210 891 -248Q861 -275 861 -303Q861 -338 871 -393Q884 -458 901 -475Q918 -461 950 -437Q962 -474 974 -512Q990 -556 1014 -576ZM270 -1384V-1393L213 -1398V-1389ZM244 -1424Q244 -1428 244 -1443Q243 -1459 243 -1471Q205 -1451 193 -1443Q163 -1422 152 -1397Q163 -1410 196 -1416Q239 -1422 244 -1424ZM1268 -261V-339L1146 -448Q1137 -408 1140 -349Q1145 -259 1145 -261Q1173 -257 1206 -257Q1240 -257 1268 -261ZM839 -1233Q797 -1269 754 -1304Q680 -1364 665 -1364Q660 -1364 573 -1284Q476 -1193 438 -1167Q364 -1126 229 -1046Q126 -980 126 -689Q126 -587 151 -505Q169 -448 225 -330Q272 -400 317 -523Q349 -618 382 -712Q405 -785 449 -883Q521 -966 659 -1082Q749 -1157 839 -1233ZM882 -1201Q869 -1214 857 -1214Q758 -1132 659 -1050Q542 -953 477 -881Q441 -842 408 -736Q380 -647 353 -559Q310 -445 271 -361Q244 -302 244 -300Q244 -292 250.5 -285Q257 -278 257 -276Q385 -484 446 -702Q490 -858 502 -872Q569 -947 687 -1043Q785 -1122 882 -1201ZM812 -516Q775 -648 754 -709Q714 -829 669 -903Q678 -867 678 -830V-682Q678 -612 634 -424Q622 -371 602 -345Q601 -343 539 -284Q550 -273 550 -270Q514 -251 497 -207Q548 -243 628 -326Q636 -339 659 -417Q678 -480 707 -501Q722 -478 745 -458Q769 -479 812 -516ZM823 -424Q823 -464 816 -485Q778 -447 735 -421Q715 -451 702 -464Q682 -416 652 -325H806Q823 -376 823 -424ZM700 -302H663Q627 -307 604 -266H638Q646 -266 668 -281Q694 -300 700 -302ZM914 -8Q914 -46 864 -125Q836 -170 763 -199Q731 -212 700 -212Q677 -212 616 -186Q496 -135 496 -11Q496 82 562 140Q624 195 716 195Q758 195 762 194Q847 171 885 98Q899 71 905 27Q906 22 910 10.5Q914 -1 914 -8ZM973 -24Q973 -93 916 -165Q854 -244 775 -244Q583 -244 551 -226Q536 -208 513 -184Q452 -128 439 -81Q432 -56 432 -19Q432 105 562 213Q572 223 592 244V197Q537 170 501 99Q469 37 469 -14Q469 -99 538.5 -166Q608 -233 700 -233Q855 -233 921 -64Q941 -12 941 -11Q941 33 910 99Q874 174 829 191V233Q901 192 941 107Q973 38 973 -24ZM475 -193Q475 -200 471.5 -211.5Q468 -223 468 -228Q437 -210 437 -177Q437 -161 445 -153Q475 -183 475 -193ZM967 307V271H829V307ZM806 307V202L792 211V307ZM763 307V218Q760 218 750.5 220.5Q741 223 738 223V307ZM711 307V223H697V307ZM675 307V220L660 214V307ZM632 307V206L614 200V307ZM592 307V266H443V307Z"/>
</svg>