<svg xmlns="http://www.w3.org/2000/svg" viewBox="27 -1637 1822.9 1969.9">
	<path fill="currentColor" d="M1777 -48Q1777 -20 1748 -17L1500 -152Q1500 -161 1508 -129Q1548 -68 1588 -7Q1668 118 1668 140Q1668 162 1660.5 174.5Q1653 187 1587.5 220.5Q1522 254 1501 254Q1459 254 1446 237Q1343 102 1101 -213Q1095 -214 1083 -220Q1071 -118 1047 87L953 41Q933 120 928 163Q945 176 988 176Q995 176 1015.5 173.5Q1036 171 1043 171Q1064 171 1105.5 192.5Q1147 214 1147 231Q1147 254 1129 254Q1122 254 1112 249Q1102 244 1095 244Q1088 244 1083.5 249Q1079 254 1077 254L566 249Q559 249 511.5 254.5Q464 260 457 260Q422 260 314 248Q317 233 326 210Q369 171 449 171Q456 171 498.5 176Q541 181 548 181Q613 181 637 177Q673 -3 673 -63Q673 -157 627 -305Q589 -427 569 -479Q535 -571 494 -638Q453 -691 413 -745Q350 -833 350 -889Q350 -920 369 -968Q397 -1038 397 -1045Q397 -1063 383.5 -1087Q370 -1111 355 -1111Q348 -1111 299 -1103Q250 -1095 243 -1095Q207 -1095 159 -1119Q100 -1148 100 -1186Q100 -1204 220 -1271Q302 -1318 385 -1365Q408 -1502 450 -1564Q466 -1562 504 -1491Q521 -1500 544 -1563H562Q621 -1470 632 -1344Q670 -1323 710 -1252Q762 -1160 777 -1142Q792 -1124 832 -1101Q880 -1074 896 -1061Q992 -983 1111 -824Q1199 -701 1288 -578Q1348 -498 1407.5 -432.5Q1467 -367 1563 -278Q1598 -244 1662 -184Q1777 -84 1777 -48ZM496 -1454Q496 -1467 477 -1486Q468 -1449 454 -1385L462 -1371Q496 -1456 496 -1454ZM452 -1506Q448 -1495 428 -1448Q412 -1411 413 -1404V-1366Q446 -1459 452 -1506ZM1756 -50Q1725 -95 1629 -188Q1492 -321 1450 -365Q1329 -493 1051 -865Q962 -984 891 -1035Q856 -1057 797 -1096Q744 -1132 710 -1206.5Q676 -1281 633 -1313Q633 -1285 622 -1261Q614 -1261 605 -1270V-1312Q605 -1341 593 -1439Q578 -1410 573 -1360Q568 -1316 564 -1272H547Q537 -1299 537 -1316Q537 -1323 553 -1390.5Q569 -1458 569 -1465Q569 -1463 551 -1517Q491 -1367 491 -1358Q491 -1349 501 -1312Q492 -1303 484 -1303Q475 -1315 466 -1339Q464 -1345 446 -1345Q397 -1345 277 -1277Q184 -1225 126 -1180Q138 -1180 159 -1189Q170 -1170 163 -1158H181Q217 -1165 265 -1173H309Q309 -1160 313 -1156Q267 -1145 183 -1134Q206 -1122 238 -1122Q247 -1122 319 -1131Q365 -1137 388 -1125Q418 -1108 418 -1053Q418 -1045 397 -971Q376 -897 376 -892Q376 -837 463 -725Q528 -642 593 -560Q664 -451 747 -299Q802 -208 857 -116Q876 -78 876 30Q876 165 820 186Q794 196 675 199Q663 207 663 223H1068L1063 203Q1035 203 1018 203Q1000 202 999 202Q965 202 921 191Q914 187 902 179L932 4L1026 51L1057 -246H1076Q1107 -246 1171 -166Q1204 -121 1237 -75Q1269 -34 1326 40Q1374 104 1476 227Q1480 228 1499 228Q1522 228 1577 203Q1628 179 1635 168.5Q1642 158 1642 140Q1642 118 1543 -34Q1447 -181 1432 -191Q1326 -261 1161 -352Q1023 -428 885 -504Q776 -565 668 -626Q541 -699 486 -745Q418 -802 418 -905Q418 -997 494 -1046Q555 -1085 642 -1085Q672 -1085 679 -1081V-1068Q559 -1054 521 -1036Q444 -1001 444 -907Q444 -766 659 -661Q662 -660 987 -473L1508 -174Q1741 -43 1744 -43Q1756 -43 1756 -50ZM840 -95L570 -553Q611 -429 652 -304Q694 -163 694 -61Q694 48 658 181Q690 170 708 171Q708 171 722 93Q731 46 749 20Q799 40 823 46Q829 -2 840 -95ZM847 62Q847 72 842 77Q802 61 757 52Q748 113 731 171H763Q848 172 848 83Q848 73 847 62ZM642 224L639 216L627 222V230ZM527 210L504 208Q483 208 470 233Q485 228 516 228Q516 210 527 210ZM444 224L441 216L429 222V230ZM415 200Q401 203 387.5 207Q374 211 371 228H396Q410 200 415 200ZM475 -1260Q475 -1257 472 -1251Q469 -1245 469 -1242Q467 -1242 462.5 -1244Q458 -1246 451 -1246Q445 -1246 431 -1235.5Q417 -1225 410 -1225Q387 -1246 372 -1241Q372 -1253 366 -1259Q371 -1262 391 -1282Q407 -1298 415 -1298Q428 -1298 443 -1285Q462 -1266 475 -1260ZM432 -1266Q432 -1273 425 -1273Q417 -1273 417 -1266Q417 -1258 425 -1258Q432 -1258 432 -1266Z"/>
</svg>