<svg xmlns="http://www.w3.org/2000/svg" viewBox="14.9 -1599.1 2298.2 2034.2">
	<path fill="currentColor" d="M2228 278L2209 338Q2180 338 2123 282Q2084 241 2046 200L1872 20Q2087 314 2085 346Q2041 350 2015 350Q2007 350 2007 350Q1883 332 1837 320Q1746 297 1681 248L1501 -64L1392 -133L1421 84L1409 94Q1310 6 1230 -15L1245 223Q1245 230 1263 237Q1280 235 1280 235Q1354 235 1427 256Q1524 283 1542 334L1536 346Q1313 342 854 342V336L833 340V346Q798 346 727.5 344Q657 342 622 342Q558 342 525 344Q520 344 506 346Q492 348 485 348Q471 348 431 344Q387 339 374 338L368 323Q406 293 428 284Q433 284 497 274L755 235Q778 217 799 104Q817 7 817 -45Q817 -56 802 -330Q798 -330 790 -331Q782 -332 778 -332Q770 -332 692 -309Q547 -266 452 -266Q372 -266 249 -319Q110 -380 102 -445Q100 -461 100 -488Q120 -495 157 -502L180 -492L362 -1133L379 -1135L567 -529Q587 -533 598 -533Q625 -533 753 -486Q762 -492 776 -492Q760 -594 731 -625Q585 -781 546 -843Q471 -963 471 -1118Q471 -1262 542 -1514H929Q995 -1376 995 -1182L1126 -1112Q1257 -1042 1397 -886Q1473 -801 1618 -606Q1650 -563 1691 -518Q1732 -513 1839 -504L1884 -1100H2101L2150 -330H1802Q1914 -179 2132 127Q2138 135 2228 278ZM1644 -527Q1519 -703 1465 -772Q1341 -931 1263 -987Q1225 -1014 1120 -1014Q1025 -1014 992 -1008Q932 -997 878 -953L848 -877L872 -770Q908 -723 998 -651Q1082 -583 1140 -549H1163Q1248 -549 1404 -539Q1570 -528 1644 -527ZM1210 -1032L970 -1168Q970 -1359 913 -1489H563Q495 -1260 495 -1118Q495 -961 575 -839Q618 -773 770 -621Q807 -585 880 -512Q1022 -537 1097 -545Q951 -638 848 -758L823 -881L858 -969Q917 -1016 985 -1030Q1029 -1039 1126 -1039Q1119 -1039 1210 -1032ZM2203 282Q2116 143 1771 -330H1437Q1504 -286 1638 -197Q1739 -129 1745 -125Q1806 -81 1843 -43Q1957 80 2197 311ZM2125 -355L2076 -1075H1908L1863 -475Q1541 -518 1202 -524H1204Q1202 -527 1200 -527Q1127 -527 876 -484Q833 -477 747 -461Q630 -506 596 -506Q582 -506 573 -504Q577 -455 620 -412V-404Q552 -363 440 -363Q375 -363 290 -403Q221 -440 151 -477L125 -469Q129 -430 151 -410Q201 -366 295 -328.5Q389 -291 454 -291Q580 -291 747 -355ZM2054 323Q1956 183 1798 -35Q1750 -101 1392 -330H1020Q1067 -258 1101 -69Q1128 79 1134 211L1101 264L897 280Q881 281 882 317L1466 313Q1466 285 1386 270Q1331 260 1280 260Q1275 262 1263 262Q1236 262 1220 231L1208 -37L1214 -45Q1296 -20 1396 49L1364 -156L1378 -172L1521 -80L1702 231Q1749 265 1849 296Q1946 325 2007 325Q2037 325 2054 323ZM850 -506L778 -578Q784 -560 800 -498ZM575 -410L368 -1080L202 -479Q228 -462 295 -426L360 -676Q368 -676 383 -680L469 -389Q523 -389 575 -410ZM1110 200Q1110 186 1104 148Q1099 115 1101 96Q1035 19 940 -21L907 254L1085 239Q1110 218 1110 200ZM442 -387L372 -625L317 -416Q371 -387 442 -387ZM1097 57Q1058 -230 989 -330H829Q842 -63 842 -52Q842 23 825 113Q804 230 768 260L563 291L557 317H684L737 276L882 258L921 -47L929 -53Q1036 -12 1097 57ZM850 287L749 301L747 321H805ZM534 303Q513 303 501 319L530 317ZM487 301L438 307L436 317H475Q479 303 487 301ZM931 -1350L909 -1338L864 -1415L817 -1346L796 -1360L864 -1465ZM903 -1260Q895 -1211 856 -1211Q839 -1211 823 -1229Q807 -1247 807 -1264Q836 -1313 850 -1311L854 -1313H856Q870 -1313 903 -1260ZM682 -1368L659 -1354L618 -1422L571 -1350L551 -1364L618 -1467ZM792 -1297L741 -1086Q726 -1086 718 -1084L678 -1301L702 -1305L731 -1151L768 -1301ZM675 -1270Q675 -1219 624 -1219L622 -1213Q575 -1229 575 -1262Q575 -1282 593.5 -1302.5Q612 -1323 632 -1327Q655 -1312 675 -1272ZM876 -1260Q868 -1270 852 -1286Q846 -1277 833 -1262Q833 -1235 852 -1235Q856 -1235 872 -1243V-1242Q873 -1242 873 -1243V-1246ZM651 -1270Q651 -1276 628 -1299Q622 -1299 612 -1284.5Q602 -1270 602 -1264Q602 -1251 620 -1241H622Q651 -1241 651 -1270Z"/>
</svg>