<svg xmlns="http://www.w3.org/2000/svg" viewBox="22.5 -1633.5 1610 2092">
	<path fill="currentColor" d="M1555 -699Q1544 -691 1494 -678Q1501 -664 1522 -664Q1519 -652 1528 -633Q1510 -611 1458 -595Q1414 -582 1381 -582Q1374 -582 1277.5 -598.5Q1181 -615 1174 -615Q1172 -615 1119 -607Q1066 -599 1040 -599L1024 -264Q1024 -223 1025 -221Q1040 -191 1042 -188Q1054 -168 1072 -162Q1094 -154 1132 -157Q1201 -161 1195 -161Q1201 -142 1201 -91L1194 -84H1037V381Q1011 380 964 380Q968 306 959 297Q885 217 763 104Q571 -74 561 -84H195V-160Q236 -151 283 -160Q286 -183 273 -233Q255 -303 251 -333Q214 -328 158 -300Q152 -308 139 -348Q156 -356 189 -375Q185 -381 138 -419Q100 -450 100 -479Q100 -514 134 -548Q168 -582 197 -582Q228 -582 263 -555Q298 -528 298 -498Q298 -485 289 -457Q280 -429 280 -421Q280 -410 291 -410Q298 -410 312 -417Q330 -425 336 -427Q347 -406 349 -384Q324 -373 277 -346Q304 -284 364 -161H418Q439 -197 517 -202Q611 -209 644 -229Q652 -234 696 -345Q742 -460 742 -488Q742 -506 724 -576Q702 -662 679 -699Q667 -719 561 -772Q514 -795 458 -857.5Q402 -920 389.5 -959Q377 -998 377 -1030Q377 -1074 403 -1109Q442 -1160 480 -1211Q506 -1256 554 -1337Q541 -1345 518 -1345Q471 -1345 410 -1310Q353 -1276 315 -1230Q292 -1193 247 -1125Q239 -1113 216 -1113Q208 -1113 199.5 -1116Q191 -1119 189 -1119V-1170Q189 -1182 207 -1226Q228 -1276 251 -1306Q281 -1346 340 -1383Q387 -1412 433 -1440Q460 -1468 516 -1520Q561 -1556 604 -1556Q649 -1556 686 -1516Q720 -1479 720 -1442Q720 -1386 660 -1281Q618 -1209 576 -1137Q576 -1124 593 -1124Q600 -1124 640 -1135Q680 -1146 687 -1146Q694 -1146 708 -1141.5Q722 -1137 728 -1137Q828 -1132 978 -1054Q1013 -1035 1222 -909Q1292 -864 1362 -820Q1467 -755 1555 -719ZM1506 -705Q1439 -741 1294 -832Q1056 -981 1010 -1007Q806 -1119 698 -1119Q691 -1119 641 -1105Q591 -1091 584 -1091Q571 -1091 559.5 -1106.5Q548 -1122 548 -1135Q548 -1142 597 -1231Q654 -1335 671 -1375Q698 -1437 698 -1445Q698 -1471 668 -1499.5Q638 -1528 606 -1528Q579 -1528 540 -1509Q492 -1486 492 -1458Q492 -1453 494 -1448Q487 -1420 487 -1423Q487 -1392 521 -1377Q552 -1365 582 -1353V-1338Q532 -1248 491 -1189Q460 -1148 430 -1107Q399 -1062 399 -1033Q399 -925 544 -819Q652 -752 760 -685Q905 -584 945 -533Q973 -499 980 -385Q985 -309 985 -233Q985 -189 921 -180Q872 -178 822 -177Q810 -177 803 -175L966 -161Q984 -168 1019 -180Q1010 -189 996 -204V-380Q996 -387 1007.5 -460Q1019 -533 1019 -540Q1019 -547 1005 -592.5Q991 -638 991 -645Q991 -652 998 -655Q1009 -658 1010 -659Q1012 -657 1025 -627Q1030 -627 1042 -624Q1054 -621 1060 -621Q1067 -621 1124 -629Q1181 -637 1187 -637Q1194 -637 1284 -620.5Q1374 -604 1381 -604Q1424 -604 1495 -643Q1385 -697 1233 -731Q1221 -733 1005 -773Q726 -824 586 -939Q521 -992 521 -1030Q521 -1057 541 -1067Q567 -1070 613 -1081Q689 -1108 678 -1108Q686 -1108 688.5 -1099Q691 -1090 692 -1089Q640 -1075 548 -1028Q570 -985 594 -966Q851 -770 1506 -705ZM482 -1377Q449 -1378 389 -1337.5Q329 -1297 295 -1252Q365 -1310 392 -1327Q429 -1345 482 -1377ZM465 -1414Q459 -1420 458 -1428Q215 -1288 219 -1163Q232 -1236 317 -1314Q384 -1375 465 -1414ZM958 -229Q955 -323 952 -416Q936 -531 860 -571Q850 -533 834 -475Q830 -464 772 -344Q720 -238 720 -214Q720 -180 757 -161Q787 -207 845 -207Q852 -207 865 -207Q879 -206 886 -206Q930 -206 958 -229ZM842 -596Q799 -633 715 -681L770 -485Q746 -410 721 -335Q683 -238 621 -190Q617 -187 573 -181Q541 -178 482 -169L657 -161Q685 -189 688 -189Q698 -168 714 -162Q692 -198 692 -208Q692 -233 760 -390Q778 -416 806 -467Q817 -514 842 -596ZM1009 352V-82H989V352ZM1178 -111Q1178 -115 1175.5 -122.5Q1173 -130 1173 -133H223V-111ZM962 198V-82H676ZM962 259V239L635 -83H604ZM249 -474Q249 -490 227 -508Q205 -526 189 -526Q161 -526 161 -496Q161 -446 237 -394Q249 -454 249 -474ZM160 -433Q137 -478 129 -499V-469Q127 -449 160 -433ZM323 -168L311 -216H303L315 -168ZM592 -1440Q578 -1428 565 -1428Q537 -1428 537 -1453Q537 -1489 565 -1489Q573 -1489 592 -1472Z"/>
</svg>