<svg xmlns="http://www.w3.org/2000/svg" viewBox="20.6 -1668.4 1372.7 2142.7">
	<path fill="currentColor" d="M1314 395Q1293 393 1256 385Q1252 363 1219 337Q1191 315 1163 294Q975 136 964 136H108Q108 109 108 73H207Q210 76 210 66Q210 68 182 -31Q100 -321 100 -363Q100 -390 135 -419Q167 -446 185 -446Q208 -446 234.5 -422Q261 -398 261 -378Q261 -360 215 -320L359 -78Q328 -58 297 -37Q249 -4 249 24Q249 72 287 72Q308 72 313 62.5Q318 53 326 49Q353 38 404 30Q467 21 485 16Q503 11 545.5 -84.5Q588 -180 588 -216Q588 -242 566.5 -319Q545 -396 537 -404Q497 -430 419 -481Q312 -553 284 -634Q270 -674 270 -701Q270 -747 349 -856Q426 -962 423 -973Q416 -977 395 -977Q331 -977 259 -917Q187 -857 157 -782Q129 -769 131 -769H109Q104 -778 104 -801Q104 -927 318 -1054Q332 -1062 365 -1112Q376 -1129 440 -1162Q441 -1169 437 -1171Q402 -1178 368 -1185Q308 -1200 308 -1226V-1257Q310 -1257 313.5 -1259Q317 -1261 323 -1261Q324 -1261 344.5 -1244Q365 -1227 382 -1227Q394 -1227 400 -1235Q402 -1258 411 -1302Q423 -1342 444 -1374Q435 -1388 426 -1393Q423 -1395 423 -1410Q423 -1453 459 -1453Q465 -1453 469.5 -1450.5Q474 -1448 475 -1448Q473 -1461 485 -1477Q473 -1498 473 -1519Q473 -1549 498.5 -1569Q524 -1589 557 -1589Q585 -1589 608 -1565Q631 -1541 631 -1518Q631 -1471 564 -1445Q562 -1444 566 -1436Q578 -1444 611 -1461Q621 -1461 628 -1442Q624 -1427 623 -1431Q652 -1398 652 -1389Q652 -1375 638 -1362.5Q624 -1350 618 -1351V-1335Q618 -1331 625 -1309Q632 -1287 634 -1277Q636 -1269 631.5 -1247Q627 -1225 627 -1222V-1201Q630 -1198 635 -1198Q678 -1198 687 -1227Q688 -1227 697 -1225Q706 -1223 711 -1223Q711 -1222 713.5 -1214Q716 -1206 716 -1200Q716 -1151 637 -1151Q633 -1151 608.5 -1155Q584 -1159 578 -1159Q555 -1159 542 -1136Q576 -1095 576 -1066Q576 -1047 543 -978Q507 -902 448 -792Q454 -786 463 -786Q468 -786 508.5 -794.5Q549 -803 554 -803Q658 -803 812 -716Q839 -701 1076 -546Q1229 -446 1310 -428V-404Q1299 -398 1260 -388Q1289 -373 1289 -355Q1289 -334 1224 -314Q1171 -297 1151 -297Q1135 -297 1079.5 -314Q1024 -331 979 -331Q976 -331 856 -319Q858 -280 849 -159Q846 -102 839 15Q882 55 882 65Q883 67 889 73H1314ZM605 -1514Q605 -1528 586.5 -1545.5Q568 -1563 550 -1563Q534 -1563 518 -1551Q499 -1538 499 -1521Q499 -1506 518.5 -1490Q538 -1474 557 -1474Q605 -1474 605 -1514ZM522 -1456L515 -1462L511 -1458L517 -1452ZM622 -1391L613 -1402Q571 -1398 571 -1363Q571 -1348 578 -1316.5Q585 -1285 585 -1268Q585 -1253 582.5 -1240Q580 -1227 572 -1207H596Q605 -1224 605 -1250Q605 -1268 599 -1304Q593 -1340 593 -1355Q593 -1368 596 -1377Q606 -1377 622 -1391ZM557 -1289Q556 -1302 551 -1335Q547 -1363 547 -1374Q547 -1380 550 -1393Q553 -1406 553 -1410H526Q474 -1281 474 -1236Q474 -1215 502 -1194Q512 -1207 531.5 -1212Q551 -1217 554 -1220Q556 -1303 557 -1289ZM491 -1395Q491 -1411 476 -1418H453Q455 -1412 466.5 -1400.5Q478 -1389 478 -1383Q478 -1379 466 -1359Q452 -1336 449 -1328Q431 -1281 431 -1253Q431 -1239 440 -1228Q447 -1255 471 -1328Q491 -1390 491 -1395ZM1260 -418Q1107 -498 970 -587Q684 -773 546 -773Q541 -773 498 -762.5Q455 -752 450 -752Q444 -752 433.5 -767.5Q423 -783 423 -790Q423 -795 463 -871Q512 -962 527 -995Q546 -1037 546 -1066Q546 -1134 472 -1134Q444 -1134 415 -1119Q382 -1103 377 -1082Q372 -1061 372 -1041Q372 -1029 377 -1024Q382 -1015 422 -1001Q457 -989 457 -975Q457 -960 390 -865Q349 -808 309 -751Q295 -730 295 -703Q295 -617 399 -533Q488 -473 577 -413Q636 -374 695 -336Q769 -282 791 -235Q801 -214 801 -89Q806 21 789 38Q725 47 656 64Q704 60 735 60Q740 60 768 64Q796 68 801 68Q819 68 831 44Q812 32 814 7L835 -267Q835 -273 822 -314.5Q809 -356 809 -361Q809 -367 811 -368Q813 -369 813 -370Q817 -370 821 -372Q825 -374 831 -374Q837 -374 840 -365Q844 -350 844 -350Q878 -348 877 -348Q882 -348 986 -361L1151 -323Q1191 -332 1247 -359Q1226 -370 1190 -385Q916 -440 838 -460Q652 -509 507 -583Q472 -601 435 -633Q418 -647 393 -698Q403 -709 422 -725Q504 -769 535 -769Q541 -769 543.5 -767Q546 -765 547 -765Q547 -753 550 -750Q529 -742 486.5 -722.5Q444 -703 423 -695Q443 -655 462 -643Q778 -440 1260 -418ZM364 -1004Q336 -1004 284.5 -970Q233 -936 204 -897Q263 -946 287 -961Q318 -977 364 -1004ZM350 -1036Q345 -1041 344 -1048Q135 -928 139 -820Q150 -883 223 -950Q281 -1003 350 -1036ZM1293 363V99H1275V358ZM1250 293V137H1060ZM1250 335V323L1017 135L1013 140ZM775 12V-185Q775 -224 700 -297Q691 -265 672 -207Q644 -149 617 -91Q576 -3 576 21Q576 48 599 72Q624 36 680 27Q771 13 775 12ZM682 -317Q680 -319 572 -386Q618 -242 618 -223Q618 -200 564 -75Q554 -45 544 -15Q527 26 500 38Q481 47 402 58Q476 58 516 68Q510 43 550 37Q548 31 548 24Q548 -6 578 -68Q603 -119 629 -171Q646 -223 682 -317ZM1250 110V99H130V110ZM325 -82L172 -333Q194 -344 217 -356Q232 -365 232 -382Q232 -393 214 -404.5Q196 -416 181 -416Q146 -416 130 -365L221 9Q259 -64 325 -82ZM401 66V58H385V66ZM465 -1075Q465 -1049 442 -1049Q440 -1049 410 -1062V-1091Q423 -1104 440 -1104Q463 -1104 465 -1075Z"/>
</svg>