<svg xmlns="http://www.w3.org/2000/svg" viewBox="26.1 -1594.9 1604.8 1994.8">
	<path fill="currentColor" d="M1557 59Q1541 94 1522 94Q1489 94 1443 75Q1394 55 1346 34H1340L1441 165L1200 315L921 -118Q900 8 891 178Q886 176 790 130Q775 183 775 238Q820 245 865 253Q924 263 950 307Q950 326 937 326Q930 326 842 320.5Q754 315 747 315L275 325Q276 319 264 296Q308 263 327 263Q333 263 333 264Q333 265 333.5 266.5Q334 268 340 268Q329 268 518 235Q549 173 549 96Q549 35 512 -76Q481 -172 445 -240Q393 -327 342 -413Q253 -573 253 -645Q253 -651 266 -698Q279 -745 279 -748Q279 -772 245 -772Q220 -772 178 -688Q147 -694 121 -711Q195 -785 195 -801Q195 -808 174 -846Q153 -884 153 -891Q153 -900 179 -966Q210 -1042 234 -1082Q235 -1083 296 -1129V-1185Q218 -1234 168 -1339Q134 -1419 100 -1499Q102 -1499 107.5 -1502.5Q113 -1506 121 -1506Q141 -1506 183 -1439Q206 -1398 229 -1358Q264 -1463 366 -1463Q447 -1463 498 -1374Q528 -1426 614 -1521Q617 -1518 623.5 -1515Q630 -1512 633 -1509Q611 -1471 571 -1396Q556 -1352 525 -1265Q513 -1233 438 -1186Q445 -1179 464 -1171Q456 -1157 443 -1128Q453 -1121 479 -1102Q524 -1068 536 -1029Q538 -992 560 -924Q622 -867 710 -771Q725 -744 755 -702Q833 -633 986 -495Q1127 -352 1413 -71Q1461 -30 1557 59ZM547 -1405Q533 -1367 518 -1329Q499 -1281 480 -1262Q468 -1250 422 -1223Q388 -1204 386 -1187Q406 -1197 450 -1219Q517 -1252 547 -1405ZM480 -1339Q480 -1437 366 -1437Q321 -1437 289 -1412Q253 -1385 253 -1339Q253 -1300 291 -1269Q327 -1242 364 -1242Q419 -1242 472 -1290Q480 -1297 480 -1339ZM358 -1187Q355 -1204 318 -1223Q271 -1249 257 -1262Q234 -1283 211 -1331Q178 -1400 175 -1405Q202 -1326 212 -1306Q244 -1241 291 -1219Q314 -1206 358 -1187ZM426 -1156H312Q312 -1153 315 -1143.5Q318 -1134 318 -1131Q338 -1141 356 -1141Q358 -1141 375.5 -1139Q393 -1137 421 -1137Q421 -1140 423.5 -1146.5Q426 -1153 426 -1156ZM728 -690Q721 -714 704 -734Q634 -808 534 -919Q528 -927 529 -942Q531 -963 531 -965Q527 -997 509 -1029Q462 -1115 359 -1115Q260 -1115 217 -995Q364 -997 392 -981Q426 -962 426 -924Q426 -909 418 -874Q410 -844 413 -832Q424 -787 532 -733Q636 -682 702 -682Q721 -682 728 -690ZM1525 66Q1349 -92 1012 -426Q769 -666 747 -666Q740 -666 730 -661Q720 -656 715 -656Q710 -656 645 -677Q580 -698 541 -698Q493 -698 443 -672Q380 -639 380 -585Q380 -510 413 -472Q510 -359 566 -335Q1489 67 1507 66ZM1404 160Q1377 117 1350 74Q1316 22 1281 1Q1210 -43 1102 -85Q1018 -116 935 -148L1205 284ZM897 -99V-169Q879 -175 848 -187Q758 -225 667 -264Q531 -324 459 -386Q359 -472 359 -577Q359 -637 391 -666Q421 -692 506 -716Q409 -775 397 -812Q390 -833 394 -867Q399 -917 399 -917Q399 -931 386 -949Q373 -967 361 -967H217Q195 -912 179 -885Q217 -861 217 -799Q311 -795 311 -748Q311 -741 292.5 -698.5Q274 -656 274 -651Q274 -567 368 -425Q378 -403 397 -372Q501 -247 556 -177Q667 -36 711 40Q723 61 723 104Q723 202 687 262Q649 269 586 298L720 289Q714 289 773 291Q828 294 876 293Q863 278 816 274.5Q769 271 749 254Q749 230 766 108Q770 106 779 99Q839 129 869 141ZM701 120V90Q701 56 608 -69Q553 -141 497 -212Q575 14 575 96Q575 157 536 253Q533 258 528 261H543Q578 261 596 198Q610 145 623 92Q630 83 635 83Q661 102 701 120ZM696 148Q663 126 645 120Q628 164 607 251H626Q643 248 673 239Q682 207 696 148ZM560 289L555 282L537 294L541 301ZM459 275Q431 278 417 285Q417 299 425 299Q440 289 459 275ZM389 296V287H375V296ZM273 -894Q249 -900 216 -911Q231 -925 239 -941Q261 -930 273 -930Z"/>
</svg>