<svg xmlns="http://www.w3.org/2000/svg" viewBox="0 -2048 2048 2048">
	<path fill="currentColor" d="M1932 -350H1461Q1508 -260 1555 -170Q1610 -67 1661 -7Q1702 41 1784 95Q1909 178 1922 188Q1904 217 1849 217Q1807 217 1764 200Q1768 216 1768 235Q1768 253 1764 269Q1742 271 1675 281Q1614 290 1608 290Q1567 290 1551 272Q1481 187 1410 101Q1295 -35 1208 -108Q1195 -57 1160 43Q1157 50 1042 208Q1066 218 1130 230Q1166 236 1178 266V295Q1161 286 1139 289Q1096 295 1076 295L540 301Q533 301 514 298Q495 295 489 295H473Q461 283 461 277Q461 242 652 205Q688 200 761 174Q792 156 849 43.5Q906 -69 906 -110Q906 -153 873 -283Q870 -296 846.5 -322.5Q823 -349 814 -349H522Q516 -349 479 -338Q438 -326 418 -323Q414 -319 414 -312Q414 -310 460 -187Q449 -188 405 -181Q373 -271 352 -310Q245 -317 200 -347Q147 -381 147 -464Q147 -512 178 -535Q157 -548 136 -560Q106 -579 100 -602V-620Q101 -626 113 -626Q119 -626 152 -615.5Q185 -605 192 -605H248Q252 -609 252 -616Q252 -608 213 -722Q115 -1007 115 -1053Q115 -1101 158 -1138Q197 -1171 238 -1171Q294 -1171 335.5 -1125.5Q377 -1080 377 -1024Q377 -1002 366 -963Q351 -914 333 -914Q330 -914 300 -931Q305 -977 305 -997Q305 -1097 246 -1097Q221 -1097 197 -1080Q173 -1063 173 -1045Q173 -1030 192 -970Q251 -783 319 -611Q360 -606 444 -582Q463 -574 504 -542Q537 -516 553 -516Q558 -516 600 -524Q647 -534 672 -537L681 -545Q648 -574 600 -688Q550 -806 550 -862Q550 -891 579 -944Q603 -989 627 -1033Q644 -1070 644 -1084Q644 -1121 615 -1132Q567 -1150 466 -1150Q427 -1150 389 -1134Q389 -1146 378 -1146Q401 -1205 443 -1225Q468 -1237 525 -1242Q579 -1246 604 -1261Q635 -1284 692 -1315Q650 -1493 650 -1485Q650 -1532 702 -1532Q742 -1532 750 -1420Q752 -1394 762 -1333Q764 -1347 764 -1371V-1407Q764 -1457 771 -1483Q783 -1527 814 -1527Q838 -1527 853 -1491Q864 -1463 864 -1435Q864 -1398 850 -1359.5Q836 -1321 822 -1284Q846 -1276 867 -1225Q885 -1180 885 -1147Q885 -1117 856 -1055.5Q827 -994 806 -973V-960Q848 -946 931 -917Q1096 -855 1197 -719Q1221 -680 1246 -642Q1277 -594 1308 -580Q1358 -575 1454 -561Q1542 -544 1635 -521L1692 -1050H1900ZM843 -1443Q843 -1446 836 -1483Q825 -1500 813 -1500Q779 -1467 789 -1382Q795 -1335 783 -1302L791 -1296Q843 -1358 843 -1443ZM733 -1312V-1420Q735 -1453 700 -1511Q676 -1502 676 -1477Q676 -1485 714 -1324Q718 -1319 733 -1312ZM1262 -585Q1142 -761 1057 -828Q993 -878 841 -923Q821 -926 801 -929Q780 -936 780 -969Q780 -976 807 -1019Q838 -1071 846 -1088Q859 -1117 859 -1150Q859 -1215 817.5 -1253Q776 -1291 707 -1291Q673 -1291 642 -1267Q608 -1240 608 -1202Q608 -1185 631 -1156Q662 -1118 664 -1114Q670 -1103 670 -1090Q670 -1083 637 -1015Q595 -929 583 -902Q576 -886 576 -864Q576 -854 583 -812Q602 -697 674 -596Q685 -578 696 -560Q704 -548 723 -548Q737 -548 744 -555Q655 -681 655 -762Q655 -857 820 -857Q847 -857 854 -853V-835Q804 -829 754 -823Q681 -806 681 -760Q681 -663 772 -558Q1045 -589 1136 -589Q1240 -589 1262 -585ZM591 -1166Q591 -1171 585 -1181Q545 -1173 511 -1173Q506 -1173 529 -1169.5Q552 -1166 591 -1166ZM586 -1203V-1228H553Q519 -1229 458 -1210Q435 -1203 420 -1177Q494 -1212 586 -1203ZM1905 -375L1879 -1023H1713L1651 -495H1637Q1370 -569 1110 -569Q968 -569 759 -529.5Q550 -490 547 -490Q525 -490 471 -533.5Q417 -577 385 -582Q372 -584 309 -584Q302 -584 264.5 -581.5Q227 -579 220 -579Q213 -579 182 -584Q148 -590 137 -591Q176 -557 244 -552Q332 -546 351 -539V-525L348 -521L236 -527Q173 -527 173 -461Q173 -338 325 -338Q384 -338 459 -356.5Q534 -375 548 -375ZM1890 185Q1818 146 1691 59Q1607 -16 1539 -140Q1483 -244 1428 -348H1016Q1208 -209 1242 -175Q1362 -56 1533 58Q1741 196 1851 196Q1877 196 1890 185ZM1749 242Q1735 199 1716 188Q1683 174 1627 148Q1542 106 1460 43Q1377 -28 1214 -163Q1132 -225 972 -348H854L983 -260Q983 -273 1002 -281Q1121 -86 1121 -16Q1121 6 1051 109Q991 199 970 221Q936 222 870 228Q871 249 866 254Q824 255 801 267Q833 267 899.5 265.5Q966 264 964 264Q971 264 1029.5 269Q1088 274 1095 274Q1112 274 1120 255Q1088 248 1055 242Q1017 231 1011 210Q1116 83 1150 16Q1159 -3 1174 -84Q1186 -150 1202 -155Q1208 -143 1221 -125Q1366 0 1465 127Q1501 176 1567 257Q1574 264 1605 264Q1650 264 1749 242ZM351 -1019Q351 -1067 322 -1104Q289 -1145 236 -1145Q197 -1145 169.5 -1117.5Q142 -1090 142 -1053Q142 -1009 212 -811Q248 -710 285 -610L147 -1053Q149 -1078 186 -1103.5Q223 -1129 246 -1129Q330 -1129 330 -997Q330 -936 329 -946Q351 -959 351 -1019ZM1095 -21Q1095 -31 1051 -134Q1023 -112 1006 -70Q979 -7 973 3Q924 76 844 206H887Q916 208 962 194Q969 192 1032 93.5Q1095 -5 1095 -21ZM1037 -163Q1037 -190 902 -280Q932 -160 932 -113Q932 -45 853 84Q768 223 703 217V243Q719 233 752 219Q786 211 809 210Q829 176 870 116Q941 21 1007 -114Q1009 -119 1025 -140Q1037 -157 1037 -163ZM395 -292L389 -316H380L386 -292ZM415 -234L399 -290H391L407 -234ZM427 -208L420 -233H412L417 -208ZM694 245Q626 255 592 264Q623 264 678 262Q692 244 694 245ZM733 -1228Q733 -1209 721 -1197H676Q676 -1209 665 -1242Q701 -1260 710 -1260Q733 -1260 733 -1228Z"/>
</svg>