<svg xmlns="http://www.w3.org/2000/svg" viewBox="0 -2048 2048 2048">
	<path fill="currentColor" d="M1917 -248H1611Q1654 -187 1706 -69Q1767 71 1767 141Q1767 199 1712 241Q1662 279 1596 286L1003 192Q1008 203 1041 211Q1079 220 1086 226Q1087 227 1118 273Q1112 281 1112 286H1094L780 247L380 284Q388 281 423 249Q519 163 655 136Q771 122 887 109L1448 188H1565L990 -249H674Q634 -235 595 -220Q505 -192 422 -192Q247 -192 117 -317Q100 -333 100 -378Q135 -400 146 -400Q141 -400 253.5 -350.5Q366 -301 437 -301Q502 -301 541 -320Q534 -337 515 -337Q509 -337 465.5 -332Q422 -327 416 -327Q387 -327 308 -370Q316 -398 341 -431Q376 -414 406 -405L544 -426Q570 -420 629 -396Q684 -374 689 -374Q703 -374 811 -398Q468 -641 468 -831Q468 -871 500 -957Q403 -1019 331 -1133Q261 -1244 261 -1330Q261 -1397 305 -1397Q322 -1397 331 -1389Q362 -1309 393 -1228Q433 -1133 519 -1057Q558 -1023 565 -1023Q571 -1023 585 -1033Q603 -1044 610 -1047Q663 -1067 699 -1066Q759 -1140 759 -1275Q759 -1281 743.5 -1371.5Q728 -1462 728 -1468Q728 -1532 772 -1532Q815 -1532 842 -1436Q863 -1364 863 -1312Q863 -1261 840 -1180Q817 -1099 791 -1057Q789 -1054 794 -1050Q850 -1032 936 -975Q1011 -923 1086 -870Q1206 -787 1327 -641Q1419 -526 1511 -411Q1560 -405 1620 -399H1638L1685 -929H1876ZM843 -1301Q843 -1352 809 -1463Q799 -1495 773 -1512Q767 -1510 758 -1493.5Q749 -1477 749 -1473Q749 -1467 762 -1410Q776 -1346 780 -1322Q780 -1322 780 -1273Q780 -1178 734 -1066Q755 -1069 762 -1060Q786 -1082 815 -1173Q843 -1260 843 -1301ZM1471 -417Q1363 -578 1189 -742Q1022 -900 872 -990Q782 -1044 720 -1044Q656 -1044 595 -1013Q520 -976 506 -912Q489 -833 489 -831Q489 -705 750 -471Q829 -400 861 -400Q858 -400 963 -418Q1068 -436 1206 -436Q1316 -436 1471 -417ZM541 -1011Q431 -1072 381 -1198Q362 -1252 343 -1306Q321 -1368 304 -1376Q287 -1349 287 -1325Q287 -1281 309 -1228Q362 -1101 459 -1017Q500 -982 513 -982Q528 -982 541 -1011ZM1897 -275L1855 -908H1706L1664 -379H1599Q1547 -385 1443 -398Q1343 -410 1227 -410Q1105 -410 944 -388Q814 -368 684 -348L552 -405Q463 -384 419 -384Q375 -384 345 -399Q345 -374 345 -374Q385 -353 437 -353Q444 -353 477 -355.5Q510 -358 515 -358Q549 -358 550 -356Q559 -330 567 -304Q490 -275 429 -275Q383 -275 378 -276Q335 -284 285 -307Q268 -315 202 -350Q148 -379 141 -379Q133 -379 126 -372V-355Q145 -306 252 -258Q352 -213 422 -213Q498 -213 622 -250Q645 -262 679 -275ZM1741 141Q1741 -13 1579 -248H1045L1606 196Q1597 213 1531 213Q1426 213 1157.5 171.5Q889 130 884 130Q790 130 674 157Q550 185 495 225V249H522Q529 249 640 239Q751 229 757 229L1029 249Q1018 222 1012 221Q937 207 790 178V161H938L1575 255Q1583 256 1592 256Q1643 256 1687 228Q1741 195 1741 141Z"/>
</svg>