<svg xmlns="http://www.w3.org/2000/svg" viewBox="0 -2048 2048 2048">
	<path fill="#000000" d="M1615 -726Q1593 -712 1560 -706Q1527 -700 1495 -695L1582 -609Q1486 -545 1416 -503Q1392 -544 1342 -605Q1281 -682 1259 -682Q1253 -682 1232 -677Q1211 -672 1204 -672H1070Q1025 -672 986 -604Q947 -536 890 -536L588 -569Q590 -564 597 -553Q604 -542 604 -534V-509Q603 -509 473 -558Q469 -555 469 -550L778 336H100L437 -553Q421 -553 378 -542Q328 -529 309 -526Q275 -526 209 -520Q209 -522 206 -525Q203 -528 203 -536Q203 -572 509 -655L845 -606Q848 -623 819 -670Q790 -717 775 -724Q756 -733 683 -755Q625 -772 499 -900Q366 -1036 366 -1101Q366 -1155 432 -1227Q505 -1299 578 -1371Q579 -1378 563 -1394Q515 -1378 507 -1378Q475 -1378 447 -1394L107 -1280L100 -1287V-1306Q191 -1359 372 -1466Q384 -1487 421 -1522Q485 -1557 567 -1557Q597 -1557 674 -1521Q720 -1499 766 -1477Q901 -1421 1045 -1421Q1087 -1421 1102 -1427Q1115 -1414 1115 -1397V-1351Q1111 -1353 1018 -1353Q1060 -1339 1120 -1339Q1123 -1313 1131 -1265Q960 -1275 701 -1394Q701 -1343 632 -1269Q575 -1214 518 -1158Q526 -1150 529 -1150Q527 -1150 609 -1190.5Q691 -1231 741 -1231Q946 -1231 1218 -987Q1280 -931 1318 -900Q1404 -829 1456 -803Q1516 -792 1615 -747ZM1588 -740Q1548 -746 1509 -753Q1461 -761 1429 -786Q1257 -924 1085 -1062Q889 -1204 741 -1204Q712 -1204 643 -1181Q643 -1179 648 -1170.5Q653 -1162 652 -1159Q605 -1100 605 -1060Q605 -905 965 -801Q1245 -720 1458 -720Q1543 -720 1588 -740ZM1544 -609Q1510 -648 1461 -691Q1401 -707 1308 -718Q1158 -735 1156 -735Q967 -763 836 -819.5Q705 -876 657 -914Q578 -977 578 -1068Q578 -1103 629 -1170Q538 -1128 526 -1128Q485 -1128 485 -1158Q485 -1164 547 -1220Q617 -1283 640 -1314Q670 -1355 670 -1397Q670 -1414 637 -1430Q640 -1433 644 -1439Q648 -1445 651 -1448Q953 -1297 1048 -1297H1098Q1098 -1300 1095.5 -1307Q1093 -1314 1093 -1317Q987 -1324 855 -1366Q709 -1412 654 -1467Q657 -1470 658 -1474Q659 -1478 662 -1481Q903 -1378 1077 -1378Q1086 -1378 1094 -1386Q1089 -1391 1087 -1399Q1071 -1398 1052 -1398Q946 -1398 847 -1428Q801 -1442 739 -1466Q697 -1487 655 -1507Q598 -1535 561 -1535Q535 -1535 481 -1517Q409 -1492 409 -1459Q409 -1440 449 -1421Q483 -1405 504 -1405Q511 -1405 538 -1413Q565 -1421 572 -1421Q581 -1421 593 -1398Q605 -1375 605 -1364Q605 -1358 529 -1286Q441 -1204 411 -1165Q393 -1141 393 -1101Q393 -1044 504 -932Q595 -840 655 -804Q713 -783 790 -746Q840 -705 898 -582Q895 -579 891 -578Q887 -577 884 -574L510 -628Q424 -606 391 -597Q324 -576 279 -553H330Q337 -553 395.5 -566Q454 -579 461 -579Q494 -579 501 -575Q492 -593 500 -601Q508 -601 523.5 -603.5Q539 -606 545 -606L876 -557Q898 -557 907 -559Q924 -563 935 -576Q969 -627 1026 -686Q1103 -710 1270 -710Q1287 -710 1351 -633Q1426 -542 1427 -541Q1466 -565 1544 -609ZM393 -1437L390 -1445L360 -1427L363 -1419ZM408 -1403V-1413L383 -1407V-1397ZM517 -566V-576H502V-566ZM751 311L450 -514L138 311H283Q344 170 380 76Q400 25 441 -73Q460 -80 459 -80L595 311ZM566 310L450 -31L312 310ZM479 -1444Q467 -1444 461 -1438Q436 -1448 436 -1470Q436 -1474 454 -1492Q456 -1492 479 -1480Z"/>
</svg>