<svg xmlns="http://www.w3.org/2000/svg" viewBox="0 -2048 2048 2048">
	<path fill="currentColor" d="M2044 370Q2021 376 1981 376Q1971 376 1966 372Q1930 344 1801 231Q1688 130 1460 -71H100V-155H245Q245 -162 246 -175Q260 -188 275 -201Q285 -210 313 -216Q319 -224 326 -226Q366 -235 445 -255Q629 -306 633 -305L1055 -231Q1060 -230 1076 -233Q1058 -249 1021 -282Q991 -313 926 -369Q891 -388 820 -427Q779 -449 700 -499Q571 -595 494 -732Q492 -735 441 -846Q420 -890 399 -933Q376 -985 376 -1026Q376 -1136 485 -1180Q549 -1206 744 -1216Q872 -1223 872 -1265Q872 -1284 833 -1284Q811 -1284 781 -1273Q734 -1256 731 -1255Q672 -1239 612 -1239Q598 -1239 570.5 -1245Q543 -1251 529 -1251Q516 -1251 404 -1242Q343 -1238 222 -1226Q213 -1225 160 -1202Q150 -1211 150 -1224Q150 -1234 153 -1240Q165 -1263 219 -1280Q328 -1314 402 -1338Q440 -1346 499 -1371Q516 -1386 555 -1406Q617 -1420 662 -1420Q699 -1420 817 -1397Q883 -1384 867 -1384Q870 -1384 898 -1390Q1120 -1438 1198 -1507Q1236 -1541 1243 -1541Q1255 -1541 1277 -1536Q1304 -1529 1311 -1528L1309 -1510Q1161 -1371 1009 -1357Q965 -1353 939 -1346Q987 -1301 987 -1254Q987 -1217 961 -1183Q932 -1146 889 -1133Q819 -1121 681 -1093Q680 -1092 676 -1091Q694 -1093 706 -1093Q824 -1093 1010 -965Q1061 -930 1128 -867Q1184 -814 1240 -761Q1277 -736 1347 -682Q1445 -599 1580 -540Q1706 -490 1832 -439Q1841 -435 1910 -420L1917 -413V-391Q1899 -374 1866 -374Q1876 -374 1829 -377Q1876 -359 1900 -347Q1912 -321 1912 -311Q1912 -292 1846 -160Q1846 -160 1831 -160Q1833 -160 1636 -233Q1570 -257 1541 -266Q1485 -283 1442 -287Q1357 -292 1187 -314Q1198 -289 1209 -265Q1222 -237 1222 -212Q1222 -174 1176 -156H2044ZM1275 -1512Q1254 -1518 1246 -1518Q1241 -1518 1228 -1504Q1188 -1461 1076 -1418Q981 -1381 903 -1368L912 -1363Q931 -1368 970 -1374Q1141 -1388 1275 -1512ZM2019 348V-130H1986V348ZM1886 -314Q1886 -328 1877 -335Q1874 -337 1814.5 -360.5Q1755 -384 1748 -385Q1698 -390 1602 -401Q1486 -413 1257 -449Q1106 -480 935 -569Q800 -639 684 -730Q516 -860 516 -947Q516 -970 543 -1004.5Q570 -1039 592 -1039Q605 -1039 605 -1031Q605 -1032 572 -1002.5Q539 -973 539 -946Q539 -859 740 -715Q907 -596 1028 -550Q1046 -541 1082 -525Q1194 -485 1256 -472Q1357 -451 1499 -435Q1621 -423 1743 -410Q1852 -397 1841 -397Q1845 -397 1886 -401L1881 -403Q1748 -453 1485 -560Q1458 -572 1350 -651Q1307 -680 1228 -742Q1150 -819 982 -957Q936 -989 840 -1042Q755 -1079 705 -1079Q699 -1079 687 -1077.5Q675 -1076 669 -1076Q661 -1076 656 -1077Q645 -1083 646 -1092Q652 -1100 668 -1112Q670 -1113 722 -1123Q777 -1130 882 -1155Q904 -1163 942 -1195Q964 -1239 964 -1254Q964 -1276 943 -1307Q927 -1330 896 -1349Q869 -1365 782 -1382Q702 -1397 661 -1397Q503 -1397 503 -1329Q503 -1262 613 -1262Q682 -1262 727 -1277Q817 -1307 833 -1307Q895 -1307 895 -1268Q895 -1205 739 -1193Q534 -1178 494 -1158Q402 -1113 402 -1026Q402 -985 414 -955Q429 -922 445 -890Q510 -747 551 -686Q613 -593 712 -519Q751 -490 823 -452Q909 -407 937 -389Q944 -385 1033 -301Q1109 -230 1109 -213Q1109 -209 1102 -203Q1088 -211 1081 -211Q1078 -211 1066.5 -209.5Q1055 -208 1053 -208L634 -282Q620 -285 545 -262Q496 -247 448 -232Q411 -223 338 -207Q325 -195 325 -190Q325 -186 329 -180Q369 -180 369 -180L578 -219L687 -172L698 -184Q667 -198 606 -228Q646 -248 658 -246L1136 -168Q1199 -183 1199 -212Q1199 -233 1181.5 -269.5Q1164 -306 1157 -349Q1156 -354 1151 -371Q1146 -385 1146 -392Q1146 -403 1164 -419Q1169 -391 1183 -337Q1239 -319 1348 -315Q1465 -310 1515 -298Q1544 -291 1684 -237Q1817 -186 1822 -186Q1834 -186 1834 -186Q1886 -299 1886 -314ZM485 -1306V-1340Q416 -1319 277 -1275Q346 -1285 485 -1306ZM503 -1271L494 -1284H486Q482 -1284 330 -1259Q388 -1263 503 -1271ZM1959 272V-70H1567ZM1960 334V303L1530 -71H1498ZM1960 -97V-130H126V-97ZM1073 -156L672 -223Q670 -223 667 -222Q706 -209 718 -201Q740 -186 747 -156ZM719 -163L717 -168L712 -164ZM661 -158L572 -196L354 -158ZM307 -173V-176Q304 -182 303 -191Q290 -185 275 -168Q286 -169 307 -173ZM613 -1305Q608 -1305 599 -1303.5Q590 -1302 585 -1302Q572 -1302 562 -1335Q582 -1345 594 -1345Q600 -1345 613 -1331Z"/>
</svg>