<svg xmlns="http://www.w3.org/2000/svg" viewBox="0 -2048 2048 2048">
	<path fill="#000000" d="M1816 -150Q1816 -142 1813 -135.5Q1810 -129 1810 -127H1777Q1769 -127 1740.5 -141.5Q1712 -156 1698 -156Q1693 -156 1689 -155Q1747 -83 1747 -79Q1747 -48 1687 -48Q1564 -48 1506 -102Q1453 -159 1401 -216Q1313 -309 1256 -343Q1256 -313 1271 -267Q1286 -221 1282 -197Q1282 -196 1277.5 -188Q1273 -180 1273 -172V185Q1323 212 1426 269Q1426 271 1423 282Q1420 293 1420 299H1356Q1349 299 1275.5 289Q1202 279 1195 279Q1188 279 1067 289.5Q946 300 939 300Q933 300 896 289.5Q859 279 852 279Q849 279 738 287Q615 296 547 299V277Q547 237 812 191Q831 188 865 183Q872 178 877 160Q963 -148 963 -205Q963 -409 856 -596Q830 -622 781 -675Q726 -737 672 -798Q611 -872 596 -918Q558 -1037 558 -1074Q558 -1147 609 -1205Q648 -1249 743 -1307Q769 -1323 800 -1375Q748 -1370 635 -1380Q601 -1336 590 -1307Q541 -1176 392 -1114Q308 -1080 141 -1057Q130 -1038 111 -1038Q100 -1060 100 -1074Q100 -1116 128 -1137Q276 -1241 569 -1449Q592 -1473 643 -1519Q675 -1543 747 -1543Q785 -1543 829 -1530Q856 -1522 884 -1467Q910 -1416 910 -1387Q910 -1305 742 -1178Q834 -1180 897 -1172Q909 -1170 972 -1151Q1107 -1109 1260 -915Q1291 -876 1450 -647Q1523 -535 1597 -423Q1692 -283 1797 -178Q1816 -159 1816 -150ZM1784 -154Q1700 -232 1607 -368Q1535 -476 1464 -583Q1375 -716 1285 -849Q1164 -1013 1041 -1087Q931 -1153 818 -1153Q785 -1153 730 -1142Q710 -1188 710 -1179Q710 -1185 764 -1227Q828 -1276 850 -1301Q884 -1339 884 -1387Q884 -1409 863 -1455.5Q842 -1502 830 -1509Q809 -1521 763 -1521Q683 -1521 658 -1498Q571 -1417 414 -1308Q228 -1178 153 -1117L589 -1406Q602 -1397 600 -1389L158 -1081Q277 -1100 361 -1128Q481 -1168 574 -1339Q585 -1360 610 -1385.5Q635 -1411 644 -1411Q649 -1411 689 -1403Q729 -1395 737 -1395Q744 -1395 771 -1403Q798 -1411 805 -1411Q813 -1411 822 -1397Q831 -1383 831 -1374Q831 -1345 765 -1295Q723 -1265 680 -1235Q620 -1184 596 -1147Q579 -1121 579 -1090Q579 -1020 612 -934Q648 -840 781 -700Q917 -557 1022 -509Q1045 -499 1096 -467Q1120 -453 1159 -430Q1210 -399 1301 -336Q1385 -268 1469 -183Q1536 -115 1563 -99Q1605 -74 1676 -74Q1709 -74 1721 -81Q1668 -169 1570 -222Q1484 -267 1399 -312Q1143 -486 1062 -549Q868 -700 769 -841Q684 -962 684 -1013Q684 -1057 735 -1084Q776 -1106 818 -1106Q837 -1106 858 -1097L863 -1092Q860 -1084 782 -1072Q710 -1062 710 -1013Q710 -948 838 -801Q923 -703 1001 -634Q1170 -484 1375 -355Q1491 -281 1665 -198Q1726 -169 1784 -154ZM1368 274Q1333 256 1298 238Q1260 218 1254 197Q1253 163 1250 102Q1246 7 1254 -176Q1254 -180 1259 -203Q1263 -222 1261 -230Q1232 -347 1212 -369Q1192 -391 1145 -412Q1071 -446 1069 -447Q1115 -380 1198 -249Q1199 -236 1201 -213Q1209 -195 1219 -160Q1221 -145 1221 18Q1221 163 1219 197Q1218 213 1207 220Q1164 226 1079 238Q1080 242 1081 245Q1081 257 1063 265Q1050 270 1037 275Q1105 258 1192 258Q1251 258 1368 274ZM1199 183V-151Q1199 -159 1192 -168Q1185 -177 1185 -177Q1184 -201 1176 -236Q1158 -269 1070 -395Q1071 -349 1066 -256Q1063 -233 1043 -196Q1021 -153 1017 -140Q997 -72 968 57Q942 173 942 182V204Q994 221 997 221Q1046 221 1199 183ZM1047 -424Q1047 -459 992 -495Q952 -521 911 -547Q982 -357 980 -271Q980 -260 984.5 -238.5Q989 -217 989 -213Q989 -218 938 18Q928 70 918 122Q898 198 859 215Q836 225 737 238Q739 241 739 245Q739 256 684 269Q757 258 839 258Q846 258 874.5 260.5Q903 263 910 263Q917 263 933.5 250.5Q950 238 958 237Q942 227 915 212Q933 80 985 -107Q1008 -160 1040 -250Q1038 -290 1038 -366Q1039 -376 1043 -397.5Q1047 -419 1047 -424ZM963 269L960 261L948 268V275ZM688 -1427H648Q645 -1440 648 -1463H688Q688 -1427 688 -1427Z"/>
</svg>