<svg xmlns="http://www.w3.org/2000/svg" viewBox="23.4 -1643.6 1614.3 2069.3">
	<path fill="currentColor" d="M1561 -224Q1554 -203 1525 -194.5Q1496 -186 1468 -178Q1468 -175 1479 -164V-139L1300 -89Q1275 -122 1215 -194Q1109 -316 1032 -347H1008Q1007 -323 1015 -168Q1016 -151 1026 -114Q1036 -77 1036 -71V183Q1036 200 1050 233Q1066 270 1083 277Q1116 286 1182 307Q1205 315 1205 343L869 349Q862 349 826.5 343.5Q791 338 784 338Q779 338 766 343.5Q753 349 746 349Q739 349 729.5 343.5Q720 338 713 338Q709 338 704 347Q690 349 652 349Q645 349 566 338Q487 327 480 327Q473 327 394 338Q315 349 308 349Q300 349 297.5 341.5Q295 334 294 333Q279 349 258 349Q184 349 188 348V323Q211 296 258 283Q292 277 326 271Q370 262 458 244Q488 237 509 198Q522 167 534 137Q607 -28 637 -158Q638 -161 662 -236Q669 -258 669 -338Q669 -344 672 -394Q674 -428 671 -450Q666 -480 651 -501Q589 -561 474 -681Q423 -740 391 -808Q346 -903 346 -981Q346 -1018 369 -1067Q394 -1120 466 -1246Q527 -1353 527 -1359Q527 -1375 513.5 -1386Q500 -1397 494 -1397Q461 -1397 113 -1124Q110 -1127 106.5 -1133.5Q103 -1140 100 -1143Q174 -1216 271 -1335Q350 -1433 429 -1531Q438 -1542 474 -1554.5Q510 -1567 529 -1567Q585 -1567 629 -1537Q641 -1529 660.5 -1481.5Q680 -1434 680 -1419Q680 -1362 591 -1225Q505 -1092 510 -1067Q551 -1045 629 -1036Q691 -1030 754 -1023Q811 -1013 889.5 -953.5Q968 -894 1011 -827Q1073 -724 1212 -504Q1264 -426 1393 -344Q1535 -254 1561 -224ZM435 -1398L430 -1405L399 -1381L404 -1373ZM402 -1370L397 -1377L372 -1359L377 -1351ZM406 -1428Q401 -1433 398 -1441L308 -1338Q346 -1369 406 -1428ZM1528 -226Q1451 -271 1308 -369Q1251 -414 1193 -496Q1148 -565 1102 -635Q1000 -789 945 -852Q834 -982 738 -1001Q703 -1008 634 -1017Q586 -1022 497 -1043Q483 -1049 483 -1074Q483 -1096 595 -1273Q621 -1314 634 -1344Q652 -1385 652 -1425Q652 -1540 535 -1540Q423 -1540 423 -1474Q423 -1425 458 -1419Q477 -1420 506 -1417Q554 -1400 554 -1359Q554 -1325 448 -1155Q379 -1045 379 -973Q379 -815 553 -638Q731 -473 908 -309Q924 -293 965 -146Q1008 8 1008 68V236Q981 269 934 283Q880 298 866 309Q907 312 994.5 317Q1082 322 1123 325Q1031 294 1026 247Q1022 140 1006 -70Q981 -269 981 -264Q981 -271 997 -383Q893 -436 864 -452Q794 -491 739 -533Q687 -572 572 -693Q423 -850 423 -905Q423 -948 476 -972Q519 -992 568 -992Q584 -992 587 -989V-969Q551 -962 514 -955Q450 -938 450 -905Q450 -846 599 -699Q717 -582 780 -540Q912 -451 1158.5 -327.5Q1405 -204 1474 -204Q1490 -204 1528 -226ZM1446 -156Q1432 -183 1417 -191Q1325 -227 1145 -301Q1207 -257 1306 -117Q1328 -122 1376 -136.5Q1424 -151 1446 -156ZM981 233Q984 -41 897 -268Q874 -327 802 -373Q781 -323 747 -224Q741 -187 727 -131Q653 49 560 260Q613 277 715 333Q756 297 844 277Q944 255 981 233ZM784 -393L686 -472V-426Q691 -374 694 -278Q692 -239 661 -120Q653 -91 594 50Q573 105 553 161Q525 225 484 255Q459 273 403 280Q397 287 386 298Q366 300 324 314Q396 305 464 305Q519 305 605 326Q623 330 639 318Q572 294 526 263Q573 166 620 68Q675 -46 700 -129Q729 -230 784 -393ZM543 -1504Q530 -1479 507 -1463Q497 -1476 477 -1499Q483 -1505 519 -1529Z"/>
</svg>