<svg xmlns="http://www.w3.org/2000/svg" viewBox="0 0 676 1000">
  <g transform="scale(1,-1) translate(0,-1000)">
    <path d="M399 289Q394 295 384.0 307.5Q374 320 369 326Q354 292 338.0 266.5Q322 241 285.0 181.5Q248 122 200 37L352 36L380 143ZM557 296 605 181 644 186 609 278Q608 278 608.0 278.5Q608 279 607 279ZM525 308 441 338Q447 281 447 279Q447 274 446 272L389 35H400Q408 35 413.0 29.5Q418 24 418 17Q418 0 400 0H15Q0 0 0.0 18.0Q0 36 10 42L33 46L71 37H158Q165 49 187.5 86.0Q210 123 223 149Q236 177 279.0 263.5Q322 350 331 370Q320 382 289.5 416.0Q259 450 245.0 466.0Q231 482 210.5 507.5Q190 533 176 553Q129 622 129 674Q129 707 156.5 744.5Q184 782 211.5 811.0Q239 840 239 852Q239 871 220 871Q200 871 81 851Q74 850 67.5 844.0Q61 838 57.5 833.0Q54 828 53 828Q38 832 38 845Q38 856 51.0 869.0Q64 882 79 888L191 926Q196 931 203.5 940.5Q211 950 217.5 956.5Q224 963 235 969Q237 970 245.5 975.0Q254 980 257.5 982.0Q261 984 269.0 988.0Q277 992 282.5 993.5Q288 995 295.5 996.5Q303 998 310 998Q339 998 359.5 981.0Q380 964 380 937Q380 916 373.5 905.5Q367 895 324 849Q314 838 299.5 829.5Q285 821 279 814Q232 754 232 738Q232 734 232 734Q256 736 267 736Q299 736 327.0 730.0Q355 724 379.5 708.5Q404 693 423.5 678.0Q443 663 463.5 634.0Q484 605 497.5 584.0Q511 563 531.0 523.0Q551 483 562.0 458.0Q573 433 594 385Q631 299 631 296L675 180Q676 178 676 175Q676 164 664 162Q597 153 597 153Q587 153 584 161L526 302Q525 304 525 307ZM288 946Q296 946 302.0 940.0Q308 934 308 926Q308 914 286 914Q272 914 272 931Q272 946 288 946ZM346 937Q346 946 338.0 955.0Q330 964 310 964Q303 964 296.5 962.0Q290 960 286.5 958.5Q283 957 270.5 950.0Q258 943 251 939Q245 935 239.5 929.5Q234 924 227.5 915.5Q221 907 216 902Q220 901 226.0 901.0Q232 901 236 900Q272 891 272 855V854Q299 873 299 873Q305 879 314.0 887.5Q323 896 327.5 900.0Q332 904 336.5 910.0Q341 916 343.0 921.5Q345 927 346 935ZM195 737Q165 700 165 674Q165 634 206 573Q233 533 310.0 447.0Q387 361 405 339Q402 363 402 364Q402 372 407.0 377.0Q412 382 420 382Q424 382 426 381L580 327Q577 336 570.0 350.5Q563 365 561 370Q538 423 524.5 452.5Q511 482 490.5 523.0Q470 564 454.5 585.5Q439 607 417.5 632.5Q396 658 374.5 670.5Q353 683 326.5 691.5Q300 700 269 700Q260 700 251.5 699.5Q243 699 237.5 698.5Q232 698 231 698Q217 698 206.5 709.5Q196 721 195 737Z" fill="currentColor"/>
  </g>
</svg>