<svg xmlns="http://www.w3.org/2000/svg" viewBox="0 -2048 2048 2048">
	<path fill="#000000" d="M1723 -114H867Q907 -5 993 208Q1152 230 1230 239Q1362 254 1468 257L1696 263Q1697 265 1697 309H1500Q1478 309 1309 296Q963 269 769 207Q470 111 235 -124Q231 -119 231 -114Q204 -119 175 -119Q173 -132 178 -149Q184 -171 197 -167Q198 -178 199 -188Q203 -202 219 -214Q240 -201 260 -177Q270 -166 298 -166Q382 -166 409 -173Q419 -185 446 -201Q497 -204 548 -208Q610 -212 635 -241Q681 -293 743 -413Q798 -519 798 -534Q798 -582 754 -756Q753 -761 731 -773Q671 -805 615 -824Q526 -854 442 -956Q361 -1055 345 -1145Q303 -1120 286 -1073Q276 -1040 266 -1006Q248 -960 224 -960Q179 -960 179 -1031Q179 -1038 185.5 -1049.5Q192 -1061 193 -1064Q204 -1118 274 -1156Q386 -1219 387 -1220Q487 -1302 534 -1365Q532 -1378 476 -1388L113 -1261Q110 -1264 106.5 -1270.5Q103 -1277 100 -1280Q218 -1349 487 -1523Q514 -1542 558 -1542Q608 -1542 644 -1502Q677 -1465 677 -1423Q677 -1367 608 -1288Q545 -1221 481 -1153L490 -1145Q644 -1203 722 -1203Q816 -1203 1009 -1111Q1058 -1088 1263 -977Q1319 -947 1581 -816V-798Q1581 -781 1560 -772Q1576 -756 1576 -751Q1576 -736 1518 -694.5Q1460 -653 1449 -653Q1453 -653 1370 -685Q1287 -717 1245 -717Q1240 -717 1205 -711.5Q1170 -706 1163 -706Q1184 -706 1056 -722Q1053 -719 1054 -715Q1125 -446 1125 -326Q1125 -282 1119 -243Q1129 -217 1173 -201Q1209 -191 1245 -180Q1246 -176 1252 -166H1723ZM420 -1441L415 -1448L396 -1435L400 -1428ZM430 -1408L427 -1416L398 -1404V-1396ZM1550 -803Q1446 -856 1268 -945Q1153 -1009 1038 -1073Q834 -1177 727 -1177Q655 -1177 570.5 -1150.5Q486 -1124 484 -1124Q455 -1124 455 -1150Q455 -1157 521 -1230Q601 -1318 627 -1352Q656 -1390 656 -1417Q656 -1451 627 -1483Q598 -1515 560 -1515Q513 -1515 439 -1455Q449 -1417 492 -1405Q556 -1388 560 -1385V-1360Q560 -1322 370 -1180Q372 -1150 377 -1105Q387 -1059 437 -998Q482 -944 530 -909Q597 -861 668 -829Q712 -814 773 -784Q866 -703 958 -621Q1031 -555 1056 -493Q1084 -422 1084 -280Q1084 -203 1037 -190Q971 -184 904 -179L1174 -174Q1152 -184 1129 -194Q1098 -210 1096 -228Q1094 -247 1098 -322Q1102 -396 1087 -476Q1077 -528 1050 -636Q1026 -731 1026 -735Q1026 -751 1034 -759Q1073 -732 1158 -732Q1165 -732 1205.5 -737.5Q1246 -743 1251 -743Q1258 -743 1350 -711Q1442 -679 1449 -679Q1472 -679 1544 -751Q1506 -779 1428 -775L1296 -769Q1139 -762 856 -817Q476 -892 476 -1023Q476 -1085 551 -1113Q561 -1093 561 -1091Q502 -1066 502 -1023Q502 -960 615 -921Q853 -838 1017 -814Q1141 -796 1378 -796Q1498 -796 1550 -803ZM301 -1144Q206 -1089 206 -1026Q206 -1003 230 -986Q237 -1000 257 -1065Q271 -1114 301 -1144ZM1057 -236Q1056 -379 1044 -426Q1016 -530 911 -616Q904 -544 832 -424Q768 -320 703 -216Q737 -211 795 -196Q797 -195 820 -167H845Q869 -207 928 -208Q1009 -210 1057 -236ZM894 -627Q894 -642 848.5 -684Q803 -726 790 -726Q788 -726 788 -724Q788 -717 806.5 -623.5Q825 -530 825 -523Q825 -516 689 -281Q676 -257 641 -220Q586 -187 465 -179Q493 -179 548 -180.5Q603 -182 605 -182Q682 -182 751 -175Q677 -185 677 -217Q677 -222 785.5 -391Q894 -560 894 -627ZM1221 269V260H1196V269ZM935 192L813 -112H317Q556 116 935 192ZM271 -133L232 -178L225 -173L264 -128ZM539 -1465Q529 -1441 513 -1441Q504 -1441 486 -1459Q486 -1489 513 -1489Q527 -1489 539 -1465Z"/>
</svg>