<svg xmlns="http://www.w3.org/2000/svg" viewBox="0 -2048 2048 2048">
	<path fill="#000000" d="M2582 -473L2558 -450Q2568 -440 2576 -440V-418Q2576 -402 2501 -353Q2431 -306 2423 -306Q2409 -306 2306 -346Q2203 -386 2159 -386Q2152 -386 2110 -379.5Q2068 -373 2061 -373Q2061 -373 2015.5 -377Q1970 -381 1926 -381Q1941 -336 1974 -209Q2018 -43 2018 3V158Q2018 178 2016.5 199Q2015 220 2015 223Q2015 241 2042 246Q2113 262 2171 283Q2173 302 2164 319H1676Q1698 259 1792 245Q1916 226 1939 212Q1933 96 1926 -19Q1902 -158 1765 -257Q1752 -217 1721 -142Q1646 -17 1503 230Q1513 245 1570.5 254Q1628 263 1644 297Q1644 300 1640.5 308Q1637 316 1637 319L1402 307Q1420 307 1225 318Q1178 321 1026 312Q1026 312 1033 284Q1071 248 1156 237Q1220 233 1285 228L1289 224Q1281 104 1273 -17Q1247 -151 1109 -257Q1092 -170 990 -11Q870 176 847 230Q860 244 920 259Q976 272 994 297Q994 300 990.5 308Q987 316 987 319Q776 306 749 307L481 319L478 305Q516 262 604 251Q710 238 733 226Q772 206 821 119Q964 -134 964 -159Q964 -183 949 -267Q931 -374 907 -430Q897 -454 794 -485Q678 -520 542 -659Q397 -809 407 -913Q357 -892 335 -832Q321 -782 306 -731Q286 -680 250 -680Q236 -680 216 -718Q198 -752 198 -763Q198 -843 299 -913Q380 -965 462 -1018Q513 -1056 564 -1094Q623 -1140 639 -1185Q613 -1207 565 -1207Q528 -1207 322 -1133Q173 -1079 113 -1054Q113 -1069 100 -1082Q183 -1129 352 -1226Q373 -1238 521 -1344Q595 -1397 667 -1397Q732 -1397 773 -1353Q811 -1311 811 -1250Q811 -1177 735 -1096Q590 -942 577 -924Q841 -986 897 -986Q904 -986 953 -971Q1002 -956 1010 -956Q1057 -956 1168 -1057Q1249 -1131 1289 -1180Q1285 -1207 1222 -1207L763 -1054Q763 -1057 759.5 -1068.5Q756 -1080 756 -1083Q912 -1180 1254 -1388Q1269 -1397 1319 -1397Q1387 -1397 1429 -1353Q1467 -1312 1467 -1253Q1467 -1184 1386 -1097Q1247 -949 1228 -922Q1231 -919 1240 -919Q1235 -919 1353 -952.5Q1471 -986 1534 -986Q1644 -986 2086 -762Q2334 -632 2582 -501ZM2545 -483Q2405 -552 2152 -687Q1693 -956 1525 -956Q1517 -956 1378 -922Q1239 -888 1231 -888Q1197 -888 1197 -925Q1197 -935 1316.5 -1061Q1436 -1187 1436 -1256Q1436 -1301 1408 -1334Q1375 -1372 1319 -1372Q1265 -1372 1173 -1297Q1181 -1253 1232 -1236Q1312 -1209 1320 -1203Q1317 -1150 1225 -1065Q1150 -997 1074 -952Q1087 -952 1099 -940Q1088 -918 1088 -892Q1088 -802 1219 -677Q1313 -587 1413 -528Q1468 -495 1512 -485Q1533 -485 1566 -476Q1653 -418 1800 -258Q1842 -215 1884 -172Q1938 -115 1942 -88Q1972 95 1972 175Q1972 200 1970 224Q1937 254 1869 263Q1751 279 1749 280L2098 292Q1988 268 1988 237V-22Q1988 -30 1942 -213Q1896 -396 1896 -404Q1896 -426 1899 -429Q1999 -404 2052 -404Q2060 -404 2106 -410Q2152 -416 2159 -416Q2204 -416 2304 -376.5Q2404 -337 2414 -337Q2438 -337 2539 -426Q2503 -447 2456 -447H2194Q2186 -447 2146 -451Q2101 -456 2089 -457Q1744 -480 1507 -552Q1479 -560 1318 -640Q1215 -691 1215 -759Q1215 -787 1238 -822Q1265 -864 1301 -864Q1313 -864 1320 -843Q1246 -806 1246 -756Q1246 -701 1401 -629Q1688 -495 2217 -481Q2260 -480 2351 -475Q2435 -471 2438 -471Q2507 -471 2545 -483ZM1152 -1258L1145 -1277L902 -1142ZM1170 -1230L1166 -1239L912 -1128ZM994 -905Q958 -895 917 -841Q878 -791 878 -763Q878 -740 912 -710Q925 -735 950 -812Q970 -875 994 -905ZM499 -1256L492 -1275L248 -1143ZM517 -1228L513 -1237L258 -1129ZM1570 -414Q1569 -449 1531 -451Q1277 -465 986 -524Q868 -548 767 -587Q565 -665 565 -759Q565 -788 586 -822Q612 -864 651 -864Q660 -864 664 -860V-844Q622 -816 614 -807Q596 -788 596 -756Q596 -649 905 -573Q997 -548 1144 -516Q1228 -504 1384 -495L1430 -492Q1325 -528 1198 -653Q1060 -789 1060 -888Q1060 -897 1061 -906Q1018 -884 1003 -862Q978 -825 972 -794Q948 -680 909 -680Q894 -680 874 -705Q854 -730 854 -753Q854 -788 898 -854Q940 -917 976 -941Q916 -956 900 -956Q853 -956 713.5 -919Q574 -882 575 -882Q547 -882 547 -916Q547 -950 628 -1029Q726 -1125 740 -1147Q780 -1211 780 -1250Q780 -1302 752 -1336Q721 -1372 670 -1372Q633 -1372 594 -1349Q555 -1323 517 -1297Q520 -1287 530 -1266.5Q540 -1246 542 -1240Q629 -1231 662 -1202Q664 -1197 664 -1179Q664 -1162 662 -1157Q555 -1047 469 -981Q459 -974 418 -953Q442 -942 441 -928Q438 -872 438 -872Q459 -795 506 -736Q616 -597 819 -504Q860 -488 901 -473Q952 -452 983 -421Q1080 -327 1177 -233Q1278 -128 1293 -63Q1324 71 1324 170Q1324 212 1317 238Q1316 239 1337 239V-21L1246 -407Q1246 -431 1260 -429Q1317 -404 1405 -404Q1410 -404 1463 -408Q1524 -412 1570 -414ZM1614 -174Q1614 -218 1570 -379Q1524 -388 1482 -383Q1402 -373 1408 -373Q1398 -373 1277 -384Q1372 3 1370 233Q1393 220 1427 189Q1480 104 1534 18Q1614 -117 1614 -174ZM1730 -275Q1730 -294 1683 -338Q1646 -371 1609 -404Q1644 -217 1644 -165Q1644 -118 1559 30Q1491 149 1449 204Q1397 272 1188 284Q1332 282 1552 285Q1467 276 1467 237Q1467 230 1543 109Q1630 -31 1658 -87Q1730 -230 1730 -275ZM357 -911Q308 -896 266 -844Q228 -797 228 -763Q228 -739 263 -711Q279 -761 295 -811Q314 -871 357 -911ZM1080 -278Q1080 -287 1033 -331Q956 -401 953 -404L995 -147Q935 -35 874 78Q798 214 714 263Q697 273 661 276Q612 280 611 280H666L680 281Q702 283 728.5 279.5Q755 276 756 276Q807 276 915 289Q886 281 857 274Q811 259 811 234Q811 232 899 96Q997 -57 1038.5 -153.5Q1080 -250 1080 -278ZM1148 273Q1138 273 1118.5 275Q1099 277 1094 277Q1094 295 1114 295Q1128 295 1148 273ZM1295 -1309Q1295 -1302 1267 -1274Q1265 -1276 1253 -1285Q1241 -1294 1234 -1301Q1232 -1314 1254 -1336Q1281 -1328 1295 -1309ZM645 -1301Q644 -1300 631 -1290.5Q618 -1281 611 -1274Q584 -1301 584 -1308Q584 -1317 590.5 -1325Q597 -1333 597 -1335Q629 -1338 645 -1301Z"/>
</svg>