<svg xmlns="http://www.w3.org/2000/svg" viewBox="0 -2048 2048 2048">
	<path fill="currentColor" d="M1750 -634Q1750 -590 1637 -562Q1552 -542 1480 -542Q1474 -542 1390.5 -550.5Q1307 -559 1301 -559Q1240 -559 1221 -539Q1223 -478 1234 -355Q1235 -348 1251 -317.5Q1267 -287 1267 -280Q1267 -274 1258 -239Q1248 -200 1245 -182Q1203 100 1203 163Q1203 169 1216 194Q1233 226 1238 237V257Q1234 258 1224 264Q1221 262 1209 250Q1199 241 1192 241Q1185 241 1158.5 252.5Q1132 264 1125 264H971Q964 264 960.5 255Q957 246 950 246Q947 246 930 251Q916 255 905 251Q903 215 950 191Q988 172 1028 172Q1033 172 1056.5 174.5Q1080 177 1088 177Q1131 177 1138.5 161.5Q1146 146 1163 -3Q1180 -149 1180 -196Q1180 -258 1126 -370Q1081 -465 1046 -507Q1020 -440 983 -302Q989 -278 988 -233Q973 -222 952 -193Q948 -182 854 179Q865 189 868 216Q871 246 856 258Q850 258 833 241Q812 264 803 264H601Q600 263 596 253Q594 246 585 246Q574 246 550 258Q542 257 542 244Q542 215 578 203Q606 194 669 189.5Q732 185 763 176Q768 175 785 133Q796 106 810 59Q840 -35 885 -223Q879 -238 877 -269Q893 -337 893 -355L882 -514Q867 -525 856 -525Q850 -525 834.5 -519Q819 -513 803 -513H785Q777 -533 763 -547Q743 -536 699 -513Q696 -525 693 -537Q689 -553 680 -553Q665 -553 630 -530Q624 -545 613 -571Q604 -568 584 -562Q564 -556 555 -553Q552 -566 541 -588Q501 -628 470 -628Q476 -628 451 -619Q430 -611 410 -618Q410 -623 413 -635Q416 -647 416 -652Q407 -656 395 -656Q383 -656 353 -652Q353 -661 355.5 -678Q358 -695 358 -705Q264 -750 198 -859Q139 -957 139 -1033Q139 -1093 181 -1155Q228 -1226 289 -1226Q295 -1226 363.5 -1211.5Q432 -1197 438 -1197Q471 -1197 484 -1224Q483 -1240 456 -1254Q433 -1266 418 -1266H258Q186 -1266 100 -1285V-1311Q157 -1366 280 -1373Q306 -1371 360 -1377Q374 -1391 399 -1413Q416 -1424 480 -1452Q488 -1455 515 -1496Q539 -1488 569 -1468Q582 -1468 637 -1548Q646 -1525 672 -1479Q723 -1530 753 -1548Q759 -1513 781 -1450Q811 -1468 867 -1491Q876 -1484 881 -1484Q859 -1439 852 -1409Q861 -1409 877.5 -1412.5Q894 -1416 901 -1416Q925 -1416 945 -1396Q937 -1388 915 -1369.5Q893 -1351 881 -1339Q907 -1328 962 -1299Q959 -1288 881 -1263Q897 -1248 904 -1222Q818 -1194 638 -1138Q635 -1137 611 -1113V-1092Q615 -1088 622 -1088Q629 -1088 679 -1106Q737 -1127 760 -1133Q758 -1108 764 -1094Q788 -1113 851 -1151Q854 -1128 868 -1088L971 -1157Q977 -1125 994 -1065Q1031 -1089 1109 -1123Q1123 -1114 1116 -1041Q1136 -1044 1179 -1053Q1222 -1062 1242 -1065Q1246 -1058 1246 -1050Q1246 -1041 1238 -1022.5Q1230 -1004 1231 -995Q1363 -995 1363 -995Q1370 -995 1370 -982Q1370 -975 1358 -956Q1344 -934 1341 -926Q1425 -917 1507 -892Q1514 -891 1514 -878Q1514 -873 1485 -844Q1537 -835 1640 -793Q1640 -790 1618 -769Q1624 -765 1672 -756Q1711 -748 1727 -724Q1727 -709 1698 -694Q1750 -644 1750 -634ZM1721 -637Q1693 -656 1652 -699Q1657 -704 1687 -717Q1676 -722 1617 -736Q1580 -745 1566 -763L1594 -793Q1480 -804 1439 -832Q1462 -855 1474 -879Q1380 -900 1317 -900Q1312 -904 1301 -913Q1318 -945 1329 -978Q1311 -975 1256 -965Q1211 -956 1203 -956Q1194 -956 1194 -959.5Q1194 -963 1192 -965Q1202 -1011 1214 -1035Q1099 -1002 1097 -1002Q1092 -1002 1083 -1011Q1086 -1040 1093 -1087Q1038 -1063 971 -1025L962 -1034Q962 -1052 960 -1116L851 -1036Q848 -1048 842.5 -1070.5Q837 -1093 834 -1105Q822 -1100 783 -1078Q751 -1059 743 -1059Q742 -1059 731 -1069V-1099Q719 -1095 669 -1075Q630 -1059 622 -1059Q610 -1059 576 -1080Q576 -1106 589 -1124Q620 -1166 870 -1240Q856 -1254 841 -1286Q863 -1291 904 -1297Q860 -1319 847 -1338Q870 -1372 887 -1380H866Q825 -1370 812 -1374Q817 -1403 840 -1449Q752 -1416 755 -1416Q746 -1416 742 -1448Q738 -1475 735 -1502Q715 -1481 695 -1461Q675 -1441 661 -1439Q655 -1448 646 -1465Q637 -1482 631 -1491Q614 -1468 579 -1427Q578 -1428 527 -1462Q519 -1448 498 -1429Q474 -1423 428 -1402Q408 -1377 372 -1348Q343 -1341 292 -1342Q234 -1342 211.5 -1339Q189 -1336 157 -1314Q199 -1324 269 -1324Q353 -1324 382 -1328V-1301H254Q314 -1299 373 -1296Q440 -1293 480 -1270Q513 -1251 513 -1223Q513 -1205 487 -1187Q461 -1169 444 -1169Q438 -1169 368.5 -1186Q299 -1203 292 -1203Q236 -1203 198 -1134Q168 -1079 168 -1028Q168 -947 227 -860Q292 -765 393 -716Q387 -703 388 -680Q394 -681 445 -681Q439 -663 439 -646Q445 -646 454 -648.5Q463 -651 470 -651Q486 -651 549 -620Q558 -615 572 -582Q577 -584 601 -595Q621 -605 628 -605Q643 -605 641 -571Q709 -588 694 -588Q710 -588 710 -554Q733 -568 774 -588Q805 -542 812 -542Q838 -542 879 -555Q883 -556 899 -566Q915 -576 922 -576Q931 -576 938.5 -568Q946 -560 947 -560Q979 -561 1044 -557Q1080 -504 1117 -450Q1158 -388 1173 -337Q1187 -296 1201 -254Q1203 -245 1203 -176Q1203 -111 1187 19Q1171 157 1156 185Q1145 206 1103 206Q1094 206 1072 203Q1050 200 1045 200Q1018 200 962 214Q972 224 987 239Q1021 241 1028 241Q1094 241 1155 228Q1160 227 1176 215Q1192 203 1197 204Q1179 190 1179 172Q1179 166 1184.5 137.5Q1190 109 1190 83Q1191 18 1211 -124Q1214 -145 1227 -205Q1238 -259 1238 -265Q1238 -292 1230 -304Q1222 -313 1210 -327Q1192 -518 1192 -547Q1192 -588 1295 -588Q1303 -588 1394 -579Q1485 -570 1491 -570Q1663 -570 1721 -637ZM1025 -529Q986 -530 911 -541Q911 -499 915 -423Q919 -347 919 -314Q919 -308 913 -296.5Q907 -285 906 -280Q911 -258 914 -223Q908 -180 854 1Q839 60 799 168Q778 211 751 212H606Q606 228 618 240H793Q828 205 835 205Q823 183 825 175Q881 -44 929 -210Q944 -226 960 -251Q956 -269 954 -297Q973 -394 1025 -529ZM582 -1351Q581 -1346 564.5 -1333Q548 -1320 538 -1318Q531 -1329 513 -1350L544 -1381Q552 -1381 582 -1351Z"/>
</svg>