<svg xmlns="http://www.w3.org/2000/svg" viewBox="0 -2048 2048 2048">
	<path fill="currentColor" d="M2044 -12L1947 270Q1853 198 1691.5 122Q1530 46 1411 16Q1352 1 1224 2Q1100 3 1038 -15Q1078 18 1078 52Q1078 60 1034 258Q1031 273 1074 280Q1127 290 1132 293Q1175 293 1177 338L1171 340L1169 348H1147Q1120 348 1068 341Q1016 334 989 334Q957 334 892.5 339Q828 344 796 344Q789 344 776.5 341Q764 338 757 338Q710 338 626 350L618 344Q602 348 594 348Q587 348 581 342Q581 296 660 282Q718 278 776 274Q863 148 882 65Q814 -21 813 -22Q772 -71 733 -99Q582 -209 518 -286Q417 -406 417 -545Q417 -565 433.5 -603Q450 -641 450 -662Q450 -717 237 -717Q228 -717 108 -699L100 -713Q198 -803 321 -803Q382 -803 436 -797Q437 -814 457 -861L316 -1029Q434 -1156 604 -1156Q776 -1156 889 -1010L694 -808Q698 -787 698 -774Q699 -695 739 -660Q775 -634 845 -582L1149 -357Q1379 -187 1544 -137Q1559 -133 1589 -123L1593 -105Q1641 -90 1773 -63Q1897 -38 2044 -12ZM855 -1012Q758 -1130 604 -1130Q453 -1130 350 -1028L472 -883Q510 -920 564 -920Q657 -920 687 -836ZM2011 6L1585 -79Q1581 -80 1578 -81Q1578 -82 1578 -82Q1517 -62 1435 -62Q1160 -62 951 -123Q666 -206 565 -391Q542 -433 542 -469Q542 -512 591 -537Q631 -557 678 -557Q705 -557 731 -551L727 -527Q703 -533 678 -533Q646 -533 610 -516Q567 -496 567 -469Q567 -448 579 -420Q657 -238 953 -150Q1171 -86 1435 -86Q1536 -86 1566 -105Q1472 -129 1407 -156Q1381 -167 1279 -237Q1200 -291 1032 -416Q881 -521 702 -662Q672 -701 672 -767V-774Q672 -894 564 -894Q465 -894 460 -778L452 -776V-770Q368 -778 321 -778Q251 -778 235 -764Q289 -770 295 -770Q368 -770 442 -754L438 -729Q359 -746 297 -746Q280 -746 252 -742Q390 -742 430 -725Q457 -713 477 -674Q477 -651 459.5 -608.5Q442 -566 442 -543Q442 -353 649 -191Q848 -35 995 22Q1006 25 1024 35Q1034 43 1034 61Q1034 95 1018 175Q1001 259 987 280L956 297Q944 295 944 295Q875 295 841 319Q901 309 991 309Q1010 309 1049 315Q1088 321 1107 321H1118L1112 309Q1080 305 1048 301Q1007 291 1007 264Q1007 230 1029.5 164Q1052 98 1052 65Q1052 53 1048 33L989 -43L997 -56Q1074 -25 1300 -25Q1406 -25 1628 67Q1839 154 1935 229ZM1009 65Q1009 57 948 28Q958 48 958 67Q958 86 860 270Q868 278 880 278Q954 278 968 264Q1009 78 1009 65ZM931 63Q931 53 903 2L825 -43L909 61Q904 91 854 193Q802 298 786 299Q745 300 705 301Q635 306 635 323Q752 312 770 313Q776 304 804.5 293.5Q833 283 835 278L829 274Q931 88 931 63ZM551 -807L512 -791L489 -828Q520 -836 532 -848Q551 -821 551 -807Z"/>
</svg>