<svg xmlns="http://www.w3.org/2000/svg" viewBox="0 -2048 2048 2048">
	<path fill="currentColor" d="M2747 -358Q2747 -185 2604 -18Q2481 124 2326 190Q1993 331 1511 331H1301Q1297 331 1209 322Q1116 312 1080 310Q740 294 477 169Q100 -9 100 -346Q100 -465 148 -548Q212 -658 345 -657Q349 -694 374 -812Q397 -923 397 -928Q397 -966 371 -1007Q342 -1053 304 -1053Q297 -1053 273 -1044.5Q249 -1036 242 -1036Q216 -1036 216 -1071Q216 -1136 276 -1165Q290 -1180 322 -1208Q407 -1263 478 -1263Q583 -1263 655 -1189Q688 -1155 764 -1029Q810 -977 888 -883Q977 -769 1028 -681Q1030 -683 1035 -690Q1037 -728 1055 -838Q1072 -945 1072 -949Q1072 -976 1040 -1020.5Q1008 -1065 978 -1065Q971 -1065 949 -1056.5Q927 -1048 922 -1048H881Q874 -1055 874 -1068Q874 -1128 946 -1191Q1001 -1239 1072 -1268Q1100 -1280 1150 -1280Q1317 -1280 1348 -1191Q1361 -1143 1393 -1063Q1403 -1046 1434 -1022Q1483 -984 1484 -983Q1613 -868 1697 -722Q1699 -724 1704 -731Q1735 -860 1735 -931Q1735 -976 1716 -1020Q1692 -1076 1650 -1076Q1643 -1076 1616 -1067.5Q1589 -1059 1583 -1059Q1575 -1059 1571 -1062.5Q1567 -1066 1561 -1066V-1096Q1561 -1121 1629 -1196Q1695 -1268 1719 -1278Q1780 -1303 1845 -1303Q1957 -1303 1994 -1254Q2008 -1235 2032 -1177Q2056 -1119 2079 -1087Q2141 -1026 2325 -825Q2376 -767 2416 -691Q2419 -687 2427 -687Q2433 -687 2448 -690Q2463 -693 2471 -693Q2598 -693 2680 -569Q2747 -467 2747 -358ZM2654 -567Q2619 -603 2556 -640Q2558 -632 2558 -624Q2558 -608 2545 -586Q2532 -564 2532 -556Q2532 -546 2587 -495ZM2723 -379V-399Q2711 -451 2675 -535Q2648 -515 2607 -474Q2647 -438 2723 -379ZM2532 -629Q2532 -640 2521 -651.5Q2510 -663 2499 -663H2439Q2458 -622 2488 -547Q2532 -606 2532 -629ZM2695 -358L2587 -460L2468 -341Q2540 -269 2576 -245ZM2561 -480Q2523 -518 2511 -524Q2493 -497 2449 -464Q2405 -431 2381 -423Q2405 -397 2448 -361Q2531 -444 2561 -480ZM2717 -331Q2661 -283 2596 -218Q2621 -193 2664 -157Q2690 -213 2717 -331ZM2468 -527Q2468 -559 2370 -705Q2287 -830 2269 -849Q2168 -946 2050 -1075Q1964 -1238 1963 -1240Q1934 -1274 1848 -1274Q1772 -1274 1742 -1256.5Q1712 -1239 1625 -1142Q1673 -1158 1685 -1158Q1702 -1158 1706 -1154V-1134Q1678 -1129 1624 -1102Q1626 -1102 1631.5 -1104Q1637 -1106 1645 -1106Q1757 -1106 1764 -940L1729 -707L1899 -309H1929Q1967 -309 2177 -369Q2081 -463 1986 -556Q1881 -659 1846 -714Q1822 -751 1822 -783Q1822 -828 1850.5 -859Q1879 -890 1924 -890Q1965 -890 1968 -877Q1965 -874 1963 -869Q1961 -864 1958 -861Q1949 -861 1938.5 -864Q1928 -867 1921 -867Q1894 -867 1872.5 -841Q1851 -815 1851 -789Q1851 -736 1877 -705Q1930 -642 2073 -505Q2207 -378 2212 -378Q2468 -488 2468 -527ZM2549 -224Q2508 -265 2442 -320Q2375 -253 2334 -213L2436 -111Q2502 -167 2549 -224ZM2648 -132Q2618 -162 2570 -198Q2511 -149 2462 -90L2552 0Q2600 -41 2648 -132ZM2421 -346Q2360 -407 2349 -407Q2334 -407 2282 -375Q2227 -341 2218 -323Q2251 -289 2314 -233Q2397 -316 2421 -346ZM2532 15Q2447 -70 2436 -70Q2417 -70 2322 44Q2388 110 2395 110Q2399 110 2532 15ZM2415 -96Q2374 -137 2308 -192L2194 -79Q2272 -1 2302 17Q2344 -22 2415 -96ZM2293 -212Q2257 -249 2191 -303Q2149 -261 2078 -189L2174 -99ZM2177 -324L2151 -332Q2077 -310 1973 -289Q1988 -274 2017.5 -247.5Q2047 -221 2058 -210ZM1874 -304Q1845 -373 1790 -493Q1726 -618 1715 -638Q1664 -731 1610 -796Q1572 -842 1391 -1023Q1371 -1043 1364 -1069Q1332 -1189 1286 -1224Q1250 -1251 1156 -1251Q1093 -1251 1047 -1224Q1009 -1202 938 -1130Q970 -1146 1008 -1146Q1029 -1146 1031 -1143V-1122Q998 -1116 932 -1090Q950 -1094 978 -1094Q1025 -1094 1062 -1043Q1095 -997 1095 -946Q1095 -939 1077.5 -813.5Q1060 -688 1060 -681Q1060 -630 1094 -561Q1151 -448 1157 -433Q1193 -339 1206 -266H1554Q1419 -394 1159 -662Q1136 -688 1136 -742Q1136 -778 1167 -823Q1202 -873 1237 -873Q1257 -873 1287 -863V-848L1278 -838Q1268 -844 1243 -844Q1165 -844 1165 -745Q1165 -698 1178 -682Q1178 -681 1340 -519Q1521 -337 1597 -270Q1605 -268 1616 -268ZM2369 125L2296 58L2183 171Q2215 203 2218 203Q2231 203 2298 167Q2365 131 2369 125ZM2276 38Q2204 -34 2168 -58Q2085 25 2061 55Q2097 92 2163 151ZM2148 -85Q2112 -121 2052 -169Q1968 -85 1944 -55Q1979 -24 2040 29Q2124 -55 2148 -85ZM2031 -195Q1965 -261 1935 -285Q1858 -208 1828 -172Q1861 -138 1924 -82Q2001 -159 2031 -195ZM1886 -272Q1837 -266 1747 -254Q1769 -230 1808 -198Q1835 -226 1886 -272ZM2183 213Q2170 200 2170 192Q2152 198 2119 231Q2128 228 2151 222Q2174 216 2183 213ZM2142 172L2034 70L1927 177Q2006 256 2020 256Q2053 256 2075 233Q2116 190 2142 172ZM2014 49L1924 -41Q1888 -11 1810 67L1906 157ZM1898 -61Q1865 -101 1802 -151Q1763 -115 1694 -44L1790 46Q1829 7 1898 -61ZM1781 -178Q1709 -250 1697 -250Q1660 -250 1638 -232Q1605 -199 1572 -166Q1609 -127 1674 -70Q1730 -116 1781 -178ZM1601 -237H1496Q1515 -217 1552 -186ZM1973 266Q1943 225 1906 198Q1878 220 1817 283ZM1886 177Q1796 87 1790 87Q1784 87 1665 206Q1698 240 1761 297ZM1770 67Q1680 -23 1674 -23Q1668 -23 1549 96Q1615 162 1645 186ZM1653 -50Q1636 -65 1599.5 -98Q1563 -131 1546 -146Q1462 -62 1426 -20Q1462 16 1528 75Q1573 33 1653 -50ZM1531 -166Q1458 -239 1453 -239Q1386 -239 1370 -230Q1340 -214 1293 -148L1406 -41ZM1333 -242Q1266 -234 1200 -243Q1230 -203 1273 -175ZM1175 -268V-295Q1175 -345 1059 -563Q955 -756 912 -814Q843 -894 741 -1011Q716 -1040 712 -1051Q644 -1234 475 -1234Q418 -1234 377 -1211Q340 -1190 265 -1120Q253 -1090 253 -1094Q321 -1135 350 -1135Q358 -1135 359 -1127Q361 -1112 362 -1110Q329 -1101 286 -1079Q288 -1079 296 -1080.5Q304 -1082 312 -1082Q359 -1082 392 -1020Q420 -968 420 -925Q420 -918 399.5 -803Q379 -688 379 -681Q379 -691 389 -637Q386 -612 387 -572Q400 -523 422 -496Q454 -457 570 -419Q675 -388 780 -356Q689 -440 598 -524Q461 -660 461 -722Q461 -768 501.5 -811.5Q542 -855 592 -855Q603 -855 606 -852V-837Q484 -800 484 -725Q484 -686 651 -513Q812 -346 841 -339Q1100 -274 1144 -274Q1169 -274 1175 -268ZM1711 295Q1687 270 1639 227L1560 295L1580 303Q1673 302 1711 295ZM1624 206Q1582 164 1522 116Q1454 183 1409 236Q1481 308 1502 308Q1522 308 1624 206ZM1508 96Q1472 60 1400 0L1287 113Q1324 152 1389 209ZM1380 -26L1266 -134L1147 -21Q1257 87 1264 87Q1283 87 1380 -26ZM1246 -154Q1155 -245 1141 -245Q1135 -245 1025 -137Q1061 -101 1133 -41ZM1100 -254Q915 -291 926 -291Q911 -291 891 -271L1005 -157Q1041 -191 1100 -254ZM1438 307Q1410 265 1382 256Q1364 273 1340 301Q1407 301 1438 307ZM1368 230Q1332 194 1260 134L1153 241Q1172 265 1207 295Q1224 302 1284 302Q1298 302 1368 230ZM1240 107Q1199 66 1127 6Q1065 57 1019 113Q1058 153 1133 221Q1193 162 1240 107ZM1106 -21Q1034 -93 1004 -117L891 -9Q927 27 999 87Q1038 48 1106 -21ZM984 -137L871 -250Q829 -211 757 -137L871 -29Q901 -54 984 -137ZM850 -271Q831 -293 796 -323Q743 -349 708 -349Q691 -349 624 -265L737 -157ZM670 -353Q583 -382 521 -413L496 -387L603 -285ZM378 -513Q369 -569 349 -628Q328 -628 313 -625Q298 -622 298 -622V-596Q345 -521 378 -513ZM490 -423Q484 -426 467 -432Q450 -438 444 -441Q456 -427 482 -408Q487 -413 490 -423ZM1164 295Q1151 281 1126 262L1101 289Q1141 287 1164 295ZM1112 241L993 128L880 242Q924 275 958 278Q1037 285 1042 285Q1054 285 1112 241ZM973 107Q901 35 871 11Q829 51 757 125Q804 163 859 221Q901 181 973 107ZM327 -503Q279 -587 261 -623Q214 -598 183 -550Q162 -512 141 -474Q168 -446 219 -402Q257 -441 327 -503ZM850 -9Q808 -51 731 -117Q692 -80 624 -9Q663 30 737 99Q770 72 850 -9ZM711 -143L603 -250Q561 -211 490 -137Q577 -50 603 -35Q662 -84 711 -143ZM577 -271Q505 -343 475 -367Q436 -330 368 -259Q418 -199 463 -157Q530 -214 577 -271ZM455 -387Q383 -459 347 -489Q268 -410 240 -375Q270 -350 341 -279Q379 -309 455 -387ZM839 242Q825 228 790 192.5Q755 157 737 139L664 213Q782 243 821 243Q831 243 839 242ZM193 -381Q152 -422 131 -436V-320ZM717 119Q669 71 597 11L490 113Q586 203 626 203Q636 203 717 119ZM321 -259Q249 -331 213 -361Q135 -281 135 -277Q135 -216 213 -151ZM583 -9Q535 -57 463 -117L356 -15L469 93Q510 55 583 -9ZM443 -143Q371 -215 341 -239L234 -131Q281 -92 335 -35Q374 -72 443 -143ZM194 -132L186 -141L180 -135L188 -127ZM315 -15L212 -116Q209 -95 240 -54Q261 -25 283 4Q287 5 296 6ZM444 109Q412 70 335 6L309 32Q374 88 438 122ZM1839 -1181Q1839 -1170 1823 -1155Q1807 -1140 1796 -1140Q1784 -1140 1765 -1154Q1746 -1168 1746 -1184Q1746 -1193 1762.5 -1207.5Q1779 -1222 1790 -1222Q1802 -1222 1820.5 -1208.5Q1839 -1195 1839 -1181ZM1159 -1138Q1159 -1111 1118 -1111Q1103 -1111 1084.5 -1125Q1066 -1139 1066 -1155Q1066 -1193 1115 -1193Q1130 -1193 1146 -1169Q1159 -1148 1159 -1138ZM478 -1095Q447 -1076 429 -1076Q412 -1076 400 -1101Q391 -1120 391 -1135Q391 -1175 429 -1175Q449 -1175 462 -1149Q470 -1132 478 -1115ZM1807 -1186Q1802 -1191 1800 -1199H1779Q1771 -1180 1799 -1159ZM1128 -1162Q1123 -1167 1121 -1175H1100Q1092 -1156 1120 -1135ZM449 -1133Q444 -1138 442 -1146H421Q413 -1127 441 -1106Z"/>
</svg>