<svg xmlns="http://www.w3.org/2000/svg" viewBox="0 -2048 2048 2048">
	<path fill="currentColor" d="M1942 -703Q1883 -633 1760 -586Q1754 -584 1536 -518Q1558 -471 1601 -388Q1601 -388 1673 -290Q1719 -226 1716 -191Q1699 -163 1645 -163Q1638 -163 1592 -171Q1546 -179 1539 -179Q1533 -179 1497 -166Q1457 -152 1445 -149Q1370 -132 1329 -132Q1324 -132 1262 -141Q1194 -151 1162 -154Q1182 -105 1216 -3L1136 254Q1186 254 1287 270Q1293 272 1331 323V347Q1242 331 1147 331L810 353Q804 353 797 345Q790 337 784 337Q778 337 769 343.5Q760 350 755 351Q736 353 663 353Q586 353 570 351Q565 350 554.5 340.5Q544 331 537 331Q530 331 513 340.5Q496 350 490 352Q490 346 479 335Q512 263 671 263Q677 263 715 265.5Q753 268 760 268Q787 268 798 249Q825 201 835 170Q884 10 884 -5Q884 -36 852 -166Q822 -291 808 -328Q779 -402 749 -454Q745 -467 728 -483Q715 -486 491 -523Q436 -532 288 -589Q100 -660 100 -706Q100 -722 154 -749Q248 -796 349 -825Q411 -841 537 -877Q526 -958 503 -1118Q493 -1188 427 -1230Q395 -1245 337 -1276Q344 -1289 359 -1308Q388 -1319 448 -1354Q461 -1376 491 -1415Q567 -1490 663 -1490Q745 -1490 788 -1445Q961 -1266 1160 -1020Q1163 -1016 1183 -971Q1200 -933 1220 -922Q1259 -918 1340 -907Q1836 -819 1942 -703ZM1910 -703Q1786 -779 1602 -825Q1539 -841 1258 -894Q1380 -793 1528 -543Q1717 -598 1719 -599Q1829 -638 1910 -703ZM1178 -928Q1088 -1090 773 -1429Q741 -1464 658 -1464Q650 -1464 630 -1460Q606 -1456 602 -1456Q588 -1455 542 -1420Q489 -1381 489 -1356Q489 -1349 501 -1327Q515 -1302 516 -1298Q505 -1287 497 -1287Q505 -1287 515 -1277Q512 -1274 511 -1267.5Q510 -1261 507 -1258Q423 -1272 405 -1272Q502 -1245 528 -1116Q546 -998 564 -880Q610 -883 688 -902Q715 -926 761 -956Q826 -979 918 -979Q1001 -979 1001 -979V-953H866Q793 -954 731 -907Q893 -932 1000 -932ZM489 -1291Q483 -1309 472 -1337Q444 -1323 400 -1303Q429 -1300 489 -1291ZM1500 -539Q1457 -628 1365 -742Q1267 -864 1206 -895Q1209 -781 1169 -738Q1129 -695 1031 -695Q978 -695 974 -696Q1037 -628 1037 -569Q1037 -500 960 -500Q878 -500 791 -609Q720 -698 690 -788Q685 -804 688 -873Q607 -865 568 -852Q581 -767 712 -559Q749 -500 786 -496Q897 -484 1050 -484Q1247 -484 1500 -539ZM1184 -879Q1184 -887 1181 -892Q1178 -897 1178 -899L984 -911Q896 -911 711 -878V-814Q711 -754 797 -641Q890 -521 960 -521Q1016 -521 1016 -571Q1016 -593 971 -656Q946 -689 921 -723L930 -732Q1058 -716 1042 -716Q1184 -716 1184 -879ZM1694 -207Q1682 -243 1643 -292Q1589 -359 1574 -383Q1566 -396 1509 -510Q1225 -463 1023 -463L769 -473Q794 -428 838 -354Q839 -352 1002 -173Q1137 -24 1137 13Q1137 55 1102 161Q1066 273 1044 278Q991 290 913 297Q804 306 795 307Q806 318 806 325L1034 310H1263Q1271 310 1274 303.5Q1277 297 1279 297Q1250 294 1192 288.5Q1134 283 1105 280L1189 0Q1137 -182 1137 -171Q1137 -187 1140 -190H1155Q1240 -158 1337 -158Q1407 -158 1430 -165Q1444 -169 1487 -188Q1525 -205 1531 -205Q1538 -205 1585 -197.5Q1632 -190 1639 -190Q1673 -190 1694 -207ZM715 -512Q665 -592 615 -672Q559 -770 546 -847H528Q324 -789 322 -788Q198 -749 143 -714Q131 -707 131 -696Q254 -611 426 -568Q570 -540 715 -512ZM1110 10Q1110 -1 1103 -15Q1094 -33 1036.5 -93.5Q979 -154 979 -150Q979 -152 989 -85Q997 -26 993 -9Q980 42 933 150Q890 248 890 251V268H954Q990 269 1034 256Q1049 227 1079 132Q1110 33 1110 10ZM968 -37Q968 -134 950 -178Q938 -206 899 -250Q844 -310 843 -311L910 0Q852 214 808 278Q826 276 843 273Q860 270 866 256Q875 233 890 172Q910 127 929 83Q968 -9 968 -37ZM757 290H608Q580 288 547 305Q575 326 577 326H735Q741 314 757 290ZM678 -1317Q599 -1300 610 -1300Q595 -1300 548 -1322Q545 -1341 570 -1360Q595 -1379 610 -1379Q662 -1379 678 -1340ZM647 -1335Q629 -1353 613 -1353Q615 -1353 579 -1335Q590 -1324 590 -1322H623Q634 -1322 647 -1335Z"/>
</svg>