<svg xmlns="http://www.w3.org/2000/svg" viewBox="22.3 -1623.7 2093.4 2097.4">
	<path fill="currentColor" d="M2038 -844L2035 -421Q2012 -430 1908 -446.5Q1804 -463 1776 -463Q1727 -463 1674 -419Q1695 -369 1713 -343Q1741 -308 1770 -273Q1811 -221 1811 -201Q1811 -151 1734 -151Q1716 -151 1680.5 -158Q1645 -165 1627 -165Q1613 -165 1577 -152Q1532 -135 1526 -134Q1436 -110 1406 -115L1232 -144Q1243 -103 1282 18L1197 292Q1250 292 1350 303Q1363 306 1383 332.5Q1403 359 1404 373Q1404 373 1404 385Q1387 393 1389 393Q1388 393 1364 388Q1356 367 1255 372L849 393Q843 393 827 375Q802 393 796 393H600Q602 393 568 368L526 396Q507 382 507 374Q507 334 582 312Q637 295 689 295Q710 295 754 298.5Q798 302 820 302Q843 284 889 169Q935 54 935 20Q935 -40 844 -329H264Q209 -329 154.5 -406Q100 -483 100 -555Q100 -746 224 -784Q300 -807 397 -810Q338 -808 573 -808Q540 -823 512 -879Q486 -931 486 -971Q486 -974 498 -992Q520 -979 550 -967Q553 -973 553 -980Q553 -1032 536.5 -1135.5Q520 -1239 417 -1287Q394 -1298 356 -1323Q367 -1355 410 -1374Q465 -1399 476 -1410Q487 -1430 515 -1468Q590 -1546 689 -1546Q793 -1546 880 -1460Q949 -1377 1019 -1294Q1124 -1179 1158 -1137Q1239 -1039 1274 -964Q1413 -945 1544 -875Q1588 -851 1626 -829Q1672 -802 1680 -799Q1698 -792 1739 -792Q1802 -792 1890 -811Q1964 -827 2038 -844ZM1243 -968Q1220 -1022 1131 -1120Q1003 -1262 998 -1268Q934 -1349 870 -1430Q784 -1521 696 -1521Q648 -1521 589 -1492Q574 -1485 545 -1455Q514 -1422 514 -1409Q514 -1399 542 -1352L519 -1343Q513 -1351 495 -1388Q458 -1374 414 -1347H428Q500 -1347 542 -1326L532 -1304Q506 -1312 416 -1320Q525 -1274 553 -1167Q567 -1063 581 -958Q662 -925 724 -925Q734 -925 757 -943Q789 -970 790 -970Q858 -1013 926 -1013H1054V-984L998 -985Q846 -988 777 -933L1129 -978Q1107 -975 1243 -968ZM2014 -452V-813Q1846 -764 1720 -764Q1673 -764 1632 -793Q1595 -820 1558 -847Q1369 -950 1134 -950Q1131 -950 994 -934L712 -901Q666 -896 514 -953Q547 -813 656 -813Q691 -813 761 -824.5Q831 -836 866 -836Q866 -836 943 -826L1097 -806Q1097 -806 1209 -806V-781H336Q244 -781 189.5 -717.5Q135 -654 135 -554Q135 -496 183 -428Q236 -354 294 -354H1327Q1367 -354 1487 -389Q1604 -423 1694 -460Q1760 -487 1787 -487Q1830 -487 2014 -452ZM902 -805V-811H833V-805ZM1783 -201Q1783 -216 1751 -252Q1728 -277 1706 -301Q1692 -320 1649 -406Q1452 -322 1174 -322Q1163 -322 903 -328Q987 -236 1071 -144Q1198 0 1198 32Q1198 71 1163 183Q1124 306 1097 319Q1087 324 1043 324Q884 324 840 349Q851 366 871 365L1083 352Q1181 346 1189 346Q1207 346 1337 350Q1335 337 1348 335Q1318 327 1255 326Q1192 325 1162 317L1254 20Q1253 16 1221 -71Q1198 -134 1198 -159Q1198 -177 1203 -182Q1300 -144 1403 -144Q1472 -144 1540 -167Q1617 -193 1613 -193Q1635 -193 1679 -185.5Q1723 -178 1745 -178Q1783 -178 1783 -201ZM1173 34Q1173 19 1111 -57Q1049 -133 1030 -147L1047 -2Q1049 12 1031 49Q1019 74 1006 100Q953 228 935 305H995Q1064 305 1088 294Q1097 290 1114 237Q1173 50 1173 34ZM1022 7Q1022 -113 996 -177Q984 -206 944 -248Q911 -280 879 -312L959 23Q917 167 914 175Q883 268 847 315Q894 307 909 308Q931 196 1012 27Q1022 6 1022 7ZM798 331L656 326Q636 325 577 342Q603 368 610 368L776 361Q781 337 798 331ZM714 -1376L713 -1367Q663 -1346 637 -1346Q615 -1346 577 -1375Q594 -1430 645 -1430Q720 -1430 714 -1376ZM682 -1384Q660 -1402 647 -1402Q628 -1402 610 -1383Q626 -1374 644 -1374Q662 -1374 682 -1384Z"/>
</svg>