<svg xmlns="http://www.w3.org/2000/svg" viewBox="26.6 -1580.4 1974.7 1980.7">
	<path fill="currentColor" d="M1928 -609H1651Q1690 -524 1781 -361Q1809 -329 1862 -262Q1870 -251 1870 -235Q1870 -190 1795 -190Q1779 -190 1749 -195.5Q1719 -201 1703 -201Q1677 -201 1593.5 -177.5Q1510 -154 1479 -154Q1456 -154 1411 -165.5Q1366 -177 1342 -177Q1335 -177 1321 -176Q1339 -128 1374 -31L1295 229Q1318 238 1374 239Q1426 240 1447 250Q1482 267 1488 316Q1380 305 1342 305Q1338 305 987 322Q979 322 965 316.5Q951 311 943 311Q931 311 923 320Q886 323 822 323H757Q737 323 698 301Q683 316 661 327L643 309Q669 233 820 233Q837 233 871.5 236.5Q906 240 923 240Q933 240 942 237Q964 229 1006 113Q1045 3 1045 -31Q1045 -71 1007 -214Q969 -352 949 -395Q922 -452 816 -614Q777 -615 772 -615Q712 -615 596.5 -583Q481 -551 421 -551Q340 -551 228 -607Q100 -672 100 -743Q130 -770 146 -770Q159 -770 173 -758L341 -1358L516 -790Q521 -790 532 -793Q543 -796 549 -796Q562 -796 617.5 -772.5Q673 -749 687 -749Q693 -749 732 -759L733 -758Q737 -758 737 -767Q737 -784 721 -832Q703 -886 701 -903L672 -1101Q661 -1174 615 -1219Q581 -1251 502 -1288Q500 -1307 545 -1332Q576 -1349 607 -1366Q626 -1395 675 -1447Q698 -1464 744 -1485Q795 -1507 818 -1507Q891 -1507 953 -1458Q988 -1429 1052 -1350Q1142 -1249 1314 -1041Q1503 -792 1555 -776Q1586 -772 1647 -764L1693 -1297H1885ZM1499 -787L1376 -906Q1371 -846 1354 -803ZM1349 -905Q1349 -956 1319 -994Q1282 -1040 1074 -1276Q1027 -1333 929 -1441Q915 -1455 874 -1467.5Q833 -1480 810 -1480Q774 -1480 716 -1443Q653 -1404 653 -1371Q653 -1359 663 -1336.5Q673 -1314 674 -1302H669Q671 -1298 671 -1293Q671 -1282 665 -1271Q622 -1285 566 -1285Q631 -1247 658 -1208Q694 -1157 708 -1022Q726 -848 764 -765Q856 -781 856 -781Q843 -831 843 -865Q843 -899 853 -924.5Q863 -950 918 -974Q968 -995 1001 -995H1160L1156 -972Q1146 -972 1117 -973Q1092 -974 1077 -974Q867 -974 867 -872Q867 -829 884 -786Q959 -807 1102 -807Q1139 -807 1212 -804.5Q1285 -802 1320 -802Q1349 -850 1349 -905ZM1906 -635L1864 -1271H1714L1673 -738L1371 -775Q1330 -780 1181 -780Q1031 -780 932 -768Q875 -761 763 -738Q690 -723 682 -723Q664 -723 614 -746.5Q564 -770 546 -770Q531 -770 524 -766L545 -696L566 -708L570 -679Q513 -639 413 -639Q341 -639 238.5 -691.5Q136 -744 146 -744Q133 -744 126 -732Q131 -675 252 -623Q357 -577 426 -577Q519 -577 677 -635ZM652 -1304Q648 -1320 636 -1350Q593 -1332 559 -1315Q597 -1315 652 -1304ZM1175 -567Q1175 -595 1169 -607H1009Q1064 -545 1128 -545Q1153 -545 1175 -567ZM1849 -235Q1811 -278 1746 -372Q1706 -453 1618 -612H1197Q1203 -598 1203 -583Q1203 -554 1175 -536Q1151 -519 1121 -519Q1052 -519 965 -613H852Q931 -466 1175 -178Q1211 -137 1247 -97Q1296 -37 1296 -10Q1296 20 1262 127Q1226 239 1208 248Q1181 262 1088 265Q990 269 951 283Q961 284 962 295Q969 297 977 298L1184 284Q1288 277 1288 277Q1289 277 1425 285Q1428 272 1428 265Q1373 263 1264 250L1348 -26Q1296 -169 1296 -206Q1296 -213 1299 -216Q1408 -180 1492 -180Q1550 -180 1631 -207Q1658 -217 1687 -227Q1706 -227 1743.5 -219Q1781 -211 1800 -211Q1834 -211 1849 -235ZM521 -686L342 -1266L196 -745Q217 -730 276 -702L335 -912L360 -927L440 -665Q476 -667 521 -686ZM412 -665L350 -870L300 -691Q346 -665 412 -665ZM1264 -12Q1264 -30 1257.5 -42Q1251 -54 1198.5 -112Q1146 -170 1139 -172Q1139 -152 1146.5 -110.5Q1154 -69 1154 -48Q1154 -13 1102 98.5Q1050 210 1050 221V243H1082Q1150 243 1189 232Q1205 228 1235 120Q1264 17 1264 -12ZM1129 -66Q1129 -168 1111 -209Q1098 -238 1063 -271Q1010 -321 1005 -326Q1008 -311 1046 -181Q1071 -93 1071 -33Q1071 6 1031 110Q994 204 967 248Q998 242 1023 243Q1030 185 1062 111Q1083 67 1103 24Q1129 -34 1129 -66ZM919 267Q905 267 875.5 263Q846 259 831 259Q774 259 711 277Q733 301 740 301H892Q906 273 919 267ZM841 -1335Q813 -1313 768 -1313Q728 -1313 711 -1336Q712 -1358 731.5 -1375Q751 -1392 773 -1392Q840 -1392 841 -1335ZM816 -1349Q803 -1366 771 -1366Q751 -1366 738 -1349Q748 -1337 765 -1337Q798 -1337 816 -1349Z"/>
</svg>