<svg xmlns="http://www.w3.org/2000/svg" viewBox="0 -2048 2048 2048">
	<path fill="currentColor" d="M2136 -267Q2136 -236 2063 -218Q2010 -204 1963 -204Q1914 -204 1831 -235.5Q1748 -267 1729 -267Q1723 -267 1679 -252Q1629 -234 1609 -229Q1503 -204 1369 -204Q1368 -204 1295 -208Q1222 -212 1184 -212Q1238 -160 1238 -104Q1238 -86 1231 -50.5Q1224 -15 1224 3Q1224 16 1226 28Q1233 33 1304 59Q1360 79 1380 110V141Q1380 141 1285 141Q1269 141 1235 133Q1201 125 1196 125Q1189 125 1095 130.5Q1001 136 994 136Q987 136 984 142Q981 148 974 148Q968 148 903 139.5Q838 131 832 131Q826 131 767.5 139.5Q709 148 703 148Q697 148 676.5 142Q656 136 648 136Q642 136 627.5 139Q613 142 607 142Q600 142 595.5 136.5Q591 131 584 131Q575 131 553 142Q532 134 532 113Q532 86 593 68Q631 56 662 54Q732 48 776 31Q803 20 819 -11Q833 -37 846 -64Q896 -144 896 -155Q896 -166 858 -222.5Q820 -279 793 -301Q763 -308 707 -333Q506 -473 439 -538Q313 -659 313 -772Q313 -850 363 -947Q452 -1119 452 -1173Q452 -1226 364 -1245Q314 -1250 264 -1255Q251 -1256 219.5 -1263.5Q188 -1271 181 -1271Q184 -1271 107 -1260Q107 -1262 103.5 -1270Q100 -1278 100 -1286Q100 -1306 167 -1332Q256 -1365 263 -1370Q295 -1397 355 -1436Q439 -1473 478 -1473Q615 -1473 648 -1294L584 -971Q584 -947 605 -931Q621 -919 630 -919Q637 -919 691 -928Q745 -937 752 -937Q739 -937 864 -921Q956 -909 1153 -871Q1173 -866 1361 -788Q1587 -697 2025 -502Q2052 -489 2061 -466Q2049 -443 2017 -430Q1968 -413 1963 -409Q2007 -380 2052 -351Q2136 -291 2136 -267ZM2107 -271Q2072 -308 1999 -354Q1918 -406 1882 -406L1317 -371Q1120 -371 935 -430Q696 -506 544 -663Q558 -677 563 -677Q705 -542 924 -466Q1116 -400 1300 -400Q1563 -400 1931 -436Q2006 -443 2026 -473Q1760 -593 1494 -713Q1153 -863 928 -880Q895 -882 819 -896Q747 -908 743 -908Q736 -908 689 -902Q642 -896 636 -896Q555 -896 555 -974Q555 -981 587 -1131Q619 -1281 619 -1288Q619 -1342 585 -1391Q543 -1450 478 -1450Q458 -1450 396 -1425Q325 -1395 325 -1372Q325 -1364 332 -1352.5Q339 -1341 340 -1337Q345 -1302 337 -1279Q385 -1263 468 -1220Q475 -1214 475 -1167Q475 -1080 392 -941Q336 -847 336 -769Q336 -647 529 -491Q709 -345 863 -312Q894 -306 943 -272Q1007 -231 1071 -190Q1142 -142 1171 -96Q1173 -93 1173 -60Q1173 46 1096 69Q1100 79 1094 83Q1073 87 1053 91Q1025 98 1024 112Q1072 109 1144 102Q1204 96 1210 96Q1218 96 1251.5 104.5Q1285 113 1291 113Q1305 113 1305 92Q1267 78 1203 51Q1211 -16 1205 -144Q1201 -161 1169.5 -194.5Q1138 -228 1138 -233Q1138 -241 1142 -245L1349 -227Q1389 -227 1655 -275Q1666 -277 1694 -287Q1719 -296 1726 -296Q1751 -296 1819.5 -264.5Q1888 -233 1966 -233Q2090 -233 2107 -271ZM307 -1335Q307 -1340 300 -1352Q276 -1344 250 -1331Q259 -1331 278.5 -1333Q298 -1335 307 -1335ZM323 -1283Q315 -1291 318 -1311Q280 -1294 209 -1296L222 -1283Q261 -1269 323 -1283ZM1150 -66Q1150 -96 1090 -141Q1046 -174 1007 -192Q1005 -147 954 -71Q900 8 896 37Q932 61 951 61Q1049 61 1123 26Q1150 13 1150 -66ZM982 -215Q936 -241 850 -284Q861 -265 898 -211Q925 -171 925 -164Q925 -148 873 -48Q818 55 800 60Q782 61 754 70Q754 74 748 83Q733 84 695 97V119H719Q735 120 860 100Q874 75 890 70Q861 58 861 41Q861 19 923 -72.5Q985 -164 985 -199Q985 -208 982 -215ZM976 85H956Q943 90 943 113Q959 105 976 85ZM636 98L615 90Q611 96 611 103Q611 109 615 113Q621 113 636 98ZM451 -1318Q446 -1318 429.5 -1312Q413 -1306 407 -1306Q404 -1312 395 -1328Q386 -1344 383 -1350Q397 -1357 433 -1369Q436 -1363 451 -1318Z"/>
</svg>