<svg xmlns="http://www.w3.org/2000/svg" viewBox="0 -2048 2048 2048">
	<path fill="currentColor" d="M2201 -111Q2189 -106 2133 -92L1946 -129V-124Q1989 -103 2069 -64Q2099 -50 2129 -36Q2166 -16 2166 3Q2166 37 2070 84Q1985 127 1961 127Q1959 127 1802 49Q1635 -34 1567 -52H1560L1684 108Q1638 97 1590 107Q1620 136 1620 160Q1620 223 1530 234L1227 180Q1227 186 1230 197.5Q1233 209 1233 215Q1230 218 1220 221.5Q1210 225 1207 228Q1189 207 1172 199Q1143 228 1136 228Q1129 228 1012.5 216.5Q896 205 889 205L575 222Q569 222 540.5 216Q512 210 504 210Q506 210 470 228Q460 220 444 201Q489 156 518 153Q584 151 725 132Q740 128 862 89Q945 62 1002 62Q1009 62 1191.5 89Q1374 116 1381 116Q1391 116 1394 113Q1351 85 1257 30Q1126 -45 1100 -45Q1094 -45 1029 -29Q954 -11 923 -5Q685 38 480 38Q368 38 302 7Q302 -2 311 -16Q320 -30 328 -31Q646 -61 895 -119Q753 -172 607 -330Q451 -499 434 -641Q424 -723 428 -784Q429 -797 437 -828.5Q445 -860 445 -876Q445 -887 442 -896Q433 -925 380.5 -939Q328 -953 254 -953Q155 -953 107 -930Q107 -932 103.5 -936.5Q100 -941 100 -950Q100 -969 121.5 -1004Q143 -1039 161 -1046Q175 -1051 334 -1079Q530 -1113 616 -1113Q699 -1113 704 -1111Q790 -1076 804 -955Q812 -864 820 -773Q837 -718 881 -705Q1010 -670 1261 -588Q1303 -572 1424 -507Q1535 -448 1539 -448Q1554 -448 1658 -539Q1755 -623 1779.5 -650.5Q1804 -678 1804 -701Q1804 -775 1714 -849Q1698 -862 1548 -961Q1572 -1011 1572 -1081Q1572 -1138 1549 -1231H1713L1720 -1224Q1720 -1209 1717 -1174.5Q1714 -1140 1714 -1134Q1714 -1071 1733 -1041Q1793 -946 1907 -857Q2017 -772 2104 -749Q2124 -744 2124 -724Q2124 -713 2078 -650Q2029 -584 1993 -550Q1919 -481 1738 -351Q1830 -305 1950 -254Q2017 -231 2083 -208Q2168 -176 2201 -132ZM2088 -720Q1964 -765 1846 -865Q1685 -1000 1685 -1142Q1685 -1167 1690 -1192L1696 -1201H1585V-972Q1665 -940 1747 -853Q1833 -761 1833 -695Q1833 -645 1716 -543Q1636 -474 1572 -433L1706 -365Q1799 -411 1918 -516Q2053 -634 2088 -720ZM2166 -134Q2100 -174 1965 -224Q1808 -283 1772 -301Q1542 -421 1250 -565Q1154 -593 968 -650Q949 -614 849 -543Q759 -480 759 -457Q759 -428 850 -367Q924 -317 962 -302Q1018 -280 1117 -248Q1251 -219 1503 -201Q1791 -179 1794 -179Q1889 -166 2020 -142Q2129 -122 2133 -122Q2150 -122 2166 -134ZM2136 -2Q2066 -40 1995 -78Q1911 -122 1849 -137Q1745 -161 1564 -171Q1338 -183 1290 -189Q968 -229 781 -380Q729 -422 729 -460Q729 -502 825 -561Q927 -624 937 -654Q903 -667 870 -679Q830 -694 813 -720Q802 -736 792 -808Q784 -861 772 -968Q766 -1047 728 -1069Q702 -1084 616 -1084Q527 -1084 427 -1064Q468 -982 468 -983Q468 -981 458 -971Q340 -981 320 -980Q446 -965 466 -907Q473 -887 466 -855Q456 -810 456 -802Q448 -654 481 -569Q529 -445 676 -303Q827 -157 939 -135Q1137 -95 1495 144Q1495 161 1485 169Q1482 169 1272 125Q1110 92 1002 92Q932 92 877 112Q773 148 743 156Q703 166 601 171Q588 179 588 192L833 172L1091 191L1078 175Q1010 172 877 158Q877 148 880 140.5Q883 133 883 132Q911 127 987 127Q1081 127 1306 166Q1531 205 1527 205Q1590 205 1590 160Q1590 156 1536 84Q1570 75 1625 78Q1569 -2 1507 -95L1516 -104L1966 98Q2030 85 2133 12Q2135 8 2136 -2ZM420 -1008Q410 -1028 395 -1060H359Q356 -1060 209 -1034Q199 -1032 154 -1002Q232 -1018 254 -1018Q257 -1018 322.5 -1013Q388 -1008 420 -1008ZM289 -980V-991H237V-980ZM1073 -65Q1056 -70 1002 -89Q960 -104 952 -104Q946 -104 840 -79Q724 -52 684 -46Q571 -28 361 0Q439 9 483 9Q618 9 799 -19Q936 -42 1073 -65ZM568 -1047Q571 -1034 553 -1011.5Q535 -989 521 -989Q495 -989 492 -1024Q492 -1038 504.5 -1052Q517 -1066 524 -1066Q530 -1066 568 -1047Z"/>
</svg>