<svg xmlns="http://www.w3.org/2000/svg" viewBox="18.9 -1677.1 2010.2 2190.2">
	<path fill="currentColor" d="M1948 432H100V406H241V259H100V233H241V87H100V61H985V-194Q904 -270 755 -394H100V-472H433L242 -1193Q224 -1259 205 -1325Q183 -1410 183 -1457Q183 -1507 223 -1551.5Q263 -1596 312 -1596Q360 -1596 398.5 -1561.5Q437 -1527 437 -1480Q437 -1420 377 -1390L646 -880Q437 -737 437 -669Q437 -654 492 -472H799Q841 -520 997 -530Q1005 -534 1014 -578Q1022 -618 1022 -637Q1022 -831 942 -960Q893 -1021 808 -1149Q794 -1176 794 -1331Q794 -1350 775 -1380.5Q756 -1411 738 -1411Q727 -1411 713.5 -1397.5Q700 -1384 699 -1373H683Q674 -1390 674 -1409Q674 -1442 734 -1510Q793 -1574 821 -1581Q883 -1596 910 -1596Q952 -1596 999.5 -1571.5Q1047 -1547 1067 -1513Q1080 -1483 1120 -1433Q1142 -1420 1185 -1392Q1224 -1361 1274 -1298Q1315 -1247 1355 -1195Q1444 -1081 1634 -863Q1685 -813 1736 -763Q1822 -675 1822 -664Q1822 -636 1801 -636Q1797 -636 1736 -672Q1669 -712 1663 -715H1658L1762 -569L1608 -472H1948V-394H1230Q1289 -319 1289 -265Q1289 -209 1242.5 -167.5Q1196 -126 1139 -126Q1103 -126 1063 -145V61H1948V87H1807V233H1948V259H1807V406H1948ZM1787 -673Q1778 -684 1713 -747Q1598 -858 1527 -941Q1434 -1058 1245 -1291Q1196 -1350 1120 -1402Q1091 -1421 1075.5 -1447Q1060 -1473 1045 -1499Q995 -1570 904 -1570Q866 -1570 821 -1554Q800 -1547 757.5 -1497Q715 -1447 705 -1423Q738 -1458 764 -1458Q770 -1458 782 -1456.5Q794 -1455 798 -1455Q784 -1480 784 -1495Q784 -1523 834 -1523Q949 -1523 949 -1452Q949 -1422 917 -1384Q885 -1346 858 -1346Q852 -1346 847 -1355Q838 -1339 819 -1342L821 -1292Q839 -1330 912 -1364Q980 -1394 1028 -1394Q1043 -1394 1043 -1379Q1043 -1385 1040 -1367Q850 -1344 850 -1258Q850 -1196 918 -1146Q939 -1131 1040 -1078Q1229 -981 1418 -883Q1635 -769 1787 -673ZM923 -1450Q923 -1497 873 -1497H846Q846 -1478 828 -1450Q828 -1443 835 -1437Q855 -1458 871 -1458Q883 -1458 910 -1415Q923 -1434 923 -1450ZM821 -1487V-1489Q821 -1493 815 -1494H813Q806 -1494 806 -1488Q806 -1481 813 -1481H815Q821 -1481 821 -1487ZM880 -1404V-1427Q877 -1427 872.5 -1429.5Q868 -1432 865 -1432Q850 -1432 850 -1411Q850 -1408 860 -1385Q880 -1395 880 -1404ZM832 -1379Q823 -1410 826 -1419Q826 -1419 807 -1419Q816 -1394 832 -1379ZM1723 -575Q1682 -632 1606 -751Q1535 -800 1356 -890Q1208 -962 918 -1115Q827 -1167 821 -1252Q820 -1211 820 -1211Q820 -1163 912 -1052Q997 -948 1082 -845Q1174 -720 1174 -640Q1174 -618 1171.5 -575Q1169 -532 1169 -511Q1141 -508 1066 -493Q1051 -482 1047 -472H1339Q1331 -494 1310 -499Q1307 -499 1267 -500Q1234 -501 1196 -511Q1199 -553 1208 -638L1214 -645Q1242 -638 1297 -620Q1297 -801 1309 -826Q1414 -795 1462 -707Q1502 -633 1584 -486ZM1555 -472Q1490 -600 1396 -755Q1385 -766 1319 -791Q1319 -590 1311 -580Q1308 -576 1304 -576Q1245 -614 1233 -614Q1225 -558 1225 -537V-530Q1267 -527 1310.5 -523Q1354 -519 1367 -472ZM1151 -641V-665Q1151 -726 990 -916Q1048 -813 1048 -672Q1048 -571 1020 -514Q1037 -521 1055 -521L1090 -658Q1110 -652 1151 -641ZM1155 -589Q1155 -599 1144 -613.5Q1133 -628 1123 -628H1104Q1097 -572 1083 -525H1105Q1155 -525 1155 -589ZM1263 -265Q1263 -312 1197 -394H1160Q1243 -327 1262 -250Q1263 -256 1263 -265ZM1781 233V87H1587V233ZM612 -888L341 -1403Q411 -1430 411 -1480Q411 -1516 380 -1543Q349 -1570 312 -1570Q274 -1570 241.5 -1533Q209 -1496 209 -1457Q209 -1426 267 -1199Q295 -1087 414 -645Q411 -660 411 -669Q411 -707 494 -788Q558 -851 612 -888ZM1922 -420V-446H126V-420ZM1241 -221Q1234 -309 1116 -394H1063V-227Q1122 -194 1166 -194Q1202 -194 1241 -221ZM983 -501L949 -498L932 -482L957 -472ZM905 -484L901 -490L874 -482L889 -476ZM1781 406V259H1587V406ZM1037 -243V-394H1011V-261Q1027 -249 1037 -243ZM1561 233V87H1367V233ZM1213 -177Q1189 -168 1166 -168Q1046 -168 822 -394H798Q883 -317 969 -241Q1074 -152 1139 -152Q1178 -152 1213 -177ZM985 -280V-394H859Q930 -323 985 -280ZM1561 406V259H1367V406ZM1341 233V87H1147V233ZM1037 61V-159Q1029 -164 1011 -176V61ZM1341 406V259H1147V406ZM1121 233V87H927V233ZM1121 406V259H927V406ZM901 233V87H707V233ZM901 406V259H707V406ZM681 233V87H487V233ZM681 406V259H487V406ZM461 233V87H267V233ZM461 406V259H267V406Z"/>
</svg>