<svg xmlns="http://www.w3.org/2000/svg" viewBox="0 -2048 2048 2048">
	<path fill="currentColor" d="M1948 432H100V406H241V259H100V233H241V87H100V61H985V-194Q904 -270 755 -394H100V-472H233Q273 -513 407 -522Q428 -546 428 -643Q428 -782 358 -896Q318 -949 277 -1003Q227 -1071 227 -1121V-1221Q227 -1237 211 -1263.5Q195 -1290 180 -1290Q157 -1290 148 -1257H132Q123 -1274 123 -1289Q123 -1318 173.5 -1375.5Q224 -1433 253 -1442Q297 -1455 330 -1455Q426 -1455 470 -1382Q482 -1357 516 -1313Q535 -1302 572 -1277Q597 -1258 643 -1201Q723 -1099 889 -897Q944 -833 1051 -728Q1131 -649 1131 -638Q1131 -613 1110 -613Q1115 -613 988 -683L1078 -555L947 -472H1037Q1077 -513 1211 -522Q1233 -555 1233 -611Q1233 -780 1162 -896Q1119 -948 1046 -1061Q1033 -1088 1033 -1221Q1033 -1237 1017 -1263.5Q1001 -1290 986 -1290Q961 -1290 952 -1257H936Q927 -1274 927 -1289Q927 -1318 977.5 -1375.5Q1028 -1433 1057 -1442Q1102 -1455 1136 -1455Q1230 -1455 1274 -1382Q1286 -1357 1320 -1313Q1340 -1302 1378 -1277Q1398 -1262 1447 -1201Q1603 -1008 1644 -959Q1758 -824 1855 -728Q1935 -649 1935 -638Q1935 -613 1914 -613Q1919 -613 1792 -683L1883 -555L1752 -472H1948V-394H1230Q1289 -319 1289 -265Q1289 -209 1242.5 -167.5Q1196 -126 1139 -126Q1103 -126 1063 -145V61H1948V87H1807V233H1948V259H1807V406H1948ZM1878 -667Q1812 -732 1683 -866Q1623 -943 1503 -1096Q1366 -1270 1324 -1282Q1315 -1283 1298 -1288Q1288 -1294 1274 -1324Q1264 -1346 1254 -1367Q1220 -1426 1116 -1426Q1059 -1426 1030 -1385Q1044 -1394 1070 -1394Q1174 -1394 1174 -1328Q1174 -1290 1128 -1251Q1192 -1281 1239 -1281Q1256 -1281 1256 -1263Q1256 -1262 1254 -1253H1253Q1202 -1240 1151 -1227Q1088 -1207 1088 -1157Q1088 -1104 1147 -1061Q1164 -1049 1251 -1004Q1421 -918 1756 -737Q1796 -713 1878 -667ZM1143 -1325Q1143 -1363 1103 -1363H1084Q1082 -1350 1068 -1325V-1321L1070 -1319Q1089 -1337 1101 -1337Q1113 -1337 1136 -1303Q1143 -1316 1143 -1325ZM1058 -1359L1052 -1364L1044 -1359L1052 -1353ZM1109 -1285V-1305Q1107 -1305 1103 -1307.5Q1099 -1310 1096 -1310Q1083 -1310 1083 -1292Q1083 -1287 1091 -1269Q1109 -1278 1109 -1285ZM1030 -1335Q1021 -1353 1021 -1365Q1021 -1371 1023 -1376Q1007 -1361 976 -1331Q977 -1332 979 -1332Q995 -1339 1030 -1335ZM1067 -1263Q1059 -1290 1062 -1299Q1062 -1296 1046 -1299Q1055 -1274 1067 -1263ZM1094 -1231Q1085 -1231 1080 -1233Q1074 -1225 1059 -1226V-1197Q1071 -1215 1094 -1231ZM1844 -565Q1800 -633 1742 -711Q1698 -744 1545 -821Q1407 -886 1140 -1029Q1085 -1062 1062 -1118V-1117Q1062 -1072 1216 -891Q1370 -710 1370 -611Q1370 -592 1368 -555.5Q1366 -519 1366 -501Q1338 -498 1274 -485L1263 -475H1467Q1437 -489 1380 -500Q1383 -539 1392 -617L1401 -627Q1424 -620 1469 -605Q1469 -618 1468 -647.5Q1467 -677 1467 -692Q1467 -754 1482 -785Q1491 -780 1526 -766Q1588 -741 1641 -645Q1679 -566 1718 -488Q1763 -511 1844 -565ZM1692 -475Q1638 -583 1558 -715Q1544 -727 1497 -743Q1497 -626 1492 -566Q1488 -557 1479 -557Q1461 -571 1421 -590Q1415 -547 1415 -525Q1452 -523 1489.5 -519Q1527 -515 1539 -475ZM1342 -623V-639Q1342 -690 1218 -836Q1264 -715 1264 -639Q1264 -632 1244 -515L1259 -518L1290 -638Q1292 -638 1342 -623ZM1346 -573Q1335 -603 1322 -603H1308Q1301 -549 1293 -521H1306Q1346 -521 1346 -573ZM1073 -667Q1007 -732 878 -866Q819 -943 699 -1096Q561 -1271 520 -1282Q511 -1283 494 -1288Q484 -1294 469 -1324Q459 -1346 449 -1367Q415 -1426 312 -1426Q253 -1426 226 -1385Q240 -1394 266 -1394Q369 -1394 369 -1328Q369 -1289 324 -1251Q387 -1281 434 -1281Q452 -1281 452 -1263Q452 -1260 449 -1253Q397 -1240 346 -1227Q282 -1207 282 -1157Q282 -1104 342 -1061Q357 -1050 447 -1004Q617 -918 951 -737Q991 -713 1073 -667ZM1178 -493H1155L1140 -479H1162Q1170 -484 1178 -493ZM338 -1325Q338 -1363 299 -1363H279Q277 -1350 263 -1325L264 -1321L266 -1319Q285 -1337 297 -1337Q308 -1337 330 -1303Q338 -1318 338 -1325ZM254 -1359L246 -1364L240 -1359L246 -1353ZM1118 -483L1114 -488L1101 -479L1106 -475ZM305 -1285V-1305Q303 -1305 299 -1307.5Q295 -1310 292 -1310Q279 -1310 279 -1292Q279 -1287 287 -1269Q305 -1278 305 -1285ZM226 -1335Q217 -1353 217 -1365Q217 -1371 219 -1376Q202 -1362 171 -1331Q184 -1337 199 -1337Q208 -1337 226 -1335ZM1263 -265Q1263 -312 1197 -394H1160Q1243 -327 1262 -250Q1263 -256 1263 -265ZM263 -1263Q256 -1288 257 -1299Q256 -1296 240 -1299Q248 -1277 263 -1263ZM1781 233V87H1587V233ZM288 -1231Q281 -1231 276 -1233Q270 -1225 254 -1226V-1197Q267 -1216 288 -1231ZM1922 -420V-446H126V-420ZM1241 -221Q1234 -309 1116 -394H1063V-227Q1122 -194 1166 -194Q1202 -194 1241 -221ZM1040 -565Q995 -634 938 -711Q905 -733 750 -812Q610 -881 336 -1029Q279 -1063 257 -1118V-1117Q257 -1072 411.5 -890.5Q566 -709 566 -611Q566 -592 564 -555.5Q562 -519 562 -501Q530 -497 468 -485L458 -475H663Q633 -489 576 -500Q579 -539 587 -617L596 -627Q619 -620 665 -605Q665 -618 664 -649Q663 -677 663 -692Q663 -754 678 -785Q688 -779 722 -766Q783 -742 836 -645Q875 -566 914 -488Q959 -511 1040 -565ZM887 -475Q835 -581 753 -715Q739 -728 693 -743Q693 -626 688 -566Q684 -557 675 -557Q657 -571 617 -590Q610 -542 610 -525Q647 -523 684.5 -519Q722 -515 734 -475ZM1781 406V259H1587V406ZM1037 -243V-394H1011V-261Q1027 -249 1037 -243ZM1561 233V87H1367V233ZM1213 -177Q1189 -168 1166 -168Q1046 -168 822 -394H798Q883 -317 969 -241Q1074 -152 1139 -152Q1178 -152 1213 -177ZM985 -280V-394H859Q930 -323 985 -280ZM538 -623V-639Q538 -689 413 -836Q459 -715 459 -639Q459 -638 438 -515L454 -518L485 -638Q489 -637 538 -623ZM1561 406V259H1367V406ZM1341 233V87H1147V233ZM1037 61V-159Q1029 -164 1011 -176V61ZM540 -573Q540 -579 532 -591Q524 -603 518 -603H504Q498 -556 488 -521H502Q540 -521 540 -573ZM1341 406V259H1147V406ZM1121 233V87H927V233ZM372 -493H350L335 -479H358Q365 -484 372 -493ZM314 -483L310 -488L296 -479L299 -475ZM1121 406V259H927V406ZM901 233V87H707V233ZM901 406V259H707V406ZM681 233V87H487V233ZM681 406V259H487V406ZM461 233V87H267V233ZM461 406V259H267V406Z"/>
</svg>