<svg xmlns="http://www.w3.org/2000/svg" viewBox="23.8 -1548.2 1746.3 2056.3">
	<path fill="currentColor" d="M1694 432H1613V388L1406 140H100V61H185Q203 22 241 16Q320 17 474 -3Q508 -13 549 -286Q555 -327 557 -467Q557 -477 559 -496L515 -750Q417 -917 417 -1074Q417 -1119 430 -1164Q431 -1167 450 -1215Q459 -1239 459 -1273Q459 -1328 346 -1328Q226 -1328 183 -1323Q174 -1316 154 -1303V-1336Q154 -1418 295 -1431Q335 -1437 414 -1446L426 -1453Q454 -1460 511 -1469Q581 -1472 660 -1472Q689 -1472 757 -1458Q768 -1437 785 -1394Q789 -1339 813 -1254Q837 -1239 870 -1217Q923 -1175 991 -1074Q1067 -967 1143 -861Q1233 -734 1279 -638Q1328 -537 1389 -377Q1397 -352 1415 -303Q1416 -301 1499 -117Q1568 37 1568 47Q1568 53 1565 61H1694ZM453 -1371Q431 -1402 422 -1426Q357 -1417 291 -1409Q198 -1394 183 -1361Q206 -1380 249 -1380Q363 -1380 453 -1371ZM1546 49Q1491 -67 1390 -303Q1348 -417 1252 -641Q1216 -716 1160 -797Q1132 -832 1077 -903Q1070 -913 974 -1057Q912 -1150 857 -1198Q840 -1209 807 -1232Q789 -1246 785 -1276Q771 -1390 744 -1437Q698 -1450 601 -1450Q495 -1450 443 -1433Q464 -1402 498 -1350L487 -1339Q409 -1357 298 -1357Q222 -1357 202 -1346Q322 -1351 335 -1351Q407 -1351 436 -1338Q484 -1318 484 -1256Q484 -1236 471 -1207Q455 -1170 452 -1160Q440 -1114 440 -1075Q440 -1011 470 -905Q493 -824 554 -721Q607 -635 660 -548.5Q713 -462 800 -284Q816 -242 816 -176Q816 -32 800 1Q792 16 773 22Q728 35 652 35Q637 35 607 33.5Q577 32 561 32Q558 49 538.5 52.5Q519 56 501 58L502 59Q786 43 794 43Q843 43 941.5 52Q1040 61 1089 61Q1094 61 1097 57H1073Q1058 57 1044 43Q1030 29 1021 29H897Q823 29 823 -8Q823 -15 830 -67Q840 -143 847 -216L857 -226Q907 -203 975 -166L1047 -366Q928 -472 773 -648Q614 -829 588 -947Q571 -1025 571 -1021Q571 -1039 594.5 -1055.5Q618 -1072 637 -1072Q652 -1072 682.5 -1066Q713 -1060 728 -1060Q748 -1060 788 -1064.5Q828 -1069 848 -1069Q906 -1069 918.5 -1065Q931 -1061 929 -1046H856Q771 -1047 726 -1037L641 -1049Q631 -1050 612.5 -1039Q594 -1028 594 -1018Q594 -1009 619 -920Q623 -904 633 -873Q658 -815 778 -673Q881 -552 951 -485Q1142 -308 1518 53H1544ZM1493 61L1413 -17Q1429 29 1429 37Q1429 49 1417 61ZM1406 35Q1406 30 1373 -56Q1277 -152 1079 -335Q1106 -267 1161 -133Q1181 -84 1201 -34Q1226 15 1270 47Q1289 61 1290 61H1376Q1380 61 1393 50Q1406 39 1406 35ZM1668 406V140H1637V406ZM1613 264V140H1510ZM1613 347V304L1476 140H1440ZM1247 61Q1202 33 1138 -118Q1098 -223 1057 -328Q1041 -284 1010 -196Q1005 -178 1000 -160Q992 -136 978 -137L869 -198L846 -12Q844 5 907 7Q827 5 985 5Q1159 5 1169 61ZM755 -326Q755 -354 541 -701Q553 -642 566 -582Q580 -512 580 -462Q580 -354 575 -302Q568 -267 556 -198Q546 -126 535 -81Q513 5 483 16Q464 23 396.5 24Q329 25 320 30Q314 38 298 51Q286 53 264 59L387 45Q396 44 430 53Q443 16 539 12Q559 -67 599 -224Q602 -239 606.5 -255.5Q611 -272 625 -272L732 -209Q735 -241 747 -303Q755 -333 755 -326ZM793 -175Q793 -254 769 -295Q765 -254 742 -175Q704 -199 626 -245L564 11Q544 12 649 12Q755 12 780 -9Q793 -186 793 -175ZM1668 114V87H126V114ZM237 61L236 59H234L231 61ZM573 -1389Q573 -1385 571.5 -1378.5Q570 -1372 570 -1368Q562 -1360 550 -1360Q512 -1360 512 -1392Q512 -1427 544 -1427Q573 -1427 573 -1389ZM550 -1386V-1390Q550 -1405 543 -1405Q535 -1405 535 -1395Q535 -1390 540 -1386Z"/>
</svg>