<svg xmlns="http://www.w3.org/2000/svg" viewBox="0 -2048 2048 2048">
	<path fill="#000000" d="M1431 -735Q1415 -720 1364 -711Q1378 -703 1392 -696Q1401 -689 1401 -664Q1340 -618 1257 -618Q1223 -618 1156.5 -635Q1090 -652 1056 -652Q1055 -652 921 -630Q932 -581 932 -575L911 -274Q911 -268 959 -207H1089V-130H924V317Q913 320 902 320Q894 320 879.5 318.5Q865 317 858 317Q855 314 857 246L471 -130H108V-207H324Q332 -241 420 -251Q524 -261 541 -274Q552 -282 597 -396Q642 -510 642 -523Q642 -539 613.5 -632Q585 -725 577 -734Q566 -747 529 -766Q282 -892 282 -1075Q282 -1085 301 -1118Q325 -1148 370 -1209Q402 -1254 455 -1352Q451 -1360 427 -1360Q285 -1360 159 -1150Q149 -1134 126 -1134Q100 -1134 100 -1164Q100 -1168 112 -1221Q126 -1283 202 -1353Q265 -1412 335 -1448Q353 -1457 410 -1518Q452 -1562 506 -1562Q547 -1562 582.5 -1529.5Q618 -1497 618 -1456Q618 -1402 548.5 -1278.5Q479 -1155 479 -1155Q479 -1152 486 -1142Q575 -1164 580 -1164Q607 -1164 695 -1148Q789 -1131 1157 -905Q1234 -853 1394 -765Q1404 -761 1424 -752ZM1500 282L1440 326L1257 0Q1280 -18 1323 -48ZM1334 282Q1315 297 1275 326L1091 0Q1114 -18 1157 -48ZM595 293Q595 297 593.5 304.5Q592 312 592 315H208V286Q208 272 218 243Q238 185 293.5 148Q349 111 412 111Q479 111 537 168.5Q595 226 595 293ZM1381 -740Q1185 -860 989 -980Q724 -1138 597 -1138Q576 -1138 539 -1126.5Q502 -1115 484 -1115Q453 -1115 453 -1155Q453 -1158 524 -1294Q595 -1430 595 -1458Q595 -1488 566 -1513Q537 -1538 506 -1538Q479 -1538 440 -1516Q397 -1493 397 -1468Q397 -1462 400 -1460Q392 -1451 392 -1441Q392 -1398 438.5 -1385Q485 -1372 485 -1361Q485 -1336 415 -1238Q370 -1175 324 -1112Q307 -1086 307 -1059Q307 -963 416 -872Q473 -824 608 -748Q777 -653 841 -565Q870 -525 870 -329Q870 -319 873 -300Q876 -281 876 -271Q876 -263 865.5 -249.5Q855 -236 847 -234Q827 -229 698 -224L707 -207H832Q883 -207 901 -229Q904 -227 907 -227H908Q885 -250 885 -262Q885 -457 906 -578L880 -683Q895 -693 902 -693Q904 -693 915 -662Q949 -659 949 -659Q969 -659 1011 -666.5Q1053 -674 1073 -674Q1105 -674 1166 -658Q1227 -642 1259 -642Q1332 -642 1373 -679Q1281 -723 1116 -760Q981 -786 847 -813Q622 -859 482 -970Q425 -1015 425 -1051Q425 -1097 473 -1097Q484 -1097 488 -1095L580 -1130Q590 -1116 590 -1110Q590 -1105 588 -1106Q575 -1103 451 -1060Q455 -1028 481 -1005Q578 -919 723 -868Q788 -845 993 -795Q1040 -784 1124 -769Q1314 -736 1362 -736Q1359 -736 1381 -740ZM390 -1382Q383 -1396 375 -1396Q348 -1396 274 -1338.5Q200 -1281 193 -1254Q283 -1353 390 -1382ZM369 -1423L366 -1439Q259 -1375 212 -1332Q129 -1256 127 -1175Q136 -1193 157 -1240Q204 -1347 369 -1423ZM1467 276L1314 -12Q1298 0 1289 6L1449 289Q1457 281 1467 276ZM850 -335Q850 -573 757 -609Q748 -593 735 -559Q734 -544 728 -517.5Q722 -491 666 -388Q618 -300 618 -261Q618 -243 640 -207H652Q666 -227 693 -250Q717 -257 766.5 -254Q816 -251 837 -257Q850 -260 850 -335ZM1302 273L1148 -12Q1131 1 1126 9L1283 289Q1290 284 1302 273ZM739 -630Q645 -712 612 -712L668 -519Q649 -468 608 -368Q597 -338 586 -307Q572 -271 551.5 -252.5Q531 -234 472 -226Q428 -223 384 -219L393 -208H553Q574 -236 586 -237Q601 -215 612 -210Q592 -247 592 -258Q592 -276 630 -369Q666 -458 681 -483Q692 -493 706 -513Q710 -553 739 -630ZM900 293V-130H879V291Q892 291 900 293ZM1063 -154V-183H133V-154ZM854 139V-129H584ZM854 203V178L547 -130H513ZM569 291V275Q569 267 558 241Q513 137 413 137Q295 137 246 241Q233 268 234 291ZM494 -1469Q494 -1441 468 -1441Q440 -1441 440 -1464Q440 -1472 449 -1487Q458 -1502 466 -1502Q494 -1502 494 -1469Z"/>
</svg>