<svg xmlns="http://www.w3.org/2000/svg" viewBox="0 0 990 1000">
  <g transform="scale(1,-1) translate(0,-1000)">
    <path d="M268 940Q277 940 282.0 933.0Q287 926 287.0 916.0Q287 906 270 906Q261 906 254.5 911.5Q248 917 248 926Q248 940 268 940ZM637 524Q667 524 721.5 536.5Q776 549 783 549H788Q800 549 805 539Q812 535 825.5 524.0Q839 513 848.5 507.5Q858 502 870 501Q876 500 886 500Q916 500 943 517Q947 521 947 523Q936 530 909.0 532.5Q882 535 865 543Q820 563 740.0 609.5Q660 656 602 677Q582 685 570.0 688.5Q558 692 517.0 696.0Q476 700 412 700H403Q388 700 330 688Q341 676 362.5 650.0Q384 624 401.0 608.0Q418 592 442 576Q442 576 450.0 571.5Q458 567 470.5 560.5Q483 554 497.0 548.0Q511 542 526.5 537.5Q542 533 553 533Q554 533 583.5 528.5Q613 524 637 524ZM317 931Q317 959 286 959Q284 959 252 951Q241 947 231.5 941.0Q222 935 216.5 931.0Q211 927 199.0 916.5Q187 906 182 901Q196 905 204 905Q246 905 268 879Q273 873 279.0 864.0Q285 855 287 852Q291 860 296.5 868.0Q302 876 305.0 880.5Q308 885 310.5 891.5Q313 898 314 906Q317 924 317 931ZM178 225H292L301 271H169ZM730 20V158L463 271H331Q322 222 319 207Q317 195 304 195H166Q153 195 151 207Q148 222 139 271Q116 271 97.5 275.5Q79 280 59.0 292.0Q39 304 27.5 330.0Q16 356 16 395Q16 420 21.0 448.0Q26 476 45.5 505.0Q65 534 96 534Q125 534 146.0 515.5Q167 497 167 461Q167 437 157.5 408.5Q148 380 148 366Q148 311 185 311H274Q276 329 288 329H368L416 447Q415 449 415 453V548Q386 568 366.0 587.5Q346 607 322.5 635.5Q299 664 277 686L274 689Q255 718 255 754Q255 763 256.5 778.0Q258 793 258 803Q258 818 255 830Q249 837 245.0 844.0Q241 851 238 854Q216 865 204 865Q202 865 194.0 866.5Q186 868 183 868Q182 868 180 868L179 867Q143 860 119.0 837.5Q95 815 76.5 784.5Q58 754 50 746Q46 745 34.5 740.0Q23 735 16 735H14Q0 743 0 753Q0 762 18 791Q27 805 35.0 816.0Q43 827 53.5 838.5Q64 850 69.0 856.0Q74 862 87.5 874.0Q101 886 104.5 888.5Q108 891 126.0 905.5Q144 920 147 923Q154 929 167.0 941.0Q180 953 187.5 959.5Q195 966 209.0 974.5Q223 983 238 989Q268 998 286 998Q315 998 336.0 980.5Q357 963 357 931Q357 922 354 901Q352 887 347.0 875.5Q342 864 334.0 852.0Q326 840 323 835Q317 798 317 769V766Q317 734 323 728Q323 728 325 726Q373 739 403 739Q414 739 432.5 739.5Q451 740 458 740Q544 740 616 714Q678 691 758.5 644.0Q839 597 881 578Q883 577 907.5 573.0Q932 569 954.0 563.0Q976 557 978 549Q990 537 990 524Q990 501 962.0 480.5Q934 460 886 460Q872 460 864 461Q846 464 833.0 470.5Q820 477 803.5 490.5Q787 504 781 508Q764 505 736.0 498.0Q708 491 685.0 487.5Q662 484 637 484Q622 484 614 485L581 327Q589 328 592 328H599Q615 328 619 311H940Q948 311 954.0 305.0Q960 299 960.0 291.0Q960 283 954.0 277.0Q948 271 940 271H770V20Q770 12 764.0 6.0Q758 0 750.0 0.0Q742 0 736.0 6.0Q730 12 730 20ZM107 367Q107 388 117.0 415.0Q127 442 127 460Q127 494 96 494Q79 494 67.5 462.5Q56 431 56 397Q56 349 73.5 332.0Q91 315 120 312Q107 338 107 367ZM730 271H540L730 191ZM466 311Q468 326 479 326L541 327L556 411L546 493Q511 499 483 510L411 329Q424 326 426 311Z" fill="currentColor"/>
  </g>
</svg>