<svg xmlns="http://www.w3.org/2000/svg" viewBox="19.3 -1575.7 2178.4 1985.4">
	<path fill="currentColor" d="M2117 301H1851Q1789 52 1754 -113Q1619 -159 1565 -182Q1473 -221 1387 -280Q1458 -146 1528 -12Q1626 184 1626 255Q1626 266 1606.5 286Q1587 306 1574 312Q1544 326 1486 326Q1467 326 1392 309L1225 271Q984 216 931 216Q977 242 1033 289Q1038 299 1043 329Q991 328 933 298Q842 252 832 248Q814 241 762 235L526 312Q513 311 501 311Q453 311 379 324Q383 295 437 260L449 237Q548 193 647 148Q761 105 859 105Q864 105 867 105L1391 191Q1279 25 1188 -79Q1128 -148 1086 -212Q953 -414 900 -547Q893 -573 879 -626Q843 -757 818 -887H819Q754 -858 735 -858Q660 -858 628 -873Q615 -879 597 -903Q582 -923 555 -964Q528 -1016 528 -1086Q528 -1135 553 -1210Q516 -1195 498 -1195Q502 -1195 387 -1219Q238 -1250 157 -1246L152 -1262Q127 -1242 111 -1219Q100 -1248 100 -1271Q100 -1349 140 -1383Q174 -1412 256 -1421Q290 -1427 359 -1438Q384 -1441 432 -1454Q521 -1495 550 -1495Q605 -1495 660 -1472Q728 -1445 741 -1401Q746 -1383 746 -1342Q746 -1312 744 -1305Q733 -1262 710 -1177Q695 -1128 695 -1108Q695 -1055 737 -1055Q789 -1055 824 -1121Q846 -1177 868 -1232Q904 -1319 970 -1346Q1012 -1363 1123 -1363Q1187 -1363 1240 -1343Q1245 -1341 1346.5 -1280Q1448 -1219 1469 -1205Q1537 -1160 1583 -1116Q1644 -1058 1762 -938Q1793 -905 1897 -758Q1898 -757 1944 -651Q2013 -494 2051 -259Q2065 -192 2087 -57Q2092 -15 2117 301ZM2092 279Q2085 166 2064 -59Q2051 -126 2028 -260Q2000 -435 1960 -555Q1947 -582 1924 -637Q1865 -815 1661 -1011Q1484 -1182 1288 -1288Q1268 -1302 1227 -1323Q1167 -1341 1081 -1341Q1015 -1341 985 -1327Q871 -1273 871 -1114Q871 -1073 897 -1026Q922 -988 948 -949Q963 -923 997 -874Q1163 -666 1501 -508Q1543 -488 1735 -413Q1748 -408 1774 -396Q1872 -340 1910 -236Q1921 -205 1954 -27L1941 -11Q1927 -35 1923 -67Q1917 -119 1916 -124Q1888 -248 1845 -305Q1802 -362 1683 -411Q1590 -449 1496 -486Q1399 -534 1266 -613Q1243 -625 1199 -653Q1073 -744 976 -864Q847 -1023 846 -1113Q806 -1035 733 -1035Q672 -1035 672 -1108Q672 -1121 696 -1221Q699 -1239 708 -1275Q723 -1320 723 -1342Q723 -1379 718 -1394Q707 -1428 664 -1448.5Q621 -1469 552 -1469Q516 -1469 475 -1450Q418 -1424 348 -1411Q325 -1384 325 -1328Q325 -1311 363 -1297Q390 -1287 417 -1277L403 -1264Q290 -1290 274 -1290Q196 -1290 177 -1278V-1272L499 -1222Q501 -1222 505 -1221Q545 -1221 618 -1263Q631 -1263 631 -1254Q631 -1243 580 -1216Q551 -1141 551 -1088Q551 -1027 582 -962Q620 -883 674 -883Q685 -883 705.5 -884Q726 -885 737 -885Q756 -885 786.5 -899.5Q817 -914 824 -914Q832 -914 835 -908H834L838 -905Q871 -754 899 -639Q904 -613 919 -561Q981 -401 1120 -204Q1181 -130 1300 19Q1425 178 1425 205Q1425 217 1417 217Q1416 217 1413 216L866 128Q863 128 859 128Q707 128 472 252Q469 254 465 259Q467 288 521 290L759 212Q821 220 863 239Q875 244 956 290L971 277V267Q967 265 875 208Q874 204 874 199V195Q878 190 885 190Q977 190 1105 217Q1214 242 1323 267Q1482 303 1487 303Q1543 303 1562 293Q1603 272 1603 250Q1603 221 1576 157Q1568 131 1549 81Q1478 -49 1345 -314Q1344 -326 1359 -326Q1429 -275 1544 -218Q1670 -155 1742 -141Q1755 -141 1776 -124Q1777 -122 1802 -3Q1822 91 1864 279ZM319 -1409H316Q271 -1409 201 -1389Q126 -1367 126 -1291V-1273Q193 -1329 303 -1311L302 -1312Q302 -1348 319 -1409ZM1015 304V301Q1011 297 993 285Q987 293 982 297Q989 299 1015 304ZM458 288Q456 285 450 279Q439 284 426 294Q437 292 458 288ZM573 -1380Q573 -1318 500 -1318Q477 -1318 456 -1340Q435 -1362 436 -1362Q422 -1362 367 -1351Q389 -1367 428 -1386Q432 -1388 458 -1417Q477 -1439 511 -1439Q532 -1439 552.5 -1420Q573 -1401 573 -1380ZM550 -1378Q550 -1384 547 -1390Q548 -1388 548 -1383V-1378Q548 -1367 541 -1356Q550 -1366 550 -1378ZM521 -1367V-1387Q514 -1393 508 -1393Q497 -1393 495 -1373Q496 -1373 519 -1365ZM501 -1341Q471 -1350 471 -1377Q471 -1394 493 -1411Q473 -1404 469 -1397Q462 -1386 456 -1374Q484 -1341 501 -1341Z"/>
</svg>