<svg xmlns="http://www.w3.org/2000/svg" viewBox="0 -2048 2048 2048">
	<path fill="#000000" d="M854 -1258Q854 -1258 848 -1211Q842 -1217 829 -1233Q818 -1228 759.5 -1217.5Q701 -1207 695 -1209Q700 -1185 700 -1181Q700 -1134 667 -1096Q662 -1090 613 -1060Q531 -1010 531 -888Q531 -724 579 -624H697Q721 -624 742 -585Q760 -584 776 -579Q769 -518 711 -457.5Q653 -397 591 -380Q569 -374 552 -370Q613 -357 613 -338Q613 -322 580 -310Q560 -303 547 -258.5Q534 -214 517 -207Q512 -205 501 -201Q532 22 532 65Q532 74 534.5 90.5Q537 107 537 116Q537 203 516 246Q553 182 633 57Q641 63 653 75Q655 78 690 188Q695 208 709 247Q742 258 742 286V369L735 376H736Q730 380 723 380Q711 380 687 340.5Q663 301 663 287Q663 281 665.5 270.5Q668 260 668 254Q668 231 629 130Q600 178 540 273Q571 297 580 310Q596 331 598 362Q599 363 600 364Q606 372 606 384H357Q345 376 345 359Q345 308 406 277L320 129Q315 138 295.5 192.5Q276 247 276 254Q276 260 279.5 270.5Q283 281 283 287Q283 307 235 379H218L207 368V287Q207 256 241 244Q265 174 293 72Q300 63 318 57L428 237Q409 169 409 98Q409 33 447 -199Q402 -216 398 -268Q396 -295 333 -326V-349Q355 -360 385 -371Q246 -404 168 -523Q162 -539 145 -569Q151 -579 154 -594Q145 -587 124 -574H100Q101 -580 101 -641Q101 -689 105 -722Q112 -750 122 -796Q104 -811 104 -832Q104 -846 144 -956Q160 -1000 202 -1055Q247 -1114 284 -1134Q332 -1159 395 -1196Q396 -1196 473 -1254Q529 -1296 553 -1296Q584 -1296 608 -1272Q608 -1297 619 -1308Q616 -1311 577 -1310Q559 -1382 559 -1392Q559 -1409 579 -1461Q559 -1473 559 -1490Q559 -1488 575 -1519H596Q595 -1559 627 -1559Q649 -1559 663 -1534Q721 -1534 721 -1506Q721 -1498 708 -1486Q754 -1415 754 -1403V-1337Q739 -1329 717 -1328V-1327Q729 -1315 798 -1303Q854 -1294 854 -1258ZM728 -1354V-1406Q728 -1412 707.5 -1443Q687 -1474 680 -1481V-1496Q689 -1499 695 -1506L694 -1511H674Q671 -1506 667 -1497Q714 -1416 716 -1353ZM692 -1372Q692 -1408 668 -1446Q641 -1489 639 -1498Q640 -1493 640 -1525Q640 -1536 630 -1536Q619 -1536 619 -1524Q619 -1520 625 -1505.5Q631 -1491 631 -1485Q631 -1475 624.5 -1456Q618 -1437 618 -1426Q618 -1343 636 -1322Q665 -1334 689 -1333Q689 -1338 691 -1353Q692 -1365 692 -1372ZM607 -1485Q600 -1491 588 -1495L586 -1493L585 -1485Q592 -1484 606 -1479ZM830 -1259Q821 -1285 788 -1285H782V-1266Q799 -1266 830 -1259ZM754 -1283L753 -1287L746 -1288ZM711 -1291V-1293Q711 -1297 705 -1298H704Q698 -1297 698 -1293V-1291Q698 -1287 704 -1286H705Q711 -1287 711 -1291ZM601 -1336Q596 -1347 596 -1442Q585 -1418 585 -1403Q585 -1365 593 -1336ZM620 -1194Q620 -1223 616 -1231Q596 -1271 543 -1271Q541 -1271 538 -1270Q497 -1240 414 -1181Q371 -1158 287 -1110Q213 -1065 164 -945Q127 -855 127 -831Q127 -814 141 -814Q151 -814 166 -854Q174 -879 183 -904Q209 -962 227 -995Q269 -1073 347 -1118Q360 -1125 387 -1139Q401 -1146 475 -1207Q535 -1257 559 -1257Q584 -1257 601.5 -1231Q619 -1205 619 -1179Q620 -1189 620 -1194ZM757 -1263L755 -1277Q740 -1273 718 -1255H677Q668 -1275 668 -1280Q668 -1294 684 -1306Q628 -1301 628 -1276Q628 -1262 637 -1233Q646 -1204 646 -1190Q646 -1132 592 -1131V-1158Q592 -1163 593.5 -1173Q595 -1183 595 -1188Q595 -1202 582.5 -1218Q570 -1234 557 -1234Q540 -1234 497 -1197Q468 -1171 405 -1124Q372 -1107 312 -1068Q312 -1068 294 -1047L288 -1040Q256 -1002 203 -893Q193 -862 184 -832Q172 -797 141 -788Q124 -716 124 -642Q124 -635 124 -623Q125 -610 125 -605L320 -779Q332 -750 359 -695Q375 -703 396 -713Q406 -694 409 -672Q409 -712 437 -813Q446 -836 465 -882Q472 -904 489 -938Q514 -973 565 -1043Q587 -1072 622 -1089Q677 -1115 677 -1182Q677 -1206 663.5 -1218.5Q650 -1231 650 -1236Q650 -1249 658 -1249Q695 -1233 705 -1233Q709 -1233 731 -1237Q730 -1240 730 -1243Q735 -1253 757 -1263ZM702 -593L698 -597H678Q684 -593 688 -588H699ZM557 -611Q508 -755 508 -890Q508 -890 516 -935Q480 -902 446 -756Q441 -735 441 -740Q441 -734 474 -702Q494 -726 502 -726Q510 -726 513 -722L510 -723L516 -718Q519 -705 546 -617ZM622 -588Q615 -588 602 -589Q599 -591 594 -597Q585 -598 579 -600Q587 -595 594 -588ZM521 -618L499 -694Q482 -677 466 -672Q456 -685 436 -712Q432 -690 432 -683Q432 -640 447 -618ZM552 -588L551 -591H537V-588ZM439 -593Q424 -600 411 -642Q412 -621 414 -610Q410 -606 401 -598Q380 -597 338 -592V-589ZM390 -622Q388 -642 384 -681Q360 -670 344 -666Q333 -691 312 -743Q297 -732 278 -713Q270 -696 258 -585H295Q302 -611 334 -616Q362 -619 390 -622ZM747 -558H178Q180 -552 204 -512Q263 -416 409 -390Q437 -385 426 -385H523Q524 -385 546 -391Q558 -394 579 -399Q629 -410 680 -459.5Q731 -509 747 -558ZM248 -681Q176 -616 176 -600V-590Q186 -589 203 -589H211Q228 -589 237 -590Q240 -631 248 -681ZM585 -337Q530 -359 487 -359Q394 -359 364 -337Q388 -327 408.5 -298.5Q429 -270 425 -245Q429 -234 445 -229Q458 -225 471 -221V-208Q471 -206 457 -118Q432 38 432 98Q432 254 465 254Q511 254 511 119Q511 47 477 -217Q482 -220 509 -228Q517 -256 540 -307Q552 -316 574 -335Q578 -337 585 -337ZM716 340V280Q704 268 696 268Q685 268 685 284Q685 297 716 340ZM571 359V347L570 344Q567 342 563 337Q561 315 533.5 297.5Q506 280 483 280Q458 280 418 298Q372 319 372 341V359ZM261 284Q261 268 250 268Q233 268 233 281V337Q261 295 261 284Z"/>
</svg>