<svg xmlns="http://www.w3.org/2000/svg" viewBox="0 0 981 1000">
  <g transform="scale(1,-1) translate(0,-1000)">
    <path d="M283 868Q288 882 288 895Q288 915 256 931L250 933Q241 937 230 937Q218 937 190 932Q180 930 159.5 922.0Q139 914 128 911Q205 876 230 852Q250 834 250 810Q254 817 262.0 829.0Q270 841 275.0 850.0Q280 859 283 868ZM236 923Q245 920 245 912Q245 906 241 894Q238 886 224 886Q219 886 213 888Q198 893 198 908Q198 912 200 916Q204 927 219 927Q226 927 236 923ZM825 253H830Q838 253 881 268V270Q881 291 859 309Q852 313 846 319H817Q797 319 758.0 320.0Q719 321 700 321Q645 321 559 328Q442 335 348 375Q311 390 278.0 418.0Q245 446 245 480Q245 484 247.5 495.5Q250 507 259.0 523.0Q268 539 281 541Q286 538 286 532Q286 528 283.5 515.5Q281 503 281 496Q281 469 305.5 447.5Q330 426 363 412Q447 375 562 367Q674 360 700 360Q713 360 744.0 359.5Q775 359 790 359H809Q739 413 648.0 457.5Q557 502 404 564Q373 577 344.0 584.0Q315 591 276.5 597.5Q238 604 210 611Q185 622 185 653Q185 665 192 688L184 676Q178 667 165.5 652.5Q153 638 144.5 625.5Q136 613 131 599Q128 592 123.0 581.5Q118 571 116.0 566.0Q114 561 112.0 554.0Q110 547 110 541Q110 532 115 525Q138 489 162.0 465.0Q186 441 229.0 408.5Q272 376 292 359Q334 323 438 247Q454 240 477 238L552 223Q560 220 587.5 215.0Q615 210 629 203Q632 205 638 207L709 279Q722 292 727 292Q728 292 730 289H731Q737 287 772.0 270.5Q807 254 825 253ZM981 248Q981 229 953 229Q949 229 936.5 229.5Q924 230 915 230Q912 230 906.0 230.5Q900 231 897 231Q892 229 878.5 224.0Q865 219 853.5 216.0Q842 213 830 213H822Q805 214 792.0 218.5Q779 223 764.0 231.0Q749 239 737 244Q737 244 733 243L729 242L659 171L646 34Q648 31 648 26Q648 18 641.0 10.5Q634 3 626 3Q626 3 625.0 3.5Q624 4 623 4Q621 4 617.5 2.0Q614 0 613 1Q552 10 530 10Q520 10 511.5 9.5Q503 9 497.0 8.0Q491 7 487.0 6.0Q483 5 480 4H478Q473 1 468 1Q460 1 454.0 7.5Q448 14 448 21Q448 29 454.5 34.5Q461 40 470.0 43.0Q479 46 489.5 47.5Q500 49 505.0 49.5Q510 50 512 50L607 47L618 164Q591 179 489 191Q484 182 485 177Q479 163 473.0 147.0Q467 131 462.0 119.5Q457 108 448 91Q433 62 399 10Q392 1 383 1H380Q307 10 274 10H269H262Q252 10 229 1Q227 1 225.0 0.5Q223 0 222 0Q218 0 214.0 1.5Q210 3 206.0 7.5Q202 12 202 20Q202 33 218.0 40.0Q234 47 245.0 48.0Q256 49 264 49H269Q309 49 365 41Q370 49 388.0 72.0Q406 95 413 109Q424 129 447 190Q429 204 367.5 249.0Q306 294 266 328Q247 345 203.0 378.5Q159 412 132.5 438.5Q106 465 81 503Q70 521 70 541Q70 550 72.5 560.5Q75 571 78.0 578.0Q81 585 86.5 597.0Q92 609 94 614Q102 636 125.5 665.5Q149 695 151 698Q199 773 209 802Q211 810 211 811Q211 819 181 839Q175 843 165.5 845.0Q156 847 114.0 859.5Q72 872 9 893Q0 896 0 915Q0 922 1 925L2 930L95 909L100 923L8 965L9 970Q12 985 31 985Q43 985 74.0 976.0Q105 967 117 967Q120 967 126.0 966.5Q132 966 135 966Q150 966 185 971Q206 974 222 974Q246 974 263 967Q328 943 328 897Q328 876 320 854Q314 838 294.5 806.5Q275 775 272 769Q237 699 231.0 684.5Q225 670 225 653V649Q250 643 288.5 636.0Q327 629 356.5 621.5Q386 614 419 601Q433 595 483.5 575.0Q534 555 549.0 548.5Q564 542 603.5 524.5Q643 507 665.5 495.0Q688 483 721.5 463.5Q755 444 788 423Q808 410 861 360Q875 360 905.5 360.5Q936 361 954 361Q962 361 967.5 355.0Q973 349 973.0 341.0Q973 333 967.5 327.0Q962 321 954 321H904Q917 303 920 285Q941 280 971 268Q981 262 981 250Z" fill="currentColor"/>
  </g>
</svg>