<svg xmlns="http://www.w3.org/2000/svg" viewBox="23.1 -1635.9 1715.8 2075.8">
	<path fill="currentColor" d="M1662 -359Q1662 -332 1639 -195Q1612 -32 1465 62Q1495 111 1555 209Q1599 279 1599 292Q1599 357 1525 357Q1492 357 1472 334Q1464 363 1413 363Q1381 363 1347 330Q1334 357 1281 357Q1250 357 1233 329Q1210 357 1172 357Q1103 357 1097 301L1215 50Q1171 30 1123 -26Q1079 -78 1058 -128Q1054 -137 1050 -145L823 89L809 87Q780 37 720 -61L560 114Q584 140 584 183Q584 201 552 286H563V346H333V286H388Q378 276 366 244L346 243Q329 182 329 194Q329 132 368 97Q395 73 468 68Q477 58 521 8Q500 17 448 17Q272 17 100 -146L895 -841Q839 -849 726 -867Q656 -880 516.5 -903Q377 -926 260 -975Q196 -1002 144 -1097Q103 -1173 103 -1271Q103 -1268 113 -1366L1074 -1209Q1071 -1245 1034.5 -1286.5Q998 -1328 963 -1328Q949 -1328 939 -1311.5Q929 -1295 920 -1281Q892 -1297 892 -1335Q892 -1361 919.5 -1399Q947 -1437 971 -1445Q985 -1446 1024 -1474Q1106 -1559 1253 -1559Q1304 -1559 1331 -1551Q1431 -1521 1466 -1434Q1485 -1387 1493 -1310Q1505 -1195 1507 -1183Q1518 -1149 1538 -1082Q1566 -985 1613 -790Q1637 -664 1653 -450Q1654 -440 1658 -405Q1662 -377 1662 -359ZM1468 -1337Q1464 -1365 1448 -1420Q1411 -1502 1324 -1529Q1301 -1536 1244 -1536Q1129 -1536 1058 -1478Q1044 -1461 1016 -1436Q1001 -1433 975 -1423Q961 -1414 940 -1389Q917 -1361 917 -1348Q917 -1336 918 -1325Q958 -1392 1019 -1392Q1048 -1392 1060 -1384Q1074 -1370 1088 -1357H1092Q1092 -1361 1090.5 -1368Q1089 -1375 1089 -1378Q1089 -1391 1101 -1396Q1090 -1398 1067 -1415Q1072 -1467 1141 -1467Q1240 -1467 1272 -1415Q1287 -1391 1287 -1356Q1287 -1321 1260.5 -1286.5Q1234 -1252 1179 -1230H1158Q1160 -1239 1165 -1247Q1154 -1247 1154 -1254Q1154 -1262 1185 -1282Q1216 -1302 1216 -1320Q1216 -1349 1177 -1349Q1158 -1349 1149 -1303Q1146 -1272 1142 -1241Q1132 -1229 1115 -1221Q1089 -1263 1077 -1296Q1074 -1307 1064 -1327Q1038 -1363 1019 -1363Q1014 -1363 1005.5 -1360Q997 -1357 992 -1357Q984 -1357 981 -1363Q976 -1362 967 -1350Q1061 -1338 1098 -1204L1282 -1173ZM1124 -1425V-1435Q1117 -1441 1113 -1441Q1111 -1441 1093 -1433V-1423Q1102 -1419 1108 -1419Q1116 -1421 1124 -1425ZM1264 -1357Q1264 -1375 1254 -1399Q1250 -1409 1222 -1425Q1194 -1441 1182 -1441H1147Q1147 -1397 1113 -1396Q1117 -1389 1117 -1381Q1117 -1332 1089 -1329Q1097 -1305 1119 -1260Q1127 -1317 1130 -1329Q1144 -1371 1177 -1371Q1239 -1371 1239 -1321Q1239 -1306 1230 -1291Q1264 -1329 1264 -1357ZM1563 -892L1519 -1054L1456 -1002ZM1557 -861L1441 -988L1396 -950L1519 -828ZM1501 -813L1378 -934L1323 -887L1448 -767ZM1428 -753Q1388 -793 1310 -876Q1281 -854 1251 -824L1374 -704Q1408 -733 1428 -753ZM1258 -1154L620 -1261V-1232Q620 -1217 642 -1195Q657 -1180 728 -1170Q799 -1160 940 -1138Q1025 -1126 1193 -1095ZM1356 -690L1233 -810L1183 -767L1305 -645Q1322 -660 1356 -690ZM1068 -990Q1066 -990 1000 -1002Q987 -944 981 -913ZM1171 -1079Q1001 -1101 673 -1156Q603 -1171 594 -1266L449 -1290Q449 -1286 448 -1276.5Q447 -1267 447 -1262Q447 -1147 527 -1110Q566 -1092 695 -1072Q786 -1059 877 -1046Q1008 -1025 1092 -1009ZM1484 -1196L1472 -1306L526 -488Q559 -458 588 -458Q624 -458 653 -478Q668 -488 875 -666L1343 -1068Q1485 -1188 1484 -1196ZM1287 -631L1165 -754L1117 -713Q1122 -710 1246 -594Q1265 -610 1287 -631ZM976 -1007Q953 -1011 923 -1014Q907 -940 898 -862Q905 -861 918 -859Q931 -866 950 -886Q954 -893 976 -1007ZM899 -1019Q878 -1022 848 -1026L821 -877Q838 -873 872 -867ZM1228 -580L1104 -701L1048 -654Q1051 -652 1174 -532Q1192 -548 1228 -580ZM828 -1031L765 -1041Q764 -1032 751 -965Q742 -919 742 -889Q775 -884 797 -879ZM1639 -360Q1639 -441 1618 -606Q1596 -778 1575 -846Q1468 -754 1255 -571Q1183 -514 1048 -392Q1048 -391 1047 -388Q1047 -273 1055 -209Q1066 -123 1141 -43Q1158 -22 1195 16Q1210 28 1266 44Q1322 60 1344 60Q1584 60 1622 -233Q1639 -364 1639 -360ZM1513 -1082L1489 -1164L743 -525Q717 -501 663 -458Q628 -435 601 -435Q551 -435 507 -474L404 -381Q461 -335 488 -325Q515 -315 585 -315Q613 -315 673 -362Q722 -400 886 -540Q1044 -677 1361 -949Q1413 -992 1513 -1082ZM748 -1043Q724 -1049 691 -1053L666 -901L720 -893ZM1156 -515L1035 -642L983 -598L1103 -469ZM670 -1057Q633 -1063 613 -1065L583 -916Q603 -912 642 -908ZM427 -1288V-1295L131 -1344Q129 -1302 129 -1298V-1264Q129 -1257 130 -1248ZM590 -1070Q578 -1072 553 -1078L506 -927Q526 -924 559 -920ZM1082 -456L968 -584L918 -541L1032 -410Q1055 -430 1082 -456ZM428 -1239Q424 -1253 425 -1263L131 -1224Q136 -1200 148 -1153ZM530 -1085Q519 -1089 504 -1096L416 -945L482 -932ZM487 -1111Q487 -1114 471 -1133L324 -972Q358 -959 391 -953Q487 -1109 487 -1111ZM436 -1190L433 -1215L156 -1130V-1126Q169 -1095 214 -1043Q322 -1117 436 -1190ZM455 -1155Q452 -1160 444 -1171L228 -1026Q255 -1002 299 -983ZM1014 -396L900 -527L846 -481L963 -350Q994 -377 1014 -396ZM1573 298Q1573 282 1532 216L1439 67Q1428 70 1399 76Q1412 118 1440 200Q1450 234 1460 268Q1475 312 1496 325Q1510 334 1530 334Q1573 334 1573 298ZM948 -339L828 -465L784 -428L901 -297Q932 -323 948 -339ZM1454 313L1378 80H1352V295Q1352 297 1353 303Q1381 337 1402 337H1427Q1450 337 1454 313ZM883 -280L766 -411Q748 -395 712 -363L823 -229ZM1332 80Q1321 80 1312 78L1245 299Q1258 331 1277 331H1295Q1310 331 1322 328Q1332 311 1332 279ZM1288 73Q1270 69 1234 60Q1234 61 1172 187Q1123 286 1123 302Q1123 334 1153 334H1173Q1215 334 1225 300Q1227 289 1232 266Q1262 156 1288 73ZM806 -217L691 -349Q677 -338 661 -323L761 -176Q791 -203 806 -217ZM743 -162L640 -312Q629 -304 611 -299L688 -114ZM667 -100L590 -293Q567 -291 553 -292L595 -54Q639 -79 667 -100ZM1042 -171Q1032 -199 1029 -270Q1027 -322 1026 -374Q916 -278 692 -89Q663 -66 626 -44Q606 -36 570 -15Q539 27 475 90Q470 93 444 93Q412 93 386 113Q352 139 352 192L359 205Q359 172 386.5 147.5Q414 123 448 123Q488 123 517 146Q546 169 546 208Q546 227 532 259H537Q561 216 561 182Q561 154 554 142Q542 126 530 110L726 -96L821 59ZM572 -42Q546 -195 528 -293L526 -295H510L481 -6H483Q496 -6 572 -42ZM489 -298Q482 -303 460 -313L340 -19Q386 -6 414 -6H460ZM440 -325Q429 -332 408 -346L233 -67Q275 -37 316 -25ZM393 -362L386 -367L132 -146Q182 -101 211 -80ZM520 207Q520 149 448 149Q428 149 406.5 165Q385 181 385 201Q385 286 453 286Q480 286 500 260Q520 234 520 207ZM537 321V313H359V321ZM507 207Q507 229 490.5 251Q474 273 453 273Q398 273 398 201Q398 187 415.5 174.5Q433 162 448 162Q507 162 507 207ZM481 207Q481 188 448 188Q432 188 424 203Q425 247 453 247Q463 247 472 232.5Q481 218 481 207Z"/>
</svg>