<svg xmlns="http://www.w3.org/2000/svg" viewBox="0 -2048 2048 2048">
	<path fill="currentColor" d="M1712 -1025Q1707 -1010 1706 -977Q1704 -921 1657.5 -857Q1611 -793 1559 -770V-684Q1582 -680 1595 -673V-637Q1596 -575 1584 -562Q1567 -575 1540 -607Q1539 -607 1517 -589V-226Q1571 -196 1571 -157Q1571 -147 1541 -92Q1550 -91 1568 -87V-38L1408 -40V-84Q1419 -89 1431 -91Q1393 -113 1393 -147Q1393 -169 1415 -203L1305 -312Q1270 -252 1242 -208L1098 -355Q1070 -272 986 -207L1088 -27H1710V84H1482V253H1710V365H100V254H326V86H100V-27H717L810 -213Q775 -242 740 -272Q716 -297 698 -355L551 -203Q526 -238 488 -303L389 -190Q403 -176 403 -147Q403 -115 379 -88L390 -90V-36H228V-90Q246 -86 261 -86Q225 -123 225 -145Q225 -204 289 -223V-590Q289 -590 262 -617Q251 -599 229 -563Q215 -578 215 -641L216 -677Q231 -683 249 -683Q248 -696 248 -713Q248 -723 248 -743Q249 -763 249 -773Q181 -808 139 -886Q100 -960 100 -1040H249V-1183Q249 -1209 198 -1230Q187 -1237 165 -1251Q169 -1269 176 -1305Q229 -1320 233 -1320Q318 -1320 356 -1238Q364 -1220 364 -1043H721Q700 -1121 652 -1121Q631 -1121 627 -1084Q597 -1101 597 -1128Q597 -1149 615 -1173Q633 -1197 653 -1203Q663 -1204 683 -1217Q730 -1268 776 -1274Q758 -1279 725 -1294Q717 -1244 673 -1244Q655 -1244 632 -1273.5Q609 -1303 609 -1322Q609 -1339 619 -1350Q607 -1353 593 -1382Q614 -1404 645 -1404Q658 -1404 675 -1384Q672 -1398 672 -1403Q672 -1460 714.5 -1509.5Q757 -1559 813 -1559Q980 -1559 980 -1406Q980 -1400 978 -1389.5Q976 -1379 976 -1373Q976 -1295 1002 -1258V-1245Q1002 -1235 987 -1235Q950 -1235 933 -1301Q911 -1281 893 -1271Q979 -1240 1000 -1139Q1003 -1105 1016 -1037H1444V-1198Q1444 -1221 1460 -1250Q1473 -1273 1506 -1294Q1539 -1315 1564 -1315Q1640 -1315 1640 -1276Q1640 -1277 1635 -1241Q1612 -1228 1592 -1222Q1559 -1188 1559 -1181V-1038H1700ZM1617 -1273Q1617 -1289 1578 -1289Q1541 -1289 1508 -1267Q1470 -1242 1470 -1207V-683H1533V-1181Q1533 -1208 1577 -1240Q1577 -1240 1613 -1256Q1617 -1270 1617 -1273ZM1685 -988V-1011H1560V-795Q1605 -817 1645 -877.5Q1685 -938 1685 -988ZM967 -1274Q957 -1308 956 -1329L954 -1327Q954 -1295 967 -1274ZM958 -1407Q958 -1487 892 -1524Q874 -1534 799 -1534Q793 -1534 787 -1532Q695 -1499 695 -1404Q695 -1326 754 -1303Q767 -1300 793 -1292Q819 -1281 840 -1281Q853 -1281 862 -1282Q882 -1284 913 -1311Q944 -1338 951 -1358.5Q958 -1379 958 -1407ZM1443 -946V-1011H1022Q1037 -961 1043 -930H1407Q1412 -930 1443 -946ZM1568 -609V-656H1423V-612Q1433 -623 1457 -640Q1475 -616 1492 -600Q1507 -609 1542 -637Q1543 -636 1568 -609ZM1443 -775V-921Q1409 -904 1404 -904H1052L1084 -775ZM690 -1312Q690 -1315 688 -1325Q687 -1316 687 -1316V-1307ZM702 -1284Q696 -1279 686 -1279Q661 -1279 661 -1309Q661 -1316 662.5 -1329.5Q664 -1343 664 -1350Q664 -1378 634 -1378Q627 -1378 622 -1377Q625 -1373 642 -1370.5Q659 -1368 664 -1350Q635 -1338 635 -1324Q635 -1311 648.5 -1289Q662 -1267 674 -1267Q694 -1267 702 -1284ZM749 -1196H744L741 -1192L748 -1190ZM842 -1143Q842 -1196 782 -1196Q776 -1196 768 -1183Q757 -1165 755 -1162L754 -1163Q754 -1118 728 -1122L738 -1118Q742 -1110 751 -1095Q763 -1156 791 -1156Q837 -1156 835 -1119Q842 -1132 842 -1143ZM812 -1118Q812 -1133 794 -1133Q784 -1133 776 -1087Q812 -1112 812 -1118ZM1470 -250V-585Q1470 -597 1451 -610Q1430 -585 1407 -564L1396 -576V-679Q1420 -684 1443 -681V-748H1095ZM1547 -164Q1539 -196 1509 -202Q1472 -209 1466 -215Q1463 -218 1343 -378L1091 -714L1113 -469Q1112 -479 1104 -381Q1193 -289 1239 -243Q1258 -279 1303 -346L1441 -206Q1439 -199 1427.5 -176.5Q1416 -154 1416 -147Q1416 -140 1423 -129Q1423 -157 1443.5 -178.5Q1464 -200 1492 -200Q1524 -200 1547 -164ZM1512 -120V-125Q1501 -150 1494 -150Q1476 -150 1476 -127Q1489 -110 1492 -110Q1497 -110 1512 -120ZM1530 -137Q1526 -177 1492 -177Q1477 -177 1461.5 -162.5Q1446 -148 1446 -133Q1446 -117 1474 -94Q1453 -114 1453 -127Q1453 -176 1495 -176Q1518 -176 1530 -137ZM1542 -63V-66H1434V-63ZM722 -930V-1014H365V-939Q369 -938 381.5 -934Q394 -930 397 -930ZM1089 -482Q1089 -545 1064 -749Q1057 -757 1057 -763L1060 -771H1061Q1038 -853 995 -1018Q980 -1099 965 -1180Q937 -1256 832 -1256Q753 -1256 723 -1227Q683 -1188 669 -1184Q637 -1175 626 -1141Q653 -1174 680 -1174Q703 -1174 731 -1147Q729 -1163 729 -1158Q729 -1164 736 -1170Q723 -1177 712 -1188Q732 -1222 767 -1222Q804 -1222 833 -1202Q865 -1179 865 -1143Q865 -1110 836 -1082Q807 -1054 775 -1056L779 -1070L774 -1079Q769 -1051 746 -1049Q731 -1081 716 -1112Q696 -1145 660 -1145L657 -1143Q702 -1129 721 -1098Q726 -1090 749 -1024Q746 -922 746 -930Q746 -923 749 -920Q707 -756 707 -471Q707 -356 742 -305Q755 -285 788 -260Q824 -231 836 -217L744 -28H1057L960 -208Q963 -212 1017 -265Q1089 -336 1089 -482ZM718 -904H404Q397 -904 365 -918V-778H702ZM341 -683V-1190Q341 -1231 307.5 -1264Q274 -1297 233 -1297Q224 -1297 196 -1288Q190 -1276 189 -1263Q202 -1257 227 -1244Q275 -1216 275 -1177V-683ZM248 -801V-1014H123Q128 -955 163.5 -892Q199 -829 248 -801ZM689 -751H365V-681Q372 -682 377 -682Q391 -682 403 -679V-585Q394 -576 386 -576Q381 -583 358 -606Q352 -601 341 -591V-265ZM376 -623V-656H240V-629Q248 -644 262 -648Q279 -631 314 -596V-599Q330 -612 362 -637ZM696 -723Q514 -468 332 -208Q286 -199 278 -195Q249 -183 248 -153Q267 -191 309 -191Q342 -191 372 -161L376 -128Q380 -139 380 -147Q380 -166 360 -195Q401 -246 494 -337L553 -237L643 -339Q658 -357 690 -390Q686 -435 686 -465Q686 -625 696 -723ZM1685 339V280H1455V59H1685V-4H126V59H353V280H126V339ZM353 -132Q353 -162 323 -167Q354 -149 352 -123Q353 -129 353 -132ZM326 -126Q326 -147 309 -147Q296 -147 296 -129Q296 -120 300 -114Q303 -113 315 -107Q326 -107 326 -126ZM346 -106Q336 -92 320 -86H332Q341 -96 346 -106ZM299 -167Q266 -163 266 -127Q266 -111 282 -99Q270 -115 270 -129Q270 -156 299 -167ZM365 -57V-60H254V-57ZM1414 277H397V60H1414ZM1393 253V86H421V253Z"/>
</svg>