<svg xmlns="http://www.w3.org/2000/svg" viewBox="0 0 995 1000">
  <g transform="scale(1,-1) translate(0,-1000)">
    <path d="M101 277Q89 296 74 309Q79 291 81 286Q84 274 89 202H121Q119 210 117.5 227.5Q116 245 112.5 255.0Q109 265 101 277ZM79 40H143L173 162H47ZM199 202Q208 202 213.5 194.5Q219 187 219 182Q219 179 218 177L178 15Q175 0 159 0H63Q47 0 44 15L2 177Q2 177 1.5 179.0Q1 181 1 182Q1 188 7.0 195.0Q13 202 21 202H49Q45 266 42 276Q37 294 27.5 315.5Q18 337 11.0 351.5Q4 366 4 371Q4 380 10.5 385.5Q17 391 24.0 391.0Q31 391 38 386Q48 377 69.0 362.5Q90 348 106.0 333.5Q122 319 135 299Q145 284 150.0 268.0Q155 252 158.0 229.5Q161 207 162 202ZM374 572Q374 565 355.0 554.0Q336 543 317 538Q362 492 402.0 466.0Q442 440 502.0 423.0Q562 406 612.0 402.0Q662 398 727.5 398.0Q793 398 842 394Q822 407 767.5 443.0Q713 479 685.0 497.0Q657 515 613.0 540.0Q569 565 531 582Q479 605 420.5 610.5Q362 616 301.0 621.0Q240 626 185 647Q176 650 173 655Q180 598 206 561Q238 517 296.0 460.5Q354 404 379 374Q384 374 387 373L546 305Q551 303 554 299L555 343Q555 351 560.0 356.0Q565 361 569.0 362.0Q573 363 575 363Q580 363 587 358Q608 342 628.5 332.0Q649 322 676.5 316.0Q704 310 718.5 308.0Q733 306 773.0 303.0Q813 300 827 299Q840 297 864 297Q913 297 954 322Q955 322 955 326V328Q953 336 953 336Q940 352 906 352H879Q865 352 857 353Q806 358 737.0 358.0Q668 358 612.0 362.5Q556 367 492 385Q423 405 376.5 435.0Q330 465 277 522Q268 532 268 542Q268 553 280.5 565.5Q293 578 317 578L353 576ZM919 392Q990 382 995 331V326Q995 298 975 288Q922 257 864 257Q851 257 823 259Q806 261 772.0 263.5Q738 266 722.5 268.0Q707 270 682.0 274.5Q657 279 636.0 286.5Q615 294 594 306L593 260Q593 259 592.5 257.5Q592 256 592 255L587 39H600Q608 39 614.0 33.0Q620 27 620.0 19.0Q620 11 614.0 5.5Q608 0 600 0H227Q211 0 211 21Q211 41 221 47L247 51L289 41H321Q383 150 389 270Q389 271 389.5 272.5Q390 274 390 275Q390 295 362 332Q335 366 280.5 419.0Q226 472 190.0 516.0Q154 560 142 603Q105 586 99 580Q86 568 74.5 548.5Q63 529 54.5 517.0Q46 505 34 505Q25 505 17.0 512.5Q9 520 9 530Q9 537 14 545Q18 551 33.0 576.0Q48 601 65 617Q77 627 87.0 633.0Q97 639 111.0 644.0Q125 649 133 653L132 657V666Q132 674 134.0 682.0Q136 690 138.0 694.5Q140 699 145.0 708.5Q150 718 152 723Q165 753 206 818Q208 824 208 831Q208 844 196 844Q193 845 187.0 845.5Q181 846 171 848Q144 839 110.0 822.5Q76 806 52.5 794.5Q29 783 20.0 783.0Q11 783 5.5 790.5Q0 798 0 803Q0 814 9 819L153 914Q159 920 167.5 931.0Q176 942 183.5 949.5Q191 957 204 964Q207 965 219.0 972.5Q231 980 236.5 982.5Q242 985 252.5 989.5Q263 994 272.5 996.0Q282 998 292 998Q326 998 350.0 978.0Q374 958 374 927Q374 927 373.5 924.5Q373 922 373 921Q372 903 364.5 887.5Q357 872 350.0 864.0Q343 856 328.5 842.5Q314 829 308 823Q296 811 279.5 801.0Q263 791 256 782Q214 727 203 683Q262 661 371.0 654.0Q480 647 547 618Q606 593 666.5 556.5Q727 520 802.5 469.0Q878 418 916 394Q918 392 919 392ZM266 937Q276 937 283.0 930.0Q290 923 290 913Q290 899 264 899Q248 899 248 919Q248 926 253.0 931.5Q258 937 266 937ZM334 927Q334 937 324.5 947.5Q315 958 292 958Q287 958 282.0 957.0Q277 956 273.0 955.0Q269 954 263.0 951.0Q257 948 253.0 945.5Q249 943 239.5 938.0Q230 933 223.0 929.0Q216 925 210.0 919.0Q204 913 195.5 902.0Q187 891 182 886Q187 885 193.5 884.5Q200 884 205 883Q211 882 219.0 879.0Q227 876 237.5 863.0Q248 850 248 831V829Q275 847 279 851Q286 858 297.0 868.0Q308 878 312.5 883.0Q317 888 322.5 895.0Q328 902 330.5 908.5Q333 915 334 924ZM421 315Q429 299 429 275V267Q414 124 367 41L546 40L553 264L531 268Z" fill="currentColor"/>
  </g>
</svg>