<svg xmlns="http://www.w3.org/2000/svg" viewBox="0 -2048 2048 2048">
	<path fill="#000000" d="M2333 -437L2330 -420Q2259 -370 2199 -370Q2194 -370 2025 -396Q1939 -409 1943 -409Q1921 -409 1876.5 -400Q1832 -391 1807 -391Q1728 -391 1644 -408Q1643 -403 1625 -288Q1613 -215 1613 -167Q1613 -152 1615 -120.5Q1617 -89 1617 -73Q1617 -63 1599 -38Q1541 -30 1517 -30Q1488 -30 1466 -33L1382 -12L1375 -20Q1351 -8 1317 -9H1312Q1330 -29 1348 -42Q1231 -30 1253 -30Q1249 -30 1244.5 -33Q1240 -36 1239 -36Q1226 -36 1206 -30Q1215 -53 1240 -77H1239L1240 -89Q1251 -99 1278 -115Q1307 -128 1510 -128L1524 -141Q1524 -156 1528 -205Q1531 -245 1531 -269Q1531 -276 1524 -291Q1496 -348 1488 -359Q1468 -386 1426 -403Q1389 -410 1318 -425Q1300 -396 1265 -340Q1229 -288 1200 -195Q1163 -76 1150 -45Q1140 -24 1091 -24Q1023 -24 954 1L884 -4Q905 -21 924 -30H922Q847 -30 815 -24Q803 -20 780 -11Q779 -33 795 -51H774Q780 -69 812 -90L818 -103Q857 -112 1042 -112Q1075 -112 1089.5 -121.5Q1104 -131 1127 -225Q1149 -312 1149 -342Q1149 -438 1103 -476Q1073 -488 1017 -518Q976 -554 895 -626Q831 -674 711 -779Q675 -814 649 -860Q629 -893 614 -970Q596 -1057 586 -1084Q579 -1100 554 -1125.5Q529 -1151 513 -1157Q504 -1160 490 -1160Q420 -1160 392 -1112Q372 -1079 372 -1047Q372 -1008 381 -984Q384 -976 409 -934Q433 -896 433 -891V-820Q433 -804 413 -741Q391 -671 389 -653Q387 -642 387 -628Q387 -619 388 -601Q389 -583 389 -575Q397 -589 431.5 -621.5Q466 -654 478 -654Q487 -654 500.5 -641Q514 -628 514 -618Q514 -612 472 -577Q419 -534 394 -472Q367 -406 367 -406Q367 -401 373 -391Q363 -363 363 -336Q363 -316 385 -316Q417 -316 445 -360Q468 -396 475 -434Q482 -438 496 -452L510 -449Q539 -421 581 -353Q606 -273 606 -238Q606 -117 500 -53L495 -50Q428 -10 372 -10Q364 -10 321 -21Q231 -44 168 -113Q101 -187 101 -276Q101 -324 125 -381Q151 -444 188 -466H204Q210 -453 215 -437Q228 -391 251 -369Q267 -352 317 -327Q310 -353 310 -362Q310 -369 312.5 -381.5Q315 -394 315 -401Q315 -400 290 -463Q270 -511 261 -551Q256 -579 237 -629Q216 -647 179 -680Q127 -726 112 -764Q100 -797 100 -871Q100 -921 120 -948Q153 -991 206 -1085Q262 -1235 329 -1286Q342 -1296 416 -1309Q484 -1321 512 -1321Q574 -1321 642 -1287Q667 -1274 741 -1217Q805 -1167 852 -1151Q869 -1145 1004 -1145Q1076 -1145 1213 -1104Q1336 -1066 1416 -1027Q1435 -1017 1581 -926Q1671 -867 1761 -809Q1874 -737 1947 -708Q2043 -672 2232 -587L2024 -550ZM2294 -425Q2156 -482 1965 -545Q1904 -547 1784 -550Q1781 -550 1652 -567Q1467 -591 1376 -609Q1372 -610 1199 -665Q1144 -682 1089 -699Q1041 -718 990 -760Q885 -847 885 -894Q885 -987 929 -1021Q992 -1070 1018 -1070Q1028 -1070 1029 -1062V-1063H1028L1027 -1052Q951 -1012 938 -999Q912 -971 912 -901Q912 -891 913 -886Q925 -825 1048 -747Q1057 -739 1079 -726Q1091 -720 1229 -678Q1277 -659 1375 -631Q1443 -618 1641 -590Q1684 -582 1773 -573Q1921 -567 1969 -567Q1972 -567 2162 -596Q2094 -625 1985 -668Q1955 -679 1897 -705Q1700 -827 1504 -950Q1285 -1080 1068 -1111Q990 -1122 1006 -1122Q999 -1122 986 -1120.5Q973 -1119 967 -1119Q876 -1119 838 -1132Q790 -1148 724 -1200Q653 -1257 627 -1269Q563 -1298 511 -1298Q485 -1298 423 -1288Q355 -1276 341 -1267Q299 -1240 254 -1148Q244 -1121 222.5 -1069Q201 -1017 152 -956Q141 -943 127 -923Q123 -913 123 -836Q123 -772 169 -721Q224 -660 251 -648Q264 -642 302 -642Q322 -642 367 -664Q408 -792 408 -874Q408 -892 378.5 -940Q349 -988 349 -1048Q349 -1089 374 -1128Q409 -1183 509 -1183Q527 -1183 565 -1145Q600 -1109 608 -1089Q617 -1039 641 -941Q663 -861 726 -797Q736 -787 855 -689Q877 -671 958 -598Q1071 -496 1173 -475Q1232 -465 1350 -441Q1382 -437 1441 -421Q1494 -396 1517 -356Q1552 -292 1552 -265Q1552 -239 1549 -198Q1546 -145 1546 -131Q1534 -122 1513 -103H1326Q1321 -103 1310 -99Q1299 -95 1294 -97V-94H1308Q1319 -94 1340.5 -96Q1362 -98 1374 -98Q1383 -98 1394 -97V-83Q1350 -78 1265 -65V-57L1429 -68Q1437 -69 1441 -63Q1445 -57 1444 -49Q1460 -56 1576 -56Q1594 -56 1595 -98Q1594 -46 1594 -155Q1594 -195 1612 -337Q1620 -400 1620 -406Q1620 -409 1598.5 -438.5Q1577 -468 1577 -475Q1577 -488 1585 -488Q1589 -488 1607 -461.5Q1625 -435 1631 -431Q1657 -413 1816 -413Q1839 -413 1880.5 -422Q1922 -431 1943 -431Q1946 -431 2025 -419L2196 -393Q2228 -391 2294 -425ZM1429 -46L1387 -40L1388 -37ZM1366 -32L1363 -36V-32ZM1293 -430L1138 -465Q1172 -417 1172 -341Q1172 -245 1104 -101Q923 -88 933 -88Q924 -88 906.5 -89.5Q889 -91 881 -91Q873 -91 834 -83L833 -79Q872 -86 944 -86Q967 -86 979 -85Q979 -72 970 -65Q950 -65 911.5 -62.5Q873 -60 854 -60Q835 -60 827 -51Q849 -51 899 -54Q946 -56 972 -56Q987 -56 997 -43Q987 -37 969 -28Q1106 -51 1126 -51Q1144 -81 1165 -151Q1181 -204 1198 -257Q1211 -295 1241 -345Q1267 -388 1293 -430ZM489 -621Q485 -628 481 -628Q454 -628 403 -552Q352 -476 352 -446Q352 -442 354 -436Q400 -558 489 -621ZM361 -531L358 -634Q348 -630 330 -624Q333 -579 343 -490ZM337 -419Q307 -526 308 -619Q293 -621 263 -624Q279 -569 296 -514Q323 -427 337 -419ZM583 -238Q583 -361 500 -424L494 -416Q484 -372 452 -334Q415 -290 375 -290Q370 -290 366 -292Q341 -328 341 -342Q341 -347 342.5 -356.5Q344 -366 344 -371Q344 -386 336 -395Q332 -378 332 -370Q332 -357 338 -330.5Q344 -304 344 -290Q215 -344 190 -439Q161 -419 141 -364Q124 -315 124 -274Q124 -185 203 -110.5Q282 -36 372 -36Q455 -36 519 -95.5Q583 -155 583 -238ZM251 -820Q251 -793 226 -793Q196 -793 196 -827Q196 -832 197.5 -841.5Q199 -851 200 -856H222Q231 -856 241 -843Q251 -830 251 -820ZM227 -820Q224 -827 220 -832L219 -831V-821L224 -818Z"/>
</svg>