<svg xmlns="http://www.w3.org/2000/svg" viewBox="0 -2048 2048 2048">
	<path fill="currentColor" d="M2153 -1493Q2153 -1484 2152 -1470Q2152 -1453 2152 -1448Q2133 -1398 2113 -1347Q2091 -1291 2061 -1252Q2040 -1221 1990 -1165Q1921 -1105 1819 -1068Q1788 -1055 1721 -1039Q1693 -1039 1637 -1024Q1591 -1000 1534 -944Q1487 -898 1440 -852Q1629 -686 1688 -543Q1715 -483 1759 -360Q1800 -213 1829 -9Q1860 202 1860 349H1620Q1584 162 1539 -17Q1448 -34 1334 -91Q1316 -100 1228 -158Q1292 -44 1401 194Q1434 284 1434 304Q1434 330 1390 354Q1353 374 1305 374Q1303 374 1143 333Q1039 306 829 269Q851 281 873 293Q897 308 910 328Q911 329 922 370Q894 370 845 361Q762 293 680 293Q657 293 579 326Q501 359 469 359Q462 359 447.5 356Q433 353 426 353Q421 353 339 370Q355 333 356 332Q366 317 391 310Q397 291 428 277Q453 267 478 257Q677 170 773 170Q770 170 923 195L1223 244Q1129 120 1036 -5Q924 -154 867 -265Q836 -243 784 -189Q770 -168 755 -122.5Q740 -77 728 -57Q726 -54 654 25Q508 185 361 237Q283 265 269 263L164 250Q154 249 154 236Q154 222 327 -239Q375 -366 428 -417Q508 -477 587 -538Q633 -581 731 -658L723 -696Q654 -672 638 -672Q583 -672 561 -683Q473 -728 473 -870Q473 -909 494 -973Q446 -964 448 -964Q447 -964 347 -984Q294 -995 216 -1002Q197 -1004 177 -1005Q153 -1009 143 -1020Q132 -1009 111 -986Q100 -1008 100 -1029Q100 -1131 189 -1155Q274 -1167 359 -1180Q375 -1184 422 -1207Q456 -1224 492 -1224Q634 -1224 659 -1147Q664 -1132 664 -1076Q664 -1047 642.5 -984Q621 -921 621 -882Q621 -840 657 -840Q700 -840 738 -922Q765 -981 791 -1040Q835 -1103 899 -1110Q928 -1113 982 -1113Q1060 -1113 1131 -1073Q1148 -1090 1182 -1123Q1268 -1228 1459 -1417Q1494 -1445 1875 -1501Q2022 -1523 2143 -1565Q2153 -1553 2153 -1493ZM2126 -1442L2123 -1535Q2087 -1523 2015 -1503Q1948 -1488 1767 -1461Q1610 -1438 1520 -1413Q1503 -1409 1471 -1397Q1462 -1392 1304 -1217Q1212 -1116 1151 -1064Q1316 -975 1425 -869Q1473 -915 1520 -961Q1578 -1017 1624 -1042Q1648 -1055 1685 -1058Q1736 -1063 1748 -1066Q1983 -1124 2087 -1327Q2100 -1365 2126 -1442ZM1837 323V317Q1837 307 1830 226Q1825 164 1812 41Q1775 -248 1722 -403Q1711 -426 1691 -472Q1639 -618 1483 -780Q1344 -924 1191 -1015Q1065 -1090 995 -1090Q849 -1090 808 -1027Q772 -971 772 -916Q772 -843 851 -732Q1011 -507 1319 -365Q1369 -342 1480 -301Q1507 -292 1560 -270Q1632 -233 1677 -129Q1717 -37 1717 54Q1716 59 1711 64H1700Q1695 48 1683 -25Q1673 -90 1640 -151Q1602 -221 1552 -248Q1510 -271 1430 -299Q1341 -329 1306 -346Q1177 -408 1061 -488Q967 -554 872 -667Q760 -799 750 -888Q708 -817 656 -817Q595 -817 595 -875Q595 -912 618 -982.5Q641 -1053 641 -1091Q641 -1123 637 -1140Q631 -1164 586 -1184Q546 -1201 516 -1201Q485 -1201 468 -1200Q447 -1199 412 -1179.5Q377 -1160 360 -1158.5Q343 -1157 316 -1150Q300 -1139 300 -1114Q300 -1072 311 -1056Q354 -1050 370 -1037V-1024H349Q333 -1024 302.5 -1033Q272 -1042 256 -1042Q233 -1042 171 -1031L445 -990Q450 -989 456 -989Q508 -989 554 -1025Q562 -1018 562 -1011Q562 -999 520 -979Q496 -905 496 -870Q496 -743 571 -704Q588 -695 627 -695Q653 -695 688.5 -708.5Q724 -722 729 -722Q738 -722 741 -717H739L743 -714Q794 -461 887 -278Q968 -121 1146 100Q1202 169 1261 261L1250 272L766 193Q692 187 596 226Q516 263 435 299Q425 303 417 309Q432 329 443 333Q460 335 477 338L678 270Q702 271 748 280Q754 282 849 336Q861 325 861 317Q861 316 860 313Q834 299 807 285Q768 262 770 249Q807 246 812 246Q895 246 1156 313Q1304 351 1305 351Q1376 351 1411 301Q1411 284 1385 214Q1378 193 1362 151Q1300 37 1185 -195Q1185 -206 1194 -207Q1244 -175 1340 -118Q1402 -85 1544 -39Q1558 -34 1562 -27Q1569 -14 1637 323ZM288 -1148Q193 -1135 175 -1127Q125 -1104 125 -1033Q135 -1039 154 -1053Q240 -1067 280 -1064Q277 -1073 277 -1081Q277 -1120 288 -1148ZM858 -283Q787 -418 736 -639Q648 -557 587 -509Q530 -473 435 -395Q393 -347 349 -236Q318 -148 287 -60Q254 34 180 228L267 239Q375 211 436 178Q494 147 580 72Q607 42 661 -17Q680 -35 713 -76Q727 -111 755 -181Q773 -225 858 -283ZM893 344Q890 340 882 334L875 343Q877 343 882 344ZM409 334L403 329Q391 329 380 340Q389 338 409 334ZM517 -1127Q517 -1069 448 -1069Q431 -1069 411.5 -1088.5Q392 -1108 378 -1108Q372 -1108 358 -1100Q350 -1113 350 -1124Q380 -1125 407.5 -1150.5Q435 -1176 462 -1176Q480 -1176 498.5 -1160.5Q517 -1145 517 -1127ZM467 -1114V-1130Q464 -1135 459 -1135Q456 -1135 447 -1118Q454 -1113 458 -1113H461Q462 -1113 467 -1114ZM431 -1100Q422 -1111 422 -1124Q422 -1131 429 -1140Q425 -1137 411 -1122Q417 -1114 431 -1100Z"/>
</svg>