<svg xmlns="http://www.w3.org/2000/svg" viewBox="0 -2048 2048 2048">
	<path fill="#000000" d="M2432 -546Q2432 -532 2413 -509L2401 -507Q2399 -476 2388 -414Q2368 -340 2317 -305Q2260 -266 2210 -266Q2157 -266 2079 -296Q2089 -255 2089 -248Q2089 -231 2070 -215.5Q2051 -200 2034 -203L1623 -274L1622 -273Q1653 -244 1653 -228Q1653 -219 1642 -198Q1573 -234 1525 -234Q1496 -234 1421 -214Q1369 -200 1379 -200Q1366 -200 1327 -208Q1327 -231 1365 -249Q1365 -268 1383 -275Q1399 -279 1416 -284Q1455 -297 1476 -299.5Q1497 -302 1527 -309Q1530 -313 1543 -321Q1548 -323 1588 -329.5Q1628 -336 1634 -335L1938 -296Q1873 -437 1836 -470Q1836 -470 1793.5 -490Q1751 -510 1688 -603Q1643 -556 1518 -486Q1423 -433 1329 -381Q1304 -423 1304 -509Q1304 -581 1371 -662Q1376 -668 1469 -753Q1546 -823 1546 -840Q1546 -849 1537 -873Q1528 -897 1528 -911Q1528 -963 1560 -1040Q1598 -1129 1604 -1165Q1612 -1212 1612 -1202Q1612 -1237 1584 -1237Q1581 -1237 1576 -1235.5Q1571 -1234 1568 -1234Q1516 -1234 1479 -1267Q1458 -1266 1414.5 -1250.5Q1371 -1235 1348 -1235Q1340 -1235 1328 -1248Q1378 -1275 1422 -1296Q1404 -1299 1349 -1305Q1351 -1318 1359 -1327Q1388 -1320 1417 -1317Q1407 -1321 1339 -1354V-1373L1471 -1348Q1495 -1377 1520 -1406Q1541 -1426 1595 -1426Q1627 -1426 1666 -1408Q1710 -1389 1721 -1363Q1734 -1332 1734 -1294Q1734 -1261 1720 -1207Q1708 -1163 1696 -1120Q1694 -1112 1692 -1102Q1692 -1078 1711 -1059.5Q1730 -1041 1754 -1041Q1770 -1041 1780 -1046Q1786 -1049 1913 -1172Q1994 -1250 2039 -1279Q2114 -1327 2195 -1327Q2290 -1327 2348 -1249Q2272 -1212 2233 -1177Q2188 -1129 2143 -1081Q2108 -1024 2021 -924Q2038 -888 2185 -803.5Q2332 -719 2381 -628Q2386 -616 2397 -592Q2432 -593 2432 -546ZM1259 -545Q1259 -508 1231 -507Q1229 -473 1216 -408Q1207 -393 1190 -361Q1172 -324 1160 -313.5Q1148 -303 1108 -287Q1056 -266 1044 -266Q963 -266 906 -294Q920 -250 920 -246Q920 -230 899.5 -216.5Q879 -203 863 -203Q862 -203 860 -204L456 -268Q481 -249 481 -211Q481 -200 466 -200Q461 -200 432 -217Q403 -234 389 -234Q309 -234 236 -211Q201 -200 208 -200Q201 -200 187.5 -201.5Q174 -203 168 -203L160 -211V-232Q171 -240 196 -251Q206 -288 354 -308Q370 -322 401 -326Q427 -329 453 -332Q466 -335 464 -335L768 -296Q735 -367 672 -466Q671 -467 637 -482.5Q603 -498 516 -603Q451 -547 340 -485Q247 -433 154 -381Q132 -422 132 -473Q132 -483 132 -504Q133 -525 133 -536Q133 -566 165 -616Q187 -651 232 -690Q269 -724 307 -757Q327 -787 375 -840Q356 -891 356 -911Q356 -962 396.5 -1054.5Q437 -1147 437 -1198Q437 -1237 414 -1237Q411 -1237 405.5 -1235.5Q400 -1234 397 -1234Q354 -1234 304 -1267L164 -1233V-1254L250 -1296Q230 -1299 180 -1305Q182 -1318 190 -1327Q220 -1319 244 -1317L164 -1352V-1373L301 -1348Q319 -1371 357 -1415Q368 -1416 390.5 -1421Q413 -1426 426 -1426Q428 -1426 449 -1421.5Q470 -1417 507 -1405Q565 -1373 565 -1292Q565 -1265 544 -1200.5Q523 -1136 523 -1103Q523 -1041 582 -1041Q599 -1041 608 -1046Q614 -1049 660 -1093Q757 -1187 891 -1295Q976 -1327 1024 -1327Q1108 -1327 1172 -1261L1169 -1246Q1116 -1220 1104 -1214Q1069 -1193 1047 -1170Q1020 -1141 951 -1043Q893 -960 847 -923Q887 -871 975 -823Q1090 -761 1117 -741Q1192 -683 1225 -591L1247 -588Q1259 -566 1259 -545ZM2438 -15Q2438 31 2424 65Q2414 89 2381.5 111Q2349 133 2324 133H208Q191 133 167 119Q100 80 100 -15Q100 -51 116 -89Q134 -134 162 -146Q187 -157 229 -157H2306Q2382 -157 2410 -115.5Q2438 -74 2438 -15ZM1467 -1319V-1328L1441 -1331ZM1470 -1289L1469 -1294L1449 -1283Q1457 -1285 1470 -1289ZM2406 -564L2385 -565Q2373 -596 2340 -652Q2293 -713 2162 -789Q2036 -863 2003 -910L1956 -873L1946 -883Q1978 -911 2037 -972Q2059 -1005 2104 -1071Q2159 -1147 2195 -1182Q2209 -1196 2311 -1259Q2265 -1303 2171 -1303Q2173 -1303 2142 -1295Q2091 -1282 2077 -1276Q2055 -1266 2021 -1236Q1950 -1161 1797 -1030Q1780 -1018 1756 -1018Q1724 -1018 1696.5 -1043Q1669 -1068 1669 -1100Q1669 -1100 1674 -1127Q1677 -1141 1696 -1210Q1711 -1261 1711 -1294Q1711 -1400 1599 -1400Q1591 -1400 1577.5 -1396Q1564 -1392 1558 -1391.5Q1552 -1391 1542 -1390Q1524 -1384 1506.5 -1358Q1489 -1332 1490 -1313V-1296Q1491 -1257 1566 -1257Q1569 -1257 1576 -1258.5Q1583 -1260 1586 -1260Q1604 -1260 1621 -1241.5Q1638 -1223 1638 -1205Q1638 -1185 1619 -1120Q1606 -1092 1581 -1035Q1551 -959 1551 -911Q1551 -848 1656 -685Q1763 -517 1822 -500Q1813 -530 1813 -564Q1813 -640 1864 -692Q1897 -725 2018 -731L2021 -707Q1920 -706 1881 -672Q1838 -635 1838 -536Q1838 -512 1891 -420Q1927 -361 1963 -301V-283L1946 -272L1632 -311Q1570 -312 1548 -297Q1543 -292 1528 -285Q1493 -280 1422 -262Q1436 -265 1456 -267L1459 -254Q1412 -238 1379 -229L1383 -226Q1474 -259 1544 -259Q1566 -259 1583 -250Q1604 -240 1612 -238L1618 -245L1597 -265V-286Q1601 -286 1614.5 -289Q1628 -292 1631 -292L2031 -229Q2034 -229 2039 -228Q2066 -228 2066 -251Q2066 -267 2052.5 -296.5Q2039 -326 2039 -342V-385Q2050 -366 2067 -326Q2133 -292 2190 -292Q2281 -292 2313 -332Q2317 -338 2325 -349Q2359 -398 2368 -430Q2376 -458 2376 -522Q2383 -528 2401 -533Q2406 -534 2406 -564ZM1676 -621Q1611 -705 1556 -814Q1512 -759 1483 -732Q1399 -655 1385 -639Q1330 -576 1330 -520V-485Q1329 -430 1337 -413Q1346 -419 1511 -511Q1616 -569 1676 -621ZM297 -1318V-1324Q297 -1325 296 -1328L270 -1331Q284 -1325 297 -1318ZM298 -1289V-1293L283 -1286ZM1236 -539L1233 -564Q1220 -564 1214 -565Q1200 -598 1164 -659Q1118 -718 997 -787Q873 -857 829 -910Q785 -871 779 -871Q767 -871 766 -879Q780 -900 817 -930Q860 -964 873 -979Q909 -1030 987 -1129Q1000 -1149 1031 -1186Q1053 -1208 1142 -1259Q1091 -1303 1049 -1303Q947 -1303 899 -1273Q843 -1238 759 -1153Q669 -1062 623 -1029Q608 -1018 585 -1018Q549 -1018 524.5 -1042.5Q500 -1067 500 -1103Q500 -1134 528 -1237Q542 -1288 542 -1292Q542 -1341 510.5 -1370.5Q479 -1400 429 -1400Q345 -1400 322 -1334Q318 -1323 318 -1309Q318 -1257 396 -1257Q399 -1257 405.5 -1258.5Q412 -1260 415 -1260Q463 -1260 463 -1207Q463 -1154 421 -1056Q379 -958 379 -911Q379 -845 485.5 -688Q592 -531 654 -499Q644 -533 644 -564Q644 -725 771 -725Q791 -725 790 -705Q769 -705 733 -699Q668 -674 669 -567V-532Q669 -505 732 -401Q795 -297 793 -289Q793 -286 791 -281V-282L783 -275L465 -312Q460 -313 422.5 -307Q385 -301 380 -299Q373 -293 356 -285Q331 -281 282 -271L296 -259Q257 -237 209 -229L212 -226Q371 -260 389 -260Q400 -260 415.5 -250Q431 -240 439 -238L447 -246Q425 -262 420 -277Q437 -289 452 -293L858 -229Q860 -229 865 -228Q891 -228 896 -249L867 -349Q865 -356 874 -362Q888 -359 892 -344Q895 -334 897 -324Q926 -292 1044 -292Q1073 -292 1113.5 -312Q1154 -332 1165 -356Q1169 -366 1178 -386Q1195 -416 1207 -523Q1209 -526 1236 -539ZM2412 -5Q2412 -134 2315 -134H220Q126 -134 126 -15Q126 34 135 53Q161 107 202 107H2336Q2348 107 2357 102Q2412 70 2412 -5ZM503 -624Q441 -701 384 -819Q365 -790 320 -738Q267 -690 215 -642Q158 -581 158 -517Q158 -449 164 -413Q257 -461 436 -566Q447 -573 503 -624ZM1587 -1338Q1587 -1327 1552 -1304Q1540 -1323 1540 -1340Q1541 -1340 1573 -1362Q1587 -1348 1587 -1338ZM412 -1335Q412 -1337 395 -1304Q371 -1316 371 -1335Q371 -1347 405 -1364Q405 -1357 408.5 -1348Q412 -1339 412 -1335Z"/>
</svg>