<svg xmlns="http://www.w3.org/2000/svg" viewBox="0 -2048 2048 2048">
	<path fill="#000000" d="M2150 -558Q2150 -543 2109 -529Q2074 -518 2053 -518Q2040 -518 2019 -523Q1994 -529 1986 -530Q1975 -503 1888 -487Q1824 -476 1772 -476Q1760 -476 1735.5 -478Q1711 -480 1699 -480Q1720 -448 1720 -444Q1720 -437 1717 -427H2149V-325H1324V124H1223V-76L911 -324H102Q105 -348 105 -370Q105 -389 102 -416Q120 -421 145 -421L146 -438Q287 -500 327 -500Q333 -500 338 -499L683 -461Q678 -475 648 -501Q573 -567 429 -706Q409 -734 367 -788Q322 -843 248 -960Q241 -975 241 -1003Q241 -1068 312.5 -1134.5Q384 -1201 384 -1249Q384 -1261 373 -1261Q368 -1261 359 -1259.5Q350 -1258 345 -1258Q287 -1258 250 -1274Q246 -1278 235 -1283Q224 -1288 178 -1288Q151 -1288 109 -1278L100 -1286V-1320Q115 -1331 147 -1348Q172 -1347 222 -1371Q279 -1428 306 -1428Q381 -1428 427 -1392Q479 -1352 479 -1280Q479 -1241 444.5 -1170Q410 -1099 410 -1097Q410 -1091 418 -1081Q515 -1081 616 -1021Q691 -976 806 -873Q892 -783 978 -694Q1086 -591 1191 -581Q1201 -565 1200 -547Q1191 -540 1171 -528Q1145 -518 1107 -518Q1095 -518 1072.5 -523.5Q1050 -529 1039 -530Q1033 -505 943 -488Q875 -476 827 -476Q814 -476 790 -478Q766 -480 755 -480Q773 -455 773 -441Q773 -428 768 -422H1090Q1092 -439 1105 -447Q1131 -462 1191.5 -481.5Q1252 -501 1277 -499H1284L1630 -461Q1627 -471 1588 -504Q1320 -731 1236 -894Q1220 -922 1204 -951Q1187 -984 1187 -1013Q1187 -1054 1236 -1107Q1274 -1148 1313 -1188Q1318 -1194 1333 -1222V-1233Q1333 -1261 1310 -1261Q1307 -1261 1301 -1259.5Q1295 -1258 1292 -1258Q1219 -1258 1185 -1284Q1160 -1288 1117 -1288Q1084 -1288 1076 -1287Q1064 -1279 1049 -1279V-1318Q1085 -1347 1112 -1352Q1128 -1354 1163 -1372Q1225 -1428 1253 -1428Q1325 -1428 1374 -1391Q1428 -1351 1428 -1281Q1428 -1243 1401 -1190Q1379 -1147 1356 -1104V-1097Q1356 -1080 1375 -1080Q1404 -1080 1468 -1060Q1528 -1041 1558 -1024Q1585 -1002 1641 -960.5Q1697 -919 1802 -828Q1855 -771 1907 -713Q1974 -645 2026 -616Q2061 -607 2131 -583Q2150 -575 2150 -558ZM2124 -559Q2112 -562 2089 -567Q2065 -578 2014 -595Q2004 -597 1827 -625Q1662 -651 1549 -711Q1509 -738 1429 -793Q1337 -855 1303 -906Q1291 -924 1291 -949Q1291 -1001 1358 -1015L1372 -1002Q1353 -993 1333.5 -983Q1314 -973 1314 -950Q1314 -911 1381 -855Q1526 -735 1657 -689Q1746 -657 1972 -624Q1926 -661 1861 -732Q1788 -811 1757 -839Q1629 -953 1545 -1006Q1470 -1053 1372 -1053Q1333 -1053 1333 -1084Q1333 -1116 1367.5 -1178Q1402 -1240 1402 -1286Q1402 -1402 1255 -1402Q1239 -1402 1212 -1385Q1185 -1368 1185 -1354Q1185 -1320 1204 -1296Q1272 -1281 1294 -1281Q1297 -1281 1303 -1282.5Q1309 -1284 1312 -1284Q1359 -1284 1359 -1233Q1359 -1202 1316 -1156Q1283 -1124 1249 -1092Q1213 -1055 1213 -1010Q1213 -981 1219 -966Q1278 -818 1555 -561Q1591 -535 1647 -479Q1656 -465 1656 -436L1377 -464L1664 -430Q1696 -428 1696 -443Q1696 -442 1655 -509L1667 -522Q1679 -515 1685 -506Q1721 -502 1781 -502Q1925 -502 1966 -538Q1980 -550 1990 -550Q2002 -550 2025.5 -547Q2049 -544 2061 -544Q2107 -544 2124 -559ZM1161 -1334L1160 -1340Q1152 -1335 1140 -1332ZM1168 -1310V-1311Q1138 -1311 1138 -1311ZM1497 -425L1334 -445Q1344 -435 1347 -425ZM1305 -472Q1296 -473 1290 -473Q1215 -473 1138 -433Q1152 -433 1183.5 -448Q1215 -463 1230 -463Q1249 -463 1283 -449L1272 -459Q1288 -470 1305 -472ZM1283 -424Q1245 -440 1230 -440Q1226 -440 1179 -424ZM1173 -559Q1132 -575 1048 -598Q935 -618 822 -638Q695 -665 606 -711Q537 -747 451 -815Q342 -902 342 -947Q342 -970 363.5 -992Q385 -1014 408 -1014Q420 -1014 420 -1005Q420 -1005 419 -996Q401 -988 383 -981Q365 -970 365 -946Q365 -908 464 -830Q546 -766 603.5 -738Q661 -710 783 -668Q825 -659 1025 -625Q984 -657 926 -719Q854 -797 832 -818Q805 -844 698 -927Q668 -955 603 -1003Q514 -1054 414 -1054Q406 -1054 396.5 -1071Q387 -1088 387 -1097Q387 -1104 420 -1170Q453 -1236 453 -1281Q453 -1322 450 -1329Q419 -1402 309 -1402Q289 -1402 263 -1383Q237 -1364 237 -1344Q237 -1321 255 -1296Q333 -1281 345 -1281Q348 -1281 354 -1282.5Q360 -1284 363 -1284Q410 -1284 410 -1233Q410 -1192 337 -1127.5Q264 -1063 264 -1003Q264 -976 282 -949Q332 -869 448 -719Q530 -645 689 -492Q710 -470 710 -449Q710 -436 698 -437L423 -465L717 -430Q747 -428 747 -444Q747 -453 729 -479.5Q711 -506 711 -509Q711 -521 719 -521Q729 -521 738 -506Q773 -502 828 -502Q972 -502 1013 -532Q1015 -533 1024 -545Q1030 -553 1036 -553Q1048 -553 1071.5 -548.5Q1095 -544 1107 -544Q1158 -544 1173 -559ZM214 -1334V-1339Q204 -1333 190 -1332ZM221 -1308L220 -1311H196Q191 -1311 185 -1310ZM2123 -350V-400H129V-350ZM1225 -183V-323H1049ZM1297 99V-323H1248V99ZM1226 -146Q1226 -147 1225 -151Q1155 -208 1016 -323H956L1224 -107Q1226 -145 1226 -146ZM573 -422L388 -445Q400 -434 402 -422ZM358 -472Q349 -473 344 -473H318Q270 -473 195 -435Q285 -463 283 -463Q286 -463 354 -439Q342 -446 329 -459Q346 -470 358 -472ZM336 -423Q291 -440 283 -440Q276 -440 226 -423ZM1260 -1340L1247 -1327Q1237 -1327 1220 -1336V-1351L1227 -1358H1226Q1235 -1364 1242 -1364Q1250 -1364 1256 -1357L1253 -1358L1260 -1351ZM314 -1350Q314 -1340 301 -1327H298Q287 -1327 274 -1340Q274 -1351 287 -1364Q300 -1364 314 -1350Z"/>
</svg>