<svg xmlns="http://www.w3.org/2000/svg" viewBox="19.6 -1508.4 2169.7 1748.7">
	<path fill="currentColor" d="M2109 -281H1299V160H1203V-30L892 -284H101Q104 -308 104 -330Q104 -352 101 -376H122Q135 -387 160 -410Q163 -416 177 -430Q193 -441 242 -451Q299 -463 315 -470Q344 -483 368 -481H376L652 -451Q629 -506 577 -594Q561 -601 531 -617Q505 -634 444 -714Q426 -696 387 -665Q377 -658 126 -519Q124 -529 113 -557Q106 -577 106 -602L107 -639Q108 -706 182 -779Q241 -838 300 -897Q307 -904 316 -921Q300 -961 300 -993Q300 -1023 337.5 -1109Q375 -1195 375 -1239Q375 -1252 368 -1257Q297 -1262 256 -1288L140 -1254Q134 -1264 133 -1275Q180 -1296 209 -1312Q167 -1321 100 -1342Q120 -1341 196 -1336Q166 -1351 107 -1381Q156 -1374 254 -1361Q295 -1428 363 -1428Q390 -1428 434 -1411Q454 -1403 470 -1369Q486 -1335 486 -1311Q486 -1289 468 -1232Q450 -1175 450 -1145Q450 -1091 502 -1091Q526 -1091 637 -1205Q768 -1339 881 -1339Q946 -1339 1019 -1280Q906 -1213 804 -1077Q784 -1044 731 -990Q746 -967 891 -880Q1023 -801 1058 -709L1075 -705Q1090 -677 1090 -660Q1090 -638 1063 -630Q1047 -480 953 -438Q915 -421 879 -421Q848 -421 784 -447Q793 -405 793 -407Q793 -385 774 -376H1144Q1145 -389 1178 -410L1177 -411L1179 -418Q1190 -431 1205 -437Q1248 -445 1331 -469Q1364 -482 1379 -481H1387Q1484 -469 1679 -450Q1653 -499 1594 -591Q1577 -599 1545 -617Q1501 -645 1459 -709Q1433 -690 1137 -518Q1124 -593 1124 -648Q1124 -713 1227 -808Q1300 -875 1333 -921Q1332 -930 1325 -949.5Q1318 -969 1318 -980Q1318 -1032 1353 -1112Q1388 -1192 1388 -1217Q1388 -1261 1356 -1262Q1303 -1264 1273 -1288L1164 -1254Q1155 -1258 1145 -1268L1224 -1313Q1171 -1325 1117 -1342Q1148 -1341 1210 -1337Q1180 -1352 1121 -1381Q1169 -1377 1271 -1361Q1324 -1428 1380 -1428Q1403 -1428 1448 -1411Q1468 -1403 1484.5 -1369Q1501 -1335 1501 -1311Q1501 -1283 1482.5 -1228.5Q1464 -1174 1464 -1145Q1464 -1127 1479.5 -1109Q1495 -1091 1513 -1091Q1523 -1091 1542 -1105Q1579 -1133 1654 -1207Q1725 -1275 1769 -1306Q1817 -1339 1895 -1339Q1976 -1339 2028 -1284L2024 -1270Q1981 -1249 1913 -1199Q1906 -1186 1890 -1160Q1873 -1144 1842 -1111Q1813 -1068 1744 -991Q1759 -965 1810 -937Q1850 -916 1889 -895Q1984 -831 2033 -772Q2042 -761 2070 -710L2089 -706Q2104 -678 2104 -660Q2104 -639 2076 -631Q2060 -477 1967 -438Q1927 -421 1890 -421Q1850 -421 1802 -444Q1810 -419 1810 -414Q1810 -387 1786 -376H2109ZM1265 -1338V-1341L1253 -1343ZM2080 -661L2076 -681Q2059 -682 2044 -708Q2034 -728 2023 -748Q1983 -803 1875 -878Q1869 -882 1797 -922Q1749 -947 1727 -976Q1694 -945 1688 -945Q1676 -945 1675 -954Q1680 -960 1736 -1014Q1753 -1030 1802 -1094Q1825 -1120 1870 -1172Q1877 -1186 1893 -1212Q1921 -1247 1995 -1283Q1946 -1316 1919 -1316Q1830 -1316 1789 -1291Q1735 -1258 1667 -1193Q1567 -1096 1554 -1085Q1534 -1068 1515 -1068Q1489 -1068 1465 -1092Q1441 -1116 1441 -1142Q1441 -1172 1459 -1227.5Q1477 -1283 1477 -1311Q1477 -1380 1436 -1391Q1434 -1392 1402 -1398Q1382 -1402 1379 -1402Q1346 -1402 1333 -1395Q1317 -1386 1300 -1362Q1283 -1338 1283 -1321Q1283 -1292 1347.5 -1285.5Q1412 -1279 1412 -1248Q1412 -1201 1376.5 -1114.5Q1341 -1028 1341 -981Q1341 -926 1432.5 -786.5Q1524 -647 1574 -630Q1563 -667 1563 -679Q1563 -723 1583 -766Q1609 -821 1681 -821Q1693 -821 1702 -815Q1693 -797 1671 -797Q1589 -797 1589 -679Q1589 -650 1596 -634Q1633 -570 1704 -441Q1688 -425 1675 -427L1410 -458Q1376 -459 1355 -454Q1345 -449 1325 -440Q1303 -435 1259 -426L1269 -417Q1245 -402 1229 -397Q1321 -420 1325 -420Q1352 -420 1391 -402H1395Q1376 -420 1376 -430Q1376 -442 1385 -442Q1391 -444 1406 -444Q1455 -444 1560 -428Q1571 -426 1661 -408Q1721 -395 1763 -395Q1778 -395 1784 -403V-410Q1784 -429 1771.5 -458.5Q1759 -488 1759 -497Q1759 -510 1767 -510Q1778 -510 1783 -496Q1789 -478 1792 -475Q1799 -469 1875 -448Q1890 -444 1890 -444Q1907 -444 1953 -457Q1986 -466 2017.5 -510Q2049 -554 2049 -589Q2049 -595 2047.5 -606Q2046 -617 2046 -623Q2046 -645 2055 -650Q2068 -655 2080 -661ZM1444 -731Q1391 -801 1343 -894Q1302 -853 1221 -771Q1151 -700 1151 -607Q1151 -584 1154 -553Q1229 -593 1304 -634Q1393 -683 1444 -731ZM1707 -376Q1512 -414 1409 -421Q1429 -396 1427 -376ZM1388 -376Q1348 -397 1308 -397Q1281 -388 1246 -376ZM1207 -392L1197 -391V-390ZM248 -1338V-1341L238 -1342ZM1066 -661L1062 -680Q1045 -678 1031 -718Q1008 -784 852 -880Q815 -901 778 -922Q736 -948 713 -976Q677 -945 671 -945Q658 -945 658 -954Q658 -958 697 -992Q742 -1030 745 -1034Q788 -1094 879 -1211Q904 -1241 977 -1281Q920 -1316 905 -1316Q845 -1316 813 -1306Q762 -1290 639 -1176Q523 -1068 504 -1068Q472 -1068 449 -1090Q426 -1112 426 -1144Q426 -1175 444.5 -1232.5Q463 -1290 463 -1311Q463 -1332 452 -1357Q439 -1386 422 -1391Q383 -1402 364 -1402Q332 -1402 318 -1395Q271 -1371 271 -1327Q271 -1290 334.5 -1284.5Q398 -1279 398 -1248Q398 -1196 362.5 -1110Q327 -1024 327 -984Q327 -923 390 -829Q408 -801 505 -672Q529 -640 560 -630Q549 -667 549 -679Q549 -822 671 -822Q678 -822 684 -813Q675 -801 643 -795Q611 -789 597 -774Q575 -749 575 -686Q575 -644 591 -614Q617 -569 644 -524Q683 -455 683 -437Q673 -426 661 -427L402 -458Q396 -459 389 -459Q358 -459 337 -454Q329 -449 311 -441Q300 -437 245 -425L254 -418Q241 -405 225 -400Q303 -420 308 -420Q315 -420 375 -401L380 -403L352 -431Q371 -444 392 -444Q430 -444 546 -428Q564 -425 645 -408Q706 -395 746 -395Q762 -395 769 -403Q767 -410 755 -450Q745 -480 745 -497Q745 -510 753 -510Q767 -510 770 -497Q774 -479 775 -478Q806 -444 882 -444Q911 -444 951.5 -464.5Q992 -485 1008 -509Q1029 -540 1032 -578Q1036 -631 1040 -645Q1043 -656 1050 -657Q1063 -659 1066 -661ZM2084 -306V-350H131V-306ZM1201 -148V-281H1030ZM1272 134V-280H1228V134ZM1201 -63V-118L997 -283H937ZM430 -733Q381 -797 327 -893Q309 -867 231 -795Q160 -729 150 -707Q133 -669 133 -634Q133 -565 141 -550Q217 -592 292 -634Q388 -690 430 -733ZM693 -376Q644 -386 547 -405Q528 -408 391 -423Q416 -399 416 -390Q416 -383 412 -376ZM377 -376Q331 -397 307 -397Q301 -397 236 -376ZM210 -396Q201 -395 182 -392L183 -390ZM1369 -1349Q1369 -1339 1353 -1324Q1328 -1337 1327 -1366H1361Q1369 -1359 1369 -1349ZM359 -1341Q352 -1336 340 -1325Q327 -1325 308 -1353L321 -1366H354Q354 -1351 359 -1341Z"/>
</svg>