<svg xmlns="http://www.w3.org/2000/svg" viewBox="0 0 889 1000">
  <g transform="scale(1,-1) translate(0,-1000)">
    <path d="M39 894Q39 902 50.5 908.5Q62 915 62 927Q62 933 52 933Q40 933 33 923Q27 913 27 893Q27 875 58 736Q67 749 76.5 755.0Q86 761 91.0 762.0Q96 763 96 765Q96 780 82.0 803.0Q68 826 67 829Q39 891 39 894ZM820 885Q800 899 800 922Q800 936 809.0 944.5Q818 953 824.0 954.0Q830 955 835 955Q841 955 849.5 952.0Q858 949 863 946L868 943Q889 930 889 886Q889 860 852 703Q856 702 864.5 701.0Q873 700 878 699L871 656L839 661L807 481Q820 441 835.0 372.5Q850 304 858.0 257.0Q866 210 866 206Q866 200 861.5 195.5Q857 191 851 191Q847 191 835.5 197.5Q824 204 804.5 219.5Q785 235 767 256L758 205Q770 199 770 189Q770 170 750 157L735 75Q734 64 722 64Q716 64 711.5 68.5Q707 73 708 80L721 153L719 154V155L646 226Q613 170 611 168Q606 163 600 163Q593 163 589 167Q562 189 562 189L557 193Q535 150 502 129L553 23Q555 19 555 16Q555 9 550.0 4.5Q545 0 538 0H352Q336 0 336 16Q336 19 338 23L389 129Q353 154 335 198L297 166Q293 162 286 162Q276 162 272 170L240 225Q228 213 203.5 189.0Q179 165 166 153L179 77Q180 70 176.0 65.5Q172 61 165 61Q153 61 152 72L139 143Q114 150 112 182Q112 197 127 201Q127 204 128 205L124 230Q105 211 84.0 197.0Q63 183 56 183Q50 183 45.5 187.5Q41 192 41 198Q41 200 49.0 246.5Q57 293 68.5 353.0Q80 413 87 439L48 658L16 652L9 696Q14 697 24.0 698.5Q34 700 39 701Q0 857 0 891Q0 910 5.5 924.0Q11 938 17.5 944.5Q24 951 33.0 955.0Q42 959 46.0 959.5Q50 960 53 960Q58 960 64.5 959.0Q71 958 80.0 949.5Q89 941 89 927Q89 903 69 889Q69 889 74.0 878.5Q79 868 84.5 855.0Q90 842 92 839Q95 833 106.5 813.0Q118 793 121 777Q121 776 121.5 772.0Q122 768 122 766Q122 744 98 735Q90 732 87.0 728.5Q84 725 72 708V707L101 712L109 669L76 663L105 498Q135 580 189.5 627.0Q244 674 338 678Q334 702 326 712H324Q309 712 294 699L278 685H274Q261 685 261 714Q261 767 310 800Q375 844 409 844Q415 844 423.0 842.5Q431 841 447.5 833.5Q464 826 478.5 812.5Q493 799 509.0 771.0Q525 743 535 705Q709 704 787 531L811 666L778 672L786 715Q790 714 799.0 712.5Q808 711 812 710Q802 725 790 730Q766 739 766 761Q766 764 769 779Q770 786 774.0 792.5Q778 799 790.5 823.5Q803 848 820 885ZM370 688Q391 693 403.5 701.5Q416 710 418.5 716.5Q421 723 425.0 727.5Q429 732 436 732Q450 732 450 719Q450 714 444.5 704.5Q439 695 420.5 681.0Q402 667 374 660Q376 632 376 603Q376 571 370 505Q371 503 371 499Q371 494 368 489Q352 340 352 302Q352 249 363.5 215.5Q375 182 389.0 171.5Q403 161 414.5 152.5Q426 144 426 136Q426 130 425 128L378 33H512L466 128Q464 132 464 136Q464 143 478.0 153.5Q492 164 508.5 178.5Q525 193 539.0 237.0Q553 281 553 346Q553 374 550.0 410.0Q547 446 544.5 468.0Q542 490 541 491Q538 495 538 501Q538 504 539 506Q522 618 508.0 675.5Q494 733 478.5 759.0Q463 785 436 803Q424 811 409 811Q385 811 326 771Q297 751 294 725Q312 746 326 746Q358 746 370 688ZM407 771Q407 754 391 754Q377 754 377 771Q377 784 393 784Q398 784 402.5 780.0Q407 776 407 771ZM570 225 595 204Q628 260 631 263Q636 268 642 268Q650 268 654 264L722 197Q722 197 723 198H724L581 433Q586 385 586 347Q586 277 570 225ZM831 731Q862 870 862 888Q862 897 860.5 904.5Q859 912 858 915L856 918Q849 928 836 928Q831 928 829.0 927.0Q827 926 827.0 925.0Q827 924 827 922Q827 910 838.0 903.5Q849 897 849 889V888Q849 884 822 824Q821 821 807.0 798.0Q793 775 793 760Q793 758 798.0 757.0Q803 756 812.5 750.0Q822 744 831 731ZM101 362Q100 358 98.5 349.0Q97 340 96 336Q99 338 104 343ZM110 309Q98 300 89 297Q89 286 77 229Q97 244 117 267ZM148 257 151 236Q222 332 264.5 393.0Q307 454 320.5 475.5Q334 497 337 501Q337 503 337.5 507.5Q338 512 338 514Q300 491 268.5 447.5Q237 404 204.5 346.0Q172 288 148 257ZM117 433 128 371Q133 378 178.0 448.0Q223 518 254 549Q298 593 343 605Q341 644 341 644V645V648Q243 644 193.5 590.0Q144 536 117 433ZM134 332 140 298Q155 320 192.0 384.5Q229 449 262.5 488.5Q296 528 341 550Q342 558 342 573Q298 557 261.5 514.0Q225 471 190.0 413.0Q155 355 134 332ZM736 240 744 286Q725 312 693.5 368.5Q662 425 633.5 462.5Q605 500 569 522Q572 503 572 503ZM159 192 232 263Q236 267 243 267Q253 267 257 259L290 204L325 233Q319 266 319 303Q319 343 329 437Q285 378 252.5 332.5Q220 287 203.5 262.5Q187 238 178.0 223.5Q169 209 164.5 201.5Q160 194 159 192ZM542 675Q549 643 554 615Q606 604 653 557Q674 536 692.0 511.0Q710 486 734.0 448.0Q758 410 764 401L778 477Q711 670 542 675ZM795 417 787 369Q795 359 811 345Q802 391 795 417ZM559 583Q560 579 561.5 571.0Q563 563 563 560Q590 547 613.0 528.0Q636 509 656.0 483.0Q676 457 689.0 436.0Q702 415 721.5 380.5Q741 346 752 329L757 359Q745 375 706.5 437.0Q668 499 634.5 534.5Q601 570 559 583ZM780 332 774 295Q799 261 830 237Q818 294 818 306Q796 316 780 332Z" fill="currentColor"/>
  </g>
</svg>