<svg xmlns="http://www.w3.org/2000/svg" viewBox="0 -2048 2048 2048">
	<path fill="#000000" d="M2328 -7Q2328 2 2314.5 15Q2301 28 2290 28Q2252 28 2153 -21Q2060 -67 2042 -62L2176 119L1881 314L1532 -235Q1503 -32 1487 144L1358 80Q1353 125 1342 217Q1360 225 1454 242Q1520 254 1563 298V331Q1530 319 1500 319Q1494 319 1478 325Q1462 331 1453 331Q1446 331 1371.5 322.5Q1297 314 1290 314Q1288 314 1186 321Q1079 329 1036 330Q936 325 714 325Q707 313 707 285Q759 254 855 243Q933 234 1011 225Q1020 218 1025 210Q1062 95 1062 42Q1062 -112 969 -319Q900 -470 813 -591Q739 -550 665 -509Q557 -451 505 -451Q443 -451 376 -533Q351 -564 229 -768Q106 -976 106 -991V-1033Q108 -1033 118.5 -1036Q129 -1039 139 -1039Q144 -1026 149 -1012Q158 -996 176 -995Q155 -1056 100 -1143Q138 -1162 140 -1162Q149 -1162 171.5 -1133Q194 -1104 202 -1085Q220 -1021 270 -904Q301 -866 370 -783Q374 -778 374 -792Q374 -799 331 -919Q314 -944 282 -1001Q278 -1019 269 -1054V-1074Q318 -1074 321 -1073Q313 -1044 344 -1028Q350 -1023 350 -1037Q350 -1066 293 -1208Q298 -1208 313 -1214.5Q328 -1221 336 -1221Q348 -1221 406 -1126Q420 -1104 416 -1060Q412 -1011 416 -997Q428 -960 547 -707Q637 -741 704 -805Q703 -811 694 -850Q687 -880 689 -897Q693 -922 706 -978Q718 -1027 718 -1034Q718 -1057 692 -1057Q677 -1057 633 -1011Q605 -979 576 -947Q562 -953 525 -990Q531 -997 580 -1049Q613 -1083 613 -1092Q613 -1099 586.5 -1146Q560 -1193 560 -1200Q560 -1206 579 -1240Q600 -1279 605 -1295Q611 -1339 644 -1418Q711 -1507 832 -1507Q924 -1507 984.5 -1447.5Q1045 -1388 1045 -1302Q1045 -1296 1019 -1214Q990 -1121 980 -1079Q1090 -1051 1144 -1032Q1234 -1001 1306 -956Q1375 -913 1493 -819Q1561 -765 1678 -642Q1729 -587 1835 -473Q1913 -390 2059 -247Q2136 -182 2213 -117Q2328 -19 2328 -7ZM1015 -1302Q1015 -1376 961.5 -1429.5Q908 -1483 832 -1483Q801 -1483 749 -1469Q732 -1465 692 -1426Q642 -1380 642 -1345V-1327L814 -1302Q868 -1320 867 -1320Q910 -1320 910 -1270Q910 -1263 895.5 -1222Q881 -1181 881 -1174Q881 -1157 900 -1133Q921 -1105 950 -1093Q1015 -1288 1015 -1302ZM2293 0Q2291 -2 2096 -175Q1959 -296 1874 -391Q1604 -691 1464 -815Q1385 -885 1241 -961Q1068 -1052 969 -1052Q899 -1052 839 -1011Q770 -964 770 -894Q770 -873 784 -809Q794 -765 866 -684Q934 -610 970 -592Q1202 -476 2236 -9Q2256 -6 2293 0ZM928 -1072Q900 -1075 875 -1115Q852 -1150 852 -1174Q852 -1181 866.5 -1213Q881 -1245 881 -1252V-1290H854Q817 -1273 817 -1273L654 -1297Q645 -1297 637 -1294Q632 -1283 609 -1243Q590 -1209 590 -1203Q590 -1195 612 -1156Q638 -1110 644 -1095Q673 -1090 702 -1086Q747 -1076 747 -1040Q747 -1033 729.5 -961Q712 -889 712 -882Q712 -868 748 -766Q751 -766 759 -769.5Q767 -773 770 -773Q741 -814 741 -879Q741 -954 782 -997.5Q823 -1041 928 -1072ZM2136 113Q2103 56 2069 -1Q2029 -68 1988 -92Q1815 -194 1537 -318Q1319 -414 1101 -510Q1041 -537 932 -592Q925 -596 902 -615Q884 -631 878 -631Q870 -631 856 -621Q838 -607 835 -606Q970 -435 1104 -265Q1278 -39 1278 66Q1278 178 1247 222Q1227 250 1210 254Q1171 259 1104 274V301Q1203 284 1272 284L1476 301V274Q1419 266 1363 259Q1313 248 1313 182Q1313 124 1326 72Q1331 52 1345 39Q1424 84 1463 103Q1472 -3 1495 -208Q1495 -233 1496 -259Q1499 -289 1525 -293L1887 279ZM641 -1062Q611 -1047 560 -996Q565 -991 575 -987Q614 -1026 641 -1062ZM724 -757Q719 -762 716 -771Q589 -690 524 -672Q492 -744 430 -886Q389 -985 389 -1008Q390 -1109 334 -1185Q374 -1102 374 -1049Q374 -1016 358 -993Q340 -999 310 -1013Q345 -963 397 -818Q443 -692 510 -620Q537 -638 724 -757ZM171 -1093L164 -1110L156 -1107L163 -1093ZM183 -1076L176 -1093L167 -1090L175 -1076ZM852 -658Q810 -698 780 -748Q708 -704 637 -660Q548 -608 494 -590Q472 -627 389 -718Q298 -818 262 -869Q200 -958 202 -1022Q202 -1024 205 -995Q207 -976 203 -966Q198 -952 181 -952Q173 -952 162 -958.5Q151 -965 147 -966L255 -779Q337 -633 343 -623Q439 -474 499 -474Q546 -474 693 -559Q805 -623 852 -658ZM195 -1047V-1062H185V-1047ZM201 -1029V-1045H191V-1029ZM1248 68V18Q1249 -55 982 -363Q1011 -302 1049 -170Q1091 -24 1091 37Q1091 88 1043 234Q1040 239 1033 249H1054Q1071 242 1096 242Q1119 167 1165 22ZM1243 99Q1221 87 1181 63Q1163 123 1127 237H1169Q1222 237 1233 177Q1238 138 1243 99ZM1073 279H1046Q1034 290 1034 301H1054Q1073 292 1073 279ZM962 269V259H941V269ZM969 297L966 288L952 295V304ZM939 268H913Q888 278 888 301H914Q924 288 939 268ZM859 284L854 276L833 290L838 298ZM807 283L801 277L781 297L786 303ZM753 297L750 288L736 295V304ZM730 -1229Q727 -1226 723 -1219Q719 -1212 716 -1209Q683 -1215 642 -1235Q673 -1273 683 -1273Q711 -1273 730 -1229Z"/>
</svg>