<svg xmlns="http://www.w3.org/2000/svg" viewBox="27.6 -1537.4 1955.9 1905.9">
	<path fill="currentColor" d="M1911 259Q1911 286 1869 286Q1837 286 1807 253Q1762 202 1736 185H1730Q1756 237 1756 244Q1756 291 1650 291Q1567 291 1515 229Q1477 183 1433 64Q1404 -9 1342 -165Q1301 -70 1267 50Q1211 17 1127 -20Q1108 104 1108 176Q1108 194 1122 211Q1205 211 1260 208.5Q1315 206 1304 206Q1432 206 1465 269Q1456 291 1437 291Q1431 291 1428 283.5Q1425 276 1419 276Q1412 276 1407.5 283Q1403 290 1403 290Q1392 296 1352 296L1028 279L703 291Q700 288 696 281Q692 274 689 271Q659 286 652 286Q653 286 615 283Q581 279 559 281Q547 282 514.5 286.5Q482 291 476 291Q447 291 443 290Q436 283 418 271Q409 278 389 291Q384 292 375 284.5Q366 277 366 269Q366 221 503 215Q538 210 609 203Q639 207 688 200Q721 182 735 113Q792 -167 792 -253Q792 -310 763 -514Q749 -609 720 -673Q714 -687 687 -687Q684 -687 588 -657Q492 -627 416 -627Q349 -627 237 -674Q100 -732 100 -802Q100 -826 142 -833Q140 -833 245.5 -782.5Q351 -732 423 -732Q494 -732 526 -755Q519 -767 494 -767Q488 -767 458.5 -764.5Q429 -762 423 -762Q348 -762 300 -805Q312 -825 332 -858Q372 -838 403 -838Q409 -838 471 -848Q533 -858 539 -858Q551 -858 663 -802Q627 -970 627 -1016Q627 -1022 652 -1117.5Q677 -1213 677 -1219Q677 -1279 634 -1287Q537 -1304 436 -1304Q370 -1304 354 -1285H336V-1348Q372 -1384 443 -1403Q448 -1404 619 -1436Q775 -1465 840 -1465Q942 -1465 1001 -1443Q1016 -1437 1034 -1378Q1040 -1342 1054 -1272Q1059 -1250 1069 -1238Q1118 -1189 1206 -1087Q1254 -1009 1364 -863Q1373 -853 1462 -841Q1524 -833 1548 -832H1591L1631 -1344H1815L1855 -678H1484Q1574 -501 1741 -133Q1911 238 1911 259ZM1334 -859Q1284 -931 1181 -1072Q1122 -1134 1054 -1208Q1029 -1240 1022 -1292Q1018 -1330 1014 -1368Q1008 -1398 1006 -1402Q999 -1422 986 -1428Q947 -1445 845 -1445Q784 -1445 657 -1424V-1406Q681 -1365 717 -1332Q714 -1329 710.5 -1323Q707 -1317 704 -1314Q641 -1339 531 -1339Q477 -1339 391 -1327Q484 -1326 577 -1324Q697 -1316 697 -1216Q697 -1196 670 -1107Q652 -1047 652 -1011Q652 -904 693 -808L832 -834Q802 -908 802 -943Q802 -967 822 -990Q842 -1013 872 -1013Q878 -1013 930 -1005.5Q982 -998 988 -998Q994 -998 1049.5 -1003Q1105 -1008 1111 -1008Q1129 -1008 1185 -1001Q1194 -995 1194 -992Q1192 -987 1185 -978H1157Q1081 -977 930 -979Q919 -980 899 -984Q879 -988 875 -988Q859 -988 842 -976Q822 -962 822 -943Q822 -917 859 -833Q1090 -863 1163 -863ZM1835 -708L1795 -1319H1651L1611 -807H1548Q1521 -811 1477 -818Q1379 -830 1317 -836Q1297 -838 1184 -838Q1011 -838 885 -821Q846 -816 753 -796Q667 -777 664 -777Q658 -777 599 -805Q540 -833 534 -833Q528 -833 468.5 -823Q409 -813 403 -813Q392 -813 336 -827Q336 -824 333.5 -818Q331 -812 331 -809Q385 -782 421 -782Q427 -782 470 -787Q513 -792 519 -792Q538 -792 545 -773Q548 -756 551 -740Q540 -728 490 -717Q444 -707 416 -707Q352 -707 244.5 -760Q137 -813 145 -813Q137 -813 125 -801Q135 -746 240 -697Q338 -652 418 -652Q513 -652 615 -688Q632 -698 660 -708ZM661 -1356Q641 -1382 631 -1414H614Q553 -1402 492 -1391Q428 -1377 381 -1351Q448 -1364 514 -1364Q589 -1364 661 -1356ZM1886 259Q1788 29 1690 -202Q1555 -517 1458 -681H938Q1029 -562 1194 -367Q1272 -285 1415 -154Q1590 7 1621 37Q1856 266 1869 266Q1879 266 1886 259ZM1725 245Q1716 201 1693 142Q1631 71 1531 -22Q1448 -99 1365 -175Q1392 -102 1438 19Q1487 145 1515 187Q1571 271 1655 271Q1699 271 1725 245ZM1389 270Q1373 268 1343 260Q1331 255 1307 231H1111Q1083 231 1083 189Q1083 211 1104 -41Q1115 -55 1115 -55L1252 15L1329 -208Q1208 -321 906 -681H747Q878 -451 1061 -96Q1068 -79 1068 20Q1068 166 1047 202Q1039 216 1001 229Q968 242 950 242H783Q777 267 727 264H742L990 256Q994 256 1121 263Q1245 271 1252 270ZM1003 -166L779 -572Q812 -356 812 -245Q812 -65 740 163Q733 185 707 220Q741 215 761 216L851 -110Q910 -74 976 -40Q984 -82 1003 -166ZM1048 -5Q1048 -70 1020 -130Q1001 -55 984 -9L864 -75L782 215Q812 221 840 221Q1012 221 1026 190Q1048 143 1048 -5ZM674 223Q605 230 523 233Q505 256 484 264Q525 261 565 257Q613 253 640 261Q655 238 674 223ZM802 -1375Q802 -1339 775 -1339Q763 -1339 747.5 -1349.5Q732 -1360 732 -1372Q732 -1383 743.5 -1399Q755 -1415 767 -1415Q802 -1415 802 -1375ZM776 -1365Q776 -1384 771 -1389Q757 -1389 757 -1371Q763 -1365 776 -1365Z"/>
</svg>