<svg xmlns="http://www.w3.org/2000/svg" viewBox="28.6 -1575.4 1914.8 1927.8">
	<path fill="currentColor" d="M1872 -378H1552L1817 239Q1798 269 1774 269Q1741 269 1708 236Q1673 199 1637 162Q1637 173 1645.5 196Q1654 219 1654 224Q1654 274 1548 274Q1462 274 1406 198Q1373 154 1327 34Q1274 -102 1240 -188Q1216 -149 1195 -82Q1177 -26 1160 30Q1087 -12 1023 -41Q999 115 999 165Q999 192 1027 193Q1108 195 1158 192Q1214 188 1200 188Q1334 188 1365 251Q1362 259 1331 274Q1328 271 1324 264Q1320 257 1317 254Q1300 281 1253 279L925 262L653 274Q631 275 594 273Q594 273 575 254Q560 269 542 269Q546 269 497 267Q455 264 433 266Q425 267 394 270Q367 274 361 274Q334 274 331 273.5Q328 273 320.5 263.5Q313 254 306 254Q297 254 276 274Q270 275 247 252Q256 231 279 216Q293 206 341 202Q417 196 569 182Q604 178 641 10Q674 -137 674 -201V-379H100V-403Q100 -439 127.5 -512Q155 -585 241 -668Q327 -751 406 -780Q456 -798 483 -801Q510 -801 567 -806Q516 -949 516 -1044Q516 -1094 540 -1162Q562 -1224 562 -1257Q562 -1296 538 -1314Q518 -1329 463 -1332Q441 -1333 382 -1337Q332 -1341 326 -1341Q274 -1341 250 -1334Q245 -1327 227 -1317Q222 -1322 217 -1322Q217 -1323 224 -1371Q229 -1406 259 -1415Q287 -1428 346 -1446Q649 -1504 737 -1504Q851 -1504 891 -1486Q908 -1479 924 -1415Q934 -1377 949 -1298Q954 -1274 964 -1264Q1010 -1224 1083 -1147Q1159 -1045 1328 -802H1872V-774H1344L1546 -406H1872ZM552 -1393Q530 -1422 520 -1453H494Q479 -1453 387 -1428Q289 -1402 262 -1388Q325 -1402 410 -1402Q471 -1402 552 -1393ZM1786 243Q1610 -188 1500 -430Q1336 -790 1088 -1101Q1020 -1166 934 -1269Q920 -1298 909 -1369Q898 -1436 879 -1466Q819 -1483 720 -1483Q665 -1483 547 -1462V-1439Q553 -1430 603 -1364L590 -1351Q546 -1377 447 -1377Q329 -1377 278 -1363H437Q587 -1363 587 -1252Q587 -1232 562 -1148.5Q537 -1065 537 -1046Q537 -914 641 -699Q682 -614 823 -372Q906 -230 922 -190Q963 -96 963 13Q963 145 941 179Q916 218 813 224Q819 224 675 224Q667 235 613 246Q656 246 656 246Q887 236 887 236Q939 236 1247 245Q1227 240 1206 214H1002Q973 187 974 180L1003 -76Q1088 -38 1145 -5L1227 -232Q998 -459 900 -577Q689 -830 689 -973Q689 -1002 712.5 -1024Q736 -1046 765 -1046Q784 -1046 823.5 -1038.5Q863 -1031 882 -1031Q907 -1031 958 -1036.5Q1009 -1042 1034 -1042Q1069 -1042 1090 -1028L1082 -1011Q1057 -1011 1006 -1011Q956 -1010 931 -1010Q847 -1010 824 -1012Q816 -1013 797 -1017Q778 -1021 768 -1021Q714 -1021 714 -970Q714 -790 1089 -404Q1354 -144 1619 115Q1664 157 1752 243ZM1629 218Q1629 162 1591 118Q1428 -72 1264 -192Q1321 -31 1348 29Q1405 158 1417 177Q1468 254 1548 254Q1567 254 1595 245Q1629 234 1629 218ZM668 -407V-450Q668 -557 631 -669Q611 -708 576 -782H514Q508 -782 495 -777.5Q482 -773 478 -773Q383 -765 262 -654Q138 -542 133 -450Q131 -416 125 -407ZM897 -188L671 -594L699 -279Q699 -160 675 -33Q646 119 593 202Q621 196 647 198L738 -132Q819 -87 871 -61Q875 -96 897 -188ZM943 -5Q943 -47 931 -110Q928 -126 915 -152Q899 -80 884 -20Q838 -48 751 -96L674 197Q682 197 702 200Q722 203 727 203Q892 203 915 172Q922 162 932.5 96Q943 30 943 -5ZM562 204H544Q520 204 476 209Q427 215 407 216Q396 234 349 247H384Q398 247 427.5 244Q457 241 472 241Q492 241 525 244Q544 215 562 204ZM689 -1410Q689 -1388 683 -1377H652Q643 -1377 633 -1388.5Q623 -1400 623 -1410Q623 -1434 656 -1458Q685 -1438 689 -1429Q689 -1429 689 -1410ZM660 -1403V-1427H652V-1403Z"/>
</svg>