<svg xmlns="http://www.w3.org/2000/svg" viewBox="23.2 -1627.8 2074.7 2036.7">
	<path fill="currentColor" d="M2021 292Q2021 281 2007 324Q1991 327 1964 327Q1956 327 1952 323.5Q1948 320 1821 198Q1848 277 1848 274Q1848 281 1833 310Q1766 329 1778 329H1686Q1616 329 1559 214Q1550 195 1402 -169L1317 66L1169 -9L1145 222Q1144 232 1144 231Q1144 242 1224 242H1370Q1415 242 1462 252Q1501 260 1533 303Q1533 326 1512 326Q1505 326 1480 307Q1473 332 1449 332Q1384 332 1254.5 325Q1125 318 1060 318Q1040 318 723 329Q713 329 700 301V300Q696 302 681.5 314Q667 326 660 326Q652 326 633 316Q582 315 586 315L433 329Q428 329 416.5 318Q405 307 403 302Q399 304 383 315Q367 326 364 326Q353 326 338 311Q358 271 374 264Q413 248 479 248Q485 248 489 252L490 251Q493 246 497 243Q671 239 697.5 229.5Q724 220 753 85Q763 37 783 -88Q789 -112 795 -159Q795 -173 798 -344Q799 -384 780 -465Q721 -487 612 -546Q595 -563 559 -594Q441 -677 357 -826Q346 -847 323 -890Q287 -857 284 -853Q274 -838 274 -800Q274 -794 289 -757Q304 -720 304 -695Q304 -658 274 -605Q241 -546 208 -549L195 -550Q159 -553 117 -605Q100 -626 100 -695Q100 -773 173 -858Q192 -880 246.5 -902.5Q301 -925 331 -925H646Q626 -1084 626 -1068Q626 -1083 632 -1113Q638 -1143 639 -1157Q640 -1179 659 -1220Q678 -1261 678 -1284Q678 -1327 667 -1345Q645 -1382 477 -1382Q489 -1382 341 -1379Q332 -1366 319 -1353H317Q304 -1353 304 -1367Q304 -1400 311 -1427Q324 -1475 436 -1497Q514 -1506 592 -1516Q626 -1525 694 -1541Q742 -1551 909 -1551Q924 -1551 1011 -1539Q1039 -1535 1049 -1511Q1064 -1476 1094 -1328Q1095 -1312 1102 -1288Q1131 -1271 1177 -1238Q1241 -1182 1373 -982Q1412 -923 1414 -923L2018 -925Q2009 -894 1983 -837Q1931 -756 1842 -668Q1744 -571 1669 -534Q1757 -314 1944 121Q2021 289 2021 292ZM1986 -902H1433Q1534 -773 1660 -554Q1806 -665 1850 -706Q1955 -805 1986 -902ZM675 -1427Q640 -1469 632 -1501H629Q615 -1501 560 -1492Q494 -1480 483 -1479Q427 -1472 400 -1464Q352 -1449 333 -1419Q330 -1415 330 -1409Q349 -1418 387 -1440Q491 -1442 675 -1427ZM1998 290Q1930 149 1806 -139Q1758 -264 1656 -512Q1636 -545 1599 -611Q1558 -689 1484 -791Q1420 -878 1357 -964Q1320 -1022 1239 -1133Q1209 -1172 1138 -1238Q1116 -1251 1086 -1273Q1078 -1283 1061 -1379Q1044 -1479 1022 -1513Q975 -1525 969 -1525H737Q708 -1525 656 -1506Q662 -1478 681 -1454Q712 -1416 716 -1409V-1396H699Q691 -1396 657 -1405Q623 -1414 602 -1414H380Q377 -1414 362 -1403L479 -1405Q550 -1406 632 -1389Q701 -1374 701 -1281Q701 -1259 686 -1226Q667 -1184 664 -1173Q648 -1113 648 -1068Q648 -1058 651 -1041Q655 -1020 656 -1014Q667 -912 705 -817Q711 -796 727 -756Q772 -667 874 -494.5Q976 -322 1022 -231Q1053 -172 1083 -114Q1107 -58 1107 20Q1107 31 1096.5 130.5Q1086 230 1085 233Q1074 255 1056 261Q1016 274 906 274Q888 274 851.5 272.5Q815 271 796 271Q788 292 765 293Q728 296 725 297L722 302Q727 307 730 307Q1081 295 1072 295Q1087 295 1436 309Q1454 310 1460 301L1459 300Q1459 300 1424 300Q1406 300 1391.5 288Q1377 276 1363 265L1162 262Q1153 262 1122 239Q1141 19 1141 6Q1141 -23 1159 -39L1308 35L1392 -207Q1279 -311 1228 -363Q1140 -451 1078 -531Q1030 -588 981 -644Q923 -712 897 -766Q884 -784 863 -822Q815 -956 815 -1003Q815 -1026 840.5 -1046Q866 -1066 890 -1066Q907 -1066 945 -1059.5Q983 -1053 1002 -1054L1139 -1063Q1159 -1064 1235 -1053Q1243 -1047 1241 -1038L1240 -1034Q1227 -1034 1189 -1038Q1156 -1041 1138 -1040Q1005 -1030 1002 -1030Q1000 -1030 889 -1043Q884 -1044 858 -1034Q838 -1014 838 -1000Q838 -984 866 -887Q871 -866 885 -826Q920 -752 966 -696Q1105 -525 1150 -474Q1258 -351 1356 -272Q1367 -263 1464 -173Q1509 -132 1596 -50L1959 301H1994Q1998 295 1998 290ZM1826 274Q1826 270 1787 166Q1668 51 1428 -175Q1458 -94 1523 65Q1541 110 1559 155Q1581 206 1607 238Q1617 253 1639 278Q1671 304 1711 304Q1826 304 1826 274ZM775 -492L742 -673Q743 -678 744 -680Q693 -768 653 -902H343Q397 -787 460 -717Q491 -683 620 -570Q648 -546 775 -492ZM1493 286Q1492 285 1491 285ZM1432 271Q1414 268 1413 268H1408Q1416 271 1422 271ZM295 -894Q257 -882 239 -874Q205 -860 189 -843Q166 -819 145 -773Q123 -724 123 -694Q123 -575 195 -575H207Q231 -575 257 -623Q281 -667 281 -695Q281 -717 265 -756Q249 -795 249 -805Q249 -841 260 -856Q277 -875 295 -894ZM1037 -158Q1013 -201 967.5 -289.5Q922 -378 776 -623L806 -444Q821 -354 821 -354Q821 -315 818 -178Q816 -105 776 86Q762 152 734 219Q724 244 703.5 252.5Q683 261 623 260Q545 259 536 260Q517 262 505 266Q501 267 492 284Q486 296 453 296Q438 296 431 302L435 307L587 292Q589 292 637 302V306Q651 266 693 259Q730 255 768 250Q793 172 861 -87Q867 -92 876 -93L1006 -18Q1026 -103 1037 -158ZM1084 22Q1084 -80 1052 -130Q1044 -79 1027 -4Q1023 5 1015 13L880 -67L794 251H952Q1028 251 1049 239Q1058 234 1063 227Q1084 87 1084 22ZM677 286Q674 288 670 293Q672 291 677 286ZM383 286Q379 287 378 289ZM812 -1456Q812 -1420 779 -1420Q768 -1420 755 -1431.5Q742 -1443 742 -1453Q742 -1498 776 -1498Q786 -1498 799 -1482.5Q812 -1467 812 -1456ZM789 -1456L776 -1475Q767 -1475 765 -1455Q775 -1443 779 -1443Q789 -1447 789 -1456Z"/>
</svg>