<svg xmlns="http://www.w3.org/2000/svg" viewBox="24.4 -1570.6 2041.2 1999.2">
	<path fill="currentColor" d="M1990 308Q1978 335 1973 338.5Q1968 342 1948 342Q1906 342 1809 232Q1806 228 1806 240Q1806 246 1816.5 269Q1827 292 1827 298Q1827 322 1779 339Q1740 353 1712 353Q1579 353 1484 94Q1468 51 1394 -136L1316 90L1175 16Q1150 179 1150 224Q1150 244 1164 258H1425Q1443 258 1490 281Q1517 294 1523 325Q1504 342 1494 342Q1489 342 1473 326Q1446 353 1431 353L1066 329L746 353Q724 353 710 326Q705 326 695 334Q685 342 678 342Q671 342 646.5 337Q622 332 615 332Q608 332 545 342.5Q482 353 475 353Q449 353 433 321Q428 324 415 334Q402 344 397 347Q373 335 373 321Q373 281 486 267Q559 258 606 255Q641 252 716 247Q731 234 744 202Q765 150 792 -17Q819 -184 819 -256Q819 -352 819 -352L276 -356Q253 -355 232 -368Q129 -435 101 -536Q100 -540 100 -584Q100 -643 122 -711Q130 -736 160 -764Q190 -792 217 -800Q285 -820 391 -821Q398 -818 552 -821Q523 -833 511 -851Q472 -910 473 -953V-991Q475 -991 479.5 -994Q484 -997 491 -997Q497 -997 558 -973Q627 -946 658 -938Q658 -950 652 -981.5Q646 -1013 646 -1018Q646 -1025 672.5 -1128Q699 -1231 699 -1238Q699 -1322 532 -1322H371Q369 -1314 361 -1302H342V-1345Q342 -1353 353.5 -1373Q365 -1393 374 -1398Q409 -1418 438 -1425Q499 -1436 622 -1460Q778 -1495 853 -1495Q876 -1495 969 -1488Q998 -1486 1044 -1466Q1069 -1440 1079 -1363Q1090 -1280 1109 -1253Q1157 -1207 1252 -1101Q1290 -1043 1375 -939Q1399 -932 1448 -916Q1475 -905 1575 -847Q1642 -808 1691 -808Q1765 -808 1984 -859V-452Q1977 -444 1961 -447Q1759 -487 1717 -487Q1688 -487 1649 -458ZM1228 -979V-988L1125 -993V-984ZM1318 -966Q1284 -1013 1251 -1061Q1215 -1105 1114 -1206Q1073 -1247 1058 -1333Q1042 -1427 1026 -1451Q983 -1469 867 -1469Q753 -1469 678 -1447Q680 -1427 707.5 -1391Q735 -1355 735 -1351Q735 -1346 727 -1338Q662 -1359 538 -1359Q469 -1359 405 -1351Q467 -1351 480 -1348Q483 -1347 601.5 -1343Q720 -1339 720 -1238Q720 -1223 686 -1110Q672 -1063 672 -1023Q672 -982 689 -939Q771 -944 840 -956Q834 -964 834 -972Q834 -989 860 -1005Q883 -1018 898 -1018Q905 -1018 926.5 -1013Q948 -1008 953 -1008Q966 -1007 1090 -1012Q1144 -1012 1240 -1016V-990L1229 -977Q1330 -966 1318 -966ZM682 -1381Q646 -1415 656 -1442Q586 -1429 516 -1417Q433 -1400 384 -1371Q420 -1385 549 -1385Q650 -1385 682 -1381ZM1024 -978Q1004 -981 952 -989Q908 -997 901 -997Q879 -997 862 -979V-960Q920 -967 1024 -978ZM1958 -477V-828Q1799 -781 1678 -781Q1633 -781 1576 -818Q1487 -875 1469 -884Q1392 -920 1311 -937Q1240 -946 1111 -965L691 -913Q626 -922 598 -929Q546 -941 500 -965Q505 -916 535 -874Q570 -823 617 -823L853 -847L1126 -813Q1158 -813 1173 -818Q1180 -806 1172 -792H250Q211 -792 169.5 -740Q128 -688 128 -647Q128 -637 124.5 -610.5Q121 -584 121 -579Q121 -597 128 -532Q129 -520 178 -455Q233 -382 261 -382H1346Q1428 -382 1547 -436Q1606 -472 1714 -514ZM1964 309L1631 -445Q1450 -357 1245 -354L1942 316Q1958 315 1964 309ZM1801 287Q1801 280 1783 235.5Q1765 191 1756 180Q1695 109 1591 12Q1505 -67 1419 -146Q1462 -16 1490 47Q1528 136 1567 224Q1624 321 1714 321Q1801 317 1801 287ZM1444 319Q1437 315 1404 313Q1379 312 1364 285H1154Q1134 265 1123 260Q1132 167 1146 -6Q1147 -10 1153 -20L1298 53Q1381 -158 1381 -178Q1381 -188 1295 -272Q1209 -356 1199 -355H951Q1113 -95 1113 59Q1113 104 1096 224Q1090 234 1080 255Q1067 284 990 290Q865 299 815 292Q810 299 800 310Q761 313 748 319Q888 311 1024 311ZM1045 -133L918 -355H841V-186Q840 -59 786 150Q776 190 769 207Q753 248 730 268H781L881 -78L1012 1Q1017 -20 1028.5 -66Q1040 -112 1045 -133ZM1087 51Q1087 -40 1058 -99Q1049 -48 1031 38Q984 12 894 -41L809 268H947Q970 270 1011 261Q1058 251 1064 236Q1087 175 1087 51ZM693 276Q641 279 589 281Q529 287 504 315H532Q540 315 593.5 313Q647 311 652.5 311Q658 311 672.5 295.5Q687 280 693 276ZM830 -1396Q830 -1359 804 -1359Q762 -1359 762 -1398Q762 -1443 796 -1443Q809 -1443 821 -1421Q830 -1403 830 -1396ZM796 -1385Q812 -1401 783 -1411V-1391Q788 -1391 796 -1385Z"/>
</svg>