<svg xmlns="http://www.w3.org/2000/svg" viewBox="0 -2048 2048 2048">
	<path fill="currentColor" d="M2300 -89L2291 -97Q2237 -83 2178 -90Q2125 -102 2021 -119Q2101 -80 2258 -2Q2267 22 2267 28Q2267 57 2174 100Q2106 130 2050 145L1631 -49L1628 -45L1759 133Q1711 122 1662 132Q1691 161 1691 177Q1691 259 1594 259Q1534 259 1425 235Q1285 203 1278 202Q1275 207 1280.5 222Q1286 237 1286 241Q1284 244 1253 259Q1253 259 1225 231Q1217 234 1202.5 246.5Q1188 259 1180 259Q1178 259 1156 251Q1131 242 1100 239Q1018 231 918 231L553 248Q541 248 524 231Q521 232 507.5 243Q494 254 487 254Q479 254 459 234Q479 190 583 175Q664 165 746 155Q756 153 891 111Q984 83 1049 83Q1121 83 1286 114Q1368 130 1449 146H1468V140Q1293 17 1168 -35Q1054 -68 837 -159Q661 -259 548 -438Q467 -567 454 -644Q443 -710 443 -804Q443 -817 452 -848Q461 -879 461 -895Q461 -907 457 -917Q433 -984 259 -984Q245 -984 100 -968V-986Q98 -1035 129 -1056Q173 -1085 278 -1105Q367 -1122 541 -1147Q561 -1149 633 -1149Q741 -1149 711 -1151Q762 -1148 783 -1124Q816 -1087 830 -999Q840 -922 850 -845Q852 -815 854 -785Q860 -747 890 -734Q1004 -702 1198 -639Q1324 -591 1533 -488Q1694 -408 1855 -329Q1978 -280 2219 -183Q2282 -157 2300 -121ZM2267 -123Q2229 -157 2100 -204Q2020 -233 1940 -261Q1751 -354 1562 -448Q1355 -550 1176 -614Q1034 -665 1021 -665Q1008 -665 1009 -662Q980 -624 915 -578Q864 -543 813 -508Q790 -490 790 -471Q790 -440 797 -432Q810 -417 882 -372Q1005 -295 1077 -267Q1169 -231 1351 -210Q1757 -163 1899 -163Q1906 -163 1909 -165.5Q1912 -168 1919 -168Q1926 -168 2071.5 -139.5Q2217 -111 2224 -111Q2253 -111 2267 -123ZM2238 16Q2162 -27 2087 -69Q1997 -119 1934 -132Q1825 -155 1487 -180Q1200 -201 1039 -255Q975 -276 857 -354Q825 -374 773 -418Q761 -433 761 -479Q761 -503 840 -556Q882 -583 925 -609Q965 -636 983 -674Q946 -684 910 -693Q867 -707 848 -737Q835 -757 827 -827Q819 -903 811 -979Q796 -1069 755 -1112Q741 -1127 664 -1127Q599 -1127 442 -1103V-1083Q446 -1074 466 -1044Q482 -1020 482 -1013Q482 -1005 478 -1001H462Q455 -1001 369 -1012.5Q283 -1024 276 -1024Q239 -1024 174 -1008H330Q366 -1006 416 -985Q487 -955 487 -913Q487 -907 475.5 -835Q464 -763 464 -756Q464 -620 561 -465.5Q658 -311 814 -199Q888 -146 1012 -110Q1178 -61 1185 -58Q1378 24 1554 171V187L1534 191Q1180 111 1063 111Q1009 111 820 167Q810 170 626 193Q626 193 607 212L915 202Q1005 202 1148 224Q1134 201 1060 196Q995 193 930 190Q915 179 915 178Q920 173 920 156Q941 156 978.5 153.5Q1016 151 1032 151L1593 231Q1613 237 1637.5 224.5Q1662 212 1662 188Q1662 175 1605 104Q1626 100 1655 100Q1683 100 1702 104L1571 -80Q1574 -83 1575.5 -87Q1577 -91 1580 -94L2053 117Q2204 76 2238 16ZM441 -1037Q424 -1063 412 -1098Q293 -1080 270 -1075Q175 -1056 148 -1031Q206 -1052 236 -1052ZM590 -1070Q590 -1050 567.5 -1034Q545 -1018 533 -1018Q510 -1018 510 -1052Q510 -1098 550 -1098Q590 -1098 590 -1070Z"/>
</svg>