<svg xmlns="http://www.w3.org/2000/svg" viewBox="13.9 -1568.1 2325.2 1977.2">
	<path fill="currentColor" d="M1613 -1183Q1613 -1102 1559.5 -1044.5Q1506 -987 1425 -987Q1315 -987 1249 -1069Q1249 -1069 1224 -1044Q1197 -1056 1197 -1100Q1196 -1134 1196 -1168Q1190 -1173 1155 -1173V-1193H1192Q1196 -1199 1199 -1251Q1201 -1292 1230 -1301L1245 -1286Q1289 -1339 1332 -1356Q1363 -1368 1425 -1368Q1515 -1368 1564 -1317Q1613 -1266 1613 -1183ZM1071 -1160Q1059 -1162 1040 -1162Q1021 -1162 975 -1160V-1182H1071ZM2253 -109Q2253 -96 2247 -91Q2168 -48 2111 -48Q2105 -48 1993.5 -68.5Q1882 -89 1876 -89Q1874 -89 1794 -79Q1714 -69 1691 -69Q1637 -69 1571 -85L1546 120V244Q1546 292 1469 292Q1464 292 1447 289.5Q1430 287 1423 287Q1418 287 1366 296Q1306 306 1277 310L1253 307Q1253 300 1268 285Q1250 277 1200 283Q1155 289 1139 275Q1181 194 1327 194Q1332 194 1368.5 197Q1405 200 1412 200Q1459 200 1459 130Q1459 22 1421 -24Q1379 -76 1251 -105Q1193 -21 1161 54Q1136 123 1111 191Q1070 303 1059 303Q1054 303 1047 300.5Q1040 298 1033 298Q1027 298 959.5 310.5Q892 323 886 323Q881 323 862 320Q843 317 835 317Q835 301 835 301Q764 287 717 307Q717 309 714 293.5Q711 278 711 253Q754 205 853 205Q859 205 883 207.5Q907 210 914 210Q959 210 1021 199Q1082 111 1082 -20Q1082 -74 1079 -86Q1070 -118 1031 -150Q983 -176 887 -235Q802 -293 684 -405Q545 -537 532 -592Q515 -666 515 -700Q515 -767 619 -908Q726 -1054 727 -1060Q702 -1061 660 -1039Q660 -1042 657.5 -1051Q655 -1060 655 -1063Q664 -1065 691 -1077.5Q718 -1090 724 -1090Q724 -1090 734 -1080Q754 -1100 773 -1138Q501 -1172 530 -1172Q524 -1172 458.5 -1167Q393 -1162 386 -1162Q338 -1162 308 -1200Q315 -1225 393 -1256Q504 -1301 547 -1328Q564 -1339 602.5 -1388Q641 -1437 665 -1454Q705 -1482 783 -1482Q880 -1482 932 -1412Q979 -1351 979 -1252Q979 -1212 946 -1123Q930 -1080 881 -972Q840 -879 840 -873Q840 -838 858 -833Q893 -823 961 -817Q1036 -811 1065 -804Q1156 -783 1271 -737Q1374 -695 1567 -570Q1783 -430 1865 -389Q1960 -347 2134 -268L2128 -258Q2080 -252 1943 -231ZM577 -995Q566 -973 512 -930Q509 -933 505.5 -939Q502 -945 499 -948Q506 -955 530 -976Q554 -997 564 -1007ZM437 -886Q413 -862 368 -822L355 -835Q399 -880 425 -899ZM334 -762Q316 -738 286 -688Q283 -691 276.5 -694Q270 -697 267 -700Q299 -753 321 -775ZM256 -635Q238 -599 230 -559Q227 -559 220.5 -562Q214 -565 211 -565Q219 -593 232 -641Q235 -641 244 -638Q253 -635 256 -635ZM210 -484Q210 -469 184 -404Q164 -404 164 -414Q164 -429 191 -496Q210 -496 210 -484ZM179 -311Q179 -306 173.5 -272.5Q168 -239 168 -224Q165 -224 156 -226.5Q147 -229 144 -229Q153 -289 160 -326Q179 -326 179 -311ZM153 -155Q142 -98 130 -69Q123 -104 125 -122Q129 -157 129 -161Q143 -155 153 -155ZM125 100L100 106Q104 56 100 25H125Q123 52 123 70Q123 88 125 100ZM120 195Q121 205 119 271H100Q102 263 102 248Q102 233 100 195ZM1593 -1191Q1593 -1265 1537 -1309Q1487 -1348 1420 -1348Q1311 -1348 1254 -1250Q1244 -1255 1223 -1265V-1090Q1246 -1111 1248 -1111Q1314 -1013 1433 -1013Q1473 -1013 1477 -1014Q1510 -1023 1539 -1055Q1548 -1065 1568 -1108Q1593 -1161 1593 -1191ZM2212 -102L1877 -229Q1877 -229 1777 -229Q1615 -229 1384 -277Q1137 -328 983 -400Q955 -413 913 -451Q867 -492 853 -521Q819 -590 819 -608Q819 -632 825 -648Q836 -677 859 -697Q919 -749 945 -749Q951 -749 964 -732Q840 -674 840 -605Q840 -538 951 -458Q1035 -398 1104 -374Q1453 -254 1778 -254Q1901 -254 2072 -272Q1939 -334 1679 -472Q1579 -534 1479 -596Q1357 -669 1271 -706Q1213 -731 1024 -784Q1019 -785 916.5 -789Q814 -793 814 -884Q814 -890 860 -986Q913 -1096 930 -1143Q953 -1205 953 -1255Q953 -1334 917 -1391Q872 -1461 788 -1461Q717 -1461 676 -1428Q627 -1389 577 -1326Q571 -1318 571 -1278Q571 -1241 573 -1236Q586 -1201 604 -1195Q704 -1162 765 -1162Q771 -1162 779 -1164.5Q787 -1167 793 -1167Q814 -1167 809 -1150Q768 -1092 704 -996Q651 -916 597 -837Q541 -745 541 -685Q541 -545 758 -372Q892 -266 896 -262Q972 -205 1012 -189Q1164 -152 1316 -115Q1484 -56 1484 125Q1484 189 1466.5 204.5Q1449 220 1379 220Q1372 220 1344.5 217.5Q1317 215 1312 215Q1271 215 1232 228Q1239 228 1261 226.5Q1283 225 1288 225Q1318 225 1325 243Q1319 249 1307 249Q1346 249 1367 253Q1380 272 1384 272Q1463 272 1508 260Q1528 255 1526 202Q1523 132 1522 141Q1546 -101 1546 -79Q1546 -85 1529 -114Q1509 -148 1505 -158Q1514 -167 1522 -167Q1547 -106 1601 -98Q1652 -94 1703 -89L1876 -115Q1917 -109 2016 -91Q2103 -74 2109 -74Q2155 -74 2212 -102ZM566 -1200Q545 -1226 544 -1249Q544 -1275 544 -1301Q513 -1277 458 -1255Q411 -1238 365 -1221Q472 -1231 536 -1230L541 -1222V-1213Q423 -1196 432 -1196H463Q533 -1195 566 -1200ZM426 -1186V-1195H397V-1186ZM1303 258V249H1248V258ZM1221 -108L1077 -140Q1108 -82 1108 -17Q1108 34 1085 111Q1060 194 1032 224Q1012 225 966 228Q928 231 913 231Q913 252 908 257Q869 257 773 269Q814 272 888 279Q896 280 912 286Q928 292 933 292Q935 292 985 284Q1035 276 1055 277Q1085 206 1133 57Q1159 -22 1221 -108ZM778 -1345Q778 -1307 755 -1307H737Q729 -1307 711 -1323V-1363Q736 -1374 747 -1374Q778 -1374 778 -1345ZM886 -1133Q858 -1122 804 -1111V-1135Q819 -1139 880 -1151Q880 -1139 886 -1133Z"/>
</svg>