<svg xmlns="http://www.w3.org/2000/svg" viewBox="0 -2048 2048 2048">
	<path fill="#000000" d="M2185 -1167Q2071 -780 1851 -694Q1744 -661 1636 -629Q1479 -580 1399 -526Q1524 -437 1741 -266Q1789 -224 1881 -179Q2031 -106 2032 -105Q2022 -85 1969 -68Q1924 -54 1900 -54Q1893 -54 1796 -72.5Q1699 -91 1692 -91Q1686 -91 1608.5 -80.5Q1531 -70 1525 -70Q1530 -70 1408 -86Q1403 -62 1384 123Q1383 134 1383 151V188Q1382 208 1381 223Q1379 245 1360 251Q1324 253 1246 260H1694V287H476Q433 189 294 -156Q241 -283 187 -411Q100 -627 100 -674Q100 -703 134 -760Q152 -790 187.5 -807.5Q223 -825 272 -825Q298 -825 346 -787Q390 -751 394 -733Q396 -723 396 -703Q396 -616 322 -563L718 -77Q654 -45 582 34Q502 121 502 178Q502 171 539 258Q547 263 573 263Q611 263 623 244Q613 234 607 222Q676 178 690 178H841Q847 178 866 175Q885 172 893 172Q950 72 950 -46Q950 -130 904 -153Q782 -213 647 -322Q503 -439 456 -525Q428 -576 428 -640Q428 -698 537 -860Q580 -925 665 -1053Q509 -1089 454 -1089Q448 -1089 376 -1083.5Q304 -1078 298 -1078Q272 -1078 238 -1118Q263 -1147 326 -1174Q407 -1207 450 -1237Q487 -1280 566 -1350Q610 -1379 678 -1379Q769 -1379 817 -1309Q855 -1253 855 -1173Q855 -1134 842 -1096Q824 -1045 773 -924Q728 -820 728 -814Q728 -751 834 -751Q859 -751 1006 -873Q1082 -938 1157 -1002Q1233 -1059 1326 -1102Q1360 -1117 1421 -1144Q1499 -1175 1654 -1243Q1913 -1368 1909 -1368H1931Q1911 -1169 1837 -1045Q1839 -1041 1843 -1042Q1961 -1081 2172 -1173Q2180 -1167 2185 -1167ZM2150 -1135Q1877 -1022 1739 -984Q1639 -969 1501 -944Q1423 -924 1281 -809Q1143 -698 1077 -685L1370 -540Q1501 -610 1655 -654Q1854 -711 1936 -774Q1992 -817 2075 -953Q2119 -1025 2150 -1135ZM1904 -1341Q1738 -1258 1527 -1164Q1447 -1129 1290 -1060Q1222 -1029 1051 -878Q1011 -843 890 -742Q913 -737 971 -716Q1023 -698 1029 -698Q1048 -698 1086 -717Q1199 -773 1255 -816Q1437 -956 1534 -971Q1736 -1002 1793 -1027Q1817 -1038 1843 -1106Q1875 -1192 1904 -1341ZM1990 -110Q1895 -156 1714 -256Q1700 -276 1672 -307Q1512 -432 1309 -543Q1106 -654 948 -701Q876 -716 737 -757Q725 -762 713.5 -784Q702 -806 702 -817Q702 -824 738 -905Q783 -1007 795 -1038Q829 -1125 829 -1173Q829 -1238 797 -1290Q756 -1358 681 -1358Q658 -1358 623 -1347Q588 -1336 581 -1329Q480 -1228 480 -1202Q480 -1135 519 -1112Q541 -1099 607 -1093.5Q673 -1088 702 -1070Q653 -997 569 -871Q535 -820 501 -768Q449 -684 449 -643Q449 -460 904 -177Q916 -176 931 -174Q988 -153 1133 -124Q1235 -104 1273 -67Q1325 -16 1325 109Q1325 179 1293 190Q1289 191 1172 197Q1178 197 1178 220Q1208 220 1216 222Q1218 227 1226 235Q1238 236 1283 236Q1344 236 1354 218Q1355 160 1366.5 41Q1378 -78 1378 -75Q1378 -93 1366 -109Q1336 -150 1335 -151Q1349 -165 1353 -165Q1369 -140 1406 -108Q1439 -96 1518 -96Q1573 -96 1673 -117L1916 -81Q1963 -70 1990 -110ZM475 -1117Q453 -1170 453 -1204Q401 -1178 290 -1133Q299 -1133 368 -1141Q419 -1147 450 -1142L454 -1134Q441 -1123 396 -1116Q342 -1109 341 -1108ZM1299 86Q1299 -8 1255 -48Q1215 -84 1105 -101Q1048 -29 1015 63Q951 248 945 261Q1112 261 1119 254Q1088 254 1070 255.5Q1052 257 1050 257Q1034 257 1003 239Q1014 231 1032 214Q1030 209 1034 199Q1088 167 1112 167H1281Q1299 139 1299 86ZM1077 -111Q1052 -115 951 -137Q971 -109 971 -30Q971 59 936 143Q930 165 910 193Q890 202 854 203Q803 204 798 205Q798 221 794 224Q724 225 676 236H803V257Q872 240 928 241Q958 153 987 65Q1025 -37 1077 -111ZM681 -83L285 -568Q375 -617 375 -693Q375 -721 345 -757Q312 -798 275 -798Q236 -798 202 -786Q179 -778 153 -739.5Q127 -701 127 -672Q127 -628 144 -584Q220 -389 492 262H512Q475 171 475 181Q475 130 542 41Q611 -52 681 -83ZM670 -1232Q666 -1226 660.5 -1218Q655 -1210 647 -1210H631Q607 -1210 607 -1239Q607 -1279 641 -1279Q647 -1279 670 -1257ZM645 -1245L637 -1254L632 -1248L640 -1240Z"/>
</svg>