<svg xmlns="http://www.w3.org/2000/svg" viewBox="0 -2048 2048 2048">
	<path fill="#000000" d="M1352 98Q1349 109 1340 130H1324Q1290 130 1247 77Q1219 36 1190 -5Q1149 -63 1054 -192Q1039 -168 1037 -136L1025 87Q1025 148 1051 247L1039 259Q1019 259 1016 288Q1016 310 1016 331Q1014 350 1005 356Q993 340 982 324Q969 304 972 285Q951 285 937 291H918Q921 260 934 194Q932 194 927.5 191.5Q923 189 915 189Q901 189 890 229Q876 283 871 292Q860 265 833 211H801L788 198Q912 -1 912 -146Q912 -154 881 -291Q878 -324 862 -387Q827 -469 792 -552Q756 -650 756 -735Q756 -842 810 -979Q807 -982 791 -982Q731 -982 686 -913Q648 -856 648 -808V-510H624V-734H417V361H348V-1107Q231 -1214 100 -1345Q118 -1373 152 -1396L417 -1126V-832H628Q646 -905 672 -943Q709 -997 816 -1010Q826 -1024 877 -1150Q933 -1292 933 -1329Q933 -1352 915 -1382Q897 -1412 880 -1412Q853 -1412 825 -1393Q797 -1374 795 -1350Q797 -1303 792 -1210Q785 -1170 775 -1155Q745 -1121 687 -1042Q667 -997 647 -952Q619 -890 577 -870H558Q541 -910 541 -910Q541 -917 554.5 -1006.5Q568 -1096 568 -1103Q568 -1110 549 -1162Q530 -1214 530 -1221Q530 -1286 575 -1331Q632 -1388 795 -1506Q814 -1520 858 -1520Q930 -1520 978 -1477Q1034 -1427 1035 -1339L992 -1073Q991 -1038 999 -1024Q1218 -641 1262 -383Q1289 -264 1341 -27Q1331 -25 1315 -12ZM1009 -1345Q1009 -1409 964.5 -1453.5Q920 -1498 855 -1498Q816 -1498 780 -1462Q718 -1400 714 -1397Q669 -1378 607 -1336Q569 -1288 563 -1273.5Q557 -1259 557 -1219Q557 -1185 575 -1144Q599 -1090 640 -1090Q682 -1090 696 -1102Q754 -1152 765 -1199Q772 -1227 771 -1277Q770 -1333 773 -1355Q778 -1386 803 -1405Q853 -1442 908 -1434Q923 -1420 941.5 -1382.5Q960 -1345 960 -1329Q960 -1303 908 -1164Q859 -1034 848 -1016H970Q964 -1037 964 -1063Q964 -1104 986.5 -1200.5Q1009 -1297 1009 -1345ZM670 -1067H644Q634 -1027 613 -950ZM616 -1066Q598 -1084 590 -1084L570 -912Q581 -960 616 -1066ZM1297 -90Q1286 -143 1268 -238Q1191 -646 1067 -840Q953 -864 947 -864Q874 -864 874 -762Q874 -685 924 -607Q990 -505 1107 -347Q1260 -142 1297 -90ZM613 -935V-949H603V-935ZM1325 97Q1300 -2 1300 -2Q1284 -59 1264 -94Q1235 -143 1022 -433Q847 -671 847 -762Q847 -885 952 -885Q982 -885 1046 -876Q1025 -919 1003 -962Q983 -993 925 -993Q919 -993 884 -990Q849 -987 838 -987Q817 -911 795 -836Q783 -786 783 -727Q783 -589 867 -450Q867 -466 880 -466Q888 -466 891 -463Q890 -306 913 -237Q939 -161 939 -152Q939 -109 907 -1Q878 98 864 123Q882 131 882 150Q882 157 878.5 172.5Q875 188 876 195Q879 189 904 160Q899 143 899 121Q899 78 919 10Q933 -39 947 -87Q957 -151 966 -215Q982 -300 1022 -343Q1025 -340 1031.5 -336Q1038 -332 1041 -329Q1033 -315 1019 -291L1305 97ZM626 -804H418V-757H621Q621 -761 623.5 -776.5Q626 -792 626 -804ZM1035 -222Q1035 -232 1005 -262Q987 -207 987 -168Q987 -168 993.5 -89.5Q1000 -11 1000 28Q1004 -32 1015 -151Q1016 -162 1025.5 -189Q1035 -216 1035 -222ZM976 47Q976 43 972.5 -1Q969 -45 969 -63L923 131Q929 147 942 173Q957 151 974 106Q976 89 976 47ZM1014 214Q1014 220 995 125Q987 144 970 186Q953 228 945 247Q948 247 958 250Q968 253 971 253V189H999V254Q1014 230 1014 214ZM395 334V-1120L151 -1364L133 -1345L375 -1118V334ZM851 147Q839 170 831 177Q836 177 845 184Q851 178 851 147ZM659 -1227Q657 -1215 655 -1203Q650 -1186 624 -1181Q606 -1195 606 -1208Q606 -1215 609 -1225Q612 -1235 612 -1240H642Q648 -1236 659 -1227Z"/>
</svg>