<svg xmlns="http://www.w3.org/2000/svg" viewBox="16.5 -1601.5 2255 1973">
	<path fill="currentColor" d="M2188 -883Q2109 -750 1970.5 -658Q1832 -566 1710 -566Q1590 -566 1419 -643Q1416 -645 1411 -640Q1444 -567 1479 -467Q1495 -423 1531 -323Q1541 -292 1562 -235Q1570 -211 1587 -163Q1637 -20 1728 65Q1729 70 1735 89.5Q1741 109 1741 115Q1741 139 1685 198Q1691 223 1691 240Q1691 288 1622 288Q1588 288 1576 275Q1558 255 1537 248Q1507 251 1454 245Q1405 226 1330 120Q1251 8 1222 -9Q1185 -31 1144 -31Q1087 -31 1014 25Q974 56 876 152Q847 183 817 213Q779 250 751 261Q718 274 659 276Q584 280 565 283Q540 283 527.5 280Q515 277 517 277Q516 271 527 250Q533 251 409 251Q409 244 429 224Q424 220 419 220Q419 203 424 198Q418 197 402 190Q395 233 402 282H337V-1180Q337 -1188 100 -1469Q106 -1483 133 -1508Q201 -1435 334 -1271Q338 -1271 342 -1284V-1507Q341 -1507 359 -1509.5Q377 -1512 401 -1512V-1271L632 -1518Q638 -1512 649 -1498Q660 -1484 665 -1479L401 -1165V-895L846 -1043Q816 -1104 787 -1165Q732 -1279 732 -1304Q732 -1310 744 -1335Q758 -1364 760 -1371Q777 -1389 820 -1389Q934 -1389 1028 -1265Q1060 -1222 1087 -1162Q1106 -1117 1131 -1099Q1134 -1085 1142 -1065Q1258 -1108 1373 -1150Q1476 -1184 1573 -1184Q1657 -1184 1844 -1142Q2038 -1098 2126 -1095Q2126 -1093 2128.5 -1089Q2131 -1085 2131 -1078Q2131 -1057 2093 -1010Q2066 -977 2039 -945ZM2100 -1069Q1979 -1076 1888 -1097Q1808 -1118 1728 -1139Q1628 -1163 1571 -1163Q1456 -1163 1331 -1115Q1258 -1085 1134 -1043Q1164 -983 1182 -983Q1181 -983 1356 -1024Q1531 -1065 1604 -1065Q1736 -1065 1907 -997Q2007 -957 2008 -957Q2029 -957 2100 -1069ZM1087 -1071V-1099Q1087 -1089 1073 -1130Q1044 -1216 964 -1292.5Q884 -1369 817 -1369Q797 -1369 780 -1356Q758 -1310 758 -1310Q758 -1303 790 -1236Q829 -1156 839 -1129Q866 -1059 878 -1014ZM629 -1476Q488 -1329 400 -1234Q400 -1234 400 -1215ZM2157 -878Q2139 -883 1871 -980Q1709 -1039 1599 -1039Q1504 -1039 1347.5 -998Q1191 -957 1182 -957Q1130 -957 1082 -992Q1082 -1006 1090 -1014Q1112 -1003 1127 -994Q1114 -1034 1100 -1034Q1095 -1034 878 -965Q851 -802 851 -749Q851 -651 893 -440Q897 -421 929 -351Q959 -288 959 -263Q959 -86 916 6Q895 51 835 112Q784 165 759 179Q727 197 675 197Q586 196 589 196V215Q607 210 609 217Q613 232 614 233Q566 249 573 249L599 252Q646 248 735 240Q755 238 832 160Q932 57 981 19Q1076 -57 1146 -57Q1218 -57 1285 16Q1337 84 1388 153Q1445 226 1491 226Q1498 226 1512.5 223.5Q1527 221 1532 221Q1538 221 1578.5 244Q1619 267 1625 267Q1644 267 1663 246Q1663 218 1653 188Q1676 170 1699 153Q1715 138 1715 115Q1715 90 1677 40Q1650 5 1623 -30Q1594 -75 1567 -148Q1495 -358 1399 -621Q1373 -676 1311 -696Q1261 -705 1210 -714V-732Q1286 -737 1454 -663Q1628 -587 1717 -587Q1815 -587 1957.5 -681.5Q2100 -776 2157 -878ZM849 -1001L847 -1013L474 -884ZM339 -1215Q339 -1234 339 -1234Q273 -1315 130 -1476ZM371 -886V-1486H362V-883ZM892 -345Q892 -352 878 -407Q862 -472 857 -497Q846 -556 833 -667Q825 -738 825 -764Q825 -807 850 -957L399 -828V159Q419 138 453 113Q569 104 705 86Q790 50 849 -105Q854 -118 871 -201Q892 -302 892 -345ZM933 -263Q933 -296 909 -320Q900 -188 878 -116Q848 -18 775 59Q729 107 714 112Q710 113 553 129Q553 148 547 151Q579 168 632 170Q685 172 714 158Q830 100 900 -27Q933 -87 933 -263ZM371 256V-820L362 -818V256ZM538 150V141Q482 141 450 157V166ZM556 207V198Q503 202 466 217L467 222Q511 208 556 207Z"/>
</svg>