<svg xmlns="http://www.w3.org/2000/svg" viewBox="0 -2048 2048 2048">
	<path fill="#000000" d="M2060 231Q2060 241 2052.5 264Q2045 287 2039 287Q2014 287 1907 178Q1778 46 1749 24L1915 291Q1905 291 1882 294.5Q1859 298 1853 298Q1773 298 1670 269Q1564 238 1534 203Q1495 156 1443 55Q1388 -53 1357 -95Q1341 -117 1253 -167Q1253 -167 1258 -97Q1259 -77 1268 -29Q1275 15 1275 21V38L1262 50Q1214 -5 1107 -53H1093Q1090 -50 1090 -35Q1090 -55 1111 180Q1127 191 1155 190Q1191 188 1201 191Q1253 203 1306 215Q1371 237 1388 286L726 282Q718 282 706 291Q695 292 636 292Q611 292 561 289Q538 288 408 291Q309 293 260 281Q286 215 463 215Q475 215 502 210Q535 203 545 202Q599 196 627 188Q693 168 693 -188V-311H562Q513 -301 413 -281Q409 -278 409 -273L455 -147Q436 -148 400 -141Q368 -230 348 -268Q239 -279 201 -303Q151 -335 151 -417Q151 -472 182 -494Q97 -517 100 -573L113 -584Q118 -579 159 -569Q200 -559 221 -559Q236 -559 254 -567Q115 -936 115 -1005Q115 -1056 162 -1089Q200 -1116 239 -1116Q310 -1116 364 -1023Q364 -1044 364 -1086Q363 -1127 363 -1131Q363 -1295 431 -1507H800Q834 -1433 851 -1325Q862 -1255 864 -1182Q890 -1168 933 -1153Q949 -1147 1027 -1106Q1177 -1027 1319 -830Q1424 -676 1529 -522Q1545 -502 1565 -494Q1581 -487 1598 -481H1612L1668 -996H1873L1904 -307H1667Q2060 205 2060 231ZM1512 -503Q1410 -650 1201 -939Q1150 -1008 1113 -1011Q969 -1023 958 -1023Q825 -1023 757 -964Q724 -935 724 -889Q724 -877 737 -834Q752 -784 767 -761Q786 -733 901 -643Q1030 -543 1074 -543Q1081 -543 1114.5 -545.5Q1148 -548 1154 -548Q1331 -548 1512 -503ZM2034 227Q1978 130 1847 -38Q1638 -307 1635 -310H1384Q1525 -217 1720 -36Q1873 112 2027 261ZM1079 -1040Q1064 -1049 953 -1099Q876 -1133 843 -1172Q822 -1198 823 -1255Q826 -1341 825 -1346Q812 -1439 784 -1482H446Q383 -1304 383 -1136Q383 -1125 395 -1020Q414 -852 771 -525Q782 -515 801 -517L1002 -545Q708 -723 706 -860Q706 -864 702 -874.5Q698 -885 698 -891Q698 -941 734 -977Q788 -1032 861 -1043Q871 -1044 966 -1044Q1056 -1044 1079 -1040ZM1878 -332L1852 -976H1694L1627 -450Q1300 -523 1118 -523Q957 -523 751 -483Q712 -477 643 -464Q581 -450 556 -450Q520 -450 459.5 -496.5Q399 -543 342 -543Q336 -543 298 -540.5Q260 -538 254 -538Q177 -538 136 -547Q172 -511 240 -506Q294 -502 347 -498V-485Q334 -476 301 -476Q295 -476 261.5 -481Q228 -486 221 -486Q193 -486 178 -454Q177 -452 177 -417Q177 -296 321 -296Q328 -296 426.5 -314Q525 -332 531 -332ZM375 -1003V-1022H366V-1003ZM1884 271Q1809 157 1734 43Q1623 -111 1512 -183Q1481 -207 1429 -245Q1329 -310 1324 -310H920Q938 -268 967 -108Q997 62 997 143Q997 166 993 173Q972 205 967 214L761 231Q761 241 755 266H1316Q1316 250 1305 243Q1226 208 1104 209Q1087 196 1086 186Q1069 44 1069 -53Q1069 -77 1073 -84Q1195 -48 1248 3Q1219 -200 1219 -190Q1219 -195 1232 -208Q1235 -206 1307 -166Q1352 -141 1372 -116Q1417 -58 1476 53Q1540 175 1545 182Q1556 198 1612 219Q1758 273 1795 271ZM749 -508Q749 -508 668 -589Q671 -576 678.5 -545.5Q686 -515 689 -502Q753 -508 749 -508ZM661 -492V-526Q661 -533 654 -549Q647 -565 647 -567Q640 -603 528 -728.5Q416 -854 402 -918Q391 -945 375 -997Q382 -904 329 -863Q317 -868 295 -882Q300 -916 300 -946Q300 -1044 244 -1044Q179 -1044 172 -994L312 -564Q389 -566 457 -526Q550 -471 546 -471Q553 -471 595 -480Q644 -490 661 -492ZM347 -969Q347 -1011 320 -1049Q288 -1095 234 -1095Q206 -1095 175 -1067Q141 -1037 141 -1004L283 -564L146 -1003Q148 -1026 184 -1050Q220 -1074 244 -1074Q326 -1074 326 -946Q326 -940 324.5 -921Q323 -902 323 -894Q347 -919 347 -969ZM976 145Q976 79 964 52Q948 17 896 -18Q850 -50 812 -58L781 204H799Q800 203 897 196Q976 191 976 145ZM960 9V-10Q948 -87 936 -164Q918 -260 887 -311H718V-108Q718 -60 691 114Q678 196 642 209.5Q606 223 544 230Q461 240 447 243Q441 258 441 266H560Q565 266 585.5 247.5Q606 229 613 227Q646 220 754 209Q765 99 799 -95Q907 -47 960 9ZM395 -240L384 -275L376 -273L387 -240ZM416 -183L400 -238H392L408 -183ZM729 237Q669 243 632 252L626 266H701ZM373 247Q355 250 326 259L362 266Q362 258 373 247ZM801 -1344Q797 -1344 788 -1338Q775 -1359 737 -1410Q731 -1401 714.5 -1377.5Q698 -1354 690 -1343Q679 -1354 672 -1354Q682 -1369 704.5 -1405Q727 -1441 737 -1456Q761 -1418 801 -1344ZM775 -1258Q775 -1239 759 -1226.5Q743 -1214 729 -1214Q682 -1214 682 -1258Q682 -1270 699.5 -1291Q717 -1312 731 -1312Q754 -1312 775 -1258ZM564 -1366Q561 -1363 555 -1359.5Q549 -1356 546 -1353Q543 -1356 499 -1415Q493 -1406 477 -1382.5Q461 -1359 453 -1348Q450 -1351 444 -1354Q438 -1357 435 -1360Q457 -1393 494 -1456Q519 -1426 564 -1366ZM666 -1295L614 -1091H595L559 -1301H578Q588 -1255 608 -1162Q631 -1223 647 -1295ZM553 -1263Q553 -1214 504 -1214Q461 -1214 461 -1268Q461 -1286 475.5 -1306.5Q490 -1327 515 -1327Q534 -1327 553 -1263ZM749 -1251Q749 -1252 732 -1286L709 -1264V-1240Q712 -1240 718.5 -1237.5Q725 -1235 727 -1235Q730 -1238 738 -1243Q746 -1248 749 -1251ZM527 -1251V-1279Q517 -1289 517 -1296H498Q479 -1279 493 -1245Z"/>
</svg>