<svg xmlns="http://www.w3.org/2000/svg" viewBox="0 -2048 2048 2048">
	<path fill="#000000" d="M2174 269Q2174 289 2156 316Q2109 302 2017 201Q1904 79 1853 43Q1914 134 2027 320Q1999 327 1961 327Q1881 327 1788 301Q1695 275 1646 236Q1628 222 1570 116Q1536 48 1460 -72Q1439 -98 1354 -142Q1351 -146 1346 -141L1378 63L1364 75Q1270 -14 1193 -29Q1189 -22 1189 -3Q1189 52 1215 211Q1295 222 1376 234Q1460 252 1492 315L820 311Q812 311 800 320Q784 322 726 322Q732 322 659 319Q593 317 558 318Q387 324 346 310Q378 243 558 242Q582 238 631 229Q664 227 725 211Q749 200 769 75Q786 -26 786 -74L772 -334H100V-361Q100 -366 111 -400Q122 -434 124 -446Q138 -559 260 -676Q389 -799 540 -822Q480 -918 465 -966Q451 -1010 451 -1097Q451 -1303 520 -1505H895Q948 -1402 960 -1180Q1300 -1020 1413 -822H2168V-796H1430L1738 -360H2167V-334H1754Q1873 -174 1991 -14Q2174 237 2174 269ZM2147 285V255Q2147 253 1349 -866Q1243 -1014 1087 -1014Q812 -1014 812 -862Q812 -852 830 -805Q848 -758 855 -752Q1018 -618 1338 -390Q1695 -136 1740 -101Q1810 -46 1957 108Q2091 249 2147 285ZM1995 300Q1937 209 1818 35Q1787 -12 1733 -76Q1721 -85 1254 -420Q871 -694 834 -740Q791 -793 791 -872Q791 -1035 1064 -1035Q1141 -1035 1163 -1031Q1076 -1091 933 -1164Q928 -1268 921 -1318Q909 -1410 879 -1479H536Q472 -1266 472 -1090Q472 -979 558 -852Q606 -781 752 -619Q877 -480 965 -333Q1060 -174 1075 -63Q1095 84 1095 162Q1095 192 1065 242Q994 248 855 260Q855 295 855 295H1419Q1407 264 1292 240Q1261 241 1208 237Q1194 233 1185 219L1168 -24Q1168 -54 1172 -61Q1290 -32 1350 28L1325 -163Q1325 -178 1333 -186Q1337 -183 1409 -144Q1456 -118 1476 -93Q1519 -40 1583.5 82Q1648 204 1652 209Q1666 227 1746 257Q1868 302 1905 300ZM770 -360Q755 -499 697 -629L548 -796Q455 -796 321 -692Q184 -585 151 -441Q142 -412 129 -360ZM1062 39Q1054 -242 745 -584Q807 -428 807 -129Q807 160 735 237Q667 248 530 270V295H653Q671 277 705 255Q753 249 848 232Q858 140 882 -42Q883 -52 894 -71Q1017 -2 1062 39ZM1074 154Q1074 84 1041 50Q1013 20 903 -34L870 232H893Q911 233 1052 215Q1074 193 1074 154ZM817 276Q790 268 760 273Q730 278 719 275Q719 278 716 285Q713 292 713 295H789ZM461 276Q440 279 409 288L444 295ZM896 -1340Q892 -1339 883 -1333Q864 -1356 830 -1406Q814 -1381 784 -1338Q781 -1341 774.5 -1344.5Q768 -1348 765 -1351Q776 -1373 825 -1448Q876 -1387 896 -1340ZM870 -1252Q870 -1233 854 -1220Q838 -1207 823 -1207Q802 -1207 789 -1223Q776 -1239 776 -1252Q776 -1264 793 -1285.5Q810 -1307 825 -1307Q844 -1307 870 -1252ZM655 -1362Q652 -1359 646 -1355.5Q640 -1352 637 -1349Q621 -1370 590 -1412Q582 -1402 566.5 -1377.5Q551 -1353 543 -1343Q540 -1346 533.5 -1349.5Q527 -1353 524 -1356Q538 -1384 584 -1453Q609 -1423 655 -1362ZM759 -1290L706 -1082H687L650 -1296H670Q682 -1250 691 -1165Q689 -1165 699 -1155Q712 -1199 740 -1290ZM645 -1254Q645 -1235 627.5 -1221Q610 -1207 595 -1207Q580 -1207 561 -1231Q545 -1252 545 -1260Q545 -1274 563 -1295.5Q581 -1317 600 -1317Q618 -1317 633 -1290Q645 -1267 645 -1254ZM843 -1258L820 -1281Q814 -1275 806.5 -1264.5Q799 -1254 797 -1252Q810 -1227 821 -1228Q843 -1239 843 -1258ZM618 -1245V-1268Q607 -1291 594 -1291Q571 -1280 571 -1260Q571 -1252 574 -1247Q577 -1242 578 -1241Q579 -1240 583 -1237Q587 -1234 595 -1234Q607 -1234 618 -1245Z"/>
</svg>