<svg xmlns="http://www.w3.org/2000/svg" viewBox="0 -2048 2048 2048">
	<path fill="currentColor" d="M1959 236Q1959 248 1947 284H1919L1656 24L1653 28L1816 282Q1797 299 1752 299Q1677 299 1574.5 267.5Q1472 236 1436 201Q1421 175 1392 125Q1346 42 1300 -41Q1250 -121 1163 -159Q1161 -135 1184 22L1178 50Q1066 -31 1009 -47L1006 -44Q1004 32 1014 139Q1015 161 1030 186Q1062 187 1121 194Q1207 211 1214 214Q1268 232 1302 281Q1296 289 1296 294L642 284Q640 284 628 293Q617 294 568 294L193 289L181 277Q203 238 300 224Q379 214 458 205Q489 202 549 186Q567 178 576 143Q581 123 609 -44L605 -73Q540 -41 405 -4Q248 40 161 40Q130 40 100 18V-11Q161 -34 360 -96Q516 -145 614 -193Q602 -322 589 -452Q562 -616 462 -706Q362 -796 322 -889Q283 -978 283 -1112Q283 -1305 355 -1483H720Q781 -1321 778 -1171Q793 -1154 811 -1148Q936 -1105 1086 -965Q1227 -834 1310 -694Q1336 -715 1375 -805.5Q1414 -896 1414 -946Q1414 -1021 1217 -1095Q1183 -1101 1113 -1118Q1159 -1225 1159 -1328Q1159 -1353 1157 -1379Q1156 -1384 1152 -1406Q1149 -1425 1149 -1431V-1488H1265Q1262 -1459 1254 -1388Q1246 -1327 1246 -1321Q1246 -1300 1256 -1262.5Q1266 -1225 1272 -1218Q1332 -1152 1413 -1105Q1487 -1068 1560 -1031Q1618 -1002 1708 -982Q1719 -975 1719 -966Q1719 -937 1608 -777Q1565 -714 1523 -651Q1464 -570 1414 -528Q1484 -426 1763 -56Q1959 204 1959 236ZM1689 -957Q1392 -1049 1246 -1213Q1239 -1221 1229 -1265Q1220 -1306 1220 -1323Q1220 -1332 1235 -1467H1170V-1451Q1170 -1445 1176 -1409Q1182 -1369 1183 -1353Q1185 -1322 1176 -1252Q1169 -1194 1144 -1139Q1205 -1127 1300 -1082Q1439 -1016 1439 -949Q1439 -843 1327 -671Q1327 -662 1358.5 -614.5Q1390 -567 1406 -551Q1599 -775 1689 -957ZM1938 236Q1938 216 1723 -71Q1435 -455 1425 -469Q1319 -633 1162 -861Q1080 -965 1029 -989Q994 -1005 894 -1005Q644 -1005 644 -867Q644 -804 677 -756Q702 -719 747 -686Q1007 -501 1517 -132Q1594 -75 1745 78.5Q1896 232 1932 258Q1932 256 1935 249.5Q1938 243 1938 236ZM1790 272Q1779 257 1673 90Q1602 -20 1549 -77Q1499 -131 1414 -185Q1352 -223 1290 -262Q1155 -358 980 -488Q873 -568 811 -610Q683 -698 640 -764Q619 -797 619 -875Q619 -884 632 -919.5Q645 -955 650 -960Q719 -1030 869 -1030Q931 -1030 981 -1022Q891 -1083 757 -1151Q750 -1311 705 -1458H365Q345 -1401 324 -1290Q303 -1172 303 -1104Q303 -1045 315 -986Q330 -911 397 -822Q435 -772 548 -649Q574 -618 621 -567Q826 -378 882 -120Q909 4 909 108Q909 189 887 209Q872 224 814 224Q734 224 676 239V268H1230Q1201 232 1130 222Q1077 217 1024 212Q1000 208 997 184Q981 35 981 -62Q981 -70 989 -78Q1107 -40 1158 9L1133 -169Q1133 -187 1146 -200Q1165 -186 1196 -166Q1232 -148 1285 -104Q1339 -23 1393 79Q1442 171 1446 176Q1482 222 1577 249Q1662 273 1755 273Q1773 273 1790 272ZM883 24V-9Q883 -16 878 -44Q871 -78 870 -86Q847 -295 579 -582V-565Q580 -576 602 -477Q634 -334 634 -172Q634 172 559 212Q526 230 468 235Q419 238 371 241Q369 244 368 256Q368 264 362 264L478 269Q483 269 503 251Q523 233 531 230Q552 223 669 212Q688 80 707 -74Q713 -82 719 -88Q831 -34 883 24ZM889 108Q889 69 887 58Q804 -24 727 -57L696 207Q753 202 867 191Q889 175 889 108ZM613 -158L125 1Q138 14 153 14Q239 14 417 -34Q579 -78 609 -99Q609 -146 613 -158ZM644 240Q580 246 549 254L543 268H617ZM293 250Q275 253 247 261L282 268Q282 261 293 250ZM721 -1328L708 -1315Q690 -1338 652 -1387Q646 -1378 630 -1355Q614 -1332 606 -1321L588 -1338Q598 -1353 620 -1385.5Q642 -1418 652 -1433ZM690 -1239Q690 -1193 647 -1193Q633 -1193 616 -1209Q599 -1225 599 -1236Q599 -1247 617 -1268.5Q635 -1290 647 -1290Q659 -1290 674.5 -1269.5Q690 -1249 690 -1239ZM481 -1343L469 -1331Q455 -1343 418 -1392Q412 -1383 396 -1360Q380 -1337 372 -1326Q361 -1337 354 -1337L418 -1433Q436 -1411 481 -1343ZM588 -1274Q573 -1207 531 -1072H513L477 -1279H501Q507 -1221 525 -1142Q549 -1205 564 -1274ZM471 -1244Q471 -1198 423 -1198Q380 -1198 380 -1249Q380 -1305 433 -1305Q454 -1305 471 -1244ZM670 -1242L647 -1264Q624 -1241 624 -1234Q624 -1226 630 -1222Q636 -1218 641 -1214Q661 -1224 670 -1242ZM451 -1236Q450 -1260 423 -1275Q405 -1257 405 -1244Q405 -1231 412 -1224H439Z"/>
</svg>