<svg xmlns="http://www.w3.org/2000/svg" viewBox="0 -2048 2048 2048">
	<path fill="currentColor" d="M1997 207Q1997 213 1986 247H1956Q1949 247 1847 143Q1714 7 1677 -28Q1690 -7 1778 117Q1837 200 1857 256Q1847 256 1824 259Q1801 262 1795 262Q1580 262 1489 170Q1446 126 1398 30Q1344 -82 1317 -118Q1302 -138 1217 -187Q1215 -175 1215 -159Q1215 -169 1238 11Q1238 18 1226 18Q1227 18 1190 -10Q1153 -38 1075 -78H1063Q1063 -77 1078 148Q1111 151 1176 159Q1340 182 1348 251L706 247Q700 247 671.5 252Q643 257 637 257Q403 257 432 256Q323 260 255 246Q257 210 306 199Q309 198 615 151Q634 124 642 84Q666 -40 669 -140V-202H268Q221 -202 141 -303Q111 -342 101 -389Q100 -394 100 -432Q100 -576 189 -628Q256 -668 409 -668Q387 -668 554 -665Q536 -692 508 -722Q437 -796 391 -923Q349 -1037 349 -1124Q349 -1250 420 -1485H783Q794 -1454 812 -1394Q830 -1318 840 -1175Q898 -1146 956 -1118Q1028 -1079 1093 -1024Q1155 -951 1307 -807Q1335 -802 1392 -784Q1422 -771 1552 -697Q1633 -652 1683 -652Q1733 -652 1821 -670Q1899 -685 1977 -701V-303Q1963 -301 1948 -301Q1909 -301 1833.5 -319Q1758 -337 1725 -337Q1691 -337 1638 -304Q1730 -186 1822 -68Q1997 163 1997 207ZM1258 -815Q1141 -967 1077 -1007L951 -1016Q918 -1016 896 -1014Q775 -1003 731 -956Q704 -927 704 -886Q704 -870 718 -831.5Q732 -793 741 -787Q1023 -826 1096 -826Q1185 -826 1258 -815ZM1043 -1033Q962 -1083 820 -1160Q811 -1233 802 -1307Q789 -1390 768 -1460H435Q374 -1259 374 -1126Q374 -948 473 -804Q473 -838 482 -846Q499 -836 563 -811Q638 -782 657 -782H708Q679 -885 679 -889Q679 -896 692.5 -929Q706 -962 710 -967Q763 -1041 941 -1041Q1000 -1041 1043 -1033ZM1972 194Q1972 152 1616 -292Q1540 -239 1473 -230Q1570 -176 1731 -13Q1837 99 1943 210Q1946 213 1958 214Q1967 214 1967 220ZM1952 -322V-671Q1732 -627 1665 -627Q1623 -627 1546 -674Q1439 -738 1383 -760Q1266 -807 1128 -807L689 -762Q587 -762 500 -811Q524 -729 549 -700Q578 -667 637 -667L844 -694L1169 -658V-641H268Q240 -641 192 -607Q140 -570 136 -535Q134 -520 127 -471Q120 -428 120 -422Q120 -393 126 -379Q138 -351 176 -299Q228 -227 258 -227H1330Q1337 -227 1353.5 -230.5Q1370 -234 1376 -235Q1424 -240 1526 -279Q1574 -303 1623 -326Q1689 -357 1738 -357Q1794 -357 1864.5 -339.5Q1935 -322 1936 -322ZM1827 237Q1764 139 1700 41Q1616 -81 1522 -158Q1437 -227 1431 -227Q1425 -227 1398.5 -218Q1372 -209 1361 -208Q1241 -200 1243 -200Q1282 -177 1332 -138Q1373 -81 1426 17Q1489 132 1500 150Q1506 159 1602 197Q1705 237 1746 237ZM1278 231Q1262 204 1219 192Q1188 185 1157 179Q1157 179 1099 179Q1060 179 1055 154Q1039 78 1039 -75Q1039 -102 1042 -107H1056Q1165 -70 1212 -28Q1195 -119 1188 -201H929L969 115Q973 148 935 181Q870 187 740 198Q740 213 734 231ZM944 110Q944 40 916 4Q884 -36 785 -82L755 166Q840 166 928 156Q944 132 944 110ZM927 -23Q920 -85 903 -202H695Q687 -94 679 14Q668 117 625 176Q560 187 435 203Q435 204 432.5 213.5Q430 223 430 232H548Q578 194 638 184Q686 178 733 171Q746 76 770 -109Q776 -117 781 -117Q834 -86 927 -23ZM704 214Q672 206 646 209Q607 213 610 213Q610 224 604 231H677ZM359 218H320V232H348ZM779 -1333L766 -1321Q751 -1344 716 -1391Q693 -1362 678 -1331Q666 -1331 654 -1343Q654 -1343 716 -1436Q745 -1393 779 -1333ZM754 -1243Q754 -1225 738.5 -1213Q723 -1201 711 -1201Q697 -1201 680.5 -1216Q664 -1231 664 -1243Q664 -1256 680.5 -1276Q697 -1296 709 -1296Q733 -1296 754 -1243ZM549 -1347Q542 -1347 531 -1336Q525 -1346 487 -1396Q481 -1388 465.5 -1364.5Q450 -1341 442 -1331Q431 -1342 425 -1342Q435 -1357 453.5 -1389Q472 -1421 482 -1436Q505 -1413 549 -1347ZM649 -1280Q642 -1248 626 -1183.5Q610 -1119 603 -1087Q601 -1087 591.5 -1084.5Q582 -1082 580 -1082L545 -1285H563Q573 -1240 592 -1151Q619 -1232 631 -1286Q637 -1280 649 -1280ZM539 -1248Q539 -1206 489 -1206Q449 -1206 449 -1253Q449 -1271 461 -1289Q476 -1311 499 -1311Q522 -1311 539 -1248ZM729 -1243Q729 -1260 706 -1271Q689 -1255 689 -1243Q689 -1232 695 -1226H712Q729 -1243 729 -1243ZM514 -1237V-1264Q504 -1274 504 -1280H480Q476 -1269 476 -1256Q476 -1242 480 -1231Z"/>
</svg>