<svg xmlns="http://www.w3.org/2000/svg" viewBox="0 -2048 2048 2048">
	<path fill="currentColor" d="M2152 259Q2149 267 2144 286Q2139 305 2136 313Q2084 295 1994 196Q1890 81 1843 50Q1892 120 1941 190Q1996 271 2013 323Q2003 323 1979 326Q1955 329 1949 329Q1874 329 1767 296Q1660 263 1634 230Q1596 183 1544 82Q1488 -25 1457 -68Q1424 -91 1354 -139Q1352 -127 1352 -113Q1352 -85 1362 -32Q1374 35 1376 54L1369 77Q1263 -12 1194 -26Q1191 -23 1191 -16Q1191 39 1207 202Q1221 219 1252 219Q1302 218 1302 218Q1448 243 1488 300V323H448Q450 323 363 307Q374 275 400 269Q512 254 730 214Q755 208 765 146Q794 -39 794 -96L779 -331Q776 -335 756 -335Q759 -335 640.5 -304Q522 -273 447 -273Q372 -273 243 -330Q100 -394 100 -451V-483Q165 -499 163 -499Q186 -627 209 -754Q260 -942 370 -942Q454 -942 506 -843Q543 -773 563 -654Q571 -594 579 -534Q615 -524 651 -515Q708 -500 731 -479H745Q753 -487 753 -492Q753 -548 721 -598Q685 -636 611 -716Q530 -809 498 -897Q485 -930 467 -1001Q460 -1048 460 -1101Q460 -1227 528 -1471H901Q965 -1352 965 -1157Q1021 -1126 1133 -1063Q1267 -984 1435 -771Q1483 -702 1531 -633Q1589 -551 1642 -510Q1657 -498 1680 -496Q1696 -494 1724 -497Q1756 -499 1765 -499H1783L1824 -1075H2028L2069 -337H1745L1741 -332ZM1591 -521Q1357 -852 1220 -960Q1178 -993 1083 -993Q912 -993 853 -931Q825 -902 825 -854Q825 -788 848 -753Q887 -694 970 -632Q1035 -584 1101 -537Q1115 -535 1129 -535L1275 -548ZM1165 -1010Q1088 -1055 940 -1146Q948 -1310 886 -1451H549Q486 -1246 486 -1099Q486 -1024 492 -1000Q506 -943 517.5 -914.5Q529 -886 559 -830Q580 -792 606 -763Q845 -499 864 -499Q858 -499 1072 -532Q979 -597 917 -651Q832 -725 821 -755Q800 -811 800 -859Q800 -869 811.5 -901.5Q823 -934 831 -943Q893 -1014 1067 -1014Q1143 -1014 1165 -1010ZM2132 260L1714 -334H1391Q1486 -273 1580 -212Q1697 -136 1752 -83Q1883 49 2125 282Q2125 267 2132 260ZM2044 -361L2008 -1054H1845L1804 -473L1239 -520Q1169 -520 1111 -513Q1031 -503 879 -477Q742 -453 740 -453Q734 -453 676 -478.5Q618 -504 611 -504H579V-476Q587 -458 610 -450V-400Q559 -366 458 -366Q370 -366 258 -420Q146 -474 151 -474Q145 -474 136.5 -471Q128 -468 126 -468V-450Q158 -385 264 -340Q361 -299 455 -299Q579 -299 700 -346Q710 -353 731 -361ZM1982 297Q1908 188 1834 80Q1737 -57 1664.5 -115Q1592 -173 1468 -256Q1351 -335 1342 -334H990Q1029 -288 1065 -96Q1098 75 1098 167Q1098 198 1093 203Q1070 229 1063 241Q1008 245 953 249Q883 254 857 268V288H1416Q1406 266 1342 250Q1290 236 1252 236Q1246 236 1238 238.5Q1230 241 1224 241Q1216 241 1201 231Q1183 220 1182 208Q1170 32 1170 -24Q1170 -49 1178 -57Q1290 -15 1349 30Q1319 -180 1319 -160Q1319 -162 1332 -175Q1391 -146 1472 -89Q1507 -45 1558 60.5Q1609 166 1645 210Q1673 244 1781 275Q1880 303 1947 303Q1954 303 1966 300Q1978 297 1982 297ZM830 -496L760 -566Q767 -538 780 -489Q815 -496 830 -496ZM563 -408V-431Q565 -539 525 -729Q505 -823 473 -864Q432 -916 370 -916Q296 -916 253 -823Q221 -755 204 -634Q196 -559 188 -485Q361 -391 455 -391Q535 -391 563 -408ZM1077 169Q1077 103 1065 78Q1047 40 993 8Q953 -11 914 -31L883 231H920Q989 233 1050 219Q1077 213 1077 169ZM1061 35V7Q1062 -43 998 -251Q987 -285 958 -334H805V-281Q805 -274 810 -225Q815 -176 815 -172V22Q815 73 795 143Q770 229 735 240Q673 249 550 270Q543 288 543 292H663Q670 292 691.5 274Q713 256 720 254Q752 246 855 235Q868 137 893 -53Q897 -58 901 -62Q999 -28 1061 35ZM815 269Q784 272 752 275Q741 276 729 268V298H781Q786 298 815 269ZM516 295V286H497V295ZM465 291L458 283Q453 283 443 285.5Q433 288 427 288ZM902 -1313Q895 -1313 884 -1302Q865 -1341 838 -1374Q813 -1341 798 -1312Q787 -1312 774 -1325Q784 -1340 806 -1375Q828 -1410 838 -1425ZM877 -1225Q877 -1210 860.5 -1194Q844 -1178 830 -1178Q813 -1178 797 -1199Q784 -1217 784 -1227Q784 -1245 800.5 -1260.5Q817 -1276 828 -1276Q844 -1276 862 -1255Q877 -1236 877 -1225ZM661 -1329Q657 -1328 648 -1322Q635 -1335 602 -1379Q575 -1344 562 -1318Q549 -1318 537 -1330L602 -1425Q624 -1392 661 -1329ZM768 -1265L721 -1061H698L661 -1261L667 -1270H686Q692 -1222 710 -1132Q719 -1151 744 -1265ZM656 -1232Q656 -1184 602 -1184Q586 -1184 571 -1206Q558 -1224 558 -1230Q558 -1240 576 -1264Q596 -1292 612 -1292Q629 -1292 644 -1265Q656 -1242 656 -1232ZM851 -1228Q829 -1250 821 -1250Q810 -1221 816 -1204H834Q851 -1212 851 -1228ZM635 -1235Q635 -1252 606 -1266Q606 -1266 584 -1227Q602 -1209 609 -1209Q616 -1209 621.5 -1212Q627 -1215 629 -1215Q629 -1220 632 -1224Q635 -1228 635 -1235Z"/>
</svg>