<svg xmlns="http://www.w3.org/2000/svg" viewBox="26.4 -1589.6 1257.3 1988.3">
	<path fill="currentColor" d="M1210 321H279Q278 325 278 243Q278 175 295 78Q303 33 336 -37Q367 -103 367 -100Q367 -104 353 -152.5Q339 -201 337 -225Q333 -262 338 -312Q344 -372 344 -393Q343 -441 313 -500Q273 -579 210 -579Q182 -579 165 -557Q147 -531 129 -506Q100 -531 100 -571Q100 -664 243 -768Q267 -804 317 -866Q357 -907 434 -922Q500 -930 566 -938Q530 -958 493 -979Q439 -1009 412 -1040Q398 -966 390 -945Q369 -893 325 -893Q279 -893 245 -945Q214 -991 214 -1040Q214 -1072 231 -1084Q189 -1108 189 -1134Q189 -1176 265 -1176Q290 -1176 313 -1160Q341 -1141 341 -1110Q341 -1104 330.5 -1071.5Q320 -1039 320 -1032Q320 -1002 334 -982Q346 -982 347 -1001V-1165Q358 -1165 362 -1169Q351 -1202 351 -1213Q351 -1334 447 -1426Q540 -1516 660 -1516Q683 -1516 758 -1502Q871 -1481 911 -1446Q1014 -1356 1014 -1168Q1014 -1080 1023 -1043Q1027 -1027 1046 -975Q1063 -930 1063 -923V-888Q1052 -897 1052 -883Q991 -910 945 -1024Q919 -986 860 -964Q773 -930 770 -928Q856 -917 962 -828Q1064 -742 1114 -646Q1126 -623 1165 -500Q1210 -360 1210 -320ZM1026 -938Q996 -1000 989 -1087Q969 -1067 969 -1048Q969 -996 1026 -938ZM985 -1186Q985 -1177 971 -1278Q942 -1490 676 -1490Q586 -1490 541 -1467Q467 -1429 420 -1351Q378 -1279 378 -1210Q378 -1099 484 -1016Q581 -940 689 -940Q771 -940 842 -973Q913 -1006 952 -1072Q985 -1129 985 -1186ZM388 -1066Q388 -1078 375 -1110Q378 -994 353 -956Q325 -957 305 -971Q294 -1006 294 -1037Q294 -1044 304.5 -1071Q315 -1098 315 -1105Q315 -1155 265 -1155Q231 -1155 215 -1126Q226 -1117 258 -1110Q281 -1106 279 -1091Q236 -1056 236 -1032Q236 -1000 260 -962Q288 -919 323 -919Q388 -919 388 -1066ZM399 -728Q399 -739 376 -762Q341 -748 341 -726Q341 -699 372 -699Q386 -699 393 -706Q393 -708 396 -714Q399 -720 399 -728ZM603 -629Q603 -660 601 -666Q585 -710 565 -723Q509 -759 463 -757H415Q434 -693 385 -670Q385 -669 387.5 -654.5Q390 -640 390 -630Q390 -595 362 -595Q356 -595 340 -605Q321 -617 315 -619Q380 -577 401 -469Q415 -492 412 -532Q408 -584 410 -597Q413 -615 443 -635Q470 -652 485 -652Q509 -652 526 -628Q540 -606 540 -582Q540 -543 528 -522Q577 -558 591 -579Q603 -596 603 -629ZM1184 295V-331Q1184 -337 1168 -388Q1151 -443 1149 -462Q1134 -584 1016 -729Q882 -895 737 -905Q733 -905 719.5 -909.5Q706 -914 699 -913H613Q658 -886 685 -811Q708 -745 708 -676Q708 -510 423 -133Q383 -80 345 18Q305 123 305 189V295ZM519 -587Q519 -595 507.5 -610.5Q496 -626 482 -626Q473 -626 451.5 -607.5Q430 -589 430 -576Q430 -571 436 -535.5Q442 -500 442 -485Q473 -497 497 -532Q519 -563 519 -587ZM681 -699Q681 -819 637 -856Q568 -914 545 -914Q446 -914 379 -880Q347 -864 292 -793Q275 -771 201 -710Q142 -660 133 -629Q127 -609 129 -548Q144 -590 190 -626.5Q236 -663 268 -663Q284 -663 366 -629Q364 -650 354 -678Q315 -717 315 -723Q315 -747 345 -769Q372 -788 393 -788Q624 -788 624 -631Q624 -588 622 -583Q594 -515 465 -453Q454 -464 438 -485Q434 -472 431 -459Q424 -438 412 -438Q390 -438 370 -484Q341 -552 328 -570Q293 -616 236 -616Q211 -616 203 -607Q210 -608 217 -608Q274 -608 323 -532Q364 -468 365 -424Q365 -348 365 -272Q367 -183 385 -129Q563 -383 579 -410Q681 -579 681 -699Z"/>
</svg>