<svg xmlns="http://www.w3.org/2000/svg" viewBox="0 -2048 2048 2048">
	<path fill="currentColor" d="M1304 -267H1138L1030 302H494Q466 87 404 -262Q372 -268 292 -267Q303 -324 329 -435Q337 -464 368 -529Q395 -587 395 -592Q395 -595 379 -648.5Q363 -702 360 -729Q356 -763 361 -848Q366 -925 357.5 -965Q349 -1005 323 -1053Q293 -1108 268 -1112Q255 -1114 224 -1114Q167 -1114 161 -1095Q147 -1052 126 -1031Q100 -1078 100 -1112Q100 -1130 112 -1179Q122 -1220 241 -1317Q264 -1336 301.5 -1384.5Q339 -1433 365 -1453Q405 -1485 470 -1495Q582 -1512 661 -1512Q723 -1512 822 -1500Q883 -1493 921 -1474Q1075 -1399 1178 -1233Q1264 -1094 1285 -947Q1286 -939 1296 -903Q1304 -872 1304 -864ZM1284 -293V-843Q1285 -873 1249 -993Q1235 -1035 1213 -1107Q1179 -1228 1043 -1352Q901 -1482 785 -1477Q762 -1482 728 -1485H648Q757 -1432 757 -1230Q757 -1090 647 -918Q538 -760 430 -601Q414 -575 391 -533Q322 -355 323 -310V-293ZM426 -1280Q426 -1286 417 -1301Q408 -1316 398 -1316Q389 -1316 376.5 -1304.5Q364 -1293 364 -1285Q364 -1267 379 -1258.5Q394 -1250 408 -1243Q426 -1260 426 -1280ZM648 -1176Q648 -1211 646 -1221Q637 -1265 573 -1293Q523 -1316 490 -1315H442Q452 -1302 452 -1285Q452 -1245 412 -1214Q413 -1193 415 -1173Q414 -1140 392 -1140Q386 -1140 353 -1155Q313 -1172 307 -1174Q352 -1157 379.5 -1103Q407 -1049 434 -995Q450 -1043 450 -1040Q450 -1053 443 -1082Q437 -1107 438 -1116Q451 -1197 519 -1197Q581 -1197 581 -1119Q581 -1112 575.5 -1092Q570 -1072 569 -1066Q563 -1057 554 -1042Q589 -1070 624 -1098Q648 -1124 648 -1176ZM736 -1228Q736 -1481 555 -1481Q474 -1481 402 -1448Q362 -1429 295 -1330Q278 -1305 213 -1261Q154 -1222 143 -1190Q126 -1141 126 -1109Q126 -1092 134 -1078Q188 -1202 286 -1202Q333 -1202 381 -1167Q386 -1166 395 -1170Q384 -1207 382 -1224Q338 -1272 338 -1285Q338 -1296 355 -1317Q374 -1342 395 -1342Q514 -1342 564 -1326Q674 -1290 674 -1171Q674 -1109 626 -1064Q595 -1035 496 -980Q489 -989 472 -1008Q555 -1077 555 -1122Q555 -1171 514 -1171Q506 -1171 486 -1151.5Q466 -1132 464 -1123Q460 -1106 466 -1067Q472 -1028 471 -1024Q468 -1005 443 -969Q424 -969 406 -979Q400 -1003 388 -1045Q344 -1161 242 -1161Q229 -1161 221 -1157Q213 -1153 207 -1141Q216 -1143 225 -1143Q292 -1143 345 -1060Q392 -987 390 -926Q386 -892 379 -833Q370 -727 410 -618Q473 -713 603 -898Q647 -957 688 -1051Q736 -1160 736 -1228ZM1108 -265H432L515 275H1014Z"/>
</svg>