<svg xmlns="http://www.w3.org/2000/svg" viewBox="0 -2048 2048 2048">
	<path fill="#000000" d="M1478 -46H1388Q1302 -46 1199 -97Q1091 -152 1054 -221Q1040 -244 1016 -292Q979 -385 979 -409V-600Q979 -608 985.5 -659Q992 -710 992 -718V-915Q992 -963 932 -1035.5Q872 -1108 828 -1116Q746 -1131 738 -1131Q583 -1131 508 -972Q491 -936 491 -922Q491 -916 504 -885Q518 -850 521 -840Q562 -687 562 -640Q562 -632 514 -473.5Q466 -315 466 -307V-138Q466 -132 468.5 -116.5Q471 -101 470 -94Q469 -88 461 -59.5Q453 -31 453 -23Q453 -11 491 8Q484 15 484 30Q478 30 461.5 34Q445 38 437 38Q376 38 317 7Q246 -31 230 -93Q215 -188 187 -363Q184 -381 140 -510Q100 -625 100 -675Q100 -742 161 -832Q216 -904 271 -976Q307 -1036 391 -1162Q426 -1209 491.5 -1252.5Q557 -1296 616 -1308Q692 -1324 774 -1324Q854 -1324 856 -1324Q897 -1320 952 -1295Q1074 -1240 1140 -1097Q1191 -985 1191 -872V-710Q1191 -632 1218 -547Q1250 -444 1297 -439Q1359 -435 1478 -424ZM1447 -78V-398Q1371 -400 1267 -419Q1159 -486 1159 -740Q1159 -761 1159 -801Q1160 -841 1160 -860Q1160 -944 1150 -987Q1116 -1136 1013 -1219Q915 -1298 780 -1298Q612 -1298 538 -1250Q459 -1198 387 -1092Q335 -1015 284 -937Q195 -827 170 -788Q132 -726 132 -672Q132 -607 175 -497Q221 -381 224 -330Q252 -303 302 -303Q356 -303 379 -329Q391 -342 402 -373.5Q413 -405 418 -412Q423 -407 440 -407Q382 -271 382 -171Q382 -96 425 -40Q425 -37 427.5 -56Q430 -75 432 -115Q434 -173 434 -267Q448 -334 492 -495Q530 -636 530 -643Q530 -694 494.5 -802.5Q459 -911 459 -919Q459 -1009 554 -1087Q646 -1163 742 -1163Q818 -1163 893 -1114Q982 -1057 1009 -960Q1021 -917 1021 -828Q1021 -774 1016 -682Q1010 -570 1009 -550Q1008 -508 1008 -485Q1008 -224 1193 -127Q1226 -110 1287 -93Q1342 -78 1356 -78ZM427 3Q399 -16 374 -71Q350 -122 350 -152Q350 -163 368 -289Q314 -271 299 -271Q285 -271 229 -289V-210Q228 -134 279 -72Q336 -1 427 3ZM363 -572Q363 -553 334 -503Q326 -489 292 -472Q298 -454 298 -400H274Q269 -432 252 -478Q242 -484 224 -503Q183 -565 183 -592Q183 -617 216 -646Q249 -675 273 -675Q311 -675 340 -633Q363 -599 363 -572ZM327 -566Q331 -574 331 -583Q331 -605 311 -624Q291 -643 273 -643Q254 -643 234 -625Q214 -607 214 -586Q214 -575 219 -566Q219 -583 231 -603Q247 -630 273 -630Q299 -630 315 -603Q327 -583 327 -566ZM298 -568Q298 -584 284 -598H262Q248 -584 248 -574Q269 -553 277 -553Q280 -556 287.5 -560.5Q295 -565 298 -568ZM304 -533Q271 -522 241 -532Q272 -501 277 -502Q304 -515 304 -533Z"/>
</svg>