<svg xmlns="http://www.w3.org/2000/svg" viewBox="27.3 -1599.7 1594.4 1963.4">
	<path fill="currentColor" d="M1549 291H142V91H843V-937Q843 -959 792 -999Q750 -1032 725 -1042Q523 -1122 274 -1122Q269 -1122 242.5 -1119.5Q216 -1117 209 -1117Q185 -1117 159 -1143Q141 -1125 107 -1096Q100 -1115 100 -1156Q100 -1340 282 -1394Q444 -1422 606 -1451Q636 -1468 709 -1499Q791 -1527 874 -1527Q1018 -1527 1092 -1428Q1154 -1344 1154 -1216Q1154 -1041 972 -921V87H1549ZM458 -1216Q437 -1269 437 -1304Q437 -1339 458 -1402Q288 -1378 223 -1343Q120 -1288 120 -1161Q120 -1149 128 -1148Q202 -1226 365 -1226Q398 -1226 458 -1216ZM1128 -1226Q1128 -1334 1068 -1412Q999 -1501 879 -1501Q780 -1501 700 -1466Q597 -1421 492 -1405Q463 -1348 463 -1301Q463 -1238 491 -1207Q548 -1196 588 -1181Q585 -1178 584 -1172Q583 -1166 580 -1163L388 -1205Q334 -1199 280 -1193Q210 -1183 183 -1155Q202 -1143 237 -1143Q244 -1143 273 -1145.5Q302 -1148 308 -1148Q490 -1148 715 -1073Q740 -1065 796 -1026Q864 -979 864 -952V88H946V-926Q1128 -1060 1128 -1226ZM1528 270V115H168V270ZM884 -1345Q884 -1304 849 -1276Q818 -1252 786 -1252Q753 -1252 713 -1272Q664 -1296 662 -1331Q653 -1331 642.5 -1328Q632 -1325 631 -1325L625 -1350Q642 -1347 706.5 -1395.5Q771 -1444 788 -1444Q821 -1444 852.5 -1408.5Q884 -1373 884 -1345ZM858 -1343Q858 -1366 834.5 -1394.5Q811 -1423 788 -1423Q769 -1423 730.5 -1388Q692 -1353 692 -1330Q692 -1304 730 -1289Q758 -1278 783 -1278Q858 -1278 858 -1343ZM832 -1361Q832 -1339 811 -1316Q790 -1293 775 -1293Q755 -1293 739 -1314Q723 -1335 723 -1348Q723 -1371 744 -1387Q765 -1403 786 -1403Q832 -1403 832 -1361ZM806 -1361Q806 -1370 800 -1376H772Q759 -1364 744 -1343Q756 -1319 773 -1319Q782 -1319 794 -1335Q806 -1351 806 -1361Z"/>
</svg>