<svg viewBox="0 0 17.898569 7.2"
   xmlns="http://www.w3.org/2000/svg">
  <path
     style="fill:currentColor; stroke:none"
     d="M 17.152452,7.2 C 12.641057,3.7643987 8.2164197,2.7984973 3.878539,4.302296 C 1.7732217,4.9038153 0.51812833,4.4931627 0.113259,3.070338 C -0.245339,1.8094607 0.23472,0.99393933 1.553436,0.623774 C 2.6755007,0.29987867 3.35221,0.52544833 3.583564,1.300483 C 8.48826,-0.735429 12.843492,-0.38261467 16.64926,2.358926 C 15.781683,3.076122 15.128109,3.694993 14.688537,4.215539 L 17.898569,6.106854 L 17.152452,7.2 z M 15.052918,2.463035 C 11.339693,0.24204033 7.3661953,0.218905 3.132424,2.393629 C 2.90107,1.583891 2.4441467,1.2715637 1.761654,1.456647 C 1.102296,1.6417297 0.87094233,2.0813013 1.067593,2.775362 C 1.3220817,3.642938 2.17809,3.8685077 3.635618,3.452071 C 7.9619307,2.1911943 9.6967855,2.4731815 13.578039,3.903211 C 14.040746,3.336395 14.532373,2.8563363 15.052918,2.463035 z" />
</svg>