<svg xmlns="http://www.w3.org/2000/svg" viewBox="0 -2048 2048 2048">
	<path fill="currentColor" d="M1538 67Q1520 108 1462 134Q1335 191 1133 227Q949 261 809 261Q645 261 420 210Q153 149 100 67Q109 48 132 37Q378 -82 746 -106Q769 -108 769 -114V-1366Q769 -1392 813 -1437Q852 -1475 876 -1487Q914 -1505 940 -1505Q1009 -1505 1055 -1453Q1096 -1407 1096 -1349Q1096 -1313 1063 -1278Q1030 -1243 987 -1236Q986 -1236 980 -1230L1151 -520Q1091 -514 1029 -482Q979 -456 929 -417Q914 -405 875 -367Q824 -316 824 -301V-115Q839 -108 852 -108Q1131 -112 1466 22Q1497 35 1538 67ZM1121 -540L955 -1248Q955 -1255 959 -1259Q957 -1258 990 -1258Q1009 -1258 1040 -1293.5Q1071 -1329 1071 -1354Q1071 -1404 1032.5 -1441.5Q994 -1479 940 -1479Q894 -1479 841.5 -1433.5Q789 -1388 789 -1346V-112H804V-316Q804 -340 949 -462Q968 -478 994 -492Q1061 -528 1121 -540ZM1508 72Q1221 -86 817 -86Q493 -86 177 42Q155 51 135 72Q213 139 441 189Q653 236 832 236Q1012 236 1194 196Q1400 151 1508 72Z"/>
</svg>