<svg xmlns="http://www.w3.org/2000/svg" viewBox="0 -2048 2048 2048">
	<path fill="currentColor" d="M984 323H179V245H593Q569 155 541 85H179V3H510Q514 0 514 -5L100 -1286Q107 -1337 128 -1389Q143 -1426 206 -1462Q266 -1495 307 -1495Q386 -1495 439.5 -1446.5Q493 -1398 493 -1323Q493 -1256 425 -1173L880 -451Q874 -439 847 -424Q786 -392 675 -311Q555 -195 555 -131Q555 -119 575.5 -60.5Q596 -2 601 3H979V85H623Q643 157 680 244H984ZM843 -450L393 -1178Q472 -1255 472 -1317Q472 -1384 415 -1431Q363 -1474 299 -1474Q257 -1474 185 -1420Q150 -1394 133 -1347Q126 -1328 126 -1281Q126 -1241 128 -1235Q267 -821 541 1H565Q561 -19 544 -73Q529 -121 529 -126Q529 -162 579 -236Q628 -307 680 -353Q718 -386 795 -424Q811 -435 843 -450ZM958 64V24H200V64ZM649 242L596 87H572L625 242ZM958 305V270H200V305Z"/>
</svg>