<svg xmlns="http://www.w3.org/2000/svg" viewBox="0 -2048 2048 2048">
	<path fill="currentColor" d="M2045 -684Q2045 -640 2035 -606Q2029 -584 1999 -565Q1969 -546 1945 -546H1264L1335 -241Q1302 -233 1237 -214Q1201 -201 1090 -143Q1050 -122 982 -67Q901 -2 901 23V360H827V-546H210Q163 -546 131.5 -583.5Q100 -621 100 -669Q100 -678 105 -685Q108 -728 144 -755Q180 -782 224 -782H826V-1330Q840 -1375 847 -1396Q887 -1508 995 -1538Q1039 -1550 1056 -1550Q1146 -1550 1204.5 -1492Q1263 -1434 1263 -1344Q1263 -1329 1246.5 -1294.5Q1230 -1260 1218 -1248Q1184 -1212 1108 -1202L1211 -782H1918Q1950 -782 1989 -763Q1999 -758 2022 -726Q2045 -694 2045 -684ZM2022 -681Q2022 -687 2004.5 -712.5Q1987 -738 1981 -741Q1953 -756 1921 -756H1215L1259 -569H1948Q1967 -569 1989.5 -585.5Q2012 -602 2015 -620Q2022 -664 2022 -681ZM1310 -257L1080 -1216Q1079 -1222 1090 -1229Q1106 -1228 1110 -1228Q1166 -1228 1202 -1264Q1210 -1272 1225 -1304Q1240 -1336 1240 -1346Q1240 -1414 1179 -1485Q1143 -1527 1055 -1527Q931 -1527 872 -1399Q852 -1356 852 -1339V334H876V25Q876 10 896 -19Q914 -45 985 -98Q1047 -146 1086 -167Q1215 -238 1310 -257ZM825 -572V-756H212Q176 -756 149.5 -729.5Q123 -703 123 -667Q123 -629 143 -603Q150 -594 186 -572Z"/>
</svg>