<svg xmlns="http://www.w3.org/2000/svg" viewBox="0 -2048 2048 2048">
	<path fill="currentColor" d="M1311 -451Q1282 -425 1227 -369Q1170 -300 1111 -186Q1043 -55 1043 12Q1043 32 1100 130Q1140 198 1218 336Q1198 347 1157 371L411 -936Q357 -1029 261 -1209Q261 -1229 249 -1263Q235 -1280 179 -1311Q140 -1333 100 -1355Q103 -1366 111 -1375L243 -1295Q243 -1300 242 -1309.5Q241 -1319 241 -1324Q241 -1352 249 -1383Q199 -1414 100 -1478Q103 -1489 111 -1498L257 -1404Q259 -1407 267 -1430Q278 -1461 316.5 -1496.5Q355 -1532 387 -1542Q428 -1555 471 -1555Q523 -1555 582.5 -1516.5Q642 -1478 659 -1430Q673 -1391 673 -1377Q673 -1282 585 -1231ZM1282 -450L550 -1238Q650 -1289 650 -1375Q650 -1418 612 -1460Q579 -1498 535 -1515Q524 -1520 502 -1528Q483 -1532 447 -1532Q453 -1532 430 -1527Q359 -1512 311.5 -1453.5Q264 -1395 264 -1322Q264 -1252 279 -1221Q313 -1151 444 -920Q552 -736 764 -365L1164 342L1190 327Q1150 260 1071 125Q1020 36 1020 13V-3Q1020 -61 1092 -198Q1157 -321 1207 -381Q1234 -403 1282 -450Z"/>
</svg>