<svg xmlns="http://www.w3.org/2000/svg" viewBox="26.8 -1590.2 1797.3 1975.3">
	<path fill="currentColor" d="M1751 270Q1751 307 1715 307Q1691 307 1629 233Q1577 172 1565 149Q1550 120 1523 65Q1504 23 1492 -38.5Q1480 -100 1480 -152L1506 -501Q1506 -630 1473 -748Q1461 -764 1435 -804Q1391 -875 1251 -916Q1139 -949 1039 -949H1021V-805Q1026 -753 1035 -645Q1048 -494 1086 -177Q1121 116 1121 114Q1121 184 1083 243Q1038 312 964 312Q898 312 840 282Q769 246 759 179Q758 174 752 151Q746 131 746 124L840 -827V-934Q787 -937 671 -926Q542 -913 488 -913Q334 -913 334 -1074Q334 -1115 355 -1211Q347 -1214 335 -1214Q319 -1214 286.5 -1206.5Q254 -1199 243 -1199Q211 -1199 161 -1223Q100 -1252 100 -1288Q100 -1307 122.5 -1344.5Q145 -1382 169 -1395Q230 -1428 311 -1428Q496 -1428 496 -1314Q496 -1308 475 -1241.5Q454 -1175 454 -1168Q454 -1069 529 -1069Q586 -1069 849 -1120Q855 -1195 869 -1343Q871 -1385 872 -1427Q874 -1476 888 -1500Q898 -1517 920 -1517Q936 -1517 962 -1494Q988 -1471 989 -1452Q992 -1406 1006 -1135Q1010 -1131 1212 -1131Q1451 -1094 1568 -993Q1655 -917 1674 -780Q1684 -709 1683 -675L1626 -261Q1629 -216 1635 -134Q1645 -10 1674 90Q1682 118 1718 195Q1751 265 1751 270ZM985 -1124V-1145Q980 -1249 962 -1457Q960 -1474 925 -1491Q912 -1477 898 -1452Q872 -1286 876 -1165V-1124Q968 -1128 985 -1124ZM1724 278Q1724 267 1718 251Q1605 64 1605 -261Q1605 -371 1643 -534Q1663 -620 1663 -668Q1663 -989 1385 -1070Q1245 -1111 1165 -1111Q1014 -1111 831 -1093Q776 -1088 657 -1067Q547 -1048 545 -1048Q483 -1048 458 -1073Q433 -1098 433 -1160Q433 -1167 451 -1238Q469 -1309 469 -1316Q469 -1402 308 -1402Q192 -1402 148 -1344Q126 -1315 126 -1290Q126 -1263 173 -1242Q212 -1225 238 -1225Q257 -1225 293 -1232Q329 -1239 347 -1239Q363 -1239 376 -1236L381 -1228Q355 -1057 355 -1058Q355 -1010 382 -974Q414 -933 467 -933L1001 -970Q1264 -970 1383 -886Q1532 -780 1532 -504L1506 -147Q1506 -32 1557 79Q1617 208 1724 278ZM1094 103V53Q1093 89 1033 -457Q1018 -592 995 -946H866Q836 -445 785 -14Q772 94 772 86V103ZM1094 148V130H772Q781 280 962 280Q1003 280 1009 279Q1032 275 1063 227Q1094 179 1094 148ZM329 -1348Q313 -1314 298 -1314Q284 -1314 266 -1332Q269 -1337 280 -1351.5Q291 -1366 294 -1371Q299 -1368 311.5 -1359.5Q324 -1351 329 -1348Z"/>
</svg>