<svg xmlns="http://www.w3.org/2000/svg" viewBox="5.5 -1636.5 2551 2075">
	<path fill="currentColor" d="M2462 223Q2462 240 2443 266Q2438 273 2332.5 302Q2227 331 2208 332Q2176 333 2167 333Q2114 333 2054 293Q1994 253 1975 204Q1967 184 1952 121Q1936 54 1936 38Q1936 -86 1949 -227Q1949 -228 1967 -333Q2001 -533 2001 -600Q2001 -754 1957 -815Q1928 -855 1903 -855H1819Q1798 -841 1763 -804Q1727 -746 1727 -654Q1727 -627 1728 -611L1760 -104Q1761 -88 1761 -80Q1761 55 1738 111Q1693 221 1637 259Q1553 317 1509.5 330.5Q1466 344 1369 344Q1309 344 1236 301Q1159 257 1139 204Q1136 189 1129 159Q1103 58 1103 22Q1103 3 1105.5 -32Q1108 -67 1108 -83Q1110 -205 1125 -297Q1164 -542 1164 -618Q1164 -760 1118 -815Q1114 -820 1088 -837.5Q1062 -855 1058 -855H989Q965 -841 926 -804Q917 -791 900 -744.5Q883 -698 883 -685Q883 -695 888 -624Q892 -570 915 -397Q933 -257 933 -170Q933 -21 926 35Q918 99 841 200Q731 344 525 344Q485 344 467 340Q459 338 424 321Q315 268 280 202Q269 182 253 129.5Q237 77 237 58Q237 24 247.5 -44.5Q258 -113 258 -147Q258 -143 247 -246Q245 -279 237 -344Q236 -351 209 -443Q193 -501 193 -546Q193 -651 228 -694Q251 -724 315 -778Q302 -777 245 -770Q201 -764 174 -764Q169 -764 114 -784Q100 -811 100 -828Q100 -896 200 -948L163 -1176H426Q337 -1267 222 -1411Q211 -1433 211 -1459Q211 -1485 225 -1506Q249 -1542 278 -1542Q305 -1542 329.5 -1521Q354 -1500 354 -1473Q354 -1437 316 -1417H288Q302 -1429 317 -1441Q328 -1452 328 -1478Q328 -1516 281 -1516Q262 -1516 244 -1492Q234 -1479 234 -1457Q234 -1439 242 -1424Q245 -1418 292 -1363Q357 -1286 444 -1189L549 -1537H614L442 -937Q571 -834 598 -803Q675 -719 675 -619Q675 -477 569 -306Q539 -258 489 -127Q436 13 436 56Q436 193 516 209Q535 213 579 213Q702 213 761 94Q768 60 782 -3Q799 -79 799 -73Q799 -59 791 -164Q788 -219 780 -328Q775 -380 763 -478Q755 -541 755 -551Q755 -745 794 -813Q830 -876 843 -894Q875 -936 915 -952Q971 -974 1038 -974Q1075 -974 1133 -946Q1177 -925 1205 -891Q1241 -847 1264 -761Q1284 -684 1284 -618Q1284 -615 1265 -506Q1213 -208 1213 -11Q1213 161 1297 211Q1329 230 1375 230Q1571 230 1605 94Q1636 -30 1632 -80L1591 -566Q1590 -578 1590 -595Q1590 -746 1630 -817Q1660 -870 1678 -893Q1709 -933 1746 -949Q1804 -974 1875 -974Q2000 -974 2061 -874Q2073 -858 2092 -822Q2120 -749 2120 -621Q2120 -615 2108 -546Q2092 -462 2068 -293Q2056 -152 2056 -2Q2056 114 2097 168Q2143 230 2255 230Q2284 230 2337 211Q2390 192 2418 192Q2462 192 2462 223ZM580 -1511H568L459 -1150H194L225 -956Q283 -974 345 -974Q381 -974 419 -953ZM2436 221Q2427 218 2414 218Q2387 218 2336 235.5Q2285 253 2258 253Q2033 253 2033 -2Q2033 -157 2048 -314Q2057 -368 2074 -475Q2078 -506 2088 -567Q2097 -620 2097 -624Q2097 -679 2080 -772Q2079 -785 2073 -811Q2049 -873 1992 -912Q1980 -923 1955 -939Q1924 -952 1873 -952Q1806 -952 1757 -931Q1726 -918 1688 -868Q1652 -822 1641 -786Q1613 -698 1613 -604Q1613 -582 1614 -570L1655 -75Q1657 -6 1624 106Q1581 253 1373 253Q1278 253 1230 164Q1191 93 1191 -10Q1191 -129 1212 -309Q1226 -432 1255 -584Q1261 -616 1261 -618Q1261 -779 1190 -872Q1160 -911 1056 -946Q1038 -952 1037 -952Q977 -952 923 -930Q861 -905 820 -815Q814 -803 808 -793Q808 -791 789 -684Q777 -618 777 -574Q777 -562 778 -552L822 -69Q823 -59 805.5 14.5Q788 88 782 103Q776 118 749 149Q701 205 676 218Q643 236 575 236Q532 236 511 232Q413 213 413 56Q413 -6 470 -143Q492 -191 535 -289Q540 -302 546 -311Q653 -484 653 -619Q653 -705 594 -775Q567 -808 467 -890Q445 -909 405 -936Q371 -952 345 -952Q301 -952 250 -942Q206 -933 169 -903Q126 -869 126 -828Q126 -816 131 -802Q141 -799 178 -787L417 -814Q431 -814 455 -807Q485 -798 485 -789Q485 -788 483 -782Q472 -780 464 -780Q450 -780 445 -788H377Q352 -776 305 -747Q216 -682 216 -590Q216 -519 223 -473Q237 -432 259 -347Q263 -313 270 -244Q281 -146 281 -147Q281 -113 270.5 -43.5Q260 26 260 60Q260 88 282 143Q288 158 291 168Q303 209 367 259Q427 306 472 317Q489 321 532 321Q603 321 669 302Q728 285 793 220Q853 161 883 99Q913 37 913 -110Q913 -150 910 -220Q907 -290 888 -424Q869 -562 865 -629Q865 -637 862.5 -658Q860 -679 860 -690Q860 -703 880 -754Q899 -802 909.5 -818Q920 -834 944 -852Q983 -880 984 -881H1058Q1068 -881 1076 -870Q1121 -848 1135 -828Q1187 -755 1187 -603Q1187 -556 1145 -288Q1132 -200 1130 -92Q1130 -71 1126.5 -25.5Q1123 20 1123 44Q1123 46 1145 135Q1155 175 1159 188Q1170 218 1186 235Q1269 321 1370 321Q1537 321 1634 235Q1651 220 1692 148Q1705 128 1723 82Q1737 18 1737 -103Q1737 -239 1710 -489Q1702 -563 1702 -544V-694Q1702 -708 1719 -756Q1736 -804 1745.5 -819.5Q1755 -835 1777 -852Q1808 -875 1814 -881H1895Q1904 -881 1908 -874Q1945 -874 1975 -828Q2023 -753 2023 -600Q2023 -554 1987 -316Q1980 -287 1971 -229Q1959 -107 1959 36Q1959 98 1998 199Q2012 234 2082 279Q2097 290 2127 306Q2139 309 2163 309Q2279 309 2428 248ZM269 -865Q258 -855 250 -855H230Q220 -865 220 -875Q220 -898 247 -898Q257 -898 269 -888Z"/>
</svg>