<svg xmlns="http://www.w3.org/2000/svg" viewBox="0 0 1000 1000">
  <g transform="scale(1,-1) translate(0,-1000)">
    <path d="M515 81Q482 101 455.0 132.5Q428 164 345 276H25Q2 276 2 295Q2 316 23 316H155Q154 317 154 321V327Q155 332 156.0 334.0Q157 336 160.5 337.5Q164 339 170 339Q179 339 203 336Q207 336 214.5 335.0Q222 334 226 334Q233 334 249 338Q254 345 254 350Q254 354 248.5 367.0Q243 380 228.5 400.5Q214 421 194 434Q170 449 139.0 464.0Q108 479 88 492Q75 501 52.0 509.5Q29 518 14 530L5 542Q0 553 0 576V577Q0 590 8.0 598.5Q16 607 26 607Q34 607 42.0 602.0Q50 597 51.0 597.0Q52 597 55.0 596.5Q58 596 60.0 596.0Q62 596 65.0 596.5Q68 597 69 597Q86 597 117.0 598.5Q148 600 165 600Q170 600 178.0 599.5Q186 599 189 599Q190 606 203.5 711.0Q217 816 228 882Q235 926 252 954Q260 968 266.0 974.5Q272 981 287.0 987.0Q302 993 326 993H335Q349 991 363.0 979.5Q377 968 377 950Q377 949 376.5 946.5Q376 944 376 943Q369 913 351 901Q347 897 322 890Q323 874 326.5 845.0Q330 816 331 797Q332 784 337.0 757.5Q342 731 342 715Q342 663 316 654Q307 650 294.0 650.5Q281 651 266.5 645.5Q252 640 231 620L226 594Q240 590 248.0 579.5Q256 569 266 566Q315 548 422 548Q450 548 501.0 544.5Q552 541 581 541Q633 541 648 537L633 603L653 595L715 763L666 780Q653 786 653 798Q653 806 658.5 812.5Q664 819 672 819Q677 819 679 818L728 800L736 821Q742 834 753 834Q761 834 767.5 828.0Q774 822 774 814Q774 809 773 807L691 582L712 574L659 533Q667 530 676.0 525.0Q685 520 696.5 512.5Q708 505 715 501Q727 494 743.5 480.5Q760 467 764 464L802 441Q831 431 869.5 413.0Q908 395 932 386Q953 377 974.0 362.0Q995 347 995 335Q995 320 983 316Q1000 314 1000 296Q1000 288 994.0 282.0Q988 276 980 276H673Q711 225 711 157Q711 147 709.0 134.5Q707 122 700.5 100.0Q694 78 675.5 63.5Q657 49 629 49Q590 49 555 62V20Q555 12 549.0 6.0Q543 0 535.0 0.0Q527 0 521.0 6.0Q515 12 515 20ZM862 344H878Q901 344 929 349Q928 350 902.5 362.0Q877 374 842.0 389.0Q807 404 789 410Q741 435 733 439Q692 473 686.0 477.0Q680 481 670.0 489.5Q660 498 652.0 502.0Q644 506 632 507Q629 507 609.5 508.5Q590 510 581 510Q553 510 502.5 513.0Q452 516 422 516Q309 516 256 535Q239 541 230.0 551.5Q221 562 217 564Q216 564 215 564L213 565Q189 569 165 569Q150 569 119.0 567.0Q88 565 69 565H50Q39 568 28 573Q24 571 24 568Q25 567 28 564L30 560Q42 546 78 530Q156 536 166 536Q177 536 181 535Q186 535 191.0 530.0Q196 525 196 520Q196 508 185 508L125 506L215 463Q230 452 245 434Q247 436 248 436L277 449Q279 450 282 450Q294 450 294 438Q294 430 287 427L258 414H257Q286 368 288 356Q288 356 290 348L292 340Q296 335 306 335Q311 335 321.5 337.0Q332 339 336 339Q340 344 340 352Q340 354 342.0 364.5Q344 375 344 379V380Q344 381 336 423V425Q336 439 349 441H353Q358 442 365 437Q376 426 384.5 411.0Q393 396 401.0 388.5Q409 381 425 378L517 377Q522 396 527 404Q531 414 533.5 419.5Q536 425 541.5 429.0Q547 433 550.0 435.0Q553 437 563.5 441.0Q574 445 580 448Q585 453 592 453Q598 453 603.0 448.0Q608 443 608 437Q608 424 584.5 414.0Q561 404 556 392Q554 388 548 370V369Q547 350 547 350Q549 338 560.0 336.5Q571 335 572 334Q573 334 578.5 335.5Q584 337 587 338Q592 340 595.0 342.0Q598 344 601.0 347.0Q604 350 605.5 352.5Q607 355 610.5 361.5Q614 368 617 373Q618 375 621.0 384.5Q624 394 629 402Q643 416 656 416Q665 412 700.5 395.0Q736 378 757 374Q765 371 783.5 363.0Q802 355 810.0 352.5Q818 350 832.5 347.0Q847 344 862 344ZM310 684Q315 698 315 714Q315 731 309.5 758.5Q304 786 304 792V797Q300 850 297 888L296 902Q297 909 323.5 918.5Q350 928 350 948Q350 953 345.0 957.5Q340 962 334 964L329 966Q325 967 317 967Q296 967 290 961Q261 932 253 875Q245 831 239.5 792.5Q234 754 229.0 709.5Q224 665 222 646Q247 665 258 671Q267 676 280.0 677.0Q293 678 300.5 678.5Q308 679 310 684ZM515 276H382Q481 142 515 118ZM681 157Q681 173 678.5 187.5Q676 202 672.0 213.5Q668 225 663.0 235.5Q658 246 652.5 253.0Q647 260 643.0 265.0Q639 270 636 273L634 276H555V95Q592 79 629 79Q658 79 669.5 103.5Q681 128 681 157ZM812 316Q758 333 749 335Q736 338 718.0 347.0Q700 356 692 357Q685 364 672 369L657 377H656L644 349Q638 328 628 316ZM418 316 417 317Q419 336 426 336Q452 331 452 331L519 332Q516 344 516 345L423 346H421Q394 350 377 367V350Q376 330 364 316Z" fill="currentColor"/>
  </g>
</svg>