<svg xmlns="http://www.w3.org/2000/svg" viewBox="0 -2048 2048 2048">
	<path fill="currentColor" d="M1775 -539Q1775 -522 1755 -508.5Q1735 -495 1625 -477Q1522 -459 1487 -459Q1482 -459 1468 -460L1031 -491Q805 -507 812 -507Q805 -507 700 -491Q471 -456 394 -456Q310 -456 268 -470Q210 -489 167 -546Q145 -580 100 -648V-664L209 -744Q235 -710 260 -677Q295 -633 325 -633Q396 -633 529.5 -678.5Q663 -724 734 -724Q816 -724 883 -708Q886 -707 958 -677Q1039 -643 1119 -608Q1218 -571 1288 -571Q1309 -571 1351 -566Q1393 -561 1414 -561Q1441 -561 1493.5 -567.5Q1546 -574 1573 -574Q1558 -574 1620 -570L1760 -561Q1775 -553 1775 -539ZM1755 -539Q1565 -550 1569 -550Q1541 -550 1485.5 -544.5Q1430 -539 1402 -539Q1285 -539 1222 -552Q1156 -566 959 -652Q933 -665 880 -686Q822 -702 732 -702Q661 -702 528 -656Q395 -610 324 -610Q283 -610 255 -647Q231 -680 208 -714L125 -652Q182 -562 209 -535Q262 -482 337 -480Q385 -479 397 -479Q481 -479 748 -522Q802 -531 811 -530L1421 -482Q1434 -481 1452 -481Q1463 -481 1484 -482Q1504 -482 1515 -482Q1545 -482 1642 -503Q1747 -525 1752 -539Z"/>
</svg>