<svg xmlns="http://www.w3.org/2000/svg" viewBox="20.6 -1661.4 2144.9 2110.9">
	<path fill="currentColor" d="M2086 -852Q2073 -828 2056 -818Q2000 -784 1811 -749Q1880 -737 1929 -686Q1978 -635 1995 -580Q2011 -521 2026 -463Q2031 -448 2031 -444Q2031 -462 2013 -285Q1999 -142 1971 -13Q1952 76 1952 88Q1952 178 1970 226Q1974 236 2004 285.5Q2034 335 2034 339Q2034 346 2030 354Q2021 361 2007 361Q1990 361 1943.5 317.5Q1897 274 1888 255Q1851 173 1851 32Q1851 -60 1854 -82Q1893 -368 1893 -454Q1893 -492 1889 -512Q1875 -582 1806 -614Q1765 -615 1757 -615Q1751 -615 1747 -613Q1667 -577 1667 -385V-344Q1667 -342 1684 -260Q1713 -121 1713 -61Q1713 86 1644 223Q1598 314 1505 347Q1440 370 1316 370Q1232 370 1177 342Q1007 256 959 166Q896 48 896 -59Q896 -109 909 -209Q922 -309 922 -359Q922 -356 915 -439Q910 -509 895 -649Q881 -696 855 -789Q841 -786 824 -776Q841 -732 841 -716Q841 -700 811.5 -678Q782 -656 766 -656Q715 -656 677 -721Q636 -707 614 -696Q614 -690 614 -678Q615 -666 615 -661Q615 -634 593.5 -614Q572 -594 545 -594Q502 -594 484 -612Q471 -626 457 -671Q436 -671 394 -674Q362 -607 328 -607Q233 -607 233 -669Q233 -660 245 -721Q221 -743 192 -774Q145 -778 118 -792Q100 -820 100 -846Q100 -881 124.5 -904.5Q149 -928 184 -928Q188 -928 207 -925L244 -958Q227 -995 227 -1011Q227 -1033 242.5 -1056Q258 -1079 279 -1079Q284 -1079 295 -1080Q306 -1080 311 -1080Q333 -1080 355.5 -1053Q378 -1026 382 -1003Q404 -1006 448 -1009Q471 -1082 522 -1082Q533 -1082 577 -1068Q605 -1032 602 -982Q623 -976 666 -963Q668 -974 674 -997Q722 -1028 760 -1028Q770 -1028 812 -997Q824 -924 824 -936Q824 -926 819 -915L832 -911Q833 -917 833 -920Q833 -933 830.5 -957.5Q828 -982 828 -995Q828 -1173 975 -1282Q984 -1289 1017 -1301Q815 -1283 808 -1283Q687 -1283 687 -1372Q687 -1440 768 -1502Q836 -1553 912 -1571Q960 -1582 1028 -1582Q1111 -1582 1155 -1555Q1260 -1491 1368 -1386Q1497 -1260 1523 -1170Q1537 -1121 1537 -1041Q1537 -1024 1529 -973Q1541 -974 1558 -974Q1692 -974 1842 -949Q2052 -915 2086 -852ZM2059 -852Q2009 -897 1864 -924Q1747 -947 1650 -947H1396Q1312 -947 1137 -911Q1135 -910 1052 -889Q1000 -875 966 -875Q960 -875 961 -881V-874H957Q986 -866 994 -847Q970 -831 940 -819Q964 -822 973 -822Q1026 -822 1107 -802Q1214 -775 1239 -771Q1277 -768 1354 -760Q1421 -752 1420 -752H1634Q1634 -752 1683 -758Q1850 -779 1883 -785Q2025 -811 2059 -852ZM1514 -1043Q1514 -1121 1501 -1163Q1475 -1247 1347 -1373Q1229 -1490 1138 -1537Q1101 -1556 1018 -1556Q957 -1556 915 -1548Q858 -1537 791 -1492Q714 -1439 714 -1390V-1376Q714 -1347 725 -1327Q774 -1306 813 -1306Q900 -1306 1066 -1330Q1149 -1342 1165 -1342Q1237 -1342 1256 -1307H1247Q1235 -1307 1212 -1314.5Q1189 -1322 1177 -1322Q1061 -1322 990 -1265Q912 -1202 882.5 -1142.5Q853 -1083 853 -983Q853 -1001 857 -904L871 -897Q874 -903 882 -903Q895 -903 920.5 -900Q946 -897 959 -897Q971 -897 1068 -919Q1202 -949 1335 -962Q1450 -973 1426 -973H1510Q1514 -1040 1514 -1043ZM799 -937Q799 -969 790 -983Q776 -1004 758 -1004Q704 -1004 692 -980Q690 -972 686 -956L795 -923Q799 -930 799 -937ZM1655 -732Q1630 -729 1456 -729Q1344 -538 1256 -335Q1239 -297 1211 -192Q1180 -81 1180 -50Q1180 61 1202 97Q1216 119 1229 141Q1239 155 1268 177Q1277 185 1297 198Q1327 214 1377 214Q1393 214 1439 194Q1501 167 1522 115Q1554 36 1554 -58Q1554 -147 1550 -192Q1548 -218 1534 -304Q1523 -372 1523 -416Q1523 -542 1540 -596Q1567 -681 1655 -732ZM2008 -442Q2008 -448 1999 -482Q1963 -620 1916 -670Q1856 -735 1724 -735Q1699 -735 1650 -700Q1605 -669 1588 -644Q1546 -583 1546 -437Q1546 -380 1561.5 -268.5Q1577 -157 1577 -100Q1577 146 1468 208Q1417 237 1379 237Q1306 237 1247.5 194Q1189 151 1170 81Q1157 33 1157 -52Q1157 -79 1190 -200Q1223 -317 1237 -349Q1351 -598 1430 -729Q1367 -734 1240 -748Q1209 -752 1106 -778Q1024 -799 971 -799Q964 -799 879 -790Q895 -744 918 -650Q923 -619 938 -443Q945 -362 945 -359Q945 -308 931.5 -207Q918 -106 918 -55Q918 5 951 86.5Q984 168 1022 209Q1096 288 1210 333Q1245 347 1340 347Q1471 347 1536.5 306.5Q1602 266 1651 148Q1690 54 1690 -5Q1690 -84 1687 -125Q1675 -185 1653 -305Q1643 -370 1643 -453Q1643 -474 1655.5 -522Q1668 -570 1679 -586Q1687 -598 1739 -637H1815Q1835 -624 1871 -592Q1917 -538 1917 -445Q1917 -273 1891 -156Q1876 -88 1876 -80L1879 122Q1879 129 1891.5 182Q1904 235 1907 242Q1914 257 1952 294Q1990 331 2006 338Q1951 240 1945 221Q1929 177 1929 85Q1929 71 1951 -34Q1979 -166 1990 -281Q2008 -463 2008 -442ZM581 -988V-995Q581 -1059 520 -1059Q498 -1059 475 -1019V-1006Q539 -1002 581 -988ZM818 -719Q818 -732 802 -769L701 -731Q721 -679 763 -679Q770 -679 794 -696Q818 -713 818 -719ZM948 -849L743 -915Q671 -938 599 -961Q514 -986 451 -986Q365 -986 315.5 -973Q266 -960 234 -920.5Q202 -881 202 -830Q202 -736 351 -702Q399 -691 416 -691Q544 -691 690 -745Q819 -797 948 -849ZM360 -1003Q338 -1053 298 -1053H285Q279 -1053 272 -1052Q250 -1030 250 -1011Q250 -995 264 -972Q301 -995 360 -1003ZM594 -672Q594 -679 591 -690Q551 -680 482 -672Q494 -622 537 -622Q594 -622 594 -672ZM199 -903Q190 -905 184 -905Q126 -905 126 -845V-833Q126 -798 169 -798H188V-800Q188 -807 184 -821.5Q180 -836 180 -843Q180 -872 199 -903ZM369 -674Q366 -674 264 -706Q256 -675 256 -671Q256 -634 314 -634Q351 -634 369 -674ZM927 -1442Q927 -1415 899 -1415Q871 -1415 871 -1442Q871 -1470 899 -1470Q927 -1470 927 -1442ZM894 -849Q671 -771 657 -767Q520 -726 411 -726Q242 -726 242 -846Q242 -902 315 -929Q368 -949 436 -949Q535 -949 668 -914Q781 -882 894 -849ZM907 -1441V-1444L900 -1450H898L891 -1444V-1441L897 -1435H901ZM819 -846Q724 -872 629 -899Q519 -926 435 -926Q265 -926 265 -848Q265 -749 414 -749Q514 -749 621 -779Q642 -785 819 -846Z"/>
</svg>