<svg xmlns="http://www.w3.org/2000/svg" viewBox="22.7 -1633.3 522.6 2087.6">
	<path fill="currentColor" d="M468 -1254Q468 -1188 397 -1154Q392 -1152 265 -1113Q195 -1091 195 -1054Q209 -1035 226 -1025Q258 -1015 321 -995Q462 -950 462 -843Q462 -821 435 -787Q411 -757 388 -743Q321 -716 195 -644Q195 -642 194 -637Q194 -607 305 -540Q426 -469 441 -440Q453 -417 453 -381Q453 -320 318 -241Q183 -162 183 -128Q183 -100 244 -75Q341 -34 359 -23Q420 17 420 79Q420 153 343.5 202Q267 251 267 294Q267 315 288 355V367L282 373V374H281Q277 377 270 377Q244 377 226 337Q211 304 211 273Q211 246 235 213Q241 205 304 152Q349 115 349 78Q349 50 252 4Q142 -49 127 -67Q103 -96 103 -116Q103 -150 113 -177Q125 -210 254 -285Q376 -356 376 -384Q376 -420 245.5 -493Q115 -566 115 -622Q115 -687 188 -730Q256 -760 324 -790Q397 -822 397 -862Q397 -879 366 -900Q339 -918 265.5 -939Q192 -960 164 -980Q118 -1013 118 -1076Q118 -1125 183 -1155Q242 -1172 300 -1189Q388 -1214 396 -1241Q400 -1254 400 -1274Q400 -1316 349 -1340Q340 -1344 287 -1359Q234 -1374 227 -1374Q220 -1374 206.5 -1372.5Q193 -1371 186 -1371Q163 -1371 135 -1382Q100 -1395 100 -1414Q100 -1451 159 -1473Q139 -1489 100 -1522V-1541Q115 -1550 125 -1550Q136 -1550 204 -1487Q265 -1556 275 -1556Q297 -1556 297 -1532Q297 -1522 250 -1479Q281 -1457 300 -1437Q330 -1406 351 -1402Q384 -1396 401 -1386Q468 -1348 468 -1254ZM443 -1278Q443 -1293 441 -1300Q430 -1342 388 -1367Q383 -1370 325 -1387Q289 -1397 277 -1430Q245 -1458 231 -1458Q126 -1458 126 -1417Q126 -1394 186 -1394Q195 -1394 212.5 -1395.5Q230 -1397 239 -1397Q244 -1397 249 -1395Q300 -1383 387 -1344Q423 -1316 423 -1277Q423 -1251 418 -1234Q408 -1199 329 -1173Q273 -1157 216 -1142Q144 -1121 144 -1070Q144 -1043 150 -1029Q166 -992 252 -965Q360 -931 375 -921Q420 -891 420 -862Q420 -801 279 -746.5Q138 -692 138 -624Q138 -580 268.5 -505.5Q399 -431 399 -381Q399 -344 273 -271Q142 -194 133 -164Q126 -141 126 -117Q126 -83 201 -42Q254 -20 307 3Q372 36 372 85Q372 128 303 182Q234 236 234 274Q234 324 256 344Q247 320 247 291Q247 238 322 187.5Q397 137 397 73Q397 11 278.5 -35Q160 -81 160 -125Q160 -166 210 -201Q219 -208 295 -249Q430 -322 430 -382Q430 -410 421 -429Q408 -456 302 -516.5Q196 -577 180 -607Q172 -622 172 -646Q172 -667 263 -710Q321 -737 379 -764Q439 -804 439 -846Q439 -917 358 -952Q289 -978 220 -1003Q172 -1030 172 -1051Q172 -1116 307 -1149.5Q442 -1183 442 -1247Q442 -1252 443 -1263Q443 -1273 443 -1278ZM216 -1450Q216 -1442 201 -1427L175 -1433Q175 -1441 181 -1452Q190 -1456 197 -1456Q204 -1456 216 -1450Z"/>
</svg>