<svg xmlns="http://www.w3.org/2000/svg" viewBox="25 -1597 1931.9 2023.9">
	<path fill="currentColor" d="M1882 309L1874 338L1841 352Q1591 172 1591 -135V-134V-133V-134V-135Q1591 -200 1606.5 -328.5Q1622 -457 1622 -522Q1622 -798 1475 -910Q1348 -1006 1063 -1006Q965 -1006 769 -983.5Q573 -961 475 -961Q415 -961 380 -1025Q352 -1077 352 -1143Q352 -1210 381 -1297Q325 -1276 254 -1276Q216 -1276 161 -1303Q100 -1334 100 -1368Q100 -1436 182 -1482Q252 -1522 327 -1522Q502 -1522 526 -1397L483 -1237Q498 -1132 553 -1132Q614 -1132 752 -1155Q926 -1184 958 -1188Q1064 -1200 1224 -1200Q1480 -1200 1643 -1091.5Q1806 -983 1806 -697Q1806 -630 1777.5 -487.5Q1749 -345 1749 -273Q1749 -2 1814 153Q1822 168 1836 198Q1859 247 1882 309ZM1229 -391L1214 -375H463L448 -394Q501 -586 581 -669Q679 -768 863 -768Q1017 -768 1122 -656Q1223 -547 1229 -391ZM1525 84Q1525 145 1485 188.5Q1445 232 1384 232H259Q199 232 154.5 188Q110 144 110 84Q110 22 153 -29Q196 -80 257 -80H1388Q1525 -80 1525 84ZM1855 311Q1855 310 1824 252Q1724 66 1724 -234Q1724 -358 1745 -469Q1781 -660 1781 -697Q1781 -925 1650 -1053Q1599 -1103 1413 -1155Q1331 -1178 1224 -1178Q1018 -1178 897 -1157Q615 -1108 555 -1108Q458 -1108 458 -1237Q458 -1265 479.5 -1317.5Q501 -1370 501 -1397Q501 -1495 327 -1495Q264 -1495 203 -1465Q129 -1428 127 -1372Q140 -1340 180 -1320Q217 -1301 254 -1301Q303 -1301 399 -1327L403 -1313L409 -1311Q379 -1205 379 -1114Q379 -1067 407 -1028Q437 -985 482 -985H491Q548 -985 634 -996Q767 -1013 776 -1014Q940 -1030 1063 -1030Q1064 -1030 1155 -1024Q1419 -1007 1530 -899Q1646 -785 1646 -524Q1646 -457 1631 -324.5Q1616 -192 1616 -125Q1616 4 1677 127Q1740 256 1845 323L1853 321Q1854 317 1855 311ZM1198 -405Q1188 -544 1096 -639Q1000 -738 863 -738Q695 -738 607 -652Q532 -579 482 -405ZM1495 84Q1495 -50 1388 -50H257Q209 -50 174.5 -8Q140 34 140 84Q140 132 175.5 167Q211 202 259 202H1384Q1432 202 1463.5 167.5Q1495 133 1495 84ZM348 -1424Q327 -1403 309 -1393L282 -1419Q292 -1433 317 -1458Q336 -1442 348 -1424Z"/>
</svg>