<svg xmlns="http://www.w3.org/2000/svg" viewBox="0 -2048 2048 2048">
	<path fill="currentColor" d="M1279 364H1184L892 47H100V-38H499Q328 -110 297 -287Q292 -316 292 -320Q292 -351 301 -422.5Q310 -494 310 -531Q310 -521 302 -602Q301 -649 291 -743Q278 -781 257 -859Q244 -917 244 -989Q244 -1040 275.5 -1094Q307 -1148 350 -1177Q351 -1178 417 -1208Q414 -1229 364 -1239Q329 -1244 294 -1248Q285 -1284 285 -1303Q274 -1312 254 -1322Q254 -1346 230 -1371Q229 -1376 229 -1384Q229 -1391 231 -1398Q287 -1448 360 -1505Q369 -1508 390 -1512Q416 -1576 455 -1576Q481 -1576 499 -1558Q505 -1559 520 -1563Q535 -1567 544 -1567Q555 -1567 569.5 -1549Q584 -1531 587 -1519Q603 -1511 635 -1496Q683 -1473 707 -1433Q763 -1341 763 -1241Q763 -1209 751 -1147.5Q739 -1086 739 -1054Q739 -1044 741.5 -1025Q744 -1006 744 -996Q744 -888 657 -721Q547 -512 530 -453Q498 -344 498 -313Q498 -312 505 -231Q553 -136 631 -136Q649 -136 687 -157Q731 -181 742 -254Q743 -266 745 -374Q746 -405 749 -423Q725 -552 725 -555Q725 -691 763 -746Q777 -766 816 -789Q855 -812 878 -812Q933 -812 973 -796Q1021 -777 1058 -706Q1091 -642 1091 -585Q1091 -593 1082 -500Q1080 -470 1074 -409Q1065 -351 1051 -292Q1036 -226 1036 -219Q1036 -159 1046 -131Q1054 -107 1091 -51Q1092 -45 1091 -36L1279 -38ZM479 -1544Q464 -1550 457 -1550Q436 -1550 421 -1519Q461 -1527 479 -1544ZM740 -1238Q740 -1335 688 -1420Q666 -1456 596 -1488Q593 -1477 563 -1447.5Q533 -1418 523 -1418Q510 -1418 510 -1426Q510 -1429 542.5 -1459Q575 -1489 575 -1492Q575 -1503 563.5 -1523.5Q552 -1544 542 -1544Q498 -1544 476 -1510Q452 -1473 443 -1471Q436 -1477 436 -1483Q436 -1489 443 -1501Q417 -1496 391.5 -1490Q366 -1484 343 -1464Q261 -1394 255 -1383L261 -1372Q272 -1386 292 -1401Q300 -1394 300 -1387Q300 -1383 286.5 -1367Q273 -1351 273 -1344Q273 -1331 299 -1321Q299 -1321 328 -1321Q344 -1321 361 -1310Q345 -1293 306 -1294V-1291Q306 -1285 314 -1266Q384 -1260 418 -1245Q425 -1256 472 -1294Q508 -1324 508 -1352Q508 -1357 506 -1366.5Q504 -1376 504 -1381Q504 -1396 524 -1405Q531 -1371 531 -1354Q531 -1311 451 -1249H469Q519 -1249 550 -1324V-1401Q558 -1411 567 -1411L577 -1402V-1327Q577 -1304 544 -1266Q533 -1253 499 -1234V-1041H548Q549 -1088 557 -1182H598Q635 -1182 672 -1156.5Q709 -1131 724 -1096Q740 -1171 740 -1238ZM472 -1132V-1227Q451 -1225 434 -1226Q441 -1190 472 -1132ZM429 -1164L425 -1187Q308 -1144 280 -1046Q306 -1050 337 -1050Q342 -1082 370.5 -1119Q399 -1156 429 -1164ZM1067 -585Q1067 -636 1039 -693Q1008 -757 966 -774Q929 -789 881 -789Q862 -789 829.5 -770Q797 -751 783 -734Q748 -691 748 -557Q748 -553 762 -478Q772 -424 772 -325Q772 -302 763 -261Q756 -227 750 -194Q739 -162 706 -142Q658 -113 633 -113Q475 -113 475 -314Q475 -340 491 -400Q501 -443 528 -527Q551 -582 609 -695Q637 -743 688 -842Q722 -921 722 -990Q722 -1054 694 -1102Q660 -1160 600 -1160Q599 -1160 573 -1159V-1014Q557 -1014 526 -1015Q495 -1016 482 -1016L484 -1017L472 -1022V-1105Q455 -1117 434 -1143Q383 -1118 367 -1074Q363 -1058 348 -1028Q276 -1025 275 -1026Q267 -998 267 -987Q267 -923 277 -871Q292 -829 314 -742Q315 -737 319 -675Q320 -657 327 -602Q333 -556 333 -528Q333 -492 324 -420Q315 -348 315 -312Q315 -290 338 -222Q373 -118 491 -66Q504 -58 533 -47Q549 -43 594 -43Q686 -43 729 -67Q781 -95 816 -177Q842 -239 842 -304Q842 -353 826.5 -449.5Q811 -546 811 -595Q811 -632 832 -677Q857 -729 890 -729H910Q962 -729 990 -683Q1013 -645 1013 -590Q1013 -505 1004 -449Q984 -325 984 -322V-266Q984 -186 993 -151Q1008 -91 1058 -58Q1013 -134 1013 -222Q1013 -232 1028 -297Q1051 -399 1059 -498Q1067 -603 1067 -585ZM1047 -38Q997 -78 981 -111Q958 -158 958 -309Q958 -351 973.5 -434.5Q989 -518 989 -561Q989 -702 911 -702Q835 -702 835 -554Q835 -515 851.5 -438.5Q868 -362 868 -323Q868 -235 834 -158Q795 -67 723 -38ZM1253 338V50H1202V338ZM1175 241V50H1000ZM1175 319V277L968 50H931ZM1253 23V-10H126V23ZM542 -1521Q532 -1518 510 -1508Q506 -1506 457 -1439Q479 -1534 514 -1534Q526 -1534 542 -1521ZM449 -1394Q445 -1392 439 -1392Q431 -1392 423 -1398Q410 -1391 397 -1391Q389 -1391 383 -1397Q383 -1397 374 -1397Q370 -1397 358 -1409Q369 -1419 384 -1446Q392 -1446 409 -1444.5Q426 -1443 435 -1443Q431 -1434 431 -1429Q431 -1428 449 -1394ZM409 -1418V-1421L400 -1423L395 -1415L398 -1414Q402 -1415 409 -1418Z"/>
</svg>