<svg xmlns="http://www.w3.org/2000/svg" viewBox="19.5 -1626.5 2173 2084">
	<path fill="currentColor" d="M2112 -594Q2101 -581 2075 -558Q2037 -534 1850 -499Q1713 -473 1544 -473Q1387 -473 1137 -517Q1117 -468 1097 -419Q1081 -371 1081 -313Q1081 -311 1082 -305Q1100 -314 1133 -314Q1189 -314 1233 -297Q1252 -286 1292 -266Q1300 -268 1324 -276Q1483 -332 1595 -332Q1776 -332 1825 -231Q1848 -184 1848 -135Q1848 -124 1842 -102.5Q1836 -81 1836 -70Q1836 -66 1861 -17Q1893 52 1966 185Q2008 239 2089 351V371Q2077 377 2060 377Q2001 377 1928 288Q1883 234 1816 120Q1760 25 1748 19Q1669 52 1599 52Q1528 52 1436 12Q1405 -7 1339 -34Q1311 -17 1251 12Q1224 22 1146.5 35.5Q1069 49 1041 49Q959 49 899 15Q825 -26 825 -101Q825 -140 858 -201Q852 -215 841 -243Q822 -292 822 -340Q822 -356 826.5 -386.5Q831 -417 831 -432Q807 -401 774 -401Q724 -401 684 -466Q646 -453 622 -441Q623 -431 623 -421Q623 -341 527 -341Q498 -341 483 -365Q472 -389 462 -413H454Q394 -413 394 -413Q370 -351 305 -351Q301 -351 258 -365Q234 -405 234 -422Q234 -430 239.5 -444.5Q245 -459 246 -465L201 -514Q192 -513 186 -513Q100 -513 100 -605Q100 -633 127 -654Q154 -675 183 -675Q185 -675 214 -669Q234 -691 246 -702Q228 -762 228 -758Q228 -809 268 -825Q276 -828 297 -828Q334 -828 354 -805Q372 -779 390 -753Q410 -754 449 -758Q480 -827 514 -827Q571 -827 591 -806.5Q611 -786 610 -732Q637 -722 672 -710Q685 -774 764 -774Q796 -774 816 -740Q826 -723 826 -687Q826 -675 822 -660L852 -648V-794Q852 -803 833 -861Q810 -926 808 -936Q798 -977 798 -1050Q798 -1142 829 -1199Q860 -1256 937 -1310Q837 -1297 844 -1297Q685 -1297 685 -1366Q685 -1454 786 -1505Q868 -1546 966 -1546Q1026 -1546 1088 -1512Q1099 -1506 1152 -1462Q1240 -1389 1278 -1350Q1353 -1274 1372 -1215Q1382 -1183 1382 -1120Q1382 -1110 1379 -1093Q1375 -1073 1374 -1066Q1362 -954 1328 -873Q1310 -828 1235 -699Q1573 -719 1597 -719Q1622 -719 1703 -711Q1736 -709 1801 -704Q1859 -700 1952 -677Q2061 -650 2089 -625Q2099 -616 2112 -594ZM2083 -597Q2031 -644 1874 -672Q1750 -694 1645 -694H1432Q1304 -694 1219 -670Q1184 -610 1147 -540Q1234 -528 1407 -501Q1434 -496 1438 -496H1654Q1727 -496 1882 -527Q2061 -562 2083 -597ZM1825 -135Q1825 -177 1803 -223Q1762 -309 1595 -309Q1523 -309 1414 -281Q1355 -263 1297 -245Q1227 -225 1177 -225Q1120 -225 1094 -241Q1058 -263 1058 -314Q1058 -374 1078 -430Q1089 -466 1116 -535Q1186 -661 1255 -787Q1330 -923 1351 -1064Q1359 -1117 1359 -1122Q1359 -1179 1349 -1211Q1331 -1268 1231 -1366Q1141 -1454 1075 -1493Q1024 -1523 966 -1523Q889 -1523 819 -1497Q732 -1464 711 -1404Q705 -1387 705 -1353Q705 -1341 764 -1330Q814 -1320 837 -1320Q845 -1320 1061 -1350Q1088 -1347 1115 -1345Q1138 -1342 1164 -1315Q1061 -1326 1062 -1326Q1031 -1326 1005 -1320Q968 -1311 918 -1268Q872 -1229 851 -1192Q821 -1140 821 -1078Q821 -963 840 -902Q855 -866 875 -790Q879 -752 879 -663Q879 -658 868 -556L845 -342Q845 -341 845 -335Q845 -258 890 -192Q950 -104 1048 -104Q1054 -104 1067 -101.5Q1080 -99 1086 -99Q1100 -99 1128.5 -103Q1157 -107 1171 -107Q1235 -107 1335 -137Q1474 -178 1498 -183Q1572 -198 1574 -198Q1616 -198 1682 -184Q1727 -175 1758 -150Q1758 -150 1818 -93Q1825 -119 1825 -135ZM2058 351Q2018 299 1943 190Q1903 126 1853 20Q1820 -50 1805 -72Q1775 -118 1729 -144Q1696 -163 1609 -171Q1565 -175 1575 -175Q1575 -175 1473 -156Q1594 -130 1726 -27Q1741 -16 1768 8Q1808 51 1866 154.5Q1924 258 1966 302Q2013 351 2039 351ZM1729 3Q1597 -113 1416 -145L1278 -101Q1468 26 1609 26Q1675 26 1729 3ZM804 -683Q804 -732 765 -754Q705 -754 691 -703L802 -669Q804 -677 804 -683ZM1256 -259Q1197 -291 1136 -291Q1123 -291 1090 -286Q1096 -274 1103 -263Q1169 -247 1176 -248ZM838 -524L833 -522V-518L836 -511ZM583 -736V-774Q583 -778 568 -795Q546 -802 509 -802Q508 -802 502 -801Q481 -788 476 -755ZM825 -467Q825 -474 812 -513L704 -474Q705 -465 720 -448Q735 -431 743 -427.5Q751 -424 767 -424Q785 -424 805 -437Q825 -450 825 -467ZM1317 -49L1247 -94Q1168 -76 1084 -76Q944 -76 872 -178Q848 -141 848 -101Q848 -38 916 -2Q970 26 1040 26Q1091 26 1167 10Q1249 -8 1287 -30Q1297 -36 1317 -49ZM832 -591Q732 -624 528 -672Q505 -673 461 -677.5Q417 -682 422 -682Q367 -682 323 -662Q266 -636 266 -587Q266 -565 289 -536.5Q312 -508 333 -500Q368 -487 421 -487Q523 -487 632 -520Q732 -556 832 -591ZM854 -624Q745 -661 523 -724Q470 -736 455 -736Q355 -736 319 -723Q273 -706 240 -665Q207 -624 207 -577Q207 -510 286 -468Q352 -433 425 -433Q518 -433 638 -473Q741 -510 843 -548L844 -568Q738 -533 633 -499Q510 -464 414 -464Q354 -464 308 -488Q253 -518 248 -572Q243 -579 243 -587Q243 -647 309 -678Q360 -702 428 -702Q545 -702 760 -635Q790 -623 852 -610ZM363 -752Q342 -802 285 -802Q280 -802 275 -801Q251 -783 251 -758Q251 -751 266 -718Q302 -743 363 -752ZM601 -414Q601 -420 598 -436Q562 -426 487 -415Q500 -368 544 -368Q601 -368 601 -414ZM204 -649Q189 -652 185 -652Q126 -652 126 -597V-582Q126 -570 136 -555.5Q146 -541 157 -541H192V-543Q183 -560 183 -579Q183 -605 204 -649ZM370 -417Q333 -423 265 -450Q260 -431 260 -423Q260 -374 307 -374Q360 -374 370 -417ZM887 -1420Q858 -1401 856 -1401Q828 -1401 828 -1430Q828 -1457 854 -1457Q862 -1457 881 -1445Q887 -1429 887 -1420ZM858 -1427L855 -1428V-1427Z"/>
</svg>