<svg xmlns="http://www.w3.org/2000/svg" viewBox="-1.2 -1395.2 2732.4 1516.4">
	<path fill="currentColor" d="M2630 -31Q2630 -17 2612 -1Q2594 15 2580 15Q2569 15 2493 1Q2253 -43 1646 -92Q1646 -90 1645 -87Q1645 -79 1650 -62.5Q1655 -46 1655 -38Q1655 -19 1641.5 -0.5Q1628 18 1609 18Q1602 18 1483 -2Q1454 15 1447 15Q1443 15 1436.5 12Q1430 9 1426 9Q1418 9 1387 20V-1L1391 -8L1371 5Q1358 -8 1358 -27L1372 -34Q1365 -34 1338 -34Q1338 -55 1363 -69H1331L1322 -83L1323 -86Q1303 -86 1259 -83Q1215 -80 1192 -80Q1086 -80 975 -109Q953 -117 909 -127Q904 -115 904 -99Q904 -89 907.5 -68Q911 -47 911 -37Q911 -21 899.5 -3Q888 15 873 15Q856 15 823.5 9.5Q791 4 774 4Q755 4 716 9.5Q677 15 658 15Q650 15 643 11L637 16L603 11V-7Q594 -8 586 -8Q582 -8 549 -1Q550 -14 552 -39L571 -42Q560 -43 539 -45Q552 -71 564 -80L546 -83Q555 -112 574 -112Q576 -112 580 -110.5Q584 -109 586 -109Q592 -109 616 -123L742 -104Q737 -132 727 -187Q707 -193 666 -206Q581 -237 518 -276Q476 -309 388 -367Q348 -389 268 -418Q184 -450 148 -468Q135 -474 114 -492Q100 -510 100 -531Q100 -541 118 -565Q116 -575 116 -581Q116 -607 148 -628Q176 -647 204 -647Q204 -647 281 -620Q364 -591 450 -591Q461 -591 570 -610Q568 -627 557 -657Q534 -693 509 -693Q494 -693 463.5 -689Q433 -685 418 -685Q303 -685 225 -751Q219 -756 182 -811Q181 -816 181 -826Q181 -852 208 -852Q223 -852 253 -828Q289 -798 297 -794Q339 -774 401 -774Q421 -774 458.5 -784Q496 -794 516 -794Q521 -794 530 -790Q539 -786 546 -786Q525 -813 525 -848Q525 -879 567 -973Q609 -1067 609 -1114Q609 -1159 573 -1159Q558 -1159 527.5 -1154.5Q497 -1150 482 -1150Q422 -1150 383 -1178Q376 -1187 360 -1203Q349 -1212 349 -1221Q349 -1242 384 -1264Q414 -1283 439 -1288Q469 -1294 509 -1294Q658 -1294 702 -1200Q706 -1192 713 -1150L632 -857Q652 -794 693 -777Q719 -797 768 -797Q791 -797 836.5 -787Q882 -777 905 -777Q950 -777 982 -791Q988 -794 1016 -814Q1044 -834 1049 -834H1082Q1086 -807 1086 -809Q1086 -804 1062 -767Q1038 -730 1031 -723.5Q1024 -717 985.5 -701Q947 -685 936 -685Q916 -685 876.5 -692Q837 -699 817 -699H742Q739 -696 718 -681Q675 -651 675 -586Q675 -551 779 -512Q815 -495 888 -468Q1013 -434 1106 -429Q1094 -430 1349 -430Q1333 -430 1416 -422Q1551 -409 1719 -341Q1864 -280 2009 -219Q2234 -133 2544 -95Q2630 -84 2630 -31ZM2607 -34Q2607 -59 2577 -68Q2528 -83 2446 -93Q2338 -106 2314 -110Q2151 -140 2004 -197Q1861 -258 1719 -318Q1551 -386 1421 -399Q1344 -407 1352 -407Q1086 -404 948 -430Q892 -441 728 -508Q706 -517 658 -558Q625 -586 568 -586Q551 -586 519.5 -577.5Q488 -569 471 -569H442Q376 -569 347 -576Q335 -579 269 -603Q210 -624 201 -624Q185 -624 162 -610.5Q139 -597 139 -583Q139 -574 142 -562L149 -563Q156 -551 171 -527Q185 -534 194 -534Q202 -534 220 -509Q231 -515 242 -514Q245 -508 251 -496Q262 -502 270 -502Q283 -502 289 -478Q302 -485 309 -485Q321 -485 331 -470Q338 -473 346 -473Q357 -473 367 -456Q375 -459 392 -462Q399 -451 404 -438Q414 -443 427 -452Q428 -451 452 -415Q492 -402 532 -389Q593 -368 592 -350V-346H576Q529 -357 444 -394Q435 -400 422 -422Q411 -414 399 -409Q387 -421 380 -436Q371 -430 363 -430Q353 -430 342 -448Q337 -445 330 -445Q319 -445 308 -462Q302 -461 285 -450Q269 -456 264 -476L242 -466Q241 -468 229 -488Q224 -485 217 -485Q209 -485 191 -510Q177 -505 165 -497Q153 -513 144 -531Q136 -524 126 -521L123 -527Q127 -500 181 -474Q253 -450 392 -390Q439 -356 537 -291Q559 -278 634 -246Q713 -212 730 -210V-208Q736 -245 738 -250Q744 -269 763 -285Q763 -270 756.5 -239.5Q750 -209 750 -193Q750 -178 757 -147.5Q764 -117 764 -102Q764 -89 760 -79L619 -100L602 -94Q618 -88 639 -76L630 -67H629L623 -60Q652 -56 651 -37Q624 -32 598 -35L599 -31Q603 -31 614 -32Q624 -32 630 -32Q677 -32 675 -14L671 -10Q771 -19 779 -19Q797 -19 827 -14Q861 -8 875 -7V-8Q890 -12 890 -41Q890 -52 885.5 -72Q881 -92 881 -103Q881 -122 899 -183Q917 -248 926 -255.5Q935 -263 947 -262V-245Q947 -252 914 -148Q1079 -103 1192 -103Q1301 -103 1349 -112Q1407 -123 1390 -123Q1408 -123 1437 -119Q1472 -114 1483 -113Q1468 -178 1468 -181Q1468 -194 1494 -272L1509 -255Q1502 -230 1491 -180Q1508 -101 1508 -102Q1508 -92 1499 -85Q1410 -100 1391 -100Q1386 -100 1376 -96V-91Q1379 -92 1384 -92Q1403 -92 1415 -78Q1407 -71 1389 -58Q1397 -59 1403 -59Q1421 -59 1440 -52Q1426 -40 1409 -32Q1433 -36 1437 -36Q1450 -36 1449 -28L1448 -30L1449 -22L1440 -9L1445 -7Q1452 -8 1481 -25Q1603 -4 1606 -4Q1632 -4 1632 -38Q1632 -47 1628.5 -64.5Q1625 -82 1625 -91Q1625 -110 1639 -169.5Q1653 -229 1662 -235.5Q1671 -242 1678 -241H1682V-225Q1682 -217 1674 -197Q1663 -173 1662 -168Q1659 -150 1652 -114Q2020 -83 2072 -78Q2310 -54 2489 -22Q2573 -7 2578 -7Q2607 -7 2607 -34ZM1063 -805V-809H1049Q1047 -809 1022 -791.5Q997 -774 992 -772Q952 -754 905 -754Q880 -754 831 -764Q782 -774 757 -774Q737 -774 726 -771Q666 -755 652 -710Q646 -690 646 -610Q641 -602 633 -601L652 -593Q652 -650 694 -693Q725 -725 745 -725H812Q808 -725 934 -707Q999 -724 1017 -741Q1063 -784 1063 -805ZM687 -1157Q687 -1269 497 -1269Q379 -1269 374 -1225Q414 -1222 420 -1199Q408 -1198 392 -1199Q453 -1173 464 -1173Q482 -1173 519 -1177.5Q556 -1182 574 -1182Q636 -1182 636 -1128Q636 -1085 611 -1021Q590 -969 569 -917Q548 -853 548 -846Q548 -813 583 -771Q622 -723 628 -699Q640 -752 668 -765Q620 -807 609 -855Q687 -1151 687 -1157ZM628 -602L621 -609Q611 -667 605 -688Q593 -730 568 -759Q550 -763 513 -771Q404 -751 401 -751Q396 -751 369 -755Q276 -769 221 -826H204V-818Q204 -798 239 -768Q310 -707 418 -707Q434 -707 465.5 -711.5Q497 -716 513 -716Q548 -716 575 -673Q583 -660 593 -607Q595 -608 599 -608Q611 -608 628 -602ZM513 -1222Q497 -1217 490 -1217Q480 -1217 470 -1228V-1256H483Q498 -1256 513 -1251ZM619 -464Q599 -468 588 -481Q582 -476 574 -476Q573 -476 543 -488Q543 -499 538 -508Q524 -504 495 -497Q538 -540 555 -540Q582 -540 598 -514Q598 -513 619 -464ZM262 -562Q230 -566 197 -578Q183 -564 159 -556Q181 -600 195 -600Q202 -600 262 -562ZM578 -501Q569 -517 562 -517H559Q559 -499 574 -499Z"/>
</svg>