<svg xmlns="http://www.w3.org/2000/svg" viewBox="0 -2048 2048 2048">
	<path fill="currentColor" d="M1936 -551Q1936 -484 1906 -384Q1818 -90 1556 56Q1328 183 998 183Q511 183 267 -132Q100 -347 100 -581Q100 -1001 383 -1219Q638 -1415 1070 -1415Q1121 -1415 1261 -1384Q1391 -1355 1451 -1333Q1690 -1246 1818 -1023Q1936 -819 1936 -551ZM1910 -551Q1910 -812 1797 -1009Q1674 -1224 1442 -1309Q1387 -1329 1256 -1358Q1118 -1389 1070 -1389Q649 -1389 402 -1200Q126 -989 126 -581Q126 -357 288 -148Q525 157 998 157Q1319 157 1541 35Q1795 -106 1881 -391Q1910 -488 1910 -551ZM1732 -586Q1732 -579 1720 -537Q1683 -405 1646 -334Q1554 -154 1380 -79Q1237 -17 1010 -17Q619 -17 437 -258Q304 -434 304 -600Q304 -862 497 -1043Q686 -1220 949 -1220Q1256 -1220 1428 -1130Q1641 -1018 1709 -747Q1732 -655 1732 -586ZM1706 -586Q1706 -653 1684 -741Q1619 -1002 1412 -1109Q1247 -1194 949 -1194Q696 -1194 515 -1024Q330 -851 330 -600Q330 -443 458 -273Q631 -43 1010 -43Q1319 -43 1467 -159Q1610 -270 1703 -569Q1706 -579 1706 -586ZM1410 -370H524Q599 -455 715 -511Q660 -514 549 -520Q640 -615 748 -663L619 -674Q707 -755 874 -813Q825 -818 744 -823Q817 -873 930 -913Q1051 -957 1131 -957H1410ZM1384 -396V-931L1128 -930Q1071 -930 974 -901Q884 -874 827 -843Q878 -839 993 -827Q859 -781 835 -771Q746 -736 686 -694L850 -680Q753 -637 725 -622Q663 -589 611 -543Q683 -540 809 -527Q718 -483 693 -470Q628 -434 586 -396Z"/>
</svg>