<svg xmlns="http://www.w3.org/2000/svg" viewBox="0 0 556 1000">
  <g transform="scale(1,-1) translate(0,-1000)">
    <path d="M280 110Q252 106 240 106Q185 106 136 140Q134 128 134 121Q134 76 187 76Q229 76 280 110ZM246 160Q215 160 184.5 188.0Q154 216 154 278Q154 315 165.5 340.5Q177 366 192.5 378.0Q208 390 228.0 411.0Q248 432 259 456H67Q69 438 87.0 403.5Q105 369 105 331Q105 313 101.0 296.0Q97 279 97 262Q97 229 108 212Q130 178 167.5 157.5Q205 137 241 137Q257 137 323.0 149.5Q389 162 400 162Q431 162 466 132V141Q466 172 447 181Q424 193 397 193Q371 193 314.5 176.5Q258 160 246 160ZM108 163Q84 187 75.5 208.0Q67 229 67 262Q67 280 70.5 297.5Q74 315 74 332Q74 366 55.0 401.0Q36 436 36 465V466Q35 468 35 472Q35 486 48 488Q55 505 62.5 523.0Q70 541 73.0 548.0Q76 555 79.0 563.5Q82 572 82.5 576.5Q83 581 83 586Q83 594 82 600Q80 617 71.0 622.5Q62 628 46.5 633.0Q31 638 20 649Q0 669 0 699Q0 732 21.5 762.0Q43 792 80 808Q93 873 116 971Q123 998 152 998H160Q181 995 189 978Q200 987 214 987H222Q255 980 255 951Q255 947 252.5 926.0Q250 905 247 885L244 865Q233 793 230 775Q230 774 230.5 774.0Q231 774 231 773Q253 715 262.0 662.5Q271 610 283 488Q298 488 298 472Q298 468 296 464Q296 462 294 458Q283 430 262.5 407.5Q242 385 226.0 373.0Q210 361 197.5 337.0Q185 313 185 278Q185 247 196.0 225.0Q207 203 217.0 195.5Q227 188 232 188Q246 188 311.0 207.0Q376 226 392 226H398Q414 224 423.0 223.0Q432 222 448.5 216.0Q465 210 474.5 202.0Q484 194 491.5 178.0Q499 162 499 141Q499 121 493 106Q515 81 530.5 56.0Q546 31 551.0 19.5Q556 8 556 6Q556 0 546 0Q539 0 532 5Q524 12 517.5 18.5Q511 25 507.0 29.0Q503 33 498.5 39.5Q494 46 492.0 48.5Q490 51 484.0 60.5Q478 70 475 74Q455 49 413 49Q361 49 319 95Q302 76 286 68Q233 43 186 43Q170 43 154.0 46.5Q138 50 120.0 69.0Q102 88 102 121Q102 140 108 163ZM340 120Q341 119 343.0 116.5Q345 114 346 113Q377 82 413 82Q426 82 436.0 86.5Q446 91 450 96L454 100Q432 120 402 123Q400 123 394.0 123.5Q388 124 385 124Q370 124 340 120ZM234 644Q225 711 200 767Q190 791 140 791Q104 791 66 764Q92 766 99 766Q141 766 173 752Q189 744 189 725Q189 671 177 641L180 488H252Q249 536 234 644ZM54 707Q54 714 61.0 718.5Q68 723 76 723Q97 723 97 707Q97 692 76 692Q54 692 54 707ZM77 488H150L146 643V648Q146 655 152.0 681.5Q158 708 158 724Q158 725 152.0 727.5Q146 730 131.5 732.5Q117 735 99 735Q93 735 85.0 734.5Q77 734 70.0 734.0Q63 734 57.0 733.5Q51 733 48 732H44Q40 732 38 733Q30 712 30 698Q30 682 45 669Q49 666 70.5 658.0Q92 650 101 637Q113 616 113 600Q113 599 106.0 576.0Q99 553 90.0 525.5Q81 498 77 488ZM113 818Q133 822 145 822Q147 837 151.0 869.5Q155 902 158.5 928.0Q162 954 163 961Q164 965 160.5 966.5Q157 968 155 968Q146 968 145 964Q138 934 128.5 889.0Q119 844 113 818ZM177 820Q192 817 204 808Q208 834 216.0 888.5Q224 943 225 950Q226 954 222.5 955.5Q219 957 217 957Q208 957 207 953Q199 921 190.5 880.5Q182 840 177 820Z" fill="currentColor"/>
  </g>
</svg>