<svg xmlns="http://www.w3.org/2000/svg" viewBox="0 -2048 2048 2048">
	<path fill="currentColor" d="M1991 -274Q1991 -170 1960 -98Q1918 -1 1829 -1Q1691 -1 1691 -203Q1691 -208 1708 -316.5Q1725 -425 1725 -430Q1725 -484 1698 -548Q1693 -560 1666 -560Q1604 -560 1604 -454Q1604 -422 1611.5 -340Q1619 -258 1619 -215Q1619 3 1445 3Q1312 3 1312 -206Q1312 -211 1326.5 -326.5Q1341 -442 1341 -447Q1341 -560 1283 -560Q1225 -560 1225 -453L1246 -241Q1246 -145 1223 -94Q1207 -58 1158.5 -27.5Q1110 3 1077 3Q1024 3 976 -36Q940 -66 933 -193L966 -430Q961 -469 956 -507Q946 -560 908 -560Q848 -560 848 -460Q848 -443 850 -423Q851 -413 852 -403Q854 -382 857 -333Q863 -191 857 -145Q848 -74 796 -33Q750 3 690 3Q554 3 554 -206Q554 -211 568.5 -326.5Q583 -442 583 -447Q583 -560 523 -560Q467 -560 467 -462Q467 -457 477 -376Q487 -295 487 -235Q487 -166 482 -145Q466 -78 409 -35Q359 3 306 3Q267 3 223 -26Q171 -60 164 -111Q158 -152 169 -208Q172 -222 151 -361Q142 -421 142 -428Q142 -460 179 -515Q182 -514 138 -514Q100 -514 100 -547Q100 -578 148 -603Q185 -622 206 -622Q258 -622 316 -559Q371 -498 371 -453Q371 -401 317 -289.5Q263 -178 263 -143Q263 -68 313 -68Q421 -68 421 -237Q421 -242 408.5 -340Q396 -438 396 -443Q396 -501 421 -552Q454 -622 519 -622Q530 -622 569 -606Q646 -575 646 -468L617 -176Q617 -64 696 -64Q800 -64 800 -216L779 -443Q779 -505 808 -556Q844 -622 910 -622Q971 -622 1004 -565Q1029 -521 1029 -470L1000 -147Q1000 -64 1069 -64Q1123 -64 1155 -128Q1182 -180 1179 -232L1154 -430Q1169 -517 1180 -546Q1211 -622 1277 -622Q1282 -622 1327 -606Q1404 -578 1404 -460L1375 -170Q1375 -90 1411 -69Q1420 -64 1452 -64Q1558 -64 1558 -216L1537 -441Q1537 -500 1564 -552Q1600 -622 1668 -622Q1729 -622 1762 -567Q1787 -524 1787 -470L1758 -143Q1758 -56 1833 -56Q1896 -56 1924 -153Q1941 -212 1941 -274Q1941 -373 1884 -490Q1832 -596 1780 -633Q1707 -685 1551 -708Q1455 -722 1373 -722Q1368 -722 1357 -720Q1346 -718 1339 -718L1142 -744V-759L1431 -772Q1825 -772 1946 -487Q1970 -430 1977 -391Q1991 -309 1991 -274ZM1970 -268Q1970 -368 1939 -458Q1927 -486 1905 -537Q1855 -658 1687 -714Q1566 -755 1418 -755Q1373 -755 1275 -745Q1357 -743 1439 -740Q1540 -735 1634 -711Q1696 -695 1708 -691Q1754 -677 1780 -658Q1861 -599 1914 -479Q1962 -370 1962 -272Q1962 -204 1937 -136Q1900 -39 1831 -39Q1737 -39 1737 -156L1766 -474Q1766 -524 1743 -560Q1716 -601 1668 -601Q1558 -601 1558 -443L1579 -224Q1579 -43 1454 -43Q1354 -43 1354 -172L1387 -472Q1387 -513 1361 -553Q1329 -601 1277 -601Q1254 -601 1225 -580Q1196 -559 1192 -537Q1175 -437 1175 -428Q1175 -432 1192 -311Q1196 -282 1196 -251Q1196 -159 1169 -104Q1157 -79 1125.5 -61Q1094 -43 1069 -43Q979 -43 979 -164L1008 -472Q1008 -601 910 -601Q856 -601 823 -544Q796 -498 796 -449L821 -224Q821 -43 696 -43Q596 -43 596 -166L629 -474Q629 -521 600 -558Q567 -601 517 -601Q473 -601 447 -555Q425 -517 423 -466Q423 -460 420 -444.5Q417 -429 417 -424Q417 -420 427.5 -334Q438 -248 438 -241Q438 -51 313 -51Q246 -51 246 -135Q246 -186 298 -297Q350 -408 350 -455Q350 -488 344 -496Q266 -601 211 -601Q200 -601 167 -590Q184 -590 188 -575Q184 -569 176 -559H153Q152 -564 154 -584Q121 -577 121 -549Q121 -540 126 -535Q156 -537 203 -543Q244 -547 248 -547Q266 -547 283 -536Q282 -531 277 -522Q261 -526 242 -526Q212 -526 187 -493Q162 -460 163 -426L192 -233Q178 -124 189 -98Q222 -18 306 -18Q345 -18 388 -43Q439 -73 453 -119Q471 -177 471 -245L446 -476Q446 -508 463 -540Q484 -580 519 -580Q604 -580 604 -447Q604 -442 589.5 -322Q575 -202 575 -197Q575 -22 692 -22Q846 -22 846 -228L829 -462Q829 -580 904 -580Q983 -580 983 -430L954 -193Q954 -18 1075 -18Q1102 -18 1149 -46.5Q1196 -75 1206 -103Q1229 -167 1229 -239L1208 -460Q1208 -580 1283 -580Q1362 -580 1362 -449Q1362 -444 1347.5 -322Q1333 -200 1333 -195Q1333 -22 1450 -22Q1604 -22 1604 -226L1587 -462Q1587 -580 1662 -580Q1741 -580 1741 -430Q1741 -425 1726.5 -316.5Q1712 -208 1712 -203Q1712 -22 1827 -22Q1970 -22 1970 -268Z"/>
</svg>