<svg xmlns="http://www.w3.org/2000/svg" viewBox="0 -2048 2048 2048">
	<path fill="currentColor" d="M2691 -320Q2672 -297 2620 -297Q2506 -297 2506 -456Q2506 -517 2523 -618Q2532 -672 2532 -679Q2532 -776 2482 -776Q2435 -776 2435 -693Q2435 -654 2442.5 -577Q2450 -500 2450 -461Q2450 -294 2297 -294Q2173 -294 2173 -415Q2173 -464 2184 -560Q2195 -656 2195 -705Q2195 -776 2146 -776Q2101 -776 2101 -703Q2101 -655 2112 -545Q2119 -482 2119 -478Q2119 -490 2114 -457Q2089 -291 1960 -291Q1909 -291 1869 -332Q1840 -362 1840 -444Q1840 -514 1856 -614Q1866 -676 1866 -685Q1866 -776 1817 -776Q1768 -776 1768 -703Q1768 -663 1777 -584Q1786 -505 1786 -465Q1786 -398 1750 -349Q1709 -294 1645 -294Q1578 -294 1550 -314Q1504 -347 1504 -480Q1504 -506 1515.5 -556.5Q1527 -607 1527 -633V-702Q1527 -776 1483 -776Q1432 -776 1432 -694Q1432 -653 1438.5 -572Q1445 -491 1445 -450Q1445 -412 1440 -394Q1430 -358 1391 -326Q1352 -294 1315 -294Q1225 -294 1195 -336Q1170 -370 1170 -459Q1170 -521 1187 -620Q1196 -673 1196 -679Q1196 -776 1144 -776Q1099 -776 1099 -683Q1099 -654 1107.5 -597.5Q1116 -541 1116 -512Q1116 -445 1101 -392Q1090 -354 1043.5 -322.5Q997 -291 957 -291Q899 -291 866 -332Q837 -368 837 -449Q837 -526 853 -618Q863 -676 863 -685Q863 -776 815 -776Q769 -776 769 -679Q769 -610 772 -562Q773 -550 778 -519Q783 -492 783 -476Q783 -397 746 -348Q705 -294 628 -294Q609 -294 569 -300Q538 -305 519 -352Q504 -390 504 -428Q504 -475 514.5 -567.5Q525 -660 525 -708Q525 -751 504.5 -763.5Q484 -776 477 -776Q430 -776 430 -707Q430 -669 440 -591.5Q450 -514 450 -477Q450 -401 407 -348Q360 -291 286 -291Q216 -291 174 -348Q158 -369 158 -420Q158 -429 160.5 -448Q163 -467 163 -476Q163 -525 149 -612Q140 -668 140 -673Q140 -711 170 -740Q143 -736 141 -736Q135 -736 125.5 -739Q116 -742 112 -743Q100 -764 100 -771Q100 -786 122 -806Q144 -826 159 -830.5Q174 -835 198 -835Q264 -835 330 -747Q345 -727 345 -682Q345 -621 320 -585Q313 -577 302 -559Q254 -462 254 -402Q254 -374 261 -367Q268 -360 295 -360Q351 -360 366.5 -406Q382 -452 382 -471Q382 -476 375 -538Q364 -645 364 -689Q364 -743 391 -786Q422 -835 473 -835Q530 -835 564 -791Q595 -752 595 -693Q595 -651 582 -565Q569 -479 569 -435Q569 -357 632 -357Q670 -357 686 -372Q698 -384 707 -424Q718 -472 718 -472Q718 -474 712 -521Q698 -631 698 -661Q698 -835 810 -835Q832 -835 857 -828Q882 -821 907 -776Q929 -734 929 -706Q929 -661 914.5 -569.5Q900 -478 900 -434Q900 -413 914 -387Q930 -357 948 -357H960Q1048 -357 1048 -461Q1048 -495 1039.5 -562Q1031 -629 1031 -662Q1031 -709 1044 -758Q1052 -788 1081.5 -811.5Q1111 -835 1141 -835Q1185 -835 1208 -822Q1233 -806 1246 -767Q1262 -717 1262 -680Q1262 -675 1251 -615Q1233 -516 1233 -438Q1233 -354 1282 -354Q1319 -354 1336 -360Q1382 -376 1382 -467Q1382 -500 1373.5 -564.5Q1365 -629 1365 -662Q1365 -727 1388 -774Q1417 -835 1475 -835Q1592 -835 1592 -681Q1592 -676 1583 -600L1564 -432Q1562 -408 1576 -383Q1592 -354 1615 -354Q1676 -354 1693 -375Q1703 -388 1715 -452Q1718 -468 1718 -468L1701 -658Q1699 -686 1713 -757Q1719 -789 1749.5 -812Q1780 -835 1813 -835Q1842 -835 1863 -828Q1888 -819 1911 -773Q1931 -731 1931 -701Q1931 -696 1920 -635Q1905 -551 1905 -452Q1905 -357 1964 -357Q2013 -357 2036 -409Q2051 -442 2051 -469Q2051 -474 2044 -537Q2033 -645 2033 -691Q2033 -747 2061 -788Q2092 -835 2146 -835Q2229 -835 2265 -727Q2267 -720 2267 -706Q2267 -667 2250 -570.5Q2233 -474 2233 -435Q2233 -412 2247 -385Q2263 -354 2284 -354Q2329 -354 2343 -362Q2384 -385 2384 -472Q2384 -504 2375.5 -566Q2367 -628 2367 -660Q2367 -835 2479 -835Q2595 -835 2595 -691Q2595 -649 2580.5 -561Q2566 -473 2566 -431Q2566 -374 2597 -352Q2601 -349 2629 -349Q2640 -349 2660.5 -344Q2681 -339 2691 -339ZM2646 -322Q2618 -324 2579 -337Q2544 -368 2544 -431Q2544 -474 2558.5 -564.5Q2573 -655 2573 -699Q2573 -740 2554 -773Q2532 -813 2494 -813Q2470 -813 2448 -806Q2390 -788 2390 -662Q2390 -629 2398.5 -565Q2407 -501 2407 -468Q2407 -462 2400 -434Q2386 -378 2373 -360Q2352 -331 2303 -331Q2271 -331 2255.5 -337.5Q2240 -344 2224.5 -381Q2209 -418 2210 -436V-440L2242 -698Q2243 -706 2243 -716Q2243 -747 2217 -780Q2191 -813 2160 -813Q2056 -813 2056 -696Q2056 -645 2066 -540Q2073 -470 2073 -467Q2073 -471 2066 -439Q2043 -331 1973 -331Q1934 -331 1907.5 -359Q1881 -387 1881 -426Q1881 -491 1886 -565Q1887 -585 1897 -632Q1906 -674 1906 -699Q1906 -739 1887 -773Q1864 -813 1827 -813Q1755 -813 1738 -760Q1723 -713 1723 -662Q1723 -629 1731.5 -562.5Q1740 -496 1740 -463Q1740 -331 1636 -331Q1606 -331 1582 -341Q1569 -346 1554 -384Q1541 -419 1541 -436Q1541 -476 1556 -566Q1571 -656 1571 -697Q1571 -738 1551 -772Q1528 -813 1490 -813Q1387 -813 1387 -663Q1387 -677 1397 -577Q1401 -537 1401 -474Q1401 -331 1300 -331Q1268 -331 1251 -338Q1234 -345 1222 -382Q1211 -414 1211 -437Q1211 -511 1229 -614Q1239 -671 1239 -682Q1239 -727 1219 -774Q1202 -813 1155 -813Q1054 -813 1054 -659Q1054 -625 1062.5 -557Q1071 -489 1071 -455Q1071 -407 1037.5 -369Q1004 -331 957 -331Q919 -331 898 -368Q879 -398 879 -439Q879 -483 891 -572Q903 -661 903 -706Q903 -741 882 -775Q859 -813 825 -813Q749 -813 733 -754Q721 -710 721 -665Q721 -633 731 -566.5Q741 -500 741 -467Q741 -412 713 -366Q692 -331 634 -331Q577 -331 559 -373Q547 -399 547 -464Q547 -536 557 -604Q570 -693 570 -699Q570 -810 472 -810Q387 -810 387 -690Q387 -642 398 -531Q404 -472 404 -468Q404 -416 376 -377Q345 -334 295 -334Q228 -334 228 -407Q228 -456 278 -561Q294 -589 309.5 -618.5Q325 -648 325 -684Q325 -707 313 -733Q305 -749 266 -781Q227 -813 211 -813Q180 -813 157 -804L182 -799V-781L172 -770Q160 -770 152 -778V-802Q126 -789 126 -766L144 -758Q238 -771 242 -771Q262 -771 271 -747Q271 -747 230 -747Q203 -747 182.5 -723.5Q162 -700 162 -672Q162 -639 173.5 -574Q185 -509 185 -476Q185 -467 182.5 -448Q180 -429 180 -420Q180 -314 288 -314Q354 -314 393 -364Q428 -410 428 -478Q428 -515 418 -594Q408 -673 408 -711Q408 -746 430 -772Q452 -798 486 -798Q505 -798 527.5 -776Q550 -754 550 -735V-630Q550 -605 538.5 -551Q527 -497 527 -466Q527 -372 560 -331Q571 -318 622 -319H651Q705 -320 736 -373Q761 -417 761 -475Q761 -492 755.5 -525Q750 -558 749 -573Q746 -654 746 -700Q746 -753 789 -798Q800 -801 813 -801Q886 -801 886 -679Q886 -666 871 -571Q860 -501 860 -438Q860 -378 882.5 -346Q905 -314 957 -314Q996 -314 1034 -341Q1072 -368 1082 -404Q1091 -436 1091 -511Q1091 -544 1082.5 -609Q1074 -674 1074 -707Q1074 -738 1122 -797Q1138 -799 1152 -799Q1157 -799 1162 -797Q1217 -773 1217 -705Q1217 -660 1205 -571.5Q1193 -483 1193 -438Q1193 -318 1285 -318Q1358 -318 1386 -349Q1421 -387 1421 -413V-557Q1421 -579 1414 -622Q1407 -665 1407 -687Q1407 -727 1424 -759Q1444 -798 1481 -798Q1552 -798 1552 -660Q1552 -635 1543 -595Q1532 -547 1530 -530Q1526 -494 1526 -429Q1526 -396 1544 -359Q1559 -328 1593 -321Q1603 -319 1659 -319Q1708 -319 1738 -370Q1764 -414 1764 -466Q1764 -506 1754.5 -585Q1745 -664 1745 -704Q1745 -730 1762 -762Q1781 -799 1805 -799Q1888 -799 1888 -679Q1888 -674 1878 -615Q1862 -521 1862 -449Q1862 -391 1883 -350Q1890 -337 1917 -325.5Q1944 -314 1961 -314Q1998 -314 2034.5 -340.5Q2071 -367 2083.5 -401Q2096 -435 2096 -477Q2096 -514 2086 -588.5Q2076 -663 2076 -700Q2076 -738 2096 -766Q2118 -798 2154 -798Q2170 -798 2194.5 -774.5Q2219 -751 2219 -735V-625Q2219 -607 2210 -576Q2200 -541 2199 -527Q2196 -496 2196 -434Q2196 -318 2283 -318Q2290 -318 2303 -319Q2316 -319 2322 -319Q2375 -319 2405 -374Q2430 -419 2430 -476Q2430 -513 2420 -587.5Q2410 -662 2410 -697Q2410 -750 2458 -798Q2469 -801 2482 -801Q2555 -801 2555 -677Q2555 -673 2546 -618Q2529 -513 2529 -435Q2529 -320 2620 -320Q2637 -320 2646 -322Z"/>
</svg>