<svg xmlns="http://www.w3.org/2000/svg" viewBox="0 -2048 2048 2048">
	<path fill="#000000" d="M2304 -62Q2304 -37 2286 -10H1319L920 -39Q881 -39 784 -17Q753 -10 621 -10Q344 -10 344 -77Q344 -118 375 -130Q416 -146 495 -149Q601 -154 636 -160Q636 -166 619 -177Q471 -248 347 -248Q341 -248 278 -245.5Q215 -243 205 -243Q155 -243 143 -244Q133 -250 119 -262Q100 -338 100 -368Q100 -417 173 -429Q188 -432 286 -435Q296 -435 300 -436Q351 -449 455 -480V-495Q455 -515 438.5 -539Q422 -563 403 -563Q397 -563 366 -557Q335 -551 327 -551Q273 -551 202 -583Q117 -622 117 -673Q117 -688 137 -708Q177 -685 216 -661Q261 -638 304 -638Q311 -638 362 -647Q413 -656 420 -656Q486 -656 511 -592Q561 -661 618 -661Q625 -661 684 -649.5Q743 -638 749 -638Q756 -638 810.5 -664Q865 -690 872 -690H908Q908 -688 911.5 -683Q915 -678 915 -670Q915 -633 862 -591Q813 -551 778 -551Q771 -551 714 -559.5Q657 -568 650 -568Q603 -568 583.5 -550Q564 -532 553 -485Q630 -461 848 -436Q1005 -418 1115 -413Q1270 -406 1492 -316Q1764 -205 1866 -182Q2066 -137 2304 -62ZM2269 -39V-55Q2116 -90 1962 -124Q1781 -167 1663 -215Q1410 -319 1297 -357Q1226 -381 941 -401Q913 -403 847 -410Q789 -417 783 -417H764Q735 -318 677 -126H511Q483 -126 435.5 -113.5Q388 -101 374 -90V-70Q423 -39 586 -39Q593 -39 779.5 -50.5Q966 -62 973 -62L1360 -39ZM879 -661Q790 -615 743 -615Q736 -615 678.5 -623.5Q621 -632 615 -632Q577 -632 551 -598.5Q525 -565 525 -531Q525 -513 534 -504Q551 -597 647 -597Q654 -597 712.5 -588.5Q771 -580 778 -580Q839 -580 879 -661ZM501 -489Q494 -526 486 -563Q467 -632 432 -632Q425 -632 369.5 -620.5Q314 -609 307 -609Q246 -609 153 -666Q199 -580 324 -580Q332 -580 362 -583Q392 -586 397 -586Q434 -586 460 -557.5Q486 -529 486 -481Q491 -486 501 -489ZM734 -421L507 -464Q334 -400 167 -403Q156 -403 139.5 -389Q123 -375 123 -365Q123 -346 151 -318Q151 -323 158 -332Q158 -339 141 -356Q170 -382 170 -382Q171 -382 216 -367Q210 -359 210 -353Q210 -347 222 -337Q234 -327 236 -318Q259 -341 263 -341Q270 -341 271.5 -335.5Q273 -330 280 -330Q287 -330 292 -335.5Q297 -341 304 -341Q312 -341 317.5 -335.5Q323 -330 325 -330Q331 -336 341 -343.5Q351 -351 353 -353L371 -336Q382 -347 391 -347Q404 -347 404 -336L428 -359Q446 -322 483 -317Q540 -309 542 -308L538 -283H517Q510 -283 483.5 -289.5Q457 -296 447 -296Q427 -311 421 -311Q421 -302 400 -295L388 -307Q376 -295 371 -295Q364 -295 347 -312Q324 -289 318 -289Q302 -289 302 -306Q291 -295 280 -295Q270 -295 259 -306Q241 -267 241 -272Q277 -277 341 -277Q424 -277 516 -251Q620 -220 662 -173Q683 -292 734 -421ZM211 -339Q202 -346 170 -344Q176 -344 196 -324ZM231 -275Q228 -275 221.5 -287Q215 -299 213 -301L195 -283H186L173 -295Q153 -275 153 -273Q145 -275 231 -275ZM548 -410Q548 -397 533 -382Q521 -394 516 -394Q510 -394 499.5 -388Q489 -382 481 -382Q465 -382 426 -408Q457 -440 478 -440Q488 -440 548 -410Z"/>
</svg>