<svg xmlns="http://www.w3.org/2000/svg" viewBox="0 -2048 2048 2048">
	<path fill="currentColor" d="M2141 -502Q1932 -259 1932 -83Q1932 -16 1994 168Q1943 175 1855 175Q1703 175 1575 140Q1409 92 1242 43Q1119 11 1061 11L414 79Q374 79 332 43.5Q290 8 288 -39Q298 -37 306 -37Q346 -37 354 -85Q355 -127 357 -170Q383 -139 443 -57Q448 -62 464 -62Q472 -110 482 -182Q507 -150 561 -91Q570 -128 584 -205Q613 -148 641 -103Q655 -134 681 -199Q692 -179 732 -120Q734 -124 766 -196Q787 -172 817 -125Q835 -149 856 -207Q876 -186 914 -142Q919 -147 964 -222Q991 -191 1039 -131L1484 -168L1115 -307L1043 -239Q1036 -274 1010 -318Q971 -279 946 -262Q937 -306 913 -346Q893 -324 850 -284Q831 -332 805 -375Q780 -354 731 -313Q731 -325 727.5 -360.5Q724 -396 724 -411Q721 -414 716.5 -415.5Q712 -417 709 -420Q704 -416 618 -330Q612 -372 595 -460L487 -347Q491 -377 491 -409Q491 -441 487 -471Q461 -448 402 -375Q391 -417 357 -505L289 -409Q277 -465 251 -547Q242 -555 227.5 -576.5Q213 -598 213 -624Q213 -662 242 -698Q275 -741 332 -758L191 -922Q205 -919 228 -919Q251 -919 270 -922L100 -1388Q104 -1392 160 -1418L309 -941Q305 -936 318 -936Q326 -936 336.5 -946Q347 -956 351 -958H371Q374 -887 384 -754Q591 -704 851 -675L1316 -783Q1363 -786 1435 -746Q1451 -737 1562 -665Q1659 -602 1816 -571Q1942 -546 2111 -520Q2128 -517 2141 -502ZM2099 -498Q1969 -509 1906 -518Q1884 -521 1737 -558Q1668 -575 1521 -672Q1392 -755 1310 -755Q1236 -755 1088.5 -704Q941 -653 834 -653Q748 -653 551 -689.5Q354 -726 352 -726Q315 -726 281 -700Q241 -669 241 -624Q241 -606 259.5 -580Q278 -554 294 -547Q319 -536 538 -486Q640 -460 816 -418Q1082 -359 1553 -169Q1555 -163 1563 -151L1553 -142Q1031 -126 321 -16Q327 4 363 30Q399 56 414 56L1058 -17Q1078 -17 1168 4Q1224 17 1553 112Q1694 153 1861 153Q1924 153 1959 146Q1942 89 1925 31Q1903 -47 1903 -88Q1903 -171 1975 -313Q2041 -442 2099 -498ZM293 -926L142 -1384L134 -1373ZM1084 -309Q1070 -312 1034 -321Q1037 -315 1043 -299Q1049 -283 1052 -277Q1074 -288 1084 -309ZM990 -345Q976 -348 940 -357Q943 -351 949 -335Q955 -319 958 -313Q980 -324 990 -345ZM899 -367Q874 -373 832 -385Q843 -364 862 -329ZM790 -393Q784 -396 768 -400Q752 -404 746 -407Q752 -383 752 -356ZM342 -919Q298 -880 253 -890L341 -783Q342 -804 342 -919ZM1001 -133Q988 -149 964 -170Q957 -153 945 -126ZM672 -423Q666 -426 650 -430Q634 -434 628 -437Q634 -413 634 -386ZM899 -115Q886 -141 862 -153Q849 -127 849 -109Q872 -117 899 -115ZM553 -452Q540 -456 521 -465V-420ZM796 -106Q786 -125 770 -156Q767 -147 761 -128Q755 -109 752 -100Q770 -108 796 -106ZM451 -481Q442 -484 423 -487Q404 -490 395 -493Q398 -484 404.5 -462.5Q411 -441 414 -432Q439 -457 451 -481ZM712 -92Q702 -111 686 -142Q683 -133 677 -114Q671 -95 668 -86Q686 -94 712 -92ZM326 -509Q302 -521 287 -521Q291 -502 300 -471Q315 -485 326 -509ZM621 -81Q611 -97 595 -125Q595 -124 591.5 -109Q588 -94 588 -81ZM536 -70Q520 -89 499 -120Q497 -112 492.5 -92Q488 -72 486 -64Q509 -72 536 -70ZM405 -52Q405 -52 380 -102Q380 -97 376.5 -80Q373 -63 373 -52ZM1415 -485L1401 -471Q1396 -475 1370 -500Q1348 -522 1342 -522Q1336 -522 1318 -513.5Q1300 -505 1293 -505Q1256 -505 1230 -518Q1226 -520 1211 -537Q1198 -551 1191 -551Q1064 -551 1082 -550L1076 -572Q1094 -568 1132 -568Q1179 -568 1207 -580Q1213 -582 1234 -596Q1251 -607 1259 -607Q1280 -607 1340 -560.5Q1400 -514 1415 -485ZM514 -605Q511 -602 507 -595Q503 -588 500 -585Q425 -624 431 -624Q430 -624 362 -590Q360 -596 355 -605Q419 -653 434 -653Q442 -653 471 -633Q506 -609 514 -605ZM1319 -544Q1307 -573 1271 -573Q1254 -573 1228 -560Q1234 -554 1235 -546Q1253 -533 1283 -534Q1309 -535 1319 -544Z"/>
</svg>