<svg xmlns="http://www.w3.org/2000/svg" viewBox="-39.2 602.8 1059.5 436.5">
  <g transform="scale(1,-1) translate(0,-1000)">
    <path d="M95 247Q95 236 77 233Q83 232 95 232Q106 232 129.5 234.0Q153 236 166 236Q219 236 265 212Q268 215 271 215Q287 215 293 168L303 127Q303 116 269.5 97.5Q236 79 198.0 61.5Q160 44 154 38Q154 37 153 35Q206 44 283 75Q339 98 341 103Q347 125 347 142Q347 146 346.5 156.0Q346 166 346 171Q346 184 348.5 194.5Q351 205 354.0 210.5Q357 216 360 216Q361 216 362 215Q376 215 376 170V168Q404 166 417 166Q446 166 495.0 171.0Q544 176 560 177V198Q560 212 575 212Q581 212 585.5 207.5Q590 203 590 197V196Q590 167 588 113Q588 103 554.5 81.0Q521 59 510 38Q510 30 518 30Q557 43 606.0 78.5Q655 114 659 116Q664 118 664.0 128.0Q664 138 654 195Q638 203 616.5 216.5Q595 230 575.0 239.0Q555 248 530 254Q494 263 433 263H387Q332 263 294 270Q267 275 231.0 296.5Q195 318 171 318Q135 318 110.0 306.5Q85 295 55 271Q47 264 41 251Q81 259 83 259Q95 259 95 247ZM155 308Q176 308 176 278Q176 270 167.5 263.5Q159 257 150 257Q139 257 132.5 266.5Q126 276 126 288Q126 297 135.0 302.5Q144 308 155 308ZM96 192Q83 192 70.0 193.5Q57 195 39.5 200.0Q22 205 11.0 216.5Q0 228 0 244Q0 278 29 302Q99 358 171 358Q204 358 244.0 335.5Q284 313 302 310Q338 303 387 303H433Q491 303 540 292Q578 284 632.5 249.0Q687 214 703 207Q745 189 784.5 178.5Q824 168 874.0 157.5Q924 147 962 137Q962 137 966.5 136.5Q971 136 973.5 135.0Q976 134 978.5 130.0Q981 126 981 118Q981 98 957 98H952H950Q899 110 858.0 115.5Q817 121 768.5 124.5Q720 128 694 131V128Q694 101 666 86Q663 84 631.5 61.0Q600 38 568.0 19.0Q536 0 518 0Q503 0 491.0 12.0Q479 24 479 38Q479 56 503 80Q512 89 531.0 101.5Q550 114 558 121L559 137Q547 136 497.0 131.0Q447 126 417 126Q400 126 376 128Q374 94 364.5 82.0Q355 70 333 62Q180 3 145 3Q136 3 129.0 10.0Q122 17 122 29Q122 48 139 65Q153 79 190.0 91.5Q227 104 236 110Q260 126 273 136L265 167Q213 196 166 196Q154 196 131.0 194.0Q108 192 96 192Z" fill="currentColor"/>
  </g>
</svg>