<svg xmlns="http://www.w3.org/2000/svg" viewBox="0 0 991 1000">
  <g transform="scale(1,-1) translate(0,-1000)">
    <path d="M357 386Q357 401 364.0 410.0Q371 419 379.0 424.0Q387 429 394.0 445.0Q401 461 401 488Q401 497 395.0 514.5Q389 532 389 534V538Q389 546 395.0 552.0Q401 558 405 558H409Q424 558 428 543Q431 532 434 525Q441 506 441 488Q441 458 434 440Q448 428 463.0 412.0Q478 396 486.5 388.5Q495 381 514.5 371.5Q534 362 560 355L645 377Q608 390 608 432Q608 466 634.5 497.0Q661 528 712 528Q722 528 739.0 526.0Q756 524 765 524H773Q782 524 787.5 517.5Q793 511 793 505V504Q793 484 765 484V485Q754 485 736.5 486.5Q719 488 712 488Q684 488 668.0 473.0Q652 458 650.0 448.0Q648 438 648 432Q648 418 659 414Q687 405 717 405Q726 405 748.0 406.0Q770 407 784 407H804Q811 407 817.0 401.5Q823 396 823 388V387Q823 371 807 367L684 345Q711 342 734 342Q771 342 797.5 350.5Q824 359 836.5 369.0Q849 379 869 400Q876 407 877 412Q869 428 816 428Q802 428 771.5 424.5Q741 421 737 421Q728 421 722.5 427.5Q717 434 717 440Q717 449 723.0 454.5Q729 460 736 460Q747 461 773.0 464.5Q799 468 816 468H817Q830 468 836 467Q823 495 811 525Q798 556 791.0 571.0Q784 586 768.5 609.0Q753 632 732 650Q699 680 630.0 697.0Q561 714 525 735Q486 758 424.5 813.5Q363 869 327 887Q341 878 341 852Q341 841 332.0 834.5Q323 828 310 828Q287 828 287 864Q287 876 296.0 883.0Q305 890 317 890Q318 890 319.5 889.5Q321 889 322 889Q272 912 218 912H217Q196 912 176 890L262 791Q269 783 269 780Q269 772 257 772H249Q247 772 247 772L160 837Q167 800 215 758Q248 729 263.0 701.5Q278 674 277.5 656.5Q277 639 283.5 617.0Q290 595 309 576Q331 556 340.5 545.5Q350 535 358.5 516.5Q367 498 367 475Q367 439 341.0 413.0Q315 387 264 374Q250 370 239.0 367.0Q228 364 224.0 362.0Q220 360 216.0 359.0Q212 358 209.0 357.5Q206 357 200 357H185Q164 357 154 344Q192 344 258.0 352.0Q324 360 349 360H362Q357 386 357 386ZM68 276Q178 166 228 129Q345 40 485 40Q541 40 592.5 53.5Q644 67 681.5 84.5Q719 102 766.5 138.0Q814 174 842.5 200.0Q871 226 922 276ZM917 412Q917 388 885.0 358.0Q853 328 822 316H971Q991 316 991 295Q991 287 985 281Q975 271 941.0 238.5Q907 206 896.0 195.5Q885 185 854.0 157.5Q823 130 808.5 119.5Q794 109 764.0 87.0Q734 65 714.5 56.5Q695 48 664.5 34.0Q634 20 608.0 14.5Q582 9 549.5 4.5Q517 0 483 0Q443 0 404.5 7.5Q366 15 336.5 24.0Q307 33 273.0 53.0Q239 73 217.5 87.0Q196 101 162.0 131.0Q128 161 111.5 177.0Q95 193 58.5 229.5Q22 266 6 281Q0 287 0 295Q0 316 20 316H123Q113 328 113 342Q113 365 137.5 381.0Q162 397 185 397Q188 397 193.0 396.5Q198 396 200 396Q203 396 204.5 396.5Q206 397 208.0 398.0Q210 399 213.5 400.5Q217 402 226.5 404.5Q236 407 250 411Q291 421 313 443Q327 457 327 475Q327 503 295.0 534.5Q263 566 255 582Q245 601 238.5 643.5Q232 686 206 712Q201 717 188.5 728.0Q176 739 170 745Q119 796 119 844Q119 885 148.0 918.5Q177 952 218 952Q299 952 363 913Q402 889 454.5 841.0Q507 793 545 770Q575 752 617.5 742.0Q660 732 698.0 717.0Q736 702 770 668Q809 629 843.0 550.5Q877 472 887 455Q917 437 917 412ZM523 316Q518 321 518 326Q478 340 444 374L414 404Q398 388 397 386Q398 373 416.5 352.0Q435 331 435 321Q435 320 434.5 318.5Q434 317 434 316ZM313 316Q309 317 300 317Q293 317 288 316Z" fill="currentColor"/>
  </g>
</svg>