<svg xmlns="http://www.w3.org/2000/svg" viewBox="0 -2048 2048 2048">
	<path fill="#000000" d="M2026 171H100V-604H2026ZM2006 145V-578H118V145ZM1985 130H138V-558H1985ZM1960 109V-538H164V109ZM1853 -57Q1748 -5 1588 -5L1067 -43L715 0Q664 0 660 -1Q617 -12 598 -27Q573 -46 517 -109Q468 -163 462 -163Q457 -163 424.5 -158Q392 -153 383 -153Q339 -153 302 -168Q255 -188 255 -225Q255 -260 298 -289Q327 -304 357 -319L255 -413Q258 -426 267 -449Q263 -449 282 -454L421 -337Q462 -381 543 -460Q545 -459 572 -432Q550 -399 490 -329Q501 -322 520 -309Q543 -291 574 -254Q598 -222 623 -190Q658 -148 681 -148Q699 -148 831 -186.5Q963 -225 1026 -225Q1101 -225 1228 -173Q1403 -101 1412 -98Q1450 -87 1526 -87Q1532 -87 1623.5 -94.5Q1715 -102 1721 -102Q1817 -102 1853 -75ZM1818 -67Q1771 -77 1700 -77Q1693 -77 1612 -71.5Q1531 -66 1526 -66Q1426 -66 1253.5 -135Q1081 -204 1013 -204Q1007 -204 850 -166Q693 -128 687 -128Q638 -128 573 -217Q508 -306 452 -306Q359 -306 328 -284Q281 -250 281 -225Q281 -206 328 -188Q368 -174 385 -174Q392 -174 422.5 -181.5Q453 -189 459 -189Q474 -189 551.5 -104.5Q629 -20 699 -20L1054 -64L1570 -31Q1701 -31 1765 -47Q1795 -54 1818 -67ZM538 -417L532 -422L453 -336L458 -331ZM394 -332L305 -410L300 -403L389 -325ZM429 -279Q418 -255 395 -250Q383 -262 383 -271Q383 -279 400 -296Q412 -296 429 -279Z"/>
</svg>