<svg xmlns="http://www.w3.org/2000/svg" viewBox="0 0 694 1000">
  <g transform="scale(1,-1) translate(0,-1000)">
    <path d="M517 849 514 754 555 850ZM409 538 411 484Q409 484 409 430H412Q465 430 523 434L521 484Q523 484 523 534Q465 538 412 538ZM313 535Q307 535 295.0 534.5Q283 534 277 533Q282 485 282 484Q277 477 277 435Q283 434 295.0 433.5Q307 433 313 433H315Q372 430 380 430Q380 433 380.5 450.5Q381 468 381.0 484.0Q381 500 380.5 517.5Q380 535 380 538Q372 538 315 535ZM399 324Q456 324 512.5 341.0Q569 358 611.5 396.0Q654 434 654.0 484.0Q654 534 611.5 572.0Q569 610 512.5 627.0Q456 644 399 644H389Q293 641 242.5 619.5Q192 598 171 543Q170 541 170 540L169 538Q169 538 177.5 519.0Q186 500 186.0 484.0Q186 468 178 449L169 430Q169 428 172.0 420.5Q175 413 183.0 399.5Q191 386 201 376Q248 329 389 324ZM191 484Q191 539 241.5 583.0Q292 627 392 627Q483 627 552.5 587.5Q622 548 622 487V481Q622 420 552.5 380.5Q483 341 392 341Q371 341 346.5 345.0Q322 349 284.0 361.0Q246 373 220.0 404.5Q194 436 191 483ZM239 842 201 843 242 747ZM514 118 552 117 511 213ZM236 125 239 220 198 124ZM163 609Q194 647 245 664L126 939Q125 941 125 945Q125 951 129.5 955.5Q134 960 140 960Q150 960 154 951L188 873L254 872Q260 872 264.5 867.5Q269 863 269 857L274 672Q319 682 387 684H400Q439 684 482 676V677L487 864Q487 870 491.5 874.5Q496 879 502 879L568 880L602 958Q606 967 616 967Q622 967 626.5 962.5Q631 958 631 952Q631 948 630 946L511 671Q511 670 510.5 670.0Q510 670 510 669Q512 668 515.0 668.0Q518 668 519 667Q522 670 528.0 679.0Q534 688 536.5 691.0Q539 694 544.5 700.0Q550 706 553.5 708.5Q557 711 563.0 714.0Q569 717 575.0 718.0Q581 719 589.0 719.0Q597 719 602.0 713.0Q607 707 607 699Q607 687 598 681Q581 670 576.0 665.0Q571 660 566 649Q624 623 659.0 580.5Q694 538 694.0 484.0Q694 430 659.0 387.5Q624 345 566 319Q571 308 576.5 303.0Q582 298 598 287Q607 281 607 269Q607 261 602.0 255.0Q597 249 589.0 249.0Q581 249 575.0 250.0Q569 251 563.0 254.0Q557 257 553.5 259.5Q550 262 544.5 268.0Q539 274 536.5 277.0Q534 280 528.0 289.0Q522 298 519 301L507 298Q507 298 508 297V296L627 21Q628 19 628 15Q628 9 623.5 4.5Q619 0 613 0Q603 0 599 9L565 87L499 88Q493 88 488.5 92.5Q484 97 484 103L479 290V292Q437 284 400 284H387Q308 288 271 297L266 110Q266 104 261.5 99.5Q257 95 251 95L185 94L151 16Q147 7 137 7Q131 7 126.5 11.5Q122 16 122 22Q122 26 123 28L242 303Q242 304 243 305Q194 322 163 359V356Q163 344 175 323Q179 316 199.0 299.5Q219 283 219 272Q219 247 204 247Q200 247 192 250Q133 272 117 343Q115 353 115 358Q115 380 140 394Q130 416 130 428Q125 428 112.0 426.0Q99 424 92 424Q79 424 51 432Q36 436 27.5 439.5Q19 443 9.5 454.5Q0 466 0 484Q0 510 13.0 520.5Q26 531 51 538Q80 546 94 546Q100 546 106.0 545.5Q112 545 119.0 544.0Q126 543 130 543Q131 555 141 574Q115 589 115 610Q115 615 117 625Q133 696 192 718Q200 721 204 721Q219 721 219 696Q219 685 199.0 668.5Q179 652 175 645Q163 624 163 612ZM324 379Q355 371 392 371Q427 371 464 379Q463 389 463 401Q446 400 412 400H400Q398 399 394.0 399.0Q390 399 388 400Q366 400 326 402Q325 399 324.5 391.0Q324 383 324 379ZM296 388V404L263 407Q277 396 296 388ZM234 439Q235 439 239.5 438.5Q244 438 247 438Q247 441 248.0 448.0Q249 455 250.0 464.5Q251 474 252 484Q251 494 250.0 503.5Q249 513 248.0 520.0Q247 527 247 530Q244 530 239.5 529.5Q235 529 234 529Q222 507 221 484Q222 461 234 439ZM262 561Q268 562 279.0 563.0Q290 564 296 564Q295 570 295 579Q277 572 262 561ZM324 589Q324 585 324.5 577.0Q325 569 326 566Q366 568 388 568Q390 569 394.0 569.0Q398 569 400 568H412Q446 568 463 567Q463 579 464 589Q427 597 392 597Q355 597 324 589ZM493 581V566L535 563Q516 574 493 581ZM592 481V487Q592 510 577 529Q575 529 566.5 530.0Q558 531 552 532Q552 529 551.5 513.5Q551 498 551.0 484.0Q551 470 551.5 454.5Q552 439 552 436Q558 437 566.5 438.0Q575 439 577 439Q592 458 592 481ZM535 405 493 402 494 387Q518 395 535 405ZM137 512Q130 512 119.0 513.0Q108 514 101 515L94 516Q80 516 72 513Q52 508 42.5 503.0Q33 498 31.5 495.0Q30 492 30 486V484Q30 475 35.0 470.5Q40 466 59 460Q80 454 92 454Q99 454 114.5 456.5Q130 459 138 459Q146 473 146 484Q145 496 137 512Z" fill="currentColor"/>
  </g>
</svg>