<svg xmlns="http://www.w3.org/2000/svg" viewBox="0 -2048 2048 2048">
	<path fill="#000000" d="M1948 -1412Q1948 -1314 1846 -1314Q1829 -1314 1812 -1329L1604 -1025Q1538 -1103 1427 -1103Q1368 -1103 1303 -1044Q1345 -1037 1408 -1013Q1668 -911 1668 -610Q1668 -583 1648 -475Q1616 -303 1616 -257Q1616 -31 1654 91Q1659 105 1699 203Q1736 293 1736 299Q1736 307 1720 327H1702Q1681 327 1627 275Q1471 125 1471 -103Q1471 -168 1484.5 -298.5Q1498 -429 1498 -494Q1498 -614 1469 -677Q1373 -885 1068 -885Q1034 -885 1007 -883L513 -847Q499 -846 493 -846Q431 -846 396 -893Q364 -936 364 -1000Q364 -1032 386 -1134Q371 -1133 331 -1130Q296 -1127 275 -1127Q237 -1127 195 -1148Q146 -1173 146 -1208Q146 -1270 223 -1313Q289 -1351 356 -1351Q419 -1351 467 -1324Q525 -1292 525 -1234Q525 -1207 506.5 -1157Q488 -1107 488 -1080Q488 -1056 503 -1030Q521 -999 543 -1002L1047 -1060Q1082 -1064 1137 -1064Q1179 -1064 1226 -1058Q1388 -1178 1708 -1423Q1803 -1498 1850 -1498Q1888 -1498 1918 -1473.5Q1948 -1449 1948 -1412ZM1468 432H100V406H209V259H100V233H209V87H100V61H745V-558Q664 -634 515 -758H100V-836H1251V-758H990Q1049 -683 1049 -629Q1049 -573 1002.5 -531.5Q956 -490 899 -490Q863 -490 823 -509V61H1468V87H1359V233H1468V259H1359V406H1468ZM1922 -1412Q1922 -1472 1850 -1472Q1834 -1472 1817 -1464Q1778 -1445 1724 -1403Q1681 -1368 1637 -1333L1262 -1053L1272 -1051Q1325 -1097 1341 -1107Q1378 -1129 1427 -1129Q1550 -1129 1602 -1068L1807 -1368Q1837 -1340 1846 -1340Q1922 -1340 1922 -1412ZM1023 -629Q1023 -676 957 -758H920Q1003 -691 1022 -614Q1023 -620 1023 -629ZM1001 -585Q994 -673 876 -758H823V-591Q882 -558 926 -558Q962 -558 1001 -585ZM1225 -784V-810H126V-784ZM797 -607V-758H771V-625Q787 -613 797 -607ZM1713 303Q1682 236 1630 99Q1590 -30 1590 -257Q1590 -306 1623 -479Q1642 -579 1642 -610Q1642 -789 1557 -885Q1477 -975 1299 -1019Q1221 -1038 1137 -1038Q1085 -1038 1050 -1034L542 -976Q513 -976 487.5 -1013Q462 -1050 462 -1080Q462 -1107 480.5 -1157Q499 -1207 499 -1234Q499 -1280 448 -1305Q407 -1325 356 -1325Q301 -1325 241 -1294Q172 -1258 172 -1208Q172 -1181 212 -1165Q242 -1153 275 -1153Q261 -1153 418 -1161Q390 -1040 390 -1000Q390 -872 493 -872Q498 -872 512 -873L1006 -909Q1033 -911 1068 -911Q1388 -911 1493 -688Q1524 -622 1524 -494Q1524 -429 1510.5 -298.5Q1497 -168 1497 -103Q1497 97 1645 256Q1668 280 1674 285Q1686 294 1713 303ZM973 -541Q949 -532 926 -532Q806 -532 582 -758H558Q643 -681 729 -605Q834 -516 899 -516Q938 -516 973 -541ZM745 -644V-758H619Q690 -687 745 -644ZM1333 233V87H1078V233ZM797 61V-523Q789 -528 771 -540V61ZM1333 406V259H1078V406ZM1052 233V87H797V233ZM1052 406V259H797V406ZM771 233V87H516V233ZM771 406V259H516V406ZM490 233V87H235V233ZM490 406V259H235V406ZM366 -1262Q366 -1240 335 -1240Q304 -1240 304 -1262Q304 -1283 335 -1283Q366 -1283 366 -1262Z"/>
</svg>