<svg xmlns="http://www.w3.org/2000/svg" viewBox="27.8 -1611.2 1269.4 1949.4">
	<path fill="currentColor" d="M1225 89Q1219 96 1219 101H1202Q1184 101 1138 40Q1103 -8 1087 -39Q1067 -78 1041 -171Q1013 -271 1013 -319V-1138Q1013 -1162 988.5 -1279.5Q964 -1397 888 -1432Q847 -1451 742 -1451Q676 -1451 665 -1449Q619 -1442 574 -1408Q509 -1358 488 -1272Q481 -1241 465 -1128Q446 -987 446 -918V-715Q446 -709 451 -649.5Q456 -590 456 -583V-380Q456 -345 416 -287Q376 -229 341 -210Q288 -180 235 -157Q224 -97 214 -37Q193 55 147 55Q100 55 100 -35Q100 -137 152 -194Q193 -238 308 -291Q327 -300 346 -351Q368 -411 368 -474Q368 -480 358 -650.5Q348 -821 348 -827Q348 -1172 401 -1311Q487 -1539 753 -1539Q896 -1539 973 -1480Q1070 -1407 1092 -1227Q1111 -1068 1111 -1062V-277Q1111 -218 1153 -86Q1194 42 1225 89ZM920 -740H857Q834 -654 846 -582Q863 -478 856 -427Q843 -329 807 -99Q776 102 776 107Q776 113 786 163Q796 213 796 218Q796 239 769 266H457V227Q459 224 463 218Q586 187 621 158Q662 124 662 40Q662 50 643 -123Q625 -264 607 -404Q585 -575 585 -685Q585 -903 678 -939V-968Q664 -976 642 -976Q617 -976 597 -926Q588 -894 578 -863Q558 -876 513 -901Q519 -909 559 -949Q590 -980 590 -987Q590 -992 584.5 -1012.5Q579 -1033 578 -1045Q564 -1050 534 -1065Q589 -1201 607 -1228Q653 -1296 735 -1296Q768 -1296 790 -1289Q831 -1276 866 -1233Q879 -1217 899 -1172Q920 -1123 920 -1103ZM900 -938Q900 -1082 887 -1135Q853 -1270 735 -1270Q637 -1270 606 -1178H741Q746 -1167 757 -1153Q764 -1150 777 -1145Q802 -1130 802 -1103Q802 -1086 795 -1073Q793 -1069 784.5 -1060Q776 -1051 776 -1045V-761H898Q900 -742 900 -938ZM579 -940Q565 -927 549 -905Q554 -905 563 -899Q566 -904 571 -919.5Q576 -935 579 -940ZM1177 47Q1153 6 1120 -113Q1085 -240 1085 -303V-1062Q1085 -1147 1058 -1289Q1038 -1395 971 -1454Q904 -1513 745 -1513Q569 -1513 481.5 -1411.5Q394 -1310 379 -1082L374 -794Q369 -752 377 -659L394 -453Q394 -429 387 -402Q360 -300 323 -271Q303 -255 267 -241Q241 -231 215 -221Q163 -197 143 -144Q121 -86 121 -27Q121 -14 137 29H155Q184 2 196 -66Q205 -122 214 -178Q422 -252 428 -370Q429 -382 432 -413Q435 -441 435 -447V-577L420 -757V-928Q420 -935 428 -1011Q437 -1099 439 -1123Q453 -1299 515 -1383Q584 -1477 729 -1477Q922 -1477 965 -1401Q1042 -1266 1042 -1054Q1042 -1026 1040.5 -963Q1039 -900 1039 -865V-335Q1039 -249 1081 -124Q1126 10 1177 47ZM833 -455Q833 -472 827.5 -539Q822 -606 822 -646Q822 -702 831 -739H750V-1061Q755 -1063 763 -1066Q781 -1089 781 -1103Q781 -1115 773 -1115Q769 -1118 744 -1130Q729 -1137 729 -1151H591Q581 -1123 560 -1075Q571 -1080 579 -1080Q600 -1080 606 -1049Q609 -1026 612 -1003Q648 -1000 704 -988V-924Q609 -890 609 -757Q609 -744 610 -724Q611 -704 611 -698Q611 -576 629 -422Q647 -282 664 -143Q683 35 683 29Q683 220 482 240H759Q764 236 769 229Q752 83 757 43Q773 -98 808 -287Q833 -422 833 -455ZM688 -1087Q636 -1079 621 -1091Q621 -1103 634 -1116Q650 -1100 657 -1100Q664 -1100 675 -1111Q678 -1108 681.5 -1099Q685 -1090 688 -1087ZM171 -94Q163 -73 154 -76Q145 -79 153 -100Q161 -121 170 -118Q179 -115 171 -94Z"/>
</svg>