<svg xmlns="http://www.w3.org/2000/svg" viewBox="27.2 -1558.8 1876.5 1964.5">
	<path fill="currentColor" d="M1831 297Q1831 325 1795 333Q1759 333 1682 236Q1620 157 1605 124Q1546 -4 1546 -139L1577 -520Q1577 -929 1217 -964Q1157 -974 1082 -984H1027V-301Q1051 -272 1093 -221Q1179 -109 1202 19Q1209 58 1209 100Q1209 172 1191 212Q1171 258 1115 300Q1078 328 989 328Q881 328 823 233Q779 161 779 69Q779 -118 956 -298V-974L491 -942Q436 -942 423 -949Q344 -991 344 -1121Q344 -1126 353 -1180Q363 -1241 366 -1269Q338 -1248 263 -1248Q222 -1248 169 -1270Q100 -1298 100 -1341Q100 -1413 194 -1455Q264 -1486 323 -1486Q405 -1486 451 -1458Q474 -1444 481 -1433Q515 -1381 515 -1365Q515 -1359 494 -1284.5Q473 -1210 473 -1204Q473 -1101 543 -1108L956 -1169V-1407H694V-1486H1281V-1404H1023V-1175Q1096 -1177 1254 -1173Q1309 -1161 1415 -1140Q1759 -1082 1759 -691Q1759 -646 1739 -550Q1702 -372 1702 -250Q1702 -245 1704 -214Q1706 -178 1707 -162Q1712 -27 1744 81Q1753 113 1794 206Q1831 291 1831 297ZM1260 -1426V-1459H718V-1429H982V-1166H1004V-1426ZM1798 307Q1803 297 1798 283Q1676 64 1676 -232Q1676 -306 1708 -524Q1733 -694 1733 -701Q1733 -843 1665 -952Q1583 -1086 1425 -1114Q1368 -1126 1311 -1139Q1235 -1155 1189 -1155Q1198 -1155 1150.5 -1152Q1103 -1149 1020 -1149L546 -1082Q447 -1092 447 -1201Q447 -1207 468 -1283Q489 -1359 489 -1365Q489 -1461 328 -1461Q278 -1461 215 -1437Q126 -1403 126 -1346Q126 -1312 175 -1291Q214 -1274 253 -1274Q260 -1274 313.5 -1284.5Q367 -1295 373 -1295H386Q395 -1277 395 -1271Q395 -1265 382.5 -1187Q370 -1109 370 -1103Q370 -1051 394 -1011Q423 -963 471 -963L1005 -1010Q1292 -1010 1423 -929Q1603 -819 1603 -522L1572 -136Q1572 -13 1623 100Q1683 232 1798 307ZM1189 92Q1189 -92 1007 -287V-983H982V-303Q938 -242 893 -180Q805 -52 805 71Q805 151 827 197Q845 234 879 259Q944 307 989 307Q1002 307 1059.5 290.5Q1117 274 1126 264Q1189 196 1189 92ZM338 -1396Q326 -1373 305 -1362Q300 -1361 276 -1385Q281 -1395 310 -1424Z"/>
</svg>