<svg xmlns="http://www.w3.org/2000/svg" viewBox="0 -2048 2048 2048">
	<path fill="currentColor" d="M2555 20Q2555 38 2539 53Q2523 68 2505 68Q2467 68 2410 57Q2317 39 2316 39Q2105 7 1764 -25Q1614 -39 1603 -39Q1600 -34 1600 -27Q1600 -20 1604 -7Q1608 6 1608 13Q1608 26 1597 56Q1574 67 1560 71L1443 51Q1414 68 1408 68Q1404 68 1398 65Q1392 62 1388 62Q1390 62 1351 72V67Q1351 56 1354 49L1325 58Q1324 47 1322 25L1336 19Q1324 20 1299 21Q1299 7 1331 -16Q1327 -16 1286 -16Q1285 -25 1287 -31Q1267 -30 1222.5 -25.5Q1178 -21 1154 -21Q1155 -21 1129 -26Q1079 -32 979 -49Q880 -72 886 -73Q881 -56 881 -43Q881 -33 883.5 -14.5Q886 4 886 14Q886 68 850 68Q833 68 801 62Q769 56 752 56Q733 56 697 62Q661 68 642 68Q636 68 630 64L625 70H598L586 58L594 46Q585 45 573 45Q568 45 536 51V34Q536 17 551 12H519Q527 -2 550 -22L536 -29V-43L547 -54Q555 -55 573.5 -59.5Q592 -64 602 -64Q621 -64 659 -55Q697 -46 717 -46H722Q718 -96 713 -136Q636 -152 535 -208Q451 -258 368 -308Q344 -322 236 -362Q144 -396 118 -422Q100 -440 100 -466Q100 -476 118 -497Q117 -502 117 -510Q117 -539 146 -559Q172 -577 202 -577Q207 -577 223 -572Q363 -529 432 -529Q380 -678 278 -977Q257 -1038 235 -1121L234 -1148Q233 -1181 260 -1210.5Q287 -1240 321 -1240Q366 -1240 390 -1227Q429 -1206 429 -1173Q429 -1155 419 -1112Q408 -1104 370 -1080L610 -774Q592 -763 558 -739Q548 -732 510.5 -688Q473 -644 473 -638V-569Q473 -563 480 -530L481 -529Q535 -540 556 -540Q604 -540 640 -516.5Q676 -493 712 -468Q771 -432 857 -406Q900 -393 1020 -378L1032 -561L1073 -503L1307 -1043L1331 -1033L1285 -927L1357 -896L1331 -835L1259 -866L1097 -493L1167 -503L1045 -373Q1068 -368 1084 -368L1311 -365Q1476 -363 1627 -303L1639 -481L1680 -423L1914 -963L1938 -953L1892 -847L1964 -816L1938 -755L1866 -786L1704 -413L1774 -423L1652 -292Q1722 -260 1864 -197Q1975 -148 2160 -97L2172 -271L2213 -213L2447 -753L2471 -743L2425 -637L2497 -606L2471 -545L2399 -576L2237 -203L2307 -213L2191 -88Q2224 -80 2324 -65Q2388 -60 2511 -37Q2555 -23 2555 20ZM2463 -592L2415 -613L2409 -600L2458 -579ZM1930 -802L1882 -823L1876 -810L1925 -789ZM2238 -177L2209 -173L2193 -196L2188 -124ZM1323 -882L1275 -903L1269 -890L1318 -869ZM1705 -387L1676 -383L1660 -406L1655 -334ZM2532 10Q2525 -1 2508 -15Q2474 -27 2417 -32Q2333 -41 2325 -42Q2091 -79 1945 -137Q1804 -200 1663 -263Q1487 -338 1370 -338Q1360 -338 1342 -340.5Q1324 -343 1315 -343Q1239 -343 1086 -345Q1071 -347 1040 -352Q977 -360 853 -384Q791 -400 700 -450Q697 -452 642 -493Q609 -518 575 -518Q546 -518 487 -511.5Q428 -505 399 -505Q351 -505 263 -536Q209 -555 202 -555Q183 -555 163 -544Q140 -531 140 -514Q140 -506 142 -493L151 -494Q163 -478 171 -465Q182 -471 190 -471Q197 -471 216 -445Q228 -454 236 -454Q245 -454 247 -449H244L249 -444L253 -430Q263 -437 270 -437Q271 -437 275 -436L288 -417Q291 -418 298 -421.5Q305 -425 309 -425Q319 -425 329 -409L337 -416Q348 -408 360 -393Q370 -397 386 -401Q395 -388 399 -376Q414 -384 422 -387Q437 -351 513 -328Q583 -307 582 -288H578Q563 -288 502 -307.5Q441 -327 430.5 -335Q420 -343 414 -358L390 -350Q385 -358 374 -375Q366 -371 351 -364Q341 -373 335 -386L317 -383Q310 -400 305 -400Q303 -400 278 -390Q273 -397 264 -411Q253 -403 245 -403Q236 -403 234 -408H236L232 -412L230 -426Q218 -420 212 -420Q200 -420 184 -446Q163 -440 167 -440Q157 -440 145 -464Q139 -457 128 -457L126 -461V-457Q126 -430 265 -375Q306 -360 386 -323Q463 -275 540 -227Q627 -175 715 -157Q717 -174 719.5 -191.5Q722 -209 734 -218L745 -207V-30L736 -21Q603 -41 598 -41Q592 -41 588 -39Q598 -36 614 -27L616 -13Q607 -11 592 -10Q638 -4 638 16Q607 21 586 22Q593 22 605 22Q619 21 624 21Q646 21 662 36L656 42Q751 33 759 33Q774 33 803 39Q832 45 847 45Q864 45 864 11Q864 1 861 -19Q858 -39 858 -49Q858 -106 913 -210L927 -195Q909 -153 891 -95Q933 -82 1019 -62Q1060 -57 1142 -46Q1154 -44 1155 -44Q1263 -44 1318 -56Q1322 -57 1336 -64Q1347 -71 1352 -70L1445 -60Q1428 -121 1428 -124Q1428 -141 1454 -211L1468 -195Q1450 -120 1450 -123Q1450 -109 1460.5 -84Q1471 -59 1471 -45Q1471 -40 1464 -35L1353 -47Q1349 -47 1337 -41L1338 -39Q1345 -40 1352 -40Q1370 -40 1374 -22Q1361 -12 1354 -5Q1369 -6 1371 -6Q1381 -6 1400 0Q1390 15 1377 22Q1394 19 1416 19Q1411 34 1401 44Q1402 45 1405 45Q1408 45 1423.5 37.5Q1439 30 1445 31L1559 48Q1585 52 1585 20Q1585 12 1581.5 -3.5Q1578 -19 1578 -27Q1578 -122 1635 -194L1640 -167Q1606 -98 1606 -61Q1853 -40 2346 20Q2499 45 2503 45Q2532 45 2532 10ZM1098 -467L1069 -463L1053 -486L1048 -414ZM579 -780L338 -1084Q359 -1098 400 -1128Q401 -1133 404 -1149Q407 -1162 407 -1170Q407 -1189 381 -1205Q361 -1217 322 -1217Q267 -1217 258 -1162Q258 -1149 255 -1123L454 -529H459Q446 -583 446 -629Q446 -643 487 -694Q524 -742 541 -756Q554 -764 579 -780ZM617 -381Q612 -385 574 -420Q572 -420 567.5 -417Q563 -414 559 -414Q554 -414 528 -423Q528 -434 527 -444L529 -449Q524 -449 508.5 -446.5Q493 -444 485 -444Q528 -477 543 -477Q566 -477 588 -439Q603 -410 617 -381ZM248 -501Q224 -501 193 -512Q182 -498 158 -491Q179 -534 193 -534Q204 -534 248 -501ZM561 -440Q555 -454 550 -454H546L549 -440Z"/>
</svg>