<svg xmlns="http://www.w3.org/2000/svg" viewBox="0 -2048 2048 2048">
	<path fill="#000000" d="M1344 390L1113 78H100V-305H657Q552 -432 552 -611Q552 -753 656 -1115Q707 -1293 707 -1324Q707 -1360 698 -1372Q684 -1391 666 -1391Q649 -1391 616.5 -1386.5Q584 -1382 567 -1382Q418 -1382 379 -1421Q374 -1432 360 -1457Q345 -1479 345 -1481Q345 -1527 443 -1559Q522 -1585 582 -1585Q633 -1585 696 -1562Q766 -1535 792 -1499Q826 -1450 834.5 -1421Q843 -1392 843 -1330Q843 -1314 828 -1263Q735 -950 688 -741Q669 -657 669 -579Q669 -573 671 -564Q674 -552 674 -548Q682 -456 727 -388Q750 -353 835 -304H1344ZM820 -1330Q820 -1389 812.5 -1413Q805 -1437 771 -1487Q749 -1519 684 -1542Q626 -1562 580 -1562Q523 -1562 401 -1517Q396 -1515 388 -1510Q373 -1495 371 -1478Q420 -1474 420 -1459Q411 -1452 387 -1454L392 -1442Q415 -1429 461 -1412Q500 -1405 567 -1405Q584 -1405 618.5 -1410Q653 -1415 670 -1415Q695 -1415 716 -1385Q733 -1360 733 -1324Q733 -1319 685 -1145Q652 -1027 595 -788Q588 -763 579 -712Q575 -676 575 -614Q575 -471 621 -390Q643 -362 685 -305H794Q780 -315 717 -366Q686 -391 666 -466Q649 -528 649 -580Q649 -691 687 -845Q724 -974 760 -1104Q820 -1321 820 -1330ZM1321 323V-278H125V51H1123ZM581 -1508Q581 -1487 565 -1486Q562 -1483 556 -1483Q552 -1483 545 -1486.5Q538 -1490 536.5 -1490Q535 -1490 520 -1520Q542 -1542 554 -1542Q581 -1542 581 -1508ZM555 -1512V-1516L553 -1518L549 -1515Z"/>
</svg>