<svg xmlns="http://www.w3.org/2000/svg" viewBox="0 -2048 2048 2048">
	<path fill="currentColor" d="M1285 -1133Q1280 -1131 1265.5 -1120Q1251 -1109 1244 -1109Q1234 -1109 1209 -1125V-1169Q1239 -1188 1247 -1188Q1253 -1188 1266 -1185Q1279 -1182 1285 -1182ZM2171 41Q2159 27 2014 -165H1360V-426H2104Q2000 -523 2000 -648Q2000 -670 2004 -710.5Q2008 -751 2009 -769Q2010 -798 2010 -853Q2010 -939 1996 -994Q1990 -998 1984 -1007Q1940 -1068 1894 -1083Q1819 -1107 1689 -1107Q1645 -1107 1556 -1095Q1467 -1083 1423 -1083Q1340 -1083 1340 -1183Q1340 -1188 1357 -1256Q1349 -1255 1329.5 -1252Q1310 -1249 1299 -1249Q1277 -1249 1245 -1264Q1209 -1282 1209 -1301Q1209 -1339 1255 -1364Q1295 -1385 1336 -1385Q1441 -1385 1441 -1320Q1441 -1306 1433 -1279Q1425 -1252 1425 -1237Q1425 -1177 1463 -1182L1763 -1220Q1928 -1230 2042 -1155Q2070 -1137 2096 -1091Q2124 -1042 2124 -987Q2124 -947 2109.5 -869.5Q2095 -792 2095 -753V-692Q2094 -557 2130 -491Q2142 -471 2162 -429L2161 -424L2171 -425ZM1245 -980Q1226 -973 1208 -961Q1196 -970 1169 -988V-1027Q1204 -1039 1205 -1039Q1211 -1039 1245 -1017ZM1058 -1137Q1045 -1127 1018 -1108Q1006 -1116 982 -1131V-1172Q1018 -1195 1018 -1195Q1025 -1195 1039 -1186.5Q1053 -1178 1058 -1177ZM1092 -983Q1087 -982 1070 -974Q1053 -966 1048 -966Q1039 -966 1029 -983.5Q1019 -1001 1019 -1011Q1019 -1019 1033 -1032Q1047 -1045 1056 -1045Q1062 -1045 1075 -1036.5Q1088 -1028 1092 -1027ZM1232 -841Q1192 -819 1194 -819Q1186 -819 1156 -838V-876Q1192 -899 1196 -899Q1202 -899 1232 -880ZM1101 -841Q1066 -822 1066 -822Q1054 -822 1042.5 -835Q1031 -848 1031 -860Q1031 -899 1059 -899Q1061 -899 1101 -880ZM1236 -692Q1224 -686 1200 -672Q1176 -683 1170 -695Q1166 -713 1162 -731Q1186 -752 1196 -752Q1233 -752 1236 -692ZM1111 -704Q1056 -679 1065 -679Q1062 -679 1037 -694Q1035 -699 1035 -706V-714Q1035 -724 1047 -743Q1059 -762 1068 -762Q1071 -762 1111 -743ZM1232 -557Q1188 -542 1193 -542Q1159 -542 1159 -582Q1159 -615 1190 -615Q1197 -615 1211 -611.5Q1225 -608 1232 -608ZM1108 -573Q1108 -569 1107 -561Q1077 -542 1070 -542H1049Q1038 -542 1036 -551H1037L1035 -556V-593Q1066 -612 1070 -612Q1108 -612 1108 -573ZM1235 -422Q1213 -399 1202 -399H1171Q1162 -426 1162 -438Q1162 -447 1175.5 -461Q1189 -475 1197 -475Q1204 -475 1216.5 -471.5Q1229 -468 1235 -468ZM1236 -321Q1236 -286 1204 -286Q1199 -286 1188 -288Q1177 -290 1172 -290Q1172 -295 1170.5 -304Q1169 -313 1169 -318Q1169 -327 1178.5 -341.5Q1188 -356 1197 -356Q1204 -356 1222 -347H1227Q1236 -339 1236 -321ZM1111 -422L1103 -415Q1064 -405 1066 -405Q1061 -405 1050.5 -406.5Q1040 -408 1035 -408V-452Q1073 -478 1074 -478Q1074 -478 1111 -467ZM1114 -317Q1114 -309 1099.5 -293Q1085 -277 1077 -277Q1038 -277 1038 -315Q1038 -325 1051 -340.5Q1064 -356 1074 -356Q1114 -356 1114 -317ZM1061 -1298Q1061 -1280 1033.5 -1264.5Q1006 -1249 987 -1249Q971 -1249 915 -1258Q930 -1195 930 -1199Q930 -1158 910 -1115Q895 -1084 838 -1084Q797 -1084 713 -1095.5Q629 -1107 587 -1107Q457 -1107 385 -1084Q276 -1049 270 -971Q263 -874 263 -807Q263 -782 269.5 -734Q276 -686 276 -661Q276 -533 171 -426H914V-165H262L116 28H100V-417L110 -423Q110 -425 109 -429Q109 -434 125 -463Q145 -498 146 -501Q181 -580 181 -661Q181 -703 163.5 -808.5Q146 -914 146 -956Q146 -1103 225 -1155Q252 -1173 322 -1193Q389 -1213 425 -1216Q486 -1221 499 -1221Q507 -1221 512 -1220L809 -1182Q812 -1182 817 -1181Q848 -1181 848 -1244Q848 -1257 837 -1279Q826 -1301 826 -1308Q826 -1385 954 -1385Q988 -1385 1024.5 -1358Q1061 -1331 1061 -1298ZM1323 -194L1239 28H1031L943 -218Q991 -199 1059 -132H1211Q1241 -159 1302 -213H1323ZM2133 -432Q2121 -454 2101 -499Q2072 -575 2072 -745Q2072 -786 2086 -861.5Q2100 -937 2100 -984Q2100 -977 2085 -1051Q2080 -1077 2056 -1101Q2054 -1103 2034 -1130Q2016 -1154 1905 -1182Q1849 -1196 1763 -1196Q1682 -1196 1522 -1168Q1471 -1159 1464 -1159Q1440 -1159 1430 -1164Q1398 -1180 1398 -1217Q1398 -1237 1408 -1268Q1418 -1299 1418 -1311Q1418 -1361 1367 -1361Q1232 -1361 1232 -1303Q1232 -1273 1320 -1273Q1330 -1273 1349 -1276Q1368 -1279 1377 -1279L1382 -1268Q1366 -1208 1366 -1198Q1366 -1150 1376 -1132Q1390 -1107 1435 -1107Q1425 -1107 1510 -1115Q1667 -1130 1681 -1130Q1811 -1130 1901 -1106Q1940 -1095 2006 -1018Q2015 -1007 2019 -998Q2035 -958 2035 -856Q2035 -817 2030 -740.5Q2025 -664 2025 -625Q2025 -513 2133 -432ZM1259 -1149V-1163Q1253 -1165 1249 -1165Q1246 -1165 1236 -1158V-1137L1237 -1136Q1244 -1139 1259 -1149ZM1218 -993V-1006Q1208 -1016 1204 -1016L1195 -1012V-999Q1200 -995 1210 -989Q1213 -990 1218 -993ZM1031 -1148V-1164Q1024 -1168 1020 -1168Q1019 -1168 1008 -1161V-1141Q1013 -1135 1017 -1135Q1018 -1135 1031 -1148ZM1065 -999V-1015Q1059 -1019 1056 -1019Q1052 -1019 1042 -1008Q1042 -1003 1051 -991ZM1206 -852V-868Q1203 -869 1196 -873Q1190 -869 1183 -865V-848Q1188 -843 1193 -843Q1197 -843 1206 -852ZM2146 -25V-398H1386V-192H2024ZM1075 -852V-868L1060 -874Q1058 -871 1058 -867V-856Q1058 -849 1065 -849H1067Q1072 -850 1075 -852ZM1212 -705Q1211 -729 1197 -729Q1196 -729 1186 -722Q1189 -704 1201 -697ZM1084 -716V-731L1069 -737Q1061 -730 1061 -720V-707L1067 -703Q1078 -712 1084 -716ZM1206 -569V-588Q1198 -592 1193 -592Q1183 -592 1183 -580V-572Q1183 -567 1184 -565H1199Q1204 -567 1206 -569ZM1084 -578Q1083 -584 1074 -589H1072Q1068 -589 1061 -582V-565Q1065 -564 1071 -562Q1075 -562 1084 -578ZM1209 -436V-444Q1209 -452 1200 -452Q1186 -452 1186 -437Q1186 -432 1188 -425Q1198 -425 1205 -423Q1209 -432 1209 -436ZM1209 -309V-328L1200 -331Q1192 -321 1192 -315Q1192 -314 1193 -310Q1216 -307 1207 -307V-306ZM1084 -434V-453Q1079 -455 1076 -455Q1061 -455 1061 -435Q1061 -434 1062 -428H1074Q1078 -428 1084 -434ZM1035 -1303Q1035 -1361 906 -1361Q886 -1361 867.5 -1345Q849 -1329 849 -1309Q849 -1304 862 -1279Q875 -1254 875 -1236Q875 -1159 806 -1159Q810 -1159 692 -1178Q580 -1196 509 -1196Q436 -1196 405 -1192Q383 -1186 340 -1175Q232 -1148 198 -1087Q172 -1040 172 -919Q172 -889 182 -838Q194 -779 196 -757Q204 -667 204 -664Q204 -589 171 -499Q158 -475 132 -427L137 -425Q212 -496 252 -626Q252 -625 252 -685Q252 -691 245 -742Q237 -798 237 -864Q237 -961 254 -1001Q266 -1029 304.5 -1063Q343 -1097 372 -1106Q438 -1126 526 -1126Q604 -1126 734 -1115Q834 -1107 833 -1107Q864 -1107 882 -1117Q889 -1121 898 -1152Q907 -1183 907 -1195Q907 -1195 887 -1272L898 -1282Q963 -1273 955 -1273Q1035 -1273 1035 -1303ZM1091 -320Q1091 -321 1088 -330Q1084 -331 1077 -333Q1061 -318 1061 -314Q1061 -300 1074 -300Q1091 -316 1091 -320ZM1284 -165Q1239 -128 1217 -106H1057Q1033 -126 986 -165L1047 5H1220ZM888 -192V-398H124V-21L252 -192ZM1351 -1341Q1351 -1308 1328 -1308Q1320 -1308 1304 -1324Q1311 -1340 1327 -1356Q1333 -1350 1351 -1341ZM964 -1322L951 -1309Q939 -1309 922 -1326Q922 -1343 938 -1350H958Q958 -1345 961 -1336Q964 -1327 964 -1322Z"/>
</svg>