<svg xmlns="http://www.w3.org/2000/svg" viewBox="27.6 -1493.4 1953.7 1856.7">
	<path fill="currentColor" d="M1909 -1094Q1909 -642 1514 -473Q1544 -472 1600 -468Q1675 -459 1735 -376Q1791 -299 1792 -226L1724 69Q1727 96 1735 146Q1754 188 1792 274L1780 286Q1713 272 1671 199Q1637 140 1631 74L1670 -214Q1671 -221 1671 -228Q1671 -269 1643 -307Q1611 -348 1568 -348Q1548 -348 1537 -343Q1475 -315 1475 -216Q1475 -210 1489.5 -126Q1504 -42 1504 -36Q1504 291 1217 291Q1036 291 921 173Q812 61 812 -99L836 -338Q836 -365 835 -373Q785 -386 682 -413Q662 -418 521 -468Q100 -616 100 -1113Q100 -1185 127 -1290Q157 -1407 190 -1411Q195 -1411 205 -1395Q223 -1334 240 -1273Q265 -1197 301 -1147Q331 -1105 411 -1048Q546 -952 713 -912Q722 -908 742 -904H759Q775 -1014 787 -1046Q816 -1122 895 -1165Q897 -1167 892 -1172Q738 -1157 754 -1157Q637 -1157 637 -1226Q637 -1326 755 -1381Q841 -1421 929 -1421Q1022 -1421 1140 -1325Q1240 -1244 1322 -1127Q1359 -1074 1372 -942Q1521 -1000 1583 -1038Q1717 -1119 1756 -1234Q1768 -1279 1780 -1324Q1797 -1380 1828 -1411Q1839 -1411 1849 -1395Q1909 -1252 1909 -1094ZM1890 -1099Q1890 -1154 1869 -1254Q1847 -1359 1828 -1382Q1777 -1212 1742 -1151Q1691 -1061 1535 -983Q1482 -957 1365 -913Q1357 -859 1342 -800Q1321 -718 1267 -612.5Q1213 -507 1159 -402H1175Q1499 -448 1682 -606Q1890 -788 1890 -1099ZM1768 -228Q1768 -305 1703 -377.5Q1638 -450 1558 -450Q1421 -450 1384 -292Q1364 -206 1379 -67Q1388 19 1386 29Q1351 174 1224 174Q1041 174 1041 -60Q1041 -273 1237 -608Q1348 -798 1348 -979Q1348 -1053 1312 -1103Q1101 -1396 919 -1396Q842 -1396 767 -1364Q661 -1319 661 -1233Q661 -1198 689 -1188Q705 -1182 754 -1182L1046 -1211Q1093 -1211 1124 -1194Q1122 -1192 1120 -1185.5Q1118 -1179 1116 -1177Q1028 -1191 1046 -1191Q923 -1191 849 -1093Q783 -1006 783 -887Q783 -893 830 -623Q835 -592 847 -477Q861 -338 861 -355L832 -102Q832 -72 849 -13Q929 266 1214 266Q1480 266 1480 -38Q1480 -44 1468 -124.5Q1456 -205 1456 -211Q1456 -367 1568 -367Q1684 -367 1695 -221L1656 69Q1655 114 1683 170Q1715 231 1757 249Q1704 165 1704 69Q1704 46 1745 -121Q1768 -215 1768 -228ZM1450 -444Q1390 -422 1145 -375Q1118 -323 1093 -230Q1066 -128 1066 -65Q1066 149 1222 149Q1250 149 1254 148Q1286 141 1322.5 104Q1359 67 1361 40Q1362 21 1362 0Q1362 -30 1359 -90.5Q1356 -151 1356 -181Q1356 -353 1450 -444ZM831 -402V-443L758 -884Q589 -908 439 -1000Q252 -1116 220 -1282Q208 -1317 186 -1382Q174 -1360 160 -1326Q120 -1143 120 -1106Q120 -913 202 -761Q304 -574 516 -486Q553 -471 668 -444Q747 -426 831 -402ZM841 -1312Q841 -1300 838.5 -1288Q836 -1276 836 -1275H794Q783 -1285 783 -1289Q783 -1323 810 -1323Q819 -1323 841 -1312Z"/>
</svg>