<svg xmlns="http://www.w3.org/2000/svg" viewBox="0 -2048 2048 2048">
	<path fill="#000000" d="M1141 -765L1116 -760L1101 -824L1051 -825L1054 -762L1028 -760L1025 -824H974L967 -761L941 -764L997 -1234L660 -930Q667 -899 667 -867Q667 -765 579 -580Q473 -359 456 -289Q449 -260 449 -245Q449 -82 566 -82Q582 -82 611 -100Q667 -134 667 -261Q667 -295 659.5 -363.5Q652 -432 652 -466Q652 -542 665 -589Q675 -624 715 -655Q755 -686 791 -686Q872 -686 925 -622Q975 -562 975 -479Q975 -353 939 -225Q924 -172 924 -164Q924 -117 949 -58Q974 1 974 3H1098Q1054 180 904 274Q768 359 576 359Q400 359 269 268Q128 170 100 3H437Q334 -50 305 -103Q296 -119 278.5 -174.5Q261 -230 261 -245Q261 -276 270 -338.5Q279 -401 279 -432Q279 -451 273.5 -489Q268 -527 268 -546Q268 -589 247.5 -671.5Q227 -754 227 -797Q227 -805 224.5 -820Q222 -835 222 -843Q222 -935 316 -1012Q305 -1011 263 -1007Q230 -1003 209 -1003Q135 -1003 135 -1063Q135 -1109 173 -1140Q188 -1152 245 -1181L221 -1308H417Q261 -1501 261 -1528Q261 -1579 316 -1579Q359 -1579 359 -1537Q359 -1494 329 -1494Q329 -1494 320 -1495Q333 -1515 333 -1542V-1547Q324 -1556 315 -1556Q284 -1556 284 -1528Q284 -1510 440 -1319L492 -1570H559L462 -1156Q499 -1137 563 -1073Q633 -1004 652 -958L1002 -1273L1027 -1275ZM1096 -850L1019 -1192L977 -850ZM527 -1544H513L459 -1282H252L270 -1189Q307 -1200 330 -1200Q401 -1200 440 -1179ZM952 -479Q952 -614 826 -663Q675 -663 675 -467Q675 -436 684 -374Q693 -312 693 -281Q693 -187 674 -135Q666 -112 628 -85.5Q590 -59 566 -59Q426 -59 426 -245Q426 -337 536 -552Q646 -767 646 -870Q646 -904 639 -929Q625 -978 544.5 -1060Q464 -1142 414 -1162Q384 -1174 330 -1174Q290 -1174 229 -1146Q160 -1114 160 -1081Q160 -1025 201 -1025Q240 -1025 316 -1036Q392 -1047 431 -1047Q491 -1047 491 -1027Q491 -1026 490 -1022L481 -1014Q451 -1024 417 -1024Q374 -1024 323.5 -987.5Q273 -951 260 -910Q257 -893 250 -860Q245 -840 245 -842Q245 -803 283 -622Q302 -532 302 -432Q302 -401 293 -340Q284 -279 284 -248Q284 -196 320 -121Q345 -69 411 -34Q473 -1 533 -1Q669 -1 712 -74Q712 -74 731 -121Q754 -178 754 -246Q754 -289 739 -373Q724 -457 724 -500Q724 -534 745 -571Q769 -612 801 -612Q844 -612 866 -590Q874 -582 906 -532V-390Q906 -362 892 -307Q878 -252 878 -224V-180Q878 -73 947 -8Q901 -86 901 -167Q901 -176 916 -230Q952 -361 952 -479ZM923 3Q851 -42 851 -187Q851 -240 867 -343.5Q883 -447 883 -500Q883 -585 803 -585Q779 -585 762 -552Q747 -524 747 -497Q747 -455 763.5 -372.5Q780 -290 780 -248Q780 -60 657 3ZM1064 29H132Q168 174 299 257Q420 333 576 333Q748 333 873 262Q1014 182 1064 29ZM290 -1108Q290 -1081 268 -1081Q246 -1081 246 -1106Q246 -1113 249 -1121Q256 -1128 274 -1128H279Q290 -1118 290 -1108Z"/>
</svg>