<svg xmlns="http://www.w3.org/2000/svg" viewBox="-39.8 395.2 1074.6 644.6">
  <g transform="scale(1,-1) translate(0,-1000)">
    <path d="M314 500Q314 509 329.0 515.0Q344 521 344 532Q344 538 333 538Q320 538 315 533Q298 513 298 428Q298 421 298.0 413.5Q298 406 298.0 400.5Q298 395 298.5 391.0Q299 387 299 384V382Q300 344 300 344Q311 355 321.0 359.0Q331 363 335.0 362.0Q339 361 341.5 363.0Q344 365 344 373V375Q344 384 336.0 406.5Q328 429 328 433Q314 499 314 500ZM285 536Q298 565 335 565Q348 565 359.5 556.5Q371 548 371 533Q371 503 343 492Q344 488 347.0 474.0Q350 460 352 448L355 437Q356 431 363.0 409.5Q370 388 370 378V371Q370 340 339 335Q329 333 308 314V307Q312 307 323.0 308.5Q334 310 341 311Q342 311 344 312Q355 312 359.5 304.0Q364 296 364 291Q364 284 358 278L335 253Q355 258 377 258Q426 258 543.0 203.5Q660 149 704 136Q744 124 822.0 122.5Q900 121 950 102Q974 94 982 67Q995 21 995 19Q995 12 989.5 6.0Q984 0 975 0H132Q122 2 111.0 14.5Q100 27 100 37Q100 38 105.0 46.5Q110 55 111 56Q130 71 141.0 77.5Q152 84 175.5 90.5Q199 97 230 97Q230 97 228 103Q228 106 224 110Q214 119 203.5 123.0Q193 127 177.5 130.5Q162 134 148.0 140.0Q134 146 88.5 159.0Q43 172 16 189Q0 199 0 221Q0 246 20 256Q37 264 55.5 269.5Q74 275 85.0 277.0Q96 279 118.5 282.0Q141 285 151 287Q181 293 261 302L262 314Q241 333 231 335Q200 339 200 371V378Q200 385 202.5 393.5Q205 402 212.0 428.0Q219 454 227 492Q199 505 199 533Q199 548 210.5 556.5Q222 565 235 565Q272 565 285 536ZM226 532Q226 521 241.0 515.0Q256 509 256 500Q256 499 242 433Q242 429 234.0 406.5Q226 384 226 375V373Q226 371 228 364Q228 364 240.5 361.0Q253 358 258 354Q268 346 270 344Q270 348 270.5 362.5Q271 377 271 382Q271 382 271.0 384.5Q271 387 271.5 391.0Q272 395 272.0 400.5Q272 406 272.0 413.5Q272 421 272 428Q272 513 255 533Q250 538 236 538Q226 538 226 532ZM278 202Q268 202 263.0 208.5Q258 215 258 222Q258 230 263 235L292 265Q218 258 158 248Q145 246 124.5 243.0Q104 240 94.0 238.0Q84 236 69.0 232.0Q54 228 40 221Q62 208 104.0 196.0Q146 184 164 176Q174 172 192.0 167.5Q210 163 224.0 157.0Q238 151 251 139Q264 130 270 96Q318 94 328 93L330 167Q330 175 335.5 180.5Q341 186 349 186H350Q358 186 363.5 180.0Q369 174 369 166L367 72Q367 53 348 53H347Q324 53 290.0 55.0Q256 57 241 57Q213 57 196 55Q189 54 178.5 47.5Q168 41 164 40H948Q945 61 937 65Q892 81 815.0 82.5Q738 84 692 98Q636 115 550.0 156.5Q464 198 404 214Q391 218 377 218Q362 218 330.0 211.0Q298 204 280 202ZM204 244Q220 244 220 214Q220 198 194 198Q183 198 174.5 204.5Q166 211 166 222Q166 244 204 244Z" fill="currentColor"/>
  </g>
</svg>