<svg xmlns="http://www.w3.org/2000/svg" viewBox="0 -2048 2048 2048">
	<path fill="#000000" d="M2108 -244Q2108 -227 2088 -120Q2072 -23 2056 74Q2033 176 1971 252Q1921 313 1856.5 333.5Q1792 354 1760 354Q1670 354 1623 332Q1563 303 1533 226Q1507 159 1507 104Q1507 27 1530 -125.5Q1553 -278 1553 -355Q1553 -429 1524 -491Q1488 -569 1422 -569Q1332 -569 1306 -512Q1291 -479 1291 -375Q1291 -331 1302.5 -243Q1314 -155 1314 -111Q1314 33 1279.5 112Q1245 191 1141 291Q1125 308 1088 335Q1038 358 908 358Q832 358 746 310.5Q660 263 623 198Q613 181 590 110Q567 39 567 23Q567 19 575 -33Q594 -157 594 -207Q594 -226 588 -257Q581 -294 580 -306Q580 -348 572 -433Q568 -459 540 -549Q519 -620 519 -667Q519 -876 677 -944Q533 -929 525 -929Q427 -929 427 -1013Q427 -1058 487 -1106Q537 -1146 587 -1160.5Q637 -1175 720 -1175Q751 -1175 800 -1155Q904 -1113 985 -1022Q1075 -921 1075 -819Q1075 -671 1021 -538Q958 -410 895 -282Q876 -247 843 -176Q784 -30 784 61Q784 103 793 162Q823 214 850 230Q877 246 936 246H974Q1025 246 1087 200Q1149 154 1168 105Q1180 73 1196 -16Q1207 -78 1207 -94Q1207 -101 1196 -187Q1176 -343 1176 -414Q1176 -529 1233 -597Q1293 -669 1406 -669Q1514 -669 1581 -591Q1644 -519 1650 -408Q1653 -357 1653 -275Q1653 -217 1632.5 -104.5Q1612 8 1612 66Q1612 81 1613 108Q1614 135 1614 147Q1636 194 1657 240Q1677 263 1761 263Q1838 263 1880 211Q1884 206 1896 180Q2011 -67 2011 -408Q2011 -450 2002 -517Q1990 -601 1988 -625Q1968 -872 1851 -1038Q1711 -1236 1613 -1295Q1472 -1380 1303 -1424Q1168 -1459 1074 -1459Q765 -1459 489 -1247Q463 -1229 415 -1189Q288 -1068 209 -851Q182 -777 171 -672Q163 -580 156 -489L139 -478Q127 -524 114 -570Q100 -625 100 -663Q100 -934 209.5 -1103Q319 -1272 554 -1414Q798 -1562 991 -1562Q1185 -1562 1328 -1523Q1452 -1490 1642 -1395Q1663 -1386 1703 -1363Q1960 -1184 2049 -863Q2108 -649 2108 -244ZM2085 -279Q2085 -737 1998 -956Q1960 -1052 1871 -1166Q1780 -1285 1698 -1339Q1394 -1540 1008 -1540Q807 -1540 568 -1397Q337 -1259 224 -1083Q217 -1073 187 -997Q123 -837 123 -664Q123 -650 139 -585Q170 -1137 654 -1378Q863 -1482 1073 -1482Q1170 -1482 1302.5 -1451Q1435 -1420 1522 -1376Q1522 -1376 1587 -1336Q1769 -1224 1882 -1028Q1992 -838 2010 -619Q2012 -594 2024 -514Q2034 -449 2034 -409Q2034 -243 2006 -78Q1969 143 1897 224Q1843 285 1748 285Q1650 285 1614 215Q1589 167 1589 127Q1589 50 1609.5 -101Q1630 -252 1630 -329Q1630 -496 1570 -571Q1549 -597 1510 -621Q1467 -646 1437 -646Q1199 -646 1199 -414Q1199 -359 1214.5 -251Q1230 -143 1230 -88Q1230 -60 1201 67Q1184 143 1120 205Q1052 270 977 270H889Q857 270 818 234Q781 201 770 168Q761 142 761 60Q761 -28 821 -180Q894 -329 968 -477Q1052 -651 1052 -796Q1052 -861 1037 -900Q1007 -979 905 -1063Q798 -1152 719 -1152Q652 -1152 607 -1142Q562 -1132 510 -1095Q450 -1052 450 -1013Q450 -951 516 -951Q571 -951 724 -973Q807 -985 816 -985Q827 -985 855.5 -975Q884 -965 884 -958Q883 -956 880 -947H866Q829 -962 815 -962Q791 -962 730 -950Q729 -949 694 -929Q543 -843 543 -716Q543 -698 545.5 -662Q548 -626 548 -608Q548 -574 568 -521Q591 -458 595 -435Q597 -392 603 -307Q604 -295 612 -258Q618 -228 618 -209Q618 -205 617 -197L590 23Q588 35 611.5 103.5Q635 172 644 188Q696 274 826 317Q877 334 876 334H982Q1034 334 1079 313Q1114 296 1165 245Q1213 195 1233 158Q1291 52 1291 -113Q1291 -153 1280.5 -232Q1270 -311 1270 -351V-390Q1270 -489 1292 -531Q1323 -592 1412 -592Q1497 -592 1541 -507Q1576 -439 1576 -345Q1576 -271 1554.5 -124.5Q1533 22 1533 96Q1533 115 1541 157Q1562 268 1615 301Q1658 328 1778 328Q1930 328 2010 149Q2034 95 2060 -61Q2085 -208 2085 -279ZM623 -1061Q623 -1036 598 -1036Q581 -1036 566 -1059Q580 -1086 600 -1086Q623 -1086 623 -1061Z"/>
</svg>