<svg xmlns="http://www.w3.org/2000/svg" viewBox="0 -2048 2048 2048">
	<path fill="#000000" d="M1017 306L1004 319Q945 303 913 225Q888 165 888 102L920 -228Q920 -261 904 -298Q883 -346 851 -346Q818 -346 795 -309Q775 -276 775 -241L808 51Q808 319 540 319Q324 319 262 70Q255 43 264 -65Q280 -262 259 -364Q246 -420 233 -475Q217 -541 217 -585Q217 -626 229 -659Q225 -663 208 -663Q208 -665 205 -674Q202 -683 202 -689Q202 -737 273 -802Q324 -846 374 -891V-905Q315 -936 269 -936Q264 -936 244 -933Q224 -930 215 -930Q186 -930 107 -986Q107 -990 103.5 -1006Q100 -1022 100 -1029Q100 -1078 154 -1109Q206 -1136 257 -1162Q291 -1185 331 -1217Q332 -1220 327 -1223Q288 -1235 259 -1295Q234 -1346 234 -1388Q234 -1423 250 -1470Q270 -1526 300 -1551H325Q304 -1476 304 -1434Q304 -1376 325.5 -1341Q347 -1306 410 -1258Q426 -1246 494 -1246Q521 -1246 561 -1270Q605 -1297 624 -1331Q644 -1388 686 -1498Q702 -1495 714.5 -1467Q727 -1439 727 -1415Q727 -1360 696 -1302Q660 -1234 599 -1206Q607 -1198 612 -1198Q617 -1198 626 -1203.5Q635 -1209 644 -1209Q677 -1209 716 -1180Q714 -1177 674 -1137Q697 -1114 717.5 -1039Q738 -964 738 -906Q738 -908 729 -825Q722 -762 731 -714Q734 -700 732 -663Q695 -670 686 -624Q682 -587 677 -551Q665 -505 634 -417Q584 -314 535 -211Q454 -32 454 32Q454 92 481 141Q516 206 583 206Q642 206 672 137Q695 85 695 16L674 -215Q674 -281 697 -360Q705 -389 750 -421Q795 -453 821 -453Q904 -453 958.5 -391Q1013 -329 1017 -233L963 123Q964 158 1017 306ZM384 -1250Q282 -1300 282 -1431Q282 -1437 283.5 -1461Q285 -1485 285 -1493Q261 -1420 261 -1388Q261 -1241 360 -1241Q375 -1241 384 -1250ZM711 -690V-950Q682 -1123 641 -1123Q634 -1123 605.5 -1117.5Q577 -1112 572 -1112Q555 -1112 545 -1130Q579 -1135 645 -1146Q653 -1148 679 -1174Q665 -1182 644 -1182Q637 -1182 593 -1163.5Q549 -1145 542 -1145Q535 -1145 534 -1162Q534 -1183 529 -1190Q641 -1272 662 -1296Q700 -1339 700 -1407Q700 -1434 692 -1450Q682 -1403 656 -1331Q643 -1308 585 -1261Q501 -1193 494 -1187Q491 -1190 487 -1192Q483 -1194 480 -1197Q480 -1212 491 -1223Q479 -1223 456 -1226.5Q433 -1230 427 -1230Q390 -1230 364 -1212Q330 -1187 273 -1145Q127 -1082 127 -1040Q127 -1024 157 -1005Q168 -1027 183 -1027Q193 -1027 197 -1023V-1004Q181 -988 181 -991Q199 -976 231 -958Q325 -941 355 -941Q366 -941 371 -946L384 -936Q414 -950 451 -978Q460 -969 465 -969Q458 -931 401 -918Q404 -878 321 -814Q234 -746 229 -690ZM995 -225Q970 -426 832 -426Q810 -426 793 -419Q695 -378 695 -233L722 21Q722 92 694 149Q656 228 577 228Q432 228 432 40Q432 -58 534 -271Q647 -507 659 -573Q673 -647 673 -637V-661H240L247 -653Q246 -640 242 -617Q239 -598 239 -592Q239 -622 286 -359Q306 -247 291 -81Q282 24 284 59Q288 115 351 195Q418 281 478 291Q484 292 545 292Q631 292 671 273Q732 245 761 161Q786 88 786 51L754 -225Q754 -273 775 -318Q802 -373 845 -373Q893 -373 923 -319Q947 -275 947 -228L915 86Q915 208 973 267Q941 195 942 147ZM422 -1098Q410 -1086 403 -1086Q397 -1086 396 -1093Q395 -1096 389.5 -1096Q384 -1096 364.5 -1102Q345 -1108 337 -1108V-1128Q353 -1128 364 -1149H399Q408 -1132 422 -1098Z"/>
</svg>