<svg xmlns="http://www.w3.org/2000/svg" viewBox="0 0 994 1000">
  <g transform="scale(1,-1) translate(0,-1000)">
    <path d="M245 423Q245 471 202.0 523.0Q159 575 93 575Q88 575 68 574L48 572Q43 571 37.0 558.5Q31 546 31 537Q31 526 38.0 509.5Q45 493 51 491Q52 491 58.5 492.0Q65 493 73 493Q125 493 165.0 475.0Q205 457 205 423Q205 423 203.5 399.5Q202 376 200.0 341.0Q198 306 196.5 269.5Q195 233 193.5 201.0Q192 169 192 157Q192 30 285 30Q335 30 362.0 55.5Q389 81 395.5 120.0Q402 159 403.0 200.0Q404 241 409.0 280.0Q414 319 430 335Q448 353 483 353Q493 353 499.0 350.0Q505 347 510.5 331.0Q516 315 516 285Q516 266 513.5 227.5Q511 189 511 171Q511 43 602 43Q651 43 679.0 71.5Q707 100 715.5 142.5Q724 185 727.0 228.0Q730 271 736.5 306.5Q743 342 761 350Q768 353 778 353Q809 353 824.0 318.5Q839 284 840.5 239.5Q842 195 851.5 146.5Q861 98 882 77Q902 57 953 57Q960 57 964 58Q962 66 947.0 73.0Q932 80 915.0 93.0Q898 106 893 127Q888 149 884.0 205.0Q880 261 870.5 303.5Q861 346 838 369Q814 393 778 393Q735 393 715.0 361.0Q695 329 691.5 283.5Q688 238 684.5 192.5Q681 147 662.0 115.0Q643 83 601 83Q576 83 563.5 100.5Q551 118 551 170Q551 189 553.5 228.0Q556 267 556 284Q556 393 483 393Q431 393 402 364Q380 342 371.5 302.0Q363 262 363.5 224.0Q364 186 361.0 150.0Q358 114 340.0 92.0Q322 70 284 70Q275 70 269.0 71.5Q263 73 253.0 80.0Q243 87 237.5 106.5Q232 126 232 156Q232 188 238.5 304.0Q245 420 245 423ZM285 0Q234 0 198.0 34.5Q162 69 162 157Q162 311 175 424Q174 438 145.5 450.5Q117 463 73 463Q66 463 60.0 462.0Q54 461 51 461Q29 461 15.0 487.5Q1 514 1 537Q1 563 18 585Q15 591 15 592L3 716V718Q3 732 17 732H187Q171 740 163 743Q74 781 37.0 812.0Q0 843 0 891V897Q0 919 14.5 932.0Q29 945 41.0 947.5Q53 950 61 950Q85 950 95.5 931.0Q106 912 106 894V893Q106 878 97.0 868.0Q88 858 81.5 856.0Q75 854 72 854H67Q55 854 47.0 861.5Q39 869 39 881Q39 890 44.0 899.0Q49 908 58 908Q71 908 71 895Q71 889 67 885Q66 883 66 882V881H68Q80 885 80 893Q80 894 79.5 896.0Q79 898 79 900Q74 923 61 923Q26 923 26 897V891Q26 853 58.5 827.5Q91 802 175 766Q219 747 236 739L352 942Q356 949 365 949Q366 949 372.5 946.5Q379 944 385.5 939.0Q392 934 392.0 928.0Q392 922 314.5 746.0Q237 570 232 559Q229 551 219 551H218Q275 490 275 423Q275 417 268.5 301.5Q262 186 262 156Q262 112 272 102Q274 100 284 100Q314 100 323.0 120.0Q332 140 334 213Q336 257 337.0 277.0Q338 297 349.0 330.5Q360 364 381 385Q419 423 483 423Q525 423 555.5 393.0Q586 363 586 284Q586 266 583.5 227.5Q581 189 581 170Q581 148 584 131Q584 117 592 114Q592 114 595.0 113.5Q598 113 601 113Q613 113 620.0 115.0Q627 117 634.5 127.0Q642 137 647 156Q653 180 656.5 232.5Q660 285 669.5 326.5Q679 368 704 393Q734 423 778 423Q814 423 847.5 400.5Q881 378 898 318Q907 285 912.5 218.5Q918 152 922 134Q925 122 937.0 113.5Q949 105 961.5 100.0Q974 95 984.0 83.0Q994 71 994 53Q994 27 953 27Q924 27 902.0 33.0Q880 39 865.5 53.5Q851 68 842.0 81.0Q833 94 827.5 119.0Q822 144 819.5 159.5Q817 175 814 206Q802 323 781 323H774Q766 315 762.5 283.0Q759 251 755.0 204.5Q751 158 744 131Q713 13 602 13Q553 13 517.0 47.0Q481 81 481 171Q481 190 483.5 229.0Q486 268 486 285Q486 312 482 323Q453 323 444.5 303.5Q436 284 434 211Q433 168 431.0 147.0Q429 126 418.0 92.5Q407 59 386 38Q348 0 285 0ZM88 565Q111 565 111.0 548.0Q111 531 88 531Q79 531 71.5 535.5Q64 540 64.0 548.0Q64 556 71.5 560.5Q79 565 88 565ZM241 703H33L43 609Q144 609 168.5 606.0Q193 603 213 588L309 809L254 711Q250 703 241 703Z" fill="currentColor"/>
  </g>
</svg>