<svg xmlns="http://www.w3.org/2000/svg" viewBox="21.3 -1652.7 1121.4 2124.4">
	<path fill="currentColor" d="M1064 358Q1047 379 1035 379Q1022 379 983.5 365.5Q945 352 935 344Q913 328 877 293Q814 203 791 54Q781 -9 771 -198Q768 -249 723 -249Q660 -249 660 -99Q660 -93 671.5 12Q683 117 683 123Q683 319 547 372Q493 393 463 393Q351 393 280 293Q220 208 220 112Q220 52 273 -104Q308 -205 365 -378Q398 -471 431 -564Q494 -748 494 -782Q494 -848 432 -890Q409 -906 380 -908Q158 -925 158 -999Q158 -1019 220 -1039Q256 -1050 292 -1061Q288 -1077 263 -1083Q247 -1087 200 -1090Q186 -1091 148 -1110Q100 -1134 100 -1159V-1183Q110 -1183 119 -1192Q143 -1169 159 -1165Q172 -1221 185 -1277Q202 -1334 234 -1374Q211 -1406 211 -1417Q211 -1434 234 -1453Q254 -1467 274 -1482Q268 -1492 268 -1505Q268 -1530 287.5 -1552Q307 -1574 333 -1574Q354 -1574 374 -1551.5Q394 -1529 394 -1504Q394 -1494 391 -1486Q392 -1475 407 -1474Q418 -1473 430 -1473Q458 -1466 458 -1424Q458 -1394 436 -1383Q476 -1325 511 -1165Q522 -1175 542 -1188Q556 -1174 561 -1174Q555 -1145 528 -1118.5Q501 -1092 474.5 -1090.5Q448 -1089 403 -1083Q393 -1080 382 -1061Q479 -1035 539 -947Q593 -869 593 -784Q593 -735 587 -718Q520 -519 379 -125Q362 -79 326 94Q319 128 319 132Q319 187 360 241Q403 298 454 298Q496 298 542.5 262Q589 226 589 183V45Q589 39 582 -50.5Q575 -140 575 -146Q575 -240 604 -284Q641 -339 732 -339Q816 -339 846 -225Q855 -153 864 -81Q871 -13 886 116Q894 179 939 247Q992 325 1064 358ZM369 -1500Q344 -1547 333 -1547Q322 -1547 307 -1532.5Q292 -1518 292 -1504Q292 -1494 306.5 -1480Q321 -1466 335 -1466Q369 -1466 369 -1500ZM346 -1427L340 -1444Q324 -1436 324 -1427ZM480 -1166V-1195Q480 -1219 444 -1296Q419 -1346 395 -1396Q408 -1402 431 -1413V-1438Q421 -1448 405 -1448Q373 -1448 373 -1426Q373 -1421 389 -1365Q407 -1301 412 -1275Q422 -1223 428 -1152Q483 -1166 480 -1166ZM400 -1144V-1218Q400 -1260 350 -1399Q315 -1393 307 -1394Q261 -1251 261 -1225V-1139Q277 -1143 302 -1127Q327 -1111 330 -1094Q342 -1138 400 -1144ZM526 -1156Q448 -1138 405 -1116Q376 -1116 358 -1086L364 -1082Q379 -1094 448 -1115Q511 -1134 526 -1156ZM292 -1424Q292 -1444 268 -1444Q243 -1444 243 -1417Q243 -1411 256 -1396Q269 -1381 270 -1375Q248 -1363 218 -1297Q189 -1235 189 -1208V-1180Q207 -1174 233 -1159Q233 -1237 262 -1338Q266 -1353 280 -1389Q292 -1419 292 -1424ZM306 -1086Q288 -1116 259 -1116Q216 -1138 138 -1156Q153 -1134 216 -1115Q285 -1094 300 -1082ZM988 338Q944 295 929 277Q896 239 886 210Q854 116 840 -34Q820 -237 820 -239Q814 -276 794 -288Q755 -312 728 -312Q598 -312 598 -160L616 143Q616 211 577 263Q531 325 452 325Q384 325 337 252Q297 191 297 130Q297 5 431.5 -355Q566 -715 566 -786Q566 -872 507 -949Q440 -1035 344 -1035Q259 -1035 189 -995Q200 -989 217 -978Q216 -973 218 -964Q250 -946 402 -930Q438 -926 479 -882Q521 -835 521 -791Q521 -752 443 -522Q342 -228 336 -207Q309 -132 283 -57Q247 48 247 110Q247 203 302 279Q365 366 467 366Q552 366 608 293Q660 225 660 137L634 -115Q634 -172 652 -216Q675 -276 723 -276Q744 -276 765 -258Q789 -237 793 -207Q800 -117 806 -27Q817 98 850 189Q866 233 905 278Q949 328 988 338ZM346 -1006Q341 -994 327 -968Q322 -968 311 -976.5Q300 -985 297 -986V-1017Q307 -1026 317 -1026Q326 -1026 346 -1006Z"/>
</svg>