<svg xmlns="http://www.w3.org/2000/svg" viewBox="10.7 -1195.3 2411.6 1404.6">
	<path fill="currentColor" d="M1923 -324H1901Q1889 -337 1868 -359Q1863 -361 1849 -361Q1842 -417 1791 -477Q1783 -413 1783 -365Q1783 -360 1799 -332Q1818 -300 1823 -289Q1839 -250 1839 -220Q1839 -208 1836 -204.5Q1833 -201 1826 -194Q1830 -185 1830 -156Q1823 -151 1822 -115Q1829 -104 1818 -104Q1805 -104 1807 -106Q1822 -86 1858 -41Q1851 -34 1844 -34Q1827 -34 1762 -99Q1758 -97 1749 -90H1728Q1774 -172 1774 -237Q1774 -262 1766 -281Q1751 -262 1717 -227Q1692 -215 1638 -186Q1626 -170 1613 -155Q1591 -127 1576 -127Q1561 -127 1543 -152Q1516 -189 1514 -191Q1492 -201 1453 -222Q1423 -242 1394 -290Q1373 -255 1373 -225Q1373 -202 1388 -168Q1401 -140 1414 -111V-90Q1404 -95 1385 -104Q1372 -86 1360 -67Q1335 -34 1319 -34H1294Q1345 -105 1345 -106Q1345 -112 1337 -115Q1337 -131 1333 -163Q1310 -170 1318 -170Q1316 -190 1320 -204Q1320 -205 1314 -208Q1308 -211 1308 -218Q1308 -230 1314 -247Q1322 -269 1349 -322Q1373 -368 1373 -374Q1373 -391 1361 -472Q1356 -464 1325 -406Q1304 -365 1298 -365Q1300 -365 1291 -374Q1277 -351 1244 -323Q1242 -325 1238.5 -331Q1235 -337 1233 -339Q1245 -351 1266 -382Q1266 -372 1252 -400Q1262 -413 1271 -425Q1280 -437 1278 -452Q1320 -510 1351 -524Q1369 -543 1406 -582Q1413 -582 1429 -587Q1416 -599 1416 -610Q1416 -619 1418 -639.5Q1420 -660 1420 -669Q1423 -668 1378 -668Q1308 -668 1308 -701Q1308 -689 1374 -891Q1377 -895 1389 -897Q1396 -907 1406 -947Q1418 -947 1426 -939Q1436 -960 1459 -1004L1469 -994Q1480 -998 1480 -1029Q1480 -1035 1471 -1059.5Q1462 -1084 1462 -1090Q1462 -1095 1473 -1106Q1497 -1092 1509 -1058.5Q1521 -1025 1516 -1002Q1506 -999 1517 -999Q1524 -999 1526.5 -1001Q1529 -1003 1530 -1003Q1532 -998 1536 -992Q1420 -869 1368 -735V-723Q1375 -719 1403 -719Q1436 -719 1444 -733Q1464 -765 1474 -774Q1467 -797 1490 -858Q1516 -925 1550 -925Q1562 -925 1572 -901H1589Q1593 -905 1593 -920H1617Q1634 -920 1657 -878Q1676 -842 1679 -826Q1682 -810 1686 -775Q1703 -775 1708 -751Q1715 -721 1721 -715L1798 -718Q1735 -892 1625 -987Q1632 -997 1643 -1002Q1639 -1006 1639 -1018Q1639 -1033 1656 -1065Q1673 -1097 1687 -1101H1704Q1699 -1069 1681 -1007Q1683 -1005 1685 -1000.5Q1687 -996 1689 -994Q1690 -994 1696 -998Q1700 -1001 1703 -998Q1718 -983 1736 -938Q1737 -938 1743 -942.5Q1749 -947 1754 -947Q1769 -887 1774 -887Q1781 -887 1783.5 -889Q1786 -891 1787 -891L1853 -701Q1853 -688 1843 -668H1736Q1736 -645 1736 -623Q1735 -596 1718 -582Q1731 -578 1750 -568Q1788 -543 1856 -481Q1877 -456 1883.5 -438Q1890 -420 1903 -384Q1896 -391 1891 -386Q1903 -365 1923 -324ZM2333 68Q2314 81 2276 100Q2238 111 2187 111Q2177 111 1958 85Q1705 55 1538 55L741 120Q545 120 418 35Q263 -70 263 -279Q263 -378 294 -498Q309 -557 339 -662Q352 -702 365 -742Q384 -802 384 -834Q384 -892 356 -892Q350 -892 315.5 -887.5Q281 -883 275 -883Q176 -883 129 -917Q100 -938 100 -964Q100 -1002 191 -1027Q256 -1046 289 -1046Q324 -1046 373 -1025Q410 -1009 441 -961Q456 -945 476 -914Q477 -911 477 -866Q477 -823 476 -819Q441 -692 405 -566Q351 -366 351 -295Q351 -186 385 -126Q430 -46 539 -1Q631 36 727 36L1434 -29Q1439 -29 1494 -26Q1558 -22 1585 -21Q1673 -17 1744 -9Q1823 0 2006 27Q2169 50 2173 50Q2178 50 2197 46.5Q2216 43 2224 43Q2284 39 2333 51ZM990 -619Q985 -612 985 -608H744L647 -1036ZM976 -76H735L641 -488Q641 -499 653 -505L976 -93ZM1834 -683V-718Q1834 -717 1781 -852Q1768 -854 1761 -863Q1749 -889 1749 -910Q1745 -906 1737 -906Q1729 -906 1718 -933Q1703 -970 1702 -971Q1698 -967 1690 -967Q1667 -967 1667 -1011Q1667 -1021 1679 -1069Q1657 -1041 1657 -1004Q1657 -984 1660 -977Q1682 -949 1717 -902Q1811 -765 1811 -710Q1811 -699 1808 -696H1723Q1723 -691 1729 -682Q1799 -690 1834 -683ZM1668 -776Q1668 -809 1659 -836Q1650 -830 1646 -830Q1657 -820 1664 -805Q1658 -795 1668 -776ZM1653 -851Q1637 -884 1607 -906Q1608 -887 1603 -882H1567Q1567 -882 1543 -906Q1540 -903 1504 -852Q1557 -831 1578 -831Q1603 -831 1653 -851ZM1646 -795Q1646 -801 1634 -813Q1633 -812 1633 -790Q1637 -790 1646 -795ZM1615 -790Q1614 -792 1614 -822Q1567 -798 1547 -821V-790Q1568 -793 1584 -793Q1601 -793 1615 -790ZM1653 -763Q1643 -773 1643 -774Q1613 -780 1583 -780Q1535 -780 1513 -763Q1653 -763 1653 -763ZM1526 -790Q1526 -811 1524 -813Q1513 -802 1513 -795Q1517 -791 1526 -790ZM1513 -830Q1509 -830 1500 -836Q1491 -809 1491 -776Q1493 -777 1494 -778Q1500 -782 1498 -789Q1495 -800 1495 -805Q1502 -820 1513 -830ZM1877 -404Q1861 -420 1836 -467Q1818 -502 1789 -513Q1822 -447 1865 -398Q1870 -403 1877 -404ZM1503 -979Q1497 -981 1497 -1023Q1503 -978 1469 -966Q1460 -975 1458 -975Q1444 -919 1422 -906L1412 -915Q1409 -898 1404.5 -879Q1400 -860 1379 -854Q1367 -812 1345 -754Q1326 -704 1326 -703Q1326 -692 1332 -692Q1325 -692 1352 -689.5Q1379 -687 1428 -687Q1428 -689 1430.5 -696Q1433 -703 1433 -705Q1431 -705 1383 -703Q1354 -702 1345 -717Q1393 -850 1503 -979ZM1723 -628Q1723 -661 1689 -752Q1653 -743 1580 -743Q1535 -743 1472 -752Q1439 -697 1434 -608Q1479 -570 1566 -570Q1723 -570 1723 -628ZM1620 -555H1546Q1570 -531 1575 -519Q1591 -532 1620 -555ZM1774 -430Q1774 -565 1706 -565Q1682 -565 1639 -541.5Q1596 -518 1583 -498V-197H1617Q1639 -197 1679 -221Q1716 -244 1730 -263Q1762 -306 1768 -343.5Q1774 -381 1774 -430ZM1820 -230Q1806 -279 1782 -327Q1769 -327 1769 -311Q1769 -305 1778.5 -270.5Q1788 -236 1788 -230Q1788 -206 1766 -118Q1794 -132 1790 -132Q1797 -132 1801 -130Q1805 -128 1806 -128Q1806 -131 1800 -158Q1796 -176 1803.5 -184.5Q1811 -193 1807 -205Q1803 -221 1803 -223Q1802 -226 1810 -234Q1814 -234 1820 -230ZM1568 -197V-503Q1569 -523 1526 -545Q1477 -570 1434 -570Q1382 -570 1382 -446Q1382 -263 1505 -214Q1548 -197 1548 -197ZM1372 -518Q1342 -510 1325 -484Q1328 -475 1321 -468Q1310 -458 1309 -455Q1298 -434 1285 -403Q1300 -403 1300 -393Q1315 -427 1372 -518ZM1610 -182Q1593 -179 1574 -179Q1555 -179 1541 -182Q1565 -146 1578 -146Q1599 -146 1610 -182ZM2306 61Q2260 60 2213 62Q2161 64 2168 64Q2163 64 2059 48Q1938 30 1889 24Q1738 5 1623 -2Q1494 -10 1448 -10L718 50Q650 50 597 40Q536 29 463 -25Q386 -80 362 -135Q333 -200 333 -297Q333 -365 392 -567Q440 -733 462 -828Q463 -832 463 -866Q463 -929 405.5 -978Q348 -1027 286 -1027Q243 -1027 195 -1013Q132 -995 118 -964Q128 -961 146 -954V-942Q141 -937 132 -937Q145 -922 198 -909Q246 -897 277 -897Q283 -897 315.5 -901.5Q348 -906 354 -906Q403 -906 403 -836Q403 -812 361 -670Q339 -596 317 -522Q282 -385 282 -283Q282 -190 287 -175Q377 102 753 102L1541 34L2201 97Q2255 97 2306 61ZM962 -622L670 -990L758 -622ZM1387 -123Q1359 -180 1359 -220Q1359 -226 1370.5 -267Q1382 -308 1382 -314Q1382 -320 1379 -328.5Q1376 -337 1376 -341Q1331 -263 1331 -244Q1331 -238 1336 -218.5Q1341 -199 1342 -190Q1345 -189 1348 -184Q1351 -148 1350 -132Q1355 -132 1369 -127.5Q1383 -123 1387 -123ZM953 -91L665 -458L749 -91ZM281 -973L270 -962Q250 -972 240 -982V-998Q245 -1003 266 -1013L281 -998Z"/>
</svg>