<svg xmlns="http://www.w3.org/2000/svg" viewBox="-37.1 566.9 1001.2 470.2">
  <g transform="scale(1,-1) translate(0,-1000)">
    <path d="M765 283Q760 280 757.0 237.5Q754 195 749.5 147.5Q745 100 716.5 60.5Q688 21 637 21Q543 21 543 141Q543 155 545.0 208.5Q547 262 547.0 275.0Q547 288 545 298Q522 294 519 170Q518 140 515.5 120.0Q513 100 503.0 71.5Q493 43 468.0 27.5Q443 12 405 12Q312 12 312 132Q312 146 314.0 211.5Q316 277 316 290Q316 302 314 312Q301 310 295 284Q290 264 288 161Q288 137 286.5 122.0Q285 107 278.5 81.5Q272 56 260.5 40.5Q249 25 226.0 12.5Q203 0 171 0Q135 0 80 5Q59 7 29.5 25.5Q0 44 0 66Q0 86 27.0 107.0Q54 128 73 131Q81 132 97 132Q117 132 142.0 116.0Q167 100 171 100Q193 100 200.0 130.5Q207 161 207.0 204.5Q207 248 212.0 291.5Q217 335 243.0 365.5Q269 396 319 396Q399 396 399 289Q399 276 397.0 210.5Q395 145 395 131Q397 97 401 95H405Q418 95 423.0 99.0Q428 103 432.0 123.0Q436 143 436 187Q436 213 437.0 227.0Q438 241 441.0 268.5Q444 296 451.5 312.0Q459 328 471.0 346.0Q483 364 503.0 372.5Q523 381 550 381Q630 381 630 275Q630 262 628.0 208.5Q626 155 626 141Q626 104 636 104Q643 104 647.5 105.0Q652 106 657.0 112.5Q662 119 665 132Q667 138 674.0 227.5Q681 317 707 343Q730 366 765 366Q835 366 857 286Q864 261 868.0 194.5Q872 128 875 115Q877 107 890.0 100.0Q903 93 915.0 83.0Q927 73 927 55Q927 32 892 32Q865 32 845.5 40.5Q826 49 815.5 60.0Q805 71 798.5 94.5Q792 118 790.0 134.0Q788 150 785 182Q777 277 767 283ZM89 97Q112 97 112.0 80.0Q112 63 89 63Q80 63 72.5 67.5Q65 72 65.0 80.0Q65 88 72.5 92.5Q80 97 89 97ZM550 354Q512 354 491.5 333.0Q471 312 467.5 280.0Q464 248 462.5 211.0Q461 174 461.0 142.0Q461 110 447.0 89.0Q433 68 405 68Q387 68 378.0 80.5Q369 93 369 131Q369 145 370.5 211.0Q372 277 372 289Q372 369 319 369Q281 369 260 348Q242 330 236.5 288.5Q231 247 231.0 192.0Q231 137 226 112Q222 87 209.5 78.5Q197 70 171 70Q157 70 132.0 86.0Q107 102 97 102Q76 102 63 95Q36 79 30 66Q34 57 53.0 46.5Q72 36 83 35Q146 30 171 30H173Q209 30 229.0 56.0Q249 82 254.0 122.0Q259 162 260.0 202.5Q261 243 264.5 279.0Q268 315 280 327Q293 340 319 340Q326 340 330.5 337.5Q335 335 339.0 323.5Q343 312 343 290Q343 276 341.0 210.5Q339 145 339 132Q339 39 405 39Q449 39 469.5 76.0Q490 113 490.0 158.5Q490 204 493.5 251.0Q497 298 511 312Q524 325 550 325Q557 325 561.5 322.5Q566 320 570.0 308.5Q574 297 574 275Q574 261 572.0 207.5Q570 154 570 141Q570 48 637 48Q675 48 696.0 75.0Q717 102 722.0 140.5Q727 179 728.5 217.5Q730 256 738.0 283.0Q746 310 765 310Q788 310 799.0 279.0Q810 248 811.0 209.0Q812 170 819.0 129.0Q826 88 841.0 73.0Q856 58 892 58Q897 58 900 59Q899 64 876.5 76.0Q854 88 849 109Q845 126 842.0 175.5Q839 225 832.0 265.0Q825 305 808.0 322.0Q791 339 765 339Q734 339 719.5 312.0Q705 285 702.5 246.5Q700 208 697.5 169.5Q695 131 681.0 104.0Q667 77 636 77Q618 77 609.0 90.0Q600 103 600 141Q600 155 601.5 209.0Q603 263 603 275Q603 354 550 354Z" fill="currentColor"/>
  </g>
</svg>