<svg xmlns="http://www.w3.org/2000/svg" viewBox="0 -2048 2048 2048">
	<path fill="currentColor" d="M1782 -213Q1782 -224 1775 -80Q1739 -54 1596 -25Q1450 5 1354 5L1088 -15L825 5Q761 5 706 -20Q636 -50 632 -104Q641 -124 662 -126Q728 -127 875 -152Q551 -134 573 -134Q436 -134 301 -180Q100 -248 100 -383Q100 -434 137 -481Q176 -532 228 -532Q270 -532 309.5 -498.5Q349 -465 349 -427Q349 -394 325 -361.5Q301 -329 267 -322Q267 -325 264 -335Q261 -345 261 -348Q322 -359 322 -424Q322 -458 285 -483Q254 -504 230 -504Q179 -504 150 -456Q128 -420 128 -383Q128 -250 340 -193Q461 -161 598 -161Q874 -161 980 -203Q839 -236 698 -268Q477 -332 477 -438Q477 -465 511 -486Q539 -504 573 -508Q640 -519 756 -535Q1085 -571 1121 -571Q1357 -571 1782 -437ZM1760 -96V-420Q1314 -549 1163 -549Q1079 -549 662 -497Q607 -490 528 -469Q504 -463 504 -441Q504 -334 838 -259Q910 -244 1054 -209Q1058 -207 1058 -198Q986 -145 865 -125Q763 -112 660 -99Q671 -70 725 -46Q775 -23 817 -23L1088 -42L1373 -23Q1502 -23 1760 -96ZM1213 -380Q1213 -364 1191.5 -348.5Q1170 -333 1160 -333Q1139 -333 1109 -349Q1074 -368 1074 -391Q1074 -443 1138 -443Q1166 -443 1189.5 -424Q1213 -405 1213 -380ZM1185 -378V-398Q1179 -416 1141 -416Q1115 -416 1102 -403V-378Q1129 -360 1157 -360Q1167 -360 1185 -378Z"/>
</svg>