<svg xmlns="http://www.w3.org/2000/svg" viewBox="0 -2048 2048 2048">
	<path fill="currentColor" d="M2095 -53Q2095 -42 2078 -26Q2061 -10 2050 -10Q2051 -10 2011 -18Q1971 -26 1920 -33Q1842 -45 1686 -67Q1629 -74 1456 -88Q1345 -97 1341 -97H1337Q1329 -97 1323 -95Q1323 -88 1326 -75Q1329 -62 1329 -55Q1329 -40 1315.5 -25Q1302 -10 1287 -10Q1273 -10 1245 -16.5Q1217 -23 1203 -23Q1192 -23 1181.5 -16.5Q1171 -10 1168 -10H1114Q1113 -17 1110 -23Q1108 -23 1108 -22Q1108 -22 1107 -22Q1101 -22 1087 -42L1091 -49L1074 -58V-66Q1074 -72 1087 -80Q1084 -81 1080 -81Q1075 -81 1069 -79L1065 -88Q1050 -92 1034 -91Q957 -87 957 -87Q845 -87 744 -126Q735 -102 735 -98Q735 -91 739.5 -75.5Q744 -60 744 -53Q744 -43 733.5 -26.5Q723 -10 714 -10Q704 -10 674.5 -16.5Q645 -23 636 -22L538 -10Q525 -8 497 -16V-26Q494 -31 487 -31Q483 -31 476 -28Q469 -25 465 -25Q463 -25 459.5 -29Q456 -33 451 -34Q453 -47 453 -53Q453 -67 445 -70Q456 -85 456 -88Q456 -95 452 -99Q457 -129 507 -124L600 -115V-114Q601 -115 601 -117Q601 -132 595 -176Q595 -176 556 -190Q493 -212 371 -287Q347 -301 255 -343Q215 -360 176 -378Q121 -405 110.5 -428Q100 -451 100 -451Q100 -470 124 -518Q127 -524 150 -535.5Q173 -547 180 -547Q199 -540 222 -532Q310 -501 354 -501Q382 -501 440 -511Q438 -528 431 -561Q429 -568 414 -578Q399 -588 392 -588Q379 -588 353.5 -584Q328 -580 315 -580Q196 -580 149 -654Q129 -686 129 -691Q129 -715 164 -715Q166 -715 201.5 -692.5Q237 -670 243 -667Q282 -650 302 -653L404 -670L407 -669L420 -670Q370 -738 370 -817Q370 -843 383 -873Q398 -908 420 -911Q399 -920 359 -939Q357 -954 357 -952Q357 -1012 433 -1012Q473 -1012 511 -982Q552 -949 552 -911Q552 -884 528 -817.5Q504 -751 504 -721Q504 -697 522 -676Q530 -667 549 -667Q554 -667 572 -671.5Q590 -676 594 -675L709 -657Q730 -654 780 -679Q830 -704 833 -704Q852 -704 852 -682Q852 -650 807 -613Q762 -576 729 -580Q597 -595 597 -595Q572 -595 550 -569.5Q528 -544 528 -518Q528 -510 554 -490Q705 -371 952 -371H1065L1527 -1052Q1532 -1049 1540 -1050L1728 -439L1709 -433Q1697 -469 1689 -487Q1672 -483 1637 -474Q1639 -468 1647 -427Q1640 -425 1626 -422Q1618 -454 1616 -470Q1579 -467 1540 -454V-405H1518V-1005L1092 -374Q1204 -365 1358 -307Q1486 -253 1614 -199Q1641 -188 1689 -177L1901 -130Q1929 -124 1984 -113Q2095 -93 2095 -53ZM1683 -509L1541 -959V-481ZM2070 -56Q2070 -75 1968 -95L1745 -139Q1673 -154 1589 -187Q1488 -231 1388 -275Q1267 -326 1180 -342Q1153 -347 1141 -347Q1137 -347 914 -349Q877 -349 777 -370Q746 -379 683 -395Q650 -402 600 -436Q535 -480 522 -487Q506 -495 487 -493Q364 -480 357 -480Q311 -480 224 -508Q177 -523 177 -523Q167 -523 151 -511.5Q135 -500 135 -491Q135 -484 140 -475Q143 -480 146 -480Q139 -480 162 -456Q171 -461 176 -461Q177 -461 199 -438Q208 -444 210 -444Q216 -444 222 -436L225 -427Q229 -429 237 -434Q240 -428 243 -428Q244 -428 244 -430Q244 -430 247 -430Q247 -430 252 -416Q257 -418 268 -422L272 -418Q275 -419 276 -419Q280 -419 282.5 -414Q285 -409 286 -409Q294 -412 293 -412Q301 -412 305 -409Q307 -399 310 -394Q327 -400 327 -400Q344 -400 343 -383Q353 -388 359 -388Q361 -388 363.5 -386.5Q366 -385 368 -385Q373 -376 383 -364Q420 -350 491 -322Q488 -308 481 -302Q441 -315 367 -346Q362 -349 356 -361Q353 -361 348 -358Q343 -355 340 -355Q337 -355 320 -375Q309 -369 305 -369Q304 -369 302 -372Q301 -375 296 -372L291 -382Q289 -379 284 -379Q275 -386 264 -393Q263 -393 249 -385Q247 -388 242 -388Q242 -388 231 -405Q227 -402 219 -397Q204 -414 204 -414Q199 -412 190 -412Q191 -412 170 -434Q169 -433 156 -427L153 -433L147 -428Q143 -437 132 -446L126 -441Q142 -426 243 -376Q279 -359 351 -323Q404 -292 511 -234Q576 -202 597 -202Q601 -218 610 -249Q618 -248 630 -238Q619 -219 619 -189Q619 -174 621.5 -144.5Q624 -115 624 -100Q624 -94 618 -85Q571 -95 507 -102Q512 -100 520 -94Q516 -82 516 -77Q523 -77 534 -73V-53Q538 -55 540 -55Q552 -55 552 -35Q640 -47 637 -47Q637 -47 708 -35Q722 -41 722 -60Q722 -67 718 -82Q714 -97 714 -104Q714 -177 754 -238Q765 -235 773 -229L747 -151Q848 -110 989 -110Q1040 -110 1072 -115Q1078 -116 1096 -123Q1114 -130 1116 -130Q1129 -130 1150 -127Q1176 -124 1185 -123Q1177 -155 1177 -174Q1177 -226 1192 -238Q1200 -237 1213 -228Q1201 -209 1201 -177Q1201 -164 1207 -141.5Q1213 -119 1213 -113Q1213 -95 1203 -95Q1197 -95 1125 -102Q1127 -102 1130 -101Q1130 -91 1136 -85Q1132 -82 1125 -76Q1135 -76 1146 -74Q1149 -69 1155 -60Q1159 -58 1167 -42Q1166 -40 1166 -38V-37Q1173 -41 1188 -47L1287 -31Q1303 -38 1303 -44Q1303 -52 1301 -67.5Q1299 -83 1299 -91Q1299 -172 1335 -223Q1348 -217 1353 -211Q1326 -153 1326 -121Q1629 -102 1914 -56Q1966 -46 2048 -35Q2070 -47 2070 -56ZM532 -916Q532 -920 529 -928Q521 -952 490.5 -970Q460 -988 433 -988Q382 -988 384 -949Q419 -938 483 -908Q481 -902 477 -890Q471 -892 457 -892Q393 -892 393 -821Q393 -779 423 -710Q457 -634 489 -634Q495 -634 522 -650L507 -654Q491 -677 480 -715ZM823 -675Q748 -630 717 -634Q576 -652 569 -652Q565 -652 562 -650Q520 -628 509 -605Q502 -588 502 -535Q502 -523 500.5 -521.5Q499 -520 493 -519Q489 -519 486 -519Q479 -519 473 -558Q464 -607 464 -607Q450 -649 417 -649Q399 -649 352 -638.5Q305 -628 287 -628Q253 -628 205.5 -658.5Q158 -689 160 -689Q158 -689 156 -687Q156 -673 188 -647Q216 -623 233 -618Q287 -601 327 -601Q339 -601 362.5 -605.5Q386 -610 398 -610Q403 -610 427.5 -593Q452 -576 453 -571Q454 -551 457 -511Q492 -515 504 -514Q505 -557 533 -587Q561 -617 604 -617Q625 -617 668 -609Q711 -601 732 -601Q790 -601 823 -675ZM513 -409Q506 -406 491 -400Q486 -412 485 -412Q483 -412 479 -410.5Q475 -409 473 -409Q479 -409 446 -417Q447 -429 447 -425Q446 -430 443 -430Q439 -430 436 -427Q431 -433 421 -445Q437 -466 458 -466Q498 -466 513 -409ZM210 -494L204 -474Q196 -478 180 -486Q172 -478 166 -469Q161 -474 150 -484Q169 -509 171 -509Q165 -509 210 -494Z"/>
</svg>