<svg xmlns="http://www.w3.org/2000/svg" viewBox="0 -2048 2048 2048">
	<path fill="#000000" d="M2117 -469Q1937 -379 1724 -379Q1625 -379 1470 -400Q1263 -428 1218 -432Q1013 -450 780 -450Q667 -450 632 -446Q470 -428 317 -312Q150 -186 129 -35Q593 -74 1030 -74Q1174 -74 1425 -60Q1708 -45 1820 -43Q1819 -41 1818.5 -42Q1818 -43 1820 -43L1828 -44L1879 -46L2113 -57L2115 -33Q1875 -18 1820 -18Q1688 -18 1425 -33.5Q1162 -49 1030 -49Q626 -49 100 -10Q104 -82 159 -174Q250 -328 427 -406Q583 -475 780 -475H778Q1000 -475 1462 -430L1616 -415Q1698 -407 1704 -407Q1921 -407 2107 -491Z"/>
</svg>