<svg xmlns="http://www.w3.org/2000/svg" viewBox="0 -2048 2048 2048">
	<path fill="#000000" d="M1972 -915L1954 -903Q1915 -1017 1804.5 -1089.5Q1694 -1162 1571 -1162V-904Q1638 -904 1729.5 -821.5Q1821 -739 1841 -663L1829 -657Q1822 -658 1818 -663Q1807 -684 1783 -725Q1743 -781 1688 -825Q1622 -877 1571 -877V-721Q1604 -719 1637 -717Q1681 -712 1681 -685Q1681 -657 1621 -632Q1554 -603 1537 -558Q1525 -485 1513 -411Q1494 -307 1445 -282V306H1371V-277Q1324 -295 1296 -436Q1265 -590 1210 -636Q1209 -637 1196 -637Q1144 -637 1144 -687Q1144 -722 1202 -722Q1207 -722 1218 -719.5Q1229 -717 1234 -717Q1244 -717 1250 -726V-877H688V-726Q719 -722 750 -718Q793 -711 793 -687Q793 -666 750 -643Q698 -615 683.5 -593Q669 -571 635 -408Q624 -352 613 -328Q596 -286 566 -277V306H492V-282Q450 -300 422 -419Q409 -491 395 -563Q389 -585 352 -616Q323 -627 294 -639Q251 -656 251 -685Q251 -721 358 -717Q362 -721 362 -779V-874Q236 -874 188 -892Q100 -924 100 -1028Q100 -1140 180 -1172Q221 -1188 357 -1188V-1449H431V-1188H620V-1449H687V-1188H1248V-1449H1319V-1188H1499V-1449H1570V-1188Q1702 -1181 1812 -1110Q1930 -1035 1972 -915ZM1550 -1188V-1429H1526V-1188ZM1299 -1188V-1429H1270V-1188ZM1549 -904V-1162H1526V-904ZM1500 -904V-1162H1320V-904ZM1547 -723V-877H1526V-718ZM1296 -904V-1162H1270V-904ZM1500 -718V-877H1320V-718ZM1296 -718V-877H1270V-718ZM1246 -904V-1162H691V-904ZM667 -1188V-1429H648V-1188ZM1656 -685L1644 -697H1176L1169 -691V-673Q1192 -667 1236 -650Q1285 -621 1307 -488Q1332 -344 1357 -317Q1372 -301 1403 -301Q1488 -301 1505 -492Q1506 -520 1512 -558Q1529 -600 1570 -636Q1579 -643 1613 -655Q1643 -665 1656 -685ZM406 -1188V-1429H387V-1188ZM667 -904V-1162Q667 -1162 648 -1162V-904ZM620 -904V-1162H432V-904ZM666 -718V-877H647V-718ZM406 -904V-1162H387V-904ZM1419 281V-275H1396V281ZM620 -718V-877H432V-718ZM361 -903V-1162H269Q120 -1162 120 -1036Q120 -1022 127 -991Q134 -960 173.5 -931.5Q213 -903 244 -903ZM406 -718V-877H387V-718ZM762 -678V-697H288Q277 -687 276 -679Q293 -661 322 -653Q356 -643 367 -635Q412 -602 420 -564Q430 -503 441 -441Q454 -367 473.5 -331.5Q493 -296 527 -296Q588 -296 613 -409Q628 -486 643 -563Q661 -600 667 -611Q684 -640 701 -650Q722 -657 762 -678ZM541 281V-275H518V281Z"/>
</svg>