<svg xmlns="http://www.w3.org/2000/svg" viewBox="0 -2048 2048 2048">
	<path fill="currentColor" d="M1724 182H100V54H349V-659H132V-1433H154V-1333H542Q545 -1353 545 -1381Q545 -1409 542 -1433H566V-661H373V-531H1451V-659H1258V-1433H1280V-1333H1668Q1670 -1356 1670 -1383Q1670 -1409 1668 -1433H1692V-661H1475V51H1724ZM1669 -1124V-1313H1281V-1124ZM1669 -916V-1100H1281V-916ZM1669 -684V-891H1281V-684ZM543 -1124V-1313H155V-1124ZM1451 52V-289H1063V52ZM543 -916V-1100H155V-916ZM1451 -309V-507H373V-309ZM543 -684V-891H155V-684ZM1039 52V-289H790V52ZM1701 159V77H123V159ZM766 52V-289H373V52Z"/>
</svg>