<svg xmlns="http://www.w3.org/2000/svg" viewBox="0 -2048 2048 2048">
	<path fill="#000000" d="M1855 -1231Q1855 -1176 1807 -1144Q1768 -1117 1720 -1117Q1644 -1117 1530 -1177.5Q1416 -1238 1413 -1238Q1423 -1238 1248 -1165Q1121 -1112 952 -1112Q809 -1112 660 -1165Q640 -1172 588 -1204Q540 -1233 540 -1233Q546 -1233 427 -1175Q308 -1117 263 -1117Q181 -1117 147 -1147Q100 -1188 100 -1245Q100 -1307 153 -1340Q198 -1368 263 -1368Q314 -1368 373 -1343Q400 -1331 474 -1293Q536 -1261 542 -1261Q547 -1261 569 -1277Q595 -1297 604 -1301Q779 -1392 961 -1392Q1023 -1392 1113 -1376Q1145 -1370 1187 -1357Q1268 -1331 1337 -1301Q1345 -1297 1381 -1277Q1410 -1261 1415 -1261Q1405 -1261 1510 -1312.5Q1615 -1364 1696 -1364Q1855 -1364 1855 -1231ZM1315 -945Q1315 -923 1275 -898Q1222 -938 1222 -952Q1222 -991 1273 -991Q1315 -991 1315 -945ZM1166 -950Q1166 -934 1131 -898Q1129 -900 1097 -921Q1077 -934 1077 -952Q1077 -991 1124 -991Q1166 -991 1166 -950ZM1310 -777Q1310 -740 1273 -740Q1226 -740 1226 -782Q1226 -792 1238 -810.5Q1250 -829 1266 -829Q1280 -829 1295 -809.5Q1310 -790 1310 -777ZM1026 -947Q1026 -936 1015.5 -917Q1005 -898 991 -898Q973 -898 955.5 -922Q938 -946 938 -959Q938 -991 977 -991Q1026 -991 1026 -947ZM1161 -777Q1161 -740 1124 -740Q1109 -740 1093 -755Q1077 -770 1077 -780Q1077 -791 1092.5 -810Q1108 -829 1119 -829Q1161 -829 1161 -777ZM1315 -631Q1315 -582 1266 -582Q1231 -582 1231 -619Q1231 -670 1259 -670Q1269 -670 1290 -657Q1315 -643 1315 -631ZM896 -945Q896 -936 884 -917Q872 -898 861 -898Q842 -898 824.5 -916Q807 -934 807 -950Q807 -996 849 -996Q867 -996 883 -975Q896 -957 896 -945ZM1022 -777Q1022 -740 989 -740Q967 -740 953 -760Q942 -776 942 -787Q942 -829 977 -829Q996 -829 1010 -809Q1022 -793 1022 -777ZM1166 -628Q1166 -582 1119 -582Q1082 -582 1082 -617Q1082 -628 1089 -646Q1099 -670 1112 -670Q1128 -670 1147 -657Q1166 -644 1166 -628ZM1315 -463Q1315 -448 1296 -429Q1277 -410 1257 -410Q1222 -410 1222 -454Q1222 -471 1236.5 -487Q1251 -503 1268 -503Q1283 -503 1299 -487.5Q1315 -472 1315 -463ZM761 -947Q761 -937 745.5 -917.5Q730 -898 717 -898Q668 -898 668 -952Q668 -991 707 -991Q761 -991 761 -947ZM896 -784Q896 -771 881 -755.5Q866 -740 854 -740Q839 -740 825.5 -755Q812 -770 812 -784Q812 -798 824.5 -813.5Q837 -829 854 -829Q871 -829 885 -809Q896 -793 896 -784ZM1026 -624Q1026 -601 1007 -592.5Q988 -584 967 -577Q942 -612 942 -621Q956 -670 973 -670Q993 -670 1009.5 -655.5Q1026 -641 1026 -624ZM1166 -463Q1166 -410 1110 -410Q1077 -410 1077 -452Q1077 -503 1122 -503Q1166 -503 1166 -463ZM1315 -289Q1315 -275 1296.5 -263Q1278 -251 1268 -251Q1251 -251 1235 -271Q1222 -288 1222 -300Q1222 -340 1273 -340Q1290 -340 1304 -320Q1315 -303 1315 -289ZM756 -784Q756 -771 744.5 -755.5Q733 -740 719 -740Q673 -740 673 -784Q673 -793 683 -809Q696 -829 712 -829Q721 -829 738.5 -811Q756 -793 756 -784ZM896 -619Q896 -601 876 -588Q860 -577 847 -577Q832 -577 821 -597Q812 -613 812 -624Q812 -670 854 -670Q869 -670 884 -646Q896 -626 896 -619ZM1026 -456Q1026 -410 984 -410Q938 -410 938 -456Q938 -503 977 -503Q1026 -503 1026 -456ZM1166 -275Q1142 -251 1119 -251Q1101 -251 1088 -271Q1077 -288 1077 -300Q1077 -340 1129 -340Q1174 -340 1166 -275ZM761 -624Q761 -605 743.5 -593.5Q726 -582 712 -582Q673 -582 673 -621Q684 -670 705 -670Q726 -670 745 -652Q761 -636 761 -624ZM896 -466Q896 -450 880 -430Q864 -410 849 -410Q836 -410 819.5 -425.5Q803 -441 803 -454Q803 -503 849 -503Q896 -503 896 -466ZM1026 -275Q1001 -251 984 -251Q966 -251 951 -271Q938 -288 938 -298Q938 -340 989 -340Q1034 -340 1026 -275ZM756 -466Q756 -457 741 -435Q724 -410 712 -410Q668 -410 668 -459Q668 -503 712 -503Q756 -503 756 -466ZM896 -293Q896 -256 849 -256Q807 -256 807 -296Q807 -340 859 -340Q896 -340 896 -293ZM761 -280Q721 -251 700 -251Q688 -251 677 -271Q668 -288 668 -296Q668 -340 707 -340Q758 -340 761 -280ZM1338 -246L1170 237H795L622 -246ZM1836 -1229Q1836 -1345 1692 -1345Q1581 -1345 1440 -1250Q1634 -1136 1727 -1136Q1755 -1136 1792 -1162Q1836 -1192 1836 -1229ZM1385 -1250Q1333 -1292 1193 -1330Q1053 -1368 961 -1368Q738 -1368 561 -1250Q724 -1131 947 -1131Q1160 -1131 1385 -1250ZM1292 -947Q1292 -954 1289 -960Q1286 -966 1286 -967Q1269 -967 1257 -965Q1245 -963 1245 -963V-942Q1260 -926 1271 -926Q1292 -926 1292 -947ZM1142 -957Q1131 -968 1119 -968Q1107 -968 1096 -947Q1117 -926 1126 -926Q1142 -926 1142 -957ZM1286 -769V-790L1276 -800H1260Q1249 -778 1250 -773Q1268 -766 1286 -769ZM1008 -950Q1008 -958 997 -968H962V-941Q992 -926 992 -926Q1008 -942 1008 -950ZM1142 -769V-785Q1135 -800 1116 -800Q1114 -798 1108.5 -790Q1103 -782 1101 -780Q1118 -763 1129 -763Q1136 -763 1142 -769ZM1292 -626Q1292 -635 1285 -642H1255Q1252 -631 1252 -620Q1252 -608 1255 -601H1276Q1292 -617 1292 -626ZM867 -968H836L831 -937Q841 -927 862 -927Q871 -962 867 -968ZM1003 -785Q996 -800 976 -800Q966 -790 966 -780Q966 -774 976 -764H997ZM1142 -610V-637L1136 -642H1111L1106 -606L1127 -601Q1132 -603 1142 -610ZM1292 -466Q1292 -468 1281 -479H1250L1245 -448Q1260 -433 1266 -433Q1292 -433 1292 -466ZM738 -947Q738 -957 727 -968H697L691 -937Q702 -926 714 -926Q738 -926 738 -947ZM872 -774V-790L857 -805H836Q836 -788 838.5 -776Q841 -764 841 -764H862ZM1008 -626L992 -642H971L966 -606H1002Q1002 -620 1008 -626ZM1142 -458V-474Q1140 -474 1133 -476.5Q1126 -479 1119 -479Q1096 -479 1096 -461Q1096 -436 1127 -433Q1142 -448 1142 -458ZM1291 -285V-307Q1280 -317 1268 -317Q1256 -317 1245 -306V-290Q1260 -275 1271 -275Q1280 -275 1291 -285ZM514 -1250Q322 -1350 265 -1350Q211 -1350 169 -1324Q119 -1292 119 -1238Q119 -1140 258 -1140Q374 -1140 514 -1250ZM733 -785Q728 -794 707 -805Q696 -773 701 -764H722Q733 -775 733 -785ZM872 -611V-627L857 -642H841L835 -612L846 -601H862ZM1008 -459Q1002 -467 992 -479H971Q961 -459 961 -452Q961 -431 978 -433Q1001 -444 1008 -459ZM1142 -280V-311L1106 -316L1101 -285Q1128 -276 1142 -280ZM738 -622Q732 -630 722 -642H701L696 -611Q707 -600 712 -600Q727 -600 738 -622ZM873 -453V-469Q863 -479 854 -479Q826 -479 826 -449Q826 -444 837 -433H857Q873 -449 873 -453ZM1008 -296Q998 -317 984 -317Q972 -317 961 -296Q962 -294 981 -275H997Q1008 -286 1008 -296ZM733 -453V-469Q723 -479 712 -479Q702 -479 691 -469V-443Q702 -433 713 -433Q721 -441 733 -453ZM877 -301L862 -316H831Q841 -265 841 -275H857Q877 -294 877 -301ZM737 -285V-301Q721 -317 707 -317Q687 -317 687 -300Q700 -275 710 -275Q717 -275 737 -285ZM1310 -223H654L808 214H1156Z"/>
</svg>