<svg xmlns="http://www.w3.org/2000/svg" viewBox="0 -2048 2048 2048">
	<path fill="currentColor" d="M1994 -529Q1995 -517 1992 -509Q1927 -451 1798 -333V-324Q1798 -345 1806 -210Q1815 -89 1833 152Q1841 162 1908 161V270H172V161H244L286 -310Q286 -310 286 -322Q286 -335 229 -387Q99 -506 100 -522L167 -1371H222Q233 -1371 233 -1358Q233 -1320 224 -1274Q227 -1271 270 -1271H439Q441 -1285 441 -1304Q441 -1315 440 -1337.5Q439 -1360 439 -1371H500Q500 -1337 513 -1281Q757 -1395 1035 -1395Q1378 -1395 1581 -1276Q1582 -1279 1594 -1371H1649L1657 -1365Q1657 -1334 1651 -1274Q1655 -1270 1748 -1270H1866Q1867 -1318 1866 -1371H1927ZM1884 -1052L1869 -1247H1651L1637 -1052ZM1898 -842L1884 -1027H1632L1618 -842ZM1912 -623L1898 -817H1618L1604 -623ZM1971 -522Q1971 -535 1970 -548L1908 -1352H1890L1942 -528L1753 -360Q1694 -415 1575 -526Q1573 -534 1574 -546L1636 -1352H1613L1550 -542Q1550 -515 1556 -508Q1558 -506 1693 -381Q1709 -368 1736 -339Q1737 -337 1737 -336L1699 160H1806L1813 154L1775 -329Q1774 -345 1872.5 -429.5Q1971 -514 1971 -522ZM1569 -1260Q1385 -1354 1109 -1368Q1098 -1369 1068 -1373Q1042 -1376 1028 -1376Q935 -1376 767 -1340Q579 -1300 520 -1255Q569 -1198 775 -1161Q937 -1133 1061 -1133Q1209 -1133 1348 -1169Q1444 -1194 1469 -1202Q1555 -1231 1569 -1260ZM1918 -548Q1918 -556 1915 -573Q1912 -590 1912 -598H1596Q1599 -583 1599 -566Q1599 -549 1596 -533L1758 -388Q1918 -529 1918 -548ZM1713 -317Q1714 -328 1711 -335Q1661 -385 1559 -480Q1525 -509 1527 -529L1583 -1233Q1519 -1177 1328 -1142Q1175 -1114 1049 -1114Q690 -1114 511 -1228L567 -536Q570 -503 470 -419Q370 -335 372 -312L411 160H1674ZM457 -1052L443 -1247H225L210 -1052ZM471 -842Q465 -951 457 -1027H206Q201 -963 191 -842ZM481 -623Q481 -647 480 -694.5Q479 -742 479 -766Q479 -797 481 -817H191Q187 -752 172 -623ZM548 -526L476 -1352H463L515 -531Q516 -519 431 -445Q351 -375 327 -360L143 -532L209 -1352H191L124 -543Q122 -513 216.5 -426.5Q311 -340 310 -329L272 160H385L348 -335ZM1889 250V180H194V250ZM491 -553Q491 -561 488.5 -576Q486 -591 486 -598H172Q170 -576 167 -532Q222 -485 331 -388Q421 -469 489 -529Q491 -542 491 -553ZM1302 -990Q1302 -937 1250 -937Q1231 -937 1214 -955Q1197 -973 1197 -992Q1197 -1009 1212.5 -1025.5Q1228 -1042 1245 -1042Q1266 -1042 1284 -1026.5Q1302 -1011 1302 -990ZM1302 -815Q1302 -761 1255 -761Q1197 -761 1197 -811Q1197 -831 1214 -850.5Q1231 -870 1250 -870Q1267 -870 1284.5 -851.5Q1302 -833 1302 -815ZM1107 -985Q1107 -970 1088 -949Q1069 -928 1054 -928Q1035 -928 1016 -948Q997 -968 997 -987Q997 -1006 1015.5 -1021.5Q1034 -1037 1054 -1037Q1070 -1037 1088.5 -1019Q1107 -1001 1107 -985ZM1107 -799Q1107 -756 1054 -756Q997 -756 997 -803Q997 -822 1015 -841.5Q1033 -861 1052 -861Q1071 -861 1089 -839.5Q1107 -818 1107 -799ZM1317 -586Q1317 -565 1287 -538Q1275 -527 1247 -527Q1197 -527 1197 -589Q1197 -575 1204 -626Q1238 -651 1247 -651Q1265 -651 1291 -627.5Q1317 -604 1317 -586ZM892 -980Q892 -960 875.5 -941.5Q859 -923 839 -923Q787 -923 787 -980Q787 -997 807 -1015Q827 -1033 844 -1033Q892 -1033 892 -980ZM892 -801Q892 -783 876 -764.5Q860 -746 842 -746Q822 -746 804.5 -762.5Q787 -779 787 -799Q787 -851 837 -851Q856 -851 874 -835.5Q892 -820 892 -801ZM1111 -582Q1111 -558 1092 -540Q1073 -522 1049 -522Q997 -522 997 -570Q997 -586 1012.5 -616Q1028 -646 1042 -646Q1062 -646 1086.5 -623.5Q1111 -601 1111 -582ZM1317 -367Q1317 -343 1296.5 -322.5Q1276 -302 1252 -302Q1229 -302 1206 -325.5Q1183 -349 1183 -372Q1183 -389 1204.5 -410Q1226 -431 1243 -431Q1264 -431 1290.5 -409Q1317 -387 1317 -367ZM901 -579Q901 -555 882 -536Q863 -517 839 -517Q782 -517 782 -570Q782 -588 802 -612Q822 -636 839 -636Q858 -636 879.5 -617Q901 -598 901 -579ZM1321 -166Q1321 -146 1297.5 -119Q1274 -92 1255 -92Q1238 -92 1215.5 -119.5Q1193 -147 1193 -164Q1193 -182 1213.5 -204Q1234 -226 1252 -226Q1277 -226 1299 -208Q1321 -190 1321 -166ZM1116 -355Q1116 -336 1092 -314.5Q1068 -293 1049 -293Q1037 -293 1010 -319Q983 -345 983 -357Q983 -373 1004 -400Q1025 -427 1040 -427Q1061 -427 1088.5 -401.5Q1116 -376 1116 -355ZM1126 -162Q1126 -145 1098 -114Q1070 -83 1054 -83Q1036 -83 1014 -108.5Q992 -134 992 -152Q992 -166 1015 -193.5Q1038 -221 1052 -221Q1074 -221 1100 -202Q1126 -183 1126 -162ZM1321 51Q1321 81 1309 93Q1285 118 1252 118Q1230 118 1206.5 100Q1183 82 1183 60Q1183 40 1213.5 7Q1244 -26 1264 -26Q1283 -26 1302 2.5Q1321 31 1321 51ZM906 -353Q906 -333 883 -310.5Q860 -288 839 -288Q822 -288 797.5 -312Q773 -336 773 -353Q773 -368 794 -392.5Q815 -417 830 -417Q849 -417 877.5 -394Q906 -371 906 -353ZM1126 55Q1126 81 1102 104Q1078 127 1052 127Q1035 127 1009 98.5Q983 70 983 53Q983 38 1009 8.5Q1035 -21 1049 -21Q1076 -21 1101 3.5Q1126 28 1126 55ZM911 -155Q911 -133 886 -105.5Q861 -78 839 -78Q818 -78 800 -100Q782 -122 782 -143Q782 -164 802 -188Q822 -212 842 -212Q866 -212 888.5 -195Q911 -178 911 -155ZM911 63Q911 99 894 111Q864 132 839 132Q817 132 792.5 110Q768 88 768 67Q768 44 797 10Q804 7 817 2Q831 -11 842 -11Q911 -11 911 63ZM1278 -987Q1278 -996 1267 -1009.5Q1256 -1023 1247 -1023Q1238 -1023 1227 -1012Q1216 -1001 1216 -992Q1216 -983 1229 -972Q1242 -961 1252 -961Q1278 -961 1278 -987ZM1278 -795V-827Q1262 -842 1247 -842Q1221 -842 1221 -808Q1221 -784 1252 -784Q1266 -784 1278 -795ZM1083 -987Q1083 -1013 1052 -1013Q1021 -1013 1021 -985Q1021 -964 1052 -951Q1083 -972 1083 -987ZM1082 -790V-817Q1066 -832 1052 -832Q1037 -832 1026 -822V-790Q1037 -780 1052 -780Q1062 -780 1082 -790ZM1288 -591Q1288 -604 1274 -615.5Q1260 -627 1247 -627Q1237 -627 1221 -612V-565Q1253 -551 1252 -551Q1264 -551 1276 -565Q1288 -579 1288 -591ZM868 -957V-989Q846 -1009 844 -1009Q835 -1009 820.5 -999Q806 -989 806 -980Q806 -947 844 -947Q857 -947 868 -957ZM868 -803Q868 -829 827 -832Q811 -816 811 -796Q811 -770 837 -770Q847 -770 857.5 -781.5Q868 -793 868 -803ZM1088 -582Q1088 -594 1074 -605.5Q1060 -617 1047 -617Q1021 -617 1021 -579Q1021 -546 1049 -546Q1088 -546 1088 -582ZM1293 -367Q1293 -378 1274 -392.5Q1255 -407 1243 -407Q1232 -407 1219.5 -395Q1207 -383 1207 -372Q1207 -359 1224.5 -342.5Q1242 -326 1255 -326Q1267 -326 1280 -340.5Q1293 -355 1293 -367ZM878 -574Q878 -586 864.5 -599.5Q851 -613 839 -613Q828 -613 817 -595Q806 -577 806 -565Q806 -536 842 -536Q878 -536 878 -574ZM1298 -171Q1298 -202 1255 -202Q1216 -202 1216 -164Q1216 -152 1229.5 -134Q1243 -116 1255 -116Q1268 -116 1283 -136.5Q1298 -157 1298 -171ZM1092 -360Q1092 -374 1075.5 -388.5Q1059 -403 1045 -403Q1037 -403 1021.5 -385.5Q1006 -368 1006 -360Q1006 -351 1022 -334Q1038 -317 1047 -317Q1058 -317 1075 -333Q1092 -349 1092 -360ZM1102 -164Q1102 -173 1080.5 -185Q1059 -197 1049 -197Q1036 -197 1026 -179Q1016 -161 1016 -147Q1016 -107 1052 -107Q1064 -107 1083 -129Q1102 -151 1102 -164ZM1302 48Q1302 -2 1259 -2Q1244 -2 1225.5 20.5Q1207 43 1207 58Q1207 68 1225.5 83Q1244 98 1255 98Q1302 98 1302 48ZM882 -353Q882 -363 861.5 -378Q841 -393 830 -393Q818 -393 807 -380Q796 -367 796 -355Q796 -345 811 -328.5Q826 -312 837 -312Q849 -312 865.5 -326.5Q882 -341 882 -353ZM1102 55Q1102 37 1089 20Q1076 3 1059 3Q1048 3 1027 22.5Q1006 42 1006 53Q1006 61 1028.5 82Q1051 103 1059 103Q1102 103 1102 55ZM888 -160Q888 -163 887 -168Q866 -188 844 -188Q806 -188 806 -140Q806 -102 839 -102Q856 -102 872 -122.5Q888 -143 888 -160ZM892 63Q892 51 875.5 32Q859 13 847 13Q832 13 812 32.5Q792 52 792 67Q792 77 813 95Q834 113 844 113Q857 113 874.5 94.5Q892 76 892 63Z"/>
</svg>