<svg xmlns="http://www.w3.org/2000/svg" viewBox="0 -2048 2048 2048">
	<path fill="#000000" d="M1626 -672L1444 -487V258H1601V363H125V258H282V-487L100 -672L165 -1480H262L207 -714L348 -581L489 -714L434 -1480H531L596 -672L440 -513H811Q826 -535 847 -562Q810 -605 741 -686L761 -702Q795 -663 863 -582Q898 -623 965 -702L985 -686Q950 -646 879 -562Q900 -535 915 -513H1286L1130 -672L1195 -1480H1292L1237 -714L1378 -581L1519 -714L1464 -1480H1561ZM1600 -682L1537 -1454H1492L1545 -704L1378 -545L1211 -704L1264 -1454H1219L1156 -682L1338 -497V258H1418V-497ZM884 -513Q878 -521 863 -541Q856 -532 842 -513ZM964 -305Q964 -389 901 -487H825Q762 -389 762 -305Q762 -253 788 -217Q816 -178 863 -178Q910 -178 938 -217Q964 -253 964 -305ZM1312 258V-487H932Q990 -392 990 -305Q990 -245 959 -202Q924 -152 863 -152Q802 -152 767 -202Q736 -245 736 -305Q736 -392 794 -487H414V258ZM570 -682L507 -1454H462L515 -704L348 -545L181 -704L234 -1454H189L126 -682L308 -497V258H388V-497ZM1575 337V284H151V337Z"/>
</svg>