<svg xmlns="http://www.w3.org/2000/svg" viewBox="0 -2048 2048 2048">
	<path fill="currentColor" d="M1626 -672L1444 -487V-414Q1493 -507 1563 -507Q1616 -507 1616 -453Q1616 -363 1467 -303Q1556 -267 1608 -152L1584 -142Q1539 -241 1474 -274Q1515 -194 1531 -113L1505 -107Q1488 -194 1444 -272V258H1601V363H125V258H282V-487L100 -672L165 -1480H262L207 -714L348 -581L489 -714L434 -1480H531L596 -672L414 -487V-347H1312V-487L1130 -672L1195 -1480H1292L1237 -714L1378 -581L1519 -714L1464 -1480H1561ZM1600 -682L1537 -1454H1492L1545 -704L1378 -545L1211 -704L1264 -1454H1219L1156 -682L1338 -497V258H1418V-497ZM1590 -453Q1590 -481 1563 -481Q1518 -481 1479 -422Q1444 -369 1444 -321Q1491 -335 1536 -370Q1590 -412 1590 -453ZM1312 -267V-321H414V-267ZM570 -682L507 -1454H462L515 -704L348 -545L181 -704L234 -1454H189L126 -682L308 -497V258H388V-497ZM1312 258V-241H414V258ZM1575 337V284H151V337Z"/>
</svg>