<svg xmlns="http://www.w3.org/2000/svg" viewBox="0 -2048 2048 2048">
	<path fill="currentColor" d="M1961 -614Q1961 -524 1812 -464Q1901 -428 1953 -313L1929 -303Q1884 -401 1819 -435Q1860 -355 1876 -274L1850 -268Q1834 -347 1786 -439Q1774 -359 1723 -316V348H1641V-278Q1619 -274 1595 -274H409Q385 -274 363 -278V348H281V-316Q215 -372 215 -483Q215 -594 281 -649V-801Q212 -824 212 -901Q212 -938 175 -938Q169 -938 157 -935Q145 -932 139 -932Q126 -932 102 -949L100 -969Q134 -1002 189 -1025Q227 -1290 227 -1372Q227 -1429 217 -1550H427Q417 -1430 417 -1372Q417 -1290 455 -1025Q510 -1002 544 -969L542 -949Q519 -932 505 -932Q499 -932 487 -935Q475 -938 469 -938Q441 -938 431 -883Q420 -820 363 -801V-687Q385 -691 409 -691H853L744 -1019H1260L1151 -691H1595Q1619 -691 1641 -687V-801Q1572 -824 1572 -901Q1572 -938 1535 -938Q1529 -938 1517 -935Q1505 -932 1499 -932Q1486 -932 1462 -949L1460 -969Q1494 -1002 1549 -1025Q1587 -1290 1587 -1372Q1587 -1429 1577 -1550H1787Q1777 -1430 1777 -1372Q1777 -1290 1815 -1025Q1870 -1002 1904 -969L1902 -949Q1879 -932 1865 -932Q1859 -932 1847 -935Q1835 -938 1829 -938Q1801 -938 1791 -883Q1780 -820 1723 -801V-649Q1764 -614 1780 -555Q1827 -668 1908 -668Q1961 -668 1961 -614ZM1788 -1035Q1751 -1308 1751 -1372Q1751 -1428 1759 -1524H1605Q1613 -1427 1613 -1372Q1613 -1309 1576 -1035Q1632 -1053 1682 -1053Q1732 -1053 1788 -1035ZM1874 -961Q1793 -1027 1682 -1027Q1571 -1027 1490 -961Q1494 -960 1499 -958Q1505 -958 1517 -961Q1529 -964 1535 -964Q1591 -964 1597 -905Q1597 -899 1598 -886Q1606 -820 1682 -820Q1751 -820 1766.5 -892Q1782 -964 1829 -964Q1835 -964 1847 -961Q1859 -958 1865 -958Q1867 -958 1874 -961ZM1935 -614Q1935 -642 1908 -642Q1863 -642 1824 -583Q1789 -530 1789 -482Q1836 -496 1881 -531Q1935 -573 1935 -614ZM1697 -667V-795Q1682 -793 1667 -795V-680Q1683 -675 1697 -667ZM1763 -482Q1763 -564 1723 -612V-353Q1763 -400 1763 -482ZM1697 322V-636Q1683 -646 1667 -652V322ZM1224 -993H780L880 -691H1124ZM428 -1035Q391 -1308 391 -1372Q391 -1428 399 -1524H245Q253 -1427 253 -1372Q253 -1309 216 -1035Q272 -1053 322 -1053Q372 -1053 428 -1035ZM1641 -305V-660Q1620 -665 1598 -665H406Q384 -665 363 -660V-305Q384 -300 406 -300H1598Q1620 -300 1641 -305ZM514 -961Q433 -1027 322 -1027Q211 -1027 130 -961Q134 -960 139 -958Q145 -958 157 -961Q169 -964 175 -964Q231 -964 237 -905Q237 -899 238 -886Q246 -820 322 -820Q391 -820 406.5 -892Q422 -964 469 -964Q475 -964 487 -961Q499 -958 505 -958Q507 -958 514 -961ZM337 -680V-795Q322 -793 307 -795V-667Q321 -675 337 -680ZM281 -353V-612Q241 -565 241 -483Q241 -401 281 -353ZM337 322V-652Q321 -646 307 -636V322Z"/>
</svg>