<svg xmlns="http://www.w3.org/2000/svg" viewBox="24.8 -1591.2 1980.3 2029.3">
	<path fill="currentColor" d="M1930 -1498L1723 -1290V-1058Q1773 -1028 1773 -970Q1773 -916 1723 -885V258H1913V363H117V258H307V-883Q257 -913 257 -970Q257 -1025 307 -1056V-1290L100 -1498L118 -1516L320 -1313L522 -1516L540 -1498L333 -1290V-1069Q369 -1083 413 -1083Q481 -1083 640 -993Q845 -1103 1015 -1103Q1169 -1103 1394 -993Q1536 -1083 1619 -1083Q1661 -1083 1697 -1070V-1290L1490 -1498L1508 -1516L1710 -1313L1912 -1516ZM1747 -970Q1747 -1004 1723 -1026V-917Q1747 -938 1747 -970ZM1697 -900V-1042Q1664 -1057 1619 -1057Q1546 -1057 1405 -969Q1555 -884 1617 -884Q1663 -884 1697 -900ZM1379 -971Q1161 -1077 1015 -1077Q853 -1077 651 -969Q869 -863 1015 -863Q1177 -863 1379 -971ZM1697 258V-872Q1661 -858 1617 -858Q1548 -858 1391 -947Q1307 -902 1228 -875V-107H1256L1160 258ZM1202 -107V-866Q1113 -839 1028 -837V-107ZM626 -971Q474 -1057 413 -1057Q369 -1057 333 -1040V-898Q365 -884 412 -884Q491 -884 626 -971ZM1002 -107V-837Q921 -839 828 -868V-107ZM307 -915V-1023Q283 -1001 283 -970Q283 -936 307 -915ZM870 258L774 -107H802V-876Q734 -899 637 -947Q496 -858 412 -858Q369 -858 333 -871V258ZM1223 -81H807L897 258H1133ZM1887 337V284H143V337Z"/>
</svg>