<svg xmlns="http://www.w3.org/2000/svg" viewBox="0 -2048 2048 2048">
	<path fill="currentColor" d="M1762 276Q1762 328 1702 328Q1475 328 1410 140Q1377 -57 1343 -255Q1295 -507 1122 -607Q1077 -633 1017 -641L944 250H918L845 -640Q776 -631 740 -607Q567 -493 516 -239Q482 -46 448 148Q384 328 160 328Q100 328 100 276Q100 245 132 239Q135 238 187 238Q249 238 319 174Q371 127 388 -66Q409 -310 446 -414Q518 -615 708 -708Q759 -733 837 -740L775 -1506H1087L1025 -740Q1102 -733 1154 -708Q1408 -584 1455 -256Q1466 -144 1478 -31Q1498 132 1536 169Q1584 215 1616 227Q1642 236 1709 236Q1762 236 1762 276ZM1059 -1480H803L931 89ZM1736 276Q1736 263 1667 263Q1626 263 1593 245Q1560 227 1519 188Q1475 146 1453 -20Q1441 -136 1429 -253Q1384 -566 1142 -685Q1096 -707 1023 -714L1019 -666Q1090 -657 1136 -630Q1316 -524 1367 -273Q1398 -78 1430 118Q1488 302 1702 302Q1736 302 1736 276ZM843 -666L839 -714Q766 -707 720 -685Q534 -594 467 -396Q435 -303 413 -52Q396 140 336 194Q258 264 187 264Q182 264 171 263Q160 262 155 262Q126 262 126 276Q126 302 160 302Q372 302 431 122Q463 -72 494 -266Q546 -517 726 -629Q770 -656 843 -666Z"/>
</svg>