<svg xmlns="http://www.w3.org/2000/svg" viewBox="25.1 -1596.9 823.8 2021.8">
	<path fill="currentColor" d="M774 350H592L608 -631Q213 -679 127 -1131Q100 -1273 100 -1358Q100 -1410 116 -1457Q138 -1522 180 -1522Q197 -1522 215 -1494.5Q233 -1467 233 -1448Q233 -1436 229 -1411Q225 -1386 225 -1374Q225 -1174 317 -1017Q423 -835 608 -817L624 -1518H731ZM747 325L706 -1493H649L632 -793Q425 -793 304 -987Q200 -1154 200 -1374Q200 -1388 205.5 -1416Q211 -1444 211 -1458Q211 -1471 180 -1493Q125 -1471 125 -1340Q125 -1251 159 -1092Q199 -905 322.5 -790.5Q446 -676 635 -651L618 325Z"/>
</svg>