<svg xmlns="http://www.w3.org/2000/svg" viewBox="0 -2048 2048 2048">
	<path fill="currentColor" d="M710 -1039L536 -1084Q505 -967 432 -930L473 323Q434 352 403 352L399 350Q390 350 333 325L374 -934Q313 -954 284 -1086L100 -1039V-1301L293 -1245Q297 -1277 319 -1295L260 -1518H555L493 -1299Q510 -1288 524 -1245L710 -1301ZM522 -1493H293L340 -1313Q375 -1340 413 -1340Q448 -1340 473 -1321ZM686 -1071V-1268L532 -1223Q543 -1122 542 -1108ZM518 -1139Q518 -1192 493 -1248Q462 -1317 417 -1317Q357 -1317 326 -1263Q301 -1219 301 -1155Q301 -1089 322 -1031Q351 -953 405 -953Q455 -953 489 -1023Q518 -1082 518 -1139ZM284 -1221L125 -1268V-1071L278 -1110Q278 -1119 277 -1136Q276 -1153 276 -1161Q276 -1185 284 -1221ZM448 311L407 -928H399L358 309L405 325Q428 325 448 311Z"/>
</svg>