<svg xmlns="http://www.w3.org/2000/svg" viewBox="29.1 -1549.9 542.8 1914.8">
	<path fill="currentColor" d="M501 -1253Q501 -1166 423 -1106Q390 -1081 331 -1077Q325 -1076 313 -1070V294H290V-1074Q251 -1077 182 -1100Q156 -1117 128 -1174.5Q100 -1232 100 -1268Q100 -1357 186 -1406Q176 -1424 176 -1436Q176 -1471 213 -1478Q218 -1479 275 -1479Q329 -1479 413 -1472Q424 -1466 427 -1447Q432 -1425 419 -1415Q501 -1336 501 -1253ZM403 -1429Q403 -1431 400.5 -1440.5Q398 -1450 398 -1453H225Q217 -1453 203 -1446Q197 -1431 197 -1429Q202 -1429 208 -1423H229Q235 -1423 257 -1433Q279 -1443 285 -1443Q288 -1443 335 -1436Q382 -1429 403 -1429ZM480 -1258Q480 -1327 423 -1374Q370 -1418 300 -1418Q244 -1418 185 -1376Q120 -1330 120 -1271Q120 -1265 139 -1207Q174 -1099 290 -1099Q370 -1099 421 -1136Q480 -1179 480 -1258Z"/>
</svg>