<svg xmlns="http://www.w3.org/2000/svg" viewBox="25.3 -1592.7 620.4 2017.4">
	<path fill="currentColor" d="M571 151Q571 244 506 299Q445 350 350 350Q344 350 301 336Q208 306 180 274Q108 194 108 71Q108 10 123 -101Q138 -212 163 -416Q176 -522 176 -559Q176 -676 154 -837Q133 -976 112 -1114Q100 -1198 100 -1256Q100 -1257 112 -1333Q141 -1518 360 -1518Q501 -1518 556 -1401Q571 -1369 571 -1360Q571 -1294 539 -1241Q501 -1179 439 -1179Q433 -1179 331 -1190Q361 -1040 392 -890Q422 -719 422 -586Q422 -588 419 -561Q389 -288 340 -49Q325 24 325 31Q380 14 411 14Q571 14 571 151ZM549 157Q549 120 520 78.5Q491 37 415 37Q395 37 358 50Q321 63 301 63L303 61L293 55Q356 -261 360 -282Q393 -475 393 -623V-621L395 -623V-647Q395 -745 385 -795L313 -1155Q303 -1205 303 -1209Q303 -1217 311 -1225Q395 -1204 436 -1204Q488 -1204 519 -1255Q546 -1298 546 -1354Q546 -1411 480 -1454Q420 -1493 360 -1493Q249 -1493 187 -1430Q125 -1367 125 -1256Q125 -1198 159 -957Q200 -666 200 -559Q200 -453 166.5 -244Q133 -35 133 71Q133 212 217 274Q231 284 284.5 304.5Q338 325 352 325Q432 325 488 282Q549 235 549 157Z"/>
</svg>