<svg xmlns="http://www.w3.org/2000/svg" viewBox="0 -2048 2048 2048">
	<path fill="currentColor" d="M553 -1219L479 -569L543 6Q543 126 497 206Q438 310 314 310Q224 310 162 256.5Q100 203 100 121Q100 49 155 12Q197 -16 253 -16Q288 -16 336 4Q341 -1 338 -12Q313 -112 274 -309Q248 -489 248 -638Q248 -806 332 -1156Q335 -1164 331 -1168Q221 -1152 240 -1152Q173 -1152 137 -1199Q105 -1241 105 -1303Q105 -1391 176 -1436Q232 -1473 311 -1473Q553 -1473 553 -1219ZM528 -1203Q528 -1453 306 -1453Q246 -1453 193 -1421Q125 -1381 125 -1310Q125 -1178 245 -1178Q252 -1178 298.5 -1185.5Q345 -1193 350 -1193Q357 -1193 365 -1185Q339 -1060 314 -935Q273 -735 273 -623Q273 -505 300 -299Q307 -245 351 -64Q370 14 370 14Q370 28 362 35Q279 9 245 9Q125 9 125 124Q125 194 183 241Q236 284 304 284Q518 284 518 14L462 -562Q462 -673 478 -824Q481 -851 508 -1006Q528 -1124 528 -1203Z"/>
</svg>