<svg xmlns="http://www.w3.org/2000/svg" viewBox="13 -985 2347.9 607.9">
	<path fill="currentColor" d="M2274 -674Q2274 -651 2231 -596Q2129 -464 1844 -464Q1764 -464 1604 -496Q1456 -526 1349 -528Q1325 -529 1269 -533Q1218 -537 1189 -537Q1157 -537 1107 -533Q1041 -529 1025 -528Q986 -528 907 -522Q877 -518 720 -487Q607 -464 532 -464Q248 -464 142 -600Q100 -654 100 -675V-757Q100 -777 139 -828Q155 -850 193.5 -874Q232 -898 256 -898Q405 -898 405 -752Q405 -722 385 -679Q402 -680 477 -680Q694 -680 851 -703Q1124 -743 1187 -743Q1265 -743 1379 -725Q1475 -710 1570 -695Q1695 -679 1855 -679Q1878 -679 1992 -682Q1972 -720 1972 -735Q1972 -823 2001 -858Q2034 -898 2120 -898Q2185 -898 2238 -825Q2274 -775 2274 -758ZM2249 -725Q2249 -824 2142 -865Q2119 -874 2117 -874Q2047 -874 2021 -842Q1996 -814 1996 -743Q1996 -717 2019 -680Q2037 -681 2075 -694L2090 -681Q2052 -653 1955 -653Q1738 -653 1537 -677Q1535 -677 1362 -703Q1258 -719 1187 -719Q1114 -719 979 -701Q925 -690 817 -673Q621 -652 384 -652Q336 -652 271 -685Q317 -690 317 -690Q311 -690 360 -681Q378 -723 378 -754Q378 -820 351 -847Q324 -874 258 -874Q239 -874 204 -854Q126 -809 126 -741Q126 -735 126 -723Q125 -711 125 -706Q125 -662 160 -615Q252 -491 527 -491Q606 -491 718 -511Q813 -529 908 -546Q949 -548 1031 -552Q1050 -553 1109 -559Q1158 -564 1187 -564Q1218 -564 1267 -559Q1330 -552 1346 -551Q1387 -551 1469 -546Q1476 -545 1657 -512Q1770 -491 1847 -491Q2045 -491 2147 -555Q2190 -582 2210 -609Q2248 -661 2248 -685Q2248 -692 2248 -705Q2249 -718 2249 -725Z"/>
</svg>