<svg xmlns="http://www.w3.org/2000/svg" viewBox="0 -2048 2048 2048">
	<path fill="#000000" d="M1775 -621H1006Q1056 -564 1230 -259Q1279 -173 1356 45Q1360 57 1387 105Q1404 138 1404 168Q1404 234 1336 234Q1331 234 1305.5 222.5Q1280 211 1275 211Q1269 211 1254.5 222.5Q1240 234 1234 234H957L952 228V193Q983 171 1102 133Q1192 105 1210 57L967 -373Q947 -311 890 -189Q843 -119 795 -49Q737 39 726 87Q725 92 728 114Q731 139 731 150Q731 178 717 202Q699 234 668 234Q663 234 628.5 220Q594 206 589 206Q583 206 560.5 219.5Q538 233 532 233H300Q297 215 290 180Q313 158 328 158Q385 156 513 97Q555 78 581 31Q598 -8 615 -46Q672 -179 729 -313Q814 -504 902 -620H100V-656Q100 -658 124 -739Q151 -830 283 -937Q408 -1039 474 -1039H1775V-1021H483Q462 -1010 415 -995Q339 -981 232 -864Q122 -745 122 -671V-647H1775ZM1386 166Q1386 156 1361 103Q1333 42 1328 27Q1257 -206 1088 -463Q1062 -507 1036 -552Q988 -623 951 -623Q925 -623 890 -572Q866 -531 841 -490Q771 -385 706 -225Q653 -95 601 36Q571 104 477 137Q414 156 313 189V211H527Q533 211 559 197.5Q585 184 591 184Q596 184 629.5 195Q663 206 668 206Q712 206 712 136Q712 63 708 78Q721 31 776 -53Q849 -165 859 -184Q896 -272 964 -410H975Q1031 -289 1062 -234Q1106 -168 1149 -102Q1232 28 1232 50Q1232 101 1136 142Q1116 151 1003 186Q982 193 974 210H1231Q1254 188 1275 188Q1281 188 1307 199.5Q1333 211 1339 211Q1386 211 1386 166Z"/>
</svg>