<svg xmlns="http://www.w3.org/2000/svg" viewBox="0 -2048 2048 2048">
	<path fill="currentColor" d="M1813 -221H1252V280H674V-225Q509 -165 406 -165Q315 -165 212 -219Q99 -279 100 -346Q132 -366 144 -366Q140 -366 239.5 -317Q339 -268 408 -268Q447 -268 512 -287V-299Q516 -298 416 -298Q366 -298 296 -333Q300 -355 327 -391Q367 -371 391 -371Q397 -371 459.5 -381Q522 -391 528 -391Q534 -391 590.5 -364Q647 -337 653 -337Q659 -337 666.5 -339Q674 -341 678 -341V-716Q678 -989 947 -1250Q762 -1405 624 -1410V-1434H650Q697 -1434 821 -1365Q940 -1298 960 -1267Q1110 -1397 1287 -1433H1304V-1410Q1135 -1394 981 -1251Q1066 -1208 1161 -1020Q1251 -844 1251 -756V-446Q1251 -392 1250 -396Q1470 -367 1508 -366H1550L1594 -865H1774ZM1226 -604V-737Q1226 -828 1170 -952Q1117 -1071 1041 -1159Q977 -1233 964 -1233Q955 -1233 898.5 -1170Q842 -1107 812 -1062.5Q782 -1018 743 -918Q702 -813 702 -794V-604ZM1225 -524V-576H698V-524ZM1794 -244L1754 -841H1614Q1603 -678 1577 -354Q1576 -342 1557 -342L1153 -376Q1005 -376 665 -317Q641 -317 587 -341.5Q533 -366 521 -366Q515 -366 457 -356.5Q399 -347 393 -347Q387 -347 365 -354Q343 -361 337 -361Q325 -361 325 -343Q330 -338 363 -327.5Q396 -317 411 -317Q417 -317 455 -322Q493 -327 499 -327Q514 -327 517 -326Q532 -308 541 -277Q470 -244 406 -244Q354 -244 265 -279Q241 -288 190 -319Q145 -347 141 -347Q136 -347 124 -335V-319Q152 -266 253 -226Q342 -190 408 -190Q520 -190 641 -244ZM1225 -396V-495H699Q702 -453 702 -414Q702 -374 699 -352H738Q743 -352 837 -365Q942 -380 989 -384Q1135 -397 1225 -396ZM1230 255V-219H698V255Z"/>
</svg>