<svg xmlns="http://www.w3.org/2000/svg" viewBox="0 -2048 2048 2048">
	<path fill="currentColor" d="M922 131H830L799 -71H526V348H504V-69H228L197 131H100V109Q100 97 163 -381Q228 -876 246 -978Q255 -1033 336 -1054Q391 -1065 447 -1076Q415 -1141 382 -1205Q338 -1296 338 -1342Q338 -1360 353 -1388Q368 -1416 386 -1427Q417 -1445 438 -1448Q494 -1455 511 -1455Q517 -1455 542.5 -1452Q568 -1449 578 -1448Q615 -1445 652 -1402.5Q689 -1360 689 -1331Q689 -1323 581 -1076Q638 -1063 695 -1051Q767 -1030 775 -978Q812 -745 870 -312Q922 83 922 98ZM663 -1336Q663 -1383 609 -1409Q566 -1430 514 -1430Q364 -1430 364 -1331Q364 -1292 386 -1242Q405 -1202 424 -1162Q459 -1078 487 -1085Q400 -1288 400 -1321Q400 -1393 521 -1393Q622 -1393 622 -1318Q622 -1276 535 -1079H554Q584 -1140 613 -1201Q663 -1307 663 -1336ZM601 -1321Q601 -1368 519 -1368Q440 -1368 421 -1321L511 -1099Q601 -1270 601 -1321ZM896 105V88Q852 -270 749 -978Q743 -1016 667 -1036Q609 -1052 539 -1052Q437 -1052 371 -1040Q279 -1023 272 -978Q240 -771 180 -325Q126 84 126 94V110H177L208 -90H819L851 111Q873 104 896 105Z"/>
</svg>