<svg xmlns="http://www.w3.org/2000/svg" viewBox="0 -2048 2048 2048">
	<path fill="#000000" d="M907 263H787V84H726V263H626V91Q607 85 588 85Q569 85 550 91V263H455V84H379V263H276V84H215V263H100L372 -1087Q354 -1107 324 -1146Q283 -1211 283 -1269Q283 -1271 301 -1326Q325 -1399 390 -1439Q444 -1472 506 -1472Q585 -1472 654 -1417Q729 -1358 729 -1278Q729 -1144 625 -1091ZM882 243L600 -1106Q704 -1147 704 -1273Q704 -1352 644 -1401Q587 -1447 504 -1447Q403 -1447 359 -1392Q308 -1328 308 -1266Q308 -1197 349 -1150Q368 -1131 397 -1097L125 243H191V64H301V243H354V66H482V243H533V64H648V243H701V64H812V243Z"/>
</svg>