<svg xmlns="http://www.w3.org/2000/svg" viewBox="0 -2048 2048 2048">
	<path fill="#000000" d="M1889 -314L1501 174L999 -179L497 174L100 -327H990V-396H835Q835 -398 830 -402Q825 -406 825 -413Q825 -447 869 -492Q902 -527 921 -535Q968 -556 999 -556Q1051 -556 1101.5 -516Q1152 -476 1173 -413V-397H1015Q1012 -378 1012 -353Q1012 -328 1015 -307H142L503 145L1002 -203L1496 145L1877 -325ZM1145 -418Q1120 -470 1076.5 -501.5Q1033 -533 995 -533Q1009 -533 959 -526Q943 -524 902 -492Q854 -456 854 -431V-418Z"/>
</svg>