<svg xmlns="http://www.w3.org/2000/svg" viewBox="28.6 -1522.4 1928.9 1912.9">
	<path fill="currentColor" d="M1886 -432H1003V319H984V-432H557Q516 -431 406 -397Q406 -396 452 -274Q445 -272 424.5 -268.5Q404 -265 397 -263Q364 -356 346 -389Q242 -394 196 -426Q146 -461 146 -538Q146 -587 181 -612Q124 -627 100 -673Q100 -682 103 -691Q106 -700 106 -701Q164 -676 220 -676Q232 -676 253 -685Q115 -1058 115 -1115Q115 -1166 157 -1199Q194 -1228 238 -1228Q300 -1228 338 -1176Q370 -1133 370 -1085Q370 -1058 358 -1024Q344 -985 327 -977Q319 -982 294 -994Q299 -1013 299 -1057Q299 -1161 245 -1161Q226 -1161 200 -1146Q171 -1128 171 -1108Q171 -1074 313 -682Q376 -689 461 -643Q465 -641 502 -609Q529 -586 543 -589L984 -665V-1116Q823 -1129 797 -1132Q695 -1144 573 -1177Q565 -1138 573 -1075H545V-1436H569V-1344Q598 -1341 653 -1357Q725 -1377 740 -1379Q863 -1399 979 -1406Q986 -1426 984 -1451H1003V-1411Q1121 -1394 1239 -1377Q1337 -1363 1418 -1335Q1422 -1356 1422 -1383Q1422 -1409 1418 -1436H1442V-1075H1418Q1418 -1097 1417 -1173Q1412 -1178 1400 -1175Q1315 -1156 1231 -1136Q1132 -1115 1062 -1115Q1038 -1115 1004 -1121V-665Q1318 -671 1583 -599H1597L1653 -1110H1855ZM1422 -1203Q1416 -1295 1417 -1313Q1167 -1381 1046 -1380H1007V-1141H1051Q1172 -1140 1422 -1203ZM982 -1147V-1380H940Q876 -1380 734 -1351Q652 -1332 570 -1314V-1203Q840 -1139 982 -1147ZM1861 -452L1835 -1089H1673L1612 -569Q1279 -646 1078 -646Q977 -646 750.5 -605Q524 -564 531 -564Q518 -564 461.5 -612.5Q405 -661 342 -661Q335 -661 295 -658.5Q255 -656 250 -656Q178 -656 136 -662Q184 -627 245 -623Q295 -619 345 -616V-603Q330 -595 291 -595Q285 -595 256.5 -600Q228 -605 222 -605Q171 -605 171 -541Q171 -416 319 -416Q326 -416 423.5 -434Q521 -452 527 -452ZM345 -1082Q345 -1127 316 -1165Q283 -1207 233 -1207Q193 -1207 163.5 -1178Q134 -1149 135 -1109Q180 -936 277 -681L291 -685L150 -1109Q176 -1187 243 -1187Q324 -1187 324 -1062Q324 -1056 322.5 -1035.5Q321 -1015 321 -1008Q345 -1036 345 -1082ZM424 -287L387 -384H379L416 -287Z"/>
</svg>