<svg xmlns="http://www.w3.org/2000/svg" viewBox="0 -2048 2048 2048">
	<path fill="currentColor" d="M648 -1343Q631 -1342 597.5 -1336Q564 -1330 527 -1298Q490 -1266 479 -1235Q463 -1191 463 -1141Q463 -1070 498 -932Q514 -876 542 -763Q572 -646 602 -530Q638 -389 638 -293Q638 -171 528 -89Q592 -25 592 66Q592 170 511 236L614 321V362H134V321L237 236Q156 170 156 66Q156 -25 220 -89Q110 -171 110 -293Q110 -389 146 -530Q176 -646 206 -763Q221 -819 250 -932Q285 -1070 285 -1141Q285 -1191 269 -1235Q258 -1266 221 -1298Q184 -1330 152 -1337Q135 -1338 100 -1343Q111 -1384 152 -1412.5Q193 -1441 236 -1441Q267 -1441 299 -1424Q324 -1502 374 -1555Q424 -1502 449 -1424Q481 -1441 512 -1441Q555 -1441 596 -1412.5Q637 -1384 648 -1343ZM612 -293Q612 -390 577 -528Q547 -643 517 -758Q492 -853 467 -948Q437 -1061 437 -1141Q437 -1224 481 -1288Q529 -1358 608 -1365Q570 -1415 512 -1415Q486 -1415 434 -1386Q406 -1474 374 -1515Q342 -1474 314 -1386Q262 -1415 236 -1415Q178 -1415 140 -1365Q219 -1358 267 -1288Q311 -1224 311 -1141Q311 -1061 281 -948Q256 -853 231 -758Q201 -643 171 -528Q136 -390 136 -293Q136 -192 241 -106Q300 -152 374 -152Q448 -152 507 -106Q612 -192 612 -293ZM566 66Q566 -14 510 -70Q454 -126 374 -126Q294 -126 238 -70Q182 -14 182 66Q182 146 238 202Q294 258 374 258Q454 258 510 202Q566 146 566 66ZM588 336V333L489 251Q436 284 374 284Q312 284 259 251L160 333V336Z"/>
</svg>