<svg xmlns="http://www.w3.org/2000/svg" viewBox="31.2 -1438.8 1836.5 1856.5">
	<path fill="currentColor" d="M1799 -751Q1799 -677 1781 -581Q1757 -449 1718 -449Q1656 -449 1582 -593Q1539 -677 1517 -745Q1501 -795 1501 -846Q1501 -932 1560 -952Q1507 -1083 1495 -1105Q1429 -1223 1349 -1223Q1312 -1223 1260 -1196Q1201 -1165 1188 -1127Q1172 -1082 1172 -1008Q1172 -921 1244 -693Q1295 -547 1345 -401Q1422 -165 1422 -58Q1422 143 1279 253Q1155 349 972 349Q750 349 620 259Q462 150 462 -80Q462 -112 514 -301Q517 -312 643 -670Q722 -897 722 -1037Q722 -1112 679 -1165Q633 -1223 558 -1223Q570 -1223 509 -1210Q430 -1193 376 -1103Q331 -1027 325 -947Q384 -918 384 -844Q384 -802 372 -760Q352 -691 333 -647Q318 -612 267 -538Q204 -445 178 -445Q132 -445 112 -580Q100 -659 100 -736Q100 -753 108 -859Q111 -901 131 -928Q155 -943 191 -982Q203 -1023 228 -1104Q267 -1229 371 -1303Q464 -1370 570 -1370Q760 -1370 842 -1163Q848 -1149 859 -1051Q869 -961 869 -947Q869 -913 816 -740Q749 -521 695 -363Q619 -141 619 -28Q619 88 721 149Q800 197 901 197Q906 197 961 190Q1023 182 1052 179Q1265 160 1265 -89Q1265 -139 1203 -348Q1147 -515 1090 -681Q1025 -883 1025 -1018Q1025 -1148 1100 -1252Q1186 -1370 1322 -1370Q1488 -1370 1562 -1276Q1614 -1210 1687 -973Q1799 -926 1799 -751ZM1780 -753Q1780 -807 1753 -869Q1717 -949 1660 -949Q1520 -949 1520 -836Q1520 -773 1595 -623Q1676 -461 1730 -474Q1754 -514 1758 -555Q1780 -775 1780 -753ZM1662 -974Q1594 -1191 1547 -1252Q1479 -1341 1332 -1341Q1197 -1341 1120 -1243Q1050 -1153 1050 -1013Q1050 -884 1106 -699Q1108 -692 1208 -397Q1235 -320 1262 -243Q1285 -165 1285 -89Q1285 45 1239 111Q1181 193 1032 209Q913 222 891 222Q778 222 696 163Q599 93 599 -33Q599 -129 638 -262Q674 -371 710 -481Q743 -582 776 -684Q815 -808 831 -897Q844 -970 844 -974Q844 -1084 828 -1133Q758 -1346 563 -1346Q332 -1346 245 -1089Q217 -1007 218 -995V-974Q226 -978 247 -978Q254 -978 273 -970Q297 -961 304 -959Q323 -1036 343 -1083Q378 -1166 402 -1183Q486 -1243 565 -1243Q741 -1243 741 -1023Q741 -891 664 -673Q641 -609 549 -330Q487 -143 487 -72Q487 27 530 119Q582 231 679 277Q720 297 753 304Q842 324 962 324Q1153 324 1270 232Q1403 127 1403 -75Q1403 -126 1377 -208Q1354 -277 1330 -345Q1297 -450 1239 -629Q1148 -903 1148 -1005Q1148 -1243 1341 -1243Q1435 -1243 1499 -1143Q1522 -1108 1580 -964Q1657 -974 1662 -974ZM364 -851Q364 -886 325 -920Q286 -954 244 -954Q119 -954 119 -746Q119 -662 145 -505Q151 -469 181 -469Q191 -469 228 -519Q364 -704 364 -851Z"/>
</svg>