<svg xmlns="http://www.w3.org/2000/svg" viewBox="0 -2048 2048 2048">
	<path fill="currentColor" d="M1725 270Q1725 283 1710 294Q1695 305 1686 305Q1663 305 1596 230Q1536 163 1494 51Q1455 -56 1455 -137L1485 -484Q1485 -874 1187 -905Q1115 -916 1030 -928H995V299H970V-924L449 -889Q331 -889 331 -1046Q331 -1077 355 -1185L347 -1193Q305 -1178 255 -1178Q206 -1178 160 -1197Q100 -1222 100 -1264Q100 -1325 188 -1367Q256 -1399 311 -1399Q373 -1399 420 -1377Q484 -1347 488 -1286L449 -1139Q446 -1111 465 -1079Q485 -1043 512 -1043Q519 -1043 526 -1046L969 -1109V-1121L760 -1380Q687 -1292 542 -1116H533Q533 -1116 522 -1127L755 -1419L981 -1144L1202 -1419L1440 -1127L1428 -1114L1207 -1385L993 -1121V-1109Q1328 -1119 1486 -1017Q1652 -910 1652 -660Q1652 -588 1638 -508Q1597 -274 1597 -240Q1597 -159 1625 12Q1635 70 1667 154Q1674 171 1701 221Q1725 263 1725 270ZM1701 273Q1578 67 1578 -223Q1578 -332 1613 -498Q1637 -612 1637 -648Q1637 -652 1632.5 -678Q1628 -704 1628 -714Q1624 -900 1461 -1000Q1321 -1085 1111 -1085Q1047 -1085 873 -1068Q797 -1061 652 -1040Q521 -1021 520 -1021Q424 -1021 424 -1137Q424 -1147 446 -1213.5Q468 -1280 468 -1284Q468 -1375 316 -1375Q265 -1375 205 -1351Q124 -1319 124 -1267Q124 -1235 176 -1217Q215 -1203 255 -1203Q262 -1203 328 -1209Q332 -1209 345 -1214Q358 -1219 365 -1219Q376 -1219 380 -1206L350 -1048Q363 -913 463 -913L984 -952Q1239 -952 1358 -868Q1509 -763 1509 -496L1480 -140Q1480 -94 1486 -61Q1521 129 1647 252Q1676 280 1688 280Q1699 280 1701 273ZM331 -1313Q319 -1308 294 -1281Q283 -1290 262 -1308L293 -1340Q315 -1329 331 -1313Z"/>
</svg>