<svg xmlns="http://www.w3.org/2000/svg" viewBox="32.8 -709.2 1815.5 987.5">
	<path fill="currentColor" d="M1781 -177Q1781 -110 1743 -79Q1705 -48 1612 -41L1714 78L1697 95Q1669 66 1580 -45H1245L1241 -41V-14Q1243 -12 1250 -7Q1285 4 1310 63Q1335 122 1386 144V166Q1344 211 1222 211Q1068 211 1034 160Q1055 145 1096 106Q1111 76 1125 46Q1147 3 1184 -15V-43H696L692 -10Q722 -13 746 33Q763 70 780 106Q801 123 837 155Q809 211 668 211Q524 211 485 166Q488 152 504 142Q517 135 531 126.5Q545 118 568 59Q590 4 630 -15V-45H301Q259 -1 170 85L158 73L264 -41Q100 -50 100 -184Q100 -233 142 -268Q180 -300 223 -300H434Q448 -314 464 -371.5Q480 -429 480 -466Q480 -533 424 -576Q374 -613 314 -613Q252 -613 214.5 -576Q177 -539 177 -481Q177 -445 219 -410Q258 -377 290 -377Q322 -377 350.5 -396.5Q379 -416 379 -447Q379 -480 321 -524Q323 -526 327 -532.5Q331 -539 333 -541Q353 -530 382 -506Q403 -474 403 -447Q403 -404 363 -377Q329 -353 292 -353Q242 -353 198 -404Q158 -450 158 -488Q158 -549 203 -595.5Q248 -642 314 -642Q372 -642 435 -591Q504 -535 504 -473Q504 -430 461 -303Q465 -299 634 -303V-632H692V-300H1184V-632H1241V-300H1406Q1376 -461 1376 -464Q1376 -528 1439 -585Q1502 -642 1562 -642Q1581 -642 1618 -628Q1659 -613 1675 -596Q1719 -549 1719 -481Q1719 -427 1672 -388Q1629 -353 1579 -353Q1542 -353 1510 -387Q1478 -421 1478 -454Q1478 -476 1501 -507Q1524 -538 1549 -541Q1551 -536 1555 -529Q1555 -528 1524 -503Q1502 -484 1502 -457Q1502 -421 1532 -397Q1558 -377 1588 -377Q1627 -377 1663 -407.5Q1699 -438 1699 -471Q1699 -532 1658.5 -575Q1618 -618 1564 -618Q1491 -618 1444 -566Q1401 -519 1401 -452Q1401 -354 1443 -300H1638Q1683 -300 1729 -265Q1781 -226 1781 -177ZM1757 -177Q1757 -199 1731 -231Q1702 -267 1668.5 -274.5Q1635 -282 1605 -280H1454Q1520 -169 1595 -64Q1757 -52 1757 -177ZM1559 -65Q1478 -187 1424 -279Q1388 -281 1398 -281Q1397 -281 1377 -279.5Q1357 -278 1331 -278Q1294 -277 1245 -279V-65ZM1357 159Q1314 137 1289 72Q1267 16 1230 12Q1226 9 1222 5V-607Q1217 -612 1203 -612V1Q1196 3 1170 20Q1153 34 1131 92Q1113 141 1063 160Q1142 191 1220 191Q1339 191 1357 159ZM1183 -67V-275H693V-67ZM808 160Q775 153 744 81Q713 9 668 1V-613H654V1Q646 3 621 20Q602 35 579 93Q558 141 514 160Q574 191 654 191Q730 191 808 160ZM629 -65V-279Q576 -277 539 -278Q514 -278 496.5 -279.5Q479 -281 478 -281Q452 -281 448 -275Q405 -204 317 -65ZM422 -280Q420 -280 296 -278Q263 -277 227 -276Q124 -272 124 -177Q124 -126 171 -90Q213 -59 261 -59Q288 -59 353 -157Q408 -242 422 -280Z"/>
</svg>