<svg xmlns="http://www.w3.org/2000/svg" viewBox="28.8 -1086.2 1922.4 1338.4">
	<path fill="currentColor" d="M1880 64L1390 40Q1400 40 1298 63Q777 181 707 181Q702 181 573 113Q421 32 358 3Q286 -30 100 -82V-99L232 -289Q299 -255 423 -195Q514 -146 605 -98Q729 -32 790 -32Q815 -32 867 -42Q925 -53 942 -64L700 -282Q708 -289 736 -335Q768 -387 768 -405Q768 -411 755 -477Q739 -555 734 -588H961V-794Q961 -798 953 -828Q935 -898 890 -936Q868 -955 803 -975Q742 -995 714 -995Q672 -995 614 -966Q552 -935 532 -895Q497 -824 497 -698Q497 -642 502 -622Q598 -609 598 -519Q598 -481 567.5 -450.5Q537 -420 504 -420Q471 -420 434 -442Q385 -470 385 -514Q385 -557 434 -606Q449 -611 476 -626Q471 -682 476 -742Q483 -823 486 -836Q498 -894 532 -932Q607 -1015 719 -1015Q801 -1015 871 -974Q959 -924 972 -834Q973 -828 979 -805.5Q985 -783 985 -776V-589H1116Q1105 -550 1094 -511Q1087 -483 1087 -422Q1087 -356 1100 -327Q1118 -286 1178 -256Q1209 -251 1269 -239Q1426 -202 1530 -202Q1697 -202 1880 -274ZM1856 44V-240Q1838 -233 1713 -207Q1575 -178 1530 -178Q1509 -178 1388 -195Q1243 -216 1168 -237Q1111 -253 1088 -297Q1062 -348 1060 -368Q1063 -328 1063 -417Q1063 -481 1087 -564H754Q792 -483 792 -405Q792 -385 770.5 -344.5Q749 -304 729 -286L976 -58Q976 -54 972 -51Q829 -8 785 -8Q736 -8 615 -67Q538 -107 461 -146Q419 -166 242 -260L129 -97Q271 -64 396 -2Q713 156 712 156Q781 156 1083 90Q1229 56 1375 23Q1405 21 1443 21ZM574 -521Q574 -599 492 -599Q465 -599 438 -574Q410 -546 410 -514Q410 -484 439 -461.5Q468 -439 499 -439Q534 -439 555 -466Q574 -489 574 -521Z"/>
</svg>