<svg xmlns="http://www.w3.org/2000/svg" viewBox="0 -2048 2048 2048">
	<path fill="currentColor" d="M1741 -45Q1741 -6 1642 54Q1555 106 1536 106Q1530 106 1453 80.5Q1376 55 1373 55Q1376 55 1330 85.5Q1284 116 1249 116Q1243 116 1151 90Q1059 64 1053 64Q1010 64 991 105Q988 126 980 166H865Q848 69 792 69Q753 69 695 92.5Q637 116 624 116Q624 116 456 60L293 102Q276 102 251 96Q207 86 179.5 72Q152 58 129 31Q100 -3 100 -22Q100 -62 114 -62Q113 -62 197 -2Q228 20 275 36L461 -15Q485 -8 552 14Q607 32 613 32Q619 32 706 8.5Q793 -15 799 -15Q840 -15 882 18V-1083H581Q575 -1099 575 -1127Q575 -1161 597 -1240Q660 -1466 916 -1466Q1166 -1466 1220 -1277Q1243 -1198 1242 -1179V-1085H963V4Q1043 -10 1046 -10Q1052 -10 1131.5 11Q1211 32 1217 32Q1223 32 1299.5 8.5Q1376 -15 1382 -15Q1405 -15 1454 2Q1532 28 1545 32L1720 -61H1736Q1736 -59 1738.5 -55.5Q1741 -52 1741 -45ZM1219 -1102V-1203Q1220 -1229 1189 -1296Q1138 -1406 998 -1436Q970 -1442 918 -1442Q701 -1442 625 -1259Q598 -1195 599 -1173V-1102ZM1708 -33Q1632 18 1584 40Q1578 43 1536 54Q1513 60 1504 77Q1503 77 1515.5 80Q1528 83 1548 83Q1652 40 1708 -33ZM939 35V-1082H902V29Q902 39 918 55Q926 47 939 35ZM1503 38L1375 4Q1324 22 1274 40Q1210 64 1205 87Q1202 87 1219.5 89.5Q1237 92 1268 92Q1283 84 1331 55Q1369 32 1375 32Q1392 32 1478 69Q1497 50 1503 38ZM1196 52Q1053 13 1039 13Q983 13 960 41Q937 69 930 143H962Q973 46 1049 46Q1096 46 1175 78Q1184 66 1196 52ZM906 143V122Q907 81 900 66Q879 23 821 10Q816 8 799 8Q794 8 740 24Q680 42 655 47Q669 74 680 74Q686 74 741 60Q796 46 802 46Q815 46 841 64Q867 82 872 95Q880 116 879 143ZM654 82Q654 77 651.5 67Q649 57 649 56Q587 51 459 4L337 43Q358 64 363 64Q365 64 405.5 52.5Q446 41 452 41Q458 41 534.5 66.5Q611 92 617 92Q634 92 654 82ZM337 67Q316 46 300 46Q294 46 290.5 50.5Q287 55 281 55Q250 55 124 -29Q130 15 193 49Q249 78 295 78Q311 78 337 67Z"/>
</svg>