<svg xmlns="http://www.w3.org/2000/svg" viewBox="16.6 -419.4 2252.9 640.9">
	<path fill="currentColor" d="M2186 -216H2147Q2130 -26 2051 57Q1976 138 1825 138Q1571 138 1476 -106Q1464 -137 1464 -215H275Q259 -215 236 -178Q216 -146 216 -138Q216 -100 295 -57Q337 -38 380 -19Q431 5 431 31Q431 35 413 48Q385 61 354 61Q259 61 184 6Q100 -55 100 -149Q100 -168 112 -229Q117 -253 174 -294.5Q231 -336 258 -336H2186ZM2120 -196Q2120 -204 2117 -208Q2114 -212 2114 -214H1491V-163Q1491 -102 1563 -7Q1636 91 1692 98Q1790 111 1822 111Q1906 111 1925 104Q2029 65 2080 -31Q2120 -107 2120 -196ZM2164 -243V-313H280Q250 -314 198.5 -280.5Q147 -247 134.5 -218Q122 -189 122 -149Q122 -62 201 -10Q267 34 346 34Q376 34 398 22Q348 -2 298 -27Q239 -56 211 -87Q194 -106 194 -138Q194 -163 222 -201Q252 -243 280 -243Z"/>
</svg>