<svg xmlns="http://www.w3.org/2000/svg" viewBox="14.6 -1276.4 2306.9 1375.9">
	<path fill="currentColor" d="M1383 -976Q1383 -887 1320 -824Q1257 -761 1168 -761Q1079 -761 1016 -824Q953 -887 953 -976Q953 -1065 1016 -1128Q1079 -1191 1168 -1191Q1257 -1191 1320 -1128Q1383 -1065 1383 -976ZM2236 -509H100V-668H2236ZM1383 -201Q1383 -112 1320 -49Q1257 14 1168 14Q1079 14 1016 -49Q953 -112 953 -201Q953 -290 1016 -353Q1079 -416 1168 -416Q1257 -416 1320 -353Q1383 -290 1383 -201ZM1357 -976Q1357 -1054 1301.5 -1109.5Q1246 -1165 1168 -1165Q1090 -1165 1034.5 -1109.5Q979 -1054 979 -976Q979 -898 1034.5 -842.5Q1090 -787 1168 -787Q1246 -787 1301.5 -842.5Q1357 -898 1357 -976ZM2210 -535V-642H126V-535ZM1357 -201Q1357 -279 1301.5 -334.5Q1246 -390 1168 -390Q1090 -390 1034.5 -334.5Q979 -279 979 -201Q979 -123 1034.5 -67.5Q1090 -12 1168 -12Q1246 -12 1301.5 -67.5Q1357 -123 1357 -201Z"/>
</svg>