<svg xmlns="http://www.w3.org/2000/svg" viewBox="0 -2048 2048 2048">
	<path fill="#000000" d="M2116 -1245Q2116 -1068 2100 -1015Q2079 -945 1691 -582Q1338 -251 1207 -154Q1196 -146 1188 -146Q1159 -146 1141 -269Q1051 -234 875 -78Q749 38 623 154Q607 168 599 168Q591 168 572 125Q553 82 514 82Q507 82 449 116.5Q391 151 364 151Q347 151 193 140Q171 140 129 137Q100 133 100 101Q100 45 152 5Q201 -31 258 -31Q292 -31 360 -21Q428 -11 462 -11Q635 -11 884 -253Q1063 -426 1308 -756Q1468 -973 1628 -1190Q1696 -1274 1821 -1345Q1939 -1412 2052 -1435L2058 -1436Q2116 -1436 2116 -1245ZM2087 -1202Q2087 -1374 2058 -1407Q1954 -1387 1836 -1320Q1714 -1251 1651 -1172Q1488 -951 1326 -731Q1078 -398 896 -224Q643 18 462 18Q428 18 360 8Q292 -2 258 -2Q145 -2 129 108Q167 108 245 115Q323 122 364 122Q383 122 441 87.5Q499 53 514 53Q549 53 576 75.5Q603 98 603 133Q872 -112 878 -117Q1090 -300 1164 -304Q1173 -249 1189 -177Q1321 -279 1668 -602Q2055 -962 2072 -1023Q2087 -1078 2087 -1202Z"/>
</svg>