<svg xmlns="http://www.w3.org/2000/svg" viewBox="0 -2048 2048 2048">
	<path fill="#000000" d="M1989 -325Q1929 -298 1877 -298Q1820 -298 1712.5 -387.5Q1605 -477 1595 -477Q1578 -477 1518 -453Q1538 -425 1564 -365H1516Q1484 -365 1417.5 -395.5Q1351 -426 1349 -426Q1315 -426 1257 -407Q1290 -385 1313 -362Q1308 -357 1308 -344H1260Q1254 -344 1188 -367Q1122 -390 1116 -390Q1110 -390 1032 -377Q1063 -366 1092.5 -354.5Q1122 -343 1155 -310Q1135 -292 1111 -292Q1040 -292 808 -383Q764 -405 619 -449Q587 -456 533 -455Q467 -454 447 -456Q426 -436 424 -423Q416 -362 402 -239Q456 -195 528 -195Q606 -205 753 -216Q805 -217 894 -202Q1012 -182 1032 -151Q1017 -134 973 -134Q967 -134 863 -149Q759 -164 753 -164Q748 -164 642.5 -151.5Q537 -139 530 -139Q453 -139 400 -170Q397 -174 397 -162Q397 -118 439 -91Q476 -67 523 -67L768 -93Q895 -93 976 -24Q963 -11 953 -11Q948 -11 868 -21.5Q788 -32 781 -31L540 -11Q444 -3 388 -49Q358 -74 347 -110Q344 -132 342 -154Q336 -190 323 -190Q317 -190 301.5 -187.5Q286 -185 279 -185Q183 -185 135 -273Q100 -338 100 -423Q100 -429 128.5 -567.5Q157 -706 157 -712Q157 -717 132 -855H150Q213 -768 213 -699Q213 -693 182 -561Q151 -429 151 -423Q151 -372 182 -316Q221 -246 283 -246Q293 -246 295 -248Q197 -296 197 -392Q197 -434 226 -511Q253 -570 280 -628Q310 -693 310 -745Q310 -769 303 -806Q300 -821 286 -863Q274 -901 274 -907L287 -917Q326 -890 351 -828Q372 -776 372 -735Q372 -695 313 -566.5Q254 -438 254 -405Q254 -320 342 -297Q345 -379 373 -531Q399 -605 475 -664Q524 -702 568 -720Q894 -855 1010 -855H1088Q1082 -840 991 -791Q994 -789 1017 -789Q1042 -789 1162 -814.5Q1282 -840 1342 -840Q1411 -840 1490 -808Q1594 -765 1594 -696Q1594 -676 1585 -654Q1590 -651 1613 -651Q1642 -651 1647 -656Q1805 -820 1894 -820Q1941 -820 1969 -786Q1907 -749 1865 -676Q1825 -608 1825 -551Q1825 -442 1989 -325ZM1943 -336Q1805 -425 1805 -556Q1805 -622 1828.5 -671.5Q1852 -721 1922 -793Q1917 -793 1906.5 -796Q1896 -799 1889 -799Q1876 -799 1847 -787Q1815 -774 1744 -717Q1667 -656 1667 -635Q1667 -628 1677 -597.5Q1687 -567 1687 -561Q1687 -555 1674.5 -515Q1662 -475 1662 -469Q1662 -470 1713 -419Q1809 -323 1884 -323Q1908 -323 1943 -336ZM1533 -390Q1509 -446 1472 -446Q1465 -446 1441 -439Q1413 -432 1406 -431Q1476 -390 1501 -390ZM1662 -561Q1662 -588 1640 -628Q1603 -623 1544 -638Q1569 -670 1569 -692Q1569 -748 1470 -790Q1384 -827 1344 -820L1009 -763Q998 -763 978 -765.5Q958 -768 953 -768Q931 -768 834 -715Q823 -709 812 -683Q844 -660 916 -638Q1005 -611 1027 -601Q1027 -598 1024.5 -592Q1022 -586 1022 -583Q992 -582 925 -557Q848 -528 848 -502Q848 -485 898 -450Q941 -420 952 -417Q978 -411 1027 -400L1595 -497Q1618 -497 1639 -482Q1662 -536 1662 -561ZM1267 -371Q1225 -399 1223 -399H1180Q1204 -384 1267 -371ZM1104 -320Q1029 -352 955 -383Q863 -431 817 -505Q846 -551 885.5 -566.5Q925 -582 965 -597Q897 -611 874 -619Q818 -639 776 -679Q795 -726 876 -765Q934 -794 993 -823Q605 -760 437 -589Q392 -543 392 -514V-498Q397 -498 405 -492Q418 -497 443 -510Q468 -523 481 -528L489 -519V-506Q480 -500 448 -484Q492 -484 580 -479Q601 -476 624 -470Q709 -446 803 -408Q1018 -320 1104 -320ZM962 -167Q928 -177 843.5 -185Q759 -193 725 -190L517 -170Q498 -168 449.5 -187.5Q401 -207 386 -221Q376 -237 350 -264Q311 -287 272 -309Q235 -337 235 -388Q235 -444 290.5 -562.5Q346 -681 346 -735Q346 -744 337 -779Q339 -764 339 -755Q339 -697 298 -602Q243 -474 236 -452Q224 -411 224 -396V-378Q224 -334 274 -299Q337 -255 346 -239Q313 -221 287 -221Q258 -221 217 -249.5Q176 -278 162 -305Q138 -350 138 -421Q138 -451 163 -542Q187 -629 187 -697Q187 -717 173 -763V-746Q173 -739 177.5 -727.5Q182 -716 182 -710Q182 -710 172 -657Q165 -619 149 -542Q123 -426 123 -427Q123 -355 153 -302Q208 -205 285 -205Q296 -205 318 -215.5Q340 -226 351 -226Q371 -226 368 -206L379 -216Q438 -172 496 -160Q510 -157 569 -164Q604 -169 674.5 -177Q745 -185 796 -180Q884 -172 960 -161ZM423 -464L383 -471Q366 -284 366 -298Q366 -291 380 -277Q381 -279 394 -380Q403 -451 423 -464ZM889 -49Q817 -67 763 -67Q757 -67 645.5 -54.5Q534 -42 528 -42Q380 -42 363 -190V-127Q361 -110 379 -89Q413 -49 463 -40Q482 -36 546 -36Q552 -36 672.5 -46.5Q793 -57 799 -57Q805 -57 842 -53Q879 -49 889 -49ZM607 -621Q587 -610 574 -610Q574 -610 540 -627Q544 -631 547 -655Q575 -671 581 -671Q607 -671 607 -644Z"/>
</svg>