<svg xmlns="http://www.w3.org/2000/svg" viewBox="0 -2048 2048 2048">
	<path fill="#000000" d="M2036 -414Q2036 -333 1998 -184Q1894 -232 1790 -280Q1668 -332 1585 -332Q1521 -332 1488 -324Q1513 -290 1559 -221L951 -77Q927 -76 885 -114.5Q843 -153 830 -153Q825 -153 779 -143Q730 -132 704 -129Q704 -131 694 -121Q803 -81 863 -65V-37Q825 -5 738 -5Q663 -5 496 -56Q329 -107 295 -107Q290 -107 220 -94.5Q150 -82 143 -82H101Q109 -97 160 -163Q214 -234 231 -310Q244 -369 244 -404Q244 -477 197 -568Q148 -651 100 -734Q106 -742 106 -747Q234 -716 290 -716Q304 -716 445 -771Q581 -824 756 -824Q843 -824 843 -798Q843 -791 835 -775Q757 -743 709 -719Q761 -710 870 -686Q877 -693 910 -751Q931 -788 958 -783L1569 -638Q1548 -607 1508 -546Q1544 -537 1593 -537Q1667 -537 1795 -591Q1892 -635 1988 -680Q1989 -677 2018 -556Q2036 -480 2036 -414ZM2010 -430Q2010 -490 1999 -547Q1988 -595 1978 -644L1723 -541Q1749 -499 1749 -430Q1749 -354 1734 -334L1983 -215Q2010 -404 2010 -430ZM1529 -623L958 -763Q931 -756 899 -682L1473 -553Q1502 -578 1529 -623ZM1728 -427Q1728 -451 1701 -532Q1672 -526 1577 -512L677 -696Q638 -701 433 -581Q527 -530 634 -488Q679 -473 747 -444Q756 -438 756 -414Q756 -376 597 -313.5Q438 -251 438 -228Q438 -196 542 -167Q565 -159 605 -146Q645 -133 638 -133Q673 -133 1068.5 -245.5Q1464 -358 1598 -358Q1642 -358 1712 -338Q1728 -386 1728 -427ZM1518 -237Q1482 -291 1447 -322L868 -162Q894 -137 906 -127Q937 -103 956 -102ZM830 -48Q747 -77 595 -126Q413 -180 413 -230Q413 -259 508 -303Q569 -328 631 -354Q659 -367 686 -380Q719 -399 730 -423Q691 -446 529 -507Q402 -555 402 -576Q402 -606 472 -640Q510 -656 549 -672Q582 -687 641.5 -714.5Q701 -742 817 -791L717 -798Q634 -788 476 -755Q469 -753 370 -716Q317 -696 279 -696Q230 -696 142 -715Q222 -572 233 -547Q264 -476 264 -402Q264 -249 152 -114Q250 -133 305 -133Q335 -133 493.5 -81.5Q652 -30 725 -30Q774 -30 830 -48Z"/>
</svg>