<svg xmlns="http://www.w3.org/2000/svg" viewBox="-35.8 394.2 965.5 641.5">
  <g transform="scale(1,-1) translate(0,-1000)">
    <path d="M90 294Q90 236 57 173Q67 173 111.0 175.5Q155 178 177 179Q293 184 351.5 188.5Q410 193 499.5 212.0Q589 231 670 267Q684 273 692 274L693 294Q689 295 680.5 297.0Q672 299 668 300Q506 350 374.0 370.5Q242 391 63 396Q90 347 90 294ZM837 359Q775 301 733 293L732 272Q772 264 837 202Q830 238 830 281Q830 323 837 359ZM249 426Q273 453 273 453Q312 492 386 537Q213 522 73 436Q174 433 249 426ZM50 294Q50 326 39.0 353.0Q28 380 17.0 396.0Q6 412 6 417Q6 424 9 428Q15 434 17 435Q203 566 448 570Q454 570 458.5 565.5Q463 561 463 555Q463 547 455 542Q329 471 285 422Q395 410 495.0 387.0Q595 364 649.5 347.5Q704 331 716 331Q740 331 773.5 358.0Q807 385 835.5 412.0Q864 439 874 439Q882 439 888.0 433.0Q894 427 894 419Q894 416 888.0 397.0Q882 378 876.0 346.5Q870 315 870.0 281.0Q870 247 875.5 215.5Q881 184 886.5 165.5Q892 147 892 145Q892 137 886.0 131.0Q880 125 872 125Q861 125 833.0 152.5Q805 180 770.5 207.5Q736 235 708 235Q694 235 664.5 223.0Q635 211 597.5 196.0Q560 181 476.0 165.0Q392 149 283 143Q332 92 449 28Q457 23 457 15Q457 9 452.5 4.5Q448 0 442 0H441Q200 4 16 131Q0 135 0 151Q0 156 12.5 176.5Q25 197 37.5 229.0Q50 261 50 294ZM245 141Q234 140 211.5 139.5Q189 139 178 139Q147 138 109.5 136.0Q72 134 67 134Q207 49 380 33Q306 78 267 117Q255 129 245 141Z" fill="currentColor"/>
  </g>
</svg>