<svg xmlns="http://www.w3.org/2000/svg" viewBox="0 -2048 2048 2048">
	<path fill="currentColor" d="M2031 -805Q2031 -799 2001 -726Q1968 -646 1964 -634Q1944 -570 1944 -506Q1944 -448 1976 -356Q2002 -283 2029 -210L2025 -189Q1874 -262 1549 -314Q1456 -102 1390 -2Q1378 -16 1360 -17Q1401 -89 1442 -161Q1488 -246 1508 -313Q1485 -318 1436 -318Q1342 -318 1244 -308Q1178 -158 1090 -3L1061 -22Q1114 -113 1202 -304Q1199 -305 1194 -305Q1057 -305 948 -272Q899 -169 803 -4Q779 -9 777 -29Q822 -107 901 -267Q894 -267 826 -251Q780 -244 689 -228Q642 -218 611 -189.5Q580 -161 497 -1L468 -28Q517 -100 564 -194Q439 -165 122 -33L100 -46Q161 -110 191.5 -168.5Q222 -227 256 -347Q292 -473 292 -532Q292 -754 103 -979Q116 -1010 139 -1010Q138 -1010 357 -923Q473 -877 564 -853Q552 -888 480 -999L511 -1015Q546 -956 614 -837Q670 -815 908 -764Q896 -829 788 -994L817 -1013Q844 -973 957 -753Q1014 -747 1128 -733Q1189 -725 1200 -725Q1205 -725 1212 -727Q1146 -886 1074 -994L1104 -1013Q1185 -895 1231 -780Q1239 -757 1254 -727Q1262 -719 1407 -719Q1474 -719 1512 -726Q1443 -901 1373 -999Q1391 -1000 1403 -1014Q1499 -883 1555 -725Q1656 -727 1791 -761Q1907 -792 2022 -824Q2031 -816 2031 -805ZM1976 -253Q1905 -398 1905 -506Q1905 -609 1976 -776Q1756 -703 1565 -687Q1598 -594 1598 -525Q1598 -462 1560 -347Q1788 -332 1976 -253ZM1557 -527Q1557 -560 1544 -611Q1530 -671 1512 -687H1264Q1290 -571 1290 -513Q1290 -454 1256 -348Q1277 -349 1329 -353Q1376 -356 1403 -356Q1446 -356 1520 -352Q1557 -487 1557 -527ZM1251 -520Q1251 -601 1219 -690L968 -718Q1003 -607 1003 -529Q1003 -445 960 -312Q966 -313 1211 -343Q1251 -424 1251 -520ZM964 -527Q964 -641 922 -723Q825 -747 632 -795Q697 -639 697 -522Q697 -427 631 -248Q678 -259 914 -306Q964 -421 964 -527ZM659 -520Q659 -690 590 -798Q453 -847 179 -949Q245 -874 290.5 -749.5Q336 -625 336 -522Q336 -335 198 -104Q375 -175 521 -216Q547 -223 581 -235Q594 -244 603 -283Q622 -335 652 -441Q659 -478 659 -520Z"/>
</svg>