<svg xmlns="http://www.w3.org/2000/svg" viewBox="0 0 999 1000">
  <g transform="scale(1,-1) translate(0,-1000)">
    <path d="M999 148Q999 127 992.5 106.0Q986 85 968.0 59.0Q950 33 908.0 16.5Q866 0 805 0Q665 0 473.5 80.5Q282 161 141.0 278.5Q0 396 0 490Q0 525 21 553Q54 615 180 615Q283 615 424.0 573.5Q565 532 692.5 468.5Q820 405 909.5 317.5Q999 230 999 148ZM806 29Q827 29 849.0 32.5Q871 36 901.5 47.0Q932 58 951.0 84.0Q970 110 970 149Q970 221 884.0 301.5Q798 382 676.0 443.0Q554 504 416.5 544.5Q279 585 179 585Q70 585 46 539Q46 538 45.5 538.0Q45 538 45 537Q29 515 29 490Q29 408 164.0 297.5Q299 187 485.0 108.0Q671 29 806 29ZM800 165Q800 166 799.5 171.0Q799 176 799 179Q799 207 817 223Q806 223 793.5 222.5Q781 222 772 222L764 221Q764 221 760.0 222.0Q756 223 753 223L744 201Q755 198 766 191Q768 190 768 190ZM729 304Q725 271 725 271V268Q731 264 734 263Q750 268 756 259Q760 258 772 258Q778 258 799.5 258.5Q821 259 836 259Q878 259 903 256L905 255Q922 252 919 234Q917 221 877.5 210.0Q838 199 836 187V185Q836 184 835.5 181.5Q835 179 835 178Q835 161 862.0 129.5Q889 98 889 86V82Q885 66 868 68Q864 68 860 72L747 160Q725 171 720 172Q710 152 704.5 148.0Q699 144 679 141L677 142Q657 145 645 167Q642 172 639.0 179.5Q636 187 633 191H631Q631 190 630 190H628Q620 185 607.5 176.0Q595 167 584.5 161.0Q574 155 561 151L557 150H554Q541 148 535 149Q535 149 533.0 150.0Q531 151 530 151Q514 164 493.5 191.5Q473 219 460 230Q364 263 310 293Q308 281 294.5 271.0Q281 261 263 261Q236 261 219 285Q209 299 204.0 312.5Q199 326 196.0 344.0Q193 362 189 373V377L156 405Q153 408 135.0 422.0Q117 436 111.5 441.5Q106 447 95.0 460.0Q84 473 76 487Q69 496 69 514V522Q75 559 145 559Q244 559 428 460L437 454H439Q452 455 473 455Q497 455 562 450Q565 450 573.0 448.0Q581 446 591.5 438.0Q602 430 602 417Q602 395 570 368L588 356Q637 350 670 344L702 339Q729 333 729 304ZM233 342Q246 297 263 297Q267 297 270.0 298.5Q273 300 274 302L276 304Q276 304 278 312Q261 322 233 342ZM557 184H560Q561 185 562 185Q570 188 584 200Q542 208 520 213Q537 195 550 185Q550 184 551 184L552 185Q558 187 560 187V186Q557 185 557 184ZM576 321Q560 324 557 334Q453 406 375.5 446.5Q298 487 199 515Q175 523 147 523Q124 523 105 516Q105 509 106 509L107 505Q113 495 118.5 487.5Q124 480 132.0 472.0Q140 464 144.0 460.5Q148 457 161.0 446.5Q174 436 179 432Q234 385 266 363L306 445Q327 428 364 404Q371 399 389.0 391.5Q407 384 417.0 376.5Q427 369 427 359Q427 344 411 344Q401 344 393.5 345.0Q386 346 374.5 347.5Q363 349 350 350Q312 356 269 361Q352 302 477 263Q520 250 605.0 232.5Q690 215 706 211Q706 212 707.0 212.0Q708 212 709 212L717 232Q668 256 576 321ZM175 492Q177 502 191 502Q200 502 207.0 495.5Q214 489 214 478Q214 461 196 461Q174 461 174 486Q174 487 174.5 489.0Q175 491 175 492ZM496 418 540 389Q544 393 548.0 396.5Q552 400 554.5 402.0Q557 404 559.0 407.0Q561 410 563 413V414Q561 413 560 413Q554 413 530.5 415.0Q507 417 496 418ZM656 310 692 287Q692 289 692.0 292.5Q692 296 693 298V304ZM679 180 682 177Q682 178 683 179Z" fill="currentColor"/>
  </g>
</svg>