<svg xmlns="http://www.w3.org/2000/svg" viewBox="0 -2048 2048 2048">
	<path fill="#000000" d="M1848 184L1466 214Q1028 214 696 -25Q322 -295 154 -824Q146 -850 133 -935Q100 -1157 100 -1165V-1212H1468Q1389 -1168 1320.5 -1066Q1252 -964 1252 -883Q1252 -841 1271 -790Q1337 -612 1599 -591Q1601 -587 1609 -578Q1521 -525 1468 -439Q1416 -357 1416 -280Q1416 -122 1538 -15Q1608 46 1848 157ZM1790 165Q1583 60 1497 -24Q1387 -134 1387 -283Q1387 -343 1432 -428Q1479 -519 1537 -554Q1550 -564 1550 -575Q1423 -576 1326 -670.5Q1229 -765 1229 -880Q1229 -1072 1410 -1200H129V-1153Q129 -1146 136 -1105Q143 -1061 144 -1047Q166 -746 367 -431Q391 -396 437 -326Q594 -72 927 71Q1204 190 1477 190Z"/>
</svg>