<svg xmlns="http://www.w3.org/2000/svg" viewBox="22.9 -1639.1 1169.2 2082.2">
	<path fill="currentColor" d="M1115 -272L1091 -248Q1090 -248 1049 -283Q1018 -309 1006 -305Q979 -427 918 -481Q916 -417 899 -314L1106 -118Q1063 -58 1000 99H983Q983 88 981 86Q964 110 928 156Q925 154 915 134Q869 189 839 209Q834 189 818 165Q789 182 742 221Q740 230 735 247Q728 268 697 299Q704 303 723 302V366H504Q504 366 504 301Q504 275 468 226Q451 203 388 161Q381 172 366 196Q341 172 295 121Q288 128 288 138H268Q255 113 229 64Q220 73 202 82L122 -116L302 -308Q293 -336 293 -347Q296 -412 295 -485Q250 -440 204 -310Q203 -310 200.5 -307.5Q198 -305 192 -305Q188 -305 187.5 -306.5Q187 -308 185 -314Q182 -311 154 -277Q132 -252 126 -252Q120 -252 114.5 -254.5Q109 -257 105 -257Q105 -258 102.5 -264Q100 -270 100 -276Q119 -294 148 -346Q141 -354 132 -345Q132 -354 122 -364Q167 -420 167 -426Q167 -434 161 -439Q165 -443 177 -453Q189 -463 196 -470Q188 -478 188 -485Q188 -493 245 -533Q278 -556 311 -578Q314 -580 330 -607Q346 -634 379 -639Q384 -639 390 -645Q366 -664 366 -697Q366 -709 369.5 -729.5Q373 -750 373 -758Q373 -758 271 -758Q249 -758 225 -774Q201 -790 205 -804L303 -1104H315Q313 -1104 321 -1096Q340 -1134 355 -1179Q368 -1179 374 -1166Q384 -1202 423 -1263Q430 -1253 440 -1236Q456 -1260 456 -1274Q456 -1279 440.5 -1328Q425 -1377 425 -1382Q425 -1403 453 -1403Q458 -1403 462 -1399Q463 -1416 466 -1450Q472 -1488 523 -1526Q570 -1562 601 -1562Q633 -1562 679 -1536Q728 -1507 744 -1473Q754 -1451 754 -1414Q754 -1406 757 -1403Q766 -1403 775.5 -1392.5Q785 -1382 785 -1377Q785 -1372 769.5 -1333Q754 -1294 754 -1289Q754 -1264 761 -1236Q777 -1257 793 -1258Q803 -1230 828 -1170Q838 -1176 863 -1188Q872 -1145 887 -1117Q895 -1113 911 -1104Q954 -980 1014 -785Q987 -758 976 -758H833Q832 -753 835 -697Q837 -658 816 -637Q859 -627 873 -610Q903 -574 952 -535Q992 -505 1031 -474L1018 -461Q1032 -450 1056 -426Q1052 -421 1052 -415Q1052 -405 1066 -387Q1084 -363 1088 -356Q1088 -354 1085.5 -348.5Q1083 -343 1083 -341Q1065 -341 1066 -342Q1081 -317 1115 -272ZM738 -1325V-1337H731V-1325ZM732 -1425Q732 -1466 688.5 -1500.5Q645 -1535 605 -1535Q564 -1535 525 -1494.5Q486 -1454 486 -1414Q486 -1368 523 -1331Q560 -1294 609 -1294Q652 -1294 692 -1335Q732 -1376 732 -1425ZM987 -801L894 -1056Q867 -1053 861 -1085Q851 -1136 849 -1140Q844 -1133 835 -1122H819Q805 -1153 778 -1214Q778 -1201 763 -1201Q742 -1201 733 -1248Q729 -1275 726 -1302Q728 -1266 715 -1217Q753 -1184 846 -1038Q948 -878 948 -826Q948 -817 945 -814H816Q819 -803 826 -784H973Q981 -792 987 -801ZM732 -926L730 -973V-949L729 -944Q732 -987 723 -1008Q721 -1008 712.5 -1005Q704 -1002 702 -1002Q726 -986 726 -961Q726 -943 715 -926Q732 -926 732 -926ZM921 -842Q788 -1116 658 -1239Q662 -1247 670 -1259Q680 -1259 696 -1250V-1302Q665 -1267 614 -1267Q600 -1267 518 -1302Q518 -1270 513 -1255Q514 -1255 518 -1256.5Q522 -1258 528 -1258Q546 -1258 544 -1244Q359 -1045 293 -842H352Q358 -842 374.5 -844.5Q391 -847 397 -847Q405 -868 412 -889Q422 -914 455 -916V-940Q453 -961 452 -997Q454 -1018 488 -1073Q527 -1140 559 -1140Q575 -1140 581 -1127Q584 -1116 588 -1105H617Q621 -1116 626 -1128Q631 -1140 645 -1140Q693 -1140 729 -1059Q759 -992 759 -937Q759 -922 755 -917Q780 -918 792 -889Q800 -866 808 -842ZM710 -1031V-1046Q682 -1109 664 -1109H645Q637 -1078 594 -1078Q570 -1078 567.5 -1080Q565 -1082 555 -1113Q527 -1104 495 -1031Q571 -1012 609 -1012Q653 -1012 710 -1031ZM702 -957L696 -977L675 -958L685 -947Q692 -947 702 -957ZM662 -994Q646 -987 548 -989Q568 -966 553 -939Q584 -947 605 -947Q617 -947 653 -941Q641 -958 662 -994ZM724 -895Q677 -925 640 -925Q537 -925 495 -895ZM530 -957Q530 -959 527.5 -964.5Q525 -970 525 -972H509L504 -957Q506 -955 511.5 -952Q517 -949 519 -947ZM504 -1002L483 -1008Q481 -1001 478.5 -984Q476 -967 474 -960Q478 -967 489 -981Q500 -995 504 -1002ZM495 -1291Q495 -1307 461 -1364Q478 -1305 478 -1274Q478 -1208 437 -1201Q423 -1215 423 -1219Q411 -1195 378 -1118L360 -1122Q352 -1096 344 -1069Q332 -1038 307 -1043L232 -813V-789Q385 -789 385 -789Q385 -809 390 -813Q289 -813 262 -826Q287 -934 360 -1053Q391 -1103 485 -1221Q483 -1234 489 -1261.5Q495 -1289 495 -1291ZM1040 -377Q1036 -391 1004 -431Q977 -465 979 -484Q955 -502 909 -537Q910 -535 970 -451Q1009 -396 1014 -367H1035Q1035 -371 1040 -377ZM496 -923L485 -934L481 -930L491 -919ZM812 -711Q812 -781 766 -876L596 -863Q527 -863 439 -880Q390 -741 390 -696Q390 -655 481 -631Q550 -613 612 -613Q785 -613 810 -680Q812 -685 812 -711ZM666 -589Q626 -586 602 -586Q578 -586 548 -589Q571 -572 607 -538Q625 -561 666 -589ZM891 -481Q891 -531 871 -568Q846 -613 801 -613Q762 -613 701 -579Q640 -545 623 -519V-77H659Q685 -77 748 -115Q807 -150 823 -170Q858 -213 863 -250Q891 -448 891 -481ZM1066 -119L892 -278Q892 -272 889 -256Q886 -240 886 -235Q947 -184 1027 -105Q911 60 807 114Q823 136 853 170Q916 95 917 95Q933 95 941 104Q960 79 994 32Q1004 4 1023 -42Q1041 -70 1066 -119ZM596 -77V-510Q597 -534 520 -575Q474 -600 454 -606Q419 -617 396 -617Q315 -617 315 -397Q315 -322 342 -242Q376 -142 435 -113Q465 -98 519 -88Q578 -77 573 -77ZM305 -542Q256 -509 223 -483Q236 -477 236 -466Q232 -462 223.5 -453Q215 -444 211 -440Q213 -434 213 -423Q201 -408 176 -379Q173 -366 183 -366Q197 -358 196 -358Q205 -414 254 -477Q280 -510 304 -522Q305 -524 305 -542ZM666 -54Q630 -46 618 -46Q609 -46 553 -54Q573 7 609 7Q641 7 666 -54ZM992 -105L875 -213Q852 -153 716 -66Q698 -54 662 -5Q633 33 607 33Q557 33 519 -61Q487 -71 432 -91Q397 -106 363.5 -140.5Q330 -175 327 -204Q253 -146 214 -105Q248 -40 322 22Q396 84 452 98V122Q444 121 434.5 124Q425 127 425 127Q443 142 472 169Q481 129 527 95Q570 64 607 64Q646 64 689 93Q738 126 738 169Q775 142 785 132Q777 130 763 111Q939 9 992 -105ZM688 198Q688 165 664.5 143Q641 121 612 121Q585 121 555 144Q522 171 522 205Q522 236 548 262Q574 288 609 288Q642 288 665 262Q688 236 688 198ZM398 106Q338 81 272 15.5Q206 -50 183 -111L319 -236Q309 -256 309 -270L152 -114L212 33Q214 29 237 20Q257 60 278 95Q278 86 291 86Q304 86 357 152Q369 130 398 106ZM697 340V328H522V340Z"/>
</svg>