<svg xmlns="http://www.w3.org/2000/svg" viewBox="0 0 618 1000">
  <g transform="scale(1,-1) translate(0,-1000)">
    <path d="M124 390Q94 375 77.5 337.5Q61 300 51.0 271.5Q41 243 23 243Q11 243 5.5 251.0Q0 259 0 267Q0 274 2 277Q8 291 17.0 316.0Q26 341 36.0 360.5Q46 380 62 400Q74 414 86.5 422.0Q99 430 116.5 437.5Q134 445 142 450Q142 468 132.5 504.5Q123 541 122 551Q99 538 88 538Q37 546 37 594Q37 693 133 909Q137 919 152 919Q160 919 168.0 913.0Q176 907 176 895Q176 891 171 881Q130 792 107.5 711.0Q85 630 85 594Q85 588 89 585Q127 617 143 617Q174 638 191 644Q192 644 192 646Q201 659 205.5 695.0Q210 731 227 752Q247 775 272 784H248Q237 784 235 796L228 864V865Q228 870 232.0 874.5Q236 879 242 879H305Q283 889 270.0 896.0Q257 903 241.5 921.0Q226 939 226 960V963Q226 981 238.5 989.5Q251 998 265 998H266Q281 998 288.5 987.0Q296 976 296 962V961Q296 948 287.5 941.0Q279 934 269 934H263Q281 918 330 897Q348 889 358 884Q420 994 422 996Q426 1000 432.0 1000.0Q438 1000 445.5 994.5Q453 989 453 982Q453 979 409.5 880.0Q366 781 364 776Q389 761 401.0 736.0Q413 711 418.0 682.0Q423 653 427 645Q427 645 434.5 641.0Q442 637 454.0 630.5Q466 624 475 618Q482 618 495.0 610.0Q508 602 518.0 594.0Q528 586 529 586Q533 588 533 595Q533 616 508.5 687.0Q484 758 460.0 818.0Q436 878 434 881Q431 886 431 895Q431 906 438.0 912.5Q445 919 454 919Q465 919 473 908Q476 904 501.0 842.5Q526 781 553.0 703.0Q580 625 580 595Q580 547 530 539Q522 539 495 552Q495 552 491.5 535.5Q488 519 483.0 494.0Q478 469 475 450Q483 446 501.0 438.5Q519 431 531.5 423.0Q544 415 556 401Q572 381 581.5 361.5Q591 342 600.0 317.0Q609 292 615 278Q618 273 618 267Q618 264 617.5 260.5Q617 257 611.0 250.5Q605 244 594 244Q577 244 565.0 275.0Q553 306 536.5 342.5Q520 379 494 390Q505 357 505 283Q505 252 498 231Q503 223 519.0 206.0Q535 189 544.0 172.0Q553 155 553 134V133Q553 104 544.0 87.0Q535 70 519.5 52.0Q504 34 496 15Q490 0 474 0Q467 0 459.5 6.0Q452 12 452 24Q452 37 465.5 52.0Q479 67 493.0 87.5Q507 108 507 134Q507 141 504.0 148.0Q501 155 498.0 158.5Q495 162 487.5 170.5Q480 179 476 183Q469 173 458.0 164.0Q447 155 440.5 151.0Q434 147 417.5 138.0Q401 129 398 128Q342 95 307 95Q275 95 220 127Q216 129 200.0 137.5Q184 146 177.0 150.0Q170 154 159.0 163.0Q148 172 141 182Q138 179 133.0 173.5Q128 168 126.0 165.5Q124 163 120.5 158.5Q117 154 115.0 150.5Q113 147 112.0 142.5Q111 138 111 133Q111 107 124.5 85.5Q138 64 152.0 49.0Q166 34 166 23Q166 20 165.0 16.5Q164 13 158.0 6.5Q152 0 142 0Q126 0 120.0 14.0Q114 28 89.5 61.0Q65 94 64 132V133Q64 154 73.0 171.0Q82 188 98.0 205.0Q114 222 119 230Q114 250 114 294Q114 357 124 390ZM363 851H257L261 812Q333 812 346 804L366 852Q366 852 365.0 851.5Q364 851 363 851ZM257 728Q246 714 242.5 685.5Q239 657 235 645H242Q262 645 300.5 645.5Q339 646 358 646H383Q379 657 375.0 686.0Q371 715 360 729Q342 753 309.0 753.0Q276 753 257 728ZM453 586Q448 591 432.0 597.5Q416 604 410 608H207Q200 603 183.5 596.0Q167 589 165 585Q160 576 160 560Q160 549 163.0 536.5Q166 524 170.5 508.0Q175 492 177 482Q251 451 267 441Q289 427 308 410Q340 437 357.0 446.0Q374 455 441 483Q442 488 450.0 517.0Q458 546 458 561Q458 565 457.5 569.5Q457 574 456.5 576.5Q456 579 455.0 581.0Q454 583 454 584ZM281 383Q249 412 180 440Q180 439 179 439Q179 427 167.5 401.5Q156 376 155 357Q152 288 152 284Q152 232 164 217Q172 201 203.0 180.5Q234 160 260.5 147.5Q287 135 289 135V358ZM462 358Q460 377 450.5 396.0Q441 415 438 440V441Q395 424 377.5 414.5Q360 405 336 383L327 356V136Q329 136 355.5 148.5Q382 161 413.5 181.5Q445 202 453 218Q468 258 468 291Q468 306 462 358Z" fill="currentColor"/>
  </g>
</svg>