<svg xmlns="http://www.w3.org/2000/svg" viewBox="0 -2048 2048 2048">
	<path fill="currentColor" d="M1985 -754Q1985 -738 1982 -724Q1968 -724 1965 -703Q1964 -694 1970 -680Q1977 -662 1978 -655Q1980 -639 1961 -573Q1955 -568 1938 -556Q1941 -545 1941 -534Q1941 -503 1910 -474Q1889 -456 1868 -437Q1860 -415 1837 -384Q1812 -377 1763 -359Q1736 -343 1709 -328Q1691 -318 1654 -318Q1647 -318 1629.5 -323Q1612 -328 1605 -328Q1589 -328 1495 -261Q1521 -229 1558 -154Q1559 -111 1561 -25Q1569 -15 1580 -15Q1580 5 1563 22Q1546 14 1517 4V-131Q1517 -141 1481.5 -183.5Q1446 -226 1436 -226Q1429 -226 1354 -211Q1350 -215 1350 -202Q1350 -178 1376 -107Q1408 -21 1438 -21Q1446 -21 1452.5 -23.5Q1459 -26 1461 -26Q1475 -1 1467 19Q1381 14 1341 -50Q1324 -92 1286 -176Q1255 -177 1191 -188Q1188 -185 1188 -175Q1188 -116 1200 -73Q1204 -59 1234 -34Q1264 -9 1274 -15Q1269 -10 1268 10Q1267 10 1256 13Q1245 16 1239 16Q1233 16 1200 -9Q1160 -39 1152 -44Q1146 -85 1130 -173L1125 -178V196Q1139 203 1164 228Q1172 241 1172 267Q1172 288 1149 334H1130Q1127 331 1119 322Q1118 313 1124 291.5Q1130 270 1130 261Q1130 237 1096 237Q1071 237 1065 262Q1073 279 1080 309V334Q1078 334 1073.5 337Q1069 340 1061 340Q1042 340 1027 311Q1015 289 1015 280Q1015 257 1027 229Q1042 194 1066 194Q1071 194 1076 195V-184Q1032 -197 956 -206Q957 -203 972 -189Q983 -178 983 -170Q983 -166 978 -120Q972 -71 970 -44Q889 5 782 7Q773 12 759 22Q737 -6 731 -6V-26Q823 -20 906 -79Q913 -113 913 -137Q913 -161 912 -162Q865 -217 829 -230Q779 -248 727 -248H696Q692 -244 692 -237Q692 -226 722 -201Q723 -196 729 -174.5Q735 -153 735 -145Q735 -136 716.5 -110Q698 -84 685 -77Q622 -43 520 -43Q477 -43 389 -65Q360 -21 302 -21Q201 -21 172 -28Q163 -30 100 -93L106 -140Q170 -108 211 -108Q223 -108 224 -109Q199 -109 186 -140Q175 -165 164 -191L177 -205Q198 -198 387 -148Q391 -141 400 -124H414Q486 -137 629 -161Q633 -157 633 -170Q633 -176 608.5 -217Q584 -258 584 -264Q584 -270 611 -299Q589 -327 542 -376Q520 -385 482 -410Q482 -415 485 -431Q488 -447 488 -452Q493 -452 507.5 -449Q522 -446 531 -446V-464Q515 -467 482 -476Q515 -509 628 -574Q617 -590 595 -622Q606 -642 631 -661Q632 -676 639 -707Q530 -752 437 -781Q417 -738 351 -730Q294 -725 237 -720Q223 -710 197 -696Q191 -701 186 -701Q200 -759 250 -794Q228 -803 202 -803Q177 -803 123 -776L110 -789Q122 -805 156 -859Q210 -878 285 -878Q328 -878 361 -868Q408 -853 423 -850Q440 -851 474 -849Q562 -837 642 -815Q669 -810 718 -789Q757 -760 757 -730Q757 -661 714 -638Q729 -614 743 -614Q810 -614 850 -631Q879 -652 940 -688V-767Q856 -806 807 -833Q807 -833 791 -832Q785 -835 779 -838V-861Q790 -866 802 -889Q827 -857 854 -857Q857 -857 876 -862L988 -801V-654Q988 -646 982 -643Q972 -639 972 -639Q977 -636 1010 -636Q1039 -636 1041 -637Q1048 -639 1075 -661V-916Q1075 -916 1000 -916Q994 -925 995 -930Q1004 -947 1004 -960Q1004 -991 935 -991Q910 -991 906.5 -989Q903 -987 887 -974Q875 -964 867 -964Q843 -964 802.5 -1002Q762 -1040 762 -1069Q762 -1105 929 -1237Q908 -1253 872 -1289Q843 -1328 843 -1376Q843 -1451 888 -1541Q916 -1532 904 -1516Q904 -1503 900.5 -1473.5Q897 -1444 897 -1438Q897 -1395 903 -1383Q913 -1363 944 -1328Q979 -1288 991 -1288H1094Q1118 -1288 1161 -1341Q1197 -1387 1202 -1404Q1204 -1411 1204 -1436Q1204 -1471 1183 -1534Q1183 -1541 1196 -1541Q1246 -1541 1269 -1398Q1269 -1356 1247 -1327Q1232 -1306 1177 -1259Q1215 -1261 1279 -1243Q1279 -1231 1285 -1225Q1261 -1206 1209 -1171Q1225 -1074 1225 -1070V-918H1126V-660Q1128 -657 1137 -657Q1148 -657 1154 -666Q1175 -774 1277 -851Q1289 -836 1306 -804Q1264 -788 1238 -729Q1218 -679 1198 -629Q1213 -629 1245 -627Q1277 -625 1282 -625Q1304 -625 1310 -629Q1321 -669 1357 -740Q1408 -802 1483 -819Q1485 -816 1483 -771Q1447 -772 1413 -704Q1389 -650 1365 -596Q1394 -593 1425 -582Q1456 -571 1460 -571Q1470 -571 1496.5 -603.5Q1523 -636 1531 -661Q1539 -704 1547 -746Q1559 -813 1570 -813Q1575 -813 1602 -801Q1602 -796 1593 -783Q1584 -770 1582 -762Q1585 -719 1579 -638Q1571 -601 1517 -536Q1588 -479 1608 -479Q1614 -479 1632 -487.5Q1650 -496 1657 -496Q1662 -496 1679.5 -490.5Q1697 -485 1705 -485Q1712 -485 1724 -496.5Q1736 -508 1739 -509Q1765 -520 1793 -559Q1820 -595 1835 -601Q1828 -609 1828 -622Q1828 -664 1862 -699Q1862 -701 1855 -709.5Q1848 -718 1847 -724Q1841 -769 1854 -815Q1819 -845 1818.5 -869Q1818 -893 1817 -917Q1795 -928 1755 -955Q1741 -982 1701 -1027Q1671 -1033 1610 -1052Q1602 -1056 1580.5 -1080Q1559 -1104 1552 -1104Q1545 -1104 1522 -1101.5Q1499 -1099 1492 -1099Q1348 -1099 1351 -1206Q1354 -1205 1373.5 -1187Q1393 -1169 1401 -1169Q1408 -1169 1415.5 -1175.5Q1423 -1182 1427 -1183Q1480 -1196 1506 -1196Q1536 -1196 1580 -1176Q1620 -1168 1698 -1151Q1715 -1147 1768 -1079Q1823 -1081 1880 -1012Q1888 -989 1906 -947Q1922 -936 1940 -914Q1940 -887 1949 -839Q1954 -826 1974 -803Q1985 -790 1985 -754ZM1872 -960Q1869 -994 1826 -1026Q1786 -1055 1761 -1055H1744Q1744 -1053 1740.5 -1047.5Q1737 -1042 1737 -1034Q1737 -997 1766 -977Q1815 -943 1829 -943Q1842 -943 1872 -960ZM1926 -843Q1925 -863 1918 -898Q1903 -937 1878 -937Q1845 -937 1845 -889Q1845 -835 1896 -835Q1919 -835 1926 -843ZM1732 -1085Q1732 -1113 1655 -1140Q1631 -1144 1588 -1153Q1576 -1129 1576 -1121Q1576 -1095 1640 -1072Q1677 -1061 1714 -1051Q1732 -1092 1732 -1085ZM1964 -757Q1964 -819 1910 -819Q1867 -819 1867 -760Q1867 -706 1926 -706Q1964 -706 1964 -757ZM1560 -1157Q1535 -1174 1508 -1174Q1493 -1174 1456.5 -1163Q1420 -1152 1414 -1144Q1472 -1121 1500 -1121Q1551 -1121 1560 -1157ZM1953 -652Q1953 -689 1907 -689Q1886 -689 1868.5 -666.5Q1851 -644 1851 -619Q1851 -611 1853.5 -608.5Q1856 -606 1856 -604Q1880 -602 1923 -576Q1935 -588 1941 -588Q1941 -601 1947 -624Q1953 -647 1953 -652ZM1915 -539Q1915 -554 1896 -568Q1877 -582 1859 -582Q1841 -582 1819 -555Q1801 -533 1797 -519Q1822 -498 1864 -463Q1915 -501 1915 -539ZM962 -1274Q933 -1302 903 -1330Q868 -1368 872 -1390Q872 -1388 868.5 -1382Q865 -1376 865 -1368Q865 -1345 888 -1312Q913 -1276 948 -1261ZM1840 -439Q1840 -449 1814 -475Q1788 -501 1778 -501Q1768 -501 1750 -487.5Q1732 -474 1732 -466Q1732 -463 1746 -433Q1760 -403 1760 -383H1778Q1799 -386 1819.5 -406Q1840 -426 1840 -439ZM1242 -1398Q1242 -1404 1238 -1420Q1234 -1436 1234 -1444Q1236 -1434 1236 -1424Q1236 -1375 1178 -1319Q1133 -1279 1088 -1239Q1074 -1253 1074 -1259Q1050 -1271 1032 -1271Q1005 -1271 984 -1258Q955 -1229 903 -1180Q873 -1156 843 -1133Q789 -1087 789 -1072Q789 -1072 808 -1045Q830 -1067 835 -1067Q856 -1067 870 -1048Q867 -1045 865.5 -1041Q864 -1037 861 -1034Q827 -1034 833 -1035Q848 -1013 886 -1013Q893 -1013 952 -1010Q1011 -1007 1018 -1007Q1034 -1007 1067 -1056Q1087 -1046 1086 -1038Q1080 -1032 1079 -1028Q1063 -1003 1021 -978Q1029 -963 1027 -938H1198V-1108Q1198 -1117 1181 -1169Q1152 -1167 1134 -1173V-1186Q1148 -1193 1194 -1199Q1223 -1202 1241 -1232Q1239 -1232 1232.5 -1235.5Q1226 -1239 1218 -1239Q1227 -1239 1132 -1201Q1123 -1210 1123 -1219L1129 -1223Q1118 -1239 1118 -1251Q1242 -1324 1242 -1398ZM1732 -390Q1732 -420 1712 -446Q1689 -474 1659 -474Q1647 -474 1626 -462Q1628 -434 1628 -381Q1619 -366 1619 -363V-345Q1624 -345 1639.5 -342Q1655 -339 1662 -339Q1732 -339 1732 -390ZM1403 -750H1395L1356 -651L1364 -648ZM1547 -635Q1486 -544 1468 -544Q1484 -544 1377 -567Q1419 -528 1460 -528Q1487 -528 1517 -574Q1541 -610 1547 -635ZM1608 -396Q1608 -460 1528 -495Q1560 -409 1534 -318Q1608 -347 1608 -396ZM1222 -759H1214L1175 -660L1183 -657ZM1316 -590V-600L1237 -605V-596ZM1517 -401Q1517 -455 1494 -498Q1459 -501 1420 -511Q1447 -448 1447 -401Q1447 -353 1426 -286Q1423 -285 1473 -285Q1517 -285 1517 -401ZM1420 -399Q1420 -464 1390 -526Q1384 -538 1366 -554.5Q1348 -571 1339 -571Q1332 -571 1312.5 -568Q1293 -565 1286 -565Q1306 -465 1306 -399Q1306 -305 1280 -249Q1309 -251 1332 -243Q1334 -257 1362 -269Q1395 -282 1396 -283Q1420 -348 1420 -399ZM897 -825L860 -837V-829L894 -817ZM1489 -213Q1478 -231 1466 -249Q1454 -264 1430 -264Q1405 -264 1355 -239Q1453 -253 1441 -253Q1455 -253 1489 -213ZM1280 -388Q1280 -412 1273 -474Q1265 -553 1255 -565Q1230 -580 1190 -614Q1185 -604 1156 -591Q1177 -486 1177 -434Q1177 -283 1140 -228Q1145 -228 1156.5 -224.5Q1168 -221 1174 -221Q1280 -221 1280 -388ZM1166 -628Q1154 -628 1132 -632Q1110 -636 1104 -636Q1097 -636 1065 -622.5Q1033 -609 1026 -609Q1020 -609 1011 -611Q1002 -613 1000 -613Q1037 -503 1037 -439Q1037 -339 989 -228Q1024 -223 1088 -212Q1064 -222 1064 -228Q1067 -231 1068.5 -238Q1070 -245 1073 -248Q1095 -237 1117 -237Q1156 -341 1156 -444Q1156 -488 1127 -592Q1094 -589 1074 -597V-625Q1119 -600 1166 -628ZM1359 -78Q1341 -149 1320 -218Q1307 -226 1298 -226Q1295 -226 1228 -207Q1286 -207 1307 -203Q1324 -157 1359 -78ZM724 -681V-710Q701 -707 661 -699V-663Q666 -663 675.5 -660Q685 -657 692 -657Q713 -657 724 -681ZM725 -735Q720 -740 719 -748Q694 -773 664 -784Q546 -828 500 -823H428Q591 -727 684 -727Q711 -727 725 -735ZM1209 -32Q1185 -41 1174 -97Q1160 -175 1158 -179Q1154 -91 1168 -53Q1174 -36 1209 -32ZM703 -610Q683 -641 665 -641Q646 -641 628 -623Q645 -591 645 -593Q653 -596 674 -601.5Q695 -607 703 -610ZM1010 -434Q1010 -534 971 -614H947Q940 -609 927 -598Q918 -607 913 -607Q924 -629 956 -661Q931 -652 894 -633Q891 -631 881 -614.5Q871 -598 865 -598Q859 -598 843.5 -600.5Q828 -603 822 -603Q750 -603 668 -567Q558 -520 558 -442Q558 -383 616 -327.5Q674 -272 743 -265Q784 -262 845 -251Q865 -243 918 -200L875 -245Q885 -255 885 -259Q912 -248 960 -232Q1010 -325 1010 -434ZM412 -803Q412 -857 291 -857Q244 -857 188 -844Q178 -842 159 -820Q181 -824 221 -824Q302 -824 305 -796Q257 -767 234 -744H274Q306 -740 355 -757Q412 -775 412 -803ZM956 -159Q956 -177 924 -193Q941 -179 941 -144Q941 -129 937 -97.5Q933 -66 934 -54Q956 -107 956 -159ZM924 -48L921 -56L851 -27V-19ZM670 -232V-263Q656 -271 631 -285Q617 -285 617 -264Q617 -266 634 -232ZM707 -156Q709 -167 690 -188Q673 -206 662 -210L649 -199Q649 -179 672 -156ZM691 -134Q679 -134 655 -137Q631 -140 625 -140Q579 -140 401 -92Q454 -70 509 -70Q561 -70 616 -83Q692 -101 691 -134ZM374 -102Q374 -113 366 -126Q349 -141 300 -152Q257 -162 231 -161H208Q208 -152 283 -104Q283 -101 280.5 -94.5Q278 -88 278 -85Q267 -85 247.5 -83Q228 -81 223 -81Q208 -81 138 -95Q152 -76 177 -55Q205 -48 283 -48Q374 -48 374 -102ZM1037 -1155Q1005 -1137 994 -1137Q988 -1137 977.5 -1140Q967 -1143 962 -1143V-1162Q988 -1191 997 -1191Q1027 -1191 1037 -1155Z"/>
</svg>