<svg xmlns="http://www.w3.org/2000/svg" viewBox="25.4 -1578.6 1662.3 2015.3">
	<path fill="currentColor" d="M1613 -1151Q1613 -1142 1595 -1090Q1605 -1073 1605 -1051Q1605 -1005 1576 -981Q1580 -966 1573 -938Q1554 -913 1503 -853Q1488 -836 1424 -818Q1419 -811 1408 -800Q1382 -788 1356 -788Q1350 -788 1331 -793Q1312 -798 1305 -798Q1301 -798 1217 -742Q1237 -714 1268 -658Q1271 -650 1269 -600Q1268 -561 1286 -557Q1286 -532 1269 -515Q1270 -515 1240 -532Q1241 -572 1231 -645Q1223 -666 1197 -691Q1172 -713 1161 -713Q1157 -713 1139 -710.5Q1121 -708 1109 -708Q1109 -706 1107 -704Q1105 -702 1105 -694Q1105 -659 1133 -594Q1144 -569 1171 -559Q1194 -551 1195 -539V-521H1172Q1121 -521 1047 -681Q1030 -681 1018 -643Q1008 -610 998 -577Q1016 -559 1040 -551Q1025 -520 1011 -520Q1003 -520 993 -530Q983 -540 980 -542Q900 -383 890 -135Q953 -173 968 -173Q1004 -173 1032 -133Q1057 -99 1057 -69Q1057 -32 1020 36Q968 130 962 146Q946 211 930 275Q901 362 835 362Q756 362 732 307Q718 247 691 135Q691 135 641.5 57Q592 -21 592 -36Q592 -99 630 -138.5Q668 -178 723 -178Q737 -178 786 -141Q789 -144 789 -154Q789 -189 756 -345Q717 -531 685 -531Q648 -531 626 -520Q621 -524 603 -562Q604 -562 613 -560Q622 -558 629 -558Q651 -558 672 -571Q643 -698 586 -730H580Q613 -664 613 -667Q613 -619 543 -591Q487 -568 429 -568Q423 -568 382 -576Q341 -584 335 -584Q328 -584 315 -570.5Q302 -557 297 -554.5Q292 -552 260 -552Q176 -552 155 -559Q153 -560 100 -613V-642Q101 -649 113 -649Q120 -649 140 -638Q160 -627 167 -627H186Q175 -650 153 -695Q155 -702 167 -702Q204 -702 301 -668Q308 -666 326.5 -652Q345 -638 351 -638Q356 -638 419 -649Q488 -661 518 -664Q522 -668 522 -675Q522 -692 485 -753L506 -775Q483 -828 412 -859Q411 -867 404 -886Q411 -894 411 -899Q434 -899 439 -894Q442 -896 442 -901Q429 -904 405 -912V-930Q416 -958 470 -960Q479 -974 517 -1000Q518 -1007 495 -1042Q507 -1051 528 -1069V-1104Q485 -1118 376 -1162Q348 -1132 333 -1126Q303 -1114 268 -1114Q262 -1114 248 -1116.5Q234 -1119 228 -1119Q231 -1119 177 -1092L164 -1106Q177 -1129 207 -1169Q202 -1172 180 -1172Q146 -1172 124 -1151L105 -1169Q136 -1247 239 -1247Q245 -1247 289 -1236Q339 -1225 359 -1222Q428 -1214 497 -1205Q624 -1177 624 -1108Q624 -1074 602 -1051V-1037Q606 -1033 613 -1033Q617 -1033 654 -1039Q691 -1045 706 -1045Q719 -1054 722 -1063Q766 -1087 771 -1094Q773 -1097 773 -1124Q773 -1149 769 -1152Q735 -1168 663 -1203Q658 -1205 640 -1205V-1231Q655 -1231 663 -1247Q715 -1225 814 -1176Q813 -1165 815 -1129Q817 -1097 815 -1081Q812 -1057 800 -1047Q805 -1044 827 -1044Q834 -1044 867 -1055Q900 -1066 907 -1066Q925 -1066 936 -1060Q953 -1100 970 -1140Q992 -1189 1044 -1221Q1054 -1212 1067 -1174Q1030 -1174 1009 -1125Q995 -1084 981 -1043Q992 -1043 1018 -1041Q1044 -1039 1049 -1039Q1065 -1039 1071 -1043Q1082 -1077 1093 -1111Q1112 -1153 1160 -1181Q1177 -1184 1211 -1193Q1211 -1193 1211 -1152Q1178 -1152 1152 -1106Q1133 -1063 1115 -1021Q1178 -996 1190 -996Q1199 -996 1221 -1025.5Q1243 -1055 1247 -1074Q1254 -1115 1272 -1194Q1285 -1187 1308 -1176Q1293 -1159 1283.5 -1080Q1274 -1001 1238 -962Q1308 -927 1311 -927Q1318 -927 1328.5 -931Q1339 -935 1342 -935Q1351 -936 1367 -934Q1383 -932 1388 -932Q1407 -932 1483 -1016Q1481 -1024 1480 -1042Q1484 -1062 1504 -1085Q1506 -1089 1504 -1094Q1488 -1116 1488 -1125Q1488 -1131 1497 -1131.5Q1506 -1132 1506 -1135Q1506 -1138 1498.5 -1136Q1491 -1134 1491 -1140Q1491 -1148 1505 -1176L1504 -1181V-1185Q1480 -1201 1477 -1222.5Q1474 -1244 1472 -1265Q1450 -1278 1412 -1308Q1406 -1323 1389 -1353Q1327 -1366 1293 -1383Q1289 -1385 1276.5 -1399Q1264 -1413 1257 -1413Q1250 -1413 1241 -1410.5Q1232 -1408 1225 -1408Q1103 -1408 1089 -1497Q1101 -1499 1101 -1504Q1128 -1477 1142 -1477Q1149 -1477 1182 -1488Q1215 -1499 1222 -1499Q1270 -1499 1381 -1454Q1404 -1434 1451 -1398Q1467 -1392 1499 -1373Q1515 -1349 1549 -1300Q1561 -1290 1578 -1267Q1576 -1246 1582 -1203Q1585 -1195 1601 -1175Q1613 -1158 1613 -1151ZM1516 -1312Q1518 -1318 1491.5 -1347Q1465 -1376 1449 -1376H1422Q1421 -1375 1421 -1375Q1415 -1370 1415 -1362Q1415 -1343 1439 -1319Q1463 -1295 1482 -1295Q1477 -1295 1516 -1312ZM1558 -1210V-1251Q1559 -1261 1545.5 -1273Q1532 -1285 1522 -1285Q1495 -1285 1495 -1250Q1496 -1205 1522 -1205Q1526 -1205 1542 -1210Q1554 -1213 1558 -1210ZM1404 -1406Q1398 -1415 1387 -1427Q1337 -1457 1315 -1456H1293L1287 -1425Q1298 -1415 1320 -1399Q1357 -1381 1383 -1381Q1392 -1381 1404 -1406ZM1591 -1146Q1591 -1162 1551 -1189Q1511 -1149 1511 -1130Q1511 -1122 1514 -1116.5Q1517 -1111 1517 -1109Q1546 -1114 1573 -1103Q1591 -1139 1591 -1146ZM1265 -1454Q1229 -1472 1230 -1472Q1225 -1472 1194 -1463Q1163 -1454 1148 -1454Q1188 -1434 1220 -1434Q1260 -1434 1265 -1454ZM1580 -1064Q1555 -1087 1548 -1087Q1539 -1087 1522.5 -1069.5Q1506 -1052 1506 -1039Q1506 -1029 1512 -1023Q1529 -1017 1562 -1001Q1576 -1013 1579 -1035Q1579 -1050 1580 -1064ZM1554 -959Q1554 -996 1511 -996Q1493 -996 1492 -995Q1485 -991 1463 -955Q1497 -938 1519 -916Q1554 -939 1554 -959ZM1489 -879V-904Q1485 -907 1464 -924Q1450 -937 1442 -937Q1425 -937 1410 -908Q1433 -877 1432 -847Q1455 -858 1489 -879ZM1404 -857Q1400 -910 1369 -910H1330Q1330 -879 1319 -821Q1324 -821 1339.5 -817.5Q1355 -814 1361 -814Q1404 -814 1404 -857ZM1133 -1118H1125L1108 -1079L1116 -1076ZM1230 -994L1222 -996L1215 -983L1223 -980ZM1219 -978L1211 -980L1204 -967L1212 -963ZM1112 -1061V-1075H1103V-1061ZM1303 -862Q1303 -897 1250 -926Q1273 -873 1255 -804Q1303 -816 1303 -862ZM1238 -860Q1238 -935 1165 -947V-772Q1173 -775 1185 -770.5Q1197 -766 1201 -766Q1219 -766 1230 -806Q1238 -835 1238 -860ZM1153 -868Q1153 -933 1092 -990H1046Q1069 -958 1069 -885Q1069 -806 1046 -741Q1048 -741 1059.5 -737.5Q1071 -734 1078 -734Q1079 -734 1098.5 -749.5Q1118 -765 1134 -768Q1153 -825 1153 -868ZM942 -1036Q924 -1036 892 -1044L886 -1029Q909 -1029 926 -1032.5Q943 -1036 942 -1036ZM1184 -737V-747H1154V-737ZM1152 -732V-741H1122V-732ZM1041 -881Q1041 -973 1024 -988Q991 -1017 974 -1017Q962 -1017 950 -1005Q976 -919 958 -801Q957 -794 948 -768Q939 -742 939 -736V-719H958Q1005 -730 1022 -740Q1041 -781 1041 -881ZM939 -886Q939 -981 922 -1006Q889 -1006 874 -1011Q874 -1014 876.5 -1019.5Q879 -1025 879 -1028Q847 -1016 827 -1016Q854 -926 854 -857Q854 -788 816 -719Q848 -719 874 -708Q874 -730 878 -734Q909 -726 917 -736Q939 -846 939 -886ZM1087 -654Q1087 -682 1077 -712Q1061 -711 1035 -711Q1041 -714 1047 -714Q1062 -714 1087 -654ZM590 -1113Q555 -1110 549 -1072Q550 -1072 563 -1069Q576 -1066 585 -1066Q596 -1100 590 -1113ZM597 -1126Q593 -1145 526 -1172Q459 -1199 412 -1198H372Q480 -1119 570 -1119Q591 -1119 597 -1126ZM1003 -680H972Q984 -632 984 -617Q990 -640 1003 -680ZM581 -1031Q569 -1043 569 -1049H540L527 -1036Q530 -1033 533.5 -1027Q537 -1021 540 -1018Q558 -1022 581 -1031ZM827 -868Q827 -947 793 -1022L768 -1017Q761 -1017 747 -1031L773 -1059Q750 -1050 735 -1031Q720 -1012 715 -1012Q709 -1012 694.5 -1014.5Q680 -1017 674 -1017Q619 -1017 554 -989Q469 -953 469 -897Q469 -869 506 -819.5Q543 -770 572 -762Q632 -754 724 -724Q724 -735 739 -750Q771 -729 784 -729Q805 -729 818 -790Q827 -834 827 -868ZM769 -690L756 -703L751 -698L764 -685ZM351 -1183Q351 -1205 306 -1217Q273 -1226 244 -1226Q162 -1226 154 -1195Q189 -1195 223 -1195Q258 -1193 266 -1170Q258 -1161 228 -1148L301 -1140Q351 -1172 351 -1183ZM781 -607V-680H771V-607ZM775 -585V-600H766V-585ZM752 -663Q731 -682 697 -710Q676 -714 640 -723Q662 -673 705 -585Q741 -585 745 -613Q749 -638 752 -663ZM554 -730Q554 -746 524 -761Q517 -748 529 -724ZM585 -671Q585 -677 582.5 -688Q580 -699 580 -701H544Q544 -695 547 -684Q550 -673 550 -671ZM570 -643H504Q504 -643 346 -608Q411 -595 429 -595Q462 -595 511 -609Q566 -625 570 -643ZM1035 -77Q1035 -86 1016 -113Q993 -146 971 -146Q942 -146 909 -119Q895 -99 867 -71L859 -80V-101Q860 -205 898 -383Q917 -469 960 -556Q938 -574 933 -613Q926 -662 917 -678Q875 -684 795 -701Q812 -672 798 -572Q776 -558 720 -535Q828 -302 816 -80Q806 -71 799 -71Q760 -151 717 -151Q618 -151 618 -36Q618 -5 659 48Q706 110 713 130Q729 198 759 301Q775 340 837 340Q876 340 895 294Q897 290 914 226Q929 171 984 44Q1035 -74 1035 -77ZM319 -619Q319 -639 263 -651Q227 -657 191 -663Q215 -646 250 -609Q226 -600 204 -600Q177 -600 137 -610Q146 -600 160 -586Q229 -574 276 -574Q286 -574 302.5 -588.5Q319 -603 319 -619Z"/>
</svg>