<svg xmlns="http://www.w3.org/2000/svg" viewBox="0 -2048 2048 2048">
	<path fill="#000000" d="M2119 -1514Q2119 -1499 2087.5 -1461.5Q2056 -1424 2035 -1414Q2011 -1403 1980 -1400Q1949 -1350 1899 -1310Q1910 -1288 1910 -1275Q1910 -1276 1864 -1206Q1869 -1167 1869 -1167Q1863 -1153 1856 -1124Q1858 -1104 1858 -1068Q1851 -1049 1840 -1013Q1844 -999 1842 -969Q1834 -951 1766 -870Q1751 -865 1727 -855Q1700 -838 1644 -809Q1630 -806 1600 -800Q1558 -790 1514 -755Q1582 -670 1582 -646Q1582 -635 1577 -615.5Q1572 -596 1572 -588Q1572 -572 1585 -563Q1576 -542 1554 -532Q1547 -542 1537 -563Q1537 -592 1534 -655Q1515 -673 1497 -691Q1472 -714 1464 -714Q1458 -714 1439 -709Q1420 -704 1408 -704Q1408 -702 1406 -699.5Q1404 -697 1404 -689Q1404 -671 1426 -620Q1451 -560 1472 -560Q1478 -560 1483 -565Q1486 -562 1496 -522Q1467 -530 1411 -545Q1374 -623 1344 -670Q1336 -670 1328 -660Q1315 -608 1315 -579Q1315 -552 1337 -548Q1337 -535 1334.5 -524Q1332 -513 1332 -512Q1326 -505 1303 -516L1216 17Q1244 43 1272 68Q1304 101 1312.5 129Q1321 157 1321 175Q1321 199 1308 237Q1293 281 1277 286Q1280 289 1298 289V364H1046V313Q1045 293 1068 284Q1024 224 1024 172Q1024 91 1091 43Q1100 37 1124 28Q1141 23 1141 14Q1141 9 1139 5L1068 -506Q1058 -516 1057 -516Q1050 -516 1010 -502Q970 -488 963 -488Q943 -488 920 -500V-521Q927 -516 937 -516Q958 -516 998 -540Q1051 -571 1057 -574V-628Q964 -692 910 -692H884Q881 -689 881 -678Q881 -666 914 -618Q881 -557 820 -536Q819 -535 719 -517Q695 -519 648 -514Q635 -503 604 -484Q577 -483 532 -475Q501 -462 463 -457Q410 -450 396 -446Q404 -427 418 -385Q419 -385 401.5 -382Q384 -379 364 -379Q355 -411 347 -434Q342 -439 336 -439L167 -362Q155 -385 143 -432L320 -488Q323 -492 323 -498Q323 -507 315 -528Q305 -554 303 -563Q317 -577 351 -587Q357 -576 364 -554Q371 -532 377 -521Q390 -541 420 -568Q438 -573 473 -590Q470 -593 467.5 -598Q465 -603 462 -606Q480 -626 490 -626Q487 -626 614 -602Q628 -595 655 -582L816 -620Q821 -626 821 -634Q821 -645 802 -668.5Q783 -692 783 -704Q783 -717 798 -728Q792 -732 750 -783Q736 -780 714 -795Q689 -811 689 -834Q705 -836 738 -846Q721 -849 688 -858Q693 -883 728 -910Q758 -932 787 -953Q776 -966 776 -978Q776 -990 791 -1013.5Q806 -1037 804 -1052Q785 -1069 734 -1078Q688 -1086 642 -1094Q635 -1078 615 -1057Q523 -1022 475 -1022H453Q440 -1035 451 -1046Q447 -1048 401 -1058Q366 -1066 344 -1088Q335 -1074 323 -1033Q302 -1045 287 -1045Q281 -1068 292 -1122Q229 -1130 100 -1150Q100 -1174 103 -1196.5Q106 -1219 106 -1220Q136 -1212 199.5 -1195Q263 -1178 293 -1170Q306 -1193 315 -1247Q338 -1239 368 -1241Q366 -1227 358 -1184L361 -1179Q369 -1180 393 -1184Q414 -1187 421 -1187Q428 -1187 454 -1179Q480 -1171 487 -1171Q493 -1171 512.5 -1173.5Q532 -1176 539 -1176Q569 -1176 594 -1162.5Q619 -1149 622 -1149Q629 -1149 666 -1151.5Q703 -1154 710 -1154Q771 -1154 782 -1150Q806 -1142 889 -1087Q892 -1078 892 -1068Q892 -1056 885 -1036Q878 -1016 878 -1007Q878 -997 884 -989Q918 -995 976 -1012Q979 -1013 1041 -1058Q1041 -1067 1037.5 -1087Q1034 -1107 1033 -1117Q994 -1132 892 -1155Q890 -1173 910 -1204Q937 -1185 988 -1175Q1031 -1167 1073 -1159Q1076 -1137 1081 -1092.5Q1086 -1048 1089 -1026Q1103 -1019 1115 -1027Q1138 -1040 1147 -1042Q1148 -1042 1212 -1044Q1215 -1051 1233 -1120Q1243 -1158 1269 -1182H1279L1296 -1198Q1318 -1188 1321 -1167Q1314 -1160 1314 -1149Q1306 -1149 1301 -1154Q1272 -1136 1267 -1099Q1263 -1068 1260 -1037Q1263 -1036 1327 -1027Q1328 -1072 1363 -1123Q1402 -1178 1450 -1193Q1461 -1193 1469 -1174V-1156Q1460 -1146 1440 -1154Q1402 -1078 1381 -1015Q1441 -1000 1453 -1000Q1462 -1000 1482.5 -1026Q1503 -1052 1512 -1075Q1516 -1117 1531 -1198Q1563 -1198 1563 -1168Q1563 -1164 1553 -1151Q1558 -1120 1556 -1063Q1537 -1028 1502 -960Q1542 -940 1563 -940Q1569 -940 1594 -948Q1619 -956 1626 -956Q1632 -956 1644 -950.5Q1656 -945 1662 -945Q1680 -945 1705 -977Q1717 -996 1743 -1031Q1746 -1110 1750 -1141Q1759 -1210 1782 -1230Q1783 -1270 1807 -1312Q1819 -1323 1837 -1345Q1843 -1365 1862 -1406Q1875 -1425 1945 -1458Q1949 -1467 1961 -1482Q1986 -1498 2047 -1505Q2082 -1509 2093 -1555H2119ZM2069 -1484Q2042 -1480 2016 -1475Q1983 -1470 1971 -1456V-1436Q1985 -1424 1990 -1424Q2058 -1454 2069 -1484ZM1954 -1410Q1954 -1422 1947 -1429Q1922 -1427 1893 -1393Q1866 -1363 1866 -1347Q1866 -1338 1873 -1331Q1891 -1331 1922.5 -1364Q1954 -1397 1954 -1410ZM1882 -1278Q1882 -1310 1846 -1314Q1805 -1273 1806 -1255V-1238Q1820 -1238 1841 -1226Q1882 -1267 1882 -1278ZM1844 -1173Q1844 -1209 1814 -1209Q1778 -1209 1778 -1157Q1778 -1139 1785 -1132Q1836 -1132 1838 -1133Q1838 -1138 1841 -1152.5Q1844 -1167 1844 -1173ZM1838 -1080Q1838 -1110 1797 -1110Q1767 -1110 1767 -1085V-1051Q1803 -1039 1820 -1028Q1838 -1082 1838 -1080ZM1822 -981Q1822 -991 1804 -1006.5Q1786 -1022 1775 -1022Q1750 -1022 1734 -974Q1758 -967 1780 -934Q1822 -961 1822 -981ZM1767 -909Q1745 -951 1720 -951Q1713 -951 1701 -941Q1687 -927 1684 -926Q1707 -891 1713 -874Q1745 -885 1767 -909ZM1684 -871Q1684 -891 1660.5 -909.5Q1637 -928 1618 -928Q1612 -928 1602.5 -925Q1593 -922 1591 -922Q1609 -892 1609 -867Q1609 -844 1592 -830H1637Q1648 -829 1666 -845Q1684 -861 1684 -871ZM1482 -978L1477 -986L1460 -973L1465 -965ZM1458 -970V-980H1437V-970ZM1585 -862Q1585 -886 1560 -909Q1555 -913 1538 -923L1530 -915Q1544 -818 1537 -797Q1585 -845 1585 -862ZM1519 -846Q1519 -897 1483 -937Q1463 -941 1426 -950Q1459 -873 1459 -832Q1459 -825 1454 -800.5Q1449 -776 1449 -769Q1466 -774 1496 -776Q1519 -810 1519 -846ZM1431 -829Q1431 -898 1381 -972Q1378 -975 1366 -980.5Q1354 -986 1351 -989Q1348 -986 1341.5 -982.5Q1335 -979 1332 -976Q1356 -940 1356 -870Q1356 -846 1353 -805Q1350 -757 1349 -742Q1351 -742 1358 -739Q1365 -736 1373 -736Q1393 -736 1412 -760Q1431 -784 1431 -829ZM1507 -720Q1492 -747 1461 -747Q1445 -747 1415 -733Q1424 -733 1442.5 -737Q1461 -741 1467 -741Q1465 -741 1507 -720ZM1332 -860Q1332 -948 1304 -975Q1283 -995 1263 -994H1217Q1255 -902 1255 -818Q1255 -757 1239 -709Q1244 -709 1252 -703Q1260 -707 1318 -737Q1332 -797 1332 -860ZM1383 -661Q1380 -666 1374 -700Q1371 -714 1343 -714Q1326 -714 1288 -687H1323Q1324 -687 1356 -703Q1367 -689 1383 -661ZM1233 -821Q1233 -879 1188 -994H1169L1159 -984Q1149 -1004 1149 -1010Q1087 -993 1101 -993Q1145 -896 1145 -816Q1145 -770 1123 -693Q1125 -693 1129.5 -698Q1134 -703 1142 -703Q1149 -703 1160.5 -689Q1172 -675 1178 -675Q1185 -675 1201.5 -679Q1218 -683 1227 -683Q1210 -683 1193 -684Q1172 -687 1172 -704L1182 -714H1215Q1233 -832 1233 -821ZM863 -1054H832Q832 -1048 829 -1036.5Q826 -1025 826 -1023H858Q858 -1029 860.5 -1040.5Q863 -1052 863 -1054ZM847 -1078Q780 -1132 773 -1131H633Q643 -1125 789 -1086Q803 -1077 813 -1078ZM859 -980Q853 -986 852 -994H810L804 -968Q809 -968 817 -962Q823 -965 838 -971Q853 -977 859 -980ZM1117 -829Q1117 -856 1105 -913Q1087 -995 1060 -995Q1053 -995 1054.5 -989.5Q1056 -984 1049 -984Q1038 -984 1029 -993Q1029 -1010 1040 -1021Q1019 -1015 1008.5 -1000.5Q998 -986 987 -972Q960 -984 960 -984Q930 -984 859 -953.5Q788 -923 772 -900Q765 -890 765 -849Q765 -803 799 -760Q809 -747 878 -722Q947 -697 974 -697Q981 -697 989 -703Q997 -709 998 -709Q1013 -693 1045 -671Q1018 -698 1018 -716Q1027 -725 1036 -725Q1062 -686 1079 -686Q1087 -686 1092.5 -689Q1098 -692 1100 -692Q1117 -759 1117 -829ZM611 -1095V-1115Q576 -1149 563 -1148H490Q492 -1144 539 -1097Q520 -1083 484 -1056H514Q534 -1055 569.5 -1070Q605 -1085 611 -1095ZM858 -702Q836 -713 815 -713Q815 -703 818 -693Q821 -683 821 -681H840Q858 -698 858 -702ZM412 -1143Q391 -1136 364 -1136Q373 -1119 395 -1110Q412 -1144 412 -1143ZM1282 -533Q1271 -549 1257.5 -576Q1244 -603 1226 -659Q1214 -653 1192 -653Q1168 -653 1166 -654Q1146 -669 1141 -669H1091L1101 -661Q1110 -595 1109 -584Q1108 -560 1090 -519L1168 18Q1181 18 1187 24ZM869 -627Q858 -654 849 -654Q844 -654 837 -651Q848 -640 848 -627ZM870 -596L845 -604Q764 -588 662 -557Q656 -553 656 -538H718Q749 -537 829 -567Q850 -575 870 -596ZM627 -533V-564Q613 -579 571 -581Q526 -582 513 -592Q534 -575 567 -536Q540 -523 540 -505H580Q600 -504 627 -533ZM500 -552V-562H480V-552ZM1293 178Q1293 128 1261 89Q1226 46 1170 46Q1114 46 1080 91Q1051 130 1051 178Q1051 293 1161 293Q1293 293 1293 178ZM495 -524Q495 -524 482 -527.5Q469 -531 452 -531Q455 -528 461 -523.5Q467 -519 470 -516ZM440 -495Q440 -498 434 -508Q428 -518 428 -521Q408 -501 408 -495ZM1276 337V316H1074V337ZM297 -453Q284 -449 177 -416V-395Q223 -418 297 -453ZM1271 175Q1271 212 1241.5 247Q1212 282 1175 282Q1133 282 1103 248.5Q1073 215 1073 178Q1073 139 1103 100.5Q1133 62 1172 62Q1214 62 1245 106Q1271 143 1271 175ZM1249 178Q1249 155 1223.5 122.5Q1198 90 1170 90Q1139 90 1115 125Q1095 156 1095 181Q1095 212 1120 233.5Q1145 255 1178 255Q1195 255 1220 231Q1249 205 1249 178Z"/>
</svg>