<svg xmlns="http://www.w3.org/2000/svg" viewBox="0 -2048 2048 2048">
	<path fill="currentColor" d="M1554 8Q1554 129 1496 229Q1428 348 1316 348Q1272 348 1232 342Q1170 332 1074 218Q978 104 908 -77Q840 -252 827 -406Q794 -148 680 64Q532 342 319 342Q305 342 268 323Q181 279 137 168Q100 76 100 -37Q100 -63 121.5 -169.5Q143 -276 153 -295L573 -1110Q563 -1154 563 -1174Q563 -1201 571 -1217Q526 -1233 526 -1280Q526 -1366 590 -1441Q654 -1516 739 -1516Q753 -1516 827 -1483Q847 -1485 892 -1503.5Q937 -1522 952 -1522Q1047 -1522 1117 -1408Q1153 -1349 1153 -1315Q1153 -1234 1093 -1211Q1112 -1192 1112 -1172Q1112 -1161 1101 -1102L1474 -303Q1554 -132 1554 8ZM1128 -1313Q1128 -1323 1118 -1346Q1093 -1403 1077 -1428Q1047 -1470 1007 -1483Q962 -1497 952 -1497Q870 -1497 870 -1391Q870 -1356 894.5 -1317Q919 -1278 952 -1270Q960 -1265 1013.5 -1249Q1067 -1233 1077 -1233Q1100 -1233 1115 -1263Q1128 -1288 1128 -1313ZM899 -1276Q879 -1282 861 -1326Q845 -1365 845 -1391Q845 -1437 862 -1465Q841 -1458 825 -1458Q813 -1458 806 -1465Q825 -1427 825 -1413Q825 -1366 772 -1284Q835 -1291 829 -1291Q850 -1291 899 -1276ZM1087 -1168Q1087 -1209 1034 -1219L970 -934Q1001 -911 1015 -875Q1087 -1126 1087 -1168ZM1009 -1225L944 -1241L890 -971Q922 -969 948 -951ZM796 -1415Q796 -1454 743 -1491Q669 -1489 609.5 -1422Q550 -1355 550 -1280Q550 -1239 589 -1239Q655 -1270 704 -1270Q727 -1270 735 -1278Q752 -1280 775 -1338Q796 -1391 796 -1415ZM921 -1248Q829 -1266 824 -1266Q807 -1266 761 -1258L811 -977Q826 -979 835 -979Q850 -979 866 -975ZM786 -973L735 -1254L667 -1241L735 -957Q761 -971 786 -973ZM999 -852Q962 -955 839 -955Q789 -955 739 -928Q681 -897 677 -852ZM710 -938L643 -1237L628 -1233L589 -1202Q587 -1192 587 -1174Q587 -1122 657 -877Q657 -899 710 -938ZM1001 -828H671Q708 -707 719 -689Q757 -619 837 -619Q915 -619 954 -690Q968 -715 1001 -828ZM1529 0Q1529 -131 1452 -295L1091 -1063Q1003 -670 937 -623Q899 -596 854 -596Q847 -536 847 -492Q847 -301 943 -60Q1049 206 1189 297Q1229 323 1333 323Q1382 323 1452 245Q1529 160 1529 0ZM819 -596Q785 -598 749 -617Q708 -638 700 -666L581 -1069L176 -287Q165 -265 144.5 -164.5Q124 -64 124 -35Q124 26 145 106Q169 195 202 235Q268 315 321 315Q493 315 643 84Q807 -169 819 -596Z"/>
</svg>