<svg viewBox="0 0 9.489433 17.977583"
   xmlns="http://www.w3.org/2000/svg">
  <path
     style="fill:currentColor; stroke:none"
     d="M 9.489433,1.297117 C 9.489433,1.6005357 9.3073813,1.752245 8.943278,1.752245 L 6.963469,1.752245 C 6.3718017,1.752245 6.075968,1.9494677 6.075968,2.343913 C 6.075968,2.7383577 6.3718017,2.93558 6.963469,2.93558 L 8.943278,2.93558 C 9.3073813,2.93558 9.489433,3.0872897 9.489433,3.390709 C 9.489433,3.6637857 9.2049773,3.948241 8.636066,4.244075 C 8.067156,4.5399083 7.0469093,4.687825 5.575326,4.687825 L 5.575326,14.222772 L 9.148087,14.222772 L 9.148087,15.565401 L 5.575326,15.565401 L 5.575326,17.977583 L 4.027889,17.977583 L 4.005132,15.565401 L 0.546154,15.565401 L 0.546154,14.222772 L 4.027889,14.222772 L 4.027889,4.687825 C 2.981093,4.687825 2.048079,4.456468 1.228847,3.993754 C 0.40961567,3.53104 0,2.9848857 0,2.355291 C 0,1.7256963 0.451336,1.175749 1.354008,0.705449 C 2.25668,0.23514967 3.550004,0 5.23398,0 C 6.917956,0 8.048192,0.15170967 8.624688,0.455129 C 9.2011847,0.75854767 9.489433,1.0392103 9.489433,1.297117 z M 5.598083,2.343913 C 5.598083,1.615707 6.0532117,1.251604 6.963469,1.251604 L 8.943278,1.251604 C 8.5943467,0.75096267 7.4337687,0.500642 5.461544,0.500642 C 3.48932,0.500642 2.184618,0.72820633 1.547438,1.183335 C 0.91025733,1.6384637 0.591667,2.025323 0.591667,2.343913 C 0.591667,2.662503 0.91025733,3.0493623 1.547438,3.504491 C 2.184618,3.9596197 3.48932,4.187184 5.461544,4.187184 C 7.4337687,4.187184 8.5943467,3.9368633 8.943278,3.436222 L 6.963469,3.436222 C 6.0532117,3.436222 5.598083,3.072119 5.598083,2.343913 z" />
</svg>