<svg xmlns="http://www.w3.org/2000/svg" viewBox="27.3 -1573.7 695.4 1962.4">
	<path fill="currentColor" d="M650 -878Q650 -845 603 -831L403 -951V-113Q487 -93 530 -32Q567 18 567 81Q567 177 489 231Q515 233 567 241Q558 272 566 316H183Q184 292 184 240Q207 241 250 236Q167 177 167 83Q167 25 213 -38Q264 -108 325 -110Q328 -112 328 -122L324 -946Q281 -917 239 -888Q161 -836 139 -836Q134 -836 124 -839Q114 -842 106 -842Q106 -844 103 -851Q100 -858 100 -865Q100 -892 194 -963Q248 -1002 302 -1041Q167 -1145 167 -1286Q167 -1391 231 -1448Q291 -1501 391 -1501Q480 -1501 535 -1432Q583 -1373 583 -1296Q583 -1231 551 -1175Q526 -1132 448 -1042Q458 -1031 562 -960Q650 -901 650 -878ZM484 -1273Q484 -1413 373 -1413Q323 -1413 290 -1370Q261 -1333 261 -1286Q261 -1190 367 -1091Q484 -1201 484 -1273ZM557 -1296Q557 -1368 512 -1422Q464 -1481 388 -1481Q300 -1481 246.5 -1428Q193 -1375 193 -1286Q193 -1169 320 -1054Q344 -1066 344 -1079Q312 -1103 275 -1166Q235 -1235 235 -1280Q235 -1342 272 -1388Q311 -1439 373 -1439Q510 -1439 510 -1265Q510 -1179 382 -1074Q281 -998 179 -922Q138 -887 126 -863H150Q557 -1097 557 -1296ZM625 -881Q447 -1018 424 -1018Q408 -1018 391 -989Q597 -862 601 -862Q606 -862 625 -881ZM370 -110V-976H355V-110ZM541 261Q543 261 479 264Q440 266 432 243Q541 185 541 78Q541 0 489.5 -44Q438 -88 357 -88Q289 -88 241 -40Q193 8 193 78Q193 122 205 144Q219 169 260 211Q297 248 297 252Q297 257 288 266H204V291H535Q535 285 538 274Q541 263 541 261ZM521 76Q521 133 479 186Q434 245 375 245Q317 245 265.5 194.5Q214 144 214 94Q214 35 262.5 -16Q311 -67 370 -67Q422 -67 471.5 -23Q521 21 521 76ZM495 81Q495 34 457 -3.5Q419 -41 370 -41Q318 -41 279 2.5Q240 46 240 94Q240 108 252 149Q258 168 302 193.5Q346 219 365 219Q418 219 456.5 176.5Q495 134 495 81Z"/>
</svg>