<svg xmlns="http://www.w3.org/2000/svg" viewBox="0 -2048 2048 2048">
	<path fill="#000000" d="M1727 -393Q1727 -245 1558 -173Q1433 -120 1260 -120Q1169 -120 1003 -186.5Q837 -253 746 -253Q601 -253 361 -147Q121 -41 135 -41Q100 -41 100 -83Q100 -152 389 -257Q654 -353 753 -353Q846 -353 1016 -285.5Q1186 -218 1279 -218Q1624 -218 1624 -401Q1624 -508 1336 -572Q1263 -400 1037 -400Q828 -400 535 -522Q222 -652 113 -807Q187 -881 501 -928Q747 -965 931 -965Q1018 -965 1147 -910Q1286 -850 1323 -783Q1345 -743 1355 -687Q1534 -653 1607 -610Q1727 -539 1727 -393ZM1702 -393Q1702 -531 1579 -596Q1514 -631 1334 -666Q1321 -734 1301 -771Q1267 -833 1129 -890Q1079 -846 1043 -774Q1004 -697 1004 -635Q1004 -517 1083 -428Q1256 -448 1321 -601Q1649 -527 1649 -401Q1649 -193 1279 -193Q1184 -193 1013.5 -260.5Q843 -328 753 -328Q663 -328 404 -239Q125 -143 125 -83Q125 -70 135 -66Q554 -278 746 -278Q840 -278 1006.5 -211.5Q1173 -145 1260 -145Q1421 -145 1539 -192Q1702 -257 1702 -393ZM1104 -900Q998 -940 931 -940Q761 -940 524 -906Q235 -864 147 -803Q262 -660 558 -540Q839 -425 1037 -425H1052Q979 -523 979 -635Q979 -776 1104 -900Z"/>
</svg>