<svg xmlns="http://www.w3.org/2000/svg" viewBox="26.1 -1563.9 689.8 1995.8">
	<path fill="currentColor" d="M642 -912Q607 -885 572 -858Q529 -821 517 -786Q509 -753 487 -691Q484 -685 410 -640L489 13Q489 77 462 196Q424 358 368 358Q348 358 323.5 334Q299 310 291 288Q259 200 252 126Q247 63 242 0L321 -630Q323 -647 308 -650Q286 -654 280 -660Q246 -694 207 -801Q180 -874 106 -880Q106 -886 103 -907Q100 -928 100 -937Q179 -977 232 -979Q238 -1004 249 -1061Q261 -1124 334 -1230Q424 -1362 438 -1392Q428 -1403 428 -1418Q428 -1443 455.5 -1466.5Q483 -1490 508 -1490Q584 -1490 584 -1424Q584 -1421 562 -1382Q539 -1340 533 -1313Q530 -1300 538 -1266Q547 -1226 547 -1208Q549 -1069 505 -983Q550 -968 642 -936ZM558 -1427Q558 -1464 505 -1464Q465 -1464 456 -1424Q458 -1409 461 -1387Q463 -1378 365 -1239Q263 -1094 263 -1023V-985Q311 -989 363 -989Q416 -989 483 -985Q522 -1093 522 -1187Q522 -1211 519 -1230Q506 -1312 506 -1313Q513 -1334 537 -1380Q558 -1422 558 -1427ZM616 -919Q516 -963 360 -963Q196 -963 127 -920V-901Q204 -885 241 -782Q278 -679 344 -667Q349 -664 353 -660L268 -3Q268 85 289 189Q319 331 368 331Q412 331 441 177Q463 62 463 -16L389 -650Q389 -664 422 -676Q460 -690 471 -712Q479 -746 496 -802Q522 -872 616 -919Z"/>
</svg>