<svg xmlns="http://www.w3.org/2000/svg" viewBox="0 -2048 2048 2048">
	<path fill="currentColor" d="M1919 -601Q1919 -595 1911 -579Q1893 -563 1855 -552Q1706 -509 1641 -509L1082 -567L1114 -117Q1114 4 1084 121Q1041 286 960 286Q906 286 866 185Q841 122 834 71Q823 -12 823 -150Q823 -308 860 -546L641 -514Q535 -514 478 -559Q460 -573 410 -641Q378 -686 332 -686Q326 -686 293.5 -683Q261 -680 254 -680Q100 -680 100 -769Q100 -842 215 -881Q215 -881 143 -949Q95 -995 101 -1017Q123 -1028 137 -1028Q146 -1028 285 -904Q420 -1039 420 -1039Q428 -1039 438 -1025.5Q448 -1012 448 -1002Q448 -984 355 -891Q382 -873 447 -825Q456 -818 508 -743Q553 -680 573 -680Q578 -680 692 -711Q822 -747 876 -759Q878 -760 883 -767Q903 -873 911 -973Q845 -1001 798 -1117Q747 -1239 672 -1284V-1302Q680 -1315 715.5 -1335.5Q751 -1356 765 -1356Q765 -1356 829 -1340Q928 -1538 960 -1538Q1008 -1538 1091 -1356Q1111 -1366 1124 -1366Q1169 -1366 1232 -1333Q1238 -1325 1249 -1312Q1174 -1247 1129 -1125Q1088 -1015 1020 -973L1045 -763Q1083 -758 1153 -741Q1344 -669 1411 -650Q1550 -608 1659 -608L1841 -623Q1896 -623 1919 -601ZM1067 -1347Q1036 -1458 960 -1506Q916 -1445 854 -1332Q889 -1305 961 -1195Q965 -1228 999 -1277.5Q1033 -1327 1067 -1347ZM1212 -1318Q1157 -1340 1132 -1340Q1139 -1340 1095 -1326Q1039 -1308 1012 -1250Q991 -1199 969 -1148H951Q925 -1219 880 -1271Q826 -1335 768 -1335Q760 -1335 736.5 -1319Q713 -1303 708 -1296Q771 -1245 816 -1139Q846 -1068 862 -1045Q898 -992 943 -998L917 -770H1019L999 -984Q999 -1004 1019 -1005Q1046 -1008 1059 -1035Q1082 -1093 1135 -1206Q1149 -1231 1212 -1318ZM1887 -596L1644 -587Q1545 -587 1522 -593Q1371 -642 1075 -735Q1048 -743 971 -743Q907 -743 897 -741Q821 -726 689 -691Q574 -660 571 -660Q536 -660 498 -714Q436 -803 425 -813Q373 -867 303 -867Q261 -867 204 -847Q126 -819 126 -774Q126 -701 246 -701Q252 -701 298 -706.5Q344 -712 350 -712Q374 -712 387 -700Q426 -653 465 -606Q515 -548 565 -541Q573 -540 636 -540Q718 -540 839.5 -566Q961 -592 1023 -592L1631 -535Q1682 -535 1860 -578Q1874 -581 1887 -596ZM424 -1005L418 -1008L317 -897L323 -893ZM246 -897L134 -1008L128 -1005L240 -893ZM1093 -104L1050 -565Q966 -562 880 -550L843 -197Q843 260 965 260Q1029 260 1067 87Q1093 -31 1093 -104ZM293 -824Q279 -800 247 -795Q241 -810 230 -834Q266 -852 261 -852Q265 -852 293 -824Z"/>
</svg>