<svg xmlns="http://www.w3.org/2000/svg" viewBox="18.8 -1637.2 2192.4 2091.4">
	<path fill="currentColor" d="M2130 373H1507Q1524 273 1581 205Q1621 157 1722 84L1553 -15L1585 -70Q1684 -16 1785 29V-1078Q1785 -1115 1711 -1143Q1591 -1188 1567 -1205Q1500 -1251 1500 -1340Q1500 -1453 1590 -1509Q1664 -1556 1784 -1556Q1839 -1556 1929 -1534Q2037 -1508 2053 -1476Q2048 -1471 1972 -1417Q1916 -1377 1916 -1347Q1916 -1305 1980 -1272Q2054 -1235 2065 -1214Q2053 -1206 1962 -1166Q1934 -1154 1852 -1111V29Q1953 -16 2052 -70L2084 -15L1915 84Q2016 157 2056 205Q2113 273 2130 373ZM1430 373H807Q824 273 881 205Q921 157 1022 84L853 -15L885 -70Q984 -16 1085 29V-1078Q1085 -1115 1011 -1143Q891 -1188 867 -1205Q800 -1251 800 -1340Q800 -1453 890 -1509Q964 -1556 1084 -1556Q1139 -1556 1229 -1534Q1337 -1508 1353 -1476Q1348 -1471 1272 -1417Q1216 -1377 1216 -1347Q1216 -1305 1280 -1272Q1354 -1235 1365 -1214Q1353 -1206 1262 -1166Q1234 -1154 1152 -1111V29Q1253 -16 1352 -70L1384 -15L1215 84Q1316 157 1356 205Q1413 273 1430 373ZM730 373H107Q124 273 181 205Q221 157 322 84L153 -15L185 -70Q284 -16 385 29V-1078Q385 -1115 311 -1143Q191 -1188 167 -1205Q100 -1251 100 -1340Q100 -1453 190 -1509Q264 -1556 384 -1556Q439 -1556 529 -1534Q637 -1508 653 -1476Q648 -1471 572 -1417Q516 -1377 516 -1347Q516 -1305 580 -1272Q654 -1235 665 -1214Q653 -1206 562 -1166Q534 -1154 452 -1111V29Q553 -16 652 -70L684 -15L515 84Q616 157 656 205Q713 273 730 373ZM2098 347Q2077 260 2009 193Q1978 162 1867 82L2048 -24L2042 -35Q1954 12 1826 69V-1127Q1892 -1157 2024 -1220Q1981 -1244 1937 -1267Q1890 -1298 1890 -1347Q1890 -1384 1936 -1423Q1975 -1450 2014 -1477Q1978 -1497 1903.5 -1513.5Q1829 -1530 1784 -1530Q1526 -1530 1526 -1340Q1526 -1260 1600 -1216Q1668 -1188 1737 -1159Q1811 -1128 1811 -1078V69Q1683 12 1595 -35L1589 -24L1770 82Q1660 162 1628 193Q1560 260 1539 347ZM1398 347Q1377 260 1309 193Q1278 162 1167 82L1348 -24L1342 -35Q1254 12 1126 69V-1127Q1192 -1157 1324 -1220Q1281 -1244 1237 -1267Q1190 -1298 1190 -1347Q1190 -1384 1236 -1423Q1275 -1450 1314 -1477Q1278 -1497 1203.5 -1513.5Q1129 -1530 1084 -1530Q826 -1530 826 -1340Q826 -1260 900 -1216Q968 -1188 1037 -1159Q1111 -1128 1111 -1078V69Q983 12 895 -35L889 -24L1070 82Q960 162 928 193Q860 260 839 347ZM698 347Q677 260 609 193Q578 162 467 82L648 -24L642 -35Q554 12 426 69V-1127Q492 -1157 624 -1220Q581 -1244 537 -1267Q490 -1298 490 -1347Q490 -1384 536 -1423Q575 -1450 614 -1477Q578 -1497 503.5 -1513.5Q429 -1530 384 -1530Q126 -1530 126 -1340Q126 -1260 200 -1216Q268 -1188 337 -1159Q411 -1128 411 -1078V69Q283 12 195 -35L189 -24L370 82Q260 162 228 193Q160 260 139 347Z"/>
</svg>