<svg xmlns="http://www.w3.org/2000/svg" viewBox="20.5 -1655.5 1274 2147">
	<path fill="currentColor" d="M1215 -611H903Q916 -688 1011 -756L926 -805L942 -833Q997 -803 1042 -783V-1337Q1042 -1354 971 -1381.5Q900 -1409 900 -1468Q900 -1576 1042 -1576Q1070 -1576 1114 -1565Q1167 -1552 1176 -1536Q1175 -1535 1136 -1506Q1108 -1486 1108 -1471Q1108 -1450 1140 -1434Q1176 -1416 1182 -1405Q1143 -1386 1076 -1353V-783Q1121 -803 1176 -833L1192 -805L1107 -756Q1202 -688 1215 -611ZM815 -611H503Q516 -688 611 -756L526 -805L542 -833Q597 -803 642 -783V-1337Q642 -1354 571 -1381.5Q500 -1409 500 -1468Q500 -1576 642 -1576Q670 -1576 714 -1565Q767 -1552 776 -1536Q775 -1535 736 -1506Q708 -1486 708 -1471Q708 -1450 740 -1434Q776 -1416 782 -1405Q743 -1386 676 -1353V-783Q721 -803 776 -833L792 -805L707 -756Q802 -688 815 -611ZM415 -611H103Q116 -688 211 -756L126 -805L142 -833Q197 -803 242 -783V-1337Q242 -1354 171 -1381.5Q100 -1409 100 -1468Q100 -1576 242 -1576Q270 -1576 314 -1565Q367 -1552 376 -1536Q375 -1535 336 -1506Q308 -1486 308 -1471Q308 -1450 340 -1434Q376 -1416 382 -1405Q343 -1386 276 -1353V-783Q321 -803 376 -833L392 -805L307 -756Q402 -688 415 -611ZM1215 412H903Q916 335 1011 267L926 218L942 190Q997 220 1042 240V-314Q1042 -331 971 -358.5Q900 -386 900 -445Q900 -553 1042 -553Q1070 -553 1114 -542Q1167 -529 1176 -513Q1175 -512 1136 -483Q1108 -463 1108 -448Q1108 -427 1140 -411Q1176 -393 1182 -382Q1143 -363 1076 -330V240Q1121 220 1176 190L1192 218L1107 267Q1202 335 1215 412ZM815 412H503Q516 335 611 267L526 218L542 190Q597 220 642 240V-314Q642 -331 571 -358.5Q500 -386 500 -445Q500 -553 642 -553Q670 -553 714 -542Q767 -529 776 -513Q775 -512 736 -483Q708 -463 708 -448Q708 -427 740 -411Q776 -393 782 -382Q743 -363 676 -330V240Q721 220 776 190L792 218L707 267Q802 335 815 412ZM415 412H103Q116 335 211 267L126 218L142 190Q197 220 242 240V-314Q242 -331 171 -358.5Q100 -386 100 -445Q100 -553 242 -553Q270 -553 314 -542Q367 -529 376 -513Q375 -512 336 -483Q308 -463 308 -448Q308 -427 340 -411Q376 -393 382 -382Q343 -363 276 -330V240Q321 220 376 190L392 218L307 267Q402 335 415 412ZM1127 -1409Q1080 -1433 1080 -1471Q1080 -1503 1124 -1533Q1079 -1548 1042 -1548Q928 -1548 928 -1468Q928 -1430 977 -1409Q1003 -1397 1057 -1375Q1098 -1396 1127 -1409ZM727 -1409Q680 -1433 680 -1471Q680 -1503 724 -1533Q679 -1548 642 -1548Q528 -1548 528 -1468Q528 -1430 577 -1409Q603 -1397 657 -1375Q698 -1396 727 -1409ZM1178 -639Q1167 -665 1126 -706Q1082 -751 1059 -751Q1029 -751 969 -685Q950 -664 940 -639ZM327 -1409Q280 -1433 280 -1471Q280 -1503 324 -1533Q279 -1548 242 -1548Q128 -1548 128 -1468Q128 -1430 177 -1409Q203 -1397 257 -1375Q298 -1396 327 -1409ZM1127 -386Q1080 -410 1080 -448Q1080 -480 1124 -510Q1079 -525 1042 -525Q928 -525 928 -445Q928 -407 977 -386Q1003 -374 1057 -352Q1098 -373 1127 -386ZM778 -639Q767 -665 726 -706Q682 -751 659 -751Q629 -751 569 -685Q550 -664 540 -639ZM727 -386Q680 -410 680 -448Q680 -480 724 -510Q679 -525 642 -525Q528 -525 528 -445Q528 -407 577 -386Q603 -374 657 -352Q698 -373 727 -386ZM378 -639Q367 -665 326 -706Q282 -751 259 -751Q229 -751 169 -685Q150 -664 140 -639ZM1178 384Q1167 358 1126 317Q1082 272 1059 272Q1029 272 969 338Q950 359 940 384ZM327 -386Q280 -410 280 -448Q280 -480 324 -510Q279 -525 242 -525Q128 -525 128 -445Q128 -407 177 -386Q203 -374 257 -352Q298 -373 327 -386ZM778 384Q767 358 726 317Q682 272 659 272Q629 272 569 338Q550 359 540 384ZM378 384Q367 358 326 317Q282 272 259 272Q229 272 169 338Q150 359 140 384Z"/>
</svg>