<svg xmlns="http://www.w3.org/2000/svg" viewBox="0 -2048 2048 2048">
	<path fill="currentColor" d="M828 -949H622Q631 -999 693 -1044L637 -1077L648 -1095Q674 -1081 714 -1063V-1428Q714 -1439 667 -1457Q620 -1475 620 -1514Q620 -1586 713 -1586Q787 -1586 802 -1559Q801 -1558 775 -1540Q757 -1527 757 -1517Q757 -1503 779.5 -1492Q802 -1481 806 -1473Q782 -1462 736 -1439V-1063Q776 -1081 802 -1095L812 -1077L757 -1044Q819 -999 828 -949ZM568 -949H362Q371 -999 433 -1044L377 -1077L388 -1095Q414 -1081 454 -1063V-1428Q454 -1439 407 -1457Q360 -1475 360 -1514Q360 -1586 453 -1586Q527 -1586 542 -1559Q541 -1558 515 -1540Q497 -1527 497 -1517Q497 -1503 519.5 -1492Q542 -1481 546 -1473Q522 -1462 476 -1439V-1063Q516 -1081 542 -1095L552 -1077L497 -1044Q559 -999 568 -949ZM308 -949H102Q111 -999 173 -1044L117 -1077L128 -1095Q154 -1081 194 -1063V-1428Q194 -1439 147 -1457Q100 -1475 100 -1514Q100 -1586 193 -1586Q267 -1586 282 -1559Q281 -1558 255 -1540Q237 -1527 237 -1517Q237 -1503 259.5 -1492Q282 -1481 286 -1473Q262 -1462 216 -1439V-1063Q256 -1081 282 -1095L292 -1077L237 -1044Q299 -999 308 -949ZM828 -269H622Q631 -319 693 -364L637 -397L648 -415Q674 -401 714 -383V-748Q714 -759 667 -777Q620 -795 620 -834Q620 -906 713 -906Q787 -906 802 -879Q801 -878 775 -860Q757 -847 757 -837Q757 -823 779.5 -812Q802 -801 806 -793Q782 -782 736 -759V-383Q776 -401 802 -415L812 -397L757 -364Q819 -319 828 -269ZM568 -269H362Q371 -319 433 -364L377 -397L388 -415Q414 -401 454 -383V-748Q454 -759 407 -777Q360 -795 360 -834Q360 -906 453 -906Q527 -906 542 -879Q541 -878 515 -860Q497 -847 497 -837Q497 -823 519.5 -812Q542 -801 546 -793Q522 -782 476 -759V-383Q516 -401 542 -415L552 -397L497 -364Q559 -319 568 -269ZM308 -269H102Q111 -319 173 -364L117 -397L128 -415Q154 -401 194 -383V-748Q194 -759 147 -777Q100 -795 100 -834Q100 -906 193 -906Q267 -906 282 -879Q281 -878 255 -860Q237 -847 237 -837Q237 -823 259.5 -812Q282 -801 286 -793Q262 -782 216 -759V-383Q256 -401 282 -415L292 -397L237 -364Q299 -319 308 -269ZM828 422H622Q631 372 693 327L637 294L648 276Q674 290 714 308V-57Q714 -68 667 -86Q620 -104 620 -143Q620 -215 713 -215Q787 -215 802 -188Q801 -187 775 -169Q757 -156 757 -146Q757 -132 779.5 -121Q802 -110 806 -102Q782 -91 736 -68V308Q776 290 802 276L812 294L757 327Q819 372 828 422ZM568 422H362Q371 372 433 327L377 294L388 276Q414 290 454 308V-57Q454 -68 407 -86Q360 -104 360 -143Q360 -215 453 -215Q527 -215 542 -188Q541 -187 515 -169Q497 -156 497 -146Q497 -132 519.5 -121Q542 -110 546 -102Q522 -91 476 -68V308Q516 290 542 276L552 294L497 327Q559 372 568 422ZM308 422H102Q111 372 173 327L117 294L128 276Q154 290 194 308V-57Q194 -68 147 -86Q100 -104 100 -143Q100 -215 193 -215Q267 -215 282 -188Q281 -187 255 -169Q237 -156 237 -146Q237 -132 259.5 -121Q282 -110 286 -102Q262 -91 216 -68V308Q256 290 282 276L292 294L237 327Q299 372 308 422ZM750 -1477Q729 -1493 729 -1517Q729 -1535 748 -1553Q726 -1558 713 -1558Q648 -1558 648 -1514Q648 -1495 674 -1484Q690 -1477 723 -1463ZM490 -1477Q469 -1493 469 -1517Q469 -1535 488 -1553Q466 -1558 453 -1558Q388 -1558 388 -1514Q388 -1495 414 -1484Q430 -1477 463 -1463ZM788 -977Q781 -989 759 -1009Q734 -1032 725 -1032Q715 -1032 691.5 -1010.5Q668 -989 661 -977ZM230 -1477Q209 -1493 209 -1517Q209 -1535 228 -1553Q206 -1558 193 -1558Q128 -1558 128 -1514Q128 -1495 154 -1484Q170 -1477 203 -1463ZM750 -797Q729 -813 729 -837Q729 -855 748 -873Q726 -878 713 -878Q648 -878 648 -834Q648 -815 674 -804Q690 -797 723 -783ZM528 -977Q521 -989 499 -1009Q474 -1032 465 -1032Q455 -1032 431.5 -1010.5Q408 -989 401 -977ZM490 -797Q469 -813 469 -837Q469 -855 488 -873Q466 -878 453 -878Q388 -878 388 -834Q388 -815 414 -804Q430 -797 463 -783ZM268 -977Q261 -989 239 -1009Q214 -1032 205 -1032Q195 -1032 171.5 -1010.5Q148 -989 141 -977ZM788 -297Q781 -309 759 -329Q734 -352 725 -352Q715 -352 691.5 -330.5Q668 -309 661 -297ZM230 -797Q209 -813 209 -837Q209 -855 228 -873Q206 -878 193 -878Q128 -878 128 -834Q128 -815 154 -804Q170 -797 203 -783ZM750 -106Q729 -122 729 -146Q729 -164 748 -182Q726 -187 713 -187Q648 -187 648 -143Q648 -124 674 -113Q690 -106 723 -92ZM528 -297Q521 -309 499 -329Q474 -352 465 -352Q455 -352 431.5 -330.5Q408 -309 401 -297ZM490 -106Q469 -122 469 -146Q469 -164 488 -182Q466 -187 453 -187Q388 -187 388 -143Q388 -124 414 -113Q430 -106 463 -92ZM268 -297Q261 -309 239 -329Q214 -352 205 -352Q195 -352 171.5 -330.5Q148 -309 141 -297ZM788 394Q781 382 759 362Q734 339 725 339Q715 339 691.5 360.5Q668 382 661 394ZM230 -106Q209 -122 209 -146Q209 -164 228 -182Q206 -187 193 -187Q128 -187 128 -143Q128 -124 154 -113Q170 -106 203 -92ZM528 394Q521 382 499 362Q474 339 465 339Q455 339 431.5 360.5Q408 382 401 394ZM268 394Q261 382 239 362Q214 339 205 339Q195 339 171.5 360.5Q148 382 141 394Z"/>
</svg>