<svg xmlns="http://www.w3.org/2000/svg" viewBox="0 -2048 2048 2048">
	<path fill="#000000" d="M863 -1417Q863 -1390 807 -1373Q788 -1367 765 -1351Q711 -1313 667 -1180Q630 -1067 535 -1042V355H423V-1042Q399 -1049 375 -1056Q341 -1068 322 -1096Q306 -1119 274 -1224Q246 -1313 209 -1341Q200 -1348 143 -1369Q100 -1385 100 -1404Q100 -1465 248 -1500Q356 -1525 455 -1525Q531 -1525 668 -1502Q863 -1469 863 -1417ZM836 -1420Q814 -1447 676 -1474Q550 -1498 471 -1498Q279 -1498 155 -1442Q127 -1429 127 -1402Q207 -1388 238 -1349Q265 -1315 297 -1220Q335 -1106 370 -1081Q382 -1072 407 -1069Q448 -1065 450 -1064V328H513V-1064Q539 -1074 564 -1084Q600 -1099 613 -1118Q637 -1154 648 -1198Q657 -1233 665 -1269Q679 -1316 739 -1357Q787 -1388 836 -1420Z"/>
</svg>