<svg xmlns="http://www.w3.org/2000/svg" viewBox="28.7 -1534.3 1732.6 1925.6">
	<path fill="currentColor" d="M1690 -752Q1690 -621 1641 -615Q1609 -648 1538 -710Q1496 -742 1416 -742Q1410 -742 1344.5 -731.5Q1279 -721 1273 -721Q1251 -721 1153 -763Q1138 -769 1127 -793Q1111 -828 1107 -833Q1088 -827 1057 -793Q1024 -756 1024 -730V298Q1003 320 981 320Q970 320 954 307.5Q938 295 938 281V-764Q938 -794 995 -853Q1047 -906 1075 -918Q1056 -952 1061 -1014Q1064 -1052 1121 -1104Q1167 -1142 1213 -1179Q1290 -1243 1307 -1329Q1309 -1366 1310 -1403Q1317 -1463 1349 -1463Q1371 -1463 1416 -1406Q1588 -1189 1657 -948Q1685 -850 1688 -828Q1690 -817 1690 -752ZM852 293Q840 320 806 320Q795 320 782.5 309Q770 298 770 292V-744Q770 -766 744 -800.5Q718 -835 693 -838Q684 -815 647 -769Q624 -751 574 -735Q533 -721 519 -721Q513 -721 450.5 -731.5Q388 -742 382 -742Q313 -742 256 -705Q219 -682 154 -615Q128 -624 112 -667Q100 -698 100 -721Q100 -796 142 -958Q181 -1107 198 -1132Q250 -1218 302 -1303Q406 -1463 445 -1463Q470 -1463 479 -1441Q482 -1408 487 -1344Q490 -1312 507 -1279Q526 -1242 642 -1141Q740 -1055 740 -998Q740 -954 720 -922Q756 -894 792 -866Q852 -814 852 -785ZM1670 -744Q1670 -897 1575 -1105Q1480 -1313 1358 -1432H1340Q1340 -1423 1331 -1411Q1333 -1383 1332 -1334Q1325 -1292 1307 -1258Q1284 -1215 1187 -1131Q1097 -1052 1087 -1019Q1079 -992 1099 -907Q1061 -876 1024 -846Q964 -793 964 -769V294H992L1004 283V-750Q1004 -800 1108 -869Q1122 -838 1157 -789Q1206 -747 1281 -747Q1287 -747 1347 -757Q1407 -767 1413 -767Q1506 -767 1564 -725Q1593 -693 1647 -645Q1670 -667 1670 -744ZM831 294V-750Q831 -796 793 -829Q743 -868 694 -907Q720 -1003 720 -996Q720 -1036 654 -1095Q605 -1135 556 -1174Q476 -1241 467 -1329Q466 -1358 466 -1386Q464 -1422 448 -1438Q197 -1200 139 -821Q125 -730 125 -714Q125 -647 159 -645Q256 -767 382 -767Q388 -767 449 -757Q510 -747 516 -747Q538 -747 581 -761.5Q624 -776 636 -790Q650 -820 682 -869Q724 -857 761 -806Q796 -759 796 -728V283Q807 294 807 299Q809 299 818.5 296.5Q828 294 831 294Z"/>
</svg>