<svg xmlns="http://www.w3.org/2000/svg" viewBox="0 -2048 2048 2048">
	<path fill="#000000" d="M1988 -668Q1970 -650 1928 -620Q1611 -463 1222 -445V346H1114Q1129 252 1129 137Q1129 6 1099 -32Q1062 -78 881 -150Q846 -164 806 -164L838 -445Q550 -487 424 -519Q192 -580 100 -679Q110 -700 133 -712Q276 -788 632 -869Q750 -896 887 -912Q889 -918 894 -930Q909 -1050 960 -1510H988Q1003 -1510 1058 -1484Q1108 -1461 1117 -1454Q1170 -1413 1201 -1360Q1220 -1328 1219 -1306V-915Q1660 -888 1988 -692ZM1962 -680Q1892 -723 1737 -781Q1633 -820 1483 -850Q1327 -882 1222 -884V-466Q1599 -494 1897 -631Q1931 -647 1962 -680ZM1198 -915V-1285Q1199 -1310 1173.5 -1356.5Q1148 -1403 1112 -1428Q1033 -1484 1004 -1483H981L917 -915ZM1195 -457V-889H912L864 -471Q934 -465 1068 -456Q1078 -455 1138 -463Q1181 -468 1195 -457ZM890 -884Q651 -863 309 -760Q180 -721 132 -680Q313 -544 733 -484Q789 -476 788 -476H842ZM1197 319V-434Q1046 -431 865 -448L833 -185Q863 -185 887 -177Q1053 -123 1106 -58Q1155 1 1155 134Q1155 239 1140 319Z"/>
</svg>