<svg xmlns="http://www.w3.org/2000/svg" viewBox="0 -2048 2048 2048">
	<path fill="#000000" d="M1886 -661H1058Q1053 -656 1058 -523Q1141 -640 1256 -640Q1286 -640 1354 -623Q1392 -613 1448 -548.5Q1504 -484 1504 -452Q1504 -439 1486.5 -424Q1469 -409 1454 -411Q1391 -495 1364 -522Q1314 -569 1264 -569Q1215 -569 1143 -505Q1065 -437 1060 -372L1063 -319Q1128 -421 1264 -421Q1305 -421 1369 -404Q1399 -396 1449 -328.5Q1499 -261 1499 -235Q1499 -224 1496 -216Q1490 -199 1475 -196Q1463 -205 1363 -298Q1313 -344 1261 -344Q1184 -344 1124.5 -278Q1065 -212 1065 -133V40Q1071 42 1083 48Q1138 42 1219 124Q1300 206 1300 266Q1300 271 1297 279.5Q1294 288 1294 294H713V277Q713 209 791 135.5Q869 62 954 48Q968 33 968 -46Q968 -136 969 -128Q964 -190 936 -238Q915 -274 872 -305Q825 -339 789 -339Q717 -339 679 -305Q673 -299 633 -240Q610 -206 572 -206Q544 -206 544 -235Q544 -250 578 -307Q646 -421 776 -421Q883 -421 970 -314Q978 -342 978 -370Q978 -443 897 -502Q828 -554 771 -554Q701 -554 652 -487.5Q603 -421 567 -421Q560 -421 556 -424Q552 -427 551 -427.5Q550 -428 547 -436.5Q544 -445 544 -452Q544 -526 642 -588Q725 -640 781 -640Q890 -640 986 -523Q989 -526 984 -661H675Q670 -661 640 -649Q607 -635 593 -632Q463 -600 414 -600Q331 -600 221 -655Q100 -716 100 -778Q100 -809 141 -809Q154 -809 241.5 -760.5Q329 -712 427 -712Q485 -712 525 -722L534 -730Q532 -734 525 -741Q517 -743 496 -743Q490 -743 460 -740Q430 -737 424 -737Q362 -737 304 -780Q306 -787 337 -834Q377 -814 403 -814L544 -834Q591 -816 682 -783L989 -829V-1296Q989 -1338 962 -1377Q932 -1422 891 -1422Q820 -1422 791 -1338Q780 -1283 768 -1228H724Q707 -1245 707 -1258Q707 -1342 758 -1411Q814 -1488 896 -1488Q938 -1488 984 -1456Q1037 -1419 1041 -1368Q1041 -1364 1047.5 -1349.5Q1054 -1335 1054 -1328V-839Q1044 -840 1203 -840L1612 -808L1658 -1329H1845ZM1029 -835V-1323Q1030 -1345 1012 -1389Q998 -1425 977 -1440Q946 -1463 896 -1463Q887 -1463 832 -1450Q801 -1443 767 -1380Q733 -1317 733 -1276V-1254H743Q758 -1277 766 -1319Q776 -1368 785 -1387Q792 -1403 823 -1423Q859 -1447 891 -1447Q954 -1447 988 -1379Q1014 -1328 1014 -1265V-835ZM1866 -682L1825 -1304H1678Q1671 -1185 1640 -796Q1639 -783 1624 -783L1198 -819Q1014 -819 687 -758Q681 -758 613 -783.5Q545 -809 539 -809Q533 -809 472.5 -799Q412 -789 406 -789Q400 -789 376.5 -796.5Q353 -804 347 -804Q335 -804 335 -785Q378 -763 432 -763Q439 -763 473 -765.5Q507 -768 513 -768Q543 -768 544 -767Q552 -741 560 -716Q482 -686 421 -686Q314 -686 185 -764Q144 -789 143 -789Q136 -789 132 -786Q128 -783 126 -783V-760Q151 -710 255 -666Q351 -625 421 -625Q502 -625 590 -653Q627 -668 665 -682ZM1478 -454Q1450 -530 1372 -579Q1307 -620 1251 -620Q1164 -620 1108 -548Q1086 -513 1037 -467L1029 -476L1022 -661Q1013 -652 1018 -471H992Q889 -615 776 -615Q708 -615 652 -573Q588 -526 573 -447Q570 -447 594 -453Q661 -533 676 -545Q712 -574 771 -574Q856 -574 928 -509Q1004 -441 1004 -352Q1004 -336 997 -266Q995 -262 986 -252H976Q961 -305 895 -352.5Q829 -400 774 -400Q636 -400 573 -233Q583 -240 659 -318Q705 -365 771 -365Q821 -365 891 -315Q965 -262 976 -208Q993 -126 993 -12Q993 -6 991 13Q989 32 989 38H1044Q1038 -62 1038 -83Q1038 -292 1196 -351Q1247 -370 1267 -370Q1314 -370 1363 -327Q1418 -277 1472 -227V-256Q1414 -342 1367 -373Q1326 -400 1267 -400Q1186 -400 1148 -373Q1127 -358 1085 -303Q1046 -252 1044 -252Q1038 -252 1034 -256V-383Q1034 -448 1116 -518.5Q1198 -589 1267 -589Q1324 -589 1371 -545Q1418 -490 1466 -436Q1469 -439 1472 -445Q1475 -451 1478 -454ZM1274 273V255Q1257 169 1173 113Q1098 64 1021 64Q932 64 852 114Q756 173 739 273Z"/>
</svg>