<svg xmlns="http://www.w3.org/2000/svg" viewBox="0 -2048 2048 2048">
	<path fill="currentColor" d="M1948 432H100V406H289V259H100V233H289V87H100V61H993V-165Q993 -225 939 -288Q885 -351 826 -351Q757 -351 685 -281Q685 -272 691 -256Q697 -240 697 -232Q697 -209 683.5 -164.5Q670 -120 670 -98Q670 -87 676.5 -65.5Q683 -44 683 -33Q683 -5 648 -5Q634 -5 579 -46Q546 -22 452 10Q430 -23 430 -84Q430 -103 433 -134Q413 -149 393 -165Q369 -185 369 -206Q369 -219 375 -228Q413 -230 487 -255Q513 -275 539 -294Q573 -320 595 -320Q599 -320 607 -317.5Q615 -315 620 -315Q620 -315 684 -363.5Q748 -412 816 -412Q918 -412 993 -325V-1151Q993 -1213 946 -1254.5Q899 -1296 836 -1296Q759 -1296 673 -1211Q675 -1206 687 -1186.5Q699 -1167 699 -1161Q699 -1147 684 -1098Q669 -1049 669 -1025Q669 -1014 676.5 -992Q684 -970 683 -956Q653 -940 651 -940Q618 -940 574 -996Q528 -953 452 -935Q431 -953 431 -989Q431 -1004 438.5 -1033.5Q446 -1063 445 -1079Q433 -1083 410 -1094Q390 -1109 369 -1151Q379 -1162 397 -1166.5Q415 -1171 430.5 -1176Q446 -1181 507 -1224Q565 -1265 569 -1265Q577 -1265 593.5 -1257.5Q610 -1250 618 -1250Q610 -1250 690.5 -1301Q771 -1352 831 -1352Q922 -1352 989 -1298Q1060 -1240 1060 -1151V-320Q1088 -352 1148.5 -384.5Q1209 -417 1248 -417Q1308 -417 1373.5 -374Q1439 -331 1433 -331Q1438 -331 1443 -333.5Q1448 -336 1453 -336Q1468 -336 1531 -297.5Q1594 -259 1631 -259Q1654 -259 1663 -264Q1664 -254 1674 -253Q1659 -211 1654 -203Q1641 -180 1613 -169Q1628 -125 1628 -43Q1622 -36 1608 -36Q1581 -36 1485 -72Q1460 -26 1420 -26Q1414 -26 1402 -29Q1390 -32 1385 -32Q1380 -53 1380 -46Q1380 -53 1390 -72.5Q1400 -92 1400 -99Q1400 -109 1374.5 -170.5Q1349 -232 1349 -242Q1349 -249 1375 -287Q1330 -346 1250 -346Q1204 -346 1134 -297Q1060 -245 1060 -202V61H1948V87H1759V233H1948V259H1759V406H1948ZM709 -1279Q619 -1225 623 -1225Q615 -1225 598.5 -1232.5Q582 -1240 574 -1240Q570 -1240 502 -1193Q434 -1146 405 -1142Q408 -1127 431 -1114Q451 -1103 468 -1103Q500 -1103 534.5 -1118Q569 -1133 569 -1133Q588 -1133 588 -1104Q588 -1095 585.5 -1076.5Q583 -1058 583 -1049Q583 -1027 607.5 -999.5Q632 -972 654 -972H658Q642 -998 642 -1025Q642 -1048 656.5 -1100Q671 -1152 673 -1178Q658 -1189 643 -1211Q680 -1257 709 -1279ZM1608 -62V-79Q1608 -120 1591 -163Q1580 -158 1565 -158Q1549 -158 1487 -183Q1493 -148 1492 -93Q1572 -62 1576 -62ZM1643 -233Q1603 -233 1534.5 -271.5Q1466 -310 1458 -310Q1452 -310 1445 -305Q1438 -300 1433 -300Q1434 -300 1376.5 -346Q1319 -392 1258 -392Q1146 -392 1042 -275L1034 -283V-1161Q1034 -1229 967 -1279Q904 -1326 834 -1326Q803 -1326 780 -1318Q789 -1318 807 -1319.5Q825 -1321 834 -1321Q851 -1321 885 -1309Q1019 -1262 1019 -1161V-283L1002 -270Q939 -392 818 -392Q764 -392 688 -338.5Q612 -285 620 -285Q615 -285 606 -290Q597 -295 592 -295Q572 -295 540 -267Q501 -234 492 -230Q452 -212 394 -202Q427 -153 475 -153Q537 -153 579 -193L597 -180Q591 -152 591 -117Q591 -31 636 -31H658Q645 -62 645 -86Q645 -105 659 -146.5Q673 -188 673 -216Q673 -226 663 -246.5Q653 -267 653 -277Q653 -293 699 -327Q741 -356 763 -364Q798 -376 828 -376Q893 -376 956 -305.5Q1019 -235 1019 -169V61H1034V-202Q1034 -253 1112 -313Q1186 -371 1240 -371Q1279 -371 1337 -348Q1405 -321 1405 -290Q1405 -294 1375 -244L1425 -99Q1421 -83 1410 -52H1439Q1470 -76 1470 -113Q1470 -126 1464.5 -152Q1459 -178 1459 -191Q1459 -213 1474 -224Q1566 -178 1568 -178Q1584 -178 1613 -198Q1642 -218 1643 -233ZM567 -1018Q561 -1048 561 -1102Q533 -1095 476 -1080Q455 -1021 455 -991Q455 -973 462 -961Q517 -984 567 -1018ZM1733 233V87H1398V233ZM1733 406V259H1398V406ZM1372 233V87H1037V233ZM1372 406V259H1037V406ZM1011 233V87H676V233ZM571 -68V-157Q523 -136 456 -127Q456 -120 453 -105Q450 -90 450 -82Q450 -61 461 -21H478Q501 -21 571 -68ZM1011 406V259H676V406ZM650 233V87H315V233ZM650 406V259H315V406Z"/>
</svg>