<svg xmlns="http://www.w3.org/2000/svg" viewBox="0 -2048 2048 2048">
	<path fill="#000000" d="M1342 -1078Q1342 -1066 1333 -1028Q1323 -984 1313 -972Q1297 -952 1248 -937Q1247 -936 1242.5 -935.5Q1238 -935 1235 -932Q1263 -922 1280 -881Q1294 -849 1294 -822Q1294 -782 1259.5 -745.5Q1225 -709 1177 -701Q1214 -662 1214 -614Q1214 -583 1185 -540Q1153 -493 1121 -487Q1116 -486 1078 -486Q1075 -487 1065 -482Q1075 -462 1075 -440Q1075 -402 1036 -353Q997 -304 963 -304Q945 -304 861 -331Q849 -284 833 -258Q825 -246 795 -233Q771 -224 771 -201L830 301Q830 321 792 338Q761 351 745 351Q721 351 693 336Q659 319 659 295L713 -215Q673 -218 636 -258Q601 -295 597 -331Q539 -294 516 -294Q490 -294 453 -314Q416 -334 405 -359Q384 -405 400 -472Q410 -475 398 -475Q391 -475 387.5 -472.5Q384 -470 377 -470Q323 -470 283.5 -511Q244 -552 244 -600Q244 -667 276 -680Q229 -690 188.5 -728.5Q148 -767 148 -806Q148 -825 166 -862Q184 -899 201 -914Q165 -923 132 -968Q100 -1010 100 -1040Q100 -1090 134.5 -1129Q169 -1168 214 -1168Q300 -1168 335 -1100Q335 -1118 337 -1155Q339 -1172 352 -1189H381Q478 -911 606 -768Q606 -768 606 -800Q606 -827 623 -869Q643 -916 665 -921Q565 -970 523 -1036Q489 -1090 474 -1127Q425 -1250 425 -1283Q425 -1328 462 -1328Q480 -1328 487 -1316Q495 -1298 533 -1172Q560 -1083 599 -1035Q601 -1033 606 -1038Q597 -1057 597 -1076Q597 -1103 617.5 -1137.5Q638 -1172 638 -1179Q638 -1185 626.5 -1210.5Q615 -1236 613 -1245Q595 -1333 595 -1403Q595 -1488 618 -1504H643Q653 -1492 657 -1486Q657 -1461 655 -1420Q653 -1375 653 -1357Q653 -1265 695 -1200Q706 -1203 762 -1215Q776 -1265 796 -1369Q798 -1386 792 -1421Q786 -1461 786 -1476Q786 -1499 794 -1515H812Q831 -1507 839 -1487Q857 -1445 857 -1398Q857 -1320 809 -1188Q843 -1166 853 -1125Q856 -1114 860 -1056Q893 -1101 916 -1207.5Q939 -1314 961 -1344Q970 -1341 988 -1330Q995 -1300 995 -1294Q995 -1197 940 -1079Q877 -945 793 -920Q851 -882 851 -813Q851 -784 840 -757Q917 -803 967 -948Q979 -976 999 -1038Q1006 -1066 1020 -1118Q1044 -1211 1073 -1211Q1101 -1211 1103 -1169Q1104 -1140 1105 -1110Q1122 -1134 1158.5 -1159Q1195 -1184 1222 -1184Q1273 -1184 1307.5 -1155.5Q1342 -1127 1342 -1078ZM1315 -1064Q1315 -1158 1225 -1158Q1201 -1158 1163 -1130Q1118 -1098 1118 -1062Q1118 -1027 1144 -994Q1174 -955 1222 -955Q1262 -955 1288.5 -986Q1315 -1017 1315 -1064ZM829 -1353L820 -1477L809 -1471Q828 -1305 791 -1207Q801 -1218 816 -1281Q830 -1341 829 -1353ZM1267 -822Q1267 -862 1239 -895Q1207 -934 1155 -934Q1122 -934 1094 -889Q1070 -850 1070 -824Q1070 -787 1100 -759Q1130 -731 1169 -731Q1204 -731 1235.5 -756.5Q1267 -782 1267 -822ZM655 -1204Q631 -1333 634 -1471L623 -1477V-1353Q623 -1340 635 -1281Q648 -1217 655 -1204ZM968 -1250V-1312L956 -1301Q956 -1232 915 -1118Q854 -950 753 -950Q737 -950 734 -953V-967Q835 -990 835 -1083Q835 -1126 817 -1151Q793 -1184 774 -1184Q777 -1184 730 -1180Q691 -1176 672 -1179Q651 -1151 624 -1102Q622 -1095 622 -1075Q622 -1027 650 -1005Q679 -990 723 -958Q722 -954 715 -944H700Q588 -994 553 -1065Q520 -1158 487 -1252Q468 -1301 455 -1301Q452 -1300 452 -1294Q452 -1259 493 -1154Q528 -1063 539 -1047Q560 -1015 616 -978Q675 -938 719 -930V-911Q702 -908 671 -894Q658 -884 642.5 -858.5Q627 -833 627 -824Q627 -783 651 -754Q678 -720 723 -720Q762 -720 794 -742Q830 -766 830 -803Q830 -834 801.5 -868Q773 -902 743 -908Q738 -912 734 -915V-930Q784 -943 807 -955Q846 -975 876 -1015Q903 -1051 935.5 -1133Q968 -1215 968 -1250ZM1145 -957Q1122 -968 1104 -1003Q1087 -1035 1089 -1056Q1014 -878 979 -821Q895 -682 793 -659Q817 -646 837 -614.5Q857 -583 857 -560Q857 -499 787 -446Q815 -432 824 -433Q823 -467 866 -511Q909 -555 939 -555Q945 -555 956 -553Q967 -551 979 -551Q962 -571 962 -599Q962 -645 1000 -689.5Q1038 -734 1080 -738Q1049 -779 1049 -822Q1049 -862 1072 -902Q1101 -952 1145 -957ZM1187 -614Q1187 -644 1164 -677Q1138 -715 1102 -715Q1066 -715 1030 -687Q990 -656 990 -614Q990 -543 1078 -507L1092 -518Q1104 -512 1110 -512Q1136 -512 1161.5 -550Q1187 -588 1187 -614ZM1081 -1150Q1081 -1168 1073 -1184Q1047 -1103 1021 -1022Q974 -881 918 -804Q838 -694 734 -694Q604 -694 502 -858Q444 -952 369 -1163L361 -1112Q449 -904 482 -851Q576 -696 703 -668V-655Q650 -619 648 -617Q627 -597 627 -568Q627 -523 656 -491Q685 -459 731 -459Q764 -459 797 -490Q830 -521 830 -558Q830 -604 791 -627Q774 -635 756.5 -644Q739 -653 739 -668Q755 -674 780 -681Q914 -703 1052 -1026Q1081 -1094 1081 -1150ZM1049 -446Q1049 -478 1015.5 -503Q982 -528 950 -528Q916 -528 881 -491Q846 -454 846 -419Q846 -382 880 -356Q911 -331 953 -331Q986 -331 1019 -377Q1049 -418 1049 -446ZM659 -659Q503 -702 341 -1092V-1076Q341 -1072 344.5 -1059Q348 -1046 348 -1036Q348 -1006 322 -970Q313 -958 303 -940Q338 -948 373 -892Q404 -843 404 -808Q404 -779 378 -721Q385 -723 392 -723Q426 -723 462 -669Q494 -621 494 -592Q494 -567 473 -535Q518 -550 524 -550Q555 -550 616 -505Q603 -542 603 -571Q603 -633 659 -659ZM324 -1043Q324 -1081 290 -1114Q256 -1147 212 -1147Q178 -1147 151 -1107Q126 -1071 126 -1040Q126 -1021 152 -983Q183 -939 212 -939Q251 -939 274 -951Q292 -961 309 -997Q324 -1029 324 -1043ZM669 -453Q656 -453 645 -464V-422Q669 -446 669 -453ZM377 -806Q377 -845 350 -882Q320 -923 278 -923Q243 -923 208.5 -879.5Q174 -836 174 -806Q174 -770 211 -737Q248 -704 284 -704Q321 -704 349 -736Q377 -768 377 -806ZM835 -339Q835 -380 802.5 -409Q770 -438 731 -438Q695 -438 661 -400Q627 -362 627 -326Q627 -295 665.5 -265Q704 -235 737 -235Q764 -235 816 -273Q835 -287 835 -339ZM468 -595Q468 -635 439 -667Q410 -699 364 -699Q321 -699 293 -659Q270 -627 270 -595Q270 -549 311 -520Q345 -496 385 -496Q416 -496 443 -533Q468 -566 468 -595ZM622 -443Q622 -464 584 -496Q546 -528 524 -528Q502 -528 453 -499Q439 -491 426.5 -461Q414 -431 414 -411Q414 -370 451 -343Q482 -320 518 -320Q556 -320 589 -359Q622 -398 622 -443ZM803 287L742 -230L686 290Q686 319 745 319Q803 319 803 287Z"/>
</svg>