<svg xmlns="http://www.w3.org/2000/svg" viewBox="0 -2048 2048 2048">
	<path fill="currentColor" d="M2213 -277Q2210 -265 2164 -243Q2123 -224 2104 -221L1783 -800Q1770 -796 1755 -797Q1742 -727 1695 -592Q1654 -514 1541 -380Q1169 64 774 209Q656 253 473 288Q409 303 346 318Q270 336 217 336Q201 336 124 325Q100 298 100 273Q100 255 104 245Q174 210 246 142Q368 27 572 -273Q595 -307 622 -372Q693 -543 717 -692Q736 -812 736 -1018H762V-1278Q712 -1329 712 -1406Q712 -1431 735 -1471.5Q758 -1512 780 -1521Q799 -1529 825 -1529Q835 -1529 851 -1527Q914 -1474 914 -1418Q914 -1351 886 -1314Q881 -1308 855 -1285V-1018H1060V-1288Q1049 -1295 1031 -1314Q1011 -1344 1011 -1406Q1011 -1437 1029.5 -1473.5Q1048 -1510 1074 -1521Q1092 -1529 1134 -1529Q1163 -1529 1187 -1487Q1209 -1449 1209 -1418Q1209 -1325 1149 -1284V-1018H1355V-1288Q1344 -1295 1326 -1314Q1305 -1345 1305 -1404Q1305 -1443 1338 -1486Q1371 -1529 1409 -1529Q1415 -1529 1426 -1529Q1438 -1528 1443 -1528Q1457 -1516 1483 -1488Q1507 -1455 1507 -1418Q1507 -1330 1444 -1284V-1018H1653V-1288Q1642 -1297 1624 -1318Q1607 -1347 1607 -1411Q1607 -1461 1641.5 -1495Q1676 -1529 1727 -1529Q1752 -1529 1778 -1484Q1802 -1444 1802 -1416Q1802 -1339 1777 -1311Q1769 -1302 1747 -1288V-1018Q1795 -1148 1925 -1148Q2019 -1148 2043 -1080Q2060 -1032 2060 -997Q2060 -970 2033 -918.5Q2006 -867 1984 -851Q1964 -842 1925 -821L2163 -541Q2137 -522 2084 -483ZM1776 -1414Q1776 -1445 1757 -1473.5Q1738 -1502 1709 -1502Q1687 -1502 1673 -1493.5Q1659 -1485 1644.5 -1456.5Q1630 -1428 1630 -1409Q1630 -1341 1683 -1294V-1018H1716V-1295Q1733 -1305 1761 -1334Q1776 -1361 1776 -1414ZM1954 -1014Q1954 -1052 1910 -1052Q1882 -1052 1860.5 -1033Q1839 -1014 1839 -987Q1839 -966 1862 -919H1876Q1884 -919 1904.5 -933.5Q1925 -948 1930 -956Q1935 -968 1945 -993Q1954 -1012 1954 -1014ZM2130 -546L1889 -816Q1888 -812 1882 -812L2075 -509Q2094 -521 2130 -546ZM1481 -1414Q1481 -1440 1463 -1469Q1443 -1502 1419 -1502Q1391 -1502 1379 -1494Q1364 -1484 1348 -1453.5Q1332 -1423 1332 -1404Q1332 -1354 1349 -1327Q1351 -1324 1368 -1308.5Q1385 -1293 1385 -1291V-1018H1418V-1298Q1433 -1307 1459 -1330Q1463 -1335 1472 -1370.5Q1481 -1406 1481 -1414ZM2180 -289L1849 -807Q1838 -805 1815 -799L2121 -250Q2150 -262 2180 -289ZM1183 -1416Q1183 -1447 1164 -1474.5Q1145 -1502 1115 -1502Q1083 -1502 1060 -1472Q1037 -1442 1037 -1409Q1037 -1356 1055 -1328Q1057 -1325 1073.5 -1309Q1090 -1293 1090 -1291V-1018H1123V-1298Q1154 -1320 1155 -1321Q1171 -1335 1175 -1355Q1183 -1392 1183 -1416ZM2034 -1002Q2034 -1015 2022.5 -1053Q2011 -1091 2003 -1097Q1972 -1122 1942 -1122Q1773 -1122 1773 -942V-913H1835Q1812 -973 1812 -1000Q1812 -1023 1840.5 -1052.5Q1869 -1082 1892 -1082Q1981 -1082 1981 -1010Q1981 -973 1938 -926Q1901 -886 1817 -886H762L759 -819H1740Q1834 -819 1910 -844Q1975 -865 2003 -917Q2034 -974 2034 -1002ZM1747 -992H766L764 -912H1744Q1744 -964 1747 -992ZM888 -1414Q888 -1435 870 -1467Q851 -1503 832 -1503Q800 -1503 785 -1493Q770 -1483 754.5 -1453.5Q739 -1424 739 -1404Q739 -1327 789 -1298V-1018H828V-1298Q843 -1307 867 -1331Q888 -1364 888 -1414ZM1726 -793H759Q751 -731 734 -630Q722 -558 676.5 -439.5Q631 -321 592 -256Q556 -196 423 -14Q316 133 200 220Q184 232 131 261Q130 266 130 276Q130 291 137 302Q201 313 222 313Q247 313 368 286Q560 243 624 226Q768 189 874 143Q1069 59 1316 -175Q1556 -402 1671 -602Q1687 -630 1706 -695.5Q1725 -761 1726 -793Z"/>
</svg>