<svg xmlns="http://www.w3.org/2000/svg" viewBox="0 -2048 2048 2048">
	<path fill="currentColor" d="M2087 -15Q2087 2 2074 21Q2059 43 2042 43Q2012 43 1981 -1Q1959 -34 1938 -68Q1930 -78 1914 -92Q1817 -178 1646 -178Q1601 -178 1593 -169V68H1502V-142H1411V68H1324V-142H1233V68H1150V-140H1065V67H977V-140H892V68H799V-142H718V68H631V-142H540V68H457V-140H372V68H279V-142H188V67H100V-329H1593V-266Q1647 -262 1754 -254Q1847 -247 1963 -171Q2087 -90 2087 -15ZM2061 -17Q2061 -73 1955 -150Q1849 -227 1780 -228Q1741 -229 1662 -235Q1592 -241 1566 -240V-303H124V42H162V-166H308V42H346V-166H481V42H519V-166H659V42H697V-168H820V42H865V-166H1001V42H1039V-166H1174V42H1212V-166H1352V42H1390V-166H1531V42H1576Q1571 -194 1576 -199Q1584 -199 1600.5 -201.5Q1617 -204 1622 -204Q1686 -204 1776 -180Q1870 -155 1909.5 -123.5Q1949 -92 2030 16H2049Q2061 -8 2061 -17Z"/>
</svg>