<svg xmlns="http://www.w3.org/2000/svg" viewBox="0 -2048 2048 2048">
	<path fill="#000000" d="M1429 -830Q1429 -818 1413 -802H963L954 -794Q961 -782 983 -773Q1384 -616 1384 -592Q1384 -578 1356 -564L937 -731Q925 -712 892 -677Q873 -668 833 -643Q876 -618 899 -556Q918 -504 914 -463L843 -38Q857 18 884 130Q890 157 928 190Q953 211 978 232Q989 239 989 252Q989 264 963 290H576L560 267Q563 258 576 240Q682 156 701 -38L620 -478Q635 -539 645 -560Q665 -607 706 -637Q677 -656 649 -674Q606 -703 592 -731L189 -565H161Q161 -565 158.5 -576.5Q156 -588 156 -603L565 -780Q560 -785 560 -797H127Q100 -807 100 -832Q100 -841 116 -857H561Q563 -861 570 -870Q571 -873 566 -876Q448 -924 330 -972Q192 -1029 150 -1067Q163 -1096 179 -1095L592 -928Q595 -931 596 -934.5Q597 -938 600 -941L282 -1261Q285 -1285 315 -1302L639 -989H652L661 -997L489 -1406Q508 -1437 528 -1433L715 -1019Q723 -1019 727 -1023V-1456Q727 -1484 754 -1484Q771 -1484 787 -1468V-1018Q802 -1018 806 -1014Q807 -1014 816 -1028Q832 -1074 892 -1220Q918 -1286 944 -1353Q981 -1444 997 -1444Q1017 -1444 1030 -1421L858 -1002Q871 -989 875 -989L1206 -1307Q1227 -1299 1237 -1279L919 -941Q927 -933 931 -933L1349 -1100Q1359 -1094 1379 -1078Q1379 -1065 1367 -1056Q1229 -995 954 -874Q954 -866 958 -862H1413Q1429 -847 1429 -830ZM1404 -831L948 -837Q929 -865 923 -884L1334 -1067L917 -903Q908 -917 893 -948L1206 -1281L876 -959Q859 -969 833 -992L993 -1397Q964 -1340 884 -1141Q824 -989 810 -989Q810 -989 761 -1003L755 -1454L753 -1003Q705 -989 711 -989Q700 -989 619 -1167Q551 -1315 522 -1388L686 -982Q672 -975 641 -958L308 -1271L630 -936Q620 -921 597 -898L181 -1068Q336 -1001 586 -891Q600 -882 600 -876Q591 -863 581 -831H125Q138 -817 140 -817H591V-765L192 -593L602 -756Q616 -735 641 -703Q658 -688 695 -671Q729 -655 739 -655Q780 -655 811 -662Q849 -671 876 -698Q895 -724 934 -761L1351 -589L1358 -597L936 -775Q939 -792 947 -827ZM964 252Q884 210 854 119Q839 39 823 -41L893 -468Q890 -527 862 -574Q828 -630 772 -630Q725 -630 707 -612Q677 -582 652 -502Q652 -491 651 -468L727 -43Q711 34 695 111Q665 209 590 264H958Q958 260 964 252ZM919 -830Q919 -762 873 -718.5Q827 -675 764 -675Q701 -675 653 -726Q605 -777 605 -832Q605 -869 632 -917Q642 -934 662 -946Q727 -984 749 -984Q794 -984 842 -956Q919 -911 919 -830ZM893 -830Q893 -875 857 -915Q817 -959 762 -959Q716 -959 672 -922Q625 -883 625 -835Q625 -784 667 -742.5Q709 -701 764 -701Q821 -701 857 -736Q893 -771 893 -830Z"/>
</svg>