<svg xmlns="http://www.w3.org/2000/svg" viewBox="0 -2048 2048 2048">
	<path fill="currentColor" d="M845 -819Q845 -779 821 -757Q807 -744 761 -721L838 -461Q811 -453 756 -440V344H100V259H272V123H100V35H272V-103H103Q105 -120 105 -143Q105 -166 103 -194H272V-336H105V-418H272V-561H108Q110 -570 110 -584Q110 -589 108 -647H263Q272 -676 276 -743Q280 -805 293 -838Q244 -863 130 -904Q148 -953 167 -984Q253 -950 325 -928Q340 -955 374 -1007Q332 -1049 242 -1129Q260 -1150 295 -1193Q330 -1164 364 -1134Q421 -1086 428 -1086Q434 -1086 467 -1114Q487 -1132 507 -1150L431 -1303Q462 -1334 505 -1351Q521 -1315 577 -1203Q597 -1210 671 -1248V-1432H756V-912Q845 -889 845 -819ZM782 -821Q782 -848 758 -848V-797Q782 -802 782 -821ZM730 -797V-1412Q717 -1409 691 -1406V-1228Q665 -1218 566 -1168Q518 -1264 484 -1315Q473 -1305 461 -1304L538 -1145L428 -1051L301 -1163Q279 -1141 278 -1129L405 -1012Q360 -940 330 -898L177 -954Q172 -941 161 -915Q223 -898 324 -854Q309 -824 309 -797ZM825 -819Q825 -845 786 -882H757Q807 -846 807 -819Q807 -809 797.5 -792Q788 -775 779 -775H304V-750H766Q789 -750 807 -772.5Q825 -795 825 -819ZM807 -476Q779 -579 758 -653V-460Q778 -468 807 -476ZM730 319V-729H294V-622H131V-588H298V-398H131V-356H299V-169Q297 -171 288 -171Q261 -171 207 -170Q153 -169 126 -169Q126 -162 128.5 -148Q131 -134 131 -128H298V56H126V102H298V285H121V319Z"/>
</svg>