<svg xmlns="http://www.w3.org/2000/svg" viewBox="30.1 -1534.9 1766.8 1886.8">
	<path fill="currentColor" d="M1727 -189Q1727 -172 1690 -110Q1661 -61 1651 -48Q1442 215 1091 266Q981 282 864 282Q439 282 173 -28Q100 -113 100 -177Q100 -183 105 -204Q110 -225 110 -230V-1465H1727ZM1702 -223V-1445H1199V-225H1393V-311Q1359 -322 1337 -363Q1318 -397 1318 -424Q1318 -531 1411 -677H1430Q1451 -659 1479.5 -563Q1508 -467 1508 -419Q1508 -357 1454 -316V-223ZM1488 -422Q1488 -462 1441 -605Q1439 -611 1421 -647Q1394 -610 1368.5 -537.5Q1343 -465 1343 -427Q1343 -364 1381.5 -347Q1420 -330 1420 -282Q1420 -259 1414 -223L1424 -228Q1426 -261 1429 -323Q1488 -373 1488 -422ZM1173 -223V-1445H680V-225H893V-316Q863 -316 839 -363Q819 -403 819 -437Q819 -422 825 -484Q828 -516 860 -593Q895 -677 914 -677Q958 -677 1005 -469Q1006 -463 1012.5 -449Q1019 -435 1019 -429Q1019 -415 997 -355Q988 -329 959 -321V-223ZM994 -424Q994 -466 962 -551Q933 -630 916 -647Q894 -594 871 -542Q844 -473 844 -434Q844 -369 912 -328Q913 -297 914 -267Q916 -230 927 -222Q932 -260 935 -333L963 -349Q972 -354 983 -381.5Q994 -409 994 -424ZM653 -223V-1445H135V-223H374V-310Q325 -366 319 -376Q310 -391 310 -427Q310 -454 337 -556Q370 -682 404 -682Q434 -682 467 -554Q494 -446 494 -407Q494 -352 445 -311V-223ZM1702 -201H126V-158H1692Q1702 -178 1702 -201ZM474 -407Q474 -446 422 -615Q414 -629 402 -652Q335 -523 335 -422Q335 -395 336 -393Q363 -365 398 -319Q402 -310 400 -223H419Q419 -300 420 -328Q445 -337 457 -358Q474 -387 474 -407ZM1673 -131H130Q147 -101 180 -53Q458 257 881 257Q1431 257 1673 -131Z"/>
</svg>