<svg xmlns="http://www.w3.org/2000/svg" viewBox="0 -2048 2048 2048">
	<path fill="#000000" d="M1470 -276Q1470 -259 1458 -235H1428Q1371 -293 1309 -309Q1276 -318 1195 -318Q1071 -318 901 -214Q759 -117 617 -20Q459 84 364 84Q250 84 173 0Q100 -79 100 -183Q100 -314 222 -419Q259 -443 321 -484Q336 -495 587 -657Q712 -737 773 -834Q823 -913 830 -959Q837 -1000 835 -1052Q835 -1062 828.5 -1088.5Q822 -1115 822 -1130Q822 -1157 839 -1176Q868 -1176 886 -1163Q1024 -1062 1024 -843Q1024 -689 941 -569Q958 -569 999.5 -575.5Q1041 -582 1046 -582Q1135 -582 1238 -533Q1345 -483 1399 -410Q1470 -314 1470 -276ZM1442 -263V-299Q1443 -317 1381 -387Q1329 -448 1315 -458Q1272 -490 1260 -497Q1181 -540 1133.5 -547Q1086 -554 1052 -554Q1046 -554 981 -545Q909 -534 876 -531V-537Q933 -582 969 -672Q1002 -756 1002 -840Q1002 -877 995 -910Q966 -1045 912 -1115Q890 -1144 872 -1143H849Q877 -1027 846 -927Q797 -770 695 -698Q540 -597 239 -398Q232 -394 190 -344Q122 -265 122 -169Q122 -123 162 -57Q206 16 260.5 39Q315 62 383 62Q449 62 676 -92Q941 -273 1017 -305Q1103 -341 1128 -345Q1127 -345 1203 -345Q1351 -345 1442 -263Z"/>
</svg>