<svg xmlns="http://www.w3.org/2000/svg" viewBox="0 -2048 2048 2048">
	<path fill="currentColor" d="M1251 -289Q1251 -183 1141 -66Q1029 54 920 54Q812 54 571 -70Q330 -194 288 -194Q280 -194 211.5 -178Q143 -162 138 -162Q127 -162 113.5 -174Q100 -186 100 -197Q100 -236 162 -332Q221 -425 248.5 -439.5Q276 -454 329 -478Q261 -678 257 -690Q227 -794 227 -891Q227 -894 228 -933Q228 -972 228 -995H299Q361 -995 549 -931Q681 -887 757 -855Q845 -1072 1019 -1072Q1092 -1072 1092 -1037Q1092 -1029 1073 -932Q1054 -835 1054 -827Q1054 -760 1096 -656Q1099 -649 1190 -471Q1251 -353 1251 -289ZM805 -408Q735 -610 735 -722Q735 -773 746 -821Q736 -837 550 -899Q360 -963 312 -963H253Q253 -963 253 -878Q253 -776 356 -493Q425 -506 482 -506Q636 -506 805 -408ZM1226 -289Q1226 -327 1168 -445Q1079 -626 1064 -663Q1028 -749 1028 -827Q1028 -852 1053 -1039Q1051 -1039 1042.5 -1042.5Q1034 -1046 1025 -1046Q902 -1046 824 -920Q761 -819 761 -719Q761 -630 805.5 -498.5Q850 -367 850 -366Q850 -356 841 -347Q798 -384 681 -430Q555 -480 485 -480Q344 -480 235 -388Q218 -373 178 -312Q132 -241 132 -213Q132 -202 140 -194Q228 -219 284 -219Q360 -219 591 -95Q822 29 927 29Q1017 29 1123 -87Q1226 -201 1226 -289Z"/>
</svg>