<svg xmlns="http://www.w3.org/2000/svg" viewBox="0 0 869 1000">
  <g transform="scale(1,-1) translate(0,-1000)">
    <path d="M151 125H264L273 171H141ZM216 253H203Q199 254 188 254Q163 254 163 270V271Q163 282 183 284Q199 285 235 295Q219 306 205 323Q192 338 182.0 362.0Q172 386 167 394Q164 398 164 407Q164 418 168.5 428.0Q173 438 180.0 438.0Q187 438 203 406Q222 369 233.5 354.5Q245 340 269 322Q271 320 277.0 316.0Q283 312 286 309Q376 332 418 362L417 365Q397 369 375.0 369.5Q353 370 341.5 371.5Q330 373 324 379Q320 383 320 389Q320 404 346 404H349Q389 406 394 406Q382 424 363.0 439.0Q344 454 332.5 463.5Q321 473 321 482V485Q321 489 325.5 534.0Q330 579 338.0 644.5Q346 710 354 748Q366 814 378.5 853.5Q391 893 420 956Q426 968 432.0 975.5Q438 983 453.0 989.5Q468 996 491 996Q536 996 553 958Q603 842 621 739Q628 701 635.5 638.0Q643 575 647.0 532.0Q651 489 651 486V484Q651 472 624 452Q602 436 592.5 425.0Q583 414 567 388Q577 385 595 379Q668 352 714 352Q724 352 748.5 353.5Q773 355 790 355Q799 355 806.0 348.5Q813 342 813.0 333.0Q813 324 806.0 317.0Q799 310 790 310Q775 310 751.0 308.0Q727 306 714 306Q676 306 644 315Q622 304 577 280Q571 277 561 277Q544 277 538 286Q537 236 532 231H849Q857 231 863.0 225.0Q869 219 869.0 211.0Q869 203 863.0 197.0Q857 191 849 191H495V20Q495 12 489.0 6.0Q483 0 475.0 0.0Q467 0 461.0 6.0Q455 12 455 20V80Q391 139 335 191H305Q306 189 306 186Q306 184 291 107Q289 95 276 95H138Q126 95 124 107Q112 166 108 184V186Q108 190 109 192Q61 196 30.5 222.0Q0 248 0 315Q0 340 5.0 368.0Q10 396 29.5 425.0Q49 454 80 454Q109 454 130.0 435.5Q151 417 151 381Q151 357 141.5 328.5Q132 300 132 286Q132 231 169 231H444Q437 235 435.5 248.0Q434 261 434.0 283.0Q434 305 432 318L400 303Q358 284 311.5 271.5Q265 259 243.5 256.0Q222 253 216 253ZM91 287Q91 308 101.0 335.0Q111 362 111 380Q111 414 80 414Q63 414 51.5 382.5Q40 351 40 317Q40 269 57.5 252.0Q75 235 104 232Q91 258 91 287ZM364 492Q399 464 412.0 450.0Q425 436 442 407H447Q491 407 525 399Q544 437 568 461Q571 464 608 493Q586 705 572.5 773.0Q559 841 514 940Q510 949 506.5 951.5Q503 954 492 954Q469 954 464 949Q461 946 450.0 922.5Q439 899 421.5 848.0Q404 797 395 743Q392 743 364 492ZM471 337Q476 314 477 267H495Q496 321 507 357Q483 343 471 337ZM584 334Q563 342 548 346Q539 325 538 299Q545 310 559 315ZM455 121V191H379Q400 171 425.5 148.0Q451 125 455 121Z" fill="currentColor"/>
  </g>
</svg>