<svg xmlns="http://www.w3.org/2000/svg" viewBox="0 -2048 2048 2048">
	<path fill="#000000" d="M2052 -906Q2052 -856 2009.5 -816Q1967 -776 1924 -776Q1918 -776 1902 -781Q1886 -786 1879 -786Q1871 -786 1828 -715Q1852 -699 1900 -652Q1924 -620 1924 -571Q1924 -526 1898 -488Q1867 -443 1815 -437Q1783 -435 1750 -433Q1704 -428 1684 -413Q1616 -360 1461 -159Q1328 14 1231 58Q1148 96 1113 96H1057Q976 96 925 63Q854 17 712 -144Q646 -216 538 -346Q439 -478 376 -478Q370 -478 359.5 -475.5Q349 -473 342 -473Q304 -473 263 -504Q217 -538 217 -579Q217 -684 318 -731Q265 -824 254 -824Q248 -824 237 -821Q226 -818 219 -818Q169 -818 133 -861Q100 -899 100 -941Q100 -1005 157 -1040Q200 -1068 249 -1068Q290 -1068 323 -1015Q350 -972 350 -941Q350 -857 286 -831L337 -744Q374 -757 447.5 -783Q521 -809 558 -822Q550 -849 535 -904Q387 -941 387 -1039Q387 -1094 431 -1131Q470 -1164 517 -1164Q568 -1164 605 -1115Q637 -1072 637 -1031Q637 -1005 615 -966Q590 -922 562 -916Q568 -888 578 -828Q574 -828 786 -860Q786 -873 783.5 -904Q781 -935 781 -952Q739 -951 695 -988Q648 -1026 648 -1068Q648 -1112 676 -1157Q688 -1176 720 -1192Q749 -1207 767 -1207Q807 -1207 852.5 -1167.5Q898 -1128 898 -1087Q898 -1056 874 -1016Q845 -967 801 -959Q806 -942 811 -888Q812 -866 836 -866Q841 -866 878 -871Q915 -876 922 -876H1074V-957Q1035 -958 993 -1003.5Q951 -1049 951 -1092Q951 -1135 986 -1173.5Q1021 -1212 1065 -1212Q1128 -1212 1167 -1174Q1206 -1136 1206 -1079Q1206 -1037 1168.5 -1001.5Q1131 -966 1094 -963V-887Q1203 -871 1326 -855H1340Q1345 -882 1355 -937Q1254 -983 1254 -1060Q1254 -1104 1293.5 -1144.5Q1333 -1185 1379 -1185Q1400 -1185 1439.5 -1165Q1479 -1145 1491 -1125Q1509 -1093 1509 -1052Q1509 -994 1444 -953Q1429 -944 1382 -931Q1374 -906 1365 -860Q1479 -822 1559 -802Q1567 -809 1594 -890Q1514 -930 1514 -1004Q1514 -1053 1552 -1092.5Q1590 -1132 1631 -1132Q1675 -1132 1718 -1096Q1764 -1057 1764 -1010Q1764 -979 1747 -945Q1728 -906 1699 -894Q1678 -886 1625 -881Q1603 -848 1594 -801Q1629 -788 1698.5 -762Q1768 -736 1803 -723Q1805 -726 1849 -799Q1791 -860 1791 -906Q1791 -955 1840 -993Q1883 -1026 1924 -1026Q1952 -1026 2002 -981.5Q2052 -937 2052 -906ZM2025 -906Q2025 -929 1982.5 -964Q1940 -999 1919 -999Q1885 -999 1853 -971Q1818 -941 1818 -903Q1818 -889 1824 -863Q1826 -854 1864.5 -825.5Q1903 -797 1919 -797Q1951 -797 1988 -831.5Q2025 -866 2025 -906ZM1738 -1010Q1738 -1046 1698 -1080Q1661 -1111 1629 -1111Q1587 -1111 1562 -1072Q1541 -1041 1541 -1007Q1541 -968 1572 -935.5Q1603 -903 1647 -903Q1681 -903 1709.5 -938Q1738 -973 1738 -1010ZM1482 -1055Q1482 -1095 1457 -1125Q1429 -1159 1384 -1159Q1347 -1159 1313.5 -1129Q1280 -1099 1280 -1066Q1280 -1028 1312 -995Q1344 -962 1387 -962Q1422 -962 1449 -985Q1482 -1011 1482 -1055ZM1179 -1082Q1179 -1132 1141 -1163Q1107 -1191 1062 -1191Q1033 -1191 1002.5 -1154Q972 -1117 972 -1090Q972 -1056 1009 -1022.5Q1046 -989 1081 -989Q1116 -989 1147.5 -1015.5Q1179 -1042 1179 -1082ZM871 -1082Q871 -1116 839 -1148Q807 -1180 765 -1180Q746 -1180 740 -1178Q718 -1170 708 -1158Q669 -1111 669 -1071Q669 -1044 707.5 -1011Q746 -978 778 -978Q822 -978 848 -1013Q871 -1043 871 -1082ZM1903 -568Q1903 -697 1550 -787Q1276 -856 1078 -856Q842 -856 623 -804Q487 -772 441 -757Q333 -721 275 -672Q243 -642 243 -584Q243 -553 270 -526Q297 -499 336 -499Q382 -499 401 -506Q567 -566 645 -582Q860 -627 1036 -627Q1212 -627 1532 -551Q1580 -540 1647 -510Q1737 -471 1758 -463Q1776 -457 1804 -457Q1841 -457 1872 -494.5Q1903 -532 1903 -568ZM616 -1031Q616 -1064 591 -1097Q562 -1137 517 -1137Q477 -1137 447 -1113Q414 -1086 414 -1042Q414 -999 442 -969Q472 -935 520 -935Q553 -935 584.5 -964Q616 -993 616 -1031ZM1716 -454Q1625 -506 1410.5 -553Q1196 -600 1057 -600Q914 -600 723.5 -567Q533 -534 430 -492Q491 -451 562 -364Q620 -291 678 -218Q824 -44 887 4Q974 70 1092 70Q1194 70 1298 -20Q1364 -77 1473 -216Q1585 -361 1636 -408Q1674 -443 1716 -454ZM323 -935Q323 -952 305 -992Q281 -1047 249 -1047Q218 -1047 177 -1021Q126 -989 126 -946Q126 -902 156.5 -873.5Q187 -845 233 -845Q323 -845 323 -935Z"/>
</svg>