<svg xmlns="http://www.w3.org/2000/svg" viewBox="24.2 -977.8 2047.7 1235.7">
	<path fill="currentColor" d="M1989 -379Q1996 -378 1880 -378Q1697 -378 1492 -471Q1466 -483 1431 -517Q1401 -547 1371 -577Q1368 -578 1364 -573Q1322 -480 1228 -480Q1114 -480 1074 -587Q935 -561 788 -462Q631 -357 524 -206Q507 -182 412 -23Q337 101 278 165Q262 182 225 182Q184 182 142 140Q100 98 100 57Q100 23 148 -93Q192 -198 204 -214Q278 -314 340 -377Q590 -632 968 -660Q1009 -663 1069 -663Q1073 -681 1085 -713Q1102 -746 1150 -770Q1192 -791 1221 -791Q1264 -791 1318.5 -758.5Q1373 -726 1377 -694Q1473 -803 1660 -851Q1680 -857 1957 -902H1974V-878Q1667 -831 1647 -826Q1464 -781 1394 -676Q1397 -673 1406 -675Q1464 -698 1600 -738Q1676 -755 1815 -774Q1937 -791 1952 -790H1974Q1974 -778 1980 -772Q1834 -753 1688 -733Q1520 -709 1409 -651H1979V-619H1394Q1425 -595 1539.5 -565.5Q1654 -536 1720 -536Q1725 -536 1757 -538.5Q1789 -541 1796 -541L1984 -515V-496Q1955 -499 1900 -505Q1855 -511 1849 -511H1708Q1646 -511 1541 -542Q1467 -565 1393 -588Q1446 -501 1622 -448Q1768 -404 1899 -404Q1901 -404 1933 -404Q1965 -403 1989 -403ZM1358 -651Q1358 -705 1311 -739Q1269 -770 1218 -770Q1167 -770 1128 -720Q1093 -674 1093 -630Q1093 -571 1132.5 -535.5Q1172 -500 1231 -500Q1283 -500 1320.5 -547Q1358 -594 1358 -651ZM1067 -608V-638H1005Q999 -638 962 -632Q922 -625 907 -624Q728 -614 542 -502Q337 -380 216 -183Q199 -156 168 -83Q126 17 126 62Q126 92 158 122Q190 152 227 152Q266 152 300 102Q328 58 356 13Q359 9 417 -84Q432 -109 529 -242Q592 -329 731 -448Q797 -504 903 -553Q994 -595 1067 -608Z"/>
</svg>