<svg xmlns="http://www.w3.org/2000/svg" viewBox="0 -2048 2048 2048">
	<path fill="currentColor" d="M2279 -146Q2279 -39 2268 -4Q2242 79 2147 79Q2051 79 2032 -28Q2027 -103 2023 -177Q2018 -199 1987 -246Q1911 -361 1749 -393Q1727 -398 1463 -417Q1380 -423 1247 -423Q1121 -423 983.5 -377Q846 -331 783 -331Q740 -331 657 -354Q601 -257 544 -160Q450 -2 419 -2Q387 -2 387 -37Q387 -64 449 -168Q589 -402 589 -400Q589 -409 566.5 -435.5Q544 -462 525 -475L154 -354H130Q117 -368 117 -381V-416L509 -566Q510 -600 509 -638Q468 -649 113 -731Q111 -736 100 -748V-792Q106 -792 130 -804L528 -717Q538 -724 578 -778Q515 -861 451 -943Q336 -1095 336 -1112Q336 -1144 364 -1144Q383 -1144 491 -1011Q565 -919 639 -827Q741 -890 837 -890L1342 -836L1694 -867Q1790 -867 1903 -842Q2037 -813 2088 -766Q2279 -588 2279 -146ZM2251 -152Q2251 -656 2024 -778Q1913 -838 1711 -838L1331 -813L829 -867Q791 -867 727 -841Q678 -820 628 -798L373 -1115L364 -1107L607 -780Q601 -762 579 -730Q554 -692 540 -689L129 -774Q135 -757 147 -748Q345 -710 528 -664Q533 -661 535 -656Q536 -639 539.5 -597.5Q543 -556 543 -550Q543 -542 539 -538L140 -392L147 -383L545 -504Q586 -463 624 -403L417 -52V-31Q451 -51 526 -182Q616 -340 656 -389Q672 -379 724 -366.5Q776 -354 800 -354Q844 -354 919 -381Q972 -401 1026 -421Q1135 -452 1238 -452L1578 -441Q1805 -408 1851 -391Q2012 -333 2050 -177Q2053 -113 2057 -49Q2074 56 2150 56Q2163 56 2198 40Q2237 22 2242 7Q2251 -18 2251 -152Z"/>
</svg>