<svg xmlns="http://www.w3.org/2000/svg" viewBox="0 -2048 2048 2048">
	<path fill="currentColor" d="M1718 -485Q1718 -448 1694 -409Q1666 -364 1629 -364Q1588 -364 1559 -418Q1535 -462 1535 -493Q1535 -500 1548 -549.5Q1561 -599 1561 -605Q1561 -616 1522 -668Q1449 -510 1290 -392Q1131 -274 969 -260Q955 -147 818 47Q885 148 1059 340L1045 353Q968 273 928 227Q852 142 805 70Q695 210 532 348L519 335Q786 61 786 41Q786 40 738 -43Q684 -136 662 -183Q655 -214 625 -263Q587 -275 516 -298Q398 -336 271 -452Q138 -574 100 -692Q106 -699 106 -704H557Q587 -898 609 -965Q653 -1094 745 -1138V-1152L645 -1443Q652 -1452 651 -1479Q653 -1479 660.5 -1482Q668 -1485 676 -1485Q677 -1485 700 -1471Q731 -1379 799 -1192L802 -1440Q799 -1468 842 -1485Q875 -1460 875 -1419Q875 -1193 873 -1197Q908 -1286 987 -1462Q993 -1474 1017 -1474Q1019 -1474 1053 -1457L922 -1140Q1072 -1023 1072 -795Q1072 -757 1068 -704L1538 -699Q1622 -682 1673 -614Q1718 -553 1718 -485ZM1692 -485Q1692 -535 1660 -586Q1622 -644 1557 -672Q1587 -632 1587 -605Q1587 -600 1574 -548.5Q1561 -497 1561 -487Q1561 -459 1578 -428Q1600 -391 1632 -391Q1661 -391 1678 -430Q1692 -459 1692 -485ZM1048 -812Q1048 -905 1014 -985Q973 -1084 891 -1122L1027 -1447Q1011 -1447 1003 -1436Q955 -1332 868 -1138Q865 -1136 857 -1129Q856 -1133 849 -1143V-1436Q838 -1447 826 -1447V-1128H806Q801 -1130 793 -1138Q754 -1246 672 -1459V-1435L771 -1136V-1123Q688 -1113 629 -952Q582 -822 582 -723Q582 -707 589 -700H1047Q1048 -692 1048 -812ZM1493 -677H132Q210 -512 393 -392Q586 -265 786 -265Q868 -265 979 -283.5Q1090 -302 1141 -324Q1226 -361 1325 -449Q1428 -540 1470 -622Q1483 -647 1493 -677ZM943 -235V-254H915Q908 -254 849 -249Q790 -244 784 -244Q696 -244 661 -254Q705 -133 805 23Q943 -201 943 -235Z"/>
</svg>