<svg xmlns="http://www.w3.org/2000/svg" viewBox="30.3 -1550.7 821.4 1882.4">
	<path fill="currentColor" d="M782 -78Q725 -35 593 46Q709 101 742 262H260V236Q260 193 305 130Q348 71 389 51L205 -68Q216 -82 242 -106L444 19V-1244Q440 -1256 432 -1278Q417 -1321 366.5 -1356Q316 -1391 274 -1391Q267 -1391 206.5 -1366.5Q146 -1342 140 -1342Q100 -1342 100 -1381Q100 -1428 177 -1458Q234 -1481 269 -1481Q361 -1481 436 -1416Q518 -1345 534 -1230Q535 -1223 541 -1207Q653 -1302 683 -1302Q703 -1302 703 -1282Q703 -1279 648 -1200Q589 -1115 574 -1079Q544 -1006 543 -941Q541 -938 546 -933Q643 -1038 673 -1038Q680 -1038 686 -1035Q692 -1032 697 -1032Q697 -1030 700 -1026Q703 -1022 703 -1015Q703 -1011 668 -971Q630 -928 619 -904.5Q608 -881 553 -696V-684Q592 -726 675 -803Q703 -789 703 -776Q703 -770 672 -715Q636 -649 624 -621Q584 -527 553 -428Q551 -425 556 -420L670 -544Q698 -530 698 -517Q698 -511 668 -465Q631 -408 619 -386Q605 -359 553 -203V-190Q671 -295 670 -295Q677 -295 683.5 -292.5Q690 -290 691 -289Q692 -288 695 -282.5Q698 -277 698 -270Q698 -266 653 -200Q602 -125 586 -92Q551 -18 552 14L745 -116Q756 -104 782 -78ZM672 -1271L521 -1177Q520 -1181 515 -1190Q513 -1310 438 -1385Q367 -1456 264 -1456Q231 -1456 186 -1438Q126 -1415 120 -1378L131 -1367H152Q153 -1367 205 -1391.5Q257 -1416 264 -1416Q335 -1416 400 -1359Q469 -1298 469 -1224V38H512Q553 -105 657 -255L526 -126Q524 -128 519.5 -130Q515 -132 513 -134Q554 -337 652 -484Q541 -360 523 -360Q516 -360 513 -363Q566 -578 667 -763Q543 -624 528 -624Q521 -624 518 -627V-642Q518 -707 571 -842Q625 -981 663 -1004L526 -883L518 -892V-956Q518 -1094 672 -1271ZM746 -86Q675 -53 577 28Q646 -14 745 -73Q747 -76 746 -86ZM410 32Q312 -49 241 -82Q240 -72 242 -69Q304 -29 410 32ZM712 242V215Q712 209 691.5 170.5Q671 132 660 121Q617 80 566 70Q529 63 489 63Q439 63 420 70Q383 83 338 126Q285 177 285 216V242Z"/>
</svg>