<svg xmlns="http://www.w3.org/2000/svg" viewBox="23.7 -1617.3 2059.6 2034.6">
	<path fill="currentColor" d="M2007 -351H1104V301Q1104 313 1078.5 327Q1053 341 1039 341Q1022 341 1009.5 330Q997 319 985 308V-349H703Q556 -291 432 -291Q247 -291 122 -417Q100 -439 100 -488Q148 -508 151 -508Q155 -508 213 -473Q276 -434 284 -430Q343 -401 440 -401Q520 -401 561 -422Q555 -440 549 -440Q533 -440 501 -435Q469 -430 453 -430Q371 -430 318 -473V-485Q318 -486 343 -533Q360 -526 395 -515Q416 -511 453 -511Q474 -511 514.5 -521.5Q555 -532 576 -532Q612 -532 658.5 -504Q705 -476 708 -476Q709 -476 773 -487Q934 -515 975 -515Q981 -515 985 -514V-531Q948 -534 911.5 -537.5Q875 -541 838 -560Q775 -593 775 -683Q775 -771 841 -828Q872 -855 983 -855L985 -1334Q985 -1358 1007 -1401Q1062 -1508 1201 -1538Q1214 -1541 1232 -1541Q1238 -1541 1250 -1540Q1262 -1540 1268 -1540Q1303 -1540 1360 -1504Q1421 -1465 1421 -1433Q1421 -1380 1355 -1380Q1350 -1380 1322 -1402Q1294 -1424 1268 -1424Q1210 -1424 1183 -1412Q1150 -1399 1120 -1354Q1104 -1331 1104 -1316V-531Q1118 -531 1152 -535Q1183 -539 1201 -538H1214L1714 -503L1758 -1052H1959ZM1983 -375L1940 -1027H1780L1756 -673Q1752 -617 1741 -505Q1739 -490 1729 -480L1201 -513Q1210 -513 1105 -506V-375ZM1396 -1427V-1442Q1332 -1515 1270 -1515Q1176 -1515 1127 -1493Q1065 -1466 1025 -1388Q1011 -1361 1011 -1344V-834Q1006 -832 927 -832Q841 -832 807 -745Q801 -730 801 -697Q801 -606 858 -575Q898 -552 993 -552Q1007 -552 1011 -553V299Q1026 316 1042 316Q1060 316 1081 301L1078 -1304Q1078 -1303 1089 -1332Q1134 -1449 1249 -1449Q1289 -1449 1309 -1439Q1317 -1435 1358 -1402Q1370 -1403 1394 -1417Q1396 -1421 1396 -1427ZM985 -374V-499L703 -454Q699 -454 693 -455Q629 -509 573 -509Q548 -509 500 -499Q452 -489 427 -489Q406 -489 356 -508L343 -484Q377 -453 452 -453Q468 -453 498 -459Q528 -465 544 -465Q563 -465 572 -447Q581 -429 588 -412Q526 -378 439 -378Q349 -378 285 -405Q254 -418 149 -483Q143 -482 123 -472Q126 -443 150 -423Q226 -360 288 -336.5Q350 -313 448 -313Q542 -313 641 -349Q710 -374 706 -374ZM1010 -579Q994 -573 978 -573Q983 -573 915.5 -580Q848 -587 823 -678Q819 -693 819 -698Q819 -749 866 -785Q900 -811 952 -811Q1004 -811 1010 -812ZM985 -599V-787Q975 -789 955 -789Q914 -789 880 -764Q842 -737 842 -697Q842 -657 859 -634Q885 -599 938 -599Z"/>
</svg>