<svg xmlns="http://www.w3.org/2000/svg" viewBox="0 -2048 2048 2048">
	<path fill="currentColor" d="M2031 -474H1563Q1604 -294 1604 -287Q1604 -238 1570 -214Q1547 -201 1502 -174Q1389 -106 1343 -33Q1293 47 1293 173Q1293 179 1318 336H1070Q1072 313 1081 239Q1088 179 1088 142Q1088 83 1084 66Q1083 63 1072 40Q1054 -2 1004 -79Q958 -128 894 -171Q858 -187 799 -229Q793 -235 778 -285L821 -474H711Q562 -415 408 -415Q336 -415 225 -470Q100 -532 100 -595V-615Q148 -636 151 -636Q155 -636 214 -600Q278 -560 286 -556Q346 -527 445 -527Q529 -527 567 -548Q561 -566 555 -566Q537 -566 502 -561.5Q467 -557 449 -557Q397 -557 377 -567Q349 -583 321 -599V-612Q321 -616 346 -660Q363 -653 399 -642Q415 -639 458 -639Q479 -639 520 -649Q561 -659 582 -659Q616 -659 665 -631Q714 -603 716 -603Q720 -603 853 -629Q856 -640 868 -694Q920 -939 1030 -1429Q1036 -1456 1061.5 -1495.5Q1087 -1535 1109 -1550Q1136 -1568 1184 -1568Q1318 -1568 1349 -1450Q1375 -1351 1524 -652L1525 -651Q1609 -640 1738 -630L1782 -1187H1983ZM2008 -501L1964 -1161H1804Q1792 -1019 1771 -736Q1769 -697 1762 -620L1751 -607L1532 -626L1559 -501ZM1581 -287Q1581 -287 1559 -388L1340 -1384Q1336 -1405 1325 -1445Q1314 -1485 1301 -1500Q1265 -1542 1190 -1542Q1143 -1542 1126.5 -1533Q1110 -1524 1082.5 -1481Q1055 -1438 1050 -1417Q1032 -1330 995 -1158Q955 -981 876 -628Q854 -523 807 -315Q801 -290 801 -287Q801 -257 822 -237Q852 -222 905 -191Q1021 -113 1070 -16Q1085 9 1107 62Q1114 93 1114 163Q1114 179 1092 311H1291V308Q1291 303 1284 267Q1271 199 1271 153Q1271 -13 1391 -123Q1407 -138 1539 -220Q1581 -246 1581 -287ZM847 -602L713 -580Q703 -584 649 -615Q610 -637 580 -637Q552 -637 497.5 -626.5Q443 -616 415 -616Q408 -616 359 -635Q351 -619 346 -611Q384 -580 456 -580Q478 -580 513 -585Q558 -591 569 -592Q580 -575 593 -536Q534 -504 443 -504Q380 -504 328 -517Q302 -523 150 -610Q145 -610 123 -600V-595Q123 -544 229 -491Q321 -445 383 -441Q429 -438 484 -438Q541 -438 650 -474Q729 -500 713 -500H826Z"/>
</svg>