<svg xmlns="http://www.w3.org/2000/svg" viewBox="0 -2048 2048 2048">
	<path fill="currentColor" d="M1999 -921Q1999 -920 1973 -831Q1971 -816 1966 -785Q1887 -403 1710 -151Q1648 -63 1506 43Q1476 70 1411 117Q1380 128 1320 151Q1176 212 1025 212Q1029 212 971 204Q771 177 576 41Q557 28 497 -32Q337 -192 248 -406Q245 -414 203 -524Q178 -590 141 -725Q100 -877 100 -923Q100 -936 106 -995Q126 -1007 135 -1007Q166 -1007 189 -929Q201 -875 213 -822Q223 -785 269 -666Q343 -475 398 -378Q482 -231 602 -139Q556 -203 556 -259Q556 -333 595 -376Q668 -457 767 -457Q837 -457 906 -387Q862 -447 862 -511Q862 -534 873 -559Q879 -578 896 -613Q910 -635 955.5 -663Q1001 -691 1028 -695Q1040 -697 1055 -697Q1100 -697 1110 -694Q1043 -751 1044 -818Q1028 -790 984 -746Q928 -712 856 -712Q849 -712 797 -725Q821 -647 821 -613Q821 -543 754 -490Q691 -440 620 -440Q547 -440 488.5 -500.5Q430 -561 430 -635Q430 -707 466 -745Q474 -754 562 -815Q585 -831 634 -831Q644 -831 698 -818Q673 -876 673 -929Q673 -959 712 -1025Q689 -1016 683 -1016Q635 -1016 582 -1040Q592 -983 592 -970Q592 -921 554.5 -868Q517 -815 470 -798Q450 -794 409 -784L401 -787L403 -785H378Q365 -785 321 -798Q193 -836 193 -993Q193 -1008 207 -1044.5Q221 -1081 231 -1092Q306 -1173 398 -1173Q437 -1173 491 -1145Q474 -1183 474 -1217Q474 -1294 541 -1352Q605 -1407 683 -1407Q727 -1407 779.5 -1369.5Q832 -1332 850 -1290Q852 -1304 876 -1352Q896 -1392 943.5 -1418.5Q991 -1445 1037 -1445Q1098 -1445 1149 -1416Q1174 -1402 1200.5 -1363.5Q1227 -1325 1229 -1298Q1229 -1290 1230 -1275Q1299 -1372 1399 -1372Q1516 -1372 1568 -1275Q1591 -1232 1591 -1183Q1591 -1158 1572 -1092Q1642 -1143 1710 -1143Q1702 -1143 1740 -1132Q1758 -1128 1794 -1115Q1892 -1069 1892 -936Q1892 -910 1869 -860.5Q1846 -811 1827.5 -799Q1809 -787 1786 -773Q1753 -753 1735 -753Q1729 -753 1717 -755Q1705 -757 1700 -757L1698 -771Q1715 -773 1749 -779Q1753 -780 1781 -797Q1867 -849 1867 -938Q1867 -1015 1834 -1054Q1804 -1089 1729 -1113Q1704 -1121 1708 -1121Q1633 -1121 1574.5 -1065.5Q1516 -1010 1516 -936Q1516 -936 1526 -909Q1530 -891 1542 -857Q1561 -811 1612 -787Q1639 -780 1693 -765L1690 -751Q1664 -754 1637 -761H1636Q1679 -727 1688.5 -712.5Q1698 -698 1710 -646Q1715 -624 1715 -616Q1715 -580 1694 -529Q1656 -435 1547 -420L1555 -418H1499Q1486 -418 1464 -423Q1559 -366 1559 -249Q1559 -227 1533 -168Q1757 -362 1891 -865Q1900 -907 1910 -949Q1927 -1004 1958 -1004Q1970 -1004 1993 -996Q1999 -948 1999 -921ZM1568 -1183Q1568 -1218 1546.5 -1267.5Q1525 -1317 1470 -1337Q1451 -1338 1414 -1344Q1392 -1349 1399 -1349Q1378 -1349 1350 -1340Q1223 -1299 1223 -1161Q1223 -1145 1244 -1093Q1256 -1064 1294.5 -1035.5Q1333 -1007 1364 -1007Q1367 -1007 1373.5 -1008.5Q1380 -1010 1383 -1010Q1387 -1010 1392.5 -1007Q1398 -1004 1400 -1004Q1409 -1004 1462 -1023Q1568 -1061 1568 -1183ZM1558 -804Q1541 -819 1517 -855Q1493 -919 1493 -934Q1493 -975 1514 -1024Q1450 -983 1371 -985Q1432 -932 1432 -834Q1432 -813 1415 -772Q1476 -806 1537 -806Q1549 -806 1558 -804ZM1212 -1249Q1212 -1257 1207.5 -1273Q1203 -1289 1203 -1297V-1303Q1203 -1320 1180 -1353Q1157 -1386 1140 -1395Q1095 -1419 1037 -1419Q937 -1419 899 -1350Q895 -1343 887 -1328Q874 -1308 874 -1293Q874 -1288 875 -1279Q875 -1270 875 -1265Q875 -1259 872.5 -1248.5Q870 -1238 870 -1232Q870 -1227 883 -1189Q913 -1102 1024 -1078Q1042 -1074 1038 -1074Q1067 -1074 1117.5 -1101Q1168 -1128 1183 -1152.5Q1198 -1177 1203 -1217Q1204 -1222 1208 -1232.5Q1212 -1243 1212 -1249ZM1260 -1034Q1224 -1069 1204 -1146Q1183 -1113 1129 -1082Q1075 -1051 1037 -1051Q1025 -1051 970 -1068Q993 -1054 1027 -1025Q1060 -983 1063 -934Q1121 -1036 1229 -1036Q1244 -1036 1260 -1034ZM1693 -616Q1693 -626 1683 -663Q1673 -700 1668 -706Q1649 -729 1614 -753Q1574 -780 1550 -780Q1478 -780 1429 -755Q1419 -746 1399 -729Q1345 -685 1345 -621Q1345 -554 1368 -513Q1375 -501 1414 -471Q1431 -458 1441 -454Q1463 -447 1506 -434Q1532 -443 1548 -444Q1599 -447 1643.5 -495.5Q1688 -544 1688 -596Q1688 -600 1690.5 -606Q1693 -612 1693 -616ZM1409 -834Q1409 -835 1407 -845Q1406 -860 1402 -890Q1388 -947 1341 -980Q1294 -1013 1234 -1013Q1167 -1013 1119 -973Q1068 -931 1068 -865Q1068 -810 1070 -800Q1076 -774 1100.5 -739Q1125 -704 1147 -695Q1176 -687 1233 -670Q1240 -677 1271 -677Q1319 -677 1364 -731Q1409 -785 1409 -834ZM921 -1094Q886 -1121 863 -1173Q856 -1133 827 -1095Q843 -1100 867 -1100H879Q903 -1100 921 -1094ZM842 -1197Q842 -1242 832 -1275Q819 -1317 787 -1333Q763 -1349 738 -1365Q713 -1381 679 -1381Q607 -1381 553 -1334Q499 -1287 499 -1217V-1198Q499 -1142 534 -1112Q548 -1103 566 -1076Q617 -1039 667 -1039Q729 -1039 774 -1073Q842 -1124 842 -1197ZM1414 -442Q1367 -469 1353 -494Q1319 -557 1319 -618Q1319 -646 1333 -680Q1283 -651 1258 -651Q1249 -651 1240 -653L1234 -648Q1209 -654 1160 -667Q1194 -646 1211 -628Q1255 -582 1255 -495Q1255 -438 1213 -385Q1289 -451 1370 -451Q1381 -451 1414 -442ZM1041 -905Q1041 -986 990.5 -1030Q940 -1074 858 -1074Q793 -1074 733 -1015Q698 -981 698 -930Q698 -897 708 -849Q714 -819 773 -766Q813 -730 868 -737L874 -732Q888 -737 915 -745Q1041 -778 1041 -905ZM1534 -250Q1534 -362 1444 -408Q1405 -428 1383 -428Q1298 -428 1249 -384Q1210 -349 1199 -330Q1185 -304 1185 -257Q1185 -83 1365 -83Q1350 -83 1391 -91Q1403 -91 1427 -95Q1468 -109 1501 -157.5Q1534 -206 1534 -250ZM1229 -492Q1229 -586 1191 -617Q1122 -674 1050 -674Q985 -674 936 -623.5Q887 -573 887 -508Q887 -405 980 -354Q1015 -335 1028 -335Q1030 -335 1035 -336.5Q1040 -338 1042 -338Q1047 -338 1053 -334Q1059 -330 1061 -330Q1051 -330 1104 -343Q1229 -374 1229 -492ZM1977 -948Q1977 -959 1972 -979Q1963 -982 1960 -982Q1938 -982 1923 -921Q1916 -881 1908 -841Q1852 -616 1730 -397Q1630 -217 1488 -104Q1422 -51 1264 -15Q1127 17 1022 17Q905 17 752 -40Q727 -51 677 -71Q559 -116 430 -292Q419 -306 397 -336Q330 -438 238 -684Q192 -807 173 -893Q153 -985 133 -985Q123 -985 123 -952Q123 -871 169 -713Q230 -502 277 -394Q349 -226 455 -108Q496 -62 587 21Q769 154 969 181Q1028 189 1026 189Q1162 189 1299 135Q1326 126 1380 107Q1485 68 1643 -110Q1660 -127 1690 -162Q1837 -360 1935 -751Q1939 -774 1948 -819Q1950 -829 1966 -883Q1977 -922 1977 -948ZM566 -973Q566 -1100 472 -1130Q469 -1131 436 -1150Q360 -1150 325 -1134Q314 -1125 292 -1108Q275 -1099 244 -1070Q215 -1026 215 -992Q215 -826 392 -805L393 -802Q414 -806 457.5 -818Q501 -830 533.5 -878Q566 -926 566 -973ZM795 -645Q795 -645 780 -710Q757 -808 634 -808Q640 -808 598 -800Q548 -791 505 -752Q458 -710 458 -663Q458 -658 455.5 -648.5Q453 -639 453 -634Q453 -566 503 -514.5Q553 -463 621 -463Q637 -463 695 -482Q747 -499 791 -582Q795 -619 795 -645ZM1354 -65Q1327 -67 1274 -76Q1259 -80 1220 -113Q1163 -161 1163 -256Q1163 -320 1190 -361Q1166 -339 1097 -318Q1071 -310 1066 -310Q1058 -310 1056 -315Q1048 -313 1042 -313Q972 -313 921 -369Q951 -322 951 -271Q951 -173 894.5 -119Q838 -65 740 -67Q894 -2 1042 -2Q1026 -2 1104 -10Q1237 -24 1354 -65ZM925 -241Q925 -257 917 -309Q910 -356 861.5 -393.5Q813 -431 764 -431Q724 -431 692 -419Q680 -409 656 -392Q640 -383 615 -364Q582 -323 582 -247Q582 -224 601.5 -185Q621 -146 639 -129Q652 -126 684 -105Q708 -89 751 -89Q816 -89 870.5 -133.5Q925 -178 925 -241Z"/>
</svg>