<svg xmlns="http://www.w3.org/2000/svg" viewBox="0 -2048 2048 2048">
	<path fill="currentColor" d="M1252 -385L1251 -341Q1251 -315 1231 -281Q1211 -247 1189 -237Q1179 -232 1158 -232L1154 -226Q1149 -187 1149 -187Q1149 -170 1153 -136Q1157 -102 1157 -85Q1157 -83 1154 62Q1153 91 1134 162Q1126 195 1101 259Q1042 363 944 363Q892 363 855 348Q835 342 797 324Q753 294 721 236Q716 225 674 128Q654 184 646 202Q628 241 604 270Q542 344 463 361Q454 363 445 363Q337 363 283 304Q240 256 212 142Q205 117 196 65Q193 0 193 -119Q193 -130 197.5 -150.5Q202 -171 202 -182Q202 -196 193 -235Q182 -238 161 -246Q151 -251 125.5 -281.5Q100 -312 100 -322V-429Q100 -435 108 -456.5Q116 -478 117 -484Q141 -595 233 -764Q248 -784 277 -826Q312 -826 342 -738Q358 -677 374 -617Q390 -566 394 -534Q396 -512 402 -469Q410 -420 410 -420Q410 -372 388 -321Q363 -265 325 -243Q306 -235 267 -220Q267 -201 265 -139Q263 -89 263 -58Q263 125 311 216Q323 238 356.5 259Q390 280 415 280Q430 280 458 269Q568 225 612 89Q619 66 628 55Q628 46 631 17Q633 -7 633 -21Q633 -51 625 -126Q618 -193 620 -232Q592 -242 540 -271Q477 -322 459 -437Q459 -439 409 -802Q379 -1022 344 -1165Q331 -1218 284.5 -1280Q238 -1342 190 -1374Q176 -1382 161.5 -1389.5Q147 -1397 141 -1415Q140 -1418 135 -1440Q148 -1447 167 -1447Q260 -1447 410 -1281Q417 -1335 417 -1327Q417 -1329 402 -1518Q401 -1527 424 -1548Q451 -1529 462 -1505Q521 -1379 581 -1289L675 -1575Q693 -1544 722 -1480Q746 -1406 775 -1270L907 -1528L921 -1540H941Q951 -1522 951 -1511Q951 -1488 942 -1443Q933 -1398 933 -1375Q933 -1400 945 -1265Q1018 -1337 1048 -1363Q1120 -1424 1165 -1435Q1171 -1442 1187 -1442L1204 -1441V-1411Q1074 -1321 1017 -1146Q994 -1076 952 -822Q934 -694 890 -439Q880 -390 846 -337Q809 -278 770 -258Q755 -252 724 -239Q723 -221 720 -165Q718 -119 718 -91Q718 44 735 83Q747 115 760.5 146.5Q774 178 797 205Q817 228 861 253Q909 280 935 280Q953 280 977 267Q1051 227 1074 120Q1086 62 1086 -65Q1086 -88 1082 -220Q1062 -226 1025 -243Q987 -265 962 -320Q940 -370 940 -419Q940 -403 947 -468Q955 -545 979 -643Q1008 -767 1037 -804Q1049 -819 1074 -827Q1089 -807 1116 -764Q1253 -484 1252 -385ZM928 -1243Q927 -1263 918 -1309Q910 -1351 910 -1375Q910 -1398 919 -1444Q928 -1490 928 -1514Q922 -1509 782 -1234Q803 -1130 810 -1062Q833 -1112 928 -1243ZM1167 -1414Q1069 -1371 948.5 -1236.5Q828 -1102 781 -904Q778 -891 724 -534Q816 -497 866 -449Q894 -643 961 -1028Q990 -1167 1026 -1242Q1074 -1341 1167 -1414ZM575 -1261Q543 -1306 484 -1400Q469 -1441 425 -1517V-1514L440 -1330Q441 -1319 435 -1299Q429 -1279 429 -1269Q429 -1248 459 -1210Q482 -1183 504 -1155Q519 -1131 548 -1072Q556 -1155 564 -1207Q569 -1225 575 -1261ZM790 -1021Q790 -1104 752.5 -1273Q715 -1442 680 -1519Q600 -1301 565 -1024Q583 -981 612 -893Q613 -889 663 -540L701 -538Q714 -649 749 -869Q751 -881 772 -950Q790 -1012 790 -1021ZM643 -536Q629 -660 586 -906Q553 -1045 460 -1181Q364 -1320 246 -1393Q199 -1422 164 -1421L168 -1415Q217 -1388 275 -1326Q333 -1264 352 -1214Q394 -1105 421 -899Q442 -736 462 -573Q467 -530 481 -444Q539 -494 554 -504Q590 -527 643 -536ZM1224 -403Q1224 -468 1165 -607Q1113 -730 1066 -800Q1035 -773 998 -621Q963 -481 963 -420Q963 -306 1035 -264Q1059 -255 1105 -232Q1106 -205 1109 -118Q1112 -47 1112 -4Q1112 94 1080 181Q1058 242 978 293Q957 306 940 306Q915 306 910 304Q765 244 724 116Q716 100 704 65Q695 20 695 -101Q695 -98 698 -250Q718 -258 757 -277Q796 -296 821 -340Q841 -381 861 -422Q832 -456 779 -485Q722 -516 681 -516Q610 -516 557 -480Q534 -460 486 -422Q509 -324 557 -288Q585 -275 639 -250Q643 -173 649 -107Q655 -41 655 -39Q655 26 648 56Q603 247 463 292Q419 306 401 306Q377 306 329 268Q305 249 293 228Q286 216 266 155Q258 136 247 95Q240 47 240 -67Q240 -68 243 -232Q250 -236 300 -259Q334 -275 351 -298Q387 -348 387 -420Q387 -430 383.5 -447.5Q380 -465 379 -471Q371 -539 346 -645Q314 -778 287 -799Q275 -785 255 -755Q178 -602 164 -563Q126 -463 126 -354Q126 -290 174 -264Q188 -261 214 -250Q222 -206 222 -176Q222 -167 219 -148.5Q216 -130 216 -121L219 64Q220 131 260 215Q303 308 358 329Q381 338 410 338Q417 338 430 337Q443 337 449 337Q494 337 555 284Q611 234 628 188Q639 151 663 88Q666 81 679 82Q682 85 686 91Q696 119 716 172Q752 262 802 298Q856 337 951 337Q967 337 974 336Q1042 327 1085 241Q1134 143 1134 -81Q1134 -98 1130 -131.5Q1126 -165 1126 -182Q1126 -202 1135 -244Q1140 -247 1167 -254Q1209 -266 1220 -316Q1224 -335 1224 -403Z"/>
</svg>