<svg xmlns="http://www.w3.org/2000/svg" viewBox="0 -2048 2048 2048">
	<path fill="currentColor" d="M1496 -1094Q1496 -1042 1475 -966Q1457 -903 1439 -840L1194 97L1437 -56Q1451 -35 1468 -18L1243 129Q1331 168 1363 250Q1370 285 1387 354H853Q844 354 844 341Q844 349 848 326Q850 312 855 283Q879 196 975 130L768 0Q774 -32 805 -46L1044 102L849 -617Q822 -721 767 -928Q753 -987 717 -1100Q695 -1153 619 -1182Q604 -1182 572 -1183.5Q540 -1185 524 -1185Q516 -1185 501 -1179Q540 -1159 579 -1139Q629 -1112 629 -1078Q629 -1066 626 -1059Q566 -1018 506 -977Q438 -936 365 -936Q353 -936 314 -947Q213 -976 140 -1071Q100 -1123 100 -1198Q100 -1247 107 -1283Q123 -1364 214 -1409Q290 -1446 382 -1446Q430 -1446 491 -1430Q566 -1411 581 -1381Q585 -1372 585 -1357V-1347Q555 -1325 524 -1302Q488 -1272 477 -1246Q530 -1263 561 -1263Q634 -1263 674 -1247Q703 -1235 741 -1199Q779 -1163 789 -1135Q792 -1124 797 -1102Q877 -783 1113 97Q1126 53 1161 -80Q1209 -265 1323 -689Q1421 -1055 1421 -1057Q1421 -1130 1371 -1168Q1333 -1184 1268 -1219L1290 -1188L1281 -1209Q1345 -1130 1345 -1087Q1345 -1044 1220 -1044Q1166 -1044 1138 -1048Q1081 -1056 1027 -1097.5Q973 -1139 948 -1192Q926 -1239 926 -1300Q926 -1358 944 -1398Q954 -1411 972 -1437Q1036 -1536 1136 -1536Q1192 -1536 1249 -1517Q1256 -1515 1290 -1494Q1310 -1484 1349 -1460Q1373 -1443 1403 -1408Q1437 -1367 1437 -1346Q1437 -1330 1425 -1315Q1370 -1308 1358 -1305Q1320 -1297 1295 -1282Q1363 -1271 1427 -1216Q1496 -1156 1496 -1094ZM1415 -1346Q1415 -1377 1345 -1431Q1284 -1479 1245 -1494Q1194 -1513 1136 -1513Q1056 -1513 999 -1436Q986 -1421 967 -1391Q948 -1346 948 -1274Q948 -1206 1009 -1141Q1078 -1067 1211 -1067Q1293 -1067 1313 -1079Q1318 -1082 1318 -1092Q1318 -1119 1281.5 -1166Q1245 -1213 1245 -1242Q1245 -1277 1283 -1302Q1312 -1321 1411 -1334Q1415 -1341 1415 -1346ZM1471 -1096Q1471 -1149 1404 -1204Q1343 -1253 1286 -1262L1281 -1266Q1271 -1252 1270 -1239Q1397 -1205 1430 -1128Q1440 -1104 1443 -1055L1135 110H1167L1423 -864Q1471 -1044 1471 -1096ZM604 -1081Q604 -1097 595 -1105Q592 -1108 509 -1149Q448 -1180 448 -1217Q448 -1272 505.5 -1316.5Q563 -1361 563 -1360Q563 -1382 493 -1402Q476 -1409 442 -1418Q424 -1421 392 -1421Q324 -1421 309 -1418Q212 -1400 169 -1353Q123 -1302 123 -1201Q123 -1152 140 -1111Q165 -1051 232.5 -1005Q300 -959 365 -959Q471 -959 603 -1071Q604 -1081 604 -1081ZM1094 107Q1076 43 860 -780Q833 -895 770 -1121Q760 -1152 724 -1186Q688 -1220 657 -1228Q620 -1238 564 -1238Q551 -1238 474 -1230L473 -1232L471 -1211L483 -1195Q512 -1208 564 -1208Q648 -1208 689 -1174Q730 -1140 759 -1032Q860 -651 1069 110ZM1436 -19L1430 -29L1204 117Q1220 120 1228 123V122ZM1356 329Q1356 257 1301 197Q1246 137 1174 134Q1164 134 1134 132Q1109 130 1094 130Q1032 130 992 148Q895 192 877 292Q874 304 870 329ZM1026 116L804 -20Q799 -14 796 -9L1004 121Z"/>
</svg>