<svg xmlns="http://www.w3.org/2000/svg" viewBox="0 -2048 2048 2048">
	<path fill="#000000" d="M2184 -192L2168 -172Q2084 -245 2073 -251Q2036 -272 1950 -272Q1826 -272 1695 -60V364H1669V-60Q1538 -272 1414 -272Q1328 -272 1291 -251Q1280 -245 1196 -172L1180 -192Q1268 -268 1282 -276Q1322 -298 1414 -298Q1541 -298 1669 -109V-1366Q1669 -1553 1483 -1553Q1439 -1553 1368 -1499Q1302 -1449 1277 -1405L1255 -1417Q1284 -1467 1355 -1521Q1432 -1579 1483 -1579Q1695 -1579 1695 -1366V-109Q1823 -298 1950 -298Q2042 -298 2082 -276Q2096 -268 2184 -192ZM1104 -192L1088 -172Q1004 -245 993 -251Q956 -272 870 -272Q746 -272 615 -60V364H589V-60Q458 -272 334 -272Q248 -272 211 -251Q200 -245 116 -172L100 -192Q188 -268 202 -276Q242 -298 334 -298Q461 -298 589 -109V-1366Q589 -1553 403 -1553Q359 -1553 288 -1499Q222 -1449 197 -1405L175 -1417Q204 -1467 275 -1521Q352 -1579 403 -1579Q615 -1579 615 -1366V-109Q743 -298 870 -298Q962 -298 1002 -276Q1016 -268 1104 -192Z"/>
</svg>