<svg xmlns="http://www.w3.org/2000/svg" viewBox="0 -2048 2048 2048">
	<path fill="currentColor" d="M2013 -252Q2013 -221 1966 -190L1503 -357Q1473 -355 1428 -345Q1401 -332 1259 -218V311H1152Q1167 43 1167 43Q1167 -16 1143 -55Q1134 -70 1071 -120Q1020 -161 921 -193Q890 -199 830 -214L857 -413L100 -961Q102 -971 110 -979L894 -692L993 -1571H1011Q1005 -1571 1054 -1560Q1183 -1531 1237 -1412Q1241 -1397 1248 -1366Q1259 -1321 1259 -1326V-561Q1373 -519 1602 -434Q1736 -384 2005 -286Q2013 -266 2013 -252ZM1234 -567V-1338Q1234 -1428 1137 -1499Q1070 -1548 1014 -1548H1011L916 -685ZM1990 -253Q1990 -262 1986 -269L191 -923L1196 -200Q1248 -244 1300 -287Q1365 -341 1412 -363Q1442 -377 1495 -377Q1511 -377 1727 -299Q1792 -277 1922 -229Q1962 -213 1964 -213Q1970 -213 1980 -229.5Q1990 -246 1990 -253ZM1233 286V-199Q1221 -191 1197 -174L876 -401L855 -227Q882 -223 934 -212Q994 -195 1062 -154Q1140 -107 1164 -64Q1190 -18 1190 42Q1190 43 1176 286Z"/>
</svg>