<svg xmlns="http://www.w3.org/2000/svg" viewBox="0 -2048 2048 2048">
	<path fill="currentColor" d="M1619 -926H924V-740Q948 -773 996 -797.5Q1044 -822 1086 -822Q1088 -822 1120 -817Q1191 -806 1237 -762Q1255 -745 1257 -745Q1258 -745 1264 -748Q1270 -751 1275 -751Q1309 -751 1376 -702Q1394 -689 1429 -685Q1458 -682 1486 -679Q1484 -677 1463 -636Q1453 -617 1422 -603Q1439 -529 1439 -525Q1439 -519 1437.5 -506.5Q1436 -494 1436 -488Q1419 -482 1402 -482Q1358 -482 1304 -517Q1286 -470 1239 -470Q1228 -470 1209 -488Q1228 -537 1228 -554Q1228 -566 1207 -602Q1186 -638 1186 -666Q1186 -687 1205 -707Q1165 -764 1103 -764Q1037 -764 987 -725Q977 -717 948 -682Q918 -644 918 -637L923 -425Q997 -508 1067 -508Q1176 -508 1256 -429Q1268 -436 1277 -436Q1310 -436 1358 -401.5Q1406 -367 1437 -367Q1448 -367 1479 -368Q1471 -300 1422 -284Q1439 -213 1439 -211Q1439 -204 1437.5 -191.5Q1436 -179 1436 -173Q1430 -165 1420 -165Q1381 -165 1304 -204Q1285 -156 1239 -156Q1210 -156 1210 -178Q1210 -183 1219 -203Q1228 -223 1228 -236Q1228 -249 1207 -286.5Q1186 -324 1186 -350Q1186 -361 1205 -396Q1160 -431 1147 -436Q1130 -443 1081 -443Q1059 -443 1047 -440Q1015 -431 974 -399Q927 -363 927 -335V-99L931 -96Q953 -95 971 -91Q1020 -80 1072 -29.5Q1124 21 1132 69Q1133 75 1139 92Q1143 105 1143 115Q1143 271 1020 327Q1012 333 993 343Q984 344 966 348Q906 362 904 362Q847 362 794 346Q791 345 747 317Q667 266 642 167Q640 159 640 152Q640 45 689 -7Q735 -56 769 -72Q783 -79 866 -102V-323Q866 -336 825 -380.5Q784 -425 769 -431Q725 -449 703 -449Q632 -449 573 -382Q592 -355 592 -336Q592 -315 580 -274Q568 -233 568 -211Q568 -202 575.5 -187.5Q583 -173 583 -166Q583 -159 568 -148.5Q553 -138 546 -138Q513 -138 485 -179Q472 -169 372 -125Q344 -153 344 -217Q344 -227 355 -254Q335 -266 297 -292V-341Q332 -341 405 -364Q409 -366 444 -402Q464 -421 500 -421Q505 -421 511.5 -417Q518 -413 521 -412Q534 -425 560 -451Q582 -470 632 -489Q682 -508 711 -508Q744 -508 786 -492.5Q828 -477 861 -426Q862 -447 865 -518Q868 -576 868 -611Q868 -644 816 -700Q764 -756 730 -759Q710 -761 694 -761Q639 -761 573 -697Q592 -671 592 -649Q592 -632 578.5 -593.5Q565 -555 565 -534Q565 -530 584 -475Q554 -455 543 -455Q507 -455 484 -492Q456 -470 368 -445L355 -463Q344 -519 344 -533Q344 -537 355 -574Q304 -584 296 -655Q304 -658 336.5 -658Q369 -658 416 -698.5Q463 -739 489 -739Q495 -739 505 -736Q515 -733 521 -733Q516 -733 578.5 -777.5Q641 -822 693 -822Q799 -822 865 -736V-925H575Q530 -909 468 -890Q433 -883 362 -883Q226 -883 132 -973Q127 -978 100 -1039Q132 -1056 148 -1056Q155 -1056 247 -1002Q293 -975 396 -975Q467 -975 467 -989Q467 -1000 437 -1000Q429 -1000 413.5 -997Q398 -994 390 -994Q316 -994 275 -1033Q283 -1048 298 -1078Q342 -1065 356 -1065Q376 -1065 414.5 -1072.5Q453 -1080 473 -1080Q500 -1080 533 -1064Q561 -1049 589 -1035L865 -1076V-1394Q865 -1422 828 -1462Q791 -1502 763 -1511Q751 -1515 724 -1515Q692 -1515 633 -1493Q625 -1492 610 -1486Q594 -1476 571 -1444Q592 -1429 592 -1399Q592 -1396 581 -1365Q565 -1320 565 -1275Q565 -1264 570 -1247Q576 -1226 577 -1220Q557 -1207 543 -1207Q513 -1207 482 -1252Q422 -1212 369 -1197Q347 -1218 347 -1241Q347 -1302 363 -1330Q346 -1332 309 -1362Q302 -1372 288 -1392Q302 -1406 320 -1406Q323 -1406 329 -1404.5Q335 -1403 338 -1403Q351 -1403 377 -1418Q403 -1433 411 -1444Q444 -1490 474 -1490Q481 -1490 495 -1485.5Q509 -1481 516 -1481Q629 -1571 706 -1571Q828 -1571 897 -1460Q921 -1421 921 -1392V-1080Q939 -1080 974 -1081Q1010 -1081 1028 -1081Q1059 -1081 1381 -1056L1417 -1493H1579ZM1595 -951L1560 -1467H1439L1405 -1043Q1401 -1032 1389 -1033L1191 -1049Q1092 -1057 1092 -1057H894Q894 -1057 791 -1042L586 -1012Q504 -1054 471 -1054Q451 -1054 412.5 -1048Q374 -1042 354 -1042Q340 -1042 310 -1053L303 -1040Q331 -1017 389 -1017Q401 -1017 426 -1020Q451 -1023 463 -1023Q468 -1023 473 -1021Q479 -1013 492 -991L491 -983L490 -984L487 -977Q445 -952 372 -952Q305 -952 252 -974Q234 -982 146 -1033L128 -1029V-1024Q133 -1008 136 -1003Q201 -909 412 -909Q446 -909 466 -913Q477 -915 530 -934Q580 -951 584 -951ZM1416 -525Q1416 -533 1402 -597Q1386 -593 1375 -593Q1343 -593 1305 -617L1309 -609Q1311 -563 1308 -536Q1376 -508 1374 -508H1414Q1416 -518 1416 -525ZM895 -1079V-1401Q895 -1405 869 -1462Q831 -1545 712 -1545Q629 -1545 561 -1489Q548 -1477 519 -1458Q510 -1458 492.5 -1461Q475 -1464 466 -1464Q459 -1464 422 -1423.5Q385 -1383 323 -1380Q346 -1349 383 -1349Q400 -1349 432.5 -1362.5Q465 -1376 482 -1376Q485 -1376 482 -1369L488 -1372Q491 -1367 491 -1355Q491 -1347 489.5 -1330Q488 -1313 488 -1305Q488 -1284 505 -1260Q523 -1233 543 -1233Q550 -1233 554 -1234V-1238Q554 -1250 548 -1273Q542 -1296 542 -1308Q542 -1324 555.5 -1356Q569 -1388 569 -1399Q569 -1409 557 -1426Q547 -1432 540 -1439Q558 -1465 598 -1506Q606 -1508 626 -1514Q695 -1541 715 -1541Q764 -1541 796 -1521Q889 -1463 889 -1391V-1078ZM472 -1275Q466 -1294 466 -1315Q466 -1322 469 -1350Q434 -1337 387 -1326Q370 -1290 370 -1260Q370 -1243 374 -1224H383Q412 -1224 472 -1275ZM1417 -188Q1416 -191 1416 -206Q1416 -196 1402 -280Q1384 -276 1377 -276Q1362 -276 1309 -300Q1311 -289 1311 -276V-260Q1311 -247 1308 -222Q1314 -220 1361 -201Q1391 -188 1417 -188ZM1449 -345Q1437 -344 1437 -344Q1398 -344 1349.5 -378.5Q1301 -413 1280 -413Q1276 -413 1268.5 -408.5Q1261 -404 1256 -404Q1259 -404 1204 -443Q1149 -482 1088 -482Q990 -482 907 -371Q895 -382 895 -392L892 -634Q892 -645 927.5 -691.5Q963 -738 976 -746Q1033 -784 1098 -784Q1176 -784 1234 -710Q1209 -668 1209 -663Q1209 -642 1230 -609Q1251 -576 1251 -556Q1251 -545 1243.5 -525Q1236 -505 1236 -494Q1238 -494 1241 -493Q1288 -493 1288 -574Q1288 -584 1284 -604.5Q1280 -625 1280 -635Q1280 -645 1289 -653Q1309 -641 1330.5 -628.5Q1352 -616 1374 -616Q1433 -616 1448 -658Q1402 -660 1350 -694Q1298 -728 1278 -728Q1274 -728 1267.5 -725Q1261 -722 1257 -722Q1256 -722 1202.5 -760.5Q1149 -799 1086 -799Q982 -799 920 -692Q914 -682 905 -683L895 -692V-925H886V-688Q872 -688 864 -697Q816 -755 792 -771Q753 -799 693 -799Q641 -799 583 -753Q525 -707 524 -707Q518 -707 507.5 -711.5Q497 -716 491 -716Q472 -716 426.5 -676.5Q381 -637 341 -637Q337 -637 323 -635V-632Q338 -595 392 -595Q437 -595 497 -634Q499 -559 499 -530Q499 -481 543 -481Q547 -481 555 -483Q542 -525 542 -531Q542 -553 555.5 -592.5Q569 -632 569 -648Q569 -667 558.5 -680Q548 -693 548 -697Q548 -713 601 -750Q654 -787 672 -787Q740 -787 776 -766Q803 -750 852 -692Q888 -649 888 -599Q888 -599 885 -386Q878 -376 868 -377Q797 -482 712 -482Q647 -482 581 -435.5Q515 -389 522 -389Q517 -389 508.5 -393.5Q500 -398 498 -398Q473 -398 456 -384Q445 -369 415 -343Q388 -328 323 -321V-302Q367 -272 381 -272Q429 -272 488 -313L499 -301Q499 -293 498 -277.5Q497 -262 497 -253Q497 -164 545 -164Q550 -164 557 -168V-172Q542 -204 542 -239Q542 -254 555.5 -283Q569 -312 569 -326Q569 -346 558.5 -363.5Q548 -381 548 -383Q548 -410 629 -452Q667 -472 703 -472Q797 -472 858 -374Q889 -324 889 -323V-101H904V-335Q904 -363 927 -389Q935 -394 951 -405Q982 -427 1013.5 -448Q1045 -469 1086 -469Q1179 -469 1234 -396Q1233 -394 1219 -372Q1209 -357 1209 -347Q1209 -326 1230 -292.5Q1251 -259 1251 -238Q1251 -228 1243.5 -210Q1236 -192 1236 -182L1242 -179Q1271 -183 1281 -205Q1288 -220 1288 -262Q1288 -270 1285.5 -287Q1283 -304 1283 -312Q1283 -324 1285 -338Q1376 -299 1378 -299Q1433 -299 1449 -345ZM478 -516Q473 -532 473 -591Q427 -562 378 -570Q367 -531 367 -533Q367 -515 378 -471Q444 -489 478 -516ZM998 -53Q961 -75 870 -75Q856 -75 828 -67Q852 -35 902 28ZM1120 145V129Q1120 99 1110 70L995 142L1096 224Q1120 166 1120 145ZM1103 43Q1072 -10 1021 -41L897 56L800 -59Q775 -53 694 25L795 129L692 231Q704 261 771 306L886 199L995 315Q1061 288 1085 247L960 141ZM475 -200Q472 -244 474 -279Q415 -247 375 -249Q367 -217 367 -215Q367 -189 380 -153Q444 -172 475 -200ZM980 321Q934 279 885 230L783 314Q820 336 901 336Q938 336 980 321ZM766 129L681 47Q664 88 664 96V130Q664 177 683 207Z"/>
</svg>