<svg xmlns="http://www.w3.org/2000/svg" viewBox="0 0 995 1000">
  <g transform="scale(1,-1) translate(0,-1000)">
    <path d="M316 709Q305 709 289.0 732.0Q273 755 273 782Q273 790 274 794Q250 784 232 784Q210 784 210 803Q210 819 228 849Q205 850 186.0 862.5Q167 875 159.5 886.5Q152 898 152 904Q152 917 166 917Q172 917 179.0 911.5Q186 906 194 906Q207 906 246.0 925.5Q285 945 308 945Q330 945 348 931Q352 934 365.5 943.0Q379 952 385.0 956.0Q391 960 404.0 968.0Q417 976 425.5 980.0Q434 984 445.5 988.5Q457 993 467.5 995.0Q478 997 489 997Q536 997 573.0 957.0Q610 917 610 856L609 470H841V667H995V393H841Q661 395 609 395L608 25Q608 15 600.5 7.5Q593 0 583.0 0.0Q573 0 565.5 7.5Q558 15 558 25Q558 25 558.0 46.5Q558 68 558.0 104.0Q558 140 558.5 184.5Q559 229 559.0 286.0Q559 343 559 395H455Q374 395 328 394Q284 394 215.0 384.5Q146 375 117 375Q113 375 104.0 375.5Q95 376 75.5 378.5Q56 381 40.5 385.5Q25 390 12.5 400.0Q0 410 0 423Q0 435 21 435Q31 435 66.0 425.0Q101 415 136 415Q147 415 157.0 417.5Q167 420 172.5 423.0Q178 426 178 428Q178 431 174.5 436.0Q171 441 153.5 448.0Q136 455 107 455H104Q74 455 74 477Q74 497 104 497Q125 497 194.5 475.0Q264 453 289 453H301Q301 453 302.5 453.5Q304 454 308.0 455.5Q312 457 319.0 458.5Q326 460 338.0 461.5Q350 463 366.0 464.5Q382 466 406.5 467.5Q431 469 460 470H559Q560 752 560 856Q560 902 535.0 924.5Q510 947 489 947Q429 947 375 900Q383 885 383 868Q383 840 353.0 799.0Q323 758 323 747Q323 742 327.0 734.0Q331 726 331 723Q331 718 326.0 713.5Q321 709 316 709ZM306 915Q290 915 258.5 899.0Q227 883 218 880Q223 879 231 879Q238 879 247.5 880.5Q257 882 260 882Q266 882 270.5 877.5Q275 873 275 867Q275 864 271 858Q256 840 244 816Q274 825 290 835Q297 840 304.5 835.5Q312 831 312 823Q312 819 307.5 805.5Q303 792 303 782V779Q306 786 329.5 818.0Q353 850 353.0 867.0Q353 884 339.0 899.5Q325 915 306 915ZM963 638H873V440H962Z" fill="currentColor"/>
  </g>
</svg>