<svg xmlns="http://www.w3.org/2000/svg" viewBox="0 -2048 2048 2048">
	<path fill="currentColor" d="M1372 208Q1342 247 1243 283Q1199 301 1109 330Q922 373 740 373Q739 373 665 368Q225 338 100 213Q108 190 127 180Q221 128 396 91Q548 59 679 55L682 -172Q683 -231 620 -292Q557 -353 498 -353Q489 -353 470 -354Q451 -355 442 -355Q389 -355 336.5 -286Q284 -217 272 -217H234Q234 -221 232.5 -229.5Q231 -238 231 -243Q231 -255 255 -307Q298 -402 453 -441Q469 -445 475 -445Q532 -445 615 -401Q650 -383 694 -305Q697 -346 697 -374Q697 -446 631 -515.5Q565 -585 494 -585Q380 -585 336 -518Q287 -443 270 -443Q264 -443 252 -446.5Q240 -450 234 -450Q234 -454 232.5 -461.5Q231 -469 231 -473Q231 -522 297 -595Q366 -672 477 -672Q558 -672 609 -640Q653 -613 704 -542L709 -1377Q709 -1411 693 -1448Q674 -1489 648.5 -1500Q623 -1511 590 -1511Q542 -1511 510 -1463Q507 -1458 495.5 -1416Q484 -1374 484 -1368Q484 -1330 505 -1289Q508 -1284 527 -1261Q541 -1245 541 -1230Q541 -1199 506 -1199Q482 -1199 448 -1254Q431 -1281 427 -1322Q424 -1357 421 -1393Q361 -1371 315 -1371Q238 -1371 176 -1426Q181 -1442 197 -1465Q285 -1443 302 -1443Q383 -1443 435 -1476Q454 -1499 498 -1540Q548 -1576 610 -1576Q752 -1576 769 -1429Q773 -1413 777 -1381L782 -550Q811 -602 854 -635Q870 -647 920 -662.5Q970 -678 991 -678Q1113 -678 1191 -594Q1205 -579 1233 -537Q1264 -491 1264 -479Q1264 -465 1251 -449.5Q1238 -434 1224 -434Q1204 -434 1176 -476Q1138 -535 1117 -555Q1071 -597 1006 -597Q933 -597 874 -547.5Q815 -498 796 -427Q786 -389 786 -384Q786 -384 787 -329Q830 -401 891 -427Q939 -446 1031 -446Q1094 -446 1164 -389Q1226 -339 1259 -275Q1261 -271 1261 -262Q1261 -207 1225 -207Q1204 -207 1190 -225Q1180 -242 1169 -259Q1092 -361 1003 -361Q868 -361 808 -216Q793 -180 792 -161Q791 -89 789 53Q799 55 817 56Q953 64 1104 94Q1311 135 1358 189Q1364 196 1372 208ZM1241 -480Q1241 -504 1172.5 -579.5Q1104 -655 992 -655Q972 -655 919 -638Q901 -633 869 -619Q819 -583 794 -528Q791 -517 782 -498Q775 -488 760 -488L754 -1382Q751 -1398 746 -1431Q742 -1476 715 -1510Q706 -1522 674.5 -1537.5Q643 -1553 627 -1553Q550 -1553 509 -1520Q490 -1496 445 -1455Q390 -1419 277 -1419Q264 -1419 208 -1440L203 -1431Q253 -1395 315 -1395Q350 -1395 374 -1401Q380 -1402 405 -1413Q427 -1422 433 -1422Q441 -1422 444 -1418L441 -1419L448 -1412Q447 -1392 447 -1367Q447 -1296 485 -1244Q499 -1225 503 -1225Q511 -1225 515 -1226V-1241Q503 -1254 483 -1284Q461 -1331 461 -1368Q461 -1380 474 -1424Q487 -1468 493 -1477Q534 -1534 590 -1534Q628 -1534 656 -1523Q691 -1509 713 -1458Q732 -1415 732 -1371L729 -501Q721 -490 711 -491Q672 -549 657 -567Q624 -605 585 -626Q576 -633 556 -642Q529 -649 478 -649Q458 -649 412 -642Q373 -636 313.5 -574Q254 -512 254 -474Q254 -473 255 -469Q272 -466 270 -466Q279 -466 301 -502Q327 -546 329 -549Q383 -608 474 -608Q500 -608 530 -604Q566 -599 623 -552Q677 -508 697 -472Q720 -430 720 -379Q720 -362 718.5 -327.5Q717 -293 717 -277Q717 -261 700 -254Q680 -288 660 -322Q635 -363 606 -379Q528 -422 475 -422Q415 -422 358.5 -385.5Q302 -349 274 -295Q264 -277 254 -243H275Q282 -243 300 -272Q324 -310 324 -310Q382 -378 472 -378Q530 -378 569 -359Q642 -323 688 -243Q708 -208 708 -167V52H769V-156Q769 -195 789 -236Q862 -388 1005 -388Q1123 -388 1207 -242Q1212 -233 1217 -233H1225Q1235 -233 1235 -246Q1235 -290 1164 -359Q1154 -369 1102 -399Q1092 -407 1070 -418Q1055 -422 1021 -422Q919 -422 874 -390Q835 -362 785 -268Q779 -257 770 -258L760 -268V-385Q760 -436 806 -501Q847 -557 896 -591Q942 -623 1005 -623Q1032 -623 1067 -609Q1092 -601 1138 -567Q1159 -537 1180 -508Q1214 -460 1222 -460Q1241 -460 1241 -480ZM1342 206Q1330 195 1320 190Q1065 74 723 74Q591 74 416 109Q217 150 129 208Q212 274 422 316Q595 350 740 350Q938 350 1094 310Q1301 257 1342 206Z"/>
</svg>