<svg xmlns="http://www.w3.org/2000/svg" viewBox="0 0 926 1000">
  <g transform="scale(1,-1) translate(0,-1000)">
    <path d="M901 0H25Q14 0 7.0 7.0Q0 14 0.0 25.0Q0 36 7.0 43.0Q14 50 25 50H143V373Q74 507 74 647Q74 789 145 944Q150 956 163.0 956.0Q176 956 181 944Q252 789 252 647Q252 507 183 373V50H217L298 148V50H443V373Q374 507 374 647Q374 789 445 944Q450 956 463.0 956.0Q476 956 481 944Q552 789 552 647Q552 507 483 373V50H517L598 148V50H743V373Q674 507 674 647Q674 789 745 944Q750 956 763.0 956.0Q776 956 781 944Q852 789 852 647Q852 507 783 373V50H817L898 148V50H901Q912 50 919.0 43.0Q926 36 926.0 25.0Q926 14 919.0 7.0Q912 0 901 0ZM163 424Q212 532 212.0 647.0Q212 762 163 885Q114 762 114.0 647.0Q114 532 163 424ZM463 424Q512 532 512.0 647.0Q512 762 463 885Q414 762 414.0 647.0Q414 532 463 424ZM763 424Q812 532 812.0 647.0Q812 762 763 885Q714 762 714.0 647.0Q714 532 763 424Z" fill="currentColor"/>
  </g>
</svg>