<svg xmlns="http://www.w3.org/2000/svg" viewBox="0 0 848 1000">
  <g transform="scale(1,-1) translate(0,-1000)">
    <path d="M164 709Q153 709 137.0 732.0Q121 755 121 782Q121 790 122 794Q98 784 80 784Q58 784 58 803Q58 819 76 849Q53 850 34.0 862.5Q15 875 7.5 886.5Q0 898 0 904Q0 917 14 917Q19 917 26.5 911.5Q34 906 42 906Q55 906 94.0 925.5Q133 945 156 945Q178 945 196 931Q200 934 213.5 943.0Q227 952 233.0 956.0Q239 960 252.0 968.0Q265 976 273.5 980.0Q282 984 293.5 988.5Q305 993 315.5 995.0Q326 997 337 997Q384 997 421.0 957.0Q458 917 458 856L457 352Q480 379 522.5 399.0Q565 419 615 419Q627 419 645 409Q665 428 691 428Q714 428 753.0 408.5Q792 389 805 389Q814 389 821.0 394.0Q828 399 833 399Q848 399 848 386Q848 381 840.0 369.0Q832 357 813.0 345.0Q794 333 771 332Q790 300 790 285Q790 266 767 266Q752 266 725 277Q726 273 726 264Q726 237 710.0 214.5Q694 192 683 192Q678 192 673.5 196.0Q669 200 669 205Q669 208 672.5 216.5Q676 225 676 230Q676 241 646.0 282.0Q616 323 616 351Q616 365 623 379Q619 380 612 380Q551 380 508.0 350.0Q465 320 457 279L456 25Q456 15 448.5 7.5Q441 0 431.0 0.0Q421 0 413.5 7.5Q406 15 406 25Q406 25 406.0 38.5Q406 52 406.0 75.5Q406 99 406.5 128.5Q407 158 407.0 197.5Q407 237 407 275Q397 317 355.5 347.0Q314 377 255 380H250Q257 366 257 351Q257 323 227.0 282.0Q197 241 197 230Q197 225 201.0 216.5Q205 208 205 205Q205 200 200.0 196.0Q195 192 190 192Q179 192 163.0 214.5Q147 237 147 264Q147 273 148 277Q121 266 106 266Q84 266 84 285Q84 302 102 332Q79 333 60.0 345.0Q41 357 33.5 368.5Q26 380 26 386Q26 399 40 399Q46 399 53.0 394.0Q60 389 68 389Q81 389 120.0 408.5Q159 428 182 428Q206 428 226 411Q258 419 258 419Q346 419 407 353Q407 382 407.0 444.0Q407 506 407.5 574.0Q408 642 408.0 706.0Q408 770 408.0 812.5Q408 855 408 856Q408 902 383.0 924.5Q358 947 337 947Q277 947 223 900Q231 885 231 868Q231 840 201.0 799.0Q171 758 171 747Q171 742 175.0 734.0Q179 726 179 723Q179 718 174.0 713.5Q169 709 164 709ZM154 915Q138 915 106.5 899.0Q75 883 66 880Q71 879 79 879Q86 879 95.5 880.5Q105 882 108 882Q114 882 118.5 877.5Q123 873 123 867Q123 864 119 858Q104 840 92 816Q122 825 138 835Q145 840 152.5 835.5Q160 831 160 823Q160 819 155.5 805.5Q151 792 151 782V779Q154 786 177.5 818.0Q201 850 201.0 867.0Q201 884 187.0 899.5Q173 915 154 915ZM180 398Q164 398 132.5 382.0Q101 366 92 363Q102 361 105 361Q112 361 121.5 363.0Q131 365 134 365Q140 365 144.5 360.5Q149 356 149 350Q149 347 145 341Q130 323 118 299Q148 308 164 318Q171 323 178.5 318.5Q186 314 186 306Q186 302 181.5 288.5Q177 275 177 265V262Q180 269 203.5 301.0Q227 333 227.0 350.0Q227 367 213.0 382.5Q199 398 180 398ZM693 398Q674 398 660.0 382.5Q646 367 646.0 350.0Q646 333 669.5 301.0Q693 269 697 262V264Q697 274 692.0 287.5Q687 301 687 306Q687 314 694.5 318.5Q702 323 709 318Q725 308 755 299Q742 326 729 341Q725 345 725 351Q725 365 739 365Q742 365 751.5 363.0Q761 361 768 361Q771 361 781 363Q772 366 740.5 382.0Q709 398 693 398Z" fill="currentColor"/>
  </g>
</svg>