<svg xmlns="http://www.w3.org/2000/svg" viewBox="0 -2048 2048 2048">
	<path fill="#000000" d="M1944 -820L1113 -821V-670Q1144 -714 1204 -750Q1268 -789 1318 -789Q1434 -789 1533 -690Q1546 -699 1553 -699Q1579 -699 1660.5 -658Q1742 -617 1795 -617V-608L1801 -606Q1801 -582 1779 -552Q1757 -522 1734 -514Q1752 -452 1752 -416Q1752 -393 1746 -371H1740V-367Q1658 -371 1588 -410Q1570 -355 1514 -355Q1502 -355 1478 -367L1482 -371L1475 -373Q1494 -419 1494 -451Q1494 -472 1470.5 -521.5Q1447 -571 1447 -596Q1447 -623 1467 -647Q1407 -715 1320 -715Q1232 -715 1172.5 -645.5Q1113 -576 1113 -557V-289Q1148 -337 1213.5 -367.5Q1279 -398 1340 -398Q1418 -398 1533 -297Q1549 -307 1553 -307Q1575 -307 1654 -263Q1733 -219 1760 -219Q1763 -219 1793 -225V-215L1803 -213Q1778 -129 1734 -121Q1752 -59 1752 -23Q1752 0 1746 22H1740V26Q1658 22 1588 -17Q1569 39 1514 39Q1504 39 1478 26L1482 22L1475 20Q1494 -43 1494 -56Q1494 -75 1469.5 -127.5Q1445 -180 1443 -207Q1452 -229 1469 -254Q1399 -324 1322 -324Q1287 -324 1226 -289Q1113 -224 1113 -105V-17Q1204 -3 1241 51Q1273 99 1273 194Q1273 222 1263 338Q1251 350 1230 350Q1199 350 1195 297L1196 303Q1197 281 1197 225Q1197 110 1139 75Q1112 59 1103 59Q978 59 978 213Q978 243 984 311Q981 321 968 346H961Q959 347 955 348Q914 348 905 301Q902 289 902 223Q902 2 1052 -15V-89Q1052 -177 999 -248Q940 -326 855 -326Q820 -326 762.5 -297Q705 -268 687 -240Q687 -232 699.5 -211Q712 -190 712 -185Q712 -160 696.5 -111Q681 -62 681 -37Q681 -19 699 41Q673 61 660 61Q608 61 585 10Q567 28 514.5 51Q462 74 437 74Q413 50 413 -31Q413 -62 423 -84Q351 -115 351 -185H357V-191Q472 -191 519 -248Q529 -260 550 -281Q580 -291 593 -291Q612 -291 628 -281Q661 -320 736 -356.5Q811 -393 861 -393Q985 -393 1052 -295V-553Q1029 -614 968 -665Q903 -719 841 -719Q746 -719 685 -637Q707 -601 707 -578Q707 -552 679 -424Q687 -403 697 -355Q661 -334 644 -334Q611 -334 585 -383Q555 -347 439 -322Q411 -352 411 -416Q411 -427 416 -448Q421 -469 421 -479Q394 -483 373.5 -510Q353 -537 353 -565Q353 -581 357 -584H369Q441 -584 505.5 -634Q570 -684 589 -684Q612 -684 628 -674Q655 -714 725 -753.5Q795 -793 841 -793Q972 -793 1052 -676V-821H737Q737 -821 623.5 -789.5Q510 -758 443 -758Q304 -758 181 -841Q100 -896 100 -939Q100 -974 145 -974Q140 -974 244.5 -921Q349 -868 435 -868Q521 -868 543 -892L538 -901Q518 -904 475 -900Q424 -895 427 -895Q408 -895 311 -938Q319 -965 345 -1000Q397 -974 411 -974Q418 -974 487.5 -987Q557 -1000 564 -1000Q570 -1000 630.5 -971Q691 -942 698 -942Q808 -960 1052 -993V-1290Q1052 -1350 988 -1403Q924 -1456 863 -1456Q732 -1456 683 -1362Q713 -1337 713 -1315Q713 -1292 696 -1235Q679 -1178 679 -1156Q679 -1144 689 -1121Q699 -1098 699 -1086Q674 -1065 656 -1065Q601 -1065 576 -1127Q520 -1067 435 -1059Q415 -1079 415 -1108Q415 -1169 437 -1223Q365 -1233 345 -1303L353 -1305V-1313Q357 -1313 363 -1312Q369 -1311 372 -1311Q417 -1311 484.5 -1366.5Q552 -1422 576 -1422Q604 -1422 624 -1409Q715 -1475 729 -1482Q790 -1518 849 -1518Q941 -1518 1023 -1457Q1113 -1390 1113 -1299V-998Q1197 -1005 1258 -1005L1660 -968L1707 -1505H1900ZM1916 -846L1876 -1479H1731L1684 -940L1257 -979Q1243 -980 1228 -980Q1212 -980 1113 -972V-847ZM1727 -416Q1727 -446 1709 -506L1682 -502Q1664 -506 1588 -541Q1598 -512 1598 -478Q1598 -457 1594 -434Q1666 -393 1725 -393Q1725 -397 1726 -404.5Q1727 -412 1727 -416ZM1770 -195Q1724 -195 1649.5 -238Q1575 -281 1555 -281Q1549 -281 1542 -273.5Q1535 -266 1531 -266Q1479 -308 1470 -315Q1440 -337 1402 -353Q1355 -373 1340 -373Q1232 -373 1103 -244L1088 -246V-559Q1143 -652 1182 -687Q1242 -740 1328 -740Q1385 -740 1420 -717Q1498 -667 1498 -645Q1471 -614 1471 -594Q1471 -569 1495 -519Q1519 -469 1519 -453Q1519 -420 1504 -381Q1508 -379 1516 -379Q1572 -379 1572 -461Q1572 -477 1567 -509Q1562 -541 1562 -557Q1562 -574 1572 -578Q1658 -527 1684 -527Q1712 -527 1739 -546Q1766 -565 1768 -592Q1725 -594 1652 -634Q1579 -674 1557 -674Q1547 -674 1533 -660L1529 -664L1527 -662Q1437 -762 1314 -762Q1260 -762 1194 -714Q1132 -669 1107 -617L1088 -633V-1295Q1088 -1376 1010 -1436Q937 -1493 849 -1493Q791 -1493 729 -1456Q678 -1418 626 -1381Q602 -1395 576 -1395Q567 -1395 498.5 -1342.5Q430 -1290 378 -1286L392 -1264Q434 -1243 456 -1243Q523 -1243 570 -1282Q578 -1268 593 -1268Q585 -1238 585 -1198Q585 -1168 606 -1133Q628 -1094 656 -1090L671 -1096Q652 -1120 652 -1145Q652 -1171 670 -1232Q688 -1293 688 -1317Q688 -1341 654 -1350L658 -1356L652 -1358Q713 -1476 865 -1476Q919 -1476 990 -1425Q1074 -1366 1074 -1294V-627L1056 -621Q995 -748 841 -768Q765 -747 725 -723Q692 -703 628 -643Q607 -660 589 -660Q572 -660 513 -606Q485 -580 378 -555Q394 -502 460 -502Q540 -502 581 -549Q599 -535 599 -520Q599 -506 596 -478Q593 -450 593 -436Q593 -418 611 -389.5Q629 -361 646 -361Q655 -361 671 -369Q651 -402 651 -418Q651 -441 669 -500Q687 -559 687 -581Q687 -599 656 -637Q658 -668 734 -708Q805 -744 843 -744Q905 -744 989.5 -676Q1074 -608 1074 -549V-246L1052 -236Q989 -369 861 -369Q765 -369 628 -250Q610 -264 593 -264Q585 -264 517 -215Q449 -166 376 -164Q380 -105 460 -105Q540 -105 581 -154L601 -137Q591 -51 591 -46Q591 -23 611.5 6Q632 35 654 35Q663 35 671 31Q656 1 656 -37Q656 -62 671.5 -109.5Q687 -157 687 -182Q687 -191 673.5 -213Q660 -235 660 -240Q660 -273 740 -313Q813 -350 853 -350Q916 -350 974 -303Q1029 -258 1051.5 -196.5Q1074 -135 1074 -74V-15L1088 -17V-86Q1088 -147 1101 -189Q1118 -243 1190.5 -295.5Q1263 -348 1320 -348Q1363 -348 1423 -320Q1490 -289 1500 -254Q1467 -205 1467 -195Q1467 -183 1493 -130Q1519 -77 1519 -58Q1519 -37 1504 12Q1508 14 1516 14Q1572 14 1572 -68Q1572 -84 1565.5 -114.5Q1559 -145 1559 -160Q1559 -179 1574 -185Q1587 -173 1624.5 -153Q1662 -133 1676 -133Q1745 -133 1770 -195ZM1727 -12V-27Q1727 -69 1707 -115Q1683 -109 1676 -109Q1641 -109 1588 -144Q1598 -63 1594 -41Q1666 0 1725 0Q1725 -2 1726 -6Q1727 -10 1727 -12ZM566 -1149Q560 -1181 560 -1206Q560 -1226 564 -1247Q530 -1219 462 -1219Q449 -1189 439 -1108L445 -1086Q517 -1100 566 -1149ZM1052 -847V-967Q953 -959 815 -935Q705 -916 700 -916Q682 -916 633 -940Q566 -973 564 -974Q545 -972 488 -959Q440 -948 411 -948Q392 -948 354 -967L345 -951Q406 -921 427 -921Q443 -921 474.5 -924Q506 -927 522 -927Q541 -927 555 -925L575 -888Q533 -842 460 -842Q368 -842 293 -873Q218 -910 143 -948Q132 -946 126 -939Q127 -909 196 -863Q316 -784 443 -784Q500 -784 603 -815.5Q706 -847 737 -847ZM572 -408Q566 -431 566 -458Q566 -478 570 -508Q504 -471 451 -477Q437 -449 437 -416Q437 -364 451 -348Q551 -379 572 -408ZM1246 227Q1246 122 1232 78Q1225 57 1178 31.5Q1131 6 1107 6Q979 6 945 83Q927 124 927 274Q927 321 953 321Q955 315 955 225Q955 151 960 131Q971 86 1015 60.5Q1059 35 1103 35Q1188 35 1210 134Q1219 172 1219 299Q1219 317 1234 325Q1246 317 1246 227ZM572 -15Q565 -42 566 -51L572 -113Q514 -80 449 -80Q437 -66 437 -31Q437 25 451 49Q545 25 572 -15Z"/>
</svg>