<svg viewBox="0 0 8.477875 17.977417"
   xmlns="http://www.w3.org/2000/svg">
  <path
     style="fill:currentColor; stroke:none"
     d=" M 1.561972 11.474111  Q 2.485402 11.454464 3.900019 12.102829  Q 3.880371 11.729527 3.841077 11.572349  Q 3.762487 11.218694 3.123945 10.727508  Q 2.485402 10.236321 1.561972 10.059495  L 1.561972 11.474111  Z  M 6.847136 11.474111  L 6.847136 10.079142  Q 6.139828 10.255969 5.422696 10.727508  Q 4.705564 11.199047 4.626975 11.552701  Q 4.58768 11.729527 4.58768 12.102829  Q 5.628994 11.493758 6.847136 11.474111  Z  M 4.58768 15.167831  Q 5.334283 15.305364 5.648642 15.914434  L 5.648642 17.977417  L 5.098513 17.977417  L 5.098513 16.071615  Q 4.234025 15.344659 3.369538 16.110909  L 3.369538 17.977417  L 2.819409 17.977417  L 2.819409 15.914434  Q 3.133768 15.305364 3.880371 15.187479  Q 3.880371 13.674625 3.841077 13.517446  Q 3.762487 13.163792 3.035531 12.613663  Q 2.308575 12.063535 1.561972 11.984944  L 1.561972 12.79049  L 0.815369 12.79049  L 0.815369 11.886707  L 0.225946 11.827765  Q -0.225946 11.670586 0.225946 11.513406  L 0.815369 11.474111  L 0.815369 9.941609  L 0.225946 9.86302  Q -0.225946 9.725488 0.225946 9.548661  L 0.815369 9.509366  L 0.815369 8.723468  L 1.561972 8.723468  L 1.561972 9.509366  Q 2.799762 9.548661 3.900019 10.138084  L 3.900019 2.809585  Q 3.900019 1.650386 3.497246 1.178847  Q 3.094473 0.707308 2.691701 0.717132  Q 2.288928 0.726956 1.699504 1.139552  L 1.994216 1.689681  L 1.463735 2.043335  L 1.129728 1.473559  L 0.618895 1.807565  Q 0.147356 1.76827 0.284888 1.237789  L 0.815369 0.864488  L 0.520657 0.334007  L 1.070786 0  L 1.365498 0.550129  Q 2.249633 0 2.819409 0.039295  Q 3.389185 0.07859 3.8509 0.550129  Q 4.312615 1.021667 4.450148 1.493206  Q 4.58768 1.964745 4.58768 2.809585  L 4.58768 10.138084  Q 5.609347 9.529014 6.847136 9.529014  L 6.847136 8.723468  L 7.574092 8.723468  L 7.574092 9.509366  L 8.242105 9.568308  Q 8.713644 9.725488 8.242105 9.882668  L 7.574092 9.961257  L 7.574092 11.474111  L 8.242105 11.513406  Q 8.713644 11.670586 8.242105 11.827765  L 7.574092 11.906355  L 7.574092 12.79049  L 6.847136 12.79049  L 6.847136 12.043887  Q 5.923706 12.240361 5.314635 12.702077  Q 4.705564 13.163792 4.626975 13.517446  Q 4.58768 13.674625 4.58768 15.167831  Z " />
</svg>