<svg xmlns="http://www.w3.org/2000/svg" viewBox="0 0 780 1000">
  <g transform="scale(1,-1) translate(0,-1000)">
    <path d="M148 522Q150 448 189.5 368.0Q229 288 304 217Q296 246 296 291Q296 398 365 530L264 646Q262 649 260 655Q258 649 256 646Q223 609 197.0 579.0Q171 549 161.0 537.0Q151 525 148 522ZM503 84Q456 162 456 257Q456 350 497.0 426.0Q538 502 617 539L524 646Q522 649 520 655Q518 649 516 646Q405 518 404 517Q336 390 336 290Q336 195 387 150Q442 113 503 84ZM197 639H63L130 562ZM457 639H323L390 562ZM717 639H583L650 562ZM630 20Q630 12 624.0 6.0Q618 0 610.0 0.0Q602 0 552.5 18.0Q503 36 415.5 86.5Q328 137 263 202Q188 277 148.5 362.0Q109 447 108 526L4 646Q0 651 0.0 659.0Q0 667 6.0 673.0Q12 679 20 679H240Q256 679 260 663Q264 679 280 679H500Q516 679 520 663Q524 679 540 679H760Q768 679 774.0 673.0Q780 667 780.0 659.0Q780 651 776 646Q665 518 664 517Q661 514 657 513L656 512Q613 497 581.0 468.5Q549 440 531.0 405.0Q513 370 504.5 333.0Q496 296 496 258Q496 187 528.0 120.0Q560 53 616 39Q630 34 630 20Z" fill="currentColor"/>
  </g>
</svg>