<svg viewBox="0 0 9.528039 17.040001"
   xmlns="http://www.w3.org/2000/svg">
  <path
     style="fill:currentColor; stroke:none"
     d=" M 5.357796 3.176013  Q 5.551118 2.678898 5.495883 2.071313  Q 5.440648 1.049465 5.385413 0.524733  Q 5.330178 0 5.799676 0  Q 6.241556 0 6.20013 0.524733  Q 6.158703 1.049465 6.075851 2.071313  Q 6.020616 2.706515 6.213938 3.176013  L 7.484344 3.176013  Q 7.677666 2.678898 7.594814 2.071313  Q 7.539578 1.049465 7.484344 0.524733  Q 7.429109 0 7.898606 0  Q 8.368104 0 8.312869 0.524733  Q 8.257634 1.049465 8.174781 2.071313  Q 8.119546 2.706515 8.312869 3.176013  L 8.948071 3.176013  Q 9.251863 3.176013 9.141394 3.507423  Q 8.478574 5.992999 8.975689 7.001037  Q 9.472804 8.009076 9.528039 10.522269  Q 9.417569 12.400259 8.892837 13.974457  Q 8.368104 15.548655 7.235786 17.040001  L 2.264635 17.040001  Q 1.132318 15.548655 0.621394 13.974457  Q 0.11047 12.400259 0 10.522269  Q 0.055235 8.009076 0.538541 7.001037  Q 1.021848 5.992999 0.359028 3.507423  Q 0.248558 3.176013 0.55235 3.176013  L 1.187553 3.176013  Q 1.380875 2.706515 1.32564 2.071313  Q 1.242788 1.049465 1.201361 0.524733  Q 1.159935 0 1.601815 0  Q 2.071313 0 2.029886 0.524733  Q 1.98846 1.049465 1.905608 2.071313  Q 1.850373 2.678898 2.043695 3.176013  L 3.286483 3.176013  Q 3.479805 2.706515 3.424571 2.071313  Q 3.341718 1.049465 3.300292 0.524733  Q 3.258866 0 3.728363 0  Q 4.170243 0 4.128817 0.524733  Q 4.08739 1.049465 4.004538 2.071313  Q 3.949303 2.678898 4.142626 3.176013  L 5.357796 3.176013  Z  M 6.600584 16.101006  Q 8.506191 13.532577 8.506191 10.522269  Q 8.506191 8.119546 8.036694 7.139125  Q 7.567196 6.158703 7.760519 5.482075  Q 7.953841 4.805446 7.953841 4.142626  L 1.54658 4.142626  Q 1.54658 4.805446 1.739903 5.482075  Q 1.933225 6.158703 1.463728 7.139125  Q 0.99423 8.119546 0.99423 10.522269  Q 0.99423 13.532577 2.899838 16.101006  L 6.600584 16.101006  Z " />
</svg>