<svg xmlns="http://www.w3.org/2000/svg" viewBox="0 -2048 2048 2048">
	<path fill="#000000" d="M605 -1473Q605 -1462 583 -1448Q565 -1438 547 -1427Q501 -1391 501 -1371Q501 -1367 527 -1321Q555 -1272 561 -1249Q568 -1222 568 -1191Q568 -1122 521 -1065Q470 -1003 380 -976V321Q367 321 349.5 318.5Q332 316 329 316V-971Q236 -993 180 -1051Q120 -1112 120 -1197Q120 -1229 132 -1255Q140 -1274 172 -1318Q199 -1356 199 -1363Q199 -1381 155 -1428Q127 -1455 100 -1483Q118 -1501 133 -1501Q190 -1501 274 -1428Q282 -1434 318 -1467Q344 -1491 350 -1491Q357 -1491 436 -1428Q466 -1448 496 -1469Q545 -1501 576 -1501Q605 -1501 605 -1473ZM563 -1467Q542 -1459 487 -1429Q439 -1402 433 -1402Q427 -1402 392.5 -1431Q358 -1460 352 -1460Q347 -1460 319 -1434Q286 -1404 274 -1397Q182 -1476 159 -1474H141Q168 -1460 196.5 -1428Q225 -1396 225 -1376Q225 -1369 197 -1318Q163 -1256 153 -1234Q146 -1218 146 -1194Q146 -1209 160 -1139Q173 -1073 239 -1034Q295 -1001 355 -1001Q423 -1001 485.5 -1061Q548 -1121 548 -1194Q548 -1216 535 -1250Q528 -1269 500 -1318Q475 -1362 475 -1366Q475 -1393 512 -1429Q543 -1460 563 -1467ZM359 295V-974H350V295Z"/>
</svg>