<svg xmlns="http://www.w3.org/2000/svg" viewBox="21.8 -1631.2 1472.3 2110.3">
	<path fill="currentColor" d="M1416 -382Q1416 -295 1341 -222Q1273 -156 1182 -136Q1158 -131 762 -70L761 -68Q761 31 823 363Q763 401 736 401Q671 401 644 368Q645 355 648 328Q661 232 674 135Q690 20 690 -59Q638 -52 459 -24Q412 -20 321 -1Q182 44 140 197Q136 219 127 263H100Q100 246 119 178Q151 61 234 13Q292 -20 431 -41Q518 -54 691 -84V-102Q691 -225 656 -305Q638 -345 492 -477Q351 -603 351 -613Q351 -619 365 -654L622 -432Q608 -468 590 -544Q590 -571 575 -623Q551 -663 450 -749Q363 -823 363 -828Q363 -829 366 -856Q374 -864 385 -864L572 -700V-752Q572 -813 580 -854L388 -1045Q400 -1069 410 -1079L584 -922Q588 -951 597 -1008Q611 -1075 611 -1058Q611 -1058 528 -1157.5Q445 -1257 445 -1272Q445 -1300 471 -1300Q482 -1300 627 -1113Q638 -1143 662 -1202L548 -1438V-1453Q558 -1465 572 -1464L589 -1463L694 -1249Q703 -1262 714 -1269V-1525Q730 -1539 737 -1553Q770 -1542 770 -1522V-1269Q782 -1261 791 -1249L896 -1469H917L932 -1448L820 -1205Q831 -1174 853 -1111L999 -1311Q1024 -1299 1025 -1281L868 -1046Q873 -1006 885 -926L979 -1022Q1041 -1085 1054 -1085Q1062 -1085 1069 -1082Q1077 -1070 1076 -1052L894 -864V-688Q906 -708 1077 -876Q1107 -876 1107 -849Q1107 -829 1008 -743Q902 -651 891 -627Q890 -625 875 -536Q867 -488 848 -429L1075 -643Q1088 -642 1103 -631V-606Q975 -476 902 -397Q871 -366 815 -299Q793 -266 762 -92H764Q767 -92 852 -106Q947 -119 1043 -132Q1155 -149 1229 -177Q1286 -199 1346 -259Q1392 -306 1392 -382Q1392 -466 1340.5 -514Q1289 -562 1204 -562Q1197 -562 1173 -554Q1114 -534 1094.5 -504Q1075 -474 1075 -411Q1075 -376 1116 -354Q1149 -337 1188 -337Q1202 -337 1225 -357Q1226 -373 1241 -381L1252 -372V-345Q1194 -311 1175 -311Q1142 -311 1105 -333Q1065 -357 1057 -387Q1050 -412 1050 -436Q1050 -515 1112 -556Q1156 -585 1203 -585Q1349 -585 1395 -477Q1416 -428 1416 -382ZM1053 -592L819 -375Q808 -375 804 -384Q820 -424 846 -505Q854 -566 870 -638Q874 -644 887 -660L882 -656Q868 -657 868 -664V-873L1050 -1062H1049L879 -889Q866 -890 865 -897L844 -1052L936 -1189L842 -1066Q837 -1087 825 -1129Q815 -1156 795 -1209L818 -1258L793 -1207Q784 -1220 765 -1244L759 -1238L743 -1252V-1521L740 -1519V-1255Q722 -1245 691 -1209L574 -1439L686 -1204Q670 -1151 642 -1083Q636 -1076 626 -1077L471 -1273V-1263L635 -1063Q624 -1003 599 -883L461 -1003Q603 -859 603 -857Q603 -848 600.5 -829Q598 -810 598 -801V-669Q591 -659 581 -659L552 -685Q603 -633 607 -605Q612 -562 617 -518Q630 -465 663 -394L650 -381L375 -620L374 -619V-616Q457 -541 540 -465Q664 -350 678 -312Q718 -208 717 -85L738 -89Q745 -137 764 -233Q778 -288 798 -314Q835 -364 1053 -592ZM798 350Q749 112 738 -64L713 -61Q710 4 694 158Q676 338 664 356Q690 375 743 375Q764 375 798 350ZM855 -734Q855 -573 817 -477Q776 -373 734 -348Q694 -372 659 -457Q617 -560 617 -716Q617 -734 620 -763Q624 -798 625 -810Q638 -1048 716 -1183Q717 -1185 743 -1220Q855 -1074 855 -734ZM829 -739Q829 -939 791 -1065Q780 -1105 744 -1184Q740 -1180 737 -1173Q649 -986 649 -819Q649 -802 644.5 -767Q640 -732 640 -715Q640 -513 734 -381Q829 -478 829 -739Z"/>
</svg>