<svg viewBox="0 0 12.532883 8.88"
   xmlns="http://www.w3.org/2000/svg">
  <path
     style="fill:currentColor; stroke:none"
     d=" M 12.532883 8.88  L 11.755884 8.88  Q 11.792885 4.7545 11.413634 3.857251  Q 11.034382 2.960001 10.386883 2.849  Q 10.220383 5.994001 10.479384 8.88  L 0.304383 8.88  Q 0.415383 5.994001 0.332133 3.65375  Q 0.248883 1.3135 0.008383 0.6105  Q -0.084117 -0.0185 0.766883 0  L 10.183383 0  Q 10.775383 0.0555 10.719885 0.6105  Q 10.534883 1.2395 10.405384 2.0905  Q 11.089883 2.183 11.580134 2.812  Q 12.070385 3.441 12.255385 4.44925  Q 12.440383 5.4575 12.532883 8.88  Z  M 9.813382 8.454501  L 9.813382 2.849  L 9.221383 2.849  L 9.221383 8.454501  L 9.813382 8.454501  Z  M 8.629382 8.454501  L 8.629382 2.849  L 8.037383 2.849  L 8.037383 8.454501  L 8.629382 8.454501  Z  M 7.426882 8.454501  L 7.426882 2.849  L 6.834883 2.849  L 6.834883 8.454501  L 7.426882 8.454501  Z  M 2.653883 2.0905  Q 2.653883 1.3135 2.413383 0.6105  L 1.821383 0.6105  Q 2.061883 1.3135 2.061883 2.0905  L 2.653883 2.0905  Z  M 6.242883 8.454501  L 6.242883 2.849  L 5.650883 2.849  L 5.650883 8.454501  L 6.242883 8.454501  Z  M 1.469883 2.0905  Q 1.488383 1.3135 1.210883 0.6105  L 0.618883 0.6105  Q 0.877883 1.3135 0.877883 2.0905  L 1.469883 2.0905  Z  M 5.040383 8.454501  L 5.040383 2.849  L 4.448383 2.849  L 4.448383 8.454501  L 5.040383 8.454501  Z  M 3.856383 8.454501  L 3.856383 2.849  L 3.264383 2.849  L 3.264383 8.454501  L 3.856383 8.454501  Z  M 2.653883 8.454501  L 2.653883 2.849  L 2.061883 2.849  L 2.061883 8.454501  L 2.653883 8.454501  Z  M 1.469883 8.454501  L 1.469883 2.849  L 0.877883 2.849  L 0.877883 8.454501  L 1.469883 8.454501  Z  M 3.856383 2.0905  Q 3.856383 1.3135 3.689883 0.6105  L 3.097883 0.6105  Q 3.264383 1.3135 3.264383 2.0905  L 3.856383 2.0905  Z  M 5.040383 2.0905  Q 5.040383 1.3135 5.040383 0.6105  L 4.448383 0.6105  Q 4.448383 1.3135 4.448383 2.0905  L 5.040383 2.0905  Z  M 6.242883 2.0905  Q 6.242883 1.3135 6.242883 0.6105  L 5.650883 0.6105  Q 5.650883 1.3135 5.650883 2.0905  L 6.242883 2.0905  Z  M 7.426882 2.0905  Q 7.426882 1.3135 7.593384 0.6105  L 7.001383 0.6105  Q 6.834883 1.3135 6.834883 2.0905  L 7.426882 2.0905  Z  M 8.629382 2.0905  Q 8.629382 1.3135 8.869883 0.6105  L 8.277884 0.6105  Q 8.037383 1.3135 8.037383 2.0905  L 8.629382 2.0905  Z  M 9.813382 2.0905  Q 9.813382 1.3135 10.072382 0.6105  L 9.480382 0.6105  Q 9.221383 1.3135 9.221383 2.0905  L 9.813382 2.0905  Z " />
</svg>