<svg xmlns="http://www.w3.org/2000/svg" viewBox="0 -2048 2048 2048">
	<path fill="currentColor" d="M1295 -890Q1295 -842 1250 -842Q1243 -842 1198 -883Q1141 -935 1122 -949H1116Q1269 -730 1269 -661Q1269 -649 1256.5 -632.5Q1244 -616 1232 -616Q1203 -616 1103 -803Q1003 -990 966 -990Q952 -990 949 -976Q916 -803 916 -751V-155Q916 -152 946 -30Q961 38 996 160Q1003 180 1030 232Q1053 278 1053 284Q1053 309 1020 331H134Q100 306 100 279Q100 273 125 217Q154 152 162 128Q248 -130 248 -256V-939Q248 -916 217 -1060Q200 -1138 177 -1202Q116 -1370 116 -1371Q116 -1410 135 -1410H140V-1515H256V-1410H295V-1515H411V-1410H450V-1515H566V-1410H605V-1515H721V-1410H760V-1515H876V-1410H915V-1515H1031V-1410H1033Q1042 -1410 1055.5 -1397.5Q1069 -1385 1069 -1369Q1069 -1366 1054 -1335.5Q1039 -1305 1041 -1295Q1129 -1353 1179 -1353Q1228 -1353 1261.5 -1320.5Q1295 -1288 1295 -1245Q1295 -1144 1158 -1040Q1200 -1006 1242 -972Q1295 -926 1295 -890ZM1005 -1410V-1489H941V-1410ZM1222 -1235Q1222 -1279 1174 -1279Q1143 -1279 1100 -1242Q1054 -1203 1044 -1161Q1037 -1131 1037 -1106Q1037 -1081 1044 -1069Q1097 -1079 1158 -1133Q1222 -1191 1222 -1235ZM850 -1410V-1489H786V-1410ZM1009 -1384H959Q897 -1222 869 -1064H942Q956 -1152 1007 -1286Q1033 -1355 1033 -1362Q1033 -1384 1009 -1384ZM1269 -903Q1250 -938 1206 -977Q1157 -1021 1127 -1021Q1108 -1021 1090 -1003Q1150 -969 1201 -927Q1222 -904 1262 -869ZM695 -1410V-1489H631V-1410ZM932 -1384H833L780 -1064H842Q889 -1267 932 -1384ZM976 -1064V-1084H967V-1064ZM805 -1384H706L691 -1064H752ZM540 -1410V-1489H476V-1410ZM1242 -648V-683Q1242 -715 1109 -920Q1088 -946 1052 -989H1022Q1098 -879 1186 -691Q1195 -672 1223 -648ZM1274 -1242Q1274 -1279 1242.5 -1303Q1211 -1327 1174 -1327Q1144 -1327 1098 -1301.5Q1052 -1276 1034 -1246Q995 -1182 995 -1106Q995 -1076 1002 -1064Q1016 -1064 1016 -1082Q1007 -1125 1033 -1202Q1043 -1232 1094.5 -1269Q1146 -1306 1172 -1306Q1243 -1306 1243 -1235Q1243 -1168 1168 -1109Q1102 -1057 1024 -1042L248 -1036Q254 -1030 254 -1017L882 -1011Q891 -1011 917 -1010Q943 -1009 957 -1009Q1140 -1009 1235 -1144Q1274 -1199 1274 -1242ZM679 -1384H606V-1064H663ZM385 -1410V-1489H321V-1410ZM579 -1064V-1384H517V-1064ZM489 -1064V-1384H406Q420 -1328 426 -1224Q433 -1100 438 -1064ZM230 -1410V-1489H166V-1410ZM410 -1064V-1109Q410 -1179 378 -1384H264Q306 -1286 333 -1064ZM305 -1064V-1098Q305 -1170 267 -1309Q257 -1333 236 -1384H177Q143 -1384 143 -1366Q143 -1356 157 -1322Q212 -1197 243 -1064ZM1027 287Q1008 247 981 181Q957 105 922 -33Q890 -160 890 -171V-708L926 -989H854Q837 -923 823 -712Q811 -526 811 -411Q811 -221 828 -60Q840 52 917 305H1015Q1018 299 1027 287ZM889 305V286Q779 -110 785 -392L790 -634Q796 -717 803 -800Q813 -922 831 -989H764L748 -729L740 -313L775 305ZM747 305L716 -134V-613L742 -989H691L670 -408V305ZM663 -989H601V305H648V-377ZM573 305V-989H522V-282L491 305ZM495 -76V-989H443V-909Q443 -908 450.5 -804Q458 -700 458 -671Q458 -98 375 305H463ZM429 -698L415 -989H348L379 -648Q379 -491 325 -19Q305 159 253 305H347Q414 15 421 -313ZM353 -653L326 -989H259Q274 -929 274 -929V-293Q274 -258 251 -103Q243 -70 230 -9Q220 39 188 123Q178 148 146 221Q121 278 121 284Q121 294 133 305H231Q231 288 238 261Q269 142 309 -55Q325 -196 341 -431Q354 -636 353 -653Z"/>
</svg>