<svg viewBox="0 0 10.180466 9.12"
   xmlns="http://www.w3.org/2000/svg">
  <path
     style="fill:currentColor; stroke:none"
     d=" M 1.187721 0.636279  Q 0.763535 0.636279 0.763535 1.124093  Q 0.763535 1.633117 1.187721 1.633117  Q 1.654326 1.633117 1.654326 1.124093  Q 1.654326 0.636279 1.187721 0.636279  Z  M 3.775257 0.636279  Q 3.35107 0.636279 3.35107 1.124093  Q 3.35107 1.633117 3.775257 1.633117  Q 4.241861 1.633117 4.241861 1.124093  Q 4.241861 0.636279 3.775257 0.636279  Z  M 6.723351 8.398885  Q 6.999071 8.398885 8.027722 5.959815  Q 9.056372 3.520745 9.066978 3.05414  Q 9.077581 2.587535 8.759442 2.587535  L 1.421023 2.587535  Q 1.102884 2.587535 1.113488 3.05414  Q 1.124093 3.520745 2.152745 5.959815  Q 3.181396 8.398885 3.457117 8.398885  L 6.723351 8.398885  Z  M 5.090233 0.636279  Q 5.387163 0.636279 5.588652 0.31814  Q 5.79014 0 6.40521 0  Q 6.999071 0 7.20056 0.31814  Q 7.402049 0.636279 7.720187 0.636279  Q 8.017118 0.636279 8.25042 0.31814  Q 8.483722 0 8.992744 0  Q 9.459348 0 9.724464 0.201488  Q 9.989583 0.402977 10.095629 1.145302  Q 10.180466 1.84521 10.180466 2.587535  Q 8.356465 7.741397 7.168745 9.12  L 3.011721 9.12  Q 1.824 7.741397 0 2.587535  Q 0 1.84521 0.084837 1.145302  Q 0.190884 0.402977 0.456 0.201488  Q 0.721116 0 1.187721 0  Q 1.696744 0 1.930047 0.31814  Q 2.163349 0.636279 2.460279 0.636279  Q 2.778419 0.636279 2.969303 0.31814  Q 3.160187 0 3.775257 0  Q 4.390326 0 4.591814 0.31814  Q 4.793303 0.636279 5.090233 0.636279  Z  M 6.40521 0.636279  Q 5.938606 0.636279 5.938606 1.124093  Q 5.938606 1.633117 6.40521 1.633117  Q 6.829396 1.633117 6.829396 1.124093  Q 6.829396 0.636279 6.40521 0.636279  Z  M 8.992744 0.636279  Q 8.52614 0.636279 8.52614 1.124093  Q 8.52614 1.633117 8.992744 1.633117  Q 9.41693 1.633117 9.41693 1.124093  Q 9.41693 0.636279 8.992744 0.636279  Z " />
</svg>