<svg xmlns="http://www.w3.org/2000/svg" viewBox="37.6 -1198.4 1684.8 1353.8">
	<path fill="currentColor" d="M1660 -698Q1429 -376 1299 93H489Q357 -278 347 -302Q248 -534 100 -698L113 -712Q119 -712 136 -695Q135 -774 188.5 -839Q242 -904 314 -904Q326 -904 386 -874Q382 -899 379 -953Q383 -1017 437 -1052Q522 -1107 564 -1107Q635 -1107 705 -1008Q740 -1082 774.5 -1109Q809 -1136 871 -1136Q1012 -1136 1043 -991Q1107 -1078 1187 -1078Q1253 -1078 1302 -1031Q1351 -984 1351 -915Q1351 -877 1334 -839Q1424 -869 1445 -869Q1515 -869 1568 -814Q1621 -759 1613 -698Q1614 -692 1617 -683Q1628 -695 1645 -712ZM1590 -698Q1590 -725 1582 -751Q1573 -782 1543 -802Q1479 -846 1442 -846Q1350 -846 1298 -716Q1289 -694 1289 -686Q1289 -657 1333 -602Q1381 -544 1419 -544H1454Q1498 -544 1546 -602Q1590 -657 1590 -698ZM1329 -909Q1329 -958 1293 -1001Q1251 -1049 1190 -1049Q1126 -1049 1081 -998Q1039 -951 1039 -895Q1039 -840 1081 -798Q1126 -753 1190 -753Q1243 -753 1287 -807Q1329 -857 1329 -909ZM1520 -537Q1430 -519 1422 -519Q1443 -502 1454 -471Q1460 -453 1466 -434Q1484 -471 1520 -537ZM1306 -580Q1265 -642 1265 -692Q1265 -719 1276 -752Q1201 -721 1167 -728Q1185 -712 1202 -671Q1219 -630 1219 -608Q1219 -580 1208 -551Q1269 -575 1306 -580ZM1016 -970Q1016 -1028 974 -1070Q932 -1112 874 -1112Q806 -1112 766 -1059Q732 -1013 732 -953Q732 -902 777.5 -859.5Q823 -817 874 -817Q937 -817 978 -864Q1016 -909 1016 -970ZM1048 -780Q1025 -812 1014 -857Q951 -789 842 -792Q874 -752 897 -706Q912 -722 939 -745Q999 -782 1036 -782Q1045 -782 1048 -780ZM1434 -408Q1434 -461 1386.5 -505.5Q1339 -550 1286 -550Q1233 -550 1185.5 -506Q1138 -462 1138 -411Q1138 -355 1176 -308Q1219 -254 1286 -254Q1348 -254 1391 -301Q1434 -348 1434 -408ZM1190 -602Q1190 -660 1147 -706.5Q1104 -753 1042 -753Q992 -753 948 -716Q900 -676 900 -622Q900 -558 938 -511Q980 -457 1051 -457Q1094 -457 1140 -499Q1190 -546 1190 -602ZM761 -836Q723 -874 717 -892Q706 -859 686 -829Q721 -836 761 -836ZM1380 -253Q1330 -226 1254 -229Q1326 -188 1326 -97Q1362 -205 1380 -253ZM697 -936Q697 -977 658 -1024Q614 -1078 561 -1078Q536 -1078 486 -1050Q436 -1022 426 -1007Q407 -976 407 -930Q407 -868 454 -825Q501 -782 561 -782Q611 -782 655 -836Q697 -886 697 -936ZM1178 -261Q1113 -323 1113 -395Q1113 -416 1119 -451Q1058 -427 1016 -432Q1062 -402 1062 -312Q1062 -273 1040 -220Q1044 -222 1100 -247Q1137 -264 1160 -264Q1170 -264 1178 -261ZM871 -666Q871 -714 835 -757Q795 -805 738 -805Q682 -805 635 -772Q581 -734 581 -672Q581 -613 612 -574Q627 -555 670 -535Q713 -515 738 -515Q787 -515 829 -563Q871 -611 871 -666ZM1294 -97Q1294 -138 1259 -185Q1220 -237 1173 -237Q1121 -237 1068 -202Q1004 -160 1004 -95Q1004 59 1149 59Q1209 59 1251.5 12Q1294 -35 1294 -97ZM1287 25Q1271 38 1242 64H1282Q1282 59 1284.5 45Q1287 31 1287 25ZM1039 -303Q1039 -352 1001 -401Q957 -457 897 -457Q839 -457 791 -413Q743 -369 743 -315Q743 -255 786 -208Q829 -161 894 -161Q946 -161 992.5 -204Q1039 -247 1039 -303ZM465 -721Q465 -773 417 -824Q369 -875 317 -875Q269 -875 217 -829Q163 -780 163 -730Q163 -669 206.5 -624Q250 -579 317 -579Q371 -579 418 -622Q465 -665 465 -721ZM923 -482Q882 -523 880 -590Q840 -486 738 -486Q703 -486 669 -503Q677 -480 681 -448Q685 -414 677 -362Q672 -327 612 -286Q556 -248 525 -248H489Q429 -248 384 -310Q343 -367 343 -425Q343 -490 395 -543Q447 -596 517 -596Q524 -596 546 -594Q568 -592 575 -592Q552 -638 552 -666Q552 -687 580 -757Q521 -752 484 -775Q490 -747 490 -722Q490 -639 426 -591Q373 -550 306 -550Q300 -550 234 -572Q358 -377 451 -97Q477 -260 642 -260Q695 -260 736 -226Q714 -285 714 -315Q714 -379 774 -431Q838 -486 923 -482ZM656 -425Q656 -482 620 -525Q580 -573 514 -573Q455 -573 413.5 -523.5Q372 -474 372 -419Q372 -277 520 -277Q581 -277 620 -325Q656 -369 656 -425ZM1051 63Q1016 46 994 -9Q975 -57 975 -103Q975 -128 986 -161Q957 -132 894 -132Q843 -132 791 -166Q803 -143 803 -113Q803 -60 771.5 -5.5Q740 49 703 63ZM772 -97Q772 -144 733 -189Q690 -237 636 -237Q577 -237 529.5 -194.5Q482 -152 482 -95Q482 -31 524 11Q566 53 630 53Q687 53 729.5 6Q772 -41 772 -97ZM542 64Q525 50 497 25Q497 31 499.5 45Q502 59 502 64Z"/>
</svg>