<svg xmlns="http://www.w3.org/2000/svg" viewBox="0 -2048 2048 2048">
	<path fill="#000000" d="M1963 -336Q1963 -295 1935 -256Q1903 -212 1850 -202L403 -199Q507 -72 507 -52V-26Q494 -27 476 -9Q343 -132 100 -251Q114 -276 165 -299Q187 -310 234 -331Q384 -396 447 -452Q473 -475 481 -475Q512 -475 512 -439Q512 -410 469 -366Q436 -334 403 -302L1823 -299Q1881 -316 1881 -343Q1881 -367 1835 -397Q1818 -408 1783 -408Q1773 -408 1754.5 -403Q1736 -398 1726 -398Q1706 -398 1695 -448Q1695 -499 1773 -499Q1856 -499 1907 -458Q1963 -414 1963 -336ZM1931 -350Q1931 -467 1775 -467Q1747 -467 1728 -453Q1729 -451 1731 -445L1733 -438V-437Q1760 -441 1785 -441Q1831 -441 1867 -419Q1909 -393 1909 -349Q1909 -337 1908 -334L1907 -331Q1902 -321 1878 -296Q1854 -271 1843 -271H363Q347 -287 347 -293Q454 -382 472 -433Q336 -343 146 -255Q314 -187 459 -68Q439 -96 401 -151Q357 -214 357 -224Q357 -243 367 -235H1858Q1868 -235 1894 -258Q1925 -285 1929 -311Q1931 -325 1931 -350Z"/>
</svg>