<svg xmlns="http://www.w3.org/2000/svg" viewBox="0 -2048 2048 2048">
	<path fill="currentColor" d="M2173 -993Q2173 -971 2164 -961Q2048 -933 1893 -823Q1718 -700 1662 -532Q1637 -457 1647 -367Q1648 -360 1654.5 -341Q1661 -322 1661 -316V-287H1618Q1591 -287 1573 -342Q1558 -387 1558 -421Q1558 -405 1609 -662Q1592 -680 1581 -680Q1556 -680 1412 -575Q1311 -494 1209 -414Q1070 -309 982 -293Q866 -272 775 -249Q423 -159 278 74Q269 88 252 96Q240 93 224 67.5Q208 42 208 31Q208 9 253 -48Q318 -131 434 -205Q533 -268 614 -293Q695 -318 872 -373Q943 -391 1014 -410Q1097 -439 1123 -511Q1108 -530 1095 -530Q1080 -530 962 -501.5Q844 -473 689 -473Q502 -473 337 -523Q138 -584 100 -689Q124 -701 131 -701Q149 -701 230 -664Q322 -622 330 -619Q482 -571 674 -571Q743 -571 934 -604Q997 -615 1112 -681Q1209 -739 1306 -797Q1465 -888 1647 -942Q1728 -962 1895 -1022Q1945 -1045 2022 -1094Q2120 -1157 2146 -1171ZM2147 -981V-1030Q2146 -1006 2125 -1135Q1964 -1026 1875 -991Q1821 -970 1590 -900Q1469 -863 1290 -760Q1204 -707 1118 -654Q996 -585 919 -578Q877 -574 761 -562Q660 -551 655 -551Q380 -551 171 -662Q150 -673 126 -673Q197 -585 377 -538Q525 -499 694 -499Q886 -499 992 -526Q1110 -556 1100 -556Q1144 -556 1144 -514Q1144 -441 1023 -394Q950 -373 877 -352Q786 -326 629 -275Q396 -189 264 -22Q234 16 234 36Q234 54 258 64Q260 61 319 -19Q447 -192 816 -280Q867 -289 956 -309Q1066 -339 1138 -387Q1243 -472 1348 -556Q1533 -701 1581 -701Q1593 -701 1616 -690Q1645 -676 1645 -657Q1645 -651 1631 -615Q1615 -573 1611 -559Q1583 -451 1583 -419Q1583 -318 1640 -314Q1620 -384 1620 -424Q1620 -594 1786 -764Q1946 -927 2147 -981Z"/>
</svg>