<svg xmlns="http://www.w3.org/2000/svg" viewBox="0 -2048 2048 2048">
	<path fill="currentColor" d="M2134 278L2121 338H2107Q2068 338 1786 31Q1978 293 1986 346Q1945 350 1911 350H1908Q1718 350 1585 248L1403 -64L1294 -133L1323 84L1310 94Q1228 12 1132 -15Q1133 22 1140 115Q1149 224 1156 231Q1223 239 1290 248Q1420 269 1444 334L1437 346Q1290 342 759 342L762 336Q749 337 735 346Q701 346 630 344Q559 342 524 342Q498 342 446.5 345.5Q395 349 369 349Q352 349 322 344Q288 339 276 338L270 323Q337 266 446 266Q489 266 657 235Q723 188 723 -153Q723 -291 690 -445Q630 -425 575 -409Q376 -352 252 -352Q213 -352 167 -370Q110 -393 110 -426Q110 -438 114 -456Q134 -463 151 -463Q168 -463 202.5 -457.5Q237 -452 254 -452Q324 -452 395 -477Q220 -589 124 -808Q100 -863 100 -868Q100 -917 141 -917Q142 -917 147 -915Q190 -826 304 -688Q438 -526 503 -526Q554 -526 661 -562Q646 -611 612 -649Q457 -821 435 -858Q376 -957 376 -1127Q376 -1308 450 -1514H835Q893 -1365 897 -1182Q1051 -1108 1177 -1014Q1276 -940 1343 -840Q1383 -781 1448 -681Q1472 -680 1489 -680Q1596 -680 1952 -711Q2044 -719 2052 -719Q2114 -719 2121 -624Q2121 -624 2121 -606Q2087 -568 2009 -565Q1851 -557 1536 -547Q1613 -433 1839 -138Q2035 118 2134 278ZM1425 -682Q1282 -907 1147 -1002Q1072 -1014 1022 -1014Q862 -1014 784 -953L753 -877L758 -856Q882 -790 989 -764Q1145 -726 1205 -713Q1328 -688 1425 -682ZM1112 -1030Q1026 -1095 872 -1166Q872 -1324 819 -1489H467Q401 -1295 401 -1116Q401 -1030 422 -959Q456 -844 653 -643L714 -581Q803 -615 866 -647L843 -664Q824 -678 800 -705Q669 -758 622 -842Q610 -864 610 -870Q610 -887 620 -903Q642 -909 649 -909Q655 -909 725 -874L731 -871L729 -881L764 -969Q846 -1037 1002 -1037Q1048 -1037 1112 -1030ZM2109 282Q2063 202 2017 139Q1840 -85 1510 -547H1482Q1420 -547 1329 -513Q1254 -483 1178 -453L1593 -158Q1722 -66 1843 53Q1909 123 1974 194Q2073 299 2103 313ZM2095 -622Q2095 -694 2052 -694Q2021 -694 1886 -682Q1605 -657 1484 -657Q1221 -657 901 -762Q876 -770 763 -829Q663 -881 637 -882Q637 -852 696 -801Q767 -741 956 -682L960 -667Q642 -502 501 -502Q481 -502 442 -526Q304 -611 184 -809Q168 -836 131 -887L125 -868Q141 -828 178 -751Q242 -630 438 -467L436 -463Q335 -428 252 -428Q236 -428 205.5 -433Q175 -438 159 -438Q143 -438 135 -434Q138 -411 184 -392Q223 -377 252 -377Q443 -377 650 -454Q836 -534 1022 -614Q1034 -619 1056 -631Q1080 -627 1187 -623Q1267 -620 1317 -602L1319 -586Q1254 -573 1190 -544Q1106 -507 1087 -465L1091 -456Q1114 -457 1224 -504Q1381 -571 1507 -571Q1542 -571 2007 -590Q2095 -594 2095 -622ZM1243 -592L1079 -604Q1067 -605 1003 -577Q1030 -558 1084 -520L1092 -514Q1140 -561 1243 -592ZM909 -672Q891 -676 863 -684Q872 -676 890 -661Q897 -665 909 -672ZM1956 323Q1893 223 1829 123Q1753 9 1683 -62Q1636 -109 1549 -163Q1428 -239 1407 -254L1148 -443Q1109 -431 1081 -428L1058 -463Q1064 -479 1076 -495L978 -566Q964 -560 884 -522Q852 -507 803 -487Q1009 -258 1028 24Q1036 141 1036 211L1007 264L800 280Q786 281 786 296Q786 299 787 306Q788 313 788 317H1370Q1367 288 1287 272Q1233 261 1183 260Q1176 262 1165 262Q1154 262 1140.5 251.5Q1127 241 1126 231L1110 -37L1116 -45Q1151 -37 1212 -7Q1279 27 1296 49L1265 -156L1280 -172L1423 -80L1601 231Q1653 266 1749.5 295.5Q1846 325 1908 325Q1938 325 1956 323ZM689 -572L682 -580L685 -571ZM1005 65Q989 -197 860 -379Q830 -421 779 -477Q740 -462 715 -453Q747 -306 747 -170Q747 192 669 260L465 291L458 317H585L639 276L784 258L823 -47L831 -53Q944 -4 1005 65ZM1011 200V171Q1011 148 1007 92L1003 96Q921 10 841 -21L809 254L991 239Q1000 225 1011 200ZM759 284L651 301L649 321L727 317ZM436 303Q419 303 407 319L432 317ZM397 295Q377 297 342 307L340 317H376Q383 309 397 295ZM837 -1352L817 -1338L766 -1417L719 -1346L698 -1360L766 -1462ZM807 -1260Q807 -1243 790.5 -1227Q774 -1211 757 -1211Q741 -1211 724.5 -1228.5Q708 -1246 708 -1262Q740 -1313 759 -1313Q768 -1313 787.5 -1291Q807 -1269 807 -1260ZM587 -1368L567 -1354L520 -1422L473 -1350L452 -1364L520 -1467ZM698 -1295L643 -1086Q628 -1086 620 -1084L579 -1301L604 -1305L632 -1149L673 -1301ZM566 -1270Q566 -1213 517 -1213Q468 -1231 468 -1266Q468 -1319 525 -1327Q537 -1322 551.5 -1302Q566 -1282 566 -1270ZM782 -1260Q773 -1270 757 -1286Q735 -1264 735 -1260Q735 -1235 753 -1235Q760 -1235 771 -1244Q782 -1253 782 -1260ZM542 -1268Q534 -1288 521 -1299Q514 -1299 503 -1286.5Q492 -1274 492 -1266Q492 -1243 511 -1243L513 -1241Q542 -1241 542 -1268Z"/>
</svg>