<svg xmlns="http://www.w3.org/2000/svg" viewBox="0 -2048 2048 2048">
	<path fill="currentColor" d="M1699 62Q1671 96 1586 103Q1376 120 1206 120Q1198 120 1181 118.5Q1164 117 1156 117Q1117 117 1012 159Q1010 160 949 191Q953 211 963 251Q977 291 1005 370Q1010 376 1010 385Q1010 397 1001 397H760L748 385Q766 333 784 280Q805 216 804 174V99Q602 184 512 213Q342 268 205 268Q181 268 146 250Q106 229 106 208Q106 175 151 175Q164 175 189 179.5Q214 184 227 184Q231 184 330 165Q261 130 175 19Q162 3 131 -58.5Q100 -120 100 -134V-141Q100 -158 135 -178Q172 -120 252 -9Q365 127 427 127Q520 127 738 19Q705 11 640 -9Q614 -19 562 -62Q505 -110 505 -130Q505 -136 506.5 -147Q508 -158 508 -163Q513 -163 523.5 -164.5Q534 -166 539 -166Q540 -166 653 -106Q738 -61 813 -48H815Q818 -61 824 -103Q791 -136 728 -179Q702 -187 645.5 -185Q589 -183 562 -192Q553 -195 521.5 -219Q490 -243 489 -243Q468 -243 426 -240.5Q384 -238 363 -238Q465 -266 492 -266Q496 -266 527.5 -240.5Q559 -215 572 -212Q576 -211 620 -211Q706 -211 742 -198Q758 -192 825 -130Q825 -137 824 -158Q824 -175 824 -186Q824 -201 829 -227Q834 -253 834 -265Q834 -278 793 -306Q764 -337 700 -381Q680 -388 638.5 -387Q597 -386 578 -392Q567 -395 535 -418Q507 -437 481.5 -457Q456 -477 438 -510Q480 -480 521 -449Q576 -413 613 -410Q599 -411 665 -411Q710 -411 757 -373Q794 -339 832 -304Q840 -333 840 -345Q840 -380 825 -403Q819 -412 773 -451Q727 -490 717 -494Q712 -496 607 -496Q584 -496 420 -633L428 -645L609 -519Q719 -519 732 -512Q776 -474 820 -436Q810 -484 810 -496Q810 -504 811.5 -520.5Q813 -537 813 -545Q813 -560 807 -573Q798 -591 728 -659Q658 -727 638 -738Q624 -746 597 -746Q542 -746 496 -721Q477 -711 411 -661Q463 -735 517 -758Q488 -774 459 -789Q436 -805 418 -843Q423 -841 487 -796Q529 -766 563 -766Q571 -766 586.5 -767Q602 -768 610 -768Q635 -768 651 -759Q687 -739 734 -688Q771 -646 808 -605Q849 -740 849 -771Q849 -778 821 -817Q793 -856 787 -858Q767 -864 686 -864Q605 -864 558 -885Q524 -901 491 -945Q464 -983 437 -1020L448 -1029Q466 -1006 503 -962Q560 -896 641 -886Q720 -881 800 -877Q816 -858 852 -811V-828Q852 -889 846 -949Q749 -981 745 -982Q704 -1000 656 -1043Q639 -1064 603 -1106Q563 -1110 555 -1110Q543 -1110 520.5 -1102Q498 -1094 486 -1094Q471 -1094 456 -1100Q486 -1111 547 -1131Q547 -1131 592 -1131Q572 -1175 533 -1213Q577 -1205 611 -1140Q619 -1125 644 -1093Q651 -1084 698 -1041Q730 -1012 766.5 -999.5Q803 -987 841 -975Q841 -1023 846 -1082Q801 -1129 755 -1176Q702 -1230 654 -1258Q636 -1269 585 -1276Q541 -1283 522 -1301H585Q688 -1301 834 -1126Q822 -1166 822 -1174Q822 -1192 829 -1225.5Q836 -1259 837 -1275Q796 -1333 771 -1352Q728 -1384 659 -1394Q652 -1395 538 -1404Q593 -1421 656 -1421Q676 -1421 723 -1401Q767 -1383 786 -1369.5Q805 -1356 840 -1304Q846 -1326 855 -1420Q831 -1438 711 -1531V-1556L870 -1436L1056 -1565Q1018 -1507 929 -1450Q910 -1442 885 -1421Q874 -1398 874 -1321V-1292Q908 -1337 937 -1348Q977 -1358 1017 -1368Q1019 -1371 1029 -1389Q1044 -1415 1082 -1440Q1105 -1457 1130.5 -1474Q1156 -1491 1183 -1490Q1145 -1462 1107 -1433Q1063 -1399 1042 -1365Q1145 -1341 1176 -1341Q1192 -1341 1221.5 -1348.5Q1251 -1356 1267 -1356Q1282 -1356 1306 -1351Q1263 -1341 1177 -1318L1018 -1345Q989 -1341 934 -1321Q930 -1319 872 -1256Q866 -1214 866 -1180Q866 -1127 883 -1107Q897 -1167 958 -1220Q976 -1236 1009 -1250Q1060 -1272 1064 -1274H1101Q1054 -1249 1006 -1223Q963 -1198 928 -1146Q916 -1127 889 -1089Q891 -1082 891 -1072Q891 -1062 887.5 -1043Q884 -1024 884 -1014Q884 -1008 889 -967Q960 -982 1011 -1033Q1045 -1066 1094 -1147Q1116 -1186 1137 -1225Q1160 -1259 1205 -1284Q1187 -1257 1151 -1202H1162Q1192 -1202 1234.5 -1216.5Q1277 -1231 1287 -1231Q1304 -1231 1304 -1215Q1244 -1190 1228 -1186Q1195 -1176 1146 -1175H1137Q1077 -1077 1064 -1058Q1012 -985 967 -966Q966 -966 926 -956Q893 -948 893 -944L905 -800Q941 -801 1003.5 -888.5Q1066 -976 1145 -976Q1156 -976 1177.5 -974Q1199 -972 1210 -972Q1216 -972 1233 -973Q1249 -1004 1317 -1120L1330 -1113L1265 -986Q1297 -999 1361 -1023L1367 -1010Q1253 -948 1215 -948Q1202 -948 1177.5 -950.5Q1153 -953 1140 -953Q1113 -953 1094 -943Q1042 -880 954 -792Q936 -789 902 -775Q893 -703 868 -625Q893 -647 943 -689Q958 -701 1029 -734Q1100 -767 1113 -767Q1122 -767 1219 -720L1338 -805L1347 -794Q1240 -696 1220 -696Q1213 -696 1170.5 -718.5Q1128 -741 1111 -741Q1095 -741 1038 -714Q986 -689 965 -675Q956 -669 863 -592Q867 -554 876 -479Q917 -492 995 -525Q1032 -558 1111 -607Q1126 -607 1157.5 -602.5Q1189 -598 1206 -598Q1218 -598 1277 -623Q1340 -650 1358 -653Q1359 -651 1359 -646Q1359 -636 1355 -632Q1351 -628 1282.5 -601.5Q1214 -575 1209 -575Q1192 -575 1160.5 -579.5Q1129 -584 1114 -584Q1036 -523 1002 -505Q968 -487 876 -458Q909 -332 909 -339Q909 -329 906 -310Q948 -367 1021 -444Q1027 -448 1040 -448Q1068 -448 1124.5 -444.5Q1181 -441 1209 -441Q1235 -441 1288 -478Q1306 -490 1363 -519Q1349 -501 1302 -461Q1250 -418 1236 -418H1033L903 -274Q907 -237 915 -164Q982 -225 1085 -308Q1097 -315 1104 -314L1198 -296Q1224 -307 1333 -356H1367Q1314 -317 1200 -273Q1108 -291 1100 -291Q1039 -239 918 -136Q923 -85 926 -45L928 -42Q934 -56 1041 -167L1128 -145Q1246 -210 1338 -249L1363 -241Q1328 -225 1260 -191Q1207 -163 1134 -122L1049 -142Q1010 -102 930 -25L931 -24Q979 -11 1073 3Q1207 7 1328 7Q1334 7 1429 -2L1642 -22Q1674 -23 1685 15Q1690 31 1699 62ZM906 -29V-43Q906 -48 903 -71Q880 -251 880 -287Q880 -297 882.5 -316.5Q885 -336 885 -346Q885 -361 871 -399Q855 -442 853 -456Q840 -531 840 -597Q840 -602 852 -642Q882 -742 882 -799Q882 -894 864 -980Q875 -851 875 -807Q875 -762 852.5 -675.5Q830 -589 830 -544Q830 -424 858 -362Q863 -351 863 -348Q863 -341 859 -327Q855 -313 855 -306Q855 -291 853 -262Q851 -233 851 -218V-98Q851 -100 837 -44ZM998 82Q967 78 959 78H944Q937 78 933 80L936 108Q956 95 998 82ZM1678 58Q1672 39 1664 20Q1656 1 1635 2H1629L1423 20Q1320 29 1320 29H1081Q1076 29 1034 20Q943 2 853 -16Q748 -39 676 -69Q607 -106 537 -143Q528 -143 528 -134Q528 -116 580 -74Q628 -35 651 -28Q698 -15 791 12Q728 52 612 98Q483 150 426 150Q407 150 373 129Q248 52 128 -149Q126 -147 126 -140Q126 -89 193 3Q251 82 304 125Q331 141 384 175L230 207Q217 207 190.5 202.5Q164 198 151 198Q151 198 130 201L129 205Q143 245 240 245Q248 245 307 237Q508 210 804 73Q852 51 878 51Q983 51 1081 74Q1027 94 973 115Q906 144 882 178L886 184Q911 184 946 166Q998 139 1003 137Q1118 94 1157 94Q1328 94 1485 87Q1543 87 1645 78Q1651 77 1678 58ZM982 371Q959 315 928 200Q887 207 882 207Q858 207 858 179Q858 147 912 123Q911 81 911 78H849Q847 78 827 88Q827 101 828 127.5Q829 154 829 168Q829 210 811 271Q794 321 778 371Z"/>
</svg>