<svg xmlns="http://www.w3.org/2000/svg" viewBox="26.3 -1573.7 826.4 1989.4">
	<path fill="currentColor" d="M779 -903Q779 -881 757 -848Q657 -867 470 -1069V-33Q510 -27 574 -34V-7Q567 31 553 39Q578 46 605 93Q632 140 632 166Q632 176 612 230Q570 342 421 342Q336 342 281 308Q211 265 211 179Q211 141 249 75Q254 66 295 39Q285 37 264 30V-31H391V-1058Q232 -863 145 -863Q100 -863 100 -903Q100 -951 201 -1052Q236 -1087 254 -1098Q293 -1119 374 -1166Q241 -1287 223 -1307Q137 -1398 137 -1461Q137 -1467 140 -1481Q143 -1495 143 -1500H186Q249 -1500 333 -1388Q383 -1310 434 -1232Q473 -1303 547 -1386Q648 -1500 713 -1500Q753 -1500 753 -1471Q753 -1418 640 -1275Q609 -1236 566 -1206Q505 -1165 500 -1161Q641 -1078 664 -1062Q779 -977 779 -903ZM753 -880V-919Q753 -971 618 -1060Q601 -1072 467 -1149Q453 -1160 453 -1165Q491 -1188 552 -1229Q601 -1267 659 -1340Q727 -1425 727 -1464Q727 -1466 714 -1479Q638 -1460 557 -1358Q493 -1276 429 -1195Q424 -1202 347 -1325Q298 -1404 253.5 -1439Q209 -1474 192 -1474H159V-1455Q174 -1398 297 -1280Q416 -1165 416 -1158Q416 -1153 349 -1119Q276 -1083 275 -1082Q256 -1068 200 -1012Q127 -938 127 -913V-890H165Q204 -890 318 -1013Q397 -1098 429 -1142L439 -1133H447Q507 -1068 568 -1003Q690 -880 730 -880ZM547 10V-5H439V-1111Q431 -1106 421 -1099V-5H291V10ZM606 166Q606 107 546 66Q495 31 442 31Q298 31 270 85Q237 149 237 187Q237 212 256 246Q278 286 308 293Q435 321 437 321Q449 321 489 306Q534 289 557 272Q587 250 598 214Q606 187 606 166Z"/>
</svg>