<svg viewBox="0 0 8.161959 17.977417"
   xmlns="http://www.w3.org/2000/svg">
  <path
     style="fill:currentColor; stroke:none"
     d="M 3.799532,9.051532 L 3.799532,7.423161 C 3.223236,7.423161 2.935088,7.6845043 2.935088,8.207191 C 2.935088,8.783487 3.223236,9.064934 3.799532,9.051532 z M 4.522736,15.826359 C 5.2732607,15.826359 6.07121,16.067599 7.116584,16.550079 L 8.001132,16.690804 C 8.2155673,16.838228 8.2155673,16.992353 8.001132,17.153179 L 7.116584,17.2738 C 5.119652,18.211956 3.1227197,18.211956 1.125787,17.2738 L 0.140723,17.153179 C -0.046907667,16.992353 -0.046907667,16.838228 0.140723,16.690804 L 1.125787,16.550079 C 2.144357,16.067599 3.0356053,15.826359 3.799532,15.826359 L 3.799532,9.634528 C 2.834572,9.634528 2.352092,9.158749 2.352092,8.207191 C 2.365494,7.295839 2.847974,6.840163 3.799532,6.840163 L 3.799532,2.276704 C 3.799532,1.4323633 4.1010823,0.78905633 4.704183,0.346783 C 5.307283,-0.095491 6.1717267,-0.11559433 7.297514,0.286473 C 7.5521567,0.35348367 7.672777,0.46070133 7.659375,0.608126 C 7.5923637,0.76895267 7.444939,0.80915933 7.217101,0.728746 C 6.1449223,0.46070133 5.5111503,0.470753 5.115785,0.758901 C 4.720419,1.047049 4.522736,1.7004077 4.522736,2.718977 L 4.522736,15.826359 z M 1.829404,16.952147 C 3.3572587,17.488236 4.885113,17.488236 6.412967,16.952147 L 6.412967,16.871733 C 4.885113,16.335643 3.3572587,16.335643 1.829404,16.871733 L 1.829404,16.952147 z " />
</svg>