<svg xmlns="http://www.w3.org/2000/svg" viewBox="0 -2048 2048 2048">
	<path fill="currentColor" d="M1923 -14Q1923 -6 1885 26Q1823 78 1708 119Q1598 159 1528 159Q1498 159 1485 152V133Q1507 117 1533.5 84Q1560 51 1560 36Q1560 33 1539 -20Q1515 -78 1508 -105Q1506 -113 1506 -135Q1506 -157 1508 -165Q1512 -179 1529 -210Q1544 -238 1544 -245Q1544 -309 1435 -371Q1352 -418 1316 -422Q1257 -429 1258 -429Q1131 -429 1041 -303V329Q1026 332 1000 340Q1000 338 994 331Q988 324 988 316V-313Q930 -376 886 -399Q837 -424 760 -424Q690 -424 601 -385Q573 -373 532 -328Q485 -277 485 -245Q485 -238 504 -185Q523 -132 523 -125Q523 -118 496 -43.5Q469 31 469 38Q469 68 490 86Q528 116 544 140Q523 159 499 159Q428 159 273 99Q100 31 100 -23Q100 -31 106 -39Q112 -47 112 -49Q130 -44 164 -44Q197 -44 202 -50Q230 -98 289 -193Q308 -222 345 -240.5Q382 -259 412 -254Q532 -488 758 -488Q885 -488 986 -402V-934Q871 -1039 785 -1039Q758 -1039 695 -1010Q656 -992 617 -973Q605 -968 574.5 -929Q544 -890 544 -876Q544 -870 558 -849Q574 -825 579 -813Q581 -808 581 -785Q581 -764 579 -757Q573 -737 551 -682Q533 -637 533 -630Q533 -613 556 -591Q591 -558 603 -540Q598 -520 557 -520Q565 -520 493 -527Q456 -531 337 -587Q207 -649 207 -681Q207 -694 220 -707Q225 -707 239.5 -704.5Q254 -702 261 -702Q292 -702 307 -722Q341 -777 376 -831Q427 -900 486 -895Q524 -988 611 -1043Q688 -1092 769 -1092Q819 -1092 872 -1070Q878 -1068 985 -1017Q988 -1020 988 -1163Q950 -1177 918.5 -1219Q887 -1261 882 -1303Q885 -1332 884 -1389Q879 -1420 832 -1443Q771 -1472 769 -1474Q769 -1485 786 -1496Q839 -1531 1014 -1531Q1129 -1531 1255 -1508V-1468Q1250 -1464 1196 -1443Q1158 -1428 1149 -1399Q1144 -1334 1138 -1268Q1124 -1180 1041 -1168L1045 -1017Q1138 -1092 1250 -1092Q1275 -1092 1322 -1085Q1375 -1077 1446 -1013.5Q1517 -950 1537 -890Q1540 -890 1578 -882.5Q1616 -875 1670 -786Q1720 -702 1760 -702Q1784 -702 1804 -707Q1816 -695 1816 -681Q1816 -662 1759 -623Q1716 -594 1697 -586Q1547 -521 1498 -521H1432Q1432 -523 1429 -525.5Q1426 -528 1426 -536Q1426 -544 1429.5 -547Q1433 -550 1433 -551Q1490 -608 1490 -627Q1490 -634 1466 -711.5Q1442 -789 1442 -796Q1442 -827 1461 -851Q1480 -875 1480 -873Q1480 -908 1407 -966Q1349 -1013 1326 -1021Q1274 -1039 1247 -1039Q1164 -1039 1088 -971Q1070 -955 1041 -918L1045 -397Q1152 -488 1276 -488Q1310 -488 1376 -475Q1446 -461 1517 -392Q1583 -328 1607 -259Q1642 -263 1687.5 -231.5Q1733 -200 1755 -155Q1767 -127 1778 -100Q1795 -65 1820 -51Q1833 -44 1867 -44Q1920 -44 1923 -43ZM1226 -1486Q1059 -1509 993 -1509Q872 -1509 811 -1479Q830 -1481 871.5 -1442.5Q913 -1404 911 -1384Q906 -1316 904 -1324Q928 -1189 1020 -1189Q1096 -1189 1113 -1286Q1123 -1353 1133 -1420Q1153 -1457 1181 -1469Q1204 -1478 1226 -1486ZM1781 -674Q1772 -673 1763 -673Q1706 -673 1657 -757Q1604 -849 1563.5 -860Q1523 -871 1504 -895Q1504 -853 1505 -856Q1491 -841 1476 -827Q1469 -819 1469 -788Q1469 -772 1517 -622Q1517 -603 1503 -588Q1473 -556 1464 -543Q1682 -585 1781 -674ZM1484 -930Q1389 -1071 1252 -1071Q1104 -1071 1045 -990V-966Q1076 -995 1142 -1026Q1213 -1060 1252 -1060Q1299 -1060 1373 -1021Q1451 -979 1484 -930ZM987 -978Q859 -1074 750 -1071Q692 -1069 623 -1019Q551 -966 524 -900Q572 -979 653 -1024Q723 -1062 778 -1057Q887 -1046 985 -957ZM1888 -17Q1862 -16 1814 -30Q1779 -40 1743 -123Q1724 -167 1676 -202.5Q1628 -238 1590 -233Q1586 -239 1577 -251Q1562 -317 1481 -386Q1402 -452 1338 -459Q1259 -467 1276 -467Q1117 -467 1042 -344Q1146 -456 1274 -456Q1303 -456 1358 -438Q1392 -427 1475 -374Q1489 -365 1527 -322Q1576 -266 1576 -237Q1576 -232 1555 -203Q1532 -171 1529 -160Q1528 -156 1528 -141Q1528 -122 1534 -95Q1539 -73 1563 -16Q1586 36 1586 41Q1586 58 1564 87.5Q1542 117 1522 131H1556Q1614 132 1743 74Q1872 16 1888 -17ZM565 -543Q507 -599 507 -630Q507 -635 533.5 -700.5Q560 -766 560 -782Q560 -789 536 -827.5Q512 -866 512 -873Q512 -880 516.5 -885Q521 -890 520 -895Q505 -883 455 -866Q409 -850 372 -779Q330 -701 310.5 -687.5Q291 -674 245 -674Q350 -580 565 -543ZM991 -349Q996 -389 898 -430Q810 -467 750 -467Q655 -467 573 -405Q517 -362 466 -288Q422 -226 421 -226Q414 -226 413 -229Q412 -232 405 -232Q381 -232 358 -219Q313 -194 276 -119Q237 -39 224 -29Q208 -16 132 -16Q297 120 506 130Q465 96 458 88Q442 67 442 36Q442 27 471.5 -49Q501 -125 501 -130Q501 -137 477 -185Q453 -233 453 -240Q453 -267 507 -329Q554 -384 575 -396Q620 -422 681 -438Q732 -451 760 -451Q892 -451 991 -349Z"/>
</svg>