<svg xmlns="http://www.w3.org/2000/svg" viewBox="0 -2048 2048 2048">
	<path fill="#000000" d="M615 -1437Q615 -1399 574 -1399Q567 -1399 524 -1415.5Q481 -1432 474 -1432Q448 -1432 406.5 -1399.5Q365 -1367 365 -1349V-50Q382 -48 413 -38Q533 22 533 155Q533 241 477 306.5Q421 372 341 372Q246 372 183 296Q127 229 127 150Q127 24 266 -44V-713Q179 -732 145 -757Q100 -789 100 -852Q100 -978 263 -982L268 -1359Q275 -1433 342 -1483Q403 -1529 468 -1529Q512 -1529 561 -1502Q615 -1472 615 -1437ZM587 -1441Q542 -1502 468 -1502Q290 -1502 290 -1293V-1083Q290 -1077 291 -1039Q293 -997 293 -980Q293 -965 281 -957Q120 -961 120 -850Q120 -792 181 -760Q231 -734 292 -734V-52H338V-1354Q340 -1386 413 -1441Q430 -1454 468 -1454Q504 -1454 537.5 -1437.5Q571 -1421 571 -1421Q587 -1421 587 -1441ZM506 152Q506 68 449 21Q396 -24 306 -24Q243 -24 194 39Q149 97 149 152Q149 221 203 281Q261 345 338 345Q410 345 459 284Q506 226 506 152ZM289 -759Q231 -755 186.5 -781Q142 -807 142 -848Q142 -891 183 -922Q220 -950 260 -950Q284 -950 289 -946ZM262 -777V-922H233Q209 -922 184.5 -896.5Q160 -871 160 -852Q160 -823 183.5 -800Q207 -777 244 -777Z"/>
</svg>