<svg xmlns="http://www.w3.org/2000/svg" viewBox="20.7 -1376.3 2140.6 1573.6">
	<path fill="currentColor" d="M2082 118H100Q107 106 101 25H479V-246H101V-545H346V-976Q328 -982 294 -1005Q281 -1018 276 -1053Q270 -1102 270 -1102Q258 -1144 165 -1223V-1240Q269 -1297 385 -1297Q448 -1297 517 -1275Q595 -1250 614 -1215V-1197Q537 -1170 504 -1081Q471 -992 412 -970V-546H669V-708Q650 -721 632 -734.5Q614 -748 614 -777Q614 -788 637 -885Q661 -991 677 -1042Q693 -1050 698 -1050Q715 -1050 738 -993Q791 -862 791 -785Q791 -722 725 -712V-546H1049V-980Q1008 -986 987 -1041Q976 -1081 966 -1122Q958 -1152 925 -1184Q896 -1209 867 -1234Q934 -1297 1089 -1297Q1145 -1297 1208 -1277Q1283 -1253 1315 -1214Q1286 -1188 1236 -1127Q1218 -1086 1201 -1045Q1170 -986 1123 -978Q1121 -977 1113 -971V-546H1441V-718Q1382 -746 1382 -800Q1382 -845 1434 -993Q1448 -1032 1468 -1059H1486Q1563 -886 1563 -808Q1563 -772 1557 -760Q1545 -732 1497 -713V-546H1769V-980Q1712 -1012 1706 -1042Q1701 -1077 1672 -1152Q1657 -1177 1630 -1193Q1607 -1205 1584 -1218V-1235Q1693 -1292 1780 -1292Q1928 -1292 2047 -1215Q2047 -1205 2032 -1195Q2017 -1185 2001 -1175Q1937 -1124 1927 -1077Q1926 -1059 1914 -1026Q1881 -975 1840 -980V-547H2077V-248H1705V23H2082ZM2007 -1214Q1891 -1267 1768 -1267Q1742 -1267 1619 -1227Q1689 -1197 1716 -1106Q1743 -1015 1796 -995V-546H1815V-1000Q1815 -1012 1824 -1005Q1826 -1005 1830 -1002.5Q1834 -1000 1841 -1000Q1857 -1000 1876.5 -1017.5Q1896 -1035 1899 -1052Q1907 -1102 1922 -1126Q1951 -1172 2007 -1214ZM1543 -800Q1543 -885 1474 -1029Q1464 -1008 1438 -928Q1406 -833 1406 -805Q1406 -770 1463 -734V-546H1477V-738Q1543 -745 1543 -800ZM1281 -1214Q1203 -1272 1104 -1272Q1062 -1272 996 -1259Q920 -1245 907 -1228Q968 -1185 992 -1098Q1015 -1018 1074 -990V-546H1093V-1000Q1131 -1000 1149 -1017Q1176 -1043 1207 -1113Q1237 -1178 1281 -1214ZM771 -794Q771 -871 698 -1023Q690 -1006 665 -921Q637 -824 637 -796Q637 -748 690 -723V-550H704V-728Q771 -735 771 -794ZM2057 95V43H1684V-274H2052V-524H125V-271H498V46H125V95ZM579 -1214Q554 -1236 490.5 -1256.5Q427 -1277 390 -1277Q357 -1277 288 -1261Q214 -1243 196 -1228Q263 -1192 292 -1096Q318 -1008 368 -995V-546H392V-995Q411 -1000 442 -1012Q461 -1025 470 -1053Q477 -1078 485.5 -1103.5Q494 -1129 526 -1161Q552 -1188 579 -1214ZM2017 -314H161V-479H2017ZM1643 44H552V-271H1643ZM1991 -334V-454H187V-334ZM1618 20V-247H570V20Z"/>
</svg>