<svg xmlns="http://www.w3.org/2000/svg" viewBox="0 -2048 2048 2048">
	<path fill="#000000" d="M2001 296H100V173H438Q441 170 441 162Q441 111 336 -487Q218 -500 218 -706L224 -930Q237 -984 260 -984Q281 -984 294 -962Q488 -630 488 -613Q488 -583 462 -549Q440 -521 421 -513V-504L523 173H1628V-622Q1567 -642 1545.5 -736.5Q1524 -831 1448 -861Q1440 -866 1427 -876V-894Q1472 -920 1516 -930Q1615 -952 1628 -952Q1689 -952 1778 -929Q1880 -902 1913 -868Q1912 -858 1882 -840Q1861 -828 1840 -816Q1809 -793 1796 -744Q1780 -683 1766 -663Q1760 -655 1695 -617V171H2001ZM1980 270V197H1674V-642Q1725 -647 1740 -674Q1761 -724 1781 -774Q1814 -840 1872 -867Q1849 -885 1768 -906Q1687 -927 1644 -927Q1624 -927 1463 -883Q1488 -876 1519 -842Q1547 -811 1554 -788Q1565 -743 1589 -674Q1596 -662 1648 -637V199H503L395 -525Q395 -534 398 -536Q462 -550 462 -597Q462 -620 369 -779Q281 -930 257 -958Q244 -854 244 -833L249 -608Q257 -551 292 -529Q316 -521 357 -503L473 199H126V270Z"/>
</svg>