<svg xmlns="http://www.w3.org/2000/svg" viewBox="0 -2048 2048 2048">
	<path fill="currentColor" d="M2030 -1392Q2030 -1376 1918.5 -1174.5Q1807 -973 1785 -945Q1756 -909 1679 -909Q1668 -909 1629 -928Q1575 -871 1544 -825Q1519 -779 1466 -688Q1305 -421 1208 11H1605V322H525V13H923Q920 -30 884 -159Q825 -372 734 -568Q622 -808 501 -927Q459 -903 421 -903Q369 -903 336 -960Q290 -1045 195 -1213Q154 -1275 103 -1379Q100 -1389 100 -1402Q100 -1445 139 -1445Q157 -1445 176 -1434.5Q195 -1424 345 -1320Q424 -1269 572 -1157Q619 -1116 619 -1068Q619 -1017 584 -982Q596 -967 653 -883Q688 -832 754 -726Q855 -544 926 -306Q942 -264 968 -178Q976 -147 1003 12H1012V-826Q969 -829 955 -831Q924 -836 902 -849Q861 -874 817 -987Q751 -1156 731 -1192Q669 -1308 581 -1346Q559 -1353 537 -1362Q515 -1371 515 -1398Q515 -1445 576 -1445Q613 -1445 681 -1414Q767 -1375 818 -1323Q870 -1262 923 -1201Q925 -1251 939 -1349Q969 -1468 1017 -1523Q1048 -1559 1066 -1559Q1084 -1559 1128 -1497Q1168 -1440 1186 -1356Q1197 -1281 1208 -1205Q1268 -1289 1357 -1359Q1465 -1445 1545 -1445Q1561 -1445 1615 -1438Q1615 -1434 1616.5 -1424Q1618 -1414 1618 -1409Q1618 -1388 1606 -1375Q1574 -1356 1518 -1321Q1424 -1259 1373 -1144Q1367 -1130 1329 -1008Q1301 -920 1268 -883Q1260 -874 1228 -856Q1176 -827 1123 -827Q1121 -808 1118 -771L1113 12H1125Q1212 -415 1354 -679Q1395 -755 1503 -905Q1523 -929 1554 -979Q1522 -1019 1522 -1065Q1522 -1133 1552 -1160Q1559 -1167 1711 -1268Q1788 -1323 1946 -1425Q1972 -1440 1986 -1440Q2030 -1440 2030 -1392ZM2007 -1392Q2007 -1417 1986 -1417Q1977 -1417 1966 -1411Q1947 -1401 1755 -1271Q1567 -1142 1565 -1140Q1545 -1111 1545 -1081Q1545 -1033 1551 -1021Q1553 -1018 1566.5 -1000.5Q1580 -983 1580 -979Q1580 -975 1512 -878Q1434 -767 1431 -762Q1408 -727 1367 -655Q1220 -362 1149 11H1187Q1241 -253 1323 -458Q1349 -522 1425 -660Q1456 -720 1524 -836Q1603 -952 1624 -952Q1634 -952 1653 -942Q1672 -932 1682 -932Q1741 -932 1767 -958Q1781 -973 1894 -1177.5Q2007 -1382 2007 -1392ZM1595 -1403Q1595 -1423 1566 -1423Q1501 -1423 1447 -1393Q1423 -1380 1347 -1321Q1329 -1307 1296 -1278Q1265 -1239 1201 -1163Q1186 -1177 1179 -1246Q1169 -1338 1155 -1385Q1128 -1473 1066 -1534Q1053 -1525 1031 -1504Q951 -1399 951 -1244Q951 -1183 936 -1159Q898 -1189 875 -1221Q820 -1297 737 -1355Q641 -1423 561 -1423Q554 -1423 541 -1414V-1385Q607 -1343 674 -1301Q733 -1255 769 -1171Q800 -1091 830 -1010Q875 -899 912 -870Q935 -852 979 -851Q1023 -850 1036 -842V11H1090L1099 -748Q1100 -815 1098 -840L1101 -846L1102 -845V-847Q1215 -845 1264 -920Q1277 -939 1330 -1094Q1361 -1184 1401 -1242Q1430 -1285 1486 -1326Q1531 -1350 1592 -1393Q1595 -1396 1595 -1403ZM982 11V5Q982 -41 949 -162Q858 -496 730 -722Q672 -809 557 -985Q596 -1022 596 -1068Q596 -1082 563 -1135Q492 -1188 234 -1367Q218 -1380 184 -1404Q160 -1420 144 -1420Q129 -1420 123 -1412V-1403Q123 -1388 126 -1381Q131 -1370 255 -1148Q291 -1075 368 -949Q386 -926 421 -926Q455 -926 503 -952Q522 -945 576 -877Q701 -719 808 -454Q906 -210 946 11ZM1580 297V38H550V297Z"/>
</svg>