<svg xmlns="http://www.w3.org/2000/svg" viewBox="44.8 -1139.2 1136.3 1489.3">
	<path fill="currentColor" d="M1126 -57Q1126 80 1103 295H1026Q1020 238 1011 125.5Q1002 13 978 -59Q949 -147 873 -242Q782 -355 706 -355Q699 -355 672 -333Q636 -304 631 -300Q586 -270 526 -270Q431 -270 268 -358.5Q105 -447 100 -499Q145 -532 268 -563Q398 -596 501 -596Q682 -596 718 -426Q734 -417 754 -412Q848 -389 939 -276Q1022 -173 1045 -74Q1048 -79 1048 -113Q1048 -324 993 -492Q917 -722 753 -803Q737 -784 704 -755Q680 -742 638 -742Q532 -742 366 -867Q215 -981 201 -1037Q264 -1084 467 -1084Q585 -1084 647 -1066Q751 -1036 787 -948Q788 -923 791 -875Q1000 -750 1077 -495Q1126 -332 1126 -57ZM1104 -113Q1104 -683 762 -858Q761 -866 762 -916Q764 -951 748 -971Q677 -1061 478 -1061Q450 -1061 338 -1054Q294 -1051 235 -1032Q247 -978 397 -875Q551 -770 635 -770Q681 -770 699 -785Q723 -811 748 -837Q954 -715 1028 -471Q1076 -315 1076 -60Q1076 54 1079 -2Q1077 40 1052 44Q961 -357 714 -401Q698 -404 690 -414Q688 -469 658 -505Q601 -573 504 -573Q426 -573 225 -526Q182 -516 133 -487Q212 -420 258 -396Q456 -293 515 -293Q540 -293 558 -300Q586 -311 642 -349Q693 -383 697 -383Q762 -383 863 -287.5Q964 -192 984 -115Q1052 146 1048 273H1080Z"/>
</svg>