<svg xmlns="http://www.w3.org/2000/svg" viewBox="0 -2048 2048 2048">
	<path fill="#000000" d="M2054 -165Q2054 -146 2041 -136Q1916 -40 1625 31Q1444 75 1120 111Q1117 134 1114 156Q1107 187 1089 198Q1064 213 1010 217Q914 225 907 225Q834 225 744 211Q621 193 621 161Q621 135 648 124Q957 -2 997 -2Q1029 -2 1079 26Q1093 34 1104 61Q1251 39 1398 18Q1594 -15 1721 -70Q1739 -78 1756 -103Q1756 -106 1742 -120L707 -126Q685 -68 626 -51Q599 -43 533 -43Q468 -43 307 -70Q100 -105 100 -146Q100 -182 195 -204Q285 -224 445 -253Q592 -280 605 -280Q663 -280 707 -177H1737Q1744 -184 1761 -201Q1741 -250 1644 -263Q1523 -279 1105 -327Q1085 -259 995 -259Q933 -259 782 -315Q635 -369 616 -395V-413Q672 -438 726 -448Q928 -486 1026 -486Q1064 -486 1088 -446Q1101 -415 1115 -384Q1129 -380 1181 -374Q1395 -351 1608 -328Q1845 -293 1997 -216Q2015 -198 2054 -165ZM1554 -303Q1501 -312 1091 -367Q1079 -422 1047 -460Q800 -455 647 -399Q692 -377 801 -336Q950 -280 1005 -280Q1045 -280 1059 -297Q1064 -302 1080 -331Q1091 -352 1098 -352Q1360 -309 1554 -303ZM2029 -165Q1967 -209 1919 -226Q1894 -235 1797 -257.5Q1700 -280 1690 -279H1673Q1787 -250 1787 -195Q1787 -183 1767.5 -167Q1748 -151 1737 -151H687Q674 -187 661 -223Q644 -254 608 -254Q532 -254 262 -201Q261 -201 137 -164Q126 -157 126 -142Q151 -125 169 -122Q481 -63 538 -63Q694 -63 682 -146H1742Q1750 -146 1768.5 -132.5Q1787 -119 1787 -107Q1787 -60 1696 -27Q1631 -11 1567 6Q1521 18 1407 36Q1298 57 1116 88Q1704 24 1976 -117Q2008 -134 2029 -165ZM1106 88Q1100 87 1089 85Q1084 75 1077.5 61.5Q1071 48 1042 35Q1017 24 1002 24Q954 24 715 119Q678 134 652 161Q690 200 920 200Q1006 200 1022 197Q1082 187 1098 140Q1099 138 1093 114Q1090 96 1106 88Z"/>
</svg>