<svg xmlns="http://www.w3.org/2000/svg" viewBox="0 -2048 2048 2048">
	<path fill="currentColor" d="M2009 -378H1650Q1631 -290 1624 -275Q1600 -217 1539 -181V127H2004V152H100Q104 137 112 85Q137 -89 353 -245Q550 -386 718 -397L1359 -402Q1363 -409 1363 -428Q1363 -529 1227 -647Q1237 -665 1257 -665Q1276 -665 1334 -630Q1388 -599 1396 -589Q1404 -599 1441 -711Q1464 -671 1512 -594Q1533 -634 1573 -706Q1576 -695 1614 -589Q1638 -607 1662 -625Q1704 -655 1730 -655H1776Q1777 -652 1783 -643Q1760 -619 1713 -565Q1702 -552 1678 -497Q1651 -439 1651 -421V-399H2009ZM1734 -629Q1694 -610 1604 -554Q1588 -584 1568 -645Q1529 -576 1507 -549Q1469 -616 1446 -650Q1436 -622 1426 -593Q1413 -560 1396 -554Q1338 -612 1282 -628Q1361 -569 1381 -438Q1407 -270 1425 -237Q1431 -226 1457 -215Q1474 -208 1490 -201V128H1519V-201Q1599 -235 1618 -334Q1630 -410 1642 -485Q1671 -560 1734 -629ZM1463 128V-184Q1405 -196 1384 -262Q1373 -320 1362 -377H734Q596 -377 384 -235Q158 -85 143 50Q136 76 125 128Z"/>
</svg>