<svg xmlns="http://www.w3.org/2000/svg" viewBox="18.1 -743.9 2210.8 904.8">
	<path fill="currentColor" d="M2147 -254Q2147 -131 2032 -72Q1949 -29 1836 -29L1465 -51Q1361 -51 1359 -51Q1307 -47 1252 -22Q1226 -10 1153 37Q1088 79 1081 79Q1074 79 1058 67Q1040 51 1037 50Q1073 -20 1181 -71Q1284 -121 1381 -121L1782 -105Q1896 -105 1939 -115Q2030 -138 2057 -217Q2072 -260 2072 -262Q2072 -304 2030 -337Q1993 -365 1960 -365H1458Q1456 -361 1450 -351Q1450 -293 1390 -243Q1334 -195 1283 -197L869 -284Q824 -274 802 -274Q738 -273 669 -205Q568 -105 568 -105Q555 -151 555 -170Q555 -242 615 -293Q617 -301 595 -305Q504 -322 458 -322Q404 -322 343 -258Q286 -199 267 -138H242Q219 -170 219 -205Q219 -234 234 -269Q246 -296 258 -323Q253 -325 174 -344Q126 -356 100 -389Q114 -424 263 -445Q214 -516 214 -560Q214 -578 225 -601Q238 -628 255 -630Q264 -627 323 -537Q375 -457 485 -457Q546 -457 610 -483Q606 -493 581 -542Q566 -571 566 -601Q566 -625 584 -662H603Q614 -639 632 -619Q695 -548 791 -523Q795 -522 872 -522Q967 -522 1098 -554.5Q1229 -587 1278 -587Q1354 -587 1391 -553Q1418 -530 1458 -446H1900Q2000 -446 2065 -407Q2147 -357 2147 -254ZM2120 -251Q2120 -330 2049 -378Q1987 -419 1906 -419H1442Q1406 -505 1378 -530Q1342 -560 1262 -560Q1202 -560 1070.5 -527.5Q939 -495 856 -495Q707 -495 594 -619V-574Q593 -539 659 -471Q705 -425 750 -379Q698 -352 643 -291Q580 -221 580 -172Q580 -159 585 -148Q717 -311 869 -311Q895 -311 1060 -267.5Q1225 -224 1284 -224Q1350 -224 1388 -277Q1402 -297 1442 -392H1960Q2000 -391 2019 -380Q2099 -333 2099 -259Q2099 -254 2079 -201Q2048 -118 1961 -92Q1915 -78 1820 -78L1424 -94Q1314 -94 1252 -75Q1154 -46 1070 44L1082 49Q1259 -78 1462 -78L1855 -51Q1933 -51 2011 -91Q2120 -148 2120 -251ZM718 -390Q619 -457 623 -457Q619 -457 553.5 -443.5Q488 -430 482 -430Q332 -430 255 -598Q241 -570 241 -557Q241 -492 339 -394Q335 -384 283 -311Q246 -260 246 -208Q246 -190 255 -175Q340 -343 487 -343Q527 -343 580 -332.5Q633 -322 628 -322Q638 -322 718 -390ZM306 -390Q277 -419 265 -419Q212 -419 138 -393Q146 -382 199 -365Q249 -349 271 -349Q287 -349 306 -390Z"/>
</svg>