<svg xmlns="http://www.w3.org/2000/svg" viewBox="0 -2048 2048 2048">
	<path fill="currentColor" d="M2039 -460Q2039 -421 1949 -350Q1769 -208 1457 -125Q1386 -106 1323 -100Q1161 -92 837 -57Q827 -40 799 -6Q782 12 703 17Q679 19 639.5 54.5Q600 90 595 114H578Q522 45 522 -98Q522 -150 542 -215Q567 -296 608 -326Q612 -326 619 -324Q629 -276 693 -241Q715 -230 793 -201Q821 -191 835 -132Q856 -123 906 -123Q1150 -123 1422 -193Q1742 -275 1905 -414Q1904 -423 1882 -434Q1848 -450 1813 -451H431Q425 -428 402 -393Q390 -385 308 -368Q240 -353 210 -313Q201 -295 178 -257Q145 -268 121 -350Q100 -422 100 -483Q100 -540 132.5 -621Q165 -702 192 -718Q204 -715 222 -686Q243 -652 263 -640Q263 -640 377 -587Q432 -561 432 -500H1838Q1859 -501 1905 -528Q1896 -547 1862 -571Q1595 -759 1055 -824Q1026 -828 985 -832H838Q832 -811 813 -784Q789 -772 679 -746Q654 -740 632 -705Q613 -675 595 -644Q573 -650 549 -744Q527 -827 527 -864Q527 -912 558 -1002Q589 -1092 608 -1105Q615 -1104 633 -1075Q654 -1041 670 -1031Q718 -1007 808 -954Q819 -947 843 -902Q1237 -870 1466 -814Q1810 -729 1975 -559Q2039 -493 2039 -460ZM2019 -463Q2019 -475 1985 -514Q1880 -633 1651 -729Q1474 -803 1338 -825Q1158 -843 827 -882Q823 -892 812 -911Q793 -937 759 -954Q693 -986 650 -1021Q636 -1036 608 -1060Q552 -941 552 -859Q552 -776 591 -683Q631 -763 721 -779Q805 -794 824 -851Q841 -857 889 -857Q918 -857 1079 -838Q1326 -809 1481 -766Q1702 -705 1882 -588Q1921 -563 1945 -523Q1875 -475 1828 -475H412Q412 -517 406 -528Q388 -562 340 -576Q276 -595 268 -600Q248 -613 192 -683Q120 -579 120 -512Q120 -437 151 -318Q156 -299 174 -292Q179 -315 215 -347Q251 -379 277 -384Q319 -389 377 -402Q398 -413 412 -471H1833Q1858 -471 1897.5 -450Q1937 -429 1940 -409Q1530 -121 1040 -111Q1004 -110 947 -104Q890 -98 889 -98Q887 -98 823 -104Q816 -131 789 -171Q756 -183 699 -208Q671 -224 603 -292Q542 -183 542 -113Q542 -9 581 80Q633 10 721 -8Q798 -23 823 -82Q1031 -98 1240 -115Q1501 -145 1676 -224Q1767 -265 1859 -313Q1880 -324 1941 -373Q2019 -437 2019 -463Z"/>
</svg>