<svg xmlns="http://www.w3.org/2000/svg" viewBox="29.3 -1525.7 1908.4 1893.4">
	<path fill="currentColor" d="M1867 -362Q1867 -351 1861 -346Q1614 -254 1467 -254Q1364 -254 1306 -274Q1306 -250 1319 -194Q1337 -123 1340 -102Q1352 -23 1352 72Q1352 178 1326 296Q1324 296 1319 297Q1314 297 1307 297Q1283 297 1218 250Q1148 200 1075 107Q1005 17 968 -64Q960 -65 957 -60Q911 24 839 106Q727 233 583 287Q546 231 546 127Q546 -68 621 -235Q473 -214 436 -214L253 -219Q198 -228 106 -265Q106 -268 100 -276Q177 -403 311 -492Q384 -541 546 -617Q264 -893 251 -1098Q263 -1110 285 -1110Q396 -1110 564 -1041Q714 -980 778 -924Q787 -1067 802 -1138Q813 -1190 848 -1274Q866 -1317 907 -1380Q957 -1455 979 -1455Q993 -1455 1017 -1409Q1098 -1254 1119 -1198.5Q1140 -1143 1147 -1071Q1160 -951 1160 -950Q1212 -1005 1391 -1070Q1570 -1135 1667 -1135Q1687 -1135 1687 -1115Q1687 -1131 1678 -1072Q1644 -851 1387 -652Q1706 -544 1867 -362ZM1837 -361Q1714 -495 1576 -557Q1548 -570 1360 -640Q1351 -647 1351 -651Q1437 -708 1547 -855Q1662 -1011 1662 -1087V-1109Q1409 -1074 1273 -998Q1245 -982 1196 -944Q1152 -910 1151 -910Q1145 -910 1138.5 -912Q1132 -914 1131 -914Q1132 -934 1132 -955Q1132 -1192 989 -1414Q982 -1425 973 -1425Q856 -1297 822 -1123Q814 -1048 799 -903Q796 -898 788 -890Q721 -950 572 -1016Q416 -1085 332 -1085H276V-1067Q300 -969 379 -852Q432 -774 514 -684Q581 -609 581 -607Q581 -601 552 -590Q229 -468 130 -275Q241 -239 270 -239Q277 -239 352 -236.5Q427 -234 431 -234Q437 -234 536 -251.5Q635 -269 641 -269Q658 -269 661 -257Q566 -90 566 117Q566 173 577 225Q580 242 592 262Q679 237 810 87Q889 -11 969 -109Q1030 -12 1090 84Q1167 192 1253 233Q1270 241 1305 267Q1327 122 1327 42Q1327 -52 1326 -56Q1324 -76 1295 -202Q1272 -301 1272 -291Q1272 -296 1280 -304Q1365 -279 1459 -279Q1549 -279 1660 -302Q1780 -326 1837 -361ZM1116 -544Q1116 -479 1067 -435Q1022 -394 964 -394Q902 -394 859 -448Q821 -496 821 -549Q821 -602 867.5 -648Q914 -694 969 -694Q997 -694 1044 -669Q1086 -646 1094 -633Q1116 -596 1116 -544ZM1096 -539Q1096 -580 1066 -621Q1031 -669 981 -669Q927 -669 886.5 -632.5Q846 -596 846 -544Q846 -497 878 -460Q913 -419 969 -419Q1008 -419 1048 -450Q1096 -487 1096 -539Z"/>
</svg>