<svg xmlns="http://www.w3.org/2000/svg" viewBox="0 0 748 1000">
  <g transform="scale(1,-1) translate(0,-1000)">
    <path d="M379 748Q383 748 400.0 735.0Q417 722 440.5 705.0Q464 688 512.0 670.0Q560 652 618 644Q624 646 626 646Q635 646 641.0 639.5Q647 633 647 625Q647 624 646.5 622.5Q646 621 646 620Q654 504 738 394Q748 386 748 375Q748 366 740 359Q664 274 644 143Q648 138 648 130Q648 120 641.0 112.0Q634 104 623 104Q618 104 616 105Q501 96 394 13Q389 0 375 0Q367 0 362 5Q271 89 123 106Q115 107 109.0 113.5Q103 120 104 129Q98 243 18 352Q0 358 0 375Q0 388 12 396Q87 485 104 619V622Q104 630 110.0 636.5Q116 643 125 644Q191 648 250.5 674.0Q310 700 343.0 724.0Q376 748 379 748ZM325 450Q336 459 357 464V686Q267 624 167 608ZM289 396Q291 403 299 420L138 580Q120 479 62 396ZM460 397H687Q626 486 611 581L451 421Q456 412 460 397ZM426 305Q413 295 394 290V62Q488 127 589 142ZM460 357Q458 349 452 335L609 178Q631 281 687 357ZM290 356H64Q125 266 140 171L299 331Q293 343 290 356ZM354 290Q343 292 327 302L166 141Q270 122 354 63ZM582 609Q474 631 397 686V464Q415 459 425 451ZM377 426Q353 426 340.0 410.5Q327 395 327 376Q327 358 338.0 346.0Q349 334 358.5 331.0Q368 328 374 328Q394 328 408.0 342.5Q422 357 422.0 377.0Q422 397 409.0 411.5Q396 426 377 426Z" fill="currentColor"/>
  </g>
</svg>