<svg xmlns="http://www.w3.org/2000/svg" viewBox="0 -2048 2048 2048">
	<path fill="#000000" d="M1425 -879Q1425 -824 1378.5 -786Q1332 -748 1282 -748Q1219 -748 1175 -780Q1127 -815 1127 -876Q1127 -934 1169.5 -981Q1212 -1028 1270 -1028Q1320 -1028 1372.5 -979.5Q1425 -931 1425 -879ZM899 -1177Q899 -1122 852 -1075Q805 -1028 759 -1028Q698 -1028 654 -1082Q614 -1130 614 -1180Q614 -1221 657.5 -1273.5Q701 -1326 745 -1326Q779 -1326 851 -1288Q899 -1263 899 -1177ZM1413 -325Q1413 -259 1366 -217.5Q1319 -176 1255 -176Q1191 -176 1149 -232Q1115 -279 1115 -331Q1115 -386 1175 -430Q1228 -468 1276 -468Q1333 -468 1373 -423.5Q1413 -379 1413 -325ZM894 -596Q894 -543 852 -493Q807 -439 751 -439Q695 -439 645.5 -492Q596 -545 596 -599Q596 -648 642.5 -692Q689 -736 745 -736Q799 -736 846.5 -693Q894 -650 894 -596ZM398 -885Q398 -820 361 -778Q324 -736 261 -736Q200 -736 155 -774Q106 -815 106 -879Q106 -936 155 -980Q201 -1022 255 -1022Q312 -1022 355 -978.5Q398 -935 398 -885ZM899 -33Q899 6 880 49Q867 78 839 90Q779 115 757 115Q766 115 715 100Q661 84 630 43Q602 6 602 -33Q602 -77 647 -129.5Q692 -182 742 -182Q805 -182 852 -139Q899 -96 899 -33ZM392 -305Q392 -257 334 -217Q283 -182 243 -182Q182 -182 140 -228Q100 -271 100 -328Q100 -376 137 -426Q177 -480 223 -480Q253 -480 303.5 -453Q354 -426 366 -402Q392 -349 392 -305ZM1395 -882Q1395 -921 1353 -960Q1311 -999 1270 -999Q1221 -999 1188.5 -962.5Q1156 -926 1156 -885Q1156 -777 1276 -777Q1318 -777 1353 -802Q1395 -832 1395 -882ZM870 -1183Q870 -1231 834 -1264Q798 -1297 748 -1297Q707 -1297 674 -1253Q643 -1213 643 -1177Q643 -1135 673 -1098Q708 -1057 759 -1057Q804 -1057 837 -1094Q870 -1131 870 -1183ZM1384 -325Q1384 -364 1353 -403Q1319 -445 1273 -445Q1233 -445 1189 -400.5Q1145 -356 1145 -316Q1145 -270 1185 -235Q1225 -200 1270 -200Q1320 -200 1354 -241Q1384 -279 1384 -325ZM864 -599Q864 -642 828 -674.5Q792 -707 745 -707Q700 -707 662.5 -671Q625 -635 625 -594Q625 -540 662 -504Q699 -468 759 -468Q802 -468 835 -516Q864 -559 864 -599ZM374 -885Q374 -919 335 -959Q296 -999 258 -999Q217 -999 178 -966Q135 -930 135 -885Q135 -838 165 -804Q199 -766 258 -766Q305 -766 339.5 -798Q374 -830 374 -885ZM870 -36Q870 -81 833.5 -117Q797 -153 751 -153Q706 -153 668.5 -112Q631 -71 631 -31Q631 13 673 49.5Q715 86 765 86Q802 86 836 49Q870 12 870 -36ZM363 -314Q363 -367 321.5 -409Q280 -451 229 -451Q187 -451 156 -404Q129 -364 129 -325Q129 -278 165.5 -242Q202 -206 249 -206Q280 -206 321.5 -243Q363 -280 363 -314Z"/>
</svg>