<svg xmlns="http://www.w3.org/2000/svg" viewBox="0 -2048 2048 2048">
	<path fill="currentColor" d="M1724 277H100V154H297V-1101L104 -1414Q108 -1431 127 -1446.5Q146 -1462 159 -1462Q181 -1462 260 -1350Q305 -1284 350 -1218Q405 -1298 517 -1454Q523 -1462 544 -1462Q560 -1462 580.5 -1448.5Q601 -1435 601 -1419Q601 -1397 579 -1363Q491 -1249 402 -1122V153H850V-1115Q835 -1137 807 -1179Q671 -1399 671 -1409Q671 -1422 682 -1440Q696 -1462 713 -1462Q740 -1462 749 -1450.5Q758 -1439 902 -1223Q912 -1234 1007 -1361Q1032 -1395 1056 -1430Q1083 -1462 1111 -1462Q1133 -1462 1140 -1452Q1146 -1435 1153 -1419L949 -1105V154H1396V-1125Q1362 -1170 1297 -1268Q1212 -1396 1212 -1417Q1212 -1433 1238 -1449Q1260 -1462 1267 -1462Q1296 -1462 1326 -1422Q1347 -1392 1367 -1361Q1396 -1317 1459 -1228Q1504 -1291 1549 -1353Q1626 -1457 1655 -1457Q1669 -1457 1689 -1441Q1709 -1425 1709 -1414L1515 -1110V152H1724ZM1701 252V172H1490V-1115L1685 -1412Q1672 -1432 1662 -1432Q1638 -1432 1464 -1197Q1462 -1193 1455 -1193Q1392 -1288 1270 -1442Q1244 -1429 1237 -1414L1420 -1120V173H929V-1115L1128 -1419L1112 -1436H1095L907 -1178Q857 -1251 806 -1323Q727 -1437 715 -1437Q701 -1437 691 -1412L869 -1115V173H377V-1115L576 -1408V-1425Q564 -1437 551 -1437Q528 -1437 477 -1362Q446 -1315 416 -1267Q372 -1204 346 -1183Q300 -1254 253 -1325Q198 -1409 157 -1442Q138 -1433 129 -1414L322 -1105V174H125V252Z"/>
</svg>