<svg xmlns="http://www.w3.org/2000/svg" viewBox="0 -2048 2048 2048">
	<path fill="#000000" d="M831 -681Q831 -581 720 -577Q701 -415 682 -253Q658 -61 621 68Q555 299 499 361Q483 379 462 379Q434 379 388 287Q356 223 337 165Q294 36 259 -184Q251 -226 237 -311Q229 -399 213 -575Q171 -585 164 -588Q134 -598 121 -612Q100 -635 100 -718Q100 -706 111 -785Q119 -861 127 -937Q139 -1022 168 -1085Q204 -1070 224 -1020Q335 -736 335 -697Q335 -600 265 -589Q267 -567 272 -529Q287 -410 321 -172Q330 -108 340 -45Q355 46 374 71Q386 87 406 87Q423 87 436 68V-984Q411 -985 364 -999Q291 -1041 276 -1177Q258 -1334 234 -1366Q230 -1371 179 -1419Q136 -1460 136 -1471Q136 -1497 167 -1497Q243 -1497 345 -1396Q361 -1434 398 -1505Q406 -1517 433 -1542Q460 -1567 470 -1567Q488 -1567 524 -1509Q555 -1459 563 -1431Q566 -1419 572 -1396Q615 -1433 658 -1470Q711 -1509 762 -1509Q788 -1509 825 -1471Q811 -1456 795 -1448Q677 -1386 662 -1306Q660 -1272 654 -1203Q641 -1098 619 -1055Q582 -984 495 -983L498 59Q498 84 514 84Q554 84 571 35Q591 -24 618 -226L665 -585Q624 -597 608.5 -622Q593 -647 593 -692Q593 -723 639 -859Q681 -982 703 -1029.5Q725 -1077 745 -1077Q774 -1077 784 -1043Q796 -1005 813.5 -865.5Q831 -726 831 -681ZM808 -684Q808 -703 788 -859.5Q768 -1016 764 -1028Q761 -1036 750 -1051H743Q728 -1032 722 -1018Q703 -977 661 -853Q616 -719 616 -692Q616 -603 672 -607L689 -596Q669 -429 624 -97Q618 -74 608 -27Q583 110 524 110Q475 110 475 54L472 -1000Q505 -1002 559 -1019Q591 -1040 606 -1097Q616 -1132 631 -1202Q631 -1242 642 -1321Q654 -1364 701 -1411Q745 -1455 790 -1473Q781 -1483 767 -1483Q721 -1483 685 -1461Q669 -1451 618 -1407Q602 -1391 565 -1365Q553 -1365 550 -1371L553 -1377Q544 -1410 520 -1474Q489 -1541 468 -1541Q424 -1541 374 -1404Q371 -1394 363 -1375Q356 -1365 345 -1365Q318 -1396 263 -1432Q201 -1474 169 -1474L161 -1468Q206 -1430 270 -1352Q285 -1321 288 -1272Q291 -1231 293 -1190Q297 -1155 314 -1103Q334 -1039 377 -1016Q393 -1007 449 -1006L459 -998V77Q428 113 403 113Q396 113 378 102Q344 81 317 -57Q310 -91 299 -173Q285 -267 259 -454Q242 -579 242 -608Q252 -608 269 -611Q309 -627 309 -671Q309 -737 290 -786Q276 -820 249 -888Q234 -933 219 -977Q193 -1045 178 -1054Q157 -1001 148 -924Q141 -857 134 -790Q123 -701 123 -715Q123 -649 137.5 -627Q152 -605 204 -599Q207 -602 214 -602Q228 -602 233 -588Q234 -584 245 -456Q253 -358 273 -238Q306 -41 325 39Q361 191 421 302Q452 359 465 359Q489 359 543 222Q583 119 601 52Q637 -81 660 -269Q679 -431 697 -593Q703 -602 716 -602Q720 -602 727 -600.5Q734 -599 738 -599Q757 -599 782.5 -620Q808 -641 808 -684Z"/>
</svg>