<svg xmlns="http://www.w3.org/2000/svg" viewBox="0 -2048 2048 2048">
	<path fill="currentColor" d="M902 -500Q902 -491 859.5 -379Q817 -267 791 -210Q786 -198 760.5 -178.5Q735 -159 723 -159Q690 -159 663.5 -187Q637 -215 637 -246Q637 -274 763 -418Q786 -444 831 -499V-506Q749 -491 678 -389Q622 -309 591 -210Q578 -192 555 -157Q677 -128 698 -121Q778 -96 788 -63Q752 -56 715 -50Q675 -42 659 -9Q657 -5 622 130Q602 206 538 222Q534 225 529 229Q527 255 527 360H460V235Q386 222 359 143Q341 75 323 7Q295 -63 216 -63Q205 -63 193 -62V-93Q282 -137 442 -157Q420 -166 411 -182Q377 -271 343 -360Q292 -478 190 -517L165 -513Q217 -446 269 -378Q360 -260 360 -243Q360 -225 322.5 -197.5Q285 -170 271 -170Q222 -170 205 -204Q173 -268 134 -389Q100 -496 100 -511Q100 -544 139 -566Q169 -582 190 -582Q293 -582 411 -452Q428 -492 480 -648Q394 -688 369 -780Q343 -878 291 -910Q289 -911 250 -920Q227 -925 225 -948Q260 -980 319 -995Q332 -999 436 -1018Q403 -1045 377 -1119Q343 -1215 332 -1233Q274 -1332 174 -1378Q170 -1380 165 -1375Q218 -1306 271 -1237Q360 -1121 360 -1104Q360 -1084 321 -1056Q286 -1031 271 -1031Q230 -1031 205 -1065Q192 -1083 146 -1212Q100 -1345 100 -1370Q100 -1389 134 -1417Q165 -1443 176 -1443Q240 -1443 289 -1414Q333 -1388 406 -1313Q425 -1342 450.5 -1421.5Q476 -1501 496 -1534H517Q538 -1502 555 -1432Q575 -1349 591 -1313Q624 -1341 690 -1382Q778 -1437 813 -1437Q835 -1437 868.5 -1408.5Q902 -1380 902 -1359Q902 -1348 859 -1234Q813 -1113 781 -1044Q770 -1020 726 -1020Q691 -1020 664 -1044Q637 -1068 637 -1107Q637 -1132 763 -1285Q772 -1296 811 -1331Q835 -1352 833 -1367Q745 -1342 694 -1278Q661 -1237 625 -1149Q587 -1055 561 -1019Q664 -998 692 -988Q762 -965 783 -926Q774 -907 753 -907Q746 -907 735.5 -909.5Q725 -912 718 -912Q671 -912 651 -860Q643 -824 634 -789Q629 -758 613 -702Q604 -682 578 -675Q546 -666 534 -655Q558 -559 591 -451Q647 -491 704 -531Q772 -576 815 -576Q844 -576 873 -552.5Q902 -529 902 -500ZM877 -1352L870 -1373L862 -1370L869 -1352ZM868 -1350Q664 -1146 664 -1096Q664 -1077 687 -1062Q710 -1047 734 -1047Q758 -1047 764.5 -1061.5Q771 -1076 868 -1350ZM848 -1396Q820 -1410 813 -1410Q784 -1410 689 -1353Q632 -1316 575 -1280Q536 -1389 510 -1502Q481 -1431 429 -1290Q420 -1275 413 -1275Q366 -1329 296 -1370Q222 -1415 171 -1414Q212 -1390 253 -1366Q309 -1330 332 -1287Q368 -1220 400 -1125Q434 -1026 498 -1026Q541 -1026 558 -1060Q596 -1143 633 -1226Q684 -1319 765 -1365Q806 -1388 848 -1396ZM333 -1109L136 -1383Q127 -1374 127 -1370Q127 -1357 159 -1259Q194 -1152 221 -1092Q236 -1058 271 -1058Q284 -1058 333 -1109ZM745 -936Q636 -993 493 -993Q380 -993 274 -947Q302 -947 333 -920Q364 -893 369 -866Q378 -832 394 -768Q398 -750 423 -719Q456 -679 488 -679Q495 -679 533 -688.5Q571 -698 576 -703Q594 -720 602 -752Q614 -803 625 -854Q655 -939 712 -939Q718 -939 729 -937.5Q740 -936 745 -936ZM868 -489Q833 -458 761 -377Q664 -268 664 -235Q664 -218 684 -202Q704 -186 723 -186Q783 -186 868 -489ZM873 -492Q875 -549 818 -549Q781 -549 695 -496Q635 -458 575 -419Q536 -528 510 -641Q495 -615 465 -522Q439 -443 412 -414Q276 -560 190 -560Q179 -560 149 -545Q153 -546 158 -546Q214 -546 296 -469Q334 -433 359 -377Q371 -342 397 -280Q411 -247 425 -214Q450 -170 490 -170Q537 -170 582 -254Q610 -313 638 -372Q670 -424 729 -473Q793 -527 834 -527Q856 -527 873 -492ZM333 -249L138 -515Q138 -518 140 -526.5Q142 -535 142 -538Q127 -508 127 -506Q127 -471 176 -344Q221 -226 227 -221Q254 -197 274 -197Q294 -197 333 -249ZM737 -81Q592 -132 507 -132Q398 -132 257 -92Q325 -67 349 6Q365 69 380 132Q405 199 478 214Q481 272 480 333H506Q506 250 508 213Q531 200 554 187Q590 165 597 137Q605 85 627 -9Q639 -44 678 -60Q701 -67 737 -81Z"/>
</svg>