<svg xmlns="http://www.w3.org/2000/svg" viewBox="0 -2048 2048 2048">
	<path fill="#000000" d="M839 -308Q840 -303 837.5 -297.5Q835 -292 835 -290Q713 -371 540 -432V90L771 -63Q773 -62 805 -30Q805 -17 798 -12Q780 -2 605 113Q705 141 752 325Q736 325 736 336H237Q245 294 270 212Q300 146 400 107L194 -23Q199 -34 234 -69L462 84V-454Q433 -472 325.5 -499Q218 -526 172 -558Q100 -608 100 -700Q100 -759 170 -810Q230 -853 276 -853Q330 -853 378 -804Q426 -755 426 -700Q426 -658 379 -618.5Q332 -579 292 -579Q252 -579 223 -610Q194 -641 194 -677Q194 -732 255 -758L268 -745Q265 -741 237 -715Q215 -695 215 -677Q215 -606 289 -606Q332 -606 366 -636Q400 -666 400 -703Q400 -753 355 -791Q315 -827 273 -827Q216 -827 169 -781Q126 -738 126 -695Q126 -581 269 -534Q365 -509 461 -484V-1049Q448 -1055 402 -1056Q308 -1058 246 -1149Q194 -1226 194 -1311Q194 -1404 259 -1457Q318 -1506 405 -1506Q474 -1506 756 -1430Q769 -1427 787 -1410.5Q805 -1394 805 -1385Q805 -1367 709 -1326Q649 -1301 589 -1277Q660 -1241 782 -1182Q794 -1177 794 -1156Q794 -1148 783 -1129Q753 -1121 692 -1104Q643 -1089 539 -1064V-462Q733 -383 839 -308ZM778 -1381Q773 -1391 767 -1398Q696 -1419 555 -1453Q423 -1485 413 -1485Q344 -1485 283 -1436Q215 -1381 215 -1300Q215 -1258 244 -1199Q278 -1132 327 -1102Q340 -1094 444 -1077Q460 -1077 490 -1070V-475Q502 -475 509 -469V-1075L768 -1150Q731 -1179 649 -1218Q572 -1256 542 -1282ZM769 -21L765 -28L568 99L570 107ZM725 309Q654 119 539 125Q529 126 510 117V-447Q497 -447 491 -453L485 127Q475 121 450 121Q402 121 356 154Q307 190 287.5 243Q268 296 268 293V309ZM430 91L233 -34L231 -26L418 97Z"/>
</svg>