<svg xmlns="http://www.w3.org/2000/svg" viewBox="0 -2048 2048 2048">
	<path fill="#000000" d="M852 -726Q852 -628 774 -578Q725 -547 609.5 -522Q494 -497 462 -476V69L701 -86Q712 -64 735 -46Q668 0 532 93Q531 96 536 100Q589 110 635 184Q676 249 676 295Q676 290 664 319H154Q158 254 199 187Q247 110 318 88Q248 42 115 -51Q138 -69 149 -91L388 64V-440Q388 -450 383 -449L113 -315Q110 -318 106.5 -324.5Q103 -331 100 -334L388 -479V-1080Q388 -1083 359 -1086Q296 -1093 287 -1095Q236 -1106 208 -1133Q111 -1225 111 -1323Q111 -1338 125 -1390Q167 -1547 324 -1547Q344 -1547 653 -1475Q670 -1471 696 -1456Q729 -1436 729 -1419Q729 -1403 640 -1366Q575 -1341 511 -1315Q567 -1287 623 -1259Q724 -1206 724 -1190Q724 -1193 710 -1165Q633 -1145 462 -1089V-511Q459 -507 471 -507Q477 -507 516 -519Q561 -534 577 -537Q702 -564 753 -595Q831 -641 831 -731Q831 -785 763 -826Q709 -859 676 -859Q631 -859 589.5 -817.5Q548 -776 548 -728Q548 -696 596 -664Q638 -635 663 -635Q693 -635 715 -660Q735 -681 735 -704Q735 -731 681 -771Q684 -774 687.5 -780.5Q691 -787 694 -790Q714 -782 737.5 -751Q761 -720 761 -704Q761 -662 732 -635Q703 -608 665 -608Q594 -608 539 -673Q527 -687 527 -731Q527 -797 570.5 -841.5Q614 -886 676 -886Q736 -886 794 -832Q852 -778 852 -726ZM703 -1421Q689 -1443 663 -1449Q374 -1520 316 -1520Q269 -1520 251 -1513Q200 -1494 182 -1466Q166 -1442 148 -1390Q132 -1343 132 -1331Q132 -1265 189 -1192Q256 -1108 343 -1113Q374 -1115 410 -1105V-487Q425 -487 436 -498V-1111L697 -1187Q608 -1240 469 -1311Q468 -1316 468 -1319ZM699 -47L693 -54L487 78L501 81ZM649 297V279Q603 111 498 108Q476 108 435 102V-470Q425 -467 408 -458V107Q393 101 367 101Q310 101 252 160Q191 221 181 297ZM363 73L157 -59L151 -52L349 76Z"/>
</svg>