<svg xmlns="http://www.w3.org/2000/svg" viewBox="0 0 980 1000">
  <g transform="scale(1,-1) translate(0,-1000)">
    <path d="M712 126Q804 126 869.5 173.0Q935 220 935 291Q935 351 882 392Q839 425 783.0 442.0Q727 459 686.0 461.5Q645 464 568 464Q568 464 561.5 464.0Q555 464 544.5 464.0Q534 464 522.0 464.5Q510 465 496.0 465.0Q482 465 472 465Q464 465 454.0 464.5Q444 464 443 464Q437 412 409.0 377.5Q381 343 343.0 329.5Q305 316 261.0 304.0Q217 292 179.5 284.0Q142 276 116.0 255.0Q90 234 87 200Q85 185 70 185Q58 185 55.0 194.5Q52 204 52 233Q52 284 70 323Q69 324 65.5 325.5Q62 327 60 328Q20 347 2 373Q0 375 0 381Q0 390 20.5 406.0Q41 422 68 433Q3 461 3 487Q3 514 68 541Q66 541 50.0 549.0Q34 557 17.0 570.0Q0 583 0 593Q0 607 21.0 623.0Q42 639 60 647Q62 648 65.0 649.0Q68 650 70 651Q52 690 52 742Q52 757 52.5 763.5Q53 770 54.5 777.5Q56 785 59.5 787.5Q63 790 70 790Q85 790 87 775Q91 735 126.5 713.0Q162 691 211.5 681.5Q261 672 310.5 658.5Q360 645 398.0 608.5Q436 572 443 510Q443 510 446.0 510.0Q449 510 454.5 510.0Q460 510 467.5 510.0Q475 510 485.5 509.5Q496 509 508.0 509.0Q520 509 535.5 509.0Q551 509 568 509H576Q633 509 665.5 507.5Q698 506 745.5 499.0Q793 492 833.0 474.5Q873 457 910 428Q980 373 980 291Q980 201 901.0 141.0Q822 81 712 81Q664 81 564.5 97.5Q465 114 411 114Q313 114 263.0 85.0Q213 56 210 21Q210 12 203.5 6.0Q197 0 188.0 0.0Q179 0 172.5 6.5Q166 13 166 22Q166 76 229.5 117.5Q293 159 411 159Q468 159 568.0 142.5Q668 126 712 126ZM33 380Q46 366 83 348Q107 382 144 407Q142 408 108 418Q55 400 33 380ZM359 377Q409 412 411 487Q410 562 359 597Q288 555 288.0 487.0Q288 419 359 377ZM83 627Q46 609 33 595Q58 573 107 556Q128 563 144 567Q108 591 83 627ZM325 616Q302 625 212.0 647.0Q122 669 90 697Q106 621 199 576Q208 567 208 560Q208 546 194 544Q153 538 105.0 519.5Q57 501 40 487Q56 474 104.5 455.5Q153 437 194 431Q208 429 208 414Q208 403 199 399Q105 354 90 278Q122 306 212.0 327.5Q302 349 325 359Q257 408 254 487Q254 566 325 616Z" fill="currentColor"/>
  </g>
</svg>