<svg viewBox="0 0 886.36011 838.64032"
   version="1.1"
   xmlns="http://www.w3.org/2000/svg">
  <title>N42B</title>
  <path
     style="fill:currentColor;stroke:none;stroke-width:99.979"
     d="M 4.7128906 0 C 4.7128906 185.2229 -24.738331 472.39786 63.613281 633.94336 C 139.21737 772.15596 286.75735 838.64062 435.64258 838.64062 C 606.0776 838.64062 778.27602 751.51782 846.3457 585.14062 C 903.84134 444.76398 882.47656 159.62117 882.47656 0 L 809.41211 0 L 809.17578 120.0293 L 479.76562 120.0293 L 479.76562 0 L 406.59375 0 L 406.59375 120.0293 L 75.203125 120.0293 L 77.884766 0 L 4.7128906 0 z M 75.203125 211.77539 L 809.17578 211.77539 L 807.07812 414.49219 C 789.46816 649.28043 612.54868 766.63281 437.45703 766.63281 C 262.32503 766.63281 89.021819 649.22645 78.792969 414.49219 L 75.203125 211.77539 z " />
  </svg>