<svg xmlns="http://www.w3.org/2000/svg" viewBox="0 -2048 2048 2048">
	<path fill="#000000" d="M1443 137Q1443 179 1417 191Q1297 247 1106 247Q828 247 646 171Q424 78 270 -188Q135 -421 128 -629Q127 -658 113 -751Q100 -841 100 -859Q100 -931 153 -1099Q165 -1124 188 -1179Q251 -1333 391 -1422Q515 -1501 647 -1501Q775 -1501 893 -1430Q1035 -1344 1080 -1189Q1124 -1039 1124 -1004Q1124 -960 1083 -802H743Q723 -770 706 -686Q689 -607 689 -557Q689 -553 702 -470Q717 -381 720 -345Q726 -282 805 -190Q881 -100 952 -65Q995 -40 1092 12Q1119 26 1184 37Q1262 51 1277 56Q1330 63 1382 69Q1443 81 1443 137ZM1423 140Q1423 129 1406 110Q1396 98 1346 91Q1312 85 1251 74Q1067 45 908 -65Q724 -191 695 -355Q669 -501 669 -564Q669 -718 723 -822H1063Q1099 -935 1099 -1006Q1099 -1071 1050 -1199Q1003 -1323 899 -1398Q791 -1476 654 -1476Q599 -1476 515.5 -1450.5Q432 -1425 395 -1398Q260 -1300 187 -1139Q125 -999 125 -854Q125 -828 138 -699Q164 -440 276 -228Q417 42 666 156Q728 185 868 206Q1005 227 1124 227Q1193 227 1291 207Q1423 181 1423 140Z"/>
</svg>