<svg viewBox="0 0 15.5284 5.04"
   xmlns="http://www.w3.org/2000/svg">
  <path
     style="fill:currentColor; stroke:none"
     d=" M 14.722642 4.147336  Q 12.327476 2.379093 10.044835 1.792357  Q 7.762192 1.205621 5.479549 1.792357  Q 3.196905 2.379093 0.801738 4.147336  Q 2.891481 1.961144 5.326837 1.093096  Q 7.762192 0.225049 10.245772 1.085059  Q 12.729349 1.945069 14.722642 4.147336  Z  M 14.465444 4.709961  Q 14.931618 5.192209 15.341531 4.975198  Q 15.751441 4.758186 15.26919 3.954438  Q 14.738718 2.92564 12.657012 1.49497  Q 10.575309 0.0643 7.762192 0  Q 4.949076 0.0643 2.867369 1.49497  Q 0.785663 2.92564 0.25519 3.954438  Q -0.227059 4.758186 0.198927 4.96716  Q 0.624914 5.176135 1.058937 4.693887  Q 1.87876 3.825838 4.820476 2.74078  Q 7.762192 1.655719 10.703909 2.74078  Q 13.645619 3.825838 14.465444 4.709961  Z " />
</svg>