<svg xmlns="http://www.w3.org/2000/svg" viewBox="20.7 -1629.3 2006.6 2140.6">
	<path fill="currentColor" d="M1898 -1372Q1898 -1361 1871 -1324.5Q1844 -1288 1832 -1279Q1804 -1258 1764 -1244V-1134Q1764 -1091 1736 -1025Q1706 -954 1672 -938Q1630 -935 1565 -929Q1549 -926 1494 -911Q1449 -898 1423 -898Q1400 -898 1363 -921Q1326 -944 1315 -964Q1301 -975 1289 -986.5Q1277 -998 1277 -1020Q1277 -1033 1308.5 -1113Q1340 -1193 1350 -1210Q1405 -1301 1441 -1339Q1504 -1403 1579 -1403Q1610 -1403 1641 -1387Q1669 -1373 1697 -1358Q1769 -1418 1826 -1418Q1898 -1418 1898 -1372ZM1764 -515H1311Q1304 -523 1304 -539Q1304 -595 1361 -662Q1422 -735 1492 -741Q1516 -743 1540 -743Q1678 -743 1750 -598Q1764 -569 1764 -561ZM1948 432H100V406H241V259H100V233H241V87H100V61H985V-194Q904 -270 755 -394H100V-472H593Q610 -512 610 -547Q610 -598 603 -617Q596 -636 565 -679Q544 -708 510 -730Q457 -763 449 -769Q437 -779 430 -807L485 -1049Q501 -1048 438 -1048Q371 -1048 347 -1085Q316 -1133 308 -1136Q288 -1144 250 -1146Q204 -1149 191 -1152Q140 -1162 140 -1195Q140 -1225 207 -1261Q172 -1298 148 -1311Q146 -1318 146 -1325Q146 -1349 168 -1349Q178 -1349 256 -1277Q275 -1298 293 -1319Q322 -1351 333 -1351Q346 -1351 355 -1341V-1322L305 -1267Q310 -1264 322 -1257Q334 -1250 373 -1197Q408 -1150 422 -1150Q432 -1150 469 -1157Q506 -1164 509 -1168Q516 -1199 525 -1241Q539 -1330 585 -1499Q592 -1517 618.5 -1533.5Q645 -1550 666 -1550Q745 -1550 768 -1479Q789 -1413 809 -1311Q842 -1146 843 -1140Q971 -1103 1031 -1103Q1059 -1103 1113.5 -1116.5Q1168 -1130 1196 -1130Q1216 -1130 1216 -1109Q1216 -1082 1127 -1058Q1053 -1039 1012 -1039Q986 -1039 936 -1049Q886 -1059 861 -1059L914 -806Q919 -784 892 -765Q859 -748 799 -703Q734 -640 734 -559Q734 -559 744 -472H1948V-394H1230Q1289 -319 1289 -265Q1289 -209 1242.5 -167.5Q1196 -126 1139 -126Q1103 -126 1063 -145V61H1948V87H1807V233H1948V259H1807V406H1948ZM1764 -1268Q1713 -1263 1687 -1243Q1713 -1251 1764 -1268ZM1872 -1374Q1872 -1392 1838 -1392Q1766 -1392 1749 -1368Q1727 -1331 1706 -1293Q1673 -1251 1645 -1250Q1643 -1254 1637 -1254Q1645 -1271 1670 -1296Q1695 -1321 1703 -1335Q1675 -1307 1620 -1250Q1612 -1257 1612 -1264Q1612 -1273 1639 -1305Q1664 -1333 1676 -1343Q1606 -1380 1580 -1380Q1513 -1380 1456 -1321Q1425 -1288 1374 -1205Q1363 -1188 1331.5 -1110Q1300 -1032 1300 -1020Q1300 -1011 1303 -1004Q1308 -992 1352 -969.5Q1396 -947 1412 -947Q1432 -947 1462 -969.5Q1492 -992 1499 -992Q1511 -992 1511 -984Q1511 -983 1510 -978Q1439 -924 1412 -924Q1407 -924 1396 -928Q1404 -924 1425 -924Q1452 -924 1496 -936Q1547 -950 1566 -952Q1598 -954 1662 -960Q1688 -983 1714.5 -1039.5Q1741 -1096 1741 -1131V-1236Q1667 -1217 1678 -1217Q1661 -1213 1650 -1238Q1665 -1255 1701 -1280Q1717 -1286 1761 -1294Q1809 -1302 1818 -1297Q1872 -1350 1872 -1374ZM1743 -537Q1702 -716 1542 -716Q1559 -716 1497 -714Q1456 -713 1396 -661Q1331 -606 1331 -559V-537ZM1186 -1107Q1163 -1105 1108 -1091Q1059 -1079 1030 -1079Q938 -1079 850 -1111L855 -1086Q951 -1065 1012 -1065Q1123 -1065 1186 -1107ZM886 -807Q886 -814 871 -881L837 -1032Q800 -1238 740 -1483Q716 -1524 668 -1524Q623 -1524 607 -1492Q602 -1481 531 -1155Q511 -1052 466 -847Q458 -815 458 -809Q458 -802 462 -794Q508 -758 554 -723Q610 -675 625 -634Q636 -604 636 -546Q636 -520 621 -472H718Q707 -520 707 -558Q707 -686 856 -771Q865 -776 880 -787Q886 -793 886 -807ZM1263 -265Q1263 -312 1197 -394H1160Q1243 -327 1262 -250Q1263 -256 1263 -265ZM1781 233V87H1587V233ZM503 -1141Q459 -1125 421 -1125Q387 -1125 344 -1184Q298 -1246 288 -1249Q274 -1253 260 -1253Q239 -1253 203 -1234Q163 -1213 163 -1195Q163 -1178 224 -1171Q263 -1168 301 -1165Q328 -1162 357 -1116Q386 -1070 440 -1070H469Q490 -1070 496 -1096Q499 -1118 503 -1141ZM1922 -420V-446H126V-420ZM1241 -221Q1234 -309 1116 -394H1063V-227Q1122 -194 1166 -194Q1202 -194 1241 -221ZM1781 406V259H1587V406ZM1037 -243V-394H1011V-261Q1027 -249 1037 -243ZM1561 233V87H1367V233ZM1213 -177Q1189 -168 1166 -168Q1046 -168 822 -394H798Q883 -317 969 -241Q1074 -152 1139 -152Q1178 -152 1213 -177ZM985 -280V-394H859Q930 -323 985 -280ZM1561 406V259H1367V406ZM1341 233V87H1147V233ZM1037 61V-159Q1029 -164 1011 -176V61ZM1341 406V259H1147V406ZM1121 233V87H927V233ZM1121 406V259H927V406ZM901 233V87H707V233ZM901 406V259H707V406ZM681 233V87H487V233ZM681 406V259H487V406ZM461 233V87H267V233ZM461 406V259H267V406ZM1564 -1187L1547 -1170Q1541 -1178 1531 -1184L1529 -1176Q1506 -1156 1495 -1156Q1492 -1156 1473 -1165Q1470 -1161 1460 -1151L1438 -1159L1481 -1224Q1533 -1220 1564 -1187ZM1445 -978Q1432 -983 1404 -992Q1386 -981 1371 -981Q1380 -1001 1399 -1019Q1417 -1013 1445 -978ZM272 -1230Q261 -1208 243 -1208Q227 -1207 227 -1218Q227 -1241 246 -1241Q250 -1241 272 -1230ZM1509 -1194Q1497 -1196 1495 -1196Q1492 -1192 1489 -1187L1495 -1184Q1506 -1184 1509 -1194Z"/>
</svg>