<svg xmlns="http://www.w3.org/2000/svg" viewBox="0 -2048 2048 2048">
	<path fill="#000000" d="M1948 432H100V406H241V259H100V233H241V87H100V61H677Q661 15 645 -30Q621 -96 602 -111Q583 -126 513 -141Q448 -155 415 -155H342L278 -703Q249 -698 246 -698Q212 -698 186 -729.5Q160 -761 160 -795Q160 -835 188 -874Q198 -888 230.5 -902Q263 -916 282 -916Q318 -916 363 -888Q390 -871 421 -789L744 61H1304L1627 -789Q1648 -844 1648 -844Q1662 -874 1685 -888Q1730 -916 1766 -916Q1785 -916 1817.5 -902Q1850 -888 1860 -874Q1888 -835 1888 -795Q1888 -761 1862 -729.5Q1836 -698 1802 -698Q1799 -698 1770 -703L1706 -155H1633Q1600 -155 1535 -141Q1465 -126 1446 -111Q1427 -96 1403 -30Q1387 15 1371 61H1948V87H1807V233H1948V259H1807V406H1948ZM1862 -795Q1862 -831 1838 -860.5Q1814 -890 1766 -890Q1734 -890 1699 -866Q1678 -852 1651 -780L1331 61H1342Q1372 -26 1378 -41Q1406 -112 1429 -130Q1493 -181 1683 -181L1747 -733Q1787 -724 1802 -724Q1825 -724 1843.5 -748Q1862 -772 1862 -795ZM1781 233V87H1587V233ZM1781 406V259H1587V406ZM1561 233V87H1367V233ZM1561 406V259H1367V406ZM1341 233V87H1147V233ZM1341 406V259H1147V406ZM717 61L397 -780Q388 -804 380 -827Q368 -853 349 -866Q314 -890 282 -890Q234 -890 210 -860.5Q186 -831 186 -795Q186 -772 204.5 -748Q223 -724 246 -724Q261 -724 301 -733L365 -181Q555 -181 619 -130Q648 -107 706 61ZM1121 233V87H927V233ZM1121 406V259H927V406ZM901 233V87H707V233ZM901 406V259H707V406ZM681 233V87H487V233ZM681 406V259H487V406ZM461 233V87H267V233ZM461 406V259H267V406Z"/>
</svg>