<svg xmlns="http://www.w3.org/2000/svg" viewBox="23 -1623 1659.9 2077.9">
	<path fill="currentColor" d="M1606 -99Q1547 101 1325 243Q1114 378 897 378Q853 378 762 374Q558 365 368 228Q180 94 100 -97H300L589 -877Q563 -905 515 -963Q462 -1037 462 -1150Q462 -1224 472 -1262Q474 -1269 488 -1299Q572 -1478 722 -1521Q809 -1546 863 -1546Q866 -1546 928 -1535Q1057 -1512 1153 -1404Q1249 -1296 1249 -1166Q1249 -1094 1212 -1010Q1173 -923 1119 -881L1121 -880Q1290 -412 1410 -99ZM1223 -1160Q1223 -1274 1153 -1368Q1087 -1457 978 -1502Q974 -1503 929 -1512Q870 -1523 861 -1523Q859 -1523 830 -1519L787 -1513Q643 -1493 548 -1362Q503 -1300 494 -1259Q485 -1218 485 -1151Q485 -1042 535 -974Q660 -803 846 -803Q852 -803 862.5 -806.5Q873 -810 879 -810Q886 -810 899 -808Q912 -806 919 -806Q932 -806 949 -810Q1038 -831 1097 -889Q1133 -925 1195 -1024Q1223 -1069 1223 -1160ZM1384 -100L1103 -868Q999 -777 870 -783V-100ZM843 -100V-780Q693 -792 607 -862L327 -100ZM1574 -73H137Q179 12 210 52Q319 191 489.5 272.5Q660 354 837 354H936Q999 354 1124 311Q1241 270 1303 232Q1493 115 1574 -73Z"/>
</svg>