<svg xmlns="http://www.w3.org/2000/svg" viewBox="0 -2048 2048 2048">
	<path fill="currentColor" d="M1488 341H100V-54H611L612 -56Q672 -273 703 -565Q716 -690 742 -1081Q703 -1086 678 -1094Q615 -1115 564.5 -1183.5Q514 -1252 514 -1318Q514 -1324 519 -1353Q521 -1369 527 -1401Q538 -1449 585 -1498Q632 -1547 681 -1565Q734 -1585 805 -1585Q879 -1585 947 -1547.5Q1015 -1510 1049 -1446Q1075 -1397 1075 -1325Q1075 -1229 1009.5 -1159Q944 -1089 848 -1082V-1050Q848 -1053 856 -946Q882 -599 894 -497Q923 -245 980 -55H1488ZM1052 -1327Q1052 -1429 980 -1495.5Q908 -1562 805 -1562Q734 -1562 692 -1546Q621 -1519 579 -1457Q537 -1395 537 -1319Q537 -1270 568 -1217.5Q599 -1165 642 -1137Q705 -1098 804 -1098Q800 -1098 836 -1103Q926 -1115 987 -1175Q1052 -1239 1052 -1327ZM955 -56Q939 -110 912 -218Q895 -302 872 -500Q862 -570 847 -709Q836 -839 825 -1077Q822 -1077 815.5 -1076Q809 -1075 805 -1075Q790 -1075 764 -1078Q764 -1063 750 -874Q713 -372 634 -56ZM1464 315V-29H125V315ZM1337 154H249V128H1337Z"/>
</svg>