<svg xmlns="http://www.w3.org/2000/svg" viewBox="23.6 -1610.4 2062.8 2027.8">
	<path fill="currentColor" d="M2010 327Q2008 341 1994 341H100V-139H991V-375H699V-473H991V-1307Q991 -1329 948 -1378Q910 -1421 834 -1421Q807 -1421 777.5 -1398Q748 -1375 743 -1375Q675 -1375 675 -1428Q675 -1454 730 -1493Q781 -1530 810 -1533Q820 -1534 846 -1534Q1021 -1534 1090 -1399Q1109 -1362 1109 -1334V-474H1405V-377H1110V-140H1560Q1557 -140 1592 -135Q1761 -111 1870 3Q1950 87 1987 244Q1999 295 2010 327ZM1380 -402V-448H1110V-402ZM1084 316V-1340Q1084 -1358 1069 -1389Q1034 -1461 970 -1488Q921 -1508 832 -1508Q813 -1508 806 -1507Q784 -1504 742 -1476Q697 -1446 697 -1428Q697 -1398 740 -1397Q781 -1431 791 -1435Q809 -1444 853 -1444Q939 -1444 989 -1363Q1017 -1318 1017 -1305V316ZM1982 315Q1955 204 1939 160Q1907 72 1858 23Q1722 -113 1557 -113H1110V315ZM991 -402V-448H724V-402ZM991 316V-113H126V316Z"/>
</svg>