<svg xmlns="http://www.w3.org/2000/svg" viewBox="0 -2048 2048 2048">
	<path fill="currentColor" d="M2149 -1204Q2149 -1169 2123.5 -1143.5Q2098 -1118 2063 -1118Q2028 -1118 2002.5 -1143.5Q1977 -1169 1977 -1204Q1977 -1239 2002.5 -1264.5Q2028 -1290 2063 -1290Q2098 -1290 2123.5 -1264.5Q2149 -1239 2149 -1204ZM2149 -894Q2149 -859 2123.5 -833.5Q2098 -808 2063 -808Q2028 -808 2002.5 -833.5Q1977 -859 1977 -894Q1977 -929 2002.5 -954.5Q2028 -980 2063 -980Q2098 -980 2123.5 -954.5Q2149 -929 2149 -894ZM1659 -1204Q1659 -1169 1633.5 -1143.5Q1608 -1118 1573 -1118Q1538 -1118 1512.5 -1143.5Q1487 -1169 1487 -1204Q1487 -1239 1512.5 -1264.5Q1538 -1290 1573 -1290Q1608 -1290 1633.5 -1264.5Q1659 -1239 1659 -1204ZM2149 -584Q2149 -549 2123.5 -523.5Q2098 -498 2063 -498Q2028 -498 2002.5 -523.5Q1977 -549 1977 -584Q1977 -619 2002.5 -644.5Q2028 -670 2063 -670Q2098 -670 2123.5 -644.5Q2149 -619 2149 -584ZM1659 -894Q1659 -859 1633.5 -833.5Q1608 -808 1573 -808Q1538 -808 1512.5 -833.5Q1487 -859 1487 -894Q1487 -929 1512.5 -954.5Q1538 -980 1573 -980Q1608 -980 1633.5 -954.5Q1659 -929 1659 -894ZM2556 -862L2531 -859Q2529 -943 2509 -1110Q2487 -1214 2400.5 -1287Q2314 -1360 2208 -1360H448Q342 -1360 255.5 -1287Q169 -1214 147 -1110Q137 -1062 133 -985Q127 -878 125 -859L100 -862Q102 -947 122 -1115Q145 -1228 239 -1307Q333 -1386 448 -1386H2208Q2323 -1386 2417 -1307Q2511 -1228 2534 -1115Q2544 -1066 2548 -989Q2554 -882 2556 -862ZM2149 -274Q2149 -239 2123.5 -213.5Q2098 -188 2063 -188Q2028 -188 2002.5 -213.5Q1977 -239 1977 -274Q1977 -309 2002.5 -334.5Q2028 -360 2063 -360Q2098 -360 2123.5 -334.5Q2149 -309 2149 -274ZM1169 -1204Q1169 -1169 1143.5 -1143.5Q1118 -1118 1083 -1118Q1048 -1118 1022.5 -1143.5Q997 -1169 997 -1204Q997 -1239 1022.5 -1264.5Q1048 -1290 1083 -1290Q1118 -1290 1143.5 -1264.5Q1169 -1239 1169 -1204ZM1659 -584Q1659 -549 1633.5 -523.5Q1608 -498 1573 -498Q1538 -498 1512.5 -523.5Q1487 -549 1487 -584Q1487 -619 1512.5 -644.5Q1538 -670 1573 -670Q1608 -670 1633.5 -644.5Q1659 -619 1659 -584ZM2149 36Q2149 71 2123.5 96.5Q2098 122 2063 122Q2028 122 2002.5 96.5Q1977 71 1977 36Q1977 1 2002.5 -24.5Q2028 -50 2063 -50Q2098 -50 2123.5 -24.5Q2149 1 2149 36ZM1169 -894Q1169 -859 1143.5 -833.5Q1118 -808 1083 -808Q1048 -808 1022.5 -833.5Q997 -859 997 -894Q997 -929 1022.5 -954.5Q1048 -980 1083 -980Q1118 -980 1143.5 -954.5Q1169 -929 1169 -894ZM1659 -274Q1659 -239 1633.5 -213.5Q1608 -188 1573 -188Q1538 -188 1512.5 -213.5Q1487 -239 1487 -274Q1487 -309 1512.5 -334.5Q1538 -360 1573 -360Q1608 -360 1633.5 -334.5Q1659 -309 1659 -274ZM679 -1204Q679 -1169 653.5 -1143.5Q628 -1118 593 -1118Q558 -1118 532.5 -1143.5Q507 -1169 507 -1204Q507 -1239 532.5 -1264.5Q558 -1290 593 -1290Q628 -1290 653.5 -1264.5Q679 -1239 679 -1204ZM1169 -584Q1169 -549 1143.5 -523.5Q1118 -498 1083 -498Q1048 -498 1022.5 -523.5Q997 -549 997 -584Q997 -619 1022.5 -644.5Q1048 -670 1083 -670Q1118 -670 1143.5 -644.5Q1169 -619 1169 -584ZM1659 36Q1659 71 1633.5 96.5Q1608 122 1573 122Q1538 122 1512.5 96.5Q1487 71 1487 36Q1487 1 1512.5 -24.5Q1538 -50 1573 -50Q1608 -50 1633.5 -24.5Q1659 1 1659 36ZM679 -894Q679 -859 653.5 -833.5Q628 -808 593 -808Q558 -808 532.5 -833.5Q507 -859 507 -894Q507 -929 532.5 -954.5Q558 -980 593 -980Q628 -980 653.5 -954.5Q679 -929 679 -894ZM1169 -274Q1169 -239 1143.5 -213.5Q1118 -188 1083 -188Q1048 -188 1022.5 -213.5Q997 -239 997 -274Q997 -309 1022.5 -334.5Q1048 -360 1083 -360Q1118 -360 1143.5 -334.5Q1169 -309 1169 -274ZM679 -584Q679 -549 653.5 -523.5Q628 -498 593 -498Q558 -498 532.5 -523.5Q507 -549 507 -584Q507 -619 532.5 -644.5Q558 -670 593 -670Q628 -670 653.5 -644.5Q679 -619 679 -584ZM1169 36Q1169 71 1143.5 96.5Q1118 122 1083 122Q1048 122 1022.5 96.5Q997 71 997 36Q997 1 1022.5 -24.5Q1048 -50 1083 -50Q1118 -50 1143.5 -24.5Q1169 1 1169 36ZM679 -274Q679 -239 653.5 -213.5Q628 -188 593 -188Q558 -188 532.5 -213.5Q507 -239 507 -274Q507 -309 532.5 -334.5Q558 -360 593 -360Q628 -360 653.5 -334.5Q679 -309 679 -274ZM679 36Q679 71 653.5 96.5Q628 122 593 122Q558 122 532.5 96.5Q507 71 507 36Q507 1 532.5 -24.5Q558 -50 593 -50Q628 -50 653.5 -24.5Q679 1 679 36ZM2123 -1204Q2123 -1264 2063 -1264Q2003 -1264 2003 -1204Q2003 -1144 2063 -1144Q2123 -1144 2123 -1204ZM2123 -894Q2123 -954 2063 -954Q2003 -954 2003 -894Q2003 -834 2063 -834Q2123 -834 2123 -894ZM1633 -1204Q1633 -1264 1573 -1264Q1513 -1264 1513 -1204Q1513 -1144 1573 -1144Q1633 -1144 1633 -1204ZM2123 -584Q2123 -644 2063 -644Q2003 -644 2003 -584Q2003 -524 2063 -524Q2123 -524 2123 -584ZM1633 -894Q1633 -954 1573 -954Q1513 -954 1513 -894Q1513 -834 1573 -834Q1633 -834 1633 -894ZM2123 -274Q2123 -334 2063 -334Q2003 -334 2003 -274Q2003 -214 2063 -214Q2123 -214 2123 -274ZM1143 -1204Q1143 -1264 1083 -1264Q1023 -1264 1023 -1204Q1023 -1144 1083 -1144Q1143 -1144 1143 -1204ZM1633 -584Q1633 -644 1573 -644Q1513 -644 1513 -584Q1513 -524 1573 -524Q1633 -524 1633 -584ZM2123 36Q2123 -24 2063 -24Q2003 -24 2003 36Q2003 96 2063 96Q2123 96 2123 36ZM1143 -894Q1143 -954 1083 -954Q1023 -954 1023 -894Q1023 -834 1083 -834Q1143 -834 1143 -894ZM1633 -274Q1633 -334 1573 -334Q1513 -334 1513 -274Q1513 -214 1573 -214Q1633 -214 1633 -274ZM653 -1204Q653 -1264 593 -1264Q533 -1264 533 -1204Q533 -1144 593 -1144Q653 -1144 653 -1204ZM1143 -584Q1143 -644 1083 -644Q1023 -644 1023 -584Q1023 -524 1083 -524Q1143 -524 1143 -584ZM1633 36Q1633 -24 1573 -24Q1513 -24 1513 36Q1513 96 1573 96Q1633 96 1633 36ZM653 -894Q653 -954 593 -954Q533 -954 533 -894Q533 -834 593 -834Q653 -834 653 -894ZM1143 -274Q1143 -334 1083 -334Q1023 -334 1023 -274Q1023 -214 1083 -214Q1143 -214 1143 -274ZM653 -584Q653 -644 593 -644Q533 -644 533 -584Q533 -524 593 -524Q653 -524 653 -584ZM1143 36Q1143 -24 1083 -24Q1023 -24 1023 36Q1023 96 1083 96Q1143 96 1143 36ZM653 -274Q653 -334 593 -334Q533 -334 533 -274Q533 -214 593 -214Q653 -214 653 -274ZM653 36Q653 -24 593 -24Q533 -24 533 36Q533 96 593 96Q653 96 653 36Z"/>
</svg>