<svg xmlns="http://www.w3.org/2000/svg" viewBox="0 -2048 2048 2048">
	<path fill="currentColor" d="M1637 -1192Q1637 -1132 1577 -1132Q1517 -1132 1517 -1192Q1517 -1252 1577 -1252Q1637 -1252 1637 -1192ZM1637 -982Q1637 -922 1577 -922Q1517 -922 1517 -982Q1517 -1042 1577 -1042Q1637 -1042 1637 -982ZM1307 -1192Q1307 -1132 1247 -1132Q1187 -1132 1187 -1192Q1187 -1252 1247 -1252Q1307 -1252 1307 -1192ZM1637 -772Q1637 -712 1577 -712Q1517 -712 1517 -772Q1517 -832 1577 -832Q1637 -832 1637 -772ZM1307 -982Q1307 -922 1247 -922Q1187 -922 1187 -982Q1187 -1042 1247 -1042Q1307 -1042 1307 -982ZM1637 -562Q1637 -502 1577 -502Q1517 -502 1517 -562Q1517 -622 1577 -622Q1637 -622 1637 -562ZM977 -1192Q977 -1132 917 -1132Q857 -1132 857 -1192Q857 -1252 917 -1252Q977 -1252 977 -1192ZM1307 -772Q1307 -712 1247 -712Q1187 -712 1187 -772Q1187 -832 1247 -832Q1307 -832 1307 -772ZM1637 -352Q1637 -292 1577 -292Q1517 -292 1517 -352Q1517 -412 1577 -412Q1637 -412 1637 -352ZM977 -982Q977 -922 917 -922Q857 -922 857 -982Q857 -1042 917 -1042Q977 -1042 977 -982ZM1307 -562Q1307 -502 1247 -502Q1187 -502 1187 -562Q1187 -622 1247 -622Q1307 -622 1307 -562ZM647 -1192Q647 -1132 587 -1132Q527 -1132 527 -1192Q527 -1252 587 -1252Q647 -1252 647 -1192ZM1637 -142Q1637 -82 1577 -82Q1517 -82 1517 -142Q1517 -202 1577 -202Q1637 -202 1637 -142ZM977 -772Q977 -712 917 -712Q857 -712 857 -772Q857 -832 917 -832Q977 -832 977 -772ZM2064 -1521L1908 -1284V346H1882V-1275H281V346H255V-1284L100 -1521L122 -1535L268 -1312L415 -1535L437 -1521L293 -1301H1871L1727 -1521L1748 -1535L1895 -1312L2042 -1535ZM1307 -352Q1307 -292 1247 -292Q1187 -292 1187 -352Q1187 -412 1247 -412Q1307 -412 1307 -352ZM647 -982Q647 -922 587 -922Q527 -922 527 -982Q527 -1042 587 -1042Q647 -1042 647 -982ZM1637 68Q1637 128 1577 128Q1517 128 1517 68Q1517 8 1577 8Q1637 8 1637 68ZM977 -562Q977 -502 917 -502Q857 -502 857 -562Q857 -622 917 -622Q977 -622 977 -562ZM1307 -142Q1307 -82 1247 -82Q1187 -82 1187 -142Q1187 -202 1247 -202Q1307 -202 1307 -142ZM647 -772Q647 -712 587 -712Q527 -712 527 -772Q527 -832 587 -832Q647 -832 647 -772ZM1637 278Q1637 338 1577 338Q1517 338 1517 278Q1517 218 1577 218Q1637 218 1637 278ZM977 -352Q977 -292 917 -292Q857 -292 857 -352Q857 -412 917 -412Q977 -412 977 -352ZM1307 68Q1307 128 1247 128Q1187 128 1187 68Q1187 8 1247 8Q1307 8 1307 68ZM647 -562Q647 -502 587 -502Q527 -502 527 -562Q527 -622 587 -622Q647 -622 647 -562ZM977 -142Q977 -82 917 -82Q857 -82 857 -142Q857 -202 917 -202Q977 -202 977 -142ZM1307 278Q1307 338 1247 338Q1187 338 1187 278Q1187 218 1247 218Q1307 218 1307 278ZM647 -352Q647 -292 587 -292Q527 -292 527 -352Q527 -412 587 -412Q647 -412 647 -352ZM977 68Q977 128 917 128Q857 128 857 68Q857 8 917 8Q977 8 977 68ZM647 -142Q647 -82 587 -82Q527 -82 527 -142Q527 -202 587 -202Q647 -202 647 -142ZM977 278Q977 338 917 338Q857 338 857 278Q857 218 917 218Q977 218 977 278ZM647 68Q647 128 587 128Q527 128 527 68Q527 8 587 8Q647 8 647 68ZM647 278Q647 338 587 338Q527 338 527 278Q527 218 587 218Q647 218 647 278ZM1611 -1192Q1611 -1226 1577 -1226Q1543 -1226 1543 -1192Q1543 -1158 1577 -1158Q1611 -1158 1611 -1192ZM1611 -982Q1611 -1016 1577 -1016Q1543 -1016 1543 -982Q1543 -948 1577 -948Q1611 -948 1611 -982ZM1281 -1192Q1281 -1226 1247 -1226Q1213 -1226 1213 -1192Q1213 -1158 1247 -1158Q1281 -1158 1281 -1192ZM1611 -772Q1611 -806 1577 -806Q1543 -806 1543 -772Q1543 -738 1577 -738Q1611 -738 1611 -772ZM1281 -982Q1281 -1016 1247 -1016Q1213 -1016 1213 -982Q1213 -948 1247 -948Q1281 -948 1281 -982ZM1611 -562Q1611 -596 1577 -596Q1543 -596 1543 -562Q1543 -528 1577 -528Q1611 -528 1611 -562ZM951 -1192Q951 -1226 917 -1226Q883 -1226 883 -1192Q883 -1158 917 -1158Q951 -1158 951 -1192ZM1281 -772Q1281 -806 1247 -806Q1213 -806 1213 -772Q1213 -738 1247 -738Q1281 -738 1281 -772ZM1611 -352Q1611 -386 1577 -386Q1543 -386 1543 -352Q1543 -318 1577 -318Q1611 -318 1611 -352ZM951 -982Q951 -1016 917 -1016Q883 -1016 883 -982Q883 -948 917 -948Q951 -948 951 -982ZM1281 -562Q1281 -596 1247 -596Q1213 -596 1213 -562Q1213 -528 1247 -528Q1281 -528 1281 -562ZM621 -1192Q621 -1226 587 -1226Q553 -1226 553 -1192Q553 -1158 587 -1158Q621 -1158 621 -1192ZM1611 -142Q1611 -176 1577 -176Q1543 -176 1543 -142Q1543 -108 1577 -108Q1611 -108 1611 -142ZM951 -772Q951 -806 917 -806Q883 -806 883 -772Q883 -738 917 -738Q951 -738 951 -772ZM1281 -352Q1281 -386 1247 -386Q1213 -386 1213 -352Q1213 -318 1247 -318Q1281 -318 1281 -352ZM621 -982Q621 -1016 587 -1016Q553 -1016 553 -982Q553 -948 587 -948Q621 -948 621 -982ZM1611 68Q1611 34 1577 34Q1543 34 1543 68Q1543 102 1577 102Q1611 102 1611 68ZM951 -562Q951 -596 917 -596Q883 -596 883 -562Q883 -528 917 -528Q951 -528 951 -562ZM1281 -142Q1281 -176 1247 -176Q1213 -176 1213 -142Q1213 -108 1247 -108Q1281 -108 1281 -142ZM621 -772Q621 -806 587 -806Q553 -806 553 -772Q553 -738 587 -738Q621 -738 621 -772ZM1611 278Q1611 244 1577 244Q1543 244 1543 278Q1543 312 1577 312Q1611 312 1611 278ZM951 -352Q951 -386 917 -386Q883 -386 883 -352Q883 -318 917 -318Q951 -318 951 -352ZM1281 68Q1281 34 1247 34Q1213 34 1213 68Q1213 102 1247 102Q1281 102 1281 68ZM621 -562Q621 -596 587 -596Q553 -596 553 -562Q553 -528 587 -528Q621 -528 621 -562ZM951 -142Q951 -176 917 -176Q883 -176 883 -142Q883 -108 917 -108Q951 -108 951 -142ZM1281 278Q1281 244 1247 244Q1213 244 1213 278Q1213 312 1247 312Q1281 312 1281 278ZM621 -352Q621 -386 587 -386Q553 -386 553 -352Q553 -318 587 -318Q621 -318 621 -352ZM951 68Q951 34 917 34Q883 34 883 68Q883 102 917 102Q951 102 951 68ZM621 -142Q621 -176 587 -176Q553 -176 553 -142Q553 -108 587 -108Q621 -108 621 -142ZM951 278Q951 244 917 244Q883 244 883 278Q883 312 917 312Q951 312 951 278ZM621 68Q621 34 587 34Q553 34 553 68Q553 102 587 102Q621 102 621 68ZM621 278Q621 244 587 244Q553 244 553 278Q553 312 587 312Q621 312 621 278Z"/>
</svg>