<svg xmlns="http://www.w3.org/2000/svg" viewBox="16.6 -907.4 2252.9 587.9">
	<path fill="currentColor" d="M2186 -789Q2183 -757 2173 -694Q2167 -679 2157 -649Q2106 -485 1969 -436Q1958 -432 1883 -420Q1874 -419 1846 -410Q1822 -403 1808 -403H1329Q1319 -403 1293.5 -418Q1268 -433 1258 -435Q1251 -429 1205.5 -416Q1160 -403 1148 -403Q1085 -403 1047 -422Q1039 -426 1031 -437Q965 -403 959 -403H479Q466 -403 442 -411Q418 -419 406 -420Q276 -430 217 -498Q134 -593 111 -700Q109 -732 100 -797L954 -801Q966 -801 989 -793.5Q1012 -786 1024 -786Q1093 -824 1141 -824Q1174 -824 1265 -786Q1273 -787 1298 -795Q1319 -801 1332 -801H2175ZM2160 -774H1858Q1857 -771 1857 -770L2146 -686Q2160 -758 2160 -774ZM2137 -658L1855 -749Q1853 -736 1848 -719L2110 -592Q2122 -614 2137 -658ZM2097 -573L1839 -696Q1837 -688 1833 -671L2028 -492Q2080 -536 2097 -573ZM2008 -480L1817 -652Q1809 -645 1806 -640L1928 -448Q1982 -468 2008 -480ZM1903 -446L1786 -625Q1776 -618 1763 -611L1835 -433Q1879 -443 1903 -446ZM1835 -774H1496Q1509 -758 1509 -750Q1509 -719 1469 -723Q1483 -700 1483 -662Q1483 -655 1477.5 -644.5Q1472 -634 1472 -631V-605H1676Q1679 -605 1688 -608Q1701 -609 1727 -616Q1795 -643 1811 -680Q1835 -735 1835 -774ZM1811 -429L1746 -602Q1736 -597 1718 -592L1743 -429ZM1484 -749L1472 -765Q1468 -766 1456 -769Q1444 -772 1437 -772Q1422 -772 1399 -751Q1402 -752 1407 -752Q1451 -752 1482 -746ZM1719 -429L1698 -586Q1686 -583 1662 -579V-429ZM1636 -429V-578H1572V-429ZM1393 -774H1322Q1316 -774 1290 -768Q1321 -741 1339 -705Q1343 -731 1393 -774ZM1549 -429V-578H1501V-429ZM1370 -605L1361 -620V-605ZM1457 -674Q1457 -710 1435 -721Q1426 -726 1381 -732Q1360 -707 1360 -694Q1360 -665 1375 -641Q1398 -603 1401 -595Q1427 -528 1427 -496Q1427 -435 1376 -435Q1336 -435 1314 -488L1312 -486Q1337 -432 1382 -432Q1398 -432 1422 -446.5Q1446 -461 1446 -476Q1446 -491 1445 -521.5Q1444 -552 1444 -567Q1444 -631 1452 -635Q1457 -658 1457 -674ZM1474 -430V-578H1472V-485Q1472 -454 1438 -430ZM1405 -493Q1405 -500 1382 -578H1356Q1351 -552 1331 -505Q1332 -495 1344 -478Q1356 -461 1366 -461H1375Q1405 -461 1405 -493ZM1337 -590Q1337 -726 1250 -768Q1182 -801 1166 -801Q1078 -801 1024 -760Q1017 -755 980 -704Q961 -678 957 -654Q953 -630 953 -581Q953 -546 976 -524Q981 -519 991 -501Q1011 -465 1059 -440Q1086 -426 1166 -426Q1190 -426 1238 -449Q1270 -465 1303.5 -510.5Q1337 -556 1337 -590ZM1322 -427Q1306 -444 1296 -465Q1291 -460 1279 -450Q1293 -441 1322 -427ZM1000 -768Q980 -774 974 -774H895Q945 -737 947 -692Q965 -731 1000 -768ZM929 -605Q929 -610 929 -623L920 -605ZM974 -483L971 -491Q960 -472 950 -453Q936 -435 911 -435Q863 -435 863 -501Q863 -548 892.5 -605.5Q922 -663 922 -701Q922 -721 893.5 -746.5Q865 -772 845 -772Q828 -772 804 -754V-748L810 -745Q821 -745 843 -749.5Q865 -754 876 -754Q889 -754 897 -732Q849 -721 846 -719Q827 -708 827 -672Q827 -633 844 -597Q844 -597 844 -558Q844 -549 841 -532.5Q838 -516 838 -507Q838 -478 848 -461Q853 -453 874 -442.5Q895 -432 904 -432Q974 -432 974 -483ZM1009 -451L992 -465Q987 -450 975 -436Q987 -440 1009 -451ZM957 -510Q950 -517 940 -536Q938 -543 931 -578H904Q886 -542 886 -534Q886 -467 893 -463Q896 -461 905 -461H914Q915 -461 928 -462Q942 -482 957 -510ZM848 -430Q813 -460 813 -499Q813 -510 817 -530.5Q821 -551 821 -562Q821 -574 817 -578H813V-430ZM816 -605V-611Q816 -621 810 -641Q804 -661 804 -671Q804 -703 816 -723Q810 -722 807 -722Q791 -722 778 -734V-763Q784 -767 793 -774H453V-760Q453 -708 489 -667.5Q525 -627 577 -612Q602 -605 605 -605ZM786 -429V-578H737V-429ZM710 -429V-578H652V-429ZM625 -429V-579Q616 -580 590 -586L568 -429ZM566 -592Q551 -596 541 -600L479 -429H544ZM429 -770V-774H128V-757Q128 -744 141 -683ZM522 -608Q510 -615 498 -625L380 -443Q392 -442 417 -437Q442 -432 455 -432ZM436 -719Q434 -737 435 -748Q427 -748 427 -748L148 -662V-659Q158 -636 182 -592ZM480 -642Q476 -647 468 -656L281 -480Q301 -468 354 -448ZM455 -676Q451 -683 444 -696L190 -572Q207 -528 262 -489Z"/>
</svg>