<svg xmlns="http://www.w3.org/2000/svg" viewBox="0 -2048 2048 2048">
	<path fill="#000000" d="M1838 -328H1816V-1221H125V-328H100V-1246H431V-1542H553V-1247H750V-1542H866V-1247H1072V-1542H1184V-1247H1384V-1542H1505V-1247H1838ZM1715 -334H1690L1504 -970H432L242 -332Q229 -335 221 -343L414 -996H1522ZM1579 -355Q1579 -342 1562 -312Q1552 -309 1497 -294Q1358 -257 1080 -177L1253 126Q1280 169 1306 213Q1343 276 1343 300Q1343 308 1341.5 321.5Q1340 335 1340 341H1323Q1322 341 1283 327Q1213 231 972 -104Q869 40 661 328Q628 332 624 332Q610 332 592 297L861 -176L389 -306Q363 -313 363 -342Q363 -358 373 -376.5Q383 -395 398 -392L913 -299Q916 -321 925 -526L939 -830Q955 -847 975 -860Q1005 -843 1010 -801Q1011 -764 1012 -728Q1017 -585 1031 -299L1033 -298L1544 -392Q1579 -368 1579 -355ZM1480 -1247V-1516H1410V-1247ZM1159 -1247V-1516H1098V-1247ZM841 -1247V-1516H777V-1247ZM528 -1247V-1516H459V-1247ZM1557 -352L1538 -368L1020 -272L1011 -281Q1000 -541 983 -820Q981 -826 973 -831L961 -821Q950 -642 936 -285Q928 -273 918 -275L403 -368L385 -354L392 -330L722 -240Q767 -230 812 -220Q874 -204 892 -185L617 297Q624 310 628 310Q634 310 650 306Q750 161 957 -123Q966 -135 975 -135Q982 -126 1181 151Q1220 210 1293 303Q1300 310 1318 315V307Q1318 298 1317 287L1050 -185L1060 -198L1485 -313Q1507 -318 1529 -323Q1557 -333 1557 -352Z"/>
</svg>