<svg xmlns="http://www.w3.org/2000/svg" viewBox="0 -2048 2048 2048">
	<path fill="currentColor" d="M1697 350H100V-293Q100 -334 132 -384.5Q164 -435 235 -435Q316 -435 347 -353Q365 -279 384 -205Q389 -189 409 -155L486 -238Q465 -246 438 -251Q479 -306 531 -363Q518 -370 487 -382Q522 -429 580 -492Q564 -499 534 -515L625 -618Q609 -626 574 -637L666 -747Q664 -748 622 -763Q657 -810 716 -874Q707 -878 669 -893Q697 -932 758 -998Q693 -1048 686 -1055Q650 -1088 633 -1128Q602 -1203 602 -1259Q602 -1350 657.5 -1427Q713 -1504 799 -1529Q843 -1542 903 -1542Q931 -1542 980 -1525Q1189 -1452 1189 -1261Q1189 -1090 1034 -1003L1128 -895Q1110 -881 1083 -872L1176 -767Q1160 -760 1129 -746L1223 -637Q1203 -629 1173 -619L1264 -511Q1248 -505 1217 -492L1311 -386Q1308 -385 1266 -365L1358 -256Q1342 -248 1312 -238L1389 -151Q1406 -224 1452 -364Q1464 -391 1500.5 -414.5Q1537 -438 1566 -438Q1622 -438 1659.5 -393Q1697 -348 1697 -291ZM1166 -1222Q1166 -1272 1163 -1302Q1156 -1373 1096 -1431Q1042 -1484 969 -1506Q926 -1519 924 -1519Q846 -1519 803 -1507Q749 -1492 698 -1439.5Q647 -1387 634 -1333Q625 -1295 625 -1258Q625 -1233 638 -1188Q694 -993 925 -993Q951 -993 1017 -1020Q1069 -1041 1117.5 -1105Q1166 -1169 1166 -1222ZM1093 -899L1027 -976V-878ZM1140 -775L1073 -846Q1073 -822 1072 -750ZM1185 -646L1118 -722Q1118 -704 1117 -672Q1116 -637 1116 -623ZM936 -870L902 -956L867 -870ZM1228 -520L1161 -594V-496Q1183 -504 1228 -520ZM936 -741L901 -827L864 -741ZM770 -879V-977Q730 -935 703 -902Q736 -891 770 -879ZM1273 -391Q1232 -441 1210 -466Q1207 -421 1205 -367Q1228 -375 1273 -391ZM1321 -266L1254 -337Q1251 -305 1248 -241Q1273 -247 1321 -266ZM1366 -113L1275 -83V-226Q1268 -223 1224 -211L1233 -353Q1202 -341 1184 -341V-479Q1169 -474 1138 -464V-608Q1111 -597 1101 -597Q1089 -597 1089 -605Q1089 -595 1098 -735Q1068 -725 1050 -721V-861Q1025 -852 1003 -852V-991Q976 -982 922 -970L966 -858Q965 -849 957 -843H919L966 -728Q965 -720 957 -714H920L967 -598L957 -588H919L967 -469L957 -458H919L967 -340L957 -329H920L966 -217Q965 -209 957 -203H919L966 -88Q965 -80 957 -74H920L967 42L957 53H919Q933 86 961 153H966Q1006 153 1078 131Q1150 109 1178 86Q1277 3 1283 -3Q1337 -54 1366 -113ZM936 -612L901 -698L864 -612ZM1367 -138L1300 -211Q1300 -134 1298 -115ZM723 -749V-847L657 -775Q679 -766 723 -749ZM934 -485L901 -568L867 -485ZM683 -626L676 -721L613 -647ZM934 -356L901 -438L867 -356ZM936 -230L902 -310L867 -230ZM636 -497Q634 -526 636 -594L569 -520Q580 -516 636 -497ZM937 29Q911 -39 895 -73Q872 -73 829 -81L883 -203Q865 -201 863 -201Q843 -201 833 -217L883 -329Q871 -328 863 -328Q843 -328 833 -344Q863 -403 884 -458H831L883 -588Q871 -587 864 -587Q854 -587 831 -590L884 -714Q865 -712 863 -712Q843 -712 833 -728L883 -843Q871 -842 863 -842Q843 -842 833 -858L884 -970Q824 -976 793 -987V-905Q793 -899 795 -888.5Q797 -878 797 -872Q797 -856 781 -849Q769 -854 746 -863V-791Q746 -784 748 -769Q750 -754 750 -747Q750 -727 737 -720Q722 -726 699 -735V-720Q699 -698 702 -663Q705 -619 706 -607L697 -596L658 -605V-515Q658 -510 660 -500.5Q662 -491 662 -486Q662 -472 646 -467Q629 -475 611 -480V-406Q611 -399 613.5 -385.5Q616 -372 616 -365Q616 -346 599 -338Q598 -339 565 -352Q569 -276 571 -225L563 -214Q544 -217 518 -226Q522 -168 524 -96Q519 -89 511 -85L430 -112Q493 -4 605 71Q725 153 842 153L882 51H836V29ZM936 -100L901 -186L864 -100ZM588 -367V-465L521 -393Q564 -376 588 -367ZM1671 326V-300Q1671 -347 1640.5 -379.5Q1610 -412 1564 -412Q1502 -412 1471 -351Q1454 -318 1440 -244Q1426 -170 1407 -135Q1233 182 866 182Q764 182 660 129Q486 40 387 -148Q378 -164 362 -199Q356 -239 337 -319Q308 -412 236 -412Q163 -412 133 -330Q123 -302 123 -293V326ZM548 -241L541 -340L475 -265ZM936 153L901 72L865 156Q872 158 885 158Q875 158 936 153ZM501 -114L494 -211L428 -138Q452 -130 501 -114Z"/>
</svg>