<svg xmlns="http://www.w3.org/2000/svg" viewBox="25 -1599 1901.9 2023.9">
	<path fill="currentColor" d="M1852 -625Q1852 -614 1848 -590Q1824 -578 1813 -578Q1788 -578 1741 -672Q1612 -931 1489 -1059Q1329 -1226 1090 -1284Q1003 -1305 963 -1305Q935 -1305 879 -1301L877 -1307H863V-1524Q1042 -1511 1139 -1491Q1276 -1462 1418 -1364Q1695 -1172 1811 -791Q1852 -656 1852 -625ZM1710 -613L1693 -561L1021 -348L1411 289L1382 340L1322 323L892 -258L544 332L481 350L471 278L759 -355L110 -533L100 -596L143 -635L827 -508L860 -1223L894 -1266L937 -1229L966 -508L1669 -641ZM1827 -623Q1827 -669 1784 -795Q1764 -854 1717 -967Q1524 -1350 1166 -1460Q1091 -1483 887 -1495V-1325Q961 -1331 1096 -1309Q1288 -1277 1466 -1116Q1625 -972 1719 -778Q1755 -703 1813 -606L1825 -608Q1827 -613 1827 -623ZM1681 -604L1662 -617L942 -479L913 -1217L897 -1229L884 -1215L851 -479L151 -606L126 -588L133 -553L794 -371L495 282L501 317L528 311L890 -303L1337 303L1370 311L1382 289L985 -361L1673 -582Z"/>
</svg>