<svg xmlns="http://www.w3.org/2000/svg" viewBox="0 0 1000 1000">
  <g transform="scale(1,-1) translate(0,-1000)">
    <path d="M892 35H980Q1000 35 1000 20Q1000 15 995.0 10.0Q990 5 985 2L980 0H21Q13 0 7.5 6.5Q2 13 2 21Q2 37 22 37H95V198H19Q0 198 0 217Q0 232 20 232H407V906Q408 950 439.0 975.0Q470 1000 511 1000Q548 1000 578.0 976.5Q608 953 613 911V908L612 231H978Q998 231 998 216Q998 211 993.0 206.0Q988 201 983 198L978 196H892ZM854 35V196H612V35ZM457 232 563 231V907Q563 928 547.0 939.5Q531 951 511.0 951.0Q491 951 474.5 940.5Q458 930 457 906ZM563 196H133V35H563Z" fill="currentColor"/>
  </g>
</svg>