<svg xmlns="http://www.w3.org/2000/svg" viewBox="28.3 -463.7 1935.4 525.4">
	<path fill="currentColor" d="M1892 -107Q1892 -10 1805 -10H187Q100 -10 100 -107V-295Q100 -392 187 -392H1805Q1892 -392 1892 -295ZM1866 -107V-295Q1866 -366 1805 -366H187Q126 -366 126 -295V-107Q126 -36 187 -36H1805Q1866 -36 1866 -107ZM1763 -137L1743 -121L1636 -249L1531 -119L1422 -249L1317 -119L1207 -249L1103 -119L993 -249L889 -119L779 -249L675 -119L565 -249L461 -119L351 -249L249 -121L229 -137L351 -289L461 -159L565 -289L675 -159L779 -289L889 -159L993 -289L1103 -159L1207 -289L1317 -159L1422 -289L1531 -159L1636 -289Z"/>
</svg>