<svg xmlns="http://www.w3.org/2000/svg" viewBox="-33 534 889.9 498.9">
  <g transform="scale(1,-1) translate(0,-1000)">
    <path d="M687 6Q674 6 664.5 16.0Q655 26 655.0 40.0Q655 54 665.0 64.0Q675 74 689 74Q702 74 711.5 64.0Q721 54 721.0 40.0Q721 26 711.0 16.0Q701 6 687 6ZM397 305Q397 319 407.0 329.5Q417 340 431 340Q444 340 453.5 330.0Q463 320 463.0 306.0Q463 292 453.5 282.0Q444 272 430.0 272.0Q416 272 406.5 282.0Q397 292 397 305ZM536 255Q523 255 513.0 265.0Q503 275 503.0 289.0Q503 303 513.0 313.0Q523 323 537 323Q550 323 559.5 313.0Q569 303 569.0 289.0Q569 275 559.5 265.0Q550 255 536 255ZM621 261Q634 261 643.5 251.0Q653 241 653.0 227.0Q653 213 643.5 203.0Q634 193 620.0 193.0Q606 193 596.5 202.5Q587 212 587.0 226.0Q587 240 597.0 250.5Q607 261 621 261ZM665 175Q678 175 687.5 165.0Q697 155 697.0 141.0Q697 127 687.5 117.0Q678 107 664.0 107.0Q650 107 640.5 116.5Q631 126 631.0 140.0Q631 154 641.0 164.5Q651 175 665 175ZM182 35Q182 22 172.0 12.0Q162 2 148.0 2.0Q134 2 124.0 12.0Q114 22 114 36Q114 49 124.0 58.5Q134 68 148.0 68.0Q162 68 172.0 58.5Q182 49 182 35ZM213 137Q213 124 203.5 114.0Q194 104 180.0 104.0Q166 104 155.5 114.0Q145 124 145 138Q145 151 155.0 160.5Q165 170 179.0 170.0Q193 170 203.0 160.5Q213 151 213 137ZM273 221Q273 208 263.5 198.0Q254 188 240.0 188.0Q226 188 215.5 198.0Q205 208 205 222Q205 235 215.0 244.5Q225 254 239.0 254.0Q253 254 263.0 244.5Q273 235 273 221ZM325 253Q311 253 300.5 263.0Q290 273 290 287Q290 300 300.0 309.5Q310 319 324.0 319.0Q338 319 348.0 309.5Q358 300 358.0 286.0Q358 272 348.0 262.5Q338 253 325 253ZM295 33Q295 20 285.5 10.0Q276 0 262.0 0.0Q248 0 237.5 10.0Q227 20 227 34Q227 47 237.0 56.5Q247 66 261.0 66.0Q275 66 285.0 56.5Q295 47 295 33ZM342 117Q342 104 332.0 94.0Q322 84 309 84Q295 84 284.5 94.0Q274 104 274 118Q274 131 284.0 140.5Q294 150 308.0 150.0Q322 150 332.0 140.5Q342 131 342 117ZM551 92Q538 92 528.0 102.0Q518 112 518 125Q518 139 528.0 149.5Q538 160 552 160Q565 160 574.5 150.0Q584 140 584.0 126.0Q584 112 574.5 102.0Q565 92 551 92ZM585 7Q572 7 562.0 16.5Q552 26 552.0 40.0Q552 54 562.0 64.5Q572 75 586 75Q599 75 608.5 65.0Q618 55 618.0 41.0Q618 27 608.5 17.0Q599 7 585 7ZM383 153Q370 153 360.0 162.5Q350 172 350.0 186.0Q350 200 360.0 210.5Q370 221 384 221Q397 221 406.5 211.0Q416 201 416.0 187.0Q416 173 406.5 163.0Q397 153 383 153ZM35 3Q21 3 10.5 13.0Q0 23 0 37Q0 50 10.0 59.5Q20 69 34.0 69.0Q48 69 58.0 59.5Q68 50 68.0 36.0Q68 22 58.0 12.5Q48 3 35 3ZM455 397Q455 411 465.0 421.5Q475 432 489 432Q502 432 511.5 422.0Q521 412 521.0 398.0Q521 384 511.5 374.0Q502 364 488.0 364.0Q474 364 464.5 374.0Q455 384 455 397ZM791 6Q778 6 768.0 16.0Q758 26 758 39Q758 53 768.0 63.5Q778 74 792 74Q805 74 814.5 64.0Q824 54 824.0 40.0Q824 26 814.5 16.0Q805 6 791 6ZM225 363Q225 376 235.0 385.5Q245 395 259.0 395.0Q273 395 283.0 385.5Q293 376 293.0 362.0Q293 348 283.5 338.5Q274 329 260.0 329.0Q246 329 235.5 339.0Q225 349 225 363ZM88 131Q88 118 78.0 108.0Q68 98 55 98Q41 98 30.5 108.0Q20 118 20 132Q20 145 30.0 154.5Q40 164 54.0 164.0Q68 164 78.0 154.5Q88 145 88 131ZM113 191Q99 191 88.5 201.0Q78 211 78 225Q78 238 88.0 247.5Q98 257 112.0 257.0Q126 257 136.0 247.5Q146 238 146.0 224.0Q146 210 136.0 200.5Q126 191 113 191ZM209 303Q209 290 199.5 280.0Q190 270 176.0 270.0Q162 270 151.5 280.0Q141 290 141 304Q141 317 151.0 326.5Q161 336 175.0 336.0Q189 336 199.0 326.5Q209 317 209 303ZM327 401Q327 414 337.0 423.5Q347 433 361.0 433.0Q375 433 385.0 423.5Q395 414 395.0 400.0Q395 386 385.5 376.5Q376 367 362.0 367.0Q348 367 337.5 377.0Q327 387 327 401ZM477 223Q490 223 499.5 213.0Q509 203 509.0 189.0Q509 175 499.5 165.0Q490 155 476.0 155.0Q462 155 452.5 164.5Q443 174 443.0 188.0Q443 202 453.0 212.5Q463 223 477 223ZM639 355Q639 342 629.5 332.0Q620 322 606.0 322.0Q592 322 581.5 332.0Q571 342 571 356Q571 369 581.0 378.5Q591 388 605.0 388.0Q619 388 629.0 378.5Q639 369 639 355ZM727 295Q727 282 717.5 272.0Q708 262 694.0 262.0Q680 262 669.5 272.0Q659 282 659 296Q659 309 669.0 318.5Q679 328 693.0 328.0Q707 328 717.0 318.5Q727 309 727 295ZM711 219Q711 232 721.0 241.5Q731 251 745.0 251.0Q759 251 769.0 241.5Q779 232 779.0 218.0Q779 204 769.5 194.5Q760 185 746.0 185.0Q732 185 721.5 195.0Q711 205 711 219ZM735 129Q735 142 745.0 151.5Q755 161 769.0 161.0Q783 161 793.0 151.5Q803 142 803.0 128.0Q803 114 793.5 104.5Q784 95 770.0 95.0Q756 95 745.5 105.0Q735 115 735 129Z" fill="currentColor"/>
  </g>
</svg>