<!-- Created with Inkscape (http://www.inkscape.org/) -->

<svg
   viewBox="0 0 1800 1800.0001"
   version="1.1"
   xml:space="preserve"
   xmlns="http://www.w3.org/2000/svg"><title>US12N34VARB</title></sodipodi:namedview><g
     transform="translate(1.4434177,-973.3652)"><path
       style="color:#000000;fill:currentColor;-inkscape-stroke:none"
       d="m 597.04102,969.875 c -197.78504,549.6948 -295.46316,834.0037 -283.1504,1326.6543 2.85151,114.0928 44.54597,317.8559 146.14063,417.1016 36.04028,35.2069 82.98446,59.373 137.00977,59.373 54.0253,0 100.97144,-24.1661 137.01171,-59.373 101.68329,-99.3323 143.29265,-303.2282 146.13868,-417.1016 C 892.50666,1803.779 794.73124,1519.2738 597.04102,969.875 Z m 0,207.6914 c 136.38923,383.3783 224.25199,673.8843 213.17187,1117.2149 -2.46753,98.7296 -40.82294,286.4723 -125.07617,368.7773 -26.44705,25.8355 -54.09731,39.4453 -88.0957,39.4453 -33.9984,0 -61.64671,-13.6098 -88.09375,-39.4453 -84.18704,-82.2403 -122.60635,-269.8777 -125.07813,-368.7773 -11.08011,-443.3305 76.78269,-733.8368 213.17188,-1117.2149 z" /></g></svg>