<svg xmlns="http://www.w3.org/2000/svg" viewBox="0 -2048 2048 2048">
	<path fill="#000000" d="M1967 -20H100Q144 -184 226 -298Q245 -319 282 -361Q365 -457 516 -560L236 -1081Q271 -1104 345 -1144Q451 -1188 639 -1188Q723 -1188 859 -1150Q989 -1114 1022 -1114Q1077 -1114 1137 -1137Q1268 -1188 1421 -1188Q1607 -1188 1718 -1144Q1720 -1143 1827 -1084L1548 -561Q1699 -479 1827 -311Q1843 -285 1874 -233Q1900 -191 1967 -20ZM1799 -1073Q1771 -1091 1713 -1122Q1610 -1165 1421 -1165Q1294 -1165 1170 -1122Q1078 -1090 1082 -1090H981Q978 -1090 915 -1113Q772 -1165 639 -1165Q459 -1165 359 -1125Q333 -1114 267 -1073L538 -572Q667 -631 778 -665Q801 -673 849 -687Q925 -703 1030 -703Q1019 -703 1118 -695Q1150 -694 1214 -687Q1346 -662 1528 -572ZM1935 -44Q1890 -156 1881 -177Q1847 -250 1808 -299Q1778 -336 1720 -395Q1592 -526 1425 -592Q1204 -680 1030 -680Q854 -680 632 -589Q457 -517 302 -350Q282 -330 246 -288Q181 -202 130 -44Z"/>
</svg>