<svg xmlns="http://www.w3.org/2000/svg" viewBox="0 -2048 2048 2048">
	<path fill="#000000" d="M2161 -990Q2161 -990 2131 -896Q2087 -758 1945 -699Q1899 -680 1811 -680Q1724 -680 1641 -732Q1602 -757 1533 -864Q1516 -829 1477 -763Q1402 -654 1257 -624Q1230 -624 1177 -617L1174 -435Q1173 -369 1208 -273Q1240 -196 1272 -119H998L1092 -417V-614Q1065 -619 1010 -630Q934 -648 891 -676Q811 -728 745 -813Q737 -824 718 -862Q703 -833 668 -778Q638 -740 555 -714Q482 -691 424 -691Q252 -691 164 -828Q156 -841 128 -914Q100 -987 100 -997V-1081H155Q181 -1010 208 -940Q243 -860 295 -819Q327 -794 413 -794Q560 -794 631 -889Q646 -909 673 -978Q698 -1041 698 -1075Q709 -1080 744 -1085Q764 -1013 821 -876Q909 -720 1169 -720Q1266 -720 1350 -784Q1431 -846 1486 -999Q1492 -1028 1499 -1057Q1509 -1093 1536 -1093Q1541 -1093 1546 -1092Q1555 -1032 1589 -922Q1610 -879 1680 -830.5Q1750 -782 1796 -782H1832Q1882 -781 1904 -789Q1905 -789 1935 -807Q2005 -848 2047 -915Q2062 -940 2115 -1056Q2130 -1052 2156 -1039Q2161 -983 2161 -990ZM2138 -993Q2138 -992 2135 -1028L2128 -1030Q2076 -922 2062 -898Q2020 -831 1959 -795Q1894 -757 1819 -757Q1761 -757 1679.5 -804Q1598 -851 1573 -902Q1554 -941 1528 -1068L1523 -1067Q1466 -788 1274 -720Q1209 -697 1170 -697Q988 -697 899 -761Q836 -807 800 -869Q786 -894 753 -991Q746 -1014 729 -1061H725Q722 -1059 714 -1021Q698 -950 648 -875Q579 -771 412 -771Q316 -771 276 -803Q229 -841 193 -919Q188 -931 140 -1055H126V-990Q126 -977 150.5 -915Q175 -853 185 -839Q272 -711 413 -711Q471 -711 543 -734Q624 -760 654 -798Q676 -842 724 -900Q735 -875 762 -828Q822 -747 905 -693Q944 -668 1007 -654Q1061 -644 1115 -634V-415Q1115 -415 1026 -143H1239Q1151 -349 1151 -436V-633Q1151 -647 1157 -647Q1163 -647 1168 -641Q1170 -641 1175 -640Q1220 -640 1242 -644Q1248 -645 1288 -660Q1316 -669 1370 -694Q1426 -727 1456 -774Q1474 -816 1520 -892Q1526 -899 1536 -898Q1563 -856 1590 -815Q1627 -762 1659 -747Q1749 -705 1811 -705Q1895 -705 1937 -721Q2008 -748 2073 -833.5Q2138 -919 2138 -993Z"/>
</svg>