<svg xmlns="http://www.w3.org/2000/svg" viewBox="0 0 986 1000">
  <g transform="scale(1,-1) translate(0,-1000)">
    <path d="M494 740Q548 740 595.0 725.5Q642 711 642 695Q642 688 637.0 683.5Q632 679 626 679Q609 678 595.0 637.0Q581 596 561.5 550.0Q542 504 512 494V442H820V494Q790 504 770.5 550.0Q751 596 737.0 637.0Q723 678 706 679Q700 679 695.0 683.5Q690 688 690 695Q690 711 738.0 725.5Q786 740 838 740Q918 740 977 709Q986 704 986 695Q986 688 981.0 683.5Q976 679 970 679Q953 678 939.0 637.0Q925 596 905.5 550.0Q886 504 856 494V453L921 498Q926 501 932 501Q940 501 946.0 495.0Q952 489 952 481Q952 471 943 464L871 415Q946 347 946 347Q952 341 952.0 333.0Q952 325 946.0 319.0Q940 313 932 313Q926 313 919 318Q908 327 886.0 347.0Q864 367 856 374V19Q856 12 851.0 6.5Q846 1 838.0 1.0Q830 1 825.0 6.5Q820 12 820 19V262H512V18Q512 10 507.0 5.0Q502 0 494.0 0.0Q486 0 481.0 5.0Q476 10 476 18V262H166V19Q166 12 161.0 6.5Q156 1 148.0 1.0Q140 1 135.0 6.5Q130 12 130 19V494Q100 504 80.5 550.0Q61 596 47.0 637.0Q33 678 16 679Q10 679 5.0 683.5Q0 688 0 695Q0 711 48.0 725.5Q96 740 148 740Q228 740 287 709Q296 704 296 695Q296 688 291.0 683.5Q286 679 280 679Q263 678 249.0 637.0Q235 596 215.5 550.0Q196 504 166 494V442H476V494Q446 504 426.5 550.0Q407 596 393.0 637.0Q379 678 362 679Q356 679 351.0 683.5Q346 688 346 695Q346 700 355 709Q414 740 494 740ZM52 694Q69 676 83.5 631.5Q98 587 112.0 555.0Q126 523 148.0 523.0Q170 523 184.5 555.0Q199 587 213.0 631.5Q227 676 244 694Q206 708 148.0 708.0Q90 708 52 694ZM742 694Q759 676 773.5 631.5Q788 587 802.0 555.0Q816 523 838.0 523.0Q860 523 874.5 555.0Q889 587 903.0 631.5Q917 676 934 694Q896 708 838.0 708.0Q780 708 742 694ZM590 694Q552 708 494.0 708.0Q436 708 398 694Q415 676 429.5 631.5Q444 587 458.0 555.0Q472 523 494.0 523.0Q516 523 530.5 555.0Q545 587 559.0 631.5Q573 676 590 694ZM166 392V312H476V392ZM820 392H512V312H820Z" fill="currentColor"/>
  </g>
</svg>