<svg xmlns="http://www.w3.org/2000/svg" viewBox="0 -2048 2048 2048">
	<path fill="currentColor" d="M390 -1133Q390 -1073 347.5 -1030.5Q305 -988 245 -988Q185 -988 142.5 -1030.5Q100 -1073 100 -1133Q100 -1193 142.5 -1235.5Q185 -1278 245 -1278Q305 -1278 347.5 -1235.5Q390 -1193 390 -1133ZM390 -633Q390 -573 347.5 -530.5Q305 -488 245 -488Q185 -488 142.5 -530.5Q100 -573 100 -633Q100 -693 142.5 -735.5Q185 -778 245 -778Q305 -778 347.5 -735.5Q390 -693 390 -633ZM390 -133Q390 -73 347.5 -30.5Q305 12 245 12Q185 12 142.5 -30.5Q100 -73 100 -133Q100 -193 142.5 -235.5Q185 -278 245 -278Q305 -278 347.5 -235.5Q390 -193 390 -133ZM366 -1133Q366 -1183 330.5 -1218.5Q295 -1254 245 -1254Q195 -1254 159.5 -1218.5Q124 -1183 124 -1133Q124 -1083 159.5 -1047.5Q195 -1012 245 -1012Q295 -1012 330.5 -1047.5Q366 -1083 366 -1133ZM366 -633Q366 -683 330.5 -718.5Q295 -754 245 -754Q195 -754 159.5 -718.5Q124 -683 124 -633Q124 -583 159.5 -547.5Q195 -512 245 -512Q295 -512 330.5 -547.5Q366 -583 366 -633ZM366 -133Q366 -183 330.5 -218.5Q295 -254 245 -254Q195 -254 159.5 -218.5Q124 -183 124 -133Q124 -83 159.5 -47.5Q195 -12 245 -12Q295 -12 330.5 -47.5Q366 -83 366 -133Z"/>
</svg>