<svg xmlns="http://www.w3.org/2000/svg" viewBox="0 -2048 2048 2048">
	<path fill="#000000" d="M405 56L100 286V174L259 51L119 -63L259 -177L114 -292L254 -400L114 -515L254 -618Q207 -657 114 -737L249 -841Q207 -878 114 -960L249 -1069Q209 -1110 114 -1183Q146 -1212 249 -1292Q202 -1334 100 -1426V-1543L394 -1292L254 -1183L394 -1074L244 -970Q289 -930 394 -846Q393 -845 254 -737L399 -618L254 -514L399 -395L249 -286L405 -172L254 -69ZM363 56Q281 -6 218 -68Q267 -105 358 -178L202 -286L358 -400L213 -514Q315 -586 358 -623L213 -737Q265 -775 353 -846L202 -965L353 -1074L213 -1183Q300 -1251 353 -1297L120 -1491V-1441L291 -1292Q244 -1256 156 -1183L291 -1074Q242 -1033 156 -955Q198 -922 291 -841Q244 -805 156 -732Q206 -695 296 -618Q247 -582 156 -509L296 -400Q247 -361 156 -286L301 -177Q212 -109 161 -58Q208 -22 296 51L120 189V245Z"/>
</svg>