<svg viewBox="0 0 17.79986 12.24"
   xmlns="http://www.w3.org/2000/svg">
  <path
     style="fill:currentColor; stroke:none"
     d=" M 0.643119 0.622373  L 0.643119 4.086914  L 8.89993 4.086914  L 6.451931 0.622373  L 0.643119 0.622373  Z  M 9.729762 0.622373  L 12.177761 4.086914  L 17.156744 4.086914  L 17.156744 0.622373  L 9.729762 0.622373  Z  M 7.302506 0.622373  L 9.729762 4.086914  L 11.347932 4.086914  L 8.89993 0.622373  L 7.302506 0.622373  Z  M 10.372881 4.730034  Q 12.488949 5.767322 13.98264 8.858438  Q 14.646505 10.206914 15.310369 11.036746  Q 15.6423 11.472406 15.6423 11.845831  Q 15.6423 12.177761 15.16515 12.24  L 13.754438 12.115525  L 12.385221 12.24  Q 10.538847 12.198507 10.538847 12.053287  L 10.538847 12.011796  Q 10.538847 11.700609 12.157016 11.430915  Q 12.613422 11.347932 13.360269 10.870778  Q 13.671456 10.829288 13.671456 10.746304  Q 12.447456 8.671726 10.850033 6.763118  Q 10.144677 5.891796 9.501558 5.87105  Q 8.920676 5.87105 8.920676 6.223728  Q 8.692472 7.095049 7.084676 8.910303  Q 5.476881 10.725559 5.476881 10.974507  Q 5.373152 11.949558 5.165694 11.949558  Q 4.958237 12.198507 4.522575 12.198507  L 4.50183 12.198507  Q 4.294372 12.198507 3.734236 12.094778  L 3.526779 12.094778  Q 3.049627 12.094778 2.738441 12.198507  Q 0.103729 12.136271 0.103729 11.908067  L 0.082983 11.887321  L 0.082983 11.866576  Q 0.082983 11.555388 1.286237 11.472406  Q 2.676203 11.347932 2.925152 11.223457  Q 3.526779 11.05749 4.356609 10.414372  Q 6.099254 7.800405 8.671726 4.730034  L 0 4.730034  L 0 0  L 17.79986 0  L 17.79986 4.730034  L 10.372881 4.730034  Z " />
</svg>