<svg xmlns="http://www.w3.org/2000/svg" viewBox="0 -2048 2048 2048">
	<path fill="currentColor" d="M1948 -810L1688 -1060H1679V0H1653V-1060H1251V0H1225V-1060H823V0H797V-1060H395V0H369V-1060H360L100 -810V-1318H353L228 -1558L252 -1570L382 -1318L512 -1570L536 -1558L411 -1318H781L656 -1558L680 -1570L810 -1318L940 -1570L964 -1558L839 -1318H1209L1084 -1558L1108 -1570L1238 -1318L1368 -1570L1392 -1558L1267 -1318H1637L1512 -1558L1536 -1570L1666 -1318L1796 -1570L1820 -1558L1695 -1318H1948ZM1922 -871V-1292H126V-871L350 -1086H1698Z"/>
</svg>