<svg xmlns="http://www.w3.org/2000/svg" viewBox="25.7 -1605.3 1687.6 2005.6">
	<path fill="currentColor" d="M1639 -394Q1639 -367 1598 -360Q1568 -357 1539 -354Q1587 -319 1587 -238Q1587 -231 1571 -159Q1555 -87 1555 -80V75Q1555 79 1556.5 105Q1558 131 1558 148Q1558 224 1492 278Q1433 326 1364 326Q1312 326 1260.5 276.5Q1209 227 1170 -27Q1137 -242 1138 -381V-759L994 -331Q1047 -247 1047 -223V248Q1069 266 1120 306V325H545Q545 307 539 301Q584 285 672 248Q571 -5 571 -47Q571 -74 594 -98Q615 -119 634 -119Q661 -119 730 -33Q755 -2 806 61Q809 58 809 -111Q818 -168 826 -225Q843 -297 894 -324V-337Q878 -346 867 -346Q844 -346 817 -283Q802 -295 772 -323Q793 -339 836 -371V-401L804 -417Q818 -442 839 -492Q843 -507 840 -535Q836 -573 836 -578H963Q963 -577 973 -587Q942 -623 910 -660Q872 -708 872 -740Q872 -756 889.5 -778.5Q907 -801 925 -801Q939 -801 952 -779Q962 -761 962 -754Q962 -736 949 -731Q936 -726 923 -722Q915 -728 910 -728Q910 -741 936 -757Q936 -761 922 -775Q899 -758 899 -738Q899 -713 943 -660Q975 -622 1007 -584Q1023 -601 1050 -673Q1081 -758 1101 -793Q1104 -795 1127 -795Q1133 -856 1123 -971Q1070 -896 1003 -866Q918 -828 843 -828Q759 -828 679 -871Q605 -912 564 -971L560 80Q515 326 357 326Q278 326 226 257Q179 194 179 114Q179 93 183 74Q190 40 190 11L153 -238Q155 -314 195 -354Q190 -356 135 -359Q100 -361 100 -391Q100 -419 122 -436.5Q144 -454 167 -472Q168 -485 166 -515Q164 -551 164 -562Q232 -560 275 -567Q246 -602 217 -638Q185 -680 185 -706Q185 -743 216 -743Q232 -743 247 -726Q259 -712 259 -706Q259 -691 234 -680Q230 -684 225 -693Q232 -712 232 -708Q229 -711 225.5 -712.5Q222 -714 219 -717L206 -703Q222 -682 252 -641Q282 -600 298 -579Q311 -632 339 -737H375L317 -465Q317 -461 318 -456Q411 -389 431 -313Q433 -306 433 -277Q433 -229 367 -79Q301 71 301 151Q301 241 365 241Q424 241 459 168Q486 113 486 58V-227L502 -465V-592L491 -1217Q571 -1531 859 -1531Q906 -1531 961 -1508Q1080 -1459 1150 -1350Q1169 -1321 1179 -1267Q1189 -1217 1206 -1196V-433Q1207 -265 1233 -53Q1253 108 1297 200Q1304 215 1336 229Q1364 241 1380 241Q1438 241 1438 151Q1438 107 1410 28Q1379 -46 1348 -120Q1301 -236 1301 -277Q1301 -309 1341.5 -367Q1382 -425 1417 -445Q1386 -482 1376 -560Q1383 -589 1389 -644Q1388 -652 1376 -669Q1364 -686 1364 -695Q1364 -713 1387 -730Q1405 -743 1412 -743Q1429 -743 1441 -726Q1444 -711 1455 -684Q1466 -668 1498 -634.5Q1530 -601 1541 -584.5Q1552 -568 1558 -532Q1565 -492 1572 -477Q1574 -472 1609 -440Q1639 -412 1639 -394ZM1549 -485Q1548 -527 1492 -600Q1427 -685 1416 -716H1398Q1391 -709 1391 -701Q1391 -695 1403 -676Q1415 -657 1415 -650Q1415 -637 1407.5 -611.5Q1400 -586 1400 -572Q1400 -497 1441 -463Q1478 -487 1549 -485ZM1169 -1187Q1169 -1303 1071 -1404Q973 -1505 851 -1505Q716 -1505 614.5 -1403Q513 -1301 513 -1164Q513 -1053 610 -956Q712 -854 846 -854Q977 -854 1073 -951Q1169 -1048 1169 -1187ZM1613 -396Q1604 -420 1563 -443Q1526 -463 1507 -463Q1466 -463 1396.5 -395Q1327 -327 1327 -280Q1327 -239 1372 -132Q1399 -71 1426 -9Q1465 90 1465 146Q1465 267 1380 267Q1375 267 1336 254Q1273 233 1242 116Q1231 73 1209 -90Q1194 -204 1184 -391L1177 -1076Q1167 -1060 1154 -1026Q1153 -1021 1153 -910L1163 -333Q1174 -134 1188 -52Q1194 2 1201 56Q1217 157 1250 216Q1296 299 1372 299Q1425 299 1473 265.5Q1521 232 1532 181Q1538 154 1538 116Q1538 91 1534.5 38.5Q1531 -14 1531 -39Q1531 -88 1540 -121Q1565 -213 1565 -232Q1565 -279 1538 -322Q1505 -373 1452 -373Q1436 -373 1425 -362Q1422 -365 1418.5 -371.5Q1415 -378 1412 -381Q1433 -404 1510 -389.5Q1587 -375 1613 -396ZM1054 -611Q1052 -602 1027 -552H862Q869 -523 868 -506Q903 -503 970 -492Q994 -487 994 -457Q994 -456 989 -431Q984 -406 986 -394ZM1068 297Q1052 285 1020 258V-233Q1020 -240 994 -283Q968 -326 968 -333Q968 -336 983 -366Q951 -374 951 -399Q951 -411 959 -433Q967 -455 967 -462Q956 -462 956 -472Q944 -472 920.5 -475Q897 -478 891 -478Q866 -478 852 -452Q868 -468 875 -468Q885 -468 904 -449Q901 -439 895 -425H881Q870 -430 849 -452Q846 -449 839.5 -440Q833 -431 830 -428Q853 -422 857 -401Q857 -387 857 -374Q891 -366 921 -373V-313Q835 -273 835 -168V105Q828 120 818 120Q771 58 724 -3Q654 -92 637 -92Q617 -92 592 -50L703 264Q677 275 624 297ZM306 -536H191Q198 -497 196 -485Q267 -487 288 -468Q299 -501 306 -536ZM539 80V-1011Q539 -1019 530 -1025.5Q521 -1032 521 -1034L523 -402Q513 -329 513 -285V15Q513 105 482 175Q442 267 365 267Q323 267 298 231Q275 198 275 151Q275 61 343.5 -81.5Q412 -224 412 -288Q412 -333 343 -398Q274 -463 230 -463Q204 -463 169.5 -439Q135 -415 127 -390Q163 -378 177 -378Q184 -378 228.5 -386Q273 -394 280 -394Q307 -394 328 -380Q325 -377 323.5 -371Q322 -365 319 -362Q297 -373 285 -373Q242 -373 208 -322Q179 -278 179 -238Q179 -234 192 -153Q206 -65 209 -26Q211 0 204 95Q200 146 207 175Q221 232 272 268Q317 299 365 299Q428 299 473 245Q514 196 525 122Q526 115 532.5 100.5Q539 86 539 80ZM909 -1179Q909 -1113 846 -1113Q824 -1113 800 -1141Q777 -1166 777 -1185Q777 -1208 799 -1227Q821 -1246 841 -1246Q909 -1246 909 -1179ZM883 -1156V-1202Q865 -1219 843 -1219Q804 -1219 804 -1187Q823 -1134 846 -1134Q860 -1134 883 -1156Z"/>
</svg>