<svg xmlns="http://www.w3.org/2000/svg" viewBox="12.7 -950.3 2356.6 637.6">
	<path fill="currentColor" d="M2282 -828L2281 -802L2048 -817Q2047 -811 2043 -789L2270 -732L2263 -707L2038 -764Q2033 -743 2026 -720L2235 -622L2224 -598L2018 -696Q2009 -671 2000 -654L2149 -533L2132 -513L1987 -631Q1980 -620 1969 -605L2058 -461L2036 -448L1952 -584Q1936 -567 1912 -550L1966 -412L1942 -403L1890 -536Q1867 -524 1846 -517L1864 -405L1839 -400L1820 -511Q1786 -504 1754 -504H628Q596 -504 562 -511L543 -400L518 -405L536 -517Q515 -524 492 -536L440 -403L416 -412L470 -550Q446 -567 430 -584L346 -448L324 -461L413 -605Q402 -620 395 -631L250 -513L233 -533L382 -654Q373 -671 364 -696L158 -598L147 -622L356 -720Q349 -743 344 -764L119 -707L112 -732L339 -789Q337 -798 334 -817L101 -802L100 -828L331 -843H1037Q1045 -843 1062 -836Q1079 -829 1085 -828Q1133 -863 1190 -863Q1247 -863 1295 -828Q1301 -829 1318 -836Q1335 -843 1343 -843H2051ZM2022 -817H1343Q1335 -817 1317 -810Q1369 -758 1369 -684Q1369 -582 1281 -530H1754Q1976 -530 2022 -817ZM1343 -684Q1343 -747 1298 -792Q1253 -837 1190 -837Q1127 -837 1082 -792Q1037 -747 1037 -684Q1037 -621 1082 -576Q1127 -531 1190 -531Q1253 -531 1298 -576Q1343 -621 1343 -684ZM1099 -530Q1011 -582 1011 -684Q1011 -758 1063 -810Q1045 -817 1037 -817H360Q406 -530 628 -530Z"/>
</svg>