<svg xmlns="http://www.w3.org/2000/svg" viewBox="18.9 -660.1 2190.2 771.2">
	<path fill="currentColor" d="M2126 -463Q2128 -419 2095 -330Q2021 -128 1895 -52Q1862 -32 1841 -25Q1680 30 1615 30H884Q878 30 837 6Q796 -18 790 -18Q784 -18 761 -5Q734 10 724 13Q663 30 629 30Q586 30 525 7Q454 -19 408 -61Q385 -32 323 18Q309 25 293 25Q254 25 211 -1Q159 -32 155 -79Q160 -124 162 -211Q161 -240 149 -301Q138 -359 138 -363Q138 -406 159 -437Q157 -439 123 -448Q100 -454 100 -469Q100 -495 138 -517Q171 -536 194 -536Q241 -536 290 -483Q335 -433 335 -392Q244 -144 244 -90Q244 -39 282 -39Q306 -39 336 -75Q362 -108 362 -122Q362 -121 340.5 -180Q319 -239 319 -282Q319 -304 339 -363Q374 -466 460 -525Q538 -579 627 -579Q691 -579 746.5 -552.5Q802 -526 806 -526Q811 -526 836.5 -533.5Q862 -541 868 -541H2126ZM2099 -447V-519H1656Q1662 -501 1759 -470Q1833 -446 1984 -401Q2017 -392 2082 -371Q2099 -455 2099 -447ZM2073 -348L1646 -477Q1646 -451 1635 -431L2028 -237Q2045 -276 2073 -348ZM2014 -208L1631 -403Q1627 -390 1618 -365L1904 -93Q1976 -155 2014 -208ZM1880 -80L1600 -339Q1581 -320 1581 -314Q1644 -217 1765 -29Q1795 -38 1826 -46Q1867 -58 1880 -80ZM1730 -19Q1627 -195 1557 -296Q1542 -286 1522 -267L1625 -2Q1661 -9 1730 -19ZM1597 3L1499 -258Q1481 -252 1453 -241L1491 3ZM1629 -496V-520H900Q899 -520 827 -502Q935 -406 935 -253H1321Q1327 -253 1365 -258Q1409 -264 1423 -265Q1507 -272 1571 -350Q1629 -422 1629 -496ZM1463 2L1425 -237Q1403 -230 1368 -231Q1370 -167 1374 -74Q1379 -9 1368 2ZM1356 3L1340 -225H1250V3ZM1222 3V-225H1138V3ZM1110 3V-225H1015V3ZM989 3V-231H929Q933 -138 817 -31Q863 4 884 3ZM907 -266Q907 -378 826 -465Q741 -558 619 -558Q524 -558 432.5 -470Q341 -382 341 -282Q341 -173 422 -87Q508 4 629 4Q737 4 820 -72Q907 -152 907 -266ZM383 -73V-92Q383 -92 334 -35Q314 -12 285 -12Q223 -12 223 -101Q223 -146 268.5 -269Q314 -392 314 -389Q314 -418 271 -464Q228 -510 199 -510Q166 -510 127 -474Q158 -466 178 -466Q192 -466 207.5 -472Q223 -478 234 -478Q243 -478 261 -469Q260 -460 252 -445Q250 -445 243 -448Q236 -451 228 -451Q196 -451 178 -414Q164 -385 164 -349Q164 -342 172 -303Q182 -258 184 -239Q189 -198 178 -128Q171 -85 187 -57Q199 -36 235 -18Q268 -2 290 -2Q308 -2 312 -3Q384 -57 383 -73Z"/>
</svg>