<svg xmlns="http://www.w3.org/2000/svg" viewBox="0 -2048 2048 2048">
	<path fill="currentColor" d="M1149 132Q1149 146 1127.5 173Q1106 200 1091 200Q1085 200 1051 190Q1017 180 1011 180Q997 180 987 199H721Q721 181 716 156Q786 133 924 73Q963 52 963 31Q963 7 890 -101Q852 -155 813 -210Q812 -212 737 -359H733Q700 -269 663 -205Q656 -193 573 -69Q520 9 510 57Q514 84 517 132Q516 147 491.5 173.5Q467 200 446 200Q440 200 415.5 190Q391 180 385 180Q379 180 357 190Q335 200 329 200H107L100 194V145Q151 129 278 88Q311 77 352 26Q388 -19 406 -61Q461 -197 516 -333Q583 -483 685 -609Q332 -694 332 -996Q332 -1161 455 -1277Q573 -1389 731 -1389Q810 -1389 892 -1348Q989 -1299 1049 -1206Q1064 -1192 1087 -1161Q1124 -1081 1124 -998Q1124 -884 1032 -760Q929 -623 799 -615Q788 -615 766 -609Q816 -554 986 -263Q1031 -186 1090 -10Q1097 10 1125 72Q1149 125 1149 132ZM1099 -1006Q1099 -1073 1087 -1105Q1055 -1190 962 -1280Q928 -1313 860 -1340Q789 -1369 731 -1369Q575 -1369 465 -1251Q357 -1137 357 -985Q357 -832 475 -729Q586 -632 736 -632Q884 -632 991.5 -744Q1099 -856 1099 -1006ZM1124 127Q1124 120 1026 -121Q973 -251 832 -475Q752 -602 731 -602Q649 -602 532 -303Q510 -250 477 -167Q441 -74 401 5Q358 89 278 113Q222 128 120 162Q126 168 126 179H319Q325 179 348.5 166.5Q372 154 378 154Q384 154 412 164.5Q440 175 446 175Q485 175 492 137Q485 108 485 62Q515 -18 584 -136Q678 -297 693 -326Q700 -349 706 -373Q714 -401 737 -411Q770 -343 828 -230Q871 -168 914 -106Q988 4 988 38Q988 79 903 112Q855 127 808 141Q789 148 769 154Q745 165 741 179H972Q983 160 1011 160Q1017 160 1047.5 170Q1078 180 1084 180Q1094 180 1109 158.5Q1124 137 1124 127ZM796 -1001Q796 -930 723 -930Q699 -930 674.5 -957Q650 -984 650 -1003Q650 -1025 679 -1048Q708 -1071 731 -1071Q761 -1071 780 -1045Q796 -1023 796 -1001ZM771 -971V-1025Q749 -1046 731 -1046Q715 -1046 695 -1032Q675 -1018 675 -1001Q675 -990 691 -972Q709 -950 731 -950Q750 -950 771 -971Z"/>
</svg>