<svg xmlns="http://www.w3.org/2000/svg" viewBox="0 -2048 2048 2048">
	<path fill="#000000" d="M1909 -472Q1909 -426 1886 -384Q1858 -336 1816 -336H1019V295Q1009 293 938 294V-335H208Q195 -335 176 -347Q100 -394 100 -480Q100 -515 131 -557Q166 -604 208 -604H942V-1024Q752 -1127 466 -1127Q370 -1127 370 -1127V-1401H551L1021 -1446V-604H1801Q1839 -604 1876 -552Q1909 -506 1909 -472ZM996 -605V-1421L469 -1376H390V-1152Q390 -1152 459 -1152Q574 -1152 729 -1119Q894 -1084 968 -1039V-605ZM1884 -472Q1884 -516 1850 -550Q1816 -584 1771 -584H223Q178 -584 149 -545Q125 -511 125 -475Q125 -446 146 -407Q171 -360 203 -360H1811Q1823 -360 1848 -384Q1873 -408 1877 -422Q1884 -448 1884 -472ZM997 272V-334H963V277Q972 277 984 274.5Q996 272 997 272Z"/>
</svg>