<svg xmlns="http://www.w3.org/2000/svg" viewBox="26.1 -1431.9 1995.8 1937.8">
	<path fill="currentColor" d="M1948 432H100V406H231V259H100V233H231V87H100V61H985V-194Q904 -270 755 -394H100V-472H343V-709Q343 -854 383 -932Q433 -1028 560 -1067V-1229H483V-1314H1003V-1229H926V-1067Q1053 -1028 1103 -932Q1143 -854 1143 -709V-472H1424Q1441 -490 1441 -544Q1441 -568 1435 -587Q1427 -612 1359 -678Q1294 -741 1294 -750Q1294 -759 1329 -917Q1352 -1040 1408 -1282Q1429 -1358 1493 -1358Q1556 -1358 1578 -1272Q1606 -1148 1661 -900Q1693 -757 1693 -748Q1693 -738 1619 -671.5Q1545 -605 1545 -548Q1545 -518 1554 -472H1948V-394H1230Q1289 -319 1289 -265Q1289 -209 1242.5 -167.5Q1196 -126 1139 -126Q1103 -126 1063 -145V61H1948V87H1817V233H1948V259H1817V406H1948ZM1667 -750Q1667 -767 1636 -894Q1612 -1019 1553 -1266Q1534 -1332 1493 -1332Q1455 -1332 1433 -1275Q1424 -1251 1397 -1126Q1377 -1026 1333 -827Q1327 -803 1320 -754Q1367 -707 1413 -661Q1467 -605 1467 -544Q1467 -500 1453 -472H1527Q1519 -514 1519 -548Q1519 -614 1575 -662Q1656 -732 1667 -750ZM977 -1255V-1288H509V-1255ZM1117 -472V-818Q1117 -887 1055 -961.5Q993 -1036 926 -1036Q995 -1022 1036 -945Q1071 -879 1071 -802Q1071 -788 1069.5 -761.5Q1068 -735 1068 -721V-572Q1068 -538 1089 -472ZM1063 -472Q1043 -538 1043 -621Q1043 -645 1045 -692.5Q1047 -740 1047 -764Q1047 -955 926 -1008V-522H1005V-472ZM900 -522V-1229H586V-522ZM1263 -265Q1263 -312 1197 -394H1160Q1243 -327 1262 -250Q1263 -256 1263 -265ZM1791 233V87H1557V233ZM1922 -420V-446H126V-420ZM1241 -221Q1234 -309 1116 -394H1063V-227Q1122 -194 1166 -194Q1202 -194 1241 -221ZM1037 -243V-394H1011V-261Q1027 -249 1037 -243ZM1791 406V259H1557V406ZM1213 -177Q1189 -168 1166 -168Q1046 -168 822 -394H798Q883 -317 969 -241Q1074 -152 1139 -152Q1178 -152 1213 -177ZM985 -280V-394H859Q930 -323 985 -280ZM1531 233V87H1297V233ZM560 -522V-1008Q439 -955 439 -764Q439 -740 441 -692.5Q443 -645 443 -621Q443 -538 423 -472H481V-522ZM978 -472V-496H507V-472ZM560 -1036Q493 -1036 431 -961.5Q369 -887 369 -818V-472H397Q418 -538 418 -572V-721Q418 -735 416.5 -761.5Q415 -788 415 -802Q415 -879 450 -945Q491 -1022 560 -1036ZM1037 61V-159Q1029 -164 1011 -176V61ZM1531 406V259H1297V406ZM1271 233V87H1037V233ZM1271 406V259H1037V406ZM1011 233V87H777V233ZM1011 406V259H777V406ZM751 233V87H517V233ZM751 406V259H517V406ZM491 233V87H257V233ZM491 406V259H257V406Z"/>
</svg>