<svg xmlns="http://www.w3.org/2000/svg" viewBox="0 -2048 2048 2048">
	<path fill="currentColor" d="M1222 -428H882V-480Q882 -510 926 -555.5Q970 -601 1001 -604Q1064 -611 1052 -611Q1102 -611 1162 -560.5Q1222 -510 1222 -471ZM1237 308H100V-145Q100 -183 123 -221Q149 -265 188 -265Q220 -265 236 -241Q278 -177 346 -19Q370 36 462 98.5Q554 161 609 161H642V-806H217V-1113Q217 -1128 250 -1147Q280 -1164 289 -1164Q315 -1164 399 -1097Q450 -1056 501 -1015Q526 -1171 575 -1481Q578 -1500 620 -1529Q662 -1558 680 -1558Q701 -1558 737 -1529Q768 -1504 778 -1487Q793 -1460 819 -1295Q831 -1203 864 -1015Q916 -1063 967 -1111Q1041 -1175 1079 -1175Q1093 -1175 1120 -1160Q1147 -1145 1147 -1135V-809H729V155Q763 144 825 127Q854 121 899 85Q947 45 965 7Q986 -44 1024 -126Q1042 -168 1061 -210Q1091 -265 1137 -265Q1241 -265 1237 -40ZM451 -431H106V-453Q106 -487 150 -542.5Q194 -598 230 -604Q275 -611 278 -611Q306 -611 332.5 -604Q359 -597 402 -563Q409 -557 430 -513Q451 -469 451 -455ZM839 -1001Q826 -1092 798 -1268Q791 -1320 785 -1373Q775 -1439 752 -1487Q747 -1498 720 -1514.5Q693 -1531 682 -1531Q660 -1531 644 -1518Q600 -1483 596 -1465Q579 -1379 551 -1203Q526 -1039 526 -1028V-1000Q604 -962 693 -962Q742 -962 839 -1001ZM1126 -832V-1120Q1099 -1148 1076 -1148Q1048 -1148 986 -1093Q895 -1012 863 -990Q783 -935 709 -935Q606 -935 511 -987Q459 -1015 376 -1085Q313 -1137 289 -1137Q265 -1137 244 -1115V-832ZM1195 -452Q1151 -584 1052 -584Q967 -584 926 -525Q902 -491 903 -469V-452ZM700 154V-807H670V159Q676 159 687 156.5Q698 154 700 154ZM424 -452V-481Q424 -508 381 -545Q341 -578 316 -582Q262 -590 268 -590Q223 -590 176 -535Q135 -487 133 -452ZM1211 282V-120Q1212 -158 1195 -195Q1175 -239 1142 -239Q1136 -239 1128 -236Q1108 -226 1080 -200Q1078 -196 1029 -61Q1007 0 945 67Q878 138 820 154Q700 187 645 187Q580 187 481 141Q345 78 252 -168Q225 -239 193 -239Q168 -239 145 -205Q127 -176 127 -161V282Z"/>
</svg>