<svg xmlns="http://www.w3.org/2000/svg" viewBox="0 -2048 2048 2048">
	<path fill="currentColor" d="M625 -335Q625 -265 593 -200Q553 -120 477 -90V-86Q523 -84 613 -77Q613 -77 613 3H100V-87H242Q172 -132 146 -173Q116 -219 116 -294Q116 -394 161 -482Q182 -523 264 -560Q338 -593 384 -593Q407 -593 469 -571Q536 -547 553 -529Q584 -497 606 -434Q625 -378 625 -335ZM597 -333Q597 -462 530.5 -513.5Q464 -565 379 -565Q336 -565 267 -536Q189 -502 177 -465Q138 -344 138 -300Q138 -215 200 -151Q264 -84 354 -84Q462 -84 529.5 -155.5Q597 -227 597 -333ZM591 -19V-61H122V-19Z"/>
</svg>