<svg xmlns="http://www.w3.org/2000/svg" viewBox="0 -2048 2048 2048">
	<path fill="#000000" d="M644 -262Q644 -145 564 -57Q482 34 367 34Q249 34 169 -67Q100 -156 100 -257Q100 -336 135 -401Q180 -485 269 -512Q351 -537 346 -537Q469 -537 554 -464Q644 -386 644 -262ZM618 -260Q618 -372 544 -441.5Q470 -511 354 -511Q259 -511 190 -436.5Q121 -362 121 -257Q121 -160 193 -78Q269 7 369 7Q474 7 546 -72Q618 -151 618 -260ZM602 -236Q602 -171 542 -99Q487 -33 443 -25Q352 -8 369 -8Q253 -8 164 -140Q147 -165 147 -247Q147 -311 169 -368Q185 -410 253 -451Q316 -490 354 -490Q417 -490 496 -451Q543 -428 563 -394Q602 -328 602 -236ZM576 -254Q576 -346 517 -405Q458 -464 364 -464Q308 -464 226 -409Q193 -387 180.5 -342.5Q168 -298 168 -252Q168 -191 180 -167Q246 -34 364 -34Q441 -34 507 -98Q576 -166 576 -254Z"/>
</svg>