<svg xmlns="http://www.w3.org/2000/svg" viewBox="0 -2048 2048 2048">
	<path fill="currentColor" d="M1952 313L1688 66H369L100 313V-189H252V-841Q252 -860 280.5 -897.5Q309 -935 333 -941Q340 -943 361 -943Q416 -943 466 -883Q474 -1132 656 -1290Q822 -1433 1036 -1433Q1246 -1433 1413 -1257Q1575 -1088 1569 -900Q1570 -896 1575 -888Q1611 -948 1667 -948Q1695 -948 1732 -927Q1773 -904 1783 -872Q1800 -816 1800 -817V-193H1952ZM1288 -696L1277 -813H1269L1279 -696ZM1290 -522Q1272 -515 1266 -521Q1277 -576 1274 -599Q1273 -606 1248 -691Q1226 -768 1226 -801V-951Q1226 -958 1211 -1004Q1192 -1060 1188 -1075Q1182 -1099 1182 -1127Q1182 -1153 1189.5 -1204.5Q1197 -1256 1197 -1282Q1197 -1298 1195 -1312Q1194 -1323 1181 -1332.5Q1168 -1342 1163 -1342Q1173 -1311 1170 -1292Q1162 -1245 1127 -1245Q1115 -1245 1107 -1253Q1107 -1266 1115 -1274Q1120 -1269 1127 -1269Q1147 -1269 1147 -1299Q1147 -1317 1140 -1329Q1119 -1309 1115 -1309Q1105 -1309 1102 -1312V-1330Q1111 -1340 1142 -1356L1094 -1363Q1094 -1338 1089 -1328H1072Q1059 -1353 1046 -1353Q1025 -1353 1025 -1334Q1047 -1345 1050 -1344Q1059 -1336 1073 -1317Q1071 -1313 1065 -1304H1037Q1030 -1304 1024.5 -1311.5Q1019 -1319 1014 -1319Q1008 -1319 967 -1291Q923 -1260 915 -1246Q920 -1246 934 -1243Q948 -1240 954 -1240Q985 -1240 1006 -1255L1014 -1246V-1233Q998 -1224 949 -1212Q1048 -1204 1048 -1156Q1048 -1150 1023.5 -1057Q999 -964 999 -958Q999 -951 1008 -915Q1018 -872 1020 -859Q1050 -859 1072 -849Q1072 -967 1084 -1009Q1090 -1017 1099 -1017L1108 -1009Q1080 -917 1101 -837Q1100 -833 1094 -824H1076Q1004 -839 863 -867Q845 -870 836 -860Q856 -860 872 -849Q887 -850 911 -847Q1069 -779 1091 -780H1137Q1142 -849 1156 -988Q1165 -985 1177 -979Q1170 -946 1168 -859Q1166 -788 1156 -768Q1149 -755 1115 -755Q1042 -755 902 -829Q896 -829 875 -821.5Q854 -814 848 -814Q842 -814 822 -834Q822 -824 816 -815L875 -525Q866 -485 761 -465Q904 -465 909 -464Q911 -539 913 -688Q913 -695 908.5 -716.5Q904 -738 904 -747Q904 -765 916 -770Q959 -705 1042 -588Q1101 -510 1116 -496Q1151 -463 1197 -463Q1259 -463 1290 -522ZM1548 -871Q1548 -971 1521 -1045Q1461 -1210 1316 -1312Q1181 -1408 1033 -1408Q828 -1408 663 -1263Q489 -1110 489 -896Q489 -772 539 -661Q602 -524 726 -454Q724 -472 730 -476Q791 -494 850 -523Q817 -689 794 -816Q782 -822 766 -837Q792 -888 850 -888Q856 -888 909 -878Q969 -868 993 -865Q974 -962 974 -968Q974 -990 1028 -1154Q1010 -1171 1002 -1173Q885 -1207 885 -1240Q885 -1261 930 -1292Q957 -1309 983 -1326Q998 -1348 1032 -1376Q1075 -1388 1115 -1388Q1155 -1388 1188 -1354.5Q1221 -1321 1221 -1279Q1221 -1273 1211.5 -1200Q1202 -1127 1202 -1121Q1202 -1115 1217 -1065Q1234 -1008 1239 -984Q1249 -931 1248 -822Q1291 -938 1318 -938Q1325 -938 1329.5 -936Q1334 -934 1336 -934Q1336 -929 1338 -926.5Q1340 -924 1340 -918Q1340 -911 1320.5 -871Q1301 -831 1301 -787Q1301 -782 1313 -681.5Q1325 -581 1325 -574Q1325 -438 1199 -438Q1132 -438 1041 -553Q988 -623 936 -693Q937 -614 933 -456Q932 -438 912 -438Q906 -438 894.5 -443Q883 -448 878 -448Q874 -448 822.5 -442.5Q771 -437 752 -437Q891 -359 1021 -359Q1227 -359 1384 -504Q1548 -655 1548 -871ZM1302 -538V-551H1294V-538ZM1297 -523V-537H1289V-523ZM1775 -192V-827Q1775 -843 1748.5 -876.5Q1722 -910 1704 -916Q1682 -923 1669 -923Q1660 -923 1639 -916Q1623 -911 1599.5 -885.5Q1576 -860 1574 -847Q1557 -712 1470 -578Q1370 -424 1233 -375Q1165 -351 1060 -343Q1048 -342 1018 -338Q992 -335 986 -335Q970 -335 923 -347Q872 -361 863 -362Q754 -377 621 -510Q485 -647 488 -747Q489 -765 472 -821Q467 -825 453 -857Q424 -923 363 -923Q339 -923 308 -896.5Q277 -870 277 -846V-192ZM1933 259V-166H125V259Q202 185 354 41H1693Z"/>
</svg>