<svg xmlns="http://www.w3.org/2000/svg" viewBox="0 -2048 2048 2048">
	<path fill="currentColor" d="M1358 -444H938Q946 -424 946 -402Q946 -344 884 -260Q825 -191 767 -122Q771 -118 777 -119L1074 -195V-34L755 -64Q750 -60 753 -41Q760 10 783 139Q802 251 802 257V295H636Q657 181 694 -47Q698 -59 693 -64L383 -14V-184L663 -119L681 -123Q618 -192 554 -261Q489 -338 489 -393Q489 -420 504 -445H100V-991Q100 -1022 134.5 -1051Q169 -1080 198 -1080Q233 -1080 273 -1034Q279 -1077 298 -1164Q344 -1312 486 -1401Q609 -1479 739 -1479Q897 -1479 1025 -1360Q1162 -1231 1174 -1039Q1203 -1085 1247 -1085Q1277 -1085 1317.5 -1052.5Q1358 -1020 1358 -987ZM1151 -1029Q1151 -1179 1037 -1311Q914 -1454 747 -1454Q700 -1454 614 -1430Q538 -1408 505 -1391Q446 -1360 385 -1279Q328 -1203 312.5 -1143Q297 -1083 297 -1024Q297 -1007 310 -950Q347 -787 471 -694Q583 -610 721 -610Q846 -610 961 -683Q1093 -768 1127 -910Q1151 -1010 1151 -1029ZM1333 -474V-997Q1333 -1014 1302.5 -1037Q1272 -1060 1257 -1060Q1225 -1060 1188 -1023Q1178 -1013 1175 -987Q1172 -982 1168 -980Q1160 -894 1112 -810Q1054 -708 955 -651Q901 -620 829 -601Q783 -589 716 -589Q445 -589 313 -856Q297 -912 259 -1013Q239 -1055 195 -1055Q183 -1055 157 -1038Q125 -1018 125 -996V-474ZM883 -402Q883 -420 872 -442H566Q554 -406 554 -395Q554 -363 619 -283Q671 -222 724 -160Q883 -332 883 -402ZM1049 -64V-164L757 -86ZM929 -400Q929 -397 912 -447H893Q913 -410 901 -370Q885 -320 811 -222Q740 -129 726 -129Q713 -129 650 -200Q600 -257 580 -285Q548 -329 540 -355Q528 -392 538 -448Q509 -417 509 -395Q509 -315 724 -109Q781 -174 838 -238Q929 -346 929 -400ZM701 -86L409 -154V-39ZM776 269L724 -79L661 269Z"/>
</svg>