<svg xmlns="http://www.w3.org/2000/svg" viewBox="0 -2048 2048 2048">
	<path fill="#000000" d="M1598 -1326Q1598 -1161 1494 -1114Q1452 -1095 1435 -1095H864L1209 352H504Q495 343 496 338L836 -1095H294Q251 -1095 193 -1133Q135 -1171 119 -1211Q100 -1260 100 -1316Q100 -1311 122 -1408Q170 -1468 209 -1490Q253 -1514 326 -1514H1407Q1413 -1514 1441 -1509Q1521 -1495 1557 -1447Q1567 -1434 1582.5 -1388Q1598 -1342 1598 -1326ZM1575 -1325Q1575 -1377 1539.5 -1434.5Q1504 -1492 1415 -1492H316Q261 -1492 229 -1476Q203 -1463 160 -1420Q154 -1414 143 -1400Q123 -1363 123 -1316Q123 -1277 138 -1224Q148 -1190 199.5 -1155.5Q251 -1121 288 -1121H1441Q1466 -1121 1504 -1149Q1542 -1177 1554 -1201Q1575 -1243 1575 -1325ZM1179 328L849 -1058L521 328H708L849 -213L992 328ZM965 327L849 -134L732 327Z"/>
</svg>