<!-- Created with Inkscape (http://www.inkscape.org/) -->
<svg viewBox="-1 -1 27.4 20.2"
   xmlns="http://www.w3.org/2000/svg">
  <g>
    <path
       style="fill:currentColor;fill-opacity:1.0000000;fill-rule:nonzero;stroke:none;stroke-width:0.60000002;stroke-linecap:square;stroke-linejoin:round;stroke-miterlimit:4.0000000;stroke-opacity:1.0000000"
       d="M 7.2920574,0.026414883 L 6.9936855,0.039602354 L 0.33719539,0.31654419 C 0.17746868,0.32249541 0.050897901,0.45343062 0.050362678,0.61326994 L 0.050362678,3.8310678 C 0.049975044,3.9826741 0.16350648,4.1103991 0.31411660,4.1277886 C 2.5228799,4.3876455 4.5612055,4.5361354 6.9260985,4.7393663 L 6.9755528,4.7443165 L 6.8865357,18.200711 L 8.6701721,18.200711 L 8.2267358,0.049491608 L 7.2937060,0.049491608 L 7.2920574,0.026414883 z M 7.0035766,0.63469503 L 6.9804980,4.1459202 L 6.9772009,4.1459202 C 4.7041478,3.9505805 2.7387708,3.8031546 0.64710600,3.5640150 L 0.64710600,0.90010112 L 7.0035766,0.63469503 z " />
    
    <path
       style="fill:currentColor;fill-opacity:1;fill-rule:nonzero;stroke:none;stroke-width:0.60000002;stroke-linecap:square;stroke-linejoin:round;stroke-miterlimit:4;stroke-opacity:1"
       d="M 15.655996,0.026414883 L 15.357624,0.039602354 L 8.7011338,0.31654419 C 8.5414071,0.32249541 8.4148363,0.45343062 8.4143011,0.61326994 L 8.4143011,3.8310678 C 8.4139135,3.9826741 8.5274449,4.1103991 8.678055,4.1277886 C 10.886818,4.3876455 12.925144,4.5361354 15.290037,4.7393663 L 15.339491,4.7443165 L 15.250474,18.200711 L 17.03411,18.200711 L 16.590674,0.049491608 L 15.657644,0.049491608 L 15.655996,0.026414883 z M 15.367515,0.63469503 L 15.344436,4.1459202 L 15.341139,4.1459202 C 13.068086,3.9505805 11.102709,3.8031546 9.0110444,3.564015 L 9.0110444,0.90010112 L 15.367515,0.63469503 z " />
    <path
       style="fill:currentColor;fill-opacity:1;fill-rule:nonzero;stroke:none;stroke-width:0.60000002;stroke-linecap:square;stroke-linejoin:round;stroke-miterlimit:4;stroke-opacity:1"
       d="M 24.019935,0.026414883 L 23.721563,0.039602354 L 17.065073,0.31654419 C 16.905346,0.32249541 16.778775,0.45343062 16.77824,0.61326994 L 16.77824,3.8310678 C 16.777852,3.9826741 16.891384,4.1103991 17.041994,4.1277886 C 19.250757,4.3876455 21.289083,4.5361354 23.653976,4.7393663 L 23.70343,4.7443165 L 23.614413,18.200711 L 25.39805,18.200711 L 24.954613,0.049491608 L 24.021583,0.049491608 L 24.019935,0.026414883 z M 23.731454,0.63469503 L 23.708375,4.1459202 L 23.705078,4.1459202 C 21.432025,3.9505805 19.466648,3.8031546 17.374983,3.564015 L 17.374983,0.90010112 L 23.731454,0.63469503 z " />
  </g>
</svg>