<!-- Created with Inkscape (http://www.inkscape.org/) -->
<svg viewBox="0 0 1800 1800"
   xmlns="http://www.w3.org/2000/svg"
   version="1.0">
  </sodipodi:namedview>
  <g>
    <path
       style="fill:currentColor;stroke:none"
       d="M 327.0625 4.3125 C 309.80768 8.3105735 305.09444 19.321166 312.9375 37.3125 L 1169.4062 906.875 L 1367.0625 670 L 1760 861.90625 L 1800 732.96875 L 327.0625 4.3125 z M 454.125 118.25 L 1738.8125 753.96875 L 1724.7188 795.9375 L 1348.25 613.03125 L 1164.7188 828.90625 L 454.125 118.25 z M 142.71875 691.9375 C 55.227936 691.9375 32.816976 765.36546 75.46875 912.21875 L 0 912.21875 L 0 985.625 L 57.40625 985.625 L 116.46875 1103.5 L 308.40625 1103.5 L 367.46875 985.625 L 497.0625 985.625 L 866.15625 1350.8438 L 866.15625 1403 L 0 1403 L 0 1472.5625 L 224.75 1472.5625 L 224.75 1567.8438 L 0 1567.8438 L 0 1639.3125 L 224.75 1639.3125 L 224.75 1734.5938 L 0 1734.5938 L 0 1806.0625 L 1802.8438 1806.0625 L 1802.8438 1734.5938 L 1578.125 1734.5938 L 1578.125 1639.3125 L 1802.8438 1639.3125 L 1802.8438 1567.8438 L 1578.125 1567.8438 L 1578.125 1472.5625 L 1802.8438 1472.5625 L 1802.8438 1403 L 935.0625 1403 L 935.0625 1370.1562 C 1043.3323 1370.1562 1086.5288 1334.7253 1064.6562 1263.875 C 1188.237 1227.8058 1216.1179 1169.187 1148.3125 1088.0312 L 1064.6562 985.625 L 1801.3125 985.625 L 1801.3125 912.21875 L 305.125 912.21875 C 259.19232 765.36543 205.05595 691.93751 142.71875 691.9375 z M 142.71875 753.75 C 180.99599 753.75 215.44069 806.58744 246.0625 912.21875 L 134.53125 912.21875 C 95.160381 806.58741 97.879706 753.75 142.71875 753.75 z M 116.46875 985.625 L 308.40625 985.625 L 280.53125 1041.6562 L 144.375 1041.6562 L 116.46875 985.625 z M 590.5625 985.625 L 866.15625 985.625 L 866.15625 1252.2812 L 590.5625 985.625 z M 971.15625 985.625 L 999.03125 985.625 L 1113.875 1124.75 C 1144.4967 1164.6839 1123.7111 1194.9515 1051.5312 1215.5625 L 971.15625 985.625 z M 935.0625 1026.2188 L 1015.4375 1260.0312 C 1028.561 1302.5414 1001.7743 1323.7813 935.0625 1323.7812 L 935.0625 1026.2188 z M 292 1472.5625 L 546.28125 1472.5625 L 546.28125 1567.8438 L 292 1567.8438 L 292 1472.5625 z M 611.875 1472.5625 L 866.15625 1472.5625 L 866.15625 1567.8438 L 611.875 1567.8438 L 611.875 1472.5625 z M 935.0625 1472.5625 L 1190.9688 1472.5625 L 1190.9688 1567.8438 L 935.0625 1567.8438 L 935.0625 1472.5625 z M 1256.5938 1472.5625 L 1510.8438 1472.5625 L 1510.8438 1567.8438 L 1256.5938 1567.8438 L 1256.5938 1472.5625 z M 292 1639.3125 L 546.28125 1639.3125 L 546.28125 1734.5938 L 292 1734.5938 L 292 1639.3125 z M 611.875 1639.3125 L 866.15625 1639.3125 L 866.15625 1734.5938 L 611.875 1734.5938 L 611.875 1639.3125 z M 935.0625 1639.3125 L 1190.9688 1639.3125 L 1190.9688 1734.5938 L 935.0625 1734.5938 L 935.0625 1639.3125 z M 1256.5938 1639.3125 L 1510.8438 1639.3125 L 1510.8438 1734.5938 L 1256.5938 1734.5938 L 1256.5938 1639.3125 z " />
  </g>
</svg>