<svg xmlns="http://www.w3.org/2000/svg" viewBox="0 -2048 2048 2048">
	<path fill="#000000" d="M2066 350H100V-1514H2066ZM2042 325V-1489H125V325ZM1972 -1088H1575V-1428H1972ZM1976 260H194V-1428H1517V-1026H1976ZM1947 -1112V-1403H1599V-1112ZM1951 235V-1002H1493V-1403H219V235ZM1865 -70Q1865 -65 1859 -41L1833 -33Q1737 -103 1613 -174L1781 63L1517 233L1302 -174Q1279 -217 1161 -254L1157 45L1144 53Q1091 -4 1038 -4L1028 123Q1088 129 1149 135Q1226 153 1226 207Q1226 211 1224 215L1212 225Q1190 207 1169 207L1157 223Q1077 211 985 211Q954 211 891.5 217Q829 223 798 223Q797 223 770 213Q756 213 727 216Q698 219 684 219L702 223Q685 225 651 225Q643 225 639 217L575 225L571 215Q547 223 522 223V217Q517 217 455 225Q456 225 458 225L442 217L458 172Q602 138 721 121Q757 33 757 -53Q757 -234 635 -504Q625 -527 508 -676Q428 -778 428 -961Q428 -1116 352 -1116Q326 -1116 310 -1096Q288 -1068 280 -1063Q266 -1087 266 -1108Q266 -1171 298 -1206Q309 -1218 381 -1268Q421 -1330 469 -1352Q510 -1370 587 -1370Q710 -1370 772 -1312Q815 -1272 874 -1143Q908 -1143 954 -1108Q1047 -1037 1155 -895L1491 -453Q1499 -442 1553 -389Q1610 -333 1695 -252Q1865 -91 1865 -70ZM473 -1225Q473 -1243 456 -1243Q440 -1235 440 -1223Q440 -1212 462 -1204Q473 -1211 473 -1225ZM614 -1153Q614 -1229 495 -1241Q499 -1233 499 -1229Q499 -1196 473 -1180Q478 -1163 478 -1157Q478 -1155 477 -1151Q477 -1147 477 -1145Q475 -1139 469 -1129L458 -1127L434 -1135Q456 -1105 479 -1053Q483 -1062 480 -1105Q478 -1140 498 -1158Q518 -1176 538 -1176Q553 -1176 566 -1153.5Q579 -1131 579 -1114Q579 -1096 567 -1084Q614 -1111 614 -1153ZM1841 -72Q1827 -99 1673 -240Q1594 -308 1470 -436L1134 -879Q958 -1111 858 -1123Q817 -1210 789 -1249Q741 -1317 680 -1334Q641 -1346 587 -1346Q443 -1346 403 -1256Q400 -1248 391 -1233Q382 -1230 364 -1225Q290 -1201 290 -1112Q326 -1184 385 -1184L452 -1157Q449 -1175 413 -1219Q417 -1268 454 -1268Q544 -1268 579 -1253Q639 -1229 639 -1153Q639 -1109 600 -1073Q565 -1042 518 -1032L506 -1051L495 -1020L489 -1022L487 -1016Q474 -1016 440 -1078.5Q406 -1141 352 -1141Q418 -1129 440 -1057Q452 -1016 452 -926Q452 -791 526 -692Q640 -540 794 -350Q818 -324 864 -273Q902 -230 931 -152.5Q960 -75 960 -17Q960 63 942 139L802 166Q788 179 788 192Q800 198 805 198Q784 198 928 190L980 187L985 186Q986 186 985 186Q1058 186 1144 196Q1149 191 1149 188Q1149 177 1140 160Q1107 157 999 143L1013 -33Q1089 -27 1136 10L1140 -279L1147 -287Q1289 -245 1321 -189Q1402 -50 1525 196L1745 55L1564 -201L630 -692Q585 -716 534 -776Q477 -842 477 -885Q477 -934 487 -957Q528 -1049 768 -1086L772 -1061Q565 -1028 520 -965Q501 -938 501 -891Q501 -854 554 -791Q603 -734 643 -713L1499 -262Q1577 -222 1728 -135Q1764 -110 1839 -62ZM555 -1118Q555 -1128 534 -1149Q506 -1149 506 -1120Q506 -1114 509 -1091Q512 -1074 510 -1063Q555 -1085 555 -1118ZM1190 182Q1185 175 1169 166L1173 182ZM936 -19Q936 -123 847 -250Q833 -271 684 -449Q782 -186 782 -58Q782 14 741 143L800 133L843 -49L921 -35ZM936 24Q936 4 909 -9Q886 -21 864 -21L825 135L921 119Q936 63 936 24ZM764 184V178L753 182L751 192L762 190Q763 186 764 184ZM731 170Q723 173 708 176Q704 184 702 190L704 194L727 188ZM729 145Q589 161 589 178Q589 182 594 196L649 190Q647 159 729 145ZM567 190V182Q557 182 549 196ZM526 180Q516 184 512 194L524 192Z"/>
</svg>