<svg xmlns="http://www.w3.org/2000/svg" viewBox="0 -2048 2048 2048">
	<path fill="currentColor" d="M1870 -557H1538V193H1753V305H635V196H841V-562Q841 -562 763 -562Q698 -562 584.5 -534Q471 -506 420 -506Q241 -506 117 -633Q111 -652 100 -684Q127 -713 145 -713Q142 -713 240 -662.5Q338 -612 423 -612Q506 -612 529 -630Q518 -648 508 -648Q502 -648 463 -642.5Q424 -637 418 -637Q369 -637 302 -679Q310 -706 334 -738Q384 -713 397 -713Q403 -713 466.5 -723Q530 -733 536 -733Q574 -733 616.5 -708Q659 -683 672 -683Q676 -683 738 -693Q806 -704 839 -707V-1352H635V-1459H1753V-1356H1538V-717Q1553 -715 1594 -708L1639 -1222H1824ZM1728 -1380V-1439H661L655 -1377H867V-719Q932 -719 932 -719V-1378H1448V-721Q1457 -720 1514 -721V-1380ZM1421 -724V-1353H953V-729L1207 -743Q1288 -743 1421 -724ZM1844 -582L1804 -1202H1659L1619 -688H1566Q1495 -697 1358 -711Q1272 -718 1189 -718Q1032 -718 841 -688Q650 -658 675 -658Q668 -658 606 -685.5Q544 -713 539 -713Q533 -713 473 -703Q413 -693 407 -693Q368 -693 338 -708Q338 -683 338 -683Q373 -663 425 -663Q431 -663 463 -665.5Q495 -668 501 -668Q554 -668 554 -620Q554 -608 550 -612Q471 -587 418 -587Q344 -587 238.5 -637.5Q133 -688 140 -688Q132 -688 125 -681V-665Q144 -618 253 -570Q354 -526 413 -526Q481 -526 573 -554Q615 -568 658 -582ZM1421 194V-551H953V194ZM1728 280V213H1511V-556H1445V214H931V-556H867V217H655V280Z"/>
</svg>