<svg xmlns="http://www.w3.org/2000/svg" viewBox="0 -2048 2048 2048">
	<path fill="#000000" d="M2066 350H100V-1514H2066ZM2042 325V-1489H125V325ZM1972 264H1575V-76H1972ZM1976 -138H1517V264H194V-1424H1976ZM1947 239V-52H1599V239ZM1951 -162V-1399H219V239H1493V-162ZM1371 -528L1046 -569L1104 161H938L1002 -557Q986 -560 970 -560Q919 -560 818 -543.5Q717 -527 665 -527V-648L952 -609Q965 -610 983 -613Q780 -961 780 -1153Q780 -1247 846 -1303Q909 -1356 1004 -1356Q1250 -1356 1250 -1133Q1250 -1032 1181 -869Q1152 -799 1059 -617L1058 -610Q1058 -608 1062 -603L1371 -648ZM1221 -1127Q1221 -1332 998 -1332Q928 -1332 867 -1281Q803 -1227 803 -1158Q803 -1076 861 -929Q908 -809 965 -711Q838 -1061 838 -1121Q838 -1187 895 -1235Q948 -1280 1016 -1280Q1091 -1280 1135.5 -1230Q1180 -1180 1180 -1104Q1180 -1034 1151 -928Q1126 -841 1102 -754Q1221 -1020 1221 -1127ZM1151 -1104Q1151 -1251 1016 -1251Q959 -1251 914 -1214Q867 -1174 867 -1118Q867 -1068 932 -885Q1019 -642 1020 -638Q1151 -979 1151 -1104ZM1342 -557V-619Q1275 -608 1140 -589Q1162 -585 1342 -557ZM931 -582L689 -619V-557ZM1075 132L1021 -475L967 132Z"/>
</svg>