<svg xmlns="http://www.w3.org/2000/svg" viewBox="19.8 -1074.2 2165.4 1259.4">
	<path fill="currentColor" d="M2105 58H1959Q1952 78 1954 104Q1889 97 1873 105V-255Q1873 -293 1811 -446Q1790 -498 1735 -563Q1672 -638 1615 -660Q1382 -750 1089 -750Q851 -750 680 -696Q405 -610 362 -400Q348 -331 341 -276Q327 -168 327 -152V104H250V50H100V-54Q111 -54 166 -55Q208 -56 235 -55Q246 -219 255 -306Q166 -334 100 -347Q100 -353 109 -402Q113 -429 100 -443L258 -408Q263 -408 269 -417Q298 -504 329 -557Q357 -604 436 -691Q398 -747 348 -805Q373 -830 423 -870Q428 -865 533 -745Q679 -815 810 -833Q813 -841 813 -853Q813 -870 806.5 -903.5Q800 -937 800 -945V-993Q814 -982 837 -986Q888 -994 896 -994Q904 -975 910 -913Q915 -859 927 -843Q907 -843 1009 -847Q1054 -849 1143 -844Q1188 -841 1233 -838H1256Q1270 -891 1277 -988Q1348 -978 1384 -978Q1376 -919 1369 -827Q1499 -803 1516 -799Q1594 -779 1657 -740Q1710 -801 1755 -869Q1793 -846 1841 -810Q1828 -789 1799.5 -745.5Q1771 -702 1758 -681Q1804 -633 1875 -547Q1920 -479 1931 -425Q1933 -413 1939 -413Q1945 -413 1986 -427Q2033 -444 2058 -449Q2062 -427 2084 -353Q2037 -337 1944 -311L1960 -49Q1965 -44 2105 -49ZM2084 37V-26H1934V-173Q1935 -201 1913 -321L2053 -368Q2047 -402 2036 -424Q1995 -408 1917 -382Q1879 -541 1727 -670Q1738 -690 1810 -805Q1776 -828 1760 -833Q1728 -789 1662 -709Q1554 -784 1348 -801V-957Q1316 -957 1298 -962Q1297 -890 1283 -817H897Q891 -881 881 -967Q822 -962 825 -962V-935Q834 -893 839 -822Q775 -805 651 -769Q607 -752 522 -719Q489 -760 424 -838Q406 -824 379 -805Q411 -764 467 -686Q332 -559 282 -377Q235 -390 131 -413Q131 -377 125 -369Q177 -354 281 -322Q272 -222 261 -29H126V27Q143 27 198 26Q245 26 271 26V78H301V-152Q301 -153 315 -286Q319 -328 346 -436Q430 -776 1076 -776Q1481 -776 1692 -640Q1742 -608 1817 -487Q1898 -357 1898 -152Q1898 77 1899 79H1928Q1928 45 1933 37Z"/>
</svg>