<svg xmlns="http://www.w3.org/2000/svg" viewBox="0 -2048 2048 2048">
	<path fill="currentColor" d="M1966 -570L1360 -568V350H708V-568Q703 -565 687 -560Q659 -551 604 -533Q521 -508 426 -508Q419 -508 407 -510Q311 -525 288 -534Q260 -543 182 -592Q131 -624 118 -641Q110 -652 100 -694L104 -707Q120 -727 151 -727Q218 -692 285 -657Q363 -621 430 -621Q515 -621 553 -639L544 -658Q525 -658 486.5 -653.5Q448 -649 428 -649Q372 -649 311 -694Q328 -728 348 -754Q391 -729 416 -729Q442 -729 492.5 -740.5Q543 -752 569 -752Q585 -752 638.5 -724.5Q692 -697 708 -697V-1161H766L790 -1198Q764 -1214 764 -1233Q764 -1254 788 -1268Q766 -1320 766 -1364Q766 -1400 780 -1449Q798 -1512 823 -1512Q866 -1453 866 -1374Q866 -1323 843 -1258Q849 -1251 858 -1233Q852 -1221 837 -1202L860 -1161H901L921 -1194Q905 -1206 905 -1219Q905 -1248 921 -1260Q899 -1310 899 -1345Q899 -1380 916 -1439Q937 -1510 962 -1510Q1007 -1445 1007 -1374Q1007 -1356 998 -1322Q989 -1288 989 -1270Q989 -1262 991 -1247.5Q993 -1233 993 -1225Q993 -1202 983 -1194L1003 -1161H1069L1085 -1196Q1071 -1210 1071 -1227Q1071 -1264 1085 -1266Q1063 -1310 1063 -1370Q1063 -1402 1079 -1451Q1098 -1510 1122 -1510Q1163 -1455 1163 -1370Q1163 -1325 1144 -1260L1165 -1231Q1161 -1204 1140 -1196L1161 -1161H1220L1239 -1198Q1218 -1210 1218 -1229Q1218 -1245 1233 -1260Q1217 -1317 1217 -1332Q1217 -1381 1228 -1437Q1245 -1518 1274 -1518Q1317 -1463 1317 -1403Q1317 -1312 1290 -1270Q1310 -1262 1310 -1235Q1310 -1208 1290 -1198L1310 -1161H1360V-754L1685 -723L1726 -1268H1925ZM1290 -1403Q1290 -1446 1267 -1479Q1241 -1413 1241 -1358Q1241 -1332 1255 -1276L1267 -1278Q1290 -1314 1290 -1403ZM1284 -1235V-1243Q1278 -1247 1265 -1252Q1245 -1238 1245 -1229Q1245 -1215 1265 -1215Q1284 -1215 1284 -1235ZM1138 -1370Q1138 -1465 1114 -1471Q1087 -1421 1087 -1370Q1087 -1318 1108 -1276Q1109 -1277 1112 -1277Q1116 -1277 1122 -1274Q1138 -1328 1138 -1370ZM1283 -1161L1271 -1186Q1254 -1186 1248 -1161ZM1136 -1229Q1121 -1252 1108 -1252Q1097 -1252 1097 -1231Q1097 -1213 1110 -1209Q1128 -1217 1136 -1229ZM983 -1374Q983 -1425 956 -1471Q925 -1397 925 -1342Q925 -1310 944 -1272H960Q983 -1322 983 -1374ZM1132 -1161L1120 -1186Q1103 -1186 1097 -1161ZM839 -1372Q839 -1415 815 -1471Q790 -1411 790 -1372Q790 -1330 813 -1276L819 -1274Q839 -1300 839 -1372ZM972 -1231Q972 -1247 952 -1247Q929 -1237 929 -1221L940 -1211Q943 -1210 952 -1206Q972 -1206 972 -1231ZM1335 -1096V-1137H733V-1096ZM971 -1161L959 -1186Q942 -1186 936 -1161ZM1335 -756V-1055L1009 -744Q1107 -760 1226 -760Q1285 -760 1335 -756ZM831 -1233Q818 -1246 811 -1252Q794 -1244 792 -1233Q796 -1226 811 -1215H813Q827 -1225 831 -1233ZM829 -1161L817 -1186Q800 -1186 794 -1161ZM1945 -592L1902 -1243H1749L1708 -699Q1649 -702 1474 -720Q1327 -735 1239 -735Q1114 -735 860 -697Q850 -695 778 -680Q729 -670 696 -670L567 -727Q448 -705 422 -705Q386 -705 354 -723L344 -703Q381 -674 438 -674Q459 -674 500 -678Q541 -682 561 -682Q573 -655 579 -625Q515 -594 430 -594Q307 -594 158 -697Q151 -702 151 -703Q136 -703 127 -692Q127 -633 251 -580Q358 -533 428 -533Q529 -533 667 -582Q704 -595 741 -595Q754 -595 780 -593.5Q806 -592 819 -592ZM1317 -1071H733V-703L968 -737ZM1335 -494V-568H825L751 -494ZM1335 -404V-469H733V-404ZM1335 -314V-379H733V-314ZM790 -568H733V-512ZM1335 325V-289H733V325Z"/>
</svg>