<svg xmlns="http://www.w3.org/2000/svg" viewBox="0 -2048 2048 2048">
	<path fill="currentColor" d="M802 -432Q794 -394 801 -353L623 -367Q598 -367 595.5 -363.5Q593 -360 585 -310Q687 -276 771 -255Q773 -250 773 -244Q773 -233 765 -209Q757 -185 756 -175Q723 -183 642 -206Q573 -225 567 -225Q557 -225 545 -195Q537 -176 529 -156Q529 -152 538 -145Q592 -126 711 -83Q703 -53 690 -3H673L507 -74Q493 -70 482 -48Q467 -15 464 -11Q513 23 636 95Q620 119 593 164L421 68Q407 82 378 116Q436 154 555 232Q543 243 502 295L330 184Q205 311 145 311Q126 311 111 289Q100 272 100 265Q100 244 131 222Q378 50 472 -274Q493 -347 502 -405Q514 -484 514 -554Q514 -631 492 -763Q485 -805 460 -890Q424 -1012 366 -1111Q311 -1204 255 -1263Q105 -1420 105 -1421Q105 -1433 120.5 -1446Q136 -1459 145 -1459Q176 -1459 253 -1397Q308 -1353 335 -1323L497 -1439Q537 -1412 550 -1385Q499 -1345 393 -1259Q409 -1228 436 -1206L587 -1297Q598 -1297 646 -1223L474 -1127Q479 -1117 488.5 -1098.5Q498 -1080 503 -1070L679 -1135Q703 -1100 716 -1066Q658 -1040 529 -990Q537 -966 558 -918L751 -963Q758 -929 777 -884L583 -842Q574 -838 574 -827Q574 -819 579.5 -801Q585 -783 585 -775Q590 -774 600 -774Q622 -774 685 -782.5Q748 -791 760 -791H802V-707Q737 -697 600 -686Q599 -646 599 -609H802V-527H605V-452Q668 -442 802 -432ZM781 -550V-583H575L581 -589Q580 -609 577 -652Q574 -690 574 -707Q643 -712 777 -727Q771 -743 772 -766H754Q693 -756 569 -746Q550 -831 554 -863L747 -904Q736 -926 736 -933H709L550 -893Q538 -899 499 -1006Q612 -1048 686 -1082Q675 -1093 675 -1105L492 -1039Q480 -1061 443 -1140L610 -1228Q600 -1260 582 -1267L426 -1171Q396 -1207 358 -1264Q439 -1322 514 -1391Q498 -1407 498 -1413L337 -1297Q317 -1309 243 -1371Q185 -1420 142 -1434Q135 -1427 135 -1421Q135 -1418 230 -1320Q335 -1213 371 -1157Q452 -1032 492 -885Q499 -859 516 -723Q540 -530 540 -544Q540 -68 177 217Q159 234 125 262Q137 285 150 285Q177 285 245 228Q288 191 330 154L497 265Q502 260 509.5 249.5Q517 239 519 237Q431 185 342 121Q389 65 421 38L583 133Q600 103 600 100Q530 63 433 -6Q452 -40 487 -104Q512 -95 589 -61Q652 -34 659 -34H675Q675 -35 678 -47Q681 -59 681 -68Q622 -88 508 -130Q499 -137 499 -141Q514 -187 553 -251L741 -201Q741 -212 752 -234L559 -294Q566 -350 579 -398L771 -378Q771 -379 774 -389.5Q777 -400 777 -412Q716 -418 599 -424Q595 -425 585 -431V-550Z"/>
</svg>