<svg xmlns="http://www.w3.org/2000/svg" viewBox="27.6 -1501.4 1954.8 1869.8">
	<path fill="currentColor" d="M1905 206Q1861 205 1807 208Q1796 224 1796 250Q1797 296 1797 294H208V213H100V111H208V21H100V-78H207V-209Q186 -212 156 -212Q126 -212 100 -209V-313H207V-460Q182 -462 154 -462Q126 -462 100 -460V-559H207V-705Q186 -708 156 -708Q126 -708 100 -705V-807H208V-916H100V-1018H208V-1103H100V-1423H405V-1305H500V-1423H602V-1305H716V-1423H815V-1306H952V-1423H1046V-1306H1188V-1423H1292V-1307H1421Q1425 -1336 1425 -1365Q1425 -1393 1421 -1423H1522Q1518 -1383 1531 -1306H1608Q1618 -1330 1618 -1363Q1617 -1429 1617 -1423H1905V-1115Q1861 -1119 1798 -1107V-1024Q1811 -1014 1848 -1014Q1910 -1015 1905 -1015V-914Q1879 -918 1851 -918Q1823 -918 1797 -914V-807H1905V-703Q1879 -707 1851 -707Q1823 -707 1797 -703V-564Q1823 -560 1851 -560Q1879 -560 1905 -564V-462H1799V-316Q1820 -313 1849 -313Q1879 -313 1905 -316V-212H1799V-80Q1824 -78 1852 -78Q1879 -78 1905 -80V21H1797V111H1905ZM1881 -1135V-1403H1639V-1304H1799V-1135ZM1500 -1307V-1398L1445 -1404V-1307ZM1881 -938V-996H1804L1799 -938ZM1267 -1307V-1403H1215V-1307ZM1881 -727V-780H1799V-727ZM1022 -1307V-1403H979V-1307ZM1881 -487V-539H1799V-487ZM791 -1307V-1403H743V-1307ZM1881 -236V-289H1799V-236ZM577 -1307V-1398L527 -1404V-1307ZM1881 -6V-58H1804L1799 -6ZM1881 184V138H1799V184ZM383 -1308V-1401H124V-1130H209V-1308ZM1778 269V-1286H233V269ZM207 -938V-996H124V-938ZM207 -727V-780H124V-727ZM207 -487V-539H124V-487ZM207 -236V-289H124V-236ZM207 -6V-58H124V-6ZM207 186V138H124V186ZM1724 220H287V-1237H1724ZM1699 201V-1212H306V201ZM1267 -699L1139 -329H856L738 -699ZM1243 -681H767L876 -349H1124Z"/>
</svg>