<svg xmlns="http://www.w3.org/2000/svg" viewBox="0 -2048 2048 2048">
	<path fill="#000000" d="M1974 240H100V-961H118V-802H570V-364H809V-800H1272V-364H1521V-800H1948V-962H1974ZM1949 -698V-780H1543V-698ZM1949 -595V-672H1543V-595ZM1949 220V-574H1543V220ZM1252 -698V-777H834V-698ZM1522 -293V-338H1273L1278 -293ZM1252 -597V-672H834V-597ZM1522 -202V-269H1273V-202ZM1522 220V-176H1440V220ZM1419 220V-176H1386V220ZM1365 220V-176H1273V220ZM1250 220V-574H834V220ZM545 -698V-780H122V-698ZM810 -290V-338H571V-290ZM545 -597V-672H119V-597ZM810 -202V-269H571V-202ZM810 220V-176H728V220ZM702 220V-176H679V220ZM653 220V-176H571V220ZM545 220V-574H122V220Z"/>
</svg>