<svg xmlns="http://www.w3.org/2000/svg" viewBox="0 -2048 2048 2048">
	<path fill="currentColor" d="M2101 298H100V-969Q137 -963 175 -969Q130 -1029 130 -1087Q130 -1144 166 -1174Q121 -1197 121 -1219Q121 -1261 204 -1261Q300 -1261 300 -1190Q300 -1176 276 -1134Q245 -1079 243 -1075Q233 -1052 233 -1038Q233 -1019 244 -995Q258 -965 276 -966L528 -969Q484 -1039 484 -1080Q484 -1146 528 -1178Q509 -1182 489.5 -1186.5Q470 -1191 470 -1214Q470 -1261 553 -1261Q594 -1261 624 -1238Q658 -1211 658 -1167Q658 -1121 611 -1074Q604 -1068 592 -1052Q591 -1050 591 -1029Q591 -1004 616 -966L882 -969Q832 -1036 832 -1085Q832 -1140 895 -1187Q899 -1185 861 -1185Q823 -1185 823 -1214Q823 -1261 908 -1261Q998 -1261 998 -1192Q998 -1186 966.5 -1111.5Q935 -1037 935 -1031Q935 -997 956 -966L1217 -969Q1172 -1006 1172 -1078Q1172 -1165 1217 -1187Q1213 -1190 1182 -1191Q1163 -1208 1163 -1221Q1163 -1261 1230 -1261Q1282 -1261 1305 -1246Q1342 -1222 1342 -1192Q1342 -1174 1306 -1097Q1270 -1020 1270 -1015Q1270 -1001 1280 -984Q1291 -964 1304 -966L1574 -969Q1561 -981 1544 -1019Q1525 -1061 1525 -1085Q1525 -1144 1588 -1187Q1592 -1185 1554 -1185Q1516 -1185 1516 -1214Q1516 -1255 1601 -1261Q1690 -1261 1690 -1190Q1690 -1184 1659 -1111.5Q1628 -1039 1628 -1033Q1628 -988 1653 -966L1910 -969Q1865 -1009 1865 -1078Q1865 -1175 1909 -1188Q1894 -1191 1879 -1193Q1856 -1198 1856 -1219Q1856 -1261 1925 -1261Q1968 -1261 2001 -1246Q2035 -1211 2035 -1190Q2035 -1163 2002 -1103.5Q1969 -1044 1969 -1040.5Q1969 -1037 1966 -1028Q1963 -1019 1963 -1013Q1963 -993 1989 -966H2101ZM2083 276V-943Q2007 -943 1979 -945Q1975 -946 1958 -976Q1941 -1006 1941 -1020Q1941 -1019 1995 -1137Q2012 -1174 2012 -1190Q2012 -1217 1973 -1235Q1942 -1248 1916 -1248Q1909 -1248 1879 -1233V-1217Q1907 -1216 1956 -1210Q1977 -1205 1977 -1187Q1977 -1183 1969 -1177Q1952 -1177 1915 -1165Q1904 -1162 1893.5 -1128.5Q1883 -1095 1883 -1078Q1883 -1072 1888 -1044Q1894 -1012 1945 -953Q1945 -946 1942 -943H1640Q1610 -987 1610 -1033Q1610 -1062 1639 -1112.5Q1668 -1163 1668 -1190Q1668 -1248 1594 -1248Q1538 -1237 1538 -1216Q1538 -1210 1541 -1207Q1544 -1204 1544 -1203Q1552 -1207 1576 -1207Q1613 -1207 1641 -1196Q1639 -1190 1634 -1181Q1619 -1178 1597 -1169Q1547 -1128 1547 -1085Q1547 -1062 1576 -1005.5Q1605 -949 1605 -950Q1605 -940 1602 -943H1287Q1252 -965 1252 -1022Q1252 -1037 1285.5 -1113Q1319 -1189 1319 -1192Q1319 -1218 1282 -1235Q1252 -1248 1223 -1248Q1216 -1248 1186 -1233V-1217Q1216 -1215 1245 -1213Q1281 -1209 1284 -1184Q1276 -1176 1273 -1176Q1266 -1177 1259 -1177Q1190 -1177 1190 -1080Q1190 -1030 1252 -955Q1251 -951 1245 -943H947Q917 -987 917 -1033Q917 -1063 927 -1078Q951 -1117 975 -1173V-1190Q975 -1248 901 -1248Q846 -1248 846 -1214Q846 -1204 852 -1203Q860 -1207 884 -1207Q923 -1207 944 -1195V-1184Q903 -1176 877 -1143Q855 -1115 855 -1087Q855 -1065 876 -1021Q909 -954 913 -943H603Q575 -992 573 -997Q573 -998 573 -1029Q573 -1059 574 -1061Q575 -1063 613 -1114Q636 -1145 636 -1167Q636 -1243 546 -1243Q523 -1243 507 -1232Q491 -1221 493 -1209Q497 -1204 541 -1209Q584 -1213 595 -1192V-1184Q573 -1179 542 -1165Q501 -1123 501 -1078Q501 -1057 526 -1014Q558 -960 564 -943H259Q215 -980 215 -1038Q215 -1062 225 -1084Q233 -1101 258 -1148Q278 -1185 278 -1190Q278 -1243 204 -1243Q175 -1243 144 -1219Q156 -1202 177 -1201Q194 -1201 212 -1201Q224 -1198 229 -1184Q148 -1141 148 -1085Q148 -1060 168 -1022Q202 -957 207 -946Q163 -940 122 -949V276ZM2043 245H162V-903H2043ZM2025 222V-885H1463V222ZM1444 222V-885H1418V222ZM1395 222V-885H819V222ZM796 222V-885H766V222ZM747 222V-885H180V222Z"/>
</svg>