<svg xmlns="http://www.w3.org/2000/svg" viewBox="0 0 1000 1000">
  <g transform="scale(1,-1) translate(0,-1000)">
    <path d="M870 787H130V22Q130 22 95 22Q95 22 86 22V57H16Q10 57 5.5 61.5Q1 66 1 72V157Q1 163 5.5 167.5Q10 172 16 172H86V207H16Q10 207 5.5 211.5Q1 216 1 222V307Q1 313 5.5 317.5Q10 322 16 322H86V357H16Q10 357 5.5 361.5Q1 366 1 372V457Q1 463 5.5 467.5Q10 472 16 472H85V507H16Q10 507 5.5 511.5Q1 516 1 522V607Q1 613 5.5 617.5Q10 622 16 622H85V661H15Q9 661 4.5 665.5Q0 670 0 676V812V835V902Q0 908 4.5 912.5Q9 917 15 917H229Q235 917 239.5 912.5Q244 908 244 902V831H295V901Q295 907 299.5 911.5Q304 916 310 916H396Q402 916 406.5 911.5Q411 907 411 901V831H444V901Q444 907 448.5 911.5Q453 916 459 916H545Q551 916 555.5 911.5Q560 907 560 901V831H594V901Q594 907 598.5 911.5Q603 916 609 916H695Q701 916 705.5 911.5Q710 907 710 901V831H744V901Q744 907 748.5 911.5Q753 916 759 916H895H918H985Q991 916 995.5 911.5Q1000 907 1000 901V687Q1000 681 995.5 676.5Q991 672 985 672H914V637H985Q991 637 995.5 632.5Q1000 628 1000 622V537Q1000 531 995.5 526.5Q991 522 985 522H914V487H985Q991 487 995.5 482.5Q1000 478 1000 472V387Q1000 381 995.5 376.5Q991 372 985 372H914V337H985Q991 337 995.5 332.5Q1000 328 1000 322V237Q1000 231 995.5 226.5Q991 222 985 222H914V187H985Q991 187 995.5 182.5Q1000 178 1000 172V87Q1000 81 995.5 76.5Q991 72 985 72H914V22Q914 0 892 0H639V368Q639 376 645.0 382.0Q651 388 659.0 388.0Q667 388 673.0 382.0Q679 376 679 368V44H870ZM86 142H31V87H86ZM86 292H31V237H86ZM85 442H31V387H86ZM85 592H31V537H85ZM914 157V102H970V157ZM914 307V252H970V307ZM914 457V402H970V457ZM914 607V552H970V607ZM774 831H891Q901 831 907.5 825.0Q914 819 914 809V702H970V886H774ZM624 831H680V886H624ZM474 831H530V886H474ZM325 831H381V886H325ZM214 831V887H30V691H85V809Q85 831 107 831Z" fill="currentColor"/>
  </g>
</svg>