<svg xmlns="http://www.w3.org/2000/svg" viewBox="0 -2048 2048 2048">
	<path fill="#000000" d="M1205 296H100V224Q106 221 111 219Q129 221 130 221Q137 196 158 -26Q254 -1037 254 -1123V-1257Q254 -1266 233 -1301Q210 -1328 188 -1355Q149 -1402 149 -1418Q149 -1424 152 -1437.5Q155 -1451 155 -1455H1155V-1396Q1113 -1379 1079.5 -1320.5Q1046 -1262 1046 -1218Q1046 -1210 1047 -1203Q1055 -1167 1053 -1162Q1040 -1122 1040 -1125Q1040 -1130 1064 -882Q1069 -813 1084 -662Q1090 -610 1099 -502Q1104 -445 1114 -342Q1118 -302 1124 -231Q1125 -215 1134 -121L1166 218Q1182 227 1205 227ZM1127 -1417V-1431H182V-1417ZM1110 -1394H190Q287 -1304 280 -1211H1020Q1034 -1337 1110 -1394ZM1015 -1186H288Q280 -1186 279 -1176Q279 -1165 287 -1165H1013Q1024 -1165 1023 -1176Q1023 -1186 1015 -1186ZM1140 221L1015 -1139H275L160 221ZM1180 271V247H125V271ZM825 -828L754 -610H576L505 -834Q528 -830 553 -830Q578 -830 600 -834V-861Q600 -865 576 -931Q562 -963 548 -995Q530 -1036 530 -1065Q530 -1087 543 -1100Q591 -1040 683 -914Q696 -886 724 -830Q748 -828 825 -828ZM815 -376Q815 -331 768 -275Q747 -249 708 -235Q692 -229 640 -229Q606 -229 562 -245Q526 -258 511 -290Q480 -355 480 -386Q480 -430 501 -463Q515 -486 575 -513Q631 -539 655 -539Q717 -539 766 -490Q815 -441 815 -376ZM820 32Q820 109 764 156Q715 197 650 197Q577 197 526 150.5Q475 104 475 37Q475 -24 506 -72Q521 -95 543 -112Q538 -123 538 -133Q538 -169 652 -169Q759 -169 759 -139Q759 -125 745 -106Q820 -39 820 32ZM695 -836Q640 -947 566 -1019Q585 -972 605 -924Q628 -865 626 -830Q660 -830 679.5 -833Q699 -836 695 -836ZM795 -808H535L591 -630H739ZM735 -486Q702 -514 652 -514Q613 -514 575 -486ZM779 -425Q779 -429 764 -459H531Q526 -447 515 -425ZM789 -360V-398H506Q506 -383 508.5 -371.5Q511 -360 511 -360ZM780 -333H520Q525 -319 541 -294H749Q759 -308 780 -333ZM725 -272H570Q579 -270 607 -259Q631 -249 637 -249Q667 -249 725 -272ZM735 -130Q735 -135 729 -143Q662 -143 621 -142Q592 -141 578 -139.5Q564 -138 566 -138Q566 -133 571 -124Q592 -127 624 -133Q651 -139 657 -139Q683 -139 723 -119ZM795 29Q795 -32 750 -73Q705 -114 645 -114Q578 -114 536.5 -73.5Q495 -33 495 34Q495 89 543.5 130.5Q592 172 655 172Q714 172 754.5 132.5Q795 93 795 29Z"/>
</svg>