<svg xmlns="http://www.w3.org/2000/svg" viewBox="0 -2048 2048 2048">
	<path fill="currentColor" d="M1786 256H100V162H249V-287H100V-873H410Q357 -998 304 -1123Q199 -1376 199 -1408Q199 -1448 225.5 -1474Q252 -1500 292 -1500Q316 -1500 345.5 -1469.5Q375 -1439 375 -1420Q375 -1403 330 -1348L547 -1085Q550 -1087 548 -1090Q515 -1169 483 -1247Q430 -1377 430 -1410Q430 -1451 461 -1477Q488 -1500 522 -1500Q546 -1500 575.5 -1470Q605 -1440 605 -1420Q605 -1401 560 -1348L780 -1083Q775 -1074 713 -1020Q660 -974 660 -942Q660 -926 694 -869H1192Q1226 -926 1226 -947Q1226 -986 1105 -1077L1321 -1343Q1312 -1353 1297 -1371Q1281 -1398 1281 -1420Q1281 -1449 1311 -1474.5Q1341 -1500 1363 -1500Q1456 -1500 1456 -1400Q1456 -1358 1430 -1301Q1411 -1259 1392 -1217Q1377 -1179 1344 -1095V-1090L1551 -1343Q1538 -1360 1525 -1378Q1516 -1393 1516 -1420Q1516 -1450 1541 -1475Q1566 -1500 1594 -1500Q1686 -1500 1686 -1400Q1686 -1372 1591 -1138Q1535 -1005 1480 -872H1786V-290H1637V160H1786ZM1661 -1400Q1661 -1475 1601 -1475Q1541 -1475 1541 -1420Q1541 -1402 1586 -1343L1371 -1077Q1404 -1057 1438 -1020Q1479 -976 1483 -945Q1531 -1059 1579 -1173Q1661 -1373 1661 -1400ZM1431 -1400Q1431 -1475 1371 -1475Q1354 -1475 1332 -1461Q1306 -1444 1306 -1423Q1306 -1408 1328 -1378Q1342 -1361 1356 -1343L1141 -1077Q1171 -1061 1212 -1015Q1253 -969 1253 -947Q1303 -1064 1352 -1181Q1431 -1371 1431 -1400ZM1456 -947Q1456 -999 1332 -1075L1251 -870H1425Q1456 -920 1456 -947ZM745 -1088L530 -1352Q580 -1378 580 -1418Q580 -1434 558.5 -1454.5Q537 -1475 515 -1475Q479 -1475 450 -1408L632 -950Q647 -994 693.5 -1035.5Q740 -1077 745 -1088ZM515 -1088L299 -1352Q350 -1387 350 -1415Q350 -1432 328 -1453.5Q306 -1475 284 -1475Q246 -1475 219 -1403L402 -950Q406 -974 453 -1021Q508 -1076 515 -1088ZM639 -870Q609 -942 548 -1075Q513 -1046 478 -1017Q430 -973 430 -947Q430 -924 461 -870ZM1766 -315V-844H120V-312H275V161H1613V-315ZM1766 231V187H120V231ZM1735 -340H1612V-684H276V-340H145V-819H1735ZM1590 126H300V-659H1590ZM1715 -360V-799H168V-360H251V-704H1637V-360ZM1565 106V-639H325V106Z"/>
</svg>