<svg xmlns="http://www.w3.org/2000/svg" viewBox="0 -2048 2048 2048">
	<path fill="currentColor" d="M1937 -201H1630V176Q1655 178 1684 178Q1712 178 1738 176V277H469V179H587V-161Q441 -146 431 -146Q368 -146 331 -157Q283 -171 208 -210Q100 -267 100 -308V-344Q149 -360 149 -360Q151 -360 203 -328Q263 -291 293 -276Q336 -255 428 -255Q513 -255 538 -274V-286Q545 -285 428 -285Q377 -285 304 -327Q322 -352 330 -385Q393 -360 404 -360Q410 -360 476 -370Q542 -380 548 -380Q577 -380 584 -375V-1188Q463 -1205 463 -1284Q463 -1301 475.5 -1332.5Q488 -1364 498 -1374Q481 -1379 464 -1385Q443 -1393 443 -1414Q443 -1451 496 -1451Q568 -1451 593 -1379L558 -1270L571 -1257Q582 -1261 583 -1278Q584 -1305 584 -1305Q630 -1466 790 -1466Q876 -1466 1257 -1342Q1443 -1279 1629 -1216V-364Q1637 -362 1655 -355L1700 -893H1897ZM1539 -1218Q1363 -1277 1187 -1336Q850 -1446 787 -1446Q719 -1446 661 -1394Q603 -1342 603 -1269Q603 -1261 606 -1242Q609 -1223 609 -1218ZM1603 -361V-1196H613V-371Q635 -360 678 -335V-1122H1550V-366Q1588 -366 1603 -361ZM582 -1217Q582 -1222 580 -1229Q533 -1235 533 -1272Q533 -1278 550.5 -1323Q568 -1368 568 -1374Q568 -1397 542.5 -1414Q517 -1431 493 -1431Q487 -1431 478.5 -1428.5Q470 -1426 469 -1426V-1407Q493 -1404 517 -1401Q549 -1397 558 -1374Q556 -1372 554 -1367.5Q552 -1363 550 -1361Q548 -1361 543 -1366Q538 -1371 531 -1371Q514 -1371 500 -1335Q488 -1305 488 -1287Q488 -1217 541 -1217ZM1524 -371V-1097H698V-331H715Q1099 -390 1250 -390ZM1603 177V-200H1550V177ZM1912 -226L1872 -868H1720L1680 -335L1228 -365Q1001 -365 779 -323Q684 -305 685 -305Q682 -305 632 -333Q582 -361 560 -360L403 -340Q378 -340 339 -355V-332Q344 -326 375 -315.5Q406 -305 428 -305Q434 -305 475.5 -310Q517 -315 523 -315Q542 -315 544 -314Q562 -291 568 -269Q524 -231 431 -231Q351 -231 241.5 -280.5Q132 -330 139 -330Q127 -330 120 -323Q136 -262 251 -211Q351 -166 418 -166Q489 -166 686 -226ZM1524 177V-200H698V177ZM1718 252V204H494V252ZM677 177V-195Q655 -187 613 -175V177Z"/>
</svg>