<svg xmlns="http://www.w3.org/2000/svg" viewBox="23.3 -1629.7 1543.4 2070.4">
	<path fill="currentColor" d="M1490 -350H1229L1286 364H975V-348H619V362H304L366 -348H100V-424H374L423 -917Q415 -922 398 -932Q396 -940 396 -949Q396 -958 398 -965Q417 -989 417 -992Q417 -1072 365 -1119Q317 -1163 322 -1209Q316 -1209 300.5 -1206Q285 -1203 277 -1203Q211 -1203 181.5 -1233.5Q152 -1264 152 -1346Q152 -1414 208 -1454Q159 -1459 150 -1462Q117 -1472 117 -1503Q117 -1510 131 -1526Q145 -1542 152 -1545Q171 -1553 204 -1553Q234 -1553 269 -1533Q286 -1518 319 -1488Q321 -1478 321 -1441Q321 -1408 273 -1319V-1288Q284 -1282 296 -1282Q314 -1282 321 -1286Q324 -1362 391 -1405Q449 -1443 530 -1443Q578 -1443 675 -1413L1138 -1271Q1186 -1257 1279 -1223V-1165Q1221 -1126 1201 -1094Q1180 -1059 1175 -992Q1202 -974 1202 -949Q1202 -939 1199 -932Q1175 -918 1175 -914L1216 -426H1490ZM1197 -1229L868 -1332Q581 -1420 530 -1420Q421 -1420 371 -1358Q342 -1322 342 -1281Q342 -1277 353 -1229ZM1253 -1184V-1202H348V-1184ZM1230 -1157H365Q436 -1090 440 -994H1153Q1162 -1060 1172 -1085Q1187 -1121 1230 -1157ZM1176 -953Q1176 -954 1169 -967H435Q431 -967 423 -959V-943H424L428 -940H1173Q1176 -944 1176 -947ZM326 -1232Q325 -1241 323 -1259Q284 -1259 251 -1273V-1322Q251 -1331 274.5 -1376.5Q298 -1422 298 -1428Q298 -1467 293.5 -1481Q289 -1495 254 -1512.5Q219 -1530 201 -1530Q143 -1530 143 -1503Q143 -1482 192 -1476Q253 -1469 276 -1443L264 -1431Q236 -1438 225 -1438Q213 -1438 179 -1386Q175 -1327 175 -1324Q175 -1229 277 -1229Q269 -1229 326 -1232ZM1193 -426L1152 -914H443L400 -426H592V-616H1000V-426ZM973 -425V-589H619V-425ZM1464 -375V-399H128V-375ZM1259 339L1203 -348H1000V339ZM592 339V-348H390L331 339Z"/>
</svg>