<svg xmlns="http://www.w3.org/2000/svg" viewBox="0 -2048 2048 2048">
	<path fill="currentColor" d="M2024 -322H1636Q1634 -321 1632 -317L1780 266H1267V-321H870V266H360L493 -320H100V-421H504L588 -808H466V-905H600Q609 -914 609 -934Q609 -959 596 -992Q586 -1018 554 -1063Q513 -1123 489 -1123H349V-1206Q359 -1217 366 -1221L1056 -1402Q1064 -1404 1094 -1404L1801 -1222V-1123H1667Q1657 -1114 1636 -1098Q1606 -1081 1566 -1026.5Q1526 -972 1526 -946V-907H1674V-810H1546Q1542 -805 1542 -794L1610 -425H2024ZM1707 -1220Q1562 -1261 1417 -1301Q1141 -1377 1094 -1377Q1050 -1377 770 -1303Q618 -1261 465 -1220ZM1775 -1150V-1191H376V-1150ZM1622 -1121H535Q635 -1036 635 -940Q635 -915 630 -906H1499Q1538 -1071 1622 -1121ZM1653 -837V-878H487V-837ZM1589 -423L1515 -809H615L530 -423H849V-645H1294V-423ZM1268 -423V-623H875V-423ZM1754 245L1610 -321H1294V245ZM1998 -349V-395H127V-349ZM841 245V-321H514L392 245Z"/>
</svg>