<svg xmlns="http://www.w3.org/2000/svg" viewBox="0 -2048 2048 2048">
	<path fill="#000000" d="M1487 -1003H1297Q1293 -996 1293 -976Q1293 -970 1315.5 -880Q1338 -790 1338 -784Q1338 -704 1293 -693V301H1194V155Q1194 61 1156 -45Q1105 -186 1016 -200Q980 -206 887 -207Q885 -205 880 -199Q839 28 839 77Q839 103 888 149Q921 179 954 209H636Q632 207 624 200Q663 162 703 123Q734 85 734 23Q734 -80 690 -208Q578 -208 528 -181Q512 -172 490 -143Q481 -131 439 -47Q394 43 394 59V301H285V-683Q271 -690 251 -708Q230 -740 230 -779Q230 -785 262.5 -875Q295 -965 295 -971Q295 -984 286 -1002H100V-1105Q189 -1151 339.5 -1253.5Q490 -1356 555 -1390Q671 -1451 764 -1451Q832 -1451 1019 -1351Q1118 -1294 1217 -1237Q1283 -1200 1350 -1164Q1428 -1121 1487 -1105ZM1398 -1108Q1248 -1193 1098 -1278Q826 -1426 754 -1426Q643 -1426 461 -1306Q313 -1207 165 -1108ZM1463 -1027Q1457 -1069 1457 -1085H121V-1027ZM968 -862V-876H630V-862ZM1313 -779Q1313 -761 1275 -949Q1272 -966 1273 -1000H1219Q1220 -986 1220 -974Q1220 -922 1194.5 -878.5Q1169 -835 1169 -792Q1169 -733 1219 -703V276H1273V-708Q1313 -759 1313 -779ZM1193 -308V-695Q1144 -717 1144 -789Q1144 -826 1168.5 -874.5Q1193 -923 1193 -923V-1001H385V-939Q385 -946 438 -813Q444 -798 444 -779Q444 -741 395 -690V-308H678L639 -624Q642 -668 685.5 -731.5Q729 -795 729 -797Q729 -825 671 -836Q638 -841 604 -845L608 -900H989V-841Q957 -839 901 -835Q890 -834 877 -813.5Q864 -793 864 -784Q864 -781 904 -732Q945 -680 949 -637L904 -308ZM924 -626Q929 -662 884 -720.5Q839 -779 839 -779Q839 -790 869 -835H734Q754 -805 754 -787Q754 -781 720 -734Q681 -681 671 -660Q664 -645 664 -624L700 -308H878ZM1192 -2V-281H396V-13Q419 -62 441 -111Q475 -178 518 -201Q566 -227 602 -227H1021Q1083 -227 1142 -127Q1190 -45 1192 -2ZM894 186Q836 126 826 105Q819 90 819 42Q819 -52 858 -206H719V-190Q719 -185 734 -118Q751 -45 755 -15.5Q759 14 759 27Q759 82 737 116Q723 138 669 186ZM424 -779Q424 -786 403 -837Q378 -900 371 -920Q363 -945 364 -1000H315Q319 -962 298 -900Q255 -775 255 -774Q255 -716 310 -703V276H369V-698Q379 -702 401.5 -736Q424 -770 424 -779Z"/>
</svg>