<svg xmlns="http://www.w3.org/2000/svg" viewBox="0 -2048 2048 2048">
	<path fill="currentColor" d="M1928 336H100V216H232V-888Q232 -904 251.5 -925.5Q271 -947 285 -947Q307 -947 325 -921Q341 -899 341 -885V-241H471V-884Q471 -939 523 -939Q527 -939 553 -933Q575 -876 575 -885V-245H992V-424Q992 -448 1056 -471Q1086 -471 1108 -435Q1125 -406 1125 -380Q1125 -248 1123 -256Q1263 -388 1327 -385L1331 -577Q1322 -591 1305 -622Q1294 -656 1269 -726Q1203 -891 1203 -938Q1203 -949 1204 -959Q1188 -971 1131 -985.5Q1074 -1000 1049 -1017Q1021 -1036 988 -1159Q988 -1184 990 -1196Q992 -1208 992 -1205Q1036 -1197 1110 -1138Q1171 -1089 1232 -1040Q1236 -1044 1241.5 -1051.5Q1247 -1059 1250 -1062Q1224 -1099 1180 -1276Q1170 -1315 1120 -1421Q1072 -1520 1072 -1525Q1072 -1531 1074.5 -1537Q1077 -1543 1077.5 -1543.5Q1078 -1544 1081 -1546.5Q1084 -1549 1090 -1549Q1094 -1549 1124 -1525Q1164 -1493 1192 -1435Q1210 -1399 1236 -1317Q1256 -1255 1269 -1212Q1305 -1092 1331 -1092Q1335 -1092 1355.5 -1094Q1376 -1096 1381 -1096Q1413 -1096 1429 -1088Q1437 -1095 1442 -1107Q1484 -1229 1526 -1351Q1569 -1465 1661 -1532Q1661 -1520 1678 -1520Q1662 -1491 1638 -1441Q1603 -1333 1531 -1122Q1528 -1113 1511 -1084Q1496 -1059 1496 -1054Q1496 -1054 1511 -1036Q1557 -1062 1614 -1109Q1626 -1125 1655 -1151Q1688 -1162 1753 -1185Q1763 -1175 1763 -1171Q1763 -1159 1748 -1114Q1730 -1060 1711.5 -1040Q1693 -1020 1630 -997Q1559 -971 1537 -956Q1539 -947 1539 -925Q1535 -895 1527 -868Q1508 -822 1469 -726Q1459 -691 1434 -621Q1421 -605 1407 -578V-389Q1408 -388 1414 -383Q1551 -363 1636 -277Q1638 -279 1638 -420Q1641 -471 1718 -471Q1735 -471 1762 -437V214H1928ZM1730 -1153Q1707 -1147 1672 -1131Q1659 -1113 1625 -1072Q1576 -1018 1547 -992Q1591 -1005 1669 -1037Q1711 -1061 1730 -1153ZM1571 -1045Q1550 -1029 1505 -1003L1509 -997Q1550 -1014 1571 -1045ZM1612 -1452Q1565 -1374 1550 -1329Q1515 -1224 1499 -1182Q1453 -1060 1435 -1056Q1420 -1072 1381 -1072Q1358 -1072 1313 -1052Q1274 -1110 1220 -1281Q1172 -1433 1109 -1500Q1159 -1425 1202 -1265Q1242 -1113 1290 -1050Q1281 -1036 1274 -1036L1266 -1040L1254 -1029Q1262 -1026 1262 -1017Q1262 -1010 1256 -997Q1250 -984 1249 -978Q1247 -976 1235 -973Q1226 -954 1226 -939Q1226 -898 1254 -825Q1275 -769 1297 -712Q1309 -674 1332 -624Q1335 -624 1340 -623Q1352 -623 1358 -629Q1358 -652 1363 -667Q1351 -679 1340 -680Q1337 -673 1329 -664Q1310 -675 1310 -691Q1310 -713 1339 -713Q1345 -713 1357 -703Q1369 -693 1375 -693Q1381 -693 1389 -701Q1397 -709 1401 -709Q1423 -709 1430 -689Q1457 -750 1484 -812Q1512 -879 1512 -944Q1512 -970 1496 -990.5Q1480 -1011 1481 -1022L1456 -1046Q1511 -1114 1546 -1244Q1588 -1404 1612 -1452ZM1244 -993Q1199 -1032 1108 -1108Q1160 -1018 1244 -993ZM1161 -1009Q1129 -1032 1105 -1068Q1086 -1098 1066 -1128Q1040 -1165 1018 -1165Q1016 -1165 1016 -1163Q1016 -1138 1032.5 -1090.5Q1049 -1043 1060.5 -1037.5Q1072 -1032 1161 -1009ZM1424 -667Q1424 -677 1397 -677Q1386 -677 1384 -659Q1384 -646 1384 -633Q1401 -626 1414 -633Q1424 -683 1424 -667ZM1395 -603Q1379 -603 1369 -601Q1359 -603 1343 -603Q1354 -592 1363 -592H1375Q1384 -592 1395 -603ZM1383 -391Q1383 -400 1381 -404Q1379 -408 1379 -412V-522Q1379 -539 1371 -563L1360 -567V-390Q1382 -390 1383 -391ZM1738 215V-425Q1738 -434 1721 -445Q1718 -446 1704 -446Q1679 -446 1662 -429V215ZM1637 215V-239Q1538 -366 1365 -366Q1301 -366 1248 -331Q1211 -307 1121 -219V215ZM1096 215V-409Q1096 -419 1081 -432.5Q1066 -446 1052 -446Q1045 -446 1030.5 -432Q1016 -418 1016 -412V215ZM991 -152V-220H576V-152ZM551 215V-881Q551 -889 543.5 -902Q536 -915 529 -915Q512 -915 499 -893V215ZM991 215V-127H576V215ZM1904 312V241H124V312ZM313 215V-901Q314 -919 289 -919Q282 -919 269.5 -906Q257 -893 257 -884V215ZM470 -156V-216H342V-156ZM470 215V-131H342V215ZM1468 -891Q1468 -870 1436 -870Q1431 -870 1426 -872Q1421 -874 1416 -874Q1418 -874 1406 -862Q1391 -871 1390 -880Q1389 -889 1375 -900Q1401 -961 1451 -963Q1451 -954 1456 -949Q1448 -943 1432 -929Q1435 -927 1459 -927Q1468 -900 1468 -891ZM1367 -909Q1367 -904 1351 -896Q1351 -891 1359 -875Q1358 -875 1350.5 -870.5Q1343 -866 1337 -866Q1332 -866 1335 -870Q1338 -874 1333 -874Q1329 -874 1323.5 -870Q1318 -866 1313 -866Q1274 -866 1274 -901Q1274 -935 1300 -935Q1305 -935 1316 -929.5Q1327 -924 1335 -922Q1330 -944 1291 -944V-967H1308Q1343 -967 1367 -909ZM1433 -902Q1433 -910 1423 -910Q1412 -910 1412 -902Q1412 -894 1423 -894Q1433 -894 1433 -902ZM1320 -902Q1320 -910 1310 -910Q1299 -910 1299 -902Q1299 -894 1310 -894Q1320 -894 1320 -902Z"/>
</svg>