<svg xmlns="http://www.w3.org/2000/svg" viewBox="0 -2048 2048 2048">
	<path fill="currentColor" d="M1948 -164H1778V350H270V-164H100V-789H177Q159 -824 142 -858Q121 -902 121 -942Q121 -1003 174 -1042Q133 -1051 106 -1082Q123 -1146 205 -1146Q272 -1146 296 -1119Q323 -1089 323 -1055Q323 -1032 285 -975Q247 -918 247 -889Q247 -872 288 -789H447Q429 -824 412 -858Q391 -902 391 -942Q391 -1003 444 -1042Q403 -1051 376 -1082Q393 -1146 475 -1146Q542 -1146 566 -1119Q593 -1089 593 -1055Q593 -1032 555 -975Q517 -918 517 -889Q517 -872 558 -789H717Q699 -824 682 -858Q661 -902 661 -942Q661 -1003 714 -1042Q673 -1051 646 -1082Q663 -1146 745 -1146Q812 -1146 836 -1119Q863 -1089 863 -1055Q863 -1032 825 -975Q787 -918 787 -889Q787 -872 828 -789H951Q992 -872 992 -889Q992 -918 954 -975Q916 -1032 916 -1055Q916 -1089 943 -1119Q967 -1146 1034 -1146Q1116 -1146 1133 -1082Q1106 -1051 1065 -1042Q1118 -1003 1118 -942Q1118 -902 1097 -858Q1080 -824 1062 -789H1221Q1262 -872 1262 -889Q1262 -918 1224 -975Q1186 -1032 1186 -1055Q1186 -1089 1213 -1119Q1237 -1146 1304 -1146Q1386 -1146 1403 -1082Q1376 -1051 1335 -1042Q1388 -1003 1388 -942Q1388 -902 1367 -858Q1350 -824 1332 -789H1491Q1532 -872 1532 -889Q1532 -918 1494 -975Q1456 -1032 1456 -1055Q1456 -1089 1483 -1119Q1507 -1146 1574 -1146Q1656 -1146 1673 -1082Q1646 -1051 1605 -1042Q1658 -1003 1658 -942Q1658 -902 1637 -858Q1620 -824 1602 -789H1761Q1802 -872 1802 -889Q1802 -918 1764 -975Q1726 -1032 1726 -1055Q1726 -1089 1753 -1119Q1777 -1146 1844 -1146Q1926 -1146 1943 -1082Q1916 -1051 1875 -1042Q1928 -1003 1928 -942Q1928 -902 1907 -858Q1890 -824 1872 -789H1948ZM1922 -190V-763H1838Q1843 -788 1875 -851Q1902 -905 1902 -942Q1902 -1006 1809 -1048L1815 -1063Q1883 -1062 1914 -1089Q1896 -1120 1844 -1120Q1752 -1120 1752 -1055Q1752 -1041 1790 -982.5Q1828 -924 1828 -889Q1828 -862 1778 -763H1568Q1573 -788 1605 -851Q1632 -905 1632 -942Q1632 -1006 1539 -1048L1545 -1063Q1613 -1062 1644 -1089Q1626 -1120 1574 -1120Q1482 -1120 1482 -1055Q1482 -1041 1520 -982.5Q1558 -924 1558 -889Q1558 -862 1508 -763H1298Q1303 -788 1335 -851Q1362 -905 1362 -942Q1362 -1006 1269 -1048L1275 -1063Q1343 -1062 1374 -1089Q1356 -1120 1304 -1120Q1212 -1120 1212 -1055Q1212 -1041 1250 -982.5Q1288 -924 1288 -889Q1288 -862 1238 -763H1028Q1033 -788 1065 -851Q1092 -905 1092 -942Q1092 -1006 999 -1048L1005 -1063Q1073 -1062 1104 -1089Q1086 -1120 1034 -1120Q942 -1120 942 -1055Q942 -1041 980 -982.5Q1018 -924 1018 -889Q1018 -862 968 -763H811Q761 -862 761 -889Q761 -924 799 -982.5Q837 -1041 837 -1055Q837 -1120 745 -1120Q693 -1120 675 -1089Q706 -1062 774 -1063L780 -1048Q687 -1006 687 -942Q687 -905 714 -851Q746 -788 751 -763H541Q491 -862 491 -889Q491 -924 529 -982.5Q567 -1041 567 -1055Q567 -1120 475 -1120Q423 -1120 405 -1089Q436 -1062 504 -1063L510 -1048Q417 -1006 417 -942Q417 -905 444 -851Q476 -788 481 -763H271Q221 -862 221 -889Q221 -924 259 -982.5Q297 -1041 297 -1055Q297 -1120 205 -1120Q153 -1120 135 -1089Q166 -1062 234 -1063L240 -1048Q147 -1006 147 -942Q147 -905 174 -851Q206 -788 211 -763H126V-190H296V324H1752V-190ZM1882 -230H1752V-590H296V-230H166V-723H1882ZM1712 284H336V-550H1712ZM1856 -256V-697H192V-256H270V-616H1778V-256ZM1686 258V-524H362V258Z"/>
</svg>