<svg xmlns="http://www.w3.org/2000/svg" viewBox="0 -2048 2048 2048">
	<path fill="#000000" d="M1459 222H100V109Q112 110 162 107Q172 66 188 -76L309 -1123Q309 -1128 302 -1130Q302 -1134 299 -1153Q296 -1172 296 -1183Q298 -1246 231 -1300Q182 -1336 133 -1373V-1447H1435V-1374Q1435 -1365 1415 -1358Q1344 -1334 1307 -1282Q1294 -1263 1289 -1249Q1259 -1156 1259 -1142Q1259 -1139 1269 -1059Q1280 -965 1286 -897Q1294 -810 1305 -706Q1312 -631 1324 -515Q1329 -467 1338 -372Q1342 -340 1348 -276Q1362 -139 1384 100Q1391 109 1459 109ZM1411 -1383V-1428H157V-1383ZM1359 -1360H190Q226 -1336 280 -1291Q303 -1264 313 -1220Q319 -1186 325 -1152H1244Q1245 -1293 1359 -1360ZM872 -854Q872 -956 803 -956Q797 -956 792.5 -953.5Q788 -951 782 -951Q775 -951 774 -970Q772 -996 771 -999H740Q737 -983 726 -957Q634 -945 634 -849Q634 -805 662 -743Q699 -660 756 -660Q809 -660 844 -736Q872 -797 872 -854ZM1363 105L1239 -1127H329L191 107H753Q722 83 716 56Q715 52 715 13L734 -608Q734 -633 732 -641Q700 -646 664 -696Q633 -738 625 -768Q610 -823 610 -849Q610 -977 714 -976Q712 -1000 719 -1019Q740 -1023 760 -1023Q779 -1023 797 -1019Q795 -995 802 -976Q848 -976 875 -929Q896 -891 896 -849Q896 -743 824 -669Q791 -635 791 -622L820 44Q820 53 800.5 76.5Q781 100 772 105ZM796 17L767 -641H754L739 -26Q739 48 740 58Q742 75 770 84Q796 57 796 17ZM1435 198V128H124V198Z"/>
</svg>