<svg xmlns="http://www.w3.org/2000/svg" viewBox="0 -2048 2048 2048">
	<path fill="currentColor" d="M2012 -1011Q1989 -1001 1945 -970Q1914 -938 1885 -858Q1864 -800 1809 -780L1875 -220Q1875 -1 1814 73Q1817 76 2006 72V192H110V72H298Q263 36 251 -58Q244 -139 237 -220L307 -780Q283 -787 247 -818Q234 -851 207 -916Q193 -945 158 -970Q103 -1009 100 -1011Q129 -1075 275 -1088V-1165Q220 -1167 120 -1194Q100 -1205 100 -1225Q100 -1267 190 -1267Q195 -1267 239 -1265Q283 -1263 288 -1263Q357 -1263 651.5 -1354.5Q946 -1446 1051 -1446Q1160 -1446 1440 -1345Q1720 -1244 1810 -1244Q1815 -1244 1877.5 -1251Q1940 -1258 1946 -1258Q1962 -1258 1982 -1245.5Q2002 -1233 2002 -1220Q2002 -1182 1919 -1165Q1874 -1160 1828 -1155V-1088Q1879 -1078 1930 -1068Q1989 -1054 2012 -1011ZM1804 -1090V-1156Q1786 -1154 1767 -1154Q1747 -1154 1726 -1156V-1090ZM1979 -1218Q1957 -1234 1934 -1234L1796 -1220Q1735 -1220 1571 -1279Q1476 -1315 1381 -1350Q1285 -1374 1122 -1414Q1070 -1427 1051 -1427Q958 -1427 644 -1333Q330 -1239 305 -1239Q299 -1239 253 -1244Q207 -1249 201 -1249Q148 -1249 124 -1223Q161 -1192 255 -1192Q383 -1192 654.5 -1279Q926 -1366 1037 -1366Q1167 -1366 1385 -1291Q1680 -1189 1722 -1179Q1726 -1178 1791 -1178Q1954 -1178 1979 -1218ZM1983 -1018Q1961 -1037 1911 -1049Q1826 -1070 1749 -1070Q1715 -1070 1600 -1045Q1588 -1042 1551 -1024Q1578 -1013 1630 -959Q1650 -912 1670 -865Q1698 -807 1746 -805L1754 -800Q1688 -267 1688 -192Q1688 -97 1712 -1Q1714 8 1733 38Q1756 76 1770 76Q1811 76 1835 -47Q1852 -137 1852 -215Q1852 -310 1827 -499Q1807 -649 1786 -799Q1842 -803 1871 -886Q1905 -983 1983 -1018ZM1499 -1010Q1499 -1012 1496.5 -1018.5Q1494 -1025 1494 -1027H622V-1000H1370Q1401 -999 1499 -1010ZM1453 -979H659Q734 -926 740 -841H1377Q1377 -915 1453 -979ZM1405 -785Q1405 -796 1402.5 -805.5Q1400 -815 1400 -816H712Q708 -809 708 -800Q708 -791 712 -785ZM1734 75Q1664 15 1664 -194Q1664 -211 1680 -373Q1697 -560 1712 -659Q1728 -771 1729 -757V-783Q1718 -780 1691.5 -799.5Q1665 -819 1661 -834Q1640 -907 1615 -942Q1608 -952 1561 -986Q1526 -1011 1528 -1034Q1560 -1058 1701 -1090V-1163Q1535 -1219 1368 -1275Q1162 -1342 1056 -1342Q934 -1342 751 -1287Q426 -1189 397 -1182V-1090Q495 -1088 562 -1050Q589 -1035 589 -1018Q589 -1005 562 -991Q548 -985 534 -979Q502 -959 466 -875Q434 -799 382 -783Q448 -344 448 -204Q448 13 387 75H635L724 -759Q683 -761 683 -802Q683 -811 695 -825Q707 -839 720 -841Q714 -863 709 -884Q699 -917 677 -936Q649 -951 602 -985Q598 -989 598 -1016Q598 -1039 602 -1047H1511Q1519 -1039 1519 -1023Q1519 -1019 1512 -985Q1487 -972 1440 -941Q1416 -919 1402 -876Q1402 -864 1397 -842Q1434 -817 1434 -805Q1426 -783 1397 -759L1477 75ZM372 -1090V-1173H294V-1090ZM1452 75L1372 -760H749L660 75H748L842 -695H1280L1360 75ZM1339 75L1264 -670H857L772 75ZM1987 169V100H129V169ZM560 -1026Q472 -1070 368 -1070Q294 -1070 229 -1059Q184 -1051 149 -1035Q134 -1026 134 -1015Q174 -993 188 -982Q217 -958 225 -926Q259 -794 323 -805L331 -800Q309 -642 286 -485Q260 -296 260 -211Q269 76 345 76Q387 76 411 -47Q429 -137 429 -215L363 -779Q363 -800 371 -806Q381 -806 395 -808Q424 -820 442 -862Q455 -899 468 -935Q479 -963 516.5 -989.5Q554 -1016 560 -1026Z"/>
</svg>