<svg xmlns="http://www.w3.org/2000/svg" viewBox="30.9 -1486.1 1591.2 1866.2">
	<path fill="currentColor" d="M1553 311H100V196H163L306 -1015Q307 -1014 286 -1014Q266 -1014 252 -1039Q242 -1058 242 -1070Q242 -1122 286 -1117V-1163Q286 -1208 218 -1271Q160 -1325 119 -1340V-1417H1539Q1534 -1387 1534 -1335Q1489 -1335 1430 -1264Q1371 -1193 1371 -1150V-1120Q1371 -1114 1382 -1115Q1398 -1115 1400 -1115Q1426 -1081 1426 -1068Q1426 -1058 1400 -1020Q1395 -1019 1366 -1019L1479 194Q1511 197 1553 193ZM1514 -1355V-1393H139V-1355ZM1465 -1328H178Q263 -1273 289 -1227Q300 -1207 307 -1154Q311 -1120 311 -1118H1346Q1343 -1168 1374 -1226Q1407 -1290 1465 -1328ZM1401 -1068Q1401 -1075 1395.5 -1082.5Q1390 -1090 1390 -1092H272L267 -1044H1395Q1395 -1049 1398 -1055.5Q1401 -1062 1401 -1068ZM1455 195L1336 -1018H326L193 195H334L463 -909H1214L1318 195ZM1292 195L1188 -890H479L356 195H613V-352H1037V195ZM1015 195V-327H637V195ZM1529 288V216H124V288Z"/>
</svg>