<svg xmlns="http://www.w3.org/2000/svg" viewBox="29.2 -1525.8 1906.6 1911.6">
	<path fill="currentColor" d="M1865 -1057Q1751 -1004 1710 -926Q1706 -918 1717 -888Q1723 -871 1714 -848.5Q1705 -826 1688 -821Q1696 -755 1712 -630Q1719 -572 1732 -474Q1739 -427 1747 -353Q1753 -311 1762 -232Q1766 -203 1773 -151Q1786 -48 1811 161Q1820 171 1849 170V315H110V172Q116 169 122 167Q140 169 141 169Q152 119 164 36Q271 -733 271 -804Q271 -810 256 -843Q241 -876 241 -882Q241 -899 261 -918Q217 -999 100 -1062V-1078Q100 -1083 129 -1116Q268 -1275 535 -1372Q613 -1400 754.5 -1427.5Q896 -1455 972 -1455Q1188 -1455 1416 -1379Q1683 -1289 1827 -1131Q1858 -1097 1865 -1057ZM1835 -1078Q1675 -1259 1417 -1352Q1202 -1429 978 -1429Q768 -1429 536 -1343Q269 -1244 125 -1078ZM1795 -1049H165Q194 -1036 235 -991.5Q276 -947 288 -920H1683Q1699 -992 1795 -1049ZM1693 -851Q1693 -872 1690.5 -886Q1688 -900 1688 -899H272Q266 -881 277 -851ZM1638 169L1506 -707H993V169ZM1789 169L1663 -823H297L171 169H301L437 -733H1528L1664 169ZM967 169V-707H454L327 169ZM1829 290V196H131V290Z"/>
</svg>