<svg xmlns="http://www.w3.org/2000/svg" viewBox="0 -2048 2048 2048">
	<path fill="currentColor" d="M1692 -1012Q1689 -1010 1616 -960Q1565 -925 1549 -885Q1556 -869 1560 -832Q1558 -810 1544 -801.5Q1530 -793 1530 -782L1615 96Q1631 102 1660 100V225H122Q123 165 122 100H160L267 -795Q261 -797 251 -800Q231 -855 231 -846Q231 -851 240 -865.5Q249 -880 249 -886Q249 -931 120 -1003Q100 -1014 100 -1028Q100 -1058 164 -1110Q300 -1221 442 -1275Q545 -1313 707 -1338Q805 -1353 887 -1353Q1106 -1353 1335 -1272Q1569 -1190 1668 -1073Q1680 -1058 1692 -1012ZM1665 -1027Q1656 -1064 1610 -1098Q1298 -1330 887 -1330Q637 -1330 440 -1247Q243 -1164 138 -1055Q135 -1052 135 -1041.5Q135 -1031 130 -1031ZM1638 -1000H173Q233 -965 277 -884H1529Q1532 -937 1638 -1000ZM1539 -834Q1539 -841 1529 -861H259L254 -848Q254 -837 264 -817H1529Q1539 -827 1539 -834ZM1593 99L1507 -798H286L182 99H266L379 -713H1400L1499 99ZM1480 98L1385 -689H390L290 98ZM1638 207V122H137V207Z"/>
</svg>