<svg xmlns="http://www.w3.org/2000/svg" viewBox="0 -2048 2048 2048">
	<path fill="currentColor" d="M2051 -1101Q2049 -1102 2045 -1102Q2006 -1102 1936 -1043Q1866 -984 1865 -946Q1879 -920 1879 -909Q1879 -894 1862 -859L1845 -854Q1878 -588 1946 -57Q1958 75 1980 217Q1985 222 2029 221V369H114V220H154L296 -854L283 -855Q258 -895 258 -909Q258 -934 284 -956Q244 -1040 100 -1116Q103 -1125 111 -1142Q163 -1216 279 -1297Q385 -1372 480 -1410Q786 -1532 1068 -1532Q1204 -1532 1370 -1502Q1379 -1500 1451 -1480Q1672 -1417 1787 -1347Q1964 -1238 2027 -1155Q2035 -1137 2051 -1101ZM2013 -1128V-1132Q2013 -1142 1903 -1231Q1677 -1415 1353 -1482Q1343 -1484 1212 -1498Q1099 -1510 1122 -1510Q939 -1510 744 -1468Q528 -1422 388 -1341Q240 -1255 133 -1128ZM1973 -1101H171Q278 -1029 306 -960H1845Q1862 -1032 1973 -1101ZM1854 -909Q1854 -910 1854 -917Q1854 -924 1845 -933H291Q284 -920 284 -910V-901Q284 -897 285 -894Q290 -888 294 -880H1846ZM1959 219L1822 -853H319L179 217H327L472 -756H1663L1817 219ZM1793 219L1647 -729H488L348 219H781V-266H1360V219ZM1333 219V-239H808V219ZM2005 349V246H140V349Z"/>
</svg>