<svg xmlns="http://www.w3.org/2000/svg" viewBox="28 -1525 1167.9 1915.9">
	<path fill="currentColor" d="M1125 320H1025V-505Q1024 -548 971 -605Q879 -704 824 -724Q721 -761 625 -761Q530 -761 420 -702Q301 -638 239 -540Q206 -487 205 -471V320H100V-480Q99 -505 143 -588Q272 -832 601 -862L605 -1396Q607 -1422 641 -1440Q667 -1454 686 -1454Q725 -1454 751 -1423Q772 -1396 772 -1366Q772 -1302 720 -1296Q716 -1293 716 -1288L802 -990Q753 -973 704 -955Q666 -937 666 -893Q666 -862 666 -862Q726 -851 846 -820Q892 -805 1013 -713Q1033 -698 1076 -637Q1125 -568 1125 -542ZM812 -183H444Q444 -185 441 -195.5Q438 -206 438 -213Q438 -273 515 -323Q582 -367 635 -367Q773 -367 812 -183ZM771 -1005L691 -1313Q695 -1315 705 -1321Q757 -1337 757 -1376Q757 -1392 726 -1412Q697 -1429 681 -1429Q639 -1429 632 -1391Q630 -1380 630 -1214L638 -862Q637 -893 641 -935Q662 -977 771 -1005ZM781 -201V-218Q734 -342 635 -342Q629 -342 618 -341Q607 -340 602 -340Q570 -341 517 -298Q464 -255 464 -222V-201ZM1105 295V-522Q1105 -530 1061 -618Q1040 -660 969 -720.5Q898 -781 856 -795Q826 -805 740 -822Q642 -842 602 -842Q529 -842 427 -801Q332 -762 272 -713Q206 -660 162.5 -568Q119 -476 120 -455V295H185V-486Q185 -512 233 -577Q279 -639 311 -664Q370 -709 442 -739Q545 -782 638 -782Q862 -782 985 -631Q1045 -558 1045 -526V295Z"/>
</svg>