<svg xmlns="http://www.w3.org/2000/svg" viewBox="0 -2048 2048 2048">
	<path fill="currentColor" d="M1051 -1085L884 -922L1037 -769L1024 -757L866 -905L699 -752L686 -765L844 -917L686 -1080L699 -1092L866 -940L1039 -1097ZM1619 288H1506V-739Q1505 -770 1459 -917Q1452 -938 1428 -980Q1411 -1009 1369 -1074Q1290 -1183 1206 -1229Q1032 -1324 864 -1324Q460 -1324 285 -1000Q213 -866 212 -760V283Q212 283 100 283V-818Q100 -881 147 -997Q237 -1215 439 -1337Q616 -1443 812 -1443Q1066 -1443 1262 -1331Q1505 -1191 1585 -908Q1620 -786 1619 -706ZM1461 -366Q1461 -346 1440 -334Q1329 -273 1168 -237Q1022 -204 896 -204Q517 -204 303 -334Q292 -341 282 -360Q323 -425 555 -471Q750 -510 911 -510Q1200 -510 1461 -366ZM1293 173Q1293 200 1269.5 232Q1246 264 1217 264Q1178 264 1149.5 235.5Q1121 207 1121 171Q1121 139 1156 112Q1188 87 1214 87Q1237 87 1265 121.5Q1293 156 1293 173ZM963 176Q963 211 938 237.5Q913 264 884 264Q854 264 819.5 229Q785 194 785 166Q785 150 811 117Q834 87 866 87Q963 87 963 176ZM627 171Q627 208 598 238.5Q569 269 543 269Q501 269 475 237Q454 210 454 180Q454 178 476 114Q520 92 553 92Q590 92 611 122Q627 146 627 171ZM1594 264V-750Q1594 -756 1590 -774Q1586 -792 1586 -799Q1581 -973 1424 -1156Q1272 -1332 1100 -1383Q984 -1418 829 -1418Q466 -1418 249 -1131Q224 -1086 177 -1008Q165 -991 142 -903Q119 -815 119 -788V264H193V-804Q197 -819 201 -843Q216 -979 349 -1134Q489 -1297 630 -1316Q646 -1320 674 -1327Q798 -1349 871 -1349Q1051 -1349 1228 -1236Q1429 -1106 1487 -902Q1506 -841 1525 -769V264ZM1431 -360Q1189 -486 899 -486Q586 -486 347 -385Q323 -375 311 -354Q527 -229 896 -229Q1016 -229 1194 -267Q1396 -310 1431 -360ZM1269 176Q1269 160 1250 135.5Q1231 111 1209 111Q1187 111 1166 129Q1145 147 1145 173Q1145 200 1166 220Q1187 240 1214 240Q1233 240 1251 218Q1269 196 1269 176ZM938 176Q938 111 879 111Q845 111 831 129Q810 155 810 168Q810 191 838 218Q866 245 886 245Q903 245 920.5 219.5Q938 194 938 176ZM607 176Q607 116 553 116Q516 116 500 129Q474 150 474 180Q474 204 492 224.5Q510 245 538 245Q557 245 582 223Q607 201 607 176Z"/>
</svg>