<svg xmlns="http://www.w3.org/2000/svg" viewBox="0 -2048 2048 2048">
	<path fill="#000000" d="M1612 274H1500V-748Q1499 -765 1466 -885Q1406 -1102 1211 -1226Q1045 -1331 861 -1331Q722 -1331 600 -1292Q440 -1241 375 -1138Q429 -1139 483.5 -1178.5Q538 -1218 591 -1218Q630 -1218 669 -1191Q704 -1152 777 -1081Q841 -1035 954 -945Q1085 -830 1118 -805Q1213 -733 1286 -723Q1385 -709 1445 -696V-668Q1417 -664 1367 -650L1485 -582Q1479 -576 1479 -565Q1440 -570 1365 -569H1322L1406 -459L1394 -447Q1386 -451 1162 -581Q1018 -664 962 -668L939 -664Q944 -652 954 -631L910 -499Q952 -482 988 -475Q988 -442 988 -442H953Q947 -442 920.5 -449.5Q894 -457 888 -457Q882 -457 838 -449.5Q794 -442 788 -442Q783 -442 748 -449.5Q713 -457 707 -457Q701 -457 662.5 -449.5Q624 -442 618 -442Q608 -442 586 -453Q596 -475 623 -481Q645 -484 667 -487Q695 -494 718 -520Q773 -582 773 -616Q773 -630 722 -713Q707 -737 637 -797Q556 -866 539 -885Q511 -916 499 -969Q497 -978 504 -1005.5Q511 -1033 511 -1048Q511 -1085 475 -1103Q461 -1110 378 -1110Q377 -1110 363 -1124Q298 -1053 255.5 -950.5Q213 -848 213 -769V274H100V-827Q98 -879 138 -980Q229 -1211 433 -1337Q611 -1448 812 -1448Q1042 -1448 1223 -1355Q1451 -1237 1555 -990Q1580 -930 1591 -877Q1615 -762 1612 -715ZM1450 -228Q1432 -190 1344 -155Q1280 -129 1227 -119Q958 -69 827 -69Q693 -69 488 -122Q271 -178 257 -229Q273 -245 278 -248Q557 -378 891 -378Q1158 -378 1395 -273Q1427 -259 1450 -228ZM1288 160Q1288 188 1263 219.5Q1238 251 1212 251Q1176 251 1146 220.5Q1116 190 1116 157Q1116 123 1153 96Q1185 74 1210 74Q1236 74 1264 110Q1288 141 1288 160ZM959 160Q959 192 937 220Q912 251 881 251Q848 251 814 209Q783 171 783 152Q783 148 814 96Q858 74 866 74Q907 74 933 99Q959 124 959 160ZM625 157Q625 193 594 226Q565 255 542 255Q499 255 475 225Q454 199 454 165Q454 162 475 101Q519 79 549 79Q582 79 603.5 103.5Q625 128 625 157ZM1391 -680Q1345 -692 1330 -692Q1195 -696 939 -925Q870 -977 787 -1041Q730 -1095 674 -1150Q629 -1193 584 -1193Q483 -1193 483 -1144Q483 -1140 505 -1099Q527 -1058 530 -1037Q524 -1013 524 -969Q528 -954 548 -919Q583 -857 678 -795Q758 -743 838 -691Q869 -668 919 -629Q919 -642 914.5 -665.5Q910 -689 910 -696Q810 -726 767 -752Q692 -797 628 -857Q542 -936 542 -989Q542 -1041 630 -1041Q690 -1041 690 -1041V-1020L681 -1011Q651 -1021 630 -1021Q603 -1021 567 -996Q579 -945 593 -929Q792 -692 1168 -677Q1251 -674 1316 -676Q1400 -680 1391 -680ZM1411 -596Q1373 -622 1316 -651Q1176 -675 1084 -667H1048L1342 -506Q1305 -562 1293 -591Q1306 -604 1320 -604Q1324 -604 1360 -600Q1396 -596 1411 -596ZM922 -605L915 -607L884 -517L891 -514ZM812 -629Q792 -697 749 -716Q764 -685 794 -629ZM1587 250V-759Q1587 -765 1583 -783.5Q1579 -802 1579 -808Q1569 -943 1480 -1083Q1384 -1234 1238 -1322Q1135 -1384 1075 -1397Q927 -1429 807 -1429Q627 -1429 452 -1325Q252 -1205 172 -1005Q120 -873 120 -797V245H193V-813Q196 -828 201 -851Q220 -968 303 -1089Q395 -1222 521 -1285Q660 -1355 864 -1355Q1049 -1355 1224 -1242Q1422 -1115 1481 -910Q1500 -850 1519 -778V250ZM891 -606Q891 -617 868.5 -636.5Q846 -656 832 -657Q838 -646 838 -633Q838 -610 810 -568Q767 -505 758 -487L795 -481Q815 -486 849 -492Q858 -495 874.5 -543Q891 -591 891 -606ZM890 -478Q883 -485 883 -498Q883 -490 871 -478ZM799 -602L792 -604L745 -522L752 -519ZM733 -477Q733 -479 733 -489Q732 -498 732 -501L709 -477ZM1421 -229Q1371 -259 1346 -268Q1108 -353 896 -353Q740 -353 565.5 -317Q391 -281 287 -228Q380 -160 524 -129Q689 -93 866 -93Q1003 -93 1175 -130Q1370 -172 1421 -229ZM1264 160Q1264 138 1244 118Q1224 98 1202 98Q1141 98 1141 160Q1141 185 1161 205.5Q1181 226 1207 226Q1225 226 1244.5 205.5Q1264 185 1264 160ZM935 160Q935 98 876 98Q843 98 829 114Q807 140 807 155Q807 177 834 201.5Q861 226 883 226Q935 226 935 160ZM606 157Q606 141 593 124Q577 103 552 103Q513 103 499 115Q473 137 473 165Q473 189 493 210Q513 231 537 231Q555 231 578 210Q606 186 606 157ZM556 -1120Q554 -1120 550.5 -1117Q547 -1114 540 -1114Q540 -1114 518 -1136Q527 -1153 551 -1153Z"/>
</svg>