<svg xmlns="http://www.w3.org/2000/svg" viewBox="23.5 -1624.5 1559 2066">
	<path fill="currentColor" d="M1506 364H1394V-918Q1394 -933 1378.5 -994.5Q1363 -1056 1355 -1072Q1263 -1271 1119 -1352Q969 -1436 807 -1436Q683 -1436 611 -1409Q427 -1340 354 -1242Q349 -1235 339 -1222Q306 -1180 263 -1098Q214 -1005 214 -967V365H100V-915Q100 -1105 228 -1276Q354 -1442 536 -1507Q652 -1548 834 -1548Q813 -1548 919 -1533Q1031 -1517 1109 -1483Q1222 -1434 1325.5 -1323Q1429 -1212 1469 -1097Q1506 -989 1506 -839ZM1079 365H985V-732Q806 -798 559 -798Q545 -798 423 -782V-1114Q563 -1104 564 -1104Q736 -1104 858 -1127Q870 -1129 933 -1147Q987 -1162 1002 -1162H1079ZM984 -758V-1133Q785 -1081 558 -1081Q552 -1081 447 -1090V-810Q553 -822 559 -822Q791 -822 984 -758ZM1055 343V-1135H1011V343ZM1480 343V-872Q1480 -997 1446 -1092Q1445 -1096 1419 -1145Q1317 -1341 1159 -1428Q1138 -1442 1095 -1465Q1021 -1497 921.5 -1511Q822 -1525 832 -1525Q652 -1525 541 -1485Q494 -1468 373 -1387Q362 -1380 341 -1366Q234 -1282 172 -1131Q160 -1107 141 -1057Q123 -994 123 -917V343H189V-961Q189 -1029 267 -1165Q435 -1459 807 -1459Q868 -1459 973.5 -1431Q1079 -1403 1129 -1373Q1220 -1318 1300 -1210Q1380 -1102 1401 -1000Q1420 -909 1420 -907V343Z"/>
</svg>