<svg xmlns="http://www.w3.org/2000/svg" viewBox="0 -2048 2048 2048">
	<path fill="#000000" d="M1676 288H1559V-773Q1559 -806 1527 -903Q1502 -979 1489 -1008Q1402 -1203 1225 -1299Q1075 -1381 881 -1381Q718 -1381 605 -1338Q439 -1275 324 -1103Q217 -944 217 -800V284Q136 281 106 284L100 -851Q143 -1157 375 -1343Q583 -1509 837 -1509Q1104 -1509 1307 -1393Q1558 -1248 1642 -954Q1677 -833 1676 -744ZM1334 287H407L591 187L484 -324Q517 -428 571 -428Q624 -428 642 -410Q685 -367 740 -292Q818 -186 834 -167L888 -459Q889 -473 855.5 -521.5Q822 -570 822 -579Q822 -585 841 -617Q885 -683 929 -749Q980 -828 980 -874Q980 -930 954 -943Q942 -948 874 -951Q871 -966 849 -1013Q827 -1057 827 -1063Q827 -1067 844.5 -1094.5Q862 -1122 866 -1133Q927 -1294 1060 -1294Q1107 -1294 1138 -1281Q1176 -1265 1213 -1209.5Q1250 -1154 1252 -1117L1271 -439H1200L1180 135Q1180 170 1181 182Q1232 217 1334 287ZM1251 -465L1231 -1040Q1236 -1128 1191 -1197Q1143 -1273 1062 -1273Q1020 -1273 976 -1244Q927 -1212 914 -1166H1074Q1088 -1165 1114 -1137Q1114 -1128 1112 -1123Q1092 -1092 1069 -1046Q1062 -1021 1063 -977Q1064 -924 1062 -907L1048 -465ZM1651 262V-785Q1651 -791 1645 -824Q1638 -861 1637 -877Q1631 -903 1622 -943Q1596 -1085 1456 -1234Q1316 -1383 1158 -1440Q1039 -1483 857 -1483Q662 -1483 498 -1396Q298 -1291 190 -1077Q172 -1042 149 -969Q121 -878 121 -830V262H197V-846Q198 -932 282 -1085Q459 -1406 886 -1406Q1077 -1406 1240 -1314Q1436 -1203 1525 -988Q1578 -859 1580 -809V262ZM1251 261Q1154 200 1154 181L1169 -439H1026L1042 -999Q1043 -1022 1048 -1055Q1063 -1081 1088 -1128Q1054 -1145 1054 -1145H905Q857 -1064 857 -1058Q857 -1061 894 -973Q936 -972 972 -964Q987 -962 998 -921Q1006 -890 1006 -871Q1006 -821 953 -744Q912 -685 871 -627Q847 -585 847 -582Q847 -575 875 -535Q908 -488 914 -477L859 -116H846Q776 -211 626 -390Q614 -403 568 -403Q530 -403 509 -321L617 191Q609 204 509 261ZM991 -1087Q985 -1081 985 -1069H914V-1093Q946 -1109 947 -1109Q958 -1109 991 -1087Z"/>
</svg>