<svg xmlns="http://www.w3.org/2000/svg" viewBox="0 -2048 2048 2048">
	<path fill="currentColor" d="M1640 240H101Q101 195 100 136H159V-855Q159 -908 205 -1034Q277 -1230 473 -1345Q642 -1443 823 -1443Q1094 -1443 1299 -1290Q1468 -1164 1522 -990Q1565 -852 1564 -808V131Q1602 139 1640 131ZM1139 -1246L1131 -1249L1071 -1039H850V-959H971Q983 -959 1000 -944Q1017 -929 1017 -913Q1017 -907 1005 -884Q993 -861 993 -855Q993 -839 1030 -829Q1092 -1048 1139 -1246ZM1453 134V-822Q1453 -829 1449 -840Q1445 -851 1445 -855Q1438 -951 1355 -1069Q1268 -1192 1158 -1251Q1126 -1102 1049 -813Q1035 -793 1017 -758Q1113 -746 1113 -620Q1113 -578 1096 -494.5Q1079 -411 1079 -318Q1079 -312 1089 -212.5Q1099 -113 1099 -107Q1099 -101 1084.5 -43.5Q1070 14 1070 20Q1070 48 1109.5 82.5Q1149 117 1177 113Q1184 114 1196 117Q1205 123 1205 134ZM1544 134V-765Q1544 -802 1527 -883Q1510 -958 1498 -986Q1310 -1424 811 -1424Q650 -1424 484 -1323Q295 -1208 222 -1024Q181 -922 183 -874V134H244V-861Q251 -886 262 -932Q282 -1046 408 -1178Q548 -1324 694 -1336Q886 -1352 861 -1352Q956 -1352 1124 -1297Q1231 -1262 1326 -1142Q1378 -1076 1407 -1027Q1478 -907 1478 -821V134ZM1094 -616Q1094 -692 1059 -716Q1033 -734 1001 -734Q988 -744 988 -752Q988 -758 999 -779Q1010 -800 1012 -809Q997 -812 969 -837Q968 -860 980 -897Q993 -914 993 -915Q993 -922 990.5 -925Q988 -928 988 -929Q1001 -929 963.5 -931.5Q926 -934 846 -934Q820 -895 820 -889Q820 -883 839 -851Q858 -819 861 -807Q863 -806 902 -801Q921 -798 921 -769Q921 -745 910 -727Q897 -705 849 -640Q811 -587 811 -582Q811 -561 830 -552Q855 -541 862 -528Q873 -507 873 -457Q873 -401 855 -303Q842 -230 828 -158Q1028 -194 1065 -192V-223Q1065 -230 1060 -250Q1055 -270 1055 -275Q1052 -313 1061 -423Q1064 -456 1079 -537Q1094 -613 1094 -616ZM1132 -1267Q988 -1333 847 -1333Q459 -1333 299 -976Q262 -894 264 -831V134H489Q451 94 451 70Q451 -8 592 -73Q696 -111 801 -149Q816 -228 831 -307Q849 -405 849 -457Q849 -505 842 -519Q787 -551 787 -582Q787 -602 843 -672.5Q899 -743 899 -766Q899 -772 896 -776Q877 -781 840 -790Q834 -807 814 -848Q796 -884 796 -889Q796 -895 815.5 -944Q835 -993 835 -999Q835 -1024 816 -1052L829 -1065H1031Q992 -1106 954 -1147Q892 -1212 892 -1232Q892 -1241 911 -1263Q930 -1285 943 -1285Q955 -1285 974 -1268Q993 -1251 993 -1237Q993 -1198 955 -1198Q948 -1198 940 -1214Q955 -1222 974 -1239Q965 -1261 945 -1261Q937 -1261 926.5 -1250.5Q916 -1240 916 -1232Q916 -1219 984 -1152Q1021 -1116 1058 -1081Q1078 -1143 1114 -1262Q1118 -1267 1132 -1267ZM1069 -49V-171H1044Q991 -173 832 -132Q743 -109 702 -93Q615 -59 552 -16Q571 5 602 39Q683 6 775 6Q781 6 884 18Q987 30 993 30Q1018 30 1043.5 4Q1069 -22 1069 -49ZM1046 128Q1008 93 990 97L787 128ZM1132 128Q1111 126 1085.5 95.5Q1060 65 1060 44H1034Q1028 44 1023 49Q1018 54 1012 54Q1006 54 892 39.5Q778 25 772 25Q688 25 588 63Q534 -4 525 -4Q496 -4 475 68Q475 111 556 135L995 73Q1041 100 1132 128ZM1616 216V155H116V216ZM916 -898Q902 -882 895 -882Q864 -882 864 -898Q864 -904 885 -925Q908 -913 916 -898Z"/>
</svg>