<svg xmlns="http://www.w3.org/2000/svg" viewBox="0 -2048 2048 2048">
	<path fill="currentColor" d="M2373 -939Q2348 -928 2302 -897Q2280 -876 2252 -794Q2229 -730 2176 -716Q2175 -715 2168 -709L2238 -87Q2238 -40 2217 46Q2195 137 2173 172Q2226 180 2292 172V261H186V172Q254 180 311 173Q276 153 256 51Q241 -28 241 -107L311 -709Q293 -714 257 -734Q246 -743 214 -844Q195 -902 117 -935Q100 -948 100 -950Q100 -984 292 -1017V-1099Q292 -1099 166 -1099V-1178Q175 -1190 210 -1186Q267 -1179 256 -1179Q261 -1179 288 -1184Q320 -1190 333 -1192Q464 -1208 609 -1240Q698 -1264 787 -1288Q905 -1319 989 -1319Q1076 -1319 1116 -1298Q1170 -1270 1242 -1169Q1264 -1228 1326 -1274.5Q1388 -1321 1443 -1314L2115 -1188H2297Q2289 -1152 2298 -1105Q2246 -1097 2186 -1099L2182 -1095V-1017Q2249 -1007 2373 -967ZM2162 -1016V-1098H2098V-1016Q2121 -1018 2136 -1018Q2151 -1018 2162 -1016ZM2346 -951Q2212 -993 2130 -993Q2039 -993 1912 -956Q1979 -925 2000 -874Q2013 -840 2026 -806Q2045 -762 2063 -749Q2080 -742 2113 -724Q2094 -585 2074 -445Q2042 -207 2042 -95Q2042 -28 2061 57Q2087 171 2128 171Q2169 171 2194 54Q2213 -34 2213 -105Q2213 -218 2186 -421Q2164 -575 2142 -729Q2203 -740 2236 -826Q2273 -920 2346 -951ZM2273 -1124Q2267 -1158 2268 -1163Q2248 -1163 2207 -1166Q2166 -1169 2150 -1169Q2049 -1167 1912 -1194Q1780 -1223 1649 -1252Q1444 -1294 1428 -1294Q1397 -1294 1356 -1271Q1311 -1245 1291 -1208Q1277 -1181 1263 -1154Q1245 -1123 1233 -1123Q1162 -1299 989 -1299Q936 -1299 647.5 -1229Q359 -1159 236 -1159Q198 -1159 186 -1163Q193 -1134 191 -1124H334L1031 -1254Q1058 -1256 1107 -1224Q1152 -1194 1168 -1170Q1206 -1111 1200 -1019Q1223 -1020 1269 -1014Q1267 -1030 1267 -1045Q1267 -1137 1347 -1193Q1413 -1239 1493 -1239Q1540 -1239 1671 -1204Q1743 -1184 1814 -1165Q1887 -1152 2019 -1132Q2088 -1124 2081 -1124ZM2087 175Q2017 110 2017 -80Q2017 -183 2087 -717Q2077 -714 2053.5 -731.5Q2030 -749 2023 -761Q2010 -801 1980 -867Q1967 -888 1922 -920Q1882 -949 1882 -953Q1882 -985 2072 -1014V-1103Q1989 -1108 1830 -1140Q1750 -1159 1671 -1179Q1522 -1214 1485 -1214Q1290 -1214 1290 -1038Q1290 -1019 1296 -1009Q1337 -1009 1397 -996Q1475 -978 1475 -953Q1475 -945 1439 -924Q1398 -900 1392 -892Q1355 -844 1343 -770Q1339 -747 1311 -730Q1287 -714 1270 -717V-685Q1270 -683 1294 -528Q1320 -360 1326 -283Q1335 -172 1335 -138Q1335 95 1275 175ZM1440 -956Q1324 -993 1209 -993Q1085 -993 1009 -950Q1030 -946 1061 -921Q1092 -896 1102 -874Q1113 -840 1125 -806Q1140 -761 1155 -749Q1176 -744 1215 -729L1139 -130Q1146 -71 1154 -12Q1164 65 1183 114Q1205 171 1232 171Q1278 171 1299 29Q1310 -52 1310 -133Q1310 -259 1292 -393Q1265 -561 1239 -729Q1270 -743 1298 -744Q1324 -800 1350 -857Q1385 -930 1440 -956ZM381 -1019V-1100Q362 -1098 345 -1098Q328 -1098 317 -1100V-1019ZM1184 175Q1148 121 1145 103Q1119 -30 1119 -145L1184 -716Q1140 -714 1120.5 -763Q1101 -812 1083 -861Q1055 -918 997 -929Q990 -933 978 -941V-955Q1001 -982 1070 -998Q1124 -1008 1179 -1019V-1046Q1179 -1112 1140 -1163Q1096 -1220 1026 -1229L407 -1103V-1014Q597 -1001 597 -953Q597 -946 588 -939Q560 -923 533 -906Q500 -884 493 -866Q476 -818 440 -736Q431 -718 392 -716V-680Q392 -686 424.5 -463Q457 -240 457 -97Q457 111 392 175ZM2272 238V202H206L212 238ZM567 -956Q442 -993 341 -993Q187 -993 130 -950Q196 -933 224 -878Q241 -831 259.5 -784Q278 -737 328 -735Q333 -732 336 -729Q266 -272 266 -118Q266 -32 282 64Q285 83 303 121Q327 171 349 171Q393 171 418 52Q437 -36 437 -112Q437 -117 431.5 -150Q426 -183 426 -193Q426 -279 408 -409Q394 -512 379 -615Q366 -723 366 -715Q366 -734 370 -737Q377 -737 394.5 -740.5Q412 -744 418 -744Q444 -802 471 -860Q499 -922 567 -956Z"/>
</svg>