<svg xmlns="http://www.w3.org/2000/svg" viewBox="0 -2048 2048 2048">
	<path fill="currentColor" d="M2358 -1241Q2340 -1194 2317 -1180Q2298 -1168 2245 -1163Q2225 -1139 2054 -939V234H2324V327H135V236H447V-938Q383 -1017 252 -1172L249 -1170Q100 -1177 100 -1242Q100 -1294 203 -1294Q203 -1294 225 -1287Q244 -1281 314 -1281Q433 -1281 652 -1347Q949 -1436 995 -1446Q1055 -1460 1114 -1475Q1185 -1491 1235 -1491Q1229 -1491 1305 -1483Q1415 -1471 1586 -1416Q1671 -1380 1843 -1314Q1879 -1304 1952 -1284Q1980 -1274 2036 -1258Q2098 -1246 2125 -1249L2281 -1268Q2306 -1271 2358 -1241ZM2141 -1149Q2017 -1153 1868 -1202L2012 -1005ZM2329 -1231Q2294 -1248 2282 -1246Q2124 -1226 2118 -1226Q2074 -1226 1960 -1259Q1924 -1266 1852 -1286Q1768 -1323 1596 -1389Q1354 -1469 1236 -1469Q1188 -1469 1009 -1427Q956 -1415 852 -1389Q720 -1349 589 -1308Q412 -1257 328 -1257Q307 -1257 208 -1266L203 -1270Q199 -1271 195 -1271Q122 -1271 122 -1242Q122 -1192 326 -1192Q322 -1192 373 -1200Q553 -1228 643 -1255Q703 -1279 826 -1321Q1105 -1398 1256 -1398Q1293 -1398 1424 -1370Q1456 -1364 1520 -1349Q1640 -1306 1881 -1222Q2027 -1172 2111 -1172Q2142 -1172 2217 -1182Q2303 -1193 2312.5 -1203Q2322 -1213 2329 -1231ZM2213 -1161H2207Q2197 -1161 2173 -1155Q2072 -1037 2011 -971Q1951 -1052 1830 -1215Q1813 -1221 1778 -1234L2006 -926V234H2029V-938ZM1393 -1355Q1331 -1374 1288 -1374Q1194 -1374 1067 -1351L1225 -1129ZM1981 234V-922L1755 -1235L1757 -1242Q1664 -1280 1475 -1337L1275 -1061V234ZM1455 -1341Q1438 -1345 1421 -1349L1225 -1095Q1208 -1118 1042 -1347Q1022 -1345 1004 -1341L1214 -1047V234H1250V-1064ZM632 -1230Q442 -1181 338 -1173L477 -1005ZM1188 234V-1044L986 -1336Q833 -1302 739 -1265L520 -924V234ZM702 -1253L667 -1240Q605 -1150 478 -971Q407 -1053 309 -1168L286 -1169L472 -941V234H495V-929ZM2299 302V260H160V302Z"/>
</svg>