<svg xmlns="http://www.w3.org/2000/svg" viewBox="23.7 -1629.3 1185.6 2060.6">
	<path fill="currentColor" d="M1133 355H806V-652H432V354H100L222 -999L195 -1015V-1048L222 -1068Q213 -1186 118 -1258V-1314L128 -1320Q115 -1359 115 -1374Q115 -1428 147 -1475Q169 -1507 220 -1531Q268 -1553 309 -1553Q381 -1553 464 -1530Q685 -1459 1127 -1319V-1258Q1018 -1183 1018 -1074Q1044 -1052 1044 -1032Q1044 -1021 1042 -1015Q1017 -999 1018 -984ZM1043 -1322Q850 -1387 460 -1508Q383 -1530 310 -1530Q212 -1530 167 -1464Q138 -1422 138 -1372Q138 -1359 149 -1322ZM1104 -1277V-1298H144V-1277ZM1077 -1250H164Q231 -1185 244 -1076H995Q999 -1183 1077 -1250ZM1018 -1032Q1018 -1039 1009 -1051H234Q228 -1045 221 -1032Q227 -1016 234 -1016H1010Q1018 -1025 1018 -1032ZM1106 331L995 -990H244L127 331H405V-676H832V331Z"/>
</svg>