<svg xmlns="http://www.w3.org/2000/svg" viewBox="0 -2048 2048 2048">
	<path fill="currentColor" d="M2057 -64Q2057 22 1940 81Q1847 129 1771 129Q1726 129 1614.5 101Q1503 73 1462 74L1094 129Q1047 122 910 93Q820 74 763 74Q693 74 518.5 103.5Q344 133 343 133Q295 133 256.5 92Q218 51 218 4Q218 -34 233.5 -73Q249 -112 264 -150Q257 -157 254 -157Q250 -157 233 -152.5Q216 -148 209 -148Q173 -148 139 -172Q100 -199 100 -241Q100 -274 142 -292Q175 -307 214 -307Q289 -307 362 -269Q380 -260 393 -224Q395 -219 395 -187Q395 -154 393 -150Q388 -139 356 -86Q341 -60 341 -28Q341 6 384 6Q443 6 627 -37Q563 -98 563 -293L618 -782Q618 -794 609 -797Q594 -801 587 -808Q560 -833 534 -912Q527 -934 493 -962Q462 -987 445 -989Q451 -1000 450 -1019Q496 -1033 596 -1051Q598 -1066 604 -1093H376L160 -897V-1301H2024V-897Q1826 -1097 1813 -1097H1615L1612 -1094V-1036Q1619 -1033 1692 -1016Q1744 -1005 1757 -981Q1728 -966 1681 -925Q1676 -919 1644 -838Q1623 -785 1580 -776Q1639 -358 1639 -259Q1639 -141 1589 -33Q1625 -17 1661 -2Q1724 24 1759 24Q1765 24 1800 17Q1829 13 1886 -4Q1911 -16 1972 -62Q2027 -103 2032 -103Q2057 -103 2057 -64ZM1589 -1036V-1096H1517V-1036Q1534 -1038 1553 -1038Q1572 -1038 1589 -1036ZM2006 -947V-1278H183V-952Q243 -1009 357 -1115H1827Q1887 -1058 2006 -947ZM1725 -981Q1639 -1015 1535 -1015Q1432 -1015 1362 -981Q1409 -965 1444.5 -887.5Q1480 -810 1523 -800Q1525 -799 1535 -790Q1476 -428 1476 -280Q1476 -39 1544 -39Q1581 -39 1601 -126Q1616 -188 1616 -248L1557 -782Q1557 -801 1571 -803Q1594 -806 1597 -808Q1611 -817 1644 -887Q1676 -954 1725 -981ZM694 -1052V-1096H623V-1052Q647 -1055 662 -1055Q677 -1055 694 -1052ZM1512 -778Q1469 -785 1443 -842Q1405 -926 1393 -940Q1367 -947 1330 -981Q1360 -1014 1414 -1025Q1456 -1032 1498 -1039V-1096H718V-1052Q780 -1040 868 -1008V-996Q837 -978 792 -942Q775 -900 757 -859Q734 -805 691 -796L749 -278Q749 -107 686 -40H806L1142 6Q1185 6 1229 -4Q1292 -19 1356 -35Q1430 -51 1489 -52Q1453 -117 1453 -278ZM836 -999Q778 -1034 656 -1034Q592 -1034 538 -1023Q508 -1017 472 -999Q527 -982 553 -919Q586 -839 600 -826Q614 -825 640 -809Q581 -370 581 -296Q581 -229 596 -154Q618 -48 656 -48Q688 -48 710 -145Q727 -219 727 -271L676 -821Q722 -827 749 -901Q778 -980 836 -999ZM2033 -75Q1979 -21 1896 12Q1821 42 1762 42Q1727 42 1668 16Q1606 -10 1533 -13Q1510 -19 1467 -30L1140 29L740 -21L393 29Q355 29 349 24Q323 3 323 -39Q323 -64 348.5 -115Q374 -166 374 -204Q374 -216 372 -229Q304 -284 211 -284Q123 -284 123 -234Q123 -203 156 -185Q183 -171 214 -171Q234 -171 270 -180Q286 -156 286 -144Q286 -146 261 -89.5Q236 -33 236 15Q236 47 280 81Q321 113 346 111L772 52Q826 51 944 80Q1059 108 1110 106L1467 52Q1556 70 1736 103Q1784 111 1784 111Q1831 111 1910 72Q1996 29 2023 -18Q2033 -36 2033 -75ZM1257 -163H954Q1002 -312 1122 -312Q1155 -312 1206 -271.5Q1257 -231 1257 -196ZM1235 -181Q1225 -231 1190.5 -260Q1156 -289 1117 -289Q1008 -289 986 -181Z"/>
</svg>