<svg xmlns="http://www.w3.org/2000/svg" viewBox="0 -2048 2048 2048">
	<path fill="#000000" d="M1513 -1070H1375Q1370 -1070 1340 -1046Q1277 -995 1277 -941H1304V217H1472V365H100L234 217H267V3Q267 -29 301 -29Q333 -29 333 3V217H357V3Q357 -29 391 -29Q423 -29 423 3V217H447V3Q447 -29 481 -29Q513 -29 513 3V217H543V-622Q518 -624 470 -631Q421 -642 326 -696Q218 -758 218 -792Q218 -824 253 -824Q270 -824 305 -796Q330 -776 355 -756Q430 -709 543 -685V-719Q472 -734 424 -755Q262 -826 262 -873Q262 -910 293 -910Q290 -910 391 -847Q456 -806 543 -781V-813Q470 -825 366 -906Q319 -943 319 -965Q319 -993 345 -993Q354 -993 431.5 -941.5Q509 -890 543 -884V-941H569Q562 -998 538 -1031Q509 -1070 495 -1070H372V-1501Q372 -1540 417 -1538Q462 -1536 462 -1501V-1172H514V-1501Q514 -1540 559 -1538Q604 -1536 604 -1501V-1209Q699 -1277 739 -1297Q834 -1347 923 -1347Q1008 -1347 1097 -1302Q1145 -1278 1229 -1217Q1293 -1172 1314 -1172H1513ZM1487 -1096V-1146H1314Q1290 -1146 1160 -1233.5Q1030 -1321 923 -1321Q816 -1321 685.5 -1233.5Q555 -1146 531 -1146H398V-1096ZM1330 -1068H535Q590 -1018 590 -941H1255Q1255 -1008 1330 -1068ZM578 -1192V-1501Q571 -1512 559 -1512Q545 -1512 540 -1501V-1173Q554 -1177 578 -1192ZM436 -1172V-1501Q430 -1512 417 -1512Q403 -1512 398 -1501V-1172ZM543 -841V-858Q496 -870 441 -906Q365 -955 345 -965Q346 -953 382 -926Q474 -859 543 -841ZM1278 217V-915H569V217H614V-873H1230V217ZM1204 217V-847H640V217ZM543 -746V-754Q433 -788 325 -860Q315 -868 292 -882Q288 -878 289 -873Q319 -829 434 -779Q476 -761 543 -746ZM543 -648V-659Q389 -693 316 -753Q261 -798 253 -798Q246 -798 244 -792Q256 -765 350 -713Q436 -665 476 -656Q499 -651 543 -648ZM1446 339V242L246 243L159 339ZM487 217V3L481 -3Q473 -3 473 3V217ZM397 217V3L391 -3Q383 -3 383 3V217ZM307 217V3L301 -3Q293 -3 293 3V217Z"/>
</svg>