<svg xmlns="http://www.w3.org/2000/svg" viewBox="0 -2048 2048 2048">
	<path fill="#000000" d="M2192 350H100L176 227H263V-400L133 -453L143 -477L263 -428V-550L133 -603L143 -627L263 -578V-760L133 -813L143 -837L263 -788V-910L133 -963L143 -987L263 -938V-1457H289V-927L523 -831V-1457H549V-821L778 -727V-779Q743 -801 743 -832Q743 -855 776 -875Q768 -936 680 -1064V-1127H745Q733 -1169 733 -1215Q733 -1254 764 -1328Q832 -1492 1077 -1492Q1105 -1492 1191 -1473Q1273 -1454 1307 -1441L2118 -1127L2126 -1064Q2027 -931 2027 -894Q2027 -892 2050 -804L2022 -787V227H2114ZM2045 -1127L1294 -1418Q1173 -1465 1077 -1465Q848 -1465 786 -1318Q758 -1252 758 -1215Q758 -1173 772 -1127ZM2097 -1078L2095 -1103H704V-1078ZM2089 -1054H721Q791 -966 801 -882H2003Q2005 -948 2089 -1054ZM1997 227V-779H1968V227ZM2024 -818Q2022 -831 2013 -857H795Q785 -851 770 -832L788 -804H2001ZM1944 227V-779H864V227ZM778 -577V-699L549 -793V-671ZM523 -681V-803L289 -899V-777ZM778 -367V-549L549 -643V-461ZM840 227V-779H803V227ZM523 -471V-653L289 -749V-567ZM778 -217V-339L549 -433V-311ZM2147 325L2099 252H190L145 325ZM523 -321V-443L289 -539V-417ZM778 227V-189L549 -283V227ZM523 227V-293L289 -389V227Z"/>
</svg>