<svg xmlns="http://www.w3.org/2000/svg" viewBox="0 -2048 2048 2048">
	<path fill="currentColor" d="M1525 -748H1063V-850H1423V-1407H202V-850H559V-748H100V-1518H1525ZM1015 -965Q1015 -882 981 -802Q941 -709 874 -682L907 266Q908 288 883.5 320Q859 352 837 352Q807 352 788 324Q771 299 772 268L800 -680Q717 -696 665 -838Q630 -933 630 -957Q630 -1030 665 -1081Q705 -1139 776 -1139L770 -1198H882L884 -1137Q949 -1135 985 -1081Q1015 -1034 1015 -965ZM1501 -772V-1493H125V-772H534V-826H178V-1432H1448V-826H1087V-772ZM989 -965Q989 -1112 858 -1112V-1174H798V-1123L794 -1116Q729 -1114 692 -1068.5Q655 -1023 655 -957Q655 -940 671 -891Q734 -699 831 -699Q852 -699 870 -709Q989 -775 989 -965ZM882 262L850 -678Q834 -674 825 -674L796 270Q795 287 807 306Q819 325 835 325Q852 325 867.5 302.5Q883 280 882 262Z"/>
</svg>