<svg xmlns="http://www.w3.org/2000/svg" viewBox="25 -1600 841 2025">
	<path fill="currentColor" d="M786 350H100Q102 233 100 207H209L294 -700Q294 -730 254 -753Q251 -751 224 -727Q205 -710 197 -710Q194 -710 117 -754Q125 -782 155 -852Q181 -913 181 -919Q181 -927 173 -934Q167 -938 161 -942Q144 -970 129 -1018Q128 -1021 128 -1043Q128 -1076 145 -1101H170Q183 -957 248 -957Q271 -957 292 -991Q309 -1018 313 -1041Q311 -1058 310 -1089V-1111Q311 -1118 323 -1118Q367 -1118 367 -1028Q367 -991 361 -955Q379 -933 419 -887Q422 -920 422 -1061Q422 -1059 424.5 -1100Q427 -1141 426 -1170Q426 -1211 420 -1232Q412 -1259 373 -1308Q337 -1354 337 -1359Q337 -1362 435 -1519Q440 -1525 452 -1525Q463 -1525 518 -1445Q545 -1404 572 -1362Q532 -1307 491 -1239V-898L581 -1037Q589 -948 603 -794Q615 -653 619 -563Q623 -510 629 -413Q636 -221 670 187Q673 210 719 209Q791 208 786 207ZM540 -1362Q540 -1370 506 -1419Q458 -1489 452 -1498L369 -1362Q406 -1312 444 -1248V-862Q450 -856 465 -856V-1239Q465 -1244 502.5 -1300Q540 -1356 540 -1362ZM647 205L565 -957Q563 -954 512 -873Q481 -823 452 -823Q442 -823 384 -881Q326 -939 326 -949Q326 -956 336.5 -988Q347 -1020 347 -1027Q347 -1043 339 -1059Q343 -1007 311 -970Q283 -936 248 -936Q218 -936 177 -978Q180 -969 208 -927L144 -766Q179 -743 189 -743Q196 -743 218 -764Q240 -785 245 -785Q252 -785 284 -763Q320 -738 320 -721L241 205ZM765 323V234H123V323Z"/>
</svg>