<svg xmlns="http://www.w3.org/2000/svg" viewBox="30.3 -1518.7 729.4 1881.4">
	<path fill="currentColor" d="M690 293H100Q111 251 122 209Q141 159 185 148Q109 45 109 -71L185 -1344Q191 -1350 200 -1350Q212 -1350 312 -1250Q316 -1257 315 -1349Q314 -1441 310 -1449H498V-1265Q520 -1295 567 -1355Q595 -1350 598 -1313Q660 -497 660 -422V-101Q660 80 575 149Q601 146 649 159Q673 177 680 228Q685 260 690 293ZM469 -1232V-1424H340V-1233Q340 -1219 407 -1165Q431 -1188 469 -1232ZM635 -40V-442L568 -1320Q546 -1284 494 -1221Q428 -1140 405 -1140Q381 -1140 211 -1310L129 -74Q129 -11 150 50Q176 125 221 150Q225 152 280 152L528 147Q580 136 611 64Q635 9 635 -40ZM665 276Q659 244 654 211Q643 172 612 172H203Q146 172 125 276Z"/>
</svg>