<svg xmlns="http://www.w3.org/2000/svg" viewBox="0 -2048 2048 2048">
	<path fill="currentColor" d="M1970 -330H1412V345H924V-333Q924 -333 832 -333Q752 -333 619 -301Q486 -269 437 -269Q401 -269 311 -286Q274 -293 196 -342Q100 -404 100 -453Q100 -467 117 -479Q132 -488 145 -488Q142 -488 247.5 -434.5Q353 -381 439 -381Q507 -381 555 -401Q553 -418 546 -420Q548 -419 522 -419Q515 -419 483.5 -416Q452 -413 445 -413Q378 -413 314 -452Q322 -480 348 -515Q402 -488 415 -488Q422 -488 491.5 -501.5Q561 -515 568 -515Q574 -515 637 -485.5Q700 -456 707 -456Q727 -456 924 -498V-1188L1111 -1055V-1185Q1111 -1191 1062.5 -1254.5Q1014 -1318 1014 -1325Q1014 -1336 1138 -1525H1168Q1292 -1336 1292 -1330Q1292 -1323 1243.5 -1253Q1195 -1183 1195 -1181V-1049L1409 -1183V-519Q1411 -517 1419 -511Q1501 -502 1683 -482L1731 -1033H1927ZM1254 -1345L1150 -1499L1052 -1345ZM1254 -1315H1052Q1094 -1260 1137 -1191V-1040H1169V-1187Q1198 -1230 1254 -1315ZM1387 -520V-1140Q1325 -1101 1263 -1063Q1181 -1012 1150 -1012Q1122 -1012 1120 -1013Q1068 -1047 951 -1140V-499H973Q979 -499 1025 -507Q1071 -515 1086 -515Q1271 -521 1387 -520ZM1949 -355L1906 -1006H1753L1710 -461L1247 -499Q1136 -499 867 -459Q839 -455 770 -441Q709 -429 704 -429Q697 -429 633.5 -458.5Q570 -488 562 -488Q555 -488 492.5 -477.5Q430 -467 423 -467Q412 -467 352 -482Q352 -480 349 -474.5Q346 -469 346 -463Q376 -435 442 -435Q449 -435 491.5 -440Q534 -445 541 -445Q564 -445 571 -424Q576 -407 581 -390Q493 -355 437 -355Q361 -355 250.5 -408Q140 -461 145 -461Q133 -461 127 -455V-437Q167 -374 273 -332Q364 -296 439 -296Q527 -296 619 -325Q658 -340 697 -355ZM1387 -254V-327H951V-254ZM1387 318V-231H951V318Z"/>
</svg>