<svg xmlns="http://www.w3.org/2000/svg" viewBox="0 -2048 2048 2048">
	<path fill="#000000" d="M1397 366H100V219H222V-1525H358V-1195Q492 -1413 745 -1413Q845 -1413 964 -1352Q1088 -1288 1137 -1205V-1525H1281V219H1397ZM1131 -1165Q1126 -1174 1115 -1192Q1062 -1272 952.5 -1329.5Q843 -1387 745 -1387Q522 -1387 372 -1165ZM1137 -1065V-1138H358V-1065ZM1255 219V-1499H1163V219ZM1137 -513V-1029L385 -513ZM1108 -1038H358V-525ZM1137 -446V-487H358V-446ZM1137 -372V-419H358V-372ZM332 219V-1499H248V219ZM1137 211V-345H383ZM1106 219L358 -333V219ZM1371 340V245H126V340Z"/>
</svg>