<svg xmlns="http://www.w3.org/2000/svg" viewBox="0 0 466 1000">
  <g transform="scale(1,-1) translate(0,-1000)">
    <path d="M385 663H83V51H385Q385 51 385 565ZM425 804V167V50H441Q452 50 459.0 43.0Q466 36 466.0 25.0Q466 14 459.0 7.0Q452 0 441 0H25Q14 0 7.0 7.0Q0 14 0.0 25.0Q0 36 7.0 43.0Q14 50 25 50H43V804Q43 812 49.0 818.0Q55 824 63.0 824.0Q71 824 77.0 818.0Q83 812 83 804V733Q152 811 235 811Q319 811 385 738V804Q385 812 391.0 818.0Q397 824 405.0 824.0Q413 824 419.0 818.0Q425 812 425 804ZM110 703H362Q332 738 303.0 754.5Q274 771 235 771Q169 771 110 703Z" fill="currentColor"/>
  </g>
</svg>