<svg xmlns="http://www.w3.org/2000/svg" viewBox="0 -2048 2048 2048">
	<path fill="currentColor" d="M670 -1153Q584 -1024 434 -999L518 -37Q518 112 455 224Q459 228 653 223V347H136V224H345Q314 206 289 113Q267 29 267 -40L356 -989Q350 -996 332 -996Q271 -997 205 -1039Q128 -1088 100 -1165H252Q278 -1256 304 -1362V-1384Q256 -1390 194 -1383V-1481H596V-1378Q528 -1396 470 -1379Q490 -1290 527 -1166Q575 -1169 670 -1153ZM570 -1407V-1463H215V-1407ZM496 -1166L444 -1385H330L283 -1166ZM628 -1143H141Q164 -1082 255 -1044Q328 -1014 395 -1014Q448 -1014 519 -1049Q598 -1089 628 -1143ZM492 -40L402 -992H383L293 -24Q293 53 316 126Q346 227 403 227Q448 227 473 114Q492 32 492 -40ZM627 321V254H163V321Z"/>
</svg>