<svg xmlns="http://www.w3.org/2000/svg" viewBox="0 0 802 1000">
  <g transform="scale(1,-1) translate(0,-1000)">
    <path d="M91 942Q102 942 112.0 947.0Q122 952 124 952Q130 952 134.5 947.5Q139 943 139 937Q139 933 121.0 908.0Q103 883 103 866Q108 796 110.5 782.0Q113 768 122 759Q118 773 118 785Q118 807 138.0 857.5Q158 908 158 916Q158 932 141.5 947.0Q125 962 104.0 962.0Q83 962 77 945Q83 942 91 942ZM89 913Q82 913 74.0 914.5Q66 916 56.5 923.5Q47 931 47 944Q47 960 62.0 975.5Q77 991 104 991Q137 991 162.0 968.0Q187 945 187 917Q187 908 167.0 854.5Q147 801 147 787Q153 762 155 756H239Q233 768 229.0 796.5Q225 825 224.0 843.0Q223 861 223 866Q223 885 239 913Q232 913 224.0 914.5Q216 916 206.5 923.5Q197 931 197 944Q197 960 212.0 975.5Q227 991 254 991Q287 991 312.0 968.0Q337 945 337 917Q337 908 317.0 854.5Q297 801 297 787Q303 762 305 756H389Q383 768 379.0 796.5Q375 825 374.0 843.0Q373 861 373 866Q373 885 389 913Q382 913 374.0 914.5Q366 916 356.5 923.5Q347 931 347 944Q347 960 362.0 975.5Q377 991 404 991Q437 991 462.0 968.0Q487 945 487 917Q487 908 467.0 854.5Q447 801 447 787Q453 762 455 756H539Q533 768 529.0 796.5Q525 825 524.0 843.0Q523 861 523 866Q523 885 539 913Q532 913 524.0 914.5Q516 916 506.5 923.5Q497 931 497 944Q497 960 512.0 975.5Q527 991 554 991Q587 991 612.0 968.0Q637 945 637 917Q637 908 617.0 854.5Q597 801 597 787Q603 762 605 756H689Q683 768 679.0 796.5Q675 825 674.0 843.0Q673 861 673 866Q673 885 689 913Q682 913 674.0 914.5Q666 916 656.5 923.5Q647 931 647 944Q647 960 662.0 975.5Q677 991 704 991Q737 991 762.0 968.0Q787 945 787 917Q787 908 767.0 854.5Q747 801 747 787Q753 762 755 756H782Q802 753 802 735Q802 725 792.0 717.0Q782 709 765.5 698.0Q749 687 740 676Q736 671 733.5 664.5Q731 658 728.5 648.5Q726 639 724 634V633L774 21Q774 0 741 0H61Q49 0 39.0 5.5Q29 11 28 21L78 633V634Q64 672 62 676Q53 687 36.5 698.0Q20 709 10.0 717.0Q0 725 0 735Q0 754 20 756H89Q83 768 79.0 796.5Q75 825 74.0 843.0Q73 861 73 866Q73 885 89 913ZM78 716Q94 703 99.5 692.5Q105 682 114 652H688Q698 683 702.5 691.5Q707 700 723 716ZM735 40 685 612H117L67 38H160V431Q160 439 166.0 445.0Q172 451 180 451H318Q339 451 339 431V39H462V431Q462 439 468.0 445.0Q474 451 482 451H620Q641 451 641 431V39Q666 39 697.5 39.5Q729 40 735 40ZM241 942Q252 942 262.0 947.0Q272 952 274 952Q280 952 284.5 947.5Q289 943 289 937Q289 933 271.0 908.0Q253 883 253 866Q258 796 260.5 782.0Q263 768 272 759Q268 773 268 785Q268 807 288.0 857.5Q308 908 308 916Q308 932 291.5 947.0Q275 962 254.0 962.0Q233 962 227 945Q233 942 241 942ZM391 942Q402 942 412.0 947.0Q422 952 424 952Q430 952 434.5 947.5Q439 943 439 937Q439 933 421.0 908.0Q403 883 403 866Q408 796 410.5 782.0Q413 768 422 759Q418 773 418 785Q418 807 438.0 857.5Q458 908 458 916Q458 932 441.5 947.0Q425 962 404.0 962.0Q383 962 377 945Q383 942 391 942ZM541 942Q552 942 562.0 947.0Q572 952 574 952Q580 952 584.5 947.5Q589 943 589 937Q589 933 571.0 908.0Q553 883 553 866Q558 796 560.5 782.0Q563 768 572 759Q568 773 568 785Q568 807 588.0 857.5Q608 908 608 916Q608 932 591.5 947.0Q575 962 554.0 962.0Q533 962 527 945Q533 942 541 942ZM691 942Q702 942 712.0 947.0Q722 952 724 952Q730 952 734.5 947.5Q739 943 739 937Q739 933 721.0 908.0Q703 883 703 866Q708 796 710.5 782.0Q713 768 722 759Q718 773 718 785Q718 807 738.0 857.5Q758 908 758 916Q758 932 741.5 947.0Q725 962 704.0 962.0Q683 962 677 945Q683 942 691 942ZM200 38Q214 38 247.5 38.5Q281 39 299 39V410H200ZM502 39H601V410H502Z" fill="currentColor"/>
  </g>
</svg>