<svg xmlns="http://www.w3.org/2000/svg" viewBox="30.3 -1544.7 1775.4 1882.4">
	<path fill="currentColor" d="M1736 -1148H1192Q1188 -1148 1094 -1094Q1174 -964 1296 -732Q1443 -379 1443 -348Q1443 -321 1422 -297Q1399 -270 1370 -270Q1364 -270 1330.5 -282.5Q1297 -295 1291 -295Q1264 -295 1237 -271H1023Q1004 -119 1004 -36Q1004 -31 1019 59.5Q1034 150 1034 156Q1034 197 1002.5 232.5Q971 268 929 268Q899 268 845 240.5Q791 213 772 213Q766 213 712 240Q658 267 652 267H163Q161 257 151 225Q142 197 142 190Q142 161 169 150Q205 144 274 132Q336 120 466 66Q616 4 672 -13Q691 -19 739 -70Q755 -87 755 -151Q755 -157 750 -219.5Q745 -282 745 -288V-482Q745 -482 743 -507Q740 -542 737 -614Q663 -540 642 -462Q639 -450 643 -412Q649 -360 649 -348Q650 -325 622.5 -297.5Q595 -270 571 -270Q566 -270 527.5 -285Q489 -300 483 -300Q477 -300 445.5 -285.5Q414 -271 408 -271H133Q126 -292 128 -330Q208 -359 378 -426Q432 -448 488 -548Q518 -601 553 -694Q608 -837 612 -847Q651 -928 730 -1094Q667 -1147 647 -1148H101Q105 -1225 100 -1246H637Q682 -1283 711 -1300V-1475H1078V-1315Q1100 -1306 1147 -1285Q1169 -1266 1202 -1246H1736ZM1716 -1173V-1222H1197Q1170 -1241 1142 -1260Q1086 -1297 1036 -1297Q991 -1297 960 -1269Q929 -1241 929 -1200Q929 -1163 970 -1134Q1008 -1107 1046 -1107Q1052 -1107 1119 -1140Q1186 -1173 1192 -1173ZM1053 -1317V-1455H731V-1307Q791 -1322 797 -1322Q820 -1322 862 -1303Q909 -1283 916 -1262Q942 -1290 958 -1295Q1035 -1322 1041 -1322Q1053 -1322 1053 -1317ZM904 -1200Q904 -1241 873.5 -1269Q843 -1297 800 -1297Q754 -1297 671 -1245Q662 -1234 642 -1222H123V-1173H642Q648 -1173 716 -1140Q784 -1107 790 -1107Q824 -1107 860 -1131Q904 -1160 904 -1200ZM1213 -477Q1213 -530 1055 -749V-543Q1050 -467 1032 -376Q1213 -421 1213 -477ZM1423 -348Q1423 -354 1386 -443Q1343 -546 1329 -588Q1302 -670 1231 -812Q1214 -847 1067 -1087Q1062 -1082 1051 -1082Q957 -1082 917 -1157Q873 -1082 785 -1082Q772 -1082 752 -1092Q659 -894 628 -823Q565 -681 529 -573Q511 -518 467 -466Q418 -408 368 -391Q304 -373 239 -356Q147 -328 147 -308Q147 -296 153 -296H403Q409 -296 443 -308Q477 -320 483 -320Q493 -320 528.5 -307.5Q564 -295 568 -295Q625 -295 625 -370Q625 -391 620 -428Q615 -457 617 -461Q658 -545 759 -703Q845 -838 883 -935Q890 -965 897 -995Q907 -1031 931 -1033Q970 -942 1036 -820Q1089 -738 1141 -657Q1238 -504 1238 -480Q1238 -429 1176 -396Q1138 -376 1047 -352.5Q956 -329 930 -314V-296H1230Q1236 -296 1256.5 -308Q1277 -320 1283 -320Q1289 -320 1326.5 -307.5Q1364 -295 1370 -295Q1423 -295 1423 -348ZM1029 -644Q1029 -643 1031.5 -676.5Q1034 -710 1033 -734Q1033 -768 1027 -787Q1016 -823 981 -884Q937 -962 927 -983Q888 -885 853 -817Q827 -774 802 -731Q760 -659 760 -639Q760 -633 765 -602Q770 -571 770 -566V-244Q770 -238 775 -191Q780 -144 780 -138Q780 -109 760 -67Q738 -19 712 -7Q628 23 473 85Q302 162 178 169Q178 171 172.5 178.5Q167 186 167 193Q167 186 183 242H652Q655 242 709.5 215Q764 188 770 188Q776 188 853.5 213Q931 238 937 238Q963 238 989 200Q1014 165 1014 138Q1014 132 996.5 48.5Q979 -35 979 -41L994 -269Q986 -270 976 -270Q966 -270 950 -268Q934 -266 929 -266Q904 -266 904 -308Q904 -341 943 -352Q973 -359 1002 -367Q1029 -439 1029 -644Z"/>
</svg>