<svg xmlns="http://www.w3.org/2000/svg" viewBox="4 -1564 2593.1 1965.1">
	<path fill="currentColor" d="M2005 -240Q2005 -218 1973 -203Q1950 -192 1939 -192Q1933 -192 1909.5 -199.5Q1886 -207 1881 -207Q1877 -207 1850.5 -200.5Q1824 -194 1810 -193Q1796 -192 1714 -192Q1640 -192 1606 -198Q1595 -217 1595 -231Q1629 -254 1725 -284Q1800 -307 1823 -346L1613 -724Q1600 -685 1567 -608Q1509 -517 1403 -335Q1401 -332 1401 -324Q1401 -319 1402.5 -300Q1404 -281 1404 -269Q1404 -192 1344 -192Q1338 -192 1311 -204.5Q1284 -217 1278 -217Q1272 -217 1229.5 -207Q1187 -197 1181 -197H1028Q1023 -211 1012 -233Q1042 -258 1070 -264Q1121 -275 1196 -309Q1220 -320 1257 -368Q1298 -421 1338 -534Q1373 -633 1439 -764Q1542 -972 1600 -972Q1635 -972 1707 -864Q1752 -798 1851 -631Q1878 -582 1941.5 -419Q2005 -256 2005 -240ZM2501 -1140H2335V-508L2294 -37Q2287 43 2313 145Q2320 172 2320 186Q2320 229 2285.5 267Q2251 305 2208 305Q2202 305 2129.5 277Q2057 249 2051 249Q2045 249 1988 277Q1931 305 1926 305H1439Q1412 241 1412 224Q1412 208 1439 186Q1511 171 1652 132Q1687 120 1835 59Q1971 3 1973 2Q2036 -36 2036 -110Q2036 -116 2031 -160Q2026 -204 2026 -210V-610L2011 -838V-1139H1780Q1781 -1139 1714 -1103.5Q1647 -1068 1613 -1068Q1539 -1068 1486 -1144Q1434 -1068 1362 -1068Q1318 -1068 1257.5 -1104Q1197 -1140 1196 -1140H1036Q1022 -1057 1022 -889V-549L971 -7Q971 77 989 119.5Q1007 162 1007 184Q1007 231 971 268Q935 305 895 305Q862 305 811.5 277Q761 249 741 249Q735 249 680 277Q625 305 619 305H121Q100 217 100 232Q100 201 123 190.5Q146 180 193 174Q247 167 264 162Q272 160 628 25Q669 9 696.5 -28Q724 -65 723 -103L683 -1137H481V-1240H676V-1468H1039Q1044 -1450 1039 -1240H1196Q1268 -1312 1357 -1312Q1444 -1312 1491 -1251Q1531 -1312 1620 -1312Q1708 -1312 1781 -1240H1982L1987 -1245Q1989 -1273 1985 -1334Q1980 -1402 1980 -1396V-1468H2370Q2360 -1390 2354 -1242H2501ZM2344 -1448H2006Q2007 -1347 2016 -1241H2329Q2332 -1281 2344 -1448ZM2476 -1166V-1215H1775Q1781 -1215 1725 -1253Q1669 -1291 1615 -1291Q1571 -1291 1535 -1259.5Q1499 -1228 1499 -1185Q1499 -1150 1541 -1121Q1579 -1094 1615 -1094Q1665 -1094 1775 -1166ZM2324 -1138H2031V-954L2051 -554V-372Q2051 -373 2048 -327Q2046 -286 2047 -265Q2052 -219 2057 -132Q2061 -127 2061 -113Q2061 4 1926 49Q1850 81 1713 137Q1625 171 1450 206Q1438 222 1438 232Q1438 224 1454 280H1926Q1931 280 1986.5 252Q2042 224 2048 224Q2054 224 2128 252Q2202 280 2208 280Q2240 280 2267 246.5Q2294 213 2294 178Q2294 172 2282 118Q2269 57 2265 34Q2264 28 2264 -19L2309 -462ZM1016 -1241V-1448H699V-1241ZM1473 -1190Q1473 -1235 1442 -1263Q1411 -1291 1362 -1291Q1271 -1291 1201 -1215H506V-1165H1196Q1201 -1165 1264 -1129.5Q1327 -1094 1367 -1094Q1403 -1094 1434 -1115Q1473 -1142 1473 -1190ZM1980 -234Q1852 -618 1697 -834Q1678 -865 1659 -897Q1626 -947 1602 -947Q1553 -947 1426 -675Q1365 -534 1304 -393Q1267 -327 1206 -289Q1177 -271 1114.5 -253Q1052 -235 1037 -224Q1079 -217 1131 -217Q1191 -217 1243 -228Q1247 -229 1261 -235.5Q1275 -242 1281 -242Q1286 -242 1313 -229.5Q1340 -217 1346 -217Q1381 -217 1381 -266Q1381 -278 1379 -298.5Q1377 -319 1377 -326Q1377 -332 1378 -335Q1397 -382 1477 -501Q1552 -612 1578 -695Q1589 -731 1613 -764H1622Q1647 -714 1733 -558Q1762 -511 1792 -465Q1848 -373 1848 -351Q1848 -303 1751 -268Q1689 -249 1627 -230Q1622 -227 1620 -218Q1644 -217 1686 -215Q1725 -212 1729 -212Q1793 -212 1851 -223Q1855 -224 1866.5 -230.5Q1878 -237 1884 -237Q1890 -237 1911.5 -227Q1933 -217 1939 -217Q1950 -217 1980 -234ZM1006 -1138H709L735 -250Q736 -223 742 -163Q748 -103 748 -100Q748 -76 724 -36Q699 8 674 20Q485 114 314 172Q258 191 137 206Q134 211 125 220Q125 256 142 280H608Q614 280 672 252Q730 224 736 224Q742 224 814.5 252Q887 280 893 280Q925 280 953.5 247.5Q982 215 982 184Q982 179 968 123Q953 61 949 32.5Q945 4 946 -12L992 -569Z"/>
</svg>