<svg xmlns="http://www.w3.org/2000/svg" viewBox="32.8 -1230.2 1814.4 1441.4">
	<path fill="currentColor" d="M1780 -299Q1710 -281 1571 -239Q1578 -209 1589 -155Q1569 -150 1530 -140Q1526 -160 1506 -220Q1503 -224 1499 -224L1058 -108Q1058 -104 1072 -20Q1052 -15 1014 -5L986 -89L496 45Q503 73 519 129Q507 132 450 144Q442 93 425 60L171 125Q163 104 156 61Q240 40 408 -8Q404 -32 394 -61Q369 -58 313 -50Q263 -42 258 -42Q190 -42 143 -94Q100 -142 100 -200Q100 -350 305 -399Q287 -456 267 -541Q151 -597 151 -694Q151 -732 171 -767Q172 -769 184 -780Q193 -789 193 -796Q193 -784 175 -874Q179 -874 239 -884Q243 -859 259 -818Q277 -809 313 -784Q352 -750 364 -715Q370 -698 370 -673Q370 -647 356.5 -609.5Q343 -572 328 -560L365 -418Q369 -414 374 -414L860 -540Q863 -543 863 -549Q863 -607 825 -690Q806 -700 772.5 -723Q739 -746 724.5 -775Q710 -804 710 -836Q710 -873 725 -898Q737 -914 748 -930Q756 -938 756 -940Q756 -957 734 -1023Q730 -1023 802 -1028Q809 -1003 822 -958Q929 -923 929 -822Q929 -782 908 -741Q907 -739 897 -727.5Q887 -716 887 -710Q887 -692 934 -558L1377 -675Q1380 -678 1380 -684Q1380 -677 1346 -820Q1222 -888 1222 -966Q1222 -987 1245 -1024Q1268 -1061 1268 -1082Q1268 -1091 1245 -1148Q1259 -1153 1304 -1163Q1313 -1142 1332 -1104Q1390 -1110 1424 -1052Q1450 -1008 1450 -959Q1450 -915 1439 -895Q1437 -891 1418 -872Q1403 -856 1403 -849Q1403 -844 1418 -790Q1435 -728 1440 -697Q1444 -697 1448 -693L1658 -749Q1660 -740 1665.5 -717Q1671 -694 1673 -685L1468 -634Q1468 -633 1466 -632Q1464 -631 1464 -624Q1464 -619 1484 -551Q1506 -472 1514 -437Q1510 -437 1524 -433L1728 -488Q1735 -466 1747 -425L1542 -373Q1542 -372 1540 -371Q1538 -370 1538 -363Q1538 -343 1556 -307L1765 -358Q1767 -349 1772.5 -328.5Q1778 -308 1780 -299ZM1427 -959Q1427 -1075 1319 -1085Q1310 -1103 1291 -1138Q1273 -1145 1273 -1131Q1273 -1126 1282.5 -1104.5Q1292 -1083 1292 -1078Q1292 -1083 1268.5 -1045.5Q1245 -1008 1245 -964Q1245 -889 1365 -839Q1378 -788 1399 -685Q1401 -685 1410 -687.5Q1419 -690 1421 -690L1380 -854Q1427 -905 1427 -959ZM1496 -425L1444 -624L1422 -615L1475 -419Q1481 -425 1496 -425ZM1528 -299Q1519 -353 1519 -363Q1506 -356 1492 -358Q1494 -349 1499.5 -326Q1505 -303 1507 -294Q1509 -294 1517.5 -296.5Q1526 -299 1528 -299ZM1561 -168Q1555 -210 1546 -237Q1524 -227 1524 -221Q1535 -200 1544 -168ZM1454 -415L1403 -610H1382L952 -492L1004 -298ZM910 -555Q868 -709 868 -712Q868 -717 884.5 -750Q901 -783 904 -798Q905 -802 905 -824Q905 -902 804 -939Q791 -990 783 -1005H757Q780 -947 780 -933Q780 -926 774.5 -923.5Q769 -921 769 -920Q758 -904 747 -888Q733 -865 733 -833Q733 -782 776 -746Q804 -734 839 -709Q854 -681 888 -550Q890 -550 899 -552.5Q908 -555 910 -555ZM1487 -290Q1478 -328 1467 -349L1022 -232Q1027 -204 1037 -173ZM984 -295L926 -489Q926 -484 906 -484V-463L958 -284Q969 -287 984 -295ZM1719 -439Q1719 -441 1716.5 -449.5Q1714 -458 1714 -460L272 -89Q223 -91 189 -119Q151 -149 151 -193Q151 -297 252 -329Q364 -365 945 -513Q1013 -531 1122 -560Q1201 -582 1336 -617Q1464 -648 1645 -699Q1645 -701 1642.5 -709.5Q1640 -718 1640 -721H1624Q1208 -606 377 -392Q252 -362 204 -333Q123 -284 123 -191Q123 -135 167.5 -100Q212 -65 275 -65Q316 -65 882 -216Q1300 -327 1719 -439ZM1012 -164Q1005 -199 997 -223Q975 -223 975 -212Q975 -204 990 -159Q992 -159 1001 -161.5Q1010 -164 1012 -164ZM1044 -33Q1044 -61 1035 -97H1013Q1021 -48 1027 -33ZM1752 -313V-335L179 81Q185 87 185 102ZM933 -281L881 -475L389 -343L441 -149ZM347 -668Q347 -704 326 -739Q316 -756 280.5 -777.5Q245 -799 241.5 -803.5Q238 -808 225 -860H203Q206 -840 213.5 -814Q221 -788 221 -784Q221 -778 200 -756.5Q179 -735 176 -725Q170 -705 170 -696Q170 -686 181 -658Q199 -612 227 -588Q251 -579 280 -560Q287 -546 324 -406H346L305 -565Q347 -620 347 -668ZM970 -150Q968 -159 960.5 -182Q953 -205 951 -214L459 -83Q465 -63 474 -24ZM421 -146L369 -339Q364 -339 354 -336.5Q344 -334 343 -334L395 -135Q406 -138 421 -146ZM374 -132L323 -326H303Q313 -326 274 -313Q170 -279 170 -193Q170 -155 208 -127Q235 -107 270 -107Q287 -107 374 -132ZM449 -15Q444 -68 449 -73H417Q424 -29 432 -9Q438 -15 449 -15ZM491 110Q486 90 476 52H455Q455 91 470 121Q472 119 480.5 115.5Q489 112 491 110Z"/>
</svg>