<svg xmlns="http://www.w3.org/2000/svg" viewBox="0 -2048 2048 2048">
	<path fill="#000000" d="M2100 178H100V-134Q99 -141 111 -141Q169 -141 262 -32L266 -613Q291 -753 402 -839Q499 -915 606 -915Q724 -915 817 -847Q920 -771 947 -639L950 -22Q982 -52 1015 -82Q1081 -141 1099 -141Q1122 -141 1181 -94Q1232 -53 1248 -32L1251 -603Q1262 -630 1280 -686Q1304 -783 1409 -853Q1504 -915 1586 -915Q1631 -915 1697 -896Q1771 -875 1812 -845Q1920 -764 1937 -613L1940 -22Q2015 -118 2100 -135ZM1911 3V-644Q1911 -637 1897 -691Q1875 -778 1763 -840Q1667 -894 1589 -894Q1541 -894 1465 -858Q1394 -824 1361 -790Q1346 -775 1311.5 -703Q1277 -631 1277 -622V3ZM2075 152V-104Q2005 -82 1928 30H1260Q1175 -110 1104 -110Q1074 -110 1021 -59Q982 -17 943 25H270Q250 -17 203 -58Q156 -99 122 -109V152ZM926 3V-634Q926 -636 912 -686Q888 -771 786 -835Q692 -894 609 -894Q522 -894 446 -848Q357 -795 321 -696Q292 -618 292 -628V3Z"/>
</svg>