<svg xmlns="http://www.w3.org/2000/svg" viewBox="25.9 -1520.1 2001.2 1896.2">
	<path fill="currentColor" d="M1953 -125Q1953 -35 1896 -35Q1856 -35 1845 -62Q1837 -81 1847 -147Q1855 -204 1822 -295Q1790 -381 1696 -493Q1595 -614 1523 -633Q1512 -640 1488 -647H1080V302H488V-645H100V-1446L773 -925L1438 -1431H1461V-739Q1463 -737 1469 -732Q1631 -718 1797 -516Q1833 -472 1876 -382Q1892 -348 1920 -264Q1953 -162 1953 -125ZM1928 -132Q1928 -247 1833 -413Q1733 -587 1624 -642Q1587 -663 1550 -683Q1499 -711 1478 -711H1462V-672Q1601 -662 1730 -496Q1838 -355 1867 -221Q1875 -185 1872 -157Q1864 -76 1864 -82Q1866 -55 1894 -55Q1928 -55 1928 -132ZM1440 -672V-1402L773 -895L125 -1402V-670H508V277H1055V-672Z"/>
</svg>