<svg xmlns="http://www.w3.org/2000/svg" viewBox="0 -2048 2048 2048">
	<path fill="currentColor" d="M2092 291H890V-828Q655 -812 493 -554Q358 -340 348 -122Q348 -112 343.5 -84.5Q339 -57 339 -52V130Q339 138 344 176Q349 214 349 236Q349 272 337 284H100V70Q100 72 114 -35Q147 -285 259 -493Q404 -760 646 -872Q696 -895 755 -910Q801 -920 893 -940V-1425H1155V-1208Q1154 -1207 1364 -1207V-1425H1634V-1209H1832V-1425H2092ZM2065 -937V-1398H1851V-1187H1607V-1398H1383V-1187H1133V-1398H917V-937ZM2065 267V-826H917V267ZM2065 -849V-908H871Q832 -908 734 -875Q660 -849 640 -839Q366 -700 228 -362Q121 -99 121 194Q121 265 122 261H322Q311 149 311 57Q311 -187 400 -431Q433 -522 520 -637Q562 -693 673 -769Q790 -849 844 -849Z"/>
</svg>