<svg xmlns="http://www.w3.org/2000/svg" viewBox="0 -2048 2048 2048">
	<path fill="#000000" d="M1937 -344Q1913 -322 1800 -300Q1696 -281 1626 -281L1026 -323Q1022 -308 1022 -280Q1022 -235 1037.5 -97.5Q1053 40 1053 94Q1053 138 1029 210Q1004 287 973 326Q965 329 957 329Q905 329 873 218Q849 135 849 60L881 -307Q734 -275 658 -275Q538 -275 475 -324Q452 -342 401 -415Q368 -464 320 -464Q314 -464 284 -458.5Q254 -453 247 -453Q198 -453 152 -477Q100 -504 100 -542Q100 -576 158 -612Q189 -629 220 -645Q210 -655 145 -716Q100 -757 100 -765Q100 -794 131 -794Q139 -794 196 -744Q280 -672 291 -663Q305 -677 367 -749Q415 -804 422 -804Q456 -804 456 -770Q456 -758 416 -711Q391 -683 367 -655Q401 -629 461 -573Q492 -536 523 -499Q569 -450 600 -448L911 -525Q904 -544 912 -601Q866 -614 824.5 -702Q783 -790 723 -805V-822Q723 -843 772 -860Q813 -868 902 -887V-910Q760 -943 709 -1015Q687 -1046 674 -1126Q667 -1184 648 -1298Q640 -1334 610 -1410Q582 -1481 582 -1485Q582 -1505 600 -1511Q640 -1492 658 -1457Q687 -1400 712 -1257Q735 -1127 771 -1076Q828 -998 961 -998Q1012 -998 1032 -1006Q920 -1067 896 -1086Q833 -1136 833 -1205Q833 -1259 875.5 -1306.5Q918 -1354 972 -1354Q1024 -1354 1057 -1321.5Q1090 -1289 1090 -1241Q1090 -1214 1073 -1190Q1052 -1160 1019 -1160Q1003 -1160 959 -1193V-1222L972 -1234Q985 -1221 995 -1221Q992 -1218 990 -1210.5Q988 -1203 985 -1200Q1000 -1186 1014 -1186Q1038 -1186 1055 -1206Q1069 -1224 1069 -1241Q1069 -1276 1034 -1306Q1002 -1333 972 -1333Q925 -1333 887 -1282Q854 -1238 854 -1202Q854 -1097 1025 -1038Q1080 -1019 1079 -1019Q1100 -1019 1127 -1043Q1153 -1064 1161 -1085Q1180 -1130 1205 -1240Q1230 -1350 1250 -1397Q1283 -1474 1338 -1500Q1362 -1500 1362 -1480Q1362 -1475 1336 -1435Q1308 -1391 1300 -1371Q1296 -1360 1265 -1170Q1244 -1036 1173 -974Q1230 -933 1328 -840Q1373 -783 1409 -712Q1406 -709 1399.5 -705.5Q1393 -702 1390 -699Q1359 -756 1318 -810Q1308 -823 1240 -885Q1163 -956 1147 -956Q1141 -956 1130 -946.5Q1119 -937 1114 -936Q1085 -928 1030 -918Q1029 -917 1016 -891Q1032 -881 1099 -867Q1156 -854 1178 -829Q1180 -814 1154 -800Q1119 -782 1115 -777Q1091 -751 1058 -674Q1034 -616 990 -602Q990 -593 992.5 -569.5Q995 -546 995 -536Q1051 -526 1166 -493Q1236 -463 1306 -434Q1424 -385 1485 -385H1908Q1920 -385 1937 -369ZM1324 -1463Q1278 -1423 1242 -1275Q1200 -1106 1156 -1039Q1140 -1015 1110 -1006Q1148 -987 1144 -987Q1167 -987 1198 -1044Q1223 -1090 1229 -1115Q1243 -1206 1258.5 -1299.5Q1274 -1393 1324 -1463ZM1116 -975Q1068 -993 1074 -993Q1067 -993 1012.5 -982.5Q958 -972 951 -972Q911 -972 850 -995Q783 -1020 760 -1049Q731 -1085 720 -1125Q709 -1165 700 -1205Q671 -1323 671 -1315Q671 -1310 680 -1251Q689 -1192 690 -1173Q703 -930 966 -930Q1003 -930 1051.5 -945Q1100 -960 1116 -975ZM995 -909H923V-888H988Q995 -895 995 -909ZM1147 -822Q1053 -862 946 -862Q782 -862 754 -817Q818 -785 856 -696Q886 -626 953 -626Q1017 -626 1049 -706Q1085 -799 1147 -822ZM963 -533V-599H935Q934 -590 936 -533ZM1906 -352L1464 -364Q1390 -373 1213 -445Q1052 -511 964 -511Q907 -511 766 -466.5Q625 -422 595 -422Q555 -422 462.5 -526.5Q370 -631 317 -631Q311 -631 292 -630Q270 -629 265 -629Q240 -628 189 -603Q126 -572 126 -537Q126 -480 239 -480Q247 -480 285 -485Q323 -490 328 -490Q373 -490 428 -416Q491 -331 536 -313Q563 -302 665 -302Q738 -302 747 -303Q801 -309 932 -330Q1051 -349 1055 -349L1613 -307Q1676 -307 1769 -320Q1870 -335 1906 -352ZM428 -765L423 -772L333 -665L339 -658ZM1027 91L994 -322Q938 -312 907 -306L875 65Q875 111 890 189Q912 300 946 300H963Q1027 173 1027 91ZM264 -652L134 -768L129 -761L258 -645ZM299 -580Q274 -568 258 -574L247 -587Q249 -589 256 -599Q263 -609 269 -615Q282 -615 299 -598Z"/>
</svg>