<svg xmlns="http://www.w3.org/2000/svg" viewBox="0 -2048 2048 2048">
	<path fill="currentColor" d="M1965 -99Q1780 103 1504 215Q1258 314 1020 314Q760 314 491 192Q217 69 100 -107H311V-1148L120 -1422H192L339 -1226Q352 -1240 496 -1422H573L396 -1170H968L791 -1422Q820 -1422 873 -1421Q919 -1356 1015 -1226Q1095 -1322 1167 -1422H1249L1062 -1170H1649L1462 -1422H1539L1691 -1226L1858 -1422H1945Q1733 -1163 1733 -1160V-115Q1814 -114 1965 -99ZM1891 -1398H1868L1691 -1186L1529 -1398H1506Q1684 -1159 1684 -1158V-111H1708V-1165Q1708 -1167 1891 -1398ZM1663 -879V-1141H1058V-879ZM1661 -111V-855H1058V-111H1169L1469 -387V-111ZM1200 -1398H1177L1015 -1186L863 -1398H840Q1008 -1152 1008 -1158V-111H1032V-1165Q1032 -1167 1200 -1398ZM982 -876V-1141H382V-876ZM1451 -112V-337L1215 -112ZM1920 -89H1052L1245 94L1037 288H1055Q1323 257 1493 194Q1735 103 1920 -89ZM982 -111V-855H382V-111H573V-354Q577 -356 586 -362L876 -111ZM529 -1398H506L344 -1186L182 -1398H164Q337 -1166 337 -1163V-111H361V-1160Q361 -1172 529 -1398ZM840 -112L594 -323V-112ZM1210 94L1015 -86L820 99L1005 279ZM983 288L786 99L983 -89H135Q455 248 983 288Z"/>
</svg>