<svg xmlns="http://www.w3.org/2000/svg" viewBox="22.8 -1176.2 2084.4 1413.4">
	<path fill="currentColor" d="M2030 -349Q2030 -270 1982 -189Q1925 -91 1837 -91H1492Q1513 -36 1533.5 19Q1554 74 1554 104Q1554 146 1537 156Q1530 160 1502 160Q1459 160 1453 138Q1442 60 1401 -91H343Q234 -91 162 -189Q100 -275 100 -372Q100 -446 146 -520Q199 -604 281 -624Q308 -629 358 -638L991 -642Q862 -767 862 -871Q862 -970 935 -1036Q1005 -1099 1101 -1099Q1185 -1099 1249 -1027Q1263 -1012 1278 -959.5Q1293 -907 1293 -905Q1293 -783 1139 -642L1818 -638Q1839 -631 1864 -629Q1955 -621 1999 -510Q2030 -434 2030 -349ZM2009 -359Q2009 -441 1973 -514Q1926 -613 1837 -612H1119Q1233 -516 1334 -375.5Q1435 -235 1478 -116H1847Q1878 -116 1931.5 -168.5Q1985 -221 1997 -260.5Q2009 -300 2009 -359ZM1533 104Q1533 60 1478 -61Q1443 -136 1408 -212Q1355 -344 1078 -620Q1267 -787 1267 -902Q1267 -963 1228 -1014Q1182 -1074 1106 -1074Q1019 -1074 956 -1021Q888 -964 888 -874Q888 -835 889 -830Q901 -771 926 -742Q966 -696 1156 -504Q1297 -362 1342 -286Q1410 -173 1439 -46Q1454 18 1478 134H1527Q1527 129 1530 120Q1533 111 1533 104ZM1389 -117Q1369 -170 1321 -268Q1283 -327 1265 -351Q1225 -403 1133 -501Q1027 -613 1008 -613H349Q268 -613 198 -545Q125 -474 125 -380Q125 -302 168 -215Q179 -193 240.5 -155Q302 -117 328 -117ZM1236 -905Q1236 -821 1191 -766Q1178 -749 1054 -638Q964 -719 933.5 -764.5Q903 -810 903 -869Q903 -932 966 -994Q1026 -1053 1080 -1053Q1087 -1053 1153 -1029Q1236 -999 1236 -905ZM1211 -897Q1211 -949 1175 -988Q1139 -1027 1083 -1027Q1057 -1027 1014 -1000Q968 -972 946 -939Q929 -914 929 -866Q929 -837 930 -830Q932 -814 951 -778Q959 -762 999 -719Q1044 -669 1060 -669Q1071 -669 1116 -713Q1154 -751 1162 -762Q1196 -812 1204 -845Q1211 -875 1211 -897Z"/>
</svg>