<svg xmlns="http://www.w3.org/2000/svg" viewBox="23.8 -984.2 2056.3 1163.3">
	<path fill="currentColor" d="M2004 -415Q2004 -287 1963 -241Q1935 -209 1883 -173Q1828 -136 1805 -136H1273Q1265 -111 1265 -95Q1265 1 1202 55Q1147 103 1064 103Q963 103 909 50Q851 -6 831 -136H341Q293 -136 182 -213Q126 -252 115 -319Q100 -409 100 -419Q100 -499 151 -570Q210 -652 307 -666Q310 -666 324 -671Q335 -674 341 -674H840Q836 -770 895.5 -839Q955 -908 1042 -908Q1243 -908 1265 -720Q1267 -704 1273 -674H1805Q1902 -674 1958 -581Q2004 -506 2004 -415ZM1245 -675V-725Q1245 -752 1215 -801.5Q1185 -851 1157 -859Q1056 -889 1042 -889Q1012 -889 967 -868Q916 -845 903 -816Q863 -729 863 -715V-675ZM1985 -417Q1985 -483 1947 -555Q1895 -651 1805 -651H341Q258 -651 191 -583Q123 -512 123 -419Q123 -373 130 -347Q143 -300 173 -256Q190 -231 247.5 -195Q305 -159 327 -159H1815Q1829 -159 1898 -207Q1952 -245 1968 -304Q1985 -367 1985 -417ZM1245 -89V-135H859V-86Q858 -45 893 7Q945 84 1064 84Q1096 84 1139 64Q1188 42 1209 11Q1246 -45 1245 -89Z"/>
</svg>