<svg xmlns="http://www.w3.org/2000/svg" viewBox="0 -2048 2048 2048">
	<path fill="#000000" d="M1542 -677H1099V-781H1443V-1340H205V-783H531V-677H100V-1455H1542ZM1010 291H934V-768Q925 -778 895 -790Q712 -863 535 -863Q514 -863 495 -862V-1110Q507 -1110 522 -1108Q537 -1106 542 -1106Q688 -1106 831.5 -1141Q975 -1176 967 -1176H1010ZM1522 -697V-1430H123V-697H509V-758H180V-1365H1463V-756H1119V-697ZM985 272V-1156Q716 -1081 581 -1081Q580 -1081 556 -1080Q535 -1080 520 -1080V-887Q618 -893 750 -859Q870 -829 959 -783V266Q981 266 985 272Z"/>
</svg>