<svg xmlns="http://www.w3.org/2000/svg" viewBox="28 -1554 1626.1 1945.1">
	<path fill="currentColor" d="M1582 -683H1126V-784H1481V-1364H208V-786H545V-683H100V-1482H1582ZM1008 -936Q971 -918 934 -843Q900 -773 900 -733L987 83Q987 162 986 172Q981 214 954 261Q945 277 909 298Q873 319 854 319Q784 319 745 216Q715 138 715 52L797 -746Q797 -799 762 -850Q748 -872 689 -936Q717 -964 760 -1024Q785 -1081 840 -1195Q878 -1172 912 -1091Q952 -994 1008 -936ZM1561 -703V-1456H123V-703H519V-766H182V-1390H1500V-763H1147V-703ZM951 -960Q923 -996 896 -1059Q873 -1112 851 -1164Q819 -1095 752 -960Q792 -969 836 -969Q895 -969 951 -960ZM967 88L879 -733Q879 -778 902 -834Q929 -898 967 -926Q864 -949 831 -949Q754 -949 731 -928Q772 -901 800 -838Q823 -786 823 -751L741 60Q741 138 766 204Q799 293 861 293Q967 293 967 88Z"/>
</svg>