<svg xmlns="http://www.w3.org/2000/svg" viewBox="0 -2048 2048 2048">
	<path fill="#000000" d="M1193 248H1102V-983Q1102 -1015 1040 -1137Q983 -1249 847 -1309Q738 -1358 627 -1358Q498 -1358 393 -1297Q266 -1224 214 -1079Q188 -1006 187 -979V248H100V-1012Q99 -1045 130 -1125Q133 -1134 171 -1198Q316 -1446 656 -1446Q806 -1446 937 -1369Q1091 -1279 1156 -1110Q1194 -1012 1193 -994ZM802 -1068Q802 -1031 785 -1006Q760 -970 655 -905Q574 -855 574 -792Q574 -763 616 -665Q654 -579 691 -493Q734 -384 734 -315Q734 -277 699 -114Q660 64 655 106Q649 160 651 195H628Q608 135 608 98L656 -306Q656 -376 619 -469Q586 -545 552 -620Q487 -773 487 -804Q487 -825 513 -865.5Q539 -906 561 -919Q574 -926 633 -969Q660 -987 687 -1004Q734 -1039 734 -1061Q734 -1084 696 -1106Q662 -1126 644 -1126Q638 -1126 614 -1116.5Q590 -1107 584 -1107Q550 -1107 511 -1123Q463 -1141 463 -1167Q463 -1192 518 -1212Q561 -1228 586 -1228Q637 -1228 713 -1182Q802 -1128 802 -1068ZM1169 223V-1008Q1169 -1015 1137 -1100Q1082 -1246 933 -1340Q798 -1426 664 -1426Q470 -1426 314 -1327Q261 -1294 181 -1169Q163 -1141 142 -1079Q120 -1010 120 -973V223H167V-1003Q168 -1046 219 -1142Q346 -1383 640 -1383Q776 -1383 909 -1309Q1006 -1255 1074 -1113Q1126 -1005 1126 -959V223ZM777 -1063Q777 -1110 705 -1159Q639 -1204 591 -1204Q564 -1204 529 -1191Q494 -1178 487 -1162Q523 -1126 586 -1126Q591 -1126 616.5 -1136Q642 -1146 647 -1146Q674 -1146 711 -1126Q758 -1099 758 -1061Q758 -1030 681 -973Q628 -936 575 -899Q511 -851 511 -802Q511 -766 566 -644Q633 -493 638 -479Q681 -349 681 -315L639 50Q710 -190 710 -311Q710 -392 675 -479Q626 -592 577 -704Q550 -771 550 -792Q550 -858 623 -909Q689 -953 755 -996Q777 -1015 777 -1063Z"/>
</svg>