<svg xmlns="http://www.w3.org/2000/svg" viewBox="27.1 -1554.9 1081.8 1940.8">
	<path fill="currentColor" d="M1036 313H914V-1096Q914 -1161 823 -1252Q735 -1340 664 -1358Q616 -1370 568 -1370Q351 -1370 240 -1152Q217 -1108 216 -1082V313H100V-1096Q99 -1112 133 -1215Q176 -1349 312 -1422Q424 -1483 550 -1483Q668 -1483 835 -1420Q934 -1383 996 -1215Q1037 -1104 1036 -1082ZM749 -1076Q749 -1057 743 -1047H621V-1011Q690 -994 707 -977.5Q724 -961 724 -915L645 -111L678 142Q678 314 557 314Q458 314 453 176L488 -111L406 -925Q406 -991 509 -1011V-1051H387Q387 -1056 384 -1069Q381 -1082 381 -1089Q381 -1172 444 -1221Q498 -1263 570 -1263Q649 -1263 702 -1200Q749 -1144 749 -1076ZM723 -1074Q700 -1164 674 -1196Q641 -1237 570 -1237Q469 -1237 434 -1180Q406 -1135 407 -1111V-1074ZM595 -1013V-1047H535V-1018ZM1015 288V-1046Q1015 -1092 998 -1143Q984 -1179 971.5 -1216.5Q959 -1254 923 -1306Q880 -1367 840 -1389Q794 -1414 701 -1436Q608 -1458 550 -1458Q443 -1458 340 -1408Q211 -1345 169 -1231Q125 -1111 125 -1111V288H191V-1066Q192 -1083 205 -1127Q246 -1261 360 -1334Q457 -1396 568 -1396Q662 -1396 755 -1339Q861 -1275 915 -1162Q938 -1114 939 -1086V288ZM703 -915Q703 -992 575 -992Q432 -992 432 -912L511 -85L478 183Q478 288 560 288Q652 288 652 140Q652 134 636.5 -2Q621 -138 621 -144Z"/>
</svg>