<svg xmlns="http://www.w3.org/2000/svg" viewBox="0 -2048 2048 2048">
	<path fill="currentColor" d="M1818 -212Q1817 -206 1806 -206Q1800 -206 1714 -218.5Q1628 -231 1622 -231Q1603 -231 1597 -219L1710 -72V-55Q1709 -49 1698 -49Q1698 -49 1527 -153Q1341 -266 1269 -303Q1242 -317 1081 -354Q1081 -345 1088.5 -324Q1096 -303 1096 -297Q1096 -291 1074 -225Q1046 -144 1037 -111Q1053 -96 1101 -94Q1144 -93 1155 -72V-51Q1139 -44 1109 -49Q1054 -57 1049 -57Q1010 -59 932 -54Q845 -49 853 -49Q848 -49 808 -54Q768 -59 762 -59Q756 -59 696 -51.5Q636 -44 630 -44Q624 -44 600 -56Q619 -86 672 -97Q715 -103 758 -109Q856 -266 856 -277Q856 -286 826 -348Q792 -417 766 -453Q763 -457 645 -552Q592 -594 545 -653Q483 -728 483 -775Q483 -789 491.5 -824Q500 -859 500 -876Q500 -924 450 -946Q423 -958 377 -958Q307 -957 301 -958Q301 -960 298.5 -967Q296 -974 296 -976Q343 -990 435 -1027Q451 -1045 479 -1068Q522 -1090 581 -1090Q682 -1090 740 -1031Q805 -960 870 -889Q887 -880 923 -857Q972 -823 1066 -744Q1159 -662 1253 -579Q1387 -467 1473 -438Q1526 -420 1673 -399Q1707 -394 1757 -391Q1763 -387 1774 -365Q1752 -348 1706 -347Q1648 -344 1636 -341L1818 -229ZM1979 201H1377V74H1857V-1207H228V72H698V201H100V-1345H1979ZM1749 -242Q1723 -256 1652 -302Q1594 -339 1589 -339H1433Q1344 -339 1192 -360Q915 -398 752 -536Q643 -629 623 -648Q541 -730 541 -786Q541 -859 649 -859Q699 -859 738 -846L734 -834L657 -835Q566 -835 566 -783Q566 -714 711 -597Q806 -520 881 -478Q1006 -408 1103 -394Q1319 -363 1514 -363L1735 -371Q1648 -376 1482 -414Q1385 -436 1243 -561Q1144 -650 1046 -739Q1024 -756 904 -842Q851 -878 773 -951Q689 -1070 588 -1070Q549 -1070 505 -1052Q448 -1029 448 -992Q448 -1001 455 -973Q486 -942 490 -938Q514 -908 515 -886Q509 -840 508 -763Q519 -704 558 -659Q612 -597 739 -507Q833 -445 1019 -319Q1030 -311 1039 -290Q1051 -296 1072 -306Q1042 -372 1042 -368Q1042 -375 1050 -383Q1094 -370 1152 -355Q1259 -337 1404 -251Q1634 -114 1650 -106Q1627 -137 1603 -168Q1572 -210 1572 -223Q1572 -245 1593 -250Q1611 -253 1629 -255ZM1957 181V-1325H125V181H678V97H208V-1232H1876V99H1401V181ZM914 -290V-307Q900 -391 797 -436L882 -285Q883 -286 884 -286Q893 -291 914 -290ZM1096 -70Q1065 -79 1012 -96Q1017 -151 1066 -274Q1042 -260 1023 -188Q1001 -107 981 -85Q1050 -85 1096 -70ZM1018 -265Q1018 -283 978 -316Q949 -337 921 -358Q923 -348 930 -325Q937 -302 939 -292L821 -100Q857 -88 863 -88Q901 -88 976 -115Q1018 -236 1018 -265ZM895 -264H877Q845 -203 773 -89Q767 -81 745 -81Q767 -81 811 -70Q806 -83 798 -105Q836 -165 895 -264ZM556 -973H528L517 -984Q517 -998 533 -1006H550Q556 -1008 556 -997Z"/>
</svg>