<svg xmlns="http://www.w3.org/2000/svg" viewBox="24.9 -1606.1 1300.2 2000.2">
	<path fill="currentColor" d="M1250 320H1130V-1038Q1129 -1062 1110 -1117Q1058 -1265 923 -1351Q806 -1426 681 -1426Q487 -1426 348.5 -1297Q210 -1168 210 -1002V320H100V-1080Q99 -1119 140 -1214Q278 -1532 665 -1532Q854 -1532 992 -1454Q1165 -1356 1220 -1150Q1251 -1036 1250 -1018ZM1065 320H255Q251 314 242 302Q303 275 427 217Q385 88 318 -151Q309 -191 323 -268Q319 -282 296 -331V-354L339 -350Q348 -348 348 -360V-721Q348 -746 334 -767Q327 -768 323 -763Q309 -719 278 -630H248Q248 -630 248 -701L254 -707Q248 -721 248 -736Q248 -763 275.5 -822.5Q303 -882 303 -916Q303 -937 296 -956Q298 -956 303 -959Q308 -962 316 -962Q337 -962 355 -929Q369 -903 369 -893Q369 -854 343 -811Q355 -800 372 -776Q390 -734 390 -670V-399Q390 -393 385 -380Q380 -367 380 -361Q380 -349 394 -340Q422 -323 430 -312Q559 -139 657 -22Q662 -30 663 -52L676 -290V-338Q655 -344 602 -337V-431Q602 -437 608 -464Q620 -515 640 -564Q642 -570 657 -591Q670 -609 670 -616Q670 -626 512 -771Q510 -773 438 -816Q464 -855 506.5 -881Q549 -907 591 -932Q530 -943 497 -942Q497 -943 494 -953.5Q491 -964 491 -970Q491 -979 511 -997Q531 -1015 541 -1015Q548 -1015 566 -1001.5Q584 -988 591 -988Q637 -988 691 -997Q669 -1007 666 -1063Q665 -1103 663 -1143Q662 -1149 638 -1191Q617 -1227 617 -1255Q617 -1331 686 -1331Q717 -1331 732 -1318Q738 -1313 798 -1225Q832 -1179 864.5 -1131.5Q897 -1084 897 -1046Q897 -1032 865 -965Q873 -957 881 -957Q939 -957 939 -1044Q939 -1067 932 -1090Q924 -1117 895 -1185Q871 -1243 871 -1250Q871 -1256 874 -1270Q877 -1284 877 -1289L902 -1282Q892 -1272 892 -1255Q892 -1252 919 -1185Q949 -1110 958 -1081Q960 -1074 960 -1041Q960 -936 884 -936Q865 -936 842 -951L834 -943Q847 -930 869 -921Q915 -901 962 -843Q1006 -789 1022 -738Q1050 -647 1050 -479Q1050 -331 1049 -340H965V197Q965 208 950 223Q989 251 1065 301ZM876 -1044Q876 -1077 842 -1130Q824 -1157 741 -1272Q717 -1305 686 -1305Q644 -1305 644 -1250Q644 -1246 665.5 -1202.5Q687 -1159 690 -1142Q689 -1109 692 -1049Q695 -1026 755 -985V-971L751 -967Q660 -973 596 -964L681 -965Q797 -963 826 -969Q844 -973 861 -1004Q876 -1031 876 -1044ZM569 -963Q545 -988 534 -988Q518 -972 518 -963ZM1024 -485Q1024 -628 1005 -699Q973 -821 875 -889Q823 -925 804 -924H787Q818 -851 818 -817Q818 -772 774 -709Q732 -656 690 -602Q662 -564 656 -548Q626 -463 628 -415V-361H674Q685 -468 698 -521Q704 -544 749 -582Q797 -624 828 -624Q903 -624 942 -514Q972 -430 966 -361H1022ZM791 -830Q791 -848 780 -880Q766 -918 748 -928Q734 -936 702 -936Q619 -936 485 -837Q526 -837 544 -831V-813Q535 -808 507 -813Q540 -780 602 -722.5Q664 -665 689 -640Q791 -761 791 -830ZM1224 293V-1034Q1225 -1068 1188 -1171Q1067 -1506 681 -1506Q530 -1506 400 -1448Q230 -1372 172 -1219Q121 -1084 121 -1059V293H189V-1039Q190 -1058 209 -1117Q266 -1291 404 -1377Q517 -1448 662 -1448Q839 -1448 988 -1333Q1156 -1203 1156 -1006V293ZM343 -888Q343 -897 329 -925Q330 -920 330 -914Q330 -896 315.5 -850.5Q301 -805 303 -788Q343 -868 343 -888ZM295 -754Q290 -754 281 -761L276 -730Q279 -733 285.5 -742Q292 -751 295 -754ZM1008 287Q976 265 918 227Q920 220 932 201Q944 182 944 176V-411Q944 -453 914 -517Q877 -598 828 -598Q810 -598 770 -570.5Q730 -543 724 -522Q709 -465 702 -395L696 -136Q685 -26 673 21Q671 25 663 25Q629 -27 537 -135Q418 -276 382 -276Q337 -276 337 -191Q337 -144 396 43Q442 190 459 232L327 287ZM406 -304Q357 -329 345 -328H322Q328 -315 339 -292Q391 -305 406 -304ZM654 -871Q654 -851 630 -851Q622 -851 615.5 -854.5Q609 -858 607 -858Q613 -864 601 -875Q604 -878 613 -884Q622 -890 625 -893Q639 -886 654 -871Z"/>
</svg>