<svg xmlns="http://www.w3.org/2000/svg" viewBox="0 -2048 2048 2048">
	<path fill="currentColor" d="M911 346H100V-1162Q112 -1173 158 -1173Q168 -1190 176 -1208Q157 -1220 157 -1240Q157 -1251 166 -1272L178 -1279Q157 -1322 157 -1383Q157 -1444 200 -1534Q250 -1434 250 -1367Q250 -1326 240 -1294Q236 -1288 229 -1275Q230 -1271 237 -1261Q244 -1251 244 -1245Q244 -1259 237 -1217L228 -1209Q234 -1197 244 -1173H301Q306 -1181 325 -1204Q324 -1207 318 -1210Q305 -1216 305 -1245Q305 -1252 320 -1269Q297 -1377 297 -1389Q297 -1416 315 -1457Q329 -1489 344 -1522Q368 -1511 387 -1465Q404 -1424 404 -1393Q404 -1335 376 -1272Q393 -1260 393 -1240Q393 -1226 379 -1206Q391 -1189 398 -1173H471Q478 -1186 486 -1207Q471 -1221 471 -1246Q471 -1252 478.5 -1263.5Q486 -1275 486 -1278Q486 -1284 475.5 -1308.5Q465 -1333 465 -1341Q465 -1423 510 -1536Q564 -1452 564 -1396Q564 -1341 544 -1280Q567 -1271 567 -1252Q567 -1231 540 -1209Q547 -1197 562 -1173H628Q633 -1185 644 -1209Q625 -1221 625 -1249Q625 -1257 643 -1278Q622 -1378 622 -1373Q622 -1433 667 -1535Q721 -1458 721 -1390Q721 -1338 693 -1281Q713 -1267 713 -1255Q713 -1238 695 -1208Q696 -1202 714 -1173H774Q782 -1187 791 -1210Q774 -1220 774 -1246Q774 -1253 788 -1279Q768 -1367 768 -1368Q768 -1447 817 -1535Q866 -1444 866 -1393Q866 -1353 856 -1314Q851 -1303 841 -1279Q861 -1269 861 -1259Q861 -1218 840 -1208Q847 -1196 860 -1173Q875 -1173 905 -1173H911ZM843 -1394Q843 -1438 818 -1486Q791 -1415 791 -1370Q791 -1354 810 -1287H820Q843 -1328 843 -1394ZM698 -1390Q698 -1431 672 -1487Q645 -1415 645 -1374Q645 -1370 662 -1287H671Q698 -1333 698 -1390ZM835 -1234V-1256Q820 -1261 816 -1261Q796 -1261 796 -1243Q796 -1225 817 -1225Q835 -1225 835 -1234ZM835 -1174Q822 -1200 816 -1200Q807 -1200 799 -1174ZM686 -1233V-1258Q680 -1261 672 -1261H667Q648 -1261 648 -1246Q648 -1225 669 -1225Q678 -1225 686 -1233ZM541 -1394Q541 -1440 513 -1487Q488 -1413 488 -1345Q488 -1344 507 -1287H522Q541 -1348 541 -1394ZM688 -1174L674 -1200H664L652 -1174ZM541 -1250Q541 -1263 526 -1263Q494 -1263 494 -1243Q494 -1225 512 -1225Q541 -1225 541 -1250ZM381 -1391Q381 -1446 353 -1486Q322 -1413 322 -1386Q322 -1356 339 -1284L360 -1282Q381 -1337 381 -1391ZM533 -1174Q528 -1183 518 -1200H507Q501 -1188 497 -1174ZM369 -1240Q369 -1258 349 -1258Q341 -1258 331 -1250V-1227Q334 -1225 339 -1220Q369 -1220 369 -1240ZM227 -1367Q227 -1433 202 -1483Q177 -1411 177 -1391Q177 -1387 196 -1287L195 -1286Q204 -1287 210 -1285Q227 -1323 227 -1367ZM373 -1174Q360 -1197 352 -1197Q346 -1197 329 -1174ZM221 -1245Q221 -1264 201 -1264Q179 -1264 179 -1239V-1234Q191 -1223 195 -1223Q221 -1223 221 -1245ZM219 -1174Q214 -1188 199 -1203Q194 -1191 185 -1174ZM890 321V-1147H125V321ZM845 285H167V-1106H845ZM820 260V-1080H192V260ZM774 229H693V-674Q642 -697 521 -714Q416 -729 342 -729Q321 -729 232 -713V-974Q233 -977 236 -987Q253 -987 288.5 -984Q324 -981 342 -981Q498 -981 592 -999Q603 -1001 648 -1016Q685 -1028 704 -1028H774ZM692 -696V-1002H690Q690 -1002 672 -996Q660 -992 621 -984Q495 -958 361 -958Q347 -958 256 -966V-741Q342 -752 339 -752Q330 -752 387 -748Q453 -744 583 -727Q622 -719 689 -697ZM750 205V-1002H718V205Z"/>
</svg>