<svg xmlns="http://www.w3.org/2000/svg" viewBox="0 -2048 2048 2048">
	<path fill="#000000" d="M2245 -89H1723V-203H2133V-1017H218V-205H631V-89H100V-1150H2245ZM1716 -230Q1679 -261 1596 -345Q1535 -178 1412 157L1414 174H945L760 -343L653 -240Q641 -240 632 -249Q656 -404 656 -403Q656 -403 632 -558L644 -569L763 -459Q782 -503 848 -572.5Q914 -642 955 -658Q964 -661 980 -661L910 -754V-792Q947 -806 943 -806Q960 -806 1001 -750Q1027 -713 1053 -676Q1090 -771 1174 -771Q1258 -771 1297 -677Q1329 -729 1379 -797Q1390 -806 1407 -806Q1415 -806 1426.5 -793.5Q1438 -781 1438 -773Q1438 -765 1367 -661Q1383 -662 1383 -662Q1402 -662 1433 -634Q1456 -613 1478 -592Q1569 -515 1591 -461L1716 -577Q1696 -402 1696 -399Q1696 -395 1716 -230ZM1415 -771Q1415 -783 1405 -783Q1396 -783 1313 -661H1339Q1415 -769 1415 -771ZM1690 -283Q1676 -405 1676 -399Q1676 -394 1690 -524Q1598 -439 1598 -433Q1598 -424 1602 -406.5Q1606 -389 1606 -380Q1606 -373 1601 -366ZM1278 -661Q1248 -745 1171 -745Q1102 -745 1073 -661ZM2221 -114V-1124H124V-114H606V-178H192V-1043H2159V-178H1748V-114ZM1568 -453Q1554 -499 1467 -572Q1393 -634 1391 -634H965Q950 -634 878 -570Q827 -525 786 -453ZM1035 -661Q955 -783 943 -783Q936 -783 936 -768Q936 -757 1006 -661ZM1584 -384Q1584 -389 1576 -427H777Q769 -399 769 -380L773 -374H1581Q1584 -379 1584 -384ZM1569 -348H784L960 151H1390ZM754 -434L662 -523Q679 -404 679 -403Q679 -403 662 -281Q692 -309 751 -367Q749 -384 749 -399Q749 -420 754 -434Z"/>
</svg>