<svg xmlns="http://www.w3.org/2000/svg" viewBox="25 -1594 1833 2025">
	<path fill="currentColor" d="M1260 -767H571V-793Q571 -922 680 -1014Q783 -1101 915 -1101Q1041 -1101 1148 -1012Q1260 -919 1260 -795ZM1783 355H1656V-754Q1656 -883 1564 -1043Q1362 -1394 880 -1394Q632 -1394 433 -1210Q230 -1022 230 -775V356H100V-767Q100 -964 215 -1147Q325 -1323 502 -1424Q669 -1519 979 -1519Q1213 -1519 1445 -1368Q1611 -1260 1701 -1066Q1783 -887 1783 -676ZM1517 233H1151V131H1414V-252H504V129H767V233H404V-358H1517ZM1234 -793V-795Q1234 -908 1129 -994Q1030 -1075 915 -1075Q794 -1075 698 -996Q597 -911 597 -793ZM1757 329V-676Q1757 -881 1678 -1054Q1592 -1242 1431 -1347Q1208 -1493 979 -1493Q676 -1493 516 -1401Q345 -1303 238 -1134Q126 -958 126 -767V330H204V-775Q204 -1032 415 -1228Q621 -1420 880 -1420Q1379 -1420 1587 -1056Q1682 -890 1682 -754V329ZM1492 208V-333H428V208H742V156H477V-278H1440V156H1176V208Z"/>
</svg>