<svg xmlns="http://www.w3.org/2000/svg" viewBox="24.1 -1598.9 2049.8 2013.8">
	<path fill="currentColor" d="M1217 -1154L1047 -933Q1122 -848 1152 -777Q1203 -657 1203 -559Q1203 -507 1178 -447Q1139 -353 1042 -353Q987 -353 962 -366Q863 -419 863 -593Q863 -631 891 -711Q917 -785 940 -824Q950 -840 1017 -933L837 -1155L852 -1169L1032 -953L1204 -1166ZM1998 339H1383V211H1864V-1385H229V210H706V339H100V-1523H1998ZM1829 -125Q1829 -96 1807 -54.5Q1785 -13 1761 3Q1758 5 1638 48Q1613 57 1609 57H1259V13Q1230 13 1175.5 31Q1121 49 1091 49Q1046 49 955.5 35.5Q865 22 820 22Q831 22 691 42Q650 48 574 48Q477 48 435 42Q379 34 393 34Q377 34 345.5 44Q314 54 298 54Q291 54 278 51Q265 48 258 48V-271H319Q327 -206 333 -180Q345 -128 368 -96H441Q451 -96 467 -100Q487 -105 493 -106Q577 -117 842 -183Q1061 -237 1191 -237Q1348 -237 1403 -212Q1421 -199 1457 -176H1494Q1499 -200 1508 -248Q1462 -273 1408 -297Q1436 -338 1450 -338Q1459 -338 1518 -271H1578Q1582 -284 1588 -329H1607Q1614 -329 1649 -301.5Q1684 -274 1698 -270Q1738 -259 1757 -250Q1790 -234 1804 -210Q1829 -168 1829 -125ZM1465 -295L1448 -312L1442 -306ZM1180 -562Q1180 -643 1134.5 -752.5Q1089 -862 1031 -915Q980 -850 938 -766Q888 -665 888 -601Q888 -375 1039 -375Q1129 -375 1160 -461Q1161 -464 1170 -507Q1180 -555 1180 -562ZM1803 -126Q1803 -148 1793 -171Q1792 -180 1786 -196Q1771 -222 1705 -243Q1704 -196 1698 -138Q1694 -128 1665 -125Q1667 -118 1667 -112Q1667 -67 1614 -67Q1584 -67 1561 -99H1284V31H1615Q1619 31 1648 21Q1687 13 1750 -17Q1803 -65 1803 -126ZM1973 313V-1497H125V313H681V236H202V-1408H1889V236H1408V313ZM1679 -149V-256Q1634 -287 1608 -303Q1604 -284 1594 -246H1531Q1525 -204 1505 -152Q1481 -150 1465 -150Q1459 -150 1414 -176Q1369 -202 1347 -205Q1285 -214 1209 -214Q1071 -214 849 -160Q581 -94 491 -83Q384 -70 383 -70Q363 -70 352 -78Q311 -109 301 -246H283V29Q292 31 298 31Q314 31 344 21Q374 11 390 11Q410 11 450 18Q490 25 510 25H600Q639 25 715 11.5Q791 -2 830 -2Q829 -2 912 7Q1082 26 1088 26Q1122 26 1174 11Q1250 -9 1258 -11V-125H1569Q1597 -90 1616 -90Q1639 -90 1640.5 -109.5Q1642 -129 1643 -148Q1687 -149 1679 -149ZM1652 -255Q1631 -219 1631 -201Q1631 -191 1639 -180Q1625 -171 1615 -171Q1604 -208 1604 -208Q1604 -223 1652 -255Z"/>
</svg>