<svg xmlns="http://www.w3.org/2000/svg" viewBox="0 -2048 2048 2048">
	<path fill="#000000" d="M2270 323H112V172L436 174Q406 117 384 18Q364 -76 364 -145Q364 -149 390 -344L443 -742Q438 -745 416 -748Q377 -753 359 -809Q345 -854 332 -898Q307 -946 278 -953Q237 -964 222 -976V-981Q222 -994 229 -1008Q254 -1056 436 -1065Q424 -1078 378 -1092Q332 -1106 301 -1139L285 -1156Q245 -1149 199 -1123Q170 -1106 114 -1035V-1065Q114 -1082 147 -1113Q177 -1140 198.5 -1150.5Q220 -1161 274 -1171Q241 -1234 231 -1270Q211 -1341 100 -1516L107 -1537L118 -1525Q122 -1528 127 -1528Q135 -1528 155 -1502Q191 -1462 226 -1421Q265 -1376 281 -1327Q287 -1304 303 -1260Q332 -1196 349 -1196Q367 -1196 516 -1240Q521 -1248 549 -1275Q565 -1289 565 -1325Q565 -1413 482 -1413Q416 -1413 416 -1350Q416 -1337 429.5 -1324.5Q443 -1312 456 -1312Q464 -1312 520 -1360Q496 -1289 457 -1289Q435 -1289 414 -1307Q393 -1325 393 -1347Q393 -1437 492 -1437Q588 -1437 588 -1320Q588 -1246 511 -1214Q442 -1196 372 -1178Q390 -1166 427 -1160.5Q464 -1155 489 -1135Q528 -1145 600 -1180Q646 -1214 668 -1299Q688 -1374 744 -1440Q776 -1477 841 -1551L860 -1535Q820 -1471 781 -1407Q733 -1330 725 -1269Q856 -1350 968 -1374Q1047 -1391 1077 -1391Q1286 -1391 1478 -1310Q1507 -1298 1565 -1271Q1571 -1272 1636 -1304Q1605 -1345 1605 -1410Q1605 -1475 1661 -1518Q1712 -1557 1779 -1557Q1855 -1557 1897 -1502.5Q1939 -1448 1939 -1407Q1939 -1348 1906 -1300Q1928 -1292 1972 -1276Q2081 -1234 2144 -1118Q2201 -1013 2201 -984V173H2270ZM2175 172V-990Q2175 -1012 2128 -1100Q2062 -1224 1926 -1269Q1912 -1272 1887 -1282Q1878 -1288 1878 -1297Q1916 -1359 1916 -1406Q1916 -1440 1881 -1487Q1846 -1534 1779 -1534Q1732 -1534 1690 -1511Q1643 -1484 1632 -1442Q1627 -1417 1627 -1384Q1627 -1357 1646 -1328.5Q1665 -1300 1665 -1298Q1665 -1290 1654 -1285Q1612 -1270 1535 -1226Q1476 -1178 1448 -1127Q1431 -1096 1400 -1005Q1395 -990 1395 -986V172ZM1541 -1257Q1315 -1368 1102 -1368Q890 -1368 719 -1238Q712 -1205 674.5 -1154Q637 -1103 608 -1093Q588 -1090 568 -1086Q539 -1080 539 -1068V-1060Q547 -1061 589 -1059Q661 -1111 816 -1197Q945 -1251 1030 -1267Q1046 -1270 1058 -1270Q1191 -1270 1266 -1253Q1325 -1239 1463 -1183Q1510 -1237 1541 -1257ZM775 -1443Q748 -1414 708 -1354Q696 -1303 651 -1207Q611 -1152 570 -1144Q522 -1135 501 -1115Q502 -1099 504 -1067L517 -1065Q522 -1088 529 -1101Q557 -1104 606 -1117Q664 -1147 692 -1221Q702 -1272 732 -1370Q741 -1392 775 -1443ZM979 -699Q903 -730 872.5 -773Q842 -816 845 -841L854 -929Q830 -878 830 -817Q830 -736 954 -673ZM324 -1188Q283 -1244 260 -1312Q232 -1394 164 -1460Q190 -1420 234 -1335Q249 -1281 294 -1179ZM1446 -1164Q1264 -1243 1220 -1243H1028Q1012 -1243 930 -1215Q854 -1190 829 -1178Q730 -1132 622 -1053Q745 -1022 745 -998Q745 -981 697 -952Q642 -918 632 -902Q629 -897 604 -803Q590 -752 526 -742Q550 -571 589 -227Q597 -139 597 -143Q597 112 528 172H1033Q1019 156 1019 104Q1019 53 1075 23Q1124 5 1174 -14Q1236 -38 1296 -54Q1221 -109 1188 -151Q1178 -162 1160 -186Q1148 -208 1137 -257Q1133 -285 1129 -313.5Q1125 -342 1107 -366Q1042 -358 1034 -358Q1023 -358 1002.5 -362Q982 -366 971 -366Q953 -366 919.5 -354.5Q886 -343 868 -343Q847 -343 833 -347Q812 -353 781 -375Q745 -400 745 -417Q745 -427 749 -440L746 -443Q746 -448 748 -452Q748 -456 747 -461.5Q746 -467 746 -470Q746 -488 772 -509Q793 -524 814 -538Q830 -550 855 -583Q874 -608 914 -628Q929 -633 944 -654Q807 -720 807 -822Q807 -937 872 -1001H886L867 -843Q865 -823 890 -786Q904 -766 1002 -709Q1050 -718 1037 -718Q1056 -718 1111 -698Q1186 -734 1211 -813Q1228 -889 1245 -966L1247 -968Q1250 -977 1262 -975Q1281 -900 1281 -890Q1281 -750 1216 -682Q1217 -683 1220 -683Q1275 -683 1295 -667Q1285 -656 1266 -632Q1289 -632 1369 -615V-978Q1369 -1008 1398 -1074Q1424 -1135 1446 -1164ZM481 -1067V-1074Q481 -1120 459 -1129Q429 -1136 399 -1142Q392 -1144 341 -1170Q331 -1169 309 -1160Q345 -1114 435 -1101Q446 -1086 455 -1066ZM1368 173V123H1223Q1223 104 1232 94Q1284 74 1368 58V-592Q1315 -605 1313 -605H1240L1231 -595Q1161 -579 1172 -579L1170 -586L1165 -584L1163 -585Q1170 -597 1198 -606Q1226 -615 1257 -657Q1226 -660 1224 -660Q1212 -660 1186 -635Q1167 -617 1149 -600Q1141 -607 1141 -615Q1141 -619 1156 -639L1146 -637Q1144 -642 1138 -641Q1140 -644 1184 -682Q1258 -745 1258 -886Q1258 -893 1255 -903Q1249 -862 1224 -783Q1191 -718 1154 -696.5Q1117 -675 1116 -670Q1109 -650 1101 -639L1088 -653Q1090 -658 1099 -681Q1072 -695 1039 -695Q997 -695 970 -657Q959 -638 921 -605Q902 -597 861 -559Q853 -547 834 -527Q768 -473 768 -469Q768 -452 798 -424Q825 -398 844 -392Q853 -389 871 -389Q878 -389 890 -394Q902 -399 909 -399Q920 -399 931 -391Q919 -382 902 -374Q972 -389 970 -389Q982 -389 1004.5 -384.5Q1027 -380 1039 -380Q1112 -380 1153 -401Q1173 -419 1215 -452Q1222 -446 1223 -439L1221 -434Q1201 -414 1181 -394Q1156 -373 1131 -371Q1156 -333 1156 -276Q1156 -170 1301 -79Q1287 -143 1287 -206Q1287 -214 1291 -292Q1296 -303 1309 -302Q1310 -296 1310 -198Q1310 -134 1332 -44Q1255 -19 1103 37Q1042 63 1042 114V122Q1042 148 1071 173ZM1368 97V83Q1349 88 1314 97ZM870 -367Q838 -368 769 -420V-415Q824 -366 866 -366Q867 -366 870 -367ZM2245 298V199H137V298ZM719 -992V-998Q628 -1042 469 -1042Q323 -1042 250 -998L246 -988Q269 -982 312 -960Q345 -935 368 -853Q389 -780 416 -771Q430 -769 445.5 -766Q461 -763 466 -750L387 -141Q387 -101 403 -8Q421 90 435 119Q443 133 457 162Q471 170 479 170Q528 170 555 50Q574 -34 574 -107Q574 -115 573 -131.5Q572 -148 572 -156Q572 -160 573 -167.5Q574 -175 574 -179Q574 -182 568 -236Q563 -287 552 -389Q546 -439 500 -763Q562 -762 585 -811Q590 -847 613 -916Q629 -944 660 -962Q689 -977 719 -992ZM1076 -522Q1068 -524 1045 -535L1040 -531Q1035 -530 1026 -532L1010 -529L994 -548Q1018 -555 1028 -571Q1062 -555 1076 -522ZM905 -446H836Q836 -431 827 -413Q820 -427 812 -455Q817 -462 832 -462Q855 -462 905 -446Z"/>
</svg>