<svg xmlns="http://www.w3.org/2000/svg" viewBox="3.3 -1082.7 2611.4 1104.4">
	<path fill="currentColor" d="M2518 -148Q2518 -118 2496.5 -96.5Q2475 -75 2445 -75Q2424 -75 2376 -100V-101Q2365 -99 2339 -75H2048Q2039 -98 2039 -109Q2039 -131 2062.5 -143Q2086 -155 2132 -164Q2193 -175 2205 -178Q2235 -187 2269 -208Q2313 -234 2313 -256Q2313 -277 2304 -296Q2290 -313 2264 -347Q2222 -415 2136 -549Q2091 -618 2057 -706Q2047 -666 2020 -590Q1976 -497 1877 -350Q1846 -319 1809 -253Q1808 -247 1808 -234Q1808 -220 1811.5 -192Q1815 -164 1815 -150Q1815 -121 1792 -99.5Q1769 -78 1739 -78Q1721 -78 1696.5 -89.5Q1672 -101 1668 -101Q1649 -101 1627 -88Q1605 -75 1600 -75H1348Q1350 -82 1350 -119Q1350 -149 1431 -158Q1504 -166 1571 -207Q1643 -251 1675 -312Q1680 -322 1711 -409Q1817 -708 1908 -831L1584 -833Q1511 -773 1451 -773Q1416 -773 1379 -789Q1338 -808 1326 -837Q1311 -773 1202 -773Q1159 -773 1071 -833L927 -831Q1065 -654 1155 -443Q1177 -373 1228 -235Q1229 -233 1252 -191Q1270 -159 1270 -149Q1270 -75 1194 -75Q1173 -75 1124 -100Q1107 -98 1089 -75H792Q792 -80 790.5 -91Q789 -102 789 -108Q789 -128 808 -141Q814 -145 867 -155Q1063 -192 1063 -260Q1063 -283 984 -402Q933 -477 882 -552Q858 -590 807 -705Q793 -656 754 -563Q679 -427 624 -347Q602 -322 581 -296Q557 -266 557 -235Q557 -221 560 -192.5Q563 -164 563 -150Q563 -124 544.5 -101Q526 -78 501 -78Q480 -78 451 -89.5Q422 -101 415 -101Q395 -101 374.5 -88Q354 -75 350 -75H103Q103 -83 101.5 -99Q100 -115 100 -124Q100 -148 133 -154Q158 -156 184 -158Q228 -163 276 -187Q401 -250 438 -340Q466 -428 529 -591Q585 -714 656 -831H243V-920H1076Q1097 -945 1143 -965.5Q1189 -986 1222 -986Q1246 -986 1280 -967Q1314 -948 1326 -928Q1338 -951 1373 -968.5Q1408 -986 1436 -986Q1468 -986 1514.5 -965Q1561 -944 1579 -920H2412V-832H2177Q2237 -774 2336 -588Q2433 -406 2454 -318Q2457 -303 2464 -274Q2468 -262 2495 -210Q2518 -167 2518 -148ZM2387 -858V-898H1570Q1510 -961 1437 -961Q1398 -961 1367 -937Q1336 -913 1336 -875Q1336 -857 1358.5 -833.5Q1381 -810 1400 -804Q1430 -795 1451 -795Q1473 -795 1517.5 -817.5Q1562 -840 1572 -858ZM2495 -149Q2495 -155 2462 -218Q2450 -241 2442 -270Q2389 -463 2253 -687Q2165 -832 2142 -832H1932Q1919 -812 1894 -770Q1875 -730 1835 -650Q1822 -628 1800 -583Q1776 -517 1726 -386Q1720 -365 1705 -325Q1683 -273 1644 -236Q1561 -158 1445 -139Q1422 -138 1386 -131Q1377 -127 1373 -118L1375 -101H1603Q1603 -101 1628 -112Q1653 -123 1669 -123Q1675 -123 1696 -113Q1717 -103 1737 -103Q1795 -103 1795 -156Q1795 -169 1789 -193Q1783 -217 1783 -230Q1783 -246 1790 -267.5Q1797 -289 1820 -315Q1852 -352 1857 -360Q1910 -439 2002 -604Q2011 -648 2041 -729Q2048 -742 2066 -741Q2133 -584 2281 -360Q2300 -340 2328 -299Q2335 -283 2335 -256Q2335 -178 2135 -136Q2062 -121 2062 -108Q2062 -107 2064 -101H2334Q2365 -123 2378 -123Q2388 -123 2406 -110.5Q2424 -98 2445 -98Q2495 -98 2495 -149ZM1313 -877Q1313 -876 1307 -918Q1256 -964 1219 -964Q1136 -964 1085 -898H265V-858H1082Q1140 -795 1202 -795Q1313 -795 1313 -877ZM1248 -148Q1248 -157 1233 -181Q1213 -213 1212 -215Q1189 -287 1136 -429Q1074 -576 945 -772Q905 -833 894 -833H679Q633 -752 550 -585Q521 -498 457 -326Q406 -203 261 -156Q199 -136 155 -134Q122 -133 122 -118Q122 -109 124 -101H353Q353 -101 376 -112Q399 -123 416 -123Q424 -123 447.5 -113Q471 -103 489 -103Q538 -103 538 -162Q538 -175 535.5 -200Q533 -225 533 -238Q533 -268 559 -302Q581 -329 604 -357Q708 -505 749 -601Q761 -640 773 -679Q791 -734 812 -743Q827 -709 858 -641Q869 -617 985 -440Q1088 -282 1088 -260Q1088 -210 1008 -178Q990 -169 953 -153Q894 -142 822 -123Q810 -116 812 -101H1083Q1106 -123 1127 -123Q1133 -123 1155.5 -110.5Q1178 -98 1194 -98Q1248 -98 1248 -148Z"/>
</svg>