<svg xmlns="http://www.w3.org/2000/svg" viewBox="24 -1615 1912.9 2050.9">
	<path fill="currentColor" d="M1490 -982Q1490 -955 1446 -887Q1380 -785 1294 -734Q1119 -629 960 -629Q751 -629 570 -764Q532 -792 474 -862Q407 -942 407 -995V-1042Q415 -1037 429 -1037Q435 -1037 443 -1036Q475 -991 549 -912Q629 -848 653 -841Q748 -895 785 -910Q851 -935 933 -935Q1063 -935 1158 -880Q1162 -878 1191 -856.5Q1220 -835 1222 -835Q1230 -835 1267 -860Q1357 -921 1425 -1002Q1453 -1035 1460 -1035Q1470 -1035 1482 -1026Q1490 -969 1490 -982ZM1861 359H1735V-779Q1735 -781 1730 -803Q1719 -861 1687 -974Q1621 -1157 1430 -1285Q1239 -1413 1043 -1413Q852 -1413 761 -1397Q553 -1361 394 -1182Q231 -1000 231 -791V359H100V-779Q100 -803 114 -869Q158 -1074 242 -1202Q332 -1340 504 -1442Q667 -1539 1044 -1539Q1166 -1539 1322 -1483Q1579 -1391 1720 -1187.5Q1861 -984 1861 -710ZM1546 -543Q1546 -534 1519 -497Q1487 -454 1484 -449Q1439 -363 1419 -184Q1398 5 1364 84Q1335 152 1229.5 213Q1124 274 1112 300Q1107 320 1095 360H813Q810 351 803 326Q793 287 757 261Q719 238 642 192Q549 135 519 16Q515 -15 505 -76Q491 -178 477 -279Q457 -399 409.5 -469.5Q362 -540 362 -543Q362 -554 373 -561Q415 -552 464 -494Q509 -441 522 -395Q533 -357 590 -86Q594 -65 603 -23Q630 74 711 108Q736 119 857 139Q936 152 954 196Q973 155 1091 135Q1219 114 1270 49Q1292 21 1323 -112Q1335 -167 1360 -278Q1365 -306 1376 -362.5Q1387 -419 1429.5 -478.5Q1472 -538 1523 -564Q1546 -562 1546 -543ZM1464 -987Q1464 -1002 1461 -1009Q1310 -823 1114 -767Q1095 -760 1055 -751Q1028 -747 954 -747Q881 -747 853 -751Q577 -791 432 -1015V-980Q432 -970 453 -932Q462 -916 544 -824Q558 -808 589 -779Q762 -652 960 -652Q1037 -652 1141 -685Q1343 -749 1431 -905Q1464 -963 1464 -987ZM1200 -824Q1087 -912 932 -912Q827 -912 678 -829Q797 -770 954 -770Q1120 -770 1200 -824ZM1835 333V-710Q1835 -976 1699 -1172Q1563 -1368 1313 -1458Q1160 -1513 1044 -1513Q675 -1513 518 -1420Q342 -1316 251 -1168Q170 -1036 130 -820Q126 -798 126 -779V333H205V-791Q205 -1009 374 -1199Q539 -1384 757 -1423Q847 -1439 1043 -1439Q1250 -1439 1444 -1307Q1638 -1175 1711 -983Q1761 -852 1761 -779V333ZM1515 -532Q1476 -510 1427 -434Q1408 -405 1388 -304Q1373 -235 1343 -97Q1328 -28 1325 -15Q1311 33 1290 61Q1251 113 1180 138Q1141 152 1046 168Q1028 169 998 178Q982 188 975 206Q965 232 965 323V334H1081Q1093 263 1199 202Q1316 135 1345 67Q1354 45 1368 1Q1384 -119 1401 -238Q1424 -397 1465 -461Q1482 -484 1515 -532ZM942 334V319Q942 230 933 206Q926 188 913 179Q900 170 847 161Q745 143 720 135Q651 112 617 61Q594 26 584 -9Q560 -135 502 -383Q477 -473 402 -525Q474 -423 490 -329Q502 -245 528 -76Q534 -32 563 61Q570 79 588 113Q613 147 707 202Q797 255 816 290Q824 304 826 334Z"/>
</svg>