<svg xmlns="http://www.w3.org/2000/svg" viewBox="0 -2048 2048 2048">
	<path fill="#000000" d="M916 353H449V-1110L630 -977Q630 -993 631 -1027Q631 -1059 631 -1076Q631 -1102 623 -1111Q588 -1150 340 -1200Q314 -1204 263 -1215Q151 -1248 122 -1316Q100 -1367 100 -1390Q100 -1393 105 -1415Q136 -1553 265 -1553Q360 -1553 395 -1473Q410 -1438 410 -1433Q410 -1290 292 -1290Q251 -1290 218.5 -1317.5Q186 -1345 186 -1385Q186 -1412 218 -1436Q246 -1457 276 -1463Q211 -1409 211 -1392Q211 -1350 232 -1333Q257 -1313 277 -1313Q341 -1313 364 -1340Q387 -1367 387 -1432Q387 -1454 367 -1481.5Q347 -1509 327 -1518Q299 -1530 265 -1530Q207 -1530 166.5 -1490.5Q126 -1451 126 -1393Q126 -1283 259 -1240Q301 -1232 384.5 -1214Q468 -1196 528 -1176Q551 -1167 596 -1150L530 -1244Q587 -1332 649 -1425Q652 -1428 673 -1436L802 -1247L712 -1104L834 -1057Q883 -1086 916 -1109ZM771 -1258L667 -1410L567 -1258ZM810 -1043Q761 -1061 709 -1085V-976ZM765 -1230H568Q582 -1211 650 -1109V-968H685V-1105ZM892 -222V-1066Q838 -1030 784 -994Q700 -940 679 -940Q642 -940 635 -943Q605 -956 553 -999Q513 -1032 473 -1064V-222ZM892 328V-198H472V328Z"/>
</svg>