<svg xmlns="http://www.w3.org/2000/svg" viewBox="0 -2048 2048 2048">
	<path fill="#000000" d="M2036 357H1413V197H1870V-1363H260V197H717V357H100V-1539H2036ZM1470 -1229Q1470 -1187 1424 -1131Q1378 -1075 1382 -1041L1408 -816Q1408 -814 1403 -776Q1394 -707 1386 -637Q1374 -558 1351 -502Q1308 -408 1265 -315Q1218 -203 1218 -116Q1218 -26 1259 89Q1291 179 1291 172Q1291 185 1277 196.5Q1263 208 1250 208Q1226 208 1191 183Q1127 73 1127 -61Q1127 -72 1130.5 -95Q1134 -118 1134 -129Q1134 -159 1106 -159Q1053 -159 1034 -93Q1004 11 1002 14H911Q905 -48 871 -107Q830 -180 777 -180H674Q721 -502 777 -611Q842 -737 1079 -936Q1138 -980 1243 -1079Q1262 -1102 1263 -1170Q1264 -1245 1278 -1273Q1303 -1324 1385 -1331Q1423 -1318 1452 -1305Q1470 -1260 1470 -1229ZM2011 332V-1513H125V332H692V223H234V-1390H1897V223H1438V332ZM1444 -1229Q1444 -1251 1431 -1286Q1406 -1297 1382 -1305Q1318 -1299 1300 -1259Q1289 -1235 1289 -1163.5Q1289 -1092 1262 -1061Q1216 -1008 1014 -843Q861 -718 794 -589Q746 -496 704 -206H777Q838 -206 884 -137Q921 -82 934 -12H987Q1003 -70 1019 -128Q1042 -187 1112 -185Q1160 -167 1160 -129Q1160 -118 1156.5 -95Q1153 -72 1153 -61Q1153 64 1211 165Q1234 182 1250 182Q1256 182 1263 173Q1192 -1 1192 -116Q1192 -220 1265 -381Q1349 -566 1362 -641Q1380 -743 1380 -809Q1380 -851 1369 -924Q1358 -1005 1356 -1038V-1042Q1354 -1086 1399 -1140Q1444 -1194 1444 -1229Z"/>
</svg>