<svg xmlns="http://www.w3.org/2000/svg" viewBox="23.6 -1609.4 2062.8 2028.8">
	<path fill="currentColor" d="M2010 343H1397V188H1848V-1359H258V187H708V343H100V-1533H2010ZM1458 109Q1458 141 1448 179Q1390 136 1353 -19V-4Q1353 15 1361 52.5Q1369 90 1369 109Q1369 104 1347 178Q1331 165 1297 145Q1230 173 1181 173L1184 160Q1158 168 1136 168V152Q1136 123 1194 103Q1202 65 1202 28Q1202 -18 1155 -68Q1154 -40 1144 13Q1142 18 1133.5 33Q1125 48 1125 57Q1125 63 1127.5 76Q1130 89 1130 95Q1130 126 1090 148Q1056 163 1023 177L1014 152Q990 160 943 177L949 159L903 179Q916 133 943 117Q975 97 981 85Q999 53 999 -43Q999 -68 1006.5 -118Q1014 -168 1014 -193Q981 -258 920 -389Q911 -334 888 -314L860 -324L784 -149H845V-84H792L897 137L874 148L763 -84H736L626 148L602 137L707 -84H654V-149H720L646 -319L600 -297Q575 -414 575 -419Q575 -454 592 -530Q601 -526 645 -507Q674 -544 721 -552L734 -570Q712 -572 669 -577L701 -595L667 -603Q713 -655 803 -676Q817 -679 959 -699Q978 -725 999 -769Q984 -793 995 -848L962 -859Q983 -989 1090 -1071Q1090 -1096 1047 -1099Q1064 -1098 986 -1098Q941 -1098 918 -1120Q899 -1108 860 -1089L835 -1099Q862 -1139 881 -1150Q905 -1163 959 -1166Q922 -1171 908 -1184Q914 -1257 962 -1257Q970 -1257 993.5 -1255Q1017 -1253 1032 -1253Q1108 -1308 1138 -1320Q1183 -1339 1263 -1339Q1407 -1339 1407 -1080Q1407 -1054 1403 -1003.5Q1399 -953 1399 -927Q1399 -754 1428.5 -409Q1458 -64 1458 109ZM1136 -1235L1122 -1245L1108 -1235L1122 -1226ZM1296 -1265H1292Q1267 -1253 1254 -1252Q1234 -1266 1213 -1280Q1195 -1291 1163 -1291H1157Q1171 -1281 1189 -1267L1176 -1254Q1147 -1270 1131 -1270L1121 -1269V-1263Q1135 -1264 1182 -1232Q1167 -1226 1138 -1212Q1113 -1214 1064 -1217Q1078 -1248 1108 -1260L1106 -1265Q1080 -1258 1048 -1238Q1034 -1230 958 -1230L975 -1213Q949 -1213 933 -1211Q940 -1226 952 -1235H934Q929 -1224 929 -1204L931 -1192L983 -1193Q1111 -1194 1111 -1153Q1111 -1127 1080 -1121Q1091 -1110 1110 -1085Q1169 -1128 1186 -1152Q1209 -1194 1233 -1236Q1253 -1237 1274.5 -1240Q1296 -1243 1296 -1265ZM1074 -1164L1049 -1166L1057 -1149ZM1045 -1166L1023 -1168L1031 -1148ZM1021 -1168L997 -1170L1007 -1150ZM1069 -1129L1038 -1133L1007 -1135L1015 -1117H1025L1037 -1133L1047 -1117L1058 -1116ZM992 -1170H977L981 -1146ZM1003 -1136H975L986 -1118H995ZM973 -1137H953L956 -1120L964 -1118ZM967 -1146Q960 -1151 946 -1151Q900 -1151 856 -1110Q914 -1140 967 -1146ZM1435 134L1375 -936Q1375 -958 1381 -1001Q1387 -1044 1387 -1067Q1387 -1316 1258 -1316Q1241 -1316 1193 -1310Q1245 -1300 1257 -1276Q1280 -1289 1290 -1289Q1309 -1289 1322 -1276L1323 -1266Q1323 -1238 1297 -1223Q1271 -1208 1243 -1211Q1215 -1140 1110 -1054Q1013 -975 986 -874L1003 -873Q1036 -954 1097 -1007Q1166 -1066 1247 -1066Q1358 -1066 1358 -897Q1358 -861 1347.5 -791Q1337 -721 1337 -685Q1337 -652 1344 -587Q1351 -522 1351 -489Q1351 -448 1336.5 -369Q1322 -290 1322 -250Q1324 -244 1370 -43Q1406 116 1435 134ZM1984 317V-1507H126V317H682V213H232V-1385H1874V214H1423V317ZM1347 109Q1347 22 1314.5 -56.5Q1282 -135 1282 -138Q1282 -194 1305.5 -303.5Q1329 -413 1329 -469Q1329 -506 1319.5 -580.5Q1310 -655 1310 -692Q1310 -733 1323.5 -813.5Q1337 -894 1337 -935Q1337 -1043 1245 -1043Q1163 -1043 1087.5 -966.5Q1012 -890 1011 -807L1023 -796Q1044 -797 1087 -855L1100 -857L1101 -853Q1101 -834 1053 -783Q998 -724 989 -704H1010Q1060 -704 1079 -714Q1081 -717 1128 -819Q1158 -883 1193 -914L1200 -899Q1166 -829 1091 -692Q998 -688 817 -658Q787 -643 724 -620L727 -607L767 -620L746 -594L776 -610L763 -583L806 -590L784 -571Q810 -566 812 -566Q832 -566 858.5 -584Q885 -602 896 -602H1125Q1166 -618 1209 -710Q1238 -777 1268 -844L1281 -829Q1244 -741 1208 -653Q1180 -600 1128 -587Q1087 -576 934 -573Q925 -509 925 -495Q925 -429 978.5 -311.5Q1032 -194 1083 -155Q1075 -179 1063 -229L1071 -241L1074 -243L1094 -187Q1104 -158 1171 -82Q1229 -14 1229 19Q1229 75 1214 118L1232 103L1247 116L1233 133L1248 140Q1264 132 1298 119L1307 122L1316 130L1341 126Q1347 109 1347 109ZM1345 -57L1316 -200Q1304 -137 1304 -138Q1304 -112 1345 -57ZM916 -576Q897 -576 862.5 -560Q828 -544 808 -544Q810 -543 847 -516Q862 -520 896 -532L903 -514Q907 -535 916 -576ZM902 -419Q902 -436 895 -462Q885 -496 884 -504L858 -498Q878 -443 878 -437Q878 -423 860 -346L885 -342Q902 -393 902 -419ZM855 -435Q855 -475 824 -504Q793 -533 753 -533Q644 -533 644 -420Q644 -372 741 -149H762Q792 -219 821 -289Q855 -373 855 -435ZM1132 -74Q1132 -89 1090 -123Q1040 -163 1035 -170Q1032 -96 1028 -21Q1022 76 991 112H997Q1008 112 1010 118Q1011 121 1009 127L1013 130Q1023 123 1045 110L1049 125L1045 136L1056 140L1102 114Q1103 110 1103 53Q1103 34 1117.5 -8.5Q1132 -51 1132 -74ZM1205 131H1195V141ZM640 -340V-346Q640 -357 629 -381.5Q618 -406 618 -420Q618 -452 633 -488L605 -498Q598 -420 598 -420Q598 -406 615 -328ZM822 -110V-123H680V-110Z"/>
</svg>