<svg xmlns="http://www.w3.org/2000/svg" viewBox="0 -2048 2048 2048">
	<path fill="currentColor" d="M452 -1290Q323 -1137 323 -1023Q323 -929 343 -790Q359 -674 376 -558Q381 -499 392 -381Q433 17 433 132Q433 442 276 442Q119 442 119 132Q119 17 160 -381Q165 -440 176 -558Q193 -674 209 -790Q229 -929 229 -1023Q229 -1137 100 -1290L102 -1311Q195 -1395 217 -1430Q246 -1477 261 -1585H291Q306 -1477 335 -1430Q357 -1395 450 -1311ZM425 -1299Q359 -1360 333 -1392Q284 -1451 276 -1507Q264 -1425 127 -1299Q255 -1146 255 -1023Q255 -928 235 -788Q219 -672 202 -555Q197 -496 186 -378Q145 1 145 132Q145 416 276 416Q407 416 407 132Q407 1 366 -378Q361 -437 350 -555Q333 -672 317 -788Q297 -928 297 -1023Q297 -1146 425 -1299Z"/>
</svg>