<svg xmlns="http://www.w3.org/2000/svg" viewBox="0 -2048 2048 2048">
	<path fill="currentColor" d="M2463 172H1708V-14H2273V-1125H287V-16H849V172H100V-1330H2463ZM1835 -940Q1823 -902 1800 -894Q1797 -893 1792 -892Q1759 -883 1725 -827Q1695 -778 1687 -737Q1660 -586 1604 -284Q1598 -251 1585 -226Q1552 -160 1484 -100Q1407 -32 1344 -29Q1350 -29 1334 -30V106H1225V-27Q1207 -27 1172 -35Q1116 -59 1054 -119Q1046 -130 1031 -153Q973 -234 956 -286Q953 -296 938 -384Q923 -472 892 -650Q857 -860 722 -921Q743 -956 753 -956Q791 -956 862 -931Q902 -917 940 -873Q971 -833 1002 -794L1078 -963L1186 -808L1272 -959Q1286 -959 1292 -952Q1320 -898 1370 -808L1470 -959H1486L1561 -793Q1598 -836 1635 -880Q1683 -933 1725 -943Q1779 -956 1804 -956Q1804 -956 1835 -940ZM2438 147V-1305H121V147H824V7H260V-1151H2296V8H1733V147ZM1807 -932L1806 -933H1797Q1772 -933 1728 -921Q1689 -910 1637 -850Q1560 -763 1554 -757L1476 -924Q1443 -869 1366 -769L1282 -924Q1255 -869 1186 -769L1081 -920Q1060 -867 1013 -768Q1010 -762 998 -762Q968 -807 896 -887Q868 -910 836.5 -917Q805 -924 773 -930Q762 -933 755 -933Q753 -930 751 -926Q853 -890 899 -728Q923 -597 947 -467Q952 -439 962 -382Q965 -350 978 -290Q996 -232 1044 -170Q1092 -108 1143 -80Q1156 -68 1194 -55Q1210 -55 1251 -42V80H1309V-41Q1315 -47 1326 -47Q1367 -47 1419 -76Q1453 -95 1500.5 -146Q1548 -197 1564.5 -234Q1581 -271 1590 -324Q1606 -414 1639 -594Q1647 -647 1667 -751Q1677 -793 1708 -842Q1743 -897 1777 -911Q1788 -915 1807 -932Z"/>
</svg>