<svg xmlns="http://www.w3.org/2000/svg" viewBox="24 -1618 1543.1 2053.1">
	<path fill="currentColor" d="M1491 359H100L239 -965Q213 -976 213 -1006Q213 -1018 239 -1039Q224 -1115 173 -1171Q154 -1192 154 -1196Q154 -1204 155.5 -1219.5Q157 -1235 157 -1243L176 -1250V-1254Q177 -1264 171 -1283.5Q165 -1303 165 -1312Q165 -1327 183.5 -1383Q202 -1439 210 -1448Q250 -1490 293 -1508Q296 -1509 389 -1537Q406 -1542 410 -1542Q525 -1542 757 -1463Q805 -1447 998 -1386Q1032 -1375 1435 -1247Q1441 -1232 1441 -1205Q1441 -1193 1404 -1134Q1367 -1075 1367 -1043Q1387 -1025 1387 -1005Q1387 -989 1370.5 -975.5Q1354 -962 1355 -956ZM1350 -1251Q1100 -1335 597 -1492Q502 -1519 411 -1519Q363 -1519 307 -1493Q248 -1465 224 -1427Q191 -1373 191 -1311Q191 -1313 200 -1251ZM1414 -1209V-1224H183V-1209ZM1405 -1182H194Q245 -1123 258 -1046H1344Q1353 -1101 1405 -1182ZM1356 -1002Q1356 -1020 1339 -1020H256Q244 -1020 244 -1000Q244 -982 256 -982H1342Q1356 -982 1356 -1002ZM1381 267L1262 -956H327L207 267ZM1466 334L1332 -956H1282L1405 275Q1406 283 1396 293H192Q182 283 183 277L306 -956H259L122 334ZM1160 -443Q1160 -352 1136 -288Q1132 -277 1132 -238.5Q1132 -200 1113 -176Q1086 -143 1067 -143Q1060 -143 1042 -162Q1046 -169 1066 -188Q1083 -202 1083 -217Q1083 -221 1082 -225Q1072 -220 1064 -208H1037Q1040 -233 1058 -256.5Q1076 -280 1076 -295Q1076 -301 1072 -330Q1069 -353 1072 -362V-363Q1072 -366 1071 -372.5Q1070 -379 1070 -383Q1070 -391 1073.5 -407Q1077 -423 1077 -431Q1077 -462 1004 -544Q975 -476 975 -426Q975 -428 991 -354Q1007 -280 1007 -237Q1007 -227 1006 -221Q1004 -210 986 -193Q968 -176 957 -176H870Q828 -176 783 -149Q780 -137 780 -132Q780 -131 792 -94.5Q804 -58 806 -47Q810 -5 815 36Q822 92 836.5 112Q851 132 851 142Q851 160 835 170Q819 174 788 187Q737 216 733 216H673V176Q758 178 758 84Q758 70 747 49Q730 19 729 16Q705 -39 670 -151Q657 -133 653 -89Q648 -24 626 45Q596 140 596 153Q596 168 602 176Q602 205 583 216H411Q413 209 413 204Q413 196 409 182Q444 170 449 170Q452 170 457.5 171.5Q463 173 466 173Q476 173 498 157Q520 141 522 132Q537 20 580 -201Q597 -216 635 -243Q690 -273 793 -296Q799 -297 807 -302Q815 -317 818 -355Q820 -384 822 -412L787 -546Q784 -544 724 -490Q682 -452 656 -452Q639 -452 607 -467Q596 -489 596 -499Q596 -503 598 -511Q600 -519 600 -523Q603 -594 652 -660Q663 -672 681 -700Q686 -716 701 -745Q723 -776 788 -785Q786 -790 786 -794Q786 -809 820 -835Q851 -859 862 -879Q873 -899 907 -930Q931 -941 959 -941Q981 -941 998 -937Q1024 -931 1045 -901.5Q1066 -872 1066 -845Q1066 -813 1034 -765.5Q1002 -718 972 -698V-667Q1033 -667 1102 -563Q1128 -524 1158 -459Q1160 -455 1160 -443ZM1040 -844Q1040 -870 1021.5 -894Q1003 -918 978 -918Q971 -918 957 -917Q943 -916 936 -916Q913 -916 882 -869Q898 -866 966 -845Q966 -831 962 -824Q972 -818 982.5 -811Q993 -804 993 -791Q993 -784 987 -769.5Q981 -755 981 -748Q981 -744 982 -739Q1040 -779 1040 -844ZM854 -673V-701Q808 -715 809 -753Q795 -750 770 -739Q779 -735 792 -720Q765 -694 727 -675Q718 -646 700 -588Q780 -673 854 -673ZM1075 -360L1073 -363H1072V-362ZM1135 -433Q1135 -450 1134 -452Q1075 -573 1010 -630Q1000 -639 979 -641Q955 -644 946 -649V-708Q953 -715 962 -722Q959 -742 959 -750Q959 -761 969 -792Q931 -807 937 -831Q865 -850 869 -850Q866 -850 838 -822.5Q810 -795 810 -792Q810 -790 835 -767L836 -762L839 -761H836Q836 -760 837 -735Q849 -728 878 -716V-656L871 -649Q863 -650 855 -650Q802 -650 751 -606Q737 -593 674 -521Q667 -514 655 -514Q654 -520 654 -526Q654 -540 668 -575Q688 -623 689 -625Q695 -651 706 -685Q715 -698 737 -709L725 -707V-729Q734 -737 752 -754Q726 -744 715 -726Q714 -717 708 -700Q694 -682 669 -644Q654 -614 640 -584Q626 -554 623 -520Q623 -517 620.5 -510Q618 -503 618 -501Q618 -475 653 -475Q670 -475 724 -520Q791 -577 799 -582Q845 -444 845 -417Q845 -330 820 -280Q698 -250 647 -221Q702 -218 722 -213Q764 -202 783 -174Q842 -198 957 -198Q982 -198 982 -235Q982 -290 969 -351Q952 -434 952 -424Q952 -482 997 -583Q1021 -560 1056 -515Q1099 -460 1099 -443V-288Q1099 -271 1086 -257Q1099 -250 1105 -242V-257Q1105 -272 1113 -298Q1123 -328 1125 -338Q1135 -400 1135 -433ZM828 142Q828 136 819.5 126Q811 116 809 112Q805 101 785 -25Q781 -53 762 -105Q759 -113 759 -160Q759 -193 706 -193Q692 -193 692 -156Q692 -131 736.5 -31Q781 69 781 119Q781 137 761 162Q741 187 722 193H733Q740 193 758 180Q782 164 784 163Q793 159 815 154Q828 151 828 142ZM676 -196Q626 -199 625 -199Q616 -199 601 -188Q585 -120 563 17Q554 113 540 145Q526 177 478 192Q493 192 521 192Q551 193 563 193Q572 193 577 190Q577 184 574.5 173Q572 162 572 157Q572 151 604 44Q618 -3 629 -114Q631 -137 676 -196ZM910 -784Q876 -792 851 -811Q873 -832 881 -832Q896 -832 910 -805Z"/>
</svg>