<svg xmlns="http://www.w3.org/2000/svg" viewBox="0 -2048 2048 2048">
	<path fill="#000000" d="M1807 -1113H1722V253H1806V365H310Q100 365 100 201Q100 158 109 104H117Q116 104 206 101Q206 111 203 139Q201 163 201 177Q201 200 210 215Q235 256 273 256Q280 256 293 256Q306 255 312 255Q323 255 332 256V-1113L318 -1112Q310 -1120 310 -1201Q317 -1205 332 -1207L312 -1295Q312 -1428 420 -1505Q491 -1556 597 -1556Q685 -1556 890 -1498Q1117 -1434 1514 -1302L1717 -1234Q1745 -1224 1800 -1207Q1801 -1207 1807 -1207ZM1722 -1208L1196 -1376Q1046 -1424 897 -1472Q693 -1533 600 -1533Q489 -1533 415 -1472Q336 -1406 336 -1298Q336 -1277 355 -1208ZM1632 -725V-1112H1069V-725ZM1781 -1136V-1184H336V-1136ZM1695 253V-1112H1659V253ZM1632 -653V-698H1069V-653ZM1632 -239V-626H1069V-239ZM983 -725V-1112H425V-725ZM1632 -167V-212H1069V-167ZM1045 253V-1112H1009V253ZM983 -653V-698H425V-653ZM1632 253V-141H1069V253ZM983 -239V-626H425V-239ZM983 -167V-212H425V-167ZM402 253V-1112H357V253ZM1781 339V279H274Q232 279 214 248Q178 218 178 178Q178 195 182 124Q115 127 127 127Q124 180 124 165Q124 301 194 323Q202 327 217 333Q255 339 279 339ZM983 253V-141H425V253Z"/>
</svg>