<svg xmlns="http://www.w3.org/2000/svg" viewBox="0 -2048 2048 2048">
	<path fill="#000000" d="M2087 -1485Q2087 -1449 2051 -1381Q1938 -1167 1727 -1071Q1677 -1048 1641 -1039H1798V171H2038V360H100V173H335V-1038H643Q647 -1060 657 -1103Q686 -1209 729 -1252Q796 -1319 824 -1342Q886 -1391 939 -1400Q963 -1406 1012 -1416Q1058 -1423 1109 -1423Q1305 -1423 1445 -1254Q1465 -1230 1516 -1106H1522Q1541 -1106 1599 -1124Q1770 -1177 1881 -1342Q1889 -1354 1922 -1468Q1945 -1547 2012 -1547Q2036 -1547 2061.5 -1527.5Q2087 -1508 2087 -1485ZM2064 -1484Q2064 -1500 2047 -1512Q2030 -1524 2013 -1524Q1961 -1524 1943 -1462Q1935 -1419 1904 -1337Q1901 -1332 1870 -1292Q1854 -1268 1816 -1224Q1801 -1214 1771 -1193Q1668 -1117 1520 -1084Q1521 -1069 1526 -1039Q1665 -1063 1750 -1105Q1850 -1155 1930 -1252Q1945 -1267 1972 -1299Q2064 -1427 2064 -1484ZM1501 -1039V-1060Q1501 -1113 1442 -1216Q1427 -1243 1347 -1310Q1339 -1319 1321 -1334Q1309 -1340 1285 -1351Q1185 -1400 1108 -1400Q963 -1400 885 -1356Q866 -1345 824 -1313Q763 -1266 729 -1216Q690 -1159 668 -1039ZM1664 171V-896H1392V171ZM1365 171V-896H1276V171ZM1773 171V-1012H360V171H448V-911L461 -923L1690 -911V171ZM1250 171V-896H892V171ZM868 171V-896H774V171ZM747 171V-896H475V171ZM2013 334V195H126V334Z"/>
</svg>