<svg xmlns="http://www.w3.org/2000/svg" viewBox="0 -2048 2048 2048">
	<path fill="currentColor" d="M1105 361H100V275H141L235 -1070Q233 -1070 209 -1072Q194 -1100 194 -1113Q194 -1119 198.5 -1131.5Q203 -1144 203 -1152H226Q222 -1205 189 -1234Q151 -1260 112 -1285Q112 -1299 110 -1336Q108 -1367 108 -1386Q108 -1463 160 -1507Q208 -1547 287 -1547Q337 -1547 613 -1473Q736 -1440 1096 -1340V-1280Q1056 -1273 1018 -1232.5Q980 -1192 980 -1152L986 -1150Q1010 -1120 1010 -1113Q1010 -1100 995 -1072H987H976L975 -1074L1054 275H1064Q1074 276 1105 273ZM996 -1346Q838 -1390 521 -1474Q314 -1527 279 -1527Q288 -1527 256 -1522Q131 -1502 131 -1384Q131 -1332 132 -1346ZM1070 -1301V-1319H137V-1301ZM1037 -1277H171Q238 -1231 249 -1153H958Q971 -1245 1037 -1277ZM987 -1112Q987 -1116 976 -1127H223Q216 -1115 216 -1112Q216 -1112 221 -1097H982Q987 -1112 987 -1112ZM750 -520V-786Q750 -820 735 -851Q701 -922 599 -922Q580 -922 552.5 -895.5Q525 -869 525 -851H631Q640 -842 641 -832Q682 -818 682 -783Q682 -772 655 -742V-736Q655 -735 661 -521Q689 -520 745 -520ZM496 -658Q489 -652 475 -639Q482 -634 486 -632Q489 -641 496 -658ZM1034 275L955 -1070H258L167 275H253L339 -1014H865Q875 -1004 876 -967V-961Q879 -850 945 275ZM921 274L851 -987H356L277 275H397Q397 260 403 245Q432 246 485 227Q544 207 554 186.5Q564 166 564 109Q564 65 536 -124Q527 -180 510 -291Q505 -328 505 -495Q505 -640 575 -659V-686Q571 -685 566 -685Q560 -685 549 -688Q538 -691 532 -691V-690Q532 -677 516 -643Q500 -609 490 -601Q473 -610 443 -638Q464 -659 506 -701Q503 -716 497 -747Q460 -748 460 -768Q460 -776 478 -804.5Q496 -833 497 -840Q498 -847 500 -859Q527 -945 623 -945Q720 -945 757 -856Q760 -842 765 -814Q776 -761 776 -771V-500Q747 -494 720 -497L717 -405Q716 -378 720 -328Q725 -274 725 -251Q723 -246 721 -239Q704 -162 685 -41Q684 -16 680 33Q661 158 661 161Q661 216 671 237Q676 247 676 251Q676 260 668 274ZM700 -287Q700 -305 697.5 -342Q695 -379 695 -398Q695 -416 696 -447Q697 -482 697 -496Q686 -497 675 -497Q658 -497 638 -494L632 -743Q632 -749 645.5 -766.5Q659 -784 659 -786Q659 -800 643 -805Q624 -810 619 -824H513Q501 -807 486 -774Q490 -775 493 -775Q517 -775 524 -714Q566 -709 592 -709L602 -699V-644Q546 -638 533 -567Q530 -548 530 -454Q530 -307 531 -300Q541 -239 559 -117Q587 73 587 109Q587 191 546 224Q516 247 424 267V269H643Q650 258 650 251Q650 237 642.5 207Q635 177 635 162Q635 182 658 34Q659 4 665 -55Q667 -67 687 -171Q700 -241 700 -287ZM1079 337V298H125V337ZM599 -785Q560 -768 560 -768Q559 -768 509 -793Q518 -793 535 -792Q552 -791 560 -791Q562 -791 567 -792Q572 -793 574 -793Q582 -793 599 -785Z"/>
</svg>