<svg xmlns="http://www.w3.org/2000/svg" viewBox="0 -2048 2048 2048">
	<path fill="#000000" d="M1446 346H100V198H170L290 -1125Q283 -1126 255 -1127Q232 -1181 232 -1181Q232 -1190 253 -1224Q259 -1226 287 -1230Q280 -1280 266 -1320Q262 -1326 255 -1336Q227 -1378 117 -1443V-1524H1429V-1440Q1366 -1433 1297 -1355Q1258 -1311 1258 -1230Q1269 -1229 1290 -1228Q1316 -1182 1316 -1181Q1316 -1168 1290 -1127Q1278 -1126 1253 -1126L1367 197H1446ZM1403 -1465V-1499H139V-1465ZM1365 -1438H172Q247 -1390 271 -1353.5Q295 -1317 309 -1230H1235V-1246Q1233 -1362 1365 -1438ZM1294 -1181Q1289 -1190 1279 -1204H268Q258 -1180 258 -1179Q258 -1170 267 -1152H1278Q1286 -1164 1294 -1181ZM1345 197L1227 -1125H313L195 197H305L432 -1030H1099Q1107 -1019 1109 -998Q1179 -364 1235 197ZM1211 197L1085 -1004H455L331 197ZM1421 321V223H125V321ZM1096 -482Q1096 -476 1093 -461.5Q1090 -447 1091 -439Q1092 -424 1092 -419Q1092 -397 1080.5 -356.5Q1069 -316 1069 -295Q1069 -262 1066 -250Q1049 -184 1000 -183Q986 -199 986 -203Q986 -208 1000.5 -227Q1015 -246 1017 -253L1013 -247H991Q980 -247 980 -261Q980 -277 999 -301.5Q1018 -326 1018 -331V-479Q994 -514 945 -582Q916 -499 916 -472Q916 -460 932 -391Q945 -334 945 -275Q945 -224 884 -215Q834 -213 784 -211Q765 -209 723 -189Q722 -186 722 -181Q722 -166 733 -138Q745 -105 747 -94Q748 -89 756 -22Q760 15 775 67Q794 93 794 97Q794 105 783 120Q775 131 763 134Q740 139 740 139Q734 142 709 159Q690 173 675 173H613V169Q612 151 625 135Q696 131 696 61Q696 26 654 -75Q612 -176 614 -196Q608 -191 606 -186Q597 -128 581 -33Q578 -17 559 26Q544 62 544 85Q544 112 550 147Q531 174 514 174Q508 174 496 169.5Q484 165 480 165Q477 165 468 168.5Q459 172 456 173Q438 176 411 176H351V157Q351 130 412 130Q441 130 461 94Q476 67 487 -26Q501 -148 503 -156Q512 -184 527 -242Q602 -296 701 -323Q718 -327 748 -339Q760 -346 760 -415Q760 -477 729 -585Q696 -555 664 -525Q625 -491 585 -491Q574 -491 567 -492Q543 -524 543 -541Q543 -546 545 -555.5Q547 -565 547 -570Q547 -610 577 -661Q604 -703 630 -744Q635 -760 640.5 -777.5Q646 -795 669 -807Q690 -813 731 -825Q729 -830 729 -837Q729 -841 730 -846Q752 -861 792 -901Q849 -980 899 -980Q943 -980 974.5 -948.5Q1006 -917 1006 -873Q1006 -841 966 -787Q953 -769 913 -736V-705Q967 -705 1041 -600Q1096 -522 1096 -482ZM983 -875Q983 -909 960 -932Q937 -955 903 -955Q860 -955 825 -906Q865 -894 910 -876Q905 -867 904 -862Q931 -839 931 -827Q931 -819 925 -804.5Q919 -790 919 -783Q919 -781 921 -777V-775Q983 -825 983 -875ZM794 -711V-738Q753 -751 753 -791Q717 -777 712 -777L713 -781L700 -777Q720 -777 728 -757Q727 -756 670 -711Q665 -685 644 -625Q722 -711 794 -711ZM1073 -472Q1073 -490 1070 -497Q1022 -612 945 -670Q936 -677 917.5 -678Q899 -679 888 -687V-746Q893 -750 903 -758Q897 -770 897 -781Q897 -791 902 -807Q907 -823 908 -830Q882 -850 882 -866Q847 -877 811 -888Q754 -842 754 -833Q754 -824 779 -807Q780 -793 781 -770Q809 -759 821 -749V-695Q789 -691 734 -673Q689 -643 671 -623Q651 -595 602 -550L597 -572Q632 -648 648 -714Q653 -733 682 -746Q663 -746 664 -755V-760Q686 -785 708 -799Q654 -785 654 -749Q654 -744 655 -738Q574 -640 570 -569Q570 -565 567.5 -555.5Q565 -546 565 -541Q565 -520 582 -516Q583 -516 617 -516Q664 -560 737 -615Q744 -614 749 -605Q783 -458 783 -401Q783 -355 764 -321Q703 -307 593 -261Q714 -256 724 -217Q744 -225 785 -235Q819 -236 853 -236Q898 -238 914 -251L918 -260Q922 -336 922 -318Q922 -338 907.5 -395Q893 -452 893 -472Q893 -543 933 -609Q937 -615 948 -615Q979 -572 1041 -486V-334Q1041 -322 1023 -295L1027 -298Q1044 -282 1044 -274Q1044 -263 1034 -236Q1044 -254 1048 -314Q1056 -337 1066 -384Q1073 -459 1073 -472ZM772 97Q764 88 753 71Q738 40 733 -20Q727 -88 719 -113Q702 -167 702 -210Q702 -217 681 -225Q660 -233 651 -233Q635 -233 635 -195Q635 -178 678.5 -75.5Q722 27 722 69Q722 74 720 78Q711 103 678 143Q672 145 660 151H678Q675 151 722 124Q732 121 752 115Q760 112 772 97ZM623 -237Q608 -241 570 -241Q551 -241 545 -227Q517 -165 509 -12Q505 58 479 107Q459 143 385 153H420Q430 153 451.5 147.5Q473 142 483 142Q488 142 497.5 146.5Q507 151 510 151Q515 151 520 150Q524 143 524 135L520 129Q518 91 518 92Q518 77 521 70Q546 7 560 -71Q565 -113 584 -193Q597 -207 623 -237ZM855 -822H836Q820 -822 796 -846Q808 -867 821 -867Q839 -867 855 -822Z"/>
</svg>