<svg xmlns="http://www.w3.org/2000/svg" viewBox="0 -2048 2048 2048">
	<path fill="currentColor" d="M2012 -645Q2012 -614 1981 -571.5Q1950 -529 1920 -520Q1891 -508 1831 -491Q1787 -484 1715 -484Q1711 -484 1584 -493V229H1709V357H395V230H511V-526Q492 -515 425 -440H408Q375 -511 254 -548Q122 -590 100 -615V-657L101 -656V-659Q125 -678 187 -699Q266 -726 280 -733Q310 -747 358 -785Q362 -788 382 -816Q396 -835 413 -835H418Q431 -835 440.5 -821Q450 -807 458 -795Q479 -773 512 -748V-1099Q501 -1100 480 -1101Q454 -1127 454 -1154Q454 -1164 455 -1181Q471 -1192 483 -1206Q497 -1208 513 -1208Q512 -1211 492 -1306Q446 -1372 419 -1392Q373 -1421 326 -1450V-1536H1773V-1450Q1694 -1404 1680 -1393Q1629 -1356 1611 -1311Q1605 -1300 1596 -1277Q1592 -1254 1585 -1208H1624Q1626 -1203 1643 -1185Q1654 -1174 1654 -1156Q1654 -1147 1643 -1126.5Q1632 -1106 1624 -1101Q1624 -1101 1585 -1101V-822Q1604 -823 1653 -827Q1696 -831 1721 -831Q1889 -831 1964 -763Q1979 -750 1995.5 -708Q2012 -666 2012 -645ZM100 -649ZM1748 -1470V-1510H351V-1470ZM1714 -1442H384Q472 -1388 496 -1347Q512 -1318 534 -1208H1562Q1562 -1352 1714 -1442ZM1631 -1156Q1631 -1182 1610 -1182H495Q480 -1182 480 -1157V-1147Q480 -1131 488 -1126H1618Q1631 -1152 1631 -1156ZM1557 -818V-1100H539V-737Q619 -712 627 -712V-973L639 -985H1469V-807ZM1443 -803V-959H653V-707H658Q658 -707 687 -703ZM1989 -645Q1989 -639 1981 -680Q1964 -767 1867 -787Q1851 -794 1818 -803Q1792 -807 1724 -807Q1641 -807 1355 -769L686 -680Q677 -684 642 -684Q588 -684 507 -723Q467 -742 426 -799V-800L398 -635Q394 -609 407 -543Q414 -521 428 -478Q500 -572 609 -590Q676 -601 661 -601Q742 -601 1179 -552Q1354 -532 1590 -514Q1718 -504 1705 -504Q1919 -504 1970 -595Q1989 -629 1989 -645ZM1557 229V-493Q1507 -499 1469 -501V229ZM1443 229V-302H1182V229ZM1443 -328V-384H1094V229H1155V-328ZM1443 -410V-505Q1223 -528 781 -570Q691 -578 680 -578H654V229H1067V-410ZM406 -811Q360 -735 263 -704Q147 -666 113 -635Q118 -627 129 -615Q157 -610 205 -596Q257 -574 308 -553Q365 -526 400 -489Q394 -506 385 -541Q371 -611 375 -635ZM1683 332V253H419V332ZM627 229V-572H625Q582 -572 539 -545V229Z"/>
</svg>