<svg xmlns="http://www.w3.org/2000/svg" viewBox="0 -2048 2048 2048">
	<path fill="currentColor" d="M1684 360H100L239 -538L279 -539V-632H325V-1305L430 -1528L537 -1305V-632H586V-539H642V-540L645 -546Q652 -560 687 -569Q737 -582 817 -589Q835 -671 835 -688Q835 -825 753 -994Q742 -1007 721 -1033Q653 -1124 649 -1132Q629 -1172 629 -1257Q629 -1350 583 -1350Q577 -1350 570 -1351V-1352L550 -1317Q529 -1324 529 -1350Q529 -1402 582 -1436Q592 -1442 605 -1463Q640 -1519 733 -1519Q810 -1519 847 -1482Q881 -1431 916 -1380Q917 -1379 946 -1366Q1002 -1342 1164 -1136Q1354 -894 1386 -864Q1396 -856 1415 -840Q1546 -730 1546 -712V-690Q1538 -682 1526 -682Q1518 -682 1400 -756L1491 -621L1362 -539H1545ZM748 -1394Q748 -1404 731.5 -1416Q715 -1428 704 -1428H679V-1423Q679 -1405 666 -1393Q668 -1385 666 -1375Q674 -1393 703 -1393Q738 -1393 732 -1351Q748 -1371 748 -1394ZM654 -1417V-1429H651Q645 -1423 645 -1420Q645 -1419 646 -1417ZM1520 -708Q1508 -735 1420 -805Q1348 -863 1246 -992Q1166 -1095 1086 -1198Q1000 -1305 946 -1341Q930 -1345 904 -1359Q888 -1375 868 -1413.5Q848 -1452 836 -1466Q811 -1496 735 -1496Q667 -1496 646 -1479Q635 -1459 605 -1425Q590 -1415 575 -1405Q560 -1395 555 -1373Q579 -1399 608 -1399Q621 -1399 643 -1390Q642 -1392 632.5 -1402.5Q623 -1413 623 -1418Q623 -1455 669 -1455Q702 -1455 732 -1442Q771 -1426 771 -1397Q771 -1357 749 -1334Q738 -1323 691 -1296L683 -1304L675 -1292H657L653 -1297Q653 -1295 656 -1205Q657 -1152 683 -1117Q701 -1093 891 -860Q972 -760 972 -689Q972 -640 963 -572Q864 -558 864 -549Q864 -548 865 -546H1086L1084 -557Q1055 -560 992 -572Q995 -606 999 -675L1008 -685Q1031 -682 1074 -665V-839Q1082 -848 1090 -848Q1119 -834 1148 -821Q1185 -802 1197 -784Q1214 -759 1327 -545Q1372 -572 1462 -628Q1421 -685 1353 -782Q1201 -857 902 -1014Q848 -1041 794 -1069Q730 -1103 698 -1142Q658 -1190 658 -1216Q658 -1289 740 -1316Q817 -1341 845 -1341Q857 -1341 857 -1332Q857 -1332 856 -1330V-1323Q802 -1308 747 -1293Q683 -1273 683 -1214Q683 -1206 699 -1181Q735 -1125 870 -1056L1366 -803Q1478 -745 1515 -708ZM710 -1361Q710 -1371 703 -1371Q697 -1371 690 -1365Q690 -1353 690 -1328Q710 -1340 710 -1356ZM651 -1301Q650 -1303 644 -1318L648 -1304ZM1543 -405L1527 -513H1408L1423 -405ZM1303 -539Q1252 -644 1172 -779Q1157 -794 1101 -816V-633Q1093 -624 1084 -624Q1054 -655 1019 -661V-588Q1055 -585 1092 -582Q1134 -574 1143 -539ZM505 -1321L433 -1478L358 -1321ZM1562 -265L1546 -379H1428L1447 -265ZM1400 -405L1384 -513H1268L1284 -405ZM1423 -265L1405 -379H1288L1307 -265ZM949 -686Q950 -702 946 -715Q923 -792 804 -930Q856 -794 856 -743Q856 -736 858.5 -722Q861 -708 861 -701Q861 -660 836 -577Q851 -580 868 -582Q876 -621 895 -697H911Q932 -697 949 -686ZM949 -646Q949 -673 910 -673Q904 -644 892 -585Q909 -588 943 -594Q943 -601 946 -619Q949 -637 949 -646ZM1656 335L1568 -239H1452L1543 335ZM511 -633V-1297H351V-633ZM1519 335L1428 -239H1312L1400 335ZM1260 -405L1244 -513H540Q534 -477 522 -405ZM776 -563Q760 -561 747 -558Q743 -557 742 -557V-545H751Q757 -545 767 -548Q769 -554 776 -563ZM1283 -265L1265 -379H517L501 -265ZM561 -542V-606H308V-542ZM516 -513H400L384 -408Q489 -406 496 -406H501Q506 -442 516 -513ZM1376 335L1288 -239H496L408 335ZM376 -513H260L244 -405H361ZM496 -379H379L361 -265H477ZM356 -379H240L221 -265H337ZM472 -239H356L265 335H384ZM332 -239H216L128 335H241Z"/>
</svg>