<svg xmlns="http://www.w3.org/2000/svg" viewBox="0 0 924 1000">
  <g transform="scale(1,-1) translate(0,-1000)">
    <path d="M40 587H884V650H40ZM884 547H677V40H884ZM0 20V897Q0 905 6.0 911.0Q12 917 20 917H904Q912 917 918.0 911.0Q924 905 924 897V20Q924 12 918.0 6.0Q912 0 904 0H20Q12 0 6.0 6.0Q0 12 0 20ZM247 547H40V40H247ZM73 690V877H40V690ZM103 690H223V877H103ZM884 690V877H853V690ZM287 365V40H637V365ZM287 405H637V547H287ZM253 877V690H373V877ZM403 877V690H523V877ZM553 877V690H673V877ZM703 877V690H823V877Z" fill="currentColor"/>
  </g>
</svg>