<svg xmlns="http://www.w3.org/2000/svg" viewBox="0 -2048 2048 2048">
	<path fill="currentColor" d="M2391 351H1912V335Q1912 280 1928 251Q1940 229 1995 225Q1954 179 1957 136L2012 -724Q1969 -758 1969 -788Q1969 -791 1978 -873L1998 -1065L2006 -1072V-1152H2109L1942 -1335H533L382 -1151H482L523 -795Q525 -774 509 -751Q499 -743 482 -725L483 -724V-715L532 138Q533 184 499 227Q503 227 511 226Q519 225 524 225Q555 225 569 274Q577 311 586 348H100Q106 314 112 280Q122 236 147 227Q152 225 183 225Q148 181 150 132V121L199 -730Q156 -730 156 -829Q156 -837 161 -854.5Q166 -872 167 -879Q174 -941 186 -1065L193 -1072H194V-1150H313V-1498H2175V-1151H2298V-1072L2305 -1065Q2308 -1038 2327 -888Q2336 -819 2336 -816Q2336 -805 2311 -734L2299 -733V-731H2295L2344 136Q2344 182 2307 225H2325Q2365 225 2378 271Q2385 311 2391 351ZM1573 -239H913V-265Q913 -385 1019 -476Q1121 -564 1242 -564Q1369 -564 1470.5 -465Q1572 -366 1573 -239ZM2272 -1075V-1125H2032V-1075ZM2309 -842L2285 -1048H2020L1998 -842ZM2313 -804Q2313 -810 2311 -815H1994Q1991 -788 1991 -791Q1991 -763 2012 -754L2015 -749L2293 -752Q2313 -772 2313 -804ZM2272 -707V-726H2034Q2032 -715 2032 -707ZM2149 -1151V-1472H340V-1151H354L523 -1361H1957L2140 -1151ZM2322 133V128L2276 -681H2032L1980 133Q1977 175 2023 226H2276Q2323 179 2322 133ZM2364 325V316Q2364 251 2335 251H1966Q1950 251 1944 281Q1941 303 1937 325ZM1547 -265Q1546 -367 1444 -454Q1346 -538 1242 -538Q1131 -538 1037 -458Q939 -374 939 -265ZM463 -1074L458 -1125H219V-1074ZM493 -842L472 -1048H207L186 -842ZM500 -796Q500 -800 498 -815H181Q179 -808 179 -801Q179 -785 199 -752H481Q500 -771 500 -796ZM460 -707V-726H221Q219 -715 219 -707ZM509 137V134L463 -681H219L173 118Q172 129 172 137Q172 179 213 226H472Q510 184 509 137ZM556 326Q551 303 540 259Q530 251 526 251H156Q137 251 128 326Z"/>
</svg>