<svg xmlns="http://www.w3.org/2000/svg" viewBox="0 -2048 2048 2048">
	<path fill="#000000" d="M1974 -1225Q1974 -1198 1933 -1178L1745 -1272V-1217Q1782 -1211 1820 -1204Q1862 -1195 1889 -1174Q1894 -1155 1894 -1151Q1894 -1142 1852.5 -1127.5Q1811 -1113 1791 -1035Q1772 -962 1715 -954V203H1821Q1880 203 1880 277Q1880 298 1864 319Q1847 343 1827 343H244Q226 343 208.5 319.5Q191 296 191 277Q191 253 204 226Q215 203 256 203H358V-952Q314 -966 303 -981Q294 -993 287 -1042Q282 -1052 275 -1071Q264 -1107 234 -1121Q208 -1133 183 -1144V-1152Q180 -1197 329 -1220V-1269Q159 -1185 141 -1185Q131 -1185 100 -1199V-1242Q111 -1252 137 -1270Q605 -1526 969 -1543Q982 -1544 1019 -1548Q1050 -1551 1068 -1551Q1087 -1551 1244 -1528Q1347 -1513 1486 -1467Q1576 -1437 1749 -1361Q1816 -1332 1946 -1267Q1974 -1250 1974 -1225ZM1718 -1221V-1284Q1697 -1293 1654 -1312V-1221ZM1951 -1222Q1951 -1238 1933 -1249Q1899 -1270 1787 -1322Q1621 -1398 1473 -1448Q1367 -1484 1297 -1498Q1149 -1528 1066 -1528Q1049 -1528 1014.5 -1524Q980 -1520 963 -1520Q809 -1520 527 -1424Q245 -1328 126 -1234V-1211Q135 -1207 141 -1207Q153 -1207 168 -1213Q170 -1214 252 -1254Q331 -1295 491 -1367Q663 -1434 883 -1468Q923 -1470 1004 -1475Q1011 -1475 1027 -1478Q1043 -1481 1051 -1481Q1046 -1481 1099 -1475Q1134 -1474 1205 -1468Q1359 -1446 1579 -1368Q1635 -1348 1732 -1307Q1798 -1272 1931 -1203Q1951 -1215 1951 -1222ZM1871 -1159Q1833 -1199 1679 -1199Q1512 -1199 1482 -1160Q1538 -1130 1548 -1122Q1577 -1099 1585 -1056Q1601 -972 1633 -972Q1635 -972 1638 -973.5Q1641 -975 1645 -975Q1658 -975 1668 -963V202H1689L1699 -976H1706Q1733 -975 1748 -991Q1754 -998 1776 -1072Q1794 -1131 1845 -1150Q1856 -1151 1871 -1159ZM1642 202V-950Q1589 -956 1574 -1003Q1562 -1044 1551 -1084Q1537 -1109 1494 -1129Q1457 -1146 1457 -1161Q1457 -1202 1627 -1219V-1324Q1341 -1439 1101 -1453Q1094 -1453 1077 -1455.5Q1060 -1458 1051 -1458Q1034 -1458 1005 -1455Q970 -1451 958 -1450Q690 -1436 446 -1322V-1219Q491 -1216 544 -1204Q619 -1185 619 -1161Q619 -1150 596 -1135.5Q573 -1121 564 -1123Q527 -1100 514 -1054Q496 -995 481 -975Q479 -973 476 -963Q459 -955 434 -950V202ZM419 -1221V-1310L355 -1280V-1221ZM594 -1163Q526 -1199 381 -1199Q257 -1199 205 -1161V-1156Q263 -1143 286 -1103Q297 -1084 314 -1009Q317 -996 334.5 -984.5Q352 -973 364 -975L371 -976L384 -963V202H408V-967Q419 -975 427 -975Q434 -975 438 -972Q472 -972 496 -1066Q507 -1109 532 -1128Q563 -1145 594 -1163ZM1854 282V265Q1854 226 1824 226H253Q217 226 217 276Q217 304 245 320H1826Q1854 308 1854 282ZM1325 -441H755Q766 -560 843 -638.5Q920 -717 1038 -717Q1043 -717 1053.5 -714.5Q1064 -712 1069 -712Q1132 -712 1194 -669Q1251 -629 1283 -571Q1291 -562 1305 -541Q1306 -538 1325 -441ZM1298 -464V-467Q1298 -503 1283 -533Q1278 -539 1268 -553Q1194 -691 1035 -691Q953 -691 893 -649Q781 -570 781 -464Z"/>
</svg>