<svg xmlns="http://www.w3.org/2000/svg" viewBox="0 -2048 2048 2048">
	<path fill="currentColor" d="M1921 242H1059L1255 144Q1227 48 1199 -49Q1159 -191 1159 -228Q1159 -283 1191 -304Q1217 -321 1239 -321Q1254 -321 1296 -296Q1338 -271 1349 -257Q1387 -203 1463 -94Q1470 -141 1476 -273Q1476 -321 1483 -417Q1489 -452 1507 -499Q1514 -517 1559 -570Q1601 -620 1601 -629Q1601 -662 1599 -681Q1596 -686 1524 -701Q1493 -622 1489 -622Q1482 -622 1451 -643Q1504 -725 1503 -755V-772Q1454 -776 1454 -807Q1454 -812 1472 -834Q1492 -861 1494 -864Q1499 -882 1512 -918Q1557 -1020 1677 -1020Q1738 -1020 1784 -980Q1830 -940 1836 -880Q1844 -725 1860 -415Q1826 -410 1800 -410Q1800 -400 1804 -361Q1808 -329 1806 -312L1766 127Q1766 128 1766 135ZM2229 245H2016V-998Q1980 -1015 1854 -1067Q1527 -1201 1290 -1201Q1266 -1201 1217 -1205Q1168 -1209 1144 -1209Q1019 -1209 919 -1197Q896 -1191 851 -1181Q612 -1131 316 -998V242H100Q102 231 110 223V-1094Q170 -1131 293 -1201Q331 -1216 407 -1249Q630 -1353 885 -1402Q944 -1413 1174 -1418Q1302 -1421 1426 -1403Q1470 -1391 1558 -1370Q1860 -1310 2229 -1094ZM852 -19Q852 37 802 74Q756 108 697 108Q589 108 557 22Q543 -16 543 -25Q543 -27 553 -102Q556 -127 627 -707Q637 -804 664 -995Q671 -1004 683 -1023H715Q722 -1014 731 -995Q733 -984 754 -817Q783 -596 806 -408L839 -136Q852 -24 852 -19ZM963 244H429V9Q429 -2 445 -15.5Q461 -29 473 -29Q496 -29 506 -10Q523 25 540 60Q561 99 590 119Q595 124 606 131Q640 146 703 146Q719 146 781 130Q827 118 850 76Q868 34 885 -7Q896 -29 934 -29Q944 -29 953.5 -14Q963 1 963 11ZM1837 -436Q1834 -580 1816 -868Q1810 -925 1772 -961Q1734 -997 1677 -997Q1588 -997 1549 -931Q1531 -900 1531 -896L1669 -880Q1703 -894 1697 -894Q1734 -894 1734 -847Q1734 -850 1703 -796V-436ZM1485 -654L1482 -650L1483 -649ZM1848 219Q1813 195 1744 146Q1743 142 1743 138Q1743 131 1743 130L1782 -313Q1782 -313 1775 -410H1682Q1682 -414 1683 -425Q1683 -434 1683 -439Q1679 -799 1679 -775Q1679 -804 1694 -820.5Q1709 -837 1709 -851Q1709 -868 1697 -868Q1705 -868 1672 -857L1524 -876Q1520 -864 1480 -805Q1495 -798 1525 -783Q1525 -772 1523.5 -752Q1522 -732 1522 -724Q1549 -719 1578 -713Q1607 -707 1625 -687V-614Q1524 -514 1515 -450Q1511 -439 1506 -418Q1499 -295 1482 -48Q1466 -56 1370 -189Q1359 -208 1334 -240Q1272 -296 1239 -296Q1181 -296 1181 -227Q1181 -197 1263 96Q1271 117 1279 158L1153 219ZM2207 220V-1079Q1873 -1296 1429 -1380Q1414 -1383 1293 -1389Q1180 -1395 1169 -1395Q1074 -1394 885 -1380Q850 -1371 782 -1353Q412 -1264 127 -1079L124 220H291V-1011Q615 -1154 822 -1198Q854 -1206 920 -1219Q1022 -1232 1144 -1232Q1169 -1232 1220 -1228Q1271 -1224 1297 -1224Q1559 -1224 2040 -1014V220ZM827 -28Q827 -31 818 -103L731 -819Q724 -876 708 -989Q705 -994 704 -997H694Q685 -987 684 -982Q682 -969 651 -717L587 -195Q566 -24 566 -26Q566 -9 579 18.5Q592 46 605 54Q623 65 643 77Q657 86 677 86H726Q751 86 792 54Q827 27 827 -28ZM938 220V1Q935 -6 931 -6Q914 -6 906 3Q895 33 873 82Q829 168 702 168Q589 168 545 112Q528 77 491 8Q484 -4 473 -4Q454 -4 454 8V220ZM1602 -816Q1549 -823 1541 -823L1534 -830L1535 -828Q1529 -833 1522 -840Q1527 -842 1543 -851Q1555 -859 1563 -859H1586Q1592 -845 1602 -816Z"/>
</svg>