<svg xmlns="http://www.w3.org/2000/svg" viewBox="0 -2048 2048 2048">
	<path fill="#000000" d="M822 -805Q822 -783 810 -733Q797 -680 787 -665Q714 -554 541 -554Q361 -554 298 -691Q274 -743 274 -790Q274 -796 276.5 -809Q279 -822 279 -829Q279 -932 391 -1006Q373 -1033 373 -1044Q373 -1090 415 -1090H681Q720 -1090 720 -1044Q720 -1022 701 -1005Q753 -977 787.5 -920.5Q822 -864 822 -805ZM1002 363H896V-880Q896 -977 824 -1078.5Q752 -1180 661 -1213Q609 -1232 526 -1232Q518 -1232 483 -1224Q468 -1222 439 -1214Q353 -1177 282 -1084Q207 -985 207 -896V365H100V-866Q100 -1000 172 -1116Q237 -1221 302 -1262Q328 -1278 376 -1294Q435 -1314 452 -1322Q412 -1402 412 -1431Q412 -1486 452.5 -1528Q493 -1570 548 -1570Q587 -1570 628 -1545Q673 -1518 680 -1482Q687 -1446 687 -1419Q687 -1368 650 -1322Q672 -1315 715 -1300Q825 -1257 912 -1145Q1002 -1028 1002 -914ZM783 255Q744 266 740 266Q615 266 495.5 143.5Q376 21 376 -104Q376 -172 414 -227Q456 -288 521 -288Q583 -288 634 -234Q685 -180 685 -118Q685 -86 674 -19.5Q663 47 663 81Q663 141 783 235ZM661 -1434Q661 -1483 643 -1504Q606 -1547 548 -1547Q500 -1547 467.5 -1512.5Q435 -1478 435 -1430Q435 -1412 475 -1325Q484 -1326 521 -1332Q549 -1336 566 -1336Q559 -1336 627 -1325Q641 -1351 655 -1377Q661 -1392 661 -1434ZM697 -1045Q697 -1053 688 -1064H408Q396 -1064 396 -1045Q396 -1039 406 -1025Q435 -1021 426 -1021Q430 -1021 450.5 -1029Q471 -1037 477 -1038Q550 -1048 553 -1048Q571 -1048 614.5 -1036Q658 -1024 676 -1024Q697 -1024 697 -1045ZM796 -805Q796 -899 721 -964Q650 -1025 554 -1025Q479 -1025 414 -994Q297 -938 297 -790Q297 -772 313 -711Q322 -676 362 -637Q402 -598 437 -589Q486 -577 526 -577Q713 -577 769 -679Q796 -728 796 -805ZM976 341V-929Q976 -989 930.5 -1075Q885 -1161 797 -1227Q703 -1297 612 -1305Q605 -1306 589.5 -1309.5Q574 -1313 566 -1313Q431 -1313 312 -1241Q249 -1203 187.5 -1097Q126 -991 126 -919V341H184V-890Q184 -931 194 -969Q212 -1037 286 -1122.5Q360 -1208 424 -1233Q481 -1255 521 -1255Q616 -1255 675 -1233Q774 -1196 848 -1084.5Q922 -973 922 -865V341ZM746 239Q637 149 637 81Q637 46 648 -21.5Q659 -89 659 -118Q659 -170 615.5 -216Q572 -262 521 -262Q468 -262 433 -208Q402 -160 402 -104Q402 10 514 125Q626 240 740 240Q742 239 746 239Z"/>
</svg>