<svg viewBox="0 0 12.912752151489258 18"
   xmlns="http://www.w3.org/2000/svg"
   version="1.1">
  <path
     style="fill:currentColor;stroke:none"
     d="M 2.3125,0 0.75,3.1875 l 0,12.90625 -0.75,0 L 0,18 l 12.90625,0 0,-1.90625 -0.78125,0 0,-12.90625 L 10.59375,0 l -0.8125,0 -1.5625,3.1875 0,12.90625 -3.5625,0 0,-12.90625 L 3.15625,0 z m 0.34375,0.59375 0.125,0 1.25,2.59375 -2.59375,0 z m 7.46875,0 0.125,0 1.21875,2.59375 -2.59375,0 z m -8.71875,3.21875 2.65625,0 0,12.25 -2.65625,0 z m 7.46875,0 2.625,0 0,12.25 -2.625,0 z m -8.21875,12.84375 11.554999,0 0,0.71875 -11.554999,0 z" />
</svg>