<svg xmlns="http://www.w3.org/2000/svg" viewBox="24.2 -1611.8 1571.7 2047.7">
	<path fill="currentColor" d="M1520 360H257V248H316L447 -871Q443 -872 406 -873Q388 -913 388 -923Q388 -931 406 -972L432 -974Q432 -1044 381 -1092Q365 -1108 273 -1167Q270 -1186 271 -1220Q201 -1225 172 -1240Q129 -1264 129 -1325Q129 -1370 135 -1387Q143 -1408 175 -1435Q151 -1439 127 -1444Q100 -1453 100 -1478Q100 -1494 114 -1508Q128 -1522 144 -1522Q242 -1522 268 -1467Q276 -1450 276 -1419Q276 -1402 255.5 -1361.5Q235 -1321 235 -1306Q235 -1305 236 -1300L250 -1289H268Q265 -1312 265 -1314Q265 -1432 354 -1492Q366 -1500 403 -1513Q468 -1536 509 -1536Q590 -1536 772 -1481Q905 -1438 1038 -1395Q1328 -1303 1508 -1242V-1165Q1492 -1162 1413 -1116Q1347 -1078 1347 -973Q1357 -973 1361 -972Q1388 -932 1388 -923Q1388 -918 1367 -873L1338 -871L1450 248H1520ZM1423 -1249L1063 -1364Q924 -1409 784 -1455Q595 -1513 509 -1513Q486 -1513 435.5 -1500Q385 -1487 368 -1475Q288 -1418 288 -1316Q288 -1291 298 -1249ZM1482 -1188V-1222H297V-1188ZM1439 -1159H332Q418 -1107 439 -1059Q449 -1035 455 -975H1324Q1332 -1051 1352 -1085Q1376 -1126 1439 -1159ZM1365 -922Q1365 -926 1350 -948H419Q411 -922 411 -922Q411 -920 419 -898H1355Q1365 -920 1365 -922ZM274 -1248L272 -1262Q264 -1262 212 -1288Q211 -1293 211 -1303Q211 -1326 232 -1364Q253 -1402 253 -1419Q253 -1452 228.5 -1475.5Q204 -1499 170 -1499Q123 -1499 123 -1479Q123 -1465 168 -1459Q220 -1451 236 -1424Q230 -1417 223 -1417Q219 -1417 203 -1427Q152 -1396 152 -1326Q152 -1309 156 -1290Q159 -1277 177.5 -1262.5Q196 -1248 209 -1248ZM1429 248L1315 -872H470L339 248H474L595 -780H1194L1294 248ZM1270 248L1177 -757H611L498 248ZM1497 335V273H282V335ZM991 -570Q991 -528 963 -467Q934 -403 902 -381V-371Q902 -279 912.5 -94.5Q923 90 923 182Q923 246 869 246Q815 246 815 186Q815 92 826 -94.5Q837 -281 837 -375Q837 -387 819 -404Q792 -429 791 -431Q747 -490 747 -567Q747 -645 824 -668Q839 -704 869 -704Q892 -704 904 -686Q910 -675 915 -665Q930 -661 957 -648Q991 -625 991 -570ZM888 -669Q878 -681 869 -681Q857 -681 849 -669Q858 -672 888 -669ZM968 -570Q968 -648 872 -648Q770 -648 770 -567Q770 -521 797 -466Q828 -401 869 -401Q881 -401 892 -404Q916 -412 943 -478Q968 -539 968 -570ZM901 189Q901 186 901 180Q900 174 900 171L879 -381Q868 -379 859 -379L838 176Q838 178 837 184Q837 190 837 193Q837 223 868 223Q901 223 901 189Z"/>
</svg>