<svg xmlns="http://www.w3.org/2000/svg" viewBox="0 -2048 2048 2048">
	<path fill="#000000" d="M1946 -204H1531Q1527 -200 1527 -192Q1527 -185 1571.5 -72.5Q1616 40 1616 47Q1616 79 1589 107.5Q1562 136 1535 136Q1528 136 1481 119.5Q1434 103 1427 103Q1419 103 1386 136H1016Q1004 115 1004 100Q1004 74 1131 31Q1286 -21 1295 -26Q1354 -61 1354 -103Q1354 -122 1318 -181Q1259 -131 1185 -131Q1075 -131 1023 -215Q970 -131 868 -131Q830 -131 757 -170Q734 -145 705 -89Q700 -67 707 -22Q715 36 715 50Q715 78 684 107Q653 136 626 136Q619 136 574.5 119.5Q530 103 523 103Q517 103 489 112.5Q461 122 451 123Q342 136 264 136Q177 136 132 129Q119 111 119 86Q119 56 143 49Q213 32 349 -4Q400 -18 470 -85.5Q540 -153 548 -200H100Q104 -274 100 -309H550Q565 -309 591 -319Q629 -426 716 -636Q774 -760 841 -859Q875 -912 908 -965Q966 -1044 1009 -1044Q1073 -1044 1129 -948Q1164 -886 1244 -753Q1295 -673 1391 -514Q1426 -446 1489 -324Q1497 -309 1530 -309H1946Q1942 -297 1946 -204ZM1927 -226V-286H1330Q1243 -370 1162 -370Q1110 -370 1075 -343Q1037 -314 1037 -262Q1037 -214 1088 -184Q1131 -159 1176 -159Q1275 -159 1325 -226ZM1460 -315Q1407 -429 1205 -770Q1185 -807 1144 -870Q1120 -910 1095 -950Q1050 -1016 1009 -1016Q954 -1016 761 -658Q691 -528 620 -315H705Q713 -315 742 -335Q776 -359 785 -363Q820 -375 869 -394Q890 -407 916 -467Q952 -559 1011 -706Q1021 -730 1033 -727Q1085 -620 1136 -512Q1202 -392 1300 -346Q1322 -336 1339 -315ZM1182 -394Q1140 -464 1099 -535Q1050 -619 1029 -682L910 -394Q937 -392 974.5 -372.5Q1012 -353 1023 -331Q1091 -398 1154 -398Q1161 -398 1171 -396Q1181 -394 1182 -394ZM1588 44Q1588 38 1551 -55Q1510 -160 1498 -202H1338Q1388 -142 1388 -98Q1388 -44 1270 7Q1260 11 1145 49L1032 87V108H1375Q1395 80 1424 80Q1431 80 1475.5 94Q1520 108 1527 108Q1552 108 1570 88.5Q1588 69 1588 44ZM1009 -262Q1009 -303 979 -336.5Q949 -370 904 -370Q844 -370 823 -363Q784 -349 716 -286H126V-226H722Q717 -226 767.5 -192.5Q818 -159 868 -159Q919 -159 960 -183Q1009 -211 1009 -262ZM731 -184Q719 -203 645 -203Q594 -203 582 -201Q571 -174 540 -124Q514 -82 454 -36Q402 2 372 12Q370 13 257 41Q187 59 148 82V113Q140 114 278 114Q376 114 440 101Q454 98 487 86Q517 75 523 75Q530 75 573 94.5Q616 114 623 114Q641 114 663 90Q682 67 685 50Q687 37 687 22Q687 8 684.5 -20Q682 -48 682 -63Q682 -128 731 -184Z"/>
</svg>