<svg viewBox="0 0 6.28077 17.977417"
   xmlns="http://www.w3.org/2000/svg">
  <path
     style="fill:currentColor; stroke:none"
     d=" M 6.28077 9.987453  L 5.621804 9.987453  L 5.621804 15.876963  L 6.28077 15.876963  L 6.28077 17.977417  L 3.850833 17.977417  L 3.850833 17.297859  L 2.368159 17.297859  L 2.368159 17.956825  L 0 17.956825  L 0 15.85637  L 0.658966 15.85637  L 0.658966 9.987453  L 0 9.987453  L 0 6.836772  L 0.658966 6.836772  L 0.658966 2.182825  L 0 2.182825  L 0 0  L 2.368159 0  L 2.368159 0.679559  L 3.850833 0.679559  L 3.850833 0  L 6.28077 0  L 6.28077 2.182825  L 5.621804 2.182825  L 5.621804 6.836772  L 6.28077 6.836772  L 6.28077 9.987453  Z  M 4.962838 1.338525  L 1.317932 1.338525  L 1.317932 16.721264  L 4.942245 16.721264  L 4.962838 1.338525  Z " />
</svg>