<svg xmlns="http://www.w3.org/2000/svg" viewBox="0 -2048 2048 2048">
	<path fill="#000000" d="M1072 230H997V313H703V234Q642 229 591 220Q589 222 552 287L299 136L359 72Q297 -12 295 -12Q284 -12 231 14L116 -275Q142 -282 193 -298Q183 -346 170 -442H100V-735H167Q175 -783 193 -880Q167 -888 116 -904L228 -1194L294 -1165Q314 -1196 359 -1253L299 -1316L551 -1465Q563 -1442 591 -1397Q652 -1415 700 -1411Q702 -1427 702 -1449Q702 -1468 699 -1491H995V-1413H1072V-1335H671Q565 -1335 479 -1272Q352 -1179 291 -964Q243 -797 243 -597Q243 -41 532 122Q596 158 658 158H1072ZM1047 205V183H658Q587 183 520 144Q218 -32 218 -597Q218 -1106 464 -1292Q554 -1360 671 -1360H1047V-1388H970V-1466H726Q728 -1433 722 -1384Q654 -1389 581 -1368Q561 -1397 542 -1431L339 -1310L392 -1255Q337 -1186 304 -1134L242 -1161L149 -920Q192 -907 222 -896Q211 -834 187 -710H125V-467H192Q207 -350 222 -282Q178 -266 150 -258L245 -19Q287 -37 295 -37Q310 -37 392 74L338 130L543 252Q558 225 580 193Q642 204 728 211V288H972V205Z"/>
</svg>