<svg xmlns="http://www.w3.org/2000/svg" viewBox="60.8 -894.2 1047.4 1058.4">
	<path fill="currentColor" d="M1069 -346Q1069 -166 914 -19Q764 125 590 125Q550 125 441 94Q265 44 175 -108Q100 -233 100 -390Q100 -522 179 -639Q271 -775 436 -829Q515 -855 549 -855Q710 -855 836 -776Q983 -683 1037 -503Q1069 -396 1069 -346ZM1041 -349Q1041 -425 999 -542Q946 -689 809 -765Q696 -828 562 -828Q395 -828 265 -701Q127 -566 127 -371Q127 -47 436 66Q521 97 590 97Q759 97 898 -36Q1041 -172 1041 -349ZM779 -368Q779 -291 718 -240Q662 -193 593 -193Q523 -193 472 -249Q423 -302 423 -368Q423 -437 479 -493Q535 -549 603 -549Q681 -549 732 -493Q779 -440 779 -368ZM751 -368Q751 -430 715 -473Q674 -521 603 -521Q583 -521 573 -519Q531 -511 488 -463Q445 -415 445 -376Q445 -321 486 -273Q531 -220 595 -220Q658 -220 704.5 -261Q751 -302 751 -368Z"/>
</svg>