<svg xmlns="http://www.w3.org/2000/svg" viewBox="0 0 993 1000">
  <g transform="scale(1,-1) translate(0,-1000)">
    <path d="M870 86H124Q110 86 107.5 92.0Q105 98 105 134Q105 171 81.5 201.5Q58 232 44 232H40V40H953V233H949Q935 233 912.0 202.0Q889 171 889 134Q889 100 886.5 93.0Q884 86 870 86ZM356 781 220 126H400V430Q400 436 404.5 440.5Q409 445 415 445H576Q582 445 586.5 440.5Q591 436 591 430V126H773L638 781ZM957 279Q969 279 977.0 268.0Q985 257 987.5 245.0Q990 233 993 210V20Q993 12 987.5 6.0Q982 0 973 0H20Q12 0 6.0 6.0Q0 12 0 20V208Q0 211 0.5 216.0Q1 221 3.0 233.0Q5 245 8.5 254.5Q12 264 19.5 271.5Q27 279 37 279Q57 271 70.0 264.0Q83 257 103.0 240.5Q123 224 134.0 197.0Q145 170 145 134Q145 129 144 126H180L320 805Q323 821 339 821H654Q671 821 674 805L814 126H849V134Q849 243 957 279ZM430 126H561V415H430Z" fill="currentColor"/>
  </g>
</svg>