<svg xmlns="http://www.w3.org/2000/svg" viewBox="0 -2048 2048 2048">
	<path fill="currentColor" d="M1536 -738H1126V-842H1432V-1404H204V-842H510V-738H100V-1508H1536ZM1173 -309L848 -350L906 380H740L804 -338Q788 -341 772 -341Q721 -341 620 -324.5Q519 -308 467 -308V-429L754 -390Q767 -391 785 -394Q582 -742 582 -934Q582 -1028 648 -1084Q711 -1137 806 -1137Q1052 -1137 1052 -914Q1052 -813 983 -650Q954 -580 861 -398L860 -391Q860 -389 864 -384L1173 -429ZM1510 -764V-1482H126V-764H484V-816H178V-1430H1458V-816H1152V-764ZM1023 -908Q1023 -1113 800 -1113Q730 -1113 669 -1062Q605 -1008 605 -939Q605 -857 663 -710Q710 -590 767 -492Q640 -842 640 -902Q640 -968 697 -1016Q750 -1061 818 -1061Q893 -1061 937.5 -1011Q982 -961 982 -885Q982 -815 953 -709Q928 -622 904 -535Q1023 -801 1023 -908ZM953 -885Q953 -1032 818 -1032Q761 -1032 716 -995Q669 -955 669 -899Q669 -849 734 -666Q821 -423 822 -419Q953 -760 953 -885ZM1144 -338V-400Q1077 -389 942 -370Q964 -366 1144 -338ZM733 -363L491 -400V-338ZM877 351L823 -256L769 351Z"/>
</svg>