<svg xmlns="http://www.w3.org/2000/svg" viewBox="0 -2048 2048 2048">
	<path fill="#000000" d="M1536 272H1126V168H1432V-394H875L906 0H740L775 -394H204V168H510V272H100V-498H784L804 -718Q788 -721 772 -721Q721 -721 620 -704.5Q519 -688 467 -688V-809L754 -770Q767 -771 785 -774Q582 -1122 582 -1314Q582 -1408 648 -1464Q711 -1517 806 -1517Q1052 -1517 1052 -1294Q1052 -1193 983 -1030Q954 -960 861 -778L860 -771Q860 -769 864 -764L1173 -809V-689L848 -730L866 -498H1536ZM1023 -1288Q1023 -1493 800 -1493Q730 -1493 669 -1442Q605 -1388 605 -1319Q605 -1237 663 -1090Q710 -970 767 -872Q640 -1222 640 -1282Q640 -1348 697 -1396Q750 -1441 818 -1441Q893 -1441 937.5 -1391Q982 -1341 982 -1265Q982 -1195 953 -1089Q928 -1002 904 -915Q1023 -1181 1023 -1288ZM953 -1265Q953 -1412 818 -1412Q761 -1412 716 -1375Q669 -1335 669 -1279Q669 -1229 734 -1046Q821 -803 822 -799Q953 -1140 953 -1265ZM1144 -718V-780Q1077 -769 942 -750Q964 -746 1144 -718ZM733 -743L491 -780V-718ZM1510 246V-472H868L873 -420H1458V194H1152V246ZM877 -29L823 -636L769 -29ZM782 -472H126V246H484V194H178V-420H777Z"/>
</svg>