<svg xmlns="http://www.w3.org/2000/svg" viewBox="23.5 -1483.5 2066 1831">
	<path fill="currentColor" d="M1288 -632L1275 -619L1019 -859L747 -598L728 -617L1000 -878L771 -1096Q784 -1109 791 -1109L1014 -896L1254 -1120L1267 -1107L1038 -878ZM2013 271H1401V144H1880V-1269H233V142H712V271H100V-1407H2013ZM1875 -190Q1808 -100 1524 -33Q1276 26 1083 26L875 21Q667 -13 571 -37Q412 -75 298 -135Q275 -147 243 -190Q278 -227 330 -249Q449 -299 651 -343Q720 -360 859 -382Q979 -390 1083 -390Q1277 -390 1489 -338Q1727 -280 1852 -217Q1865 -211 1875 -190ZM1986 249V-1381H127V249H685V168H206V-1296H1901V171H1422V249ZM1843 -191Q1735 -262 1468 -315Q1222 -363 1027 -363Q892 -363 671 -319Q460 -276 336 -228Q308 -217 275 -184Q408 -96 579 -59Q615 -51 907 -9Q1005 5 1070 5Q1465 5 1809 -157Q1836 -170 1843 -191Z"/>
</svg>