<svg xmlns="http://www.w3.org/2000/svg" viewBox="0 -2048 2048 2048">
	<path fill="#000000" d="M1853 273H1284V150H1729V-1332H218V148H653V273H100V-1461H1853ZM1403 -344Q1403 -297 1348 -298Q1373 -134 1373 -108Q1373 -73 1356 28Q1353 45 1334 86Q1310 135 1294 135Q1263 135 1236 64Q1214 8 1214 -17V-214Q1214 -219 1220 -246Q1226 -278 1229 -298Q1213 -302 1196.5 -306.5Q1180 -311 1180 -339Q1180 -346 1205 -402Q1235 -472 1244 -497Q1246 -495 1222 -495Q1180 -495 1180 -540Q1180 -556 1244 -671Q1246 -669 1227 -669Q1218 -669 1200 -687Q1182 -705 1181 -720Q1180 -726 1186 -745.5Q1192 -765 1193 -775Q1195 -797 1183 -834Q1173 -865 1129.5 -895.5Q1086 -926 1058 -926Q1060 -926 1011 -888Q1018 -860 1049 -798.5Q1080 -737 1080 -733Q1080 -716 1060 -697.5Q1040 -679 1030 -679Q1021 -679 1021 -679Q1021 -673 1050.5 -608Q1080 -543 1080 -537Q1080 -495 1033 -495Q1028 -495 1020 -499Q1016 -501 1016 -495Q1016 -489 1050.5 -414.5Q1085 -340 1085 -334Q1085 -305 1025 -293Q1046 -146 1046 -81Q1046 -27 1029 36Q1008 112 975 134H958Q892 18 892 -93Q892 -123 917 -298Q919 -297 890 -297Q882 -297 869.5 -312Q857 -327 857 -336Q857 -330 922 -492Q926 -490 895 -490Q878 -490 857 -532L927 -677Q927 -685 924 -688Q906 -679 892 -679Q862 -679 853 -742Q869 -749 881 -767Q927 -836 927 -877Q927 -885 906 -905.5Q885 -926 877 -926Q829 -926 781 -870Q738 -818 738 -778Q738 -772 748 -746.5Q758 -721 758 -716Q758 -708 737 -688.5Q716 -669 709 -669Q694 -669 694 -669Q694 -663 726 -604.5Q758 -546 758 -540Q758 -512 738 -505Q714 -500 689 -496Q758 -358 758 -341Q758 -316 740 -307Q721 -302 703 -298Q723 -251 723 -106Q723 135 647 135Q609 135 584 35Q565 -40 565 -96Q565 -123 590 -298Q574 -301 547 -308Q535 -324 535 -349Q535 -342 595 -492Q597 -490 572 -490Q562 -490 548.5 -504Q535 -518 535 -533L605 -676Q607 -674 590 -674Q540 -674 540 -750Q540 -794 556 -826Q598 -909 694.5 -967Q791 -1025 877 -1019Q852 -1048 719 -1157Q751 -1197 791 -1234Q835 -1182 929 -1075Q931 -1083 923 -1142Q907 -1256 907 -1262V-1288H1025L1001 -1074H1006Q1087 -1153 1147 -1229Q1195 -1191 1224 -1152L1070 -1024Q1188 -1025 1297 -926Q1398 -834 1398 -753Q1398 -732 1381 -703Q1364 -674 1348 -674Q1343 -674 1335 -675Q1333 -675 1333 -674L1403 -535Q1401 -519 1382.5 -504.5Q1364 -490 1353 -490Q1343 -490 1343 -490Q1343 -484 1373 -417Q1403 -350 1403 -344ZM1190 -1157Q1176 -1173 1147 -1194L1031 -1059Q1031 -1052 1043 -1040Q1113 -1084 1190 -1157ZM996 -1263H932Q940 -1202 958 -1081L981 -1086Q991 -1182 996 -1263ZM1378 -745Q1378 -832 1269 -920Q1168 -1001 1095 -1001Q1088 -1001 1079.5 -998Q1071 -995 1066 -995Q1066 -971 1056 -953Q1165 -934 1203 -849Q1233 -782 1206 -720Q1214 -708 1232 -693Q1254 -716 1296 -753L1351 -698Q1378 -724 1378 -745ZM907 -1063Q866 -1111 791 -1199Q774 -1182 753 -1156Q820 -1097 896 -1046Q896 -1052 907 -1063ZM1041 -986Q1041 -1055 964 -1055Q932 -1055 912 -1029Q892 -1003 892 -971Q892 -943 917.5 -922.5Q943 -902 974 -902Q1000 -902 1021 -933Q1041 -961 1041 -986ZM1378 -521Q1344 -590 1291 -718Q1279 -688 1238 -611Q1204 -546 1204 -540Q1204 -527 1211 -520H1238Q1257 -545 1295 -584Q1301 -570 1323 -545Q1348 -515 1361 -515Q1368 -515 1372 -518Q1376 -521 1378 -521ZM1056 -725Q1025 -781 990 -881H947Q938 -797 877 -726Q888 -715 888 -704Q921 -706 969 -763Q1024 -708 1031 -708Q1041 -708 1056 -725ZM1378 -333V-359Q1378 -395 1291 -545L1204 -344Q1204 -334 1211 -327Q1224 -334 1296 -391Q1309 -373 1322 -355Q1344 -326 1358 -326Q1371 -326 1378 -333ZM1061 -537L969 -728L882 -530Q883 -520 888 -515H905Q928 -541 974 -584Q1018 -540 1043 -520ZM1828 248V-1441H119V248H634V173H198V-1358H1754V175H1309V248ZM872 -952V-990L866 -996H836Q764 -996 666 -915Q560 -829 560 -748Q560 -717 592 -703L651 -753Q680 -704 712 -693Q728 -712 728 -726Q724 -744 720 -761Q717 -773 717 -785Q717 -878 872 -952ZM1348 -101Q1348 -169 1334 -248Q1316 -355 1285 -356Q1253 -316 1245 -275Q1234 -216 1234 -106Q1234 -13 1255 63Q1264 95 1292 110Q1348 44 1348 -101ZM1060 -328V-344Q1010 -462 969 -550L882 -334Q882 -329 888 -322Q906 -324 932 -357Q950 -382 969 -406Q1039 -322 1043 -322Q1054 -322 1060 -328ZM733 -526V-548Q727 -559 652 -712Q649 -717 635 -718Q637 -694 621.5 -663Q606 -632 591 -603Q560 -532 560 -530Q560 -521 566 -515H583Q599 -520 620 -549Q642 -582 646 -584Q697 -520 714 -520Q727 -520 733 -526ZM1026 -86Q1026 -223 999 -330Q992 -356 963 -366Q951 -339 933 -249Q912 -147 912 -91Q912 -52 933.5 17.5Q955 87 974 105Q993 83 1010 10Q1026 -55 1026 -86ZM733 -333V-349L647 -545Q629 -506 593 -429Q560 -361 560 -358V-327H593Q612 -361 651 -396Q664 -376 678 -356Q701 -326 716 -326Q726 -326 733 -333ZM704 -101Q704 -293 646 -361Q590 -269 590 -118Q590 70 652 110Q704 45 704 -101Z"/>
</svg>