<svg xmlns="http://www.w3.org/2000/svg" viewBox="0 -2048 2048 2048">
	<path fill="currentColor" d="M2097 -54H1460V-186H1958V-1049H232V-187H742V-54H100V-1194H2097ZM1730 -249H1608L1609 -790Q1609 -831 1562 -857Q1553 -862 1526 -862H1514Q1498 -862 1483 -843Q1372 -704 1212 -666Q1238 -617 1291 -521H906L979 -669Q858 -708 760 -794Q738 -816 693 -858Q681 -868 658 -868Q579 -868 579 -757V-251H460V-885Q460 -930 490 -958.5Q520 -987 565 -987H1630Q1651 -987 1688 -961Q1730 -931 1730 -888ZM2072 -79V-1168H124V-79H717V-162H209V-1075H1984V-161H1482V-79ZM1707 -272V-889Q1706 -893 1702 -898Q1699 -917 1675.5 -939Q1652 -961 1633 -961L559 -964Q533 -964 509.5 -944.5Q486 -925 486 -899V-272H553V-766Q553 -891 663 -891Q688 -891 706 -876Q725 -856 765 -817Q918 -680 1086 -680H1145Q1158 -680 1197 -686V-692L1200 -687Q1253 -695 1333 -742.5Q1413 -790 1447 -833Q1461 -851 1474 -869Q1491 -888 1514 -888Q1563 -888 1598.5 -856.5Q1634 -825 1634 -777V-272ZM1253 -544L1197 -655V-663Q1162 -658 1114 -658Q1040 -658 987 -667L993 -665L942 -544Z"/>
</svg>