<svg xmlns="http://www.w3.org/2000/svg" viewBox="0 -2048 2048 2048">
	<path fill="#000000" d="M1888 -716H1442V-812H1786V-1353H197V-815H541V-716H100V-1455H1888ZM1370 105Q1370 171 1334 247Q1288 344 1218 344Q1145 344 1095 235Q1056 151 1056 90Q1056 40 1085 -16Q1122 -85 1185 -117V-806H1082V-859H1183V-982H1245V-861H1359V-806H1247V-122Q1370 -29 1370 105ZM954 105Q954 171 918 247Q872 344 802 344Q729 344 679 235Q640 151 640 90Q640 40 669 -16Q706 -85 769 -117V-806H666V-859H767V-982H829V-861H943V-806H831V-122Q954 -29 954 105ZM1333 -826V-838H1247V-826ZM1863 -742V-1435H120V-742H515V-794H172V-1373H1811V-791H1463V-742ZM1184 -826V-838H1103V-826ZM917 -826V-838H831V-826ZM1344 102Q1344 -12 1220 -112V-961H1206V-102Q1146 -73 1111 -9Q1082 43 1082 92Q1082 135 1115 221Q1159 123 1210 123Q1263 123 1313 236Q1344 172 1344 102ZM768 -826V-838H687V-826ZM928 102Q928 -12 804 -112V-961H790V-102Q730 -73 695 -9Q666 43 666 92Q666 135 699 221Q743 123 794 123Q847 123 897 236Q928 172 928 102ZM1292 259Q1292 239 1270 197Q1243 144 1210 144Q1183 144 1156 191Q1133 230 1133 249Q1133 275 1157.5 297Q1182 319 1215 319Q1292 301 1292 259ZM876 259Q876 239 854 197Q827 144 794 144Q767 144 740 191Q717 230 717 249Q717 275 741.5 297Q766 319 799 319Q876 301 876 259ZM1318 80Q1315 81 1306 87Q1280 62 1227 32Q1222 30 1215 30Q1165 30 1126 97Q1123 94 1116.5 91Q1110 88 1107 85Q1141 10 1218 10Q1277 10 1318 80ZM902 80Q899 81 890 87Q864 62 811 32Q806 30 799 30Q749 30 710 97Q707 94 700.5 91Q694 88 691 85Q725 10 802 10Q861 10 902 80Z"/>
</svg>