<svg xmlns="http://www.w3.org/2000/svg" viewBox="25.8 -1578.2 1562.5 2004.5">
	<path fill="currentColor" d="M1514 -742H1055V-841H1414V-1398H200V-843H554V-742H100V-1504H1514ZM1356 71Q1356 80 1344.5 91.5Q1333 103 1324 103Q1310 103 1251.5 39Q1193 -25 1149 -25Q1085 -25 1024.5 37.5Q964 100 964 163V302Q964 352 921 352Q873 352 873 306V138Q873 78 811 27Q754 -19 701 -19Q648 -19 608 21Q543 87 527 97H509Q497 86 497 68Q497 18 567 -49Q590 -71 631 -86Q667 -99 704 -99Q805 -99 876 2Q879 -3 879 -38Q879 -70 872 -96Q861 -138 811 -172Q740 -221 714 -221Q646 -221 588.5 -160Q531 -99 523 -99Q497 -99 497 -123Q497 -138 534 -193Q568 -242 577 -250Q609 -278 653 -288Q683 -295 709 -295Q795 -295 891 -194L895 -876Q882 -990 810 -990Q773 -990 736 -949Q735 -947 713 -876Q695 -815 669 -815Q640 -815 640 -844Q640 -908 674 -968Q690 -996 732.5 -1019.5Q775 -1043 812 -1043Q924 -1043 953 -908L956 -200Q969 -234 1035 -269Q1096 -301 1136 -301Q1203 -301 1275 -247Q1351 -190 1351 -131Q1351 -94 1319 -94Q1317 -94 1258.5 -160Q1200 -226 1141 -226Q1076 -226 1032 -181Q996 -143 958 -54L962 -3Q1004 -67 1046 -86Q1074 -99 1133 -99Q1188 -99 1254 -70Q1270 -63 1313 -3Q1356 57 1356 71ZM1492 -765V-1483H126V-763H528V-817H179V-1419H1442V-814H1081V-765ZM831 -1014Q829 -1014 823.5 -1018Q818 -1022 810 -1022Q755 -1022 711 -968Q667 -914 672 -856Q720 -1015 818 -1015Q825 -1015 831 -1014ZM1323 76Q1318 12 1251 -36Q1191 -78 1133 -78Q1076 -78 1033 -44Q1010 -24 978 21Q954 55 942 55Q936 55 932 51V-55Q932 -107 1000 -178Q1072 -253 1139 -253Q1221 -253 1323 -121Q1303 -193 1249 -235Q1198 -274 1136 -274Q1075 -274 1028 -240Q994 -216 969 -175Q948 -141 945 -141Q937 -141 932.5 -143.5Q928 -146 926 -146L932 -887Q928 -943 890 -979Q916 -927 916 -913V-150Q907 -141 899 -141Q864 -203 806 -241Q753 -274 706 -274Q600 -274 530 -131Q616 -242 706 -242Q785 -242 848 -175Q911 -108 911 -25Q911 -18 903 46Q897 55 888 55Q796 -78 709 -78Q656 -78 597 -37Q533 8 530 65Q597 -6 609 -15Q650 -46 714 -46Q775 -46 837.5 21.5Q900 89 900 154V301Q900 323 907 330H925Q937 319 940 299Q942 286 940 262Q937 233 937 227Q937 160 949 100Q960 45 1029 -4Q1094 -51 1149 -51Q1187 -51 1203 -39Q1236 -15 1323 76Z"/>
</svg>