<svg xmlns="http://www.w3.org/2000/svg" viewBox="0 -2048 2048 2048">
	<path fill="currentColor" d="M1782 -242Q1782 -223 1767 -217Q1743 -208 1740 -205L1248 -341Q1210 -315 1051 -162Q1050 -162 349 -595Q301 -625 301 -650Q301 -678 336 -678Q341 -678 585 -611Q978 -505 1761 -282Q1782 -276 1782 -242ZM1945 109H1351V-11H1824V-748H222V-13H687V109H100V-883H1945ZM1758 -234Q1754 -248 1743 -268L1213 -412Q1169 -424 1091 -446Q1042 -459 955 -482L782 -531Q670 -564 576 -587Q426 -624 325 -654Q337 -630 354 -619L1044 -186Q1177 -336 1245 -364L1737 -228Q1739 -228 1747.5 -231Q1756 -234 1758 -234ZM1922 90V-860H119V90H666V9H198V-771H1842V12H1375V90Z"/>
</svg>