<svg xmlns="http://www.w3.org/2000/svg" viewBox="0 -2048 2048 2048">
	<path fill="#000000" d="M1885 339H1426V238H1785V-1344H202V235H554V339H100V-1457H1885ZM1722 186Q1722 222 1692 222Q1634 222 1558 83Q1499 -26 1488 -77Q1477 -128 1477 -201L1502 -508Q1502 -633 1454 -732Q1414 -814 1276 -857Q1173 -889 1072 -889L588 -848Q528 -848 496 -895Q468 -935 468 -997Q468 -1031 489 -1116Q470 -1119 432 -1114Q388 -1109 389 -1109Q355 -1109 312 -1132Q263 -1159 263 -1191Q263 -1248 340 -1285Q400 -1314 450 -1314Q494 -1314 545 -1289Q611 -1256 611 -1204Q611 -1201 596 -1137Q581 -1073 581 -1058Q581 -1039 596.5 -1015.5Q612 -992 629 -992L1187 -1053Q1390 -1053 1516 -959Q1661 -851 1661 -643Q1661 -592 1642 -507Q1610 -364 1610 -275Q1610 -170 1644 -17Q1651 14 1722 186ZM1149 -323Q1149 -316 1146 -309Q1143 -302 1143 -301H637V-338Q636 -359 659 -417Q688 -492 754 -538Q816 -582 880 -582Q986 -582 1066 -509Q1149 -433 1149 -323ZM1497 38Q1497 99 1443 99H353Q345 99 327 79Q309 59 309 50Q309 33 331 12Q353 -9 369 -9H1432Q1442 -9 1469.5 10.5Q1497 30 1497 38ZM1865 313V-1431H121V313H529V256H177V-1370H1804V258H1447V313ZM1691 184Q1597 -16 1584 -298L1635 -638Q1635 -676 1616 -764Q1616 -766 1585 -847Q1552 -935 1414 -985Q1301 -1027 1172 -1027L642 -971Q560 -971 560 -1066Q560 -1073 573 -1136Q586 -1199 586 -1204Q586 -1246 537 -1270Q497 -1289 450 -1289Q407 -1289 357 -1268Q289 -1241 289 -1194Q289 -1166 332 -1148Q364 -1135 391 -1135Q401 -1135 433 -1141Q465 -1147 481 -1147Q504 -1147 514 -1137Q494 -1017 494 -997Q494 -874 609 -874L1036 -915Q1113 -915 1207 -898Q1237 -889 1289 -875Q1528 -822 1528 -500L1502 -190Q1502 -93 1542 6Q1590 123 1678 190Q1683 191 1691 184ZM1123 -327V-344Q1113 -370 1099 -416Q1084 -477 1008 -519Q942 -556 880 -556Q865 -556 818 -544Q782 -535 733 -482Q684 -429 676 -396Q663 -342 663 -348V-327ZM1466 63V38Q1444 17 1427 17H374Q353 17 335 56Q357 78 364 78H1427Q1431 78 1466 63ZM468 -1229Q446 -1207 437 -1207Q430 -1207 426.5 -1210Q423 -1213 418 -1213Q418 -1215 415 -1219Q412 -1223 412 -1230Q412 -1242 440 -1258Q458 -1249 468 -1229Z"/>
</svg>