<svg xmlns="http://www.w3.org/2000/svg" viewBox="25.3 -1592.7 2017.4 2017.4">
	<path fill="currentColor" d="M1968 -754Q1968 -703 1912 -656Q1821 -580 1624 -585V350H510V-607Q480 -588 436 -531H413Q380 -593 294 -627Q219 -652 145 -678Q115 -691 100 -725Q116 -760 175 -783Q222 -798 270 -813Q329 -836 415 -926Q435 -920 459 -889Q484 -855 510 -843V-1518H1624V-914Q1874 -916 1933 -842Q1968 -798 1968 -754ZM1598 -913V-1492H536V-832Q564 -821 588 -813V-1436H1542V-910Q1557 -911 1598 -913ZM1516 -907V-1410H614V-805Q656 -793 679 -793H684ZM1942 -754Q1942 -888 1642 -888Q1570 -888 1490 -877L680 -767Q642 -767 564 -793Q482 -820 460 -844Q451 -857 432 -882Q407 -784 407 -715Q407 -626 436 -573Q443 -583 459 -603Q467 -611 513 -640.5Q559 -670 571 -675Q614 -692 675 -692Q703 -692 942 -671Q1124 -653 1488 -620Q1600 -611 1651 -611Q1818 -611 1895 -676Q1942 -716 1942 -754ZM1516 238V-592Q1324 -610 940 -645L760 -660Q682 -666 675 -666Q639 -666 614 -661V-454H974V238ZM1598 324V-586Q1595 -586 1542 -590V264H948V-428H588V-654Q578 -650 536 -624V324ZM404 -878Q348 -823 302 -802Q243 -780 184 -758Q145 -742 130 -724Q142 -705 246 -669Q359 -631 400 -591Q399 -602 389 -653Q381 -691 381 -715Q381 -759 404 -878ZM1320 -955H822Q824 -1076 886 -1146Q952 -1220 1071 -1220Q1190 -1220 1257 -1146Q1321 -1075 1320 -955ZM892 264H588V-372H892ZM1294 -981Q1292 -1078 1230 -1136Q1168 -1194 1071 -1194Q974 -1194 912 -1136Q850 -1078 848 -981ZM866 238V-346H614V238Z"/>
</svg>