<svg xmlns="http://www.w3.org/2000/svg" viewBox="0 -2048 2048 2048">
	<path fill="#000000" d="M1527 -992H1426V-1310H1527ZM1829 253H1384V155H1730V-1377H199V153H540V253H100V-1481H1829ZM1711 -141Q1711 -120 1676 -108L1486 -227L1483 -224L1627 -16L1381 140Q1313 5 1245 -130Q1160 -288 1055 -312L1040 -24Q1006 -53 954 -79H927Q931 -61 931 -36Q931 -11 927 37Q979 46 1031 55Q1097 71 1116 123L1104 135Q1080 120 1071 120Q1065 120 1056 127.5Q1047 135 1042 135Q1036 135 972.5 130Q909 125 903 125Q864 125 762 133Q728 136 691 126Q695 127 643 127Q632 127 607.5 131Q583 135 578 135Q573 135 570.5 130Q568 125 561 125Q557 125 524.5 129Q492 133 479 133Q468 133 438 131Q408 129 394 129L387 122Q412 82 429 77Q454 70 641 40Q680 -12 680 -138Q680 -212 648 -323Q619 -425 616 -431Q594 -495 549 -571Q544 -579 468 -678Q407 -757 393 -804Q378 -855 374 -904Q371 -957 369 -1011Q356 -1115 315 -1115Q280 -1115 241 -1065Q219 -1087 219 -1117Q219 -1112 230 -1162Q234 -1181 266 -1205Q315 -1241 318 -1244Q339 -1273 393 -1326Q416 -1343 521 -1343Q614 -1343 666 -1310Q720 -1274 765 -1178Q774 -1159 814 -1131Q875 -1089 882 -1083Q955 -1022 1029 -930Q1072 -872 1161 -757Q1226 -676 1261 -628Q1283 -601 1327 -544Q1401 -446 1457 -390Q1527 -328 1597 -266Q1711 -162 1711 -141ZM1502 -1016V-1288H1449V-1016ZM411 -1205Q411 -1218 400 -1229Q400 -1229 382 -1211Q387 -1206 388 -1199ZM541 -1154Q541 -1177 516.5 -1202.5Q492 -1228 468 -1228H437Q441 -1189 414 -1171Q415 -1162 415 -1143Q399 -1125 395 -1125Q388 -1125 384 -1126.5Q380 -1128 378 -1128Q408 -1078 420 -1060Q418 -1079 418 -1112Q419 -1124 442 -1146.5Q465 -1169 474 -1169Q513 -1169 513 -1090Q541 -1125 541 -1154ZM1809 228V-1461H120V228H515V173H174V-1402H1750V176H1404V228ZM491 -1115Q491 -1128 474 -1145Q442 -1113 442 -1102Q442 -1095 445 -1083Q448 -1071 448 -1066Q491 -1087 491 -1115ZM1679 -133Q1684 -143 1679 -157Q1575 -249 1409 -405Q1369 -445 1226 -633L1029 -891Q956 -986 897 -1038Q854 -1065 788 -1115Q762 -1141 727.5 -1202.5Q693 -1264 669 -1286Q629 -1323 548 -1323Q491 -1323 429 -1311Q406 -1307 393 -1296Q373 -1273 338 -1234Q312 -1213 270 -1179Q259 -1170 250.5 -1144Q242 -1118 246 -1110Q283 -1169 325 -1169Q342 -1169 392 -1155Q388 -1163 371 -1186Q357 -1205 357 -1211Q357 -1254 427 -1254Q561 -1254 561 -1154Q561 -1055 455 -1030Q440 -1045 438 -1045Q431 -1026 417 -1026Q400 -1026 393 -1045Q382 -1072 378 -1077Q391 -1036 393 -974Q394 -895 398 -869Q410 -792 488 -685Q550 -605 612 -526Q702 -411 793 -296Q863 -196 863 -74Q863 -6 849 55Q797 59 705 90V104L711 110H815Q821 110 866.5 105Q912 100 918 100Q920 100 956.5 102.5Q993 105 1014 105L1041 99Q1030 76 982 69Q917 60 902 52Q908 1 914 -100Q917 -105 921 -108Q970 -95 1031 -64V-342Q1164 -323 1255 -163Q1323 -29 1391 105Q1470 56 1592 -26Q1584 -37 1512 -153Q1466 -229 1422 -260Q1315 -335 1135 -424Q841 -570 837 -572Q763 -614 614 -691Q507 -740 472 -791Q417 -871 417 -924Q417 -984 455 -1009Q475 -1022 561 -1050Q651 -1080 677 -1080Q687 -1080 690 -1077V-1064L682 -1056Q615 -1041 547 -1026Q437 -988 437 -914Q437 -853 507 -788Q568 -732 651 -697Q655 -695 924 -553Q1128 -446 1444 -275Q1498 -244 1679 -133ZM364 -1112L336 -1132L331 -1125L359 -1106ZM842 -96Q836 -237 611 -485Q704 -276 704 -131Q704 -65 660 60H682Q702 60 717 48Q733 -11 763 -124Q806 -115 842 -96ZM843 -54Q843 -63 829.5 -78Q816 -93 805 -93H775Q765 -44 745 50Q793 42 833 35Q843 -25 843 -54ZM684 102V93H671V102ZM651 94L646 89L629 106L634 111ZM630 68Q546 68 526 104H553Q558 104 573 98Q576 92 584 82Q601 79 630 68ZM484 102V93H471V102ZM451 94L446 89L429 106L434 111Z"/>
</svg>