<svg xmlns="http://www.w3.org/2000/svg" viewBox="0 -2048 2048 2048">
	<path fill="#000000" d="M1697 -705Q1697 -684 1632 -667Q1518 -637 1375 -642V202H423V-674Q423 -675 402 -701Q321 -800 296 -800Q292 -800 263 -795.5Q234 -791 227 -791Q183 -791 146 -807Q100 -827 100 -864Q100 -895 144 -924Q179 -948 205 -953Q179 -977 153 -1001Q104 -1047 104 -1057Q110 -1078 125 -1087L266 -968Q296 -1002 325 -1035Q375 -1091 384 -1091Q409 -1091 409 -1064Q409 -1041 327 -962Q385 -922 420 -882V-1391H1372V-728H1682Q1697 -719 1697 -705ZM1350 -728V-1368H441V-862Q441 -860 487 -805V-1318H1302V-733Q1335 -733 1350 -728ZM1280 -737V-1300H512V-782H547Q556 -782 679 -820.5Q802 -859 851 -859Q926 -859 1080.5 -798Q1235 -737 1249 -737ZM1670 -703L1303 -709Q1232 -714 1078 -777Q932 -837 851 -837Q795 -837 713 -811Q597 -774 584 -771Q530 -759 525 -759Q499 -759 417 -850Q335 -941 291 -941Q301 -941 229 -939Q215 -939 173 -915Q123 -887 123 -862Q123 -836 162 -821Q193 -809 223 -809Q229 -809 260 -813.5Q291 -818 296 -818Q338 -818 392 -746Q449 -671 484 -665Q541 -655 591 -655Q661 -655 885 -692Q934 -700 921 -700L1417 -659Q1574 -659 1670 -703ZM381 -1052L375 -1058L303 -976L309 -970ZM222 -976L136 -1058L130 -1052L216 -970ZM1280 109V-649L919 -677Q892 -677 778 -654.5Q664 -632 575 -632Q572 -632 552 -632Q531 -631 510 -631V-480H819V109ZM1350 182V-640Q1351 -640 1335.5 -642.5Q1320 -645 1299 -645V128H795V-458H486V-640Q471 -645 442 -659V182ZM273 -902Q262 -891 252 -891Q248 -891 228 -901Q228 -899 242 -927Q263 -927 273 -917ZM750 127H490V-413H750ZM727 109V-390H510V109Z"/>
</svg>