<svg xmlns="http://www.w3.org/2000/svg" viewBox="0 -2048 2048 2048">
	<path fill="currentColor" d="M2050 -414Q2050 -387 2027 -347Q1987 -278 1859 -260Q1812 -253 1657 -253V377H486V-292Q474 -275 461 -257Q444 -235 428 -235Q414 -235 401 -252Q355 -314 296 -343Q240 -362 184 -380Q100 -410 100 -441Q100 -464 125 -480Q133 -485 162 -493Q265 -521 308 -543Q375 -576 427 -641H448Q460 -623 487 -588V-1549H1655V-586H1720Q1875 -587 1949 -552Q1955 -549 1978 -529Q2050 -466 2050 -414ZM1629 -583V-1523H512V-560Q512 -551 575 -527V-1460H1193V-744H1570V-583ZM1546 -581V-719H1166V-1436H601V-520Q676 -503 679 -503ZM2027 -419Q2027 -457 1967 -509Q1958 -518 1938 -533Q1882 -564 1712 -564Q1604 -564 1538 -558L671 -480Q624 -478 540 -517Q501 -535 443 -604Q413 -488 413 -444Q413 -431 441 -273Q446 -283 455 -292Q548 -393 706 -393Q721 -393 854 -380Q1054 -360 1161 -347Q1183 -344 1449 -305Q1508 -294 1623 -279Q1663 -276 1744 -276Q1867 -276 1932 -300Q1985 -320 2006 -357Q2027 -394 2027 -419ZM1546 267V-266Q1420 -287 1166 -324Q1086 -334 861 -356Q718 -370 706 -370Q643 -370 599 -356V267ZM1629 354V-256Q1623 -256 1569 -264V293H575V-345Q553 -338 515 -316V354ZM419 -265Q390 -440 390 -442Q390 -509 413 -590Q348 -527 203 -481Q123 -456 123 -441Q123 -426 202 -399Q300 -366 325 -353Q389 -320 419 -265ZM1569 -806H1254V-1459H1569ZM1546 -832V-1436H1280V-832Z"/>
</svg>