<svg xmlns="http://www.w3.org/2000/svg" viewBox="0 0 1000 1000">
  <g transform="scale(1,-1) translate(0,-1000)">
    <path d="M974 0H25Q14 0 7.0 7.0Q0 14 0.0 25.0Q0 36 7.0 43.0Q14 50 25 50H85V59H15Q9 59 4.5 63.5Q0 68 0 74V159Q0 165 4.5 169.5Q9 174 15 174H85V209H15Q9 209 4.5 213.5Q0 218 0 224V309Q0 315 4.5 319.5Q9 324 15 324H85V359H15Q9 359 4.5 363.5Q0 368 0 374V459Q0 465 4.5 469.5Q9 474 15 474H84V509H15Q9 509 4.5 513.5Q0 518 0 524V609Q0 615 4.5 619.5Q9 624 15 624H84V659H15Q9 659 4.5 663.5Q0 668 0 674V759Q0 765 4.5 769.5Q9 774 15 774H84V811Q84 833 106 833H145V903Q145 909 149.5 913.5Q154 918 160 918H246Q252 918 256.5 913.5Q261 909 261 903V833H295V903Q295 909 299.5 913.5Q304 918 310 918H396Q402 918 406.5 913.5Q411 909 411 903V833H445V903Q445 909 449.5 913.5Q454 918 460 918H546Q552 918 556.5 913.5Q561 909 561 903V833H594V903Q594 909 598.5 913.5Q603 918 609 918H695Q701 918 705.5 913.5Q710 909 710 903V833H744V903Q744 909 748.5 913.5Q753 918 759 918H845Q851 918 855.5 913.5Q860 909 860 903V833H891Q901 833 907.5 827.0Q914 821 914 811V774H985Q991 774 995.5 769.5Q1000 765 1000 759V674Q1000 668 995.5 663.5Q991 659 985 659H914V624H985Q991 624 995.5 619.5Q1000 615 1000 609V524Q1000 518 995.5 513.5Q991 509 985 509H914V474H985Q991 474 995.5 469.5Q1000 465 1000 459V374Q1000 368 995.5 363.5Q991 359 985 359H914V324H985Q991 324 995.5 319.5Q1000 315 1000 309V224Q1000 218 995.5 213.5Q991 209 985 209H914V174H985Q991 174 995.5 169.5Q1000 165 1000 159V74Q1000 68 995.5 63.5Q991 59 985 59H914V50H974Q984 50 991.5 43.0Q999 36 999.0 25.0Q999 14 991.5 7.0Q984 0 974 0ZM870 499H710Q700 499 694.0 505.5Q688 512 688 522V789H129V50H870ZM870 544V789H732V544ZM914 744V689H970V744ZM914 594V539H970V594ZM914 444V389H970V444ZM914 294V239H970V294ZM914 144V89H970V144ZM381 833V888H325V833ZM531 833V888H475V833ZM680 833V888H624V833ZM830 833V888H774V833ZM84 689V744H30V689ZM84 539V594H30V539ZM85 389 84 444H30V389ZM85 239V294H30V239ZM85 89V144H30V89ZM175 833H231V888H175Z" fill="currentColor"/>
  </g>
</svg>