<svg xmlns="http://www.w3.org/2000/svg" viewBox="23.3 -1614.7 2071.4 2051.4">
	<path fill="currentColor" d="M1556 -1440H606V-1538H1556ZM1556 -1224H606V-1322H1556ZM1556 -1008H606V-1106H1556ZM1556 -792H606V-890H1556ZM1556 -576H606V-674H1556ZM1556 -360H606V-458H1556ZM1556 -144H606V-242H1556ZM2018 -193Q1913 -5 1806 94Q1686 206 1477 284Q1273 360 1105 360Q824 360 587 257Q329 144 179 -71Q145 -120 125 -183Q139 -222 152 -261Q168 -306 168 -342Q168 -405 149 -453Q145 -464 100 -553Q168 -584 222 -584Q236 -584 312 -555V-541Q295 -510 261 -446Q272 -369 272 -356Q272 -334 237 -200Q419 12 622.5 107Q826 202 1104 202Q1272 202 1454 136Q1643 68 1762 -42Q1804 -81 1881 -181Q1756 -277 1675 -500Q1690 -510 1734 -510L1766 -509Q1798 -396 1862 -327Q1871 -317 2018 -193ZM1556 72H606V-26H1556ZM1530 -1466V-1512H632V-1466ZM1530 -1250V-1296H632V-1250ZM1530 -1034V-1080H632V-1034ZM1530 -818V-864H632V-818ZM1530 -602V-648H632V-602ZM1530 -386V-432H632V-386ZM1530 -170V-216H632V-170ZM1985 -187Q1864 -287 1840 -314Q1779 -381 1747 -483L1726 -484Q1723 -484 1709 -483Q1782 -289 1917 -186Q1875 -129 1780 -23Q1657 90 1464 160Q1277 228 1104 228Q815 228 604 128Q399 30 208 -193Q246 -335 246 -356Q246 -373 234 -450Q250 -479 282 -539Q243 -558 222 -558Q184 -558 136 -540Q194 -430 194 -342Q194 -317 152 -183Q171 -128 200 -86Q345 123 599 233Q831 334 1105 334Q1269 334 1469.5 259Q1670 184 1788 75Q1888 -17 1985 -187ZM1530 46V0H632V46Z"/>
</svg>