<svg xmlns="http://www.w3.org/2000/svg" viewBox="14.5 -1026.5 2308 1112">
	<path fill="currentColor" d="M2237 -577Q2214 -553 2144 -507.5Q2074 -462 2039 -425L2146 -290Q2146 -290 2115 -259Q2113 -261 2001 -389Q1998 -389 1983 -374Q2017 -332 2084 -245Q2079 -234 2053 -208Q2015 -250 1931 -332Q1931 -328 1921 -318L2022 -188Q2017 -183 2001 -169.5Q1985 -156 1980 -151L1884 -276Q1769 -182 1738 -159Q1662 -105 1599 -81H2236V0H100V-82H1069Q1001 -109 947 -138Q818 -207 666 -405Q545 -563 424 -721Q286 -873 156 -873Q150 -873 136.5 -870.5Q123 -868 118 -868Q105 -881 105 -890Q105 -941 187 -941Q315 -941 420 -859Q462 -826 511 -764Q593 -662 596 -658Q774 -455 888 -355Q972 -281 1111 -237Q1240 -197 1368 -197Q1576 -197 1808 -352Q1792 -379 1707 -493Q1712 -495 1755 -524L1857 -394Q1862 -394 1876 -408Q1866 -424 1820 -486Q1786 -533 1786 -541Q1786 -549 1811 -574Q1827 -558 1866 -516Q1905 -474 1929 -450L1943 -465L1842 -588Q1848 -602 1879 -631L1986 -501Q2097 -603 2183 -603Q2227 -603 2237 -577ZM1967 -484L1880 -599L1872 -593L1959 -479ZM2123 -285L2025 -408L2017 -402L2115 -280ZM1905 -428L1818 -543L1810 -537L1897 -423ZM2061 -238L1964 -353L1956 -347L2053 -233ZM1837 -373L1750 -488L1742 -482L1829 -368ZM1995 -187L1908 -302L1901 -296L1987 -182ZM2197 -579H2167Q2116 -579 1992 -472Q1822 -328 1732 -275Q1552 -168 1368 -168Q1216 -168 1039 -232Q959 -261 865 -338Q777 -410 619 -590Q538 -686 456 -783Q345 -901 266 -903Q260 -903 249 -908Q238 -913 231 -913H146L139 -897Q305 -888 444 -739Q465 -716 672 -434Q812 -242 947 -172Q994 -146 1076 -102Q1108 -86 1128 -85Q1145 -84 1329 -84Q1327 -84 1372 -81.5Q1417 -79 1451 -79Q1500 -79 1529 -85Q1651 -108 1756 -199Q1855 -293 2050 -472Q2103 -510 2197 -579ZM2208 -28V-55H128V-28Z"/>
</svg>