<svg xmlns="http://www.w3.org/2000/svg" viewBox="0 -2048 2048 2048">
	<path fill="currentColor" d="M2308 -908Q2308 -875 2270 -817Q2209 -723 2148 -629Q2076 -529 1990 -470Q2003 -432 2034 -379Q2037 -376 2065 -361Q2150 -314 2179 -242Q2200 -189 2200 -80Q2194 -72 2182 -72Q2107 -72 2047 -144Q1990 -213 1990 -289Q1990 -297 1994.5 -313.5Q1999 -330 1999 -338Q1999 -358 1946 -435Q1887 -389 1828 -344Q1758 -292 1700 -267Q1617 -230 1534 -214Q1514 -211 1475 -202L1573 40H841L938 -198H176Q165 -198 165 -212Q165 -216 189 -243Q216 -275 218 -278Q288 -383 288 -589Q288 -596 277 -653Q255 -773 194 -1009Q157 -1090 100 -1258Q134 -1284 147 -1284Q177 -1284 201 -1250Q213 -1211 235 -1144Q281 -1009 346 -893Q349 -887 396 -817Q417 -783 465 -719Q590 -575 801 -475Q862 -446 997 -423Q1121 -402 1202 -402Q1332 -402 1450 -418Q1492 -427 1575 -445Q1679 -466 1873 -567Q1515 -1242 1515 -1249Q1515 -1281 1551 -1281Q1561 -1281 1565 -1274L1922 -599Q2128 -755 2216 -891Q2226 -912 2236 -934Q2246 -952 2274 -963Q2308 -942 2308 -908ZM1903 -586L1546 -1248L1541 -1244Q1552 -1219 1673 -993L1894 -579ZM2174 -95V-146Q2174 -152 2170 -173Q2153 -262 2127 -286Q2079 -320 2032 -354Q2024 -361 1972 -455L1964 -449Q2021 -352 2021 -334Q2021 -325 2016.5 -309Q2012 -293 2012 -284Q2012 -223 2064.5 -160Q2117 -97 2174 -95ZM2282 -908Q2282 -925 2271 -933Q2264 -927 2237 -876Q2202 -810 2102 -714Q2012 -627 1937 -578Q1627 -376 1202 -376Q1116 -376 992 -398Q857 -421 790 -452Q527 -574 374 -803Q259 -975 195 -1192Q186 -1223 180 -1233Q168 -1255 147 -1257L129 -1247Q161 -1171 219 -1017Q251 -923 309 -627Q314 -602 314 -589Q314 -347 207 -224L1471 -228Q1476 -228 1528 -239Q1646 -264 1744 -322Q1792 -350 1931 -456Q2104 -587 2267 -859Q2282 -884 2282 -908ZM1541 19L1452 -198H962L874 19Z"/>
</svg>