<svg xmlns="http://www.w3.org/2000/svg" viewBox="19.2 -897.8 2182.7 978.7">
	<path fill="currentColor" d="M2121 -767Q2109 -755 2109 -748Q2030 -796 2017 -796Q1967 -796 1938 -773Q1863 -713 1805 -584Q1742 -445 1677 -382H2120V0H101V-383H517Q454 -464 433 -509Q398 -585 355 -685Q340 -721 276 -757Q218 -790 186 -790Q165 -790 113 -764L100 -777Q108 -790 138.5 -803.5Q169 -817 188 -817Q211 -817 258 -798Q309 -777 329 -756Q357 -726 383 -674Q406 -627 429 -581Q462 -517 495 -454Q542 -384 605 -384Q647 -384 657 -395Q672 -411 796 -591Q886 -721 984 -772Q1040 -801 1100 -801Q1222 -801 1327 -693Q1337 -683 1482 -492Q1565 -384 1632 -384Q1652 -384 1696 -436Q1731 -478 1740 -495Q1773 -579 1855 -736Q1909 -817 2006 -817Q2043 -817 2121 -767ZM1549 -380Q1472 -454 1384 -575Q1303 -686 1265 -718Q1197 -774 1100 -774Q980 -774 869 -640Q776 -510 683 -380ZM2096 -27V-357H122V-27Z"/>
</svg>