<svg xmlns="http://www.w3.org/2000/svg" viewBox="0 -2048 2048 2048">
	<path fill="currentColor" d="M2108 -547Q1818 -268 1437 -158H2107V0H101V-159H832Q805 -165 753 -179Q730 -187 682 -199Q509 -228 309 -387Q100 -555 100 -690Q100 -674 122 -764Q132 -803 185 -842Q238 -881 274 -880Q373 -878 384 -883Q423 -900 456 -963Q484 -1016 511 -1069Q539 -1042 539 -1001Q539 -981 514 -906Q585 -888 685 -844Q652 -800 528 -786Q519 -777 519 -776Q519 -774 529 -752Q539 -730 539 -708Q539 -688 526 -659Q511 -625 491 -615Q491 -615 447 -715Q421 -775 364 -800Q362 -801 325 -801Q191 -801 191 -688Q191 -627 229 -584Q257 -551 341 -496Q683 -272 1142 -272Q1582 -272 1946 -541L1689 -667Q1716 -703 1792 -764Q1901 -853 1914 -865Q1917 -894 1917 -962Q1947 -953 1996 -930Q2056 -887 2077 -797Q2062 -794 2028 -797Q1986 -801 1989 -801Q1953 -801 1830 -688ZM2072 -547Q2051 -559 1809 -676Q1795 -687 1795 -692Q1956 -826 1974 -826Q1998 -826 2046 -817Q2043 -841 2006 -882Q1967 -927 1942 -927Q1942 -869 1940 -856Q1842 -783 1724 -672Q1811 -632 1978 -548Q1982 -546 1982 -538Q1802 -398 1573 -321Q1352 -246 1139 -246Q918 -246 697 -310Q451 -381 281 -511Q209 -566 190 -594Q166 -628 166 -690Q166 -759 217 -795Q260 -826 325 -826Q367 -826 379 -820Q434 -793 463 -738Q480 -697 496 -655Q514 -673 514 -705Q514 -739 453 -839Q475 -857 498 -918Q519 -976 519 -1006Q519 -1015 511 -1023Q503 -993 470 -936Q422 -857 380 -857Q374 -857 357.5 -859.5Q341 -862 335 -862Q268 -862 218 -840Q180 -823 151 -765Q125 -715 125 -678Q125 -582 295 -429Q446 -294 532.5 -268.5Q619 -243 753 -204Q902 -156 921 -156H1308Q1313 -156 1349 -164Q1803 -265 2072 -547ZM640 -844Q589 -861 505 -882Q503 -876 493.5 -860.5Q484 -845 484 -837Q484 -829 497 -817.5Q510 -806 519 -806Q539 -806 640 -844ZM2082 -25V-130H126V-25Z"/>
</svg>