<svg xmlns="http://www.w3.org/2000/svg" viewBox="0 -2048 2048 2048">
	<path fill="currentColor" d="M2333 -324Q2274 -263 2142 -196Q2222 -178 2286 -85Q2302 -62 2328 6V172H104V0H888Q247 -168 100 -353Q100 -356 103.5 -363Q107 -370 107 -373H125Q120 -373 155 -358Q262 -310 370 -261Q519 -195 616 -166Q728 -132 818 -116Q1021 -79 1167 -75H1198V-374Q1173 -353 1161 -311Q1153 -275 1146 -239Q1136 -239 1128 -242Q1120 -245 1119 -245Q1126 -287 1157 -344Q1183 -391 1209 -437Q1168 -459 1127 -481Q1096 -501 1096 -545Q1096 -599 1169 -635Q1015 -717 866 -880Q728 -1031 658 -1178H644Q638 -1178 621.5 -1166.5Q605 -1155 598 -1155Q588 -1155 572 -1169Q556 -1183 556 -1192Q556 -1239 710 -1292Q915 -1363 1042 -1389Q1164 -1414 1203 -1414Q1341 -1414 1493 -1374Q1552 -1358 1764 -1286Q1790 -1278 1842 -1258Q1871 -1248 1899 -1238Q1934 -1221 1934 -1192Q1934 -1155 1900 -1155Q1883 -1155 1837 -1178Q1777 -1026 1620 -859Q1457 -685 1310 -629Q1350 -610 1362 -595Q1377 -577 1377 -539Q1377 -490 1350 -477Q1291 -446 1287 -443Q1289 -433 1329 -364Q1366 -300 1366 -270V-239H1339Q1344 -343 1289 -379V-80Q1516 -80 1738 -147V-375L1574 -494Q1574 -494 1592 -530Q1618 -530 1664 -497Q1699 -472 1734 -446Q1737 -449 1737 -608Q1753 -626 1768 -626Q1780 -626 1793 -613V-417L2039 -238L2305 -362Q2320 -362 2333 -349ZM1416 -1311Q1414 -1311 1359 -1318Q1324 -1322 1288 -1312V-1144Q1371 -1215 1416 -1311ZM1540 -1270V-1289Q1510 -1295 1446 -1307Q1387 -1152 1288 -1109V-953Q1439 -1046 1525 -1241Q1540 -1275 1540 -1270ZM1912 -1195Q1901 -1210 1859 -1226Q1436 -1386 1211 -1386Q1107 -1386 900 -1328Q709 -1274 614 -1226Q592 -1215 584 -1197Q590 -1191 591 -1184Q962 -1340 1183 -1348Q1195 -1348 1220 -1353Q1245 -1358 1251 -1358Q1264 -1358 1357 -1342Q1410 -1336 1462 -1329Q1544 -1318 1598 -1294Q1854 -1183 1895 -1183Q1904 -1183 1912 -1195ZM1675 -1244L1570 -1279Q1481 -1026 1288 -924Q1288 -902 1291 -853.5Q1294 -805 1294 -790Q1428 -881 1535 -1009Q1638 -1134 1675 -1244ZM1810 -1187Q1802 -1190 1758 -1212Q1725 -1228 1717 -1228H1699Q1655 -1111 1535 -969Q1410 -821 1287 -749Q1291 -729 1297 -655Q1437 -700 1604 -877Q1765 -1048 1810 -1187ZM1200 -1139V-1312Q1158 -1321 1125 -1318Q1078 -1312 1080 -1312Q1117 -1217 1200 -1139ZM2288 -14V-34Q2282 -46 2269 -68Q2258 -85 2212 -123Q2161 -165 2144 -165H2081V-118Q2081 -90 2166 -50Q2243 -14 2264 -14ZM1202 -953V-1103Q1121 -1156 1049 -1307Q985 -1296 944 -1283Q1039 -1040 1202 -953ZM1993 -236L1689 -453L1684 -445L1987 -229ZM1264 -465V-1329H1236V-453Q1253 -453 1264 -465ZM1968 -207L1795 -334V-154Q1853 -172 1968 -207ZM1202 -790V-918Q1096 -980 1020 -1089Q987 -1137 914 -1279Q914 -1279 809 -1244Q860 -1125 969 -995Q1087 -855 1202 -790ZM2204 -3Q2154 -17 2108 -47Q2049 -86 2049 -126Q2049 -134 2051 -142Q1809 -37 1569 2H1602Q1589 1 1628 -3ZM1202 -649V-760Q1075 -826 946 -975Q820 -1120 785 -1234Q750 -1219 686 -1193Q730 -1057 896 -886Q1054 -724 1202 -649ZM1355 -542Q1355 -561 1334 -582Q1313 -603 1288 -603V-481Q1305 -483 1330 -504.5Q1355 -526 1355 -542ZM1202 -475V-609H1177Q1161 -606 1144 -586Q1124 -565 1124 -545Q1124 -515 1150 -501Q1176 -487 1202 -475ZM1264 -76V-400Q1257 -406 1245 -418Q1245 -418 1236 -414Q1231 -411 1231 -403V-76ZM2299 -327Q2058 -204 1793 -129Q1501 -47 1259 -47Q762 -47 329 -253Q268 -278 151 -332Q374 -183 648 -92Q952 9 1239 9Q1366 9 1610 -39Q1823 -81 1927 -116Q1962 -128 2163 -236Q2227 -271 2299 -327ZM2305 144V27H129V144Z"/>
</svg>