<svg xmlns="http://www.w3.org/2000/svg" viewBox="0 -2048 2048 2048">
	<path fill="#000000" d="M2117 -492Q2117 -452 1970 -381Q1921 -353 1819 -302Q1760 -283 1639 -244V-120H2116V0H101V-118H576V-255Q351 -344 346 -346Q215 -403 132 -468Q110 -485 100 -516Q100 -516 105 -526Q107 -533 115 -533Q104 -533 446 -394Q604 -330 808 -293Q832 -286 870 -279H894V-694L672 -559Q661 -579 644 -615L1251 -983V-1279H1321V-1025L1705 -1254Q1717 -1234 1738 -1199L1318 -944V-278Q1322 -274 1329 -274Q1394 -274 1569 -317Q1599 -327 1657 -345Q1768 -374 1843 -405Q1880 -420 1988 -470Q2076 -512 2083 -512H2110Q2117 -505 2117 -492ZM1293 -1006V-1253H1277V-1008Q1277 -1006 1293 -1006ZM1702 -1209L1694 -1218L670 -609L683 -596ZM1291 -270V-932Q1279 -921 1272 -921V-270ZM1245 -261V-901L956 -729V-261L964 -264Q1076 -256 1245 -261ZM2087 -481L2083 -487Q1932 -395 1657 -317Q1356 -233 1124 -233Q1118 -233 1058 -239Q993 -245 974 -246Q632 -267 147 -491Q209 -438 252 -416Q437 -323 651 -259Q899 -186 1087 -186Q1332 -186 1612 -263Q1920 -347 2087 -481ZM934 -275V-714L920 -708V-275ZM1613 -119V-237H1595Q1293 -165 1106 -165Q906 -165 604 -248V-119ZM2095 -26V-95H127V-26Z"/>
</svg>