<svg xmlns="http://www.w3.org/2000/svg" viewBox="0 -2048 2048 2048">
	<path fill="#000000" d="M2230 277H102V81H820Q522 4 309 -241Q223 -340 160 -452Q100 -559 100 -602Q100 -616 118 -630.5Q136 -645 150 -644Q186 -533 284 -407Q377 -287 478 -213Q507 -196 564 -161L1100 -776Q938 -789 755 -796V-819H817Q755 -892 736 -935Q712 -987 712 -1074Q712 -1145 731 -1183Q738 -1197 795 -1273Q767 -1273 742 -1269Q736 -1279 735 -1291Q840 -1299 1051 -1313Q1097 -1372 1126 -1417H1203Q1221 -1392 1282 -1313Q1398 -1307 1630 -1286L1628 -1272Q1540 -1274 1555 -1274Q1543 -1274 1526 -1270Q1507 -1252 1485 -1212Q1443 -1134 1443 -1084Q1443 -1015 1473 -934Q1479 -918 1553 -817Q1563 -816 1607 -817L1609 -801L1221 -776L1763 -155Q1825 -187 1946 -301L1804 -569L1849 -594L1990 -337Q2053 -389 2131 -519Q2141 -551 2170 -609Q2183 -628 2198 -628Q2206 -628 2217.5 -616.5Q2229 -605 2229 -596Q2229 -585 2200.5 -512.5Q2172 -440 2163 -423Q2149 -398 2100 -334.5Q2051 -271 2030 -251L2103 -115Q2108 -118 2113 -118Q2120 -118 2141.5 -101.5Q2163 -85 2167.5 -77.5Q2172 -70 2186 -8Q2200 54 2200 65Q2200 75 2192 82H2230ZM1250 -1315Q1245 -1322 1211 -1366V-1316Q1224 -1316 1250 -1315ZM1115 -1315V-1360Q1104 -1345 1082 -1315Q1089 -1316 1115 -1315ZM1523 -817Q1470 -878 1454 -920Q1420 -1009 1420 -1084Q1420 -1130 1443 -1187Q1466 -1244 1498 -1275L1211 -1294V-800ZM1978 -326L1841 -566L1832 -562L1962 -314Q1968 -318 1978 -326ZM2178 62Q2178 46 2165 -6Q2152 -58 2145 -70Q2132 -91 2110 -96Q2107 -93 2100 -93Q2088 -93 2016 -234L2007 -225L2079 -91Q2055 -55 2055 -52Q2055 -29 2099.5 22Q2144 73 2166 74Q2178 70 2178 62ZM1184 -277V-1391H1142V-277ZM1115 -800V-1295Q1113 -1295 823 -1274Q797 -1238 771 -1202Q741 -1157 739 -1121Q739 -1112 736.5 -1093Q734 -1074 734 -1075Q734 -1065 736 -1048Q739 -1027 739 -1021Q744 -943 848 -818Q1081 -800 1115 -800ZM2130 81Q2032 0 2032 -54Q2032 -65 2054 -91L1992 -207Q1770 18 1476 81ZM1743 -143L1211 -754V-277H1424Q1450 -277 1450 -303Q1450 -318 1439 -318Q1426 -318 1399.5 -314.5Q1373 -311 1360 -311Q1324 -311 1242 -317Q1255 -353 1283 -358Q1311 -363 1340 -368Q1376 -411 1426 -411Q1460 -411 1487 -381.5Q1514 -352 1514 -317Q1514 -276 1483.5 -247.5Q1453 -219 1412 -219H1211V-14H1321Q1333 -14 1376 -21Q1414 -26 1489 -40Q1597 -68 1689 -110Q1707 -121 1743 -143ZM1350 -337L1347 -344Q1335 -340 1322 -338Q1338 -337 1336 -337ZM1488 -317Q1488 -340 1468.5 -362.5Q1449 -385 1426 -385Q1397 -385 1371 -362Q1371 -348 1379 -338Q1424 -344 1429 -344Q1476 -344 1476 -303Q1476 -284 1454.5 -267.5Q1433 -251 1414 -251H913Q894 -251 872.5 -267.5Q851 -284 851 -303Q851 -344 898 -344Q903 -344 948 -338Q956 -348 956 -362Q929 -385 901 -385Q878 -385 858.5 -362.5Q839 -340 839 -317Q839 -287 862 -266Q885 -245 915 -245H1412Q1442 -245 1465 -266Q1488 -287 1488 -317ZM2207 -595Q2207 -600 2196 -604Q2182 -572 2152 -509Q2100 -414 2032 -345Q1851 -160 1665 -77Q1470 10 1219 10Q1043 10 911 -9Q678 -42 466 -193Q461 -196 399 -253Q369 -278 315 -333Q295 -362 254 -418Q188 -506 136 -619L123 -602Q133 -548 184 -456Q345 -168 612 -25Q743 45 898 75Q939 83 927 83H1356Q1344 83 1385 75Q1416 70 1479 57Q1678 11 1839 -103Q2028 -237 2142 -433Q2151 -448 2179 -517Q2207 -586 2207 -595ZM1005 -338Q992 -340 980 -344L977 -337H986Q992 -337 1005 -338ZM1184 -13V-219H1142V-13Q1163 -14 1184 -13ZM1115 -14V-219H915Q874 -219 843.5 -247.5Q813 -276 813 -317Q813 -352 840 -381.5Q867 -411 901 -411Q951 -411 987 -368Q1016 -363 1044 -358Q1072 -353 1085 -317Q1003 -311 967 -311Q954 -311 927.5 -314.5Q901 -318 888 -318Q877 -318 877 -303Q877 -277 903 -277H1115V-759L589 -149Q797 -14 1115 -14ZM2206 251V109H126V251ZM1427 -362Q1427 -346 1410 -346Q1393 -346 1393 -362Q1393 -378 1410 -378Q1427 -378 1427 -362ZM934 -362Q934 -346 917 -346Q900 -346 900 -362Q900 -378 917 -378Q934 -378 934 -362Z"/>
</svg>