<svg xmlns="http://www.w3.org/2000/svg" viewBox="18.5 -1135.5 2200 1278">
	<path fill="currentColor" d="M2137 -579Q2110 -538 2054 -455Q1901 -226 1532 -99H2115V61H174V-100H726Q687 -114 607 -147Q472 -210 369 -293Q324 -330 236 -427Q121 -555 121 -604Q121 -609 139 -661Q160 -720 167 -747Q168 -751 168 -801Q168 -900 100 -1021Q157 -1054 224 -1054Q246 -1054 326 -1026Q307 -989 275 -919Q272 -911 275 -896Q279 -876 279 -873V-740Q279 -733 263 -688Q247 -643 247 -636Q247 -603 395 -480Q525 -371 572 -344Q741 -249 901 -227Q1032 -693 1032 -738Q1032 -748 1006 -761V-777Q1006 -784 1029.5 -807.5Q1053 -831 1053 -838Q1053 -862 1012 -899Q971 -936 969 -947Q986 -964 993 -964H1384Q1384 -962 1387 -953Q1390 -944 1390 -938Q1390 -923 1341 -884Q1331 -876 1307 -835Q1305 -827 1305 -815Q1309 -811 1329 -798Q1342 -790 1342 -780Q1342 -773 1331.5 -756.5Q1321 -740 1321 -733L1425 -227Q1480 -243 1581 -276Q1699 -320 1828 -418Q1919 -487 1992 -583Q2003 -586 2029 -586Q2033 -586 2074.5 -582.5Q2116 -579 2137 -579ZM1362 -934V-943H1006V-934ZM1321 -905H1042Q1084 -863 1074 -813H1284Q1278 -855 1321 -905ZM1310 -774V-785L1032 -786V-774ZM2100 -558H2002Q1842 -361 1601 -261Q1395 -175 1174 -175Q583 -175 216 -631Q246 -682 256 -767Q251 -830 249 -920Q251 -940 270 -969Q293 -1004 295 -1011Q248 -1033 221 -1033Q187 -1033 149 -1020Q137 -1013 137 -1003Q165 -965 172 -940Q195 -852 195 -772Q195 -761 171 -689Q147 -617 147 -615Q147 -569 256 -444Q360 -325 433 -277Q553 -199 669 -147.5Q785 -96 798 -96H1439Q1430 -96 1519 -121Q1865 -218 2049 -487Q2073 -522 2100 -558ZM1395 -224L1289 -748H1059L932 -231Q932 -226 938 -218Q1066 -201 1174 -201Q1307 -201 1395 -224ZM2094 35V-69H196V35Z"/>
</svg>