<svg xmlns="http://www.w3.org/2000/svg" viewBox="0 -2048 2048 2048">
	<path fill="currentColor" d="M2010 -1341Q1947 -1237 1947 -1125Q1947 -1081 1948 -1077Q1953 -1058 1971 -1009Q1986 -967 1986 -961Q1986 -909 1888 -792Q1805 -692 1750 -650Q1680 -597 1617 -561.5Q1554 -526 1471 -496Q1353 -452 1345 -449V-113H2009V0H100V-111H765V-449Q568 -514 461 -570Q289 -662 191 -796Q160 -838 105 -919V-937H230Q372 -753 645 -639H658Q684 -758 817 -839Q931 -908 1038 -908Q1039 -908 1119 -894Q1324 -858 1415 -686Q1423 -670 1437 -654Q1506 -678 1571.5 -718Q1637 -758 1685 -796.5Q1733 -835 1803 -903.5Q1873 -972 1873 -981Q1873 -986 1860 -1019.5Q1847 -1053 1845 -1066Q1839 -1107 1844 -1159Q1850 -1214 1847 -1242Q1845 -1264 1825 -1296Q1799 -1337 1795 -1346Q1856 -1377 1890 -1377Q1934 -1377 2010 -1341ZM1981 -1330Q1949 -1352 1895 -1352Q1856 -1352 1825 -1336Q1847 -1307 1871 -1247Q1866 -1188 1865 -1086Q1868 -1061 1883 -1021Q1898 -981 1898 -979Q1898 -964 1797.5 -867Q1697 -770 1650 -737Q1560 -674 1450 -630Q1241 -546 1006 -546Q821 -546 591 -640Q325 -749 224 -910Q203 -913 195 -913Q190 -913 167 -909.5Q144 -906 134 -906Q158 -873 196 -821Q323 -644 558 -542Q785 -443 1043 -443Q1148 -443 1236 -455Q1643 -511 1898 -840Q1966 -928 1966 -961Q1966 -967 1950 -997Q1932 -1031 1928 -1043Q1922 -1063 1922 -1120Q1922 -1280 1981 -1330ZM1409 -640Q1374 -749 1253 -820Q1147 -883 1045 -883Q1029 -883 976 -877Q912 -870 795 -793Q768 -775 727 -724Q681 -666 681 -636Q681 -625 687 -625Q901 -566 1001 -566Q1245 -566 1409 -640ZM1320 -112V-448Q1193 -426 1063 -418V-112ZM1037 -112V-418Q946 -421 916 -423Q833 -430 785 -448V-112ZM1990 -24V-91H120V-24Z"/>
</svg>