<svg xmlns="http://www.w3.org/2000/svg" viewBox="0 -2048 2048 2048">
	<path fill="#000000" d="M2186 -778Q2186 -748 2130 -634Q2102 -578 2003 -451L2051 -361Q2101 -363 2142 -279Q2177 -207 2177 -150Q2177 -124 2168 -106H2184V85H100V-106H823Q677 -135 530 -230Q389 -320 290 -441Q225 -521 166 -633Q102 -755 102 -785Q102 -795 105 -815L146 -828Q244 -632 327 -537Q423 -426 598 -326Q662 -298 791 -243L939 -929H917Q908 -949 908 -965Q908 -994 948 -1012V-1061Q948 -1096 836 -1173Q834 -1181 834 -1188Q834 -1207 853 -1224H1439Q1454 -1206 1454 -1194Q1454 -1184 1443 -1162Q1340 -1081 1340 -1058Q1340 -1045 1343 -1012Q1386 -994 1386 -971Q1386 -957 1355 -931L1502 -242Q1517 -248 1564 -264Q1746 -328 1908 -484L1698 -878L1759 -910L1958 -535Q2054 -638 2093 -711Q2106 -741 2119 -770Q2138 -807 2164 -809Q2186 -792 2186 -778ZM1940 -516L1749 -875L1734 -867L1927 -503ZM2150 -156Q2150 -208 2119 -270Q2082 -344 2036 -335L1986 -429L1974 -415L2019 -330Q1995 -314 1995 -293Q1995 -254 2050 -195Q2099 -142 2141 -120Q2150 -134 2150 -156ZM1433 -1193L1430 -1198L858 -1194L867 -1178H1425ZM1396 -1154H899Q978 -1093 974 -1013H1317Q1316 -1068 1333 -1096Q1348 -1121 1396 -1154ZM1361 -973Q1361 -987 1341 -987H951Q933 -987 933 -955H1352Q1361 -964 1361 -973ZM2109 -106Q2068 -133 2022 -190Q1970 -256 1970 -295Q1970 -320 1987 -336L1956 -394Q1867 -297 1731 -216.5Q1595 -136 1467 -106ZM1477 -233V-242L1332 -929H966L815 -236Q989 -197 1125 -197Q1330 -197 1477 -233ZM2161 -775L2157 -783Q2148 -773 2115 -708Q2096 -670 2029 -586Q1944 -479 1827 -389Q1660 -261 1494 -214Q1351 -174 1120 -174Q734 -174 453 -385Q224 -557 135 -802L124 -796V-785Q124 -747 255 -535Q271 -508 307 -455Q374 -365 496 -279Q612 -198 724 -157Q866 -106 1196 -106Q1374 -106 1476 -132Q1694 -188 1868 -338Q2037 -485 2132 -694Q2153 -741 2161 -775ZM2158 59V-80H126V59Z"/>
</svg>