<svg xmlns="http://www.w3.org/2000/svg" viewBox="0 -2048 2048 2048">
	<path fill="#000000" d="M2694 -793Q2694 -751 2665.5 -712Q2637 -673 2598 -658Q2564 -656 2513 -635Q2509 -631 2486 -574Q2431 -441 2355 -341Q2435 -283 2584 -201Q2649 -165 2649 -136Q2649 -128 2638 -118.5Q2627 -109 2619 -109Q2584 -109 2463 -197Q2337 -290 2317 -294Q2308 -266 2266 -226Q1966 59 1612 95H2502V237H289V95H1153Q943 59 779 -53Q727 -87 627 -163Q573 -210 497 -303Q423 -248 348 -194Q239 -118 194 -118Q182 -118 159 -134Q162 -150 178 -179Q226 -222 314 -271Q457 -349 458 -350Q346 -491 311 -631Q286 -634 238 -646Q199 -662 159 -705Q114 -753 114 -790V-817H192Q191 -824 187 -844Q184 -861 184 -872Q184 -878 186 -891Q188 -904 188 -910Q188 -959 145 -977Q129 -944 120 -944Q100 -944 100 -972Q100 -1001 113 -1016Q131 -1030 149 -1044Q160 -1057 181 -1083Q134 -1095 143 -1156L134 -1169V-1189Q155 -1197 167 -1197Q182 -1197 191 -1188Q194 -1210 204 -1253Q227 -1319 315 -1319Q375 -1319 409 -1285Q421 -1273 434.5 -1236Q448 -1199 448 -1181Q448 -1177 447 -1169Q446 -1161 446 -1157Q446 -1125 471 -1103L465 -1078H461Q453 -1078 448 -1079Q433 -1093 410 -1126Q395 -1106 374 -1100Q460 -1064 486 -985Q496 -956 510 -820Q536 -817 572 -818Q578 -807 578 -793Q578 -761 547 -721Q520 -686 489 -667Q488 -667 418 -640Q457 -537 573 -416L787 -543L773 -563Q839 -619 852 -619Q899 -619 924 -592Q934 -563 934 -548Q934 -539 915 -526H889L898 -539V-542H894Q887 -542 836 -490Q823 -496 813 -508L614 -376Q715 -275 806 -224Q876 -184 1030 -128L1116 -864L1091 -865Q1077 -895 1077 -901Q1077 -907 1081 -918Q1085 -929 1086 -933Q1097 -940 1111 -940Q1109 -1001 997 -1067V-1101Q897 -1112 897 -1177Q897 -1223 920 -1249L901 -1250Q878 -1278 878 -1287Q878 -1298 894.5 -1308.5Q911 -1319 923 -1319Q1008 -1319 1008 -1243Q1008 -1237 994 -1209.5Q980 -1182 980 -1168Q980 -1160 987 -1157H995Q995 -1284 1106 -1318Q1148 -1331 1164 -1331Q1230 -1331 1336 -1297Q1421 -1269 1506 -1240Q1648 -1196 1847 -1129L1854 -1121V-1064Q1843 -1063 1825 -1054Q1804 -1044 1768 -1013Q1745 -979 1743 -939H1754Q1774 -907 1774 -899Q1774 -892 1760 -866L1740 -864Q1740 -857 1740 -857L1813 -131L1814 -132Q1824 -133 1871 -152Q2058 -226 2201 -364L1998 -503Q1994 -498 1982 -480Q1976 -483 1951 -511Q1929 -534 1919 -534Q1911 -534 1915 -516Q1877 -519 1877 -542Q1877 -613 1953 -613Q1969 -613 1995 -595Q2015 -580 2035 -566Q2030 -552 2022 -539L2243 -410Q2285 -451 2336 -521Q2379 -579 2422 -638Q2394 -642 2342 -657Q2332 -661 2310 -683Q2255 -737 2253 -739Q2242 -756 2232 -818H2310Q2309 -825 2305 -845Q2302 -862 2302 -873Q2302 -879 2304 -892Q2306 -905 2306 -911Q2306 -960 2263 -978Q2247 -945 2238 -945Q2218 -945 2218 -973Q2218 -1002 2231 -1017Q2249 -1031 2267 -1045Q2278 -1058 2299 -1084Q2252 -1096 2261 -1157L2252 -1170V-1190Q2273 -1198 2285 -1198Q2300 -1198 2309 -1189Q2312 -1211 2322 -1254Q2345 -1320 2433 -1320Q2493 -1320 2527 -1286Q2539 -1274 2552.5 -1237Q2566 -1200 2566 -1182Q2566 -1178 2565 -1170Q2564 -1162 2564 -1158Q2564 -1126 2589 -1104L2583 -1079H2579Q2571 -1079 2566 -1080Q2551 -1094 2528 -1127Q2513 -1107 2492 -1101Q2578 -1065 2604 -986Q2614 -957 2628 -821Q2654 -818 2690 -819Q2694 -810 2694 -793ZM2537 -1198Q2537 -1225 2525 -1250Q2503 -1296 2412 -1296Q2378 -1296 2356.5 -1266Q2335 -1236 2335 -1201Q2335 -1112 2442 -1112Q2477 -1112 2507 -1138Q2537 -1164 2537 -1198ZM2362 -1112Q2353 -1117 2344 -1125Q2343 -1113 2340 -1106ZM2298 -1167L2293 -1172H2277L2297 -1165ZM2605 -820V-825Q2605 -987 2538 -1045Q2484 -1092 2424 -1092Q2451 -1063 2451 -1000Q2451 -974 2427 -935Q2406 -906 2386 -876Q2376 -861 2354 -820ZM2293 -1151Q2290 -1150 2283 -1148V-1128Q2283 -1122 2292 -1115Q2290 -1120 2290 -1123V-1135Q2290 -1138 2293 -1151ZM2330 -1042L2324 -1048H2322L2316 -1041L2322 -1036H2324ZM2429 -1002Q2429 -1093 2379 -1093Q2324 -1093 2304 -1056Q2318 -1058 2323 -1058Q2346 -1058 2346 -1034Q2346 -1044 2334 -976Q2319 -983 2287 -990Q2329 -962 2329 -912Q2329 -905 2326.5 -891.5Q2324 -878 2324 -871Q2324 -853 2332 -828Q2429 -983 2429 -1002ZM2297 -1044Q2274 -1032 2247 -996Q2263 -1006 2278 -1015Q2297 -1027 2297 -1044ZM2669 -772V-792H2258Q2262 -775 2275 -745Q2339 -655 2443 -655Q2619 -655 2660 -743Q2669 -762 2669 -772ZM2625 -140Q2615 -159 2536 -206Q2471 -244 2340 -321L2332 -310Q2608 -132 2616 -132Q2622 -132 2625 -140ZM1773 -1130Q1677 -1162 1485 -1224Q1406 -1251 1326 -1277Q1226 -1308 1165 -1308Q1148 -1308 1122 -1299Q1017 -1263 1017 -1170Q1017 -1148 1022 -1130ZM2227 -392L2033 -506L2219 -384Q2223 -387 2227 -392ZM1828 -1089V-1103H1020V-1089ZM2006 -557Q1960 -591 1950 -591Q1901 -591 1900 -551Q1907 -559 1920 -559Q1938 -559 1953 -542Q1964 -526 1976 -511Q1996 -540 2006 -557ZM1795 -1062H1053Q1126 -1009 1133 -941H1721Q1734 -1034 1795 -1062ZM1752 -901Q1748 -905 1743 -915H1106Q1099 -903 1099 -899L1103 -890H1746Q1749 -895 1752 -901ZM999 -1129L998 -1135Q996 -1135 991 -1134Q957 -1134 957 -1173Q957 -1176 986 -1244Q986 -1294 925 -1294Q903 -1294 903 -1287Q903 -1280 911 -1274Q904 -1275 943 -1275Q970 -1275 983 -1244Q974 -1242 969 -1242Q961 -1242 953 -1248Q920 -1240 920 -1179Q920 -1129 960 -1129ZM1794 -124L1718 -864H1136L1055 -119Q1092 -107 1140 -104L1222 -807H1635L1709 -99Q1746 -107 1794 -124ZM1686 -97L1618 -781H1239L1160 -97Q1297 -75 1393 -75Q1584 -75 1686 -97ZM2486 -630H2444Q2413 -586 2350 -499Q2157 -238 1845 -120Q1806 -105 1727 -79Q1619 -52 1391 -52Q1280 -52 1133 -80Q1113 -84 975 -126Q944 -134 884 -153Q752 -204 599.5 -353.5Q447 -503 395 -634Q370 -628 333 -630Q441 -306 789 -73Q1042 96 1455 96Q1479 96 1588 78Q1620 74 1685 64Q1863 32 2048 -87Q2191 -179 2256 -250Q2382 -388 2486 -630ZM419 -1197Q419 -1224 407 -1249Q385 -1295 294 -1295Q260 -1295 238.5 -1265Q217 -1235 217 -1200Q217 -1111 324 -1111Q359 -1111 389 -1137Q419 -1163 419 -1197ZM907 -566Q906 -571 903 -581Q885 -596 855 -596Q848 -596 803 -558Q813 -545 835 -519Q883 -568 897 -568Q902 -568 907 -566ZM244 -1111Q235 -1116 226 -1124Q225 -1112 222 -1105ZM180 -1166L175 -1171H159L179 -1164ZM487 -819V-824Q487 -986 420 -1044Q366 -1091 306 -1091Q333 -1062 333 -999Q333 -973 309 -934Q288 -905 268 -875Q258 -860 236 -819ZM175 -1150Q172 -1149 165 -1147V-1127Q165 -1121 174 -1114Q172 -1119 172 -1122V-1134Q172 -1137 175 -1150ZM212 -1041L206 -1047H204L198 -1040L204 -1035H206ZM2478 212V122H314V212ZM311 -1001Q311 -1092 261 -1092Q206 -1092 186 -1055Q200 -1057 205 -1057Q228 -1057 228 -1033Q228 -1043 216 -975Q201 -982 169 -989Q211 -961 211 -911Q211 -904 208.5 -890.5Q206 -877 206 -870Q206 -852 214 -827Q311 -982 311 -1001ZM179 -1043Q156 -1031 129 -995Q145 -1005 160 -1014Q179 -1026 179 -1043ZM739 -486L588 -398Q591 -396 595 -392ZM553 -775V-792H138Q138 -783 140 -766Q144 -746 188 -708Q232 -670 254 -665Q296 -656 369 -656Q430 -656 478 -687Q521 -714 542 -757Q548 -769 553 -775ZM484 -321L472 -332Q398 -291 324 -249Q212 -186 194 -164Q188 -157 185 -146L184 -145Q189 -140 195 -140Q216 -140 299 -196Q361 -237 484 -321Z"/>
</svg>