<svg xmlns="http://www.w3.org/2000/svg" viewBox="0 -2048 2048 2048">
	<path fill="currentColor" d="M2166 -575Q2166 -495 1968 -391Q1817 -311 1689 -276H1973V-8H351V-276H677Q480 -328 306 -442Q288 -458 263 -481Q173 -558 100 -747L108 -753L179 -758Q264 -677 360 -620Q568 -497 884 -477V-911Q930 -1006 1001 -1037Q1055 -1061 1169 -1061Q1290 -1061 1357 -1038Q1451 -1005 1496 -915V-481L1691 -508Q1763 -518 1867 -567Q1967 -614 2027 -663Q2019 -705 2019 -762Q2019 -795 2031 -902Q2043 -1006 2060 -1136H2164L2148 -956Q2136 -830 2136 -799Q2136 -767 2151 -689.5Q2166 -612 2166 -575ZM1472 -479V-909Q1426 -990 1342 -1017Q1284 -1036 1169 -1036Q1062 -1036 1015 -1016Q952 -990 909 -905V-475Q1129 -461 1199 -461Q1202 -461 1292 -467ZM2139 -581Q2139 -577 2131 -634Q2113 -762 2113 -782Q2113 -789 2119 -883Q2127 -1007 2137 -1112H2080Q2043 -908 2043 -766Q2043 -711 2053 -651Q1915 -537 1715 -490Q1595 -462 1339 -442Q1260 -436 1199 -436Q641 -436 394 -571Q308 -618 186 -717Q164 -735 151 -735Q137 -735 130 -733Q198 -564 319 -470Q416 -394 612 -323Q741 -276 777 -276H1586Q1609 -276 1720 -313Q1961 -394 2069 -488Q2139 -549 2139 -581ZM1949 -33V-252H376V-33Z"/>
</svg>