<svg xmlns="http://www.w3.org/2000/svg" viewBox="-15.3 -1451.3 3112.6 1767.6">
	<path fill="currentColor" d="M2982 -1137Q2981 -1105 2948 -1084Q2921 -1067 2896 -1067Q2890 -1067 2852.5 -1079Q2815 -1091 2808 -1091Q2802 -1091 2761.5 -1079Q2721 -1067 2714 -1067Q2707 -1067 2667.5 -1082Q2628 -1097 2621 -1097Q2612 -1097 2597 -1082Q2616 -1064 2654 -1033Q2688 -1016 2748 -977Q2773 -955 2797 -899Q2817 -855 2836 -811Q2848 -809 2900 -809Q2900 -807 2903.5 -801Q2907 -795 2907 -787Q2907 -765 2890 -735Q2871 -702 2847 -689Q2814 -669 2750 -641Q2720 -577 2647 -437Q2557 -280 2355 -131Q2158 14 2010 40Q1958 49 1913 65H2725V201H603V64H1404Q1256 27 1101 -57Q955 -136 808 -318Q670 -488 615 -639Q577 -642 514 -683Q445 -727 445 -761V-809H505L515 -815Q517 -848 500 -892Q495 -880 477 -857Q461 -864 463 -886Q466 -921 466 -923Q476 -927 462 -927Q422 -927 422 -890Q422 -887 423 -879Q423 -870 423 -867Q423 -833 393 -828Q391 -849 384 -888Q377 -909 341 -923Q333 -947 333 -947Q333 -970 390 -1020Q429 -1053 468 -1085L463 -1088Q449 -1087 410.5 -1077Q372 -1067 365 -1067Q358 -1067 324 -1082Q290 -1097 283 -1097Q280 -1097 244.5 -1082Q209 -1067 187 -1067Q151 -1067 137 -1078Q119 -1097 100 -1116V-1137Q102 -1137 107 -1140Q112 -1143 120 -1143Q126 -1143 148 -1128.5Q170 -1114 181 -1114Q188 -1114 226.5 -1131.5Q265 -1149 272 -1149Q279 -1149 316 -1134.5Q353 -1120 360 -1120Q402 -1120 456 -1147Q421 -1181 421 -1228Q421 -1268 452 -1302Q483 -1336 523 -1336Q567 -1336 598 -1297Q626 -1261 626 -1222Q626 -1191 596 -1147Q677 -1120 696 -1120Q702 -1120 742.5 -1131.5Q783 -1143 790 -1143Q797 -1143 830.5 -1131.5Q864 -1120 871 -1120Q876 -1120 909 -1125Q942 -1130 959 -1130Q946 -1111 922 -1075Q915 -1075 896.5 -1071Q878 -1067 871 -1067Q864 -1067 826 -1079Q788 -1091 781 -1091Q774 -1091 732.5 -1079Q691 -1067 684 -1067Q677 -1067 641 -1082Q605 -1097 599 -1097Q588 -1097 573 -1082Q598 -1058 651.5 -1026Q705 -994 724 -977Q749 -955 770 -900Q804 -814 806 -811Q827 -809 877 -809V-777Q877 -711 725 -642Q790 -484 969.5 -332.5Q1149 -181 1311 -148L1398 -859Q1394 -864 1370 -863Q1370 -868 1366.5 -879Q1363 -890 1363 -898Q1363 -915 1392 -937Q1390 -980 1354 -1013Q1321 -1038 1289 -1063Q1288 -1072 1285 -1092Q1286 -1093 1287.5 -1094Q1289 -1095 1289 -1096Q1287 -1097 1281 -1097Q1274 -1097 1272 -1094Q1270 -1091 1263 -1091Q1187 -1091 1187 -1184Q1187 -1198 1211 -1234Q1210 -1236 1170 -1261V-1283Q1188 -1301 1217 -1301Q1245 -1301 1269 -1281.5Q1293 -1262 1293 -1240Q1293 -1233 1280 -1202Q1266 -1168 1263 -1153Q1273 -1143 1277 -1143Q1279 -1147 1285 -1176Q1300 -1254 1341 -1275Q1414 -1313 1451 -1313Q1497 -1313 1777 -1223Q1941 -1168 2105 -1114V-1068Q2103 -1066 2052 -1036Q2032 -1024 2016 -994Q2000 -964 2000 -944Q2000 -937 2012 -919.5Q2024 -902 2024 -895Q2024 -869 1996 -852Q1995 -859 1995 -845L2064 -160Q2066 -160 2068.5 -157.5Q2071 -155 2079 -155Q2081 -155 2131 -176Q2339 -263 2490 -435Q2561 -516 2644 -631Q2609 -644 2540 -677Q2492 -705 2463 -791Q2475 -791 2475 -809H2529Q2546 -817 2546 -832Q2546 -842 2537.5 -859.5Q2529 -877 2528 -881Q2520 -881 2520 -863Q2502 -840 2494 -857Q2489 -871 2492 -923Q2497 -927 2483 -927Q2483 -927 2451 -911Q2451 -910 2449 -834H2417Q2407 -885 2406 -888Q2394 -920 2364 -922V-958Q2364 -969 2498 -1087Q2491 -1089 2483 -1089Q2468 -1089 2439 -1078Q2410 -1067 2395 -1067Q2386 -1067 2352 -1082Q2318 -1097 2311 -1097Q2303 -1097 2274 -1082Q2245 -1067 2211 -1067Q2185 -1067 2155 -1086Q2119 -1108 2124 -1137Q2126 -1137 2131 -1140Q2136 -1143 2144 -1143Q2150 -1143 2174 -1128.5Q2198 -1114 2205 -1114Q2212 -1114 2252 -1131.5Q2292 -1149 2299 -1149Q2306 -1149 2343 -1134.5Q2380 -1120 2387 -1120Q2363 -1120 2476 -1137Q2480 -1132 2480 -1146Q2480 -1152 2468 -1167.5Q2456 -1183 2453 -1192Q2451 -1198 2451 -1228Q2451 -1272 2478 -1304Q2505 -1336 2547 -1336Q2589 -1336 2622.5 -1300.5Q2656 -1265 2656 -1225Q2656 -1195 2620 -1147Q2688 -1120 2717 -1120Q2726 -1120 2768 -1131.5Q2810 -1143 2817 -1143Q2824 -1143 2859 -1131.5Q2894 -1120 2901 -1120Q2914 -1120 2982 -1137ZM2942 -1100Q2936 -1100 2921.5 -1098.5Q2907 -1097 2901 -1097Q2894 -1097 2859 -1111.5Q2824 -1126 2817 -1126Q2809 -1126 2800.5 -1121.5Q2792 -1117 2790 -1117Q2804 -1114 2845 -1099Q2883 -1085 2890 -1085Q2897 -1085 2942 -1100ZM2638 -1228Q2638 -1251 2609 -1281Q2577 -1313 2547 -1313Q2510 -1313 2487 -1282Q2468 -1257 2468 -1228Q2468 -1195 2494 -1166.5Q2520 -1138 2556 -1138Q2577 -1138 2607.5 -1170Q2638 -1202 2638 -1228ZM2767 -1106Q2761 -1106 2745.5 -1101.5Q2730 -1097 2723 -1097Q2716 -1097 2667.5 -1111.5Q2619 -1126 2612 -1126Q2566 -1126 2570 -1091Q2605 -1114 2623 -1114Q2630 -1114 2668.5 -1102.5Q2707 -1091 2714 -1091Q2727 -1091 2767 -1106ZM2539 -1096Q2499 -1126 2492 -1126Q2485 -1126 2439.5 -1114Q2394 -1102 2387 -1102Q2355 -1102 2351 -1104Q2389 -1085 2392 -1085Q2399 -1085 2440.5 -1099.5Q2482 -1114 2489 -1114Q2496 -1114 2514.5 -1104Q2533 -1094 2539 -1096ZM2807 -811Q2808 -871 2738 -945Q2676 -1010 2617 -1032Q2564 -944 2545 -944Q2537 -944 2533 -948V-1001Q2533 -1017 2561 -1054Q2566 -1056 2570 -1056L2580 -1046Q2563 -1012 2552 -968Q2572 -999 2603 -1054Q2546 -1073 2539 -1073Q2487 -1073 2399 -964Q2404 -964 2406 -957Q2408 -950 2404 -946Q2413 -946 2427 -939.5Q2441 -933 2448 -933Q2458 -933 2468 -941.5Q2478 -950 2483 -950Q2521 -950 2544 -895Q2556 -853 2569 -811ZM2883 -771V-791H2487Q2491 -727 2574 -685Q2639 -652 2697 -652Q2721 -652 2800 -683Q2819 -691 2851 -724Q2883 -757 2883 -771ZM2316 -1117Q2314 -1117 2307.5 -1121.5Q2301 -1126 2293 -1126Q2286 -1126 2244.5 -1108.5Q2203 -1091 2196 -1091Q2188 -1091 2180 -1095.5Q2172 -1100 2170 -1100Q2183 -1085 2211 -1085Q2226 -1085 2260.5 -1101Q2295 -1117 2316 -1117ZM2435 -881V-903H2425V-881ZM2024 -1116Q1894 -1160 1765 -1205Q1505 -1290 1453 -1290Q1414 -1290 1364 -1262Q1305 -1229 1305 -1186V-1116ZM2081 -1080V-1096H1305V-1080ZM2053 -1053H1334Q1362 -1044 1386.5 -1008Q1411 -972 1411 -943Q1411 -938 1410 -934H1982Q1973 -1004 2053 -1053ZM2005 -884V-908H1387V-884ZM1281 -1115Q1246 -1125 1246 -1152Q1246 -1159 1260.5 -1199Q1275 -1239 1275 -1246Q1275 -1256 1252 -1270Q1229 -1284 1217 -1284Q1217 -1284 1193 -1272Q1195 -1271 1235 -1260Q1262 -1252 1264 -1235L1253 -1225Q1251 -1225 1251 -1228Q1251 -1231 1243 -1231Q1229 -1231 1219 -1207Q1211 -1187 1211 -1176Q1211 -1134 1242 -1115ZM2047 -163L1970 -862H1422L1334 -144Q1392 -126 1390 -126H1420L1496 -805H1890L1967 -120Q1978 -127 2021 -132Q2047 -135 2047 -163ZM1941 -109L1877 -780H1510L1439 -121Q1603 -90 1746 -90Q1837 -90 1941 -109ZM2725 -639Q2718 -636 2670 -632Q2573 -472 2407 -327Q2229 -173 2079 -133Q2033 -116 1950 -92Q1829 -67 1743 -67Q1001 -67 706 -640Q698 -637 675 -633.5Q652 -630 644 -627Q719 -402 945 -201Q1171 0 1400 40Q1443 52 1512 66Q1543 68 1658 68Q1787 68 1805 66Q1857 54 1951 35Q2140 7 2357 -160Q2583 -332 2674 -531Q2694 -567 2725 -639ZM912 -1100Q906 -1100 891.5 -1098.5Q877 -1097 871 -1097Q864 -1097 827.5 -1111.5Q791 -1126 784 -1126Q776 -1126 763.5 -1118.5Q751 -1111 746 -1111Q752 -1111 760 -1112.5Q768 -1114 775 -1114Q782 -1114 820.5 -1099.5Q859 -1085 866 -1085Q882 -1085 912 -1100ZM608 -1228Q608 -1253 585 -1281Q558 -1313 523 -1313Q497 -1313 468 -1287Q439 -1261 439 -1231Q439 -1198 468 -1168Q497 -1138 532 -1138Q556 -1138 582 -1168.5Q608 -1199 608 -1228ZM708 -1093Q690 -1096 642 -1112Q598 -1126 591 -1126Q544 -1126 539 -1091Q586 -1114 599 -1114Q606 -1114 641.5 -1099.5Q677 -1085 684 -1085Q692 -1085 699 -1089Q706 -1093 708 -1093ZM2707 178V86H627V178ZM508 -1098Q480 -1126 468 -1126Q461 -1126 429 -1115Q397 -1104 333 -1100Q363 -1085 371 -1085Q379 -1085 417.5 -1099.5Q456 -1114 462 -1114Q470 -1114 486.5 -1106Q503 -1098 508 -1098ZM777 -811V-831Q767 -893 701 -958Q649 -1010 593 -1038Q547 -969 517 -939Q503 -953 503 -971Q503 -998 517 -1027Q531 -1056 545 -1056L556 -1047Q534 -1018 528 -980Q548 -1021 585 -1047Q533 -1073 515 -1073Q467 -1073 368 -971Q380 -959 382 -951Q414 -933 418 -933Q426 -933 441.5 -941.5Q457 -950 462 -950Q515 -950 545 -811ZM859 -791H462V-773Q462 -733 540 -691Q612 -652 664 -652Q722 -652 781 -691Q844 -733 859 -791ZM292 -1117Q290 -1117 283.5 -1121.5Q277 -1126 269 -1126Q262 -1126 222 -1111.5Q182 -1097 175 -1097Q167 -1097 157.5 -1098.5Q148 -1100 146 -1100Q176 -1085 187 -1085Q202 -1085 236 -1101Q270 -1117 292 -1117ZM407 -881V-897H397V-881ZM2526 -1015Q2506 -1015 2494 -1009Q2493 -1013 2486 -1023L2505 -1044Q2519 -1044 2526 -1036ZM503 -1029Q491 -1017 474 -1012L462 -1016Q462 -1031 475 -1044Q488 -1044 503 -1029Z"/>
</svg>