<svg xmlns="http://www.w3.org/2000/svg" viewBox="0 -2048 2048 2048">
	<path fill="#000000" d="M2711 -1061Q2711 -1038 2678 -1018Q2660 -1007 2625 -1007Q2610 -1007 2584 -1018.5Q2558 -1030 2543 -1030Q2532 -1030 2510 -1018.5Q2488 -1007 2473 -1007Q2457 -1007 2428 -1018.5Q2399 -1030 2383 -1030Q2375 -1030 2363 -1021Q2378 -1007 2409 -980Q2437 -965 2492 -932Q2556 -888 2570 -786H2633Q2639 -775 2639 -760Q2639 -697 2564 -653Q2555 -648 2500 -628Q2498 -581 2372 -394Q2399 -369 2489 -248Q2575 -130 2597 -90Q2610 -66 2610 -38Q2610 -2 2566 -2Q2545 -2 2516 -35Q2508 -45 2459 -133Q2418 -205 2337 -349Q2258 -244 2117 -151Q1980 -62 1849 -24Q1816 -15 1763 -3H2481V124H554V-3H1267Q1216 -15 1117 -49Q830 -182 640 -480Q612 -524 596 -564Q590 -583 578 -621Q557 -625 517 -635Q473 -649 442 -694Q413 -736 409 -785H483Q478 -805 466 -844Q464 -825 446 -818Q435 -829 436 -847Q437 -875 436 -878Q432 -883 428 -883Q422 -883 404 -870Q408 -860 408 -849Q408 -838 400 -805Q392 -801 370 -790Q365 -830 356 -863Q316 -884 316 -903Q316 -911 356.5 -955Q397 -999 409 -1006Q410 -1007 446 -1024Q441 -1029 434 -1029Q419 -1029 391.5 -1017.5Q364 -1006 349 -1006Q335 -1006 315.5 -1017.5Q296 -1029 285 -1029Q268 -1029 235 -1017.5Q202 -1006 185 -1006Q127 -1006 100 -1061Q109 -1078 125 -1078Q133 -1078 153 -1066.5Q173 -1055 185 -1055Q201 -1055 225 -1067.5Q249 -1080 263 -1080Q278 -1080 304 -1068.5Q330 -1057 334 -1057Q354 -1057 426 -1077Q396 -1122 396 -1157Q396 -1187 425.5 -1218.5Q455 -1250 485 -1250Q523 -1250 555.5 -1218Q588 -1186 588 -1148Q588 -1131 558 -1083Q574 -1083 603 -1070Q632 -1057 648 -1057Q662 -1057 688 -1068.5Q714 -1080 727 -1080Q737 -1080 761.5 -1068.5Q786 -1057 795 -1057Q809 -1057 834 -1065.5Q859 -1074 873 -1074Q884 -1074 884 -1060Q884 -1037 851 -1017Q833 -1006 798 -1006Q783 -1006 757 -1017.5Q731 -1029 716 -1029Q705 -1029 683 -1017.5Q661 -1006 646 -1006Q630 -1006 601 -1017.5Q572 -1029 556 -1029Q548 -1029 536 -1020Q551 -1006 582 -979Q610 -964 665 -931Q729 -887 743 -785H806Q813 -773 813 -760Q813 -735 786.5 -699.5Q760 -664 736 -652Q716 -645 677 -630Q748 -487 829 -414Q1005 -254 1154 -207Q1170 -201 1203 -190L1278 -820L1255 -822Q1244 -848 1244 -859Q1244 -854 1247 -885Q1256 -891 1267 -892Q1270 -898 1270 -904Q1270 -934 1233 -963Q1203 -984 1173 -1006Q1173 -1020 1171 -1051Q1169 -1082 1169 -1097Q1169 -1153 1213 -1194.5Q1257 -1236 1314 -1236Q1403 -1236 1594 -1173Q1701 -1135 1913 -1060Q1916 -1042 1926 -1006Q1870 -980 1855 -965Q1832 -942 1824 -890Q1847 -872 1847 -858Q1847 -843 1832 -822L1819 -820L1887 -193Q2088 -255 2273 -454L2185 -591Q2173 -591 2164.5 -606.5Q2156 -622 2153 -622Q2150 -622 2132 -617V-651Q2160 -682 2195 -682Q2217 -682 2232 -629L2217 -618L2310 -494Q2314 -498 2404 -624Q2385 -627 2348.5 -636Q2312 -645 2274 -697Q2236 -749 2236 -786H2310Q2305 -806 2293 -845Q2291 -826 2273 -819Q2262 -830 2263 -848Q2264 -876 2263 -879Q2259 -884 2255 -884Q2249 -884 2231 -871Q2235 -861 2235 -850Q2235 -839 2227 -806Q2219 -802 2197 -791Q2192 -831 2183 -864Q2143 -885 2143 -904Q2143 -912 2183.5 -956Q2224 -1000 2236 -1007Q2237 -1008 2273 -1025Q2268 -1030 2261 -1030Q2246 -1030 2218.5 -1018.5Q2191 -1007 2176 -1007Q2162 -1007 2142.5 -1018.5Q2123 -1030 2112 -1030Q2095 -1030 2062 -1018.5Q2029 -1007 2012 -1007Q1954 -1007 1927 -1062Q1936 -1079 1952 -1079Q1960 -1079 1980 -1067.5Q2000 -1056 2012 -1056Q2028 -1056 2052 -1068.5Q2076 -1081 2090 -1081Q2105 -1081 2131 -1069.5Q2157 -1058 2161 -1058Q2181 -1058 2253 -1078Q2223 -1123 2223 -1158Q2223 -1188 2252.5 -1219.5Q2282 -1251 2312 -1251Q2350 -1251 2382.5 -1219Q2415 -1187 2415 -1149Q2415 -1132 2385 -1084Q2401 -1084 2430 -1071Q2459 -1058 2475 -1058Q2489 -1058 2515 -1069.5Q2541 -1081 2554 -1081Q2564 -1081 2588.5 -1069.5Q2613 -1058 2622 -1058Q2636 -1058 2661 -1066.5Q2686 -1075 2700 -1075Q2711 -1075 2711 -1061ZM2673 -1044Q2649 -1039 2620 -1039Q2608 -1039 2586 -1047.5Q2564 -1056 2552 -1056Q2548 -1056 2543 -1054Q2632 -1030 2625 -1030Q2649 -1030 2669 -1039ZM2519 -1047Q2482 -1036 2475 -1036Q2459 -1036 2429 -1048.5Q2399 -1061 2383 -1061Q2349 -1061 2332 -1043V-1030H2339Q2362 -1053 2380 -1053Q2396 -1053 2426 -1041.5Q2456 -1030 2472 -1030Q2492 -1030 2519 -1047ZM2393 -1151Q2393 -1181 2367 -1204.5Q2341 -1228 2311 -1228Q2289 -1228 2267.5 -1202.5Q2246 -1177 2246 -1155Q2246 -1137 2249 -1126Q2254 -1109 2275.5 -1091Q2297 -1073 2315 -1073Q2348 -1073 2367 -1096Q2393 -1127 2393 -1151ZM2358 -993Q2352 -997 2345 -1001Q2333 -976 2321 -928Q2333 -950 2358 -993ZM2304 -1033Q2294 -1061 2268 -1061Q2200 -1036 2160 -1036Q2156 -1036 2150 -1039Q2165 -1030 2177 -1030Q2192 -1030 2219 -1041Q2246 -1052 2261 -1052Q2277 -1052 2292 -1033ZM2548 -786V-792Q2548 -822 2513 -878Q2495 -907 2449 -933Q2391 -965 2376 -978Q2361 -953 2347 -927Q2335 -908 2298 -888V-931Q2298 -957 2335 -1006Q2323 -1010 2309 -1010Q2254 -1010 2181 -918L2190 -923Q2193 -912 2191 -902Q2202 -903 2209 -903Q2227 -903 2222 -889Q2248 -906 2255 -906Q2293 -906 2311 -862Q2322 -824 2333 -786ZM2614 -743V-760H2265Q2306 -644 2466 -644Q2508 -644 2552 -673Q2614 -713 2614 -743ZM2109 -1055Q2100 -1058 2082 -1062Q2053 -1035 2011 -1035Q1997 -1035 1965 -1047Q1984 -1030 2014 -1030Q2030 -1030 2060.5 -1043Q2091 -1056 2109 -1055ZM2215 -849Q2215 -849 2210 -863H2208Q2212 -848 2213 -840Q2215 -846 2215 -849ZM2207 -640Q2202 -647 2192 -660Q2167 -660 2157 -646Q2171 -635 2184 -619Q2194 -627 2207 -640ZM2294 -478L2251 -534L2290 -473ZM2587 -42Q2587 -57 2576.5 -78.5Q2566 -100 2510 -175Q2460 -242 2361 -379L2348 -363Q2431 -235 2506 -96Q2525 -60 2526 -59Q2536 -45 2559 -32L2571 -25Q2587 -23 2587 -42ZM1842 -1061Q1709 -1107 1576 -1153Q1392 -1213 1314 -1213Q1266 -1213 1229 -1178.5Q1192 -1144 1192 -1097Q1192 -1048 1193 -1061ZM1893 -1023L1891 -1035H1196L1198 -1023ZM1858 -997H1226Q1292 -949 1293 -892H1802Q1814 -975 1858 -997ZM1824 -859L1819 -866H1269V-854Q1269 -851 1270 -846H1821Q1822 -848 1824 -853ZM1862 -193L1796 -820H1298L1227 -184L1296 -165L1365 -777H1726L1792 -165H1798Q1800 -165 1861 -185Q1862 -188 1862 -193ZM1769 -162L1710 -751H1381L1319 -159Q1519 -138 1533 -138Q1582 -138 1769 -162ZM2473 -620Q2467 -619 2461 -619Q2457 -619 2449 -620Q2440 -620 2436 -620Q2432 -620 2426 -618Q2401 -578 2347 -501Q2277 -408 2161 -317Q2035 -219 1916 -177Q1745 -117 1510 -117Q1412 -117 1306 -138Q1302 -139 1179 -176Q1143 -185 1072 -210Q952 -262 842 -369Q736 -471 672 -591Q666 -602 655 -623Q637 -618 601 -619Q680 -406 851 -250.5Q1022 -95 1242 -32Q1347 -2 1391 -2H1634Q1696 -2 1837 -43Q1991 -88 2136 -191Q2285 -298 2368 -429Q2432 -529 2473 -620ZM846 -1043Q822 -1038 793 -1038Q781 -1038 759 -1046.5Q737 -1055 725 -1055Q721 -1055 716 -1053Q805 -1029 798 -1029Q822 -1029 842 -1038ZM692 -1046Q655 -1035 648 -1035Q632 -1035 602 -1047.5Q572 -1060 556 -1060Q522 -1060 505 -1042V-1029H512Q535 -1052 553 -1052Q569 -1052 599 -1040.5Q629 -1029 645 -1029Q665 -1029 692 -1046ZM566 -1150Q566 -1180 540 -1203.5Q514 -1227 484 -1227Q462 -1227 440.5 -1201.5Q419 -1176 419 -1154Q419 -1136 422 -1125Q427 -1108 448.5 -1090Q470 -1072 488 -1072Q521 -1072 540 -1095Q566 -1126 566 -1150ZM531 -992Q525 -996 518 -1000Q506 -975 494 -927Q506 -949 531 -992ZM2455 98V23H580V98ZM477 -1032Q467 -1060 441 -1060Q373 -1035 333 -1035Q329 -1035 323 -1038Q338 -1029 350 -1029Q365 -1029 392 -1040Q419 -1051 434 -1051Q450 -1051 465 -1032ZM721 -785V-791Q721 -821 686 -877Q668 -906 622 -932Q564 -964 549 -977Q534 -952 520 -926Q508 -907 471 -887V-930Q471 -956 508 -1005Q496 -1009 482 -1009Q427 -1009 354 -917L363 -922Q366 -911 364 -901Q375 -902 382 -902Q400 -902 395 -888Q421 -905 428 -905Q466 -905 484 -861Q495 -823 506 -785ZM788 -746V-760H441Q459 -688 516 -662Q556 -644 639 -644Q682 -644 726 -673Q738 -681 762 -707Q788 -737 788 -746ZM282 -1054Q273 -1057 255 -1061Q226 -1034 184 -1034Q170 -1034 138 -1046Q157 -1029 187 -1029Q203 -1029 233.5 -1042Q264 -1055 282 -1054ZM388 -848Q388 -848 383 -862H381Q385 -847 386 -839Q388 -845 388 -848ZM2306 -979Q2294 -956 2276 -956H2253L2274 -995ZM479 -978Q467 -955 449 -955H426L447 -994Z"/>
</svg>