<svg xmlns="http://www.w3.org/2000/svg" viewBox="0 -2048 2048 2048">
	<path fill="#000000" d="M2392 245H100V85H811Q671 48 480 -55Q183 -216 183 -371Q183 -435 213 -459Q262 -497 355 -546Q467 -604 503 -627Q502 -702 410 -702Q403 -702 314.5 -688Q226 -674 219 -674Q194 -674 158 -696Q116 -722 116 -753Q116 -770 148 -794Q174 -812 190 -818Q228 -831 301 -831Q319 -831 438 -786Q557 -741 574 -728Q609 -701 609 -655Q609 -623 593 -602Q592 -601 541 -553Q478 -513 415 -472Q306 -401 306 -369Q306 -327 323.5 -303.5Q341 -280 411 -240Q503 -187 563 -159Q590 -146 695 -107Q694 -139 694 -202H905V-724H1157V-1128H1270V-45Q1368 -45 1586 -68V-519L1355 -783Q1364 -803 1392 -831L1591 -635V-814H1669V-560L2001 -181Q2214 -278 2214 -341Q2214 -364 2132 -421Q2089 -449 2047 -476Q1997 -510 1947 -544Q1877 -599 1877 -644Q1877 -738 1980 -768Q2040 -785 2153 -804Q2249 -820 2267 -820Q2310 -820 2341 -798Q2376 -774 2376 -736Q2376 -709 2337 -693Q2307 -680 2275 -680L2082 -697Q1984 -697 1984 -627Q1984 -614 2195 -504Q2315 -442 2315 -357Q2315 -298 2237 -216Q2170 -146 2090 -99Q2136 -66 2211 11Q2228 38 2263 93Q2305 94 2392 101ZM1589 -568Q1589 -592 1588 -595Q1484 -705 1390 -791ZM1966 -165L1671 -506V-474ZM2230 93Q2211 55 2165 -1Q2101 -80 2062 -80Q2023 -80 2023 -49Q2023 -36 2053 7Q2083 50 2097 59Q2145 91 2160 93Q2208 100 2194 100Q2201 100 2213 96.5Q2225 93 2230 93ZM1641 -75V-791H1620V-75ZM1933 -155L1671 -433V-86Q1785 -102 1933 -155ZM2096 92Q2017 17 2000 -40H1980Q1904 -5 1828 31Q1734 73 1653 92ZM2348 -745Q2348 -767 2313 -784Q2284 -798 2259 -798Q2252 -798 2204 -783Q2147 -765 2126 -760Q2075 -758 1997 -745Q1905 -709 1905 -646Q1905 -610 1957 -570Q2036 -519 2114 -468Q2242 -380 2242 -343Q2242 -253 2020 -161Q1864 -96 1750 -75Q1700 -64 1610 -47Q1478 -28 1403 -22Q1278 -12 1204 -12Q715 -12 400 -212Q359 -238 307 -280Q278 -322 278 -369Q278 -409 386 -484Q458 -530 529 -575Q581 -610 581 -655Q581 -698 535 -722Q505 -738 427 -766Q328 -803 292 -803Q267 -803 208 -796Q171 -792 144 -745Q148 -731 188 -716Q223 -702 239 -702Q247 -702 326 -716Q405 -730 410 -730Q461 -730 495 -703Q531 -673 531 -624Q531 -592 347 -509Q263 -471 237 -445Q211 -419 211 -366Q211 -226 480 -80Q696 38 864 68Q891 73 943 89L1428 94Q1561 94 1662 65Q1852 10 2078 -123Q2287 -246 2287 -355Q2287 -421 2184 -476Q1961 -595 1961 -627Q1961 -668 1993.5 -696.5Q2026 -725 2076 -725Q2083 -725 2166 -716.5Q2249 -708 2256 -708Q2348 -707 2348 -745ZM1242 -41V-1100H1182V-696H933V-174H722V-103Q1007 -41 1078 -41ZM2364 217V120H128V217Z"/>
</svg>