<svg xmlns="http://www.w3.org/2000/svg" viewBox="0 -2048 2048 2048">
	<path fill="#000000" d="M2045 0H100V-150H801Q794 -153 726 -170Q706 -176 671 -186Q487 -224 300 -376Q100 -539 100 -683Q100 -785 199 -825Q257 -848 376 -854Q398 -855 428 -898Q452 -933 498 -1036Q526 -1010 526 -970Q526 -952 501 -877Q561 -863 669 -812Q602 -789 511 -753Q521 -727 521 -697Q521 -634 484 -594Q480 -594 472 -600Q432 -703 408 -732Q371 -777 300 -777Q191 -777 191 -662Q191 -620 192 -617Q205 -600 234 -562Q290 -485 510 -384Q727 -284 834 -284H867V-1248H1003V-911H1211V-381H1389V-298Q1386 -294 1398 -294Q1444 -294 1544 -336Q1622 -369 1701 -401Q1805 -451 1888 -520Q1758 -591 1639 -647Q1722 -710 1861 -842Q1862 -870 1868 -924H1885Q1915 -924 1964.5 -872Q2014 -820 2014 -790V-772Q2014 -772 1934 -772Q1905 -772 1850 -730Q1813 -699 1776 -668L2045 -531Q1900 -388 1722 -294Q1608 -233 1380 -149H2045ZM1369 -290V-362H1186V-890H978V-1228H893V-280L1118 -259Q1204 -259 1369 -290ZM2010 -531L1749 -656Q1740 -663 1740 -666Q1791 -710 1841 -753Q1899 -797 1942 -797Q1978 -797 1984 -795Q1958 -872 1889 -898Q1886 -872 1881 -826Q1739 -713 1675 -652Q1757 -610 1920 -531Q1924 -529 1924 -521Q1659 -300 1189 -241Q1125 -233 1108 -233Q1025 -233 763 -280Q705 -290 606 -321Q454 -368 317 -465Q232 -525 201 -564Q166 -608 166 -662Q166 -802 313 -802Q353 -802 375 -790Q426 -763 452 -713Q467 -674 483 -635Q496 -661 496 -685Q496 -709 494 -714Q488 -731 465 -772Q445 -810 445 -812Q445 -818 465 -850Q485 -882 489 -895Q506 -953 506 -972Q506 -979 502.5 -983.5Q499 -988 499 -990Q494 -955 458 -898Q414 -828 371 -828Q364 -828 349 -830.5Q334 -833 328 -833Q125 -833 125 -680Q125 -543 324 -384Q513 -233 686 -206Q697 -204 762 -186Q809 -170 899 -148Q906 -147 1080 -147Q1257 -147 1315 -156Q1410 -171 1566 -237Q1761 -320 1897 -428Q1951 -471 2010 -531ZM623 -815Q535 -848 504 -848Q476 -848 476 -812Q476 -782 519 -782Q555 -782 623 -815ZM2024 -23V-121H126V-23Z"/>
</svg>