<svg xmlns="http://www.w3.org/2000/svg" viewBox="0 -2048 2048 2048">
	<path fill="currentColor" d="M2603 -808Q2603 -736 2592 -694Q2561 -574 2392 -473L2458 -359Q2511 -359 2554 -277Q2591 -205 2591 -146Q2591 -93 2562 -93Q2519 -93 2449 -170Q2379 -247 2379 -292Q2379 -316 2395 -331L2332 -440Q2112 -329 1897 -309H2183V-50H516V-307H825Q540 -345 358 -441Q100 -578 100 -812Q100 -848 144 -918Q211 -1025 440 -1088L453 -1080Q487 -977 487 -946Q307 -884 307 -783Q307 -697 439 -626Q538 -573 649 -552Q651 -588 659 -613Q691 -714 905 -807Q1098 -892 1223 -892H1435Q1611 -892 1804 -805Q2033 -702 2056 -552H2057V-916L1917 -1158L1977 -1192L2057 -1055L2056 -1148H2126V-935L2293 -644Q2368 -697 2399 -775Q2398 -882 2209 -946L2245 -1069L2259 -1079Q2380 -1064 2481 -997Q2603 -916 2603 -808ZM2057 -968V-1003L1968 -1157L1953 -1148ZM2272 -630L2126 -883V-849L2257 -621ZM2100 -559V-1122H2083V-556ZM2234 -609L2126 -797V-568Q2183 -584 2234 -609ZM2565 -152Q2565 -193 2533 -259Q2497 -333 2462 -333Q2454 -333 2444 -331L2370 -460L2355 -452L2427 -326Q2405 -310 2405 -290Q2405 -252 2463 -193Q2515 -140 2557 -121Q2565 -133 2565 -152ZM2576 -761Q2576 -900 2484 -968Q2428 -1009 2266 -1054L2237 -959Q2309 -943 2361 -896Q2421 -843 2421 -775Q2421 -753 2387 -703Q2292 -563 1951 -504Q1731 -466 1445 -466Q674 -466 433 -604Q284 -689 284 -780Q284 -897 463 -961L436 -1061H429Q414 -1061 343 -1032Q276 -1005 256 -993Q211 -966 170 -913Q123 -853 123 -808Q123 -689 184 -609Q297 -461 590 -377Q829 -308 1066 -308H1610Q2029 -308 2325 -464Q2576 -596 2576 -761ZM2034 -548Q2004 -682 1791 -781Q1606 -866 1447 -866H1214Q1064 -866 889 -779Q688 -679 672 -548Q1023 -489 1424 -489Q1711 -489 2034 -548ZM2158 -75V-282H541V-75Z"/>
</svg>