<svg xmlns="http://www.w3.org/2000/svg" viewBox="0 -2048 2048 2048">
	<path fill="#000000" d="M2152 330H101V175H807Q600 116 454 39Q284 -51 117 -203Q109 -212 100 -237L380 -369Q303 -441 233 -480Q216 -479 127 -482Q131 -525 177.5 -579.5Q224 -634 262 -634H289Q288 -611 291 -549L513 -371Q523 -451 544 -610Q502 -630 483 -695Q476 -721 449 -740Q430 -751 412 -763Q410 -769 423 -792V-799Q418 -793 413 -793L401 -806Q416 -830 523 -852Q543 -907 543 -946Q543 -995 478 -1143Q449 -1176 408 -1243Q400 -1267 400 -1294Q400 -1303 401 -1317Q402 -1331 402 -1337Q402 -1372 371 -1390Q367 -1391 334 -1368Q322 -1380 322 -1397Q322 -1414 334 -1431Q395 -1516 483 -1516Q526 -1516 557 -1481Q588 -1446 617 -1411Q641 -1397 691 -1352Q803 -1215 1050 -934Q1050 -909 1026 -909Q1023 -909 1004 -922Q985 -935 971 -932Q991 -902 1018 -875Q972 -845 883 -793Q883 -794 819 -919Q785 -987 742 -999L736 -995Q734 -955 727 -872Q713 -880 684 -894Q681 -889 679.5 -877Q678 -865 675 -860Q704 -852 765 -829V-799L757 -793Q741 -802 728 -795L744 -780Q727 -765 696 -734Q678 -714 655 -662Q638 -624 606 -610L654 -218Q654 -99 596 -36Q693 8 968 51L1072 47Q1063 35 1051 12Q1039 -36 1039 -88L1093 -610Q1052 -627 1037 -662Q1024 -691 1012 -720Q1002 -734 957 -757Q956 -763 960 -785Q962 -797 945 -806Q976 -853 1067 -851Q1082 -893 1082 -938Q1082 -1003 1006 -1153Q987 -1180 962 -1228Q955 -1250 932 -1376Q930 -1389 910 -1389Q902 -1389 893 -1380Q881 -1369 878 -1368Q871 -1375 871 -1395Q871 -1456 927 -1490Q971 -1516 1018 -1516Q1065 -1516 1057 -1517Q1076 -1514 1095 -1492Q1178 -1405 1352 -1204Q1422 -1116 1594 -933Q1590 -926 1585 -920Q1578 -909 1570 -909Q1567 -909 1547.5 -922Q1528 -935 1514 -932Q1518 -926 1557 -874Q1539 -862 1504 -839Q1527 -839 1611 -851Q1625 -887 1625 -941Q1625 -1014 1571 -1122Q1537 -1162 1490 -1249Q1484 -1292 1470 -1376Q1468 -1389 1448 -1389Q1440 -1389 1431 -1380Q1419 -1369 1416 -1368Q1408 -1376 1408 -1395Q1408 -1456 1468 -1490Q1514 -1516 1562 -1516Q1602 -1516 1624 -1503Q1641 -1493 1684 -1436Q1709 -1416 1755 -1373Q1802 -1313 1895 -1199Q1974 -1111 2132 -934Q2132 -909 2108 -909Q2102 -909 2088 -918.5Q2074 -928 2064 -932H2058Q2072 -911 2100 -874Q2054 -844 1965 -793Q1960 -800 1904 -915Q1867 -991 1829 -999L1823 -995Q1819 -963 1820 -884L1808 -872Q1796 -880 1766 -893L1762 -890V-859Q1769 -852 1801 -848.5Q1833 -845 1847 -829V-799L1839 -793Q1826 -807 1815 -796Q1826 -785 1826 -775Q1826 -769 1802 -749Q1773 -725 1763 -710Q1762 -709 1738 -652Q1725 -620 1694 -610L1720 -385L1729 -376Q1777 -417 1940 -549Q1941 -578 1948 -639Q1972 -644 2034 -594Q2100 -541 2100 -506V-483Q2091 -471 2059 -475Q2004 -482 2008 -482Q1995 -482 1852 -368L2132 -232Q2132 -228 2130 -219Q1866 65 1437 169Q1434 169 1425 175H2152ZM2079 -958Q2035 -1005 1853 -1214Q1819 -1258 1786 -1301Q1741 -1358 1698 -1385Q1675 -1400 1658 -1425Q1631 -1466 1603 -1482Q1589 -1490 1557 -1490Q1541 -1490 1499 -1476Q1588 -1467 1588 -1418Q1588 -1405 1573 -1375Q1595 -1380 1638 -1395Q1647 -1376 1647 -1373Q1613 -1362 1548 -1340Q1525 -1331 1525 -1305Q1525 -1272 1553 -1254Q1738 -1151 2079 -958ZM1566 -1413Q1557 -1435 1550 -1442H1526Q1526 -1437 1520 -1427Q1522 -1427 1527.5 -1429.5Q1533 -1432 1541 -1432Q1556 -1432 1566 -1413ZM1482 -1462Q1474 -1458 1451 -1433H1477Q1477 -1457 1482 -1462ZM1506 -1385L1499 -1400L1492 -1398L1498 -1385ZM1516 -1345L1509 -1348L1502 -1334L1509 -1331ZM2058 -892Q2036 -926 1997 -970Q1908 -1029 1757 -1113Q1545 -1230 1526 -1241Q1549 -1204 1590 -1142Q1636 -1086 1681 -1030Q1731 -964 1731 -917Q1731 -883 1721 -835Q1714 -830 1691 -827Q1691 -827 1776 -827Q1763 -827 1736 -839Q1736 -880 1745 -925Q1764 -920 1798 -910Q1796 -986 1804 -1041Q1870 -1017 1912 -946Q1975 -837 1981 -830Q2059 -882 2058 -892ZM1704 -926V-944Q1664 -1009 1616 -1073Q1652 -934 1652 -941Q1652 -936 1647.5 -899Q1643 -862 1643 -846Q1648 -869 1653 -891Q1663 -930 1678 -930Q1684 -930 1693 -928Q1702 -926 1704 -926ZM1705 -880Q1705 -884 1685 -904Q1685 -888 1673 -852H1698Q1698 -857 1701.5 -865.5Q1705 -874 1705 -880ZM1530 -963Q1380 -1143 1070 -1482Q1057 -1495 1010 -1495Q1007 -1495 950 -1476Q1050 -1465 1050 -1426Q1050 -1403 1013 -1370Q1026 -1373 1059 -1384Q1088 -1395 1095 -1395Q1103 -1395 1105 -1385Q1107 -1372 1108 -1371Q1071 -1361 999 -1334Q981 -1325 981 -1302Q981 -1271 1009 -1254Q1201 -1148 1530 -963ZM1021 -1413Q1012 -1435 1005 -1442H981Q981 -1437 976 -1427Q978 -1427 983 -1429.5Q988 -1432 996 -1432Q1011 -1432 1021 -1413ZM938 -1463Q926 -1451 914 -1427Q919 -1432 933 -1432Q933 -1438 935.5 -1449.5Q938 -1461 938 -1463ZM961 -1385L954 -1400L947 -1398L953 -1385ZM975 -1352Q970 -1352 960 -1345Q965 -1340 969 -1331Q969 -1334 972 -1341.5Q975 -1349 975 -1352ZM1520 -879Q1498 -918 1450 -975Q1368 -1030 1231 -1103Q1053 -1198 1012 -1222Q1001 -1227 985 -1242Q1045 -1162 1104 -1081Q1187 -966 1187 -893Q1187 -833 1150 -827Q1184 -822 1256 -822Q1234 -826 1192 -839Q1194 -869 1202 -925Q1221 -921 1255 -910Q1252 -991 1260 -1041Q1294 -1028 1344 -995Q1377 -936 1443 -830Q1472 -850 1520 -879ZM1792 -775Q1727 -798 1644 -798Q1550 -798 1530 -769Q1575 -746 1587 -716Q1601 -681 1631 -652Q1657 -626 1657 -627Q1657 -622 1640 -509Q1620 -381 1613 -326Q1610 -301 1610 -249Q1610 -82 1666 -54Q1695 -92 1704 -150Q1709 -197 1715 -244L1668 -614Q1668 -633 1678 -634Q1688 -635 1693 -636Q1710 -653 1738 -710Q1762 -758 1792 -775ZM1160 -926V-949Q1132 -1015 1067 -1083Q1083 -1040 1106 -954Q1103 -916 1100 -846Q1105 -859 1116.5 -888.5Q1128 -918 1133 -931Q1139 -931 1148.5 -928.5Q1158 -926 1160 -926ZM1968 -221L1732 -328Q1753 -149 1705 -71ZM1160 -858L1153 -899Q1144 -881 1130 -852ZM997 -955Q897 -1075 701 -1304Q650 -1347 581 -1415Q524 -1495 472 -1495Q447 -1495 418 -1482Q413 -1479 412 -1470Q427 -1470 438 -1472Q449 -1474 454 -1474Q470 -1474 488 -1458Q506 -1442 506 -1418Q506 -1392 486 -1375Q566 -1395 551 -1395Q559 -1395 561 -1385Q564 -1372 565 -1371Q530 -1360 495 -1348Q443 -1329 443 -1305Q443 -1295 459.5 -1267.5Q476 -1240 487 -1233Q658 -1141 997 -955ZM479 -1413Q470 -1435 463 -1442H439Q439 -1437 433 -1427Q435 -1427 440.5 -1429.5Q446 -1432 454 -1432Q469 -1432 479 -1413ZM1636 -35Q1602 -79 1592 -140Q1587 -192 1583 -244L1630 -617Q1603 -632 1583 -667Q1568 -693 1554 -718Q1549 -724 1500 -760Q1499 -765 1497 -769Q1503 -789 1495.5 -799Q1488 -809 1488 -809Q1488 -817 1490 -822.5Q1492 -828 1492 -830Q1464 -810 1428 -793Q1425 -796 1359 -918Q1316 -996 1278 -998Q1278 -999 1279 -931Q1280 -883 1264 -872Q1237 -893 1220 -893V-857Q1251 -854 1282 -852Q1303 -849 1303 -817Q1303 -800 1295 -793Q1274 -804 1266 -796Q1275 -786 1288 -770Q1254 -755 1226 -713Q1206 -678 1186 -644Q1182 -638 1165 -622Q1150 -610 1150 -603L1193 -115Q1193 -6 1161 51H1295Q1352 51 1489 12Q1591 -17 1636 -35ZM395 -1433Q395 -1437 388 -1447L375 -1433ZM418 -1385L412 -1400L404 -1398L411 -1385ZM438 -1347L435 -1354L423 -1348V-1340ZM976 -892Q953 -925 912 -970Q724 -1069 455 -1231Q458 -1219 557 -1087Q649 -966 649 -899Q649 -901 642 -845Q628 -839 604 -827Q682 -819 696 -827Q680 -829 649 -839Q657 -895 663 -925Q679 -921 711 -910Q711 -1001 716 -1041Q753 -1023 797 -998Q818 -974 850 -913Q886 -847 899 -830Q977 -882 976 -892ZM617 -929Q592 -988 529 -1072L570 -943Q562 -896 558 -846Q575 -879 585 -931Q621 -931 617 -929ZM1248 -775Q1178 -798 1103 -798Q1019 -798 987 -769Q1017 -759 1041 -717Q1054 -689 1068 -662Q1088 -651 1119 -626L1061 -88Q1061 -58 1074 -11Q1091 47 1111 51Q1171 27 1171 -136L1129 -606Q1129 -628 1130 -630Q1161 -649 1190 -708Q1218 -762 1248 -775ZM622 -857V-893Q619 -893 612.5 -895.5Q606 -898 603 -898Q600 -880 591 -852Q597 -852 608.5 -854.5Q620 -857 622 -857ZM2098 -226Q2010 -266 1825 -356Q1815 -364 1815 -367Q1865 -409 1915 -450Q1986 -509 2041 -509Q2057 -509 2073 -504Q2019 -600 1964 -608Q1965 -576 1962 -539Q1927 -502 1856 -444Q1773 -377 1747 -352Q1832 -309 1996 -227Q2006 -221 2006 -216Q1760 -39 1519 28Q1335 78 1079 78Q599 78 227 -225L485 -352Q404 -427 265 -538Q262 -593 263 -608Q234 -603 194 -563Q154 -523 159 -498Q184 -503 216 -503Q244 -503 254 -496Q411 -382 411 -358Q411 -350 132 -226Q309 -53 545 58Q711 136 845 161Q939 178 1105 178Q1255 178 1264 177Q1755 122 2098 -226ZM707 -775Q628 -798 567 -798Q482 -798 443 -772Q475 -759 498 -708Q521 -654 545 -642Q556 -639 575 -626L522 -236Q528 -188 534 -139Q543 -82 578 -49Q628 -107 628 -210L586 -608Q586 -626 592 -633Q620 -641 633 -672Q642 -694 650 -715Q663 -733 707 -775ZM2131 304V203H125V304ZM521 -70Q501 -170 501 -226Q501 -231 503.5 -271Q506 -311 506 -327L500 -334L264 -220Z"/>
</svg>