<svg xmlns="http://www.w3.org/2000/svg" viewBox="0 -2048 2048 2048">
	<path fill="#000000" d="M2509 -535Q2460 -503 2359 -435Q2370 -395 2370 -347Q2370 -183 2262 -21Q2146 154 1972 212Q1975 215 2228 210V362H380V213H654Q649 211 638 205Q515 168 393 26Q276 -109 253 -225Q233 -323 243 -423Q203 -453 100 -504Q100 -518 114 -532L248 -456Q263 -462 263 -480Q263 -495 202 -529Q168 -547 135 -564Q156 -585 153 -585L266 -521Q276 -526 286 -546Q242 -577 164 -622Q167 -625 171 -632.5Q175 -640 178 -643Q216 -620 295 -573Q296 -574 302 -583Q308 -592 315 -599Q243 -647 187 -675Q190 -678 194 -685.5Q198 -693 201 -696L332 -626Q369 -662 508 -752Q487 -827 508 -884Q458 -901 407 -919Q345 -949 321 -1014Q341 -1034 365 -1034Q370 -1034 400.5 -1027.5Q431 -1021 446 -1020Q474 -1000 538 -963L269 -1387Q284 -1402 289 -1402Q297 -1402 327 -1372Q364 -1336 380 -1325L292 -1457L312 -1477Q516 -1295 684 -980Q693 -963 721 -939Q771 -895 779 -887Q792 -869 818 -835Q940 -690 940 -666Q940 -633 914 -613Q893 -596 867 -596Q860 -596 744.5 -637Q629 -678 622 -678Q577 -678 517 -638Q464 -603 438 -565Q476 -542 537 -513Q537 -500 523 -486Q486 -507 418 -538Q415 -535 410.5 -528Q406 -521 403 -518Q421 -506 458.5 -486Q496 -466 514 -454Q499 -439 496 -439Q490 -439 451 -458Q406 -480 389 -486Q386 -483 381.5 -475.5Q377 -468 374 -465Q377 -463 485 -401Q477 -393 477 -381Q446 -393 376 -427Q372 -427 362 -418V-396Q386 -381 473 -337Q473 -337 467 -324Q464 -316 455 -316Q447 -316 416 -332Q377 -353 366 -357Q362 -350 362 -322Q362 -200 447 -83Q538 41 687 100Q756 127 780 127H1064Q1092 88 1198 74Q1231 6 1231 -77Q1231 -169 1156 -316Q1128 -372 1023 -545Q1015 -559 994 -675Q994 -713 993 -752Q985 -818 937 -818Q913 -818 902 -783Q895 -790 876 -790Q876 -795 873 -807Q870 -819 870 -827Q870 -863 907 -899Q933 -931 999 -990Q1040 -1017 1112 -1017Q1171 -1017 1218 -981Q1253 -953 1314 -875Q1369 -831 1485 -712Q1590 -569 1815 -292Q1894 -221 2042 -75V-44Q2029 -31 2018 -31L1888 -112L1885 -109L1978 31L1850 119Q1852 121 1852 122Q1853 121 1861 121Q1899 121 1989 64Q2067 16 2096 -14Q2163 -83 2210.5 -178.5Q2258 -274 2258 -343Q2258 -349 2255.5 -363.5Q2253 -378 2253 -388Q2249 -392 2244 -392L2132 -346Q2129 -349 2125 -356.5Q2121 -364 2118 -367Q2186 -396 2247 -431Q2245 -441 2232 -462Q2198 -443 2108 -404Q2108 -407 2104.5 -415Q2101 -423 2101 -426Q2154 -449 2224 -490Q2225 -498 2208 -515Q2164 -489 2079 -445Q2078 -450 2071 -460Q2109 -486 2194 -536Q2186 -546 2173 -567L2056 -497Q2043 -510 2043 -525Q2105 -556 2153 -588Q2086 -678 1975 -678Q1968 -678 1944 -664Q1915 -648 1906 -645Q1879 -640 1830 -629Q1815 -626 1783.5 -611Q1752 -596 1745 -596Q1717 -596 1675 -626Q1674 -632 1674 -639Q1674 -680 1729 -756Q1776 -815 1823 -875Q1857 -908 1918 -980Q2001 -1111 2084 -1243Q2212 -1431 2302 -1477Q2311 -1470 2316 -1470L2228 -1324Q2240 -1327 2279 -1364Q2313 -1397 2339 -1394L2065 -962Q2063 -953 2067 -950Q2070 -948 2077.5 -952Q2085 -956 2095 -964Q2111 -984 2168 -1028L2184 -1035Q2202 -1043 2231 -1039Q2279 -1034 2280 -1033Q2281 -1032 2284 -1027Q2287 -1022 2287 -1014Q2287 -1004 2254.5 -965Q2222 -926 2210 -919Q2193 -909 2153.5 -900Q2114 -891 2094 -878Q2110 -853 2110 -820Q2110 -786 2094 -752Q2097 -750 2167 -715Q2216 -690 2262 -637L2419 -719Q2420 -714 2427 -704Q2390 -678 2281 -617Q2289 -606 2308 -585Q2343 -606 2377 -627Q2419 -650 2456 -654Q2449 -637 2399 -608Q2332 -570 2316 -558Q2325 -549 2332 -532Q2332 -532 2472 -602Q2475 -599 2479 -591.5Q2483 -584 2486 -581Q2412 -544 2340 -499Q2342 -489 2355 -468L2495 -550ZM2193 -1325Q2045 -1152 1955 -982H1976Q1983 -986 1993 -995Q2120 -1207 2193 -1325ZM2252 -1010H2227Q2194 -1010 2157 -975Q2125 -944 2092 -913Q2161 -933 2174 -938Q2225 -962 2252 -1010ZM2233 -1279L1987 -941Q1970 -958 1966 -958Q1948 -958 1904 -918Q1865 -883 1846 -858Q1704 -665 1704 -669V-638H1729Q1736 -638 1756 -648.5Q1776 -659 1782 -661L1797 -649Q1832 -657 1894 -674Q1907 -678 1932 -694Q1954 -707 1961 -707Q1968 -707 1966.5 -704Q1965 -701 1972 -701Q2009 -701 2048 -732Q2083 -760 2083 -818Q2083 -856 2067 -871Q2033 -904 2019 -926ZM2001 -78Q1908 -165 1751 -327Q1647 -463 1441 -724Q1419 -751 1377 -783Q1332 -817 1324 -825Q1271 -888 1219 -951Q1184 -987 1112 -987Q1040 -987 1000 -952Q955 -906 911 -860Q935 -876 961 -876Q998 -876 998 -876Q981 -894 980 -909Q980 -935 1018 -935Q1050 -939 1050 -911Q1050 -898 1023 -830Q991 -845 957 -845Q1018 -806 1023 -704Q1032 -744 1120 -777Q1195 -806 1237 -806Q1245 -806 1246 -801Q1247 -793 1249 -792V-781Q1195 -769 1142 -757Q1050 -726 1050 -669Q1050 -647 1085 -601Q1117 -559 1139 -546Q1179 -525 1245 -490Q1316 -452 1443 -385Q1587 -313 1740 -227Q1830 -176 2001 -78ZM1937 13Q1884 -66 1813 -156Q1622 -274 1398 -385Q1150 -509 1137 -516Q1099 -538 1029 -637Q1050 -536 1146 -421Q1226 -325 1307 -230Q1389 -115 1389 2Q1389 39 1367 91Q1327 99 1255 125H1510Q1510 123 1507.5 115Q1505 107 1505 104Q1454 104 1406 88Q1409 43 1423 -42H1444Q1452 -42 1473 -32Q1500 -21 1505 -19V-174Q1505 -196 1516 -229Q1595 -220 1649 -151Q1683 -108 1726 -9Q1769 90 1794 121Q1836 93 1880.5 63.5Q1925 34 1937 13ZM653 -983Q540 -1183 422 -1319Q485 -1204 619 -990Q624 -983 653 -983ZM1762 126Q1703 8 1647 -93Q1633 -122 1598 -168Q1592 -173 1529 -193V-23Q1529 1 1519 28Q1492 11 1442 -12Q1442 33 1436 67Q1548 84 1577 126ZM910 -645V-670Q875 -710 806 -794Q688 -952 645 -952Q637 -952 627.5 -946Q618 -940 617 -940Q563 -1024 508 -1107Q444 -1202 381 -1273L590 -918Q567 -900 533 -863Q525 -850 525 -818Q525 -795 533 -773Q548 -734 568 -726Q776 -649 811 -649Q818 -649 821.5 -655Q825 -661 832 -661Q839 -661 861 -649Q883 -637 890 -637Q902 -637 910 -645ZM2340 -349Q2340 -424 2332 -449Q2317 -497 2261 -595Q2242 -628 2187 -673Q2123 -725 2083 -725Q2073 -725 2042 -692Q2156 -664 2224 -549Q2281 -453 2281 -354Q2281 -234 2212 -120Q2140 1 2009 83Q1893 156 1817 156H774Q742 156 681 129Q506 51 415 -86Q333 -209 333 -354Q333 -457 387 -546Q450 -650 566 -692Q533 -725 528 -725Q464 -725 376 -632Q287 -536 276 -448Q269 -392 269 -351Q269 -256 294 -178Q328 -72 399 4Q530 145 685 193Q689 194 704.5 204Q720 214 727 214H1893Q1929 214 2093 113Q2135 87 2185 37Q2340 -119 2340 -349ZM519 -913Q412 -1010 376 -1010H357Q379 -964 434 -941Q476 -927 519 -913ZM1359 -37V-63Q1359 -109 1298 -188Q1251 -243 1204 -299Q1260 -117 1260 -66Q1260 -27 1232 85Q1239 85 1251 82.5Q1263 80 1265 80Q1274 6 1300 -54Q1320 -50 1359 -37ZM1360 10Q1360 -14 1340 -24H1314Q1306 15 1297 80Q1335 67 1347 68Q1360 29 1360 10ZM2199 336V244H410V336ZM1978 -825Q1966 -818 1937 -818Q1902 -818 1885 -839Q1911 -865 1928 -865Q1921 -865 1978 -846ZM723 -846Q716 -818 686 -818Q680 -818 663 -821.5Q646 -825 637 -825V-846Q674 -865 677 -865Q685 -865 723 -846Z"/>
</svg>