<svg xmlns="http://www.w3.org/2000/svg" viewBox="0 -2048 2048 2048">
	<path fill="currentColor" d="M2406 291H126V101H920Q906 93 880 89Q690 61 449.5 -145.5Q209 -352 147 -542Q132 -577 117 -611Q97 -659 101 -683Q112 -695 153 -708Q216 -527 414 -331.5Q612 -136 777 -94Q904 -296 1035 -408Q1040 -428 1069 -464Q1097 -466 1141 -490Q1160 -516 1160 -594Q1160 -686 1092 -836Q1051 -893 987 -1011Q967 -1065 952 -1152Q943 -1206 916 -1232Q900 -1221 867 -1203Q867 -1204 863 -1215Q859 -1226 859 -1235Q859 -1266 909 -1323Q956 -1378 982 -1386Q1029 -1401 1067 -1401Q1124 -1401 1153 -1380Q1174 -1350 1221 -1298Q1334 -1201 1405 -1117Q1467 -1042 1529 -966Q1599 -886 1859 -597Q1846 -570 1832 -570Q1824 -570 1789 -591Q1745 -617 1726 -625Q1738 -607 1765.5 -568.5Q1793 -530 1805 -512L1633 -401Q1620 -419 1531 -589Q1478 -692 1424 -697Q1421 -637 1412 -516Q1396 -520 1344 -546L1341 -542V-489Q1350 -484 1406 -469Q1443 -459 1459 -429Q1457 -433 1447 -405Q1540 -353 1610 -249Q1625 -227 1701 -88H1717Q1719 -88 1734 -97Q1911 -173 2040 -296Q1985 -341 1877 -434Q1896 -453 1922 -491Q2004 -418 2097 -353L2106 -362Q2051 -410 1937 -512Q1947 -535 1976 -564L2157 -419Q2220 -475 2348 -690Q2357 -690 2373 -677.5Q2389 -665 2389 -654Q2389 -631 2345 -531Q2307 -445 2296 -427Q2264 -377 2238 -350Q2255 -344 2286 -326Q2371 -245 2371 -218V-192Q2356 -184 2335 -184Q2348 -184 2268 -204Q2304 -171 2304 -152V-119Q2299 -119 2284.5 -115.5Q2270 -112 2262 -112Q2228 -112 2188 -136Q2141 -165 2126 -208H2120Q1997 -79 1842 -5Q1747 41 1560 95Q1556 95 1546 102H2406ZM2346 -210Q2337 -248 2294.5 -284Q2252 -320 2229 -317Q2221 -309 2221 -302Q2221 -273 2255 -241.5Q2289 -210 2315 -210ZM2141 -398Q2039 -477 1975 -520L2125 -390Q2130 -390 2141 -398ZM2218 -260Q2211 -267 2202 -279.5Q2193 -292 2191 -294L2183 -272Q2189 -272 2202.5 -266Q2216 -260 2218 -260ZM2272 -146Q2263 -184 2220.5 -220Q2178 -256 2155 -253Q2147 -245 2147 -238Q2147 -209 2181 -177.5Q2215 -146 2241 -146ZM2078 -330Q2025 -373 1918 -451L2062 -322Q2067 -322 2078 -330ZM1810 -613Q1673 -741 1547 -894Q1480 -983 1338 -1153Q1285 -1198 1197 -1285Q1174 -1317 1129 -1362Q1103 -1377 1067 -1377Q1022 -1377 974 -1343Q1010 -1325 1010 -1310Q1010 -1302 1003.5 -1281Q997 -1260 996 -1254Q990 -1244 980 -1244Q973 -1244 958 -1249Q943 -1254 938 -1254Q959 -1236 972 -1194Q980 -1165 989 -1136Q998 -1171 1067 -1200Q1127 -1226 1166 -1226Q1175 -1226 1179 -1222V-1201Q1010 -1169 1010 -1106Q1010 -1087 1042 -1048Q1070 -1013 1084 -1005Q1326 -876 1810 -613ZM955 -1288Q948 -1295 948 -1316Q922 -1303 908 -1275Q934 -1288 955 -1288ZM1763 -524Q1670 -663 1641 -681Q1529 -750 1347 -842Q1096 -968 1051 -992Q1043 -998 1015 -1026Q1039 -982 1193 -781Q1299 -644 1299 -555Q1299 -484 1276 -456Q1241 -452 1239 -452Q1290 -446 1401 -440Q1341 -452 1311 -465Q1311 -516 1322 -582Q1374 -569 1388 -558Q1388 -544 1391.5 -584.5Q1395 -625 1395 -711Q1395 -722 1405 -732Q1486 -718 1553 -607Q1596 -522 1639 -437Q1683 -465 1763 -524ZM1268 -576V-597Q1257 -646 1144 -792Q1191 -663 1191 -588Q1191 -565 1174 -474Q1180 -481 1197 -538Q1211 -588 1227 -588Q1247 -588 1268 -576ZM1269 -522Q1269 -555 1234 -557Q1234 -545 1221 -480Q1227 -480 1241.5 -483Q1256 -486 1262 -486Q1262 -492 1265.5 -503.5Q1269 -515 1269 -522ZM2357 -654Q2321 -590 2249 -478Q2168 -374 2054 -270Q1940 -166 1855 -119Q1742 -57 1586 -18Q1435 20 1308 20Q468 20 141 -672Q135 -672 131 -651Q281 -264 597 -66Q870 105 1209 105Q1506 105 1758 -2Q2090 -143 2278 -451Q2322 -524 2357 -654ZM1098 -438L1093 -446L1073 -432L1077 -424ZM1672 -78Q1553 -292 1493 -342Q1407 -413 1212 -413Q1072 -413 998 -342Q971 -317 805 -84Q994 -10 1299 -10Q1419 -10 1468 -18Q1542 -29 1672 -78ZM2376 260V130H156V260Z"/>
</svg>