<svg xmlns="http://www.w3.org/2000/svg" viewBox="11.4 -1510.6 2391.1 1802.1">
	<path fill="currentColor" d="M2314 203H124V31Q156 33 164 24Q184 -22 233 -100Q250 -119 293 -130Q302 -129 321 -133Q355 -163 424 -221Q349 -279 230 -449Q100 -635 100 -713Q100 -738 131 -750H156Q188 -642 281 -521Q378 -395 502 -305Q543 -336 613 -414Q613 -414 615 -484Q617 -484 626 -487Q635 -490 643 -490Q666 -490 669 -480Q675 -457 676 -456Q688 -464 732 -508Q734 -507 771 -458Q739 -426 672 -359V-200Q703 -184 749 -166Q885 -373 991 -462Q997 -485 1026 -522Q1049 -523 1090 -538Q1118 -560 1118 -658Q1118 -780 1051 -872Q991 -824 899 -784Q796 -739 727 -739Q683 -739 625 -763Q556 -791 522 -835L927 -1133Q926 -1135 915 -1202Q908 -1243 883 -1260Q868 -1248 835 -1231Q835 -1232 831.5 -1243.5Q828 -1255 828 -1263Q828 -1291 876 -1347Q921 -1400 946 -1408Q991 -1422 1028 -1422Q1082 -1422 1111 -1402Q1131 -1374 1176 -1323Q1304 -1206 1436 -1045Q1514 -951 1788 -650Q1775 -623 1763 -623Q1756 -623 1722 -642Q1680 -666 1667 -671H1661L1736 -568Q1685 -534 1565 -462Q1520 -549 1476 -636Q1421 -741 1371 -746Q1368 -688 1359 -572Q1341 -577 1294 -600L1291 -596V-546Q1298 -543 1353 -531Q1389 -523 1404 -495Q1408 -485 1393 -465Q1483 -415 1550 -316Q1565 -294 1637 -161H1652Q1655 -161 1669 -170Q1793 -236 1817 -250Q1898 -299 1962 -360Q1910 -403 1806 -493Q1824 -510 1849 -548L2017 -409L2031 -424L1864 -568Q1874 -591 1901 -618L2075 -479Q2129 -524 2180 -605Q2257 -729 2265 -739Q2298 -724 2298 -704Q2298 -682 2256 -587Q2220 -506 2208 -486Q2181 -441 2153 -413Q2187 -403 2229 -361Q2273 -316 2280 -280V-260Q2267 -253 2245 -253Q2257 -253 2181 -272Q2211 -231 2222 -203Q2203 -184 2176 -184Q2140 -184 2102 -207Q2060 -234 2045 -276H2039Q1839 -71 1501 15Q1497 15 1487 21H2314ZM2259 -275Q2251 -312 2208 -348Q2169 -382 2146 -379Q2138 -371 2138 -364Q2138 -336 2171 -305.5Q2204 -275 2229 -275ZM2060 -458Q1964 -533 1899 -576L2045 -450Q2050 -450 2060 -458ZM2135 -324Q2128 -331 2119.5 -343Q2111 -355 2109 -357L2101 -335Q2108 -335 2120.5 -329.5Q2133 -324 2135 -324ZM2187 -213Q2179 -250 2136 -286Q2097 -320 2074 -317Q2066 -309 2066 -302Q2066 -274 2099 -243.5Q2132 -213 2157 -213ZM1999 -392Q1948 -433 1844 -509L1984 -384Q1989 -384 1999 -392ZM1736 -668Q1626 -766 1490 -935Q1311 -1157 1282 -1189Q1229 -1232 1153 -1310Q1092 -1398 1031 -1398Q990 -1398 938 -1367Q973 -1350 973 -1335Q962 -1271 944 -1271Q937 -1271 923 -1276Q909 -1281 904 -1281Q925 -1264 937 -1223Q945 -1195 953 -1167Q953 -1197 1023 -1227Q1086 -1254 1123 -1254Q1131 -1254 1135 -1250V-1230Q973 -1200 973 -1138Q973 -1122 998.5 -1087.5Q1024 -1053 1044 -1042Q1277 -919 1736 -668ZM921 -1314Q914 -1321 914 -1340Q878 -1316 873 -1295Q897 -1314 921 -1314ZM1696 -580Q1607 -714 1579 -731Q1476 -795 1296 -884Q1080 -991 1012 -1029Q991 -1041 979 -1060Q1006 -1013 1155 -819Q1251 -693 1251 -609Q1251 -541 1229 -515Q1191 -510 1194 -510Q1293 -499 1349 -499Q1320 -506 1262 -518V-581Q1262 -605 1272 -635Q1323 -622 1336 -612Q1336 -599 1339.5 -638Q1343 -677 1343 -759Q1343 -770 1353 -780Q1435 -759 1496 -657Q1536 -577 1577 -496Q1619 -524 1696 -580ZM1221 -629V-650Q1195 -731 1102 -831Q1147 -682 1147 -641Q1147 -616 1131 -531Q1137 -537 1153 -593Q1166 -641 1181 -641Q1200 -641 1221 -629ZM984 -984Q963 -1024 924 -1092L655 -904Q687 -878 747 -878Q814 -878 984 -984ZM1222 -577Q1222 -609 1188 -611Q1188 -598 1176 -538Q1182 -538 1195.5 -540.5Q1209 -543 1215 -543Q1215 -549 1218.5 -559.5Q1222 -570 1222 -577ZM1042 -904Q1036 -913 1021 -934.5Q1006 -956 1000 -965Q837 -855 742 -855Q683 -855 629 -884Q605 -865 562 -835Q583 -808 632 -788Q681 -768 721 -768Q791 -768 895 -813Q993 -857 1042 -904ZM2267 -704Q2117 -418 1864 -246Q1587 -57 1256 -57Q451 -57 139 -721Q134 -721 129 -702Q273 -330 577 -140Q839 24 1164 24Q1524 24 1789 -121Q2122 -305 2267 -704ZM1055 -496L1050 -504L1030 -491L1034 -483ZM1609 -145Q1493 -357 1437 -404Q1355 -473 1164 -473Q1074 -473 1044 -459Q972 -425 889 -326Q816 -240 777 -157Q966 -86 1251 -86Q1363 -86 1400 -92Q1453 -100 1609 -145ZM2285 174V48H153V174ZM737 -463L730 -469L526 -287L532 -281ZM645 -214V-345H635V-214ZM613 -230V-322L557 -267Q576 -254 613 -230ZM880 22Q605 -60 473 -184Q436 -157 379 -102Q375 -77 358 -32Q335 1 291 22ZM446 -197L441 -205L370 -144L375 -135ZM348 -83Q348 -109 322 -109Q260 -109 204 18H224Q259 12 300 -16Q348 -49 348 -83Z"/>
</svg>