<svg xmlns="http://www.w3.org/2000/svg" viewBox="0 -2048 2048 2048">
	<path fill="#000000" d="M2240 -617Q2240 -614 2236.5 -607Q2233 -600 2233 -597Q2089 -648 2005 -648Q1964 -648 1795 -584Q1663 -535 1613 -511V-30H2175V145H315V-27H882V-499Q856 -514 721 -563Q566 -619 526 -619Q433 -619 292 -471Q168 -340 122 -231Q119 -231 111 -234Q103 -237 100 -237V-297Q99 -313 138 -403Q214 -581 340 -693Q473 -811 613 -811Q693 -811 878 -735Q882 -770 882 -806Q882 -842 878 -874H958V-711Q1045 -679 1105 -666Q1109 -669 1109 -715Q1109 -760 1105 -880H1184V-665Q1176 -666 1325 -666Q1330 -671 1324 -880H1398V-681Q1402 -677 1422 -677Q1479 -677 1545 -705V-880H1613Q1613 -779 1624 -729Q1695 -755 1765 -782Q1860 -817 1915 -817Q2072 -817 2240 -617ZM2176 -644Q2122 -702 2047 -744Q1969 -788 1912 -788Q1863 -788 1773 -757Q1694 -728 1615 -699V-544Q1935 -672 2008 -672Q2050 -672 2176 -644ZM1543 -522V-671Q1498 -659 1400 -647V-492H1436Q1452 -491 1543 -522ZM1587 -856H1577L1574 -29H1584ZM1329 -484V-636Q1185 -636 1185 -636V-484ZM1373 -29L1372 -850H1362L1363 -29ZM1543 -29V-491Q1454 -469 1400 -462V-29ZM1102 -487Q1106 -587 1106 -612Q1106 -638 1102 -642Q1097 -643 959 -677V-510Q1023 -494 1102 -487ZM1153 -29L1152 -850H1141L1143 -29ZM1329 -29V-459H1185V-29ZM927 -29L921 -846H911L916 -29ZM1108 -29V-462Q1085 -462 1034 -471Q983 -480 978 -480H959V-29ZM2146 122V-4H344V122ZM882 -533V-705Q682 -782 607 -782Q456 -782 309 -619Q180 -475 136 -312Q210 -443 315 -536Q434 -643 535 -643Q597 -643 710 -600Q796 -566 882 -533Z"/>
</svg>