<svg xmlns="http://www.w3.org/2000/svg" viewBox="26.6 -1583.4 1511.7 1980.7">
	<path fill="currentColor" d="M1465 -756L945 -714V-628Q976 -625 1007 -622Q1056 -614 1056 -592Q1056 -564 986 -538Q931 -518 912 -411Q902 -347 880 -222Q876 -203 819 -158V324Q815 322 808 321Q795 320 747 323V-163Q704 -189 695 -211Q679 -252 667 -332Q654 -423 644 -457.5Q634 -492 590 -523Q565 -533 540 -543Q494 -565 494 -587Q494 -629 562 -629Q567 -629 579 -626.5Q591 -624 606 -624L610 -627V-710Q608 -711 601 -716Q473 -721 101 -756Q106 -792 106 -833Q164 -831 170 -835Q205 -857 256 -958Q268 -982 272 -1005Q279 -1047 279 -1062Q279 -1107 240 -1178Q195 -1259 148 -1259Q121 -1259 100 -1254Q102 -1322 100 -1342L608 -1374V-1510H682V-1380H881V-1510H945V-1379L1465 -1337V-1270Q1424 -1257 1343 -1270Q1339 -1274 1339 -1262Q1339 -1260 1358 -1232Q1418 -1142 1418 -1057Q1418 -938 1344 -832Q1364 -832 1403 -832Q1448 -833 1465 -833ZM921 -1375V-1489H912V-1375ZM1443 -1286V-1316L691 -1356L122 -1316V-1286L355 -1306H1190ZM656 -1375V-1484H631V-1381ZM1392 -1054Q1392 -1092 1390 -1105Q1383 -1147 1330 -1232Q1321 -1248 1300 -1267Q1217 -1285 1115 -1285H444L205 -1263Q300 -1169 300 -1057Q300 -934 205 -830Q233 -830 293.5 -824Q354 -818 356 -818H1184Q1188 -818 1238.5 -824Q1289 -830 1311 -830Q1392 -923 1392 -1054ZM924 -625V-712H904V-625ZM1443 -777V-812L1127 -792H428L133 -812L127 -777L586 -739H995ZM874 -624Q873 -665 874 -712H679V-624ZM651 -625V-712H631V-625ZM1029 -578V-597H527L524 -585Q561 -567 611 -538Q655 -503 665 -473Q667 -468 686 -348Q698 -275 710 -248Q735 -188 788 -188Q837 -188 854 -226Q854 -226 868 -316Q881 -403 892 -441Q913 -512 950 -549Q962 -561 988 -568Q1028 -578 1029 -578ZM798 294V-161H772V300Q780 294 798 294Z"/>
</svg>