<svg xmlns="http://www.w3.org/2000/svg" viewBox="0 -2048 2048 2048">
	<path fill="#000000" d="M1546 9Q1541 19 1528 34Q1489 49 1415 79Q1396 87 1367.5 124Q1339 161 1339 181Q1339 200 1354 250Q1369 300 1369 320V345Q1363 346 1357 352Q1158 115 1034 38V47Q1034 72 1045 113Q1040 121 1035 121Q1038 121 979 92Q894 51 773 47L763 34V385H621L634 -84Q634 -95 633 -113L482 -226Q456 -202 398 -136Q382 -197 366 -259Q345 -329 319 -377Q267 -430 191 -510Q100 -615 100 -773Q102 -774 107 -774Q113 -774 126.5 -772Q140 -770 147 -770Q153 -781 160 -817Q333 -802 649 -547Q651 -553 651 -562Q651 -595 641 -607Q637 -612 592 -657L481 -768Q479 -773 480 -780L541 -1565H607Q601 -1513 597 -1472H792L797 -1477Q796 -1506 791 -1565H857L915 -790Q915 -790 915 -777Q915 -765 741 -591V-506L1041 -446L1045 -438Q974 -375 931 -298Q941 -285 967 -267Q1016 -252 1235 -211L1122 -141Q1143 -120 1188 -91Q1263 -42 1364 -25Q1521 2 1546 9ZM811 -1269L797 -1448H595L584 -1269ZM824 -1075L814 -1241H581L568 -1075ZM891 -783L831 -1538H818L868 -809Q869 -794 869 -796Q869 -795 867 -790Q812 -733 693 -623Q519 -787 519 -796Q519 -785 521 -811L577 -1541H564L507 -782Q507 -779 509.5 -774.5Q512 -770 599 -682Q677 -604 677 -600Q677 -592 675.5 -575Q674 -558 674 -550Q674 -526 681 -516.5Q688 -507 714 -507V-594ZM837 -871L824 -1051H564L551 -871ZM844 -802Q840 -825 843 -843H548Q548 -837 546 -824Q544 -811 544 -805Q544 -805 692 -657ZM1165 -198L1002 -232Q1087 -156 1097 -156Q1102 -156 1165 -198ZM1001 -429L731 -476L913 -316Q947 -370 1001 -429ZM1489 23L1273 -12V-1Q1273 83 1199 133L1328 275V263Q1328 251 1321.5 224.5Q1315 198 1315 185Q1315 124 1374 77Q1421 40 1489 23ZM1248 3V-28Q1150 -73 1015 -187Q907 -283 800 -378Q683 -480 443 -675Q421 -692 330 -733Q341 -722 341 -703Q341 -695 338 -690Q324 -694 330 -694Q315 -664 295 -664Q263 -664 263 -699Q263 -703 270.5 -711Q278 -719 278 -735Q278 -737 279 -741L297 -745L192 -783Q194 -767 194 -751Q194 -735 192 -720Q170 -723 127 -730Q138 -649 187 -562Q246 -456 312 -456Q357 -456 402 -497L414 -475Q390 -453 335 -431Q356 -433 385 -450Q408 -464 432 -477Q444 -465 445 -453Q484 -483 484 -483Q492 -483 554 -446Q613 -410 625 -399Q704 -330 701 -278Q687 -269 674 -269Q622 -269 532 -313Q436 -360 419 -403Q399 -393 357 -375Q408 -315 522 -226Q640 -134 709 -103Q759 -90 859 -61Q911 -45 1009 -1Q1061 31 1177 111Q1202 111 1226 69Q1248 30 1248 3ZM670 -297Q651 -337 593 -391Q530 -450 494 -450Q491 -450 470 -433.5Q449 -417 444 -415Q458 -375 543 -337Q611 -307 670 -297ZM1014 78Q1003 46 996 16Q958 -2 868 -31Q770 -62 741 -62Q757 -30 789 20Q900 25 1014 78ZM457 -245Q409 -281 371 -319L408 -189Q426 -207 457 -245ZM737 355V-8Q737 -39 704 -72Q697 -79 662 -95L648 355Z"/>
</svg>