<svg xmlns="http://www.w3.org/2000/svg" viewBox="0 -2048 2048 2048">
	<path fill="#000000" d="M1744 -105Q1744 -67 1716 -22Q1685 28 1648 28Q1620 28 1584 -33Q1553 -87 1553 -108Q1553 -114 1566.5 -158.5Q1580 -203 1580 -212Q1580 -247 1540 -282Q1527 -263 1505 -229Q1414 -57 1237 47Q1077 141 910 147Q916 201 916 322L909 355H754Q735 345 745 330Q746 293 753 152Q712 146 629 130Q494 100 340 -1Q290 -34 232 -98Q210 -122 162 -189Q100 -275 100 -297V-320H776Q785 -344 785 -378Q785 -404 775 -414Q578 -609 578 -612L655 -1551H722Q724 -1531 724 -1504Q724 -1477 722 -1437H955Q955 -1437 955 -1550H1024L1101 -611L883 -398V-320H1544Q1617 -320 1683 -243Q1744 -170 1744 -105ZM975 -1198L959 -1414H721L699 -1198ZM991 -973L975 -1169H699L683 -973ZM1717 -108Q1717 -128 1714 -139Q1707 -164 1672 -217Q1627 -287 1593 -287H1575Q1608 -262 1608 -222Q1608 -215 1594 -163.5Q1580 -112 1580 -105Q1580 -96 1604 -51Q1632 1 1651 1Q1680 1 1701 -45Q1717 -81 1717 -108ZM997 -730V-946H683L666 -730ZM1074 -631L1002 -1523H982L1036 -658Q1037 -641 1034 -635Q969 -570 837 -440Q757 -514 634 -629Q632 -655 633 -661L703 -1522Q698 -1527 677 -1529L606 -634Q605 -617 781 -441Q812 -410 812 -410L770 327H893L856 -383Q855 -397 857 -404Q918 -463 979 -522Q1075 -616 1074 -631ZM1008 -643V-701H661Q661 -692 658 -672.5Q655 -653 655 -647Q655 -638 837 -473ZM1515 -292H889L911 120H951Q1024 120 1160 57Q1292 -5 1352.5 -62.5Q1413 -120 1462 -207Q1481 -237 1515 -292ZM779 -292H127Q158 -240 185 -202Q279 -70 362 -17Q422 21 487 54Q496 58 592 88Q695 120 712 120H757Z"/>
</svg>