<svg xmlns="http://www.w3.org/2000/svg" viewBox="0 -2048 2048 2048">
	<path fill="currentColor" d="M1974 -456H1103Q1094 -440 1094 -396Q1094 -362 1098 -352.5Q1102 -343 1133 -299Q1164 -255 1190 -175Q1217 -92 1217 -34Q1217 42 1157 191Q1093 348 1043 372Q1039 372 1031 370Q862 122 862 -39Q862 -112 902 -206Q940 -297 985 -337Q997 -348 997 -407Q997 -443 988 -456H100Q110 -514 144 -615Q255 -811 426 -871Q524 -906 731 -906H965L938 -1508H1141L1114 -903H1974V-875H1120L1093 -486Q1092 -477 1104 -477H1974ZM1190 -31Q1190 -131 1140 -239Q1114 -270 1073 -330Q1065 -347 1067 -404L1114 -1486H965L1024 -410Q1027 -352 1006 -325Q889 -175 889 -42Q889 38 943.5 169.5Q998 301 1048 340Q1190 98 1190 -31ZM991 -478L969 -874H533Q428 -874 295 -764Q160 -651 146 -544Q145 -537 138.5 -519Q132 -501 132 -495V-478Z"/>
</svg>