<svg xmlns="http://www.w3.org/2000/svg" viewBox="0 -2048 2048 2048">
	<path fill="#000000" d="M1774 -1088Q1774 -805 1641 -510Q1490 -172 1224 25Q1091 124 951 191Q910 211 835 244Q789 262 682 287Q557 316 495 316H374Q363 305 358 305V277Q553 195 731 88L295 -977L100 -1063L142 -1142L1307 -632Q1371 -797 1371 -1089Q1371 -1262 1346 -1429H1370Q1377 -1373 1395 -1262H1749V-1444H1774ZM1749 -1062V-1242H1392V-1087Q1502 -1077 1749 -1062ZM1745 -1033L1391 -1060L1389 -926L1731 -870Q1738 -921 1745 -1033ZM1724 -843L1387 -904Q1378 -801 1366 -755L1688 -693Q1701 -740 1724 -843ZM1673 -666L1362 -728Q1349 -686 1326 -609L1612 -486ZM1598 -464L1317 -577Q1312 -559 1298.5 -519.5Q1285 -480 1280 -462L1526 -340Q1576 -420 1598 -464ZM1507 -313L1267 -441Q1241 -394 1190 -307L1399 -168Q1444 -219 1507 -313ZM1295 -570L963 -707L1136 -284Q1238 -413 1295 -570ZM1303 -606L152 -1111L135 -1076L1298 -593ZM1124 -256L930 -720L908 -733L1115 -245ZM1381 -151L1171 -284Q1128 -212 1073 -161L1250 -27Q1328 -91 1381 -151ZM1094 -226L871 -745L676 -828L975 -103Q1060 -177 1094 -226ZM957 -90L643 -838L626 -849L943 -78ZM1230 -9L1051 -138L957 -50L1086 89ZM927 -65L589 -861L373 -949L788 48Q878 -12 927 -65ZM772 63L340 -963L322 -969L757 74ZM1063 97L935 -32Q898 4 826 61Q893 151 924 180Q980 149 1063 97ZM897 193Q866 151 799 74L660 162Q686 200 712 255Q783 237 807 230Q862 213 897 193ZM685 259Q660 210 633 175L398 289Q501 297 685 259Z"/>
</svg>