<svg xmlns="http://www.w3.org/2000/svg" viewBox="27.2 -1547.8 1964.5 1964.5">
	<path fill="currentColor" d="M1919 -526Q1899 -494 1875 -492Q1649 -470 1615 -470H1342Q1287 -470 1211.5 -446Q1136 -422 1095 -394V279Q1095 298 1069 321Q1043 344 1028 344Q1023 344 1000 334.5Q977 325 961 322L790 -430Q793 -434 781 -434Q379 -294 247 -294Q201 -294 161 -311Q108 -332 108 -372Q108 -379 110 -387Q135 -403 162 -403Q168 -403 210 -398Q252 -393 258 -393Q312 -393 364 -406Q293 -436 195 -571Q100 -702 100 -761Q100 -807 139 -807Q149 -807 160 -790Q208 -680 311 -567Q423 -444 494 -444Q553 -444 763 -547Q760 -565 746 -601Q699 -631 652 -662Q561 -725 561 -766Q561 -797 595 -797Q612 -797 713 -734Q710 -777 693 -847Q671 -942 668 -955Q667 -961 660.5 -978.5Q654 -996 654 -1002Q654 -1019 676 -1059Q696 -1072 720 -1072H864Q879 -1072 895 -1107Q909 -1136 909 -1148V-1446Q898 -1452 878 -1451V-1475H1094V-615Q1188 -595 1346 -595L1854 -626Q1873 -626 1896 -613Q1914 -567 1917 -546Q1914 -545 1904 -535Q1913 -526 1919 -526ZM1893 -528V-551Q1893 -542 1872 -597Q1847 -600 1836 -600L1339 -574Q1156 -574 1096 -589V-539Q1147 -532 1199 -523V-506Q1163 -493 1096 -475V-424Q1226 -491 1321 -491H1662Q1771 -491 1893 -528ZM1069 290V-1449H935V-1179Q933 -1046 859 -1046Q852 -1046 827.5 -1048.5Q803 -1051 797 -1051Q790 -1051 754 -1048Q711 -1044 697 -1043Q680 -1015 680 -1004Q680 -1033 938 113Q952 176 983 300Q1033 318 1028 318Q1051 318 1069 290ZM736 -642V-660Q726 -703 674 -730Q631 -750 588 -771Q602 -722 736 -642ZM778 -461Q778 -484 767 -517L491 -419Q341 -434 149 -765Q142 -776 132 -776L126 -737Q155 -649 252 -539Q316 -467 402 -412Q411 -406 411 -397Q326 -367 255 -367Q268 -367 193 -375Q150 -379 136 -365Q143 -344 182 -329Q215 -315 240 -315Q325 -315 529 -372Q724 -427 778 -461Z"/>
</svg>