<svg xmlns="http://www.w3.org/2000/svg" viewBox="0 -2048 2048 2048">
	<path fill="#000000" d="M1972 -547Q1972 -557 1968 -535Q1932 -509 1812 -489Q1712 -473 1644 -473Q1643 -473 1549 -480L1049 -517Q1041 -518 1042 -518Q1034 -458 1034 -420Q1034 -392 1036 -377Q1035 -378 1036 -378Q1042 -378 1098 -272Q1161 -153 1161 -53Q1161 14 1098 172Q1030 342 983 352Q920 314 857 165Q798 26 798 -58Q798 -230 895 -332Q901 -338 911 -350Q923 -368 923 -404Q923 -450 913 -500Q721 -467 682 -467Q557 -467 501 -501Q474 -518 432 -579Q394 -635 336 -662Q322 -662 295 -655.5Q268 -649 254 -649Q212 -649 163 -668Q102 -691 104 -725H102L100 -744Q131 -822 227 -842L104 -950V-979Q113 -990 133 -1000Q221 -921 297 -860L419 -1002L426 -1004H430Q465 -1004 465 -961L366 -850Q406 -838 494 -737Q577 -641 596 -641Q639 -641 748 -676Q880 -718 907 -723L870 -1518H1081L1050 -727Q1118 -721 1288 -647Q1442 -580 1560 -580Q1673 -580 1814 -579Q1855 -580 1937 -578Q1972 -576 1972 -547ZM1054 -1493H897L931 -727Q954 -733 1024 -729ZM1941 -547L1931 -553Q1707 -553 1517 -557Q1424 -559 1248 -633Q1072 -707 974 -707Q911 -707 782.5 -662Q654 -617 594 -617Q564 -617 472.5 -723.5Q381 -830 311 -830Q305 -830 299 -824L293 -830Q182 -828 127 -742Q129 -674 254 -674Q268 -674 295 -680Q322 -686 336 -686Q373 -686 433 -612Q502 -527 533 -512Q576 -492 682 -492Q749 -492 872 -512Q1063 -543 1059 -543Q1080 -543 1233 -529Q1572 -498 1644 -498Q1709 -498 1799 -510Q1912 -525 1941 -547ZM440 -969L430 -977L327 -858L340 -856ZM268 -850Q218 -895 129 -967V-963L256 -848ZM1136 -49Q1136 -128 1095 -212Q1054 -285 1013 -359Q1009 -367 1009 -404Q1009 -462 1018 -514L938 -504Q950 -440 950 -404Q950 -380 886.5 -276Q823 -172 823 -58Q823 12 879 150Q938 296 989 323Q1022 298 1080 148Q1136 2 1136 -49ZM305 -787Q299 -774 276 -766Q263 -772 247 -783Q248 -787 272 -815Q305 -803 305 -787Z"/>
</svg>