<svg xmlns="http://www.w3.org/2000/svg" viewBox="19.2 -640.8 2182.7 864.7">
	<path fill="currentColor" d="M2121 77Q2121 138 2078 138Q2070 138 2043 100Q1965 -12 1887 -124Q1774 -276 1680 -346Q1593 -411 1473 -434Q1430 -441 1335 -459L1284 -455Q1289 -451 1299 -444Q1375 -392 1473 -261Q1513 -207 1580 -88Q1663 60 1663 106Q1663 114 1634 143Q1613 134 1574 120Q1570 107 1547 57Q1513 -16 1394 -199Q1350 -267 1248 -363Q1141 -464 1105 -464H141Q133 -464 116.5 -482.5Q100 -501 100 -512Q100 -524 118 -542Q136 -560 152 -560H1334Q1475 -560 1608 -500Q1802 -412 1969 -186Q2121 20 2121 77ZM2099 100V71Q2099 58 2021 -63Q1884 -274 1728 -398Q1555 -534 1393 -534H145Q127 -516 127 -510Q127 -502 130 -497.5Q133 -493 133 -491H1094Q1137 -491 1236.5 -410Q1336 -329 1384 -258Q1394 -243 1533 -28Q1554 15 1575 57Q1598 105 1629 116L1636 93Q1466 -322 1220 -468V-482L1224 -486H1355Q1398 -477 1483 -460Q1484 -460 1563 -434Q1701 -389 1854 -199Q1970 -44 2086 111Q2097 100 2099 100Z"/>
</svg>