<svg xmlns="http://www.w3.org/2000/svg" viewBox="0 -2048 2048 2048">
	<path fill="#000000" d="M2022 -864Q2022 -829 1970 -726Q1942 -670 1878 -597L1905 -566Q1910 -566 1911 -566Q1936 -563 1964.5 -521.5Q1993 -480 1990 -454Q1989 -449 1985 -433Q1950 -442 1910 -468Q1936 -429 1933 -405Q1932 -394 1929 -384Q1892 -393 1854 -418Q1880 -379 1877 -355Q1876 -350 1872 -334Q1835 -343 1796 -369Q1747 -402 1751 -432Q1751 -434 1753 -439L1734 -461Q1570 -347 1390 -307H1943V-200H1660V244H1943V345H284V244H607V-200H284V-307H936Q574 -388 353 -749Q334 -780 304 -886Q275 -906 275 -950Q275 -960 294 -998Q283 -1005 251 -1006.5Q219 -1008 196 -1027Q182 -1047 150 -1085V-1106Q165 -1111 187 -1111Q239 -1111 307 -1064Q277 -1117 214 -1220Q178 -1270 107 -1369Q163 -1351 225 -1283L100 -1470Q148 -1429 236 -1341Q303 -1262 386 -1132Q399 -1108 428 -1063Q437 -1052 466 -1034Q491 -1018 502 -997Q524 -954 530 -948Q549 -930 568 -913Q615 -865 615 -842Q615 -836 612 -823.5Q609 -811 609 -806Q577 -792 559 -792Q554 -792 529 -802Q504 -812 497 -814Q467 -816 437.5 -819Q408 -822 389 -850H376Q393 -825 403 -807Q464 -698 567 -605Q673 -509 786 -466Q837 -576 901 -654Q921 -678 991 -721Q995 -757 1017 -769Q1028 -775 1072 -782Q1093 -834 1093 -889Q1093 -962 1037 -1075Q897 -955 752 -955Q648 -955 583 -1032L924 -1273V-1353Q924 -1370 900 -1391L878 -1392L864 -1366Q840 -1374 840 -1394Q840 -1436 887 -1465Q905 -1486 924.5 -1508.5Q944 -1531 1004 -1531Q1055 -1531 1085 -1517Q1109 -1506 1126 -1474Q1148 -1431 1156 -1422Q1159 -1418 1178 -1411Q1213 -1397 1302 -1292Q1366 -1203 1505 -1033Q1573 -979 1666 -881V-862Q1652 -854 1642 -853Q1611 -873 1547 -910L1623 -810Q1545 -754 1479 -719Q1467 -749 1425 -828Q1380 -911 1364 -929Q1352 -942 1307 -961H1305V-800Q1286 -814 1245 -836L1239 -785Q1274 -779 1308 -773Q1340 -764 1340 -717L1313 -733L1298 -728Q1304 -725 1314 -721Q1428 -675 1546 -463Q1587 -472 1671 -534L1606 -609L1642 -641L1709 -563L1730 -580L1662 -658L1698 -690L1768 -610L1789 -627L1719 -708L1755 -740L1825 -658Q1876 -708 1991 -900Q2022 -873 2022 -864ZM1810 -644L1753 -710L1748 -706L1805 -640ZM1631 -888Q1582 -928 1491 -1015Q1469 -1040 1294 -1265Q1260 -1309 1186 -1380Q1172 -1385 1145 -1399Q1137 -1405 1108 -1460Q1085 -1504 1052 -1504Q1044 -1504 1029 -1506Q1014 -1508 1006 -1508Q984 -1508 962 -1504Q947 -1501 918 -1465Q896 -1452 869 -1418Q887 -1435 909 -1435Q916 -1435 927 -1432Q919 -1443 919 -1451Q919 -1478 944 -1478Q970 -1478 970 -1452Q970 -1433 959 -1426Q960 -1423 960 -1418Q960 -1400 943 -1400Q937 -1400 926.5 -1405.5Q916 -1411 911 -1412Q950 -1380 950 -1308Q962 -1346 1013 -1367Q1055 -1385 1101 -1385Q1105 -1385 1110 -1379Q1110 -1369 1101 -1362Q970 -1348 970 -1294Q970 -1263 998 -1235Q1037 -1196 1122 -1154Q1191 -1122 1259 -1089Q1386 -1027 1631 -888ZM1963 -468Q1958 -484 1939 -511Q1920 -538 1907 -540Q1904 -540 1901 -539L1864 -581L1860 -577L1895 -536Q1891 -533 1890 -528Q1887 -503 1963 -468ZM948 -1451Q947 -1456 943 -1456Q938 -1455 938 -1451Q939 -1447 943 -1447Q948 -1448 948 -1451ZM1867 -512Q1863 -522 1864 -531Q1864 -533 1866 -538L1846 -562Q1846 -562 1826 -542L1849 -516Q1853 -516 1854 -516Q1861 -515 1867 -512ZM1751 -597L1696 -661L1692 -657L1747 -593ZM1907 -419Q1902 -435 1883 -461.5Q1864 -488 1851 -490Q1847 -490 1844 -489L1811 -527L1807 -523L1839 -486Q1833 -482 1833 -478Q1830 -454 1907 -419ZM1591 -813L1500 -937Q1365 -1005 1231 -1073Q1025 -1180 990 -1213Q963 -1239 950 -1280V-1249Q950 -1225 1065 -1092Q1185 -951 1199 -895Q1203 -879 1203 -842Q1203 -811 1191 -764Q1163 -761 1109 -748H1290Q1289 -758 1259 -761Q1237 -764 1215 -766V-789Q1215 -846 1234 -865Q1251 -857 1285 -840V-989Q1312 -981 1341 -971Q1370 -961 1385 -940Q1398 -923 1489 -750Q1523 -771 1591 -813ZM1811 -462Q1807 -472 1808 -481Q1808 -484 1809 -489L1792 -509Q1790 -507 1771 -491L1792 -467Q1797 -467 1798 -467Q1803 -466 1811 -462ZM1692 -550L1640 -611L1635 -607L1688 -547ZM1850 -369Q1845 -386 1828 -411Q1808 -439 1795 -441Q1791 -441 1788 -440L1755 -477L1751 -474L1782 -437Q1778 -434 1777 -429Q1774 -404 1850 -369ZM1180 -861V-862Q1180 -873 1165 -911.5Q1150 -950 1143 -960Q1142 -962 1079 -1034Q1116 -937 1116 -889Q1116 -846 1094 -773Q1107 -775 1116 -778Q1122 -806 1135 -861Q1140 -870 1150 -870Q1161 -870 1180 -861ZM977 -1162Q940 -1210 927 -1247L700 -1086Q728 -1068 765 -1068Q864 -1068 977 -1162ZM1180 -832Q1166 -842 1156 -845L1141 -784Q1159 -782 1161 -782H1167Q1170 -782 1175 -784Q1180 -812 1180 -832ZM1031 -1086Q1011 -1124 993 -1142Q940 -1109 888 -1076Q832 -1048 767 -1048Q731 -1048 712 -1055Q709 -1056 694 -1065Q679 -1074 677 -1074Q672 -1074 615 -1031Q656 -977 752 -977Q852 -977 1009 -1076Q1019 -1082 1031 -1086ZM1038 -752Q1026 -749 1018 -731Q1025 -734 1032 -735Q1033 -745 1038 -752ZM1991 -848Q1921 -729 1863 -664Q1801 -595 1691 -515Q1485 -366 1151 -366Q907 -366 708 -476Q506 -587 381 -794Q368 -816 339 -856Q392 -663 579 -511Q756 -368 963 -328Q1056 -310 1178 -310Q1448 -310 1672 -451Q1907 -600 1991 -848ZM1521 -454Q1456 -580 1383 -650Q1375 -659 1358 -675Q1313 -709 1263 -721Q1239 -727 1193 -727Q1019 -727 950 -670Q905 -634 810 -459Q841 -446 905 -425Q1051 -392 1151 -392Q1368 -392 1521 -454ZM1634 244V-200H1582V244ZM398 -1069Q333 -1186 250 -1287Q307 -1186 377 -1076Q385 -1071 398 -1069ZM589 -841Q589 -852 558 -888Q542 -900 514 -926Q504 -948 479 -990Q450 -1030 394 -1050L395 -1049Q382 -1041 371 -1041Q284 -1188 200 -1279Q252 -1192 359 -1019Q348 -1012 340 -1011L341 -999Q332 -1002 321 -1007L333 -998L315 -990Q298 -961 298 -950Q298 -897 375 -873L373 -877Q393 -865 412 -852Q436 -838 455 -838Q458 -838 464.5 -839Q471 -840 474 -840Q492 -840 519 -830L526 -835Q543 -828 579 -817L585 -819Q589 -837 589 -841ZM1556 244V-200H1339V244ZM1917 -226V-281H310V-226ZM297 -1020Q272 -1043 220 -1086L183 -1084Q195 -1072 200 -1063Q215 -1038 244 -1032Q291 -1023 297 -1020ZM1313 244V-200H1261V244ZM1235 244V-200H1024V244ZM998 244V-200H946V244ZM1917 319V270H310V319ZM920 244V-200H711V244ZM685 244V-200H633V244ZM456 -962Q435 -949 425 -949Q421 -949 415.5 -952Q410 -955 407 -955Q403 -949 394 -949Q385 -949 367 -967Q373 -968 392 -978.5Q411 -989 416 -989Q429 -989 456 -962Z"/>
</svg>