<!-- Created with Inkscape (http://www.inkscape.org/) -->

<svg viewBox="-554.3 -1124.5 605.4 1170"
   xmlns="http://www.w3.org/2000/svg"
   version="1.1">
  <defs>
    <marker
       orient="auto"
       refY="0"
       refX="0"
       style="overflow:visible">
      <path
         d="M 0,0 5,-5 -12.5,0 5,5 0,0 z"
         style="fill-rule:evenodd;stroke:#000000;stroke-width:1pt;marker-start:none"
         transform="matrix(-0.2,0,0,-0.2,-1.2,0)" />
    </marker>
    <marker
       orient="auto"
       refY="0"
       refX="0"
       style="overflow:visible">
      <path
         style="font-size:12px;fill-rule:evenodd;stroke-width:0.625;stroke-linejoin:round"
         d="M 8.7185878,4.0337352 -2.2072895,0.01601326 8.7185884,-4.0017078 c -1.7454984,2.3720609 -1.7354408,5.6174519 -6e-7,8.035443 z"
         transform="scale(-0.6,-0.6)" />
    </marker>
    <marker
       orient="auto"
       refY="0"
       refX="0"
       style="overflow:visible">
      <path
         d="M 0,0 5,-5 -12.5,0 5,5 0,0 z"
         style="fill-rule:evenodd;stroke:#000000;stroke-width:1pt;marker-start:none"
         transform="matrix(-0.4,0,0,-0.4,-4,0)" />
    </marker>
    <marker
       orient="auto"
       refY="0"
       refX="0"
       style="overflow:visible">
      <path
         d="M 0,0 5,-5 -12.5,0 5,5 0,0 z"
         style="fill-rule:evenodd;stroke:#000000;stroke-width:1pt;marker-start:none"
         transform="matrix(-0.8,0,0,-0.8,-10,0)" />
    </marker>
  </defs>

  <g
     transform="translate(-0.375,748.98157)">
    <path
       style="font-size:medium;font-style:normal;font-variant:normal;font-weight:normal;font-stretch:normal;text-indent:0;text-align:start;text-decoration:none;line-height:normal;letter-spacing:normal;word-spacing:normal;text-transform:none;direction:ltr;block-progression:tb;writing-mode:lr-tb;text-anchor:start;baseline-shift:baseline;color:#000000;fill:currentColor;fill-opacity:1;fill-rule:evenodd;stroke:none;stroke-width:20pt;marker:none;visibility:visible;display:inline;overflow:visible;enable-background:accumulate;font-family:Sans;-inkscape-font-specification:Sans"
       d="m 755.59375,-1.34375 -60,0.09375 1.0625,769.1875 -353.96875,1.78125 96.125,-96.125 L 0.375,798.875 c 145.34526,42.44861 291.61957,83.30998 438.4375,125.25 L 344.40625,829.71875 696.75,827.9375 697.625,1458.25 601.5,1362.125 726.78125,1800.5625 c 42.4486,-145.3453 83.30997,-291.6196 125.25,-438.4375 l -94.40625,94.4062 z"
       transform="translate(0,-747.63782)" />
  </g>
</svg>