<svg xmlns="http://www.w3.org/2000/svg" viewBox="31.1 -1506.9 1809.8 1859.8">
	<path fill="currentColor" d="M1772 284H1592Q1589 268 1581 236Q1645 235 1645 198V-347Q1623 -372 1577 -420H280Q222 -348 222 -339V194Q222 191 236 220Q244 221 281 221V284H105V221Q142 226 141 226Q156 226 168 203V-342Q100 -426 100 -427V-1428Q294 -1365 487 -1301Q726 -1231 882 -1231Q1134 -1231 1351 -1292Q1380 -1300 1752 -1438Q1763 -1383 1763 -1352Q1763 -1272 1767 -890Q1769 -608 1769 -429Q1769 -412 1736.5 -381.5Q1704 -351 1704 -344V194Q1704 200 1727 230Q1732 231 1767 231Q1767 258 1772 284ZM1537 -951Q1527 -958 1517 -972Q1509 -966 1497 -949H1502Q1530 -949 1537 -951ZM1434 -1008Q1434 -1024 1422 -1024Q1396 -1024 1396 -1011Q1396 -1009 1421 -970Q1434 -992 1434 -1008ZM1528 -853Q1507 -860 1501 -860Q1483 -860 1483 -850Q1483 -842 1505 -815Q1521 -834 1528 -853ZM1374 -939Q1369 -948 1359 -965Q1349 -950 1339 -940Q1347 -938 1359 -938Q1369 -938 1374 -939ZM1301 -1014Q1286 -1022 1271 -1022Q1271 -1022 1239 -1014Q1257 -997 1271 -974Q1281 -984 1301 -1014ZM1409 -673V-931Q1389 -913 1357 -913Q1306 -913 1306 -938Q1306 -946 1323.5 -965Q1341 -984 1341 -994Q1341 -996 1333 -1019Q1334 -1016 1334 -1010Q1334 -1013 1287 -957V-861Q1314 -884 1348 -884Q1370 -884 1403 -869Q1389 -834 1361 -789V-671Q1381 -697 1385 -697Q1397 -697 1409 -673ZM1589 -538V-1265Q1306 -1159 991 -1127L992 -1085Q993 -1040 987 -991Q1119 -1148 1204 -1148Q1214 -1148 1228.5 -1140.5Q1243 -1133 1249 -1133Q1304 -1167 1352 -1167Q1447 -1167 1492 -1078Q1500 -1052 1521 -1005Q1530 -990 1568 -960V-939Q1554 -922 1518 -922Q1481 -922 1459 -937V-955Q1499 -979 1499 -1008Q1499 -1051 1448 -1097Q1397 -1143 1354 -1143Q1317 -1143 1282 -1118Q1322 -1093 1349 -1040Q1373 -994 1396 -948L1400 -950Q1386 -975 1366 -1025Q1416 -1046 1422 -1046Q1437 -1046 1473 -1023L1474 -1018Q1460 -992 1434 -940L1435 -671Q1458 -701 1461 -701Q1476 -701 1488 -678L1490 -792Q1490 -799 1466 -821.5Q1442 -844 1442 -853Q1442 -882 1503 -882Q1561 -882 1561 -856Q1561 -846 1538 -820Q1515 -794 1515 -785V-673Q1527 -680 1549 -697L1579 -544ZM1365 -855Q1350 -860 1344 -860Q1341 -860 1335.5 -859Q1330 -858 1327 -858Q1334 -837 1347 -811Q1356 -829 1365 -855ZM1226 -1117L1184 -1123Q1145 -1113 1085 -1058Q1033 -1010 1005 -967Q1037 -957 1052 -946Q1125 -1007 1226 -1117ZM1332 -1022Q1313 -1073 1251 -1103L1074 -933Q1177 -872 1214 -665Q1223 -709 1232 -709Q1235 -709 1263 -678V-950Q1246 -971 1210 -1012H1209Q1208 -1013 1208 -1016Q1208 -1046 1271 -1046Q1315 -1046 1332 -1022ZM1336 -671V-789Q1316 -807 1288 -856V-675Q1302 -697 1306 -697Q1316 -697 1336 -671ZM962 -986V-1127H922V-986ZM1556 -538L1536 -656Q1526 -643 1503 -621Q1487 -640 1462 -671Q1435 -642 1415 -628Q1406 -641 1389 -668L1348 -621Q1340 -633 1313 -671Q1297 -655 1280 -630H1277Q1269 -630 1257 -647.5Q1245 -665 1238 -668L1216 -538ZM1029 -928Q1006 -951 997 -951H981Q979 -943 976 -927Q998 -916 1005 -916Q1011 -916 1019 -922Q1027 -928 1029 -928ZM956 -960H927V-946H944ZM1733 -445V-1408Q1288 -1215 973 -1215Q950 -1215 903 -1211Q856 -1207 833 -1207Q676 -1207 313 -1331Q269 -1345 181 -1375Q128 -1395 120 -1394V-445H261V-1215Q261 -1252 270 -1296Q394 -1238 590.5 -1195.5Q787 -1153 924 -1153Q1158 -1153 1476 -1248Q1485 -1251 1543 -1274Q1597 -1295 1601 -1295Q1614 -1295 1621 -1287V-445ZM955 -911H932V-892H949Q955 -898 955 -911ZM1187 -538V-708Q1187 -747 1136 -831.5Q1085 -916 1054 -916Q1040 -916 1030 -893Q1060 -888 1093 -800Q1123 -721 1123 -682V-538ZM906 -933Q901 -941 890 -956Q875 -948 843 -934Q865 -912 872 -912Q880 -912 890 -920Q903 -932 906 -933ZM872 -972Q850 -1021 791 -1066Q729 -1113 678 -1113Q654 -1113 641 -1106L820 -946Q853 -968 872 -972ZM1738 -418H1611Q1641 -388 1670 -357V193Q1670 192 1636 244Q1627 247 1608 250L1708 254Q1679 196 1679 194V-349Q1679 -359 1738 -418ZM1103 -609Q1103 -651 1087 -752Q1082 -782 1055 -829Q1024 -882 1000 -882Q971 -882 971 -835V-770Q1064 -768 1064 -693Q1064 -625 990 -539H1102Q1100 -549 1100 -560Q1100 -568 1101.5 -584.5Q1103 -601 1103 -609ZM1039 -693Q1039 -737 1006 -742Q973 -743 940 -743Q944 -779 944 -820V-872Q934 -862 934 -837Q934 -826 936.5 -803Q939 -780 939 -769Q939 -750 933 -739Q882 -749 887 -749Q843 -749 843 -690Q843 -634 922 -533Q928 -531 933 -531Q966 -531 1004 -597Q1039 -657 1039 -693ZM626 -1018L573 -1024Q573 -1001 594 -980Q600 -992 626 -1018ZM916 -769V-795Q916 -779 909 -871Q894 -882 882 -882Q863 -882 830 -827Q800 -777 795 -752Q783 -689 783 -616Q783 -535 784 -539H886Q818 -675 818 -690Q818 -774 893 -774Q907 -774 916 -769ZM793 -934L609 -1099Q569 -1069 548 -1041Q571 -1049 594 -1049Q637 -1049 656 -1022Q639 -998 602 -954V-695Q624 -715 628 -715Q640 -715 636 -711Q642 -683 653 -626Q659 -819 793 -934ZM898 -986V-1127Q695 -1135 506 -1188Q496 -1191 388 -1230Q300 -1261 280 -1261V-547Q305 -622 332 -701Q337 -709 347 -710Q357 -700 358 -690Q361 -780 361 -780Q361 -802 344 -827Q316 -868 316 -869Q347 -892 372 -892Q410 -892 429 -864V-851Q382 -824 382 -778Q382 -767 385 -746.5Q388 -726 388 -715Q388 -703 386 -695Q391 -706 411 -715Q420 -705 438 -685V-949Q426 -976 395 -1027Q439 -1049 446 -1049Q470 -1049 511 -1025Q513 -1038 542 -1071Q562 -1093 582 -1116Q540 -1138 515 -1138Q471 -1138 423 -1096.5Q375 -1055 375 -1012Q375 -984 415 -962V-945Q387 -931 350 -931Q330 -931 311 -949V-968Q341 -986 361 -1028Q394 -1099 395 -1100Q435 -1163 515 -1163Q536 -1163 576.5 -1143Q617 -1123 619 -1123Q630 -1123 653 -1130.5Q676 -1138 687 -1138Q775 -1138 898 -986ZM852 -900Q823 -916 820 -916Q799 -916 755 -862Q716 -814 706 -787Q675 -700 675 -611Q675 -534 676 -538H763V-698Q763 -798 852 -900ZM510 -1012L503 -1016L472 -969L478 -965ZM527 -948Q522 -956 510 -971Q498 -959 498 -947Q502 -945 506 -945H509Q512 -945 518 -946.5Q524 -948 527 -948ZM473 -1018Q463 -1023 445 -1029Q434 -1018 434 -1012Q434 -1005 439.5 -993Q445 -981 445 -976Q445 -976 473 -1018ZM1595 -445V-512H277V-445ZM581 -873V-959Q581 -972 530 -1008Q540 -985 562 -939Q535 -921 513 -921Q504 -921 460 -936V-690Q469 -700 489 -710Q497 -701 507 -685V-802Q468 -859 468 -875Q468 -889 473 -883Q499 -892 520 -892Q542 -892 581 -873ZM542 -866H503Q508 -851 520 -823Q527 -837 542 -866ZM580 -690V-862Q533 -821 533 -732Q533 -725 534 -708Q534 -693 534 -685Q547 -710 564 -710Q569 -703 580 -690ZM380 -957Q369 -968 369 -975Q359 -975 341 -957ZM389 -849V-867Q383 -867 370 -866Q357 -866 351 -866Q356 -850 373 -828Q378 -835 389 -849ZM645 -538L618 -670Q617 -641 592 -641Q586 -641 573 -655Q557 -673 554 -675Q543 -659 520 -626Q503 -641 481 -675Q472 -656 451 -621Q438 -642 407 -680Q397 -660 368 -631Q360 -643 342 -665L307 -538ZM261 259Q262 248 249.5 246.5Q237 245 226 244Q198 209 198 194V-344Q198 -351 252 -418H134Q155 -395 193 -347V203Q193 228 131 248L129 259Z"/>
</svg>