<svg xmlns="http://www.w3.org/2000/svg" viewBox="24.8 -1602.2 1430.3 2029.3">
	<path fill="currentColor" d="M1380 -992Q1380 -925 1320 -870Q1267 -822 1197 -804Q1264 -663 1266 -657Q1305 -564 1305 -503Q1305 -487 1290 -427Q1269 -429 1228 -435Q1221 -481 1221 -500Q1221 -570 1189 -645Q1177 -676 1121 -778Q1117 -785 1110 -800L1102 -798V352H100V133H457V-880H863V-1527H1100V-914Q1111 -967 1130 -992Q1180 -1056 1241 -1072Q1245 -1073 1273 -1073Q1347 -1073 1378 -1008Q1380 -1004 1380 -992ZM1305 -979Q1304 -1004 1282 -1004Q1243 -1004 1205 -960Q1170 -920 1163 -879Q1200 -879 1212 -884Q1271 -909 1305 -979ZM1075 -882V-1502H886V-882ZM1358 -988Q1358 -1014 1335.5 -1032.5Q1313 -1051 1287 -1051Q1221 -1051 1149 -979Q1142 -972 1125.5 -924Q1109 -876 1109 -864Q1109 -847 1152 -770Q1202 -680 1207 -668Q1236 -596 1242 -556Q1244 -522 1249 -454Q1262 -454 1274 -452Q1282 -486 1282 -503Q1282 -579 1210.5 -724Q1139 -869 1139 -867Q1139 -924 1187.5 -975.5Q1236 -1027 1293 -1027Q1295 -1027 1299 -1025Q1331 -988 1331 -979Q1331 -962 1290 -916Q1259 -882 1220 -863Q1204 -855 1171 -855Q1177 -840 1186 -824Q1242 -831 1298 -881Q1358 -934 1358 -988ZM1102 -823Q1098 -834 1090 -856H483V-823ZM1075 327V-797H484V158H126V327Z"/>
</svg>