<svg xmlns="http://www.w3.org/2000/svg" viewBox="0 -2048 2048 2048">
	<path fill="currentColor" d="M2035 -944Q2035 -857 1985 -754Q1969 -720 1909 -640Q1856 -567 1856 -562V-418Q1856 -412 1841 -323Q1826 -234 1826 -229Q1826 -233 1849 -200Q1898 -129 1911 -66Q1913 -56 1913 -33Q1913 3 1899 73.5Q1885 144 1885 179Q1885 196 1887 211Q1884 213 1850 219Q1845 231 1834 252Q1822 269 1798 269Q1752 269 1765 221Q1745 219 1704 212Q1709 188 1713 164Q1721 141 1750 118Q1765 115 1796 105Q1805 84 1805 29Q1805 -69 1748 -141Q1721 -167 1679 -228Q1677 -249 1671 -290Q1651 -406 1603 -477H497Q479 -450 474 -428Q447 -310 447 -268Q447 -228 488 -91L424 -28Q417 -33 399 -48Q389 -37 333 7Q309 26 309 61V217H257Q257 224 256 236Q257 269 217 269Q184 269 179.5 242.5Q175 216 140 216Q132 216 122 217Q115 210 115 192Q115 159 149 135Q178 118 206 101Q201 61 209 -11Q225 -44 282 -106Q335 -164 335 -168Q335 -171 316 -249Q263 -468 263 -541Q263 -589 277 -623Q281 -634 320 -710V-728Q294 -724 271 -701Q256 -686 242 -672Q236 -666 228 -666Q212 -666 203 -681Q190 -701 183 -705Q174 -706 157 -714Q100 -761 100 -783Q100 -803 160 -875Q207 -930 235 -957Q233 -1075 268 -1139Q292 -1182 334 -1233Q364 -1269 370 -1296Q374 -1314 390.5 -1331.5Q407 -1349 422 -1349Q441 -1349 463.5 -1323.5Q486 -1298 486 -1285Q486 -1279 475.5 -1255.5Q465 -1232 465 -1227Q465 -1221 475.5 -1163.5Q486 -1106 486 -1100Q486 -1045 449 -936Q493 -906 551 -791Q593 -703 634 -615H938V-892L1410 -615H1731Q1738 -615 1771 -643Q1924 -773 1962 -894Q1974 -932 1974 -959Q1974 -1002 1941 -1047Q1905 -1095 1864 -1095Q1759 -1095 1674 -995Q1677 -985 1677 -973Q1677 -927 1641.5 -883Q1606 -839 1565 -839Q1494 -839 1494 -908Q1494 -978 1557 -1011Q1576 -1013 1607 -1024Q1655 -1077 1751 -1149Q1766 -1156 1797 -1164Q1853 -1171 1856 -1171Q1955 -1171 2001 -1090Q2035 -1031 2035 -944ZM1258 -34Q1258 62 1165.5 155Q1073 248 981 248Q952 248 933 236V221Q933 208 945 200Q987 192 1040 150Q1097 105 1110 63Q1085 48 1041 9Q1024 -14 1024 -54Q1024 -97 1062 -138Q1100 -179 1146 -179Q1175 -179 1180 -176Q1204 -161 1240 -126Q1258 -93 1258 -34ZM1354 -615L964 -852V-615ZM1815 231Q1815 226 1809 218H1791L1786 237Q1789 237 1795 240Q1801 243 1804 243ZM2015 -954Q2015 -1023 1979 -1078Q1934 -1146 1856 -1146Q1789 -1146 1730 -1108Q1689 -1067 1623 -1009Q1619 -1006 1578 -996Q1551 -989 1532.5 -960.5Q1514 -932 1514 -908Q1514 -865 1565 -865Q1598 -865 1627 -901.5Q1656 -938 1656 -975Q1656 -993 1648 -1005Q1680 -1053 1755 -1089Q1820 -1120 1859 -1120Q1912 -1120 1958 -1060Q1999 -1006 1999 -959Q1999 -812 1801 -638Q1745 -589 1736 -589H621Q581 -679 542 -769Q493 -877 432 -917Q419 -905 404 -910Q413 -927 405 -954Q396 -983 371 -998Q348 -985 341 -963.5Q334 -942 329 -922Q323 -922 315.5 -924Q308 -926 306 -926V-947Q289 -946 259 -941Q248 -938 187 -868.5Q126 -799 126 -785Q126 -776 152.5 -751.5Q179 -727 189 -727Q200 -727 220 -748Q230 -738 233 -738V-726Q218 -712 218 -703L230 -691Q282 -753 309 -753Q334 -753 345 -740Q342 -711 313 -650.5Q284 -590 284 -558L360 -163Q312 -114 234 -6Q224 13 226 56Q227 112 226 122Q204 134 182 146Q148 167 141 191H288V17Q395 -74 399 -74Q408 -74 424 -58Q457 -90 457 -102Q457 -111 446 -146Q434 -185 432 -196Q427 -230 427 -270Q427 -422 482 -498H1613Q1645 -462 1662 -415Q1674 -373 1686 -331Q1691 -288 1700 -238Q1707 -223 1787 -119Q1831 -62 1831 29Q1831 87 1819 121Q1795 131 1771 141Q1740 157 1729 191H1861Q1857 176 1857 158Q1857 129 1872 64.5Q1887 0 1887 -33Q1887 -62 1885 -72Q1878 -108 1838 -167Q1800 -223 1800 -224Q1800 -229 1810.5 -275Q1821 -321 1822 -341Q1823 -353 1827 -387Q1831 -418 1831 -423V-572Q1831 -577 1934 -713Q2015 -820 2015 -954ZM465 -1102Q465 -1107 456 -1148Q447 -1189 446 -1210Q453 -1240 458 -1292Q448 -1307 411 -1319Q402 -1310 396 -1302Q402 -1268 361 -1219Q325 -1177 289 -1135Q271 -1109 265 -1062Q258 -1006 257 -1020V-964Q276 -965 306 -969Q314 -971 336 -997.5Q358 -1024 377 -1024Q393 -1024 413.5 -994Q434 -964 431 -953Q465 -1066 465 -1102ZM1232 -32Q1232 -91 1219 -112Q1210 -126 1187.5 -142Q1165 -158 1156 -158Q1114 -158 1081.5 -124.5Q1049 -91 1049 -54Q1049 -12 1072 7Q1086 18 1141 39Q1131 125 963 227H990Q1065 228 1150 135Q1232 44 1232 -32ZM233 230Q228 225 226 218H198L203 243H221ZM313 -858Q308 -855 294 -852Q280 -849 275 -846Q272 -849 268.5 -855Q265 -861 262 -864Q273 -874 267 -880Q272 -880 296 -892Z"/>
</svg>