<svg xmlns="http://www.w3.org/2000/svg" viewBox="0 -2048 2048 2048">
	<path fill="currentColor" d="M806 -1202Q806 -1030 648 -916Q604 -896 541 -845Q551 -839 570 -826Q618 -790 618 -713Q618 -684 601 -617Q636 -595 638 -593Q653 -579 653 -552Q653 -473 574 -473Q542 -473 525 -489Q517 -497 497 -533L486 -523Q527 -242 545 -46Q546 -36 551 -3Q556 24 556 40Q556 99 544 180Q530 279 509 312Q497 326 474 355Q468 358 460 358Q398 358 376 280Q370 265 360 233Q341 163 341 30Q341 -136 412 -522L397 -533Q390 -517 368 -495Q346 -473 331 -473Q238 -473 238 -566Q238 -613 290 -626Q280 -671 280 -692Q280 -821 358 -846Q350 -867 325.5 -877.5Q301 -888 278 -897Q100 -1005 100 -1195Q100 -1324 171.5 -1407.5Q243 -1491 333 -1519Q416 -1545 441 -1545Q427 -1545 480 -1540Q682 -1521 778 -1325Q783 -1315 794.5 -1264Q806 -1213 806 -1202ZM781 -1197Q781 -1329 681 -1424Q581 -1519 449 -1519Q431 -1519 374 -1509Q299 -1496 221 -1425.5Q143 -1355 129 -1282Q120 -1235 120 -1168Q120 -1173 131 -1124Q151 -1038 218 -972Q285 -906 371 -890Q429 -879 466 -879Q526 -879 575 -897Q663 -929 722 -1015.5Q781 -1102 781 -1197ZM529 -864Q502 -860 459 -857Q478 -853 516 -849Q520 -854 529 -864ZM426 -857Q403 -859 375 -865Q377 -860 380 -851Q397 -855 426 -857ZM595 -711Q595 -835 447 -835Q343 -835 316 -780Q313 -774 309 -768Q303 -736 303 -719Q303 -667 314 -625Q336 -621 349 -609Q330 -651 330 -692Q330 -740 361 -769.5Q392 -799 441 -799Q492 -799 521 -783Q546 -770 562 -711Q565 -700 565 -698Q565 -648 540 -598Q550 -609 580 -621Q595 -689 595 -711ZM628 -563Q628 -597 584 -597Q577 -597 556 -582V-553Q564 -549 568 -549Q574 -549 579 -552Q571 -553 560 -564L575 -579H591Q606 -564 606 -554Q606 -543 592.5 -533Q579 -523 568 -523Q530 -523 530 -566Q530 -574 532 -582Q518 -555 518 -549Q518 -536 532.5 -516Q547 -496 559 -496H589Q628 -496 628 -563ZM539 -697Q539 -774 444 -774Q356 -774 356 -691Q356 -623 394 -567Q419 -531 438 -531Q486 -531 515 -593Q539 -642 539 -697ZM377 -549L361 -583Q361 -532 325 -532Q291 -532 291 -564Q291 -574 306 -587Q309 -584 314 -579Q315 -573 317 -555H329Q336 -568 336 -579Q336 -603 303 -603Q261 -603 261 -564Q261 -512 314 -499Q326 -496 329 -496Q341 -496 359 -516.5Q377 -537 377 -549ZM530 39Q530 36 521 -48Q502 -203 466 -513Q446 -508 432 -510Q428 -474 390 -243Q364 -81 364 25Q364 93 367 157Q368 189 387 248Q408 314 427 327Q435 333 448 333Q451 333 462 332Q473 322 491 300Q530 230 530 39ZM538 -699Q518 -679 497 -679Q493 -679 485.5 -682Q478 -685 473 -685Q472 -684 465 -677Q476 -655 476 -644Q476 -636 467 -618H416Q416 -622 414 -629.5Q412 -637 412 -641Q412 -656 427 -676H446L437 -645L453 -643Q455 -653 455 -686L454 -687V-701Q485 -723 499 -723Q517 -723 538 -699ZM445 -702Q436 -679 406 -679Q416 -679 362 -690V-711Q397 -723 399 -723Q417 -723 445 -702ZM516 -614Q459 -576 448 -576Q436 -576 379 -614Q438 -602 448 -602Q457 -602 516 -614Z"/>
</svg>