<svg xmlns="http://www.w3.org/2000/svg" viewBox="0 -2048 2048 2048">
	<path fill="currentColor" d="M1559 -1158Q1559 -1027 1460 -938Q1367 -853 1246 -853Q1129 -853 1129 -917Q1129 -947 1171 -951Q1189 -950 1223 -952Q1436 -986 1436 -1127Q1436 -1289 1246 -1289Q1158 -1289 1087 -1209Q1041 -1158 978 -1034Q940 -959 878 -927Q901 -880 923 -688Q944 -501 944 -364Q944 -187 920 9Q886 279 824 329Q783 313 748 227Q719 156 710 81Q678 -177 678 -393Q678 -509 714 -692Q737 -809 760 -927Q734 -940 690 -983Q630 -1093 570 -1203Q510 -1289 402 -1289Q325 -1289 273 -1244Q217 -1197 217 -1122Q217 -1011 333 -967Q343 -963 442 -960Q488 -959 509 -945V-900Q493 -887 461 -870Q439 -864 399 -864Q182 -864 123 -1060Q100 -1137 100 -1178Q100 -1271 183 -1369.5Q266 -1468 343 -1468H1279Q1303 -1468 1378 -1426Q1437 -1393 1450 -1383Q1517 -1329 1541 -1261Q1559 -1209 1559 -1158ZM1533 -1150Q1533 -1313 1383 -1397Q1302 -1442 1284 -1442H333Q269 -1442 197 -1349.5Q125 -1257 125 -1181Q125 -1070 188 -988Q263 -889 397 -889Q468 -889 488 -929Q350 -939 340 -941Q254 -962 213 -1041Q192 -1082 192 -1125Q192 -1202 257 -1259Q319 -1314 394 -1314Q517 -1314 589 -1217Q637 -1127 686 -1037Q741 -940 822 -940Q904 -940 975 -1082Q1058 -1244 1127 -1277Q1206 -1314 1246 -1314Q1339 -1314 1395 -1269Q1456 -1220 1456 -1127Q1456 -1092 1449 -1067Q1436 -1020 1380 -981Q1335 -950 1295 -942Q1278 -938 1177 -930Q1152 -928 1154 -912Q1166 -879 1244 -879Q1346 -879 1435 -952Q1533 -1033 1533 -1150ZM924 -313Q924 -604 856 -919Q829 -915 815 -915Q801 -915 782 -919Q704 -526 704 -387Q704 -156 736 102Q753 238 819 294Q839 274 850 246Q880 170 902 1Q924 -165 924 -313Z"/>
</svg>