<svg xmlns="http://www.w3.org/2000/svg" viewBox="0 -2048 2048 2048">
	<path fill="#000000" d="M1638 -1243Q1602 -1202 1541 -1123Q1530 -1106 1492 -1018Q1453 -925 1453 -908Q1453 -902 1467 -887Q1486 -867 1489 -862L1477 -849Q1471 -849 1455 -865Q1418 -846 1381 -828Q1333 -804 1315 -773Q1244 -651 1164 -459Q1098 -295 1031 -132Q1036 -127 1185 -132L1040 292H620L476 -128H615Q619 -125 619 -137Q619 -143 601 -175Q579 -216 574 -228Q560 -257 533 -316Q524 -337 415 -568Q403 -603 352 -683Q339 -687 312 -696Q303 -700 245 -738Q176 -783 142 -851Q100 -934 100 -975Q100 -1012 167 -1104L100 -1223Q127 -1233 191 -1260Q222 -1188 248 -1143Q360 -1139 419 -1047Q465 -974 465 -875Q465 -821 454 -790Q431 -725 429 -718L711 -128H799V-912Q741 -966 702 -1052Q665 -1132 665 -1189Q665 -1311 759 -1361Q779 -1368 808 -1383Q811 -1447 811 -1512Q831 -1507 886 -1507Q890 -1480 893 -1378Q954 -1359 985 -1297Q1010 -1249 1010 -1196Q1010 -1136 972 -1054Q929 -960 866 -917V-133Q873 -129 902 -129Q938 -129 945 -140Q962 -177 978 -215Q1247 -776 1247 -811Q1247 -790 1224 -974Q1224 -974 1201 -997Q1211 -998 1265 -998Q1269 -998 1295 -1033Q1343 -1098 1385 -1194Q1416 -1269 1447 -1343ZM1602 -1238Q1579 -1248 1528 -1272.5Q1477 -1297 1454 -1307Q1399 -1141 1298 -995Q1357 -984 1436 -927Q1464 -1115 1602 -1238ZM865 -1385V-1481H836V-1385ZM1437 -888Q1341 -978 1264 -977H1247Q1255 -917 1273 -803L964 -130H1004Q1072 -296 1140 -461Q1222 -658 1294 -784Q1312 -815 1365 -845Q1430 -882 1437 -888ZM984 -1202Q984 -1267 947 -1311Q907 -1358 838 -1358Q770 -1358 729 -1305Q691 -1258 691 -1191Q691 -1131 727.5 -1056.5Q764 -982 820 -928V-130H845V-933Q911 -982 949 -1063Q984 -1135 984 -1202ZM223 -1134L175 -1230Q160 -1224 136 -1213Q152 -1180 189 -1117ZM681 -130L403 -716Q444 -868 444 -916Q444 -977 393 -1046Q337 -1122 272 -1122Q216 -1122 168 -1062Q125 -1009 125 -965Q125 -893 211 -800Q297 -707 373 -704Q544 -357 646 -130ZM1154 -102H506L636 267H1024Z"/>
</svg>