<svg xmlns="http://www.w3.org/2000/svg" viewBox="30.4 -1536.6 1506.2 1879.2">
	<path fill="currentColor" d="M1467 273H100Q100 273 100 153H258V-1092Q258 -1208 393 -1335.5Q528 -1463 652 -1462Q726 -1461 771.5 -1464Q817 -1467 808 -1467Q870 -1467 981 -1424Q1085 -1384 1125 -1350Q1174 -1307 1226 -1218Q1290 -1108 1289 -1083V148H1467ZM1259 -1096Q1183 -1284 1080 -1351Q941 -1442 796 -1442Q680 -1442 601.5 -1430Q523 -1418 432 -1340.5Q341 -1263 309 -1183Q290 -1134 283 -1096ZM1249 -1069H298L776 -480ZM1263 120V-1040L789 -458ZM759 -463L285 -1040V125ZM1249 148L771 -436L298 148ZM1442 248V175H120V248Z"/>
</svg>