<svg xmlns="http://www.w3.org/2000/svg" viewBox="0 -2048 2048 2048">
	<path fill="currentColor" d="M1437 269H100V123H243L357 -1458L771 -1266L1186 -1458L1300 120H1437ZM1182 -1223L1166 -1428L784 -1245V-1040ZM1197 -1031Q1196 -1042 1181 -1192L784 -1009V-843ZM1202 -839Q1202 -893 1202 -944Q1201 -995 1201 -1005L784 -817V-646ZM758 -1035V-1245L376 -1428L361 -1218ZM1221 -656Q1221 -706 1215 -762Q1210 -806 1221 -812L784 -620V-454Q1010 -555 1221 -656ZM758 -843V-1009L354 -1192Q355 -1165 354 -1112Q352 -1058 353 -1031ZM1236 -440Q1231 -502 1220 -626L784 -428V-247Q936 -312 1236 -440ZM758 -646V-817L337 -1004Q348 -991 342 -949Q342 -926 339 -885Q335 -851 336 -843Q478 -776 758 -646ZM1251 -253Q1249 -284 1244 -343Q1239 -403 1250 -413L784 -226V-46Q941 -115 1251 -253ZM758 -454V-620L349 -813H326Q326 -813 326 -652ZM1266 -76Q1264 -96 1250 -222L784 -20V122ZM1268 121Q1266 55 1267 -50L862 121ZM758 -252V-428L322 -626L306 -445ZM758 -46V-226L297 -418Q307 -413 302 -368Q302 -342 299 -299Q296 -269 297 -257Q410 -203 758 -46ZM1413 244V142H125V244ZM758 122V-20L287 -227Q291 -189 287 -85Q720 122 723 122ZM660 121L278 -60Q277 -68 277 121Z"/>
</svg>