<svg xmlns="http://www.w3.org/2000/svg" viewBox="0 -2048 2048 2048">
	<path fill="#000000" d="M1150 355H100V255H286V-1289H1042V-1582H1150ZM952 -1106Q954 -1137 930 -1137Q922 -1137 906 -1128Q903 -1097 896 -1035Q889 -981 889 -978V-954Q900 -957 920 -936Q930 -925 939 -914ZM877 -1103V-1136Q873 -1136 863 -1138Q853 -1140 847 -1140Q826 -1092 818 -1030Q813 -978 808 -926Q815 -941 837 -952Q864 -966 864 -966ZM933 -840V-855L917 -838ZM916 -887Q916 -901 899.5 -917.5Q883 -934 868 -934Q852 -934 835.5 -918.5Q819 -903 819 -889Q819 -878 839 -861Q859 -844 877 -844Q885 -844 900.5 -857.5Q916 -871 916 -887ZM1127 328V-1558H1069V328ZM900 -803V-810L839 -814V-807ZM819 -841Q812 -850 800 -863V-841ZM891 -775Q890 -775 885.5 -779.5Q881 -784 875 -784H846Q871 -769 872 -769Q878 -769 884 -772Q890 -775 891 -775ZM854 -744Q832 -766 824 -765H813Q821 -763 817 -752Q808 -711 760 -711Q738 -711 733 -714Q733 -724 727 -730Q711 -719 694 -719Q689 -719 680.5 -721Q672 -723 668 -723Q663 -723 643 -700H750Q768 -681 768 -672Q768 -660 752 -647L766 -633Q787 -649 854 -744ZM1041 254V-1265H315V254H404L475 95Q451 95 439 91V39Q458 33 478 35L439 -66L396 -62Q394 -81 387 -119Q381 -152 381 -156Q381 -179 390 -212Q395 -217 403 -230Q436 -219 435 -219Q450 -249 475 -247Q467 -262 451 -291Q489 -319 555 -334Q604 -344 654 -353Q678 -397 678 -402Q678 -408 671 -417Q670 -424 672 -436Q674 -448 674 -452Q655 -457 655 -472Q655 -518 741 -619L732 -629Q661 -629 645 -634Q640 -635 633.5 -641.5Q627 -648 623 -648Q619 -648 594 -634.5Q569 -621 565 -621Q560 -621 558.5 -623Q557 -625 555 -630Q553 -635 553 -641Q553 -655 575.5 -671.5Q598 -688 615 -688Q610 -750 651 -750Q656 -750 671 -748Q686 -746 690 -746Q700 -746 759 -779Q763 -784 771 -792Q783 -798 807 -807Q792 -810 768 -816V-834Q768 -912 804 -1111Q814 -1164 844 -1164Q850 -1164 868.5 -1158Q887 -1152 891 -1152Q896 -1152 910.5 -1158Q925 -1164 930 -1164Q979 -1164 979 -1117L952 -812H925Q925 -800 920 -795Q960 -757 968 -704Q971 -688 971 -611V-455L1015 254ZM985 235L952 -408L948 -662Q945 -685 940.5 -710.5Q936 -736 918 -758Q919 -754 919 -750Q919 -732 894 -719Q874 -710 860 -709Q839 -666 804 -633Q749 -581 732 -562Q693 -519 687 -488Q701 -529 753.5 -573Q806 -617 846 -617Q867 -617 898 -600Q935 -581 938 -556Q940 -542 940 -515Q940 -510 934 -453.5Q928 -397 928 -392V-276Q928 -271 932 -251.5Q936 -232 936 -228V-127Q936 -122 930 -79.5Q924 -37 924 -33Q924 26 949 125Q971 216 985 235ZM924 234Q909 154 881 49L913 -162V-553Q913 -568 885 -580Q861 -590 844 -590Q800 -590 749 -534.5Q698 -479 698 -443V-426H712Q722 -431 729 -447Q738 -468 739 -469Q743 -467 751.5 -463.5Q760 -460 764 -458Q761 -450 755 -436Q730 -409 690 -360H719Q739 -360 743 -372Q772 -464 817 -504Q824 -499 834 -486Q809 -457 781 -401Q773 -374 753 -340Q748 -337 680 -330Q637 -326 526 -300Q526 -298 528 -291Q530 -284 530 -282Q531 -282 532 -283.5Q533 -285 539 -285Q554 -285 550 -258Q573 -268 645 -283Q678 -284 743 -287Q791 -290 799 -302Q824 -352 872 -449Q879 -446 889 -439Q876 -400 828 -303Q811 -270 797 -266Q773 -260 649 -256Q635 -256 635 -211Q635 -166 670 -89Q699 -23 728 16Q724 8 724 -20Q728 -20 733 -21.5Q738 -23 743 -23Q752 -23 747 -20Q756 12 773 42Q807 92 849 163Q849 164 845 222Q860 233 859 246Q882 231 891 231Q893 231 903 236Q910 240 924 234ZM615 -253Q587 -239 569 -233Q584 -218 592 -218Q604 -218 607 -230Q612 -249 615 -253ZM609 -144Q608 -166 602 -199Q598 -199 591 -194Q593 -186 600 -169Q607 -152 609 -144ZM609 -140Q605 -124 595 -94Q599 -94 605 -90Q609 -106 609 -140ZM957 254V240L948 222L950 254ZM827 168Q827 162 814 143Q801 124 792 122Q787 148 777 198Q778 194 780 224Q781 241 764 254H779Q792 238 817 222Q827 193 827 168ZM576 -148Q576 -174 560 -198Q540 -226 508 -226Q444 -226 444 -148Q444 -85 508 36Q525 24 550.5 -45.5Q576 -115 576 -148ZM424 -194Q420 -194 413 -199Q410 -187 410 -148Q414 -164 424 -194ZM772 87Q751 71 710 44Q710 80 704 186Q703 205 686 230Q696 235 708 223Q726 232 730 243Q752 232 755 218Q772 140 772 87ZM682 163Q685 25 682 12L629 -109Q627 -97 624 -85Q620 -70 604 -70Q600 -70 593 -71.5Q586 -73 585 -73Q570 -28 542 35Q553 35 577 43V91Q562 96 546 95L625 247Q681 217 682 163ZM428 -95Q426 -103 419 -119.5Q412 -136 410 -144Q411 -123 417 -90Q421 -90 428 -95ZM552 72V65L464 62V68ZM592 254Q566 194 508 94L436 254ZM1041 328V278H884Q879 278 853.5 282Q828 286 823 286Q818 286 814 282Q810 278 805 278H124V328Z"/>
</svg>