<svg xmlns="http://www.w3.org/2000/svg" viewBox="19.5 -1574.5 2174 2029">
	<path fill="currentColor" d="M2113 -917Q2113 -907 2101 -798Q2100 -775 2089 -726Q2080 -700 2058 -652Q2038 -619 1974 -534Q1959 -521 1936 -491Q1924 -466 1924 -283Q1924 -245 1908 -172Q1902 -160 1895 -134Q1923 -103 1953 -44Q1985 21 1985 57Q1985 77 1966 173Q1954 236 1959 320Q1947 322 1909 325Q1909 374 1862 374Q1852 374 1823 356V325H1815Q1792 325 1771 328V302Q1771 238 1866 210Q1870 196 1870 145Q1870 51 1861 30Q1835 -27 1795 -65Q1772 -83 1738 -126Q1736 -154 1732 -198Q1723 -270 1659 -385H1230V294H1141V-385H507Q491 -360 485 -344Q459 -277 459 -159Q459 -125 475 -72Q497 -5 500 13Q438 64 434 64Q429 64 419.5 58Q410 52 408 52Q404 52 365 88.5Q326 125 320 133Q320 165 317 229.5Q314 294 314 326Q288 321 257 322H251Q256 331 256 339Q256 374 221 374Q186 374 173 350V323L178 319Q160 320 120 325Q114 308 114 278Q114 253 150 231Q183 212 210 212Q211 217 211 151Q211 143 207.5 127.5Q204 112 204 104Q204 85 263 18Q301 -25 340 -68Q265 -425 265 -427Q265 -469 272 -505Q276 -526 302 -576Q326 -622 326 -642L325 -644Q284 -644 236 -581Q224 -585 201 -594Q198 -603 190 -619Q185 -619 174 -620Q157 -622 128.5 -649.5Q100 -677 100 -693Q100 -724 144 -770Q189 -823 257 -880Q260 -890 266 -911Q270 -923 289.5 -937.5Q309 -952 321 -952Q344 -952 356 -937H407Q431 -914 439 -861Q535 -833 650 -526H1139V-1126Q949 -1179 764 -1179Q733 -1179 658 -1166V-1456Q750 -1447 773 -1447Q942 -1447 1036 -1465Q1047 -1467 1094 -1482Q1133 -1494 1151 -1494H1226V-526H1796Q1806 -536 1822 -545Q1923 -603 2018 -757Q2021 -762 2033.5 -817.5Q2046 -873 2046 -881Q2046 -932 2022 -973Q1993 -1020 1944 -1020Q1866 -1020 1825 -997Q1795 -981 1733 -917Q1738 -873 1738 -885Q1738 -842 1707 -811Q1676 -784 1645 -757Q1641 -756 1630 -756Q1545 -756 1545 -837Q1545 -859 1578 -899.5Q1611 -940 1633 -945Q1633 -945 1655 -945Q1675 -945 1720 -995Q1771 -1051 1788 -1060Q1860 -1097 1897 -1097Q2008 -1097 2069 -1024Q2113 -972 2113 -917ZM1139 -1149V-1468H1137Q1125 -1468 1084 -1457Q1036 -1445 1026 -1443Q917 -1425 769 -1425Q780 -1425 682 -1433V-1193Q788 -1201 799 -1201Q942 -1201 1139 -1149ZM1203 -527V-1468H1166V-527ZM1887 332Q1881 324 1873 324H1861Q1857 324 1849 332V346Q1855 351 1859 351Q1884 351 1887 332ZM2088 -919Q2088 -957 2055 -1002Q2002 -1074 1892 -1074Q1878 -1074 1835.5 -1056.5Q1793 -1039 1782 -1029Q1754 -997 1696 -936Q1685 -926 1650 -922Q1619 -918 1593.5 -884.5Q1568 -851 1568 -835Q1568 -786 1636 -781Q1648 -792 1673 -813Q1716 -846 1716 -883Q1716 -891 1713.5 -906Q1711 -921 1711 -927Q1777 -995 1815 -1016Q1868 -1046 1948 -1046Q1967 -1046 2006 -1023Q2069 -986 2069 -881Q2069 -864 2058 -828Q2054 -801 2038 -749Q2010 -693 1924 -597Q1885 -566 1806 -504H629Q553 -783 438 -838Q436 -827 428 -804Q423 -836 418 -869Q411 -912 385 -912Q366 -912 350 -882Q340 -859 329 -836Q318 -840 308 -849Q315 -855 319 -863Q318 -864 315 -864Q306 -864 288.5 -861.5Q271 -859 262 -859Q248 -859 142 -735Q123 -713 123 -696Q123 -681 148 -661.5Q173 -642 188 -642Q196 -642 208 -650.5Q220 -659 225 -661Q231 -651 231 -641Q215 -626 215 -622Q215 -617 226 -607Q281 -665 321 -665Q326 -665 336 -663.5Q346 -662 351 -662V-619Q351 -625 316 -563Q287 -511 287 -446Q287 -437 288 -430L364 -61Q327 -19 289 24Q228 93 228 102Q228 109 230.5 122Q233 135 233 142V225Q222 232 190 237Q167 241 140 273V300Q194 296 290 296Q293 275 297 118L406 25Q429 41 434 41Q435 41 476 3Q464 -37 451 -77Q436 -127 436 -156Q436 -314 492 -408H1675Q1701 -356 1727 -304Q1754 -242 1755 -192Q1755 -187 1755 -177Q1754 -166 1754 -161Q1754 -147 1759 -137Q1761 -133 1786 -108Q1858 -36 1879 14Q1895 51 1895 126Q1895 151 1888 228Q1793 236 1793 299H1935Q1935 291 1935 273Q1934 256 1934 248Q1934 216 1948 148Q1962 80 1962 53Q1962 15 1917 -56.5Q1872 -128 1872 -131Q1872 -112 1889 -187Q1897 -224 1897 -334Q1897 -458 1914 -500Q1930 -518 1957 -549Q2015 -629 2025 -644Q2061 -700 2074 -749Q2076 -773 2082 -817.5Q2088 -862 2088 -919ZM1203 269V-385H1166V269ZM343 -915Q343 -929 323 -929Q310 -929 296 -913Q282 -897 282 -884Q270 -883 327 -883Q343 -906 343 -915ZM230 345V326Q227 322 222 322H217Q198 322 198 339Q198 348 213 348H219Q225 348 230 345ZM318 -770Q304 -766 277 -758L268 -766V-789Q275 -794 289 -806Q313 -794 318 -770Z"/>
</svg>