<svg xmlns="http://www.w3.org/2000/svg" viewBox="0 -2048 2048 2048">
	<path fill="#000000" d="M1979 -1300Q1979 -1254 1672 -920Q1593 -834 1538 -796Q1488 -761 1434 -734V134H1695V332H128V135H255V-610Q273 -609 152 -609Q100 -609 100 -696Q100 -771 149 -790Q548 -787 551 -787Q568 -787 700 -793Q1087 -811 1315 -897Q1433 -942 1570 -1099Q1678 -1227 1786 -1355Q1828 -1398 1876 -1398Q1979 -1398 1979 -1300ZM1957 -1302Q1957 -1333 1931.5 -1354Q1906 -1375 1874 -1375Q1838 -1375 1799 -1337Q1779 -1314 1740 -1267Q1603 -1104 1550 -1049Q1419 -914 1329 -878Q1235 -840 1015 -799Q990 -793 940 -785Q916 -782 717 -772Q564 -764 146 -764Q120 -737 120 -689Q120 -678 128 -658Q136 -638 145 -638H579Q639 -638 839 -651Q893 -652 999 -662Q1042 -669 1049 -668Q1106 -677 1221 -696Q1421 -734 1527 -815Q1562 -842 1756 -1047Q1957 -1260 1957 -1302ZM1411 134V-727Q1340 -697 1233 -676Q1141 -661 1050 -645V134ZM1023 134V-644Q794 -617 663 -610V134ZM636 134V-610H281V134ZM1670 306V160H153V306Z"/>
</svg>