<svg xmlns="http://www.w3.org/2000/svg" viewBox="0 0 532 1000">
  <g transform="scale(1,-1) translate(0,-1000)">
    <path d="M118 476Q118 320 141 297Q141 297 147.0 294.0Q153 291 161.5 285.5Q170 280 178 272Q204 246 216.5 204.0Q229 162 230.5 127.5Q232 93 240.0 67.0Q248 41 267 40Q287 40 296 73Q301 89 307.5 135.5Q314 182 323 210Q341 271 391 295Q399 298 406 333Q415 381 415 481Q415 566 405.5 753.0Q396 940 395 954Q389 958 379 958Q357 958 355 951Q344 885 340.0 792.5Q336 700 335.5 625.0Q335 550 331.5 481.0Q328 412 312.5 373.0Q297 334 267.0 334.0Q237 334 221.5 373.0Q206 412 202.5 481.0Q199 550 198.5 624.5Q198 699 194.0 792.0Q190 885 179 951Q177 958 155 958Q145 958 139 954Q139 953 137.0 914.0Q135 875 131.5 815.5Q128 756 125.0 692.0Q122 628 120.0 568.0Q118 508 118 476ZM437 902H507Q518 902 525.0 895.0Q532 888 532.0 877.0Q532 866 525.0 859.0Q518 852 507 852H440Q441 836 443 802H507Q518 802 525.0 795.0Q532 788 532.0 777.0Q532 766 525.0 759.0Q518 752 507 752H445Q446 743 447.0 726.5Q448 710 448 702H507Q518 702 525.0 695.0Q532 688 532.0 677.0Q532 666 525.0 659.0Q518 652 507 652H451Q451 644 451.5 627.0Q452 610 453 602H507Q518 602 525.0 595.0Q532 588 532.0 577.0Q532 566 525.0 559.0Q518 552 507 552H454Q455 527 455 481Q455 367 443.0 318.5Q431 270 407 259Q370 242 358.0 194.0Q346 146 339.5 93.0Q333 40 311 18Q293 0 267 0Q236 0 219.0 23.0Q202 46 196.5 80.5Q191 115 186.5 150.5Q182 186 168.0 217.0Q154 248 128 258Q103 268 90.5 316.5Q78 365 78 477Q78 526 79 552H25Q14 552 7.0 559.0Q0 566 0.0 577.0Q0 588 7.0 595.0Q14 602 25 602H81Q82 610 82.5 627.0Q83 644 83 652H25Q14 652 7.0 659.0Q0 666 0.0 677.0Q0 688 7.0 695.0Q14 702 25 702H85Q86 710 87.0 727.0Q88 744 88 752H25Q14 752 7.0 759.0Q0 766 0.0 777.0Q0 788 7.0 795.0Q14 802 25 802H91Q93 836 94 852H25Q14 852 7.0 859.0Q0 866 0.0 877.0Q0 888 7.0 895.0Q14 902 25 902H97Q97 911 97.5 929.5Q98 948 99 957Q99 964 102.5 972.0Q106 980 120.0 989.0Q134 998 156 998Q182 998 199.0 986.0Q216 974 219 957Q222 937 226 902H308Q312 937 315 957Q318 974 335.0 986.0Q352 998 378 998Q406 998 420.0 985.5Q434 973 435 957Q436 948 436.5 929.5Q437 911 437 902ZM303 852H231Q232 836 234 802H300Q302 836 303 852ZM236 752Q237 735 237 702H297Q297 735 298 752ZM238 652Q238 643 238.5 626.5Q239 610 239 602H295Q295 610 295.5 626.5Q296 643 296 652ZM240 552Q243 435 256 394Q262 374 267 374Q288 383 294 552Z" fill="currentColor"/>
  </g>
</svg>