<svg xmlns="http://www.w3.org/2000/svg" viewBox="31 -987 1864.1 1206.1">
	<path fill="currentColor" d="M1826 -688Q1702 -562 1627 -504Q1586 -472 1286 -293Q909 -68 642 -66Q626 -66 605 -62L698 150L140 -174Q200 -216 308 -288Q255 -432 100 -554Q113 -567 117 -567Q120 -567 168 -527Q241 -467 331 -300L693 -532L599 -284Q610 -280 652 -280Q743 -280 890 -357Q1033 -432 1110 -515Q1157 -552 1278 -670Q1305 -700 1472 -918ZM1792 -683L1472 -883Q1313 -643 1092 -461Q842 -255 657 -255Q591 -255 570 -273L648 -472L184 -174L648 90Q580 -60 580 -80Q580 -89 583 -92Q597 -87 627 -87Q871 -87 1244 -289Q1584 -472 1792 -683Z"/>
</svg>