<svg xmlns="http://www.w3.org/2000/svg" viewBox="0 -2048 2048 2048">
	<path fill="currentColor" d="M1351 -659H1004Q1115 -541 1115 -448Q1115 -366 1024 -276Q990 -242 883 -242Q817 -242 786 -258V325H710V-307Q492 -450 316 -664H100V-737H516Q538 -786 549 -803Q572 -839 616 -877Q657 -912 711 -917Q715 -918 725 -924Q674 -1046 622 -1168Q525 -1401 525 -1435Q525 -1464 558.5 -1492.5Q592 -1521 628 -1521Q664 -1521 692 -1494Q720 -1467 720 -1435Q720 -1414 688 -1361L925 -1087Q781 -996 781 -931Q781 -925 782 -920Q850 -903 910 -851Q970 -799 987 -736H1351ZM888 -1092L651 -1366Q694 -1419 694 -1437Q694 -1495 628 -1495Q562 -1495 546 -1429L755 -927Q759 -970 805 -1023Q845 -1069 888 -1092ZM956 -738Q941 -808 870 -853Q805 -895 736 -895Q615 -895 547 -738ZM1094 -442Q1094 -483 1054 -552Q1014 -621 966 -662H889Q1059 -518 1080 -411Q1094 -439 1094 -442ZM1324 -685V-710H121V-685ZM1062 -376Q1054 -511 850 -663H778V-370Q888 -332 941 -332Q966 -332 1006 -345Q1051 -359 1062 -376ZM750 -385L745 -663H731V-414Q731 -404 750 -385ZM1032 -326Q1012 -311 944 -311Q793 -311 582 -480Q507 -548 369 -665L357 -662Q599 -397 769 -299Q779 -288 795 -275Q830 -263 878 -263Q980 -263 1032 -326ZM707 -416V-660H425Q575 -506 707 -416ZM756 299V-272Q745 -284 736 -284V299Z"/>
</svg>