<svg xmlns="http://www.w3.org/2000/svg" viewBox="18 -1535 1942.9 1916.9">
	<path fill="currentColor" d="M1889 254H676Q638 268 600 282Q516 310 420 310Q325 310 213 254Q90 191 101 123Q134 102 151 102Q157 102 163 108L228 -256Q209 -258 187 -258Q166 -258 147 -256V-338H386L395 -347Q340 -505 229 -857Q101 -1262 101 -1296Q101 -1354 142 -1396Q183 -1438 237 -1438Q278 -1438 315 -1398Q349 -1360 349 -1327Q349 -1269 293 -1237L582 -751Q526 -697 469 -643Q389 -562 389 -521Q389 -496 416 -419Q440 -354 449 -338H703V-258H622Q638 -68 664 105Q667 123 677 133Q1090 72 1213 72Q1296 72 1396 88V-1075Q1395 -1077 1389.5 -1082Q1384 -1087 1228 -1112Q1063 -1139 1010 -1139Q990 -1139 897 -1125V-1417Q898 -1417 902.5 -1422.5Q907 -1428 914 -1428Q920 -1428 972.5 -1420.5Q1025 -1413 1031 -1413Q1121 -1413 1339 -1450Q1413 -1463 1401 -1463H1487V101H1617L1657 -418H1848ZM1397 -1104V-1438Q1128 -1393 1032 -1393Q1010 -1393 922 -1392V-1160Q943 -1160 973 -1160Q1008 -1159 1007 -1159Q1111 -1159 1284 -1132Q1334 -1124 1397 -1104ZM1463 92V-1443H1427V92ZM552 -756L263 -1247Q324 -1276 324 -1332Q324 -1360 294.5 -1386.5Q265 -1413 232 -1413Q136 -1413 121 -1288L362 -521Q395 -619 552 -756ZM1869 234L1828 -394H1683L1637 128L1205 95L676 158Q668 158 665.5 152Q663 146 662 145Q645 141 603 120Q568 102 542 102Q536 102 472 112.5Q408 123 402 123Q390 123 345 108Q345 109 342 115.5Q339 122 339 131Q366 153 427 153Q433 153 468 150.5Q503 148 509 148Q541 148 543 149Q550 155 557 196Q502 229 422 229Q340 229 239.5 178.5Q139 128 149 128Q142 128 135 130.5Q128 133 126 133V151Q142 194 243 242Q344 290 417 290Q528 290 636 248Q645 241 666 234ZM678 -283V-318H172L167 -283ZM642 107L596 -257H572V-230Q572 -224 588 -102Q608 38 614 95Q632 108 642 107ZM591 87L546 -257H451V77Q502 87 521 83Q551 77 544 77Q561 77 591 87ZM426 97V-257H410V97ZM531 181Q530 180 529 179Q518 172 485 174Q424 178 435 178Q333 178 303 130Q327 82 341 82Q344 82 384 92V-257H299L227 130Q227 139 229 147Q323 204 433 204Q507 204 531 181ZM272 -257H254L192 127Q207 127 207 120Z"/>
</svg>