<svg xmlns="http://www.w3.org/2000/svg" viewBox="29.2 -1527.8 1912.7 1885.7">
	<path fill="currentColor" d="M1871 8Q1871 22 1870 51Q1869 80 1869 94Q1869 160 1866 215Q1866 222 1863 245Q1861 264 1861 275Q1861 282 1869 287H247Q187 287 142 224Q100 166 100 104Q100 49 137 49Q162 49 178 91Q189 123 200 155Q229 204 337 204H350Q415 34 499 -196H785L954 204H1285Q1302 204 1388 133Q1456 76 1492 41V-1115Q1343 -1163 1211 -1163Q1189 -1163 1145.5 -1160.5Q1102 -1158 1080 -1158Q1067 -1161 1050 -1164V-1416Q1206 -1416 1206 -1416Q1316 -1430 1536 -1457Q1525 -1456 1575 -1451L1579 -75Q1612 -122 1644 -170Q1689 -224 1738 -224Q1871 -224 1871 8ZM1491 -1139V-1426H1474Q1476 -1426 1438 -1419Q1292 -1392 1265 -1392H1075V-1183Q1345 -1183 1491 -1139ZM1551 -32V-1431H1518V4Q1529 -8 1551 -32ZM1844 201V-93Q1844 -119 1818.5 -154Q1793 -189 1769.5 -196.5Q1746 -204 1730 -204Q1704 -204 1681 -181Q1654 -153 1620 -100Q1572 -24 1565 -14Q1470 118 1338 201ZM1841 237Q1841 229 1838 223H262Q242 223 203 194Q180 177 169 138Q153 83 149 75H131Q120 96 120 104Q120 151 154 205Q192 263 237 263H1839Q1839 259 1840 250Q1841 241 1841 237ZM920 203L774 -164Q734 -129 657 -55L787 203ZM741 -173H538Q572 -139 644 -80Q672 -104 741 -173ZM756 202L644 -30L538 202ZM627 -53Q582 -104 509 -159L379 203H506Z"/>
</svg>