<svg xmlns="http://www.w3.org/2000/svg" viewBox="0 0 997 1000">
  <g transform="scale(1,-1) translate(0,-1000)">
    <path d="M20 0Q12 0 6.0 5.5Q0 11 0 20V367Q0 376 22 402Q28 710 39 834Q44 889 63 927Q82 967 111.0 976.0Q140 985 162 985Q176 985 198.0 971.0Q220 957 220 930Q220 916 212.0 897.5Q204 879 194 871Q187 865 158 854Q161 833 168.5 796.0Q176 759 179 736Q181 721 192.0 682.0Q203 643 203 618V605Q200 565 177 553Q166 547 146.0 545.0Q126 543 118 538Q105 530 72 501L71 422Q107 419 131.0 392.5Q155 366 167.5 330.5Q180 295 191.5 260.0Q203 225 221.5 201.0Q240 177 268 177Q301 177 324.0 207.0Q347 237 358.0 275.5Q369 314 391.5 355.0Q414 396 443 413Q413 419 395 423Q380 427 358.5 438.0Q337 449 336 450Q327 454 327 464V468Q327 475 336.5 500.0Q346 525 355.5 567.5Q365 610 366 656Q366 660 366.5 669.5Q367 679 367 684H349Q341 684 335.5 689.5Q330 695 330 703Q330 722 349 722L652 724Q660 724 666.0 718.0Q672 712 672.0 704.0Q672 696 666.0 690.5Q660 685 652 685H635V657Q636 595 655.5 531.5Q675 468 675 465Q675 459 672.0 456.5Q669 454 651 444Q615 424 551 413Q582 396 607.0 354.5Q632 313 646.0 275.0Q660 237 684.5 206.5Q709 176 740 175Q767 175 785.0 200.0Q803 225 813.5 261.0Q824 297 837.0 333.0Q850 369 875.0 394.0Q900 419 938 419Q945 419 948 418V737L606 822Q591 825 591 841V955Q591 973 609 975L965 999Q966 999 968.5 999.5Q971 1000 972 1000Q982 1000 989.5 992.5Q997 985 997 975V19Q997 11 991.0 5.5Q985 0 977 0ZM631 936V857L947 778V957ZM145 732Q130 828 124 863L123 866Q123 877 147.5 886.0Q172 895 177 902Q186 916 186 928Q186 950 151 950Q123 950 110 939Q79 908 73 837L72 826Q58 676 58 534Q83 557 101 568Q113 575 128.5 577.0Q144 579 153.5 580.5Q163 582 165 588Q169 601 169 617Q169 642 157.0 682.0Q145 722 145 730ZM60 382Q57 382 40 361V40H947V376Q941 379 938 379Q911 379 893.0 354.0Q875 329 864.5 293.0Q854 257 841.0 221.0Q828 185 803.0 160.0Q778 135 740 135Q697 135 667.0 161.0Q637 187 621.0 223.5Q605 260 590.0 297.0Q575 334 552.0 360.0Q529 386 496 386Q465 386 444.0 360.5Q423 335 409.5 298.5Q396 262 381.0 225.0Q366 188 337.5 162.5Q309 137 268 137Q228 137 202.0 162.0Q176 187 162.5 223.0Q149 259 138.0 295.5Q127 332 108.0 357.0Q89 382 60 382ZM485 440V685H399Q399 680 398.5 670.5Q398 661 398 657Q397 590 371 507Q370 503 366.5 491.5Q363 480 361 473Q393 456 403 454Q459 441 485 440ZM515 685V441Q554 444 599 455Q610 457 640 474Q613 570 608.5 592.0Q604 614 603 656Q603 685 603 685Z" fill="currentColor"/>
  </g>
</svg>