<svg xmlns="http://www.w3.org/2000/svg" viewBox="0 -2048 2048 2048">
	<path fill="#000000" d="M1605 -270L1356 -292Q1352 -292 1344 -292Q1290 -292 1259 -289L771 -236V384H676V-233Q556 -248 458 -278Q305 -325 247 -325Q171 -325 100 -311V-331Q165 -342 272 -375Q313 -397 411 -476Q496 -544 557 -567Q576 -574 616 -586Q636 -588 676 -596V-905H295V-1168Q295 -1188 317.5 -1205Q340 -1222 360 -1222Q386 -1222 484 -1142Q506 -1125 551 -1091Q559 -1129 578 -1299Q594 -1436 616 -1497Q624 -1518 656.5 -1541Q689 -1564 711 -1564Q788 -1564 815 -1479Q818 -1470 835 -1339Q846 -1254 871 -1090Q884 -1099 908 -1118Q945 -1151 982 -1185Q1033 -1228 1065 -1228Q1099 -1228 1131 -1186V-907H771V-591Q810 -586 886 -571Q962 -551 1026 -522Q1065 -504 1226 -413Q1347 -345 1433 -321Q1470 -311 1605 -290ZM853 -1078Q840 -1168 813 -1348Q808 -1391 792 -1476Q775 -1541 713 -1541Q693 -1541 668 -1522Q643 -1503 636 -1484Q628 -1461 611 -1354Q598 -1263 569 -1081Q632 -1047 723 -1047Q792 -1047 853 -1078ZM1105 -932V-1184Q1105 -1205 1065 -1205Q1037 -1205 960 -1138Q869 -1058 853 -1049Q803 -1021 723 -1021Q632 -1021 552 -1066Q510 -1090 439 -1151Q386 -1196 362 -1196Q352 -1196 346 -1195Q321 -1176 321 -1171V-932ZM745 -595V-905H702V-596Q708 -596 745 -595ZM1391 -312Q1319 -337 1124 -444Q960 -534 849 -554Q892 -495 892 -436Q892 -355 830 -307Q773 -262 690 -262Q609 -262 554 -306Q494 -354 494 -433Q494 -468 512 -517Q473 -496 391 -430Q316 -370 267 -348Q332 -343 484 -296Q624 -253 699 -253Q710 -253 720 -254L1270 -312Q1277 -313 1391 -312ZM869 -435Q869 -467 849 -508Q827 -554 799 -563.5Q771 -573 708 -573Q704 -573 697.5 -570Q691 -567 687 -567Q679 -567 676 -573Q644 -573 553 -540Q517 -467 517 -433Q517 -364 571 -323Q621 -285 692 -285Q743 -285 772 -297Q864 -335 864 -412Q864 -416 866.5 -423.5Q869 -431 869 -435ZM745 359V-233Q723 -230 702 -233V359Z"/>
</svg>