<svg xmlns="http://www.w3.org/2000/svg" viewBox="0 -2048 2048 2048">
	<path fill="#000000" d="M952 -970Q885 -943 865 -943Q849 -943 818 -952Q787 -961 771 -961Q759 -961 735 -956.5Q711 -952 699 -952Q677 -952 648 -955Q647 -948 639 -815H659V-767Q583 -736 576 -688H659V-644Q591 -618 577 -563H661V-512Q589 -495 576 -434H659V-387Q570 -360 570 -259Q570 -276 575 -220Q603 99 673 369H256Q350 -62 350 -248Q350 -309 337 -333Q321 -361 266 -389V-434H338Q332 -486 266 -513V-563H338Q335 -621 266 -634V-688H339Q332 -718 327 -728Q317 -752 299 -756Q288 -758 266 -764V-815H282L271 -823L291 -847Q293 -847 298 -846Q302 -846 310.5 -848Q319 -850 323 -850H400Q427 -850 427 -938Q427 -983 401 -995Q389 -998 365 -1009Q316 -1039 257 -1099Q185 -1172 185 -1212Q185 -1241 229 -1306Q260 -1351 292 -1397Q224 -1410 233 -1410Q214 -1410 176.5 -1408.5Q139 -1407 121 -1407Q112 -1421 100 -1419Q107 -1446 126 -1457Q129 -1459 170 -1473Q192 -1481 235 -1521Q269 -1555 310 -1555Q350 -1555 373.5 -1525.5Q397 -1496 397 -1455Q397 -1416 368.5 -1353.5Q340 -1291 340 -1296Q340 -1285 346 -1281Q381 -1278 435 -1270Q461 -1265 532 -1234Q578 -1214 645 -1172Q734 -1114 754 -1103Q805 -1082 906 -1039Q868 -1028 827 -1021ZM897 -972Q856 -992 770 -1017Q692 -1021 536 -1040Q494 -1055 408 -1082Q384 -1088 349 -1121.5Q314 -1155 314 -1177Q314 -1198 335.5 -1222.5Q357 -1247 378 -1247Q381 -1247 379 -1241L384 -1243L386 -1241Q383 -1230 361.5 -1214.5Q340 -1199 340 -1177Q340 -1136 411 -1104Q428 -1099 462 -1087Q509 -1067 617 -1052Q714 -1038 778 -1038Q780 -1038 832 -1045Q804 -1055 750 -1079Q681 -1127 535 -1209Q490 -1229 431 -1247Q395 -1250 359 -1254Q317 -1260 317 -1299Q317 -1299 344 -1356Q371 -1413 371 -1457Q371 -1532 325 -1532Q319 -1532 308.5 -1531Q298 -1530 292 -1530Q279 -1530 251 -1506Q223 -1482 223 -1469Q223 -1466 237 -1429Q280 -1421 329 -1421Q319 -1399 259 -1313Q208 -1241 208 -1213Q208 -1188 226 -1165Q337 -1023 451 -1001Q462 -998 485 -992Q563 -975 579 -964Q613 -941 613 -874Q613 -863 612 -845Q596 -827 560 -829Q564 -824 564 -815H615Q615 -837 620 -883Q625 -929 625 -953Q625 -962 608 -995Q614 -1002 627 -1002Q632 -994 644 -979Q675 -975 711 -975Q721 -975 741 -979.5Q761 -984 771 -984Q784 -984 809.5 -975Q835 -966 848 -966H880Q885 -967 897 -972ZM204 -1445Q203 -1451 202 -1463Q184 -1457 149 -1443Q185 -1447 204 -1445ZM585 -854V-911Q585 -944 510 -963Q497 -947 474 -911Q448 -857 448 -835V-815H456Q475 -848 512 -853Q549 -854 585 -854ZM483 -969L440 -980Q450 -956 450 -935Q450 -899 419 -831Q403 -830 371 -826L365 -821L373 -815H422Q436 -895 483 -969ZM633 -780V-791H292V-782Q345 -779 363 -688H555Q565 -753 633 -780ZM633 -657V-662H292V-649Q349 -634 360 -563H556Q562 -618 633 -657ZM633 -526V-537H292V-526Q360 -499 359 -434H556Q559 -463 582 -491Q605 -519 633 -526ZM643 345Q585 119 555 -190Q547 -274 547 -262Q547 -377 633 -401V-408H292V-400Q334 -383 350 -360Q373 -325 373 -250Q373 -236 371 -212Q368 -183 367 -175Q353 62 282 345ZM313 -1488Q313 -1469 291 -1469Q285 -1469 278 -1473H279L272 -1480V-1499L283 -1510H310Q310 -1506 311.5 -1499Q313 -1492 313 -1488Z"/>
</svg>