<svg xmlns="http://www.w3.org/2000/svg" viewBox="0 -2048 2048 2048">
	<path fill="#000000" d="M1342 369H368V33Q368 20 384.5 4Q401 -12 414 -12Q422 -12 511 98Q591 197 758 219Q810 226 799 226Q801 226 825 224V-497H676L688 -720Q594 -712 559 -712Q510 -712 496 -715Q492 -716 481 -721Q470 -726 468 -726Q453 -726 422.5 -719Q392 -712 377 -712H308Q256 -712 212 -746Q164 -782 164 -832Q164 -846 167 -874.5Q170 -903 170 -917Q170 -982 161 -1021Q144 -1095 144 -1099Q144 -1160 174 -1193Q147 -1190 145 -1190Q139 -1190 128 -1193.5Q117 -1197 112 -1198Q100 -1218 100 -1227Q100 -1241 146 -1282Q154 -1346 188 -1384Q202 -1397 227 -1425Q235 -1441 243 -1458Q251 -1475 273 -1475Q305 -1475 305 -1444Q305 -1434 296 -1425Q287 -1416 287 -1397Q287 -1387 288.5 -1368.5Q290 -1350 290 -1340Q290 -1324 280 -1297Q270 -1270 270 -1268Q270 -1265 290.5 -1253.5Q311 -1242 330 -1220Q330 -1222 329 -1225Q329 -1257 378 -1283Q375 -1297 370 -1348H459Q388 -1429 388 -1446Q388 -1475 418 -1475Q431 -1475 449 -1458V-1441Q436 -1429 422 -1429Q419 -1434 419 -1438Q419 -1438 423 -1451L418 -1452L411 -1444Q413 -1433 476 -1363Q483 -1401 499 -1475L535 -1470L494 -1274Q546 -1233 561 -1214Q590 -1179 590 -1131Q590 -1076 561 -1023Q517 -942 511 -926Q490 -867 490 -837Q490 -802 542 -802Q581 -802 690 -819Q721 -887 725 -982Q727 -1144 747 -1467Q750 -1489 775.5 -1507Q801 -1525 825 -1525Q858 -1525 875 -1503Q891 -1525 934 -1525Q955 -1525 976 -1510.5Q997 -1496 1001 -1454Q1002 -1421 1003 -1388Q1008 -1264 1012 -1140Q1020 -954 1033 -913Q1042 -888 1052 -833Q1056 -831 1065 -829Q1196 -798 1240 -734Q1261 -704 1268 -674.5Q1275 -645 1282 -615Q1286 -602 1286 -597Q1286 -509 1268 -424Q1251 -344 1251 -332Q1251 -310 1263 -244Q1275 -178 1283 -159Q1285 -154 1309 -109Q1330 -70 1330 -65Q1330 -36 1303 -36Q1289 -36 1247 -83Q1146 -195 1146 -331Q1146 -358 1153.5 -412Q1161 -466 1161 -492Q1161 -526 1148 -601Q1143 -626 1115.5 -656.5Q1088 -687 1063 -694L1084 -498H919V223Q1000 213 1033 204Q1086 189 1139 153Q1192 117 1227 66Q1280 -12 1297 -12Q1315 -12 1332 1Q1333 5 1337.5 15.5Q1342 26 1342 32ZM1007 -955V-959Q1007 -991 992 -1230Q977 -1469 974 -1478Q966 -1502 931 -1502Q882 -1502 882 -1434Q882 -1376 884 -1282Q887 -1161 887 -1130Q951 -1115 951 -1053Q951 -1006 926 -992Q976 -983 1007 -955ZM864 -1133L861 -1475Q861 -1502 825 -1502Q778 -1502 770 -1463Q767 -1448 762 -1346Q758 -1209 745 -937Q788 -981 820 -990Q787 -1017 787 -1065Q787 -1115 864 -1133ZM929 -1034Q929 -1074 922 -1088Q920 -1092 901.5 -1101.5Q883 -1111 878 -1111Q810 -1111 810 -1052Q810 -1041 821 -1023Q832 -1005 842 -1002Q859 -996 881 -996Q890 -996 909.5 -1010.5Q929 -1025 929 -1034ZM481 -1322Q485 -1323 467 -1323Q456 -1323 432 -1322Q409 -1322 397 -1322Q396 -1319 396 -1314Q396 -1310 399 -1291Q421 -1295 433 -1295Q450 -1295 474 -1284ZM1058 -523V-547Q1058 -556 1047 -666Q1041 -736 1024 -875Q1009 -973 877 -973Q835 -973 816 -966Q781 -953 750 -905Q723 -862 716 -820Q715 -814 712 -760Q709 -716 703 -628Q702 -593 697 -523ZM1307 -61V-66Q1275 -111 1251 -195Q1228 -276 1228 -335Q1228 -341 1246 -425Q1263 -505 1263 -592Q1263 -593 1258 -620Q1241 -711 1193 -753Q1150 -790 1055 -809L1063 -717Q1095 -712 1130 -674Q1165 -636 1171 -603Q1186 -521 1186 -485Q1186 -471 1181 -448Q1176 -421 1175 -411Q1172 -375 1172 -337Q1172 -273 1184 -237Q1226 -110 1304 -59ZM279 -1442L278 -1449Q273 -1450 264 -1452Q263 -1445 259 -1431Q252 -1416 207 -1367Q173 -1331 173 -1292Q216 -1295 205 -1295Q223 -1295 252 -1281Q267 -1315 267 -1406Q267 -1415 273 -1427Q279 -1439 279 -1442ZM687 -745V-796H685Q660 -796 611 -787.5Q562 -779 537 -779Q512 -779 495 -786Q487 -789 475.5 -806.5Q464 -824 464 -833Q464 -864 492 -936Q494 -942 540 -1029Q567 -1079 567 -1131Q567 -1164 558 -1181Q543 -1208 503 -1240Q460 -1273 432 -1273Q410 -1273 385 -1261Q355 -1246 355 -1227Q355 -1211 374 -1213Q475 -1225 477 -1225Q495 -1225 493 -1207L492 -1205Q393 -1199 393 -1120Q393 -1088 407.5 -1025Q422 -962 422 -930Q422 -918 419 -895Q416 -872 416 -860Q416 -782 461 -754Q494 -734 574 -734H613Q631 -734 687 -745ZM404 -789Q388 -837 388 -854Q388 -867 394 -891.5Q400 -916 400 -929Q400 -929 397 -945Q393 -985 377 -1064Q370 -1087 370 -1121Q370 -1163 404 -1195Q362 -1190 373 -1190Q360 -1190 346 -1198Q367 -1167 367 -1136Q367 -1089 334 -1026Q287 -937 282 -923Q261 -864 261 -842Q261 -801 292 -789Q308 -784 358 -784Q387 -784 404 -789ZM439 -743Q416 -770 414 -770Q406 -770 391.5 -765.5Q377 -761 369 -761H334Q238 -761 238 -842Q238 -860 260 -930Q267 -952 310 -1031Q344 -1092 344 -1136Q344 -1176 294.5 -1224.5Q245 -1273 205 -1273Q159 -1273 126 -1234V-1221Q148 -1213 148 -1213Q245 -1225 247 -1225Q272 -1225 287 -1201Q281 -1201 268 -1202Q256 -1202 249 -1202Q219 -1202 193 -1178.5Q167 -1155 167 -1125Q167 -1075 181 -1034Q192 -1002 192 -914Q192 -900 188.5 -873Q185 -846 185 -832Q185 -791 228 -761Q268 -734 310 -734H376Q368 -734 439 -743ZM893 224V-497H852V224Q872 223 893 224ZM1316 343V26Q1316 21 1312 14Q1298 11 1298 11Q1292 11 1241 84Q1204 137 1149 174Q1038 249 848 249Q576 249 461 70Q430 22 413 14Q393 23 393 30V343ZM414 -1254L409 -1229H390L379 -1240Q379 -1249 393 -1263Q405 -1263 414 -1254ZM190 -1252Q190 -1242 177 -1229H158Q155 -1241 155 -1245Q155 -1254 163 -1263H180Z"/>
</svg>