<svg viewBox="0 0 14.834715 10.08"
   xmlns="http://www.w3.org/2000/svg">
  <path
     style="fill:currentColor; stroke:none"
     d=" M 14.834715 2.250566  L 9.446037 2.250566  L 9.446037 10.08  L 8.764527 10.08  L 8.764527 6.418867  L 5.89585 2.250566  L 4.02566 2.250566  L 3.391696 3.455094  L 1.283773 3.455094  L 0.633962 2.250566  L 0 2.250566  L 0 1.569056  Q 0.047547 0.142641 1.458113 0  Q 2.85283 0.142641 2.963772 1.569056  L 14.834715 1.569056  L 14.834715 2.250566  Z  M 8.780375 2.250566  L 6.719999 2.250566  L 8.780375 5.246037  L 8.780375 2.250566  Z  M 2.298113 1.569056  Q 2.266415 0.744906 1.458113 0.633962  Q 0.633962 0.744906 0.633962 1.569056  L 2.298113 1.569056  Z  M 3.391696 2.250566  L 1.283773 2.250566  L 1.584905 2.805282  L 3.074717 2.805282  L 3.391696 2.250566  Z " />
</svg>