<svg xmlns="http://www.w3.org/2000/svg" viewBox="0 -2048 2048 2048">
	<path fill="#000000" d="M933 -886H696V-273H596V-886H452V351H348V-886H113Q146 -1046 291 -1147Q197 -1212 158 -1260Q100 -1331 100 -1420Q100 -1470 137 -1506.5Q174 -1543 224 -1543Q364 -1543 364 -1427Q364 -1366 293 -1318L279 -1340Q338 -1380 338 -1427Q338 -1517 224 -1517Q185 -1517 155.5 -1488Q126 -1459 126 -1420Q126 -1337 186 -1268Q223 -1226 315 -1162Q420 -1226 534 -1226Q676 -1226 788 -1123Q889 -1030 933 -886ZM897 -912Q851 -1036 759 -1114Q658 -1200 534 -1200Q405 -1200 295 -1118Q185 -1036 147 -912ZM672 -296V-886H622V-296ZM425 326V-886H373V326Z"/>
</svg>