<svg xmlns="http://www.w3.org/2000/svg" viewBox="0 -2048 2048 2048">
	<path fill="currentColor" d="M1003 -1021Q1003 -984 977 -958Q951 -932 914 -932Q877 -932 851 -958Q825 -984 825 -1021Q825 -1058 851 -1084Q877 -1110 914 -1110Q951 -1110 977 -1084Q1003 -1058 1003 -1021ZM371 -1021Q371 -984 345 -958Q319 -932 282 -932Q245 -932 219 -958Q193 -984 193 -1021Q193 -1058 219 -1084Q245 -1110 282 -1110Q319 -1110 345 -1084Q371 -1058 371 -1021ZM1096 -778H685Q734 -733 785 -688Q856 -625 878 -598Q927 -539 927 -483Q927 -443 896 -411Q865 -379 826 -379Q744 -379 702 -480Q681 -531 656 -672V367H540V-672Q515 -531 494 -480Q452 -379 370 -379Q331 -379 300 -411Q269 -443 269 -483Q269 -539 318 -598Q340 -625 411 -688Q462 -733 511 -778H100V-919H481Q427 -1027 427 -1100Q427 -1105 448 -1236Q459 -1324 488 -1476Q495 -1501 523 -1528Q529 -1534 559 -1547.5Q589 -1561 597 -1561Q601 -1561 612 -1556Q641 -1543 671 -1530Q696 -1513 706 -1477Q723 -1418 751 -1225Q767 -1117 767 -1101Q767 -1024 714 -919H1095ZM977 -1021Q977 -1084 914 -1084Q851 -1084 851 -1021Q851 -958 914 -958Q977 -958 977 -1021ZM741 -1101Q741 -1116 725 -1221Q715 -1298 704 -1375Q684 -1490 657 -1508Q644 -1517 597 -1535Q559 -1529 537 -1504Q507 -1470 491 -1354Q478 -1263 460 -1163Q453 -1125 453 -1100Q453 -1032 510 -919H684Q741 -1032 741 -1101ZM1070 -804L1069 -893H125V-804ZM901 -496Q901 -566 663 -760Q676 -679 712 -520Q743 -411 822 -411Q901 -411 901 -496ZM345 -1021Q345 -1084 282 -1084Q219 -1084 219 -1021Q219 -958 282 -958Q345 -958 345 -1021ZM533 -762Q461 -702 330 -569Q295 -526 295 -483Q295 -454 318 -429.5Q341 -405 370 -405Q452 -405 490 -550Q512 -656 533 -762ZM631 341V-778H567V341Z"/>
</svg>