<svg xmlns="http://www.w3.org/2000/svg" viewBox="22 -1654 891.1 2107.1">
	<path fill="currentColor" d="M835 -1150Q821 -1131 763 -1130Q761 -1117 762 -1083Q753 -1075 675 -1078V375H598V-1074Q591 -1075 583 -1075Q514 -1075 475 -1047Q443 -1026 385 -970Q367 -955 338 -919Q254 -771 251 -503Q296 -488 311 -421Q326 -354 380 -340Q382 -313 311 -297Q259 -286 217 -286Q173 -286 137 -302Q125 -312 100 -330Q101 -331 121 -346Q138 -359 155 -419Q171 -474 227 -502Q229 -537 233 -606Q239 -781 311 -918Q329 -939 364 -983Q408 -1044 489 -1084Q506 -1088 538 -1098V-1102Q538 -1136 494 -1150Q482 -1154 452 -1154Q424 -1102 410 -1102Q376 -1102 376 -1118Q376 -1128 385 -1147.5Q394 -1167 394 -1177Q394 -1198 384 -1212Q382 -1220 382 -1227Q382 -1232 388 -1241.5Q394 -1251 394 -1254Q394 -1259 393 -1263H360Q352 -1270 352 -1283Q352 -1289 368 -1325Q386 -1366 388 -1371Q394 -1406 410 -1476Q417 -1502 447 -1531Q477 -1560 504 -1566Q548 -1576 605 -1576Q707 -1576 756 -1528Q802 -1484 817 -1384Q824 -1346 833 -1267Q835 -1225 835 -1171ZM812 -1168Q812 -1327 793 -1403Q757 -1550 647 -1551H602Q484 -1552 444 -1492Q428 -1467 427 -1446Q480 -1448 577 -1432Q606 -1420 605 -1362H608Q608 -1422 660 -1422Q714 -1422 714 -1362Q714 -1338 683.5 -1297.5Q653 -1257 653 -1257Q653 -1233 690.5 -1193.5Q728 -1154 752 -1154Q788 -1154 808 -1156Q812 -1159 812 -1168ZM736 -1102V-1132Q656 -1181 633 -1246Q597 -1254 597 -1279Q597 -1316 614 -1316Q615 -1316 619 -1315Q624 -1309 624 -1280Q624 -1271 630 -1271Q643 -1271 665.5 -1309Q688 -1347 688 -1362Q688 -1396 660 -1396Q635 -1396 634 -1365.5Q633 -1335 604 -1335Q576 -1335 576 -1361Q576 -1367 578 -1377.5Q580 -1388 580 -1394Q580 -1412 545 -1416Q520 -1417 496 -1418Q433 -1423 423 -1423Q420 -1400 407 -1356Q397 -1334 378 -1289H411Q414 -1300 418 -1309Q438 -1299 438 -1286Q432 -1277 415 -1264Q415 -1254 417 -1249L413 -1244Q420 -1245 427 -1245Q445 -1245 449 -1222Q433 -1218 412 -1216Q418 -1201 418 -1188Q418 -1177 404 -1127L409 -1126Q423 -1145 435 -1172Q448 -1177 451 -1177Q535 -1177 561 -1102Q611 -1102 623 -1101V350H648V-1094Q668 -1102 736 -1102ZM342 -330Q307 -355 298.5 -383.5Q290 -412 283 -440Q269 -479 249 -479Q203 -479 181 -418Q152 -343 137 -331Q172 -309 218 -309Q288 -309 342 -330ZM554 -1365Q503 -1335 480 -1335Q471 -1335 450.5 -1340.5Q430 -1346 419 -1345Q455 -1398 466 -1398Q478 -1398 509 -1384Q543 -1367 554 -1365ZM479 -1367Q479 -1374 471 -1374H467Q458 -1374 458 -1367Q458 -1360 467 -1360H471Q479 -1360 479 -1367Z"/>
</svg>