<svg xmlns="http://www.w3.org/2000/svg" viewBox="22.1 -1644.9 739.8 2102.8">
	<path fill="currentColor" d="M684 -192H445L455 312Q455 326 443 358Q394 380 380 380Q371 380 358 378Q322 335 323 314L341 -191H100Q106 -329 111 -468Q121 -656 146 -730Q159 -748 177 -787Q182 -809 182 -900Q182 -891 202 -1286Q203 -1355 211 -1493Q214 -1523 250 -1546Q283 -1567 316 -1567Q363 -1567 390 -1527Q410 -1567 474 -1567Q507 -1567 536 -1546Q576 -1516 579 -1436L600 -803Q625 -754 656 -651Q664 -588 676 -376Q684 -237 684 -192ZM575 -826L556 -1447Q553 -1544 471 -1544Q404 -1544 404 -1501V-905Q524 -886 575 -826ZM377 -908V-1511Q377 -1522 353 -1533Q329 -1544 316 -1544Q247 -1544 235 -1492Q232 -1477 225 -1354Q220 -1177 202 -824Q242 -871 280 -887Q303 -897 377 -908ZM661 -218V-224Q661 -233 655 -314Q648 -405 644 -486Q637 -619 637 -616Q637 -671 605 -739.5Q573 -808 530 -841Q472 -886 386 -886Q341 -886 294 -870Q240 -852 173 -733Q155 -702 140 -468Q123 -210 123 -218ZM432 309Q432 329 419 -190H364Q362 -170 362 -126Q362 -118 360 -103Q358 -88 358 -82Q346 149 346 311Q346 353 384 353Q432 353 432 309Z"/>
</svg>