<svg xmlns="http://www.w3.org/2000/svg" viewBox="0 0 340 1000">
  <g transform="scale(1,-1) translate(0,-1000)">
    <path d="M187 752Q187 905 199.5 952.5Q212 1000 266 1000Q279 999 291.5 990.0Q304 981 304 965Q304 943 289 928Q286 926 266 917Q268 906 273.5 882.0Q279 858 282 842Q284 833 292.0 806.5Q300 780 300 763V758Q300 733 285 724Q279 721 266.0 719.5Q253 718 248 714Q240 709 219 689V615H320Q328 615 334.0 609.0Q340 603 340.0 595.0Q340 587 334.0 581.0Q328 575 320 575H280Q308 550 322.0 506.0Q336 462 338.0 428.0Q340 394 340 328V325Q340 317 334.0 311.0Q328 305 320 305H190V20Q190 12 184.0 6.0Q178 0 170.0 0.0Q162 0 156.0 6.0Q150 12 150 20V305H20Q12 305 6.0 311.0Q0 317 0 325V328Q0 394 2.0 428.0Q4 462 18.0 506.0Q32 550 60 575H20Q12 575 6.0 581.0Q0 587 0.0 595.0Q0 603 6.0 609.0Q12 615 20 615H123V689Q100 711 95 714Q90 718 76.5 719.5Q63 721 57 724Q42 732 42 769Q42 775 46.0 789.5Q50 804 59.0 838.5Q68 873 76 917Q58 925 54 928Q38 944 38 965Q38 981 51.0 990.0Q64 999 77 1000Q85 1000 91.5 999.5Q98 999 109.5 993.5Q121 988 129.0 978.5Q137 969 144.0 949.0Q151 929 152 901Q155 839 155 752Q155 642 154 615H189Q187 669 187 752ZM300 345Q300 392 298.0 421.5Q296 451 288.5 482.0Q281 513 267.5 530.0Q254 547 229.5 559.5Q205 572 170 575Q135 572 110.5 560.0Q86 548 72.5 530.5Q59 513 51.5 482.5Q44 452 42.0 422.5Q40 393 40 345ZM261 978Q228 978 218.5 944.0Q209 910 209 803V710Q239 740 265 740H269Q275 740 276.5 744.0Q278 748 278 762Q278 780 269.0 808.0Q260 836 260 839Q254 870 250.0 891.0Q246 912 245 918L244 923Q244 930 263.5 938.5Q283 947 283 965Q283 978 261 978ZM60 964Q60 947 79.5 938.5Q99 930 99 923Q99 923 98 920Q94 898 82 839V838Q82 833 73.0 806.0Q64 779 64 762Q64 756 66 746Q67 742 73.5 741.0Q80 740 90.0 738.5Q100 737 107 732Q118 725 133 710V802Q133 903 124.0 940.5Q115 978 82 978H78Q60 978 60 964Z" fill="currentColor"/>
  </g>
</svg>