<svg xmlns="http://www.w3.org/2000/svg" viewBox="0 0 936 1000">
  <g transform="scale(1,-1) translate(0,-1000)">
    <path d="M536 719Q534 745 513.0 768.0Q492 791 469 791Q448 791 426.0 765.5Q404 740 402 719L400 613H538ZM373 769Q376 896 386.5 948.0Q397 1000 437 1000Q458 1000 470 988Q475 992 483.5 995.0Q492 998 498 998L504 999Q537 999 548.0 953.5Q559 908 564 769Q687 764 687 686Q687 675 683.0 642.5Q679 610 679 589Q679 546 695.5 493.5Q712 441 712 438Q712 429 703 429Q698 429 695 432Q655 480 639.5 508.5Q624 537 617 588Q615 602 614.5 628.5Q614 655 612.0 672.0Q610 689 604 695Q599 700 567 703Q569 654 570 600V599Q570 586 556 586H488V417H841Q848 417 852.5 412.0Q857 407 857 400Q857 384 841 384H564Q583 351 583 315Q583 305 581.0 292.0Q579 279 565.5 261.0Q552 243 528.0 243.0Q504 243 486 249V199H916Q924 199 930.0 193.0Q936 187 936.0 179.0Q936 171 930.0 165.0Q924 159 916 159H846V121H916Q924 121 930.0 115.0Q936 109 936.0 101.0Q936 93 930.0 87.0Q924 81 916 81H846V40H916Q924 40 930.0 34.0Q936 28 936.0 20.0Q936 12 930.0 6.0Q924 0 916 0H20Q12 0 6.0 6.0Q0 12 0.0 20.0Q0 28 6.0 34.0Q12 40 20 40H88V81H20Q12 81 6.0 87.0Q0 93 0.0 101.0Q0 109 6.0 115.0Q12 121 20 121H88V159H20Q12 159 6.0 165.0Q0 171 0.0 179.0Q0 187 6.0 193.0Q12 199 20 199H453V264Q430 278 407.5 303.5Q385 329 346 384H156Q115 384 90.0 388.0Q65 392 52.5 403.5Q40 415 36.0 423.0Q32 431 27 450Q27 451 26.5 452.0Q26 453 26 454Q26 470 42 470Q54 470 59.5 453.0Q65 436 69 432Q84 417 154 417H451V587H383Q378 587 373.5 591.5Q369 596 369 601Q371 664 372 707Q324 711 287 722Q255 732 255 776Q255 784 256.5 801.5Q258 819 258 828Q258 844 251.0 863.0Q244 882 244 896Q244 923 253 937Q224 941 224.0 959.0Q224 977 247.0 988.5Q270 1000 284 1000Q306 1000 334.0 973.5Q362 947 362 906Q362 884 341.0 851.5Q320 819 320 807Q320 776 373 769ZM538 777Q537 859 532.5 901.0Q528 943 520.5 957.5Q513 972 500 972Q495 972 492.0 971.0Q489 970 487.0 966.5Q485 963 484.5 960.0Q484 957 483 950Q484 942 484 904Q484 893 484.0 880.0Q484 867 484.0 856.0Q484 845 483.5 836.0Q483 827 483 822V816Q516 807 538 777ZM456 950Q455 957 454.5 959.0Q454 961 452.0 965.5Q450 970 447.0 971.5Q444 973 439 973Q426 973 419.0 961.0Q412 949 406.5 905.5Q401 862 400 779Q422 808 456 818Q456 818 456.0 822.0Q456 826 456.0 833.0Q456 840 455.5 848.0Q455 856 455.0 866.5Q455 877 455 887Q455 943 456 950ZM628 81H489V40H628ZM667 81V40H806V81ZM268 81H128V40H268ZM307 81V40H449V81ZM628 159H489V121H628ZM667 159V121H806V159ZM268 159H128V121H268ZM307 159V121H449V159ZM565 749Q565 745 565.5 736.5Q566 728 566 723Q602 719 614.5 711.0Q627 703 631 680Q634 667 634.0 635.5Q634 604 636 590Q645 530 679 484Q659 551 659 589Q659 611 663.0 642.5Q667 674 667 685Q667 695 665.0 702.0Q663 709 654.5 720.5Q646 732 623.5 739.5Q601 747 565 749ZM373 749Q359 751 346.0 754.5Q333 758 316.5 772.0Q300 786 300 807Q300 825 321.0 857.5Q342 890 342 906Q342 938 319.0 959.0Q296 980 283 980Q274 980 246 963Q244 961 244 959Q252 956 259 956Q264 956 275.0 957.5Q286 959 294 959Q307 959 307 949Q307 941 291.0 936.5Q275 932 272 929Q268 925 266.0 917.0Q264 909 264 902V896Q264 886 271.0 867.0Q278 848 278 828Q278 819 276.5 801.5Q275 784 275 776Q275 747 293 741Q329 730 372 727Q372 731 372.5 738.5Q373 746 373 749ZM486 384V271Q505 263 528 263Q563 263 563 315Q563 353 540 384ZM453 384H371Q430 304 453 288Z" fill="currentColor"/>
  </g>
</svg>