<svg xmlns="http://www.w3.org/2000/svg" viewBox="0 -2048 2048 2048">
	<path fill="currentColor" d="M1729 -737Q1729 -741 1713 -688Q1700 -646 1650 -610Q1593 -569 1570 -570H1004V-377Q1004 -115 1194 215H679Q690 174 699 156Q775 0 803 -117Q829 -225 829 -370Q829 -518 811 -570H258Q216 -570 166.5 -618Q117 -666 108 -712Q100 -725 100 -733V-758H275Q231 -795 231 -857Q231 -906 262.5 -942Q294 -978 345 -978Q397 -978 428.5 -946.5Q460 -915 460 -866Q460 -801 411 -758H654Q601 -802 601 -852Q601 -905 641 -943Q678 -978 722 -978Q839 -978 839 -849Q839 -819 834 -808Q826 -790 790 -758H1034Q990 -800 990 -852Q990 -904 1032 -941Q1069 -973 1111 -973Q1163 -973 1194 -924Q1218 -885 1218 -845Q1218 -813 1191 -774L1180 -757Q1185 -752 1399 -758Q1398 -761 1368 -802Q1355 -820 1355 -854Q1355 -901 1389.5 -939.5Q1424 -978 1464 -978Q1517 -978 1550 -939Q1583 -900 1583 -849Q1583 -787 1539 -757Q1543 -753 1729 -758ZM1564 -857Q1564 -889 1539 -919Q1509 -954 1467 -954Q1431 -954 1401 -914Q1374 -878 1374 -849Q1374 -821 1402 -790Q1434 -755 1471 -755Q1508 -755 1536 -787Q1564 -819 1564 -857ZM1199 -849Q1199 -881 1177 -914Q1150 -954 1109 -954Q1077 -954 1043 -921.5Q1009 -889 1009 -857Q1009 -821 1040 -788Q1071 -755 1111 -755Q1143 -755 1171 -786Q1199 -817 1199 -849ZM820 -847Q820 -887 798 -917Q770 -954 720 -954Q680 -954 652.5 -920.5Q625 -887 625 -854Q625 -823 656 -789Q687 -755 722 -755Q751 -755 785.5 -785Q820 -815 820 -847ZM1700 -717V-734H125Q118 -700 169 -647Q220 -594 249 -594H1580Q1604 -594 1652 -646.5Q1700 -699 1700 -717ZM435 -871Q435 -910 428 -919Q395 -959 343 -959Q304 -959 276 -922Q251 -889 251 -854Q251 -759 348 -759Q435 -759 435 -871ZM1165 197Q1072 80 1022 -126Q980 -298 980 -468Q980 -562 979 -569H840Q854 -443 854 -460V-300Q854 -205 804 -38Q755 125 708 197Z"/>
</svg>