<svg xmlns="http://www.w3.org/2000/svg" viewBox="31.4 -1526.6 1461.1 1851.1">
	<path fill="currentColor" d="M1424 -1021Q1316 -872 1159 -776Q989 -672 817 -668Q812 -398 812 -375Q812 -132 870 -13Q950 153 1164 174V256H368Q368 229 369 174Q517 131 589 68Q685 -16 699 -196Q705 -271 705 -443Q705 -452 701 -668Q332 -702 100 -1026L105 -1038H175Q176 -1039 177 -1041Q177 -1043 175 -1048.5Q173 -1054 173 -1058Q173 -1077 193 -1150Q213 -1223 223 -1238Q261 -1298 340.5 -1359Q420 -1420 487 -1440Q535 -1454 537 -1454Q544 -1454 556 -1451Q568 -1448 573 -1448Q578 -1427 578 -1432Q578 -1435 514.5 -1365Q451 -1295 451 -1246Q451 -1141 577 -1038L681 -1041Q625 -1065 579 -1120Q530 -1179 530 -1236Q530 -1325 601 -1386Q669 -1444 759 -1444Q844 -1444 914 -1387Q989 -1327 989 -1244Q989 -1193 946 -1125Q903 -1057 857 -1041Q873 -1036 939 -1036Q982 -1036 1031 -1105Q1077 -1171 1077 -1217Q1077 -1265 1016 -1343.5Q955 -1422 955 -1429Q955 -1443 971 -1458Q1084 -1450 1207 -1333Q1326 -1219 1349 -1105Q1353 -1083 1356 -1042Q1365 -1032 1390.5 -1032Q1416 -1032 1424 -1021ZM1331 -1040V-1085Q1331 -1082 1322 -1110Q1314 -1134 1294 -1181Q1252 -1258 1176 -1330Q1089 -1413 1016 -1426Q1004 -1427 980 -1433Q1096 -1294 1096 -1217Q1096 -1127 1004 -1040ZM969 -1239Q969 -1308 900.5 -1366Q832 -1424 762 -1424Q684 -1424 620 -1370Q554 -1313 554 -1236Q554 -1183 575 -1157Q606 -1118 661 -1081Q723 -1038 764 -1038Q802 -1038 848.5 -1062.5Q895 -1087 918 -1118Q930 -1135 949 -1177Q969 -1223 969 -1239ZM549 -1433H523Q513 -1433 453 -1401Q236 -1285 215 -1149Q214 -1141 206 -1117.5Q198 -1094 198 -1084V-1040H539Q492 -1078 477 -1106Q427 -1196 427 -1251Q427 -1293 472 -1350Q511 -1391 549 -1433ZM1384 -1010H139Q231 -883 373.5 -798.5Q516 -714 669 -699Q792 -687 784 -687Q930 -687 1117.5 -787.5Q1305 -888 1384 -1010ZM1145 231Q1138 210 1140 189Q1041 184 958 130Q869 73 838 -16Q798 -132 789 -340Q788 -376 788 -666H725V-265Q725 -149 687 -44Q639 88 551 121Q528 133 482 156Q421 183 388 194V231Z"/>
</svg>