<svg viewBox="0 0 17.65 3.12"
   xmlns="http://www.w3.org/2000/svg">
  <path
     style="fill:currentColor; stroke:none"
     d="M 10.4375 0 C 10.250833 -3.6140072e-20 10.262083 0.26791663 10.46875 0.78125 C 10.682083 1.2945833 10.682083 1.7924999 10.46875 2.3125 C 10.262083 2.8324999 10.250833 3.0937501 10.4375 3.09375 C 10.630833 3.09375 10.874167 3.04875 11.1875 2.96875 C 11.5075 2.88875 12.124583 2.8750001 13.03125 2.875 C 17.054797 2.7456617 17.687499 2.3291667 17.6875 1.5625 C 17.6875 0.77583327 17.065484 0.3433333 13.03125 0.25 C 12.124583 0.25 11.5075 0.205 11.1875 0.125 C 10.874167 0.045000005 10.630833 -5.4093046e-16 10.4375 0 z M 7.1875 0.03125 C 6.9941668 0.031250001 6.750833 0.076250002 6.4375 0.15625 C 6.1175 0.23625 5.500417 0.28125 4.59375 0.28125 C 0.55951617 0.37458329 -0.0625 0.80708333 -0.0625 1.59375 C -0.062499999 2.3604167 0.57020299 2.7769117 4.59375 2.90625 C 5.5004172 2.90625 6.1175 2.95125 6.4375 3.03125 C 6.750833 3.1112499 6.994167 3.15625 7.1875 3.15625 C 7.3741668 3.15625 7.362917 2.8949999 7.15625 2.375 C 6.942917 1.8550001 6.942917 1.3258333 7.15625 0.8125 C 7.362917 0.29916662 7.374167 0.03125 7.1875 0.03125 z M 8.84375 0.09375 C 7.90375 0.13375 7.3858334 0.61583339 7.3125 1.5625 C 7.3525 2.5091667 7.8524996 3.0045833 8.8125 3.03125 C 9.7458333 2.99125 10.26375 2.4958334 10.34375 1.5625 C 10.30375 0.6025 9.8037501 0.12041667 8.84375 0.09375 z M 8.84375 0.65625 C 9.42375 0.66958333 9.7233335 0.98250006 9.75 1.5625 C 9.71 2.1291667 9.3924996 2.4241666 8.8125 2.4375 C 8.2325 2.4241667 7.9329166 2.1291668 7.90625 1.5625 C 7.94625 0.9825 8.2637501 0.66958331 8.84375 0.65625 z M 11.21875 0.78125 C 12.425417 0.78125 13.675417 0.82166661 14.96875 0.875 C 16.26875 0.9283333 16.90625 1.1558333 16.90625 1.5625 C 16.90625 1.9558333 16.26875 2.1900001 14.96875 2.25 C 13.675417 2.31 12.425417 2.3437499 11.21875 2.34375 C 11.425417 1.8304167 11.425417 1.2945833 11.21875 0.78125 z M 6.40625 0.84375 C 6.1995828 1.3570833 6.199583 1.8616667 6.40625 2.375 C 5.1995828 2.3750001 3.949583 2.34125 2.65625 2.28125 C 1.35625 2.22125 0.71875 1.9870833 0.71875 1.59375 C 0.71875 1.1870833 1.35625 0.9595833 2.65625 0.90625 C 3.949583 0.8529166 5.199583 0.84375 6.40625 0.84375 z " />
</svg>