<svg xmlns="http://www.w3.org/2000/svg" viewBox="0 -2048 2048 2048">
	<path fill="#000000" d="M2273 -94Q2273 -31 2243 -3Q2218 20 2152 33Q2023 59 1700 89Q1439 113 1367 113Q1387 61 1406 9Q1429 -53 1429 -99Q1429 -180 1352 -327Q1364 -332 1375 -332Q1368 -332 1429 -317Q1459 -310 1541 -299L1964 -244Q2036 -236 2178 -212Q2200 -207 2231.5 -184Q2263 -161 2269 -142Q2273 -129 2273 -94ZM1354 -94Q1354 -81 1337.5 -43Q1321 -5 1311 3Q1254 51 1188 51Q1125 51 1075 4.5Q1025 -42 1025 -104Q1025 -236 1161 -269Q1150 -292 875 -881Q820 -990 729 -1197Q719 -1224 719 -1256Q719 -1294 748 -1340Q777 -1386 812 -1401Q831 -1409 873 -1409Q926 -1409 963.5 -1373.5Q1001 -1338 1001 -1286Q1001 -1230 945 -1198L1349 -678Q1344 -664 1325 -647Q1262 -590 1235 -553Q1166 -458 1166 -429Q1166 -394 1233 -264Q1305 -256 1335 -187Q1354 -144 1354 -94ZM1017 -317Q945 -153 945 -96Q945 -68 966 0.5Q987 69 1003 93V113H978Q969 113 903 106L240 36Q233 35 188 17Q100 -19 100 -90Q100 -198 234 -218Q356 -234 599 -268Q703 -281 806 -295Q927 -312 1011 -335Q1017 -326 1017 -317ZM2251 -96Q2251 -124 2247 -135Q2233 -175 2164 -192Q2141 -198 1960 -222L1542 -277Q1491 -282 1391 -302Q1451 -172 1451 -97Q1451 -31 1399 90H1402Q1409 90 1491 83L1668 68Q1826 55 2140 13Q2200 2 2222 -16Q2251 -40 2251 -96ZM1320 -677L913 -1205Q925 -1209 944 -1219Q978 -1246 978 -1286Q978 -1327 946.5 -1356.5Q915 -1386 873 -1386Q839 -1386 818 -1377Q790 -1365 765.5 -1326Q741 -1287 741 -1256Q741 -1233 751 -1206Q764 -1170 868 -946Q972 -719 1186 -269L1207 -267Q1187 -306 1166 -346Q1143 -393 1143 -430Q1143 -439 1152 -455Q1161 -471 1161 -480Q1161 -482 1177 -507Q1236 -598 1320 -677ZM1331 -96Q1331 -84 1326 -122Q1313 -219 1244 -239Q1225 -244 1190 -244H1167Q1117 -244 1082.5 -200.5Q1048 -157 1048 -106Q1048 -52 1090.5 -12Q1133 28 1188 28Q1231 28 1270 3Q1309 -22 1320 -61Q1331 -100 1331 -96ZM988 -307Q867 -266 618 -239Q281 -203 233 -195Q123 -176 123 -91Q123 -13 239 13Q264 19 494 41L975 88Q925 -16 925 -91Q925 -175 988 -307Z"/>
</svg>