<svg viewBox="0 0 16.032946 6.24"
   xmlns="http://www.w3.org/2000/svg">
  <path
     style="fill:currentColor; stroke:none"
     d=" M 4.27433 1.838571  Q 3.122902 2.08 3.122902 3.12  Q 3.122902 4.159999 4.27433 4.327142  L 11.740044 4.327142  Q 12.910045 4.159999 12.910045 3.12  Q 12.910045 2.08 11.740044 1.838571  L 4.27433 1.838571  Z  M 4.515759 4.939999  Q 2.788616 5.032857 2.510044 3.491429  Q 0.690045 3.9 0.690045 6.017142  Q 0.541473 6.24 0.37433 6.24  Q 0.170045 6.24 0.021473 5.849999  Q -0.071384 5.07 0.235045 4.317856  Q 0.541473 3.565714 1.340044 3.12  Q 0.541473 2.655714 0.235045 1.912857  Q -0.071384 1.17 0.021473 0.39  Q 0.170045 0 0.37433 0  Q 0.541473 0 0.690045 0.222857  Q 0.690045 2.339999 2.510044 2.748571  Q 2.788616 1.207143 4.515759 1.225714  L 11.498614 1.225714  Q 13.24433 1.207143 13.522902 2.748571  Q 15.3429 2.339999 15.3429 0.222857  Q 15.491472 0 15.658616 0  Q 15.844329 0 15.992901 0.39  Q 16.104328 1.17 15.7979 1.912857  Q 15.491472 2.655714 14.674329 3.12  Q 15.491472 3.565714 15.7979 4.317856  Q 16.104328 5.07 16.011473 5.849999  Q 15.844329 6.24 15.658616 6.24  Q 15.491472 6.24 15.3429 6.017142  Q 15.3429 3.9 13.522902 3.491429  Q 13.24433 5.032857 11.498614 4.939999  L 4.515759 4.939999  Z " />
</svg>