<svg xmlns="http://www.w3.org/2000/svg" viewBox="0 -2048 2048 2048">
	<path fill="#000000" d="M974 -1171Q974 -1164 968 -1160Q901 -1114 707 -1021Q961 -949 961 -917Q961 -904 940.5 -867.5Q920 -831 910 -831Q918 -831 787 -882Q901 -767 946 -625Q969 -553 969 -536Q969 -501 879 -501Q851 -501 845 -514Q836 -558 820 -625Q792 -713 740 -785Q741 -767 741 -752Q741 -672 708 -609Q671 -538 604 -517L636 300Q637 324 604 338Q578 350 551 350Q524 350 498 338Q465 324 466 300L498 -517Q431 -538 394 -609Q361 -672 361 -752Q361 -823 376 -875Q284 -837 147 -785Q128 -785 113 -818Q100 -846 100 -868Q100 -881 108 -886Q145 -900 215 -927Q305 -962 399 -1002Q220 -1063 137 -1133Q133 -1136 133 -1143Q133 -1161 156.5 -1191.5Q180 -1222 197 -1222Q198 -1222 203 -1220Q279 -1160 386 -1117Q361 -1179 361 -1269Q361 -1365 407 -1434Q459 -1512 551 -1512Q643 -1512 695 -1434Q741 -1365 741 -1269Q741 -1207 728 -1156Q925 -1256 920 -1256Q930 -1256 952 -1219.5Q974 -1183 974 -1171ZM944 -1176L916 -1225Q826 -1174 717 -1120Q698 -1071 661 -1033L666 -1032Q812 -1102 944 -1176ZM931 -911Q841 -955 670 -1003L653 -995Q688 -968 739 -927Q831 -897 904 -861ZM715 -752Q715 -844 690 -899.5Q665 -955 595 -1010Q665 -1065 691 -1123Q715 -1177 715 -1269Q715 -1354 676 -1415Q631 -1486 551 -1486Q471 -1486 426 -1415Q387 -1354 387 -1269Q387 -1177 412 -1123Q438 -1065 508 -1010Q438 -955 412.5 -899.5Q387 -844 387 -752Q387 -667 426 -606Q471 -535 551 -535Q631 -535 676 -606Q715 -667 715 -752ZM941 -544Q897 -755 724 -905L714 -908Q729 -873 735 -835Q838 -711 869 -532ZM451 -1024Q420 -1053 402 -1084Q280 -1129 198 -1191L163 -1146Q266 -1072 434 -1017ZM442 -988L436 -990Q289 -927 130 -867L150 -813Q260 -855 388 -908Q407 -953 442 -988ZM610 302L578 -511Q564 -509 551 -509Q538 -509 524 -511L492 302Q491 324 551 324Q611 324 610 302ZM678 -1270Q678 -1120 551 -1017Q481 -1073 453 -1126Q424 -1183 424 -1270Q424 -1337 453 -1388Q489 -1449 551 -1449Q613 -1449 649 -1388Q678 -1337 678 -1270ZM678 -752Q678 -685 649 -634Q613 -572 551 -572Q489 -572 453 -633Q424 -685 424 -752Q424 -838 454 -895Q481 -948 551 -1004Q678 -902 678 -752ZM652 -1270Q652 -1325 629 -1369Q601 -1423 551 -1423Q501 -1423 473 -1369Q450 -1325 450 -1270Q450 -1133 551 -1050Q652 -1134 652 -1270ZM652 -752Q652 -887 551 -971Q450 -888 450 -752Q450 -697 473 -652Q501 -598 551 -598Q601 -598 629 -653Q652 -697 652 -752Z"/>
</svg>