<svg xmlns="http://www.w3.org/2000/svg" viewBox="0 -2048 2048 2048">
	<path fill="currentColor" d="M1896 -572Q1896 -562 1882 -544.5Q1868 -527 1858 -527H1425V263H571V-527H138Q128 -527 114 -544.5Q100 -562 100 -572Q308 -1015 334 -1055Q380 -1126 429 -1126Q479 -1126 536 -1025Q612 -890 675 -836Q795 -735 998 -735Q1201 -735 1321 -836Q1384 -890 1460 -1025Q1517 -1126 1567 -1126Q1616 -1126 1662 -1055Q1691 -1010 1896 -572ZM1875 -570Q1861 -599 1768 -794L1684 -969Q1672 -995 1645 -1044Q1603 -1106 1567 -1106Q1528 -1106 1472 -1005Q1399 -874 1328 -816Q1203 -715 998 -715Q793 -715 668 -816Q597 -874 524 -1005Q468 -1106 429 -1106Q393 -1106 351 -1044Q347 -1038 313 -969Q274 -890 228 -794L121 -570Q128 -554 140 -547H1856Q1866 -552 1875 -570ZM1405 243V-527H591V243Z"/>
</svg>