<svg xmlns="http://www.w3.org/2000/svg" viewBox="14.8 -1352.2 2299.3 1478.3">
	<path fill="currentColor" d="M2229 -1115Q2213 -1105 2180 -1085Q2047 -1009 1977 -875Q1970 -848 1954 -796Q1944 -769 1944 -720Q1944 -664 1946 -651Q1979 -512 2042 -234Q2078 -70 2104 27Q2102 41 2088 41H237L226 29Q385 -596 385 -665Q385 -805 355 -879Q306 -1000 100 -1116V-1267H2229ZM2204 -1139V-1242H123V-1139ZM2179 -1112H151Q289 -1022 352 -925Q360 -915 374 -893Q384 -854 406 -779H1924Q1934 -821 1965 -900Q2026 -1003 2179 -1112ZM1920 -673V-753H410V-673ZM2076 15L1924 -649H406L254 15Z"/>
</svg>