<svg xmlns="http://www.w3.org/2000/svg" viewBox="0 -2048 2048 2048">
	<path fill="currentColor" d="M867 -1372Q867 -1304 795 -1304Q722 -1304 722 -1377Q722 -1407 744.5 -1433.5Q767 -1460 800 -1460Q828 -1460 847.5 -1433.5Q867 -1407 867 -1372ZM456 -1397Q456 -1376 432 -1345Q408 -1314 388 -1314Q359 -1314 329.5 -1338.5Q300 -1363 300 -1390Q300 -1418 327 -1444Q354 -1470 381 -1470Q404 -1470 430 -1444Q456 -1418 456 -1397ZM657 -1136Q657 -1113 627 -1085.5Q597 -1058 579 -1058Q546 -1058 522 -1085Q501 -1109 501 -1136Q501 -1166 523 -1195Q545 -1224 576 -1224Q595 -1224 626 -1187.5Q657 -1151 657 -1136ZM1038 -1345Q837 -1215 793 -1090Q779 -1032 745 -915Q738 -895 701 -860Q664 -825 653 -804Q627 -753 627 -690V-157Q627 -68 633 -43Q666 92 726 130Q757 150 862 187Q938 214 938 236Q938 249 924 270Q910 291 899 291H268Q260 291 250 279.5Q240 268 240 259Q240 230 277 208Q330 180 432 120Q476 91 493 42Q516 -24 516 -28V-664Q516 -682 501 -743Q485 -808 475 -824Q448 -844 407 -894Q371 -969 329 -1125Q317 -1171 205 -1266Q100 -1355 100 -1395Q100 -1420 132 -1420Q167 -1420 224 -1385Q339 -1315 398 -1179Q443 -1066 487 -952Q510 -908 579 -908Q624 -908 650 -947Q661 -964 678 -1031Q686 -1065 708 -1122Q728 -1174 774 -1238Q790 -1259 881 -1341Q981 -1430 1000 -1430Q1016 -1430 1038 -1409ZM847 -1372Q847 -1391 829 -1408Q811 -1425 787 -1425Q747 -1425 747 -1375Q747 -1324 797 -1324Q847 -1324 847 -1372ZM431 -1402Q431 -1414 414 -1429.5Q397 -1445 381 -1445Q366 -1445 347 -1430Q326 -1412 326 -1392Q326 -1379 341 -1361Q359 -1339 381 -1339Q391 -1339 411 -1361.5Q431 -1384 431 -1402ZM632 -1136Q632 -1148 611 -1173.5Q590 -1199 571 -1199Q552 -1199 535 -1172Q521 -1150 521 -1136Q521 -1119 542 -1101Q563 -1083 579 -1083Q589 -1083 610.5 -1105Q632 -1127 632 -1136ZM1012 -1356V-1399Q1007 -1399 1000 -1405Q733 -1217 705 -1042Q703 -1035 698 -1022Q693 -992 680 -941Q656 -883 581 -883Q549 -883 510 -902Q465 -924 452 -956Q416 -1059 381 -1162Q326 -1288 224 -1360Q175 -1395 162 -1394H125Q141 -1354 244 -1269Q339 -1190 349 -1131Q352 -1116 382 -1025Q403 -961 410 -945Q434 -891 467 -868Q493 -849 514 -843.5Q535 -838 576 -838Q607 -838 646 -852Q696 -870 710 -899Q732 -945 753 -1045Q768 -1116 850 -1213.5Q932 -1311 1012 -1356ZM912 250V228Q888 212 865 208Q764 189 716 155Q642 102 607 -58L602 -539Q602 -743 631 -822Q593 -818 563 -818Q533 -818 507 -822Q541 -706 541 -629V-43Q541 31 479 100.5Q417 170 322 208Q294 220 266 247V260L272 266H896Z"/>
</svg>