<svg xmlns="http://www.w3.org/2000/svg" viewBox="25.3 -1578.7 1116.4 2016.4">
	<path fill="currentColor" d="M1067 -868Q1067 -820 1025 -820Q1018 -820 951 -868Q884 -916 827 -916Q701 -916 660 -771Q640 -700 640 -558L645 -347Q679 -83 697 -11Q748 193 869 342V363H310L298 348Q444 160 488 -53Q503 -125 509 -192Q533 -457 533 -558Q533 -921 351 -921Q299 -921 237 -884Q175 -847 161 -847H133Q116 -878 116 -892Q116 -925 175 -993Q228 -1052 276 -1085L214 -1210Q155 -1199 169 -1199Q150 -1199 125 -1226.5Q100 -1254 100 -1269Q100 -1296 133 -1319Q161 -1338 175 -1338Q210 -1338 234 -1303Q241 -1292 272 -1224L322 -1114Q354 -1133 410 -1160Q395 -1246 368 -1310Q287 -1306 287 -1378Q287 -1450 340 -1450Q363 -1450 389 -1431Q415 -1412 424 -1390Q439 -1352 453 -1284Q470 -1199 478 -1172Q508 -1177 569 -1198Q576 -1241 587 -1351Q561 -1364 534 -1378Q506 -1397 506 -1426Q506 -1447 530 -1475.5Q554 -1504 578 -1504Q614 -1504 634 -1464Q650 -1434 650 -1405L629 -1198Q645 -1193 675.5 -1185Q706 -1177 722 -1172Q735 -1198 790 -1335Q741 -1364 741 -1400Q741 -1425 760 -1452Q782 -1483 811 -1483Q817 -1483 837 -1471Q862 -1457 867 -1455Q877 -1448 884 -1423Q891 -1398 886 -1386L784 -1160Q812 -1148 872 -1114L955 -1230Q954 -1225 936 -1248Q912 -1278 912 -1311Q912 -1331 940.5 -1356Q969 -1381 985 -1381Q1008 -1381 1027 -1359Q1046 -1337 1046 -1317Q1046 -1238 918 -1085Q959 -1054 1011 -982Q1067 -904 1067 -868ZM1009 -1254Q1039 -1325 1003 -1346Q989 -1354 969 -1346Q951 -1338 943 -1324Q938 -1315 938 -1304Q938 -1256 982 -1235Q953 -1192 901 -1107Q980 -1185 1009 -1254ZM864 -1389Q843 -1456 808 -1456Q782 -1456 768 -1400Q768 -1374 790 -1366Q820 -1355 827 -1346L754 -1167ZM629 -1394Q629 -1477 578 -1477Q559 -1477 545 -1454Q533 -1436 533 -1424Q533 -1396 566 -1388Q593 -1382 619 -1377Q605 -1295 599 -1194Q629 -1374 629 -1394ZM446 -1167Q433 -1242 397 -1385Q393 -1397 372.5 -1410.5Q352 -1424 343 -1424Q314 -1424 314 -1381Q314 -1333 359 -1333Q376 -1333 386 -1344Q401 -1324 417 -1258Q435 -1188 446 -1167ZM295 -1099Q270 -1192 228 -1265Q201 -1311 167 -1311Q158 -1311 151 -1307Q137 -1299 135 -1278Q132 -1259 140 -1245Q151 -1225 175 -1225Q199 -1225 221 -1240Q242 -1189 295 -1099ZM1041 -859V-882Q1041 -915 969 -1000Q932 -1043 879 -1079Q784 -1142 696 -1160Q661 -1167 608 -1167Q521 -1167 454 -1144Q262 -1078 177 -963Q143 -917 143 -892Q143 -880 150 -873Q163 -878 254 -920Q314 -948 348 -948Q457 -948 505 -850Q535 -789 550 -656Q560 -566 560 -571Q560 -427 542 -224Q535 -150 509 -26Q471 152 335 339H831V328Q618 78 618 -515Q618 -615 630 -742Q636 -808 684 -871Q739 -943 808 -943Q894 -943 1027 -846Z"/>
</svg>