<svg xmlns="http://www.w3.org/2000/svg" viewBox="32.4 -1270.6 1825.2 1606.2">
	<path fill="currentColor" d="M1790 -652Q1783 -652 1772.5 -654Q1762 -656 1756 -656Q1667 -656 1636 -579V-566Q1652 -559 1683 -562V-489H1641L1767 268H1675L1549 -348H341L220 268H123L249 -485Q232 -491 207 -489Q212 -524 211 -557Q224 -564 245 -563Q248 -566 248 -575Q248 -656 141 -656Q112 -656 100 -652V-763Q157 -756 207 -762Q156 -807 150 -818Q146 -825 146 -864Q146 -909 145 -906Q150 -933 180 -969Q191 -982 222 -995Q249 -1007 260 -1007Q323 -1007 363 -964.5Q403 -922 403 -862Q403 -843 385 -805Q365 -763 347 -761Q351 -757 520 -762Q516 -763 507 -765Q469 -800 463 -815Q459 -823 459 -860Q459 -917 494.5 -957.5Q530 -998 587 -998Q641 -998 676 -960.5Q711 -923 711 -876Q711 -847 695 -812Q678 -772 655 -761Q659 -757 823 -762Q794 -763 776 -814Q763 -852 763 -883Q763 -920 806 -969Q835 -1002 882 -1002Q938 -1002 976.5 -963.5Q1015 -925 1015 -869Q1015 -799 964 -761Q968 -757 1118 -762Q1105 -770 1086 -793Q1062 -852 1062 -892Q1062 -901 1078 -930Q1094 -959 1109 -972Q1144 -1002 1188 -1002Q1241 -1002 1280 -964Q1319 -926 1319 -876Q1319 -808 1267 -762Q1263 -759 1274 -759Q1303 -759 1372 -832Q1435 -901 1443 -926Q1456 -999 1502 -1150Q1525 -1203 1581 -1203Q1600 -1203 1634 -1184Q1660 -1084 1659 -1057V-761H1790ZM1637 -913Q1637 -1082 1616 -1168Q1595 -1180 1576 -1180Q1557 -1180 1553 -1178Q1539 -1165 1521 -1141Q1500 -1059 1462 -921Q1452 -887 1408 -835Q1362 -779 1324 -761H1635Q1637 -736 1637 -913ZM1300 -881Q1300 -919 1259 -950Q1222 -979 1183 -979Q1143 -979 1114 -942.5Q1085 -906 1085 -874Q1085 -825 1115 -792Q1145 -759 1197 -759Q1240 -759 1270 -797Q1300 -835 1300 -881ZM992 -867Q992 -979 889 -979Q852 -979 819 -944Q786 -909 786 -874Q786 -764 893 -764Q992 -764 992 -867ZM1767 -676V-735H118V-676ZM1665 -650H239Q242 -645 273 -563H1613Q1615 -603 1665 -650ZM1659 -507V-539H230V-507ZM688 -874Q688 -917 658.5 -945.5Q629 -974 585 -974Q482 -974 482 -860Q482 -824 484 -821Q501 -792 516 -784Q565 -759 601 -759Q636 -759 663 -800Q688 -837 688 -874ZM379 -864Q379 -914 347.5 -949Q316 -984 265 -984Q217 -984 190 -939Q169 -903 169 -864Q169 -828 170 -826Q190 -784 245 -765Q248 -764 274 -764Q315 -764 345 -789Q379 -818 379 -864ZM1744 250L1612 -488H268L151 250H206L327 -372H1558L1694 250Z"/>
</svg>