<svg xmlns="http://www.w3.org/2000/svg" viewBox="0 -2048 2048 2048">
	<path fill="#000000" d="M1856 279H1837V4H382V279H361V-1219Q361 -1231 329 -1267Q300 -1300 293 -1304Q266 -1320 240 -1320Q209 -1320 164 -1284.5Q119 -1249 119 -1220V-144H100V-1233Q100 -1251 140 -1290Q177 -1327 194 -1333Q227 -1345 237 -1345Q260 -1345 300 -1328Q310 -1324 345 -1284Q380 -1244 380 -1230V-467H651Q557 -533 557 -619Q557 -689 641 -767Q631 -787 631 -793Q631 -812 652 -827H841Q847 -814 854 -791Q853 -781 842 -762Q921 -713 921 -606Q921 -563 907 -540.5Q893 -518 833 -467Q852 -464 941 -464Q1034 -464 1052 -470Q1110 -488 1133 -570L1030 -1170Q1035 -1233 1066 -1280Q1079 -1300 1101 -1308Q1127 -1318 1133 -1323Q1124 -1366 1110 -1387Q1110 -1387 1055 -1399Q1055 -1402 1057.5 -1417Q1060 -1432 1060 -1437H1270V-1389Q1253 -1393 1240 -1393Q1208 -1393 1197 -1367Q1192 -1343 1187 -1319Q1288 -1288 1288 -1194Q1288 -1185 1286 -1175L1207 -550Q1215 -459 1354 -459Q1432 -459 1466 -477Q1510 -501 1527 -572L1423 -1172Q1418 -1210 1446 -1259Q1479 -1317 1527 -1319Q1526 -1329 1511 -1385Q1503 -1387 1449 -1399Q1449 -1404 1451.5 -1418Q1454 -1432 1454 -1437H1664V-1389Q1649 -1395 1636 -1395Q1607 -1395 1593 -1368Q1581 -1346 1585 -1319Q1637 -1305 1665 -1250Q1689 -1203 1684 -1160L1601 -574Q1607 -497 1660 -473Q1693 -459 1778 -459Q1782 -459 1812 -459Q1842 -458 1856 -458ZM1580 -1388H1537Q1537 -1388 1554 -1320Q1562 -1344 1580 -1388ZM1182 -1388H1138Q1151 -1337 1160 -1320Q1170 -1340 1182 -1388ZM1660 -1172Q1653 -1295 1554 -1295Q1502 -1295 1474 -1255.5Q1446 -1216 1448 -1157L1546 -569Q1549 -547 1532 -513Q1515 -479 1492 -465H1625Q1579 -488 1579 -556Q1579 -564 1581 -569ZM1266 -1175Q1268 -1295 1155 -1295Q1053 -1295 1054 -1167L1158 -562Q1147 -499 1099 -465H1231Q1182 -511 1187 -569ZM1836 -21V-438H1646V-21ZM1624 -21V-438H1424V-21ZM1403 -21V-438H1208V-21ZM827 -774V-802H657Q651 -790 667 -774Q706 -789 747 -789Q782 -789 827 -774ZM897 -614Q897 -678 851.5 -723.5Q806 -769 742 -769Q682 -769 632 -723.5Q582 -678 582 -619Q582 -556 632 -510Q682 -464 747 -464Q794 -464 864 -518Q873 -525 886 -564Q897 -600 897 -614ZM1181 -21V-438H996V-21ZM970 -21V-438H784V-21ZM758 -21V-438H563V-21ZM537 -21V-438H381V-21Z"/>
</svg>