<svg xmlns="http://www.w3.org/2000/svg" viewBox="0 -2048 2048 2048">
	<path fill="currentColor" d="M1807 -912Q1753 -915 1704 -923Q1697 -882 1676 -801Q1646 -715 1598 -591H1415Q1333 -765 1314 -921Q1301 -923 1294 -923Q1281 -923 1256 -916Q1231 -909 1219 -909Q1205 -909 1205 -925V-1052Q1244 -1046 1322 -1031Q1337 -1080 1359 -1102Q1379 -1120 1430 -1139V-1183H1336Q1334 -1191 1321 -1206Q1313 -1215 1313 -1246Q1340 -1264 1348 -1264H1663Q1667 -1264 1699 -1243Q1695 -1226 1689.5 -1208.5Q1684 -1191 1668 -1183H1582Q1584 -1173 1584 -1139Q1677 -1109 1690 -1034L1807 -1046ZM1807 375H1615V137H291V375H100V-438H801Q801 -439 800 -441Q800 -453 856.5 -508Q913 -563 913 -628Q913 -630 900 -694L802 -1178Q775 -1192 747 -1207Q729 -1218 729 -1267Q729 -1286 721 -1291Q709 -1296 697 -1301V-1351Q709 -1358 729 -1358Q735 -1358 740 -1356Q773 -1343 783 -1307.5Q793 -1272 810 -1266Q812 -1271 815 -1282Q827 -1316 908 -1340L909 -1341Q913 -1363 913 -1368Q913 -1406 894 -1435H803Q784 -1464 784 -1475Q784 -1510 819 -1510H1079Q1114 -1510 1114 -1475Q1114 -1458 1088 -1435H1002Q985 -1400 985 -1353Q985 -1345 988 -1341Q1096 -1326 1096 -1201Q1096 -1139 1074 -1050Q1055 -976 1036 -902Q985 -683 985 -628Q985 -544 1094 -458L1096 -439H1807ZM697 -988Q697 -987 695 -908Q615 -924 591 -924Q588 -915 586 -902Q560 -750 486 -591H302Q272 -673 243 -755Q210 -855 205 -923Q177 -921 107 -908Q100 -916 100 -967Q100 -1003 101 -1046Q138 -1042 213 -1032L214 -1034Q236 -1113 320 -1139V-1183H234Q222 -1197 206 -1207V-1243Q237 -1264 244 -1264H559Q591 -1264 591 -1228Q591 -1210 566 -1183H475Q477 -1172 477 -1137Q511 -1136 545 -1100Q575 -1068 586 -1032Q621 -1038 689 -1052Q697 -1045 697 -988ZM1675 -1231Q1663 -1242 1657 -1242H1351Q1343 -1242 1336 -1233Q1336 -1225 1348 -1209H1662Q1675 -1230 1675 -1231ZM1782 -936V-1021L1697 -1011Q1705 -979 1704 -946Q1730 -942 1782 -936ZM1088 -1474L1082 -1484H818Q810 -1484 810 -1474Q810 -1468 814 -1460H1084Q1088 -1468 1088 -1474ZM1678 -954Q1678 -1113 1570 -1117L1559 -1128Q1558 -1159 1558 -1183H1455Q1455 -1178 1456 -1167Q1456 -1157 1456 -1152Q1456 -1129 1447 -1116Q1384 -1116 1356 -1061Q1330 -1010 1330 -976Q1330 -894 1362 -787Q1378 -734 1427 -616H1586Q1616 -699 1646 -782Q1678 -880 1678 -954ZM977 -1434H919Q936 -1390 936 -1368Q936 -1361 932 -1344H964Q963 -1355 963 -1363Q963 -1392 977 -1434ZM1317 -1012L1231 -1025V-937Q1235 -937 1310 -945Q1308 -978 1308 -969Q1308 -981 1317 -1012ZM807 -1246Q774 -1254 763 -1293Q752 -1332 737 -1332H723V-1313Q737 -1310 744 -1302Q748 -1292 752 -1271Q756 -1250 759 -1228Q763 -1222 799 -1207Q802 -1220 807 -1246ZM1073 -1180Q1073 -1320 978 -1321H947Q900 -1322 868 -1300Q856 -1293 837 -1277Q834 -1272 827.5 -1238Q821 -1204 822 -1198L936 -630Q936 -629 936 -625Q936 -593 916 -547Q905 -522 828 -451V-438H1070V-447Q962 -541 962 -628Q962 -688 982 -774Q1000 -845 1018 -917Q1042 -1019 1056 -1083Q1073 -1160 1073 -1180ZM565 -1225V-1230Q565 -1242 554 -1242H247Q245 -1242 232 -1233V-1215Q235 -1213 240 -1209H559Q565 -1219 565 -1225ZM673 -936V-1024L593 -1011Q592 -1009 591 -1005Q591 -1016 594 -946Q620 -942 673 -936ZM1613 -52V-231H1272ZM1572 -44L1221 -231H1074L1431 -44ZM1373 -45L1030 -227V-45ZM571 -957Q571 -1103 461 -1117L452 -1126Q451 -1158 451 -1183H346Q346 -1178 347 -1167Q347 -1157 347 -1152Q347 -1131 337 -1116Q335 -1117 332 -1117Q282 -1117 249 -1066Q247 -1062 231 -1003Q223 -972 223 -971Q223 -899 256 -791Q285 -704 315 -616H474Q543 -776 568 -934Q571 -953 571 -957ZM209 -1011L124 -1021V-936L203 -946Q203 -951 202 -962Q201 -973 201 -978Q201 -988 209 -1011ZM1003 -44V-231H898V-44ZM1783 350V-415H124V350H264V-257H1640V350ZM1613 110V-18H291V110ZM871 -45V-221L534 -45ZM836 -231H686L332 -44H479ZM632 -231H291V-49Z"/>
</svg>