<svg xmlns="http://www.w3.org/2000/svg" viewBox="0 -2048 2048 2048">
	<path fill="#000000" d="M1029 331H406Q406 330 403.5 320Q401 310 401 304Q401 191 587 102L421 -140Q485 -172 484 -172Q491 -172 546 -92Q621 18 641 45V-1013Q439 -1082 285 -1082Q210 -1082 100 -1063V-1383Q109 -1384 265 -1384Q432 -1384 551.5 -1409Q671 -1434 695 -1434Q710 -1434 732 -1423L736 60Q887 -152 891 -152Q897 -152 919 -137Q946 -118 954 -114L803 92Q835 105 882 127Q911 140 967 204Q1029 272 1029 303ZM641 -1042V-1403Q518 -1381 327 -1358H125V-1093L295 -1107Q416 -1107 641 -1042ZM707 84V-1408H664V84ZM919 -104Q902 -121 890 -121L748 89H777ZM637 89L479 -141Q456 -130 456 -123L612 95Q621 89 637 89ZM1004 305Q925 110 692 110Q643 110 634 112Q593 121 548 147Q527 159 482 201Q426 255 426 279V305Z"/>
</svg>