<svg xmlns="http://www.w3.org/2000/svg" viewBox="0 -2048 2048 2048">
	<path fill="currentColor" d="M734 252H100Q106 208 146 200Q202 189 282 124Q370 53 388 -9Q418 -113 421 -211Q429 -218 502 -221Q521 -222 533 -226Q408 -342 150 -602Q140 -613 127 -660Q114 -704 114 -722Q114 -779 160 -822Q204 -862 259 -862Q315 -862 362 -821Q409 -780 409 -725Q409 -689 378 -652.5Q347 -616 309 -616Q276 -616 254 -639Q232 -662 232 -690Q232 -750 290 -759Q291 -755 296 -747Q287 -739 271 -723Q252 -704 252 -685Q252 -641 301 -641Q336 -641 360.5 -667.5Q385 -694 385 -725Q385 -777 344 -810Q309 -838 267 -838Q218 -838 180 -805Q139 -769 139 -717Q139 -649 169 -615Q232 -544 556 -237V-1114Q376 -1167 274 -1167Q184 -1167 111 -1153V-1423H337Q343 -1423 465.5 -1443Q588 -1463 594 -1463Q599 -1463 613 -1460Q627 -1457 635 -1457V-224Q686 -220 734 -224ZM556 -1138V-1433Q401 -1400 342 -1398H134V-1193Q146 -1184 185 -1187Q253 -1192 252 -1192Q394 -1192 556 -1138ZM615 -223V-1437H582V-223ZM709 229V-197H445Q450 -83 391 28Q322 156 199 203Q174 213 129 229Z"/>
</svg>