<svg xmlns="http://www.w3.org/2000/svg" viewBox="29.2 -1509.8 1266.5 1910.5">
	<path fill="currentColor" d="M1225 -1233Q1225 -1227 1199.5 -1128Q1174 -1029 1174 -1023L1199 -751L1204 -557Q1204 -504 1181 -431Q1148 -330 1095 -330H815Q821 -230 848 -65Q859 4 895 162Q927 304 927 308V330H353Q375 246 417 35Q473 -240 473 -313V-330H254Q227 -330 192 -360Q159 -387 147 -412Q120 -469 120 -658Q120 -773 140 -896.5Q160 -1020 160 -1028Q160 -1034 148 -1060Q134 -1092 131 -1103Q100 -1206 100 -1230Q100 -1250 106 -1286Q110 -1310 142 -1365Q180 -1429 206 -1429Q220 -1429 231 -1418V-1401Q231 -1399 213 -1354Q193 -1304 187 -1279Q181 -1254 181 -1235Q181 -1208 191 -1171Q205 -1122 226 -1122Q236 -1122 244 -1135Q250 -1171 263 -1241Q267 -1263 298 -1277H331Q329 -1264 325 -1240Q318 -1209 318 -1210Q319 -1204 325.5 -1186.5Q332 -1169 332 -1162Q332 -1156 306 -1107Q276 -1050 267 -1027Q266 -1024 266 -1006L286 -781V-659Q286 -653 281 -606.5Q276 -560 276 -554Q276 -492 294 -486H479Q488 -500 488 -516Q488 -596 475 -625Q470 -651 451 -704Q441 -723 412 -737Q393 -746 373 -755V-818Q423 -811 474 -818Q472 -846 438 -888Q404 -930 373 -936V-990H465Q468 -993 468 -1003Q468 -1079 373 -1108V-1172H469Q473 -1168 473 -1180Q473 -1274 378 -1294Q378 -1296 377 -1358H542Q545 -1375 545 -1398Q545 -1420 542 -1439H745V-1360H906V-1299Q887 -1291 850 -1261Q801 -1221 801 -1195V-1174Q825 -1171 852 -1171Q879 -1171 906 -1174V-1123Q884 -1110 840 -1080Q802 -1049 795 -995Q850 -987 906 -994V-936Q874 -927 838 -893Q797 -854 795 -818Q847 -811 906 -818V-755Q885 -744 865 -733Q836 -717 822 -694Q799 -656 796 -504V-482H1029Q1052 -507 1052 -543Q1052 -557 1047.5 -583Q1043 -609 1043 -620V-745Q1043 -751 1050.5 -873Q1058 -995 1058 -1001Q1058 -1007 1037 -1052Q1012 -1108 1003.5 -1129.5Q995 -1151 1003 -1210Q1004 -1218 998.5 -1234Q993 -1250 993 -1255Q993 -1278 1020 -1278Q1053 -1278 1062 -1221Q1063 -1191 1064 -1161Q1078 -1132 1096 -1122Q1144 -1150 1144 -1238Q1144 -1269 1142 -1275Q1134 -1297 1106 -1357Q1083 -1407 1083 -1414Q1083 -1426 1096 -1430.5Q1109 -1435 1122 -1439Q1145 -1412 1182 -1357Q1225 -1276 1225 -1233ZM725 -1359V-1413H565V-1359ZM881 -1309V-1333H398V-1314Q422 -1301 446 -1288Q472 -1270 481 -1244Q488 -1222 499 -1173H775Q772 -1206 807 -1252Q842 -1298 881 -1309ZM881 -1133V-1151H398V-1122Q413 -1122 441 -1102.5Q469 -1083 476 -1068Q485 -1049 494 -991H775Q778 -1080 881 -1133ZM1199 -1228Q1199 -1258 1169 -1320.5Q1139 -1383 1114 -1396Q1169 -1275 1169 -1238Q1169 -1197 1153 -1152Q1132 -1096 1099 -1096Q1084 -1096 1073 -1107Q1047 -1133 1039 -1160Q1039 -1181 1039 -1203Q1037 -1241 1018 -1252V-1165Q1018 -1158 1041 -1106Q1070 -1042 1077 -1022Q1078 -1019 1078 -985L1063 -807V-651Q1063 -652 1067 -614Q1071 -576 1071 -548Q1071 -456 1030 -456H698Q692 -456 676.5 -446Q661 -436 655 -436Q648 -436 632 -448.5Q616 -461 611 -461H300Q251 -461 251 -562Q251 -581 258.5 -632Q266 -683 266 -712Q266 -730 264 -746Q246 -864 246 -990Q246 -1040 247 -1043Q255 -1066 283 -1118Q307 -1164 307 -1167Q307 -1161 289 -1233Q279 -1183 283 -1155Q256 -1096 218 -1096Q191 -1096 174 -1155Q160 -1200 160 -1235Q160 -1273 199 -1399Q125 -1313 125 -1233Q125 -1189 157 -1103Q186 -1025 186 -1031Q186 -1033 163 -897.5Q140 -762 140 -690Q140 -532 162 -438Q165 -426 194 -392Q227 -355 244 -355H1095Q1125 -355 1162 -437Q1179 -474 1179 -597L1149 -1018Q1149 -1024 1174 -1123Q1199 -1222 1199 -1228ZM881 -951V-970H398V-946Q439 -937 468 -889Q494 -848 494 -815H775Q777 -854 807.5 -894Q838 -934 881 -951ZM881 -764V-788H398V-770Q477 -739 498 -642Q499 -637 509 -487Q588 -488 611 -484Q619 -482 635.5 -471.5Q652 -461 657 -461Q664 -461 679 -469.5Q694 -478 698 -479Q729 -483 775 -482V-656Q775 -683 817 -726.5Q859 -770 881 -764ZM901 305Q818 -31 790 -329H494Q472 -117 421 131Q384 311 383 289V305Z"/>
</svg>