<svg xmlns="http://www.w3.org/2000/svg" viewBox="0 -2048 2048 2048">
	<path fill="currentColor" d="M1948 -1304H1248Q1343 -1184 1343 -1104Q1343 -1022 1275.5 -962Q1208 -902 1125 -902Q1072 -902 1004 -934V-598Q1089 -593 1199 -549Q1292 -510 1385 -470Q1426 -454 1498 -454Q1535 -454 1608.5 -458Q1682 -462 1719 -462Q1789 -462 1875 -453Q1885 -435 1885 -425Q1885 -398 1766 -375Q1669 -356 1617 -356Q1541 -356 1095 -395Q1061 -398 1046 -398Q1027 -398 1004 -394V353H900V-374Q776 -351 699 -351Q588 -351 542 -382Q522 -395 433 -497Q416 -517 383 -529Q369 -529 341 -524Q313 -519 298 -519Q260 -519 216 -542Q164 -569 164 -603Q167 -611 173 -624Q206 -686 274 -701L165 -800V-813Q165 -828 192 -843Q224 -828 345 -717L459 -845L480 -847Q501 -828 502 -806L415 -705Q458 -693 528 -602Q594 -515 620 -515Q673 -515 758 -544Q873 -584 900 -590V-1001Q844 -1044 727 -1154Q618 -1257 551 -1304H100V-1422H1948ZM1317 -1104Q1317 -1177 1215 -1304H1138Q1274 -1193 1310 -1050Q1317 -1090 1317 -1104ZM1922 -1330V-1396H126V-1330ZM1284 -1035Q1273 -1174 1092 -1304H1004V-1043Q1097 -991 1165 -991Q1220 -991 1284 -1035ZM978 -1059V-1304H926V-1095Q958 -1072 978 -1059ZM1280 -996Q1200 -965 1165 -965Q988 -965 652 -1304H595Q721 -1191 847 -1077Q1025 -928 1125 -928Q1186 -928 1280 -996ZM900 -1113V-1304H689Q809 -1185 900 -1113ZM978 -599V-949Q962 -958 926 -983V-595Q951 -599 977 -599ZM1856 -428Q1778 -436 1706 -436Q1671 -436 1600 -431Q1529 -426 1494 -426Q1401 -426 1234 -500Q1067 -574 973 -574Q911 -574 796.5 -532.5Q682 -491 620 -491Q576 -491 538 -542Q469 -633 466 -636Q414 -687 336 -687Q298 -687 248 -663Q191 -634 191 -601Q191 -580 235 -560Q274 -542 299 -542Q314 -542 344 -548Q374 -554 389 -554Q418 -554 467 -495Q529 -419 537 -413Q584 -377 704 -377Q764 -377 879 -402Q994 -427 1046 -427Q1141 -427 1331 -405Q1521 -383 1616 -383Q1664 -383 1741 -395Q1833 -409 1856 -428ZM473 -816L470 -819L375 -712L386 -711ZM316 -709Q278 -748 194 -812L193 -809L304 -707ZM978 327V-389L969 -387L926 -379V327ZM354 -646L330 -628Q302 -628 300 -644Q305 -656 325 -676Q354 -663 354 -646Z"/>
</svg>