<svg xmlns="http://www.w3.org/2000/svg" viewBox="26.1 -1261.9 1995.8 1688.8">
	<path fill="currentColor" d="M1948 353H100V275H1165V-315L700 -794H629L586 -660H327L293 -794Q206 -817 153 -888.5Q100 -960 100 -1051Q100 -1099 135.5 -1143.5Q171 -1188 218 -1188Q269 -1188 302 -1157Q335 -1126 335 -1075Q335 -1062 312.5 -1014Q290 -966 290 -956Q290 -935 304 -905Q321 -872 338 -872H1948V-794H1243V275H1282Q1411 187 1492 102Q1562 28 1656 -114Q1727 -221 1800 -221Q1863 -221 1905.5 -180.5Q1948 -140 1948 -77ZM1922 -820V-846H338Q308 -846 284 -887Q264 -923 264 -956Q264 -974 286.5 -1019Q309 -1064 309 -1075Q309 -1162 218 -1162Q182 -1162 154 -1125Q126 -1088 126 -1051Q126 -900 256 -836Q288 -820 298 -820ZM1165 -441V-794H822ZM1922 275V-77Q1922 -129 1887 -162Q1852 -195 1800 -195Q1741 -195 1679 -99Q1513 157 1331 275ZM1165 -352V-403L786 -794H736ZM1217 275V-794H1191V275ZM602 -794H320L347 -686H567ZM1922 327V301H126V327Z"/>
</svg>