<svg xmlns="http://www.w3.org/2000/svg" viewBox="0 -2048 2048 2048">
	<path fill="#000000" d="M1591 -198Q1591 -152 1518 -97Q1459 -52 1406 -35Q1099 64 832 64Q703 64 551 41Q342 9 214 -149Q100 -289 100 -455Q100 -625 221 -756Q346 -892 519 -892Q605 -892 707 -842Q827 -783 845 -699Q712 -668 662 -636Q586 -587 586 -490Q586 -433 646 -362Q723 -271 862 -241Q948 -222 1113 -222Q1188 -222 1237 -226Q1519 -249 1483 -249Q1499 -249 1541 -233Q1591 -215 1591 -198ZM1559 -182Q1559 -222 1478 -222L1124 -195Q913 -195 779 -245Q689 -279 626 -346Q559 -418 559 -493Q559 -659 813 -716Q765 -780 670 -827Q582 -871 521 -871Q360 -871 241 -740Q127 -614 127 -457Q127 -376 156 -300Q170 -272 190 -224Q233 -86 465 -12Q637 42 810 42Q1151 42 1460 -86Q1559 -127 1559 -182Z"/>
</svg>