<svg xmlns="http://www.w3.org/2000/svg" viewBox="0 -2048 2048 2048">
	<path fill="currentColor" d="M917 305H100V120Q100 90 116 58Q135 20 165 20Q204 20 265.5 91.5Q327 163 338 163Q348 163 393 115Q461 42 466 37V-645Q430 -646 329 -646Q323 -646 323 -658Q323 -664 331.5 -681.5Q340 -699 341 -704Q364 -806 542 -857L333 -1384Q336 -1405 361 -1445Q407 -1468 437 -1468Q476 -1468 506 -1447Q536 -1426 536 -1392Q536 -1355 496 -1313L740 -1028Q670 -975 656 -961Q604 -913 597 -871V-857Q624 -847 672 -826Q699 -811 748 -767Q810 -710 810 -679V-642H650V-275H580V-641H537V37Q567 70 597 103Q652 163 671 163Q688 163 751 91.5Q814 20 839 20Q867 20 892 47Q917 74 917 104ZM704 -1033L465 -1313Q478 -1329 492 -1346Q511 -1370 511 -1392Q511 -1419 480 -1435Q455 -1448 427 -1448Q403 -1448 380 -1426Q357 -1404 353 -1376L563 -859L573 -865Q578 -898 598 -941Q608 -963 648 -993Q676 -1013 704 -1033ZM785 -667Q766 -733 686 -786Q616 -833 567 -833Q424 -833 349 -667ZM627 -300V-639H608V-300ZM511 25V-639H491V25ZM897 188Q897 41 839 41Q827 41 766.5 112Q706 183 673 183Q628 183 578 114.5Q528 46 503 46Q485 46 435 102Q410 132 385 162Q356 188 341 188Q312 188 253 116.5Q194 45 169 45Q165 45 161 46Q129 86 126 119Q120 181 120 193Q120 284 120 284H891Q897 250 897 188Z"/>
</svg>