<svg xmlns="http://www.w3.org/2000/svg" viewBox="0 -2048 2048 2048">
	<path fill="#000000" d="M818 -1373Q818 -1353 672 -1089Q570 -904 468 -719H792V295H712V-257L319 -630H100V-715H419Q438 -751 438 -771Q438 -815 375 -896Q331 -949 287 -1002L641 -1315Q610 -1370 610 -1383Q610 -1420 644 -1449.5Q678 -1479 711 -1479Q757 -1479 789 -1442Q818 -1410 818 -1373ZM792 -1378Q792 -1454 719 -1454Q693 -1454 668 -1437Q636 -1417 636 -1383Q636 -1365 676 -1315L322 -997Q469 -835 465 -761Q473 -777 655 -1107Q792 -1355 792 -1378ZM710 -377V-629H449ZM710 -301V-345L411 -629H368ZM771 269V-690H126V-653H737V269Z"/>
</svg>