<svg xmlns="http://www.w3.org/2000/svg" viewBox="0 0 444 1000">
  <g transform="scale(1,-1) translate(0,-1000)">
    <path d="M0 498Q0 722 139 855Q128 976 128 979Q128 987 134.0 993.0Q140 999 148 999H296Q304 999 310.0 993.0Q316 987 316 979Q316 975 305 855Q444 713 444 498Q444 286 305 144Q316 24 316 20Q316 12 310.0 6.0Q304 0 296 0H148Q140 0 134.0 6.0Q128 12 128 20Q128 24 139 144Q0 286 0 498ZM404 517Q398 703 276 827H168Q49 713 41 517ZM276 172Q398 296 404 477H40Q43 371 78.0 300.0Q113 229 168 172ZM266 132H178Q178 125 175.0 95.5Q172 66 170 40H274Q272 66 269.0 95.5Q266 125 266 132ZM266 867Q266 874 269.0 903.5Q272 933 274 959H170Q172 933 175.0 903.5Q178 874 178 867Z" fill="currentColor"/>
  </g>
</svg>