<svg xmlns="http://www.w3.org/2000/svg" viewBox="28.1 -1532.9 1769.8 1941.8">
	<path fill="currentColor" d="M1726 -1062Q1668 -1003 1461 -1003L994 -1034Q990 -1030 990 -1019Q990 -974 1025 -859Q1029 -861 1131 -948Q1189 -998 1222 -998Q1237 -998 1257.5 -984.5Q1278 -971 1278 -960V-665H902V192Q905 195 916 195Q1007 195 1092 90Q1169 -6 1184 -107Q1229 -180 1276 -180Q1314 -180 1340 -128Q1360 -86 1360 -55V337H337V-23Q336 -175 412 -175Q460 -175 490 -118Q509 -72 528 -25Q542 6 585 78Q631 142 690 166Q775 201 793 201H820V-663H441Q440 -656 440 -777Q440 -881 452 -955Q454 -968 473 -980.5Q492 -993 502 -993Q520 -993 605 -932Q652 -898 699 -864Q706 -907 723 -996L719 -1004Q697 -1004 648 -998.5Q599 -993 597 -993Q514 -993 476 -1010.5Q438 -1028 378 -1100Q325 -1163 299 -1163Q293 -1163 268.5 -1160.5Q244 -1158 237 -1158Q192 -1158 153 -1173Q100 -1192 100 -1230Q100 -1259 142 -1294Q179 -1325 199 -1326Q196 -1333 146 -1376Q100 -1416 100 -1430Q100 -1443 118 -1461Q133 -1451 268 -1343Q282 -1355 338 -1414Q382 -1461 389 -1461Q405 -1461 414 -1428Q414 -1422 337 -1330Q352 -1320 382 -1299Q399 -1287 434 -1234Q468 -1185 511 -1159Q521 -1153 551 -1153Q599 -1153 744 -1200Q750 -1226 766 -1275Q777 -1298 811 -1320.5Q845 -1343 867 -1343Q905 -1343 935 -1282Q967 -1215 968 -1215Q1231 -1099 1435 -1096L1714 -1091Q1717 -1082 1726 -1062ZM933 -1226Q921 -1255 908 -1284Q890 -1317 864 -1317Q837 -1317 808.5 -1286.5Q780 -1256 780 -1232V-1210Q808 -1224 857 -1225Q895 -1226 933 -1226ZM1695 -1069H1369Q1282 -1070 1109.5 -1137Q937 -1204 874 -1204L530 -1127Q486 -1127 418 -1219.5Q350 -1312 296 -1312Q143 -1312 126 -1215Q201 -1178 239 -1178Q246 -1178 275.5 -1183.5Q305 -1189 311 -1189Q336 -1189 402 -1109.5Q468 -1030 504 -1025Q552 -1019 587 -1019Q647 -1019 775 -1042Q903 -1065 918 -1065L1451 -1024Q1473 -1024 1564 -1039Q1664 -1056 1695 -1069ZM1001 -846L959 -1039H886Q855 -1040 751 -1013Q723 -896 723 -872V-845Q806 -808 875 -808Q955 -808 1001 -846ZM390 -1426L383 -1431L308 -1346L315 -1341ZM1257 -690V-945Q1239 -973 1219 -973Q1202 -973 1087 -877.5Q972 -782 877 -782Q800 -782 710 -830Q654 -860 576 -919Q513 -967 504 -967Q464 -967 466 -887V-690ZM226 -1341L135 -1428L128 -1423L219 -1336ZM871 199V-663H847V205Q850 205 859 202Q868 199 871 199ZM1339 313V-24Q1343 -54 1325 -101Q1305 -155 1278 -155Q1265 -155 1237.5 -132.5Q1210 -110 1208 -101Q1199 -58 1174 16Q1065 226 857 226Q604 226 513 11Q495 -44 463 -128Q449 -155 414 -155Q388 -155 374 -121Q362 -93 363 -64V313ZM275 -1285Q275 -1278 253 -1256Q236 -1256 224 -1279Q237 -1302 252 -1302Q258 -1302 275 -1285Z"/>
</svg>