<svg xmlns="http://www.w3.org/2000/svg" viewBox="0 -2048 2048 2048">
	<path fill="currentColor" d="M1871 -19Q1743 35 1607 35L1021 -8V326H921V8Q831 8 727.5 24Q624 40 594 40Q510 40 442 -25Q438 -28 386 -100Q358 -138 317 -138Q311 -138 282.5 -135.5Q254 -133 246 -133Q205 -133 160 -151Q100 -175 100 -216Q100 -264 210 -319Q105 -424 105 -428Q105 -444 123 -462Q178 -424 291 -331Q302 -342 364 -415Q408 -467 414 -467Q445 -467 445 -436Q445 -422 361 -324Q393 -302 448 -246Q529 -126 578 -126Q583 -126 588 -127L921 -215Q921 -223 917 -225Q886 -231 828 -249Q764 -277 764 -355Q764 -394 816 -553Q850 -655 884 -757H497V-1054Q497 -1080 573 -1115Q599 -1115 645 -1078Q642 -1183 727 -1183Q783 -1183 808 -1136Q818 -1232 854 -1426Q859 -1447 901 -1477Q943 -1507 962 -1507Q972 -1507 1003 -1491Q1034 -1475 1048 -1459Q1075 -1428 1089 -1327Q1097 -1262 1122 -1156Q1151 -1183 1194 -1183Q1232 -1183 1247 -1167Q1265 -1148 1279 -1083Q1329 -1125 1369 -1125Q1393 -1125 1414 -1103Q1432 -1083 1432 -1066V-760H1060Q1056 -756 1056 -749Q1056 -757 1085 -674Q1112 -600 1139 -526Q1176 -416 1176 -360Q1176 -295 1136 -265Q1105 -240 1019 -222V-205Q1083 -185 1309 -99Q1412 -60 1511 -60L1706 -70Q1755 -70 1865 -59Q1865 -58 1868 -44.5Q1871 -31 1871 -19ZM1255 -1096Q1255 -1157 1192 -1157Q1134 -1157 1134 -1104Q1134 -1047 1189 -1047Q1255 -1047 1255 -1096ZM1202 -1019Q1200 -1019 1197.5 -1017Q1195 -1015 1187 -1015Q1168 -1015 1136 -1036Q1139 -1010 1144 -974Q1175 -991 1202 -1019ZM1119 -954Q1109 -1039 1083 -1201Q1075 -1260 1068 -1319Q1057 -1395 1038 -1432Q1030 -1447 1003 -1463.5Q976 -1480 962 -1480Q942 -1480 911 -1458Q880 -1436 875 -1416Q854 -1261 811 -954Q827 -937 887 -923Q938 -911 967 -911Q999 -911 1048 -923Q1101 -937 1119 -954ZM1406 -781V-1076Q1395 -1099 1372 -1099Q1345 -1099 1275 -1045Q1176 -968 1136 -944Q1044 -890 965 -890Q877 -890 787 -942Q744 -967 657 -1037Q593 -1089 568 -1089Q546 -1089 524 -1055V-781ZM790 -1096Q790 -1157 735 -1157Q717 -1157 696 -1145Q669 -1129 669 -1104Q669 -1086 688 -1063Q709 -1036 735 -1036Q790 -1036 790 -1096ZM793 -1036Q764 -1014 732 -1014Q756 -991 783 -974Q793 -1014 793 -1036ZM1155 -357L1022 -759V-253H1058Q1072 -253 1104 -276.5Q1136 -300 1143 -312Q1147 -329 1155 -357ZM995 -206V-759H947V-212Q968 -212 995 -206ZM919 -253V-759Q908 -736 853 -573Q790 -387 790 -347Q790 -303 826 -281Q851 -267 919 -253ZM1840 -31Q1696 -49 1680 -49L1503 -33Q1404 -33 1228 -102Q1035 -178 936 -190L588 -101Q534 -99 451.5 -199.5Q369 -300 322 -300Q315 -300 306.5 -297.5Q298 -295 291 -295Q284 -295 279 -300Q274 -305 267 -305Q244 -305 191 -279Q126 -248 126 -214Q126 -159 241 -159Q248 -159 276.5 -161.5Q305 -164 312 -164Q348 -164 362 -152Q396 -108 472 -30Q504 -4 596 19L1009 -33L1597 8Q1747 8 1840 -31ZM998 300V-7Q968 -1 947 -1V300ZM421 -432L413 -437L323 -330L330 -325ZM248 -330L137 -427L130 -422L241 -325ZM293 -272Q293 -260 276 -243H253L241 -255Q249 -273 264 -289Q276 -289 293 -272Z"/>
</svg>