<svg xmlns="http://www.w3.org/2000/svg" viewBox="28.4 -1595.6 1771.2 1933.2">
	<path fill="currentColor" d="M1728 -66Q1728 -30 1702 -6Q1676 18 1639 18Q1598 18 1414 -34Q1325 -61 1235 -87Q1156 -103 986 -136V266H883V-136Q867 -145 845 -145Q774 -145 634 -125L626 -117Q674 -99 722 -81Q781 -54 804 -16Q804 -7 801 2Q798 11 798 12Q774 8 707 8Q702 8 608.5 -30.5Q515 -69 475 -69Q423 -69 330.5 -30.5Q238 8 209 8Q106 8 106 8Q100 7 100 -5Q100 -14 117.5 -39Q135 -64 147 -71Q161 -71 183 -75Q291 -118 400 -161Q527 -210 597 -220Q624 -224 877 -252L881 -256V-270Q879 -271 872 -276Q819 -276 775 -309Q728 -344 728 -393Q728 -426 780 -591Q830 -747 845 -776V-792H473V-1087Q473 -1105 504 -1125Q531 -1141 541 -1141Q567 -1141 612 -1105Q610 -1101 610 -1133Q610 -1161 642 -1185Q670 -1207 694 -1207Q759 -1207 771 -1161Q783 -1255 816 -1445Q821 -1465 862.5 -1494.5Q904 -1524 924 -1524Q935 -1524 969.5 -1501.5Q1004 -1479 1011 -1466Q1024 -1443 1042 -1394Q1045 -1370 1051 -1328Q1057 -1281 1078 -1182Q1105 -1207 1154 -1207Q1192 -1207 1206 -1184Q1221 -1147 1236 -1110Q1269 -1151 1317 -1151Q1332 -1151 1354 -1139Q1381 -1124 1381 -1108V-794H1017Q1014 -791 1014 -786L1136 -398Q1131 -304 982 -269V-246L1501 -130Q1504 -133 1504 -139L1315 -501L1548 -548Q1728 -111 1728 -66ZM1208 -1123Q1208 -1182 1149 -1182Q1090 -1182 1090 -1133Q1090 -1074 1144 -1074Q1208 -1074 1208 -1123ZM1156 -1047Q1154 -1047 1152.5 -1045.5Q1151 -1044 1144 -1044Q1151 -1044 1091 -1064Q1094 -1054 1096.5 -1031Q1099 -1008 1102 -998Q1110 -1006 1130 -1023.5Q1150 -1041 1156 -1047ZM1075 -984Q1061 -1081 1035 -1276Q1006 -1498 922 -1498Q913 -1498 908 -1496Q851 -1476 841 -1440Q832 -1408 802 -1185Q793 -1118 774 -984Q788 -968 847 -954Q899 -942 929 -942Q960 -942 1006 -954Q1058 -968 1075 -984ZM1355 -815V-1109Q1338 -1126 1325 -1126Q1299 -1126 1231 -1073Q1134 -998 1093 -974Q1002 -921 922 -921Q841 -921 754 -971Q712 -996 625 -1065Q562 -1115 539 -1115Q524 -1115 508.5 -1103Q493 -1091 493 -1076V-815ZM758 -1126Q758 -1144 742 -1161Q723 -1182 697 -1182Q676 -1182 656 -1166Q636 -1150 636 -1128Q636 -1108 658 -1086Q680 -1064 700 -1064Q717 -1064 737.5 -1083Q758 -1102 758 -1126ZM757 -1064Q713 -1042 697 -1042Q705 -1037 724.5 -1022.5Q744 -1008 752 -1003Q752 -1014 754.5 -1035.5Q757 -1057 757 -1064ZM1111 -401L984 -794V-299H1021Q1053 -299 1083 -337Q1111 -372 1111 -401ZM957 -248V-793H907V-248ZM879 -299V-794Q753 -487 753 -395Q753 -302 879 -299ZM1703 -63Q1703 -106 1538 -518Q1420 -501 1346 -481L1540 -122Q1536 -113 1526 -99Q1118 -227 896 -227Q891 -227 852 -222.5Q813 -218 797 -218Q663 -217 536 -182Q449 -158 229 -72Q214 -62 182 -43V-24L188 -18H224Q232 -18 332 -56Q432 -94 472 -94Q478 -94 588.5 -56Q699 -18 705 -18Q712 -18 722 -23.5Q732 -29 733 -29Q711 -59 649 -83Q582 -109 564 -127L573 -135Q628 -146 683 -156Q738 -166 840 -166Q1039 -166 1327 -86.5Q1615 -7 1634 -7Q1703 -7 1703 -63ZM957 242V-134Q931 -134 907 -140V242ZM774 -20Q774 -24 760 -38Q760 -26 753 -19Q774 -19 774 -20ZM160 -18L154 -43Q136 -25 136 -13Q139 -13 148 -15.5Q157 -18 160 -18Z"/>
</svg>