<svg xmlns="http://www.w3.org/2000/svg" viewBox="0 -2048 2048 2048">
	<path fill="currentColor" d="M1936 46H1109V331H1010V48H638Q620 60 560 84Q556 85 520 85Q513 85 467.5 77Q422 69 415 69Q406 69 358 85Q350 65 336 23Q410 -10 441 -10Q448 -10 475 -4.5Q502 1 509 1Q530 1 546 -8Q539 -41 436 -41Q382 -41 360 -34Q307 -17 240 18Q223 27 191 50Q165 69 160 69Q155 69 100 42V20Q100 -24 225 -90Q328 -144 375 -154Q390 -157 417 -157Q421 -157 522 -137Q632 -115 682 -109L1008 -150V-226Q850 -243 850 -351Q850 -387 908 -566Q940 -661 972 -757H588V-1068Q639 -1123 653 -1123Q670 -1123 732 -1086Q730 -1084 730 -1107Q730 -1141 762 -1165Q789 -1186 816 -1186Q847 -1186 875 -1167Q882 -1158 899 -1143Q911 -1249 941 -1435Q945 -1451 988.5 -1481Q1032 -1511 1050 -1511Q1058 -1511 1098.5 -1484.5Q1139 -1458 1142 -1452Q1167 -1403 1174 -1372Q1176 -1347 1182 -1304Q1186 -1249 1210 -1159Q1233 -1191 1291 -1191Q1329 -1191 1349 -1148Q1361 -1120 1373 -1091Q1413 -1128 1457 -1128Q1479 -1128 1500.5 -1112Q1522 -1096 1522 -1079V-761H1148Q1144 -758 1144 -753L1265 -354Q1276 -262 1107 -221V-166Q1098 -167 1255 -167L1665 -130L1707 -639H1915ZM1344 -1102Q1344 -1116 1331 -1137Q1313 -1165 1289 -1165Q1223 -1165 1223 -1109Q1223 -1049 1278 -1049Q1302 -1049 1323 -1064Q1344 -1079 1344 -1102ZM1291 -1021Q1289 -1021 1287.5 -1019.5Q1286 -1018 1278 -1018Q1284 -1018 1224 -1038Q1227 -1015 1235 -976Q1268 -997 1291 -1021ZM1207 -955Q1193 -1056 1167 -1251Q1136 -1485 1052 -1485Q984 -1485 960 -1389Q949 -1312 938 -1236Q913 -1091 898 -955Q963 -913 1058 -913Q1157 -913 1207 -955ZM1496 -782V-1084Q1478 -1102 1462 -1102Q1435 -1102 1365 -1048Q1265 -971 1224 -946Q1132 -892 1050 -892Q970 -892 878 -945Q828 -974 741 -1043Q674 -1096 656 -1096Q646 -1096 627.5 -1081Q609 -1066 609 -1056V-782ZM882 -1102Q882 -1116 865 -1138Q844 -1165 819 -1165Q808 -1165 784 -1147Q756 -1126 756 -1107Q756 -1088 778.5 -1066Q801 -1044 821 -1044Q882 -1044 882 -1102ZM880 -1038Q851 -1016 819 -1016Q838 -1003 875 -976Q875 -987 877.5 -1009Q880 -1031 880 -1038ZM1244 -357L1112 -760V-251H1146Q1178 -251 1213 -290Q1248 -329 1244 -357ZM1086 -157V-759H1035V-157ZM1006 -252V-760Q978 -698 931 -560Q877 -399 877 -353Q877 -304 922 -276Q958 -254 1006 -252ZM1915 22L1894 -613H1733L1686 -98L1255 -138L674 -88Q667 -88 549.5 -112Q432 -136 425 -136Q371 -136 254 -77Q131 -16 126 26Q138 32 154 43Q295 -67 433 -67Q466 -67 537 -50Q564 -44 570 -32Q571 -16 577 8Q530 27 501 27Q494 27 467 19Q440 11 433 11Q417 11 391.5 24Q366 37 362 47Q377 47 395 45Q413 43 417 43Q424 43 476 53.5Q528 64 533 64Q540 64 589 43Q638 22 644 22ZM1086 305V49H1035V305Z"/>
</svg>