<svg xmlns="http://www.w3.org/2000/svg" viewBox="25.8 -1589.2 1999.5 2004.5">
	<path fill="currentColor" d="M1951 -156Q1951 -118 1932 -86Q1912 -50 1883 -50Q1829 -50 1789 -109Q1781 -121 1770 -184Q1761 -235 1761 -318Q1761 -328 1759 -330Q1661 -198 1452 -100Q1266 -12 1113 0Q1074 3 1036 18V341H936V23Q921 13 885 10Q678 -6 479 -99Q252 -205 100 -385V-409H935V-757H502V-1062Q502 -1081 535 -1101Q563 -1119 573 -1119Q601 -1119 683 -1058Q736 -1017 789 -976Q807 -1129 858 -1434Q863 -1455 905 -1485Q947 -1515 970 -1515Q980 -1515 1007 -1502Q1037 -1486 1051 -1470Q1087 -1428 1100 -1349Q1108 -1283 1117 -1217Q1129 -1136 1156 -976Q1213 -1023 1271 -1070Q1345 -1129 1383 -1129Q1393 -1129 1416 -1118Q1443 -1104 1443 -1090V-760H1037V-409H1795Q1827 -409 1877 -342Q1918 -288 1928 -260Q1951 -196 1951 -156ZM1131 -956Q1110 -1133 1090 -1233Q1084 -1288 1077 -1344Q1068 -1414 1038.5 -1451.5Q1009 -1489 967 -1489Q958 -1489 953 -1487Q890 -1456 883 -1423Q865 -1338 838 -1152Q814 -986 814 -972V-956Q877 -912 975 -912Q1058 -912 1131 -956ZM1925 -161Q1925 -217 1889 -283Q1848 -357 1794 -378Q1782 -306 1782 -272Q1782 -208 1803 -151Q1830 -76 1880 -76Q1925 -76 1925 -161ZM1422 -783V-1069Q1422 -1079 1410 -1091Q1398 -1103 1385 -1103Q1359 -1103 1287 -1048Q1187 -971 1144 -946Q1051 -891 970 -891Q888 -891 794 -944Q741 -975 656 -1044Q589 -1097 573 -1097Q563 -1097 546 -1084Q529 -1071 529 -1062V-783ZM1012 -410V-758H963V-410ZM1766 -387H137Q426 -69 806 -27Q978 -8 957 -8Q964 -8 1015 -15.5Q1066 -23 1087 -24Q1402 -33 1711 -310Q1739 -335 1766 -387ZM1014 314V14Q990 20 963 20V314Z"/>
</svg>