<svg xmlns="http://www.w3.org/2000/svg" viewBox="0 -2048 2048 2048">
	<path fill="#000000" d="M1338 -763L1096 44H473L230 -751Q230 -762 243 -767.5Q256 -773 256 -797Q256 -933 100 -1080Q118 -1110 132 -1110Q140 -1110 166 -1101Q197 -1090 208 -1088Q293 -1070 377 -958Q458 -851 460 -773Q461 -772 462 -770Q462 -769 462 -768Q463 -765 472 -765Q478 -765 500 -768Q522 -771 532 -771Q537 -776 537 -787Q537 -871 490 -945Q479 -962 381 -1080V-1102Q389 -1110 410 -1110Q473 -1110 585 -1024Q697 -938 710 -879Q721 -845 739 -772Q739 -765 749 -765Q754 -765 782.5 -768Q811 -771 826 -771Q830 -775 830 -784Q830 -846 780 -938Q733 -1026 674 -1080V-1102Q682 -1110 700 -1110Q713 -1110 766 -1090Q824 -1068 855 -1049Q869 -1041 907 -1009Q977 -951 1004 -867Q1012 -836 1021 -804Q1032 -765 1042 -765Q1053 -765 1111 -775Q1092 -929 948 -1087Q958 -1110 980 -1110Q1028 -1110 1125.5 -1048Q1223 -986 1245 -939Q1274 -880 1308 -776Q1318 -763 1338 -763ZM1280 -772Q1256 -872 1185 -952Q1107 -1040 1000 -1069Q1077 -1000 1108 -908Q1121 -871 1138 -765ZM999 -765V-788Q982 -875 896 -965Q807 -1058 720 -1069Q798 -1000 831 -910Q838 -890 864 -765ZM706 -765V-801Q706 -813 695 -828Q679 -905 585 -984Q496 -1059 426 -1069Q504 -999 537 -910Q545 -887 571 -765Q610 -770 647 -770Q684 -770 706 -765ZM425 -765V-795Q425 -808 400 -861Q372 -917 347 -952Q302 -1014 202 -1053Q161 -1069 146 -1069Q273 -959 290 -765ZM1299 -732H263L499 17H1070Z"/>
</svg>