<svg xmlns="http://www.w3.org/2000/svg" viewBox="0 -2048 2048 2048">
	<path fill="#000000" d="M934 -1228L544 -543H926Q934 -531 933 -527L774 69H258L100 -541H292Q329 -597 589 -1016Q635 -1092 732 -1241Q755 -1274 797 -1274Q824 -1274 834 -1255Q858 -1274 886 -1274Q895 -1274 918 -1262Q926 -1251 934 -1228ZM910 -1231Q901 -1251 886 -1251Q863 -1251 842 -1232Q837 -1212 773 -1098Q708 -988 581 -765Q515 -645 456 -543H519ZM816 -1241Q805 -1251 796 -1251Q771 -1251 752 -1230Q736 -1205 705 -1155L320 -543H430ZM905 -516H132L275 47H754Z"/>
</svg>