<svg xmlns="http://www.w3.org/2000/svg" viewBox="27.1 -1579.9 576.8 1968.8">
	<path fill="currentColor" d="M531 122H362V316H283V124H129Q123 124 100 101Q104 85 127 59Q205 15 233 -26.5Q261 -68 261 -149Q261 -208 247 -295Q231 -397 186 -623Q146 -825 146 -829Q146 -854 159 -885Q174 -922 176 -932.5Q178 -943 181 -999L191 -1207Q190 -1302 205 -1463Q208 -1478 257 -1504Q265 -1507 277 -1507Q300 -1507 321 -1486Q332 -1507 365 -1507Q437 -1507 438 -1431L443 -1077Q443 -1037 450 -957Q459 -945 473 -916Q496 -853 496 -829Q496 -849 424 -503Q386 -321 386 -183Q386 -28 531 68ZM421 -981L417 -1322Q415 -1338 410 -1463Q385 -1486 360 -1486Q329 -1486 329 -1456V-1133Q335 -1127 346 -1117Q391 -1095 391 -1058Q391 -1038 371 -998Q389 -994 421 -981ZM308 -1127V-1463Q297 -1486 277 -1486Q267 -1486 247 -1469.5Q227 -1453 226 -1442Q221 -1366 217 -1244Q214 -1149 206 -965Q218 -982 266 -993Q248 -1011 240 -1051Q240 -1114 308 -1127ZM365 -1053Q365 -1065 351 -1081Q334 -1100 313 -1100Q266 -1100 266 -1051Q266 -1032 283.5 -1014Q301 -996 321 -996Q334 -996 349.5 -1017.5Q365 -1039 365 -1053ZM506 97Q461 46 415 -5Q370 -62 367 -108Q366 -117 363 -143Q360 -169 360 -175Q360 -258 390 -423Q409 -523 429 -623Q470 -856 470 -824Q470 -879 446 -920Q412 -975 344 -975Q167 -975 167 -816Q167 -812 205 -629Q247 -424 262 -331Q287 -177 287 -142Q287 -72 245 -7Q201 64 133 85Q132 88 131 97ZM333 290V125H309V290Z"/>
</svg>