<svg xmlns="http://www.w3.org/2000/svg" viewBox="27.4 -1543.6 896.1 1959.1">
	<path fill="currentColor" d="M851 -1114Q840 -1074 829 -1034Q814 -986 778 -965Q729 -946 635 -902Q629 -840 586.5 -731Q544 -622 539 -576Q538 -566 509 -539V-356L695 -475L758 343H158L236 -475L437 -351V-540Q420 -560 397 -602Q386 -648 339 -763Q305 -848 306 -902Q288 -918 238 -932Q181 -948 169 -954Q132 -973 100 -1110Q100 -1126 103 -1135Q106 -1144 106 -1144Q147 -1135 218 -1078Q336 -984 336 -984Q349 -996 349 -1004Q349 -1010 334 -1042Q318 -1078 314 -1094Q303 -1147 269 -1260Q257 -1292 217 -1374Q183 -1444 183 -1450Q183 -1462 189 -1471H206Q219 -1471 253 -1428Q290 -1382 350 -1220Q372 -1156 425 -1030Q447 -1041 465 -1041Q482 -1041 526 -1030Q578 -1145 622 -1277Q674 -1433 756 -1455L769 -1443Q728 -1364 666 -1208Q654 -1158 641 -1108Q622 -1041 592 -997Q605 -984 611 -984Q626 -984 681 -1032Q711 -1059 740 -1085Q798 -1118 835 -1118Q845 -1118 851 -1114ZM819 -1092Q796 -1087 764 -1074Q721 -1023 639 -938Q806 -973 819 -1092ZM716 -1398Q663 -1332 619 -1207Q567 -1053 537 -999Q473 -1015 471 -1015Q464 -1015 443 -1007Q422 -999 416 -999Q408 -999 368 -1107Q312 -1260 300 -1288Q259 -1385 220 -1429Q273 -1340 314 -1180Q349 -1042 390 -997Q380 -987 363 -972Q364 -963 359 -948Q353 -930 352 -925Q345 -922 333 -915Q330 -848 355 -784Q403 -657 408 -641Q421 -667 437 -667Q443 -667 454 -657Q465 -647 471 -647Q478 -647 486.5 -657Q495 -667 499 -667Q505 -667 524 -653Q527 -645 527 -631Q608 -860 608 -880Q608 -910 577 -960Q582 -965 582 -972Q565 -973 551 -986Q599 -1027 616 -1095Q628 -1151 640 -1208Q673 -1311 716 -1398ZM314 -973Q273 -1005 247 -1033L239 -1027Q267 -997 308 -965ZM276 -949Q246 -969 199 -1038Q158 -1099 126 -1107Q136 -1071 145 -1035Q160 -986 179 -975Q212 -968 276 -949ZM521 -625Q497 -625 497 -636L484 -624V-585H514Q514 -589 518 -604Q522 -619 521 -625ZM457 -585V-625Q441 -633 429 -621L412 -636Q417 -618 427 -585ZM489 -556L459 -563V-549ZM481 -344V-530H468V-344ZM732 317L674 -434Q595 -379 468 -304L257 -434L183 317ZM566 -835Q527 -818 535 -818Q529 -818 526 -820.5Q523 -823 517 -823Q512 -823 502 -813Q493 -822 487 -826Q488 -827 483 -836Q478 -845 478 -851Q478 -859 502.5 -881.5Q527 -904 538 -909Q546 -910 556 -905Q556 -903 530 -877Q537 -875 550 -872Q556 -862 566 -835ZM468 -862Q464 -856 459 -848Q454 -840 457 -824Q453 -824 439.5 -818.5Q426 -813 419 -813Q412 -813 380 -829V-863Q385 -867 416 -883Q415 -884 390 -897L396 -916Q408 -916 433 -898.5Q458 -881 468 -862ZM524 -869L521 -876L509 -870V-862ZM442 -863V-871L430 -877L427 -870Z"/>
</svg>