<svg xmlns="http://www.w3.org/2000/svg" viewBox="0 -2048 2048 2048">
	<path fill="#000000" d="M1487 -598H839V-165H1310V194Q1331 206 1352 218.5Q1373 231 1373 250Q1373 261 1355 290Q1334 322 1319 322Q1243 322 1243 265Q1243 210 1285 189L1282 -73Q1090 208 810 208Q698 208 591 142Q476 70 400 -58Q360 -125 361 -143V-165H817V-596H484Q466 -562 447 -504H262Q252 -562 239 -588Q221 -599 184 -625Q134 -665 117 -708Q100 -751 100 -787Q100 -827 128 -855Q156 -883 189 -883Q216 -883 244 -857.5Q272 -832 272 -815Q272 -802 259.5 -775Q247 -748 247 -735Q247 -728 249 -722Q295 -752 523 -779Q526 -782 526 -795Q526 -817 512.5 -868.5Q499 -920 487 -930Q430 -926 392 -912Q359 -899 329 -899Q298 -899 274 -931Q261 -948 261 -969Q261 -990 332 -1071Q402 -1149 443 -1177Q428 -1228 428 -1229Q437 -1278 452 -1364Q454 -1378 463 -1488L471 -1493Q479 -1496 484 -1494Q506 -1464 504 -1361Q575 -1408 610 -1408Q666 -1408 709.5 -1363.5Q753 -1319 753 -1263Q753 -1242 746 -1223Q743 -1220 748 -1210Q820 -1242 862 -1247L884 -1241V-1216Q820 -1178 651 -1088Q724 -1002 898 -1002Q904 -1002 1026.5 -1018Q1149 -1034 1155 -1034Q1275 -1034 1353 -964Q1431 -894 1431 -779Q1431 -781 1423 -709Q1420 -682 1404 -658Q1443 -650 1487 -658ZM729 -1267Q729 -1309 697 -1344Q662 -1382 612 -1382Q567 -1382 533 -1355Q495 -1324 495 -1275Q495 -1226 534.5 -1189.5Q574 -1153 620 -1153Q664 -1153 696.5 -1188.5Q729 -1224 729 -1267ZM1405 -774Q1405 -939 1268 -983Q1190 -1008 1153 -1008Q1147 -1008 1027 -992.5Q907 -977 901 -977Q730 -977 615 -1080Q641 -1054 641 -1034Q641 -1027 637 -1023Q632 -1023 622.5 -1020.5Q613 -1018 607 -1018Q562 -1018 526 -1052Q536 -1071 544 -1070Q567 -1053 609 -1045Q578 -1058 542 -1092Q560 -1102 591.5 -1102Q623 -1102 649 -1113Q681 -1126 794 -1199Q738 -1170 683 -1141Q617 -1107 586 -1107Q565 -1107 547 -1116Q547 -1130 558 -1135Q517 -1164 495 -1164Q450 -1164 392 -1100Q340 -1037 287 -974Q310 -951 312 -951V-958Q320 -971 339 -971Q357 -971 355 -954Q353 -952 329 -940Q343 -930 365 -930Q402 -935 431 -943Q499 -961 514 -987Q532 -978 532 -969Q526 -956 511 -943Q532 -895 549 -807Q550 -802 559 -789.5Q568 -777 568 -771Q568 -764 565.5 -759Q563 -754 563 -752Q485 -747 406 -742Q316 -732 262 -701V-681Q280 -665 285 -665H902Q909 -665 952.5 -670Q996 -675 1002 -675L1272 -660Q1358 -660 1377 -673Q1405 -692 1405 -774ZM485 -1186Q463 -1210 461 -1283Q454 -1250 454 -1239Q454 -1213 471 -1179Q476 -1184 485 -1186ZM1461 -618V-633H259Q240 -633 226 -663Q215 -688 215 -706Q215 -712 230.5 -760.5Q246 -809 246 -815Q246 -857 194 -857Q173 -857 148 -839Q121 -818 121 -792Q121 -772 127.5 -751Q134 -730 154 -692Q159 -683 193 -652Q232 -618 249 -618ZM1347 252Q1314 219 1303 219H1281Q1264 271 1264 273Q1264 297 1301 297Q1317 297 1326.5 282.5Q1336 268 1347 252ZM453 -596H262Q267 -573 283 -530H432Q440 -553 453 -596ZM1279 -121V-135H387Q449 14 580 102Q698 182 817 182Q870 182 904 176Q1105 141 1244 -58Q1279 -109 1279 -121ZM474 -1066Q457 -1049 434 -1049Q422 -1061 422 -1070Q422 -1077 428 -1085Q434 -1093 434 -1095Q446 -1095 459.5 -1092.5Q473 -1090 474 -1090Z"/>
</svg>