<svg xmlns="http://www.w3.org/2000/svg" viewBox="0 -2048 2048 2048">
	<path fill="currentColor" d="M2164 -1073Q2164 -1067 2143 -1028Q2086 -923 1977 -841Q1912 -791 1763 -709Q1804 -680 1846 -652Q1893 -616 1919 -583Q1929 -565 1951 -529Q1993 -464 2030 -365Q2062 -280 2093 -195L1928 -185Q1911 -276 1866 -454Q1857 -482 1824.5 -531.5Q1792 -581 1770 -599Q1801 -530 1853 -388Q1928 -134 1928 11Q1928 56 1914 128Q1853 155 1730 208L1784 -114Q1782 -122 1782 -211Q1782 -318 1658 -658V-666L1649 -661Q1660 -613 1660 -599Q1660 -511 1640 -431Q1635 -405 1623 -354Q1586 -212 1480 -85Q1463 -65 1377.5 10Q1292 85 1176 147Q1159 156 993 182Q910 195 896 195Q694 195 501 105Q485 97 410 41Q213 -107 140 -312Q133 -331 117 -407Q100 -487 100 -501Q100 -676 126 -757Q169 -892 212 -951Q414 -1231 682 -1292Q817 -1323 896 -1323Q894 -1323 956 -1315Q1230 -1280 1411 -1110Q1555 -975 1613 -798Q1619 -778 1633 -739H1636L1645 -747Q1667 -903 1746 -1045Q1840 -1215 1965 -1259Q2004 -1273 2008 -1273Q2098 -1273 2138 -1211Q2164 -1170 2164 -1073ZM2065 -1129Q2065 -1137 2049 -1164Q2015 -1176 2010 -1176Q1981 -1176 1950 -1153Q1888 -1107 1834 -1020Q1777 -929 1751 -797Q1789 -811 1861 -848Q1933 -896 1993 -970Q2065 -1060 2065 -1129ZM2141 -1077Q2141 -1204 2074 -1235Q2041 -1250 2010 -1250Q2012 -1250 1977 -1239Q1899 -1214 1822 -1118Q1755 -1035 1722 -944Q1671 -805 1669 -757Q1701 -770 1725 -784Q1747 -878 1790 -975Q1796 -994 1813 -1029Q1919 -1199 2007 -1199Q2038 -1199 2063 -1180.5Q2088 -1162 2088 -1132Q2088 -1013 1889 -842Q1882 -836 1872 -830Q1794 -792 1638 -716L1647 -686Q1996 -810 2119 -1028Q2141 -1067 2141 -1077ZM2064 -212V-216Q2042 -286 1990 -421Q1941 -525 1887 -582Q1844 -628 1740 -699L1730 -695Q1739 -670 1784 -614Q1860 -548 1886 -467Q1905 -381 1945 -209Q2045 -216 2064 -212ZM1905 8Q1905 -238 1749 -598Q1732 -627 1709 -687L1674 -673L1679 -669Q1808 -298 1808 -192Q1808 -95 1768 92Q1754 159 1754 167V172Q1890 117 1893 113Q1905 96 1905 8ZM1608 -740Q1556 -950 1386.5 -1101.5Q1217 -1253 1002 -1286Q910 -1300 895 -1300Q852 -1300 764 -1283Q448 -1222 271 -993Q178 -873 146 -740ZM1623 -681Q1621 -692 1615 -713H140L134 -681ZM1634 -515V-628Q1634 -632 1632 -640.5Q1630 -649 1630 -654H132Q123 -568 123 -583Q123 -500 124 -515ZM1624 -489H125Q123 -485 123 -480Q123 -477 131 -452H1623Q1623 -456 1623 -462Q1624 -469 1624 -472ZM1617 -427H135V-424Q135 -422 145 -384Q211 -129 448 42Q471 60 520 89Q708 172 893 172Q927 172 1018.5 158Q1110 144 1145 134Q1229 110 1347 7Q1387 -25 1460 -97Q1526 -175 1560 -253Q1579 -297 1617 -427Z"/>
</svg>