<svg xmlns="http://www.w3.org/2000/svg" viewBox="0 -2048 2048 2048">
	<path fill="currentColor" d="M1371 -1280L1049 -1097Q1060 -1087 1078 -1076Q1177 -1017 1242 -921Q1307 -825 1307 -738Q1307 -690 1288.5 -625Q1270 -560 1250 -531Q1210 -472 1117 -444Q1042 -421 1027 -421Q1035 -421 957 -434Q836 -454 772 -534Q717 -603 717 -698Q717 -822 777 -911Q842 -1007 1000 -1098L717 -1291Q719 -1293 723 -1299.5Q727 -1306 729 -1308L1027 -1110L1365 -1303Q1365 -1301 1368 -1291.5Q1371 -1282 1371 -1280ZM1847 263H100V105H222L425 -230V-1466H444V-230L641 105H1293L1516 -226V-1466H1540V-214Q1541 -200 1737 104Q1774 106 1847 106ZM1282 -731Q1282 -779 1275 -806Q1266 -841 1230 -900Q1181 -980 1053 -1066Q1025 -1085 1024 -1085Q1013 -1085 931 -1026Q827 -952 787 -888Q742 -815 742 -701Q742 -518 932 -464Q999 -445 1019 -445Q1097 -445 1175 -498Q1265 -560 1275 -651Q1282 -718 1282 -731ZM1703 104L1528 -193L1322 104ZM1822 238V130H123V238ZM613 104L432 -188L251 104Z"/>
</svg>