<svg xmlns="http://www.w3.org/2000/svg" viewBox="9.8 -1599.2 2435.4 1959.4">
	<path fill="currentColor" d="M2355 -1011Q2353 -999 2343 -987L2064 -1175Q2055 -1161 1960 -970Q2036 -922 2185 -822V-815Q2185 -821 2182 -805Q2109 -841 1956 -942H1952Q1947 -942 1945 -938Q1941 -931 1846 -730Q1782 -593 1651 -321Q1747 -251 1826 -144Q1919 -18 1919 80Q1919 84 1905 136Q1888 198 1835.5 234Q1783 270 1716 270Q1657 270 1593 202Q1529 134 1529 75Q1529 84 1542 24Q1553 -29 1612 -70Q1668 -110 1724 -110Q1753 -110 1844 -79Q1719 -290 1464 -411Q1230 -521 966 -521Q517 -521 270 -222L257 -234Q326 -343 439 -408L100 -1325L423 -1428L429 -1409L134 -1312Q130 -1308 130 -1304L206 -1092Q209 -1089 215 -1089Q262 -1103 483 -1169L490 -1157Q489 -1151 484 -1146Q319 -1099 221 -1064V-1051L454 -424Q453 -424 453 -423Q453 -419 462 -420Q468 -420 584 -467Q709 -517 724 -522L582 -1473L935 -1509L940 -1485Q771 -1467 620 -1457L611 -1450Q611 -1447 625 -1350Q627 -1337 643 -1234Q645 -1230 652 -1230Q660 -1230 660 -1230L930 -1260V-1241Q834 -1229 642 -1201L743 -530L752 -521Q908 -546 959 -546Q970 -546 992 -543.5Q1014 -541 1025 -541Q1040 -541 1041 -554Q1043 -573 1058 -860L1094 -1509L1427 -1473V-1449L1117 -1484Q1103 -1389 1103 -1264Q1239 -1235 1381 -1219Q1380 -1213 1376 -1196L1102 -1236L1063 -559Q1063 -548 1067 -542Q1155 -528 1328 -485L1591 -1428L1919 -1295L1913 -1276H1896L1609 -1398Q1566 -1268 1539 -1168Q1637 -1122 1797 -1067Q1795 -1060 1791 -1043L1541 -1139Q1535 -1139 1530 -1131L1361 -478Q1495 -429 1627 -333L2048 -1210ZM1878 5Q1821 -85 1727 -85Q1646 -85 1575 5ZM1890 90Q1890 80 1889 61Q1888 42 1888 32H1566Q1554 56 1554 70Q1554 68 1570 122H1888Q1890 109 1890 90ZM1873 149H1585Q1597 185 1643 214.5Q1689 244 1729 244Q1830 244 1873 149Z"/>
</svg>