<svg xmlns="http://www.w3.org/2000/svg" viewBox="0 -2048 2048 2048">
	<path fill="currentColor" d="M2028 -991Q2028 -972 2013 -941H1989L1983 -974Q1974 -976 1969 -976Q1952 -976 1929 -944Q1927 -921 1883 -861H1974Q1974 -785 1945 -644Q1911 -481 1755.5 -299.5Q1600 -118 1444 -61Q1268 3 1064 3Q860 3 684 -61Q528 -118 372.5 -299.5Q217 -481 183 -644Q154 -785 154 -861H245Q221 -882 214 -905Q205 -935 199 -944Q176 -976 159 -976Q154 -976 145 -974L139 -941H115Q100 -972 100 -991Q100 -1016 111 -1028Q124 -1044 125.5 -1053.5Q127 -1063 135 -1088Q154 -1127 232 -1153Q168 -1187 168 -1255Q168 -1304 204.5 -1338.5Q241 -1373 291 -1373Q341 -1373 377.5 -1338.5Q414 -1304 414 -1255Q414 -1184 348 -1151Q444 -1110 475 -1020Q499 -950 499 -861H567Q567 -816 588 -749Q610 -678 635 -645Q705 -553 823 -488Q949 -418 1064 -418Q1179 -418 1305 -488Q1423 -553 1493 -645Q1518 -678 1540 -749Q1561 -816 1561 -861H1629Q1629 -950 1653 -1020Q1684 -1110 1780 -1151Q1714 -1184 1714 -1255Q1714 -1304 1750.5 -1338.5Q1787 -1373 1837 -1373Q1887 -1373 1923.5 -1338.5Q1960 -1304 1960 -1255Q1960 -1187 1896 -1153Q1974 -1127 1993 -1088Q1995 -1084 2002 -1052Q2004 -1044 2017 -1028Q2028 -1016 2028 -991ZM1934 -1255Q1934 -1294 1905 -1320.5Q1876 -1347 1837 -1347Q1798 -1347 1769 -1320.5Q1740 -1294 1740 -1255Q1740 -1216 1769 -1190Q1798 -1164 1837 -1164Q1876 -1164 1905 -1190Q1934 -1216 1934 -1255ZM2005 -992Q2004 -1011 1994 -1020Q1984 -1029 1982 -1035Q1980 -1026 1972 -1022Q1994 -1015 2005 -992ZM1978 -1055Q1975 -1080 1930 -1111Q1897 -1111 1876.5 -1082Q1856 -1053 1856 -1018Q1856 -1015 1877 -890Q1883 -897 1894 -912Q1897 -929 1911 -961Q1928 -985 1966 -997L1958 -1000Q1952 -1000 1947 -994Q1939 -994 1923 -1010Q1935 -1017 1934.5 -1039Q1934 -1061 1956 -1071Q1968 -1067 1978 -1055ZM1893 -1129Q1852 -1141 1835 -1141Q1811 -1141 1755 -1112Q1704 -1086 1675 -1007Q1651 -942 1651 -874V-861H1857Q1834 -1010 1834 -1012Q1834 -1079 1893 -1129ZM388 -1255Q388 -1294 359 -1320.5Q330 -1347 291 -1347Q252 -1347 223 -1320.5Q194 -1294 194 -1255Q194 -1216 223 -1190Q252 -1164 291 -1164Q330 -1164 359 -1190Q388 -1216 388 -1255ZM1947 -835H1585Q1570 -706 1514 -629Q1443 -532 1314 -463Q1182 -392 1064 -392Q946 -392 815.5 -462Q685 -532 614 -629Q558 -706 543 -835H181Q185 -755 208 -649Q243 -490 392 -315.5Q541 -141 693 -85Q860 -23 1064 -23Q1268 -23 1435 -85Q1587 -141 1736 -315.5Q1885 -490 1920 -649Q1943 -755 1947 -835ZM477 -861V-874Q477 -942 453 -1007Q424 -1086 373 -1112Q317 -1141 293 -1141Q276 -1141 235 -1129Q294 -1079 294 -1012Q294 -1010 271 -861ZM272 -1018Q272 -1053 253 -1081Q231 -1111 198 -1111Q182 -1100 167 -1088.5Q152 -1077 150 -1055Q160 -1067 172 -1071Q194 -1061 193.5 -1039Q193 -1017 205 -1010Q189 -994 181 -994Q176 -1000 170 -1000L162 -997Q200 -985 217 -961Q221 -944 234 -912Q237 -907 251 -890Q272 -1015 272 -1018ZM156 -1022Q148 -1026 146 -1035Q136 -1030 123 -992Q134 -1015 156 -1022Z"/>
</svg>