<svg xmlns="http://www.w3.org/2000/svg" viewBox="25.4 -1588.6 1456.1 2013.1">
	<path fill="currentColor" d="M1407 -101H1281V-1088L772 -1417Q801 -1465 839 -1514L1407 -1152ZM976 350H879V-1124Q879 -1166 847 -1197.5Q815 -1229 773 -1229Q650 -1229 650 -1134V-90H544V-1133Q544 -1217 612 -1275Q677 -1330 763 -1330Q851 -1330 911 -1280Q976 -1226 976 -1140ZM734 -1420L225 -1088V-101H100V-1152L666 -1514Q684 -1494 734 -1420ZM1381 -126V-1142L843 -1486L803 -1424L1306 -1099V-126ZM954 325V-1142Q954 -1220 896 -1265Q843 -1307 763 -1307Q691 -1307 633 -1263Q569 -1214 569 -1145V-116H624V-1137Q624 -1191 674 -1223Q718 -1252 775 -1252Q826 -1252 864 -1213Q902 -1174 902 -1122V325ZM702 -1427Q691 -1442 660 -1486L125 -1142V-126H200V-1099Z"/>
</svg>