<svg xmlns="http://www.w3.org/2000/svg" viewBox="0 -2048 2048 2048">
	<path fill="currentColor" d="M1873 -716H1222V350H1109V-716H856V-139H741V-716H100V-828H741V-1311Q741 -1398 820 -1465Q895 -1528 984 -1528Q1082 -1528 1149 -1471Q1221 -1410 1221 -1314V-828H1873ZM1195 -828V-1314Q1195 -1399 1131 -1452Q1071 -1502 984 -1502Q906 -1502 838 -1446Q767 -1387 767 -1311V-828H827V-1314Q827 -1376 882 -1413Q930 -1445 995 -1445Q1048 -1445 1091.5 -1405.5Q1135 -1366 1135 -1314V-828ZM1109 -828V-1314Q1109 -1356 1073 -1387.5Q1037 -1419 995 -1419Q941 -1419 901 -1394Q853 -1365 853 -1314V-828ZM1848 -742V-802H126V-742ZM1196 324V-716H1135V324ZM830 -165V-716H767V-165Z"/>
</svg>