<svg xmlns="http://www.w3.org/2000/svg" viewBox="20 -1596 2160 2007">
	<path fill="currentColor" d="M2100 199Q2100 238 2072 279Q2040 326 1994 326Q1948 326 1917 261Q1911 249 1896 147Q1884 72 1829 25Q1753 146 1638 146Q1553 146 1296 25Q1284 238 1290 322L1297 330H1182Q1184 303 1179 294Q1166 331 1124 331Q1117 331 1091 318Q1065 305 1058 305Q1053 305 1040 318Q1027 331 1020 331H750Q739 311 739 295Q772 270 877 237Q957 212 997 149L767 -260Q714 -141 639 -18Q539 145 533 156Q533 203 532 251Q526 331 464 331Q458 331 425.5 318Q393 305 387 305Q380 305 363 318Q346 331 339 331H106Q106 327 103 315.5Q100 304 100 297Q100 264 128 254Q163 246 228 230Q254 223 307 193Q374 155 420 62Q450 -13 481 -89Q523 -191 612 -394Q477 -499 341 -603Q163 -747 163 -790Q163 -795 175 -819H202Q205 -819 347 -741Q514 -649 594 -609Q913 -452 1177 -412L1182 -1318Q1198 -1516 1411 -1516Q1498 -1516 1571 -1462Q1651 -1403 1651 -1314V-333Q1693 -310 1736 -288Q1791 -256 1813 -222Q1842 -177 1850 -158Q1852 -139 1863 -106Q1885 -94 1930 -68Q2011 -20 2045 32Q2100 117 2100 199ZM1624 -340V-1335Q1624 -1381 1562 -1436Q1504 -1487 1464 -1488Q1456 -1488 1435.5 -1491.5Q1415 -1495 1409 -1495Q1402 -1495 1381 -1491.5Q1360 -1488 1353 -1488Q1308 -1486 1258 -1432.5Q1208 -1379 1208 -1339V-409Q1238 -409 1265 -398V-1277Q1265 -1340 1301 -1386Q1342 -1437 1411 -1437Q1440 -1437 1494 -1410Q1562 -1376 1562 -1333V-351Q1580 -348 1624 -340ZM1540 -356V-1319Q1540 -1350 1492 -1382Q1447 -1411 1414 -1411Q1369 -1411 1331 -1375.5Q1293 -1340 1293 -1296V-393ZM2079 199Q2079 172 2034 69Q2022 41 2008 26Q1940 -49 1863 -68Q1940 -20 1997 49Q2063 129 2063 197Q2063 220 2048 245Q2030 273 2008 273Q1984 273 1974 253Q1951 206 1924 90Q1920 70 1895.5 42Q1871 14 1847 5Q1871 34 1903 81Q1915 110 1929 197Q1938 254 1953.5 276.5Q1969 299 2000 299Q2038 299 2060 265Q2079 235 2079 199ZM2037 191Q2037 144 1978 67Q1921 -7 1871 -31Q1866 -33 1852 -25Q1925 13 1948 90Q1990 225 1997 239Q2018 246 2014 246Q2037 212 2037 191ZM1841 -78Q1841 -171 1745 -250Q1653 -325 1559 -325Q1555 -325 1491 -335Q1402 -352 1264 -374Q1024 -399 727 -526Q560 -597 190 -792Q200 -756 227 -732Q457 -528 782 -311Q901 -226 1077 -109Q1230 -23 1505 97Q1546 115 1620 115Q1695 115 1761 70Q1841 14 1841 -78ZM1265 304V10Q1245 2 1209 -11V304ZM1180 220V-26L1051 -96ZM1166 265Q1166 258 1143 205Q1115 141 1109 122Q1089 64 1045 -47Q1035 -78 1010 -122Q950 -174 792 -270L1023 155Q1009 216 927 245.5Q845 275 765 304H1016Q1044 278 1052 278Q1059 278 1088 291.5Q1117 305 1124 305Q1166 305 1166 265ZM754 -300L635 -381Q568 -269 476 -21Q453 45 404 142Q348 211 268 245Q229 262 127 285V304H334Q341 304 360.5 294Q380 284 387 284Q394 284 425 294.5Q456 305 461 305Q510 305 510 239Q510 145 507 160Q513 132 543 89Q566 59 588 29Q699 -140 754 -300Z"/>
</svg>