<svg xmlns="http://www.w3.org/2000/svg" viewBox="28.7 -1529.3 1920.6 1925.6">
	<path fill="currentColor" d="M1878 285Q1870 315 1835 315Q1808 315 1778 285Q1741 247 1704 209Q1704 208 1703 208Q1702 207 1701.5 208.5Q1701 210 1701 216Q1701 222 1711 246Q1721 270 1721 275Q1721 325 1615 325Q1523 325 1468 246Q1441 207 1390 75Q1364 5 1307 -136Q1300 -137 1296 -132Q1272 -63 1228 77L1094 6Q1087 5 1084 24Q1067 150 1067 204Q1067 222 1081 239H1333Q1383 239 1426 292V310Q1420 309 1399 320L1383 305Q1381 305 1373.5 313Q1366 321 1360 324Q1358 325 1318 325L989 308L697 325Q647 325 643 300Q641 301 631 315Q623 325 616 325Q610 325 582 317.5Q554 310 548 310Q542 310 487 317.5Q432 325 426 325Q384 325 374 300Q360 305 340 325L317 303Q323 291 345.5 271Q368 251 375 251Q465 249 644 228Q683 219 718 14Q748 -160 748 -255Q748 -335 748 -335H100V-358H495V-468H171V-490H495V-626H247V-652H494V-783H364V-814H622Q581 -978 581 -1002Q581 -1008 606 -1105Q631 -1202 631 -1208Q631 -1267 593 -1274Q502 -1291 375 -1291Q370 -1291 348 -1288.5Q326 -1286 316 -1285Q304 -1266 293 -1266Q287 -1272 287 -1291Q287 -1338 303 -1350Q349 -1385 522 -1414Q583 -1429 705 -1452Q713 -1453 791 -1453Q784 -1453 849 -1456Q891 -1458 916 -1454Q952 -1448 965 -1430Q983 -1355 1033 -1209Q1055 -1192 1097 -1157Q1131 -1127 1171 -1072Q1233 -984 1360 -809H1872V-339H1623Q1622 -338 1620 -334ZM1325 -811Q1267 -894 1151 -1057Q1104 -1122 1066 -1152Q1042 -1166 1013 -1193Q998 -1270 950 -1410Q938 -1433 788 -1433Q690 -1433 612 -1407Q614 -1370 672 -1319Q669 -1316 665.5 -1310Q662 -1304 659 -1301Q585 -1327 479 -1327Q431 -1327 348 -1314Q334 -1314 548 -1303Q568 -1302 613 -1289Q631 -1284 645 -1250Q657 -1222 657 -1205Q657 -1172 630 -1112Q611 -1070 611 -1000Q611 -947 642 -811H793Q758 -884 758 -929Q758 -952 778.5 -974.5Q799 -997 829 -997Q835 -997 888.5 -989.5Q942 -982 948 -982Q954 -982 1010 -987Q1066 -992 1072 -992Q1123 -992 1154 -978V-966L1120 -962Q1039 -961 882 -963Q874 -963 856 -967.5Q838 -972 832 -972Q783 -972 783 -919Q783 -893 820 -811ZM616 -1343Q590 -1378 590 -1402H573Q510 -1389 447 -1377Q372 -1360 328 -1333Q363 -1347 489 -1347Q584 -1347 616 -1343ZM1852 -359V-784H518V-359ZM1853 288L1593 -337H1164L1832 295Q1848 293 1853 288ZM1696 267Q1690 256 1682 236Q1666 178 1653 164Q1553 55 1332 -145Q1362 -64 1415 81Q1495 300 1615 300Q1682 300 1696 267ZM1351 299Q1334 297 1304 289Q1299 287 1288.5 276Q1278 265 1272 265H1076Q1063 255 1042 236Q1049 146 1071 -30L1213 41L1290 -184Q1135 -339 1115 -338H880Q1032 -133 1032 47Q1032 169 1018 204Q992 270 892 270H744Q730 296 682 293H733L702 292L951 285Q955 285 1079 292Q1200 300 1207 299ZM966 -141Q966 -185 848 -338H769Q771 -307 771 -273Q771 -7 685 216Q677 236 662 249H694Q697 249 715 242Q746 132 807 -85Q855 -57 939 -14Q942 -36 954 -88Q966 -136 966 -141ZM1006 44Q1006 -48 978 -110Q974 -43 947 27Q908 2 828 -47Q836 -44 815 -44L743 243Q755 243 777 246Q799 249 804 249Q949 249 980 215Q1006 186 1006 44ZM636 251Q580 250 476 262Q455 277 421 298Q454 290 588 290Q595 290 612 271.5Q629 253 636 251ZM758 -1355Q758 -1322 735 -1322Q717 -1322 704 -1337Q692 -1349 692 -1360Q692 -1403 723 -1403Q758 -1403 758 -1355Z"/>
</svg>