<svg xmlns="http://www.w3.org/2000/svg" viewBox="0 -2048 2048 2048">
	<path fill="currentColor" d="M1057 -407Q768 -452 675 -452L753 353H540L613 -454Q533 -454 417 -435Q319 -418 222 -402V-584L514 -545Q482 -615 422 -734Q385 -803 347 -872Q307 -955 302 -1021H283Q245 -1021 216 -1051Q187 -1081 180 -1120Q179 -1125 179 -1177Q179 -1222 156 -1250Q128 -1277 100 -1304L130 -1349H141Q167 -1349 198.5 -1323Q230 -1297 239 -1272Q242 -1245 249 -1190Q250 -1185 276 -1112L296 -1107Q303 -1185 335 -1249Q374 -1328 437 -1347Q440 -1347 445 -1350Q450 -1353 471 -1385Q492 -1417 492 -1422Q492 -1446 424 -1454Q340 -1463 335 -1466Q301 -1484 301 -1500Q301 -1536 327 -1536H904Q930 -1536 930 -1515Q930 -1482 915 -1470Q906 -1462 820 -1457Q748 -1452 748 -1418Q748 -1412 784 -1360Q855 -1349 918 -1250Q961 -1182 961 -1088Q961 -975 888 -808Q823 -675 758 -542Q879 -542 1057 -597ZM906 -1500Q906 -1510 896 -1510H341Q329 -1510 329 -1504Q329 -1486 394 -1478Q474 -1469 476 -1468Q515 -1451 515 -1423Q515 -1409 483 -1362Q568 -1389 607 -1389H676Q696 -1389 749 -1371Q725 -1403 725 -1419Q725 -1430 749 -1468Q823 -1477 902 -1491Q906 -1495 906 -1500ZM936 -1089Q936 -1259 800 -1330Q731 -1366 613 -1366Q578 -1366 536 -1356Q317 -1304 317 -1074Q317 -999 353 -919Q391 -849 428 -778Q465 -699 542 -542Q604 -533 639 -533Q684 -533 732 -540Q796 -675 859 -810Q936 -985 936 -1089ZM296 -1048V-1085Q272 -1085 260 -1092Q240 -1104 231 -1175Q220 -1260 215 -1271Q202 -1302 142 -1325L128 -1306Q164 -1276 172 -1267Q192 -1244 197 -1214Q200 -1175 203 -1135Q208 -1089 235 -1066Q256 -1048 269 -1048ZM1031 -438V-562Q837 -507 639 -507Q598 -507 509 -519L248 -554V-432Q545 -479 623 -479Q799 -479 1031 -438ZM728 330L651 -453H635L564 330Z"/>
</svg>