<svg xmlns="http://www.w3.org/2000/svg" viewBox="0 -2048 2048 2048">
	<path fill="currentColor" d="M982 -297Q920 -308 795 -327Q702 -338 631 -338L703 402H505L572 -340Q499 -340 392 -322Q302 -307 213 -292V-462L480 -426Q451 -491 397 -598Q363 -661 328 -725Q290 -800 286 -861H270Q235 -861 207.5 -889Q180 -917 174 -953Q173 -959 173 -1006Q173 -1048 152 -1073Q126 -1098 100 -1122L129 -1165H139Q163 -1165 192 -1141Q221 -1117 230 -1093Q233 -1068 240 -1018Q241 -1014 264 -947L281 -943Q287 -1011 318 -1072Q356 -1146 411 -1163Q413 -1164 417 -1165Q421 -1166 441 -1197Q461 -1228 461 -1231Q461 -1252 398 -1259Q322 -1268 317 -1270Q285 -1287 285 -1303Q285 -1337 310 -1337H437Q430 -1415 430 -1405Q430 -1460 400 -1460Q390 -1460 382 -1433L359 -1443V-1467Q358 -1503 383 -1514Q404 -1523 413 -1539Q424 -1559 433 -1566Q459 -1586 513 -1586Q715 -1586 715 -1337H841Q866 -1337 866 -1316Q866 -1283 851 -1274Q843 -1269 763 -1262Q698 -1256 698 -1227Q698 -1224 731 -1175Q795 -1167 854 -1073Q894 -1010 894 -924Q894 -821 827 -667Q767 -545 708 -423Q817 -423 982 -474ZM692 -1337V-1387Q692 -1415 672.5 -1462Q653 -1509 632 -1526Q591 -1560 545 -1560Q562 -1534 562 -1486Q562 -1460 481 -1337ZM451 -1510V-1514L449 -1512L447 -1514V-1510L449 -1512ZM536 -1497Q536 -1560 501 -1560Q486 -1560 447 -1546L439 -1535Q443 -1537 449 -1537Q474 -1537 474 -1512Q474 -1486 446 -1487L452 -1483L443 -1469L431 -1470Q451 -1450 454 -1411Q456 -1379 458 -1346Q536 -1453 536 -1497ZM432 -1494Q424 -1501 424 -1513Q407 -1507 384 -1486Q396 -1497 413 -1497Q419 -1497 432 -1494ZM841 -1303Q841 -1311 833 -1311H323Q313 -1311 313 -1306Q313 -1290 373 -1283Q446 -1275 448 -1274Q484 -1259 484 -1232Q484 -1220 456 -1178Q532 -1202 568 -1202H631Q647 -1202 695 -1186Q675 -1213 675 -1228Q675 -1237 698 -1274Q766 -1283 838 -1295Q841 -1298 841 -1303ZM869 -925Q869 -1001 829 -1066Q789 -1131 720 -1156Q660 -1178 573 -1178Q538 -1178 503 -1169Q445 -1154 414 -1137Q302 -1075 302 -911Q302 -841 335 -768Q370 -704 404 -639Q438 -567 509 -423Q565 -415 597 -415Q642 -415 682 -421Q740 -545 799 -669Q869 -830 869 -925ZM281 -888V-920Q269 -920 248 -927Q229 -940 220 -1004Q210 -1083 206 -1092Q195 -1119 141 -1140L129 -1124Q164 -1095 169 -1088Q188 -1068 192 -1040Q194 -1004 197 -968Q201 -926 226 -904Q244 -888 257 -888ZM956 -328V-439Q780 -389 597 -389Q559 -389 477 -400L239 -432V-322Q513 -365 582 -365Q746 -365 956 -328ZM678 379L607 -339H594L529 379Z"/>
</svg>