<svg xmlns="http://www.w3.org/2000/svg" viewBox="0 -2048 2048 2048">
	<path fill="#000000" d="M1239 -1109Q1239 -1097 1233 -1092Q1162 -1052 692 -771V297H611V-771L100 -1097Q110 -1141 291 -1213V-1231Q284 -1251 269 -1292Q151 -1325 151 -1402Q151 -1438 180.5 -1467.5Q210 -1497 239 -1497Q260 -1497 296 -1469.5Q332 -1442 332 -1420Q332 -1406 325 -1376Q322 -1362 306 -1333.5Q290 -1305 290 -1299Q290 -1287 304.5 -1255.5Q319 -1224 327 -1224Q332 -1224 372 -1235Q412 -1246 427 -1248Q494 -1253 611 -1275V-1507H692V-1270Q771 -1260 849 -1251Q934 -1239 999 -1219L1044 -1308Q992 -1333 992 -1407Q992 -1431 1023.5 -1461.5Q1055 -1492 1080 -1492Q1102 -1492 1149 -1474Q1178 -1430 1178 -1412Q1178 -1392 1156.5 -1355.5Q1135 -1319 1125 -1313Q1099 -1298 1063 -1295Q1045 -1254 1023 -1217Q1042 -1204 1135 -1170Q1212 -1141 1239 -1109ZM1152 -1410Q1152 -1428 1129.5 -1450Q1107 -1472 1087 -1472Q1064 -1472 1041 -1447.5Q1018 -1423 1018 -1399Q1027 -1322 1074 -1322Q1097 -1322 1124.5 -1353.5Q1152 -1385 1152 -1410ZM666 -1266V-1486H632V-1271ZM306 -1402Q306 -1411 284 -1439Q259 -1472 239 -1472Q214 -1472 194 -1444Q177 -1420 177 -1399Q177 -1373 199 -1349Q224 -1322 257 -1322Q306 -1322 306 -1402ZM1203 -1108Q923 -1245 618 -1245Q497 -1245 361 -1209Q204 -1168 136 -1103L631 -787V271H666V-782Z"/>
</svg>