<svg xmlns="http://www.w3.org/2000/svg" viewBox="0 -2048 2048 2048">
	<path fill="currentColor" d="M1678 -227Q1663 -200 1635 -151Q1469 110 1060 207Q942 235 916 235Q915 235 693 199Q629 189 555 159Q489 133 380 69L367 61Q317 32 218 -66Q100 -182 100 -232V-263Q348 -282 485 -336Q701 -421 854 -636Q830 -661 806 -686Q790 -707 790 -747Q790 -832 874 -864Q831 -968 788 -1072Q726 -1231 726 -1310Q726 -1430 811 -1485Q829 -1497 886 -1497Q967 -1497 1014 -1442Q1056 -1392 1056 -1317Q1056 -1275 990 -1084Q952 -974 913 -864Q915 -862 922 -857Q959 -852 981 -801Q997 -763 997 -727Q997 -702 960 -654Q949 -650 928 -636Q1162 -287 1641 -242Q1665 -240 1678 -227ZM1032 -1322Q1032 -1381 996 -1427Q956 -1477 891 -1477Q837 -1477 821 -1465Q746 -1408 746 -1310Q746 -1233 891 -880Q927 -981 963 -1082Q1032 -1281 1032 -1322ZM973 -740Q973 -841 891 -841Q863 -841 836.5 -811Q810 -781 810 -747Q810 -711 840 -684.5Q870 -658 908 -658Q931 -658 952 -683.5Q973 -709 973 -740ZM1643 -218Q1505 -230 1390 -265Q1269 -302 1189 -353Q1105 -407 1106 -407Q1101 -407 1047 -365Q1230 -146 1474 -12Q1613 -127 1643 -218ZM1086 -424Q1035 -457 976 -530Q939 -580 901 -630Q897 -629 889.5 -631Q882 -633 880 -633L696 -424Q720 -397 775 -377Q830 -357 876 -357Q1007 -357 1086 -424ZM1456 5Q1254 -117 1019 -357Q1013 -357 996 -352Q979 -347 973 -347V-330Q1052 -159 1261 116Q1379 70 1456 5ZM1239 129Q1114 -27 956 -317Q942 -343 933 -343Q927 -343 919 -340Q911 -337 909 -337V-291Q909 -217 965 -33Q1011 118 1043 190H1063Q1085 190 1239 129ZM1017 194Q911 -59 886 -283Q842 -35 741 180Q901 205 928 205Q951 205 1017 194ZM873 -337Q841 -337 826 -342Q766 -177 524 119Q537 125 611 150Q689 175 699 175H715Q790 27 873 -337ZM795 -330V-347Q787 -347 742 -362Q573 -146 307 -10Q407 76 502 106Q711 -138 776 -285Q795 -328 795 -330ZM721 -375Q700 -391 669 -412Q474 -275 124 -238V-221Q144 -183 210 -107.5Q276 -32 289 -32Q296 -32 325 -49Q361 -71 369 -74Q445 -108 558 -208Q661 -299 721 -375Z"/>
</svg>