<svg xmlns="http://www.w3.org/2000/svg" viewBox="0 -2048 2048 2048">
	<path fill="#000000" d="M1397 193L1383 207Q1365 187 1312 166.5Q1259 146 1233 146Q1227 146 1198.5 151.5Q1170 157 1164 157Q1093 157 1076 101Q1078 63 1062 -3Q1031 -56 937 -55Q835 -54 797 -95Q779 -115 779 -147Q779 -167 787 -205Q795 -243 795 -258Q795 -269 793 -277Q781 -317 748 -328Q692 -335 583 -364Q544 -380 534 -442Q531 -491 525 -579Q522 -614 502 -614Q495 -614 479 -611.5Q463 -609 456 -609Q315 -609 206 -714Q100 -816 100 -940Q100 -1045 155 -1140Q221 -1255 342 -1300Q412 -1326 458 -1326Q614 -1326 717 -1215Q817 -1109 817 -957Q817 -846 744 -749Q663 -643 532 -616Q547 -585 547 -536Q547 -528 547 -511Q546 -495 546 -487Q546 -415 597 -386Q617 -374 670 -372Q729 -369 755 -358Q800 -341 820 -290Q822 -284 813 -246Q803 -202 803 -178Q803 -160 807 -147Q826 -84 911 -84Q919 -84 936 -85Q953 -85 961 -85Q1045 -85 1077 -33Q1087 -16 1088.5 34Q1090 84 1099 103Q1115 135 1162 135Q1168 135 1196 130Q1224 125 1230 125Q1272 125 1346 154Q1366 162 1397 193ZM795 -968Q795 -1098 701 -1199Q603 -1304 469 -1304Q329 -1304 228 -1200Q127 -1096 127 -959Q127 -830 227 -730.5Q327 -631 458 -631Q595 -631 695 -731Q795 -831 795 -968Z"/>
</svg>