<svg xmlns="http://www.w3.org/2000/svg" viewBox="0 -2048 2048 2048">
	<path fill="currentColor" d="M1715 -144H1038L1054 244Q1054 303 995 303Q931 303 931 244L952 -143H508Q506 -143 386 -113Q382 -110 382 -105L417 -1Q399 3 368 11Q359 -34 321 -106Q141 -118 141 -233Q141 -246 147 -279Q150 -295 166 -310Q145 -325 124 -340Q101 -360 100 -383Q104 -386 110 -386Q118 -386 141 -377.5Q164 -369 175 -369H229Q233 -370 231 -374Q198 -465 164 -557Q110 -711 110 -759Q110 -809 152 -840Q188 -867 230 -867Q278 -867 315 -814Q346 -770 346 -731Q346 -705 331 -673Q315 -638 297 -636Q288 -636 275 -653Q279 -683 279 -709Q279 -805 225 -805Q209 -805 187.5 -784.5Q166 -764 166 -751Q166 -745 185 -685Q246 -493 294 -375Q324 -369 385 -351Q403 -344 454 -313Q498 -287 505 -287Q510 -287 580 -302Q654 -319 671 -321Q800 -339 953 -348Q962 -357 962 -365Q901 -374 880 -433Q845 -530 835 -543Q823 -539 801 -518Q779 -497 774 -497Q769 -497 747 -508Q738 -557 802 -615Q864 -670 911 -666V-1264Q911 -1277 888 -1309Q887 -1311 840 -1362Q808 -1397 808 -1418Q808 -1493 915 -1493Q921 -1493 935 -1492Q949 -1491 954 -1491Q997 -1491 1045 -1437Q1090 -1386 1090 -1347V-665Q1249 -605 1249 -525Q1249 -516 1231 -497Q1170 -543 1167 -543Q1154 -543 1134 -509Q1102 -455 1072 -401Q1064 -386 1041 -377Q1023 -370 1023 -358Q1246 -341 1450 -291L1501 -758H1690ZM1064 -668V-1352Q1064 -1379 1029 -1419Q994 -1459 965 -1465Q931 -1472 910 -1472Q833 -1472 833 -1421Q833 -1414 865 -1374Q904 -1326 914 -1309Q924 -1292 931 -1264L937 -668Q963 -672 989 -677Q1024 -680 1064 -668ZM1212 -557Q1174 -602 1106 -631Q1047 -656 1000 -656Q939 -656 872 -627Q791 -592 778 -539Q805 -564 833 -564Q861 -564 877 -519Q903 -442 908 -434Q935 -389 990 -389Q1047 -389 1091.5 -479Q1136 -569 1170 -569Q1198 -569 1212 -557ZM1690 -164L1669 -738H1522Q1507 -583 1473 -275Q1470 -270 1466 -266Q1192 -333 1031 -333Q828 -333 517 -266H507Q478 -266 427 -302Q371 -340 339.5 -345.5Q308 -351 242 -348Q173 -345 156 -347Q189 -327 241 -322Q321 -314 321 -314V-301Q308 -292 271 -292Q265 -292 240.5 -294.5Q216 -297 210 -297Q166 -297 166 -251Q166 -167 220 -142Q252 -128 346 -128Q353 -128 420 -146Q487 -164 493 -164ZM1002 -355Q1002 -359 996 -368Q994 -368 982 -355ZM1028 229L1007 -142H978L957 237Q957 264 958 266Q964 283 992 283Q1019 283 1025 271Q1028 265 1028 229ZM320 -726Q320 -768 298 -800Q272 -841 223 -841Q135 -841 135 -756Q135 -737 148 -693L251 -380H260L157 -693Q141 -756 141 -756Q141 -781 176 -805Q206 -826 225 -826Q307 -826 307 -713Q307 -691 304 -667Q320 -686 320 -726Z"/>
</svg>