<svg xmlns="http://www.w3.org/2000/svg" viewBox="0 -2048 2048 2048">
	<path fill="#000000" d="M1872 -178Q1779 -122 1565 -122L1082 -163H962L978 221Q978 253 970 264Q959 279 920 279Q856 279 856 221L877 -144Q869 -148 849 -145Q677 -117 615 -117Q548 -117 518 -128Q478 -143 432 -194Q338 -300 323 -300Q317 -300 280 -295Q243 -290 237 -290Q202 -290 156 -308Q100 -329 100 -358Q100 -441 206 -471Q193 -487 143 -535Q100 -575 100 -579Q100 -584 105 -596.5Q110 -609 110 -614H127Q129 -614 280 -493Q282 -494 345 -563Q403 -625 417 -625Q425 -625 435 -613.5Q445 -602 445 -594Q445 -591 354 -485Q419 -431 458 -385Q483 -351 536 -289Q541 -284 572 -284Q611 -284 738 -319Q810 -339 883 -360L887 -364V-373Q883 -377 873 -384Q823 -397 798 -456Q783 -505 767 -554Q745 -544 702 -513H680Q674 -514 674 -526Q674 -575 724 -624Q774 -673 831 -675V-1292Q831 -1315 795 -1349Q770 -1371 746 -1393Q735 -1408 735 -1420Q735 -1451 771 -1481Q793 -1499 841 -1499Q895 -1499 954.5 -1449Q1014 -1399 1014 -1349V-680Q1061 -673 1116 -624Q1171 -575 1171 -541Q1171 -542 1154 -508Q1103 -559 1098 -559Q1076 -559 1047 -505Q1032 -474 1017 -443Q995 -404 948 -383Q956 -363 989 -358Q1022 -353 1053 -348Q1106 -333 1242 -281Q1351 -238 1428 -225Q1498 -213 1542 -213L1751 -223Q1845 -223 1872 -208ZM988 -681V-1359Q988 -1393 929 -1437Q875 -1478 849 -1478Q824 -1478 797 -1467Q760 -1451 760 -1425Q760 -1405 771 -1397Q790 -1387 819 -1363Q856 -1307 857 -1277V-681Q888 -685 924 -685Q960 -685 988 -681ZM1126 -583Q1098 -622 1030 -646Q974 -665 925 -665Q860 -665 798 -639Q718 -605 705 -544Q729 -557 772 -579Q791 -561 801 -519Q807 -494 812 -469Q827 -432 878 -408Q882 -406 915 -406Q945 -406 951 -408Q969 -414 1014 -502Q1056 -584 1101 -584Q1128 -584 1126 -583ZM1847 -192H1484Q1457 -198 1408 -206Q1336 -214 1172 -282Q1019 -345 935 -345Q880 -345 746.5 -302Q613 -259 575 -259Q532 -259 446 -360.5Q360 -462 305 -462Q252 -462 194 -441Q120 -414 120 -371Q120 -344 171 -327Q209 -315 244 -315Q251 -315 280.5 -317.5Q310 -320 315 -320Q358 -320 407 -261Q477 -176 492 -164Q516 -146 565 -143Q639 -138 643 -137L1004 -188L1591 -142Q1642 -142 1742 -164Q1827 -183 1847 -192ZM416 -596L409 -601L320 -502L327 -497ZM953 206L937 -157Q905 -152 898 -152L882 211Q882 240 883 243Q888 259 917 259Q944 259 950 248Q953 241 953 206ZM236 -492L132 -591L125 -586L230 -487ZM292 -425Q292 -421 271 -402H242Q242 -404 239.5 -407Q237 -410 237 -417Q237 -425 259 -447Q281 -436 292 -425Z"/>
</svg>