<svg xmlns="http://www.w3.org/2000/svg" viewBox="0 -2048 2048 2048">
	<path fill="#000000" d="M618 -606Q618 -592 590 -592Q586 -592 584 -594Q558 -636 532 -636Q520 -636 484 -571Q445 -499 399 -476V-101Q470 -87 517.5 -30.5Q565 26 565 100Q565 184 504 245H550V325H168V245H214Q153 184 153 100Q153 26 200.5 -30.5Q248 -87 319 -101V-476Q273 -499 234 -571Q198 -636 186 -636Q160 -636 134 -594Q131 -592 128 -592Q100 -592 100 -606Q100 -615 115.5 -639Q131 -663 131 -672V-1371Q131 -1430 217 -1479Q293 -1522 359 -1522Q425 -1522 501 -1479Q587 -1430 587 -1371V-672Q587 -663 602.5 -639Q618 -615 618 -606ZM560 -711V-1373Q560 -1420 481 -1460Q412 -1495 359 -1495Q306 -1495 237 -1460Q158 -1420 158 -1373V-711Q198 -749 262 -767V-1236Q262 -1257 301 -1275Q334 -1291 359 -1291Q384 -1291 417 -1275Q456 -1257 456 -1236V-767Q520 -749 560 -711ZM430 -773V-1229Q430 -1242 402.5 -1253Q375 -1264 359 -1264Q343 -1264 317 -1254Q288 -1242 288 -1229V-773Q324 -780 359 -780Q394 -780 430 -773ZM568 -652Q516 -750 359 -750Q202 -750 150 -652Q176 -666 188 -666Q219 -666 265 -582Q311 -498 359 -498Q407 -498 453 -582Q499 -666 530 -666Q542 -666 568 -652ZM369 -105V-468H349V-105ZM535 100Q535 28 483.5 -23.5Q432 -75 359 -75Q286 -75 234.5 -23.5Q183 28 183 100Q183 172 234.5 223.5Q286 275 359 275H195V295H524V275H359Q432 275 483.5 223.5Q535 172 535 100ZM505 100Q505 160 462 202.5Q419 245 359 245Q299 245 256 202.5Q213 160 213 100Q213 40 256 -2.5Q299 -45 359 -45Q419 -45 462 -2.5Q505 40 505 100ZM475 100Q475 20 399 -8V208Q475 180 475 100ZM369 215V-15H349V215ZM319 208V-8Q243 20 243 100Q243 180 319 208Z"/>
</svg>