<svg xmlns="http://www.w3.org/2000/svg" viewBox="0 -2048 2048 2048">
	<path fill="currentColor" d="M1870 -361Q1838 -338 1732 -318Q1633 -299 1570 -299L1051 -340H969V285H882V-322Q882 -329 860 -325Q677 -294 635 -294Q522 -294 461 -341Q440 -358 390 -429Q358 -476 312 -476Q306 -476 276.5 -471Q247 -466 241 -466Q200 -466 156 -486Q100 -510 100 -549Q100 -593 216 -651Q185 -679 154 -707Q105 -750 105 -764Q105 -794 130 -794Q137 -794 193 -746Q274 -676 284 -668Q314 -701 344 -734Q404 -799 418 -799Q435 -799 441 -788Q444 -777 448 -766L357 -660Q389 -635 447 -581Q477 -546 506 -510Q551 -463 581 -461L882 -536V-1025Q989 -1081 1032 -1124Q1089 -1181 1089 -1258Q1089 -1302 1060 -1343Q1028 -1389 983 -1389Q905 -1389 862 -1332Q825 -1283 825 -1210Q825 -1172 836 -1138L718 -1056Q702 -1072 680 -1115Q728 -1152 754 -1180Q749 -1212 749 -1242Q749 -1346 806 -1413Q863 -1480 957 -1480Q1054 -1480 1122 -1414Q1190 -1348 1190 -1258Q1190 -1097 970 -962V-546Q1043 -531 1112 -509Q1189 -478 1266 -448Q1387 -400 1435 -400H1842Q1853 -400 1870 -384ZM1164 -1258Q1164 -1339 1102.5 -1399.5Q1041 -1460 955 -1460Q883 -1460 832.5 -1404.5Q782 -1349 767 -1266Q764 -1250 770 -1219Q778 -1178 779 -1170Q754 -1146 710 -1104Q715 -1099 717 -1092Q763 -1115 811 -1149Q799 -1186 799 -1221Q799 -1302 855 -1356Q908 -1409 983 -1409Q1039 -1409 1078 -1360Q1114 -1315 1114 -1260Q1114 -1191 1051.5 -1115Q989 -1039 903 -1010V-542H947V-977Q1067 -1054 1110 -1105Q1164 -1169 1164 -1258ZM1840 -368L1530 -375Q1468 -377 1374 -386Q1310 -401 1199 -445Q1074 -494 1041 -504Q984 -521 932 -521Q879 -521 744.5 -478.5Q610 -436 577 -436Q539 -436 449.5 -536.5Q360 -637 307 -637Q267 -637 259 -636Q234 -633 188 -611Q125 -581 125 -547Q125 -491 236 -491Q245 -491 281 -496Q317 -501 322 -501Q359 -501 422 -421Q489 -336 536 -326Q577 -322 647 -315L1021 -365L1558 -325Q1735 -325 1840 -368ZM423 -767L411 -770Q353 -712 323 -663Q338 -678 371.5 -713.5Q405 -749 423 -767ZM947 260V-334Q932 -334 917.5 -331.5Q903 -329 903 -329V260ZM258 -657L149 -750L144 -743L253 -651ZM291 -588Q289 -588 282.5 -582.5Q276 -577 269 -577Q265 -577 241 -589Q250 -609 263 -622Q276 -622 291 -606Z"/>
</svg>