<svg xmlns="http://www.w3.org/2000/svg" viewBox="21.4 -1674.6 1668.2 2122.2">
	<path fill="currentColor" d="M978 -386L974 -376H913L886 -413V-464L876 -474L853 -458Q853 -376 802 -376Q759 -376 757 -394L784 -433L788 -489L837 -534V-1059Q837 -1176 808 -1176Q770 -1090 755 -1018Q748 -984 744 -973Q735 -950 716 -936L687 -947Q681 -959 681 -975Q681 -1001 704 -1125.5Q727 -1250 735 -1266Q803 -1392 816 -1422Q852 -1500 868 -1590L876 -1588L880 -1596Q941 -1578 941 -1446Q941 -1362 843 -1231Q907 -1225 907 -1059L911 -538L956 -497V-425Q966 -410 978 -386ZM1611 369H1476V-135Q1476 -278 1366 -278Q1362 -278 1298 -224Q1227 -163 1222 -160Q1314 -103 1349 -22Q1349 41 1292 41Q1261 41 1241 21L1181 -131L1126 -94Q1237 -2 1237 62Q1237 80 1219.5 100Q1202 120 1185 121Q1127 99 1106 42Q1099 23 1085 -72Q1048 -49 1024 -43Q1062 8 1093 127Q1085 164 1036 178Q986 164 973 137Q964 119 964 62Q964 14 970 -28L876 -22Q919 94 919 144Q919 164 895 182.5Q871 201 850 201Q796 201 796 133Q796 82 833 -20Q819 -20 787.5 -21Q756 -22 739 -22Q744 21 757 92Q739 178 690 178Q667 178 649.5 160Q632 142 632 119Q632 52 692 -39Q645 -59 620 -72Q620 88 549 129Q479 106 479 64Q479 -9 585 -90Q557 -103 520 -125Q500 58 422 58Q384 58 358 -2Q358 -68 485 -147Q453 -184 421 -222Q373 -274 348 -274Q306 -274 270.5 -233.5Q235 -193 235 -151V369H100V-237Q100 -281 145.5 -324.5Q191 -368 235 -368H1471Q1515 -368 1563 -322.5Q1611 -277 1611 -233ZM917 -1444V-1448Q917 -1560 886 -1561Q872 -1462 776 -1293Q749 -1246 728 -1134Q708 -1032 708 -965Q718 -971 730 -1022Q743 -1081 767 -1137Q774 -1153 855 -1290Q915 -1391 915 -1446ZM943 -401L931 -417V-485L888 -526L882 -575V-1059Q882 -1129 879 -1148Q869 -1205 829 -1211L823 -1201Q861 -1171 861 -1059V-521L812 -476Q812 -421 800 -401Q824 -401 829 -427Q830 -431 829 -472L880 -507L911 -476V-421L925 -401ZM1325 -24Q1294 -77 1208 -139L1261 4Q1274 17 1290 17Q1325 -3 1325 -24ZM1210 62Q1210 6 1110 -76Q1131 94 1185 94Q1210 94 1210 62ZM1067 123Q1067 70 999 -35Q989 7 989 70Q989 152 1034 152Q1067 152 1067 123ZM1587 345V-229Q1587 -267 1546 -305Q1505 -343 1466 -343H240Q204 -343 164.5 -306Q125 -269 125 -233V345H211V-151Q211 -202 255.5 -251.5Q300 -301 350 -301Q372 -301 425 -247Q460 -209 495 -172Q541 -127 638.5 -86Q736 -45 798 -45H830Q919 -45 968 -55Q1041 -70 1122 -121Q1132 -127 1251 -222Q1354 -303 1368 -303Q1501 -303 1501 -135V345ZM888 141Q888 78 856 -8Q821 97 821 133Q821 178 858 178Q863 178 886 154Q888 150 888 141ZM733 92L712 -24Q657 55 657 119Q657 152 688 152Q711 152 733 92ZM596 -65Q503 1 503 62Q503 97 551 101Q596 93 596 -65ZM493 -123Q463 -105 428 -69Q385 -26 385 -2Q385 7 400 19Q415 31 424 31Q469 31 493 -123ZM790 -1227L774 -1170L749 -1178L765 -1235Z"/>
</svg>