<svg xmlns="http://www.w3.org/2000/svg" viewBox="32 -1459 1837.1 1802.1">
	<path fill="currentColor" d="M1801 -640Q1779 -629 1773 -629Q1767 -629 1744 -638.5Q1721 -648 1715 -648Q1695 -648 1670 -601Q1656 -570 1641.5 -541Q1627 -512 1577 -464V245Q1577 260 1537 275Q1521 275 1492 245V-196H991V245Q991 260 951 275Q935 275 906 245V-196H405V245Q405 260 365 275Q349 275 320 245V-459Q273 -475 255 -527Q241 -572 228 -616Q219 -634 194 -634Q188 -634 165.5 -627Q143 -620 137 -620Q100 -620 100 -660Q100 -666 102 -672Q135 -687 168 -702Q206 -720 214 -742Q263 -885 263 -1142V-1284Q263 -1289 258 -1324Q251 -1365 249 -1391H481Q468 -1261 468 -1246Q468 -1193 491 -979Q516 -750 530 -738Q563 -714 629 -666V-640Q607 -629 601 -629Q595 -629 572.5 -638.5Q550 -648 544 -648Q526 -648 497 -594Q481 -562 466 -531Q441 -493 405 -464V-306H906V-446Q906 -456 892 -463Q883 -469 873 -474Q850 -494 837 -543Q817 -610 814 -617Q806 -634 780 -634Q774 -634 751 -627Q728 -620 722 -620Q716 -620 703.5 -625Q691 -630 687 -630V-671Q730 -688 795 -738Q801 -747 817 -865Q849 -1102 849 -1156V-1279Q849 -1283 844 -1321Q837 -1365 835 -1391H1067Q1053 -1321 1053 -1246Q1053 -1267 1075 -1003Q1079 -937 1083 -871Q1091 -787 1112 -742Q1122 -720 1157 -700Q1186 -683 1215 -666V-640Q1193 -629 1187 -629Q1181 -629 1158.5 -638.5Q1136 -648 1130 -648Q1111 -648 1084 -599Q1068 -565 1051 -531Q1029 -495 991 -464V-306H1492V-422Q1489 -433 1485 -459Q1443 -478 1425 -531Q1412 -574 1399 -617Q1389 -639 1370 -639Q1364 -639 1339 -629.5Q1314 -620 1308 -620Q1302 -620 1289.5 -625Q1277 -630 1273 -630V-671Q1315 -689 1381 -738Q1385 -744 1404 -870Q1434 -1077 1434 -1220Q1434 -1241 1421 -1391H1638Q1648 -1383 1645 -1346Q1639 -1279 1639 -1244Q1639 -1263 1661 -999Q1665 -934 1669 -869Q1676 -787 1697 -742Q1707 -720 1742 -700Q1772 -683 1801 -666ZM1672 -749V-766Q1658 -802 1637 -976Q1615 -1158 1615 -1251Q1615 -1255 1617.5 -1299.5Q1620 -1344 1621 -1361L1614 -1367Q1534 -1367 1485 -1364Q1444 -1362 1445 -1362Q1445 -1350 1449 -1326Q1453 -1302 1453 -1298V-1122L1407 -744Q1488 -768 1551 -768Q1627 -768 1672 -749ZM1777 -654Q1694 -749 1546 -749Q1433 -749 1297 -662V-644Q1368 -658 1368 -658Q1407 -658 1423 -611Q1437 -568 1451 -524Q1477 -477 1542 -477Q1557 -477 1588 -504.5Q1619 -532 1628 -550Q1641 -583 1654 -617Q1681 -672 1713 -672Q1702 -672 1777 -654ZM1086 -749V-766Q1065 -828 1046 -1031Q1030 -1199 1030 -1251Q1030 -1272 1036 -1336Q1038 -1362 1028 -1367Q948 -1367 899 -1364Q858 -1362 859 -1362Q868 -1281 868 -1226V-1113L821 -744Q901 -768 965 -768Q1041 -768 1086 -749ZM1553 246V-457Q1526 -457 1516 -462V241Q1533 252 1553 246ZM1191 -654Q1108 -749 961 -749Q847 -749 711 -662V-644Q782 -658 784 -658Q818 -658 836 -611Q869 -525 870 -524Q898 -477 958 -477Q972 -477 1000 -501Q1028 -525 1037 -540Q1052 -575 1067 -610Q1098 -672 1127 -672Q1116 -672 1191 -654ZM1491 -221V-286H992V-221ZM500 -749V-771Q500 -776 489 -827Q476 -884 474 -904Q468 -946 452 -1156Q444 -1259 444 -1253Q444 -1283 450 -1332Q453 -1359 443 -1367L273 -1362Q285 -1282 285 -1193Q285 -1103 238 -744Q323 -768 382 -768Q456 -768 500 -749ZM967 246V-457Q940 -457 930 -462V241Q947 252 967 246ZM605 -654Q574 -695 502 -723Q435 -749 375 -749Q261 -749 125 -662V-644Q196 -658 201 -658Q240 -658 255 -611Q270 -568 284 -524Q309 -477 372 -477Q383 -477 410.5 -496Q438 -515 447 -531Q453 -541 461 -560Q487 -672 542 -672Q530 -672 605 -654ZM905 -221V-286H407V-221ZM381 246V-457Q355 -457 345 -462V241Q362 252 381 246Z"/>
</svg>