<svg xmlns="http://www.w3.org/2000/svg" viewBox="0 -2048 2048 2048">
	<path fill="currentColor" d="M1850 26H1074V265Q1074 296 1031 296Q988 296 988 265V26H100Q121 -114 242 -250Q372 -396 506 -396H988V-463Q988 -472 961 -498Q928 -529 925 -533Q922 -537 897 -609Q876 -667 857 -667Q845 -667 822 -659.5Q799 -652 787 -652Q752 -652 752 -684Q752 -709 800 -740Q839 -765 871 -774Q888 -920 901 -1070Q913 -1211 913 -1267V-1459H1149V-1267Q1149 -1211 1161 -1070Q1174 -920 1191 -774Q1223 -765 1262 -740Q1310 -709 1310 -684Q1310 -652 1275 -652Q1263 -652 1240 -659.5Q1217 -667 1205 -667Q1186 -667 1165 -609Q1140 -537 1137 -533Q1134 -529 1101 -498Q1074 -472 1074 -463V-396H1850V-370H1074V0H1850ZM1164 -783Q1123 -1123 1123 -1267V-1433H939V-1267Q939 -1123 898 -783Q975 -808 1031 -808Q1087 -808 1164 -783ZM1284 -684Q1284 -713 1184 -748Q1088 -782 1031 -782Q912 -782 813 -717Q778 -694 778 -684Q778 -678 787 -678Q799 -678 822 -685.5Q845 -693 857 -693Q894 -693 915 -635Q945 -550 947 -548Q981 -501 1031 -501Q1081 -501 1115 -548Q1117 -551 1147 -635Q1168 -693 1205 -693Q1217 -693 1240 -685.5Q1263 -678 1275 -678Q1284 -678 1284 -684ZM1051 -477Q1041 -475 1034 -475H1027Q1021 -475 1011 -477Q1014 -470 1014 -463V263Q1020 270 1031 270Q1035 269 1048 265V-463Q1048 -470 1051 -477ZM988 0V-370H506Q391 -370 269 -241Q157 -121 131 0Z"/>
</svg>