<svg xmlns="http://www.w3.org/2000/svg" viewBox="32.8 -1499.2 1815.5 1815.5">
	<path fill="currentColor" d="M1781 -322Q1781 -238 1780 -220H1078V229Q1057 249 1041 249Q1031 249 1001 229V-218H512L393 -190Q389 -193 389 -182Q389 -175 432 -75Q416 -69 385 -59Q369 -99 337 -178Q148 -182 148 -307Q148 -359 172 -389Q171 -390 135 -411Q108 -427 100 -451V-467L112 -478Q121 -469 136 -465Q176 -454 208 -454Q224 -454 240 -463Q240 -456 177 -643.5Q114 -831 114 -876Q114 -923 164 -950Q201 -970 234 -970Q291 -970 329 -919Q360 -875 360 -830Q360 -812 342.5 -777Q325 -742 314 -734Q296 -741 284 -755Q294 -784 294 -822Q294 -912 230 -912Q210 -912 188.5 -893.5Q167 -875 167 -856Q167 -822 301 -460Q342 -461 407 -447Q425 -436 473 -399Q513 -367 519 -367Q522 -367 606 -385Q697 -405 728 -409Q770 -415 997 -439L1001 -443V-490Q987 -495 968 -508Q960 -519 919 -607Q887 -676 868 -676Q864 -676 833 -671Q796 -664 775 -662Q775 -664 772 -669Q769 -674 769 -681Q769 -716 811 -739Q850 -757 888 -776Q938 -1165 938 -1273Q938 -1315 919 -1432H1143Q1154 -1424 1151 -1386Q1145 -1312 1145 -1266Q1145 -1231 1153 -1117Q1159 -1029 1182 -895Q1183 -850 1204 -776Q1216 -759 1253 -738Q1298 -712 1314 -698Q1314 -698 1299 -675Q1290 -661 1278 -661Q1272 -661 1247.5 -671Q1223 -681 1217 -681Q1196 -681 1157 -591Q1149 -572 1133 -542Q1123 -528 1077 -494V-444Q1258 -422 1310 -414Q1439 -395 1517 -372L1565 -863H1761ZM1178 -777V-794Q1126 -1015 1126 -1261Q1126 -1263 1126 -1323Q1125 -1383 1125 -1410H948Q955 -1355 955 -1283Q955 -1208 910 -778Q1000 -796 1058 -796Q1130 -796 1178 -777ZM1285 -686Q1210 -777 1037 -777Q978 -777 896 -747Q806 -715 794 -681Q892 -700 873 -700Q900 -700 934 -623Q974 -534 987 -523Q1000 -512 1039 -512Q1092 -512 1139 -608.5Q1186 -705 1212 -705Q1218 -705 1238.5 -695.5Q1259 -686 1264 -686ZM1058 -440V-492H1020V-440ZM1766 -243L1742 -839H1584Q1556 -528 1538 -366Q1535 -359 1527 -348Q1223 -416 1051 -416Q841 -416 559 -356Q521 -348 519 -348Q502 -348 445.5 -391.5Q389 -435 362 -435H170Q157 -435 133 -441Q187 -396 263 -396Q341 -396 331 -398L327 -381L225 -382Q172 -382 172 -312Q172 -204 307 -204Q348 -204 431 -223Q471 -233 512 -243ZM1058 219V-217H1020V214Q1038 225 1058 219ZM336 -837Q336 -876 304.5 -913Q273 -950 234 -950Q208 -950 173 -928Q133 -903 133 -876Q133 -838 196 -650Q256 -475 266 -459L143 -864Q151 -888 180 -912Q209 -936 234 -936Q274 -936 298 -893Q316 -859 316 -823Q316 -791 308 -763Q336 -811 336 -837ZM402 -88L365 -185L358 -182L395 -88Z"/>
</svg>