<svg xmlns="http://www.w3.org/2000/svg" viewBox="24 -1637 2053.1 2041.1">
	<path fill="currentColor" d="M2001 -170Q2001 -132 1844 -107Q1733 -89 1676 -89L1113 -133V294Q1114 328 1067 328Q1033 328 1016 299V-122Q983 -124 869 -104Q748 -83 685 -83Q549 -83 497 -123Q494 -125 425 -213Q373 -278 328 -278Q322 -278 292 -272.5Q262 -267 255 -267Q208 -267 160 -289Q100 -316 100 -360Q100 -416 225 -467Q192 -496 159 -524Q106 -572 106 -590Q106 -604 136 -625L298 -484Q315 -501 380 -575Q428 -630 436 -630Q469 -630 469 -595Q469 -580 426 -532Q401 -504 376 -476Q411 -449 473 -391Q504 -354 535 -317Q586 -262 617 -262Q629 -262 850 -325Q934 -349 1012 -349Q1016 -353 1016 -502Q965 -524 942 -583Q927 -632 911 -681Q900 -706 877 -706Q870 -706 840.5 -698Q811 -690 804 -690Q784 -690 767 -697V-743Q816 -764 889 -819Q897 -831 916 -964Q951 -1214 951 -1383Q951 -1447 929 -1561H1181Q1194 -1555 1190 -1516Q1183 -1449 1183 -1394Q1183 -1368 1192 -1256Q1202 -1168 1219 -1002Q1224 -941 1250 -829Q1254 -818 1313 -778Q1368 -739 1368 -722Q1368 -708 1355 -695H1328Q1322 -695 1301 -706Q1280 -717 1273 -717Q1249 -717 1211 -649Q1194 -613 1176 -577Q1152 -539 1113 -507V-342Q1128 -336 1268 -282Q1330 -256 1392 -230Q1478 -197 1528 -197H1971Q2001 -197 2001 -170ZM1221 -837V-856Q1204 -874 1179 -1105Q1156 -1321 1156 -1408Q1156 -1413 1159.5 -1461Q1163 -1509 1163 -1528L1155 -1535H973Q960 -1524 964 -1502Q972 -1463 972 -1466V-1256L919 -826Q999 -850 1014 -852Q1017 -852 1083 -852Q1163 -852 1221 -837ZM1340 -724Q1252 -831 1078 -831Q945 -831 800 -738Q794 -732 794 -718Q911 -733 886 -733Q921 -733 937 -680Q966 -587 970 -580Q999 -527 1064 -527Q1129 -527 1179.5 -635.5Q1230 -744 1273 -744Q1257 -744 1340 -724ZM1085 -344V-500Q1080 -500 1066 -502.5Q1052 -505 1043 -505V-350Q1073 -350 1085 -344ZM1969 -162L1511 -175Q1443 -192 1317 -231Q1074 -327 991 -327Q940 -327 789.5 -281Q639 -235 609 -235Q576 -235 477.5 -343.5Q379 -452 333 -452Q256 -452 227 -444Q209 -439 172 -411Q127 -377 127 -354Q127 -295 244 -295Q252 -295 291.5 -300Q331 -305 336 -305Q388 -305 445 -220Q505 -130 579 -117Q619 -110 691 -110Q774 -110 928 -134.5Q1082 -159 1089 -159L1663 -116Q1864 -116 1969 -162ZM1085 300V-137Q1069 -137 1056 -134Q1043 -131 1043 -131V294Q1060 304 1085 300ZM443 -594L438 -600L329 -483H350ZM263 -481L144 -586L139 -580L246 -477ZM306 -417Q306 -402 276 -387Q273 -390 264 -396.5Q255 -403 252 -406Q254 -408 261.5 -418.5Q269 -429 275 -435Q288 -435 306 -417Z"/>
</svg>