<svg xmlns="http://www.w3.org/2000/svg" viewBox="0 -2048 2048 2048">
	<path fill="currentColor" d="M1904 -188H1224V285Q1224 293 1205.5 308Q1187 323 1178 323Q1153 323 1132 291V-187H867Q813 -175 703 -153Q711 -128 729 -85Q726 -85 716.5 -82Q707 -79 704 -79Q696 -106 674 -155Q614 -152 580 -185Q549 -215 549 -262Q549 -306 574 -329Q545 -345 534 -355Q513 -373 513 -393Q494 -391 572 -383H586Q590 -386 590 -391L412 -842L341 -173H317Q319 -191 327 -230Q306 -244 273 -244Q256 -244 250 -227Q244 -205 238 -183Q235 -183 226 -185.5Q217 -188 214 -188Q221 -207 234 -242Q234 -247 225 -253Q218 -254 193.5 -259.5Q169 -265 162 -265Q147 -265 139 -244Q131 -223 124 -203Q115 -203 108 -206Q101 -209 100 -209L400 -909Q413 -909 417 -903Q435 -857 467 -774Q518 -643 625 -384Q672 -388 764 -371Q778 -365 820 -336Q856 -311 863 -311Q891 -311 1132 -366Q1132 -382 1129.5 -420.5Q1127 -459 1127 -477Q1095 -485 1082 -508Q1064 -556 1027 -648Q1019 -667 1000 -667Q994 -667 976.5 -659.5Q959 -652 953 -652H901L894 -658V-702Q937 -727 1012 -775Q1018 -779 1043 -1011Q1070 -1248 1070 -1314Q1070 -1372 1050 -1481H1290Q1303 -1472 1300 -1448Q1296 -1425 1293 -1402Q1291 -1322 1291 -1330Q1291 -1232 1317 -1008Q1343 -789 1354 -780Q1392 -753 1467 -696V-669Q1456 -657 1438 -657Q1432 -657 1406 -667Q1380 -677 1374 -677Q1353 -677 1322 -621Q1306 -588 1289 -555Q1264 -515 1224 -478V-372Q1313 -375 1454 -361Q1552 -341 1661 -321H1679L1720 -718H1889ZM1327 -786V-804Q1310 -842 1287 -1047Q1266 -1243 1266 -1332Q1266 -1337 1269 -1384Q1272 -1431 1272 -1449L1264 -1456Q1162 -1456 1110 -1453Q1066 -1450 1081 -1450Q1081 -1437 1085.5 -1411Q1090 -1385 1090 -1381V-1201L1040 -781Q1136 -806 1196 -806Q1266 -806 1327 -786ZM1441 -684Q1340 -786 1188 -786Q1040 -786 922 -692Q921 -687 921 -678H953Q958 -678 977.5 -685.5Q997 -693 1003 -693Q1033 -693 1052 -642Q1083 -555 1088 -548Q1117 -497 1175 -497Q1244 -497 1288 -597.5Q1332 -698 1377 -698Q1400 -698 1441 -684ZM1884 -208L1863 -697H1741Q1726 -545 1697 -299Q1694 -294 1690 -290Q1457 -347 1309 -347Q1189 -347 1020.5 -318.5Q852 -290 866 -290Q844 -290 799 -326.5Q754 -363 680 -363Q647 -363 631 -350Q654 -322 700 -342Q710 -323 709 -320Q678 -311 660 -311Q652 -311 635 -316Q618 -321 613 -321Q574 -321 574 -265Q574 -177 654 -177H734Q741 -177 793 -192.5Q845 -208 851 -208ZM1198 -369V-470Q1170 -470 1158 -476V-369ZM1198 291V-186H1158V286Q1177 297 1198 291ZM606 -353L570 -364V-357L603 -345ZM382 -811L162 -287Q196 -284 326 -260Z"/>
</svg>