<svg xmlns="http://www.w3.org/2000/svg" viewBox="0 0 995 1000">
  <g transform="scale(1,-1) translate(0,-1000)">
    <path d="M203 533H645L896 975Q902 986 915 986Q921 986 926 983L952 969Q964 963 964 950Q964 947 962 941L707 356L993 51Q995 47 995 43Q995 32 985 29L907 1Q905 0 902 0Q895 0 888 8L668 266L555 13Q548 0 534 0Q526 0 521 4L433 70Q424 76 424 87Q424 96 447.5 131.5Q471 167 472 191V193Q472 210 455 216Q455 215 448.0 205.0Q441 195 434 188Q428 182 419.0 182.0Q410 182 393.5 196.0Q377 210 351.0 224.0Q325 238 292 238Q285 238 267.5 237.0Q250 236 239 236H228Q208 238 206 256L185 463Q176 462 150.0 457.0Q124 452 109 452Q98 452 90.0 453.5Q82 455 67.5 461.0Q53 467 45.0 483.5Q37 500 37 526Q37 536 38.5 557.0Q40 578 40 588Q40 607 31.5 630.0Q23 653 23 670Q23 697 31 715Q0 721 0 746Q0 766 24 780Q57 799 76 799Q105 799 140.0 766.0Q175 733 175 682Q175 654 150.0 619.5Q125 585 125 573Q125 533 203 533ZM910 34 958 51 693 322 684 302ZM166 500Q158 502 148.5 505.5Q139 509 124.5 517.5Q110 526 100.5 540.5Q91 555 91 573Q91 596 116.0 630.0Q141 664 141 682Q141 709 126.0 729.5Q111 750 97.0 757.5Q83 765 76 765Q65 765 37 748Q47 747 47 747Q52 747 65.5 748.5Q79 750 88 750Q109 750 109 733Q109 720 88.5 714.5Q68 709 66 707Q57 698 57 670Q57 659 65.5 635.5Q74 612 74 588Q74 577 72.5 556.0Q71 535 71 526Q71 512 72.5 505.0Q74 498 84.0 491.5Q94 485 113 485Q139 485 166 500ZM414 235Q425 251 430.5 255.0Q436 259 453 262Q453 262 456.5 261.5Q460 261 461 261Q488 255 502.5 235.5Q517 216 517 193V188Q516 173 511.0 158.0Q506 143 502.5 136.0Q499 129 488.5 113.5Q478 98 476 94L525 57L860 821L679 500Q673 489 659 489H227L249 281Q256 281 270.0 282.0Q284 283 292 283Q319 283 342.5 275.5Q366 268 378.5 260.0Q391 252 414 235Z" fill="currentColor"/>
  </g>
</svg>