<svg xmlns="http://www.w3.org/2000/svg" viewBox="0 -2048 2048 2048">
	<path fill="currentColor" d="M1937 -257H1072V160Q1085 170 1097 179Q1112 191 1114 209Q1113 227 1115 266Q1122 280 1134 315H1073Q1057 302 1046 272Q1045 269 1045 235Q1045 227 1037 227Q1021 227 1012.5 271.5Q1004 316 961 316Q948 316 924 304Q934 290 949 265Q948 247 952 213Q958 194 975 181Q989 171 1003 160V-256H560Q536 -256 419 -230Q415 -226 415 -220Q415 -220 462 -95Q455 -93 434 -89Q413 -85 406 -83Q378 -163 353 -218Q147 -213 147 -367Q147 -379 158.5 -408.5Q170 -438 179 -443Q159 -455 138 -466Q108 -486 100 -510V-528Q101 -535 113 -535Q120 -535 143.5 -525Q167 -515 176 -513L258 -518Q114 -887 114 -959Q114 -1008 158 -1046Q199 -1081 242 -1081Q298 -1081 340 -1027Q378 -980 378 -934Q378 -909 368 -872Q354 -823 334 -823Q324 -823 300 -835Q306 -854 306 -897Q306 -1007 247 -1007Q220 -1007 197 -989.5Q174 -972 174 -955Q174 -919 320 -519Q359 -515 429 -496Q472 -463 552 -424L1003 -492V-1035Q1003 -1042 975 -1070Q945 -1011 932.5 -971.5Q920 -932 896 -851Q891 -834 872 -834Q865 -834 856.5 -837Q848 -840 846 -840V-878Q846 -883 858 -936Q872 -995 875 -1015Q875 -1069 889 -1173Q920 -1224 980 -1326Q1014 -1385 1035 -1516Q1037 -1516 1041 -1519Q1045 -1522 1053 -1522Q1083 -1522 1100 -1472Q1113 -1434 1113 -1396Q1113 -1293 1013 -1141Q1071 -1068 1071 -1063V-502Q1120 -502 1216 -496Q1363 -480 1639 -429L1697 -959H1905ZM1092 -1396Q1092 -1408 1085 -1456Q1082 -1478 1057 -1490Q1054 -1454 1038 -1389Q1023 -1354 970 -1268Q917 -1182 910 -1147Q897 -1045 874 -881Q883 -904 896 -941Q916 -1024 1010 -1182Q1092 -1318 1092 -1396ZM1911 -283L1884 -933H1718L1655 -403H1636Q1554 -422 1471 -440Q1285 -477 1121 -477Q1115 -477 1097.5 -474Q1080 -471 1072 -471V-283ZM1097 286Q1094 274 1090 213Q1072 197 1050 166L1045 -1051Q1048 -1060 1027.5 -1086.5Q1007 -1113 994 -1117Q991 -1114 988 -1108Q985 -1102 982 -1099Q1003 -1078 1024 -1046V176Q1008 192 978 212Q978 241 970 289Q987 276 990 257Q991 241 993 225Q1002 215 1042 190Q1068 203 1073 222Q1074 243 1075 264Q1077 281 1097 286ZM352 -926Q352 -969 325 -1007Q292 -1054 237 -1054Q199 -1054 169.5 -1024.5Q140 -995 140 -959L283 -520L292 -519L149 -960Q150 -992 189 -1014Q221 -1033 244 -1033Q331 -1033 331 -907Q331 -901 329 -879Q327 -857 327 -850Q352 -875 352 -926ZM1002 -283V-466H963L557 -398Q531 -398 529 -399Q491 -434 403 -485Q379 -493 326 -493Q319 -493 277.5 -490Q236 -487 231 -487Q182 -487 137 -502Q147 -480 201 -465Q250 -451 302 -451Q333 -451 343 -456L352 -447V-432Q337 -431 312 -428Q298 -426 265 -430Q227 -435 226 -435Q174 -435 174 -372Q174 -244 326 -241L623 -283ZM426 -118L390 -221H382L418 -118ZM950 -1127Q950 -1116 947 -1099.5Q944 -1083 944 -1076Q921 -1076 919 -1077Q922 -1097 931 -1133Q934 -1133 940.5 -1130Q947 -1127 950 -1127Z"/>
</svg>