<svg xmlns="http://www.w3.org/2000/svg" viewBox="0 0 988 1000">
  <g transform="scale(1,-1) translate(0,-1000)">
    <path d="M59 212Q131 120 238.0 81.0Q345 42 495 40H512Q644 40 743.0 79.5Q842 119 925 212ZM875 991Q875 984 864.0 973.0Q853 962 833.5 943.5Q814 925 800 907Q831 890 845.5 872.0Q860 854 860 826V381Q878 374 893.5 350.5Q909 327 909 305Q909 285 898 252H968Q978 252 983.0 245.0Q988 238 988 231Q988 226 983 219Q889 102 777.0 51.0Q665 0 512 0H495Q324 3 203.0 52.5Q82 102 4 221Q0 225 0 232Q0 238 5.5 245.0Q11 252 20 252H178Q175 255 175 260L181 618L41 614Q34 614 28.5 621.0Q23 628 23.0 636.0Q23 644 28.5 651.0Q34 658 41 658L166 654Q97 753 97 857Q97 930 123.5 957.5Q150 985 195 988Q248 982 266.5 958.5Q285 935 296 879V870Q296 756 225 654L363 660Q370 660 375.5 652.0Q381 644 381.0 636.0Q381 628 375.5 621.0Q370 614 363 614L217 618L225 260Q225 255 222 252H788L787 253Q775 294 775 308Q775 331 789.0 354.5Q803 378 822 384V819Q822 832 819.0 841.0Q816 850 806.5 857.5Q797 865 794.0 867.0Q791 869 776 877Q742 836 715 788Q702 767 696 767Q694 767 692 768Q690 778 690 785Q690 846 758 925Q767 943 805.0 971.5Q843 1000 863 1000Q875 1000 875 991ZM262 827Q265 837 265 858Q265 872 264 882Q261 918 241.0 938.0Q221 958 195.0 958.0Q169 958 150.0 938.0Q131 918 130 882Q129 872 129 857Q132 827 132 827Q136 752 192 674Q196 670 198.0 670.0Q200 670 214.0 689.5Q228 709 244.0 748.0Q260 787 262 827ZM806 308Q806 301 812.0 279.5Q818 258 818 256Q818 255 818 254L817 252H868Q868 252 867.5 253.0Q867 254 867.0 255.0Q867 256 867.5 257.5Q868 259 868 260Q879 293 879.0 308.0Q879 323 867.5 336.5Q856 350 841.0 350.0Q826 350 816.0 336.0Q806 322 806 308Z" fill="currentColor"/>
  </g>
</svg>