<svg xmlns="http://www.w3.org/2000/svg" viewBox="0 -2048 2048 2048">
	<path fill="currentColor" d="M1405 368H100V129H731V-1359Q731 -1449 612 -1449Q572 -1449 540 -1428Q503 -1404 503 -1366V-294H397V-1359Q397 -1442 468 -1499Q535 -1553 620 -1553Q709 -1553 771 -1502Q837 -1447 837 -1360V129L1405 128ZM811 129V-1360Q811 -1436 752 -1483Q698 -1527 620 -1527Q546 -1527 487 -1481Q423 -1431 423 -1359V-320H477V-1366Q477 -1415 521 -1447Q561 -1475 612 -1475Q757 -1475 757 -1359V129ZM1379 342V154L126 155V342Z"/>
</svg>