<svg xmlns="http://www.w3.org/2000/svg" viewBox="0 -2048 2048 2048">
	<path fill="#000000" d="M2073 -756Q2073 -523 1911 -273.5Q1749 -24 1536 71Q1469 101 1340.5 129Q1212 157 1140 157Q1093 157 1019 154Q974 146 884 135Q787 127 699 92Q531 24 378 -131Q219 -293 168 -459Q100 -679 100 -757V-883L783 -970V-975Q783 -988 763 -1064Q743 -1140 736 -1153Q712 -1201 661 -1269Q629 -1311 560 -1334V-1348Q646 -1345 731 -1197Q809 -1062 809 -967V-885Q809 -841 835 -779Q865 -708 901 -698Q930 -690 1013 -690Q1025 -690 1049.5 -691Q1074 -692 1086 -692Q1100 -692 1129.5 -690Q1159 -688 1173 -688Q1239 -688 1268.5 -698Q1298 -708 1328 -763Q1356 -812 1360 -848Q1380 -1034 1395 -1092Q1429 -1220 1516 -1307Q1557 -1348 1620 -1348H1626L1625 -1334Q1539 -1332 1463 -1191Q1396 -1066 1396 -970V-969L2073 -884ZM2047 -847V-865L1839 -890Q1842 -868 1839 -826Q1950 -864 1994 -864Q2024 -864 2047 -847ZM2041 -803Q2041 -842 1994 -842Q1967 -842 1911 -824Q1855 -806 1837 -806V-805Q1968 -765 1981 -765Q2041 -765 2041 -803ZM2046 -759Q2032 -742 2018 -742Q1937 -742 1836 -783Q1835 -748 1828 -680Q1906 -698 1971 -698Q2015 -698 2039 -676Q2042 -704 2046 -759ZM2030 -633Q2030 -672 1962 -672Q1946 -672 1893 -667Q1850 -663 1824 -666V-663Q1973 -593 1999 -593Q2030 -593 2030 -633ZM2020 -576Q2010 -570 2003 -570Q1969 -570 1909 -597Q1863 -618 1817 -640Q1806 -600 1787 -545Q1798 -546 1802 -546Q1794 -546 1841 -541Q1904 -534 1927 -528Q1978 -515 1998 -484ZM1983 -459Q1983 -490 1897 -510Q1840 -520 1783 -531L1780 -522Q1820 -492 1859 -463Q1918 -421 1940 -421Q1983 -421 1983 -459ZM1958 -401Q1948 -398 1940 -398Q1908 -398 1852 -440Q1812 -472 1772 -505Q1754 -466 1726 -418Q1779 -403 1832 -388Q1895 -366 1914 -323ZM1895 -307Q1895 -336 1820 -366Q1768 -385 1716 -404L1713 -400Q1820 -272 1850 -272Q1895 -272 1895 -307ZM1865 -251Q1854 -249 1848 -249Q1816 -249 1767 -303Q1734 -343 1700 -383L1635 -308Q1684 -281 1734 -254Q1794 -217 1801 -170ZM1779 -158Q1779 -199 1716 -238Q1668 -265 1619 -291L1617 -289Q1642 -244 1668 -199Q1704 -140 1742 -140Q1779 -140 1779 -158ZM1749 -112Q1703 -112 1659 -171Q1652 -180 1599 -270Q1557 -223 1529 -204Q1574 -169 1619 -134Q1676 -84 1672 -43Q1710 -71 1749 -112ZM1612 -919L1394 -952Q1384 -862 1372 -816Q1350 -727 1309 -698Q1278 -676 1220 -671Q1196 -669 1086 -669Q1072 -669 1043 -667.5Q1014 -666 999 -666Q923 -666 890 -680Q857 -694 819 -772Q783 -845 783 -886V-956L559 -919Q561 -869 576 -770Q609 -644 708 -527Q820 -395 935 -384Q958 -378 1005 -371Q1065 -368 1086 -368Q1329 -368 1473 -524Q1612 -675 1612 -919ZM1650 -50Q1650 -75 1594 -125Q1555 -159 1515 -194L1511 -191Q1530 -137 1548 -83Q1579 -9 1618 -9Q1626 -9 1638 -25.5Q1650 -42 1650 -50ZM1819 -894L1635 -916Q1580 -345 1085 -345Q683 -345 553 -767Q543 -798 538 -917Q520 -917 520 -917L353 -892V-804Q353 -523 561 -309.5Q769 -96 1050 -96Q1127 -96 1231 -112Q1352 -131 1402 -158Q1704 -323 1787 -610Q1819 -721 1819 -894ZM1598 7Q1547 -11 1526 -73Q1510 -128 1495 -182Q1441 -151 1403 -135Q1507 -3 1507 39Q1507 45 1497 60Q1518 53 1598 7ZM1484 36Q1484 9 1443 -47Q1412 -87 1382 -126L1379 -125Q1392 73 1444 73Q1450 73 1467 57.5Q1484 42 1484 36ZM1420 85Q1378 57 1369 -8Q1364 -63 1359 -118Q1323 -108 1267 -98Q1288 -56 1310 -13Q1337 44 1337 74Q1337 81 1319 110H1322ZM1314 73Q1314 43 1287 -11Q1265 -51 1243 -91H1240Q1229 -13 1229 20Q1229 111 1270 111Q1284 111 1299 98.5Q1314 86 1314 73ZM1243 122Q1206 95 1206 19Q1206 -12 1216 -86Q1165 -76 1112 -76Q1129 -23 1145 31V113Q1139 119 1125 134H1171Q1180 134 1243 122ZM330 -831V-890L126 -865V-846Q145 -864 178 -864Q195 -864 330 -831ZM1119 108V17Q1119 12 1088 -73H1083L1043 78Q1054 110 1058 115Q1067 126 1094 126Q1103 126 1119 108ZM332 -804L331 -807Q195 -842 178 -842Q134 -842 134 -805Q134 -765 196 -765Q208 -765 332 -804ZM1072 -73Q1032 -73 958 -84Q959 -70 963 -33Q967 0 967 19Q967 85 934 120Q970 124 1043 130Q1019 99 1019 80Q1019 28 1072 -73ZM348 -677L331 -781Q211 -742 157 -742Q145 -742 126 -763V-725Q126 -721 133 -675Q156 -698 202 -698Q283 -698 348 -677ZM944 14Q944 -78 931 -90Q858 32 858 71Q858 111 908 111Q944 111 944 14ZM344 -662Q336 -661 336 -661Q317 -661 269.5 -666.5Q222 -672 199 -672Q140 -672 140 -638Q140 -624 150.5 -608.5Q161 -593 174 -593Q200 -593 259 -621Q301 -641 344 -662ZM908 -96L817 -118Q811 -37 805 -12Q792 52 759 81Q789 89 849 104Q836 82 836 74Q836 27 908 -96ZM380 -546Q371 -578 355 -643Q312 -622 268 -600Q203 -570 174 -570Q166 -570 160 -572L182 -496Q206 -518 276 -534Q338 -547 380 -546ZM797 -124L794 -125Q689 4 689 36Q689 40 707 56.5Q725 73 729 73Q781 73 797 -124ZM390 -522L387 -528Q195 -502 195 -462Q195 -449 207 -435Q219 -421 232 -421Q257 -421 313 -462Q352 -492 390 -522ZM444 -418Q426 -446 397 -505Q291 -398 233 -398Q228 -398 224 -399L262 -322Q283 -365 342 -387Q393 -403 444 -418ZM770 -134Q730 -147 681 -175Q665 -125 649 -74Q626 -17 584 5Q612 22 672 52Q666 40 666 36Q666 3 707 -52Q738 -93 770 -134ZM459 -398L458 -399Q280 -355 280 -306Q280 -272 323 -272Q349 -272 396 -324Q427 -361 459 -398ZM532 -310Q520 -322 473 -377Q437 -336 400 -295Q348 -244 311 -250Q347 -201 375 -174Q376 -214 437 -252Q485 -281 532 -310ZM639 -204Q636 -207 571 -266Q544 -219 517 -172Q477 -113 436 -111Q457 -89 503 -49Q502 -87 555 -135Q597 -169 639 -204ZM660 -186L656 -190Q618 -158 579 -125Q525 -76 525 -51Q525 -39 537 -25.5Q549 -12 561 -12Q593 -12 628 -84Q660 -149 660 -186ZM556 -283Q554 -286 549 -290Q540 -289 482.5 -252.5Q425 -216 413 -206Q411 -204 398 -157Q419 -140 429 -140H438Q468 -140 505 -198Q531 -240 556 -283Z"/>
</svg>