<svg xmlns="http://www.w3.org/2000/svg" viewBox="0 -2048 2048 2048">
	<path fill="currentColor" d="M968 -1225Q897 -1198 856 -1198Q797 -1198 731 -1221L730 -1227Q728 -1240 766 -1265Q789 -1280 794 -1332Q799 -1377 831 -1382V-1390Q831 -1523 738 -1523Q730 -1523 685 -1516Q670 -1514 648.5 -1489Q627 -1464 627 -1449V-1227Q627 -1221 622.5 -1209.5Q618 -1198 618 -1191H739Q729 -1171 708 -1131Q711 -1128 712 -1125Q713 -1122 732 -1042Q747 -975 780 -842Q771 -836 756 -835L806 -58Q806 -58 806 43Q802 48 793 114Q782 191 738 263Q689 344 625 367Q597 377 545 377H531Q398 377 320 254Q313 236 299 199Q264 113 264 32V27L312 -834Q299 -837 290 -841L359 -1128Q353 -1145 326 -1179Q338 -1191 446 -1189Q446 -1193 443 -1206Q440 -1216 440 -1222V-1445Q440 -1467 420 -1489Q400 -1511 378 -1517Q356 -1523 326 -1523Q281 -1523 258.5 -1493Q236 -1463 236 -1452V-1382Q243 -1379 257 -1373Q274 -1340 274 -1304Q274 -1268 323 -1258Q329 -1249 335 -1236Q335 -1226 324 -1218Q247 -1198 210 -1198Q196 -1198 148 -1211.5Q100 -1225 100 -1232Q100 -1242 128 -1259Q160 -1278 166 -1320Q172 -1362 209 -1384V-1392Q209 -1546 340 -1546Q404 -1546 439 -1501Q463 -1470 463 -1445V-1239H601V-1442Q601 -1474 628 -1504Q666 -1546 731 -1546Q848 -1546 851 -1416Q851 -1406 853 -1386Q880 -1375 892 -1330Q905 -1282 925 -1268Q939 -1260 952 -1251.5Q965 -1243 968 -1225ZM932 -1237Q906 -1254 893 -1269Q888 -1275 873 -1323Q862 -1362 843 -1362Q832 -1362 824 -1353Q820 -1348 814 -1302Q810 -1265 761 -1236Q821 -1221 857 -1221Q884 -1221 932 -1237ZM598 -1213H465Q466 -1209 471 -1192H596Q598 -1203 598 -1213ZM703 -1168H366Q371 -1157 381 -1135H684ZM641 -1105H573Q571 -1098 571 -1095Q571 -1087 607 -1024Q631 -1059 641 -1105ZM751 -861L692 -1108H673Q705 -1053 705 -986Q705 -874 668 -863Q644 -882 601 -910Q609 -887 609 -881Q609 -873 597 -861ZM682 -983Q682 -1037 659 -1078Q649 -1031 597 -977Q625 -947 625 -932Q623 -929 619 -926Q622 -924 667 -893Q682 -923 682 -983ZM563 -1059Q546 -1083 546 -1089Q546 -1099 551 -1108H518Q523 -1099 523 -1089Q523 -1083 506 -1059Q518 -1069 522 -1078H547Q551 -1069 563 -1059ZM588 -1019V-1021Q588 -1021 568 -1050Q568 -1047 577 -1019ZM545 -1045Q539 -1052 537 -1052Q532 -1052 528 -1047L534 -1048Q537 -1048 545 -1045ZM608 -932Q603 -936 596 -945V-937Q601 -936 608 -932ZM560 -998Q560 -1025 534 -1025Q508 -1025 508 -998V-995H510Q522 -995 533 -984Q560 -996 560 -998ZM499 -1089V-1091Q499 -1108 499 -1108H420Q432 -1081 460 -1030Q472 -1050 499 -1089ZM500 -1050Q481 -1023 481 -1019H492Q495 -1029 500 -1050ZM306 -1237Q291 -1240 272 -1258.5Q253 -1277 250 -1292Q249 -1297 249 -1322Q249 -1362 223 -1362Q201 -1362 195.5 -1340Q190 -1318 186.5 -1299Q183 -1280 133 -1237Q194 -1221 210 -1221Q255 -1221 306 -1237ZM571 -923V-970L550 -966V-904Q571 -911 571 -923ZM523 -902V-964Q522 -965 519 -968H499V-923Q513 -902 518 -902ZM586 -884Q586 -891 582 -897Q567 -886 536 -862Q519 -873 487 -897V-875Q492 -872 493 -861H565Q566 -862 586 -884ZM471 -978Q435 -1014 410 -1075Q392 -1026 392 -969Q392 -922 404 -891Q419 -904 451 -927Q448 -936 448 -942Q448 -963 471 -978ZM472 -937V-945Q469 -940 461 -932Q464 -934 472 -937ZM398 -1108H376L319 -861H395Q366 -904 366 -965Q366 -1062 398 -1108ZM468 -861Q461 -867 461 -876Q461 -901 464 -907Q443 -891 399 -861ZM765 -326L730 -834H332L309 -323Q362 -314 414 -304Q478 -293 520 -293Q526 -293 526 -293ZM777 -141Q777 -143 777 -147L765 -302L528 -270Q511 -268 430 -277Q404 -280 302 -301L294 -137Q452 -105 510 -105Q558 -105 648 -116Q750 -128 777 -141ZM783 -34Q783 -62 778 -118Q670 -82 532 -82Q536 -82 443 -85Q415 -86 360 -100.5Q305 -115 289 -115V33Q395 62 514 62Q671 62 779 30Q783 -42 783 -34ZM777 55H775Q766 55 746 61Q722 68 715 69Q606 85 517 85Q370 85 287 56V61Q287 83 331 220L534 244Q545 245 633 234.5Q721 224 735 219.5Q749 215 764 145Q777 84 777 55ZM719 245Q530 269 535 269Q536 269 343 246Q410 336 461 347Q469 351 479 354H584Q617 354 662 315Q703 279 719 245Z"/>
</svg>