<svg xmlns="http://www.w3.org/2000/svg" viewBox="24 -1606 865.9 2050.9">
	<path fill="currentColor" d="M814 369H100V197H414V-1083Q502 -1106 561 -1163Q627 -1227 627 -1312Q627 -1359 594 -1400Q558 -1442 512 -1442Q451 -1442 407 -1400.5Q363 -1359 363 -1298Q363 -1306 369 -1188Q325 -1158 246 -1116Q236 -1134 216 -1171L296 -1233Q279 -1291 279 -1308Q279 -1397 342.5 -1463.5Q406 -1530 495 -1530Q585 -1530 655.5 -1468Q726 -1406 726 -1318Q726 -1143 508 -1019V197H814ZM700 -1318Q700 -1395 635 -1451Q574 -1504 495 -1504Q417 -1504 361 -1445Q305 -1386 305 -1308Q305 -1292 326 -1223L249 -1164L256 -1151Q307 -1178 342 -1201Q337 -1279 337 -1298Q337 -1369 388.5 -1418.5Q440 -1468 512 -1468Q569 -1468 611 -1419Q653 -1370 653 -1312Q653 -1223 589 -1154Q531 -1092 440 -1063V197H482V-1034Q589 -1095 635 -1145Q700 -1218 700 -1318ZM788 343V223H126V343Z"/>
</svg>