<svg xmlns="http://www.w3.org/2000/svg" viewBox="0 -2048 2048 2048">
	<path fill="currentColor" d="M1664 -565Q1664 -557 1627 -348Q1617 -293 1598 -245Q1579 -197 1560 -150Q1511 -12 1390 133Q1346 186 1240.5 251Q1135 316 1067 334Q1050 338 1017 346Q909 372 871 372Q863 372 859 366Q855 369 851 369Q853 369 790 358Q631 330 498 242Q357 150 283 14Q240 -59 170 -215Q167 -225 141 -347Q130 -388 113 -470Q108 -502 100 -774H689Q625 -811 571 -874Q560 -887 537 -923Q422 -1104 422 -1209Q422 -1226 436 -1272H478Q532 -1152 681 -1070Q688 -1132 709 -1254Q714 -1269 725 -1299Q766 -1416 876 -1549Q1006 -1461 1048 -1272Q1059 -1202 1083 -1064Q1141 -1094 1200 -1153Q1262 -1216 1286 -1272Q1302 -1271 1334 -1269Q1345 -1210 1345 -1209Q1345 -1139 1310 -1055Q1251 -914 1092 -776H1651ZM1641 -570Q1641 -582 1636 -625Q1632 -660 1635 -680H1625L1493 -525L1599 -394Q1614 -412 1621 -446Q1625 -475 1630 -503Q1641 -547 1641 -570ZM1594 -680H1371L1479 -546ZM1322 -1207Q1322 -1216 1314 -1249H1301Q1223 -1113 1089 -1044Q1079 -1039 1070 -1039Q1061 -1039 1059 -1046Q1056 -1068 1051 -1110Q1045 -1163 1026 -1269Q1011 -1334 971 -1405Q927 -1484 879 -1518Q766 -1374 731 -1251Q723 -1179 696 -1038Q531 -1121 466 -1246H449Q445 -1211 445 -1207Q445 -1066 581 -898Q590 -886 654 -830.5Q718 -775 723 -775H1056Q1079 -775 1182 -898Q1266 -998 1291 -1069Q1322 -1157 1322 -1207ZM1463 -528L1348 -667L1246 -543L1360 -406ZM1582 -376L1476 -507L1374 -385L1482 -257ZM1329 -680H1129L1229 -561ZM1602 -348Q1602 -352 1598 -358L1496 -239Q1513 -219 1548 -179Q1570 -224 1597 -322Q1597 -326 1599.5 -334.5Q1602 -343 1602 -348ZM1212 -543L1107 -668L1007 -552L1110 -419ZM1343 -388L1229 -525L1123 -400L1232 -258ZM1087 -680H911L994 -570ZM1632 -707Q1631 -732 1632 -748H129V-707ZM1466 -239L1357 -367L1248 -239L1351 -105ZM1536 -153Q1536 -157 1479 -221L1365 -85L1443 19Q1536 -120 1536 -153ZM977 -552L883 -676L766 -537L863 -415ZM1093 -400L993 -533L876 -394L982 -266ZM857 -680H652L749 -555ZM1216 -241L1110 -381L995 -245L1104 -108ZM1335 -87L1232 -220L1117 -90L1223 41ZM1430 38L1348 -68L1237 62L1319 167Q1359 135 1430 38ZM733 -537L630 -670L518 -543L624 -412ZM846 -397L749 -519L641 -394L737 -272ZM607 -680H411L505 -564ZM965 -248L859 -378L754 -251L859 -120ZM1087 -90L979 -226L876 -102L985 32ZM1207 59L1104 -71L998 50L1104 181ZM1307 179Q1279 145 1220 80L1118 199Q1154 240 1169 266Q1268 217 1307 179ZM488 -546L385 -676L271 -543L371 -412ZM607 -394L502 -525L387 -394Q450 -311 493 -260ZM357 -680H166L258 -561ZM724 -254L624 -376L506 -239L603 -114ZM846 -102L737 -235L617 -93L723 43ZM1151 275Q1135 255 1101 217L1009 325Q1058 312 1151 275ZM968 50L859 -83L739 62L842 196ZM1088 198L982 68L855 217Q887 257 946 340Q969 339 1007 294Q1024 272 1060 229Q1073 217 1088 198ZM241 -543L140 -674L129 -664Q126 -653 126 -623Q126 -513 145 -432ZM354 -394L257 -524L150 -401Q156 -378 192 -334Q219 -301 246 -269ZM473 -241L370 -375L259 -251Q295 -206 365 -114ZM587 -96L487 -221L378 -96L478 32ZM929 341Q918 334 841 235Q800 277 760 328Q793 335 859 350Q897 344 926 343ZM706 62L600 -74L494 50L600 189ZM825 214L722 81L617 208Q642 243 667 277Q701 322 731 322Q743 322 825 214ZM229 -253L169 -329Q176 -290 197 -215Q208 -227 229 -253ZM348 -99L242 -232Q206 -192 206 -188Q206 -164 287 -24Q292 -28 348 -99ZM462 50L362 -77Q305 -9 294 -10Q335 60 399 127Q420 101 462 50ZM654 297L600 227L574 260Q604 277 654 297ZM587 208L478 69Q441 111 412 140Q451 179 552 248Z"/>
</svg>