<svg xmlns="http://www.w3.org/2000/svg" viewBox="22 -1654 1507.9 2104.9">
	<path fill="currentColor" d="M1452 332Q1452 370 1419 370Q1409 370 1380 341Q1276 238 1240 117Q1223 60 1223 37Q1223 43 1233 -78Q1245 -223 1245 -321Q1245 -413 1225 -470Q1217 -482 1204 -501Q1151 -587 1073 -604Q948 -632 809 -632V352Q773 373 771 373Q768 373 738 351V-635L407 -608Q287 -608 287 -726Q287 -748 298 -789.5Q309 -831 309 -852Q244 -844 237 -844Q200 -844 156 -861Q100 -881 100 -911Q100 -964 162 -1000Q214 -1030 236 -1030H310Q324 -1030 362 -1016Q422 -994 422 -925Q422 -917 410 -886.5Q398 -856 398 -837V-810Q398 -749 432 -740Q449 -736 458 -737L738 -778V-794Q688 -806 667 -875Q647 -940 625 -940Q616 -940 600 -935.5Q584 -931 575 -931Q549 -931 547 -972Q595 -1006 644 -1030Q681 -1262 681 -1394Q681 -1410 668 -1576H872V-1569Q872 -1546 869 -1499.5Q866 -1453 866 -1430Q866 -1342 885 -1170Q891 -1141 901 -1083Q900 -1064 910 -1030Q943 -1008 1000 -966Q987 -934 971 -934Q964 -934 951 -938.5Q938 -943 931 -943Q897 -943 890.5 -918Q884 -893 880 -868Q865 -816 823 -801Q818 -800 808 -796V-788H1029Q1048 -788 1159 -756Q1308 -713 1359 -599Q1367 -562 1386 -490Q1391 -472 1391 -443Q1391 -351 1377 -271Q1352 -133 1352 -8Q1352 117 1389 217Q1393 227 1423 280Q1452 329 1452 332ZM888 -1035Q843 -1189 843 -1430Q843 -1450 845 -1490Q847 -1530 847 -1550H692Q704 -1429 704 -1421Q704 -1421 692 -1292L668 -1035L775 -1054Q813 -1049 888 -1035ZM964 -961Q913 -1015 806 -1026Q802 -1026 792 -1028.5Q782 -1031 776 -1031Q729 -1031 667 -1011Q596 -989 571 -959Q575 -954 580 -954Q588 -954 603 -958.5Q618 -963 626 -963Q663 -963 686.5 -889Q710 -815 754 -815Q854 -815 862 -893Q862 -907 868 -933Q884 -966 931 -966Q937 -966 947.5 -963.5Q958 -961 964 -961ZM782 -785V-792H761V-783ZM1429 333Q1406 297 1367 222Q1363 207 1355 176Q1329 79 1329 -6Q1329 -65 1336 -155Q1338 -175 1351 -252Q1366 -338 1366 -437Q1366 -527 1338 -590Q1329 -610 1298 -646Q1254 -697 1191 -721Q1179 -726 1064 -757Q1022 -768 952 -768Q827 -768 784 -762L459 -714Q458 -714 453 -714Q371 -714 371 -832Q371 -852 385 -886Q399 -920 399 -925Q399 -964 385 -976Q353 -1005 260 -1005Q219 -1005 174 -979Q123 -950 123 -912Q123 -888 175 -874Q213 -864 247 -864Q261 -864 287.5 -873Q314 -882 328 -882L330 -876L336 -877L337 -871Q313 -797 313 -726Q313 -630 396 -630Q457 -630 580 -646Q703 -662 764 -662Q780 -662 906 -651Q986 -644 1029 -636Q1106 -622 1144 -596Q1160 -585 1234 -498Q1268 -458 1268 -312Q1268 -223 1265 -175Q1263 -151 1254 -70Q1247 -4 1247 36Q1247 95 1313 233Q1319 246 1366 296.5Q1413 347 1421 347Q1429 347 1429 333ZM782 342V-635H761L760 335Q760 347 773 347Q777 347 782 342ZM290 -960Q279 -928 261 -928Q242 -928 231 -950Q258 -978 263 -978Q272 -978 290 -960Z"/>
</svg>