<svg xmlns="http://www.w3.org/2000/svg" viewBox="0 -2048 2048 2048">
	<path fill="#000000" d="M915 -427Q915 -328 855 -232Q788 -124 668 -62Q706 -54 750 -53H912V143H101V-62H364Q234 -102 161 -236Q100 -346 100 -467Q100 -507 143 -597Q265 -852 516 -852Q699 -852 813 -715Q915 -593 915 -427ZM893 -424Q893 -595 788 -710Q679 -829 502 -829Q459 -829 406 -816Q368 -807 315 -774Q255 -736 231 -699Q128 -538 128 -464Q128 -301 230 -184Q340 -59 513 -59Q649 -59 768 -165Q893 -277 893 -424ZM887 115V-30H129V115ZM809 -438Q809 -315 717.5 -223.5Q626 -132 505 -132Q376 -132 287 -240Q207 -338 207 -450Q207 -564 299 -660Q391 -756 505 -756Q515 -756 581 -741Q694 -715 757 -616Q809 -534 809 -438ZM786 -438Q786 -465 778 -507Q759 -606 689 -658Q595 -728 505 -728Q402 -728 315.5 -637.5Q229 -547 229 -447Q229 -366 287 -283Q347 -197 428 -167Q447 -160 510 -160Q574 -160 593 -167Q673 -196 732 -288Q786 -370 786 -438Z"/>
</svg>