<svg xmlns="http://www.w3.org/2000/svg" viewBox="0 0 1000 1000">
  <g transform="scale(1,-1) translate(0,-1000)">
    <path d="M811 640Q896 707 928.0 747.5Q960 788 960 851Q960 910 922 910Q897 910 871.0 891.0Q845 872 845 855Q845 847 850.5 840.5Q856 834 866 834Q882 835 882 846Q882 854 888.0 859.5Q894 865 902.0 865.0Q910 865 916.0 859.0Q922 853 922 845Q922 825 906.5 809.5Q891 794 866 794Q840 794 822.5 812.5Q805 831 805 856Q805 891 842.5 920.5Q880 950 921 950Q931 950 941.5 947.0Q952 944 967.0 935.5Q982 927 991.0 905.0Q1000 883 1000 851Q1000 781 962.0 727.5Q924 674 828 602Q853 538 869.0 449.0Q885 360 890.0 301.0Q895 242 901 137Q902 118 903.0 100.5Q904 83 905.0 69.0Q906 55 906 50H940Q950 50 957.5 43.0Q965 36 965.0 25.0Q965 14 957.5 7.0Q950 0 940 0H25Q14 0 7.0 7.0Q0 14 0.0 25.0Q0 36 7.0 43.0Q14 50 25 50H61Q61 55 62.0 69.0Q63 83 64.0 100.5Q65 118 66 137Q70 205 72.0 237.0Q74 269 80.5 334.5Q87 400 94.0 437.5Q101 475 115.0 530.0Q129 585 146.0 621.5Q163 658 189.0 696.5Q215 735 247 763L165 859L246 921L302 800Q384 845 483 845Q521 845 559.5 837.5Q598 830 645.5 810.0Q693 790 736.5 746.5Q780 703 811 640ZM367 344 401 378 367 412 333 378ZM392 319 427 285 461 319 426 353ZM342 319 308 353 274 319 308 285ZM367 294 333 260 367 225 401 259ZM724 701 726 703Q711 722 692 737L690 735ZM698 675 664 709 630 675 664 641ZM724 650 690 616 724 582 758 616ZM639 616 605 650 571 616 605 582ZM664 590 630 556 664 522 698 556ZM579 556 545 590 511 556 545 522ZM605 531 571 497 605 463 639 497ZM520 497 486 531 452 497 486 463ZM545 472 511 438 545 404 579 438ZM461 438 427 472 393 438 427 404ZM486 412 452 378 486 344 520 378ZM282 259 248 293 214 259 248 225ZM308 234 274 200 308 166 342 200ZM223 200 189 234 155 200 189 166ZM248 175 214 141 248 107 282 141ZM164 141 130 175 107 152Q107 147 106 130L130 107ZM189 116 155 82 186 50H192L223 81ZM104 81 103 82V80ZM129 56 123 50H135ZM223 675 221 677Q220 675 217.5 671.0Q215 667 213 665ZM248 701 282 735 278 739Q258 722 243 706ZM308 760 310 762Q310 762 309.0 762.0Q308 762 307 761ZM189 590 168 569Q167 566 164.5 559.5Q162 553 161 550L189 522L223 556ZM214 616 248 582 282 616 248 650ZM274 675 308 641 342 675 308 709ZM333 735 367 701 401 735 367 769ZM393 794 427 760 461 794 451 804Q430 803 394 795ZM155 438 189 404 223 438 189 472ZM248 531 214 497 248 463 282 497ZM274 556 308 522 342 556 308 590ZM333 616 367 582 401 616 367 650ZM393 675 427 641 461 675 427 709ZM452 735 486 701 520 735 486 769ZM511 794 545 760 579 794Q560 799 521 803ZM164 497 150 510Q144 488 142 476ZM130 293 116 280Q115 268 113 242L130 225L164 259ZM155 319 189 285 223 319 189 353ZM214 378 248 344 282 378 248 412ZM308 472 274 438 308 404 342 438ZM333 497 367 463 401 497 367 531ZM393 556 427 522 461 556 427 590ZM452 616 486 582 520 616 486 650ZM511 675 545 641 579 675 545 709ZM571 735 605 701 639 735 605 769ZM130 344 164 378 131 411Q125 371 123 351ZM248 56 243 50H254ZM274 81 305 50H311L342 81L308 115ZM333 141 367 107 401 141 367 175ZM393 200 427 166 461 200 427 234ZM486 293 452 259 486 225 520 259ZM511 319 545 285 579 319 545 353ZM571 378 605 344 639 378 605 412ZM630 438 664 404 698 438 664 472ZM690 497 724 463 758 497 724 531ZM749 556 783 522 807 546Q800 570 797 577L783 590ZM367 56 361 50H373ZM393 81 424 50H429L461 81L427 115ZM452 141 486 107 520 141 486 175ZM545 234 511 200 545 166 579 200ZM571 259 605 225 639 259 605 293ZM630 319 664 285 698 319 664 353ZM690 378 724 344 758 378 724 412ZM749 438 783 404 817 438 783 472ZM808 497 823 482Q822 486 820.5 494.0Q819 502 818 506ZM486 56 480 50H492ZM511 81 543 50H548L579 81L545 115ZM605 175 571 141 605 107 639 141ZM630 200 664 166 698 200 664 234ZM690 259 724 225 758 259 724 293ZM749 319 783 285 817 319 783 353ZM808 378 842 344 845 347Q843 367 837 407ZM664 115 630 81 661 50H667L698 81ZM690 141 724 107 758 141 724 175ZM749 200 783 166 817 200 783 234ZM808 259 842 225 854 237 851 285 842 293ZM605 56 599 50H611ZM724 56 718 50H729ZM749 81 780 50H786L817 81L783 115ZM808 141 842 107 861 126Q859 157 859 157L842 175ZM842 56 837 50H848Z" fill="currentColor"/>
  </g>
</svg>