<svg xmlns="http://www.w3.org/2000/svg" viewBox="0 -2048 2048 2048">
	<path fill="currentColor" d="M1972 -764Q1884 -607 1673 -436Q1329 -158 872 -39V350H757V-17Q654 -3 551 10Q425 27 344 27Q290 27 212 19Q108 9 100 -8L118 -39Q459 -72 757 -139V-1303Q757 -1401 824 -1461Q887 -1518 987 -1518Q1083 -1518 1155.5 -1457Q1228 -1396 1228 -1301V-348Q1373 -440 1652 -723Q1583 -885 1433 -967Q1405 -983 1382 -1000Q1405 -1073 1405 -1114Q1405 -1199 1380 -1276H1564Q1548 -1226 1548 -1161Q1548 -1062 1705 -920Q1862 -778 1962 -776L1964 -768ZM1937 -754Q1913 -759 1843 -797Q1733 -857 1650 -936Q1542 -1038 1530 -1131Q1523 -1184 1523 -1186Q1523 -1228 1532 -1252H1413Q1431 -1198 1431 -1112Q1431 -1068 1411 -1008Q1636 -892 1679 -715Q1665 -703 1628 -662Q1319 -324 872 -146V-66Q921 -73 1075 -129Q1329 -221 1557 -377Q1823 -559 1937 -754ZM1118 -285V-1301Q1118 -1348 1075 -1379Q1036 -1407 987 -1407Q921 -1407 876 -1342Q872 -1302 872 -1280V-172ZM1204 -334V-1311Q1204 -1389 1133 -1443Q1068 -1493 987 -1493Q898 -1493 840 -1440Q782 -1387 782 -1299V325H848V-1280Q848 -1306 852 -1350Q907 -1434 985 -1434Q1046 -1434 1092 -1399Q1142 -1361 1142 -1301V-299Q1164 -310 1204 -334ZM757 -41V-115Q446 -42 135 -15Q345 2 368 2Q381 2 475 -9.5Q569 -21 757 -41Z"/>
</svg>