<svg xmlns="http://www.w3.org/2000/svg" viewBox="-37.6 726.4 1015.2 311.2">
  <g transform="scale(1,-1) translate(0,-1000)">
    <path d="M920 236Q928 236 934.0 230.0Q940 224 940 216V20Q940 12 934.0 6.0Q928 0 920 0H19Q0 0 0 17Q0 35 19 35H539V68H117Q97 68 97 85Q97 101 117 101H539V136H217Q197 136 197 152Q197 169 217 169H539V202H319Q297 202 297 218Q297 226 303.5 231.0Q310 236 319 236ZM860 196H612L736 130ZM900 189 763 116 900 43ZM619 40H853L736 102ZM579 47 709 116 579 185Z" fill="currentColor"/>
  </g>
</svg>