<svg xmlns="http://www.w3.org/2000/svg" viewBox="0 -2048 2048 2048">
	<path fill="#000000" d="M1398 -891Q1398 -841 1388 -785H793L833 266Q834 290 808.5 319Q783 348 759 348Q728 348 704.5 321.5Q681 295 682 264L722 -785H100Q100 -935 118 -1036Q145 -1186 254 -1325Q312 -1398 438 -1462Q557 -1522 780 -1522Q851 -1522 993 -1489Q1173 -1447 1294 -1286Q1398 -1148 1398 -891ZM1374 -873Q1374 -1324 1044 -1450Q1007 -1464 901 -1481Q801 -1497 759 -1497Q739 -1497 669 -1491Q558 -1481 475 -1452Q383 -1419 293 -1331Q125 -1166 125 -809H546Q546 -962 643 -1020Q705 -1057 757 -1057Q818 -1057 877.5 -1013.5Q937 -970 952 -912Q960 -882 960 -809H1372Q1374 -830 1374 -873ZM936 -809V-821Q936 -909 890 -968Q840 -1032 755 -1032Q705 -1032 655 -1000Q575 -949 571 -809ZM809 262L765 -785H746L706 264Q705 282 722 301.5Q739 321 757 321Q773 321 791.5 299.5Q810 278 809 262Z"/>
</svg>