<svg xmlns="http://www.w3.org/2000/svg" viewBox="0 0 494 1000">
  <g transform="scale(1,-1) translate(0,-1000)">
    <path d="M457 544Q457 536 451.0 530.0Q445 524 437 524Q435 524 429 526L342 564L264 495V20Q264 12 258.0 6.0Q252 0 244.0 0.0Q236 0 230.0 6.0Q224 12 224 20V459L68 319Q61 314 55 314Q47 314 41.0 320.0Q35 326 35.0 334.0Q35 342 42 349L224 513V723H20Q11 723 5.5 729.0Q0 735 0 743V744Q2 849 72.5 924.0Q143 999 245 999Q349 999 420.5 923.5Q492 848 494 744V743Q494 735 488.5 729.0Q483 723 474 723H264V548L325 603Q332 608 338 608Q340 608 346 606L445 562Q457 556 457 544ZM41 763H453Q445 846 386.0 902.5Q327 959 245 959Q165 959 107.0 902.5Q49 846 41 763Z" fill="currentColor"/>
  </g>
</svg>