<svg xmlns="http://www.w3.org/2000/svg" viewBox="23.1 -1619.9 680.8 2076.8">
	<path fill="currentColor" d="M627 168Q627 280 576.5 330Q526 380 413 380Q346 380 294 316Q245 255 245 187Q245 183 246 173L297 -356Q300 -390 204 -558Q175 -605 145 -652Q100 -727 100 -741Q100 -781 137 -780L317 -609Q323 -681 353 -1191Q355 -1263 358 -1335Q362 -1421 378 -1476Q397 -1543 437 -1543Q457 -1543 481 -1519Q501 -1499 516 -1255Q546 -761 606 -94Q627 141 627 168ZM601 168Q601 137 580 -92Q519 -760 490 -1253Q486 -1318 483 -1383Q475 -1482 463 -1501Q459 -1507 437 -1517Q401 -1515 387 -1370Q383 -1280 379 -1189Q359 -809 323 -354Q319 -304 292 -84Q271 82 271 187Q271 244 313 297Q357 354 413 354Q515 354 558 311.5Q601 269 601 168ZM315 -572L131 -756Q123 -754 123 -744Q123 -733 171 -654Q202 -605 232 -556Q255 -509 301 -414Z"/>
</svg>