<svg xmlns="http://www.w3.org/2000/svg" viewBox="0 0 730 1000">
  <g transform="scale(1,-1) translate(0,-1000)">
    <path d="M553 196Q553 186 551.0 173.5Q549 161 542.5 139.0Q536 117 517.5 102.5Q499 88 471 88Q432 88 397 101V20Q397 12 391.0 6.0Q385 0 377.0 0.0Q369 0 363.0 6.0Q357 12 357 20V120Q336 132 316 152Q300 168 280.5 191.0Q261 214 250.5 228.0Q240 242 216.0 275.0Q192 308 187 315H23Q0 315 0 334Q0 355 21 355H240H391Q384 371 384 379V380Q385 396 392.0 409.0Q399 422 399 425V426Q397 428 395.0 428.0Q393 428 377.0 420.5Q361 413 349 413Q332 413 324.0 423.0Q316 433 313.5 445.0Q311 457 310.0 458.0Q309 459 299.5 460.5Q290 462 280.0 468.0Q270 474 265 486Q256 486 237.5 482.5Q219 479 209 479Q160 479 160 529Q160 536 161.0 550.5Q162 565 162 572Q162 585 156.5 600.5Q151 616 151 628Q151 646 156 658Q135 661 135 680Q135 696 155.0 706.0Q175 716 187 716Q206 716 230.5 693.5Q255 671 255 636Q255 617 237.5 590.5Q220 564 220 555Q220 531 270 526Q275 536 292.5 573.5Q310 611 316.0 622.5Q322 634 336.5 661.0Q351 688 365.5 708.0Q380 728 399 751Q427 786 482.5 822.0Q538 858 557 875Q574 890 592.5 914.5Q611 939 630.0 959.5Q649 980 674 995Q686 999 686.0 999.0Q686 999 690.0 997.5Q694 996 696.0 995.0Q698 994 701.5 991.0Q705 988 707 983Q713 971 713 955Q713 924 683.0 874.5Q653 825 648 810Q632 763 615.0 674.5Q598 586 575 528Q548 463 529.0 427.0Q510 391 479 355H710Q718 355 724.0 349.0Q730 343 730.0 335.0Q730 327 724.0 321.0Q718 315 710 315H515Q553 262 553 196ZM245 506Q237 508 228.5 511.5Q220 515 208.5 527.0Q197 539 197.0 555.0Q197 571 214.0 597.5Q231 624 231 636Q231 654 221.0 668.0Q211 682 201.0 687.5Q191 693 187 693Q180 693 160 681Q167 680 167 680Q170 680 179.0 681.5Q188 683 195 683Q209 683 209 671Q209 662 195.0 658.0Q181 654 180 653Q174 647 174 628Q174 620 180.0 604.0Q186 588 186 571Q186 564 184.5 549.5Q183 535 183 529Q183 520 184.5 515.0Q186 510 193.0 505.5Q200 501 213 501Q217 501 245 506ZM429 422Q428 413 421.0 400.0Q414 387 414 378Q416 369 426 355H438Q476 395 497.0 432.5Q518 470 546 540Q569 596 586.5 684.0Q604 772 620 819Q628 843 655.0 887.5Q682 932 682 955Q682 962 681 964Q656 948 626.5 908.5Q597 869 577 852Q555 832 501.5 798.0Q448 764 422 732Q403 709 389.0 689.5Q375 670 360.5 643.0Q346 616 340.5 605.0Q335 594 317.0 555.0Q299 516 294 505L293 504Q293 504 293 501Q293 493 309.0 490.0Q325 487 331 479Q337 474 340.0 466.0Q343 458 344.5 452.0Q346 446 346 445Q347 444 349 444Q354 444 369.5 451.5Q385 459 395 459Q415 459 427 438Q427 435 428 434Q428 434 428.5 431.0Q429 428 429 426ZM357 315H224Q268 257 283.5 236.0Q299 215 320.0 192.0Q341 169 357 157ZM397 315V134Q434 118 471 118Q500 118 511.5 142.5Q523 167 523 196Q523 266 478 313L476 315Z" fill="currentColor"/>
  </g>
</svg>