<svg xmlns="http://www.w3.org/2000/svg" viewBox="0 -2048 2048 2048">
	<path fill="currentColor" d="M1779 -215Q1703 -22 1501 113Q1320 235 1148 245Q1134 246 1098 252Q1062 258 1056 258Q556 258 300 -187Q260 -155 260 -112Q260 -106 274.5 -59Q289 -12 289 -6Q289 25 260 73Q227 127 190 127Q150 127 123 80Q100 41 100 -3Q100 -9 103 -25.5Q106 -42 106 -49Q109 -95 171.5 -155.5Q234 -216 277 -216H672Q691 -313 709 -410Q733 -513 783 -596Q783 -599 779 -602Q627 -688 504 -848Q391 -994 355 -1128Q323 -1246 323 -1267Q323 -1343 385 -1386Q435 -1421 495 -1421Q546 -1421 579 -1381Q608 -1346 608 -1305Q608 -1264 578 -1231.5Q548 -1199 509 -1199Q484 -1199 463 -1225Q444 -1247 444 -1267Q444 -1307 496 -1324L501 -1301Q468 -1297 468 -1264Q468 -1248 485 -1235.5Q502 -1223 514 -1223Q584 -1223 584 -1303Q584 -1346 556.5 -1374Q529 -1402 487 -1402Q434 -1402 388 -1363.5Q342 -1325 342 -1271Q342 -1128 494 -905Q649 -675 794 -623Q852 -724 975 -848Q1090 -964 1205 -1045Q1235 -1066 1280 -1120Q1315 -1162 1347 -1287Q1374 -1397 1422 -1429Q1440 -1441 1494 -1441Q1536 -1441 1566 -1414Q1591 -1392 1591 -1342Q1591 -1311 1533 -1204Q1475 -1097 1475 -1046Q1475 -1041 1484.5 -957Q1494 -873 1494 -867Q1494 -844 1480 -724Q1462 -575 1444 -499Q1435 -462 1395 -370Q1334 -228 1329 -215ZM1567 -1344Q1567 -1417 1487 -1417Q1414 -1417 1385 -1336Q1359 -1252 1333 -1168Q1301 -1101 1214 -1026Q1137 -961 1059 -896Q889 -737 823 -622Q759 -511 735 -423Q700 -293 701 -252V-217H1304Q1344 -304 1410 -465Q1419 -490 1446 -635Q1475 -794 1475 -843Q1475 -849 1465 -940.5Q1455 -1032 1455 -1037Q1455 -1112 1511 -1213Q1567 -1314 1567 -1344ZM1750 -196L328 -191Q565 234 1051 234Q1241 234 1425 130Q1632 13 1750 -196ZM269 -191H252Q202 -168 163 -108.5Q124 -49 124 -3Q124 15 138 54Q158 108 187 108Q208 108 238 65Q265 24 265 4Q265 -2 250.5 -60Q236 -118 236 -124Q236 -145 269 -191Z"/>
</svg>