<svg xmlns="http://www.w3.org/2000/svg" viewBox="0 -2048 2048 2048">
	<path fill="currentColor" d="M1203 -1458Q1202 -1473 1163 -1298Q1124 -1128 1047 -788Q1007 -612 967 -437Q946 -321 946 -146Q946 -15 969 83Q977 117 1002 203Q1023 276 1023 282Q1023 323 987 323Q962 323 934 270Q859 126 851 -35Q850 -50 827 -75Q804 -100 783 -100Q719 -100 705 -19Q704 31 702 80H549Q549 79 551.5 70.5Q554 62 554 55Q554 21 524 -29Q481 -101 413 -126Q367 -143 284 -143H248Q180 -143 141 -153Q144 -162 146 -197L100 -548Q100 -552 103 -561.5Q106 -571 106 -573H237L260 -1392Q265 -1430 297 -1455Q327 -1477 363 -1477Q437 -1477 450 -1397L470 -584L502 -579L517 -1289Q519 -1330 524 -1413Q525 -1428 549.5 -1451Q574 -1474 591 -1480Q597 -1482 621 -1482Q676 -1482 695 -1450Q709 -1426 713 -1356L734 -639Q734 -631 743 -610H762Q809 -611 864 -642Q890 -656 903 -701Q1033 -1142 1127 -1476H1203ZM713 -606L688 -1402Q689 -1461 615 -1461Q543 -1461 543 -1340L523 -585ZM450 -575L430 -1294Q427 -1342 424 -1391Q413 -1461 360 -1461Q343 -1461 316 -1442Q289 -1423 287 -1413Q286 -1374 280 -1299L260 -575ZM1177 -1455H1148Q1093 -1252 1039 -1049Q973 -807 908 -650Q890 -607 828 -593Q784 -587 741 -582Q653 -567 437 -557Q378 -553 308 -548H126V-530Q170 -278 167 -173Q167 -173 300 -166Q380 -162 432 -144Q494 -122 539 -51Q578 13 575 60H677Q677 -19 684 -45Q705 -120 781 -120Q850 -120 871 -38Q878 16 885 69Q925 234 978 291Q983 292 997 292V269Q997 264 970 166Q940 57 931 11Q925 -21 925 -161Q925 -351 937 -411Q985 -650 1177 -1455Z"/>
</svg>