<svg xmlns="http://www.w3.org/2000/svg" viewBox="20.8 -1610.2 2112.5 2063.5">
	<path fill="currentColor" d="M2055 -1410Q2055 -1389 2035 -1355Q2010 -1312 1941 -1312Q1948 -1312 1912 -1315L1533 175Q1570 189 1606 203Q1650 219 1682 219Q1713 219 1744 186.5Q1775 154 1792 154Q1821 154 1821 201Q1821 212 1819 222Q1813 230 1802 246Q1761 304 1672 304Q1679 304 1595 281Q1551 269 1491 269Q1465 269 1408.5 291.5Q1352 314 1313 314Q1279 314 1214 300.5Q1149 287 1115 287Q1079 287 1065.5 316.5Q1052 346 1041 375H902Q885 300 880 293Q866 275 800 275Q774 275 723.5 283.5Q673 292 647 292Q593 292 550.5 265.5Q508 239 488 239Q485 239 471 244Q338 292 250 292Q205 292 154 253Q99 212 100 169Q117 161 151 151Q162 156 205 190Q237 216 262 216Q295 216 372 186Q390 175 438 163Q336 124 336 -6Q336 -5 349 -93L359 -99Q348 -98 344 -98Q322 -98 304 -130V-132Q304 -138 305 -143Q340 -171 350 -171Q401 -171 424 -163Q483 -143 483 -90Q483 -84 472 -72Q461 -60 460 -57Q448 -35 448 20Q448 22 454 85Q484 111 507 111Q537 111 537 80Q537 -68 501 -222Q490 -270 436 -418L443 -425L449 -426Q485 -491 560 -618Q578 -643 614 -693Q711 -829 792 -909L466 -1258Q432 -1294 432 -1352Q432 -1431 490 -1482Q545 -1532 625 -1532Q683 -1532 720.5 -1495.5Q758 -1459 758 -1401Q758 -1355 724.5 -1324.5Q691 -1294 644 -1294Q616 -1294 594.5 -1315Q573 -1336 573 -1364Q573 -1400 634 -1428L647 -1420Q596 -1396 596 -1362Q596 -1320 649 -1320Q732 -1320 732 -1401Q732 -1507 622 -1507Q553 -1507 505 -1464Q457 -1421 457 -1352Q457 -1302 485 -1272L809 -924L1115 -1189Q1086 -1253 1086 -1265Q1086 -1316 1119.5 -1350.5Q1153 -1385 1204 -1385Q1236 -1385 1273 -1365Q1325 -1337 1333 -1269Q1349 -1403 1369 -1444Q1408 -1526 1514 -1526Q1531 -1526 1606 -1488Q1629 -1423 1629 -1415Q1629 -1384 1600 -1306Q1588 -1274 1531 -1214Q1488 -1169 1488 -1095Q1488 -1063 1517 -906L1700 -1511H1789Q1785 -1478 1779 -1454Q1827 -1524 1932 -1524Q1981 -1524 2018 -1491Q2055 -1458 2055 -1410ZM2032 -1410Q2032 -1440 2006 -1469Q1980 -1498 1950 -1498H1899Q1857 -1498 1815.5 -1464.5Q1774 -1431 1763 -1390L1344 213Q1403 186 1426 180.5Q1449 175 1513 175L1891 -1329Q1897 -1337 1912 -1337Q1917 -1337 1926.5 -1335.5Q1936 -1334 1941 -1334Q1997 -1334 2017 -1367Q2032 -1392 2032 -1410ZM1606 -1413Q1606 -1448 1588 -1471Q1583 -1478 1552.5 -1491Q1522 -1504 1513 -1504Q1424 -1504 1390 -1435Q1371 -1397 1358 -1287Q1357 -1259 1347 -1207Q1322 -1140 1206 -1040Q1116 -969 1027 -898Q893 -790 804 -693Q762 -648 697 -546Q672 -508 631 -428Q796 -429 961 -431Q1164 -440 1291 -482Q1311 -486 1349 -501Q1371 -526 1414 -572L1503 -861L1464 -1096Q1465 -1123 1478 -1175Q1489 -1199 1519 -1229Q1555 -1265 1564.5 -1279Q1574 -1293 1590 -1344.5Q1606 -1396 1606 -1413ZM1313 -1194V-1244Q1313 -1319 1259 -1347Q1230 -1362 1204 -1362Q1165 -1362 1137 -1334Q1109 -1306 1109 -1267Q1109 -1259 1124 -1227.5Q1139 -1196 1139 -1186Q1139 -1179 1018 -1078Q889 -970 836 -921Q739 -829 677 -741Q632 -681 549 -556Q525 -513 476 -429H605Q614 -450 633 -491Q650 -517 684 -568Q790 -733 1001 -912Q1086 -976 1170 -1040Q1270 -1117 1313 -1194ZM1764 -1485H1720L1433 -561Q1427 -542 1368 -488Q1362 -482 1357 -480Q1264 -434 1035 -414Q1013 -411 968 -408L468 -401Q496 -310 525 -220Q554 -115 557 -33Q558 18 560 121Q562 144 564 189Q632 216 659 216Q683 216 728 203.5Q773 191 797 191Q868 191 913 221L909 204Q886 200 842 188Q788 170 746 110Q724 79 709 28Q696 -16 684 -60Q669 -107 613 -188Q555 -273 555 -277Q555 -289 569 -289Q582 -289 608 -264Q686 -189 707.5 -156Q729 -123 765 -24Q765 -26 764 -29Q764 -176 917 -210Q966 -221 978 -221Q1144 -221 1185 -51Q1209 -130 1262 -193Q1317 -252 1372 -310Q1389 -300 1390 -287Q1345 -229 1269 -104Q1256 -76 1246 -22Q1235 37 1226 61Q1191 154 1115 188Q1097 192 1062 202Q1037 211 1036 228Q1071 208 1112 208Q1149 208 1244 222Q1285 228 1293 228Q1305 228 1317 224ZM1299 -195Q1237 -127 1222 -95Q1203 -40 1184 15Q1162 78 1119 110Q1101 123 1057 137Q1013 151 994 166V255L1010 244Q1015 225 1029 189Q1107 169 1127 153Q1140 144 1193 73Q1198 66 1207 52Q1220 26 1228 -32.5Q1236 -91 1250 -118Q1258 -135 1299 -195ZM1163 -44Q1163 -82 1140 -120Q1121 -151 1069.5 -174.5Q1018 -198 978 -198Q899 -198 847 -155Q790 -109 790 -32Q790 21 830.5 67.5Q871 114 923 124Q940 126 974 136V132L1044 114Q1093 101 1128 54.5Q1163 8 1163 -44ZM971 271V166Q951 154 908.5 143.5Q866 133 847 123Q787 90 756 15Q732 -50 708 -115Q680 -172 606 -236Q634 -194 662 -153Q693 -104 706 -63Q722 -1 766 101Q800 149 865 170Q930 191 931 193Q938 204 945 232Q950 254 971 271ZM1798 184Q1798 183 1796 177H1791Q1787 180 1739 223Q1715 245 1672 245Q1651 245 1597.5 221Q1544 197 1518 197Q1511 197 1498 197Q1485 196 1478 196Q1440 196 1380 223.5Q1320 251 1293 251Q1262 251 1201.5 240.5Q1141 230 1110 230Q1081 230 1070 234Q1060 242 1038 256Q1019 264 991 292Q992 293 992 295Q992 322 974 322Q954 322 950 303Q948 288 945 273Q912 215 793 215Q770 215 725.5 227Q681 239 658 239Q605 239 546 208Q504 186 485 186H466Q430 186 415 190Q405 193 335 218Q278 239 260 239Q240 239 200 215.5Q160 192 150 174Q140 176 125 184Q168 267 259 267Q321 267 420 237Q454 227 489 216Q488 216 522 228Q523 228 583 256Q613 270 649 270Q674 270 723.5 259.5Q773 249 798 249Q885 249 904 285Q909 307 919 349H1029Q1037 325 1044 300Q1053 281 1084 272Q1111 264 1116 264Q1123 264 1305 293Q1332 292 1385 281Q1410 269 1436.5 257.5Q1463 246 1491 246Q1556 246 1599 259Q1662 278 1681 278Q1726 278 1760 254Q1798 227 1798 184ZM540 144V125Q529 136 503 136Q486 136 431 95Q425 16 425 15Q425 -58 460 -92Q457 -148 361 -148Q344 -148 332 -133L338 -124Q420 -120 418 -96Q389 -84 370 -80Q359 -7 359 -5Q359 25 371 64Q379 89 412.5 117.5Q446 146 472 146Q480 146 506 144Q527 143 540 144ZM540 178V167H522Q530 168 540 178Z"/>
</svg>