<svg xmlns="http://www.w3.org/2000/svg" viewBox="0 -2048 2048 2048">
	<path fill="#000000" d="M1677 -612Q1677 -606 1674 -598Q1671 -590 1671 -585H1656Q1647 -572 1649 -544Q1652 -511 1650 -502Q1635 -448 1644 -409Q1650 -382 1635 -348Q1629 -334 1600 -325Q1577 -319 1554 -312Q1553 -301 1546 -283Q1526 -263 1485 -240Q1444 -217 1434 -217Q1428 -217 1359.5 -234.5Q1291 -252 1285 -252Q1279 -252 1223 -237Q1167 -222 1161 -222Q1156 -222 1091 -237Q1026 -252 1020 -252Q972 -252 943 -199V-182Q981 -173 1086 -163Q1091 -158 1092 -148L952 298Q932 287 899 238Q864 185 864 159Q864 154 889 102.5Q914 51 914 45Q914 21 886 21Q874 21 850 55.5Q826 90 802 90Q797 90 778 74.5Q759 59 752 57Q720 45 671 45Q641 45 632 50L602 -167Q649 -174 696 -182Q756 -191 806 -188L814 -195Q813 -196 808 -219Q805 -234 776 -250Q774 -251 770 -252L633 -217L500 -257Q340 -217 316 -217Q273 -217 251 -233.5Q229 -250 193 -308Q174 -320 142 -352Q139 -356 138 -423Q137 -451 128.5 -486Q120 -521 120 -531Q120 -546 130 -558V-571Q100 -589 100 -599Q100 -617 110 -625Q125 -634 140 -642Q110 -687 110 -693Q110 -733 160 -733Q210 -733 210 -686Q210 -654 190 -641Q205 -626 241 -599Q241 -599 282 -760Q310 -870 348 -938Q304 -972 304 -1016Q304 -1037 324 -1058.5Q344 -1080 358 -1080Q357 -1080 424 -1050Q433 -1066 433 -1085Q433 -1094 388 -1197Q418 -1211 450 -1194Q461 -1204 467 -1216Q443 -1226 405 -1260Q388 -1287 388 -1333Q388 -1377 429 -1411Q467 -1442 507 -1442Q553 -1442 585 -1396Q611 -1358 611 -1323Q611 -1249 512 -1216L535 -1194Q565 -1215 585 -1214H601Q601 -1212 603.5 -1208Q606 -1204 606 -1197Q606 -1203 563 -1092Q562 -1088 562 -1073Q562 -1048 597 -929Q630 -818 638 -802Q648 -860 671 -1065H695L733 -793L814 -1073Q802 -1156 755 -1185Q755 -1185 762 -1202Q795 -1209 790 -1209Q796 -1209 809.5 -1204Q823 -1199 829 -1199Q836 -1199 849 -1212Q833 -1221 806 -1245Q770 -1293 770 -1333Q770 -1377 821 -1412Q863 -1442 894 -1442Q937 -1442 968 -1394Q993 -1354 993 -1323Q993 -1263 909 -1211Q921 -1199 924 -1199Q929 -1199 945.5 -1209Q962 -1219 971 -1219Q998 -1219 998 -1202Q998 -1196 988 -1184Q975 -1168 974 -1166Q957 -1136 948 -1085L1015 -807L1058 -1060H1076L1120 -822Q1201 -1014 1201 -1073Q1201 -1124 1147 -1202Q1157 -1210 1187 -1206Q1214 -1203 1228 -1194Q1230 -1196 1234.5 -1198Q1239 -1200 1241 -1202Q1239 -1206 1202 -1230Q1152 -1262 1152 -1313Q1152 -1356 1191 -1396.5Q1230 -1437 1273 -1437Q1320 -1437 1355 -1399Q1390 -1361 1390 -1318Q1390 -1254 1295 -1203Q1301 -1194 1305 -1194Q1310 -1194 1332 -1204Q1354 -1214 1360 -1214Q1390 -1214 1390 -1197Q1390 -1191 1376 -1175Q1359 -1156 1356 -1151Q1335 -1114 1335 -1088Q1335 -1055 1345 -1055Q1351 -1055 1368.5 -1065Q1386 -1075 1392 -1075Q1424 -1075 1446 -1045Q1464 -1020 1464 -996Q1464 -966 1429 -943Q1513 -761 1526 -584Q1533 -623 1588 -642Q1561 -666 1568 -708Q1594 -733 1615 -733Q1634 -733 1650.5 -712.5Q1667 -692 1667 -676Q1667 -656 1647 -646Q1651 -640 1666 -628Q1677 -619 1677 -612ZM1365 -1321Q1365 -1354 1341 -1381Q1314 -1412 1273 -1412Q1235 -1412 1205.5 -1381.5Q1176 -1351 1176 -1313Q1176 -1288 1209 -1256Q1242 -1224 1271 -1224Q1277 -1224 1274.5 -1229Q1272 -1234 1278 -1234Q1284 -1234 1285.5 -1231.5Q1287 -1229 1293 -1229Q1317 -1229 1341 -1262.5Q1365 -1296 1365 -1321ZM1349 -1188Q1293 -1173 1281 -1096H1309Q1310 -1111 1349 -1188ZM1285 -1182Q1273 -1194 1262 -1194L1246 -1176Q1262 -1168 1268 -1150Q1270 -1155 1276.5 -1166Q1283 -1177 1285 -1182ZM1250 -1096Q1245 -1118 1241 -1139Q1232 -1166 1209 -1179H1192Q1217 -1136 1222 -1096ZM1314 -1051V-1069H1222V-1051ZM1642 -671Q1640 -708 1613 -708Q1588 -708 1588 -681Q1588 -669 1599 -659H1637Q1637 -664 1642 -671ZM1324 -1016V-1030H1217V-1016ZM968 -1323Q968 -1344 950 -1376Q927 -1417 896 -1417Q880 -1417 847 -1401.5Q814 -1386 807 -1376.5Q800 -1367 800 -1335Q800 -1303 818 -1271Q840 -1234 870 -1234H893Q924 -1234 947 -1266Q968 -1295 968 -1323ZM1518 -342Q1510 -468 1482 -711Q1473 -762 1447 -837Q1405 -955 1404 -958Q1406 -960 1429 -973Q1444 -981 1444 -996Q1444 -1011 1427 -1030.5Q1410 -1050 1387 -1050Q1350 -1050 1350 -1016Q1350 -1014 1386 -907Q1424 -794 1432 -740Q1462 -543 1465 -317Q1497 -328 1518 -342ZM1652 -606Q1642 -616 1642 -624H1591Q1575 -624 1560 -594Q1548 -568 1548 -555Q1548 -536 1550 -531Q1608 -385 1608 -396Q1608 -374 1576 -342Q1618 -362 1619 -405Q1619 -444 1619 -482Q1633 -540 1633 -547Q1633 -589 1593 -589Q1587 -589 1588 -586.5Q1589 -584 1583 -584Q1573 -584 1573 -601L1581 -609Q1594 -609 1618.5 -607.5Q1643 -606 1652 -606ZM957 -1189Q899 -1146 899 -1101H928Q937 -1156 957 -1189ZM1350 -624Q1350 -751 1295 -995H1276V-536Q1297 -526 1338 -505Q1350 -562 1350 -624ZM904 -1179Q904 -1186 881 -1209Q876 -1204 867.5 -1193Q859 -1182 854 -1177Q864 -1160 882 -1130Q884 -1135 895 -1155Q904 -1172 904 -1179ZM1444 -356Q1444 -382 1434 -509Q1421 -666 1407 -736Q1391 -816 1328 -996Q1323 -982 1321 -973Q1382 -742 1373 -602Q1366 -486 1366 -498Q1366 -485 1373 -453.5Q1380 -422 1380 -418Q1380 -398 1365 -360.5Q1350 -323 1340 -319Q1436 -287 1427 -287Q1439 -287 1439 -293Q1439 -304 1441.5 -327.5Q1444 -351 1444 -356ZM1583 -398Q1583 -404 1535 -500Q1537 -450 1547 -361Q1583 -382 1583 -398ZM863 -1101Q843 -1180 805 -1178Q827 -1142 835 -1101ZM1249 -541V-996Q1226 -904 1204 -812Q1171 -675 1171 -584Q1171 -565 1184 -500Q1195 -529 1249 -541ZM928 -1066V-1079H835V-1066ZM938 -1016Q938 -1018 935.5 -1028Q933 -1038 933 -1040H830Q830 -1038 827.5 -1028Q825 -1018 825 -1016ZM586 -1326Q586 -1338 579 -1366Q578 -1371 552 -1395Q523 -1422 510 -1422Q478 -1422 445.5 -1392.5Q413 -1363 413 -1328Q413 -1239 492 -1239Q525 -1239 552 -1258Q586 -1282 586 -1326ZM1107 -768L1070 -976L1028 -745Q1049 -626 1065 -490Q1072 -550 1107 -768ZM1214 -996Q1102 -758 1090 -423Q1089 -408 1085.5 -375.5Q1082 -343 1082 -338V-313Q1135 -292 1154 -292Q1148 -292 1206 -309Q1142 -373 1142 -411Q1142 -417 1154 -443Q1166 -469 1166 -475Q1166 -481 1159 -503.5Q1152 -526 1152 -532Q1147 -633 1152 -661ZM571 -1183Q528 -1161 512 -1101H541Q550 -1160 571 -1183ZM1355 -411Q1355 -448 1334 -478Q1307 -515 1258 -515Q1230 -515 1198 -475Q1166 -435 1166 -406Q1166 -378 1198 -347.5Q1230 -317 1263 -317Q1355 -317 1355 -411ZM968 -599Q968 -625 944.5 -769.5Q921 -914 905 -985L895 -991V-521Q944 -509 962 -495Q963 -520 966 -560Q968 -594 968 -599ZM517 -1178Q508 -1189 489 -1204L467 -1182L500 -1150Q517 -1182 517 -1178ZM1057 -317V-364Q1057 -477 1008 -700Q977 -837 946 -974Q939 -985 929 -990L993 -594Q991 -563 986 -513Q985 -504 985 -494Q985 -471 994 -439Q1003 -407 1003 -401Q1003 -402 969 -317Q996 -326 1010 -326Q1032 -326 1057 -317ZM492 -1106Q485 -1127 461.5 -1154Q438 -1181 423 -1177Q446 -1150 453 -1100ZM868 -521L862 -991Q838 -923 814 -788.5Q790 -654 790 -587Q790 -563 796 -522Q799 -498 813 -500Q855 -521 868 -521ZM541 -1056V-1069H453V-1056ZM546 -1016V-1035H448Q448 -1033 445.5 -1026Q443 -1019 443 -1016ZM715 -726L683 -951L656 -743Q656 -739 668 -666Q680 -587 683 -550ZM829 -974L822 -991Q800 -963 751 -741Q700 -508 700 -403V-328L707 -320Q801 -327 789 -328Q762 -396 762 -409Q762 -462 783 -493Q767 -536 767 -605Q767 -741 829 -974ZM576 -651Q576 -706 547 -838Q523 -945 506 -996V-541Q526 -533 560 -520Q576 -602 576 -651ZM978 -403Q978 -441 951 -470.5Q924 -500 879 -500Q841 -500 815.5 -472.5Q790 -445 790 -406Q790 -372 811 -343Q837 -307 884 -307Q918 -307 948 -336.5Q978 -366 978 -403ZM675 -307Q668 -678 556 -995H532Q545 -955 570 -834Q601 -686 601 -626Q601 -620 591 -565.5Q581 -511 581 -505Q581 -499 593.5 -482.5Q606 -466 606 -431Q606 -362 552 -319Q616 -287 621 -287Q644 -287 675 -307ZM476 -546V-996Q455 -899 433 -801Q408 -679 408 -604Q408 -548 414 -515Q444 -538 476 -546ZM894 -280Q889 -280 876.5 -282.5Q864 -285 859 -285Q861 -283 867.5 -273.5Q874 -264 876 -262ZM1523 -302Q1523 -310 1516 -317Q1434 -262 1432 -262Q1426 -262 1362.5 -279.5Q1299 -297 1293 -297Q1287 -297 1224.5 -284.5Q1162 -272 1157 -272Q1151 -272 1081 -284.5Q1011 -297 1005 -297Q909 -297 892 -226Q889 -221 885 -217H872Q864 -236 847 -266Q820 -302 762 -302Q729 -302 677.5 -282Q626 -262 624 -262Q618 -262 563 -282Q508 -302 502 -302Q496 -302 415 -282Q334 -262 329 -262Q304 -262 220 -304Q238 -242 314 -242Q320 -242 404.5 -259.5Q489 -277 495 -277Q525 -277 578.5 -257Q632 -237 629 -237Q635 -237 698 -254.5Q761 -272 767 -272Q834 -272 835 -193H923Q921 -226 950 -251.5Q979 -277 1018 -277Q1024 -277 1088.5 -259.5Q1153 -242 1159 -242Q1166 -242 1224.5 -259.5Q1283 -277 1288 -277Q1294 -277 1360 -259.5Q1426 -242 1432 -242Q1523 -269 1523 -302ZM447 -978V-996Q321 -630 321 -369Q321 -328 324 -288L330 -282Q370 -297 438 -319Q412 -329 392.5 -359.5Q373 -390 373 -416Q373 -422 386 -458Q399 -494 396 -513Q378 -649 399 -755Q446 -988 447 -978ZM418 -1008Q418 -1021 397.5 -1038Q377 -1055 361 -1055Q350 -1055 337 -1038.5Q324 -1022 324 -1011Q324 -1003 348.5 -975Q373 -947 373 -944Q373 -939 350 -888Q326 -833 320 -811Q280 -654 267 -542Q263 -510 257 -458Q256 -438 250 -393.5Q244 -349 244 -344Q244 -322 298 -292V-488Q303 -519 309 -576.5Q315 -634 367 -824Q418 -1010 418 -1008ZM586 -431Q586 -469 554 -494.5Q522 -520 482 -520Q449 -520 423.5 -486.5Q398 -453 398 -423Q398 -386 427 -356Q456 -326 490 -326Q531 -326 558.5 -356Q586 -386 586 -431ZM190 -683Q190 -696 178 -708H141L135 -685Q160 -651 174 -654Q190 -670 190 -683ZM1067 -142Q833 -168 797 -168Q738 -168 622 -147Q637 -52 652 25Q767 19 807 65Q808 64 847 23Q872 -4 889 -4Q933 -4 933 45Q933 51 911 103.5Q889 156 889 162Q889 206 942 256Q958 164 993 66Q1030 -38 1067 -142ZM204 -601Q149 -627 125 -595H147Q168 -600 204 -601ZM229 -560Q229 -577 207 -599Q203 -589 192 -574Q187 -579 180 -579Q171 -579 158 -559Q145 -539 145 -525Q145 -518 152 -493Q159 -464 160 -458Q161 -431 161 -404Q163 -370 179 -357Q174 -364 174 -375Q174 -396 201.5 -464Q229 -532 229 -560ZM227 -465Q195 -385 195 -388Q195 -370 218 -361Q227 -393 227 -465Z"/>
</svg>