<svg xmlns="http://www.w3.org/2000/svg" viewBox="0 -2048 2048 2048">
	<path fill="#000000" d="M1079 -1287Q966 -540 787 183L550 119Q541 128 461 273Q412 260 320 236Q311 173 307 63Q302 56 295 51Q230 32 100 -2Q129 -84 185 -262Q208 -330 260 -486Q278 -541 320 -665Q320 -665 436 -1013Q470 -1102 525 -1281Q566 -1466 703 -1466Q801 -1466 839 -1372Q864 -1385 889 -1398Q908 -1407 934 -1407Q980 -1407 1025 -1381Q1080 -1350 1080 -1300Q1080 -1294 1079 -1287ZM1054 -1290Q1054 -1329 1014.5 -1358Q975 -1387 930 -1387Q910 -1387 875 -1367.5Q840 -1348 836 -1335Q815 -1265 613 -505Q562 -313 562 -315V-294Q598 -289 632 -240Q661 -199 669 -159Q703 -296 737 -400Q756 -459 839 -526Q879 -549 923 -589Q962 -735 1012 -1022Q1054 -1267 1054 -1290ZM815 -1354Q817 -1359 817 -1365Q817 -1395 768 -1423Q727 -1447 703 -1447Q665 -1447 627 -1422Q583 -1392 568 -1345Q373 -735 373 -748Q373 -752 424 -633Q452 -568 452 -527Q452 -488 389 -274Q418 -300 460 -303Q498 -303 536 -304ZM908 -532Q805 -456 768 -299Q710 -57 710 -57Q658 61 507 82L779 153ZM784 -428Q746 -363 725 -293Q711 -235 697 -177Q679 -107 666 -79Q637 -12 588 19Q569 31 474 36Q463 45 453 68Q458 68 469 61Q480 54 487 54Q494 54 499.5 56.5Q505 59 510 59Q538 59 580 41Q650 11 688 -76Q712 -129 737.5 -253.5Q763 -378 784 -428ZM437 30Q417 18 388 -4Q369 -27 346 -69Q323 -111 323 -120Q323 -139 375.5 -303Q428 -467 428 -522Q428 -570 405 -617Q413 -582 411 -540Q409 -489 364 -365Q317 -233 311 -187Q303 -120 303 -139Q303 -105 330 -37Q342 -8 364 13Q379 20 394 27Q413 37 408 58Q410 58 420 61Q430 64 432 64Q432 59 434.5 47Q437 35 437 30ZM651 -120Q651 -160 614 -228Q598 -259 565 -272Q536 -284 497 -284Q444 -284 398.5 -236Q353 -188 353 -137Q353 -79 403.5 -32Q454 15 512 15Q547 15 600 -22Q610 -29 629 -63Q651 -101 651 -120ZM388 -542Q388 -542 356 -686L130 -17L373 43Q319 17 297 -46Q291 -65 278 -147ZM517 110L339 60Q330 108 334 152Q339 218 339 217Q375 229 451 248Q461 226 484 179Q507 132 517 110Z"/>
</svg>