<svg xmlns="http://www.w3.org/2000/svg" viewBox="29.1 -1554.9 1259.8 1914.8">
	<path fill="currentColor" d="M1218 289H1133V61L597 -268H100V-353H237L408 -1201Q297 -1243 297 -1329Q297 -1397 357 -1443Q408 -1484 464 -1484Q467 -1484 502 -1477Q527 -1472 544 -1456Q632 -1373 631 -1330V-353H692V-1329Q692 -1354 739 -1411Q781 -1463 795 -1467Q851 -1484 872 -1484Q912 -1484 949 -1466Q969 -1456 1000 -1402.5Q1031 -1349 1031 -1322Q1031 -1233 920 -1201L1091 -353H1218ZM1061 -355L895 -1213Q895 -1228 898 -1231Q900 -1231 905 -1228Q910 -1225 917 -1225Q951 -1225 978.5 -1257.5Q1006 -1290 1006 -1319Q1006 -1369 969 -1412Q929 -1459 874 -1459Q850 -1459 841 -1456Q811 -1446 784 -1431Q771 -1424 744.5 -1389Q718 -1354 718 -1339V-355ZM610 -355V-1320Q610 -1360 553 -1409.5Q496 -1459 461 -1459Q409 -1459 363 -1418.5Q317 -1378 317 -1327Q317 -1301 342 -1266Q371 -1225 408 -1225Q414 -1225 414.5 -1227.5Q415 -1230 421 -1230Q443 -1230 439 -1211L267 -355ZM1132 -35V-266H753ZM1132 26V-3L705 -267H657ZM1193 269V-328H125V-291H1154V269Z"/>
</svg>