<svg xmlns="http://www.w3.org/2000/svg" viewBox="0 -2048 2048 2048">
	<path fill="#000000" d="M2169 -41Q2164 -36 2146 0H463Q458 0 421 -12Q377 -27 364 -30Q304 -45 241 -88Q161 -143 134 -214Q125 -237 114 -307Q100 -393 100 -395Q100 -466 178 -543.5Q256 -621 329 -621Q449 -621 515 -527Q561 -436 606 -345Q661 -240 746 -224Q1029 -169 1455 -121Q1812 -81 2169 -41ZM2110 -24Q1768 -59 1425 -95Q1017 -139 746 -197Q640 -220 583 -324Q541 -413 500 -503Q444 -593 337 -593Q261 -593 194 -526.5Q127 -460 127 -381Q127 -285 175 -198Q232 -93 331 -66Q395 -45 478 -23Q578 -21 1813 -21Q1857 -21 1962 -23Q2057 -24 2110 -24Z"/>
</svg>