<svg xmlns="http://www.w3.org/2000/svg" viewBox="0 0 888 1000">
  <g transform="scale(1,-1) translate(0,-1000)">
    <path d="M462 142Q462 100 434 65L453 43L509 111Q499 116 484.5 127.0Q470 138 462 142ZM372 200Q428 193 443 189Q443 189 444 189Q449 195 462.5 207.5Q476 220 481.0 228.5Q486 237 486 248Q486 271 467.0 286.0Q448 301 421 301Q396 301 378.0 286.5Q360 272 360 251Q360 236 372 200ZM676 821Q672 821 662 811L663 758L748 713Q789 733 797 740Q797 743 801.0 754.0Q805 765 805.0 768.0Q805 771 803 771Q803 770 802 770Q788 764 768 757H764Q754 757 749 768Q748 769 743 805Q741 806 738.0 807.5Q735 809 734 810Q732 809 724.5 803.0Q717 797 709.0 792.5Q701 788 696 788Q681 788 679 804V814Q679 819 677 821ZM642 702 706 662 723 697V698L664 729ZM490 755Q490 745 504.0 721.5Q518 698 518 690Q518 681 498.0 666.0Q478 651 438.0 623.0Q398 595 366 566Q336 537 311.0 508.0Q286 479 257.5 444.0Q229 409 207 384L274 323Q336 416 405 501Q433 535 459.0 563.5Q485 592 520.0 628.0Q555 664 572 682Q571 691 571 705V713Q571 744 552.5 758.5Q534 773 514 773Q496 773 491 763Q491 761 490.5 758.5Q490 756 490 755ZM235 209Q259 200 279 200Q286 200 304.5 201.5Q323 203 335 203Q325 233 325 251Q325 288 354.0 312.0Q383 336 421 336Q460 336 490.0 311.0Q520 286 520 248Q520 241 519.0 234.5Q518 228 515.0 222.0Q512 216 510.0 211.5Q508 207 503.0 201.5Q498 196 495.5 193.5Q493 191 487.0 185.0Q481 179 479 177Q491 172 506.5 159.5Q522 147 529 144L551 193L562 215Q614 327 632 378Q650 427 667.5 488.0Q685 549 694.0 584.5Q703 620 705 621V623L615 678Q591 652 555.0 614.5Q519 577 490.5 546.0Q462 515 432 479Q394 433 357.0 382.5Q320 332 302 304L283 277ZM822 584Q822 595 814.5 598.5Q807 602 788 603H780Q770 603 733 596Q725 569 713.0 524.5Q701 480 690.0 443.0Q679 406 665 366Q646 313 600 217L690 220Q711 349 720 387Q722 397 727.0 418.5Q732 440 735.0 450.0Q738 460 743.0 476.0Q748 492 754.0 506.5Q760 521 769 537Q773 545 797.5 558.5Q822 572 822 584ZM19 277Q24 277 53.5 262.0Q83 247 102 247Q107 247 118.5 248.0Q130 249 138 249Q169 249 206 227L254 295L172 370Q166 376 166 383Q166 389 171 394Q194 420 225.0 458.5Q256 497 283.0 527.5Q310 558 342 589Q364 611 385.0 627.5Q406 644 434.5 664.0Q463 684 480 696Q478 700 470.5 712.0Q463 724 459.5 733.5Q456 743 456 755Q456 761 457.5 767.5Q459 774 464.0 784.5Q469 795 482.0 801.5Q495 808 514 808Q516 808 520.0 807.5Q524 807 525 807Q568 803 591 762Q602 745 604 714Q606 716 607 716L632 740L631 826V827Q634 830 634 830Q640 836 643 840Q656 855 676 855Q678 855 682.5 854.5Q687 854 688 854Q690 854 696 850Q684 872 684 899Q684 941 715.0 970.5Q746 1000 786 1000Q830 1000 859.0 970.0Q888 940 888 899Q888 868 867.0 840.5Q846 813 816 801Q837 790 837 768Q837 760 833.5 748.0Q830 736 830 731Q830 724 824 719Q814 710 802.5 703.5Q791 697 775.5 690.0Q760 683 751 678L735 644V641Q735 633 743 632Q761 637 780 637H791Q810 635 820.5 632.5Q831 630 843.5 618.0Q856 606 856 586V582Q854 568 844.0 552.0Q834 536 820 530Q816 528 811.0 526.0Q806 524 803.5 523.0Q801 522 800 521Q793 509 787.5 496.0Q782 483 779.0 475.0Q776 467 771.5 452.0Q767 437 765.5 431.0Q764 425 759.0 404.5Q754 384 752 378Q745 348 740.5 321.0Q736 294 731.0 260.0Q726 226 722 201Q719 187 706 187L584 183L566 141Q566 141 589.5 146.5Q613 152 628 152Q653 152 679.0 137.5Q705 123 716 123H719Q734 123 757.0 133.0Q780 143 792 146Q793 146 794.5 146.5Q796 147 797 147Q811 147 816 132Q816 131 816.5 129.5Q817 128 817 127Q817 113 802 108Q800 107 769.5 95.5Q739 84 719.0 84.0Q699 84 672.0 98.0Q645 112 637 113H628Q617 113 591.5 107.0Q566 101 553 101H545L466 6Q462 2 462 2H460Q460 2 454 0Q446 0 441 6L400 52Q396 56 396.0 63.0Q396 70 408.5 86.0Q421 102 424.0 112.0Q427 122 429 153Q403 160 350 165H337Q325 165 307.5 163.0Q290 161 279 161Q237 161 198.0 186.0Q159 211 138 211Q134 211 122.0 209.5Q110 208 102 208Q92 208 79 211Q67 214 55.5 219.0Q44 224 31.5 230.5Q19 237 12 240Q0 245 0 258Q0 265 5.5 271.0Q11 277 19 277ZM724 899Q724 874 742.0 854.0Q760 834 786 834Q811 834 829.5 853.0Q848 872 848 899Q848 928 829.5 944.5Q811 961 786.0 961.0Q761 961 742.5 941.0Q724 921 724 899Z" fill="currentColor"/>
  </g>
</svg>