<svg xmlns="http://www.w3.org/2000/svg" viewBox="0 0 936 1000">
  <g transform="scale(1,-1) translate(0,-1000)">
    <path d="M469 716Q451 682 451 647Q451 614 469 579Q487 614 487 647Q487 682 469 716ZM34 761Q60 741 93 738L82 799ZM842 738Q877 741 902 761L853 799ZM218 183Q252 101 319 66Q313 87 313 109Q313 145 331 183Q331 183 218 183ZM252 78Q151 179 151 386Q151 470 168.5 560.5Q186 651 203.0 704.0Q220 757 250 840Q258 860 258 883Q258 913 241.5 930.5Q225 948 202 948Q152 948 129 884L105 820Q121 734 121 724Q121 712 103 712Q64 712 32.0 730.5Q0 749 0 762Q0 766 5 771L77 828L101 895Q112 926 140.0 952.0Q168 978 203 978Q239 978 263.5 950.5Q288 923 288 882Q288 857 278 830L250 753H685L657 830Q648 854 648 882Q648 923 672.5 950.5Q697 978 733 978Q768 978 796.0 952.0Q824 926 835 895L859 828L931 771Q936 766 936 762Q936 749 904.0 730.5Q872 712 833 712Q826 712 823.0 712.5Q820 713 817.5 715.5Q815 718 815 724Q815 740 830 820L807 884Q783 948 733 948Q709 948 693.5 929.5Q678 911 678 882Q678 861 685 840Q716 755 732.5 703.5Q749 652 767.0 561.0Q785 470 785 386Q785 180 683 78Q605 0 469 0Q405 0 347.0 20.5Q289 41 252 78ZM240 723Q219 658 201 573H253H289Q271 609 271 647Q271 687 290 723ZM195 543Q181 461 181 393H242H251Q233 429 233 467Q233 507 252 543ZM181 363Q183 280 206 213H251Q233 249 233 287Q233 327 252 363ZM549 716Q531 682 531 647Q531 614 549 579Q567 614 567 647Q567 682 549 716ZM629 716Q611 682 611 647Q611 614 629 579Q647 614 647 647Q647 682 629 716ZM389 716Q371 682 371 647Q371 614 389 579Q407 614 407 647Q407 682 389 716ZM309 716Q291 682 291 647Q291 614 309 579Q327 614 327 647Q327 682 309 716ZM431 536Q413 502 413 467Q413 434 431 399Q449 434 449 467Q449 502 431 536ZM511 536Q493 502 493 467Q493 434 511 399Q529 434 529 467Q529 502 511 536ZM591 536Q573 502 573 467Q573 434 591 399Q609 434 609 467Q609 502 591 536ZM351 536Q333 502 333 467Q333 434 351 399Q369 434 369 467Q369 502 351 536ZM271 536Q253 502 253 467Q253 434 271 399Q289 434 289 467Q289 502 271 536ZM671 536Q653 502 653 467Q653 434 671 399Q689 434 689 467Q689 502 671 536ZM431 356Q413 322 413 287Q413 253 431 219Q449 253 449 287Q449 322 431 356ZM511 356Q493 322 493 287Q493 253 511 219Q529 253 529 287Q529 322 511 356ZM591 356Q573 322 573 287Q573 253 591 219Q609 253 609 287Q609 322 591 356ZM351 356Q333 322 333 287Q333 253 351 219Q369 253 369 287Q369 322 351 356ZM271 356Q253 322 253 287Q253 253 271 219Q289 253 289 287Q289 322 271 356ZM671 356Q653 322 653 287Q653 253 671 219Q689 253 689 287Q689 322 671 356ZM431 178Q413 144 413 109Q413 76 431 41Q449 75 449 109Q449 144 431 178ZM511 178Q493 144 493 109Q493 76 511 41Q529 75 529 109Q529 144 511 178ZM591 178Q573 144 573 109Q573 79 586 52Q588 53 592.0 54.5Q596 56 598 57Q609 84 609 109Q609 144 591 178ZM351 178Q333 144 333 109Q333 81 345 54Q347 54 350.5 52.0Q354 50 356 50Q369 79 369 109Q369 144 351 178ZM450 723H408Q427 686 427 647Q427 611 409 573H449Q431 609 431 647Q431 687 450 723ZM488 723Q507 686 507 647Q507 611 489 573H529Q511 609 511 647Q511 687 530 723ZM569 573H609Q591 609 591 647Q591 687 610 723H568Q587 686 587 647Q587 611 569 573ZM649 573H682H735Q717 658 696 723H648Q667 686 667 647Q667 611 649 573ZM370 723H328Q347 686 347 647Q347 611 329 573H369Q351 609 351 647Q351 687 370 723ZM451 393H491Q473 429 473 467Q473 507 492 543H450Q469 506 469 467Q469 431 451 393ZM412 543H370Q389 506 389 467Q389 431 371 393H411Q393 429 393 467Q393 507 412 543ZM531 393H571Q553 429 553 467Q553 507 572 543H530Q549 506 549 467Q549 431 531 393ZM611 393H651Q633 429 633 467Q633 507 652 543H610Q629 506 629 467Q629 431 611 393ZM332 543H290Q309 506 309 467Q309 431 291 393Q291 393 331 393Q313 429 313 467Q313 507 332 543ZM691 393H694Q694 393 755 393Q755 455 740 543Q740 543 690 543Q709 506 709 467Q709 431 691 393ZM451 213Q451 213 491 213Q473 249 473 287Q473 327 492 363H450Q469 326 469 287Q469 251 451 213ZM412 363H370Q389 326 389 287Q389 251 371 213Q371 213 411 213Q393 249 393 287Q393 327 412 363ZM531 213Q531 213 571 213Q553 249 553 287Q553 327 572 363H530Q549 326 549 287Q549 251 531 213ZM611 213Q611 213 651 213Q633 249 633 287Q633 327 652 363H610Q629 326 629 287Q629 251 611 213ZM332 363H290Q309 326 309 287Q309 251 291 213Q291 213 331 213Q313 249 313 287Q313 327 332 363ZM691 213Q691 213 730 213Q753 280 755 363Q755 363 690 363Q709 326 709 287Q709 251 691 213ZM449 32Q452 32 458.5 31.5Q465 31 469 31Q485 31 493 32Q473 70 473 109Q473 145 491 183H451Q469 146 469 109Q469 70 449 32ZM411 183H371Q389 146 389 109Q389 78 375 44Q399 38 411 36Q393 72 393 109Q393 145 411 183ZM531 37Q555 41 567 45Q553 78 553 109Q553 145 571 183H531Q549 146 549 109Q549 75 531 37ZM624 70Q684 106 718 183H611Q629 146 629 109Q629 90 624 70Z" fill="currentColor"/>
  </g>
</svg>