<svg xmlns="http://www.w3.org/2000/svg" viewBox="0 -2048 2048 2048">
	<path fill="#000000" d="M2050 -1233L2042 -1238Q2030 -1238 1974 -1241Q1926 -1243 1900 -1242Q1878 -1241 1828 -1236Q1783 -1232 1777 -1232Q1771 -1232 1674.5 -1242.5Q1578 -1253 1572 -1253Q1558 -1253 1540 -1213Q1533 -1198 1533 -1168Q1533 -1158 1593 -1021Q1784 -584 1784 -329Q1784 -75 1582 135Q1380 345 1126 345Q817 345 614.5 140Q412 -65 412 -367Q412 -443 441 -636Q455 -730 495 -836Q532 -926 570 -1016Q617 -1134 617 -1189Q617 -1248 571 -1248Q565 -1248 480 -1237.5Q395 -1227 389 -1227Q385 -1227 342 -1233Q296 -1240 276 -1241Q218 -1239 100 -1243V-1265Q100 -1300 206 -1320Q327 -1342 336 -1351Q353 -1370 388 -1399Q478 -1452 535 -1452Q550 -1452 590 -1435Q636 -1415 666 -1369Q686 -1338 692 -1312Q714 -1221 714 -1191Q714 -1180 663 -1052Q856 -1007 1050 -1007Q1241 -1007 1478 -1068Q1482 -1064 1482 -1076Q1482 -1084 1461.5 -1122.5Q1441 -1161 1441 -1199Q1441 -1290 1499 -1385Q1514 -1409 1571 -1433Q1617 -1452 1631 -1452Q1657 -1452 1773 -1394Q1789 -1375 1818 -1351Q1832 -1346 1944 -1322Q2027 -1305 2050 -1277ZM1989 -1286Q1831 -1324 1837 -1324H1795V-1253Q1831 -1259 1897 -1267H1830L1835 -1294L1930 -1292Q1935 -1292 1958 -1289Q1981 -1286 1989 -1286ZM1615 -727L1496 -1048Q1233 -981 1080 -981Q927 -981 657 -1027L540 -706Q901 -633 1067 -633Q1314 -633 1615 -727ZM1784 -1354Q1699 -1427 1626 -1427Q1548 -1427 1503 -1341Q1467 -1275 1467 -1207Q1467 -1185 1595 -849.5Q1723 -514 1723 -387Q1723 -162 1634 -18Q1530 151 1417 211Q1252 299 1114 299Q998 299 835 234Q630 153 536 -66Q468 -224 468 -416Q468 -549 525 -741Q560 -856 632 -1038Q689 -1183 689 -1202Q689 -1270 653 -1337Q606 -1427 520 -1427Q501 -1427 479 -1419.5Q457 -1412 414 -1386Q366 -1357 366 -1345Q366 -1330 393 -1253H419Q426 -1253 504.5 -1265.5Q583 -1278 589 -1278Q609 -1278 641 -1213Q642 -1211 642 -1189Q642 -1140 528 -847Q438 -616 438 -372Q438 -79 629 118Q824 319 1124 319Q1514 319 1708 -97Q1764 -217 1764 -303Q1764 -595 1562 -1021Q1508 -1135 1508 -1178Q1537 -1278 1564 -1278Q1683 -1256 1737 -1256Q1757 -1256 1768 -1259Q1768 -1256 1784 -1354ZM1697 -409V-452Q1697 -529 1624 -705Q1348 -613 1047 -613Q816 -613 536 -684Q492 -484 495 -388Q676 -329 845 -321Q949 -316 1021 -316Q1173 -316 1392 -349Q1582 -377 1697 -409ZM364 -1271Q360 -1286 355 -1316L360 -1323Q190 -1297 150 -1283L326 -1294V-1267H245Q287 -1263 359 -1253Q368 -1262 364 -1271ZM1697 -338V-382Q1349 -295 991 -295Q812 -295 584 -337Q576 -338 547 -348Q522 -356 516 -356H495Q533 -106 587 -26Q1009 38 1114 38Q1244 38 1460 -7Q1516 -18 1613 -41Q1631 -46 1665 -172Q1697 -293 1697 -338ZM1592 -8Q1375 47 1116 63L597 -2Q645 113 826 200Q988 278 1121 278Q1234 278 1375 198Q1527 111 1592 -8ZM1692 -1338Q1663 -1294 1654 -1294Q1653 -1294 1621 -1310Q1621 -1350 1638 -1350Q1656 -1350 1692 -1338ZM535 -1311Q496 -1294 497 -1294Q479 -1294 464 -1339Q445 -1339 518 -1350Q521 -1345 526.5 -1330.5Q532 -1316 535 -1311Z"/>
</svg>