<svg xmlns="http://www.w3.org/2000/svg" viewBox="0 -2048 2048 2048">
	<path fill="#000000" d="M1873 -1181Q1773 -1083 1623 -1083Q1598 -1083 1570 -1100Q1573 -1109 1604 -1178Q1630 -1236 1630 -1258Q1630 -1303 1576.5 -1355.5Q1523 -1408 1483 -1408Q1465 -1408 1426 -1379Q1387 -1350 1387 -1330V-198H1498V-121H1390L1387 -117V-58Q1455 -30 1494.5 21Q1534 72 1534 125Q1534 206 1459 262Q1394 310 1326 310Q1260 310 1202 248.5Q1144 187 1144 125Q1144 -13 1301 -59V-119H662Q664 -111 668 -54Q830 15 830 125Q830 194 768.5 252Q707 310 642 310Q606 310 549 286Q484 258 471 228Q439 155 439 113Q439 66 474 18Q515 -38 578 -51Q580 -52 587 -58V-124Q563 -127 535 -127Q508 -127 481 -124V-196H586V-1329Q586 -1356 542 -1384Q504 -1408 485 -1408Q435 -1408 387 -1354Q343 -1303 343 -1261Q343 -1227 363 -1182Q381 -1144 399 -1105Q378 -1083 346 -1083Q320 -1083 259 -1095Q241 -1098 178 -1129Q100 -1166 100 -1187Q100 -1193 102.5 -1203.5Q105 -1214 105 -1219Q206 -1237 268 -1303Q311 -1358 355 -1414Q408 -1469 498 -1469Q514 -1469 549 -1462Q576 -1457 619 -1405.5Q662 -1354 662 -1330V-197H1301V-1308Q1301 -1344 1342.5 -1397Q1384 -1450 1424 -1462Q1447 -1469 1476 -1469Q1508 -1469 1547 -1456Q1594 -1440 1670 -1347.5Q1746 -1255 1806 -1232Q1827 -1225 1849 -1218Q1877 -1204 1873 -1181ZM1843 -1199Q1741 -1218 1649 -1338Q1564 -1448 1471 -1448Q1429 -1448 1378 -1403.5Q1327 -1359 1327 -1318V-55H1361V-1335Q1361 -1362 1413 -1399Q1460 -1433 1483 -1433Q1540 -1433 1595.5 -1371.5Q1651 -1310 1651 -1253Q1651 -1191 1595 -1110H1668Q1707 -1108 1786 -1146Q1822 -1163 1843 -1199ZM1472 -147V-170H1388V-147ZM1509 125Q1509 62 1454 12Q1403 -34 1344 -34Q1275 -34 1224 7Q1169 53 1169 125Q1169 186 1216.5 233Q1264 280 1329 280Q1396 280 1447 245Q1509 202 1509 125ZM1300 -152V-170H663V-152ZM804 123Q804 14 631 -38L642 -1304Q636 -1358 591 -1403Q546 -1448 503 -1448Q422 -1448 371 -1392Q327 -1335 283 -1279Q221 -1212 125 -1193Q216 -1107 373 -1110Q323 -1190 323 -1258Q323 -1312 372 -1370Q424 -1433 482 -1433Q513 -1433 559 -1402Q612 -1366 612 -1324V-55Q623 -55 627 -52V-38Q460 -5 460 118Q460 149 492 203Q529 267 573 273Q626 280 637 280Q700 280 750 238Q804 192 804 123ZM586 -152V-170H501V-152Z"/>
</svg>