<svg xmlns="http://www.w3.org/2000/svg" viewBox="0 -2048 2048 2048">
	<path fill="currentColor" d="M2087 -593Q2087 -459 2023 -319Q2007 -277 1959 -198Q1735 66 1326 124Q1199 142 1093 142Q686 142 412 -32Q100 -231 100 -587Q100 -688 134 -801Q153 -864 222 -930.5Q291 -997 353 -1014Q382 -1023 445 -1039Q453 -1048 456 -1085Q613 -1212 752 -1212Q881 -1212 1011 -1090Q998 -1064 979 -1045Q990 -1032 1011 -1002L999 -989Q1003 -989 970 -1005H950Q946 -997 946 -972Q946 -942 949 -935Q957 -919 993 -912Q992 -912 1006 -900Q994 -877 974 -832Q965 -788 928 -700H898V-978Q818 -908 739 -838Q575 -699 542 -699Q532 -699 505 -715Q478 -731 467 -744Q464 -748 449 -794L445 -1016Q342 -980 297 -955Q214 -906 172 -826Q121 -728 121 -593Q121 -362 281 -169Q319 -123 453 -41Q624 64 736 80Q967 114 1148 114Q1479 114 1739 -46Q2060 -244 2060 -595Q2060 -753 2017 -835Q1956 -949 1785 -1010Q1781 -1006 1781 -860Q1780 -821 1768 -750Q1765 -741 1730 -717.5Q1695 -694 1686 -694Q1661 -694 1526 -812Q1354 -962 1331 -978V-700H1297Q1279 -739 1255 -827Q1253 -834 1238.5 -857.5Q1224 -881 1224 -888Q1224 -895 1254.5 -918Q1285 -941 1285 -948V-1001Q1281 -1005 1274 -1005Q1254 -1005 1238 -989Q1235 -992 1228.5 -995.5Q1222 -999 1219 -1002Q1225 -1016 1252 -1041Q1242 -1061 1219 -1084Q1271 -1141 1349 -1178Q1422 -1212 1484 -1212Q1641 -1212 1779 -1074Q1781 -1066 1781 -1037Q2087 -957 2087 -593ZM1705 -1034Q1653 -1080 1574 -1107Q1590 -1092 1590 -1073Q1590 -1062 1582.5 -1039.5Q1575 -1017 1574 -1006Q1662 -1028 1705 -1034ZM1759 -1043V-1063Q1732 -1100 1634.5 -1142.5Q1537 -1185 1476 -1185Q1369 -1185 1252 -1084Q1276 -1060 1277 -1060Q1382 -1147 1495 -1147Q1559 -1147 1626 -1112.5Q1693 -1078 1759 -1043ZM1563 -1062Q1563 -1075 1534 -1097.5Q1505 -1120 1489 -1120Q1467 -1120 1445 -1089Q1426 -1062 1426 -1046Q1426 -994 1497 -994Q1563 -994 1563 -1062ZM1753 -836V-1010H1703Q1696 -1010 1607 -988.5Q1518 -967 1511 -967Q1484 -967 1372 -981Q1453 -909 1534 -837Q1667 -721 1686 -721Q1695 -721 1720 -740Q1749 -762 1749 -778Q1749 -791 1728.5 -813.5Q1708 -836 1694 -836Q1694 -836 1673 -828Q1664 -812 1642 -786Q1638 -788 1628 -796V-816Q1632 -832 1655.5 -847.5Q1679 -863 1697 -863Q1725 -863 1753 -836ZM1421 -1006Q1399 -1039 1399 -1051Q1399 -1057 1406.5 -1078Q1414 -1099 1414 -1108Q1325 -1069 1285 -1029Q1307 -1026 1353 -1017.5Q1399 -1009 1421 -1006ZM1304 -776Q1304 -872 1299 -912Q1278 -889 1258 -889Q1287 -838 1304 -776ZM946 -1029Q878 -1078 821 -1102Q832 -1087 832 -1067Q832 -1053 826.5 -1032Q821 -1011 821 -1006Q868 -1015 946 -1029ZM979 -1084Q848 -1185 752 -1185Q713 -1185 602 -1143Q471 -1094 471 -1051Q471 -1038 478 -1038Q629 -1147 736 -1147Q805 -1147 960 -1060Q963 -1063 969.5 -1072Q976 -1081 979 -1084ZM973 -889Q954 -889 932 -912V-787Q938 -818 973 -889ZM804 -1057Q804 -1078 780 -1099Q756 -1120 733 -1120Q714 -1120 690.5 -1100.5Q667 -1081 667 -1060Q667 -1041 690 -1017.5Q713 -994 741 -994Q804 -994 804 -1057ZM662 -1006Q640 -1039 640 -1054Q640 -1061 645 -1079.5Q650 -1098 650 -1103Q635 -1097 526 -1035Q548 -1030 594 -1020.5Q640 -1011 662 -1006ZM864 -981Q736 -967 730 -967Q723 -967 629 -988.5Q535 -1010 528 -1010H478V-830Q512 -863 534 -863Q599 -863 602 -796Q592 -786 584 -786Q573 -805 562 -824Q553 -836 536 -836Q518 -836 500 -817Q482 -798 482 -776Q482 -762 505.5 -744Q529 -726 547 -726Q567 -726 708 -847Q786 -914 864 -981Z"/>
</svg>