<svg xmlns="http://www.w3.org/2000/svg" viewBox="32.6 -1542.4 1738.8 1819.8">
	<path fill="currentColor" d="M1704 -652Q1704 -580 1688 -516Q1673 -456 1624 -364Q1570 -261 1518 -206Q1407 -89 1212 -27Q1207 44 1202 115Q1183 210 1100 210Q1067 210 1053 199Q926 89 672 -128V204Q664 210 651 210Q631 210 618 159.5Q605 109 593 59Q573 -5 546 -25Q529 -30 493 -42Q422 -71 367 -110Q100 -300 100 -645Q100 -1018 415 -1237Q440 -1254 510 -1286Q520 -1341 588 -1357Q685 -1379 686 -1380Q702 -1390 734 -1433Q763 -1471 769 -1471Q788 -1471 807 -1423Q818 -1390 830 -1358Q831 -1319 821 -1270Q812 -1213 802 -1155Q793 -1109 764 -1099Q721 -1174 634 -1196Q541 -1220 512 -1259Q502 -1262 476 -1247Q125 -1047 125 -654Q125 -566 135 -508Q145 -475 164 -406Q192 -304 302 -195Q416 -83 528 -54Q597 -36 581 -36Q613 -36 627 -82Q640 -122 632 -144Q616 -152 603 -152Q586 -152 557 -133L545 -145Q550 -154 569 -172Q588 -190 588 -196Q588 -201 573.5 -223Q559 -245 559 -251Q559 -274 623 -314Q684 -352 745 -368Q843 -394 856 -394Q891 -394 983 -358Q1035 -338 1142 -279Q1205 -244 1204 -233Q1211 -239 1211 -228V-59Q1215 -55 1223 -55Q1257 -55 1350 -110Q1428 -157 1463 -187Q1487 -207 1529 -253Q1615 -372 1664 -518Q1680 -566 1680 -664Q1680 -839 1576 -1011Q1458 -1207 1268 -1273Q1238 -1231 1162 -1209Q1077 -1184 1056 -1165Q1041 -1144 1007 -1104H990Q980 -1113 960.5 -1185.5Q941 -1258 941 -1292Q941 -1340 964 -1401Q989 -1466 1016 -1475Q1027 -1453 1039 -1431Q1054 -1405 1079 -1394Q1136 -1376 1193 -1358Q1257 -1336 1273 -1293Q1317 -1282 1350 -1261Q1704 -1034 1704 -652ZM1245 -1294Q1245 -1325 1169 -1345Q1071 -1371 1065 -1375Q1048 -1386 1006 -1442Q965 -1399 965 -1299Q965 -1218 1001 -1128Q1030 -1177 1056 -1194Q1079 -1209 1123 -1223Q1245 -1261 1245 -1294ZM810 -1335Q810 -1342 796 -1380Q778 -1427 774 -1442Q745 -1390 681 -1364Q630 -1349 580 -1334Q535 -1320 535 -1277Q535 -1248 566 -1235Q619 -1222 671.5 -1208.5Q724 -1195 770 -1133Q782 -1176 793 -1220Q810 -1288 810 -1335ZM1139 -183Q1057 -243 961 -277Q984 -239 984 -208Q984 -179 956 -144ZM1191 -186V-223Q934 -369 854 -369Q799 -369 709 -329Q616 -287 583 -246Q592 -233 610 -210Q765 -321 856 -321Q953 -321 1058 -266Q1104 -231 1191 -186ZM960 -217Q960 -248 930.5 -270Q901 -292 873 -292Q839 -292 811 -270Q781 -245 781 -208Q781 -177 808 -155Q835 -133 868 -133Q902 -133 931 -157.5Q960 -182 960 -217ZM1190 75V-161H1122Q1109 -161 1019.5 -135Q930 -109 861 -109Q764 -109 714 -127Q1077 191 1100 191Q1120 191 1148 172Q1182 150 1182 121Q1182 108 1160 79.5Q1138 51 1117 51Q1095 51 1073 73Q1068 78 1060.5 91.5Q1053 105 1049 109Q1045 105 1032 105Q1040 31 1119 31Q1156 31 1190 75ZM791 -139Q762 -172 762 -210Q762 -226 781 -277H764Q693 -250 608 -178Q710 -153 791 -139ZM649 167V-70Q647 -55 622.5 -33.5Q598 -12 584 -11Q615 29 627 79Q638 123 649 167Z"/>
</svg>