<svg xmlns="http://www.w3.org/2000/svg" viewBox="14.1 -1629.9 2319.8 2088.8">
	<path fill="currentColor" d="M2248 -484Q2248 -435 2205 -421Q2185 -415 2121 -415Q2100 -415 2064 -412Q2024 -409 2008 -408Q1937 -407 1795 -402Q1775 -401 1715 -394Q1665 -389 1636 -389Q1620 -389 1588.5 -392.5Q1557 -396 1541 -396Q1480 -396 1408 -356L1782 320L1692 373Q1624 255 1555 136Q1463 -2 1352 -31Q1314 -41 1227 -41Q1151 -41 1097 -38L1007 -404Q685 -234 369 -200Q257 -188 240 -188Q225 -188 182.5 -204Q140 -220 130 -230Q112 -247 112 -277Q112 -263 115 -299Q139 -303 166 -303Q182 -303 215 -300.5Q248 -298 264 -298Q306 -298 417 -330Q309 -383 265 -437Q227 -483 168 -582Q100 -696 100 -732Q100 -774 151 -783Q272 -538 445 -412Q453 -406 489.5 -393Q526 -380 535 -380Q713 -380 964 -521Q917 -533 826 -563Q794 -576 723 -636Q646 -701 646 -726Q646 -733 648 -746Q650 -759 650 -764Q662 -770 679 -770Q705 -770 759 -735Q835 -687 839 -685Q896 -658 948 -641L728 -1535L752 -1544L1292 -567Q1407 -540 1412 -540H1780Q1774 -540 1909 -551L2167 -572Q2167 -572 2176 -572Q2209 -572 2228.5 -545Q2248 -518 2248 -484ZM2222 -484Q2222 -546 2176 -546Q2110 -546 1978 -530Q1846 -514 1780 -514H1412Q1378 -514 1310 -534L1353 -456Q1358 -454 1397 -454Q1405 -454 1429 -451Q1404 -430 1376 -415L1396 -378Q1480 -422 1541 -422Q1557 -422 1588.5 -418.5Q1620 -415 1636 -415Q1666 -415 1715 -420Q1776 -427 1794 -428Q1865 -430 2007 -434Q2157 -440 2154 -440Q2222 -440 2222 -484ZM1747 311L777 -1446L1118 -66Q1138 -67 1218 -67Q1413 -67 1496 19Q1549 74 1606 173Q1653 256 1700 338ZM973 -543L957 -611Q845 -650 745 -713Q696 -744 673 -744L672 -728Q683 -704 746 -650Q807 -600 836 -587Q873 -571 973 -543ZM1001 -431L983 -502Q715 -354 535 -354Q488 -354 430 -391Q272 -492 137 -753Q126 -749 126 -732Q126 -702 193 -591Q253 -491 285 -454Q330 -402 489 -324Q311 -272 264 -272Q248 -272 215 -274.5Q182 -277 166 -277Q149 -277 138 -276Q139 -258 147 -250Q155 -242 192.5 -228Q230 -214 240 -214Q268 -214 366 -226Q677 -264 1001 -431Z"/>
</svg>