<svg viewBox="0 0 20.143534 4.08"
   xmlns="http://www.w3.org/2000/svg">
  <path
     style="fill:currentColor; stroke:none"
     d=" M 20.143534 2.797712  Q 20.143534 3.147428 19.234274 3.217369  Q 18.325035 3.287314 17.917032 3.683656  Q 17.509029 4.08 16.436575 4.08  Q 15.364119 4.08 14.641371 3.473827  Q 13.918622 2.867654 12.962738 2.657827  Q 9.582167 2.72777 3.05417 2.564571  Q 2.72777 3.124115 2.051657 3.124115  Q 1.375542 3.124115 0.862628 2.40137  Q 0.373028 2.424685 0 2.051657  Q 0.373028 1.655314 0.862628 1.678627  Q 1.375542 0.955886 2.051657 0.955886  Q 2.72777 0.955886 3.05417 1.538742  Q 9.582167 1.352228 12.962738 1.42217  Q 13.918622 1.212343 14.641371 0.606171  Q 15.364119 0 16.436575 0  Q 17.509029 0 17.928699 0.396343  Q 18.348349 0.792686 19.245935 0.862628  Q 20.143534 0.932571 20.143534 1.3056  Q 20.143534 1.678627 19.514055 1.678627  Q 18.884571 1.678627 18.907873 2.051657  Q 18.907873 2.40137 19.5257 2.40137  Q 20.143534 2.40137 20.143534 2.797712  Z  M 17.928699 1.678627  Q 16.459885 0 14.82788 1.678627  L 17.928699 1.678627  Z  M 17.928699 2.40137  L 14.82788 2.40137  Q 16.459885 4.056686 17.928699 2.40137  Z " />
</svg>