<svg xmlns="http://www.w3.org/2000/svg" viewBox="0 -2048 2048 2048">
	<path fill="currentColor" d="M2146 -461H2072L2011 -563H1976L2036 -461H1962L1901 -563H1866L1926 -461H1852L1791 -563H261L344 -457H274L100 -602L274 -747H344L261 -641H1460V-837H1486V-641H1791L1852 -743H1926L1866 -641H1901L1962 -743H2036L1976 -641H2011L2072 -743H2146L2086 -641H2145V-563H2086ZM2100 -717H2086L2042 -641H2055ZM1990 -717H1976L1932 -641H1945ZM2100 -487L2055 -563H2042L2086 -487ZM1880 -717H1866L1822 -641H1835ZM1990 -487L1945 -563H1932L1976 -487ZM1880 -487L1835 -563H1822L1866 -487ZM2119 -589V-615H208L291 -721H283L141 -602L283 -483H291L208 -589Z"/>
</svg>