<svg xmlns="http://www.w3.org/2000/svg" viewBox="0 -2048 2048 2048">
	<path fill="currentColor" d="M1136 -58H790L618 394L446 -58H100V-84H436L335 -348H100V-374H325L225 -638H100V-664H215L161 -805H278L332 -664H655L176 -1128Q247 -1250 247 -1265Q247 -1297 237 -1315Q125 -1518 125 -1523Q125 -1560 163 -1560Q171 -1560 177 -1556L693 -664H904L958 -805H1075L1021 -664H1136V-638H1011L911 -374H1136V-348H901L800 -84H1136ZM1038 -779H976L932 -664H994ZM625 -729L272 -1341Q231 -1404 163 -1534Q157 -1532 152 -1524Q187 -1459 223 -1395Q273 -1303 273 -1268Q273 -1238 209 -1133ZM984 -638H922L821 -374H883ZM894 -638H342L442 -374H794ZM873 -348H812L711 -84H773ZM304 -664L260 -779H198L242 -664ZM415 -374L314 -638H252L353 -374ZM784 -348H452L553 -84H683ZM525 -84L424 -348H363L463 -84ZM673 -58H563L618 86ZM763 -58H701L618 159L535 -58H473L618 321Z"/>
</svg>