<svg xmlns="http://www.w3.org/2000/svg" viewBox="0 0 1000 1000">
  <g transform="scale(1,-1) translate(0,-1000)">
    <path d="M746 197Q746 187 744.0 174.5Q742 162 735.5 140.0Q729 118 710.5 103.5Q692 89 664 89Q607 89 554 119V20Q554 12 548.0 6.0Q542 0 534.0 0.0Q526 0 520.0 6.0Q514 12 514 20V148Q491 170 473.0 192.5Q455 215 380 316H142Q120 316 107.0 317.0Q94 318 71.0 324.5Q48 331 34.5 343.0Q21 355 10.5 380.0Q0 405 0 440Q0 450 2.0 465.0Q4 480 10.0 510.0Q16 540 34.5 559.5Q53 579 80 579Q109 579 130.0 560.5Q151 542 151 506Q151 481 141.5 453.0Q132 425 132 411Q132 356 169 356H290V753L126 968Q122 973 122 980Q122 988 128.0 994.0Q134 1000 142 1000Q152 1000 158 992L326 772Q330 767 330 760V356H736V753L572 968Q568 973 568 980Q568 988 574.0 994.0Q580 1000 588 1000Q598 1000 604 992L772 772Q776 767 776 760V356H980Q988 356 994.0 350.0Q1000 344 1000.0 336.0Q1000 328 994.0 322.0Q988 316 980 316H708Q746 265 746 197ZM91 412Q91 433 101.0 459.5Q111 486 111 505Q111 539 80 539Q64 539 52.0 508.0Q40 477 40 442Q40 396 56.5 378.5Q73 361 104 357Q91 383 91 412ZM514 316H417Q478 231 514 192ZM554 316V155Q605 119 664 119Q693 119 704.5 143.5Q716 168 716 197Q716 267 671 314Q669 316 669 316Z" fill="currentColor"/>
  </g>
</svg>