<svg xmlns="http://www.w3.org/2000/svg" viewBox="0 -2048 2048 2048">
	<path fill="#000000" d="M2209 -597Q2209 -505 2095 -507H2088L853 -554Q847 -505 825 -412Q811 -373 768 -373Q725 -373 714 -438Q701 -520 683 -539H599Q511 -406 390 -340Q359 -323 353 -323Q341 -323 321 -338Q320 -342 303 -480H100V-563H295V-618H101V-707H300V-716Q301 -724 299.5 -738.5Q298 -753 298 -760Q298 -766 318 -853Q345 -868 362 -868Q378 -868 389.5 -858Q401 -848 412 -838Q542 -752 602 -657H686Q699 -669 718 -752Q733 -823 767 -823Q813 -823 830 -773Q838 -749 847 -664L850 -663L2079 -711Q2093 -712 2133 -703Q2173 -694 2182 -687Q2209 -665 2209 -597ZM2186 -600Q2186 -638 2167 -670Q2102 -689 2076 -688L851 -640Q853 -606 851 -574L2091 -530Q2186 -528 2186 -600ZM830 -610Q830 -801 767 -801Q762 -801 755 -795Q748 -777 732 -712Q720 -664 696 -631H592Q534 -724 402 -817Q367 -842 359 -842Q349 -842 337 -837Q330 -813 321 -764Q318 -725 318 -661V-596Q318 -413 342 -350Q347 -346 351 -346Q351 -346 388 -365Q497 -421 589 -565H689Q699 -557 715 -538Q717 -534 735 -457Q748 -396 767 -396Q795 -396 805 -424Q830 -496 830 -610ZM296 -646Q295 -661 296 -681H126V-646ZM299 -506Q298 -524 299 -539H126V-506Z"/>
</svg>