<svg xmlns="http://www.w3.org/2000/svg" viewBox="0 -2048 2048 2048">
	<path fill="#000000" d="M761 279H100V257H343Q347 253 347 248L180 -345Q197 -372 220 -372Q236 -372 335 -301Q343 -301 347 -305L256 -1484H614L523 -291Q665 -362 663 -362Q674 -362 681 -360Q698 -354 701 -339L498 253H761ZM584 -1410V-1463H282L358 -430Q359 -391 360 -352Q362 -307 374 -282Q382 -266 410 -252Q433 -241 445 -241Q455 -241 496 -272Q547 -913 565 -1199Q567 -1234 576 -1325Q584 -1406 584 -1410ZM670 -329Q670 -334 663 -342L445 -210L206 -346V-324L373 254H472Z"/>
</svg>