<svg xmlns="http://www.w3.org/2000/svg" viewBox="11.8 -1546.2 2381.4 1839.4">
	<path fill="currentColor" d="M2305 -776Q2305 -687 2230 -686L1956 -681Q1957 -674 1957 -663Q1957 -625 1948 -586L2210 -589Q2299 -590 2299 -516Q2299 -432 2218 -432Q2153 -432 1928 -514L1904 -451Q1973 -426 2109 -375Q2233 -327 2233 -272Q2233 -242 2212.5 -218.5Q2192 -195 2162 -195Q2118 -195 2013 -265Q1941 -316 1869 -367L1836 -322Q2130 -138 2130 -80Q2130 -51 2089 -27Q2052 -6 2021 -6Q1993 -6 1783 -252Q1766 -238 1721 -196Q1893 22 1893 66Q1893 157 1822 157Q1750 157 1695 3Q1664 -84 1637 -146Q1471 -57 1275 -57Q1127 -57 917 -108Q740 -151 564 -195Q443 -220 362 -220Q262 -220 197 -164Q127 -105 127 -7Q127 82 212 135Q285 180 381 180Q397 180 514 172L515 192L388 203Q366 205 299 188.5Q232 172 210 161Q105 107 105 0Q105 -109 179 -176Q253 -243 363 -243Q441 -243 565 -217Q740 -174 916 -130Q1124 -80 1272 -80Q1764 -80 1910 -520Q1933 -589 1933 -689Q1933 -749 1860 -886Q1695 -1196 1295 -1196Q1142 -1196 932 -1141Q754 -1090 576 -1039Q465 -1010 416 -1010Q289 -1010 205 -1058Q100 -1118 100 -1235Q100 -1458 377 -1458Q448 -1458 528 -1435V-1416Q394 -1436 374 -1436Q123 -1436 123 -1237Q123 -1129 219 -1075Q296 -1032 413 -1032Q456 -1032 569 -1061Q749 -1111 928 -1162Q1144 -1218 1294 -1218Q1483 -1218 1612 -1152Q1636 -1213 1661 -1275Q1693 -1357 1718 -1387Q1751 -1427 1796 -1427Q1827 -1427 1847 -1396Q1864 -1368 1864 -1335Q1864 -1305 1698 -1107Q1725 -1085 1778 -1038Q1837 -1110 1895 -1182Q1984 -1284 2030 -1284Q2060 -1284 2092.5 -1262Q2125 -1240 2125 -1211Q2125 -1141 2024 -1081Q1961 -1045 1836 -970L1867 -921Q2129 -1098 2173 -1098Q2197 -1098 2222.5 -1073Q2248 -1048 2248 -1024Q2248 -968 2185 -934Q2136 -907 2051 -883Q1929 -848 1912 -842L1933 -790L2222 -843Q2227 -844 2232 -844Q2259 -844 2282 -823.5Q2305 -803 2305 -776ZM2102 -1207Q2102 -1261 2030 -1261Q1997 -1261 1905 -1161Q1847 -1095 1788 -1028Q1805 -1009 1820 -990Q1845 -1005 1894 -1034Q1957 -1068 2021 -1103Q2102 -1155 2102 -1207ZM2225 -1022Q2225 -1038 2207 -1056.5Q2189 -1075 2173 -1075Q2125 -1075 1878 -899Q1891 -879 1899 -862Q1969 -882 2040 -903Q2123 -927 2176 -955Q2225 -981 2225 -1022ZM1842 -1338Q1842 -1404 1792 -1404Q1752 -1404 1724 -1356Q1718 -1347 1688 -1273Q1669 -1229 1634 -1141L1680 -1120Q1842 -1319 1842 -1338ZM2282 -776Q2282 -819 2213 -819Q2201 -819 2196 -818L1938 -770Q1945 -745 1955 -701L2162 -706Q2200 -705 2259 -714Q2282 -725 2282 -776ZM2276 -512Q2276 -566 2214 -566Q2172 -566 2079 -564Q1992 -563 1945 -563Q1942 -551 1936 -528Q2006 -506 2076 -483Q2170 -454 2215 -454Q2276 -454 2276 -512ZM2208 -272Q2208 -310 2074 -367Q1986 -403 1899 -438L1877 -386Q2120 -217 2158 -217Q2208 -217 2208 -272ZM2108 -83Q2108 -108 1983 -197Q1905 -252 1826 -306L1798 -268Q1997 -34 2038 -34Q2058 -34 2083 -49Q2108 -64 2108 -83ZM1870 69Q1870 49 1708 -186L1657 -157Q1683 -93 1711 -16Q1766 135 1819 135Q1870 135 1870 69Z"/>
</svg>