<svg viewBox="0 0 24.9375 17.96875"
   xmlns="http://www.w3.org/2000/svg"
   version="1.0">
  <path
     style="fill:currentColor;stroke:none"
     d="M 20.28125,0 L 20.28125,3.78125 C 19.164583,3.77625 18.0875,3.8333073 17.05,3.9522266 C 16.0125,4.0711458 15.014583,4.2519271 14.05625,4.494375 C 13.097917,4.7368229 12.179289,5.0411386 11.300184,5.4068251 C 10.421079,5.7725116 9.5814953,6.1995689 8.78125,6.6875 C 7.8290653,7.2680727 7.0223937,7.9593906 6.3571041,8.7614688 C 5.6918145,9.563547 5.1679069,10.476386 4.78125,11.5 L 0.59375,6.625 L 0,7.09375 L 4.5,12.34375 C 4.2664154,13.157377 4.1051652,14.029976 4.03125,14.96875 L 0.59375,10.84375 L 0,11.3125 L 3.96875,16.0625 C 3.967572,16.147189 3.96875,16.226888 3.96875,16.3125 L 2.09375,16.3125 L 2.09375,17.96875 L 24.9375,17.96875 L 24.9375,16.3125 L 24.25,16.3125 L 24.25,0 L 22.59375,0 L 22.59375,3.78125 L 21.96875,3.78125 L 21.96875,0 L 20.28125,0 z M 20.9375,0.625 L 21.3125,0.625 L 21.3125,16.3125 L 20.9375,16.3125 L 20.9375,0.625 z M 23.21875,0.625 L 23.625,0.625 L 23.625,16.3125 L 23.21875,16.3125 L 23.21875,0.625 z M 20.28125,4.40625 L 20.28125,16.3125 L 4.625,16.3125 C 4.6283334,15.254167 4.726717,14.270144 4.9200155,13.360559 C 5.113314,12.450973 5.4015275,11.615825 5.7845205,10.85524 C 6.1675135,10.094655 6.645286,9.4086332 7.2177027,8.7973011 C 7.7901194,8.185969 8.4571803,7.6493265 9.21875,7.1875 C 9.9822772,6.7244864 10.784517,6.3189916 11.626161,5.9712945 C 12.467805,5.6235973 13.348854,5.3336979 14.27,5.101875 C 15.191146,4.8700521 16.152292,4.6961458 17.153984,4.5801953 C 18.155677,4.4642448 19.197917,4.40625 20.28125,4.40625 z M 21.96875,4.40625 L 22.59375,4.40625 L 22.59375,16.3125 L 21.96875,16.3125 L 21.96875,4.40625 z M 2.75,16.9375 L 24.25,16.9375 L 24.25,17.34375 L 2.75,17.34375 L 2.75,16.9375 z" />
</svg>