<svg viewBox="0 0 21.093327 8.4"
   xmlns="http://www.w3.org/2000/svg">
  <path
     style="fill:currentColor; stroke:none"
     d=" M 21.093327 0  L 19.296654 8.4  L 0 8.4  L 0 7.653333  L 2.823333 7.653333  Q 3.220001 4.549997 5.34333 4.176667  L 7.863335 4.176667  Q 8.819995 0.676666 13.11334 0.676666  L 20.159988 0.676666  L 20.346657 0  L 21.093327 0  Z  M 20.019993 1.446666  L 13.160006 1.446666  Q 9.566662 1.446666 8.633333 4.176667  L 19.45999 4.176667  L 20.019993 1.446666  Z  M 19.319992 4.923328  L 8.4 4.923328  Q 8.073333 6.3 7.956667 7.653333  L 18.736658 7.653333  L 19.319992 4.923328  Z  M 7.653333 4.923328  L 5.34333 4.923328  Q 3.733334 5.389995 3.639999 7.653333  L 7.209999 7.653333  Q 7.303332 6.3 7.653333 4.923328  Z " />
</svg>