<svg xmlns="http://www.w3.org/2000/svg" viewBox="13 -1504 2350.1 1711.1">
	<path fill="currentColor" d="M2276 -89Q2276 -43 2239.5 -13Q2203 17 2155 17Q2154 17 2079 10Q2056 -112 2033 -235Q1990 -392 1882 -392Q1871 -392 1813 -377L1979 120H221L502 -762Q500 -765 297 -964Q173 -1086 100 -1175L106 -1213L591 -1052L701 -1417L1106 -1146L1504 -1417L1718 -729Q1725 -703 1738 -668Q1773 -656 1818 -640Q1873 -622 1928 -605Q1985 -584 2028 -544Q2081 -495 2144 -394Q2165 -360 2219 -240Q2276 -111 2276 -89ZM1711 -676L1488 -1383L1114 -1125V-876ZM1091 -883V-1127L715 -1383L613 -1046ZM2253 -88Q2253 -108 2199 -229Q2149 -342 2130 -374Q2031 -539 1945 -574Q1923 -583 1813 -620Q1811 -621 1510 -721L123 -1185V-1183Q123 -1161 304 -986Q414 -882 524 -778Q830 -478 1009 -408Q1185 -339 1353 -339Q1427 -339 1660 -377Q1712 -385 1816 -403Q1872 -414 1877 -414Q1884 -414 1884 -408V-415Q2000 -415 2049 -260Q2074 -135 2099 -10Q2107 -10 2125 -8Q2143 -6 2152 -6Q2192 -6 2222.5 -27.5Q2253 -49 2253 -88ZM1947 96L1791 -375Q1675 -356 1603 -345Q1410 -316 1353 -316Q1252 -316 1115 -352V96ZM1091 96V-358Q951 -389 784 -515Q696 -582 520 -746L255 96Z"/>
</svg>