<svg xmlns="http://www.w3.org/2000/svg" viewBox="0 -2048 2048 2048">
	<path fill="currentColor" d="M1956 -503Q1956 -431 1897 -377Q1860 -343 1749 -281Q1720 -265 1675 -201Q1539 -8 1338 88Q1202 153 1050 153Q943 153 827 132Q744 117 650 83Q590 61 547 39Q434 -20 341 -99Q295 -138 207 -236Q100 -356 100 -389V-419Q106 -425 114 -425Q109 -425 388 -254Q479 -198 653 -151Q831 -102 954 -102Q1059 -102 1228 -137Q1303 -153 1424 -207Q1487 -235 1550 -262Q1633 -305 1666 -360Q1679 -398 1703 -467Q1758 -611 1858 -611Q1908 -611 1935 -571Q1956 -540 1956 -503ZM1937 -508Q1937 -535 1919 -556Q1889 -591 1861 -591Q1791 -591 1738 -481Q1706 -406 1675 -331Q1655 -299 1595 -264Q1461 -186 1287 -133Q1106 -77 974 -77Q551 -77 130 -388Q445 129 1050 129Q1248 129 1377 44Q1523 -52 1586 -132Q1642 -205 1720 -291Q1832 -359 1862 -383Q1937 -445 1937 -508ZM1907 -506Q1907 -454 1849.5 -398Q1792 -342 1745 -342Q1738 -342 1716 -353Q1730 -406 1757 -460Q1804 -557 1853 -557Q1872 -557 1889.5 -538Q1907 -519 1907 -506ZM1883 -501Q1883 -533 1846 -533Q1801 -533 1746 -367Q1883 -404 1883 -501Z"/>
</svg>