<svg xmlns="http://www.w3.org/2000/svg" viewBox="0 -2048 2048 2048">
	<path fill="#000000" d="M1539 -373Q1525 -345 1485 -285Q1397 -365 1309 -444Q1193 -549 1120 -551Q1092 -494 1089 -463L1069 -266Q1069 -257 1108 -214Q1151 -167 1152 -165Q1191 -101 1251 25.5Q1311 152 1311 171Q1311 184 1286 228Q1283 227 1262.5 218Q1242 209 1235 209Q1230 209 1216 215Q1202 221 1195 222Q1126 228 1095 228Q1091 228 1001 220Q994 219 989 228V167Q1034 158 1079 150Q1136 138 1164 121Q1146 70 1001 -105Q974 -126 928 -172Q919 -195 901.5 -238Q884 -281 884 -333Q884 -353 887 -390.5Q890 -428 890 -446Q890 -473 885 -494Q856 -448 771 -365Q674 -271 656 -248Q651 -179 630 -40Q624 -11 601 56Q580 116 580 121Q580 126 589.5 150.5Q599 175 599 181Q599 196 584 209.5Q569 223 558 223Q553 223 541 216Q529 209 523 209Q517 209 507 215.5Q497 222 492 222Q416 228 361 228Q327 228 247 218Q255 199 252 167Q340 151 365 145Q425 128 464 97Q464 57 468 -21Q472 -91 490 -231Q505 -305 595 -427Q677 -533 760 -639L100 -1414Q100 -1428 111 -1439ZM1515 -368L148 -1386L905 -522Q980 -575 1074 -575Q1192 -575 1267 -513Q1374 -415 1480 -318Q1485 -325 1497.5 -343Q1510 -361 1515 -368ZM1292 174Q1292 168 1263 105Q1225 24 1209 -17Q1179 -92 1109 -178Q1045 -256 1045 -254Q1045 -308 1065 -448Q1070 -485 1087 -550H1015Q997 -550 955 -527.5Q913 -505 913 -496Q907 -386 907 -349Q907 -289 937 -201Q943 -183 957 -172Q1003 -136 1167 71Q1200 112 1188 135Q1151 156 1095 169Q1052 177 1008 186V204H1151Q1157 204 1193 197Q1229 190 1235 190Q1242 190 1253 195Q1264 200 1268 200Q1292 200 1292 174ZM869 -515Q869 -539 772 -622Q690 -519 607 -415Q501 -266 502 -145Q502 -127 495.5 -79.5Q489 -32 489 -30V92Q489 128 383 160Q308 183 271 186V204H453Q459 204 486.5 192.5Q514 181 520 181Q526 181 538.5 190.5Q551 200 558 200Q580 200 580 178Q580 173 568 148.5Q556 124 556 119Q556 114 581 42Q608 -38 616 -73Q623 -145 642 -277Q745 -375 869 -515Z"/>
</svg>