<svg xmlns="http://www.w3.org/2000/svg" viewBox="0 -2048 2048 2048">
	<path fill="#000000" d="M2093 -306Q2093 -152 2037 -80Q1959 20 1853 20Q1807 20 1786 18Q1685 8 1626 -66Q1570 -137 1570 -240Q1570 -335 1663 -564Q1396 -525 1321 -525Q1253 -525 1186 -528V-249H1160V-529Q1023 -536 886 -559V311H860V-563Q784 -576 711 -595Q541 -638 364 -712Q100 -821 100 -904Q100 -979 165 -979Q175 -979 210 -968Q401 -907 739 -831Q811 -815 860 -806V-1324Q860 -1391 908 -1439Q956 -1487 1023 -1487Q1090 -1487 1138 -1439Q1186 -1391 1186 -1324V-782Q1329 -790 1464 -814Q1638 -845 1681 -887Q1710 -916 1739.5 -983Q1769 -1050 1790 -1072Q1829 -1113 1900 -1113Q1990 -1113 2040 -1056Q2087 -1002 2087 -910Q2087 -740 1964 -666Q1970 -652 2003 -592Q2093 -427 2093 -306ZM2062 -910Q2062 -971 2026 -1025Q1985 -1086 1927 -1086Q1854 -1086 1812 -1049Q1785 -1026 1753 -963Q1717 -893 1691 -863Q1653 -820 1469 -787Q1326 -761 1186 -754V-552Q1243 -549 1319 -549Q1457 -549 1652 -588Q1878 -633 1960 -695Q2062 -772 2062 -910ZM1980 -275Q1980 -445 1861 -619Q1838 -612 1794 -594Q1783 -588 1739 -434Q1695 -280 1695 -252Q1695 -105 1816 -105Q1980 -105 1980 -275ZM2069 -319Q2069 -408 1941 -654Q1912 -637 1884 -629Q1934 -566 1969.5 -456.5Q2005 -347 2005 -263Q2005 -182 1957 -131Q1909 -80 1829 -80Q1671 -80 1671 -252Q1671 -365 1769 -590Q1738 -581 1691 -570Q1595 -293 1595 -240Q1595 -87 1714 -25Q1752 -5 1853 -5Q1933 -5 2001 -78Q2069 -151 2069 -319ZM1160 -781V-1324Q1160 -1381 1120 -1421Q1080 -1461 1023 -1461Q966 -1461 926 -1421Q886 -1381 886 -1324V-802Q1019 -780 1131 -780Q1133 -780 1160 -781ZM1160 -554V-753H1144Q1024 -753 886 -774V-587Q1023 -563 1160 -554ZM860 -592V-778Q586 -823 204 -943Q172 -953 165 -953Q151 -953 138 -936Q125 -919 125 -904Q125 -815 544 -674Q695 -623 860 -592ZM2001 -895Q2001 -776 1885 -720Q1797 -679 1663 -679Q1646 -679 1624 -680V-684Q1624 -698 1618 -707Q1719 -744 1747 -772Q1767 -791 1771 -839Q1778 -903 1800 -954Q1830 -1022 1893 -1022Q1942 -1022 1973 -982Q2001 -946 2001 -895ZM1976 -895Q1976 -999 1894 -999Q1806 -999 1806 -830Q1806 -795 1763 -755Q1726 -722 1687 -707Q1798 -707 1876 -746Q1976 -795 1976 -895Z"/>
</svg>