<!-- Created with Inkscape (http://www.inkscape.org/) -->
<svg viewBox="-82.1 -96.5 1157.2 1990.7"
   xmlns="http://www.w3.org/2000/svg"
   version="1.0">
  <g>
    <path
       style="fill:currentColor;fill-opacity:1;fill-rule:evenodd;stroke:none;stroke-width:60;stroke-linecap:butt;stroke-linejoin:miter;stroke-miterlimit:4;stroke-dasharray:none;stroke-opacity:1"
       d="M 496.5,-22.78125 C 275.12715,-15.382558 -8.375,83.108568 -8.375,328.5625 L -8.375,1820.4688 L 1001.3438,1820.4688 L 1001.3438,328.5625 C 1001.3438,79.787243 712.48872,-10.385157 496.5,-22.78125 z M 496.5,37.21875 C 679.62851,44.969222 941.34375,119.24106 941.34375,328.5625 L 941.34375,1760.4688 L 51.625,1760.4688 L 51.625,328.5625 C 51.625,117.36634 315.79676,47.912301 496.5,37.21875 z " />
    <path
       style="opacity:1;fill:currentColor;fill-opacity:1;stroke:none;stroke-width:36.05461502;stroke-linecap:round;stroke-linejoin:round;stroke-miterlimit:4;stroke-dasharray:none;stroke-opacity:1"
       d="M 496.48936,305.99718 C 411.30473,305.99718 341.79352,375.54309 341.7935,460.72772 C 341.7935,545.91235 411.30474,615.42358 496.48936,615.42358 C 589.56283,615.42358 648.31394,556.56067 651.2199,460.72772 C 651.69767,366.46788 580.05555,305.99718 496.48936,305.99718 z M 496.48936,346.00593 C 560.03149,346.00594 611.21115,397.18559 611.21115,460.72772 C 611.21114,524.26984 560.03149,575.41484 496.48936,575.41484 C 432.94724,575.41483 381.76758,524.26984 381.76758,460.72772 C 381.76759,397.18559 432.94724,346.00593 496.48936,346.00593 z " />
  </g>
</svg>