<svg xmlns="http://www.w3.org/2000/svg" viewBox="0 -2048 2048 2048">
	<path fill="currentColor" d="M1819 -591Q1819 -577 1812 -506Q1808 -464 1758 -403Q1705 -337 1659 -337H1010L1030 136Q1030 241 957 241Q874 241 874 119L893 -322Q893 -329 885 -337H304Q286 -337 228 -373Q177 -404 165 -416Q120 -460 106 -535Q100 -566 100 -589Q100 -645 129 -700Q167 -773 238 -797.5Q309 -822 328 -822H900Q905 -827 913 -902Q905 -903 889 -912Q816 -981 772 -1079Q732 -1166 732 -1238Q732 -1299 759 -1345Q793 -1402 860 -1406Q874 -1428 889 -1450.5Q904 -1473 940 -1473Q971 -1473 989 -1448Q992 -1434 1002 -1414Q1033 -1399 1088 -1368Q1133 -1338 1146 -1280Q1153 -1249 1153 -1233Q1153 -1155 1109 -1055Q1059 -941 991 -907Q991 -826 991 -826L1626 -822Q1720 -818 1775 -734Q1819 -667 1819 -591ZM981 -1411Q952 -1454 942 -1454Q924 -1454 899 -1416Q945 -1417 981 -1411ZM1128 -1226Q1128 -1265 1116.5 -1301.5Q1105 -1338 1029 -1369Q964 -1395 918 -1395Q911 -1395 899.5 -1390.5Q888 -1386 886 -1386Q814 -1373 785 -1341Q756 -1309 756 -1240Q756 -1168 804 -1058Q865 -920 947 -920Q999 -920 1060 -1010Q1114 -1091 1122 -1152Q1128 -1200 1128 -1226ZM1795 -574Q1795 -648 1765 -710Q1724 -797 1640 -797H1114L1345 -357H1635Q1688 -357 1743 -420Q1795 -481 1791 -526Q1790 -535 1792.5 -552.5Q1795 -570 1795 -574ZM966 -822V-900Q954 -897 939 -892Q927 -858 928 -838V-822ZM1314 -357L1088 -796H908L1139 -357ZM1108 -357L877 -796H693L919 -357ZM893 -357L667 -797H323Q239 -797 179 -729Q124 -665 124 -591Q124 -530 150 -475Q162 -450 199 -417Q218 -400 258 -378.5Q298 -357 314 -357ZM1011 153L981 -336H919L893 136Q893 159 909 185Q929 217 955 217Q1011 217 1011 153Z"/>
</svg>