<svg xmlns="http://www.w3.org/2000/svg" viewBox="0 -2048 2048 2048">
	<path fill="#000000" d="M538 269Q523 269 523 278H100V233Q100 192 151 134.5Q202 77 243 73L272 -883Q272 -913 271 -926Q212 -957 180 -1030Q124 -1159 124 -1228Q124 -1364 244 -1384Q250 -1399 264 -1427Q273 -1443 314 -1443Q390 -1443 390 -1378Q396 -1379 402 -1379Q440 -1379 472.5 -1339.5Q505 -1300 512 -1253Q514 -1240 514 -1221Q514 -1146 463 -1039Q412 -932 366 -916Q366 -916 366 -861L400 78Q402 80 408 86Q450 86 496 150Q538 208 538 242ZM365 -1392Q349 -1423 319 -1423Q283 -1423 278 -1394Q345 -1394 365 -1392ZM494 -1226Q494 -1291 449 -1332Q434 -1345 378 -1360Q326 -1374 304 -1374Q283 -1374 235 -1355Q180 -1334 164.5 -1312.5Q149 -1291 149 -1226Q149 -1159 191 -1062Q245 -935 324 -935Q390 -935 447 -1057Q494 -1160 494 -1226ZM375 71L340 -914Q308 -914 298 -919L268 71Q268 71 375 71ZM513 254V237Q470 92 319 92Q201 92 150 167Q123 206 124 228V254Z"/>
</svg>