<svg xmlns="http://www.w3.org/2000/svg" viewBox="0 -2048 2048 2048">
	<path fill="#000000" d="M523 -1092Q523 -1086 520 -1071Q514 -1031 495 -954Q459 -853 357 -763L403 258Q404 282 404 276Q404 373 291 373Q269 373 245.5 352.5Q222 332 222 277Q222 281 223 255L264 -756Q264 -758 263 -765Q223 -791 196 -823Q188 -833 138 -939Q100 -1020 100 -1099Q100 -1180 161 -1231Q169 -1238 261 -1267Q261 -1279 262.5 -1303Q264 -1327 264 -1339Q264 -1382 227 -1414Q214 -1425 153 -1461V-1495Q183 -1512 183 -1512Q212 -1512 255 -1486Q295 -1462 313 -1436Q339 -1399 346 -1356Q349 -1314 353 -1271Q446 -1254 482 -1221Q523 -1182 523 -1092ZM330 -1268Q326 -1308 322 -1347Q316 -1393 296 -1422Q282 -1442 245 -1466Q208 -1490 186 -1490Q183 -1490 179 -1485V-1472Q254 -1429 272 -1392Q287 -1362 287 -1270Q310 -1273 304 -1273Q319 -1273 330 -1268ZM501 -1092Q501 -1153 483.5 -1182Q466 -1211 410 -1235Q389 -1239 348 -1250Q332 -1250 299 -1249Q123 -1243 123 -1099Q123 -1022 167 -924Q215 -818 276 -784Q280 -787 288 -787Q293 -787 302 -785.5Q311 -784 316 -784Q344 -784 354 -790Q461 -854 495 -1066Q501 -1104 501 -1092ZM381 277Q381 257 381 255L334 -764H287L243 279Q241 323 260.5 336.5Q280 350 294 350Q381 350 381 277Z"/>
</svg>