<svg xmlns="http://www.w3.org/2000/svg" viewBox="0 -2048 2048 2048">
	<path fill="#000000" d="M1812 -519L1635 -419Q1629 -419 1617 -431Q1637 -450 1671 -490H1091L1116 177Q1116 277 1041 277Q981 277 965 214Q961 197 961 133L981 -491H493Q434 -409 324 -409Q280 -409 228 -443Q176 -477 183 -477Q179 -477 154 -469Q125 -461 106 -458Q104 -463 100 -470Q112 -483 144 -504Q144 -504 105 -517V-535Q117 -537 144 -544Q140 -549 105 -572Q106 -573 109 -581Q112 -589 119 -589Q125 -589 152 -577Q179 -565 185 -565Q190 -565 207 -586Q224 -607 233 -611Q281 -633 319 -633Q359 -633 404 -615Q463 -591 478 -550H981L1000 -832Q1000 -841 998 -858Q917 -885 850 -1038Q820 -1106 820 -1190Q820 -1351 948 -1359Q953 -1372 968 -1396Q995 -1426 1026 -1426Q1057 -1426 1070 -1401Q1079 -1381 1088 -1361Q1088 -1360 1134 -1341Q1196 -1315 1212 -1278Q1228 -1241 1231 -1219Q1233 -1204 1233 -1175Q1233 -1138 1226 -1107Q1185 -927 1081 -865Q1073 -860 1073 -857L1087 -554H1676Q1649 -577 1623 -612Q1651 -612 1640 -616Q1697 -585 1812 -519ZM1062 -1364Q1041 -1406 1026 -1406Q1010 -1406 985 -1369Q1026 -1370 1062 -1364ZM1214 -1185Q1214 -1206 1207 -1239Q1197 -1286 1159 -1302Q1052 -1348 1007 -1348Q969 -1348 916 -1324Q855 -1296 850 -1263Q844 -1220 844 -1195Q844 -1159 850 -1121Q859 -1063 907 -981Q968 -876 1031 -876Q1103 -876 1162 -994Q1214 -1098 1214 -1185ZM1058 -606L1052 -856Q1039 -849 1025 -851L1010 -551H1052ZM1763 -522H485V-507H1711Q1711 -493 1701 -483Q1741 -503 1763 -522ZM1092 155L1062 -491H1003L980 167Q980 252 1041 252Q1092 252 1092 155ZM465 -511Q465 -558 413 -586Q371 -609 324 -609Q280 -609 247 -589Q207 -565 207 -524Q207 -484 245 -458Q280 -434 328 -434Q465 -434 465 -511Z"/>
</svg>