<svg xmlns="http://www.w3.org/2000/svg" viewBox="0 -2048 2048 2048">
	<path fill="#000000" d="M1407 55Q1407 94 1399 136Q1392 171 1349 215Q1309 255 1291 255H835Q831 273 812 313Q780 357 748 357Q688 357 661 255H248Q230 255 183 219Q142 187 134 174Q100 117 100 58Q100 8 129 -37Q143 -58 176 -83Q224 -119 258 -117H682Q678 -124 678 -135Q678 -146 682 -158L693 -520V-678H488Q481 -678 365 -662Q249 -646 242 -646Q189 -646 144.5 -686.5Q100 -727 100 -776Q100 -810 132 -845Q164 -880 199 -880Q218 -880 243 -862.5Q268 -845 274 -825Q275 -821 275 -773Q559 -820 705 -816L709 -820V-904Q629 -953 570 -1072Q516 -1180 516 -1262Q516 -1293 533 -1341Q552 -1396 576 -1411Q603 -1421 656 -1441Q663 -1455 684 -1482Q717 -1515 735 -1515Q749 -1515 778 -1475.5Q807 -1436 808 -1436Q867 -1415 899 -1395Q959 -1357 959 -1256Q959 -1176 917 -1073Q865 -947 788 -909Q789 -883 793 -837Q795 -819 803 -807Q835 -806 898 -793Q1086 -755 1171 -697Q1232 -655 1266 -591Q1322 -485 1321 -441V-423Q1275 -404 1215 -397Q1169 -391 1157 -379Q1140 -360 1140 -294Q1140 -209 1177 -131L1167 -121Q1187 -114 1238.5 -113.5Q1290 -113 1314 -105Q1355 -91 1383 -34Q1407 14 1407 55ZM777 -1447Q736 -1488 735 -1488Q729 -1488 692 -1453Q747 -1453 777 -1447ZM937 -1259Q937 -1349 857 -1392Q799 -1424 713 -1424Q543 -1424 543 -1264Q543 -1192 594 -1076Q658 -928 743 -928Q824 -928 886 -1066Q937 -1179 937 -1259ZM766 -812V-907Q751 -900 730 -901Q737 -857 736 -817Q738 -817 749 -814.5Q760 -812 766 -812ZM1107 -119Q1080 -236 1076 -329Q1076 -386 1069 -463Q1047 -539 957 -598Q883 -646 808 -661V-119ZM1380 71Q1380 -97 1249 -96H1199Q1262 38 1351 181Q1380 133 1380 71ZM1294 -439Q1290 -466 1269 -532Q1257 -569 1220 -618Q1177 -672 1133 -697Q1047 -745 989 -756Q783 -795 705 -795L258 -742Q244 -742 234 -760Q250 -778 250 -801Q250 -854 199 -854Q173 -854 150 -830Q127 -806 127 -779Q127 -726 171 -690Q193 -672 252 -672L601 -704Q690 -704 758 -692Q899 -667 992 -594Q1070 -533 1079 -493Q1093 -434 1104 -301Q1115 -182 1131 -134Q1136 -139 1145 -141Q1113 -203 1113 -296Q1113 -386 1141 -400Q1218 -420 1294 -439ZM785 -119V-666Q760 -669 720 -677L704 -119ZM1327 200L1165 -96H1050Q1097 9 1210 232Q1226 234 1239 234Q1282 234 1327 200ZM1177 233L1016 -96H879L1045 233ZM1012 233L851 -96H719L891 233ZM857 233L686 -96H554L725 233ZM697 233L526 -96H394L565 233ZM804 275V256H693Q697 330 745 330Q763 330 783.5 311Q804 292 804 275ZM537 233L366 -96H306Q274 -97 246 -84Q241 -81 239 -73L400 233ZM366 233L216 -70Q127 -47 127 63Q127 103 134 126Q144 160 194 196.5Q244 233 274 233Z"/>
</svg>