<svg xmlns="http://www.w3.org/2000/svg" viewBox="28.5 -1534.5 1931 1926">
	<path fill="currentColor" d="M1888 -383Q1888 -350 1752 -328Q1651 -312 1587 -312L1016 -349Q1016 -213 1021.5 -1Q1027 211 1027 190Q1027 320 950 320Q864 320 864 182L884 -334Q881 -339 862 -336Q696 -307 640 -307Q556 -307 508 -328Q452 -353 409 -420Q394 -443 363 -466.5Q332 -490 316 -490Q311 -490 280 -485Q249 -480 242 -480Q202 -480 158 -498Q100 -522 100 -562Q100 -599 150 -631Q183 -649 217 -666Q186 -693 155 -720Q105 -766 105 -781Q105 -794 122 -811Q183 -768 286 -684Q293 -691 362 -765Q408 -816 418 -816Q446 -816 446 -788Q446 -760 354 -671Q411 -644 485 -552Q547 -475 589 -475Q634 -475 774 -519Q812 -529 888 -555Q894 -641 905 -864Q833 -892 771 -1025Q716 -1143 716 -1221Q716 -1227 719.5 -1246.5Q723 -1266 723 -1272Q726 -1321 773 -1361Q818 -1398 855 -1393Q884 -1463 930 -1463Q961 -1463 976 -1444Q991 -1421 1005 -1398Q1154 -1363 1154 -1211Q1154 -1181 1147 -1139Q1137 -1077 1095 -999Q1045 -904 987 -873Q986 -868 986 -837L996 -556Q1058 -545 1173 -503Q1234 -478 1294 -454Q1398 -414 1438 -414H1808Q1888 -414 1888 -383ZM976 -1404Q947 -1443 933 -1443Q923 -1443 884 -1404ZM1129 -1214Q1129 -1377 938 -1377Q839 -1377 799 -1353Q742 -1319 742 -1219Q742 -1140 790 -1030Q853 -888 943 -888Q1024 -888 1083 -1032Q1129 -1144 1129 -1214ZM965 -557V-866H931L915 -557ZM1857 -381L1488 -388Q1385 -387 1206 -461.5Q1027 -536 938 -536Q894 -536 757.5 -492.5Q621 -449 584 -449Q542 -449 452.5 -551Q363 -653 306 -653Q300 -653 287.5 -652Q275 -651 270 -651Q246 -652 191 -626Q125 -596 125 -562Q125 -531 174 -513Q210 -500 242 -500Q247 -500 282.5 -508Q318 -516 324 -516Q359 -516 406 -459Q474 -376 493 -360Q522 -336 568 -333Q609 -330 650 -327L1024 -378L1577 -332Q1648 -332 1744 -351Q1828 -367 1857 -381ZM426 -784L413 -787Q360 -734 325 -679Q340 -694 374 -730Q408 -766 426 -784ZM1007 226L985 -352Q985 -352 905 -336L884 213Q884 249 915 287Q921 294 948 294Q1007 294 1007 226ZM259 -673L145 -769L140 -762L254 -667ZM293 -604Q282 -592 268 -592Q261 -592 253 -597.5Q245 -603 243 -603Q253 -625 265 -638Q276 -635 293 -621Z"/>
</svg>