<svg xmlns="http://www.w3.org/2000/svg" viewBox="0 -2048 2048 2048">
	<path fill="#000000" d="M1993 224Q1985 224 1962 229.5Q1939 235 1933 235Q1919 235 1746 141Q1584 53 1501 2Q1353 -89 1252 -175Q1053 -345 887 -567Q865 -596 803 -720Q735 -855 698 -912Q670 -954 516 -991Q431 -1011 309 -1024Q211 -1034 112 -1044Q100 -1092 100 -1123Q100 -1177 134 -1234Q302 -1213 400 -1213Q499 -1213 643 -1235Q654 -1237 688 -1247Q718 -1255 724 -1255H746Q769 -1105 854 -904Q1010 -532 1303 -275Q1477 -122 1738 59Q1780 88 1886 139Q1915 151 1944 164Q1986 184 1993 206ZM1962 208Q1951 189 1929 179Q1616 38 1304 -243Q956 -558 851 -850Q827 -911 788 -1015Q746 -1136 725 -1228Q543 -1186 400 -1186L133 -1202Q125 -1123 133 -1065Q211 -1062 511 -1018Q639 -994 684.5 -957.5Q730 -921 805 -774Q895 -600 919 -567Q980 -483 1118 -343Q1249 -209 1321 -154Q1455 -50 1634 58Q1708 103 1819 158Q1923 209 1933 208Z"/>
</svg>