<svg xmlns="http://www.w3.org/2000/svg" viewBox="0 -2048 2048 2048">
	<path fill="#000000" d="M686 -1425Q686 -1421 655 -1394Q620 -1364 611.5 -1346.5Q603 -1329 576 -1176Q557 -1068 485 -1021Q458 -1014 400 -996V-825H645Q654 -805 661 -791Q586 -741 543 -650Q506 -570 506 -489Q506 -485 528.5 -336.5Q551 -188 551 -129Q551 -78 539 -1Q533 40 489 150Q431 297 386 297Q369 297 329 241Q250 131 222 -36Q216 -72 216 -121L256 -507Q256 -676 111 -775Q107 -797 116 -824H375V-996Q339 -1003 302 -1016Q203 -1050 182 -1217Q188 -1262 179 -1337Q171 -1355 135.5 -1386.5Q100 -1418 100 -1420Q100 -1416 117 -1450H675Q686 -1439 686 -1425ZM656 -1424H401V-1025H423Q463 -1025 505 -1072Q543 -1114 549 -1152Q561 -1231 587 -1347Q592 -1361 656 -1424ZM375 -1025V-1429H131Q160 -1401 201 -1344Q208 -1325 206 -1293Q202 -1250 202 -1252Q204 -1212 227 -1142Q240 -1102 276 -1065Q315 -1025 349 -1025ZM631 -803H402V257Q519 98 531 -124L481 -499Q483 -666 631 -803ZM375 252V-804H136V-786Q281 -683 281 -494Q281 -443 264 -312Q262 -297 249 -228Q241 -183 241 -146Q241 -50 275 64Q314 197 375 252Z"/>
</svg>