<svg xmlns="http://www.w3.org/2000/svg" viewBox="0 -2048 2048 2048">
	<path fill="currentColor" d="M1651 -479Q1629 -480 1609 -466Q1631 -444 1646 -434Q1646 -426 1643.5 -419.5Q1641 -413 1641 -412Q1629 -417 1603 -426Q1577 -435 1565 -440Q1524 -365 1430 -365Q1338 -365 1280 -445H728V271H100V-1136Q100 -1166 142 -1230Q184 -1294 223.5 -1325.5Q263 -1357 332 -1373Q358 -1379 399 -1379Q546 -1379 651 -1278Q667 -1262 694 -1224Q726 -1177 726 -1160V-861H1256Q1277 -890 1299 -905Q1351 -940 1420 -940Q1453 -940 1536 -884Q1535 -884 1612 -912Q1614 -907 1618 -901Q1609 -885 1576 -863Q1596 -855 1651 -844Q1641 -843 1581 -819Q1593 -806 1612 -776Q1608 -770 1608 -766Q1599 -768 1573.5 -778.5Q1548 -789 1543 -789Q1538 -789 1525 -772Q1510 -751 1499 -744Q1460 -719 1404 -719Q1303 -719 1252 -804H727V-507H1285Q1323 -587 1439 -587Q1527 -587 1560 -530Q1588 -540 1645 -558Q1647 -553 1651 -546Q1637 -532 1609 -508Q1611 -506 1651 -496ZM1561 -835V-843H1548V-835ZM1519 -827Q1519 -860 1491.5 -891Q1464 -922 1427 -922Q1390 -922 1336 -899Q1269 -869 1269 -830Q1269 -789 1317 -763Q1356 -742 1401 -742Q1444 -742 1479 -762Q1519 -786 1519 -827ZM1591 -485V-493H1578V-485ZM1552 -478Q1552 -568 1444 -568Q1298 -568 1298 -469Q1298 -436 1354 -410Q1401 -388 1434 -388Q1467 -388 1505 -409Q1552 -436 1552 -478ZM1250 -823V-836H728V-823ZM1278 -469V-487H727V-469ZM708 253V-1141Q708 -1197 626.5 -1270Q545 -1343 475 -1349Q397 -1356 399 -1356Q249 -1356 176 -1256Q161 -1235 142 -1194Q123 -1153 123 -1145V253Z"/>
</svg>