<svg xmlns="http://www.w3.org/2000/svg" viewBox="0 -2048 2048 2048">
	<path fill="currentColor" d="M1544 132L1195 -7L1200 -32H1362L822 -571L283 -32H445L449 -7L100 132L239 -217L264 -212V-50L804 -590L530 -863H384V-889H504L439 -954H293V-980H413L348 -1046H202V-1072H322L257 -1137H110V-1163H231L109 -1285L127 -1303L249 -1181V-1302H275V-1155L340 -1090V-1210H366V-1064L432 -999V-1119H458V-973L523 -908V-1028H549V-882L822 -608L1096 -882V-1028H1122V-908L1187 -973V-1119H1213V-999L1278 -1064V-1210H1304V-1090L1369 -1155V-1302H1395V-1181L1517 -1303L1536 -1285L1414 -1163H1534V-1137H1388L1322 -1072H1443V-1046H1296L1231 -980H1351V-954H1205L1140 -889H1260V-863H1114L841 -590L1380 -50V-212L1405 -217ZM1498 86L1406 -144V-6H1268ZM377 -6H238V-144L147 86Z"/>
</svg>