<svg xmlns="http://www.w3.org/2000/svg" viewBox="27.9 -1579.1 1149.2 1947.2">
	<path fill="currentColor" d="M1105 -880Q1105 -862 1008 -793Q1003 -745 995 -658Q993 -658 986.5 -655Q980 -652 973 -652Q960 -652 932 -712Q900 -780 892 -787Q878 -800 762 -865Q767 -774 767 -762Q767 -572 622 -549V296H598V-549Q497 -593 470 -641Q452 -674 452 -763Q452 -812 466 -896Q461 -894 373 -856Q313 -831 285 -806Q266 -789 249 -747Q223 -679 222 -678Q199 -686 173 -684Q191 -747 198 -804Q166 -834 100 -892Q100 -899 110 -910Q120 -921 128 -921L263 -895Q308 -912 514 -1002Q484 -1032 345 -1075Q224 -1113 199 -1124Q105 -1168 105 -1227Q105 -1251 142 -1272Q171 -1289 182 -1289Q222 -1289 289 -1237Q331 -1204 373 -1171Q410 -1147 490 -1103Q493 -1107 493 -1113Q493 -1124 485 -1143Q475 -1168 474 -1172Q462 -1222 462 -1289Q462 -1369 493 -1428Q534 -1507 618 -1507Q644 -1507 687 -1490Q736 -1471 750 -1449Q779 -1403 779 -1289Q779 -1215 762 -1113Q813 -1143 911 -1226Q960 -1269 1030 -1269Q1100 -1269 1100 -1199Q1100 -1171 1033 -1128Q974 -1090 942 -1083Q910 -1081 849 -1075Q833 -1073 781 -1043Q722 -1010 722 -994Q722 -976 736 -969Q781 -943 827 -918Q915 -870 934 -870Q974 -870 1099 -895Q1099 -893 1102 -890Q1105 -887 1105 -880ZM1074 -1212Q1074 -1243 1022 -1243Q964 -1243 831 -1135Q798 -1111 766 -1087Q738 -1066 738 -1051Q777 -1072 849 -1101Q909 -1112 969 -1124Q1074 -1154 1074 -1212ZM758 -1292Q758 -1412 714 -1449Q670 -1486 610 -1486Q549 -1486 512 -1411Q483 -1353 483 -1302Q483 -1259 507 -1152Q511 -1127 527 -1088Q539 -1073 569 -1059Q595 -1046 605 -1046Q642 -1046 724 -1099Q758 -1211 758 -1292ZM1064 -868Q952 -844 932 -844Q903 -844 744 -937Q744 -899 810 -864Q898 -817 913 -802Q928 -787 945 -749Q966 -703 974 -691Q974 -712 978 -748Q981 -789 982 -804Q1017 -833 1064 -868ZM710 -1061L634 -1028Q647 -1015 657 -1015Q666 -1015 686 -1030.5Q706 -1046 710 -1061ZM721 -922Q716 -938 703 -960Q671 -984 657 -984Q642 -984 628 -970Q662 -951 721 -922ZM628 -996Q614 -1010 584 -1020Q572 -1008 572 -1000Q604 -984 600 -984Q607 -984 616.5 -990Q626 -996 628 -996ZM571 -1027Q558 -1040 536 -1051Q536 -1045 538.5 -1034Q541 -1023 541 -1021Q548 -1021 558 -1024Q568 -1027 571 -1027ZM566 -973Q546 -988 536 -988Q533 -975 525 -953Q540 -959 566 -973ZM513 -1036Q510 -1042 508 -1053Q506 -1064 506 -1064Q456 -1091 368 -1145Q324 -1180 279 -1214Q213 -1264 185 -1264Q131 -1247 131 -1227Q131 -1174 225 -1137Q292 -1117 360 -1096Q416 -1078 513 -1036ZM742 -789Q742 -864 729 -879Q710 -900 660.5 -929Q611 -958 600 -958Q558 -958 506 -910Q473 -879 473 -761Q473 -701 502 -650Q542 -579 621 -579Q742 -579 742 -789ZM503 -967L270 -870Q224 -877 136 -894Q224 -806 224 -802Q224 -776 210 -714Q222 -745 234 -775Q250 -812 270 -827Q308 -856 375 -883Q468 -921 482 -928Q485 -930 503 -967Z"/>
</svg>