<svg xmlns="http://www.w3.org/2000/svg" viewBox="0 -2048 2048 2048">
	<path fill="#000000" d="M547 -1455Q547 -1435 493 -1402V-1178Q499 -1174 536 -1174V208Q536 231 497 286Q461 335 449 343Q424 358 410 360Q344 367 310 367Q165 367 114 241Q100 206 100 207V-1174H147V-1407Q111 -1428 111 -1457Q111 -1475 129.5 -1497Q148 -1519 167 -1519Q183 -1519 226 -1487Q258 -1519 272 -1519Q304 -1519 329 -1487Q361 -1508 383 -1508Q418 -1508 432 -1481Q465 -1514 472 -1514Q490 -1514 518.5 -1491Q547 -1468 547 -1455ZM515 -1452Q500 -1488 468 -1487Q455 -1474 455 -1463Q455 -1453 467.5 -1440.5Q480 -1428 490 -1428Q515 -1428 515 -1452ZM417 -1469Q399 -1487 388 -1487Q367 -1487 358 -1470V-1445L365 -1439H400Q417 -1456 417 -1469ZM471 -1175V-1404Q454 -1422 431 -1433Q419 -1424 402 -1410V-1175ZM315 -1463Q301 -1492 278 -1492Q268 -1492 256.5 -1478.5Q245 -1465 245 -1455Q245 -1428 275 -1428Q298 -1428 315 -1463ZM374 -1175V-1399Q359 -1413 334 -1438Q324 -1426 313 -1415Q299 -1402 284 -1405V-1175ZM207 -1468Q183 -1492 167 -1492Q137 -1492 137 -1460Q137 -1428 170 -1428Q181 -1428 207 -1468ZM261 -1175V-1405Q250 -1409 221 -1438Q203 -1411 170 -1400V-1175ZM509 214V-1147H127V202Q126 238 150 269Q185 314 247 338Q252 340 321 340Q415 340 438 321Q453 308 480 270Q509 228 509 214Z"/>
</svg>