<svg xmlns="http://www.w3.org/2000/svg" viewBox="0 -2048 2048 2048">
	<path fill="currentColor" d="M856 -184Q856 -181 853 -172Q850 -163 850 -160L611 -289V282H502V-357Q262 -509 213 -552Q100 -654 100 -785Q100 -857 153 -920Q210 -988 288 -988Q340 -988 385 -951Q434 -910 434 -852Q434 -824 417 -784Q410 -766 369 -738Q328 -710 311 -710Q271 -710 237 -739Q203 -768 203 -805Q203 -866 267 -895Q270 -892 273.5 -883Q277 -874 280 -871Q228 -864 228 -808Q228 -778 258 -755Q283 -736 308 -736Q347 -736 380 -785Q408 -827 408 -854Q408 -962 277 -962Q239 -962 237 -961Q217 -952 180.5 -908Q144 -864 132 -835Q120 -806 120 -782Q120 -657 238 -557Q274 -525 497 -386V-1036L213 -1459Q243 -1481 298 -1523L609 -1053V-323ZM588 -335V-1043L293 -1487Q256 -1463 249 -1448L527 -1041V-367Q549 -356 588 -335ZM588 261V-308Q566 -319 528 -340V261Z"/>
</svg>