<svg xmlns="http://www.w3.org/2000/svg" viewBox="0 0 261 1000">
  <g transform="scale(1,-1) translate(0,-1000)">
    <path d="M126 860Q125 852 118 852H113Q116 849 121.5 841.5Q127 834 129 832Q132 829 144 823Q145 823 148 821Q152 826 163.5 835.5Q175 845 177 852Q181 865 181 875Q181 876 178 888H173Q147 888 117 868H118Q126 868 126 860ZM161.0 872.0Q161 863 149.0 863.0Q137 863 137.0 872.0Q137 881 149.0 881.0Q161 881 161.0 872.0ZM151.0 971.0Q140 960 140.0 945.0Q140 930 151.0 919.5Q162 909 177.0 909.0Q192 909 203.0 919.5Q214 930 214.0 945.0Q214 960 203.0 971.0Q192 982 177.0 982.0Q162 982 151.0 971.0ZM236 286Q236 284 227.5 268.0Q219 252 203.0 232.5Q187 213 171 209Q189 152 189 104Q189 50 166 5Q166 0 157 0Q150 0 147 5Q124 48 124 103Q124 149 143 209Q127 213 110.5 232.5Q94 252 85.5 268.0Q77 284 77 286Q77 289 82.5 296.0Q88 303 102.5 310.5Q117 318 136 321V335Q92 372 24 384Q15 384 13 394Q0 462 0 526Q0 693 117 743Q122 768 139 804Q117 815 107.0 829.5Q97 844 83 850Q75 854 75 860Q75 867 80 869Q93 875 112.0 887.0Q131 899 142 903Q122 920 122 945Q122 968 138.0 984.0Q154 1000 177.0 1000.0Q200 1000 216.0 984.0Q232 968 232 945Q232 917 209 901Q223 894 228.5 884.0Q234 874 242 844Q254 802 254 785Q255 770 255 752Q261 746 261 737Q261 722 246.0 712.0Q231 702 220 702Q208 702 196.0 700.0Q184 698 163.5 690.5Q143 683 128.5 670.5Q114 658 103.0 634.0Q92 610 92 577Q92 532 113.5 484.5Q135 437 174 400Q178 396 178 391V321Q196 318 210.0 310.5Q224 303 230.0 296.5Q236 290 236 286ZM154 228H159Q182 228 213 284Q194 301 157 303Q119 301 100 284Q100 282 108.0 269.0Q116 256 129.5 242.0Q143 228 154 228ZM144 103Q144 64 156 35Q169 68 169 104Q169 144 157 184Q144 140 144 103ZM66 576Q66 587 67.5 600.5Q69 614 78.0 638.0Q87 662 101.5 680.0Q116 698 147.0 712.5Q178 727 219 728Q229 730 234 736Q222 740 213 740Q116 732 71.0 679.0Q26 626 26 525Q26 474 37 408Q106 394 152 355V385Q66 471 66 576ZM137 751Q137 751 142.0 752.5Q147 754 155.5 756.0Q164 758 173.5 760.0Q183 762 193.5 763.5Q204 765 212.0 765.0Q220 765 235 762V784Q235 798 231.5 813.5Q228 829 223.0 844.0Q218 859 217 865Q214 878 198 885Q200 879 200 875Q200 855 192.0 841.5Q184 828 173.5 819.0Q163 810 161 806Q161 806 156.0 796.0Q151 786 145.0 772.5Q139 759 137 751Z" fill="currentColor"/>
  </g>
</svg>