<svg xmlns="http://www.w3.org/2000/svg" viewBox="0 0 267 1000">
  <g transform="scale(1,-1) translate(0,-1000)">
    <path d="M166 962Q170 962 174.0 958.0Q178 954 178 950Q178 938 166 938Q162 938 158.0 942.0Q154 946 154 950Q154 962 166 962ZM145 865Q131 865 131 875Q131 880 136 883Q130 880 118 872Q124 872 124 864Q124 855 115 855H114Q115 853 120.0 846.5Q125 840 127 838Q128 837 143 829Q147 834 157.5 842.0Q168 850 170 857Q174 870 174 878Q174 878 171 890H167Q153 890 141 885Q142 885 143.0 885.5Q144 886 145 886Q158 886 158 875Q158 865 145 865ZM101 947Q101 943 99.0 933.5Q97 924 97 921Q97 919 100.0 919.0Q103 919 110 926Q102 936 101 947ZM168 923Q186 923 198.0 929.0Q210 935 210 944V947Q210 960 196.5 967.5Q183 975 166 975Q126 975 126 950Q126 936 139.0 929.5Q152 923 168 923ZM66 576Q66 587 67.5 600.5Q69 614 78.0 638.0Q87 662 101.5 680.0Q116 698 147.0 712.5Q178 727 219 728Q229 730 234 736Q222 740 213 740Q116 732 71.0 679.0Q26 626 26 525Q26 474 37 408Q106 394 152 355V385Q66 471 66 576ZM144 103Q144 64 156 35Q169 68 169 104Q169 144 157 184Q144 140 144 103ZM154 228H159Q182 228 213 284Q194 301 157 303Q119 301 100 284Q100 282 108.0 269.0Q116 256 129.5 242.0Q143 228 154 228ZM236 286Q236 284 227.5 268.0Q219 252 203.0 232.5Q187 213 171 209Q189 152 189 104Q189 50 166 5Q166 0 157 0Q150 0 147 5Q124 48 124 103Q124 149 143 209Q127 213 110.5 232.5Q94 252 85.5 268.0Q77 284 77 286Q77 289 82.5 296.0Q88 303 102.5 310.5Q117 318 136 321V335Q92 372 24 384Q15 384 13 394Q0 462 0 526Q0 689 112 741Q111 743 111 746V747Q111 766 133 810Q111 821 103.0 834.0Q95 847 81 853Q72 858 72 864Q72 872 78 874Q90 880 106.5 890.5Q123 901 132 905Q129 906 125 908Q111 890 93 890Q84 890 75.5 899.0Q67 908 67 920Q67 924 69.0 934.0Q71 944 71 949Q71 958 65.5 961.0Q60 964 60 970Q60 981 74 981H77Q98 981 101 959Q104 979 122.5 989.5Q141 1000 166 1000Q194 1000 214.5 984.5Q235 969 235 944V937Q247 928 257.0 912.5Q267 897 267 886Q267 870 258 870Q255 870 250.5 876.5Q246 883 238.0 893.5Q230 904 220 912Q215 907 204 904Q218 897 223.5 886.5Q229 876 236 849Q247 812 247 792Q247 783 247.5 771.5Q248 760 248 758Q261 751 261 737Q261 722 246.0 712.0Q231 702 220 702Q208 702 196.0 700.0Q184 698 163.5 690.5Q143 683 128.5 670.5Q114 658 103.0 634.0Q92 610 92 577Q92 532 113.5 484.5Q135 437 174 400Q178 396 178 391V321Q196 318 210.0 310.5Q224 303 230.0 296.5Q236 290 236 286ZM132 749Q168 762 211 765H212Q221 765 227 764Q227 769 226.5 779.0Q226 789 226 791Q226 803 222.0 819.5Q218 836 213.5 850.0Q209 864 208 868Q205 880 194 885Q194 884 194.5 881.5Q195 879 195 878Q195 848 179 832Q176 830 171.0 826.0Q166 822 164 819Q145 800 132 749Z" fill="currentColor"/>
  </g>
</svg>