<svg viewBox="0 0 24.176174 5.1666961"
   xmlns="http://www.w3.org/2000/svg"
   version="1.0">
  <path
     style="fill:currentColor;stroke:none"
     d="M 24.163988,0.025905443 L 24.176174,1.1883421 L 8.635835,1.183518 C 8.2696785,1.7094826 8.0343561,2.3262581 7.365525,3.535102 C 6.7928984,4.5700661 5.922789,5.151588 4.532917,5.166696 C 2.750257,5.166696 1.7154077,4.1771677 1.428369,2.198111 C 1.3226177,1.7146783 1.1639913,1.4314167 0.95249,1.348326 C 0.74098733,1.265236 0.256824,1.2085837 0,1.178369 L 0,0 L 24.163988,0.025905443 z M 6.980299,1.1931421 L 2.606738,1.20103 C 2.6369533,2.757078 2.9693133,3.69373 3.603818,4.010986 C 4.2383253,4.32824 4.857725,4.335794 5.462017,4.033648 C 6.066309,3.7314987 6.9470317,2.4621521 6.980299,1.1931421 z" />
</svg>