<svg xmlns="http://www.w3.org/2000/svg" viewBox="23.6 -1640.4 1783.7 2061.7">
	<path fill="currentColor" d="M1731 251Q1731 288 1682 318Q1638 345 1598 345Q1565 345 1468 286Q1389 239 1341 201Q874 -166 638 -435Q318 -800 158 -1248Q100 -1410 100 -1495Q100 -1564 174 -1564Q207 -1564 233 -1531Q259 -1498 259 -1464Q259 -1455 248 -1417Q424 -1487 522 -1487Q611 -1487 666 -1442Q696 -1418 749 -1360Q822 -1255 822 -1135Q822 -1035 717 -933Q666 -883 528 -787Q848 -393 1224 -73Q1316 -3 1499 136Q1527 158 1585 183Q1613 162 1623 162Q1683 162 1707 192Q1731 222 1731 251ZM796 -1135Q796 -1257 721 -1355Q640 -1461 522 -1461Q420 -1461 250 -1392Q256 -1344 287 -1263Q391 -987 512 -809Q796 -986 796 -1135ZM1705 251Q1705 222 1679 202.5Q1653 183 1624 188Q1602 206 1582 209Q1544 203 1483 157Q1389 89 1207 -53Q779 -413 507 -771Q430 -872 331 -1085Q222 -1320 222 -1417Q222 -1425 227.5 -1440.5Q233 -1456 233 -1464Q233 -1487 214.5 -1512.5Q196 -1538 174 -1538Q126 -1538 126 -1495Q126 -1403 182 -1257Q357 -801 660 -450Q898 -174 1357 181Q1402 216 1476 261Q1570 319 1598 319Q1626 319 1663 299Q1705 276 1705 251Z"/>
</svg>