<svg xmlns="http://www.w3.org/2000/svg" viewBox="25.6 -1567.4 2004.8 2008.8">
	<path fill="currentColor" d="M1956 -425H1266L1235 -134L1239 -131L1493 -295Q1505 -283 1532 -255L1288 -91Q1309 -77 1331 -63Q1360 -43 1371 -18Q1400 49 1400 100Q1400 145 1370 195Q1334 254 1278 280Q1326 287 1388 279V367H950V279Q1012 287 1071 280Q1017 262 976 197Q938 137 938 87Q938 36 972 -17.5Q1006 -71 1060 -97Q986 -150 832 -261L877 -306L1104 -141Q1109 -289 1077 -423H682Q639 -408 597 -393Q500 -364 432 -364Q352 -364 234 -419Q100 -481 100 -550Q100 -576 145 -582Q144 -582 251.5 -529Q359 -476 435 -476Q479 -476 542 -491L551 -500Q549 -504 542 -511Q534 -513 511 -513Q504 -513 474 -510Q444 -507 437 -507Q387 -507 313 -551Q316 -563 346 -608Q388 -587 419 -587Q426 -587 490.5 -597.5Q555 -608 562 -608Q569 -608 632 -579Q695 -550 702 -550Q707 -550 763 -563Q824 -577 845 -580Q914 -589 1051 -604Q1060 -611 1060 -632L987 -1493H1367L1283 -618L1652 -582Q1668 -582 1674 -586Q1689 -764 1719 -1122H1914ZM1341 -1467H1008L1088 -610Q1160 -613 1196 -613Q1232 -613 1256 -610ZM1935 -449L1892 -1095H1740L1698 -555L1241 -592Q1051 -592 713 -529Q682 -529 628.5 -555.5Q575 -582 557 -582Q550 -582 489 -571Q428 -560 421 -560Q415 -560 351 -576Q351 -573 348 -566Q345 -559 345 -556Q404 -529 437 -529Q444 -529 485 -534Q526 -539 533 -539Q560 -539 560 -538Q569 -511 578 -485Q499 -449 429 -449Q362 -449 248 -504.5Q134 -560 145 -560Q139 -560 127 -548Q131 -493 244 -440Q349 -391 435 -391Q556 -391 687 -449ZM1502 -260L1494 -268L1261 -113L1274 -105ZM1235 -422H1109L1136 -125Q1172 -127 1208 -125ZM1088 -121L877 -274L870 -266L1078 -109ZM1373 97Q1373 12 1309 -45Q1247 -99 1159 -99Q1097 -99 1030 -43Q960 17 960 84Q960 155 1019 215Q1083 278 1169 278Q1249 278 1306 236Q1373 186 1373 97ZM1367 341V310H976V341Z"/>
</svg>