<svg xmlns="http://www.w3.org/2000/svg" viewBox="23.8 -1434.2 2056.3 1716.3">
	<path fill="currentColor" d="M2004 -185Q2004 -152 1870 -64Q1527 161 1279 195Q1198 206 1104 206Q765 206 490 76Q420 43 310 -28Q134 -143 134 -203Q134 -237 166 -237Q188 -237 252 -189Q291 -159 330 -130Q359 -112 418 -76Q595 31 782 70Q835 84 900 98H938Q940 97 941 93L480 -1227H365Q387 -1198 434 -1139L100 -1244L434 -1358L365 -1258H1905V-1232H1353Q1352 -1231 1350 -1227L1717 -80L1962 -242Q1975 -237 2004 -226ZM1694 -72L1324 -1231H932L1360 68H1377Q1539 6 1557 -1Q1664 -45 1694 -72ZM370 -1183Q331 -1231 331 -1244Q331 -1251 347 -1274Q367 -1302 370 -1309L169 -1244ZM1340 76L906 -1231H509L935 7Q946 37 967 96Q1004 97 1082 99Q1155 102 1158 102Q1242 102 1340 76ZM1985 -200Q1985 -207 1977 -211Q1969 -215 1963 -218Q1927 -195 1867 -151Q1764 -60 1529 33.5Q1294 127 1170 127L944 122Q709 99 472 -22Q390 -64 285.5 -140.5Q181 -217 180 -217H164Q164 -215 161.5 -211Q159 -207 159 -200Q159 -164 303 -65Q409 8 465 37Q574 93 702 131Q767 150 909 173Q990 186 1069 186Q1132 186 1254 170Q1313 162 1407 136Q1680 60 1900 -113Q1927 -133 1954 -153Q1985 -179 1985 -200Z"/>
</svg>