<svg xmlns="http://www.w3.org/2000/svg" viewBox="21.6 -1684.4 2004.7 2115.7">
	<path fill="currentColor" d="M1948 -394H1283V353H1205V45L676 -394H100V-472H636Q210 -620 210 -733Q210 -767 243 -767Q244 -767 346 -689Q529 -549 751 -533L532 -1149H497V-1209H282Q362 -1095 362 -1094Q362 -1081 348 -1081Q343 -1081 257.5 -1140Q172 -1199 166 -1208Q154 -1224 154 -1245Q154 -1251 163 -1263Q172 -1275 177 -1275H497V-1332H780L949 -1488Q943 -1510 943 -1513Q943 -1519 950 -1537Q977 -1606 1050 -1606Q1062 -1606 1084.5 -1592Q1107 -1578 1107 -1536Q1107 -1503 1067 -1479Q1033 -1459 997 -1459Q981 -1459 970 -1468L822 -1332H1014V-1275H1424L1438 -1269V-1218Q1431 -1209 1423 -1209H1101L1277 -659Q1318 -688 1360 -716Q1418 -756 1445 -756Q1478 -756 1478 -728Q1478 -686 1335 -600Q1222 -531 1147 -502Q1114 -492 1047 -472H1632V-968H1535Q1541 -1027 1593 -1075Q1642 -1122 1700 -1130Q1654 -1235 1607 -1339Q1532 -1510 1532 -1529Q1532 -1554 1567 -1576Q1598 -1596 1623 -1596Q1699 -1596 1699 -1523Q1699 -1502 1670 -1475L1858 -1261Q1823 -1235 1788 -1209Q1749 -1175 1749 -1136V-1132Q1796 -1128 1848 -1080Q1904 -1029 1919 -968H1816V-732H1742V-968H1706V-472H1948ZM1820 -1265L1634 -1477Q1673 -1512 1673 -1523Q1673 -1570 1623 -1570Q1609 -1570 1588.5 -1556Q1568 -1542 1568 -1529Q1568 -1509 1723 -1142Q1726 -1206 1820 -1265ZM1882 -994Q1827 -1107 1729 -1107Q1679 -1107 1632 -1074Q1585 -1041 1568 -994ZM1790 -758V-968H1768V-758ZM1081 -1536Q1081 -1580 1050 -1580Q991 -1580 969 -1513Q969 -1511 972 -1501Q989 -1485 997 -1485Q1021 -1485 1048 -1499Q1081 -1515 1081 -1536ZM1680 -472V-968H1658V-472ZM1412 -1235V-1249H988V-1306H523V-1249H185L180 -1242Q182 -1216 302 -1139Q278 -1171 232 -1235H523V-1175H988V-1235ZM1255 -644L1072 -1209H1014V-1149H846L1044 -554Q1134 -570 1255 -644ZM1013 -544L814 -1149H565L781 -531Q821 -527 853 -527Q927 -527 1013 -544ZM1922 -420V-446H126V-420ZM1447 -731Q1251 -607 1166 -568Q1009 -497 851 -497Q547 -497 240 -731L246 -709Q349 -600 526 -536Q690 -476 852 -476Q976 -476 1084 -513Q1167 -541 1296 -613Q1340 -637 1383 -661Q1435 -694 1447 -731ZM1257 327V-394H1231V327ZM1205 -56V-394H798ZM1205 11V-23L756 -394H716Z"/>
</svg>