<svg xmlns="http://www.w3.org/2000/svg" viewBox="0 -2048 2048 2048">
	<path fill="#000000" d="M1948 432H100V406H241V259H100V233H241V87H100V61H985V-194Q904 -270 755 -394H100V-472H623Q385 -518 151 -707Q141 -723 141 -737Q141 -767 171 -767Q185 -767 221 -744L460 -1429H324L368 -1367L129 -1442L368 -1518L324 -1455H1423V-1429H1328L1028 -571Q1143 -605 1268 -684Q1305 -710 1379 -759Q1395 -769 1404 -769Q1434 -769 1434 -738Q1434 -702 1358 -649Q1151 -505 952 -472H1622V-968H1525Q1531 -1027 1583 -1075Q1632 -1122 1690 -1130Q1646 -1235 1602 -1339Q1532 -1509 1532 -1529Q1532 -1554 1562 -1576Q1589 -1596 1613 -1596Q1689 -1596 1689 -1523Q1689 -1502 1660 -1475L1848 -1261Q1813 -1235 1778 -1209Q1739 -1175 1739 -1136V-1132Q1786 -1128 1838 -1080Q1894 -1029 1909 -968H1806V-732H1732V-968H1696V-472H1948V-394H1230Q1289 -319 1289 -265Q1289 -209 1242.5 -167.5Q1196 -126 1139 -126Q1103 -126 1063 -145V61H1948V87H1807V233H1948V259H1807V406H1948ZM1810 -1265L1624 -1477Q1663 -1512 1663 -1523Q1663 -1570 1613 -1570Q1599 -1570 1578.5 -1556Q1558 -1542 1558 -1529Q1558 -1509 1713 -1142Q1716 -1206 1810 -1265ZM1872 -994Q1817 -1107 1719 -1107Q1669 -1107 1622 -1074Q1575 -1041 1558 -994ZM1780 -758V-968H1758V-758ZM1670 -472V-968H1648V-472ZM1300 -1429H1048L736 -538Q759 -537 767 -537Q897 -537 997 -562ZM1020 -1429H768L479 -603Q603 -548 709 -539ZM303 -1470L216 -1442L302 -1415L283 -1441ZM1263 -265Q1263 -312 1197 -394H1160Q1243 -327 1262 -250Q1263 -256 1263 -265ZM1781 233V87H1587V233ZM740 -1429H488L243 -730Q355 -661 456 -614ZM1922 -420V-446H126V-420ZM1241 -221Q1234 -309 1116 -394H1063V-227Q1122 -194 1166 -194Q1202 -194 1241 -221ZM1408 -738Q1407 -743 1404 -743Q1399 -742 1394 -738Q1316 -683 1282 -661Q1219 -621 1163 -595Q978 -511 767 -511Q646 -511 527 -556Q378 -612 190 -732Q176 -741 171 -741Q167 -740 167 -737Q167 -731 171 -724Q468 -484 767 -484Q938 -484 1071 -527Q1199 -569 1343 -670Q1408 -715 1408 -738ZM1781 406V259H1587V406ZM1037 -243V-394H1011V-261Q1027 -249 1037 -243ZM1561 233V87H1367V233ZM1213 -177Q1189 -168 1166 -168Q1046 -168 822 -394H798Q883 -317 969 -241Q1074 -152 1139 -152Q1178 -152 1213 -177ZM985 -280V-394H859Q930 -323 985 -280ZM1561 406V259H1367V406ZM1341 233V87H1147V233ZM1037 61V-159Q1029 -164 1011 -176V61ZM1341 406V259H1147V406ZM1121 233V87H927V233ZM1121 406V259H927V406ZM901 233V87H707V233ZM901 406V259H707V406ZM681 233V87H487V233ZM681 406V259H487V406ZM461 233V87H267V233ZM461 406V259H267V406Z"/>
</svg>