<svg xmlns="http://www.w3.org/2000/svg" viewBox="0 -2048 2048 2048">
	<path fill="currentColor" d="M1948 -394H1230Q1289 -319 1289 -265Q1289 -209 1242.5 -167.5Q1196 -126 1139 -126Q1103 -126 1063 -145V353H985V-194Q904 -270 755 -394H100V-472H582Q344 -518 110 -707Q100 -724 100 -737Q100 -767 130 -767Q142 -767 163 -754Q252 -698 302 -671Q411 -612 495 -580Q527 -568 568 -557Q627 -541 688 -538L377 -1429H295L339 -1367L100 -1442L339 -1518L295 -1455H1312V-1429H1043L1289 -726Q1311 -741 1338 -759Q1353 -769 1363 -769Q1393 -769 1393 -738Q1393 -702 1317 -649Q1110 -505 911 -472H1622V-968H1525Q1531 -1027 1583 -1075Q1632 -1122 1690 -1130Q1646 -1235 1602 -1339Q1532 -1509 1532 -1529Q1532 -1554 1562 -1576Q1589 -1596 1613 -1596Q1689 -1596 1689 -1523Q1689 -1502 1660 -1475L1848 -1261Q1813 -1235 1778 -1209Q1739 -1175 1739 -1136V-1132Q1786 -1128 1838 -1080Q1894 -1029 1909 -968H1806V-732H1732V-968H1696V-472H1948ZM1810 -1265L1624 -1477Q1663 -1512 1663 -1523Q1663 -1570 1613 -1570Q1599 -1570 1578.5 -1556Q1558 -1542 1558 -1529Q1558 -1509 1713 -1142Q1716 -1206 1810 -1265ZM1872 -994Q1817 -1107 1719 -1107Q1669 -1107 1622 -1074Q1575 -1041 1558 -994ZM1780 -758V-968H1758V-758ZM1670 -472V-968H1648V-472ZM1267 -710L1016 -1429H830L1113 -620Q1190 -658 1267 -710ZM1089 -609L803 -1429H617L923 -555Q1007 -572 1089 -609ZM274 -1470L187 -1442L273 -1415L254 -1441ZM897 -550L590 -1429H404L716 -537H726Q783 -537 843 -543Q873 -546 897 -550ZM1263 -265Q1263 -312 1197 -394H1160Q1243 -327 1262 -250Q1263 -256 1263 -265ZM1922 -420V-446H126V-420ZM1241 -221Q1234 -309 1116 -394H1063V-227Q1122 -194 1166 -194Q1202 -194 1241 -221ZM1367 -738Q1366 -743 1363 -743Q1358 -742 1353 -738Q1275 -683 1241 -661Q1178 -621 1122 -595Q937 -511 726 -511Q605 -511 486 -556Q337 -612 149 -732Q135 -741 130 -741Q126 -740 126 -737Q126 -731 130 -724Q427 -484 726 -484Q897 -484 1030 -527Q1158 -569 1302 -670Q1367 -715 1367 -738ZM1037 -243V-394H1011V-261Q1027 -249 1037 -243ZM1213 -177Q1189 -168 1166 -168Q1046 -168 822 -394H798Q883 -317 969 -241Q1074 -152 1139 -152Q1178 -152 1213 -177ZM985 -280V-394H859Q930 -323 985 -280ZM1037 327V-159Q1029 -164 1011 -176V327Z"/>
</svg>