<svg xmlns="http://www.w3.org/2000/svg" viewBox="0 -2048 2048 2048">
	<path fill="#000000" d="M1943 -515Q1943 -504 1929 -468Q1913 -427 1898 -409Q1888 -397 1861.5 -379Q1835 -361 1826 -361H1458L1905 183Q1889 204 1845 247Q1758 166 1660 54Q1592 -24 1556 -44Q1506 -71 1406 -71Q1316 -71 1194 -33L1037 -361H397Q363 -344 329 -327Q258 -294 209 -294Q177 -294 144 -314Q105 -337 105 -370Q105 -412 143 -440Q175 -465 211 -465Q241 -465 326 -422.5Q411 -380 411 -380H1023Q1025 -381 1026 -384L880 -684H392Q378 -672 350 -652Q293 -613 230 -613Q182 -613 145 -632Q100 -656 100 -700Q100 -784 207 -784Q311 -784 388 -707H866Q868 -708 869 -712L537 -1414Q542 -1414 552.5 -1417Q563 -1420 566 -1420L1177 -707H1792Q1814 -755 1854 -864L1876 -858L1819 -706Q1821 -704 1827 -699Q1852 -695 1889.5 -665Q1927 -635 1931 -611Q1943 -546 1943 -515ZM1919 -525Q1919 -582 1892 -628Q1860 -683 1807 -683H1188Q1287 -560 1441 -380H1816Q1849 -380 1879 -419Q1919 -472 1919 -525ZM1135 -708L585 -1367L894 -708ZM1406 -381L1158 -683H908L1051 -381ZM1876 178L1428 -360H1064L1208 -57Q1323 -95 1418 -95Q1547 -95 1615 -30Q1730 92 1845 214Q1871 188 1876 178ZM366 -696Q308 -760 211 -760Q124 -760 124 -703Q124 -636 226 -636Q307 -636 366 -696ZM370 -373Q368 -374 294 -415Q246 -442 221 -442Q196 -442 164 -426Q124 -405 124 -375Q124 -348 158 -331Q185 -318 211 -318Q265 -318 370 -373Z"/>
</svg>