<svg viewBox="0 0 19.131636 3.12"
   xmlns="http://www.w3.org/2000/svg">
  <path
     style="fill:currentColor; stroke:none"
     d="M 6.53125 0 C 5.6790273 0 5.1134765 0.16777799 4.78125 0.5 C 4.044588 0.99111067 3.428612 1.2500001 2.9375 1.25 C 2.2586113 1.25 1.7025 1.0102774 1.3125 0.5625 C 1.168054 0.4325 0.94513735 0.41333333 0.65625 0.5 C 0.22291667 0.64444467 0.014444667 0.90333406 0 1.25 C 0.014444667 1.885554 0.26847267 2.3456927 0.78125 2.65625 C 1.294028 2.966806 2.0275 3.1250001 2.9375 3.125 C 3.8474953 3.125 4.8756887 2.7870853 6.03125 2.09375 L 13.09375 2.09375 C 14.263748 2.7870853 15.308767 3.1250001 16.21875 3.125 C 17.128751 3.125 17.830976 2.966806 18.34375 2.65625 C 18.856527 2.3456927 19.110556 1.8855541 19.125 1.25 C 19.110556 0.903334 18.902082 0.64444466 18.46875 0.5 C 18.179865 0.41333333 17.94014 0.43250003 17.78125 0.5625 C 17.391249 1.0102773 16.883194 1.2500001 16.21875 1.25 C 15.727655 1.25 15.111664 0.99111066 14.375 0.5 C 14.028333 0.167778 13.431529 7.2039163e-20 12.59375 0 L 6.53125 0 z M 6.96875 0.5625 L 9.28125 0.5625 L 9.28125 1.53125 L 7.3125 1.53125 C 7.0236093 1.1701387 6.9254168 0.83694469 6.96875 0.5625 z M 9.875 0.5625 L 12.15625 0.5625 C 12.214027 0.83694467 12.084582 1.1701387 11.78125 1.53125 L 9.875 1.53125 L 9.875 0.5625 z M 1.09375 1.15625 C 1.6137513 1.6040287 2.2297227 1.8437499 2.9375 1.84375 C 3.6452733 1.84375 4.3379161 1.6040287 5.03125 1.15625 C 5.175698 1.2429173 5.21167 1.4083333 5.125 1.625 C 4.547222 2.21722 3.8186074 2.5 2.9375 2.5 C 1.796388 2.4855553 0.99819397 2.2027753 0.59375 1.625 C 0.57930533 1.3072213 0.76152806 1.1418053 1.09375 1.15625 z M 14.09375 1.15625 C 14.787085 1.6040287 15.510992 1.8437499 16.21875 1.84375 C 16.926524 1.84375 17.542497 1.6040287 18.0625 1.15625 C 18.394725 1.1418053 18.528892 1.3072213 18.5 1.625 C 18.110003 2.2027753 17.359862 2.4855554 16.21875 2.5 C 15.337657 2.5 14.609028 2.21722 14.03125 1.625 C 13.944585 1.4083333 13.949306 1.2429173 14.09375 1.15625 z " />
</svg>