<svg xmlns="http://www.w3.org/2000/svg" viewBox="0 0 540 1000">
  <g transform="scale(1,-1) translate(0,-1000)">
    <path d="M384 781Q390 763 390 754Q390 733 379 697Q371 673 342 650Q322 634 313 618Q310 612 302.0 596.5Q294 581 291.0 574.5Q288 568 282.0 555.0Q276 542 273.0 533.5Q270 525 267.0 514.0Q264 503 262 492Q265 492 270.0 492.5Q275 493 277 493Q306 562 372 562Q400 562 423.0 541.5Q446 521 454 492H474Q472 519 470 573Q470 597 465.0 620.5Q460 644 449.5 679.5Q439 715 434 735Q430 752 419 762Q406 775 384 781ZM231 735Q241 735 241 724Q241 714 231 714Q227 714 220.0 713.5Q213 713 210 713Q218 706 237 681Q248 666 255.0 660.0Q262 654 282 645Q283 644 286.5 642.5Q290 641 293 640Q297 646 307 656Q313 662 324.0 671.0Q335 680 339 684Q350 695 353 706Q362 733 362 754Q362 762 354 786H340Q307 786 284.5 777.0Q262 768 229 746L211 734ZM420 36Q410 46 410 60Q410 60 414.0 95.5Q418 131 422.5 193.0Q427 255 427 319Q427 396 421 474Q419 492 404.0 509.0Q389 526 372 526Q364 526 354.5 524.0Q345 522 329.0 508.0Q313 494 306 469Q292 419 288.5 374.0Q285 329 285.5 271.0Q286 213 282 170Q280 154 264 154Q255 154 250 161Q228 190 202.5 232.5Q177 275 154.0 305.5Q131 336 97 362Q93 364 91 364Q83 364 73.5 356.0Q64 348 64 340V339Q65 290 99.5 221.0Q134 152 134 102V86Q134 76 133 70Q130 48 115 36ZM280.0 738.5Q274 742 274.0 748.0Q274 754 280.0 757.5Q286 761 293.0 761.0Q300 761 306.0 757.5Q312 754 312.0 748.0Q312 742 306.0 738.5Q300 735 293.0 735.0Q286 735 280.0 738.5ZM245 464Q232 464 232 478V480Q242 539 280 615Q240 635 230 645Q225 650 213.0 666.0Q201 682 194 689Q183 700 169.0 706.5Q155 713 154 714Q150 718 150 724Q150 734 158 737Q183 749 214 769Q264 802 299 810Q263 815 251 827Q239 810 219.5 798.0Q200 786 186 786Q171 786 150 811Q140 822 140 841Q140 850 143.5 870.0Q147 890 147 901Q147 922 136.0 930.0Q125 938 125 945Q125 959 152 959Q171 959 183.0 945.5Q195 932 195 910Q195 898 190.0 875.0Q185 852 185 844Q185 830 200 830Q207 830 212.0 833.5Q217 837 222.5 843.0Q228 849 233 852Q210 885 210 908Q210 954 249.0 977.0Q288 1000 338 1000Q393 1000 433.0 970.0Q473 940 473 890Q473 878 471 872Q495 856 517.5 823.5Q540 791 540 771Q540 750 530 745H529Q526 745 516.5 760.0Q507 775 489.0 797.5Q471 820 450 835Q436 817 386 810Q419 802 439 782Q455 766 461 742Q466 724 473.5 696.0Q481 668 485.5 652.0Q490 636 494.0 614.5Q498 593 498 574Q499 554 499.5 536.5Q500 519 500.5 509.0Q501 499 501.5 491.5Q502 484 502 481L503 478Q503 464 489 464H458Q463 404 463 320Q463 190 446 62Q447 62 449.5 61.5Q452 61 455.0 60.5Q458 60 461 60Q514 55 536 30Q540 25 540 18Q540 10 535.0 5.0Q530 0 522 0H24Q6 0 6 10Q6 25 12 30Q29 45 58.5 52.0Q88 59 92 63Q95 66 97 75Q98 80 98 89V102Q98 142 63.0 214.0Q28 286 28 340Q28 373 61 392Q34 400 17.0 422.5Q0 445 0 474Q0 517 38 540V545Q38 554 44.0 560.0Q50 566 59 566H110Q119 566 125.0 560.0Q131 554 131 545Q131 541 130 539Q168 515 168 474Q168 447 153.0 425.0Q138 403 114 394Q114 394 116.0 393.0Q118 392 118 391Q144 372 165.5 347.5Q187 323 197.5 307.5Q208 292 227 260Q236 244 249 225Q250 246 250 282Q250 390 268 464H252ZM338 964Q245 964 245 904Q245 872 273.5 855.0Q302 838 341 838Q378 838 406.0 852.0Q434 866 437 890V897Q437 928 407.0 946.0Q377 964 338 964ZM85 419Q107 419 122.0 434.5Q137 450 137 472Q137 500 111 514Q104 519 83 519Q65 519 57 514Q51 511 45 505Q31 491 31 472Q31 450 46.5 434.5Q62 419 85 419Z" fill="currentColor"/>
  </g>
</svg>