<svg xmlns="http://www.w3.org/2000/svg" viewBox="0 0 984 1000">
  <g transform="scale(1,-1) translate(0,-1000)">
    <path d="M135 867 172 920Q169 923 162.0 928.0Q155 933 152.5 935.0Q150 937 144.5 939.0Q139 941 133 941Q132 942 131 942Q120 942 91 924ZM847 865 883 919Q880 921 875.0 925.5Q870 930 867.5 931.5Q865 933 861.0 935.5Q857 938 853.5 939.0Q850 940 845 940H843Q829 940 802 923ZM496 867 533 921Q530 924 523.0 929.0Q516 934 513.5 936.0Q511 938 505.5 940.0Q500 942 494 942H492Q478 942 452 925ZM944 578V579Q944 617 925.5 641.0Q907 665 873 667L104 671H101Q74 671 57.0 648.0Q40 625 40 592V588Q42 549 61.0 522.5Q80 496 113 494H872Q905 495 924.0 518.0Q943 541 944 578ZM101 711H114V828L44 919Q40 927 40 931Q40 932 40.5 934.0Q41 936 41 937Q44 947 53 950Q61 953 75.0 962.0Q89 971 102.0 976.0Q115 981 131 981H135Q152 981 164.0 975.0Q176 969 189.0 958.0Q202 947 209 943Q220 938 220 924Q220 918 216 914L154 824V711Q207 710 314.0 710.0Q421 710 475 709V829L405 920Q401 928 401 932Q401 944 414 951Q422 954 436.0 963.0Q450 972 463.0 977.0Q476 982 492 982H496Q512 982 524.5 975.5Q537 969 549.5 958.5Q562 948 570 944Q581 938 581 925Q581 919 577 915L515 825V709Q567 709 670.5 708.5Q774 708 826 707V827L756 918Q752 923 752 930Q752 943 764 949Q773 952 787.0 960.5Q801 969 814.0 974.5Q827 980 843 980H847Q863 980 875.0 973.5Q887 967 900.0 956.5Q913 946 921 942Q931 936 931 925Q931 916 928 913L866 823V707H875Q925 704 954.5 668.0Q984 632 984 579V577Q983 526 953.5 490.5Q924 455 872 454H540Q544 451 549 445Q581 399 595.5 375.5Q610 352 637.0 300.5Q664 249 676.5 196.0Q689 143 689 85Q689 82 690.5 67.5Q692 53 692 40V27Q692 12 653.0 7.5Q614 3 515 3Q467 3 467 28Q467 45 494.5 53.5Q522 62 556.0 68.0Q590 74 599 82Q623 105 623 137Q623 176 589.0 256.0Q555 336 515 395Q512 402 502 402Q494 402 486.0 375.5Q478 349 463.5 300.0Q449 251 430 215Q423 200 398.0 165.0Q373 130 361 110Q354 98 339.5 66.5Q325 35 310 16Q301 4 280.0 2.0Q259 0 157 0Q145 0 138.0 4.5Q131 9 130 14L129 18Q129 28 139.5 34.5Q150 41 215 67Q221 69 237.5 74.0Q254 79 263.0 84.0Q272 89 281 99Q302 122 325.0 170.0Q348 218 377.5 287.0Q407 356 427 395Q450 444 478 454H111Q61 458 31.5 496.5Q2 535 0 587V592Q0 642 28.5 676.5Q57 711 101 711Z" fill="currentColor"/>
  </g>
</svg>