<svg xmlns="http://www.w3.org/2000/svg" viewBox="0 0 826 1000">
  <g transform="scale(1,-1) translate(0,-1000)">
    <path d="M594 615Q589 609 581.5 597.5Q574 586 572 583Q577 588 586.5 598.5Q596 609 600 613Q599 614 597.0 614.0Q595 614 594 615ZM449 459Q535 583 565 626Q562 628 556 634Q546 643 540.0 651.5Q534 660 528.5 672.0Q523 684 519 692Q500 704 500 741Q500 745 500.5 751.0Q501 757 501 760Q501 776 481.5 788.0Q462 800 442 804L423 808Q422 808 397 803Q381 784 381 757Q381 746 384 733Q386 722 417.0 698.0Q448 674 448 645Q448 630 442.0 621.0Q436 612 422.0 603.0Q408 594 403 589Q409 566 426.0 527.0Q443 488 449 459ZM571 509 467 423Q481 423 511.5 421.5Q542 420 556 419Q556 444 571 509ZM81 718Q79 715 71.5 707.0Q64 699 61.5 696.0Q59 693 53.5 686.5Q48 680 45.5 676.0Q43 672 40.0 666.0Q37 660 36.0 654.5Q35 649 35 644Q35 633 37.0 624.0Q39 615 45.0 604.5Q51 594 54.0 590.0Q57 586 68.0 572.5Q79 559 80 557ZM83 295 81 456Q78 452 70.5 442.5Q63 433 59.5 429.0Q56 425 50.5 416.5Q45 408 42.5 401.5Q40 395 38.0 386.5Q36 378 36 369Q36 363 38.0 356.0Q40 349 42.5 344.0Q45 339 51.0 331.5Q57 324 60.5 320.0Q64 316 72.0 307.5Q80 299 83 295ZM205 314V276Q205 249 210.5 210.5Q216 172 217 145Q303 209 358 233L213 316H212Q206 316 205 314ZM428 127Q454 137 538 179Q538 190 538.0 202.0Q538 214 538.0 223.5Q538 233 537.5 241.0Q537 249 537 254V258Q456 231 376 197Q354 183 311.0 161.0Q268 139 235.5 118.0Q203 97 177 72Q176 71 176 68Q176 66 177.0 59.5Q178 53 179 49Q326 77 428 127ZM555 357 458 371Q459 361 459 340Q459 322 456.5 304.5Q454 287 454 268Q551 299 553 300Q553 303 555 357ZM618 548Q610 525 606.5 504.0Q603 483 601.0 465.0Q599 447 598 442Q598 437 597.5 429.5Q597 422 597 418Q614 417 614 417Q617 432 621.0 446.0Q625 460 627.0 470.0Q629 480 629 494Q629 522 619 548ZM429 785Q438 785 443.0 778.5Q448 772 448 763Q448 749 429 749Q404 749 404 763Q404 772 411.5 778.5Q419 785 429 785ZM432 835Q467 830 499.0 811.0Q531 792 531 760Q531 757 530.5 750.0Q530 743 530 741Q530 734 531.0 729.5Q532 725 537.0 721.5Q542 718 543.5 717.5Q545 717 553 713Q577 751 577 769Q577 801 549.5 825.5Q522 850 480 850Q453 850 432 835ZM382 405Q382 414 388.5 426.5Q395 439 407 439H413Q409 460 398.0 486.0Q387 512 382 527L293 438Q288 433 282 433Q280 433 213.0 442.0Q146 451 141 451Q140 451 138.5 451.5Q137 452 136 452Q132 452 125.5 450.0Q119 448 117 448L118 225Q118 208 101 208Q83 208 83 225V235Q74 252 52.0 275.0Q30 298 15.5 320.5Q1 343 1 369Q1 397 12.5 420.0Q24 443 44.0 466.5Q64 490 72 505Q64 521 44.5 544.5Q25 568 12.5 591.5Q0 615 0 644Q0 679 38.0 723.5Q76 768 81 778L82 788Q82 806 99 806Q106 806 111.5 801.0Q117 796 117 788L115 514Q116 514 120.0 511.0Q124 508 131.0 504.5Q138 501 145 500Q280 490 280 490Q296 513 327.0 551.0Q358 589 366 600Q374 610 386.0 618.0Q398 626 405.5 632.0Q413 638 413 645Q413 657 402.5 666.5Q392 676 379.5 683.0Q367 690 356.5 709.0Q346 728 346 757Q346 804 385.5 841.0Q425 878 466 883L465 918Q447 924 447 936Q447 950 465 954V957Q465 974 473.0 984.0Q481 994 486.0 995.5Q491 997 500 999Q502 999 505.0 999.5Q508 1000 509 1000Q530 1000 530 984Q530 978 525.5 973.5Q521 969 515 969Q513 969 511 970H509Q501 970 497 968Q497 966 496.5 961.5Q496 957 495 955L496 883Q549 878 580.5 844.0Q612 810 612 769Q612 756 607.5 742.5Q603 729 598.5 721.0Q594 713 584.5 698.0Q575 683 572 678Q579 666 588 659Q671 778 696 814L698 817Q702 821 709 821Q715 821 719.5 816.5Q724 812 724 806Q724 802 721 797Q644 687 614 644Q615 643 619.0 641.5Q623 640 624 639Q754 778 754 778Q758 782 765 782Q771 782 775.5 777.5Q780 773 780.0 767.0Q780 761 776 757Q756 736 712.5 689.5Q669 643 649 622Q653 618 654 616L801 737Q806 740 811 740Q817 740 821.5 735.5Q826 731 826 725Q826 717 821 713L665 586Q671 556 671 513Q671 457 661 407Q659 390 646.5 369.5Q634 349 621 348L595 351Q583 244 583 180Q583 173 582.5 158.0Q582 143 582 134Q596 115 596 83Q596 36 571 5Q571 0 553 0H539Q524 0 524 19Q524 27 528.0 47.5Q532 68 532 78Q532 104 509 104Q485 104 448 85Q433 80 380.5 61.0Q328 42 280.5 27.5Q233 13 176 1H92Q74 1 74 20Q74 24 75.5 27.0Q77 30 80.0 32.0Q83 34 86.5 35.5Q90 37 96.5 38.0Q103 39 108.0 40.0Q113 41 123.0 42.0Q133 43 140 44Q140 45 138.0 53.5Q136 62 136 68Q136 82 143.0 89.5Q150 97 176 115Q176 150 170.5 197.5Q165 245 165 276V315Q165 331 179.5 341.0Q194 351 212 351Q224 351 235 345L395 245Q413 255 413 255Q414 256 415.0 270.0Q416 284 417.5 304.5Q419 325 419 340Q419 344 417 376Q382 386 382 405Z" fill="currentColor"/>
  </g>
</svg>