<svg xmlns="http://www.w3.org/2000/svg" viewBox="0 0 1000 1000">
  <g transform="scale(1,-1) translate(0,-1000)">
    <path d="M317 334Q323 334 327.5 329.0Q332 324 332.0 318.0Q332 312 326.5 307.5Q321 303 315 303Q293 303 293 318Q293 334 317 334ZM287 231Q282 205 270.5 186.0Q259 167 249.0 160.0Q239 153 233 153Q224 153 216.5 160.5Q209 168 209 175Q209 181 215.0 184.0Q221 187 225.5 191.0Q230 195 234.0 201.0Q238 207 240.0 209.5Q242 212 245.0 221.0Q248 230 249.0 231.5Q250 233 253 244L256 254Q237 269 237 297Q237 311 250.0 338.0Q263 365 285 390Q282 390 278.0 389.5Q274 389 272 389Q260 389 260 400Q260 404 263.0 411.5Q266 419 266 423Q266 435 252 435H248Q240 435 235.5 439.5Q231 444 230.0 447.0Q229 450 229 453Q231 467 246 467H248Q276 464 292 456Q294 456 298.5 440.0Q303 424 312 422Q342 458 377 458Q422 458 455.0 424.5Q488 391 489 340Q490 272 512.0 244.0Q534 216 581 216H590Q664 219 728 248Q744 295 781.5 323.0Q819 351 874 351Q907 351 907 330Q907 321 900.5 314.5Q894 308 885 308Q885 308 881.0 308.5Q877 309 873 309Q819 309 788 270Q802 273 819 273Q902 273 954 221Q1000 175 1000 101Q1000 73 989.0 52.5Q978 32 964.0 22.0Q950 12 932.5 6.5Q915 1 907.5 0.5Q900 0 896 0H626Q627 3 628.0 21.0Q629 39 638 45Q646 50 655 50Q659 50 669.5 48.5Q680 47 686 47H688Q706 48 733.5 50.5Q761 53 765 53Q756 62 744 79Q689 73 651.0 54.0Q613 35 573.5 20.5Q534 6 467 6Q442 6 422 9L417 0H79Q67 19 67 30Q68 52 87 62H50Q40 62 39 71Q33 98 22 136Q2 207 2 261Q2 279 18.5 296.5Q35 314 35 322Q35 334 17.5 349.0Q0 364 0 371Q0 383 12 383H170Q182 383 182 371Q182 364 164.0 348.5Q146 333 146 322Q146 314 163.0 296.5Q180 279 180 261Q180 210 159 136Q151 109 143 71Q142 62 131 62H118Q129 56 138.5 55.0Q148 54 197 54Q223 54 270.0 55.5Q317 57 327 57Q314 78 314 107Q314 128 324.5 150.5Q335 173 335 183Q335 201 328 208Q325 211 310.5 217.5Q296 224 287 231ZM434 215Q412 215 394.0 228.5Q376 242 376 266Q376 277 381.0 301.0Q386 325 386 336Q386 366 358 366Q351 366 335.0 364.0Q319 362 310 362H306Q297 352 284.0 328.5Q271 305 271 296Q271 286 286 275Q287 274 294.5 269.0Q302 264 306 260Q308 258 333.0 245.0Q358 232 365 211Q370 194 370 183Q370 165 359.0 142.5Q348 120 348 106Q348 96 350.5 88.0Q353 80 362.5 67.0Q372 54 398.5 47.0Q425 40 467 40Q541 40 607.0 71.5Q673 103 728 111Q716 142 716 175Q716 185 718 207Q665 186 591 182H582Q516 182 485 223Q440 215 434 215ZM40 359Q59 340 59 322Q59 311 55.0 303.0Q51 295 42.0 286.0Q33 277 32 275H150Q148 278 142.0 284.0Q136 290 132.0 294.0Q128 298 125.0 306.0Q122 314 122 322Q122 340 141 359ZM966 101Q966 167 922.5 203.0Q879 239 819 239Q794 239 767 228Q759 199 759 175Q759 141 773 115Q788 113 788 98Q788 94 787 92Q807 68 833.0 55.5Q859 43 881.0 39.5Q903 36 904 36Q937 40 951.5 54.5Q966 69 966 101ZM402 266Q402 252 413.0 246.5Q424 241 433 241Q445 241 471 247Q455 282 455 339Q454 375 431.0 399.5Q408 424 376 424Q363 424 354.5 417.0Q346 410 329 389Q359 392 359 392Q370 392 380.0 389.0Q390 386 400.5 372.5Q411 359 411 337Q411 324 406.5 299.0Q402 274 402 266ZM156 251H26Q27 210 46 142Q50 130 60 86H121Q127 112 136 142Q155 210 156 251Z" fill="currentColor"/>
  </g>
</svg>