<svg xmlns="http://www.w3.org/2000/svg" viewBox="0 -1000 1000 1000">
	<path fill="currentColor" d="M154 24V-125H312Q261 -138 211 -157.5Q161 -177 120 -204Q79 -231 54 -264Q48 -272 49 -285Q50 -298 53 -317Q56 -337 59.5 -363Q63 -389 63 -423Q63 -444 61 -475Q59 -506 56 -536.5Q53 -567 51 -586H113Q123 -525 131 -459Q139 -393 132 -331Q149 -312 215.5 -282Q282 -252 403 -236V-432Q403 -473 424 -497.5Q445 -522 475 -533Q505 -544 530 -544H611Q637 -544 666.5 -533Q696 -522 717 -497.5Q738 -473 738 -432V-233Q788 -238 828 -245.5Q868 -253 902 -263V-400L826 -513L860 -538L902 -477V-537H945V-414L1015 -312Q1041 -328 1062.5 -346.5Q1084 -365 1103 -386H1157Q1146 -339 1123 -301Q1100 -263 1068 -233L1083 -212Q1085 -212 1091.5 -211.5Q1098 -211 1103 -209Q1109 -207 1123.5 -192.5Q1138 -178 1155 -159Q1172 -140 1184 -123Q1196 -106 1196 -98Q1196 -79 1181.5 -63.5Q1167 -48 1148 -48Q1135 -48 1128 -53Q1121 -58 1115 -64Q1113 -67 1102 -81Q1091 -95 1078 -113.5Q1065 -132 1055 -148Q1045 -164 1045 -169Q1045 -184 1048 -187L1035 -206Q995 -177 949.5 -157Q904 -137 857 -125H1015V24ZM453 -125H703Q761 -125 827 -138Q893 -151 955 -179.5Q1017 -208 1064.5 -254Q1112 -300 1132 -366H1111Q1077 -331 1033 -301.5Q989 -272 926.5 -251Q864 -230 777 -218.5Q690 -207 570 -207Q462 -207 380 -220Q298 -233 241.5 -252.5Q185 -272 153 -292Q121 -312 112 -325Q114 -339 114.5 -354Q115 -369 115 -381Q115 -429 109 -480Q103 -531 97 -566H73Q75 -548 77.5 -522.5Q80 -497 81.5 -470.5Q83 -444 83 -423Q83 -387 79.5 -360.5Q76 -334 73 -314Q67 -281 70 -275Q99 -242 145.5 -214.5Q192 -187 247 -167Q302 -147 356 -136Q410 -125 453 -125ZM570 -226Q611 -226 648 -227.5Q685 -229 718 -231V-432Q718 -466 700 -486Q682 -506 657.5 -515Q633 -524 611 -524H530Q508 -524 483 -515Q458 -506 440 -486Q422 -466 422 -432V-234Q455 -230 492 -228Q529 -226 570 -226ZM918 -268Q921 -269 924 -269.5Q927 -270 930 -271V-521H918ZM902 -428V-450L857 -516L847 -509ZM991 -298L1001 -304L945 -387V-365ZM945 -277Q953 -281 961 -284Q969 -287 977 -291L945 -337ZM1149 -64Q1163 -64 1171.5 -74Q1180 -84 1180 -97Q1180 -104 1169 -118.5Q1158 -133 1143 -149Q1128 -165 1114.5 -177.5Q1101 -190 1096 -193Q1088 -195 1074 -197L1056 -223Q1053 -221 1047 -215L1066 -188Q1065 -185 1064 -179.5Q1063 -174 1063 -169Q1063 -165 1072 -151Q1081 -137 1093.5 -120.5Q1106 -104 1116.5 -90.5Q1127 -77 1130 -74Q1133 -70 1137.5 -67Q1142 -64 1149 -64ZM173 4H996V-106H173Z"/>
</svg>