<svg xmlns="http://www.w3.org/2000/svg" viewBox="0 0 1000 1000">
  <g transform="scale(1,-1) translate(0,-1000)">
    <path d="M337 158Q422 170 514.0 173.0Q606 176 657.0 180.5Q708 185 743 206Q758 215 768.0 221.5Q778 228 787.5 236.5Q797 245 801.5 249.5Q806 254 818.5 268.0Q831 282 838 290Q852 306 916 391Q936 417 957 455Q969 477 969 500Q969 531 950 531Q925 531 898 492L821 369Q817 363 799.5 337.0Q782 311 774.0 300.5Q766 290 749.0 273.5Q732 257 714 247Q691 235 598.5 221.0Q506 207 429.0 198.5Q352 190 345 190H341Q329 190 291.0 209.0Q253 228 224 228H222Q197 224 197 204Q207 165 207 165Q217 130 230 125H234Q248 125 283.5 136.0Q319 147 337 158ZM52 493Q36 493 18.0 502.5Q0 512 0 523Q0 558 29 598Q36 607 53.0 636.0Q70 665 72 668Q80 684 105 720Q134 761 134 761Q134 762 136.5 767.0Q139 772 144.5 778.0Q150 784 156 785Q185 833 209 854Q222 865 247.0 875.0Q272 885 277 888Q288 897 308.5 907.5Q329 918 339 930Q345 936 353.5 950.0Q362 964 369.5 972.5Q377 981 384 981Q399 981 399 966Q399 959 395 955Q390 946 358 906Q352 897 344.5 891.5Q337 886 322.0 879.0Q307 872 295 864Q283 855 259.0 846.0Q235 837 229 831Q213 817 184 774Q187 771 194.5 765.5Q202 760 208 751Q239 796 262 815Q276 825 297.0 836.5Q318 848 323 851Q334 859 363.0 873.5Q392 888 402 898Q407 903 414.5 917.5Q422 932 430.0 942.0Q438 952 446 952Q450 952 455.5 948.0Q461 944 461 937Q461 935 457.0 926.0Q453 917 443.0 901.5Q433 886 421 874Q410 863 380.5 849.0Q351 835 340 827Q328 819 308.0 808.0Q288 797 281 791Q272 784 264.0 775.5Q256 767 252.0 761.5Q248 756 239.5 744.0Q231 732 227 726Q241 717 250.0 717.0Q259 717 274.5 726.0Q290 735 299 735Q313 735 313 724Q313 715 305 701Q302 697 284.5 686.5Q267 676 267 670Q267 669 323 575Q328 567 331.5 552.5Q335 538 336 528L338 517L262 511V255Q279 251 302.5 233.5Q326 216 347 216Q348 216 350.0 216.5Q352 217 354 217Q599 238 701 275Q740 305 796 383L872 508Q908 567 943 567Q967 567 983.5 544.0Q1000 521 1000 504Q1000 462 948.0 387.0Q896 312 853 265Q791 199 772 185Q735 159 657 153Q625 151 535 148Q435 145 342 129Q339 128 326.0 122.5Q313 117 296.5 111.5Q280 106 262 102V20Q262 12 256.0 6.0Q250 0 242.0 0.0Q234 0 228.0 6.0Q222 12 222 20V100Q188 109 175 163Q160 220 160 223Q160 232 176.0 242.5Q192 253 222 256V508Q206 542 194 565L170 551Q169 550 143.0 536.0Q117 522 87.5 507.5Q58 493 52 493ZM151 660Q171 660 171 632Q171 614 145 614Q136 614 129.5 620.5Q123 627 123 636Q123 647 131.5 653.5Q140 660 151 660ZM305 546Q293 568 275.5 599.5Q258 631 253.5 638.0Q249 645 239.5 660.0Q230 675 222.5 683.0Q215 691 202 704Q169 737 163 737H162Q162 737 148.5 718.0Q135 699 134 698L98 647Q52 575 42.0 557.0Q32 539 32 529V527Q33 520 46 520H53Q54 520 110.0 552.5Q166 585 167 586Q180 594 191.5 599.5Q203 605 216 612Q238 549 246 538Z" fill="currentColor"/>
  </g>
</svg>