<svg xmlns="http://www.w3.org/2000/svg" viewBox="0 0 509 1000">
  <g transform="scale(1,-1) translate(0,-1000)">
    <path d="M329 460Q316 434 299.0 421.0Q282 408 274 396Q275 394 286.0 382.5Q297 371 302 360Q309 345 309 329Q309 316 292.5 256.0Q276 196 274 181Q272 168 258 168Q251 168 166.0 245.5Q81 323 73 323Q66 323 59.0 317.5Q52 312 52 306Q52 259 77.0 197.5Q102 136 109 99Q112 90 112 79Q112 53 79 31L433 30Q392 62 392 95Q392 112 402.5 151.0Q413 190 413 225Q413 259 402 319L403 320Q399 345 397.0 380.0Q395 415 391.5 442.0Q388 469 379 498Q368 498 355.5 488.5Q343 479 336.0 470.0Q329 461 329 460ZM346 841Q346 820 365.5 811.0Q385 802 409.0 802.5Q433 803 452.5 800.0Q472 797 472.0 787.0Q472 777 462 777Q445 780 417 780H400Q465 769 482 723Q509 651 509 578V555Q509 541 507.0 490.0Q505 439 505 437Q505 405 505.5 380.5Q506 356 507 344L508 333Q508 327 503.5 322.0Q499 317 493 317Q488 317 474.0 317.5Q460 318 452 318Q433 318 433 317Q444 253 444 224Q444 186 433.5 147.5Q423 109 423 94Q423 75 460.0 50.0Q497 25 497 15Q497 9 492.0 4.5Q487 0 481 0H16Q10 0 5.0 5.0Q0 10 0 16Q0 25 12.5 32.0Q25 39 45.5 48.0Q66 57 78 70Q82 74 82 78Q82 79 81.5 80.0Q81 81 80.5 84.0Q80 87 79 93Q73 127 47.0 191.0Q21 255 21 306Q21 324 36.0 338.0Q51 352 71 352Q86 352 96 346Q99 345 127.5 323.5Q156 302 194.5 270.5Q233 239 250 219Q264 271 266 281Q268 290 273.0 305.0Q278 320 278 329Q278 345 261.0 364.5Q244 384 244 396Q244 416 279 445Q241 449 241 471Q241 491 275 525Q279 530 287.5 537.5Q296 545 301 549Q324 572 324 584Q324 589 323 591Q293 577 278 577Q258 577 246 589Q239 596 235.5 609.0Q232 622 230 625Q221 638 211.5 651.0Q202 664 197.0 670.0Q192 676 188.5 682.0Q185 688 185 691Q185 697 191 702Q196 706 216 723Q253 754 280 763Q324 779 356 782Q341 784 326.0 789.5Q311 795 293.5 810.5Q276 826 276 848Q276 863 285.0 889.0Q294 915 313 929Q278 929 278 971Q278 983 288.0 991.0Q298 999 317 999Q319 999 325.5 998.5Q332 998 345.0 994.5Q358 991 368.5 985.5Q379 980 387.5 969.0Q396 958 396 943Q396 917 371.0 885.0Q346 853 346 841ZM314 722Q335 722 335.0 707.0Q335 692 314 692Q294 692 294.0 707.0Q294 722 314 722ZM361 694Q361 707 382.5 709.5Q404 712 404 717Q404 753 369 753Q341 753 290 735Q272 729 258.0 719.0Q244 709 234.0 699.5Q224 690 220 688Q246 654 254 640Q272 646 282 650L285 651Q292 651 292 643Q292 639 288.0 637.5Q284 636 260 627Q264 612 267.0 609.0Q270 606 279 606Q285 606 309 617Q324 624 337.5 629.5Q351 635 357.0 637.5Q363 640 368 645Q377 654 377 659Q377 661 369.0 674.5Q361 688 361 694ZM301 473Q303 478 311.5 489.0Q320 500 339.5 514.5Q359 529 379 529Q401 529 407 510Q421 467 427 389Q427 383 431 346H438Q441 346 477 349Q475 381 475 437Q475 437 476.0 453.5Q477 470 478.0 493.5Q479 517 479 531V533Q479 533 479.5 540.5Q480 548 480.0 559.5Q480 571 480 581Q480 647 455 713Q450 729 431 740Q433 732 433 717Q433 689 398 682Q406 670 406 658Q406 623 349 602Q353 590 353 584Q353 561 317.0 525.5Q281 490 273 475Q281 473 286 473Q297 474 297 474Q298 474 300 474ZM298 971Q298 949 313 949Q320 949 336.0 952.0Q352 955 362 955Q374 955 374 945Q374 938 361.5 932.5Q349 927 332.5 918.0Q316 909 310 895Q296 862 296 848Q296 821 339 806Q326 822 326 841Q326 861 351.0 892.5Q376 924 376 943Q376 957 360.5 966.0Q345 975 333.5 977.0Q322 979 317 979Q298 979 298 971Z" fill="currentColor"/>
  </g>
</svg>