<svg xmlns="http://www.w3.org/2000/svg" viewBox="0 0 915 1000">
  <g transform="scale(1,-1) translate(0,-1000)">
    <path d="M754 911Q775 911 793.5 896.5Q812 882 812 852Q812 838 809 826Q807 814 801.5 806.5Q796 799 784.0 789.5Q772 780 771 779Q784 755 804.5 719.5Q825 684 838 661Q847 643 872.5 608.5Q898 574 906 551Q915 528 915 509Q915 487 903.5 476.0Q892 465 874.5 457.0Q857 449 850.0 440.0Q843 431 838.0 423.0Q833 415 826.5 402.5Q820 390 816 383L865 241H886Q910 241 910 217V23Q910 13 903.5 6.5Q897 0 887 0H782Q773 0 766.5 6.5Q760 13 760 23Q760 32 766.5 39.0Q773 46 783 46H864V195H622V46L704 44Q713 44 719.5 37.5Q726 31 726.0 22.0Q726 13 719.5 6.5Q713 0 704 0H494Q485 0 478.5 6.5Q472 13 472 23Q472 32 478.5 39.0Q485 46 495 46H576V195H334V46L416 44Q425 44 431.5 37.5Q438 31 438.0 22.0Q438 13 431.5 6.5Q425 0 416 0H206Q197 0 190.5 6.5Q184 13 184 23Q184 32 190.5 39.0Q197 46 207 46H288V195H46V46L128 44Q137 44 143.5 37.5Q150 31 150.0 22.0Q150 13 143.5 6.5Q137 0 128 0H24Q11 0 5.5 8.0Q0 16 0 24V219Q0 229 6.5 235.0Q13 241 23 241H216Q102 579 66 713Q54 756 54 785Q54 857 85 881Q123 911 154 911Q175 911 193.5 896.5Q212 882 212 852Q212 838 209 826Q207 814 201.5 806.5Q196 799 184.0 789.5Q172 780 171 779Q184 755 204.5 719.5Q225 684 238 661Q247 643 272.5 608.5Q298 574 306 551Q315 528 315 509Q315 487 303.5 476.0Q292 465 274.5 457.0Q257 449 250.0 440.0Q243 431 238.0 423.0Q233 415 226.5 402.5Q220 390 216 383L265 241H516Q402 579 366 713Q354 756 354 785Q354 857 385 881Q423 911 454 911Q475 911 493.5 896.5Q512 882 512 852Q512 838 509 826Q507 814 501.5 806.5Q496 799 484.0 789.5Q472 780 471 779Q484 755 504.5 719.5Q525 684 538 661Q547 643 572.5 608.5Q598 574 606 551Q615 528 615 509Q615 487 603.5 476.0Q592 465 574.5 457.0Q557 449 550.0 440.0Q543 431 538.0 423.0Q533 415 526.5 402.5Q520 390 516 383L565 241H816Q702 579 666 713Q654 756 654 785Q654 857 685 881Q723 911 754 911ZM140 781Q140 788 147.0 794.5Q154 801 162.0 805.5Q170 810 177.0 821.5Q184 833 184 850Q184 883 155 883Q130 883 102 859Q82 843 82 786Q82 761 93 720Q108 662 124.0 612.5Q140 563 159.5 503.5Q179 444 193 399Q220 448 228 458Q238 470 253.5 477.5Q269 485 278.0 491.0Q287 497 287 508Q287 527 280 541Q273 560 247.5 596.0Q222 632 213 649Q212 650 176.0 714.0Q140 778 140 781ZM440 781Q440 788 447.0 794.5Q454 801 462.0 805.5Q470 810 477.0 821.5Q484 833 484 850Q484 883 455 883Q430 883 402 859Q382 843 382 786Q382 761 393 720Q408 662 424.0 612.5Q440 563 459.5 503.5Q479 444 493 399Q520 448 528 458Q538 470 553.5 477.5Q569 485 578.0 491.0Q587 497 587 508Q587 527 580 541Q573 560 547.5 596.0Q522 632 513 649Q512 650 476.0 714.0Q440 778 440 781ZM740 781Q740 788 747.0 794.5Q754 801 762.0 805.5Q770 810 777.0 821.5Q784 833 784 850Q784 883 755 883Q730 883 702 859Q682 843 682 786Q682 761 693 720Q708 662 724.0 612.5Q740 563 759.5 503.5Q779 444 793 399Q820 448 828 458Q838 470 853.5 477.5Q869 485 878.0 491.0Q887 497 887 508Q887 527 880 541Q873 560 847.5 596.0Q822 632 813 649Q812 650 776.0 714.0Q740 778 740 781Z" fill="currentColor"/>
  </g>
</svg>