<svg xmlns="http://www.w3.org/2000/svg" viewBox="0 0 695 1000">
  <g transform="scale(1,-1) translate(0,-1000)">
    <path d="M601 684Q693 509 693 460Q693 458 690 437L667 269Q667 268 668.0 263.0Q669 258 670.0 252.5Q671 247 673.5 240.0Q676 233 679 229Q679 145 649 145Q641 145 637 150V152Q637 154 641.5 171.0Q646 188 646 197Q646 216 636 216Q630 216 625.5 203.0Q621 190 616.0 190.0Q611 190 611 199Q611 224 623 236Q624 237 627.5 240.0Q631 243 634.0 248.5Q637 254 637 265L645 472Q645 472 644.5 473.5Q644 475 644 476Q595 573 556 631Q537 570 537 527V523Q532 418 532 385Q532 358 534.0 305.0Q536 252 536 212Q536 204 535.5 186.0Q535 168 535 158Q549 136 549 98Q549 42 524 6Q524 0 506 0H492Q477 0 477 22Q477 31 481.0 56.0Q485 81 485 92Q485 123 462 123Q440 123 401 100Q383 93 326.5 66.0Q270 39 220.0 21.5Q170 4 127 0Q87 4 87 79Q87 109 129 143Q257 251 350 293Q350 322 353.0 349.5Q356 377 356 397Q356 483 319 608L230 514Q225 509 219.0 509.0Q213 509 208 514L66 670Q55 683 41 683H36Q28 683 14.0 694.0Q0 705 0 711Q0 716 8 716Q11 716 19.0 713.0Q27 710 33 710Q38 710 39.5 711.5Q41 713 41 718Q41 730 27.0 749.5Q13 769 13 770Q13 777 18.5 781.5Q24 786 31 786Q39 786 47.5 776.5Q56 767 61.0 756.5Q66 746 70 736L75 725Q76 718 82 702Q91 687 91 687L217 569L298 682L303 693Q310 703 322.5 714.0Q335 725 342.5 732.5Q350 740 350 748Q350 761 339.5 771.0Q329 781 316.5 788.0Q304 795 293.5 815.0Q283 835 283 866Q283 913 317 948Q365 999 417 999Q477 999 513.0 961.5Q549 924 549 878Q549 865 544.5 850.0Q540 835 536.0 827.0Q532 819 521.5 802.5Q511 786 509 782Q522 758 550.5 744.0Q579 730 585 717Q587 715 588.5 711.0Q590 707 593.5 699.5Q597 692 601 684ZM381 150Q411 163 491 210Q491 221 491.5 233.5Q492 246 492 249Q492 259 491.0 272.0Q490 285 490 311Q227 179 133 70Q132 69 132 66Q132 50 152 50Q161 50 173.0 53.0Q185 56 198.5 60.5Q212 65 227.0 71.5Q242 78 257.5 85.0Q273 92 288.0 99.5Q303 107 316.5 114.0Q330 121 342.0 127.5Q354 134 362.0 139.0Q370 144 376 147ZM366 895Q385 895 385 872Q385 866 379.0 861.5Q373 857 366 857Q341 857 341 872Q341 882 348.5 888.5Q356 895 366 895ZM498 539Q508 632 540 705Q506 723 493 736Q483 746 477.0 755.0Q471 764 465.5 776.5Q460 789 456 797Q437 809 437 849Q437 853 437.5 859.5Q438 866 438 869Q438 886 418.5 898.5Q399 911 380 915L360 919Q359 919 334 914Q318 894 318 866Q318 854 321 840Q323 828 339.5 816.0Q356 804 370.5 787.5Q385 771 385 748Q385 736 380.0 725.5Q375 715 370.0 709.5Q365 704 354.5 695.0Q344 686 340 682Q345 663 357.0 621.5Q369 580 376.0 553.5Q383 527 389.5 483.5Q396 440 396 397Q396 376 394.0 357.5Q392 339 392 317Q407 323 438.5 340.5Q470 358 489 366Q489 463 498 539ZM369 948Q403 943 435.5 923.0Q468 903 468 869Q468 866 467.5 858.5Q467 851 467 849Q467 840 470.5 833.5Q474 827 477.5 825.0Q481 823 490 819Q514 859 514 878Q514 912 486.5 938.0Q459 964 417 964Q391 964 369 948Z" fill="currentColor"/>
  </g>
</svg>