<svg xmlns="http://www.w3.org/2000/svg" viewBox="0 0 1000 1000">
  <g transform="scale(1,-1) translate(0,-1000)">
    <path d="M406 550Q465 550 465 531Q465 520 451.0 502.5Q437 485 426 483Q416 481 409 481Q392 481 374.0 485.5Q356 490 356 497Q356 508 375.5 529.0Q395 550 406 550ZM551 130H532Q516 130 513 145L488 238Q387 241 299 290H297H296H294H292H290L289 289H287H285H284H282H280H279H277H275H274L272 288H270H269H267H265H264H262H260H259H257L255 287H254H252H251H249H247H246H244H242H241H239L238 286H236H234H233H231H230H228H227H225H223H222L220 285H219H217H216H214H213H211H210H208H206H205H203L202 284H200H199H197H196H194H193H192H190H189H187L186 283H184H183H181H180H179H177H176H174H173H172H170H169L167 282H166H165H163H162H161H159H158H157H155H154H153H151L150 281H149H148H146H145H144H143H141H140H139H138H137H135H134L133 280H132H131H130H128H127H126H125H124H123H122H121H120H119H118H116Q91 278 90 278Q73 278 70 295Q57 377 4 446Q0 451 0 458Q0 471 12 476L298 595Q304 603 316.5 626.5Q329 650 340 661Q354 675 377 681Q450 701 513 701Q554 701 649 688Q682 683 724 650Q748 632 752 629Q789 637 827 637Q843 637 857.0 635.5Q871 634 885.0 630.0Q899 626 907.5 624.0Q916 622 930.5 614.5Q945 607 949.5 604.5Q954 602 970.5 592.5Q987 583 990 581Q1000 576 1000 564Q1000 557 990.5 539.0Q981 521 966 506Q945 485 917.0 472.5Q889 460 868.5 456.5Q848 453 811 448Q866 325 898.0 224.0Q930 123 936 21V20Q936 12 930.0 6.0Q924 0 916 0Q907 0 902 5Q825 76 739.5 103.0Q654 130 551 130ZM954 556Q898 587 869 593Q850 597 827 597Q796 597 752 588H748Q737 588 699 619Q670 644 643 648Q560 661 513 661Q454 661 387 643Q373 639 364.5 628.0Q356 617 346.0 597.5Q336 578 325 565Q322 562 318 560L51 449Q91 389 106 319Q303 330 304 330Q310 330 314 327Q401 278 499 278H504Q520 278 523 263L547 170H550Q757 170 892 67Q872 221 764 456Q762 462 762 464Q762 482 779 484Q784 484 792.0 485.0Q800 486 805 487Q870 496 902.5 509.0Q935 522 954 556Z" fill="currentColor"/>
  </g>
</svg>