<svg xmlns="http://www.w3.org/2000/svg" viewBox="0 0 1001 1000">
  <g transform="scale(1,-1) translate(0,-1000)">
    <path d="M372 555Q354 543 324.0 527.5Q294 512 275.0 498.0Q256 484 239 462Q220 438 215.0 392.0Q210 346 202 323Q196 306 185.5 268.0Q175 230 164.0 203.5Q153 177 133 149Q120 131 103.5 120.0Q87 109 65.0 100.0Q43 91 32 84Q27 81 21 81Q14 81 7 86Q1 92 1 100Q1 104 3 110Q59 214 86 330Q92 359 96.5 411.5Q101 464 111.5 502.5Q122 541 149 578Q173 611 204.0 628.5Q235 646 275.0 660.0Q315 674 340 691Q341 692 342 694L343 695Q346 705 352 717Q354 722 361.0 726.0Q368 730 373 730L428 729Q449 728 460.0 704.0Q471 680 471 649Q471 633 468 621Q466 616 462.0 611.5Q458 607 437.0 594.0Q416 581 372 555ZM432 631Q439 632 439 648Q439 660 435.0 674.5Q431 689 428 689L382 687Q382 686 380 680Q373 665 362 658Q334 639 296.0 625.0Q258 611 229.5 597.0Q201 583 181 556Q157 523 148.5 488.0Q140 453 136.0 403.0Q132 353 125 321Q99 210 66 145Q87 154 101 172Q118 196 127.5 219.5Q137 243 147.0 279.0Q157 315 164 336Q169 349 177.0 403.0Q185 457 207 486Q227 512 249.5 528.0Q272 544 303.0 560.0Q334 576 350 587Q375 605 432 631ZM629 555Q585 581 564.0 594.0Q543 607 539.0 611.5Q535 616 533 621Q530 633 530 649Q530 680 541.0 704.0Q552 728 573 729L628 730Q642 730 649 717Q655 705 658 695Q658 695 659 694Q660 692 661 691Q686 674 726.0 660.0Q766 646 797.5 628.5Q829 611 853 578Q880 541 890.5 502.5Q901 464 905.5 411.5Q910 359 916 330Q943 214 999 110Q1001 104 1001 100Q1001 92 995 86Q988 81 981.0 81.0Q974 81 970 84Q959 91 937.0 100.0Q915 109 898.5 120.0Q882 131 869 149Q849 177 838.0 203.5Q827 230 816.5 268.0Q806 306 800 323Q792 346 787.0 392.0Q782 438 763 462Q746 484 727.0 498.0Q708 512 678.0 527.5Q648 543 629 555ZM569 631Q626 605 651 587Q667 576 698.0 560.0Q729 544 752.0 527.5Q775 511 795 486Q817 457 825.0 403.0Q833 349 838 336Q845 315 855.0 279.0Q865 243 874.5 219.5Q884 196 901 172Q915 154 936 145Q903 210 877 321Q870 353 866.0 403.0Q862 453 853.5 488.0Q845 523 821 556Q801 583 772.5 597.0Q744 611 705.5 625.0Q667 639 639 658Q628 665 621 680Q619 686 619 687L573 689Q570 689 566.0 674.5Q562 660 562 648Q562 632 569 631ZM568 1Q545 1 525.0 1.0Q505 1 491.5 1.0Q478 1 467.0 0.5Q456 0 449.5 0.0Q443 0 438.5 0.0Q434 0 432 0H430H410Q405 0 399.5 4.5Q394 9 394 16V85Q394 92 399.5 96.5Q405 101 410 101Q417 101 448.5 85.5Q480 70 498 69Q515 71 547.0 85.0Q579 99 582 100Q583 101 588.0 101.0Q593 101 598.5 97.0Q604 93 604 85V17Q604 1 588 1ZM501 568Q516 568 521 547Q533 522 546.5 422.5Q560 323 560 242V239Q559 193 548.5 148.5Q538 104 523 89Q511 77 498 77Q487 77 476 88Q461 103 449.5 148.5Q438 194 437 239V242Q437 323 451.0 422.5Q465 522 477 547Q485 568 501 568ZM430 32Q430 32 432.0 32.0Q434 32 438.5 32.0Q443 32 449.5 32.0Q456 32 467.0 32.5Q478 33 491.5 33.0Q505 33 525.0 33.0Q545 33 568 33H572V62Q537 49 523 42Q511 36 498 36Q475 36 444 53Q441 55 435.5 58.0Q430 61 427 62V32ZM499 110Q508 117 517.5 157.5Q527 198 528 239V242Q528 378 499 509Q470 378 470 242V240Q470 206 479.5 162.5Q489 119 499 110Z" fill="currentColor"/>
  </g>
</svg>