<svg xmlns="http://www.w3.org/2000/svg" viewBox="0 0 599 1000">
  <g transform="scale(1,-1) translate(0,-1000)">
    <path d="M100 477V801L46 837L37 478ZM100 831V856Q75 877 75 904Q75 925 88.5 938.0Q102 951 120.0 951.0Q138 951 151.0 938.0Q164 925 164 904Q164 876 140 856V831Q143 833 199 871Q203 873 206 873Q218 873 218 861L228 476Q240 471 240 458Q240 450 234.0 444.0Q228 438 220 438L153 437Q163 423 164 414Q199 388 241.0 342.0Q283 296 302 278L368 568Q368 568 365.0 569.5Q362 571 357.5 574.0Q353 577 347.0 581.0Q341 585 334.5 590.5Q328 596 321.5 602.5Q315 609 309.0 616.5Q303 624 298.5 632.5Q294 641 291.5 650.5Q289 660 289 670Q289 684 294.5 698.0Q300 712 306.0 720.5Q312 729 325 746Q326 747 330.5 749.5Q335 752 339.0 761.0Q343 770 353 794Q362 822 383.5 847.0Q405 872 438.0 900.5Q471 929 475 933Q480 937 491.5 956.0Q503 975 517.0 987.5Q531 1000 550 1000Q571 1000 585.0 985.5Q599 971 599 947Q599 932 590.5 910.5Q582 889 581 882Q581 880 577.5 846.0Q574 812 569.5 777.5Q565 743 555.0 701.0Q545 659 532 635L535 619Q535 615 535.5 572.0Q536 529 538 464Q536 348 520.0 240.0Q504 132 504 118Q504 92 507.5 80.5Q511 69 521.5 55.5Q532 42 540 26Q542 22 542 18Q542 12 537.0 6.0Q532 0 525 0H59Q42 0 42 18Q42 29 69.5 62.5Q97 96 100 122Q102 146 102 154Q102 188 89.0 255.0Q76 322 76 362Q76 397 88 413Q88 419 92 437L20 438Q12 438 6.0 444.0Q0 450 0 458Q0 471 12 476L21 861Q21 873 34 873Q37 873 41 871Q97 833 100 831ZM203 478 194 837 140 801V477ZM100 904Q100 884 120 873Q139 884 139 904Q139 913 133.5 919.0Q128 925 120.0 925.0Q112 925 106.0 919.0Q100 913 100 904ZM354 735Q320 687 320 672Q320 649 354.5 617.0Q389 585 433 585Q470 585 500 591Q509 593 509 607Q506 606 501 606Q478 612 467.0 628.5Q456 645 456 662Q456 669 458.0 679.0Q460 689 460 691Q460 692 459 693Q448 703 408.0 709.5Q368 716 354 735ZM470 118Q470 137 487.0 253.5Q504 370 504 484Q504 506 502 560Q488 558 484 558Q446 554 433.0 554.0Q420 554 400 558L332 254Q325 237 304 237H303Q290 237 264.5 265.0Q239 293 199.5 334.0Q160 375 122 398Q111 398 111 362Q111 324 123.5 258.0Q136 192 136 154Q136 123 129.5 100.5Q123 78 116.5 68.0Q110 58 93 36H493Q479 57 474.5 72.0Q470 87 470 118ZM378 701Q387 701 393.5 694.0Q400 687 400 678Q400 660 376 660Q367 660 360.5 666.5Q354 673 354.0 682.0Q354 691 361.0 696.0Q368 701 378 701ZM564 947Q564 965 550 965Q543 965 535.0 956.0Q527 947 517.5 931.5Q508 916 500 908Q491 899 455.0 869.0Q419 839 403.0 817.0Q387 795 381 764V761Q381 751 398.0 747.5Q415 744 441.5 738.5Q468 733 483 719Q495 709 495 691Q495 685 493.0 675.5Q491 666 491 662Q491 655 498 646Q510 667 520.0 707.5Q530 748 534.5 782.5Q539 817 542.5 851.0Q546 885 546 887Q549 903 556.5 920.5Q564 938 564 947Z" fill="currentColor"/>
  </g>
</svg>