<svg xmlns="http://www.w3.org/2000/svg" viewBox="0 0 751 1000">
  <g transform="scale(1,-1) translate(0,-1000)">
    <path d="M584 953Q615 949 644.5 930.5Q674 912 674 881Q674 879 673.5 871.5Q673 864 673 861Q673 853 677.0 847.0Q681 841 682.5 840.0Q684 839 694 834Q717 868 717 888Q717 920 692.0 943.5Q667 967 628 967Q603 967 584 953ZM581 904Q588 904 593.0 897.5Q598 891 598 883Q598 877 592.5 872.5Q587 868 581 868Q558 868 558 883Q558 904 581 904ZM702 491 578 505 566 307H707ZM663 738Q663 725 660.0 716.0Q657 707 648.0 701.0Q639 695 633.5 692.5Q628 690 612.5 685.0Q597 680 590 678Q588 678 578 675Q597 634 597 601V595Q597 586 592 534L693 523Q693 533 695.0 558.5Q697 584 697 592Q698 624 700.0 652.5Q702 681 703.0 696.5Q704 712 704 720Q704 735 700 747Q671 800 663 813V817Q645 832 645 861Q645 865 645.5 871.5Q646 878 646 881Q646 897 628.5 908.0Q611 919 594 922L576 926Q572 926 550 922Q536 900 536 878Q536 845 564.0 823.0Q592 801 592 769Q592 758 589 751Q614 763 625 770Q636 776 642 776Q663 776 663 738ZM254 647Q269 602 278.0 586.0Q287 570 316 541Q318 541 323.0 540.0Q328 539 334.0 538.0Q340 537 347 536L455 570Q463 584 498 654Q486 651 473.0 647.0Q460 643 454 641L447 639Q446 639 443.5 638.5Q441 638 439 638Q431 638 414.5 639.0Q398 640 371.0 642.0Q344 644 322 645Q312 647 309 647Q307 647 300.0 646.5Q293 646 290 645H281Q264 645 254 647ZM266 546Q273 546 285 544Q278 552 263.5 575.5Q249 599 247 604Q186 756 172 770Q162 780 152 780Q134 780 134 759Q134 739 183 674L240 598Q259 570 266 546ZM12 734Q6 734 3.0 737.0Q0 740 0 743L-1 746Q-1 759 39 759Q54 759 76.5 750.5Q99 742 101.0 742.0Q103 742 103 743V746Q103 750 101.5 756.0Q100 762 100 765Q100 788 116 804L102 828L57 802Q56 802 56.0 801.5Q56 801 55 801Q48 801 39.0 813.5Q30 826 30 834Q30 836 32 838L140 900Q140 900 141 900L142 901Q149 901 157.0 889.0Q165 877 165 869Q165 864 162 863L119 838L133 814Q138 816 148 816Q180 816 208 771Q211 766 224.0 733.0Q237 700 237 699Q246 706 257 706Q274 706 295.5 694.5Q317 683 326 683L446 687Q516 719 544 731Q559 757 559.0 769.0Q559 781 550.5 790.5Q542 800 531.5 806.5Q521 813 512.5 831.5Q504 850 504 878Q504 925 543.0 962.5Q582 1000 628 1000Q683 1000 715.5 965.5Q748 931 748 888Q748 876 743.5 862.0Q739 848 736.5 842.0Q734 836 723.5 818.5Q713 801 712 800Q719 788 724.0 781.5Q729 775 730.5 773.5Q732 772 734.5 767.0Q737 762 740 750L738 592Q738 584 737.0 568.5Q736 553 736.0 543.0Q736 533 734 503L743 309V297Q751 241 751 207V197L750 74Q748 56 748 44V36Q748 13 742.0 6.5Q736 0 722 0H635Q628 0 619.5 6.0Q611 12 610 19Q610 39 696 59L683 277H586Q586 274 583.5 253.0Q581 232 578 212L576 191L556 74V70Q556 65 555.0 56.0Q554 47 554 44V36Q554 13 547.0 6.5Q540 0 515 0H444Q433 0 426.0 4.0Q419 8 417.5 11.5Q416 15 416 18Q416 41 503 59L525 305H526L545 497Q525 517 525 530Q525 544 553 549Q557 591 557 593Q557 608 543 639Q534 621 523.5 595.5Q513 570 505.5 552.0Q498 534 497 531Q494 525 482 523L349 508L352 505Q353 503 353 503Q354 501 354 498Q354 493 350 491L286 454Q286 454 284 454L282 453Q276 453 274 457Q274 458 273.5 458.0Q273 458 273 459Q269 471 262 499Q225 511 225 527Q225 530 226 532Q226 532 226 533L227 534Q231 544 248 546Q244 561 228.5 580.5Q213 600 189.5 625.0Q166 650 155 665Q150 671 136.5 686.5Q123 702 117 712Q113 713 89.5 722.5Q66 732 51 736Q47 737 40 737Q34 737 24.5 735.5Q15 734 12 734ZM287 497Q288 493 290 487L314 501Q304 497 303 497Z" fill="currentColor"/>
  </g>
</svg>