<svg xmlns="http://www.w3.org/2000/svg" viewBox="21.4 -637.6 745.2 582.2">
	<path fill="currentColor" d="M670 -87Q630 -194 582 -265.5Q534 -337 476 -368Q419 -397 375 -405Q331 -413 286 -418Q250 -423 209 -426Q168 -429 131.5 -437.5Q95 -446 72 -467Q49 -488 49 -528Q49 -549 61 -567.5Q73 -586 91.5 -598Q110 -610 131 -610Q154 -610 166.5 -600Q179 -590 184.5 -575.5Q190 -561 191.5 -547.5Q193 -534 193 -529Q202 -532 228.5 -537.5Q255 -543 291 -547.5Q327 -552 361 -552Q435 -552 495.5 -531Q556 -510 600.5 -480Q645 -450 669 -421Q693 -392 693 -375Q693 -359 680 -349Q667 -339 659 -334Q676 -303 692.5 -265Q709 -227 721 -188Q733 -149 737 -115Q739 -102 717.5 -92.5Q696 -83 670 -87ZM684 -106Q698 -105 706.5 -110.5Q715 -116 715 -117Q715 -132 706 -164.5Q697 -197 682 -235.5Q667 -274 650 -309Q633 -344 618 -363Q588 -402 544 -423.5Q500 -445 454.5 -453.5Q409 -462 371 -463.5Q333 -465 315 -465Q254 -465 221 -476Q188 -487 180 -506Q177 -514 175.5 -528Q174 -542 170.5 -556.5Q167 -571 158 -581Q149 -591 130 -591Q108 -591 88 -570.5Q68 -550 68 -528Q68 -498 87.5 -481Q107 -464 139 -456.5Q171 -449 209.5 -445.5Q248 -442 286 -438Q372 -429 436 -407.5Q500 -386 552 -335Q593 -294 626 -237Q659 -180 684 -106ZM649 -351Q657 -356 665.5 -362Q674 -368 674 -375Q674 -387 659 -405.5Q644 -424 618 -445Q592 -466 558 -483Q518 -503 469 -517.5Q420 -532 361 -532Q313 -532 270.5 -525Q228 -518 203 -512Q203 -509 211 -502Q219 -495 243.5 -489.5Q268 -484 318 -484Q401 -484 457.5 -472.5Q514 -461 549.5 -443.5Q585 -426 605 -407Q625 -388 635 -374Q643 -362 649 -351Z"/>
</svg>