<svg xmlns="http://www.w3.org/2000/svg" viewBox="0 0 1000 1000">
  <g transform="scale(1,-1) translate(0,-1000)">
    <path d="M0 33Q0 37 1.0 43.0Q2 49 11.0 59.5Q20 70 35 74H40Q46 74 55.5 68.5Q65 63 69 62V496L29 472Q25 470 21 470Q15 470 10.5 474.5Q6 479 6 485Q6 488 8 492L71 610Q76 618 84 618Q94 618 98 610L160 492Q162 488 162 485Q162 479 157.5 474.5Q153 470 147 470Q143 470 139 472L99 496V358H122Q130 358 136.0 352.0Q142 346 142.0 338.0Q142 330 136.0 324.0Q130 318 122 318H99V60H138Q161 60 199.5 61.5Q238 63 256 63Q242 85 242 118Q242 142 254.0 167.0Q266 192 266 203Q266 223 258.5 230.0Q251 237 234.5 243.0Q218 249 207 260Q201 265 190.0 273.0Q179 281 174 286Q158 302 158 329Q158 348 174.5 380.0Q191 412 206 428Q215 437 229.5 455.0Q244 473 252 481Q279 508 312 508Q362 508 399.0 470.5Q436 433 437 377Q438 301 461.0 270.5Q484 240 536 240H545Q626 244 700 276Q719 328 760.0 358.5Q801 389 860 389Q897 389 897 365Q897 355 890.0 348.0Q883 341 873 341Q873 341 868.0 341.5Q863 342 859 342Q800 342 766 300Q781 303 799 303Q877 303 938.5 253.5Q1000 204 1000 112Q1000 81 987.5 58.0Q975 35 960.0 24.5Q945 14 925.5 8.0Q906 2 897.5 1.0Q889 0 884 0H880H877H585Q586 4 588.0 23.5Q590 43 599 50Q606 56 618 56Q623 56 634.0 54.0Q645 52 652 52H654Q665 53 740 58Q725 73 716 87Q654 80 576.0 43.0Q498 6 412 6Q384 6 362 9L357 0H13Q0 22 0 33ZM375 238Q353 238 332.5 252.0Q312 266 312 294Q312 306 317.0 333.5Q322 361 322 373Q322 387 316.0 395.0Q310 403 304.5 404.0Q299 405 291.0 405.0Q283 405 265.5 403.0Q248 401 238 401H233Q223 389 209.5 363.5Q196 338 196 328Q196 317 212 305Q224 297 233 288Q234 287 263.0 272.0Q292 257 299 234Q304 214 304 202Q304 182 292.0 158.0Q280 134 280 118Q280 106 282.5 97.0Q285 88 296.0 74.0Q307 60 336.5 52.0Q366 44 412 44Q463 44 500.5 53.5Q538 63 558.5 75.5Q579 88 615.5 102.0Q652 116 698 123Q686 157 686 194Q686 219 688 231Q623 205 547 202H536Q467 202 432 247Q426 246 414.5 243.5Q403 241 393.5 239.5Q384 238 375 238ZM245 370Q252 370 257.0 364.5Q262 359 262.0 352.0Q262 345 256.5 340.5Q251 336 244 336Q220 336 220.0 353.0Q220 370 245 370ZM109 525 84 571 59 525Q80 537 84.0 537.0Q88 537 109 525ZM340 295Q340 280 352.0 273.5Q364 267 375 267Q384 267 417 274Q399 315 399 376Q398 416 372.5 443.0Q347 470 312 470Q298 470 288.0 462.0Q278 454 259 431Q263 431 270.0 432.0Q277 433 282.5 433.5Q288 434 292 434Q304 434 315.0 431.0Q326 428 338.0 413.0Q350 398 350 373Q350 358 345.0 330.5Q340 303 340 295ZM763 103Q784 76 814.0 62.0Q844 48 869.0 44.5Q894 41 895 40Q930 44 946.0 60.5Q962 77 962 112Q962 153 946.0 184.0Q930 215 904.5 232.0Q879 249 852.0 257.0Q825 265 799.0 265.0Q773 265 742 253Q733 224 733 194Q733 160 748 128Q764 126 764 109Q764 105 763 103Z" fill="currentColor"/>
  </g>
</svg>