<svg xmlns="http://www.w3.org/2000/svg" viewBox="-39.6 -39.6 1068.1 555.1">
  <g transform="scale(1,-1) translate(0,-1000)">
    <path d="M277 289Q296 289 340.5 281.0Q385 273 409 273Q417 273 428.0 276.0Q439 279 473.5 283.0Q508 287 571 289H843V476H989V216H843Q697 217 566 217Q490 217 446 216Q404 216 338.5 207.0Q273 198 245 198Q241 198 217.0 205.5Q193 213 165.5 230.5Q138 248 138 268Q138 279 158 279Q172 279 194.0 258.5Q216 238 231 238Q237 238 247.5 237.0Q258 236 263 236Q274 236 283.5 238.5Q293 241 298.0 244.0Q303 247 303 249Q303 254 278 254H275H266Q248 254 248 270Q248 289 277 289ZM959 448H873V260H958ZM128 346Q170 346 201.0 321.5Q232 297 232 265Q232 248 215 248Q208 248 203.0 252.5Q198 257 198 264Q197 284 174.5 297.5Q152 311 128 311Q98 311 88 292Q53 224 45.5 188.0Q38 152 36 69Q36 56 34 16Q34 9 29.0 4.5Q24 0 17 0Q0 0 0 17Q0 28 1 70Q3 156 11.5 196.0Q20 236 57 308Q76 346 128 346Z" fill="currentColor"/>
  </g>
</svg>