<svg xmlns="http://www.w3.org/2000/svg" viewBox="0 0 847 1000">
  <g transform="scale(1,-1) translate(0,-1000)">
    <path d="M692 935Q692 953 670.5 963.0Q649 973 649 983Q649 989 653.5 993.5Q658 998 664 998Q667 998 679.5 993.0Q692 988 707.0 972.5Q722 957 722 935V855L786 921Q790 925 797 925Q812 925 812 909V243Q812 239 811 238H835Q838 238 842.5 230.0Q847 222 847 216V215Q834 160 794.5 118.0Q755 76 709.0 54.5Q663 33 606.0 20.0Q549 7 511.5 3.5Q474 0 441 0H424Q342 0 274.5 12.0Q207 24 164.5 43.0Q122 62 89.5 85.0Q57 108 40.5 131.5Q24 155 14.0 174.0Q4 193 2 205L0 217Q0 221 8.5 229.5Q17 238 20 238H56Q53 244 53 250V251Q56 277 66 277H67Q70 277 76.0 276.5Q82 276 84 276H118Q149 276 169 279Q183 279 183 291Q183 293 184 293Q185 294 185 298Q185 304 183.5 316.0Q182 328 182 335V340Q182 346 180.0 355.0Q178 364 178 367V374Q176 394 176 431V434Q176 446 174.5 463.0Q173 480 173 489V569Q172 578 170 578Q170 578 159.5 573.0Q149 568 138 568Q112 568 112 580Q112 594 139.5 612.5Q167 631 195 631Q198 629 224 629H225Q227 633 227 633Q230 643 236.5 674.0Q243 705 255 726Q263 741 272.5 751.0Q282 761 295.0 771.0Q308 781 315 788Q313 792 313 800V811Q304 811 304 811Q297 811 284.0 813.0Q271 815 262 815H261Q257 815 249.0 814.5Q241 814 236 814Q225 814 212.0 816.5Q199 819 184.5 828.5Q170 838 169 853Q160 896 160 899Q160 931 183 931Q186 931 193 930L200 928H207Q214 928 224.5 927.5Q235 927 240 927Q255 927 265 930Q266 931 267.0 932.0Q268 933 270.0 937.5Q272 942 276 947L306 986Q310 992 318 992Q325 992 327 990Q331 990 343.0 990.5Q355 991 363 992Q366 992 381.0 996.0Q396 1000 406 1000Q437 1000 467 974Q518 923 518 881Q518 836 496 805Q511 800 516 790Q563 708 563 647V646Q563 626 560.0 609.0Q557 592 552.0 571.5Q547 551 545 535Q505 315 505 311Q503 304 501.5 293.0Q500 282 499 277Q516 289 531 289Q581 289 581 261Q581 247 570 238H607Q607 238 606 240V242V908Q606 923 621 923Q627 923 631 919L692 857ZM781 262V874Q711 805 708 805Q704 805 698 809L637 873V262ZM247 422Q247 415 235.5 379.5Q224 344 224 321Q224 314 226 304Q236 296 274.5 284.5Q313 273 318 270Q340 259 395 259Q451 259 463 276Q469 283 481 351Q439 364 429 370Q379 400 344.0 435.5Q309 471 262 532Q255 542 220 598H214Q213 598 212 598L210 597H209Q203 586 203 569Q203 567 203.5 561.0Q204 555 204 552V545Q204 540 203.5 528.5Q203 517 203 511Q203 499 204 493V489Q204 476 205.5 458.5Q207 441 207 434V431Q207 407 208 393Q233 449 233 474V481Q233 482 232.5 484.0Q232 486 232 487Q232 503 239 503Q248 502 248 482V448Q248 436 247 422ZM361 961Q404 933 404 906V902Q402 882 375.0 858.0Q348 834 343 822Q344 820 344 819Q344 819 344 811V799Q365 781 394 781Q396 781 402.0 782.0Q408 783 420.5 787.0Q433 791 444.0 797.5Q455 804 465.5 817.0Q476 830 480 847Q487 874 487 881Q487 912 445 951Q428 968 411 970H406Q400 970 384.5 965.5Q369 961 361 961ZM476 781Q435 750 394 750Q392 750 389.0 750.5Q386 751 385 751Q353 754 337 766Q328 756 316.5 747.5Q305 739 297.0 731.5Q289 724 282 711Q270 690 265.5 661.5Q261 633 250 607Q255 599 266.5 581.0Q278 563 286 551Q335 487 364.5 457.5Q394 428 445 397Q457 390 486 382L494 432Q497 449 504.0 482.5Q511 516 515 540Q517 553 522.5 575.5Q528 598 530.0 613.0Q532 628 532 646V647Q532 698 490 774Q489 775 484.5 776.5Q480 778 477 780Q476 780 476 780ZM212 855Q215 849 217.5 847.5Q220 846 231 845Q232 845 233.5 844.5Q235 844 236 844Q239 844 246.5 845.0Q254 846 261 846H262Q266 846 306 841Q307 841 316.5 841.5Q326 842 327 841Q329 848 354.0 870.0Q379 892 381 904V910Q375 919 371 923Q362 932 345.5 943.0Q329 954 323 958L301 928Q300 927 295 919Q281 896 240 896Q234 896 223.5 896.5Q213 897 207 897H200Q197 897 190.5 898.0Q184 899 182 899Q179 899 179 898Q179 894 195.5 884.0Q212 874 212 855ZM332 923Q339 923 344.5 917.5Q350 912 350 904Q350 897 344.0 892.0Q338 887 330 887Q304 887 304.0 905.0Q304 923 332 923ZM396 206H38Q56 155 92.5 119.5Q129 84 207.5 59.5Q286 35 402 33L322 115Q319 118 319 120Q319 123 322 126ZM428 197 356 120 433 42 508 121ZM542 127Q546 124 546 122Q546 119 543 116L463 33Q617 39 701.0 86.0Q785 133 810 206H460ZM274 254Q217 274 217 274Q217 267 211 255Q253 255 274 254ZM504 251V249Q558 253 558 260Q558 262 551.0 263.0Q544 264 537 264L530 265Q521 265 504 251Z" fill="currentColor"/>
  </g>
</svg>