<svg xmlns="http://www.w3.org/2000/svg" viewBox="0 0 758 1000">
  <g transform="scale(1,-1) translate(0,-1000)">
    <path d="M40 341 89 320 186 684 183 691ZM662 565Q634 559 593 559Q576 559 561 562L492 255Q486 237 463 237Q450 237 424.5 265.5Q399 294 359.5 335.5Q320 377 282 399Q270 396 270 362Q270 324 283.0 258.0Q296 192 296 154Q296 122 290.0 100.5Q284 79 278.0 70.5Q272 62 252 36H653Q639 56 634.5 71.0Q630 86 630 118Q630 136 647.0 251.5Q664 367 664 485Q664 511 662 565ZM515 741Q481 693 481 677Q481 654 515.5 622.0Q550 590 594 590Q631 590 661 596Q670 598 670 612V613Q664 611 662 611Q639 617 628.0 633.5Q617 650 617 667Q617 674 619.0 684.0Q621 694 621 696Q621 697 620 698Q609 708 569.0 715.0Q529 722 515 741ZM539 706Q548 706 554.5 699.0Q561 692 561 683Q561 665 537 665Q528 665 521.5 671.5Q515 678 515.0 687.0Q515 696 522.0 701.0Q529 706 539 706ZM542 766Q542 757 560.0 752.0Q578 747 599.0 744.0Q620 741 638.0 729.0Q656 717 656 696Q656 690 654.0 680.5Q652 671 652 667Q652 661 659 652Q671 673 681.0 712.5Q691 752 695.0 785.5Q699 819 702.5 852.0Q706 885 706 887Q709 903 716.0 920.0Q723 937 723 946Q723 965 709 965Q702 965 694.0 956.0Q686 947 676.5 931.5Q667 916 659 908Q648 897 614.0 870.0Q580 843 564.0 821.5Q548 800 542 769ZM522 578Q520 575 516.0 569.5Q512 564 500.5 549.5Q489 535 478.0 524.5Q467 514 453.5 505.0Q440 496 429 496H418Q399 496 399 509Q402 522 425.5 534.5Q449 547 456 556Q462 563 471.5 581.5Q481 600 484 604Q450 638 450 675Q450 689 455.5 703.0Q461 717 467.0 725.5Q473 734 486 751Q486 753 500.0 775.0Q514 797 514 799Q523 827 544.5 851.5Q566 876 597.5 901.5Q629 927 635 933Q640 937 651.0 956.0Q662 975 676.0 987.5Q690 1000 709 1000Q730 1000 744.0 985.0Q758 970 758 946Q758 931 749.5 910.0Q741 889 740 882Q740 880 736.5 846.5Q733 813 729.0 779.5Q725 746 715.5 705.0Q706 664 693 640L696 624Q697 622 704.0 605.5Q711 589 717.5 572.5Q724 556 730.0 534.0Q736 512 736 497Q736 479 725.0 471.0Q714 463 706 463Q703 463 697 465Q696 351 680.0 241.0Q664 131 664 118Q664 93 667.5 82.0Q671 71 682.0 56.5Q693 42 700 27Q702 21 702 18Q702 11 697.0 5.5Q692 0 685 0H219Q212 0 207.0 5.5Q202 11 202 18Q202 29 229.5 63.0Q257 97 260 123Q261 134 261 154Q261 188 248.5 255.0Q236 322 236 362V366Q236 394 244 408Q238 423 238 423Q242 447 252 451L207 629L118 291Q114 278 100 278Q96 278 94 279L11 315Q0 320 0 331Q0 336 1 338Q41 436 94 568Q151 710 162.5 734.0Q174 758 185 758H186Q200 758 204 746L220 706Q224 700 224 695L288 470Q312 457 312 434Q312 432 311.5 428.0Q311 424 311 422Q341 403 364.0 380.5Q387 358 413.5 328.0Q440 298 462 278L529 573Q528 573 525.5 575.5Q523 578 522 578Z" fill="currentColor"/>
  </g>
</svg>