<svg xmlns="http://www.w3.org/2000/svg" viewBox="0 0 680 1000">
  <g transform="scale(1,-1) translate(0,-1000)">
    <path d="M294 821V840L266 831ZM310 817Q325 817 325 831V833Q325 845 311 845Q302 845 302 843V819Q302 817 310 817ZM530 958Q523 958 521 952L520 951L530 944L532 958ZM502 833Q509 840 509 849V854Q509 856 506 856H505Q498 849 498 842Q498 841 498.5 839.0Q499 837 499 836Q499 833 502 833ZM607 958H599L601 945L611 952Q609 956 607 957ZM623 849Q623 844 625.5 839.5Q628 835 630 834L632 832Q633 834 633 834Q633 835 633.5 837.0Q634 839 634 840Q634 844 631.5 848.0Q629 852 627.0 854.0Q625 856 624.0 856.0Q623 856 623 854ZM570 984Q567 986 564.0 986.0Q561 986 556 983L564 972ZM550 836 581 837 576 860H555ZM614 394 507 407 461 255 618 252ZM532 792Q561 792 578.0 778.5Q595 765 595 752Q595 737 579 727Q578 726 576 724L573 723Q576 663 576 640Q589 640 653 642Q652 651 651.0 670.5Q650 690 647.5 710.5Q645 731 638 752Q631 774 603 793Q580 810 564 810Q542 810 517 790Q527 792 532 792ZM511 748Q525 748 525 733Q525 723 511 723Q494 723 494 733Q494 748 511 748ZM606 421Q606 458 609.5 491.5Q613 525 617.5 547.0Q622 569 626.5 584.5Q631 600 634 608L638 617Q620 616 603 616H564Q552 616 552 628Q552 628 550.5 673.0Q549 718 549 724Q549 731 553.0 736.0Q557 741 562.5 745.5Q568 750 570 752Q559 768 532 768Q517 768 489 761Q478 744 478 729Q478 705 502.5 684.5Q527 664 527 652Q527 646 517.5 632.5Q508 619 498 609L489 599Q515 554 521 515Q520 507 520.0 472.5Q520 438 519 430ZM317 539Q317 562 328.0 615.5Q339 669 339 681Q339 719 318 719Q294 719 294 681Q294 670 304.5 616.5Q315 563 315 539V538Q315 514 306 482L303 470H330Q329 473 327.5 477.0Q326 481 326 483Q317 514 317 539ZM94 539Q94 562 105.0 615.5Q116 669 116 681Q115 719 94 719Q70 719 70 681Q70 670 81.0 616.5Q92 563 92 539V538Q92 514 83 482Q82 480 80.5 476.0Q79 472 79 470H107Q106 473 104.5 477.0Q103 481 103 483Q94 514 94 539ZM70 820V839L42 830ZM86 816Q101 816 101 830V832Q101 844 87 844Q78 844 78 842V818Q78 816 86 816ZM562 1000Q570 1000 579.0 995.0Q588 990 588 986Q588 984 587 983L571 956L573 903Q574 912 577.5 920.0Q581 928 584 932L587 936L588 937L584 967Q584 972 589 972H592Q593 972 596.0 972.5Q599 973 601 973Q609 973 616.0 967.0Q623 961 626 955L628 949Q628 946 625 944L601 928Q588 902 586 887Q588 890 592.5 894.5Q597 899 598 902Q599 903 603 903Q609 903 611 898L629 866Q643 852 643 840Q643 837 642.0 831.5Q641 826 641 824Q641 818 635 818Q613 830 613 852Q614 863 614 863L602 882Q599 879 590 861Q594 826 594 826H595Q640 803 656.0 771.0Q672 739 675 676Q675 672 677.5 653.5Q680 635 680 628Q680 619 677 619Q673 618 663.5 595.0Q654 572 652 555Q645 497 645 484Q645 477 644.0 462.0Q643 447 643 439Q643 429 641 405L650 254V244Q656 195 656 166V160L655 64Q653 48 653 38V31Q653 11 648.0 6.0Q643 1 631 1Q604 1 580.0 1.5Q556 2 555 2Q549 2 548 1Q547 2 541.0 6.5Q535 11 534 17Q534 33 609 51L597 227H514Q513 215 510.5 198.5Q508 182 506.0 170.0Q504 158 504 156L505 155L487 64V61Q487 57 486.0 49.0Q485 41 485 38V31Q485 11 479.5 5.5Q474 0 452 0Q446 0 427.5 0.5Q409 1 395 1H390Q381 1 375.0 4.5Q369 8 367.5 11.5Q366 15 366 17Q366 20 371.5 24.5Q377 29 378 31Q399 40 442 51Q445 85 450.5 138.5Q456 192 459 226L409 227L478 399Q489 426 489 464Q489 471 488.5 482.0Q488 493 488 496V500Q487 524 478 545Q454 417 422 386Q408 383 394 383V171Q394 164 388 164Q381 164 381 171V383Q344 383 283 391Q280 391 264 389Q237 392 220 400V266L243 209Q244 207 244 205Q244 200 240.0 196.5Q236 193 232 193Q224 193 221 200L208 234L196 200Q192 193 185 193Q180 193 176.5 196.5Q173 200 173 205V206Q173 213 197 266V434H170V170Q170 163 164 163Q157 163 157 170V434H50Q36 434 36.0 448.0Q36 462 50 462H56Q57 466 61.0 479.0Q65 492 68.0 507.5Q71 523 71 538V539Q71 560 60.0 613.5Q49 667 49 681Q49 687 50.0 695.5Q51 704 59.5 719.0Q68 734 83 738V751L51 750Q38 750 38 764Q38 776 49 776H137Q148 776 148 764Q148 751 137 751H105V738Q137 728 137 681Q137 667 126.0 613.5Q115 560 115 539Q115 524 118.0 508.0Q121 492 125.0 479.0Q129 466 130 462H157V769Q156 791 138 812Q132 820 108 823Q104 808 86 808H80Q80 808 78 808L76 807L12 774Q10 773 10 773H9Q4 773 4 779Q4 782 6 784L57 816L5 824Q0 826 0 830Q0 836 5 836L51 843L5 873Q3 875 3 878Q3 884 8 884H11L77 851H78Q80 851 82.5 851.5Q85 852 87 852Q104 852 108 837Q135 837 148 821Q170 793 170 770V462H197V887Q186 879 182.5 871.0Q179 863 166 822Q165 829 161.5 846.5Q158 864 158 874Q158 887 173.5 910.5Q189 934 198 966Q199 971 200.0 975.5Q201 980 201.5 986.0Q202 992 203 996Q206 991 211.5 984.5Q217 978 220.0 972.0Q223 966 223 959V955Q223 934 211 907Q220 903 220 896V462H279Q280 466 284.0 479.0Q288 492 291.5 507.5Q295 523 295 538V539Q295 560 284.0 613.5Q273 667 273 681Q273 728 306 738V751L274 750Q262 750 262 764Q262 776 272 776H361Q372 776 372 764Q372 759 368.0 755.0Q364 751 360 751H329V738Q360 728 360 681Q360 667 349.0 613.5Q338 560 338 539Q338 524 341.5 508.0Q345 492 349.0 479.0Q353 466 354 462H359Q373 462 373.0 448.0Q373 434 359 434H220V425Q227 432 235 432Q267 433 269 433Q282 431 288 425L381 419V770Q380 792 362 813Q356 821 332 824Q328 809 310 809H304Q304 809 302 808H300L236 775Q234 774 234 774H233Q228 774 228 780Q228 783 230 785L281 817L229 825Q224 827 224 831Q224 837 229 837L275 844L229 874Q227 876 227 879Q227 885 232 885H235L301 852H302Q304 852 306.5 852.5Q309 853 311 853Q328 853 332 838Q359 838 372 822Q394 794 394 771V435L442 586Q449 596 463.0 611.0Q477 626 486.0 636.5Q495 647 495 652Q495 659 478 670Q470 660 453.5 651.5Q437 643 424 643Q413 643 413 651Q413 657 427 657Q445 659 468 680Q454 696 454 729Q454 731 456.0 740.0Q458 749 465.0 764.5Q472 780 481 789Q517 824 537 827L541 863Q537 871 530 882L518 861V849Q518 840 513.0 832.5Q508 825 504 822L499 818H498Q492 818 491 825Q491 827 490.5 833.0Q490 839 490 842Q490 854 503 867H504L520 899Q522 903 525 903H526Q529 903 534.0 898.5Q539 894 542 889L546 884Q545 892 544.0 896.5Q543 901 542.0 903.5Q541 906 537.5 913.5Q534 921 531 929L507 944Q503 948 503 951Q510 972 528 972H540Q547 972 547 964L543 935Q554 921 558 899L556 960L540 984Q539 985 539 988Q539 993 547.5 996.5Q556 1000 562 1000Z" fill="currentColor"/>
  </g>
</svg>