<svg xmlns="http://www.w3.org/2000/svg" viewBox="0 0 748 1000">
  <g transform="scale(1,-1) translate(0,-1000)">
    <path d="M722 352Q714 352 710.5 380.0Q707 408 700 408Q697 408 690.0 402.0Q683 396 681 396Q680 396 680 398V403Q680 415 685.5 442.5Q691 470 691 483V493Q691 503 694.5 533.5Q698 564 698 593V602V608Q698 626 686 637Q676 645 667.5 653.0Q659 661 655.0 664.5Q651 668 644.0 673.5Q637 679 626 685Q610 644 610 577Q610 536 624.5 507.5Q639 479 639 457Q639 438 623.0 421.0Q607 404 607 399Q606 391 606 376Q606 352 613.0 311.5Q620 271 622 248Q639 61 639 17Q639 11 634.5 6.5Q630 2 624 2H456Q450 2 445.5 6.5Q441 11 441 17Q441 22 442.0 24.0Q443 26 446.5 29.0Q450 32 452 34Q471 53 491.0 61.0Q511 69 521.5 72.0Q532 75 534 84Q539 100 539 121Q539 133 538 139Q461 139 400 147Q400 144 398 136Q398 132 393.5 102.0Q389 72 389 61Q389 56 389.5 44.5Q390 33 390 26V17Q390 1 375 1L188 0Q173 0 173 16Q173 36 190.0 47.5Q207 59 228.5 62.0Q250 65 270.5 72.5Q291 80 297 92Q314 130 318 168Q215 205 145 310Q87 396 87 511Q87 545 94.0 619.5Q101 694 101 736H98Q96 736 93.0 736.5Q90 737 88 737L90 699Q90 693 85.5 688.5Q81 684 75.0 684.0Q69 684 64.5 688.5Q60 693 60 699L61 738Q36 743 36 770Q36 779 41.0 785.5Q46 792 51.0 794.5Q56 797 58 797Q50 801 40.0 814.0Q30 827 30 838Q30 853 47 867Q45 869 41.0 873.5Q37 878 35 881Q0 922 0 953Q0 981 31 981Q33 981 57 978Q61 986 72 986Q84 986 87 978Q89 978 95.0 978.5Q101 979 105 979Q151 979 151 950Q151 937 145.5 924.0Q140 911 134.5 904.0Q129 897 117.0 884.0Q105 871 101 866Q121 851 121 836Q121 825 108.0 811.0Q95 797 88 797Q88 797 87 796L86 795V791Q94 789 98 789Q121 787 175.5 776.5Q230 766 267 766H273Q307 766 334.5 769.5Q362 773 402.0 780.5Q442 788 461 791Q463 804 464 811Q460 817 450 829Q421 861 421 895Q421 942 455 976Q479 1000 524 1000Q564 1000 585.0 993.5Q606 987 620 968Q632 951 632 930Q632 918 628 898L625 883Q620 855 597 832Q591 826 583.0 823.5Q575 821 570.0 819.5Q565 818 565 814Q565 812 566.5 805.5Q568 799 569 795Q575 789 590.0 774.5Q605 760 611 752Q632 744 653 726Q668 713 679.0 705.0Q690 697 694.0 694.5Q698 692 706.5 683.5Q715 675 733 657Q746 643 746 618Q746 616 745.5 610.0Q745 604 745 602Q743 567 731.0 531.0Q719 495 719 470V458Q720 444 733.5 424.5Q747 405 748 390V387Q748 377 741.5 368.5Q735 360 728 356ZM527 918Q522 918 517.0 925.5Q512 933 512 940Q512 949 523.0 956.0Q534 963 546 963Q552 963 559.0 961.5Q566 960 576.0 949.5Q586 939 586 920Q586 913 583.5 906.0Q581 899 578.5 895.0Q576 891 569.0 883.0Q562 875 560.0 872.0Q558 869 547.0 862.5Q536 856 536 850Q536 847 545 838Q551 844 563.0 848.5Q575 853 576 854Q593 871 595 887Q596 893 598.0 902.5Q600 912 601.5 918.5Q603 925 603 930Q603 944 595.5 953.0Q588 962 573.0 965.0Q558 968 548.0 969.0Q538 970 522 970Q492 970 477 955Q451 928 451 897Q451 885 453.5 876.5Q456 868 459.5 864.0Q463 860 472 849Q495 823 495 815V813Q492 794 490 779Q488 771 465.5 753.0Q443 735 438 718V715Q438 712 448.5 696.0Q459 680 460 666Q465 606 465 585Q465 537 454 497Q444 459 430.0 427.5Q416 396 395.5 358.5Q375 321 363 295Q362 293 358.5 287.0Q355 281 354 274Q351 258 348.5 192.0Q346 126 325 80Q319 66 303.5 56.5Q288 47 278.5 44.0Q269 41 245 35Q243 34 236.5 32.5Q230 31 227 30L360 31Q359 55 359 60Q359 66 361.5 86.0Q364 106 366 123L368 140Q376 203 401 267Q409 287 420.5 303.0Q432 319 448.0 335.5Q464 352 473 364Q477 368 479 369Q471 407 471 422Q471 442 475.5 455.0Q480 468 497 496Q500 504 510 504Q516 504 520.5 499.5Q525 495 525 489Q525 484 513.0 463.5Q501 443 501 421Q501 402 518.0 335.0Q535 268 540 238Q543 220 556.0 183.0Q569 146 569 120Q569 75 553.5 59.5Q538 44 502 34Q501 34 499.0 33.0Q497 32 496 32H608Q608 38 592 246Q590 267 583.0 308.5Q576 350 576 376Q576 403 580.0 413.5Q584 424 598 438Q609 449 609 457Q609 471 594.5 501.5Q580 532 580 577Q580 581 587 658Q588 670 594.0 685.5Q600 701 600 706Q600 723 569.5 751.5Q539 780 539 789Q539 792 537.0 800.0Q535 808 535 813Q535 820 536 823Q514 823 514 845Q514 847 526 878Q529 885 540.5 897.0Q552 909 552 918Q552 924 548 924Q546 924 538.5 921.0Q531 918 527 918ZM504 909Q504 889 486 889Q486 889 485 888H484Q476 889 470.0 895.0Q464 901 464 910Q464 917 468.5 923.5Q473 930 480.0 930.0Q487 930 495.5 924.5Q504 919 504 909ZM487.0 579.0Q492 585 496.0 585.0Q500 585 505.0 579.5Q510 574 510.0 569.0Q510 564 505.5 557.5Q501 551 497.0 551.0Q493 551 487.5 557.0Q482 563 482.0 568.0Q482 573 487.0 579.0ZM319 209Q319 274 332 300Q332 304 372 380Q391 415 401.0 437.0Q411 459 423.0 501.5Q435 544 435 584Q435 604 430 664Q430 670 419.0 686.0Q408 702 408 715Q408 720 409 725Q301 713 286 713H272Q226 715 121 732Q120 691 113.5 618.0Q107 545 107 511Q107 402 161 322Q226 225 319 189ZM403 167Q457 159 533 159Q512 223 510 232Q505 263 487 333Q484 329 477.0 322.0Q470 315 467 311Q419 259 403 167ZM52 843Q50 839 50 838Q50 838 51 836Q52 835 52 833ZM72 813Q74 812 74 812H75L73 845L72 844ZM93 846Q93 842 93.5 835.5Q94 829 94 827Q100 833 101 836Q100 839 93 846ZM131 951Q131 959 106 959Q103 959 96.5 958.5Q90 958 88 958Q89 921 91 889Q91 889 100 898Q131 929 131 951ZM53 891 54 958Q38 960 31 960Q23 960 21.5 958.5Q20 957 20 953Q20 930 53 891Z" fill="currentColor"/>
  </g>
</svg>