<svg xmlns="http://www.w3.org/2000/svg" viewBox="0 -2048 2048 2048">
	<path fill="currentColor" d="M1327 -353Q1327 -343 1310 -307Q1293 -271 1286 -264Q1283 -261 1270 -252Q1291 -255 1316 -262L1321 -206Q1286 -211 1253 -220Q1256 -161 1273 -73L1217 -69L1205 -81Q1224 -197 1224 -219Q1203 -216 1161 -209L1156 -255L1170 -268Q1181 -263 1199 -257Q1156 -310 1156 -336V-361Q1156 -369 1163.5 -385.5Q1171 -402 1171 -417Q1171 -429 1182 -446.5Q1193 -464 1193 -467V-791Q1193 -790 1111 -915H1022Q1011 -877 1011 -816Q1011 -784 1031 -725Q1051 -666 1051 -635Q1051 -585 1043 -562Q1043 -561 1027 -528Q1020 -512 1020 -488Q1020 -473 1023 -442Q1026 -411 1026 -396V-313Q1026 -290 1015 -244Q1004 -198 1004 -175Q1004 -148 1012 -93Q1020 -38 1020 -10V343Q1020 348 999 388H966Q960 388 940.5 377Q921 366 918 366Q915 366 900.5 375.5Q886 385 880 385H731V323Q744 331 750 331Q796 331 836 316Q890 296 890 258Q890 249 876 185H747Q714 239 714 289Q714 299 720 316.5Q726 334 726 344Q726 388 672 388Q662 388 640 368Q610 387 604 387H431V329Q587 305 617 226Q623 210 623 62Q623 55 626 41Q629 27 629 20V-65Q629 -73 646 -209Q654 -288 663 -366Q674 -463 692 -520Q702 -551 711 -612Q712 -649 722 -723Q749 -831 749 -843Q749 -841 745 -883L729 -894Q719 -851 708 -808Q694 -757 675 -726Q661 -703 552 -624Q481 -573 410 -522Q374 -500 339 -478Q294 -447 294 -414L285 331Q284 379 264 388Q241 380 240 316L231 -414Q231 -439 217.5 -448.5Q204 -458 204 -477Q204 -513 220 -529H211L206 -566Q217 -572 228 -573Q231 -585 235 -745Q243 -1085 243 -1190Q243 -1197 219 -1208.5Q195 -1220 186 -1252Q184 -1265 176 -1290Q169 -1305 143 -1319.5Q117 -1334 100 -1335V-1350Q140 -1397 283 -1397Q330 -1397 437 -1346Q417 -1337 395.5 -1326Q374 -1315 370 -1294Q360 -1242 322 -1215Q321 -1214 299 -1206Q282 -1199 282 -1194L296 -561H301Q523 -735 556 -796Q560 -821 569 -861Q602 -993 630 -1112Q636 -1139 664.5 -1167.5Q693 -1196 719 -1200Q745 -1204 784 -1204Q783 -1211 783 -1242Q764 -1247 730 -1253Q726 -1271 700 -1322Q685 -1344 685 -1350Q685 -1356 698 -1376Q713 -1400 715 -1404Q724 -1431 745 -1484Q796 -1587 944 -1587Q928 -1587 995 -1569Q1118 -1536 1118 -1334V-1177Q1118 -1156 1151 -1113Q1178 -1078 1244 -955Q1315 -823 1315 -798Q1315 -790 1314 -782L1275 -473Q1282 -453 1293 -411Q1327 -394 1327 -353ZM1095 -941V-1363Q1095 -1479 1045 -1521Q1036 -1528 994 -1546Q952 -1564 943 -1564Q941 -1564 859 -1554Q839 -1552 809.5 -1527.5Q780 -1503 769 -1484Q764 -1472 755 -1447L894 -1452Q944 -1454 944 -1396Q944 -1360 907 -1347V-941ZM1292 -796Q1292 -824 1219 -953Q1161 -1056 1122 -1113V-943L1216 -790V-470Q1216 -462 1207.5 -447.5Q1199 -433 1198 -426L1209 -433Q1211 -415 1215 -379Q1218 -362 1235 -362Q1255 -362 1264 -364Q1273 -400 1273 -390Q1273 -402 1262 -436Q1251 -470 1251 -471L1291 -781Q1292 -789 1292 -796ZM381 -1346Q317 -1371 285 -1371H250Q167 -1371 137 -1349Q187 -1331 204 -1273Q219 -1223 263 -1223Q333 -1223 345 -1288Q350 -1314 354 -1322Q361 -1336 381 -1346ZM1279 -344Q1270 -335 1253 -335H1241Q1215 -335 1203 -349L1201 -333Q1216 -301 1238 -264Q1258 -296 1279 -344ZM1244 -96L1238 -141Q1235 -122 1233 -96ZM1028 -612Q1028 -662 1018 -694Q985 -800 985 -808Q985 -826 999 -914Q981 -914 944 -915Q907 -916 891 -916L892 -917L880 -921V-1358Q920 -1382 920 -1398Q920 -1430 885 -1429L749 -1426Q740 -1405 718 -1366Q714 -1361 708 -1350Q725 -1328 750 -1271Q770 -1268 809 -1259V-1189Q780 -1186 722.5 -1176.5Q665 -1167 650 -1100Q643 -1061 627 -983Q613 -937 589 -845Q586 -821 577 -785Q558 -749 406 -620Q309 -538 302 -538Q295 -538 280.5 -545.5Q266 -553 261 -553Q257 -553 237 -550Q278 -543 291 -535Q314 -522 313 -487Q470 -593 654 -736Q664 -750 686.5 -820Q709 -890 709 -908Q709 -910 693.5 -925.5Q678 -941 678 -953Q678 -988 704.5 -1025Q731 -1062 731 -1065Q731 -1067 730 -1070.5Q729 -1074 729 -1076Q729 -1088 746 -1095L757 -1085V-1056Q702 -993 702 -978Q702 -946 723.5 -927.5Q745 -909 768 -892Q768 -886 770 -869Q772 -852 772 -843Q772 -818 761 -780Q747 -729 745 -717Q740 -660 722 -548Q715 -527 705 -484Q695 -390 670 -202Q653 -90 653 -68Q653 -60 654 -44Q655 -28 655 -20Q655 -14 652.5 -1Q650 12 650 18V118Q650 123 647 133Q644 143 644 148Q644 153 647 159H993Q993 145 996 109Q998 77 998 58Q998 21 990 -53.5Q982 -128 982 -165Q982 -168 987 -204Q1006 -343 1006 -362Q1006 -383 1000 -423.5Q994 -464 994 -485Q994 -508 1011 -548.5Q1028 -589 1028 -612ZM273 -575L261 -1063L252 -575Q262 -576 273 -575ZM289 -491Q289 -522 252 -522Q227 -522 227 -479Q227 -457 255 -457Q289 -457 289 -491ZM997 321Q997 310 990.5 288Q984 266 984 255Q984 214 988 186H897Q913 239 913 260Q913 342 757 351V364H832Q861 364 876 361Q882 360 898.5 351.5Q915 343 920 343Q929 343 966 364H983Q997 328 997 321ZM273 -439Q266 -436 252 -432L264 205ZM718 186H648Q648 249 593 295Q542 337 476 343Q470 343 457 346V364H604Q607 364 620.5 353.5Q634 343 641 343Q648 343 660.5 354Q673 365 675 365Q673 365 694 361L699 353Q699 342 695 322Q691 302 691 292Q691 231 718 186ZM824 -1358Q809 -1355 799 -1355H785Q774 -1355 750 -1359Q775 -1394 791 -1394Q796 -1394 806 -1392.5Q816 -1391 821 -1391Q821 -1386 822.5 -1374.5Q824 -1363 824 -1358Z"/>
</svg>