<svg xmlns="http://www.w3.org/2000/svg" viewBox="0 0 775 1000">
  <g transform="scale(1,-1) translate(0,-1000)">
    <path d="M508 574Q508 582 524.0 645.0Q540 708 540 723Q540 759 526 799Q523 783 483.0 756.0Q443 729 435 729Q426 729 418.0 736.0Q410 743 410 749Q410 753 415 756Q496 794 498 827Q478 845 478 883Q478 903 491 929L490 930Q488 930 483.0 929.0Q478 928 474.0 927.0Q470 926 469 926Q467 926 463.5 925.5Q460 925 458 925Q447 925 447 935Q447 938 450.0 945.0Q453 952 453 955Q453 965 440 965H437Q420 965 420 981Q422 993 435 993H437Q461 991 475 984Q476 984 481.0 969.0Q486 954 496 954Q496 954 497 954L498 953H499L511 954Q512 955 514 957L515 959Q559 1000 600 1000Q624 1000 660 976Q695 953 707.0 924.5Q719 896 724 824Q725 807 726.0 787.5Q727 768 728 756L729 744Q729 739 725.0 734.5Q721 730 716 730Q710 730 700.5 729.0Q691 728 684.5 727.5Q678 727 677 727Q680 721 683.5 682.5Q687 644 687 621V594H688Q690 594 699.0 597.5Q708 601 715 601Q737 601 752.0 575.0Q767 549 771.0 523.5Q775 498 775 477Q775 421 744 421Q739 421 733 424L736 59Q736 52 731 47H763Q770 47 770 39V8Q770 0 763 0H7Q0 0 0 8V39Q0 47 7 47H78Q57 58 57 78Q57 92 64 99Q86 122 133.0 139.0Q180 156 194 165Q201 175 204.0 180.5Q207 186 210.5 196.0Q214 206 216.0 213.0Q218 220 224.0 242.5Q230 265 236 286Q239 296 248.5 343.5Q258 391 267.5 429.0Q277 467 283 473L299 492Q316 509 379 518L285 818Q281 720 271 532Q271 521 259 521Q258 521 166 535Q155 537 155 546Q155 546 156 548V550L264 881Q264 882 264 882H265V883Q265 897 280 897Q290 897 293 887Q407 526 407 521Q477 527 477 527Q495 539 499.0 544.5Q503 550 508 573ZM756 15V32H14V15ZM247 547 259 788 183 556ZM565 953Q599 953 617.0 938.0Q635 923 635 909Q635 894 617 880Q616 879 614 878L612 876Q614 832 614 755Q631 755 701 757Q699 767 699.0 794.0Q699 821 695.5 851.0Q692 881 683 909Q677 925 670.0 933.5Q663 942 645 954Q619 973 601 973Q572 973 548 952Q553 953 565 953ZM542 905Q556 905 556 887Q556 876 542 876Q522 876 522 887Q522 894 528.0 899.5Q534 905 542 905ZM608 909Q594 926 565 926Q546 926 516 919Q505 903 505 883V875Q505 867 507 863Q511 855 533.0 833.0Q555 811 560 800Q577 766 577 717Q577 698 566 654Q539 518 510 501Q487 488 485 488Q472 487 448.5 485.5Q425 484 415.0 483.0Q405 482 388.0 480.0Q371 478 357.0 474.0Q343 470 326 464L316 452Q303 416 283.5 322.0Q264 228 246 179Q242 168 232.0 152.5Q222 137 219 135Q198 121 156.0 107.0Q114 93 98 78Q98 78 102 76Q156 78 176 78Q200 78 258 76Q264 77 267.0 77.5Q270 78 272 78V85Q272 87 276.5 119.0Q281 151 286.0 178.5Q291 206 299.5 245.5Q308 285 322.0 324.0Q336 363 353 396Q364 415 393 415H404Q418 416 444 416Q461 416 490.0 415.0Q519 414 532 414Q575 414 597.5 419.0Q620 424 624.5 429.5Q629 435 632 446Q639 469 643.0 513.0Q647 557 648 589V621Q648 644 646.0 681.0Q644 718 644 728H601Q587 728 587 741Q587 742 586.5 773.5Q586 805 585.0 838.5Q584 872 584 877V878Q584 888 596.0 898.0Q608 908 608 909ZM701 288 699 467Q699 474 704.0 479.0Q709 484 716 484Q725 484 730 476Q731 474 733.5 470.5Q736 467 737.5 465.0Q739 463 740 461Q741 466 741 477Q741 506 732.0 536.5Q723 567 715 567Q714 567 705.0 564.0Q696 561 690 561Q686 561 684 562V546Q680 465 666.5 428.0Q653 391 614 383Q571 376 532 376Q517 376 488.5 377.0Q460 378 444 378Q418 378 405 377H390V76H494Q493 271 493 271Q493 278 498.0 283.0Q503 288 510 288ZM701 255H527L528 76H703ZM361 47Q356 52 356 59V306Q345 274 335.5 235.0Q326 196 322.0 170.0Q318 144 314.0 114.0Q310 84 310.0 82.0Q310 80 310.5 78.0Q311 76 311 75Q311 75 310.5 71.0Q310 67 309.0 63.5Q308 60 304.5 55.0Q301 50 296 47Z" fill="currentColor"/>
  </g>
</svg>