<svg xmlns="http://www.w3.org/2000/svg" viewBox="0 0 827 1000">
  <g transform="scale(1,-1) translate(0,-1000)">
    <path d="M451 931Q451 950 419.0 958.0Q387 966 359 966Q341 966 314 960Q304 958 297.0 954.5Q290 951 281.0 944.0Q272 937 266 933Q305 923 321 910Q332 904 333 903Q354 896 354 871V870V868Q354 852 338 839Q326 830 324 828Q317 820 310.5 815.0Q304 810 300.5 808.0Q297 806 294.5 802.5Q292 799 291 793Q291 745 324 687Q334 669 345.5 658.5Q357 648 374.5 636.5Q392 625 405 613Q459 565 491 549Q504 544 505 543Q507 543 518.5 545.0Q530 547 537 547H543Q552 546 571.0 545.0Q590 544 602.0 541.5Q614 539 631 533Q646 527 663.0 515.5Q680 504 687 500Q719 483 724 483H730Q737 486 737 496Q737 507 718 533L694 541Q605 572 585 581Q553 595 494.5 618.0Q436 641 395 661Q394 661 394.0 661.5Q394 662 393 662Q357 688 357 739V750Q357 753 359 757L367 774Q346 784 343 806Q343 811 343 811V813Q343 822 346.0 827.0Q349 832 366 853Q379 867 404.5 881.5Q430 896 440 908Q451 922 451 931ZM357 954Q365 954 371.5 947.5Q378 941 378.0 933.0Q378 925 361 925H357Q338 925 338 942Q338 954 357 954ZM389 746V739Q389 707 410 690Q450 670 508.0 647.5Q566 625 598 610Q619 601 633.5 595.5Q648 590 667.0 584.0Q686 578 704 571H706Q706 571 710 575L645 618Q630 631 608.5 649.5Q587 668 572.0 679.5Q557 691 534 705Q518 714 484.0 728.5Q450 743 424.5 753.0Q399 763 398 763ZM805 208Q817 208 822.0 199.0Q827 190 827 183V20Q827 12 821.0 6.0Q815 0 807.0 0.0Q799 0 793.0 6.0Q787 12 787 20V55L520 168H26Q0 168 0 187Q0 195 7.0 201.5Q14 208 25 208H151Q146 214 146 221Q146 223 149.0 229.0Q152 235 162.0 243.5Q172 252 185 253Q197 253 205 243Q215 232 215 232Q220 231 227 231Q230 231 235.5 231.5Q241 232 244 232Q250 232 280 234Q284 235 290.5 237.5Q297 240 301 241L367 439L391 582Q303 660 295 673Q272 710 265.0 734.0Q258 758 258 793V795Q258 814 274 828Q321 866 321 870Q321 872 319.5 873.0Q318 874 304 882Q290 896 245 904L130 879L31 865H28Q16 865 13 877V881Q13 893 24 896L119 923Q153 935 236 952Q241 955 255.0 965.5Q269 976 281.0 982.5Q293 989 307 992Q331 998 359 998Q441 998 469 967H501Q532 967 583.5 965.5Q635 964 656 964Q663 964 667.5 959.5Q672 955 672 949V948Q672 933 656 933H512Q510 933 507.5 932.0Q505 931 504 931Q501 930 501 928Q501 925 652 912Q666 910 666 895V894Q662 879 649 879Q648 879 647 880L470 895Q459 878 417.5 850.5Q376 823 376 811V810Q380 804 385.5 801.5Q391 799 402.0 796.5Q413 794 423 789Q438 782 481.0 765.5Q524 749 551 733Q575 719 591.5 706.0Q608 693 628.5 674.5Q649 656 666 643L814 537Q820 534 820 524Q820 508 804 508Q801 508 799 509L764 519Q766 514 768 504Q768 502 768.5 499.5Q769 497 769 496Q769 489 767.5 481.0Q766 473 755.0 462.0Q744 451 724 451Q705 451 665.5 476.0Q626 501 619 503Q604 508 594.0 510.0Q584 512 567.0 513.0Q550 514 539 515Q538 516 537 516Q533 516 525.0 513.5Q517 511 514 511L533 428Q533 428 533.5 427.0Q534 426 534 425L536 247Q538 246 541.5 243.5Q545 241 547 240Q553 240 564.5 233.5Q576 227 576 218Q576 213 572 208ZM526 208H548L539 217Q534 211 526 208ZM426 208Q421 218 419 218Q412 218 404 208ZM379 208Q372 215 372 221Q372 230 388.0 241.0Q404 252 416 252H417Q424 252 430.0 249.0Q436 246 440 242L443 239Q457 236 470 236Q475 236 483.5 236.5Q492 237 495 237Q502 237 504 236L501 422L479 518Q449 533 419 558L399 433Q399 432 398.5 432.0Q398 432 398 431L335 240Q336 238 347 235Q359 232 359 219Q359 213 354 208ZM328 208Q326 209 325 210H324Q324 210 323.0 209.0Q322 208 321 208ZM196 208Q192 213 183 213Q183 213 181.5 211.0Q180 209 179 208ZM597 168 787 88V168Z" fill="currentColor"/>
  </g>
</svg>