<svg xmlns="http://www.w3.org/2000/svg" viewBox="0 0 997 1000">
  <g transform="scale(1,-1) translate(0,-1000)">
    <path d="M0 256Q0 264 4.5 268.5Q9 273 14 274H18Q23 274 30 269L148 174H214L307 373Q314 387 330 387Q340 387 347.5 379.5Q355 372 355 362Q355 354 353 351L269 174H723L639 351Q637 354 637 362Q637 372 644.5 379.5Q652 387 662 387Q678 387 685 373L778 174H844L965 261Q969 265 976 265Q997 265 997 245V20Q997 12 991.0 6.5Q985 1 977 1L17 0Q0 0 0 22ZM957 40V206L863 138Q858 134 851 134H141Q133 134 129 138L37 212V40Z" fill="currentColor"/>
  </g>
</svg>