<svg xmlns="http://www.w3.org/2000/svg" viewBox="0 0 950 1000">
  <g transform="scale(1,-1) translate(0,-1000)">
    <path d="M325 784Q302 793 212.0 815.0Q122 837 90 865Q106 789 199 744Q208 735 208 728Q208 714 194 712Q153 706 105.0 687.5Q57 669 40 655Q56 642 104.5 623.5Q153 605 194 599Q208 597 208 582Q208 571 199 567Q105 522 90 446Q122 474 212.0 495.5Q302 517 325 527Q257 576 254 655Q254 734 325 784ZM83 795Q46 777 33 763Q58 741 107 724Q128 731 144 735Q108 759 83 795ZM359 545Q409 580 411 655Q410 730 359 765Q288 723 288.0 655.0Q288 587 359 545ZM33 548Q46 534 83 516Q107 550 144 575Q142 576 108 586Q55 568 33 548ZM52 910Q52 925 52.5 931.5Q53 938 54.5 945.5Q56 953 59.5 955.5Q63 958 70 958Q85 958 87 943Q91 903 126.5 881.0Q162 859 211.5 849.5Q261 840 310.5 826.5Q360 813 398.0 776.5Q436 740 443 678Q497 676 497 676Q577 674 612.5 672.0Q648 670 706.0 661.0Q764 652 808.0 631.0Q852 610 896 574Q950 532 950 456Q950 377 889 343Q812 299 734.0 284.0Q656 269 561 269Q538 269 491.5 270.0Q445 271 421 271Q271 271 168 241Q135 232 135 177Q135 149 146.5 125.5Q158 102 176 98Q252 84 373 84Q392 84 419.0 84.5Q446 85 471.0 85.5Q496 86 518.0 86.0Q540 86 554 86L568 87Q729 87 799 41Q809 34 809 22Q809 13 802.0 6.5Q795 0 786 0Q778 0 767.5 6.5Q757 13 742.5 21.0Q728 29 682.0 35.5Q636 42 567 42Q567 42 553.5 41.5Q540 41 518.5 40.5Q497 40 472.0 40.0Q447 40 419.5 39.5Q392 39 372 39Q253 39 168 54Q133 61 111.5 96.0Q90 131 90 177Q90 265 156 284Q269 316 420 316Q422 316 492 316L561 315Q653 315 725.0 328.5Q797 342 867 382Q905 403 905.0 456.0Q905 509 868 539Q828 571 789.5 590.0Q751 609 697.5 617.5Q644 626 610.0 628.0Q576 630 496 631Q484 631 471.5 631.5Q459 632 454 632H443Q437 580 409.0 545.5Q381 511 343.0 497.5Q305 484 261.0 472.0Q217 460 179.5 452.0Q142 444 116.0 423.0Q90 402 87 368Q85 353 70 353Q58 353 55.0 362.5Q52 372 52 401Q52 452 70 491Q68 492 65.0 493.5Q62 495 60 496Q20 515 2 541Q0 543 0 549Q0 558 20.5 574.0Q41 590 68 601Q3 629 3 655Q3 682 68 709Q66 709 50.0 717.0Q34 725 17.0 738.0Q0 751 0 761Q0 775 21.0 791.0Q42 807 60 815Q62 816 65.0 817.0Q68 818 70 819Q52 858 52 910Z" fill="currentColor"/>
  </g>
</svg>