<svg xmlns="http://www.w3.org/2000/svg" viewBox="0 -1000 1000 1000">
	<path fill="currentColor" d="M247 -161Q222 -161 188.5 -167Q155 -173 123 -190Q91 -207 70 -240.5Q49 -274 49 -329Q49 -384 70 -417Q91 -450 123 -467Q155 -484 188.5 -490Q222 -496 247 -496H911Q936 -496 969.5 -490Q1003 -484 1035 -467Q1067 -450 1088 -417Q1109 -384 1109 -329Q1109 -274 1088 -240.5Q1067 -207 1035 -190Q1003 -173 969.5 -167Q936 -161 911 -161ZM247 -181H911Q933 -181 963 -186Q993 -191 1022 -206Q1051 -221 1070 -250.5Q1089 -280 1089 -329Q1089 -377 1070 -406.5Q1051 -436 1022 -451.5Q993 -467 963 -472Q933 -477 911 -477H247Q225 -477 194.5 -472Q164 -467 135 -451.5Q106 -436 87 -406.5Q68 -377 68 -329Q68 -280 87 -250.5Q106 -221 135 -206Q164 -191 194.5 -186Q225 -181 247 -181Z"/>
</svg>