<svg xmlns="http://www.w3.org/2000/svg" viewBox="0 0 995 1000">
  <g transform="scale(1,-1) translate(0,-1000)">
    <path d="M272 395Q264 395 261 389Q239 354 231.5 325.5Q224 297 216.0 243.0Q208 189 190 128Q179 81 146 57Q140 53 86 33Q91 33 111.0 32.5Q131 32 138 32H177Q184 32 186 33Q186 38 185.5 42.5Q185 47 185 50Q185 63 216.5 151.0Q248 239 267 280Q285 319 303.0 319.0Q321 319 381 256Q386 251 395.0 241.5Q404 232 409 227Q409 227 411 228Q423 237 458 259Q460 262 478 274L320 380Q289 395 272 395ZM555 153Q585 166 665 213Q665 224 665.5 236.5Q666 249 666 252Q666 262 665.0 275.0Q664 288 664 314Q647 306 592.0 274.5Q537 243 445.0 181.5Q353 120 306 73Q302 69 302 61Q302 49 310 49Q314 49 319.5 50.5Q325 52 336.0 56.5Q347 61 358.5 65.5Q370 70 391.0 79.5Q412 89 432.5 98.5Q453 108 488.0 123.5Q523 139 555 153ZM540 898Q559 898 559 875Q559 869 553.0 864.5Q547 860 540 860Q515 860 515 875Q515 885 522.5 891.5Q530 898 540 898ZM663 369Q665 489 675.0 565.0Q685 641 714 708Q680 726 667 739Q657 749 651.0 758.0Q645 767 639.5 779.5Q634 792 630 800Q611 812 611 852Q611 856 611.5 862.5Q612 869 612 872Q612 889 592.5 901.5Q573 914 554 918L534 922Q533 922 508 917Q492 897 492 869Q492 856 495 843Q497 831 513.5 819.0Q530 807 544.5 790.5Q559 774 559 751Q559 739 554.0 728.5Q549 718 544.0 712.5Q539 707 528.5 698.0Q518 689 514 685Q519 666 531.0 624.5Q543 583 550.0 556.5Q557 530 563.5 486.5Q570 443 570 400Q570 379 568.0 360.5Q566 342 566 320Q581 326 612.5 343.5Q644 361 663 369ZM543 949Q578 944 610.0 925.0Q642 906 642 872Q642 869 641.5 861.5Q641 854 641 852Q641 843 644.5 836.5Q648 830 651.5 828.0Q655 826 664 822Q688 862 688 881Q688 915 660.5 940.0Q633 965 591 965Q565 965 543 949ZM730 634Q706 556 706 388Q706 360 708.0 307.0Q710 254 710 215V208Q712 211 715.0 217.0Q718 223 720.5 226.0Q723 229 726 230Q727 231 736.0 237.5Q745 244 747 252Q793 419 793 445Q793 456 787 480Q784 490 776.0 520.0Q768 550 764.5 562.0Q761 574 751.5 595.0Q742 616 730 634ZM720 131Q723 117 723 101Q723 45 698 9Q698 3 680 3H666Q651 3 651 25Q651 34 655.0 59.0Q659 84 659 95Q659 126 636 126Q614 126 575 103Q556 96 506.5 73.5Q457 51 407.0 32.5Q357 14 301 0Q286 3 279.5 6.0Q273 9 267.0 21.5Q261 34 261 58V79Q261 92 296.0 130.0Q331 168 384 208Q371 220 343.0 242.0Q315 264 307 271Q294 247 274.0 192.5Q254 138 239.5 95.5Q225 53 225 51Q225 47 225.5 40.5Q226 34 226 31Q226 11 209.5 5.5Q193 0 140 0H56Q47 0 39.5 1.5Q32 3 22 4Q0 6 0 30Q0 48 15 54Q40 64 69.5 68.0Q99 72 122 89Q142 103 151 138Q157 160 158 162Q164 182 179.5 270.5Q195 359 227 411Q241 435 272 435Q282 435 294.0 432.0Q306 429 316.0 425.5Q326 422 334.0 418.0Q342 414 347 411L352 408Q514 296 514.0 296.0Q514 296 524 301Q524 330 527.0 355.0Q530 380 530 400Q530 486 493 611L404 517Q399 512 393.0 512.0Q387 512 382 517L240 673Q229 686 215 686H210Q202 686 188.0 697.0Q174 708 174 714Q174 719 182 719Q185 719 193.0 716.0Q201 713 207 713Q212 713 213.5 714.5Q215 716 215 721Q215 733 201.0 752.5Q187 772 187 773Q187 780 192.5 784.5Q198 789 205 789Q213 789 221.5 779.5Q230 770 235.0 759.5Q240 749 244 738L249 728Q251 714 265 690L391 572L472 685L477 696Q484 706 496.5 717.0Q509 728 516.5 735.5Q524 743 524 751Q524 764 513.5 774.0Q503 784 490.5 791.0Q478 798 467.5 818.0Q457 838 457 869Q457 914 491 949Q539 1000 591 1000Q651 1000 687.0 963.5Q723 927 723 881Q723 868 718.5 853.0Q714 838 710.0 830.0Q706 822 695.5 805.5Q685 789 683 785Q696 761 724.5 747.0Q753 733 759 720Q760 719 775 687Q787 664 795.0 634.5Q803 605 813.5 557.5Q824 510 829 489Q837 489 853.0 489.5Q869 490 875 491V888L800 966Q794 974 794 980Q794 988 800.0 994.0Q806 1000 814.0 1000.0Q822 1000 828 994L895 924L961 992Q967 998 975.0 998.0Q983 998 989.0 992.0Q995 986 995 978Q995 972 989 964L915 887V25Q915 17 909.0 11.0Q903 5 895.0 5.0Q887 5 881.0 11.0Q875 17 875 25V451L832 449Q829 421 806.5 315.0Q784 209 776 188Q770 163 763.0 156.0Q756 149 720 131Z" fill="currentColor"/>
  </g>
</svg>