<svg xmlns="http://www.w3.org/2000/svg" viewBox="0 0 459 1000">
  <g transform="scale(1,-1) translate(0,-1000)">
    <path d="M436 739Q436 713 440.5 672.5Q445 632 445 628V598Q445 578 435 566Q428 557 419.0 554.5Q410 552 363 545Q358 532 347.5 512.5Q337 493 332.5 474.0Q328 455 328 421V403Q332 290 352.5 217.0Q373 144 428 25Q430 21 430 18Q430 11 424.5 5.5Q419 0 412 0H36Q30 0 26.0 5.5Q22 11 22 17Q22 18 24 24Q78 143 99.0 217.5Q120 292 124 405V423Q124 456 119.5 475.0Q115 494 104.5 513.5Q94 533 89 546L74 549Q69 550 60.0 551.5Q51 553 46.0 554.0Q41 555 35.0 558.0Q29 561 24 567Q14 580 14 599V629Q14 634 18.5 674.5Q23 715 23 739V749Q23 789 12.0 833.0Q1 877 0 901V916Q0 947 7.0 967.5Q14 988 23 988Q40 988 40 970Q40 970 39.0 965.0Q38 960 36.0 952.0Q34 944 32.0 934.5Q30 925 29.0 915.0Q28 905 28 898Q28 872 41 872Q57 872 59.5 891.5Q62 911 63.5 930.5Q65 950 77 950Q83 950 84 946Q88 926 88 907Q88 868 78.0 842.0Q68 816 68 784V748Q66 698 66 683Q66 674 65.5 660.0Q65 646 65 639Q65 592 84 590Q162 576 231 576Q298 576 375 590Q381 591 384.0 592.5Q387 594 390.5 605.5Q394 617 394 638Q394 645 393.5 659.0Q393 673 393 682Q393 697 391 747V784Q391 816 381.0 841.5Q371 867 371 907Q371 926 375 946Q376 950 382 950Q396 950 397.0 911.0Q398 872 418 872Q431 872 431 897Q431 905 430.0 915.0Q429 925 427.0 934.0Q425 943 423.0 951.0Q421 959 420 964L419 969Q419 988 436 988Q445 988 452.0 967.5Q459 947 459 916V900Q458 876 447.0 832.5Q436 789 436 749ZM130 540Q132 536 136.5 526.0Q141 516 143.5 511.0Q146 506 149.5 495.5Q153 485 154.5 475.5Q156 466 157.5 452.5Q159 439 159 423Q159 420 158.5 413.5Q158 407 158 403Q154 293 134.0 216.0Q114 139 67 34L385 36Q337 141 317.5 216.0Q298 291 294 401Q294 405 293.5 411.5Q293 418 293 421Q293 435 293.5 446.5Q294 458 296.5 468.5Q299 479 300.0 485.5Q301 492 305.0 502.0Q309 512 310.0 514.0Q311 516 316.5 527.0Q322 538 322 539Q278 533 230 533Q175 533 130 540Z" fill="currentColor"/>
  </g>
</svg>