<svg xmlns="http://www.w3.org/2000/svg" viewBox="0 0 481 1000">
  <g transform="scale(1,-1) translate(0,-1000)">
    <path d="M269.5 646.5Q262 651 262.0 658.0Q262 665 269.5 669.5Q277 674 285.0 674.0Q293 674 300.0 669.5Q307 665 307.0 658.0Q307 651 300.0 646.5Q293 642 285.0 642.0Q277 642 269.5 646.5ZM339 591Q339 597 355.0 627.0Q371 657 371 676Q371 677 365.0 679.5Q359 682 344.0 684.5Q329 687 310 687Q303 687 294.5 686.5Q286 686 278.5 685.5Q271 685 265.0 684.5Q259 684 255 684L251 683Q248 683 246 684Q237 664 237 649Q237 633 252 618Q255 615 278.5 607.0Q302 599 312 585Q324 567 324 546Q324 520 306 484Q292 457 274.5 443.5Q257 430 249 418Q250 416 261.0 403.5Q272 391 278 380Q285 367 285 348Q285 336 264.0 256.5Q243 177 235 177Q223 177 204.5 205.0Q186 233 155.5 274.0Q125 315 91 338Q88 341 85 341Q77 341 70.0 335.5Q63 330 63 324Q63 273 94.5 193.5Q126 114 126 82Q126 54 92 32H414Q372 61 372 98Q372 116 383.0 159.0Q394 202 394 239Q394 268 382 337L353 338Q337 338 337 354ZM431 460Q431 461 432 488V516Q432 622 413 720Q407 746 352 746Q312 746 274 718Q287 719 310 719Q352 719 386 705Q403 699 403 677Q403 658 396.0 639.5Q389 621 380.5 606.0Q372 591 371 589L369 370L434 368Q431 419 431 460ZM41 648Q46 641 58.0 625.5Q70 610 75 603L109 648Q105 648 93.5 648.5Q82 649 76.0 649.0Q70 649 58.0 648.5Q46 648 41 648ZM405 932Q405 936 403.0 943.0Q401 950 401 955Q401 956 401.5 958.5Q402 961 402 962Q392 945 380 940Q377 939 370.0 937.5Q363 936 360 935Q347 931 334 865Q335 865 339.0 863.5Q343 862 344 861Q351 862 364.0 866.0Q377 870 384 871Q403 922 405 928ZM297 768Q317 773 340 773Q397 773 428 747L454 971Q436 944 424.5 913.5Q413 883 407.5 867.5Q402 852 393 849Q393 849 357.0 840.5Q321 832 295 819V817Q295 816 294.0 807.5Q293 799 293 793Q293 779 297 768ZM0 660Q0 671 11.5 673.5Q23 676 72 676Q101 676 137 673Q150 671 150 660Q150 654 120.0 616.0Q90 578 90 574V372Q99 371 109 365Q157 333 202 265Q205 261 212.0 250.0Q219 239 223 233Q223 233 230.5 260.0Q238 287 245.5 315.5Q253 344 253 348Q253 365 235.0 385.5Q217 406 217 418Q217 428 224 438Q237 456 251.0 465.0Q265 474 277 498Q277 499 280.0 504.5Q283 510 285.5 515.5Q288 521 290.0 529.5Q292 538 292 546Q292 560 286.0 567.5Q280 575 271.0 576.0Q262 577 249.5 582.0Q237 587 227 597Q205 619 205 650Q205 714 269 753Q266 771 266 801Q266 815 267.5 821.0Q269 827 278.0 835.0Q287 843 306 850Q236 860 225 892Q223 898 223 900Q223 915 242.5 926.0Q262 937 282 937Q298 937 303 928Q314 912 314 911V908Q314 899 304.5 892.0Q295 885 285 885Q274 885 274 895Q274 901 292 908Q289 911 287 915Q286 915 284.0 915.5Q282 916 280 916Q269 916 256.5 910.5Q244 905 244 900V899L245 898Q249 892 254.5 887.5Q260 883 264.0 880.5Q268 878 275.5 876.0Q283 874 287.0 873.5Q291 873 301.0 871.5Q311 870 315 869Q326 923 331.5 934.0Q337 945 362 954Q381 963 385.0 972.0Q389 981 397 984Q409 988 413 988Q425 988 425 977Q425 972 422 965Q441 1000 455 1000Q463 1000 471.5 995.5Q480 991 480 985V984L448 737Q446 727 445 724Q464 632 464 515Q464 515 463.5 488.0Q463 461 463 460Q463 427 463.5 401.5Q464 376 465.0 364.0Q466 352 466 351Q466 335 450 335L414 336Q426 262 426 239Q426 199 415.0 155.5Q404 112 404 97Q404 77 442.5 51.5Q481 26 481 16Q481 0 465 0H26Q10 0 10 16Q10 26 23.0 33.0Q36 40 56.5 50.0Q77 60 90 73Q94 77 94 81Q94 82 93.5 83.0Q93 84 92.5 87.5Q92 91 91 97Q84 131 57.5 201.0Q31 271 31 324Q31 353 62 367Q61 573 61 573Q3 651 3 651Q0 656 0 660Z" fill="currentColor"/>
  </g>
</svg>