<svg xmlns="http://www.w3.org/2000/svg" viewBox="0 0 772 1000">
  <g transform="scale(1,-1) translate(0,-1000)">
    <path d="M716 891Q716 886 694 850Q718 826 730.0 812.0Q742 798 754.0 776.0Q766 754 771 727Q772 724 772 718Q772 692 748.0 671.0Q724 650 698 650Q677 650 666 665Q649 687 639.5 713.0Q630 739 628.0 757.0Q626 775 625 808Q621 809 586 812Q573 814 573 827Q573 833 577.5 837.5Q582 842 588 842Q588 842 589.0 842.0Q590 842 592.5 841.5Q595 841 598.5 840.5Q602 840 608.5 839.5Q615 839 623 838Q621 862 619 873L505 817Q506 811 508 793Q512 795 516 795Q530 795 535 782Q538 774 545.0 763.0Q552 752 555 743Q641 651 658.0 630.5Q675 610 676 602Q679 576 679 554Q679 541 678.0 517.0Q677 493 677 480Q677 447 680 428Q682 415 694.5 395.0Q707 375 707 360Q707 346 700.0 330.0Q693 314 681 314Q667 314 667 328Q667 332 669.0 342.0Q671 352 671 357Q671 372 665 372Q662 372 655.0 362.0Q648 352 646 352Q640 352 640 369Q640 377 643.5 395.0Q647 413 647 420Q647 437 637.0 496.0Q627 555 625 589L552 668Q537 618 528 584Q528 541 548.5 466.5Q569 392 573 357Q573 355 573.5 351.0Q574 347 574 345Q574 333 565 297V293Q573 242 573 208V198L572 73Q570 55 570 43V35Q570 19 566.0 11.0Q562 3 557.5 1.5Q553 0 544 0H457Q446 0 439.0 6.5Q432 13 432 18Q432 38 518 58L505 278H408Q404 223 378 74V70Q378 65 377.0 56.0Q376 47 376 44V36Q376 13 369.0 6.5Q362 0 337 0H266Q255 0 248.0 4.0Q241 8 239.5 11.5Q238 15 238 18Q238 41 325 59Q346 286 346 298Q346 309 366.0 373.5Q386 438 386 477Q386 546 332 629Q329 619 324.0 596.5Q319 574 312.5 556.0Q306 538 295 517Q292 512 286.0 512.0Q280 512 265.0 519.5Q250 527 248 528Q111 583 83 611L22 581Q18 579 15 579Q9 579 4.5 583.5Q0 588 0 594Q0 604 8 607L68 636Q62 648 62 655Q62 667 71.0 675.0Q80 683 92 683Q113 683 125 664L342 771Q343 776 343.5 782.0Q344 788 344.5 792.5Q345 797 345.5 800.5Q346 804 346 806V809Q338 820 326 820Q322 820 307.0 815.5Q292 811 281 811Q250 811 223.5 823.0Q197 835 197 853Q197 870 212 875Q231 881 252.0 883.0Q273 885 292 892Q298 894 320.0 911.0Q342 928 364 928Q375 927 375 927Q377 927 380.5 928.0Q384 929 390.0 934.5Q396 940 396 950V964Q396 1000 414 1000Q421 1000 433.5 993.5Q446 987 451 975Q455 993 469 993Q479 993 491.5 982.0Q504 971 504 953Q504 940 494.5 921.0Q485 902 485 894Q485 890 498 847L631 912Q635 914 638 914Q644 914 648.5 909.5Q653 905 653 899V897Q667 879 673 873Q688 898 691.5 902.0Q695 906 701.0 906.0Q707 906 711.5 901.5Q716 897 716 891ZM285 710 140 639Q145 634 148 632Q166 620 183.5 612.5Q201 605 223.0 596.5Q245 588 261 581L292 689Q285 700 285 710ZM459 795Q472 780 476 738Q478 720 480 709H483Q487 709 487 745Q487 784 483 807ZM376 745Q373 741 363 735Q363 728 365 712Q367 713 367 713Q374 726 376 745ZM483 685Q468 685 461.5 694.5Q455 704 454.5 716.5Q454 729 450.5 748.5Q447 768 439 782Q437 782 435 783L406 769Q403 761 399.0 736.0Q395 711 387.5 699.5Q380 688 364 688Q352 688 346.0 695.0Q340 702 339 722Q329 717 326 711Q327 710 332.0 701.0Q337 692 342 686Q384 627 405.0 580.5Q426 534 426 478Q426 448 420.5 421.5Q415 395 404.0 360.0Q393 325 388 306L526 305Q534 337 534 344Q534 368 511.0 452.0Q488 536 488 584Q488 613 504.0 654.5Q520 696 520 717Q520 727 511 741Q511 729 509 703Q507 685 483 685ZM380 885Q386 885 390.5 880.5Q395 876 395 871Q395 860 378 860Q363 860 363 873Q363 885 380 885ZM420 952Q420 932 408.0 920.0Q396 908 388.0 906.0Q380 904 375 904H363Q349 904 331.0 889.0Q313 874 300 870Q279 862 257.5 859.5Q236 857 221 853Q222 851 222 851Q252 835 281 835Q288 835 302.5 839.5Q317 844 326 844Q343 844 357.5 831.5Q372 819 372 801Q372 796 370 784L392 795Q403 806 418 808L477 836Q475 845 470.5 857.5Q466 870 464.0 878.0Q462 886 462 894Q462 906 471.0 925.5Q480 945 480.0 953.0Q480 961 474 966Q473 956 473 954Q471 942 463.5 927.5Q456 913 454 908Q451 900 443 900Q431 900 431 920Q431 925 431.5 933.5Q432 942 432 946Q432 967 420 973ZM698 680Q711 680 726.5 693.0Q742 706 742 719V721Q736 753 721.0 774.5Q706 796 677 825Q652 850 652 850Q653 843 653.5 836.0Q654 829 654.5 820.5Q655 812 655 807Q656 776 657.5 761.0Q659 746 666.5 724.0Q674 702 689 683Q692 680 698 680Z" fill="currentColor"/>
  </g>
</svg>