<svg xmlns="http://www.w3.org/2000/svg" viewBox="0 0 892 1000">
  <g transform="scale(1,-1) translate(0,-1000)">
    <path d="M253 233Q253 225 247.0 219.0Q241 213 233 213H40V40H639V233Q639 241 645.0 247.0Q651 253 659 253H852V862H679V664Q679 656 673.0 650.0Q667 644 659 644H466V451Q466 443 460.0 437.0Q454 431 446 431H253ZM892 20Q892 12 886.0 6.0Q880 0 872 0H659H20Q12 0 6.0 6.0Q0 12 0 20V233Q0 241 6.0 247.0Q12 253 20 253H213V451Q213 459 219.0 465.0Q225 471 233 471H426V664Q426 672 432.0 678.0Q438 684 446 684H639V882Q639 890 645.0 896.0Q651 902 659 902H872Q880 902 886.0 896.0Q892 890 892 882V233ZM679 40H852V213H679Z" fill="currentColor"/>
  </g>
</svg>