<svg xmlns="http://www.w3.org/2000/svg" viewBox="-40 -40 876 1080">
  <g transform="scale(1,-1) translate(0,-1000)">
    <path d="M793 766Q796 749 779 746Q776 745 766 745Q747 745 684 751L649 720L742 563Q749 543 749 524V514Q746 505 727 505Q724 505 702 507L587 562Q586 556 586 539Q586 533 585.0 522.0Q584 511 584 505V499L591 324L596 284L620 218L653 136Q657 125 664.0 99.5Q671 74 671 70Q671 55 657 51Q609 0 581 0H579Q554 0 549 8Q550 17 554.5 24.0Q559 31 565.5 37.5Q572 44 585.5 60.5Q599 77 614 99L537 282L396 281L357 167L314 69Q314 58 312.0 53.0Q310 48 310 37Q310 14 303.0 7.5Q296 1 271 1H269Q244 1 202.5 16.5Q161 32 161 42Q161 45 163.0 48.5Q165 52 169.0 56.0Q173 60 175 62Q183 66 194 66Q202 66 217.5 62.5Q233 59 241 59Q254 59 259 61Q308 206 340 319H341L394 492Q373 519 373 525Q373 539 401 545Q405 577 405 591V603Q405 618 386 661L243 582Q240 582 235.0 581.5Q230 581 228 581Q218 581 215 585L96 774Q89 776 78.5 779.0Q68 782 62.5 783.5Q57 785 51.0 788.0Q45 791 42.0 795.5Q39 800 39.0 807.0Q39 814 57 815Q65 816 70 816Q39 821 19.5 845.0Q0 869 0 900Q0 944 38 966V971Q38 980 44.0 986.0Q50 992 59 992H110Q119 992 125.0 986.0Q131 980 131 971Q131 967 130 965Q168 941 168 900Q168 869 148.5 845.0Q129 821 100 816Q125 812 129.0 807.0Q133 802 138 780L229 638L344 725Q372 729 389.5 741.0Q407 753 407 767Q407 798 379.5 822.0Q352 846 352 877Q352 924 390.5 962.0Q429 1000 477 1000Q528 1000 563.5 967.0Q599 934 599 887V883Q599 867 594.5 857.0Q590 847 562 798Q573 779 583.0 770.5Q593 762 619 749Q620 748 622.5 748.0Q625 748 626 747L670 784Q672 798 678 874Q680 889 695 889Q712 889 712 872Q708 865 708 817L736 841Q740 845 748 845Q765 845 765 828Q765 819 759 815L724 785Q732 784 750.5 782.5Q769 781 777 780Q791 778 793 766ZM588 606 677 569 594 665Q589 630 588 606ZM433 953Q472 948 498.0 927.0Q524 906 524 880Q524 877 523.5 870.0Q523 863 523 860Q523 849 526.0 845.0Q529 841 544 832Q567 869 567 887Q567 921 541.0 944.0Q515 967 477 967Q452 967 433 953ZM430 903Q437 903 442.0 897.0Q447 891 447 882Q447 876 442.0 871.5Q437 867 430 867Q406 867 406 882Q406 903 430 903ZM552 486 427 501 381 314 555 316ZM458 622Q458 634 467.5 642.0Q477 650 492 650Q501 650 508 646L554 685Q558 695 588 718L592 725Q560 741 547.0 752.5Q534 764 526.0 783.0Q518 802 512 812V816Q495 828 495 860Q495 863 495.5 870.0Q496 877 496 880Q496 896 476.0 908.5Q456 921 425 925Q420 925 411.0 923.5Q402 922 399 922Q385 901 385 877Q385 844 413.0 822.0Q441 800 441 767Q441 751 434.0 739.5Q427 728 406 711Q446 641 446 597V592L463 607Q458 615 458 622ZM85 845Q107 845 122.0 860.5Q137 876 137 898Q137 904 135.5 912.5Q134 921 120.5 933.0Q107 945 84.0 945.0Q61 945 47.5 932.5Q34 920 32.5 912.0Q31 904 31 898Q31 876 46.5 860.5Q62 845 85 845ZM493 587 442 543Q441 538 441 529L543 518Q543 528 545.0 552.0Q547 576 547 580Q545 579 538 579Q514 579 493 587ZM548 634 545 631Q546 630 546 630Q548 630 548 629Z" fill="currentColor"/>
  </g>
</svg>