<svg xmlns="http://www.w3.org/2000/svg" viewBox="0 0 873 1000">
  <g transform="scale(1,-1) translate(0,-1000)">
    <path d="M264 577Q264 600 278.5 625.0Q293 650 317 650Q325 650 333.0 647.5Q341 645 354.0 639.5Q367 634 373 632Q374 627 374 619Q374 609 361 607Q359 607 358 607Q337 615 317 615Q312 615 307.5 606.5Q303 598 303 583V575Q303 557 319 528Q357 464 390.0 425.0Q423 386 489 324Q521 293 569 259Q588 246 615 246Q643 246 721 265Q754 273 813 306Q767 339 729.0 369.5Q691 400 656 425Q638 438 618.0 456.5Q598 475 569.5 502.0Q541 529 525 544Q491 575 432.5 615.0Q374 655 341 683Q333 690 317.0 699.0Q301 708 291.0 718.5Q281 729 277 747Q273 760 273 776Q273 794 278.0 819.0Q283 844 283 859Q283 866 282.0 876.0Q281 886 272.5 902.5Q264 919 249 923Q221 930 198 930Q171 930 122 919Q67 906 39 876Q45 877 57 877Q92 877 130 857Q151 846 162.5 838.0Q174 830 185.5 809.0Q197 788 197 758Q197 738 195.0 726.0Q193 714 193 698Q193 672 196 660Q207 623 234.0 566.5Q261 510 273 478Q313 371 325.0 326.5Q337 282 351 188Q351 186 350.5 182.0Q350 178 350 176L386 154L448 212Q460 210 468 205L521 165L543 229Q473 270 368.5 390.5Q264 511 264 577ZM400 120Q396 116 388 116Q383 116 380 118L343 138Q342 128 333 89Q330 73 316 57L437 58L440 157ZM68 592Q68 613 103.0 661.0Q138 709 154 720Q158 742 158 757Q158 785 148.0 796.5Q138 808 110 823Q105 825 95.5 830.0Q86 835 82.0 837.0Q78 839 71.0 840.5Q64 842 57 842Q51 844 49 844Q39 844 39 834V833Q35 810 19 810Q18 810 16.0 810.5Q14 811 13 811Q1 816 1 828V837Q1 841 0.5 850.0Q0 859 0 863V871Q2 894 25.0 913.0Q48 932 79.0 942.0Q110 952 135.0 957.5Q160 963 176 964H190Q217 964 241.5 959.5Q266 955 291.0 936.5Q316 918 319 887Q321 869 321 862Q321 845 315.0 818.0Q309 791 309 779Q309 774 311 758Q314 746 321.5 740.5Q329 735 343.0 728.5Q357 722 368 713Q399 687 458.5 647.5Q518 608 554 575Q663 475 684 458Q714 434 770.0 393.0Q826 352 849.5 331.5Q873 311 873 300Q873 294 870 290Q868 286 835.0 267.5Q802 249 739.0 228.0Q676 207 619 207Q593 207 578 208Q573 190 550 127Q549 124 544.5 122.5Q540 121 536 120H531Q525 120 519 123L479 151Q480 136 480 108Q480 75 479 57L574 58Q592 66 614 67L636 59Q649 48 649 24Q649 15 644.0 7.5Q639 0 632 0Q628 0 626 1Q619 19 604 19Q594 17 588.0 14.5Q582 12 580.0 10.5Q578 9 575.0 5.5Q572 2 571 1H161Q142 13 131 13Q129 13 128 12Q127 13 125 13Q111 13 101 1Q79 9 78 31V36Q78 50 89 57Q96 65 115 65Q131 65 157 57H263Q266 61 272.5 67.0Q279 73 281.0 75.5Q283 78 286.5 82.0Q290 86 291.5 90.0Q293 94 294 99Q305 139 306 190Q306 294 234 466Q226 489 197.0 547.5Q168 606 158 650Q146 632 132.5 606.0Q119 580 111.5 568.0Q104 556 97.0 556.0Q90 556 79.0 570.0Q68 584 68 592ZM211 913Q220 913 225.5 906.0Q231 899 231 890Q231 880 224.5 873.0Q218 866 209.0 866.0Q200 866 193.0 872.0Q186 878 186 887Q186 898 193.5 905.5Q201 913 211 913Z" fill="currentColor"/>
  </g>
</svg>