<svg xmlns="http://www.w3.org/2000/svg" viewBox="0 0 565 1000">
  <g transform="scale(1,-1) translate(0,-1000)">
    <path d="M123 813Q133 806 144.5 798.0Q156 790 159 788Q183 804 197 814Q156 813 134 813ZM384 901Q401 901 412.5 912.0Q424 923 424.0 939.0Q424 955 412.0 965.0Q400 975 383 975Q367 975 356.0 965.0Q345 955 345 940Q345 924 356.5 912.5Q368 901 384 901ZM449 630V676Q449 761 433 845Q428 866 383 866Q351 866 319 843Q330 844 348 844Q385 844 412 832Q426 826 426 809Q426 793 420.0 777.5Q414 762 407.0 750.0Q400 738 399 736L397 555L451 554Q449 610 449 630ZM373 738Q373 743 386.0 767.5Q399 792 399 808Q399 809 394.0 811.0Q389 813 376.5 815.5Q364 818 348 818Q342 818 335.5 817.5Q329 817 323.0 816.5Q317 816 312.0 815.5Q307 815 304 814H300Q296 814 295 815Q288 799 288 786Q288 772 301 760Q304 757 323.0 751.0Q342 745 350 733Q360 719 360 701Q360 679 345 650Q334 627 319.5 616.0Q305 605 298 595Q299 593 308.0 583.0Q317 573 322 564Q328 553 328 537Q328 527 311.0 461.5Q294 396 287 396Q277 396 261.5 419.5Q246 443 221.0 477.0Q196 511 168 530Q166 532 163 532Q157 532 151.0 527.5Q145 523 145 518Q145 475 170.5 405.5Q196 336 196 310V308Q196 287 169 269H435Q400 295 400 323Q400 338 409.0 377.5Q418 417 418 448Q418 473 408 528L384 529Q371 529 371 542ZM328 807Q346 807 346.0 794.0Q346 781 328 781Q309 781 309.0 794.0Q309 807 328 807ZM102 199Q150 199 204.5 178.0Q259 157 289 157Q330 157 376 181Q378 181 396.5 187.0Q415 193 432.0 196.5Q449 200 464 200H467Q515 200 515 130V122L518 36L539 35L538 128V131Q538 160 525.5 188.0Q513 216 493 216H76Q29 205 29 131V35H52V130Q52 199 101 199ZM364 137Q328 120 290 120Q248 120 210 135L201 65L383 66ZM172 769V556Q177 555 185.5 550.5Q194 546 215.5 524.5Q237 503 259 469Q277 442 277.0 442.0Q277 442 283.0 464.5Q289 487 295.0 510.5Q301 534 301 537Q301 550 286.5 567.0Q272 584 272 595Q272 601 278 611Q288 625 299.5 633.5Q311 642 321 662Q334 688 334 701Q334 716 326.5 720.5Q319 725 304.5 729.0Q290 733 280 743Q262 761 262 787Q262 814 281.5 841.5Q301 869 339 884V887Q344 894 344 894Q321 915 298.0 948.0Q275 981 275 988Q275 999 284 999Q287 999 291.5 993.5Q296 988 304.5 975.0Q313 962 323 951Q328 972 345.0 986.0Q362 1000 384 1000Q407 1000 425.5 986.5Q444 973 448 951Q455 959 462.5 969.0Q470 979 473.5 985.0Q477 991 480.5 995.0Q484 999 487.0 999.0Q490 999 493.5 995.5Q497 992 497 987Q497 984 489.0 970.0Q481 956 463.5 933.5Q446 911 427 894Q432 894 432 888V884Q456 873 460 850Q476 776 476 676Q476 676 476 653L475 630Q475 603 475.5 581.5Q476 560 477.0 550.5Q478 541 478 540Q478 535 473.5 531.0Q469 527 464 527L435 528Q444 474 444 447Q444 414 435.0 375.0Q426 336 426 323Q426 306 458.0 285.0Q490 264 490 256Q490 252 489 251H493Q508 251 520.5 240.5Q533 230 539.0 219.5Q545 209 555.0 188.0Q565 167 565 131V18Q565 0 554 0H503Q491 0 491 15L489 121V123V126Q489 149 482.5 156.5Q476 164 463 164Q436 164 388 151Q399 113 399 113L412 66Q412 61 413.5 56.5Q415 52 415 48Q415 30 404 30L181 28Q170 28 170 47Q170 47 178.0 98.0Q186 149 186 151Q186 164 107 164Q94 164 87.0 156.5Q80 149 80 126V121L79 18Q79 0 68 0H11Q0 0 0 20V134Q0 173 20.5 212.0Q41 251 72 251H101Q101 252 100.5 254.0Q100 256 100 256Q100 264 110.5 269.5Q121 275 138.5 283.0Q156 291 167 302Q171 306 171 309Q171 310 170.5 310.5Q170 311 169.5 314.0Q169 317 168 322Q163 349 140.5 411.5Q118 474 118 518Q118 546 148 555V768Q95 804 78 816L76 817Q73 820 73 826Q73 837 85 837Q155 837 235 839Q240 839 243.5 835.5Q247 832 247.0 827.0Q247 822 237.5 815.0Q228 808 172 769Z" fill="currentColor"/>
  </g>
</svg>