<svg xmlns="http://www.w3.org/2000/svg" viewBox="0 0 667 1000">
  <g transform="scale(1,-1) translate(0,-1000)">
    <path d="M526 558Q526 558 526 559L525 560H497V558Q497 545 511 535Q526 546 526 558ZM434 307 467 260H554L587 307ZM28 648Q28 650 44.5 660.0Q61 670 78.5 682.5Q96 695 97 704Q95 716 95 719Q95 744 114.0 770.0Q133 796 156 803Q167 828 180.5 860.5Q194 893 203.0 913.5Q212 934 222.0 954.5Q232 975 241.0 986.0Q250 997 260 1000H264Q278 997 283.5 990.5Q289 984 290.5 974.0Q292 964 294 960Q301 965 309.5 974.5Q318 984 324.5 989.0Q331 994 338.0 994.0Q345 994 351.0 987.0Q357 980 357 970Q357 949 326.0 868.5Q295 788 289 761Q299 744 299 732Q299 722 296 713H298Q321 713 333.5 696.5Q346 680 346 654Q346 648 347 646Q356 647 378.0 648.5Q400 650 410 651L469 726Q470 739 470 743V745Q470 752 480 762L453 876L401 764Q393 761 387 761Q369 761 369 786V790L448 944Q448 948 453 953L476 990Q482 1000 493 1000Q494 1000 496.0 999.5Q498 999 499 999Q509 997 514 986Q519 977 616 700Q623 682 629 664Q630 661 630 657Q630 646 620 641L537 605Q535 604 530 604Q517 604 513 617L498 692Q494 691 492 691L486 692L442 633Q440 629 434.0 625.0Q428 621 423 619L418 617L349 602Q349 518 348.5 349.0Q348 180 348 95Q349 94 428 94H429Q447 245 449 250Q407 309 400.0 320.0Q393 331 393 337Q393 350 401.5 358.5Q410 367 423 367H443Q443 465 444 478V479Q436 483 436 489Q436 504 442.5 518.0Q449 532 459 533Q469 532 475.5 518.0Q482 504 482 489Q482 483 473 479V367H500V517Q498 519 494.5 522.0Q491 525 489 527Q476 540 476 558Q476 580 487 580H533Q544 580 544 558Q544 539 532 527Q530 525 526.0 522.0Q522 519 520 517V367H547V376Q547 390 547.5 422.0Q548 454 548 479Q548 482 543.0 484.5Q538 487 538 489Q538 504 544.5 518.0Q551 532 561 533Q571 532 577.5 518.0Q584 504 584 489Q584 486 580.5 483.5Q577 481 577 479V367H597Q610 367 618.5 358.5Q627 350 627 337V333Q626 327 571 250Q573 244 591 95H649Q665 95 667 78V18Q667 10 661.5 5.0Q656 0 649 0H18Q10 0 5.0 5.0Q0 10 0 18V78Q2 95 18 95H151Q149 97 144.5 101.0Q140 105 137.5 107.5Q135 110 132.5 115.0Q130 120 130 126Q130 127 133.5 134.5Q137 142 138 143Q141 146 153.0 149.5Q165 153 176.0 155.5Q187 158 188 158Q182 412 178 436L77 453Q66 454 66 465V467Q66 470 70.0 474.0Q74 478 76 478Q82 478 174 470Q147 632 147 633Q147 640 150.0 652.0Q153 664 153 667Q153 672 148 672Q147 672 143.5 671.5Q140 671 138 671Q132 671 121 674Q120 674 120 674L118 675Q118 675 113.5 671.0Q109 667 101.0 661.5Q93 656 84.0 650.0Q75 644 64.0 640.0Q53 636 44 636Q38 636 33.0 640.5Q28 645 28 648ZM241 861Q231 861 224.0 853.0Q217 845 217 834Q217 824 226.0 817.5Q235 811 245 811Q269 811 269.0 836.0Q269 861 241 861ZM222 765Q222 754 220.5 738.5Q219 723 219 716Q219 707 221.0 700.0Q223 693 225.5 689.0Q228 685 232.0 681.5Q236 678 238.5 677.0Q241 676 246 674L250 673V677Q250 689 257.0 708.5Q264 728 264 732Q264 739 253.5 749.0Q243 759 222 765ZM177 771Q158 771 144.0 752.0Q130 733 130 719Q130 717 132 707H145Q168 707 178.0 693.5Q188 680 188 667Q188 660 185.0 649.0Q182 638 182 633V630Q186 595 198.5 531.0Q211 467 214 421Q218 374 224 155Q224 131 187 122Q191 122 198.5 121.5Q206 121 210 121Q217 121 229.0 121.5Q241 122 246 122Q249 181 254.5 293.5Q260 406 265 488Q266 502 269.5 525.0Q273 548 273 558V568Q272 580 269.5 591.5Q267 603 262.5 617.5Q258 632 256 640Q254 641 243.0 644.0Q232 647 225.0 651.0Q218 655 208.5 663.0Q199 671 194.0 684.5Q189 698 189 716Q189 726 190.5 740.5Q192 755 192 765V770Q185 770 181 771ZM590 666 487 933 484 925 541 645ZM314 594Q311 593 308 564V557Q308 537 304.0 514.5Q300 492 299 486Q295 418 292.0 357.5Q289 297 287.5 260.5Q286 224 285.0 193.0Q284 162 283.5 146.5Q283 131 282.0 119.0Q281 107 280.0 102.5Q279 98 277 95H313ZM632 35V61H35V35ZM243 879 272 948Q269 953 267.5 959.0Q266 965 265.0 969.5Q264 974 264 975Q256 971 212 867Q224 879 239 879ZM272 870Q288 859 288 837Q327 938 331 960Q308 937 299 933ZM277 806Q266 793 247 793Q258 789 269 781Q270 785 277 806ZM217 801Q198 813 198 833Q196 827 191.0 817.5Q186 808 185 805Q205 803 217 801ZM311 643V651Q311 678 299 678Q297 678 292.5 677.5Q288 677 285 677V674Q285 670 291 642Q302 642 311 643ZM588 351H435Q420 351 420.0 337.0Q420 323 435 323H588Q602 323 602.0 337.0Q602 351 588 351ZM562 94 544 230H477L459 94Z" fill="currentColor"/>
  </g>
</svg>