<svg xmlns="http://www.w3.org/2000/svg" viewBox="0 0 1000 1000">
  <g transform="scale(1,-1) translate(0,-1000)">
    <path d="M40 664Q53 664 74.5 645.5Q96 627 100 599Q105 600 114 600Q138 600 160.5 585.5Q183 571 183 557Q183 548 175.5 545.5Q168 543 152.5 541.0Q137 539 125 534Q106 525 79.5 497.5Q53 470 32 470Q18 470 9.0 479.0Q0 488 0.0 505.0Q0 522 16.0 555.5Q32 589 32 608Q32 619 28.0 631.0Q24 643 24 647Q24 664 40 664ZM115 580Q108 580 100.0 577.0Q92 574 90 574Q83 574 81.5 579.0Q80 584 80.5 592.0Q81 600 73.0 613.5Q65 627 47 640Q52 620 52 607Q52 578 36.0 546.0Q20 514 20 506Q20 491 33 491Q35 491 41 493Q53 499 66.5 515.5Q80 532 100.5 545.5Q121 559 157 563Q130 580 115 580ZM388 817Q388 824 395.5 829.0Q403 834 412 834Q426 834 426 822Q426 814 419.5 809.0Q413 804 404 804Q388 804 388 817ZM650 292Q650 316 671.0 345.0Q692 374 692 385V392Q686 430 639.5 488.0Q593 546 589 596Q583 668 571.5 719.0Q560 770 548.0 798.5Q536 827 513.5 845.5Q491 864 473.5 871.0Q456 878 424 886Q426 865 426 865Q426 852 414 849Q370 836 283 808V791Q330 783 363.5 771.5Q397 760 411.0 751.5Q425 743 444 729Q459 717 476 707Q484 703 484 693Q484 689 476.0 676.0Q468 663 455.5 638.5Q443 614 434 587Q438 588 456.0 611.0Q474 634 485 653Q488 659 495 659Q507 659 507 647Q507 639 488.0 612.5Q469 586 456 573Q449 566 443.0 564.5Q437 563 408 559Q307 546 278 533Q285 519 299 519Q306 519 322.0 525.0Q338 531 350 533Q435 543 465 543L558 611Q560 613 565 613Q577 613 577 601Q577 594 572 591L477 521Q473 519 470 519Q462 518 420 516V505Q420 425 485 362Q511 338 542.5 320.0Q574 302 593.0 293.5Q612 285 613 281Q617 275 623 267Q640 243 640 213Q640 201 637 189H674Q675 200 675 219Q675 241 662.5 259.0Q650 277 650 292ZM922 402Q947 402 973.5 385.5Q1000 369 1000 356V20V19Q1000 11 994.0 5.5Q988 0 980 0H204Q196 0 190.0 5.5Q184 11 184 20V360Q184 374 214.0 391.0Q244 408 266 408Q294 408 315.0 395.5Q336 383 349.0 360.0Q362 337 370.5 315.0Q379 293 388.5 262.5Q398 232 406 215Q432 158 478.5 125.5Q525 93 587 93Q645 93 695.0 130.0Q745 167 775 226Q783 242 794.0 271.0Q805 300 813.5 319.5Q822 339 836.0 360.0Q850 381 871.5 391.5Q893 402 922 402ZM960 40V348Q947 362 922 362Q902 362 887.5 354.0Q873 346 863.0 329.5Q853 313 846.5 296.5Q840 280 830.0 253.5Q820 227 810 208Q776 140 717.5 96.5Q659 53 587 53Q514 53 458.0 91.5Q402 130 370 198Q360 220 344.0 271.5Q328 323 312.0 345.5Q296 368 266 368Q249 368 224 350V40ZM536 189Q550 241 553 277Q536 286 521 295Q525 269 525 253Q525 220 508 189ZM388 513Q347 509 328.0 502.0Q309 495 299 495Q277 495 265.0 509.0Q253 523 253 535Q253 565 399 582Q417 637 446 688Q434 696 425 703Q386 734 341.0 745.0Q296 756 273.5 759.5Q251 763 251 777V819Q251 832 262 835Q368 870 392 877Q391 892 390 903Q390 907 390 907Q390 923 406 923H410Q453 914 478.5 904.5Q504 895 531.5 874.0Q559 853 574.5 820.0Q590 787 602.5 732.5Q615 678 622 599Q626 558 668.0 504.0Q710 450 720 412Q730 435 774 435Q814 435 814 389Q814 363 799.5 351.0Q785 339 766 339H762Q774 310 774 294Q774 276 761 276Q749 276 749 288V294Q749 311 731 350Q725 353 719 359Q716 353 700.5 331.0Q685 309 683 294V291Q683 290 695.5 269.5Q708 249 708 218Q708 211 707.0 198.5Q706 186 706 178V173Q706 157 690 157H616Q600 157 600 173Q600 176 603.5 187.5Q607 199 607 213Q607 233 596 248Q595 249 588 261Q588 261 587.0 261.5Q586 262 585 262Q581 230 570 189Q562 165 559.0 161.0Q556 157 549 157H482Q466 157 466 173Q466 180 480 205Q493 227 493 254Q493 267 489.0 293.0Q485 319 485 320Q388 396 388 505ZM775 410Q742 410 742 397Q742 388 750 367Q760 363 766 363Q790 363 790 390Q790 410 780 410ZM245 748Q245 741 238.0 732.5Q231 724 220.0 724.0Q209 724 200.0 731.0Q191 738 191 749Q192 774 216 774Q228 774 236.5 766.5Q245 759 245 748ZM196 698Q196 691 188.5 682.5Q181 674 170.0 674.0Q159 674 150.5 681.0Q142 688 142 699Q142 702 143.0 706.0Q144 710 150.5 717.0Q157 724 168.0 724.0Q179 724 187.5 716.5Q196 709 196 698ZM154 644Q154 637 146.5 628.5Q139 620 128.0 620.0Q117 620 108.5 627.0Q100 634 100 645Q100 648 101.0 652.0Q102 656 108.5 663.0Q115 670 126.0 670.0Q137 670 145.5 662.5Q154 655 154 644Z" fill="currentColor"/>
  </g>
</svg>