<svg xmlns="http://www.w3.org/2000/svg" viewBox="0 0 1000 1000">
  <g transform="scale(1,-1) translate(0,-1000)">
    <path d="M85 893Q85 915 107 915H145V985Q145 991 149.5 995.5Q154 1000 160 1000H246Q252 1000 256.5 995.5Q261 991 261 985V915H295V985Q295 991 299.5 995.5Q304 1000 310 1000H396Q402 1000 406.5 995.5Q411 991 411 985V915H444V985Q444 991 448.5 995.5Q453 1000 459 1000H545Q551 1000 555.5 995.5Q560 991 560 985V915H594V985Q594 991 598.5 995.5Q603 1000 609 1000H695Q701 1000 705.5 995.5Q710 991 710 985V915H744V985Q744 991 748.5 995.5Q753 1000 759 1000H845Q851 1000 855.5 995.5Q860 991 860 985V915H892Q914 915 914 893V856H985Q991 856 995.5 851.5Q1000 847 1000 841V756Q1000 750 995.5 745.5Q991 741 985 741H914V707H985Q991 707 995.5 702.5Q1000 698 1000 692V607Q1000 601 995.5 596.5Q991 592 985 592H914V557H985Q991 557 995.5 552.5Q1000 548 1000 542V457Q1000 451 995.5 446.5Q991 442 985 442H914V407H985Q991 407 995.5 402.5Q1000 398 1000 392V307Q1000 301 995.5 296.5Q991 292 985 292H914V257H985Q991 257 995.5 252.5Q1000 248 1000 242V157Q1000 151 995.5 146.5Q991 142 985 142H914V107Q914 97 907.5 91.0Q901 85 891 85H861V15Q861 9 856.5 4.5Q852 0 846 0H760Q754 0 749.5 4.5Q745 9 745 15V85H711V15Q711 9 706.5 4.5Q702 0 696 0H610Q604 0 599.5 4.5Q595 9 595 15V85H561V15Q561 9 556.5 4.5Q552 0 546 0H460Q454 0 449.5 4.5Q445 9 445 15V85H412V15Q412 9 407.5 4.5Q403 0 397 0H311Q305 0 300.5 4.5Q296 9 296 15V85H262V15Q262 9 257.5 4.5Q253 0 247 0H161Q155 0 150.5 4.5Q146 9 146 15V85H106Q84 85 84 107V142H15Q9 142 4.5 146.5Q0 151 0 157V242Q0 248 4.5 252.5Q9 257 15 257H84V292H15Q9 292 4.5 296.5Q0 301 0 307V392Q0 398 4.5 402.5Q9 407 15 407H84V442H15Q9 442 4.5 446.5Q0 451 0 457V542Q0 548 4.5 552.5Q9 557 15 557H85V592H15Q9 592 4.5 596.5Q0 601 0 607V692Q0 698 4.5 702.5Q9 707 15 707H85V741H15Q9 741 4.5 745.5Q0 750 0 756V841Q0 847 4.5 851.5Q9 856 15 856H85ZM870 477H732V129H870ZM870 522V871H129V129H688V499Q688 509 694.0 515.5Q700 522 710 522ZM176 30H232V85H176ZM326 30H382V85H326ZM475 30H531V85H475ZM625 30H681V85H625ZM775 30H831V85H775ZM231 915V970H175V915ZM325 915H381V970H325ZM474 915H530V970H474ZM624 915H680V970H624ZM774 915H830V970H774ZM914 826V771H970V826ZM914 677V622H970V677ZM914 527V472H970V527ZM914 377V322H970V377ZM914 227V172H970V227ZM85 826H30V771H85ZM85 677H30V622H85ZM85 527H30V472H84ZM84 377H30V322H84ZM84 227H30V172H84Z" fill="currentColor"/>
  </g>
</svg>