<svg xmlns="http://www.w3.org/2000/svg" viewBox="0 0 1000 1000">
  <g transform="scale(1,-1) translate(0,-1000)">
    <path d="M207 450Q228 450 239.5 441.5Q251 433 254.5 423.5Q258 414 264.0 405.5Q270 397 280 397H286Q286 401 286.5 407.0Q287 413 287 416Q287 445 272.5 461.5Q258 478 247.0 480.5Q236 483 226 483Q181 483 163 440Q185 450 207 450ZM182 368Q177 368 174.5 372.0Q172 376 172 380L171 384Q171 391 176.0 396.5Q181 402 187.0 402.0Q193 402 197.0 397.0Q201 392 201 387Q201 380 195.0 374.0Q189 368 182 368ZM48 365Q48 369 42.5 391.0Q37 413 37 419Q37 429 43 429H44Q58 429 68.0 409.5Q78 390 78 377Q78 372 77.0 362.0Q76 352 76.0 348.0Q76 344 78 336Q84 316 89.0 301.0Q94 286 100.0 273.5Q106 261 109.0 255.0Q112 249 119.5 235.5Q127 222 130 216Q134 207 143 207Q148 207 156 213Q174 228 184.0 238.0Q194 248 207.0 263.0Q220 278 231 290Q231 290 223 298Q214 306 199 306H189Q159 306 142.5 335.0Q126 364 126 395Q126 444 154.5 478.5Q183 513 225 513Q250 513 270.5 499.5Q291 486 302 464Q313 443 315 403Q321 405 325 405Q372 411 409 411Q524 411 668 346Q684 339 697.5 321.0Q711 303 718 299Q730 291 743.5 287.0Q757 283 774.5 278.5Q792 274 804 270Q814 267 825.0 262.5Q836 258 841 256Q947 221 973.5 207.0Q1000 193 1000 167Q998 141 998 141Q995 52 974 29Q970 24 956.5 17.0Q943 10 931.5 5.0Q920 0 919 0Q902 0 902 20Q902 29 911.5 61.0Q921 93 921 98Q921 124 876 135Q871 137 815.5 156.5Q760 176 707 188Q707 188 695.0 191.0Q683 194 668.5 197.0Q654 200 647 200Q620 200 592 175Q626 189 665 189Q712 189 742.5 167.0Q773 145 773 116Q773 94 745 59Q716 20 703.5 10.0Q691 0 665 0H660Q653 0 648.0 7.0Q643 14 643 23Q643 36 658.5 63.0Q674 90 674 102Q674 103 674 105L673 107Q647 104 607 85Q579 73 569 68Q566 67 523.5 45.5Q481 24 460 24Q453 24 444.5 26.5Q436 29 425.0 44.0Q414 59 414 86V93Q424 117 445.0 150.0Q466 183 477 194Q521 232 521 252Q498 257 473 257Q473 257 464.5 256.5Q456 256 442.5 255.5Q429 255 413.5 254.5Q398 254 380.0 253.5Q362 253 348 253H335Q325 237 284.5 171.5Q244 106 233 88Q223 71 207.0 60.5Q191 50 103 2Q100 0 96.0 0.0Q92 0 81.0 5.5Q70 11 58 11Q52 11 35.5 5.5Q19 0 5 0Q0 7 0 17Q0 23 8.0 32.5Q16 42 22 42Q27 42 41.0 45.0Q55 48 65 48Q68 48 75.5 47.0Q83 46 87 46Q96 46 104 51L196 103L284 259Q280 260 272 264Q234 218 211.0 197.5Q188 177 134 142Q130 140 128 140Q119 140 109.0 150.5Q99 161 95 173Q56 289 55 294Q53 300 47.5 308.5Q42 317 40 321V324Q40 325 44.0 337.5Q48 350 48 365ZM208 333Q228 333 262.5 311.0Q297 289 336 289H355Q376 289 414.5 293.0Q453 297 473 297Q524 297 540.5 286.5Q557 276 557 252Q557 226 530.0 196.0Q503 166 476.0 137.5Q449 109 449 86Q449 64 461 64Q461 64 461.5 64.5Q462 65 464 65Q485 68 514.5 84.5Q544 101 557 106Q562 108 593 122Q641 144 674 147H676Q691 147 700.0 134.0Q709 121 709 102Q709 79 695 55Q695 55 696 56Q698 57 699 58Q703 64 710.0 72.5Q717 81 721.0 86.0Q725 91 729.5 97.0Q734 103 736.0 108.0Q738 113 738 116Q738 121 730.5 128.0Q723 135 705.5 142.0Q688 149 665 149Q626 149 572.0 123.0Q518 97 514 97Q507 97 501.5 103.0Q496 109 496 117Q496 127 502 133Q518 148 538 171Q555 192 566.5 203.5Q578 215 601.0 227.5Q624 240 648.0 240.0Q672 240 731.5 223.0Q791 206 836.0 190.5Q881 175 885 173Q903 168 911.5 164.5Q920 161 932.0 150.5Q944 140 951 124Q957 110 957 99V93Q964 117 964 165V167Q951 173 929.0 182.0Q907 191 884.5 199.5Q862 208 841.0 215.0Q820 222 806 227L793 232Q783 236 764.5 240.0Q746 244 730.5 249.5Q715 255 700 265Q682 277 673.0 290.5Q664 304 655 308Q612 327 585.0 337.5Q558 348 507.5 359.5Q457 371 409 371Q367 371 331 366Q322 366 312.0 367.5Q302 369 295.0 370.0Q288 371 282.0 372.5Q276 374 272 375L269 376L268 377Q254 381 246.5 389.5Q239 398 237.0 405.5Q235 413 228.0 419.0Q221 425 208 425Q200 425 190.0 422.5Q180 420 174 418L168 416Q163 413 151 401V395Q151 373 162.5 352.5Q174 332 192 332Q194 332 199.5 332.5Q205 333 208 333Z" fill="currentColor"/>
  </g>
</svg>