<svg xmlns="http://www.w3.org/2000/svg" viewBox="0 0 718 1000">
  <g transform="scale(1,-1) translate(0,-1000)">
    <path d="M0 26Q0 31 58 385Q51 392 51 400Q51 410 64 419L122 777Q125 794 142 794Q150 794 156.0 788.0Q162 782 162 774Q162 773 158.0 750.5Q154 728 140.0 642.5Q126 557 108 444Q116 444 120 446Q145 458 164.5 473.0Q184 488 206.5 509.5Q229 531 246 544L296 700V702Q296 713 308 723L358 765Q366 771 372.0 774.0Q378 777 383.0 778.5Q388 780 390 781Q389 786 388.5 791.5Q388 797 388.0 800.5Q388 804 386.5 808.0Q385 812 382 816Q377 822 358.0 829.5Q339 837 324.5 849.0Q310 861 310 883Q310 904 327.0 941.0Q344 978 378 988Q416 1000 445 1000Q482 1000 508 979Q547 952 560.5 923.5Q574 895 583 842L614 659V655Q614 653 601 650L629 574V568Q629 547 631.0 514.0Q633 481 633 465Q633 454 631 428Q639 398 640 383H703Q709 383 713.5 378.5Q718 374 718.0 368.0Q718 362 713.5 357.5Q709 353 703 353H639Q633 332 612 328Q599 328 594 353H564Q579 225 579 169Q579 161 571 97Q573 91 573 67Q573 64 572.0 59.0Q571 54 571 41V33Q571 11 565.0 5.5Q559 0 546 0H458Q454 0 447.0 5.5Q440 11 439 18Q439 23 466.5 35.0Q494 47 530 58Q530 62 529.5 68.5Q529 75 529 77Q529 84 536 135Q412 110 354 102Q353 92 351.5 81.0Q350 70 348.0 57.5Q346 45 345 37V34Q345 12 338.5 6.0Q332 0 307 0H239Q212 0 212 18Q212 32 311 65Q310 67 310.0 71.0Q310 75 311.0 83.5Q312 92 315.5 115.0Q319 138 322 162Q326 195 328.0 226.0Q330 257 330.0 297.0Q330 337 331 352H225Q253 130 253 129Q253 123 248.5 118.5Q244 114 238 114H181Q175 114 170.5 118.5Q166 123 166 129Q166 130 193 371Q195 384 208 384Q212 384 216 382H333Q337 435 349.5 489.0Q362 543 362 567Q362 602 334 648L288 531Q275 505 268 500Q246 484 227.5 472.0Q209 460 179.0 443.0Q149 426 136 418Q128 413 116.5 404.0Q105 395 100 392L40 23Q37 6 20 6Q12 6 6.0 12.0Q0 18 0 26ZM392 917Q414 917 414 903Q414 887 394 887Q386 887 380.0 892.0Q374 897 374 904Q374 917 392 917ZM469 941Q483 922 488.0 895.5Q493 869 493 790Q493 760 489 672L572 684L545 832Q542 844 538.5 863.5Q535 883 533.5 889.5Q532 896 528.0 907.5Q524 919 517.5 927.5Q511 936 501 946Q478 967 435 967Q419 967 407 962Q408 961 436.5 953.5Q465 946 469 941ZM402 567Q402 533 389.5 483.5Q377 434 373 382L520 383Q519 393 516.5 413.0Q514 433 512 444Q508 477 505.5 506.5Q503 536 501.5 573.0Q500 610 498 633L475 629H469Q456 629 455 641L463 790Q463 870 459.5 891.5Q456 913 445 923Q437 928 427.0 931.0Q417 934 400.5 937.0Q384 940 375 942Q364 937 356.5 917.5Q349 898 349 886Q349 875 375.5 865.5Q402 856 414 840Q420 832 424.5 815.0Q429 798 430.5 787.5Q432 777 432 774Q432 764 423.0 756.0Q414 748 399.0 741.0Q384 734 382 733L345 702Q349 694 367.5 665.5Q386 637 394.0 615.0Q402 593 402 567ZM538 638Q540 615 541.5 577.0Q543 539 545.5 511.0Q548 483 552 450Q554 439 556.5 416.0Q559 393 560 383H591V402Q596 416 596 446L590 560L554 642Q540 640 538 638ZM221 144 209 242 198 144ZM371 352Q370 332 369.5 295.0Q369 258 367.5 224.5Q366 191 362 156L359 133L539 166V169Q539 224 524 353Z" fill="currentColor"/>
  </g>
</svg>