<svg xmlns="http://www.w3.org/2000/svg" viewBox="0 0 984 1000">
  <g transform="scale(1,-1) translate(0,-1000)">
    <path d="M787 435Q787 482 781.5 531.5Q776 581 768.0 618.5Q760 656 752.0 686.0Q744 716 738 733L733 750Q733 758 739.0 764.0Q745 770 753 770Q767 770 772 756Q827 591 827 435Q827 346 808 253H826Q844 357 844 440Q844 480 840.5 515.0Q837 550 833.5 568.5Q830 587 830 588Q830 596 836.0 602.0Q842 608 850 608Q866 608 870 592Q884 525 884 440Q884 352 867 253H875Q925 250 954.5 214.0Q984 178 984 125V123Q983 72 953.5 36.5Q924 1 872 0H111Q61 4 31.5 42.5Q2 81 0 133V138Q0 188 28.0 222.5Q56 257 100 257H107Q124 345 124 440Q124 480 120.5 515.0Q117 550 113.5 568.5Q110 587 110 588Q110 596 116.0 602.0Q122 608 130 608Q146 608 150 592Q164 525 164 440Q164 353 147 257H168Q187 349 187 435Q187 482 181.5 531.5Q176 581 168.0 618.5Q160 656 152.0 686.0Q144 716 138 733L133 750Q133 758 139.0 764.0Q145 770 153 770Q167 770 172 756Q227 591 227 435Q227 343 209 256H227Q244 344 244 440Q244 480 240.5 515.0Q237 550 233.5 568.5Q230 587 230 588Q230 596 236.0 602.0Q242 608 250 608Q266 608 270 592Q284 525 284 440Q284 353 267 256H288Q307 348 307 435Q307 482 301.5 531.5Q296 581 288.0 618.5Q280 656 272.0 686.0Q264 716 258 733L253 750Q253 758 259.0 764.0Q265 770 273 770Q287 770 292 756Q347 591 347 435Q347 343 329 256H347Q364 358 364 440Q364 480 360.5 515.0Q357 550 353.5 568.5Q350 587 350 588Q350 596 356.0 602.0Q362 608 370 608Q386 608 390 592Q404 525 404 440Q404 352 387 255H408Q427 347 427 435Q427 482 421.5 531.5Q416 581 408.0 618.5Q400 656 392.0 686.0Q384 716 378 733L373 750Q373 758 379.0 764.0Q385 770 393 770Q407 770 412 756Q467 591 467 435Q467 344 449 255H466Q484 363 484 440Q484 480 480.5 515.0Q477 550 473.5 568.5Q470 587 470 588Q470 596 476.0 602.0Q482 608 490 608Q506 608 510 592Q524 525 524 440Q524 352 507 255H528Q547 344 547 435Q547 482 541.5 531.5Q536 581 528.0 618.5Q520 656 512.0 686.0Q504 716 498 733L493 750Q493 758 499.0 764.0Q505 770 513 770Q527 770 532 756Q587 591 587 435Q587 343 569 255L586 254Q604 362 604 440Q604 480 600.5 515.0Q597 550 593.5 568.5Q590 587 590 588Q590 596 596.0 602.0Q602 608 610 608Q626 608 630 592Q644 525 644 440Q644 351 627 254H648Q667 343 667 435Q667 482 661.5 531.5Q656 581 648.0 618.5Q640 656 632.0 686.0Q624 716 618 733L613 750Q613 758 619.0 764.0Q625 770 633 770Q647 770 652 756Q707 591 707 435Q707 347 688 254H706Q724 358 724 440Q724 480 720.5 515.0Q717 550 713.5 568.5Q710 587 710 588Q710 596 716.0 602.0Q722 608 730 608Q746 608 750 592Q764 525 764 440Q764 353 747 254H767Q787 344 787 435ZM944 124V125Q944 163 925.5 187.0Q907 211 873 213Q342 215 104 217H101Q74 217 57.0 194.0Q40 171 40 138V134Q42 95 61.0 68.5Q80 42 113 40H872Q905 41 924.0 64.0Q943 87 944 124Z" fill="currentColor"/>
  </g>
</svg>