<svg xmlns="http://www.w3.org/2000/svg" viewBox="0 0 1000 1000">
  <g transform="scale(1,-1) translate(0,-1000)">
    <path d="M498 813Q503 795 503 792Q503 780 494 748Q487 727 466 712Q450 701 444 688Q438 677 433 668Q428 660 426 646Q425 640 425 637Q506 636 567 636Q567 670 537 778Q534 789 525 798Q514 808 498 813ZM381 778Q388 778 388 769Q388 762 381 762Q378 762 372.0 761.5Q366 761 364 761Q367 758 385 736Q397 720 420 709L428 705Q430 708 439 717Q443 721 452.0 728.0Q461 735 464 738Q472 746 474 755Q481 777 481 792Q481 796 475 817H464Q426 817 379 786Q377 784 372.5 781.0Q368 778 365 777Q381 778 381 778ZM428 798Q443 798 443.0 788.0Q443 778 428 778Q414 778 414.0 788.0Q414 798 428 798ZM542 442 430 411 366 259 547 258ZM576 835 577 950Q573 954 567 954Q558 952 555.0 946.0Q552 940 548.5 928.0Q545 916 538 906Q529 887 508 872Q491 860 471 857H462H461Q428 857 407 885Q396 899 392 905Q387 913 383.0 927.5Q379 942 374.5 949.0Q370 956 361 956Q357 956 351 950V836ZM342 821Q336 821 336 827V953Q336 957 338 958Q355 968 361 968Q375 968 381.0 959.5Q387 951 391 934Q392 931 392 930Q393 959 414.0 979.5Q435 1000 464.0 1000.0Q493 1000 513.5 978.0Q534 956 535 926Q536 929 539.0 939.5Q542 950 544.0 953.5Q546 957 552.0 961.5Q558 966 567 966Q572 966 578.0 963.5Q584 961 587.0 958.5Q590 956 590 955Q592 953 592 952L591 827Q591 820 584 820H520Q527 814 532.5 815.0Q538 816 540 814Q550 804 557 783Q575 722 585 662Q592 657 598.5 653.0Q605 649 609 647L613 645L707 556L845 564Q846 566 854.5 578.0Q863 590 867 598Q861 609 845.0 630.5Q829 652 821.0 670.5Q813 689 813 713V716Q814 756 836.0 778.0Q858 800 889 800Q921 800 944.5 776.5Q968 753 968 711Q968 688 960.5 669.5Q953 651 937.0 629.0Q921 607 915 596Q919 587 930.0 571.0Q941 555 947.0 540.5Q953 526 954 506V501Q954 482 948.0 467.0Q942 452 929.0 434.0Q916 416 912 408Q916 399 930.0 378.0Q944 357 950.0 341.0Q956 325 956.0 304.0Q956 283 949.5 266.0Q943 249 929.5 228.5Q916 208 912 199L998 28Q1000 25 1000 19Q1000 9 991 3Q985 1 982 1Q971 1 966 11L890 163L812 10Q808 1 796 1Q790 1 788 2Q778 7 778 18Q778 22 781 27L870 201Q866 210 852.5 230.5Q839 251 832.5 268.0Q826 285 826 306V307Q826 328 832.0 344.0Q838 360 850.5 380.5Q863 401 868 410Q864 418 852.0 436.0Q840 454 834.0 469.5Q828 485 828 504V508Q828 510 831 528Q736 514 694 514H693L584 600Q571 586 571 528V517Q571 510 570.5 490.5Q570 471 570 462V461Q572 424 572 424Q572 421 580 260V249Q586 198 586 167V158V68Q584 52 584 40V33Q584 12 578.5 6.5Q573 1 560 1Q531 1 506.5 1.5Q482 2 481 2Q474 2 473 1Q472 2 466.0 6.5Q460 11 459 18Q459 36 537 54L525 231H437Q436 218 433.5 200.0Q431 182 429.0 169.0Q427 156 427 154L428 153L409 68V64Q409 60 408.0 51.5Q407 43 407 40V33Q407 12 401.0 6.0Q395 0 372 0Q366 0 347.0 0.5Q328 1 313 1H307Q282 1 282 18Q282 21 288.0 26.0Q294 31 295 33Q318 44 361 54L377 232L320 231L400 403L408 450Q411 472 411 520Q411 538 408.5 547.5Q406 557 401.0 566.5Q396 576 393 584L301 509H300Q261 509 169 523Q172 505 172 503V498Q172 479 166.0 464.0Q160 449 147.5 430.5Q135 412 131 405Q135 397 148.5 376.0Q162 355 168.0 339.0Q174 323 174 302V301Q174 280 167.5 263.0Q161 246 147.5 225.5Q134 205 130 196L218 27Q221 22 221 18Q221 9 211 2Q205 0 202 0Q191 0 186 10L108 160L33 10Q28 1 17 1Q11 1 9 2Q0 6 0 18Q0 24 2 27L88 198Q84 207 70.5 227.5Q57 248 50.5 265.0Q44 282 44 303V304Q44 325 50.5 341.0Q57 357 69.5 377.0Q82 397 87 407Q83 415 71.0 433.0Q59 451 52.5 466.5Q46 482 46 501V505Q47 525 52.5 539.5Q58 554 69.5 571.0Q81 588 85 595Q79 606 63.0 628.0Q47 650 39.5 668.0Q32 686 32 710V714Q33 754 55.0 775.5Q77 797 108 797Q140 797 163.5 773.5Q187 750 187 708Q187 685 179.0 666.5Q171 648 155.0 626.0Q139 604 133 593Q136 586 154 558L287 551L384 641Q390 645 406 658Q407 661 418 685Q390 699 380 709Q376 713 367.0 724.5Q358 736 352 742Q343 751 332.5 756.0Q322 761 321 762Q318 765 318 769Q318 776 324 779Q337 785 367 804Q370 806 380.0 812.0Q390 818 395 821ZM411 929Q411 900 434 884Q447 875 462 875Q484 875 500.5 889.5Q517 904 517 925Q517 949 502.0 965.5Q487 982 465.0 982.0Q443 982 427.0 966.5Q411 951 411 929ZM108 371Q106 367 99.5 358.0Q93 349 91.0 345.0Q89 341 85.5 333.5Q82 326 81.0 319.0Q80 312 80 304V303Q80 293 83.0 283.0Q86 273 89.0 267.5Q92 262 99.5 250.5Q107 239 110 234Q112 237 118.0 246.5Q124 256 126.0 260.0Q128 264 131.5 271.5Q135 279 136.5 286.5Q138 294 138 302Q138 313 135.0 322.5Q132 332 129.0 337.5Q126 343 119.0 354.0Q112 365 108 371ZM68 710Q68 698 72.0 686.0Q76 674 81.0 666.5Q86 659 95.5 645.5Q105 632 110 624Q115 631 124.0 644.5Q133 658 138.0 665.0Q143 672 147.0 684.0Q151 696 151 708V710Q150 734 137.5 747.5Q125 761 108 761Q92 761 80.0 747.5Q68 734 68 710ZM890 374Q888 370 881.5 361.0Q875 352 873.0 348.0Q871 344 867.5 336.5Q864 329 863.0 322.0Q862 315 862 307V306Q862 296 865.0 285.5Q868 275 870.5 270.0Q873 265 881.5 252.5Q890 240 892 236Q894 239 900.0 248.5Q906 258 908.0 262.0Q910 266 913.5 273.5Q917 281 918.5 288.5Q920 296 920 304Q920 315 917.0 324.5Q914 334 911.0 340.0Q908 346 900.5 357.0Q893 368 890 374ZM849 713Q849 701 853.5 689.0Q858 677 863.0 669.5Q868 662 877.5 648.5Q887 635 892 627Q896 634 905.5 647.5Q915 661 919.5 668.0Q924 675 928.0 687.0Q932 699 932 711V713Q931 737 918.5 750.5Q906 764 889 764Q873 764 861.0 750.5Q849 737 849 713ZM549 615Q537 615 505.0 615.5Q473 616 446 616H418Q447 563 447 525V520Q447 463 445 444L532 470Q532 479 533.5 494.5Q535 510 535 517Q535 596 549 615ZM132 525 125 523Q109 530 100 552Q82 526 82 501Q86 476 110 439Q136 478 136 499V502Q136 516 132 525ZM896 559Q887 535 870 528H868Q864 519 864 504Q868 479 892 442Q918 481 918 502V504Q917 529 896 559Z" fill="currentColor"/>
  </g>
</svg>