<svg xmlns="http://www.w3.org/2000/svg" viewBox="0 0 1000 1000">
  <g transform="scale(1,-1) translate(0,-1000)">
    <path d="M788 948Q808 945 827.5 937.0Q847 929 866.0 910.5Q885 892 885 867Q885 864 884.5 856.0Q884 848 884 846Q884 836 887.5 829.5Q891 823 894.5 821.0Q898 819 907 815Q930 855 930 876Q930 911 903.0 937.5Q876 964 835 964Q810 964 788 948ZM935 699Q911 725 895.5 749.5Q880 774 876 786L873 797Q855 808 855 846Q855 850 855.5 857.0Q856 864 856 867Q856 885 837.0 897.5Q818 910 798 914L779 918Q779 918 754 913Q738 893 738 863Q738 850 741 837Q743 825 759.0 812.5Q775 800 789.5 783.0Q804 766 804 742Q804 732 802.5 724.0Q801 716 796.5 708.5Q792 701 789.5 698.0Q787 695 778.5 687.0Q770 679 768 676Q776 642 787 599Q878 652 909 677Q921 687 935 699ZM785 893Q804 893 804 870Q804 863 798.0 858.5Q792 854 785 854Q761 854 761 870Q761 880 768.0 886.5Q775 893 785 893ZM777 84Q844 84 899 69Q901 147 901 275Q881 267 846.5 254.0Q812 241 786.0 229.5Q760 218 731 203Q721 198 690.0 181.5Q659 165 649.5 159.5Q640 154 618.5 141.0Q597 128 581.0 115.0Q565 102 547 85Q546 84 546.0 81.0Q546 78 547.5 69.5Q549 61 549 57Q701 84 777 84ZM577 379V334Q577 301 581.0 250.0Q585 199 586 168Q604 181 622.5 192.0Q641 203 671.0 218.5Q701 234 714 241L727 248L584 383H583Q579 383 577 379ZM753 582 747 603 721 578 725 567ZM924 594 800 535Q810 485 810 408Q810 385 807.5 344.0Q805 303 805 282Q815 286 848.0 298.5Q881 311 902 320Q903 477 924 594ZM516 841Q565 841 628 827V856Q574 844 524 844H516Q500 844 449.0 855.5Q398 867 379 867Q376 867 368.5 865.5Q361 864 352.5 858.5Q344 853 344 845V844Q345 831 358.0 825.5Q371 820 379 820Q407 820 452.5 830.5Q498 841 516 841ZM548 864Q557 864 580.5 869.5Q604 875 623.0 880.0Q642 885 643 886Q651 886 651 877V807Q651 798 644 798Q644 798 643 798L642 799Q640 799 634.0 800.5Q628 802 626 803Q634 793 634 791Q637 768 640 764Q648 749 648 749L693 641L727 680Q739 698 739 698H740Q744 702 752.0 710.5Q760 719 762.5 722.0Q765 725 767.5 730.5Q770 736 770 742Q770 755 759.5 765.0Q749 775 737.0 782.5Q725 790 714.5 810.5Q704 831 704 863Q704 912 737 948Q782 1000 835 1000Q894 1000 929.5 961.5Q965 923 965 876Q965 862 960.5 846.5Q956 831 952.5 824.0Q949 817 938.0 798.0Q927 779 926 777Q936 757 958.0 732.0Q980 707 980 691Q980 690 980.5 686.0Q981 682 981 678Q981 652 971 616L963 584Q957 557 953.0 519.0Q949 481 946.5 424.0Q944 367 943.0 325.0Q942 283 940.5 201.5Q939 120 938 79Q942 59 961 45Q964 44 973.0 42.5Q982 41 984.5 40.0Q987 39 992.0 36.5Q997 34 998.5 30.0Q1000 26 1000 20Q1000 0 981 0Q977 0 945.5 8.0Q914 16 866.0 23.5Q818 31 775 31Q754 31 630.0 19.5Q506 8 469 2H466Q458 2 452.0 7.5Q446 13 446 22Q446 27 447.5 30.5Q449 34 452.0 36.5Q455 39 458.5 40.5Q462 42 468.5 43.5Q475 45 480.0 46.0Q485 47 494.5 48.5Q504 50 511 51Q511 54 509.5 59.5Q508 65 507.5 70.5Q507 76 507 81Q507 98 514.5 107.5Q522 117 548 140Q548 182 542.5 239.0Q537 296 537 334Q537 357 538 370Q537 373 537 379Q537 399 551.0 411.5Q565 424 583 424Q598 424 606 416L765 268Q766 267 766 267Q766 297 768.5 342.5Q771 388 771 408V442Q771 484 765 522L737 511Q728 505 727 505Q719 505 716 511L696 557L639 504Q634 499 629 499Q620 499 618 504L506 730Q493 746 488 746Q487 746 484 748L480 751Q473 751 460.5 772.5Q448 794 448 801V803Q431 801 411.0 795.5Q391 790 382 790Q380 790 375.5 790.5Q371 791 360.0 793.5Q349 796 340.5 800.0Q332 804 324.0 813.0Q316 822 314 834H289V784Q289 781 281.5 777.5Q274 774 269 774Q249 774 249 781V802Q210 770 204 766Q193 758 184.0 735.0Q175 712 164.0 699.0Q153 686 136.0 676.5Q119 667 110.0 658.0Q101 649 101 630V609Q101 575 77.5 548.0Q54 521 54 501Q54 491 60.0 468.5Q66 446 66 432Q66 413 53.5 384.0Q41 355 41 345V344Q41 336 52.5 319.0Q64 302 64.0 284.0Q64 266 49.5 244.5Q35 223 35 214Q35 202 47.5 179.0Q60 156 61 138L62 135Q62 120 51.5 100.0Q41 80 41 71Q41 63 49.5 45.5Q58 28 58 24Q58 17 52.0 12.0Q46 7 40 7Q26 7 23 19Q22 21 14.0 38.5Q6 56 6 71V73Q7 87 17.0 106.5Q27 126 27 135L26 136Q26 147 13.0 170.5Q0 194 0 214Q1 234 14.5 253.5Q28 273 28 283V284Q28 292 17.0 309.0Q6 326 6 344V345Q7 364 18.5 390.0Q30 416 31 427V432Q31 442 25.0 465.5Q19 489 19 501Q19 531 42.5 559.5Q66 588 66 609V630Q66 656 78.5 672.5Q91 689 110.5 701.0Q130 713 136 720Q141 726 153.5 752.5Q166 779 184.0 792.0Q202 805 222.5 822.0Q243 839 249 843V899Q249 902 256.5 905.5Q264 909 269.0 909.0Q274 909 281.5 906.0Q289 903 289 900V853H314Q323 894 382 894Q388 894 455.0 879.0Q522 864 548 864ZM505 807Q514 792 515.5 782.5Q517 773 531 748L627 561L672 616L624 731Q618 741 603 745Q602 745 598.0 748.0Q594 751 593 751Q586 751 568.0 776.5Q550 802 550.0 809.0Q550 816 557 816H575Q550 821 545 821Q536 821 494 814Q505 807 505 807Z" fill="currentColor"/>
  </g>
</svg>