<svg xmlns="http://www.w3.org/2000/svg" viewBox="0 0 596 1000">
  <g transform="scale(1,-1) translate(0,-1000)">
    <path d="M304 717Q324 717 324 704Q324 689 306 689Q299 689 293.5 693.5Q288 698 288 705Q288 717 304 717ZM268 539Q271 532 288.0 506.0Q305 480 312.5 460.0Q320 440 320 416Q320 400 318.5 386.0Q317 372 315.5 364.5Q314 357 310.5 343.5Q307 330 305 322Q292 261 290.0 217.5Q288 174 284 143L281 122L445 152V155Q445 188 435.5 228.0Q426 268 421 304Q417 334 415.0 361.5Q413 389 411.5 421.0Q410 453 408 476L387 472H381Q370 472 369 483L376 611Q376 711 363 729H279Q272 712 272 699Q274 694 274 694Q280 684 299.5 678.0Q319 672 331 657Q338 648 341.0 639.5Q344 631 344.5 619.5Q345 608 347 601Q347 592 341.5 587.0Q336 582 302 559ZM40 271Q36 271 24.5 259.0Q13 247 10 247Q8 247 4.0 252.0Q0 257 0 263Q5 288 30 298Q31 298 50.0 302.5Q69 307 70 308Q86 316 103.0 330.0Q120 344 141.5 363.5Q163 383 178 395L224 537V539Q224 551 235 558Q269 578 309 603Q308 609 308.0 615.5Q308 622 307.0 626.0Q306 630 302 635Q296 642 274.0 649.5Q252 657 243 674Q236 688 236 696Q236 716 252.0 749.5Q268 783 298 792Q331 802 351 803Q352 870 353.5 899.0Q355 928 361.0 956.0Q367 984 377.5 992.0Q388 1000 407 1000Q420 1000 429.0 993.0Q438 986 438 974Q438 948 413 940Q417 918 422.0 891.5Q427 865 430 849L433 833Q433 801 406 799Q398 797 396 796Q430 783 457 746H460H461Q462 746 463 747Q444 759 444 773Q444 790 468 790Q494 790 494 765Q494 760 492 754Q515 739 525 688Q532 658 532 658Q532 648 522 648Q513 648 509.5 665.5Q506 683 500.0 706.0Q494 729 481 737Q473 729 468 727Q478 704 485 659L514 500V496Q514 495 502 492L554 419Q557 414 560.0 399.5Q563 385 567.5 362.0Q572 339 576 324Q579 311 584.5 294.5Q590 278 593.0 267.5Q596 257 596 252Q596 250 595.0 250.0Q594 250 587.0 256.5Q580 263 577.0 263.0Q574 263 574 254Q574 251 574.5 241.5Q575 232 575 227Q575 212 570 211Q565 211 561.5 214.5Q558 218 556.5 226.0Q555 234 554.0 239.0Q553 244 552.0 255.0Q551 266 551 268Q548 304 548 315V319L518 407L459 484Q445 482 444 481Q446 458 447.5 425.0Q449 392 451.0 365.5Q453 339 457 309Q462 275 472.0 233.0Q482 191 482 155Q482 140 475 89Q476 86 476 62Q476 60 475.5 55.0Q475 50 475 38V31Q475 11 469.5 5.5Q464 0 452 0H368Q367 1 361.0 6.0Q355 11 354 17Q354 21 379.0 32.0Q404 43 437 53Q437 56 436.5 62.5Q436 69 436 71Q436 78 443 124L322 99Q321 100 320.0 100.0Q319 100 277 94Q276 85 274.5 75.0Q273 65 271.0 53.0Q269 41 268 34V31Q268 11 262.0 5.5Q256 0 234 0H172Q147 0 147 17Q147 30 237 60Q236 62 236 65Q236 81 247 148Q253 184 254.0 226.5Q255 269 268 329Q271 344 275.5 362.5Q280 381 282.0 391.5Q284 402 284 416Q284 445 258 490L216 383Q204 360 198 355Q163 329 112.5 300.5Q62 272 48 255Q38 244 33 244Q31 244 31 246Q31 249 36.0 259.0Q41 269 41 270ZM391 947Q391 954 404.0 959.5Q417 965 417 974Q417 979 407 979Q388 979 383.0 951.5Q378 924 375 840V839Q375 834 374.5 823.0Q374 812 374 806Q384 814 392.5 817.0Q401 820 404.5 820.0Q408 820 410.0 822.5Q412 825 412 833Q412 834 407.0 860.0Q402 886 396.5 914.0Q391 942 391 946ZM301 749Q300 749 298.5 749.5Q297 750 296 750Q294 750 293 749ZM379 751Q380 750 380 750Q382 750 382 749H406Q405 750 403.0 752.5Q401 755 400 756Q399 764 379 769ZM393 729Q403 703 403 611Q403 572 400 512L475 523L451 650Q431 715 422 729ZM351 773H350Q335 773 325 768Q325 768 350 761Q350 762 350.5 766.5Q351 771 351 773Z" fill="currentColor"/>
  </g>
</svg>