<svg xmlns="http://www.w3.org/2000/svg" viewBox="0 0 992 1000">
  <g transform="scale(1,-1) translate(0,-1000)">
    <path d="M243 955Q227 969 206 969Q173 969 151.5 946.5Q130 924 130 893Q130 873 149 840Q150 841 154.0 843.5Q158 846 159.5 847.5Q161 849 163.0 852.0Q165 855 166.0 858.5Q167 862 167 867Q167 870 166.5 877.0Q166 884 166 886Q166 916 191.5 933.5Q217 951 243 955ZM245 908Q266 908 266 888Q266 874 245 874Q240 874 235.5 878.0Q231 882 231 888Q231 896 235.0 902.0Q239 908 245 908ZM142 509 138 347H259L248 523ZM108 736 112 729Q112 729 123.0 722.0Q134 715 136.0 708.5Q138 702 142.0 676.0Q146 650 146 606Q146 598 148.0 573.5Q150 549 150 539L236 550Q232 592 232 608V614Q232 655 266 722Q255 732 251.0 736.0Q247 740 241.5 751.5Q236 763 236 776Q236 806 259.5 828.5Q283 851 283 883Q283 908 272 926Q270 926 262.0 927.5Q254 929 250 929Q243 928 233.0 925.5Q223 923 206.5 912.0Q190 901 190 886V867Q190 837 176 825V821Q171 812 164.0 792.5Q157 773 146.0 762.5Q135 752 108 736ZM736 955Q762 951 787.5 933.5Q813 916 813 886Q813 884 812.5 877.0Q812 870 812 867Q812 863 813.0 859.5Q814 856 814.5 854.0Q815 852 817.5 849.5Q820 847 821.0 846.0Q822 845 825.5 842.5Q829 840 830 839Q849 872 849 893Q849 924 827.5 946.5Q806 969 773 969Q752 969 736 955ZM734 908Q740 908 744.0 902.0Q748 896 748 888Q748 882 743.5 878.0Q739 874 734 874Q713 874 713 888Q713 908 734 908ZM837 510 731 524 720 348H841ZM871 738Q850 750 838.0 760.5Q826 771 822.5 777.5Q819 784 814.0 797.0Q809 810 803 820V824Q789 836 789 867V886Q789 901 774.0 912.0Q759 923 744 926L729 929Q725 929 717.0 927.5Q709 926 707 926Q696 908 696 883Q696 851 719.5 829.5Q743 808 743 778Q743 765 737.5 753.5Q732 742 728.0 738.0Q724 734 713 724Q747 657 747 615V609Q747 593 743 551L829 540Q829 550 831.0 574.5Q833 599 833 607Q833 643 834.5 666.0Q836 689 840.5 701.0Q845 713 848.0 717.0Q851 721 858.0 725.0Q865 729 867 731ZM18 20 972 21V63L18 62ZM0 0V82H113Q103 87 103 113V121Q103 141 102 150L107 349L115 521Q113 547 113 559Q113 568 112.5 583.5Q112 599 112 606Q112 632 107 679L73 540Q70 522 68 512L50 406Q47 390 47 377Q47 374 47.5 369.5Q48 365 48.0 364.0Q48 363 48 362L47 361Q45 352 42.5 342.5Q40 333 39.0 327.5Q38 322 36.5 316.5Q35 311 34.0 308.0Q33 305 31.5 303.0Q30 301 28.0 300.0Q26 299 23 299H20Q1 307 1 334Q1 357 20 419L30 569L67 743Q71 755 86 759Q119 776 134 808Q133 810 124.0 826.0Q115 842 112.5 848.5Q110 855 106.0 868.0Q102 881 102 893Q102 934 130.5 967.0Q159 1000 206 1000Q245 1000 278.0 964.0Q311 928 311 883Q311 856 304.0 837.5Q297 819 288.0 812.5Q279 806 272.0 797.0Q265 788 265 776Q265 762 278.5 751.5Q292 741 305 737L318 733L396 537Q459 453 489 416Q518 458 548.0 493.5Q578 529 585 538L661 734Q667 735 676.0 738.0Q685 741 699.5 752.5Q714 764 714.0 778.0Q714 792 702.5 802.0Q691 812 679.5 830.0Q668 848 668 883Q668 928 701.0 964.0Q734 1000 773 1000Q820 1000 848.5 967.0Q877 934 877 893Q877 884 875.0 874.5Q873 865 869.0 855.0Q865 845 862.0 839.0Q859 833 853.0 822.0Q847 811 845 807Q854 787 863.5 779.0Q873 771 893 761Q908 757 912 745L949 570L959 420Q978 358 978 335Q978 308 959 300H956Q953 300 951.0 300.5Q949 301 947.0 303.5Q945 306 944.0 308.5Q943 311 941.5 316.5Q940 322 939.0 327.5Q938 333 935.5 342.5Q933 352 931 361V365V378Q931 396 929 407L911 513Q906 541 906 541L872 680Q867 633 867 607Q867 600 866.5 584.5Q866 569 866 560Q866 548 864 522L872 350V339Q878 279 878 247V238L877 152Q876 143 876 123V115Q876 86 864 83H990V1ZM609 83Q592 87 592 100Q592 119 667 138L685 347H686L703 515Q703 516 697.5 523.0Q692 530 688.5 536.5Q685 543 685 547Q685 560 709 566Q713 598 713 609Q713 621 711.5 630.0Q710 639 709.0 642.5Q708 646 703.0 658.0Q698 670 696 676L629 507Q629 507 619.5 496.5Q610 486 596.0 469.5Q582 453 566.5 434.5Q551 416 538.0 397.5Q525 379 519 368Q510 351 490 351Q476 351 465.5 358.0Q455 365 455 374V375Q450 386 437.5 403.5Q425 421 411.5 438.5Q398 456 384.5 471.5Q371 487 362 497L354 507L283 675Q280 668 276.5 659.5Q273 651 271.5 647.5Q270 644 268.5 637.5Q267 631 266.5 624.5Q266 618 266 608Q266 597 270 565Q294 559 294 546Q294 542 290.5 535.5Q287 529 281.5 522.0Q276 515 276 514L293 346H294L312 137Q350 126 375 114Q377 111 382.0 107.0Q387 103 387 99Q387 87 373 82ZM281 82Q269 87 269 114V122Q269 125 268.0 133.5Q267 142 267 147V151L250 231V232Q250 234 248.0 249.5Q246 265 244.0 285.5Q242 306 241 319H158L147 136Q221 116 221 98Q221 93 219.0 90.5Q217 88 213.5 85.5Q210 83 209 82ZM779 83Q758 83 758 100Q758 118 832 138L821 320H738Q735 270 729 232L712 152V148Q712 143 711.0 134.5Q710 126 710 123V115Q710 87 696 83Z" fill="currentColor"/>
  </g>
</svg>