<svg xmlns="http://www.w3.org/2000/svg" viewBox="0 -1000 1000 1000">
	<path fill="currentColor" d="M529 0V-128Q529 -166 518 -194Q507 -222 472 -231L361 -259L453 -1001L555 -960Q582 -949 593.5 -921.5Q605 -894 605 -868V0ZM216 0V-128Q216 -166 205 -194Q194 -222 159 -231L49 -259L140 -1001L243 -960Q269 -949 281 -921.5Q293 -894 293 -868V0ZM236 -17H273V-868Q273 -888 264.5 -910Q256 -932 234 -942L155 -973L69 -274L171 -246Q200 -238 213.5 -219.5Q227 -201 231.5 -179Q236 -157 236 -137ZM548 -17H586V-868Q586 -888 577.5 -910Q569 -932 547 -942L468 -973L382 -274L483 -246Q512 -238 526 -219.5Q540 -201 544 -179Q548 -157 548 -137Z"/>
</svg>