<svg xmlns="http://www.w3.org/2000/svg" viewBox="0 0 986 1000">
  <g transform="scale(1,-1) translate(0,-1000)">
    <path d="M395 699H918Q924 699 928.5 694.5Q933 690 933 684V424Q933 418 928.5 413.5Q924 409 918 409H395V385H956V728H395ZM365 742Q365 757 380 757H971Q986 757 986 743V370Q986 355 971 355H710Q776 261 788 226Q792 214 804.5 151.0Q817 88 817 66V49Q817 34 816 22Q816 3 738 3Q733 3 722.0 3.5Q711 4 704 4Q698 4 695 3H680Q640 3 640 23Q643 42 691.5 51.5Q740 61 746 66Q765 84 765 110Q765 141 738.5 205.5Q712 270 680 317Q677 322 669 322Q663 322 655.0 297.5Q647 273 635.5 234.5Q624 196 612 173Q607 162 586.5 134.0Q566 106 556 89Q550 79 539.0 54.0Q528 29 516 14Q505 0 432 0Q412 0 400 1H393Q383 1 377.5 4.5Q372 8 372 12L371 15Q371 28 386.0 36.5Q401 45 420.0 48.5Q439 52 460.5 60.0Q482 68 492 80Q504 93 511.0 106.0Q518 119 526.0 137.0Q534 155 540 166Q552 191 572.0 238.0Q592 285 608 317Q622 345 635 355H380Q365 355 365 369V424Q365 439 380 439H903V669H380Q365 669 365 684ZM202 774Q202 749 155 713L173 702Q195 689 222.0 666.5Q249 644 271.5 629.0Q294 614 320 608Q332 605 344 605Q364 605 408.5 619.0Q453 633 481 633H488Q526 631 591.5 602.5Q657 574 671 572Q731 565 759 565Q768 565 787.5 566.0Q807 567 819 567Q824 567 837.0 566.0Q850 565 857 565Q886 557 886 534Q883 530 881.5 526.0Q880 522 879.5 520.0Q879 518 877.5 516.5Q876 515 874.0 514.0Q872 513 867 511H865Q861 509 856 509Q723 511 628 512Q597 513 594 513Q577 515 545.0 520.5Q513 526 494 526H484Q461 525 417.5 511.5Q374 498 348 498Q307 498 272.5 517.0Q238 536 204.0 563.5Q170 591 145 602Q141 604 137.0 604.0Q133 604 116.0 599.5Q99 595 89 595H83Q83 595 81.0 595.5Q79 596 77 596Q74 596 69.5 595.5Q65 595 63 595Q33 595 16.5 613.0Q0 631 0 655Q0 703 64 720Q46 730 30.5 748.0Q15 766 15.0 778.0Q15 790 27.5 797.5Q40 805 49 805Q67 805 82.0 778.0Q97 751 114 751Q129 751 140.5 775.5Q152 800 172 800Q182 800 192.0 792.5Q202 785 202 774ZM137 639Q161 639 197.0 612.5Q233 586 273.0 559.5Q313 533 348 533Q370 533 411.5 546.0Q453 559 483 561H494Q515 561 562.0 553.5Q609 546 649 546Q641 550 617.0 557.0Q593 564 592 564Q576 570 556.0 579.0Q536 588 521.5 592.5Q507 597 487 598H481Q456 598 413.0 584.0Q370 570 344 570Q328 570 311 573Q280 580 254.5 597.0Q229 614 203.0 636.5Q177 659 156 671Q124 689 112 689H110Q59 688 41 668Q38 665 37 663V662Q35 658 35.0 655.0Q35 652 36.0 647.5Q37 643 44.0 636.5Q51 630 63 630Q65 630 69.5 630.5Q74 631 77 631Q84 631 85 630H89Q96 630 111.5 634.5Q127 639 137 639Z" fill="currentColor"/>
  </g>
</svg>