<svg xmlns="http://www.w3.org/2000/svg" viewBox="0 0 997 1000">
  <g transform="scale(1,-1) translate(0,-1000)">
    <path d="M700 116Q700 129 708.0 138.5Q716 148 732.0 148.0Q748 148 781.5 129.5Q815 111 838.5 94.5Q862 78 865 75Q869 71 869 64Q869 59 851.0 33.0Q833 7 830 4Q826 0 819 0Q814 0 792 16Q759 40 744.0 52.5Q729 65 714.5 83.0Q700 101 700 116ZM833 60Q748 118 732 118Q730 118 730 116Q730 99 816 36ZM380 70Q363 70 350.5 82.5Q338 95 338 112Q338 128 348.5 139.0Q359 150 374.0 150.0Q389 150 399.5 138.0Q410 126 410.0 110.0Q410 94 402.0 82.0Q394 70 380 70ZM616 150Q631 150 641.5 138.0Q652 126 652 110Q652 95 643.5 82.5Q635 70 622 70Q605 70 592.5 82.5Q580 95 580 112Q580 128 590.0 139.0Q600 150 616 150ZM532 110Q532 95 523.5 82.5Q515 70 502 70Q485 70 472.5 82.5Q460 95 460 112Q460 128 470.5 139.0Q481 150 496.0 150.0Q511 150 521.5 138.0Q532 126 532 110ZM890 445Q890 441 886.5 436.5Q883 432 876 432L793 434Q785 434 771.0 453.5Q757 473 746 481Q732 490 724 490Q720 490 717 489Q710 486 702.0 469.5Q694 453 689 450Q683 431 668.5 400.0Q654 369 654 360V359Q645 339 633 339H631Q628 334 627.0 325.5Q626 317 624 314H948Q957 312 963.5 309.5Q970 307 978.5 300.5Q987 294 992.0 279.0Q997 264 997 242Q997 236 996.0 228.5Q995 221 990.5 207.0Q986 193 973.5 184.5Q961 176 943 176H54Q35 179 24.0 183.5Q13 188 8.5 195.0Q4 202 2.5 207.0Q1 212 1.0 223.5Q1 235 0 242V244Q0 311 50 314H126Q126 315 114.5 350.0Q103 385 89.0 429.0Q75 473 73 480Q9 674 9 720Q9 785 37 807Q71 833 99 833Q122 833 138.5 818.5Q155 804 155 777Q155 752 148.0 741.5Q141 731 121 714Q122 713 148.0 666.5Q174 620 176 617Q184 602 206.0 571.5Q228 541 235 521Q243 499 243 483Q243 469 237.0 459.5Q231 450 225.0 446.0Q219 442 207 436Q191 428 185.0 420.0Q179 412 158 375Q159 372 166.5 349.0Q174 326 178 314H519Q511 332 511 339Q511 339 514 351Q516 360 525.5 368.0Q535 376 537 380Q566 419 581 445Q588 458 595.0 478.5Q602 499 608 511Q525 594 475 680Q466 695 462.5 719.5Q459 744 457 750Q453 761 449.0 775.0Q445 789 443.0 797.5Q441 806 436.0 816.5Q431 827 424 836Q416 847 405.5 856.0Q395 865 387.5 870.5Q380 876 365.0 885.5Q350 895 340 902Q329 910 314.5 917.0Q300 924 294.0 928.0Q288 932 288 939Q288 954 302 954H304Q357 947 359 947H361Q372 947 390.0 950.5Q408 954 419 954Q473 954 502 882Q510 862 513.5 828.0Q517 794 523 779Q537 742 542.5 735.0Q548 728 568 724Q645 822 662 842Q670 851 687.0 870.5Q704 890 713.0 899.5Q722 909 737.5 923.5Q753 938 771.0 950.0Q789 962 805.5 969.0Q822 976 844.5 982.5Q867 989 883 995Q884 996 888 996Q893 996 897.5 992.0Q902 988 902 982Q902 979 901 978L891 940Q905 946 928.0 952.0Q951 958 960 961Q960 961 962.0 961.5Q964 962 965 962Q969 962 973.5 958.5Q978 955 978 948V945Q977 937 977.0 923.5Q977 910 975.0 898.5Q973 887 966 875Q961 866 955.0 857.5Q949 849 945.0 843.5Q941 838 932.5 829.5Q924 821 921.0 818.0Q918 815 906.0 804.5Q894 794 891 791Q868 770 814.0 734.5Q760 699 733 668Q731 664 731 662Q731 655 743 634Q756 610 791 583Q806 570 826.5 559.0Q847 548 859.0 541.5Q871 535 872 529L890 448ZM58 216H943Q957 233 957 252Q957 274 947 274H51Q46 274 44.5 273.0Q43 272 41.5 265.5Q40 259 40 244V243Q42 219 58 216ZM290 116Q290 101 275.5 83.0Q261 65 246.0 52.5Q231 40 198 16Q176 0 171 0Q164 0 160 4Q157 7 139.0 33.0Q121 59 121 64Q121 70 124.0 73.0Q127 76 145 88Q232 148 258 148Q274 148 282.0 138.5Q290 129 290 116ZM174 36Q260 99 260 116Q260 118 258 118Q242 118 157 60ZM613 737Q642 752 692.0 802.0Q742 852 763 868Q805 899 858 925L868 960Q810 944 787 927Q771 916 755.5 902.0Q740 888 733.5 881.5Q727 875 707.5 852.5Q688 830 683 824Q670 809 658.5 795.0Q647 781 634.0 764.0Q621 747 613 737ZM428 916Q444 916 444 898Q444 887 426 887Q420 887 415.5 891.5Q411 896 411.0 902.0Q411 908 416.5 912.0Q422 916 428 916ZM678 483Q696 518 724 518Q738 518 761 504Q770 498 776.0 491.5Q782 485 789.0 475.5Q796 466 800 461L859 460L846 517Q837 522 822.0 530.5Q807 539 796.5 546.0Q786 553 774 562Q734 594 719 621Q703 653 703 662Q703 682 732.5 708.0Q762 734 799.5 757.5Q837 781 879.5 817.5Q922 854 942 889Q947 897 949 929Q855 903 779 846Q755 828 715.0 786.0Q675 744 642 722Q603 696 575 696Q551 696 536.0 706.5Q521 717 515.0 728.5Q509 740 498 769Q490 788 487.0 821.5Q484 855 477 871Q472 884 468.5 890.5Q465 897 458.0 907.5Q451 918 441.0 922.5Q431 927 419 927Q411 927 393.5 923.5Q376 920 365 919Q369 916 381.5 908.0Q394 900 399.0 896.5Q404 893 413.5 885.5Q423 878 430.5 870.5Q438 863 445 853Q457 838 463.0 824.0Q469 810 475.0 788.0Q481 766 483 759Q487 746 489.5 726.0Q492 706 499 694Q508 678 516.0 665.0Q524 652 535.5 637.5Q547 623 552.5 616.5Q558 610 574.5 591.0Q591 572 597 565Q604 557 678 483ZM83 717Q83 727 92.5 733.5Q102 740 111.0 749.5Q120 759 120 777Q120 799 98 799Q81 799 58 780Q43 768 43 721Q43 684 106 490Q121 446 134 402Q150 433 160.5 444.0Q171 455 192 466Q204 473 206.5 475.5Q209 478 209 483Q209 497 203 509Q198 525 176.0 555.5Q154 586 146 601Q135 621 118.0 650.5Q101 680 92.0 696.5Q83 713 83 717ZM657 452Q657 469 643.0 469.0Q629 469 616.0 446.0Q603 423 582 372Q581 369 578.0 356.5Q575 344 570 338Q569 336 564 336H557Q553 336 551 334Q550 333 542 314H599Q591 325 591 335Q591 340 592 343Q594 352 604.5 361.5Q615 371 617 375Q645 417 651 431Q657 447 657 452Z" fill="currentColor"/>
  </g>
</svg>