<svg xmlns="http://www.w3.org/2000/svg" viewBox="0 0 315 1000">
  <g transform="scale(1,-1) translate(0,-1000)">
    <path d="M213 602Q212 607 211.0 617.0Q210 627 209 632Q191 617 165 617Q155 617 151 618L147 590Q156 587 168 587Q188 587 213 602ZM219 674Q224 679 237.0 688.5Q250 698 256.0 705.5Q262 713 263 725V731Q263 765 235.5 789.5Q208 814 183 814Q162 814 145.5 804.0Q129 794 122 784L116 774Q118 773 129.0 771.0Q140 769 143.5 768.0Q147 767 156.0 765.0Q165 763 169.5 760.5Q174 758 181.5 754.5Q189 751 195.0 746.5Q201 742 207.0 736.0Q213 730 213 722Q211 713 211 712Q211 705 185 692Q185 692 194.0 689.5Q203 687 207 683Q212 678 215 672ZM139 144Q139 204 121.5 311.5Q104 419 104 468Q104 511 112 544L130 625Q124 628 119.0 637.0Q114 646 112 647H111Q90 595 58 570Q38 572 38 584V585Q39 596 58.5 617.0Q78 638 78 645V652Q57 678 57 706Q57 714 58.0 720.5Q59 727 61.0 733.0Q63 739 64.5 743.0Q66 747 70.5 753.0Q75 759 76.5 761.5Q78 764 84.0 770.5Q90 777 91 779Q92 780 97.5 786.5Q103 793 107.0 797.0Q111 801 118.0 807.0Q125 813 133.5 818.0Q142 823 152 826Q128 827 108 834Q97 838 82.0 853.5Q67 869 67 873Q67 875 60 883Q53 891 56 891Q71 890 93.0 875.5Q115 861 139 858Q139 858 138 859V860Q117 870 108.0 876.5Q99 883 99.0 893.0Q99 903 114.0 923.5Q129 944 129 949Q129 950 116.0 956.5Q103 963 103 973Q103 981 112.0 990.5Q121 1000 138 1000Q175 1000 185 981Q198 999 233 1000Q250 1000 259.0 990.5Q268 981 268 973Q268 963 255.0 956.5Q242 950 242 949Q242 944 257.0 923.5Q272 903 272 893Q272 884 263.0 877.0Q254 870 232 860Q232 860 232 859L231 858Q255 861 277.0 875.5Q299 890 314 891Q316 891 307 880Q303 875 303 873Q303 869 288.0 853.5Q273 838 262 834Q242 827 219 826H217Q246 815 266.5 789.0Q287 763 287 732V722Q285 703 272.0 687.5Q259 672 243.5 662.0Q228 652 226 649Q230 643 231 642Q233 623 238.0 600.0Q243 577 247 563L251 549Q262 506 262 461Q262 413 243.0 315.0Q224 217 220 157Q216 90 216 17V16Q216 0 200 0H16Q0 0 0 16Q0 43 21.5 58.5Q43 74 69.5 78.5Q96 83 117.5 99.0Q139 115 139 144ZM113 731Q128 731 128.0 720.0Q128 709 113 709Q97 709 97.0 720.0Q97 731 113 731ZM102 757Q80 730 80 706Q80 699 84.0 689.0Q88 679 92 672L95 666Q107 670 111 670Q120 670 126.5 664.5Q133 659 136.5 652.5Q140 646 142 645Q154 639 165.0 639.0Q176 639 182.0 640.5Q188 642 194.5 647.0Q201 652 202 653Q197 667 190 671Q190 671 186.0 671.5Q182 672 179.0 673.5Q176 675 172.0 677.0Q168 679 165.5 682.5Q163 686 163 691Q163 700 178.0 708.0Q193 716 193 721Q192 742 102 757ZM171 145Q171 106 145 80Q126 61 86.5 48.5Q47 36 41 32H184Q184 161 207.5 293.5Q231 426 231 463Q231 505 221 546Q219 562 216 583Q196 570 169 570Q162 570 144 574L139 541Q135 514 135 475Q135 399 153.0 273.0Q171 147 171 145ZM161.0 847.0Q171 837 185.0 837.0Q199 837 209.0 847.0Q219 857 219.0 871.0Q219 885 209.0 895.0Q199 905 185.0 905.0Q171 905 161.0 895.0Q151 885 151.0 871.0Q151 857 161.0 847.0ZM232 880Q242 886 253 894Q251 903 237.5 921.0Q224 939 224 949Q224 962 243 971Q249 974 249 974Q245 982 232 982Q212 982 203 973Q198 968 197 959V917Q227 909 232 880ZM173 917V959Q172 969 168 973Q159 982 138 982Q126 982 122 974Q123 973 127 971Q147 961 147 949Q147 939 133.0 921.0Q119 903 117 894Q128 886 138 880Q143 909 173 917Z" fill="currentColor"/>
  </g>
</svg>