<svg xmlns="http://www.w3.org/2000/svg" viewBox="0 0 996 1000">
  <g transform="scale(1,-1) translate(0,-1000)">
    <path d="M227 860Q217 860 210.0 868.5Q203 877 203 888Q203 898 210.0 904.0Q217 910 227 910Q238 910 245.0 903.0Q252 896 252.0 885.0Q252 874 245.0 867.0Q238 860 227 860ZM859 423Q856 446 849.5 467.0Q843 488 837.0 499.0Q831 510 827 510H826Q825 509 823.0 498.5Q821 488 810 472Q807 468 801.5 459.5Q796 451 792.5 446.0Q789 441 783.0 435.0Q777 429 771 424H855Q858 424 859 423ZM193 300 157 41 829 40 806 300ZM812 340 827 384H171L188 340ZM746 597Q748 597 751.5 596.5Q755 596 760.5 591.0Q766 586 766 577Q766 566 758.0 559.0Q750 552 739.5 549.0Q729 546 718.0 539.0Q707 532 702 521Q695 506 692 493Q691 469 691 469Q693 457 696.5 453.0Q700 449 706.5 448.0Q713 447 716 445Q724 445 735 449Q745 453 750.5 458.0Q756 463 765.0 477.0Q774 491 779 497Q783 502 785.5 514.0Q788 526 794 534Q799 545 816 549Q817 549 821.5 549.5Q826 550 827 550Q864 544 876 508Q904 441 914.5 294.0Q925 147 941 88Q944 80 955 74Q950 134 950 183V186Q950 241 951.5 319.5Q953 398 953 425Q953 440 954.5 463.5Q956 487 956 497Q956 523 947 546Q937 571 926.5 586.5Q916 602 907.5 610.0Q899 618 873 639Q860 649 850.5 654.0Q841 659 811.5 663.5Q782 668 733 668Q699 668 632.0 672.0Q565 676 528 676Q511 676 471 678Q461 679 438.5 680.0Q416 681 407.0 682.0Q398 683 381.5 685.0Q365 687 351.0 691.0Q337 695 321 701Q300 709 287.5 722.0Q275 735 272 737Q271 737 269.0 737.5Q267 738 266 738Q237 742 206 742Q188 742 149.5 739.5Q111 737 86 737Q83 737 75.0 737.5Q67 738 63 738Q45 742 35 748Q31 744 31 743Q31 736 38 732Q56 712 98 694Q186 702 207 702Q222 702 227 701Q233 701 239.5 694.5Q246 688 246 681Q246 675 241.5 670.5Q237 666 231 666L157 665L269 611Q291 595 306 574Q307 575 311 577L347 593Q349 594 353 594Q361 594 364.5 588.5Q368 583 368 579Q368 570 359 566L323 550L322 549L328 539Q360 495 365 461Q365 458 366 457Q380 458 387.5 458.5Q395 459 396.5 459.5Q398 460 403.5 460.0Q409 460 420 460Q427 460 429.5 462.5Q432 465 432 477Q432 487 430 507Q430 516 427.5 529.5Q425 543 422.5 552.5Q420 562 420 563Q420 580 437 583H441H444Q451 583 456 578Q469 565 480.0 546.0Q491 527 501.5 517.5Q512 508 532 504L653 502Q658 520 665 536Q670 548 673.5 555.0Q677 562 684.0 567.5Q691 573 694.5 574.5Q698 576 711.5 581.5Q725 587 732 590Q738 597 746 597ZM472 477Q472 441 445 425Q444 425 442 424H545V427Q545 435 551.0 440.5Q557 446 565 446H656Q652 455 651 462L530 464H527Q495 469 471 491Q472 487 472 477ZM178 781Q160 789 142 811Q122 789 108 789H104Q79 789 63.5 810.5Q48 832 45.0 849.5Q42 867 42 879Q42 886 43.5 895.5Q45 905 45 911V914Q27 917 27 936V937Q27 948 37.5 955.0Q48 962 62 962Q83 962 95.0 951.5Q107 941 107 912V874Q107 868 106.0 859.0Q105 850 105 846Q105 844 108 835Q111 836 114 839Q114 840 115.0 845.0Q116 850 118 855Q113 870 113 894Q113 939 146.5 969.5Q180 1000 225 1000Q273 1000 307.5 966.5Q342 933 342 885Q342 865 334 844Q337 840 343.5 830.5Q350 821 354 817Q364 807 379.5 804.0Q395 801 404.5 799.0Q414 797 414 788V787Q414 780 406.5 774.5Q399 769 391 769H390Q385 770 379 770Q351 773 340.0 780.5Q329 788 314 812Q293 786 262 779Q293 775 309.0 758.5Q325 742 333 739Q346 734 359.0 730.5Q372 727 380.5 725.0Q389 723 402.5 722.0Q416 721 422.5 720.5Q429 720 446.5 719.0Q464 718 473 718Q513 716 528 716Q563 716 629.5 712.0Q696 708 733 708Q788 708 822.0 702.5Q856 697 868.5 690.5Q881 684 898 670Q937 639 952.5 620.0Q968 601 984 561Q996 532 996 497Q996 485 994.5 461.5Q993 438 993 425Q993 395 991.5 317.0Q990 239 990 186V183Q990 151 992.5 104.5Q995 58 996 40V39Q996 19 976 19Q969 19 964 23Q959 28 944.0 35.0Q929 42 917.5 52.0Q906 62 902 78Q884 145 878.0 249.0Q872 353 866 376L845 316L871 22Q871 12 866.0 6.5Q861 1 856 0H851H126Q120 0 117.0 4.0Q114 8 114 12L113 16V18L155 315L123 394Q121 400 121 402Q121 409 127.0 416.5Q133 424 141 424H208Q206 434 206 439V441Q206 450 215 450H223Q225 450 229.5 449.5Q234 449 236 449Q243 451 254 451Q259 451 268.0 450.5Q277 450 283 450Q298 450 317 455Q323 462 323 469Q323 475 319.0 482.5Q315 490 307.0 500.5Q299 511 295 518Q271 554 243 574Q211 593 172.5 612.0Q134 631 110 646Q94 658 65.5 669.0Q37 680 18 694Q0 717 0 752Q0 769 9.5 779.5Q19 790 33 790Q41 790 52.0 784.0Q63 778 64 778Q68 777 76 777H86Q106 777 137.5 779.0Q169 781 178 781ZM85 915Q85 934 69 934Q65 934 65 929V927Q67 923 67 922V911Q67 904 66.0 894.0Q65 884 65 879Q65 869 69.5 852.0Q74 835 79 835Q83 835 83 839V846Q83 851 84.0 860.0Q85 869 85 874Q85 875 84.5 877.0Q84 879 84 880V887Q84 892 84.5 900.5Q85 909 85 912ZM225 802Q260 802 285.0 826.5Q310 851 310 885Q310 920 285.0 944.0Q260 968 225 968Q192 968 168.5 946.5Q145 925 145 894Q145 857 168.0 829.5Q191 802 225 802Z" fill="currentColor"/>
  </g>
</svg>