<svg xmlns="http://www.w3.org/2000/svg" viewBox="0 0 893 1000">
  <g transform="scale(1,-1) translate(0,-1000)">
    <path d="M754 632Q730 554 730 388Q730 360 732.0 307.0Q734 254 734 215Q734 208 733.5 190.0Q733 172 733 161Q747 139 747 98Q747 42 722 6Q722 0 704 0H690Q675 0 675 22Q675 31 679.0 56.0Q683 81 683 92Q683 126 660 126Q645 126 497.5 63.0Q350 0 325 0Q325 0 320.5 1.0Q316 2 313.5 3.0Q311 4 306.0 7.5Q301 11 298.0 16.0Q295 21 291.0 30.5Q287 40 285 53Q285 53 285 82Q285 95 319.5 131.0Q354 167 408 208Q395 220 367.0 242.0Q339 264 331 271Q318 247 298.0 192.5Q278 138 263.5 95.5Q249 53 249 51Q249 47 249.5 40.5Q250 34 250 31Q250 12 238.5 6.0Q227 0 201 0H46Q18 0 9.0 8.0Q0 16 0 30Q0 48 15 54Q41 65 82.0 68.5Q123 72 146 89Q166 103 175 138Q194 203 203.0 258.5Q212 314 219.5 343.0Q227 372 251 411Q265 435 296 435Q306 435 318.0 432.0Q330 429 340.0 425.5Q350 422 358.0 418.0Q366 414 371 411L376 408Q538 296 538.0 296.0Q538 296 548 301Q548 330 551.0 355.0Q554 380 554 400Q554 442 547.5 482.5Q541 523 536.0 543.0Q531 563 517 609L344 562Q343 562 341.5 561.5Q340 561 339 561Q337 561 323.5 557.0Q310 553 301 553Q296 553 289.5 555.0Q283 557 275.5 564.5Q268 572 267 584V587Q267 597 285 619Q304 642 339.0 677.0Q374 712 396.5 735.0Q419 758 419 762Q441 790 466 790Q470 790 478 788H480Q509 788 509 769Q509 756 500 745L475 734Q472 732 459.0 727.5Q446 723 430 710L346 618L492 678L502 693Q505 697 526.5 717.0Q548 737 548 749Q548 762 537.5 772.0Q527 782 514.5 789.0Q502 796 491.5 816.0Q481 836 481 867Q481 914 515 949Q563 1000 615 1000Q675 1000 711.0 962.5Q747 925 747 879Q747 866 742.5 851.0Q738 836 734.0 828.0Q730 820 719.5 803.5Q709 787 707 783Q720 759 748.5 745.0Q777 731 783 718Q784 717 799 685Q802 679 821.0 641.0Q840 603 849.0 584.5Q858 566 871.5 531.5Q885 497 893 468Q893 466 889.0 439.5Q885 413 877.0 376.0Q869 339 862 320L861 314Q861 296 861 296Q863 292 867.0 286.5Q871 281 872 277Q877 267 877 251Q877 240 872 238H870Q865 238 859.0 250.0Q853 262 845 268L844 267Q839 265 835.0 257.5Q831 250 830.0 243.0Q829 236 827.0 224.0Q825 212 824 208Q821 203 813 203Q793 203 793 226Q793 233 796 243Q800 264 810.0 281.0Q820 298 824 313Q852 415 852 445Q852 461 846 479Q814 542 754 632ZM567 949Q601 944 633.5 924.0Q666 904 666 870Q666 867 665.5 859.5Q665 852 665 850Q665 841 668.5 834.5Q672 828 675.5 826.0Q679 824 688 820Q712 860 712 879Q712 913 684.5 939.0Q657 965 615 965Q589 965 567 949ZM687 369Q688 453 696 540Q706 633 738 706Q704 724 691 737Q681 747 675.0 756.0Q669 765 663.5 777.5Q658 790 654 798Q635 810 635 850Q635 854 635.5 860.5Q636 867 636 870Q636 887 616.5 899.5Q597 912 578 916L558 920Q557 920 532 915Q516 895 516 867Q516 854 519 841Q521 829 537.5 817.0Q554 805 568.5 788.5Q583 772 583 749Q583 737 578.0 726.5Q573 716 568.0 710.5Q563 705 552.5 696.0Q542 687 538 683Q540 673 559.5 609.5Q579 546 586.5 501.0Q594 456 594 400Q594 379 592.0 360.5Q590 342 590 320Q605 326 636.5 343.5Q668 361 687 369ZM564 896Q583 896 583 873Q583 867 577.0 862.5Q571 858 564 858Q539 858 539 873Q539 883 546.5 889.5Q554 896 564 896ZM689 202Q689 213 689.5 231.0Q690 249 690 252Q690 262 689.0 279.0Q688 296 688 322Q668 312 615.5 282.5Q563 253 469.5 192.0Q376 131 329 84Q326 81 326 64Q326 37 336 37Q339 37 388.0 57.5Q437 78 524.0 119.0Q611 160 689 202ZM296 395Q288 395 285 389Q263 354 255.5 325.5Q248 297 240.0 243.0Q232 189 214 128Q203 81 170 57Q164 53 110 33Q115 33 135.0 34.0Q155 35 162 35Q170 35 183.0 33.5Q196 32 201 32Q208 32 210 33Q210 38 209.5 42.5Q209 47 209 50Q209 63 240.5 151.0Q272 239 291 280Q309 319 327.0 319.0Q345 319 405 256Q410 251 419.0 241.5Q428 232 433 227Q434 227 465.0 248.0Q496 269 502 274L344 380Q313 395 296 395Z" fill="currentColor"/>
  </g>
</svg>