<svg xmlns="http://www.w3.org/2000/svg" viewBox="0 0 834 1000">
  <g transform="scale(1,-1) translate(0,-1000)">
    <path d="M591 949Q625 944 657.5 924.0Q690 904 690 870Q690 867 689.5 859.5Q689 852 689 850Q689 841 692.5 834.5Q696 828 699.5 826.0Q703 824 712 820Q736 860 736 879Q736 913 708.5 939.0Q681 965 639 965Q613 965 591 949ZM741 708Q717 733 701.0 756.5Q685 780 681 791L677 802Q659 813 659 850Q659 854 659.5 860.5Q660 867 660 870Q660 887 640.5 899.5Q621 912 602 916L582 920Q581 920 556 915Q540 895 540 867Q540 854 543 841Q545 829 561.5 816.5Q578 804 592.5 787.5Q607 771 607 748Q607 738 605.0 730.5Q603 723 599.0 716.5Q595 710 591.5 706.5Q588 703 581.0 696.5Q574 690 570 686Q572 679 590 611Q597 615 613.0 624.0Q629 633 634.0 635.5Q639 638 651.0 645.0Q663 652 667.5 654.5Q672 657 681.5 663.0Q691 669 696.0 673.0Q701 677 709.5 683.0Q718 689 725.0 695.0Q732 701 741 708ZM588 896Q607 896 607 873Q607 867 601.0 862.5Q595 858 588 858Q563 858 563 873Q563 883 570.5 889.5Q578 896 588 896ZM410 609Q418 609 448.0 629.5Q478 650 502.0 669.0Q526 688 528 690Q539 707 541 707H542Q547 712 554.0 719.0Q561 726 564.0 729.0Q567 732 569.5 737.0Q572 742 572 748Q572 761 561.5 771.0Q551 781 538.5 788.5Q526 796 515.5 816.0Q505 836 505 867Q505 914 539 949Q587 1000 639 1000Q699 1000 735.0 962.5Q771 925 771 879Q771 866 766.5 851.0Q762 836 758.0 828.0Q754 820 743.5 803.5Q733 787 731 783Q742 763 764.5 739.0Q787 715 787 700Q787 700 787.5 696.0Q788 692 788 688Q788 665 777 627L769 596Q760 555 756.0 481.5Q752 408 751.0 269.5Q750 131 749 77L794 44Q798 43 806.5 41.5Q815 40 818.0 39.0Q821 38 826.0 35.5Q831 33 832.5 29.5Q834 26 834 20Q834 11 828.0 5.5Q822 0 814 0Q811 0 773.0 7.5Q735 15 681.0 22.5Q627 30 583 30Q561 30 434.0 19.0Q307 8 270 2H267Q259 2 253.0 7.5Q247 13 247 22Q247 27 248.5 30.5Q250 34 253.0 36.0Q256 38 259.5 40.0Q263 42 269.5 43.0Q276 44 281.0 45.0Q286 46 296.0 47.5Q306 49 313 50Q313 50 311.0 61.0Q309 72 309 79Q309 95 316.5 104.5Q324 114 351 136Q351 177 345.5 232.5Q340 288 340 325Q340 347 341 360Q340 363 340 369Q340 388 354.5 400.0Q369 412 387 412Q403 412 410 405L572 261Q573 260 573 260Q573 289 575.5 333.0Q578 377 578 397Q578 493 571 534Q479 494 459.5 486.5Q440 479 424 479Q402 479 288.5 501.5Q175 524 160 524Q156 524 149.0 523.5Q142 523 139 523Q87 523 83 560Q46 574 23.0 606.5Q0 639 0 679Q0 733 37.0 770.5Q74 808 128 808Q181 808 218.5 770.5Q256 733 256 680V677Q395 609 410 609ZM585 82Q652 82 709 67Q711 143 711 268Q692 261 656.0 248.0Q620 235 593.5 224.0Q567 213 538 198Q527 192 502.0 180.0Q477 168 467.5 163.0Q458 158 439.0 147.5Q420 137 408.5 129.0Q397 121 381.5 109.0Q366 97 350 83Q349 82 349.0 79.0Q349 76 350.5 68.5Q352 61 352 56Q502 82 585 82ZM380 369V325Q380 293 384.5 244.0Q389 195 390 164Q408 176 427.0 186.5Q446 197 476.5 212.0Q507 227 520 234L534 241L388 372H387Q382 372 380 369ZM729 606 603 546Q618 473 618 397Q618 375 615.5 334.5Q613 294 613 274Q624 278 657.5 290.5Q691 303 712 311Q714 522 729 606ZM413 548Q394 548 247 634Q231 593 194 571Q196 570 242.0 561.5Q288 553 343.5 544.5Q399 536 419 536Q450 536 555 594L549 615Q532 606 509.0 593.0Q486 580 467.0 570.0Q448 560 426 551Q418 548 413 548ZM92 702Q92 714 97.5 720.5Q103 727 107.5 728.0Q112 729 119 729Q122 729 128.0 728.5Q134 728 137 728Q148 727 219 695Q214 728 188.0 750.0Q162 772 128 772Q89 772 62.5 745.0Q36 718 36 679Q36 646 58.0 620.0Q80 594 113 589H120Q130 589 135 588Q163 590 185.5 607.5Q208 625 216 651Q183 670 175 670Q166 669 152.0 662.5Q138 656 131 656Q118 656 105.0 669.5Q92 683 92 702Z" fill="currentColor"/>
  </g>
</svg>