<svg xmlns="http://www.w3.org/2000/svg" viewBox="0 -1000 1000 1000">
	<path fill="#000000" d="M391 -654V-882Q391 -931 427 -966Q463 -1001 524 -1001Q583 -1001 620.5 -967Q658 -933 658 -882V-654H638V-882Q638 -924 605 -952.5Q572 -981 524 -981Q476 -981 443 -952Q410 -923 410 -882V-654ZM49 -654V-882Q49 -931 85.5 -966Q122 -1001 183 -1001Q242 -1001 279 -967Q316 -933 316 -882V-654H296V-882Q296 -924 263 -952.5Q230 -981 183 -981Q134 -981 101 -952Q68 -923 68 -882V-654ZM220 -166V-394Q220 -443 256.5 -478Q293 -513 354 -513Q413 -513 450 -479Q487 -445 487 -394V-166H467V-394Q467 -435 434 -464Q401 -493 354 -493Q305 -493 272 -464Q239 -435 239 -394V-166Z"/>
</svg>