<svg xmlns="http://www.w3.org/2000/svg" viewBox="0 0 589 1000">
  <g transform="scale(1,-1) translate(0,-1000)">
    <path d="M340 100Q322 78 288.0 64.5Q254 51 234.0 48.5Q214 46 201 46Q189 46 176.5 48.5Q164 51 148.0 58.5Q132 66 122.0 84.0Q112 102 112 128Q112 143 119 171Q75 215 75 276Q75 295 79.0 334.5Q83 374 83 392Q83 428 65.5 476.5Q48 525 48 555Q48 588 64.5 630.0Q81 672 109 698Q90 694 68 694Q59 694 49.5 696.0Q40 698 27.5 704.0Q15 710 7.5 724.0Q0 738 0 759Q0 794 28.0 818.0Q56 842 96 847Q104 890 104 890Q106 898 111.5 924.0Q117 950 122 970Q129 997 158 997H166Q187 994 195 977Q205 986 220 986H228Q261 979 261 950Q261 946 258.5 925.0Q256 904 253 884L250 864Q248 851 246.0 836.0Q244 821 242.5 814.0Q241 807 241 803Q336 743 336 634Q336 593 322.0 555.0Q308 517 288.0 487.5Q268 458 248.0 429.5Q228 401 214.0 365.5Q200 330 200 292Q200 260 211.5 236.5Q223 213 233.0 205.0Q243 197 249 197Q264 197 332.0 217.0Q400 237 417 237H423Q444 235 457.0 232.0Q470 229 489.5 220.5Q509 212 519.0 193.5Q529 175 529 148Q529 128 523 112Q543 89 559.5 63.0Q576 37 582.5 23.0Q589 9 589 7Q589 0 579 0Q568 0 563 5Q554 13 547.5 19.5Q541 26 537.0 30.0Q533 34 528.0 41.0Q523 48 521.5 50.5Q520 53 513.5 63.0Q507 73 504 78Q481 52 439 52Q385 52 340 100ZM88 757Q67 757 67 771Q67 787 83 787Q100 787 100.0 772.0Q100 757 88 757ZM362 126Q394 86 439 86Q468 86 482 105Q455 130 410 130Q387 130 362 126ZM258 144Q276 144 344.5 157.0Q413 170 424 170Q454 170 494 139Q494 140 494.5 143.0Q495 146 495 148Q495 180 474 191Q450 203 423.0 203.0Q396 203 336.0 185.5Q276 168 263 168Q231 168 199.5 197.0Q168 226 168 292Q168 333 182.0 371.0Q196 409 215.5 438.5Q235 468 255.0 497.0Q275 526 289.0 561.5Q303 597 303 634Q303 679 283.0 714.5Q263 750 236.5 768.5Q210 787 179.5 798.5Q149 810 132.5 813.0Q116 816 111 816Q81 816 56.5 799.5Q32 783 32 759Q32 726 68 726Q86 726 141.5 737.0Q197 748 209 748Q225 748 225 732Q225 720 214 717Q154 698 129.0 672.5Q104 647 87 595Q80 574 80 554Q80 530 97.5 481.0Q115 432 115 391Q115 372 111.5 332.5Q108 293 108 275Q108 240 119 223Q142 187 181.0 165.5Q220 144 258 144ZM148 147Q146 135 146 128Q146 80 202 80Q246 80 299 116Q258 112 258 112Q199 112 148 147ZM126 847Q138 844 153 841Q155 860 161.5 906.0Q168 952 169 960Q170 964 166.5 965.5Q163 967 161 967Q152 967 151 963Q144 932 137.5 900.5Q131 869 126 847ZM185 831Q189 829 198.5 825.0Q208 821 213 819Q216 843 223.0 894.0Q230 945 231.0 949.0Q232 953 228.5 954.5Q225 956 223 956Q214 956 213 952Q206 921 198.0 887.5Q190 854 185 831Z" fill="currentColor"/>
  </g>
</svg>