<svg xmlns="http://www.w3.org/2000/svg" viewBox="0 -1000 1000 1000">
	<path fill="#000000" d="M438 243V188Q423 187 404.5 186Q386 185 373 183Q366 194 356.5 207Q347 220 340 230L180 123L212 77Q205 68 196 55.5Q187 43 180 32Q169 36 156 41Q143 46 133 50L61 -128L113 -148Q108 -170 105 -194.5Q102 -219 100 -233H49V-425H100Q102 -439 105 -463.5Q108 -488 113 -510L61 -529L133 -708L180 -690Q187 -701 196 -714Q205 -727 212 -735Q205 -746 195.5 -759Q186 -772 180 -781L340 -889L373 -840Q387 -843 405 -844Q423 -845 438 -846V-901H631V-846H679V-790H430Q376 -790 326 -760Q276 -730 236.5 -671.5Q197 -613 174 -527Q151 -441 151 -329Q151 -217 174 -131.5Q197 -46 236.5 12.5Q276 71 326 101Q376 131 430 131H679V188H631V243ZM458 224H611V168H659V151H430Q373 151 319.5 120Q266 89 223.5 28Q181 -33 156 -122.5Q131 -212 131 -329Q131 -446 156 -535.5Q181 -625 223.5 -686Q266 -747 319.5 -778Q373 -809 430 -809H659V-827H611V-882H458V-826Q438 -826 409 -824.5Q380 -823 363 -819L334 -861L208 -775Q215 -765 223 -754Q231 -743 237 -733Q227 -723 212.5 -702.5Q198 -682 189 -666L144 -683L86 -541L135 -522Q131 -503 127 -479.5Q123 -456 120.5 -435.5Q118 -415 117 -406H68V-252H117Q118 -243 120.5 -222.5Q123 -202 127 -178.5Q131 -155 135 -136L86 -118Q101 -80 114.5 -47Q128 -14 144 24Q155 20 167.5 15.5Q180 11 189 7Q198 23 212.5 44Q227 65 237 75L208 117L334 203L363 160Q381 164 410 166Q439 168 458 168Z"/>
</svg>