<svg xmlns="http://www.w3.org/2000/svg" viewBox="0 0 501 1000">
  <g transform="scale(1,-1) translate(0,-1000)">
    <path d="M208 691Q208 705 211.5 721.0Q215 737 235.5 764.5Q256 792 292 810Q284 815 284 823Q284 829 288.5 833.5Q293 838 299 838H357V924Q357 930 361.5 934.5Q366 939 372 939H418V985Q418 991 422.5 995.5Q427 1000 433.0 1000.0Q439 1000 443.5 995.5Q448 991 448 985V823Q448 813 439 809Q459 794 463 773Q483 680 483 548Q483 548 482.5 519.5Q482 491 482 490Q482 455 483.0 427.5Q484 400 485 387L486 374Q486 367 481.0 362.0Q476 357 469 357L430 358Q442 291 442 254Q442 212 430.5 165.0Q419 118 419 102Q419 89 432.0 76.0Q445 63 460.0 54.5Q475 46 488.0 35.5Q501 25 501 17Q501 10 496.0 5.0Q491 0 484 0H17Q10 0 5.0 5.0Q0 10 0 17Q0 28 14.0 35.0Q28 42 50.5 52.5Q73 63 86 77Q90 81 90 86Q90 89 87 103Q80 140 51.5 214.5Q23 289 23 345Q23 378 59 392V693Q47 683 43 675Q38 665 34.0 655.0Q30 645 26.0 631.0Q22 617 20 610Q19 620 14.0 642.0Q9 664 9 676Q9 690 14.0 700.0Q19 710 27.0 720.0Q35 730 39 738Q55 777 58.5 789.0Q62 801 67 833Q70 827 77.5 818.5Q85 810 89.0 802.5Q93 795 93 786V780Q93 752 78 719Q89 715 89 705V396Q95 395 106.0 389.5Q117 384 145.5 355.5Q174 327 204 282Q208 277 227 248Q227 248 235.0 277.0Q243 306 251.0 336.5Q259 367 259 371Q259 389 239.5 410.5Q220 432 220 445Q220 454 228 466Q242 484 256.0 494.0Q270 504 284 530Q300 557 300 581Q300 600 290.5 606.5Q281 613 262.0 618.0Q243 623 231 635Q208 658 208 691ZM293 717Q316 717 316.0 700.0Q316 683 293 683Q284 683 276.5 687.5Q269 692 269.0 700.0Q269 708 276.5 712.5Q284 717 293 717ZM350 629Q350 635 367.0 667.0Q384 699 384 719Q384 720 377.5 722.5Q371 725 355.0 728.0Q339 731 319 731Q312 731 303.0 730.5Q294 730 286.0 729.5Q278 729 271.5 728.5Q265 728 261 728L257 727Q253 727 251 728Q242 706 242 690Q242 672 258 657Q262 653 286.5 645.0Q311 637 321 622Q334 601 334 581Q334 553 315 515Q300 486 281.5 472.0Q263 458 254 445Q255 444 267.0 430.5Q279 417 285 405Q293 389 293 371Q293 358 271.0 273.5Q249 189 240 189Q227 189 207.5 218.5Q188 248 155.5 291.5Q123 335 87 360Q84 363 80 363Q72 363 64.5 357.0Q57 351 57 345Q57 293 85.0 221.5Q113 150 121 110Q123 103 123 87V85Q123 58 88 34H430Q385 70 385 103Q385 122 396.5 169.0Q408 216 408 255Q408 291 395 359H365Q358 359 353.0 364.5Q348 370 348 377ZM448 490Q448 491 448 520L449 549Q449 666 429 766Q424 793 364 793Q324 793 282 763Q310 765 319 765Q366 765 401 750Q418 743 418 720Q418 700 410.5 680.0Q403 660 393.5 643.5Q384 627 384 626L382 393L451 392Q448 446 448 490ZM418 909H387V838H418Z" fill="currentColor"/>
  </g>
</svg>