<svg xmlns="http://www.w3.org/2000/svg" viewBox="0 0 991 1000">
  <g transform="scale(1,-1) translate(0,-1000)">
    <path d="M107 20Q102 20 92.0 21.5Q82 23 62.0 26.5Q42 30 24 33Q0 34 0 46Q0 52 9.0 61.0Q18 70 25 70Q30 70 42.0 68.5Q54 67 55 67H56Q97 151 117 199Q119 205 145.5 235.0Q172 265 174 272Q191 334 195 385V389Q195 410 183.0 431.0Q171 452 171 457Q171 466 183.5 479.5Q196 493 196 501Q196 510 187.0 516.5Q178 523 169.0 535.5Q160 548 160 571Q160 602 185.5 626.5Q211 651 241 651Q276 651 297.5 628.5Q319 606 319 578Q319 559 295 521Q305 504 319.0 493.0Q333 482 342 482H343Q401 444 411.5 436.0Q422 428 426 420Q433 407 448.5 378.0Q464 349 469 340Q474 341 514 344Q537 345 546.5 346.5Q556 348 569.5 355.0Q583 362 595 376Q622 409 622 441Q622 451 618.5 475.5Q615 500 615 517Q615 536 617 547H616Q581 547 581 565Q581 578 589 581Q589 581 590.5 581.5Q592 582 593 582Q596 582 608.0 581.0Q620 580 627 580Q638 580 656 586Q654 587 652 590Q649 595 637.5 596.0Q626 597 626 604Q626 610 640 610Q670 610 676 601Q676 601 678.0 600.0Q680 599 682.5 598.0Q685 597 685 596Q688 588 700 587V591Q700 601 699.5 608.0Q699 615 697.0 621.5Q695 628 694.0 631.5Q693 635 688.5 644.5Q684 654 681 661Q600 664 583.0 664.0Q566 664 548 661L476 576Q463 539 450 529Q449 528 448 528Q445 528 445 537V549Q445 559 443 559Q442 558 441.0 558.0Q440 558 430.0 550.5Q420 543 410.0 538.0Q400 533 393 533Q380 533 380 546Q380 561 407.5 581.5Q435 602 458 612Q466 623 479.5 646.5Q493 670 505.5 684.0Q518 698 538 710Q545 712 574.0 716.0Q603 720 628 723L654 726Q659 727 667.0 729.0Q675 731 688.5 741.5Q702 752 702 767Q702 780 693.5 788.0Q685 796 674.5 801.5Q664 807 655.5 824.5Q647 842 647 871Q647 904 668 935Q662 935 659 937Q657 937 652.0 936.0Q647 935 643.0 934.0Q639 933 638 933Q636 933 632.5 932.5Q629 932 627 932Q616 932 616 942Q616 946 619.0 952.0Q622 958 622 962Q622 972 609 972H606Q589 972 589 988Q590 1000 604 1000H606Q630 998 644 991Q645 991 650.0 976.0Q655 961 665 961Q666 961 666.0 960.5Q666 960 667 960H668L692 961Q730 994 772 994Q828 994 861.0 959.0Q894 924 894 881Q894 869 889.5 855.0Q885 841 881.5 834.0Q878 827 868.0 810.5Q858 794 857 792Q866 775 879.5 765.0Q893 755 904.0 753.0Q915 751 924.0 746.0Q933 741 936 733L984 587Q991 567 991 548V538Q988 529 969 529Q944 529 879 532Q878 525 878 503Q879 465 881.5 418.5Q884 372 886 324L891 284Q913 222 948 136Q966 79 966 70Q966 53 932.5 26.5Q899 0 876 0H874Q849 0 844 8Q845 17 849.5 24.0Q854 31 860.5 37.5Q867 44 880.5 60.5Q894 77 909 99L832 282L691 281L652 167L609 68Q608 59 607.0 54.0Q606 49 606.0 48.0Q606 47 605.5 46.0Q605 45 605.0 43.5Q605 42 605 36Q603 12 597.0 6.0Q591 0 566 0H564Q537 0 496.5 16.0Q456 32 456 41Q456 44 458.0 47.5Q460 51 464.0 55.0Q468 59 470 61Q479 65 489 65Q496 65 511.5 61.5Q527 58 536 58Q548 58 554 60Q607 216 635 319H636L689 492Q668 518 668 525Q668 539 696 545Q697 549 697 557H688Q671 555 664 552Q664 552 660.0 551.0Q656 550 649.5 549.0Q643 548 637 548Q635 532 635.0 517.0Q635 502 638.5 477.0Q642 452 642 441Q642 401 611 364Q597 347 579.0 338.0Q561 329 549.5 327.0Q538 325 514 324Q492 323 479 321Q483 314 483 314Q486 308 489.0 305.5Q492 303 495.0 302.5Q498 302 499 302Q504 301 511.5 293.0Q519 285 519 281Q519 280 518 279Q518 279 517 278H516Q513 278 508.5 282.5Q504 287 501 287H499Q496 286 496 281Q496 273 507 263L518 253V252Q517 248 515.0 246.0Q513 244 511 244L509 243Q499 243 487.0 258.0Q475 273 471 281V286Q471 294 465 306Q419 368 397 411Q394 417 380.5 422.0Q367 427 353.5 429.5Q340 432 328 434L316 436Q313 427 313 340Q313 328 318.5 313.0Q324 298 324 290Q324 278 321.0 271.0Q318 264 314.5 259.5Q311 255 310 253V249Q310 243 314.0 220.5Q318 198 322 178L326 157Q329 143 333.5 133.0Q338 123 347.5 106.0Q357 89 365 73Q371 62 371 62Q371 61 374.5 55.5Q378 50 378 46Q378 40 369 37Q368 37 353.5 31.5Q339 26 322.0 20.0Q305 14 300 12Q275 1 268 1Q264 1 261.0 4.5Q258 8 258 12L257 15Q257 28 278.5 41.0Q300 54 300.0 56.0Q300 58 289.0 77.0Q278 96 264.0 128.0Q250 160 244 189Q240 207 237 218Q234 212 205.5 186.5Q177 161 175 156Q130 38 127 34Q116 20 107 20ZM211 589Q222 589 222 575Q222 571 218.5 568.0Q215 565 211 565Q195 565 195 575Q195 589 211 589ZM213 620Q233 617 252.0 605.0Q271 593 271 573Q271 572 270.5 567.5Q270 563 270 561Q270 551 284 543Q298 566 298 578Q298 598 282.0 613.5Q266 629 241 629Q225 629 213 620ZM283 249Q283 264 290.0 274.5Q297 285 297 290Q297 294 294.0 304.0Q291 314 291 323V387Q291 412 291.5 427.0Q292 442 295.0 450.0Q298 458 299.0 460.5Q300 463 305.5 466.0Q311 469 312 470L314 474Q296 483 285 494Q279 500 276.0 505.5Q273 511 269.5 518.0Q266 525 263 530V532Q252 539 252 561Q252 564 252.5 567.5Q253 571 253 573Q253 583 241.5 590.5Q230 598 218 600L207 602Q205 602 191 600Q182 586 182 571Q182 550 200.0 535.5Q218 521 218 501Q218 484 195 465Q219 424 219 402V386Q217 334 199 265Q197 257 170.5 227.5Q144 198 142 192Q137 180 121.0 137.5Q105 95 95.0 74.0Q85 53 77 51Q82 51 86.0 50.0Q90 49 95.0 48.0Q100 47 104 46Q121 85 151 166Q155 176 188.0 213.0Q221 250 226 264Q230 273 239 273Q244 273 247.0 270.0Q250 267 255.5 250.0Q261 233 270 196Q279 156 293.0 126.5Q307 97 316.0 82.5Q325 68 325 59Q325 53 322 50Q324 51 331.5 54.0Q339 57 343 58Q343 58 342.0 59.0Q341 60 341 61Q334 75 326.0 90.5Q318 106 314.0 113.5Q310 121 305.5 131.5Q301 142 299 154Q299 154 295.0 175.5Q291 197 287.0 220.5Q283 244 283 249ZM741 597V588L840 580Q840 590 841.5 607.5Q843 625 843 629Q844 660 849.0 678.0Q854 696 857.5 701.0Q861 706 871.0 711.0Q881 716 883 718L887 725Q854 742 842.0 751.0Q830 760 821.0 779.0Q812 798 807 806V810Q790 822 790 854Q790 858 790.5 864.5Q791 871 791 874Q791 890 773.5 901.0Q756 912 738 916L720 919Q715 919 706.0 917.5Q697 916 694 916Q680 894 680 871Q680 849 689.0 836.0Q698 823 708.0 818.5Q718 814 727.0 801.0Q736 788 736 767Q736 754 729.5 742.0Q723 730 718.5 726.0Q714 722 701 711Q741 642 741 597ZM847 486 722 501 676 314 850 316ZM725 897Q732 897 737.0 890.5Q742 884 742 876Q742 870 736.5 865.5Q731 861 725 861Q701 861 701 876Q701 897 725 897ZM728 947Q759 943 789.0 924.0Q819 905 819 874Q819 872 818.5 864.5Q818 857 818 854Q818 849 819.0 845.0Q820 841 823.0 838.0Q826 835 826.5 834.0Q827 833 833 830L839 826Q862 861 862 881Q862 913 836.5 937.0Q811 961 772 961Q747 961 728 947ZM880 576 921 573 889 665Q882 615 880 576ZM839 537 738 550Q738 546 737.0 539.0Q736 532 736 529L838 518Q838 519 838.5 525.5Q839 532 839 537Z" fill="currentColor"/>
  </g>
</svg>