<svg xmlns="http://www.w3.org/2000/svg" viewBox="0 0 975 1000">
  <g transform="scale(1,-1) translate(0,-1000)">
    <path d="M699 39Q709 39 709 49Q709 69 685.5 116.0Q662 163 649 174Q611 207 523 207Q538 127 580 91Q593 80 636.5 59.5Q680 39 699 39ZM795 453Q835 453 899 469Q913 472 940 487Q934 509 931 519Q905 601 904 669Q904 687 903 698H699Q699 693 698.5 683.5Q698 674 698 670Q697 599 672 520Q671 516 667.5 504.5Q664 493 662 486Q691 471 704 468Q768 453 795 453ZM874 500Q874 494 869.5 489.0Q865 484 858 484H744Q728 484 728 499Q729 506 729 506L785 636Q785 639 790.5 645.0Q796 651 802 651Q806 651 810.5 647.5Q815 644 817 640L819 637Q874 503 874 500ZM551 257Q551 267 558.0 269.5Q565 272 584 272Q598 272 604 271L693 340L739 427Q711 433 695 437Q684 440 674.0 444.5Q664 449 653.0 454.5Q642 460 636 463Q627 468 627 478V481Q627 483 646.5 544.0Q666 605 666 669Q666 673 666.5 682.5Q667 692 667 697H649Q641 697 635.5 702.5Q630 708 630.0 716.0Q630 724 635.5 730.0Q641 736 649 736L953 737Q972 737 972 718Q972 710 966.5 704.0Q961 698 953 698H935Q935 693 935.5 683.5Q936 674 936 670Q936 616 955.5 548.0Q975 480 975 479V478Q975 468 966 464Q955 460 944.0 453.5Q933 447 923 443L877 244L760 153Q760 153 760.5 149.5Q761 146 761 143Q761 109 738 101Q749 70 749 45Q749 38 748.0 32.5Q747 27 743.5 18.5Q740 10 729.5 5.0Q719 0 703 0Q669 0 622.0 19.5Q575 39 552 58Q526 79 506.0 114.0Q486 149 483 174Q479 204 475 218L8 611Q0 619 0 627Q0 637 5.5 642.5Q11 648 15.0 649.0Q19 650 21 650Q31 650 36 645L503 252Q510 251 524 251Q528 251 536.0 251.5Q544 252 548 252H552Q552 253 551.5 254.5Q551 256 551 257ZM802 598 769 516H833ZM658 246Q669 235 669 231Q669 225 660 221Q676 212 688 197Q695 203 707 203Q715 203 719 202L823 290L851 426Q837 424 813 422L735 300Z" fill="currentColor"/>
  </g>
</svg>