<svg xmlns="http://www.w3.org/2000/svg" viewBox="0 0 906 1000">
  <g transform="scale(1,-1) translate(0,-1000)">
    <path d="M226 417H30Q31 417 66.0 394.0Q101 371 102 370Q107 365 107 359Q99 256 82 30H174Q149 359 149 359Q149 367 156 372ZM906 985Q906 976 886.5 962.5Q867 949 849.0 949.0Q831 949 813.5 960.5Q796 972 788 972Q778 972 759.5 958.0Q741 944 721 944Q707 944 691.5 957.0Q676 970 670.0 970.0Q664 970 649 959Q687 953 712.0 933.5Q737 914 746.0 889.5Q755 865 757.5 852.0Q760 839 760 829Q760 818 754.5 808.0Q749 798 749 790Q749 775 751.0 749.0Q753 723 753 712Q741 553 741 545Q741 539 743 501L753 315V303Q760 246 760 212V202L759 74Q757 56 757 43V35Q757 19 753.0 11.0Q749 3 744.5 1.5Q740 0 731 0H643Q621 0 618 19Q618 38 705 59L692 283H594Q592 244 563 75V71Q563 66 562.0 56.5Q561 47 561 44V36Q561 13 554.0 6.5Q547 0 522 0H450Q439 0 432.0 4.5Q425 9 423.5 13.0Q422 17 422 20Q422 37 510 60L532 311H533L553 494Q553 515 558.5 542.5Q564 570 564 593Q564 596 563.5 600.5Q563 605 563 607Q467 559 467 559L282 546Q273 545 246 536Q242 501 218.5 478.0Q195 455 162 447H226Q239 447 247.5 438.5Q256 430 256 417Q256 405 246.5 396.5Q237 388 180 351Q204 30 204 30Q204 17 195.5 8.5Q187 0 174 0H82Q69 0 60.5 8.5Q52 17 52 30Q57 81 76 351Q12 393 9 396Q0 405 0 417Q0 430 8.5 438.5Q17 447 30 447H93Q56 456 32.0 483.0Q8 510 8 551Q8 585 30 612Q21 612 21.0 622.0Q21 632 31 632H177Q169 638 166 642H165Q160 646 160 657V658Q165 673 191 673Q199 673 208.0 671.5Q217 670 225.5 668.0Q234 666 236 666H242Q250 666 282 661L429 719L558 741Q570 743 579.5 760.0Q589 777 589 799Q589 800 588.5 802.5Q588 805 588 806Q587 818 563 818Q561 818 557.0 817.5Q553 817 552 817H468Q470 803 470 799Q470 789 464.0 780.0Q458 771 446 771Q425 771 425 796Q425 800 426.5 808.0Q428 816 428 818Q410 819 403.5 820.5Q397 822 392.0 827.0Q387 832 387 844Q387 871 402 879Q410 883 423.5 891.0Q437 899 443 902Q523 950 580 958Q562 969 559 969Q553 969 537.5 956.5Q522 944 508 944Q488 944 469.5 958.0Q451 972 441 972Q433 972 415.5 960.5Q398 949 380 949Q361 949 342.0 961.5Q323 974 323 984Q323 998 337 998Q343 998 355.0 987.5Q367 977 380 977Q390 977 407.0 988.5Q424 1000 441 1000Q460 1000 479.0 986.0Q498 972 508 972Q512 972 528.0 984.5Q544 997 559 997Q575 997 590.5 986.5Q606 976 614 976Q615 976 617.0 976.5Q619 977 620 977Q627 977 641.0 987.5Q655 998 670 998Q686 998 702.0 985.0Q718 972 721 972Q730 972 749.0 986.0Q768 1000 788 1000Q804 1000 821.0 988.5Q838 977 849 977Q862 977 874.5 988.0Q887 999 892 999Q906 999 906 985ZM550 896Q550 902 557.0 906.5Q564 911 571.0 911.0Q578 911 584.5 906.5Q591 902 591 896Q591 882 571 882Q550 882 550 896ZM628 782Q628 755 618.0 741.0Q608 727 597.5 722.5Q587 718 587 714Q587 707 592 684Q636 704 644 704Q655 704 664.5 698.5Q674 693 674 685Q674 670 659.5 659.5Q645 649 602 627Q605 610 605 599V593Q605 586 600 531L702 520Q702 522 705.0 556.5Q708 591 713.0 637.0Q718 683 721 704Q715 762 715 789Q715 799 723.5 808.5Q732 818 732 831Q732 836 730.5 847.0Q729 858 722.0 876.0Q715 894 704 905Q675 934 619 934Q572 934 541.0 921.5Q510 909 416 856Q414 851 414 846Q452 843 481 843Q493 843 516.5 843.5Q540 844 552 844Q590 844 613 842Q626 842 626 829Q626 820 627.0 804.5Q628 789 628 782ZM711 488 586 503 573 313H716ZM225 536Q200 537 191.5 542.5Q183 548 183 559V564Q184 572 189.0 579.0Q194 586 198 586Q206 585 218 584Q208 603 193 612H62Q29 591 29.0 551.0Q29 511 58.5 489.0Q88 467 128 467Q163 467 191.0 485.0Q219 503 225 536ZM553 666V678Q553 683 543.0 683.0Q533 683 448 661L276 632Q268 631 259.0 628.5Q250 626 244.5 624.0Q239 622 237 622H234Q234 612 224 612Q237 595 242 582Q275 578 288 575L442 609Q494 637 553 666Z" fill="currentColor"/>
  </g>
</svg>