<svg xmlns="http://www.w3.org/2000/svg" viewBox="0 0 992 1000">
  <g transform="scale(1,-1) translate(0,-1000)">
    <path d="M309 941Q315 941 319.5 936.5Q324 932 324 926Q324 914 304 894Q294 884 283 882Q284 879 284 874Q284 866 280.0 855.5Q276 845 272 838L267 832Q263 828 256 828Q250 828 245.5 832.5Q241 837 241 843Q241 848 247.5 859.0Q254 870 254 874Q254 879 240 886Q236 886 232 888Q214 898 204 903Q184 913 167 913Q142 913 116 884Q91 856 90 821Q85 650 84 535Q90 517 98 515Q168 497 258 496L370 533L388 539Q393 542 405.0 547.5Q417 553 421.5 555.5Q426 558 431.5 562.5Q437 567 440 573Q449 590 449 603Q448 607 448 607Q446 613 441.5 619.0Q437 625 433.5 627.5Q430 630 429 630Q425 630 419.5 627.5Q414 625 411 625Q404 625 394 635Q372 661 372 691Q372 698 373.0 704.5Q374 711 374.5 715.5Q375 720 378.5 726.0Q382 732 382.5 734.5Q383 737 388.0 743.5Q393 750 393.5 751.0Q394 752 400 760L407 767Q432 801 458 813Q449 818 442 824Q422 797 399 797Q388 797 374 814Q366 824 366 836Q366 842 369.0 855.5Q372 869 372 877Q372 892 364.0 897.5Q356 903 356 908Q356 918 375 918Q388 918 396.5 908.5Q405 899 405 884Q405 876 401.5 860.0Q398 844 398 838Q398 828 408 828Q413 828 427 840Q407 866 407 900Q407 941 436.5 970.5Q466 1000 507.0 1000.0Q548 1000 577.0 970.5Q606 941 606 900Q606 862 582 835Q585 833 589.5 829.0Q594 825 597.5 823.0Q601 821 605 821Q615 821 615 830Q615 836 611.5 852.0Q608 868 608 876Q608 891 616.5 901.0Q625 911 638 911Q657 911 657 901Q657 896 649.0 890.5Q641 885 641 870Q641 862 644.0 848.0Q647 834 647 828Q647 817 639 807Q625 790 614 790Q589 790 569 819L567 821Q557 813 548 809Q554 806 558 802Q581 783 591.5 769.0Q602 755 611.0 719.5Q620 684 620 627Q620 619 622 579Q647 562 648 562L772 528L890 543Q899 551 906 561Q905 673 900 824Q899 855 873 886Q857 906 838 906Q823 906 806 896Q806 896 779 881Q775 879 772 879Q756 871 756 866Q756 862 762.5 851.0Q769 840 769 835Q769 829 764.5 824.5Q760 820 754 820Q747 820 743 824Q726 847 726 866Q726 871 727 874Q716 876 706 886Q686 906 686 918Q686 924 690.5 928.5Q695 933 701 933Q708 933 712 929Q713 928 717.0 921.0Q721 914 725.5 908.5Q730 903 734 903Q740 903 752 909Q755 913 759 916Q763 918 787 931Q815 946 839 946Q877 946 902 914Q939 868 940 825Q948 538 948 295Q948 274 948.5 246.5Q949 219 949.5 194.0Q950 169 950.0 147.5Q950 126 950 112L951 98Q951 92 950 90Q971 82 981 54Q983 46 985 43Q992 36 992 29Q992 20 982.0 10.0Q972 0 954 0H865Q858 0 853.5 5.0Q849 10 849 17Q849 25 855.5 30.5Q862 36 870 36H872Q873 36 877.0 38.0Q881 40 882 40L878 44Q873 49 871.0 54.5Q869 60 869.0 64.5Q869 69 868 70Q868 70 862 77Q850 92 850 102Q850 113 857.5 121.5Q865 130 875 130H877Q895 130 911 116Q910 162 909.0 211.0Q908 260 908 295Q908 363 906 499Q901 504 895 504H893Q878 502 835.5 489.5Q793 477 771 477H766Q756 478 711.0 488.0Q666 498 634 498H626Q601 426 596.5 370.5Q592 315 587 71L629 40Q632 39 638.5 38.0Q645 37 647.5 36.5Q650 36 654.5 34.5Q659 33 661.0 31.0Q663 29 664.5 25.5Q666 22 666 18Q666 0 647 0Q644 0 609.0 7.0Q574 14 524.0 20.5Q474 27 434 27Q380 27 172 1Q172 1 169 1Q151 1 151 19V28Q151 36 156.5 39.0Q162 42 185 46Q185 48 183.0 57.0Q181 66 181 72Q181 87 189.0 96.5Q197 106 221 125Q221 163 216.0 214.5Q211 266 211 300V331Q211 332 210.5 336.0Q210 340 210 341Q210 358 223.5 368.5Q237 379 253.0 379.0Q269 379 275 373L424 240H425Q425 266 424.5 301.5Q424 337 424 355Q424 383 422.5 397.5Q421 412 419.5 417.0Q418 422 412.5 434.5Q407 447 402 463V464L398 476Q298 446 257 446Q242 446 181.0 456.5Q120 467 96 470H95Q91 470 83 466Q82 409 82 293Q82 258 81.0 208.5Q80 159 79 112Q97 130 117 130Q127 130 134.5 121.0Q142 112 142.0 101.0Q142 90 131 76Q127 72 125 70L124 69Q123 68 123.0 64.0Q123 60 121.0 54.5Q119 49 114 44Q113 43 112 42L111 40Q112 40 116.0 38.0Q120 36 121 36Q134 34 135 34Q143 31 143 16Q143 0 127 0H38Q20 0 10.0 9.5Q0 19 0 28Q0 36 7 43Q11 49 12 53Q22 81 40 89Q39 91 39 95Q39 156 42 293Q43 335 45.0 516.5Q47 698 50 823Q52 877 88 912Q128 952 173 952Q199 952 224 938Q251 923 251 923Q253 922 257 918Q259 917 266.0 914.5Q273 912 276 912Q280 912 284.5 917.5Q289 923 293.0 929.5Q297 936 298 937Q302 941 309 941ZM454.5 847.5Q476 826 507.0 826.0Q538 826 559.0 847.5Q580 869 580.0 900.0Q580 931 559.0 953.0Q538 975 507.0 975.0Q476 975 454.5 953.0Q433 931 433.0 900.0Q433 869 454.5 847.5ZM117 108Q104 108 88 92Q73 76 59.0 72.5Q45 69 41 65Q35 59 29.5 44.5Q24 30 22 27Q27 21 38 21Q65 23 65 23Q66 24 67 24Q69 25 80 36Q83 39 87 39Q88 39 90 38V39Q90 49 99 58Q103 63 103.5 69.0Q104 75 107 80Q109 83 115.5 90.5Q122 98 122 101Q122 108 117 108ZM875 108Q870 108 870 102Q870 99 877.0 91.5Q884 84 886 81Q889 76 889.5 69.5Q890 63 894 58Q902 50 902 39H905Q909 39 912 36Q921 27 925 25Q926 25 927 24H928Q940 23 954 22Q965 22 970 28Q968 31 962.5 45.0Q957 59 951 65Q947 69 933.0 72.5Q919 76 904 92Q888 108 875 108ZM595 624Q596 631 596 645Q596 689 581.0 729.0Q566 769 541 784Q518 799 502 799Q481 799 463.5 790.0Q446 781 440 772L433 763Q433 763 443.5 761.0Q454 759 455.0 758.5Q456 758 465.0 756.0Q474 754 476.5 753.0Q479 752 486.0 749.5Q493 747 497.0 744.5Q501 742 507.0 739.0Q513 736 518.0 732.0Q523 728 528 723Q535 716 535 708Q534 702 532 698Q532 690 506 677Q508 676 511.0 667.5Q514 659 518 656Q539 637 539 551V531L587 532Q590 556 591.5 570.5Q593 585 593.5 598.5Q594 612 595 624ZM430 718Q446 718 446.0 706.0Q446 694 430 694Q413 694 413.0 706.0Q413 718 430 718ZM246 340Q246 339 246.0 337.5Q246 336 246.5 333.5Q247 331 247.0 322.5Q247 314 247 300Q247 269 251.5 222.5Q256 176 257 152Q287 171 376 215L389 222L254 342H253Q247 342 246 340ZM552 247Q428 199 393 182Q383 177 359.5 165.5Q336 154 327.5 149.5Q319 145 301.5 135.5Q284 126 273.5 118.5Q263 111 248.5 100.0Q234 89 220 76Q218 74 218 72Q218 68 222 52Q362 75 436 75Q495 75 551 61Q552 106 552 247ZM589 506H571Q547 506 525 508Q523 508 519.5 511.5Q516 515 516 517Q516 528 517.0 540.5Q518 553 518 564V570Q517 624 501 643Q487 660 484.5 664.0Q482 668 482 676Q482 685 498.0 693.5Q514 702 514 707Q513 727 419 744Q409 732 405.5 727.5Q402 723 398.5 713.0Q395 703 395 691Q395 684 399.0 673.5Q403 663 407 656L411 650Q420 653 429 653Q455 653 466 627Q474 609 473 603Q472 577 468 570Q456 550 449.0 543.5Q442 537 421 529Q428 503 439.5 479.0Q451 455 456.0 430.5Q461 406 461 355Q461 340 461.5 315.0Q462 290 462 276V253L552 286Q553 349 557.5 383.0Q562 417 574.0 454.0Q586 491 589 506Z" fill="currentColor"/>
  </g>
</svg>