<svg xmlns="http://www.w3.org/2000/svg" viewBox="0 0 492 1000">
  <g transform="scale(1,-1) translate(0,-1000)">
    <path d="M262.0 653.5Q255 658 255.0 665.0Q255 672 262.0 676.5Q269 681 277.0 681.0Q285 681 292.5 676.5Q300 672 300.0 665.0Q300 658 292.5 653.5Q285 649 277.0 649.0Q269 649 262.0 653.5ZM332 597Q332 603 348.5 633.5Q365 664 365 683Q365 684 359.0 686.5Q353 689 337.5 691.5Q322 694 303 694Q296 694 287.5 693.5Q279 693 271.5 692.5Q264 692 258.0 691.5Q252 691 248 690H244Q240 690 238 691Q229 670 229 655Q229 639 244 624Q247 621 271.0 613.0Q295 605 305 591Q317 573 317 551Q317 524 298 489Q284 462 266.5 448.0Q249 434 241 422Q242 420 253.0 407.5Q264 395 270 384Q277 371 277 352Q277 340 256.5 259.5Q236 179 228 179Q216 179 197.0 207.0Q178 235 147.0 277.0Q116 319 82 342Q80 344 76 344Q68 344 61.0 338.5Q54 333 54 327Q54 275 85.5 195.0Q117 115 117 82Q117 55 83 32H408Q365 62 365 99Q365 117 376.0 160.5Q387 204 387 242Q387 271 375 340L346 341Q330 341 330 357ZM425 465Q425 466 426 494V521Q426 629 407 727Q402 753 345 753Q305 753 267 725Q280 726 303 726Q346 726 380 712Q397 706 397 684Q397 665 390.0 646.0Q383 627 374.5 612.0Q366 597 365 595L362 374L428 372Q425 423 425 465ZM173 991Q173 1000 183 1000Q187 1000 193 995L199 990Q200 990 200 990L202 989Q204 989 211.0 991.5Q218 994 223 994Q244 994 266 949Q270 947 286.0 940.0Q302 933 312 928Q326 937 344.0 937.0Q362 937 376 928Q438 957 449 962Q449 963 453 975Q454 978 463 978Q491 978 491 962Q491 957 487.5 950.0Q484 943 480 939L476 935H474Q459 939 459 939Q454 937 432.0 926.0Q410 915 396 909Q404 896 407 883Q415 879 460 858Q470 862 475 862H477Q492 848 492 836Q492 829 485.0 824.5Q478 820 471 819L464 818Q453 818 450 835Q397 859 392 862H379V812Q379 806 374.5 801.5Q370 797 364.0 797.0Q358 797 353.5 801.5Q349 806 349 812V862H331V785H347Q429 785 439 734Q458 645 458 520V465Q458 431 459.0 405.5Q460 380 460.5 368.0Q461 356 461 355Q461 339 445 339L408 340Q420 266 420 241Q420 201 409.0 157.0Q398 113 398 98Q398 78 436.5 52.0Q475 26 475 16Q475 0 459 0H16Q0 0 0 16Q0 26 13.0 33.0Q26 40 47.0 50.0Q68 60 81 73Q85 77 85 81Q85 82 84.5 83.0Q84 84 83.5 87.5Q83 91 82 97Q75 132 48.0 203.0Q21 274 21 327Q21 346 37.0 361.0Q53 376 74 376Q122 376 193 268Q196 264 203.5 252.5Q211 241 215 235Q215 235 222.5 262.5Q230 290 237.5 319.0Q245 348 245 352Q245 369 227.0 389.0Q209 409 209 422Q209 431 216 442Q228 458 237.0 464.5Q246 471 252.5 478.0Q259 485 269 504Q269 505 272.0 510.0Q275 515 277.5 520.5Q280 526 282.5 534.5Q285 543 285 551Q285 565 279.0 572.5Q273 580 264.0 581.0Q255 582 242.0 587.5Q229 593 219 603Q197 625 197 656Q197 695 225.5 729.5Q254 764 301 779V862H296Q274 852 265 848Q240 803 222 803Q217 803 210.0 805.5Q203 808 201 808Q200 808 200 808L198 807Q198 807 192.0 802.0Q186 797 182 797Q172 797 172 806Q172 811 180 819Q177 822 177 825H172Q159 825 159 833Q159 842 170 844L181 847Q183 848 187.5 859.0Q192 870 200 873Q206 876 219 876Q230 876 255 871Q259 873 268.0 877.0Q277 881 282 884Q285 898 293 909Q272 918 256 926Q226 921 220 921Q207 921 201 924Q193 927 188.5 938.0Q184 949 182 950Q182 950 171.0 953.5Q160 957 160 965Q160 972 172 972H178Q178 975 181 978Q173 986 173 991ZM213 826Q219 824 221 824Q227 824 235 837ZM227 856Q224 857 219 857Q209 857 204 845Q220 853 227 856ZM387 881Q384 897 372.0 907.5Q360 918 344.0 918.0Q328 918 316.5 907.5Q305 897 302 881ZM214 971 236 960Q228 973 222 973Q220 973 214 971ZM228 942Q207 951 205 952Q210 941 219 941Q224 941 228 942Z" fill="currentColor"/>
  </g>
</svg>