<svg xmlns="http://www.w3.org/2000/svg" viewBox="0 0 585 1000">
  <g transform="scale(1,-1) translate(0,-1000)">
    <path d="M521 700Q521 705 518.0 709.5Q515 714 513 714Q488 714 462 673Q451 657 441 617Q479 636 498 655Q518 675 521 699ZM417 644Q420 657 428.5 675.0Q437 693 459.0 716.0Q481 739 507 744H513Q529 744 540.0 731.0Q551 718 551 701Q551 663 507 623Q538 617 563 579Q568 569 574.0 562.5Q580 556 582.5 553.0Q585 550 585 545Q585 539 580.5 534.5Q576 530 570 530Q560 530 550.0 546.0Q540 562 526.0 578.5Q512 595 493 595Q489 595 445 581L456 489Q464 421 472 411Q472 343 448 343Q440 343 433.5 357.5Q427 372 427 388Q427 401 431.0 407.0Q435 413 436 423Q432 488 426 518L424 494Q423 490 423 451Q423 420 426 414Q426 412 425.0 406.0Q424 400 423.0 395.0Q422 390 420.0 383.5Q418 377 416.0 372.0Q414 367 411.5 362.0Q409 357 405.0 354.5Q401 352 397 352H391Q377 352 377 388Q377 400 379.5 407.0Q382 414 386.5 420.5Q391 427 393 432Q395 482 395 497Q395 519 394.5 537.5Q394 556 392.5 568.5Q391 581 389.5 591.5Q388 602 387.0 607.5Q386 613 384.5 617.0Q383 621 382 622V624Q369 641 348.5 661.5Q328 682 317 696Q317 685 320.0 647.0Q323 609 326.0 576.5Q329 544 329 543Q349 500 349 474V471Q349 458 329 395L331 226Q331 214 334.5 180.0Q338 146 338 121Q338 113 337.5 102.0Q337 91 336.5 81.0Q336 71 336.0 62.5Q336 54 336 48L335 43V35Q335 19 331.0 11.0Q327 3 322.5 1.5Q318 0 309 0H221Q211 0 205.0 4.0Q199 8 197.5 11.5Q196 15 196 18Q196 39 283 60L270 194H172Q167 143 141 75V71Q141 66 140.5 57.5Q140 49 140 46L139 36Q139 33 137.0 25.5Q135 18 125.0 9.0Q115 0 100 0H28Q17 0 10.0 4.0Q3 8 1.5 12.0Q0 16 0 19Q0 39 88 60Q92 87 99.5 141.0Q107 195 111 222Q144 522 144 581Q144 582 147.0 635.0Q150 688 150 689Q148 751 148 751Q136 747 126 747Q122 747 110.5 748.5Q99 750 84.0 756.5Q69 763 69.0 772.0Q69 781 84.0 794.0Q99 807 99 808H88Q49 808 49 845Q49 860 64 888Q60 894 60 898Q60 901 64.0 913.0Q68 925 77.0 942.0Q86 959 98 968Q137 1000 172 1000Q243 1000 293.5 943.0Q344 886 344 813Q344 775 317 763Q333 756 336 753Q396 677 417 644ZM198 933Q216 933 232.5 923.5Q249 914 249.0 895.0Q249 876 234.0 857.5Q219 839 218 833V827Q218 817 224.0 809.0Q230 801 238.5 796.5Q247 792 256.5 789.5Q266 787 271.0 786.5Q276 786 278 786Q299 786 307 794Q312 799 312 814Q312 879 264 927Q223 968 171 968Q164 968 154.0 965.5Q144 963 127.0 950.5Q110 938 101 917Q102 916 102 916Q102 914 103 914L172 916Q182 933 198 933ZM136 872Q151 872 151 853Q151 841 136 841Q116 841 116 853Q116 860 122.0 866.0Q128 872 136 872ZM93 840Q131 840 131 809Q131 792 117 780Q120 779 126 779Q134 779 137 782Q139 784 142.0 793.0Q145 802 149.5 808.5Q154 815 162 815Q178 815 178 799Q179 765 180.0 745.5Q181 726 182 687Q182 686 182.5 639.0Q183 592 183 591Q183 582 184 565L288 575V614Q288 670 283 712Q282 720 279.5 726.5Q277 733 272.5 741.5Q268 750 266 755Q245 757 215 774Q186 789 186 829Q186 853 201.5 870.5Q217 888 217 895Q217 899 201 901Q190 884 180 884L98 882Q81 856 81 845V841Q82 841 85.0 840.5Q88 840 90 840ZM316 464Q316 486 297 543L170 537L151 224H294L296 398Q298 404 307.0 426.0Q316 448 316 464Z" fill="currentColor"/>
  </g>
</svg>