<svg xmlns="http://www.w3.org/2000/svg" viewBox="0 0 802 1000">
  <g transform="scale(1,-1) translate(0,-1000)">
    <path d="M26 873Q26 885 32.0 910.0Q38 935 38 947L0 976L18 1000Q100 937 161.5 890.0Q223 843 250.0 822.0Q277 801 281 798Q291 821 306.0 836.0Q321 851 348 870V901V949H538V903Q538 880 561.5 858.0Q585 836 617.0 817.5Q649 799 694.0 765.5Q739 732 772 695Q802 661 802 626Q802 603 772 542Q771 540 767.5 533.0Q764 526 763.0 524.0Q762 522 759.0 516.0Q756 510 755.0 507.5Q754 505 752.0 499.0Q750 493 749.0 490.0Q748 487 746.0 481.0Q744 475 743.5 470.5Q743 466 742.0 460.0Q741 454 740 447Q740 439 747.0 427.0Q754 415 754 404Q754 389 744 379Q753 373 753 360Q753 340 733 336Q723 334 693.0 332.0Q663 330 650 327Q634 324 629 318Q592 278 570.5 224.0Q549 170 524.0 120.5Q499 71 449 31Q411 0 356 0Q308 0 281 27Q265 43 261 64Q246 135 246 207Q246 267 261.5 384.5Q277 502 277 576Q277 613 269.5 649.5Q262 686 262 707Q262 735 270 767L271 768Q253 773 194 780Q158 785 143.5 787.0Q129 789 100.0 799.5Q71 810 48 828Q26 844 26 873ZM66 925Q65 918 60.5 899.5Q56 881 56 873Q56 859 66 852Q87 837 111.0 828.0Q135 819 148.5 816.5Q162 814 197 810Q204 809 220 807ZM458 507Q458 492 474.0 462.5Q490 433 490 407Q490 368 451 333Q432 316 428 305Q412 268 412 240Q412 238 412.5 232.5Q413 227 413 224L545 437Q556 448 566 448H568Q572 448 605 435Q605 455 631 477Q636 481 642 487L666 608L525 727Q514 699 501 669Q462 577 458 511ZM488 899H398V861Q397 846 383 836Q348 813 336.0 798.0Q324 783 317 755Q310 726 310 706Q310 692 317.5 654.5Q325 617 325 576Q325 499 309.5 381.0Q294 263 294 207Q294 135 307 73Q312 48 355 48Q395 48 420 68Q429 75 442 88Q474 120 492.5 164.5Q511 209 533.0 258.5Q555 308 593 350Q605 364 633 372L576 395L409 128Q397 116 389 116Q379 116 372.0 123.0Q365 130 365 140Q365 141 365.5 146.0Q366 151 366.5 160.0Q367 169 367 178Q367 190 366.0 208.0Q365 226 365 236Q365 277 384 324Q393 345 419 369Q429 378 433.0 382.0Q437 386 440.0 392.5Q443 399 443 408Q443 421 426.5 451.0Q410 481 410 508Q410 509 410.5 511.0Q411 513 411 514Q415 585 457 687Q482 748 490 775Q490 776 492.0 780.0Q494 784 499.5 788.0Q505 792 513 792Q523 792 529 786Q709 635 709 635Q716 628 716 618Q716 615 688 472Q686 459 662 440Q660 438 657.5 436.0Q655 434 654 433Q673 405 693 405Q698 405 703 408Q692 430 692 448V451Q698 502 729 564Q755 616 755 627Q755 647 715 687Q683 719 622.0 755.5Q561 792 526 822Q526 822 524.5 823.0Q523 824 521.0 825.5Q519 827 516.5 829.5Q514 832 511.0 835.5Q508 839 505.0 843.0Q502 847 499.0 853.0Q496 859 494.0 865.5Q492 872 490.0 881.0Q488 890 488 899Z" fill="currentColor"/>
  </g>
</svg>