<svg xmlns="http://www.w3.org/2000/svg" viewBox="0 0 816 1000">
  <g transform="scale(1,-1) translate(0,-1000)">
    <path d="M772 40 776 432Q763 446 738 446Q718 446 703.5 438.0Q689 430 679.0 413.5Q669 397 662.5 380.5Q656 364 646.0 337.5Q636 311 626 292Q592 224 533.5 180.5Q475 137 403 137Q330 137 274.0 175.5Q218 214 186 282Q176 304 160.0 355.5Q144 407 128.0 429.5Q112 452 82 452Q65 452 40 434V40ZM738 486Q763 486 789.5 469.5Q816 453 816 440L812 20V19Q812 11 806.0 5.5Q800 0 792 0H20Q12 0 6.0 5.5Q0 11 0 20V444Q0 454 8 460Q55 492 82 492Q110 492 131.0 479.5Q152 467 165.0 444.0Q178 421 186.5 399.0Q195 377 204.5 346.5Q214 316 222 299Q270 192 376 179L382 595H197Q188 595 182.0 601.0Q176 607 176 616Q176 624 182.0 630.0Q188 636 197 636H366Q291 743 291 857Q291 937 320.5 966.5Q350 996 399 999Q456 994 476.0 968.0Q496 942 508 881V870Q508 744 431 636H614Q623 636 628.5 630.0Q634 624 634 616Q634 595 614 595H423L430 179Q480 187 522.0 222.5Q564 258 591 310Q599 326 610.0 355.0Q621 384 629.5 403.5Q638 423 652.0 444.0Q666 465 687.5 475.5Q709 486 738 486ZM472 824Q474 835 474 857Q474 967 399 967Q327 967 327 857Q328 824 328 824Q332 774 350.5 731.0Q369 688 383.5 670.5Q398 653 401.0 653.0Q404 653 419.0 674.0Q434 695 451.5 738.0Q469 781 472 824Z" fill="currentColor"/>
  </g>
</svg>