<svg xmlns="http://www.w3.org/2000/svg" viewBox="0 -1000 1000 1000">
	<path fill="#000000" d="M217 174L332 -126H396V-665Q387 -672 356.5 -680.5Q326 -689 286.5 -695Q247 -701 208 -701Q104 -701 49 -688V-910Q79 -903 117.5 -900.5Q156 -898 208 -898Q244 -898 283 -902.5Q322 -907 354.5 -914Q387 -921 402 -928H464V-126H530L644 174ZM416 -126H444V-908H416ZM396 -689V-901Q381 -896 349 -890.5Q317 -885 279 -881.5Q241 -878 208 -878Q160 -878 127 -879.5Q94 -881 68 -886V-713Q82 -715 106 -716.5Q130 -718 157.5 -719Q185 -720 208 -720Q237 -720 274.5 -716Q312 -712 346 -705Q380 -698 396 -689ZM431 -38L500 -106H361ZM246 154H338L419 -22L342 -98ZM523 154H616L519 -98L442 -22ZM359 154H501L431 -1Z"/>
</svg>