<svg xmlns="http://www.w3.org/2000/svg" viewBox="0 -1000 1000 1000">
	<path fill="currentColor" d="M191 24V-125H349Q279 -142 218 -174Q157 -206 113 -257.5Q69 -309 49 -386H104Q180 -307 269 -275Q358 -243 468 -233V-432Q468 -473 489 -497.5Q510 -522 540 -533Q570 -544 595 -544H676Q702 -544 731.5 -533Q761 -522 782 -497.5Q803 -473 803 -432V-236Q925 -252 991 -282Q1057 -312 1074 -331Q1067 -393 1075 -459Q1083 -525 1093 -586H1155Q1153 -567 1150 -536.5Q1147 -506 1145 -475Q1143 -444 1143 -423Q1143 -389 1146.5 -363Q1150 -337 1153 -317Q1156 -298 1157 -285Q1158 -272 1152 -264Q1128 -231 1086.5 -204Q1045 -177 995.5 -157.5Q946 -138 895 -125H1052V24ZM503 -125H753Q796 -125 850 -136Q904 -147 959 -167Q1014 -187 1061 -214.5Q1108 -242 1136 -275Q1139 -281 1133 -314Q1130 -334 1127 -360.5Q1124 -387 1124 -423Q1124 -444 1125.5 -470.5Q1127 -497 1129 -522.5Q1131 -548 1133 -566H1109Q1103 -531 1097 -480Q1091 -429 1091 -381Q1091 -369 1092 -354Q1093 -339 1094 -325Q1085 -312 1053 -292Q1021 -272 964.5 -252.5Q908 -233 826 -220Q744 -207 636 -207Q516 -207 429 -218.5Q342 -230 279.5 -251Q217 -272 173 -301.5Q129 -331 95 -366H74Q94 -300 141.5 -254Q189 -208 251 -179.5Q313 -151 379 -138Q445 -125 503 -125ZM636 -226Q677 -226 714 -228Q751 -230 784 -234V-432Q784 -466 766 -486Q748 -506 723 -515Q698 -524 676 -524H595Q574 -524 549 -515Q524 -506 506 -486Q488 -466 488 -432V-231Q521 -229 558 -227.5Q595 -226 636 -226ZM210 4H1033V-106H210Z"/>
</svg>