<svg xmlns="http://www.w3.org/2000/svg" viewBox="0 0 998 1000">
  <g transform="scale(1,-1) translate(0,-1000)">
    <path d="M499 217 452 40H545ZM479 784H95Q46 785 25.5 799.0Q5 813 1 861Q1 864 0.5 894.0Q0 924 0 929V931Q0 954 25.0 977.0Q50 1000 83 1000H921Q921 1000 931.0 998.5Q941 997 947.0 995.5Q953 994 964.0 988.5Q975 983 981.0 976.5Q987 970 992.0 957.5Q997 945 997 929Q997 926 997.5 897.0Q998 868 998 858Q998 821 976.5 803.0Q955 785 921 785Q920 785 915.0 784.5Q910 784 909 784H520L719 26Q720 24 720 20Q720 0 700 0H298Q278 0 278 20Q278 21 327.5 210.0Q377 399 428.0 590.5Q479 782 479 784ZM500 328Q511 328 520 297L587 40H673L500 704L324 40H411L478 297Q490 328 500 328ZM41 865Q41 858 42.5 851.5Q44 845 46.5 841.0Q49 837 53.0 833.5Q57 830 60.0 828.5Q63 827 68.0 825.0Q73 823 76.0 822.5Q79 822 83.0 821.5Q87 821 88 821H919Q922 821 924.5 821.5Q927 822 933.5 824.0Q940 826 944.5 830.5Q949 835 952.5 844.0Q956 853 956 865Q956 876 956.5 902.0Q957 928 957 929Q957 943 946.0 951.0Q935 959 927.5 960.0Q920 961 915 961H79Q67 961 53.0 947.0Q39 933 39 922Q39 918 40.0 893.5Q41 869 41 865Z" fill="currentColor"/>
  </g>
</svg>