<svg xmlns="http://www.w3.org/2000/svg" viewBox="0 -1000 1000 1000">
	<path fill="#000000" d="M49 243V56H120V-14H49V-84H120V-154H49V-224H120V-294H49V-364H120V-435H49V-504H120V-575H49V-645H120V-715H49V-902H275V-851H309V-902H394V-851H467V-778H193V120H467V192H394V243H309V192H275V243ZM68 -734H120V-851H255V-882H68ZM328 -851H374V-882H328ZM140 173H448V139H173V-798H448V-832H140ZM68 -594H120V-625H68ZM68 -454H120V-485H68ZM68 -314H120V-345H68ZM68 -174H120V-205H68ZM68 -34H120V-64H68ZM68 224H255V192H120V76H68ZM328 224H374V192H328Z"/>
</svg>