<svg xmlns="http://www.w3.org/2000/svg" viewBox="0 0 335 1000">
  <g transform="scale(1,-1) translate(0,-1000)">
    <path d="M239 834Q265 815 275 803Q308 807 326 821L329 733Q318 738 304 742Q306 735 308.5 721.5Q311 708 312 704L335 585Q335 581 333.5 580.0Q332 579 323 577L263 575V20Q263 12 257.0 6.0Q251 0 243.0 0.0Q235 0 229.0 6.0Q223 12 223 20V574H213Q199 574 196 577Q172 577 162.5 589.5Q153 602 142 643Q140 655 138 659Q135 663 125 680Q121 689 98.0 696.0Q75 703 65 720Q58 734 58 742Q58 759 69 785Q65 787 65 793Q45 823 35 823H32Q25 823 17.0 824.5Q9 826 4.5 828.0Q0 830 0 831Q1 836 13.0 843.5Q25 851 30 851H32H35Q57 851 70 842Q71 841 75.0 828.5Q79 816 85 813Q97 830 113 837Q113 840 113.5 844.0Q114 848 114 849Q114 853 116.0 855.0Q118 857 120 858H121Q106 871 83 896Q69 911 55.0 932.0Q41 953 34.0 967.0Q27 981 27 983Q27 989 31.0 994.0Q35 999 39 999Q44 999 50.0 991.0Q56 983 67.5 965.5Q79 948 92 934Q97 963 120.0 981.5Q143 1000 174 1000Q206 1000 230.5 982.0Q255 964 261 934Q273 948 285.0 965.0Q297 982 303.0 990.0Q309 998 314 998Q318 998 322.0 993.5Q326 989 326 983Q326 979 315.5 960.0Q305 941 282.0 911.0Q259 881 233 858Q240 858 240 845Q240 844 239.5 840.5Q239 837 239 834ZM174 867Q197 867 213.0 882.0Q229 897 229.0 918.0Q229 939 213.0 953.0Q197 967 173 967Q152 967 137.0 953.0Q122 939 122.0 918.0Q122 897 137.0 882.0Q152 867 174 867ZM134 774Q155 774 155 761Q155 755 149.0 750.5Q143 746 136.0 746.0Q129 746 123.5 750.5Q118 755 118 762Q118 774 134 774ZM265 733Q252 776 225 803Q220 820 174 820Q157 820 148 816Q150 815 176.0 808.0Q202 801 206 796Q216 783 220.0 771.0Q224 759 224.5 752.0Q225 745 226 743L245 713ZM228 703V655V635Q228 633 227 605L295 606L277 695Q276 697 274.5 702.5Q273 708 272 711L250 690Q247 687 243 687Q238 687 235 692ZM197 605 200 655Q200 704 197.5 731.0Q195 758 192.5 764.5Q190 771 184 779Q175 783 165.5 786.0Q156 789 142.0 792.0Q128 795 119 797Q108 792 101.0 773.5Q94 755 94 745Q96 740 96 740Q102 730 122.5 724.0Q143 718 155 702Q170 682 171 665Q173 659 175.5 645.5Q178 632 181.0 623.0Q184 614 190 607Q192 605 197 605Z" fill="currentColor"/>
  </g>
</svg>