<svg xmlns="http://www.w3.org/2000/svg" viewBox="0 0 712 1000">
  <g transform="scale(1,-1) translate(0,-1000)">
    <path d="M660 677Q660 649 647.0 550.5Q634 452 628 340Q627 327 627 300Q627 286 627.5 258.0Q628 230 628 215Q628 125 627 77L672 44Q675 44 681.0 42.5Q687 41 689.5 40.5Q692 40 696.5 39.0Q701 38 703.0 36.5Q705 35 707.5 33.0Q710 31 711.0 27.5Q712 24 712 20Q712 11 706.0 5.5Q700 0 692 0Q689 0 651.0 7.5Q613 15 559.0 22.5Q505 30 461 30Q440 30 313.5 19.0Q187 8 148 3Q147 2 145 2Q137 2 131.0 7.5Q125 13 125 22Q125 27 126.5 30.5Q128 34 131.0 36.0Q134 38 137.5 40.0Q141 42 147.5 43.0Q154 44 159.0 45.0Q164 46 173.5 47.5Q183 49 190 50Q190 52 188.0 62.5Q186 73 186 79Q186 95 194.0 105.5Q202 116 229 136Q229 177 223.5 233.0Q218 289 218 326V360Q218 362 217.5 365.0Q217 368 217 370Q217 388 232.0 400.0Q247 412 264 412Q280 412 288 405L450 261H451Q451 290 453.0 334.0Q455 378 455 397Q455 492 417 615Q405 602 369.5 578.0Q334 554 303.5 535.5Q273 517 271 517Q264 517 260 525L186 676Q172 677 168 678Q163 678 148.0 676.5Q133 675 126 675Q100 675 94 686Q92 692 92 702Q92 720 95 724Q74 737 62.0 747.5Q50 758 31.5 777.5Q13 797 2 808Q0 810 0 813Q0 822 8 822H378Q385 822 385 813Q385 810 383 808Q336 761 288 728L342 641L383 681L403 694Q410 704 422.5 715.0Q435 726 442.5 734.0Q450 742 450 750Q450 760 443.0 768.0Q436 776 426.0 782.5Q416 789 406.0 798.0Q396 807 389.0 824.5Q382 842 382 867Q382 918 424.5 959.0Q467 1000 517 1000Q576 1000 612.0 962.5Q648 925 648 879Q648 866 643.5 851.0Q639 836 635.0 828.0Q631 820 620.5 803.5Q610 787 608 783Q647 715 653.5 701.5Q660 688 660 677ZM54 798Q57 795 69.0 782.5Q81 770 84.5 767.0Q88 764 99.0 754.0Q110 744 115.0 741.0Q120 738 130.5 732.0Q141 726 148.5 723.5Q156 721 167.0 719.0Q178 717 189 717Q218 717 245.5 730.5Q273 744 287.0 756.0Q301 768 331 798ZM469 949Q502 945 534.5 925.0Q567 905 567 871Q567 868 566.5 860.5Q566 853 566 850Q566 841 570.0 834.5Q574 828 577.0 826.0Q580 824 589 820Q613 859 613 879Q613 913 586.0 939.0Q559 965 517 965Q491 965 469 949ZM555 802Q536 816 536 850Q536 854 536.5 861.0Q537 868 537 871Q537 888 517.5 900.5Q498 913 479 916L460 920Q417 920 417 867Q417 856 420 841Q423 829 439.5 817.0Q456 805 470.5 789.0Q485 773 485 750Q485 737 480.0 726.5Q475 716 469.5 710.5Q464 705 453.5 696.0Q443 687 439 683Q443 667 456.0 623.0Q469 579 475.5 553.5Q482 528 488.5 484.0Q495 440 495 397Q495 374 493.0 333.5Q491 293 491 275L589 311Q591 409 604.0 526.0Q617 643 617 664Q617 686 609.0 704.0Q601 722 555 798ZM466 896Q474 896 479.5 889.0Q485 882 485 873Q485 867 479.0 862.5Q473 858 466 858Q441 858 441 873Q441 883 448.0 889.5Q455 896 466 896ZM463 82Q529 82 587 67Q587 103 587.5 169.5Q588 236 589 268Q573 262 534.5 248.0Q496 234 470.5 223.5Q445 213 416 198Q406 193 379.5 180.0Q353 167 344.5 162.5Q336 158 316.5 147.0Q297 136 286.0 128.5Q275 121 259.0 109.0Q243 97 228 83Q226 81 226 79Q226 75 230 57Q383 82 463 82ZM257 369Q257 368 257.0 366.5Q257 365 257.5 362.5Q258 360 258.0 350.5Q258 341 258 326Q258 292 262.5 241.0Q267 190 268 165Q301 186 398 234L412 241L265 372H264Q258 372 257 369ZM261 711Q240 699 219 691Q226 685 242.0 658.0Q258 631 270 607L283 583L312 611Z" fill="currentColor"/>
  </g>
</svg>