<svg xmlns="http://www.w3.org/2000/svg" viewBox="0 0 580 1000">
  <g transform="scale(1,-1) translate(0,-1000)">
    <path d="M37 368Q37 373 38.0 380.5Q39 388 42.5 402.5Q46 417 55.5 428.5Q65 440 79 443H80Q97 443 129.0 417.5Q161 392 216.5 338.5Q272 285 286 272Q296 319 305.0 354.0Q314 389 319.0 408.5Q324 428 331.0 444.0Q338 460 340.0 463.5Q342 467 349.0 477.0Q356 487 357 489Q381 524 381 535Q381 556 366 571Q360 564 344.5 543.0Q329 522 320 514Q284 482 256 482Q249 482 241.0 492.0Q233 502 233 506Q233 509 244.0 514.5Q255 520 272.0 529.0Q289 538 298 546Q304 552 325 598Q288 626 288 686Q288 718 315.0 758.5Q342 799 376 810Q375 811 375 815V963Q375 973 384.0 986.5Q393 1000 408 1000Q422 1000 431.5 988.0Q441 976 441 964Q441 974 450.0 987.0Q459 1000 474 1000Q488 1000 497.5 987.5Q507 975 507 963V817Q507 812 505 810Q530 804 547.0 788.5Q564 773 570.0 753.0Q576 733 578.0 721.0Q580 709 580 699Q580 684 575.0 667.5Q570 651 566.0 643.0Q562 635 549.5 615.0Q537 595 536 593Q532 580 532 564Q532 564 532.0 560.5Q532 557 532.5 550.0Q533 543 533.5 534.5Q534 526 534.5 514.0Q535 502 535.5 489.5Q536 477 536.0 461.5Q536 446 536 431V385Q536 290 522.0 219.0Q508 148 508 129Q508 100 512.0 88.0Q516 76 527.5 61.0Q539 46 547 28Q550 22 550 19Q550 12 544.5 6.0Q539 0 531 0H18Q0 0 0 19Q0 31 10.5 44.5Q21 58 33.0 70.5Q45 83 55.5 109.0Q66 135 66 169Q66 207 51.5 263.5Q37 320 37 365ZM380 718Q389 718 395.0 710.0Q401 702 401 692Q401 676 380 676Q353 676 353 692Q353 703 361.0 710.5Q369 718 380 718ZM383 776Q419 772 455.0 749.5Q491 727 491 690Q491 686 490.5 678.0Q490 670 490 667Q490 663 490.5 659.5Q491 656 492.0 653.5Q493 651 495.0 648.5Q497 646 497.5 645.0Q498 644 501.5 642.0Q505 640 505.5 639.5Q506 639 510.0 636.5Q514 634 515 634Q542 678 542 699Q542 737 512.0 765.0Q482 793 436 793Q406 793 383 776ZM330 657Q333 641 356.5 624.0Q380 607 401.0 588.0Q422 569 422 547Q422 532 381 462Q357 422 319 246Q319 244 314.5 240.0Q310 236 309 233Q309 232 305.5 231.0Q302 230 297.0 228.5Q292 227 288 227H287Q273 227 245.0 258.0Q217 289 174.0 334.0Q131 379 88 404Q87 404 84.0 401.0Q81 398 78.0 393.0Q75 388 75 383V377V365Q75 324 89.0 267.0Q103 210 103 169Q103 134 96.0 109.5Q89 85 82.0 74.0Q75 63 56 39H496Q480 63 475.0 79.0Q470 95 470 129Q470 156 484.5 235.0Q499 314 499 407Q499 465 495.0 503.5Q491 542 485.0 570.5Q479 599 478 614Q478 615 467.5 631.5Q457 648 457 667Q457 672 457.5 679.0Q458 686 458 690Q458 709 437.0 722.5Q416 736 395 740L374 744Q370 744 360.0 742.0Q350 740 344 740Q326 714 326 686Q326 679 330 657ZM408 980Q400 980 395 962V814Q403 815 421 817V964Q419 980 408 980ZM474 980Q466 980 461 962V816L488 813Q488 813 488 815Q487 816 487 817V964Q485 980 474 980Z" fill="currentColor"/>
  </g>
</svg>