<svg xmlns="http://www.w3.org/2000/svg" viewBox="0 0 721 1000">
  <g transform="scale(1,-1) translate(0,-1000)">
    <path d="M388 867Q372 848 365.5 838.5Q359 829 353.5 812.5Q348 796 348 775Q348 763 355.0 745.5Q362 728 368 716L375 705Q405 711 405 711Q421 711 432.5 701.0Q444 691 450.5 679.0Q457 667 460 666Q480 657 500 657Q515 657 526.5 659.5Q538 662 542.5 665.0Q547 668 555.0 674.0Q563 680 566 682Q557 707 546 713Q545 713 538.5 714.5Q532 716 526.0 718.0Q520 720 513.0 723.5Q506 727 501.5 733.5Q497 740 497 749Q497 765 524.0 780.0Q551 795 551 803Q549 838 388 867ZM583 787Q583 784 578.5 779.5Q574 775 567.5 770.0Q561 765 554.5 761.5Q548 758 542 754L537 751Q539 750 547.0 748.0Q555 746 563.0 742.5Q571 739 575 734Q588 721 595.5 713.0Q603 705 607.5 694.5Q612 684 613.0 681.0Q614 678 618 661Q633 548 633 473Q633 438 630 399Q634 398 648.0 396.0Q662 394 669 393Q670 439 675.5 524.5Q681 610 681 655Q681 751 668.5 809.0Q656 867 641.0 889.0Q626 911 597 935Q566 960 531 960Q494 960 464.5 944.5Q435 929 424 914L413 898Q417 897 432.0 894.0Q447 891 451.5 890.0Q456 889 469.0 886.0Q482 883 488.0 881.0Q494 879 505.0 875.0Q516 871 523.0 867.0Q530 863 540.0 857.5Q550 852 558.5 845.0Q567 838 576 830Q587 819 587 804Q586 793 583 787ZM387.5 786.5Q379 792 379.0 801.0Q379 810 387.5 815.5Q396 821 407.0 821.0Q418 821 426.5 815.5Q435 810 435.0 801.0Q435 792 426.5 786.5Q418 781 407.0 781.0Q396 781 387.5 786.5ZM580 643Q580 643 575.0 639.0Q570 635 568.0 634.0Q566 633 560.0 629.5Q554 626 549.0 624.5Q544 623 536.5 621.0Q529 619 520.0 618.0Q511 617 500 617Q490 617 476 619L396 284Q395 281 391.0 277.5Q387 274 386 271Q386 270 382.5 269.0Q379 268 373.5 266.5Q368 265 364 265H363Q347 265 336 279Q311 301 277.5 337.0Q244 373 215.5 399.0Q187 425 151 445Q140 440 138 423V404Q138 363 152.5 288.0Q167 213 167 171Q167 135 160.5 111.5Q154 88 147.0 78.0Q140 68 116 40H585Q568 63 563.0 79.0Q558 95 558 131Q558 155 575.5 268.0Q593 381 593 473Q593 545 580 643ZM194 609Q194 632 188.5 648.5Q183 665 183 669Q158 659 144 647L141 637V554Q142 554 152.0 558.5Q162 563 174.0 570.5Q186 578 189 585Q189 585 190.5 588.0Q192 591 193.0 596.5Q194 602 194 609ZM119 638Q116 648 109.5 653.5Q103 659 78 669L77 668Q78 667 78 665Q78 664 75.0 658.5Q72 653 69.5 640.5Q67 628 67.0 609.0Q67 590 72 584Q75 578 86.5 570.0Q98 562 108.0 557.5Q118 553 119 553ZM185 734Q184 735 178.0 737.5Q172 740 169 742H92Q80 737 75 732V731Q74 728 74.0 723.0Q74 718 76.5 707.5Q79 697 80 694Q119 677 130 667Q147 681 180 694Q181 698 184.0 708.5Q187 719 187 724Q185 734 185 734ZM135 806H130Q116 806 108 796Q103 790 102.0 778.5Q101 767 99 762H162Q160 766 158.5 778.5Q157 791 152 797Q146 805 135 806ZM133 531H128Q115 531 93 544Q65 559 60 566Q47 551 47 546Q47 534 66.0 522.0Q85 510 87 505Q98 523 131 523Q161 523 175 510Q177 513 195.5 524.0Q214 535 214 546Q214 552 201 567Q194 558 170.5 544.5Q147 531 133 531ZM186 819Q189 814 205.0 801.5Q221 789 232.5 774.0Q244 759 244 740Q244 717 222 717Q219 717 209 722Q208 715 204.0 699.0Q200 683 200 679Q203 677 208.5 675.0Q214 673 217.5 671.5Q221 670 225.5 667.0Q230 664 234 659Q240 651 246.5 637.0Q253 623 256.5 613.0Q260 603 260 602Q260 593 250 593Q242 593 232.0 621.0Q222 649 208 654Q213 609 213 609Q213 599 210 587Q212 584 219.0 576.5Q226 569 229.5 562.0Q233 555 233 546Q233 531 210.0 517.5Q187 504 185 499V498Q187 492 187 489Q187 482 182 472Q218 451 245.5 426.0Q273 401 305.0 366.5Q337 332 362 310L438 632Q428 638 418.5 654.0Q409 670 406 671H405Q377 600 365.0 583.0Q353 566 309 533Q274 535 274 558V559Q274 570 292.0 586.0Q310 602 328.0 622.5Q346 643 346 666Q346 669 345.5 673.0Q345 677 345 679Q308 723 308 775Q308 805 318.5 831.0Q329 857 337.0 867.5Q345 878 368 906Q368 907 380.0 921.5Q392 936 397.5 942.0Q403 948 419.0 961.5Q435 975 449.0 981.5Q463 988 485.0 994.0Q507 1000 531 1000Q581 1000 622 966Q658 936 677.0 907.0Q696 878 708.5 816.5Q721 755 721 655Q721 609 715.5 522.0Q710 435 709 385Q709 380 707.5 373.5Q706 367 699.0 360.0Q692 353 682 353H674Q659 353 627 359Q621 295 609.5 226.5Q598 158 598 131Q598 102 602.0 89.5Q606 77 618.5 62.0Q631 47 640 29Q642 23 642 20Q642 12 636.5 6.0Q631 0 622 0H77Q67 0 62.0 6.5Q57 13 57 20Q57 26 60 30Q73 52 92.5 73.0Q112 94 119.5 112.5Q127 131 127 171Q127 210 112.5 285.0Q98 360 98 404V425Q98 434 103 447Q102 449 96.5 458.5Q91 468 86.5 476.0Q82 484 82 486Q82 492 83 495H81Q76 495 75 499Q73 504 50.0 517.5Q27 531 27 546Q27 555 30.5 562.0Q34 569 41.0 576.5Q48 584 50 587Q48 595 48 609Q48 618 50 642Q50 646 52 654Q37 646 27.5 619.0Q18 592 10 592Q0 592 0 602Q0 603 3.0 612.5Q6 622 12.5 636.0Q19 650 26 658Q31 664 36.5 667.5Q42 671 49.0 674.0Q56 677 60 679Q60 684 56.0 701.5Q52 719 52 722Q41 716 37 716Q16 719 16 740Q16 758 28.0 773.0Q40 788 56.0 800.5Q72 813 75 818Q98 852 105 852Q113 852 113 844Q113 841 109.5 836.0Q106 831 99.0 823.5Q92 816 88 809Q85 804 70.5 791.5Q56 779 46.0 765.5Q36 752 36 740Q36 738 38 736Q53 750 60 750Q81 761 81 761V762Q85 768 87.0 782.5Q89 797 96 806Q107 820 125 822H131Q152 822 162.0 809.5Q172 797 175.0 780.5Q178 764 180 762Q198 750 200 750Q203 750 208.5 747.0Q214 744 218 740L223 737Q225 737 225 740Q225 757 199 784L173 810Q169 817 162.5 823.5Q156 830 152.5 834.5Q149 839 149 842Q149 850 157 850Q160 850 167.0 842.0Q174 834 180 826Z" fill="currentColor"/>
  </g>
</svg>