<svg xmlns="http://www.w3.org/2000/svg" viewBox="0 -1000 1000 1000">
	<path fill="currentColor" d="M49 -187V-207H288Q342 -207 375.5 -225Q409 -243 427.5 -272Q446 -301 452.5 -333.5Q459 -366 459 -396Q459 -426 452.5 -459Q446 -492 427.5 -521Q409 -550 375.5 -568Q342 -586 288 -586H49V-606H288Q348 -606 386 -586Q424 -566 444 -534Q464 -502 471.5 -465.5Q479 -429 479 -396Q479 -363 471.5 -327Q464 -291 444 -259Q424 -227 386 -207Q348 -187 288 -187ZM49 -231V-250H281Q322 -250 347 -264Q372 -278 385.5 -300Q399 -322 404 -347.5Q409 -373 409 -396Q409 -427 399.5 -461Q390 -495 362.5 -518.5Q335 -542 281 -542H49V-562H281Q328 -562 356.5 -546Q385 -530 401 -505Q417 -480 422.5 -451Q428 -422 428 -396Q428 -371 422.5 -342Q417 -313 401 -288Q385 -263 356.5 -247Q328 -231 281 -231Z"/>
</svg>