<svg xmlns="http://www.w3.org/2000/svg" viewBox="0 0 999 1000">
  <g transform="scale(1,-1) translate(0,-1000)">
    <path d="M187 339H176Q165 339 130 315Q132 316 137 316Q147 316 147 304Q147 304 146.5 303.0Q146 302 146 301Q168 325 187 339ZM67 254Q70 254 80.0 256.0Q90 258 96 258H98Q111 258 122.0 255.5Q133 253 138 250L143 248Q146 248 152.0 256.5Q158 265 158 267Q141 270 141 284V285Q141 290 143 296Q139 292 134 292Q122 292 122 305Q122 307 124 311Q60 265 60 257Q60 254 67 254ZM288 245Q222 245 204 303Q204 305 203 305Q201 305 197.5 298.5Q194 292 189.0 283.5Q184 275 178 272V267Q178 257 171.5 249.0Q165 241 165.0 239.0Q165 237 166 236Q171 233 180.5 227.0Q190 221 193.5 219.0Q197 217 204.0 213.5Q211 210 214.5 209.0Q218 208 224.5 206.0Q231 204 237.0 203.5Q243 203 251.0 202.5Q259 202 270 202Q287 202 320.0 212.5Q353 223 378 224Q380 224 383.0 224.5Q386 225 387 225Q404 225 437.0 219.0Q470 213 510 213Q506 215 497.0 217.5Q488 220 478.0 222.5Q468 225 465 226Q453 230 436.5 238.0Q420 246 408.0 249.5Q396 253 381 253H377Q364 253 333.5 249.0Q303 245 288 245ZM215 331Q215 326 218.5 314.5Q222 303 240.0 287.0Q258 271 287 271Q301 271 331.5 276.0Q362 281 377 281H382Q411 280 463.5 257.0Q516 234 527 233Q554 230 603.0 222.0Q652 214 675 212Q681 212 690.0 204.5Q699 197 699 187Q697 183 695.0 179.5Q693 176 692.5 174.5Q692 173 689.5 171.5Q687 170 683 169Q677 166 674 166Q646 166 467 187Q451 188 426.5 192.5Q402 197 388 197Q433 176 494.5 161.0Q556 146 606 145Q606 145 628.0 143.5Q650 142 674.0 141.0Q698 140 704 140Q719 140 737.5 141.5Q756 143 771 143Q822 145 844 162Q847 164 847 171Q847 182 830 195Q774 223 691 236Q670 239 639 253Q627 259 627 276Q627 292 640.0 304.0Q653 316 678 316Q690 316 711.5 311.0Q733 306 738 305Q785 297 825.5 278.5Q866 260 921 221Q931 214 951.0 211.0Q971 208 985.0 205.5Q999 203 999 195V98Q999 92 994 90Q953 73 925 58Q812 0 706 0Q665 0 588 12Q575 14 541.5 19.0Q508 24 498.0 25.5Q488 27 463.5 32.0Q439 37 426.0 42.0Q413 47 393.5 55.0Q374 63 355 74Q337 83 337 97Q337 101 341 109Q329 115 329.0 125.0Q329 135 336 144Q329 151 329 158Q329 168 338 175Q335 179 335 186V188Q284 174 270 174Q246 174 224.0 180.5Q202 187 192.0 192.5Q182 198 159.5 213.5Q137 229 131 233Q122 237 98 239H96Q93 239 79 237Q78 224 69 224Q57 224 57 236Q56 236 52.5 237.5Q49 239 45.0 244.0Q41 249 41 257Q41 277 98 316L126 336Q119 343 115 343Q113 343 105.5 339.5Q98 336 91 336H90Q84 336 74.0 340.5Q64 345 60 345Q58 345 50.5 341.0Q43 337 36 337Q28 337 14.0 342.0Q0 347 0 355Q0 365 9 365Q10 365 18.5 362.5Q27 360 35 360Q37 360 44.5 364.0Q52 368 59 368H60Q68 368 77.0 363.5Q86 359 89 359H90Q92 359 100.0 362.5Q108 366 114 366H116Q119 366 120 365L147 354Q175 358 175 358H179Q179 358 183.5 359.5Q188 361 193 361Q199 361 208.0 356.0Q217 351 224 351Q225 351 232.5 356.5Q240 362 251 362Q258 362 267.0 357.0Q276 352 279 352H281Q288 353 301.0 359.0Q314 365 318 365Q327 365 327 356Q327 348 321 346Q319 345 305.0 337.5Q291 330 284 330H281Q274 330 264.5 335.5Q255 341 252 341Q248 341 241.0 335.0Q234 329 226 329H225Q221 329 215 331ZM353 134H350Q348 131 347 126Q350 124 362.0 119.5Q374 115 376 114Q447 78 597 58Q604 56 604 49Q604 40 596 40Q589 40 560.5 43.5Q532 47 474.0 61.5Q416 76 370 97Q362 101 359 101Q354 101 354 99Q354 96 364 89Q383 78 401.5 70.5Q420 63 433.5 58.0Q447 53 469.0 48.5Q491 44 503.0 42.0Q515 40 545.0 35.5Q575 31 591 29Q668 17 706 17Q810 17 917 73Q957 94 982 104V188Q964 193 945.5 193.5Q927 194 910 205Q788 281 695 297Q683 299 678 299Q660 299 652.0 291.5Q644 284 644 275Q644 270 646 268Q664 259 729.0 246.5Q794 234 835 212Q865 196 865 171Q865 158 854 149Q828 128 771 126Q771 126 756.5 125.0Q742 124 725.5 123.5Q709 123 704 123Q686 123 654.0 125.0Q622 127 605 127Q478 129 365 189Q359 191 358 191Q352 191 352 185Q352 182 364 176Q479 124 605 115Q613 115 613 107Q613 98 604.0 98.0Q595 98 562.0 102.0Q529 106 465.0 121.5Q401 137 354 161Q354 161 353.0 161.5Q352 162 351 162Q348 162 347 159Q351 155 373.0 143.5Q395 132 459.0 113.5Q523 95 600 87Q608 87 608 79Q608 70 599.0 70.0Q590 70 561.0 73.5Q532 77 469.5 93.0Q407 109 353 134Z" fill="currentColor"/>
  </g>
</svg>