<svg xmlns="http://www.w3.org/2000/svg" viewBox="0 -1000 1000 1000">
	<path fill="currentColor" d="M708 219Q716 150 725.5 72Q735 -6 743 -84Q751 -162 756 -233Q761 -304 761 -359Q761 -415 750.5 -477.5Q740 -540 727 -598Q714 -654 704 -708.5Q694 -763 694 -813Q694 -885 722 -926.5Q750 -968 794.5 -985.5Q839 -1003 886 -1001Q879 -966 874 -932Q869 -898 869 -858Q869 -837 875.5 -795.5Q882 -754 892 -701Q901 -650 910.5 -591.5Q920 -533 926.5 -476.5Q933 -420 933 -373Q933 -311 926.5 -219.5Q920 -128 907.5 -16Q895 96 875 219ZM63 219Q71 150 80 72Q89 -6 97 -84Q105 -162 110 -233Q115 -304 115 -359Q115 -415 104.5 -477.5Q94 -540 81 -598Q69 -654 59 -708.5Q49 -763 49 -813Q49 -885 77 -926.5Q105 -968 149 -985.5Q193 -1003 240 -1001Q233 -966 228 -932Q223 -898 223 -858Q223 -837 229.5 -795.5Q236 -754 246 -701Q255 -650 264.5 -591.5Q274 -533 280.5 -476.5Q287 -420 287 -373Q287 -311 280.5 -219.5Q274 -128 261.5 -16Q249 96 229 219ZM385 219Q394 150 403 72Q412 -6 420 -84Q428 -162 433 -233Q438 -304 438 -359Q438 -415 427.5 -477.5Q417 -540 404 -598Q392 -654 382 -708.5Q372 -763 372 -813Q372 -885 400 -926.5Q428 -968 472 -985.5Q516 -1003 563 -1001Q556 -966 551 -932Q546 -898 546 -858Q546 -837 552.5 -795.5Q559 -754 569 -701Q578 -650 587.5 -591.5Q597 -533 603.5 -476.5Q610 -420 610 -373Q610 -311 603.5 -219.5Q597 -128 584.5 -16Q572 96 552 219ZM1031 219Q1039 150 1048 72Q1057 -6 1065 -84Q1073 -162 1078 -233Q1083 -304 1083 -359Q1083 -415 1072.5 -477.5Q1062 -540 1049 -598Q1037 -654 1027 -708.5Q1017 -763 1017 -813Q1017 -885 1045 -926.5Q1073 -968 1117 -985.5Q1161 -1003 1208 -1001Q1201 -966 1196 -932Q1191 -898 1191 -858Q1191 -837 1198 -795.5Q1205 -754 1214 -701Q1223 -650 1232.5 -591.5Q1242 -533 1248.5 -476.5Q1255 -420 1255 -373Q1255 -311 1248.5 -219.5Q1242 -128 1229.5 -16Q1217 96 1197 219ZM210 -794Q204 -835 204 -858Q203 -899 206.5 -926.5Q210 -954 216 -982Q206 -982 196 -981Q186 -980 177 -978Q164 -950 155 -921.5Q146 -893 146 -852Q146 -822 164 -807.5Q182 -793 210 -794ZM533 -794Q530 -814 528 -830.5Q526 -847 526 -858Q525 -899 529 -926.5Q533 -954 539 -982Q529 -982 519 -981Q509 -980 500 -978Q487 -950 478 -921.5Q469 -893 469 -852Q469 -822 487 -807.5Q505 -793 533 -794ZM855 -794Q853 -814 851 -830.5Q849 -847 849 -858Q848 -899 852 -926.5Q856 -954 861 -982Q851 -982 841 -981Q831 -980 822 -978Q809 -950 800.5 -921.5Q792 -893 792 -852Q792 -822 809.5 -807.5Q827 -793 855 -794ZM1178 -794Q1172 -835 1172 -858Q1171 -899 1175 -926.5Q1179 -954 1184 -982Q1174 -982 1164 -981Q1154 -980 1145 -978Q1132 -950 1123.5 -921.5Q1115 -893 1115 -852Q1115 -822 1132.5 -807.5Q1150 -793 1178 -794ZM85 200H212Q231 80 243.5 -27.5Q256 -135 262 -223.5Q268 -312 268 -373Q268 -418 261.5 -474Q255 -530 246 -588Q237 -646 227 -697Q223 -718 219.5 -737.5Q216 -757 213 -775Q176 -772 151.5 -791.5Q127 -811 127 -852Q127 -893 135 -921Q143 -949 152 -970Q116 -955 92 -917.5Q68 -880 68 -813Q68 -766 78 -712Q88 -658 101 -602Q114 -544 124.5 -481Q135 -418 135 -359Q135 -305 130.5 -236.5Q126 -168 118.5 -93.5Q111 -19 102 56.5Q93 132 85 200ZM408 200H535Q554 80 566 -27.5Q578 -135 584 -223.5Q590 -312 590 -373Q590 -418 583.5 -474Q577 -530 568 -588Q559 -646 549 -697Q545 -718 542 -737.5Q539 -757 536 -775Q498 -772 474 -791.5Q450 -811 450 -852Q450 -893 458 -921Q466 -949 475 -970Q439 -955 415 -917.5Q391 -880 391 -813Q391 -766 401 -712Q411 -658 423 -602Q436 -544 447 -481Q458 -418 458 -359Q458 -305 453.5 -236.5Q449 -168 441.5 -93.5Q434 -19 425 56.5Q416 132 408 200ZM730 200H858Q877 80 889 -27.5Q901 -135 907 -223.5Q913 -312 913 -373Q913 -418 906.5 -474Q900 -530 891 -588Q882 -646 872 -697Q868 -718 864.5 -737.5Q861 -757 858 -775Q821 -772 796.5 -791.5Q772 -811 772 -852Q772 -893 780.5 -921Q789 -949 798 -970Q762 -955 738 -917.5Q714 -880 714 -813Q714 -766 724 -712Q734 -658 746 -602Q759 -544 769.5 -481Q780 -418 780 -359Q780 -305 775.5 -236.5Q771 -168 763.5 -93.5Q756 -19 747 56.5Q738 132 730 200ZM1053 200H1181Q1200 80 1212 -27.5Q1224 -135 1230 -223.5Q1236 -312 1236 -373Q1236 -418 1229.5 -474Q1223 -530 1214 -588Q1205 -646 1195 -697Q1191 -718 1187.5 -737.5Q1184 -757 1181 -775Q1144 -772 1119.5 -791.5Q1095 -811 1095 -852Q1095 -893 1103 -921Q1111 -949 1121 -970Q1084 -955 1060.5 -917.5Q1037 -880 1037 -813Q1037 -766 1047 -712Q1057 -658 1069 -602Q1082 -544 1092.5 -481Q1103 -418 1103 -359Q1103 -305 1098.5 -236.5Q1094 -168 1086.5 -93.5Q1079 -19 1070 56.5Q1061 132 1053 200Z"/>
</svg>