<svg xmlns="http://www.w3.org/2000/svg" viewBox="0 0 857 1000">
  <g transform="scale(1,-1) translate(0,-1000)">
    <path d="M58 433Q57 435 57 440Q57 446 64.0 455.0Q71 464 71 471Q71 473 69 481Q66 489 60 489Q46 489 35 465Q34 463 34 459Q34 445 41 429Q47 413 64.5 389.0Q82 365 169 252Q172 268 177.0 279.0Q182 290 186.5 294.0Q191 298 194.5 301.5Q198 305 198 307Q197 307 128 369Q125 372 108.0 386.5Q91 401 76 414L62 426Q60 428 58 433ZM61 523Q78 523 89.0 510.5Q100 498 102.5 487.5Q105 477 105 470Q105 460 95 443L152 395Q160 388 181.5 372.5Q203 357 214 345Q232 323 232 307Q232 292 216 276Q208 268 206.0 262.0Q204 256 200 229Q201 228 211.0 215.0Q221 202 229 192Q268 208 282 215Q288 218 310 358L248 579Q201 621 178 680Q164 714 157.5 743.5Q151 773 147.0 810.5Q143 848 138 871L98 877Q97 875 95.5 872.0Q94 869 93 867Q89 853 84 853H81Q79 855 75.5 866.0Q72 877 71 879Q77 934 139 970Q186 1000 234 1000Q249 1000 266 995Q270 994 288.0 979.5Q306 965 310 961Q325 946 342.0 915.0Q359 884 373 869Q401 836 450.5 792.0Q500 748 530 713Q566 671 617.0 605.0Q668 539 687 516L853 323Q857 317 857 313Q857 307 852.5 302.0Q848 297 841.0 297.0Q834 297 832 299L798 321Q801 317 806.5 309.0Q812 301 814.5 297.5Q817 294 820.5 287.0Q824 280 826.5 272.5Q829 265 830 256Q831 255 831 252Q827 236 823.0 232.5Q819 229 800 223Q743 204 712 204Q677 204 663 227Q661 230 646 250L585 332Q583 335 575.5 344.0Q568 353 562.5 359.0Q557 365 549.0 374.5Q541 384 534.5 390.5Q528 397 521.0 403.5Q514 410 508.0 413.0Q502 416 497 416Q496 416 493.0 417.0Q490 418 488 418Q485 418 481 414L480 332Q476 321 465 321Q461 321 459 322L420 338V242Q452 240 452 228Q451 222 451 222Q451 221 482.5 208.5Q514 196 514 179Q514 172 508 160Q565 101 567 16Q567 0 551 0H187Q171 0 171 16Q173 93 213 142Q207 137 199 137Q188 137 188 149Q188 156 194 165Q32 373 18 399Q12 408 9 417Q0 444 0 457Q0 478 18.0 500.5Q36 523 61 523ZM286 934Q286 946 270.0 957.0Q254 968 234 968Q231 968 224.5 967.5Q218 967 214 967Q188 965 158.5 946.5Q129 928 114 906L154 902Q164 900 168.0 884.0Q172 868 180 804Q213 799 218 799H224Q228 799 269 812H273Q281 812 284 803Q284 802 284 802L285 800Q285 791 275 789Q271 788 261.5 784.5Q252 781 243.5 778.5Q235 776 226 775H218Q206 775 184 779Q190 730 206.0 691.5Q222 653 244.5 629.5Q267 606 281.5 595.5Q296 585 316 574Q340 560 364.0 549.0Q388 538 426.0 523.5Q464 509 484 500Q518 485 586.5 462.0Q655 439 697 419L756 387L663 496Q641 523 611.5 561.0Q582 599 557.5 629.5Q533 660 506 692Q477 726 428.0 770.0Q379 814 349 848Q333 866 313 902Q309 882 297 866Q290 858 283.5 853.0Q277 848 268.5 843.5Q260 839 254 835Q251 832 246 832Q230 832 230 848Q230 858 249.0 869.0Q268 880 273 886Q278 893 281.5 905.0Q285 917 286 926ZM196 948Q204 948 209.5 942.0Q215 936 215 929Q215 919 208.5 912.5Q202 906 193 906Q185 906 179.5 913.0Q174 920 174 929Q174 937 180.5 942.5Q187 948 196 948ZM717 372Q677 396 587.0 427.5Q497 459 472 470Q457 476 406.0 496.5Q355 517 329 531L398 381L456 358L455 437Q467 450 483 450Q531 450 609 352L673 264Q675 261 682.0 252.5Q689 244 690 243Q697 236 712 236Q722 236 734.0 238.0Q746 240 757.0 243.0Q768 246 777.0 249.0Q786 252 792 254L798 256Q796 266 793.5 271.5Q791 277 783.0 287.5Q775 298 770 305Q755 328 717 372ZM290 552 283 557 340 379 368 371ZM354 232Q374 232 388 238V332L340 345L323 235Q344 232 354 232ZM204 32H534Q527 98 479.5 143.0Q432 188 367 188Q303 188 257.0 143.5Q211 99 204 32Z" fill="currentColor"/>
  </g>
</svg>