<svg xmlns="http://www.w3.org/2000/svg" viewBox="0 0 757 1000">
  <g transform="scale(1,-1) translate(0,-1000)">
    <path d="M454 80Q447 85 446 92Q446 112 530 131L518 306H423Q422 293 419.5 273.0Q417 253 414.5 239.0Q412 225 412 223L413 222L393 146V142Q393 137 392.0 128.0Q391 119 391 116V108Q391 86 385 80ZM124 531Q87 211 74 93Q72 83 64 80H262Q256 85 256 92Q256 96 261.5 101.0Q267 106 269 108Q292 119 341 131Q345 169 351.0 218.0Q357 267 361 305L304 306L383 484Q395 514 395 557Q395 565 394.5 578.0Q394 591 394 595V599Q393 626 383 650Q343 564 307 529Q291 525 264 525Q230 525 149 534Q139 534 124 531ZM30 50V30H727V50ZM487 884Q475 902 444 902Q432 902 395 894Q383 877 383 857Q383 830 410.5 807.0Q438 784 438 770Q438 763 427.0 748.0Q416 733 406 722L395 711Q425 659 431 616Q431 610 430.0 570.0Q429 530 428 520L527 509Q527 519 529.0 546.0Q531 573 531 581Q531 618 533.0 642.5Q535 667 540.5 681.0Q546 695 548.5 699.5Q551 704 560.5 711.0Q570 718 571 718Q578 726 578 727Q578 727 576 731Q536 729 524 729H480Q466 729 466 743Q466 744 465.0 769.0Q464 794 463.0 821.0Q462 848 462 853Q462 860 466.5 866.0Q471 872 478.0 876.5Q485 881 487 884ZM420 880Q435 880 435 862Q435 851 420 851Q400 851 400 862Q400 869 406.0 874.5Q412 880 420 880ZM444 929Q476 929 495.5 914.0Q515 899 515 884Q515 868 496 855Q495 854 493 852L491 851Q493 807 493 757Q509 757 581 759Q580 767 578.5 791.0Q577 815 574.0 837.5Q571 860 563 884Q557 900 550.0 908.5Q543 917 525 930Q499 950 480 950Q453 950 427 927Q439 929 444 929ZM536 478 415 493 364 338 541 335ZM40 95Q43 95 93 529Q70 531 70 553Q70 564 77.0 571.0Q84 578 89.5 579.5Q95 581 99 581Q100 594 108.5 669.0Q117 744 122 787Q124 802 138 802Q145 802 150.0 797.0Q155 792 155 785Q149 740 129 582Q147 580 155 572L270 565L342 696Q350 708 365.5 724.5Q381 741 391.0 752.5Q401 764 401 770Q401 777 386 788Q340 736 335 736Q331 736 327.0 740.5Q323 745 323 749Q323 761 370 803Q356 822 356 857Q356 861 357.5 871.0Q359 881 366.5 899.0Q374 917 386 926Q387 927 389.0 929.5Q391 932 398 939Q395 939 388.5 937.0Q382 935 380.0 935.0Q378 935 374.5 934.5Q371 934 369 934Q359 934 359 944Q359 948 361.5 954.0Q364 960 364 963Q364 973 352 973H349Q332 973 332 988Q334 1000 347 1000H349Q372 998 386 991Q387 991 392.0 976.5Q397 962 406 962Q406 962 407 962L408 961H409L431 963Q459 977 479 977Q505 977 540 952Q562 937 572.0 925.5Q582 914 591.5 883.0Q601 852 605 798Q606 774 609 751Q618 745 622 732L665 543L668 408Q669 404 675.5 385.0Q682 366 685 355Q698 355 719 344Q733 336 733 306Q733 283 725.5 260.0Q718 237 711 237Q698 237 698 304V308Q698 319 690 321Q690 293 669 285H665Q652 285 645.0 297.5Q638 310 637 348Q637 376 634 394L622 485Q616 514 616 514L577 666Q571 624 571 581Q571 573 570.0 556.0Q569 539 569 530Q569 519 567 491L577 337V325Q584 270 584 237V227L583 146Q581 128 581 116V108Q581 88 575 80H742Q748 80 752.5 75.5Q757 71 757 65V15Q757 9 752.5 4.5Q748 0 742 0H15Q9 0 4.5 4.5Q0 9 0 15V65Q0 71 4.5 75.5Q9 80 15 80H50Q40 85 40 95Z" fill="currentColor"/>
  </g>
</svg>