<svg xmlns="http://www.w3.org/2000/svg" viewBox="0 0 716 1000">
  <g transform="scale(1,-1) translate(0,-1000)">
    <path d="M19 784Q24 778 35.5 775.0Q47 772 56 759Q63 748 66.0 731.0Q69 714 70.5 703.5Q72 693 79 693Q88 693 90.5 703.0Q93 713 95.0 730.5Q97 748 105 759Q114 772 124.5 775.0Q135 778 141 784Q141 789 119.0 794.0Q97 799 81 799Q69 799 54.0 796.0Q39 793 29.0 789.5Q19 786 19 784ZM369 779Q390 779 390 766Q390 760 384.0 755.5Q378 751 371.0 751.0Q364 751 358.5 755.5Q353 760 353 767Q353 779 369 779ZM326 579Q331 570 342.5 552.0Q354 534 360.5 522.0Q367 510 373.0 491.0Q379 472 379 453Q379 432 377.0 417.5Q375 403 370.0 384.0Q365 365 363 357Q350 295 347.5 236.0Q345 177 341 145L339 124L506 155V157Q506 184 502.5 209.0Q499 234 492.0 269.5Q485 305 481 338Q477 369 475.0 397.0Q473 425 471.5 458.0Q470 491 468 514L447 511H441Q429 511 428 522L435 660Q435 709 432.5 736.0Q430 763 427.5 769.5Q425 776 419 784Q410 788 400.5 791.0Q391 794 377.0 797.0Q363 800 354 802Q343 797 336.0 778.5Q329 760 329 750Q331 745 331 745Q337 735 357.5 729.0Q378 723 390 707Q395 700 399.5 684.5Q404 669 405.5 658.5Q407 648 407 646Q407 637 399.0 629.5Q391 622 376 614L360 607ZM265 856H270Q292 856 305 847Q306 846 310.0 833.5Q314 821 320 818Q329 830 337 836Q336 838 336 842Q336 848 340.5 852.5Q345 857 351 857H393V924Q393 930 397.5 934.5Q402 939 408 939H454V985Q454 991 458.5 995.5Q463 1000 469.0 1000.0Q475 1000 479.5 995.5Q484 991 484 985V842Q484 837 481 834Q499 821 510 808Q542 812 561 826L564 738Q552 744 540 747Q544 732 547 709L576 539V535Q576 533 564 530L617 457V451Q625 415 627.5 398.0Q630 381 630.5 365.0Q631 349 632 337Q641 292 641 285Q641 273 639 267Q651 265 656.0 263.0Q661 261 667.5 252.5Q674 244 677 228L676 225Q676 206 669.0 186.5Q662 167 656.5 158.5Q651 150 649 148L710 150Q716 150 716 142Q716 125 709 125L652 126L655 31Q650 13 641 13Q629 13 626 35V126L572 125Q567 125 567 140Q567 149 573 149L628 148Q601 187 601 220V229Q602 231 608 247Q595 256 595 302V313Q599 323 599 354L581 444L520 523Q507 521 505 519Q507 495 508.5 461.5Q510 428 512.0 401.0Q514 374 518 344Q522 313 529.0 276.0Q536 239 539.5 212.5Q543 186 543 157Q543 141 536 90Q538 84 538 62Q538 60 537.0 55.0Q536 50 536 38V31Q536 11 530.5 5.5Q525 0 513 0H427Q414 2 413 17Q413 29 498 54Q498 58 497.5 64.0Q497 70 497 72Q497 85 503 126L381 101H379Q376 101 334 95Q332 74 326 34V32Q326 12 319.5 6.0Q313 0 290 0H227Q202 0 202 17Q202 30 294 61Q293 63 293 66Q293 89 304 151Q310 188 311.5 245.0Q313 302 326 364Q341 439 341 453Q341 483 315 528L273 419Q261 395 254 390Q219 363 184.5 345.0Q150 327 98 291V23Q98 16 93.0 10.5Q88 5 80.0 5.0Q72 5 66.5 10.5Q61 16 61 23V281Q52 286 52 297Q52 307 61 313V670Q51 678 49.0 711.5Q47 745 29 749Q0 757 0 785Q0 805 15.0 814.5Q30 824 81.0 824.0Q132 824 147.0 814.5Q162 805 162 785Q162 764 142.0 753.5Q122 743 120.0 740.0Q118 737 113.0 709.5Q108 682 98 672V340Q104 338 107.0 338.0Q110 338 116 340Q139 351 157.0 365.5Q175 380 195.5 399.0Q216 418 233 431L280 577V579Q280 589 291 598L338 637Q349 644 358.0 648.0Q367 652 368 652Q367 657 366.5 662.5Q366 668 366.0 670.5Q366 673 364.5 677.0Q363 681 360 685Q354 693 332.0 700.5Q310 708 300 725Q293 739 293 747Q293 764 304 790Q300 792 300 798Q280 828 270 828H267Q260 828 252.0 829.5Q244 831 239.5 833.0Q235 835 235 836Q236 841 248.0 848.5Q260 856 265 856ZM639 162Q653 186 655.5 193.5Q658 201 658 220Q658 233 652.0 239.5Q646 246 639 246H638Q619 246 619 221Q619 205 626.0 186.0Q633 167 639 162ZM454 909H423V857H454ZM500 738Q487 781 460 808Q455 825 409 825Q392 825 383 821Q385 820 411.0 813.0Q437 806 441 801Q451 788 455.0 776.0Q459 764 459.5 757.0Q460 750 461 748L480 718ZM463 708V660Q463 612 460 551L537 562L512 700Q511 702 509.5 707.5Q508 713 507 716L485 695Q482 692 478 692Q473 692 470 697Z" fill="currentColor"/>
  </g>
</svg>