<svg xmlns="http://www.w3.org/2000/svg" viewBox="0 0 981 1000">
  <g transform="scale(1,-1) translate(0,-1000)">
    <path d="M162 274Q182 274 182 248Q182 238 175.5 232.0Q169 226 159 226Q135 226 135 246Q135 257 143.0 265.5Q151 274 162 274ZM290 123Q312 101 333 92H337Q343 92 343 101V112ZM366 146Q368 144 380.0 143.0Q392 142 403 142H414Q473 142 587.5 181.0Q702 220 756 220Q807 220 859 194Q854 204 854 224Q854 238 861 252Q813 241 791 241Q749 241 596.5 275.5Q444 310 335 310Q291 310 241 303Q192 296 158.0 283.0Q124 270 76 243Q74 241 74 237Q74 229 85.5 219.0Q97 209 130.5 195.5Q164 182 215 172V249Q227 247 244.5 244.5Q262 242 276.0 240.0Q290 238 306 236Q314 235 326.5 234.0Q339 233 346.0 232.0Q353 231 363.5 228.5Q374 226 384 222Q393 218 393 208Q393 204 389 203Q371 196 341.5 194.5Q312 193 301 191Q282 188 253.5 181.0Q225 174 217 172L236 169Q238 170 242 170Q242 170 263.5 165.0Q285 160 314.0 154.0Q343 148 359 146ZM130 446Q96 445 64.5 375.0Q33 305 30 238Q33 171 64.5 100.5Q96 30 130 30H851Q885 31 916.5 101.0Q948 171 951 238Q948 305 916.5 375.5Q885 446 851 446ZM130 0Q92 0 60.5 48.0Q29 96 14.5 149.5Q0 203 0.0 238.0Q0 273 14.5 326.5Q29 380 60.5 428.0Q92 476 130 476H851Q889 476 920.5 428.0Q952 380 966.5 326.5Q981 273 981.0 238.0Q981 203 966.5 149.5Q952 96 920.5 48.0Q889 0 851 0ZM371 400Q371 395 357.0 376.5Q343 358 342 346Q427 345 595.5 311.0Q764 277 791 277Q814 277 850.0 286.0Q886 295 905 298H908Q917 298 921.5 291.5Q926 285 926 280Q926 271 908.0 252.5Q890 234 890 224Q890 209 908.0 183.0Q926 157 926 150Q926 144 920.5 138.0Q915 132 908 132Q903 132 852.0 158.0Q801 184 756 184Q728 184 601 145L617 120Q619 118 619 112Q619 101 609 98Q500 58 448 58Q438 58 434 67L417 106H414Q403 106 379 108V101Q379 78 365.5 67.0Q352 56 337 56H332Q329 56 327 57Q322 57 292 74Q280 82 270.5 91.5Q261 101 249.5 115.5Q238 130 235 133Q147 148 106.0 166.0Q65 184 47 210Q38 224 38 237Q38 257 58 273Q140 319 203 333Q219 360 258.0 380.5Q297 401 323.5 408.0Q350 415 356.0 415.0Q362 415 366.5 410.5Q371 406 371 400ZM311 346Q311 361 319 375Q277 361 250 341Q287 345 311 346ZM571 136Q493 114 449 108L457 89Q512 94 581 120Z" fill="currentColor"/>
  </g>
</svg>