<svg xmlns="http://www.w3.org/2000/svg" viewBox="0 0 898 1000">
  <g transform="scale(1,-1) translate(0,-1000)">
    <path d="M494 0Q474 0 474 40Q474 97 558 97Q568 97 590.5 96.0Q613 95 624 95H626Q573 157 572 230Q565 229 551 229Q489 229 426 296Q424 256 424 239Q422 145 410 73Q405 44 391.0 25.5Q377 7 368.5 3.5Q360 0 356 0H230Q214 0 214 16Q214 28 215 33Q213 35 212 37L165 118L53 117Q38 117 36 132Q0 447 0 448Q0 465 17 465Q27 465 32 457L251 75Q263 79 281.0 79.5Q299 80 309.0 81.5Q319 83 320 89Q327 121 327 152Q327 188 310.5 263.0Q294 338 294 385Q294 403 303.5 435.0Q313 467 313 482Q313 499 301 519Q298 519 287.5 516.5Q277 514 271 514Q266 514 250.0 519.0Q234 524 212.0 542.0Q190 560 187 585V590Q187 614 217 628Q231 635 234.5 639.5Q238 644 240 657Q243 672 246.0 680.0Q249 688 263.5 700.0Q278 712 306 722Q308 723 313.0 724.5Q318 726 320 727L341 786Q345 797 356 797Q369 797 377.5 779.5Q386 762 390.5 742.0Q395 722 397 720Q398 718 406.5 715.0Q415 712 428.0 704.0Q441 696 452 685Q469 668 490.5 630.0Q512 592 529 575Q565 541 635.5 495.0Q706 449 754 395Q789 427 863 479Q868 483 876 483Q885 483 891.5 476.5Q898 470 898 461Q898 451 888.0 442.5Q878 434 846.0 411.5Q814 389 782 360Q832 287 832 184Q832 123 812 58Q799 14 795.5 7.0Q792 0 784 0ZM165 153 44 365 69 152ZM302 551Q319 551 329.0 534.5Q339 518 341.5 504.5Q344 491 344 482Q344 462 335.0 430.0Q326 398 326 385Q326 342 342.5 267.0Q359 192 359 152Q359 122 351 82Q347 63 331.5 55.0Q316 47 299.0 48.0Q282 49 266.5 46.0Q251 43 248 32H352Q373 45 379 79Q387 122 389.5 162.0Q392 202 392.5 250.0Q393 298 396 333Q398 348 412 348Q421 348 426 341Q461 301 488.5 281.0Q516 261 551 261Q563 261 575.0 263.5Q587 266 588 266Q604 266 604 250V234Q604 156 671 94Q676 89 676 82Q676 63 625 63Q615 63 592.0 64.0Q569 65 558 65Q526 65 516.0 58.5Q506 52 506 40Q506 35 507 32H750Q642 116 642 209Q642 287 730 373Q682 428 611.0 473.5Q540 519 504 555Q485 574 469.0 603.5Q453 633 436.5 654.0Q420 675 392 686Q365 696 359 732Q359 733 358.5 735.0Q358 737 358 738L348 710Q344 701 321.5 694.0Q299 687 277 669Q274 667 270.5 646.5Q267 626 256 615Q248 607 234.0 600.5Q220 594 219.0 593.0Q218 592 218 591Q218 577 229.0 568.5Q240 560 270 546H271Q275 546 285.5 548.5Q296 551 302 551ZM316 666Q334 666 334 650Q334 640 325.0 633.5Q316 627 305 627Q288 627 285 640V644Q285 653 295.0 659.5Q305 666 316 666ZM781 64Q795 113 798.0 130.0Q801 147 801 185Q801 274 758 338Q687 267 687 208Q687 139 781 64Z" fill="currentColor"/>
  </g>
</svg>