<svg xmlns="http://www.w3.org/2000/svg" viewBox="-41 -40 801 1080">
  <g transform="scale(1,-1) translate(0,-1000)">
    <path d="M552 150Q582 163 662 210Q662 223 662.0 237.5Q662 252 662.0 263.5Q662 275 661.5 284.0Q661 293 661 298V304Q578 272 500 232Q479 217 434.5 189.5Q390 162 357.5 137.5Q325 113 299 83Q298 82 298.0 79.0Q298 76 299.5 68.5Q301 61 301 56Q448 89 552 150ZM329 369V325Q329 294 334.5 248.5Q340 203 341 171Q429 247 482 274L337 372H336Q330 372 329 369ZM521 293Q521 313 519.0 328.0Q517 343 515.0 350.5Q513 358 506.5 374.0Q500 390 497 399Q490 420 477.5 440.0Q465 460 456.0 471.0Q447 482 430.5 501.0Q414 520 409 525L384 491Q379 483 377 482Q368 476 364 480L326 511L293 423Q291 417 286 413Q279 408 274 412L87 596Q70 606 64 604Q63 604 61.0 604.0Q59 604 57 604L55 605H53Q45 605 30.0 615.0Q15 625 13 631Q12 635 19 638Q22 639 30.0 633.5Q38 628 43 630Q48 630 48 630L47 632Q43 643 22.0 659.0Q1 675 1 676Q-1 682 2.0 689.0Q5 696 12 698Q13 699 16 699Q24 699 34.5 691.5Q45 684 53.5 675.5Q62 667 70 659L77 651Q83 639 91 631Q105 620 105 620L268 487L280 539L201 640Q195 649 176 646Q175 646 170.0 647.0Q165 648 164 647H162Q154 647 139.0 656.0Q124 665 122 670Q120 676 126 679Q129 680 138.0 675.0Q147 670 153 672Q157 673 160 673Q162 673 161 677Q157 688 135.5 704.0Q114 720 114 721Q112 727 115.0 734.0Q118 741 125 743Q126 744 130 744Q138 744 148.5 736.5Q159 729 167.5 720.5Q176 712 184 704L191 695Q196 685 205 676Q219 665 219 665L288 589L299 639Q300 660 301 660H302Q303 666 305.5 674.5Q308 683 309.5 688.5Q311 694 311 698Q311 707 308 711Q302 722 293.0 728.5Q284 735 275.5 738.5Q267 742 253.0 757.5Q239 773 224 799Q208 826 208 856Q208 872 212 887Q229 956 273 981Q306 1000 343 1000Q377 1000 405.0 984.0Q433 968 448 942Q462 919 462 880Q462 874 461.5 861.0Q461 848 461 841V836Q461 785 475 767Q478 763 502.0 760.5Q526 758 530 750Q565 687 587.0 648.0Q609 609 615.0 600.0Q621 591 626.0 582.0Q631 573 639 558Q659 522 667.0 504.5Q675 487 685.5 455.0Q696 423 703 385Q710 346 710 313Q710 300 708.5 267.5Q707 235 707 212Q707 204 706.5 186.0Q706 168 706 158Q720 136 720 98Q720 42 695 6Q695 0 677 0H663Q648 0 648 22Q648 31 652.0 56.0Q656 81 656 92Q656 123 633 123Q611 123 572 100Q557 94 504.5 71.5Q452 49 403.0 31.5Q354 14 298 0H214Q196 0 196 22Q196 27 197.5 30.5Q199 34 202.0 36.0Q205 38 208.5 40.0Q212 42 218.5 43.0Q225 44 230.0 45.0Q235 46 245.0 47.5Q255 49 262 50Q262 50 260.0 61.0Q258 72 258 79Q258 95 265.5 104.5Q273 114 300 136Q300 177 294.5 232.5Q289 288 289 325V370Q289 388 303.5 400.0Q318 412 336 412Q349 412 359 405L520 294Q521 293 521 293ZM257 913Q283 924 318 924Q364 924 382 894Q383 892 385.0 888.5Q387 885 388.5 881.0Q390 877 391 876Q399 861 415 861H426Q426 864 426.5 868.0Q427 872 427 875Q427 909 418 924Q394 965 343 965Q316 965 291 950Q267 937 257 913ZM481 721Q477 729 459.5 735.0Q442 741 436 752Q430 764 425.5 784.5Q421 805 418.5 818.5Q416 832 415 832Q383 832 366 861Q364 864 361.0 870.0Q358 876 356 879Q347 895 320 895Q308 895 294.0 892.0Q280 889 272 886L264 883Q262 882 244 866Q243 862 243 854Q243 836 254 816Q258 809 270 795Q275 789 298.5 772.0Q322 755 338 728Q347 713 347 698Q347 696 337 656Q345 648 354.0 639.0Q363 630 374.5 618.5Q386 607 392 601Q408 622 427.5 644.5Q447 667 457.5 682.0Q468 697 481 721ZM281 865Q286 868 290 868Q302 868 309 855Q316 840 300 832Q292 827 282 827Q274 827 271 833Q268 837 268 843Q268 857 281 865ZM370 569Q368 572 362.5 577.0Q357 582 354 584L343 550L352 542ZM515 666 434 554Q436 551 447.5 538.5Q459 526 464.0 520.0Q469 514 479.5 501.5Q490 489 496.5 479.0Q503 469 511.5 455.5Q520 442 526.0 428.0Q532 414 537 399Q551 358 553 304Q584 316 658 346V350Q658 397 642.0 440.5Q626 484 592 548Q547 632 515 666Z" fill="currentColor"/>
  </g>
</svg>