<svg xmlns="http://www.w3.org/2000/svg" viewBox="0 0 930 1000">
  <g transform="scale(1,-1) translate(0,-1000)">
    <path d="M73 573Q73 699 198 771Q248 799 300 799Q405 799 502 707Q502 707 509 700Q552 649 644 544L713 610Q719 616 727 616Q736 616 741 611Q806 550 806 550Q812 544 812.0 536.0Q812 528 806 522L730 445Q763 408 925 223Q930 216 930 210Q930 198 921 193L787 107Q782 104 776 104Q767 104 761 111L332 627L258 560L425 129Q426 127 426 122Q425 107 411 103L45 1Q44 1 42.5 0.5Q41 0 40 0Q25 0 21 15Q0 90 0 92Q0 105 11 110L195 200Q91 470 91 470Q73 526 73 573ZM214 566Q214 574 221 581L321 671Q328 676 334 676Q343 676 349 669L780 150L880 214Q669 454 474 678Q388 759 301 759Q258 759 218 737Q113 677 113 573Q113 532 129 483L239 197Q240 195 240 190Q240 177 229 172L44 81L54 45L379 135L215 559Q214 561 214 566ZM671 514Q677 507 688.0 494.5Q699 482 704 476L763 535L727 569Z" fill="currentColor"/>
  </g>
</svg>