<svg xmlns="http://www.w3.org/2000/svg" viewBox="0 0 439 1000">
  <g transform="scale(1,-1) translate(0,-1000)">
    <path d="M180 741Q180 690 201.5 618.5Q223 547 245.0 492.0Q267 437 267 426Q267 418 261 412L145 292L143 182Q143 168 122.5 158.0Q102 148 77.0 135.5Q52 123 44 105H174L179 247Q179 255 185 261Q195 271 210.0 286.5Q225 302 230 307Q268 345 292 345Q299 345 309.5 342.0Q320 339 322 339Q343 352 343 369Q343 401 323.5 464.5Q304 528 304 567Q304 652 361 802Q386 870 392 888H224Q216 862 204 834Q180 773 180 741ZM383 369Q383 339 362.0 319.0Q341 299 322 299Q315 299 304.0 302.0Q293 305 291 305Q271 294 242 262Q224 242 219 237L211 19Q211 11 205.0 5.5Q199 0 191 0H51Q42 0 35 9Q0 60 0 88Q0 123 26 149Q39 162 68.0 175.5Q97 189 103 193L105 300Q105 308 111 314L224 431Q205 490 192 524Q140 665 140 740Q140 780 163.5 840.0Q187 900 190 913Q193 928 209 928H419Q427 928 433.0 922.0Q439 916 439 908Q439 897 415.5 836.5Q392 776 368.0 698.0Q344 620 344 567Q344 535 363.5 471.0Q383 407 383 369ZM173 75H41Q45 63 61 40H172Z" fill="currentColor"/>
  </g>
</svg>