<svg xmlns="http://www.w3.org/2000/svg" viewBox="0 0 824 1000">
  <g transform="scale(1,-1) translate(0,-1000)">
    <path d="M697 725Q665 741 652.0 752.5Q639 764 631.0 783.0Q623 802 617 812V816Q600 828 600 860Q600 864 600.5 870.5Q601 877 601 880Q601 896 583.5 907.0Q566 918 548 922L530 925Q525 925 516.0 923.5Q507 922 504 922Q490 900 490 877Q490 844 518.0 821.5Q546 799 546 767Q546 754 539.5 742.0Q533 730 528.5 726.0Q524 722 511 711Q551 642 551 597V591Q551 584 546 529L648 518Q648 528 650.0 554.0Q652 580 652 588Q652 635 657.0 662.5Q662 690 664.5 696.5Q667 703 679.5 710.0Q692 717 693 718ZM657 486 532 501 519 311H662ZM21 975Q21 995 71 995Q143 995 177 919Q181 911 183.0 896.0Q185 881 185 870V859Q185 804 184.5 706.0Q184 608 184 561Q215 556 231 540L369 544L449 725Q456 726 466.5 728.5Q477 731 494.5 741.5Q512 752 512 767Q512 780 503.5 789.0Q495 798 484.5 804.5Q474 811 465.5 829.5Q457 848 457 877Q457 925 496.0 962.5Q535 1000 582 1000Q638 1000 671.0 965.0Q704 930 704 887Q704 875 699.5 861.0Q695 847 691.5 840.0Q688 833 678.0 816.5Q668 800 667 798Q680 774 697.5 763.0Q715 752 728.5 747.0Q742 742 746 733L790 549L801 392Q824 323 824 302Q824 273 802 265H798Q793 265 790.0 266.5Q787 268 785.0 273.5Q783 279 781.5 285.0Q780 291 776.5 304.0Q773 317 769 330Q769 330 768.5 331.5Q768 333 768.0 334.0Q768 335 768.5 339.5Q769 344 769 347Q769 360 766 378L745 489Q739 519 739 519L699 665Q693 621 693 588Q693 580 692.0 564.5Q691 549 691 539Q691 527 689 499L699 313V301Q706 244 706 210V200L705 74Q703 56 703 43V35Q703 19 699.0 11.0Q695 3 690.5 1.5Q686 0 677 0H589Q567 0 564 19Q564 38 651 59L638 281H540Q539 262 535.5 237.0Q532 212 530 194L509 75V71Q509 66 508.0 56.5Q507 47 507 44V36Q507 13 500.0 6.5Q493 0 468 0H396Q385 0 378.0 4.0Q371 8 369.5 12.0Q368 16 368 19Q368 37 456 60L478 309H479L499 492Q478 518 478 525Q478 539 506 545Q510 579 510 591Q510 601 509.5 608.0Q509 615 507.0 621.5Q505 628 504.0 631.5Q503 635 498.5 644.5Q494 654 491 661L383 488Q373 488 218 514H213Q199 514 184 511V326Q198 353 227.5 373.5Q257 394 284 394Q337 386 337 372Q337 366 321.5 359.5Q306 353 291 353Q289 353 287.0 353.5Q285 354 283 354Q218 348 191 273Q188 261 183 251V220Q183 223 194.0 238.0Q205 253 230.0 270.5Q255 288 283 288Q337 280 337 266Q337 260 321.5 254.0Q306 248 291 248Q221 248 191 167Q185 152 183 109Q219 103 242.5 74.0Q266 45 267 8Q267 0 259 0H77Q69 0 69 8Q70 46 93.0 74.5Q116 103 151 109V144Q149 158 143.0 173.5Q137 189 125.5 207.0Q114 225 93.5 236.5Q73 248 46 248Q31 248 15.5 253.5Q0 259 0 266Q0 274 23.0 281.0Q46 288 56 288Q111 284 151 224V254Q138 304 113 327Q86 351 55 354Q53 354 51.0 353.5Q49 353 47 353Q32 353 16.0 359.0Q0 365 0 371Q0 379 23.0 386.5Q46 394 56 394Q116 388 152 330V509H143Q131 510 123.5 519.0Q116 528 116 539Q116 540 116.5 542.5Q117 545 117 547Q121 560 152 562Q152 609 152.5 706.5Q153 804 153 859Q153 961 47 961Q37 961 29.0 965.5Q21 970 21 975ZM535 903Q542 903 547.0 896.5Q552 890 552 882Q552 876 546.5 871.5Q541 867 535 867Q511 867 511 882Q511 903 535 903ZM538 953Q569 949 599.0 930.0Q629 911 629 880Q629 878 628.5 870.5Q628 863 628 860Q628 855 629.0 851.0Q630 847 633.0 844.0Q636 841 636.5 840.0Q637 839 643 836L649 832Q672 867 672 887Q672 919 646.5 943.0Q621 967 582 967Q557 967 538 953ZM102 23H234Q231 48 210.0 66.5Q189 85 167 85Q146 85 125.5 66.5Q105 48 102 23Z" fill="currentColor"/>
  </g>
</svg>