<svg xmlns="http://www.w3.org/2000/svg" viewBox="0 0 997 1000">
  <g transform="scale(1,-1) translate(0,-1000)">
    <path d="M352 728Q334 728 334 740Q334 754 348 754Q363 754 363.0 741.0Q363 728 352 728ZM725 312Q725 287 732.0 269.0Q739 251 749.0 243.0Q759 235 767.0 231.5Q775 228 781 228Q801 228 812.5 252.5Q824 277 824 309Q824 328 817.5 367.0Q811 406 811 426Q811 482 842.5 512.5Q874 543 915 543Q951 543 973.0 520.0Q995 497 996 479Q997 466 997 443Q997 434 996.5 417.5Q996 401 996 393Q996 389 994.5 361.5Q993 334 992 308L990 282V273Q990 214 996 186Q996 186 996.5 185.0Q997 184 997 183Q997 169 983 169Q977 169 971 175Q924 222 924 306Q924 324 927.0 370.0Q930 416 930 443Q930 452 930.0 455.5Q930 459 928.0 463.0Q926 467 923.0 468.0Q920 469 914 469Q897 469 890.5 457.5Q884 446 884 414Q884 394 889.5 354.5Q895 315 895 294Q895 283 893.0 269.5Q891 256 885.0 234.5Q879 213 863.0 194.0Q847 175 824 166H972Q980 166 988.5 157.5Q997 149 997 141V20Q997 12 991.0 6.0Q985 0 977 0Q963 0 958 12L690 126H26Q0 126 0 145Q0 153 7.0 159.5Q14 166 25 166H170Q117 184 80 237Q66 259 66 298Q66 314 69.5 348.5Q73 383 73 399Q73 430 57.5 478.5Q42 527 42 553Q42 581 56.5 618.0Q71 655 95 677Q71 673 60 673Q48 673 37.0 675.5Q26 678 13.0 691.5Q0 705 0 729Q0 762 29.0 784.5Q58 807 96 807Q101 807 118.0 804.0Q135 801 166.0 789.5Q197 778 224.0 759.5Q251 741 271.5 705.0Q292 669 292 622Q292 579 273.5 536.0Q255 493 233.0 463.0Q211 433 192.5 392.0Q174 351 174 312Q174 287 181.0 269.0Q188 251 198.0 243.0Q208 235 216.0 231.5Q224 228 230 228Q250 228 261.5 252.5Q273 277 273 309Q273 328 266.5 367.0Q260 406 260 426Q260 503 319 532Q318 539 318 553Q318 581 332.5 618.0Q347 655 371 677Q347 673 335 673Q276 673 276 729Q276 762 304.5 784.5Q333 807 371 807Q376 807 393.0 804.0Q410 801 441.0 789.5Q472 778 499.0 759.5Q526 741 546.5 705.0Q567 669 567 622Q567 579 548.5 536.0Q530 493 508.0 463.0Q486 433 467.5 392.0Q449 351 449 312Q449 287 456.0 269.0Q463 251 473.0 243.0Q483 235 491.0 231.5Q499 228 505 228Q525 228 536.5 252.5Q548 277 548 309Q548 328 542.0 367.0Q536 406 536 426Q536 503 595 532Q594 539 594 553Q594 561 595.5 576.0Q597 591 610.0 623.5Q623 656 646 677Q622 673 611 673Q599 673 588.0 675.5Q577 678 564.0 691.5Q551 705 551 729Q551 762 580.0 784.5Q609 807 647 807Q652 807 669.0 804.0Q686 801 717.0 789.5Q748 778 775.0 759.5Q802 741 822.5 705.0Q843 669 843 622Q843 579 824.5 536.0Q806 493 784.0 463.0Q762 433 743.5 392.0Q725 351 725 312ZM856 414Q856 430 857.0 440.0Q858 450 863.0 465.5Q868 481 881.0 489.0Q894 497 914.0 497.0Q934 497 945.5 486.0Q957 475 958 459V443Q958 415 955.0 369.0Q952 323 952 305Q952 262 963 238Q962 252 962 282Q962 297 965.0 334.0Q968 371 968 393Q968 401 968.5 417.0Q969 433 969 442Q969 465 968 477Q967 495 951.5 505.0Q936 515 916 515Q909 515 900.0 513.0Q891 511 875.5 503.5Q860 496 850.0 476.0Q840 456 840 426Q840 409 846.0 370.5Q852 332 852 310Q852 264 833.5 232.0Q815 200 781 200Q751 200 724.0 230.0Q697 260 697 312Q697 355 715.5 398.0Q734 441 756.0 471.0Q778 501 796.5 542.0Q815 583 815.0 622.0Q815 661 797.5 691.5Q780 722 757.0 738.0Q734 754 707.5 764.0Q681 774 666.5 776.5Q652 779 648 779Q622 779 600.5 765.0Q579 751 579 730Q579 701 611 701Q627 701 669.0 710.0Q711 719 731 721H733Q747 721 747 707Q747 696 737 693Q684 676 662.5 654.0Q641 632 627 587Q621 568 621 552Q621 531 636.5 483.0Q652 435 652 399Q652 382 648.5 347.5Q645 313 645 298Q645 268 655 252Q675 221 709.0 202.5Q743 184 776 184Q825 184 846.0 218.5Q867 253 867 294Q867 312 861.5 352.0Q856 392 856 414ZM628 728Q610 728 610 740Q610 754 623 754Q639 754 639.0 741.0Q639 728 628 728ZM77 728Q58 728 58 740Q58 754 72 754Q88 754 88.0 741.0Q88 728 77 728ZM580 414Q580 470 606 488Q602 497 601 504Q564 481 564 426Q564 409 570.0 370.5Q576 332 576 310Q576 264 557.5 232.0Q539 200 505 200Q475 200 448.0 230.0Q421 260 421 312Q421 355 439.5 398.0Q458 441 480.0 471.0Q502 501 520.5 542.0Q539 583 539.0 622.0Q539 661 521.5 691.5Q504 722 481.0 738.0Q458 754 431.5 764.0Q405 774 390.5 776.5Q376 779 372 779Q346 779 325.0 765.0Q304 751 304 730Q304 701 335 701Q351 701 393.5 710.0Q436 719 456 721H457Q471 721 471 707Q471 696 462 693Q409 676 387.0 654.0Q365 632 351 587Q346 571 346 552Q346 531 361.0 483.0Q376 435 376 399Q376 382 373.0 347.5Q370 313 370 298Q370 267 379 252Q399 221 433.0 202.5Q467 184 500 184Q544 184 567.5 214.0Q591 244 591 294Q591 312 585.5 352.0Q580 392 580 414ZM615 459Q612 453 612 453Q608 436 608 414Q608 395 612.5 359.5Q617 324 618 318Q624 399 624 399Q624 427 615 459ZM618 277Q617 268 614.5 256.0Q612 244 605.5 225.5Q599 207 584.0 190.5Q569 174 549 166H721Q668 184 631 237Q621 252 618 277ZM343 277Q333 191 273 166H446Q393 184 356 237Q346 252 343 277ZM342 318Q348 399 348 399Q348 427 339 459Q337 455 337 453Q332 431 332 414Q332 395 336.5 359.5Q341 324 342 318ZM304 414Q304 470 330 488Q326 497 325 504Q288 481 288 426Q288 409 294.5 370.5Q301 332 301 310Q301 264 282.0 232.0Q263 200 229 200Q198 200 172.0 230.0Q146 260 146 312Q146 355 164.5 398.0Q183 441 205.0 471.0Q227 501 245.5 542.0Q264 583 264.0 622.0Q264 661 246.5 691.0Q229 721 206.0 737.0Q183 753 156.5 763.0Q130 773 115.5 776.0Q101 779 97 779Q71 779 49.5 765.0Q28 751 28 730Q28 701 60 701Q76 701 118.0 710.0Q160 719 180 721H182Q196 721 196 707Q196 696 186 693Q133 676 111.5 654.0Q90 632 76 587Q70 568 70 552Q70 531 85.5 483.0Q101 435 101 399Q101 382 97.5 347.5Q94 313 94 298Q94 268 104 252Q125 221 158.0 202.5Q191 184 224 184Q268 184 291.5 214.0Q315 244 315 294Q315 312 309.5 352.0Q304 392 304 414ZM957 126H767L957 46Z" fill="currentColor"/>
  </g>
</svg>