<svg xmlns="http://www.w3.org/2000/svg" viewBox="-40 -40 1078.9 380.9">
  <g transform="scale(1,-1) translate(0,-1000)">
    <path d="M486 214Q326 214 112 231Q407 79 727 49V225Q608 214 486 214ZM486 254Q545 254 604.0 256.5Q663 259 710.0 263.0Q757 267 799.5 272.5Q842 278 874.0 283.0Q906 288 929.5 292.0Q953 296 965.5 298.5Q978 301 979 301Q987 301 993.0 295.0Q999 289 999 281V21Q999 13 993.0 7.0Q987 1 979 1Q970 1 952.0 0.5Q934 0 925 0Q650 0 433.0 60.0Q216 120 10 242Q0 247 0 259Q0 267 6.0 273.0Q12 279 20 279Q22 279 48.5 276.5Q75 274 120.0 270.0Q165 266 220.5 262.5Q276 259 347.5 256.5Q419 254 486 254ZM757 228V47Q766 47 784.5 45.5Q803 44 813 43V234Q775 230 757 228ZM843 42Q897 40 925 40Q930 40 941.5 40.5Q953 41 959 41V257Q866 241 843 238Z" fill="currentColor"/>
  </g>
</svg>