<svg xmlns="http://www.w3.org/2000/svg" viewBox="0 0 768 1000">
  <g transform="scale(1,-1) translate(0,-1000)">
    <path d="M322 853Q360 848 385.0 828.0Q410 808 410 783Q410 780 409.5 773.0Q409 766 409 764Q409 754 413.0 748.5Q417 743 430 737Q452 771 452 790Q452 822 426.5 845.0Q401 868 365 868Q344 868 322 853ZM400 721Q382 733 382 764Q382 767 382.5 773.5Q383 780 383 783Q383 799 363.5 811.0Q344 823 314 827Q311 827 303.0 825.0Q295 823 290 823Q275 800 275 779Q275 752 302.5 726.5Q330 701 330 670Q330 657 324.0 647.5Q318 638 295 614Q302 590 309.0 563.5Q316 537 320.0 522.0Q324 507 328.5 490.5Q333 474 335.5 465.5Q338 457 340.5 447.0Q343 437 344.0 432.0Q345 427 346.0 421.0Q347 415 347.0 411.5Q347 408 347 403Q347 400 346.5 385.5Q346 371 346 357Q346 336 344.0 299.5Q342 263 342 247L430 280Q433 447 441.0 511.5Q449 576 475 635Q445 650 433.0 662.0Q421 674 412.5 692.5Q404 711 400 717ZM319 805Q326 805 331.5 799.0Q337 793 337 785Q337 780 331.5 775.5Q326 771 319 771Q297 771 297 785Q297 805 319 805ZM317 74Q375 74 428 60Q428 92 428.5 152.0Q429 212 430 241Q415 235 390.5 226.5Q366 218 351.5 212.5Q337 207 315.5 198.0Q294 189 274 178Q186 134 162.0 119.5Q138 105 105 75Q103 73 103 71Q103 67 107 51Q238 74 317 74ZM131 332Q131 321 131.5 312.5Q132 304 132 293Q132 262 136.0 215.0Q140 168 141 148Q192 180 258 211L271 217L139 335H138Q132 335 131 332ZM34 817Q48 817 55 790L56 840L5 839Q0 842 0 857Q0 868 7 868L58 867Q32 902 32 933Q32 974 67 976Q98 976 102 941Q96 889 77 867L132 869Q132 869 133 868H134Q138 867 138 861Q131 840 131 840H80L82 783Q84 785 85 785Q90 785 90 773Q90 759 83 738L130 590L245 617L263 624Q267 628 274.0 633.5Q281 639 284.5 642.0Q288 645 292.0 649.5Q296 654 298.0 658.0Q300 662 300 666V670Q295 694 269.5 721.0Q244 748 244 779Q244 821 277.5 857.0Q311 893 353 898Q353 900 352.5 905.5Q352 911 352 914Q349 913 342 913Q329 913 320.0 919.5Q311 926 311.0 935.0Q311 944 320.0 950.5Q329 957 342 957Q350 957 353 956Q354 970 363.0 985.0Q372 1000 393 1000Q409 1000 423.0 985.0Q437 970 437 953Q437 939 423 939Q413 939 406.5 955.5Q400 972 393 972Q381 972 381 932Q381 928 381.5 916.0Q382 904 382 898Q425 893 454.0 862.0Q483 831 483 790V778Q483 767 447 704Q458 684 468.5 675.5Q479 667 517 646L636 589Q680 735 682 737Q675 758 675 772Q675 784 680 784Q682 784 685 780L686 840L635 838Q630 840 630 856Q630 868 637 868L688 867Q663 901 663 932V935Q663 948 671.0 961.5Q679 975 697 976Q727 976 732 940Q727 890 707 867L762 868Q762 868 763 868L764 867Q767 866 767 860Q761 839 761 839H710L711 795Q718 816 730 816Q741 816 741.0 803.0Q741 790 726.5 768.0Q712 746 710 738L669 550Q666 539 657 539Q654 539 652 540L495 583Q492 575 487 562Q476 531 473.5 492.0Q471 453 467 238Q465 134 464 69L505 40Q531 35 536.0 31.5Q541 28 541 18Q541 0 523 0Q498 0 419.0 13.5Q340 27 315 27Q298 27 263.0 24.5Q228 22 190.0 18.5Q152 15 116.0 11.0Q80 7 56.0 4.5Q32 2 31 2Q13 2 13 20V22Q13 32 19.0 34.5Q25 37 59 43Q67 44 71 45Q71 47 69.0 56.0Q67 65 67 71Q67 85 74.0 94.5Q81 104 106 122Q106 158 101.0 208.5Q96 259 96 293V324Q96 326 95.5 329.0Q95 332 95 333Q95 348 108.0 359.5Q121 371 138 371Q152 371 159 364L305 235H306Q306 257 308.0 296.0Q310 335 310 357Q310 429 275 549V550L272 562L114 542Q113 542 112.0 541.5Q111 541 110 541Q99 541 97 552L55 745Q53 754 39.0 773.5Q25 793 25 807Q25 817 34 817ZM342 927Q349 927 352 932V938Q349 943 342 943Q330 943 330.0 935.0Q330 927 342 927ZM696 953Q680 953 680 932Q680 928 682.5 918.0Q685 908 685 905Q688 892 697 883Q703 893 703 893L709 905Q713 914 713 928Q713 953 696 953ZM66 954Q50 954 50 933Q50 930 52.5 920.0Q55 910 55 906Q58 893 67 884Q68 886 69.0 887.0Q70 888 70.5 889.5Q71 891 73 894L79 906Q83 915 83 929Q83 954 66 954Z" fill="currentColor"/>
  </g>
</svg>