<svg xmlns="http://www.w3.org/2000/svg" viewBox="0 0 629 1000">
  <g transform="scale(1,-1) translate(0,-1000)">
    <path d="M176 642 170 646 215 503 238 497ZM582 405Q578 429 517 498Q485 518 411.5 543.5Q338 569 321 576Q305 583 281.5 592.0Q258 601 240.5 609.0Q223 617 207 625L262 505L308 487L307 550Q317 561 330 561Q368 561 431 482L482 411Q498 389 513 389Q521 389 530.5 390.5Q540 392 548.5 394.5Q557 397 564.5 399.5Q572 402 577 404ZM100 959Q106 959 111.0 954.0Q116 949 116 943Q116 936 111.0 930.5Q106 925 98 925Q83 925 83 943Q83 950 88.0 954.5Q93 959 100 959ZM172 947Q172 956 159.0 965.5Q146 975 131 975Q129 975 123.0 974.5Q117 974 114 974Q94 972 70.5 957.5Q47 943 35 925L67 922Q76 920 79.0 908.0Q82 896 88 843Q91 843 101.5 841.0Q112 839 118 839H123Q123 839 159 850H162Q168 850 170 843Q170 842 170 842L171 840Q171 833 163 831Q159 830 152.0 827.0Q145 824 138.0 822.0Q131 820 124 820H118Q112 820 103.0 822.0Q94 824 91 824Q105 710 197 659Q216 648 236.0 639.0Q256 630 284.0 619.0Q312 608 331 600Q359 588 413.5 570.0Q468 552 501 536L548 510L474 597Q384 712 348 754Q326 780 275.0 826.0Q224 872 194 922Q190 904 181 893Q175 886 165.0 879.5Q155 873 148.0 869.5Q141 866 140 866Q127 866 127 878Q127 886 142.5 895.0Q158 904 162.0 909.0Q166 914 168.5 923.5Q171 933 172 940ZM582 457Q608 417 608 402Q604 390 601.0 386.5Q598 383 583 378Q550 364 513 364Q484 364 474 382Q468 392 460 400L411 466Q410 468 400.0 480.0Q390 492 384.0 498.5Q378 505 369.0 514.5Q360 524 353.0 528.5Q346 533 341 533Q340 533 338.0 533.5Q336 534 334 534Q330 534 328 532L327 466Q323 457 316 457Q312 457 311 458L279 471V394Q314 390 314 390Q315 389 316 389Q321 389 337.0 391.5Q353 394 355 394H360Q371 392 375 385Q377 382 379 364H366Q354 371 353 371Q351 371 339 366Q343 358 345 353Q355 323 360.5 297.5Q366 272 371.5 236.0Q377 200 380 181Q401 57 406 26Q405 15 403.0 12.0Q401 9 387 0H33Q27 0 23.0 4.5Q19 9 19 15Q19 17 19 17L43 177Q49 201 55.0 234.5Q61 268 67.5 294.0Q74 320 86 349Q91 362 98 369Q92 371 89 371Q85 371 80.5 367.5Q76 364 73 364Q72 365 70 365Q70 365 68.0 364.5Q66 364 65 364Q53 364 53 375Q53 383 64.5 388.5Q76 394 91 394Q96 394 104.5 392.0Q113 390 118 390Q119 390 131 388Q133 388 137.0 387.5Q141 387 142 387H153Q162 387 176 389L192 487L142 664Q104 699 86 745Q75 773 70.0 795.5Q65 818 61.0 848.5Q57 879 54 897L22 902Q22 901 20.5 898.5Q19 896 18 894Q16 883 11 883H8Q6 885 3.5 893.0Q1 901 0 903Q6 948 55 976Q91 1000 131 1000Q145 1000 156 996Q160 995 174.5 983.5Q189 972 192 969Q204 957 218.0 932.5Q232 908 242 896Q258 878 273.0 863.5Q288 849 306.0 833.0Q324 817 334 807L496 978Q500 982 504 982Q512 982 515 975L610 780Q611 778 611 775Q611 765 603 763Q537 746 535 746Q526 746 524 756L496 945Q450 897 414.5 859.0Q379 821 366.0 807.0Q353 793 350 790Q355 785 367 771Q389 745 409.0 720.0Q429 695 453.0 664.0Q477 633 493 613L626 459Q629 454 629 450Q629 438 616 438Q611 438 609 439ZM325 26H377Q368 85 352 176Q349 194 343.0 230.0Q337 266 332.5 289.0Q328 312 319 339Q282 269 272 237Q268 224 268 212Q268 198 272 183Q279 155 287.0 131.5Q295 108 306.5 78.0Q318 48 325 26ZM115 342Q114 341 113.5 340.5Q113 340 113 339Q102 311 96.0 286.0Q90 261 83.5 227.5Q77 194 72 171L50 29H106Q113 49 125.0 81.0Q137 113 145.0 136.5Q153 160 160 188Q165 208 165 217Q165 225 160 242Q155 260 148.5 275.0Q142 290 131.0 310.5Q120 331 115 342ZM188 251Q193 234 193 217Q193 203 188 181Q181 153 173.5 130.0Q166 107 153.5 74.0Q141 41 136 27H295Q289 44 277.5 73.0Q266 102 258.5 125.5Q251 149 244 176Q239 198 239 212Q239 230 244 246Q251 267 259.0 285.0Q267 303 279.0 324.0Q291 345 298 360H138Q143 350 152.0 333.5Q161 317 165.5 307.5Q170 298 176.5 282.5Q183 267 188 251ZM545 772 583 782 526 899ZM243 387Q246 388 254 390V466L216 476L202 389Q204 389 206.5 388.0Q209 387 210 387Z" fill="currentColor"/>
  </g>
</svg>