<svg xmlns="http://www.w3.org/2000/svg" viewBox="0 0 667 1000">
  <g transform="scale(1,-1) translate(0,-1000)">
    <path d="M390 894Q375 872 375 847Q375 834 378 821Q380 809 396.5 797.0Q413 785 427.5 768.5Q442 752 442 729Q442 717 437.0 706.5Q432 696 427.0 690.5Q422 685 411.5 676.0Q401 667 397 663Q430 543 433 533L493 573Q496 575 506.0 582.0Q516 589 524.5 593.5Q533 598 539 598Q546 598 547 591Q549 581 549 579Q549 576 548.5 574.0Q548 572 547.0 569.5Q546 567 544.5 565.0Q543 563 540.0 560.5Q537 558 535.0 555.5Q533 553 528.5 549.5Q524 546 520.5 543.0Q517 540 510.5 534.5Q504 529 499 525L447 487Q453 458 453 438V396Q453 375 451.0 356.5Q449 338 449 316Q464 322 495.5 339.5Q527 357 546 365Q546 388 552 487L555 520Q556 532 559.5 561.0Q563 590 565 605H500Q482 605 482 622Q482 622 481.0 673.5Q480 725 479.0 779.0Q478 833 478 840V841Q478 850 484.0 857.5Q490 865 498.5 871.5Q507 878 509 881Q508 884 503 887Q480 904 454 904Q432 904 390 894ZM394 754 337 697Q331 691 325 691Q308 691 308 709Q308 716 313 721L366 775Q340 799 340 847Q340 880 357 906Q357 906 356.5 907.0Q356 908 356.0 909.0Q356 910 356 910L357 912Q354 912 347.0 910.0Q340 908 338.0 908.0Q336 908 332.5 907.5Q329 907 327 907Q316 907 316 917Q316 920 319.0 927.0Q322 934 322 938Q322 948 309 948H306Q289 948 289 963Q290 975 304 975H306Q330 973 344 966Q345 966 350.0 951.5Q355 937 365 937Q366 937 366.0 936.5Q366 936 367 936H368H379Q379 936 389 946Q425 980 462 993Q480 1000 499 1000Q515 1000 530.5 994.5Q546 989 552.5 985.0Q559 981 577.0 969.0Q595 957 604.0 949.0Q613 941 623.5 926.5Q634 912 641 892Q655 849 661 771Q662 757 663.0 745.0Q664 733 664.5 726.0Q665 719 665.5 713.5Q666 708 666 706L667 703Q667 696 662.0 690.5Q657 685 650 685L620 684Q620 677 615.5 652.0Q611 627 609.0 613.0Q607 599 601.0 564.5Q595 530 594 508L592 467Q589 404 589 384Q589 356 591.0 304.0Q593 252 593 212Q593 204 592.5 186.0Q592 168 592 158Q606 136 606 98Q606 42 581 6Q581 0 563 0H549Q534 0 534 22Q534 31 538.0 56.0Q542 81 542 92Q542 123 519 123Q497 123 458 100Q443 94 390.5 71.5Q338 49 289.0 31.5Q240 14 184 0H100Q82 0 82 22Q82 27 83.5 30.5Q85 34 88.0 36.0Q91 38 94.5 40.0Q98 42 104.5 43.0Q111 44 116.0 45.0Q121 46 131.0 47.5Q141 49 148 50Q148 50 146.0 61.0Q144 72 144 79Q144 95 151.5 104.5Q159 114 186 136Q186 177 180.5 232.0Q175 287 175 324Q175 346 176 359Q175 362 175 369Q175 387 189.5 399.0Q204 411 222 411Q235 411 245 404L406 293Q407 292 407 292Q407 321 410.0 348.5Q413 376 413 396Q413 435 407 470L388 459Q380 454 377 454Q376 454 366 459L310 515L262 462Q257 457 251 457Q250 457 240 462L115 587Q102 600 90 600H85Q68 600 50 618H15Q9 618 4.5 622.5Q0 627 0.0 633.0Q0 639 4.5 643.5Q9 648 15 648H18H41Q22 655 22 676Q22 690 30.5 698.0Q39 706 52 706Q63 706 73.0 698.0Q83 690 83 677Q83 655 63 648H136Q117 655 117 676Q117 690 125.5 698.0Q134 706 147 706Q158 706 168.0 698.0Q178 690 178 677Q178 655 158 648H238Q219 655 219 676Q219 690 227.5 698.0Q236 706 249 706Q260 706 270.0 698.0Q280 690 280 677Q280 655 260 648H283Q293 648 293 632Q293 618 283 618H254Q257 616 266 601L294 579L355 663L360 674Q367 684 379.5 695.0Q392 706 399.5 713.5Q407 721 407 729Q407 743 394 754ZM514 838Q517 751 517 640H561L569 703Q571 718 585 718L630 720Q628 737 626 769Q620 840 607 881Q600 902 590.5 913.0Q581 924 557 940Q522 965 500 965Q464 965 431 937Q445 939 454 939Q493 939 525 915Q545 900 545 881Q545 861 521 844Q519 842 516 840ZM423 876Q442 876 442 853Q442 847 436.0 842.5Q430 838 423 838Q398 838 398 853Q398 863 405.5 869.5Q413 876 423 876ZM438 150Q468 163 548 210Q548 221 548.5 233.0Q549 245 549 248Q549 258 548.0 271.0Q547 284 547 310Q518 299 495.0 288.0Q472 277 438.5 259.0Q405 241 386 231Q364 215 320.5 188.5Q277 162 244.0 137.5Q211 113 185 83Q184 82 184.0 79.0Q184 76 185.5 68.5Q187 61 187 56Q334 89 438 150ZM215 368V324Q215 293 220.5 248.0Q226 203 227 171Q264 203 354 266L368 273L223 371H222Q216 371 215 368ZM395 520Q392 529 385.0 554.5Q378 580 376 589L336 545L375 514ZM274 551 241 584Q228 597 216 597H211Q204 597 191.0 604.5Q178 612 174 618H131Q132 617 133.5 615.0Q135 613 136.5 609.5Q138 606 140 604L249 517Z" fill="currentColor"/>
  </g>
</svg>