<svg xmlns="http://www.w3.org/2000/svg" viewBox="0 0 997 1000">
  <g transform="scale(1,-1) translate(0,-1000)">
    <path d="M48 456Q210 362 295 362Q310 362 323 365Q299 410 299 456Q299 501 324 547Q310 550 295 550Q210 550 48 456ZM445 674Q452 674 514.5 675.0Q577 676 636.5 676.5Q696 677 697 677Q818 677 902 668Q912 667 923.0 663.5Q934 660 951.0 645.0Q968 630 971 606Q997 423 997 235Q997 180 995 125V116Q995 113 992 70Q990 40 969.5 20.0Q949 0 921 0Q760 0 548.0 27.0Q336 54 256 54Q242 54 227.0 53.5Q212 53 200.0 52.0Q188 51 177.0 50.5Q166 50 157.5 49.0Q149 48 143.0 47.0Q137 46 134 46L130 45Q122 45 116.0 51.0Q110 57 110 65Q110 83 127 85Q184 94 257 94Q339 94 550.5 67.0Q762 40 921 40Q934 40 942.5 49.5Q951 59 952 72Q952 81 953.0 98.5Q954 116 955 125Q954 141 948.0 168.0Q942 195 941 204Q938 229 908 232Q809 241 707 241Q669 241 587.0 239.5Q505 238 455 238H416Q408 238 402.0 244.0Q396 250 396.0 258.0Q396 266 402.0 272.0Q408 278 416 278H455Q462 278 524.5 279.0Q587 280 646.5 280.5Q706 281 707 281Q828 281 912 272Q939 268 957 253Q957 312 944 402Q941 427 911 430Q812 439 710 439Q672 439 590.0 437.5Q508 436 458 436H437Q431 419 422.5 403.5Q414 388 398.0 370.0Q382 352 355.0 341.0Q328 330 295 330Q251 330 193.0 351.0Q135 372 100.5 390.0Q66 408 8 442Q0 447 0 456Q0 466 13 473Q67 505 101.0 522.5Q135 540 193.0 561.0Q251 582 295 582Q358 582 392.0 548.5Q426 515 438 476H458Q465 476 527.5 477.0Q590 478 649.5 478.5Q709 479 710 479Q831 479 915 470Q930 470 947 460Q941 536 931 600Q928 625 898 628Q799 637 697 637Q659 637 577.0 635.5Q495 634 445 634H406Q398 634 392.0 640.0Q386 646 386.0 654.0Q386 662 392.0 668.0Q398 674 406 674ZM347 540Q323 497 323 456Q323 416 347 373Q391 393 410 456Q390 520 347 540Z" fill="currentColor"/>
  </g>
</svg>