<svg xmlns="http://www.w3.org/2000/svg" viewBox="0 0 1000 1000">
  <g transform="scale(1,-1) translate(0,-1000)">
    <path d="M870 0V765H129V0Q129 0 94 0Q94 0 85 0V35H15Q9 35 4.5 39.5Q0 44 0 50V135Q0 141 4.5 145.5Q9 150 15 150H85V185H15Q9 185 4.5 189.5Q0 194 0 200V285Q0 291 4.5 295.5Q9 300 15 300H85V335H15Q9 335 4.5 339.5Q0 344 0 350V435Q0 441 4.5 445.5Q9 450 15 450H84V485H15Q9 485 4.5 489.5Q0 494 0 500V585Q0 591 4.5 595.5Q9 600 15 600H84V635H15Q9 635 4.5 639.5Q0 644 0 650V735Q0 741 4.5 745.5Q9 750 15 750H84V787Q84 809 106 809H145V879Q145 885 149.5 889.5Q154 894 160 894H246Q252 894 256.5 889.5Q261 885 261 879V809H295V879Q295 885 299.5 889.5Q304 894 310 894H396Q402 894 406.5 889.5Q411 885 411 879V809H444V879Q444 885 448.5 889.5Q453 894 459 894H545Q551 894 555.5 889.5Q560 885 560 879V809H594V879Q594 885 598.5 889.5Q603 894 609 894H695Q701 894 705.5 889.5Q710 885 710 879V809H744V879Q744 885 748.5 889.5Q753 894 759 894H845Q851 894 855.5 889.5Q860 885 860 879V809H891Q901 809 907.5 803.0Q914 797 914 787V750H985Q991 750 995.5 745.5Q1000 741 1000 735V650Q1000 644 995.5 639.5Q991 635 985 635H914V600H985Q991 600 995.5 595.5Q1000 591 1000 585V500Q1000 494 995.5 489.5Q991 485 985 485H914V450H985Q991 450 995.5 445.5Q1000 441 1000 435V350Q1000 344 995.5 339.5Q991 335 985 335H914V300H985Q991 300 995.5 295.5Q1000 291 1000 285V200Q1000 194 995.5 189.5Q991 185 985 185H914V150H985Q991 150 995.5 145.5Q1000 141 1000 135V50Q1000 44 995.5 39.5Q991 35 985 35H914V0H903ZM85 120H30V65H85ZM85 270H30V215H85ZM84 420H30V365H85ZM84 570H30V515H84ZM84 720H30V665H84ZM914 120V65H970V120ZM914 270V215H970V270ZM914 420V365H970V420ZM914 570V515H970V570ZM914 720V665H970V720ZM774 809H830V864H774ZM624 809H680V864H624ZM474 809H530V864H474ZM325 809H381V864H325ZM175 809H231V864H175Z" fill="currentColor"/>
  </g>
</svg>