<svg xmlns="http://www.w3.org/2000/svg" viewBox="0 -1000 1000 1000">
	<path fill="#000000" d="M118 0Q92 0 70.5 -16Q49 -32 49 -61Q49 -95 96 -118L241 -190L255 -246L229 -460Q227 -485 232.5 -504.5Q238 -524 260 -534L284 -544L279 -562L262 -556L233 -511L204 -536L245 -569L233 -601L210 -602L248 -687Q247 -689 247 -692Q247 -695 247 -697Q247 -703 257 -716.5Q267 -730 300 -739V-740Q299 -740 297 -740.5Q295 -741 290 -741Q283 -741 275 -737Q267 -733 258 -733Q249 -733 239.5 -740Q230 -747 219 -747Q207 -747 197.5 -741.5Q188 -736 180 -736Q166 -736 157 -745.5Q148 -755 148 -772H161Q162 -766 165 -760.5Q168 -755 180 -755Q187 -755 197 -761.5Q207 -768 218 -768Q227 -768 233.5 -763.5Q240 -759 247 -755L262 -944Q264 -963 273.5 -976.5Q283 -990 307 -992Q328 -986 338 -972Q343 -978 351.5 -984.5Q360 -991 372 -992Q393 -986 401 -974Q409 -962 409 -945V-938L394 -752Q405 -752 413 -760Q421 -768 434 -768Q445 -768 455 -761.5Q465 -755 472 -755Q484 -755 487.5 -760.5Q491 -766 492 -772H504Q504 -755 495 -745.5Q486 -736 472 -736Q464 -736 455 -741.5Q446 -747 434 -747Q422 -747 412.5 -740Q403 -733 394 -733Q386 -733 378 -737Q370 -741 363 -741Q358 -741 355.5 -740.5Q353 -740 352 -740Q378 -734 398 -716Q418 -698 418 -666Q418 -645 406.5 -624Q395 -603 376 -575V-546L410 -533Q438 -523 441 -504.5Q444 -486 444 -470Q444 -460 439.5 -439Q435 -418 428.5 -393Q422 -368 416 -345Q408 -315 399 -283.5Q390 -252 387 -221L401 -220V-72L436 -45L497 -34V0H427L335 -27L189 -7Q162 -3 142 -1.5Q122 0 118 0ZM271 -832Q276 -849 290 -859.5Q304 -870 321 -871L327 -942Q327 -953 322.5 -962Q318 -971 305 -975Q292 -974 286.5 -964Q281 -954 280 -942ZM382 -824L391 -939V-944Q391 -955 386.5 -963.5Q382 -972 371 -975Q358 -974 351.5 -963Q345 -952 344 -941L339 -869Q355 -865 366.5 -853Q378 -841 382 -824ZM326 -773Q342 -773 353.5 -785Q365 -797 365 -813Q365 -830 353.5 -841.5Q342 -853 325 -853Q309 -853 298 -842.5Q287 -832 285 -816V-813Q285 -797 297 -785Q309 -773 326 -773ZM265 -753Q273 -755 282 -758Q291 -761 299 -761H301Q285 -768 278 -779.5Q271 -791 269 -802ZM377 -756L380 -793Q376 -783 368.5 -774.5Q361 -766 350 -761H354Q359 -761 365 -759.5Q371 -758 377 -756ZM322 -751H330Q331 -752 333 -754Q335 -756 338 -757Q335 -756 329 -756Q324 -756 320 -756.5Q316 -757 312 -758Q318 -755 322 -751ZM363 -588Q377 -609 387.5 -628Q398 -647 398 -669Q398 -688 386 -700.5Q374 -713 356.5 -719.5Q339 -726 324 -726Q307 -726 287.5 -718Q268 -710 265 -697L321 -662Q329 -670 338 -670Q348 -670 354 -663.5Q360 -657 360 -647Q360 -640 356.5 -632Q353 -624 349 -620L340 -607ZM262 -195L368 -220Q372 -257 381 -286.5Q390 -316 398 -350Q424 -452 424 -470Q424 -483 421 -497.5Q418 -512 399 -519L356 -537V-572L321 -603L337 -627Q339 -631 342 -636Q345 -641 345 -644Q345 -646 344 -650.5Q343 -655 337 -655Q332 -655 329 -652.5Q326 -650 322 -645L262 -682L232 -613L247 -612L262 -570L293 -581L305 -533L277 -523Q257 -516 252.5 -496Q248 -476 250 -460L274 -246ZM279 -638Q271 -638 265 -640.5Q259 -643 254 -647Q258 -652 265 -653.5Q272 -655 273 -655Q287 -655 295 -640Q291 -639 286.5 -638.5Q282 -638 279 -638ZM129 -64L383 -80V-204H377L256 -176L104 -100ZM429 -16H477V-25L425 -32L384 -63L122 -48L89 -92Q68 -79 68 -62Q68 -37 86.5 -27.5Q105 -18 121 -18Q133 -18 153.5 -20.5Q174 -23 190 -25L337 -44Z"/>
</svg>