<svg xmlns="http://www.w3.org/2000/svg" viewBox="0 0 720 1000">
  <g transform="scale(1,-1) translate(0,-1000)">
    <path d="M518 706Q518 687 507.0 675.0Q496 663 476.5 653.5Q457 644 455 642Q457 639 464.0 629.5Q471 620 474.0 615.0Q477 610 481.0 601.0Q485 592 486 582Q494 518 494 494V490Q494 458 477 431Q467 415 412.5 404.5Q358 394 308.5 380.0Q259 366 256 342Q543 344 548 344Q561 344 567.0 346.5Q573 349 578.5 363.5Q584 378 584 409Q584 431 580.0 481.5Q576 532 576 552Q576 577 588.0 620.5Q600 664 611 680Q590 693 584.0 700.5Q578 708 577.0 720.0Q576 732 574 739Q559 749 559 781Q559 784 559.5 790.0Q560 796 560 798Q560 812 544.0 822.0Q528 832 512 834L497 837Q487 837 476 833Q464 818 464 795V785Q464 766 488.5 747.0Q513 728 516 710Q518 708 518 706ZM502 818Q517 818 517 800Q517 795 512.0 791.5Q507 788 502 788Q481 788 481 800Q481 808 487.0 813.0Q493 818 502 818ZM505 860Q532 855 558.0 840.0Q584 825 584 798Q584 796 583.5 789.5Q583 783 583 781Q583 764 601 757Q621 790 621 805Q621 831 598.5 851.5Q576 872 543 872Q522 872 505 860ZM442 860Q432 860 421.5 871.5Q411 883 411 896Q411 902 413.5 915.0Q416 928 416 935Q416 948 408.5 954.0Q401 960 401 964Q401 973 419 973Q432 973 440.0 964.0Q448 955 448 941Q448 933 444.5 918.0Q441 903 441 898Q441 889 451 889Q455 889 458.5 891.5Q462 894 466.0 897.5Q470 901 473 903Q458 923 458 940Q458 970 483.5 985.0Q509 1000 543 1000Q579 1000 606.0 980.0Q633 960 633 928Q633 920 632 916Q648 906 663.0 884.5Q678 863 678 850Q678 833 671.0 833.0Q664 833 660.0 839.0Q656 845 653.0 854.5Q650 864 647 867Q642 873 632.0 880.0Q622 887 618 892Q615 889 605 883Q649 853 649 805Q649 792 641.0 778.5Q633 765 620.5 751.0Q608 737 604 730V729Q604 718 627.0 707.0Q650 696 652 686L720 507V501Q709 397 688 338Q688 338 686.5 322.5Q685 307 682.0 294.5Q679 282 670.0 270.0Q661 258 648 258Q647 258 645.0 258.5Q643 259 642 259Q634 262 634 276Q634 298 646 328Q656 341 664 364L677 498L626 635Q624 632 620.0 620.0Q616 608 612.0 588.0Q608 568 608 552Q608 522 611.5 475.0Q615 428 615 410Q615 352 600.0 334.0Q585 316 550 313L256 312Q236 310 229.5 303.5Q223 297 203 262Q197 242 187.0 200.5Q177 159 166.5 123.0Q156 87 140 54V52V48Q140 42 141.0 28.5Q142 15 142 11V9Q142 5 140.0 3.5Q138 2 127.5 1.0Q117 0 95 0H23Q0 0 0 11V16Q0 30 18.5 37.0Q37 44 60.5 47.5Q84 51 89 56Q106 102 125.5 189.0Q145 276 168 331Q180 357 230 381Q268 399 320.5 410.0Q373 421 407.5 428.0Q442 435 449 445Q459 459 461.0 465.0Q463 471 463 494Q463 513 455 579Q453 592 439 610Q345 579 283 573H271Q243 573 221.0 583.0Q199 593 199 608Q199 621 219.5 634.0Q240 647 280.0 669.0Q320 691 350 716Q395 749 418 749Q434 749 434 733Q434 718 420.5 703.0Q407 688 389 687Q346 673 274 620Q290 626 349.5 637.5Q409 649 428 661Q449 666 469.0 678.5Q489 691 489 699Q489 709 480.5 717.5Q472 726 462.5 731.5Q453 737 444.5 753.5Q436 770 436 795Q436 844 488 883L489 884Q488 885 485 887Q466 860 442 860ZM543 976Q481 976 481 940Q481 911 515 897Q526 901 543.0 901.0Q560 901 577 896Q609 905 609 928Q609 950 589.5 963.0Q570 976 543 976Z" fill="currentColor"/>
  </g>
</svg>