<svg xmlns="http://www.w3.org/2000/svg" viewBox="0 0 1000 1000">
  <g transform="scale(1,-1) translate(0,-1000)">
    <path d="M419 212Q419 240 407.5 253.0Q396 266 375 275Q373 276 369.0 277.5Q365 279 363 280Q363 278 363.5 276.0Q364 274 364 272Q368 241 375.5 227.5Q383 214 407 196Q409 194 412.5 191.5Q416 189 417 188Q419 204 419 212ZM87 309H90Q96 309 100 305Q102 303 158 197Q158 198 161.5 207.0Q165 216 168.5 221.5Q172 227 176 229Q164 261 164 357Q164 382 166.5 418.5Q169 455 172.5 490.0Q176 525 179.0 556.0Q182 587 184 607L187 627Q187 661 126 745Q105 771 105 787Q105 805 118 813Q161 839 214 839Q276 839 316 813Q329 804 329 787Q329 773 319.0 759.0Q309 745 288.5 716.0Q268 687 251 648Q251 648 250 647V646H270Q279 641 291 638Q306 635 306 635L533 639Q685 696 740 734Q803 763 803 777Q803 788 794.5 797.0Q786 806 775.5 812.0Q765 818 756.5 836.5Q748 855 748 882Q748 923 777 955Q814 1000 859 1000Q908 1000 938.5 966.5Q969 933 969 893Q969 878 960.5 863.5Q952 849 939.0 834.0Q926 819 922 811V810Q922 798 946.0 785.5Q970 773 971 762L1000 562V556Q998 537 995.0 470.0Q992 403 986 375Q986 374 985.0 362.5Q984 351 982.0 339.5Q980 328 976.0 315.5Q972 303 963.5 295.0Q955 287 944 287Q943 287 940.5 287.5Q938 288 937 288Q933 289 933 294Q933 296 934.0 301.0Q935 306 935 309V317Q935 348 961 404L955 552L944 706Q940 700 933.0 669.5Q926 639 926 613Q926 603 928.0 578.5Q930 554 930 538V535Q929 533 929 533Q929 517 932.0 490.0Q935 463 935 449Q935 423 929 401V399Q929 389 925.0 380.5Q921 372 915.0 367.0Q909 362 901.0 358.5Q893 355 887.0 353.0Q881 351 874.0 349.5Q867 348 866 348L663 347Q665 322 681.0 281.0Q697 240 697 225Q702 199 715.5 145.0Q729 91 735 57Q744 19 744 5Q744 1 743 0H607Q592 2 592 11V16Q592 32 635.5 44.5Q679 57 683 62Q667 142 650.0 186.0Q633 230 622.5 248.5Q612 267 609 291Q600 258 590.0 185.5Q580 113 566 60Q565 58 565 53Q565 47 566.5 32.0Q568 17 568 12V10Q568 0 520 0H445Q421 0 421 12V18Q421 33 440.0 40.5Q459 48 483.0 52.5Q507 57 513 62Q531 114 540.0 211.0Q549 308 573 368Q584 395 637 423Q666 438 693.0 450.0Q720 462 729.5 466.5Q739 471 747.0 477.5Q755 484 762 494Q764 503 768.0 510.5Q772 518 774.0 525.5Q776 533 776 549Q776 569 768 643Q766 659 752 678L540 590L308 603H303Q295 603 289.0 600.0Q283 597 280 594L277 591Q272 585 258 585H251Q270 414 270 357Q270 262 259 230Q269 228 280 197Q336 303 338 305Q342 309 347 309H350Q351 309 355 307Q363 301 385.0 291.5Q407 282 417 271Q438 248 438 212Q438 169 431 162Q428 159 425 159Q421 159 418 162Q417 163 391.5 183.5Q366 204 358 220Q350 235 346 261Q339 248 329.0 228.5Q319 209 315 202Q339 218 344 218Q358 218 358 203Q358 203 358.0 201.0Q358 199 357.5 197.0Q357 195 357.0 192.0Q357 189 357 187Q357 157 371.0 132.5Q385 108 399.0 93.0Q413 78 413 71V17Q413 2 399 2H39Q25 2 25 17V71Q25 78 38.5 93.5Q52 109 66.0 133.0Q80 157 80 187V203Q80 218 94 218Q100 218 123 202Q120 208 109.0 227.5Q98 247 91 261Q87 232 80 220Q72 204 46.5 184.0Q21 164 19 162Q16 159 13 159Q7 159 5.5 163.0Q4 167 2 180Q0 200 0 212Q0 248 21 271Q31 282 52.5 291.5Q74 301 82 307Q86 309 87 309ZM217 221Q242 225 242 358Q242 432 228 547Q227 559 224.5 575.5Q222 592 221 598Q218 600 214 602Q213 593 206.5 546.0Q200 499 196.0 452.0Q192 405 192 358Q192 225 217 221ZM833 784Q833 763 821.5 749.5Q810 736 790.5 726.0Q771 716 768 713Q771 708 777.5 698.5Q784 689 787.5 683.5Q791 678 795.0 668.0Q799 658 800 647Q808 589 808 549V544Q808 490 791 479Q781 454 728.0 428.5Q675 403 656 380L861 382Q864 383 872.0 384.0Q880 385 884.0 386.5Q888 388 892.0 393.0Q896 398 897 408V410Q903 433 903 451Q903 463 899.5 489.5Q896 516 896 533V535Q897 536 897 538Q897 552 895.0 576.5Q893 601 893 613Q893 641 906.0 689.0Q919 737 930 755Q908 770 901.5 778.0Q895 786 894.0 799.5Q893 813 891 821Q876 832 876 867V885Q876 901 860.0 912.0Q844 923 828 926L811 929Q803 929 790 924Q777 907 777 882Q777 867 779 860Q781 849 804.0 829.5Q827 810 831 789Q833 787 833 784ZM817 908Q832 908 832 888Q832 882 827.5 878.0Q823 874 817 874Q794 874 794 888Q794 896 801.0 902.0Q808 908 817 908ZM820 955Q847 951 874.5 933.0Q902 915 902 885Q902 882 901.5 875.5Q901 869 901 867Q901 848 919 841Q940 881 940 893Q940 923 917.0 945.5Q894 968 859 968Q836 968 820 955ZM216 191H221ZM221 161H216Q198 161 184 186Q174 161 150 161Q130 161 108 177Q106 155 100.0 138.0Q94 121 87.5 111.0Q81 101 69 86Q57 72 53 66V32H385V66Q381 72 369 86Q357 101 350.5 111.0Q344 121 338.0 138.0Q332 155 330 177Q308 161 288 161Q264 161 254 187Q238 161 221 161ZM19 212Q19 196 20 188Q22 189 25.0 191.5Q28 194 30 196Q54 214 62.0 227.5Q70 241 74 272Q74 274 74.5 276.0Q75 278 75 280Q73 279 69.0 277.5Q65 276 63 275Q50 269 42.0 264.0Q34 259 26.5 245.5Q19 232 19 212ZM220 643Q221 650 226 660Q243 699 262.5 728.0Q282 757 291.5 769.0Q301 781 301 788Q268 809 214 809Q168 809 133 788Q133 781 142.5 769.0Q152 757 171.5 728.0Q191 699 208 660Q213 649 214 641Q215 642 217.0 642.0Q219 642 220 643Z" fill="currentColor"/>
  </g>
</svg>