<svg xmlns="http://www.w3.org/2000/svg" viewBox="0 0 752 1000">
  <g transform="scale(1,-1) translate(0,-1000)">
    <path d="M682 189H514L515 34H683ZM670 454Q665 348 640.5 319.5Q616 291 524 291Q510 291 482.5 292.0Q455 293 440 293Q416 293 403 292H384Q383 292 383 291V34H483V205Q483 221 498 221H681L680 381Q680 397 696 397Q705 397 709 390Q711 387 714.0 381.5Q717 376 719 374Q721 384 721 391Q721 418 711.5 447.5Q702 477 695 477Q694 477 685.5 474.0Q677 471 671 471H670ZM639 676Q647 676 671 682Q679 684 679 695V696Q678 696 670.0 699.5Q662 703 660.0 704.0Q658 705 651.5 708.0Q645 711 643.0 714.0Q641 717 637.5 721.5Q634 726 633.0 731.5Q632 737 632 744Q632 750 634.0 759.0Q636 768 636.0 770.0Q636 772 635 772Q625 780 590.0 786.0Q555 792 542 809Q512 769 512 753Q512 741 525.5 722.0Q539 703 559 690Q560 690 565.5 685.5Q571 681 576.5 670.5Q582 660 582 649V643Q576 617 536 467Q531 443 513.5 426.0Q496 409 483.5 404.0Q471 399 468 399Q459 398 438.5 397.0Q418 396 411.0 395.5Q404 395 388.5 393.5Q373 392 363.5 390.0Q354 388 341.0 384.5Q328 381 315 376L306 365Q298 331 285.5 258.5Q273 186 260 137Q257 126 248.5 109.5Q240 93 237 91Q219 79 184.5 63.5Q150 48 134 33Q134 33 138 31Q190 33 198 33Q211 33 265 31Q270 32 273.0 32.5Q276 33 278 33V39Q279 43 282.5 69.0Q286 95 290.0 119.0Q294 143 302.0 176.0Q310 209 322.5 244.5Q335 280 352 311Q363 329 388 329H401Q415 330 440 330Q456 330 483.5 329.0Q511 328 524 328Q565 328 587.0 333.0Q609 338 613.0 343.0Q617 348 620 359Q626 381 630.0 423.0Q634 465 635 496L636 527Q636 544 636.5 571.5Q637 599 637 612Q637 614 638.0 644.0Q639 674 639 676ZM390 753Q390 740 381 740Q381 740 376.5 744.0Q372 748 365.0 754.0Q358 760 350.0 766.5Q342 773 332.5 777.0Q323 781 316 781H314Q292 778 292 752Q292 743 300.0 735.5Q308 728 317.5 723.5Q327 719 335.5 708.0Q344 697 346 681Q352 623 370 427V426Q422 433 461 433Q477 433 495.5 471.5Q514 510 524.5 545.5Q535 581 535 585Q537 591 544.0 621.5Q551 652 554 661Q551 662 545 666Q529 607 505.5 579.0Q482 551 462 551Q444 551 444 568Q444 584 456.5 595.5Q469 607 483.5 628.5Q498 650 501 690Q502 704 502 704Q484 729 484 752Q484 771 490.0 781.5Q496 792 511.5 813.0Q527 834 541 861Q548 883 587.5 909.5Q627 936 632 941Q636 945 646.5 961.5Q657 978 669.5 989.0Q682 1000 698 1000Q716 1000 729.0 987.0Q742 974 742 953Q742 940 734.5 920.5Q727 901 726 895Q726 892 725.5 869.5Q725 847 724.0 824.0Q723 801 716.5 771.0Q710 741 699 720L702 706Q709 680 709 594Q709 583 705.5 575.0Q702 567 696.5 563.0Q691 559 685.5 557.5Q680 556 676 555L673 554V504Q685 509 695 509Q711 509 723.5 495.0Q736 481 741.5 460.0Q747 439 749.5 421.5Q752 404 752 390Q752 337 722 337Q716 337 712 339L715 18Q715 2 699 2H367Q351 2 351 18V219Q330 150 312 41Q312 39 312.5 37.5Q313 36 313 35Q313 35 312.5 31.0Q312 27 311.0 23.5Q310 20 308.0 15.0Q306 10 301.0 6.5Q296 3 289 1Q286 0 282 0Q280 0 277.0 0.5Q274 1 273.0 1.0Q272 1 270.5 0.5Q269 0 268 0H129Q129 0 125.0 0.5Q121 1 117.0 2.0Q113 3 108.5 6.0Q104 9 101.0 15.0Q98 21 98 30Q98 44 105 51Q121 69 136.5 78.0Q152 87 172.0 95.5Q192 104 207 113Q228 145 246.5 259.5Q265 374 275 384L290 403Q298 411 312 415L207 629L118 291Q114 278 100 278Q96 278 94 279L11 315Q0 320 0 331Q0 336 1 338Q41 436 94 568Q151 710 162.5 734.0Q174 758 185 758H186Q197 758 204 746Q238 683 334 466Q319 638 314 679Q313 687 304.5 693.5Q296 700 286.5 704.5Q277 709 268.5 720.5Q260 732 258 748Q258 753 261.0 765.5Q264 778 278.5 794.5Q293 811 317 811Q333 811 360.5 796.5Q388 782 390 760ZM563 779Q571 779 576.5 773.0Q582 767 582 759Q582 743 561 743Q542 743 542 762Q542 779 563 779ZM566 832Q566 824 582.0 819.5Q598 815 616.5 812.5Q635 810 651.0 799.0Q667 788 667 770Q667 765 665.0 756.5Q663 748 663 744Q663 739 669 731Q683 755 688.5 793.0Q694 831 694.0 864.0Q694 897 695 900Q698 913 704.5 928.5Q711 944 711 953Q711 969 698 969Q691 969 684.5 961.0Q678 953 669.5 939.5Q661 926 654 919Q641 906 616.5 894.0Q592 882 579.0 869.5Q566 857 566 832ZM40 341 89 320 186 684 183 691Z" fill="currentColor"/>
  </g>
</svg>