<svg xmlns="http://www.w3.org/2000/svg" viewBox="0 0 842 1000">
  <g transform="scale(1,-1) translate(0,-1000)">
    <path d="M87 953Q87 932 75.5 917.5Q64 903 64 899Q64 892 66 889L146 680L286 681Q304 692 328.5 715.5Q353 739 353 750Q353 760 346.0 768.0Q339 776 329.0 782.5Q319 789 309.0 798.0Q299 807 292.0 824.5Q285 842 285 867Q285 918 327.5 959.0Q370 1000 420 1000Q479 1000 515.0 962.5Q551 925 551 879Q551 866 546.5 851.0Q542 836 538.0 828.0Q534 820 523.5 803.5Q513 787 511 783Q524 760 534.0 746.5Q544 733 549.5 728.0Q555 723 568.5 713.0Q582 703 592 694L730 708L776 890Q772 912 764 920Q755 929 755 953Q755 967 761.0 967.0Q767 967 774.0 952.0Q781 937 786 937Q792 937 799.0 951.0Q806 965 811 980L816 995Q821 1000 827 1000Q842 1000 842 982Q842 966 828.0 939.5Q814 913 805 884Q806 882 806 875Q806 861 799.0 798.5Q792 736 789 695Q787 660 766 655Q721 645 560 626Q531 515 531 331V200Q531 120 530 77L575 44Q578 44 584.0 42.5Q590 41 592.5 40.5Q595 40 599.5 39.0Q604 38 606.0 36.5Q608 35 610.5 33.0Q613 31 614.0 27.5Q615 24 615 20Q615 11 609.0 5.5Q603 0 595 0Q592 0 554.0 7.5Q516 15 462.0 22.5Q408 30 364 30Q345 30 306.0 27.0Q267 24 224.0 20.0Q181 16 141.5 12.0Q102 8 75.5 5.0Q49 2 48 2Q40 2 34.0 7.5Q28 13 28 22Q28 27 29.5 30.5Q31 34 34.0 36.0Q37 38 40.5 40.0Q44 42 50.5 43.0Q57 44 62.0 45.0Q67 46 76.5 47.5Q86 49 93 50Q93 52 91.0 62.5Q89 73 89 79Q89 95 97.0 105.5Q105 116 132 136Q132 177 126.5 233.0Q121 289 121 326V360Q121 362 120.5 365.0Q120 368 120 370Q120 388 135.0 400.0Q150 412 167 412Q183 412 191 405L353 261H354Q354 290 356.0 334.0Q358 378 358 397Q358 431 356.5 450.5Q355 470 346.5 513.5Q338 557 320 615H300Q163 615 110 627Q96 630 87 667Q81 690 66.0 746.5Q51 803 43.5 835.0Q36 867 36 879Q36 880 36 882L37 884Q32 906 16.0 935.0Q0 964 0 981Q0 989 5.0 994.5Q10 1000 16 1000L26 995Q26 995 31.0 980.0Q36 965 43.0 951.0Q50 937 56 937Q60 937 68.0 951.5Q76 966 81 966Q87 966 87 953ZM160 369Q160 368 160.0 366.5Q160 365 160.5 362.5Q161 360 161.0 350.5Q161 341 161 326Q161 292 165.5 241.0Q170 190 171 165Q204 186 301 234L315 241L168 372H167Q162 372 160 369ZM366 82Q432 82 490 67Q490 103 490.5 169.5Q491 236 492 268Q476 262 437.5 248.0Q399 234 373.5 223.5Q348 213 319 198Q309 193 282.5 180.0Q256 167 247.5 162.5Q239 158 219.5 147.0Q200 136 189.0 128.5Q178 121 162.0 109.0Q146 97 131 83Q129 81 129 79Q129 75 133 57Q286 82 366 82ZM369 896Q377 896 382.5 889.0Q388 882 388 873Q388 867 382.0 862.5Q376 858 369 858Q344 858 344 873Q344 883 351.0 889.5Q358 896 369 896ZM458 802Q439 816 439 850Q439 854 439.5 861.0Q440 868 440 871Q440 888 421.0 900.5Q402 913 382 916L363 920Q320 920 320 867Q320 856 323 841Q326 829 342.5 817.0Q359 805 373.5 789.0Q388 773 388 750Q388 737 383.0 726.5Q378 716 372.5 710.5Q367 705 356.5 696.0Q346 687 342 683Q346 667 359.0 623.0Q372 579 378.5 553.5Q385 528 391.5 484.0Q398 440 398 397Q398 374 396.0 333.5Q394 293 394 275L492 311Q495 514 503 568Q512 626 537 685Q528 689 515.0 709.5Q502 730 495 737Q485 747 479.5 756.0Q474 765 468.5 777.0Q463 789 458 798ZM372 949Q405 945 437.5 925.0Q470 905 470 871Q470 868 469.5 860.5Q469 853 469 850Q469 841 473.0 834.5Q477 828 480.0 826.0Q483 824 492 820Q516 859 516 879Q516 913 489.0 939.0Q462 965 420 965Q394 965 372 949Z" fill="currentColor"/>
  </g>
</svg>