<svg xmlns="http://www.w3.org/2000/svg" viewBox="-40 -40 1078.9 639.9">
  <g transform="scale(1,-1) translate(0,-1000)">
    <path d="M164 337Q138 344 116 371Q96 349 82 349H78Q53 349 37.5 370.5Q22 392 19.0 409.5Q16 427 16 439Q16 446 17.5 455.5Q19 465 19 471V474Q1 477 1 496V497Q1 508 11.5 515.0Q22 522 36 522Q57 522 69.0 511.5Q81 501 81 472V434Q81 428 80.0 419.0Q79 410 79 406Q79 404 82 395Q85 396 88 399Q88 400 89.0 405.0Q90 410 92 415Q87 430 87 454Q87 499 120.5 529.5Q154 560 199 560Q247 560 281.5 526.5Q316 493 316 445Q316 425 308 404Q311 400 317.5 390.5Q324 381 328 377Q338 367 353.5 364.0Q369 361 378.5 359.0Q388 357 388 348V347Q388 340 380.5 334.5Q373 329 365 329H364Q359 330 353 330Q325 333 314.0 340.5Q303 348 288 372Q273 354 255 344Q231 337 209 335Q225 333 234.0 328.5Q243 324 245.5 319.5Q248 315 253.0 310.5Q258 306 266 303Q315 285 422 285Q450 285 501.0 281.5Q552 278 581 278Q613 278 631 277Q643 276 655.0 272.0Q667 268 674.0 263.5Q681 259 694.0 250.5Q707 242 715 238Q727 231 743.5 217.5Q760 204 764 201L802 178Q832 168 870.5 150.0Q909 132 933 123Q954 114 975.0 99.0Q996 84 996 72Q996 52 978 52Q975 52 969.5 51.5Q964 51 961 50H974Q984 50 991.5 43.0Q999 36 999.0 25.0Q999 14 991.5 7.0Q984 0 974 0H25Q14 0 7.0 7.0Q0 14 0.0 25.0Q0 36 7.0 43.0Q14 50 25 50H157Q154 53 154 58V64Q155 69 156.0 71.0Q157 73 160.5 74.5Q164 76 170 76Q179 76 203 73Q207 73 214.5 72.0Q222 71 226 71Q233 71 249 75Q254 82 254 87Q254 91 248.5 104.0Q243 117 228.5 137.5Q214 158 194 171Q170 186 139.0 201.0Q108 216 88 229Q75 238 52.0 246.5Q29 255 14 267L5 279Q0 290 0 313V314Q0 327 8.0 335.5Q16 344 26 344Q34 344 42.0 339.0Q50 334 51.0 334.0Q52 334 55.0 333.5Q58 333 60.0 333.0Q62 333 65.0 333.5Q68 334 69 334Q86 334 116.5 335.5Q147 337 164 337ZM863 81H879Q902 81 930 86Q929 87 903.0 99.0Q877 111 842.0 126.0Q807 141 789 147Q741 172 733 176Q692 210 686.0 214.0Q680 218 670.0 226.5Q660 235 652.0 239.0Q644 243 632 244Q629 244 609.5 245.5Q590 247 581 247Q553 247 502.5 250.0Q452 253 422 253Q309 253 256 272Q239 278 230.0 288.5Q221 299 217 301Q216 301 213 302Q189 306 165 306Q150 306 119.0 304.0Q88 302 69 302H50Q39 305 28 310Q24 308 24 305Q25 304 28 300L30 297Q42 283 78 267Q156 273 166 273Q177 273 181 272Q186 272 191.0 267.0Q196 262 196 257Q196 245 185 245L125 243L215 200Q230 189 245 171Q247 173 248 173L277 186Q279 187 282 187Q294 187 294 175Q294 168 287 164L258 151H257Q286 105 288 93Q288 92 290.0 85.0Q292 78 292 77Q296 72 306 72Q311 72 321.5 74.0Q332 76 336 76Q340 81 340 89Q340 91 342.0 101.5Q344 112 344 116V117Q344 118 336 160V162Q336 176 349 178H353Q358 179 365 174Q376 163 384.5 148.0Q393 133 401.0 125.5Q409 118 425 115L517 114Q522 133 527 141Q531 151 533.5 156.5Q536 162 541.5 166.0Q547 170 550.0 172.0Q553 174 563.5 178.0Q574 182 580 185Q585 190 592 190Q598 190 603.0 185.0Q608 180 608 174Q608 161 584.5 151.0Q561 141 556 129Q554 125 548 107V106Q547 87 547 87Q549 75 560.0 73.5Q571 72 572 71Q573 71 578.5 72.5Q584 74 587 75Q592 77 595.0 79.0Q598 81 601.0 84.0Q604 87 605.5 89.5Q607 92 610.5 98.5Q614 105 617 110Q618 112 621.0 121.5Q624 131 629 139Q643 153 656 153Q665 149 700.5 132.0Q736 115 757 111Q765 108 784.0 100.0Q803 92 810.5 89.5Q818 87 833.0 84.0Q848 81 863 81ZM59 475Q59 494 43 494Q39 494 39 489V487Q41 483 41 482V471Q41 464 40.0 454.0Q39 444 39 439Q39 429 43.5 412.0Q48 395 53 395Q57 395 57 399V406Q57 411 58.0 420.0Q59 429 59 434Q59 435 58.5 437.0Q58 439 58 440V447Q58 452 58.5 460.5Q59 469 59 472ZM199 362Q234 362 259.0 386.5Q284 411 284 445Q284 480 259.0 504.0Q234 528 199 528Q166 528 142.5 506.5Q119 485 119 454Q119 417 142.0 389.5Q165 362 199 362ZM361 50H420Q420 50 419.0 52.0Q418 54 417 54Q419 73 426 73Q452 68 452 68L519 69Q516 81 516 82L423 83H421Q394 87 377 104V87Q376 63 361 50ZM625 50H822Q812 53 787.0 61.0Q762 69 749.0 72.0Q736 75 718.0 84.0Q700 93 692 94Q685 101 672 106L657 114H656L644 86Q637 62 625 50Z" fill="currentColor"/>
  </g>
</svg>