<svg xmlns="http://www.w3.org/2000/svg" viewBox="0 0 625 1000">
  <g transform="scale(1,-1) translate(0,-1000)">
    <path d="M416 903Q447 941 464.0 952.5Q481 964 514 975Q518 977 526.0 986.5Q534 996 541 996Q545 996 550.0 992.5Q555 989 555 983Q555 979 550.5 967.0Q546 955 545 948Q570 997 593 997Q607 995 615.0 987.0Q623 979 624.0 974.0Q625 969 625.0 965.0Q625 961 621 943Q621 941 620 939L516 725Q515 724 515 723Q510 713 510 713Q545 697 545 641Q545 622 537 622Q531 622 524.0 633.0Q517 644 495 689Q491 684 491 676Q491 664 503.0 654.0Q515 644 515 631Q515 629 515.5 627.0Q516 625 516 623Q521 619 525.5 615.0Q530 611 532.5 608.5Q535 606 539.0 600.5Q543 595 544.0 593.0Q545 591 549.5 583.5Q554 576 555 573L604 461L598 352Q597 343 596.5 338.0Q596 333 595.5 331.5Q595 330 594.0 328.5Q593 327 593 325H609Q622 325 622 312Q622 307 618.0 302.5Q614 298 609 298H590Q585 285 573 281H569Q552 281 551 299H524Q525 293 525.5 279.0Q526 265 526 258V247Q533 197 533 164V155L532 70Q530 54 530 41V33Q530 11 524.0 5.5Q518 0 505 0H421Q401 0 398 18Q398 36 480 56L468 228H375Q372 179 345 71V67Q345 63 344.0 54.0Q343 45 343 42V34Q343 12 336.5 6.0Q330 0 306 0H238Q211 0 211 18Q211 21 213.5 24.5Q216 28 237.0 38.5Q258 49 295 57L311 229L251 228L289 301L202 302Q225 175 240 98Q243 81 243 80Q243 75 238.5 71.0Q234 67 229 67H145Q140 67 135.5 71.0Q131 75 131 80Q131 82 150.5 189.0Q170 296 170 304Q170 329 200 329L302 328L334 389L343 419Q345 437 345 448Q346 461 346 480Q346 502 327 558Q324 557 269.5 532.5Q215 508 213 507Q151 489 101 479Q94 476 80 472V100L112 27Q113 25 113 21Q113 15 108.5 10.5Q104 6 98 6Q88 6 84 15L65 59L46 15Q42 6 32 6Q26 6 21.5 10.5Q17 15 17 21Q17 24 50 100V471Q32 477 32 496Q32 510 50 514V790Q38 780 34 772Q29 762 25.0 752.0Q21 742 17.0 728.0Q13 714 11 707Q10 717 5.0 739.0Q0 761 0 773Q0 787 5.0 797.0Q10 807 18.0 817.0Q26 827 30 835Q47 874 50.5 886.0Q54 898 58 930Q61 924 68.5 915.5Q76 907 80.0 899.5Q84 892 84 883V877Q84 849 69 816Q80 812 80 802V516H108L193 544Q243 567 318 619Q329 623 348 653Q348 662 345.0 667.5Q342 673 331.5 681.0Q321 689 319 691Q319 690 300.0 671.0Q281 652 277 652Q272 652 267.5 656.5Q263 661 263.0 666.0Q263 671 267 674Q275 679 307 706Q297 724 297 754Q297 794 328 828L331 859Q331 863 332.0 869.0Q333 875 341.0 885.5Q349 896 361 896Q365 896 401 885L402 886Q366 900 348.5 917.0Q331 934 331 947Q331 1000 378 1000Q386 1000 394.5 998.0Q403 996 413.5 985.5Q424 975 424 957Q424 945 415.5 935.0Q407 925 400 925Q385 925 385 939Q385 945 389.5 949.5Q394 954 394 957Q394 970 379 970Q363 970 361 957Q361 943 416 903ZM593 968Q589 968 573.5 933.5Q558 899 534.0 864.5Q510 830 487 830Q484 830 453.0 838.5Q422 847 392 856L363 865Q363 864 361 856L359 832L496 753L592 951Q594 961 594 965Q594 968 593 968ZM369 779Q385 779 385 759Q385 746 369 746Q347 746 347 759Q347 768 353.5 773.5Q360 779 369 779ZM484 430 372 399 338 327Q363 327 413.0 326.5Q463 326 488 326ZM384 469Q384 452 381 433L474 461Q474 470 475.5 483.5Q477 497 477 505L479 617Q479 620 479.5 624.0Q480 628 480 629Q480 637 469.5 649.0Q459 661 459 677Q459 699 475 713Q479 721 484 726L348 804Q348 804 345.5 801.0Q343 798 341.0 795.5Q339 793 336.5 788.5Q334 784 332.0 779.5Q330 775 328.5 768.0Q327 761 327 754Q327 734 335.5 721.0Q344 708 353.5 703.0Q363 698 371.5 685.5Q380 673 380 653Q380 646 378.5 640.0Q377 634 375.5 631.0Q374 628 369.0 622.0Q364 616 363.0 615.0Q362 614 354 608L347 601Q363 576 372.5 533.5Q382 491 384 469ZM215 91 206 143 186 233Q183 216 175.5 167.0Q168 118 163 91ZM533 934V942Q533 956 529 956Q505 956 447 898Q444 895 436 889Q440 886 450.5 878.0Q461 870 467 866Q472 865 478.0 862.5Q484 860 485 860L516 892Q533 922 533 934ZM515 538V488Q515 481 514.5 471.0Q514 461 514 452V451Q515 411 515 411Q515 410 515.5 405.5Q516 401 517.5 379.0Q519 357 522 326H555Q556 329 558.0 333.5Q560 338 561 340Q561 340 560.5 341.5Q560 343 560.0 344.0Q560 345 560.5 349.0Q561 353 561 356Q561 384 561.5 403.5Q562 423 562.0 431.0Q562 439 562 441V449Q562 456 561.5 458.5Q561 461 560.0 464.5Q559 468 555.5 473.0Q552 478 548.5 484.5Q545 491 535.0 506.0Q525 521 515 538ZM326 300 306 258 491 256 489 299 336 300Z" fill="currentColor"/>
  </g>
</svg>