<svg xmlns="http://www.w3.org/2000/svg" viewBox="0 0 711 1000">
  <g transform="scale(1,-1) translate(0,-1000)">
    <path d="M124 513Q173 480 204 480Q216 480 227 484Q233 486 237.5 488.5Q242 491 246.5 495.5Q251 500 254.0 503.0Q257 506 260.0 512.0Q263 518 265.0 521.0Q267 524 270.0 532.5Q273 541 274.0 544.0Q275 547 278.0 557.0Q281 567 282 570ZM299 592Q302 593 305 588V584Q284 515 267 495Q258 483 245 476Q247 474 247 473L282 379H284Q300 379 310 371Q334 353 355.0 329.0Q376 305 384.5 292.0Q393 279 413 246Q415 242 419.0 235.5Q423 229 426.5 223.5Q430 218 434 213Q435 233 435 267Q435 370 452 440H437H430Q418 440 418 453V455Q428 512 464 584Q460 586 449.0 591.0Q438 596 430.5 600.5Q423 605 416 612Q411 617 400.0 632.0Q389 647 382 654Q372 665 359.0 671.0Q346 677 344 678Q340 682 340 687Q340 697 348 700Q373 713 401 730Q434 752 451 759Q448 776 448 801Q448 829 458 835Q472 844 488 850Q418 860 407 892Q405 898 405 900Q405 915 424.5 926.0Q444 937 464 937Q480 937 485 928Q496 912 496 911V908Q496 899 486.5 892.0Q477 885 467 885Q460 885 457 891Q456 892 456 895Q456 901 474 908Q471 911 469 915Q468 915 466.0 915.5Q464 916 462 916Q451 916 438.5 910.5Q426 905 426 900V899L427 898Q431 892 436.5 887.5Q442 883 446.0 880.5Q450 878 457.5 876.0Q465 874 469.0 873.5Q473 873 483.0 871.5Q493 870 497 869Q508 923 513.5 934.0Q519 945 544 954Q563 963 567.0 972.0Q571 981 579 984Q591 988 595 988Q607 988 607 977Q607 972 604 965Q621 996 631 999Q633 1000 637 1000Q645 1000 653.5 995.5Q662 991 662 985V984L632 741Q628 728 627 726Q633 715 636 704Q640 687 651.0 649.5Q662 612 666.5 590.0Q671 568 671 545Q672 526 672.5 509.5Q673 493 673.5 483.0Q674 473 674.5 466.0Q675 459 676 456V453Q676 440 662 440H633Q638 382 638 303Q638 191 621 58Q622 58 624.5 57.5Q627 57 630.0 56.5Q633 56 636 56Q688 51 707 29Q711 24 711 17Q711 0 694 0H220Q203 0 203 10Q203 24 209 29Q225 44 253.5 50.0Q282 56 285.0 59.0Q288 62 290 71Q291 76 291 84V96Q291 134 257.5 202.5Q224 271 224 322Q224 353 253 370L219 463Q219 464 218 466Q213 465 204 465Q167 465 99 509Q99 509 98 510Q96 511 96 512Q95 513 95.5 515.5Q96 518 98 519L119 527L115 538Q113 543 109.0 553.5Q105 564 103 569Q96 587 96 603Q96 616 99 628Q94 629 84 633Q65 642 54 669Q44 658 42 657Q32 654 29 663Q28 667 29 671Q34 680 38.0 701.0Q42 722 46 732Q52 746 76 757Q52 759 32.5 774.0Q13 789 5 812Q0 827 0 841Q0 867 15.0 888.5Q30 910 55 919Q73 925 84 925Q110 925 131.5 909.5Q153 894 162 869Q167 854 167 841Q167 792 125 768H126Q171 768 209 737Q237 714 253 672Q255 665 261.0 645.5Q267 626 271 615Q283 589 283 589Q283 588 284 586ZM105 782Q123 789 134.5 805.5Q146 822 146 841Q146 853 142 862Q135 881 119.0 892.0Q103 903 84 903Q71 903 62 899Q43 892 32.0 876.0Q21 860 21 841Q21 828 25 819Q32 801 48.5 789.5Q65 778 84 778Q96 778 105 782ZM67 718Q81 723 88 706Q91 694 78 690Q72 688 68 688Q69 686 72.5 676.5Q76 667 80.5 661.0Q85 655 93 651Q98 648 105 647Q106 649 108.5 655.0Q111 661 112 664Q124 698 124 712Q124 713 123.5 716.5Q123 720 123 722Q123 722 122.5 723.0Q122 724 122 725Q121 729 115.5 731.0Q110 733 100.5 735.5Q91 738 84 741Q66 735 61 713Q66 718 67 718ZM123 749Q124 748 124 748H125Q137 742 141 731Q143 728 143 725Q144 720 144 712Q144 690 130.0 656.0Q116 622 116 604Q116 588 121 576Q123 571 127.5 560.5Q132 550 134 545L259 591Q258 595 255.5 600.0Q253 605 252 608Q247 620 241.5 640.0Q236 660 234 666Q217 717 169 740Q150 749 126 749ZM562 741Q568 723 568 716Q568 693 558 662Q549 637 523 617Q505 603 495 586Q453 502 447 467Q450 467 454.5 467.5Q459 468 461 468Q489 533 551 533Q577 533 599.0 514.0Q621 495 629 467H648Q646 493 644 544Q644 567 639.0 589.5Q634 612 624.5 645.5Q615 679 610 698Q605 714 596 723Q585 734 562 741ZM417 698Q427 698 427 687Q427 678 417 678Q413 678 406.5 677.5Q400 677 397 677Q398 676 423 646Q433 632 440.0 626.5Q447 621 466 612Q467 612 470.0 610.0Q473 608 476 607Q482 616 489 623Q494 628 505.0 636.5Q516 645 520 649Q530 659 533 670Q542 696 542 716Q542 722 534 746H521Q489 746 467.5 737.5Q446 729 415 708Q412 706 406.5 702.5Q401 699 398 697ZM597 34Q587 44 587 56Q587 57 591.0 90.5Q595 124 599.0 182.5Q603 241 603 302Q603 389 598 450Q596 468 581.5 483.5Q567 499 551 499Q544 499 534.5 497.0Q525 495 509.5 481.5Q494 468 488 445Q475 398 472.0 355.0Q469 312 469.5 257.5Q470 203 466 161Q464 146 448 146Q439 146 435 152Q414 179 390.0 220.0Q366 261 344.0 290.0Q322 319 290 343Q286 345 284 345Q276 345 267.0 337.0Q258 329 258 322V321Q259 275 292.0 209.0Q325 143 325 96V81Q325 72 324 66Q321 47 307 34ZM476.0 698.0Q458 698 458.0 710.0Q458 722 476.0 722.0Q494 722 494.0 710.0Q494 698 476.0 698.0ZM587 928V932Q587 936 584 947Q583 950 583 955Q583 956 583.5 958.5Q584 961 584 962Q574 945 562 940Q559 939 552.0 937.5Q545 936 542 935Q529 931 516 865Q518 865 521.5 863.5Q525 862 526 861Q533 862 546.0 866.0Q559 870 566 871Q585 922 587 928ZM479 768Q499 773 522 773Q579 773 610 747L636 971Q618 944 606.5 913.5Q595 883 589.5 867.5Q584 852 575 849Q575 849 539.0 840.5Q503 832 477 819V817Q477 816 476.0 807.5Q475 799 475 793Q475 779 479 768Z" fill="currentColor"/>
  </g>
</svg>