<svg xmlns="http://www.w3.org/2000/svg" viewBox="0 0 620 1000">
  <g transform="scale(1,-1) translate(0,-1000)">
    <path d="M319 691Q289 664 281.5 658.5Q274 653 267 653Q252 653 252 666Q252 674 262 681Q267 684 281.0 695.0Q295 706 302 710Q292 728 292 758Q292 798 323 832L326 863Q326 867 327.0 873.0Q328 879 336.0 889.5Q344 900 356 900Q359 900 404 887Q382 918 378 956Q378 961 380.0 968.0Q382 975 393.5 987.0Q405 999 425 999Q433 999 441.5 997.0Q450 995 460.5 984.5Q471 974 471 956Q471 944 462.5 934.0Q454 924 447 924Q432 924 432 938Q432 944 436.5 948.0Q441 952 441 955Q441 969 420 969Q408 969 408 958Q408 911 462 870Q467 869 473.5 866.5Q480 864 482 864Q483 865 484 865Q487 866 489.5 868.5Q492 871 493.5 873.0Q495 875 498.5 879.5Q502 884 506 888Q514 898 528.5 929.5Q543 961 557.5 980.5Q572 1000 588 1000Q602 998 610.0 990.0Q618 982 619.0 977.0Q620 972 620.0 968.0Q620 964 616 946Q616 944 561.5 831.5Q507 719 505 717Q540 701 540 645Q540 626 532 626Q526 626 519.0 637.0Q512 648 490 693Q486 688 486 680Q486 668 498.0 658.0Q510 648 510 635V634Q510 632 510.5 627.5Q511 623 511 620Q532 605 550 570L599 458L593 356Q592 347 591.5 342.0Q591 337 590.5 335.5Q590 334 589.0 332.5Q588 331 588 329H604Q617 329 617 316Q617 311 613.0 306.5Q609 302 604 302H585Q580 289 568 285H564Q547 285 546 303H519Q520 297 520.5 283.0Q521 269 521 262V251Q528 197 528 164V155L527 70Q525 54 525 41V33Q525 11 519.0 5.5Q513 0 500 0H416Q396 0 393 18Q393 36 475 56L463 232H370Q365 169 340 71V67Q340 63 339.0 54.0Q338 45 338 42V34Q338 12 331.5 6.0Q325 0 301 0H233Q206 0 206 18Q206 21 208.5 24.5Q211 28 232.0 38.5Q253 49 290 57L306 233L246 232L284 305L197 306Q238 83 238 80Q238 75 233.5 71.0Q229 67 224 67H140Q135 67 130.5 71.0Q126 75 126 80Q126 81 134.0 127.0Q142 173 151.0 224.5Q160 276 162 286Q165 301 165 308Q165 333 195 333L297 332L329 393L338 423Q340 441 340 452Q341 465 341 484Q341 506 322 562Q319 561 282.0 541.0Q245 521 242 520Q182 502 176 498Q174 497 122 483Q120 482 114.0 480.5Q108 479 106 478V21Q106 13 100.0 7.0Q94 1 86.0 1.0Q78 1 72.0 7.0Q66 13 66 21V477Q53 486 53 500Q53 512 66 516V742Q55 750 52.5 786.0Q50 822 31 827Q0 836 0 866Q0 887 16.5 897.5Q33 908 87.0 908.0Q141 908 157.5 897.5Q174 887 174 866Q174 844 152.5 832.0Q131 820 129 817Q126 813 121.0 783.5Q116 754 106 744V520H129L222 557Q232 561 259.5 584.5Q287 608 313 623Q327 631 343 657Q343 665 340.5 670.0Q338 675 336.0 677.0Q334 679 328.5 683.5Q323 688 319 691ZM482 834Q479 834 448.0 842.5Q417 851 388 860L358 869Q358 868 356 860L354 836L491 757L587 954Q587 956 588.0 959.0Q589 962 589.5 964.5Q590 967 590 968Q589 969 589 969H588V970Q580 965 563.5 930.0Q547 895 526.0 864.5Q505 834 482 834ZM364 783Q380 783 380 763Q380 750 364 750Q342 750 342 763Q342 772 348.5 777.5Q355 783 364 783ZM479 434 367 403 333 331Q358 331 408.0 330.5Q458 330 483 330ZM379 473Q379 457 376 437L469 465Q469 474 470.5 487.5Q472 501 472 509L474 621Q474 624 474.5 628.0Q475 632 475 633Q475 641 464.5 653.0Q454 665 454 681Q454 703 470 717Q474 725 479 730L343 808Q343 808 340.5 805.0Q338 802 336.0 799.5Q334 797 331.5 792.5Q329 788 327.0 783.5Q325 779 323.5 772.0Q322 765 322 758Q322 738 330.5 725.0Q339 712 348.5 707.0Q358 702 366.5 689.5Q375 677 375 657Q375 650 373.5 644.0Q372 638 370.5 635.0Q369 632 364.0 626.0Q359 620 358.0 619.0Q357 618 350 612L342 605Q358 580 367.5 537.5Q377 495 379 473ZM210 91 201 143 181 237Q177 215 169.5 165.5Q162 116 158 91ZM21 865Q27 859 38.5 855.5Q50 852 60 838Q69 825 72.0 801.5Q75 778 78 772Q79 770 79 767H86Q93 769 96 772Q99 778 101.5 801.5Q104 825 113 838Q123 852 134.5 855.0Q146 858 152 865Q152 870 127.5 875.5Q103 881 87 881Q74 881 58.0 878.0Q42 875 31.5 871.0Q21 867 21 865ZM510 535V492Q510 485 509.5 475.0Q509 465 509 456V455Q510 415 510.0 415.0Q510 415 510 414Q513 398 517 330H550Q551 333 553.0 337.0Q555 341 556 344Q556 344 555.5 345.5Q555 347 555.0 348.0Q555 349 555.5 353.0Q556 357 556 360Q556 388 556.0 405.5Q556 423 556.5 429.5Q557 436 557 438V446Q557 453 556.5 455.5Q556 458 555.0 461.5Q554 465 550.5 470.0Q547 475 543.5 481.5Q540 488 530.0 503.0Q520 518 510 535ZM321 304 301 262 486 260 484 303 331 304Z" fill="currentColor"/>
  </g>
</svg>