<svg xmlns="http://www.w3.org/2000/svg" viewBox="0 0 938 1000">
  <g transform="scale(1,-1) translate(0,-1000)">
    <path d="M70 283Q0 390 0 528Q0 722 137.5 859.0Q275 996 469.0 996.0Q663 996 800.5 859.0Q938 722 938 528Q938 396 868 283H876Q903 283 920.0 270.5Q937 258 938 239V13Q938 0 925 0H13Q0 0 0 13V239Q1 258 18.0 270.5Q35 283 62 283ZM368 737V740Q310 738 269.5 716.5Q229 695 204.5 652.0Q180 609 166.5 565.5Q153 522 140 452Q159 467 185.0 506.5Q211 546 233.5 582.5Q256 619 292.5 653.5Q329 688 369 700Q368 737 368 737ZM367 649Q367 652 367.5 660.0Q368 668 368 671Q330 657 296.0 618.5Q262 580 240.5 541.0Q219 502 190.0 464.5Q161 427 134 416Q123 353 123 352Q155 376 185.5 421.0Q216 466 236.5 506.5Q257 547 291.5 588.0Q326 629 367 649ZM553 765Q555 756 564 710Q605 702 643.0 667.5Q681 633 705.0 594.5Q729 556 756.0 515.0Q783 474 802 459Q790 526 773.0 575.0Q756 624 728.0 669.0Q700 714 656.0 738.5Q612 763 553 765ZM573 658Q615 638 650.0 597.0Q685 556 706.0 515.5Q727 475 757.5 429.5Q788 384 820 360Q819 368 816.0 383.5Q813 399 811 411L809 423Q781 434 752.0 472.0Q723 510 701.0 550.0Q679 590 643.5 629.0Q608 668 569 680Q570 677 571.0 669.5Q572 662 573 658ZM30 528Q30 346 159.0 217.5Q288 89 469.0 89.0Q650 89 779.0 217.5Q908 346 908 528Q908 709 779.5 837.5Q651 966 469.0 966.0Q287 966 158.5 837.5Q30 709 30 528ZM428 854Q428 847 423.5 842.5Q419 838 413 838Q400 838 400 854Q400 866 416 866Q428 866 428 854ZM468 805Q468 801 463.0 792.0Q458 783 440.5 770.5Q423 758 397 751Q397 748 397.5 744.0Q398 740 398 737Q399 725 399 699Q399 660 394 608Q395 606 395 602Q395 598 392 593Q377 443 377 420Q377 371 388.0 340.0Q399 309 411.5 299.0Q424 289 435.0 281.0Q446 273 446 266Q446 263 444 259L402 171H526L483 259Q481 263 481 266Q481 272 494.0 282.0Q507 292 522.0 305.5Q537 319 550.0 359.5Q563 400 563 461Q563 487 560.5 520.0Q558 553 555.5 573.5Q553 594 552 595Q549 600 549 604Q549 607 550 609Q528 758 510.0 808.5Q492 859 455 883Q442 891 430 891Q408 891 353 854Q326 836 323 811Q340 831 354 831Q382 831 394 778Q413 783 424.5 790.5Q436 798 439.0 804.0Q442 810 445.5 814.0Q449 818 455 818Q468 818 468 805ZM198 316 266 384Q270 388 277 388Q285 388 290 380L320 329L352 356Q347 382 347 420Q347 468 356 545Q314 488 283.0 445.0Q252 402 237.5 379.5Q223 357 214.5 344.0Q206 331 203.0 324.5Q200 318 198 316ZM579 349 603 329Q621 359 632 379L635 384Q640 389 646.0 389.0Q652 389 657 384L725 318L589 541Q594 496 594 461Q594 398 579 349ZM607 291Q604 291 594.0 298.0Q584 305 576 312L567 319Q547 280 516 260L563 162Q565 158 565 155Q565 149 560.5 144.5Q556 140 550 140H377Q371 140 366.5 144.5Q362 149 362 155Q362 158 364 162L411 260Q379 282 362 323L326 294Q322 290 316 290Q308 290 303 298L273 348L216 292Q230 245 230 245Q230 239 225.5 234.5Q221 230 215 230Q205 230 200.5 241.0Q196 252 194.5 264.5Q193 277 183.0 288.0Q173 299 153 299Q151 299 148 298H146Q140 298 135.5 302.5Q131 307 131 313Q131 328 152 328Q164 328 169 327Q169 330 171 332Q245 432 289.0 494.0Q333 556 347.5 579.0Q362 602 363 604Q363 606 363.5 610.0Q364 614 364 616Q328 594 296.0 549.5Q264 505 243.0 463.0Q222 421 187.0 377.0Q152 333 110 311Q108 310 103 310Q89 310 89 324Q89 324 91.0 334.0Q93 344 96.5 363.5Q100 383 103 402Q130 558 156 619Q211 751 343 766Q353 767 365 768Q361 788 353 799H351Q338 799 324 787L309 775Q307 774 305 774Q293 774 293 801Q293 849 339 881Q397 921 430 921Q436 921 443.0 920.0Q450 919 465.5 911.5Q481 904 494.0 892.0Q507 880 522.0 854.0Q537 828 546 793Q591 793 628.0 780.5Q665 768 692.0 748.5Q719 729 741.5 698.0Q764 667 778.0 637.0Q792 607 804.5 564.5Q817 522 824.0 488.5Q831 455 839 410Q842 391 845.5 371.5Q849 352 851 342L853 331Q853 317 839 317Q837 317 833 319Q791 341 755.5 385.0Q720 429 699.0 471.0Q678 513 646.0 557.5Q614 602 578 624Q581 606 581 606L750 334Q761 338 778 338Q799 338 799 323Q799 317 794.5 312.5Q790 308 784 308H777Q752 308 743.0 291.0Q734 274 730.5 257.0Q727 240 715 240Q709 240 704.5 244.5Q700 249 700 255Q700 260 710 290L649 349Q623 305 617.5 298.0Q612 291 607 291ZM845 248Q834 232 818.5 214.5Q803 197 767.5 167.0Q732 137 692.5 115.0Q653 93 593.0 76.0Q533 59 469 59Q355 59 256.5 110.0Q158 161 93 249Q77 256 63 256Q27 256 27 238V27H911V238Q911 256 875 256Q861 256 845 248Z" fill="currentColor"/>
  </g>
</svg>