<svg xmlns="http://www.w3.org/2000/svg" viewBox="0 0 674 1000">
  <g transform="scale(1,-1) translate(0,-1000)">
    <path d="M224 647Q188 696 188 753Q188 799 215.5 855.5Q243 912 295.0 956.0Q347 1000 405 1000Q418 1000 453.0 985.0Q488 970 519 951Q537 940 562 905Q566 911 575 920L584 930Q599 947 617 947Q638 947 648.5 931.5Q659 916 659 898Q659 881 654.5 869.5Q650 858 644.5 852.0Q639 846 627 836L665 826Q674 822 674 809Q674 804 668.5 797.5Q663 791 658 788L652 784L607 808Q608 803 620.0 761.5Q632 720 641.0 679.0Q650 638 652 608V607Q652 587 635 587L547 607Q558 514 558 461Q558 357 541.5 259.0Q525 161 525 145Q525 114 528.0 101.5Q531 89 543.0 70.5Q555 52 564 33Q564 31 565.5 27.5Q567 24 567 22Q567 13 561.0 6.5Q555 0 547 0H19Q9 0 4.5 8.0Q0 16 0 22Q0 35 31.5 76.5Q63 118 65 150Q67 180 67 189Q67 231 53.0 283.5Q39 336 39 386Q39 423 54.0 446.5Q69 470 91 474Q100 474 110 468Q149 443 177.5 414.0Q206 385 238.0 346.0Q270 307 295 282L365 579Q342 583 331 587Q322 590 312.0 601.5Q302 613 300 614Q287 589 265 589Q248 589 236.0 604.5Q224 620 224 647ZM410 726Q412 725 426.5 721.5Q441 718 451.0 704.5Q461 691 474 656L611 630Q602 705 583.5 762.5Q565 820 551.5 842.0Q538 864 511.5 895.0Q485 926 483 929Q464 955 405 955Q369 955 340.5 938.5Q312 922 302 906L291 889Q332 880 348.0 875.5Q364 871 393.5 855.0Q423 839 448 813Q459 800 459 785Q458 770 456 767Q456 757 410 726ZM486 145Q486 171 502.5 266.0Q519 361 519 461Q519 514 506 613L457 611Q444 600 439.5 596.5Q435 593 426.5 588.5Q418 584 406 582L329 254Q328 251 324.0 245.5Q320 240 319 239Q319 232 297 232H296Q282 232 270 248Q246 272 213.5 311.5Q181 351 153.5 379.5Q126 408 90 430Q81 424 78 406V386Q78 339 92.0 287.0Q106 235 106 189Q106 136 98.0 113.0Q90 90 65 55Q60 49 58 45H512Q496 72 491.0 89.0Q486 106 486 145ZM284 803Q295 803 303.5 797.0Q312 791 312.0 781.0Q312 771 303.5 765.0Q295 759 284 759Q257 759 257.0 781.0Q257 803 284 803ZM266 855Q251 834 244.5 823.5Q238 813 232.5 794.5Q227 776 227 753Q227 739 233.5 720.0Q240 701 247 688L254 676Q280 676 297.5 666.5Q315 657 324.5 645.5Q334 634 336 633Q358 623 375 623Q390 623 400.5 626.0Q411 629 415.5 631.5Q420 634 427.5 641.0Q435 648 438 650Q428 680 419 685Q419 685 412.5 686.5Q406 688 400.0 690.0Q394 692 387.0 696.0Q380 700 375.5 707.0Q371 714 371 724Q371 742 397.5 758.5Q424 775 424 784Q422 823 266 855ZM592 861Q601 861 614.0 869.5Q627 878 627 890Q627 896 624.0 903.0Q621 910 618 910Q612 910 598.5 895.0Q585 880 583 871Q584 870 585.0 867.0Q586 864 586 863Q590 861 592 861Z" fill="currentColor"/>
  </g>
</svg>