<svg xmlns="http://www.w3.org/2000/svg" viewBox="0 -1000 1000 1000">
	<path fill="currentColor" d="M142 0Q96 0 96 -36Q96 -45 104.5 -59.5Q113 -74 122.5 -87Q132 -100 135 -104Q101 -133 75 -196.5Q49 -260 49 -375Q49 -460 64 -551.5Q79 -643 115 -758Q129 -802 147.5 -845Q166 -888 186.5 -923Q207 -958 227 -979.5Q247 -1001 263 -1001Q279 -1001 299 -979.5Q319 -958 339.5 -923Q360 -888 379 -845Q398 -802 411 -758Q447 -643 462.5 -551.5Q478 -460 478 -375Q478 -257 451 -193Q424 -129 387 -100Q392 -95 400.5 -83Q409 -71 416.5 -58Q424 -45 424 -36Q424 0 378 0ZM458 -400Q456 -470 442.5 -553Q429 -636 398 -733Q385 -777 367 -820.5Q349 -864 330.5 -900Q312 -936 294.5 -957.5Q277 -979 263 -979Q250 -979 232 -957.5Q214 -936 195.5 -900Q177 -864 159.5 -820.5Q142 -777 128 -733Q122 -714 116.5 -694.5Q111 -675 106 -655ZM455 -303Q458 -336 458 -375L101 -635Q97 -619 93.5 -602.5Q90 -586 87 -570ZM263 -83Q278 -83 305 -86.5Q332 -90 362 -107.5Q392 -125 416.5 -166Q441 -207 452 -281L83 -549Q68 -453 68 -375Q68 -287 83.5 -232Q99 -177 123 -146Q147 -115 174 -102Q201 -89 225 -86Q249 -83 263 -83ZM142 -20H378Q405 -20 405 -36Q405 -42 398 -52.5Q391 -63 383.5 -73.5Q376 -84 372 -89Q340 -70 309.5 -66.5Q279 -63 263 -63Q247 -63 215.5 -66.5Q184 -70 151 -92Q150 -90 141 -78.5Q132 -67 124 -54.5Q116 -42 116 -36Q116 -20 142 -20Z"/>
</svg>