<svg xmlns="http://www.w3.org/2000/svg" viewBox="0 0 974 1000">
  <g transform="scale(1,-1) translate(0,-1000)">
    <path d="M88 725Q78 727 74 727Q57 727 48.5 717.0Q40 707 34 687Q32 675 32 672Q32 665 43 629Q46 621 59.5 604.0Q73 587 77 577Q91 635 111 665Q117 673 122.0 683.0Q127 693 133.5 706.0Q140 719 145 729Q116 723 108 723Q104 723 88 725ZM44 671Q45 680 58 680Q68 680 72 679Q84 677 79 656Q77 648 70.0 643.5Q63 639 56 640Q43 643 43 663Q43 664 43.5 667.0Q44 670 44 671ZM439 504Q439 488 410 479L381 470H380Q381 469 381 468Q381 439 428 420Q503 388 606 373Q714 360 732 360Q751 360 785.5 357.0Q820 354 834 354H841L796 394Q689 464 490 545Q473 552 464 556Q436 568 415.5 573.0Q395 578 366.5 582.5Q338 587 312 593Q312 593 309.5 594.5Q307 596 305.5 597.0Q304 598 301.0 600.0Q298 602 296.5 604.0Q295 606 293.0 609.0Q291 612 290.0 616.0Q289 620 289 624Q289 627 289.5 629.5Q290 632 290 634V643Q290 664 302 698Q293 685 273.5 661.0Q254 637 240.0 618.5Q226 600 221 587Q203 546 203 536V535Q203 527 207 521Q227 489 248.0 467.5Q269 446 307.5 417.0Q346 388 364 373Q391 350 495 273Q506 272 527 272H533Q579 272 603.5 264.0Q628 256 665 234Q669 237 673 238L736 301Q742 307 749 307Q750 307 751.5 306.5Q753 306 754 306Q821 287 842.5 282.5Q864 278 894 278H914Q900 293 890.0 302.0Q880 311 872 319Q871 319 868.0 318.5Q865 318 859.0 318.0Q853 318 843 318Q778 318 603 339Q494 354 415 387Q346 414 346 468Q346 480 365.0 493.5Q384 507 402.0 514.0Q420 521 422 521Q429 521 434.0 516.0Q439 511 439 504ZM285 18Q285 44 340 44H344Q380 44 430 37Q434 43 450.0 64.0Q466 85 472 97Q480 112 489.0 161.5Q498 211 503 223Q491 233 434.0 274.0Q377 315 341 346Q324 361 285.0 390.5Q246 420 222.5 443.5Q199 467 177 501Q167 519 167 536Q167 546 170.5 557.0Q174 568 180.5 581.0Q187 594 189 600Q197 621 236.5 673.5Q276 726 288 750Q290 754 290 758Q290 773 275.5 790.5Q261 808 244 808Q229 808 216 792Q213 788 207.0 772.0Q201 756 193 745Q114 627 110 562Q108 523 100 488Q99 484 97.5 466.5Q96 449 93.0 438.0Q90 427 86 427H85Q69 433 57.0 466.0Q45 499 41.5 523.5Q38 548 37 565Q36 576 25.0 592.0Q14 608 10 619Q0 651 0 668Q0 673 2 687Q13 756 79 756Q81 756 85.5 755.5Q90 755 92.0 755.0Q94 755 97.0 754.5Q100 754 101 754Q122 754 135.0 765.5Q148 777 154.0 792.0Q160 807 172.0 824.0Q184 841 201 849Q222 859 244 859Q278 859 309 834Q309 834 313.5 830.5Q318 827 320.0 824.5Q322 822 327.0 816.5Q332 811 335.0 805.0Q338 799 341.0 790.0Q344 781 345.5 769.5Q347 758 347 745Q347 697 325 627Q348 621 376.5 616.5Q405 612 426.5 606.5Q448 601 477 589Q484 586 526.5 569.0Q569 552 577.5 548.5Q586 545 619.5 531.0Q653 517 667.5 509.5Q682 502 709.0 488.0Q736 474 758.5 460.5Q781 447 806 430Q833 412 892 357Q900 358 913 358Q918 358 932.0 357.5Q946 357 957 357Q974 357 974.0 340.0Q974 323 957 323Q948 323 936.5 322.0Q925 321 918 321Q930 307 944.5 294.0Q959 281 966.0 274.5Q973 268 973 262Q973 255 968.0 249.0Q963 243 955 243H947Q937 243 920.0 242.5Q903 242 894 242Q838 242 754 269L691 206L680 31Q680 1 654 1H651Q596 9 576 9Q566 9 557.5 8.0Q549 7 542.5 6.0Q536 5 531.5 4.0Q527 3 524 2L522 1Q514 1 509.0 7.0Q504 13 504 19Q504 28 513 35Q550 45 557 45H561L645 43L655 200Q609 225 591.5 231.0Q574 237 541 237Q538 222 521.5 152.0Q505 82 504 81Q488 50 460 9Q452 1 446 1H443Q376 9 348 9H344H338Q328 9 317.5 4.5Q307 0 303 0Q298 0 291.5 4.0Q285 8 285 18Z" fill="currentColor"/>
  </g>
</svg>