<svg xmlns="http://www.w3.org/2000/svg" viewBox="0 0 989 1000">
  <g transform="scale(1,-1) translate(0,-1000)">
    <path d="M213 486Q213 454 237.5 396.5Q262 339 262 289Q262 253 244.5 199.0Q227 145 224 133Q220 119 207 119L156 117Q152 113 152 111Q152 110 152 110L153 108Q170 101 188 101Q201 101 219 105Q239 168 251.0 194.0Q263 220 289 251Q301 264 301 282Q301 288 299.5 305.0Q298 322 298 333Q298 355 316 355Q324 355 329.0 349.5Q334 344 334 337V336Q389 331 407 331Q458 331 523 353Q533 356 548 361Q550 378 566 378Q577 378 586.0 365.0Q595 352 609.5 329.0Q624 306 643 290Q657 278 674 278Q678 278 689.0 279.0Q700 280 706 280Q748 280 783.0 228.5Q818 177 818 120Q818 100 808.0 86.5Q798 73 788.0 65.5Q778 58 778 53Q778 52 784 49L829 92Q829 92 830.5 121.0Q832 150 832 151Q832 180 814 202Q789 231 774.0 285.0Q759 339 744.5 379.0Q730 419 700 428Q639 446 558 446Q537 446 498.5 444.5Q460 443 441 443Q354 443 290 474Q254 491 254 530Q254 540 257.5 562.0Q261 584 261 596Q261 604 258.5 614.0Q256 624 254 630L252 636Q242 666 233.5 676.5Q225 687 207 687Q192 687 159.0 666.5Q126 646 120 646Q120 646 116.0 646.0Q112 646 106.0 646.5Q100 647 95 647Q81 647 71 645Q81 640 108.0 634.5Q135 629 157.5 618.0Q180 607 197 586Q214 564 214 526Q214 520 213.5 506.5Q213 493 213 486ZM44 192Q39 190 36 185Q36 182 42 176L91 163Q119 201 133.5 218.0Q148 235 188 273Q209 293 225 309Q222 340 211 368Q194 332 165.5 286.0Q137 240 110 191Q106 182 94 182Q92 182 44 192ZM682 242Q696 218 699 206Q701 198 708.0 175.5Q715 153 715 140Q715 98 687 70Q681 64 669.0 54.5Q657 45 651 39Q651 36 657 36L705 75Q725 129 725 162Q725 199 708 244H706Q703 244 695.0 243.0Q687 242 682 242ZM203 667Q227 667 227 654Q227 636 205 636Q184 636 184 652Q184 658 190.0 662.5Q196 667 203 667ZM742 54Q742 73 762.0 91.0Q782 109 782 120Q782 162 757 201Q761 177 761 162Q761 125 747 85Q743 76 738 59Q738 56 732 51L675 4Q670 0 660 0Q615 0 615 43Q615 56 631.0 69.0Q647 82 663.0 99.0Q679 116 679 140Q679 147 677.5 152.5Q676 158 672.0 170.0Q668 182 664 198Q658 224 620 262Q604 275 597.0 283.5Q590 292 567 329Q534 318 534 318Q463 295 407 295Q398 295 336 300Q336 298 336.5 292.0Q337 286 337 284Q337 252 317 228Q290 197 276.0 163.0Q262 129 257.0 106.0Q252 83 246 77Q234 65 188 65Q152 65 128 80Q117 87 117 110Q117 129 129.0 141.0Q141 153 150 153L192 154Q192 154 199.5 178.0Q207 202 215.0 227.5Q223 253 223 257L213 247Q155 191 126 150Q111 130 107.5 127.0Q104 124 98 124Q96 124 28 143Q20 145 10.0 158.0Q0 171 0 185Q0 204 15.5 216.5Q31 229 42 229Q43 229 85 220Q107 261 126.0 292.0Q145 323 158.0 345.0Q171 367 188 404Q188 405 193 410Q177 450 177 485Q177 492 177.5 504.0Q178 516 178 523Q178 555 161.0 572.0Q144 589 122.0 592.5Q100 596 72.0 605.5Q44 615 28 632Q24 636 24 645Q24 648 25.0 651.5Q26 655 30.0 661.0Q34 667 41.0 671.5Q48 676 62.0 679.5Q76 683 95 683H116Q126 687 142.5 698.0Q159 709 174.5 716.0Q190 723 207 723H211Q233 765 238 834Q259 824 259 780Q258 769 246 713Q272 770 278 826Q299 809 299 776Q272 717 272 684Q272 684 274.5 678.0Q277 672 280.5 662.5Q284 653 288.0 642.0Q292 631 294.5 618.5Q297 606 297 596Q297 583 294.0 561.5Q291 540 291 531Q291 513 306 506Q361 479 441 479Q459 479 498.0 480.5Q537 482 558 482Q716 482 758 429Q842 385 915.5 294.0Q989 203 989 167V164H984Q952 164 899.0 215.0Q846 266 796 339Q819 250 841 226Q868 195 868 151Q868 142 866.5 120.5Q865 99 865 85Q865 76 860 72L802 16Q797 11 789 11Q785 11 776.0 13.0Q767 15 754.5 26.0Q742 37 742 54Z" fill="currentColor"/>
  </g>
</svg>