<svg xmlns="http://www.w3.org/2000/svg" viewBox="1.4 -976.6 938.1 1284.1">
	<path fill="currentColor" d="M49 260V126H114L226 -302H291L381 -796Q387 -826 395 -855Q403 -884 417 -905Q431 -926 455 -929H485Q509 -926 523.5 -905Q538 -884 546.5 -855Q555 -826 560 -796L649 -302H715L827 126H892V260ZM402 -803H538Q531 -839 518 -872Q505 -905 482 -910H458Q436 -905 423 -871.5Q410 -838 402 -803ZM311 -302H629L542 -784H399Q378 -666 355 -542.5Q332 -419 311 -302ZM134 126H807L700 -283H240ZM68 241H872V146H68Z"/>
</svg>