<svg xmlns="http://www.w3.org/2000/svg" viewBox="0 0 822 1000">
  <g transform="scale(1,-1) translate(0,-1000)">
    <path d="M256 712Q223 712 206.0 691.0Q189 670 189 649Q189 586 327.5 511.5Q466 437 668 384Q603 466 537 532Q499 570 458.5 605.0Q418 640 357.5 676.0Q297 712 256 712ZM230 734Q216 745 216 770Q216 773 216.5 777.5Q217 782 217 784Q217 789 214.5 793.0Q212 797 207.5 800.0Q203 803 198.0 805.5Q193 808 187.5 809.5Q182 811 178.0 812.0Q174 813 170 814L166 815Q165 815 150 812Q141 800 141 782Q141 777 143 765Q144 758 165.0 741.5Q186 725 186 706Q204 727 230 734ZM242 784V770Q242 759 254 753Q268 776 268 790Q268 812 250.0 829.0Q232 846 205 846Q193 846 179 839Q189 837 201.0 832.5Q213 828 227.5 815.0Q242 802 242 784ZM181 786Q181 778 171 778Q156 778 156 786Q156 791 161.0 795.0Q166 799 171 799Q181 799 181 786ZM621 739 637 630 670 638ZM215 889Q233 889 246.0 901.0Q259 913 259 929Q259 946 246.0 956.5Q233 967 214 967Q198 967 186.5 956.5Q175 946 175.0 929.0Q175 912 186.5 900.5Q198 889 215 889ZM656 307 612 373Q543 393 484 415L573 259ZM214 558Q230 530 259.5 494.0Q289 458 312.0 432.5Q335 407 353.0 368.0Q371 329 371 287Q371 270 368 249Q369 250 371.0 250.0Q373 250 374 251Q374 267 379.0 286.0Q384 305 396 305Q398 305 433 290L448 426L446 429Q287 490 214 558ZM341 239Q341 242 343.5 261.5Q346 281 346 288V289L337 291Q332 266 328 248Q327 241 327 241L333 238Q338 238 341 239ZM304 253Q314 303 317.0 311.5Q320 320 327 320Q328 320 331.0 318.0Q334 316 343 315Q334 369 267 447Q298 359 298 295Q298 280 294 252Q295 252 296.5 252.5Q298 253 299 253ZM822 230V24Q822 14 814.0 7.0Q806 0 795 0Q785 0 778.0 7.0Q771 14 771 24V81L669 187H24Q0 190 0.0 209.0Q0 228 24 229H227Q234 235 248.0 236.0Q262 237 268 239Q268 240 267.5 241.0Q267 242 267.0 243.0Q267 244 268.5 250.5Q270 257 271.5 269.0Q273 281 273 294Q273 368 223 499Q164 576 164 636V639V649Q164 663 168 674Q157 692 157 702Q157 710 150.0 716.5Q143 723 134.5 728.0Q126 733 119.0 747.0Q112 761 112 782Q112 830 162 862V870Q162 875 166 879Q137 906 117.5 932.5Q98 959 93.0 970.5Q88 982 88 984Q88 990 92.0 994.5Q96 999 101.0 999.0Q106 999 111.0 993.5Q116 988 125.5 973.5Q135 959 145 948Q151 971 170.5 985.5Q190 1000 215 1000Q223 1000 234.0 998.5Q245 997 264.0 984.0Q283 971 290 948Q299 959 308.5 973.0Q318 987 323.0 993.0Q328 999 333.0 999.0Q338 999 342.0 994.0Q346 989 346 983Q346 979 337.5 963.0Q329 947 310.0 922.5Q291 898 270 879Q273 876 273 871V868Q273 856 272 848Q297 823 297 790Q297 767 277 735Q338 725 422 665L585 836Q589 840 595 840Q604 840 607 832L703 635Q705 631 705 629Q705 619 694 615Q627 598 626 598Q614 598 612 610L585 795L445 648Q577 545 711 370Q714 367 714 363Q714 350 701 350Q696 350 650 363L685 310Q687 306 687 303Q687 296 680 292L575 231H590Q736 231 822 230ZM773 137V187H723ZM563 231Q558 234 557 236Q486 359 469 389L456 270Q454 259 444 259Q441 259 439 260Q412 271 403 275Q399 257 399 245Q406 241 419.0 237.0Q432 233 437 230Q457 230 499.0 230.5Q541 231 563 231Z" fill="currentColor"/>
  </g>
</svg>