<svg xmlns="http://www.w3.org/2000/svg" viewBox="0 0 981 1000">
  <g transform="scale(1,-1) translate(0,-1000)">
    <path d="M981 533Q981 481 951 481Q950 481 948.0 481.5Q946 482 945 482Q846 505 807 518Q784 525 736 539Q693 496 618.5 460.0Q544 424 490 424Q365 424 249 540Q199 526 174 518Q140 507 36 482Q35 482 33.0 481.5Q31 481 30 481Q16 481 8.0 495.5Q0 510 0 533Q0 560 17 567Q60 586 63 587Q250 666 333.0 694.5Q416 723 490.0 723.0Q564 723 647.0 694.5Q730 666 917 587Q932 581 964 567Q981 560 981 533ZM819 556Q839 550 940 524Q940 526 940.5 529.0Q941 532 941 533V534Q780 603 688.5 636.0Q597 669 565.0 675.0Q533 681 492 681Q421 681 340.5 653.5Q260 626 79 550Q77 549 62.5 543.5Q48 538 40 534V533Q40 532 40.5 529.0Q41 526 41 524Q142 550 162 556Q348 614 491 614Q636 614 819 556ZM0 189Q0 241 30 241Q31 241 33.0 240.5Q35 240 36 240Q135 217 174 204Q197 197 245 183Q289 227 357.5 261.5Q426 296 492 296Q564 296 617.5 269.5Q671 243 732 182Q782 196 807 204Q841 215 945 240Q946 240 948.0 240.5Q950 241 951 241Q965 241 973.0 226.5Q981 212 981 189Q981 162 964 155Q921 136 918 135Q731 56 648.0 27.5Q565 -1 491.0 -1.0Q417 -1 334.0 27.5Q251 56 64 135Q49 141 17 155Q0 162 0 189ZM162 166Q142 172 41 198Q41 196 40.5 193.0Q40 190 40 189V188Q63 178 79 172Q207 118 260.0 97.0Q313 76 376.0 58.5Q439 41 489 41Q560 41 640.5 68.5Q721 96 902 172Q904 173 918.5 178.5Q933 184 941 188V189Q941 190 940.5 193.0Q940 196 940 198Q839 172 819 166Q633 108 490 108Q345 108 162 166ZM294 552Q344 505 387.0 485.5Q430 466 492 465Q550 465 591.5 484.5Q633 504 691 551Q595 574 492 574Q393 574 294 552ZM687 170Q637 217 594.0 236.5Q551 256 489 257Q428 257 384.0 237.5Q340 218 290 171Q386 148 489 148Q588 148 687 170Z" fill="currentColor"/>
  </g>
</svg>