<svg xmlns="http://www.w3.org/2000/svg" viewBox="0 0 960 1000">
  <g transform="scale(1,-1) translate(0,-1000)">
    <path d="M192 452Q205 487 235 557H267Q237 487 224 452ZM264 452Q272 487 290 557H321Q303 487 295 452ZM236 301Q244 354 254 402H284Q277 369 267 301ZM143 301Q153 340 174 402H206Q190 359 175 301ZM103 452Q128 502 162 557H198Q168 510 137 452ZM36 301Q57 355 78 402H112Q87 349 68 301ZM50 251Q38 215 29 181Q25 170 15 170Q9 170 4.5 174.5Q0 179 0 185Q0 186 0.5 187.0Q1 188 1 189Q17 247 19 251ZM162 251Q152 205 148 182Q146 170 133 170Q127 170 122.5 174.5Q118 179 118 185V188Q126 230 131 251ZM260 251Q256 208 255 184Q255 170 240 170Q234 170 229.5 174.5Q225 179 225 185V186Q226 206 230 251ZM366 729Q366 726 359.0 699.5Q352 673 343.5 643.0Q335 613 334 607H303Q305 614 309.5 630.5Q314 647 318 660L321 674Q307 645 290 607H257Q264 624 301 702Q259 648 231 607H195Q248 686 307 758Q310 764 319 764Q330 764 333 754H335Q346 754 349 744H351Q357 744 361.5 739.5Q366 735 366 729ZM430 816Q404 816 404 834Q404 854 424 854Q446 854 446.0 835.0Q446 816 430 816ZM641 40Q652 40 664.0 42.0Q676 44 696.5 53.0Q717 62 732.5 77.0Q748 92 759.5 123.0Q771 154 771 196Q771 223 763.5 280.0Q756 337 756 368Q756 401 763 432Q768 456 789.0 471.0Q810 486 838 486Q867 486 884.0 471.0Q901 456 902 433V409Q902 368 897.5 303.0Q893 238 893 212Q893 155 909 116Q907 156 907.0 179.0Q907 202 912.0 255.0Q917 308 917 339Q917 350 917.5 373.5Q918 397 918 409Q918 425 916 459Q915 484 892.5 498.0Q870 512 841 512Q800 512 766.5 481.5Q733 451 733 385Q733 360 741.5 305.0Q750 250 750 219Q750 153 723.0 107.5Q696 62 648 62Q608 62 568.5 101.0Q529 140 529 222Q529 284 555.5 345.5Q582 407 613.0 449.5Q644 492 670.5 550.5Q697 609 697 665Q697 717 675.5 758.5Q654 800 624.0 823.5Q594 847 558.5 862.5Q523 878 498.0 883.5Q473 889 459 889Q422 889 391.5 869.0Q361 849 361 819Q361 778 406 778Q429 778 489.0 790.5Q549 803 578 806H580Q588 806 594.0 800.0Q600 794 600 786Q600 772 586 767Q511 743 480.5 711.5Q450 680 429 616Q421 592 421 566Q421 536 443.0 466.5Q465 397 465 346Q465 322 460.0 273.0Q455 224 455 202Q455 158 469 137Q498 92 546.0 66.0Q594 40 641 40ZM569 222Q569 186 579.0 160.5Q589 135 603.0 123.5Q617 112 628.5 107.0Q640 102 649 102Q678 102 694.0 136.5Q710 171 710 218Q710 246 701.0 302.0Q692 358 692 385Q692 464 737.0 508.0Q782 552 841 552Q889 552 919 522Q947 494 952.0 478.0Q957 462 957 409V338Q957 332 954.5 293.0Q952 254 950.0 217.5Q948 181 948 180Q948 94 960 42V38Q960 30 954.0 24.0Q948 18 940 18Q931 18 923 26Q853 96 853 214Q853 240 857.5 304.5Q862 369 862 409V427Q862 437 859 440Q853 446 838 446Q806 446 801 424Q796 400 796 368Q796 339 803.5 282.5Q811 226 811 197Q811 183 809.5 166.0Q808 149 798.0 117.0Q788 85 772.0 61.0Q756 37 721.5 18.5Q687 0 641 0Q628 0 611.0 3.0Q594 6 561.5 15.5Q529 25 495.0 51.0Q461 77 435 115Q415 146 415 203Q415 226 420.0 275.5Q425 325 425 347Q425 392 403.0 460.5Q381 529 381 566Q381 605 400.5 657.0Q420 709 456 743Q426 738 406 738Q388 738 372.0 742.0Q356 746 338.5 765.5Q321 785 321 819Q321 866 362.5 898.0Q404 930 458 930Q461 930 474.5 928.0Q488 926 514.5 919.0Q541 912 569.5 901.0Q598 890 628.5 869.0Q659 848 682.5 821.5Q706 795 721.5 754.5Q737 714 737 665Q737 604 710.5 542.0Q684 480 653.0 437.5Q622 395 595.5 336.5Q569 278 569 222Z" fill="currentColor"/>
  </g>
</svg>