<svg xmlns="http://www.w3.org/2000/svg" viewBox="0 0 598 1000">
  <g transform="scale(1,-1) translate(0,-1000)">
    <path d="M431 953Q462 949 491.5 930.5Q521 912 521 881Q521 879 520.5 871.5Q520 864 520 861Q520 853 524.0 847.0Q528 841 529.5 840.0Q531 839 541 834Q564 868 564 888Q564 920 539.0 943.5Q514 967 475 967Q450 967 431 953ZM428 904Q435 904 440.0 897.5Q445 891 445 883Q445 877 439.5 872.5Q434 868 428 868Q405 868 405 883Q405 904 428 904ZM585 592Q585 584 584.0 568.5Q583 553 583.0 543.0Q583 533 581 503L590 309V297Q598 241 598 207V197L597 74Q595 56 595 44V36Q595 20 591.0 12.0Q587 4 582.5 2.5Q578 1 569 1Q538 1 510.5 1.5Q483 2 482 2Q474 2 473 1Q470 4 466.0 6.5Q462 9 459.5 11.5Q457 14 457 19Q457 39 543 59L530 277H433Q432 264 429.5 243.5Q427 223 424.5 208.5Q422 194 422 192L423 191L403 74V70Q403 65 402.0 56.0Q401 47 401 44V36Q401 13 394.0 6.5Q387 0 362 0Q356 0 334.5 0.5Q313 1 297 1H291Q280 1 273.0 5.0Q266 9 264.5 12.5Q263 16 263 19Q263 23 265.5 25.5Q268 28 271.5 30.5Q275 33 277 36Q307 49 350 59L372 305H373L392 497Q372 517 372 530Q372 544 400 549Q404 583 404 595Q404 605 403.5 612.0Q403 619 401.0 625.5Q399 632 397.5 635.5Q396 639 391.5 648.5Q387 658 384 664Q307 558 290 525Q287 519 275 517L133 507Q123 506 114.5 503.5Q106 501 101.0 499.0Q96 497 94 497Q85 496 73 497V478V460V453V452Q73 448 69.5 444.0Q66 440 61 440H60Q56 440 52.0 444.0Q48 448 48 452Q47 463 45.5 479.5Q44 496 44 502H43Q28 508 22 516L21 517Q14 524 17 532Q17 532 18 533V534Q22 547 46 547Q48 563 54 590L45 593Q31 598 24 608H23Q18 612 18 623L19 624Q23 636 40 638Q40 639 40.0 640.5Q40 642 39 643Q35 655 35 687Q35 712 40 714Q51 702 62 655Q62 653 69 637H70Q80 667 83 685V690Q80 695 56.0 733.5Q32 772 24 799Q5 870 0 952V953Q0 959 4.0 968.5Q8 978 11 979Q20 979 24 960Q25 955 26.5 942.0Q28 929 29 923Q47 943 57 951Q66 958 69.5 960.0Q73 962 78.0 964.0Q83 966 90 970Q106 978 118 978Q120 978 122 976Q123 976 123 975Q123 973 120.0 970.5Q117 968 111.5 966.0Q106 964 105 963Q75 939 63.5 927.5Q52 916 46.5 906.5Q41 897 32 888Q36 846 50 802Q60 771 87 728V737Q87 741 88.0 748.5Q89 756 89 762Q89 811 100 811Q103 811 107.0 799.5Q111 788 113 776L115 764V735Q115 708 111 679Q108 659 100 632Q108 632 140 627L279 648L382 739Q406 757 406.0 769.0Q406 781 397.5 790.5Q389 800 378.5 806.5Q368 813 359.5 831.5Q351 850 351 878Q351 925 390.0 962.5Q429 1000 475 1000Q530 1000 562.5 965.5Q595 931 595 888Q595 876 590.5 862.0Q586 848 583.5 842.0Q581 836 570.5 818.5Q560 801 559 800Q566 788 571.0 781.5Q576 775 577.5 773.5Q579 772 581.5 767.0Q584 762 587 750ZM549 491 425 505 413 307H554ZM405 713Q444 644 444 601V595Q444 586 439 534L540 523Q540 533 542.0 558.5Q544 584 544 592Q545 624 547.0 652.5Q549 681 550.0 696.5Q551 712 551 720Q551 735 547 747Q518 800 510 813V817Q492 832 492 861Q492 865 492.5 871.5Q493 878 493 881Q493 897 475.5 908.0Q458 919 440 922L423 926Q419 926 397 922Q383 900 383 878Q383 845 411.0 823.0Q439 801 439 769Q439 762 437.5 755.5Q436 749 434.0 745.0Q432 741 427.5 735.5Q423 730 421.0 728.0Q419 726 412.5 720.0Q406 714 405 713ZM76 544Q92 542 93 542H94H97Q106 542 138 536L248 564L291 602L135 599Q124 599 110.5 593.5Q97 588 96 588H86Q82 573 76 544Z" fill="currentColor"/>
  </g>
</svg>