<svg xmlns="http://www.w3.org/2000/svg" viewBox="0 0 988 1000">
  <g transform="scale(1,-1) translate(0,-1000)">
    <path d="M22 545H31Q53 545 60 536Q61 535 66.5 517.0Q72 499 79.5 483.0Q87 467 94 467Q98 469 103 471Q97 492 89.0 506.0Q81 520 41 576Q38 580 26.5 592.5Q15 605 13 616V617Q13 622 17.0 626.0Q21 630 26 630Q27 630 28 630L30 629Q42 624 48.5 617.5Q55 611 83 579Q75 597 75 615Q75 657 102.5 685.0Q130 713 172 713Q213 713 239.5 685.0Q266 657 266 615Q266 603 263 591Q265 594 292 623Q298 631 311 631Q321 631 321 623Q321 610 312.5 598.0Q304 586 285.5 558.0Q267 530 251 490Q251 462 272 455H276Q284 455 296.5 463.5Q309 472 316 472Q329 472 329 461Q329 457 327.0 448.5Q325 440 325 436Q325 429 330 425Q374 401 447 384Q451 382 460.0 382.0Q469 382 473 381L834 379Q847 379 863.0 376.5Q879 374 887 374Q901 374 910 376Q915 377 934.5 391.5Q954 406 962 406Q969 406 977.5 396.0Q986 386 988 377V54Q978 34 970 34Q961 34 954 54V72Q954 347 951 350Q949 352 948 352Q932 352 903 299Q900 293 887.0 275.0Q874 257 871 247Q856 204 855 152V147V140Q855 85 842 75Q842 65 860.5 51.5Q879 38 879 25Q879 18 874.5 12.0Q870 6 866 3L862 0H574Q573 1 567.5 2.0Q562 3 561 7Q555 28 555.0 37.0Q555 46 561 46H568Q597 46 648.0 41.0Q699 36 727 36Q744 36 753 37Q733 59 729 74Q694 79 680 81H665Q656 81 637.0 80.0Q618 79 606 79Q602 77 596.0 71.5Q590 66 585.5 63.5Q581 61 575 61Q568 61 563.0 63.5Q558 66 552.0 71.0Q546 76 542 78L414 79Q390 61 340 61Q326 61 320 62Q296 57 296 52Q296 50 342 38L466 46L498 0H233Q231 0 222.5 0.0Q214 0 211 4Q198 17 198 26Q198 43 259 80Q254 85 254 89Q254 108 249 138Q247 148 243.5 169.0Q240 190 237.5 199.5Q235 209 230.0 224.0Q225 239 216.0 249.5Q207 260 193 270L147 272L55 271Q37 272 11 296Q0 307 0 315Q0 333 24 372Q33 385 67.5 411.0Q102 437 104 458Q92 451 69 451Q62 451 50 457Q47 458 43.0 469.0Q39 480 39 486V508Q39 518 26 518H24Q17 518 13.0 521.5Q9 525 8.0 528.0Q7 531 7 533Q8 545 22 545ZM805 88Q822 88 822 118Q822 125 819.5 139.0Q817 153 817 161Q817 201 846 275Q850 284 862.5 298.5Q875 313 875 317Q875 331 861.0 340.0Q847 349 830 349H470L436 352Q408 356 373.0 373.0Q338 390 320 395Q316 392 311.0 385.0Q306 378 301.5 374.0Q297 370 290 369Q288 368 283 368Q265 368 265 380Q265 390 279.5 403.5Q294 417 298 426V428Q298 437 289 437Q287 437 287 436Q277 433 269.5 428.5Q262 424 252.0 417.0Q242 410 236 406Q232 407 232 411Q232 413 235.0 420.0Q238 427 238 433Q238 445 224 456H222Q214 456 199.5 458.0Q185 460 179 460Q167 460 156 455Q147 451 141.5 437.0Q136 423 131 418Q120 407 97.5 392.5Q75 378 63 364Q44 340 44 331Q44 323 58.0 317.0Q72 311 91 311Q97 311 110.0 312.0Q123 313 130 313Q132 313 137.0 312.5Q142 312 145 312Q149 311 158 311Q163 311 170.0 311.5Q177 312 180 312Q206 312 227.5 293.0Q249 274 258 251Q271 217 277 190Q278 185 280.0 167.0Q282 149 284.5 138.0Q287 127 292 127Q294 127 299 130Q311 142 313.5 154.0Q316 166 319.0 190.5Q322 215 335 247Q336 250 340.0 258.5Q344 267 347.0 271.5Q350 276 355 281Q357 283 363.0 288.0Q369 293 371.0 295.0Q373 297 378.0 300.0Q383 303 387.5 304.0Q392 305 397 305H400Q405 305 405 301Q405 298 384.5 264.5Q364 231 359 189Q358 183 354.5 169.0Q351 155 351 148Q351 144 352.5 138.5Q354 133 361.0 125.5Q368 118 381 118Q385 118 394.0 118.5Q403 119 408 119H445Q461 119 485.0 120.0Q509 121 527 121Q529 121 534.5 120.5Q540 120 543 120Q549 120 559.5 114.0Q570 108 574 108Q579 108 587.0 114.0Q595 120 601 121Q627 123 647.5 123.0Q668 123 675.0 123.5Q682 124 691.0 125.5Q700 127 715 132Q701 171 684.5 205.0Q668 239 658.5 255.5Q649 272 649 278Q649 285 658 285Q661 285 663.5 283.0Q666 281 668.0 279.0Q670 277 673.0 273.0Q676 269 678 267Q688 256 714.5 214.0Q741 172 744 166Q748 160 761.5 134.0Q775 108 789 94Q795 88 805 88ZM151 401Q162 401 170.0 393.0Q178 385 178 374Q178 354 149 354Q140 354 132.5 360.5Q125 367 125 376Q125 386 133.0 393.5Q141 401 151 401ZM172 689Q141 689 120.5 668.0Q100 647 100 615Q100 586 122.5 566.0Q145 546 175 546Q204 546 222.5 565.5Q241 585 241 615Q241 647 221.5 668.0Q202 689 172 689ZM106 547Q138 495 169 495Q181 495 191.0 502.0Q201 509 224 535Q202 521 175 521Q135 521 106 547Z" fill="currentColor"/>
  </g>
</svg>