<svg xmlns="http://www.w3.org/2000/svg" viewBox="0 0 1000 1000">
  <g transform="scale(1,-1) translate(0,-1000)">
    <path d="M33 82Q4 92 4 111Q4 124 25 143Q45 161 61.5 162.5Q78 164 86 169Q111 184 137.0 212.0Q163 240 179 253Q192 263 207 294Q228 335 239 364Q225 369 217.0 374.0Q209 379 194 379H186Q155 379 138.0 409.0Q121 439 121 471Q121 518 149.0 553.5Q177 589 219 589Q244 589 264.5 575.5Q285 562 296 540Q306 520 308 479Q314 481 318 481Q364 487 398 487Q450 487 504.0 474.5Q558 462 584.5 451.5Q611 441 654 422Q670 415 683.5 397.0Q697 379 703 375Q716 367 725.5 364.5Q735 362 764.5 355.0Q794 348 838 332Q922 304 971 279Q991 268 991 243Q989 217 989 217Q986 131 965 107Q957 98 923 83H1000V1L0 0V82ZM281 492Q281 521 267.0 537.5Q253 554 242.0 556.5Q231 559 221 559Q176 559 158 516Q178 526 201 526Q219 526 230.5 519.0Q242 512 246.0 505.0Q250 498 255 485Q260 473 274 473H280Q280 477 280.5 483.0Q281 489 281 492ZM167 450Q165 456 165 459Q165 466 170.5 472.0Q176 478 182 478Q191 478 195 468Q196 466 196 463Q196 456 189.5 450.0Q183 444 176 444Q170 444 167 450ZM651 226Q618 226 560.5 199.5Q503 173 501 173Q494 173 488.5 179.0Q483 185 483 193Q483 202 490 209Q502 220 525 247Q578 316 634 316Q645 316 654.5 314.0Q664 312 676.0 309.0Q688 306 699 304Q753 292 862 254Q864 253 869.0 251.5Q874 250 877 249Q891 244 899.0 240.5Q907 237 920.5 228.5Q934 220 941.0 206.5Q948 193 948 175V169Q955 199 955 240V243Q901 270 781 310Q776 312 740.5 320.5Q705 329 686 341Q668 353 659.0 366.5Q650 380 641 384Q599 403 573.0 413.0Q547 423 496.0 435.0Q445 447 398 447Q360 447 324 442Q321 439 313 439Q294 439 263 452L262 453Q247 457 240.0 465.5Q233 474 231.5 481.5Q230 489 223.5 495.0Q217 501 203 501Q195 501 185.0 498.5Q175 496 169 494L163 492Q160 490 147 477Q147 476 146.5 474.0Q146 472 146 471Q146 450 157.0 429.0Q168 408 187 408Q189 408 194.5 408.5Q200 409 203 409Q220 409 237 399Q249 392 260 379Q261 378 276.5 370.5Q292 363 298 351L365 213Q367 207 367 203Q367 203 367.5 201.0Q368 199 368 198Q368 193 362 191Q362 191 352.5 187.5Q343 184 331.0 179.5Q319 175 303.5 168.5Q288 162 273.0 156.0Q258 150 245.5 144.0Q233 138 225.5 133.0Q218 128 218 126H219Q230 126 300.0 155.0Q370 184 380 192Q376 217 363.5 253.0Q351 289 340.5 315.0Q330 341 330 345Q330 353 335.5 359.0Q341 365 348 365Q369 365 405.5 369.0Q442 373 461 373Q509 373 526.5 362.5Q544 352 544 328Q544 307 527.5 283.5Q511 260 491.0 243.0Q471 226 454.5 203.5Q438 181 438 162Q438 140 449 140Q449 140 450.0 140.5Q451 141 453 141Q474 144 503.5 160.5Q533 177 545 182Q553 185 564.5 191.0Q576 197 579 198Q627 220 660 223H662Q677 223 686.0 210.0Q695 197 695 178Q695 157 680 129Q680 129 681 130Q683 131 684 132Q690 141 700.5 154.5Q711 168 717.0 177.5Q723 187 723.0 192.0Q723 197 716.0 204.5Q709 212 691.5 219.0Q674 226 651 226ZM461 333Q445 333 414.0 330.0Q383 327 372 326Q379 308 380 303Q380 303 386.5 282.0Q393 261 400.0 234.5Q407 208 409 197Q420 226 455.0 260.0Q490 294 506 318Q509 321 509 328Q486 333 461 333ZM215 166Q236 177 275.0 190.0Q314 203 326 211L298 269Q289 245 268.5 219.5Q248 194 235.5 183.0Q223 172 215 166ZM268 298Q268 302 266.5 314.0Q265 326 265 331Q265 330 256.0 310.5Q247 291 234.0 266.5Q221 242 213 233Q208 227 195.5 217.0Q183 207 162 184Q132 152 109 137Q121 142 137 157Q159 175 180.5 189.0Q202 203 220 221Q268 269 268 298ZM18 20 982 21V63L18 62ZM900 83Q894 89 894.0 98.0Q894 107 903.5 138.0Q913 169 913 174Q913 199 868 211Q852 216 823.0 226.0Q794 236 762.5 245.5Q731 255 692 264Q692 264 680.5 267.0Q669 270 655.0 273.0Q641 276 634 276Q606 276 579 251Q613 265 651 265Q697 265 727.5 243.0Q758 221 758 192Q758 168 730 133Q704 99 698.5 93.0Q693 87 682 83ZM449 100Q428 100 415.0 118.0Q402 136 402 162Q402 163 402.5 165.5Q403 168 403 169Q392 158 372.0 148.5Q352 139 322.0 127.0Q292 115 272 105Q246 91 229.0 89.0Q212 87 200 82Q271 82 416.0 82.5Q561 83 634 83Q628 90 628 100Q628 113 644.0 139.5Q660 166 660 178Q660 179 660 181L659 183Q633 180 593 161Q591 160 577.5 154.0Q564 148 556 144Q546 140 523.5 128.0Q501 116 482.0 108.0Q463 100 449 100ZM153 82Q140 91 138 109Q130 103 73 82Z" fill="currentColor"/>
  </g>
</svg>