<svg xmlns="http://www.w3.org/2000/svg" viewBox="0 0 677 1000">
  <g transform="scale(1,-1) translate(0,-1000)">
    <path d="M30 752Q30 714 44 700Q55 689 92 686Q94 686 98.5 685.5Q103 685 106 685L52 854Q52 851 50.0 845.5Q48 840 47 838Q30 779 30 752ZM208 452Q208 446 203.5 441.5Q199 437 193 437Q183 437 179 448L162 500Q151 501 143.5 503.0Q136 505 132.0 507.0Q128 509 126.0 510.5Q124 512 123.0 514.0Q122 516 121 517Q114 524 117 532Q117 532 118 533V534Q118 544 148 546L133 593Q108 601 103 608H102Q99 611 97.5 617.0Q96 623 98 624Q102 636 119 638L115 654Q106 655 90 657Q41 661 23 679Q0 702 0 752Q0 783 15.5 838.0Q31 893 34 914Q36 927 49 927Q59 927 63 916L151 636Q157 635 166.5 633.5Q176 632 179 632Q185 631 190.0 630.5Q195 630 201.0 629.5Q207 629 219 627L358 648L461 739Q485 757 485.0 769.0Q485 781 476.5 790.5Q468 800 457.5 806.5Q447 813 438.5 831.5Q430 850 430 878Q430 925 469.0 962.5Q508 1000 554 1000Q609 1000 641.5 965.5Q674 931 674 888Q674 876 669.5 862.0Q665 848 662.5 842.0Q660 836 649.5 818.5Q639 801 638 800Q644 792 650.0 784.0Q656 776 658.0 773.5Q660 771 662.5 765.0Q665 759 666 750L664 592Q664 584 663.0 568.5Q662 553 662.0 543.0Q662 533 660 503L669 309V297Q677 241 677 207V197L676 73Q674 55 674 43V35Q674 19 670.0 11.0Q666 3 661.5 1.5Q657 0 648 0H561Q550 0 543.0 6.5Q536 13 536 18Q536 38 622 58L609 277H512Q511 266 502 191L482 74V70Q482 65 481.0 56.0Q480 47 480 44V36Q480 13 473.0 6.5Q466 0 441 0H370Q359 0 352.0 4.0Q345 8 343.5 11.5Q342 15 342 18Q342 41 429 59L451 305H452L471 497Q451 517 451 530Q451 544 479 549Q483 583 483 595Q483 605 482.5 612.0Q482 619 480.0 625.5Q478 632 476.5 635.5Q475 639 470.5 648.5Q466 658 463 664Q386 558 369 525Q366 519 354 517L233 507Q223 506 215.0 503.5Q207 501 202.0 499.0Q197 497 195 497L207 456Q207 456 207.5 454.5Q208 453 208 452ZM510 953Q541 949 570.5 930.5Q600 912 600 881Q600 879 599.5 871.5Q599 864 599 861Q599 853 603.0 847.0Q607 841 608.5 840.0Q610 839 620 834Q643 868 643 888Q643 920 618.0 943.5Q593 967 554 967Q529 967 510 953ZM507 904Q514 904 519.0 897.5Q524 891 524 883Q524 877 518.5 872.5Q513 868 507 868Q484 868 484 883Q484 904 507 904ZM628 491 504 505 492 307H633ZM484 713Q523 644 523 601V595Q523 586 518 534L619 523Q619 533 621.0 558.5Q623 584 623 592Q624 624 626.0 652.5Q628 681 629.0 696.5Q630 712 630 720Q630 735 626 747Q597 800 589 813V817Q571 832 571 861Q571 865 571.5 871.5Q572 878 572 881Q572 897 554.5 908.0Q537 919 520 922L502 926Q498 926 476 922Q462 900 462 878Q462 845 490.0 823.0Q518 801 518 769Q518 762 516.5 755.5Q515 749 513.0 745.0Q511 741 506.5 735.5Q502 730 500.0 728.0Q498 726 491.5 720.0Q485 714 484 713ZM180 543Q236 536 238 536L327 564L370 602L214 599Q203 599 185.0 594.0Q167 589 166 589Z" fill="currentColor"/>
  </g>
</svg>