<svg xmlns="http://www.w3.org/2000/svg" viewBox="0 0 1000 1000">
  <g transform="scale(1,-1) translate(0,-1000)">
    <path d="M498 736Q499 736 518.0 723.0Q537 710 547 710Q552 710 552 718Q552 722 550.0 731.5Q548 741 548 743V744Q548 751 554 751Q559 750 567.0 736.0Q575 722 575 714V708V705Q575 696 585 682L656 554L761 517Q785 509 793 481Q812 469 817 469Q823 469 856.0 484.0Q889 499 914 499Q951 499 975.5 468.5Q1000 438 1000 397Q1000 350 969.0 317.0Q938 284 901 284Q875 284 859.0 295.0Q843 306 838.0 319.5Q833 333 824.0 344.0Q815 355 801 355Q795 355 788 350Q783 347 760.5 318.0Q738 289 729 287L642 215L734 94Q744 85 746 83Q747 83 772.5 69.5Q798 56 805 50Q821 36 821 20Q821 2 800 2Q799 2 797.0 2.5Q795 3 794.0 3.0Q793 3 785.0 12.5Q777 22 767.0 31.0Q757 40 751.0 40.0Q745 40 745 28Q745 24 746.0 17.5Q747 11 747 9V7Q747 0 742.0 0.0Q737 0 729.5 15.0Q722 30 722 39V41Q724 49 724 53Q724 63 716 72L593 216Q591 218 591 224Q591 235 597 238L657 300Q644 302 620.5 309.5Q597 317 584 317Q572 317 558.5 294.0Q545 271 529 266Q505 257 483 257Q456 257 434.0 267.5Q412 278 400.5 289.0Q389 300 371 321Q368 325 361.5 331.0Q355 337 353 340Q332 308 298.5 255.5Q265 203 246.5 174.5Q228 146 227 145Q222 139 215 139Q208 139 204 143Q189 155 160.5 171.5Q132 188 111 210Q105 216 105 227Q105 241 117.5 256.0Q130 271 141 271Q146 271 155.0 269.5Q164 268 173.0 266.0Q182 264 190.0 261.5Q198 259 204 258L209 256L300 456Q292 446 266.0 412.0Q240 378 218 357Q185 326 92 258Q88 255 83 255Q75 255 70 262L4 344Q0 349 0 357Q0 377 17 377Q20 377 42.0 371.0Q64 365 79 365H90Q101 365 110 375Q135 404 174.5 464.5Q214 525 248 560Q263 575 282 575Q297 575 311 568Q354 550 411.5 514.0Q469 478 490 467Q495 464 501.0 460.0Q507 456 510.5 453.5Q514 451 516 451H518Q625 475 709 475H716Q702 481 681.5 487.5Q661 494 646 498L631 501Q630 502 625 511L568 658Q546 675 536 678Q536 678 527.0 682.5Q518 687 508.5 692.0Q499 697 491.0 705.0Q483 713 483 721Q483 736 496 736ZM918 351Q918 332 906 332Q900 332 895.0 338.5Q890 345 890 352Q890 367 902 367Q918 367 918 351ZM956 344Q974 362 974 396Q974 425 960.0 445.0Q946 465 924 470Q923 470 920.5 470.5Q918 471 917 471Q903 471 879 459Q880 457 881.0 453.0Q882 449 883.0 447.0Q884 445 885.5 442.5Q887 440 890.0 438.5Q893 437 897 436Q899 436 905.0 435.5Q911 435 913 434Q936 429 946.0 402.5Q956 376 956 348ZM480 363Q477 363 458.0 373.5Q439 384 402.5 404.5Q366 425 333 442L232 225Q228 217 218 213H215Q210 213 187.5 220.0Q165 227 145 230Q158 218 178.5 206.0Q199 194 210 186Q333 378 338 383Q342 389 350 389Q361 389 379.5 366.0Q398 343 424.5 320.0Q451 297 483 297Q508 297 522.5 306.5Q537 316 541.5 327.0Q546 338 556.5 347.5Q567 357 584 357Q607 357 650.0 345.5Q693 334 705 334Q706 334 710.5 335.0Q715 336 716 336Q734 339 744.5 349.5Q755 360 761.0 372.0Q767 384 774 388Q774 388 775.0 389.0Q776 390 777.0 390.5Q778 391 781.0 392.0Q784 393 787 393Q799 393 816 385Q831 378 841.0 365.0Q851 352 855.5 341.0Q860 330 872.0 321.5Q884 313 903 313Q914 313 928 319Q929 323 931.0 330.0Q933 337 934 341V344Q934 405 909 410Q906 410 901.0 411.0Q896 412 894 412Q873 417 863.5 428.5Q854 440 838 440Q832 440 819.0 438.5Q806 437 801 437Q788 437 780.5 445.5Q773 454 765 454Q759 454 737.0 444.0Q715 434 695 434H690Q686 434 679.0 434.5Q672 435 669 435Q631 435 524 411H517Q503 411 485 424Q485 424 471.0 432.5Q457 441 437.0 453.0Q417 465 392.0 479.5Q367 494 345.0 506.5Q323 519 305.5 527.0Q288 535 282 535Q275 535 259 516Q235 489 197.5 432.0Q160 375 130 341Q114 325 90 325H79Q76 325 72.0 325.5Q68 326 66 326L86 301Q155 349 181.0 372.0Q207 395 232 435Q270 498 300 498Q316 498 441 428Q444 426 460.5 416.5Q477 407 488 401Q498 396 498 383Q498 375 492.5 369.0Q487 363 480 363Z" fill="currentColor"/>
  </g>
</svg>