<svg xmlns="http://www.w3.org/2000/svg" viewBox="0 0 667 1000">
  <g transform="scale(1,-1) translate(0,-1000)">
    <path d="M461 1000Q500 1000 530.5 978.0Q561 956 561 922Q561 895 542.5 875.5Q524 856 495 848Q525 835 542.5 808.5Q560 782 560 754Q560 743 556.0 730.5Q552 718 548.5 711.0Q545 704 536.0 689.5Q527 675 525 672Q534 655 553.5 635.0Q573 615 573 602Q573 601 573.5 598.0Q574 595 574 592Q574 570 565 540L558 513Q552 491 550 452L549 421Q546 367 546 331V155Q546 148 546.5 136.0Q547 124 547 118Q547 96 541 82L548 75Q559 64 569.5 59.0Q580 54 609 48Q612 48 624.5 46.5Q637 45 646.5 43.5Q656 42 660 38Q667 31 667 24Q667 14 661.5 7.0Q656 0 649 0H648H580Q550 0 489.0 6.5Q428 13 393 13Q355 13 290.5 6.5Q226 0 198 0Q152 0 152 33Q152 36 152.5 39.0Q153 42 153 43Q154 51 158.5 59.5Q163 68 165 73Q166 75 165.0 78.0Q164 81 164 82Q164 114 268 176Q348 225 389 253Q390 252 390 252Q390 277 392.5 300.5Q395 324 395 341Q395 359 396.0 379.0Q397 399 397 403Q397 419 385 462L361 452Q355 448 352 448Q345 448 342 452L325 491L276 447Q272 443 266.0 443.0Q260 443 257 447L165 617Q154 629 148 629Q147 629 144 632L142 634Q136 634 125.5 647.0Q115 660 115 666Q115 671 122 671Q125 671 129.5 664.0Q134 657 139 657Q143 655 143 655V658Q143 668 130 687L118 706Q118 712 122.5 716.5Q127 721 134.0 721.0Q141 721 148.0 712.5Q155 704 159.5 694.0Q164 684 168 674L172 664Q174 654 178 644Q186 631 186 631L265 494L304 540L269 619Q265 626 251 631Q250 631 246.5 633.0Q243 635 242 635Q236 635 225.0 647.5Q214 660 214.0 666.0Q214 672 220 672Q222 672 228.0 665.5Q234 659 240 659Q242 659 244 658L246 657Q248 657 248 660Q248 670 236 690L223 709Q223 724 238 724Q245 724 252.5 715.0Q260 706 264.5 696.0Q269 686 273 676L277 666Q278 658 283 647Q290 634 290 634L323 561L352 594Q361 608 363 608H364Q368 612 374.0 618.0Q380 624 382.5 626.5Q385 629 387.0 633.5Q389 638 389 643Q389 654 380.0 662.5Q371 671 360.5 677.0Q350 683 341.0 700.5Q332 718 332 744Q332 784 361 814Q388 843 415 852Q385 862 370 886Q358 876 344 868Q343 867 342.0 868.0Q341 869 340.5 871.5Q340 874 339 875V896Q307 891 288.5 885.0Q270 879 262.5 873.5Q255 868 238.0 854.5Q221 841 204 829Q193 821 184.0 799.5Q175 778 164 765Q153 753 136.0 743.5Q119 734 110.0 725.5Q101 717 101 699V679Q101 647 77.5 621.0Q54 595 54 576Q54 567 60.0 546.0Q66 525 66 511Q66 493 53.5 465.5Q41 438 41 428V427Q41 419 52.5 402.5Q64 386 64 370Q64 353 49.5 332.0Q35 311 35 303Q35 292 47.5 270.0Q60 248 61 231L62 228Q62 213 51.5 193.0Q41 173 41.0 165.0Q41 157 49.5 140.5Q58 124 58 120Q58 113 52.0 108.5Q46 104 40 104Q26 104 23 115Q21 121 16.5 129.5Q12 138 9.0 146.0Q6 154 6 165V167Q7 181 17.0 200.5Q27 220 27 228L26 229Q26 239 13.0 262.0Q0 285 0 303Q1 322 14.5 341.0Q28 360 28 369V370Q28 378 17.0 394.5Q6 411 6 427V428Q7 446 18.5 470.5Q30 495 31 506V511Q31 521 25.0 543.0Q19 565 19 576Q19 604 42.5 631.5Q66 659 66 679V699Q66 724 78.5 739.5Q91 755 110.5 766.5Q130 778 136 785Q141 790 153.5 816.0Q166 842 184 854Q203 867 224.5 883.5Q246 900 255.0 905.5Q264 911 284.5 918.5Q305 926 339 932V967Q340 968 341 971Q344 976 345 976Q354 971 370 959Q400 1000 461 1000ZM461 964Q435 964 416.0 952.0Q397 940 397 921Q397 903 416.5 891.0Q436 879 463 879Q487 879 504.0 891.5Q521 904 521 921Q521 939 503.5 951.5Q486 964 461 964ZM512 275Q423 224 372 198Q353 186 318.5 168.0Q284 150 259.0 133.5Q234 117 212 91Q200 76 211 77Q223 78 260.5 94.0Q298 110 330 110Q357 110 412.5 96.0Q468 82 485 82Q506 82 509.5 84.5Q513 87 514 102Q515 119 515 148Q515 172 513.5 215.5Q512 259 512 275ZM524 522 416 473Q418 464 421.5 451.5Q425 439 426.0 431.5Q427 424 428.5 401.0Q430 378 430 341Q430 323 428.0 307.5Q426 292 426 273Q440 278 466.5 293.5Q493 309 509 315Q510 378 513 423Q515 443 515.5 457.0Q516 471 517.5 483.0Q519 495 524 522ZM218 31Q242 31 297.0 39.0Q352 47 392 47Q423 47 453.0 45.0Q483 43 516.5 39.0Q550 35 567 34Q560 36 552.5 38.0Q545 40 541.0 41.0Q537 42 532.5 44.5Q528 47 523 52L520 55Q512 48 502 48Q488 48 439 55Q416 58 389.5 65.5Q363 73 340 73Q314 73 278 60Q254 51 217 45H211Q196 45 185 50Q181 35 183.0 33.0Q185 31 198 31ZM375 511Q374 514 372.5 520.0Q371 526 370 529L347 509L350 500ZM403 769Q419 769 419 749Q419 736 403 736Q382 736 382 749Q382 757 388.5 763.0Q395 769 403 769ZM534 609Q514 630 500.0 650.0Q486 670 482 679L479 688Q464 697 464 729Q464 733 464.5 739.0Q465 745 465 747Q465 762 448.5 772.5Q432 783 415 786L398 789Q394 789 376 785Q362 766 362 744Q362 734 365 722Q367 712 380.5 701.0Q394 690 406.5 676.5Q419 663 419 643Q419 634 417.5 627.5Q416 621 412.5 615.5Q409 610 406.0 607.0Q403 604 397.0 598.5Q391 593 388 590Q391 577 405 526Q413 530 430.0 539.5Q447 549 452.0 552.0Q457 555 469.0 561.5Q481 568 486.0 572.0Q491 576 500.0 582.0Q509 588 517.0 594.5Q525 601 534 609ZM406 814Q435 810 462.5 793.0Q490 776 490 747V729Q490 721 493.0 716.0Q496 711 499.0 709.0Q502 707 509 704Q530 740 530 754Q530 783 506.5 805.5Q483 828 447 828Q425 828 406 814Z" fill="currentColor"/>
  </g>
</svg>