<svg xmlns="http://www.w3.org/2000/svg" viewBox="0 0 742 1000">
  <g transform="scale(1,-1) translate(0,-1000)">
    <path d="M478 619 319 632Q309 631 286 622V583Q321 578 340 572L445 577Q457 578 468 582Q468 583 478 619ZM638 248H475V129H639ZM637 278V429Q637 444 652 444Q661 444 665 437Q667 434 669.5 429.0Q672 424 674 422Q676 432 676 438Q676 465 667.0 493.5Q658 522 651 522Q650 522 641.5 519.5Q633 517 628 517H625H623L622 502Q618 425 605.5 391.0Q593 357 556 349Q512 343 480 343Q466 343 439.0 344.0Q412 345 397 345Q374 345 361 344H345Q346 342 346 337V129H444V263Q444 278 459 278ZM287 464Q308 471 344.5 476.0Q381 481 402.5 482.5Q424 484 429 484Q446 494 447 495Q450 502 457 528H452L335 546Q326 545 318.0 542.5Q310 540 305.5 538.5Q301 537 300 537H287Q287 525 287.5 509.5Q288 494 288 488Q288 485 287.5 477.0Q287 469 287 464ZM396 697Q396 701 400.5 707.0Q405 713 417.0 730.0Q429 747 441 766Q414 799 414 836Q414 857 421.5 876.0Q429 895 435.0 903.5Q441 912 458 931Q459 932 464.5 939.0Q470 946 472.5 949.0Q475 952 482.5 959.0Q490 966 495.5 970.5Q501 975 510.5 980.5Q520 986 529.0 989.5Q538 993 550.5 996.0Q563 999 576 1000H582Q629 1000 671.0 961.0Q713 922 713 870Q713 840 697.0 819.0Q681 798 658.0 782.5Q635 767 631 762Q638 747 642 746Q657 743 661.0 735.5Q665 728 665 713Q676 708 676 695V616Q676 608 670.0 602.0Q664 596 656.0 596.0Q648 596 642.0 602.0Q636 608 636 616V695Q636 709 650 714Q649 725 646.5 727.5Q644 730 632 732Q626 730 608 726Q625 639 625 573V547H627Q627 547 636.0 550.5Q645 554 652 554Q682 554 695.0 514.0Q708 474 708 438Q708 385 678 385Q674 385 668 388L671 114Q671 105 663 100H728Q733 100 737.5 96.0Q742 92 742 87V14Q742 9 737.5 4.5Q733 0 728 0H14Q9 0 4.5 4.5Q0 9 0 14V87Q0 92 4.5 96.0Q9 100 14 100H59Q34 109 34 132Q34 143 42 151Q63 173 106.5 189.0Q150 205 163 213Q164 215 168.5 221.5Q173 228 174.0 229.5Q175 231 178.5 237.0Q182 243 183.0 245.5Q184 248 187.5 254.5Q191 261 192.5 266.0Q194 271 197.0 279.0Q200 287 202.5 295.0Q205 303 208.0 314.0Q211 325 215 338Q236 423 247 434L265 452Q266 453 266 460Q266 462 265.0 488.5Q264 515 264 540Q264 541 260 541Q239 550 235.5 552.5Q232 555 232 562Q232 581 264 584V622Q243 622 228.5 631.5Q214 641 214 654V656Q232 680 264 681V804Q253 793 249.5 785.5Q246 778 236 744Q236 752 232.0 768.0Q228 784 228 792Q228 794 228.5 796.0Q229 798 229 800Q230 806 243.0 825.0Q256 844 266 877Q268 883 268.0 891.5Q268 900 269 905Q288 871 288 867Q288 845 278 824Q286 820 286 813V678Q304 672 323 657L487 660Q489 666 492.0 684.5Q495 703 506 743Q491 755 486 760H485Q463 718 431 678Q427 676 425 676Q417 676 406.5 684.0Q396 692 396 697ZM27 73V27H715V73ZM651 616Q651 611 656.0 611.0Q661 611 661 616V695Q661 700 656.0 700.0Q651 700 651 695ZM472 903Q461 889 456.0 882.5Q451 876 447.0 863.5Q443 851 443 836Q443 827 448.0 814.5Q453 802 458 794L463 785Q483 790 485 790Q497 790 505.0 783.0Q513 776 518.0 767.0Q523 758 525 757Q539 750 554 750Q598 750 613 759Q611 765 602.0 776.5Q593 788 587 791Q587 791 584.0 791.5Q581 792 578.5 792.5Q576 793 572.0 794.5Q568 796 564.5 798.0Q561 800 558.0 802.5Q555 805 553.5 808.5Q552 812 552 817Q552 829 571.5 839.5Q591 850 591 856Q590 883 472 903ZM466 855Q466 869 486 869Q507 869 507 855Q507 849 500.0 844.5Q493 840 486.0 840.0Q479 840 472.5 844.5Q466 849 466 855ZM323 100Q315 105 315 114V296Q287 220 272 135Q272 133 272.5 131.5Q273 130 273 129Q273 129 272.5 125.5Q272 122 271.5 119.0Q271 116 269.0 112.5Q267 109 263.5 105.5Q260 102 255 100ZM511 603Q518 614 535.0 633.5Q552 653 558 653Q570 653 570 617Q570 600 566 596Q556 585 548.0 578.0Q540 571 536.5 568.5Q533 566 518.5 558.0Q504 550 498 547Q493 522 490.0 509.0Q487 496 479.0 481.0Q471 466 459 460Q439 448 436 448Q343 442 317.0 436.5Q291 431 277 414Q266 382 247.5 327.5Q229 273 212 226Q209 216 199.5 201.5Q190 187 187 185Q167 172 127.5 158.5Q88 145 73 132Q73 132 77 130Q127 132 146 132Q169 132 223 130Q228 131 231.0 131.5Q234 132 236 132V138Q243 178 267.0 256.5Q291 335 312 362Q326 380 349 380H359Q373 381 397 381Q413 381 440.5 380.0Q468 379 480 379Q520 379 541.5 384.0Q563 389 567.0 394.0Q571 399 574 409Q580 431 584.0 472.0Q588 513 588 543L589 573Q589 610 579 722Q571 721 554 721Q540 721 532 725Q515 621 511 603ZM627 797Q633 802 645.0 811.0Q657 820 662.5 825.0Q668 830 674.0 840.0Q680 850 681 861V868Q681 912 645.5 944.0Q610 976 578 976Q551 976 529.5 963.0Q508 950 500 938L491 925Q495 924 506.5 921.5Q518 919 522.5 918.5Q527 918 537.0 915.5Q547 913 552.0 911.0Q557 909 565.5 905.0Q574 901 580.5 897.5Q587 894 594.5 888.5Q602 883 609 876Q617 868 617 857Q616 849 614 845Q614 836 581 819Q582 819 587.5 817.0Q593 815 598.5 812.5Q604 810 608 806Q614 800 619 792Z" fill="currentColor"/>
  </g>
</svg>