<svg xmlns="http://www.w3.org/2000/svg" viewBox="0 0 716 1000">
  <g transform="scale(1,-1) translate(0,-1000)">
    <path d="M535 141Q508 138 462.5 124.5Q417 111 362 111Q319 111 282.5 118.0Q246 125 235 134Q225 145 129 145Q118 145 111.5 143.0Q105 141 100.0 133.5Q95 126 95 112V107L94 16Q94 0 80 0H14Q1 0 1 18L0 113V117Q0 154 28.0 188.5Q56 223 94 223H108Q109 240 125.5 248.5Q142 257 161.0 260.5Q180 264 184 268Q189 273 189 302Q189 336 158.5 396.5Q128 457 128 504Q128 525 145.0 541.0Q162 557 183 557Q196 557 206 549Q218 539 240.0 522.0Q262 505 268.0 500.0Q274 495 287.5 483.0Q301 471 306.0 466.0Q311 461 320.5 450.0Q330 439 337.5 428.5Q345 418 356 403Q357 421 357 453Q357 524 363 563Q345 561 339 561Q318 561 318 579Q318 585 322.5 605.5Q327 626 347.5 668.5Q368 711 400 743Q395 742 367.5 732.5Q340 723 307.5 714.0Q275 705 253 704H252Q240 704 231.0 714.0Q222 724 222 738Q222 751 229 758Q235 765 250.0 781.5Q265 798 273 806Q287 820 297.0 828.0Q307 836 335.5 847.5Q364 859 404 865Q405 871 406.0 886.5Q407 902 409.5 930.0Q412 958 415 988Q417 998 426 998Q467 1000 467 1000Q479 1000 479 988Q479 988 479 986Q473 959 454 867Q462 867 465 866L501 991Q503 1000 513 1000Q514 1000 557 989Q566 987 566 978Q566 974 565 973L513 846Q522 840 533 827Q567 788 578.0 741.0Q589 694 589 590Q589 575 573 575H541Q543 517 543 487Q543 385 528 267Q530 266 545.0 265.5Q560 265 577.5 259.0Q595 253 607 239Q611 233 611 228Q611 225 610 223H625Q663 223 689.5 189.0Q716 155 716 117V16Q716 0 703 0H639Q627 0 627 13Q625 87 625 112Q625 132 616.5 138.5Q608 145 591 145Q568 145 557 144Q574 142 586.0 128.5Q598 115 598 97Q598 78 584.0 64.0Q570 50 551 50Q522 50 509 77V70Q509 50 495.5 36.5Q482 23 462 23Q445 23 432.0 34.0Q419 45 416 61Q415 42 401.5 29.0Q388 16 369 16Q351 16 337.5 28.0Q324 40 322 57Q318 42 305.5 32.0Q293 22 277 22Q258 22 244.0 36.0Q230 50 230 69V73Q217 49 189 49Q170 49 156.0 62.5Q142 76 142.0 96.0Q142 116 156.0 129.5Q170 143 189.0 143.0Q208 143 222.0 129.5Q236 116 236 96V92Q249 116 277 116Q295 116 308.5 104.0Q322 92 324 75Q328 90 340.5 100.0Q353 110 369 110Q386 110 399.0 99.0Q412 88 415 72Q416 91 429.5 104.0Q443 117 462 117Q490 117 504 90V97Q504 112 512.5 124.0Q521 136 535 141ZM356 805Q356 819 376.0 819.0Q396 819 396 805Q396 799 389.5 794.5Q383 790 376.0 790.0Q369 790 362.5 794.5Q356 799 356 805ZM221 302Q221 260 203 244H506Q497 251 497 265Q497 265 500.5 295.0Q504 325 508.0 377.5Q512 430 512 486Q512 552 506 621Q504 637 491.5 652.0Q479 667 464 667Q420 667 406 617Q388 553 388 456V403Q388 341 369 341Q361 341 357 347Q357 347 348.5 357.5Q340 368 327.0 383.5Q314 399 298.0 418.0Q282 437 264.5 455.5Q247 474 231.5 490.0Q216 506 203.0 515.5Q190 525 183.0 525.0Q176 525 167.5 518.0Q159 511 159 504V503Q160 460 190.5 402.5Q221 345 221 302ZM129 177Q191 177 258.5 158.0Q326 139 365 139Q398 139 477 161Q584 177 591 177Q653 177 653 115V109L656 32L688 31L687 113V117Q687 142 669.0 167.0Q651 192 625 192H97Q71 187 51.5 169.0Q32 151 32 117V31H65L66 109V115Q66 177 128 177ZM346.0 40.0Q356 30 369.0 30.0Q382 30 392.0 40.0Q402 50 402.0 63.0Q402 76 392.0 86.0Q382 96 369.0 96.0Q356 96 346.0 86.0Q336 76 336.0 63.0Q336 50 346.0 40.0ZM438.5 46.5Q448 37 462.0 37.0Q476 37 485.5 46.5Q495 56 495.0 70.0Q495 84 485.5 93.5Q476 103 462.0 103.0Q448 103 438.5 93.5Q429 84 429.0 70.0Q429 56 438.5 46.5ZM528.0 74.0Q538 64 551.0 64.0Q564 64 574.0 74.0Q584 84 584.0 97.0Q584 110 574.0 120.0Q564 130 551.0 130.0Q538 130 528.0 120.0Q518 110 518.0 97.0Q518 84 528.0 74.0ZM254.0 46.0Q264 36 277.0 36.0Q290 36 300.0 46.0Q310 56 310.0 69.0Q310 82 300.0 92.0Q290 102 277.0 102.0Q264 102 254.0 92.0Q244 82 244.0 69.0Q244 56 254.0 46.0ZM166.0 72.5Q176 63 189.0 63.0Q202 63 212.0 72.5Q222 82 222.0 96.0Q222 110 212.0 119.5Q202 129 189.0 129.0Q176 129 166.0 119.5Q156 110 156.0 96.0Q156 82 166.0 72.5ZM487 860Q488 860 492 859L538 970L521 974ZM254 735Q255 735 268.5 745.5Q282 756 295.5 765.5Q309 775 310 775Q318 775 318 767Q318 762 315 760L290 742Q297 744 316.0 750.5Q335 757 349 760Q352 761 373.5 768.0Q395 775 409 775Q444 775 444 749Q444 740 437 734Q375 681 354 597H369Q392 698 464 698Q475 698 490.0 693.0Q505 688 522.0 665.5Q539 643 539 606H557Q557 612 556.5 622.5Q556 633 556 638Q555 700 547.0 736.0Q539 772 509 807Q483 836 440 836Q411 836 363 824Q334 816 315.5 801.5Q297 787 269 756L254 738ZM430 868 453 976 438 975 428 868Z" fill="currentColor"/>
  </g>
</svg>