<svg xmlns="http://www.w3.org/2000/svg" viewBox="0 0 929 1000">
  <g transform="scale(1,-1) translate(0,-1000)">
    <path d="M0 433Q0 486 20.0 529.5Q40 573 68.0 598.5Q96 624 132.0 642.5Q168 661 194.5 668.5Q221 676 244 679Q244 679 245 680H246Q254 680 260.0 674.0Q266 668 266 660Q266 659 260.5 627.5Q255 596 247.0 549.0Q239 502 234 474Q240 470 247 470H262Q272 470 290.5 469.5Q309 469 317 469Q324 469 337.5 467.5Q351 466 358 466Q382 466 398 485Q414 507 435.5 545.0Q457 583 465 595Q466 606 468.0 628.5Q470 651 472 668L473 684Q463 698 447 698Q441 698 421.5 692.0Q402 686 388 686Q339 686 293 712Q277 721 277 742Q277 765 296 771Q321 779 349.0 782.0Q377 785 402 794Q408 796 438.5 818.5Q469 841 498 841Q512 840 512 840Q515 840 519.5 841.0Q524 842 532.0 850.0Q540 858 540 871V889Q540 936 564 936Q573 936 589.5 927.5Q606 919 613 903Q617 927 636 927Q649 927 666.0 912.5Q683 898 683 874Q683 857 670.5 831.5Q658 806 658 796Q658 785 669.5 751.5Q681 718 685 694Q687 673 690 641Q754 635 794 635Q819 635 824 638Q825 639 832.0 665.0Q839 691 846.5 725.0Q854 759 854 775Q854 777 849.5 790.5Q845 804 845 808Q846 818 849 827L847 828Q845 827 829.5 820.0Q814 813 805 812H798Q785 812 775 819Q737 845 703.0 898.5Q669 952 652 970Q647 975 647 982Q647 990 652.5 995.0Q658 1000 665 1000Q669 1000 675 996Q734 954 784.5 917.0Q835 880 862.5 860.0Q890 840 900 833Q902 834 907 834Q914 834 921.0 828.5Q928 823 928 817Q928 816 927.5 814.0Q927 812 927 811Q929 805 929 803Q929 788 915 786Q912 781 904.5 770.5Q897 760 892.5 753.0Q888 746 887 740Q883 725 877.5 685.0Q872 645 866.5 617.0Q861 589 857 589Q852 589 810.0 587.0Q768 585 741 585Q705 585 692 587Q692 566 691.5 556.0Q691 546 687.5 536.5Q684 527 677 523V505Q677 457 691.0 419.0Q705 381 705 359V358Q716 348 730.0 338.0Q744 328 752 320Q772 300 772 265Q772 236 753.5 194.5Q735 153 735 128Q735 99 753.5 73.5Q772 48 772 44Q772 28 756 28Q748 28 743 36Q729 55 723.0 64.5Q717 74 710.5 91.5Q704 109 704 128Q704 160 722.0 201.5Q740 243 740 265Q740 282 734.5 290.0Q729 298 712 311Q709 314 702.5 318.5Q696 323 693 325Q690 322 684 319Q617 285 525 253Q530 208 530 189V180L529 67Q527 51 527 40V32Q527 17 523.5 10.0Q520 3 516.5 2.0Q513 1 504 1Q475 1 450.5 1.5Q426 2 425 2Q417 2 416 1Q415 2 409.0 6.5Q403 11 402 18Q402 36 480 54L469 253H380Q379 240 377.0 221.5Q375 203 373.0 190.0Q371 177 371 175L353 67V64Q353 60 352.0 51.5Q351 43 351 40V32Q351 11 345.0 5.5Q339 0 316 0Q310 0 290.0 0.5Q270 1 256 1H251Q226 1 226 18Q226 21 231.5 25.5Q237 30 238 32Q264 44 305 54L325 278H328Q330 301 346.5 317.5Q363 334 404 358Q421 368 444.5 384.0Q468 400 484.5 410.5Q501 421 512 426Q514 427 522 429Q519 438 511.0 458.0Q503 478 498.0 493.0Q493 508 489 524Q487 524 485.0 525.0Q483 526 481 527Q474 517 460.5 494.5Q447 472 436.0 456.5Q425 441 414.0 432.0Q403 423 365 423Q324 423 240 436H227Q222 410 216.0 374.5Q210 339 201.0 289.5Q192 240 186 204Q182 188 166 188Q159 188 154 192Q76 252 38.0 305.5Q0 359 0 433ZM40 432Q40 377 67.0 334.0Q94 291 152 244L222 635Q207 631 189.0 624.5Q171 618 137.0 600.5Q103 583 77.5 552.0Q52 521 45 482Q40 452 40 432ZM739 906Q752 886 766.5 871.0Q781 856 789 852L797 847Q801 847 814 852ZM518 784Q526 784 532.0 778.5Q538 773 538 765Q538 751 516 751Q508 751 502.5 756.0Q497 761 497 769Q497 784 518 784ZM572 872Q572 855 565.5 842.0Q559 829 551.0 823.0Q543 817 533.0 813.5Q523 810 518.5 809.5Q514 809 512.0 809.0Q510 809 505.0 809.5Q500 810 497 810Q478 810 453.5 790.0Q429 770 413 764Q385 754 356.0 751.0Q327 748 308 742Q308 742 308.5 741.0Q309 740 309 739Q347 718 388 718Q397 718 416.5 723.5Q436 729 447 729Q469 729 488.5 713.5Q508 698 508 673Q508 664 502.0 638.0Q496 612 496 585Q496 566 498 555H501Q510 570 515.0 607.0Q520 644 536 666Q546 682 580 682Q611 682 625.5 662.5Q640 643 646 590Q648 572 652 551H656H658H659Q661 585 661 598Q661 672 644.0 730.0Q627 788 627 796Q627 813 639.0 839.0Q651 865 651.0 875.0Q651 885 643 891Q642 879 642 876Q640 860 629.5 840.5Q619 821 617 814Q614 804 602 804Q586 804 586 830Q586 837 586.5 848.5Q587 860 587 865Q587 894 572 901ZM641 521Q625 525 622 539Q620 550 618 568L615 586Q610 628 597 648Q594 651 581 651Q569 651 562 647Q552 633 544.5 590.5Q537 548 526 535Q533 516 541.0 497.5Q549 479 552.5 471.0Q556 463 558.0 456.0Q560 449 560 444Q560 429 550.0 414.5Q540 400 526 393Q516 387 480.0 364.0Q444 341 423 328Q393 310 369 285Q366 282 365 279L500 282Q508 286 522.5 289.5Q537 293 573.0 307.5Q609 322 667 352Q669 352 669 358Q669 374 654.5 408.0Q640 442 640 454Q640 457 640.5 479.5Q641 502 641 521Z" fill="currentColor"/>
  </g>
</svg>