<svg xmlns="http://www.w3.org/2000/svg" viewBox="0 0 512 1000">
  <g transform="scale(1,-1) translate(0,-1000)">
    <path d="M255 109Q239 109 220.5 114.0Q202 119 179.5 131.5Q157 144 142.5 171.5Q128 199 128 237V761Q128 779 131.5 795.0Q135 811 145.5 834.0Q156 857 184.0 872.0Q212 887 254 889H255Q271 889 289.5 884.5Q308 880 331.0 867.5Q354 855 369.5 827.5Q385 800 385 761V307V237Q385 224 383.5 211.0Q382 198 374.0 179.5Q366 161 353.5 147.0Q341 133 315.5 122.0Q290 111 256 109ZM355 761Q353 853 255 859Q158 855 158 761V237Q158 146 255 139Q353 146 355 237ZM156 55Q152 54 143 54Q100 54 71.0 84.5Q42 115 42 159Q42 188 55 215Q2 257 2 315Q2 366 44 403Q0 442 0.0 495.0Q0 548 44 587Q0 626 0 679Q0 738 54 780Q39 810 39 838Q39 881 68.5 909.5Q98 938 141 938Q151 938 156 937Q200 993 258 993Q317 993 359 938Q363 939 372 939Q415 939 443.5 908.5Q472 878 472 834Q472 803 460 778Q512 738 512 679Q512 627 468 587Q512 546 512 495Q512 443 468 403Q512 364 512 311Q512 254 461 213Q473 186 473 159Q473 115 444.0 85.0Q415 55 372 55Q360 55 360 55Q317 0 257.0 0.0Q197 0 156 55ZM414 772Q414 776 423.5 795.5Q433 815 433 834Q433 862 416.5 880.5Q400 899 373 899Q366 899 359.0 897.5Q352 896 350 896Q338 896 333 905Q302 953 258 953Q212 953 182 905Q177 895 165 895Q164 895 156.0 896.5Q148 898 141 898Q114 898 96.5 881.0Q79 864 79 838Q79 819 90.0 798.0Q101 777 101 774Q101 763 91 757Q40 727 40 679Q40 634 88 604Q97 600 97 587Q97 575 88 570Q40 538 40 494Q40 451 88 420Q97 416 97 403Q97 391 88 386Q42 357 42 315Q42 269 92 237Q101 232 101 221Q101 217 91.5 197.5Q82 178 82 159Q82 132 99.0 113.0Q116 94 143 94Q150 94 156.5 95.5Q163 97 165 97Q176 97 182 87Q212 40 257 40Q303 40 333 88Q338 97 350 97Q352 97 359.0 96.0Q366 95 373 95Q399 95 416.0 113.5Q433 132 433 159Q433 178 424.0 196.0Q415 214 415 219Q415 231 424 236Q472 270 472 312Q472 357 424 386Q415 390 415 403Q415 415 424 420Q472 451 472 494Q472 540 424 570Q415 576 415 587Q415 599 424 604Q472 635 472 679Q472 724 423 755Q414 760 414 772Z" fill="currentColor"/>
  </g>
</svg>