<svg xmlns="http://www.w3.org/2000/svg" viewBox="-40 -40 1080 602">
  <g transform="scale(1,-1) translate(0,-1000)">
    <path d="M871 433Q871 434 870 436Q870 442 877.0 446.5Q884 451 892 451Q901 451 904 444Q905 443 905 440Q905 434 898.5 429.0Q892 424 885 424Q874 424 871 433ZM876 359Q893 325 893 271Q893 257 891.0 231.0Q889 205 889 193Q893 159 893 159Q897 155 909 155Q918 155 924 158Q970 281 970 363Q970 405 966.5 413.5Q963 422 946 430Q941 393 925 377Q921 373 916.5 370.0Q912 367 906.0 365.0Q900 363 896.5 362.5Q893 362 885.5 360.5Q878 359 876 359ZM149 304Q149 255 160.0 155.0Q171 55 171 16Q171 10 166.5 5.5Q162 1 156 1Q15 0 15 0Q0 0 0 16Q0 38 20.5 49.0Q41 60 62.0 65.0Q83 70 84.0 78.0Q85 86 85 102Q85 148 57.0 233.5Q29 319 29 356Q29 397 65 411Q129 436 191.0 455.0Q253 474 291.0 483.5Q329 493 419 513Q449 519 453 519Q458 519 530.5 507.0Q603 495 634 495Q652 495 662 496Q669 497 684.0 509.5Q699 522 713 522Q735 522 753 504Q759 498 769.0 482.0Q779 466 789 459Q802 451 809 451Q820 451 826.0 459.0Q832 467 835.0 476.5Q838 486 848.0 494.0Q858 502 876 502Q892 502 904.0 495.5Q916 489 930.5 477.0Q945 465 960 458Q986 446 993.0 430.5Q1000 415 1000 364Q1000 273 952 146Q945 124 909 124Q891 124 880.0 129.5Q869 135 865.0 147.0Q861 159 860.0 167.5Q859 176 859 193Q859 206 860.5 231.5Q862 257 862 271Q862 343 835 361L844 206Q844 180 837.5 131.0Q831 82 831 59V54Q831 37 848 37Q853 37 869.5 39.0Q886 41 896 41Q916 41 929 34Q936 31 936 17Q936 1 929 1H809Q788 1 788 47Q788 65 792.5 112.0Q797 159 797 181Q797 185 796.5 191.0Q796 197 796 200Q794 224 773 360Q717 344 700 344Q666 344 610.5 357.5Q555 371 534 371Q520 371 489.0 359.5Q458 348 438 348Q412 348 379.0 360.5Q346 373 322 373Q261 373 165 342Q149 337 149 328ZM811 397Q845 397 862 379Q870 381 881.0 382.0Q892 383 899.0 385.0Q906 387 911 393Q916 398 918.5 404.0Q921 410 921.5 414.0Q922 418 923.0 427.5Q924 437 925 441Q923 442 918.5 446.0Q914 450 913 451Q887 472 875 472Q865 472 859.5 454.5Q854 437 838 428Q825 421 810 421Q782 421 760 443Q754 449 745.5 462.5Q737 476 729.5 484.0Q722 492 713 492Q710 492 695.5 480.0Q681 468 665 466Q643 464 634 464Q601 464 527 476Q533 458 538.5 440.5Q544 423 547.0 414.0Q550 405 551 401Q582 398 626.5 386.5Q671 375 700 375Q720 375 754.5 386.0Q789 397 811 397ZM341 403Q359 401 387.0 390.5Q415 380 438 379Q453 379 481.5 389.5Q510 400 527 401Q513 443 503 479Q494 480 478.0 484.0Q462 488 454 488Q445 488 372 471ZM60 356Q60 324 88.0 238.0Q116 152 116 101Q116 65 107.0 53.0Q98 41 64 33Q62 32 58.0 32.0Q54 32 52 32L139 31Q137 78 127.5 164.0Q118 250 118 304Q118 325 119.5 335.0Q121 345 129.5 356.0Q138 367 156 372Q252 403 317 404Q317 404 328.0 428.0Q339 452 345 465Q201 431 77 382Q60 375 60 356Z" fill="currentColor"/>
  </g>
</svg>