<svg xmlns="http://www.w3.org/2000/svg" viewBox="0 0 985 1000">
  <g transform="scale(1,-1) translate(0,-1000)">
    <path d="M56 611Q3 656 1 661Q0 663 0 665Q0 673 6 675L74 706Q47 773 47 777Q47 779 48 780Q48 790 58 790Q66 790 144 765Q139 791 135.5 810.5Q132 830 131 836L130 841Q130 851 140 851Q143 851 145 850L201 826Q198 864 198 878Q198 888 208 888Q209 888 258 871Q255 904 255 918V920Q255 930 265 930Q267 930 320 907L321 956Q321 966 331 966Q335 966 338 963L375 926Q401 984 402 985Q405 988 409 988Q414 988 417 984L454 933L497 967Q501 969 503 969Q511 969 513 961L526 906L578 909Q588 909 588 899V898Q588 895 580 861L616 863Q626 863 626 853V852Q624 846 619 812Q658 818 659 818Q669 818 669 808V806Q669 791 666 758Q703 763 703 763Q713 763 713 753Q713 747 709 699H749Q759 699 759 689Q759 688 744 643L793 632Q801 630 801 623Q801 621 781 569L827 566Q837 566 837 556Q837 555 825 511L870 506Q879 504 879 496Q879 494 877 490L852 457H901Q911 457 911 447Q911 444 910 442L881 399L931 390Q939 388 939 381Q939 378 921 342L969 330Q976 328 976 320Q976 317 975 315L948 270L982 235Q985 232 985 228Q985 220 977 218L928 204L957 157Q959 153 959 152Q959 142 949 142H948Q944 142 882 162L881 99Q881 89 872 89Q870 89 866 91L812 120L809 62Q809 52 799 52Q797 52 793 54L753 86L746 28Q744 20 736 20Q731 20 728 24L700 62Q654 3 654 3Q651 0 646.0 0.0Q641 0 637 6L612 57Q577 13 577 13Q574 10 570 10Q565 10 561 16L538 68L479 37Q478 36 474 36Q464 36 464 46V47Q466 56 472 98L402 68Q401 67 398 67Q388 67 388 77Q388 80 389 81L415 138Q348 116 346 116Q336 116 336 126Q336 127 353 186Q280 174 279 174Q269 174 269 184Q269 185 271 190Q279 214 292 254H198Q188 254 188 264Q188 267 189 268L218 335Q167 321 147 316L144 315Q134 315 134 325Q134 326 139 336Q152 364 170 402Q100 392 95 392H94Q84 392 84 402Q84 403 86 407L124 467Q66 465 66 465Q57 465 57 475Q57 479 58 480L89 537L19 540Q9 540 9 550Q9 550 12 556ZM340 892Q340 882 330 882Q328 882 276 904L280 857Q280 847 270 847H269Q266 847 219 863Q219 854 220.0 840.5Q221 827 222 818L223 808Q223 798 213 798Q210 798 208 799L152 822Q166 755 166 752Q166 742 156 742Q144 742 69 768Q94 699 94 699Q94 693 88 690L30 663Q78 623 78 622Q80 618 80 615Q80 613 78 607L40 559L106 556Q115 556 115 546Q115 542 114 541L84 486Q119 488 139 488H143Q153 488 153 478Q153 477 151 473L114 415Q186 425 187 425Q197 425 197 415Q197 411 196 410L163 341Q234 360 235 360Q245 360 245 350V347V346L213 274H305Q315 274 315 264Q315 262 294 197Q366 209 367 209Q377 209 377 199Q377 197 361 141Q432 165 434 165Q444 165 444 155Q444 152 443 151L418 96L480 123Q481 124 484 124Q494 124 494 114Q494 114 487 64L538 91Q539 92 542 92Q548 92 552 86L572 39Q607 82 607 82Q610 85 614 85Q620 85 623 80L648 29Q693 85 693 85Q696 88 700 88Q705 88 708 84L729 56L736 106Q738 114 746 114Q748 114 752 112L790 82L792 137Q792 147 802 147Q806 147 807 146L861 116L862 176Q862 186 872 186Q874 186 926 169L904 205Q903 207 903 210Q903 218 910 220L956 233L928 262Q926 264 926.0 268.0Q926 272 927 274L951 314L904 325Q896 327 896 335Q896 337 914 373L862 382Q854 384 854 392Q854 394 856 398L883 437H832Q822 437 822 447Q822 449 824 453L850 488L811 492Q802 494 802 502Q802 504 814 547L766 549Q757 549 757 559V560Q757 563 777 615L729 626Q721 628 721 636Q721 637 735 679H698Q688 679 688 689Q688 691 692 741Q655 736 655 736Q645 736 645 746V748Q645 763 648 796Q608 790 607 790Q597 790 597 800Q597 800 597.5 801.5Q598 803 599.5 814.0Q601 825 604 843Q567 840 567 840Q557 840 557 850V851Q557 854 565 888Q537 886 521 886H518Q510 886 508 893L497 941L458 910Q454 908 452 908Q447 908 443 913L411 958Q387 903 385.0 901.0Q383 899 378.0 899.0Q373 899 371 901L341 932ZM607 479Q619 479 648 469Q657 477 673.5 488.5Q690 500 697 507Q706 516 706.0 534.0Q706 552 687 566Q674 576 647.5 584.0Q621 592 603 603Q573 622 533.0 658.5Q493 695 463 712Q459 714 456.0 714.0Q453 714 438.0 713.0Q423 712 415 712Q408 712 403.0 717.0Q398 722 398 729Q386 727 386 727H384Q371 727 357.5 743.5Q344 760 333 760Q325 760 314.5 756.5Q304 753 298 750L292 746Q290 744 286.5 740.0Q283 736 280 733Q281 717 293.0 701.5Q305 686 327 686H336Q364 686 374 665Q380 671 386 671Q388 671 411.5 660.5Q435 650 477.0 628.5Q519 607 560 584Q592 566 611 556Q620 551 620 541Q620 534 618 531L579 473Q599 479 607 479ZM332 779Q354 779 365.5 763.5Q377 748 386 748Q387 748 390.5 748.5Q394 749 396 749Q389 806 343 806Q319 806 303.0 792.5Q287 779 284 764Q308 779 332 779ZM307 712Q298 712 298 723Q298 729 302.5 733.5Q307 738 313 738Q325 738 325 728Q325 723 319.0 717.5Q313 712 307 712ZM175 536Q175 538 186.0 543.5Q197 549 199 556Q199 560 186 560Q177 560 160.5 556.0Q144 552 143 552H142Q132 555 132 566Q132 574 142.5 579.0Q153 584 164.5 585.5Q176 587 188 588H200Q206 587 221 587Q236 590 236 590L289 604L362 647L363 648Q359 647 352.0 655.0Q345 663 333 663H323Q296 663 277.0 685.0Q258 707 258 740Q258 780 283.5 804.5Q309 829 341 829Q378 829 400 802Q412 788 419 746Q430 748 456 748Q478 748 504.5 728.5Q531 709 565.0 677.5Q599 646 621 632Q630 627 662.0 617.5Q694 608 717.0 585.0Q740 562 740 534Q740 533 740.5 529.5Q741 526 741 523Q741 503 721 483Q713 475 693.5 461.0Q674 447 665 438Q672 431 680.5 421.5Q689 412 694.5 405.5Q700 399 701 398H702L768 320Q774 316 778.0 311.0Q782 306 792 298Q808 284 808 276Q808 269 794 252Q790 247 778.0 233.0Q766 219 758 210Q758 210 757.0 208.0Q756 206 755 206Q746 195 736 195Q724 195 724 205Q724 206 724.5 208.5Q725 211 725.0 212.0Q725 213 724.5 214.5Q724 216 724 217Q731 244 749 277L599 427L598 443Q588 440 578 434Q583 420 594.5 395.5Q606 371 615.5 353.0Q625 335 626 334L658 235Q677 191 677 185Q677 177 667.5 171.5Q658 166 602 140Q590 134 584.0 134.0Q578 134 573.0 137.5Q568 141 568 145Q568 162 622 204Q594 258 572.0 301.0Q550 344 538.5 365.0Q527 386 519.5 399.5Q512 413 510 417L508 421Q508 427 510 430L579 535Q464 597 449 604L403 627L348 546L282 514Q275 512 270.0 507.0Q265 502 263 498L261 494Q260 488 246.0 480.5Q232 473 225 473H224Q222 473 222.0 476.0Q222 479 226.5 484.5Q231 490 236 494L240 499L238 500H234Q224 500 205.5 492.0Q187 484 186 484Q182 484 178.0 488.0Q174 492 174 498V501Q175 506 181.5 511.0Q188 516 197.0 519.0Q206 522 214.5 524.0Q223 526 230 528L237 529Q249 529 271 537Q276 540 296.0 546.0Q316 552 323 561Q329 570 337.0 588.5Q345 607 350 615Q290 570 242 569L241 570Q236 570 230.0 563.5Q224 557 220 550L217 544Q215 539 202.5 534.0Q190 529 182 529H179Q175 531 175 536Z" fill="currentColor"/>
  </g>
</svg>