<svg xmlns="http://www.w3.org/2000/svg" viewBox="0 0 766 1000">
  <g transform="scale(1,-1) translate(0,-1000)">
    <path d="M672 194Q672 282 602.0 399.0Q532 516 430.5 600.5Q329 685 247 685Q200 685 167 652Q102 586 102 508Q102 436 155.5 358.5Q209 281 284.5 225.0Q360 169 443.0 132.5Q526 96 586 96Q629 96 646 115Q672 146 672 194ZM458 724Q409 724 381 684Q452 644 524 567Q550 593 550.0 631.0Q550 669 523.0 696.5Q496 724 458 724ZM590 631Q590 574 551 537Q552 535 554.5 532.5Q557 530 558 529Q594 553 634 553Q689 553 727.5 514.5Q766 476 766 421Q766 412 764.0 401.0Q762 390 756.0 370.5Q750 351 733.5 332.5Q717 314 692 302Q712 244 712 194Q712 179 710.0 164.0Q708 149 700.5 128.5Q693 108 680.0 93.0Q667 78 643.0 67.0Q619 56 587 56Q538 56 476 77Q473 69 466.0 59.0Q459 49 445.0 34.5Q431 20 407.5 10.0Q384 0 356 0Q301 0 262.0 39.0Q223 78 223 133Q223 172 245 206Q235 214 213 234Q176 206 133 206Q78 206 39.0 245.0Q0 284 0 339Q0 348 2.0 359.0Q4 370 10.0 388.5Q16 407 31.0 424.5Q46 442 68 455Q62 480 62 507Q62 604 139 681Q183 725 248 725Q293 725 345 702Q384 764 458 764Q513 764 551.5 725.0Q590 686 590 631ZM726 421Q726 459 699.0 486.0Q672 513 634 513Q607 513 583 498Q641 422 677 339Q726 372 726 421ZM40 339Q40 301 67.5 273.5Q95 246 133 246Q157 246 183 262Q111 336 80 415Q40 387 40 339ZM263 133Q263 95 290.5 67.5Q318 40 356 40Q412 40 438 91Q350 127 277 181Q263 159 263 133Z" fill="currentColor"/>
  </g>
</svg>