<svg xmlns="http://www.w3.org/2000/svg" viewBox="0 0 515 1000">
  <g transform="scale(1,-1) translate(0,-1000)">
    <path d="M126 233Q126 226 121.0 219.5Q116 213 111 213Q110 213 104 215Q104 215 103.0 216.0Q102 217 101 218Q83 232 75.5 248.0Q68 264 67.0 278.5Q66 293 65 295L30 374Q25 389 25 397Q25 407 28.0 416.5Q31 426 39.5 436.0Q48 446 53.5 453.0Q59 460 72.0 470.0Q85 480 90.0 483.5Q95 487 110.0 497.0Q125 507 126 508L165 530Q180 540 204.5 541.5Q229 543 244.0 544.5Q259 546 259 556Q259 572 235 589Q231 593 213.5 599.0Q196 605 186.5 618.5Q177 632 177 660Q177 671 179.0 680.0Q181 689 186.0 701.5Q191 714 193 722Q193 722 193.5 723.0Q194 724 194 725Q205 746 212.0 757.0Q219 768 233.0 782.5Q247 797 264 804Q264 804 264 805L263 806L251 835V838Q251 843 258 843H275Q259 856 244.5 874.5Q230 893 222.5 906.5Q215 920 215 923Q215 933 223 933Q226 933 229.5 928.0Q233 923 241.0 912.0Q249 901 257 892Q260 910 274 921V969Q274 979 284 979H316V990Q316 1000 326.0 1000.0Q336 1000 336 990V928Q360 917 365 892Q373 901 380.5 912.0Q388 923 392.0 928.0Q396 933 399 933Q407 933 407 923Q407 920 400.0 908.0Q393 896 378.5 877.0Q364 858 347 843H361Q368 843 368 836V834Q358 809 356 805Q382 797 399.0 778.5Q416 760 422.5 744.0Q429 728 437.0 697.5Q445 667 448 657Q448 656 448 655L449 654Q453 628 455 530Q484 507 499.5 443.5Q515 380 515 351Q515 342 507.5 333.0Q500 324 485.0 316.0Q470 308 458.0 302.5Q446 297 427.5 290.0Q409 283 404 281Q406 229 413.5 171.5Q421 114 421 98Q421 95 421.5 89.0Q422 83 422 79Q423 66 437.5 44.0Q452 22 452 15Q452 0 438 0H47Q44 0 43 1Q5 1 0 56V58Q0 62 1.0 75.0Q2 88 3.5 93.0Q5 98 9.5 106.0Q14 114 22 119Q43 135 81.0 160.0Q119 185 134 195L130 292V294Q130 302 133.5 326.5Q137 351 138 352Q139 371 160 387L158 411Q140 418 132 434Q129 434 129 450V452Q117 444 103.5 435.0Q90 426 84.5 423.0Q79 420 73.5 414.0Q68 408 66.5 402.5Q65 397 65 387Q65 378 67.5 369.0Q70 360 72.5 353.5Q75 347 81.0 333.5Q87 320 90 313Q101 300 113.5 275.0Q126 250 126 233ZM299 622Q299 646 304.0 660.0Q309 674 314.5 677.5Q320 681 325.0 686.0Q330 691 330 699Q322 703 310.5 703.0Q299 703 283.0 710.5Q267 718 240 741Q209 687 209 660Q209 640 220.0 632.0Q231 624 248.0 618.0Q265 612 273 600Q277 597 282.5 583.0Q288 569 288 556Q288 509 217 509H213Q188 509 179 500H180Q199 500 213.5 487.0Q228 474 228 455Q228 442 221 430L233 385Q234 384 234 384V383L264 348L247 436V439Q247 448 257 451H260Q269 451 271 441L295 308Q295 307 296 306V305Q296 303 295.0 300.5Q294 298 291.0 295.5Q288 293 283.0 293.0Q278 293 274 297L246 331L250 314Q253 302 255.5 283.5Q258 265 261.5 252.0Q265 239 273 227Q277 221 294.5 216.5Q312 212 326.0 200.5Q340 189 340 163Q340 155 336.5 138.5Q333 122 333 115Q333 103 338.0 98.0Q343 93 354.5 89.0Q366 85 373 80Q375 78 381 64Q376 48 369 46Q358 44 328.0 43.0Q298 42 288 39Q286 38 283 38Q263 38 263 94Q263 98 263.5 106.5Q264 115 264 119Q264 127 262 143Q257 143 243.5 143.5Q230 144 220.0 145.0Q210 146 199.0 148.0Q188 150 182.0 153.5Q176 157 176 163Q175 171 175 186Q158 171 122.0 148.5Q86 126 61.0 109.5Q36 93 35 85Q34 82 33.5 77.5Q33 73 32.5 66.5Q32 60 32 57Q32 32 56 29H413Q394 56 394 98Q394 114 388.0 170.5Q382 227 380 266Q339 244 321 244Q310 244 302 256Q301 256 301 257Q301 264 312.0 275.0Q323 286 333 292Q341 297 350.0 299.5Q359 302 367.5 303.0Q376 304 378 304V334Q378 340 378.5 352.0Q379 364 379 370V373Q379 376 380 378V406Q380 424 379.5 435.5Q379 447 379.0 450.0Q379 453 378.5 455.0Q378 457 378 459Q377 468 377 484V507Q377 532 370 550Q366 550 364 547Q361 522 361 501Q361 488 362.5 463.0Q364 438 364 424Q364 387 358.0 371.0Q352 355 333 355H332Q322 355 315.5 362.5Q309 370 306.0 383.5Q303 397 302.0 408.0Q301 419 300.5 436.0Q300 453 300 457V474Q299 617 299 622ZM342 68Q324 76 316.5 85.5Q309 95 309 115Q309 125 312.5 140.5Q316 156 316 163Q316 180 305.0 186.0Q294 192 277.0 196.5Q260 201 252 214Q242 229 237.5 244.5Q233 260 231.0 279.5Q229 299 226 309L201 410Q193 407 185 407H183L185 394Q187 390 187 386Q187 383 186 382Q196 292 199 173Q212 169 234.5 169.0Q257 169 270.0 167.0Q283 165 284 157Q288 138 288 119Q288 114 287.5 105.5Q287 97 287 94Q287 77 291 65Q291 65 342 68ZM185 431Q193 431 198.0 438.0Q203 445 203 455Q203 463 196.5 469.0Q190 475 180 475Q169 475 160.5 467.5Q152 460 152 450Q152 448 153.0 445.0Q154 442 162.5 436.5Q171 431 185 431ZM244 698Q270 698 270 681Q270 665 247 665Q225 665 225 678Q225 686 230.5 692.0Q236 698 244 698ZM293 737Q298 735 315.5 732.5Q333 730 344.0 723.5Q355 717 355 703Q355 688 342.0 677.0Q329 666 328 661Q326 651 326 639Q326 631 326.0 626.0Q326 621 325.5 615.5Q325 610 325.0 581.0Q325 552 325 501V486Q326 476 326.0 463.0Q326 450 326.0 442.5Q326 435 328.0 425.5Q330 416 334 406Q335 406 336 406L338 407Q341 431 341 451Q341 463 339.5 488.5Q338 514 338 528Q338 555 342 580Q351 602 372 602Q389 602 393 589Q402 565 402 534V500Q405 458 405 422V417H408Q417 417 421 418Q424 437 424 469V489Q424 492 424.5 499.5Q425 507 425 511V517Q424 536 424 567V586Q424 629 419 660Q415 673 408.0 698.5Q401 724 396.5 734.5Q392 745 381.0 759.0Q370 773 352.0 778.0Q334 783 306 783Q275 783 256 764Q279 744 293 737ZM159 213 174 225Q174 291 164 351L155 301ZM403 316 448 340Q475 358 475 358Q474 373 456 422Q456 402 452.0 393.5Q448 385 446.5 385.0Q445 385 433 383Q423 380 409 380H405Q405 373 404.0 348.0Q403 323 403 316ZM309 849Q323 849 333.5 859.0Q344 869 344.0 882.0Q344 895 334.0 904.0Q324 913 309 913Q295 913 285.5 904.0Q276 895 276 882Q276 868 286.0 858.5Q296 849 309 849ZM267 829 275 813 343 814 351 829ZM294 932Q304 934 309 934H316V959H294Z" fill="currentColor"/>
  </g>
</svg>