<svg xmlns="http://www.w3.org/2000/svg" viewBox="24 -1623 2000 2052">
	<path fill="currentColor" d="M1948 -394H1230Q1289 -319 1289 -265Q1289 -209 1242.5 -167.5Q1196 -126 1139 -126Q1103 -126 1063 -145V353H985V-194Q904 -270 755 -394H100V-599Q100 -677 162 -677Q193 -677 217.5 -627.5Q242 -578 262 -578Q282 -578 310 -627.5Q338 -677 372 -677Q407 -677 434 -627.5Q461 -578 483 -578Q501 -578 527.5 -627.5Q554 -677 582 -677Q607 -677 624 -655Q641 -633 641 -608V-472H662Q671 -500 703 -535Q746 -582 753 -592Q766 -611 790 -693Q823 -803 824 -806Q771 -845 736 -926Q708 -997 680 -1067H670Q601 -1067 529 -1054Q485 -1046 486 -1046Q443 -1046 410 -1097Q407 -1102 407 -1107Q407 -1111 408.5 -1117.5Q410 -1124 410 -1128Q410 -1131 407.5 -1136Q405 -1141 405 -1145Q405 -1162 465 -1203Q531 -1249 547 -1286Q510 -1295 474 -1329Q436 -1367 436 -1402Q436 -1507 500 -1541Q500 -1526 497.5 -1495Q495 -1464 495 -1448Q495 -1402 511 -1385Q558 -1335 581 -1335Q590 -1335 609 -1339.5Q628 -1344 637 -1344Q658 -1344 674 -1335Q684 -1338 713 -1364Q742 -1390 746 -1400Q754 -1417 759 -1547Q810 -1532 810 -1442Q810 -1360 768 -1322H779Q800 -1322 815 -1316Q810 -1300 803 -1288Q844 -1282 926 -1266Q976 -1255 1116 -1211Q1127 -1207 1141 -1203H1359Q1364 -1203 1407 -1211Q1584 -1244 1634 -1244Q1765 -1244 1844 -1208Q1893 -1186 1893 -1079V-941Q1893 -923 1908 -873Q1919 -855 1936 -818Q1946 -787 1946 -748Q1946 -736 1936 -666Q1905 -712 1870 -777Q1859 -724 1859 -685Q1859 -664 1861 -623Q1863 -582 1863 -561Q1863 -535 1854 -531Q1830 -520 1829 -519Q1824 -514 1820 -472H1948ZM1848 -871Q1847 -878 1847 -972Q1838 -919 1838 -915Q1838 -896 1848 -871ZM1800 -486V-512H1793Q1791 -503 1786 -486ZM1769 -510Q1758 -506 1753 -486Q1757 -487 1763 -488ZM1775 -597Q1775 -615 1773.5 -650.5Q1772 -686 1772 -704Q1772 -754 1765 -769.5Q1758 -785 1720 -806Q1682 -827 1663 -827Q1622 -827 1605 -787Q1590 -752 1576 -716Q1557 -699 1526 -661Q1504 -612 1449 -521Q1447 -518 1424 -508Q1422 -497 1419 -475L1416 -472H1727Q1729 -502 1752 -529Q1775 -556 1775 -597ZM1923 -747Q1923 -785 1914 -814Q1904 -828 1889 -858Q1871 -913 1871 -958Q1871 -1153 1854 -1171Q1809 -1219 1637 -1219Q1575 -1219 1532 -1211Q1464 -1197 1345 -1181Q1211 -1177 1173 -1177Q1133 -1177 1017 -1213Q889 -1251 839 -1257Q833 -1258 815 -1262Q801 -1265 791 -1265Q790 -1262 779 -1246Q706 -1233 717 -1233Q705 -1233 705 -1242V-1247Q710 -1250 753 -1263Q769 -1268 784 -1302Q781 -1303 775 -1303Q761 -1303 740 -1294Q707 -1259 692 -1259Q690 -1264 684 -1264Q691 -1280 702 -1288L700 -1297Q726 -1314 767 -1355Q787 -1389 787 -1442Q787 -1452 782 -1473Q778 -1388 727 -1343Q709 -1333 674 -1309Q674 -1308 673 -1305Q673 -1302 676 -1294Q671 -1286 662 -1286L657 -1287Q649 -1302 651 -1317H598Q585 -1317 570 -1287Q551 -1247 551 -1247Q532 -1223 495 -1197Q465 -1175 434 -1154Q428 -1149 428 -1144Q428 -1136 445.5 -1115.5Q463 -1095 471 -1095Q479 -1095 494 -1096.5Q509 -1098 516 -1098Q532 -1098 532 -1080V-1079Q479 -1068 459 -1073H460Q492 -1069 486 -1069Q502 -1069 539 -1077Q580 -1086 594 -1087Q624 -1086 684 -1090Q697 -1092 722 -1116Q753 -1146 759 -1150Q766 -1143 766 -1136Q766 -1125 741 -1102.5Q716 -1080 702 -1074Q736 -983 798 -860Q856 -794 931 -788Q939 -787 957 -784Q889 -885 885 -892Q855 -949 855 -1021Q855 -1034 867 -1034Q868 -1034 874 -1033Q877 -1011 884 -968Q894 -908 965 -812Q991 -777 991 -753Q991 -649 978 -589Q975 -574 938 -522Q952 -520 979 -516Q985 -527 1006 -534Q1011 -570 1022 -641Q1031 -689 1054 -759Q1082 -844 1082 -840Q1082 -841 1064 -893L1076 -906Q1105 -872 1105 -842Q1105 -833 1103 -821Q1137 -833 1151 -830Q1241 -812 1238 -812Q1247 -812 1266.5 -815Q1286 -818 1295 -818Q1353 -818 1426 -805Q1430 -803 1433 -799Q1545 -844 1648 -850Q1576 -920 1576 -974Q1576 -978 1582 -976Q1580 -979 1580 -981Q1580 -982 1582 -983Q1599 -967 1621.5 -924Q1644 -881 1664 -864Q1705 -839 1745 -814Q1797 -780 1797 -745V-549Q1789 -544 1781 -533Q1802 -534 1840 -549V-559Q1840 -577 1838 -613.5Q1836 -650 1836 -668Q1836 -691 1843 -735Q1850 -779 1850 -801Q1850 -821 1832 -853Q1814 -885 1814 -907Q1814 -914 1815 -921L1844 -1090Q1845 -1105 1823 -1149Q1813 -1162 1805 -1175Q1812 -1183 1819 -1183H1824Q1868 -1123 1866 -1094Q1870 -1092 1870 -1084V-874Q1870 -881 1874 -857L1875 -851Q1884 -799 1922 -732Q1923 -739 1923 -747ZM1603 -824H1593Q1593 -824 1500 -797Q1508 -784 1508 -777Q1508 -768 1459 -665.5Q1410 -563 1398 -544Q1390 -531 1373 -518Q1418 -520 1431 -536Q1448 -556 1501 -661Q1517 -692 1540.5 -713.5Q1564 -735 1578 -776Q1587 -803 1603 -824ZM562 -1319Q509 -1350 495 -1367Q472 -1394 472 -1446Q472 -1448 475 -1483Q463 -1460 463 -1454V-1385Q463 -1374 502 -1334Q516 -1319 556 -1307Q559 -1315 562 -1319ZM1485 -775Q1485 -778 1476 -791Q1395 -766 1411 -766Q1399 -766 1399 -774V-773L1400 -772V-782L1403 -785Q1319 -795 1297 -795Q1287 -795 1267 -792Q1247 -789 1237 -789Q1223 -789 1193 -798Q1163 -807 1149 -807Q1107 -807 1095 -793Q1074 -769 1047 -654Q1043 -616 1034 -540Q1031 -519 1000 -509Q998 -496 990 -472H1311Q1320 -507 1345 -526Q1377 -550 1380 -555Q1390 -572 1437 -668Q1485 -768 1485 -775ZM1399 -500H1390Q1372 -500 1367 -482Q1378 -484 1397 -485Q1397 -488 1399 -500ZM1348 -495L1347 -496L1342 -486Q1345 -488 1348 -495ZM1263 -265Q1263 -312 1197 -394H1160Q1243 -327 1262 -250Q1263 -256 1263 -265ZM968 -739V-758Q943 -763 929 -765Q924 -721 909 -709Q884 -688 877 -676Q858 -628 820 -533Q808 -505 774 -503Q773 -492 767 -472H890Q896 -499 925.5 -543.5Q955 -588 956 -594Q968 -645 968 -739ZM907 -757V-769Q873 -774 842 -794Q822 -727 802 -659Q779 -582 733 -537Q729 -533 727 -530Q762 -517 758 -517Q762 -517 779.5 -525.5Q797 -534 799 -538Q813 -559 832 -624Q849 -682 878 -715Q907 -748 907 -757ZM1922 -420V-446H126V-420ZM974 -490V-495Q963 -494 946 -496L942 -482Q953 -485 974 -490ZM1241 -221Q1234 -309 1116 -394H1063V-227Q1122 -194 1166 -194Q1202 -194 1241 -221ZM1037 -243V-394H1011V-261Q1027 -249 1037 -243ZM1213 -177Q1189 -168 1166 -168Q1046 -168 822 -394H798Q883 -317 969 -241Q1074 -152 1139 -152Q1178 -152 1213 -177ZM985 -280V-394H859Q930 -323 985 -280ZM750 -497L729 -507V-495Q725 -489 722 -482Q736 -484 747 -485Q749 -493 750 -497ZM716 -512H714Q713 -511 711 -509Q713 -510 716 -512ZM703 -499Q699 -494 697 -490Q700 -492 703 -499ZM1037 327V-159Q1029 -164 1011 -176V327ZM615 -472V-608Q615 -651 582 -651Q570 -651 541.5 -601.5Q513 -552 483 -552Q447 -552 420 -601.5Q393 -651 372 -651Q352 -651 323 -601.5Q294 -552 262 -552Q229 -552 203 -601.5Q177 -651 162 -651Q126 -651 126 -599V-472ZM662 -1192Q657 -1191 651 -1191Q642 -1191 636 -1194Q634 -1191 628 -1185Q620 -1191 605 -1198Q582 -1193 579 -1193Q603 -1238 630 -1238Q630 -1238 635 -1237Q653 -1210 662 -1192ZM519 -1127Q506 -1120 479 -1111Q480 -1107 480 -1099Q462 -1099 439 -1134Z"/>
</svg>