<svg xmlns="http://www.w3.org/2000/svg" viewBox="0 0 556 1000">
  <g transform="scale(1,-1) translate(0,-1000)">
    <path d="M460 565Q432 559 391 559Q374 559 359 562L290 255Q284 237 261 237Q248 237 222.5 265.5Q197 294 157.5 335.5Q118 377 80 399Q68 396 68 362Q68 324 81.0 258.0Q94 192 94 154Q94 122 88.0 100.5Q82 79 76.0 70.5Q70 62 50 36H451Q437 56 432.5 71.0Q428 86 428 118Q428 136 445.0 251.5Q462 367 462 485Q462 511 460 565ZM313 741Q279 693 279 677Q279 654 313.5 622.0Q348 590 392 590Q429 590 459 596Q468 598 468 612V613Q462 611 460 611Q437 617 426.0 633.5Q415 650 415 667Q415 674 417.0 684.0Q419 694 419 696Q419 697 418 698Q407 708 367.0 715.0Q327 722 313 741ZM337 706Q346 706 352.5 699.0Q359 692 359 683Q359 665 335 665Q326 665 319.5 671.5Q313 678 313.0 687.0Q313 696 320.0 701.0Q327 706 337 706ZM340 766Q340 757 358.0 752.0Q376 747 397.0 744.0Q418 741 436.0 729.0Q454 717 454 696Q454 690 452.0 680.5Q450 671 450 667Q450 661 457 652Q469 673 479.0 712.5Q489 752 493.0 785.5Q497 819 500.5 852.0Q504 885 504 887Q507 903 514.0 920.0Q521 937 521 946Q521 965 507 965Q500 965 492.0 956.0Q484 947 474.5 931.5Q465 916 457 908Q446 897 412.0 870.0Q378 843 362.0 821.5Q346 800 340 769ZM320 578Q318 578 280.5 532.5Q243 487 230 487Q225 487 220.0 491.5Q215 496 215 505Q215 506 215.5 508.0Q216 510 216 511Q218 519 222.0 526.5Q226 534 229.5 538.5Q233 543 240.5 551.5Q248 560 252 566Q281 602 282 604Q248 638 248 675Q248 689 253.5 703.0Q259 717 265.0 725.5Q271 734 284 751Q284 753 298.0 775.0Q312 797 312 799Q321 827 342.5 851.5Q364 876 395.5 901.5Q427 927 433 933Q438 937 449.0 956.0Q460 975 474.0 987.5Q488 1000 507 1000Q528 1000 542.0 985.0Q556 970 556 946Q556 931 547.5 910.0Q539 889 538 882Q538 880 534.5 846.5Q531 813 527.0 779.5Q523 746 513.5 705.0Q504 664 491 640L494 624Q495 622 502.0 605.5Q509 589 515.5 572.5Q522 556 528.0 534.0Q534 512 534 497Q534 479 523.0 471.0Q512 463 504 463Q501 463 495 465Q494 351 478.0 241.0Q462 131 462 118Q462 93 465.5 82.0Q469 71 480.0 56.5Q491 42 498 27Q500 21 500 18Q500 11 495.0 5.5Q490 0 483 0H17Q10 0 5.0 5.5Q0 11 0 18Q0 29 27.5 63.0Q55 97 58 123Q59 134 59 154Q59 188 46.5 255.0Q34 322 34 362V366Q34 394 42 408Q36 423 36 423Q38 436 41.0 442.5Q44 449 46.5 450.0Q49 451 51.0 452.0Q53 453 53 456Q53 481 53.5 612.5Q54 744 54 755Q54 768 78.0 786.5Q102 805 102 827Q102 858 77 858Q70 858 61.0 853.0Q52 848 44.0 841.0Q36 834 29.5 827.5Q23 821 18 816L14 811Q3 811 3 830Q3 848 30.5 867.5Q58 887 71 887Q95 887 110.5 871.0Q126 855 129.5 842.5Q133 830 133 826Q133 810 125.5 798.0Q118 786 109.5 781.0Q101 776 93.5 769.5Q86 763 86 756V452Q110 447 110 434Q110 432 109.5 428.0Q109 424 109 422Q139 403 162.0 380.5Q185 358 211.5 328.0Q238 298 260 278L327 573Q326 573 323.5 575.5Q321 578 320 578Z" fill="currentColor"/>
  </g>
</svg>