<svg xmlns="http://www.w3.org/2000/svg" viewBox="0 0 781 1000">
  <g transform="scale(1,-1) translate(0,-1000)">
    <path d="M453 637Q509 673 519 673Q535 673 535 642Q535 623 526 614Q484 576 448 550Q449 535 451.5 518.5Q454 502 457.5 489.5Q461 477 464.5 467.0Q468 457 470 452L473 446Q482 425 497.0 408.0Q512 391 512 382Q512 371 476.0 335.5Q440 300 433 286Q424 271 422 268Q422 263 475.5 179.5Q529 96 529 90Q529 82 523.5 76.5Q518 71 510 71H507Q479 68 442 39H568L503 244V246V249Q503 259 509 264Q530 281 559.5 304.0Q589 327 611.5 345.5Q634 364 656 386Q660 390 660.0 395.0Q660 400 652.5 416.5Q645 433 637.5 466.0Q630 499 630 544Q630 576 638.0 626.5Q646 677 646 711Q646 751 630 776Q594 754 556 754Q526 754 504 769Q503 770 502 770Q464 706 453 637ZM448 413Q341 341 315 317Q310 312 304 306Q304 296 318 194L333 93Q333 82 317.0 74.0Q301 66 275.0 58.0Q249 50 236 41H338L362 261Q362 268 403 309Q423 337 468 382Q458 395 448 413ZM528 960Q571 932 571 907V902Q569 883 542.5 859.5Q516 836 511 824V823V821Q512 819 512 813Q512 810 511.5 806.5Q511 803 511 802V801Q531 784 561 784Q568 784 581.5 786.5Q595 789 617.5 805.0Q640 821 646 848Q653 873 653 882Q653 912 611 951Q595 967 577 969H573Q567 969 551.0 964.5Q535 960 528 960ZM382 856Q385 850 387.5 849.0Q390 848 400 846Q401 846 403.0 845.5Q405 845 406 845Q410 845 417.0 846.5Q424 848 430 848H431Q435 848 475 843Q487 843 495 842Q497 849 522.0 871.0Q547 893 549 905V907Q549 908 548 910V911Q544 917 538 923Q531 930 524.5 935.0Q518 940 508.0 946.5Q498 953 491 958L469 928Q468 927 463 919Q449 897 409 897Q403 897 392.5 897.5Q382 898 377 898H370Q367 898 360.5 899.0Q354 900 352 900Q349 900 349 899Q349 896 365.5 885.0Q382 874 382 856ZM500 924Q507 924 512.0 918.5Q517 913 517 905Q517 898 511.5 893.0Q506 888 498 888Q473 888 473 905Q473 924 500 924ZM93 614Q82 659 68 659Q51 659 44 626Q43 624 42.5 621.0Q42 618 42 616Q55 601 68 601Q82 601 93 614ZM44 712Q55 727 58.0 729.5Q61 732 67 732Q74 732 77.0 729.0Q80 726 89 713Q75 723 67.0 723.0Q59 723 52.5 717.5Q46 712 44 712ZM113 684Q113 714 91.5 741.5Q70 769 70 774V977H65V976L64 774Q64 768 53.5 756.5Q43 745 32.0 727.0Q21 709 21 686Q21 674 28 644Q39 680 68 680Q95 680 107 645Q113 681 113 684ZM65 998H73Q92 998 92 976V956H114Q126 956 126 945Q126 940 122.0 936.5Q118 933 114 933H92V776Q96 768 105 758Q134 721 134 684Q134 658 124.5 628.0Q115 598 93 586Q113 573 122 570L330 550Q346 560 375.0 581.5Q404 603 411 608Q415 658 431.5 706.0Q448 754 462.0 777.0Q476 800 481 803Q481 805 481.5 808.5Q482 812 482 813H477H473Q466 813 453.0 815.0Q440 817 431 817H430Q426 817 418.0 816.5Q410 816 406 816Q387 816 364.5 824.5Q342 833 340 854Q331 897 331 900Q331 931 354 931Q358 931 364 930L370 928H377Q384 928 394.0 927.5Q404 927 409 927Q425 927 435 930Q436 931 436.5 932.5Q437 934 439.0 938.0Q441 942 445 947L474 985Q478 991 486 991Q493 991 495 989Q499 989 510.5 989.5Q522 990 530 991Q534 992 548.5 996.0Q563 1000 573 1000Q605 1000 632 973Q683 922 683 882Q683 878 681.5 867.5Q680 857 674.0 836.5Q668 816 658 802Q682 769 683 737Q683 732 683.5 724.0Q684 716 684 712Q684 675 676.0 624.0Q668 573 668 544Q668 523 672.0 499.5Q676 476 681.0 459.0Q686 442 686 441Q693 441 709.5 444.5Q726 448 735 448Q781 448 781 380Q781 353 766.5 307.5Q752 262 752 236Q752 204 766.0 153.5Q780 103 780 97Q780 88 774.0 82.0Q768 76 759 76Q741 76 738 93Q736 102 726 139Q709 194 709 236Q709 269 723.5 314.0Q738 359 738 379Q738 392 735 405Q733 405 698 400V395Q698 376 679.0 355.0Q660 334 589 279Q587 277 569.5 264.0Q552 251 543 243L612 26Q613 24 613 20Q613 12 607.5 6.5Q602 1 594 1L404 0Q396 0 390.5 6.0Q385 12 385 19Q385 42 414.5 65.5Q444 89 479 102Q478 103 463.5 125.5Q449 148 429.0 180.0Q409 212 399 230Q399 230 398.0 231.0Q397 232 397 233L374 20Q372 3 355 3H199Q192 3 186.0 8.5Q180 14 180 22Q180 41 200 61Q219 80 269 96Q278 99 294 105Q266 301 266 305Q266 323 291.5 347.5Q317 372 386 417Q400 426 432 448Q420 481 413 527Q371 501 336 490L117 533Q116 533 87 532H58Q41 532 23.0 541.0Q5 550 5 560Q5 566 23.0 574.0Q41 582 44 585Q21 597 10.5 627.5Q0 658 0 686Q0 726 30 761Q38 771 42 777L43 932H21Q9 932 9 944Q9 955 21 955Q37 956 44 956V978Q44 998 65 998Z" fill="currentColor"/>
  </g>
</svg>