<svg xmlns="http://www.w3.org/2000/svg" viewBox="0 0 493 1000">
  <g transform="scale(1,-1) translate(0,-1000)">
    <path d="M82 600Q61 654 42 654Q36 654 35 651Q30 641 30 627Q30 611 40.5 607.0Q51 603 82 600ZM61 328Q61 335 57.0 341.0Q53 347 50 347Q45 347 41.0 331.5Q37 316 35.0 299.5Q33 283 33 282Q29 276 19 276Q2 276 2 299Q2 310 5.5 324.5Q9 339 13 350L17 361Q27 376 29 402Q29 402 31.5 424.0Q34 446 37.0 463.5Q40 481 44.5 504.0Q49 527 55.5 544.5Q62 562 69 569L71 570Q0 575 0 628Q0 636 1.5 646.0Q3 656 13.0 670.0Q23 684 41 684Q66 684 89 654V699Q89 705 93.5 709.5Q98 714 104.0 714.0Q110 714 114.5 709.5Q119 705 119 699V632Q157 685 192 691Q192 691 195.5 694.5Q199 698 205.5 706.0Q212 714 219.0 724.0Q226 734 234.5 750.5Q243 767 250 785Q247 788 235.5 801.5Q224 815 218.5 822.0Q213 829 206.5 841.5Q200 854 198.0 866.0Q196 878 196 884Q196 931 230.0 965.5Q264 1000 316 1000Q366 1000 399.0 966.5Q432 933 443 896Q445 884 445 879Q445 858 435.0 840.5Q425 823 415.0 812.5Q405 802 405 798Q405 798 422.0 773.0Q439 748 439 734Q439 733 438.5 725.0Q438 717 438 712Q438 691 450.0 621.0Q462 551 464 521L486 313V301Q493 244 493 210V200L492 74Q490 56 490 43V35Q490 19 486.0 11.0Q482 3 477.5 1.5Q473 0 464 0H376Q354 0 351 19Q351 38 438 59L425 281H327Q325 245 296 75V71Q296 66 295.0 56.5Q294 47 294 44V36Q294 13 287.0 6.5Q280 0 255 0H183Q172 0 165.0 4.0Q158 8 156.5 12.0Q155 16 155 19Q155 39 243 60Q260 232 266 309L278 481Q278 546 272 581Q266 613 256.5 624.5Q247 636 223 650Q200 640 150.5 587.5Q101 535 101 526Q101 523 103.0 513.0Q105 503 110.5 471.0Q116 439 123 398Q123 393 125.5 390.0Q128 387 129.5 385.5Q131 384 135.5 382.5Q140 381 141 381Q147 381 162.0 363.5Q177 346 177 334Q177 327 168 327Q167 327 157.5 338.5Q148 350 142 350Q139 350 139 342Q139 330 148.5 307.5Q158 285 158 284Q158 280 153.0 275.0Q148 270 140 270H137Q131 271 125.0 279.0Q119 287 116.0 297.5Q113 308 110.5 318.0Q108 328 106 336L105 345Q105 363 95 386L84 460L60 398Q58 392 58 390Q58 386 67.5 373.0Q77 360 77 336Q77 313 68 313Q61 313 61 322ZM300 882Q300 877 303.0 867.0Q306 857 306 842Q306 822 296 812V808Q291 797 281.5 760.5Q272 724 252 699Q293 650 302.0 625.0Q311 600 318 526L420 533Q420 534 409.0 621.0Q398 708 398 711Q398 728 400 734Q400 749 386.0 763.5Q372 778 372 788V795Q372 810 392.0 833.0Q412 856 412 879Q412 911 389 936Q384 936 375.0 935.5Q366 935 362 934Q355 932 344.5 928.0Q334 924 317.0 910.5Q300 897 300 882ZM435 503 309 496 306 311H449ZM365 876Q348 876 348 893Q348 901 353.0 906.0Q358 911 362 912H367Q378 912 383.5 905.5Q389 899 389 893Q389 886 381.5 881.0Q374 876 365 876ZM277 853Q276 859 274.0 867.5Q272 876 272 881Q272 908 297.5 929.5Q323 951 350 960Q336 967 317 967Q282 967 255.0 943.0Q228 919 228 884Q228 858 261 822Q263 824 267.0 827.0Q271 830 273.0 832.0Q275 834 276.5 837.5Q278 841 278 846Q278 847 277.5 849.5Q277 852 277 853Z" fill="currentColor"/>
  </g>
</svg>