<svg xmlns="http://www.w3.org/2000/svg" viewBox="0 0 970 1000">
  <g transform="scale(1,-1) translate(0,-1000)">
    <path d="M889 69Q804 69 653.5 34.5Q503 0 419 0Q386 0 326 5Q296 8 253.0 18.0Q210 28 188 31Q159 35 100.0 39.0Q41 43 9 50Q0 53 0 69Q0 81 7 81Q144 71 186 66Q190 66 261.0 50.5Q332 35 404 35Q442 35 494 41Q567 50 662.5 73.0Q758 96 862 105Q888 108 905 108H919Q920 107 922 107Q926 107 931.5 107.5Q937 108 940 108Q965 108 965 89Q965 69 909 69ZM269 320Q261 316 249.5 311.5Q238 307 229.0 302.5Q220 298 211 292Q195 281 163.0 248.0Q131 215 117 203Q104 191 85.5 175.5Q67 160 61 155L131 150Q142 149 178.0 147.5Q214 146 238 143Q249 142 264.5 137.5Q280 133 286 132Q254 173 253 176Q236 210 234 235V240Q234 253 247 285Q248 287 269 320ZM378 328Q349 328 328.0 319.0Q307 310 297.0 298.5Q287 287 281.5 272.0Q276 257 275.0 250.0Q274 243 274 238Q274 195 316 156Q339 136 392 136Q433 136 463 166Q472 176 476.5 182.5Q481 189 485.0 204.5Q489 220 489 243Q489 264 482 285Q476 304 449.0 316.0Q422 328 378 328ZM855 172Q801 189 603 277Q590 283 529 304Q530 298 533.5 278.5Q537 259 537 247V238Q535 210 520 174Q517 163 477 123Q601 136 692.0 151.5Q783 167 855 172ZM387 71Q349 71 271.0 90.5Q193 110 126 110Q121 110 113.0 109.5Q105 109 101 109Q49 109 11 118Q3 119 3 131Q3 138 7 148Q15 161 23.0 170.0Q31 179 45.5 192.0Q60 205 66 210Q79 223 101.5 247.0Q124 271 141.5 287.0Q159 303 182 319Q206 335 221.0 343.5Q236 352 264.5 359.5Q293 367 331 369Q326 402 319.0 416.5Q312 431 290 457Q261 491 212 500Q200 502 200 515Q200 521 204.5 525.5Q209 530 215 530Q219 530 232.0 527.0Q245 524 270.5 510.5Q296 497 313 477Q337 448 346 430Q355 410 362 370H367H383Q387 402 399 430Q407 445 433 477Q450 497 475.0 510.5Q500 524 513.0 527.0Q526 530 530 530Q536 530 540.5 525.5Q545 521 545 515Q545 502 533 500Q484 491 455 457Q433 431 426.0 416.5Q419 402 414 368Q425 367 476 358Q502 353 527.5 345.5Q553 338 567.0 332.5Q581 327 613.0 314.0Q645 301 659 295Q697 280 755.0 253.0Q813 226 851 211Q868 204 904.5 195.0Q941 186 963 174Q970 169 970 159Q970 150 964 149Q924 139 863.0 136.0Q802 133 772 128Q732 122 672.5 107.5Q613 93 576 87Q576 87 562.5 85.5Q549 84 527.5 81.5Q506 79 482.0 76.5Q458 74 432.0 72.5Q406 71 387 71Z" fill="currentColor"/>
  </g>
</svg>