<svg xmlns="http://www.w3.org/2000/svg" viewBox="-40 -40 769 1080">
  <g transform="scale(1,-1) translate(0,-1000)">
    <path d="M334 717Q354 717 354 704Q354 689 336 689Q329 689 323.5 693.5Q318 698 318 705Q318 717 334 717ZM411 749Q424 732 428.5 708.0Q433 684 433 611Q433 572 430 512L505 523L481 650Q471 695 462.0 714.0Q453 733 430 756Q412 773 380 773Q365 773 355 768Q357 767 382.5 760.5Q408 754 411 749ZM298 539Q301 532 318.0 506.0Q335 480 342.5 460.0Q350 440 350 416Q350 400 348.5 386.0Q347 372 345.5 364.5Q344 357 340.5 343.5Q337 330 335 322Q322 261 320.0 217.5Q318 174 314 143L311 122L475 152V155Q475 188 465.5 228.0Q456 268 451 304Q447 334 445.0 361.5Q443 389 441.5 421.0Q440 453 438 476L417 472H411Q400 472 399 483L406 611Q406 659 403.5 685.5Q401 712 398.5 718.5Q396 725 390 733Q382 737 326 750Q315 745 308.5 727.5Q302 710 302 699Q304 694 304 694Q310 684 329.5 678.0Q349 672 361 657Q368 648 371.0 639.5Q374 631 374.5 619.5Q375 608 377 601Q377 592 371.5 587.0Q366 582 332 559ZM348 872Q278 881 278 915Q278 928 294.5 937.0Q311 946 328 946Q344 946 355 924V922Q355 915 346.5 908.5Q338 902 330 902Q321 902 321 911Q321 914 323.5 916.0Q326 918 331 920L336 922Q336 922 332 928Q331 928 329.5 928.5Q328 929 326 929Q317 929 306.0 924.0Q295 919 295 915V914L296 913Q299 908 303.5 904.5Q308 901 312.0 899.0Q316 897 322.5 895.0Q329 893 332.0 892.5Q335 892 344.0 891.0Q353 890 356 889Q365 935 370.0 944.5Q375 954 396 961Q413 969 415.5 976.5Q418 984 425 986Q437 990 439 990Q449 990 449 980Q449 974 447 970Q464 1000 475 1000Q482 1000 489.0 996.5Q496 993 496 987V986L469 776Q469 772 467 768Q490 747 499.0 724.0Q508 701 515 659L544 500V496Q544 495 532 492L584 419Q594 402 609.0 340.0Q624 278 626 264Q643 258 649 228L648 225Q648 206 641.0 186.5Q634 167 628.5 158.5Q623 150 621 148L682 150Q689 149 687.0 137.0Q685 125 681 125L624 126L627 31Q622 13 613 13Q601 13 598 35V126L544 125Q542 125 540.0 131.0Q538 137 539.0 143.0Q540 149 545 149L600 148Q573 187 573 220V229Q581 249 581 250Q581 253 581.0 256.5Q581 260 581.0 263.0Q581 266 581 268V279Q585 289 585 319L548 407L489 484Q475 482 474 481Q476 458 477.5 425.0Q479 392 481.0 365.5Q483 339 487 309Q492 275 502.0 233.0Q512 191 512 155Q512 140 505 89Q506 86 506 62Q506 60 505.5 55.0Q505 50 505 38V31Q505 11 499.5 5.5Q494 0 482 0H398Q397 1 391.0 6.0Q385 11 384 17Q384 21 409.0 32.0Q434 43 467 53Q467 56 466.5 62.5Q466 69 466 71Q466 78 473 124L352 99Q351 100 350.0 100.0Q349 100 307 94Q306 85 304.5 75.0Q303 65 301.0 53.0Q299 41 298 34V31Q298 11 292.0 5.5Q286 0 264 0H202Q177 0 177 17Q177 30 267 60Q266 62 266 65Q266 81 277 148Q283 184 284.0 226.5Q285 269 298 329Q301 344 305.5 362.5Q310 381 312.0 391.5Q314 402 314 416Q314 445 288 490L246 383Q234 360 228 355Q193 329 143.0 300.5Q93 272 80 257V100L112 27Q113 25 113 21Q113 15 108.5 10.5Q104 6 98 6Q88 6 84 15L65 59L46 15Q42 6 32 6Q26 6 21.5 10.5Q17 15 17 21Q17 24 50 100V254Q43 247 39 247Q30 252 30 263Q34 282 50 293V709Q38 699 34 691Q29 681 25.0 671.0Q21 661 17.0 647.0Q13 633 11 626Q10 636 5.0 658.0Q0 680 0 692Q0 706 5.0 716.0Q10 726 18.0 736.0Q26 746 30 754Q47 793 50.5 805.0Q54 817 58 849Q61 843 68.5 834.5Q76 826 80.0 818.5Q84 811 84 802V796Q84 768 69 735Q80 731 80 721V303Q99 307 100 308Q116 316 133.0 330.0Q150 344 171.5 363.5Q193 383 208 395L254 537V539Q254 551 265 558Q299 578 339 603Q338 609 338.0 615.5Q338 622 337.0 626.0Q336 630 332 635Q326 642 304.0 649.5Q282 657 273 674Q266 688 266 696Q266 713 279.0 744.0Q292 775 317 788Q314 801 314 831Q314 843 315.5 848.5Q317 854 324.5 860.0Q332 866 348 872ZM591 215Q591 202 596.0 189.0Q601 176 606 169L611 162Q624 186 627.0 193.5Q630 201 630 217Q631 228 625 238Q620 215 600 211Q595 211 591 215ZM432 942Q432 945 430.5 951.5Q429 958 429 962Q429 963 429.5 965.0Q430 967 430 968Q420 953 411 949Q408 948 402.5 947.0Q397 946 394 945Q383 941 372 885Q373 884 376.0 883.0Q379 882 380 882Q385 884 396.5 886.5Q408 889 414 890Q416 897 420.0 907.5Q424 918 426.5 925.5Q429 933 432 939ZM340 803Q353 807 377 807Q426 807 452 785L474 975Q459 952 449.5 926.5Q440 901 435.0 888.0Q430 875 422 872Q417 870 402.5 867.0Q388 864 371.5 859.0Q355 854 339 846V844Q339 843 338.0 836.0Q337 829 337 824Q337 810 340 803Z" fill="currentColor"/>
  </g>
</svg>