<svg xmlns="http://www.w3.org/2000/svg" viewBox="0 0 766 1000">
  <g transform="scale(1,-1) translate(0,-1000)">
    <path d="M490 691Q490 677 500.5 669.0Q511 661 524.0 658.5Q537 656 547.5 644.0Q558 632 558 611Q558 593 543 564Q532 543 519.5 533.0Q507 523 500 513Q506 504 521 474Q566 510 568 512L569 647Q569 651 581.5 674.5Q594 698 594 713Q594 714 589.5 715.5Q585 717 573.0 719.0Q561 721 546 721Q541 721 534.5 721.0Q528 721 522.5 720.5Q517 720 512.0 719.5Q507 719 504 719H501H498H497Q490 703 490 691ZM537 821Q514 842 495.0 866.5Q476 891 468.0 905.5Q460 920 460 923Q460 936 470 936Q474 936 479.0 929.5Q484 923 494.0 909.0Q504 895 514 883Q520 915 551 930V962Q551 972 561 972H593V990Q593 1000 603.0 1000.0Q613 1000 613 990V930Q646 914 652 883Q662 894 671.5 908.5Q681 923 686.0 929.5Q691 936 695 936Q705 936 705 923Q705 920 696.5 904.5Q688 889 669.5 865.0Q651 841 629 822Q634 822 634 816V811Q633 780 633 780Q648 770 651 752Q666 677 666 611V594Q666 568 666.5 548.0Q667 528 668 518V509Q668 499 657 497Q656 497 654.0 497.5Q652 498 648.0 498.0Q644 498 639 498V461Q642 461 648.5 463.5Q655 466 662 466Q688 466 699.0 432.0Q710 398 710 367Q710 321 685 321Q680 321 676 324L679 66H754Q766 66 766 54V13Q766 0 754 0H66Q54 0 54 13V54Q54 66 66 66H149Q153 89 168.0 99.5Q183 110 201.0 117.0Q219 124 225 136Q240 165 240 191Q240 204 235.5 230.0Q231 256 231 271Q231 297 240 323Q250 354 290.0 360.5Q330 367 394.0 367.5Q458 368 500 383Q500 384 499.0 396.0Q498 408 498 409Q471 382 442 376Q436 375 412 375Q393 375 353.0 376.5Q313 378 305 378Q299 372 291 372Q289 372 279 374Q256 344 199 344Q189 344 184 345L215 293Q215 292 216 290Q216 281 198 281Q194 281 194 282L166 331L85 281Q77 279 75 279Q62 279 62.0 289.0Q62 299 74 308L153 353L125 400V401Q125 404 130.5 409.0Q136 414 141 414Q144 414 146 411L173 363Q186 391 194.0 400.0Q202 409 230 427Q242 430 253 430Q274 430 283 407H288Q300 407 306 402Q326 402 353.5 401.0Q381 400 390 400Q410 400 428 403Q474 432 497 452Q397 437 356 437H355Q350 437 340.5 447.5Q331 458 319.5 474.0Q308 490 298.0 505.0Q288 520 279.0 535.5Q270 551 268 553Q267 561 250.0 572.5Q233 584 233 586Q233 587 235 587Q238 587 247.0 585.0Q256 583 259 583Q261 583 261 584Q261 588 252 602Q249 592 232 590L140 591L142 536Q142 531 127 531Q118 531 118 537L119 593Q80 566 48 566H38Q23 571 17.5 574.0Q12 577 6.0 584.0Q0 591 0 603Q2 615 4.0 620.0Q6 625 14.5 631.5Q23 638 39 641H42Q61 641 80.0 634.0Q99 627 107.5 621.5Q116 616 118 614L117 674Q117 680 125 680Q141 680 141 673V617L236 619Q237 619 240.0 618.5Q243 618 244 617Q244 618 244 618L243 620Q243 624 249.0 624.0Q255 624 275 618Q279 616 286.0 588.5Q293 561 296 557Q343 482 367 471Q373 469 379 469Q395 469 437.0 479.0Q479 489 487 489Q474 504 474.0 512.0Q474 520 480 528Q490 542 500.5 549.0Q511 556 521 575Q533 599 533 611Q533 625 526.0 630.0Q519 635 505.5 639.0Q492 643 483 652Q465 670 465 692Q465 721 486 747Q476 745 473 745Q471 745 467.5 744.5Q464 744 462 744Q451 744 451 754Q451 758 454.0 764.0Q457 770 457 774Q457 784 444 784H441Q424 784 424 800Q426 812 439 812H441Q465 810 479 803Q480 803 485.0 788.0Q490 773 500 773Q500 773 501 772H502H503H508H513Q516 774 530 781Q530 785 530.5 799.0Q531 813 531 814Q531 817 532.5 819.0Q534 821 536 821ZM79 42V25H741V42ZM304 267Q309 284 325.5 295.0Q342 306 351 306Q351 306 386.5 307.0Q422 308 462.0 308.5Q502 309 514 309Q548 309 566.5 315.0Q585 321 588.5 326.5Q592 332 595 342Q596 344 599.5 365.5Q603 387 606.5 420.0Q610 453 610 475Q610 484 608 498H591Q591 497 591.5 495.0Q592 493 592 492Q592 486 588 483Q578 476 567.5 467.0Q557 458 543.5 445.5Q530 433 522 426Q522 422 524.5 401.0Q527 380 527 372Q527 366 524.0 363.5Q521 361 510 357Q463 340 397 340H377Q329 340 304.0 335.5Q279 331 274.0 327.0Q269 323 266 314Q257 290 257 264Q257 249 261.0 223.5Q265 198 265 185Q265 155 249 123Q238 102 212.0 90.0Q186 78 182 75H274Q284 190 304 267ZM332 262Q332 261 328.0 256.0Q324 251 323.5 248.5Q323 246 320.0 233.0Q317 220 314.5 201.5Q312 183 308.5 149.0Q305 115 300 66H329ZM664 372Q668 372 670.0 369.5Q672 367 682 353Q684 363 684 367Q684 390 675.5 414.5Q667 439 661 439Q661 439 657.0 438.0Q653 437 648.0 436.0Q643 435 640 435H638L637 423Q633 363 618.0 324.5Q603 286 580 282Q551 278 469 278H355Q356 276 356 271V74H483V200Q483 205 487.5 209.0Q492 213 497 213H650L649 358Q649 363 653.0 367.5Q657 372 662 372ZM651 187H511V74H652ZM510 699Q510 711 527.0 711.0Q544 711 544 699Q544 686 527.0 686.0Q510 686 510 699ZM641 594V612Q641 641 639.5 662.5Q638 684 637.0 692.5Q636 701 632.0 720.0Q628 739 627 747Q624 767 579 767Q549 767 519 745Q539 747 546 747Q579 747 606 735Q619 730 619 714Q619 699 613.5 683.5Q608 668 601.0 657.0Q594 646 594 645L592 523L643 522Q641 574 641 594ZM625 870Q625 888 611.5 899.0Q598 910 580 910Q563 910 550.5 898.5Q538 887 538.0 870.0Q538 853 551.0 841.0Q564 829 581 829Q600 829 612.5 841.0Q625 853 625 870ZM265 396Q265 401 261.0 407.0Q257 413 250 413Q244 413 228 405Q216 398 211.5 393.0Q207 388 191 363Q190 360 190 360H192H196H204Q226 360 243.0 368.5Q260 377 264 386V391Q264 394 265 396ZM105 603Q81 617 73.0 620.0Q65 623 49 623H47Q35 623 27.5 616.5Q20 610 20 603V602Q20 584 46 584Q62 584 81.0 590.5Q100 597 105 603ZM571 936Q572 936 576.0 936.5Q580 937 581 937Q589 937 593 936V952H571Z" fill="currentColor"/>
  </g>
</svg>