<svg xmlns="http://www.w3.org/2000/svg" viewBox="0 0 998 1000">
  <g transform="scale(1,-1) translate(0,-1000)">
    <path d="M162 236H276L285 282H153ZM952 441Q952 377 919 322H924Q932 322 938.0 316.0Q944 310 944.0 302.0Q944 294 938.0 288.0Q932 282 924 282H754V20Q754 12 748.0 6.0Q742 0 734.0 0.0Q726 0 720.0 6.0Q714 12 714 20V169L446 282H315Q306 233 303 218Q301 206 288 206H150Q137 206 135 218Q132 233 123 282Q99 283 81.0 287.5Q63 292 42.5 303.5Q22 315 11.0 341.0Q0 367 0 406Q0 431 5.0 459.0Q10 487 29.5 516.0Q49 545 80 545Q109 545 130.0 526.5Q151 508 151 472Q151 448 141.5 419.5Q132 391 132 377Q132 322 169 322H318Q320 331 333.0 340.5Q346 350 350 358Q356 369 362.0 407.5Q368 446 371.0 476.5Q374 507 374 511Q374 534 370 555Q368 563 365.0 583.0Q362 603 359.5 610.5Q357 618 352.0 632.0Q347 646 339.0 655.5Q331 665 319 674L278 676L195 675Q180 676 155 698Q154 699 153 700Q145 705 145 715Q145 732 166 767Q173 779 206.0 803.0Q239 827 239 849Q239 865 229.0 881.5Q219 898 182 950Q179 954 169.0 965.5Q159 977 157 987V988Q157 992 161.0 995.5Q165 999 169 999Q170 999 171 998H172Q191 989 214.5 958.0Q238 927 259.0 902.0Q280 877 298 877Q313 877 325 889Q365 931 376 954Q380 961 384.0 966.5Q388 972 396.0 980.0Q404 988 408 993Q413 1000 425 1000Q435 1000 435 993Q435 982 427.0 970.5Q419 959 402.5 934.0Q386 909 371 873Q371 846 390 841H394Q401 841 412.5 849.0Q424 857 430 857Q442 857 442 847Q442 844 440.0 836.0Q438 828 438 824Q438 819 442 815Q485 792 549 777Q553 775 560.0 775.5Q567 776 572 775L910 773Q947 772 980 737Q998 717 998 679V426Q988 408 981.0 408.0Q974 408 967 426V443Q967 468 968.0 507.0Q969 546 969 565Q969 610 965 655Q963 661 956 661Q932 661 929 568V564Q929 543 940.5 500.0Q952 457 952 441ZM91 378Q91 398 101.0 426.0Q111 454 111 471Q111 505 80 505Q63 505 51.5 473.5Q40 442 40 408Q40 360 57.5 343.0Q75 326 104 323Q91 349 91 378ZM883 510Q899 510 899 537Q899 543 896.5 555.5Q894 568 894 576Q894 612 920 679Q923 687 935.0 700.0Q947 713 947 717Q947 729 934.0 737.0Q921 745 905 745L569 746L538 749Q512 752 480.5 767.5Q449 783 434 787Q431 784 426.0 778.0Q421 772 416.5 768.5Q412 765 406 764Q404 763 400 763Q384 763 384 774Q384 783 397.0 795.5Q410 808 414 816V817Q414 825 406 825Q404 825 404 824Q393 821 358 798Q354 799 354 802Q354 803 357.0 810.0Q360 817 360 822Q360 832 347 842H346Q338 842 325.5 844.0Q313 846 307 846Q299 846 286 841Q278 838 272.5 825.0Q267 812 263 808Q253 798 233.0 784.5Q213 771 202 759Q184 736 184 730Q184 723 197.5 717.5Q211 712 227 712Q232 712 244.0 713.0Q256 714 262 714Q264 714 269.0 713.5Q274 713 276 713Q279 712 287 712Q291 712 298.0 712.5Q305 713 308 713Q331 713 350.5 695.5Q370 678 378 657Q391 621 395 602Q396 599 397.5 582.0Q399 565 402.0 555.5Q405 546 409 546Q412 546 415 548Q427 560 429.0 570.5Q431 581 434.0 603.5Q437 626 448 654Q460 679 466 685Q468 687 473.0 691.5Q478 696 480.0 697.5Q482 699 486.5 701.5Q491 704 494.5 705.0Q498 706 503 706H506Q510 706 510.0 703.0Q510 700 492.0 669.5Q474 639 469 601Q468 596 465.0 583.0Q462 570 462 564Q462 537 489 537Q493 537 501.0 537.5Q509 538 514 538H547Q562 538 589.0 539.0Q616 540 633 540Q635 540 639.5 539.5Q644 539 647 539Q652 539 661.5 533.5Q671 528 675.0 528.0Q679 528 686.5 533.5Q694 539 699 540Q718 541 734.5 541.5Q751 542 757.5 542.0Q764 542 771.5 542.5Q779 543 785.0 544.5Q791 546 802 550Q790 585 774.5 616.0Q759 647 751.0 662.0Q743 677 743 682Q743 688 750 688Q754 688 768 672Q774 665 788.5 643.0Q803 621 815.0 601.5Q827 582 828 581Q834 572 840.5 559.0Q847 546 853.5 535.5Q860 525 869 516Q875 510 883 510ZM306 769Q306 751 280 751Q271 751 264.5 756.0Q258 761 258.0 770.0Q258 779 264.5 786.0Q271 793 281.0 793.0Q291 793 298.5 786.0Q306 779 306 769ZM714 282H524L714 202ZM437 486Q423 486 423 430V408Q423 378 409 358Q406 353 397.5 340.5Q389 328 384 322H494Q494 326 499.0 338.5Q504 351 504 354V359Q504 395 488.5 436.0Q473 477 440 486ZM548 322H739V323L760 351Q766 364 775.5 408.5Q785 453 785 477Q785 502 771 504H757Q750 504 732.0 503.0Q714 502 704 502Q700 500 695.0 495.0Q690 490 685.5 488.0Q681 486 676 486Q670 486 665.0 488.0Q660 490 655.0 494.5Q650 499 646 501L519 502Q540 452 541 445Q554 386 554 366Q554 338 548 322ZM787 322H881Q882 327 888.5 337.0Q895 347 900.0 367.0Q905 387 905 420Q905 437 896.5 451.0Q888 465 873 465Q868 465 863.0 463.5Q858 462 855.0 460.0Q852 458 848.0 453.0Q844 448 842.5 445.5Q841 443 836.5 436.0Q832 429 831 427Q823 414 814.5 384.5Q806 355 787 322Z" fill="currentColor"/>
  </g>
</svg>