<svg xmlns="http://www.w3.org/2000/svg" viewBox="0 0 984 1000">
  <g transform="scale(1,-1) translate(0,-1000)">
    <path d="M878 108Q878 55 855 40Q888 42 901 46Q902 57 902 76Q902 93 899.0 127.0Q896 161 896 183V191Q896 310 916 378Q905 374 856 364Q865 232 865 209Q866 194 872.0 161.5Q878 129 878 108ZM825 963Q846 960 867.0 945.0Q888 930 888 905Q888 903 887.5 897.5Q887 892 887 889Q887 877 902 868Q918 895 918 911Q918 937 900.5 955.5Q883 974 856 974Q838 974 825 963ZM823 924Q835 924 835 907Q835 902 831.5 898.5Q828 895 823 895Q807 895 807 907Q807 924 823 924ZM834 805Q824 784 819 768Q820 722 834.5 655.0Q849 588 852 549Q852 543 854.5 529.5Q857 516 857 508Q857 483 836 469Q806 448 778.0 436.5Q750 425 715.5 414.0Q681 403 656 392Q648 384 648 382Q643 359 635.0 302.0Q627 245 618 216Q618 217 618.5 218.5Q619 220 620.5 223.5Q622 227 625.0 233.0Q628 239 634.0 250.5Q640 262 648 278Q663 334 689 369Q701 385 716 387Q814 397 872 407Q901 412 922 424Q950 438 950 449V462Q950 481 939.0 526.5Q928 572 928 617Q928 633 931.0 659.0Q934 685 935 705Q935 713 936.5 725.5Q938 738 938 742Q938 752 930 763Q920 776 912.5 789.0Q905 802 902 808L899 815Q897 820 897.0 820.0Q897 820 880 851Q880 852 877.0 856.0Q874 860 872.5 863.5Q871 867 869.5 874.5Q868 882 868 892V905Q868 917 856.0 926.0Q844 935 832 938L820 941Q814 941 802 938Q792 920 792 903Q792 876 813.5 857.5Q835 839 835 814Q835 812 834.5 809.0Q834 806 834 805ZM448 62V22H488V62ZM448 202V162H488V202ZM448 352V312H488V352ZM448 502V462H488V502ZM448 653V613H488V653ZM306 883V843H346V883ZM448 803V763H488V803ZM20 62V22H60V62ZM511 780Q511 780 510.5 781.5Q510 783 510 784Q510 801 526 801Q532 801 540.5 796.5Q549 792 554.5 787.0Q560 782 567.5 775.0Q575 768 576 767Q596 752 608 741L714 654L786 774Q790 787 798.5 796.0Q807 805 807 812Q807 812 807.5 814.0Q808 816 808 817Q808 827 802.0 834.0Q796 841 789.0 846.0Q782 851 776.0 865.5Q770 880 770 903Q770 940 797.0 970.0Q824 1000 856 1000Q894 1000 916.5 972.5Q939 945 939 911Q939 901 936.0 890.5Q933 880 930.5 873.5Q928 867 922.0 855.0Q916 843 914 840Q928 811 943.0 799.0Q958 787 961 782Q972 765 972 740Q972 734 971.0 722.0Q970 710 970 704Q969 682 966.0 656.0Q963 630 963 617Q963 578 973.5 533.5Q984 489 984 462Q984 414 951 396Q950 383 950 368Q930 263 930 183Q930 163 933.5 129.5Q937 96 937 76Q937 50 935.5 39.5Q934 29 925.0 17.5Q916 6 896.0 3.0Q876 0 840 0Q840 0 811.5 0.5Q783 1 781 1Q767 1 755 0Q751 16 751 22Q751 44 764.5 55.5Q778 67 794.5 68.0Q811 69 825.5 71.5Q840 74 841 79Q844 96 844 109Q844 125 838.0 155.5Q832 186 831 206Q831 218 822 359Q771 352 720 347Q717 346 709.5 333.5Q702 321 693.5 301.0Q685 281 681 264Q681 257 647 193Q647 192 643.5 174.5Q640 157 633 149Q621 135 561 135Q535 135 507 142H428V82H508V1H0V82H80V142H0V222H80V292H0V372H80V442H0V522H80V593H0V673H80V743H0V823H140V903H220V823H286V903H366V823H508V743H428V673H508V593H428V522H508V517Q512 519 523 519Q573 519 587 516L686 570L704 586L584 712Q569 721 553.0 729.5Q537 738 532.0 741.0Q527 744 521.5 750.0Q516 756 514.5 761.5Q513 767 511 780ZM20 202V162H60V202ZM20 352V312H60V352ZM20 502V462H60V502ZM20 653V613H60V653ZM160 883V843H200V883ZM398 793H110V32H398ZM20 803V763H60V803ZM614 205Q606 189 594.5 185.0Q583 181 558 181H552Q537 181 534 177Q552 175 561 175Q576 175 608 179Q613 202 614 205ZM508 480V442H428V372H508V292H428V222H508V203Q522 221 551 221H557Q576 221 583 223Q593 257 601.0 311.0Q609 365 615 392Q622 419 650.5 432.0Q679 445 729.5 461.0Q780 477 818 503Q823 507 823 508Q823 510 820.5 523.0Q818 536 817 545Q811 613 796 687Q775 621 723 531Q719 522 708 518L596 468Q596 468 593.0 467.0Q590 466 586.0 464.5Q582 463 576.5 461.5Q571 460 564.0 459.0Q557 458 551 458Q521 458 508 480Z" fill="currentColor"/>
  </g>
</svg>