<svg xmlns="http://www.w3.org/2000/svg" viewBox="-39.9 403.1 1077.8 636.8">
  <g transform="scale(1,-1) translate(0,-1000)">
    <path d="M33 94Q33 94 31 94Q18 94 9.0 102.5Q0 111 0 125Q0 141 11.0 148.5Q22 156 32 156Q44 156 53.5 147.5Q63 139 63 127Q63 96 33 94ZM53 188H51Q38 188 29.0 196.5Q20 205 20 219Q20 235 31.0 242.5Q42 250 52 250Q64 250 73.5 241.5Q83 233 83 221Q83 190 53 188ZM76 277H74Q61 277 52.0 285.5Q43 294 43 308Q43 324 54.0 331.5Q65 339 75 339Q87 339 96.5 330.5Q106 322 106 310Q106 279 76 277ZM257 282H255Q242 282 233.0 290.5Q224 299 224 313Q224 329 235.0 336.5Q246 344 256 344Q268 344 277.5 335.5Q287 327 287 315Q287 284 257 282ZM309 96H307Q294 96 285.0 104.5Q276 113 276 127Q276 143 287.0 150.5Q298 158 308 158Q320 158 329.5 149.5Q339 141 339 129Q339 98 309 96ZM284 187H282Q269 187 260.0 195.5Q251 204 251 218Q251 234 262.0 241.5Q273 249 283 249Q295 249 304.5 240.5Q314 232 314 220Q314 189 284 187ZM172 92H170Q157 92 148.0 100.5Q139 109 139 123Q139 139 150.0 146.5Q161 154 171 154Q183 154 192.5 145.5Q202 137 202 125Q202 94 172 92ZM172 184H170Q157 184 148.0 192.5Q139 201 139 215Q139 231 150.0 238.5Q161 246 171 246Q183 246 192.5 237.5Q202 229 202 217Q202 186 172 184ZM171 268H169Q156 268 147.0 276.5Q138 285 138 299Q138 315 149.0 322.5Q160 330 170 330Q182 330 191.5 321.5Q201 313 201 301Q201 270 171 268ZM117.5 504.0Q95 482 95.0 451.0Q95 420 117.0 399.0Q139 378 170.0 378.0Q201 378 223.0 399.5Q245 421 245.0 452.0Q245 483 223.5 504.5Q202 526 171.0 526.0Q140 526 117.5 504.0ZM171 557Q214 557 245.0 526.0Q276 495 276.0 452.0Q276 409 245.0 378.0Q214 347 170.0 347.0Q126 347 95.0 377.5Q64 408 64 451Q64 495 95.5 526.0Q127 557 171 557ZM180 91Q199 91 243.5 83.0Q288 75 312 75H323Q334 76 349.0 80.0Q364 84 375 85Q402 88 474 91H852V278H998V18H852Q706 19 469 19Q393 19 349 18Q307 18 241.5 9.0Q176 0 148 0Q144 0 120.0 7.5Q96 15 68.5 32.5Q41 50 41 70Q41 81 61 81Q75 81 97.0 60.5Q119 40 134 40Q140 40 150.5 39.0Q161 38 166 38Q177 38 186.5 40.5Q196 43 201.0 46.0Q206 49 206 51Q206 56 181 56H178H169Q151 56 151 72Q151 91 180 91ZM968 250H882V62H967Z" fill="currentColor"/>
  </g>
</svg>