<svg xmlns="http://www.w3.org/2000/svg" viewBox="-39.8 -39.8 1075.7 662.7">
  <g transform="scale(1,-1) translate(0,-1000)">
    <path d="M299 331Q315 334 335.0 352.5Q355 371 365 371Q381 371 381 355Q381 346 374 342Q368 338 354 326Q321 299 297 299Q285 299 272.5 308.0Q260 317 258 317Q252 317 240.5 306.0Q229 295 222 291Q239 287 248.0 276.0Q257 265 266 262Q315 244 422 244Q450 244 501.0 240.5Q552 237 581 237Q613 237 631 236Q643 235 655.0 231.0Q667 227 674.0 222.5Q681 218 694.0 209.5Q707 201 715 197Q727 190 743.5 176.5Q760 163 764 160L802 137Q832 127 870.5 109.0Q909 91 933 82Q954 73 975.0 58.0Q996 43 996 31Q996 11 978 11Q968 10 935.0 5.0Q902 0 879 0Q850 0 803.5 14.5Q757 29 749 31Q736 34 718.0 43.0Q700 52 692 53Q685 60 672 65L657 73H656L644 45Q634 9 611 0Q489 2 446 2H431Q423 2 417 13Q419 32 426 32Q452 27 452 27L519 28Q516 40 516 41L423 42H421Q394 46 377 63V46Q376 32 370.0 21.5Q364 11 359.0 7.5Q354 4 351 3H169Q154 8 154 17V23Q155 28 156.0 30.0Q157 32 160.5 33.5Q164 35 170 35Q179 35 203 32Q207 32 214.5 31.0Q222 30 226 30Q233 30 249 34Q254 41 254 46Q254 50 248.5 63.0Q243 76 228.5 96.5Q214 117 194 130Q170 145 139.0 160.0Q108 175 88 188Q75 197 52.0 205.5Q29 214 14 226L5 238Q0 249 0 272V273Q0 286 8.0 294.5Q16 303 26 303Q34 303 42.0 298.0Q50 293 51.0 293.0Q52 293 55.0 292.5Q58 292 60.0 292.0Q62 292 65.0 292.5Q68 293 69 293Q86 293 117.0 294.5Q148 296 165 296H166Q163 298 159.5 301.0Q156 304 155 305Q143 317 136 317Q134 317 121.0 308.0Q108 299 96 299Q72 299 40 326Q26 338 20 342Q13 346 13 355Q13 371 29 371Q37 371 57.0 353.0Q77 335 95 331H96Q98 331 111.0 340.0Q124 349 136 349Q150 349 163 340Q150 351 141 353Q110 357 110 389V396Q110 403 112.5 411.5Q115 420 122.0 446.0Q129 472 137 510Q109 523 109 551Q109 566 120.5 574.5Q132 583 145 583Q182 583 195 554Q208 583 245 583Q258 583 269.5 574.5Q281 566 281 551Q281 521 253 510Q254 506 257.0 492.0Q260 478 262 466L265 455Q266 449 273.0 427.5Q280 406 280 396V389Q280 358 249 353Q239 351 218 332V329Q234 345 252 348Q253 348 255.0 348.5Q257 349 258 349Q270 349 283.0 340.0Q296 331 298 331ZM136 550Q136 539 151.0 533.0Q166 527 166 518Q166 517 152 451Q152 447 144.0 424.5Q136 402 136 393V391Q136 389 138 382Q139 381 146.5 380.0Q154 379 162.5 375.0Q171 371 180 362Q180 366 180.5 380.5Q181 395 181 400Q181 400 181.0 402.5Q181 405 181.5 409.0Q182 413 182.0 418.5Q182 424 182.0 431.5Q182 439 182 446Q182 531 165 551Q160 556 146 556Q136 556 136 550ZM224 518Q224 527 239.0 533.0Q254 539 254 550Q254 556 243 556Q230 556 225 551Q225 551 223.5 549.0Q222 547 220.5 544.5Q219 542 217.5 537.5Q216 533 214.5 528.5Q213 524 211.5 517.0Q210 510 210 502Q210 499 209.5 497.5Q209 496 209.0 493.5Q209 491 208.5 479.0Q208 467 208 446Q208 439 208.0 431.5Q208 424 208.0 418.5Q208 413 208.5 409.0Q209 405 209 402V400Q210 362 210 362Q221 373 231.0 377.0Q241 381 245.0 380.0Q249 379 251.5 381.0Q254 383 254 391V393Q254 402 246.0 424.5Q238 447 238 451Q224 517 224 518ZM863 40H879Q902 40 930 45Q929 46 903.0 58.0Q877 70 842.0 85.0Q807 100 789 106Q741 131 733 135Q692 169 686.0 173.0Q680 177 670.0 185.5Q660 194 652.0 198.0Q644 202 632 203Q629 203 609.5 204.5Q590 206 581 206Q553 206 502.5 209.0Q452 212 422 212Q309 212 256 231Q239 237 230.0 247.5Q221 258 217 260Q216 260 215 260L213 261Q189 265 165 265Q150 265 119.0 263.0Q88 261 69 261H50Q39 264 28 269Q24 267 24 264Q25 263 28 260L30 256Q42 242 78 226Q156 232 166 232Q177 232 181 231Q186 231 191.0 226.0Q196 221 196 216Q196 204 185 204L125 202L215 159Q230 148 245 130Q247 132 248 132L277 145Q279 146 282 146Q294 146 294 134Q294 126 287 123L258 110H257Q286 64 288 52Q288 52 290 44L292 36Q296 31 306 31Q311 31 321.5 33.0Q332 35 336 35Q340 40 340 48Q340 50 342.0 60.5Q344 71 344 75V76Q344 77 336 119V121Q336 135 349 137H353Q358 138 365 133Q376 122 384.5 107.0Q393 92 401.0 84.5Q409 77 425 74L517 73Q522 92 527 100Q531 110 533.5 115.5Q536 121 541.5 125.0Q547 129 550.0 131.0Q553 133 563.5 137.0Q574 141 580 144Q585 149 592 149Q598 149 603.0 144.0Q608 139 608 133Q608 120 584.5 110.0Q561 100 556 88Q554 84 548 66V65Q547 46 547 46Q549 34 560.0 32.5Q571 31 572 30Q573 30 578.5 31.5Q584 33 587 34Q592 36 595.0 38.0Q598 40 601.0 43.0Q604 46 605.5 48.5Q607 51 610.5 57.5Q614 64 617 69Q618 70 621.0 80.0Q624 90 629 98Q643 112 656 112Q665 108 700.5 91.0Q736 74 757 70Q765 67 784.0 59.0Q803 51 810.5 48.5Q818 46 833.0 43.0Q848 40 863 40Z" fill="currentColor"/>
  </g>
</svg>