<svg xmlns="http://www.w3.org/2000/svg" viewBox="0 0 793 1000">
  <g transform="scale(1,-1) translate(0,-1000)">
    <path d="M535 729H531Q525 714 525 702Q525 688 535.5 680.5Q546 673 558.0 670.5Q570 668 580.5 656.5Q591 645 591 625Q591 586 544 533Q545 528 555 502Q586 524 600 529L602 659Q602 663 614.0 685.5Q626 708 626 723Q626 724 621.5 725.5Q617 727 605.0 729.0Q593 731 579 731Q574 731 567.5 731.0Q561 731 555.5 730.5Q550 730 545.5 729.5Q541 729 538 729ZM126 40V24H769V40ZM556 455Q556 445 558.5 421.5Q561 398 561 393Q561 387 558.0 384.5Q555 382 544 378Q499 362 431.5 361.5Q364 361 329 354Q312 351 307 336Q296 305 285.5 232.5Q275 160 254 119Q243 99 211.0 87.0Q179 75 175 72H264Q310 216 344 290Q362 329 390 329Q390 329 424.5 329.5Q459 330 498.0 330.5Q537 331 548 331Q581 331 599.0 337.0Q617 343 620.5 348.0Q624 353 627 363Q628 364 631.0 385.5Q634 407 637.5 438.5Q641 470 641 492Q641 503 639 515H623Q623 514 623.5 512.0Q624 510 624 509Q624 501 620 500Q567 462 556 455ZM372 285Q365 275 290 64H369ZM692 392Q699 392 711 374Q713 384 713 388Q713 411 705.0 434.0Q697 457 691 457Q691 457 687.0 456.0Q683 455 678.0 454.0Q673 453 670 453H668L667 441Q659 314 612 305Q583 301 504 301H394Q395 299 395 294V71H519V225Q519 238 531 238H680L679 379Q679 392 692 392ZM681 213H545V71H682ZM561.0 697.0Q544 697 544.0 709.0Q544 721 561.0 721.0Q578 721 578.0 709.0Q578 697 561.0 697.0ZM671 608V653L652 635Q649 632 647 632Q642 632 640 636L626 658V657L624 539L673 537Q671 587 671 608ZM230 157V152Q230 148 226.0 144.0Q222 140 218 140Q210 140 207 147L192 182L177 147Q174 140 166 140Q162 140 158.0 144.0Q154 148 154 152Q154 154 180 215V522Q167 531 167 545Q167 557 180 561V692Q162 690 155 690Q152 690 148.0 690.5Q144 691 141 691Q131 683 127.5 674.5Q124 666 110 624Q109 631 105.0 649.0Q101 667 101 677Q101 683 103 691H86V658Q86 654 77 654Q72 654 72 658V692Q49 676 29 676H23Q11 680 6.0 684.5Q1 689 0 699Q1 706 2.5 709.5Q4 713 9.0 716.5Q14 720 24 722H26Q38 722 49.5 718.0Q61 714 66 710L72 705L71 742Q71 746 76 746Q86 746 86 741V707L112 708Q141 745 148 803Q151 798 156.5 791.0Q162 784 165.0 778.5Q168 773 168 765V760Q168 738 156 711Q157 711 159.0 710.5Q161 710 162 710Q166 710 178 714H202L204 692V559Q218 553 218 553H220Q266 553 310.5 549.0Q355 545 370 545H377Q395 546 458.5 557.5Q522 569 545 571Q567 611 567.0 625.0Q567 639 560.0 643.5Q553 648 540.0 651.5Q527 655 518 664Q501 681 501 703Q501 718 508 735Q500 737 500 745Q480 775 470 775H467Q460 775 452.0 776.5Q444 778 439.5 780.0Q435 782 435 783Q436 788 448.0 795.5Q460 803 465 803H470Q492 803 505 794Q506 793 508.0 785.0Q510 777 514.5 770.5Q519 764 526 764Q527 763 527 763Q540 778 559 787L545 786Q526 786 526 790V792Q527 793 526 793L525 792V800Q525 814 526.5 820.0Q528 826 537.0 834.0Q546 842 565 849Q495 859 484 891Q482 897 482 899Q482 914 501.5 925.0Q521 936 541 936Q558 936 562 927Q573 911 573 910V907Q573 898 563.5 891.0Q554 884 544 884Q533 884 533 894Q533 900 551 907Q548 910 546 914Q545 914 543.0 914.5Q541 915 539 915Q528 915 515.5 909.5Q503 904 503 899V898L504 897Q508 891 513.5 886.5Q519 882 523.0 879.5Q527 877 534.5 875.0Q542 873 546.0 872.5Q550 872 560.0 870.5Q570 869 574 868Q585 922 590.5 933.0Q596 944 621 953Q640 962 644.0 971.0Q648 980 656 983Q668 987 672 987Q684 987 684 976Q684 972 681 964Q700 999 714 999Q722 999 730.5 994.5Q739 990 739 984V983L705 775Q703 759 695 759Q695 759 681 763Q685 742 685 742Q716 745 735 760L738 672Q714 683 695 683H693Q695 665 695 625V608Q695 583 695.5 563.5Q696 544 697 534L698 525Q698 515 687 513Q686 513 684.5 513.5Q683 514 679.0 514.0Q675 514 670 514V479Q672 479 679.0 481.5Q686 484 692 484Q717 484 728.0 450.0Q739 416 739 387Q739 343 714 343Q709 343 706 345L708 64H781Q786 64 789.5 60.0Q793 56 793 52V12Q793 8 789.5 4.0Q786 0 781 0H114Q110 0 106.0 4.0Q102 8 102 12V52Q102 56 106.0 60.0Q110 64 114 64H143Q148 93 186.5 106.0Q225 119 231 131Q249 166 257.5 222.0Q266 278 274.5 319.0Q283 360 305 373L295 401L228 374H224Q211 374 211.0 382.0Q211 390 223 396L289 419L273 458Q273 460 278.5 463.5Q284 467 287.0 467.0Q290 467 291 464L304 424Q318 444 325.0 449.0Q332 454 355 464H363Q382 464 389 454Q398 457 404 457Q411 457 412 453Q429 453 458.0 458.5Q487 464 508 470L529 475L514 531H511Q488 531 441.5 522.0Q395 513 386 513Q381 513 300.0 517.5Q219 522 215 523Q210 523 204 521V215ZM664 931Q664 935 662.0 942.0Q660 949 660 954Q660 955 660.5 957.5Q661 960 661 961Q651 944 639 939Q636 938 629.0 936.5Q622 935 619 934Q606 930 593 864Q594 864 598.0 862.0Q602 860 603 860Q609 862 623.0 865.0Q637 868 643 870Q662 921 664 927ZM554 806Q574 811 597 811Q654 811 685 785L713 970Q695 943 683.5 912.5Q672 882 666.5 866.5Q661 851 652 848Q652 848 616.0 839.5Q580 831 554 818V816Q554 815 553.5 812.0Q553 809 553 807Q554 807 554 806ZM373 426Q364 432 364 437Q364 443 375 447Q372 451 365 451Q355 451 343.0 443.5Q331 436 324.0 428.5Q317 421 317 420Q341 417 344 417Q364 417 373 426ZM64 699Q43 711 29 711Q22 711 18.0 707.5Q14 704 14 701L13 698Q13 687 28 687Q38 687 49.5 691.5Q61 696 64 699ZM533 443Q496 426 409 426Q405 418 398 418Q395 418 387 420Q371 404 343 404Q310 409 310 409L322 379Q353 386 423.0 387.0Q493 388 535 403Q535 403 534.0 422.5Q533 442 533 443ZM670 675Q669 699 658 756Q654 776 611 776Q585 776 553 754Q573 756 579 756Q613 756 638 745Q650 740 650 724Q650 699 635 673L648 653Z" fill="currentColor"/>
  </g>
</svg>