<svg xmlns="http://www.w3.org/2000/svg" viewBox="0 0 768 1000">
  <g transform="scale(1,-1) translate(0,-1000)">
    <path d="M344 949Q377 945 409.5 925.0Q442 905 442 871Q442 868 441.5 860.5Q441 853 441 850Q441 841 445.0 834.5Q449 828 452.0 826.0Q455 824 464 820Q488 859 488 879Q488 913 461.0 939.0Q434 965 392 965Q366 965 344 949ZM430 802Q411 816 411 850Q411 854 411.5 861.0Q412 868 412 871Q412 888 393.0 900.5Q374 913 354 916L335 920Q292 920 292 867Q292 856 295 841Q297 831 308.0 821.0Q319 811 330.5 803.5Q342 796 351.0 781.5Q360 767 360 749Q360 710 320 670Q323 659 336.5 613.0Q350 567 354.5 546.5Q359 526 364.5 483.5Q370 441 370 397Q370 374 368.0 333.5Q366 293 366 275L464 311Q467 481 475.0 557.5Q483 634 514 706Q480 723 467 736Q457 746 451.5 755.5Q446 765 440.5 777.0Q435 789 430 798ZM341 896Q349 896 354.5 889.0Q360 882 360 873Q360 867 354.0 862.5Q348 858 341 858Q316 858 316 873Q316 883 323.0 889.5Q330 896 341 896ZM338 82Q404 82 462 67Q462 103 462.5 169.5Q463 236 464 268Q448 262 409.5 248.0Q371 234 345.5 223.5Q320 213 291 198Q286 196 266.0 186.0Q246 176 241.5 173.5Q237 171 221.0 162.5Q205 154 200.0 151.0Q195 148 181.5 140.5Q168 133 161.5 127.5Q155 122 143.5 114.0Q132 106 122.5 98.0Q113 90 103 81Q101 79 101 77Q101 73 105 55Q271 82 338 82ZM132 369Q132 368 132.0 365.5Q132 363 132.5 353.0Q133 343 133 326Q133 292 137.5 241.0Q142 190 143 165Q176 186 273 234L287 241L140 372Q133 372 132 369ZM256 483Q256 480 260.0 478.0Q264 476 271.5 474.0Q279 472 287.0 471.0Q295 470 306.5 468.0Q318 466 326 464Q319 521 296 600V601L292 614Q278 613 269.0 578.0Q260 543 258.0 518.0Q256 493 256 483ZM336 30Q317 30 278.0 27.0Q239 24 196.0 19.5Q153 15 113.5 10.5Q74 6 47.5 3.0Q21 0 20 0Q12 0 6.0 5.5Q0 11 0 20Q0 25 1.5 28.5Q3 32 6.0 34.0Q9 36 12.5 38.0Q16 40 22.5 41.0Q29 42 34.0 43.0Q39 44 48.5 45.5Q58 47 65 48Q65 50 63.0 60.5Q61 71 61 77Q61 94 69.5 105.5Q78 117 104 136Q104 177 98.5 233.0Q93 289 93 326Q92 370 92 370Q92 388 107.0 400.0Q122 412 139 412Q155 412 163 405L325 261H326Q326 290 328.0 334.0Q330 378 330 397V414Q288 417 220 432Q203 436 203 445Q203 569 233 661Q240 682 281 693Q298 701 311.5 718.0Q325 735 325 749Q325 761 314.5 771.0Q304 781 291.0 788.5Q278 796 267.5 816.0Q257 836 257 867Q257 918 299.5 959.0Q342 1000 392 1000Q451 1000 487.0 962.5Q523 925 523 879Q523 866 518.5 851.0Q514 836 510.0 828.0Q506 820 495.5 803.5Q485 787 483 783Q493 766 507.5 754.5Q522 743 537.5 735.5Q553 728 558 724Q621 704 645 704Q670 704 670 730V739L687 886Q696 910 696 926Q714 1000 732 1000Q740 1000 744.5 995.0Q749 990 749 986Q749 985 739.5 963.0Q730 941 730 929Q730 921 733 921Q737 921 743.5 926.5Q750 932 755 938L760 944Q768 944 768 938Q768 931 758.5 915.0Q749 899 743 898Q742 898 738.0 894.5Q734 891 733 891Q714 888 714 873Q713 872 713 854Q713 842 714.5 794.5Q716 747 716 721Q716 643 704 643Q689 643 668.0 645.5Q647 648 627.0 651.0Q607 654 589.5 657.5Q572 661 560 664L549 666Q537 666 532 633Q526 612 522.0 584.5Q518 557 515.0 518.5Q512 480 510.0 448.0Q508 416 507.0 362.0Q506 308 505.0 275.0Q504 242 503.5 175.5Q503 109 502 77L547 44Q550 44 556.0 42.5Q562 41 564.5 40.5Q567 40 571.5 39.0Q576 38 578.0 36.5Q580 35 582.5 33.0Q585 31 586.0 27.5Q587 24 587 20Q587 11 581.0 5.5Q575 0 567 0Q564 0 526.0 7.5Q488 15 434.0 22.5Q380 30 336 30Z" fill="currentColor"/>
  </g>
</svg>