<svg xmlns="http://www.w3.org/2000/svg" viewBox="0 0 922 1000">
  <g transform="scale(1,-1) translate(0,-1000)">
    <path d="M225 657Q243 656 250.5 654.5Q258 653 263.0 648.0Q268 643 268 632Q268 628 266.5 619.0Q265 610 265 605L281 504Q282 499 283.5 482.0Q285 465 288.0 454.5Q291 444 296 444Q299 444 302 447Q316 461 319.5 494.5Q323 528 336 558Q344 581 355 591Q381 613 395 613H397Q401 613 401 610Q401 606 382.5 574.5Q364 543 359 503Q358 497 354.5 484.0Q351 471 351 464Q351 434 379 434Q383 434 392.0 435.0Q401 436 406 436H408Q420 435 441 435Q457 435 485.5 436.0Q514 437 531 437Q569 439 586 439Q599 439 622.0 438.5Q645 438 654 438Q704 438 709 449Q703 468 690.0 495.0Q677 522 666.5 541.0Q656 560 656 564Q656 571 665 571Q673 571 712 514L748 457Q752 451 757.5 441.5Q763 432 767.5 425.5Q772 419 779 413Q785 407 795 407Q811 407 811 434Q811 441 813.5 451.0Q816 461 816 469Q816 510 833 551Q837 560 849.0 573.5Q861 587 861 591Q861 604 848.0 612.0Q835 620 818 620H638Q617 621 484 642L441 649Q414 652 377.0 673.0Q340 694 322 698Q318 695 312.0 687.5Q306 680 300.5 676.5Q295 673 286 673Q275 673 275 687Q275 698 287.0 710.5Q299 723 299 728Q299 736 285.0 742.0Q271 748 263 748Q258 748 222 742Q213 738 191.5 730.0Q170 722 156 715Q112 695 112 681Q112 670 131.5 651.0Q151 632 158.0 632.0Q165 632 186.5 644.5Q208 657 221 657ZM217 726Q226 726 233.0 721.0Q240 716 240 708Q240 699 232.5 694.0Q225 689 215 689Q189 689 189 711Q189 726 217 726ZM884 721 794 943 792 938 853 708ZM878 532Q855 532 852 463V458Q852 451 851.0 440.5Q850 430 850 424Q850 412 858.5 381.5Q867 351 867 334Q867 284 851 242Q833 206 818 192H907Q913 192 917.5 187.5Q922 183 922 177V15Q922 9 917.5 4.5Q913 0 907.0 0.0Q901 0 896.5 4.5Q892 9 892 15V54L536 162H15Q9 162 4.5 166.5Q0 171 0.0 177.0Q0 183 4.5 187.5Q9 192 15 192H177Q168 196 168 204Q168 216 184.0 228.0Q200 240 204 247Q208 253 215.5 265.5Q223 278 226.5 283.5Q230 289 235.0 298.5Q240 308 243.0 317.5Q246 327 249 338Q259 381 259 408Q259 433 254 454Q250 472 244.5 524.5Q239 577 227 611Q223 622 209 622Q200 622 193.0 618.5Q186 615 178.0 608.5Q170 602 166 600V598Q166 580 151 552Q148 546 137 546Q122 546 122 555Q122 586 128 600Q81 647 81 681Q81 694 88 705Q94 714 100.0 719.5Q106 725 119.0 731.5Q132 738 136 740Q142 743 158.0 747.5Q174 752 183.5 757.5Q193 763 193 772Q193 774 184 795Q163 776 152 776Q140 776 126.5 788.5Q113 801 101 801Q90 801 74.0 787.0Q58 773 46 773Q18 773 18 826Q18 830 18 830Q20 830 30.0 816.5Q40 803 48 803Q60 803 76.0 817.5Q92 832 104.0 832.0Q116 832 129.0 818.0Q142 804 154 804Q165 804 178.5 816.5Q192 829 203 829Q216 829 234.0 820.0Q252 811 264.0 811.0Q276 811 290.0 823.5Q304 836 316 836Q325 836 337.0 822.0Q349 808 359 808Q370 808 384.5 818.5Q399 829 410 829Q420 829 431.0 813.5Q442 798 453 798Q461 798 474.5 809.5Q488 821 490.0 821.0Q492 821 492 816Q492 798 478.5 785.0Q465 772 447 772Q437 772 426.5 785.0Q416 798 406.0 798.0Q396 798 382.0 788.5Q368 779 357 779Q348 779 331 796Q330 795 330 794Q317 790 317 775Q317 764 325 738Q325 731 331 728Q395 693 452 678Q454 677 474.0 673.5Q494 670 499 668L558 660Q601 717 681.0 831.0Q761 945 780 977Q785 985 792 985Q801 985 843 881Q879 791 908 720Q909 719 909 715Q909 708 902 705L850 683Q850 683 848.5 682.5Q847 682 846 682Q838 682 835 690L773 917L585 656L639 648L823 649Q862 649 897 611Q911 597 911 564V551L915 403L888 404Q887 409 887 420Q887 441 888 452V484V498Q888 510 887 518Q887 522 884.0 527.0Q881 532 878 532ZM796 192Q792 195 792 204Q792 211 798.0 221.5Q804 232 810.5 254.0Q817 276 817 312Q817 331 808.5 345.5Q800 360 784 360Q779 360 775.0 359.0Q771 358 767.0 355.0Q763 352 761.0 350.5Q759 349 755.0 344.0Q751 339 750.0 337.0Q749 335 745.0 328.0Q741 321 740 320Q730 304 722.0 276.0Q714 248 705 232Q703 229 697.5 217.5Q692 206 688.0 200.5Q684 195 678 192ZM650 192Q643 196 643 206V210L665 240Q672 256 682.0 303.0Q692 350 692 371Q692 398 676 399Q674 399 669.0 399.5Q664 400 662 400Q619 397 471 397H411Q414 389 419.5 378.0Q425 367 428.5 358.0Q432 349 434 339Q448 273 448 255Q448 204 429 192ZM398 192Q385 198 385 206Q385 210 390.5 224.5Q396 239 396 242V248Q396 284 380.5 327.5Q365 371 328 381H325Q321 381 319.0 376.0Q317 371 315.5 362.0Q314 353 312 349Q306 335 298.5 314.5Q291 294 284.0 278.5Q277 263 266 247Q262 242 255.5 231.0Q249 220 245.0 214.0Q241 208 234.0 201.5Q227 195 220 192ZM631 162 892 84V162Z" fill="currentColor"/>
  </g>
</svg>