<svg xmlns="http://www.w3.org/2000/svg" viewBox="0 -1000 1000 1000">
	<path fill="currentColor" d="M130 219L58 11L116 52V-300Q106 -304 99 -310.5Q92 -317 90 -321Q80 -336 71.5 -349Q63 -362 49 -372V-394Q60 -401 84 -406Q108 -411 125 -411Q143 -411 167.5 -406Q192 -401 202 -394V-372Q186 -359 178 -346.5Q170 -334 161 -321Q159 -317 152.5 -310.5Q146 -304 135 -300V52L166 32L192 51Q200 -33 225.5 -110.5Q251 -188 290 -251.5Q329 -315 377 -357.5Q425 -400 477 -415Q463 -421 443 -433.5Q423 -446 404 -470Q385 -494 373 -531Q365 -556 356 -586.5Q347 -617 333 -645Q319 -673 295.5 -691.5Q272 -710 235 -710Q198 -710 176.5 -694Q155 -678 145.5 -654.5Q136 -631 136 -607V-532Q146 -528 152.5 -521Q159 -514 162 -511Q171 -498 179 -485Q187 -472 203 -459V-438Q192 -431 167.5 -425.5Q143 -420 126 -420Q109 -420 84.5 -425.5Q60 -431 49 -438V-459Q63 -470 71.5 -483Q80 -496 90 -511Q93 -514 99.5 -521Q106 -528 116 -532V-607Q116 -635 127 -663.5Q138 -692 164.5 -711Q191 -730 235 -730Q278 -730 305 -710.5Q332 -691 347.5 -661Q363 -631 372.5 -597.5Q382 -564 391 -537Q403 -499 420.5 -477Q438 -455 456.5 -445Q475 -435 487 -431L446 -855H239V-937H820V-855H613L572 -431Q585 -435 603 -445Q621 -455 639 -477Q657 -499 668 -537Q677 -564 686.5 -597.5Q696 -631 711.5 -661Q727 -691 754 -710.5Q781 -730 824 -730Q869 -730 895 -711Q921 -692 932 -663.5Q943 -635 943 -607V-536Q958 -528 966 -515Q974 -502 978 -492Q982 -481 988.5 -467.5Q995 -454 1012 -438L985 -417Q980 -419 971 -423.5Q962 -428 954 -433Q950 -428 944.5 -422.5Q939 -417 933 -412Q927 -417 921.5 -422.5Q916 -428 913 -433Q904 -428 895 -423.5Q886 -419 881 -417L854 -438Q871 -454 878 -467.5Q885 -481 889 -492Q893 -502 900.5 -515Q908 -528 923 -536V-607Q923 -631 913.5 -654.5Q904 -678 882.5 -694Q861 -710 824 -710Q788 -710 764.5 -691.5Q741 -673 727 -645Q713 -617 704 -586.5Q695 -556 687 -531Q675 -494 656 -470Q637 -446 617 -433.5Q597 -421 583 -415Q635 -400 682.5 -357.5Q730 -315 769 -251.5Q808 -188 834 -110.5Q860 -33 868 51L894 32L924 52V-280H923V-286Q908 -294 900.5 -307Q893 -320 889 -330Q885 -341 878 -354.5Q871 -368 854 -384L881 -404Q886 -402 895 -398Q904 -394 913 -389Q916 -394 921.5 -399.5Q927 -405 933 -410Q939 -405 944.5 -399.5Q950 -394 954 -389Q962 -394 971 -398Q980 -402 985 -404L1012 -384Q995 -368 988.5 -354.5Q982 -341 978 -330Q974 -320 966 -307Q958 -294 944 -286V52L1002 11L930 219H787L715 11L772 51Q770 20 758 -19Q746 -58 727 -94Q708 -130 685 -152Q669 -148 654.5 -152Q640 -156 629 -160Q619 -165 605 -170Q591 -175 567 -175L572 -208Q577 -210 586.5 -213.5Q596 -217 606 -219Q604 -231 606 -248Q623 -250 635 -248Q638 -257 641.5 -266.5Q645 -276 647 -280L681 -285Q680 -261 684.5 -247Q689 -233 693 -222Q698 -212 701 -197.5Q704 -183 699 -166Q724 -142 744 -103.5Q764 -65 777 -23Q790 19 792 52L823 32L848 50Q840 -33 814.5 -109Q789 -185 750.5 -246Q712 -307 665.5 -347Q619 -387 568 -398L542 -122Q553 -127 569 -132Q585 -137 604 -137Q641 -137 660 -112Q679 -87 679 -55Q679 -30 666.5 -4Q654 22 642 42Q638 49 634 56Q630 63 627 68Q614 95 605.5 124Q597 153 592 172Q587 191 571 205Q555 219 530 219Q505 219 489 205Q473 191 468 172Q463 154 454 124.5Q445 95 432 68Q430 63 426 56Q422 49 418 42Q405 22 392.5 -4Q380 -30 380 -55Q380 -87 399.5 -112Q419 -137 456 -137Q475 -137 491 -132Q507 -127 518 -122L491 -398Q440 -387 393.5 -347Q347 -307 309 -246Q271 -185 245.5 -109Q220 -33 212 50L236 32L268 52Q270 17 284 -27Q298 -71 320.5 -111Q343 -151 369 -173Q365 -184 366 -193Q367 -202 368 -206Q373 -224 377 -238.5Q381 -253 379 -271L396 -285Q408 -281 428 -266.5Q448 -252 459 -238Q471 -225 483 -203.5Q495 -182 496 -169L480 -155Q460 -159 445 -156.5Q430 -154 414 -152Q410 -152 400.5 -152.5Q391 -153 381 -158Q357 -138 336.5 -101Q316 -64 303 -23Q290 18 287 51L345 11L272 219ZM259 -875H801V-917H259ZM530 -205L594 -855H466ZM880 -435Q889 -439 906 -453Q923 -467 933 -487Q944 -467 960.5 -453Q977 -439 986 -435L991 -439Q974 -455 968 -465Q962 -475 960 -481Q957 -491 952 -504.5Q947 -518 933 -518Q919 -518 914.5 -504.5Q910 -491 906 -481Q904 -475 898 -465Q892 -455 875 -439ZM126 -440Q141 -440 157.5 -443Q174 -446 182 -450Q169 -460 162 -472.5Q155 -485 146 -499Q145 -501 140 -507Q135 -513 125 -513Q116 -513 112 -507Q108 -501 106 -499Q94 -481 88 -470.5Q82 -460 72 -452Q83 -448 98 -444Q113 -440 126 -440ZM933 -431Q937 -435 940 -438Q943 -441 944 -444Q938 -449 933 -455Q928 -449 922 -444Q924 -441 926.5 -438Q929 -435 933 -431ZM125 -318Q135 -318 140 -324Q145 -330 146 -333Q154 -347 161 -359Q168 -371 181 -381Q173 -385 157 -388.5Q141 -392 125 -392Q113 -392 97.5 -388Q82 -384 72 -379Q82 -371 88 -360.5Q94 -350 105 -333Q107 -331 111 -324.5Q115 -318 125 -318ZM933 -367Q938 -374 944 -377Q941 -383 933 -391Q925 -383 922 -377Q928 -374 933 -367ZM933 -304Q947 -304 952 -317.5Q957 -331 960 -341Q962 -347 968 -357Q974 -367 991 -383L986 -387Q977 -383 960.5 -369Q944 -355 933 -335Q923 -355 906 -369Q889 -383 880 -387L875 -383Q892 -367 898 -357Q904 -347 906 -341Q910 -331 914.5 -317.5Q919 -304 933 -304ZM680 -172Q690 -182 684 -195Q678 -208 673 -218Q671 -223 668 -234.5Q665 -246 666 -269L660 -268Q656 -259 653.5 -238Q651 -217 658 -194Q636 -202 614.5 -200.5Q593 -199 584 -195L583 -189Q606 -188 617.5 -185Q629 -182 634 -179Q644 -175 657 -168.5Q670 -162 680 -172ZM413 -172Q430 -174 444 -177Q458 -180 473 -177Q470 -185 462.5 -199.5Q455 -214 444 -226Q437 -235 424 -244.5Q411 -254 400 -258Q400 -245 396.5 -234Q393 -223 387 -202Q386 -200 384 -193Q382 -186 389 -178Q395 -171 402.5 -171Q410 -171 413 -172ZM621 -217Q624 -218 628 -218Q632 -218 635 -218Q635 -221 635 -225Q635 -229 636 -232Q629 -235 619 -234Q619 -230 619.5 -225.5Q620 -221 621 -217ZM520 199V-98Q513 -103 495.5 -110Q478 -117 456 -117Q428 -117 414 -98Q400 -79 400 -55Q400 -33 411.5 -10Q423 13 435 33Q439 40 443 47Q447 54 450 60Q462 87 471.5 117Q481 147 486 167Q490 178 498.5 187Q507 196 520 199ZM540 199Q553 196 561 187Q569 178 573 167Q578 147 587.5 117Q597 87 610 60Q613 54 617 47Q621 40 625 33Q637 13 648.5 -10Q660 -33 660 -55Q660 -79 646 -98Q632 -117 604 -117Q582 -117 564.5 -110Q547 -103 540 -98ZM801 199H916L964 61L934 82L894 56L858 83L823 56L783 82L753 61ZM144 199H259L306 61L277 82L237 56L201 83L166 56L125 82L96 61Z"/>
</svg>