<svg xmlns="http://www.w3.org/2000/svg" viewBox="0 0 927 1000">
  <g transform="scale(1,-1) translate(0,-1000)">
    <path d="M691 139Q700 139 707 130Q735 90 754.0 71.5Q773 53 793 53Q800 53 808.0 54.5Q816 56 831.5 63.5Q847 71 858.0 84.5Q869 98 878.0 126.0Q887 154 887 191Q887 208 884.5 226.0Q882 244 873.5 270.5Q865 297 844.5 313.5Q824 330 793 330Q773 330 754.0 311.5Q735 293 707 253Q698 244 691 244Q689 244 177 339V44Q689 139 691 139ZM927 194Q927 183 926.0 168.5Q925 154 917.5 124.0Q910 94 897.0 71.5Q884 49 857.0 31.0Q830 13 793 13Q760 13 736.0 34.0Q712 55 682 97Q159 0 157 0Q149 0 143.0 6.0Q137 12 137 20V363Q137 371 143.0 377.0Q149 383 157 383Q153 390 148.5 405.0Q144 420 141.0 431.5Q138 443 138 444Q135 448 125 465Q121 474 98.0 481.0Q75 488 65 505Q58 519 58 527Q58 544 69 570Q65 572 65 578Q45 608 35 608H32Q25 608 17.0 609.5Q9 611 4.5 613.0Q0 615 0 616Q1 621 13.0 628.5Q25 636 30 636H35Q57 636 70 627Q71 626 75.0 613.5Q79 601 85 598Q97 615 113 622Q113 625 113.5 629.0Q114 633 114 634Q114 638 116.0 640.0Q118 642 120 642L121 643Q94 666 70.5 696.5Q47 727 37.0 745.5Q27 764 27 768Q27 774 31.0 779.0Q35 784 39 784Q44 784 50.0 776.0Q56 768 67.5 750.5Q79 733 92 719Q97 748 120.0 766.5Q143 785 174 785Q206 785 230.5 767.0Q255 749 261 719Q273 733 285.0 750.0Q297 767 303.0 775.0Q309 783 314 783Q318 783 322.0 778.5Q326 774 326 768Q326 764 315.5 745.0Q305 726 282.0 696.0Q259 666 233 643Q240 643 240 630Q240 629 239.5 625.5Q239 622 239 619Q265 600 275 588Q308 592 326 606L329 518Q318 524 304 527Q306 520 308.5 506.5Q311 493 312 489L341 349Q493 321 682 286Q711 328 736.0 349.0Q761 370 793 370Q829 370 856.5 352.5Q884 335 898.5 307.5Q913 280 920.0 251.5Q927 223 927 194ZM197 390 200 440Q200 489 197.5 516.0Q195 543 192.5 549.5Q190 556 184 564Q175 568 165.5 571.0Q156 574 142.0 577.0Q128 580 119 582Q108 577 101.0 558.5Q94 540 94 530Q96 525 96 525Q102 515 122.5 509.0Q143 503 155 487Q170 467 171 450Q173 444 175.5 430.5Q178 417 181.0 408.0Q184 399 190 392Q192 390 197 390ZM228 488V420Q228 418 227 390L297 378L277 480Q276 486 272 496L250 475Q247 472 243 472Q238 472 235 477ZM265 518Q252 561 225 588Q220 605 174 605Q157 605 148 601Q150 600 176.0 593.0Q202 586 206 581Q216 568 220.0 556.0Q224 544 224.5 537.0Q225 530 226 528L245 498ZM134 559Q155 559 155 546Q155 540 149.0 535.5Q143 531 136.0 531.0Q129 531 123.5 535.5Q118 540 118 547Q118 559 134 559ZM174 652Q197 652 213.0 667.0Q229 682 229.0 703.0Q229 724 213.0 738.0Q197 752 173 752Q152 752 137.0 738.0Q122 724 122.0 703.0Q122 682 137.0 667.0Q152 652 174 652Z" fill="currentColor"/>
  </g>
</svg>