<svg xmlns="http://www.w3.org/2000/svg" viewBox="0 0 989 1000">
  <g transform="scale(1,-1) translate(0,-1000)">
    <path d="M989 25Q989 15 981.5 7.5Q974 0 964 0Q952 0 945 9Q897 65 871.0 86.0Q845 107 803.0 122.0Q761 137 664 155Q614 165 583.5 174.0Q553 183 509.5 203.0Q466 223 425.5 258.5Q385 294 343 346Q317 378 307.5 410.5Q298 443 296.0 491.0Q294 539 291 558H157V84Q157 75 150.5 67.0Q144 59 131 59Q112 59 108 78L1 395Q0 397 0 400Q0 406 4.5 410.5Q9 415 15 415H107V583Q107 594 114.0 601.0Q121 608 132 608H311Q331 608 336 589Q343 558 344.5 513.0Q346 468 353.0 436.0Q360 404 382 377Q420 330 456.5 298.0Q493 266 532.5 248.0Q572 230 599.5 221.5Q627 213 673 204Q749 189 786.0 180.0Q823 171 859.5 152.0Q896 133 920.0 110.0Q944 87 983 41Q989 33 989 25ZM107 385H36L107 178Z" fill="currentColor"/>
  </g>
</svg>