<svg xmlns="http://www.w3.org/2000/svg" viewBox="0 0 602 1000">
  <g transform="scale(1,-1) translate(0,-1000)">
    <path d="M599 625Q599 616 592.5 610.0Q586 604 577 604H351Q360 397 376.0 287.0Q392 177 439 26Q440 24 440 20Q440 12 434.0 6.0Q428 0 420 0H180Q172 0 166.0 6.0Q160 12 160 20Q160 24 161 26Q208 176 224.0 284.0Q240 392 249 605H22Q13 605 6.5 611.5Q0 618 0 627V931Q0 946 24.0 959.0Q48 972 66 972Q99 972 119.0 951.0Q139 930 147.0 902.5Q155 875 169.5 839.5Q184 804 205 783Q242 746 297 746Q287 766 278.0 800.0Q269 834 269 849Q269 855 273.5 869.5Q278 884 279 887Q280 899 275 906Q240 968 240 991Q240 1000 247 1000H248Q275 997 297.0 957.0Q319 917 319 889V884Q315 863 315 847Q315 827 326 812Q336 798 365 767Q392 785 411.0 813.0Q430 841 439.5 866.5Q449 892 459.5 916.0Q470 940 489.5 954.0Q509 968 539 968Q560 968 581.0 954.5Q602 941 602 928ZM539 925Q518 925 505.5 909.0Q493 893 486.5 870.5Q480 848 463.0 815.0Q446 782 420 756Q366 702 297 702Q280 702 262.0 706.0Q244 710 220.0 720.0Q196 730 173.5 753.5Q151 777 135 811Q128 826 119.5 851.5Q111 877 104.0 894.5Q97 912 89 920Q80 929 66 929Q57 929 43 920V648L556 647L559 919Q552 925 539 925ZM228 893Q228 903 222.0 909.0Q216 915 207.0 915.0Q198 915 191.5 908.0Q185 901 185.0 893.0Q185 885 191.5 878.0Q198 871 207.0 871.0Q216 871 222.0 877.5Q228 884 228 893ZM249 893Q249 877 235.5 863.5Q222 850 207 850Q190 850 177.0 863.0Q164 876 164 893Q164 911 177.0 923.0Q190 935 207 935Q225 935 237.0 922.5Q249 910 249 893ZM408 897Q408 907 402.0 913.0Q396 919 387.0 919.0Q378 919 371.5 912.0Q365 905 365.0 897.0Q365 889 371.5 882.0Q378 875 387.0 875.0Q396 875 402.0 881.5Q408 888 408 897ZM429 897Q429 881 415.5 867.5Q402 854 387 854Q370 854 357.0 867.0Q344 880 344 897Q344 915 357.0 927.0Q370 939 387 939Q405 939 417.0 926.5Q429 914 429 897ZM311 604H289Q280 405 265.5 299.0Q251 193 207 40H393Q349 194 334.5 294.0Q320 394 311 604Z" fill="currentColor"/>
  </g>
</svg>