<svg xmlns="http://www.w3.org/2000/svg" viewBox="0 0 870 1000">
  <g transform="scale(1,-1) translate(0,-1000)">
    <path d="M700 399Q700 403 703.5 406.5Q707 410 709 410Q718 410 721 405Q721 396 713 393Q706 393 700 399ZM828 546Q840 546 840 529Q840 480 783 439Q790 433 808 418Q838 392 861 379Q869 375 869 368Q869 368 868.5 367.0Q868 366 868 365Q870 361 870 357Q870 352 854.5 317.5Q839 283 803.5 229.0Q768 175 720.0 124.0Q672 73 596.5 36.5Q521 0 436.0 0.0Q351 0 275.0 36.5Q199 73 151.0 124.0Q103 175 67.0 229.0Q31 283 15.5 317.5Q0 352 0 357Q0 365 6.0 370.5Q12 376 20 376H77Q90 376 94 366Q133 286 179.0 228.0Q225 170 293 139Q297 145 304.5 156.0Q312 167 315 172Q334 203 343.5 216.5Q353 230 369.5 250.5Q386 271 401.0 279.0Q416 287 433 287H434H435Q452 287 467.5 278.5Q483 270 499.0 250.5Q515 231 525.5 216.0Q536 201 554 172Q558 165 566.0 153.0Q574 141 576 138Q668 179 737 293Q731 302 727 306Q722 305 693.5 279.5Q665 254 640 254Q630 254 623.0 258.5Q616 263 614.5 267.0Q613 271 613 274Q613 275 614 277V279Q614 287 619.5 320.0Q625 353 643.0 401.5Q661 450 686 466Q686 467 685.5 469.5Q685 472 685 473Q685 517 717.0 580.5Q749 644 764 644Q768 644 770.5 640.5Q773 637 773 635V633Q771 628 764.0 614.5Q757 601 754 593Q785 640 795 640Q799 640 801.5 636.5Q804 633 804 631Q804 628 788.0 599.5Q772 571 756.0 533.5Q740 496 740 472Q740 471 740.5 469.0Q741 467 741 466L747 463Q790 542 828 546ZM671 298Q708 335 727 335Q739 335 748 326L768 306Q779 321 789 331Q797 339 810.5 349.5Q824 360 831 366Q811 379 785.0 401.0Q759 423 741.5 435.0Q724 447 713 447Q692 447 672.5 401.5Q653 356 643 287L654 303Q656 307 661 307Q670 307 671 298ZM815 513Q797 499 772 459Q808 485 815 513ZM50 337Q66 303 86.0 270.5Q106 238 142.0 193.5Q178 149 218.5 117.0Q259 85 316.5 62.0Q374 39 436 39Q640 39 784 271Q776 263 769 263H765Q645 75 435 71Q371 72 315.5 90.5Q260 109 223.5 134.5Q187 160 153.5 199.0Q120 238 102.0 268.0Q84 298 65 337ZM322 127Q373 110 435 110Q496 110 547 127Q544 132 538.0 141.5Q532 151 529 156Q506 192 494.0 209.0Q482 226 465.0 241.5Q448 257 434 257Q402 257 340 156Q330 141 322 127Z" fill="currentColor"/>
  </g>
</svg>