<svg xmlns="http://www.w3.org/2000/svg" viewBox="0 0 397 1000">
  <g transform="scale(1,-1) translate(0,-1000)">
    <path d="M208 119Q241 119 257.0 167.0Q273 215 273 291Q273 327 269.0 363.5Q265 400 257.0 452.0Q249 504 245 537Q242 565 236.5 617.0Q231 669 228.0 694.0Q225 719 217.0 758.5Q209 798 197 836Q201 803 201 768Q201 732 198.5 698.5Q196 665 189.5 610.5Q183 556 181 535Q177 499 163.0 413.5Q149 328 149 280Q149 119 208 119ZM41 938Q26 938 19.5 939.0Q13 940 6.5 947.5Q0 955 0 970Q0 984 5 991Q14 1000 67 1000Q104 1000 124 988Q166 962 190.0 936.5Q214 911 228 871Q243 827 253.0 782.0Q263 737 266.5 709.5Q270 682 276.0 625.0Q282 568 285 541Q289 508 296.5 457.5Q304 407 308.5 368.0Q313 329 313 291Q313 250 307 201Q299 143 271.0 110.5Q243 78 208.0 78.0Q173 78 146.0 110.5Q119 143 113 204Q109 240 109 280Q109 331 123.0 417.0Q137 503 141 539Q161 723 161 768Q161 825 153.5 854.5Q146 884 134.5 897.0Q123 910 92 931Q82 938 63 938ZM19 118Q19 126 25.0 132.0Q31 138 39 138Q53 138 58 125L88 40H328L358 125Q363 138 377 138Q385 138 391.0 132.0Q397 126 397 118Q397 113 396 111L361 13Q356 0 342 0H74Q60 0 55 13L20 111Q19 113 19 118Z" fill="currentColor"/>
  </g>
</svg>