<svg xmlns="http://www.w3.org/2000/svg" viewBox="0 0 968 1000">
  <g transform="scale(1,-1) translate(0,-1000)">
    <path d="M515 793Q515 799 519.5 803.5Q524 808 530 808H638V858H530Q524 858 519.5 862.5Q515 867 515 873V958H453V873Q453 867 448.5 862.5Q444 858 438 858H330V808H438Q444 808 448.5 803.5Q453 799 453 793V551H515ZM497 433 928 64V511H40V64L471 433Q478 438 484.0 438.0Q490 438 497 433ZM968 20Q968 12 962.0 6.0Q956 0 948 0Q942 0 935 5L484 392L33 5Q26 0 20 0Q12 0 6.0 6.0Q0 12 0 20V531Q0 539 6.0 545.0Q12 551 20 551H423V778H315Q309 778 304.5 782.5Q300 787 300 793V873Q300 879 304.5 883.5Q309 888 315 888H423V973Q423 979 427.5 983.5Q432 988 438 988H530Q536 988 540.5 983.5Q545 979 545 973V888H653Q659 888 663.5 883.5Q668 879 668 873V793Q668 787 663.5 782.5Q659 778 653 778H545V551H948Q956 551 962.0 545.0Q968 539 968 531Z" fill="currentColor"/>
  </g>
</svg>