<svg xmlns="http://www.w3.org/2000/svg" viewBox="0 0 1000 1000">
  <g transform="scale(1,-1) translate(0,-1000)">
    <path d="M967 553Q958 553 873.0 584.5Q788 616 756 616Q736 616 719.5 607.5Q703 599 693.5 589.0Q684 579 667 558Q658 546 640 525Q814 478 960 321V520Q960 528 966.0 534.0Q972 540 980.0 540.0Q988 540 994.0 534.0Q1000 528 1000 520V20Q1000 12 994.0 6.0Q988 0 980 0H20Q12 0 6.0 6.0Q0 12 0 20V520Q0 528 6.0 534.0Q12 540 20.0 540.0Q28 540 34.0 534.0Q40 528 40 520V321Q242 538 501 545Q546 543 579 538Q9 954 5 958Q0 963 0 972Q0 980 6.0 986.0Q12 992 20 992Q25 992 27 991L987 634Q1000 629 1000 615Q1000 612 986 567Q986 566 984.5 563.0Q983 560 978.5 556.5Q974 553 967 553ZM756 656Q792 656 878 625Q933 605 953 598L955 603L150 902L617 560Q621 565 638.0 586.5Q655 608 665 618Q703 656 756 656ZM960 276Q757 510 504 515H501Q243 510 40 276V40H960Z" fill="currentColor"/>
  </g>
</svg>