<svg xmlns="http://www.w3.org/2000/svg" viewBox="0 0 996 1000">
  <g transform="scale(1,-1) translate(0,-1000)">
    <path d="M576 627Q576 633 580.5 637.5Q585 642 591 642H688Q694 642 698.5 637.5Q703 633 703 627Q703 626 702 616Q699 584 695 540Q693 526 680 526H599Q586 526 584 540Q580 583 577 616ZM671 612H607L613 556H666ZM469 818Q469 832 483.0 842.5Q497 853 514.0 853.0Q531 853 545.0 842.5Q559 832 559 818V561Q559 547 545.0 536.5Q531 526 514.0 526.0Q497 526 483.0 536.5Q469 547 469 561ZM529 817Q523 823 514.0 823.0Q505 823 499 817V562Q505 556 514.0 556.0Q523 556 529 562ZM96 557Q96 557 125.5 556.5Q155 556 185.5 556.0Q216 556 220 556Q176 694 156 719Q140 698 96 557ZM76 527Q70 527 65.5 531.5Q61 536 61 542Q61 544 74 586Q103 683 119.5 717.0Q136 751 156 751Q178 751 198.0 706.5Q218 662 255 546Q255 545 255.5 543.5Q256 542 256 541Q256 535 251.5 530.5Q247 526 241 526Q228 526 206.5 526.0Q185 526 163.0 526.0Q141 526 121.5 526.5Q102 527 89 527ZM852 783Q895 783 895 754V522H915Q926 522 933.0 515.0Q940 508 940.0 497.0Q940 486 933.0 479.0Q926 472 915 472H909Q996 22 996 20Q996 12 990.0 6.0Q984 0 976 0H876Q860 0 856 16L809 262H187L140 16Q136 0 120 0H20Q12 0 6.0 6.0Q0 12 0 20Q0 20 15.0 94.0Q30 168 52.0 281.0Q74 394 87 472H81Q70 472 63.0 479.0Q56 486 56.0 497.0Q56 508 63.0 515.0Q70 522 81 522H414Q411 522 398.0 531.5Q385 541 370.0 564.0Q355 587 355 615Q355 634 363.5 644.5Q372 655 385 655Q400 655 412.5 642.0Q425 629 425 605Q425 601 424.5 593.5Q424 586 424 582Q424 570 431.0 556.5Q438 543 438 536Q438 527 431 522H697Q728 572 761.0 656.0Q794 740 804 762Q814 783 852 783ZM187 344Q179 344 173.0 350.0Q167 356 167 364Q167 364 169.0 372.0Q171 380 176.0 407.0Q181 434 188 472H128Q125 453 44 40H104L151 286Q155 302 171 302H825Q841 302 845 286L892 40H952Q871 453 868 472H808Q829 366 829 364Q829 356 823.0 350.0Q817 344 809 344H533Q525 344 519.0 350.0Q513 356 513 364V472H483V364Q483 356 477.0 350.0Q471 344 463 344ZM329 573Q329 583 322.5 589.0Q316 595 307.0 595.0Q298 595 291.5 588.0Q285 581 285.0 573.0Q285 565 291.5 558.0Q298 551 307.0 551.0Q316 551 322.5 557.5Q329 564 329 573ZM349 573Q349 557 335.5 543.5Q322 530 307 530Q290 530 277.5 543.0Q265 556 265 573Q265 591 277.5 603.5Q290 616 307 616Q325 616 337.0 603.0Q349 590 349 573ZM865 751Q861 753 852 753Q838 753 831 749Q819 724 789.0 646.0Q759 568 732 522H865ZM404 606Q404 617 400.0 624.0Q396 631 392.5 632.5Q389 634 386 634Q376 634 376 616Q376 578 411 549Q402 567 402 582Q402 587 403.0 595.0Q404 603 404 606ZM430 806Q444 806 454.5 792.0Q465 778 465.0 761.0Q465 744 454.5 730.0Q444 716 430 716H222Q208 716 197.5 730.0Q187 744 187.0 761.0Q187 778 197.5 792.0Q208 806 222 806ZM429 746Q435 752 435.0 761.0Q435 770 429 776H223Q217 770 217.0 761.0Q217 752 223 746ZM619 733Q610 733 603.5 726.5Q597 720 597 712Q597 703 603.5 696.0Q610 689 619.0 689.0Q628 689 634.5 695.5Q641 702 641 712Q641 733 619 733ZM661 712Q661 696 647.5 682.0Q634 668 619 668Q602 668 589.5 681.5Q577 695 577 712Q577 730 589.5 742.0Q602 754 619 754Q637 754 649.0 741.5Q661 729 661 712ZM734.0 726.0Q728 732 719.0 732.0Q710 732 703.5 725.0Q697 718 697.0 710.0Q697 702 703.5 695.0Q710 688 719.0 688.0Q728 688 734.0 694.0Q740 700 740.0 710.0Q740 720 734.0 726.0ZM761 710Q761 694 747.5 680.5Q734 667 719 667Q702 667 689.0 680.0Q676 693 676 710Q676 728 689.0 740.0Q702 752 719 752Q737 752 749.0 739.5Q761 727 761 710ZM553 472V384H785Q771 455 768 472ZM443 472H228Q224 454 211 384H443Z" fill="currentColor"/>
  </g>
</svg>