<svg xmlns="http://www.w3.org/2000/svg" viewBox="0 0 559 1000">
  <g transform="scale(1,-1) translate(0,-1000)">
    <path d="M328 879Q348 867 359 851Q481 879 482 879Q488 879 492.5 874.5Q497 870 497 864V748Q497 742 492.5 737.5Q488 733 482 733Q481 733 478 734Q447 741 361 760Q355 748 349 742Q436 658 473.0 569.0Q510 480 510 351Q510 284 497 202H520Q528 202 534.0 196.0Q540 190 540.0 182.0Q540 174 534.0 168.0Q528 162 520 162H498Q518 135 533.5 97.5Q549 60 554.0 39.5Q559 19 559 15Q559 9 554.5 4.5Q550 0 544 0H402Q396 0 391.5 4.5Q387 9 387 15V19Q393 52 396.5 69.5Q400 87 412.5 115.0Q425 143 443 162H116Q155 121 172 17V15Q172 9 167.5 4.5Q163 0 157 0H15Q9 0 4.5 4.5Q0 9 0 15Q0 19 5.0 39.5Q10 60 25.5 97.5Q41 135 61 162H39Q31 162 25.0 168.0Q19 174 19.0 182.0Q19 190 25.0 196.0Q31 202 39 202H62Q49 284 49 351Q49 481 86.5 569.5Q124 658 211 742Q204 749 199 759Q90 736 89 736Q83 736 78.5 740.5Q74 745 74 751V867Q74 873 78.5 877.5Q83 882 89 882Q90 882 96.0 880.5Q102 879 131.5 872.0Q161 865 203 856Q213 869 231 879Q212 962 205 983Q205 984 205 985Q205 991 209.5 995.5Q214 1000 220 1000H336Q342 1000 346.5 995.5Q351 991 351 985Q351 982 328 879ZM88 148Q52 103 34 30H139Q123 116 88 148ZM420 30H525Q507 103 471 148Q436 116 420 30ZM89 351Q89 309 98 237Q151 299 176.5 337.5Q202 376 218.5 435.0Q235 494 235 576Q235 633 227 702Q151 621 120.0 544.5Q89 468 89 351ZM324 576Q324 494 340.5 435.0Q357 376 382.5 337.5Q408 299 461 237Q470 309 470 351Q470 468 439.0 544.5Q408 621 332 702Q324 633 324 576ZM375 824 377 787 467 767V845ZM189 828 104 848V770L189 788Q187 802 187 808Q187 822 189 828ZM121 202H438Q354 289 319.0 368.0Q284 447 284 576Q284 644 293 716H266Q275 644 275 576Q275 470 243.5 384.0Q212 298 121 202ZM282 854Q264 853 245.5 841.0Q227 829 227 808Q227 783 243.0 768.5Q259 754 280.0 754.0Q301 754 316.5 768.0Q332 782 332 808Q332 823 319.5 834.5Q307 846 298.0 849.5Q289 853 282 854ZM259 890Q270 894 279 894Q283 894 299 890L317 970H239Z" fill="currentColor"/>
  </g>
</svg>