<svg xmlns="http://www.w3.org/2000/svg" viewBox="0 0 882 1000">
  <g transform="scale(1,-1) translate(0,-1000)">
    <path d="M841 597Q841 609 841.5 634.0Q842 659 842 669Q794 641 783 634Q783 634 782.5 633.0Q782 632 782 631ZM881 562Q881 554 875.0 548.0Q869 542 861 542Q855 542 851 545L777 588L591 14Q586 0 572 0H314Q300 0 295 14Q146 490 110 592Q110 593 109 593L107 594L31 549Q26 546 21 546Q13 546 7.0 552.0Q1 558 1 566Q1 579 1.0 598.0Q1 617 0.5 635.5Q0 654 0.0 670.5Q0 687 0 698V708Q0 716 6.0 722.0Q12 728 20 728Q24 728 30 725L107 680Q111 686 118 687Q177 757 244 786Q327 822 440 822Q512 822 569.0 809.5Q626 797 664.0 773.0Q702 749 722.5 731.0Q743 713 765 686Q771 685 777 677L852 721Q858 724 862 724Q870 724 876.0 718.0Q882 712 882 704Q882 704 882.0 693.5Q882 683 882.0 666.5Q882 650 881.5 631.5Q881 613 881.0 594.0Q881 575 881 562ZM141 623H742V646H141ZM704 686Q614 783 439 783Q268 783 179 687Q239 687 441.5 686.5Q644 686 704 686ZM734 583H152L329 40H557ZM100 637Q40 673 40 673Q40 663 40.5 638.0Q41 613 41 601L100 636Z" fill="currentColor"/>
  </g>
</svg>