<svg xmlns="http://www.w3.org/2000/svg" viewBox="0 0 750 1000">
  <g transform="scale(1,-1) translate(0,-1000)">
    <path d="M616 1000Q624 1000 630.0 994.0Q636 988 636 980V144H730Q738 144 744.0 138.0Q750 132 750 124V20Q750 12 744.0 6.0Q738 0 730 0H20Q12 0 6.0 6.0Q0 12 0 20V124Q0 132 6.0 138.0Q12 144 20 144H167V689Q167 697 173.0 703.0Q179 709 187 709H473V980Q473 988 479.0 994.0Q485 1000 493 1000ZM710 104H40V40H710ZM596 144V960H513V689Q513 681 507.0 675.0Q501 669 493 669H207V144Z" fill="currentColor"/>
  </g>
</svg>