<svg xmlns="http://www.w3.org/2000/svg" viewBox="-40 -40 1080 326">
  <g transform="scale(1,-1) translate(0,-1000)">
    <path d="M319 226Q319 234 325.0 240.0Q331 246 339 246H902Q905 246 914.0 244.5Q923 243 940.5 235.5Q958 228 970 216Q1000 186 1000 123Q1000 16 905 0H902H339Q331 0 325.0 6.0Q319 12 319 20V103H20Q12 103 6.0 109.0Q0 115 0.0 123.0Q0 131 6.0 137.0Q12 143 20 143H319ZM900 40Q931 46 945.5 64.0Q960 82 960.0 123.0Q960 164 945.5 182.0Q931 200 900 206H359V40Z" fill="currentColor"/>
  </g>
</svg>