<svg xmlns="http://www.w3.org/2000/svg" viewBox="-42 -40 396 1080">
  <g transform="scale(1,-1) translate(0,-1000)">
    <path d="M176 467Q173 463 167.0 453.5Q161 444 158.5 440.0Q156 436 151.5 428.0Q147 420 145.5 414.0Q144 408 142.5 400.0Q141 392 141 383V382Q141 369 145.0 356.0Q149 343 151.5 338.0Q154 333 165.5 315.0Q177 297 178 295Q181 299 187.0 308.5Q193 318 195.5 322.0Q198 326 202.0 334.5Q206 343 208.0 349.0Q210 355 211.5 363.0Q213 371 213 380Q213 393 209.5 405.5Q206 418 202.5 424.5Q199 431 189.5 446.0Q180 461 176 467ZM176 709Q143 661 143 630Q149 596 178 552Q211 602 211 628V631Q211 640 209.0 648.5Q207 657 202.5 666.0Q198 675 195.5 679.5Q193 684 185.5 695.0Q178 706 176 709ZM125 892Q125 877 130.5 862.0Q136 847 142.0 837.5Q148 828 160.0 811.0Q172 794 178 784Q184 793 195.5 809.5Q207 826 213.0 835.0Q219 844 224.0 859.0Q229 874 229 889V892Q228 922 212.0 938.5Q196 955 175 955Q155 955 140.0 938.5Q125 922 125 892ZM151 251Q146 262 129.0 287.5Q112 313 104.0 334.0Q96 355 96 382V383Q96 409 103.5 429.5Q111 450 127.0 474.5Q143 499 149 512Q144 522 128.5 544.5Q113 567 105.5 586.5Q98 606 98 630V635Q99 660 105.5 678.0Q112 696 127.0 717.5Q142 739 147 748Q139 762 119.5 789.0Q100 816 90.0 839.0Q80 862 80 892V896Q81 926 92 949Q48 949 14 958Q-2 962 0 977Q2 994 17 996Q24 997 42 997Q94 997 128 987Q148 1000 175 1000Q215 1000 244.5 970.5Q274 941 274 889Q274 860 264.0 837.0Q254 814 234.5 786.5Q215 759 207 745Q212 735 226.5 714.5Q241 694 248.0 676.0Q255 658 256 633V627Q256 603 248.5 584.0Q241 565 225.0 542.0Q209 519 204 509Q210 497 226.5 472.0Q243 447 250.5 426.5Q258 406 258 380V379Q258 352 249.5 331.0Q241 310 224.5 284.5Q208 259 203 248L311 33Q314 27 314 22Q314 11 302 2Q294 0 291 0Q277 0 271 12L176 203L82 15Q76 3 62 3Q58 3 52 5Q40 11 40 25Q40 30 43 36Z" fill="currentColor"/>
  </g>
</svg>