<svg xmlns="http://www.w3.org/2000/svg" viewBox="0 0 617 1000">
  <g transform="scale(1,-1) translate(0,-1000)">
    <path d="M39 936V857L356 778V957ZM572 293Q572 292 594.5 163.5Q617 35 617 30Q617 1 584 0H178Q161 1 153.5 8.0Q146 15 146 33V40Q147 50 151.5 72.0Q156 94 166.5 151.5Q177 209 190 293Q193 310 210 310H356V737L15 822Q0 825 0 841V955Q0 973 18 975L374 999Q375 999 377.5 999.5Q380 1000 381 1000Q391 1000 398.5 992.5Q406 985 406 975V310H552Q569 310 572 293ZM356 270H228L187 40H356ZM406 270V40H575L534 270Z" fill="currentColor"/>
  </g>
</svg>