<svg xmlns="http://www.w3.org/2000/svg" viewBox="0 0 996 1000">
  <g transform="scale(1,-1) translate(0,-1000)">
    <path d="M161 820Q161 840 165.0 846.5Q169 853 177 853H182Q222 853 309 850V856Q282 859 177 861Q163 861 163 876Q163 882 167.5 886.5Q172 891 178 891Q189 891 308 885V890L181 898Q167 900 167 913Q167 946 182 946Q216 948 235 948Q342 948 462.0 927.0Q582 906 668.5 867.5Q755 829 755 787Q755 766 739 766Q738 766 738 766L736 767Q624 792 331 800Q277 801 176 805Q170 805 165.5 809.5Q161 814 161 820ZM469 704Q469 718 483.0 728.5Q497 739 514.0 739.0Q531 739 545.0 728.5Q559 718 559 704V561Q559 547 545.0 536.5Q531 526 514.0 526.0Q497 526 483.0 536.5Q469 547 469 561ZM529 703Q523 709 514.0 709.0Q505 709 499 703V562Q505 556 514.0 556.0Q523 556 529 562ZM0 20Q0 22 62 345Q56 351 56 362Q56 377 70 384Q71 388 87 472H81Q70 472 63.0 479.0Q56 486 56.0 497.0Q56 508 63.0 515.0Q70 522 81 522H736Q738 525 741.5 531.5Q745 538 747 541H680Q671 542 593 542Q587 542 582.5 546.5Q578 551 578 557Q578 559 591 601Q621 698 637.5 732.0Q654 766 674 766Q695 766 713.5 725.5Q732 685 767 578Q782 609 805.0 668.5Q828 728 843 762Q854 783 891 783Q934 783 934 754V513Q940 507 940 497Q940 486 933.0 479.0Q926 472 915 472H909Q925 388 926 384Q940 377 940 362Q940 351 934 345Q996 22 996 20Q996 12 990.0 6.0Q984 0 976 0H876Q860 0 856 16L809 262H187L140 16Q136 0 120 0H20Q12 0 6.0 6.0Q0 12 0 20ZM258.0 596.0Q252 602 243.0 602.0Q234 602 227.5 595.0Q221 588 221.0 580.0Q221 572 227.5 565.0Q234 558 243.0 558.0Q252 558 258.0 564.0Q264 570 264.0 580.0Q264 590 258.0 596.0ZM285 580Q285 564 271.5 550.5Q258 537 243 537Q226 537 213.0 550.0Q200 563 200 580Q200 598 213.0 610.0Q226 622 243 622Q261 622 273.0 609.5Q285 597 285 580ZM904 751Q900 753 891 753Q877 753 870 749Q858 724 828.0 646.0Q798 568 771 522H904ZM421 739Q435 739 445.5 725.0Q456 711 456.0 694.0Q456 677 445.5 663.0Q435 649 421 649H213Q199 649 188.5 663.0Q178 677 178.0 694.0Q178 711 188.5 725.0Q199 739 213 739ZM420 679Q426 685 426.0 694.0Q426 703 420 709H214Q208 703 208.0 694.0Q208 685 214 679ZM72 702Q72 716 86.0 726.5Q100 737 117.0 737.0Q134 737 148.0 726.5Q162 716 162 702V559Q162 545 148.0 534.5Q134 524 117.0 524.0Q100 524 86.0 534.5Q72 545 72 559ZM132 701Q126 707 117.0 707.0Q108 707 102 701V560Q108 554 117.0 554.0Q126 554 132 560ZM366 555Q374 555 380.5 561.5Q387 568 387 577Q387 587 381.0 593.0Q375 599 366.0 599.0Q357 599 350.5 592.0Q344 585 344.0 577.0Q344 569 350.5 562.0Q357 555 366 555ZM408 577Q408 561 394.5 547.5Q381 534 366 534Q349 534 336.0 547.0Q323 560 323 577Q323 595 336.0 607.0Q349 619 366 619Q384 619 396.0 606.5Q408 594 408 577ZM614 572Q678 572 682 571H738Q694 709 674 734Q658 713 614 572ZM334 913Q339 906 339 834V830Q598 824 718 801Q688 835 576.5 868.0Q465 901 334 913ZM868 472H128Q127 469 121.5 441.0Q116 413 111 387H885Q880 413 874.5 441.0Q869 469 868 472ZM102 337Q99 322 79.0 220.5Q59 119 44 40H104L151 286Q155 302 171 302H825Q841 302 845 286L892 40H952Q937 119 917.0 220.5Q897 322 894 337Z" fill="currentColor"/>
  </g>
</svg>