<svg xmlns="http://www.w3.org/2000/svg" viewBox="0 0 1000 1000">
  <g transform="scale(1,-1) translate(0,-1000)">
    <path d="M248 926V807H752V926Q752 934 758.0 940.0Q764 946 772.0 946.0Q780 946 786.0 940.0Q792 934 792 926V807H960V926Q960 934 966.0 940.0Q972 946 980.0 946.0Q988 946 994.0 940.0Q1000 934 1000 926V471Q1000 463 993 456L896 374V20Q896 12 890.0 6.0Q884 0 876.0 0.0Q868 0 862.0 6.0Q856 12 856 20V374L759 456Q752 463 752 471V667H248V471Q248 463 241 456L144 374V20Q144 12 138.0 6.0Q132 0 124.0 0.0Q116 0 110.0 6.0Q104 12 104 20V374L7 456Q0 463 0 471V926Q0 934 6.0 940.0Q12 946 20.0 946.0Q28 946 34.0 940.0Q40 934 40 926V807H208V926Q208 934 214.0 940.0Q220 946 228.0 946.0Q236 946 242.0 940.0Q248 934 248 926ZM752 767H248V707H752ZM960 767H792V707H960ZM208 767H40V707H208ZM40 667V480L124 409L208 480V667ZM792 667V480L876 409L960 480V667Z" fill="currentColor"/>
  </g>
</svg>