<svg xmlns="http://www.w3.org/2000/svg" viewBox="0 0 327 1000">
  <g transform="scale(1,-1) translate(0,-1000)">
    <path d="M124 927Q132 926 132 926Q132 927 133.0 929.5Q134 932 134 933Q126 928 124 927ZM110 931Q109 933 109 935V936Q109 940 113 943Q103 941 101 939Q108 932 110 931ZM88 810Q107 787 120 781Q120 781 121.0 780.5Q122 780 123 780Q129 787 139.0 794.5Q149 802 152 811Q157 825 157 836Q157 837 156.5 839.5Q156 842 154.5 844.5Q153 847 153 848H149Q122 848 94 829Q100 828 100.0 819.0Q100 810 91 810ZM110 832Q110 843 124.0 843.0Q138 843 138 832Q138 822 124.0 822.0Q110 822 110 832ZM182 957Q182 959 181 962Q176 958 168 956L161 954Q157 950 151 922L152 921Q171 926 171 926Q180 951 182 955ZM127 879Q127 872 128 869Q146 872 150 872Q177 872 196 860L207 960Q201 949 197.0 935.5Q193 922 190.0 915.0Q187 908 181 906Q179 905 160.5 901.0Q142 897 128 891Q128 890 127.5 886.0Q127 882 127 879ZM192 420Q216 413 233.5 399.5Q251 386 251 376Q251 373 235 347Q223 326 215.5 315.0Q208 304 194.0 291.5Q180 279 165 275Q189 201 189 138Q189 68 158 7Q151 0 146 0Q138 0 134 7Q103 66 103 137Q103 198 128 275Q105 281 88.0 301.0Q71 321 44 369Q41 375 41 376Q41 381 47.5 389.5Q54 398 71.0 407.5Q88 417 109 422Q114 424 125.0 430.5Q136 437 159.0 455.0Q182 473 200.5 493.0Q219 513 234.0 542.5Q249 572 249 602Q249 642 220.0 663.5Q191 685 139 685Q112 685 82.5 679.5Q53 674 34.0 668.5Q15 663 14 663Q9 663 4.5 667.0Q0 671 0 676Q0 683 6 687Q56 720 101 735Q107 751 112 760Q110 761 106.0 763.0Q102 765 101.0 765.5Q100 766 97.5 767.5Q95 769 94.0 769.5Q93 770 91.5 771.0Q90 772 89.0 773.0Q88 774 87.0 775.0Q86 776 84.5 777.5Q83 779 82.0 780.5Q81 782 79 785Q70 797 62.5 803.5Q55 810 51.5 810.0Q48 810 46.0 812.0Q44 814 44 819Q44 827 50 830Q65 838 81.0 848.5Q97 859 105 862Q104 868 104 883Q104 902 117 909Q80 921 80 939Q80 950 92.0 956.5Q104 963 117 963Q129 963 137 949Q142 965 155.5 971.0Q169 977 171 982Q172 985 174.5 987.0Q177 989 179.5 990.0Q182 991 184.5 991.5Q187 992 188 992H190Q195 992 199 988Q208 999 214.0 999.0Q220 999 226.0 995.0Q232 991 232 986Q232 985 228.0 950.5Q224 916 219.0 880.0Q214 844 213 841Q213 841 215.5 833.5Q218 826 221.5 814.0Q225 802 228.5 788.5Q232 775 234.5 761.5Q237 748 237 739Q280 724 303.5 687.0Q327 650 327 605Q327 551 292.5 500.5Q258 450 192 420ZM203 456Q300 513 300 605Q300 655 267.5 688.5Q235 722 179 722Q150 722 117 712Q125 713 139 713Q154 713 171.0 710.0Q188 707 215.0 697.5Q242 688 259.0 663.5Q276 639 276 602Q276 526 203 456ZM130 137Q130 88 146 46Q162 90 162 138Q162 185 146 243Q130 185 130 137ZM72 375Q93 341 101.0 329.0Q109 317 119.5 308.5Q130 300 143 300H149Q167 300 179.0 314.0Q191 328 220 375Q196 397 146 399Q113 395 113 395H112Q85 388 72 375ZM214 746Q213 760 195 825Q192 837 178 843Q179 841 179 836Q179 802 161 784Q158 781 153.0 777.0Q148 773 146 771Q140 765 128 743Q155 749 179 749Q198 749 214 746Z" fill="currentColor"/>
  </g>
</svg>