<svg xmlns="http://www.w3.org/2000/svg" viewBox="-41.8 -39.8 686.6 1074.6">
  <g transform="scale(1,-1) translate(0,-1000)">
    <path d="M424 543Q408 429 360 405V23Q360 14 353.0 7.0Q346 0 337.0 0.0Q328 0 321.5 7.0Q315 14 315 23V404Q273 423 254 515L213 473Q225 384 225 380Q225 368 214 368Q204 368 203 378Q200 397 196.5 421.0Q193 445 192 453L172 433Q181 368 185 342V339Q185 328 174 328Q164 328 163 338Q160 357 156.5 381.0Q153 405 152 413L132 393Q141 328 145 302V299Q145 288 134.0 288.0Q123 288 122 298Q116 343 112 373L94 355Q88 349 81.0 349.0Q74 349 67.5 355.5Q61 362 61.0 369.0Q61 376 67 382L85 400Q5 411 3 413Q-2 418 1.0 425.5Q4 433 11 433Q11 433 14 433Q40 429 105 420L125 440Q47 451 44 454Q39 459 42.0 466.0Q45 473 52 473Q52 473 55 473Q81 469 146 460L166 480Q87 491 84 494Q79 499 82.0 506.0Q85 513 92 513Q92 513 95 513Q121 509 186 500L247 562Q243 599 243 645Q243 688 246 721L186 781Q121 772 95 768H92Q81 768 81 780Q81 790 90 791Q126 796 166 801L146 821Q57 809 52 809Q40 809 40 820Q40 830 50 831Q69 834 93.0 837.5Q117 841 125 842L105 862Q40 853 14 849H11Q0 849 0 860Q0 870 10 871Q29 874 53.0 877.5Q77 881 85 882L67 900Q61 906 61.0 913.0Q61 920 67.0 926.0Q73 932 81.0 932.0Q89 932 94 927L112 909Q123 987 126 990Q131 995 138.0 992.0Q145 989 145 982Q145 982 145 979Q141 953 132 888L152 868Q163 947 166 950Q171 955 178.0 952.0Q185 949 185 942Q185 942 185 939Q181 913 172 848L192 828Q203 907 206 910Q211 915 218.0 912.0Q225 909 225 902Q225 897 213 808L253 768Q275 890 337 890Q403 890 424 739L546 860L444 866L605 893L578 732L573 834L429 690Q430 675 430 645V623Q430 604 429 592L573 448L578 549L605 389L444 416L546 421ZM280 687Q279 673 279 644Q279 611 280 595L326 641ZM391 576 353 614 286 546Q303 436 337 436Q354 436 369.5 474.5Q385 513 391 576ZM285 736 353 668 392 706Q386 773 370.5 813.5Q355 854 337 854Q322 854 307.0 822.0Q292 790 285 736ZM394 627V644V655L380 641Z" fill="currentColor"/>
  </g>
</svg>