<svg xmlns="http://www.w3.org/2000/svg" viewBox="0 0 775 1000">
  <g transform="scale(1,-1) translate(0,-1000)">
    <path d="M228 710Q228 782 352 797L346 810Q263 828 260 833Q258 838 261.5 843.0Q265 848 271 847Q288 843 309.0 838.5Q330 834 335 833L325 855Q241 873 239 877Q237 882 240.5 887.0Q244 892 250 891Q267 887 288.0 882.5Q309 878 314 877L304 900Q220 918 218 922Q216 927 219.5 932.0Q223 937 229 936Q246 932 267.5 927.5Q289 923 294 922L284 942Q283 945 283 949Q283 956 288.0 960.5Q293 965 300 965Q310 965 314 956L323 936Q355 998 359 999Q365 1002 369.5 997.0Q374 992 372 986Q372 985 334 914L344 891Q376 953 380 954Q386 957 390.5 952.5Q395 948 393 942Q393 940 355 869L365 847Q397 908 401 909Q407 912 411.5 907.5Q416 903 414 897Q414 895 376 824L387 800Q419 802 433 802Q459 802 480 801L491 824Q452 897 452 902Q452 902 452 903L453 904Q455 909 461.0 909.5Q467 910 470 905Q500 849 501 847L511 869Q473 940 473 947V949Q475 954 481.5 954.5Q488 955 491 950Q514 908 522 891L532 914Q494 985 494 991V994Q496 999 502.5 999.0Q509 999 512 994Q542 938 543 936L552 956Q556 965 566 965Q573 965 578.5 960.5Q584 956 584 949Q584 948 582 942L573 922Q639 936 641 936Q642 936 642.0 935.5Q642 935 643 935Q649 932 649.0 925.5Q649 919 643 917Q643 917 562 900L552 877Q618 891 620 891H622Q628 888 628.0 881.0Q628 874 622 872Q622 872 541 855L531 833Q592 846 599 846H602Q608 843 607.5 836.5Q607 830 601 828Q601 828 597.5 827.0Q594 826 573.5 821.5Q553 817 520 810L514 798Q638 782 638 710V360H756Q764 360 769.5 354.0Q775 348 775.0 341.0Q775 334 769.5 328.0Q764 322 756 322H596V19Q596 11 590.5 5.5Q585 0 578 0Q570 0 564.5 6.0Q559 12 559 19V216L307 322H24Q0 322 0 340Q0 348 6.5 354.0Q13 360 23 360H228ZM369 761Q266 751 266 710V360H600V710Q597 752 498 762L451 662L562 424L597 505L571 365L448 435L533 410L433 623L334 410L418 435L295 365L269 505L304 424L415 662ZM404 764 433 701 463 764Q458 764 448.0 764.5Q438 765 433.0 765.0Q428 765 418.0 764.5Q408 764 404 764ZM380 322 559 246V322Z" fill="currentColor"/>
  </g>
</svg>