<svg xmlns="http://www.w3.org/2000/svg" viewBox="0 0 1002 1000">
  <g transform="scale(1,-1) translate(0,-1000)">
    <path d="M709 304V312Q705 312 695.5 308.0Q686 304 656.5 279.0Q627 254 592 210L566 178H980Q988 178 994.0 172.0Q1000 166 1000.0 158.0Q1000 150 994.0 144.0Q988 138 985 138H137V128Q137 49 120.0 24.5Q103 0 65 0Q48 0 39.5 1.5Q31 3 20.5 11.0Q10 19 5.5 38.0Q1 57 0 89Q0 122 16.0 150.0Q32 178 65 178H514V334Q514 342 520.0 348.0Q526 354 534.0 354.0Q542 354 548.0 348.0Q554 342 554 334V210Q600 267 612 279Q675 342 710 342Q739 342 739 309Q739 289 724 289Q718 289 713.5 293.5Q709 298 709 304ZM65 138Q55 138 48.5 125.0Q42 112 41.0 102.5Q40 93 40 89Q40 66 43.0 55.0Q46 44 49.5 42.0Q53 40 62 40Q88 40 93.0 46.5Q98 53 99 89Q97 123 91.0 130.5Q85 138 65 138Z" fill="currentColor"/>
  </g>
</svg>