<svg xmlns="http://www.w3.org/2000/svg" viewBox="0 0 726 1000">
  <g transform="scale(1,-1) translate(0,-1000)">
    <path d="M592 453Q646 453 646 491Q646 507 629.5 521.0Q613 535 598.5 541.0Q584 547 581 547L563 456Q580 453 592 453ZM542 554Q542 554 530.5 555.5Q519 557 501.0 558.5Q483 560 461.5 562.0Q440 564 415.5 565.5Q391 567 371 567Q314 567 226 556Q234 504 238 468H239Q345 477 361 477Q371 477 391.5 475.5Q412 474 434.0 472.0Q456 470 476.0 468.0Q496 466 510 464L524 463ZM550 338Q581 338 593.5 343.5Q606 349 606 364Q606 393 547 412L533 339Q539 338 550 338ZM508 419Q409 428 363 428Q309 428 245 421L254 350Q324 357 362 357Q421 357 494 346ZM580 236Q580 245 578.5 251.0Q577 257 565.0 267.5Q553 278 530 288L515 216Q539 212 549 212Q580 212 580 236ZM491 296Q409 306 366 306Q317 306 264 298H262Q272 243 275 228Q358 236 376 236Q427 235 476 224ZM282 193Q292 151 324.0 95.5Q356 40 380 40Q405 40 430.5 91.0Q456 142 468 189Q434 199 378 199Q336 199 282 193ZM187 550Q149 542 128.5 520.0Q108 498 108 478Q108 465 118.0 457.5Q128 450 134.5 449.0Q141 448 146 448Q156 448 199 461Q194 503 187 550ZM146 418Q134 418 120.0 422.0Q106 426 92.0 440.5Q78 455 78 478Q78 510 101 535Q148 579 198.5 592.5Q249 606 368 606Q402 606 440 603Q17 911 5 923Q0 928 0 933Q0 947 15 947Q18 947 20 946L717 687Q726 684 726 674Q726 672 716 639Q716 638 715.0 636.0Q714 634 710.5 631.5Q707 629 702 629Q696 629 635.5 651.5Q575 674 550 674Q527 674 510.0 659.5Q493 645 480.0 626.0Q467 607 458 602Q539 596 579.5 583.5Q620 571 656 537Q676 520 676 491Q676 456 650.5 439.5Q625 423 592 423H584Q585 423 586 422Q633 399 633 365Q632 354 630.5 348.0Q629 342 623.5 332.5Q618 323 605.5 317.0Q593 311 574 308Q572 308 548 311V307Q604 284 604 239Q604 222 600.0 211.5Q596 201 578.5 192.5Q561 184 528 184Q524 184 517.5 184.5Q511 185 508 185Q508 183 503.0 165.0Q498 147 487.5 119.0Q477 91 462.5 64.5Q448 38 426.0 19.0Q404 0 380 0Q368 0 355.5 5.0Q343 10 333.0 19.0Q323 28 313.0 40.0Q303 52 295.0 65.5Q287 79 279.5 93.5Q272 108 266.5 121.0Q261 134 256.5 146.5Q252 159 249.5 168.0Q247 177 245 182L243 188Q207 179 195 179Q143 179 143 233Q143 255 160.5 279.5Q178 304 206 310L205 313Q185 307 168 307Q161 307 150.5 308.5Q140 310 124.0 321.5Q108 333 108 354Q108 392 152 419Q151 419 149.0 418.5Q147 418 146 418ZM205 416Q132 395 132 357Q132 334 166 334Q177 334 215 344Q211 368 205 416ZM223 291Q201 286 185.0 269.5Q169 253 169 234Q169 211 198 211Q202 211 236 220ZM550 703Q574 703 638 680Q672 668 693 661L694 665L110 882L449 633Q452 637 464.0 652.0Q476 667 484 675Q512 703 550 703Z" fill="currentColor"/>
  </g>
</svg>