<svg xmlns="http://www.w3.org/2000/svg" viewBox="0 0 997 1000">
  <g transform="scale(1,-1) translate(0,-1000)">
    <path d="M45 866V696H952V866ZM397 575V578Q403 627 442 651H22Q13 651 6.5 660.0Q0 669 0 679V894Q0 904 6.0 910.5Q12 917 22 917H56V960Q56 970 63.5 977.5Q71 985 81.0 985.0Q91 985 98.5 977.5Q106 970 106 960V917H196V962Q196 972 203.5 979.5Q211 987 221.0 987.0Q231 987 238.5 979.5Q246 972 246 962V917H334V960Q334 970 341.5 977.5Q349 985 359.0 985.0Q369 985 376.5 977.5Q384 970 384 960V917H473V962Q473 972 480.5 979.5Q488 987 498.0 987.0Q508 987 515.5 979.5Q523 972 523 962V917H611V963Q611 973 618.5 980.5Q626 988 636.0 988.0Q646 988 653.5 980.5Q661 973 661 963V917H750V965Q750 975 757.5 982.5Q765 990 775.0 990.0Q785 990 792.5 982.5Q800 975 800 965V917H888V961Q888 971 895.5 978.5Q903 986 913.0 986.0Q923 986 930.5 978.5Q938 971 938 961V917H974Q983 917 990.0 908.0Q997 899 997 889V673Q997 664 990.5 657.5Q984 651 974 651H558Q602 625 603 573V286Q603 276 596.0 269.0Q589 262 579 262Q568 262 560.5 269.5Q553 277 553 287V573Q552 597 535.5 607.5Q519 618 499.0 618.0Q479 618 463.0 606.5Q447 595 447 574V25H448Q448 15 441.0 7.5Q434 0 424 0Q413 0 405.5 7.5Q398 15 398 25Z" fill="currentColor"/>
  </g>
</svg>