<svg xmlns="http://www.w3.org/2000/svg" viewBox="0 0 730 1000">
  <g transform="scale(1,-1) translate(0,-1000)">
    <path d="M509 968Q432 968 424 895V368H604Q581 486 557.0 602.0Q533 718 521 775L509 832Q509 846 522 848Q577 859 577 901Q577 928 558.0 948.0Q539 968 509 968ZM331 895Q322 968 246 968Q216 968 197.0 948.0Q178 928 178 901Q178 859 233 848Q246 846 246 832Q246 824 151 368H331ZM553 196Q553 186 551.0 173.5Q549 161 542.5 139.0Q536 117 517.5 102.5Q499 88 471 88Q432 88 397 101V20Q397 12 391.0 6.0Q385 0 377.0 0.0Q369 0 363.0 6.0Q357 12 357 20V120Q325 138 297.5 170.0Q270 202 187 315H23Q0 315 0 334Q0 355 21 355H116Q117 359 128.5 414.5Q140 470 163.0 581.0Q186 692 212 821Q200 824 187.5 830.5Q175 837 160.5 856.5Q146 876 146 902Q146 941 174.5 970.5Q203 1000 246 1000Q302 1000 333 969Q363 939 363 896V355H392V896Q392 944 426.0 972.0Q460 1000 509 1000Q552 1000 580.5 970.5Q609 941 609 902Q609 894 607.0 886.0Q605 878 599.5 864.5Q594 851 579.5 839.5Q565 828 543 821Q613 477 639 355H710Q718 355 724.0 349.0Q730 343 730.0 335.0Q730 327 724.0 321.0Q718 315 710 315H515Q553 262 553 196ZM357 315H224Q268 257 283.5 236.0Q299 215 320.0 192.0Q341 169 357 157ZM397 315V134Q434 118 471 118Q500 118 511.5 142.5Q523 167 523 196Q523 266 478 313L476 315Z" fill="currentColor"/>
  </g>
</svg>