<svg xmlns="http://www.w3.org/2000/svg" viewBox="0 0 974 1000">
  <g transform="scale(1,-1) translate(0,-1000)">
    <path d="M880 589Q880 605 904.5 614.5Q929 624 929 639Q929 653 919.0 663.5Q909 674 893 674Q849 674 844 633V173Q880 199 946 211Q880 588 880 589ZM480 673H487Q511 673 522.0 658.5Q533 644 536.5 625.0Q540 606 543 603Q543 603 553.0 596.0Q563 589 575.5 582.0Q588 575 593 575Q594 576 594 579Q594 584 589 598Q584 611 578.0 620.5Q572 630 562.5 643.0Q553 656 547 665Q526 700 526 704Q526 715 538 715Q544 715 547 710Q554 701 557.0 694.0Q560 687 566 678Q571 671 581.5 656.5Q592 642 598.5 631.0Q605 620 610 606Q617 588 617 579V574H817H818V633Q818 660 841.5 679.5Q865 699 891 699H893Q920 699 937.5 681.5Q955 664 955 639Q955 604 915 591Q913 590 910.0 589.0Q907 588 906 588Q974 202 974 200Q974 189 957.0 187.0Q940 185 906.5 176.0Q873 167 844 140V94Q859 100 877.5 111.5Q896 123 909.5 131.0Q923 139 930 139Q940 139 947.0 132.0Q954 125 954 116Q954 105 943 98Q877 59 858 52Q797 28 755 28Q732 28 697.5 44.0Q663 60 627 60Q610 60 589.5 39.5Q569 19 546 10Q522 0 487 0Q453 0 429 10Q406 19 385.5 39.5Q365 60 348 60Q312 60 277.0 44.0Q242 28 219 28Q178 28 117 52Q98 59 32 98Q20 106 20 116Q20 125 27.5 132.0Q35 139 45 139Q52 139 63.0 132.5Q74 126 93.0 115.0Q112 104 130 96V148Q101 175 67.5 184.0Q34 193 17.0 195.0Q0 197 0 208Q0 210 68 596Q67 596 64.0 597.0Q61 598 59 599Q19 612 19 647Q19 672 36.5 689.5Q54 707 81 707H83Q109 707 132.5 687.5Q156 668 156 641V574H355V579Q355 585 362 606Q368 620 374.5 631.0Q381 642 391.0 655.5Q401 669 406 677Q426 708 427 710Q430 715 436 715Q447 715 447 703Q425 664 425 664Q419 654 409.5 641.5Q400 629 394.0 619.5Q388 610 383 597Q378 583 378.0 579.0Q378 575 379 574Q382 577 394.0 584.0Q406 591 417.0 597.0Q428 603 429 603Q429 604 430 603Q434 609 436.0 626.5Q438 644 446 654Q457 671 480 673ZM494 259Q458 259 430.5 229.5Q403 200 403 168Q403 132 430.0 102.5Q457 73 494.0 73.0Q531 73 558.0 100.5Q585 128 585 168Q585 210 558.5 234.5Q532 259 494 259ZM94 597Q94 596 28 219Q94 207 130 181V641Q125 682 81 682Q65 682 55.0 671.5Q45 661 45 647Q45 632 69.5 622.5Q94 613 94 597ZM167 530Q211 545 215 545Q226 545 226 534Q226 526 218 524Q185 514 172 509Q175 498 180.5 491.0Q186 484 190.0 482.0Q194 480 202 477Q210 485 253 522Q257 524 261 524Q272 524 272 513Q272 510 268 506L228 471Q258 463 286 462Q287 465 289.0 470.0Q291 475 294.5 485.0Q298 495 302 506Q304 513 312 513Q323 513 323 502Q323 500 309 460H363Q365 469 366 494Q368 504 376 504Q387 504 387 493V461H391Q392 461 394 460Q396 474 401.0 492.5Q406 511 406 516Q406 519 396 552H385Q382 551 379 551Q377 552 374 552H372H165Q165 544 167 530ZM563 428Q563 441 561.5 452.5Q560 464 558.0 472.5Q556 481 553.5 487.0Q551 493 550 496L548 500Q548 503 549 504Q515 491 499 476L495 463V436H498Q531 436 556 392Q563 420 563 428ZM409 428Q409 397 424 385Q442 423 476 433V464L473 476Q459 489 424 504Q424 503 423 503Q424 502 424 499Q424 498 421.0 492.5Q418 487 414.5 474.0Q411 461 410 443V441Q410 440 410 439L409 437ZM756 545Q758 545 804 530Q806 544 806 552H598H593H588H576Q575 548 571.0 532.0Q567 516 567 509Q576 481 579 461H584V493Q584 504 595 504Q604 504 606 494Q606 488 606.5 479.5Q607 471 607.5 467.0Q608 463 608 460H643H662Q648 500 648 502Q648 513 659 513Q665 513 669.0 506.0Q673 499 685 461Q714 462 744 470Q703 505 703 505Q700 508 700 513Q700 524 711 524Q712 524 718 521Q768 478 769 477Q777 479 782.0 481.5Q787 484 792.0 490.5Q797 497 800 508Q777 517 753 524Q745 526 745 534Q745 545 756 545ZM492 654Q492 654 489 654Q489 654 485 654Q472 654 461 643Q456 636 454.0 622.5Q452 609 450 603H477Q477 603 480 603H522Q520 609 518.0 622.5Q516 636 511 643Q504 653 492 654ZM556 575Q554 577 546.0 580.0Q538 583 535 585H437Q434 583 429.0 581.0Q424 579 420.5 577.5Q417 576 417 574Q414 562 414 562Q414 557 415.5 551.0Q417 545 419.0 537.0Q421 529 422 524Q458 508 466.0 504.0Q474 500 486 489Q508 508 550 525Q551 530 553.0 538.0Q555 546 556.5 552.0Q558 558 558.0 563.0Q558 568 556 574ZM439 381Q473 363 486 363H492Q502 364 509.0 366.5Q516 369 526.0 374.5Q536 380 542 383Q516 407 493 407Q468 407 439 381ZM156 87Q198 73 219 73Q220 73 272.0 89.0Q324 105 348 105Q378 105 401 88Q372 123 372 167Q372 218 409.0 253.5Q446 289 494 289Q547 289 581.5 253.0Q616 217 616 167Q616 131 591 98Q608 105 627 105Q640 105 693.5 90.5Q747 76 771 76Q781 76 785 77Q814 84 818 85V494Q807 466 784 459Q720 438 642 438H624Q622 438 609.0 438.5Q596 439 589 439Q616 410 622 392Q634 352 634 342Q634 324 617.5 315.5Q601 307 558 307Q551 312 550.0 321.0Q549 330 556 331Q608 335 608 358Q608 368 602 385Q598 396 580 416Q578 393 565 377Q565 374 554.0 365.5Q543 357 522.5 348.5Q502 340 482 340Q446 340 417 368Q400 384 393 416Q375 397 371 384Q364 365 364 357Q364 335 417 331Q424 330 422.5 320.5Q421 311 414 306Q371 306 354.5 314.5Q338 323 338 341Q338 351 350 391Q357 412 384 439H364H330Q249 439 188 459Q168 466 156 488Z" fill="currentColor"/>
  </g>
</svg>