<svg xmlns="http://www.w3.org/2000/svg" viewBox="0 0 1000 1000">
  <g transform="scale(1,-1) translate(0,-1000)">
    <path d="M366 158Q374 158 377.5 138.5Q381 119 382 119V117Q382 106 364 106Q361 106 352.5 85.0Q344 64 333.5 39.5Q323 15 316 8Q308 0 289 0H288Q273 0 267.5 3.0Q262 6 255 16Q252 20 235.0 61.0Q218 102 213 106Q212 107 208.5 107.5Q205 108 202.0 108.5Q199 109 196.5 111.5Q194 114 194 118V120L200 151Q202 159 210 159Q212 159 221.5 156.0Q231 153 234 153Q243 153 243.5 175.5Q244 198 254 198H273V324H20Q12 324 6.0 330.0Q0 336 0 344V444Q0 452 6.0 458.0Q12 464 20 464H164V769Q164 774 166.0 783.0Q168 792 183.0 805.0Q198 818 224.0 818.0Q250 818 265.0 805.0Q280 792 282.0 783.0Q284 774 284 769V464H296V769Q296 774 298.0 783.0Q300 792 315.0 805.0Q330 818 356.0 818.0Q382 818 397.0 805.0Q412 792 414.0 783.0Q416 774 416 769V464H980Q988 464 994.0 458.0Q1000 452 1000 444V344Q1000 336 994.0 330.0Q988 324 980 324H303V198L322 197Q331 197 331 188L332 165V162Q339 152 342.0 152.0Q345 152 354.5 155.0Q364 158 366 158ZM312 178 288 179H264L263 168H313ZM359 137Q348 133 342 133Q335 133 330.5 135.5Q326 138 324.0 140.0Q322 142 318 149H258Q253 134 234 134Q228 134 217 138L215 126Q221 124 224.0 122.5Q227 121 230.5 116.5Q234 112 235.0 109.0Q236 106 241 96Q241 94 270 27Q276 19 289 19H290Q300 19 305 26Q335 91 335 95Q347 123 361 125ZM960 364V424H40V364ZM254 464V768Q250 788 224.0 788.0Q198 788 194 768V464ZM326 464H386V768Q382 788 356.0 788.0Q330 788 326 768Z" fill="currentColor"/>
  </g>
</svg>