<svg xmlns="http://www.w3.org/2000/svg" viewBox="-44 158 997.9 878.9">
  <g transform="scale(1,-1) translate(0,-1000)">
    <path d="M305 661Q312 661 317 654L418 499Q486 544 559 568L517 750Q516 753 518 759Q523 773 537 768Q545 764 547 757L588 577Q672 603 779 610V784Q779 805 798 805Q807 805 813.0 799.0Q819 793 819 784V564H877V784Q877 805 896 805Q905 805 911.0 799.0Q917 793 917 784V155V20Q917 0 897 0H799H739H174Q154 0 154 21Q159 109 188 195L10 250Q5 252 3 254Q-7 265 5 275Q10 280 19 278L198 223Q227 296 269 356L120 468Q116 472 115 475Q110 489 124 494Q131 498 138 492L287 380Q334 439 393 482L292 638Q290 640 290.0 646.0Q290 652 294.5 656.5Q299 661 305 661ZM779 368V570Q750 568 718.0 563.5Q686 559 629.0 544.0Q572 529 521.0 507.0Q470 485 412.0 444.0Q354 403 311.0 350.0Q268 297 235.5 216.5Q203 136 195 40H482H779ZM819 524V40H877V368V524Z" fill="currentColor"/>
  </g>
</svg>