<svg xmlns="http://www.w3.org/2000/svg" viewBox="0 0 671 1000">
  <g transform="scale(1,-1) translate(0,-1000)">
    <path d="M496 585H40V440H496ZM0 605Q0 613 6.0 619.0Q12 625 20 625H384Q384 625 384 912Q384 920 390.0 926.0Q396 932 404 932H651Q659 932 665.0 926.0Q671 920 671 912V20Q671 12 665.0 6.0Q659 0 651 0H404Q396 0 390.0 6.0Q384 12 384 20V400H20Q12 400 6.0 406.0Q0 412 0 420ZM424 400V40H631V892H424V625H516Q524 625 530.0 619.0Q536 613 536 605V420Q536 412 530.0 406.0Q524 400 516 400Z" fill="currentColor"/>
  </g>
</svg>