<svg xmlns="http://www.w3.org/2000/svg" viewBox="0 0 959 1000">
  <g transform="scale(1,-1) translate(0,-1000)">
    <path d="M654 483Q649 506 631.0 522.0Q613 538 589 538Q566 538 548.5 522.5Q531 507 526 483ZM496 470Q496 508 522.5 537.0Q549 566 589.0 566.0Q629 566 656.0 536.5Q683 507 683 470V469Q683 455 669 455H510Q496 455 496 469ZM919 82H59V40H919ZM126 574Q66 663 66 663Q65 665 65 668Q65 676 78.0 688.0Q91 700 92 707Q92 708 92.5 711.0Q93 714 93 716Q93 738 75 738Q63 738 49.0 729.0Q35 720 31 711Q27 703 27 688Q27 643 99 474Q113 443 130 400Q142 427 150 439Q156 448 166.5 455.0Q177 462 183.5 466.0Q190 470 190 475Q190 495 158 534ZM591 911V832L907 753V932ZM123 325Q155 254 157 237Q157 222 123 122H209Q176 217 176 234V237Q176 256 211 326Q195 328 169 328Q148 328 123 325ZM231 303Q205 253 205 234Q205 212 228 152Q228 151 239 122H264Q231 302 231 303ZM839 430Q850 430 863.5 421.5Q877 413 877 403L878 198Q878 191 873.0 186.5Q868 182 861 182H319Q312 182 307.0 187.0Q302 192 302 199V396Q302 404 314.0 418.0Q326 432 341 432Q365 432 380.5 417.5Q396 403 404.0 382.5Q412 362 418.5 342.0Q425 322 434.5 307.5Q444 293 459 293Q478 293 491.5 315.0Q505 337 512.5 363.5Q520 390 539.5 412.0Q559 434 589 434Q620 434 640.5 412.0Q661 390 669.0 363.0Q677 336 692.0 314.0Q707 292 727 292Q743 292 754.0 313.5Q765 335 771.0 361.0Q777 387 794.5 408.5Q812 430 839 430ZM342 399Q339 396 335 390V215H845L844 395Q840 397 839 397Q823 397 812.0 375.5Q801 354 795.0 328.0Q789 302 771.5 280.5Q754 259 727 259Q696 259 676.0 281.0Q656 303 647.5 330.0Q639 357 624.5 379.0Q610 401 589 401Q570 401 556.5 379.0Q543 357 535.5 330.5Q528 304 508.5 282.0Q489 260 459 260Q431 260 413.0 281.5Q395 303 388.5 329.0Q382 355 370.5 377.0Q359 399 342 399ZM959 20Q959 12 953.0 6.0Q947 0 939 0H39Q31 0 25.0 6.0Q19 12 19 20V102Q19 119 36 122Q44 181 58.5 253.5Q73 326 88 341Q97 350 121 355Q38 548 15 611Q0 648 0 686Q0 721 19 739Q33 752 53 762Q63 766 73 766Q106 766 116 739Q119 730 119.0 714.0Q119 698 115 690Q112 684 95 667Q104 654 121.0 629.0Q138 604 149 588Q155 578 179.0 550.0Q203 522 211 500Q216 485 216 475Q216 461 210.0 454.0Q204 447 190.0 439.0Q176 431 172 424Q169 419 152 381L161 360H172Q242 360 254 327Q263 300 293 122H908V712L566 797Q551 800 551 816V930Q551 948 569 950L925 974Q926 974 928.5 974.5Q931 975 932 975Q942 975 949.5 967.5Q957 960 957 950L958 116Q959 102 959 102V95ZM65 122H92Q128 222 128 237V239Q128 252 101 306Q94 287 87.5 253.5Q81 220 78 207Z" fill="currentColor"/>
  </g>
</svg>