<svg xmlns="http://www.w3.org/2000/svg" viewBox="0 0 204 1000">
  <g transform="scale(1,-1) translate(0,-1000)">
    <path d="M136 206Q136 236 153 328H51Q68 236 68 206V205Q68 165 51 99Q51 99 42 63Q70 41 101 40Q135 43 162 64Q161 70 158.5 81.5Q156 93 154 99Q136 169 136 205ZM0 56Q0 61 14.0 114.5Q28 168 28 205V206Q28 238 18.0 291.0Q8 344 8 348Q8 356 14.0 362.0Q20 368 28 368H33Q12 526 12 660Q12 718 16.0 774.5Q20 831 41.5 898.5Q63 966 100 971H102Q141 971 167.0 891.0Q193 811 193 660Q193 526 172 368H176Q184 368 190.0 362.0Q196 356 196 348Q196 344 186.0 291.5Q176 239 176 206V205Q176 168 190.0 114.5Q204 61 204 56Q204 39 168.0 19.5Q132 0 101 0Q66 0 33.0 20.5Q0 41 0 56ZM142 368Q163 529 163 660Q163 816 135 894Q118 936 103 941Q89 937 76.0 910.0Q63 883 52.5 817.5Q42 752 42 660Q42 537 64 368Z" fill="currentColor"/>
  </g>
</svg>