<svg xmlns="http://www.w3.org/2000/svg" viewBox="0 0 988 1000">
  <g transform="scale(1,-1) translate(0,-1000)">
    <path d="M272 362Q279 362 284 358Q323 328 374.0 300.5Q425 273 461.5 258.0Q498 243 561 219Q575 213 601.5 203.5Q628 194 638 190Q851 278 936 339Q930 344 920.0 353.5Q910 363 904 367Q846 418 809.0 447.5Q772 477 713.5 512.0Q655 547 596 567Q508 553 437.0 531.0Q366 509 316.5 484.0Q267 459 228.5 423.0Q190 387 166.0 354.5Q142 322 122.0 275.0Q102 228 90.0 190.5Q78 153 63 98V97Q53 59 47 40H103Q119 270 262 359Q266 362 272 362ZM20 0Q12 0 6.0 6.0Q0 12 0 20Q0 24 1 26Q4 37 12.0 65.0Q20 93 24 108Q41 171 51.5 204.0Q62 237 85.0 292.0Q108 347 132.5 378.0Q157 409 200.0 451.0Q243 493 295.5 518.5Q348 544 424.5 568.5Q501 593 595 608H598Q602 608 604 607Q653 591 698.0 569.0Q743 547 787.0 514.5Q831 482 858.0 459.5Q885 437 931 397Q982 352 982 352Q988 346 988 338Q988 328 980 322Q937 288 874.5 254.0Q812 220 771.0 202.5Q730 185 646 150Q642 148 638 148Q632 148 630 149Q603 160 547 182Q485 205 450.0 219.5Q415 234 363.0 261.0Q311 288 271 318Q151 236 142 19Q142 11 136.0 5.5Q130 0 122 0Z" fill="currentColor"/>
  </g>
</svg>