<svg xmlns="http://www.w3.org/2000/svg" viewBox="-23.6 386.4 615.2 637.2">
  <g transform="scale(1,-1) translate(0,-1000)">
    <path d="M0 570Q0 578 6.0 584.0Q12 590 20 590H548Q556 590 562.0 584.0Q568 578 568 570V338V252V20Q568 12 562.0 6.0Q556 0 548 0H416H400H284H20Q12 0 6.0 6.0Q0 12 0 20V252V338ZM172 358H264V550H172ZM132 358V550H40V358ZM528 318H40V272H528ZM304 358H396V550H304ZM436 358H528V550H436ZM172 40H264V232H172ZM132 40V232H40V40ZM304 40H396V232H304ZM436 40H528V232H436Z" fill="currentColor"/>
  </g>
</svg>