<svg xmlns="http://www.w3.org/2000/svg" viewBox="0 0 999 1000">
  <g transform="scale(1,-1) translate(0,-1000)">
    <path d="M93 172Q93 52 140 52H141Q143 61 249 532Q252 544 264 544H300Q271 641 207 662H170Q162 662 156.0 668.0Q150 674 150.0 682.0Q150 690 156.0 696.0Q162 702 170 702H415Q414 705 411 725Q387 713 365 713Q340 713 333 730Q319 765 313.5 836.5Q308 908 295 921Q276 940 172 940Q104 940 89 928Q62 909 54.0 880.5Q46 852 44 796Q42 734 36 728Q33 725 26 725Q20 725 15.5 729.5Q11 734 11 740Q11 740 11.0 742.0Q11 744 11.5 748.0Q12 752 12.5 758.0Q13 764 13.5 774.5Q14 785 14 797Q15 838 17.5 859.5Q20 881 33.0 908.0Q46 935 71 953Q95 970 172 970Q279 970 310 948Q330 934 336.0 900.0Q342 866 346.0 818.5Q350 771 360 743H366Q385 743 406 758Q406 764 410.5 768.5Q415 773 421 773H582Q588 773 592.5 768.5Q597 764 597 758V756Q613 743 634 743H640Q650 771 654.0 818.5Q658 866 664.0 900.0Q670 934 690 948Q721 970 828 970Q905 970 929 953Q954 935 967.0 908.0Q980 881 982.5 859.5Q985 838 986 797Q986 785 986.5 774.5Q987 764 987.5 758.0Q988 752 988.5 748.0Q989 744 989 742V740Q989 734 984.5 729.5Q980 725 974 725Q956 725 956 778V796Q956 896 911 928Q896 940 828 940Q724 940 705 921Q692 908 686.5 836.5Q681 765 667 730Q660 713 635 713Q611 713 591 723Q590 714 588 702H832Q840 702 846.0 696.0Q852 690 852.0 682.0Q852 674 846.0 668.0Q840 662 832 662H792Q728 638 702 544H738Q750 544 753 532Q786 386 822.5 222.5Q859 59 861 52Q906 54 906 172Q906 200 877.5 245.5Q849 291 849.0 324.0Q849 357 869 384L796 605Q796 605 795.5 607.0Q795 609 795 610Q795 617 800.5 621.0Q806 625 810 625Q816 625 819 619L868 504Q884 514 891 518Q939 546 948 566Q944 562 938 562H935Q932 562 928.5 564.0Q925 566 921.5 572.5Q918 579 918 588Q918 603 924.0 613.5Q930 624 941 624Q950 624 960.0 616.5Q970 609 970 590V586Q970 557 953.5 539.0Q937 521 900 499H959Q969 499 969 486Q965 427 964 417Q999 410 999 384Q999 355 968 355Q982 335 982 299Q982 278 975.5 230.5Q969 183 968 171Q958 76 922 34Q928 26 928 20Q928 12 922.0 6.0Q916 0 908 0H94Q86 0 80.0 6.0Q74 12 74.0 20.0Q74 28 78 32Q41 73 31 171Q31 171 29.5 182.0Q28 193 26.5 209.5Q25 226 23.0 243.5Q21 261 19.5 276.5Q18 292 18 299Q18 337 31 355Q0 355 0 384Q0 395 8 404Q7 405 4.0 411.5Q1 418 1 420Q1 441 31 496Q42 515 65.5 535.5Q89 556 103 583Q123 623 139 623Q160 623 160 594V591Q160 582 152.0 562.5Q144 543 143 535Q140 513 140.0 482.5Q140 452 137.5 433.5Q135 415 126 406Q125 404 122 404H110Q150 376 150 324Q150 291 121.5 245.5Q93 200 93 172ZM111 428Q115 448 115.5 483.0Q116 518 119 541Q121 553 127.0 567.5Q133 582 134 586Q112 548 110 546Q102 536 84 519Q49 486 33 428ZM557 702Q559 710 564 743H439Q444 710 446 702ZM833 40 726 514H503H501H499H276L169 40ZM265 662Q313 620 331 544H499H501H503H671Q688 618 736 662ZM103 370Q103 362 93.0 359.5Q83 357 71.0 357.0Q59 357 49.0 343.0Q39 329 39 300Q39 280 45.5 233.0Q52 186 53 173Q62 74 101 40H110Q72 68 72 172Q72 206 100.5 251.0Q129 296 129 323Q129 352 111.0 375.0Q93 398 59 398Q22 398 22 384Q22 376 33 376Q39 376 56.5 378.5Q74 381 83 381Q103 381 103 370ZM170 83Q172 91 172 97ZM927 172Q927 67 889 40H898Q938 74 947 173Q949 190 952.5 217.5Q956 245 958.0 264.5Q960 284 960 300Q960 329 950.0 343.0Q940 357 928.5 357.0Q917 357 907.0 359.5Q897 362 897 370Q897 381 917 381Q926 381 943.5 378.5Q961 376 967 376Q978 376 978 384Q978 398 941 398Q907 398 889.0 375.0Q871 352 871 324Q871 297 899.0 251.5Q927 206 927 172ZM944 419Q944 432 948 475H864Q861 475 859 477Q880 415 887 402Q910 419 941 419Z" fill="currentColor"/>
  </g>
</svg>