<svg xmlns="http://www.w3.org/2000/svg" viewBox="0 0 837 1000">
  <g transform="scale(1,-1) translate(0,-1000)">
    <path d="M652 654Q652 633 656.0 611.0Q660 589 671.5 558.5Q683 528 709.5 498.5Q736 469 775 447H812Q822 447 829.5 439.5Q837 432 837.0 422.0Q837 412 829.5 404.5Q822 397 812 397H418V272H605Q615 272 615 295Q615 316 602 317H506Q489 317 489.0 334.0Q489 351 506 351H603Q621 351 635.5 336.0Q650 321 650 294Q650 269 636.5 253.5Q623 238 605 238H418V25Q418 14 411.0 7.0Q404 0 393.0 0.0Q382 0 375.0 7.0Q368 14 368 25V238H181Q163 238 149.5 253.5Q136 269 136 294Q136 321 150.5 336.0Q165 351 183 351H280Q297 351 297.0 334.0Q297 317 280 317H184Q171 316 171 295Q171 272 181 272H368V397H361Q345 397 338 412Q68 566 12 879Q0 886 0 901Q0 912 7.0 919.0Q14 926 25 926H368V975Q368 986 375.0 993.0Q382 1000 393.0 1000.0Q404 1000 411.0 993.0Q418 986 418 975V926H790Q800 926 807.5 919.0Q815 912 815.0 901.0Q815 890 807.5 883.0Q800 876 790 876H762Q738 856 716.5 830.5Q695 805 673.5 756.0Q652 707 652 654ZM713 447Q617 529 617 653Q617 779 711 876H659L418 460V447ZM368 447V454L124 876H49Q105 588 351 445Q357 447 361 447ZM368 524V876H165ZM418 876V529L618 876Z" fill="currentColor"/>
  </g>
</svg>