<svg xmlns="http://www.w3.org/2000/svg" viewBox="-39.9 618.1 1077.8 421.8">
  <g transform="scale(1,-1) translate(0,-1000)">
    <path d="M599 290Q599 303 590.5 311.0Q582 319 570.0 319.0Q558 319 549.0 310.5Q540 302 540 290Q540 277 549.0 268.0Q558 259 570.0 259.0Q582 259 590.5 268.5Q599 278 599 290ZM518 290Q518 311 533.5 326.5Q549 342 570.0 342.0Q591 342 606.0 327.0Q621 312 621.0 290.0Q621 268 606.5 252.5Q592 237 570.0 237.0Q548 237 533.0 252.5Q518 268 518 290ZM795 222Q795 209 803.5 200.5Q812 192 824.0 192.0Q836 192 845.0 201.0Q854 210 854.0 222.0Q854 234 845.0 242.5Q836 251 824.0 251.0Q812 251 803.5 242.5Q795 234 795 222ZM772 222Q772 243 787.5 258.5Q803 274 824.0 274.0Q845 274 860.5 259.0Q876 244 876.0 222.0Q876 200 861.0 184.5Q846 169 824.0 169.0Q802 169 787.0 184.5Q772 200 772 222ZM734 271Q734 284 725.5 292.0Q717 300 705 300Q692 300 683.5 291.0Q675 282 675 271Q675 258 684.0 249.0Q693 240 705.0 240.0Q717 240 725.5 249.5Q734 259 734 271ZM653 271Q653 292 668.5 307.5Q684 323 705.0 323.0Q726 323 741.0 308.0Q756 293 756.0 271.0Q756 249 741.5 233.5Q727 218 705.0 218.0Q683 218 668.0 233.5Q653 249 653 271ZM394 290Q394 278 402.5 269.0Q411 260 423.0 260.0Q435 260 444.0 268.5Q453 277 453 290Q453 302 444.5 310.5Q436 319 423 319Q411 319 402.5 311.0Q394 303 394 290ZM475 290Q475 268 460.0 252.5Q445 237 423.0 237.0Q401 237 386.0 252.5Q371 268 371.0 290.0Q371 312 386.5 327.0Q402 342 423.0 342.0Q444 342 459.5 326.5Q475 311 475 290ZM198 222Q198 234 189.5 242.5Q181 251 169.0 251.0Q157 251 148.0 242.5Q139 234 139.0 222.0Q139 210 148.0 201.0Q157 192 169.0 192.0Q181 192 189.5 200.5Q198 209 198 222ZM220 222Q220 200 205.5 184.5Q191 169 169.0 169.0Q147 169 132.0 184.5Q117 200 117.0 222.0Q117 244 132.5 259.0Q148 274 169.0 274.0Q190 274 205.0 258.5Q220 243 220 222ZM259 271Q259 259 267.5 250.0Q276 241 288.0 241.0Q300 241 309.0 249.5Q318 258 318 271Q318 282 309.0 291.0Q300 300 288.0 300.0Q276 300 267.5 292.0Q259 284 259 271ZM340 271Q340 249 325.0 233.5Q310 218 288.0 218.0Q266 218 251.0 233.5Q236 249 236.0 271.0Q236 293 251.5 308.0Q267 323 288.0 323.0Q309 323 324.5 307.5Q340 292 340 271ZM909 48Q922 48 930.0 49.5Q938 51 946.5 62.0Q955 73 955 94Q955 133 915 153Q885 167 885 179Q885 185 892.5 188.0Q900 191 908 192H915Q947 192 972.5 164.0Q998 136 998 94Q998 80 995.0 67.5Q992 55 983.5 39.0Q975 23 955.0 13.5Q935 4 906 4Q841 4 712.0 40.0Q583 76 509 76Q428 76 294.0 38.0Q160 0 94 0Q79 0 65.0 3.5Q51 7 35.0 16.0Q19 25 9.5 45.5Q0 66 0 96Q0 140 25.0 167.5Q50 195 82 195Q113 194 113 181Q113 173 95.5 164.5Q78 156 60.5 139.5Q43 123 43 95Q43 71 53.5 58.5Q64 46 72.5 44.5Q81 43 94 43Q154 43 294.0 83.5Q434 124 502 124Q584 124 715.5 86.0Q847 48 909 48Z" fill="currentColor"/>
  </g>
</svg>