<svg xmlns="http://www.w3.org/2000/svg" viewBox="0 0 994 1000">
  <g transform="scale(1,-1) translate(0,-1000)">
    <path d="M237 258Q237 258 226.5 259.0Q216 260 203.5 262.0Q191 264 188 268L145 205Q151 201 162.0 194.0Q173 187 179.0 184.0Q185 181 200.0 177.5Q215 174 237 173ZM77 125Q58 91 57 78V77Q57 67 71.5 54.0Q86 41 102 41Q115 41 133.0 57.5Q151 74 193 130Q184 131 175.5 133.5Q167 136 158.0 140.5Q149 145 143.5 148.0Q138 151 127.5 158.5Q117 166 113 168Q85 140 77 125ZM0 277Q0 286 5.5 292.0Q11 298 17 298Q30 298 63.5 266.5Q97 235 111 227Q139 270 156 287Q124 306 97.5 331.5Q71 357 58.5 375.5Q46 394 33.0 415.5Q20 437 17 441Q10 453 10 469Q10 491 25 491Q37 491 53 468Q82 428 97.0 408.5Q112 389 137.5 360.5Q163 332 185.5 320.0Q208 308 231 308H509Q439 330 394.0 387.5Q349 445 349 519Q349 619 413.5 686.5Q478 754 578 754Q676 754 739.5 686.0Q803 618 803 519Q803 445 764.0 388.0Q725 331 660 308H966Q978 308 986.0 300.5Q994 293 994 281Q994 256 963 256H884V173H963Q976 173 985.0 164.5Q994 156 994 143Q994 119 963 119H231Q160 0 102 0Q70 0 41.0 22.5Q12 45 12 75V81Q14 98 30.5 129.5Q47 161 76 190Q73 192 60.5 202.5Q48 213 40.0 220.0Q32 227 21.5 238.0Q11 249 5.5 259.0Q0 269 0 277ZM280 258V173H438V258ZM481 258V173H676V258ZM717 257V172H843V257ZM578 714Q496 714 442.5 659.0Q389 604 389 519Q389 442 447.0 389.0Q505 336 586 336Q663 336 713.0 388.0Q763 440 763 519Q763 602 710.5 658.0Q658 714 578 714ZM582 559Q564 559 551.5 548.0Q539 537 539 523Q539 506 551.5 494.0Q564 482 581 482Q597 482 608.5 491.5Q620 501 620 513Q620 532 609.0 545.5Q598 559 582 559ZM660 513Q660 482 635.5 462.0Q611 442 581 442Q547 442 523.0 465.5Q499 489 499 523Q499 556 524.0 577.5Q549 599 582 599Q616 599 638.0 573.0Q660 547 660 513Z" fill="currentColor"/>
  </g>
</svg>