<svg xmlns="http://www.w3.org/2000/svg" viewBox="0 0 391 1000">
  <g transform="scale(1,-1) translate(0,-1000)">
    <path d="M15 875Q26 875 31.5 862.0Q37 849 41.5 831.5Q46 814 68.5 793.5Q91 773 130 761V768Q130 800 145.5 826.0Q161 852 188 865H122Q108 865 108.0 879.0Q108 893 122 893H353Q367 893 367.0 879.0Q367 865 353 865H282Q311 852 329.5 826.0Q348 800 348 768Q348 727 324.0 695.5Q300 664 261 657V201Q283 185 292.5 177.5Q302 170 314.5 152.0Q327 134 329 115H371Q379 115 385.0 109.0Q391 103 391.0 95.0Q391 87 385.0 81.0Q379 75 371 75H327Q318 40 293.5 20.0Q269 0 241.0 0.0Q213 0 190.0 19.5Q167 39 158 74H113Q105 74 99.0 80.0Q93 86 93.0 94.0Q93 102 99.0 108.0Q105 114 113 114H155Q160 158 216 198V657Q156 670 137 728Q102 736 78.0 749.0Q54 762 39.0 782.0Q24 802 17.0 815.5Q10 829 1 855Q0 857 0 860Q0 866 4.5 870.5Q9 875 15 875ZM161 768Q161 755 163.5 748.5Q166 742 166 740V738Q184 686 238 686Q272 686 294.5 709.5Q317 733 317 768Q317 800 293.0 822.0Q269 844 235 844Q203 844 182.0 822.5Q161 801 161 768ZM284 75H200Q220 38 240 38Q251 38 262.0 47.0Q273 56 278 66ZM289 115Q285 136 271.5 149.0Q258 162 243.0 162.0Q228 162 214.0 148.5Q200 135 196 114Z" fill="currentColor"/>
  </g>
</svg>