<svg xmlns="http://www.w3.org/2000/svg" viewBox="0 0 890 1000">
  <g transform="scale(1,-1) translate(0,-1000)">
    <path d="M755 82H59V40H755ZM126 574Q66 663 66 663Q65 665 65 668Q65 676 78.0 688.0Q91 700 92 707Q92 708 92.5 711.0Q93 714 93 716Q93 738 75 738Q63 738 49.0 729.0Q35 720 31 711Q27 703 27 688Q27 643 99 474Q113 443 130 400Q142 427 150 439Q156 448 166.5 455.0Q177 462 183.5 466.0Q190 470 190 475Q190 495 158 534ZM112 911V832L428 753V932ZM123 325Q155 254 157 237Q157 222 123 122H209Q176 217 176 234V237Q176 256 211 326Q195 328 169 328Q148 328 123 325ZM231 303Q205 253 205 234Q205 212 228 152Q228 151 239 122H264Q231 302 231 303ZM764 582Q764 582 732.0 543.0Q700 504 700 484Q700 479 706.5 475.0Q713 471 723.5 464.0Q734 457 740 448Q748 436 760 409Q774 444 791 482Q863 648 863 697Q863 712 859 720Q855 729 841.0 738.0Q827 747 815 747Q797 747 797 724Q797 722 797.5 720.0Q798 718 798 716Q799 709 812.0 696.5Q825 684 825 676Q825 674 824 672Q824 671 764 582ZM569 122Q602 191 617.0 220.0Q632 249 658.0 291.0Q684 333 715 373Q723 384 736 385L738 390Q724 422 717 432Q713 439 699.5 447.5Q686 456 680.0 463.0Q674 470 674 483Q674 494 679 509Q687 531 710.5 558.5Q734 586 740 596Q751 612 768.5 637.0Q786 662 795 675Q779 691 775.0 699.0Q771 707 771 723Q771 738 774 747Q784 774 817 774Q830 774 837 771Q854 762 871 747Q890 730 890 692Q890 662 875 620Q842 530 773 371Q790 354 790 334V115Q795 108 795 102V20Q795 12 789.0 6.0Q783 0 775 0H39Q31 0 25.0 6.0Q19 12 19 20V102Q19 119 36 122Q44 181 58.5 253.5Q73 326 88 341Q97 350 121 355Q38 548 15 611Q0 648 0 686Q0 721 19 739Q33 752 53 762Q63 766 73 766Q106 766 116 739Q119 730 119.0 714.0Q119 698 115 690Q112 684 95 667Q104 654 121.0 629.0Q138 604 149 588Q155 578 179.0 550.0Q203 522 211 500Q216 485 216 475Q216 461 210.0 454.0Q204 447 190.0 439.0Q176 431 172 424Q169 419 152 381L161 360H172Q242 360 254 327Q263 300 293 122H429V712L87 797Q72 800 72 816V930Q72 948 90 950L446 974Q447 974 449.5 974.5Q452 975 453 975Q463 975 470.5 967.5Q478 960 478 950L479 122ZM602 122H760V334Q759 342 752.5 348.5Q746 355 739 355Q697 301 671.5 256.5Q646 212 602 122ZM65 122H92Q128 222 128 237V239Q128 252 101 306Q94 287 87.5 253.5Q81 220 78 207Z" fill="currentColor"/>
  </g>
</svg>