<svg xmlns="http://www.w3.org/2000/svg" viewBox="0 0 915 1000">
  <g transform="scale(1,-1) translate(0,-1000)">
    <path d="M621 490Q682 515 747.5 561.0Q813 607 852.5 640.0Q892 673 900 673Q906 673 910.5 668.5Q915 664 915.0 658.0Q915 652 902 639Q842 579 814.0 552.0Q786 525 743.0 489.0Q700 453 670.0 437.5Q640 422 599.0 407.5Q558 393 509 386H862Q870 386 876.0 380.0Q882 374 882.0 366.0Q882 358 876.0 352.0Q870 346 862 346H618Q656 295 656 227Q656 217 654.0 204.5Q652 192 645.5 170.0Q639 148 620.5 133.5Q602 119 574 119Q517 119 464 149V20Q464 12 458.0 6.0Q452 0 444.0 0.0Q436 0 430.0 6.0Q424 12 424 20V178Q401 200 383.0 222.5Q365 245 290 346H52Q29 346 29 365Q29 386 50 386H360Q299 394 241.5 421.5Q184 449 152.0 472.5Q120 496 63 544Q44 560 29.0 572.0Q14 584 9 588L4 592Q0 596 0 603Q0 609 4.5 613.5Q9 618 15 618Q22 618 107 565Q157 534 182.0 520.0Q207 506 249.5 487.5Q292 469 336.5 462.0Q381 455 438 455L353 685H202L239 636L51 705L239 774L202 725H650Q658 725 664.0 719.0Q670 713 670.0 705.0Q670 697 664.0 691.0Q658 685 650 685H543ZM710 500Q581 425 439 425Q307 425 204 474Q307 411 433 411Q591 411 710 500ZM547 467Q578 474 595 480L513 685H463ZM519 461 433 685H383L467 456Q502 458 519 461ZM327 346Q388 261 424 222V346ZM579 346H464V185Q515 149 574 149Q603 149 614.5 173.5Q626 198 626 227Q626 297 581 344Q579 346 579 346Z" fill="currentColor"/>
  </g>
</svg>