<svg xmlns="http://www.w3.org/2000/svg" viewBox="0 0 980 1000">
  <g transform="scale(1,-1) translate(0,-1000)">
    <path d="M364 425Q355 416 345 416Q340 418 336.5 424.5Q333 431 333 434Q338 441 351 441Q354 441 359.0 436.0Q364 431 364 425ZM931 90Q931 100 917.0 114.0Q903 128 888 129V127Q888 114 902.0 99.5Q916 85 926 85Q929 85 930.0 86.0Q931 87 931 90ZM137 172Q321 75 467 75H518Q655 75 831 164L829 166Q626 91 493 91Q351 91 137 172ZM837 200Q944 240 944 240Q950 240 954.5 235.5Q959 231 959 225Q959 203 885 159H887Q913 159 938.0 136.0Q963 113 963 89Q963 75 952 64Q942 54 927 54Q903 54 880.0 78.0Q857 102 857 128Q857 134 858 137L854 141Q833 130 801.0 115.5Q769 101 705.0 80.0Q641 59 583 50H955Q966 50 973.0 43.0Q980 36 980.0 25.0Q980 14 973.0 7.0Q966 0 955 0H25Q14 0 7.0 7.0Q0 14 0.0 25.0Q0 36 7.0 43.0Q14 50 25 50H402Q319 62 228.0 97.0Q137 132 81.0 168.5Q25 205 25 225Q25 231 29.5 235.5Q34 240 40 240Q45 240 84.0 224.5Q123 209 187.0 185.5Q251 162 306 148Q309 166 314.5 188.0Q320 210 333.5 246.0Q347 282 373.0 314.5Q399 347 434 365Q394 384 385 384Q391 365 391 360Q391 354 386.5 349.5Q382 345 376 345Q373 345 353.0 355.5Q333 366 310.5 388.0Q288 410 288 433Q288 490 409 520Q415 524 418 524Q418 524 420 524L422 523Q484 536 523 536Q576 536 624.5 520.0Q673 504 711.0 474.5Q749 445 768.0 427.0Q787 409 810 383Q814 377 814 373Q814 367 809 362L763 319Q759 315 753.0 315.0Q747 315 713.0 346.0Q679 377 648 383Q677 359 677 359Q681 355 681 348Q681 338 671 334L619 314Q663 254 672 147Q733 163 806 189L693 301Q688 306 688.0 312.0Q688 318 692.5 323.0Q697 328 703 328Q708 328 713 323ZM511 505Q496 505 488 504Q497 483 506 465Q535 401 541 355Q542 345 551.0 315.0Q560 285 560 269Q560 230 525 217L539 171Q591 190 591 217V218Q590 269 577.0 314.0Q564 359 543.0 411.5Q522 464 511 505ZM515 246Q530 253 530 269Q530 280 521.5 309.0Q513 338 511 351Q505 393 478 452Q467 475 458 500Q454 500 447.0 498.5Q440 497 437 496ZM492 221Q492 222 492 222L491 224L458 332Q418 314 387.0 264.0Q356 214 345 139Q425 121 493 121Q558 121 633 137Q630 181 621 214Q620 189 596.5 169.5Q573 150 554.0 143.5Q535 137 529 137Q519 137 515 148ZM409 489Q318 464 318 433Q318 415 353 391Q353 414 384 414Q404 414 438 397ZM593 397Q593 414 631 414Q688 414 753 351L778 374Q664 499 543 505Q553 470 574.0 415.0Q595 360 601 339L637 353Q597 386 597 386Q593 390 593 397Z" fill="currentColor"/>
  </g>
</svg>