<svg xmlns="http://www.w3.org/2000/svg" viewBox="0 0 981 1000">
  <g transform="scale(1,-1) translate(0,-1000)">
    <path d="M48 934Q66 934 75 918L90 892Q111 899 128 899Q176 899 210.5 863.0Q245 827 245 763Q245 714 224 658L427 306H465V465Q461 499 438 553Q430 571 412 596L394 621Q388 618 373.5 611.0Q359 604 350 600Q347 599 342 599Q339 599 335.5 600.0Q332 601 327.5 605.5Q323 610 323 619Q323 632 335 637Q346 641 365.5 652.0Q385 663 400 666Q409 700 411.0 735.5Q413 771 417 952Q417 963 440.5 981.5Q464 1000 487 1000Q511 1000 529 989Q558 972 563.0 957.0Q568 942 568 883Q568 719 582 664Q597 661 616.5 650.0Q636 639 647 635Q660 630 660 616Q660 610 654.5 603.0Q649 596 640 596Q636 596 626.5 600.5Q617 605 605.0 611.0Q593 617 588 619Q588 619 587.5 617.5Q587 616 587 615Q582 608 572.5 595.5Q563 583 556.0 572.5Q549 562 544 550Q519 494 515 465V306H555L757 656Q736 712 736 761Q736 825 770.5 860.5Q805 896 853 896Q873 896 891 890L906 916Q914 931 932 931Q944 931 954.0 922.0Q964 913 964 901Q964 894 959 884L944 858Q981 824 981 778Q981 723 931.0 678.0Q881 633 800 625L615 305H704Q711 305 716.0 300.5Q721 296 721 290Q721 285 720 283L603 10Q600 0 589 0H389Q378 0 375 10L258 284Q257 286 257 291Q257 297 262.0 301.5Q267 306 274 306H367L181 628Q167 629 150.5 633.0Q134 637 108.0 646.0Q82 655 57.5 674.0Q33 693 18 719Q0 753 0 783Q0 827 36 860Q16 894 16.0 905.0Q16 916 26.5 925.0Q37 934 48 934ZM680 274H298L401 31H578ZM210 761Q210 799 190.0 830.5Q170 862 130 862Q103 862 69.5 841.0Q36 820 36 783Q36 741 78.0 704.0Q120 667 187 663Q210 722 210 761ZM945 781Q945 819 911.0 839.5Q877 860 850 860Q813 860 792.0 828.5Q771 797 771 759Q771 720 794 661Q860 665 902.5 702.0Q945 739 945 781ZM540 667Q528 727 528 842V876Q528 916 527 939Q501 959 488 959Q479 959 457 941Q453 775 451.5 741.5Q450 708 442 669ZM489 520H494Q501 553 508.5 569.0Q516 585 546 627L436 630Q469 581 475.5 567.0Q482 553 489 520Z" fill="currentColor"/>
  </g>
</svg>