<svg xmlns="http://www.w3.org/2000/svg" viewBox="0 -2048 2048 2048">
	<path fill="#000000" d="M1267 299Q1265 299 1255.5 302Q1246 305 1244 305L1146 27H220L112 305Q105 299 100 299Q295 -244 295 -552Q295 -556 291 -598.5Q287 -641 286 -660Q271 -1010 112 -1379L115 -1390Q127 -1390 131 -1384Q185 -1262 240 -1102H1039Q1073 -1104 1141 -1108Q1184 -1213 1249 -1400Q1251 -1400 1258 -1397Q1265 -1394 1267 -1394Q1072 -860 1072 -560Q1072 -210 1267 299ZM1135 -1080H246L296 -839H1081ZM1071 -786V-813H295Q318 -734 315 -555H1051Q1051 -565 1055 -655Q1056 -683 1064 -735Q1071 -783 1071 -786ZM1076 -273L1051 -530H315Q323 -427 290 -273ZM1140 6Q1093 -153 1076 -251H286L222 6Z"/>
</svg>