<svg xmlns="http://www.w3.org/2000/svg" viewBox="34 -1484 1760 1782">
	<path fill="currentColor" d="M1728 -237H1390V232H444V-234H100V-796H349V-1117Q217 -1164 217 -1272Q217 -1326 265 -1366Q310 -1404 361 -1404Q420 -1404 462 -1351Q500 -1304 500 -1251Q500 -1145 367 -1122V-797H1450V-1122Q1323 -1174 1323 -1279Q1323 -1330 1371.5 -1374Q1420 -1418 1472 -1418Q1492 -1418 1548 -1387Q1568 -1376 1580 -1355Q1611 -1302 1611 -1274Q1611 -1248 1587.5 -1206Q1564 -1164 1539 -1146Q1520 -1132 1469 -1122V-796H1728ZM1587 -1276Q1587 -1312 1555 -1350Q1519 -1394 1474 -1394Q1429 -1394 1391 -1363Q1347 -1328 1347 -1276Q1347 -1263 1348 -1245.5Q1349 -1228 1387 -1188Q1426 -1145 1451 -1145Q1496 -1145 1539 -1182Q1587 -1222 1587 -1276ZM481 -1253Q481 -1300 444.5 -1342.5Q408 -1385 361 -1385Q327 -1385 283 -1349Q236 -1311 236 -1274Q236 -1230 273.5 -1187.5Q311 -1145 356 -1145Q399 -1145 437 -1173Q481 -1204 481 -1253ZM1704 -260V-777H119V-258H463V211H1368V-260Z"/>
</svg>