<svg xmlns="http://www.w3.org/2000/svg" viewBox="20 -993 2160 905">
	<path fill="currentColor" d="M2100 -595Q2099 -585 2094 -564Q2073 -479 2068 -460Q2051 -401 2030 -360Q2013 -327 1952 -275Q1895 -226 1857 -209Q1766 -168 1657 -168H100V-194H979Q1031 -302 1031 -381Q1031 -416 991 -591Q893 -595 794 -600Q688 -606 628 -639Q549 -684 501 -792H421V-688H370V-574Q370 -551 350 -536Q330 -521 307 -521Q286 -521 267.5 -539Q249 -557 249 -578V-799H301V-913H603Q618 -836 624 -819Q641 -777 688.5 -748.5Q736 -720 952 -714Q1387 -702 1493 -622Q1625 -523 1661 -368Q1662 -363 1675 -259L1701 -263Q1795 -277 1877 -349Q1956 -418 1990 -509Q2005 -544 2032 -615L2057 -607Q1999 -440 1924 -359Q1834 -263 1676 -233L1677 -194Q1767 -197 1846 -233Q1881 -249 1936.5 -296Q1992 -343 2007 -372Q2063 -480 2074 -597ZM506 -388H100V-583Q100 -617 135 -617Q156 -617 171 -576Q193 -518 206 -500Q238 -459 300 -459Q361 -459 397 -498Q414 -517 437 -569Q454 -608 471 -608Q506 -608 506 -575ZM1563 -194Q1563 -234 1554 -314Q1523 -444 1449 -510Q1412 -542 1325 -560Q1199 -585 1128 -586Q1167 -474 1167 -390Q1167 -296 1121 -194ZM1655 -194Q1653 -217 1652 -229Q1649 -274 1636 -362Q1602 -507 1477 -601Q1385 -670 1061 -682Q728 -695 675 -727Q602 -771 581 -887H327V-773H275V-578Q275 -568 286 -557.5Q297 -547 307 -547Q344 -547 344 -574V-714H395V-818H518Q567 -707 643 -663Q701 -629 803 -624Q899 -620 995 -617Q1047 -612 1125.5 -612Q1204 -612 1301 -592Q1422 -568 1466 -529Q1579 -429 1587 -255Q1588 -235 1589 -194ZM1141 -390Q1141 -475 1100 -586Q1093 -586 1018 -590Q1057 -424 1057 -381Q1057 -297 1008 -194H1092Q1141 -298 1141 -390ZM480 -414V-575Q480 -582 473 -582Q463 -562 444 -522Q399 -433 300 -433Q200 -433 161 -528Q153 -555 135 -591L126 -583V-414Z"/>
</svg>