<svg xmlns="http://www.w3.org/2000/svg" viewBox="0 -2048 2048 2048">
	<path fill="#000000" d="M725 323Q725 336 712 355H370Q357 336 357 323Q357 293 381 286Q393 284 422 271Q442 257 463 218Q484 179 484 154L493 -1143Q375 -1088 333 -969Q311 -907 295 -725H364Q372 -704 372 -701Q372 -684 355 -671Q412 -641 412 -559Q412 -502 368 -460Q324 -418 256 -418Q188 -418 144 -460Q100 -502 100 -559Q100 -641 157 -671Q140 -684 140 -701Q140 -704 148 -725H217Q242 -955 273 -1028Q328 -1158 494 -1227L495 -1398Q495 -1421 471.5 -1462.5Q448 -1504 428 -1517Q427 -1542 439 -1542H643Q655 -1542 654 -1517Q634 -1504 610.5 -1462.5Q587 -1421 587 -1398L598 154Q598 179 619 218Q640 257 660 271Q667 276 701 286Q725 293 725 323ZM494 -1199Q346 -1143 294 -1007Q268 -940 243 -725H269Q289 -923 312 -989Q360 -1120 493 -1172ZM699 316V313Q680 308 645 292Q620 275 596 230Q572 185 572 154L561 -1398Q561 -1450 616 -1516H466Q521 -1450 521 -1398L510 154Q510 194 478 245Q446 296 409 306Q400 308 384 314L383 319Q382 324 385 329H697Q699 325 699 316ZM346 -692V-698H166V-692L174 -681H338ZM386 -559Q386 -624 332 -655H180Q126 -623 126 -559Q126 -509 165.5 -476.5Q205 -444 256 -444Q307 -444 346.5 -476.5Q386 -509 386 -559Z"/>
</svg>