<svg xmlns="http://www.w3.org/2000/svg" viewBox="12.3 -1503.7 2367.4 1874.4">
	<path fill="currentColor" d="M2292 283H255V181H453V-61H255V-158H462V-950Q404 -950 292 -964Q279 -973 251 -986Q223 -985 167 -993Q160 -995 131 -1026Q121 -1030 104 -1046Q100 -1052 100 -1077Q157 -1081 213 -1086Q290 -1093 313 -1116Q339 -1144 400 -1190Q404 -1192 446 -1196Q452 -1219 461 -1266Q467 -1315 480 -1413Q503 -1377 515.5 -1334.5Q528 -1292 539 -1250Q543 -1262 554 -1286Q563 -1303 568 -1404Q584 -1391 605 -1363Q618 -1329 618 -1253Q618 -1230 591 -1166Q634 -1138 641 -1081Q691 -1083 742 -1084Q802 -1088 838 -1108Q838 -1108 862.5 -1138Q887 -1168 937 -1190Q937 -1190 978 -1197Q990 -1270 1022 -1416Q1036 -1383 1060 -1317Q1065 -1295 1076 -1253Q1093 -1287 1099 -1404Q1117 -1390 1142 -1360Q1155 -1327 1155 -1250Q1155 -1229 1125 -1164Q1175 -1142 1175 -1075Q1175 -1035 1145 -998Q1115 -961 1076 -956V-160H1466Q1471 -178 1481 -214Q1491 -243 1505 -303Q1512 -351 1512 -451Q1512 -591 1462 -829L1469 -838Q1533 -862 1662 -889Q1665 -935 1700 -965Q1735 -995 1781 -995Q1852 -995 1879 -938Q2001 -1047 2013 -1047Q2060 -1047 2060 -1011Q2060 -988 1942 -880L2073 -840Q2079 -834 2079 -826Q2079 -822 2079 -822Q2058 -724 2029 -527Q2022 -440 2022 -451Q2022 -346 2078 -159H2292V-63H2153V180H2292ZM2034 -1008Q2034 -1024 2016 -1024Q2007 -1024 1964 -984Q1937 -959 1910 -934Q1888 -916 1888 -905Q1888 -904 1891 -887Q1905 -885 1909 -885Q1918 -885 1976 -942Q2034 -999 2034 -1008ZM1869 -888Q1867 -972 1781 -972Q1718 -972 1683 -891Q1740 -896 1769 -896Q1777 -896 1869 -888ZM1060 -1226Q1060 -1243 1027 -1341Q1015 -1259 1003 -1201Q1020 -1201 1042 -1196Q1060 -1225 1060 -1226ZM2056 -820Q1902 -873 1771 -873Q1652 -873 1487 -820Q1535 -592 1535 -451Q1535 -348 1528 -298Q1516 -252 1491 -160H2054V-162Q2054 -164 2035 -226Q2016 -288 2014 -304Q1999 -403 1999 -451Q1999 -526 2020 -636Q2038 -728 2056 -820ZM2126 179V-61H2040V179ZM2013 179V-61H1842V179ZM523 -1227Q523 -1233 510 -1282Q497 -1331 493 -1340Q488 -1269 469 -1199H479Q491 -1199 507 -1196Q523 -1231 523 -1227ZM1816 179V-61H1726V179ZM1152 -1075Q1152 -1122 1117 -1145Q1108 -1126 1094 -1114L1081 -1127Q1132 -1214 1132 -1252Q1132 -1321 1122 -1347Q1121 -1292 1098 -1248Q1085 -1226 1061 -1182Q1056 -1171 1046 -1149Q1043 -1143 1028 -1143L1027 -1148Q1025 -1157 1032 -1175Q1005 -1178 1007 -1178Q925 -1178 880 -1123Q872 -1111 851 -1090Q820 -1071 758 -1065Q709 -1062 659 -1059V-1058L667 -1050Q825 -1050 841 -1043Q846 -1039 854 -1033L841 -1021Q793 -1027 781 -1027Q767 -1027 738.5 -1025Q710 -1023 696 -1023Q697 -1022 704 -1016Q733 -1014 790 -1008Q806 -1000 837 -987Q877 -976 990 -976Q1016 -976 1022 -973V-160H1051V-973Q1068 -976 1100 -986Q1152 -1011 1152 -1075ZM1700 179V-61H1529V179ZM1503 179V-61H1413V179ZM2266 -87V-133H281V-87ZM998 -160V-952Q887 -952 834 -964Q821 -973 791 -986Q761 -985 701 -993Q693 -995 683 -1008Q676 -1017 641 -1042Q641 -1044 638 -1050Q618 -969 537 -956V-160ZM1387 179V-61H1219V179ZM619 -1076Q619 -1090 607 -1116Q594 -1146 582 -1146L581 -1144Q573 -1128 570 -1125Q564 -1120 549 -1119V-1136Q598 -1210 598 -1244Q598 -1256 588 -1333Q586 -1296 528 -1192Q523 -1177 519 -1162Q513 -1143 500 -1143Q494 -1151 494 -1159Q494 -1165 499 -1175Q468 -1178 471 -1178Q397 -1178 338 -1111Q332 -1103 317 -1090Q285 -1068 125 -1059L132 -1050Q289 -1050 305 -1043Q310 -1039 318 -1033L304 -1021Q262 -1027 249 -1027Q235 -1027 206.5 -1025Q178 -1023 164 -1023Q165 -1022 173 -1016Q203 -1015 263 -1005Q275 -997 298 -987Q348 -975 488 -975V-160H511V-971L522 -979Q561 -979 590 -1008Q619 -1037 619 -1076ZM1193 179V-61H1103V179ZM2266 258V206H281V258ZM1077 179V-61H906V179ZM879 179V-61H790V179ZM763 179V-61H593V179ZM566 179V-61H479V179ZM986 -1091Q981 -1091 972 -1088Q963 -1085 958 -1085Q945 -1085 928 -1111Q939 -1131 952 -1131Q967 -1131 986 -1112ZM454 -1106Q444 -1085 424 -1085Q412 -1085 391 -1106Q402 -1131 417 -1131Q436 -1131 454 -1106Z"/>
</svg>