<svg xmlns="http://www.w3.org/2000/svg" viewBox="0 -2048 2048 2048">
	<path fill="#000000" d="M2186 -882L2156 -720H2141Q2131 -720 2091 -733Q2046 -747 2034 -749Q1951 -763 1831 -765Q1814 -738 1814 -729V-523Q1937 -492 2177 -410Q2156 -362 2116 -266V-263Q2109 -254 2100 -254Q2109 -254 2012 -281Q1919 -313 1730 -364Q1551 -400 1239 -418Q1132 -424 1135 -424Q1063 -424 916 -418Q911 -418 802 -403Q723 -393 564 -370Q522 -363 344 -318Q205 -283 125 -283Q113 -324 101 -391L358 -456Q349 -489 344 -529H343L131 -469Q121 -504 100 -575L316 -651Q315 -667 287 -792Q232 -832 161 -879Q192 -935 232 -986Q305 -939 457 -855Q545 -818 718 -739Q924 -766 1360 -864Q1454 -886 1644 -917Q1699 -975 1729 -975Q1774 -975 1796 -954Q1824 -927 1827.5 -926Q1831 -925 1852 -923Q2051 -909 2186 -882ZM2162 -859Q2121 -872 2012.5 -887Q1904 -902 1859 -902H1688Q1677 -902 1666 -898Q1658 -857 1658 -851Q1658 -839 1668.5 -813Q1679 -787 1689 -787Q1694 -787 1703.5 -790Q1713 -793 1718 -793Q1974 -793 2138 -745ZM1793 -926Q1765 -952 1756 -952Q1716 -952 1686 -925Q1695 -926 1793 -926ZM1805 -764Q1702 -768 1714 -768H1710Q1744 -739 1772 -723V-529Q1782 -529 1788 -528V-726Q1788 -731 1805 -764ZM1744 -533V-714Q1713 -736 1675 -764Q1652 -762 1563 -751Q1502 -743 1381 -725Q1269 -700 1045 -653Q1278 -615 1744 -533ZM1660 -786Q1635 -825 1635 -848Q1635 -846 1641 -895Q1508 -874 1200 -806Q918 -743 758 -722Q804 -700 994 -663Q1127 -695 1396 -751Q1446 -760 1660 -786ZM2150 -397Q2024 -452 1703 -516Q1424 -560 870 -669Q834 -676 763 -695Q701 -725 575 -781Q524 -799 425 -842Q362 -880 235 -956L189 -889Q267 -835 431 -739Q550 -681 738 -621Q780 -606 866 -582Q923 -575 1008 -560Q1019 -557 1018 -544L1009 -535Q701 -511 516 -471Q387 -440 129 -378Q132 -354 141 -306H148Q185 -306 359 -346Q427 -364 565 -392Q632 -403 801 -425Q843 -432 927 -441Q1045 -446 1140 -446Q1152 -446 1241 -441Q1564 -422 1745 -383Q1767 -378 1975 -315Q1976 -315 2096 -280ZM910 -551Q850 -567 729 -597L550 -568Q559 -542 567 -507Q720 -537 910 -551ZM686 -614L530 -670L523 -669Q530 -643 544 -592ZM493 -686Q450 -702 411 -722L423 -674ZM520 -587Q514 -612 500 -663Q476 -660 429 -651L447 -576Q471 -580 520 -587ZM400 -669Q395 -692 384 -737Q382 -738 313 -775L338 -659Q359 -662 400 -669ZM547 -504Q541 -525 526 -567L452 -552Q462 -511 471 -486ZM424 -572Q423 -575 406 -648Q385 -644 343 -636Q347 -611 359 -557Q381 -563 424 -572ZM450 -480Q446 -494 433 -550H422Q416 -550 363 -537L362 -536L363 -535Q369 -511 380 -462ZM336 -551Q332 -576 320 -630L129 -566Q135 -542 147 -495Z"/>
</svg>