<svg xmlns="http://www.w3.org/2000/svg" viewBox="0 0 524 1000">
  <g transform="scale(1,-1) translate(0,-1000)">
    <path d="M59 515Q94 469 139.0 444.0Q184 419 262.0 419.0Q340 419 385.0 444.0Q430 469 465 515ZM327 919Q327 911 337.0 903.0Q347 895 359.0 889.0Q371 883 381.0 869.5Q391 856 391 837Q391 723 373.5 650.5Q356 578 307 555H504Q512 555 518.0 549.0Q524 543 524 535Q524 529 512 512Q493 486 480.0 471.0Q467 456 442.0 434.0Q417 412 383.0 399.0Q349 386 306 381Q312 326 314 303Q320 235 324.0 197.5Q328 160 338.5 110.5Q349 61 363 28Q365 22 365 20Q365 12 359.0 6.0Q353 0 345 0H179Q171 0 165.0 6.0Q159 12 159 20Q159 22 161 28Q175 61 185.5 110.5Q196 160 200.0 197.5Q204 235 210 303Q212 326 218 381Q175 386 141.0 399.0Q107 412 82.0 434.0Q57 456 44.0 471.0Q31 486 12 512Q0 529 0 535Q0 543 6.0 549.0Q12 555 20 555H217Q198 564 184.0 580.0Q170 596 161.0 620.0Q152 644 146.5 666.0Q141 688 138.5 721.5Q136 755 135.0 777.0Q134 799 133 836V837Q133 856 143.0 870.0Q153 884 165.0 890.0Q177 896 187.0 903.5Q197 911 197 919Q197 928 163.5 947.5Q130 967 130 980Q130 988 136.0 994.0Q142 1000 150 1000H374Q382 1000 388.0 994.0Q394 988 394 980Q394 966 362.0 948.0Q330 930 327 922ZM351 837Q351 846 341.0 853.5Q331 861 319.0 867.0Q307 873 297.0 886.5Q287 900 287 919Q287 942 307 960H217Q237 942 237 919Q237 900 227.0 886.5Q217 873 205.0 867.0Q193 861 183.0 853.5Q173 846 173 837Q173 768 179.5 719.0Q186 670 194.5 644.5Q203 619 216.5 605.0Q230 591 239.5 588.0Q249 585 262.0 585.0Q275 585 284.5 588.0Q294 591 307.5 605.0Q321 619 329.5 644.5Q338 670 344.5 719.0Q351 768 351 837ZM258 379Q257 371 250 299Q234 115 208 40H316Q290 115 274 299Q267 371 266 379H262Z" fill="currentColor"/>
  </g>
</svg>