<svg viewBox="0 0 8.99 17.98"
   xmlns="http://www.w3.org/2000/svg">
  <path
     style="fill:currentColor; stroke:none"
     d="M 2.23,4.89 L 6.81,4.89 C 6.41,3.6433333 5.6433333,3.02 4.51,3.02 C 3.39,3.02 2.63,3.6433333 2.23,4.89 z M 4.7,2.3 L 4.89,0.7 C 4.89,0.54 4.75,0.46 4.47,0.46 C 4.19,0.46 4.05,0.54 4.05,0.7 L 4.27,2.3 L 4.7,2.3 z M 6.59,3.07 L 8.56,1.51 L 8.99,2.13 L 7.02,3.64 C 7.3266667,4.0066667 7.55,4.63 7.69,5.51 L 4.99,5.51 L 4.99,13.88 L 6.64,13.88 L 6.64,14.86 L 5.66,14.86 C 6.14,15.593333 6.1466667,16.313333 5.68,17.02 L 6.64,17.02 L 6.64,17.98 L 2.35,17.98 L 2.35,17.02 L 3.31,17.02 C 2.8433333,16.333333 2.8433333,15.613333 3.31,14.86 L 2.35,14.86 L 2.35,13.88 L 4.03,13.88 L 4.03,5.51 L 1.34,5.51 C 1.4533333,4.63 1.6533333,4.0166667 1.94,3.67 L 0,2.13 L 0.41,1.53 L 2.37,3.09 C 2.7366667,2.69 3.24,2.4433333 3.88,2.35 L 3.57,0.19 C 3.89,0.063333333 4.1866667,0 4.46,0 C 4.7466667,0 5.0566667,0.063333333 5.39,0.19 L 5.08,2.35 C 5.6533333,2.43 6.1566667,2.67 6.59,3.07 z" />
</svg>