<svg xmlns="http://www.w3.org/2000/svg" viewBox="0 -2048 2048 2048">
	<path fill="#000000" d="M807 -921H501V69Q516 73 543 87Q586 122 586 215Q586 260 564 308Q541 362 505 381Q497 380 489 372Q490 345 505 289Q519 258 519 244Q519 130 462 130Q429 130 407 157.5Q385 185 385 219Q385 254 394 282Q395 287 408 311Q418 331 418 337V373L403 387Q391 379 370 359Q351 334 335 275Q321 221 321 184Q321 84 410 71V-919H100V-949Q100 -1020 162 -1094Q213 -1155 287 -1197Q289 -1198 335 -1215Q152 -1453 152 -1453Q152 -1518 203 -1518Q235 -1518 267 -1478Q290 -1445 313 -1412Q344 -1374 445 -1238H456Q497 -1294 585 -1403Q603 -1428 640 -1476Q674 -1518 706 -1518Q752 -1518 752 -1453Q752 -1445 572 -1215Q597 -1208 644 -1188Q710 -1150 766 -1072Q807 -1015 807 -993ZM728 -1454V-1478Q728 -1495 709 -1495Q689 -1495 674 -1481Q651 -1460 485 -1236Q520 -1229 549 -1221Q610 -1298 728 -1454ZM414 -1238Q369 -1300 277 -1422Q262 -1444 228 -1484Q216 -1495 200 -1495Q179 -1495 179 -1458Q179 -1435 358 -1220Q376 -1228 414 -1238ZM781 -946V-997Q781 -1012 746 -1061Q638 -1212 426 -1212Q409 -1212 382 -1205.5Q355 -1199 305 -1182Q295 -1174 273 -1160Q123 -1066 123 -946ZM563 213Q563 96 487 92L477 83V-919H433V83L423 92Q344 97 344 185Q344 281 391 344V331Q391 329 382 309Q373 289 372 285Q362 250 362 216Q362 173 391 140.5Q420 108 462 108Q542 108 542 247Q542 265 530 296Q518 327 516 342Q563 287 563 213Z"/>
</svg>