<svg xmlns="http://www.w3.org/2000/svg" viewBox="0 -2048 2048 2048">
	<path fill="currentColor" d="M525 -1200Q525 -1067 473 -991Q465 -979 387 -902V50H510V127H427Q481 169 481 220Q481 279 443.5 320Q406 361 348 361Q292 361 250.5 323.5Q209 286 209 230Q209 171 263 127H181V51H307V-903Q243 -945 203 -1029Q165 -1109 165 -1189Q165 -1249 174 -1274Q178 -1285 200 -1305Q167 -1336 134 -1368Q100 -1407 100 -1449Q100 -1486 124.5 -1509.5Q149 -1533 186 -1533Q204 -1533 218 -1514Q232 -1495 232 -1475Q232 -1454 212.5 -1435.5Q193 -1417 172 -1417Q155 -1417 146 -1438Q152 -1445 158 -1446L173 -1439Q182 -1440 195.5 -1452.5Q209 -1465 209 -1474Q209 -1508 175 -1508Q123 -1508 123 -1447Q123 -1416 145 -1389Q200 -1322 216 -1319Q240 -1331 308 -1347L278 -1516Q337 -1533 349 -1533Q365 -1533 411 -1512L382 -1351Q405 -1345 449 -1331Q525 -1303 525 -1200ZM387 -1501Q364 -1508 346 -1508Q342 -1508 303 -1500L328 -1350Q349 -1352 359 -1351ZM503 -1202Q503 -1244 499 -1255Q474 -1326 355 -1326Q307 -1326 276 -1319Q258 -1315 229 -1297Q200 -1279 194 -1265Q187 -1247 187 -1189Q187 -1107 231 -1019Q283 -916 357 -916Q367 -916 372 -919Q414 -942 458.5 -1011.5Q503 -1081 503 -1202ZM361 50V-896Q351 -895 332 -897V50ZM484 101V76H207V101ZM458 220Q458 185 425.5 153Q393 121 358 121Q234 121 234 230Q234 278 266.5 308Q299 338 348 338Q397 338 427.5 304Q458 270 458 220Z"/>
</svg>