<svg xmlns="http://www.w3.org/2000/svg" viewBox="0 -2048 2048 2048">
	<path fill="#000000" d="M569 -907Q569 -804 525.5 -751Q482 -698 376 -674V283H298V-675Q294 -676 285 -681Q190 -678 140 -759Q100 -822 100 -907Q100 -949 116 -1012Q129 -1063 205 -1235Q299 -1448 340 -1448Q375 -1448 437 -1293Q481 -1200 557 -1012Q569 -977 569 -907ZM549 -895Q549 -937 533 -1002Q515 -1074 402 -1318Q353 -1423 332 -1423Q315 -1423 265 -1313Q229 -1226 192 -1140Q165 -1080 131 -992Q125 -969 125 -915Q125 -758 206 -729Q247 -716 318 -689V259H352V-689Q354 -691 370 -701Q549 -732 549 -895Z"/>
</svg>