<svg xmlns="http://www.w3.org/2000/svg" viewBox="0 0 374 1000">
  <g transform="scale(1,-1) translate(0,-1000)">
    <path d="M40 616H334V730H40ZM233 75H149Q171 34 189 34Q200 34 211.0 44.0Q222 54 228 64ZM238 115Q233 136 220.0 150.5Q207 165 192.0 165.0Q177 165 163.0 150.5Q149 136 145 114ZM186 975Q164 975 164.0 950.0Q164 925 186 875Q204 919 204 948Q204 975 186 975ZM186 1000Q194 1000 202.5 997.5Q211 995 220.0 983.0Q229 971 229 950Q229 917 211 871H354Q362 871 368.0 865.0Q374 859 374 851V596Q374 588 368.0 582.0Q362 576 354 576H210V201Q232 185 241.5 177.5Q251 170 263.5 152.0Q276 134 278 115H320Q328 115 334.0 109.0Q340 103 340.0 95.0Q340 87 334.0 81.0Q328 75 320 75H276Q267 40 242.5 20.0Q218 0 190.0 0.0Q162 0 139.0 19.5Q116 39 107 74H62Q54 74 48.0 80.0Q42 86 42.0 94.0Q42 102 48.0 108.0Q54 114 62 114H104Q109 158 165 198V576H18Q0 578 0 596V851Q0 869 18 871H160Q139 919 139 951Q139 976 153.0 988.0Q167 1000 186 1000ZM40 778V754H334V778ZM40 802H334V831H40Z" fill="currentColor"/>
  </g>
</svg>