<svg xmlns="http://www.w3.org/2000/svg" viewBox="0 -2048 2048 2048">
	<path fill="#000000" d="M1968 -942Q1968 -879 1855 -705Q1674 -425 1367 -182Q1083 42 753 190Q592 262 333 321Q214 348 139 348Q108 348 100 340Q106 301 139 281Q148 275 206 252Q357 192 396 175Q502 128 577 80Q864 -106 1016 -221Q1249 -399 1407 -580Q1394 -586 1339 -615L1335 -606Q1309 -617 1300 -617Q1232 -617 1027 -562Q826 -508 733 -508Q551 -508 413 -551Q269 -596 227 -596Q128 -596 120 -559L100 -574Q136 -635 272 -726Q385 -802 479 -844Q605 -901 723 -901Q975 -901 1247 -701Q1335 -637 1423 -600Q1503 -698 1503 -758Q1503 -775 1497 -789L1271 -813Q1177 -823 1177 -871Q1177 -869 1190 -932Q1213 -1044 1235 -1215Q1246 -1309 1274 -1497Q1406 -1518 1431 -1518Q1456 -1518 1501 -1509Q1553 -1498 1564 -1487Q1478 -1172 1478 -1051Q1478 -1039 1480 -1032Q1644 -998 1812 -998Q1830 -998 1865 -1001Q1900 -1004 1917 -1004Q1936 -1004 1952 -982.5Q1968 -961 1968 -942ZM1292 -641Q1219 -688 1071 -780Q1045 -796 958 -828Q921 -842 845 -862Q916 -818 944 -699Q921 -639 909 -615Q886 -574 852 -545Q903 -554 1071 -599Q1207 -635 1292 -641ZM1941 -942Q1941 -979 1886 -979Q1874 -979 1849 -976Q1824 -973 1812 -973Q1639 -973 1460 -1012Q1452 -1040 1452 -1047Q1452 -1055 1452 -1055Q1454 -1071 1476 -1187Q1502 -1321 1536 -1477Q1450 -1493 1431 -1493Q1426 -1493 1294 -1475Q1296 -1451 1296 -1405Q1296 -1336 1284 -1270Q1263 -1154 1202 -873Q1220 -844 1347 -827Q1431 -819 1515 -811Q1527 -780 1527 -758Q1527 -596 1081 -242Q693 65 477 160Q383 199 289 237Q144 300 131 325Q243 323 477 260Q880 152 1285 -149Q1708 -463 1894 -815Q1941 -904 1941 -942ZM915 -705Q915 -764 860 -815.5Q805 -867 745 -867Q549 -867 549 -692Q549 -623 606 -578Q659 -535 729 -535Q788 -535 807 -543Q849 -561 882 -610.5Q915 -660 915 -705ZM616 -539Q577 -557 550.5 -601Q524 -645 524 -688Q524 -815 614 -860Q520 -846 380.5 -767Q241 -688 174 -615Q227 -621 230 -621Q250 -621 399 -584Q471 -564 616 -539Z"/>
</svg>