<svg xmlns="http://www.w3.org/2000/svg" viewBox="0 -2048 2048 2048">
	<path fill="#000000" d="M841 -1280L711 -1191L688 -80Q686 36 660 111Q651 138 606 204Q557 276 413 347Q360 373 282 373Q157 373 133 363Q100 349 100 313Q100 289 124 231Q173 221 203 221Q209 221 222 222.5Q235 224 241 224Q289 224 339 158Q346 149 356 48Q366 -46 365 -73L344 -1156Q343 -1168 341 -1191Q302 -1218 207 -1281Q318 -1524 529 -1524Q602 -1524 641 -1508Q658 -1495 692 -1471Q819 -1385 841 -1280ZM813 -1298Q791 -1375 665 -1462Q655 -1471 634 -1486Q602 -1502 529 -1502Q461 -1502 405 -1480Q300 -1439 241 -1298ZM790 -1271H266Q369 -1215 369 -1178Q369 -1172 367.5 -1161.5Q366 -1151 366 -1145Q366 -970 375.5 -621Q385 -272 385 -97Q385 131 359 173Q351 186 312 216Q273 246 261 246H215Q173 245 141 250Q126 279 126 301Q126 323 141 340Q221 347 267 347Q356 347 397 329Q584 247 638 103Q639 99 654 -7Q659 -30 665 -78L688 -1201Z"/>
</svg>