<svg xmlns="http://www.w3.org/2000/svg" viewBox="0 0 998 1000">
  <g transform="scale(1,-1) translate(0,-1000)">
    <path d="M365 960Q381 781 381 700Q381 537 323 374Q305 323 271.0 283.5Q237 244 204.0 221.5Q171 199 124.0 165.5Q77 132 46 101Q40 95 40 91Q40 82 57.5 70.5Q75 59 115.5 49.5Q156 40 209 40Q397 40 580.0 160.5Q763 281 862 477Q900 554 917.0 629.0Q934 704 942.0 819.0Q950 934 953 960ZM323 980Q323 988 329.0 994.0Q335 1000 343 1000H978Q986 1000 992.0 994.0Q998 988 998 980V979Q998 953 996.0 912.0Q994 871 985.5 785.5Q977 700 954.0 610.5Q931 521 896 457Q670 38 261 3Q234 0 209 0Q120 0 60.0 25.0Q0 50 0 90Q0 111 18 129Q51 162 97.0 195.5Q143 229 174.5 249.5Q206 270 237.5 306.0Q269 342 285 388Q341 547 341 699Q341 747 336.5 813.5Q332 880 327.5 928.0Q323 976 323 980Z" fill="currentColor"/>
  </g>
</svg>