<!-- Created with Inkscape (http://www.inkscape.org/) -->
<svg viewBox="0 0 1800 1800"
   xmlns="http://www.w3.org/2000/svg">
  <g>
    <path
       d="M 291.37500,1126.9062 C 263.02034,1128.7381 84.177187,1237.3718 18.777563,1276.2926 C -11.523856,1297.7168 -3.3418437,1348.0752 30.514958,1361.2109 L 207.71875,1465.2500 L 18.514897,1576.8586 C -11.676064,1598.4806 -3.1509837,1648.8296 30.824412,1661.7250 L 270.53045,1799.6963 C 311.28252,1819.7146 357.01993,1767.6694 331.86655,1729.8309 L 145.96875,1615.0938 L 317.75000,1514.2500 L 1751.8750,1514.2500 C 1797.5682,1517.7068 1820.3538,1451.3917 1782.1257,1426.0620 L 317.81250,1416.3125 L 146.00000,1315.4375 C 204.05081,1281.5058 262.88517,1248.7954 320.43793,1214.0872 C 351.39706,1191.6878 340.54049,1137.5284 303.34611,1128.7828 C 299.45415,1127.6639 295.42237,1127.0341 291.37500,1126.9062 z "
       style="color:#000000;fill:currentColor;fill-opacity:1.0000000;fill-rule:evenodd;stroke:none;stroke-width:97.944748;stroke-linecap:round;stroke-linejoin:round;stroke-miterlimit:4.0000000;stroke-dashoffset:0.0000000;stroke-opacity:1.0000000;marker:none;marker-start:none;marker-mid:none;marker-end:none;visibility:visible;display:inline;overflow:visible" />
  </g>
</svg>