<svg xmlns="http://www.w3.org/2000/svg" viewBox="0 -2048 2048 2048">
	<path fill="#000000" d="M754 -1007Q754 -995 752 -990Q702 -932 651 -874Q578 -788 578 -773L664 152Q664 170 651 201Q595 336 477 336Q409 336 349 285Q286 232 286 163L424 -1329Q424 -1387 362 -1421Q315 -1446 270 -1446Q214 -1446 180 -1416.5Q146 -1387 132 -1387Q121 -1387 110 -1405Q100 -1420 100 -1427Q100 -1475 183 -1504Q246 -1526 307 -1526Q464 -1526 507 -1418Q522 -1380 530 -1312Q540 -1219 545 -1196Q579 -1234 613 -1272Q666 -1329 687 -1329Q727 -1329 727 -1270Q727 -1255 725 -1250Q552 -1039 552 -1044Q552 -1047 566 -930Q698 -1068 719 -1068Q731 -1068 744 -1040Q754 -1017 754 -1007ZM701 -1278Q701 -1296 688 -1302Q654 -1286 600.5 -1222Q547 -1158 547 -1135Q547 -1128 550.5 -1111Q554 -1094 554 -1090Q593 -1134 631 -1178Q701 -1259 701 -1278ZM727 -1015Q727 -1033 709 -1042Q685 -1025 633 -972Q568 -905 568 -880Q568 -873 572 -856Q577 -836 578 -829Q727 -1003 727 -1015ZM637 155Q637 150 507 -1284Q504 -1332 486 -1407Q429 -1504 307 -1504Q266 -1504 205 -1486Q126 -1462 126 -1427Q126 -1415 134 -1414Q226 -1472 262 -1472Q309 -1472 370 -1440Q451 -1397 451 -1332L313 157Q313 226 370 270Q421 309 483 309Q526 309 550 297Q570 287 602 241Q637 189 637 155Z"/>
</svg>