<svg xmlns="http://www.w3.org/2000/svg" viewBox="24.1 -1608.9 1329.8 2048.8">
	<path fill="currentColor" d="M1278 -1414Q1261 -1392 1219 -1357Q1121 -1276 925 -1114V-1109L937 -997Q937 -1002 923 -900Q915 -838 865 -567Q845 -474 824 -381Q801 -270 801 -193Q801 -105 846 101Q860 166 937 345Q936 355 926 364H451Q440 364 440 349Q468 290 516 170Q516 169 553 12Q576 -86 576 -193Q576 -271 556 -380Q537 -472 519 -564Q505 -633 476 -770Q446 -917 446 -976Q446 -1002 449 -1044Q453 -1096 454 -1112L100 -1405Q117 -1437 173 -1467L467 -1221Q533 -1533 693 -1533Q806 -1533 873 -1363Q873 -1363 909 -1221L1209 -1467Q1231 -1454 1278 -1414ZM1246 -1410Q1226 -1429 1208 -1441L914 -1190L921 -1142ZM464 -1196Q448 -1209 171 -1441L132 -1410L457 -1146ZM914 -997Q914 -1054 894 -1176Q873 -1302 854 -1349Q832 -1404 792 -1451Q742 -1510 693 -1510Q632 -1510 592 -1462Q526 -1384 501 -1271Q489 -1219 474 -1059Q466 -974 466 -983Q466 -983 477 -911Q487 -844 564 -449Q598 -274 598 -195Q598 -15 538 174Q527 209 470 337H908Q876 259 824 100Q779 -93 779 -192Q779 -263 816 -440Q874 -719 900 -899Q914 -997 914 -997Z"/>
</svg>