<svg xmlns="http://www.w3.org/2000/svg" viewBox="0 -2048 2048 2048">
	<path fill="#000000" d="M745 284H100V-654Q231 -775 317 -790Q339 -794 390 -803Q410 -837 410 -868Q410 -916 344 -969Q238 -1055 233 -1060Q210 -1085 210 -1104Q210 -1142 248 -1168Q280 -1191 312 -1191Q394 -1191 457 -1116Q515 -1047 515 -968Q515 -910 472 -801Q566 -775 608 -756Q691 -718 745 -654ZM488 -968Q488 -1039 440 -1101Q386 -1170 310 -1170Q281 -1170 258.5 -1150Q236 -1130 236 -1104Q236 -1075 306 -1030Q388 -978 403 -956Q431 -913 431 -868Q431 -834 415 -803H445Q488 -892 488 -968ZM724 257V-638Q724 -651 656 -697Q592 -741 570 -748Q543 -758 491 -774Q461 -781 438 -781Q257 -781 121 -638V257Z"/>
</svg>