<svg xmlns="http://www.w3.org/2000/svg" viewBox="0 -2048 2048 2048">
	<path fill="currentColor" d="M1098 325H531V184H711V-1012H971V-1175H167Q100 -1241 100 -1286Q100 -1377 222 -1377Q263 -1377 306 -1291L732 -1418Q750 -1387 792 -1330Q850 -1250 868 -1250H970V-1453H1098ZM971 -1200V-1230Q921 -1228 858 -1232Q821 -1246 776 -1305Q745 -1346 714 -1387L298 -1266Q291 -1269 265 -1313Q241 -1352 214 -1352Q183 -1352 157 -1336Q125 -1317 125 -1284Q125 -1253 172 -1200ZM1072 299V-1427H997V-986H732V210H552V299Z"/>
</svg>