<svg xmlns="http://www.w3.org/2000/svg" viewBox="0 -2048 2048 2048">
	<path fill="#000000" d="M1101 349H104V323H570V-532H596V323H1075V-1149H351V-1006H454L427 -943Q442 -919 444 -894L490 -916L507 -863Q461 -844 440 -811Q441 -710 404 -664Q387 -642 338 -642Q289 -642 272 -664Q235 -710 236 -811Q215 -844 169 -863L186 -916L232 -894Q234 -919 249 -943L222 -1006H325V-1149Q207 -1162 149 -1261Q100 -1345 100 -1472Q100 -1517 150 -1517Q178 -1517 186 -1466Q200 -1373 206 -1355Q230 -1285 294 -1250H1075V-1512H1101ZM1075 -1175V-1224H351V-1175ZM325 -1175V-1224H287Q216 -1262 188 -1327Q171 -1365 166 -1431Q162 -1483 150 -1491Q126 -1491 126 -1472Q126 -1360 169 -1280Q222 -1182 325 -1175ZM478 -873L473 -886Q443 -873 442 -845Q458 -859 478 -873ZM414 -980H262L272 -956Q304 -966 338 -966Q372 -966 404 -956ZM421 -835V-870Q421 -940 362 -940H314Q255 -940 255 -870V-835Q255 -762 283 -697Q290 -729 296 -761Q309 -801 338 -801Q367 -801 380 -761Q386 -729 393 -697Q421 -762 421 -835ZM234 -845Q233 -873 203 -886L198 -873Q218 -859 234 -845ZM378 -672Q378 -698 368 -731Q356 -775 338 -775Q320 -775 308 -731Q298 -698 298 -672Q321 -665 338 -665Q355 -665 378 -672ZM403 -805Q403 -800 402 -790Q377 -871 338 -871Q299 -871 274 -790Q273 -799 273 -805Q273 -837 289 -863Q308 -894 338 -894Q368 -894 387 -863Q403 -837 403 -805Z"/>
</svg>