<svg xmlns="http://www.w3.org/2000/svg" viewBox="0 -2048 2048 2048">
	<path fill="currentColor" d="M1994 -760Q1994 -661 1841 -512Q1782 -454 1605 -342Q1342 -175 966 -88Q632 -10 280 -10Q111 -10 100 -45L125 -90Q133 -90 146.5 -89Q160 -88 166 -88Q190 -88 250 -98L508 -141Q767 -184 1080 -319Q1470 -487 1530 -655L1511 -710Q1424 -774 1331 -774V-782L1325 -784Q1360 -905 1360 -991Q1360 -1012 1354.5 -1053.5Q1349 -1095 1349 -1116L1351 -1120Q1407 -1136 1484 -1136Q1586 -1136 1607 -1114Q1597 -1050 1597 -995Q1597 -904 1614 -876Q1660 -799 1934 -799Q1956 -799 1982 -794Q1994 -786 1994 -760ZM1177 -465H110L272 -676H1177ZM1970 -758Q1970 -766 1966 -774Q1958 -774 1943.5 -773Q1929 -772 1923 -772Q1630 -772 1585 -870Q1572 -898 1572 -961Q1572 -981 1579 -1100Q1544 -1114 1476 -1114Q1418 -1114 1374 -1100Q1384 -1044 1384 -991Q1384 -874 1353 -799Q1450 -793 1534 -727L1554 -653Q1509 -503 1197 -348Q977 -239 727 -168Q573 -125 311 -82Q179 -61 139 -63L131 -51Q158 -35 280 -35Q827 -35 1196 -178L1413 -262Q1468 -283 1636 -389Q1763 -469 1824 -530Q1970 -676 1970 -758ZM1153 -489V-651H284L161 -489Z"/>
</svg>