<svg xmlns="http://www.w3.org/2000/svg" viewBox="0 -2048 2048 2048">
	<path fill="#000000" d="M1796 -1184Q1796 -971 1642 -951L1231 -1081V-1316Q1234 -1319 1238 -1325Q1324 -1363 1409 -1400Q1578 -1472 1615 -1472Q1650 -1472 1696 -1433.5Q1742 -1395 1759 -1356Q1796 -1270 1796 -1184ZM1146 -1202Q1146 -1172 1121.5 -1151Q1097 -1130 1070 -1130Q1043 -1130 1023 -1155Q1003 -1180 1003 -1202Q1003 -1264 1077 -1264Q1105 -1264 1125.5 -1246Q1146 -1228 1146 -1202ZM958 -1162Q958 -1142 938.5 -1116Q919 -1090 901 -1090Q885 -1090 854.5 -1110.5Q824 -1131 824 -1147Q824 -1173 843 -1199Q865 -1229 896 -1229Q922 -1229 940 -1208.5Q958 -1188 958 -1162ZM794 -1078Q794 -1060 768.5 -1035.5Q743 -1011 728 -1011Q694 -1011 672 -1042Q656 -1066 656 -1090Q656 -1118 681 -1135Q703 -1150 728 -1150Q755 -1150 774.5 -1125.5Q794 -1101 794 -1078ZM631 -986Q631 -959 623 -952Q590 -921 561 -921Q537 -921 517 -946Q497 -971 497 -986Q497 -1055 574 -1055Q602 -1055 618 -1029Q631 -1008 631 -986ZM497 -864Q497 -837 477 -819.5Q457 -802 435 -802Q363 -802 363 -874Q363 -894 388 -912.5Q413 -931 433 -931Q459 -931 480 -905Q497 -883 497 -864ZM403 -716Q403 -690 388 -667Q369 -639 338 -639Q310 -639 285 -671Q264 -698 264 -713Q264 -747 291 -767Q313 -783 338 -783Q362 -783 384 -757Q403 -734 403 -716ZM333 -532Q333 -514 308 -487Q283 -460 271 -460Q243 -460 221 -485.5Q199 -511 199 -535Q199 -555 225 -577Q251 -599 266 -599Q288 -599 312 -582Q333 -567 333 -532ZM289 -346Q289 -282 222 -282Q160 -282 160 -351Q160 -416 222 -416Q251 -416 272 -390Q289 -368 289 -346ZM259 -175Q259 -157 232.5 -130Q206 -103 195 -103Q172 -103 148.5 -133Q125 -163 125 -178Q125 -202 156 -221Q182 -237 199 -237Q227 -237 243 -216.5Q259 -196 259 -175ZM239 3Q239 25 214.5 47.5Q190 70 170 70Q105 70 105 1Q105 -28 133 -47Q157 -64 180 -64Q202 -64 232 -18Q239 1 239 3ZM234 192Q234 214 210 239Q186 264 165 264Q137 264 118.5 240.5Q100 217 100 189Q100 163 118 141.5Q136 120 160 120Q187 120 210.5 141.5Q234 163 234 192ZM1771 -1192Q1771 -1391 1620 -1452L1251 -1307V-1101L1647 -976Q1711 -979 1745 -1062Q1771 -1124 1771 -1192ZM1122 -1202Q1122 -1244 1075 -1244Q1057 -1244 1042 -1228.5Q1027 -1213 1027 -1197Q1027 -1150 1067 -1150Q1122 -1150 1122 -1202ZM928 -1159Q928 -1194 895 -1209Q887 -1204 870 -1192Q849 -1177 849 -1140Q889 -1115 896 -1115Q928 -1115 928 -1159ZM770 -1083Q770 -1125 728 -1125Q708 -1125 681 -1099Q676 -1083 687.5 -1059Q699 -1035 715 -1035Q731 -1035 750.5 -1048Q770 -1061 770 -1083ZM611 -988Q611 -1031 559 -1031Q522 -1031 522 -988Q522 -951 566 -951Q611 -951 611 -988ZM472 -864Q472 -907 435 -907Q425 -907 404 -893.5Q383 -880 383 -869Q383 -857 399 -837Q415 -817 433 -817Q472 -817 472 -864ZM378 -706Q378 -753 333 -753Q289 -753 289 -713Q289 -702 301 -685Q317 -664 338 -664Q378 -664 378 -706ZM309 -535Q309 -569 274 -569Q264 -569 246 -558Q224 -545 224 -530Q224 -485 264 -485Q270 -485 289.5 -502.5Q309 -520 309 -535ZM264 -351Q264 -396 227 -396Q185 -396 185 -349Q185 -307 222 -307Q264 -307 264 -351ZM234 -175Q234 -212 199 -212Q188 -212 171 -201Q150 -188 150 -173Q150 -160 167 -144Q184 -128 197 -128Q210 -128 223 -149Q234 -167 234 -175ZM214 3Q214 -6 197.5 -22.5Q181 -39 172 -39Q125 -39 125 1Q125 50 165 50Q177 50 193 39Q214 24 214 3ZM209 189Q209 145 167 145Q120 145 120 192Q120 239 162 239Q178 239 193.5 224.5Q209 210 209 189Z"/>
</svg>