<svg xmlns="http://www.w3.org/2000/svg" viewBox="30.4 -1506.6 1510.2 1879.2">
	<path fill="currentColor" d="M1471 -51H752V-487H1080Q1089 -523 1089 -542Q1089 -603 1060 -650Q1026 -706 969 -706Q939 -706 899 -674Q869 -648 838 -622Q820 -629 820 -646Q820 -657 842 -700Q876 -766 974 -766Q1027 -766 1091 -701Q1094 -703 1094 -709Q1094 -763 1058.5 -804Q1023 -845 969 -845Q922 -845 889 -803Q856 -761 843 -761Q820 -761 820 -786Q820 -808 849.5 -846Q879 -884 901 -893Q941 -910 972 -910Q1045 -910 1095 -845L1099 -1329Q1099 -1329 1094 -1344Q1080 -1387 1053 -1387H1047Q1004 -1387 989 -1348Q978 -1313 967 -1278Q953 -1268 936 -1268Q925 -1285 925 -1312Q925 -1363 959.5 -1400Q994 -1437 1044 -1437Q1115 -1437 1138 -1365Q1146 -1339 1148 -1330L1152 -840Q1193 -910 1268 -910Q1313 -910 1370 -871Q1432 -829 1432 -786Q1432 -756 1402 -756Q1398 -756 1353.5 -803Q1309 -850 1273 -850Q1189 -850 1153 -728L1156 -706Q1169 -732 1203.5 -751.5Q1238 -771 1268 -771Q1314 -771 1371 -731Q1432 -688 1432 -644Q1432 -617 1407 -617Q1396 -617 1356.5 -664Q1317 -711 1278 -711Q1248 -711 1210 -683.5Q1172 -656 1164 -628Q1153 -591 1153 -537Q1153 -529 1155.5 -512Q1158 -495 1158 -487H1471ZM669 -112L664 -100H638Q586 -100 501 -154Q424 -203 385 -250Q351 -292 351 -296Q351 -286 357 -308H398Q448 -308 555.5 -233Q663 -158 669 -112ZM512 92L507 104H481Q429 104 344 50Q267 1 228 -46Q194 -88 194 -92Q194 -82 200 -104H241Q291 -104 398.5 -29Q506 46 512 92ZM413 291Q413 303 403 303Q338 303 247 247Q163 196 118 138Q100 115 100 109Q100 98 106 94H146Q197 94 303 168Q413 244 413 291ZM1103 -1390Q1080 -1419 1049 -1419Q1036 -1419 1019 -1413Q1049 -1412 1103 -1390ZM1406 -781V-799Q1358 -885 1270 -885Q1200 -885 1155 -801Q1210 -875 1273 -875Q1322 -875 1406 -781ZM1405 -647Q1406 -679 1346 -717Q1290 -751 1255 -751Q1233 -751 1202 -724Q1175 -700 1164 -677Q1214 -731 1280 -731Q1317 -731 1350 -703Q1377 -675 1405 -647ZM1148 -649L1128 -659V-685Q1128 -758 1148 -788Q1147 -789 1128 -804V-1329H1123V-804L1103 -795Q1088 -828 1044.5 -856.5Q1001 -885 965 -885Q937 -885 895 -855Q850 -822 850 -796V-791Q908 -870 969 -870Q1034 -870 1077 -815Q1117 -764 1117 -698Q1117 -680 1114 -664Q1105 -657 1097 -656Q1094 -663 1089 -672Q1028 -746 974 -746Q938 -746 898 -719Q854 -690 852 -656Q900 -731 967 -731Q990 -731 1040 -707Q1054 -692 1080 -662Q1109 -627 1109 -488H1128Q1131 -503 1133 -571Q1134 -626 1148 -649ZM1451 -76V-467H771V-76ZM629 -131Q609 -168 569 -202Q550 -218 486 -250.5Q422 -283 403 -283H386Q437 -221 467 -201Q570 -131 629 -131ZM472 74Q451 36 412 2Q393 -14 331 -46Q265 -79 246 -79H229Q280 -17 310 3Q415 74 472 74ZM378 272Q360 238 323 206Q302 188 239 155Q172 120 151 120H135Q163 152 225 207Q321 272 361 272Z"/>
</svg>