<svg xmlns="http://www.w3.org/2000/svg" viewBox="0 -2048 2048 2048">
	<path fill="currentColor" d="M1945 0H100V-315H862Q647 -440 647 -578Q647 -661 702 -746Q726 -783 800 -799Q829 -805 869 -805Q938 -805 988 -748Q1033 -695 1033 -637Q1033 -587 986.5 -537.5Q940 -488 888 -488Q872 -488 868 -489Q809 -520 790 -548Q783 -558 783 -598Q783 -629 806 -651Q829 -673 866 -668Q863 -657 833 -641.5Q803 -626 803 -605Q803 -567 830 -539.5Q857 -512 888 -512Q925 -512 966.5 -550Q1008 -588 1008 -622Q1008 -663 981 -712Q950 -768 907 -779Q899 -781 864 -781Q722 -781 689 -666Q666 -585 666 -581Q666 -503 777 -404Q881 -312 938 -312H1075V-805H1393V-314H1945ZM1369 -313V-780H1102V-313ZM1926 -20V-292H120V-20Z"/>
</svg>