<svg xmlns="http://www.w3.org/2000/svg" viewBox="0 -2048 2048 2048">
	<path fill="currentColor" d="M1945 -45H575Q564 35 553 115Q532 211 451 211Q397 211 366 174.5Q335 138 335 84Q335 46 365 -45Q289 -64 214 -150Q157 -226 100 -301Q100 -302 166 -358Q240 -259 270 -226Q345 -146 405 -142Q444 -211 522 -350Q390 -359 212 -611Q244 -644 284 -668Q418 -442 549 -442H1432Q1435 -445 1435 -447Q1435 -636 1368 -671Q1312 -681 1216 -703Q1167 -720 1118 -737Q1059 -757 1018 -757Q1021 -772 985.5 -803.5Q950 -835 949 -853L956 -862Q1029 -863 1167 -890Q1197 -918 1249 -965Q1307 -1015 1382 -1022Q1403 -1059 1421 -1170Q1434 -1250 1446 -1330H1464Q1486 -1255 1531 -1105Q1562 -1153 1569 -1285Q1573 -1293 1585 -1306Q1631 -1262 1631 -1114Q1631 -1061 1615 -1013Q1597 -959 1597 -972Q1597 -966 1607 -954Q1619 -939 1620 -936Q1642 -893 1672 -808Q1747 -598 1797 -441H1945V-354H1779V-139H1945ZM1509 -1090Q1509 -1126 1462 -1267Q1448 -1155 1416 -1027Q1425 -1027 1443.5 -1024Q1462 -1021 1472 -1021Q1485 -1021 1498 -1050Q1509 -1075 1509 -1090ZM1769 -442V-459Q1762 -481 1754 -507Q1698 -692 1690 -716Q1649 -844 1610 -917Q1603 -929 1585 -948Q1575 -933 1551 -908L1538 -921Q1607 -1020 1607 -1124Q1607 -1149 1595 -1222Q1570 -1097 1486 -996Q1487 -938 1465 -938Q1454 -938 1454 -941Q1454 -946 1455.5 -957Q1457 -968 1457 -974Q1457 -991 1454 -1001H1394Q1328 -1001 1258 -937Q1180 -867 1172 -865Q1109 -859 983 -840Q1015 -816 1090 -805.5Q1165 -795 1180 -783L1172 -766Q1096 -790 1033 -790L1038 -779Q1129 -750 1314 -703Q1343 -700 1387 -686Q1442 -643 1449 -571Q1455 -507 1461 -442ZM1758 -138V-353H1637V-138ZM1920 -378V-422H525Q469 -422 384 -502Q315 -567 275 -633L242 -612Q267 -575 317 -502Q335 -476 396 -429Q462 -378 486 -378ZM1611 -138V-353H999V-138ZM1920 -69V-117H582L576 -69ZM978 -138V-353H856V-138ZM830 -138V-353H567L582 -138ZM556 -138V-214Q556 -204 539 -339L434 -138ZM556 -112L425 -117Q406 -89 400 -70H551Q551 -102 556 -112ZM394 -117Q313 -134 247 -210Q212 -260 156 -324L129 -302Q212 -190 236 -162Q318 -69 370 -69Q379 -69 394 -117ZM551 -43H390Q355 62 355 91Q355 129 384.5 160.5Q414 192 451 192Q472 192 481 190Q511 183 533 86Q551 8 551 -43ZM1401 -880Q1391 -874 1371 -874Q1341 -874 1317 -890Q1327 -908 1364 -933Q1393 -904 1401 -880Z"/>
</svg>