<svg xmlns="http://www.w3.org/2000/svg" viewBox="0 -2048 2048 2048">
	<path fill="currentColor" d="M1905 -138Q1905 -135 1902 -128.5Q1899 -122 1899 -119L1135 -428V-104Q1006 -50 1006 51Q1006 117 1051 154Q1089 185 1144 185Q1201 185 1250 133L1268 151Q1212 211 1144 211Q1068 211 1022 163Q980 118 980 51Q980 -53 1114 -123V-439L841 -551V-105Q712 -31 712 54Q712 121 757 156Q795 185 851 185Q908 185 957 133Q970 146 970 151Q970 177 912 196Q869 211 849 211Q775 211 729 163Q687 118 687 51Q687 -64 821 -123V-557L558 -670V-104Q429 -45 429 54Q429 114 468 149.5Q507 185 563 185Q626 185 674 133Q677 136 680.5 142Q684 148 687 151Q648 211 566 211Q493 211 446 160Q404 113 404 51Q404 -41 533 -123V-681L265 -793V-110Q188 -59 162 -29Q131 7 131 56Q131 119 181 155Q222 185 270 185Q305 185 322 177Q333 172 381 139L393 151Q337 211 270 211Q198 211 153 163Q110 118 110 56Q110 -45 239 -123V-799Q224 -808 100 -862Q103 -865 106.5 -871Q110 -877 113 -880Z"/>
</svg>