<svg xmlns="http://www.w3.org/2000/svg" viewBox="20 -1671 876 2160">
	<path fill="currentColor" d="M816 -62Q816 -17 754 -17Q741 -17 717 -43L556 -606Q527 -608 504 -624L289 -562L262 -524L255 -521Q271 -163 347 234Q348 239 363 299Q373 338 373 364Q373 409 310 409Q295 409 288 404Q232 365 163 -116Q145 -243 127 -499Q100 -520 100 -533Q100 -553 127 -584Q129 -620 133 -691Q145 -896 191 -1054Q231 -1189 328 -1394L290 -1542Q304 -1591 347 -1591Q365 -1591 375 -1585Q384 -1570 403 -1508Q418 -1526 446 -1526Q467 -1526 487 -1519L508 -1465Q501 -1419 453 -1357L634 -723H660Q678 -698 678 -659Q678 -631 660 -627L810 -99Q816 -78 816 -62ZM384 -1493Q384 -1499 357 -1568H340L324 -1558Q316 -1547 315 -1539L345 -1426Q384 -1491 384 -1493ZM631 -637L434 -1326L395 -1251L575 -629Q585 -627 591 -627Q613 -627 631 -637ZM480 -1458Q480 -1479 469 -1497Q461 -1500 450 -1500Q429 -1500 412 -1480L414 -1474Q384 -1460 325 -1334Q151 -965 151 -541V-519Q157 -518 165 -518Q195 -518 232 -537Q229 -594 229 -626Q229 -1030 414 -1340Q434 -1369 454 -1397Q480 -1435 480 -1458ZM656 -671Q656 -686 645 -699H639L652 -653Q656 -661 656 -671ZM533 -684L379 -1218Q251 -916 253 -600L281 -587L500 -649ZM549 -632L540 -656L526 -641Q535 -635 549 -632ZM791 -65Q791 -73 786 -91L639 -615Q612 -602 582 -605L742 -52Q747 -47 751 -44L790 -58Q791 -60 791 -65ZM262 -568L254 -572V-556ZM352 357Q352 351 347 348Q330 304 307 163Q231 -296 231 -511Q194 -493 153 -493Q165 -288 200 -40Q248 294 300 380Q307 385 315 385Q352 385 352 357Z"/>
</svg>