<svg xmlns="http://www.w3.org/2000/svg" viewBox="42.2 -1341.8 870.7 1561.7">
	<path fill="currentColor" d="M855 -549Q855 -546 852 -537Q849 -528 849 -525H616L487 162H468L333 -525H112L100 -538Q120 -568 230 -655Q322 -728 322 -763Q322 -769 288.5 -869Q255 -969 255 -975Q255 -989 262 -1014Q268 -1036 296 -1092Q322 -1142 322 -1148Q322 -1162 315 -1178Q309 -1191 283 -1228Q260 -1260 260 -1267Q260 -1276 265 -1280Q270 -1284 270 -1279H694Q685 -1259 653 -1198Q627 -1150 627 -1143Q627 -1142 652 -1094Q681 -1038 697 -999Q700 -992 700 -975Q700 -969 666 -871.5Q632 -774 632 -768Q632 -732 742 -639Q798 -594 855 -549ZM679 -975Q679 -1006 608 -1128Q607 -1132 607 -1143Q607 -1198 663 -1258H292Q347 -1163 347 -1137Q347 -1126 344 -1116Q444 -1033 641 -866Q679 -960 679 -975ZM632 -843L330 -1093Q316 -1076 296 -1049L610 -789Q613 -797 621 -816Q629 -835 632 -843ZM803 -552Q738 -606 623 -715Q618 -732 604 -757Q496 -855 288 -1021Q288 -1012 284.5 -993.5Q281 -975 281 -969Q281 -938 324 -826Q348 -763 348 -770Q348 -717 266 -649Q206 -601 147 -552ZM585 -524H364L480 80Z"/>
</svg>