<svg xmlns="http://www.w3.org/2000/svg" viewBox="26.7 -1558.3 693.6 1979.6">
	<path fill="currentColor" d="M647 -789H597V-517H510V-789H413V-18Q463 3 490 55Q513 99 511 140Q525 147 569 144V221H500Q493 265 455 305Q416 348 378 348Q357 348 323 330Q282 309 272 283Q267 264 251 224Q235 221 188 221V144H246Q255 84 264 62Q285 15 339 -17V-788H100V-1216H356Q360 -1211 360 -1223Q360 -1228 315.5 -1307Q271 -1386 271 -1393Q271 -1424 293 -1452Q319 -1485 355 -1485Q381 -1485 415 -1455Q449 -1425 449 -1398Q449 -1387 426.5 -1360Q404 -1333 394 -1333Q396 -1333 360 -1351Q363 -1354 366.5 -1360.5Q370 -1367 373 -1370Q384 -1359 391 -1359Q413 -1359 423 -1404Q423 -1426 393 -1447Q367 -1464 352 -1464Q328 -1464 311 -1438Q297 -1417 297 -1398Q297 -1385 326 -1344Q360 -1296 363 -1290Q371 -1267 390 -1217H647ZM621 -815V-1191H125V-815ZM569 -543V-788H533V-543ZM485 143V109Q485 101 464 68Q443 35 432 26Q417 17 391 -1V-788H360V-2Q267 50 272 143ZM548 198V170H209V198ZM469 246V223H282Q286 263 312.5 292.5Q339 322 378 322Q400 322 405 320Q416 315 442.5 284Q469 253 469 246Z"/>
</svg>