<svg xmlns="http://www.w3.org/2000/svg" viewBox="0 -2048 2048 2048">
	<path fill="#000000" d="M1238 147H1217Q1208 121 1196 69Q1182 -39 1085 -149Q984 -263 870 -289Q849 -297 805 -310V-25Q905 34 900 138Q914 142 931 142Q949 142 965 138V223H889Q895 258 848 306.5Q801 355 764 355Q720 355 683 322Q642 285 640 229Q626 225 605 225Q584 225 564 229V143H624Q640 72 649 53Q670 8 721 -25V-332Q573 -375 425 -418Q252 -475 135 -583Q117 -600 101 -660Q100 -664 100 -704Q100 -865 266 -865Q321 -865 360.5 -831.5Q400 -798 400 -751Q400 -713 371 -676Q340 -636 304 -636Q280 -636 250 -661Q220 -686 220 -710Q220 -749 272 -772Q275 -769 278.5 -762.5Q282 -756 285 -753Q247 -738 247 -707Q247 -664 302 -664Q335 -664 355 -694Q372 -719 372 -745Q372 -778 343.5 -810.5Q315 -843 285 -843Q217 -843 173 -810Q122 -773 122 -702Q122 -583 283 -503Q317 -486 512 -422Q597 -394 719 -358V-825H477V-1278H749Q735 -1309 689 -1383Q650 -1446 650 -1453Q650 -1486 674 -1516Q701 -1551 743 -1551Q768 -1551 804.5 -1516.5Q841 -1482 841 -1464Q841 -1455 814 -1424Q787 -1393 778 -1393Q772 -1393 749 -1405V-1431Q780 -1421 778 -1421Q785 -1421 799 -1441Q813 -1461 813 -1470Q813 -1494 777 -1513Q748 -1529 734 -1529Q677 -1529 677 -1459Q677 -1458 723 -1381.5Q769 -1305 769 -1273H1041V-828H990V-545H899V-828H803V-341Q849 -322 882 -311Q950 -289 1008 -253Q1075 -211 1121 -151Q1157 -103 1182 -46Q1239 86 1238 117ZM1020 -855V-1245H498V-855ZM965 -572V-826H929V-572ZM774 -342V-826H749V-356Q749 -353 760.5 -348.5Q772 -344 774 -342ZM873 142V95Q873 64 829 29Q802 11 775 -8V-320Q772 -320 762 -322.5Q752 -325 749 -325V-9Q723 4 692 39Q656 79 656 108V142ZM938 202V165H591V202ZM862 225H662Q661 263 695.5 295.5Q730 328 764 328Q825 328 862 225Z"/>
</svg>