<svg xmlns="http://www.w3.org/2000/svg" viewBox="0 -2048 2048 2048">
	<path fill="currentColor" d="M957 -794H559V30Q589 58 604 90Q625 136 626 137Q647 139 690 139V164H626Q616 201 605 239Q589 288 551 295Q546 282 546 266Q546 250 553.5 218Q561 186 560 169Q549 164 515 164Q479 164 465 173Q465 210 491 288L479 301Q456 292 446 273Q436 254 409 166Q398 164 346 164V139Q347 139 379 141Q404 142 411 130Q410 125 410 119Q410 57 492 19V-792H100V-864H220V-970H100V-1039H514Q539 -1105 589 -1232Q608 -1281 657 -1399Q688 -1476 694 -1485Q723 -1532 769 -1532Q848 -1532 848 -1443Q848 -1410 840 -1402Q838 -1399 770 -1371Q760 -1221 752 -1077Q704 -1097 664 -1097Q644 -1097 616 -1080.5Q588 -1064 580 -1043H957V-970H836V-864H957ZM827 -1428Q828 -1451 813 -1478Q796 -1511 769 -1511Q732 -1511 718 -1483Q672 -1393 543 -1040Q578 -1118 672 -1118Q704 -1118 731 -1108Q735 -1214 752 -1402Q809 -1399 827 -1428ZM931 -821V-840H811V-991H931V-1013H126V-991H246V-840H125V-821ZM596 162Q596 102 538 46V-793H513V40Q434 76 434 162Q434 221 464 267Q447 191 450 153Q458 60 515 60Q572 60 580 153Q583 191 566 267Q596 221 596 162ZM559 138Q560 86 515 86Q502 86 489 98Q476 110 476 121V138ZM800 -840H257V-991H800ZM774 -863V-971H283V-863Z"/>
</svg>