<svg xmlns="http://www.w3.org/2000/svg" viewBox="0 0 997 1000">
  <g transform="scale(1,-1) translate(0,-1000)">
    <path d="M58 146H943Q950 154 957 172Q957 204 947 204H51Q46 204 44.5 203.0Q43 202 41.5 195.5Q40 189 40 174V173Q42 149 58 146ZM997 172Q997 166 996.0 158.5Q995 151 990.5 137.0Q986 123 973.5 114.5Q961 106 943 106H54Q35 109 24.0 113.5Q13 118 8.5 125.0Q4 132 2.5 137.0Q1 142 1.0 153.5Q1 165 0 172V174Q0 241 50 244H493Q488 250 468.0 275.0Q448 300 442.0 307.5Q436 315 418.5 337.5Q401 360 393.5 370.5Q386 381 371.0 402.0Q356 423 346.5 438.5Q337 454 324.5 474.5Q312 495 301 516Q294 506 286 506Q261 506 261 522Q261 530 266 537L281 557Q266 588 254.5 620.0Q243 652 236.5 674.0Q230 696 224.5 732.5Q219 769 217.0 784.5Q215 800 210.5 844.5Q206 889 205 903L153 945Q145 953 145 962Q145 982 166 982Q172 982 177 978L199 961L196 977V980Q196 998 214 1000H217Q231 1000 234.5 987.5Q238 975 244 924L439 767L446 775Q452 784 462 784Q470 784 476.0 777.5Q482 771 482.0 763.0Q482 755 479 751L471 742L702 554Q709 548 709.0 538.0Q709 528 702.0 523.0Q695 518 689 518Q680 518 676 522L446 709L328 552Q348 515 367.0 482.5Q386 450 412.0 414.0Q438 378 451.0 361.5Q464 345 500.0 300.5Q536 256 545 244H948Q957 242 963.5 239.5Q970 237 978.5 230.5Q987 224 992.0 209.0Q997 194 997 172ZM532 40Q532 25 523.5 12.5Q515 0 502 0Q485 0 472.5 12.5Q460 25 460 42Q460 58 470.5 69.0Q481 80 496.0 80.0Q511 80 521.5 68.0Q532 56 532 40ZM616 80Q631 80 641.5 68.0Q652 56 652 40Q652 25 643.5 12.5Q635 0 622 0Q605 0 592.5 12.5Q580 25 580 42Q580 58 590.0 69.0Q600 80 616 80ZM380 0Q363 0 350.5 12.5Q338 25 338 42Q338 58 348.5 69.0Q359 80 374.0 80.0Q389 80 399.5 68.0Q410 56 410.0 40.0Q410 24 402.0 12.0Q394 0 380 0ZM249 868Q255 804 259.0 772.0Q263 740 275.5 690.0Q288 640 308 593L415 734Z" fill="currentColor"/>
  </g>
</svg>