<svg xmlns="http://www.w3.org/2000/svg" viewBox="0 -2048 2048 2048">
	<path fill="currentColor" d="M1849 -306Q1818 -278 1692 -261Q1589 -246 1503 -246L1159 -275Q1097 -277 1092 -272Q1117 -135 1117 -99Q1117 -15 1028 49Q953 103 888 103Q811 103 754.5 47Q698 -9 698 -84Q698 -132 718 -242L714 -247Q687 -249 629 -245Q564 -241 569 -241Q488 -241 420.5 -328Q353 -415 302 -415Q297 -415 272 -412.5Q247 -410 240 -410Q199 -410 155 -429Q100 -454 100 -492Q100 -535 215 -592Q184 -619 153 -647Q105 -689 105 -704Q105 -734 128 -734Q126 -734 282 -609Q312 -642 343 -676Q401 -739 414 -739Q439 -739 439 -711Q439 -701 355 -602Q383 -582 449 -519Q475 -488 501 -456Q551 -400 569 -400Q585 -400 640 -413Q707 -428 739 -446Q744 -449 751 -503Q758 -557 771 -667Q777 -724 791 -831Q799 -883 806 -951Q812 -993 821 -1075Q828 -1149 864 -1430Q891 -1450 921 -1451Q930 -1442 941 -1424Q978 -1169 1068 -474Q1331 -345 1449 -345H1816Q1835 -345 1849 -329ZM1266 121Q1266 220 1260 292H539V-28Q539 -45 556.5 -70.5Q574 -96 599 -96Q618 -96 656 -28Q706 63 741 100Q805 168 888 168Q895 168 954 155Q1041 136 1085 74Q1117 20 1148 -34Q1177 -81 1214 -81Q1260 -81 1268 9Q1266 -10 1266 121ZM1819 -313L1448 -325Q1300 -334 1073 -439Q1084 -331 1093 -301L1520 -270Q1735 -270 1819 -313ZM1092 -94Q1092 -79 920 -1410Q916 -1416 906 -1426H888L723 -76Q723 -18 774.5 32.5Q826 83 888 83Q889 83 936 70Q1092 27 1092 -94ZM415 -702L411 -709L317 -607L330 -605ZM737 -419Q594 -380 569 -380Q534 -380 446 -479.5Q358 -579 305 -579Q278 -579 256 -577Q234 -575 189 -554Q125 -525 125 -490Q125 -435 235 -435Q244 -435 279.5 -440Q315 -445 320 -445Q356 -445 392 -398Q455 -318 462 -312Q511 -265 579 -265Q615 -265 686 -272Q714 -275 721 -266ZM255 -602L142 -698L137 -691L242 -600ZM1246 132Q1246 127 1243 67Q1240 1 1239 -29Q1239 -36 1229 -46Q1219 -56 1211 -56Q1190 -56 1158 3Q1136 44 1115 84Q1088 121 1014.5 157Q941 193 888 193Q740 193 621 -45Q612 -64 596 -71Q579 -61 564 -45V267H1245Q1246 195 1246 132ZM289 -530Q287 -530 280.5 -525Q274 -520 267 -520Q262 -520 240 -531Q249 -552 261 -564Q274 -564 289 -548Z"/>
</svg>