<svg xmlns="http://www.w3.org/2000/svg" viewBox="0 -2048 2048 2048">
	<path fill="#000000" d="M611 -1047Q592 -1027 471 -931Q417 -889 417 -828L485 271H228L295 -826Q295 -886 236 -935Q168 -983 100 -1031Q99 -1054 106 -1069L271 -1073Q173 -1122 173 -1221Q173 -1263 202 -1317Q231 -1371 261 -1380Q246 -1414 246 -1411Q246 -1441 279 -1440H460Q459 -1435 467 -1420.5Q475 -1406 475 -1397Q475 -1385 461 -1374Q544 -1307 544 -1228Q544 -1138 456 -1073Q503 -1071 604 -1068L611 -1074ZM445 -1387Q453 -1403 440 -1415H277Q275 -1398 282 -1387Q303 -1390 335 -1396Q362 -1401 366 -1401Q361 -1401 445 -1387ZM520 -1223Q520 -1292 475 -1334.5Q430 -1377 361 -1377Q327 -1377 320.5 -1375Q314 -1373 302 -1368Q256 -1364 224 -1307Q198 -1261 198 -1223Q198 -1162 249 -1118Q300 -1074 368 -1074Q431 -1074 475.5 -1115.5Q520 -1157 520 -1223ZM588 -1048H125Q189 -1000 252 -952Q320 -893 320 -831L252 246H460L393 -836Q393 -901 448 -945Q518 -997 588 -1048Z"/>
</svg>