<!-- Created with Inkscape (http://www.inkscape.org/) -->
<svg viewBox="-98.3 803 1988.3 1077.1"
   xmlns="http://www.w3.org/2000/svg"
   version="1.0">
  <g>
    <path
       style="fill:currentColor;fill-opacity:1;fill-rule:evenodd;stroke:none;stroke-width:60;stroke-linecap:butt;stroke-linejoin:miter;stroke-miterlimit:4;stroke-dasharray:none;stroke-opacity:1"
       d="M 1373.3792,876.65625 L 1574.0667,1284.0938 C 1601.7557,1264.9204 1630.7437,1242.8541 1661.6917,1217.375 L 1646.5667,1021.625 L 1815.098,1010.1562 L 1805.098,1297.5625 C 1757.5407,1358.5719 1708.3022,1409.6531 1656.9417,1452.3438 L 1730.473,1601.6562 L 1786.4105,1601.6562 L 1816.4105,1601.6562 L 1816.4105,1631.6562 L 1816.4105,1776.4375 L 1816.4105,1806.4375 L 1786.4105,1806.4375 L 32.129189,1806.4375 L 2.1291891,1806.4375 L 2.1291891,1776.4375 L 2.1291891,1631.6562 L 2.1291891,1601.6562 L 32.129189,1601.6562 L 511.69179,1601.6562 C 356.45869,1552.1405 230.45049,1471.0941 101.84799,1362.4062 C -24.625211,1277.5922 -12.289711,1160.3355 28.691789,1002.9688 L 186.78549,1012.25 C 165.92509,1088.335 120.37599,1206.3555 195.47299,1251.2188 C 222.82489,1267.5589 264.85179,1287.5613 319.37919,1307.7188 L 319.37919,1214.7188 L 1339.1292,1214.7188 L 1333.1917,1391.25 C 1403.7673,1377.1073 1468.4516,1351.7162 1540.473,1306.375 L 1337.5042,894.34375 L 1373.3792,876.65625 z M 59.722989,1054.1562 C 36.795289,1164.9928 37.130189,1235.4491 144.94179,1324.75 C 363.98059,1506.1813 554.93899,1584.4062 923.28549,1584.4062 C 1203.7779,1584.4062 1413.8556,1562.8663 1597.6292,1422.4375 L 1566.473,1359.1562 C 1378.2589,1472.7979 1223.168,1468.125 918.50424,1468.125 C 535.05869,1468.125 248.48479,1337.9992 154.84799,1287.3438 C 75.126289,1251.9486 114.76689,1127.391 127.25419,1057.75 L 59.722989,1054.1562 z M 1754.223,1074.4375 L 1711.0667,1077.3438 L 1723.9105,1243.875 L 1711.973,1253.7812 C 1672.5632,1286.4625 1635.7731,1314.1415 1600.4417,1337.625 L 1629.5042,1396.6562 C 1671.2722,1360.9468 1711.7898,1318.607 1751.5667,1268.4062 L 1754.223,1074.4375 z M 1255.848,1292.25 L 389.12919,1294.1875 L 389.12919,1331.2812 C 521.78659,1372.2415 704.58769,1408.125 918.50424,1408.125 C 1058.1814,1408.125 1162.2283,1410.8951 1251.6605,1402.75 L 1255.848,1292.25 z M 1624.8792,1477.7188 C 1549.5909,1534.3161 1469.6618,1574.1169 1383.6917,1601.6562 L 1685.9105,1601.6562 L 1624.8792,1477.7188 z M 1703.5042,1661.6562 L 62.129189,1661.6562 L 62.129189,1746.4375 L 1734.6292,1746.4375 C 1716.5541,1723.4516 1707.7295,1687.5542 1703.5042,1661.6562 z " />
  </g>
</svg>