<svg xmlns="http://www.w3.org/2000/svg" viewBox="0 -2048 2048 2048">
	<path fill="currentColor" d="M1399 -532Q1360 -546 1286 -597Q1195 -660 1171 -673Q994 -771 865 -771Q755 -771 615 -696Q485 -626 393 -527Q383 -537 377 -537Q451 -635 612 -716Q766 -794 870 -794Q1024 -794 1399 -552Q1399 -552 1399 -532ZM1677 -894Q1345 -425 1252 229H534Q465 -166 413 -327Q311 -643 100 -888Q100 -894 111 -905Q266 -757 388 -457Q475 -557 616 -626Q753 -693 863 -693Q988 -693 1127 -621Q1267 -539 1407 -457Q1534 -740 1661 -905Q1672 -894 1677 -894ZM1294 -491Q1269 -519 1150 -586Q1021 -660 978 -659H958Q981 -647 988 -634Q1031 -555 1031 -533Q1031 -519 1007 -475.5Q983 -432 976 -426ZM1008 -536Q1008 -543 987 -586.5Q966 -630 956 -635Q885 -669 858 -669Q807 -669 767 -630.5Q727 -592 727 -540Q727 -493 760 -454Q797 -411 852 -411H881Q891 -411 914 -417Q949 -426 974 -458Q1008 -502 1008 -536ZM768 -417Q745 -429 724.5 -467.5Q704 -506 704 -538Q704 -561 718 -599Q735 -645 755 -654Q575 -600 444 -477Q518 -480 587 -459Q692 -428 768 -417ZM1400 -442Q1313 -471 1310 -471Q1292 -471 1122 -429.5Q952 -388 847 -388Q764 -388 624 -422.5Q484 -457 466 -457Q439 -457 400 -438Q511 -66 553 209H1238Q1282 -121 1400 -442Z"/>
</svg>