<svg xmlns="http://www.w3.org/2000/svg" viewBox="0 -2048 2048 2048">
	<path fill="#000000" d="M1849 -944Q1849 -899 1827 -858Q1801 -809 1759 -809Q1714 -809 1680 -873Q1654 -923 1654 -952Q1654 -957 1668.5 -1007Q1683 -1057 1683 -1063Q1683 -1097 1638 -1141Q1628 -1127 1613 -1100Q1563 -974 1415 -855Q1280 -746 1156 -711Q1153 -546 1238 -324Q1263 -258 1412 66Q1343 86 1207 118Q1126 134 971 149Q844 162 822 162Q660 162 318 61Q559 -379 593 -721Q531 -748 409 -806Q350 -835 229 -962Q100 -1096 100 -1144V-1169H1666Q1692 -1170 1720 -1153Q1780 -1117 1816 -1056Q1849 -999 1849 -944ZM1825 -947Q1825 -977 1823 -983Q1803 -1041 1775 -1074Q1714 -1146 1685 -1145H1669Q1707 -1097 1707 -1058Q1707 -1052 1692.5 -1015Q1678 -978 1678 -954Q1678 -928 1698 -886Q1724 -833 1761 -833Q1791 -833 1810 -877Q1825 -911 1825 -947ZM1616 -1150H124Q148 -1091 163 -1071Q447 -700 898 -700Q1381 -700 1616 -1150ZM1384 52Q1144 -425 1132 -709Q987 -677 889 -677Q702 -677 613 -714Q597 -441 351 47Q546 115 705 124Q736 69 794.5 -39.5Q853 -148 884 -203Q1003 8 1063 119Q1210 105 1384 52ZM1038 123L884 -155L731 137L738 132Q758 133 805 136Q847 139 851 139Z"/>
</svg>