<svg xmlns="http://www.w3.org/2000/svg" viewBox="0 -2048 2048 2048">
	<path fill="currentColor" d="M1854 149H1768V-32Q1764 -32 1749 -14Q1716 29 1645 92Q1549 145 1448 145H521Q348 145 222 14Q100 -114 100 -278Q100 -507 291 -622Q371 -675 400 -675H1531Q1590 -675 1664 -611Q1728 -556 1764 -491Q1767 -494 1762 -667H1854ZM1835 126V-644H1790V126ZM1766 -89V-443Q1766 -445 1749 -476Q1712 -545 1638 -597Q1564 -649 1508 -649H423Q409 -649 343 -622Q228 -575 167 -461Q119 -371 119 -275Q119 -161 195 -53Q280 68 413 105Q474 122 488 122H1485Q1517 122 1570 102Q1617 84 1673 41Q1684 33 1723 -19Q1766 -75 1766 -89ZM1548 -250H389V-273H1548Z"/>
</svg>