<svg xmlns="http://www.w3.org/2000/svg" viewBox="23.9 -1608.1 977.2 2054.2">
	<path fill="currentColor" d="M925 370H100Q107 356 109 337Q118 222 195 125Q274 24 384 -4Q311 -17 238 -69Q159 -125 135 -189Q104 -272 104 -310V-1178Q104 -1179 136 -1284Q157 -1354 212 -1413.5Q267 -1473 334 -1498Q427 -1532 514 -1532Q600 -1532 694 -1498Q829 -1449 896 -1276Q924 -1204 924 -1179V-309Q924 -258 890 -182Q845 -82 710 -22Q688 -12 640 -3Q718 13 792 85Q857 148 896 229Q903 244 925 370ZM899 -298V-1188Q899 -1197 870 -1277Q833 -1380 756 -1439Q702 -1480 576 -1501Q521 -1510 529 -1510Q370 -1510 273 -1439Q217 -1398 186 -1347Q168 -1318 148 -1256Q130 -1201 130 -1190V-298Q130 -291 146 -231Q171 -139 267 -76Q359 -17 458 -17Q467 -17 486 -20Q505 -23 514 -23Q525 -23 547.5 -21.5Q570 -20 581 -20Q669 -20 728 -58Q860 -142 882 -231Q899 -299 899 -298ZM898 349V331Q898 328 891 297Q871 210 808 133Q745 56 676.5 30.5Q608 5 494 5Q417 5 372 23Q362 27 310 58Q292 67 259 91Q130 212 130 349ZM839 -336Q839 -346 831 -301Q800 -127 602 -75Q575 -68 516 -68Q340 -68 231 -201Q220 -214 205 -266Q190 -318 190 -337V-1187Q190 -1225 233 -1298Q272 -1365 351 -1406Q367 -1415 432 -1432.5Q497 -1450 514 -1450Q539 -1450 608 -1430Q636 -1422 690 -1400Q778 -1351 813 -1251Q839 -1176 839 -1188ZM816 -333L813 -1186Q813 -1218 774 -1288Q740 -1350 662 -1388Q589 -1424 514 -1424Q435 -1424 357 -1385Q265 -1339 226 -1230Q215 -1200 215 -1190L213 -333Q213 -330 220 -299Q235 -233 250 -213Q301 -145 423 -100Q456 -88 517 -88Q604 -88 687 -138Q776 -192 803 -270Q816 -308 816 -333Z"/>
</svg>