<svg xmlns="http://www.w3.org/2000/svg" viewBox="19.7 -1281.3 2168.6 1455.6">
	<path fill="currentColor" d="M2108 -297L2085 -292Q2056 -482 2034 -589Q1947 -1002 1666 -1123Q1535 -1179 1416 -1179Q1233 -1179 1114 -1121Q1075 -1104 1003 -1062Q898 -985 850 -890Q764 -721 723 -432Q718 -404 712 -348H1363V94H100V-346H689Q694 -397 708 -498Q727 -620 748 -698Q753 -717 775 -771Q792 -818 835 -909Q893 -1009 999 -1084Q1105 -1159 1219 -1182Q1242 -1189 1289 -1198Q1315 -1201 1394 -1201Q1570 -1201 1719 -1125Q1808 -1080 1894 -972Q1979 -868 2011 -770Q2057 -630 2108 -297ZM1341 69V-322H125V69Z"/>
</svg>