<svg xmlns="http://www.w3.org/2000/svg" viewBox="0 -2048 2048 2048">
	<path fill="#000000" d="M2480 -41H100Q136 -370 459 -553Q375 -651 364 -665Q314 -732 299 -794Q292 -823 292 -826Q292 -944 322 -988Q366 -1053 418 -1074Q484 -1101 526 -1101Q610 -1101 663 -1049Q716 -997 716 -914Q716 -844 677 -796Q636 -744 567 -744Q482 -744 455 -794Q433 -835 433 -848Q433 -894 474 -939L485 -932Q456 -888 456 -851Q456 -830 480 -797Q500 -770 582 -770Q634 -770 665 -818Q693 -859 693 -914Q693 -1076 526 -1076Q465 -1076 407.5 -1040Q350 -1004 328 -949Q314 -913 314 -835Q314 -791 347 -731Q358 -712 412 -640Q469 -565 478 -562Q595 -618 658 -618H1189Q1081 -766 1081 -829Q1081 -893 1093 -950Q1099 -977 1136.5 -1018Q1174 -1059 1201 -1071Q1270 -1101 1315 -1101Q1314 -1101 1354 -1093Q1505 -1063 1505 -913Q1505 -866 1472 -805Q1439 -744 1356 -744Q1271 -744 1244 -794Q1222 -835 1222 -848Q1222 -894 1263 -939L1274 -932Q1245 -888 1245 -851Q1245 -830 1269 -797Q1289 -769 1344 -769H1374Q1429 -769 1459 -829Q1482 -876 1482 -937Q1482 -970 1455.5 -1009.5Q1429 -1049 1398 -1061Q1358 -1076 1315 -1076Q1256 -1076 1200.5 -1043Q1145 -1010 1120 -957Q1103 -921 1103 -842Q1103 -785 1143 -722Q1145 -718 1220 -618H1978Q1950 -650 1902 -718Q1867 -779 1867 -831Q1867 -944 1898 -986Q1947 -1052 1990 -1071Q2060 -1101 2103 -1101Q2147 -1101 2196 -1080Q2294 -1038 2294 -911Q2294 -863 2261 -805Q2226 -744 2143 -744Q2058 -744 2031 -794Q2010 -833 2010 -848Q2010 -894 2051 -939L2062 -932Q2033 -888 2033 -851Q2033 -830 2057 -797Q2077 -769 2132 -769H2161Q2216 -769 2246 -827Q2271 -874 2271 -935Q2271 -990 2215 -1041Q2177 -1076 2104 -1076Q2057 -1076 2005 -1053Q1993 -1048 1939 -998Q1914 -975 1906 -952Q1889 -904 1889 -833Q1889 -782 1932 -718Q1940 -705 2009 -618H2480V-592H2029Q2127 -485 2225 -378Q2361 -227 2382 -154Q2384 -124 2397 -67H2480ZM2373 -67Q2367 -104 2360 -141Q2353 -178 2333 -211Q2294 -275 2214 -361Q2148 -432 2082 -502Q2004 -592 1996 -592H1242Q1257 -576 1286 -543Q1374 -448 1462 -354Q1578 -220 1596 -148Q1600 -121 1608 -67ZM1584 -67Q1583 -75 1581 -93Q1572 -193 1458 -324Q1384 -405 1236 -567Q1220 -584 1206 -592H651Q585 -592 495 -546Q539 -499 625 -403Q691 -329 757 -255Q811 -179 822 -67ZM800 -67V-74Q800 -94 784.5 -144.5Q769 -195 758 -213Q716 -282 625 -377Q551 -454 476 -531Q351 -469 251 -340Q146 -204 131 -67Z"/>
</svg>