<svg xmlns="http://www.w3.org/2000/svg" viewBox="0 -2048 2048 2048">
	<path fill="#000000" d="M2276 -19H2151V-194Q2029 -18 1816 -18H584Q360 -18 224 -194Q100 -355 100 -585Q100 -819 248 -971Q396 -1123 629 -1123H1827Q2026 -1123 2150 -925V-1116H2276ZM2250 -45V-1090H2176V-835Q2094 -967 2037 -1018Q1949 -1097 1827 -1097H629Q407 -1097 266.5 -952.5Q126 -808 126 -585Q126 -366 243 -212Q371 -44 584 -44H1816Q1938 -44 2028 -109Q2096 -159 2177 -277V-45ZM2170 -609Q2170 -397 2072 -270Q1962 -128 1757 -128H604Q424 -128 315 -274Q216 -406 216 -592Q216 -731 335 -872Q459 -1019 595 -1019H1791Q1942 -1019 2058 -888Q2170 -762 2170 -609ZM2144 -609Q2144 -751 2039 -870Q1931 -993 1791 -993H595Q470 -993 354 -854Q242 -720 242 -592Q242 -417 334 -293Q435 -154 604 -154H1757Q1951 -154 2053 -288Q2144 -408 2144 -609ZM2051 -501H1484Q1399 -435 1339 -435Q1242 -435 1199 -500Q1156 -435 1058 -435Q998 -435 913 -501H346V-605H913Q998 -671 1058 -671Q1156 -671 1199 -606Q1242 -671 1339 -671Q1399 -671 1484 -605H2051ZM2025 -527V-579H1475Q1392 -645 1339 -645Q1294 -645 1255 -623Q1209 -596 1209 -553Q1209 -510 1255 -483Q1294 -461 1339 -461Q1392 -461 1475 -527ZM1188 -553Q1188 -596 1142 -623Q1103 -645 1058 -645Q1005 -645 922 -579H372V-527H922Q1005 -461 1058 -461Q1103 -461 1142 -483Q1188 -510 1188 -553Z"/>
</svg>