<svg xmlns="http://www.w3.org/2000/svg" viewBox="0 -2048 2048 2048">
	<path fill="currentColor" d="M1898 74Q1898 153 1744 153Q1584 -302 1386 -480Q1234 -617 1047 -676Q927 -714 697 -739Q440 -767 317 -797Q100 -850 100 -1016Q100 -1083 163.5 -1149Q227 -1215 294 -1215Q400 -1215 426 -1143Q440 -1074 455 -1004Q718 -1070 928 -1070Q1203 -1070 1492 -909Q1788 -744 1788 -613Q1788 -570 1695 -508Q1715 -472 1731 -435Q1776 -334 1831 -179Q1898 14 1898 74ZM1758 -613Q1758 -726 1477.5 -883Q1197 -1040 928 -1040Q723 -1040 468 -977Q498 -932 569 -916Q634 -902 818 -893Q1092 -880 1207 -854Q1407 -810 1557 -684Q1627 -625 1680 -535Q1758 -589 1758 -613ZM1868 74Q1868 18 1801 -172Q1746 -326 1703 -423Q1633 -579 1537 -660Q1391 -783 1196 -826Q1084 -850 816 -863Q730 -865 563 -886Q456 -910 427 -989Q414 -1055 402 -1120Q382 -1185 294 -1185Q240 -1185 185 -1128Q130 -1071 130 -1016Q130 -930 188 -884Q230 -850 325 -827Q451 -796 710 -767Q940 -742 1062 -703Q1249 -643 1406 -502Q1606 -323 1765 123Q1868 116 1868 74Z"/>
</svg>