<svg xmlns="http://www.w3.org/2000/svg" viewBox="16.9 -1405.1 2243.2 1644.2">
	<path fill="currentColor" d="M1835 -1027Q1835 -919 1759 -847Q1683 -775 1580 -775Q1473 -775 1399 -848.5Q1325 -922 1325 -1027Q1325 -1133 1401 -1206Q1477 -1279 1580 -1279Q1686 -1279 1760.5 -1205Q1835 -1131 1835 -1027ZM1015 -1027Q1015 -919 939 -847Q863 -775 760 -775Q653 -775 579 -848.5Q505 -922 505 -1027Q505 -1133 581 -1206Q657 -1279 760 -1279Q866 -1279 940.5 -1205Q1015 -1131 1015 -1027ZM2177 -1308Q2090 -1175 1933 -899Q1699 -418 1623 156H679Q604 -263 557 -440Q468 -778 330 -1001Q293 -1061 217 -1156Q130 -1264 100 -1308L122 -1322Q203 -1223 352 -1014Q490 -791 579 -460Q628 -275 701 130H1600Q1675 -429 1910 -911Q1949 -992 2029 -1118Q2125 -1269 2154 -1321ZM1809 -1027Q1809 -1121 1742.5 -1187Q1676 -1253 1580 -1253Q1487 -1253 1419 -1187.5Q1351 -1122 1351 -1027Q1351 -933 1417.5 -867Q1484 -801 1580 -801Q1673 -801 1741 -865.5Q1809 -930 1809 -1027ZM989 -1027Q989 -1121 922.5 -1187Q856 -1253 760 -1253Q667 -1253 599 -1187.5Q531 -1122 531 -1027Q531 -933 597.5 -867Q664 -801 760 -801Q853 -801 921 -865.5Q989 -930 989 -1027Z"/>
</svg>