<svg xmlns="http://www.w3.org/2000/svg" viewBox="16.9 -1405.1 2243.2 1644.2">
	<path fill="currentColor" d="M1626 -728Q1626 -691 1598.5 -664.5Q1571 -638 1534 -638Q1498 -638 1470 -665Q1442 -692 1442 -728Q1442 -765 1470 -791.5Q1498 -818 1535 -818Q1571 -818 1598.5 -791Q1626 -764 1626 -728ZM1879 -897Q1823 -885 1778 -885Q1622 -885 1342.5 -1011.5Q1063 -1138 907 -1138Q794 -1138 654 -1076Q591 -1048 422 -953L409 -976Q580 -1072 648 -1102Q790 -1164 907 -1164Q1068 -1164 1346.5 -1037.5Q1625 -911 1778 -911Q1822 -911 1874 -922ZM1246 -728Q1246 -691 1218.5 -664.5Q1191 -638 1154 -638Q1118 -638 1090 -665Q1062 -692 1062 -728Q1062 -765 1090 -791.5Q1118 -818 1155 -818Q1191 -818 1218.5 -791Q1246 -764 1246 -728ZM2177 -1308Q2090 -1175 1933 -899Q1699 -418 1623 156H679Q604 -263 557 -440Q468 -778 330 -1001Q293 -1061 217 -1156Q130 -1264 100 -1308L122 -1322Q203 -1223 352 -1014Q490 -791 579 -460Q628 -275 701 130H1600Q1675 -429 1910 -911Q1949 -992 2029 -1118Q2125 -1269 2154 -1321ZM1462 -282Q1462 -246 1434 -218.5Q1406 -191 1369 -191Q1333 -191 1306 -218.5Q1279 -246 1279 -282Q1279 -320 1305 -345.5Q1331 -371 1369 -371Q1406 -371 1434 -344.5Q1462 -318 1462 -282ZM866 -728Q866 -691 838.5 -664.5Q811 -638 774 -638Q738 -638 710 -665Q682 -692 682 -728Q682 -765 710 -791.5Q738 -818 775 -818Q811 -818 838.5 -791Q866 -764 866 -728ZM1046 -278Q1046 -241 1018.5 -214.5Q991 -188 954 -188Q918 -188 890 -215Q862 -242 862 -278Q862 -315 890 -341.5Q918 -368 955 -368Q991 -368 1018.5 -341Q1046 -314 1046 -278ZM1600 -728Q1600 -753 1580 -772.5Q1560 -792 1535 -792Q1509 -792 1488.5 -773Q1468 -754 1468 -728Q1468 -703 1488 -683.5Q1508 -664 1534 -664Q1560 -664 1580 -683Q1600 -702 1600 -728ZM1220 -728Q1220 -753 1200 -772.5Q1180 -792 1155 -792Q1129 -792 1108.5 -773Q1088 -754 1088 -728Q1088 -703 1108 -683.5Q1128 -664 1154 -664Q1180 -664 1200 -683Q1220 -702 1220 -728ZM1436 -282Q1436 -308 1415.5 -326.5Q1395 -345 1369 -345Q1305 -345 1305 -282Q1305 -256 1324 -236.5Q1343 -217 1369 -217Q1395 -217 1415.5 -236.5Q1436 -256 1436 -282ZM840 -728Q840 -753 820 -772.5Q800 -792 775 -792Q749 -792 728.5 -773Q708 -754 708 -728Q708 -703 728 -683.5Q748 -664 774 -664Q800 -664 820 -683Q840 -702 840 -728ZM1020 -278Q1020 -303 1000 -322.5Q980 -342 955 -342Q929 -342 908.5 -323Q888 -304 888 -278Q888 -253 908 -233.5Q928 -214 954 -214Q980 -214 1000 -233Q1020 -252 1020 -278Z"/>
</svg>