<svg xmlns="http://www.w3.org/2000/svg" viewBox="0 -2048 2048 2048">
	<path fill="#000000" d="M1573 -579L1556 -565Q1439 -676 1355 -718Q1252 -769 1109 -769Q1019 -769 950 -742Q975 -730 1023 -702Q1243 -556 1365 -115L1345 -103Q1254 -364 1197 -463Q1090 -651 922 -728Q867 -707 747 -622Q782 -567 782 -503Q782 -405 715 -293Q651 -201 588 -109L883 335L862 350L575 -83L290 350L268 335L560 -108Q499 -196 439 -285Q377 -388 373 -486Q221 -517 221 -622Q221 -752 409 -814Q352 -895 352 -965Q352 -1011 370 -1049L100 -1219Q163 -1362 285 -1448Q411 -1537 563 -1537Q744 -1537 857 -1458Q957 -1389 1049 -1220L775 -1058Q791 -1016 791 -963Q791 -880 736 -809Q830 -792 923 -755Q1028 -792 1111 -792Q1371 -792 1573 -579ZM1019 -1226Q884 -1514 563 -1514Q432 -1514 307 -1430.5Q182 -1347 135 -1226L381 -1072Q452 -1204 586 -1204Q701 -1204 765 -1077ZM768 -963Q768 -1044 716 -1110Q661 -1182 582 -1182Q502 -1182 438.5 -1113.5Q375 -1045 375 -965Q375 -893 430 -823Q469 -827 536 -827Q617 -827 708 -813Q768 -874 768 -963ZM895 -742Q843 -763 722 -789Q683 -751 625 -728Q693 -706 735 -641Q824 -704 895 -742ZM685 -794Q604 -806 582 -806Q554 -806 454 -799Q535 -737 574 -737Q616 -737 685 -794ZM716 -628Q660 -714 574 -714Q500 -714 446 -647Q397 -586 393 -509Q399 -507 404 -507Q543 -507 716 -628ZM523 -728Q476 -747 421 -792Q364 -778 310 -736Q247 -687 247 -636Q247 -574 280 -547Q303 -528 370 -512Q393 -698 523 -728ZM759 -502Q759 -555 728 -609Q556 -482 426 -482Q411 -482 396 -485Q399 -396 460 -296Q516 -213 573 -129Q695 -302 695 -303Q759 -409 759 -502Z"/>
</svg>