<svg xmlns="http://www.w3.org/2000/svg" viewBox="0 -2048 2048 2048">
	<path fill="#000000" d="M1659 -1057L1654 -1031Q1597 -1041 1486 -1075Q1347 -1148 1208 -1220Q1057 -1294 902 -1294Q763 -1294 642 -1190Q562 -1121 510 -1094Q455 -1066 355 -1044L349 -1070Q447 -1091 498 -1117.5Q549 -1144 626 -1210Q754 -1320 902 -1320Q1062 -1320 1214 -1246Q1355 -1172 1496 -1099Q1539 -1080 1659 -1057ZM2177 -1308Q2090 -1175 1933 -899Q1699 -418 1623 156H679Q604 -263 557 -440Q468 -778 330 -1001Q293 -1061 217 -1156Q130 -1264 100 -1308L122 -1322Q209 -1216 366 -990Q457 -1011 509 -1039Q558 -1064 634 -1130Q758 -1237 902 -1237Q1059 -1237 1212 -1163Q1351 -1090 1491 -1017Q1538 -996 1618 -981Q1709 -964 1745 -952L1734 -935Q1629 -952 1501 -952Q1398 -952 1240 -933Q1149 -917 965 -898Q1089 -737 1333 -413Q1386 -341 1402 -325Q1449 -278 1498 -278Q1538 -278 1567.5 -307Q1597 -336 1597 -376Q1597 -403 1573 -436Q1549 -469 1527 -469Q1447 -469 1432 -398L1407 -403Q1425 -495 1527 -495Q1563 -495 1595 -451Q1623 -411 1623 -376Q1623 -325 1586 -288.5Q1549 -252 1498 -252Q1440 -252 1389 -301Q1368 -322 1312 -398Q1189 -558 945 -880V-255Q917 -249 911 -249Q875 -249 863 -334Q831 -564 757 -642Q729 -672 729 -691Q729 -718 776 -733Q833 -752 840 -761Q872 -799 875 -900Q800 -908 558 -975Q518 -986 507 -986Q443 -986 375 -976Q501 -758 584 -438Q631 -260 701 130H1600Q1675 -429 1910 -911Q1949 -992 2029 -1118Q2125 -1269 2154 -1321ZM1592 -28Q1592 9 1564.5 35.5Q1537 62 1500 62Q1464 62 1436 35Q1408 8 1408 -28Q1408 -65 1436 -91.5Q1464 -118 1501 -118Q1537 -118 1564.5 -91Q1592 -64 1592 -28ZM1242 -28Q1242 9 1214.5 35.5Q1187 62 1150 62Q1114 62 1086 35Q1058 8 1058 -28Q1058 -65 1086 -91.5Q1114 -118 1151 -118Q1187 -118 1214.5 -91Q1242 -64 1242 -28ZM892 -28Q892 9 864.5 35.5Q837 62 800 62Q764 62 736 35Q708 8 708 -28Q708 -65 736 -91.5Q764 -118 801 -118Q837 -118 864.5 -91Q892 -64 892 -28ZM1521 -978Q1450 -1000 1289 -1091Q1143 -1174 1042 -1196Q1082 -1139 1082 -1092Q1082 -1012 1023 -968Q971 -928 888 -928Q820 -928 767 -974Q711 -1022 711 -1089Q711 -1126 730 -1165Q662 -1109 514 -1012Q529 -1010 565 -1000Q834 -923 938 -923Q999 -923 1088 -936Q1163 -948 1237 -959Q1400 -979 1521 -978ZM1056 -1092Q1056 -1115 1036.5 -1154.5Q1017 -1194 998 -1204Q985 -1211 902 -1211Q830 -1211 770 -1184Q737 -1129 737 -1089Q737 -1033 784 -993.5Q831 -954 888 -954Q1056 -954 1056 -1092ZM1566 -28Q1566 -53 1546 -72.5Q1526 -92 1501 -92Q1475 -92 1454.5 -73Q1434 -54 1434 -28Q1434 -3 1454 16.5Q1474 36 1500 36Q1526 36 1546 17Q1566 -2 1566 -28ZM919 -276V-897Q902 -898 901 -898Q899 -789 860 -744Q851 -734 801 -715Q755 -697 755 -691Q755 -682 776 -660Q800 -634 803 -628Q866 -513 889 -337Q897 -275 911 -275Q915 -275 919 -276ZM1216 -28Q1216 -53 1196 -72.5Q1176 -92 1151 -92Q1125 -92 1104.5 -73Q1084 -54 1084 -28Q1084 -3 1104 16.5Q1124 36 1150 36Q1176 36 1196 17Q1216 -2 1216 -28ZM866 -28Q866 -53 846 -72.5Q826 -92 801 -92Q775 -92 754.5 -73Q734 -54 734 -28Q734 -3 754 16.5Q774 36 800 36Q826 36 846 17Q866 -2 866 -28Z"/>
</svg>