<svg xmlns="http://www.w3.org/2000/svg" viewBox="16.9 -1405.1 2243.2 1644.2">
	<path fill="currentColor" d="M1307 -993Q1307 -939 1267 -899Q1227 -859 1173 -859Q1120 -859 1080 -898Q1040 -937 1040 -991Q1040 -1046 1080.5 -1084.5Q1121 -1123 1175 -1123Q1230 -1123 1268.5 -1085.5Q1307 -1048 1307 -993ZM1614 -541Q1614 -486 1573 -447.5Q1532 -409 1479 -409Q1426 -409 1386 -448.5Q1346 -488 1346 -541Q1346 -596 1386 -634.5Q1426 -673 1480 -673Q1533 -673 1573.5 -634Q1614 -595 1614 -541ZM2177 -1308Q2090 -1175 1933 -899Q1699 -418 1623 156H679Q604 -263 557 -440Q468 -778 330 -1001Q293 -1061 217 -1156Q130 -1264 100 -1308L122 -1322Q203 -1223 352 -1014Q490 -791 579 -460Q628 -275 701 130H1600Q1675 -429 1910 -911Q1949 -992 2029 -1118Q2125 -1269 2154 -1321ZM997 -537Q997 -482 958.5 -444Q920 -406 865 -406Q812 -406 771 -444Q730 -482 730 -537Q730 -591 771 -630.5Q812 -670 865 -670Q919 -670 958 -630Q997 -590 997 -537ZM1281 -993Q1281 -1037 1250 -1067Q1219 -1097 1175 -1097Q1131 -1097 1098.5 -1066Q1066 -1035 1066 -991Q1066 -948 1098 -916.5Q1130 -885 1173 -885Q1217 -885 1249 -917Q1281 -949 1281 -993ZM1588 -541Q1588 -584 1555.5 -615.5Q1523 -647 1480 -647Q1437 -647 1404.5 -616Q1372 -585 1372 -541Q1372 -499 1404.5 -467Q1437 -435 1479 -435Q1522 -435 1555 -466Q1588 -497 1588 -541ZM971 -537Q971 -580 939.5 -612Q908 -644 865 -644Q822 -644 789 -612Q756 -580 756 -537Q756 -494 789 -463Q822 -432 865 -432Q909 -432 940 -462.5Q971 -493 971 -537Z"/>
</svg>