<svg xmlns="http://www.w3.org/2000/svg" viewBox="0 -2048 2048 2048">
	<path fill="currentColor" d="M1040 -1038L857 -1099Q852 -1091 862 -1046Q879 -965 879 -960V-233H741Q739 -231 737 -227L960 310H887Q876 311 856 299Q744 24 627 -232H503L275 309H170L398 -230H261V-969Q261 -980 268 -1016Q275 -1052 275 -1072Q275 -1087 272 -1099Q214 -1079 100 -1038V-1357L323 -1266Q359 -1341 365 -1351Q399 -1404 450 -1431Q513 -1464 583 -1464Q715 -1464 812 -1266L1040 -1357ZM1015 -1069V-1321L819 -1244Q829 -1202 855 -1121Q910 -1102 1015 -1069ZM853 -694V-955Q855 -1007 816 -1168Q804 -1217 786 -1259Q764 -1308 750 -1331Q722 -1373 675 -1405Q619 -1443 578 -1443Q589 -1443 521 -1429Q382 -1400 310 -1142Q285 -1053 286 -1030V-694ZM316 -1239L125 -1321V-1074Q177 -1089 278 -1126Q289 -1165 316 -1239ZM853 -547V-667H287V-547ZM853 -405V-525H287V-405ZM853 -258V-378H287V-258ZM924 284L711 -231H662L875 284ZM473 -231H424L205 284H260Z"/>
</svg>