<svg xmlns="http://www.w3.org/2000/svg" viewBox="0 0 420 1000">
  <g transform="scale(1,-1) translate(0,-1000)">
    <path d="M137 983Q137 990 142.0 995.0Q147 1000 154 1000H215Q215 1000 277 1000Q284 1000 289.0 995.0Q294 990 294 983Q294 978 293 976L269 923Q323 899 334 842Q334 842 335 842L336 841L406 827Q420 825 420 811V808L400 651Q399 643 393 639Q387 634 379 636L324 646Q316 605 301.5 553.0Q287 501 279.5 466.5Q272 432 272 405Q272 334 294.5 258.0Q317 182 349.5 110.5Q382 39 385 29Q386 27 386 22Q386 5 371 1Q369 0 364 0Q348 0 343 15Q340 25 315.5 73.0Q291 121 268.5 182.5Q246 244 235 311H185Q175 244 152.0 182.5Q129 121 105.0 74.5Q81 28 77 17Q72 1 56 1Q54 1 52.0 1.5Q50 2 48 2Q33 9 33 24Q33 25 33.5 27.5Q34 30 34 31Q37 40 70.0 110.5Q103 181 125.5 255.5Q148 330 148 401Q148 427 140.0 461.5Q132 496 118.0 548.5Q104 601 96 642L40 631Q33 630 27 634Q20 639 20 646L0 804V806Q0 820 14 823L84 837H86Q98 900 162 924L138 976Q137 978 137 983ZM37 792 52 669 89 676Q80 735 80 775Q80 792 81 801ZM132 839Q125 812 125 775Q125 758 126.5 740.0Q128 722 131.0 701.5Q134 681 137.0 666.5Q140 652 145.5 627.5Q151 603 153.5 593.0Q156 583 163.0 556.0Q170 529 172 523H247Q248 529 255.5 556.5Q263 584 265.5 594.0Q268 604 274.0 629.0Q280 654 282.5 669.0Q285 684 288.5 705.0Q292 726 293.5 744.5Q295 763 295 780Q295 816 288 844Q277 888 216 888Q187 888 162.5 874.5Q138 861 132 839ZM383 796 339 805Q339 801 339.5 792.5Q340 784 340 780Q340 737 330 680L368 673ZM238 484H181Q187 463 190 441H229Q231 453 238 484ZM227 403H193V401L190 349H230Q227 376 227 403ZM196 933Q202 934 215.0 934.0Q228 934 235 933L251 968Q242 968 232.5 967.5Q223 967 222 967Q220 966 217 966H215H214Q211 966 209 967Q208 967 198.5 967.5Q189 968 180 968Z" fill="currentColor"/>
  </g>
</svg>