<svg xmlns="http://www.w3.org/2000/svg" viewBox="6.5 -1256.5 2525 1334">
	<path fill="currentColor" d="M2438 -941Q2438 -856 2389 -797Q2336 -734 2253 -734Q2111 -734 2080 -933L2106 -937Q2129 -760 2253 -760Q2325 -760 2370 -815Q2412 -867 2412 -941Q2412 -1032 2342 -1087Q2278 -1137 2185 -1137Q2063 -1137 1994.5 -1063.5Q1926 -990 1926 -868Q1926 -739 2029 -586Q2130 -452 2231 -319Q2347 -156 2370 -21L2345 -16Q2319 -152 2201 -314Q2101 -447 2001 -580Q1900 -734 1900 -868Q1900 -1001 1976.5 -1082Q2053 -1163 2185 -1163Q2289 -1163 2361 -1105Q2438 -1043 2438 -941ZM1838 -941Q1838 -856 1789 -797Q1736 -734 1653 -734Q1511 -734 1480 -933L1506 -937Q1529 -760 1653 -760Q1725 -760 1770 -815Q1812 -867 1812 -941Q1812 -1032 1742 -1087Q1678 -1137 1585 -1137Q1463 -1137 1394.5 -1063.5Q1326 -990 1326 -868Q1326 -739 1429 -586Q1530 -452 1631 -319Q1747 -156 1770 -21L1745 -16Q1719 -152 1601 -314Q1501 -447 1401 -580Q1300 -734 1300 -868Q1300 -1001 1376.5 -1082Q1453 -1163 1585 -1163Q1689 -1163 1761 -1105Q1838 -1043 1838 -941ZM1238 -941Q1238 -856 1189 -797Q1136 -734 1053 -734Q911 -734 880 -933L906 -937Q929 -760 1053 -760Q1125 -760 1170 -815Q1212 -867 1212 -941Q1212 -1032 1142 -1087Q1078 -1137 985 -1137Q863 -1137 794.5 -1063.5Q726 -990 726 -868Q726 -739 829 -586Q930 -452 1031 -319Q1147 -156 1170 -21L1145 -16Q1119 -152 1001 -314Q901 -447 801 -580Q700 -734 700 -868Q700 -1001 776.5 -1082Q853 -1163 985 -1163Q1089 -1163 1161 -1105Q1238 -1043 1238 -941ZM638 -941Q638 -856 589 -797Q536 -734 453 -734Q311 -734 280 -933L306 -937Q329 -760 453 -760Q525 -760 570 -815Q612 -867 612 -941Q612 -1032 542 -1087Q478 -1137 385 -1137Q263 -1137 194.5 -1063.5Q126 -990 126 -868Q126 -739 229 -586Q330 -452 431 -319Q547 -156 570 -21L545 -16Q519 -152 401 -314Q301 -447 201 -580Q100 -734 100 -868Q100 -1001 176.5 -1082Q253 -1163 385 -1163Q489 -1163 561 -1105Q638 -1043 638 -941Z"/>
</svg>