<svg xmlns="http://www.w3.org/2000/svg" viewBox="20.8 -1651.2 1744.4 2138.4">
	<path fill="currentColor" d="M1686 -1388Q1686 -1317 1645 -1268Q1601 -1216 1532 -1216Q1412 -1216 1387 -1383L1413 -1387Q1431 -1242 1532 -1242Q1590 -1242 1626 -1287Q1660 -1328 1660 -1388Q1660 -1461 1603 -1505Q1551 -1546 1476 -1546Q1378 -1546 1322 -1486.5Q1266 -1427 1266 -1328Q1266 -1200 1431 -989Q1609 -762 1631 -632L1606 -627Q1585 -738 1488 -872Q1406 -982 1323 -1091Q1240 -1218 1240 -1328Q1240 -1438 1303.5 -1505Q1367 -1572 1476 -1572Q1562 -1572 1622 -1524Q1686 -1472 1686 -1388ZM1116 -1388Q1116 -1317 1075 -1268Q1031 -1216 962 -1216Q842 -1216 817 -1383L843 -1387Q861 -1242 962 -1242Q1020 -1242 1056 -1287Q1090 -1328 1090 -1388Q1090 -1461 1033 -1505Q981 -1546 906 -1546Q808 -1546 752 -1486.5Q696 -1427 696 -1328Q696 -1200 861 -989Q1039 -762 1061 -632L1036 -627Q1015 -738 918 -872Q836 -982 753 -1091Q670 -1218 670 -1328Q670 -1438 733.5 -1505Q797 -1572 906 -1572Q992 -1572 1052 -1524Q1116 -1472 1116 -1388ZM1686 -353Q1686 -282 1645 -233Q1601 -181 1532 -181Q1412 -181 1387 -348L1413 -352Q1431 -207 1532 -207Q1590 -207 1626 -252Q1660 -293 1660 -353Q1660 -426 1603 -470Q1551 -511 1476 -511Q1378 -511 1322 -451.5Q1266 -392 1266 -293Q1266 -165 1431 46Q1609 273 1631 403L1606 408Q1585 297 1488 163Q1406 53 1323 -56Q1240 -183 1240 -293Q1240 -403 1303.5 -470Q1367 -537 1476 -537Q1562 -537 1622 -489Q1686 -437 1686 -353ZM546 -1388Q546 -1317 505 -1268Q461 -1216 392 -1216Q272 -1216 247 -1383L273 -1387Q291 -1242 392 -1242Q450 -1242 486 -1287Q520 -1328 520 -1388Q520 -1461 463 -1505Q411 -1546 336 -1546Q238 -1546 182 -1486.5Q126 -1427 126 -1328Q126 -1200 291 -989Q469 -762 491 -632L466 -627Q445 -738 348 -872Q266 -982 183 -1091Q100 -1218 100 -1328Q100 -1438 163.5 -1505Q227 -1572 336 -1572Q422 -1572 482 -1524Q546 -1472 546 -1388ZM1116 -353Q1116 -282 1075 -233Q1031 -181 962 -181Q842 -181 817 -348L843 -352Q861 -207 962 -207Q1020 -207 1056 -252Q1090 -293 1090 -353Q1090 -426 1033 -470Q981 -511 906 -511Q808 -511 752 -451.5Q696 -392 696 -293Q696 -165 861 46Q1039 273 1061 403L1036 408Q1015 297 918 163Q836 53 753 -56Q670 -183 670 -293Q670 -403 733.5 -470Q797 -537 906 -537Q992 -537 1052 -489Q1116 -437 1116 -353ZM546 -353Q546 -282 505 -233Q461 -181 392 -181Q272 -181 247 -348L273 -352Q291 -207 392 -207Q450 -207 486 -252Q520 -293 520 -353Q520 -426 463 -470Q411 -511 336 -511Q238 -511 182 -451.5Q126 -392 126 -293Q126 -165 291 46Q469 273 491 403L466 408Q445 297 348 163Q266 53 183 -56Q100 -183 100 -293Q100 -403 163.5 -470Q227 -537 336 -537Q422 -537 482 -489Q546 -437 546 -353Z"/>
</svg>