<svg xmlns="http://www.w3.org/2000/svg" viewBox="0 -2048 2048 2048">
	<path fill="currentColor" d="M2826 -1388Q2826 -1317 2785 -1268Q2741 -1216 2672 -1216Q2552 -1216 2527 -1383L2553 -1387Q2571 -1242 2672 -1242Q2730 -1242 2766 -1287Q2800 -1328 2800 -1388Q2800 -1461 2743 -1505Q2691 -1546 2616 -1546Q2518 -1546 2462 -1486.5Q2406 -1427 2406 -1328Q2406 -1200 2571 -989Q2749 -762 2771 -632L2746 -627Q2725 -738 2628 -872Q2546 -982 2463 -1091Q2380 -1218 2380 -1328Q2380 -1438 2443.5 -1505Q2507 -1572 2616 -1572Q2702 -1572 2762 -1524Q2826 -1472 2826 -1388ZM2256 -1388Q2256 -1317 2215 -1268Q2171 -1216 2102 -1216Q1982 -1216 1957 -1383L1983 -1387Q2001 -1242 2102 -1242Q2160 -1242 2196 -1287Q2230 -1328 2230 -1388Q2230 -1461 2173 -1505Q2121 -1546 2046 -1546Q1948 -1546 1892 -1486.5Q1836 -1427 1836 -1328Q1836 -1200 2001 -989Q2179 -762 2201 -632L2176 -627Q2155 -738 2058 -872Q1976 -982 1893 -1091Q1810 -1218 1810 -1328Q1810 -1438 1873.5 -1505Q1937 -1572 2046 -1572Q2132 -1572 2192 -1524Q2256 -1472 2256 -1388ZM1686 -1388Q1686 -1317 1645 -1268Q1601 -1216 1532 -1216Q1412 -1216 1387 -1383L1413 -1387Q1431 -1242 1532 -1242Q1590 -1242 1626 -1287Q1660 -1328 1660 -1388Q1660 -1461 1603 -1505Q1551 -1546 1476 -1546Q1378 -1546 1322 -1486.5Q1266 -1427 1266 -1328Q1266 -1200 1431 -989Q1609 -762 1631 -632L1606 -627Q1585 -738 1488 -872Q1406 -982 1323 -1091Q1240 -1218 1240 -1328Q1240 -1438 1303.5 -1505Q1367 -1572 1476 -1572Q1562 -1572 1622 -1524Q1686 -1472 1686 -1388ZM2541 -353Q2541 -282 2500 -233Q2456 -181 2387 -181Q2267 -181 2242 -348L2268 -352Q2286 -207 2387 -207Q2445 -207 2481 -252Q2515 -293 2515 -353Q2515 -426 2458 -470Q2406 -511 2331 -511Q2233 -511 2177 -451.5Q2121 -392 2121 -293Q2121 -165 2286 46Q2464 273 2486 403L2461 408Q2440 297 2343 163Q2261 53 2178 -56Q2095 -183 2095 -293Q2095 -403 2158.5 -470Q2222 -537 2331 -537Q2417 -537 2477 -489Q2541 -437 2541 -353ZM1116 -1388Q1116 -1317 1075 -1268Q1031 -1216 962 -1216Q842 -1216 817 -1383L843 -1387Q861 -1242 962 -1242Q1020 -1242 1056 -1287Q1090 -1328 1090 -1388Q1090 -1461 1033 -1505Q981 -1546 906 -1546Q808 -1546 752 -1486.5Q696 -1427 696 -1328Q696 -1200 861 -989Q1039 -762 1061 -632L1036 -627Q1015 -738 918 -872Q836 -982 753 -1091Q670 -1218 670 -1328Q670 -1438 733.5 -1505Q797 -1572 906 -1572Q992 -1572 1052 -1524Q1116 -1472 1116 -1388ZM1971 -353Q1971 -282 1930 -233Q1886 -181 1817 -181Q1697 -181 1672 -348L1698 -352Q1716 -207 1817 -207Q1875 -207 1911 -252Q1945 -293 1945 -353Q1945 -426 1888 -470Q1836 -511 1761 -511Q1663 -511 1607 -451.5Q1551 -392 1551 -293Q1551 -165 1716 46Q1894 273 1916 403L1891 408Q1870 297 1773 163Q1691 53 1608 -56Q1525 -183 1525 -293Q1525 -403 1588.5 -470Q1652 -537 1761 -537Q1847 -537 1907 -489Q1971 -437 1971 -353ZM546 -1388Q546 -1317 505 -1268Q461 -1216 392 -1216Q272 -1216 247 -1383L273 -1387Q291 -1242 392 -1242Q450 -1242 486 -1287Q520 -1328 520 -1388Q520 -1461 463 -1505Q411 -1546 336 -1546Q238 -1546 182 -1486.5Q126 -1427 126 -1328Q126 -1200 291 -989Q469 -762 491 -632L466 -627Q445 -738 348 -872Q266 -982 183 -1091Q100 -1218 100 -1328Q100 -1438 163.5 -1505Q227 -1572 336 -1572Q422 -1572 482 -1524Q546 -1472 546 -1388ZM1401 -353Q1401 -282 1360 -233Q1316 -181 1247 -181Q1127 -181 1102 -348L1128 -352Q1146 -207 1247 -207Q1305 -207 1341 -252Q1375 -293 1375 -353Q1375 -426 1318 -470Q1266 -511 1191 -511Q1093 -511 1037 -451.5Q981 -392 981 -293Q981 -165 1146 46Q1324 273 1346 403L1321 408Q1300 297 1203 163Q1121 53 1038 -56Q955 -183 955 -293Q955 -403 1018.5 -470Q1082 -537 1191 -537Q1277 -537 1337 -489Q1401 -437 1401 -353ZM831 -353Q831 -282 790 -233Q746 -181 677 -181Q557 -181 532 -348L558 -352Q576 -207 677 -207Q735 -207 771 -252Q805 -293 805 -353Q805 -426 748 -470Q696 -511 621 -511Q523 -511 467 -451.5Q411 -392 411 -293Q411 -165 576 46Q754 273 776 403L751 408Q730 297 633 163Q551 53 468 -56Q385 -183 385 -293Q385 -403 448.5 -470Q512 -537 621 -537Q707 -537 767 -489Q831 -437 831 -353Z"/>
</svg>