<svg xmlns="http://www.w3.org/2000/svg" viewBox="0 -2048 2048 2048">
	<path fill="currentColor" d="M1218 -840H1192V-1244Q1192 -1324 1122 -1385Q1052 -1446 971 -1446Q890 -1446 820 -1385Q750 -1324 750 -1244V-840H724V-1244Q724 -1335 803 -1404Q879 -1472 971 -1472Q1063 -1472 1140.5 -1403.5Q1218 -1335 1218 -1244ZM594 -840H568V-1244Q568 -1324 498 -1385Q428 -1446 347 -1446Q266 -1446 196 -1385Q126 -1324 126 -1244V-840H100V-1244Q100 -1335 179 -1404Q255 -1472 347 -1472Q439 -1472 516.5 -1403.5Q594 -1335 594 -1244ZM906 0H880V-404Q880 -484 810 -545Q740 -606 659 -606Q578 -606 508 -545Q438 -484 438 -404V0H412V-404Q412 -495 491 -564Q567 -632 659 -632Q751 -632 828.5 -563.5Q906 -495 906 -404Z"/>
</svg>