<svg xmlns="http://www.w3.org/2000/svg" viewBox="0 -2048 2048 2048">
	<path fill="#000000" d="M2466 -840H2440V-1244Q2440 -1324 2370 -1385Q2300 -1446 2219 -1446Q2138 -1446 2068 -1385Q1998 -1324 1998 -1244V-840H1972V-1244Q1972 -1335 2051 -1404Q2127 -1472 2219 -1472Q2311 -1472 2388.5 -1403.5Q2466 -1335 2466 -1244ZM1842 -840H1816V-1244Q1816 -1324 1746 -1385Q1676 -1446 1595 -1446Q1514 -1446 1444 -1385Q1374 -1324 1374 -1244V-840H1348V-1244Q1348 -1335 1427 -1404Q1503 -1472 1595 -1472Q1687 -1472 1764.5 -1403.5Q1842 -1335 1842 -1244ZM2466 0H2440V-404Q2440 -484 2370 -545Q2300 -606 2219 -606Q2138 -606 2068 -545Q1998 -484 1998 -404V0H1972V-404Q1972 -495 2051 -564Q2127 -632 2219 -632Q2311 -632 2388.5 -563.5Q2466 -495 2466 -404ZM1218 -840H1192V-1244Q1192 -1324 1122 -1385Q1052 -1446 971 -1446Q890 -1446 820 -1385Q750 -1324 750 -1244V-840H724V-1244Q724 -1335 803 -1404Q879 -1472 971 -1472Q1063 -1472 1140.5 -1403.5Q1218 -1335 1218 -1244ZM1842 0H1816V-404Q1816 -484 1746 -545Q1676 -606 1595 -606Q1514 -606 1444 -545Q1374 -484 1374 -404V0H1348V-404Q1348 -495 1427 -564Q1503 -632 1595 -632Q1687 -632 1764.5 -563.5Q1842 -495 1842 -404ZM594 -840H568V-1244Q568 -1324 498 -1385Q428 -1446 347 -1446Q266 -1446 196 -1385Q126 -1324 126 -1244V-840H100V-1244Q100 -1335 179 -1404Q255 -1472 347 -1472Q439 -1472 516.5 -1403.5Q594 -1335 594 -1244ZM1218 0H1192V-404Q1192 -484 1122 -545Q1052 -606 971 -606Q890 -606 820 -545Q750 -484 750 -404V0H724V-404Q724 -495 803 -564Q879 -632 971 -632Q1063 -632 1140.5 -563.5Q1218 -495 1218 -404ZM594 0H568V-404Q568 -484 498 -545Q428 -606 347 -606Q266 -606 196 -545Q126 -484 126 -404V0H100V-404Q100 -495 179 -564Q255 -632 347 -632Q439 -632 516.5 -563.5Q594 -495 594 -404Z"/>
</svg>