<svg xmlns="http://www.w3.org/2000/svg" viewBox="0 -2048 2048 2048">
	<path fill="currentColor" d="M1842 -954H1816V-1358Q1816 -1438 1746 -1499Q1676 -1560 1595 -1560Q1514 -1560 1444 -1499Q1374 -1438 1374 -1358V-954H1348V-1358Q1348 -1449 1427 -1518Q1503 -1586 1595 -1586Q1687 -1586 1764.5 -1517.5Q1842 -1449 1842 -1358ZM1218 -954H1192V-1358Q1192 -1438 1122 -1499Q1052 -1560 971 -1560Q890 -1560 820 -1499Q750 -1438 750 -1358V-954H724V-1358Q724 -1449 803 -1518Q879 -1586 971 -1586Q1063 -1586 1140.5 -1517.5Q1218 -1449 1218 -1358ZM1842 -266H1816V-670Q1816 -750 1746 -811Q1676 -872 1595 -872Q1514 -872 1444 -811Q1374 -750 1374 -670V-266H1348V-670Q1348 -761 1427 -830Q1503 -898 1595 -898Q1687 -898 1764.5 -829.5Q1842 -761 1842 -670ZM594 -954H568V-1358Q568 -1438 498 -1499Q428 -1560 347 -1560Q266 -1560 196 -1499Q126 -1438 126 -1358V-954H100V-1358Q100 -1449 179 -1518Q255 -1586 347 -1586Q439 -1586 516.5 -1517.5Q594 -1449 594 -1358ZM1218 -266H1192V-670Q1192 -750 1122 -811Q1052 -872 971 -872Q890 -872 820 -811Q750 -750 750 -670V-266H724V-670Q724 -761 803 -830Q879 -898 971 -898Q1063 -898 1140.5 -829.5Q1218 -761 1218 -670ZM1842 422H1816V18Q1816 -62 1746 -123Q1676 -184 1595 -184Q1514 -184 1444 -123Q1374 -62 1374 18V422H1348V18Q1348 -73 1427 -142Q1503 -210 1595 -210Q1687 -210 1764.5 -141.5Q1842 -73 1842 18ZM594 -266H568V-670Q568 -750 498 -811Q428 -872 347 -872Q266 -872 196 -811Q126 -750 126 -670V-266H100V-670Q100 -761 179 -830Q255 -898 347 -898Q439 -898 516.5 -829.5Q594 -761 594 -670ZM1218 422H1192V18Q1192 -62 1122 -123Q1052 -184 971 -184Q890 -184 820 -123Q750 -62 750 18V422H724V18Q724 -73 803 -142Q879 -210 971 -210Q1063 -210 1140.5 -141.5Q1218 -73 1218 18ZM594 422H568V18Q568 -62 498 -123Q428 -184 347 -184Q266 -184 196 -123Q126 -62 126 18V422H100V18Q100 -73 179 -142Q255 -210 347 -210Q439 -210 516.5 -141.5Q594 -73 594 18Z"/>
</svg>