<svg xmlns="http://www.w3.org/2000/svg" viewBox="-19.6 -751.6 3229.2 871.2">
	<path fill="currentColor" d="M3090 0H3064V-404Q3064 -484 2994 -545Q2924 -606 2843 -606Q2762 -606 2692 -545Q2622 -484 2622 -404V0H2596V-404Q2596 -495 2675 -564Q2751 -632 2843 -632Q2935 -632 3012.5 -563.5Q3090 -495 3090 -404ZM2466 0H2440V-404Q2440 -484 2370 -545Q2300 -606 2219 -606Q2138 -606 2068 -545Q1998 -484 1998 -404V0H1972V-404Q1972 -495 2051 -564Q2127 -632 2219 -632Q2311 -632 2388.5 -563.5Q2466 -495 2466 -404ZM1842 0H1816V-404Q1816 -484 1746 -545Q1676 -606 1595 -606Q1514 -606 1444 -545Q1374 -484 1374 -404V0H1348V-404Q1348 -495 1427 -564Q1503 -632 1595 -632Q1687 -632 1764.5 -563.5Q1842 -495 1842 -404ZM1218 0H1192V-404Q1192 -484 1122 -545Q1052 -606 971 -606Q890 -606 820 -545Q750 -484 750 -404V0H724V-404Q724 -495 803 -564Q879 -632 971 -632Q1063 -632 1140.5 -563.5Q1218 -495 1218 -404ZM594 0H568V-404Q568 -484 498 -545Q428 -606 347 -606Q266 -606 196 -545Q126 -484 126 -404V0H100V-404Q100 -495 179 -564Q255 -632 347 -632Q439 -632 516.5 -563.5Q594 -495 594 -404Z"/>
</svg>