<svg xmlns="http://www.w3.org/2000/svg" viewBox="0 -2048 2048 2048">
	<path fill="currentColor" d="M2161 -589Q2161 -513 2106 -454Q2055 -399 1952 -399Q1898 -399 1866 -409Q1856 -416 1836 -428Q1761 -466 1734 -574H527Q528 -564 525 -544Q497 -453 403 -409Q382 -399 330 -399H306Q229 -399 167 -448Q100 -501 100 -576Q100 -678 164 -733Q225 -785 328 -785Q362 -785 409 -763Q456 -741 480 -715Q512 -681 528 -599H1735Q1747 -638 1759 -676Q1775 -715 1811 -739Q1881 -785 1932 -785Q1976 -785 2024 -775Q2052 -769 2089 -737Q2126 -705 2139 -678Q2161 -633 2161 -589ZM2139 -589Q2139 -677 2075 -717Q2060 -731 2018 -752Q1986 -760 1922 -760Q1915 -760 1908 -758Q1773 -722 1765 -619Q1765 -613 1761.5 -600.5Q1758 -588 1758 -582Q1758 -539 1793.5 -492.5Q1829 -446 1870 -431Q1894 -422 1951 -422Q2028 -422 2081 -466Q2139 -513 2139 -589ZM502 -566Q502 -759 316 -759Q253 -759 230 -747Q126 -694 126 -577Q126 -509 184 -464Q238 -422 307 -422Q370 -422 394 -431Q433 -446 467.5 -486.5Q502 -527 502 -566Z"/>
</svg>