<svg xmlns="http://www.w3.org/2000/svg" viewBox="0 -2048 2048 2048">
	<path fill="#000000" d="M2481 -257Q2394 -282 2306 -308Q2204 -335 2127 -335Q2000 -335 1905 -317Q1779 -294 1529 -246Q1330 -205 1272 -205Q1161 -205 998 -249Q761 -314 728 -320Q655 -334 541 -334Q286 -334 100 -258V-718Q204 -691 308 -663Q432 -632 521 -632Q631 -632 779 -671Q906 -708 1032 -745L812 -1003H933L1138 -771Q1185 -781 1233 -785V-1020H1347V-785Q1395 -780 1442 -772L1656 -1003H1786L1544 -748Q1760 -682 1812 -669Q1966 -630 2087 -630Q2221 -630 2481 -730ZM2455 -291V-692Q2280 -625 2172 -610V-359Q2245 -353 2455 -291ZM2146 -361V-607Q2116 -604 2087 -604Q2050 -604 2023 -606V-357Q2078 -361 2127 -361Q2146 -361 2146 -361ZM1726 -977H1667L1472 -766Q1497 -761 1516 -756ZM1997 -355V-609Q1883 -620 1536 -723Q1485 -738 1438 -747V-253Q1710 -311 1716 -313Q1876 -344 1997 -355ZM1321 -787V-994H1259V-787Q1277 -788 1293 -788Q1304 -788 1321 -787ZM1109 -764L921 -977H868L1059 -752Q1076 -756 1109 -764ZM1412 -247V-752Q1350 -762 1293 -762Q1238 -762 1169 -751V-239Q1225 -231 1272 -231Q1332 -231 1412 -247ZM1143 -243V-747Q1070 -733 865 -671Q691 -618 584 -609V-359Q712 -353 1005 -274Q1080 -254 1143 -243ZM558 -360V-607Q539 -606 521 -606Q482 -606 435 -612V-357Q482 -360 541 -360ZM409 -355V-615Q397 -617 126 -685V-296Q254 -342 409 -355Z"/>
</svg>