<svg xmlns="http://www.w3.org/2000/svg" viewBox="0 -2048 2048 2048">
	<path fill="#000000" d="M825 -432Q825 -268 818 -214Q813 -176 777 -176Q734 -176 734 -220V-634Q734 -642 713 -670.5Q692 -699 680 -699H515L566 307H380L436 -698H266Q206 -698 194 -637Q190 -583 186 -528L192 -224Q189 -208 173 -192Q157 -176 146 -176Q130 -176 115 -192Q100 -208 100 -220V-589Q100 -690 143 -743Q168 -774 289 -784Q304 -781 425 -783Q363 -907 300 -1032Q222 -1189 222 -1274Q222 -1302 256 -1357.5Q290 -1413 319 -1431Q354 -1453 386 -1462Q412 -1469 435 -1469Q491 -1469 575 -1457Q637 -1448 680 -1384Q719 -1327 719 -1271Q719 -1229 636 -1027Q547 -810 541 -783Q545 -779 681 -779Q739 -767 749 -764Q793 -750 803 -722Q816 -685 818 -645Q825 -493 825 -432ZM693 -1271Q693 -1443 453 -1443Q306 -1443 266 -1320Q247 -1262 247 -1274Q247 -1195 330 -1020Q390 -900 451 -780H510Q558 -897 606 -1014Q693 -1232 693 -1271ZM800 -430Q800 -645 788 -701Q784 -720 760 -737Q736 -754 715 -754H220Q184 -754 153 -706Q126 -665 126 -639V-225Q126 -211 149 -202Q166 -219 166 -229V-615Q166 -650 187 -684Q205 -714 240 -717Q322 -724 331 -724Q393 -724 457 -712Q460 -710 460 -696L405 284H541L490 -719H695Q710 -711 733 -683Q760 -650 760 -629V-202H783Q797 -229 798 -250Q800 -287 800 -430ZM638 -1246Q638 -1202 567 -1008Q500 -826 484 -805H466Q423 -905 380 -1006Q298 -1203 298 -1253Q298 -1281 333 -1325Q363 -1363 381 -1370Q424 -1388 478 -1388Q638 -1388 638 -1246ZM612 -1243Q612 -1367 475 -1367Q425 -1367 380 -1341Q323 -1308 323 -1251Q323 -1174 478 -848Q513 -942 549 -1035Q612 -1208 612 -1243Z"/>
</svg>