<svg xmlns="http://www.w3.org/2000/svg" viewBox="0 -2048 2048 2048">
	<path fill="currentColor" d="M715 -959Q633 -881 454 -711V-187Q469 -183 500 -174Q550 -159 587 -115Q658 -31 658 62Q658 100 636 145Q609 198 564 225Q594 232 641 224V316H200V224Q241 233 283 225Q189 151 189 38Q189 -45 230 -95Q274 -150 382 -187V-711L100 -953Q126 -955 151 -958Q183 -960 198 -952Q236 -931 288 -884Q332 -844 377 -803V-1185Q381 -1189 369 -1189Q342 -1189 282 -1123Q247 -1083 212 -1043Q177 -1065 153 -1125Q132 -1179 132 -1230Q132 -1351 217 -1433Q299 -1512 413 -1512Q419 -1512 445 -1506Q475 -1498 484 -1497Q599 -1480 655 -1388Q699 -1316 699 -1217Q699 -1180 681 -1128Q657 -1058 621 -1058Q617 -1058 560 -1114Q500 -1174 458 -1184V-808L612 -959ZM673 -1215Q673 -1427 510 -1466Q427 -1486 410 -1486Q307 -1486 232.5 -1412Q158 -1338 158 -1238Q158 -1135 206 -1081Q211 -1080 218 -1079Q258 -1126 298 -1173Q340 -1215 382 -1215Q400 -1215 403 -1211V-770Q394 -761 390 -761Q323 -818 193 -926Q190 -927 168 -927Q247 -861 403 -721V207H428V-721Q546 -830 652 -938H628L432 -751V-1215H446Q486 -1207 536 -1164Q580 -1124 623 -1085Q673 -1103 673 -1215ZM574 30Q574 -4 539 -45Q501 -89 455 -99V202Q503 195 541 132Q574 76 574 30ZM632 59Q632 1 596 -67Q555 -144 504 -150Q485 -152 456 -162V-121Q462 -123 469 -123Q509 -123 556 -61Q600 -4 600 30Q600 100 550 161Q495 228 418 228Q352 228 299 172Q246 116 246 46Q246 -3 280 -53Q318 -109 375 -122Q380 -126 382 -134Q375 -141 375 -157Q299 -140 254.5 -85Q210 -30 210 41Q210 97 248 149Q260 165 301 205Q335 238 335 244Q335 251 331 255H226V290H621V255Q587 256 553 256Q511 255 496 237Q632 174 632 59ZM381 197V-94H363Q330 -89 298.5 -37.5Q267 14 267 49Q267 90 301 133Q335 176 381 197Z"/>
</svg>