<svg xmlns="http://www.w3.org/2000/svg" viewBox="26.2 -1601.8 657.7 1993.7">
	<path fill="currentColor" d="M610 -153Q610 -85 542 -39Q566 -34 609 -40V294Q610 309 600 318Q596 317 553 314L547 318V96Q547 88 520 70Q515 73 487 100Q522 135 522 143Q522 147 509 175Q500 177 480.5 189Q461 201 456 201Q450 201 445 198.5Q440 196 439 196Q434 220 406 220Q391 220 382 196Q381 202 379 211Q369 219 343 228Q337 220 327 204Q318 220 308 220Q309 220 275 206Q275 203 271 196Q257 204 249 204Q239 204 234 201.5Q229 199 219 182Q209 181 189 175Q183 157 183 159Q183 139 219 107Q197 74 187 74Q156 74 156 123V246Q156 313 155 318H101V-44Q132 -37 168 -43Q100 -111 100 -138V-752Q100 -756 114 -783.5Q128 -811 131 -824Q242 -1273 243 -1330V-1344Q219 -1352 176 -1387Q168 -1399 168 -1441Q168 -1461 203.5 -1494.5Q239 -1528 254 -1528Q269 -1528 305 -1504Q341 -1480 341 -1468V-1168Q345 -1166 353 -1161V-1364Q348 -1441 370 -1491Q374 -1499 425 -1526Q430 -1528 438 -1528Q522 -1528 522 -1444Q522 -1366 454 -1357Q450 -1356 443 -1352Q457 -1298 480 -1203Q488 -1171 504 -1105Q512 -1076 532 -990Q552 -896 574 -812Q577 -799 595 -759Q610 -723 610 -718ZM534 -878L416 -1373Q416 -1377 419 -1377Q498 -1374 498 -1433Q498 -1501 440 -1501Q377 -1501 377 -1341L381 -1154Q471 -1126 471 -1052Q471 -950 416 -930Q485 -920 534 -878ZM317 -1158V-1460Q266 -1501 256 -1501Q241 -1501 216 -1470Q191 -1439 191 -1424Q191 -1367 249 -1367Q276 -1367 274 -1368L169 -878Q217 -915 282 -926Q261 -935 240 -976Q219 -1017 219 -1045Q219 -1077 255.5 -1120Q292 -1163 317 -1158ZM447 -1052Q447 -1086 412 -1112Q377 -1138 343 -1138Q305 -1138 276 -1106.5Q247 -1075 247 -1041Q247 -1001 272 -969Q301 -933 347 -933Q447 -933 447 -1052ZM586 -160V-714Q586 -733 554 -793Q526 -848 516 -857Q490 -882 466 -891Q416 -909 383 -909Q272 -909 204 -871Q190 -863 159 -819Q124 -769 124 -741V-145Q124 -140 167.5 -84Q211 -28 211 -23Q211 -15 208 -12H124V9H585V-8Q579 -10 571 -10Q563 -10 547 -8Q531 -6 523 -6Q492 -6 483 -30Q526 -48 557 -90Q586 -129 586 -160ZM414 192V177H406V192ZM382 183V149H375V183ZM586 290V64Q586 52 569 34H155Q120 34 120 133L126 291Q127 286 133 115Q134 89 144 73Q160 47 187 47Q202 47 212 57Q224 73 248 96Q306 129 343 129Q382 129 433 103Q481 79 506 51Q517 47 522 47Q543 47 558.5 69.5Q574 92 574 116V290ZM330 168V153H324V168ZM307 177H301L296 190L302 193ZM554 -149Q554 -128 517.5 -88Q481 -48 459 -38Q441 -28 402 -14Q378 -9 366 -9Q317 -9 268 -26Q232 -39 188 -93.5Q144 -148 144 -178V-728Q144 -743 179 -794Q211 -843 224 -852Q260 -878 291 -883Q332 -889 329 -889Q357 -889 418 -870Q472 -853 490 -843Q505 -835 530 -789Q554 -747 554 -737ZM531 -153V-742Q531 -768 489 -803Q453 -834 422 -844Q370 -861 335 -861Q235 -861 190 -769Q168 -724 168 -721V-181Q168 -151 208 -105Q245 -63 275 -49Q301 -37 357 -37Q386 -37 395 -38Q415 -40 469 -78Q531 -121 531 -153Z"/>
</svg>