<svg xmlns="http://www.w3.org/2000/svg" viewBox="0 -2048 2048 2048">
	<path fill="#000000" d="M1995 226H1882V67Q1856 110 1779 167Q1698 226 1658 226H487Q481 226 432 210Q373 191 355 186Q215 150 149 -7Q100 -123 100 -273Q100 -636 350 -721Q485 -767 520 -767H1629Q1693 -767 1764 -719Q1835 -671 1883 -598Q1886 -601 1881 -766H1995ZM1978 202V-743H1906V-550Q1902 -548 1893 -542Q1860 -614 1782 -678Q1701 -744 1639 -744H515Q510 -744 364 -702Q232 -664 167 -517Q119 -407 119 -270Q119 -110 190 28Q238 122 356 162.5Q474 203 478 203H1667Q1674 203 1687 195Q1745 175 1821 97Q1892 25 1897 25Q1908 25 1905 29V202ZM1904 -284Q1904 -281 1901 -237Q1898 -193 1898 -174Q1897 -94 1799 5Q1707 98 1621 120Q1569 133 1583 133H492Q421 133 325 48Q229 -37 209 -117Q184 -220 184 -273Q184 -373 238 -476Q302 -597 406 -637Q489 -669 511 -669H1615Q1688 -669 1778 -573Q1854 -493 1888 -414Q1900 -386 1902 -366Q1904 -346 1904 -284ZM1881 -280Q1881 -401 1879 -376Q1882 -416 1785 -528Q1684 -645 1625 -645H492Q454 -645 387 -604Q297 -550 249 -447Q208 -358 208 -263Q208 -42 392 73Q457 114 520 114H1554Q1574 114 1640 87Q1697 64 1720 47Q1830 -32 1863 -121Q1881 -171 1881 -280ZM1796 -152Q1796 -150 1793.5 -141Q1791 -132 1791 -130H1709L1597 -266L1508 -148Q1480 -176 1410 -266L1321 -148Q1293 -175 1222 -266L1129 -144L1035 -266L941 -144L847 -266Q817 -226 759 -148Q727 -181 660 -266L566 -144L472 -266Q464 -257 361 -130H264L463 -387L566 -261L655 -387Q686 -345 754 -256Q756 -259 843 -387Q878 -347 941 -266L1025 -387Q1061 -348 1129 -266Q1165 -312 1213 -387Q1270 -322 1316 -256Q1328 -269 1410 -387Q1440 -347 1503 -266L1597 -387ZM1763 -155L1597 -355Q1564 -313 1499 -233L1410 -350Q1379 -301 1321 -219L1218 -350Q1188 -308 1129 -233L1030 -350Q1000 -308 941 -233Q893 -292 843 -350Q806 -288 754 -219Q719 -266 655 -350L566 -223L463 -355L306 -154H352L473 -303L566 -181L660 -303L754 -181Q786 -224 847 -298L941 -181Q1003 -260 1035 -298L1129 -181L1218 -303L1316 -181L1410 -303Q1442 -260 1508 -181Q1549 -245 1597 -298Q1605 -291 1669 -211Q1716 -152 1748 -152Q1756 -152 1763 -155Z"/>
</svg>