<svg xmlns="http://www.w3.org/2000/svg" viewBox="28.5 -1052.5 1930 1228">
	<path fill="currentColor" d="M1887 -254Q1887 -173 1850 -59Q1796 104 1704 104H587V79H1710Q1724 79 1761 41Q1794 8 1803 -7Q1861 -106 1861 -249Q1861 -371 1811 -445Q1751 -536 1628 -536H1451Q1438 -453 1414 -328Q1410 -313 1368 -266Q1322 -214 1300 -214H355Q317 -116 207 -116Q153 -116 124 -159Q100 -194 100 -242Q100 -283 152 -310Q194 -331 228 -331Q335 -331 355 -239H1305Q1343 -239 1383 -330Q1390 -347 1408 -418Q1426 -495 1426 -519V-534H1304V-561H1422Q1426 -565 1426 -579Q1426 -633 1399 -732Q1391 -760 1363 -798Q1318 -859 1300 -859H365Q363 -857 357 -850Q351 -810 304 -786Q265 -766 220 -766Q105 -766 105 -871Q105 -981 230 -981Q271 -981 312.5 -951.5Q354 -922 357 -893Q358 -891 365 -884H1305Q1328 -884 1371 -825Q1407 -775 1414 -754Q1437 -688 1443 -642Q1447 -601 1451 -561H1607Q1743 -561 1819 -468Q1887 -384 1887 -254ZM341 -879Q341 -912 295 -936Q256 -956 223 -956Q126 -956 126 -871Q126 -792 220 -792Q256 -792 293 -812Q341 -838 341 -879ZM330 -226Q330 -264 293 -287Q263 -306 228 -306Q193 -306 163 -289Q126 -267 126 -231Q126 -137 215 -137Q243 -137 282 -160Q330 -188 330 -226Z"/>
</svg>