<svg xmlns="http://www.w3.org/2000/svg" viewBox="0 -2048 2048 2048">
	<path fill="#000000" d="M1575 -327Q1575 -325 1572 -315Q1569 -305 1569 -303L997 -511Q954 -311 845 -158L1023 50L1010 62L828 -135Q712 17 438 245L426 232Q533 132 641 31Q776 -98 815 -157Q701 -288 659 -463Q646 -515 644 -562Q643 -601 641 -640Q486 -713 431 -713Q370 -713 305 -616Q265 -547 226 -477Q192 -417 123 -298Q114 -298 107.5 -301Q101 -304 100 -304Q161 -418 223 -532Q295 -659 362 -720Q380 -737 428 -737Q467 -737 538 -707Q591 -685 644 -663Q658 -751 708 -859Q722 -890 767 -964Q806 -1027 806 -1033Q806 -1033 771 -1088Q732 -1147 718 -1178Q677 -1270 677 -1352Q677 -1404 714 -1443Q751 -1482 806 -1482Q868 -1482 913 -1437Q958 -1392 958 -1332Q958 -1286 927 -1208Q914 -1175 872 -1102Q835 -1038 835 -1033Q835 -1028 877 -963Q973 -814 996 -681Q997 -673 999 -539Q1185 -467 1575 -327ZM934 -1322Q934 -1372 901 -1415Q863 -1463 808 -1463Q776 -1463 737 -1430Q712 -1409 703 -1377Q697 -1357 697 -1334Q697 -1230 818 -1058Q934 -1230 934 -1322ZM978 -550V-661Q979 -716 868 -933Q849 -970 818 -1009Q750 -894 723 -838Q675 -737 668 -659ZM973 -519L668 -633V-528Q668 -477 733.5 -334Q799 -191 833 -180Q950 -350 973 -519Z"/>
</svg>