<svg xmlns="http://www.w3.org/2000/svg" viewBox="0 -2048 2048 2048">
	<path fill="currentColor" d="M1767 -363L1755 -351Q1666 -451 1577 -551Q1473 -669 1388 -714Q1356 -731 1358 -731Q1353 -731 1322 -715Q1285 -695 1271 -690Q1246 -681 1049 -619Q1092 -549 1092 -456Q1092 -406 1016 -290Q940 -174 940 -171L1173 183L1161 195L924 -147Q851 -36 705 184Q700 192 679 189L907 -168Q810 -318 807 -325Q755 -418 755 -489Q755 -509 769 -556Q785 -610 798 -615Q664 -646 581 -676Q567 -681 520 -703Q480 -722 475 -722Q477 -722 445 -700Q345 -632 244 -632Q198 -632 155 -658Q100 -691 100 -748Q100 -790 149 -820Q189 -845 221 -845Q275 -845 372 -795.5Q469 -746 472 -746Q475 -746 509 -765Q549 -787 571 -796Q630 -816 746 -854Q746 -858 743.5 -867.5Q741 -877 741 -883Q741 -934 782 -986Q826 -1042 893 -1067Q893 -1069 889 -1072Q750 -1130 750 -1270Q750 -1339 799 -1400Q853 -1468 933 -1468Q956 -1468 1004 -1439Q1052 -1410 1071.5 -1380Q1091 -1350 1100 -1314Q1102 -1306 1102 -1275Q1102 -1130 964 -1071Q1057 -1030 1086 -948Q1108 -888 1103 -849Q1187 -819 1356 -755L1579 -912L1596 -895L1382 -743Q1477 -700 1593 -570Q1680 -466 1767 -363ZM1083 -1278Q1083 -1334 1030.5 -1389Q978 -1444 919 -1444Q856 -1444 809 -1379Q769 -1322 769 -1270Q769 -1276 775 -1218Q780 -1171 835 -1125Q886 -1083 924 -1083Q956 -1083 1007 -1126.5Q1058 -1170 1071 -1213Q1083 -1253 1083 -1278ZM1330 -744L1098 -821Q1093 -757 969 -681Q990 -671 1014 -651Q1027 -641 1047 -641Q1090 -641 1211 -690Q1316 -733 1330 -744ZM1082 -851V-896Q1082 -904 1074 -915Q1062 -960 1021 -1005Q976 -1054 936 -1054Q924 -1054 885 -1036Q851 -1021 804 -982Q765 -911 765 -883Q765 -865 771 -855Q866 -874 900 -874Q926 -874 1082 -851ZM1077 -825L902 -850Q835 -843 774 -830Q781 -781 839 -733Q894 -689 933 -689Q958 -689 1016.5 -745Q1075 -801 1077 -825ZM997 -637Q992 -649 963 -660Q938 -670 928 -670Q911 -670 884 -657.5Q857 -645 850 -633Q936 -633 997 -637ZM878 -682Q844 -691 798 -744.5Q752 -798 754 -826H734Q697 -826 606 -787Q520 -751 503 -733Q569 -707 635 -680Q750 -636 798 -636Q815 -636 837 -653Q868 -677 878 -682ZM1069 -472Q1069 -505 1062 -549Q1059 -566 1043 -591.5Q1027 -617 1019 -617Q1013 -617 988 -613Q959 -610 952 -609Q907 -610 823 -610Q779 -542 779 -489Q779 -376 924 -195Q974 -268 1024 -342Q1069 -408 1069 -472ZM446 -731Q391 -760 336 -788Q266 -822 223 -822Q193 -822 163 -805Q123 -782 123 -746Q123 -707 164 -677Q201 -651 237 -651Q286 -651 446 -731Z"/>
</svg>