<svg xmlns="http://www.w3.org/2000/svg" viewBox="0 -2048 2048 2048">
	<path fill="#000000" d="M1585 -1219Q1585 -1213 1568 -1158Q1545 -1082 1476 -1037Q1415 -997 1349 -997L929 -1039Q848 -1039 826 -1026V-949Q990 -921 990 -762Q990 -692 956 -635Q912 -561 826 -552V249H803V-548Q801 -550 795 -554Q719 -559 675 -623Q639 -675 639 -734Q639 -815 670 -872Q713 -948 803 -949V-1022Q801 -1025 784 -1025Q735 -1025 666 -993Q536 -932 465 -878Q426 -848 390 -816Q334 -766 161 -570Q153 -570 126.5 -592Q100 -614 100 -622Q100 -661 226 -790Q341 -908 358 -915Q341 -938 236 -1055Q515 -1296 799 -1287Q803 -1306 803 -1331Q803 -1355 799 -1380H826V-1291Q917 -1280 1096 -1253Q1163 -1237 1305 -1206Q1287 -1236 1287 -1265Q1287 -1314 1334 -1349Q1375 -1381 1419 -1381Q1489 -1381 1537 -1333Q1585 -1285 1585 -1219ZM1562 -1222Q1562 -1357 1421 -1357Q1389 -1357 1381 -1356Q1360 -1353 1334.5 -1320.5Q1309 -1288 1309 -1266Q1309 -1255 1323 -1220.5Q1337 -1186 1337 -1182Q1337 -1177 1330 -1170Q1038 -1263 875 -1263H827V-1063L845 -1057Q861 -1057 900.5 -1059.5Q940 -1062 944 -1062L1337 -1020Q1391 -1020 1396 -1021Q1467 -1036 1516 -1101Q1562 -1161 1562 -1222ZM967 -760Q967 -838 920 -882Q873 -926 796 -926Q727 -926 691 -866Q662 -817 662 -744Q662 -678 697 -631Q740 -575 817 -575Q894 -575 934 -637Q967 -688 967 -760ZM802 -1049V-1263H740Q650 -1263 491 -1194Q328 -1122 264 -1050Q353 -961 391 -910Q208 -765 150 -667Q128 -630 128 -624Q128 -607 159 -594Q291 -778 475 -910Q665 -1048 802 -1049Z"/>
</svg>