<svg xmlns="http://www.w3.org/2000/svg" viewBox="0 -2048 2048 2048">
	<path fill="#000000" d="M1467 -121Q1467 -43 1441 7Q1411 64 1322.5 113Q1234 162 1168 162Q1064 162 936 54Q819 -45 768 -157Q652 -412 647 -789L100 -933L106 -959L646 -816V-928Q646 -1006 648 -1147Q650 -1317 650 -1366H676Q676 -1317 674 -1147Q672 -1006 672 -928V-809Q936 -738 1093 -642Q1292 -522 1407 -320Q1467 -215 1467 -121ZM1441 -121Q1441 -209 1385 -308Q1274 -502 1081 -620Q928 -712 673 -782Q679 -416 792 -167Q841 -59 952 34Q1073 136 1168 136Q1226 136 1309 90.5Q1392 45 1417 -5Q1441 -52 1441 -121Z"/>
</svg>