<svg xmlns="http://www.w3.org/2000/svg" viewBox="29.9 -1510.1 1892.2 1892.2">
	<path fill="currentColor" d="M1852 -6H1111L1317 300Q1314 303 1308 306Q1302 309 1299 312Q1183 146 1078 -9H1024Q948 109 813 310Q808 311 803 308.5Q798 306 796 306L992 -9H659Q618 5 577 19Q488 47 418 47Q357 47 292 30Q260 22 205 -11Q145 -47 117 -79Q100 -99 100 -126Q100 -137 115.5 -148Q131 -159 143 -159Q142 -159 239 -109Q336 -59 421 -59Q503 -59 526 -77Q522 -95 516 -96Q527 -94 503 -94Q497 -94 458 -89Q419 -84 413 -84Q374 -84 301 -125Q309 -154 332 -184Q382 -159 395 -159Q401 -159 464 -169Q527 -179 533 -179Q567 -179 612 -154Q657 -129 671 -129Q635 -129 971 -177Q881 -298 881 -407Q881 -546 1001 -612Q984 -621 947 -646Q933 -663 898 -699H654Q614 -685 573 -671Q482 -644 418 -644Q348 -644 297 -661Q243 -679 185 -716Q100 -771 100 -820Q100 -844 143 -850Q140 -850 239 -799.5Q338 -749 418 -749Q481 -749 526 -768Q524 -784 518 -785Q522 -784 496 -784Q490 -784 459.5 -781.5Q429 -779 423 -779Q362 -779 301 -816Q309 -845 332 -875Q382 -850 395 -850Q401 -850 466.5 -862.5Q532 -875 538 -875Q544 -875 604.5 -847.5Q665 -820 668 -820Q656 -820 857 -850Q908 -981 1021 -1018Q1023 -1020 1018 -1023Q940 -1051 899 -1119Q866 -1175 866 -1235Q866 -1305 922 -1370Q983 -1440 1059 -1440Q1097 -1440 1150.5 -1403Q1204 -1366 1219 -1329Q1242 -1274 1242 -1238Q1242 -1178 1212 -1122Q1174 -1051 1101 -1026Q1111 -1011 1130 -1003Q1168 -987 1196 -943Q1213 -911 1230 -880Q1346 -870 1583 -844L1628 -1359H1811L1852 -700H1205Q1153 -649 1101 -612Q1188 -563 1213 -504Q1226 -472 1226 -394Q1226 -319 1141 -187L1583 -153L1628 -664H1811ZM1832 -725L1791 -1334H1648L1608 -824L1234 -853Q1247 -840 1247 -813Q1247 -783 1230 -732L1235 -725ZM1216 -1235Q1216 -1278 1178 -1340Q1132 -1415 1071 -1415Q995 -1415 943 -1360Q891 -1305 891 -1233Q891 -1188 915 -1137Q943 -1080 983 -1063Q1050 -1035 1049 -1035Q1087 -1035 1141 -1082Q1195 -1129 1205 -1167Q1216 -1210 1216 -1235ZM1201 -881Q1199 -892 1169 -943Q1089 -1010 1061 -1010Q1036 -1010 957 -957Q904 -921 894 -855Q1005 -871 1201 -881ZM1221 -810Q1221 -836 1215 -854H1119L886 -834V-803Q886 -791 912 -725H1195Q1221 -746 1221 -810ZM1832 -34L1791 -644H1648L1608 -133H1550L1274 -164H1123Q1102 -133 1066 -74L1093 -34ZM1171 -698H931Q993 -624 1056 -624Q1084 -624 1117 -654Q1158 -692 1171 -698ZM1206 -366Q1206 -445 1194 -492Q1185 -526 1139 -562.5Q1093 -599 1056 -599Q989 -599 942 -533Q901 -474 901 -409Q901 -309 993 -179Q1015 -179 1056 -182Q1097 -185 1110 -185Q1138 -224 1165 -263Q1195 -308 1200 -336Q1206 -369 1206 -366ZM886 -725Q860 -787 860 -829L666 -794Q547 -850 533 -850Q527 -850 468 -840Q409 -830 403 -830Q392 -830 336 -844Q336 -842 333.5 -837Q331 -832 331 -826Q360 -799 421 -799Q427 -799 467 -804.5Q507 -810 513 -810Q532 -810 539 -795Q545 -776 551 -757Q522 -724 416 -724Q292 -724 147 -830Q139 -827 125 -818V-801Q162 -742 262 -703Q347 -669 418 -669Q489 -669 586 -697Q683 -725 744 -725ZM1091 -157H1017Q1038 -115 1054 -99Q1067 -120 1091 -157ZM1036 -74Q1036 -97 979 -154L669 -104Q647 -111 590 -137Q542 -159 536 -159Q530 -159 470.5 -149Q411 -139 405 -139Q365 -139 337 -153Q337 -128 336 -129Q371 -109 423 -109Q429 -109 461 -111.5Q493 -114 498 -114Q534 -114 530 -116Q536 -113 551 -67Q498 -34 416 -34Q342 -34 237.5 -84Q133 -134 140 -134Q132 -134 125 -127V-111Q133 -69 247 -19Q353 27 411 27Q481 27 664 -34H1010Q1036 -60 1036 -74Z"/>
</svg>