<svg xmlns="http://www.w3.org/2000/svg" viewBox="0 -2048 2048 2048">
	<path fill="currentColor" d="M1864 -431H1233Q1235 -410 1232 -362Q1222 -309 1185 -255Q1145 -197 1073 -78L1320 299L1307 311L1055 -52L808 311L796 298L1038 -78Q947 -213 928 -250Q884 -333 876 -427L872 -431Q758 -431 644 -432Q500 -429 406 -401Q402 -405 402 -393Q402 -396 447 -276Q440 -274 420 -270Q400 -266 393 -264Q379 -305 343 -394Q240 -397 199 -423Q150 -454 150 -534Q150 -589 180 -610Q158 -622 136 -634Q102 -657 100 -686L112 -698Q130 -691 168 -678L251 -682Q216 -780 182 -878Q115 -1072 115 -1112Q115 -1157 155 -1188Q191 -1217 233 -1217Q295 -1217 333 -1170Q367 -1129 367 -1076Q367 -1050 355 -1017Q341 -975 321 -975Q315 -975 291 -987Q298 -1009 298 -1053Q298 -1152 241 -1152Q218 -1152 194 -1133.5Q170 -1115 170 -1101Q170 -1096 208 -979Q238 -873 315 -679Q392 -683 456 -640Q536 -587 533 -587Q543 -587 762 -635Q822 -643 947 -661Q861 -733 861 -824Q861 -882 905 -942Q953 -1007 1023 -1029Q1024 -1031 1019 -1034Q866 -1088 866 -1248Q866 -1323 927 -1389Q988 -1455 1065 -1455Q1140 -1455 1195 -1378Q1244 -1311 1244 -1248Q1244 -1101 1098 -1033Q1100 -1032 1107 -1027Q1127 -1021 1173 -988Q1202 -967 1227 -907Q1249 -853 1249 -819Q1249 -726 1164 -666L1578 -597L1634 -1101H1834ZM1224 -1253Q1224 -1296 1178 -1359Q1126 -1429 1073 -1429Q997 -1429 944 -1373.5Q891 -1318 891 -1245Q891 -1194 913 -1148Q930 -1114 958 -1093Q1023 -1046 1055 -1046Q1092 -1046 1148 -1097Q1201 -1145 1212 -1184Q1224 -1228 1224 -1253ZM1839 -452L1814 -1081H1654L1594 -567Q1583 -573 1397 -607Q1199 -642 1141 -642Q1126 -642 1103 -619Q1144 -616 1188 -550Q1228 -491 1230 -452ZM1224 -824Q1224 -852 1200 -902Q1176 -952 1153 -973Q1099 -1021 1065 -1021Q1061 -1021 1024 -1002Q1000 -991 975 -980Q942 -963 928 -939Q886 -866 886 -827Q886 -728 968 -669Q990 -653 1000 -653Q1089 -653 1127.5 -664Q1166 -675 1197 -732Q1224 -783 1224 -824ZM1077 -630V-639H1049V-630ZM1204 -452V-474Q1205 -492 1161 -551Q1134 -588 1096 -600Q1074 -607 1063 -607Q1010 -607 967 -564Q924 -521 907 -452ZM1209 -352V-430H902V-388Q902 -341 965 -234Q1014 -152 1055 -103Q1209 -341 1209 -352ZM342 -1071Q342 -1116 313 -1154Q280 -1197 231 -1197Q194 -1197 165 -1164.5Q136 -1132 140 -1089L274 -683H284L149 -1091Q154 -1125 180.5 -1151Q207 -1177 241 -1177Q321 -1177 321 -1051Q321 -1045 319.5 -1027Q318 -1009 318 -1001Q342 -1016 342 -1071ZM1002 -622Q989 -632 962 -632L548 -567Q524 -567 522 -568Q500 -579 436 -625Q390 -658 329 -658Q323 -658 285 -655.5Q247 -653 241 -653Q236 -653 197.5 -657.5Q159 -662 152 -662H135Q171 -629 238 -622Q290 -618 342 -613V-601Q297 -592 286 -592Q280 -592 254.5 -597Q229 -602 223 -602Q218 -602 176 -576Q174 -558 174 -542Q174 -415 314 -415Q320 -415 415 -433Q510 -451 516 -451H880Q921 -597 1002 -622ZM414 -295L379 -393H370L406 -295Z"/>
</svg>