<svg xmlns="http://www.w3.org/2000/svg" viewBox="0 -2048 2048 2048">
	<path fill="currentColor" d="M1814 -464Q1814 -409 1781 -353Q1742 -283 1681 -283Q1614 -283 1571 -371Q1524 -273 1468 -273Q1404 -273 1370 -337Q1343 -389 1343 -459Q1343 -490 1351 -515Q1367 -565 1368 -568H1137Q1184 -516 1193 -482Q1196 -471 1196 -408Q1196 -331 1156 -263Q1098 -174 1040 -85L1284 284Q1278 284 1267 295L1027 -62L793 295Q791 293 784 289Q777 285 775 283L1010 -85Q957 -168 905 -251Q854 -342 854 -415Q854 -487 918 -568L405 -572Q372 -574 344 -610.5Q316 -647 316 -680Q289 -680 255 -649Q178 -579 151 -422Q140 -355 118 -161H100V-216Q98 -292 135 -462Q143 -498 159 -541Q193 -631 247 -672Q276 -683 323 -713Q326 -726 336 -747Q387 -812 454 -812Q501 -812 577 -758H841L845 -762Q845 -771 842 -794.5Q839 -818 839 -824Q839 -937 996 -1011Q989 -1014 977 -1021Q844 -1077 844 -1223Q844 -1293 899 -1354Q957 -1419 1032 -1419Q1101 -1419 1156 -1358Q1211 -1297 1211 -1226Q1211 -1074 1069 -1014Q1068 -1012 1073 -1009Q1132 -990 1174 -924Q1213 -863 1213 -803Q1213 -780 1206 -762L1616 -758Q1711 -737 1768 -635Q1814 -551 1814 -464ZM1187 -1221Q1187 -1277 1142 -1335Q1091 -1400 1025 -1400Q963 -1400 914 -1337Q868 -1280 868 -1221Q868 -1096 973 -1045Q1018 -1023 1027 -1023Q1045 -1023 1117 -1072Q1161 -1102 1175 -1152Q1187 -1196 1187 -1221ZM1794 -462Q1794 -479 1782 -545Q1771 -605 1714 -669Q1654 -738 1600 -738H1202Q1198 -710 1153 -669Q1113 -633 1074 -614Q1076 -613 1092 -601Q1104 -591 1111 -591H1429Q1447 -591 1466 -555Q1453 -542 1450 -542Q1434 -560 1399 -572Q1363 -486 1363 -464Q1363 -406 1386 -358Q1414 -298 1466 -298Q1539 -298 1563 -465H1579Q1584 -422 1610 -352Q1650 -302 1684 -302Q1729 -302 1765 -369Q1794 -424 1794 -462ZM1192 -807Q1192 -834 1169.5 -884Q1147 -934 1127 -951Q1073 -998 1040 -998Q1039 -998 948 -962Q922 -952 892.5 -903.5Q863 -855 863 -817Q863 -803 874 -759H1186Q1186 -768 1189 -785Q1192 -802 1192 -807ZM1177 -737H883Q895 -703 943 -664Q995 -621 1035 -621Q1059 -621 1114 -670Q1162 -713 1177 -737ZM1069 -590L1049 -598H1016L996 -590ZM1177 -391Q1177 -443 1170 -482Q1167 -499 1142 -533Q1112 -572 1091 -572H964Q932 -572 904 -514Q878 -462 878 -418Q878 -341 919 -268Q927 -254 1028 -107Q1077 -184 1127 -260Q1177 -342 1177 -391ZM976 -614Q941 -629 903 -669Q865 -709 858 -738H599Q603 -719 582 -709Q526 -787 454 -787Q405 -787 374.5 -756.5Q344 -726 344 -677Q344 -652 346 -647Q352 -632 376.5 -611.5Q401 -591 411 -591H944Q950 -591 961.5 -602Q973 -613 976 -614Z"/>
</svg>