<svg xmlns="http://www.w3.org/2000/svg" viewBox="0 -2048 2048 2048">
	<path fill="#000000" d="M570 277L552 289L350 -18L142 289L125 277L333 -43Q194 -253 194 -339Q194 -448 293 -505Q184 -571 184 -688Q184 -774 308 -856Q252 -875 218 -924.5Q184 -974 184 -1034Q184 -1107 249 -1168Q247 -1171 165 -1276Q100 -1359 100 -1381Q100 -1433 140 -1433Q173 -1433 189 -1417Q209 -1396 246 -1317Q272 -1261 297 -1205Q310 -1209 359 -1211L366 -1218Q375 -1289 384 -1361Q405 -1442 483 -1442Q570 -1442 570 -1344Q570 -1297 530 -1243Q529 -1242 456 -1158Q511 -1074 511 -1037Q511 -912 382 -856Q511 -796 511 -676Q511 -620 475.5 -571.5Q440 -523 387 -505Q433 -487 467 -436Q501 -385 501 -335Q501 -267 452 -181Q407 -112 362 -43ZM545 -1346Q545 -1423 483 -1423Q441 -1423 412 -1366Q388 -1317 388 -1270V-1205Q389 -1210 401 -1288Q408 -1334 432 -1368.5Q456 -1403 474 -1403Q521 -1403 521 -1339Q521 -1304 491 -1256Q465 -1219 440 -1181Q473 -1211 505 -1257Q545 -1314 545 -1346ZM495 -1321V-1368Q470 -1373 476 -1373Q428 -1373 418 -1200Q495 -1303 495 -1321ZM273 -1193Q232 -1291 170 -1404Q159 -1413 136 -1413Q125 -1402 125 -1381Q125 -1364 189 -1282.5Q253 -1201 273 -1193ZM486 -1029Q486 -1034 472 -1084Q442 -1190 338 -1190Q289 -1190 247 -1136Q209 -1085 209 -1034Q209 -977 247 -925Q287 -869 342 -869Q392 -869 440 -925Q486 -978 486 -1029ZM491 -681Q491 -731 445 -785Q399 -839 350 -839Q302 -839 253 -786.5Q204 -734 204 -686Q204 -639 252.5 -576Q301 -513 347 -513Q395 -513 444 -574Q491 -632 491 -681ZM476 -327Q476 -388 442 -438Q404 -493 345 -493Q298 -493 256 -441.5Q214 -390 214 -342Q214 -230 350 -67Q390 -129 431 -190Q476 -269 476 -327Z"/>
</svg>