<svg xmlns="http://www.w3.org/2000/svg" viewBox="0 -2048 2048 2048">
	<path fill="#000000" d="M1024 -1473Q1024 -1476 1004 -1438Q927 -1291 792 -1229Q745 -1217 646 -1189Q748 -1143 748 -1036Q748 -957 687 -903Q685 -901 690 -897Q779 -875 856 -775Q918 -694 952 -597V-580Q948 -580 939 -574Q902 -679 837 -762Q754 -870 671 -870Q647 -870 610 -851V-845Q654 -831 737 -791Q780 -761 818 -693.5Q856 -626 860 -581Q854 -575 841 -575Q805 -703 722 -769H717Q753 -697 753 -679Q753 -635 710.5 -573.5Q668 -512 625 -495Q672 -472 684 -450Q743 -338 743 -321Q743 -292 666 -170Q625 -109 585 -48L809 292Q805 293 796 299L572 -23L342 299L329 286L554 -48Q509 -113 464 -179Q396 -279 396 -329Q396 -368 432 -421Q471 -479 518 -495Q497 -505 477 -515Q447 -531 433 -555Q380 -643 380 -681Q380 -726 416 -772Q456 -823 523 -847Q385 -923 385 -1034Q385 -1118 488 -1189Q451 -1196 341 -1229Q293 -1247 203 -1326Q100 -1418 100 -1470Q100 -1490 109 -1485H1017Q1024 -1485 1024 -1473ZM783 -1456H335Q365 -1397 447 -1363Q515 -1335 582 -1335Q703 -1335 783 -1456ZM988 -1462H816Q733 -1309 577 -1309Q504 -1309 424 -1348Q330 -1393 308 -1462H131Q176 -1351 318 -1274Q440 -1207 537 -1207H594Q701 -1207 810 -1270Q935 -1342 988 -1462ZM728 -1031Q728 -1078 685 -1129Q638 -1187 579 -1187Q520 -1187 468 -1145Q411 -1099 411 -1034Q411 -990 453 -930Q502 -860 559 -860Q610 -860 669 -916.5Q728 -973 728 -1031ZM722 -676Q722 -716 696 -757Q664 -809 608 -820Q602 -821 583.5 -828Q565 -835 559 -835Q511 -835 458.5 -783Q406 -731 406 -684Q406 -634 456 -574Q511 -508 569 -508Q630 -508 676 -559.5Q722 -611 722 -676ZM717 -326Q717 -371 678 -422Q633 -482 574 -482Q537 -482 499 -460Q478 -448 464 -425Q421 -356 421 -329Q421 -288 485 -194Q529 -134 572 -74Q616 -138 659 -202Q717 -291 717 -326Z"/>
</svg>