<svg xmlns="http://www.w3.org/2000/svg" viewBox="0 -2048 2048 2048">
	<path fill="currentColor" d="M2008 -45Q2008 78 1920 78Q1876 78 1838 13Q1807 -42 1807 -78Q1807 -84 1824 -140Q1841 -196 1841 -201Q1841 -240 1791 -282Q1742 -215 1717 -173Q1663 -84 1563 6.5Q1463 97 1379 134Q1168 226 922 226Q710 226 451 86Q385 51 287 -43Q180 -145 141 -221Q111 -279 105 -315H221Q224 -319 224 -323L100 -799Q132 -790 162 -798Q124 -819 115 -828Q100 -845 100 -879Q100 -958 181 -958Q215 -958 239 -936Q263 -914 263 -882Q263 -830 210 -797Q214 -793 407 -798Q387 -802 372 -829Q359 -853 359 -875Q359 -958 443 -958Q527 -958 527 -879Q527 -825 479 -797Q483 -793 675 -798Q622 -825 622 -882Q622 -919 657 -941Q683 -958 709 -958Q742 -958 764 -926.5Q786 -895 786 -865Q786 -849 774 -825Q760 -797 742 -797Q750 -792 775 -794L651 -316H1228Q1232 -319 1232 -323L1117 -794Q1142 -794 1150 -798Q1102 -822 1102 -867Q1102 -902 1124 -930Q1146 -958 1176 -958Q1213 -958 1239 -932Q1265 -906 1265 -875Q1265 -810 1217 -797Q1221 -793 1409 -798Q1398 -803 1382 -815Q1361 -842 1361 -875Q1361 -958 1443 -958Q1529 -958 1529 -879Q1529 -830 1476 -797Q1480 -793 1687 -798Q1625 -833 1625 -870Q1625 -958 1704 -958Q1788 -958 1788 -877Q1788 -843 1771 -827Q1764 -820 1721 -798Q1767 -777 1782 -799L1663 -315H1799Q1842 -315 1902 -275.5Q1962 -236 1973 -204Q2008 -98 2008 -45ZM1769 -875Q1769 -934 1704 -934Q1649 -934 1649 -879Q1649 -819 1709 -819Q1769 -819 1769 -875ZM1505 -877Q1505 -900 1485 -917Q1465 -934 1440 -934Q1385 -934 1385 -886Q1385 -862 1399 -838Q1415 -810 1438 -810Q1459 -810 1482 -829.5Q1505 -849 1505 -877ZM1241 -877Q1241 -896 1223 -915Q1205 -934 1179 -934Q1158 -934 1142 -911.5Q1126 -889 1126 -867Q1126 -850 1144 -830Q1162 -810 1186 -810Q1206 -810 1223.5 -831.5Q1241 -853 1241 -877ZM1989 -42Q1989 -250 1822 -285Q1839 -279 1853 -244Q1865 -216 1865 -203Q1865 -197 1848 -139.5Q1831 -82 1831 -76Q1831 -50 1850 -6Q1877 54 1917 54Q1989 54 1989 -42ZM1759 -770H1141L1256 -316H1638ZM766 -860Q766 -877 747 -904Q725 -934 704 -934Q684 -934 666 -919Q646 -901 646 -877Q646 -862 660 -839Q678 -810 704 -810Q766 -835 766 -860ZM503 -875Q503 -934 440 -934Q383 -934 383 -875Q383 -815 445 -815Q503 -815 503 -875ZM244 -882Q244 -934 184 -934Q119 -934 119 -872Q119 -815 179 -815Q203 -815 223.5 -837.5Q244 -860 244 -882ZM1764 -291H129Q163 -194 350 -17Q425 54 451 66Q635 152 685 168Q785 202 910 202Q1184 202 1363 116Q1599 1 1764 -291ZM747 -770H129L249 -316H631Z"/>
</svg>