<svg xmlns="http://www.w3.org/2000/svg" viewBox="0 -2048 2048 2048">
	<path fill="currentColor" d="M2067 -279L2055 -256Q2012 -277 1970 -297Q1924 -316 1876 -316Q1784 -316 1535 -245Q1319 -183 1155 -168Q1130 -53 1130 19Q1130 39 1144 93Q1160 154 1216 212Q1268 259 1320 307Q1322 316 1322 330Q1322 348 1313 362H847Q838 348 838 330Q838 316 840 307Q892 259 944 212Q1000 154 1016 93Q1030 39 1030 19Q1030 -50 1006 -162Q794 -162 670 -188Q652 -192 451 -249Q318 -286 227 -286Q176 -286 121 -225L100 -241Q228 -415 489 -556L377 -705Q547 -844 838 -927Q835 -955 835 -975Q835 -1195 1011 -1206Q1020 -1249 1020 -1276Q1020 -1305 989 -1391H843Q801 -1391 801 -1443Q801 -1498 851 -1498H1305Q1352 -1498 1352 -1443Q1352 -1391 1307 -1391H1165Q1138 -1344 1138 -1274Q1138 -1278 1146 -1206Q1236 -1200 1283 -1131Q1325 -1069 1325 -975Q1325 -938 1319 -900Q1651 -784 1830 -624L1723 -485Q1807 -427 1982 -322Q2010 -308 2067 -279ZM1326 -1443Q1326 -1472 1305 -1472H851Q827 -1472 827 -1443Q827 -1417 843 -1417H1307Q1326 -1417 1326 -1443ZM1136 -1391H1017Q1046 -1314 1046 -1276Q1046 -1251 1038 -1210Q1059 -1212 1080 -1212Q1107 -1212 1119 -1211Q1112 -1257 1112 -1274Q1112 -1340 1136 -1391ZM1795 -621Q1628 -763 1314 -873Q1299 -813 1271 -693Q1510 -621 1701 -499ZM1896 -341Q1831 -383 1702 -467Q1503 -596 1265 -668L1257 -632Q1295 -604 1319 -540Q1341 -482 1341 -429Q1341 -273 1198 -200Q1299 -214 1449 -253Q1684 -315 1697 -318Q1816 -346 1896 -341ZM1315 -429Q1315 -543 1251 -604Q1235 -527 1203 -373Q1201 -365 1166 -214Q1315 -277 1315 -429ZM1299 -975Q1299 -1186 1080 -1186Q861 -1186 861 -975Q861 -916 897 -770Q913 -703 982 -378Q1006 -280 1029 -181Q1056 -65 1056 19Q1056 109 994 190Q966 227 864 320Q863 330 864 336H1296Q1297 330 1296 320Q1194 227 1166 190Q1104 109 1104 19Q1104 -65 1131 -181Q1154 -280 1178 -378Q1205 -509 1263 -770Q1299 -916 1299 -975ZM884 -713L872 -764Q860 -809 841 -901Q576 -824 413 -701L512 -568Q686 -660 884 -713ZM1000 -190Q984 -254 957 -373L897 -656Q758 -581 758 -435Q758 -332 830 -264Q897 -201 1000 -190ZM897 -190Q732 -261 732 -435Q732 -511 777 -579Q822 -647 891 -682L890 -688Q470 -575 194 -307Q210 -312 227 -312Q320 -312 454 -275Q660 -217 676 -214Q770 -194 897 -190Z"/>
</svg>