<svg xmlns="http://www.w3.org/2000/svg" viewBox="0 -2048 2048 2048">
	<path fill="#000000" d="M1788 -606Q1788 -561 1720 -482Q1669 -424 1619 -366Q1575 -300 1492 -10Q1414 265 1403 369H488Q419 93 389 -18Q308 -311 268 -369Q265 -374 171 -476Q100 -553 100 -585Q100 -611 115 -637Q131 -667 156 -667H375Q493 -764 542 -835Q609 -934 609 -1059Q609 -1187 553 -1318Q525 -1382 427 -1552H1478Q1276 -1310 1276 -1065Q1276 -934 1345 -838Q1373 -800 1513 -667H1735Q1750 -667 1769 -644Q1788 -621 1788 -606ZM1475 -667Q1353 -781 1316 -837Q1250 -934 1250 -1065Q1250 -1297 1424 -1526H472Q554 -1385 586 -1303Q635 -1180 635 -1059Q635 -934 572 -835Q524 -759 415 -667H893V-1053H1007V-667ZM981 -341V-1027H919V-341ZM1762 -606Q1762 -611 1750.5 -626Q1739 -641 1735 -641H1007V-315H893V-641H156Q144 -641 135 -619.5Q126 -598 126 -585Q126 -564 197 -486Q287 -387 289 -384Q350 -300 509 343H1381Q1401 218 1472 -33Q1552 -315 1598 -381Q1646 -436 1694 -491Q1762 -570 1762 -606Z"/>
</svg>