<svg xmlns="http://www.w3.org/2000/svg" viewBox="0 -2048 2048 2048">
	<path fill="currentColor" d="M2522 -250Q2522 -109 2389 -109Q2248 -109 2248 -398Q2248 -421 2250 -465.5Q2252 -510 2252 -533Q2252 -545 2236 -594Q2201 -700 2159 -746Q2109 -800 2007 -824Q1981 -806 1935 -765Q1848 -668 1825 -451Q1816 -365 1816 -107H806Q806 -365 797 -451Q774 -668 687 -765Q667 -787 615 -824Q513 -800 463 -746Q421 -700 386 -594Q370 -545 370 -533Q370 -510 372 -465.5Q374 -421 374 -398Q374 -109 233 -109Q100 -109 100 -250Q100 -514 228 -719Q376 -958 624 -958H1998Q2246 -958 2394 -719Q2522 -514 2522 -250ZM2496 -250Q2496 -497 2379 -694Q2243 -924 2013 -932V-849Q2131 -819 2187 -754Q2233 -700 2271 -572Q2278 -549 2278 -533Q2278 -510 2276 -465.5Q2274 -421 2274 -398Q2274 -135 2389 -135Q2450 -135 2473 -161.5Q2496 -188 2496 -250ZM1987 -850V-932H635V-850ZM1962 -824H660Q833 -698 833 -266Q833 -229 832 -133H1790L1789 -266Q1789 -698 1962 -824ZM609 -849V-932Q379 -924 243 -694Q126 -497 126 -250Q126 -188 149 -161.5Q172 -135 233 -135Q348 -135 348 -398Q348 -421 346 -465.5Q344 -510 344 -533Q344 -549 351 -572Q389 -700 435 -754Q491 -819 609 -849Z"/>
</svg>