<svg xmlns="http://www.w3.org/2000/svg" viewBox="0 -2048 2048 2048">
	<path fill="#000000" d="M1786 -316H1513Q1432 -154 1278 -59Q1124 36 943 36Q762 36 608 -59Q454 -154 373 -316H100V-342H359Q322 -455 322 -553Q322 -612 337 -690H100V-716H344Q428 -959 667 -1076H625Q587 -1076 561.5 -1103.5Q536 -1131 536 -1169Q536 -1260 627 -1260H1261Q1299 -1260 1324.5 -1233.5Q1350 -1207 1350 -1169Q1350 -1076 1259 -1076H1219Q1459 -958 1542 -716H1786V-690H1549Q1568 -593 1568 -553Q1568 -467 1527 -342H1786ZM1324 -1169Q1324 -1234 1261 -1234H627Q562 -1234 562 -1169Q562 -1102 625 -1102H729Q709 -1102 796 -1122Q866 -1138 943 -1138Q1021 -1138 1091 -1122Q1178 -1102 1158 -1102H1259Q1324 -1102 1324 -1169ZM1514 -716Q1438 -901 1284.5 -1006.5Q1131 -1112 943 -1112Q755 -1112 601.5 -1006.5Q448 -901 372 -716ZM1542 -553Q1542 -598 1521 -690H365Q348 -615 348 -553Q348 -450 390 -342H1496Q1542 -461 1542 -553ZM1490 -316H396Q487 -164 626 -79Q772 10 943 10Q1114 10 1260 -79Q1399 -164 1490 -316Z"/>
</svg>