<svg xmlns="http://www.w3.org/2000/svg" viewBox="33.8 -1487.2 1476.4 1787.4">
	<path fill="currentColor" d="M1444 -602L790 121L876 216L856 234L772 140L688 234L668 216L754 121L100 -602L754 -1310L668 -1403L688 -1421L772 -1329L856 -1421L876 -1403L790 -1310ZM1408 -602L772 -1291L136 -602L772 102ZM1053 -552Q1053 -442 968 -365Q883 -288 772 -288Q660 -288 578 -363Q493 -441 493 -552Q493 -701 635 -779H619Q579 -779 579 -821Q579 -862 620 -862H925Q965 -862 965 -821Q965 -779 924 -779H908Q1053 -700 1053 -552ZM939 -821Q939 -836 925 -836H620Q605 -836 605 -821Q605 -805 619 -805H699Q704 -805 731 -810Q758 -815 772 -815Q786 -815 812.5 -810Q839 -805 844 -805H924Q939 -805 939 -821ZM1027 -552Q1027 -649 948.5 -719Q870 -789 772 -789Q673 -789 596 -719.5Q519 -650 519 -552Q519 -452 595 -383Q671 -314 772 -314Q872 -314 949.5 -383.5Q1027 -453 1027 -552Z"/>
</svg>