<svg xmlns="http://www.w3.org/2000/svg" viewBox="0 0 511 1000">
  <g transform="scale(1,-1) translate(0,-1000)">
    <path d="M451 384H195Q212 181 247 40H399Q434 181 451 384ZM222 826Q222 826 230 826Q260 826 260 808Q260 792 224 790Q222 790 217.0 789.5Q212 789 209 789Q182 789 182 805Q182 824 222 826ZM492 409Q492 408 492.5 406.5Q493 405 493 404V403Q476 178 434 15Q431 0 415 0H231Q215 0 212 15Q170 178 153 403V404V407Q153 407 153 409Q152 428 147.5 463.0Q143 498 143 519Q143 573 170 662Q171 666 173.5 674.0Q176 682 177 686L165 683Q122 670 100 670Q60 670 30.0 689.5Q0 709 0 736Q0 752 13.0 773.5Q26 795 40 809Q64 833 138 867Q142 869 166 880Q246 918 295 918Q320 918 344 911Q464 878 494 769Q511 704 511 645Q511 605 502.0 527.5Q493 450 492 409ZM192 424H452Q453 458 462.0 534.0Q471 610 471 645Q471 702 456 759Q433 846 334 873Q317 878 294 878Q258 878 183 843Q177 841 168.5 836.5Q160 832 154 830Q101 806 79.0 789.5Q57 773 41 740Q40 739 40 737Q40 733 47.0 727.0Q54 721 68.5 715.5Q83 710 100 710Q118 710 151.0 720.5Q184 731 201 734H205Q213 734 219.0 728.0Q225 722 225 714Q225 708 208 651Q183 566 183 518Q183 502 187.5 466.0Q192 430 192 424Z" fill="currentColor"/>
  </g>
</svg>