<svg xmlns="http://www.w3.org/2000/svg" viewBox="27.9 -1559.1 1679.2 1946.2">
	<path fill="currentColor" d="M1635 297Q1635 313 1617 313Q1601 313 1601 297V-725Q1601 -861 1461 -944Q1399 -981 1201 -1045V292Q1201 308 1185 308Q1169 308 1169 292V-1455H881V296Q881 313 866 313Q848 313 848 296V-1454H566V294Q566 310 550 310Q532 310 532 294V-1043Q337 -980 273 -942Q134 -859 134 -723V299Q134 315 116 315Q100 315 100 299V-728Q100 -877 251 -967Q304 -998 532 -1078V-1469Q532 -1487 550 -1487H1185Q1195 -1487 1198 -1483.5Q1201 -1480 1201 -1471V-1080Q1428 -1000 1483 -968Q1635 -878 1635 -729Z"/>
</svg>