<svg xmlns="http://www.w3.org/2000/svg" viewBox="0 -2048 2048 2048">
	<path fill="currentColor" d="M1223 -1218Q1223 -1027 1059 -942Q1080 -781 1080 -647Q1080 -639 1076 -624Q1072 -609 1072 -601Q1072 -557 1095 -483Q1125 -388 1129 -366Q1169 -160 1169 -6Q1169 162 1184 194Q1186 199 1202 218Q1212 231 1212 246Q1212 304 1206 321Q1189 369 1116 369Q1096 369 1058 355.5Q1020 342 1000 342Q986 342 961 353.5Q936 365 922 365H669Q656 335 657 321Q635 372 564 372Q549 372 510.5 352.5Q472 333 451 333Q444 333 396 351.5Q348 370 322 370Q281 370 216 368Q129 365 111 365Q100 328 100 323Q100 289 155 285Q215 281 333 229Q463 172 475 129Q478 118 483 -19Q483 -20 489 -111Q490 -160 497 -258Q499 -276 512 -351Q522 -408 522 -444Q522 -458 519 -484.5Q516 -511 516 -525Q516 -554 531 -592Q545 -624 558 -656Q561 -663 575 -738Q592 -810 623 -956Q593 -976 567.5 -1008Q542 -1040 517.5 -1105.5Q493 -1171 493 -1212Q493 -1373 604 -1467Q707 -1553 868 -1553Q1014 -1553 1116 -1461Q1223 -1364 1223 -1218ZM1197 -1218Q1197 -1353 1100.5 -1440Q1004 -1527 868 -1527Q716 -1527 621 -1447Q519 -1361 519 -1212Q519 -1176 542 -1114Q565 -1052 588 -1023Q664 -927 883 -927Q1016 -927 1104 -1004Q1197 -1085 1197 -1218ZM1188 253Q1188 235 1178 223Q1165 208 1162 200Q1150 164 1149 98L1146 -63Q1143 -229 1082 -461Q1082 -462 1063 -517Q1052 -551 1052 -574Q1052 -582 1053 -597Q1054 -612 1054 -620V-766Q1054 -766 1039 -933Q966 -901 883 -901Q851 -901 851 -901Q856 -849 874 -721Q885 -642 885 -636Q885 -632 883 -623.5Q881 -615 881 -611Q881 -577 893 -529Q909 -464 911 -448Q918 -389 937 -273Q940 -259 986 -73Q1029 100 1029 132Q1029 215 831 274Q805 285 751 302Q730 304 709 305Q680 309 680 326Q680 334 684 343H922Q936 343 961 331Q986 319 1000 319Q1021 319 1058 332.5Q1095 346 1114 346Q1161 346 1177 322Q1188 303 1188 253ZM1006 129Q1006 96 964 -72Q945 -138 914 -273Q906 -339 886 -470Q884 -479 869 -533Q858 -570 858 -597Q858 -604 860 -618.5Q862 -633 862 -640Q862 -684 851 -754Q835 -850 833 -867Q817 -775 777 -592Q765 -565 746 -509Q733 -452 727 -356Q720 -239 715 -202Q701 -99 682 -17Q680 -7 658 54Q644 92 644 138Q644 159 654.5 209Q665 259 665 282Q665 294 663 303Q676 284 727 282Q790 279 890 233Q1006 179 1006 129ZM818 -902Q711 -908 643 -944Q627 -848 584 -658Q581 -646 555 -589Q537 -547 537 -517Q537 -505 541 -480.5Q545 -456 545 -444Q545 -408 535 -351Q522 -277 520 -259Q518 -211 512 -116Q504 -4 504 -27Q504 -8 505 30Q505 68 505 87Q505 190 342 244Q337 246 283 274Q234 300 130 310Q123 318 123 324Q123 332 127 342Q145 342 222 345Q280 347 317 347Q346 347 394 328.5Q442 310 450 310Q471 310 510 328.5Q549 347 554 347Q642 347 642 287Q642 262 632 214Q622 166 622 141Q622 63 655 -9Q672 -46 692 -198Q697 -303 724 -511Q741 -559 769 -657Q781 -714 804 -827Q811 -852 818 -902Z"/>
</svg>