<svg xmlns="http://www.w3.org/2000/svg" viewBox="32.3 -1454.7 962.4 1828.4">
	<path fill="currentColor" d="M927 270Q927 282 917 306H111Q100 287 100 265Q100 242 107 235Q134 216 183 180Q245 131 282 42Q291 20 301 -7Q317 -50 321 -83Q327 -130 327 -231Q327 -330 326 -339Q292 -620 224 -1182Q216 -1247 202 -1387H825L695 -187Q695 -115 706 -59Q725 37 759 90Q784 129 859 201Q927 266 927 270ZM903 282V259Q856 221 834 207Q757 158 711 32Q671 -80 671 -199L801 -1367H226L352 -248Q352 -122 335 -40Q299 134 145 229Q119 245 119 268Q119 275 126 282Z"/>
</svg>