<svg xmlns="http://www.w3.org/2000/svg" viewBox="0 -2048 2048 2048">
	<path fill="#000000" d="M1627 -39Q1627 -32 1598 1.5Q1569 35 1545 54Q1365 196 1115 233Q986 252 857 252Q765 252 598 219Q436 188 372.5 160.5Q309 133 263 106Q236 90 176 41Q100 -22 100 -44V-1334H1627ZM1604 -56V-1311H118V-56H155V-1266H1560V-56ZM1541 -56V-1243H177V-56ZM1595 -31H895L1013 96L891 228Q1109 211 1240 174Q1420 124 1568 8Q1580 -1 1595 -31ZM985 96L861 -28L737 101Q781 145 866 221ZM836 228L705 101L832 -31H136Q188 21 213 41Q346 147 526 187Q583 200 836 228ZM1171 -1033Q1163 -1027 1159 -1027L1010 -1203Q964 -1145 872 -1033V-92H850V-1029Q804 -1087 712 -1203L567 -1022Q556 -1033 552 -1033L712 -1239L857 -1054Q908 -1110 1010 -1239Z"/>
</svg>