<svg xmlns="http://www.w3.org/2000/svg" viewBox="0 -2048 2048 2048">
	<path fill="currentColor" d="M2158 -1429L1990 -1167V-70Q1990 18 1834 135Q1762 189 1710 214Q1413 357 1132 357Q919 357 622 259Q528 228 419 141Q297 43 248 -58Q249 -66 264 -83V-1161L100 -1429H183L306 -1243L423 -1429H512L342 -1149V-79H1095V-1149L926 -1429Q957 -1429 1023 -1428Q1058 -1370 1132 -1249Q1171 -1308 1255 -1429H1338L1168 -1161V-79H1903V-1155L1729 -1428H1826L1940 -1249Q1982 -1309 2069 -1429ZM2113 -1401H2081L1941 -1198L1812 -1401H1785L1932 -1161V-79H1960V-1179Q2011 -1253 2113 -1401ZM1293 -1401H1266L1132 -1198L1009 -1401H977Q1047 -1292 1118 -1172V-86Q1125 -79 1139 -79L1146 -1172Q1234 -1315 1293 -1401ZM461 -1401H435L306 -1193L172 -1401H151Q221 -1294 292 -1172V-79H317V-1166ZM1966 -54H275Q405 138 625 229Q740 277 978 320Q1061 335 1118 335Q1341 335 1578 242Q1861 131 1966 -54Z"/>
</svg>