<svg xmlns="http://www.w3.org/2000/svg" viewBox="30.3 -754.7 1882.4 1114.4">
	<path fill="currentColor" d="M1843 -266Q1836 -232 1810 -185Q1668 68 1418 190Q1214 290 972 290Q903 290 768 268.5Q633 247 593 229Q473 176 321 58Q265 14 185 -93Q100 -207 100 -251V-274H252Q146 -336 146 -453Q146 -509 169 -540Q202 -575 236 -611Q237 -616 231.5 -625Q226 -634 225 -637Q217 -665 239 -680H467Q465 -675 471 -664Q478 -650 478 -647Q478 -643 473 -632.5Q468 -622 468 -616Q468 -615 476 -607Q560 -544 560 -446Q560 -346 458 -274H887L879 -279Q821 -297 788 -355Q762 -401 762 -448Q762 -507 815 -570Q830 -586 857 -615Q854 -632 850 -649Q848 -667 865 -680H1088Q1088 -675 1094.5 -662Q1101 -649 1101 -640Q1101 -627 1089 -614Q1181 -553 1181 -451Q1181 -338 1075 -274L1476 -279Q1440 -293 1409 -349Q1379 -402 1379 -442Q1379 -539 1471 -615Q1462 -631 1462 -642Q1462 -657 1481 -685H1695Q1696 -678 1703.5 -663Q1711 -648 1711 -639Q1711 -626 1697 -614Q1793 -553 1793 -451Q1793 -337 1687 -274Q1758 -272 1843 -266ZM1692 -647Q1672 -667 1671 -667Q1682 -667 1630.5 -664.5Q1579 -662 1490 -662Q1490 -656 1480 -646Q1482 -644 1488 -636Q1494 -628 1496 -626Q1550 -644 1586 -644Q1591 -644 1623.5 -635Q1656 -626 1664 -626Q1682 -626 1692 -647ZM1775 -453Q1775 -530 1711 -579Q1655 -621 1588 -621Q1511 -621 1458 -574Q1402 -524 1402 -444Q1402 -383 1453 -327Q1504 -271 1565 -271Q1639 -271 1701 -315Q1775 -367 1775 -453ZM1080 -636Q1080 -647 1069 -658H874Q874 -646 873 -626Q877 -626 881 -623.5Q885 -621 891 -621Q897 -621 932 -632.5Q967 -644 972 -644Q978 -644 1016.5 -632.5Q1055 -621 1061 -621Q1065 -621 1080 -636ZM1163 -444Q1163 -524 1098 -575Q1040 -621 963 -621Q896 -621 842 -572Q785 -521 785 -451Q785 -347 892 -291Q921 -276 951 -276Q957 -276 959 -278.5Q961 -281 967 -281Q973 -281 975 -276Q977 -271 983 -271Q1045 -271 1102 -321Q1163 -375 1163 -444ZM1816 -252H988L1204 12L993 266H1036Q1027 265 1096 260Q1306 244 1514 108Q1745 -42 1816 -252ZM459 -642Q449 -652 449 -657H253L247 -652V-640Q263 -626 270 -626Q276 -626 312 -635Q348 -644 353 -644Q359 -644 396.5 -635Q434 -626 440 -626Q443 -626 459 -642ZM1177 12L967 -239L767 9L967 258ZM537 -444Q537 -524 480 -574Q427 -621 350 -621Q282 -621 225 -574Q164 -523 164 -453Q164 -409 175 -383Q193 -341 240.5 -308.5Q288 -276 330 -276Q336 -276 349 -273.5Q362 -271 367 -271Q434 -271 485.5 -324Q537 -377 537 -444ZM946 -252H123Q196 -49 417 105Q649 266 903 266H942L739 12Z"/>
</svg>