<svg xmlns="http://www.w3.org/2000/svg" viewBox="0 -2048 2048 2048">
	<path fill="currentColor" d="M965 -671Q965 -643 938 -616Q894 -572 796 -572Q791 -572 764 -574.5Q737 -577 731 -577Q721 -577 715 -569Q657 -97 592 301Q588 301 576.5 304Q565 307 559 307Q531 307 527 290Q476 3 371 -578Q374 -577 323 -577Q100 -577 100 -766Q100 -807 111 -836Q151 -942 296 -942Q309 -942 320 -941Q321 -944 326 -952Q334 -1002 382.5 -1040.5Q431 -1079 479 -1076Q483 -1077 492 -1082Q493 -1091 493 -1100Q493 -1171 428 -1241Q370 -1305 289 -1341Q288 -1362 295 -1384H890Q913 -1384 939 -1354Q965 -1324 965 -1305ZM897 -685V-1280Q897 -1316 801 -1316Q747 -1316 740 -1314Q681 -1296 637 -1225Q598 -1162 598 -1110V-1075Q630 -1072 681 -1059Q759 -1019 762 -913L729 -650H803Q825 -649 862 -661Q880 -667 897 -685ZM946 -695V-1290Q946 -1305 920 -1334.5Q894 -1364 875 -1364H314Q314 -1359 319 -1352Q381 -1328 435 -1273Q502 -1205 507 -1130Q507 -1125 511.5 -1106.5Q516 -1088 516 -1080H578Q591 -1206 623 -1249Q692 -1340 760 -1340Q917 -1340 917 -1299V-672Q882 -632 824 -629Q774 -629 724 -629V-597H836Q869 -597 906 -625Q946 -657 946 -695ZM356 -651L317 -867H268Q233 -867 198 -831.5Q163 -796 163 -758Q163 -645 323 -645Q344 -645 356 -651ZM361 -602Q361 -605 358.5 -614Q356 -623 356 -625Q336 -623 317 -623Q139 -623 139 -763Q139 -823 199 -860Q251 -892 317 -892V-915H244Q200 -915 162.5 -868Q125 -821 125 -763Q125 -672 169.5 -636.5Q214 -601 272 -602ZM738 -903Q730 -1004 669 -1037Q634 -1055 550 -1055Q458 -1055 412 -1029Q346 -991 337 -886L550 282H573Z"/>
</svg>