<svg xmlns="http://www.w3.org/2000/svg" viewBox="0 -2048 2048 2048">
	<path fill="#000000" d="M1830 -488H1122Q1119 -481 1079 -348Q1115 -344 1152 -341Q1198 -335 1198 -302Q1198 -292 1173 -254Q1211 -240 1251.5 -187Q1292 -134 1291 -96H1380V-78H1296Q1312 -55 1312 -18Q1312 20 1296 67Q1331 74 1380 67V95Q1333 94 1285 97Q1173 249 1025 249Q972 249 935 236Q891 217 848 198Q819 186 790 150Q769 123 749 97Q730 95 654 95V67Q702 74 743 67Q728 -1 728 -73Q712 -77 692 -77Q671 -77 655 -73V-96Q678 -95 729 -98Q761 -152 781 -179Q821 -234 857 -254Q856 -256 845 -271Q837 -283 837 -290Q837 -333 887 -341Q924 -344 961 -347Q948 -411 917 -488H657Q640 -480 607 -469Q564 -457 521 -445Q458 -428 404 -428Q344 -428 258 -462Q163 -500 116 -553Q114 -556 100 -610Q121 -631 142 -631Q142 -631 241.5 -581.5Q341 -532 406 -532Q462 -532 511 -547L520 -555Q518 -558 512 -565Q504 -567 483 -567Q477 -567 448.5 -564.5Q420 -562 414 -562Q367 -562 298 -603Q301 -614 329 -656Q369 -636 396 -636Q402 -636 463 -646Q524 -656 530 -656Q536 -656 595.5 -629Q655 -602 661 -602Q667 -602 680.5 -608Q694 -614 700 -615Q749 -625 868 -636Q876 -644 876 -646Q876 -650 862 -692Q847 -739 843 -757Q777 -1061 777 -1138Q777 -1229 807 -1311Q850 -1431 942 -1458Q1023 -1482 1025 -1482Q1044 -1482 1097 -1458Q1257 -1386 1257 -1101Q1257 -1015 1229 -902Q1196 -784 1163 -665L1551 -631Q1565 -631 1567 -635Q1582 -809 1609 -1135H1790ZM1810 -508L1771 -1110H1629Q1627 -1081 1592 -615Q1587 -607 1574 -607L1190 -641Q1165 -641 1155 -630Q1124 -533 1124 -524V-508ZM1237 -1091Q1237 -1279 1161 -1387Q1141 -1415 1093 -1437Q1049 -1457 1022 -1457Q950 -1457 885 -1393Q817 -1327 808 -1242Q797 -1133 797 -1128Q797 -981 902 -642Q1007 -656 1142 -662Q1174 -774 1205 -886Q1237 -1008 1237 -1091ZM1133 -636H1052Q1051 -636 906 -620Q917 -581 937 -508H1098ZM1088 -487H946Q961 -421 986 -345H1053Q1066 -391 1088 -487ZM1173 -295Q1173 -303 1157 -319H878Q861 -302 861 -292Q861 -265 886 -265Q891 -265 918 -276Q945 -287 958 -288Q978 -290 1020 -290Q1073 -290 1106 -283Q1112 -282 1127 -276Q1142 -270 1148 -270Q1173 -270 1173 -295ZM1267 -98V-115Q1241 -199 1154 -240Q1089 -270 1012 -270Q941 -270 869 -227Q785 -177 758 -98ZM910 -508Q893 -578 880 -616L656 -577Q535 -631 525 -631Q519 -631 460.5 -621Q402 -611 396 -611Q393 -611 333 -626Q333 -624 330.5 -617Q328 -610 328 -608Q385 -582 414 -582Q420 -582 458.5 -587Q497 -592 503 -592Q528 -592 528 -591Q537 -566 545 -541Q484 -513 411 -513Q307 -513 183 -588Q145 -611 142 -611Q136 -611 125 -600Q126 -553 232 -502Q333 -453 411 -453Q489 -453 574 -480Q611 -494 647 -508ZM1292 -13Q1292 -13 1276 -77H753V33Q753 39 756 49Q759 59 759 60Q762 65 753 70H1266Q1271 64 1281.5 33Q1292 2 1292 -13ZM1252 97H783Q815 148 853 173Q867 182 931 204Q1003 229 1032 229Q1168 229 1252 97Z"/>
</svg>