<svg xmlns="http://www.w3.org/2000/svg" viewBox="0 -2048 2048 2048">
	<path fill="#000000" d="M783 -895Q783 -850 737 -764Q740 -761 762 -761V-111Q763 -74 715 6Q689 50 575.5 157.5Q462 265 444 265Q436 265 346 186Q252 103 218 62Q196 36 160 -39Q121 -123 121 -158V-761Q138 -761 141 -764Q100 -818 100 -895Q100 -901 117 -983Q138 -985 176 -997Q105 -1106 105 -1201Q105 -1248 124.5 -1301.5Q144 -1355 150 -1368Q172 -1411 207 -1436Q249 -1466 329 -1486Q402 -1505 457 -1505Q577 -1505 665 -1441Q767 -1367 767 -1239Q767 -1139 692 -997Q701 -992 756 -999Q783 -918 783 -895ZM757 -898Q757 -964 728 -978Q728 -973 717 -972Q733 -913 733 -888Q733 -859 721 -841Q702 -813 702 -814Q702 -821 719 -782Q757 -850 757 -898ZM707 -893Q707 -887 690 -989Q621 -865 621 -852Q621 -843 627 -837Q635 -837 653 -834.5Q671 -832 676 -832Q707 -832 707 -893ZM742 -1239Q742 -1350 650 -1421Q566 -1484 454 -1484Q401 -1484 327 -1461.5Q253 -1439 212.5 -1408.5Q172 -1378 149 -1290Q130 -1218 130 -1199Q130 -1122 188 -1025Q221 -979 275 -889Q285 -868 280 -830Q271 -816 273 -809Q280 -791 290 -782Q312 -818 312 -845Q312 -883 261 -966Q227 -1022 192 -1078Q161 -1142 161 -1216Q161 -1330 240 -1394Q313 -1454 426 -1454Q504 -1454 542 -1442Q717 -1387 717 -1232Q717 -1151 599 -932Q560 -860 560 -830Q560 -801 589 -777Q604 -822 604 -819Q604 -826 600 -842Q596 -855 597 -859Q610 -895 688 -1057Q742 -1169 742 -1239ZM692 -1232Q692 -1361 533 -1422Q515 -1429 439 -1429Q339 -1429 268 -1383Q181 -1327 181 -1219Q181 -1165 203 -1117Q233 -1052 258 -1010Q338 -875 338 -847Q338 -799 308 -763H565Q535 -782 535 -830Q535 -871 591 -973Q661 -1099 674 -1137Q692 -1188 692 -1232ZM696 -762Q688 -780 681 -798Q672 -812 649 -812Q629 -812 625 -807Q621 -802 611 -762ZM256 -838V-861Q256 -877 221 -928Q191 -972 183 -979Q171 -931 171 -913Q171 -884 192 -838ZM165 -967H126L131 -960Q131 -950 128 -923.5Q125 -897 125 -893Q125 -816 159 -787Q171 -812 160 -856Q145 -914 145 -924Q145 -951 165 -967ZM266 -762Q261 -779 245 -811H192Q192 -806 181 -762ZM742 -121V-740H146V-163Q146 -133 180 -55.5Q214 22 239 47Q240 48 339 140Q374 175 446 240Q742 -12 742 -121Z"/>
</svg>