<svg xmlns="http://www.w3.org/2000/svg" viewBox="0 -2048 2048 2048">
	<path fill="currentColor" d="M1707 -1188Q1679 -1090 1554 -958Q1438 -836 1336 -781L1567 210H231L457 -782Q455 -790 436 -800Q333 -856 235 -968Q137 -1080 100 -1188ZM1660 -1169H923L1110 -937L928 -709H1000Q1004 -709 1081 -720Q1262 -746 1429 -871Q1602 -1002 1660 -1169ZM1083 -937L899 -1157L714 -937L903 -713ZM1540 193L1317 -770Q1132 -684 911 -686V193ZM879 -705L692 -937L879 -1169H142Q168 -1070 286 -950Q391 -845 497 -789Q569 -751 645 -738Q672 -732 725 -720Q800 -705 879 -705ZM888 193V-686H869Q668 -686 476 -775L257 193Z"/>
</svg>