<svg xmlns="http://www.w3.org/2000/svg" viewBox="54.4 -863.6 1230.1 1160.1">
	<path fill="currentColor" d="M1239 -602Q1239 -545 1177 -496Q1121 -451 1073 -451Q1056 -451 1036 -461Q1033 -458 1033 -451Q1033 -422 1113 -315Q1181 -223 1203 -203Q1172 -184 1113 -143Q1128 -125 1163 -87Q1158 -82 1158 -71Q1091 -63 1009 -50Q976 -142 950 -311L781 251H321Q100 -486 100 -504Q100 -512 108 -525Q117 -580 173.5 -649Q230 -718 292 -750Q361 -786 423 -801Q493 -818 539 -818Q558 -818 644 -806Q745 -792 836 -727Q933 -657 985 -552Q995 -609 1042.5 -653Q1090 -697 1138 -697Q1180 -697 1209.5 -667.5Q1239 -638 1239 -602ZM1219 -604Q1219 -633 1188 -654Q1161 -672 1136 -672Q1040 -672 1009 -542Q1023 -571 1062 -602Q1106 -637 1138 -637Q1157 -637 1175 -621.5Q1193 -606 1193 -584Q1193 -513 1033 -484Q1038 -484 1052.5 -480Q1067 -476 1073 -476Q1093 -476 1130 -489Q1174 -504 1181 -523Q1186 -535 1204 -570Q1219 -599 1219 -604ZM1168 -587Q1168 -596 1157 -606.5Q1146 -617 1136 -617Q1121 -617 1094 -599Q1078 -588 1053 -561.5Q1028 -535 1028 -528V-512H1055Q1168 -547 1168 -587ZM1168 -207Q1140 -240 1072 -334Q1018 -410 1018 -404Q1018 -357 1047 -276Q1074 -199 1100 -165Q1132 -189 1168 -207ZM1123 -92Q986 -244 996 -471Q973 -356 973 -311Q973 -241 1024 -75Q1086 -83 1123 -92ZM972 -512Q919 -659 778 -733Q666 -792 531 -792Q408 -792 301 -727Q176 -651 130 -512ZM977 -485H130L336 226H766Z"/>
</svg>