<svg xmlns="http://www.w3.org/2000/svg" viewBox="0 -2048 2048 2048">
	<path fill="#000000" d="M673 -48Q673 66 585.5 151Q498 236 387 236Q280 236 190 147.5Q100 59 100 -45Q100 -166 204 -263L132 -418H266Q278 -608 290 -798Q306 -1013 365 -1181Q369 -1192 392 -1214Q464 -1084 488 -826Q490 -802 508 -423Q513 -418 647 -423L575 -263Q673 -171 673 -48ZM482 -420V-629Q483 -765 449 -959Q440 -1011 392 -1167Q320 -987 305 -695Q298 -555 297 -571V-420ZM652 -48Q652 -92 619 -157.5Q586 -223 544 -257Q579 -320 606 -392H173L235 -260Q126 -137 126 -45Q126 41 205 126Q288 215 384 215Q480 215 563 140Q652 60 652 -48Z"/>
</svg>