<svg xmlns="http://www.w3.org/2000/svg" viewBox="0 -2048 2048 2048">
	<path fill="currentColor" d="M1740 -484Q1740 -392 1656 -183L1443 347H406Q100 -372 100 -496Q100 -598 144 -662Q216 -766 270 -766Q365 -766 389 -764V-791Q389 -795 387.5 -804Q386 -813 386 -817Q386 -879 395 -904Q409 -941 456 -963H1363L1431 -940L1460 -891V-764L1580 -766Q1696 -705 1716 -634Q1740 -550 1740 -484ZM1435 -764V-885L1415 -920Q1393 -929 1359 -938H462Q411 -913 411 -833V-789Q411 -774 413 -764ZM1714 -484Q1714 -547 1691 -627Q1674 -687 1574 -740H270Q229 -740 165 -647Q126 -590 126 -496Q126 -377 423 321H1425L1632 -193Q1714 -397 1714 -484Z"/>
</svg>