<svg xmlns="http://www.w3.org/2000/svg" viewBox="0 -2048 2048 2048">
	<path fill="currentColor" d="M554 -71Q554 44 498 135Q432 245 317 245Q100 245 100 -101Q100 -105 105 -192Q111 -288 113 -330Q117 -377 123 -473Q125 -504 132 -612L164 -1076Q194 -1096 253 -1140V-1185H120V-1250H253V-1482H390V-1252H523V-1187H394L390 -1183V-1140Q422 -1121 482 -1081Q486 -1036 493 -947ZM499 -1212V-1230H392V-1212ZM252 -1212V-1230H145L140 -1212ZM529 -74Q529 -125 468 -962Q464 -1000 458 -1070Q427 -1091 367 -1131V-1457H273V-1126Q233 -1101 190 -1066Q169 -972 162 -826Q157 -711 152 -597Q148 -539 142 -444Q138 -387 132 -286Q130 -246 125 -158Q119 -77 119 -74Q119 28 156 110Q209 225 317 225Q423 225 482 119Q529 33 529 -74Z"/>
</svg>