<svg viewBox="0 0 8.0710545 18.59745"
   xmlns="http://www.w3.org/2000/svg"
   version="1.0">
  <path
     style="fill:currentColor;stroke:none"
     d="M 1.658436,0.972949 C 1.2014447,5.380703 0.972949,8.358517 0.972949,9.906391 C 0.972949,12.353506 1.2972653,14.373112 1.945898,15.96521 C 2.4028893,16.658067 2.9554639,17.670771 4.035527,17.624496 C 4.8797951,17.588323 5.6681657,16.658067 6.125157,15.96521 C 6.7737897,14.373112 7.098106,12.353506 7.098106,9.906391 C 7.098106,8.358517 6.8696103,5.380703 6.412619,0.972949 L 1.658436,0.972949 z M 7.319231,0 L 7.429793,1.304636 C 7.8573003,5.4470407 8.071054,8.3437757 8.071054,9.994841 C 8.071054,12.441955 7.7393673,14.520528 7.075994,16.23056 C 6.456844,17.395151 5.3360133,18.600041 4.035527,18.597446 C 2.5115012,18.594405 1.6142113,17.395151 0.995062,16.23056 C 0.33168733,14.520528 0,12.441955 0,9.994841 C 0,8.3437757 0.213754,5.4470407 0.641262,1.304636 L 0.751824,0 L 7.319231,0 z" />
</svg>