<svg xmlns="http://www.w3.org/2000/svg" viewBox="0 -2048 2048 2048">
	<path fill="#000000" d="M1920 162H568V-204Q540 -105 404 23Q262 158 165 158Q100 158 100 81Q100 -47 294 -173Q466 -285 575 -285H1920ZM1901 141V-266H594V141ZM561 -261Q453 -248 303 -154Q119 -40 119 83Q119 134 165 134Q270 134 407 -11Q537 -148 561 -261ZM538 -213Q538 -198 434 -80Q328 41 296 55Q161 114 157 114Q151 114 147 111.5Q143 109 138 109V60Q138 52 146 39Q197 -95 448 -202Q495 -222 531 -228Q538 -221 538 -213ZM487 -188Q437 -166 323 -110Q286 -92 226 -32Q157 37 157 76Q157 83 164 90Q180 82 218 68Q322 30 487 -188Z"/>
</svg>