<svg xmlns="http://www.w3.org/2000/svg" viewBox="0 -2048 2048 2048">
	<path fill="#000000" d="M1392 -481Q1392 -394 1365 -339Q1302 -211 1009 326H488L274 -57Q230 -130 151 -279Q138 -306 123 -375Q100 -478 100 -489Q100 -588 195 -662Q277 -726 393 -748Q423 -748 484 -756Q508 -762 515 -788Q522 -814 522 -858Q522 -855 517 -999Q508 -1253 393 -1317Q365 -1329 337 -1341Q296 -1363 296 -1396Q296 -1402 298.5 -1415.5Q301 -1429 301 -1434H1157Q1174 -1434 1185 -1427Q1196 -1409 1196 -1391Q1196 -1358 1172 -1347Q1138 -1337 1103 -1326Q1068 -1315 1035 -1265Q1006 -1220 1001 -1185Q975 -991 975 -841Q975 -790 975 -788Q980 -756 1003 -751Q1056 -748 1169 -728Q1392 -665 1392 -481ZM1367 -481Q1367 -529 1360 -547Q1332 -621 1270 -662Q1217 -698 1120 -711Q1001 -728 978 -736Q950 -746 950 -808Q950 -942 966 -1099Q970 -1134 996 -1240Q1009 -1291 1064 -1327Q1068 -1330 1130 -1360Q1170 -1379 1176 -1397Q1173 -1403 1164 -1414H327Q321 -1408 321 -1401Q321 -1387 340 -1366Q359 -1345 374 -1344Q386 -1344 403 -1342Q542 -1263 542 -878Q542 -784 530 -759Q521 -741 474 -733Q424 -725 338 -708Q247 -683 185 -624Q120 -561 120 -486Q120 -473 134 -409Q151 -337 166 -299Q170 -290 294 -67L498 301H999Q1204 -72 1325 -309Q1367 -391 1367 -481Z"/>
</svg>