<svg xmlns="http://www.w3.org/2000/svg" viewBox="0 -2048 2048 2048">
	<path fill="#000000" d="M1170 -553Q1170 -412 1109 -329Q1053 -252 948 -199Q848 -148 765 -148Q746 -148 737 -153L733 -150Q733 -134 733 -106Q732 -72 732 -59Q732 97 849 170Q859 176 951 210Q1010 231 1010 263Q1010 282 994 297H280Q255 272 255 260Q255 226 300 216Q540 165 540 -61Q540 -60 537 -98Q535 -132 536 -150Q522 -158 499 -158Q494 -158 482 -155.5Q470 -153 465 -153Q432 -153 348 -186Q333 -192 304 -205Q219 -252 184 -300Q155 -340 127.5 -412Q100 -484 100 -526Q100 -702 203 -821Q321 -958 532 -956Q540 -988 540 -1029Q540 -1122 486 -1224Q473 -1249 434 -1268Q406 -1281 376 -1294.5Q346 -1308 315 -1321Q260 -1349 260 -1371Q260 -1397 292 -1397H994Q1010 -1381 1010 -1371Q1010 -1344 971 -1325Q944 -1314 917 -1304Q914 -1303 863 -1284Q751 -1243 730 -1104Q724 -1064 724 -1022Q724 -969 732.5 -962Q741 -955 819 -950Q907 -945 1011 -867Q1124 -784 1143 -689Q1170 -556 1170 -553ZM1145 -541Q1145 -674 1067 -779Q979 -899 824 -926Q785 -933 718 -934Q700 -949 700 -1025Q700 -1246 878 -1313Q916 -1327 983 -1359Q985 -1363 985 -1375H295Q291 -1373 284 -1366Q305 -1346 328.5 -1337Q352 -1328 392 -1312Q420 -1299 448 -1285Q483 -1266 505 -1234Q565 -1149 565 -1027Q565 -941 547 -934Q463 -932 421 -921Q267 -882 189 -767Q124 -670 124 -538Q124 -474 161 -392Q200 -307 251 -266Q316 -215 385 -196Q428 -185 538 -176Q559 -174 562 -135Q560 -164 560 -73Q560 43 522 104Q476 178 348 221Q316 232 279 260Q284 265 285 272H985V255Q952 233 945 231Q710 173 710 -81Q710 -155 723 -171Q761 -173 799 -175Q843 -179 897 -198Q961 -220 1031.5 -285.5Q1102 -351 1119 -407Q1145 -491 1145 -541Z"/>
</svg>