<svg xmlns="http://www.w3.org/2000/svg" viewBox="49.2 -982.8 1370.5 1234.5">
	<path fill="currentColor" d="M1369 -222Q1369 -126 1300 -20Q1227 92 1137 113V201H548L549 173Q550 143 544 106Q424 82 360 -48Q342 -85 324 -189Q308 -286 308 -337Q308 -364 322 -425Q336 -486 336 -513Q336 -594 301 -669Q257 -762 186 -762Q179 -762 164 -759.5Q149 -757 142 -757Q100 -757 100 -799Q100 -810 111 -831H546Q562 -815 562 -796Q562 -766 503.5 -758.5Q445 -751 445 -713Q445 -668 458 -624Q476 -563 511 -563Q517 -563 535 -569Q553 -575 559 -576Q627 -588 734 -596L737 -599Q738 -649 738 -671Q738 -743 726 -782Q708 -841 638 -862Q577 -877 516 -892V-932H1170Q1168 -917 1165 -887Q1059 -877 1011 -848Q944 -807 944 -714V-595Q1369 -587 1369 -222ZM1350 -224Q1350 -396 1248 -485Q1152 -569 977 -569Q971 -569 959 -569Q948 -568 942 -568Q921 -568 921 -642Q921 -793 959 -841Q1002 -896 1152 -907H534Q680 -890 722 -836Q760 -788 760 -643Q760 -594 747 -573Q432 -561 360 -373Q339 -318 339 -291Q339 -29 489 56Q551 91 560 91H1125Q1183 91 1257 0Q1324 -81 1339 -146Q1350 -193 1350 -224ZM538 -787Q538 -787 538 -812H124V-791L134 -776Q170 -785 190 -785Q269 -785 316 -683Q354 -600 354 -510Q354 -442 337 -374Q352 -429 483 -552Q423 -608 423 -712Q423 -756 446 -768Q458 -774 513 -777Q525 -776 538 -787ZM1114 183V111H569V183Z"/>
</svg>