<svg xmlns="http://www.w3.org/2000/svg" viewBox="0 -2048 2048 2048">
	<path fill="#000000" d="M1727 -1000Q1613 -840 1529 -563Q1475 -356 1420 -149Q1344 82 1198 162Q1170 176 1117 203Q1080 223 993 241Q912 258 867 258Q884 258 818 249Q795 243 746 234Q644 219 543 114Q451 19 413 -92Q398 -135 276 -587Q205 -848 106 -978Q99 -1005 100 -1007ZM1691 -985L135 -980Q245 -800 307 -567Q360 -363 413 -159Q481 49 622 159Q655 185 745 209Q829 232 877 232Q1042 232 1193 136Q1225 116 1269 74.5Q1313 33 1321 16Q1393 -135 1486 -497Q1564 -798 1691 -985Z"/>
</svg>