<svg xmlns="http://www.w3.org/2000/svg" viewBox="28.8 -1570.2 777.4 1922.4">
	<path fill="currentColor" d="M735 -823Q735 -828 715 -794Q690 -752 665 -672Q651 -615 637 -557Q616 -476 585 -428Q566 -399 524 -376Q489 -357 486 -338L567 281H268L349 -338Q347 -345 304 -372Q252 -405 228 -474Q199 -555 174 -647Q144 -756 100 -820Q100 -819 107 -836Q118 -837 134 -847Q167 -900 203 -1045Q227 -1142 279 -1415Q286 -1451 334 -1477Q374 -1499 405 -1499Q433 -1499 469 -1482Q512 -1461 529 -1431Q559 -1378 574 -1308Q584 -1252 594 -1197Q600 -1166 614 -1106Q631 -1040 647 -975Q669 -892 695 -842Q700 -838 721 -836Q735 -834 735 -823ZM668 -839Q633 -934 589 -1121Q536 -1351 525 -1390Q501 -1473 410 -1473Q353 -1473 323 -1434Q301 -1404 284 -1329Q257 -1195 231 -1060Q199 -909 161 -839ZM694 -812H136Q166 -739 205 -621Q258 -460 261 -455Q307 -366 402 -366Q504 -366 555 -438Q588 -484 622 -609Q661 -749 694 -812ZM536 258L459 -345Q432 -341 411 -341Q390 -341 375 -345L293 258Z"/>
</svg>