<svg xmlns="http://www.w3.org/2000/svg" viewBox="24.7 -1608.3 1297.6 2033.6">
	<path fill="currentColor" d="M1247 -200Q1247 350 662 350Q402 350 251 201Q100 52 100 -208Q100 -294 154 -540Q260 -1023 340 -1242Q372 -1329 387 -1363Q420 -1433 459 -1468Q531 -1533 685 -1533Q798 -1533 861 -1487Q917 -1446 968 -1339Q1000 -1271 1053 -1075Q1092 -921 1174 -613Q1247 -349 1247 -200ZM875 -1439Q813 -1507 685 -1507Q540 -1507 475 -1447L677 -1040ZM1221 -200Q1221 -344 1149 -606Q1100 -805 991 -1201Q948 -1342 893 -1417L692 -1011L1195 0Q1221 -88 1221 -200ZM662 -1011L455 -1427Q418 -1382 364 -1233Q290 -1027 180 -534Q126 -291 126 -208Q126 -92 158 2ZM1183 35L677 -982L171 35Q292 324 662 324Q1074 324 1183 35Z"/>
</svg>