<svg xmlns="http://www.w3.org/2000/svg" viewBox="0 -2048 2048 2048">
	<path fill="#000000" d="M1939 -250Q1939 -164 1875 -84Q1807 0 1723 0H278Q198 0 145 -93Q100 -173 100 -260Q100 -348 147 -425Q201 -514 283 -514H1728Q1813 -514 1879 -423Q1939 -339 1939 -250ZM1913 -250Q1913 -327 1860 -404Q1802 -488 1728 -488H283Q213 -488 166 -406Q126 -336 126 -260Q126 -185 164 -112Q210 -26 278 -26H1723Q1796 -26 1856 -103Q1913 -175 1913 -250ZM1362 -255Q1362 -222 1333 -188.5Q1304 -155 1271 -155H758Q731 -155 708 -193Q687 -227 687 -257Q687 -290 703 -319Q723 -354 753 -354H1291Q1318 -354 1341 -317Q1362 -284 1362 -255ZM1336 -255Q1336 -272 1322 -298Q1306 -328 1291 -328H753Q735 -328 723 -300Q713 -277 713 -257Q713 -240 727 -212Q743 -181 758 -181H1271Q1293 -181 1314.5 -207Q1336 -233 1336 -255Z"/>
</svg>