<svg xmlns="http://www.w3.org/2000/svg" viewBox="0 -2048 2048 2048">
	<path fill="currentColor" d="M1993 -709Q1993 -681 1961 -681Q1954 -681 1926.5 -688.5Q1899 -696 1893 -696Q1877 -696 1870.5 -683.5Q1864 -671 1827 -573Q1813 -537 1759 -518V232Q1740 253 1717 253Q1708 253 1691.5 241Q1675 229 1675 220V-519Q1643 -544 1612 -593Q1596 -625 1581 -657Q1551 -711 1531 -711Q1526 -711 1500.5 -698.5Q1475 -686 1469 -686Q1455 -686 1448 -700Q1438 -721 1436 -723Q1475 -763 1507 -783Q1525 -787 1549 -809Q1561 -842 1577 -972Q1590 -1076 1610 -1275L1607 -1372Q1434 -1223 1375 -887Q1368 -866 1361 -833V-190H1431L1286 248H796L666 -188H736V-773Q729 -805 717 -872Q690 -1038 655 -1125Q601 -1261 485 -1367Q482 -1359 482 -1320Q482 -1276 510 -1032Q517 -957 543 -809Q543 -809 597 -769Q651 -729 651 -714Q651 -686 624 -686Q618 -686 594 -698.5Q570 -711 564 -711Q542 -711 511 -654Q495 -621 479.5 -588.5Q464 -556 417 -519V227Q391 253 375 253Q367 253 349 243Q328 232 328 220V-459Q328 -465 325.5 -484Q323 -503 322 -513Q278 -533 260 -588Q246 -633 232 -678Q223 -696 199 -696Q193 -696 168 -688.5Q143 -681 137 -681Q122 -681 100 -692V-735Q103 -737 174 -775Q216 -797 219 -813Q239 -929 250 -1091Q256 -1162 263 -1234Q271 -1323 266 -1369Q265 -1376 259 -1415Q254 -1449 254 -1455V-1486H487Q493 -1463 488 -1402H1601Q1601 -1412 1598.5 -1433Q1596 -1454 1596 -1460V-1486H1838L1824 -1315Q1824 -1204 1874 -804Q1906 -786 1939 -768Q1993 -734 1993 -709ZM1848 -811L1804 -1312Q1804 -1340 1809 -1399Q1814 -1457 1802 -1461H1621Q1636 -1411 1636 -1330Q1636 -1230 1612 -1061Q1594 -938 1576 -816Q1625 -835 1700 -835Q1758 -835 1848 -811ZM1972 -707Q1961 -745 1860 -779Q1768 -810 1697 -810Q1551 -810 1466 -717Q1520 -731 1528 -731Q1577 -731 1620 -631.5Q1663 -532 1715 -532Q1776 -532 1802 -581Q1817 -626 1832.5 -673.5Q1848 -721 1888 -721Q1895 -721 1916 -714Q1937 -707 1941 -707ZM1575 -1376H1169V-190H1341V-848Q1345 -861 1350 -882Q1382 -1043 1416 -1129Q1470 -1266 1575 -1376ZM1739 212V-511H1700V217L1711 228H1728Q1731 222 1739 212ZM1147 -190V-1376H950V-190ZM516 -816V-833Q495 -898 474 -1110Q457 -1286 457 -1340Q457 -1375 463 -1424Q467 -1453 455 -1459H279Q291 -1390 291 -1303Q291 -1177 239 -811H256Q283 -818 309 -825Q349 -835 393 -835Q471 -835 516 -816ZM924 -190V-1376H512Q697 -1198 742 -857Q749 -822 756 -778V-190ZM626 -717Q531 -810 388 -810Q252 -810 125 -725V-707Q224 -721 206 -721Q238 -721 256 -672Q288 -586 291 -581Q320 -532 378 -532Q436 -532 478 -631.5Q520 -731 564 -731Q581 -731 626 -717ZM1401 -168H696L816 228H1271ZM392 222V-511H353V217Q373 228 392 222Z"/>
</svg>