<svg xmlns="http://www.w3.org/2000/svg" viewBox="0 0 498 1000">
  <g transform="scale(1,-1) translate(0,-1000)">
    <path d="M120 490Q120 484 118.0 478.5Q116 473 116 472Q116 436 149.5 412.0Q183 388 216 382L250 375Q255 376 264.0 377.5Q273 379 296.0 386.0Q319 393 336.0 402.5Q353 412 367.5 430.5Q382 449 382 471Q382 473 380.0 478.5Q378 484 378 490Q366 517 326.0 533.0Q286 549 250 549Q213 548 172.5 532.0Q132 516 120 490ZM286 515Q298 515 308.0 508.5Q318 502 318 491Q318 473 284 473Q275 473 268.5 479.0Q262 485 262 493Q262 503 269.0 509.0Q276 515 286 515ZM212 516Q222 516 229.0 509.5Q236 503 236.0 494.0Q236 485 229.5 479.5Q223 474 214 474Q180 474 180 492Q180 503 190.0 509.5Q200 516 212 516ZM210 410Q193 410 193 428Q193 445 210 445H288Q305 445 305 427Q305 420 300.0 415.0Q295 410 288 410ZM190 837Q205 837 232.0 838.5Q259 840 273 840Q300 840 327 836Q327 836 333 881Q310 885 281 885Q268 885 238.0 883.5Q208 882 193 882Q175 882 165 883Q165 876 166.0 868.5Q167 861 168.5 852.0Q170 843 171 838Q174 838 180.5 837.5Q187 837 190 837ZM193 912Q208 912 237.5 913.5Q267 915 281 915Q310 915 335 911Q335 915 335.5 921.5Q336 928 336 931Q336 951 318.0 959.0Q300 967 249 970Q198 967 180.0 959.0Q162 951 162 931V929Q162 926 162.5 921.0Q163 916 163 913Q174 912 193 912ZM111 245Q111 206 160 206Q181 206 223 228V338Q181 346 137.5 373.5Q94 401 81 444Q71 442 66 442Q54 442 45 446Q45 442 51.0 421.0Q57 400 73.0 370.5Q89 341 109 331Q111 332 114 332Q122 332 127 325Q153 317 172.0 305.0Q191 293 198.0 284.0Q205 275 205 269Q205 254 182.0 243.0Q159 232 157 230Q153 226 146 226Q140 226 135.5 230.5Q131 235 131 241Q131 249 139.5 255.5Q148 262 158 266L168 271Q151 286 124 294Q111 250 111 245ZM347 174Q313 174 273 200V25Q273 15 265.5 7.5Q258 0 248.0 0.0Q238 0 230.5 7.5Q223 15 223 25V194Q189 176 160 176Q145 176 130.5 179.0Q116 182 98.5 199.0Q81 216 81 245Q81 255 83.0 264.0Q85 273 90.0 286.0Q95 299 96 304Q63 319 38.0 373.0Q13 427 12 472Q0 489 0 506Q0 524 15 534L27 540Q37 558 51 572Q87 608 116.0 623.5Q145 639 185 644Q176 706 167 724Q132 724 116.5 733.5Q101 743 87 764Q76 778 76 785Q76 791 80.5 795.5Q85 800 91 800Q100 800 113.0 778.5Q126 757 142 756Q144 756 150.0 755.0Q156 754 158 754Q153 777 146 810Q121 815 99 848Q89 862 89.0 868.0Q89 874 93.5 878.5Q98 883 104 883Q112 883 122.5 866.5Q133 850 139 845Q135 875 134 890Q118 899 103 922Q92 936 92 943Q92 949 96.5 953.5Q101 958 107 958Q112 958 118.5 952.0Q125 946 128 940L132 933Q133 954 143.0 967.5Q153 981 172.5 987.5Q192 994 207.5 996.5Q223 999 248 1000H249Q280 1000 313 992Q366 978 366 930Q366 911 365 901Q376 894 384.0 880.0Q392 866 395.0 856.5Q398 847 398 845Q398 839 393.5 834.5Q389 830 383 830Q372 830 369 840Q364 855 361 861Q360 855 358.0 842.5Q356 830 355 824Q365 816 372.5 802.5Q380 789 382.5 780.5Q385 772 385 770Q385 764 380.5 759.5Q376 755 370 755Q358 755 355 765Q347 785 347 786Q341 756 337 744Q349 737 357.5 722.5Q366 708 369.0 698.5Q372 689 372 687Q372 681 367.5 676.5Q363 672 357 672Q346 672 340.0 689.5Q334 707 327 714Q324 704 313 644Q352 639 380.5 623.5Q409 608 445 572Q459 558 469 540Q498 529 498 505Q498 488 484 469Q482 421 456.0 370.0Q430 319 407 307Q408 303 415.5 280.0Q423 257 423 243Q423 235 421.0 227.0Q419 219 412.5 205.0Q406 191 389.0 182.5Q372 174 347 174ZM328 271Q328 271 338.0 266.5Q348 262 356.5 255.5Q365 249 365 241Q365 235 360.5 230.5Q356 226 350 226Q347 226 344.5 227.0Q342 228 340.0 229.5Q338 231 332.5 234.5Q327 238 320 241Q291 253 291 269Q291 277 298 284Q327 311 360.5 322.0Q394 333 403 342Q415 354 430.0 384.0Q445 414 451 445Q439 441 432 441Q427 441 417 443Q404 400 359.0 372.0Q314 344 273 337V233Q277 231 281.5 229.0Q286 227 290.5 224.5Q295 222 297 221Q326 204 347 204Q393 204 393 243Q393 249 390.5 258.0Q388 267 384.0 279.0Q380 291 378 297Q352 290 328 271ZM225 586H238Q250 586 272 584Q278 610 279 618Q274 619 263.5 619.5Q253 620 248.0 620.0Q243 620 233.5 619.5Q224 619 219 618Q222 598 225 586ZM247 650H249Q262 649 284 647Q294 709 299 724Q278 727 260 727Q241 727 199 725Q204 710 214 648Q219 649 230.0 649.5Q241 650 247 650ZM189 754Q197 754 211.5 755.0Q226 756 237.5 756.5Q249 757 260 757Q286 757 309 753Q313 768 321 806Q298 810 273 810Q260 810 232.5 808.5Q205 807 190 807H176Q183 772 189 754ZM302 579Q369 563 398 531Q412 541 430 544Q394 580 370.5 594.5Q347 609 308 615Q305 594 302 579ZM195 583Q194 588 192.5 599.5Q191 611 190 615Q151 610 126.5 595.0Q102 580 67 545Q87 542 100 531Q135 572 195 583Z" fill="currentColor"/>
  </g>
</svg>