<svg xmlns="http://www.w3.org/2000/svg" viewBox="0 -2048 2048 2048">
	<path fill="currentColor" d="M2236 -277H100V-939H2236ZM2210 -303V-913H126V-303ZM2003 -608Q2003 -531 1949 -477Q1895 -423 1818 -423Q1741 -423 1687 -477Q1633 -531 1633 -608Q1633 -685 1687 -739Q1741 -793 1818 -793Q1895 -793 1949 -739Q2003 -685 2003 -608ZM1353 -608Q1353 -531 1299 -477Q1245 -423 1168 -423Q1091 -423 1037 -477Q983 -531 983 -608Q983 -685 1037 -739Q1091 -793 1168 -793Q1245 -793 1299 -739Q1353 -685 1353 -608ZM703 -608Q703 -531 649 -477Q595 -423 518 -423Q441 -423 387 -477Q333 -531 333 -608Q333 -685 387 -739Q441 -793 518 -793Q595 -793 649 -739Q703 -685 703 -608ZM1977 -608Q1977 -674 1930.5 -720.5Q1884 -767 1818 -767Q1752 -767 1705.5 -720.5Q1659 -674 1659 -608Q1659 -542 1705.5 -495.5Q1752 -449 1818 -449Q1884 -449 1930.5 -495.5Q1977 -542 1977 -608ZM1327 -608Q1327 -674 1280.5 -720.5Q1234 -767 1168 -767Q1102 -767 1055.5 -720.5Q1009 -674 1009 -608Q1009 -542 1055.5 -495.5Q1102 -449 1168 -449Q1234 -449 1280.5 -495.5Q1327 -542 1327 -608ZM677 -608Q677 -674 630.5 -720.5Q584 -767 518 -767Q452 -767 405.5 -720.5Q359 -674 359 -608Q359 -542 405.5 -495.5Q452 -449 518 -449Q584 -449 630.5 -495.5Q677 -542 677 -608Z"/>
</svg>