<svg xmlns="http://www.w3.org/2000/svg" viewBox="0 -2048 2048 2048">
	<path fill="#000000" d="M1952 -96Q1952 -62 1812 -39Q1707 -22 1641 -22L1120 -60V346H850V-34Q822 -35 742 -26Q659 -17 657 -17Q557 -17 513 -40Q474 -60 413 -140Q362 -207 324 -207Q319 -207 287 -202Q255 -197 248 -197Q206 -197 161 -215Q100 -240 100 -281Q100 -320 152 -353Q186 -372 221 -390Q220 -391 154 -449Q105 -492 105 -508Q105 -540 129 -540Q128 -540 293 -408Q325 -443 356 -478Q419 -545 432 -545Q459 -545 459 -516Q459 -487 364 -395Q388 -387 410 -368Q455 -319 500 -271Q579 -186 593 -186Q616 -186 850 -259V-443H465V-729H849V-1500H1118V-732H1503V-445H1119V-259Q1203 -223 1287 -186Q1426 -128 1481 -128H1891Q1952 -128 1952 -96ZM1477 -467V-708H1119V-467ZM1091 -271V-1478H876V-271Q935 -275 987 -275Q1040 -275 1091 -271ZM848 -467V-708H491V-467ZM1921 -94L1549 -102Q1448 -96 1256 -174Q1056 -255 968 -255Q915 -255 779.5 -210Q644 -165 601 -165Q558 -165 465.5 -270.5Q373 -376 314 -376Q307 -376 294.5 -375Q282 -374 277 -374Q252 -375 195 -348Q126 -316 126 -281Q126 -250 181 -232Q221 -218 250 -218Q255 -218 290.5 -226Q326 -234 332 -234Q368 -234 417 -175Q487 -88 507 -72Q537 -47 585 -44Q628 -41 670 -38L1060 -91L1630 -44Q1768 -44 1921 -94ZM1091 320V-64H990Q983 -64 942 -56Q893 -45 876 -43V320ZM437 -513L432 -520L324 -406L337 -402ZM265 -399L139 -506L134 -499L252 -395ZM300 -325Q288 -313 277 -313Q272 -313 248 -325Q257 -345 271 -360Q283 -356 300 -342Z"/>
</svg>