<svg xmlns="http://www.w3.org/2000/svg" viewBox="69.4 -825.6 664.1 825.1">
	<path fill="currentColor" d="M703 -97Q703 -71 685.5 -51Q668 -31 642 -31Q630 -31 616 -37Q388 -132 250 -308Q100 -499 100 -734Q100 -795 164 -795Q208 -795 224 -745Q234 -697 256 -603Q327 -337 538 -214Q581 -195 665 -152Q703 -130 703 -97ZM677 -97Q677 -116 653 -130Q609 -149 524 -192Q304 -320 230 -597Q223 -645 200 -737Q189 -769 164 -769Q126 -769 126 -734Q126 -507 271 -323Q405 -154 626 -61Q636 -57 642 -57Q677 -57 677 -97Z"/>
</svg>