<svg xmlns="http://www.w3.org/2000/svg" viewBox="0 -2048 2048 2048">
	<path fill="#000000" d="M1083 171L100 161Q115 -59 285 -201Q247 -267 209 -332Q142 -452 142 -484Q142 -500 167 -538Q192 -576 203 -584L216 -571Q215 -569 188 -532Q168 -506 168 -484Q168 -441 227 -347Q268 -283 309 -219Q407 -309 589 -309Q759 -309 869 -219Q870 -221 996 -381Q1001 -382 1006.5 -379.5Q1012 -377 1014 -377Q957 -287 893 -201Q1062 -70 1083 171ZM1051 145V100Q1052 48 994 -49Q855 -283 589 -283Q478 -283 369 -228Q238 -161 188 -43Q126 105 126 128V145Z"/>
</svg>