<svg xmlns="http://www.w3.org/2000/svg" viewBox="0 -2048 2048 2048">
	<path fill="#000000" d="M1390 -391Q1390 -331 1347.5 -288.5Q1305 -246 1245 -246Q1185 -246 1142.5 -288.5Q1100 -331 1100 -391Q1100 -451 1142.5 -493.5Q1185 -536 1245 -536Q1305 -536 1347.5 -493.5Q1390 -451 1390 -391ZM890 -391Q890 -331 847.5 -288.5Q805 -246 745 -246Q685 -246 642.5 -288.5Q600 -331 600 -391Q600 -451 642.5 -493.5Q685 -536 745 -536Q805 -536 847.5 -493.5Q890 -451 890 -391ZM390 -391Q390 -331 347.5 -288.5Q305 -246 245 -246Q185 -246 142.5 -288.5Q100 -331 100 -391Q100 -451 142.5 -493.5Q185 -536 245 -536Q305 -536 347.5 -493.5Q390 -451 390 -391ZM1364 -391Q1364 -440 1329 -475Q1294 -510 1245 -510Q1196 -510 1161 -475Q1126 -440 1126 -391Q1126 -342 1161 -307Q1196 -272 1245 -272Q1294 -272 1329 -307Q1364 -342 1364 -391ZM864 -391Q864 -440 829 -475Q794 -510 745 -510Q696 -510 661 -475Q626 -440 626 -391Q626 -342 661 -307Q696 -272 745 -272Q794 -272 829 -307Q864 -342 864 -391ZM364 -391Q364 -440 329 -475Q294 -510 245 -510Q196 -510 161 -475Q126 -440 126 -391Q126 -342 161 -307Q196 -272 245 -272Q294 -272 329 -307Q364 -342 364 -391Z"/>
</svg>