<svg xmlns="http://www.w3.org/2000/svg" viewBox="0 -2048 2048 2048">
	<path fill="currentColor" d="M390 -891Q390 -831 347.5 -788.5Q305 -746 245 -746Q185 -746 142.5 -788.5Q100 -831 100 -891Q100 -951 142.5 -993.5Q185 -1036 245 -1036Q305 -1036 347.5 -993.5Q390 -951 390 -891ZM390 -391Q390 -331 347.5 -288.5Q305 -246 245 -246Q185 -246 142.5 -288.5Q100 -331 100 -391Q100 -451 142.5 -493.5Q185 -536 245 -536Q305 -536 347.5 -493.5Q390 -451 390 -391ZM390 109Q390 169 347.5 211.5Q305 254 245 254Q185 254 142.5 211.5Q100 169 100 109Q100 49 142.5 6.5Q185 -36 245 -36Q305 -36 347.5 6.5Q390 49 390 109ZM364 -891Q364 -940 329 -975Q294 -1010 245 -1010Q196 -1010 161 -975Q126 -940 126 -891Q126 -842 161 -807Q196 -772 245 -772Q294 -772 329 -807Q364 -842 364 -891ZM364 -391Q364 -440 329 -475Q294 -510 245 -510Q196 -510 161 -475Q126 -440 126 -391Q126 -342 161 -307Q196 -272 245 -272Q294 -272 329 -307Q364 -342 364 -391ZM364 109Q364 60 329 25Q294 -10 245 -10Q196 -10 161 25Q126 60 126 109Q126 158 161 193Q196 228 245 228Q294 228 329 193Q364 158 364 109Z"/>
</svg>